<?xml version="1.0" encoding="UTF-8" standalone="no"?>
<svg
   width="48"
   height="48"
   version="1.1"
   id="svg1"
   sodipodi:docname="emblem-symbolic-link.svg"
   inkscape:version="1.3.2 (091e20ef0f, 2023-11-25, custom)"
   xmlns:inkscape="http://www.inkscape.org/namespaces/inkscape"
   xmlns:sodipodi="http://sodipodi.sourceforge.net/DTD/sodipodi-0.dtd"
   xmlns="http://www.w3.org/2000/svg"
   xmlns:svg="http://www.w3.org/2000/svg">
  <defs
     id="defs1">
    <inkscape:path-effect
       effect="fillet_chamfer"
       id="path-effect1"
       is_visible="true"
       lpeversion="1"
       nodesatellites_param="F,0,0,1,0,2.1717711,0,1 @ F,0,1,1,0,0.96886447,0,1 @ F,0,0,1,0,0,0,1 @ F,0,0,1,0,0,0,1 @ F,0,0,1,0,0,0,1 @ F,0,0,1,0,0,0,1 @ F,0,0,1,0,0,0,1 @ F,0,0,1,0,0,0,1 @ F,0,0,1,0,0.96886447,0,1 @ F,0,0,1,0,2.1717711,0,1 @ F,0,0,1,0,2.1717711,0,1"
       radius="0"
       unit="px"
       method="auto"
       mode="F"
       chamfer_steps="1"
       flexible="false"
       use_knot_distance="true"
       apply_no_radius="true"
       apply_with_radius="true"
       only_selected="false"
       hide_knots="false" />
    <inkscape:path-effect
       effect="fillet_chamfer"
       id="path-effect1-7"
       is_visible="true"
       lpeversion="1"
       nodesatellites_param="F,0,0,1,0,2.1717711,0,1 @ F,0,1,1,0,0.96886447,0,1 @ F,0,0,1,0,0,0,1 @ F,0,0,1,0,0,0,1 @ F,0,0,1,0,0,0,1 @ F,0,0,1,0,0,0,1 @ F,0,0,1,0,0,0,1 @ F,0,0,1,0,0,0,1 @ F,0,0,1,0,0.96886447,0,1 @ F,0,0,1,0,2.1717711,0,1 @ F,0,0,1,0,2.1717711,0,1"
       radius="0"
       unit="px"
       method="auto"
       mode="F"
       chamfer_steps="1"
       flexible="false"
       use_knot_distance="true"
       apply_no_radius="true"
       apply_with_radius="true"
       only_selected="false"
       hide_knots="false" />
    <filter
       inkscape:collect="always"
       style="color-interpolation-filters:sRGB"
       id="filter2"
       x="-0.10283095"
       y="-0.12427669"
       width="1.2056374"
       height="1.24853">
      <feGaussianBlur
         inkscape:collect="always"
         stdDeviation="1.0062197"
         id="feGaussianBlur2" />
    </filter>
  </defs>
  <sodipodi:namedview
     id="namedview1"
     pagecolor="#ffffff"
     bordercolor="#000000"
     borderopacity="0.25"
     inkscape:showpageshadow="2"
     inkscape:pageopacity="0.0"
     inkscape:pagecheckerboard="0"
     inkscape:deskcolor="#d1d1d1"
     inkscape:zoom="17.0625"
     inkscape:cx="24"
     inkscape:cy="24"
     inkscape:window-width="1920"
     inkscape:window-height="1018"
     inkscape:window-x="0"
     inkscape:window-y="0"
     inkscape:window-maximized="1"
     inkscape:current-layer="svg1" />
  <path
     style="fill:#d8e9ff;fill-opacity:1;fill-rule:evenodd;stroke:none;stroke-width:0.0999999;stroke-linejoin:round;stroke-dasharray:none;stroke-opacity:1"
     d="m 25.499765,15.681537 0,1.859364 a 0.96886447,0.96886447 135 0 1 -0.968864,0.968864 h -5.031136 c -2.857957,1.68e-4 -5.498755,1.524937 -6.927734,4 -1.429062,2.475209 -1.429062,5.524791 0,8 1.360346,2.348459 3.818576,3.847075 6.529296,3.980469 -2.044761,-0.204696 -3.601748,-1.925487 -3.601562,-3.980469 0,-2.209139 1.790861,-4 4,-4 h 5.031136 a 0.96886447,0.96886447 45 0 1 0.968864,0.968864 v 1.859365 a 1.029157,1.029157 25.355297 0 0 1.680858,0.796523 l 7.638284,-6.249504 a 1.7769035,1.7769035 89.999998 0 0 0,-2.750495 l -7.638284,-6.249505 a 1.0291571,1.0291571 154.6447 0 0 -1.680858,0.796524 z"
     id="path1"
     inkscape:path-effect="#path-effect1"
     inkscape:original-d="m 25.499765,13.509766 v 4.999999 h -6 a 8,8 0 0 0 -6.927734,4 8,8 0 0 0 0,8 8,8 0 0 0 6.529296,3.980469 4.0000005,4.0000005 0 0 1 -3.601562,-3.980469 4.0000005,4.0000005 0 0 1 4,-4 h 6 v 5 l 11,-9 z"
     transform="rotate(180,23.742711,24.343812)" />
  <path
     style="fill:none;fill-opacity:1;fill-rule:evenodd;stroke:#000000;stroke-width:0.0999999;stroke-linejoin:round;stroke-dasharray:none;stroke-opacity:1;filter:url(#filter2)"
     d="m 25.499765,15.681537 0,1.859364 a 0.96886447,0.96886447 135 0 1 -0.968864,0.968864 h -5.031136 c -2.857957,1.68e-4 -5.498755,1.524937 -6.927734,4 -1.429062,2.475209 -1.429062,5.524791 0,8 1.360346,2.348459 3.818576,3.847075 6.529296,3.980469 -2.044761,-0.204696 -3.601748,-1.925487 -3.601562,-3.980469 0,-2.209139 1.790861,-4 4,-4 h 5.031136 a 0.96886447,0.96886447 45 0 1 0.968864,0.968864 v 1.859365 a 1.029157,1.029157 25.355297 0 0 1.680858,0.796523 l 7.638284,-6.249504 a 1.7769035,1.7769035 89.999998 0 0 0,-2.750495 l -7.638284,-6.249505 a 1.0291571,1.0291571 154.6447 0 0 -1.680858,0.796524 z"
     id="path1-3"
     inkscape:path-effect="#path-effect1-7"
     inkscape:original-d="m 25.499765,13.509766 v 4.999999 h -6 a 8,8 0 0 0 -6.927734,4 8,8 0 0 0 0,8 8,8 0 0 0 6.529296,3.980469 4.0000005,4.0000005 0 0 1 -3.601562,-3.980469 4.0000005,4.0000005 0 0 1 4,-4 h 6 v 5 l 11,-9 z"
     transform="rotate(180,23.742564,24.285538)" />
</svg>
