<?xml version="1.0" encoding="UTF-8" standalone="no"?>
<svg
   width="16"
   height="16"
   version="1.1"
   id="svg1"
   sodipodi:docname="pamac-tray-no-update.svg"
   inkscape:version="1.3.2 (091e20ef0f, 2023-11-25, custom)"
   xmlns:inkscape="http://www.inkscape.org/namespaces/inkscape"
   xmlns:sodipodi="http://sodipodi.sourceforge.net/DTD/sodipodi-0.dtd"
   xmlns="http://www.w3.org/2000/svg"
   xmlns:svg="http://www.w3.org/2000/svg">
  <sodipodi:namedview
     id="namedview1"
     pagecolor="#505050"
     bordercolor="#eeeeee"
     borderopacity="1"
     inkscape:showpageshadow="0"
     inkscape:pageopacity="0"
     inkscape:pagecheckerboard="0"
     inkscape:deskcolor="#505050"
     inkscape:zoom="53.9375"
     inkscape:cx="7.99073"
     inkscape:cy="8"
     inkscape:window-width="1920"
     inkscape:window-height="1024"
     inkscape:window-x="0"
     inkscape:window-y="0"
     inkscape:window-maximized="1"
     inkscape:current-layer="svg1" />
  <defs
     id="defs1">
    <inkscape:path-effect
       effect="fillet_chamfer"
       id="path-effect1"
       is_visible="true"
       lpeversion="1"
       nodesatellites_param="F,0,0,1,0,0.62442464,0,1 @ F,0,0,1,0,0.62442464,0,1 @ F,0,0,1,0,0.926787,0,1 @ F,0,0,1,0,0.62442464,0,1 | F,0,0,1,0,0.50686633,0,1 @ F,0,0,1,0,0.50686633,0,1 @ F,0,0,1,0,0,0,1 @ F,0,0,1,0,0.84574674,0,1 @ F,0,0,1,0,0,0,1 @ F,0,0,1,0,0.5363787,0,1 @ F,0,0,1,0,0.5363787,0,1 @ F,0,0,1,0,0.26116511,0,1"
       radius="0"
       unit="px"
       method="auto"
       mode="F"
       chamfer_steps="1"
       flexible="false"
       use_knot_distance="true"
       apply_no_radius="true"
       apply_with_radius="true"
       only_selected="false"
       hide_knots="false" />
    <style
       id="current-color-scheme"
       type="text/css">
   .ColorScheme-Text { color:#dfdfdf; } .ColorScheme-Highlight { color:#4285f4; } .ColorScheme-NeutralText { color:#ff9800; } .ColorScheme-PositiveText { color:#4caf50; } .ColorScheme-NegativeText { color:#f44336; }
  </style>
  </defs>
  <path
     style="fill:#00ff75;fill-rule:evenodd;fill-opacity:1"
     class="ColorScheme-Text"
     d="M 7.5291376,1.4098844 C 5.9705449,2.6777032 3.8236951,3.6487044 2.5969758,4.0695437 2.2711796,4.1813116 1.9987306,4.5297083 2.0132135,4.8742389 c 0.1732481,4.1213475 2.0416488,8.5562501 5.1036641,9.8495781 0.4707596,0.198839 1.2954911,0.198838 1.7662567,-5e-6 C 11.945146,13.430476 13.813543,8.9955718 13.986787,4.8742261 14.001269,4.5297026 13.728552,4.1812929 13.402444,4.0694355 12.17525,3.6484988 10.028746,2.6774139 8.4703924,1.4095305 8.2031914,1.1921346 7.7966118,1.1923107 7.5291376,1.4098844 Z m 4.1922714,4.9993242 a 0.50000097,0.50000097 90.793879 0 1 -0.0098,0.7070203 L 8.5352,10.293 8.4261755,10.402009 a 0.84580655,0.84580655 0.00202587 0 1 -1.1961088,-4.2e-5 L 7.1211,10.293 5.379277,8.551177 A 0.53641663,0.53641663 89.997974 0 1 5.3792502,7.7925962 0.50124927,0.50124927 4.164537 0 1 6.086277,7.844077 l 1.5571514,1.5571514 a 0.26115772,0.26115772 179.99919 0 0 0.369338,-5.2e-6 L 11.004602,6.4092188 a 0.50685199,0.50685199 179.99919 0 1 0.716807,-1.02e-5 z"
     id="path1"
     inkscape:path-effect="#path-effect1"
     inkscape:original-d="M 8,0.99996 C 6.1588,2.7236 3.0582,3.9918 2,4.25 2,8.9164 4.25,14.222 8,15 11.75,14.222 14,8.9164 14,4.25 12.941,3.9918 9.8411,2.7236 8,0.99996 Z M 11.363,6.0508 12.07,6.7578 8.5352,10.293 7.8281,11 7.1211,10.293 5,8.1719 5.707,7.4648 7.8281,9.5859 Z" />
</svg>
