<?xml version="1.0" encoding="UTF-8" standalone="no"?>
<svg
   width="64"
   height="64"
   version="1"
   id="svg11"
   sodipodi:docname="010editor.svg"
   inkscape:version="1.3.2 (091e20ef0f, 2023-11-25, custom)"
   xmlns:inkscape="http://www.inkscape.org/namespaces/inkscape"
   xmlns:sodipodi="http://sodipodi.sourceforge.net/DTD/sodipodi-0.dtd"
   xmlns:xlink="http://www.w3.org/1999/xlink"
   xmlns="http://www.w3.org/2000/svg"
   xmlns:svg="http://www.w3.org/2000/svg">
  <defs
     id="defs11">
    <linearGradient
       id="linearGradient11"
       inkscape:collect="always">
      <stop
         style="stop-color:#fab800;stop-opacity:1;"
         offset="0"
         id="stop11" />
      <stop
         style="stop-color:#fa8300;stop-opacity:1;"
         offset="1"
         id="stop12" />
    </linearGradient>
    <radialGradient
       inkscape:collect="always"
       xlink:href="#linearGradient11"
       id="radialGradient12"
       cx="16.415363"
       cy="50.369389"
       fx="16.415363"
       fy="50.369389"
       r="29"
       gradientTransform="matrix(1.1467049,-0.66205039,0.37886768,0.65621806,-18.565745,21.133712)"
       gradientUnits="userSpaceOnUse" />
    <filter
       inkscape:collect="always"
       style="color-interpolation-filters:sRGB"
       id="filter12"
       x="-0.038336282"
       y="-0.073705225"
       width="1.0766726"
       height="1.1474104">
      <feGaussianBlur
         inkscape:collect="always"
         stdDeviation="0.79849372"
         id="feGaussianBlur12" />
    </filter>
    <filter
       inkscape:collect="always"
       style="color-interpolation-filters:sRGB"
       id="filter13"
       x="-0.09738756"
       y="-0.12775906"
       width="1.1961668"
       height="1.2553014">
      <feGaussianBlur
         inkscape:collect="always"
         stdDeviation="2.1297772"
         id="feGaussianBlur13" />
    </filter>
    <filter
       inkscape:collect="always"
       style="color-interpolation-filters:sRGB"
       id="filter14"
       x="-0.043537235"
       y="-0.084512383"
       width="1.0870745"
       height="1.1690248">
      <feGaussianBlur
         inkscape:collect="always"
         stdDeviation="0.90663339"
         id="feGaussianBlur14" />
    </filter>
    <filter
       inkscape:collect="always"
       style="color-interpolation-filters:sRGB"
       id="filter15"
       x="-0.087665238"
       y="-0.14892709"
       width="1.1753305"
       height="1.2978542">
      <feGaussianBlur
         inkscape:collect="always"
         stdDeviation="0.45113308"
         id="feGaussianBlur15" />
    </filter>
  </defs>
  <sodipodi:namedview
     id="namedview11"
     pagecolor="#ffffff"
     bordercolor="#000000"
     borderopacity="0.25"
     inkscape:showpageshadow="2"
     inkscape:pageopacity="0.0"
     inkscape:pagecheckerboard="0"
     inkscape:deskcolor="#d1d1d1"
     inkscape:zoom="6.9453125"
     inkscape:cx="31.892013"
     inkscape:cy="37.795276"
     inkscape:window-width="1920"
     inkscape:window-height="1020"
     inkscape:window-x="0"
     inkscape:window-y="0"
     inkscape:window-maximized="1"
     inkscape:current-layer="svg11" />
  <path
     style="fill:url(#radialGradient12);stroke-width:0.812264"
     d="M 8.4443543,18.951685 C 40.679821,9.6592397 45.666603,11.871268 55.555646,42.867297 30.178226,53.0318 19.346422,52.058775 13.214624,40.416418 11.20534,36.60142 10.863934,31.439184 9.8634434,25.034583 9.496236,22.683921 8.7052462,21.695525 8.4443543,18.951685 Z"
     id="path2" />
  <path
     style="opacity:0.472406;mix-blend-mode:normal;fill:none;stroke:#000000;stroke-opacity:1;filter:url(#filter13)"
     d="M 3,16.135862 C 42.685964,4.6956792 48.825328,7.4189678 61,45.579026 29.757164,58.092824 16.421834,56.894906 8.8728092,42.561682 6.3991244,37.864934 5.978811,31.509564 4.7470794,23.624684 4.2950004,20.73072 3.3211912,19.51388 3,16.135862 Z"
     id="path1"
     transform="matrix(0.81226365,0,0,0.81226365,5.9747824,5.8489838)" />
  <g
     id="g1"
     transform="matrix(1.3821503,0.20604053,-0.20604053,1.3821503,-5.8392379,-17.697954)">
    <path
       style="opacity:0.472406;filter:url(#filter12)"
       d="m 9.6445312,18.2 c -0.7318754,0.0168 -1.324477,0.295186 -1.765625,0.710938 H 7.875 c -0.09909,0.09344 -0.167128,0.21008 -0.25,0.316406 -0.15497,0.1996 -0.279174,0.411276 -0.375,0.644532 -0.05721,0.13888 -0.12887,0.271322 -0.164062,0.417968 l 0.00782,0.004 c -0.2777984,1.156968 0.131678,2.481528 1.4375,3.121094 l 10.53125,5.390624 0.14454,-0.296874 22.375,11.140624 7.15625,2.898438 0.0156,-0.03906 L 51.6875,44.2 57,43.867968 c -2.047838,-1.45284 -3.862412,-3.066986 -7.210938,-3.617186 l 0.0196,-0.04296 -6.25,-4.30078 -22.265626,-11.6875 0.17578,-0.363282 -10.523438,-5.347656 C 10.543618,18.297244 10.096755,18.189781 9.6445312,18.2 Z"
       id="path3"
       transform="matrix(0.81226365,0,0,0.81226365,6.0151406,6.0442153)" />
    <path
       style="fill:#555555;fill-opacity:1;stroke-width:0.812264"
       d="M 16.598488,22.031579 41.397571,35.046575 39.791575,38.087586 15.090165,25.786324 C 14.04384,25.33833 14.046384,25.349638 14.500297,24.33624 l 0.798707,-1.783175 c 0.392943,-1.039995 0.39363,-0.998177 1.299484,-0.521486 z"
       id="path4" />
    <path
       style="fill:#000000;fill-opacity:1;stroke-width:0.812264"
       d="m 45.517988,38.452797 c 3.350974,0.267546 4.948538,1.751904 6.796181,3.062715 l -4.315245,0.268304 -3.3636,-1.939721 z"
       id="path5" />
    <path
       style="fill:#252525;fill-opacity:1;stroke-width:0.812264"
       d="m 13.847717,20.665512 c -2.304377,0.05262 -2.97931,3.219342 -0.902903,4.236325 l 8.552928,4.376975 1.956378,-4.020031 -8.549305,-4.344279 c -0.326282,-0.171672 -0.689773,-0.257291 -1.057098,-0.24899 z"
       id="path6" />
    <path
       style="opacity:0.220579;filter:url(#filter15)"
       d="m 7.8737666,19.729869 c -0.3951792,0.372623 -0.6633122,0.856815 -0.78896,1.380379 l 11.0762744,5.771798 c 0.915953,0.491322 1.963757,-0.661932 0.668174,-1.442304 z"
       id="path7"
       transform="matrix(0.81226365,0,0,0.81226365,6.0151406,6.0442153)" />
    <path
       style="fill:#d7d7d7;fill-opacity:1;stroke-width:0.812264"
       d="m 12.410715,21.241144 c -0.32099,0.302669 -0.538784,0.695961 -0.640844,1.121234 l 8.996856,4.688221 c 0.743995,0.399083 1.595088,-0.537663 0.542733,-1.171531 z"
       id="path8" />
    <path
       style="opacity:0.815955;fill:#ffffff;filter:url(#filter14)"
       d="M 9.6445312,18 C 7.769018,18.042825 6.7899569,19.758132 7.0683594,21.279297 7.2693163,20.092853 8.1782655,19.033482 9.6445312,19 10.096755,18.98978 10.543618,19.09724 10.945312,19.308594 L 21.46875,24.65625 21.292969,25.019531 43.144531,36.490234 43.558594,35.707031 21.292969,24.019531 21.46875,23.65625 10.945312,18.308594 C 10.543619,18.097244 10.096755,17.989781 9.6445312,18 Z m 38.9882808,21.898438 -1.085937,1.714843 0.464844,0.267578 0.621093,-0.982421 c 3.348183,0.267322 5.272638,1.522173 7.095704,2.847656 L 57,43.667969 C 54.725316,42.054193 52.758288,40.22782 48.632812,39.898438 Z"
       id="path10"
       transform="matrix(0.81226365,0,0,0.81226365,6.0151406,6.0442153)" />
    <path
       style="fill:#2d2d2d;fill-opacity:1;stroke-width:0.812264"
       d="m 41.397571,35.046575 5.076666,3.494633 -0.87062,1.901562 -5.812042,-2.355184 z"
       id="path11" />
  </g>
</svg>
