<?xml version="1.0" encoding="UTF-8" standalone="no"?>
<svg
   width="64"
   height="64"
   version="1.1"
   id="svg4"
   sodipodi:docname="0cc-famitracker.svg"
   inkscape:version="1.3.2 (091e20ef0f, 2023-11-25, custom)"
   xmlns:inkscape="http://www.inkscape.org/namespaces/inkscape"
   xmlns:sodipodi="http://sodipodi.sourceforge.net/DTD/sodipodi-0.dtd"
   xmlns:xlink="http://www.w3.org/1999/xlink"
   xmlns="http://www.w3.org/2000/svg"
   xmlns:svg="http://www.w3.org/2000/svg">
  <defs
     id="defs4">
    <linearGradient
       id="linearGradient6"
       inkscape:collect="always">
      <stop
         style="stop-color:#926e9f;stop-opacity:1;"
         offset="0"
         id="stop6" />
      <stop
         style="stop-color:#5c378a;stop-opacity:1;"
         offset="1"
         id="stop7" />
    </linearGradient>
    <inkscape:path-effect
       effect="fillet_chamfer"
       id="path-effect4"
       is_visible="true"
       lpeversion="1"
       nodesatellites_param="F,0,0,1,0,0,0,1 @ F,0,0,1,0,0,0,1 @ F,0,0,1,0,0,0,1 @ F,0,0,1,0,0,0,1 @ F,0,0,1,0,0,0,1 @ F,0,0,1,0,0,0,1 @ F,0,0,1,0,0,0,1 @ F,0,0,1,0,0,0,1 | F,0,0,1,0,0,0,1 @ F,0,0,1,0,0,0,1 @ F,0,0,1,0,0,0,1 @ F,0,0,1,0,0,0,1 @ F,0,0,1,0,0,0,1 @ F,0,0,1,0,1.5592809,0,1 @ F,0,0,1,0,1.5592809,0,1 @ F,0,0,1,0,0,0,1 @ F,0,0,1,0,0,0,1 @ F,0,0,1,0,0,0,1 @ F,0,0,1,0,0,0,1 @ F,0,0,1,0,0,0,1 @ F,0,0,1,0,0,0,1 @ F,0,0,1,0,1.5592809,0,1 @ F,0,0,1,0,1.5592809,0,1 @ F,0,0,1,0,0,0,1 | F,0,0,1,0,0,0,1 @ F,0,0,1,0,0,0,1 @ F,0,0,1,0,0,0,1 @ F,0,0,1,0,0,0,1 @ F,0,0,1,0,0,0,1 @ F,0,0,1,0,1.5592809,0,1 @ F,0,0,1,0,1.5592809,0,1 @ F,0,0,1,0,0,0,1 @ F,0,0,1,0,0,0,1 @ F,0,0,1,0,0,0,1 @ F,0,0,1,0,0,0,1 @ F,0,0,1,0,0,0,1 @ F,0,0,1,0,0,0,1 @ F,0,0,1,0,1.5592809,0,1 @ F,0,0,1,0,1.5592809,0,1 @ F,0,0,1,0,0,0,1 | F,0,0,1,0,0,0,1 @ F,0,0,1,0,0,0,1 @ F,0,0,1,0,0,0,1 @ F,0,0,1,0,0,0,1 @ F,0,0,1,0,0,0,1 @ F,0,0,1,0,0,0,1 @ F,0,0,1,0,0,0,1 @ F,0,0,1,0,0,0,1 | F,0,0,1,0,0,0,1 @ F,0,0,1,0,0,0,1 @ F,0,0,1,0,1.5592809,0,1 @ F,0,0,1,0,1.5592809,0,1 @ F,0,0,1,0,1.3288755,0,1 @ F,0,0,1,0,1.5592809,0,1 @ F,0,0,1,0,1.5592809,0,1 @ F,0,0,1,0,1.3288755,0,1 @ F,0,0,1,0,1.3288755,0,1 @ F,0,0,1,0,1.5592809,0,1 @ F,0,0,1,0,1.5592809,0,1 | F,0,0,1,0,1.5592809,0,1 @ F,0,0,1,0,1.5592809,0,1 @ F,0,1,1,0,1.2768875,0,1 @ F,0,0,1,0,1.5592809,0,1 @ F,0,0,1,0,1.5592809,0,1 @ F,0,0,1,0,1.2768875,0,1 @ F,0,0,1,0,1.5592809,0,1 @ F,0,0,1,0,1.5592809,0,1"
       radius="0"
       unit="px"
       method="auto"
       mode="F"
       chamfer_steps="1"
       flexible="false"
       use_knot_distance="true"
       apply_no_radius="true"
       apply_with_radius="true"
       only_selected="false"
       hide_knots="false" />
    <inkscape:path-effect
       effect="fillet_chamfer"
       id="path-effect4-3"
       is_visible="true"
       lpeversion="1"
       nodesatellites_param="F,0,0,1,0,0,0,1 @ F,0,0,1,0,0,0,1 @ F,0,0,1,0,0,0,1 @ F,0,0,1,0,0,0,1 @ F,0,0,1,0,0,0,1 @ F,0,0,1,0,0,0,1 @ F,0,0,1,0,0,0,1 @ F,0,0,1,0,0,0,1 | F,0,0,1,0,0,0,1 @ F,0,0,1,0,0,0,1 @ F,0,0,1,0,0,0,1 @ F,0,0,1,0,0,0,1 @ F,0,0,1,0,0,0,1 @ F,0,0,1,0,1.5592809,0,1 @ F,0,0,1,0,1.5592809,0,1 @ F,0,0,1,0,0,0,1 @ F,0,0,1,0,0,0,1 @ F,0,0,1,0,0,0,1 @ F,0,0,1,0,0,0,1 @ F,0,0,1,0,0,0,1 @ F,0,0,1,0,0,0,1 @ F,0,0,1,0,1.5592809,0,1 @ F,0,0,1,0,1.5592809,0,1 @ F,0,0,1,0,0,0,1 | F,0,0,1,0,0,0,1 @ F,0,0,1,0,0,0,1 @ F,0,0,1,0,0,0,1 @ F,0,0,1,0,0,0,1 @ F,0,0,1,0,0,0,1 @ F,0,0,1,0,1.5592809,0,1 @ F,0,0,1,0,1.5592809,0,1 @ F,0,0,1,0,0,0,1 @ F,0,0,1,0,0,0,1 @ F,0,0,1,0,0,0,1 @ F,0,0,1,0,0,0,1 @ F,0,0,1,0,0,0,1 @ F,0,0,1,0,0,0,1 @ F,0,0,1,0,1.5592809,0,1 @ F,0,0,1,0,1.5592809,0,1 @ F,0,0,1,0,0,0,1 | F,0,0,1,0,0,0,1 @ F,0,0,1,0,0,0,1 @ F,0,0,1,0,0,0,1 @ F,0,0,1,0,0,0,1 @ F,0,0,1,0,0,0,1 @ F,0,0,1,0,0,0,1 @ F,0,0,1,0,0,0,1 @ F,0,0,1,0,0,0,1 | F,0,0,1,0,0,0,1 @ F,0,0,1,0,0,0,1 @ F,0,0,1,0,1.5592809,0,1 @ F,0,0,1,0,1.5592809,0,1 @ F,0,0,1,0,1.3288755,0,1 @ F,0,0,1,0,1.5592809,0,1 @ F,0,0,1,0,1.5592809,0,1 @ F,0,0,1,0,1.3288755,0,1 @ F,0,0,1,0,1.3288755,0,1 @ F,0,0,1,0,1.5592809,0,1 @ F,0,0,1,0,1.5592809,0,1 | F,0,0,1,0,1.5592809,0,1 @ F,0,0,1,0,1.5592809,0,1 @ F,0,1,1,0,1.2768875,0,1 @ F,0,0,1,0,1.5592809,0,1 @ F,0,0,1,0,1.5592809,0,1 @ F,0,0,1,0,1.2768875,0,1 @ F,0,0,1,0,1.5592809,0,1 @ F,0,0,1,0,1.5592809,0,1"
       radius="0"
       unit="px"
       method="auto"
       mode="F"
       chamfer_steps="1"
       flexible="false"
       use_knot_distance="true"
       apply_no_radius="true"
       apply_with_radius="true"
       only_selected="false"
       hide_knots="false" />
    <filter
       inkscape:collect="always"
       style="color-interpolation-filters:sRGB"
       id="filter5"
       x="-0.046222292"
       y="-0.049258655"
       width="1.0923404"
       height="1.0985173">
      <feGaussianBlur
         inkscape:collect="always"
         stdDeviation="0.55107093"
         id="feGaussianBlur5" />
    </filter>
    <filter
       inkscape:collect="always"
       style="color-interpolation-filters:sRGB"
       id="filter6"
       x="-0.071155473"
       y="-0.071155473"
       width="1.1423109"
       height="1.1423109">
      <feGaussianBlur
         inkscape:collect="always"
         stdDeviation="1.451961"
         id="feGaussianBlur6" />
    </filter>
    <radialGradient
       inkscape:collect="always"
       xlink:href="#linearGradient6"
       id="radialGradient7"
       cx="15.923096"
       cy="46.592705"
       fx="15.923096"
       fy="46.592705"
       r="28"
       gradientUnits="userSpaceOnUse"
       gradientTransform="matrix(2.0002592,-1.1548502,1.1548502,2.0002592,-69.734818,-28.215992)" />
  </defs>
  <sodipodi:namedview
     id="namedview4"
     pagecolor="#505050"
     bordercolor="#eeeeee"
     borderopacity="1"
     inkscape:showpageshadow="0"
     inkscape:pageopacity="0"
     inkscape:pagecheckerboard="0"
     inkscape:deskcolor="#505050"
     inkscape:zoom="9.534893"
     inkscape:cx="24.751195"
     inkscape:cy="24.908512"
     inkscape:window-width="1920"
     inkscape:window-height="1020"
     inkscape:window-x="0"
     inkscape:window-y="0"
     inkscape:window-maximized="1"
     inkscape:current-layer="svg4" />
  <rect
     style="fill:url(#radialGradient7)"
     width="56"
     height="56"
     x="4"
     y="4"
     rx="16.8"
     ry="16.8"
     id="rect2" />
  <path
     style="fill:#e7e6e7;fill-opacity:1"
     d="m 16,15 c -2.216,0 -4,1.784 -4,4 v 9 c 0,2.216 1.784,4 4,4 h 4 c 2.216,0 4,-1.784 4,-4 v -9 c 0,-2.216 -1.784,-4 -4,-4 z m 14,0 c -2.216,0 -4,1.784 -4,4 v 9 c 0,2.216 1.784,4 4,4 h 4 c 1.333065,0 2.504755,-0.647695 3.227872,-1.645794 0.502059,-0.692979 0.0074,-1.681991 -0.784076,-2.021284 l -0.131733,-0.05647 C 35.520552,27.93716 34.625052,28.431325 33.870684,28.799971 33.608497,28.928097 33.313423,29 33,29 h -2 c -1.108,0 -2,-0.892 -2,-2 v -7 c 0,-1.108 0.892,-2 2,-2 h 2 c 0.313429,0 0.608508,0.07191 0.8707,0.200037 0.754357,0.368648 1.649852,0.862803 2.441363,0.52351 l 0.131733,-0.05647 c 0.791511,-0.339293 1.286136,-1.328302 0.784079,-2.02128 C 36.504759,15.647697 35.333067,15 34,15 Z m 14,0 c -2.216,0 -4,1.784 -4,4 v 9 c 0,2.216 1.784,4 4,4 h 4 c 1.333065,0 2.504755,-0.647695 3.227872,-1.645794 0.502059,-0.692979 0.0074,-1.681991 -0.784076,-2.021284 l -0.131733,-0.05647 C 49.520552,27.93716 48.625052,28.431325 47.870684,28.799971 47.608497,28.928097 47.313423,29 47,29 h -2 c -1.108,0 -2,-0.892 -2,-2 v -7 c 0,-1.108 0.892,-2 2,-2 h 2 c 0.313429,0 0.608508,0.07191 0.8707,0.200037 0.754357,0.368648 1.649852,0.862803 2.441363,0.52351 l 0.131733,-0.05647 c 0.791511,-0.339293 1.286136,-1.328302 0.784079,-2.02128 C 50.504759,15.647697 49.333067,15 48,15 Z m -27,3 h 2 c 1.108,0 2,0.892 2,2 v 7 c 0,1.108 -0.892,2 -2,2 h -2 c -1.108,0 -2,-0.892 -2,-2 v -7 c 0,-1.108 0.892,-2 2,-2 z m 6,17 c -2.216,0 -4,1.784 -4,4 V 50.440719 A 1.5592809,1.5592809 45 0 0 20.559281,52 1.501171,1.501171 132.73681 0 0 22,50.440719 V 45.328876 A 1.3288755,1.3288755 135 0 1 23.328876,44 h 3.111843 A 1.5592809,1.5592809 135 0 0 28,42.440719 1.501171,1.501171 42.736814 0 0 26.440719,41 H 23.328876 A 1.3288755,1.3288755 45 0 1 22,39.671125 v -0.34225 A 1.3288755,1.3288755 135 0 1 23.328876,38 h 6.111843 A 1.5592809,1.5592809 135 0 0 31,36.440719 1.501171,1.501171 42.736814 0 0 29.440719,35 Z m 11,1.559281 A 1.501171,1.501171 42.736814 0 0 35.559281,38 h 1.163831 A 1.2768875,1.2768875 45 0 1 38,39.276887 V 50.440719 A 1.5592809,1.5592809 45 0 0 39.559281,52 1.501171,1.501171 132.73681 0 0 41,50.440719 V 39.276887 A 1.2768875,1.2768875 135 0 1 42.276887,38 h 1.163832 A 1.5592809,1.5592809 135 0 0 45,36.440719 1.501171,1.501171 42.736814 0 0 43.440719,35 H 35.559281 A 1.5592809,1.5592809 135 0 0 34,36.559281 Z"
     id="path4"
     inkscape:path-effect="#path-effect4"
     inkscape:original-d="m 16,15 c -2.216,0 -4,1.784 -4,4 v 9 c 0,2.216 1.784,4 4,4 h 4 c 2.216,0 4,-1.784 4,-4 v -9 c 0,-2.216 -1.784,-4 -4,-4 z m 14,0 c -2.216,0 -4,1.784 -4,4 v 9 c 0,2.216 1.784,4 4,4 h 4 c 1.887906,0 3.452149,-1.299059 3.876953,-3.052734 L 34.878906,27.662109 C 34.605639,28.440629 33.874193,29 33,29 h -2 c -1.108,0 -2,-0.892 -2,-2 v -7 c 0,-1.108 0.892,-2 2,-2 h 2 c 0.874193,0 1.605639,0.559371 1.878906,1.337891 l 2.998047,-1.285157 C 37.452149,16.299059 35.887906,15 34,15 Z m 14,0 c -2.216,0 -4,1.784 -4,4 v 9 c 0,2.216 1.784,4 4,4 h 4 c 1.887906,0 3.452149,-1.299059 3.876953,-3.052734 L 48.878906,27.662109 C 48.605639,28.440629 47.874193,29 47,29 h -2 c -1.108,0 -2,-0.892 -2,-2 v -7 c 0,-1.108 0.892,-2 2,-2 h 2 c 0.874193,0 1.605639,0.559371 1.878906,1.337891 l 2.998047,-1.285157 C 51.452149,16.299059 49.887906,15 48,15 Z m -27,3 h 2 c 1.108,0 2,0.892 2,2 v 7 c 0,1.108 -0.892,2 -2,2 h -2 c -1.108,0 -2,-0.892 -2,-2 v -7 c 0,-1.108 0.892,-2 2,-2 z m 6,17 c -2.216,0 -4,1.784 -4,4 v 13 h 3 v -8 h 6 v -3 h -6 v -3 h 9 v -3 z m 11,0 v 3 h 4 v 14 h 3 V 38 h 4 v -3 z"
     transform="translate(0.2847268,-1.5)" />
  <rect
     style="fill:none;stroke:#000000;stroke-opacity:1;filter:url(#filter6);opacity:0.70882859"
     width="56"
     height="56"
     x="4"
     y="4"
     rx="16.799999"
     ry="16.799999"
     id="rect2-6" />
  <path
     style="fill:none;stroke:#eb71ff;stroke-opacity:1;filter:url(#filter5);opacity:0.56687611"
     d="m 16,15 c -2.216,0 -4,1.784 -4,4 v 9 c 0,2.216 1.784,4 4,4 h 4 c 2.216,0 4,-1.784 4,-4 v -9 c 0,-2.216 -1.784,-4 -4,-4 z m 14,0 c -2.216,0 -4,1.784 -4,4 v 9 c 0,2.216 1.784,4 4,4 h 4 c 1.333065,0 2.504755,-0.647695 3.227872,-1.645794 0.502059,-0.692979 0.0074,-1.681991 -0.784076,-2.021284 l -0.131733,-0.05647 C 35.520552,27.93716 34.625052,28.431325 33.870684,28.799971 33.608497,28.928097 33.313423,29 33,29 h -2 c -1.108,0 -2,-0.892 -2,-2 v -7 c 0,-1.108 0.892,-2 2,-2 h 2 c 0.313429,0 0.608508,0.07191 0.8707,0.200037 0.754357,0.368648 1.649852,0.862803 2.441363,0.52351 l 0.131733,-0.05647 c 0.791511,-0.339293 1.286136,-1.328302 0.784079,-2.02128 C 36.504759,15.647697 35.333067,15 34,15 Z m 14,0 c -2.216,0 -4,1.784 -4,4 v 9 c 0,2.216 1.784,4 4,4 h 4 c 1.333065,0 2.504755,-0.647695 3.227872,-1.645794 0.502059,-0.692979 0.0074,-1.681991 -0.784076,-2.021284 l -0.131733,-0.05647 C 49.520552,27.93716 48.625052,28.431325 47.870684,28.799971 47.608497,28.928097 47.313423,29 47,29 h -2 c -1.108,0 -2,-0.892 -2,-2 v -7 c 0,-1.108 0.892,-2 2,-2 h 2 c 0.313429,0 0.608508,0.07191 0.8707,0.200037 0.754357,0.368648 1.649852,0.862803 2.441363,0.52351 l 0.131733,-0.05647 c 0.791511,-0.339293 1.286136,-1.328302 0.784079,-2.02128 C 50.504759,15.647697 49.333067,15 48,15 Z m -27,3 h 2 c 1.108,0 2,0.892 2,2 v 7 c 0,1.108 -0.892,2 -2,2 h -2 c -1.108,0 -2,-0.892 -2,-2 v -7 c 0,-1.108 0.892,-2 2,-2 z m 6,17 c -2.216,0 -4,1.784 -4,4 V 50.440719 A 1.5592809,1.5592809 45 0 0 20.559281,52 1.501171,1.501171 132.73681 0 0 22,50.440719 V 45.328876 A 1.3288755,1.3288755 135 0 1 23.328876,44 h 3.111843 A 1.5592809,1.5592809 135 0 0 28,42.440719 1.501171,1.501171 42.736814 0 0 26.440719,41 H 23.328876 A 1.3288755,1.3288755 45 0 1 22,39.671125 v -0.34225 A 1.3288755,1.3288755 135 0 1 23.328876,38 h 6.111843 A 1.5592809,1.5592809 135 0 0 31,36.440719 1.501171,1.501171 42.736814 0 0 29.440719,35 Z m 11,1.559281 A 1.501171,1.501171 42.736814 0 0 35.559281,38 h 1.163831 A 1.2768875,1.2768875 45 0 1 38,39.276887 V 50.440719 A 1.5592809,1.5592809 45 0 0 39.559281,52 1.501171,1.501171 132.73681 0 0 41,50.440719 V 39.276887 A 1.2768875,1.2768875 135 0 1 42.276887,38 h 1.163832 A 1.5592809,1.5592809 135 0 0 45,36.440719 1.501171,1.501171 42.736814 0 0 43.440719,35 H 35.559281 A 1.5592809,1.5592809 135 0 0 34,36.559281 Z"
     id="path4-7"
     inkscape:path-effect="#path-effect4-3"
     inkscape:original-d="m 16,15 c -2.216,0 -4,1.784 -4,4 v 9 c 0,2.216 1.784,4 4,4 h 4 c 2.216,0 4,-1.784 4,-4 v -9 c 0,-2.216 -1.784,-4 -4,-4 z m 14,0 c -2.216,0 -4,1.784 -4,4 v 9 c 0,2.216 1.784,4 4,4 h 4 c 1.887906,0 3.452149,-1.299059 3.876953,-3.052734 L 34.878906,27.662109 C 34.605639,28.440629 33.874193,29 33,29 h -2 c -1.108,0 -2,-0.892 -2,-2 v -7 c 0,-1.108 0.892,-2 2,-2 h 2 c 0.874193,0 1.605639,0.559371 1.878906,1.337891 l 2.998047,-1.285157 C 37.452149,16.299059 35.887906,15 34,15 Z m 14,0 c -2.216,0 -4,1.784 -4,4 v 9 c 0,2.216 1.784,4 4,4 h 4 c 1.887906,0 3.452149,-1.299059 3.876953,-3.052734 L 48.878906,27.662109 C 48.605639,28.440629 47.874193,29 47,29 h -2 c -1.108,0 -2,-0.892 -2,-2 v -7 c 0,-1.108 0.892,-2 2,-2 h 2 c 0.874193,0 1.605639,0.559371 1.878906,1.337891 l 2.998047,-1.285157 C 51.452149,16.299059 49.887906,15 48,15 Z m -27,3 h 2 c 1.108,0 2,0.892 2,2 v 7 c 0,1.108 -0.892,2 -2,2 h -2 c -1.108,0 -2,-0.892 -2,-2 v -7 c 0,-1.108 0.892,-2 2,-2 z m 6,17 c -2.216,0 -4,1.784 -4,4 v 13 h 3 v -8 h 6 v -3 h -6 v -3 h 9 v -3 z m 11,0 v 3 h 4 v 14 h 3 V 38 h 4 v -3 z"
     transform="translate(0.28678009,-1.5)" />
</svg>
