<?xml version="1.0" encoding="UTF-8" standalone="no"?>
<svg
   width="64"
   height="64"
   version="1.1"
   id="svg7"
   sodipodi:docname="1password.svg"
   inkscape:version="1.3.2 (091e20ef0f, 2023-11-25, custom)"
   xmlns:inkscape="http://www.inkscape.org/namespaces/inkscape"
   xmlns:sodipodi="http://sodipodi.sourceforge.net/DTD/sodipodi-0.dtd"
   xmlns:xlink="http://www.w3.org/1999/xlink"
   xmlns="http://www.w3.org/2000/svg"
   xmlns:svg="http://www.w3.org/2000/svg">
  <defs
     id="defs7">
    <linearGradient
       id="linearGradient14"
       inkscape:collect="always">
      <stop
         style="stop-color:#2e2e2e;stop-opacity:1;"
         offset="0"
         id="stop15" />
      <stop
         style="stop-color:#868686;stop-opacity:1;"
         offset="1"
         id="stop16" />
    </linearGradient>
    <linearGradient
       id="linearGradient12"
       inkscape:collect="always">
      <stop
         style="stop-color:#3e5c6d;stop-opacity:1;"
         offset="0"
         id="stop13" />
      <stop
         style="stop-color:#292d30;stop-opacity:1;"
         offset="1"
         id="stop14" />
    </linearGradient>
    <linearGradient
       id="linearGradient10"
       inkscape:collect="always">
      <stop
         style="stop-color:#ededed;stop-opacity:1;"
         offset="0"
         id="stop11" />
      <stop
         style="stop-color:#b2b2b2;stop-opacity:1;"
         offset="1"
         id="stop12" />
    </linearGradient>
    <linearGradient
       id="linearGradient9"
       inkscape:collect="always">
      <stop
         style="stop-color:#00dbe2;stop-opacity:1;"
         offset="0"
         id="stop9" />
      <stop
         style="stop-color:#0076e2;stop-opacity:1;"
         offset="1"
         id="stop10" />
    </linearGradient>
    <radialGradient
       inkscape:collect="always"
       xlink:href="#linearGradient9"
       id="radialGradient10"
       cx="24.79254"
       cy="33.970783"
       fx="24.79254"
       fy="33.970783"
       r="22"
       gradientUnits="userSpaceOnUse"
       gradientTransform="matrix(1.1184113,-0.29967743,0.29959453,1.118102,-13.380855,5.8041568)" />
    <radialGradient
       inkscape:collect="always"
       xlink:href="#linearGradient10"
       id="radialGradient12"
       cx="13.023033"
       cy="49.444138"
       fx="13.023033"
       fy="49.444138"
       r="28"
       gradientUnits="userSpaceOnUse"
       gradientTransform="matrix(1.7551157,-1.0133165,1.0133165,1.7551157,-58.976247,-25.03279)" />
    <radialGradient
       inkscape:collect="always"
       xlink:href="#linearGradient12"
       id="radialGradient14"
       cx="25.125341"
       cy="35.857056"
       fx="25.125341"
       fy="35.857056"
       r="4"
       gradientTransform="matrix(4.0680839,-4.0680839,12.204252,12.204252,-505.86726,-284.94712)"
       gradientUnits="userSpaceOnUse" />
    <radialGradient
       inkscape:collect="always"
       xlink:href="#linearGradient14"
       id="radialGradient16"
       cx="32"
       cy="32"
       fx="32"
       fy="32"
       r="8"
       gradientUnits="userSpaceOnUse"
       gradientTransform="matrix(3.896999,-1.0441977,1.0441977,3.896999,-126.12297,-59.295898)" />
    <filter
       inkscape:collect="always"
       style="color-interpolation-filters:sRGB"
       id="filter1"
       x="-0.054378331"
       y="-0.054378331"
       width="1.1087567"
       height="1.1087567">
      <feGaussianBlur
         inkscape:collect="always"
         stdDeviation="0.90458042"
         id="feGaussianBlur1" />
    </filter>
    <filter
       inkscape:collect="always"
       style="color-interpolation-filters:sRGB"
       id="filter2"
       x="-0.10129514"
       y="-0.10129514"
       width="1.2025903"
       height="1.2025903">
      <feGaussianBlur
         inkscape:collect="always"
         stdDeviation="2.1808789"
         id="feGaussianBlur2" />
    </filter>
    <filter
       inkscape:collect="always"
       style="color-interpolation-filters:sRGB"
       id="filter3"
       x="-0.15889728"
       y="-0.15889728"
       width="1.3177946"
       height="1.3177946">
      <feGaussianBlur
         inkscape:collect="always"
         stdDeviation="0.96378791"
         id="feGaussianBlur3" />
    </filter>
    <filter
       inkscape:collect="always"
       style="color-interpolation-filters:sRGB"
       id="filter4"
       x="-0.31779456"
       y="-0.10593152"
       width="1.6355891"
       height="1.211863">
      <feGaussianBlur
         inkscape:collect="always"
         stdDeviation="0.96378791"
         id="feGaussianBlur4" />
    </filter>
  </defs>
  <sodipodi:namedview
     id="namedview7"
     pagecolor="#ffffff"
     bordercolor="#000000"
     borderopacity="0.25"
     inkscape:showpageshadow="2"
     inkscape:pageopacity="0.0"
     inkscape:pagecheckerboard="0"
     inkscape:deskcolor="#d1d1d1"
     inkscape:zoom="9.8221551"
     inkscape:cx="21.88929"
     inkscape:cy="21.787479"
     inkscape:window-width="1920"
     inkscape:window-height="1008"
     inkscape:window-x="0"
     inkscape:window-y="0"
     inkscape:window-maximized="1"
     inkscape:current-layer="svg7"
     showguides="false" />
  <path
     id="circle2"
     style="fill:url(#radialGradient12);stroke-width:0.949155"
     d="M 58.571679,31.993744 A 26.576346,26.576346 0 0 1 31.995333,58.57009 26.576346,26.576346 0 0 1 5.4189863,31.993744 26.576346,26.576346 0 0 1 31.995333,5.4173974 26.576346,26.576346 0 0 1 58.571679,31.993744 Z" />
  <path
     id="circle2-2"
     style="fill:none;stroke-width:0.3;stroke:#000000;stroke-opacity:1;stroke-dasharray:none;filter:url(#filter2)"
     d="M 58.571679,31.993744 A 26.576346,26.576346 0 0 1 31.995333,58.57009 26.576346,26.576346 0 0 1 5.4189862,31.993744 26.576346,26.576346 0 0 1 31.995333,5.4173972 26.576346,26.576346 0 0 1 58.571679,31.993744 Z" />
  <path
     id="circle3"
     style="opacity:0.66043;fill:url(#radialGradient16);stroke-width:0.949155"
     d="m 39.588575,31.993744 a 7.5932418,7.5932418 0 0 1 -7.593242,7.593242 7.5932418,7.5932418 0 0 1 -7.593242,-7.593242 7.5932418,7.5932418 0 0 1 7.593242,-7.593242 7.5932418,7.5932418 0 0 1 7.593242,7.593242 z" />
  <path
     id="circle3-3"
     style="opacity:1;fill:none;stroke-width:0.2;stroke:#000000;stroke-opacity:1;stroke-dasharray:none;filter:url(#filter3)"
     d="m 39.59785,31.995787 a 7.5932418,7.5932418 0 0 1 -7.593242,7.593242 7.5932418,7.5932418 0 0 1 -7.593242,-7.593242 7.5932418,7.5932418 0 0 1 7.593242,-7.593242 7.5932418,7.5932418 0 0 1 7.593242,7.593242 z" />
  <path
     style="fill:url(#radialGradient14);stroke-width:0.949155"
     d="m 29.524819,20.542255 c -0.701108,0 -1.26554,0.564432 -1.26554,1.26554 v 5.128899 c 0,0 1.371826,1.205657 1.371826,2.019428 0,0.813769 -1.371826,2.019426 -1.371826,2.019426 v 11.080893 c 0,0.701108 0.564432,1.26554 1.26554,1.26554 h 5.062162 c 0.701109,0 1.26554,-0.564432 1.26554,-1.26554 v -5.109125 l -0.01241,-0.0173 c 0,0 -1.430915,-1.257205 -1.431148,-2.10594 -2.32e-4,-0.849414 1.431148,-2.108406 1.431148,-2.108406 l 0.01241,-0.0173 V 21.807795 c 0,-0.701108 -0.564431,-1.26554 -1.26554,-1.26554 z"
     id="path4" />
  <path
     style="fill:none;stroke-width:0.2;stroke:#000000;stroke-opacity:1;opacity:1;stroke-dasharray:none;filter:url(#filter4)"
     d="m 29.534094,20.544298 c -0.701108,0 -1.26554,0.564432 -1.26554,1.26554 v 5.128899 c 0,0 1.371826,1.205657 1.371826,2.019428 0,0.813769 -1.371826,2.019426 -1.371826,2.019426 v 11.080893 c 0,0.701108 0.564432,1.26554 1.26554,1.26554 h 5.062162 c 0.701109,0 1.26554,-0.564432 1.26554,-1.26554 v -5.109125 l -0.01241,-0.0173 c 0,0 -1.430915,-1.257205 -1.431148,-2.10594 -2.32e-4,-0.849414 1.431148,-2.108406 1.431148,-2.108406 l 0.01241,-0.0173 V 21.809838 c 0,-0.701108 -0.564431,-1.26554 -1.26554,-1.26554 z"
     id="path4-6" />
  <path
     style="fill:url(#radialGradient10);stroke-width:0.949155"
     d="m 31.995333,11.112329 c -11.501571,0 -20.881415,9.379844 -20.881415,20.881415 0,11.501571 9.379844,20.881415 20.881415,20.881415 11.50157,0 20.881415,-9.379844 20.881415,-20.881415 0,-11.501571 -9.379845,-20.881415 -20.881415,-20.881415 z m 0,4.745776 c 8.943319,0 16.135639,7.19232 16.135639,16.135639 0,8.943319 -7.19232,16.135639 -16.135639,16.135639 -8.94332,0 -16.135639,-7.19232 -16.135639,-16.135639 0,-8.943319 7.192319,-16.135639 16.135639,-16.135639 z"
     id="path6" />
  <path
     style="fill:none;stroke-width:0.20000001;stroke:#002aff;stroke-opacity:1;stroke-dasharray:none;opacity:1;filter:url(#filter1)"
     d="m 31.995333,11.112329 c -11.501571,0 -20.881415,9.379844 -20.881415,20.881415 0,11.501571 9.379844,20.881415 20.881415,20.881415 11.50157,0 20.881415,-9.379844 20.881415,-20.881415 0,-11.501571 -9.379845,-20.881415 -20.881415,-20.881415 z m 0,4.745776 c 8.943319,0 16.135639,7.19232 16.135639,16.135639 0,8.943319 -7.19232,16.135639 -16.135639,16.135639 -8.94332,0 -16.135639,-7.19232 -16.135639,-16.135639 0,-8.943319 7.192319,-16.135639 16.135639,-16.135639 z"
     id="path6-5" />
</svg>
