<?xml version="1.0" encoding="UTF-8" standalone="no"?>
<svg
   width="64"
   height="64"
   version="1.1"
   id="svg7"
   sodipodi:docname="4Pane.svg"
   inkscape:version="1.3.2 (091e20ef0f, 2023-11-25, custom)"
   xmlns:inkscape="http://www.inkscape.org/namespaces/inkscape"
   xmlns:sodipodi="http://sodipodi.sourceforge.net/DTD/sodipodi-0.dtd"
   xmlns:xlink="http://www.w3.org/1999/xlink"
   xmlns="http://www.w3.org/2000/svg"
   xmlns:svg="http://www.w3.org/2000/svg">
  <defs
     id="defs7">
    <linearGradient
       id="linearGradient8"
       inkscape:collect="always">
      <stop
         style="stop-color:#31c6fc;stop-opacity:1;"
         offset="0"
         id="stop9" />
      <stop
         style="stop-color:#3174fc;stop-opacity:1;"
         offset="1"
         id="stop10" />
    </linearGradient>
    <inkscape:path-effect
       effect="fillet_chamfer"
       id="path-effect8"
       is_visible="true"
       lpeversion="1"
       nodesatellites_param="F,0,0,1,0,2.9977006,0,1 @ F,0,0,1,0,1.2922038,0,1 @ F,0,0,1,0,2.0011318,0,1 @ F,0,0,1,0,3.0045598,0,1 @ F,0,0,1,0,3.0045598,0,1 @ F,0,0,1,0,0,0,1 @ F,0,0,1,0,5.3967989,0,1 @ F,0,0,1,0,1.2922038,0,1 @ F,0,0,1,0,2.9977006,0,1 @ F,0,0,1,0,2.9977006,0,1 @ F,0,0,1,0,1.2922038,0,1 @ F,0,0,1,0,0,0,1 @ F,0,0,1,0,0,0,1 @ F,0,0,1,0,0,0,1 @ F,0,0,1,0,0,0,1 | F,0,0,1,0,0,0,1 @ F,0,0,1,0,0,0,1 @ F,0,0,1,0,0,0,1 @ F,0,0,1,0,0,0,1 @ F,0,0,1,0,1.2922038,0,1"
       radius="0"
       unit="px"
       method="auto"
       mode="F"
       chamfer_steps="1"
       flexible="false"
       use_knot_distance="true"
       apply_no_radius="true"
       apply_with_radius="true"
       only_selected="false"
       hide_knots="false" />
    <linearGradient
       id="linearGradient7"
       inkscape:collect="always">
      <stop
         style="stop-color:#ffffff;stop-opacity:1;"
         offset="0"
         id="stop7" />
      <stop
         style="stop-color:#b0b0b0;stop-opacity:1;"
         offset="1"
         id="stop8" />
    </linearGradient>
    <radialGradient
       inkscape:collect="always"
       xlink:href="#linearGradient7"
       id="radialGradient8"
       cx="12.054999"
       cy="58.314659"
       fx="12.054999"
       fy="58.314659"
       r="28"
       gradientTransform="matrix(2.2742781,-0.60939098,0.43527927,1.6244843,-40.744584,-35.446001)"
       gradientUnits="userSpaceOnUse" />
    <radialGradient
       inkscape:collect="always"
       xlink:href="#linearGradient8"
       id="radialGradient10"
       cx="22.655834"
       cy="48.921238"
       fx="22.655834"
       fy="48.921238"
       r="17"
       gradientUnits="userSpaceOnUse"
       gradientTransform="matrix(2.277286,-1.3147917,1.3147917,2.277286,-93.259215,-32.698708)" />
    <radialGradient
       inkscape:collect="always"
       xlink:href="#linearGradient8"
       id="radialGradient12"
       cx="8.4469328"
       cy="36.485504"
       fx="8.4469328"
       fy="36.485504"
       r="28"
       gradientTransform="matrix(1.7330599,0,0,0.82480011,-6.1921074,-14.595319)"
       gradientUnits="userSpaceOnUse" />
    <inkscape:path-effect
       effect="fillet_chamfer"
       id="path-effect8-5"
       is_visible="true"
       lpeversion="1"
       nodesatellites_param="F,0,0,1,0,2.9977006,0,1 @ F,0,0,1,0,1.2922038,0,1 @ F,0,0,1,0,2.0011318,0,1 @ F,0,0,1,0,3.0045598,0,1 @ F,0,0,1,0,3.0045598,0,1 @ F,0,0,1,0,0,0,1 @ F,0,0,1,0,5.3967989,0,1 @ F,0,0,1,0,1.2922038,0,1 @ F,0,0,1,0,2.9977006,0,1 @ F,0,0,1,0,2.9977006,0,1 @ F,0,0,1,0,1.2922038,0,1 @ F,0,0,1,0,0,0,1 @ F,0,0,1,0,0,0,1 @ F,0,0,1,0,0,0,1 @ F,0,0,1,0,0,0,1 | F,0,0,1,0,0,0,1 @ F,0,0,1,0,0,0,1 @ F,0,0,1,0,0,0,1 @ F,0,0,1,0,0,0,1 @ F,0,0,1,0,1.2922038,0,1"
       radius="0"
       unit="px"
       method="auto"
       mode="F"
       chamfer_steps="1"
       flexible="false"
       use_knot_distance="true"
       apply_no_radius="true"
       apply_with_radius="true"
       only_selected="false"
       hide_knots="false" />
    <filter
       inkscape:collect="always"
       style="color-interpolation-filters:sRGB"
       id="filter12"
       x="-0.11793102"
       y="-0.11783463"
       width="1.2357656"
       height="1.2356692">
      <feGaussianBlur
         inkscape:collect="always"
         stdDeviation="1.4609902"
         id="feGaussianBlur12" />
    </filter>
    <filter
       inkscape:collect="always"
       style="color-interpolation-filters:sRGB"
       id="filter13"
       x="-0.064797856"
       y="-0.45358501"
       width="1.1295957"
       height="1.90717">
      <feGaussianBlur
         inkscape:collect="always"
         stdDeviation="1.4286167"
         id="feGaussianBlur13" />
    </filter>
    <filter
       inkscape:collect="always"
       style="color-interpolation-filters:sRGB"
       id="filter14"
       x="-0.071238755"
       y="-0.099734256"
       width="1.1424775"
       height="1.1994685">
      <feGaussianBlur
         inkscape:collect="always"
         stdDeviation="1.4539043"
         id="feGaussianBlur14" />
    </filter>
  </defs>
  <sodipodi:namedview
     id="namedview7"
     pagecolor="#505050"
     bordercolor="#eeeeee"
     borderopacity="1"
     inkscape:showpageshadow="0"
     inkscape:pageopacity="0"
     inkscape:pagecheckerboard="0"
     inkscape:deskcolor="#505050"
     inkscape:zoom="13.484375"
     inkscape:cx="30.628042"
     inkscape:cy="32"
     inkscape:window-width="1920"
     inkscape:window-height="1020"
     inkscape:window-x="0"
     inkscape:window-y="0"
     inkscape:window-maximized="1"
     inkscape:current-layer="svg7" />
  <path
     d="m4 16v37c0 1.662 1.338 3 3 3h50c1.662 0 3-1.338 3-3v-37z"
     style="fill:url(#radialGradient8)"
     id="path2" />
  <path
     d="m 4.0412352,16.054463 v 37 c 0,1.662 1.338,3 3,3 H 57.041235 c 1.662,0 3,-1.338 3,-3 v -37 z"
     style="fill:none;stroke:#000000;stroke-opacity:1;fill-opacity:1;opacity:0.5883889;filter:url(#filter14)"
     id="path2-9" />
  <path
     d="m60 16v-5c0-1.662-1.338-3-3-3h-50c-1.662 0-3 1.338-3 3v5z"
     style="fill:url(#radialGradient12)"
     id="path3" />
  <path
     d="M 29,21.997701 V 36.707796 A 1.2922038,1.2922038 135 0 1 27.707796,38 H 23.001132 A 1.4158309,1.4158309 54.720017 0 1 21.666017,36.112952 L 26.000022,23.833271 A 2.1257714,2.1257714 54.720017 0 0 23.99544,21 4.2401948,4.2401948 144.6584 0 0 20.000022,23.833271 L 15,38 a 5.2021841,5.2021841 42.814339 0 0 5.396799,5 h 7.310997 A 1.2922038,1.2922038 45 0 1 29,44.292204 l 0,5.710095 A 2.9977006,2.9977006 45 0 0 31.997701,53 h 0.0046 A 2.9977006,2.9977006 135 0 0 35,50.002299 V 44.292204 A 1.2922038,1.2922038 135 0 1 36.292204,43 H 38 C 38,43 49,43 49,29 49,19 38,19 38,19 H 35 31.997701 A 2.9977006,2.9977006 135 0 0 29,21.997701 Z M 35,24 h 3 c 0,0 5,0 5,5 0,9 -5,9 -5,9 H 36.292204 A 1.2922038,1.2922038 45 0 1 35,36.707796 Z"
     style="fill:url(#radialGradient10)"
     id="path5"
     inkscape:path-effect="#path-effect8"
     inkscape:original-d="m29 19v19h-8l6-17h-6l-6 17v5h14v10h6v-10h3s11 0 11-14c0-10-11-10-11-10h-3zm6 5h3s5 0 5 5c0 9-5 9-5 9h-3z" />
  <path
     d="m 60.041235,16.054463 v -5 c 0,-1.6619996 -1.338,-2.9999996 -3,-2.9999996 H 7.0412352 c -1.662,0 -3,1.338 -3,2.9999996 v 5 z"
     style="fill:none;stroke:#000000;stroke-opacity:1;fill-opacity:1;filter:url(#filter13);opacity:0.44405902;stroke-width:0.39999991;stroke-dasharray:none"
     id="path3-1" />
  <path
     d="M 29,21.997701 V 36.707796 A 1.2922038,1.2922038 135 0 1 27.707796,38 H 23.001132 A 1.4158309,1.4158309 54.720017 0 1 21.666017,36.112952 L 26.000022,23.833271 A 2.1257714,2.1257714 54.720017 0 0 23.99544,21 4.2401948,4.2401948 144.6584 0 0 20.000022,23.833271 L 15,38 a 5.2021841,5.2021841 42.814339 0 0 5.396799,5 h 7.310997 A 1.2922038,1.2922038 45 0 1 29,44.292204 l 0,5.710095 A 2.9977006,2.9977006 45 0 0 31.997701,53 h 0.0046 A 2.9977006,2.9977006 135 0 0 35,50.002299 V 44.292204 A 1.2922038,1.2922038 135 0 1 36.292204,43 H 38 C 38,43 49,43 49,29 49,19 38,19 38,19 H 35 31.997701 A 2.9977006,2.9977006 135 0 0 29,21.997701 Z M 35,24 h 3 c 0,0 5,0 5,5 0,9 -5,9 -5,9 H 36.292204 A 1.2922038,1.2922038 45 0 1 35,36.707796 Z"
     style="fill:none;stroke:#0036ff;stroke-opacity:1;fill-opacity:1;filter:url(#filter12);opacity:0.5883889"
     id="path5-2"
     inkscape:path-effect="#path-effect8-5"
     inkscape:original-d="m 29,19 v 19 h -8 l 6,-17 h -6 l -6,17 v 5 h 14 v 10 h 6 V 43 h 3 C 38,43 49,43 49,29 49,19 38,19 38,19 h -3 z m 6,5 h 3 c 0,0 5,0 5,5 0,9 -5,9 -5,9 h -3 z"
     transform="translate(0.04123515,0.05446345)" />
</svg>
