<?xml version="1.0" encoding="UTF-8" standalone="no"?>
<svg
   width="64"
   height="64"
   version="1.1"
   id="svg5"
   sodipodi:docname="7-days-to-die.svg"
   inkscape:version="1.3.2 (091e20ef0f, 2023-11-25, custom)"
   xmlns:inkscape="http://www.inkscape.org/namespaces/inkscape"
   xmlns:sodipodi="http://sodipodi.sourceforge.net/DTD/sodipodi-0.dtd"
   xmlns:xlink="http://www.w3.org/1999/xlink"
   xmlns="http://www.w3.org/2000/svg"
   xmlns:svg="http://www.w3.org/2000/svg">
  <defs
     id="defs5">
    <inkscape:path-effect
       effect="fillet_chamfer"
       id="path-effect8"
       is_visible="true"
       lpeversion="1"
       nodesatellites_param="F,0,1,1,0,12.879475,0,1 @ F,0,0,1,0,12.879475,0,1 @ F,0,1,1,0,12.879475,0,1 @ F,0,1,1,0,12.879475,0,1"
       radius="0"
       unit="px"
       method="auto"
       mode="F"
       chamfer_steps="1"
       flexible="false"
       use_knot_distance="true"
       apply_no_radius="true"
       apply_with_radius="true"
       only_selected="false"
       hide_knots="false" />
    <linearGradient
       id="linearGradient6"
       inkscape:collect="always">
      <stop
         style="stop-color:#e67c13;stop-opacity:1;"
         offset="0"
         id="stop7" />
      <stop
         style="stop-color:#e21209;stop-opacity:1;"
         offset="1"
         id="stop8" />
    </linearGradient>
    <inkscape:path-effect
       effect="fillet_chamfer"
       id="path-effect6"
       is_visible="true"
       lpeversion="1"
       nodesatellites_param="F,0,0,1,0,2.0655483,0,1 @ F,0,0,1,0,2.0655483,0,1 @ F,0,0,1,0,1.0458705,0,1 @ F,0,1,1,0,0.74793423,0,1 @ F,0,1,1,0,0.74793423,0,1 @ F,0,1,1,0,0.74793423,0,1 @ F,0,1,1,0,0.74793423,0,1 @ F,0,1,1,0,0.74793423,0,1 @ F,0,1,1,0,0.74793423,0,1 @ F,0,1,1,0,0.74793423,0,1 @ F,0,1,1,0,0.74793423,0,1 @ F,0,1,1,0,0.74793423,0,1 @ F,0,1,1,0,0.74793423,0,1 @ F,0,1,1,0,0.74793423,0,1 @ F,0,1,1,0,0.74793423,0,1 @ F,0,1,1,0,0.74793423,0,1 @ F,0,1,1,0,0.74793423,0,1 @ F,0,1,1,0,0.74793423,0,1 @ F,0,1,1,0,0.74793423,0,1 @ F,0,1,1,0,0.74793423,0,1 @ F,0,1,1,0,0.74793423,0,1 @ F,0,1,1,0,0.74793423,0,1 @ F,0,1,1,0,0.74793423,0,1 @ F,0,1,1,0,0.74793423,0,1 @ F,0,1,1,0,0.74793423,0,1 @ F,0,1,1,0,0.74793423,0,1 @ F,0,1,1,0,0.74793423,0,1 @ F,0,1,1,0,0.74793423,0,1 @ F,0,1,1,0,0.74793423,0,1 @ F,0,1,1,0,0.74793423,0,1 @ F,0,0,1,0,0.74793423,0,1 @ F,0,1,1,0,0.74793423,0,1 @ F,0,0,1,0,4.0579688,0,1"
       radius="0"
       unit="px"
       method="auto"
       mode="F"
       chamfer_steps="1"
       flexible="false"
       use_knot_distance="true"
       apply_no_radius="true"
       apply_with_radius="true"
       only_selected="false"
       hide_knots="false" />
    <linearGradient
       id="linearGradient5"
       inkscape:collect="always">
      <stop
         style="stop-color:#707070;stop-opacity:0.99990666;"
         offset="0"
         id="stop5" />
      <stop
         style="stop-color:#313131;stop-opacity:0.99990666;"
         offset="1"
         id="stop6" />
    </linearGradient>
    <radialGradient
       inkscape:collect="always"
       xlink:href="#linearGradient5"
       id="radialGradient6"
       cx="15.665127"
       cy="48.782265"
       fx="15.665127"
       fy="48.782265"
       r="28"
       gradientUnits="userSpaceOnUse"
       gradientTransform="matrix(1.9470542,-0.52171161,0.476931,1.7799307,-38.101499,-29.874108)" />
    <radialGradient
       inkscape:collect="always"
       xlink:href="#linearGradient6"
       id="radialGradient8"
       cx="12.680291"
       cy="47.677723"
       fx="12.680291"
       fy="47.677723"
       r="20.602331"
       gradientTransform="matrix(2.6033439,-1.5030413,1.697277,2.9397699,-101.25317,-71.433013)"
       gradientUnits="userSpaceOnUse" />
    <inkscape:path-effect
       effect="fillet_chamfer"
       id="path-effect6-5"
       is_visible="true"
       lpeversion="1"
       nodesatellites_param="F,0,0,1,0,2.0655483,0,1 @ F,0,0,1,0,2.0655483,0,1 @ F,0,0,1,0,1.0458705,0,1 @ F,0,1,1,0,0.74793423,0,1 @ F,0,1,1,0,0.74793423,0,1 @ F,0,1,1,0,0.74793423,0,1 @ F,0,1,1,0,0.74793423,0,1 @ F,0,1,1,0,0.74793423,0,1 @ F,0,1,1,0,0.74793423,0,1 @ F,0,1,1,0,0.74793423,0,1 @ F,0,1,1,0,0.74793423,0,1 @ F,0,1,1,0,0.74793423,0,1 @ F,0,1,1,0,0.74793423,0,1 @ F,0,1,1,0,0.74793423,0,1 @ F,0,1,1,0,0.74793423,0,1 @ F,0,1,1,0,0.74793423,0,1 @ F,0,1,1,0,0.74793423,0,1 @ F,0,1,1,0,0.74793423,0,1 @ F,0,1,1,0,0.74793423,0,1 @ F,0,1,1,0,0.74793423,0,1 @ F,0,1,1,0,0.74793423,0,1 @ F,0,1,1,0,0.74793423,0,1 @ F,0,1,1,0,0.74793423,0,1 @ F,0,1,1,0,0.74793423,0,1 @ F,0,1,1,0,0.74793423,0,1 @ F,0,1,1,0,0.74793423,0,1 @ F,0,1,1,0,0.74793423,0,1 @ F,0,1,1,0,0.74793423,0,1 @ F,0,1,1,0,0.74793423,0,1 @ F,0,1,1,0,0.74793423,0,1 @ F,0,0,1,0,0.74793423,0,1 @ F,0,1,1,0,0.74793423,0,1 @ F,0,0,1,0,4.0579688,0,1"
       radius="0"
       unit="px"
       method="auto"
       mode="F"
       chamfer_steps="1"
       flexible="false"
       use_knot_distance="true"
       apply_no_radius="true"
       apply_with_radius="true"
       only_selected="false"
       hide_knots="false" />
    <inkscape:path-effect
       effect="fillet_chamfer"
       id="path-effect8-2"
       is_visible="true"
       lpeversion="1"
       nodesatellites_param="F,0,1,1,0,12.879475,0,1 @ F,0,0,1,0,12.879475,0,1 @ F,0,1,1,0,12.879475,0,1 @ F,0,1,1,0,12.879475,0,1"
       radius="0"
       unit="px"
       method="auto"
       mode="F"
       chamfer_steps="1"
       flexible="false"
       use_knot_distance="true"
       apply_no_radius="true"
       apply_with_radius="true"
       only_selected="false"
       hide_knots="false" />
    <filter
       inkscape:collect="always"
       style="color-interpolation-filters:sRGB"
       id="filter8"
       x="-0.055372432"
       y="-0.049060262"
       width="1.1107485"
       height="1.0980265">
      <feGaussianBlur
         inkscape:collect="always"
         stdDeviation="0.86316312"
         id="feGaussianBlur8" />
    </filter>
    <filter
       inkscape:collect="always"
       style="color-interpolation-filters:sRGB"
       id="filter9"
       x="-0.069611105"
       y="-0.069611105"
       width="1.1392222"
       height="1.1392222">
      <feGaussianBlur
         inkscape:collect="always"
         stdDeviation="1.4992591"
         id="feGaussianBlur9" />
    </filter>
  </defs>
  <sodipodi:namedview
     id="namedview5"
     pagecolor="#505050"
     bordercolor="#eeeeee"
     borderopacity="1"
     inkscape:showpageshadow="0"
     inkscape:pageopacity="0"
     inkscape:pagecheckerboard="0"
     inkscape:deskcolor="#505050"
     inkscape:zoom="9.534893"
     inkscape:cx="23.754855"
     inkscape:cy="49.764586"
     inkscape:window-width="1920"
     inkscape:window-height="1020"
     inkscape:window-x="0"
     inkscape:window-y="0"
     inkscape:window-maximized="1"
     inkscape:current-layer="svg5" />
  <path
     id="rect2"
     style="fill:url(#radialGradient6)"
     d="m 16.879475,4 h 30.24105 A 12.879475,12.879475 45 0 1 60,16.879475 l 0,30.24105 A 12.879475,12.879475 135 0 1 47.120525,60 l -30.24105,0 A 12.879475,12.879475 45 0 1 4,47.120525 V 16.879475 A 12.879475,12.879475 135 0 1 16.879475,4 Z"
     inkscape:path-effect="#path-effect8"
     inkscape:original-d="M 4,4 H 60 V 60 H 4 Z" />
  <path
     d="m 11.003119,10.805614 2.993762,5.388772 A 3.5104292,3.5104292 30.472698 0 0 17.065548,18 h 18.888581 a 0.48985954,0.48985954 64.902786 0 1 0.376321,0.80346 l -3.851634,4.621961 a 0.10847437,0.10847437 48.057752 0 0 0.143503,0.1597 l 1.755362,-1.170242 a 0.19862473,0.19862473 41.437492 0 1 0.287833,0.254094 l -0.331028,0.662054 a 0.19862473,0.19862473 41.437492 0 0 0.287833,0.254094 l 1.755362,-1.170242 a 0.04516406,0.04516406 52.854319 0 1 0.05444,0.07187 l -5.864252,5.026502 A 0.34400107,0.34400107 24.699353 0 1 30,27.252066 0.2745968,0.2745968 128.74023 0 0 29.665514,27.668973 l -0.331028,0.662054 a 1.4958685,1.4958685 90 0 0 0,1.337946 l 0.331028,0.662054 a 1.1140728,1.1140728 97.310437 0 1 -0.158032,1.231851 l -6.014964,6.874244 a 22.46293,22.46293 133.09296 0 1 -1.021387,1.091747 l -1.942262,1.942262 A 1.805673,1.805673 112.5 0 0 20,42.747934 v 1.504132 a 1.805673,1.805673 67.5 0 0 0.528869,1.276803 l 0.942262,0.942262 a 0.6131594,0.6131594 95.654966 0 1 -0.09345,0.943748 l -1.755362,1.170242 A 0.22645626,0.22645626 73.154966 0 0 19.747934,49 h 0.504132 a 0.40028225,0.40028225 61.845034 0 1 0.333055,0.622319 l -1.170242,1.755362 a 0.07406008,0.07406008 39.345034 0 0 0.11399,0.09345 l 5.942262,-5.942262 a 0.08210241,0.08210241 38.735596 0 1 0.127321,0.102134 l -6.196904,9.737994 a 0.10441831,0.10441831 40.418826 0 0 0.157465,0.134103 l 7.881974,-7.0062 a 2.7980167,2.7980167 123.4007 0 0 0.795531,-1.206453 l 0.526964,-1.580894 A 4.6089784,4.6089784 99.217474 0 0 29,44.252066 v -0.504132 a 1.805673,1.805673 112.5 0 1 0.528869,-1.276803 l 1.942262,-1.942262 A 0.3098045,0.3098045 22.5 0 1 32,40.747934 a 0.46246549,0.46246549 5.5623858 0 0 0.725603,0.07066 l 2.548794,-0.637198 a 2.7002799,2.7002799 150.48188 0 0 1.254472,-0.71027 l 2.942262,-2.942262 a 0.74793423,0.74793423 90 0 0 0,-1.057738 0.70828446,0.70828446 176.69548 0 0 -1,0.05774 l -0.942262,0.942262 A 0.3098045,0.3098045 22.5 0 1 37,36.252066 v -0.504132 a 1.8259727,1.8259727 112.27443 0 1 0.524689,-1.280951 l 1.950622,-1.981585 A 1.8259727,1.8259727 112.27443 0 0 40,31.204447 v -1.456513 a 2.3727204,2.3727204 107.49601 0 1 0.428912,-1.360666 L 51.672908,12.324418 A 2.112804,2.112804 62.49601 0 0 49.942031,9 H 12.065548 a 1.2153755,1.2153755 120.4727 0 0 -1.062429,1.805614 z"
     style="fill:url(#radialGradient8)"
     id="path3"
     inkscape:path-effect="#path-effect6"
     inkscape:original-d="m 10,9 5,9 h 22 l -5,6 3,-2 -1,2 3,-2 -7,6 v -1 l -1,2 1,2 -7,8 -3,3 v 3 l 2,2 -3,2 h 2 l -2,3 7,-7 -7,11 9,-8 1,-3 v -2 l 3,-3 v 1 l 4,-1 4,-4 -1,-1 -2,2 v -2 l 3,-3.047619 V 29 L 54,9 Z"
     transform="matrix(0.86665459,0,0,0.86665459,4.8686651,5.4234032)" />
  <path
     id="rect2-9"
     style="fill:none;stroke:#000000;stroke-opacity:1;filter:url(#filter9);stroke-width:0.60000005;stroke-dasharray:none"
     d="m 16.879475,4 h 30.24105 A 12.879475,12.879475 45 0 1 60,16.879475 l 0,30.24105 A 12.879475,12.879475 135 0 1 47.120525,60 l -30.24105,0 A 12.879475,12.879475 45 0 1 4,47.120525 V 16.879475 A 12.879475,12.879475 135 0 1 16.879475,4 Z"
     inkscape:path-effect="#path-effect8-2"
     inkscape:original-d="M 4,4 H 60 V 60 H 4 Z"
     transform="translate(0.07656793,0.03438677)" />
  <path
     d="m 11.003119,10.805614 2.993762,5.388772 A 3.5104292,3.5104292 30.472698 0 0 17.065548,18 h 18.888581 a 0.48985954,0.48985954 64.902786 0 1 0.376321,0.80346 l -3.851634,4.621961 a 0.10847437,0.10847437 48.057752 0 0 0.143503,0.1597 l 1.755362,-1.170242 a 0.19862473,0.19862473 41.437492 0 1 0.287833,0.254094 l -0.331028,0.662054 a 0.19862473,0.19862473 41.437492 0 0 0.287833,0.254094 l 1.755362,-1.170242 a 0.04516406,0.04516406 52.854319 0 1 0.05444,0.07187 l -5.864252,5.026502 A 0.34400107,0.34400107 24.699353 0 1 30,27.252066 0.2745968,0.2745968 128.74023 0 0 29.665514,27.668973 l -0.331028,0.662054 a 1.4958685,1.4958685 90 0 0 0,1.337946 l 0.331028,0.662054 a 1.1140728,1.1140728 97.310437 0 1 -0.158032,1.231851 l -6.014964,6.874244 a 22.46293,22.46293 133.09296 0 1 -1.021387,1.091747 l -1.942262,1.942262 A 1.805673,1.805673 112.5 0 0 20,42.747934 v 1.504132 a 1.805673,1.805673 67.5 0 0 0.528869,1.276803 l 0.942262,0.942262 a 0.6131594,0.6131594 95.654966 0 1 -0.09345,0.943748 l -1.755362,1.170242 A 0.22645626,0.22645626 73.154966 0 0 19.747934,49 h 0.504132 a 0.40028225,0.40028225 61.845034 0 1 0.333055,0.622319 l -1.170242,1.755362 a 0.07406008,0.07406008 39.345034 0 0 0.11399,0.09345 l 5.942262,-5.942262 a 0.08210241,0.08210241 38.735596 0 1 0.127321,0.102134 l -6.196904,9.737994 a 0.10441831,0.10441831 40.418826 0 0 0.157465,0.134103 l 7.881974,-7.0062 a 2.7980167,2.7980167 123.4007 0 0 0.795531,-1.206453 l 0.526964,-1.580894 A 4.6089784,4.6089784 99.217474 0 0 29,44.252066 v -0.504132 a 1.805673,1.805673 112.5 0 1 0.528869,-1.276803 l 1.942262,-1.942262 A 0.3098045,0.3098045 22.5 0 1 32,40.747934 a 0.46246549,0.46246549 5.5623858 0 0 0.725603,0.07066 l 2.548794,-0.637198 a 2.7002799,2.7002799 150.48188 0 0 1.254472,-0.71027 l 2.942262,-2.942262 a 0.74793423,0.74793423 90 0 0 0,-1.057738 0.70828446,0.70828446 176.69548 0 0 -1,0.05774 l -0.942262,0.942262 A 0.3098045,0.3098045 22.5 0 1 37,36.252066 v -0.504132 a 1.8259727,1.8259727 112.27443 0 1 0.524689,-1.280951 l 1.950622,-1.981585 A 1.8259727,1.8259727 112.27443 0 0 40,31.204447 v -1.456513 a 2.3727204,2.3727204 107.49601 0 1 0.428912,-1.360666 L 51.672908,12.324418 A 2.112804,2.112804 62.49601 0 0 49.942031,9 H 12.065548 a 1.2153755,1.2153755 120.4727 0 0 -1.062429,1.805614 z"
     style="fill:none;stroke:#ff6b00;stroke-opacity:1;filter:url(#filter8);stroke-width:0.42231346;stroke-dasharray:none"
     id="path3-1"
     inkscape:path-effect="#path-effect6-5"
     inkscape:original-d="m 10,9 5,9 h 22 l -5,6 3,-2 -1,2 3,-2 -7,6 v -1 l -1,2 1,2 -7,8 -3,3 v 3 l 2,2 -3,2 h 2 l -2,3 7,-7 -7,11 9,-8 1,-3 v -2 l 3,-3 v 1 l 4,-1 4,-4 -1,-1 -2,2 v -2 l 3,-3.047619 V 29 L 54,9 Z"
     transform="matrix(0.86665459,0,0,0.86665459,4.9452329,5.45779)" />
</svg>
