<?xml version="1.0" encoding="UTF-8" standalone="no"?>
<svg
   width="64"
   height="64"
   version="1"
   id="svg12"
   sodipodi:docname="7kaa.svg"
   inkscape:version="1.4 (e7c3feb100, 2024-10-09)"
   xmlns:inkscape="http://www.inkscape.org/namespaces/inkscape"
   xmlns:sodipodi="http://sodipodi.sourceforge.net/DTD/sodipodi-0.dtd"
   xmlns:xlink="http://www.w3.org/1999/xlink"
   xmlns="http://www.w3.org/2000/svg"
   xmlns:svg="http://www.w3.org/2000/svg">
  <defs
     id="defs12">
    <inkscape:path-effect
       effect="fillet_chamfer"
       id="path-effect13"
       is_visible="true"
       lpeversion="1"
       nodesatellites_param="F,0,1,1,0,5.9296819,0,1 @ F,0,0,1,0,5.9296819,0,1 @ F,0,1,1,0,5.9296819,0,1 @ F,0,1,1,0,5.9296819,0,1"
       radius="0"
       unit="px"
       method="auto"
       mode="F"
       chamfer_steps="1"
       flexible="false"
       use_knot_distance="true"
       apply_no_radius="true"
       apply_with_radius="true"
       only_selected="false"
       hide_knots="false" />
    <linearGradient
       id="linearGradient12"
       inkscape:collect="always">
      <stop
         style="stop-color:#ff690f;stop-opacity:1;"
         offset="0"
         id="stop12" />
      <stop
         style="stop-color:#c20a0a;stop-opacity:1;"
         offset="1"
         id="stop13" />
    </linearGradient>
    <inkscape:path-effect
       effect="fillet_chamfer"
       id="path-effect12"
       is_visible="true"
       lpeversion="1"
       nodesatellites_param="F,0,0,1,0,3.657845,0,1 @ F,0,1,1,0,3.657845,0,1 @ F,0,1,1,0,3.657845,0,1"
       radius="0"
       unit="px"
       method="auto"
       mode="F"
       chamfer_steps="1"
       flexible="false"
       use_knot_distance="true"
       apply_no_radius="true"
       apply_with_radius="true"
       only_selected="false"
       hide_knots="false" />
    <radialGradient
       inkscape:collect="always"
       xlink:href="#linearGradient15"
       id="radialGradient16"
       cx="27.187571"
       cy="44.654675"
       fx="27.187571"
       fy="44.654675"
       r="9.0058784"
       gradientTransform="matrix(3.9256559,-2.2664785,3.3751886,5.8459981,-239.62419,-151.56326)"
       gradientUnits="userSpaceOnUse" />
    <linearGradient
       id="linearGradient15"
       inkscape:collect="always">
      <stop
         style="stop-color:#ffc73c;stop-opacity:0.99990189;"
         offset="0"
         id="stop15" />
      <stop
         style="stop-color:#f55a1f;stop-opacity:0.99990189;"
         offset="1"
         id="stop16" />
    </linearGradient>
    <radialGradient
       inkscape:collect="always"
       xlink:href="#linearGradient19"
       id="radialGradient21"
       cx="17.166227"
       cy="49.160595"
       fx="17.166227"
       fy="49.160595"
       r="30"
       gradientTransform="matrix(1.5151796,-0.40599115,0.39433658,1.4716842,-28.229511,-27.98853)"
       gradientUnits="userSpaceOnUse" />
    <linearGradient
       id="linearGradient19"
       inkscape:collect="always">
      <stop
         style="stop-color:#555555;stop-opacity:1;"
         offset="0"
         id="stop20" />
      <stop
         style="stop-color:#2d2d2d;stop-opacity:1;"
         offset="1"
         id="stop21" />
    </linearGradient>
    <inkscape:path-effect
       effect="fillet_chamfer"
       id="path-effect21"
       is_visible="true"
       lpeversion="1"
       nodesatellites_param="F,0,0,1,0,0,0,1 @ F,0,1,1,0,1.2116492,0,1 @ F,0,1,1,0,1.2116492,0,1 @ F,0,1,1,0,1.2116492,0,1 @ F,0,1,1,0,1.2116492,0,1 @ F,0,1,1,0,1.2116492,0,1 @ F,0,1,1,0,1.2116492,0,1 @ F,0,1,1,0,1.2116492,0,1 @ F,0,1,1,0,1.2116492,0,1 @ F,0,1,1,0,1.2116492,0,1 @ F,0,1,1,0,1.2116492,0,1 @ F,0,1,1,0,1.2116492,0,1 @ F,0,0,1,0,0,0,1 @ F,0,0,1,0,0,0,1 @ F,0,1,1,0,1.2116492,0,1 @ F,0,1,1,0,1.2116492,0,1 @ F,0,1,1,0,1.2116492,0,1 @ F,0,1,1,0,1.2116492,0,1 @ F,0,1,1,0,1.2116492,0,1 @ F,0,1,1,0,1.2116492,0,1 @ F,0,1,1,0,1.2116492,0,1 @ F,0,1,1,0,1.2116492,0,1 @ F,0,1,1,0,1.2116492,0,1 @ F,0,1,1,0,1.2116492,0,1 @ F,0,1,1,0,1.2116492,0,1 @ F,0,0,1,0,0,0,1 @ F,0,0,1,0,0,0,1 @ F,0,0,1,0,0,0,1 @ F,0,0,1,0,0,0,1 @ F,0,0,1,0,0,0,1 @ F,0,0,1,0,0,0,1 @ F,0,0,1,0,0,0,1 @ F,0,0,1,0,0,0,1"
       radius="0"
       unit="px"
       method="auto"
       mode="F"
       chamfer_steps="1"
       flexible="false"
       use_knot_distance="true"
       apply_no_radius="true"
       apply_with_radius="true"
       only_selected="false"
       hide_knots="false" />
    <radialGradient
       inkscape:collect="always"
       xlink:href="#linearGradient18"
       id="radialGradient19"
       cx="8.3487272"
       cy="69.844467"
       fx="8.3487272"
       fy="69.844467"
       r="28"
       gradientTransform="matrix(1.8339466,-0.49140452,0.50069072,1.8686033,-41.934792,-68.612957)"
       gradientUnits="userSpaceOnUse" />
    <linearGradient
       id="linearGradient18"
       inkscape:collect="always">
      <stop
         style="stop-color:#1f1f1f;stop-opacity:1;"
         offset="0"
         id="stop18" />
      <stop
         style="stop-color:#313131;stop-opacity:1;"
         offset="1"
         id="stop19" />
    </linearGradient>
    <radialGradient
       inkscape:collect="always"
       xlink:href="#linearGradient12"
       id="radialGradient13"
       cx="19.929335"
       cy="4.1295424"
       fx="19.929335"
       fy="4.1295424"
       r="10.413191"
       gradientTransform="matrix(2.565515,1.4812008,-1.2751325,2.2085943,-30.700998,-37.261802)"
       gradientUnits="userSpaceOnUse" />
    <inkscape:path-effect
       effect="fillet_chamfer"
       id="path-effect12-5"
       is_visible="true"
       lpeversion="1"
       nodesatellites_param="F,0,0,1,0,3.657845,0,1 @ F,0,1,1,0,3.657845,0,1 @ F,0,1,1,0,3.657845,0,1"
       radius="0"
       unit="px"
       method="auto"
       mode="F"
       chamfer_steps="1"
       flexible="false"
       use_knot_distance="true"
       apply_no_radius="true"
       apply_with_radius="true"
       only_selected="false"
       hide_knots="false" />
    <inkscape:path-effect
       effect="fillet_chamfer"
       id="path-effect21-2"
       is_visible="true"
       lpeversion="1"
       nodesatellites_param="F,0,0,1,0,0,0,1 @ F,0,1,1,0,1.2116492,0,1 @ F,0,1,1,0,1.2116492,0,1 @ F,0,1,1,0,1.2116492,0,1 @ F,0,1,1,0,1.2116492,0,1 @ F,0,1,1,0,1.2116492,0,1 @ F,0,1,1,0,1.2116492,0,1 @ F,0,1,1,0,1.2116492,0,1 @ F,0,1,1,0,1.2116492,0,1 @ F,0,1,1,0,1.2116492,0,1 @ F,0,1,1,0,1.2116492,0,1 @ F,0,1,1,0,1.2116492,0,1 @ F,0,0,1,0,0,0,1 @ F,0,0,1,0,0,0,1 @ F,0,1,1,0,1.2116492,0,1 @ F,0,1,1,0,1.2116492,0,1 @ F,0,1,1,0,1.2116492,0,1 @ F,0,1,1,0,1.2116492,0,1 @ F,0,1,1,0,1.2116492,0,1 @ F,0,1,1,0,1.2116492,0,1 @ F,0,1,1,0,1.2116492,0,1 @ F,0,1,1,0,1.2116492,0,1 @ F,0,1,1,0,1.2116492,0,1 @ F,0,1,1,0,1.2116492,0,1 @ F,0,1,1,0,1.2116492,0,1 @ F,0,0,1,0,0,0,1 @ F,0,0,1,0,0,0,1 @ F,0,0,1,0,0,0,1 @ F,0,0,1,0,0,0,1 @ F,0,0,1,0,0,0,1 @ F,0,0,1,0,0,0,1 @ F,0,0,1,0,0,0,1 @ F,0,0,1,0,0,0,1"
       radius="0"
       unit="px"
       method="auto"
       mode="F"
       chamfer_steps="1"
       flexible="false"
       use_knot_distance="true"
       apply_no_radius="true"
       apply_with_radius="true"
       only_selected="false"
       hide_knots="false" />
    <inkscape:path-effect
       effect="fillet_chamfer"
       id="path-effect13-3"
       is_visible="true"
       lpeversion="1"
       nodesatellites_param="F,0,1,1,0,5.9296819,0,1 @ F,0,0,1,0,5.9296819,0,1 @ F,0,1,1,0,5.9296819,0,1 @ F,0,1,1,0,5.9296819,0,1"
       radius="0"
       unit="px"
       method="auto"
       mode="F"
       chamfer_steps="1"
       flexible="false"
       use_knot_distance="true"
       apply_no_radius="true"
       apply_with_radius="true"
       only_selected="false"
       hide_knots="false" />
    <filter
       inkscape:collect="always"
       style="color-interpolation-filters:sRGB"
       id="filter13"
       x="-0.10416852"
       y="-0.18500568"
       width="1.2083461"
       height="1.3674555">
      <feGaussianBlur
         inkscape:collect="always"
         stdDeviation="2.538034"
         id="feGaussianBlur13" />
    </filter>
    <filter
       inkscape:collect="always"
       style="color-interpolation-filters:sRGB"
       id="filter14"
       x="-0.11077311"
       y="-0.28196791"
       width="1.2215462"
       height="1.5639358">
      <feGaussianBlur
         inkscape:collect="always"
         stdDeviation="2.538034"
         id="feGaussianBlur14" />
    </filter>
    <filter
       inkscape:collect="always"
       style="color-interpolation-filters:sRGB"
       id="filter15"
       x="-0.099165603"
       y="-0.14901691"
       width="1.1983153"
       height="1.2980093">
      <feGaussianBlur
         inkscape:collect="always"
         stdDeviation="1.6187598"
         id="feGaussianBlur15" />
    </filter>
    <filter
       inkscape:collect="always"
       style="color-interpolation-filters:sRGB"
       id="filter1"
       x="-0.32403249"
       y="-0.37632048"
       width="1.648065"
       height="1.7524622">
      <feGaussianBlur
         inkscape:collect="always"
         stdDeviation="2.7645934"
         id="feGaussianBlur1" />
    </filter>
  </defs>
  <sodipodi:namedview
     id="namedview12"
     pagecolor="#505050"
     bordercolor="#eeeeee"
     borderopacity="1"
     inkscape:showpageshadow="0"
     inkscape:pageopacity="0"
     inkscape:pagecheckerboard="0"
     inkscape:deskcolor="#505050"
     inkscape:zoom="13.109375"
     inkscape:cx="32"
     inkscape:cy="31.961859"
     inkscape:window-width="1920"
     inkscape:window-height="1020"
     inkscape:window-x="0"
     inkscape:window-y="0"
     inkscape:window-maximized="1"
     inkscape:current-layer="svg12" />
  <path
     id="rect2"
     style="fill:url(#radialGradient19)"
     d="M 9.9277588,39 H 54.068395 a 5.9296819,5.9296819 45 0 1 5.929682,5.929682 l 0,10.140636 A 5.9296819,5.9296819 135 0 1 54.068395,61 H 9.9277588 A 5.9296819,5.9296819 45 0 1 3.9980769,55.070318 V 44.929682 A 5.9296819,5.9296819 135 0 1 9.9277588,39 Z"
     inkscape:path-effect="#path-effect13"
     inkscape:original-d="M 3.9980769,39 H 59.998077 V 61 H 3.9980769 Z"
     transform="matrix(0.89275711,0,0,0.89275711,3.4261282,3.4370206)" />
  <path
     id="rect2-6"
     style="opacity:1;fill:none;stroke:#000000;stroke-width:0.2240251;stroke-dasharray:none;stroke-opacity:1;filter:url(#filter14)"
     d="M 9.9277588,39 H 54.068395 a 5.9296819,5.9296819 45 0 1 5.929682,5.929682 l 0,10.140636 A 5.9296819,5.9296819 135 0 1 54.068395,61 H 9.9277588 A 5.9296819,5.9296819 45 0 1 3.9980769,55.070318 V 44.929682 A 5.9296819,5.9296819 135 0 1 9.9277588,39 Z"
     inkscape:path-effect="#path-effect13-3"
     inkscape:original-d="M 3.9980769,39 H 59.998077 V 61 H 3.9980769 Z"
     transform="matrix(0.89275711,0,0,0.89275711,3.3788538,3.3567267)" />
  <path
     style="fill:url(#radialGradient21)"
     d="M 24.670202,5 23.413203,8.6763842 A 0.81603138,0.81603138 164.91636 0 1 22.10616,9.0286512 L 20.063483,7.2556958 a 0.81664434,0.81664434 164.93629 0 0 -1.307841,0.3519939 l -0.570436,1.6645876 a 0.81624454,0.81624454 164.9493 0 1 -1.30748,0.3515786 L 15.777408,8.6679521 a 0.81598528,0.81598528 164.94086 0 0 -1.307143,0.3516942 l -0.657606,1.9208047 a 1.0695564,1.0695564 157.46342 0 1 -1.481224,0.614651 l -0.66845,-0.326425 a 0.81303713,0.81303713 149.88997 0 0 -1.168059,0.677374 l -0.153914,2.34686 A 0.81285174,0.81285174 149.89601 0 1 9.1730649,14.930055 L 7.3771585,14.052589 a 0.81261864,0.81261864 149.88841 0 0 -1.1676263,0.677165 l -0.1712966,2.622567 a 1.0634961,1.0634961 142.46278 0 1 -1.2675929,0.973968 l -1.582022,-0.31292 c -0.6564571,-0.129845 -1.0642185,0.293124 -0.9374386,0.950128 0.2996953,1.553093 0.5258135,3.129203 1.0815334,4.60221 0.2358881,0.625252 0.7102426,1.602058 0.9749296,2.216661 L 10,39 h 44 c 2.171324,-5.086516 4.405856,-10.15326 6.549079,-15.248567 0.259408,-0.616716 0.575834,-1.648974 0.708564,-2.304853 l 0.502028,-2.480741 A 0.80762746,0.80762746 45.125961 0 0 60.811379,18.01337 l -1.58202,0.312918 a 1.0634962,1.0634962 37.537217 0 1 -1.267593,-0.973967 l -0.171298,-2.622567 a 0.81261876,0.81261876 30.111582 0 0 -1.167626,-0.677165 l -1.795906,0.877466 a 0.81285169,0.81285169 30.103985 0 1 -1.167947,-0.677144 l -0.153914,-2.34686 a 0.81303738,0.81303738 30.11004 0 0 -1.168059,-0.677374 l -0.668452,0.326425 A 1.0695562,1.0695562 22.536595 0 1 50.187341,10.940451 L 49.529735,9.0196465 A 0.8159852,0.8159852 15.059159 0 0 48.222593,8.6679518 l -1.10032,0.9559044 A 0.81624484,0.81624484 15.050713 0 1 45.814793,9.2722773 L 45.244357,7.6076897 A 0.81664423,0.81664423 15.063702 0 0 43.936516,7.255696 L 41.89384,9.028651 A 0.81603127,0.81603127 15.083638 0 1 40.586797,8.6763842 L 39.329798,5 C 38.051137,6.1800857 36.585581,7.2428832 35.42092,8.4945109 35.25634,8.8882932 34.858332,11.034078 34.868302,10.117766 35.088913,8.945213 33.959283,8.1854987 33.479914,7.2269657 32.98284,6.5136822 32.485933,5.7072222 31.98876,5.0496348 31.064165,6.5159473 29.926916,7.9172402 29.131618,9.4230857 29.221849,10.929655 29.023486,10.269882 28.77054,9.2003755 28.661587,7.9549003 27.315941,7.4854968 26.563856,6.6436108 Z"
     id="path3"
     inkscape:path-effect="#path-effect21"
     inkscape:original-d="M 24.670202,5 C 24.120537,6.6076237 23.570871,8.2152473 23.021206,9.822871 21.730283,8.702406 20.43936,7.581941 19.148437,6.461476 18.696428,7.780481 18.24442,9.099486 17.792411,10.418491 16.815848,9.5700997 15.839286,8.7217083 14.862723,7.873317 14.381882,9.2778047 13.901042,10.682292 13.420201,12.08678 12.47154,11.62352 11.52288,11.160259 10.574219,10.696999 10.470052,12.28532 10.365886,13.873642 10.261719,15.461963 8.9373141,14.814869 7.6129093,14.167775 6.2885044,13.520681 6.1787574,15.200919 6.0690104,16.881156 5.9592634,18.561394 4.6395089,18.300351 3.3197545,18.039307 2,17.778264 2.5494394,20.094128 2.6956325,22.536132 3.8283868,24.669531 5.8855912,29.446354 7.9427956,34.223177 10,39 c 14.666667,0 29.333333,0 44,0 2.329963,-5.458141 4.732707,-10.893516 7.017314,-16.365845 0.327562,-1.61863 0.655124,-3.237261 0.982686,-4.855891 -1.319754,0.261043 -2.639508,0.522087 -3.959262,0.78313 -0.109747,-1.680238 -0.219495,-3.360475 -0.329242,-5.040713 -1.324405,0.647094 -2.648809,1.294188 -3.973214,1.941282 -0.104167,-1.588321 -0.208333,-3.176643 -0.3125,-4.764964 -0.948661,0.46326 -1.897323,0.926521 -2.845984,1.389781 -0.48084,-1.404488 -0.96168,-2.8089753 -1.44252,-4.213463 -0.976563,0.8483913 -1.953127,1.6967827 -2.92969,2.545174 C 45.755579,9.099486 45.303571,7.780481 44.851562,6.461476 43.560639,7.581941 42.269717,8.702406 40.978794,9.822871 40.429129,8.2152473 39.879463,6.6076237 39.329798,5 38.051137,6.1800857 36.585581,7.2428832 35.42092,8.4945109 35.25634,8.8882932 34.858332,11.034078 34.868302,10.117766 35.088913,8.945213 33.959283,8.1854987 33.479914,7.2269657 32.98284,6.5136822 32.485933,5.7072222 31.98876,5.0496348 31.064165,6.5159473 29.926916,7.9172402 29.131618,9.4230857 29.221849,10.929655 29.023486,10.269882 28.77054,9.2003755 28.661587,7.9549003 27.315941,7.4854968 26.563856,6.6436108 25.932638,6.0957405 25.30142,5.5478703 24.670202,5 Z"
     transform="matrix(0.89275711,0,0,0.89275711,3.4244113,3.4370206)" />
  <path
     style="opacity:1;fill:none;stroke:#000000;stroke-width:0.2240251;stroke-dasharray:none;stroke-opacity:1;filter:url(#filter13)"
     d="M 24.670202,5 23.413203,8.6763842 A 0.81603138,0.81603138 164.91636 0 1 22.10616,9.0286512 L 20.063483,7.2556958 a 0.81664434,0.81664434 164.93629 0 0 -1.307841,0.3519939 l -0.570436,1.6645876 a 0.81624454,0.81624454 164.9493 0 1 -1.30748,0.3515786 L 15.777408,8.6679521 a 0.81598528,0.81598528 164.94086 0 0 -1.307143,0.3516942 l -0.657606,1.9208047 a 1.0695564,1.0695564 157.46342 0 1 -1.481224,0.614651 l -0.66845,-0.326425 a 0.81303713,0.81303713 149.88997 0 0 -1.168059,0.677374 l -0.153914,2.34686 A 0.81285174,0.81285174 149.89601 0 1 9.1730649,14.930055 L 7.3771585,14.052589 a 0.81261864,0.81261864 149.88841 0 0 -1.1676263,0.677165 l -0.1712966,2.622567 a 1.0634961,1.0634961 142.46278 0 1 -1.2675929,0.973968 l -1.582022,-0.31292 c -0.6564571,-0.129845 -1.0642185,0.293124 -0.9374386,0.950128 0.2996953,1.553093 0.5258135,3.129203 1.0815334,4.60221 0.2358881,0.625252 0.7102426,1.602058 0.9749296,2.216661 L 10,39 h 44 c 2.171324,-5.086516 4.405856,-10.15326 6.549079,-15.248567 0.259408,-0.616716 0.575834,-1.648974 0.708564,-2.304853 l 0.502028,-2.480741 A 0.80762746,0.80762746 45.125961 0 0 60.811379,18.01337 l -1.58202,0.312918 a 1.0634962,1.0634962 37.537217 0 1 -1.267593,-0.973967 l -0.171298,-2.622567 a 0.81261876,0.81261876 30.111582 0 0 -1.167626,-0.677165 l -1.795906,0.877466 a 0.81285169,0.81285169 30.103985 0 1 -1.167947,-0.677144 l -0.153914,-2.34686 a 0.81303738,0.81303738 30.11004 0 0 -1.168059,-0.677374 l -0.668452,0.326425 A 1.0695562,1.0695562 22.536595 0 1 50.187341,10.940451 L 49.529735,9.0196465 A 0.8159852,0.8159852 15.059159 0 0 48.222593,8.6679518 l -1.10032,0.9559044 A 0.81624484,0.81624484 15.050713 0 1 45.814793,9.2722773 L 45.244357,7.6076897 A 0.81664423,0.81664423 15.063702 0 0 43.936516,7.255696 L 41.89384,9.028651 A 0.81603127,0.81603127 15.083638 0 1 40.586797,8.6763842 L 39.329798,5 C 38.051137,6.1800857 36.585581,7.2428832 35.42092,8.4945109 35.25634,8.8882932 34.858332,11.034078 34.868302,10.117766 35.088913,8.945213 33.959283,8.1854987 33.479914,7.2269657 32.98284,6.5136822 32.485933,5.7072222 31.98876,5.0496348 31.064165,6.5159473 29.926916,7.9172402 29.131618,9.4230857 29.221849,10.929655 29.023486,10.269882 28.77054,9.2003755 28.661587,7.9549003 27.315941,7.4854968 26.563856,6.6436108 Z"
     id="path3-0"
     inkscape:path-effect="#path-effect21-2"
     inkscape:original-d="M 24.670202,5 C 24.120537,6.6076237 23.570871,8.2152473 23.021206,9.822871 21.730283,8.702406 20.43936,7.581941 19.148437,6.461476 18.696428,7.780481 18.24442,9.099486 17.792411,10.418491 16.815848,9.5700997 15.839286,8.7217083 14.862723,7.873317 14.381882,9.2778047 13.901042,10.682292 13.420201,12.08678 12.47154,11.62352 11.52288,11.160259 10.574219,10.696999 10.470052,12.28532 10.365886,13.873642 10.261719,15.461963 8.9373141,14.814869 7.6129093,14.167775 6.2885044,13.520681 6.1787574,15.200919 6.0690104,16.881156 5.9592634,18.561394 4.6395089,18.300351 3.3197545,18.039307 2,17.778264 2.5494394,20.094128 2.6956325,22.536132 3.8283868,24.669531 5.8855912,29.446354 7.9427956,34.223177 10,39 c 14.666667,0 29.333333,0 44,0 2.329963,-5.458141 4.732707,-10.893516 7.017314,-16.365845 0.327562,-1.61863 0.655124,-3.237261 0.982686,-4.855891 -1.319754,0.261043 -2.639508,0.522087 -3.959262,0.78313 -0.109747,-1.680238 -0.219495,-3.360475 -0.329242,-5.040713 -1.324405,0.647094 -2.648809,1.294188 -3.973214,1.941282 -0.104167,-1.588321 -0.208333,-3.176643 -0.3125,-4.764964 -0.948661,0.46326 -1.897323,0.926521 -2.845984,1.389781 -0.48084,-1.404488 -0.96168,-2.8089753 -1.44252,-4.213463 -0.976563,0.8483913 -1.953127,1.6967827 -2.92969,2.545174 C 45.755579,9.099486 45.303571,7.780481 44.851562,6.461476 43.560639,7.581941 42.269717,8.702406 40.978794,9.822871 40.429129,8.2152473 39.879463,6.6076237 39.329798,5 38.051137,6.1800857 36.585581,7.2428832 35.42092,8.4945109 35.25634,8.8882932 34.858332,11.034078 34.868302,10.117766 35.088913,8.945213 33.959283,8.1854987 33.479914,7.2269657 32.98284,6.5136822 32.485933,5.7072222 31.98876,5.0496348 31.064165,6.5159473 29.926916,7.9172402 29.131618,9.4230857 29.221849,10.929655 29.023486,10.269882 28.77054,9.2003755 28.661587,7.9549003 27.315941,7.4854968 26.563856,6.6436108 25.932638,6.0957405 25.30142,5.5478703 24.670202,5 Z"
     transform="matrix(0.89275711,0,0,0.89275711,3.377137,3.3567267)" />
  <path
     d="m 36.719718,25.703638 a 2.6782713,2.6782713 0 0 0 -2.678271,2.678271 v 17.855143 a 2.6782713,2.6782713 0 0 0 2.678271,2.678271 2.6782713,2.6782713 0 0 0 2.678271,-2.678271 V 41.93194 l 6.04006,6.815991 a 2.6782713,2.6782713 0 0 0 3.780269,0.228421 2.6782713,2.6782713 0 0 0 0.22842,-3.780269 l -6.258018,-7.061849 6.280686,-7.265857 a 2.6782713,2.6782713 0 0 0 -0.2755,-3.778524 2.6782713,2.6782713 0 0 0 -3.778525,0.275499 l -6.017392,6.964203 v -5.947646 a 2.6782713,2.6782713 0 0 0 -2.678271,-2.678271 z m -19.90395,0.05231 a 2.6782713,2.6782713 0 0 0 -2.678271,2.678272 2.6782713,2.6782713 0 0 0 2.678271,2.678271 h 5.044427 c -3.112032,4.538955 -4.15167,8.989671 -4.15167,15.176871 a 2.6782713,2.6782713 0 0 0 2.678271,2.678271 2.6782713,2.6782713 0 0 0 2.678272,-2.678271 c 0,-7.609676 0.824566,-10.174366 6.399255,-16.003369 a 2.6785391,2.6785391 0 0 0 -1.93547,-4.530045 z"
     style="fill:url(#radialGradient16);stroke-width:0.892757;stroke-linecap:round;stroke-linejoin:round"
     id="path18" />
  <path
     d="m 37.240045,24.851467 a 3,3 0 0 0 -3,3 v 20 a 3,3 0 0 0 3,3 3,3 0 0 0 3,-3 v -4.822265 l 6.765625,7.634765 a 3,3 0 0 0 4.234375,0.25586 3,3 0 0 0 0.255859,-4.234375 l -7.009765,-7.910157 7.035156,-8.138672 a 3,3 0 0 0 -0.308594,-4.232421 3,3 0 0 0 -4.232422,0.308593 l -6.740234,7.800782 v -6.66211 a 3,3 0 0 0 -3,-3 z m -22.294922,0.05859 a 3,3 0 0 0 -3,3 3,3 0 0 0 3,3 h 5.650391 c -3.485866,5.084199 -4.650391,10.06956 -4.650391,17 a 3,3 0 0 0 3,3 3,3 0 0 0 3,-3 c 0,-8.523792 0.923618,-11.396566 7.167969,-17.925781 a 3.0003,3.0003 0 0 0 -2.167969,-5.074219 z"
     style="fill:none;stroke:#ffcc00;stroke-width:0.2240251;stroke-linecap:round;stroke-linejoin:round;stroke-dasharray:none;stroke-opacity:1;filter:url(#filter15)"
     id="path18-6"
     transform="matrix(0.89275711,0,0,0.89275711,3.4261282,3.4370206)" />
  <path
     style="fill:url(#radialGradient13);stroke-width:1.12878"
     d="M 30.116131,19.863425 21.880023,6.1365771 a 2.0710367,2.0710367 119.51812 0 1 1.775899,-3.1365763 l 16.684309,-4e-7 A 2.0710367,2.0710367 60.481876 0 1 42.11613,6.1365766 L 33.880023,19.863425 a 2.1947069,2.1947069 180 0 1 -3.763892,0 z"
     id="path11"
     inkscape:path-effect="#path-effect12"
     inkscape:original-d="m 31.998077,23.000001 c -4,-6.666667 -8,-13.3333334 -12,-20.0000001 8,-2e-7 15.999999,-4e-7 23.999999,-6e-7 -4,6.6666669 -7.999999,13.3333337 -11.999999,20.0000007 z"
     transform="matrix(0.89275711,0,0,0.89275711,3.4261282,3.4370206)" />
  <path
     style="opacity:1;fill:none;stroke:#ff0000;stroke-width:0.2240251;stroke-dasharray:none;stroke-opacity:1;filter:url(#filter1)"
     d="M 30.116131,19.863425 21.880023,6.1365771 a 2.0710367,2.0710367 119.51812 0 1 1.775899,-3.1365763 l 16.684309,-4e-7 A 2.0710367,2.0710367 60.481876 0 1 42.11613,6.1365766 L 33.880023,19.863425 a 2.1947069,2.1947069 180 0 1 -3.763892,0 z"
     id="path11-2"
     inkscape:path-effect="#path-effect12-5"
     inkscape:original-d="m 31.998077,23.000001 c -4,-6.666667 -8,-13.3333334 -12,-20.0000001 8,-2e-7 15.999999,-4e-7 23.999999,-6e-7 -4,6.6666669 -7.999999,13.3333337 -11.999999,20.0000007 z"
     transform="matrix(0.89275711,0,0,0.89275711,3.3788538,3.3567267)" />
</svg>
