<?xml version="1.0" encoding="UTF-8" standalone="no"?>
<svg
   width="64"
   height="64"
   version="1"
   id="svg4"
   sodipodi:docname="8tracks.svg"
   inkscape:version="1.3.2 (091e20ef0f, 2023-11-25, custom)"
   xmlns:inkscape="http://www.inkscape.org/namespaces/inkscape"
   xmlns:sodipodi="http://sodipodi.sourceforge.net/DTD/sodipodi-0.dtd"
   xmlns:xlink="http://www.w3.org/1999/xlink"
   xmlns="http://www.w3.org/2000/svg"
   xmlns:svg="http://www.w3.org/2000/svg">
  <defs
     id="defs4">
    <linearGradient
       id="linearGradient4"
       inkscape:collect="always">
      <stop
         style="stop-color:#30b8cd;stop-opacity:1;"
         offset="0"
         id="stop4" />
      <stop
         style="stop-color:#326fd2;stop-opacity:1;"
         offset="1"
         id="stop5" />
    </linearGradient>
    <inkscape:path-effect
       effect="fillet_chamfer"
       id="path-effect4"
       is_visible="true"
       lpeversion="1"
       nodesatellites_param="F,0,0,1,0,0,0,1 @ F,0,0,1,0,0,0,1 @ F,0,1,1,0,3.1366114,0,1 @ F,0,0,1,0,3.1366114,0,1 @ F,0,0,1,0,0,0,1 @ F,0,0,1,0,0,0,1 @ F,0,0,1,0,0,0,1 @ F,0,0,1,0,0,0,1 @ F,0,0,1,0,0,0,1 @ F,0,0,1,0,0,0,1 @ F,0,0,1,0,0,0,1 @ F,0,0,1,0,0,0,1 @ F,0,0,1,0,3.1255915,0,1 @ F,0,0,1,0,3.1255915,0,1 @ F,0,0,1,0,0,0,1 @ F,0,0,1,0,0,0,1 @ F,0,0,1,0,0,0,1 @ F,0,0,1,0,0,0,1 @ F,0,0,1,0,0,0,1 @ F,0,0,1,0,0,0,1 @ F,0,0,1,0,0,0,1"
       radius="0"
       unit="px"
       method="auto"
       mode="F"
       chamfer_steps="1"
       flexible="false"
       use_knot_distance="true"
       apply_no_radius="true"
       apply_with_radius="true"
       only_selected="false"
       hide_knots="false" />
    <radialGradient
       inkscape:collect="always"
       xlink:href="#linearGradient4"
       id="radialGradient5"
       cx="12.243598"
       cy="52.56601"
       fx="12.243598"
       fy="52.56601"
       r="28"
       gradientUnits="userSpaceOnUse"
       gradientTransform="matrix(2.0111188,-0.53887765,0.53887765,2.0111188,-39.686044,-47.598517)" />
    <inkscape:path-effect
       effect="fillet_chamfer"
       id="path-effect4-3"
       is_visible="true"
       lpeversion="1"
       nodesatellites_param="F,0,0,1,0,0,0,1 @ F,0,0,1,0,0,0,1 @ F,0,1,1,0,3.1366114,0,1 @ F,0,0,1,0,3.1366114,0,1 @ F,0,0,1,0,0,0,1 @ F,0,0,1,0,0,0,1 @ F,0,0,1,0,0,0,1 @ F,0,0,1,0,0,0,1 @ F,0,0,1,0,0,0,1 @ F,0,0,1,0,0,0,1 @ F,0,0,1,0,0,0,1 @ F,0,0,1,0,0,0,1 @ F,0,0,1,0,3.1255915,0,1 @ F,0,0,1,0,3.1255915,0,1 @ F,0,0,1,0,0,0,1 @ F,0,0,1,0,0,0,1 @ F,0,0,1,0,0,0,1 @ F,0,0,1,0,0,0,1 @ F,0,0,1,0,0,0,1 @ F,0,0,1,0,0,0,1 @ F,0,0,1,0,0,0,1"
       radius="0"
       unit="px"
       method="auto"
       mode="F"
       chamfer_steps="1"
       flexible="false"
       use_knot_distance="true"
       apply_no_radius="true"
       apply_with_radius="true"
       only_selected="false"
       hide_knots="false" />
    <filter
       inkscape:collect="always"
       style="color-interpolation-filters:sRGB"
       id="filter5"
       x="-0.08300545"
       y="-0.082722154"
       width="1.1660019"
       height="1.1655804">
      <feGaussianBlur
         inkscape:collect="always"
         stdDeviation="1.3777708"
         id="feGaussianBlur5" />
    </filter>
    <filter
       inkscape:collect="always"
       style="color-interpolation-filters:sRGB"
       id="filter6"
       x="-0.097339123"
       y="-0.097339123"
       width="1.1946782"
       height="1.1946782">
      <feGaussianBlur
         inkscape:collect="always"
         stdDeviation="1.8359309"
         id="feGaussianBlur6" />
    </filter>
  </defs>
  <sodipodi:namedview
     id="namedview4"
     pagecolor="#505050"
     bordercolor="#eeeeee"
     borderopacity="1"
     inkscape:showpageshadow="0"
     inkscape:pageopacity="0"
     inkscape:pagecheckerboard="0"
     inkscape:deskcolor="#505050"
     inkscape:zoom="9.269728"
     inkscape:cx="31.77008"
     inkscape:cy="30.367666"
     inkscape:window-width="1920"
     inkscape:window-height="1020"
     inkscape:window-x="0"
     inkscape:window-y="0"
     inkscape:window-maximized="1"
     inkscape:current-layer="svg4" />
  <rect
     style="fill:url(#radialGradient5);stroke-width:0.948709"
     width="53.127701"
     height="53.127701"
     x="5.4431572"
     y="5.4451618"
     rx="12.454009"
     ry="12.454009"
     id="rect2" />
  <path
     style="color:#000000;fill:#ffffff;stroke:none;stroke-linejoin:round;-inkscape-stroke:none"
     d="m 40.988281,8 c -4.625285,-0.1145101 -9.6543,1.9163642 -11.669547,6.334816 -1.011894,2.035374 -1.373637,4.27792 -1.421641,6.531547 C 27.860218,22.597563 29.404309,24 31.136611,24 c 1.581433,0 2.733374,-1.402999 2.770036,-3.134533 0.04568,-2.157475 0.47307,-4.289281 2.267181,-5.654529 2.469677,-1.522158 5.788061,-1.599424 8.427829,-0.482198 4.970191,2.502613 4.378698,10.936191 -0.809132,12.834681 -2.54612,0.749125 -5.239572,0.323782 -7.859575,0.436579 -5.480055,0.04249 -10.965867,-0.0896 -16.441922,0.07493 -4.981072,0.352394 -9.5546843,3.955181 -10.7991533,8.833176 -1.7929851,6.016126 0.9440817,13.344561 6.8630013,15.91581 5.776287,2.687891 13.605481,0.74011 16.693843,-5.052227 1.109587,-2.076102 1.610447,-4.395018 1.752044,-6.735764 0.104174,-1.722091 -1.401503,-3.083272 -3.126995,-3.033249 -1.586086,0.04598 -2.776537,1.48784 -2.926155,3.206547 -0.188005,2.159673 -0.788534,4.27598 -2.437101,5.741538 -2.195534,1.348677 -5.122166,1.355848 -7.48598,0.449302 C 13.119734,45.160565 12.728399,36.848928 17.802275,34.581427 20.35961,33.629232 23.137432,34.124485 25.807202,34 c 5.551653,-0.03822 11.108312,0.08019 16.656521,-0.06637 5.194156,-0.364983 9.822688,-4.279817 11.066581,-9.3307 C 55.151361,19.023566 52.91024,12.252172 47.565103,9.552522 45.551534,8.4843296 43.26063,7.9886177 40.988281,8 Z"
     id="path3"
     inkscape:path-effect="#path-effect4"
     inkscape:original-d="M 40.988281,8 C 36.362996,7.8854899 31.333981,9.9163642 29.318734,14.334816 27.835952,17.317359 27.749213,20.744752 28,24 c 2,0 4,0 6,0 -0.135766,-2.992294 -0.508868,-6.747635 2.173828,-8.789062 2.469677,-1.522158 5.788061,-1.599424 8.427829,-0.482198 4.970191,2.502613 4.378698,10.936191 -0.809132,12.834681 -2.54612,0.749125 -5.239572,0.323782 -7.859575,0.436579 -5.480055,0.04249 -10.965867,-0.0896 -16.441922,0.07493 -4.981072,0.352394 -9.5546843,3.955181 -10.7991533,8.833176 -1.7929851,6.016126 0.9440817,13.344561 6.8630013,15.91581 5.776287,2.687891 13.605481,0.74011 16.693843,-5.052227 1.60422,-3.001589 1.936029,-6.510729 1.749328,-9.859585 -1.998698,0.05794 -3.997396,0.115885 -5.996094,0.173828 0.09422,3.06158 -0.03807,6.683809 -2.491441,8.864829 -2.195534,1.348677 -5.122166,1.355848 -7.48598,0.449302 C 13.119734,45.160565 12.728399,36.848928 17.802275,34.581427 20.35961,33.629232 23.137432,34.124485 25.807202,34 c 5.551653,-0.03822 11.108312,0.08019 16.656521,-0.06637 5.194156,-0.364983 9.822688,-4.279817 11.066581,-9.3307 C 55.151361,19.023566 52.91024,12.252172 47.565103,9.552522 45.551534,8.4843296 43.26063,7.9886177 40.988281,8 Z"
     transform="matrix(0.94870892,0,0,0.94870892,1.6483217,1.6503262)" />
  <rect
     style="mix-blend-mode:normal;fill:none;fill-opacity:1;stroke:#000000;stroke-width:0.88997;stroke-opacity:1;filter:url(#filter6)"
     width="49.838329"
     height="49.838329"
     x="7.2174459"
     y="7.2565274"
     rx="11.682926"
     ry="11.682926"
     id="rect2-3"
     transform="matrix(1.0660008,0,0,1.0660008,-2.1210424,-2.1236218)" />
  <path
     style="color:#000000;fill:none;stroke:#0068ff;stroke-linejoin:round;stroke-opacity:1;-inkscape-stroke:none;filter:url(#filter5)"
     d="m 40.988281,8 c -4.625285,-0.1145101 -9.6543,1.9163642 -11.669547,6.334816 -1.011894,2.035374 -1.373637,4.27792 -1.421641,6.531547 C 27.860218,22.597563 29.404309,24 31.136611,24 c 1.581433,0 2.733374,-1.402999 2.770036,-3.134533 0.04568,-2.157475 0.47307,-4.289281 2.267181,-5.654529 2.469677,-1.522158 5.788061,-1.599424 8.427829,-0.482198 4.970191,2.502613 4.378698,10.936191 -0.809132,12.834681 -2.54612,0.749125 -5.239572,0.323782 -7.859575,0.436579 -5.480055,0.04249 -10.965867,-0.0896 -16.441922,0.07493 -4.981072,0.352394 -9.5546843,3.955181 -10.7991533,8.833176 -1.7929851,6.016126 0.9440817,13.344561 6.8630013,15.91581 5.776287,2.687891 13.605481,0.74011 16.693843,-5.052227 1.109587,-2.076102 1.610447,-4.395018 1.752044,-6.735764 0.104174,-1.722091 -1.401503,-3.083272 -3.126995,-3.033249 -1.586086,0.04598 -2.776537,1.48784 -2.926155,3.206547 -0.188005,2.159673 -0.788534,4.27598 -2.437101,5.741538 -2.195534,1.348677 -5.122166,1.355848 -7.48598,0.449302 C 13.119734,45.160565 12.728399,36.848928 17.802275,34.581427 20.35961,33.629232 23.137432,34.124485 25.807202,34 c 5.551653,-0.03822 11.108312,0.08019 16.656521,-0.06637 5.194156,-0.364983 9.822688,-4.279817 11.066581,-9.3307 C 55.151361,19.023566 52.91024,12.252172 47.565103,9.552522 45.551534,8.4843296 43.26063,7.9886177 40.988281,8 Z"
     id="path3-5"
     inkscape:path-effect="#path-effect4-3"
     inkscape:original-d="M 40.988281,8 C 36.362996,7.8854899 31.333981,9.9163642 29.318734,14.334816 27.835952,17.317359 27.749213,20.744752 28,24 c 2,0 4,0 6,0 -0.135766,-2.992294 -0.508868,-6.747635 2.173828,-8.789062 2.469677,-1.522158 5.788061,-1.599424 8.427829,-0.482198 4.970191,2.502613 4.378698,10.936191 -0.809132,12.834681 -2.54612,0.749125 -5.239572,0.323782 -7.859575,0.436579 -5.480055,0.04249 -10.965867,-0.0896 -16.441922,0.07493 -4.981072,0.352394 -9.5546843,3.955181 -10.7991533,8.833176 -1.7929851,6.016126 0.9440817,13.344561 6.8630013,15.91581 5.776287,2.687891 13.605481,0.74011 16.693843,-5.052227 1.60422,-3.001589 1.936029,-6.510729 1.749328,-9.859585 -1.998698,0.05794 -3.997396,0.115885 -5.996094,0.173828 0.09422,3.06158 -0.03807,6.683809 -2.491441,8.864829 -2.195534,1.348677 -5.122166,1.355848 -7.48598,0.449302 C 13.119734,45.160565 12.728399,36.848928 17.802275,34.581427 20.35961,33.629232 23.137432,34.124485 25.807202,34 c 5.551653,-0.03822 11.108312,0.08019 16.656521,-0.06637 5.194156,-0.364983 9.822688,-4.279817 11.066581,-9.3307 C 55.151361,19.023566 52.91024,12.252172 47.565103,9.552522 45.551534,8.4843296 43.26063,7.9886177 40.988281,8 Z"
     transform="matrix(0.94870892,0,0,0.94870892,1.777925,1.8170066)" />
</svg>
