<?xml version="1.0" encoding="UTF-8" standalone="no"?>
<svg
   width="64"
   height="64"
   version="1"
   id="svg5"
   sodipodi:docname="a7800.svg"
   inkscape:version="1.3.2 (091e20ef0f, 2023-11-25, custom)"
   xmlns:inkscape="http://www.inkscape.org/namespaces/inkscape"
   xmlns:sodipodi="http://sodipodi.sourceforge.net/DTD/sodipodi-0.dtd"
   xmlns:xlink="http://www.w3.org/1999/xlink"
   xmlns="http://www.w3.org/2000/svg"
   xmlns:svg="http://www.w3.org/2000/svg">
  <defs
     id="defs5">
    <linearGradient
       id="linearGradient10"
       inkscape:collect="always">
      <stop
         style="stop-color:#808080;stop-opacity:1;"
         offset="0"
         id="stop10" />
      <stop
         style="stop-color:#6a6a6a;stop-opacity:1;"
         offset="1"
         id="stop11" />
    </linearGradient>
    <inkscape:path-effect
       effect="fillet_chamfer"
       id="path-effect7"
       is_visible="true"
       lpeversion="1"
       nodesatellites_param="F,0,0,1,0,1.574759,0,1 @ F,0,1,1,0,4.0281423,0,1 @ F,0,0,1,0,5.9855809,0,1 @ F,0,0,1,0,5.9855809,0,1 @ F,0,0,1,0,4.0281423,0,1 @ F,0,0,1,0,1.574759,0,1"
       radius="0"
       unit="px"
       method="auto"
       mode="F"
       chamfer_steps="1"
       flexible="false"
       use_knot_distance="true"
       apply_no_radius="true"
       apply_with_radius="true"
       only_selected="false"
       hide_knots="false" />
    <inkscape:path-effect
       effect="fillet_chamfer"
       id="path-effect6"
       is_visible="true"
       lpeversion="1"
       nodesatellites_param="F,0,0,1,0,0,0,1 @ F,0,0,1,0,7.947718,0,1 @ F,0,0,1,0,4.0282132,0,1 @ F,0,0,1,0,7.1986455,0,1 @ F,0,0,1,0,0,0,1"
       radius="0"
       unit="px"
       method="auto"
       mode="F"
       chamfer_steps="1"
       flexible="false"
       use_knot_distance="true"
       apply_no_radius="true"
       apply_with_radius="true"
       only_selected="false"
       hide_knots="false" />
    <inkscape:path-effect
       effect="fillet_chamfer"
       id="path-effect5"
       is_visible="true"
       lpeversion="1"
       nodesatellites_param="F,0,0,1,0,0,0,1 @ F,0,0,1,0,7.649087,0,1 @ F,0,0,1,0,4.2549154,0,1 @ F,0,0,1,0,6.8517578,0,1 @ F,0,0,1,0,0,0,1"
       radius="0"
       unit="px"
       method="auto"
       mode="F"
       chamfer_steps="1"
       flexible="false"
       use_knot_distance="true"
       apply_no_radius="true"
       apply_with_radius="true"
       only_selected="false"
       hide_knots="false" />
    <filter
       inkscape:collect="always"
       style="color-interpolation-filters:sRGB"
       id="filter10"
       x="-0.070918029"
       y="-0.073113496"
       width="1.1418245"
       height="1.1462268">
      <feGaussianBlur
         inkscape:collect="always"
         stdDeviation="1.6437097"
         id="feGaussianBlur10" />
    </filter>
    <radialGradient
       inkscape:collect="always"
       xlink:href="#linearGradient10"
       id="radialGradient11"
       cx="31.94372"
       cy="31.952221"
       fx="31.281687"
       fy="53.791183"
       r="25.651103"
       gradientTransform="matrix(2.4569432,0,0,2.3808284,-45.575641,-75.210558)"
       gradientUnits="userSpaceOnUse" />
  </defs>
  <sodipodi:namedview
     id="namedview5"
     pagecolor="#505050"
     bordercolor="#eeeeee"
     borderopacity="1"
     inkscape:showpageshadow="0"
     inkscape:pageopacity="0"
     inkscape:pagecheckerboard="0"
     inkscape:deskcolor="#505050"
     inkscape:zoom="2.8476563"
     inkscape:cx="9.6570645"
     inkscape:cy="49.689986"
     inkscape:window-width="1920"
     inkscape:window-height="1020"
     inkscape:window-x="0"
     inkscape:window-y="0"
     inkscape:window-maximized="1"
     inkscape:current-layer="svg5" />
  <path
     d="m 37.316587,7.1381215 c 0,12.4439825 -0.400643,22.0277005 1.941299,30.2280405 1.679746,5.881652 5.297026,11.430104 9.964983,15.856536 2.436653,2.310579 6.310114,1.660837 7.888366,-1.250828 0.994546,-1.834805 0.349062,-4.365657 -1.082547,-5.881143 C 49.250914,38.915839 45.690384,26.455142 44.660211,13.923123 44.352856,10.184163 41.304267,7.1751156 37.554262,7.143326 37.403711,7.142046 37.318638,7.140256 37.316587,7.138126 Z"
     style="fill:#3579f1;stroke-width:0.888244;fill-opacity:1"
     id="path1" />
  <path
     d="m 26.657664,7.1398563 c -3.881625,0.0048 -7.033934,3.1750157 -7.362707,7.0591077 -1.058631,12.506597 -4.635433,24.863196 -11.4482801,31.950747 -1.3679198,1.423077 -2.0739673,3.863861 -1.115509,5.58622 1.6995924,3.054179 5.6305171,3.833488 8.1694121,1.384411 4.587223,-4.424944 8.161107,-9.958566 9.815786,-15.752445 2.341941,-8.20034 1.941298,-17.784058 1.941298,-30.2280407 z"
     style="fill:#e43434;stroke-width:0.888244;fill-opacity:1"
     id="path2" />
  <path
     d="m 26.279467,7.1415911 a 1.1149576,1.1149576 0 0 0 -1.089487,1.361858 l 0.678327,2.9978219 a 32.033637,32.033637 0 0 1 0.789357,7.067783 v 32.965634 a 5.316654,5.316654 0 0 0 5.317318,5.315583 h 0.02428 a 5.316654,5.316654 0 0 0 5.317321,-5.315583 V 18.569054 A 31.898442,31.898442 0 0 1 38.10941,11.503006 L 38.782537,8.5364112 A 1.1193647,1.1193647 0 0 0 37.694785,7.1693487 Z"
     style="fill:#25e04b;stroke-width:0.888244;fill-opacity:1"
     id="path3" />
  <path
     id="path1-5"
     style="mix-blend-mode:hard-light;fill:url(#radialGradient11);stroke-width:0.888244"
     d="m 37.320263,7.0957753 v 0.03125 L 26.66206,7.0996815 v -0.00195 c -0.01779,2.2e-5 -0.03498,0.0018 -0.05273,0.00195 h -0.326172 a 1.1149576,1.1149576 0 0 0 -0.06836,0.021484 c -3.673078,0.2377044 -6.60003,3.3021365 -6.916015,7.0351565 -1.05863,12.506584 -4.636378,24.863628 -11.4492191,31.951172 -1.3679184,1.423075 -2.0736917,3.86358 -1.1152344,5.585937 1.6995907,3.054176 5.6310285,3.83384 8.1699215,1.384766 4.587219,-4.42494 8.161729,-9.95808 9.816407,-15.751953 1.457746,-5.10432 1.850828,-10.746828 1.941406,-17.279297 v 31.445312 a 5.316654,5.316654 0 0 0 5.316406,5.316407 h 0.02344 a 5.316654,5.316654 0 0 0 5.318359,-5.316407 v -31.36914 c 0.0927,6.498472 0.489625,12.117739 1.941406,17.201172 1.679745,5.881646 5.296892,11.429041 9.964844,15.855468 2.436651,2.310577 6.310422,1.661662 7.888672,-1.25 C 58.10973,50.094956 57.464761,47.564384 56.033154,46.0489 49.255387,38.874019 45.694185,26.412938 44.664013,13.880931 44.356658,10.141975 41.308546,7.1334246 37.558544,7.1016347 c -0.15055,-0.0013 -0.23623,-0.00376 -0.238281,-0.00586 z" />
  <path
     d="m 25.9375,3.9472656 c -0.02411,2.99e-5 -0.03851,0.00153 -0.04883,0.00195 h -0.0078 -0.36914 c -0.116189,-2.3e-4 -0.228703,0.014839 -0.335938,0.041016 -0.01103,0.00269 -0.02033,0.00877 -0.03125,0.011719 -4.080322,0.4076581 -7.292863,3.8536103 -7.646484,8.0312504 -1.190124,14.060051 -5.217907,27.943543 -12.8457033,35.878905 -1.5815331,1.645305 -2.4028401,4.445828 -1.2792968,6.464844 1.955936,3.514832 6.506198,4.4157 9.4316411,1.59375 5.181302,-4.998008 9.220204,-11.247374 11.091796,-17.800781 1.034305,-3.621632 1.592146,-7.480409 1.890625,-11.671875 v 27.580078 c 6.83e-4,3.386618 2.750103,6.135188 6.136719,6.134766 h 0.02734 c 3.386618,4.25e-4 6.136036,-2.748146 6.136719,-6.134766 V 26.496094 c 0.298479,4.191466 0.85632,8.050242 1.890625,11.671875 1.899852,6.652357 5.987188,12.920152 11.259765,17.919922 2.810995,2.66555 7.295835,1.914852 9.117188,-1.445313 1.160171,-2.140354 0.411322,-5.046484 -1.242188,-6.796875 C 51.524312,39.812089 47.513604,25.811315 46.355469,11.722656 46.011422,7.5373425 42.6558,4.182802 38.490234,3.9960938 c -0.04262,-0.00404 -0.08318,-0.015474 -0.126953,-0.015625 h -0.01367 c -0.05025,-0.00136 -0.09211,-0.028869 -0.142578,-0.029297 -0.08437,-6.969e-4 -0.15117,-9.944e-4 -0.195312,-0.00195 -0.02207,-4.811e-4 -0.03923,-0.00151 -0.04883,-0.00195 -0.0048,-2.218e-4 -0.0069,-9.52e-5 -0.0059,0 5.23e-4,4.76e-5 0.0018,9.394e-4 0.0078,0.00195 0.003,5.082e-4 0.01588,0.00203 0.01563,0.00195 -1.27e-4,-3.72e-5 0.01961,0.00785 0.01953,0.00781 -4.1e-5,-1.87e-5 0.01761,0.00978 0.01758,0.00977 l 0.0098,0.00586 0.0059,0.00586 h -0.02539 a 0.15001496,0.15001496 0 0 0 -0.144531,-0.00195 l -11.919951,-0.02735 h -0.0039 a 0.15001496,0.15001496 0 0 0 -0.002,-0.00195 z M 25.511719,4.25 h 0.365234 l 0.05859,0.00195 12.410156,0.029297 c 0.01096,3.053e-4 0.0203,0.00551 0.03125,0.00586 0.440993,0.00778 0.807615,0.2639471 0.982422,0.6230468 0.06867,0.1431929 0.110252,0.3023325 0.111328,0.46875 v 0.00195 c 3.99e-4,0.083999 -0.0097,0.1694633 -0.0293,0.2558593 l -0.757812,3.3398438 c -0.148884,0.6552593 -0.278674,1.3147891 -0.390625,1.9765621 -0.335852,1.98532 -0.50576,3.995841 -0.50586,6.011719 v 1.777343 a 0.15001496,0.15001496 0 0 0 0,0.002 v 35.333984 c -6.49e-4,3.224496 -2.611441,5.834389 -5.835937,5.833984 h -0.02734 C 28.699333,59.912512 26.08854,57.30262 26.087891,54.078125 V 18.746094 a 0.15001496,0.15001496 0 0 0 0,-0.002 v -1.779297 c 7e-6,-0.672059 -0.0193,-1.343421 -0.05664,-2.013672 -0.112027,-2.010753 -0.391116,-4.010069 -0.835938,-5.9765626 l -0.763671,-3.375 c -0.0187,-0.082342 -0.02499,-0.1639551 -0.02539,-0.2441407 -6.8e-5,-0.021871 0.0027,-0.042845 0.0039,-0.064453 0.0032,-0.05776 0.0076,-0.1145432 0.01953,-0.1699219 0.0061,-0.027885 0.01527,-0.054908 0.02344,-0.082031 0.01299,-0.043504 0.02877,-0.085731 0.04687,-0.1269531 0.01509,-0.03412 0.03239,-0.067321 0.05078,-0.099609 0.01752,-0.030886 0.03627,-0.060842 0.05664,-0.089844 0.02404,-0.034068 0.04846,-0.066502 0.07617,-0.097656 0.01763,-0.019918 0.03759,-0.038024 0.05664,-0.056641 0.03661,-0.035588 0.07386,-0.071207 0.115235,-0.1015625 0.0087,-0.00639 0.01844,-0.011434 0.02734,-0.017578 0.05055,-0.034862 0.103754,-0.067497 0.160157,-0.09375 0.06465,-0.030091 0.132015,-0.054951 0.203125,-0.072266 a 0.15001496,0.15001496 0 0 0 0.002,-0.00195 C 25.332208,4.2611753 25.42032,4.2498188 25.511719,4.25 Z m 13.947265,0.2617187 c 3.526892,0.6357004 6.292235,3.5426911 6.595703,7.2343753 1.161428,14.128727 5.167823,28.185109 12.839844,36.30664 1.569929,1.661914 2.274491,4.454379 1.195313,6.445313 -1.732268,3.195809 -5.9691,3.908094 -8.644532,1.371094 -5.2379,-4.966887 -9.295432,-11.192295 -11.177734,-17.783204 -1.62974,-5.706562 -2.07587,-12.02487 -2.179687,-19.34375 v -1.777343 c 3.2e-5,-0.66637 0.01946,-1.33154 0.05664,-1.996094 0.11154,-1.993661 0.389096,-3.976357 0.832031,-5.9257812 L 39.734375,5.703125 c 0.02488,-0.1096364 0.03621,-0.2211426 0.03516,-0.328125 -2.06e-4,-0.015355 -0.0051,-0.029663 -0.0059,-0.044922 -0.01346,-0.3029926 -0.122838,-0.5899042 -0.304688,-0.8183594 z m -15.074218,0.011719 c -0.232922,0.3148082 -0.341323,0.7232238 -0.246094,1.1425781 l 0.763672,3.375 c 0.58818,2.6002692 0.884793,5.2578632 0.884765,7.9238282 v 1.779297 c -0.103817,7.318877 -0.549947,13.637186 -2.179687,19.34375 -1.85412,6.492226 -5.862371,12.702671 -11.009766,17.667968 C 9.8064634,58.448311 5.5056724,57.594455 3.6347656,54.232422 2.6002216,52.373337 3.36868,49.678069 4.8671875,48.119141 12.579354,40.096007 16.605315,26.156734 17.798828,12.056641 18.116401,8.304866 20.853498,5.2652334 24.384766,4.5234377 Z"
     style="mix-blend-mode:normal;stroke-linejoin:round;filter:url(#filter10);stroke:#000000;stroke-opacity:1;stroke-width:0.33774516;stroke-dasharray:none"
     id="path10"
     transform="matrix(0.88824361,0,0,0.88824361,3.5633303,3.585147)" />
</svg>
