<?xml version="1.0" encoding="UTF-8" standalone="no"?>
<svg
   width="64"
   height="64"
   version="1.1"
   id="svg5"
   sodipodi:docname="abbaye.svg"
   inkscape:version="1.3.2 (091e20ef0f, 2023-11-25, custom)"
   xmlns:inkscape="http://www.inkscape.org/namespaces/inkscape"
   xmlns:sodipodi="http://sodipodi.sourceforge.net/DTD/sodipodi-0.dtd"
   xmlns:xlink="http://www.w3.org/1999/xlink"
   xmlns="http://www.w3.org/2000/svg"
   xmlns:svg="http://www.w3.org/2000/svg">
  <defs
     id="defs5">
    <linearGradient
       id="linearGradient6"
       inkscape:collect="always">
      <stop
         style="stop-color:#fae214;stop-opacity:1;"
         offset="0"
         id="stop7" />
      <stop
         style="stop-color:#faa314;stop-opacity:1;"
         offset="1"
         id="stop8" />
    </linearGradient>
    <linearGradient
       id="linearGradient5"
       inkscape:collect="always">
      <stop
         style="stop-color:#454545;stop-opacity:1;"
         offset="0"
         id="stop5" />
      <stop
         style="stop-color:#272727;stop-opacity:1;"
         offset="1"
         id="stop6" />
    </linearGradient>
    <inkscape:path-effect
       effect="fillet_chamfer"
       id="path-effect5"
       is_visible="true"
       lpeversion="1"
       nodesatellites_param="F,0,0,1,0,0,0,1 @ F,0,1,1,0,5.6835756,0,1 @ F,0,0,1,0,2.2613344,0,1 @ F,0,1,1,0,5.6835756,0,1 @ F,0,0,1,0,0,0,1 @ F,0,0,1,0,0,0,1 @ F,0,1,1,0,5.6835756,0,1 @ F,0,0,1,0,2.2613344,0,1 @ F,0,1,1,0,5.6835756,0,1 @ F,0,0,1,0,0,0,1 @ F,0,0,1,0,0,0,1 @ F,0,1,1,0,5.6835756,0,1 @ F,0,0,1,0,2.2613344,0,1 @ F,0,1,1,0,5.6835756,0,1 @ F,0,0,1,0,0,0,1 @ F,0,0,1,0,0,0,1 @ F,0,1,1,0,5.6835756,0,1 @ F,0,0,1,0,2.2613344,0,1 @ F,0,1,1,0,5.6835756,0,1 @ F,0,0,1,0,0,0,1"
       radius="0"
       unit="px"
       method="auto"
       mode="F"
       chamfer_steps="1"
       flexible="false"
       use_knot_distance="true"
       apply_no_radius="true"
       apply_with_radius="true"
       only_selected="false"
       hide_knots="false" />
    <radialGradient
       inkscape:collect="always"
       xlink:href="#linearGradient5"
       id="radialGradient6"
       cx="32"
       cy="31.971156"
       fx="32"
       fy="31.971156"
       r="28"
       gradientUnits="userSpaceOnUse"
       gradientTransform="matrix(0.91110767,0,0,0.91110767,2.8445549,2.8445549)" />
    <radialGradient
       inkscape:collect="always"
       xlink:href="#linearGradient6"
       id="radialGradient8"
       cx="15.664992"
       cy="48.214108"
       fx="15.664992"
       fy="48.214108"
       r="19.19397"
       gradientUnits="userSpaceOnUse"
       gradientTransform="matrix(2.0428663,0,0,2.0428663,-14.884436,-51.722178)" />
    <filter
       inkscape:collect="always"
       style="color-interpolation-filters:sRGB"
       id="filter9"
       x="-0.12701953"
       y="-0.12701953"
       width="1.2540391"
       height="1.2540391">
      <feGaussianBlur
         inkscape:collect="always"
         stdDeviation="2.7554557"
         id="feGaussianBlur9" />
    </filter>
    <filter
       inkscape:collect="always"
       style="color-interpolation-filters:sRGB"
       id="filter10"
       x="-0.092289103"
       y="-0.092289103"
       width="1.1845782"
       height="1.1845782">
      <feGaussianBlur
         inkscape:collect="always"
         stdDeviation="1.3846981"
         id="feGaussianBlur10" />
    </filter>
  </defs>
  <sodipodi:namedview
     id="namedview5"
     pagecolor="#505050"
     bordercolor="#eeeeee"
     borderopacity="1"
     inkscape:showpageshadow="0"
     inkscape:pageopacity="0"
     inkscape:pagecheckerboard="0"
     inkscape:deskcolor="#505050"
     inkscape:zoom="9.1923882"
     inkscape:cx="24.80313"
     inkscape:cy="29.208949"
     inkscape:window-width="1920"
     inkscape:window-height="1020"
     inkscape:window-x="0"
     inkscape:window-y="0"
     inkscape:window-maximized="1"
     inkscape:current-layer="svg5" />
  <rect
     x="6.4889855"
     y="6.4627056"
     width="51.02203"
     height="51.02203"
     ry="14.397353"
     style="fill:url(#radialGradient6);stroke-width:0.911108"
     id="rect2"
     rx="14.397353" />
  <path
     d="m 20.341485,14.512227 2.900397,2.900397 a 9.9981712,9.9981712 0 0 1 2.928861,7.070252 v 0.03985 a 1.6477376,1.6477376 0 0 1 -1.648018,1.648015 h -0.03985 a 9.9981712,9.9981712 0 0 1 -7.07025,-2.92886 l -2.900396,-2.900398 v 23.317031 l 2.900397,-2.900398 a 9.9981712,9.9981712 0 0 1 7.070252,-2.92886 h 0.03985 a 1.6477376,1.6477376 0 0 1 1.648015,1.648018 v 0.03985 a 9.9981712,9.9981712 0 0 1 -2.92886,7.070252 l -2.900398,2.900394 h 23.317031 l -2.900398,-2.900398 a 9.9981712,9.9981712 0 0 1 -2.92886,-7.070252 v -0.03985 a 1.6477376,1.6477376 0 0 1 1.648018,-1.648015 h 0.03985 a 9.9981712,9.9981712 0 0 1 7.070252,2.92886 l 2.900394,2.900399 V 20.341485 l -2.900398,2.900397 a 9.9981712,9.9981712 0 0 1 -7.070252,2.928861 h -0.03985 a 1.6477376,1.6477376 0 0 1 -1.648014,-1.648018 v -0.03985 a 9.9981712,9.9981712 0 0 1 2.92886,-7.070252 l 2.900398,-2.900394 z"
     style="fill:url(#radialGradient8);stroke-width:0.728657"
     id="path5" />
  <rect
     x="4"
     y="4"
     width="56"
     height="56"
     ry="15.802032"
     style="mix-blend-mode:normal;fill:none;fill-opacity:1;stroke:#000000;stroke-opacity:1;filter:url(#filter9)"
     id="rect2-6"
     rx="15.802032"
     transform="matrix(0.91110767,0,0,0.91110767,2.8445549,2.8445549)" />
  <path
     d="m 19.20402,12.80603 3.183375,3.183375 a 10.973644,10.973644 0 0 1 3.214615,7.760062 v 0.04374 a 1.8084993,1.8084993 0 0 1 -1.808807,1.808804 h -0.04374 a 10.973644,10.973644 0 0 1 -7.76006,-3.214615 L 12.80603,19.20402 v 25.59196 l 3.183375,-3.183375 a 10.973644,10.973644 0 0 1 7.760062,-3.214615 h 0.04374 a 1.8084993,1.8084993 0 0 1 1.808804,1.808807 v 0.04374 a 10.973644,10.973644 0 0 1 -3.214615,7.760062 L 19.20402,51.19397 H 44.79598 L 41.612605,48.010595 A 10.973644,10.973644 0 0 1 38.39799,40.250533 v -0.04374 a 1.8084993,1.8084993 0 0 1 1.808807,-1.808804 h 0.04374 a 10.973644,10.973644 0 0 1 7.760062,3.214615 L 51.19397,44.79598 V 19.20402 l -3.183375,3.183375 a 10.973644,10.973644 0 0 1 -7.760062,3.214615 h -0.04374 A 1.8084993,1.8084993 0 0 1 38.39799,23.793203 v -0.04374 a 10.973644,10.973644 0 0 1 3.214615,-7.760062 L 44.79598,12.80603 Z"
     style="mix-blend-mode:normal;fill:none;stroke:#ff1400;stroke-width:0.43902595;stroke-dasharray:none;stroke-opacity:1;filter:url(#filter10)"
     id="path5-2"
     transform="matrix(0.91110767,0,0,0.91110767,2.8445549,2.8445549)" />
</svg>
