<?xml version="1.0" encoding="UTF-8" standalone="no"?>
<svg
   width="64"
   height="64"
   version="1"
   id="svg12"
   sodipodi:docname="accessories-safe.svg"
   inkscape:version="1.3.2 (091e20ef0f, 2023-11-25, custom)"
   xmlns:inkscape="http://www.inkscape.org/namespaces/inkscape"
   xmlns:sodipodi="http://sodipodi.sourceforge.net/DTD/sodipodi-0.dtd"
   xmlns:xlink="http://www.w3.org/1999/xlink"
   xmlns="http://www.w3.org/2000/svg"
   xmlns:svg="http://www.w3.org/2000/svg">
  <defs
     id="defs12">
    <linearGradient
       id="linearGradient21"
       inkscape:collect="always">
      <stop
         style="stop-color:#8e8e8e;stop-opacity:1;"
         offset="0"
         id="stop21" />
      <stop
         style="stop-color:#6c6c6c;stop-opacity:1;"
         offset="1"
         id="stop22" />
    </linearGradient>
    <linearGradient
       id="linearGradient15"
       inkscape:collect="always">
      <stop
         style="stop-color:#656565;stop-opacity:1;"
         offset="0"
         id="stop16" />
      <stop
         style="stop-color:#333333;stop-opacity:1;"
         offset="1"
         id="stop17" />
    </linearGradient>
    <linearGradient
       id="linearGradient14"
       inkscape:collect="always">
      <stop
         style="stop-color:#ffffff;stop-opacity:1;"
         offset="0"
         id="stop14" />
      <stop
         style="stop-color:#bababa;stop-opacity:1;"
         offset="1"
         id="stop15" />
    </linearGradient>
    <inkscape:path-effect
       effect="fillet_chamfer"
       id="path-effect14"
       is_visible="true"
       lpeversion="1"
       nodesatellites_param="F,0,1,1,0,0.64517889,0,1 @ F,0,0,1,0,0.64517889,0,1 @ F,0,1,1,0,0.64517889,0,1 @ F,0,1,1,0,0.64517889,0,1 | F,0,1,1,0,0.64517889,0,1 @ F,0,1,1,0,0.64517889,0,1 @ F,0,1,1,0,0.64517889,0,1 @ F,0,1,1,0,0.64517889,0,1 | F,0,1,1,0,0.64517889,0,1 @ F,0,1,1,0,0.64517889,0,1 @ F,0,1,1,0,0.64517889,0,1 @ F,0,1,1,0,0.64517889,0,1 | F,0,1,1,0,0.64517889,0,1 @ F,0,1,1,0,0.64517889,0,1 @ F,0,1,1,0,0.64517889,0,1 @ F,0,1,1,0,0.64517889,0,1 | F,0,1,1,0,0.64517889,0,1 @ F,0,1,1,0,0.64517889,0,1 @ F,0,1,1,0,0.64517889,0,1 @ F,0,1,1,0,0.64517889,0,1 | F,0,1,1,0,0.64517889,0,1 @ F,0,1,1,0,0.64517889,0,1 @ F,0,1,1,0,0.64517889,0,1 @ F,0,1,1,0,0.64517889,0,1 | F,0,1,1,0,0.64517889,0,1 @ F,0,1,1,0,0.64517889,0,1 @ F,0,1,1,0,0.64517889,0,1 @ F,0,1,1,0,0.64517889,0,1 | F,0,1,1,0,0.64517889,0,1 @ F,0,1,1,0,0.64517889,0,1 @ F,0,1,1,0,0.64517889,0,1 @ F,0,1,1,0,0.64517889,0,1 | F,0,1,1,0,0.64517889,0,1 @ F,0,1,1,0,0.64517889,0,1 @ F,0,1,1,0,0.64517889,0,1 @ F,0,1,1,0,0.64517889,0,1 | F,0,1,1,0,0.64517889,0,1 @ F,0,1,1,0,0.64517889,0,1 @ F,0,1,1,0,0.64517889,0,1 @ F,0,1,1,0,0.64517889,0,1 | F,0,1,1,0,0.64517889,0,1 @ F,0,1,1,0,0.64517889,0,1 @ F,0,1,1,0,0.64517889,0,1 @ F,0,1,1,0,0.64517889,0,1 | F,0,1,1,0,0.64517889,0,1 @ F,0,1,1,0,0.64517889,0,1 @ F,0,1,1,0,0.64517889,0,1 @ F,0,1,1,0,0.64517889,0,1"
       radius="0"
       unit="px"
       method="auto"
       mode="F"
       chamfer_steps="1"
       flexible="false"
       use_knot_distance="true"
       apply_no_radius="true"
       apply_with_radius="true"
       only_selected="false"
       hide_knots="false" />
    <inkscape:path-effect
       effect="fillet_chamfer"
       id="path-effect13"
       is_visible="true"
       lpeversion="1"
       nodesatellites_param="F,0,0,1,0,12.345786,0,1 @ F,0,1,1,0,12.345786,0,1 @ F,0,1,1,0,12.345786,0,1 @ F,0,1,1,0,12.345786,0,1"
       radius="0"
       unit="px"
       method="auto"
       mode="F"
       chamfer_steps="1"
       flexible="false"
       use_knot_distance="true"
       apply_no_radius="true"
       apply_with_radius="true"
       only_selected="false"
       hide_knots="false" />
    <inkscape:path-effect
       effect="fillet_chamfer"
       id="path-effect12"
       is_visible="true"
       lpeversion="1"
       nodesatellites_param="F,0,0,1,0,6.1569299,0,1 @ F,0,1,1,0,6.1569299,0,1 @ F,0,1,1,0,6.1569299,0,1 @ F,0,1,1,0,6.1569299,0,1"
       radius="0"
       unit="px"
       method="auto"
       mode="F"
       chamfer_steps="1"
       flexible="false"
       use_knot_distance="true"
       apply_no_radius="true"
       apply_with_radius="true"
       only_selected="false"
       hide_knots="false" />
    <radialGradient
       inkscape:collect="always"
       xlink:href="#linearGradient14"
       id="radialGradient15"
       cx="13.839114"
       cy="17.701128"
       fx="13.839114"
       fy="17.701128"
       r="22"
       gradientUnits="userSpaceOnUse"
       gradientTransform="matrix(1.5325311,1.5325311,-1.5325311,1.5325311,19.75777,-30.635274)" />
    <radialGradient
       inkscape:collect="always"
       xlink:href="#linearGradient15"
       id="radialGradient17"
       cx="10.575363"
       cy="53.626259"
       fx="10.575363"
       fy="53.626259"
       r="28"
       gradientUnits="userSpaceOnUse"
       gradientTransform="matrix(2.0073051,-1.1589182,1.1589182,2.0073051,-72.801064,-41.762025)" />
    <radialGradient
       inkscape:collect="always"
       xlink:href="#linearGradient21"
       id="radialGradient22"
       cx="9.6990471"
       cy="33.440598"
       fx="9.6990471"
       fy="33.440598"
       r="18.511719"
       gradientTransform="matrix(1.0011542,1.0011542,-0.94279818,0.94279818,33.66203,-8.2598028)"
       gradientUnits="userSpaceOnUse" />
    <inkscape:path-effect
       effect="fillet_chamfer"
       id="path-effect12-6"
       is_visible="true"
       lpeversion="1"
       nodesatellites_param="F,0,0,1,0,6.1569299,0,1 @ F,0,1,1,0,6.1569299,0,1 @ F,0,1,1,0,6.1569299,0,1 @ F,0,1,1,0,6.1569299,0,1"
       radius="0"
       unit="px"
       method="auto"
       mode="F"
       chamfer_steps="1"
       flexible="false"
       use_knot_distance="true"
       apply_no_radius="true"
       apply_with_radius="true"
       only_selected="false"
       hide_knots="false" />
    <inkscape:path-effect
       effect="fillet_chamfer"
       id="path-effect13-2"
       is_visible="true"
       lpeversion="1"
       nodesatellites_param="F,0,0,1,0,12.345786,0,1 @ F,0,1,1,0,12.345786,0,1 @ F,0,1,1,0,12.345786,0,1 @ F,0,1,1,0,12.345786,0,1"
       radius="0"
       unit="px"
       method="auto"
       mode="F"
       chamfer_steps="1"
       flexible="false"
       use_knot_distance="true"
       apply_no_radius="true"
       apply_with_radius="true"
       only_selected="false"
       hide_knots="false" />
    <filter
       inkscape:collect="always"
       style="color-interpolation-filters:sRGB"
       id="filter23"
       x="-0.092347691"
       y="-0.092347691"
       width="1.1846954"
       height="1.1846954">
      <feGaussianBlur
         inkscape:collect="always"
         stdDeviation="1.5888743"
         id="feGaussianBlur23" />
    </filter>
    <filter
       inkscape:collect="always"
       style="color-interpolation-filters:sRGB"
       id="filter24"
       x="-0.068179078"
       y="-0.089793832"
       width="1.1363582"
       height="1.1795877">
      <feGaussianBlur
         inkscape:collect="always"
         stdDeviation="0.94759325"
         id="feGaussianBlur24" />
    </filter>
    <filter
       inkscape:collect="always"
       style="color-interpolation-filters:sRGB"
       id="filter25"
       x="-0.13118673"
       y="-0.13118673"
       width="1.2623735"
       height="1.2623735">
      <feGaussianBlur
         inkscape:collect="always"
         stdDeviation="2.956857"
         id="feGaussianBlur25" />
    </filter>
  </defs>
  <sodipodi:namedview
     id="namedview12"
     pagecolor="#505050"
     bordercolor="#eeeeee"
     borderopacity="1"
     inkscape:showpageshadow="0"
     inkscape:pageopacity="0"
     inkscape:pagecheckerboard="0"
     inkscape:deskcolor="#505050"
     showguides="false"
     inkscape:zoom="9.534893"
     inkscape:cx="25.223146"
     inkscape:cy="34.032894"
     inkscape:window-width="1920"
     inkscape:window-height="1020"
     inkscape:window-x="0"
     inkscape:window-y="0"
     inkscape:window-maximized="1"
     inkscape:current-layer="svg12" />
  <path
     id="rect2"
     style="fill:url(#radialGradient17)"
     d="M 16.345786,4 H 47.654214 A 12.345786,12.345786 45 0 1 60,16.345786 V 47.654214 A 12.345786,12.345786 135 0 1 47.654214,60 H 16.345786 A 12.345786,12.345786 45 0 1 4,47.654214 V 16.345786 A 12.345786,12.345786 135 0 1 16.345786,4 Z"
     inkscape:path-effect="#path-effect13"
     inkscape:original-d="M 4,4 H 60 V 60 H 4 Z"
     transform="matrix(0.90343974,0,0,0.90343974,3.0820335,3.0920043)" />
  <path
     id="rect4"
     style="fill:url(#radialGradient15)"
     d="M 16.15693,10 H 47.84307 A 6.1569299,6.1569299 45 0 1 54,16.15693 V 47.84307 A 6.1569299,6.1569299 135 0 1 47.84307,54 H 16.15693 A 6.1569299,6.1569299 45 0 1 10,47.84307 V 16.15693 A 6.1569299,6.1569299 135 0 1 16.15693,10 Z"
     inkscape:path-effect="#path-effect12"
     inkscape:original-d="M 10,10 H 54 V 54 H 10 Z"
     transform="matrix(0.90343974,0,0,0.90343974,3.0820335,3.0920043)" />
  <path
     id="circle5"
     style="fill:url(#radialGradient22);stroke-width:0.90344"
     d="m 10.740097,19.253341 c -0.7507571,0 -1.3551597,0.554037 -1.3551597,1.24223 v 7.453378 c 0,0.688193 0.6044026,1.24223 1.3551597,1.24223 h 2.710319 c 0.750758,0 1.35516,-0.554037 1.355159,-1.24223 v -7.453378 c 0,-0.688193 -0.604401,-1.24223 -1.355159,-1.24223 z m 21.252008,1.907458 A 10.841277,10.841277 0 0 0 21.150828,32.002076 10.841277,10.841277 0 0 0 31.992105,42.843353 10.841277,10.841277 0 0 0 42.833382,32.002076 10.841277,10.841277 0 0 0 31.992105,21.160799 Z m 0,6.294081 a 4.5171987,4.5171987 0 0 1 4.517199,4.517199 4.5171987,4.5171987 0 0 1 -4.517199,4.517199 4.5171987,4.5171987 0 0 1 -4.517199,-4.517199 4.5171987,4.5171987 0 0 1 4.517199,-4.517199 z m -21.230834,7.257515 c -0.750757,0 -1.3551593,0.554036 -1.3551593,1.24223 v 7.453378 c 0,0.688193 0.6044023,1.242229 1.3551593,1.242229 h 2.710319 c 0.750757,0 1.35516,-0.554036 1.35516,-1.242229 v -7.453378 c 0,-0.688194 -0.604403,-1.24223 -1.35516,-1.24223 z" />
  <path
     id="rect2-7"
     style="mix-blend-mode:normal;fill:none;stroke:#000000;stroke-width:0.5;stroke-dasharray:none;stroke-opacity:1;filter:url(#filter25)"
     d="M 16.345786,4 H 47.654214 A 12.345786,12.345786 45 0 1 60,16.345786 V 47.654214 A 12.345786,12.345786 135 0 1 47.654214,60 H 16.345786 A 12.345786,12.345786 45 0 1 4,47.654214 V 16.345786 A 12.345786,12.345786 135 0 1 16.345786,4 Z"
     inkscape:path-effect="#path-effect13-2"
     inkscape:original-d="M 4,4 H 60 V 60 H 4 Z"
     transform="matrix(0.90343974,0,0,0.90343974,3.0081685,3.1114284)" />
  <path
     d="m 16.074219,10.021484 c -3.399844,3.76e-4 -6.1558748,2.756406 -6.1562502,6.15625 v 1.732422 h 1.4765622 c 0.830999,0 1.5,0.613254 1.5,1.375 v 8.25 c 10e-7,0.761747 -0.669001,1.375 -1.5,1.375 H 9.9179688 v 6.111328 h 1.5000002 c 0.830996,0 1.5,0.613254 1.5,1.375 v 8.25 c 0,0.761747 -0.669004,1.375 -1.5,1.375 H 9.9179688 v 1.84375 c 3.754e-4,3.399844 2.7564062,6.155875 6.1562502,6.15625 h 31.6875 c 3.399844,-3.75e-4 6.155874,-2.756406 6.15625,-6.15625 v -31.6875 c -3.76e-4,-3.399844 -2.756406,-6.155874 -6.15625,-6.15625 z m 15.84375,10 c 6.62741,0 12,5.37259 12,12 0,6.627411 -5.37259,12 -12,12 -6.627411,0 -12,-5.372589 -12,-12 0,-6.62741 5.372589,-12 12,-12 z m 0,6.966797 c -2.761421,0 -5,2.238579 -5,5 0,2.761421 2.238579,5 5,5 2.761421,0 5,-2.238579 5,-5 0,-2.761421 -2.238579,-5 -5,-5 z"
     style="mix-blend-mode:normal;fill:none;stroke:#000000;stroke-width:0.5;filter:url(#filter23)"
     id="path23"
     transform="matrix(0.90343974,0,0,0.90343974,3.0820335,3.0920043)" />
  <path
     d="m 8.3945313,17.910156 c -0.8309972,0 -1.5,0.613253 -1.5000001,1.375 v 8.25 c 0,0.761747 0.6690029,1.375 1.5000001,1.375 h 2.9999997 c 0.830999,0 1.500001,-0.613253 1.5,-1.375 v -8.25 c 0,-0.761747 -0.669001,-1.375 -1.5,-1.375 z m 23.5234377,2.111328 a 12,12 0 0 0 -12,12 12,12 0 0 0 12,12 12,12 0 0 0 12,-12 12,12 0 0 0 -12,-12 z m 0,6.966797 a 5,5 0 0 1 5,5 5,5 0 0 1 -5,5 5,5 0 0 1 -5,-5 5,5 0 0 1 5,-5 z M 8.4179688,35.021484 c -0.8309972,0 -1.5,0.613253 -1.5000001,1.375 v 8.25 c 0,0.761748 0.6690029,1.375 1.5000001,1.375 h 3.0000002 c 0.830997,0 1.5,-0.613252 1.5,-1.375 v -8.25 c 0,-0.761747 -0.669003,-1.375 -1.5,-1.375 z"
     style="opacity:0.65124;fill:none;stroke:#000000;stroke-width:0.5;filter:url(#filter24)"
     id="path22"
     transform="matrix(0.90343974,0,0,0.90343974,3.0820335,3.0920043)" />
  <path
     style="opacity:0.2"
     d="m 34.294892,20.859538 -1.046399,3.905215 a 0.64517916,0.64517916 59.999998 0 0 0.456211,0.79018 l 0.04151,0.01112 a 0.64517888,0.64517888 150.00001 0 0 0.79018,-0.45621 l 1.046399,-3.905214 a 0.64517912,0.64517912 60.000019 0 0 -0.45621,-0.79018 l -0.04151,-0.01112 a 0.6451784,0.6451784 150.00001 0 0 -0.790179,0.45621 z m -5.379076,-0.457263 -0.04281,0.01144 a 0.6448642,0.6448642 120.0193 0 0 -0.456365,0.789833 l 1.046257,3.906141 a 0.64549339,0.64549339 30.01929 0 0 0.790219,0.456587 l 0.04281,-0.01144 a 0.6448644,0.6448644 120.01928 0 0 0.456365,-0.789833 l -1.046258,-3.90614 a 0.64549388,0.64549388 30.019298 0 0 -0.790219,-0.456587 z m 10.641383,3.096198 -2.859158,2.859688 a 0.64486352,0.64486352 89.980677 0 0 3.08e-4,0.912198 l 0.03135,0.03132 a 0.64549433,0.64549433 179.98067 0 0 0.912644,-3.08e-4 l 2.859156,-2.859687 a 0.64486463,0.64486463 89.980718 0 0 -3.07e-4,-0.912199 l -0.03135,-0.03132 a 0.64549338,0.64549338 179.98072 0 0 -0.912643,3.07e-4 z m -16.027716,3.29e-4 -0.03132,0.03135 a 0.64549338,0.64549338 89.980722 0 0 3.07e-4,0.912643 l 2.859688,2.859158 a 0.64486352,0.64486352 179.98068 0 0 0.912198,-3.08e-4 l 0.03132,-0.03135 a 0.64549433,0.64549433 89.980673 0 0 -3.08e-4,-0.912644 l -2.859687,-2.859156 a 0.64486463,0.64486463 179.98072 0 0 -0.912199,3.07e-4 z m 19.266964,4.917837 -3.906141,1.046258 a 0.64549351,0.64549351 120.01928 0 0 -0.456587,0.790219 l 0.01144,0.04281 a 0.6448644,0.6448644 30.019283 0 0 0.789833,0.456365 l 3.90614,-1.046258 a 0.645494,0.645494 120.0193 0 0 0.456588,-0.790219 l -0.01145,-0.04281 a 0.64486396,0.64486396 30.019305 0 0 -0.789832,-0.456365 z m -22.381997,0.456777 -0.01112,0.04151 a 0.6451784,0.6451784 60.000007 0 0 0.45621,0.790179 l 3.905215,1.046399 a 0.64517963,0.64517963 150.00002 0 0 0.79018,-0.456211 l 0.01112,-0.04151 a 0.64517838,0.64517838 60.000029 0 0 -0.45621,-0.79018 L 21.20463,28.417206 a 0.64517915,0.64517915 150.00002 0 0 -0.79018,0.45621 z m 18.030617,4.831289 -0.01112,0.04151 a 0.64517938,0.64517938 59.99999 0 0 0.456211,0.79018 l 3.905213,1.046399 a 0.64517908,0.64517908 150.00002 0 0 0.79018,-0.45621 l 0.01112,-0.04151 a 0.6451784,0.6451784 60.000007 0 0 -0.45621,-0.790179 l -3.905215,-1.046399 a 0.6451787,0.6451787 149.99998 0 0 -0.790179,0.456211 z m -13.680066,-0.456999 -3.90614,1.046258 a 0.64549354,0.64549354 120.01928 0 0 -0.456587,0.790219 l 0.01145,0.04281 a 0.6448644,0.6448644 30.019283 0 0 0.789833,0.456365 l 3.90614,-1.046258 a 0.64549354,0.64549354 120.01928 0 0 0.456587,-0.790219 l -0.01145,-0.04281 a 0.6448644,0.6448644 30.019283 0 0 -0.789833,-0.456365 z m 11.96464,3.450643 -0.03132,0.03136 a 0.64549398,0.64549398 89.980688 0 0 3.08e-4,0.912643 l 2.859687,2.859156 a 0.64486463,0.64486463 179.98072 0 0 0.912199,-3.07e-4 l 0.03132,-0.03136 A 0.64549347,0.64549347 89.980726 0 0 40.501526,39.5572 l -2.859687,-2.859158 a 0.64486378,0.64486378 179.9807 0 0 -0.912198,3.07e-4 z m -10.371991,2.81e-4 -2.859156,2.859687 a 0.64486463,0.64486463 89.980718 0 0 3.07e-4,0.912199 l 0.03136,0.03132 a 0.64549338,0.64549338 179.98072 0 0 0.912643,-3.07e-4 l 2.859158,-2.859688 a 0.64486352,0.64486352 89.980677 0 0 -3.08e-4,-0.912198 l -0.03136,-0.03132 a 0.64549433,0.64549433 179.98067 0 0 -0.912644,3.08e-4 z m 7.389233,1.73509 -0.04281,0.01145 a 0.6448644,0.6448644 120.01928 0 0 -0.456365,0.789833 l 1.046258,3.90614 a 0.645494,0.645494 30.019304 0 0 0.790219,0.456588 l 0.04281,-0.01145 A 0.64486396,0.64486396 120.01931 0 0 35.58336,42.796448 L 34.537102,38.890307 A 0.64549351,0.64549351 30.019284 0 0 33.746883,38.43372 Z m -4.283279,0.456435 -1.046399,3.905214 a 0.64517912,0.64517912 60.000019 0 0 0.45621,0.79018 l 0.04151,0.01112 a 0.64517852,0.64517852 150.00001 0 0 0.79018,-0.45621 l 1.046398,-3.905215 a 0.64517892,0.64517892 59.999997 0 0 -0.45621,-0.79018 l -0.04151,-0.01112 a 0.64517901,0.64517901 150 0 0 -0.79018,0.45621 z"
     id="path7"
     inkscape:path-effect="#path-effect14"
     inkscape:original-d="m 34.461876,20.236343 -1.380367,5.151605 1.2879,0.345092 1.380369,-5.151604 z m -4.922768,-6.91e-4 -1.289396,0.34469 1.380111,5.152561 1.289397,-0.344691 z m 10.474259,2.806568 -3.771494,3.772194 0.944307,0.943209 3.771492,-3.772193 z m -16.027938,1.07e-4 -0.94321,0.944305 3.772194,3.771494 0.943209,-0.944307 z m 19.434228,5.207385 -5.152561,1.380112 0.344691,1.289397 5.15256,-1.380112 z m -22.838222,5.09e-4 -0.345093,1.287902 5.151605,1.380367 0.345093,-1.2879 z m 18.030616,4.831289 -0.345091,1.2879 5.151603,1.380369 0.345093,-1.287902 z m -13.22384,-7.31e-4 -5.15256,1.380112 0.344691,1.289397 5.15256,-1.380112 z m 11.797375,3.161095 -0.94321,0.944307 3.772193,3.771492 0.94321,-0.944305 z m -10.371768,5.03e-4 -3.771492,3.772193 0.944305,0.94321 3.771494,-3.772194 z m 7.556357,2.02472 -1.289397,0.344691 1.380112,5.15256 1.289397,-0.34469 z m -4.739586,-1.37e-4 -1.380369,5.151604 1.287902,0.345093 1.380368,-5.151605 z"
     transform="matrix(0.90343974,0,0,0.90343974,3.0820335,3.0920043)" />
</svg>
