<?xml version="1.0" encoding="UTF-8" standalone="no"?>
<svg
   width="64"
   height="64"
   version="1"
   id="svg6"
   sodipodi:docname="accerciser.svg"
   inkscape:version="1.3.2 (091e20ef0f, 2023-11-25, custom)"
   xmlns:inkscape="http://www.inkscape.org/namespaces/inkscape"
   xmlns:sodipodi="http://sodipodi.sourceforge.net/DTD/sodipodi-0.dtd"
   xmlns:xlink="http://www.w3.org/1999/xlink"
   xmlns="http://www.w3.org/2000/svg"
   xmlns:svg="http://www.w3.org/2000/svg">
  <defs
     id="defs6">
    <linearGradient
       id="linearGradient12"
       inkscape:collect="always">
      <stop
         style="stop-color:#e9af7d;stop-opacity:1;"
         offset="0"
         id="stop13" />
      <stop
         style="stop-color:#cd756e;stop-opacity:1;"
         offset="1"
         id="stop14" />
    </linearGradient>
    <linearGradient
       id="linearGradient11"
       inkscape:collect="always">
      <stop
         style="stop-color:#ed8b27;stop-opacity:1;"
         offset="0"
         id="stop11" />
      <stop
         style="stop-color:#df473b;stop-opacity:1;"
         offset="1"
         id="stop12" />
    </linearGradient>
    <inkscape:path-effect
       effect="fillet_chamfer"
       id="path-effect11"
       is_visible="true"
       lpeversion="1"
       nodesatellites_param="F,0,0,1,0,2.9154825,0,1 @ F,0,1,1,0,2.9154825,0,1 @ F,0,1,1,0,2.9154825,0,1 @ F,0,1,1,0,2.9154825,0,1 | F,0,1,1,0,2.9154825,0,1 @ F,0,1,1,0,2.9154825,0,1 @ F,0,1,1,0,2.9154825,0,1 @ F,0,1,1,0,2.9154825,0,1"
       radius="0"
       unit="px"
       method="auto"
       mode="F"
       chamfer_steps="1"
       flexible="false"
       use_knot_distance="true"
       apply_no_radius="true"
       apply_with_radius="true"
       only_selected="false"
       hide_knots="false" />
    <inkscape:path-effect
       effect="fillet_chamfer"
       id="path-effect10"
       is_visible="true"
       lpeversion="1"
       nodesatellites_param="F,0,0,1,0,6.9024574,0,1 @ F,0,1,1,0,6.9024574,0,1 @ F,0,1,1,0,6.9024574,0,1 @ F,0,1,1,0,6.9024574,0,1 | F,0,1,1,0,6.9024574,0,1 @ F,0,1,1,0,6.9024574,0,1 @ F,0,1,1,0,6.9024574,0,1 @ F,0,1,1,0,6.9024574,0,1"
       radius="0"
       unit="px"
       method="auto"
       mode="F"
       chamfer_steps="1"
       flexible="false"
       use_knot_distance="true"
       apply_no_radius="true"
       apply_with_radius="true"
       only_selected="false"
       hide_knots="false" />
    <inkscape:path-effect
       effect="fillet_chamfer"
       id="path-effect9"
       is_visible="true"
       lpeversion="1"
       nodesatellites_param="F,0,0,1,0,0,0,1 @ F,0,0,1,0,0,0,1 @ F,0,0,1,0,0,0,1 @ F,0,0,1,0,0,0,1"
       radius="0"
       unit="px"
       method="auto"
       mode="F"
       chamfer_steps="1"
       flexible="false"
       use_knot_distance="true"
       apply_no_radius="true"
       apply_with_radius="true"
       only_selected="false"
       hide_knots="false" />
    <inkscape:path-effect
       effect="fillet_chamfer"
       id="path-effect8"
       is_visible="true"
       lpeversion="1"
       nodesatellites_param="F,0,0,1,0,6.9417666,0,1 @ F,0,1,1,0,6.9417666,0,1 @ F,0,1,1,0,6.9417666,0,1 @ F,0,1,1,0,6.9417666,0,1"
       radius="0"
       unit="px"
       method="auto"
       mode="F"
       chamfer_steps="1"
       flexible="false"
       use_knot_distance="true"
       apply_no_radius="true"
       apply_with_radius="true"
       only_selected="false"
       hide_knots="false" />
    <inkscape:path-effect
       effect="fillet_chamfer"
       id="path-effect7"
       is_visible="true"
       lpeversion="1"
       nodesatellites_param="F,0,1,1,0,7.1343787,0,1 @ F,0,1,1,0,7.1343787,0,1 @ F,0,0,1,0,7.1343787,0,1 @ F,0,1,1,0,7.1343787,0,1"
       radius="0"
       unit="px"
       method="auto"
       mode="F"
       chamfer_steps="1"
       flexible="false"
       use_knot_distance="true"
       apply_no_radius="true"
       apply_with_radius="true"
       only_selected="false"
       hide_knots="false" />
    <linearGradient
       id="linearGradient6"
       inkscape:collect="always">
      <stop
         style="stop-color:#67c2ea;stop-opacity:1;"
         offset="0"
         id="stop6" />
      <stop
         style="stop-color:#5e90e8;stop-opacity:1;"
         offset="1"
         id="stop7" />
    </linearGradient>
    <radialGradient
       inkscape:collect="always"
       xlink:href="#linearGradient6"
       id="radialGradient7"
       cx="4.9504375"
       cy="51.109062"
       fx="4.9504375"
       fy="51.109062"
       r="30"
       gradientTransform="matrix(1.672778,0,0,1.4346083,-0.40931167,-38.071144)"
       gradientUnits="userSpaceOnUse" />
    <radialGradient
       inkscape:collect="always"
       xlink:href="#linearGradient11"
       id="radialGradient12"
       cx="-43.865131"
       cy="-17.902382"
       fx="-43.865131"
       fy="-17.902384"
       r="28"
       gradientTransform="matrix(1.0028896,1.0028896,-0.78798475,0.78798475,-25.123044,25.307979)"
       gradientUnits="userSpaceOnUse" />
    <radialGradient
       inkscape:collect="always"
       xlink:href="#linearGradient12"
       id="radialGradient14"
       cx="-44.796535"
       cy="-27.13348"
       fx="-44.796535"
       fy="-27.13348"
       r="20"
       gradientTransform="matrix(1.4040453,1.4040454,-1.1031786,1.1031785,-22.044832,60.038733)"
       gradientUnits="userSpaceOnUse" />
    <inkscape:path-effect
       effect="fillet_chamfer"
       id="path-effect11-5"
       is_visible="true"
       lpeversion="1"
       nodesatellites_param="F,0,0,1,0,2.9154825,0,1 @ F,0,1,1,0,2.9154825,0,1 @ F,0,1,1,0,2.9154825,0,1 @ F,0,1,1,0,2.9154825,0,1 | F,0,1,1,0,2.9154825,0,1 @ F,0,1,1,0,2.9154825,0,1 @ F,0,1,1,0,2.9154825,0,1 @ F,0,1,1,0,2.9154825,0,1"
       radius="0"
       unit="px"
       method="auto"
       mode="F"
       chamfer_steps="1"
       flexible="false"
       use_knot_distance="true"
       apply_no_radius="true"
       apply_with_radius="true"
       only_selected="false"
       hide_knots="false" />
    <inkscape:path-effect
       effect="fillet_chamfer"
       id="path-effect10-2"
       is_visible="true"
       lpeversion="1"
       nodesatellites_param="F,0,0,1,0,6.9024574,0,1 @ F,0,1,1,0,6.9024574,0,1 @ F,0,1,1,0,6.9024574,0,1 @ F,0,1,1,0,6.9024574,0,1 | F,0,1,1,0,6.9024574,0,1 @ F,0,1,1,0,6.9024574,0,1 @ F,0,1,1,0,6.9024574,0,1 @ F,0,1,1,0,6.9024574,0,1"
       radius="0"
       unit="px"
       method="auto"
       mode="F"
       chamfer_steps="1"
       flexible="false"
       use_knot_distance="true"
       apply_no_radius="true"
       apply_with_radius="true"
       only_selected="false"
       hide_knots="false" />
    <filter
       inkscape:collect="always"
       style="color-interpolation-filters:sRGB"
       id="filter20"
       x="-0.098251964"
       y="-0.11975497"
       width="1.1965039"
       height="1.2395099">
      <feGaussianBlur
         inkscape:collect="always"
         stdDeviation="2.4767683"
         id="feGaussianBlur20" />
    </filter>
  </defs>
  <sodipodi:namedview
     id="namedview6"
     pagecolor="#505050"
     bordercolor="#eeeeee"
     borderopacity="1"
     inkscape:showpageshadow="0"
     inkscape:pageopacity="0"
     inkscape:pagecheckerboard="0"
     inkscape:deskcolor="#505050"
     inkscape:zoom="9.269728"
     inkscape:cx="28.587678"
     inkscape:cy="28.857373"
     inkscape:window-width="1920"
     inkscape:window-height="1020"
     inkscape:window-x="0"
     inkscape:window-y="0"
     inkscape:window-maximized="1"
     inkscape:current-layer="svg6" />
  <rect
     style="fill:url(#radialGradient7);stroke-width:0.871106"
     width="52.266369"
     height="10.453274"
     x="5.8668156"
     y="26.773363"
     rx="3.4844246"
     ry="3.4844246"
     id="rect2" />
  <path
     id="rect3"
     style="fill:url(#radialGradient12)"
     d="M -10.902457,-10 H -53.097543 A 6.9024574,6.9024574 45 0 1 -60,-16.902457 v -0.195086 A 6.9024574,6.9024574 135 0 1 -53.097543,-24 h 42.195086 A 6.9024574,6.9024574 45 0 1 -4,-17.097543 v 0.195086 A 6.9024574,6.9024574 135 0 1 -10.902457,-10 Z m 0,-30 H -53.097543 A 6.9024574,6.9024574 45 0 1 -60,-46.902457 v -0.195086 A 6.9024574,6.9024574 135 0 1 -53.097543,-54 h 42.195086 A 6.9024574,6.9024574 45 0 1 -4,-47.097543 v 0.195086 A 6.9024574,6.9024574 135 0 1 -10.902457,-40 Z"
     transform="matrix(0,-0.76432265,-0.76432265,0,7.5416749,7.5416753)"
     inkscape:path-effect="#path-effect10"
     inkscape:original-d="m -4,-10 h -56 v -14 h 56 z m 0,-30 h -56 v -14 h 56 z" />
  <path
     id="rect5"
     style="fill:url(#radialGradient14)"
     d="M -14.915483,-4 H -49.084517 A 2.9154825,2.9154825 45 0 1 -52,-6.9154825 v -0.169035 A 2.9154825,2.9154825 135 0 1 -49.084518,-10 l 34.169035,0 A 2.9154825,2.9154825 45 0 1 -12,-7.0845175 v 0.169035 A 2.9154825,2.9154825 135 0 1 -14.915483,-4 Z m 0,-50 H -49.084517 A 2.9154825,2.9154825 45 0 1 -52,-56.915483 v -0.169035 A 2.9154825,2.9154825 135 0 1 -49.084518,-60 h 34.169035 A 2.9154825,2.9154825 45 0 1 -12,-57.084518 v 0.169036 A 2.9154825,2.9154825 135 0 1 -14.915483,-54 Z"
     transform="matrix(0,-0.75252579,-0.75252579,0,7.9191743,7.9191747)"
     inkscape:path-effect="#path-effect11"
     inkscape:original-d="m -12,-4 h -40 v -6 h 40 z m 0,-50 h -40 v -6 h 40 z" />
  <path
     id="path19"
     style="color:#000000;mix-blend-mode:normal;fill:#000000;-inkscape-stroke:none;filter:url(#filter20)"
     d="m 18.753906,7.1816406 c -3.480163,-1.795e-4 -6.30682,2.8264774 -6.30664,6.3066404 v 1.929688 c -0.507398,-0.733111 -1.35183,-1.216985 -2.308594,-1.216797 H 9.9902344 c -1.548329,-3.04e-4 -2.8088979,1.260264 -2.8085938,2.808594 V 25.75 H 6 c -2.3501633,0 -4.25,1.899836 -4.25,4.25 v 4 c 0,2.350164 1.8998367,4.25 4.25,4.25 h 1.1816406 v 8.740234 c -3.041e-4,1.54833 1.2602648,2.808898 2.8085938,2.808594 h 0.1484376 c 0.956764,1.88e-4 1.801196,-0.483686 2.308594,-1.216797 v 1.929688 c -1.8e-4,3.480163 2.826477,6.30682 6.30664,6.30664 h 0.169922 c 3.480166,1.8e-4 6.30682,-2.826477 6.306641,-6.30664 V 38.25 h 13.539062 v 12.261719 c -1.79e-4,3.480163 2.826475,6.30682 6.306641,6.30664 h 0.169922 c 3.480163,1.8e-4 6.30682,-2.826477 6.30664,-6.30664 v -1.929688 c 0.507398,0.733111 1.35183,1.216985 2.308594,1.216797 h 0.148438 c 1.548328,3.04e-4 2.808897,-1.260264 2.808593,-2.808594 V 38.25 H 58 c 2.350164,0 4.25,-1.899836 4.25,-4.25 v -4 c 0,-2.350164 -1.899836,-4.25 -4.25,-4.25 h -1.181641 v -8.740234 c 3.04e-4,-1.54833 -1.260265,-2.808898 -2.808593,-2.808594 h -0.148438 c -0.956764,-1.88e-4 -1.801196,0.483686 -2.308594,1.216797 v -1.929688 c 1.8e-4,-3.480163 -2.826477,-6.3068199 -6.30664,-6.3066404 h -0.169922 c -3.480166,-1.795e-4 -6.30682,2.8264774 -6.306641,6.3066404 V 25.75 H 25.230469 V 13.488281 c 1.79e-4,-3.480163 -2.826475,-6.3068199 -6.306641,-6.3066404 z m 0,0.5 h 0.169922 c 3.209926,-1.656e-4 5.806806,2.5967154 5.806641,5.8066404 V 25.75 26 v 0.06445 0.0078 V 38.25 50.511719 c 1.65e-4,3.209925 -2.596715,5.806806 -5.806641,5.80664 h -0.169922 c -3.209924,1.66e-4 -5.806806,-2.596716 -5.80664,-5.80664 V 46.990234 17.009766 13.488281 c -1.66e-4,-3.209924 2.596716,-5.806806 5.80664,-5.8066404 z m 26.322266,0 h 0.169922 c 3.209924,-1.656e-4 5.806806,2.5967164 5.80664,5.8066404 v 3.521485 29.980468 3.521485 c 1.66e-4,3.209924 -2.596716,5.806806 -5.80664,5.80664 h -0.169922 c -3.209926,1.66e-4 -5.806806,-2.596715 -5.806641,-5.80664 V 38.25 25.923828 25.919922 25.75 13.488281 c -1.65e-4,-3.209925 2.596715,-5.806806 5.806641,-5.8066404 z M 9.9902344,14.701172 h 0.1484376 c 1.27804,-2.51e-4 2.308845,1.030553 2.308594,2.308594 v 29.980468 c 2.51e-4,1.278041 -1.030554,2.308845 -2.308594,2.308594 H 9.9902344 c -1.27804,2.51e-4 -2.3088448,-1.030553 -2.3085938,-2.308594 V 38.25 26.248047 26.232422 25.75 17.009766 c -2.51e-4,-1.278041 1.0305538,-2.308845 2.3085938,-2.308594 z m 43.8710936,0 h 0.148438 c 1.278039,-2.51e-4 2.308844,1.030554 2.308593,2.308594 V 25.75 26 38.25 46.990234 c 2.51e-4,1.27804 -1.030554,2.308845 -2.308593,2.308594 h -0.148438 c -1.27804,2.51e-4 -2.308845,-1.030553 -2.308594,-2.308594 V 17.009766 c -2.51e-4,-1.278041 1.030554,-2.308845 2.308594,-2.308594 z M 38.769531,25.925781 v 0.0039 l -13.539062,0.138671 v -0.0098 z m -31.5878904,0.3125 V 37.75 H 6 C 3.9181898,37.75 2.25,36.081811 2.25,34 V 30 C 2.25,27.918189 3.9181898,26.25 6,26.25 Z M 25.230469,26.25 h 13.539062 v 11.5 H 25.230469 Z m 31.58789,0 H 58 c 2.081811,0 3.75,1.668189 3.75,3.75 v 4 c 0,2.081811 -1.668189,3.75 -3.75,3.75 h -1.181641 z"
     transform="matrix(0.87110614,0,0,0.87110614,4.1246031,4.1246035)" />
</svg>
