<?xml version="1.0" encoding="UTF-8" standalone="no"?>
<svg
   width="64"
   height="64"
   version="1"
   id="svg7"
   sodipodi:docname="activitywatch.svg"
   inkscape:version="1.3.2 (091e20ef0f, 2023-11-25, custom)"
   xmlns:inkscape="http://www.inkscape.org/namespaces/inkscape"
   xmlns:sodipodi="http://sodipodi.sourceforge.net/DTD/sodipodi-0.dtd"
   xmlns:xlink="http://www.w3.org/1999/xlink"
   xmlns="http://www.w3.org/2000/svg"
   xmlns:svg="http://www.w3.org/2000/svg">
  <defs
     id="defs7">
    <linearGradient
       id="linearGradient8"
       inkscape:collect="always">
      <stop
         style="stop-color:#ff8900;stop-opacity:1;"
         offset="0"
         id="stop9" />
      <stop
         style="stop-color:#ff5c00;stop-opacity:1;"
         offset="1"
         id="stop10" />
    </linearGradient>
    <linearGradient
       id="linearGradient7"
       inkscape:collect="always">
      <stop
         style="stop-color:#00ddff;stop-opacity:1;"
         offset="0"
         id="stop7" />
      <stop
         style="stop-color:#0093ff;stop-opacity:1;"
         offset="1"
         id="stop8" />
    </linearGradient>
    <radialGradient
       inkscape:collect="always"
       xlink:href="#linearGradient7"
       id="radialGradient8"
       cx="2.5359969"
       cy="34.755295"
       fx="2.5359969"
       fy="34.755295"
       r="28"
       gradientUnits="userSpaceOnUse"
       gradientTransform="matrix(2.7004947,1.5591314,-1.5591314,2.7004947,43.464893,-61.232505)" />
    <radialGradient
       inkscape:collect="always"
       xlink:href="#linearGradient8"
       id="radialGradient10"
       cx="30.679487"
       cy="32.744045"
       fx="30.679487"
       fy="32.744045"
       r="4"
       gradientUnits="userSpaceOnUse"
       gradientTransform="matrix(3.0694842,0,0,3.0694827,-66.22349,-66.223445)" />
    <filter
       inkscape:collect="always"
       style="color-interpolation-filters:sRGB"
       id="filter11"
       x="-0.032239901"
       y="-0.038739162"
       width="1.0644803"
       height="1.0774783">
      <feGaussianBlur
         inkscape:collect="always"
         stdDeviation="0.48483865"
         id="feGaussianBlur11" />
    </filter>
    <filter
       inkscape:collect="always"
       style="color-interpolation-filters:sRGB"
       id="filter12"
       x="-0.27043718"
       y="-0.27043718"
       width="1.5408744"
       height="1.5408744">
      <feGaussianBlur
         inkscape:collect="always"
         stdDeviation="0.85979062"
         id="feGaussianBlur12" />
    </filter>
    <filter
       inkscape:collect="always"
       style="color-interpolation-filters:sRGB"
       id="filter13"
       x="-0.070381498"
       y="-0.070381498"
       width="1.140763"
       height="1.140763">
      <feGaussianBlur
         inkscape:collect="always"
         stdDeviation="1.6005683"
         id="feGaussianBlur13" />
    </filter>
  </defs>
  <sodipodi:namedview
     id="namedview7"
     pagecolor="#ffffff"
     bordercolor="#000000"
     borderopacity="0.25"
     inkscape:showpageshadow="2"
     inkscape:pageopacity="0.0"
     inkscape:pagecheckerboard="0"
     inkscape:deskcolor="#d1d1d1"
     inkscape:zoom="12.6875"
     inkscape:cx="33.37931"
     inkscape:cy="33.497537"
     inkscape:window-width="1920"
     inkscape:window-height="1012"
     inkscape:window-x="0"
     inkscape:window-y="0"
     inkscape:window-maximized="1"
     inkscape:current-layer="svg7" />
  <rect
     style="fill:url(#radialGradient8)"
     width="56"
     height="56"
     x="4"
     y="4"
     rx="28"
     ry="28"
     id="rect2" />
  <rect
     style="fill:none;stroke:#000000;stroke-opacity:1;stroke-width:0.19999991;stroke-dasharray:none;filter:url(#filter13)"
     width="56"
     height="56"
     x="4"
     y="4"
     rx="28"
     ry="28"
     id="rect2-9" />
  <path
     id="path10"
     style="color:#000000;fill:#ffffff;stroke-linecap:round;stroke-linejoin:round;-inkscape-stroke:none"
     d="M 23.914062 13.400391 C 23.115446 13.398491 22.381981 13.852801 22.027344 14.568359 L 13.626953 31.550781 A 0.6000599 0.6000599 0 0 0 13.625 31.550781 C 13.115612 32.583483 13.546181 33.8504 14.578125 34.361328 C 15.610762 34.872927 16.878679 34.444577 17.390625 33.412109 L 19.277344 29.599609 L 28.484375 29.599609 L 29.767578 32.21875 L 15.845703 44.318359 C 15.30872 44.785202 15.251155 45.617968 15.71875 46.154297 C 16.185593 46.691279 17.01836 46.748844 17.554688 46.28125 L 30.841797 34.728516 L 36.271484 47.332031 C 36.634928 48.175165 37.459261 48.617889 38.248047 48.599609 C 39.036833 48.581329 39.840067 48.0993 40.164062 47.240234 L 43.101562 39.449219 L 46.037109 47.240234 C 46.361106 48.0993 47.164339 48.58133 47.953125 48.599609 C 48.741911 48.617889 49.566245 48.175165 49.929688 47.332031 L 55.529297 34.332031 A 0.6000599 0.6000599 0 0 0 55.529297 34.330078 C 55.984838 33.271196 55.488586 32.027773 54.429688 31.572266 C 53.371958 31.117825 52.128157 31.610757 51.671875 32.667969 L 48.130859 40.890625 L 45.064453 32.759766 C 44.756582 31.943569 43.97194 31.399994 43.099609 31.400391 C 42.22827 31.40113 41.444239 31.944495 41.136719 32.759766 L 38.070312 40.890625 L 34.529297 32.667969 A 0.6000599 0.6000599 0 0 0 34.527344 32.662109 C 34.489274 32.576449 34.412189 32.516955 34.363281 32.4375 L 42.21875 22.939453 C 42.954925 22.05117 42.82866 20.715528 41.939453 19.980469 A 0.6000599 0.6000599 0 0 0 41.9375 19.980469 C 41.50806 19.626291 40.95645 19.456602 40.402344 19.509766 C 39.847604 19.561756 39.3357 19.832476 38.980469 20.261719 L 32.453125 28.154297 L 25.794922 14.576172 C 25.443461 13.859193 24.71255 13.402129 23.914062 13.400391 z M 23.900391 20.251953 L 26.423828 25.400391 L 21.353516 25.400391 L 23.900391 20.251953 z " />
  <path
     id="path10-3"
     style="color:#000000;fill:none;stroke-linecap:round;stroke-linejoin:round;stroke:#0082ff;stroke-opacity:1;stroke-width:0.4;stroke-dasharray:none;filter:url(#filter11);fill-opacity:1"
     d="m 23.976829,13.408806 c -0.798616,-0.0019 -1.532081,0.45241 -1.886718,1.167968 L 13.68972,31.559196 a 0.6000599,0.6000599 0 0 0 -0.002,0 c -0.509388,1.032702 -0.07882,2.299619 0.953125,2.810547 1.032637,0.511599 2.300554,0.08325 2.8125,-0.949219 l 1.886719,-3.8125 h 9.207031 l 1.283203,2.619141 -13.921875,12.099609 c -0.536983,0.466843 -0.594548,1.299609 -0.126953,1.835938 0.466843,0.536982 1.29961,0.594547 1.835938,0.126953 l 13.287109,-11.552734 5.429687,12.603515 c 0.363444,0.843134 1.187777,1.285858 1.976563,1.267578 0.788786,-0.01828 1.59202,-0.500309 1.916015,-1.359375 l 2.9375,-7.791015 2.935547,7.791015 c 0.323997,0.859066 1.12723,1.341096 1.916016,1.359375 0.788786,0.01828 1.61312,-0.424444 1.976563,-1.267578 l 5.599609,-13 a 0.6000599,0.6000599 0 0 0 0,-0.002 c 0.455541,-1.058882 -0.04071,-2.302305 -1.099609,-2.757812 -1.05773,-0.454441 -2.301531,0.03849 -2.757813,1.095703 l -3.541016,8.222656 -3.066406,-8.130859 c -0.307871,-0.816197 -1.092513,-1.359772 -1.964844,-1.359375 -0.871339,7.39e-4 -1.65537,0.544104 -1.96289,1.359375 l -3.066407,8.130859 -3.541015,-8.222656 a 0.6000599,0.6000599 0 0 0 -0.002,-0.0059 c -0.03807,-0.08566 -0.115155,-0.145154 -0.164063,-0.224609 l 7.855469,-9.498047 c 0.736175,-0.888283 0.60991,-2.223925 -0.279297,-2.958984 a 0.6000599,0.6000599 0 0 0 -0.002,0 c -0.42944,-0.354178 -0.98105,-0.523867 -1.535156,-0.470703 -0.55474,0.05199 -1.066644,0.32271 -1.421875,0.751953 L 32.515751,28.162625 25.857548,14.5845 c -0.351461,-0.716979 -1.082372,-1.174043 -1.88086,-1.175781 z m -0.01367,6.851562 2.523437,5.148438 h -5.070312 z" />
  <circle
     style="fill:url(#radialGradient10);fill-opacity:1"
     cx="32"
     cy="32"
     r="4"
     id="circle7" />
  <circle
     style="fill:none;fill-opacity:1;stroke:#000000;stroke-opacity:1;opacity:1;stroke-width:0.19999992;stroke-dasharray:none;filter:url(#filter12)"
     cx="32.085495"
     cy="31.943407"
     r="4"
     id="circle7-3" />
</svg>
