<?xml version="1.0" encoding="UTF-8" standalone="no"?>
<svg
   width="64"
   height="64"
   version="1"
   id="svg4"
   sodipodi:docname="ADLplug.svg"
   inkscape:version="1.3.2 (091e20ef0f, 2023-11-25, custom)"
   xmlns:inkscape="http://www.inkscape.org/namespaces/inkscape"
   xmlns:sodipodi="http://sodipodi.sourceforge.net/DTD/sodipodi-0.dtd"
   xmlns:xlink="http://www.w3.org/1999/xlink"
   xmlns="http://www.w3.org/2000/svg"
   xmlns:svg="http://www.w3.org/2000/svg">
  <defs
     id="defs4">
    <linearGradient
       id="linearGradient4"
       inkscape:collect="always">
      <stop
         style="stop-color:#4c8ebc;stop-opacity:1;"
         offset="0"
         id="stop4" />
      <stop
         style="stop-color:#2d4062;stop-opacity:1;"
         offset="1"
         id="stop5" />
    </linearGradient>
    <radialGradient
       inkscape:collect="always"
       xlink:href="#linearGradient4"
       id="radialGradient5"
       cx="8.5106363"
       cy="55.046333"
       fx="8.5106363"
       fy="55.046333"
       r="28"
       gradientUnits="userSpaceOnUse"
       gradientTransform="matrix(3.5497594,-2.0494546,2.0494546,3.5497594,-137.83509,-119.1563)" />
    <filter
       inkscape:collect="always"
       style="color-interpolation-filters:sRGB"
       id="filter5"
       x="-0.041248901"
       y="-0.090429728"
       width="1.0824978"
       height="1.1808595">
      <feGaussianBlur
         inkscape:collect="always"
         stdDeviation="0.71520378"
         id="feGaussianBlur5" />
    </filter>
  </defs>
  <sodipodi:namedview
     id="namedview4"
     pagecolor="#ffffff"
     bordercolor="#000000"
     borderopacity="0.25"
     inkscape:showpageshadow="2"
     inkscape:pageopacity="0.0"
     inkscape:pagecheckerboard="0"
     inkscape:deskcolor="#d1d1d1"
     inkscape:zoom="12.6875"
     inkscape:cx="30.778325"
     inkscape:cy="31.133005"
     inkscape:window-width="1920"
     inkscape:window-height="1012"
     inkscape:window-x="0"
     inkscape:window-y="0"
     inkscape:window-maximized="1"
     inkscape:current-layer="svg4" />
  <rect
     x="4"
     y="4"
     width="56"
     height="56"
     rx="18.237858"
     ry="18.237858"
     style="fill:url(#radialGradient5)"
     id="rect2" />
  <path
     d="m44.970703 21.970703c-1.104573 0.016172-1.986891 0.924724-1.970703 2.029297v16c1.1e-4 1.104524 0.895476 1.99989 2 2h8c2.704645 0.03825 2.704645-4.03825 0-4h-6v-14c0.01653-1.127524-0.901773-2.045822-2.029297-2.029297zm-15.714844 2e-3c-0.270046 0.0045-0.423828 0.01953-0.423828 0.01953-1.03618 0.087427-1.832539 0.954233-1.832031 1.994095v16c4.83e-4 1.03913 0.79658 1.904822 1.832031 1.992188 0 0 2.456588 0.242531 5-0.921875 2.543413-1.164406 5.167969-4.118019 5.167969-9.070313 0-4.952293-2.624556-7.907858-5.167969-9.072266-1.907559-0.873304-3.766034-0.955036-4.576172-0.941406zm-12.255859 0.056594c-2.666667 0-4.55055 1.628441-5.289062 3.105469-0.738515 1.477027-0.710938 2.894531-0.710938 2.894531-0.0198 4.039109 0 7.973572 0 12-0.03825 2.704645 4.03825 2.704645 4 0v-4h4v4c-0.03825 2.704645 4.03825 2.704645 4 0 0.01981-4.039114 0-7.973596 0-12 0 0 0.02758-1.417504-0.710938-2.894531-0.738513-1.477028-2.622395-3.105469-5.289062-3.105469zm0 4c1.333333 0 1.449451 0.371559 1.710938 0.894531 0.261486 0.522972 0.289062 1.105469 0.289062 1.105469v4h-4v-4s0.02758-0.582497 0.289062-1.105469c0.261488-0.522972 0.377605-0.894531 1.710938-0.894531zm14 0.216797c0.391721 0.0862 0.752456 0.11446 1.167969 0.304687 1.456587 0.666844 2.832031 1.712841 2.832031 5.435547 0 3.722707-1.375444 4.76675-2.832031 5.433594-0.415586 0.19026-0.77619 0.220444-1.167969 0.30664z"
     style="fill:#a1eae9"
     id="path4" />
  <path
     d="m 45.003975,21.942605 c -1.104573,0.01617 -1.986891,0.924724 -1.970703,2.029297 v 16 c 1.1e-4,1.104524 0.895476,1.99989 2,2 h 8 c 2.704645,0.03825 2.704645,-4.03825 0,-4 h -6 v -14 c 0.01653,-1.127524 -0.901773,-2.045822 -2.029297,-2.029297 z m -15.714844,0.002 c -0.270046,0.0045 -0.423828,0.01953 -0.423828,0.01953 -1.03618,0.08743 -1.832539,0.954233 -1.832031,1.994095 v 16 c 4.83e-4,1.03913 0.79658,1.904822 1.832031,1.992188 0,0 2.456588,0.242531 5,-0.921875 2.543413,-1.164406 5.167969,-4.118019 5.167969,-9.070313 0,-4.952293 -2.624556,-7.907858 -5.167969,-9.072266 -1.907559,-0.873304 -3.766034,-0.955036 -4.576172,-0.941406 z m -12.255859,0.05659 c -2.666667,0 -4.55055,1.628441 -5.289062,3.105469 -0.738515,1.477027 -0.710938,2.894531 -0.710938,2.894531 -0.0198,4.039109 0,7.973572 0,12 -0.03825,2.704645 4.03825,2.704645 4,0 v -4 h 4 v 4 c -0.03825,2.704645 4.03825,2.704645 4,0 0.01981,-4.039114 0,-7.973596 0,-12 0,0 0.02758,-1.417504 -0.710938,-2.894531 -0.738513,-1.477028 -2.622395,-3.105469 -5.289062,-3.105469 z m 0,4 c 1.333333,0 1.449451,0.371559 1.710938,0.894531 0.261486,0.522972 0.289062,1.105469 0.289062,1.105469 v 4 h -4 v -4 c 0,0 0.02758,-0.582497 0.289062,-1.105469 0.261488,-0.522972 0.377605,-0.894531 1.710938,-0.894531 z m 14,0.216797 c 0.391721,0.0862 0.752456,0.11446 1.167969,0.304687 1.456587,0.666844 2.832031,1.712841 2.832031,5.435547 0,3.722707 -1.375444,4.76675 -2.832031,5.433594 -0.415586,0.19026 -0.77619,0.220444 -1.167969,0.30664 z"
     style="fill:none;stroke:#00cdff;stroke-opacity:1;stroke-width:0.2;stroke-dasharray:none;fill-opacity:1;opacity:1;filter:url(#filter5)"
     id="path4-3" />
</svg>
