<?xml version="1.0" encoding="UTF-8" standalone="no"?>
<svg
   width="64"
   height="64"
   version="1.1"
   id="svg6"
   sodipodi:docname="administration.svg"
   inkscape:version="1.3.2 (091e20ef0f, 2023-11-25, custom)"
   xmlns:inkscape="http://www.inkscape.org/namespaces/inkscape"
   xmlns:sodipodi="http://sodipodi.sourceforge.net/DTD/sodipodi-0.dtd"
   xmlns:xlink="http://www.w3.org/1999/xlink"
   xmlns="http://www.w3.org/2000/svg"
   xmlns:svg="http://www.w3.org/2000/svg">
  <defs
     id="defs6">
    <linearGradient
       id="linearGradient7"
       inkscape:collect="always">
      <stop
         style="stop-color:#00ad85;stop-opacity:1;"
         offset="0"
         id="stop8" />
      <stop
         style="stop-color:#0096ad;stop-opacity:1;"
         offset="1"
         id="stop9" />
    </linearGradient>
    <linearGradient
       id="linearGradient6"
       inkscape:collect="always">
      <stop
         style="stop-color:#10e0ff;stop-opacity:1;"
         offset="0"
         id="stop6" />
      <stop
         style="stop-color:#1092ff;stop-opacity:1;"
         offset="1"
         id="stop7" />
    </linearGradient>
    <radialGradient
       inkscape:collect="always"
       xlink:href="#linearGradient6"
       id="radialGradient7"
       cx="18.449625"
       cy="24.624121"
       fx="18.449625"
       fy="24.624121"
       r="11.999999"
       gradientTransform="matrix(5.9347518,5.9347518,-5.9347523,5.9347523,35.324156,-248.70917)"
       gradientUnits="userSpaceOnUse" />
    <radialGradient
       inkscape:collect="always"
       xlink:href="#linearGradient7"
       id="radialGradient9"
       cx="28.406076"
       cy="35.043697"
       fx="28.406076"
       fy="35.043697"
       r="12"
       gradientUnits="userSpaceOnUse"
       gradientTransform="matrix(5.8151441,0,0,5.8151451,-154.08462,-154.08464)" />
    <filter
       inkscape:collect="always"
       style="color-interpolation-filters:sRGB"
       id="filter11"
       x="-0.079453067"
       y="-0.079436963"
       width="1.1588882"
       height="1.1588882">
      <feGaussianBlur
         inkscape:collect="always"
         stdDeviation="1.8024501"
         id="feGaussianBlur11" />
    </filter>
  </defs>
  <sodipodi:namedview
     id="namedview6"
     pagecolor="#ffffff"
     bordercolor="#000000"
     borderopacity="0.25"
     inkscape:showpageshadow="2"
     inkscape:pageopacity="0.0"
     inkscape:pagecheckerboard="0"
     inkscape:deskcolor="#d1d1d1"
     inkscape:zoom="4.4857086"
     inkscape:cx="4.124209"
     inkscape:cy="37.675207"
     inkscape:window-width="1920"
     inkscape:window-height="1012"
     inkscape:window-x="0"
     inkscape:window-y="0"
     inkscape:window-maximized="1"
     inkscape:current-layer="svg6" />
  <path
     style="fill:url(#radialGradient9);stroke-width:2.29101"
     d="m 39.07506,4.5879357 c -2.900533,-0.384798 -6.000361,0.6283598 -8.108617,2.8103037 0.560225,1.1798425 3.988433,0.5941596 5.22457,2.23932 1.840877,1.5856906 5.00686,5.0613216 2.649113,7.4608106 C 29.6721,26.061203 18.60234,37.061454 9.4927722,46.09754 c -1.661509,2.098158 -4.5425912,3.491064 -4.984889,6.409668 0.5432534,2.908139 3.0850921,4.987616 5.103687,6.73846 0.9018288,0.485195 2.1341168,0.225802 2.8428588,-0.531065 12.081127,-12.912255 20.635972,-23.758889 31.689581,-36.147982 1.354349,-1.167833 3.676924,-1.048146 3.639356,1.398661 -1.528406,2.658744 2.33968,4.219389 3.564573,6.174038 1.406763,1.042895 2.377569,-0.987476 3.410402,-1.729823 1.520309,-2.018237 4.662736,-3.279071 4.733776,-6.13777 C 57.750661,20.533166 56.306995,16.268122 53.672645,17.370446 51.057943,16.163913 52.150686,11.758691 49.370317,10.252159 47.17607,8.437391 44.327671,8.0204685 42.317315,5.6955197 41.314696,5.1031013 40.210053,4.7385191 39.07506,4.5879357 Z"
     id="path3" />
  <path
     style="fill:url(#radialGradient7);stroke-width:2.29101"
     d="m 14.6455,4.5107607 c -0.918177,0.015579 -1.832835,0.088845 -2.71245,0.1753539 -4.1757268,0.2603962 -1.57604,3.3715232 0.972103,3.9919974 4.173588,1.1906102 4.150229,5.92983 1.670792,8.904884 -2.268956,3.852709 -5.6779327,0.192399 -8.3247362,-1.067967 -3.9459527,-0.65413 -0.1347114,4.828422 1.1194469,6.172296 1.879746,2.906636 5.0790033,4.300784 8.3687423,3.79936 4.130035,-0.591218 7.034596,2.9277 9.760746,5.580405 7.679918,7.159286 15.497558,14.992954 23.223375,22.847397 1.135759,0.972185 2.376052,2.08086 3.250429,3.324736 4.244307,3.986788 10.573537,-2.370842 5.832352,-7.463812 C 47.986565,41.732246 37.896005,31.320198 28.822622,22.46983 27.337612,21.015419 25.95101,19.477556 25.003027,17.584188 23.400324,14.264629 25.109422,9.8299125 22.138399,7.1721809 20.184727,4.944513 17.400055,4.4651834 14.6455,4.510747 Z"
     id="path5" />
  <path
     id="path10"
     style="color:#000000;fill:#000000;stroke:#000000;stroke-opacity:1;stroke-width:0.1;stroke-dasharray:none;filter:url(#filter11)"
     d="M 38.039062 4.4746094 C 35.460153 4.4404004 32.843191 5.4611176 30.988281 7.3808594 L 30.962891 7.40625 L 30.978516 7.4375 C 31.127735 7.7517591 31.461721 7.9416703 31.886719 8.0800781 C 32.311715 8.2184861 32.832858 8.3070508 33.373047 8.4101562 C 34.453425 8.616367 35.605968 8.8810458 36.208984 9.6835938 L 36.210938 9.6894531 L 36.214844 9.6914062 C 37.132335 10.481712 38.381477 11.746144 39.103516 13.103516 C 39.464534 13.782201 39.693265 14.483651 39.6875 15.160156 C 39.6817 15.836662 39.444564 16.488505 38.863281 17.080078 C 36.460297 19.429281 33.756222 22.107374 31.160156 24.666016 C 30.417955 23.935535 29.645768 23.162988 28.916016 22.451172 C 27.432469 20.998194 26.049556 19.465665 25.105469 17.580078 C 24.310935 15.93442 24.336246 14.0016 24.191406 12.142578 C 24.04671 10.285389 23.727975 8.4970641 22.232422 7.15625 L 22.228516 7.1542969 C 20.261814 4.9144886 17.462653 4.4309166 14.703125 4.4765625 C 13.78284 4.4921775 12.864596 4.5677276 11.984375 4.6542969 L 11.986328 4.6523438 C 10.935905 4.7178477 10.302657 4.9620902 9.984375 5.3164062 C 9.6660935 5.6707224 9.6813459 6.1310243 9.9101562 6.5859375 C 10.367577 7.4953658 11.660843 8.4298796 12.949219 8.7441406 C 15.019154 9.3346364 16.038458 10.795433 16.242188 12.484375 C 16.445918 14.173317 15.825157 16.090805 14.59375 17.568359 L 14.591797 17.570312 L 14.589844 17.574219 C 14.027141 18.529693 13.399908 19.012396 12.734375 19.1875 C 12.068842 19.362604 11.358529 19.22885 10.630859 18.935547 C 9.1755222 18.348948 7.6629189 17.121006 6.3300781 16.486328 L 6.3242188 16.482422 L 6.3164062 16.482422 C 5.818244 16.399842 5.4387365 16.412059 5.15625 16.505859 C 4.8737635 16.599659 4.6897058 16.777729 4.5957031 17.011719 C 4.4076979 17.479697 4.5628604 18.155189 4.8730469 18.888672 C 5.4934192 20.355637 6.757636 22.060012 7.390625 22.738281 C 9.2809921 25.656375 12.498839 27.056615 15.804688 26.552734 C 17.854296 26.259332 19.598373 26.984163 21.175781 28.117188 C 22.390622 28.989787 23.489746 30.093159 24.560547 31.166016 C 19.373341 36.298826 14.192078 41.441347 9.515625 46.080078 L 9.5136719 46.082031 L 9.5117188 46.083984 C 8.6863584 47.126252 7.552602 47.998554 6.5664062 48.976562 C 5.5802106 49.954572 4.7409593 51.041594 4.5175781 52.515625 L 4.515625 52.523438 L 4.5175781 52.533203 C 5.0652093 55.464774 7.6190233 57.548764 9.6367188 59.298828 L 9.640625 59.302734 L 9.6464844 59.306641 C 10.571523 59.804225 11.824211 59.539445 12.548828 58.765625 C 19.589918 51.240139 25.437808 44.412007 31.275391 37.576172 C 37.085598 43.176314 42.941493 49.065555 48.746094 54.966797 L 48.748047 54.96875 C 49.8832 55.940416 51.120614 57.048047 51.990234 58.285156 L 51.994141 58.289062 L 51.996094 58.292969 C 53.06652 59.298448 54.274289 59.653418 55.404297 59.537109 C 56.534305 59.420801 57.585835 58.835276 58.353516 57.962891 C 59.888874 56.21812 60.285605 53.321957 57.900391 50.759766 L 57.898438 50.757812 L 57.896484 50.755859 C 50.980698 44.38696 43.947823 37.352587 37.212891 30.648438 C 39.478332 28.020083 41.789765 25.361126 44.234375 22.621094 C 44.900197 22.046966 45.805881 21.791963 46.53125 21.976562 C 47.254959 22.160741 47.806905 22.772522 47.791016 23.974609 C 47.412677 24.642019 47.364258 25.250888 47.533203 25.808594 C 47.703655 26.371269 48.0875 26.881026 48.554688 27.367188 C 49.489064 28.339512 50.760233 29.221267 51.363281 30.183594 L 51.369141 30.191406 L 51.376953 30.197266 C 51.73709 30.46425 52.078258 30.536275 52.396484 30.478516 C 52.714712 30.420756 53.005909 30.236144 53.283203 29.998047 C 53.837792 29.521852 54.34081 28.829689 54.845703 28.466797 L 54.851562 28.462891 L 54.855469 28.455078 C 55.608665 27.455197 56.773436 26.636935 57.761719 25.708984 C 58.750001 24.781034 59.565593 23.738484 59.601562 22.291016 L 59.601562 22.269531 L 59.585938 22.253906 C 58.724793 21.394193 57.926134 19.893745 57.013672 18.742188 C 56.55744 18.166409 56.07291 17.675909 55.529297 17.398438 C 54.997951 17.127229 54.404543 17.082508 53.751953 17.341797 C 53.109991 17.045568 52.696053 16.554692 52.390625 15.955078 C 52.085102 15.355418 51.890133 14.647922 51.689453 13.927734 C 51.288347 12.488269 50.861531 10.991295 49.453125 10.226562 C 48.350589 9.3163393 47.089543 8.7585926 45.855469 8.1386719 C 44.619309 7.5177036 43.410609 6.8344389 42.412109 5.6796875 L 42.408203 5.6738281 L 42.400391 5.6699219 C 41.39166 5.0738925 40.279894 4.7080505 39.138672 4.5566406 C 38.774202 4.5082887 38.407556 4.4794974 38.039062 4.4746094 z M 38.039062 4.5761719 C 38.403504 4.5810019 38.766293 4.6064499 39.126953 4.6542969 C 40.255709 4.8040526 41.35311 5.1670568 42.349609 5.7558594 C 43.359393 6.918652 44.575799 7.6063033 45.810547 8.2265625 C 47.049601 8.848985 48.306104 9.4067863 49.396484 10.308594 L 49.400391 10.310547 L 49.404297 10.314453 C 50.774122 11.056687 51.192508 12.513175 51.59375 13.953125 C 51.794371 14.673099 51.988752 15.387427 52.300781 16 C 52.612811 16.612573 53.043602 17.124605 53.708984 17.431641 L 53.728516 17.441406 L 53.75 17.433594 C 54.396489 17.163075 54.961815 17.221554 55.484375 17.488281 C 56.006935 17.755007 56.483676 18.232459 56.935547 18.802734 C 57.832658 19.934918 58.623478 21.41742 59.496094 22.298828 C 59.456334 23.703048 58.6713 24.718478 57.693359 25.636719 C 56.716145 26.554277 55.554329 27.371958 54.787109 28.384766 C 54.259175 28.764218 53.759339 29.4577 53.21875 29.921875 C 52.948455 30.153963 52.670586 30.327919 52.378906 30.380859 C 52.087227 30.433799 51.77879 30.369699 51.435547 30.115234 C 50.810429 29.128733 49.54621 28.255419 48.626953 27.298828 C 48.165091 26.818208 47.792112 26.318055 47.628906 25.779297 C 47.4657 25.240538 47.50826 24.662765 47.884766 24.007812 L 47.890625 23.996094 L 47.892578 23.982422 C 47.911608 22.743187 47.322386 22.073782 46.556641 21.878906 C 45.790894 21.684031 44.85649 21.953177 44.167969 22.546875 L 44.166016 22.548828 L 44.164062 22.550781 C 41.718627 25.291672 39.408401 27.949353 37.142578 30.578125 C 35.133219 28.578016 33.171548 26.647208 31.230469 24.736328 C 33.826661 22.177562 36.530964 19.499245 38.933594 17.150391 C 39.53118 16.542224 39.781148 15.859762 39.787109 15.160156 C 39.793109 14.460551 39.557593 13.74504 39.191406 13.056641 C 38.460624 11.682726 37.20992 10.420694 36.287109 9.625 C 35.653994 8.7823941 34.475412 8.5191796 33.392578 8.3125 C 32.851162 8.2091602 32.331959 8.1191985 31.917969 7.984375 C 31.521975 7.8554126 31.244976 7.6756976 31.105469 7.4199219 C 32.937563 5.547876 35.505962 4.5425706 38.039062 4.5761719 z M 14.703125 4.578125 C 17.451308 4.532667 20.217715 5.0100214 22.158203 7.2226562 L 22.160156 7.2246094 L 22.162109 7.2265625 C 23.633768 8.5430354 23.94745 10.297686 24.091797 12.150391 C 24.236144 14.003094 24.207461 15.949158 25.015625 17.623047 C 25.967498 19.524186 27.35924 21.06565 28.845703 22.521484 C 29.575435 23.233281 30.34761 24.005812 31.089844 24.736328 C 31.099597 24.745927 31.109386 24.756023 31.119141 24.765625 L 31.125 24.771484 C 33.089195 26.704898 35.073193 28.662591 37.107422 30.6875 L 37.144531 30.726562 L 37.146484 30.724609 C 43.880122 37.427543 50.914025 44.460964 57.830078 50.830078 C 60.181445 53.359711 59.783288 56.18736 58.279297 57.896484 C 57.526862 58.751547 56.496738 59.324053 55.394531 59.4375 C 54.292325 59.550947 53.118127 59.206659 52.066406 58.21875 C 51.18812 56.972038 49.949856 55.866747 48.816406 54.896484 L 48.814453 54.894531 C 43.0092 48.992717 37.151678 43.103573 31.339844 37.501953 L 31.306641 37.470703 C 29.396527 35.629993 27.490677 33.817186 25.59375 32.048828 L 25.591797 32.046875 C 25.291115 31.754258 24.972875 31.438223 24.666016 31.130859 L 24.630859 31.095703 C 23.559582 30.022649 22.456672 28.916467 21.232422 28.037109 C 19.643022 26.895472 17.869475 26.157265 15.789062 26.455078 C 12.51775 26.953695 9.3383978 25.568755 7.46875 22.677734 L 7.4667969 22.673828 L 7.4648438 22.671875 C 6.8436775 22.006274 5.5769872 20.297117 4.9648438 18.849609 C 4.6587721 18.125856 4.5214031 17.467136 4.6894531 17.048828 C 4.773478 16.839674 4.9280177 16.687721 5.1875 16.601562 C 5.4456171 16.515853 5.8104632 16.500556 6.2949219 16.580078 C 7.607269 17.206786 9.118523 18.434681 10.59375 19.029297 C 11.332664 19.327129 12.065358 19.465904 12.759766 19.283203 C 13.452492 19.100944 14.10111 18.597135 14.671875 17.630859 L 14.673828 17.626953 C 15.919898 16.129964 16.54933 14.193124 16.341797 12.472656 C 16.134104 10.750872 15.080201 9.2465952 12.976562 8.6464844 L 12.974609 8.6464844 C 11.715455 8.3398684 10.435601 7.4070621 10 6.5410156 C 9.7821996 6.1079925 9.7696283 5.7044933 10.058594 5.3828125 C 10.347558 5.0611317 10.956707 4.8186001 11.994141 4.7539062 L 11.996094 4.7519531 C 12.875097 4.6655042 13.787062 4.5936682 14.703125 4.578125 z M 24.630859 31.236328 C 24.926481 31.532478 25.232798 31.836331 25.523438 32.119141 L 25.523438 32.121094 L 25.525391 32.121094 C 27.411494 33.879337 29.303785 35.679706 31.203125 37.509766 C 25.364878 44.346384 19.514839 51.174651 12.474609 58.699219 C 11.782203 59.43864 10.573771 59.688232 9.6953125 59.216797 L 9.6933594 59.216797 C 7.677772 57.468901 5.1614151 55.398405 4.6191406 52.523438 C 4.8401376 51.083528 5.6587563 50.016719 6.6367188 49.046875 C 7.6154481 48.076271 8.7501096 47.204377 9.5859375 46.150391 L 9.5898438 46.146484 C 14.265354 41.508678 19.445076 36.367731 24.630859 31.236328 z " />
</svg>
