<?xml version="1.0" encoding="UTF-8" standalone="no"?>
<svg
   width="64"
   height="64"
   version="1.1"
   id="svg4"
   sodipodi:docname="AdobeUpdate.svg"
   inkscape:version="1.3.2 (091e20ef0f, 2023-11-25, custom)"
   xmlns:inkscape="http://www.inkscape.org/namespaces/inkscape"
   xmlns:sodipodi="http://sodipodi.sourceforge.net/DTD/sodipodi-0.dtd"
   xmlns="http://www.w3.org/2000/svg"
   xmlns:svg="http://www.w3.org/2000/svg">
  <defs
     id="defs4">
    <inkscape:path-effect
       effect="fillet_chamfer"
       id="path-effect4"
       is_visible="true"
       lpeversion="1"
       nodesatellites_param="F,0,0,1,0,5.6448957,0,1 @ F,0,0,1,0,6.4530625,0,1 @ F,0,0,1,0,0,0,1 @ F,0,0,1,0,2.6413876,0,1 @ F,0,0,1,0,1.5575649,0,1 @ F,0,0,1,0,1.4346838,0,1 @ F,0,0,1,0,4.4668514,0,1 @ F,0,0,1,0,6.4530625,0,1 @ F,0,0,1,0,5.6448957,0,1"
       radius="0"
       unit="px"
       method="auto"
       mode="F"
       chamfer_steps="1"
       flexible="false"
       use_knot_distance="true"
       apply_no_radius="true"
       apply_with_radius="true"
       only_selected="false"
       hide_knots="false" />
    <rect
       x="51.550888"
       y="22.651217"
       width="49.367706"
       height="17.69709"
       id="rect7" />
    <filter
       inkscape:collect="always"
       style="color-interpolation-filters:sRGB"
       id="filter6"
       x="-0.069486645"
       y="-0.069486645"
       width="1.1389733"
       height="1.1389733">
      <feGaussianBlur
         inkscape:collect="always"
         stdDeviation="1.5588551"
         id="feGaussianBlur6" />
    </filter>
    <clipPath
       clipPathUnits="userSpaceOnUse"
       id="clipPath1">
      <rect
         x="7.0903287"
         y="3.6527383"
         width="49.809406"
         height="49.809406"
         rx="15.089537"
         ry="15.089537"
         style="fill:#c51100;fill-opacity:1;stroke-width:0.889454"
         id="rect1"
         d="m 22.179865,3.6527383 h 19.630333 c 8.359604,0 15.089537,6.7299337 15.089537,15.0895367 v 19.630333 c 0,8.359603 -6.729933,15.089537 -15.089537,15.089537 H 22.179865 c -8.359603,0 -15.0895363,-6.729934 -15.0895363,-15.089537 V 18.742275 c 0,-8.359603 6.7299333,-15.0895367 15.0895363,-15.0895367 z" />
    </clipPath>
  </defs>
  <sodipodi:namedview
     id="namedview4"
     pagecolor="#ffffff"
     bordercolor="#000000"
     borderopacity="0.25"
     inkscape:showpageshadow="2"
     inkscape:pageopacity="0.0"
     inkscape:pagecheckerboard="0"
     inkscape:deskcolor="#d1d1d1"
     inkscape:zoom="12.6875"
     inkscape:cx="34.876847"
     inkscape:cy="32"
     inkscape:window-width="1920"
     inkscape:window-height="1012"
     inkscape:window-x="0"
     inkscape:window-y="0"
     inkscape:window-maximized="1"
     inkscape:current-layer="svg4" />
  <rect
     x="4"
     y="4"
     width="56"
     height="56"
     rx="16.964949"
     ry="16.964949"
     style="fill:#c51100;fill-opacity:1"
     id="rect1-3" />
  <path
     d="M 24.264474,17.140506 13.000768,47.45207 A 4.4862525,4.4862525 55.192474 0 0 17.206063,53.501 H 35.576211 L 33.504052,46.823932 A 3.5853887,3.5853887 36.379403 0 0 30.07977,44.301234 l -3.012625,0 a 1.0946978,1.0946978 54.899438 0 1 -1.029987,-1.465493 l 5.476888,-15.213578 a 0.52336416,0.52336416 179.75721 0 1 0.983333,-0.0042 l 8.017862,21.693173 A 6.4131498,6.4131498 34.857768 0 0 46.530666,53.501 l 0.163272,0 a 4.4963641,4.4963641 124.86801 0 0 4.218069,-6.053662 L 39.72435,17.144645 A 8.1014046,8.1014046 34.868008 0 0 32.124367,11.84913 l -0.248734,0 a 8.1196644,8.1196644 145.19247 0 0 -7.611159,5.291376 z"
     style="fill:#ffffff;stroke-width:0.721158"
     id="path4"
     sodipodi:nodetypes="cccccccccc"
     transform="matrix(1.1242856,0,0,1.1242856,-3.9715543,-0.10672118)"
     clip-path="url(#clipPath1)"
     inkscape:original-d="M 26.230737,11.84913 10.753,53.501 H 35.576211 L 32.721158,44.301234 H 25.50958 L 32.000001,26.272287 42.063815,53.501 H 53.147 L 37.769263,11.84913 Z"
     inkscape:path-effect="#path-effect4" />
  <rect
     x="3.9999983"
     y="3.9999983"
     width="56"
     height="56"
     rx="16.964949"
     ry="16.964949"
     style="fill:none;stroke:#000000;stroke-width:0.3;stroke-dasharray:none;stroke-opacity:1;filter:url(#filter6)"
     id="rect1-1" />
</svg>
