<?xml version="1.0" encoding="UTF-8" standalone="no"?>
<svg
   width="64"
   height="64"
   version="1.1"
   id="svg6"
   sodipodi:docname="AdobeBridge.svg"
   inkscape:version="1.3.2 (091e20ef0f, 2023-11-25, custom)"
   xmlns:inkscape="http://www.inkscape.org/namespaces/inkscape"
   xmlns:sodipodi="http://sodipodi.sourceforge.net/DTD/sodipodi-0.dtd"
   xmlns="http://www.w3.org/2000/svg"
   xmlns:svg="http://www.w3.org/2000/svg">
  <defs
     id="defs6">
    <rect
       x="51.550887"
       y="22.651216"
       width="49.367707"
       height="17.69709"
       id="rect7" />
    <rect
       x="10.084149"
       y="16.356342"
       width="47.7108"
       height="32.505421"
       id="rect6" />
    <filter
       inkscape:collect="always"
       style="color-interpolation-filters:sRGB"
       id="filter6"
       x="-0.069486645"
       y="-0.069486645"
       width="1.1389733"
       height="1.1389733">
      <feGaussianBlur
         inkscape:collect="always"
         stdDeviation="1.5588551"
         id="feGaussianBlur6" />
    </filter>
  </defs>
  <sodipodi:namedview
     id="namedview6"
     pagecolor="#ffffff"
     bordercolor="#000000"
     borderopacity="0.25"
     inkscape:showpageshadow="2"
     inkscape:pageopacity="0.0"
     inkscape:pagecheckerboard="0"
     inkscape:deskcolor="#d1d1d1"
     inkscape:zoom="12.6875"
     inkscape:cx="31.960591"
     inkscape:cy="32"
     inkscape:window-width="1920"
     inkscape:window-height="1012"
     inkscape:window-x="0"
     inkscape:window-y="0"
     inkscape:window-maximized="1"
     inkscape:current-layer="svg6" />
  <rect
     x="4"
     y="4"
     width="56"
     height="56"
     rx="16.964949"
     ry="16.964949"
     style="fill:#c55700;fill-opacity:1"
     id="rect1-3" />
  <rect
     x="4"
     y="4"
     width="56"
     height="56"
     rx="16.964949"
     ry="16.964949"
     style="fill:none;stroke:#000000;stroke-width:0.3;stroke-dasharray:none;stroke-opacity:1;filter:url(#filter6)"
     id="rect1-1" />
  <path
     style="font-weight:bold;font-family:'Myriad Pro';-inkscape-font-specification:'Myriad Pro Bold';white-space:pre;fill:#ffcca3;stroke-width:0.200021"
     d="m 10.875984,26.819469 c 0.408,0.06 1.08,0.12 1.98,0.12 1.608,0 2.592,-0.264 3.18,-0.732 0.504,-0.408 0.84,-0.984 0.84,-1.728 0,-1.032 -0.684,-1.74 -1.608,-1.98 v -0.024 c 0.912,-0.348 1.332,-1.008 1.332,-1.716 0,-0.744 -0.396,-1.296 -0.96,-1.596 -0.6,-0.348 -1.284,-0.456 -2.4,-0.456 -0.924,0 -1.884,0.084 -2.364,0.168 z m 1.812,-6.732 c 0.144,-0.024 0.372,-0.048 0.78,-0.048 0.828,0 1.296,0.324 1.296,0.936 0,0.6 -0.504,0.996 -1.476,0.996 h -0.6 z m 0,3.192 h 0.624 c 0.912,0 1.644,0.324 1.644,1.128 0,0.852 -0.732,1.176 -1.56,1.176 -0.312,0 -0.528,0 -0.708,-0.024 z m 5.376001,3.576 h 1.824 v -2.976 c 0,-0.144 0.012,-0.288 0.036,-0.408 0.12,-0.564 0.576,-0.924 1.248,-0.924 0.204,0 0.348,0.024 0.492,0.048 v -1.716 c -0.132,-0.024 -0.216,-0.036 -0.384,-0.036 -0.576,0 -1.284,0.36 -1.584,1.224 h -0.048 l -0.072,-1.08 h -1.56 c 0.036,0.504 0.048,1.068 0.048,1.932 z"
     id="text6"
     transform="matrix(3.2237257,0,0,3.2237257,-20.449969,-41.576603)"
     aria-label="Br" />
  <text
     xml:space="preserve"
     id="text7"
     style="fill:#c55700;stroke-width:0.29999992;-inkscape-font-specification:'Myriad Pro Bold';font-family:'Myriad Pro';font-weight:bold;stroke:#000000;fill-opacity:1;white-space:pre;shape-inside:url(#rect7)" />
</svg>
