<?xml version="1.0" encoding="UTF-8" standalone="no"?>
<svg
   width="64"
   height="64"
   version="1.1"
   id="svg6"
   sodipodi:docname="AdobeDimension.svg"
   inkscape:version="1.3.2 (091e20ef0f, 2023-11-25, custom)"
   xmlns:inkscape="http://www.inkscape.org/namespaces/inkscape"
   xmlns:sodipodi="http://sodipodi.sourceforge.net/DTD/sodipodi-0.dtd"
   xmlns="http://www.w3.org/2000/svg"
   xmlns:svg="http://www.w3.org/2000/svg">
  <defs
     id="defs6">
    <rect
       x="10.084149"
       y="16.356342"
       width="47.7108"
       height="32.505421"
       id="rect6" />
    <filter
       inkscape:collect="always"
       style="color-interpolation-filters:sRGB"
       id="filter6"
       x="-0.069486645"
       y="-0.069486645"
       width="1.1389733"
       height="1.1389733">
      <feGaussianBlur
         inkscape:collect="always"
         stdDeviation="1.5588551"
         id="feGaussianBlur6" />
    </filter>
  </defs>
  <sodipodi:namedview
     id="namedview6"
     pagecolor="#ffffff"
     bordercolor="#000000"
     borderopacity="0.25"
     inkscape:showpageshadow="2"
     inkscape:pageopacity="0.0"
     inkscape:pagecheckerboard="0"
     inkscape:deskcolor="#d1d1d1"
     inkscape:zoom="12.6875"
     inkscape:cx="31.960591"
     inkscape:cy="32"
     inkscape:window-width="1920"
     inkscape:window-height="1012"
     inkscape:window-x="0"
     inkscape:window-y="0"
     inkscape:window-maximized="1"
     inkscape:current-layer="svg6" />
  <rect
     x="4"
     y="4"
     width="56"
     height="56"
     rx="16.964949"
     ry="16.964949"
     style="fill:#2e8e87;fill-opacity:1"
     id="rect1" />
  <rect
     x="4"
     y="4"
     width="56"
     height="56"
     rx="16.964949"
     ry="16.964949"
     style="fill:none;stroke:#000000;stroke-width:0.3;stroke-dasharray:none;stroke-opacity:1;filter:url(#filter6)"
     id="rect1-1" />
  <path
     style="font-weight:bold;font-family:'Myriad Pro';-inkscape-font-specification:'Myriad Pro Bold';white-space:pre;fill:#a3ffeb;stroke-width:0.200021"
     d="m 10.875984,26.819469 c 0.444,0.06 1.128,0.12 2.076,0.12 1.584,0 2.892,-0.336 3.744,-1.044 0.768,-0.66 1.332,-1.728 1.332,-3.276 0,-1.428 -0.528,-2.424 -1.368,-3.048 -0.768,-0.576 -1.776,-0.864 -3.324,-0.864 -0.912,0 -1.788,0.072 -2.46,0.18 z m 1.824,-6.636 c 0.156,-0.036 0.432,-0.072 0.828,-0.072 1.584,0 2.568,0.888 2.568,2.568 0,1.932 -1.092,2.844 -2.76,2.832 -0.216,0 -0.48,0 -0.636,-0.036 z m 8.339987,6.672 v -5.868 h -1.824 v 5.868 z m -0.9,-8.412 c -0.588,0 -0.972,0.396 -0.972,0.912 0,0.504 0.372,0.912 0.948,0.912 0.612,0 0.984,-0.408 0.984,-0.912 -0.012,-0.516 -0.372,-0.912 -0.96,-0.912 z"
     id="text6"
     transform="matrix(3.2237257,0,0,3.2237257,-19.540854,-41.151071)"
     aria-label="Di" />
</svg>
