<?xml version="1.0" encoding="UTF-8" standalone="no"?>
<svg
   width="64"
   height="64"
   version="1.1"
   id="svg4"
   sodipodi:docname="aeskulap.svg"
   inkscape:version="1.3.2 (091e20ef0f, 2023-11-25, custom)"
   xmlns:inkscape="http://www.inkscape.org/namespaces/inkscape"
   xmlns:sodipodi="http://sodipodi.sourceforge.net/DTD/sodipodi-0.dtd"
   xmlns:xlink="http://www.w3.org/1999/xlink"
   xmlns="http://www.w3.org/2000/svg"
   xmlns:svg="http://www.w3.org/2000/svg">
  <defs
     id="defs4">
    <linearGradient
       id="linearGradient26"
       inkscape:collect="always">
      <stop
         style="stop-color:#5894e2;stop-opacity:1;"
         offset="0"
         id="stop26" />
      <stop
         style="stop-color:#4b19ae;stop-opacity:1;"
         offset="1"
         id="stop27" />
    </linearGradient>
    <inkscape:path-effect
       effect="fillet_chamfer"
       id="path-effect26"
       is_visible="true"
       lpeversion="1"
       nodesatellites_param="F,0,0,1,0,0,0,1 @ F,0,0,1,0,0,0,1 @ F,0,0,1,0,0,0,1 @ F,0,0,1,0,0,0,1 @ F,0,0,1,0,0,0,1 @ F,0,0,1,0,0,0,1 @ F,0,0,1,0,0,0,1 @ F,0,0,1,0,0,0,1 @ F,0,0,1,0,0,0,1 @ F,0,0,1,0,0,0,1 @ F,0,0,1,0,0,0,1 @ F,0,0,1,0,0,0,1 @ F,0,0,1,0,0,0,1 @ F,0,0,1,0,0,0,1 @ F,0,0,1,0,0,0,1 @ F,0,0,1,0,0,0,1 @ F,0,0,1,0,0,0,1 @ F,0,0,1,0,0,0,1 @ F,0,0,1,0,0,0,1 @ F,0,1,1,0,1.1863555,0,1 @ F,0,0,1,0,0,0,1 @ F,0,0,1,0,0,0,1 @ F,0,0,1,0,0,0,1 | F,0,0,1,0,0.84790063,0,1 @ F,0,0,1,0,1.1863555,0,1 @ F,0,0,1,0,0,0,1 @ F,0,0,1,0,0,0,1 | F,0,0,1,0,0,0,1 @ F,0,0,1,0,0,0,1 @ F,0,0,1,0,0,0,1 | F,0,0,1,0,0,0,1 @ F,0,0,1,0,0,0,1 @ F,0,0,1,0,0,0,1"
       radius="0"
       unit="px"
       method="auto"
       mode="F"
       chamfer_steps="1"
       flexible="false"
       use_knot_distance="true"
       apply_no_radius="true"
       apply_with_radius="true"
       only_selected="false"
       hide_knots="false" />
    <inkscape:path-effect
       effect="fillet_chamfer"
       id="path-effect21"
       is_visible="true"
       lpeversion="1"
       nodesatellites_param="F,0,0,1,0,4.7366299,0,1 @ F,0,0,1,0,4.7627435,0,1 @ F,0,0,1,0,4.7366299,0,1"
       radius="0"
       unit="px"
       method="auto"
       mode="F"
       chamfer_steps="1"
       flexible="false"
       use_knot_distance="true"
       apply_no_radius="true"
       apply_with_radius="true"
       only_selected="false"
       hide_knots="false" />
    <inkscape:path-effect
       effect="fillet_chamfer"
       id="path-effect20"
       is_visible="true"
       lpeversion="1"
       nodesatellites_param="F,0,0,1,0,0,0,1 @ F,0,0,1,0,0,0,1 @ F,0,0,1,0,0,0,1"
       radius="0"
       unit="px"
       method="auto"
       mode="F"
       chamfer_steps="1"
       flexible="false"
       use_knot_distance="true"
       apply_no_radius="true"
       apply_with_radius="true"
       only_selected="false"
       hide_knots="false" />
    <radialGradient
       inkscape:collect="always"
       xlink:href="#linearGradient26"
       id="radialGradient27"
       cx="16.589512"
       cy="47.025375"
       fx="16.589512"
       fy="47.025375"
       r="28"
       gradientUnits="userSpaceOnUse"
       gradientTransform="matrix(2.7122661,-0.72674951,0.72674951,2.7122661,-65.674411,-71.433357)" />
    <inkscape:path-effect
       effect="fillet_chamfer"
       id="path-effect26-5"
       is_visible="true"
       lpeversion="1"
       nodesatellites_param="F,0,0,1,0,0,0,1 @ F,0,0,1,0,0,0,1 @ F,0,0,1,0,0,0,1 @ F,0,0,1,0,0,0,1 @ F,0,0,1,0,0,0,1 @ F,0,0,1,0,0,0,1 @ F,0,0,1,0,0,0,1 @ F,0,0,1,0,0,0,1 @ F,0,0,1,0,0,0,1 @ F,0,0,1,0,0,0,1 @ F,0,0,1,0,0,0,1 @ F,0,0,1,0,0,0,1 @ F,0,0,1,0,0,0,1 @ F,0,0,1,0,0,0,1 @ F,0,0,1,0,0,0,1 @ F,0,0,1,0,0,0,1 @ F,0,0,1,0,0,0,1 @ F,0,0,1,0,0,0,1 @ F,0,0,1,0,0,0,1 @ F,0,1,1,0,1.1863555,0,1 @ F,0,0,1,0,0,0,1 @ F,0,0,1,0,0,0,1 @ F,0,0,1,0,0,0,1 | F,0,0,1,0,0.84790063,0,1 @ F,0,0,1,0,1.1863555,0,1 @ F,0,0,1,0,0,0,1 @ F,0,0,1,0,0,0,1 | F,0,0,1,0,0,0,1 @ F,0,0,1,0,0,0,1 @ F,0,0,1,0,0,0,1 | F,0,0,1,0,0,0,1 @ F,0,0,1,0,0,0,1 @ F,0,0,1,0,0,0,1"
       radius="0"
       unit="px"
       method="auto"
       mode="F"
       chamfer_steps="1"
       flexible="false"
       use_knot_distance="true"
       apply_no_radius="true"
       apply_with_radius="true"
       only_selected="false"
       hide_knots="false" />
    <filter
       inkscape:collect="always"
       style="color-interpolation-filters:sRGB"
       id="filter27"
       x="-0.069397631"
       y="-0.033311387"
       width="1.1387949"
       height="1.0666185">
      <feGaussianBlur
         inkscape:collect="always"
         stdDeviation="0.61373135"
         id="feGaussianBlur27" />
    </filter>
    <filter
       inkscape:collect="always"
       style="color-interpolation-filters:sRGB"
       id="filter28"
       x="-0.071339131"
       y="-0.071339131"
       width="1.1426783"
       height="1.1426783">
      <feGaussianBlur
         inkscape:collect="always"
         stdDeviation="1.6020798"
         id="feGaussianBlur28" />
    </filter>
  </defs>
  <sodipodi:namedview
     id="namedview4"
     pagecolor="#ffffff"
     bordercolor="#000000"
     borderopacity="0.25"
     inkscape:showpageshadow="2"
     inkscape:pageopacity="0.0"
     inkscape:pagecheckerboard="0"
     inkscape:deskcolor="#d1d1d1"
     inkscape:zoom="9.0487571"
     inkscape:cx="14.145589"
     inkscape:cy="34.203592"
     inkscape:window-width="1920"
     inkscape:window-height="1018"
     inkscape:window-x="0"
     inkscape:window-y="0"
     inkscape:window-maximized="1"
     inkscape:current-layer="svg4" />
  <circle
     style="fill:url(#radialGradient27)"
     cx="32"
     cy="32"
     r="28"
     id="circle2" />
  <path
     d="m 31.761719,6.8144531 c -1.03482,0.038255 -1.95169,0.2294503 -2.472657,0.515625 l -8.037109,4.4160159 c -1.102583,0.60861 -0.02609,1.381753 2.134766,1.533203 -1.274342,1.753487 -2.029297,3.907169 -2.029297,6.232422 0,5.018322 3.506085,9.24406 8.193359,10.355468 v 9.115235 c -0.05033,-0.0019 -0.100729,0.0014 -0.15039,0.0098 -2.082706,0.3835 -3.669892,2.207167 -3.685547,4.392579 -0.01583,2.208793 1.579778,4.072421 3.689453,4.458984 l 0.0059,-0.07227 c 0.03929,0.03232 0.08184,0.06047 0.126953,0.08398 0.0046,-6.24e-4 0.0091,-0.0013 0.01367,-0.002 v 3.78125 c 5.3e-4,1.320332 1.080057,2.399231 2.400391,2.398437 1.319412,-5.28e-4 2.397908,-1.079027 2.398437,-2.398437 v -10.96875 c 3.578319,-0.580546 6.396485,-3.115393 6.396485,-6.277344 0,-3.161974 -2.819533,-5.697471 -6.396485,-6.277344 V 14.491022 a 1.1863555,1.1863555 135 0 1 1.186355,-1.186355 h 4.661302 c 2.52151,-1.22e-4 4.098335,-0.865532 2.839843,-1.558594 L 34.998047,7.3300781 C 34.340314,6.9687567 33.06823,6.7660831 31.761719,6.8144531 Z m -3.716552,6.4902349 h 0.319258 a 1.1863555,1.1863555 45 0 1 1.186356,1.186355 l 0,12.473801 c -3.138201,-1.023526 -5.392578,-3.962562 -5.392578,-7.453125 0,-2.226963 0.918362,-4.229268 2.397634,-5.653144 0.337216,-0.324587 1.021047,-0.553887 1.48933,-0.553887 z m 6.304442,17.636718 c 1.938275,0.509314 3.767755,1.894286 3.767755,3.447266 0,1.552977 -1.82948,2.939723 -3.767755,3.449219 z m -4.798828,10.542969 v 3.867187 c -0.809542,-0.274233 -1.63258,-1.03944 -1.625994,-1.955899 0.0065,-0.90554 0.827602,-1.640523 1.625994,-1.911288 z"
     style="fill:#ffffff;stroke-linecap:round;stroke-linejoin:round;stroke-miterlimit:2.1;paint-order:markers stroke fill"
     id="path26"
     sodipodi:nodetypes="ccccscccsccccccccscccccccccsccsccccsc"
     inkscape:path-effect="#path-effect26"
     inkscape:original-d="m 31.761719,6.8144531 c -1.03482,0.038255 -1.95169,0.2294503 -2.472657,0.515625 l -8.037109,4.4160159 c -1.102583,0.60861 -0.02609,1.381753 2.134766,1.533203 -1.274342,1.753487 -2.029297,3.907169 -2.029297,6.232422 0,5.018322 3.506085,9.24406 8.193359,10.355468 v 9.115235 c -0.05033,-0.0019 -0.100729,0.0014 -0.15039,0.0098 -2.082706,0.3835 -3.669892,2.207167 -3.685547,4.392579 -0.01583,2.208793 1.579778,4.072421 3.689453,4.458984 l 0.0059,-0.07227 c 0.03929,0.03232 0.08184,0.06047 0.126953,0.08398 0.0046,-6.24e-4 0.0091,-0.0013 0.01367,-0.002 v 3.78125 c 5.3e-4,1.320332 1.080057,2.399231 2.400391,2.398437 1.319412,-5.28e-4 2.397908,-1.079027 2.398437,-2.398437 v -10.96875 c 3.578319,-0.580546 6.396485,-3.115393 6.396485,-6.277344 0,-3.161974 -2.819533,-5.697471 -6.396485,-6.277344 v -14.80664 h 5.847657 c 2.52151,-1.22e-4 4.098335,-0.865532 2.839843,-1.558594 L 34.998047,7.3300781 C 34.340314,6.9687567 33.06823,6.7660831 31.761719,6.8144531 Z m -4.564453,6.4902349 h 2.353515 v 13.660156 c -3.138201,-1.023526 -5.392578,-3.962562 -5.392578,-7.453125 0,-2.533327 1.188422,-4.775932 3.039063,-6.207031 z m 7.152343,17.636718 c 1.938275,0.509314 3.767755,1.894286 3.767755,3.447266 0,1.552977 -1.82948,2.939723 -3.767755,3.449219 z m -4.798828,10.542969 v 3.867187 c -0.809542,-0.274233 -1.63258,-1.03944 -1.625994,-1.955899 0.0065,-0.90554 0.827602,-1.640523 1.625994,-1.911288 z"
     transform="translate(0.073365,1.7758103)" />
  <circle
     style="fill:none;fill-opacity:1;stroke:#010101;stroke-opacity:1;stroke-width:0.29999991;stroke-dasharray:none;filter:url(#filter28)"
     cx="31.977583"
     cy="32.030682"
     r="28"
     id="circle2-1" />
  <path
     d="m 31.761719,6.8144531 c -1.03482,0.038255 -1.95169,0.2294503 -2.472657,0.515625 l -8.037109,4.4160159 c -1.102583,0.60861 -0.02609,1.381753 2.134766,1.533203 -1.274342,1.753487 -2.029297,3.907169 -2.029297,6.232422 0,5.018322 3.506085,9.24406 8.193359,10.355468 v 9.115235 c -0.05033,-0.0019 -0.100729,0.0014 -0.15039,0.0098 -2.082706,0.3835 -3.669892,2.207167 -3.685547,4.392579 -0.01583,2.208793 1.579778,4.072421 3.689453,4.458984 l 0.0059,-0.07227 c 0.03929,0.03232 0.08184,0.06047 0.126953,0.08398 0.0046,-6.24e-4 0.0091,-0.0013 0.01367,-0.002 v 3.78125 c 5.3e-4,1.320332 1.080057,2.399231 2.400391,2.398437 1.319412,-5.28e-4 2.397908,-1.079027 2.398437,-2.398437 v -10.96875 c 3.578319,-0.580546 6.396485,-3.115393 6.396485,-6.277344 0,-3.161974 -2.819533,-5.697471 -6.396485,-6.277344 V 14.491022 a 1.1863555,1.1863555 135 0 1 1.186355,-1.186355 h 4.661302 c 2.52151,-1.22e-4 4.098335,-0.865532 2.839843,-1.558594 L 34.998047,7.3300781 C 34.340314,6.9687567 33.06823,6.7660831 31.761719,6.8144531 Z m -3.716552,6.4902349 h 0.319258 a 1.1863555,1.1863555 45 0 1 1.186356,1.186355 l 0,12.473801 c -3.138201,-1.023526 -5.392578,-3.962562 -5.392578,-7.453125 0,-2.226963 0.918362,-4.229268 2.397634,-5.653144 0.337216,-0.324587 1.021047,-0.553887 1.48933,-0.553887 z m 6.304442,17.636718 c 1.938275,0.509314 3.767755,1.894286 3.767755,3.447266 0,1.552977 -1.82948,2.939723 -3.767755,3.449219 z m -4.798828,10.542969 v 3.867187 c -0.809542,-0.274233 -1.63258,-1.03944 -1.625994,-1.955899 0.0065,-0.90554 0.827602,-1.640523 1.625994,-1.911288 z"
     style="fill:none;stroke-linecap:round;stroke-linejoin:round;stroke-miterlimit:2.1;paint-order:markers stroke fill;fill-opacity:1;stroke:#0005ff;stroke-opacity:1;stroke-width:0.2;stroke-dasharray:none;filter:url(#filter27)"
     id="path26-2"
     sodipodi:nodetypes="ccccscccsccccccccscccccccccsccsccccsc"
     inkscape:path-effect="#path-effect26-5"
     inkscape:original-d="m 31.761719,6.8144531 c -1.03482,0.038255 -1.95169,0.2294503 -2.472657,0.515625 l -8.037109,4.4160159 c -1.102583,0.60861 -0.02609,1.381753 2.134766,1.533203 -1.274342,1.753487 -2.029297,3.907169 -2.029297,6.232422 0,5.018322 3.506085,9.24406 8.193359,10.355468 v 9.115235 c -0.05033,-0.0019 -0.100729,0.0014 -0.15039,0.0098 -2.082706,0.3835 -3.669892,2.207167 -3.685547,4.392579 -0.01583,2.208793 1.579778,4.072421 3.689453,4.458984 l 0.0059,-0.07227 c 0.03929,0.03232 0.08184,0.06047 0.126953,0.08398 0.0046,-6.24e-4 0.0091,-0.0013 0.01367,-0.002 v 3.78125 c 5.3e-4,1.320332 1.080057,2.399231 2.400391,2.398437 1.319412,-5.28e-4 2.397908,-1.079027 2.398437,-2.398437 v -10.96875 c 3.578319,-0.580546 6.396485,-3.115393 6.396485,-6.277344 0,-3.161974 -2.819533,-5.697471 -6.396485,-6.277344 v -14.80664 h 5.847657 c 2.52151,-1.22e-4 4.098335,-0.865532 2.839843,-1.558594 L 34.998047,7.3300781 C 34.340314,6.9687567 33.06823,6.7660831 31.761719,6.8144531 Z m -4.564453,6.4902349 h 2.353515 v 13.660156 c -3.138201,-1.023526 -5.392578,-3.962562 -5.392578,-7.453125 0,-2.533327 1.188422,-4.775932 3.039063,-6.207031 z m 7.152343,17.636718 c 1.938275,0.509314 3.767755,1.894286 3.767755,3.447266 0,1.552977 -1.82948,2.939723 -3.767755,3.449219 z m -4.798828,10.542969 v 3.867187 c -0.809542,-0.274233 -1.63258,-1.03944 -1.625994,-1.955899 0.0065,-0.90554 0.827602,-1.640523 1.625994,-1.911288 z"
     transform="translate(0.05094816,1.8064919)" />
</svg>
