<?xml version="1.0" encoding="UTF-8" standalone="no"?>
<svg
   height="64"
   width="64"
   version="1.1"
   id="svg4"
   sodipodi:docname="adobe-air.svg"
   inkscape:version="1.3.2 (091e20ef0f, 2023-11-25, custom)"
   xmlns:inkscape="http://www.inkscape.org/namespaces/inkscape"
   xmlns:sodipodi="http://sodipodi.sourceforge.net/DTD/sodipodi-0.dtd"
   xmlns="http://www.w3.org/2000/svg"
   xmlns:svg="http://www.w3.org/2000/svg">
  <defs
     id="defs4">
    <rect
       x="51.550888"
       y="22.651217"
       width="49.367706"
       height="17.69709"
       id="rect7" />
    <filter
       inkscape:collect="always"
       style="color-interpolation-filters:sRGB"
       id="filter6"
       x="-0.069486645"
       y="-0.069486645"
       width="1.1389733"
       height="1.1389733">
      <feGaussianBlur
         inkscape:collect="always"
         stdDeviation="1.5588551"
         id="feGaussianBlur6" />
    </filter>
  </defs>
  <sodipodi:namedview
     id="namedview4"
     pagecolor="#ffffff"
     bordercolor="#000000"
     borderopacity="0.25"
     inkscape:showpageshadow="2"
     inkscape:pageopacity="0.0"
     inkscape:pagecheckerboard="0"
     inkscape:deskcolor="#d1d1d1"
     inkscape:zoom="12.6875"
     inkscape:cx="31.960591"
     inkscape:cy="32"
     inkscape:window-width="1920"
     inkscape:window-height="1012"
     inkscape:window-x="0"
     inkscape:window-y="0"
     inkscape:window-maximized="1"
     inkscape:current-layer="svg4" />
  <rect
     x="4"
     y="4"
     width="56"
     height="56"
     rx="16.964949"
     ry="16.964949"
     style="fill:#c51100;fill-opacity:1"
     id="rect1-3" />
  <rect
     x="3.9999983"
     y="3.9999983"
     width="56"
     height="56"
     rx="16.964949"
     ry="16.964949"
     style="fill:none;stroke:#000000;stroke-width:0.3;stroke-dasharray:none;stroke-opacity:1;filter:url(#filter6)"
     id="rect1-1" />
  <text
     xml:space="preserve"
     id="text7"
     style="font-weight:bold;font-family:'Myriad Pro';-inkscape-font-specification:'Myriad Pro Bold';white-space:pre;shape-inside:url(#rect7);display:inline;fill:#c55700;fill-opacity:1;stroke:#000000;stroke-width:0.3"
     transform="translate(11.782506,6.7825062)" />
  <path
     style="fill:#ffffff"
     d="m37.220703 13.841797c-3.923828 0.095703-6.220703 3.158203-6.220703 3.158203s-2 7-5 10-9 5-9 5-3 1-3 5c0 6 4 7 7 7s5-1 9 0c5.901146 1.475287 11 6 11 6s7 2 9-4c1-3-3-8-3-8s-4-3.90098-4-9c0-3 2-5 2-9 0-2-1-5-6-6-0.625-0.125-1.21875-0.171875-1.779297-0.158203zm-3.220703 13.158203c3.865993 0 7 3.134007 7 7s-3.134007 7-7 7-7-3.134007-7-7 3.134007-7 7-7z"
     id="path4" />
</svg>
