<?xml version="1.0" encoding="UTF-8" standalone="no"?>
<svg
   width="64"
   height="64"
   version="1"
   id="svg4"
   sodipodi:docname="airtame-application.svg"
   inkscape:version="1.4 (e7c3feb100, 2024-10-09)"
   xmlns:inkscape="http://www.inkscape.org/namespaces/inkscape"
   xmlns:sodipodi="http://sodipodi.sourceforge.net/DTD/sodipodi-0.dtd"
   xmlns:xlink="http://www.w3.org/1999/xlink"
   xmlns="http://www.w3.org/2000/svg"
   xmlns:svg="http://www.w3.org/2000/svg">
  <defs
     id="defs4">
    <linearGradient
       id="linearGradient1"
       inkscape:collect="always">
      <stop
         style="stop-color:#3c77e1;stop-opacity:1;"
         offset="0"
         id="stop1" />
      <stop
         style="stop-color:#3ca4e1;stop-opacity:1;"
         offset="1"
         id="stop2" />
    </linearGradient>
    <inkscape:path-effect
       effect="fillet_chamfer"
       id="path-effect5"
       is_visible="true"
       lpeversion="1"
       nodesatellites_param="F,0,0,1,0,0,0,1 @ F,0,0,1,0,0,0,1 @ F,0,0,1,0,0,0,1 @ F,0,0,1,0,3.2956004,0,1 @ F,0,0,1,0,0,0,1 @ F,0,0,1,0,0,0,1 @ F,0,0,1,0,0,0,1 @ F,0,0,1,0,0,0,1 @ F,0,0,1,0,0,0,1 @ F,0,0,1,0,0,0,1 @ F,0,0,1,0,0,0,1 @ F,0,0,1,0,0,0,1 @ F,0,0,1,0,0,0,1 @ F,0,0,1,0,3.6477044,0,1 @ F,0,0,1,0,0,0,1 @ F,0,0,1,0,0,0,1 @ F,0,0,1,0,0,0,1 @ F,0,0,1,0,0,0,1 @ F,0,0,1,0,0,0,1 @ F,0,0,1,0,0,0,1"
       radius="0"
       unit="px"
       method="auto"
       mode="F"
       chamfer_steps="1"
       flexible="false"
       use_knot_distance="true"
       apply_no_radius="true"
       apply_with_radius="true"
       only_selected="false"
       hide_knots="false" />
    <inkscape:path-effect
       effect="fillet_chamfer"
       id="path-effect5-3"
       is_visible="true"
       lpeversion="1"
       nodesatellites_param="F,0,0,1,0,0,0,1 @ F,0,0,1,0,0,0,1 @ F,0,0,1,0,0,0,1 @ F,0,0,1,0,0,0,1 @ F,0,0,1,0,0,0,1 @ F,0,1,1,0,0,0,1 @ F,0,0,1,0,0,0,1 @ F,0,0,1,0,0,0,1 @ F,0,0,1,0,0,0,1 @ F,0,0,1,0,0,0,1 @ F,0,0,1,0,0,0,1 @ F,0,0,1,0,0,0,1 @ F,0,0,1,0,0,0,1 @ F,0,0,1,0,0,0,1 @ F,0,0,1,0,0,0,1 @ F,0,0,1,0,0,0,1 @ F,0,0,1,0,0,0,1 @ F,0,0,1,0,0,0,1 @ F,0,0,1,0,0,0,1 @ F,0,0,1,0,0,0,1 | "
       radius="0"
       unit="px"
       method="auto"
       mode="F"
       chamfer_steps="1"
       flexible="false"
       use_knot_distance="true"
       apply_no_radius="true"
       apply_with_radius="true"
       only_selected="false"
       hide_knots="false" />
    <inkscape:path-effect
       effect="fillet_chamfer"
       id="path-effect5-35"
       is_visible="true"
       lpeversion="1"
       nodesatellites_param="F,0,0,1,0,0,0,1 @ F,0,0,1,0,0,0,1 @ F,0,0,1,0,0,0,1 @ F,0,0,1,0,0,0,1 @ F,0,0,1,0,0,0,1 @ F,0,1,1,0,0,0,1 @ F,0,0,1,0,0,0,1 @ F,0,0,1,0,0,0,1 @ F,0,0,1,0,0,0,1 @ F,0,0,1,0,0,0,1 @ F,0,0,1,0,0,0,1 @ F,0,0,1,0,0,0,1 @ F,0,0,1,0,0,0,1 @ F,0,0,1,0,0,0,1 @ F,0,0,1,0,0,0,1 @ F,0,0,1,0,0,0,1 @ F,0,0,1,0,0,0,1 @ F,0,0,1,0,0,0,1 @ F,0,0,1,0,0,0,1 @ F,0,0,1,0,0,0,1"
       radius="0"
       unit="px"
       method="auto"
       mode="F"
       chamfer_steps="1"
       flexible="false"
       use_knot_distance="true"
       apply_no_radius="true"
       apply_with_radius="true"
       only_selected="false"
       hide_knots="false" />
    <linearGradient
       inkscape:collect="always"
       xlink:href="#linearGradient1"
       id="linearGradient2"
       x1="2.0790715"
       y1="58.720066"
       x2="58.271637"
       y2="17.561056"
       gradientUnits="userSpaceOnUse" />
    <filter
       inkscape:collect="always"
       style="color-interpolation-filters:sRGB"
       id="filter2"
       x="-0.045432075"
       y="-0.072696684"
       width="1.0908728"
       height="1.1454311">
      <feGaussianBlur
         inkscape:collect="always"
         stdDeviation="0.71690003"
         id="feGaussianBlur2" />
    </filter>
    <inkscape:path-effect
       effect="fillet_chamfer"
       id="path-effect5-0"
       is_visible="true"
       lpeversion="1"
       nodesatellites_param="F,0,0,1,0,0,0,1 @ F,0,0,1,0,0,0,1 @ F,0,0,1,0,0,0,1 @ F,0,0,1,0,3.2956004,0,1 @ F,0,0,1,0,0,0,1 @ F,0,0,1,0,0,0,1 @ F,0,0,1,0,0,0,1 @ F,0,0,1,0,0,0,1 @ F,0,0,1,0,0,0,1 @ F,0,0,1,0,0,0,1 @ F,0,0,1,0,0,0,1 @ F,0,0,1,0,0,0,1 @ F,0,0,1,0,0,0,1 @ F,0,0,1,0,3.6477044,0,1 @ F,0,0,1,0,0,0,1 @ F,0,0,1,0,0,0,1 @ F,0,0,1,0,0,0,1 @ F,0,0,1,0,0,0,1 @ F,0,0,1,0,0,0,1 @ F,0,0,1,0,0,0,1"
       radius="0"
       unit="px"
       method="auto"
       mode="F"
       chamfer_steps="1"
       flexible="false"
       use_knot_distance="true"
       apply_no_radius="true"
       apply_with_radius="true"
       only_selected="false"
       hide_knots="false" />
    <filter
       inkscape:collect="always"
       style="color-interpolation-filters:sRGB"
       id="filter3"
       x="-0.13184155"
       y="-0.19052126"
       width="1.263659"
       height="1.3810533">
      <feGaussianBlur
         inkscape:collect="always"
         stdDeviation="2.1008938"
         id="feGaussianBlur3" />
    </filter>
  </defs>
  <sodipodi:namedview
     id="namedview4"
     pagecolor="#ffffff"
     bordercolor="#000000"
     borderopacity="0.25"
     inkscape:showpageshadow="2"
     inkscape:pageopacity="0.0"
     inkscape:pagecheckerboard="0"
     inkscape:deskcolor="#d1d1d1"
     inkscape:zoom="17.6875"
     inkscape:cx="40.59364"
     inkscape:cy="27.70318"
     inkscape:current-layer="svg4" />
  <path
     style="fill:url(#linearGradient2);fill-opacity:1;stroke:#000000;stroke-width:0;stroke-dasharray:none;stroke-opacity:1"
     d="m 26.328125,18.623047 c -4.604058,-0.229419 -9.468601,1.232501 -12.75765,4.551248 -1.344384,1.401181 -1.256787,3.720135 0.0018,5.142111 0.678572,0.892386 1.223397,1.556138 1.671586,2.053342 1.192031,1.322396 1.340107,2.348425 -0.10606,3.446811 -0.554268,0.420975 -1.120212,0.903996 -1.660427,1.442536 -1.04677,1.468538 -1.171791,3.272397 -0.121328,4.748486 1.026357,1.613426 2.229563,3.430696 4.132104,4.041625 1.581062,0.430262 2.983309,-0.413136 4.306714,-1.159164 1.347928,-1.044617 3.046664,-1.220059 4.689863,-1.026725 2.162324,0.321058 3.825607,1.967274 5.908033,2.563141 5.330738,1.937422 11.532514,1.133283 16.21627,-2.061557 1.477608,-0.892997 2.897725,-2.282413 2.818446,-4.143449 -0.200053,-2.167895 -1.147732,-3.409177 -2.772885,-4.720181 -1.370955,-1.105932 -1.377151,-2.174744 0.262473,-3.344251 1.139584,-0.81284 2.075919,-1.806102 2.434637,-3.352683 0.294945,-2.482509 -1.646198,-4.458903 -3.361408,-5.9623 -1.3001,-1.257892 -3.468393,-1.25189 -4.918958,-0.264958 -1.522558,1.097013 -3.369666,1.770951 -5.269024,1.572817 -2.083305,-0.129781 -3.65459,-1.775452 -5.620137,-2.328874 -1.873391,-0.700336 -3.856842,-1.101364 -5.854041,-1.197975 z"
     id="path5"
     sodipodi:nodetypes="scccccccccccsccccccss"
     inkscape:path-effect="#path-effect5"
     inkscape:original-d="m 26.328125,18.623047 c -4.604058,-0.229419 -9.468601,1.232501 -12.75765,4.551248 -1.344384,1.401181 -1.256787,3.720135 0.0018,5.142111 3.01652,3.967011 3.390004,3.415842 4.3805,3.800773 -1.083177,0.459231 -2.890073,1.561504 -4.475401,3.141916 -1.04677,1.468538 -1.171791,3.272397 -0.121328,4.748486 1.026357,1.613426 2.229563,3.430696 4.132104,4.041625 1.581062,0.430262 2.983309,-0.413136 4.306714,-1.159164 1.347928,-1.044617 3.046664,-1.220059 4.689863,-1.026725 2.162324,0.321058 3.825607,1.967274 5.908033,2.563141 5.330738,1.937422 11.532514,1.133283 16.21627,-2.061557 1.477608,-0.892997 2.897725,-2.282413 2.818446,-4.143449 -0.200053,-2.167895 -1.147732,-3.409177 -2.772885,-4.720181 -1.082903,-0.873573 -2.846504,-1.43842 -2.846504,-1.43842 2.245416,-1.432082 4.880733,-2.400564 5.543614,-5.258514 0.294945,-2.482509 -1.646198,-4.458903 -3.361408,-5.9623 -1.3001,-1.257892 -3.468393,-1.25189 -4.918958,-0.264958 -1.522558,1.097013 -3.369666,1.770951 -5.269024,1.572817 -2.083305,-0.129781 -3.65459,-1.775452 -5.620137,-2.328874 -1.873391,-0.700336 -3.856842,-1.101364 -5.854041,-1.197975 z"
     transform="matrix(1.2975689,0,0,1.2975689,-9.5388268,-9.5670401)" />
  <path
     style="fill:none;fill-opacity:1;stroke:#000000;stroke-width:0.15413439;stroke-dasharray:none;stroke-opacity:1;filter:url(#filter3)"
     d="m 26.328125,18.623047 c -4.604058,-0.229419 -9.468601,1.232501 -12.75765,4.551248 -1.344384,1.401181 -1.256787,3.720135 0.0018,5.142111 0.678572,0.892386 1.223397,1.556138 1.671586,2.053342 1.192031,1.322396 1.340107,2.348425 -0.10606,3.446811 -0.554268,0.420975 -1.120212,0.903996 -1.660427,1.442536 -1.04677,1.468538 -1.171791,3.272397 -0.121328,4.748486 1.026357,1.613426 2.229563,3.430696 4.132104,4.041625 1.581062,0.430262 2.983309,-0.413136 4.306714,-1.159164 1.347928,-1.044617 3.046664,-1.220059 4.689863,-1.026725 2.162324,0.321058 3.825607,1.967274 5.908033,2.563141 5.330738,1.937422 11.532514,1.133283 16.21627,-2.061557 1.477608,-0.892997 2.897725,-2.282413 2.818446,-4.143449 -0.200053,-2.167895 -1.147732,-3.409177 -2.772885,-4.720181 -1.370955,-1.105932 -1.377151,-2.174744 0.262473,-3.344251 1.139584,-0.81284 2.075919,-1.806102 2.434637,-3.352683 0.294945,-2.482509 -1.646198,-4.458903 -3.361408,-5.9623 -1.3001,-1.257892 -3.468393,-1.25189 -4.918958,-0.264958 -1.522558,1.097013 -3.369666,1.770951 -5.269024,1.572817 -2.083305,-0.129781 -3.65459,-1.775452 -5.620137,-2.328874 -1.873391,-0.700336 -3.856842,-1.101364 -5.854041,-1.197975 z"
     id="path5-9"
     sodipodi:nodetypes="scccccccccccsccccccss"
     inkscape:path-effect="#path-effect5-0"
     inkscape:original-d="m 26.328125,18.623047 c -4.604058,-0.229419 -9.468601,1.232501 -12.75765,4.551248 -1.344384,1.401181 -1.256787,3.720135 0.0018,5.142111 3.01652,3.967011 3.390004,3.415842 4.3805,3.800773 -1.083177,0.459231 -2.890073,1.561504 -4.475401,3.141916 -1.04677,1.468538 -1.171791,3.272397 -0.121328,4.748486 1.026357,1.613426 2.229563,3.430696 4.132104,4.041625 1.581062,0.430262 2.983309,-0.413136 4.306714,-1.159164 1.347928,-1.044617 3.046664,-1.220059 4.689863,-1.026725 2.162324,0.321058 3.825607,1.967274 5.908033,2.563141 5.330738,1.937422 11.532514,1.133283 16.21627,-2.061557 1.477608,-0.892997 2.897725,-2.282413 2.818446,-4.143449 -0.200053,-2.167895 -1.147732,-3.409177 -2.772885,-4.720181 -1.082903,-0.873573 -2.846504,-1.43842 -2.846504,-1.43842 2.245416,-1.432082 4.880733,-2.400564 5.543614,-5.258514 0.294945,-2.482509 -1.646198,-4.458903 -3.361408,-5.9623 -1.3001,-1.257892 -3.468393,-1.25189 -4.918958,-0.264958 -1.522558,1.097013 -3.369666,1.770951 -5.269024,1.572817 -2.083305,-0.129781 -3.65459,-1.775452 -5.620137,-2.328874 -1.873391,-0.700336 -3.856842,-1.101364 -5.854041,-1.197975 z"
     transform="matrix(1.2975689,0,0,1.2975689,-9.5388268,-9.5670401)" />
  <path
     style="fill:#ffffff;fill-opacity:1;stroke-width:1.21784"
     d="m 24.892434,19.845072 c -2.90207,-0.140612 -5.797759,0.36792 -8.329852,1.541331 -1.98329,0.919088 -4.048376,2.410139 -4.048376,2.925676 0,0.598236 2.637258,3.544113 3.173051,3.544113 0.251578,0 1.345028,-0.488031 2.430927,-1.08464 2.564653,-1.409083 4.185065,-1.788475 6.907453,-1.612692 1.897703,0.122539 2.739322,0.398354 5.80378,1.898122 2.004695,0.981111 4.525744,1.947311 5.713394,2.193069 4.098549,0.848106 9.374533,-0.07853 12.735019,-2.235883 2.70374,-1.735755 2.746567,-1.88677 1.079883,-3.900904 -0.783268,-0.946548 -1.668235,-1.722105 -1.969478,-1.722105 -0.301248,0 -1.074768,0.366296 -1.717348,0.813483 -1.788144,1.244408 -4.199199,1.955207 -6.617262,1.955207 -2.521268,0 -4.024181,-0.432539 -6.788523,-1.964723 -2.562397,-1.420256 -5.470595,-2.209442 -8.372668,-2.350054 z m -0.856295,14.590324 c -2.613728,0 -3.829067,0.150331 -5.380392,0.670766 -2.456087,0.823975 -5.860254,2.807722 -6.127269,3.567897 -0.211198,0.601251 2.281855,3.957988 2.939947,3.957988 0.198109,0 1.223636,-0.493009 2.2787,-1.094154 2.384621,-1.358691 3.690937,-1.712591 6.327072,-1.712591 2.449084,0 4.190027,0.516916 6.864636,2.040837 1.081804,0.616381 2.855531,1.382178 3.943717,1.703077 2.760065,0.813943 7.146997,0.811962 10.028172,-0.0095 2.426858,-0.691939 6.41103,-2.977601 6.569691,-3.767701 0.140515,-0.69966 -2.510875,-3.705858 -3.268195,-3.705858 -0.342021,0 -0.984314,0.26112 -1.427161,0.58038 -2.621489,1.88994 -6.197842,2.622643 -9.362165,1.921906 -0.943816,-0.209021 -2.724684,-0.938228 -3.953229,-1.62222 -3.610991,-2.010422 -5.54804,-2.530828 -9.433524,-2.530828 z"
     id="path3" />
  <path
     style="fill:none;fill-opacity:1;stroke-width:0.1;stroke:#002eff;stroke-opacity:1;stroke-dasharray:none;filter:url(#filter2)"
     d="m 24.892434,19.845073 c -2.90207,-0.140612 -5.797759,0.36792 -8.329852,1.541331 -1.98329,0.919088 -4.048376,2.410139 -4.048376,2.925676 0,0.598236 2.637258,3.544113 3.173051,3.544113 0.251578,0 1.345028,-0.488031 2.430927,-1.08464 2.564653,-1.409083 4.185065,-1.788475 6.907453,-1.612692 1.897703,0.122539 2.739322,0.398354 5.80378,1.898122 2.004695,0.981111 4.525744,1.947311 5.713394,2.193069 4.098549,0.848106 9.374533,-0.07853 12.735019,-2.235883 2.70374,-1.735755 2.746567,-1.88677 1.079883,-3.900904 -0.783268,-0.946548 -1.668235,-1.722105 -1.969478,-1.722105 -0.301248,0 -1.074768,0.366296 -1.717348,0.813483 -1.788144,1.244408 -4.199199,1.955207 -6.617262,1.955207 -2.521268,0 -4.024181,-0.432539 -6.788523,-1.964723 -2.562397,-1.420256 -5.470595,-2.209442 -8.372668,-2.350054 z m -0.856295,14.590324 c -2.613728,0 -3.829067,0.150331 -5.380392,0.670766 -2.456087,0.823975 -5.860254,2.807722 -6.127269,3.567897 -0.211198,0.601251 2.281855,3.957988 2.939947,3.957988 0.198109,0 1.223636,-0.493009 2.2787,-1.094154 2.384621,-1.358691 3.690937,-1.712591 6.327072,-1.712591 2.449084,0 4.190027,0.516916 6.864636,2.040837 1.081804,0.616381 2.855531,1.382178 3.943717,1.703077 2.760065,0.813943 7.146997,0.811962 10.028172,-0.0095 2.426858,-0.691939 6.41103,-2.977601 6.569691,-3.767701 0.140515,-0.69966 -2.510875,-3.705858 -3.268195,-3.705858 -0.342021,0 -0.984314,0.26112 -1.427161,0.58038 -2.621489,1.88994 -6.197842,2.622643 -9.362165,1.921906 -0.943816,-0.209021 -2.724684,-0.938228 -3.953229,-1.62222 -3.610991,-2.010422 -5.54804,-2.530828 -9.433524,-2.530828 z"
     id="path3-9" />
</svg>
