<?xml version="1.0" encoding="UTF-8" standalone="no"?>
<svg
   width="64"
   height="64"
   version="1.1"
   id="svg5"
   sodipodi:docname="airvpn.svg"
   inkscape:version="1.4 (e7c3feb100, 2024-10-09)"
   xmlns:inkscape="http://www.inkscape.org/namespaces/inkscape"
   xmlns:sodipodi="http://sodipodi.sourceforge.net/DTD/sodipodi-0.dtd"
   xmlns:xlink="http://www.w3.org/1999/xlink"
   xmlns="http://www.w3.org/2000/svg"
   xmlns:svg="http://www.w3.org/2000/svg">
  <defs
     id="defs5">
    <linearGradient
       id="linearGradient7"
       inkscape:collect="always">
      <stop
         style="stop-color:#58d3f3;stop-opacity:1;"
         offset="0"
         id="stop7" />
      <stop
         style="stop-color:#58a5f3;stop-opacity:1;"
         offset="1"
         id="stop8" />
    </linearGradient>
    <linearGradient
       id="linearGradient5"
       inkscape:collect="always">
      <stop
         style="stop-color:#006680;stop-opacity:1;"
         offset="0"
         id="stop5" />
      <stop
         style="stop-color:#004480;stop-opacity:1;"
         offset="1"
         id="stop6" />
    </linearGradient>
    <linearGradient
       inkscape:collect="always"
       xlink:href="#linearGradient5"
       id="linearGradient6"
       x1="1.0600706"
       y1="57.385155"
       x2="61.639576"
       y2="2.2049413"
       gradientUnits="userSpaceOnUse" />
    <linearGradient
       inkscape:collect="always"
       xlink:href="#linearGradient7"
       id="linearGradient8"
       x1="3.2369895"
       y1="49.469982"
       x2="56.240284"
       y2="1.583058"
       gradientUnits="userSpaceOnUse" />
  </defs>
  <sodipodi:namedview
     id="namedview5"
     pagecolor="#ffffff"
     bordercolor="#000000"
     borderopacity="0.25"
     inkscape:showpageshadow="2"
     inkscape:pageopacity="0.0"
     inkscape:pagecheckerboard="0"
     inkscape:deskcolor="#d1d1d1"
     inkscape:zoom="12.506951"
     inkscape:cx="39.05828"
     inkscape:cy="34.620748"
     inkscape:current-layer="svg5" />
  <path
     style="fill:url(#linearGradient6)"
     d="M 28.699218,12 C 21.20831,11.991678 16.538643,16.875174 14.367188,21.402344 8.368943,23.67634 4,29.422364 4,36.140624 4,44.779012 11.147277,52 19.8125,52 h 24.375 C 52.852722,52 60,44.779946 60,36.140624 c 0,-8.639566 -7.147276,-15.86328 -15.8125,-15.86328 -0.08204,7.2e-5 -0.16408,0.0014 -0.246094,0.004 -0.0699,0.0022 -0.12946,0.03982 -0.19922,0.04296 C 43.2363,20.045962 42.70463,19.906995 42.164062,19.691406 38.22315,14.890203 36.190126,12.008322 28.699218,12 Z"
     id="path2" />
  <path
     style="fill:url(#linearGradient8);fill-opacity:1"
     d="m 28.7,20 c -4.3148,0 -7.8126,3.5196 -7.8126,7.8612 0.006,0.1983 0.0202,0.39354 0.04188,0.5856 -0.35548,-0.07188 -0.72716,-0.12908 -1.11664,-0.16916 -4.3148,0 -7.8124,3.5196 -7.8124,7.8612 0,4.3416 3.4978,7.8612 7.8124,7.8612 h 24.374 c 4.3148,0 7.81336,-3.5196 7.81336,-7.8612 0,-4.3416 -3.49876,-7.8612 -7.81336,-7.8612 -0.86062,0.0266 -1.66284,0.20722 -2.3972,0.5104 -1.09378,-1.39398 -2.7882,-2.2888 -4.6902,-2.2888 -0.2418,0.0134 -0.47424,0.02128 -0.69824,0.04126 -0.62446,-3.7126 -3.8348,-6.54 -7.7022,-6.54 z"
     id="path4" />
</svg>
