<?xml version="1.0" encoding="UTF-8" standalone="no"?>
<svg
   width="64"
   height="64"
   version="1"
   id="svg5"
   sodipodi:docname="akregator.svg"
   inkscape:version="1.4 (e7c3feb100, 2024-10-09)"
   xmlns:inkscape="http://www.inkscape.org/namespaces/inkscape"
   xmlns:sodipodi="http://sodipodi.sourceforge.net/DTD/sodipodi-0.dtd"
   xmlns:xlink="http://www.w3.org/1999/xlink"
   xmlns="http://www.w3.org/2000/svg"
   xmlns:svg="http://www.w3.org/2000/svg">
  <defs
     id="defs5">
    <linearGradient
       id="linearGradient5"
       inkscape:collect="always">
      <stop
         style="stop-color:#f59335;stop-opacity:1;"
         offset="0"
         id="stop5" />
      <stop
         style="stop-color:#f5b435;stop-opacity:1;"
         offset="1"
         id="stop6" />
    </linearGradient>
    <inkscape:path-effect
       effect="fillet_chamfer"
       id="path-effect5"
       is_visible="true"
       lpeversion="1"
       nodesatellites_param="F,0,0,1,0,12.130152,0,1 @ F,0,1,1,0,12.130152,0,1 @ F,0,1,1,0,12.130152,0,1"
       radius="0"
       unit="px"
       method="auto"
       mode="F"
       chamfer_steps="1"
       flexible="false"
       use_knot_distance="true"
       apply_no_radius="true"
       apply_with_radius="true"
       only_selected="false"
       hide_knots="false" />
    <radialGradient
       inkscape:collect="always"
       xlink:href="#linearGradient5"
       id="radialGradient6"
       cx="6.0789804"
       cy="58.062031"
       fx="6.0789804"
       fy="58.062031"
       r="25.633751"
       gradientTransform="matrix(2.1667479,0,0,2.1703402,-7.092638,-67.909657)"
       gradientUnits="userSpaceOnUse" />
  </defs>
  <sodipodi:namedview
     id="namedview5"
     pagecolor="#ffffff"
     bordercolor="#000000"
     borderopacity="0.25"
     inkscape:showpageshadow="2"
     inkscape:pageopacity="0.0"
     inkscape:pagecheckerboard="0"
     inkscape:deskcolor="#d1d1d1"
     inkscape:zoom="17.6875"
     inkscape:cx="40.791519"
     inkscape:cy="35.335689"
     inkscape:current-layer="svg5" />
  <path
     style="fill:url(#radialGradient6)"
     d="M 57.153492,45.910484 C 52.783636,16.629741 32.41481,8.8314946 18.095024,6.7546668 11.471464,5.7940384 6.0000004,11.431686 6.0000004,18.130984 l 0,27.738895 A 12.130152,12.130152 45 0 0 18.130152,58.000031 l 27.738896,0 c 6.699298,0 12.272394,-5.469673 11.284444,-12.089547 z"
     id="path2"
     sodipodi:nodetypes="cccc"
     inkscape:path-effect="#path-effect5"
     inkscape:original-d="M 57.9992,58.000031 C 57.9992,6.0889344 16.542331,6.0008316 6.0000004,6.0008316 V 58.000031 Z" />
  <path
     style="fill:#ffffff;stroke-width:1.0691"
     d="m 11.999908,16.720301 c 0,2.257909 0.960252,3.207257 3.207257,3.207257 15.942202,0 28.865308,12.923106 28.865308,28.865308 0,1.994915 1.088329,3.207257 3.207257,3.207257 2.180934,0 3.207257,-1.274349 3.207257,-3.207257 0,-19.485152 -15.79467,-35.27982 -35.279822,-35.27982 -2.132612,0 -3.207257,1.038082 -3.207257,3.207255 z m 0,12.829027 c 0,2.196757 0.898524,3.207256 3.207257,3.207256 8.856731,0 16.036282,7.179765 16.036282,16.036282 0,1.888027 1.083817,3.207257 3.207257,3.207257 2.071888,0 3.207256,-1.150336 3.207256,-3.207257 0,-12.399253 -10.051542,-22.450795 -22.450795,-22.450795 -2.071033,0 -3.207257,0.915138 -3.207257,3.207257 z m 6.414513,9.621769 c -3.542735,0 -6.414513,2.871564 -6.414513,6.414514 0,3.542949 2.871778,6.414512 6.414513,6.414512 3.54295,0 6.414513,-2.871563 6.414513,-6.414512 0,-3.54295 -2.871563,-6.414514 -6.414513,-6.414514 z"
     id="path4" />
</svg>
