<?xml version="1.0" encoding="UTF-8" standalone="no"?>
<svg
   width="64"
   height="64"
   version="1.1"
   id="svg6"
   sodipodi:docname="alan-wake.svg"
   inkscape:version="1.4 (e7c3feb100, 2024-10-09)"
   xmlns:inkscape="http://www.inkscape.org/namespaces/inkscape"
   xmlns:sodipodi="http://sodipodi.sourceforge.net/DTD/sodipodi-0.dtd"
   xmlns:xlink="http://www.w3.org/1999/xlink"
   xmlns="http://www.w3.org/2000/svg"
   xmlns:svg="http://www.w3.org/2000/svg">
  <defs
     id="defs6">
    <linearGradient
       id="linearGradient1"
       inkscape:collect="always">
      <stop
         style="stop-color:#8eceef;stop-opacity:1;"
         offset="0"
         id="stop1" />
      <stop
         style="stop-color:#42a7df;stop-opacity:1;"
         offset="1"
         id="stop2" />
    </linearGradient>
    <linearGradient
       id="linearGradient6"
       inkscape:collect="always">
      <stop
         style="stop-color:#d8e0e5;stop-opacity:1;"
         offset="0"
         id="stop6" />
      <stop
         style="stop-color:#000000;stop-opacity:0;"
         offset="1"
         id="stop7" />
    </linearGradient>
    <radialGradient
       inkscape:collect="always"
       xlink:href="#linearGradient6"
       id="radialGradient7"
       cx="32.718243"
       cy="11.627145"
       fx="32.718243"
       fy="11.627145"
       r="20.500185"
       gradientTransform="matrix(-1.6463919,1.6463919,-1.6543397,-1.6543397,105.78822,-26.337013)"
       gradientUnits="userSpaceOnUse" />
    <filter
       inkscape:collect="always"
       style="color-interpolation-filters:sRGB"
       id="filter7"
       x="-0.13935439"
       y="-0.060515202"
       width="1.2800475"
       height="1.1222311">
      <feGaussianBlur
         inkscape:collect="always"
         stdDeviation="0.96316897"
         id="feGaussianBlur7" />
    </filter>
    <filter
       inkscape:collect="always"
       style="color-interpolation-filters:sRGB"
       id="filter9"
       x="-1.1234067"
       y="-1.1234067"
       width="3.2468134"
       height="3.2468134">
      <feGaussianBlur
         inkscape:collect="always"
         stdDeviation="1.4042584"
         id="feGaussianBlur9" />
    </filter>
    <filter
       inkscape:collect="always"
       style="color-interpolation-filters:sRGB"
       id="filter10"
       x="-0.11279698"
       y="-0.22559397"
       width="1.225594"
       height="1.4511879">
      <feGaussianBlur
         inkscape:collect="always"
         stdDeviation="1.6001209"
         id="feGaussianBlur10" />
    </filter>
    <radialGradient
       inkscape:collect="always"
       xlink:href="#linearGradient1"
       id="radialGradient2"
       cx="28.630116"
       cy="39.70826"
       fx="28.630116"
       fy="39.70826"
       r="7.221408"
       gradientTransform="matrix(2.463847,0,0,5.6716254,-46.356942,-171.32909)"
       gradientUnits="userSpaceOnUse" />
  </defs>
  <sodipodi:namedview
     id="namedview6"
     pagecolor="#505050"
     bordercolor="#eeeeee"
     borderopacity="1"
     inkscape:showpageshadow="0"
     inkscape:pageopacity="0"
     inkscape:pagecheckerboard="0"
     inkscape:deskcolor="#505050"
     inkscape:zoom="12.959942"
     inkscape:cx="6.5586716"
     inkscape:cy="30.902917"
     inkscape:current-layer="svg6" />
  <ellipse
     style="opacity:1;mix-blend-mode:normal;fill:#0c1922;fill-opacity:1;stroke:none;stroke-width:0.1;stroke-linecap:round;stroke-miterlimit:4.1;stroke-dasharray:none;stroke-opacity:1;paint-order:stroke fill markers;filter:url(#filter10)"
     id="path7"
     cx="32.409206"
     cy="52.269394"
     rx="17.023018"
     ry="8.5115089"
     transform="matrix(0.95388004,0,0,0.84662647,1.4947111,9.4442169)" />
  <path
     id="path2"
     style="fill:url(#radialGradient7);stroke-width:0.851906"
     d="m 23.554987,4.9463442 c -1.274407,2.434e-4 -2.353925,0.9392326 -2.530759,2.2013116 0,15.9729182 -3.829127,30.5481832 -5.963342,45.7955842 -0.215075,1.537263 0.978525,2.909784 2.530759,2.910124 h 29.81671 c 1.552235,-3.4e-4 2.745834,-1.372861 2.530759,-2.910124 C 47.730851,37.70754 43.975772,22.541107 43.975772,7.1476557 43.798938,5.8855768 42.71942,4.9465876 41.445013,4.9463442 Z"
     sodipodi:nodetypes="ccccccccc" />
  <path
     d="m 35.481671,53.297649 c 1.276167,-0.562353 2.261515,-0.45583 3.407624,0 l -2.332537,-8.840458 0.25729,-0.771869 -1.114023,-4.416813 c 0,0 0.377272,-0.03942 0.686104,-0.385936 -0.327687,-1.777721 -0.904458,-6.030667 -0.904458,-6.030667 0,0 0.464571,0.341285 0.774916,0.241641 0.754564,-0.242271 2.004162,-0.639387 1.756097,-1.843912 -0.548144,-2.661602 -0.855822,-4.639124 -1.509088,-5.127494 -1.161864,-0.868589 -2.99455,-1.647809 -2.99455,-1.647809 0,0 0.361318,-1.353509 0.242867,-2.05832 -0.159728,-0.950423 -1.139485,-2.258903 -2.098075,-2.358493 -1.046304,-0.108699 -2.185666,1.200432 -2.14488,2.144084 0.05584,1.291977 1.730486,3.559181 1.730486,3.559181 l -1.673408,0.39168 0.001,0.937651 -0.85804,0.385935 -0.894501,7.079668 -1.910044,5.098728 -1.415092,0.77187 -0.04288,2.487137 0.55746,-0.04288 0.128645,-0.686107 h 0.471696 l 0.343053,-1.114925 c 0,0 0.657689,0.178595 1.178335,-0.141203 0.223098,-0.137034 0.327616,-0.900515 0.327616,-0.900515 l 0.361074,-0.03032 2.69e-4,6.303606 -0.255707,1.033194 0.250205,1.496826 -0.471697,0.557461 -0.333429,3.430535 c 1.150917,-0.458417 1.728085,-0.451591 3.366211,0.478519 l -0.159985,-1.67921 -0.471697,-0.643225 0.60034,-1.54374 0.25729,-3.644943 1.500496,-5.352442 1.672739,3.465648 1.329328,5.574617 -0.04288,1.457979 0.81475,1.457976 z"
     style="fill:url(#radialGradient2);stroke-width:0.851906;fill-opacity:1"
     id="path5" />
  <path
     d="m 36,57 c 1.498014,-0.660112 2.654653,-0.535071 4,0 l -2.738022,-10.37727 0.302017,-0.90605 -1.307683,-5.184624 c 0,0 0.442857,-0.04627 0.805376,-0.453027 C 36.677036,37.992272 36,33 36,33 c 0,0 0.545331,0.400614 0.909626,0.283648 0.885736,-0.284387 2.352563,-0.750538 2.061374,-2.164455 -0.643432,-3.124291 -1.004596,-5.445582 -1.771425,-6.01885 -1.363841,-1.019583 -3.515118,-1.934261 -3.515118,-1.934261 0,0 0.424129,-1.588801 0.285086,-2.416136 -0.187494,-1.115643 -1.337571,-2.651587 -2.462801,-2.768489 -1.228191,-0.127595 -2.565618,1.409113 -2.517742,2.516808 0.06555,1.516572 2.031311,4.177903 2.031311,4.177903 L 29.056,25.135937 29.0572,26.236588 28.05,26.689614 27,35 l -2.242083,5.985083 -1.66109,0.906051 -0.05033,2.919497 0.654368,-0.05033 0.151008,-0.805378 h 0.553695 l 0.402689,-1.308742 c 0,0 0.772021,0.209642 1.383175,-0.16575 C 26.453313,42.319575 26.576,41.423372 26.576,41.423372 l 0.423842,-0.03559 3.16e-4,7.399416 L 26.7,50 l 0.2937,1.757032 -0.553696,0.654369 -0.391392,4.026894 C 27.399603,55.900188 28.077105,55.9082 30,57 l -0.187797,-1.971122 -0.553696,-0.755042 0.704703,-1.812102 0.302016,-4.278574 1.76134,-6.282902 1.963526,4.068111 1.560416,6.5437 -0.05033,1.711431 0.956385,1.711429 z"
     style="fill:none;stroke:#000000;stroke-width:0.1;stroke-dasharray:none;stroke-opacity:1;filter:url(#filter7)"
     id="path5-3"
     transform="matrix(0.85190598,0,0,0.85190598,4.8130557,4.7390086)" />
  <circle
     cx="34.203812"
     cy="30.722141"
     r="1.277859"
     style="fill:#ffffff;stroke-width:0.851906"
     id="circle5" />
  <circle
     cx="34.5"
     cy="30.5"
     r="1.5"
     style="fill:#ffc962;fill-opacity:1;filter:url(#filter9)"
     id="circle5-6"
     transform="matrix(0.85190598,0,0,0.85190598,4.8130557,4.7390086)" />
</svg>
