<?xml version="1.0" encoding="UTF-8" standalone="no"?>
<svg
   width="64"
   height="64"
   version="1"
   id="svg5"
   sodipodi:docname="albert.svg"
   inkscape:version="1.4 (e7c3feb100, 2024-10-09)"
   xmlns:inkscape="http://www.inkscape.org/namespaces/inkscape"
   xmlns:sodipodi="http://sodipodi.sourceforge.net/DTD/sodipodi-0.dtd"
   xmlns:xlink="http://www.w3.org/1999/xlink"
   xmlns="http://www.w3.org/2000/svg"
   xmlns:svg="http://www.w3.org/2000/svg">
  <defs
     id="defs5">
    <linearGradient
       id="linearGradient9"
       inkscape:collect="always">
      <stop
         style="stop-color:#323232;stop-opacity:1;"
         offset="0"
         id="stop9" />
      <stop
         style="stop-color:#444444;stop-opacity:1;"
         offset="1"
         id="stop10" />
    </linearGradient>
    <inkscape:path-effect
       effect="fillet_chamfer"
       id="path-effect8"
       is_visible="true"
       lpeversion="1"
       nodesatellites_param="F,0,0,1,0,0,0,1 @ F,0,0,1,0,2.7867995,0,1 @ F,0,0,1,0,0,0,1 @ F,0,0,1,0,0,0,1 @ F,0,0,1,0,0,0,1 @ F,0,0,1,0,0,0,1 @ F,0,0,1,0,0,0,1 @ F,0,0,1,0,0,0,1 @ F,0,0,1,0,0,0,1 @ F,0,0,1,0,0,0,1 @ F,0,0,1,0,5.6302322,0,1 @ F,0,0,1,0,0,0,1 @ F,0,0,1,0,0,0,1 @ F,0,0,1,0,0,0,1 @ F,0,0,1,0,0,0,1 @ F,0,0,1,0,0,0,1 @ F,0,0,1,0,0,0,1"
       radius="0"
       unit="px"
       method="auto"
       mode="F"
       chamfer_steps="1"
       flexible="false"
       use_knot_distance="true"
       apply_no_radius="true"
       apply_with_radius="true"
       only_selected="false"
       hide_knots="false" />
    <inkscape:path-effect
       effect="fillet_chamfer"
       id="path-effect7"
       is_visible="true"
       lpeversion="1"
       nodesatellites_param="F,0,0,1,0,0,0,1 @ F,0,0,1,0,0,0,1 @ F,0,0,1,0,0,0,1 @ F,0,0,1,0,0,0,1 @ F,0,0,1,0,0,0,1 @ F,0,0,1,0,0,0,1 @ F,0,0,1,0,0,0,1 @ F,0,0,1,0,0,0,1 @ F,0,0,1,0,0,0,1 @ F,0,0,1,0,0,0,1 @ F,0,0,1,0,4.1847842,0,1 @ F,0,0,1,0,0,0,1 @ F,0,0,1,0,0,0,1 @ F,0,0,1,0,0,0,1 @ F,0,0,1,0,0,0,1"
       radius="0"
       unit="px"
       method="auto"
       mode="F"
       chamfer_steps="1"
       flexible="false"
       use_knot_distance="true"
       apply_no_radius="true"
       apply_with_radius="true"
       only_selected="false"
       hide_knots="false" />
    <linearGradient
       id="linearGradient6"
       inkscape:collect="always">
      <stop
         style="stop-color:#00ffcd;stop-opacity:1;"
         offset="0"
         id="stop6" />
      <stop
         style="stop-color:#00c4ff;stop-opacity:1;"
         offset="1"
         id="stop7" />
    </linearGradient>
    <radialGradient
       inkscape:collect="always"
       xlink:href="#linearGradient6"
       id="radialGradient7"
       cx="26.067217"
       cy="47.908016"
       fx="26.067217"
       fy="47.908016"
       r="22.011036"
       gradientTransform="matrix(2.0692287,-0.55444815,0.51211494,1.911239,-52.370099,-27.332966)"
       gradientUnits="userSpaceOnUse" />
    <inkscape:path-effect
       effect="fillet_chamfer"
       id="path-effect8-3"
       is_visible="true"
       lpeversion="1"
       nodesatellites_param="F,0,0,1,0,0,0,1 @ F,0,0,1,0,2.7867995,0,1 @ F,0,0,1,0,0,0,1 @ F,0,0,1,0,0,0,1 @ F,0,0,1,0,0,0,1 @ F,0,0,1,0,0,0,1 @ F,0,0,1,0,0,0,1 @ F,0,0,1,0,0,0,1 @ F,0,0,1,0,0,0,1 @ F,0,0,1,0,0,0,1 @ F,0,0,1,0,5.6302322,0,1 @ F,0,0,1,0,0,0,1 @ F,0,0,1,0,0,0,1 @ F,0,0,1,0,0,0,1 @ F,0,0,1,0,0,0,1 @ F,0,0,1,0,0,0,1 @ F,0,0,1,0,0,0,1"
       radius="0"
       unit="px"
       method="auto"
       mode="F"
       chamfer_steps="1"
       flexible="false"
       use_knot_distance="true"
       apply_no_radius="true"
       apply_with_radius="true"
       only_selected="false"
       hide_knots="false" />
    <filter
       inkscape:collect="always"
       style="color-interpolation-filters:sRGB"
       id="filter8"
       x="-0.046241025"
       y="-0.084770597"
       width="1.0919621"
       height="1.1695466">
      <feGaussianBlur
         inkscape:collect="always"
         stdDeviation="0.8060606"
         id="feGaussianBlur8" />
    </filter>
    <inkscape:path-effect
       effect="fillet_chamfer"
       id="path-effect7-6"
       is_visible="true"
       lpeversion="1"
       nodesatellites_param="F,0,0,1,0,0,0,1 @ F,0,0,1,0,0,0,1 @ F,0,0,1,0,0,0,1 @ F,0,0,1,0,0,0,1 @ F,0,0,1,0,0,0,1 @ F,0,0,1,0,0,0,1 @ F,0,0,1,0,0,0,1 @ F,0,0,1,0,0,0,1 @ F,0,0,1,0,0,0,1 @ F,0,0,1,0,0,0,1 @ F,0,0,1,0,4.1847842,0,1 @ F,0,0,1,0,0,0,1 @ F,0,0,1,0,0,0,1 @ F,0,0,1,0,0,0,1 @ F,0,0,1,0,0,0,1"
       radius="0"
       unit="px"
       method="auto"
       mode="F"
       chamfer_steps="1"
       flexible="false"
       use_knot_distance="true"
       apply_no_radius="true"
       apply_with_radius="true"
       only_selected="false"
       hide_knots="false" />
    <inkscape:path-effect
       effect="fillet_chamfer"
       id="path-effect7-2"
       is_visible="true"
       lpeversion="1"
       nodesatellites_param="F,0,0,1,0,0,0,1 @ F,0,0,1,0,0,0,1 @ F,0,0,1,0,0,0,1 @ F,0,0,1,0,0,0,1 @ F,0,0,1,0,0,0,1 @ F,0,0,1,0,0,0,1 @ F,0,0,1,0,0,0,1 @ F,0,0,1,0,0,0,1 @ F,0,0,1,0,0,0,1 @ F,0,0,1,0,0,0,1 @ F,0,0,1,0,4.1847842,0,1 @ F,0,0,1,0,0,0,1 @ F,0,0,1,0,0,0,1 @ F,0,0,1,0,0,0,1 @ F,0,0,1,0,0,0,1"
       radius="0"
       unit="px"
       method="auto"
       mode="F"
       chamfer_steps="1"
       flexible="false"
       use_knot_distance="true"
       apply_no_radius="true"
       apply_with_radius="true"
       only_selected="false"
       hide_knots="false" />
    <filter
       inkscape:collect="always"
       style="color-interpolation-filters:sRGB"
       id="filter9"
       x="-0.10843495"
       y="-0.17568886"
       width="1.2168716"
       height="1.3514018">
      <feGaussianBlur
         inkscape:collect="always"
         stdDeviation="2.3363096"
         id="feGaussianBlur9" />
    </filter>
    <radialGradient
       inkscape:collect="always"
       xlink:href="#linearGradient9"
       id="radialGradient10"
       cx="3.5960429"
       cy="59.744205"
       fx="3.5960429"
       fy="59.744205"
       r="26.316438"
       gradientTransform="matrix(2.845566,0,0,1.7562513,-6.6367344,-55.801159)"
       gradientUnits="userSpaceOnUse" />
  </defs>
  <sodipodi:namedview
     id="namedview5"
     pagecolor="#505050"
     bordercolor="#eeeeee"
     borderopacity="1"
     inkscape:showpageshadow="0"
     inkscape:pageopacity="0"
     inkscape:pagecheckerboard="0"
     inkscape:deskcolor="#505050"
     inkscape:zoom="18.28125"
     inkscape:cx="34.242735"
     inkscape:cy="40.478632"
     inkscape:current-layer="svg5" />
  <path
     style="fill:#00dada;stroke-linecap:round;stroke-linejoin:round;stroke-miterlimit:4.1"
     d="m 54.011036,34.470519 c -6.070372,7.604588 -0.18964,0.332307 -5.991499,7.643784 -2.019703,1.208456 -5.7228,2.121343 -7.396977,1.7738 -2.346853,-0.353986 -4.918619,-2.982759 -6.80486,-5.5858 -2.386233,-3.294104 -4.134316,-7.895929 -6.552699,-10.723312 -2.243977,-2.623332 -5.433925,-4.236565 -8.464738,-2.10701 -1.498129,1.054069 -2.960892,2.950266 -4.094936,4.979487 -1.811576,3.238864 -0.763986,7.449706 3.979549,8.368492 3.732938,0.321551 5.622712,-0.180112 10.57452,-2.38731 6.383501,-2.991969 10.931878,-6.903719 23.085098,-16.129362 -6.788693,7.049912 -0.354294,0.181245 -7.010757,7.189103 -3.380388,3.558839 -10.148803,7.626961 -17.249749,11.767029 -3.36524,1.93013 -6.322835,3.158823 -10.648437,4.213003 -2.58877,0.631314 -6.400796,1.216293 -7.235856,-1.530935 -0.8696221,-2.863457 1.205575,-7.278257 1.637973,-8.23526 3.263088,-7.21614 8.13602,-14.708478 16.656216,-13.595791 8.12557,1.061962 8.508861,13.738893 14.573703,17.070199 2.98653,1.640176 5.214119,0.287625 10.943449,-2.710117 z"
     id="path5" />
  <path
     style="fill:url(#radialGradient10);stroke-linecap:round;stroke-linejoin:round;stroke-miterlimit:4.1;fill-opacity:1"
     d="m 25,15.886719 c -5.935478,0.688755 -10.789286,4.938367 -13.786007,9.897052 -2.4437748,4.153793 -4.782882,8.567832 -5.4672904,13.399179 -0.4774406,3.472869 1.2725289,7.419478 4.7701204,8.551681 4.383943,1.388087 8.926611,-0.348698 13.09419,-1.688175 2.763031,-1.011679 5.405642,-2.338574 7.902659,-3.892111 2.120859,3.07242 5.254929,5.739942 9.127151,6.019864 3.208934,0.240969 6.433279,-0.785118 9.261544,-2.238604 1.432012,-0.886362 7.929534,-8.797527 8.352505,-10.922667 0.494859,-3.047803 -2.987819,-5.845939 -5.832327,-4.486476 -1.128924,0.539782 -2.459682,1.092214 -3.809391,1.603146 -2.160892,0.818006 -2.861149,-0.175337 -1.099485,-1.631702 3.885596,-3.212215 10.208184,-7.903788 8.939677,-11.390956 -0.753698,-2.745724 -4.454329,-4.137948 -6.677959,-2.188933 -3.375644,2.560555 -6.743478,5.131425 -10.126954,7.68164 C 37.684785,20.535306 34.250314,16.7851 29.620786,15.987152 28.097682,15.72081 26.533518,15.693113 25,15.886719 Z"
     id="path6"
     sodipodi:nodetypes="csccsccscccccssc"
     inkscape:path-effect="#path-effect7"
     inkscape:original-d="m 25,15.886719 c -5.935478,0.688755 -10.789286,4.938367 -13.786007,9.897052 -2.4437748,4.153793 -4.782882,8.567832 -5.4672904,13.399179 -0.4774406,3.472869 1.2725289,7.419478 4.7701204,8.551681 4.383943,1.388087 8.926611,-0.348698 13.09419,-1.688175 2.763031,-1.011679 5.405642,-2.338574 7.902659,-3.892111 2.120859,3.07242 5.254929,5.739942 9.127151,6.019864 3.208934,0.240969 6.433279,-0.785118 9.261544,-2.238604 1.432012,-0.886362 7.929534,-8.797527 8.352505,-10.922667 0.494859,-3.047803 -2.987819,-5.845939 -5.832327,-4.486476 -2.267821,1.084333 -5.350126,2.21971 -7.764377,2.967184 0.378112,-2.212125 13.577198,-9.487863 11.795178,-14.386696 -0.753698,-2.745724 -4.454329,-4.137948 -6.677959,-2.188933 -3.375644,2.560555 -6.743478,5.131425 -10.126954,7.68164 C 37.684785,20.535306 34.250314,16.7851 29.620786,15.987152 28.097682,15.72081 26.533518,15.693113 25,15.886719 Z" />
  <path
     style="mix-blend-mode:normal;fill:none;stroke:#000000;stroke-width:0.2;stroke-linecap:round;stroke-linejoin:round;stroke-miterlimit:4.1;stroke-dasharray:none;stroke-opacity:1;filter:url(#filter9)"
     d="m 25,15.886719 c -5.935478,0.688755 -10.789286,4.938367 -13.786007,9.897052 -2.4437748,4.153793 -4.782882,8.567832 -5.4672904,13.399179 -0.4774406,3.472869 1.2725289,7.419478 4.7701204,8.551681 4.383943,1.388087 8.926611,-0.348698 13.09419,-1.688175 2.763031,-1.011679 5.405642,-2.338574 7.902659,-3.892111 2.120859,3.07242 5.254929,5.739942 9.127151,6.019864 3.208934,0.240969 6.433279,-0.785118 9.261544,-2.238604 1.432012,-0.886362 7.929534,-8.797527 8.352505,-10.922667 0.494859,-3.047803 -2.987819,-5.845939 -5.832327,-4.486476 -1.128924,0.539782 -2.459682,1.092214 -3.809391,1.603146 -2.160892,0.818006 -2.861149,-0.175337 -1.099485,-1.631702 3.885596,-3.212215 10.208184,-7.903788 8.939677,-11.390956 -0.753698,-2.745724 -4.454329,-4.137948 -6.677959,-2.188933 -3.375644,2.560555 -6.743478,5.131425 -10.126954,7.68164 C 37.684785,20.535306 34.250314,16.7851 29.620786,15.987152 28.097682,15.72081 26.533518,15.693113 25,15.886719 Z"
     id="path6-9"
     sodipodi:nodetypes="csccsccscccccssc"
     inkscape:path-effect="#path-effect7-2"
     inkscape:original-d="m 25,15.886719 c -5.935478,0.688755 -10.789286,4.938367 -13.786007,9.897052 -2.4437748,4.153793 -4.782882,8.567832 -5.4672904,13.399179 -0.4774406,3.472869 1.2725289,7.419478 4.7701204,8.551681 4.383943,1.388087 8.926611,-0.348698 13.09419,-1.688175 2.763031,-1.011679 5.405642,-2.338574 7.902659,-3.892111 2.120859,3.07242 5.254929,5.739942 9.127151,6.019864 3.208934,0.240969 6.433279,-0.785118 9.261544,-2.238604 1.432012,-0.886362 7.929534,-8.797527 8.352505,-10.922667 0.494859,-3.047803 -2.987819,-5.845939 -5.832327,-4.486476 -2.267821,1.084333 -5.350126,2.21971 -7.764377,2.967184 0.378112,-2.212125 13.577198,-9.487863 11.795178,-14.386696 -0.753698,-2.745724 -4.454329,-4.137948 -6.677959,-2.188933 -3.375644,2.560555 -6.743478,5.131425 -10.126954,7.68164 C 37.684785,20.535306 34.250314,16.7851 29.620786,15.987152 28.097682,15.72081 26.533518,15.693113 25,15.886719 Z"
     transform="translate(0.01398604,-0.00527753)" />
  <path
     style="fill:url(#radialGradient7)"
     d="m 54.022072,34.470519 c -5.277441,6.611252 -1.522045,1.978329 -4.263253,5.459481 -0.95168,1.20857 -2.81744,2.820142 -4.27869,3.29359 -1.791226,0.580361 -3.752268,0.891672 -4.846533,0.664513 -2.346853,-0.353986 -4.918619,-2.982759 -6.80486,-5.5858 -2.386233,-3.294104 -4.134316,-7.895929 -6.552699,-10.723312 -2.243977,-2.623332 -5.433925,-4.236565 -8.464738,-2.10701 -1.498129,1.054069 -2.960892,2.950266 -4.094936,4.979487 -1.811576,3.238864 -0.763986,7.449706 3.979549,8.368492 3.732938,0.321551 5.622712,-0.180112 10.57452,-2.38731 6.383501,-2.991969 10.931878,-6.903719 23.085098,-16.129362 -1.770066,1.838175 -2.641173,2.73011 -3.079763,3.1685 -2.196412,2.195413 -5.71275,5.824623 -8.221101,7.655488 -3.547116,2.589066 -8.177987,5.344293 -12.959642,8.132144 -3.36524,1.93013 -6.322835,3.158823 -10.648437,4.213003 -2.58877,0.631314 -6.400796,1.216293 -7.235856,-1.530935 -0.8696224,-2.863457 1.205575,-7.278257 1.637973,-8.23526 3.263088,-7.21614 8.13602,-14.708478 16.656216,-13.595791 8.12557,1.061962 8.508861,13.738893 14.573703,17.070199 2.98653,1.640176 5.214119,0.287625 10.943449,-2.710117 z"
     id="path3"
     inkscape:path-effect="#path-effect8"
     inkscape:original-d="m 54.022072,34.470519 c -6.070372,7.604588 -0.18964,0.332307 -5.991499,7.643784 -2.019703,1.208456 -5.7228,2.121343 -7.396977,1.7738 -2.346853,-0.353986 -4.918619,-2.982759 -6.80486,-5.5858 -2.386233,-3.294104 -4.134316,-7.895929 -6.552699,-10.723312 -2.243977,-2.623332 -5.433925,-4.236565 -8.464738,-2.10701 -1.498129,1.054069 -2.960892,2.950266 -4.094936,4.979487 -1.811576,3.238864 -0.763986,7.449706 3.979549,8.368492 3.732938,0.321551 5.622712,-0.180112 10.57452,-2.38731 6.383501,-2.991969 10.931878,-6.903719 23.085098,-16.129362 -6.788693,7.049912 -0.354294,0.181245 -7.010757,7.189103 -3.380388,3.558839 -10.148803,7.626961 -17.249749,11.767029 -3.36524,1.93013 -6.322835,3.158823 -10.648437,4.213003 -2.58877,0.631314 -6.400796,1.216293 -7.235856,-1.530935 -0.8696224,-2.863457 1.205575,-7.278257 1.637973,-8.23526 3.263088,-7.21614 8.13602,-14.708478 16.656216,-13.595791 8.12557,1.061962 8.508861,13.738893 14.573703,17.070199 2.98653,1.640176 5.214119,0.287625 10.943449,-2.710117 z" />
  <path
     id="path3-5"
     style="fill:none;stroke:#0d00ff;stroke-width:0.20000001;stroke-dasharray:none;stroke-opacity:1;filter:url(#filter8)"
     d="m 26.949219,20 c -7.567732,-0.06727 -12.040465,6.9419 -15.09961,13.707031 -0.432398,0.957003 -2.5082939,5.370918 -1.638671,8.234375 0.835059,2.747228 4.647558,2.162564 7.236328,1.53125 4.325602,-1.05418 7.283197,-2.28276 10.648437,-4.21289 0.578526,-0.337299 4.585938,-2.714844 4.585938,-2.714844 l -0.828376,-1.440495 0.828376,1.440495 c 0,0 0.747034,1.206387 1.146484,1.757812 1.886241,2.603041 4.457834,5.231952 6.804687,5.585938 1.094266,0.227159 3.056431,-0.08566 4.847657,-0.666016 1.461249,-0.473448 3.327617,-2.084398 4.279297,-3.292968 2.741208,-3.481153 -1.015722,1.152268 4.261718,-5.458985 -5.72933,2.997742 -7.956829,4.34916 -10.943359,2.708985 -1.718068,-0.943704 -4.085937,-4.613282 -4.085937,-4.613282 l -0.818974,-1.542843 0.819074,1.524493 c 3.879902,-2.46611 7.05692,-5.839068 10.283103,-9.0754 0.438589,-0.43839 1.310012,-1.331747 3.080078,-3.169922 -6.368081,4.83408 -10.631434,8.18804 -14.181641,10.736328 C 35.771114,26.312775 33.749477,20.796637 28.505859,20.111328 27.973347,20.041785 27.453734,20.004484 26.949219,20 Z m -5.283203,4.488281 c 2.077867,-0.03931 4.06664,1.286303 5.609375,3.089844 1.704119,1.992322 3.077948,4.862997 4.574218,7.539063 -0.841669,0.463178 -1.692853,0.900561 -2.580078,1.316406 -4.951808,2.207198 -6.84128,2.708269 -10.574219,2.386718 -4.743534,-0.918785 -5.790091,-5.130276 -3.978515,-8.36914 1.134044,-2.029221 2.595621,-3.924447 4.09375,-4.978516 0.947129,-0.665486 1.910984,-0.966507 2.855469,-0.984375 z"
     sodipodi:nodetypes="ccccccccccsscccccsccccsccccccs" />
</svg>
