<?xml version="1.0" encoding="UTF-8" standalone="no"?>
<svg
   width="64"
   height="64"
   version="1"
   id="svg6"
   sodipodi:docname="alienarena.svg"
   inkscape:version="1.4 (e7c3feb100, 2024-10-09)"
   xmlns:inkscape="http://www.inkscape.org/namespaces/inkscape"
   xmlns:sodipodi="http://sodipodi.sourceforge.net/DTD/sodipodi-0.dtd"
   xmlns:xlink="http://www.w3.org/1999/xlink"
   xmlns="http://www.w3.org/2000/svg"
   xmlns:svg="http://www.w3.org/2000/svg">
  <defs
     id="defs6">
    <linearGradient
       id="linearGradient11"
       inkscape:collect="always">
      <stop
         style="stop-color:#84c185;stop-opacity:1;"
         offset="0"
         id="stop12" />
      <stop
         style="stop-color:#327e35;stop-opacity:1;"
         offset="1"
         id="stop13" />
    </linearGradient>
    <linearGradient
       id="linearGradient9"
       inkscape:collect="always">
      <stop
         style="stop-color:#df574d;stop-opacity:1;"
         offset="0"
         id="stop10" />
      <stop
         style="stop-color:#ffa952;stop-opacity:1;"
         offset="1"
         id="stop11" />
    </linearGradient>
    <linearGradient
       id="linearGradient7"
       inkscape:collect="always">
      <stop
         style="stop-color:#282828;stop-opacity:1;"
         offset="0"
         id="stop8" />
      <stop
         style="stop-color:#7e7e7e;stop-opacity:1;"
         offset="1"
         id="stop9" />
    </linearGradient>
    <linearGradient
       id="linearGradient6"
       inkscape:collect="always">
      <stop
         style="stop-color:#4f4f4f;stop-opacity:1;"
         offset="0"
         id="stop6" />
      <stop
         style="stop-color:#3d3d3d;stop-opacity:1;"
         offset="1"
         id="stop7" />
    </linearGradient>
    <radialGradient
       inkscape:collect="always"
       xlink:href="#linearGradient6"
       id="radialGradient7"
       cx="32"
       cy="15.570923"
       fx="32"
       fy="15.570923"
       r="18"
       gradientUnits="userSpaceOnUse"
       gradientTransform="matrix(-0.83568067,3.1188027,-3.1188027,-0.83568067,107.30442,-69.505971)" />
    <radialGradient
       inkscape:collect="always"
       xlink:href="#linearGradient7"
       id="radialGradient9"
       cx="32"
       cy="42"
       fx="32"
       fy="42"
       r="10"
       gradientUnits="userSpaceOnUse"
       gradientTransform="matrix(4.3654913,0,0,2.7999258,-107.69572,-75.671575)" />
    <radialGradient
       inkscape:collect="always"
       xlink:href="#linearGradient9"
       id="radialGradient11"
       cx="31.999907"
       cy="40.942493"
       fx="31.999907"
       fy="40.942493"
       r="13.998991"
       gradientTransform="matrix(1.3845627,0,0,1.2726828,-12.305961,-10.233662)"
       gradientUnits="userSpaceOnUse" />
    <radialGradient
       inkscape:collect="always"
       xlink:href="#linearGradient11"
       id="radialGradient13"
       cx="13.138133"
       cy="47.352455"
       fx="13.138133"
       fy="47.352455"
       r="28"
       gradientUnits="userSpaceOnUse"
       gradientTransform="matrix(3.7893683,-1.0153582,1.0153582,3.7893682,-96.96805,-90.413383)" />
    <filter
       inkscape:collect="always"
       style="color-interpolation-filters:sRGB"
       id="filter13"
       x="-0.13451168"
       y="-0.13451168"
       width="1.2690234"
       height="1.2690234">
      <feGaussianBlur
         inkscape:collect="always"
         stdDeviation="3.0761059"
         id="feGaussianBlur13" />
    </filter>
    <filter
       inkscape:collect="always"
       style="color-interpolation-filters:sRGB"
       id="filter14"
       x="-0.094977328"
       y="-0.22158518"
       width="1.1899547"
       height="1.4431653">
      <feGaussianBlur
         inkscape:collect="always"
         stdDeviation="0.95085555"
         id="feGaussianBlur14" />
    </filter>
  </defs>
  <sodipodi:namedview
     id="namedview6"
     pagecolor="#505050"
     bordercolor="#eeeeee"
     borderopacity="1"
     inkscape:showpageshadow="0"
     inkscape:pageopacity="0"
     inkscape:pagecheckerboard="0"
     inkscape:deskcolor="#505050"
     inkscape:zoom="18.328125"
     inkscape:cx="27.798806"
     inkscape:cy="30.035806"
     inkscape:current-layer="svg6" />
  <rect
     style="fill:url(#radialGradient13);stroke-width:0.895766"
     width="50.16288"
     height="50.16288"
     x="6.9185596"
     y="6.9185596"
     rx="25.08144"
     ry="25.08144"
     id="rect1" />
  <ellipse
     style="fill:url(#radialGradient9);stroke-width:0.94291"
     cx="32"
     cy="41.925312"
     id="circle1"
     rx="8.9576569"
     ry="9.9253101" />
  <circle
     style="fill:url(#radialGradient7);stroke-width:0.895766"
     cx="32"
     cy="30.208469"
     r="16.123783"
     id="circle2" />
  <path
     id="rect1-1"
     style="mix-blend-mode:normal;fill:none;stroke:#000000;stroke-width:0.3;stroke-dasharray:none;stroke-opacity:1;filter:url(#filter13)"
     d="M 32,4.0000001 C 16.488,4.0000001 4,16.488 4,32 4,47.512 16.488,60 32,60 47.512,60 60,47.512 60,32 60,16.488 47.512,4.0000001 32,4.0000001 Z M 32,12 A 18,18 0 0 1 50,30 18,18 0 0 1 41.814453,45.080078 10,11.080252 0 0 1 32,54.160157 10,11.080252 0 0 1 22.185547,45.080078 18,18 0 0 1 14,30 18,18 0 0 1 32,12 Z"
     transform="matrix(0.89576573,0,0,0.89576573,3.3354968,3.3354968)" />
  <path
     id="path3"
     style="fill:url(#radialGradient11);stroke-width:0.895766"
     d="m 21.506244,30.208469 c -0.62213,-0.0029 -1.245018,0.06164 -1.856264,0.1907 -0.591017,2.79654 0.197397,5.825811 2.368881,7.998908 2.172022,2.171896 5.202187,2.961666 7.998907,2.370629 0.591197,-2.796718 -0.198786,-5.827065 -2.370629,-7.998907 -1.696892,-1.696795 -3.916977,-2.551058 -6.140895,-2.56133 z m 20.985763,0 c -2.223918,0.01027 -4.444003,0.864535 -6.140895,2.56133 -2.171843,2.171842 -2.961827,5.202189 -2.370629,7.998907 2.796719,0.591037 5.826885,-0.198733 7.998907,-2.370629 2.171842,-2.172022 2.961647,-5.202188 2.37063,-7.998908 -0.611782,-0.129293 -1.235317,-0.193577 -1.858013,-0.1907 z" />
  <path
     id="path3-6"
     style="fill:none;stroke-width:0.2;stroke:#ff0000;stroke-opacity:1;stroke-dasharray:none;filter:url(#filter14)"
     d="m 21.506244,30.208469 c -0.62213,-0.0029 -1.245018,0.06164 -1.856264,0.1907 -0.591017,2.79654 0.197397,5.825811 2.368881,7.998908 2.172022,2.171896 5.202187,2.961666 7.998907,2.370629 0.591197,-2.796718 -0.198786,-5.827065 -2.370629,-7.998907 -1.696892,-1.696795 -3.916977,-2.551058 -6.140895,-2.56133 z m 20.985763,0 c -2.223918,0.01027 -4.444003,0.864535 -6.140895,2.56133 -2.171843,2.171842 -2.961827,5.202189 -2.370629,7.998907 2.796719,0.591037 5.826885,-0.198733 7.998907,-2.370629 2.171842,-2.172022 2.961647,-5.202188 2.37063,-7.998908 -0.611782,-0.129293 -1.235317,-0.193577 -1.858013,-0.1907 z" />
</svg>
