<?xml version="1.0" encoding="UTF-8" standalone="no"?>
<svg
   width="64"
   height="64"
   version="1.1"
   id="svg6"
   sodipodi:docname="alien-isolation.svg"
   inkscape:version="1.4 (e7c3feb100, 2024-10-09)"
   xmlns:inkscape="http://www.inkscape.org/namespaces/inkscape"
   xmlns:sodipodi="http://sodipodi.sourceforge.net/DTD/sodipodi-0.dtd"
   xmlns:xlink="http://www.w3.org/1999/xlink"
   xmlns="http://www.w3.org/2000/svg"
   xmlns:svg="http://www.w3.org/2000/svg">
  <defs
     id="defs6">
    <linearGradient
       id="linearGradient15"
       inkscape:collect="always">
      <stop
         style="stop-color:#ecff50;stop-opacity:1;"
         offset="0"
         id="stop16" />
      <stop
         style="stop-color:#ffc150;stop-opacity:1;"
         offset="1"
         id="stop17" />
    </linearGradient>
    <linearGradient
       id="linearGradient13"
       inkscape:collect="always">
      <stop
         style="stop-color:#7a9a76;stop-opacity:1;"
         offset="0"
         id="stop14" />
      <stop
         style="stop-color:#79a36d;stop-opacity:1;"
         offset="1"
         id="stop15" />
    </linearGradient>
    <linearGradient
       id="linearGradient12"
       inkscape:collect="always">
      <stop
         style="stop-color:#000000;stop-opacity:1;"
         offset="0"
         id="stop12" />
      <stop
         style="stop-color:#000000;stop-opacity:0;"
         offset="1"
         id="stop13" />
    </linearGradient>
    <filter
       inkscape:collect="always"
       style="color-interpolation-filters:sRGB"
       id="filter12"
       x="-0.13608903"
       y="-0.10027613"
       width="1.2721781"
       height="1.2005523">
      <feGaussianBlur
         inkscape:collect="always"
         stdDeviation="2.3398915"
         id="feGaussianBlur12" />
    </filter>
    <radialGradient
       inkscape:collect="always"
       xlink:href="#linearGradient12"
       id="radialGradient13"
       cx="29.759443"
       cy="34.937778"
       fx="29.759443"
       fy="34.937778"
       r="14.057434"
       gradientTransform="matrix(3.9734455,-1.0646815,1.9813936,7.3946616,-164.49314,-174.79804)"
       gradientUnits="userSpaceOnUse" />
    <radialGradient
       inkscape:collect="always"
       xlink:href="#linearGradient13"
       id="radialGradient15"
       cx="23.960003"
       cy="41.336391"
       fx="23.960003"
       fy="41.336391"
       r="19.626629"
       gradientTransform="matrix(1.8276765,-0.48972443,0.65296585,2.4369017,-47.037035,-29.728449)"
       gradientUnits="userSpaceOnUse" />
    <radialGradient
       inkscape:collect="always"
       xlink:href="#linearGradient15"
       id="radialGradient17"
       cx="24.2703"
       cy="60.017834"
       fx="24.2703"
       fy="60.017834"
       r="13.084418"
       gradientUnits="userSpaceOnUse"
       gradientTransform="matrix(2.5714778,-1.4846434,1.4846434,2.5714778,-127.24532,-58.283955)" />
  </defs>
  <sodipodi:namedview
     id="namedview6"
     pagecolor="#505050"
     bordercolor="#eeeeee"
     borderopacity="1"
     inkscape:showpageshadow="0"
     inkscape:pageopacity="0"
     inkscape:pagecheckerboard="0"
     inkscape:deskcolor="#505050"
     inkscape:zoom="18.328124"
     inkscape:cx="24.416028"
     inkscape:cy="42.639388"
     inkscape:current-layer="svg6" />
  <path
     d="m 31.924401,5.4009002 c -9.058443,0 -19.626629,15.9920648 -19.626629,29.0764838 0,9.619195 7.548705,23.261187 19.626629,23.261187 12.077925,0 19.626628,-13.641992 19.626628,-23.261187 0,-11.630594 -10.568185,-29.0764838 -19.626628,-29.0764838 z"
     style="fill:url(#radialGradient15);stroke-width:0.934601"
     id="path2" />
  <path
     d="M 32.168833,5.4162312 A 13.614615,27.471638 8.4915283 0 0 19.322081,29.640294 13.614615,27.471638 8.4915283 0 0 23.081296,54.996466 c 2.570153,1.690095 5.52724,2.742105 8.842204,2.742105 0.753997,0 1.490037,-0.05385 2.207996,-0.155888 a 13.614615,27.471638 8.4915283 0 0 0.0026,0 A 13.614615,27.471638 8.4915283 0 0 46.2372,33.759841 13.614615,27.471638 8.4915283 0 0 45.956029,16.931541 C 42.154493,10.567501 36.972221,5.5809706 32.168833,5.4162312 Z"
     style="opacity:0.2;stroke-width:0.934601;fill:url(#radialGradient13)"
     id="path3" />
  <path
     d="m 17.976036,32.504336 c 0,0 5.925023,6.579087 7.476811,10.280614 1.551788,3.701527 1.869202,11.215216 1.869202,11.215216 0,0 0.181742,4.673007 4.425338,4.673007 2.829063,0 2.108335,-3.385859 3.986074,-5.607608 1.877739,-2.221749 6.236859,-5.06735 7.476811,-7.476811 1.239952,-2.409461 0.934601,-5.607608 0.934601,-5.607608 0,0 -1.896036,3.660044 -3.738405,5.607608 -1.842369,1.947564 -7.476811,5.607608 -7.476811,5.607608 0,0 -2.957849,-8.979792 -5.607608,-12.149817 -2.649759,-3.170025 -9.346013,-6.542209 -9.346013,-6.542209 z"
     style="fill:url(#radialGradient17);stroke-width:0.934601"
     id="path5"
     sodipodi:nodetypes="czcszzczczc" />
  <g
     id="g12"
     style="mix-blend-mode:normal;filter:url(#filter12)"
     transform="matrix(0.93460132,0,0,0.93460132,2.0878137,1.6624923)">
    <path
       d="m 31.924401,4.000001 c -9.692307,0 -21,17.111328 -21,31.111328 0,9.332398 6.64097,22.203797 17.513671,24.523438 -0.0064,-0.0071 -0.01315,-0.01437 -0.01953,-0.02148 -2.157358,-0.472675 -4.148825,-1.357825 -5.957031,-2.546875 -3.555487,-4.91596 -5.193264,-13.440607 -4.505859,-22.753906 l -0.955078,-1.3125 1.003906,0.703125 c 0.105167,-1.245617 0.246293,-2.502729 0.435547,-3.767578 C 20.299393,17.606052 25.809011,7.2170013 32.18612,4.015631 32.09896,4.012651 32.011309,4.000006 31.924402,4.000006 Z m 0.263671,0.015625 C 32.500251,4.026411 32.814733,4.057438 33.129479,4.10547 32.814292,4.057394 32.500591,4.026404 32.188072,4.015626 Z m 1.011719,0.1015625 c 0.305227,0.049177 0.611169,0.1147403 0.917969,0.1972657 -0.306647,-0.082361 -0.612968,-0.1481589 -0.917969,-0.1972657 z m 0.949219,0.2050782 c 0.3187,0.086854 0.637508,0.1913789 0.957031,0.3125 -0.319698,-0.120981 -0.638228,-0.2257479 -0.957031,-0.3125 z m 0.960937,0.3144531 c 4.244814,1.6109758 8.523855,6.1695892 11.828125,11.7011722 1.143593,5.339395 1.249224,11.662809 0.300782,18.005859 -0.635988,4.222246 -1.708247,8.217042 -3.09375,11.783203 l -0.144532,0.873047 -0.351562,0.351563 C 41.212072,53.135847 37.925116,57.641594 34.289635,59.833986 45.825279,58.192689 52.924401,44.760359 52.924401,35.111329 52.924401,24.013 43.930655,7.9785565 35.109947,4.6367198 Z M 34.285729,59.833986 c -0.148986,0.02117 -0.302638,0.02967 -0.453125,0.04687 -6.18e-4,7.09e-4 -0.0013,0.0012 -0.002,0.002 0.151356,-0.01727 0.305213,-0.02754 0.455078,-0.04883 z"
       style="baseline-shift:baseline;display:inline;overflow:visible;mix-blend-mode:normal;fill:none;stroke:#000000;stroke-width:0.2;stroke-dasharray:none;stroke-opacity:1;enable-background:accumulate;stop-color:#000000"
       id="path8" />
    <path
       d="M 32.186119,4.015626 C 25.80901,7.2169963 20.299392,17.606047 18.440026,29.935548 c -0.189254,1.264849 -0.33038,2.521961 -0.435547,3.767578 l 8.996093,6.296875 6,13 c 0,0 6.028711,-3.916155 8,-6 1.971289,-2.083845 4,-6 4,-6 l -0.855468,5.126953 c 1.385503,-3.566161 2.457762,-7.560957 3.09375,-11.783203 0.948442,-6.34305 0.842811,-12.666464 -0.300782,-18.005859 C 42.870524,9.5285279 37.325624,4.191893 32.186119,4.015626 Z M 17.955651,34.312501 c -0.687405,9.313299 0.950372,17.837946 4.505859,22.753906 1.808206,1.18905 3.799673,2.0742 5.957031,2.546875 -1.32693,-1.479873 -1.417969,-3.613281 -1.417969,-3.613281 l -1.999999,-12 z M 43.64901,47.351564 c 0.689887,1.665535 -7.648438,7.648437 -7.648438,7.648437 0,0 -0.656384,3.14629 -2.167968,4.88086 0.150487,-0.0172 0.304139,-0.0257 0.453125,-0.04687 h 0.0019 c 3.636034,-2.192088 8.142707,-9.589918 9.361331,-12.482427 1.218624,-2.892509 -0.689837,-1.665535 5e-5,0 z"
       style="baseline-shift:baseline;display:inline;overflow:visible;mix-blend-mode:normal;fill:none;stroke:#000000;stroke-width:0.2;stroke-dasharray:none;stroke-opacity:1;enable-background:accumulate;stop-color:#000000"
       id="path7"
       sodipodi:nodetypes="ccccczccccccccccczcccczz" />
    <path
       d="m 17.000573,33.000001 8,11 1.999999,12 c 0,0 0.193834,5 4.734375,5 3.027027,0 4.265625,-6 4.265625,-6 l 8,-8 1,-6 -4,6 -8,6 -6,-13 z"
       style="baseline-shift:baseline;display:inline;overflow:visible;mix-blend-mode:normal;fill:none;stroke:#000000;stroke-width:0.2;stroke-dasharray:none;stroke-opacity:1;enable-background:accumulate;stop-color:#000000"
       id="path6" />
  </g>
</svg>
