<?xml version="1.0" encoding="UTF-8" standalone="no"?>
<svg
   width="64"
   height="64"
   version="1.1"
   id="svg8"
   sodipodi:docname="alienblaster.svg"
   inkscape:version="1.4 (e7c3feb100, 2024-10-09)"
   xmlns:inkscape="http://www.inkscape.org/namespaces/inkscape"
   xmlns:sodipodi="http://sodipodi.sourceforge.net/DTD/sodipodi-0.dtd"
   xmlns:xlink="http://www.w3.org/1999/xlink"
   xmlns="http://www.w3.org/2000/svg"
   xmlns:svg="http://www.w3.org/2000/svg">
  <defs
     id="defs8">
    <linearGradient
       id="linearGradient19"
       inkscape:collect="always">
      <stop
         style="stop-color:#ebebeb;stop-opacity:1;"
         offset="0"
         id="stop20" />
      <stop
         style="stop-color:#cfcfcf;stop-opacity:1;"
         offset="1"
         id="stop21" />
    </linearGradient>
    <linearGradient
       id="linearGradient17"
       inkscape:collect="always">
      <stop
         style="stop-color:#37bdbd;stop-opacity:1;"
         offset="0"
         id="stop18" />
      <stop
         style="stop-color:#3794bd;stop-opacity:1;"
         offset="1"
         id="stop19" />
    </linearGradient>
    <linearGradient
       id="linearGradient16"
       inkscape:collect="always">
      <stop
         style="stop-color:#2fa28e;stop-opacity:1;"
         offset="0"
         id="stop16" />
      <stop
         style="stop-color:#2fa278;stop-opacity:1;"
         offset="1"
         id="stop17" />
    </linearGradient>
    <linearGradient
       id="linearGradient13"
       inkscape:collect="always">
      <stop
         style="stop-color:#000000;stop-opacity:1;"
         offset="0"
         id="stop13" />
      <stop
         style="stop-color:#000000;stop-opacity:0;"
         offset="1"
         id="stop14" />
    </linearGradient>
    <linearGradient
       id="linearGradient10"
       inkscape:collect="always">
      <stop
         style="stop-color:#000000;stop-opacity:1;"
         offset="0"
         id="stop10" />
      <stop
         style="stop-color:#000000;stop-opacity:0;"
         offset="1"
         id="stop11" />
    </linearGradient>
    <linearGradient
       id="linearGradient8"
       inkscape:collect="always">
      <stop
         style="stop-color:#000000;stop-opacity:1;"
         offset="0"
         id="stop8" />
      <stop
         style="stop-color:#000000;stop-opacity:0;"
         offset="1"
         id="stop9" />
    </linearGradient>
    <radialGradient
       inkscape:collect="always"
       xlink:href="#linearGradient8"
       id="radialGradient9"
       cx="0.28735137"
       cy="64.020546"
       fx="0.28735137"
       fy="64.020546"
       r="31.899255"
       gradientTransform="matrix(1.870801,0,0,1.8855672,-0.2502269,-57.696979)"
       gradientUnits="userSpaceOnUse" />
    <filter
       inkscape:collect="always"
       style="color-interpolation-filters:sRGB"
       id="filter9"
       x="-0.13700453"
       y="-0.14212408"
       width="1.2740417"
       height="1.2842479">
      <feGaussianBlur
         inkscape:collect="always"
         stdDeviation="3.0728572"
         id="feGaussianBlur9" />
    </filter>
    <radialGradient
       inkscape:collect="always"
       xlink:href="#linearGradient10"
       id="radialGradient11"
       cx="25.027521"
       cy="47.164665"
       fx="25.027521"
       fy="47.164665"
       r="9.3701512"
       gradientTransform="matrix(1.4661996,0,0,1.6297085,-11.667821,-28.890861)"
       gradientUnits="userSpaceOnUse" />
    <filter
       inkscape:collect="always"
       style="color-interpolation-filters:sRGB"
       id="filter11"
       x="-0.26136697"
       y="-0.22401969"
       width="1.5227339"
       height="1.4480394">
      <feGaussianBlur
         inkscape:collect="always"
         stdDeviation="1.2401849"
         id="feGaussianBlur11" />
    </filter>
    <radialGradient
       inkscape:collect="always"
       xlink:href="#linearGradient13"
       id="radialGradient14"
       cx="44.135246"
       cy="41.995705"
       fx="44.135246"
       fy="41.995705"
       r="2.6865235"
       gradientTransform="matrix(2.4647938,0,0,13.965373,-64.649036,-531.27314)"
       gradientUnits="userSpaceOnUse" />
    <radialGradient
       inkscape:collect="always"
       xlink:href="#linearGradient13"
       id="radialGradient15"
       cx="13.537565"
       cy="41.900379"
       fx="13.537565"
       fy="41.900379"
       r="2.6865235"
       gradientTransform="matrix(2.6658437,-5.5000873e-6,3.1163166e-5,15.104511,-22.552772,-578.21223)"
       gradientUnits="userSpaceOnUse" />
    <filter
       inkscape:collect="always"
       style="color-interpolation-filters:sRGB"
       id="filter15"
       x="-0.61081731"
       y="-0.10780512"
       width="2.2216346"
       height="1.2156102">
      <feGaussianBlur
         inkscape:collect="always"
         stdDeviation="1.3049792"
         id="feGaussianBlur15" />
    </filter>
    <filter
       inkscape:collect="always"
       style="color-interpolation-filters:sRGB"
       id="filter16"
       x="-0.61081731"
       y="-0.10780512"
       width="2.2216346"
       height="1.2156102">
      <feGaussianBlur
         inkscape:collect="always"
         stdDeviation="1.3049792"
         id="feGaussianBlur16" />
    </filter>
    <radialGradient
       inkscape:collect="always"
       xlink:href="#linearGradient16"
       id="radialGradient17"
       cx="3.9557645"
       cy="56.899265"
       fx="3.9557645"
       fy="56.899265"
       r="25.071598"
       gradientTransform="matrix(2.6223236,-0.70264949,0.65246023,2.4350147,-43.542038,-80.714249)"
       gradientUnits="userSpaceOnUse" />
    <radialGradient
       inkscape:collect="always"
       xlink:href="#linearGradient17"
       id="radialGradient19"
       cx="33.857525"
       cy="39.99799"
       fx="33.857525"
       fy="39.99799"
       r="17.908203"
       gradientTransform="matrix(2.9947159,-0.80243171,0.68205377,2.5454593,-90.542239,-34.847141)"
       gradientUnits="userSpaceOnUse" />
    <radialGradient
       inkscape:collect="always"
       xlink:href="#linearGradient19"
       id="radialGradient21"
       cx="31.459969"
       cy="34.605671"
       fx="31.459969"
       fy="34.605671"
       r="7.1633135"
       gradientTransform="matrix(5.0824628,0,0,5.5518877,-128.43415,-151.33105)"
       gradientUnits="userSpaceOnUse" />
  </defs>
  <sodipodi:namedview
     id="namedview8"
     pagecolor="#505050"
     bordercolor="#eeeeee"
     borderopacity="1"
     inkscape:showpageshadow="0"
     inkscape:pageopacity="0"
     inkscape:pagecheckerboard="0"
     inkscape:deskcolor="#505050"
     inkscape:zoom="12.959941"
     inkscape:cx="49.267198"
     inkscape:cy="36.304176"
     inkscape:current-layer="svg8" />
  <path
     d="M 32.028969,7.8283227 C 30.353833,7.7562024 28.774683,8.5423493 27.93626,9.8657876 L 7.085851,42.773733 c -0.810808,3.18405 1.5998456,5.552403 5.205353,7.289104 6.763072,3.25764 17.730214,4.292843 19.526148,4.320357 2.961205,0.063 11.934522,-1.294262 18.341346,-3.839914 4.873244,-1.93631 8.261606,-4.560173 6.389864,-7.769547 L 35.698151,9.8657876 C 34.935416,8.6618016 33.552892,7.8940991 32.028969,7.8283227 Z"
     style="fill:url(#radialGradient17);stroke-width:0.895414"
     id="path2" />
  <path
     d="m 32.028077,7.8272507 c -1.675135,-0.07212 -3.253899,0.7157277 -4.092322,2.039166 L 24.836782,14.756218 V 51.08695 c 0,3.817636 4.105476,5.089171 7.163313,5.089171 3.057842,0 7.163314,-1.271535 7.163314,-5.089171 V 15.336838 L 35.697177,9.8664167 c -0.762736,-1.2039859 -2.145176,-1.9733896 -3.6691,-2.039166 z"
     style="fill:url(#radialGradient21);stroke-width:0.895414"
     id="path4" />
  <path
     id="path2-7"
     style="mix-blend-mode:normal;fill:none;stroke:url(#radialGradient9);stroke-width:0.6;stroke-dasharray:none;stroke-opacity:1;filter:url(#filter9)"
     d="m 32.031145,5.0039084 c -1.402544,-0.060384 -2.744148,0.4185749 -3.722656,1.2851562 -0.08248,0.073041 -0.155294,0.1559247 -0.232422,0.234375 -0.07547,0.076761 -0.156565,0.148691 -0.226563,0.2304688 -3.02e-4,3.531e-4 3.03e-4,0.0016 0,0.00195 -0.141094,0.1649518 -0.271909,0.3391291 -0.388671,0.5234375 -2.82e-4,4.438e-4 2.81e-4,0.00151 0,0.00195 L 23.999895,12.74219 4.1756761,44.031252 c -0.9055115,3.555952 1.7858639,6.201075 5.8124998,8.140625 4.3948291,2.116904 10.3393511,3.376576 14.9707031,4.080078 1.523538,2.00441 4.581782,2.748047 7.041016,2.748047 2.477402,0 5.562501,-0.754854 7.074219,-2.792969 4.162598,-0.710539 9.133327,-1.8802 13.205078,-3.498046 5.442446,-2.162475 9.227083,-5.093501 7.136719,-8.677735 L 36.130754,7.279299 C 35.917798,6.9431456 35.660166,6.6378023 35.369036,6.3671896 35.223842,6.2321363 35.069623,6.1053283 34.908098,5.9882834 c -4.44e-4,-3.213e-4 -0.0015,3.211e-4 -0.002,0 -0.161529,-0.1169726 -0.33008,-0.2244609 -0.505859,-0.3222656 -5.1e-4,-2.831e-4 -0.0014,2.828e-4 -0.002,0 -0.35207,-0.1957447 -0.73022,-0.3529821 -1.126954,-0.4648438 -6.08e-4,-1.709e-4 -0.0013,1.707e-4 -0.002,0 -0.0433,-0.012192 -0.08909,-0.018165 -0.132812,-0.029297 -0.33699,-0.085799 -0.684549,-0.1424725 -1.041016,-0.1621093 -0.02173,-0.0012 -0.04267,-0.00492 -0.06445,-0.00586 z"
     transform="matrix(0.89541422,0,0,0.89541422,3.3468403,3.3466819)" />
  <ellipse
     cx="32.000095"
     cy="39.90913"
     rx="6.2678995"
     ry="7.3128476"
     style="fill:#4f4f4f;stroke-width:0.895414"
     id="ellipse6" />
  <ellipse
     cx="32.000095"
     cy="39.90913"
     rx="6.2678995"
     ry="7.3128476"
     style="fill:none;stroke:url(#radialGradient11);stroke-width:0.6;stroke-dasharray:none;stroke-opacity:1;filter:url(#filter11)"
     id="ellipse6-3"
     transform="matrix(0.91850589,0,0,0.91850589,2.6078194,3.2523591)" />
  <path
     id="rect5"
     style="fill:url(#radialGradient19);stroke-width:0.895414"
     d="M 16.777344 23.941406 C 15.289165 23.941406 14.091797 25.637841 14.091797 27.746094 L 14.091797 50.580078 C 14.091797 52.688331 15.289165 54.384766 16.777344 54.384766 C 18.265522 54.384766 19.464844 52.688331 19.464844 50.580078 L 19.464844 27.746094 C 19.464844 25.637841 18.265522 23.941406 16.777344 23.941406 z M 47.222656 23.941406 C 45.734478 23.941406 44.535156 25.637841 44.535156 27.746094 L 44.535156 50.580078 C 44.535156 52.688331 45.734478 54.384766 47.222656 54.384766 C 48.710835 54.384766 49.908203 52.688331 49.908203 50.580078 L 49.908203 27.746094 C 49.908203 25.637841 48.710835 23.941406 47.222656 23.941406 z " />
  <path
     style="fill:none;stroke-width:0.3;stroke:url(#radialGradient14);filter:url(#filter15);stroke-dasharray:none"
     d="m 47.222656,23.941406 c -1.488178,0 -2.6875,1.696435 -2.6875,3.804688 v 22.833984 c 0,2.108253 1.199322,3.804687 2.6875,3.804687 1.488179,0 2.685547,-1.696433 2.685547,-3.804687 V 27.746094 c 0,-2.108253 -1.197368,-3.804688 -2.685547,-3.804688 z"
     id="path13" />
  <path
     style="fill:none;stroke-width:0.3;stroke:url(#radialGradient15);filter:url(#filter16);stroke-dasharray:none"
     d="m 16.777344,23.941406 c -1.488179,0 -2.685547,1.696435 -2.685547,3.804688 v 22.833984 c 0,2.108253 1.197368,3.804687 2.685547,3.804687 1.488178,0 2.6875,-1.696433 2.6875,-3.804687 V 27.746094 c 0,-2.108253 -1.199322,-3.804688 -2.6875,-3.804688 z"
     id="rect5-5" />
</svg>
