<?xml version="1.0" encoding="UTF-8" standalone="no"?>
<svg
   width="64"
   height="64"
   version="1.1"
   id="svg5"
   sodipodi:docname="allegorithmic-Substance_Alchemist.svg"
   inkscape:version="1.4 (e7c3feb100, 2024-10-09)"
   xmlns:inkscape="http://www.inkscape.org/namespaces/inkscape"
   xmlns:sodipodi="http://sodipodi.sourceforge.net/DTD/sodipodi-0.dtd"
   xmlns="http://www.w3.org/2000/svg"
   xmlns:svg="http://www.w3.org/2000/svg">
  <defs
     id="defs5">
    <inkscape:path-effect
       effect="fillet_chamfer"
       id="path-effect6"
       is_visible="true"
       lpeversion="1"
       nodesatellites_param="F,0,0,1,0,3.4734868,0,1 @ F,0,0,1,0,3.4734868,0,1 @ F,0,1,1,0,2.5080373,0,1 @ F,0,0,1,0,0,0,1 @ F,0,0,1,0,1.0348624,0,1 @ F,0,0,1,0,1.0348624,0,1 @ F,0,0,1,0,0.88276978,0,1 @ F,0,0,1,0,0.88276978,0,1 @ F,0,0,1,0,3.4734868,0,1 @ F,0,0,1,0,3.4734868,0,1 @ F,0,0,1,0,3.4734868,0,1 @ F,0,0,1,0,2.5080373,0,1 @ F,0,0,1,0,0,0,1 @ F,0,0,1,0,1.2912191,0,1 @ F,0,0,1,0,1.2912191,0,1 @ F,0,0,1,0,0.74087809,0,1 @ F,0,0,1,0,0.74087809,0,1 @ F,0,0,1,0,3.4734868,0,1"
       radius="0"
       unit="px"
       method="auto"
       mode="F"
       chamfer_steps="1"
       flexible="false"
       use_knot_distance="true"
       apply_no_radius="true"
       apply_with_radius="true"
       only_selected="false"
       hide_knots="false" />
    <inkscape:path-effect
       effect="fillet_chamfer"
       id="path-effect5"
       is_visible="true"
       lpeversion="1"
       nodesatellites_param="F,0,0,1,0,0,0,1 @ F,0,0,1,0,0,0,1 @ F,0,0,1,0,0,0,1 @ F,0,0,1,0,0,0,1 @ F,0,0,1,0,0,0,1 @ F,0,0,1,0,0,0,1 @ F,0,0,1,0,0,0,1 @ F,0,0,1,0,0,0,1 @ F,0,0,1,0,0,0,1 @ F,0,0,1,0,0,0,1 @ F,0,0,1,0,0,0,1 @ F,0,0,1,0,0,0,1 @ F,0,0,1,0,0,0,1 @ F,0,0,1,0,0,0,1 @ F,0,0,1,0,0,0,1 @ F,0,0,1,0,0,0,1 @ F,0,0,1,0,0,0,1 @ F,0,0,1,0,0,0,1"
       radius="0"
       unit="px"
       method="auto"
       mode="F"
       chamfer_steps="1"
       flexible="false"
       use_knot_distance="true"
       apply_no_radius="true"
       apply_with_radius="true"
       only_selected="false"
       hide_knots="false" />
    <filter
       inkscape:collect="always"
       style="color-interpolation-filters:sRGB"
       id="filter6"
       x="-0.069486645"
       y="-0.069486645"
       width="1.1389733"
       height="1.1389733">
      <feGaussianBlur
         inkscape:collect="always"
         stdDeviation="1.5588551"
         id="feGaussianBlur6" />
    </filter>
  </defs>
  <sodipodi:namedview
     id="namedview5"
     pagecolor="#505050"
     bordercolor="#eeeeee"
     borderopacity="1"
     inkscape:showpageshadow="0"
     inkscape:pageopacity="0"
     inkscape:pagecheckerboard="0"
     inkscape:deskcolor="#505050"
     inkscape:zoom="9.1640625"
     inkscape:cx="23.188406"
     inkscape:cy="39.556692"
     inkscape:current-layer="svg5" />
  <rect
     x="4"
     y="4"
     width="56"
     height="56"
     rx="16.964949"
     ry="16.964949"
     style="fill:#4f7f2b;fill-opacity:1"
     id="rect1" />
  <rect
     x="3.9999983"
     y="3.9999983"
     width="56"
     height="56"
     rx="16.964949"
     ry="16.964949"
     style="fill:none;stroke:#000000;stroke-width:0.3;stroke-dasharray:none;stroke-opacity:1;filter:url(#filter6)"
     id="rect1-1" />
  <path
     style="fill:#83d344;fill-opacity:1"
     d="m 28.972594,15.202916 -9.945188,5.594168 A 5.9391327,5.9391327 120.32112 0 0 16,25.973487 v 2.018476 a 3.5277825,3.5277825 54.589504 0 0 2.368833,3.331979 L 39,38.5 32.898512,41.986564 a 1.8366042,1.8366042 179.65486 0 1 -1.803144,0.01086 L 23.904632,38.002574 A 1.7587636,1.7587636 59.527302 0 1 23,36.465138 V 36.38277 A 1.2526547,1.2526547 54.826912 0 0 22.168659,35.203092 L 16.831341,33.296908 A 0.62210481,0.62210481 144.82691 0 0 16,33.88277 v 4.143743 a 5.9391327,5.9391327 59.678877 0 0 3.027406,5.176403 l 9.945188,5.594168 a 6.1750876,6.1750876 0 0 0 6.054812,0 l 9.945188,-5.594168 A 5.9391327,5.9391327 120.32112 0 0 48,38.026513 V 36.008037 A 3.5277825,3.5277825 54.589504 0 0 45.631167,32.676058 L 25,25.5 30.878908,22.140624 a 2.2915688,2.2915688 179.65486 0 1 2.249821,-0.01355 l 6.742542,3.745858 A 2.1944455,2.1944455 59.527302 0 1 41,27.791219 a 1.0286618,1.0286618 53.93298 0 0 0.697716,0.957965 l 5.604568,2.001632 A 0.52211101,0.52211101 144.82691 0 0 48,30.259122 v -4.285635 a 5.9391327,5.9391327 59.678877 0 0 -3.027406,-5.176403 l -9.945188,-5.594168 a 6.1750876,6.1750876 0 0 0 -6.054812,0 z"
     id="path5"
     inkscape:path-effect="#path-effect6"
     inkscape:original-d="m 32,13.5 -16,9 v 8 l 23,8 -7,4 -9,-5 v -2 L 16,33 v 8.5 l 16,9 16,-9 v -8 l -23,-8 7,-4 9,5 v 2 l 7,2.5 v -8.5 z" />
</svg>
