<?xml version="1.0" encoding="UTF-8" standalone="no"?>
<svg
   width="64"
   height="64"
   version="1.1"
   id="svg5"
   sodipodi:docname="allegorithmic-Substance_B2M.svg"
   inkscape:version="1.4 (e7c3feb100, 2024-10-09)"
   xmlns:inkscape="http://www.inkscape.org/namespaces/inkscape"
   xmlns:sodipodi="http://sodipodi.sourceforge.net/DTD/sodipodi-0.dtd"
   xmlns="http://www.w3.org/2000/svg"
   xmlns:svg="http://www.w3.org/2000/svg">
  <defs
     id="defs5">
    <inkscape:path-effect
       effect="fillet_chamfer"
       id="path-effect6"
       is_visible="true"
       lpeversion="1"
       nodesatellites_param="F,0,0,1,0,3.4734868,0,1 @ F,0,0,1,0,3.4734868,0,1 @ F,0,1,1,0,2.5080373,0,1 @ F,0,0,1,0,0,0,1 @ F,0,0,1,0,1.0348624,0,1 @ F,0,0,1,0,1.0348624,0,1 @ F,0,0,1,0,0.88276978,0,1 @ F,0,0,1,0,0.88276978,0,1 @ F,0,0,1,0,3.4734868,0,1 @ F,0,0,1,0,3.4734868,0,1 @ F,0,0,1,0,3.4734868,0,1 @ F,0,0,1,0,2.5080373,0,1 @ F,0,0,1,0,0,0,1 @ F,0,0,1,0,1.2912191,0,1 @ F,0,0,1,0,1.2912191,0,1 @ F,0,0,1,0,0.74087809,0,1 @ F,0,0,1,0,0.74087809,0,1 @ F,0,0,1,0,3.4734868,0,1"
       radius="0"
       unit="px"
       method="auto"
       mode="F"
       chamfer_steps="1"
       flexible="false"
       use_knot_distance="true"
       apply_no_radius="true"
       apply_with_radius="true"
       only_selected="false"
       hide_knots="false" />
    <filter
       inkscape:collect="always"
       style="color-interpolation-filters:sRGB"
       id="filter6"
       x="-0.069486645"
       y="-0.069486645"
       width="1.1389733"
       height="1.1389733">
      <feGaussianBlur
         inkscape:collect="always"
         stdDeviation="1.5588551"
         id="feGaussianBlur6" />
    </filter>
  </defs>
  <sodipodi:namedview
     id="namedview5"
     pagecolor="#505050"
     bordercolor="#eeeeee"
     borderopacity="1"
     inkscape:showpageshadow="0"
     inkscape:pageopacity="0"
     inkscape:pagecheckerboard="0"
     inkscape:deskcolor="#505050"
     inkscape:zoom="18.328125"
     inkscape:cx="32"
     inkscape:cy="32"
     inkscape:current-layer="svg5" />
  <rect
     x="4"
     y="4"
     width="56"
     height="56"
     rx="16.964949"
     ry="16.964949"
     style="fill:#4f7f2b;fill-opacity:1"
     id="rect1" />
  <rect
     x="3.9999983"
     y="3.9999983"
     width="56"
     height="56"
     rx="16.964949"
     ry="16.964949"
     style="fill:none;stroke:#000000;stroke-width:0.3;stroke-dasharray:none;stroke-opacity:1;filter:url(#filter6)"
     id="rect1-1" />
  <path
     style="opacity:0.273625;fill:#000000;fill-opacity:1;stroke-width:0.368946"
     d="m 47.498035,36.338818 c -0.205134,0.02244 -0.361936,0.172002 -0.523164,0.484979 l -0.538292,1.045775 a 8.3012708,8.3012708 0 0 0 -0.933063,-0.05796 8.3012708,8.3012708 0 0 0 -0.930848,0.06276 l -0.541244,-1.049871 c -0.275602,-0.484794 -0.522426,-0.512169 -0.956305,-0.396321 -0.900597,0.373927 -1.80193,0.746893 -2.702895,1.119823 -0.451958,0.187203 -0.568175,0.419713 -0.396247,0.956159 l 0.356401,1.115691 A 8.3012708,8.3012708 0 0 0 39.017456,40.9451 l -1.1227,-0.358983 c -0.536558,-0.17156 -0.76903,-0.05645 -0.956233,0.395509 -0.372708,0.901334 -0.746191,1.802668 -1.119823,2.703632 -0.187239,0.451958 -0.105111,0.698414 0.395621,0.956306 l 1.04559,0.538291 a 8.3012708,8.3012708 0 0 0 -0.05766,0.933063 8.3012708,8.3012708 0 0 0 0.06268,0.930481 l -1.050608,0.54198 c -0.500733,0.257893 -0.58286,0.50398 -0.395621,0.955938 0.374001,0.900964 0.746783,1.801929 1.119823,2.703262 0.187203,0.451958 0.419675,0.567808 0.956233,0.396248 l 1.115322,-0.357508 a 8.3012708,8.3012708 0 0 0 1.325252,1.315659 l -0.359353,1.122701 c -0.171928,0.536816 -0.05571,0.769251 0.396247,0.956307 0.901334,0.372634 1.802668,0.746376 2.703632,1.119748 0.451958,0.187425 0.698044,0.105145 0.956306,-0.395509 l 0.538291,-1.045592 a 8.3012708,8.3012708 0 0 0 0.933063,0.05755 8.3012708,8.3012708 0 0 0 0.930111,-0.06273 l 0.541244,1.050757 c 0.258261,0.500659 0.504348,0.582934 0.956306,0.395509 0.900965,-0.373741 1.802298,-0.746744 2.703631,-1.119748 0.451958,-0.187056 0.568177,-0.419491 0.396248,-0.956307 l -0.357139,-1.115322 a 8.3012708,8.3012708 0 0 0 1.315659,-1.325252 l 1.122701,0.358984 c 0.536446,0.171559 0.768882,0.05645 0.956307,-0.395509 0.372634,-0.901703 0.746007,-1.802667 1.119748,-2.704001 0.187055,-0.451958 0.105145,-0.698045 -0.395509,-0.955938 l -1.045592,-0.538291 a 8.3012708,8.3012708 0 0 0 0.05755,-0.933432 8.3012708,8.3012708 0 0 0 -0.06273,-0.930111 l 1.050757,-0.541981 c 0.500659,-0.257892 0.582564,-0.504347 0.395509,-0.956305 -0.37411,-0.900596 -0.746745,-1.801561 -1.119748,-2.702895 -0.187425,-0.451958 -0.41986,-0.567807 -0.956307,-0.396247 l -1.115322,0.357508 A 8.3012708,8.3012708 0 0 0 50.671694,39.62685 l 0.359353,-1.1227 c 0.171929,-0.536447 0.05571,-0.768919 -0.396248,-0.95616 -0.901333,-0.372671 -1.802666,-0.746154 -2.703631,-1.119823 -0.169345,-0.07021 -0.309914,-0.102792 -0.433142,-0.08936 z"
     id="path2" />
  <path
     style="fill:#83d344;fill-opacity:1"
     d="m 28.972594,15.202916 -9.945188,5.594168 A 5.9391327,5.9391327 120.32112 0 0 16,25.973487 v 2.018476 a 3.5277825,3.5277825 54.589504 0 0 2.368833,3.331979 L 39,38.5 32.898512,41.986564 a 1.8366042,1.8366042 179.65486 0 1 -1.803144,0.01086 L 23.904632,38.002574 A 1.7587636,1.7587636 59.527302 0 1 23,36.465138 V 36.38277 A 1.2526547,1.2526547 54.826912 0 0 22.168659,35.203092 L 16.831341,33.296908 A 0.62210481,0.62210481 144.82691 0 0 16,33.88277 v 4.143743 a 5.9391327,5.9391327 59.678877 0 0 3.027406,5.176403 l 9.945188,5.594168 a 6.1750876,6.1750876 0 0 0 6.054812,0 l 9.945188,-5.594168 A 5.9391327,5.9391327 120.32112 0 0 48,38.026513 V 36.008037 A 3.5277825,3.5277825 54.589504 0 0 45.631167,32.676058 L 25,25.5 30.878908,22.140624 a 2.2915688,2.2915688 179.65486 0 1 2.249821,-0.01355 l 6.742542,3.745858 A 2.1944455,2.1944455 59.527302 0 1 41,27.791219 a 1.0286618,1.0286618 53.93298 0 0 0.697716,0.957965 l 5.604568,2.001632 A 0.52211101,0.52211101 144.82691 0 0 48,30.259122 v -4.285635 a 5.9391327,5.9391327 59.678877 0 0 -3.027406,-5.176403 l -9.945188,-5.594168 a 6.1750876,6.1750876 0 0 0 -6.054812,0 z"
     id="path5"
     inkscape:path-effect="#path-effect6"
     inkscape:original-d="m 32,13.5 -16,9 v 8 l 23,8 -7,4 -9,-5 v -2 L 16,33 v 8.5 l 16,9 16,-9 v -8 l -23,-8 7,-4 9,5 v 2 l 7,2.5 v -8.5 z" />
</svg>
