<?xml version="1.0" encoding="UTF-8" standalone="no"?>
<svg
   width="64"
   height="64"
   version="1.1"
   id="svg11"
   sodipodi:docname="applications-accessories.svg"
   inkscape:version="1.4 (e7c3feb100, 2024-10-09)"
   xmlns:inkscape="http://www.inkscape.org/namespaces/inkscape"
   xmlns:sodipodi="http://sodipodi.sourceforge.net/DTD/sodipodi-0.dtd"
   xmlns:xlink="http://www.w3.org/1999/xlink"
   xmlns="http://www.w3.org/2000/svg"
   xmlns:svg="http://www.w3.org/2000/svg">
  <defs
     id="defs11">
    <filter
       inkscape:collect="always"
       style="color-interpolation-filters:sRGB"
       id="filter23"
       x="-0.19547689"
       y="-0.16210516"
       width="1.3909538"
       height="1.3242103">
      <feGaussianBlur
         inkscape:collect="always"
         stdDeviation="1.016212"
         id="feGaussianBlur23" />
    </filter>
    <inkscape:path-effect
       effect="fillet_chamfer"
       id="path-effect22-0"
       is_visible="true"
       lpeversion="1"
       nodesatellites_param="F,0,0,1,0,1.9277992,0,1 @ F,0,0,1,0,0.48794334,0,1 @ F,0,0,1,0,0,0,1 @ F,0,0,1,0,0,0,1 @ F,0,0,1,0,0,0,1 @ F,0,1,1,0,0.48794334,0,1 @ F,0,0,1,0,1.9277992,0,1 | F,0,0,1,0,0,0,1 @ F,0,0,1,0,0,0,1 @ F,0,0,1,0,0,0,1 @ F,0,0,1,0,0,0,1"
       radius="0"
       unit="px"
       method="auto"
       mode="F"
       chamfer_steps="1"
       flexible="false"
       use_knot_distance="true"
       apply_no_radius="true"
       apply_with_radius="true"
       only_selected="false"
       hide_knots="false" />
    <inkscape:path-effect
       effect="fillet_chamfer"
       id="path-effect22"
       is_visible="true"
       lpeversion="1"
       nodesatellites_param="F,0,0,1,0,1.9277992,0,1 @ F,0,0,1,0,0.48794334,0,1 @ F,0,0,1,0,0,0,1 @ F,0,0,1,0,0,0,1 @ F,0,0,1,0,0,0,1 @ F,0,1,1,0,0.48794334,0,1 @ F,0,0,1,0,1.9277992,0,1 | F,0,0,1,0,0,0,1 @ F,0,0,1,0,0,0,1 @ F,0,0,1,0,0,0,1 @ F,0,0,1,0,0,0,1"
       radius="0"
       unit="px"
       method="auto"
       mode="F"
       chamfer_steps="1"
       flexible="false"
       use_knot_distance="true"
       apply_no_radius="true"
       apply_with_radius="true"
       only_selected="false"
       hide_knots="false" />
    <inkscape:path-effect
       effect="fillet_chamfer"
       id="path-effect21-9"
       is_visible="true"
       lpeversion="1"
       nodesatellites_param="F,0,0,1,0,0,0,1 @ F,0,0,1,0,1.8369268,0,1 @ F,0,0,1,0,2.4111799,0,1 @ F,0,0,1,0,1.8369268,0,1 @ F,0,0,1,0,0,0,1 @ F,0,0,1,0,1.3187549,0,1 @ F,0,1,1,0,1.3187549,0,1 @ F,0,0,1,0,0,0,1 @ F,0,0,1,0,0,0,1"
       radius="0"
       unit="px"
       method="auto"
       mode="F"
       chamfer_steps="1"
       flexible="false"
       use_knot_distance="true"
       apply_no_radius="true"
       apply_with_radius="true"
       only_selected="false"
       hide_knots="false" />
    <inkscape:path-effect
       effect="fillet_chamfer"
       id="path-effect21"
       is_visible="true"
       lpeversion="1"
       nodesatellites_param="F,0,0,1,0,0,0,1 @ F,0,0,1,0,1.8369268,0,1 @ F,0,0,1,0,2.4111799,0,1 @ F,0,0,1,0,1.8369268,0,1 @ F,0,0,1,0,0,0,1 @ F,0,0,1,0,1.3187549,0,1 @ F,0,1,1,0,1.3187549,0,1 @ F,0,0,1,0,0,0,1 @ F,0,0,1,0,0,0,1"
       radius="0"
       unit="px"
       method="auto"
       mode="F"
       chamfer_steps="1"
       flexible="false"
       use_knot_distance="true"
       apply_no_radius="true"
       apply_with_radius="true"
       only_selected="false"
       hide_knots="false" />
    <inkscape:path-effect
       effect="fillet_chamfer"
       id="path-effect20-1"
       is_visible="true"
       lpeversion="1"
       nodesatellites_param="F,0,0,1,0,0,0,1 @ F,0,0,1,0,1.4620002,0,1 @ F,0,0,1,0,2.5970285,0,1 @ F,0,1,1,0,1.4620002,0,1 @ F,0,0,1,0,0,0,1"
       radius="0"
       unit="px"
       method="auto"
       mode="F"
       chamfer_steps="1"
       flexible="false"
       use_knot_distance="true"
       apply_no_radius="true"
       apply_with_radius="true"
       only_selected="false"
       hide_knots="false" />
    <inkscape:path-effect
       effect="fillet_chamfer"
       id="path-effect20"
       is_visible="true"
       lpeversion="1"
       nodesatellites_param="F,0,0,1,0,0,0,1 @ F,0,0,1,0,1.4620002,0,1 @ F,0,0,1,0,2.5970285,0,1 @ F,0,1,1,0,1.4620002,0,1 @ F,0,0,1,0,0,0,1"
       radius="0"
       unit="px"
       method="auto"
       mode="F"
       chamfer_steps="1"
       flexible="false"
       use_knot_distance="true"
       apply_no_radius="true"
       apply_with_radius="true"
       only_selected="false"
       hide_knots="false" />
    <inkscape:path-effect
       effect="fillet_chamfer"
       id="path-effect17-6"
       is_visible="true"
       lpeversion="1"
       nodesatellites_param="F,0,1,1,0,13.349292,0,1 @ F,0,1,1,0,13.349292,0,1 @ F,0,0,1,0,13.349292,0,1 @ F,0,1,1,0,13.349292,0,1"
       radius="0"
       unit="px"
       method="auto"
       mode="F"
       chamfer_steps="1"
       flexible="false"
       use_knot_distance="true"
       apply_no_radius="true"
       apply_with_radius="true"
       only_selected="false"
       hide_knots="false" />
    <linearGradient
       id="linearGradient17"
       inkscape:collect="always">
      <stop
         style="stop-color:#3ac176;stop-opacity:1;"
         offset="0"
         id="stop17" />
      <stop
         style="stop-color:#2f9ba1;stop-opacity:1;"
         offset="1"
         id="stop18" />
    </linearGradient>
    <inkscape:path-effect
       effect="fillet_chamfer"
       id="path-effect17"
       is_visible="true"
       lpeversion="1"
       nodesatellites_param="F,0,1,1,0,13.349292,0,1 @ F,0,1,1,0,13.349292,0,1 @ F,0,0,1,0,13.349292,0,1 @ F,0,1,1,0,13.349292,0,1"
       radius="0"
       unit="px"
       method="auto"
       mode="F"
       chamfer_steps="1"
       flexible="false"
       use_knot_distance="true"
       apply_no_radius="true"
       apply_with_radius="true"
       only_selected="false"
       hide_knots="false" />
    <radialGradient
       inkscape:collect="always"
       xlink:href="#linearGradient17"
       id="radialGradient12"
       cx="3.9187953"
       cy="57.248955"
       fx="3.9187953"
       fy="57.248955"
       r="28"
       gradientTransform="matrix(2.2519863,0,0,1.930274,-2.6397379,-57.463433)"
       gradientUnits="userSpaceOnUse" />
    <inkscape:path-effect
       effect="fillet_chamfer"
       id="path-effect20-3"
       is_visible="true"
       lpeversion="1"
       nodesatellites_param="F,0,0,1,0,0,0,1 @ F,0,0,1,0,1.4620002,0,1 @ F,0,0,1,0,2.5970285,0,1 @ F,0,1,1,0,1.4620002,0,1 @ F,0,0,1,0,0,0,1"
       radius="0"
       unit="px"
       method="auto"
       mode="F"
       chamfer_steps="1"
       flexible="false"
       use_knot_distance="true"
       apply_no_radius="true"
       apply_with_radius="true"
       only_selected="false"
       hide_knots="false" />
    <inkscape:path-effect
       effect="fillet_chamfer"
       id="path-effect21-6"
       is_visible="true"
       lpeversion="1"
       nodesatellites_param="F,0,0,1,0,0,0,1 @ F,0,0,1,0,1.8369268,0,1 @ F,0,0,1,0,2.4111799,0,1 @ F,0,0,1,0,1.8369268,0,1 @ F,0,0,1,0,0,0,1 @ F,0,0,1,0,1.3187549,0,1 @ F,0,1,1,0,1.3187549,0,1 @ F,0,0,1,0,0,0,1 @ F,0,0,1,0,0,0,1"
       radius="0"
       unit="px"
       method="auto"
       mode="F"
       chamfer_steps="1"
       flexible="false"
       use_knot_distance="true"
       apply_no_radius="true"
       apply_with_radius="true"
       only_selected="false"
       hide_knots="false" />
    <filter
       inkscape:collect="always"
       style="color-interpolation-filters:sRGB"
       id="filter13"
       x="-0.093399817"
       y="-0.089440818"
       width="1.1867875"
       height="1.1788934">
      <feGaussianBlur
         inkscape:collect="always"
         stdDeviation="1.408801"
         id="feGaussianBlur13" />
    </filter>
    <filter
       inkscape:collect="always"
       style="color-interpolation-filters:sRGB"
       id="filter14"
       x="-0.16493307"
       y="-0.089520045"
       width="1.3298663"
       height="1.1790546">
      <feGaussianBlur
         inkscape:collect="always"
         stdDeviation="1.408801"
         id="feGaussianBlur14" />
    </filter>
    <filter
       inkscape:collect="always"
       style="color-interpolation-filters:sRGB"
       id="filter15"
       x="-0.12740564"
       y="-0.15108619"
       width="1.2578528"
       height="1.2997261">
      <feGaussianBlur
         inkscape:collect="always"
         stdDeviation="2.518157"
         id="feGaussianBlur15" />
    </filter>
  </defs>
  <sodipodi:namedview
     id="namedview11"
     pagecolor="#505050"
     bordercolor="#eeeeee"
     borderopacity="1"
     inkscape:showpageshadow="0"
     inkscape:pageopacity="0"
     inkscape:pagecheckerboard="0"
     inkscape:deskcolor="#505050"
     inkscape:zoom="12.926796"
     inkscape:cx="23.130248"
     inkscape:cy="34.347259"
     inkscape:current-layer="svg11" />
  <path
     style="fill:url(#radialGradient12);stroke-width:0.859107"
     d="m 6.255099,11.622354 v 37.800728 c 0,3.43643 3.4364298,3.43643 3.4364298,3.43643 H 54.365116 Z m 8.591075,18.678869 16.292835,13.967214 H 14.846174 Z"
     id="path2" />
  <path
     style="fill:none;stroke:#000000;stroke-width:0.171821;stroke-dasharray:none;stroke-opacity:1;filter:url(#filter15)"
     d="m 6.255099,11.622354 v 37.800728 c 0,3.43643 3.4364298,3.43643 3.4364298,3.43643 H 54.365116 Z m 8.591075,18.678869 16.292835,13.967214 H 14.846174 Z"
     id="path2-2" />
  <path
     style="fill:#ffffff;fill-opacity:1;stroke:none;stroke-width:0.461708;stroke-linecap:round;stroke-linejoin:round;stroke-dasharray:none;stroke-opacity:1"
     d="m 29.087163,16.099292 15.668004,34.077417 a 4.2291445,4.2291445 46.238043 0 0 1.911433,1.995876 l 0.338716,0.173837 a 2.0406641,2.0406641 155.32712 0 0 2.916162,-1.339614 l 0.08933,-0.372474 A 4.2246102,4.2246102 84.397204 0 0 49.741031,47.884321 L 34.073029,13.806904 Z"
     id="path15-3"
     sodipodi:nodetypes="cccccc"
     inkscape:transform-center-x="0.022989768"
     inkscape:transform-center-y="0.27672163"
     inkscape:path-effect="#path-effect20"
     inkscape:original-d="M 29.087163,16.099292 45.3659,51.505035 49.315819,53.532226 50.351764,49.212647 34.073029,13.806904 Z"
     transform="matrix(1.1224008,0,0,1.1224008,-3.5077634,-1.295639)" />
  <path
     style="fill:none;fill-opacity:1;stroke:#000000;stroke-width:0.17818946;stroke-linecap:round;stroke-linejoin:round;stroke-dasharray:none;stroke-opacity:1;filter:url(#filter14)"
     d="m 29.087163,16.099292 15.668004,34.077417 a 4.2291445,4.2291445 46.238043 0 0 1.911433,1.995876 l 0.338716,0.173837 a 2.0406641,2.0406641 155.32712 0 0 2.916162,-1.339614 l 0.08933,-0.372474 A 4.2246102,4.2246102 84.397204 0 0 49.741031,47.884321 L 34.073029,13.806904 Z"
     id="path15-3-7"
     sodipodi:nodetypes="cccccc"
     inkscape:transform-center-x="0.022989768"
     inkscape:transform-center-y="0.27672163"
     inkscape:path-effect="#path-effect20-3"
     inkscape:original-d="M 29.087163,16.099292 45.3659,51.505035 49.315819,53.532226 50.351764,49.212647 34.073029,13.806904 Z"
     transform="matrix(1.1224008,0,0,1.1224008,-3.507108,-1.2954345)" />
  <path
     id="path15"
     style="fill:#ffffff;fill-opacity:1;stroke:none;stroke-width:0.461708;stroke-linecap:round;stroke-linejoin:round;stroke-dasharray:none;stroke-opacity:1"
     d="M 29.923391,13.917635 14.698914,47.786338 a 5.0345955,5.0345955 94.159568 0 0 -0.250339,3.442213 l 0.0043,0.01516 a 2.0280241,2.0280241 24.181444 0 0 2.831693,1.271511 l 0.01159,-0.0056 a 5.0409252,5.0409252 134.22649 0 0 2.407627,-2.473528 L 25.295124,37.59752 c 10.310416,2.018587 21.0111,-2.937023 25.978122,-12.558563 0.334058,-0.647097 0.03445,-1.429669 -0.629847,-1.728281 l -2.603358,-1.17025 c -0.664299,-0.298612 -1.44084,5.98e-4 -1.785164,0.642226 -3.681538,6.860318 -11.176906,10.56 -18.632344,9.637261 l 7.305743,-16.25251 z"
     sodipodi:nodetypes="cccccccccc"
     inkscape:path-effect="#path-effect21"
     inkscape:original-d="m 29.923391,13.917635 -15.977611,35.54414 1.167088,4.101039 3.837796,-1.851268 6.34446,-14.114026 c 10.726534,2.100055 21.875474,-3.34839 26.551094,-13.746159 l -5.008996,-2.25162 C 43.413569,29.21378 35.495786,33.394364 27.622533,32.419913 l 7.305743,-16.25251 z"
     transform="matrix(1.1224008,0,0,1.1224008,-3.5077634,-1.295639)" />
  <path
     id="path15-5"
     style="fill:none;fill-opacity:1;stroke:#000000;stroke-width:0.17818946;stroke-linecap:round;stroke-linejoin:round;stroke-dasharray:none;stroke-opacity:1;filter:url(#filter13)"
     d="M 29.923391,13.917635 14.698914,47.786338 a 5.0345955,5.0345955 94.159568 0 0 -0.250339,3.442213 l 0.0043,0.01516 a 2.0280241,2.0280241 24.181444 0 0 2.831693,1.271511 l 0.01159,-0.0056 a 5.0409252,5.0409252 134.22649 0 0 2.407627,-2.473528 L 25.295124,37.59752 c 10.310416,2.018587 21.0111,-2.937023 25.978122,-12.558563 0.334058,-0.647097 0.03445,-1.429669 -0.629847,-1.728281 l -2.603358,-1.17025 c -0.664299,-0.298612 -1.44084,5.98e-4 -1.785164,0.642226 -3.681538,6.860318 -11.176906,10.56 -18.632344,9.637261 l 7.305743,-16.25251 z"
     sodipodi:nodetypes="cccccccccc"
     inkscape:path-effect="#path-effect21-6"
     inkscape:original-d="m 29.923391,13.917635 -15.977611,35.54414 1.167088,4.101039 3.837796,-1.851268 6.34446,-14.114026 c 10.726534,2.100055 21.875474,-3.34839 26.551094,-13.746159 l -5.008996,-2.25162 C 43.413569,29.21378 35.495786,33.394364 27.622533,32.419913 l 7.305743,-16.25251 z"
     transform="matrix(1.1224008,0,0,1.1224008,-3.507108,-1.2954345)" />
  <path
     id="path17"
     style="fill:#414141;fill-opacity:1;stroke:none;stroke-width:0.581031;stroke-linecap:round;stroke-linejoin:round;stroke-dasharray:none;stroke-opacity:1"
     d="m 30.378906,11.181705 v 0.515899 c 0,0.269483 -0.210619,0.547322 -0.462936,0.641787 -2.519237,0.943177 -4.215212,3.358688 -4.214798,6.082484 2.91e-4,3.586494 2.907646,6.493849 6.49414,6.494141 3.586494,-2.91e-4 6.49385,-2.907647 6.494141,-6.494141 -0.0066,-2.581225 -1.538436,-4.896488 -3.872705,-5.925519 -0.246548,-0.108687 -0.453467,-0.39841 -0.453467,-0.667893 V 11.181705 A 1.9277992,1.9277992 45 0 0 32.435482,9.2539062 h -0.128777 a 1.9277992,1.9277992 135 0 0 -1.927799,1.9277988 z m 1.816406,5.95892 c 0.707299,7.61e-4 1.280489,0.573951 1.28125,1.28125 -7.61e-4,0.707299 -0.573951,1.280489 -1.28125,1.28125 -0.707299,-7.61e-4 -1.280489,-0.573951 -1.28125,-1.28125 7.61e-4,-0.707299 0.573951,-1.280489 1.28125,-1.28125 z"
     inkscape:path-effect="#path-effect22"
     inkscape:original-d="m 30.378906,9.2539062 v 2.9316408 a 6.4946687,6.4946687 0 0 0 -4.677734,6.236328 6.4946687,6.4946687 0 0 0 6.49414,6.494141 6.4946687,6.4946687 0 0 0 6.494141,-6.494141 6.4946687,6.4946687 0 0 0 -4.326172,-6.105469 V 9.2539062 Z m 1.816406,7.8867188 a 1.2826307,1.2826307 0 0 1 1.28125,1.28125 1.2826307,1.2826307 0 0 1 -1.28125,1.28125 1.2826307,1.2826307 0 0 1 -1.28125,-1.28125 1.2826307,1.2826307 0 0 1 1.28125,-1.28125 z"
     transform="matrix(1.1224008,0,0,1.1224008,-3.5077634,-1.295639)" />
  <path
     id="path17-9"
     style="fill:none;fill-opacity:1;stroke:#000000;stroke-width:0.2;stroke-linecap:round;stroke-linejoin:round;stroke-dasharray:none;stroke-opacity:1;filter:url(#filter23)"
     d="m 30.378906,11.181705 v 0.515899 c 0,0.269483 -0.210619,0.547322 -0.462936,0.641787 -2.519237,0.943177 -4.215212,3.358688 -4.214798,6.082484 2.91e-4,3.586494 2.907646,6.493849 6.49414,6.494141 3.586494,-2.91e-4 6.49385,-2.907647 6.494141,-6.494141 -0.0066,-2.581225 -1.538436,-4.896488 -3.872705,-5.925519 -0.246548,-0.108687 -0.453467,-0.39841 -0.453467,-0.667893 V 11.181705 A 1.9277992,1.9277992 45 0 0 32.435482,9.2539062 h -0.128777 a 1.9277992,1.9277992 135 0 0 -1.927799,1.9277988 z m 1.816406,5.95892 c 0.707299,7.61e-4 1.280489,0.573951 1.28125,1.28125 -7.61e-4,0.707299 -0.573951,1.280489 -1.28125,1.28125 -0.707299,-7.61e-4 -1.280489,-0.573951 -1.28125,-1.28125 7.61e-4,-0.707299 0.573951,-1.280489 1.28125,-1.28125 z"
     inkscape:path-effect="#path-effect22-0"
     inkscape:original-d="m 30.378906,9.2539062 v 2.9316408 a 6.4946687,6.4946687 0 0 0 -4.677734,6.236328 6.4946687,6.4946687 0 0 0 6.49414,6.494141 6.4946687,6.4946687 0 0 0 6.494141,-6.494141 6.4946687,6.4946687 0 0 0 -4.326172,-6.105469 V 9.2539062 Z m 1.816406,7.8867188 a 1.2826307,1.2826307 0 0 1 1.28125,1.28125 1.2826307,1.2826307 0 0 1 -1.28125,1.28125 1.2826307,1.2826307 0 0 1 -1.28125,-1.28125 1.2826307,1.2826307 0 0 1 1.28125,-1.28125 z"
     transform="matrix(1.1224008,0,0,1.1224008,-3.5077634,-1.295639)" />
</svg>
