<?xml version="1.0" encoding="UTF-8" standalone="no"?>
<svg
   width="64"
   height="64"
   version="1"
   id="svg10"
   sodipodi:docname="bluemail.svg"
   inkscape:version="1.3.2 (091e20ef0f, 2023-11-25, custom)"
   xmlns:inkscape="http://www.inkscape.org/namespaces/inkscape"
   xmlns:sodipodi="http://sodipodi.sourceforge.net/DTD/sodipodi-0.dtd"
   xmlns:xlink="http://www.w3.org/1999/xlink"
   xmlns="http://www.w3.org/2000/svg"
   xmlns:svg="http://www.w3.org/2000/svg">
  <defs
     id="defs10">
    <linearGradient
       id="linearGradient2"
       inkscape:collect="always">
      <stop
         style="stop-color:#00acff;stop-opacity:1;"
         offset="0"
         id="stop1" />
      <stop
         style="stop-color:#0069ff;stop-opacity:1;"
         offset="1"
         id="stop2" />
    </linearGradient>
    <linearGradient
       id="linearGradient13"
       inkscape:collect="always">
      <stop
         style="stop-color:#0082e5;stop-opacity:1;"
         offset="0"
         id="stop14" />
      <stop
         style="stop-color:#00c7e9;stop-opacity:1;"
         offset="1"
         id="stop15" />
    </linearGradient>
    <linearGradient
       id="linearGradient10"
       inkscape:collect="always">
      <stop
         style="stop-color:#00d0ff;stop-opacity:1;"
         offset="0"
         id="stop10" />
      <stop
         style="stop-color:#00a2ff;stop-opacity:1;"
         offset="1"
         id="stop11" />
    </linearGradient>
    <radialGradient
       inkscape:collect="always"
       xlink:href="#linearGradient10"
       id="radialGradient11"
       cx="35.059376"
       cy="55.802879"
       fx="35.059376"
       fy="55.802879"
       r="25.999146"
       gradientTransform="matrix(3.3458751,-0.89652451,0.62067085,2.3163751,-96.102378,-42.28061)"
       gradientUnits="userSpaceOnUse" />
    <radialGradient
       inkscape:collect="always"
       xlink:href="#linearGradient2"
       id="radialGradient13"
       cx="33.635899"
       cy="46.490879"
       fx="33.635899"
       fy="46.490879"
       r="25.999146"
       gradientTransform="matrix(-4.5014038,-1.2061475,0.83502519,-3.1163567,145.49865,229.79568)"
       gradientUnits="userSpaceOnUse" />
    <radialGradient
       inkscape:collect="always"
       xlink:href="#linearGradient13"
       id="radialGradient15"
       cx="32.458069"
       cy="50.788879"
       fx="32.458069"
       fy="50.788879"
       r="27.999095"
       gradientTransform="matrix(1.1686474,-1.1686474,1.0517237,1.0517237,-59.517218,31.694326)"
       gradientUnits="userSpaceOnUse" />
    <filter
       inkscape:collect="always"
       style="color-interpolation-filters:sRGB"
       id="filter21"
       x="-0.10117897"
       y="-0.11294887"
       width="1.2023579"
       height="1.2253762">
      <feGaussianBlur
         inkscape:collect="always"
         stdDeviation="2.1235414"
         id="feGaussianBlur21" />
    </filter>
    <filter
       inkscape:collect="always"
       style="color-interpolation-filters:sRGB"
       id="filter22"
       x="-0.128772"
       y="-0.1573888"
       width="1.257544"
       height="1.3147776">
      <feGaussianBlur
         inkscape:collect="always"
         stdDeviation="2.1235414"
         id="feGaussianBlur22" />
    </filter>
    <filter
       inkscape:collect="always"
       style="color-interpolation-filters:sRGB"
       id="filter23"
       x="-0.10896203"
       y="-0.16014143"
       width="1.2225397"
       height="1.317531">
      <feGaussianBlur
         inkscape:collect="always"
         stdDeviation="2.1235414"
         id="feGaussianBlur23" />
    </filter>
    <filter
       inkscape:collect="always"
       style="color-interpolation-filters:sRGB"
       id="filter24"
       x="-0.11357772"
       y="-0.16014143"
       width="1.2225397"
       height="1.317531">
      <feGaussianBlur
         inkscape:collect="always"
         stdDeviation="2.1235414"
         id="feGaussianBlur24" />
    </filter>
    <filter
       inkscape:collect="always"
       style="color-interpolation-filters:sRGB"
       id="filter1"
       x="-0.17661069"
       y="-0.12983257"
       width="1.3532214"
       height="1.2591338">
      <feGaussianBlur
         inkscape:collect="always"
         stdDeviation="1.1563588"
         id="feGaussianBlur1" />
    </filter>
  </defs>
  <sodipodi:namedview
     id="namedview10"
     pagecolor="#ffffff"
     bordercolor="#000000"
     borderopacity="0.25"
     inkscape:showpageshadow="2"
     inkscape:pageopacity="0.0"
     inkscape:pagecheckerboard="0"
     inkscape:deskcolor="#d1d1d1"
     inkscape:zoom="8.9603687"
     inkscape:cx="30.300092"
     inkscape:cy="25.780189"
     inkscape:window-width="1920"
     inkscape:window-height="1020"
     inkscape:window-x="0"
     inkscape:window-y="0"
     inkscape:window-maximized="1"
     inkscape:current-layer="svg10" />
  <path
     style="fill:url(#radialGradient15);stroke-width:0.917163"
     d="m 7.4888127,23.533526 c -0.052737,0.0343 -0.1005357,0.07484 -0.1504826,0.112807 l -0.030083,0.02256 v 0.0037 c -0.5977877,0.469389 -0.9880829,1.191375 -0.9880829,2.013841 l 2.76e-5,22.376212 c 3.6e-6,3.668532 2.8928216,3.668532 3.6685329,3.668532 H 54.011111 c 0,0 3.668532,0 3.668532,-3.668532 l -3.7e-5,-22.376212 c 0,-0.84103 -0.406987,-1.578496 -1.028179,-2.046307 l 0.01101,-0.01467 L 32.000726,5.5102109 c 0,0 -24.661708,18.1383231 -24.5112988,18.0255161 z"
     id="path2-6" />
  <path
     style="fill:none;stroke:#000000;stroke-width:0.1999999;stroke-dasharray:none;stroke-opacity:1;filter:url(#filter21)"
     d="m 7.4888129,23.427465 c -0.052737,0.0343 -0.1005357,0.07484 -0.1504826,0.112807 l -0.030083,0.02256 v 0.0037 c -0.5977877,0.469389 -0.9880829,1.191375 -0.9880829,2.013841 l 2.76e-5,22.376212 c 3.6e-6,3.668532 2.8928216,3.668532 3.6685326,3.668532 H 54.011111 c 0,0 3.668532,0 3.668532,-3.668532 l -3.7e-5,-22.376212 c 0,-0.84103 -0.406987,-1.578496 -1.028179,-2.046307 l 0.01101,-0.01467 L 32.000726,5.4041507 c 0,0 -24.6617078,18.1383223 -24.5112986,18.0255153 z"
     id="path2-6-3" />
  <path
     id="rect3-5"
     style="fill:#ebebeb;stroke-width:0.917163"
     d="m 14.574219,11.009766 c -1.524324,0 -2.751953,1.226692 -2.751953,2.75 v 27.517578 c 0,1.523307 1.227629,2.75 2.751953,2.75 h 34.851563 c 1.524323,0 2.751953,-1.226693 2.751953,-2.75 V 13.759766 c 0,-1.523308 -1.22763,-2.75 -2.751953,-2.75 z m 14.119431,2.812633 v 14.115294 c 0,1.500303 1.215734,2.716036 2.716038,2.716036 1.500301,0 2.716036,-1.215733 2.716036,-2.716036 0,-1.500304 -1.215735,-2.718931 -2.716036,-2.718931 -0.349374,0.0011 -1.03313,0.07039 -1.356573,0.202474 v -5.559343 c 0.360075,-0.05008 0.993046,-0.07372 1.356573,-0.0752 4.50091,0 8.151003,3.650092 8.151003,8.151003 0,4.500912 -3.650093,8.148111 -8.151003,8.148111 -4.500912,0 -8.148113,-3.647199 -8.148113,-8.148111 v -11.81288 c 0.999843,-0.955968 2.87555,-2.016322 5.432075,-2.302415 z"
     sodipodi:nodetypes="ssssssssscsssccccssscc" />
  <rect
     style="fill:none;stroke:#000000;stroke-width:0.1999999;stroke-dasharray:none;stroke-opacity:1;filter:url(#filter22)"
     width="40.354263"
     height="33.016956"
     x="11.823143"
     y="10.904038"
     rx="2.7514896"
     ry="2.7496552"
     id="rect3-5-6" />
  <path
     style="fill:url(#radialGradient13);stroke-width:0.917163"
     d="M 6.3203854,25.68512 54.011305,58.70191 H 9.9889178 C 8.1546522,58.701896 6.3203854,57.794865 6.3203854,55.073732 Z"
     id="path4-3" />
  <path
     style="fill:none;stroke:#000000;stroke-width:0.1999999;stroke-dasharray:none;stroke-opacity:1;filter:url(#filter23)"
     d="M 6.3203856,25.579059 54.011305,58.595849 H 9.9889176 c -1.8342653,-1.4e-5 -3.668532,-0.907045 -3.668532,-3.628178 z"
     id="path4-3-0" />
  <path
     style="fill:url(#radialGradient11);stroke-width:0.917163"
     d="m 54.011305,58.70191 c 3.668531,0 3.668531,-3.628178 3.668531,-3.628178 V 25.68512 L 9.9889178,58.70191 Z"
     id="path5-5" />
  <path
     style="fill:none;stroke:#000000;stroke-width:0.1999999;stroke-dasharray:none;stroke-opacity:1;filter:url(#filter24)"
     d="m 54.011305,58.595849 c 3.668531,0 3.668531,-3.628178 3.668531,-3.628178 V 25.579059 L 9.9889176,58.595849 Z"
     id="path5-5-6" />
  <path
     style="fill:none;stroke:#000000;stroke-width:0.2;stroke-dasharray:none;stroke-opacity:1;filter:url(#filter1)"
     d="m 28.697192,13.731368 c -2.553541,0.285757 -4.428065,1.345154 -5.426741,2.300005 v 11.7968 c 0,4.495659 3.644452,8.140111 8.140111,8.140111 4.495659,0 8.140111,-3.644452 8.140111,-8.140111 0,-4.495658 -3.644452,-8.14011 -8.140111,-8.14011 -0.363102,0.0015 -0.997031,0.02416 -1.356685,0.07418 v 5.553929 c 0.323066,-0.131931 1.007719,-0.200302 1.356685,-0.201372 1.498552,0 2.713371,1.214818 2.713371,2.71337 0,1.498552 -1.214819,2.713371 -2.713371,2.713371 -1.498552,0 -2.71337,-1.214819 -2.71337,-2.713371 z"
     id="path6-2" />
</svg>
