<?xml version="1.0" encoding="UTF-8" standalone="no"?>
<svg
   width="64"
   height="64"
   version="1"
   id="svg5"
   sodipodi:docname="browser360-beta.svg"
   inkscape:version="1.4 (e7c3feb100, 2024-10-09)"
   xmlns:inkscape="http://www.inkscape.org/namespaces/inkscape"
   xmlns:sodipodi="http://sodipodi.sourceforge.net/DTD/sodipodi-0.dtd"
   xmlns:xlink="http://www.w3.org/1999/xlink"
   xmlns="http://www.w3.org/2000/svg"
   xmlns:svg="http://www.w3.org/2000/svg">
  <defs
     id="defs5">
    <inkscape:path-effect
       effect="fillet_chamfer"
       id="path-effect13"
       is_visible="true"
       lpeversion="1"
       nodesatellites_param=""
       radius="0"
       unit="px"
       method="auto"
       mode="F"
       chamfer_steps="1"
       flexible="false"
       use_knot_distance="true"
       apply_no_radius="true"
       apply_with_radius="true"
       only_selected="false"
       hide_knots="false" />
    <linearGradient
       id="linearGradient7"
       inkscape:collect="always">
      <stop
         style="stop-color:#32ffbf;stop-opacity:1;"
         offset="0"
         id="stop8" />
      <stop
         style="stop-color:#4affa1;stop-opacity:1;"
         offset="1"
         id="stop9" />
    </linearGradient>
    <linearGradient
       id="linearGradient6"
       inkscape:collect="always">
      <stop
         style="stop-color:#1aaba9;stop-opacity:1;"
         offset="0"
         id="stop6" />
      <stop
         style="stop-color:#1aab6c;stop-opacity:1;"
         offset="1"
         id="stop7" />
    </linearGradient>
    <radialGradient
       inkscape:collect="always"
       xlink:href="#linearGradient6"
       id="radialGradient7"
       cx="5.3927002"
       cy="56.66407"
       fx="5.3927002"
       fy="56.66407"
       r="22"
       gradientUnits="userSpaceOnUse"
       gradientTransform="matrix(3.3163918,-1.9147197,1.9147197,3.3163918,-120.98742,-120.93068)" />
    <radialGradient
       inkscape:collect="always"
       xlink:href="#linearGradient7"
       id="radialGradient9"
       cx="5.2252517"
       cy="60.803135"
       fx="5.2252517"
       fy="60.803135"
       r="24"
       gradientTransform="matrix(3.6632286,-2.114966,2.4674604,4.2737668,-163.94537,-183.3702)"
       gradientUnits="userSpaceOnUse" />
    <filter
       inkscape:collect="always"
       style="color-interpolation-filters:sRGB"
       id="filter13"
       x="-0.079647589"
       y="-0.068314033"
       width="1.1592952"
       height="1.1366281">
      <feGaussianBlur
         inkscape:collect="always"
         stdDeviation="1.5996348"
         id="feGaussianBlur13" />
    </filter>
  </defs>
  <sodipodi:namedview
     id="namedview5"
     pagecolor="#505050"
     bordercolor="#eeeeee"
     borderopacity="1"
     inkscape:showpageshadow="0"
     inkscape:pageopacity="0"
     inkscape:pagecheckerboard="0"
     inkscape:deskcolor="#505050"
     inkscape:zoom="18.921875"
     inkscape:cx="32"
     inkscape:cy="32"
     inkscape:current-layer="svg5" />
  <g
     id="g10"
     transform="translate(-2.0000004,-0.99999943)">
    <path
       style="fill:url(#radialGradient7)"
       d="m 32,10 c -12.150264,0 -22,9.849735 -22,22 0.0025,1.421924 0.141784,2.839528 0.417969,4.234376 C 13.852097,30.28372 19.427304,25.344348 24.0625,21.59375 l -0.742188,3.441406 C 21.000646,27.285284 18.72361,29.8693 16.578125,32.730468 14.69377,35.243346 13.583661,39.006798 12.183594,41.53125 15.825285,49.114054 23.510646,53.995214 32,54 41.849466,53.9918 50.453056,47.434966 53.128906,38 h -12.75 C 38.689124,41.906168 35.499998,43.99426 32,44 27.103036,43.9916 22.993318,40.257118 22.449218,34 H 34 41.5625 53.949218 C 53.980558,33.542312 53.99734,32.458754 54,32 53.992,23.41275 48.993298,15.648508 41.253906,12.0625 c -3.414894,1.817085 -6.467304,4.539926 -9.398438,7.566406 0.04834,-0.0014 0.09619,-0.0035 0.144532,-0.0039 4.074942,0.006 7.704188,3.435422 9.0625,8.375 h -18.125 c 0.49475,-1.784118 1.029464,-3.523652 2.085938,-4.84375 -0.017,-0.03106 -0.07812,-0.11718 -0.07812,-0.11718 0.239388,-0.321686 0.760938,-0.64039 1.007812,-0.960938 3.462398,-4.495576 7.310726,-8.392277 11.175776,-11.44532 C 35.44995,10.22075 33.728762,10.008992 32,10 Z M 12.183594,41.53125 c -0.19019,-0.396018 0.167668,0.410434 0,0 z"
       id="path4" />
    <path
       style="fill:url(#radialGradient9)"
       d="m 48.704974,5.0220977 a 15.354756,33.548602 38.231415 0 0 -27.069767,18.8901553 15.354756,33.548602 38.231415 0 0 -8.201206,35.594466 15.354756,33.548602 38.231415 0 0 6.645376,1.40069 14.380034,31.633126 37.097511 0 1 -3.481305,-1.34324 14.380034,31.633126 37.097511 0 1 7.605355,-33.90379 A 14.380034,31.633126 37.097511 0 1 54.7545,9.0983221 14.380034,31.633126 37.097511 0 1 57.913053,16.875978 15.354756,33.548602 38.231415 0 0 54.586227,6.5212731 15.354756,33.548602 38.231415 0 0 48.704974,5.0220977 Z"
       id="path5" />
  </g>
  <path
     id="path12"
     d="M 47.572266 3.9003906 C 47.2871 3.897394 46.995598 3.9045408 46.699219 3.921875 C 42.846952 4.1480787 38.310852 6.0663634 33.689453 9.234375 C 32.472377 9.0218602 31.237791 8.9068289 30 8.9003906 C 17.795692 8.9003906 7.9003906 18.795691 7.9003906 31 C 7.9029006 32.428337 8.0428643 33.852679 8.3203125 35.253906 L 8.3710938 35.515625 L 8.5039062 35.285156 C 11.336245 30.377281 15.632178 26.163777 19.65625 22.728516 C 19.623621 22.770345 19.589204 22.809633 19.556641 22.851562 C 13.867778 30.176967 10.101791 37.826857 8.6132812 44.287109 C 7.8690264 47.517236 7.6942668 50.4506 8.1367188 52.898438 C 8.5791706 55.346277 9.6429902 57.31164 11.375 58.585938 C 13.095814 59.835737 15.378629 60.314926 18.066406 60.007812 L 18.068359 60.007812 C 18.076859 60.006842 18.083307 60.0088 18.091797 60.007812 L 18.091797 59.808594 C 16.765616 59.641286 15.614762 59.196406 14.658203 58.484375 C 13.097382 57.305518 12.13276 55.48566 11.728516 53.189453 C 11.324271 50.893246 11.483847 48.122894 12.169922 45.064453 C 12.228388 44.803817 12.295235 44.538141 12.361328 44.273438 C 16.468747 49.735489 22.952585 53.095636 30 53.099609 C 39.893798 53.091409 48.536725 46.504741 51.224609 37.027344 L 51.261719 36.900391 L 38.3125 36.900391 L 38.287109 36.960938 C 36.610374 40.836941 33.460325 42.894716 30 42.900391 C 25.184926 42.892131 21.156267 39.244487 20.574219 33.099609 L 32 33.099609 L 39.5625 33.099609 L 52.042969 33.099609 L 52.048828 33.005859 C 52.080696 32.539867 52.096941 31.46028 52.099609 31 C 52.091573 22.373999 47.071322 14.574907 39.296875 10.972656 L 39.25 10.951172 L 39.207031 10.974609 C 35.777381 12.799546 32.717622 15.528723 29.783203 18.558594 L 29.613281 18.736328 L 29.857422 18.728516 C 29.906742 18.727116 29.954012 18.725009 30 18.724609 C 33.981073 18.730509 37.535601 22.068026 38.914062 26.900391 L 21.070312 26.900391 C 21.153815 26.603617 21.239885 26.308553 21.328125 26.015625 C 21.639871 25.583182 21.957741 25.151122 22.283203 24.720703 C 27.544103 17.76294 33.589816 12.433397 39.101562 9.4453125 C 41.857436 7.9512704 44.478923 7.0424584 46.798828 6.8046875 C 49.118733 6.5669166 51.133014 6.9986914 52.693359 8.1777344 C 54.677313 9.6911043 55.758869 12.33981 55.8125 15.878906 L 56.011719 15.886719 C 56.01209 15.882519 56.01135 15.87912 56.011719 15.875 C 56.439364 11.049547 55.27052 7.3880953 52.644531 5.4414062 C 51.283848 4.4394929 49.568422 3.9213673 47.572266 3.9003906 z M 47.570312 4.0996094 C 49.532676 4.1197987 51.20479 4.6277256 52.527344 5.6015625 C 54.883201 7.3479986 55.987744 10.580328 55.820312 14.822266 C 55.565131 11.82071 54.630229 9.4026614 52.814453 8.0175781 C 51.206683 6.8026993 49.135338 6.3659473 46.779297 6.6074219 C 44.423255 6.8488964 41.778575 7.7663583 39.005859 9.2695312 C 33.460428 12.275877 27.398764 17.62225 22.123047 24.599609 C 21.794131 25.034597 21.471214 25.471148 21.15625 25.908203 C 21.155417 25.909359 21.15513 25.910954 21.154297 25.912109 C 21.140194 25.931682 21.127356 25.951127 21.113281 25.970703 C 20.713717 26.526424 20.335697 27.082901 19.958984 27.640625 C 19.589345 28.187898 19.235977 28.735397 18.888672 29.283203 C 18.701414 29.578538 18.510783 29.872776 18.330078 30.167969 C 17.983929 30.733467 17.657763 31.297509 17.335938 31.861328 C 17.179764 32.134894 17.015627 32.408728 16.865234 32.681641 C 16.493593 33.356141 16.146455 34.026629 15.810547 34.695312 C 15.729285 34.857051 15.637745 35.020335 15.558594 35.181641 C 15.5406 35.218318 15.523744 35.254362 15.505859 35.291016 C 15.159596 36.000529 14.834205 36.705253 14.529297 37.404297 C 14.511455 37.445207 14.492308 37.486475 14.474609 37.527344 C 14.182331 38.202156 13.913137 38.869246 13.660156 39.53125 C 13.61661 39.645228 13.573621 39.759497 13.53125 39.873047 C 13.284843 40.533238 13.057848 41.186025 12.851562 41.830078 C 12.813831 41.947884 12.776612 42.06443 12.740234 42.181641 C 12.671556 42.402912 12.602892 42.62469 12.539062 42.84375 C 12.478901 43.050247 12.424975 43.25455 12.369141 43.458984 C 12.324431 43.622663 12.276295 43.78692 12.234375 43.949219 C 12.228047 43.973721 12.221108 43.998967 12.214844 44.023438 L 12.203125 44.070312 L 12.205078 44.072266 C 12.123953 44.391072 12.044849 44.708364 11.974609 45.021484 C 11.284339 48.09863 11.120702 50.892598 11.53125 53.224609 C 11.941798 55.556621 12.92885 57.429845 14.537109 58.644531 C 15.36584 59.26141 16.410597 59.5706 17.503906 59.791016 C 15.10756 59.96515 13.041048 59.550693 11.492188 58.425781 C 9.8076887 57.186438 8.7678537 55.274443 8.3320312 52.863281 C 7.8962087 50.45212 8.0687476 47.543023 8.8085938 44.332031 C 10.288286 37.910047 14.039201 30.278523 19.712891 22.972656 C 19.95978 22.65475 20.214228 22.349102 20.464844 22.037109 L 20.46875 22.035156 C 20.469897 22.033729 20.471509 22.032677 20.472656 22.03125 L 20.478516 22.023438 C 20.995997 21.379487 21.521315 20.748534 22.052734 20.130859 C 22.57143 19.527974 23.095111 18.937683 23.625 18.361328 C 23.658144 18.325278 23.691426 18.28985 23.724609 18.253906 C 24.244196 17.691104 24.768631 17.141331 25.296875 16.605469 C 25.308554 16.593621 25.320348 16.582147 25.332031 16.570312 C 25.867814 16.027597 26.408536 15.499878 26.951172 14.986328 C 26.982463 14.956714 27.013611 14.927952 27.044922 14.898438 C 27.566791 14.406504 28.090921 13.928445 28.617188 13.464844 C 28.682425 13.40746 28.747212 13.35186 28.8125 13.294922 C 29.307556 12.862547 29.805525 12.441257 30.302734 12.035156 C 30.400874 11.955102 30.499472 11.87979 30.597656 11.800781 C 31.065693 11.423699 31.533548 11.053892 32.001953 10.701172 C 32.125829 10.607968 32.24921 10.521154 32.373047 10.429688 C 32.820874 10.098688 33.268087 9.7725541 33.714844 9.4648438 C 38.349563 6.2732605 42.890048 4.345455 46.710938 4.1210938 C 47.002911 4.1040172 47.289975 4.0967252 47.570312 4.0996094 z M 30 9.0996094 C 31.149414 9.1055874 32.293046 9.2237553 33.425781 9.4101562 C 29.527495 12.121033 25.582496 15.729623 21.933594 19.964844 C 21.901913 20.001575 21.869526 20.037389 21.837891 20.074219 C 21.342653 20.651363 20.854125 21.239944 20.371094 21.839844 C 20.355043 21.859774 20.338302 21.878482 20.322266 21.898438 C 16.137956 25.400011 11.532457 29.788771 8.4902344 34.949219 C 8.2487214 33.645617 8.1019413 32.32633 8.0996094 31 C 8.0996094 18.903779 17.90378 9.0996094 30 9.0996094 z M 39.255859 11.181641 C 46.931906 14.761548 51.892444 22.469859 51.900391 31 C 51.897891 31.435735 51.879662 32.417661 51.851562 32.900391 L 39.5625 32.900391 L 32 32.900391 L 20.339844 32.900391 L 20.349609 33.007812 C 20.897177 39.304806 25.052291 43.091122 30 43.099609 C 33.51923 43.093809 36.725077 40.992318 38.435547 37.099609 L 50.986328 37.099609 C 48.280069 46.421331 39.759197 52.892266 30 52.900391 C 22.962037 52.896391 16.492634 49.514288 12.427734 44.027344 C 13.794456 38.7171 16.736371 32.634774 20.927734 26.675781 C 20.899294 26.775111 20.869547 26.872612 20.841797 26.972656 L 20.806641 27.099609 L 39.193359 27.099609 L 39.158203 26.972656 C 37.801483 22.038868 34.183649 18.603786 30.091797 18.544922 C 32.956987 15.602083 35.936659 12.957734 39.255859 11.181641 z "
     style="filter:url(#filter13)" />
</svg>
