<?xml version="1.0" encoding="UTF-8" standalone="no"?>
<svg
   width="64"
   height="64"
   version="1"
   id="svg11"
   sodipodi:docname="chirp.svg"
   inkscape:version="1.4 (e7c3feb100, 2024-10-09)"
   xmlns:inkscape="http://www.inkscape.org/namespaces/inkscape"
   xmlns:sodipodi="http://sodipodi.sourceforge.net/DTD/sodipodi-0.dtd"
   xmlns:xlink="http://www.w3.org/1999/xlink"
   xmlns="http://www.w3.org/2000/svg"
   xmlns:svg="http://www.w3.org/2000/svg">
  <defs
     id="defs11">
    <linearGradient
       id="linearGradient6"
       inkscape:collect="always">
      <stop
         style="stop-color:#4c4c4c;stop-opacity:1;"
         offset="0"
         id="stop6" />
      <stop
         style="stop-color:#727272;stop-opacity:1;"
         offset="1"
         id="stop7" />
    </linearGradient>
    <radialGradient
       inkscape:collect="always"
       xlink:href="#linearGradient6"
       id="radialGradient12"
       cx="4.6477795"
       cy="57.661694"
       fx="4.6477795"
       fy="57.661694"
       r="26"
       gradientTransform="matrix(2.8507795,-0.76386406,0.47007019,1.7543258,-35.707059,-49.815316)"
       gradientUnits="userSpaceOnUse" />
  </defs>
  <sodipodi:namedview
     id="namedview11"
     pagecolor="#505050"
     bordercolor="#eeeeee"
     borderopacity="1"
     inkscape:showpageshadow="0"
     inkscape:pageopacity="0"
     inkscape:pagecheckerboard="0"
     inkscape:deskcolor="#505050"
     inkscape:zoom="18.453125"
     inkscape:cx="32"
     inkscape:cy="32"
     inkscape:current-layer="svg11" />
  <rect
     style="fill:url(#radialGradient12)"
     width="52"
     height="32"
     x="6"
     y="16"
     rx="9.4683466"
     ry="9.4683466"
     id="rect2" />
  <path
     id="path3"
     style="fill:#000000;fill-opacity:1;opacity:0.45"
     d="M 15.666016 23 C 14.203993 23 12.786988 24.077153 13.027344 25.375 L 15.666016 39.625 C 15.906371 40.922845 16.842665 42 18.304688 42 L 44.695312 42 C 46.157336 42 47.09363 40.922845 47.333984 39.625 L 49.972656 25.375 C 50.213012 24.077153 48.796007 23 47.333984 23 L 15.666016 23 z M 20.5 27 A 2.5 2.5 0 0 1 23 29.5 A 2.5 2.5 0 0 1 20.5 32 A 2.5 2.5 0 0 1 18 29.5 A 2.5 2.5 0 0 1 20.5 27 z M 27.5 27 A 2.5 2.5 0 0 1 30 29.5 A 2.5 2.5 0 0 1 27.5 32 A 2.5 2.5 0 0 1 25 29.5 A 2.5 2.5 0 0 1 27.5 27 z M 34.5 27 A 2.5 2.5 0 0 1 37 29.5 A 2.5 2.5 0 0 1 34.5 32 A 2.5 2.5 0 0 1 32 29.5 A 2.5 2.5 0 0 1 34.5 27 z M 41.5 27 A 2.5 2.5 0 0 1 44 29.5 A 2.5 2.5 0 0 1 41.5 32 A 2.5 2.5 0 0 1 39 29.5 A 2.5 2.5 0 0 1 41.5 27 z M 24.5 33 A 2.5 2.5 0 0 1 27 35.5 A 2.5 2.5 0 0 1 24.5 38 A 2.5 2.5 0 0 1 22 35.5 A 2.5 2.5 0 0 1 24.5 33 z M 31.5 33 A 2.5 2.5 0 0 1 34 35.5 A 2.5 2.5 0 0 1 31.5 38 A 2.5 2.5 0 0 1 29 35.5 A 2.5 2.5 0 0 1 31.5 33 z M 38.5 33 A 2.5 2.5 0 0 1 41 35.5 A 2.5 2.5 0 0 1 38.5 38 A 2.5 2.5 0 0 1 36 35.5 A 2.5 2.5 0 0 1 38.5 33 z " />
  <rect
     style="fill:#b3b3b3"
     width="10"
     height="10"
     x="2"
     y="27"
     rx="5"
     ry="5"
     id="rect4" />
  <circle
     style="opacity:0.5"
     cx="7"
     cy="32"
     r="3"
     id="circle4" />
  <rect
     style="fill:#b3b3b3"
     width="10"
     height="10"
     x="51"
     y="27"
     rx="5"
     ry="5"
     id="rect6" />
  <circle
     style="opacity:0.5"
     cx="56"
     cy="32"
     r="3"
     id="circle6" />
</svg>
