<?xml version="1.0" encoding="UTF-8" standalone="no"?>
<svg
   width="64"
   height="64"
   version="1"
   id="svg10"
   sodipodi:docname="com.visualstudio.code.oss.svg"
   inkscape:version="1.3.2 (091e20ef0f, 2023-11-25, custom)"
   xmlns:inkscape="http://www.inkscape.org/namespaces/inkscape"
   xmlns:sodipodi="http://sodipodi.sourceforge.net/DTD/sodipodi-0.dtd"
   xmlns:xlink="http://www.w3.org/1999/xlink"
   xmlns="http://www.w3.org/2000/svg"
   xmlns:svg="http://www.w3.org/2000/svg">
  <defs
     id="defs10">
    <inkscape:path-effect
       effect="fillet_chamfer"
       id="path-effect1"
       is_visible="true"
       lpeversion="1"
       nodesatellites_param="F,0,1,1,0,10.138379,0,1 @ F,0,0,1,0,0,0,1 @ F,0,0,1,0,0,0,1 @ F,0,1,1,0,10.138379,0,1"
       radius="0"
       unit="px"
       method="auto"
       mode="F"
       chamfer_steps="1"
       flexible="false"
       use_knot_distance="true"
       apply_no_radius="true"
       apply_with_radius="true"
       only_selected="false"
       hide_knots="false" />
    <linearGradient
       id="linearGradient11"
       inkscape:collect="always">
      <stop
         style="stop-color:#00e0ff;stop-opacity:1;"
         offset="0"
         id="stop11" />
      <stop
         style="stop-color:#1e4fc4;stop-opacity:1;"
         offset="1"
         id="stop12" />
    </linearGradient>
    <radialGradient
       inkscape:collect="always"
       xlink:href="#linearGradient11"
       id="radialGradient12"
       cx="8.2252693"
       cy="54.929855"
       fx="8.2252693"
       fy="54.929855"
       r="28"
       gradientTransform="matrix(3.887248,0,-5.7938357e-8,3.5642785,-23.748391,-144.13114)"
       gradientUnits="userSpaceOnUse" />
    <inkscape:path-effect
       effect="fillet_chamfer"
       id="path-effect1-7"
       is_visible="true"
       lpeversion="1"
       nodesatellites_param="F,0,1,1,0,10.138379,0,1 @ F,0,0,1,0,0,0,1 @ F,0,0,1,0,0,0,1 @ F,0,1,1,0,10.138379,0,1"
       radius="0"
       unit="px"
       method="auto"
       mode="F"
       chamfer_steps="1"
       flexible="false"
       use_knot_distance="true"
       apply_no_radius="true"
       apply_with_radius="true"
       only_selected="false"
       hide_knots="false" />
    <filter
       inkscape:collect="always"
       style="color-interpolation-filters:sRGB"
       id="filter1"
       x="-0.066435893"
       y="-0.066721105"
       width="1.1328718"
       height="1.1334422">
      <feGaussianBlur
         inkscape:collect="always"
         stdDeviation="1.5556855"
         id="feGaussianBlur1" />
    </filter>
  </defs>
  <sodipodi:namedview
     id="namedview10"
     pagecolor="#ffffff"
     bordercolor="#000000"
     borderopacity="0.25"
     inkscape:showpageshadow="2"
     inkscape:pageopacity="0.0"
     inkscape:pagecheckerboard="0"
     inkscape:deskcolor="#d1d1d1"
     inkscape:zoom="11.313709"
     inkscape:cx="31.422056"
     inkscape:cy="30.582367"
     inkscape:window-width="1920"
     inkscape:window-height="1020"
     inkscape:window-x="0"
     inkscape:window-y="0"
     inkscape:window-maximized="1"
     inkscape:current-layer="svg10" />
  <rect
     style="fill:url(#radialGradient12)"
     width="56"
     height="48"
     x="4"
     y="8"
     rx="10.370856"
     ry="10.370856"
     id="rect2" />
  <path
     style="opacity:0.36619233;fill:#001eff;fill-opacity:1;stroke:none;stroke-width:0.494006;stroke-linecap:round;stroke-linejoin:round;stroke-dasharray:none;paint-order:stroke markers fill"
     d="m 14.15338,8.2900705 7.679559,0.00406 V 55.786852 l -7.679558,1.28e-4 A 10.138211,10.138211 44.999524 0 1 4.0150025,45.648769 l 0,-27.225685 A 10.133015,10.133015 135.01516 0 1 14.15338,8.2900705 Z"
     id="path1"
     sodipodi:nodetypes="ccccc"
     inkscape:path-effect="#path-effect1"
     inkscape:original-d="m 4.0150025,8.2847048 17.8179365,0.00943 V 55.786852 l -17.8179365,2.96e-4 z"
     transform="matrix(1.0137226,0,0,1.01055,-0.04653818,-0.35870629)" />
  <path
     style="color:#000000;fill:#ffffff;stroke-linecap:round;-inkscape-stroke:none"
     d="m 19.369141,3.9628906 a 3,3 0 0 0 -3,3 V 56.722656 a 3,3 0 0 0 3,3 3,3 0 0 0 3,-3 V 6.9628906 a 3,3 0 0 0 -3,-3 z"
     id="path5" />
  <path
     style="color:#000000;fill:#ffffff;stroke-linecap:round;-inkscape-stroke:none"
     d="m 30.785156,10.875 a 3,3 0 0 0 -3,3 3,3 0 0 0 3,3 h 10.957031 a 3,3 0 0 0 3,-3 3,3 0 0 0 -3,-3 z"
     id="path6" />
  <path
     style="color:#000000;fill:#ffffff;stroke-linecap:round;-inkscape-stroke:none"
     d="m 34.785156,22.875 a 3,3 0 0 0 -3,3 3,3 0 0 0 3,3 h 13.957031 a 3,3 0 0 0 3,-3 3,3 0 0 0 -3,-3 z"
     id="path7" />
  <path
     style="color:#000000;fill:#ffffff;stroke-linecap:round;-inkscape-stroke:none"
     d="m 34.785156,34.875 a 3,3 0 0 0 -3,3 3,3 0 0 0 3,3 h 13.957031 a 3,3 0 0 0 3,-3 3,3 0 0 0 -3,-3 z"
     id="path9" />
  <path
     style="color:#000000;fill:#ffffff;stroke-linecap:round;-inkscape-stroke:none;fill-opacity:1"
     d="m 30.785156,46.875 a 3,3 0 0 0 -3,3 3,3 0 0 0 3,3 h 10.957031 a 3,3 0 0 0 3,-3 3,3 0 0 0 -3,-3 z"
     id="path10" />
  <path
     id="path12"
     style="color:#000000;fill:#000000;fill-opacity:1;stroke:#000000;stroke-opacity:1;stroke-width:0;stroke-dasharray:none;filter:url(#filter1)"
     d="M 19.339844 3.8691406 C 17.628949 3.8691406 16.240234 5.2578567 16.240234 6.96875 L 16.240234 7.90625 L 14.341797 7.90625 C 8.5426921 7.90625 3.8710937 12.577849 3.8710938 18.376953 L 3.8710938 45.634766 C 3.8710938 51.43387 8.5426921 56.105469 14.341797 56.105469 L 16.240234 56.105469 L 16.240234 56.728516 C 16.240234 58.439408 17.628949 59.828125 19.339844 59.828125 C 21.050736 59.828125 22.439453 58.439408 22.439453 56.728516 L 22.439453 56.105469 L 49.599609 56.105469 C 55.398715 56.105469 60.070313 51.43387 60.070312 45.634766 L 60.070312 18.376953 C 60.070312 12.577849 55.398715 7.90625 49.599609 7.90625 L 22.439453 7.90625 L 22.439453 6.96875 C 22.439453 5.2578567 21.050736 3.8691406 19.339844 3.8691406 z M 19.339844 4.0683594 C 20.942648 4.0683594 22.240234 5.3659447 22.240234 6.96875 L 22.240234 7.90625 L 22.240234 8.0058594 L 22.240234 56.728516 C 22.240234 58.33132 20.942648 59.628906 19.339844 59.628906 C 17.737037 59.628906 16.439453 58.33132 16.439453 56.728516 L 16.439453 8.0527344 L 16.439453 7.90625 L 16.439453 6.96875 C 16.439453 5.3659447 17.737037 4.0683594 19.339844 4.0683594 z M 16.240234 8.0566406 L 16.240234 55.90625 L 14.341797 55.90625 C 8.6500384 55.90625 4.0703125 51.326524 4.0703125 45.634766 L 4.0703125 18.376953 C 4.0703125 12.685195 8.6500384 8.1054687 14.341797 8.1054688 L 16.240234 8.0566406 z M 22.439453 8.1054688 L 49.599609 8.1054688 C 55.291368 8.1054688 59.871094 12.685195 59.871094 18.376953 L 59.871094 45.634766 C 59.871094 51.326524 55.291368 55.90625 49.599609 55.90625 L 22.439453 55.90625 L 22.439453 8.1054688 z M 30.755859 10.78125 C 29.044967 10.78125 27.65625 12.169967 27.65625 13.880859 C 27.65625 15.591754 29.044967 16.980469 30.755859 16.980469 L 41.712891 16.980469 C 43.423783 16.980469 44.8125 15.591754 44.8125 13.880859 C 44.8125 12.169967 43.423783 10.78125 41.712891 10.78125 L 30.755859 10.78125 z M 30.755859 10.980469 L 41.712891 10.980469 C 43.315692 10.980469 44.613281 12.278058 44.613281 13.880859 C 44.613281 15.483662 43.315692 16.78125 41.712891 16.78125 L 30.755859 16.78125 C 29.153058 16.78125 27.855469 15.483662 27.855469 13.880859 C 27.855469 12.278058 29.153058 10.980469 30.755859 10.980469 z M 34.755859 22.78125 C 33.044967 22.78125 31.65625 24.169967 31.65625 25.880859 C 31.65625 27.591754 33.044967 28.980469 34.755859 28.980469 L 48.712891 28.980469 C 50.423783 28.980469 51.8125 27.591754 51.8125 25.880859 C 51.8125 24.169967 50.423783 22.78125 48.712891 22.78125 L 34.755859 22.78125 z M 34.755859 22.980469 L 48.712891 22.980469 C 50.31569 22.980469 51.613281 24.27806 51.613281 25.880859 C 51.613281 27.48366 50.31569 28.78125 48.712891 28.78125 L 34.755859 28.78125 C 33.15306 28.78125 31.855469 27.48366 31.855469 25.880859 C 31.855469 24.27806 33.15306 22.980469 34.755859 22.980469 z M 34.755859 34.78125 C 33.044967 34.78125 31.65625 36.169967 31.65625 37.880859 C 31.65625 39.591754 33.044967 40.980469 34.755859 40.980469 L 48.712891 40.980469 C 50.423783 40.980469 51.8125 39.591754 51.8125 37.880859 C 51.8125 36.169967 50.423783 34.78125 48.712891 34.78125 L 34.755859 34.78125 z M 34.755859 34.980469 L 48.712891 34.980469 C 50.315688 34.980469 51.613281 36.278062 51.613281 37.880859 C 51.613281 39.483658 50.315688 40.78125 48.712891 40.78125 L 34.755859 40.78125 C 33.153062 40.78125 31.855469 39.483658 31.855469 37.880859 C 31.855469 36.278062 33.153062 34.980469 34.755859 34.980469 z M 30.755859 46.78125 C 30.541998 46.78125 30.33257 46.802436 30.130859 46.84375 C 29.929149 46.885064 29.734221 46.946928 29.548828 47.025391 C 29.363435 47.103853 29.188347 47.199103 29.023438 47.310547 C 28.858528 47.421991 28.704713 47.549193 28.564453 47.689453 C 28.424193 47.829713 28.296991 47.983528 28.185547 48.148438 C 28.074103 48.313347 27.978853 48.488435 27.900391 48.673828 C 27.821928 48.859221 27.760064 49.054149 27.71875 49.255859 C 27.677436 49.45757 27.65625 49.666998 27.65625 49.880859 C 27.65625 50.094721 27.677436 50.304149 27.71875 50.505859 C 27.760064 50.70757 27.821928 50.902497 27.900391 51.087891 C 27.978853 51.273284 28.074103 51.448372 28.185547 51.613281 C 28.296991 51.778191 28.424193 51.932006 28.564453 52.072266 C 28.704713 52.212526 28.858528 52.339728 29.023438 52.451172 C 29.188347 52.562616 29.363435 52.657866 29.548828 52.736328 C 29.734221 52.81479 29.929149 52.876655 30.130859 52.917969 C 30.33257 52.959283 30.541998 52.980469 30.755859 52.980469 L 41.712891 52.980469 C 41.926752 52.980469 42.13618 52.959283 42.337891 52.917969 C 42.539601 52.876655 42.734529 52.81479 42.919922 52.736328 C 43.105315 52.657866 43.280403 52.562616 43.445312 52.451172 C 43.610222 52.339728 43.764037 52.212526 43.904297 52.072266 C 44.044557 51.932006 44.171759 51.778191 44.283203 51.613281 C 44.394647 51.448372 44.489897 51.273284 44.568359 51.087891 C 44.646822 50.902497 44.708686 50.70757 44.75 50.505859 C 44.791314 50.304149 44.8125 50.094721 44.8125 49.880859 C 44.8125 49.666998 44.791314 49.45757 44.75 49.255859 C 44.708686 49.054149 44.646822 48.859221 44.568359 48.673828 C 44.489897 48.488435 44.394647 48.313347 44.283203 48.148438 C 44.171759 47.983528 44.044557 47.829713 43.904297 47.689453 C 43.764037 47.549193 43.610222 47.421991 43.445312 47.310547 C 43.280403 47.199103 43.105315 47.103853 42.919922 47.025391 C 42.734529 46.946928 42.539601 46.885064 42.337891 46.84375 C 42.13618 46.802436 41.926752 46.78125 41.712891 46.78125 L 30.755859 46.78125 z M 30.755859 46.980469 L 41.712891 46.980469 C 41.91324 46.980469 42.108001 47.000451 42.296875 47.039062 C 42.485749 47.077674 42.668276 47.135638 42.841797 47.208984 C 43.015318 47.282331 43.179692 47.370405 43.333984 47.474609 C 43.488277 47.578814 43.632485 47.698891 43.763672 47.830078 C 43.894859 47.961265 44.014936 48.105473 44.119141 48.259766 C 44.223345 48.414058 44.311419 48.578432 44.384766 48.751953 C 44.458112 48.925474 44.516076 49.108001 44.554688 49.296875 C 44.593299 49.485749 44.613281 49.68051 44.613281 49.880859 C 44.613281 50.081209 44.593299 50.27597 44.554688 50.464844 C 44.516076 50.653718 44.458112 50.836244 44.384766 51.009766 C 44.311419 51.183287 44.223345 51.347661 44.119141 51.501953 C 44.014936 51.656245 43.894859 51.800454 43.763672 51.931641 C 43.632485 52.062827 43.488277 52.182905 43.333984 52.287109 C 43.179692 52.391314 43.015318 52.479388 42.841797 52.552734 C 42.668276 52.626081 42.485749 52.684045 42.296875 52.722656 C 42.108001 52.761268 41.91324 52.78125 41.712891 52.78125 L 30.755859 52.78125 C 30.55551 52.78125 30.360749 52.761268 30.171875 52.722656 C 29.983001 52.684045 29.800474 52.626081 29.626953 52.552734 C 29.453432 52.479388 29.289058 52.391314 29.134766 52.287109 C 28.980473 52.182905 28.836265 52.062827 28.705078 51.931641 C 28.573891 51.800454 28.453814 51.656245 28.349609 51.501953 C 28.245405 51.347661 28.157331 51.183287 28.083984 51.009766 C 28.010638 50.836244 27.952674 50.653718 27.914062 50.464844 C 27.875451 50.27597 27.855469 50.081209 27.855469 49.880859 C 27.855469 49.68051 27.875451 49.485749 27.914062 49.296875 C 27.952674 49.108001 28.010638 48.925474 28.083984 48.751953 C 28.157331 48.578432 28.245405 48.414058 28.349609 48.259766 C 28.453814 48.105473 28.573891 47.961265 28.705078 47.830078 C 28.836265 47.698891 28.980473 47.578814 29.134766 47.474609 C 29.289058 47.370405 29.453432 47.282331 29.626953 47.208984 C 29.800474 47.135638 29.983001 47.077674 30.171875 47.039062 C 30.360749 47.000451 30.55551 46.980469 30.755859 46.980469 z " />
</svg>
