<?xml version="1.0" encoding="UTF-8" standalone="no"?>
<svg
   width="64"
   height="64"
   version="1"
   id="svg4"
   sodipodi:docname="preferences-system-privacy-housekeeping.svg"
   inkscape:version="1.3.2 (091e20ef0f, 2023-11-25, custom)"
   xmlns:inkscape="http://www.inkscape.org/namespaces/inkscape"
   xmlns:sodipodi="http://sodipodi.sourceforge.net/DTD/sodipodi-0.dtd"
   xmlns:xlink="http://www.w3.org/1999/xlink"
   xmlns="http://www.w3.org/2000/svg"
   xmlns:svg="http://www.w3.org/2000/svg">
  <defs
     id="defs4">
    <linearGradient
       id="linearGradient5"
       inkscape:collect="always">
      <stop
         style="stop-color:#ff2e38;stop-opacity:1;"
         offset="0"
         id="stop6" />
      <stop
         style="stop-color:#935e42;stop-opacity:1;"
         offset="1"
         id="stop7" />
    </linearGradient>
    <linearGradient
       id="linearGradient4"
       inkscape:collect="always">
      <stop
         style="stop-color:#fed24c;stop-opacity:1;"
         offset="0"
         id="stop4" />
      <stop
         style="stop-color:#feab4c;stop-opacity:1;"
         offset="1"
         id="stop5" />
    </linearGradient>
    <inkscape:path-effect
       effect="fillet_chamfer"
       id="path-effect4"
       is_visible="true"
       lpeversion="1"
       nodesatellites_param="F,0,0,1,0,2.2395922,0,1 @ F,0,1,1,0,2.1068103,0,1 @ F,0,0,1,0,0,0,1 @ F,0,0,1,0,0,0,1 @ F,0,0,1,0,0,0,1 @ F,0,0,1,0,0,0,1 @ F,0,0,1,0,0,0,1 @ F,0,0,1,0,2.1068103,0,1 @ F,0,0,1,0,2.2395922,0,1 @ F,0,0,1,0,1.6450289,0,1 @ F,0,0,1,0,1.6450289,0,1"
       radius="0"
       unit="px"
       method="auto"
       mode="F"
       chamfer_steps="1"
       flexible="false"
       use_knot_distance="true"
       apply_no_radius="true"
       apply_with_radius="true"
       only_selected="false"
       hide_knots="false" />
    <radialGradient
       inkscape:collect="always"
       xlink:href="#linearGradient4"
       id="radialGradient5"
       cx="32.435841"
       cy="42.277081"
       fx="32.435841"
       fy="42.277081"
       r="19.746157"
       gradientTransform="matrix(1.9058407,0,0,1.4612165,-26.727047,-21.453309)"
       gradientUnits="userSpaceOnUse" />
    <radialGradient
       inkscape:collect="always"
       xlink:href="#linearGradient5"
       id="radialGradient7"
       cx="41.361336"
       cy="23.003216"
       fx="41.361336"
       fy="23.003216"
       r="12.067497"
       gradientTransform="matrix(2.7137484,1.5667833,-2.2963101,3.9773258,-18.060405,-133.29232)"
       gradientUnits="userSpaceOnUse" />
    <inkscape:path-effect
       effect="fillet_chamfer"
       id="path-effect4-5"
       is_visible="true"
       lpeversion="1"
       nodesatellites_param="F,0,0,1,0,2.2395922,0,1 @ F,0,1,1,0,2.1068103,0,1 @ F,0,0,1,0,0,0,1 @ F,0,0,1,0,0,0,1 @ F,0,0,1,0,0,0,1 @ F,0,0,1,0,0,0,1 @ F,0,0,1,0,0,0,1 @ F,0,0,1,0,2.1068103,0,1 @ F,0,0,1,0,2.2395922,0,1 @ F,0,0,1,0,1.6450289,0,1 @ F,0,0,1,0,1.6450289,0,1"
       radius="0"
       unit="px"
       method="auto"
       mode="F"
       chamfer_steps="1"
       flexible="false"
       use_knot_distance="true"
       apply_no_radius="true"
       apply_with_radius="true"
       only_selected="false"
       hide_knots="false" />
    <filter
       inkscape:collect="always"
       style="color-interpolation-filters:sRGB"
       id="filter9"
       x="-0.098658382"
       y="-0.078276434"
       width="1.1973168"
       height="1.1565529">
      <feGaussianBlur
         inkscape:collect="always"
         stdDeviation="1.7910336"
         id="feGaussianBlur9" />
    </filter>
  </defs>
  <sodipodi:namedview
     id="namedview4"
     pagecolor="#ffffff"
     bordercolor="#000000"
     borderopacity="0.25"
     inkscape:showpageshadow="2"
     inkscape:pageopacity="0.0"
     inkscape:pagecheckerboard="0"
     inkscape:deskcolor="#d1d1d1"
     inkscape:zoom="9.1260969"
     inkscape:cx="30.955183"
     inkscape:cy="36.160037"
     inkscape:window-width="1920"
     inkscape:window-height="1020"
     inkscape:window-x="0"
     inkscape:window-y="0"
     inkscape:window-maximized="1"
     inkscape:current-layer="svg4" />
  <path
     style="fill:url(#radialGradient5)"
     d="m 10.384773,41.931686 c -0.5873021,1.790686 4.159097,9.814102 7.52742,11.00824 l 4.3748,-0.04102 -2.5942,1.802 c -0.05911,0.713758 0.561563,1.130891 3.63361,2.9313 2.7324,1.543 5.1938,-1.5066 5.1938,-1.5066 0,0 -1.3248,2.3116 -1.2434,3.1254 1.346815,0.0891 2.647613,-0.0083 3.9693,-0.22422 l 1.5576,-0.79024 -0.521,0.82578 2.8226,0.03554 c 8.641866,-1.145741 12.168066,-12.155023 14.7221,-19.1599 -5.517085,0 -14.842596,-11.853358 -19.705204,-10.875658 C 25.591367,29.9733 18.286562,40.064732 10.384773,41.931686 Z"
     id="path1"
     sodipodi:nodetypes="cccccccccccccc" />
  <path
     style="fill:url(#radialGradient7)"
     d="m 38.336844,25.53417 -1.797153,-0.907523 c -1.038643,-0.524491 -2.506144,-0.243647 -3.271245,0.632984 -1.30969,1.500607 -3.18495,3.677742 -3.974606,4.732769 0.214753,1.067615 1.364676,1.351604 2.145271,1.909951 2.60226,1.594966 5.243164,3.154018 7.535236,5.190876 1.919545,1.560692 4.120282,3.121356 6.679992,3.208403 1.357538,0.120969 2.705217,0.409912 4.071221,0.38663 0.273719,-1.612319 1.273448,-3.931045 2.040399,-5.548624 0.498357,-1.051085 0.113779,-2.339359 -0.905709,-2.900175 L 45.990726,29.560762 A 2.4391379,2.4391379 71.3728 0 1 44.936885,26.434248 L 53.292831,7.6051753 A 1.5821031,1.5821031 67.813574 0 0 52.431618,5.4934069 L 52.30185,5.4417751 a 1.7634584,1.7634584 158.68648 0 0 -2.241259,0.87444 L 41.30639,24.525256 a 2.1963765,2.1963765 161.23461 0 1 -2.969546,1.008914 z"
     id="path2"
     sodipodi:nodetypes="cccccccccccc"
     inkscape:path-effect="#path-effect4"
     inkscape:original-d="m 40.336,26.5437 -5.676938,-2.866729 c 0,0 -4.092548,4.615062 -5.365222,6.315429 0.214753,1.067615 1.364676,1.351604 2.145271,1.909951 2.60226,1.594966 5.243164,3.154018 7.535236,5.190876 1.919545,1.560692 4.120282,3.121356 6.679992,3.208403 1.357538,0.120969 2.705217,0.409912 4.071221,0.38663 0.460933,-2.715086 2.980637,-7.433353 2.980637,-7.433353 L 44.028438,28.481318 53.960105,6.1015578 50.773363,4.8336242 Z"
     transform="translate(0.27377281,-0.7481135)" />
  <path
     id="path8"
     style="color:#000000;fill:#000000;-inkscape-stroke:none;filter:url(#filter9)"
     d="M 51.912109 4.5429688 C 51.193979 4.5401188 50.538257 4.9506889 50.226562 5.5976562 L 41.472656 23.806641 C 40.963832 24.865509 39.687591 25.298562 38.638672 24.769531 L 36.841797 23.861328 C 35.756506 23.31328 34.250979 23.601183 33.451172 24.517578 C 32.161157 25.995643 30.333191 28.117396 29.517578 29.197266 C 27.199832 29.984816 24.318133 32.709038 21.052734 35.460938 C 17.772055 38.225717 14.115016 41.015214 10.34375 41.90625 L 10.289062 41.919922 L 10.273438 41.972656 C 10.107289 42.479242 10.312238 43.318854 10.730469 44.349609 C 11.1487 45.380365 11.794441 46.592931 12.564453 47.787109 C 14.104478 50.175468 16.124622 52.491724 17.861328 53.107422 L 17.878906 53.113281 L 21.947266 53.076172 L 19.580078 54.71875 L 19.576172 54.765625 C 19.560142 54.95919 19.593552 55.145615 19.701172 55.330078 C 19.808787 55.514541 19.984825 55.696708 20.255859 55.910156 C 20.79793 56.337052 21.721418 56.890593 23.257812 57.791016 L 23.259766 57.791016 L 23.259766 57.792969 C 24.661718 58.584658 26.007635 58.19694 26.982422 57.617188 C 27.715605 57.181129 27.965266 56.841754 28.185547 56.597656 C 28.06098 56.824548 27.970514 56.972355 27.761719 57.414062 C 27.600116 57.755937 27.440951 58.124081 27.326172 58.460938 C 27.211393 58.797795 27.136665 59.099127 27.160156 59.333984 L 27.169922 59.417969 L 27.253906 59.423828 C 28.609756 59.513528 29.916902 59.416028 31.244141 59.199219 L 31.259766 59.195312 L 32.509766 58.5625 L 32.085938 59.232422 L 35.09375 59.271484 L 35.101562 59.271484 C 39.462092 58.693367 42.52912 55.626336 44.818359 51.841797 C 47.094008 48.079728 48.609227 43.604853 49.880859 40.113281 C 49.915482 40.113078 49.949716 40.113872 49.984375 40.113281 L 50.068359 40.113281 L 50.082031 40.03125 C 50.351668 38.442974 51.347762 36.122374 52.113281 34.507812 C 52.633735 33.410126 52.232858 32.063426 51.166016 31.476562 L 46.296875 28.798828 C 45.231289 28.213199 44.791958 26.912173 45.285156 25.800781 L 53.640625 6.9707031 C 54.027008 6.0993665 53.610229 5.0789786 52.724609 4.7265625 L 52.724609 4.7246094 L 52.595703 4.6738281 L 52.595703 4.6757812 C 52.378302 4.5892523 52.146096 4.5437175 51.912109 4.5429688 z M 51.912109 4.7421875 C 52.120985 4.7428559 52.327416 4.7840856 52.521484 4.8613281 L 52.650391 4.9121094 C 53.433043 5.2235517 53.798492 6.1186414 53.457031 6.8886719 L 45.101562 25.71875 C 44.566958 26.923448 45.046123 28.339814 46.201172 28.974609 L 51.070312 31.652344 C 52.042443 32.187106 52.40985 33.417401 51.933594 34.421875 C 51.177605 36.016335 50.214052 38.276961 49.917969 39.908203 C 49.821494 39.909172 49.725325 39.906188 49.628906 39.904297 C 49.392913 39.899579 49.15775 39.889598 48.921875 39.871094 C 48.920575 39.870992 48.919269 39.871196 48.917969 39.871094 C 48.246072 39.818888 47.574197 39.722122 46.898438 39.636719 C 46.573447 39.595339 46.246977 39.556487 45.919922 39.527344 L 45.916016 39.527344 L 45.914062 39.527344 C 43.393009 39.441604 41.210764 37.897524 39.294922 36.339844 L 39.296875 36.34375 C 38.434023 35.576974 37.523138 34.878995 36.583984 34.220703 C 36.457287 34.131888 36.328835 34.046383 36.201172 33.958984 C 35.382995 33.398855 34.5476 32.86397 33.705078 32.341797 C 33.055756 31.939364 32.403753 31.542809 31.753906 31.144531 L 31.748047 31.140625 C 31.346492 30.854661 30.866276 30.646529 30.466797 30.380859 C 30.369142 30.315915 30.277839 30.247316 30.193359 30.173828 C 29.940725 29.953587 29.754288 29.687666 29.671875 29.330078 C 30.469671 28.270803 32.305835 26.135001 33.601562 24.650391 C 34.331955 23.813529 35.759964 23.540082 36.751953 24.041016 L 38.548828 24.949219 C 39.695466 25.527534 41.096116 25.050092 41.652344 23.892578 L 50.40625 5.6835938 C 50.68468 5.1056725 51.27062 4.7396382 51.912109 4.7421875 z M 29.482422 29.447266 C 29.619476 29.95009 29.961804 30.285073 30.355469 30.546875 C 30.5665 30.687219 30.791401 30.810085 31.011719 30.931641 C 31.232036 31.053197 31.447771 31.173443 31.636719 31.308594 L 31.640625 31.310547 L 31.642578 31.3125 C 34.245766 32.908034 36.881564 34.463838 39.164062 36.492188 L 39.166016 36.494141 L 39.167969 36.496094 C 40.129108 37.277551 41.164481 38.063036 42.283203 38.664062 C 42.562884 38.814319 42.846329 38.953821 43.136719 39.078125 C 44.007889 39.451038 44.928589 39.692888 45.902344 39.726562 C 47.148184 39.837579 48.396757 40.091277 49.667969 40.111328 C 48.399407 43.597699 46.893446 48.023637 44.646484 51.738281 C 42.373375 55.496154 39.35552 58.504651 35.074219 59.072266 L 32.445312 59.037109 L 33.066406 58.058594 L 31.197266 59.001953 C 29.923649 59.209137 28.671216 59.294327 27.378906 59.21875 C 27.380206 59.04313 27.418216 58.811254 27.515625 58.525391 C 27.626357 58.199833 27.7818 57.83765 27.941406 57.5 C 28.26062 56.8247 28.591797 56.25 28.591797 56.25 L 28.425781 56.136719 C 28.425781 56.136719 27.820627 56.886388 26.880859 57.445312 C 25.941553 58.003964 24.689084 58.368983 23.359375 57.619141 L 23.357422 57.619141 C 21.823083 56.719909 20.901716 56.164096 20.380859 55.753906 C 20.120309 55.548715 19.961036 55.379335 19.873047 55.228516 C 19.792717 55.090817 19.776843 54.964966 19.783203 54.820312 L 22.59375 52.869141 L 17.919922 52.914062 C 16.289547 52.331395 14.258533 50.044516 12.732422 47.677734 C 11.968228 46.49258 11.325846 45.288302 10.914062 44.273438 C 10.509462 43.276279 10.355544 42.471423 10.470703 42.074219 C 14.275377 41.148267 17.918825 38.363005 21.181641 35.613281 C 24.409118 32.89334 27.263752 30.245907 29.482422 29.447266 z " />
</svg>
