<?xml version="1.0" encoding="UTF-8" standalone="no"?>
<svg
   width="64"
   height="64"
   version="1.1"
   id="svg4"
   sodipodi:docname="appimagekit-cool-retro-term.svg"
   inkscape:version="1.4 (e7c3feb100, 2024-10-09)"
   xmlns:inkscape="http://www.inkscape.org/namespaces/inkscape"
   xmlns:sodipodi="http://sodipodi.sourceforge.net/DTD/sodipodi-0.dtd"
   xmlns:xlink="http://www.w3.org/1999/xlink"
   xmlns="http://www.w3.org/2000/svg"
   xmlns:svg="http://www.w3.org/2000/svg">
  <defs
     id="defs4">
    <inkscape:path-effect
       effect="fillet_chamfer"
       id="path-effect5"
       is_visible="true"
       lpeversion="1"
       nodesatellites_param="F,0,1,1,0,0.83332099,0,1 @ F,0,1,1,0,0.83332099,0,1 @ F,0,1,1,0,0.83332099,0,1 @ F,0,1,1,0,0.83332099,0,1 | F,0,1,1,0,0.83332099,0,1 @ F,0,1,1,0,0.83332099,0,1 @ F,0,1,1,0,0.83332099,0,1 @ F,0,1,1,0,0.83332099,0,1 | F,0,1,1,0,0.83332099,0,1 @ F,0,1,1,0,0.83332099,0,1 @ F,0,1,1,0,0.83332099,0,1 @ F,0,1,1,0,0.83332099,0,1 | F,0,1,1,0,0.83332099,0,1 @ F,0,1,1,0,0.83332099,0,1 @ F,0,1,1,0,0.83332099,0,1 @ F,0,1,1,0,0.83332099,0,1 | F,0,1,1,0,0.83332099,0,1 @ F,0,0,1,0,0.83332099,0,1 @ F,0,1,1,0,0.83332099,0,1 @ F,0,1,1,0,0.83332099,0,1 | F,0,1,1,0,0.83332099,0,1 @ F,0,1,1,0,0.83332099,0,1 @ F,0,1,1,0,0.83332099,0,1 @ F,0,1,1,0,0.83332099,0,1 @ F,0,1,1,0,0.83332099,0,1 @ F,0,1,1,0,0.83332099,0,1 @ F,0,1,1,0,0.83332099,0,1 @ F,0,1,1,0,0.83332099,0,1 @ F,0,1,1,0,0.83332099,0,1 @ F,0,1,1,0,0.83332099,0,1 | F,0,1,1,0,0.83332099,0,1 @ F,0,1,1,0,0.83332099,0,1 @ F,0,1,1,0,0.83332099,0,1 @ F,0,1,1,0,0.83332099,0,1 | F,0,1,1,0,0.83332099,0,1 @ F,0,1,1,0,0.83332099,0,1 @ F,0,1,1,0,0.83332099,0,1 @ F,0,1,1,0,0.83332099,0,1 | F,0,1,1,0,0.83332099,0,1 @ F,0,1,1,0,0.83332099,0,1 @ F,0,1,1,0,0.83332099,0,1 @ F,0,1,1,0,0.83332099,0,1 @ F,0,1,1,0,0.83332099,0,1 @ F,0,1,1,0,0.83332099,0,1 @ F,0,1,1,0,0.83332099,0,1 @ F,0,1,1,0,0.83332099,0,1 @ F,0,1,1,0,0.83332099,0,1 | F,0,1,1,0,0.83332099,0,1 @ F,0,1,1,0,0.83332099,0,1 @ F,0,1,1,0,0.83332099,0,1 @ F,0,1,1,0,0.83332099,0,1"
       radius="0"
       unit="px"
       method="auto"
       mode="F"
       chamfer_steps="1"
       flexible="false"
       use_knot_distance="true"
       apply_no_radius="true"
       apply_with_radius="true"
       only_selected="false"
       hide_knots="false" />
    <linearGradient
       id="linearGradient4"
       inkscape:collect="always">
      <stop
         style="stop-color:#ffdd5b;stop-opacity:1;"
         offset="0"
         id="stop4" />
      <stop
         style="stop-color:#ffb872;stop-opacity:1;"
         offset="1"
         id="stop5" />
    </linearGradient>
    <filter
       inkscape:collect="always"
       style="color-interpolation-filters:sRGB"
       id="filter2"
       x="-0.11034889"
       y="-0.12359076"
       width="1.2206978"
       height="1.2471815">
      <feGaussianBlur
         inkscape:collect="always"
         stdDeviation="2.5300138"
         id="feGaussianBlur2" />
    </filter>
    <radialGradient
       inkscape:collect="always"
       xlink:href="#linearGradient14"
       id="radialGradient15"
       cx="5.8015566"
       cy="34.666862"
       fx="5.8015566"
       fy="34.666862"
       r="28"
       gradientTransform="matrix(1.9330047,1.0600342,-1.1366554,2.072726,35.746974,-43.628969)"
       gradientUnits="userSpaceOnUse" />
    <linearGradient
       id="linearGradient14"
       inkscape:collect="always">
      <stop
         style="stop-color:#717171;stop-opacity:1;"
         offset="0"
         id="stop14" />
      <stop
         style="stop-color:#555555;stop-opacity:1;"
         offset="1"
         id="stop15" />
    </linearGradient>
    <radialGradient
       inkscape:collect="always"
       xlink:href="#linearGradient4"
       id="radialGradient5"
       cx="10.35171"
       cy="40.557442"
       fx="10.35171"
       fy="40.557442"
       r="13.002176"
       gradientTransform="matrix(3.012445,0,0,2.6580398,-20.832248,-68.965395)"
       gradientUnits="userSpaceOnUse" />
    <inkscape:path-effect
       effect="fillet_chamfer"
       id="path-effect5-5"
       is_visible="true"
       lpeversion="1"
       nodesatellites_param="F,0,1,1,0,0.83332099,0,1 @ F,0,1,1,0,0.83332099,0,1 @ F,0,1,1,0,0.83332099,0,1 @ F,0,1,1,0,0.83332099,0,1 | F,0,1,1,0,0.83332099,0,1 @ F,0,1,1,0,0.83332099,0,1 @ F,0,1,1,0,0.83332099,0,1 @ F,0,1,1,0,0.83332099,0,1 | F,0,1,1,0,0.83332099,0,1 @ F,0,1,1,0,0.83332099,0,1 @ F,0,1,1,0,0.83332099,0,1 @ F,0,1,1,0,0.83332099,0,1 | F,0,1,1,0,0.83332099,0,1 @ F,0,1,1,0,0.83332099,0,1 @ F,0,1,1,0,0.83332099,0,1 @ F,0,1,1,0,0.83332099,0,1 | F,0,1,1,0,0.83332099,0,1 @ F,0,0,1,0,0.83332099,0,1 @ F,0,1,1,0,0.83332099,0,1 @ F,0,1,1,0,0.83332099,0,1 | F,0,1,1,0,0.83332099,0,1 @ F,0,1,1,0,0.83332099,0,1 @ F,0,1,1,0,0.83332099,0,1 @ F,0,1,1,0,0.83332099,0,1 @ F,0,1,1,0,0.83332099,0,1 @ F,0,1,1,0,0.83332099,0,1 @ F,0,1,1,0,0.83332099,0,1 @ F,0,1,1,0,0.83332099,0,1 @ F,0,1,1,0,0.83332099,0,1 @ F,0,1,1,0,0.83332099,0,1 | F,0,1,1,0,0.83332099,0,1 @ F,0,1,1,0,0.83332099,0,1 @ F,0,1,1,0,0.83332099,0,1 @ F,0,1,1,0,0.83332099,0,1 | F,0,1,1,0,0.83332099,0,1 @ F,0,1,1,0,0.83332099,0,1 @ F,0,1,1,0,0.83332099,0,1 @ F,0,1,1,0,0.83332099,0,1 | F,0,1,1,0,0.83332099,0,1 @ F,0,1,1,0,0.83332099,0,1 @ F,0,1,1,0,0.83332099,0,1 @ F,0,1,1,0,0.83332099,0,1 @ F,0,1,1,0,0.83332099,0,1 @ F,0,1,1,0,0.83332099,0,1 @ F,0,1,1,0,0.83332099,0,1 @ F,0,1,1,0,0.83332099,0,1 @ F,0,1,1,0,0.83332099,0,1 | F,0,1,1,0,0.83332099,0,1 @ F,0,1,1,0,0.83332099,0,1 @ F,0,1,1,0,0.83332099,0,1 @ F,0,1,1,0,0.83332099,0,1"
       radius="0"
       unit="px"
       method="auto"
       mode="F"
       chamfer_steps="1"
       flexible="false"
       use_knot_distance="true"
       apply_no_radius="true"
       apply_with_radius="true"
       only_selected="false"
       hide_knots="false" />
    <filter
       inkscape:collect="always"
       style="color-interpolation-filters:sRGB"
       id="filter1"
       x="-0.1277617"
       y="-0.14477859"
       width="1.2555234"
       height="1.2895559">
      <feGaussianBlur
         inkscape:collect="always"
         stdDeviation="1.3457893"
         id="feGaussianBlur1" />
    </filter>
  </defs>
  <sodipodi:namedview
     id="namedview4"
     pagecolor="#505050"
     bordercolor="#eeeeee"
     borderopacity="1"
     inkscape:showpageshadow="0"
     inkscape:pageopacity="0"
     inkscape:pagecheckerboard="0"
     inkscape:deskcolor="#505050"
     inkscape:zoom="18.384776"
     inkscape:cx="35.627304"
     inkscape:cy="29.263343"
     inkscape:window-width="1920"
     inkscape:window-height="1020"
     inkscape:window-x="0"
     inkscape:window-y="0"
     inkscape:window-maximized="1"
     inkscape:current-layer="svg4" />
  <rect
     style="fill:url(#radialGradient15);stroke-width:0.93019"
     width="52.09066"
     height="46.509518"
     x="5.881341"
     y="8.9061241"
     rx="10.057882"
     ry="9.5330811"
     id="rect2" />
  <rect
     style="fill:none;stroke:#000000;stroke-width:0.21500976;stroke-dasharray:none;stroke-opacity:1;filter:url(#filter2)"
     width="56"
     height="50"
     x="4.049305"
     y="7.0226612"
     rx="10.812714"
     ry="10.248527"
     id="rect2-5"
     transform="matrix(0.93019037,0,0,0.93019037,2.1605796,2.394792)" />
  <path
     style="fill:url(#radialGradient5);stroke-width:0.764834"
     d="m 12.909847,15.302132 a 0.76789421,0.76789421 39.883102 0 0 0.833321,0.696347 h 2.922361 a 0.83332099,0.83332099 135 0 0 0.833321,-0.833321 0.76789421,0.76789421 39.883102 0 0 -0.833321,-0.696347 l -2.922361,0 a 0.83332099,0.83332099 135 0 0 -0.833321,0.833321 z M 17.49885,16.8318 a 0.76789421,0.76789421 39.883102 0 0 0.833321,0.696347 0.76789421,0.76789421 129.8831 0 0 0.696347,-0.833321 0.76789421,0.76789421 39.883102 0 0 -0.833321,-0.696347 0.76789421,0.76789421 129.8831 0 0 -0.696347,0.833321 z m -5.422324,-0.833321 a 0.75403766,0.75403766 129.26291 0 0 -0.68105,0.833181 l 0.109825,5.981977 a 0.8487607,0.8487607 44.474101 0 0 0.848618,0.833181 0.70833602,0.70833602 123.70818 0 0 0.555928,-0.833321 V 16.8318 a 0.83332099,0.83332099 45 0 0 -0.833321,-0.833321 z m 0.833321,8.48166 a 0.76789376,0.76789376 39.883061 0 0 0.833321,0.696346 h 2.922361 a 0.83332099,0.83332099 135 0 0 0.833321,-0.833321 0.76789376,0.76789376 39.883061 0 0 -0.833321,-0.696346 h -2.922361 a 0.83332099,0.83332099 135 0 0 -0.833321,0.833321 z m 5.422324,-0.833321 a 0.76789421,0.76789421 129.8831 0 0 0.696347,-0.833321 0.76789421,0.76789421 39.883102 0 0 -0.833321,-0.696347 0.76789421,0.76789421 129.8831 0 0 -0.696347,0.833321 0.76789421,0.76789421 39.883102 0 0 0.833321,0.696347 z m 2.226015,-8.344686 v 9.041032 a 0.83332099,0.83332099 45 0 0 0.833321,0.833321 0.76789376,0.76789376 129.88306 0 0 0.696346,-0.833321 v -1.392693 a 0.83332099,0.83332099 135 0 1 0.833321,-0.833321 h 2.922362 a 0.83332099,0.83332099 135 0 0 0.833321,-0.833321 0.76789421,0.76789421 39.883102 0 0 -0.833321,-0.696347 H 22.921174 A 0.83332099,0.83332099 45 0 1 22.087853,19.754161 V 16.8318 a 0.83332099,0.83332099 135 0 1 0.833321,-0.833321 h 2.922362 a 0.83332099,0.83332099 135 0 0 0.833321,-0.833321 0.76789421,0.76789421 39.883102 0 0 -0.833321,-0.696347 l -4.452029,0 a 0.83332099,0.83332099 135 0 0 -0.833321,0.833321 z m 6.118671,1.529668 v 2.922361 a 0.83332099,0.83332099 45 0 0 0.833321,0.833321 0.76789421,0.76789421 129.8831 0 0 0.696347,-0.833321 V 16.8318 A 0.83332099,0.83332099 45 0 0 27.373204,15.998479 0.76789421,0.76789421 129.8831 0 0 26.676857,16.8318 Z m 0,6.118671 v 1.392693 a 0.83332099,0.83332099 45 0 0 0.833321,0.833321 0.76789421,0.76789421 129.8831 0 0 0.696347,-0.833321 v -1.392693 a 0.83332099,0.83332099 45 0 0 -0.833321,-0.833321 0.76789421,0.76789421 129.8831 0 0 -0.696347,0.833321 z m 3.059335,-7.648339 a 0.76789421,0.76789421 39.883102 0 0 0.833321,0.696347 h 1.392694 a 0.83332099,0.83332099 45 0 1 0.833321,0.833321 v 7.511364 a 0.83332099,0.83332099 45 0 0 0.833321,0.833321 0.76789421,0.76789421 129.8831 0 0 0.696347,-0.833321 V 16.8318 a 0.83332099,0.83332099 135 0 1 0.833321,-0.833321 l 1.392693,0 a 0.83332099,0.83332099 135 0 0 0.833321,-0.833321 0.76789421,0.76789421 39.883102 0 0 -0.833321,-0.696347 h -2.922361 l -3.059336,0 a 0.83332099,0.83332099 135 0 0 -0.833321,0.833321 z M 11.380179,27.539474 v 9.041033 a 0.83332099,0.83332099 45 0 0 0.833321,0.833321 l 5.981697,0 a 0.83332099,0.83332099 135 0 0 0.833321,-0.833321 V 27.539474 A 0.83332099,0.83332099 45 0 0 18.195197,26.706153 H 12.2135 a 0.83332099,0.83332099 135 0 0 -0.833321,0.833321 z"
     id="path4"
     inkscape:path-effect="#path-effect5"
     inkscape:original-d="m 12.909847,14.468811 v 1.529668 h 4.589003 v -1.529668 z m 4.589003,1.529668 v 1.529668 h 1.529668 v -1.529668 z m -4.589003,0 h -1.529668 l 0.140419,7.648339 h 1.389249 z m 0,7.648339 v 1.529667 h 4.589003 v -1.529667 z m 4.589003,0 h 1.529668 V 22.11715 H 17.49885 Z m 3.059336,-9.178007 v 10.707674 h 1.529667 V 22.11715 h 4.589004 v -1.529668 h -4.589004 v -4.589003 h 4.589004 v -1.529668 z m 6.118671,1.529668 v 4.589003 h 1.529668 v -4.589003 z m 0,6.118671 v 3.059335 h 1.529668 V 22.11715 Z m 3.059335,-7.648339 v 1.529668 h 3.059336 v 9.178006 h 1.529668 v -9.178006 h 3.059335 V 14.468811 H 32.795528 Z M 11.380179,26.706153 v 10.707675 h 7.648339 V 26.706153 Z"
     transform="matrix(1.0814812,0,0,1.0814812,0.01779053,0.45253739)" />
  <path
     style="fill:none;stroke:#ff8a00;stroke-width:0.18493155;stroke-dasharray:none;stroke-opacity:1;filter:url(#filter1)"
     d="m 12.909847,15.302132 a 0.76789421,0.76789421 39.883102 0 0 0.833321,0.696347 h 2.922361 a 0.83332099,0.83332099 135 0 0 0.833321,-0.833321 0.76789421,0.76789421 39.883102 0 0 -0.833321,-0.696347 l -2.922361,0 a 0.83332099,0.83332099 135 0 0 -0.833321,0.833321 z M 17.49885,16.8318 a 0.76789421,0.76789421 39.883102 0 0 0.833321,0.696347 0.76789421,0.76789421 129.8831 0 0 0.696347,-0.833321 0.76789421,0.76789421 39.883102 0 0 -0.833321,-0.696347 0.76789421,0.76789421 129.8831 0 0 -0.696347,0.833321 z m -5.422324,-0.833321 a 0.75403766,0.75403766 129.26291 0 0 -0.68105,0.833181 l 0.109825,5.981977 a 0.8487607,0.8487607 44.474101 0 0 0.848618,0.833181 0.70833602,0.70833602 123.70818 0 0 0.555928,-0.833321 V 16.8318 a 0.83332099,0.83332099 45 0 0 -0.833321,-0.833321 z m 0.833321,8.48166 a 0.76789376,0.76789376 39.883061 0 0 0.833321,0.696346 h 2.922361 a 0.83332099,0.83332099 135 0 0 0.833321,-0.833321 0.76789376,0.76789376 39.883061 0 0 -0.833321,-0.696346 h -2.922361 a 0.83332099,0.83332099 135 0 0 -0.833321,0.833321 z m 5.422324,-0.833321 a 0.76789421,0.76789421 129.8831 0 0 0.696347,-0.833321 0.76789421,0.76789421 39.883102 0 0 -0.833321,-0.696347 0.76789421,0.76789421 129.8831 0 0 -0.696347,0.833321 0.76789421,0.76789421 39.883102 0 0 0.833321,0.696347 z m 2.226015,-8.344686 v 9.041032 a 0.83332099,0.83332099 45 0 0 0.833321,0.833321 0.76789376,0.76789376 129.88306 0 0 0.696346,-0.833321 v -1.392693 a 0.83332099,0.83332099 135 0 1 0.833321,-0.833321 h 2.922362 a 0.83332099,0.83332099 135 0 0 0.833321,-0.833321 0.76789421,0.76789421 39.883102 0 0 -0.833321,-0.696347 H 22.921174 A 0.83332099,0.83332099 45 0 1 22.087853,19.754161 V 16.8318 a 0.83332099,0.83332099 135 0 1 0.833321,-0.833321 h 2.922362 a 0.83332099,0.83332099 135 0 0 0.833321,-0.833321 0.76789421,0.76789421 39.883102 0 0 -0.833321,-0.696347 l -4.452029,0 a 0.83332099,0.83332099 135 0 0 -0.833321,0.833321 z m 6.118671,1.529668 v 2.922361 a 0.83332099,0.83332099 45 0 0 0.833321,0.833321 0.76789421,0.76789421 129.8831 0 0 0.696347,-0.833321 V 16.8318 A 0.83332099,0.83332099 45 0 0 27.373204,15.998479 0.76789421,0.76789421 129.8831 0 0 26.676857,16.8318 Z m 0,6.118671 v 1.392693 a 0.83332099,0.83332099 45 0 0 0.833321,0.833321 0.76789421,0.76789421 129.8831 0 0 0.696347,-0.833321 v -1.392693 a 0.83332099,0.83332099 45 0 0 -0.833321,-0.833321 0.76789421,0.76789421 129.8831 0 0 -0.696347,0.833321 z m 3.059335,-7.648339 a 0.76789421,0.76789421 39.883102 0 0 0.833321,0.696347 h 1.392694 a 0.83332099,0.83332099 45 0 1 0.833321,0.833321 v 7.511364 a 0.83332099,0.83332099 45 0 0 0.833321,0.833321 0.76789421,0.76789421 129.8831 0 0 0.696347,-0.833321 V 16.8318 a 0.83332099,0.83332099 135 0 1 0.833321,-0.833321 l 1.392693,0 a 0.83332099,0.83332099 135 0 0 0.833321,-0.833321 0.76789421,0.76789421 39.883102 0 0 -0.833321,-0.696347 h -2.922361 l -3.059336,0 a 0.83332099,0.83332099 135 0 0 -0.833321,0.833321 z M 11.380179,27.539474 v 9.041033 a 0.83332099,0.83332099 45 0 0 0.833321,0.833321 l 5.981697,0 a 0.83332099,0.83332099 135 0 0 0.833321,-0.833321 V 27.539474 A 0.83332099,0.83332099 45 0 0 18.195197,26.706153 H 12.2135 a 0.83332099,0.83332099 135 0 0 -0.833321,0.833321 z"
     id="path4-3"
     inkscape:path-effect="#path-effect5-5"
     inkscape:original-d="m 12.909847,14.468811 v 1.529668 h 4.589003 v -1.529668 z m 4.589003,1.529668 v 1.529668 h 1.529668 v -1.529668 z m -4.589003,0 h -1.529668 l 0.140419,7.648339 h 1.389249 z m 0,7.648339 v 1.529667 h 4.589003 v -1.529667 z m 4.589003,0 h 1.529668 V 22.11715 H 17.49885 Z m 3.059336,-9.178007 v 10.707674 h 1.529667 V 22.11715 h 4.589004 v -1.529668 h -4.589004 v -4.589003 h 4.589004 v -1.529668 z m 6.118671,1.529668 v 4.589003 h 1.529668 v -4.589003 z m 0,6.118671 v 3.059335 h 1.529668 V 22.11715 Z m 3.059335,-7.648339 v 1.529668 h 3.059336 v 9.178006 h 1.529668 v -9.178006 h 3.059335 V 14.468811 H 32.795528 Z M 11.380179,26.706153 v 10.707675 h 7.648339 V 26.706153 Z"
     transform="matrix(1.0814812,0,0,1.0814812,0.03856113,0.37553949)" />
</svg>
