<?xml version="1.0" encoding="UTF-8" standalone="no"?>
<svg
   width="64"
   height="64"
   version="1"
   id="svg3"
   sodipodi:docname="cronopete_preferences.svg"
   inkscape:version="1.3.2 (091e20ef0f, 2023-11-25, custom)"
   xmlns:inkscape="http://www.inkscape.org/namespaces/inkscape"
   xmlns:sodipodi="http://sodipodi.sourceforge.net/DTD/sodipodi-0.dtd"
   xmlns:xlink="http://www.w3.org/1999/xlink"
   xmlns="http://www.w3.org/2000/svg"
   xmlns:svg="http://www.w3.org/2000/svg">
  <defs
     id="defs3">
    <linearGradient
       id="linearGradient3"
       inkscape:collect="always">
      <stop
         style="stop-color:#8e8e8e;stop-opacity:1;"
         offset="0"
         id="stop3" />
      <stop
         style="stop-color:#6e6e6e;stop-opacity:1;"
         offset="1"
         id="stop4" />
    </linearGradient>
    <radialGradient
       inkscape:collect="always"
       xlink:href="#linearGradient3"
       id="radialGradient4"
       cx="-19.965813"
       cy="-13.501165"
       fx="-19.965813"
       fy="-13.501165"
       r="28"
       gradientTransform="matrix(0.75482254,-2.8170361,2.0482677,0.54883167,22.758833,-66.299749)"
       gradientUnits="userSpaceOnUse" />
    <filter
       inkscape:collect="always"
       style="color-interpolation-filters:sRGB"
       id="filter5"
       x="-0.068470101"
       y="-0.087143765"
       width="1.1369402"
       height="1.1742875">
      <feGaussianBlur
         inkscape:collect="always"
         stdDeviation="1.5143024"
         id="feGaussianBlur5" />
    </filter>
    <filter
       inkscape:collect="always"
       style="color-interpolation-filters:sRGB"
       id="filter1"
       x="-0.13450886"
       y="-0.14212714"
       width="1.2690177"
       height="1.2842543">
      <feGaussianBlur
         inkscape:collect="always"
         stdDeviation="1.6584268"
         id="feGaussianBlur1" />
    </filter>
  </defs>
  <sodipodi:namedview
     id="namedview3"
     pagecolor="#ffffff"
     bordercolor="#000000"
     borderopacity="0.25"
     inkscape:showpageshadow="2"
     inkscape:pageopacity="0.0"
     inkscape:pagecheckerboard="0"
     inkscape:deskcolor="#d1d1d1"
     inkscape:zoom="9.0487571"
     inkscape:cx="25.307343"
     inkscape:cy="35.640254"
     inkscape:window-width="1920"
     inkscape:window-height="1018"
     inkscape:window-x="0"
     inkscape:window-y="0"
     inkscape:window-maximized="1"
     inkscape:current-layer="svg3" />
  <rect
     style="fill:url(#radialGradient4)"
     width="56"
     height="44"
     x="-60"
     y="-54"
     rx="9.8329668"
     ry="9.8329668"
     transform="matrix(0,-1,-1,0,0,0)"
     id="rect2" />
  <path
     style="opacity:0.5"
     d="m 16.411542,16.997662 2.562178,9.562178 9.562178,-2.562178 -3.464102,-2 C 27.280935,18.171321 32.173659,16.86032 36,19.069459 c 3.826341,2.209139 5.137342,7.101862 2.928203,10.928203 C 36.719064,33.824003 31.826341,35.135005 28,32.925866 26.77981,32.218502 25.768296,31.20115 25.068003,29.976888 l -5.901656,1.581345 c 1.19028,2.756949 3.235478,5.058122 5.833653,6.563785 6.696096,3.865993 15.258362,1.571741 19.124355,-5.124356 C 47.990348,26.301566 45.696096,17.7393 39,13.873307 32.303903,10.007314 23.741637,12.301566 19.875644,18.997662 Z"
     id="path3" />
  <rect
     style="fill:none;stroke:#000000;stroke-opacity:1;stroke-width:0.39999991;stroke-dasharray:none;opacity:1;filter:url(#filter5)"
     width="56"
     height="44"
     x="-60.045853"
     y="-54.159008"
     rx="9.8329668"
     ry="9.8329668"
     transform="matrix(0,-1,-1,0,0,0)"
     id="rect2-5" />
  <path
     style="opacity:0.2746114;fill:#ffffff;stroke:none;stroke-opacity:1;stroke-width:0.39999991;stroke-dasharray:none;fill-opacity:1;filter:url(#filter1)"
     d="m 16.570549,17.043515 2.562178,9.562178 9.562178,-2.562178 -3.464102,-2 c 2.209139,-3.826341 7.101863,-5.137342 10.928204,-2.928203 3.826341,2.209139 5.137342,7.101862 2.928203,10.928203 -2.209139,3.826341 -7.101862,5.137343 -10.928203,2.928204 -1.22019,-0.707364 -2.231704,-1.724716 -2.931997,-2.948978 l -5.901656,1.581345 c 1.19028,2.756949 3.235478,5.058122 5.833653,6.563785 6.696096,3.865993 15.258362,1.571741 19.124355,-5.124356 C 48.149355,26.347419 45.855103,17.785153 39.159007,13.91916 32.46291,10.053167 23.900644,12.347419 20.034651,19.043515 Z"
     id="path3-3" />
</svg>
