<?xml version="1.0" encoding="UTF-8" standalone="no"?>
<svg
   width="64"
   height="64"
   version="1"
   id="svg5"
   sodipodi:docname="csgo.svg"
   inkscape:version="1.4 (e7c3feb100, 2024-10-09)"
   xmlns:inkscape="http://www.inkscape.org/namespaces/inkscape"
   xmlns:sodipodi="http://sodipodi.sourceforge.net/DTD/sodipodi-0.dtd"
   xmlns:xlink="http://www.w3.org/1999/xlink"
   xmlns="http://www.w3.org/2000/svg"
   xmlns:svg="http://www.w3.org/2000/svg">
  <defs
     id="defs5">
    <linearGradient
       id="linearGradient8"
       inkscape:collect="always">
      <stop
         style="stop-color:#3668b2;stop-opacity:1;"
         offset="0"
         id="stop7" />
      <stop
         style="stop-color:#5c7e8f;stop-opacity:1;"
         offset="1"
         id="stop8" />
    </linearGradient>
    <linearGradient
       id="linearGradient1"
       inkscape:collect="always">
      <stop
         style="stop-color:#e1a100;stop-opacity:1;"
         offset="0"
         id="stop1" />
      <stop
         style="stop-color:#e46d00;stop-opacity:1;"
         offset="1"
         id="stop2" />
    </linearGradient>
    <filter
       inkscape:collect="always"
       style="color-interpolation-filters:sRGB"
       id="filter11"
       x="-0.20291977"
       y="-0.20291977"
       width="1.4058395"
       height="1.4058395">
      <feGaussianBlur
         inkscape:collect="always"
         stdDeviation="3.2986628"
         id="feGaussianBlur11" />
    </filter>
    <filter
       inkscape:collect="always"
       style="color-interpolation-filters:sRGB"
       id="filter12"
       x="-0.10418617"
       y="-0.10418532"
       width="1.2083723"
       height="1.2083706">
      <feGaussianBlur
         inkscape:collect="always"
         stdDeviation="2.3475819"
         id="feGaussianBlur12" />
    </filter>
    <radialGradient
       inkscape:collect="always"
       xlink:href="#linearGradient5"
       id="radialGradient6"
       cx="77.873787"
       cy="6.2731028"
       fx="77.873787"
       fy="6.2731028"
       r="27.998899"
       gradientTransform="matrix(1.4776977e-8,2.9302486,-2.9302725,0,46.938366,-198.7254)"
       gradientUnits="userSpaceOnUse" />
    <linearGradient
       id="linearGradient5"
       inkscape:collect="always">
      <stop
         style="stop-color:#636363;stop-opacity:1;"
         offset="0"
         id="stop5" />
      <stop
         style="stop-color:#131313;stop-opacity:1;"
         offset="1"
         id="stop6" />
    </linearGradient>
    <radialGradient
       inkscape:collect="always"
       xlink:href="#linearGradient1"
       id="radialGradient2"
       cx="16.085627"
       cy="48.993542"
       fx="16.085627"
       fy="48.993542"
       r="18.840382"
       gradientUnits="userSpaceOnUse"
       gradientTransform="matrix(2.7993929,-1.6162303,1.6162303,2.7993929,-108.12921,-62.160553)" />
    <radialGradient
       inkscape:collect="always"
       xlink:href="#linearGradient8"
       id="radialGradient2-1"
       cx="16.085627"
       cy="48.993542"
       fx="16.085627"
       fy="48.993542"
       r="18.840382"
       gradientUnits="userSpaceOnUse"
       gradientTransform="matrix(2.7993929,-1.6162303,1.6162303,2.7993929,-108.12842,-62.160508)" />
  </defs>
  <sodipodi:namedview
     id="namedview5"
     pagecolor="#505050"
     bordercolor="#eeeeee"
     borderopacity="1"
     inkscape:showpageshadow="0"
     inkscape:pageopacity="0"
     inkscape:pagecheckerboard="0"
     inkscape:deskcolor="#505050"
     inkscape:zoom="11.313709"
     inkscape:cx="36.10664"
     inkscape:cy="39.377009"
     inkscape:window-width="1920"
     inkscape:window-height="1011"
     inkscape:window-x="0"
     inkscape:window-y="0"
     inkscape:window-maximized="1"
     inkscape:current-layer="svg5" />
  <path
     style="fill:url(#radialGradient6);stroke-width:0.942019"
     d="m 31.748933,5.6141006 -0.02208,0.014714 C 17.254213,5.7893308 5.6486315,17.478373 5.6486315,31.989636 c 0,14.612244 11.7636485,26.375893 26.3758925,26.375893 14.391064,0 25.993442,-11.416806 26.34198,-25.720264 0,0 0.0228,-0.450707 0.03312,-0.654989 V 11.266361 c 0,-3.131196 -2.520782,-5.6519778 -5.651978,-5.6519778 H 32.023733 Z"
     id="path2" />
  <path
     d="m 32.023437,13.140625 c -10.405598,2.97e-4 -18.840625,8.436199 -18.839843,18.841797 2.82e-4,9.874656 10.157572,17.081965 7.271484,14.814453 l 4.537109,-9.951172 0.933594,-17.517578 19.658203,-0.166016 0.07422,-0.173828 C 42.2269,15.388413 37.389321,13.140778 32.023437,13.140625 Z"
     style="baseline-shift:baseline;display:inline;overflow:visible;vector-effect:none;fill:url(#radialGradient2);enable-background:accumulate;stop-color:#000000;stop-opacity:1"
     id="path3"
     sodipodi:nodetypes="cccccccc" />
  <path
     d="m 45.660156,18.980469 -0.07617,0.18164 -19.658203,0.166016 -0.933594,17.517578 -4.537109,9.951172 c 3.300142,2.592822 7.371527,4.009524 11.568359,4.025391 10.404835,-2.98e-4 18.839547,-8.435009 18.839844,-18.839844 3.88e-4,-4.677754 -1.739395,-9.188379 -4.880859,-12.654297 z"
     style="baseline-shift:baseline;display:inline;overflow:visible;vector-effect:none;fill:url(#radialGradient2-1);enable-background:accumulate;stop-color:#000000;stop-opacity:1"
     id="path1" />
  <path
     style="mix-blend-mode:normal;fill:none;stroke:#000000;stroke-width:0.4;stroke-linecap:round;stroke-linejoin:round;stroke-dasharray:none;stroke-opacity:1;filter:url(#filter12)"
     d="m 31.707867,4.0008699 -0.02344,0.01562 C 16.321,4.1868854 4.0010999,16.595384 4.0010999,31.99981 c 0,15.511623 12.4876961,27.99932 27.9993201,27.99932 15.276829,0 27.593329,-12.119506 27.96332,-27.303337 0,0 0.0242,-0.478448 0.03516,-0.695303 V 10.001025 c 0,-3.3239201 -2.675935,-5.9998551 -5.999855,-5.9998551 H 31.99958 Z"
     id="path2-5"
     transform="matrix(0.94201905,0,0,0.94201905,1.91848,1.8090192)" />
  <circle
     style="mix-blend-mode:normal;fill:none;stroke:#000000;stroke-width:0.4;stroke-linecap:round;stroke-linejoin:round;stroke-dasharray:none;stroke-opacity:1;filter:url(#filter11)"
     cx="32"
     cy="32.04866"
     r="20"
     id="circle3-3"
     transform="matrix(0.94201905,0,0,0.94201905,1.8538103,1.8363781)" />
  <title
     id="title1" />
  <desc
     id="desc1" />
  <path
     d="m 30.076579,14.115165 c 0.524196,-0.181511 1.09679,-0.02998 1.577188,0.206782 0.335668,0.215972 0.671337,0.434243 1.047241,0.575545 0.02874,0.054 0.08852,0.160831 0.117254,0.213675 -0.01494,0.03561 -0.04368,0.109136 -0.05864,0.144748 0.267847,0.608861 0.43913,1.330302 0.17933,1.970064 -0.17703,0.215974 -0.485111,0.249403 -0.734563,0.333036 -0.0011,0.309024 0.04828,0.614718 0.07473,0.921447 0.533392,0.08616 0.984936,-0.284902 1.512582,-0.24814 0.07127,-0.295239 0.127599,-0.595305 0.222092,-0.884685 0.109207,0.191848 0.11369,0.41253 0.114954,0.628505 0.137948,0.03905 0.278192,0.07467 0.419357,0.10902 0.0014,0.05295 0.0023,0.158648 0.0023,0.211493 2.3129,0.01378 4.624534,-0.01046 6.937547,0.01264 -0.0057,0.07903 -0.01701,0.237684 -0.0216,0.317065 0.05978,0 0.18163,0.0011 0.242327,0.0011 -0.0023,-0.420344 0,-0.842067 -0.0011,-1.262409 0.05863,-0.0023 0.173582,-0.0058 0.231059,-0.0071 0.0014,0.330853 0.0023,0.661705 0.0058,0.992672 0.05048,0.06203 0.151625,0.185989 0.202435,0.248025 0.03793,-0.04493 0.113691,-0.133147 0.151512,-0.178064 0.175881,0.164393 0.07587,0.389555 0.06805,0.591514 0.6472,-0.0071 1.301062,0.03664 1.946191,-0.01619 0.04828,-0.03561 0.144845,-0.105688 0.193124,-0.141186 0.08863,0.03435 0.178182,0.06893 0.266698,0.104541 0.290836,-0.0072 0.582822,-0.008 0.87481,-0.0092 -0.0061,0.150493 -0.01057,0.30087 -0.01631,0.451476 -0.375903,-0.0058 -0.752956,-0.01378 -1.123112,0.05042 -0.239107,-0.20552 -0.559831,-0.140269 -0.848369,-0.148079 -0.443727,0.02067 -0.901479,-0.05744 -1.331181,0.08375 -0.255431,0.07123 -0.535692,0.05411 -0.761004,-0.09075 -0.05426,0.134409 0.02874,0.435394 -0.197953,0.423791 -0.892052,0.0116 -1.782956,-0.0078 -2.673858,0.0058 -0.121853,0.06434 -0.244854,0.125218 -0.366478,0.184841 -0.12875,0.383697 -0.497755,0.639762 -0.811813,0.874116 -0.03908,0.58933 0.194274,1.139603 0.285088,1.711587 -0.175881,0.05042 -0.352912,0.102357 -0.526494,0.159796 -0.249453,0.588182 -0.09656,1.391072 -0.673638,1.801423 -0.442577,0.257214 -0.735482,0.816676 -1.332331,0.728334 0.303482,0.252734 -0.08278,0.173468 -0.04253,-0.02872 -1.07943,-0.09535 -1.988728,-0.728336 -2.926763,-1.210713 -0.04368,0.264108 -0.112541,0.523849 -0.183928,0.782329 0.356361,0.06778 0.650647,0.329703 0.713872,0.695019 0.113806,0.796229 -0.113805,1.586713 -0.110358,2.385009 0.02529,0.468707 -0.175881,0.898241 -0.426482,1.280789 -0.219564,0.24814 -0.565581,-0.0071 -0.828827,-0.04365 -0.05989,0.116027 -0.118404,0.23217 -0.175881,0.349233 0.07473,0.312357 0.106907,0.637465 0.211517,0.943044 0.587421,0.649068 1.121961,1.352244 1.532353,2.12768 0.422445,0.878167 0.798896,1.7777 1.127826,2.694952 0.03207,0.178178 0.199907,0.242166 0.347278,0.306727 0.01955,0.183806 0.03908,0.367384 0.05748,0.553605 0.05747,0.08386 0.116104,0.167607 0.175882,0.252618 0.03563,1.132825 -0.10346,2.260826 -0.279571,3.3786 -0.108979,0.504434 0.186227,0.99715 0.06668,1.504919 0.01379,0.259971 -0.165305,0.456299 -0.249453,0.686058 -0.01609,0.536487 -0.04253,1.07975 0.01632,1.615319 0.04116,0.392886 0.373604,0.645506 0.598917,0.938562 0.246004,0.260891 0.451774,0.611158 0.82423,0.704096 0.350613,0.104541 0.685132,0.256181 0.994132,0.455036 0.09428,0.233091 0.07702,0.480311 0.03218,0.722477 -0.673638,0.124069 -1.36107,0.06215 -2.041605,0.07261 -0.524425,0.02745 -0.992063,-0.253997 -1.501546,-0.312702 -0.493157,-0.01241 -1.094374,0.232172 -1.473495,-0.208965 0.160709,-0.612076 0.173582,-1.269416 0.467639,-1.840481 0.09426,-0.646655 -0.08484,-1.30273 -0.04712,-1.955244 -0.05609,-0.04709 -0.168985,-0.141303 -0.225313,-0.188633 0.04047,-0.426087 -0.170018,-0.805303 -0.240256,-1.21301 -0.04576,-0.595419 -0.10002,-1.190264 -0.168984,-1.783042 -0.05404,-0.288347 0.09541,-0.552454 0.298884,-0.744303 0.01839,-0.333149 0.06346,-0.662968 0.09541,-0.993705 -0.04942,-0.21494 -0.220713,-0.374505 -0.33107,-0.558313 -0.369007,0.155317 -0.866763,0.08168 -1.086328,-0.279271 -0.520632,-0.774173 -1.040345,-1.548459 -1.56684,-2.318264 -0.206918,-0.01366 -0.425334,0.008 -0.618459,-0.07468 -0.222783,-0.228496 -0.339118,-0.532925 -0.481431,-0.810934 -0.203587,0.22861 -0.188757,0.578876 -0.429933,0.786923 -0.510401,0.489501 -0.646048,1.208646 -0.912744,1.835771 -0.204391,0.406559 -0.08943,0.897093 -0.317277,1.29354 -0.121852,0.213562 -0.427634,0.256066 -0.508102,0.499841 -0.105759,0.262844 -0.229911,0.535223 -0.477066,0.695133 -0.267844,0.175537 -0.339001,0.508917 -0.458439,0.784397 -0.109209,0.253999 0.05288,0.520403 0.01494,0.781293 -0.170135,0.828397 -0.697779,1.521002 -0.919642,2.332164 -0.101162,0.365317 -0.24612,0.776584 -0.671455,0.854588 -0.483961,0.863892 -0.750541,1.920896 -0.476948,2.89358 0.167834,0.305578 0.158637,0.649067 0.106908,0.985662 -0.768935,0.05985 -1.557643,0.163129 -2.312784,-0.05158 -0.177031,-0.350497 -0.151741,-0.762914 -0.114955,-1.141671 0.233244,-0.996232 0.542589,-1.974889 0.732151,-2.981232 -0.236809,-0.21023 -0.181515,-0.531776 -0.177033,-0.813345 -0.0079,-0.524998 0.349464,-0.945456 0.597768,-1.376254 0.09322,-0.442285 0.04955,-0.91754 0.278191,-1.323409 0.26911,-0.507766 0.496606,-1.056774 0.91171,-1.46701 0.0792,-0.361869 0.34613,-0.635167 0.453957,-0.983594 0.114958,-0.307878 -0.08621,-0.620348 -0.04574,-0.935002 0.09874,-0.954877 0.272444,-1.900219 0.423035,-2.847973 -0.284975,-0.2378 -0.193126,-0.615639 -0.283939,-0.936266 0.04483,-0.126367 0.10116,-0.246876 0.168982,-0.364169 -0.07128,-0.06549 -0.141279,-0.13211 -0.212665,-0.197476 0.06898,-0.336942 0.04942,-0.940058 0.566728,-0.830576 0.03218,-1.115479 -0.355212,-2.195345 -0.225312,-3.312086 0.06899,0.08031 0.136682,0.161979 0.20577,0.243543 l -0.03678,-0.377953 c 0.216115,-0.114878 0.446026,-0.203335 0.687432,-0.248137 -0.393147,-0.05158 -0.775947,-0.151527 -1.161277,-0.241249 -0.09312,-0.244806 -0.04116,-0.505467 -0.007,-0.755904 0.149442,-0.845512 0.20462,-1.702511 0.23566,-2.55951 0.435679,-0.151412 0.916192,-0.02287 1.341527,-0.225164 -0.13197,-1.071824 -0.165306,-2.190633 0.216114,-3.218917 0.306931,-0.875494 0.893318,-1.719858 1.808246,-2.027619 0.432232,-0.103277 0.975971,-0.219419 1.28152,0.199891 0.08393,-0.07698 0.167836,-0.156237 0.251752,-0.233206 -0.697662,-1.384755 0.135763,-3.407779 1.718927,-3.692681 z m 5.58326,6.005888 c -0.183928,0.11258 -0.364407,0.241361 -0.171052,0.445846 -0.09428,0.05618 -0.188757,0.110284 -0.284169,0.161864 -0.149442,0.114879 -0.485112,0.180246 -0.446028,0.412532 0.167893,0.269409 0.31253,0.552616 0.432348,0.846545 0.366592,-0.300868 0.658578,-0.705472 0.856301,-1.133742 0.04138,-0.04251 0.125416,-0.127518 0.166684,-0.16899 -0.0184,-0.196442 -0.06207,-0.388405 -0.139095,-0.569801 -0.137945,0.0023 -0.277041,0.0046 -0.414989,0.0056 z"
     fill="#ffffff"
     fill-rule="nonzero"
     id="Shape"
     style="stroke:none;stroke-width:0.82142" />
</svg>
