<?xml version="1.0" encoding="UTF-8" standalone="no"?>
<!-- Generator: Adobe Illustrator 25.2.1, SVG Export Plug-In . SVG Version: 6.00 Build 0)  -->

<svg
   version="1.1"
   id="Layer_1"
   x="0px"
   y="0px"
   viewBox="0 0 64 64"
   style="enable-background:new 0 0 64 64;"
   xml:space="preserve"
   sodipodi:docname="distributor-logo-ubuntu.svg"
   inkscape:version="1.3.2 (091e20ef0f, 2023-11-25, custom)"
   xmlns:inkscape="http://www.inkscape.org/namespaces/inkscape"
   xmlns:sodipodi="http://sodipodi.sourceforge.net/DTD/sodipodi-0.dtd"
   xmlns="http://www.w3.org/2000/svg"
   xmlns:svg="http://www.w3.org/2000/svg"><defs
   id="defs3"><inkscape:path-effect
     effect="fillet_chamfer"
     id="path-effect1"
     is_visible="true"
     lpeversion="1"
     nodesatellites_param="F,0,1,1,0,2.7065767,0,1 @ F,0,0,1,0,0,0,1 @ F,0,0,1,0,0,0,1 @ F,0,0,1,0,0,0,1 @ F,0,0,1,0,0,0,1 @ F,0,1,1,0,2.7065767,0,1 @ F,0,0,1,0,1.7704568,0,1 @ F,0,0,1,0,0,0,1 @ F,0,0,1,0,1.7704568,0,1 | F,0,1,1,0,2.7065767,0,1 @ F,0,0,1,0,1.7704568,0,1 @ F,0,0,1,0,0,0,1 @ F,0,0,1,0,1.7704568,0,1 @ F,0,1,1,0,2.7065767,0,1 @ F,0,0,1,0,0,0,1 @ F,0,0,1,0,0,0,1 @ F,0,0,1,0,0,0,1 @ F,0,0,1,0,0,0,1 | F,0,0,1,0,0,0,1 @ F,0,0,1,0,0,0,1 @ F,0,0,1,0,0,0,1 @ F,0,0,1,0,0,0,1 | F,0,0,1,0,0,0,1 @ F,0,0,1,0,0,0,1 @ F,0,0,1,0,0,0,1 @ F,0,0,1,0,0,0,1 | F,0,0,1,0,1.7704568,0,1 @ F,0,1,1,0,2.7065767,0,1 @ F,0,0,1,0,0,0,1 @ F,0,0,1,0,0,0,1 @ F,0,0,1,0,0,0,1 @ F,0,1,1,0,2.7065767,0,1 @ F,0,0,1,0,1.7704568,0,1 @ F,0,0,1,0,0,0,1 | F,0,0,1,0,0,0,1 @ F,0,0,1,0,0,0,1 @ F,0,0,1,0,0,0,1 @ F,0,0,1,0,0,0,1"
     radius="0"
     unit="px"
     method="auto"
     mode="F"
     chamfer_steps="1"
     flexible="false"
     use_knot_distance="true"
     apply_no_radius="true"
     apply_with_radius="true"
     only_selected="false"
     hide_knots="false" /><radialGradient
     id="SVGID_1_-6"
     cx="20.3615"
     cy="18.4802"
     r="59.046299"
     gradientUnits="userSpaceOnUse">
	<stop
   offset="0"
   style="stop-color:#FF9B2A"
   id="stop1-7" />
	<stop
   offset="1"
   style="stop-color:#FF6A00"
   id="stop2-5" />
</radialGradient><filter
     inkscape:collect="always"
     style="color-interpolation-filters:sRGB"
     id="filter4"
     x="-0.085013763"
     y="-0.085013763"
     width="1.1700275"
     height="1.1700275"><feGaussianBlur
       inkscape:collect="always"
       stdDeviation="1.8710292"
       id="feGaussianBlur4" /></filter><inkscape:path-effect
     effect="fillet_chamfer"
     id="path-effect1-3"
     is_visible="true"
     lpeversion="1"
     nodesatellites_param="F,0,1,1,0,2.7065767,0,1 @ F,0,0,1,0,0,0,1 @ F,0,0,1,0,0,0,1 @ F,0,0,1,0,0,0,1 @ F,0,0,1,0,0,0,1 @ F,0,1,1,0,2.7065767,0,1 @ F,0,0,1,0,1.7704568,0,1 @ F,0,0,1,0,0,0,1 @ F,0,0,1,0,1.7704568,0,1 | F,0,1,1,0,2.7065767,0,1 @ F,0,0,1,0,1.7704568,0,1 @ F,0,0,1,0,0,0,1 @ F,0,0,1,0,1.7704568,0,1 @ F,0,1,1,0,2.7065767,0,1 @ F,0,0,1,0,0,0,1 @ F,0,0,1,0,0,0,1 @ F,0,0,1,0,0,0,1 @ F,0,0,1,0,0,0,1 | F,0,0,1,0,0,0,1 @ F,0,0,1,0,0,0,1 @ F,0,0,1,0,0,0,1 @ F,0,0,1,0,0,0,1 | F,0,0,1,0,0,0,1 @ F,0,0,1,0,0,0,1 @ F,0,0,1,0,0,0,1 @ F,0,0,1,0,0,0,1 | F,0,0,1,0,1.7704568,0,1 @ F,0,1,1,0,2.7065767,0,1 @ F,0,0,1,0,0,0,1 @ F,0,0,1,0,0,0,1 @ F,0,0,1,0,0,0,1 @ F,0,1,1,0,2.7065767,0,1 @ F,0,0,1,0,1.7704568,0,1 @ F,0,0,1,0,0,0,1 | F,0,0,1,0,0,0,1 @ F,0,0,1,0,0,0,1 @ F,0,0,1,0,0,0,1 @ F,0,0,1,0,0,0,1"
     radius="0"
     unit="px"
     method="auto"
     mode="F"
     chamfer_steps="1"
     flexible="false"
     use_knot_distance="true"
     apply_no_radius="true"
     apply_with_radius="true"
     only_selected="false"
     hide_knots="false" /><filter
     inkscape:collect="always"
     style="color-interpolation-filters:sRGB"
     id="filter1"
     x="-0.081758219"
     y="-0.073251394"
     width="1.1634861"
     height="1.1465028"><feGaussianBlur
       inkscape:collect="always"
       stdDeviation="1.2244805"
       id="feGaussianBlur1" /></filter></defs><sodipodi:namedview
   id="namedview3"
   pagecolor="#505050"
   bordercolor="#eeeeee"
   borderopacity="1"
   inkscape:showpageshadow="0"
   inkscape:pageopacity="0"
   inkscape:pagecheckerboard="0"
   inkscape:deskcolor="#505050"
   inkscape:zoom="9.2476309"
   inkscape:cx="27.84497"
   inkscape:cy="42.443303"
   inkscape:window-width="1920"
   inkscape:window-height="1020"
   inkscape:window-x="0"
   inkscape:window-y="0"
   inkscape:window-maximized="1"
   inkscape:current-layer="Layer_1" />
<style
   type="text/css"
   id="style1">
	.st0{opacity:0.2;enable-background:new    ;}
	.st1{fill:url(#SVGID_1_);}
	.st2{fill:#FFFFFF;}
</style>

<radialGradient
   id="SVGID_1_"
   cx="20.3615"
   cy="18.4802"
   r="59.0463"
   gradientUnits="userSpaceOnUse"
   gradientTransform="matrix(0.97384225,0,0,0.97384225,0.83704907,0.83704907)">
	<stop
   offset="0"
   style="stop-color:#FF9B2A"
   id="stop1" />
	<stop
   offset="1"
   style="stop-color:#FF6A00"
   id="stop2" />
</radialGradient>
<path
   class="st1"
   d="M 59.267582,32 C 59.267582,47.094555 47.094555,59.267582 32,59.267582 16.905445,59.267582 4.7324179,47.094555 4.7324179,32 4.7324179,16.905445 16.905445,4.7324179 32,4.7324179 47.094555,4.7324179 59.267582,16.905445 59.267582,32 Z"
   id="path2"
   style="fill:url(#SVGID_1_);stroke-width:0.973842" /><path
   class="st1"
   d="M 60,32 C 60,47.5 47.5,60 32,60 16.5,60 4,47.5 4,32 4,16.5 16.5,4 32,4 47.5,4 60,16.5 60,32 Z"
   id="path2-3"
   style="mix-blend-mode:normal;fill:none;stroke:#000000;stroke-width:0.540601;stroke-dasharray:none;stroke-opacity:1;filter:url(#filter4)"
   transform="matrix(0.97384222,0,0,0.97384222,0.83704895,0.83704895)" />
<path
   class="st2"
   d="m 46.919632,27.408909 c -0.90311,-2.925583 -2.672879,-5.525657 -5.083826,-7.484553 -0.681689,0.19477 -1.363378,0.389538 -2.045068,0.389538 -2.434606,0 -4.577059,-1.558149 -5.453516,-3.700602 C 33.558147,16.515908 32.779074,16.418525 32,16.418525 c -1.165567,0 -2.331135,0.126534 -3.478674,0.397632 -1.452544,0.343152 -1.962229,1.922918 -1.225892,3.223779 l 0.716147,1.265195 c 0.481661,0.850934 1.631677,1.295048 2.598678,1.156352 0.457905,-0.06568 0.923823,-0.102521 1.389741,-0.102521 3.989835,0 7.535677,2.441965 9.024896,6.1003 0.368202,0.904503 1.311311,1.677445 2.288976,1.661418 l 1.464007,-0.024 c 1.4946,-0.0245 2.582077,-1.261361 2.141753,-2.68777 z m -2.142117,6.538776 H 43.31411 c -0.977796,0 -1.920909,0.785609 -2.285483,1.691584 -1.471895,3.657698 -4.954328,6.099153 -9.028627,6.099153 -0.476266,0 -0.933282,-0.0385 -1.388166,-0.10694 -0.966342,-0.145394 -2.118592,0.309838 -2.600253,1.160772 l -0.716147,1.265194 c -0.736336,1.300861 -0.211006,2.83334 1.240202,3.186455 1.142918,0.2781 2.303641,0.434956 3.464364,0.434956 0.779074,0 1.558147,-0.09738 2.337222,-0.194767 0.876457,-2.142454 2.921527,-3.700601 5.453516,-3.700601 0.68169,0 1.363379,0.194768 2.045068,0.389537 2.413289,-2.036214 4.125751,-4.656449 5.04693,-7.589345 0.447448,-1.424608 -0.61042,-2.635998 -2.105221,-2.635998 z M 43.686106,14.47084 c 0,-2.142452 -1.752915,-3.895369 -3.895368,-3.895369 -2.142453,0 -3.89537,1.752917 -3.89537,3.895369 0,2.142452 1.752917,3.895369 3.89537,3.895369 2.142453,0 3.895368,-1.752917 3.895368,-3.895369 z m 0,35.058321 c 0,-2.142453 -1.752915,-3.89537 -3.895368,-3.89537 -2.142453,0 -3.89537,1.752917 -3.89537,3.89537 0,2.142451 1.752917,3.895368 3.89537,3.895368 2.142453,0 3.895368,-1.752917 3.895368,-3.895368 z M 24.700517,23.155431 23.98437,21.890236 c -0.736337,-1.300861 -2.322152,-1.635491 -3.333988,-0.537866 -1.753905,1.902609 -2.99638,4.219925 -3.647552,6.752262 0.876458,1.071226 1.460763,2.337221 1.460763,3.797983 0,1.460764 -0.584305,2.726759 -1.460763,3.797985 0.651172,2.532337 1.893648,4.849653 3.647552,6.752262 1.011837,1.097624 2.597652,0.762994 3.333988,-0.537867 l 0.716147,-1.265194 C 25.182178,39.798867 24.925564,38.632049 24.301136,37.882136 22.972217,36.28616 22.261578,34.202299 22.261578,32 c 0,-2.22685 0.726571,-4.332605 2.084231,-6.030812 0.609713,-0.762649 0.836369,-1.962823 0.354708,-2.813757 z M 16.418525,32 c 0,-2.142453 -1.752916,-3.895368 -3.89537,-3.895368 -2.142452,0 -3.8953682,1.752915 -3.8953682,3.895368 0,2.142453 1.7529162,3.895368 3.8953682,3.895368 2.142454,0 3.89537,-1.752915 3.89537,-3.895368 z"
   id="path3"
   style="stroke-width:0.973842"
   inkscape:path-effect="#path-effect1"
   inkscape:original-d="m 47.484092,30.052315 c -0.486922,-3.992753 -2.531991,-7.595968 -5.648286,-10.127959 -0.681689,0.19477 -1.363378,0.389538 -2.045068,0.389538 -2.434606,0 -4.577059,-1.558149 -5.453516,-3.700602 C 33.558147,16.515908 32.779074,16.418525 32,16.418525 c -2.045068,0 -4.090138,0.389537 -6.037821,1.265994 l 2.921526,5.161364 C 29.857547,22.55373 30.928774,22.358962 32,22.358962 c 4.577058,0 8.569812,3.213679 9.543653,7.790738 z m 0,3.89537 H 41.543653 C 40.569812,38.524743 36.674442,41.738422 32,41.738422 c -1.071226,0 -2.045068,-0.194769 -3.116295,-0.48692 l -2.921526,5.161363 c 1.947683,0.779073 3.992753,1.265994 6.037821,1.265994 0.779074,0 1.558147,-0.09738 2.337222,-0.194767 0.876457,-2.142454 2.921527,-3.700601 5.453516,-3.700601 0.68169,0 1.363379,0.194768 2.045068,0.389537 3.116295,-2.629375 5.06398,-6.23259 5.648286,-10.225343 z M 43.686106,14.47084 c 0,-2.142452 -1.752915,-3.895369 -3.895368,-3.895369 -2.142453,0 -3.89537,1.752917 -3.89537,3.895369 0,2.142452 1.752917,3.895369 3.89537,3.895369 2.142453,0 3.895368,-1.752917 3.895368,-3.895369 z m 0,35.058321 c 0,-2.142453 -1.752915,-3.89537 -3.895368,-3.89537 -2.142453,0 -3.89537,1.752917 -3.89537,3.89537 0,2.142451 1.752917,3.895368 3.89537,3.895368 2.142453,0 3.895368,-1.752917 3.895368,-3.895368 z M 25.572641,24.696183 22.651115,19.534819 c -2.824143,2.142453 -4.771827,5.161364 -5.648285,8.569813 0.876458,1.071226 1.460763,2.337221 1.460763,3.797983 0,1.460764 -0.584305,2.726759 -1.460763,3.797985 0.876458,3.408449 2.824142,6.427359 5.648285,8.569812 l 2.921526,-5.161363 C 23.430188,37.453517 22.261578,34.824142 22.261578,32 c 0,-2.824142 1.16861,-5.453517 3.311063,-7.303817 z M 16.418525,32 c 0,-2.142453 -1.752916,-3.895368 -3.89537,-3.895368 -2.142452,0 -3.8953682,1.752915 -3.8953682,3.895368 0,2.142453 1.7529162,3.895368 3.8953682,3.895368 2.142454,0 3.89537,-1.752915 3.89537,-3.895368 z" /><path
   class="st2"
   d="m 46.919632,27.408909 c -0.90311,-2.925583 -2.672879,-5.525657 -5.083826,-7.484553 -0.681689,0.19477 -1.363378,0.389538 -2.045068,0.389538 -2.434606,0 -4.577059,-1.558149 -5.453516,-3.700602 C 33.558147,16.515908 32.779074,16.418525 32,16.418525 c -1.165567,0 -2.331135,0.126534 -3.478674,0.397632 -1.452544,0.343152 -1.962229,1.922918 -1.225892,3.223779 l 0.716147,1.265195 c 0.481661,0.850934 1.631677,1.295048 2.598678,1.156352 0.457905,-0.06568 0.923823,-0.102521 1.389741,-0.102521 3.989835,0 7.535677,2.441965 9.024896,6.1003 0.368202,0.904503 1.311311,1.677445 2.288976,1.661418 l 1.464007,-0.024 c 1.4946,-0.0245 2.582077,-1.261361 2.141753,-2.68777 z m -2.142117,6.538776 H 43.31411 c -0.977796,0 -1.920909,0.785609 -2.285483,1.691584 -1.471895,3.657698 -4.954328,6.099153 -9.028627,6.099153 -0.476266,0 -0.933282,-0.0385 -1.388166,-0.10694 -0.966342,-0.145394 -2.118592,0.309838 -2.600253,1.160772 l -0.716147,1.265194 c -0.736336,1.300861 -0.211006,2.83334 1.240202,3.186455 1.142918,0.2781 2.303641,0.434956 3.464364,0.434956 0.779074,0 1.558147,-0.09738 2.337222,-0.194767 0.876457,-2.142454 2.921527,-3.700601 5.453516,-3.700601 0.68169,0 1.363379,0.194768 2.045068,0.389537 2.413289,-2.036214 4.125751,-4.656449 5.04693,-7.589345 0.447448,-1.424608 -0.61042,-2.635998 -2.105221,-2.635998 z M 43.686106,14.47084 c 0,-2.142452 -1.752915,-3.895369 -3.895368,-3.895369 -2.142453,0 -3.89537,1.752917 -3.89537,3.895369 0,2.142452 1.752917,3.895369 3.89537,3.895369 2.142453,0 3.895368,-1.752917 3.895368,-3.895369 z m 0,35.058321 c 0,-2.142453 -1.752915,-3.89537 -3.895368,-3.89537 -2.142453,0 -3.89537,1.752917 -3.89537,3.89537 0,2.142451 1.752917,3.895368 3.89537,3.895368 2.142453,0 3.895368,-1.752917 3.895368,-3.895368 z M 24.700517,23.155431 23.98437,21.890236 c -0.736337,-1.300861 -2.322152,-1.635491 -3.333988,-0.537866 -1.753905,1.902609 -2.99638,4.219925 -3.647552,6.752262 0.876458,1.071226 1.460763,2.337221 1.460763,3.797983 0,1.460764 -0.584305,2.726759 -1.460763,3.797985 0.651172,2.532337 1.893648,4.849653 3.647552,6.752262 1.011837,1.097624 2.597652,0.762994 3.333988,-0.537867 l 0.716147,-1.265194 C 25.182178,39.798867 24.925564,38.632049 24.301136,37.882136 22.972217,36.28616 22.261578,34.202299 22.261578,32 c 0,-2.22685 0.726571,-4.332605 2.084231,-6.030812 0.609713,-0.762649 0.836369,-1.962823 0.354708,-2.813757 z M 16.418525,32 c 0,-2.142453 -1.752916,-3.895368 -3.89537,-3.895368 -2.142452,0 -3.8953682,1.752915 -3.8953682,3.895368 0,2.142453 1.7529162,3.895368 3.8953682,3.895368 2.142454,0 3.89537,-1.752915 3.89537,-3.895368 z"
   id="path3-6"
   style="fill:none;stroke-width:0.4;stroke:#ff0000;stroke-opacity:1;stroke-dasharray:none;filter:url(#filter1)"
   inkscape:path-effect="#path-effect1-3"
   inkscape:original-d="m 47.484092,30.052315 c -0.486922,-3.992753 -2.531991,-7.595968 -5.648286,-10.127959 -0.681689,0.19477 -1.363378,0.389538 -2.045068,0.389538 -2.434606,0 -4.577059,-1.558149 -5.453516,-3.700602 C 33.558147,16.515908 32.779074,16.418525 32,16.418525 c -2.045068,0 -4.090138,0.389537 -6.037821,1.265994 l 2.921526,5.161364 C 29.857547,22.55373 30.928774,22.358962 32,22.358962 c 4.577058,0 8.569812,3.213679 9.543653,7.790738 z m 0,3.89537 H 41.543653 C 40.569812,38.524743 36.674442,41.738422 32,41.738422 c -1.071226,0 -2.045068,-0.194769 -3.116295,-0.48692 l -2.921526,5.161363 c 1.947683,0.779073 3.992753,1.265994 6.037821,1.265994 0.779074,0 1.558147,-0.09738 2.337222,-0.194767 0.876457,-2.142454 2.921527,-3.700601 5.453516,-3.700601 0.68169,0 1.363379,0.194768 2.045068,0.389537 3.116295,-2.629375 5.06398,-6.23259 5.648286,-10.225343 z M 43.686106,14.47084 c 0,-2.142452 -1.752915,-3.895369 -3.895368,-3.895369 -2.142453,0 -3.89537,1.752917 -3.89537,3.895369 0,2.142452 1.752917,3.895369 3.89537,3.895369 2.142453,0 3.895368,-1.752917 3.895368,-3.895369 z m 0,35.058321 c 0,-2.142453 -1.752915,-3.89537 -3.895368,-3.89537 -2.142453,0 -3.89537,1.752917 -3.89537,3.89537 0,2.142451 1.752917,3.895368 3.89537,3.895368 2.142453,0 3.895368,-1.752917 3.895368,-3.895368 z M 25.572641,24.696183 22.651115,19.534819 c -2.824143,2.142453 -4.771827,5.161364 -5.648285,8.569813 0.876458,1.071226 1.460763,2.337221 1.460763,3.797983 0,1.460764 -0.584305,2.726759 -1.460763,3.797985 0.876458,3.408449 2.824142,6.427359 5.648285,8.569812 l 2.921526,-5.161363 C 23.430188,37.453517 22.261578,34.824142 22.261578,32 c 0,-2.824142 1.16861,-5.453517 3.311063,-7.303817 z M 16.418525,32 c 0,-2.142453 -1.752916,-3.895368 -3.89537,-3.895368 -2.142452,0 -3.8953682,1.752915 -3.8953682,3.895368 0,2.142453 1.7529162,3.895368 3.8953682,3.895368 2.142454,0 3.89537,-1.752915 3.89537,-3.895368 z"
   transform="translate(0.08110198,0.03519168)" />
</svg>
