<?xml version="1.0" encoding="UTF-8" standalone="no"?>
<svg
   width="64"
   height="64"
   version="1.1"
   id="svg8"
   sodipodi:docname="eog.svg"
   inkscape:version="1.3.2 (091e20ef0f, 2023-11-25, custom)"
   xmlns:inkscape="http://www.inkscape.org/namespaces/inkscape"
   xmlns:sodipodi="http://sodipodi.sourceforge.net/DTD/sodipodi-0.dtd"
   xmlns:xlink="http://www.w3.org/1999/xlink"
   xmlns="http://www.w3.org/2000/svg"
   xmlns:svg="http://www.w3.org/2000/svg">
  <defs
     id="defs8">
    <inkscape:path-effect
       effect="fillet_chamfer"
       id="path-effect1"
       is_visible="true"
       lpeversion="1"
       nodesatellites_param="F,0,0,1,0,0.90688906,0,1 @ F,0,0,1,0,0.90688906,0,1 @ F,0,0,1,0,0.90688906,0,1 @ F,0,0,1,0,0.90688906,0,1 @ F,0,0,1,0,3.2022422,0,1 @ F,0,1,1,0,3.2022422,0,1 @ F,0,0,1,0,0.90688906,0,1"
       radius="0"
       unit="px"
       method="auto"
       mode="F"
       chamfer_steps="1"
       flexible="false"
       use_knot_distance="true"
       apply_no_radius="true"
       apply_with_radius="true"
       only_selected="false"
       hide_knots="false" />
    <linearGradient
       id="linearGradient13"
       inkscape:collect="always">
      <stop
         style="stop-color:#71b8ff;stop-opacity:1;"
         offset="0"
         id="stop13" />
      <stop
         style="stop-color:#dcf8ff;stop-opacity:1;"
         offset="1"
         id="stop14" />
    </linearGradient>
    <linearGradient
       id="linearGradient8"
       inkscape:collect="always">
      <stop
         style="stop-color:#00e2ff;stop-opacity:1;"
         offset="0"
         id="stop8" />
      <stop
         style="stop-color:#0043ff;stop-opacity:1;"
         offset="1"
         id="stop9" />
    </linearGradient>
    <radialGradient
       inkscape:collect="always"
       xlink:href="#linearGradient8"
       id="radialGradient9"
       cx="15.315494"
       cy="42.666172"
       fx="15.315494"
       fy="42.666172"
       r="23.5"
       gradientTransform="matrix(2.6189668,-0.70175005,0.49271812,1.838849,-43.354141,-31.097648)"
       gradientUnits="userSpaceOnUse" />
    <filter
       inkscape:collect="always"
       style="color-interpolation-filters:sRGB"
       id="filter13"
       x="-0.045112764"
       y="-0.045112763"
       width="1.0902255"
       height="1.0902255">
      <feGaussianBlur
         inkscape:collect="always"
         stdDeviation="0.95647155"
         id="feGaussianBlur13" />
    </filter>
    <radialGradient
       inkscape:collect="always"
       xlink:href="#linearGradient13"
       id="radialGradient14"
       cx="10.442235"
       cy="44.274395"
       fx="10.442235"
       fy="44.274395"
       r="10.223896"
       gradientUnits="userSpaceOnUse"
       gradientTransform="matrix(1.7855334,-1.0308782,1.0308782,1.7855334,-52.354121,-24.65678)" />
    <filter
       inkscape:collect="always"
       style="color-interpolation-filters:sRGB"
       id="filter3"
       x="-0.2949793"
       y="-0.2949794"
       width="1.5899586"
       height="1.5899588">
      <feGaussianBlur
         inkscape:collect="always"
         stdDeviation="0.34630934"
         id="feGaussianBlur3" />
    </filter>
    <inkscape:path-effect
       effect="fillet_chamfer"
       id="path-effect1-3"
       is_visible="true"
       lpeversion="1"
       nodesatellites_param="F,0,1,1,0,0.90688906,0,1 @ F,0,1,1,0,0.90688906,0,1 @ F,0,1,1,0,0.90688906,0,1 @ F,0,0,1,0,0.90688906,0,1 @ F,0,0,1,0,1.1729936,0,1 @ F,0,0,1,0,0,0,1 @ F,0,1,1,0,0.90688906,0,1"
       radius="0"
       unit="px"
       method="auto"
       mode="F"
       chamfer_steps="1"
       flexible="false"
       use_knot_distance="true"
       apply_no_radius="true"
       apply_with_radius="true"
       only_selected="false"
       hide_knots="false" />
    <filter
       inkscape:collect="always"
       style="color-interpolation-filters:sRGB"
       id="filter4"
       x="-0.055765627"
       y="-0.10106659"
       width="1.1115313"
       height="1.2022042">
      <feGaussianBlur
         inkscape:collect="always"
         stdDeviation="0.74153492"
         id="feGaussianBlur4" />
    </filter>
    <filter
       inkscape:collect="always"
       style="color-interpolation-filters:sRGB"
       id="filter5"
       x="-0.097557877"
       y="-0.13894607"
       width="1.1951158"
       height="1.2778921">
      <feGaussianBlur
         inkscape:collect="always"
         stdDeviation="1.7884385"
         id="feGaussianBlur5" />
    </filter>
    <filter
       inkscape:collect="always"
       style="color-interpolation-filters:sRGB"
       id="filter6"
       x="-0.08892041"
       y="-0.088927677"
       width="1.1778408"
       height="1.1778554">
      <feGaussianBlur
         inkscape:collect="always"
         stdDeviation="0.84362977"
         id="feGaussianBlur6" />
    </filter>
  </defs>
  <sodipodi:namedview
     id="namedview8"
     pagecolor="#505050"
     bordercolor="#eeeeee"
     borderopacity="1"
     inkscape:showpageshadow="0"
     inkscape:pageopacity="0"
     inkscape:pagecheckerboard="0"
     inkscape:deskcolor="#505050"
     inkscape:zoom="9.3139221"
     inkscape:cx="38.705499"
     inkscape:cy="32.370896"
     inkscape:window-width="1920"
     inkscape:window-height="1020"
     inkscape:window-x="0"
     inkscape:window-y="0"
     inkscape:window-maximized="1"
     inkscape:current-layer="svg8" />
  <path
     style="fill:#e4e4e4;stroke-width:0.853337"
     d="m 14.359021,8.1219543 h 40.435034 c 2.030009,0 3.675912,1.6452241 3.675912,3.6743937 V 52.23442 c 0,2.029168 -1.645903,3.674393 -3.675912,3.674393 H 14.359021 c -2.030009,0 -3.675913,-1.645225 -3.675913,-3.674393 V 11.796348 c 0,-2.0291696 1.645904,-3.6743937 3.675913,-3.6743937 z m 0,0"
     id="path2" />
  <path
     style="fill:none;stroke:#000000;stroke-width:0.461566;stroke-dasharray:none;stroke-opacity:1;filter:url(#filter13)"
     d="M 11.307692,4 H 58.692308 C 61.071214,4 63,5.9279892 63,8.3059132 V 55.694088 C 63,58.07201 61.071214,60 58.692308,60 H 11.307692 C 8.9287862,60 7.0000002,58.07201 7.0000002,55.694088 V 8.3059132 C 7.0000002,5.9279892 8.9287862,4 11.307692,4 Z m 0,0"
     id="path2-3"
     transform="matrix(0.85333677,0,0,0.85333677,4.7097507,4.693223)" />
  <rect
     style="fill:url(#radialGradient9);stroke-width:0.853337"
     width="40.106831"
     height="28.160112"
     x="14.523124"
     y="11.946586"
     id="rect3"
     rx="3.0067213"
     ry="3.0067213" />
  <rect
     style="fill:none;stroke:#000000;stroke-width:0.58593535;stroke-dasharray:none;stroke-opacity:1;filter:url(#filter5)"
     width="47"
     height="33"
     x="11.5"
     y="8.5"
     id="rect3-5"
     rx="3.5234873"
     ry="3.5234873"
     transform="matrix(0.85333677,0,0,0.85333677,4.7097507,4.693223)" />
  <path
     fill="#ffffff"
     d="m 26.794443,17.527665 9.275473,11.594343 a 0.86100071,0.86100071 4.8533264 0 0 1.244346,0.105657 l 6.450764,-5.734013 a 0.96180316,0.96180316 1.6832271 0 1 1.319084,0.03876 l 5.656488,5.656487 a 2.1894236,2.1894236 67.499998 0 1 0.641267,1.548156 v 1.962512 a 3.2022422,3.2022422 135 0 1 -3.202242,3.202242 H 20.75638 A 3.2022422,3.2022422 45 0 1 17.554138,32.69957 v -4.564645 a 2.504873,2.504873 109.90278 0 1 0.580576,-1.60358 l 7.512624,-9.01515 a 0.7405026,0.7405026 0.57288168 0 1 1.147105,0.01147 z"
     id="path4"
     style="stroke-width:0.867378"
     inkscape:path-effect="#path-effect1"
     inkscape:original-d="m 26.227914,16.819504 10.408531,13.010665 7.806398,-6.939021 6.939022,6.939021 v 6.071643 H 17.554138 v -8.673776 z"
     transform="matrix(0.91811422,0,0,0.91811422,2.6368724,2.6203447)" />
  <path
     fill="#ffffff"
     d="m 26.794443,17.527665 9.275473,11.594343 a 0.86100071,0.86100071 4.8533264 0 0 1.244346,0.105657 l 6.450764,-5.734013 a 0.96180316,0.96180316 1.6832271 0 1 1.319084,0.03876 l 5.656488,5.656487 a 2.1894236,2.1894236 67.499998 0 1 0.641267,1.548156 v 3.99176 a 1.1729936,1.1729936 135 0 1 -1.172994,1.172994 l -32.654733,0 v -7.766887 a 2.504873,2.504873 109.90278 0 1 0.580576,-1.60358 l 7.512624,-9.01515 a 0.7405026,0.7405026 0.57288168 0 1 1.147105,0.01147 z"
     id="path4-6"
     style="stroke-width:0.21348106;fill:none;stroke:#000000;stroke-opacity:1;stroke-dasharray:none;filter:url(#filter4)"
     inkscape:path-effect="#path-effect1-3"
     inkscape:original-d="m 26.227914,16.819504 10.408531,13.010665 7.806398,-6.939021 6.939022,6.939021 v 6.071643 H 17.554138 v -8.673776 z"
     transform="matrix(0.91811422,0,0,0.91811422,2.6129168,2.5970459)" />
  <path
     d="M 17.544922,27.135985 A 9.967279,9.967279 0 0 0 7.5773887,37.10156 9.967279,9.967279 0 0 0 17.544922,47.069093 9.967279,9.967279 0 0 0 27.512454,37.10156 9.967279,9.967279 0 0 0 17.544922,27.135985 Z"
     style="opacity:0.67858619;mix-blend-mode:normal;fill:url(#radialGradient14);stroke-width:0.906116"
     id="path1" />
  <path
     d="m 17.509766,25.173828 c -6.588346,0 -11.947266,5.358632 -11.947266,11.945313 0,6.588346 5.35892,11.947265 11.947266,11.947265 6.588347,0 11.947265,-5.358919 11.947265,-11.947265 v -9.386719 c 0,-1.413337 -1.147209,-2.558594 -2.560547,-2.558594 z m 0.03516,1.982422 c 5.493013,-1.4e-4 9.946327,4.4523 9.947265,9.945312 1.41e-4,5.493776 -4.453489,9.947406 -9.947265,9.947266 -5.493776,1.4e-4 -9.9474059,-4.45349 -9.9472658,-9.947266 9.385e-4,-5.493012 4.4542528,-9.945452 9.9472658,-9.945312 z"
     style="fill:#b0b0b0;stroke-width:0.2;stroke:#acacac;stroke-opacity:1;stroke-dasharray:none"
     id="path3" />
  <path
     d="m 17.458314,25.169492 c -6.588346,0 -11.9472658,5.358632 -11.9472658,11.945313 0,6.588346 5.3589198,11.947265 11.9472658,11.947265 6.588347,0 11.947265,-5.358919 11.947265,-11.947265 v -9.386719 c 0,-1.413337 -1.147209,-2.558594 -2.560547,-2.558594 z m 0.03516,1.982422 c 5.493013,-1.4e-4 9.946327,4.4523 9.947265,9.945312 1.41e-4,5.493776 -4.453489,9.947406 -9.947265,9.947266 -5.493776,1.4e-4 -9.9474057,-4.45349 -9.9472656,-9.947266 9.385e-4,-5.493012 4.4542526,-9.945452 9.9472656,-9.945312 z"
     style="fill:none;stroke-width:0.2;stroke:#000000;stroke-opacity:1;stroke-dasharray:none;filter:url(#filter6)"
     id="path3-3" />
  <path
     style="fill:#fdfdfd;fill-opacity:1;stroke-width:0.853337"
     d="m 27.749843,28.159985 c 0,0.707503 -0.572501,1.280005 -1.280004,1.280005 -0.707505,0 -1.280006,-0.572502 -1.280006,-1.280005 0,-0.705001 0.572501,-1.280005 1.280006,-1.280005 0.707503,0 1.280004,0.575004 1.280004,1.280005 z m 0,0"
     id="path7" />
  <path
     style="fill:none;stroke:#000000;stroke-width:0.107591;stroke-dasharray:none;stroke-opacity:1;filter:url(#filter3)"
     d="M 27,27.500001 C 27,28.329102 26.329102,29 25.5,29 24.670897,29 24,28.329102 24,27.500001 c 0,-0.82617 0.670897,-1.5 1.5,-1.5 0.829102,0 1.5,0.67383 1.5,1.5 z m 0,0"
     id="path7-9"
     transform="matrix(0.85333677,0,0,0.85333677,4.7097507,4.693223)" />
</svg>
