<?xml version="1.0" encoding="UTF-8" standalone="no"?>
<svg
   width="64"
   height="64"
   version="1.1"
   id="svg4"
   sodipodi:docname="facebook.svg"
   inkscape:version="1.4 (e7c3feb100, 2024-10-09)"
   xmlns:inkscape="http://www.inkscape.org/namespaces/inkscape"
   xmlns:sodipodi="http://sodipodi.sourceforge.net/DTD/sodipodi-0.dtd"
   xmlns:xlink="http://www.w3.org/1999/xlink"
   xmlns="http://www.w3.org/2000/svg"
   xmlns:svg="http://www.w3.org/2000/svg">
  <defs
     id="defs4">
    <linearGradient
       id="linearGradient4"
       inkscape:collect="always">
      <stop
         style="stop-color:#4572d4;stop-opacity:1;"
         offset="0"
         id="stop4" />
      <stop
         style="stop-color:#59c9ff;stop-opacity:1;"
         offset="1"
         id="stop5" />
    </linearGradient>
    <radialGradient
       inkscape:collect="always"
       xlink:href="#linearGradient4"
       id="radialGradient5-3"
       cx="13.323273"
       cy="52.612076"
       fx="13.323273"
       fy="52.612076"
       r="28"
       gradientUnits="userSpaceOnUse"
       gradientTransform="matrix(2.5214917,-0.67563167,0.75223226,2.8073691,-57.946168,-88.186446)" />
    <filter
       inkscape:collect="always"
       style="color-interpolation-filters:sRGB"
       id="filter1"
       x="-0.13549019"
       y="-0.13549019"
       width="1.2709804"
       height="1.2709804">
      <feGaussianBlur
         inkscape:collect="always"
         stdDeviation="3.1197711"
         id="feGaussianBlur1" />
    </filter>
  </defs>
  <sodipodi:namedview
     id="namedview4"
     pagecolor="#ffffff"
     bordercolor="#000000"
     borderopacity="0.25"
     inkscape:showpageshadow="2"
     inkscape:pageopacity="0.0"
     inkscape:pagecheckerboard="0"
     inkscape:deskcolor="#d1d1d1"
     inkscape:zoom="12.640625"
     inkscape:cx="21.478368"
     inkscape:cy="25.908529"
     inkscape:window-width="1920"
     inkscape:window-height="1017"
     inkscape:window-x="0"
     inkscape:window-y="0"
     inkscape:window-maximized="1"
     inkscape:current-layer="svg4" />
  <rect
     style="fill:url(#radialGradient5-3);stroke-width:0.898184"
     width="50.298328"
     height="50.298328"
     x="6.8508358"
     y="6.8508358"
     rx="11.85659"
     ry="11.478649"
     id="rect1-5" />
  <path
     style="fill:#ffffff;stroke-width:0.898184"
     d="m 40.981831,17.63065 c 0,0 -7.185321,0 -7.185321,7.185321 v 7.185321 h -5.388991 v 7.185322 h 5.388991 v 17.963303 h 7.185321 V 39.186614 h 6.287157 l 0.898165,-7.185322 h -7.185322 v -5.388991 c 0,-1.79633 1.796331,-1.79633 1.796331,-1.79633 h 5.388991 V 17.63065 Z"
     id="path3" />
  <path
     id="rect1-5-5"
     style="fill:none;stroke:#000000;stroke-width:0.2;stroke-dasharray:none;stroke-opacity:1;filter:url(#filter1)"
     d="M 17.201172,3.9999999 C 9.888029,3.9999999 4,9.699268 4,16.779297 V 47.220703 C 4,54.300732 9.888029,60 17.201172,60 H 34 V 40.001953 h -6 v -8 h 6 v -8 c 10e-7,-7.999828 8,-8 8,-8 h 8 v 8 h -6 c 10e-7,0 -2,4.3e-5 -2,2 v 6 h 8 l -1,8 H 42 V 60 h 4.798829 C 54.111971,60 60,54.300732 60,47.220703 V 16.779297 C 60,9.699268 54.111971,3.9999999 46.798829,3.9999999 Z"
     transform="matrix(0.89818444,0,0,0.89818444,3.2580982,3.2580982)" />
</svg>
