<?xml version="1.0" encoding="UTF-8" standalone="no"?>
<svg
   width="64"
   height="64"
   version="1.1"
   id="svg5"
   sodipodi:docname="caprine.svg"
   xml:space="preserve"
   inkscape:version="1.3.2 (091e20ef0f, 2023-11-25, custom)"
   xmlns:inkscape="http://www.inkscape.org/namespaces/inkscape"
   xmlns:sodipodi="http://sodipodi.sourceforge.net/DTD/sodipodi-0.dtd"
   xmlns="http://www.w3.org/2000/svg"
   xmlns:svg="http://www.w3.org/2000/svg"><defs
     id="defs5"><radialGradient
       id="a"
       cx="101.87804"
       cy="809.28058"
       r="1.1"
       gradientTransform="matrix(0,-62.146356,-62.146013,0,50300.023,6389.0966)"
       gradientUnits="userSpaceOnUse"
       fx="101.87804"
       fy="809.28058"><stop
         offset="0"
         style="stop-color:#00d3ff;stop-opacity:1;"
         id="stop1" /><stop
         offset="1"
         style="stop-color:#ff21eb;stop-opacity:1;"
         id="stop4" /></radialGradient><radialGradient
       id="a-5"
       cx="101.9"
       cy="809"
       r="1.1"
       gradientTransform="matrix(58.865074,0,0,-58.865074,-5985.9237,47683.277)"
       gradientUnits="userSpaceOnUse"><stop
         offset="0"
         style="stop-color:#0057ff;stop-opacity:1;"
         id="stop1-3" /><stop
         offset="1"
         style="stop-color:#61e1ff;stop-opacity:1;"
         id="stop4-5" /></radialGradient><radialGradient
       id="a-0"
       cx="101.9"
       cy="809"
       r="1.1"
       gradientTransform="matrix(57.098952,0,0,-57.098952,-5805.3686,46253.601)"
       gradientUnits="userSpaceOnUse"><stop
         offset="0"
         style="stop-color:#0057ff;stop-opacity:1;"
         id="stop1-36" /><stop
         offset="1"
         style="stop-color:#61e1ff;stop-opacity:1;"
         id="stop4-1" /></radialGradient><filter
       inkscape:collect="always"
       style="color-interpolation-filters:sRGB"
       id="filter2"
       x="-0.1215992"
       y="-0.12159586"
       width="1.2431984"
       height="1.2431795"><feGaussianBlur
         inkscape:collect="always"
         stdDeviation="2.7323697"
         id="feGaussianBlur2" /></filter><filter
       inkscape:collect="always"
       style="color-interpolation-filters:sRGB"
       id="filter3"
       x="-0.067091894"
       y="-0.12485633"
       width="1.1341869"
       height="1.2497147"><feGaussianBlur
         inkscape:collect="always"
         stdDeviation="0.92547093"
         id="feGaussianBlur3" /></filter></defs><sodipodi:namedview
     id="namedview5"
     pagecolor="#ffffff"
     bordercolor="#000000"
     borderopacity="0.25"
     inkscape:showpageshadow="2"
     inkscape:pageopacity="0.0"
     inkscape:pagecheckerboard="0"
     inkscape:deskcolor="#d1d1d1"
     inkscape:zoom="8.9382717"
     inkscape:cx="21.536602"
     inkscape:cy="34.906077"
     inkscape:window-width="1920"
     inkscape:window-height="1020"
     inkscape:window-x="0"
     inkscape:window-y="0"
     inkscape:window-maximized="1"
     inkscape:current-layer="svg5" /><path
     fill="url(#a)"
     d="m 32,6.3768558 c -14.431821,0 -25.6224057,10.5756482 -25.6224057,24.8537342 0,7.468931 3.061878,13.925776 8.0454357,18.384075 0.416364,0.371526 0.672589,0.896784 0.685399,1.460477 l 0.140924,4.560788 a 2.0497924,2.0497924 0 0 0 2.876115,1.812786 l 5.086046,-2.241961 c 0.429176,-0.192169 0.916001,-0.224195 1.370799,-0.102489 2.338045,0.640559 4.823418,0.986461 7.417687,0.986461 14.43182,0 25.622406,-10.575647 25.622406,-24.853732 C 57.622406,16.958909 46.43182,6.3768558 32,6.3768558 Z"
     id="path4-3"
     style="fill:url(#a);stroke-width:0.064056" /><path
     fill="#ffffff"
     d="m 16.612044,38.501236 7.526581,-11.940041 a 3.8433608,3.8433608 0 0 1 5.560062,-1.024897 l 5.989238,4.490327 a 1.5373443,1.5373443 0 0 0 1.851218,-0.0064 l 8.083869,-6.136566 c 1.076141,-0.819918 2.485374,0.474014 1.767947,1.620617 L 39.857972,37.43796 A 3.8433608,3.8433608 0 0 1 34.29791,38.462856 L 28.308671,33.97253 a 1.5373443,1.5373443 0 0 0 -1.851217,0.0064 l -8.08387,6.136566 c -1.07614,0.819917 -2.485373,-0.467608 -1.76154,-1.614211 z"
     id="path5-6-7"
     style="stroke-width:0.064056" /><path
     fill="url(#a)"
     d="m 32,3.4497398 c -16.080493,0 -28.549477,11.7837972 -28.549477,27.6929932 0,8.322172 3.411663,15.51664 8.964536,20.484249 0.463929,0.413968 0.749424,0.999232 0.763698,1.62732 l 0.157023,5.081807 a 2.2839581,2.2839581 0 0 0 3.204678,2.019876 l 5.667071,-2.49808 c 0.478204,-0.214121 1.020644,-0.249807 1.527397,-0.114197 2.60514,0.713736 5.374439,1.099154 8.265074,1.099154 16.080493,0 28.549477,-11.783796 28.549477,-27.692992 C 60.549477,15.240674 48.080493,3.4497398 32,3.4497398 Z"
     id="path4-3-0"
     style="fill:none;stroke:#000000;stroke-width:0.771;stroke-dasharray:none;stroke-opacity:1;filter:url(#filter2)"
     transform="matrix(0.89747373,0,0,0.89747373,3.2808406,3.2808049)" /><path
     fill="#ffffff"
     d="m 14.853956,39.243903 8.386409,-13.304057 a 4.2824215,4.2824215 0 0 1 6.195236,-1.141979 l 6.673441,5.003296 a 1.7129686,1.7129686 0 0 0 2.062699,-0.0071 l 9.00736,-6.8376 c 1.199078,-0.913583 2.7693,0.528165 1.969914,1.805754 l -8.393546,13.296919 a 4.2824215,4.2824215 0 0 1 -6.195236,1.141979 L 27.886792,34.19782 a 1.7129686,1.7129686 0 0 0 -2.062699,0.0071 l -9.00736,6.8376 c -1.199078,0.913583 -2.7693,-0.521028 -1.962777,-1.798617 z"
     id="path5-6-7-6"
     style="opacity:1;mix-blend-mode:normal;fill:none;stroke:#0024ff;stroke-width:0.22284775;stroke-dasharray:none;stroke-opacity:1;filter:url(#filter3)"
     transform="matrix(0.89747373,0,0,0.89747373,3.2808406,3.2808049)" /></svg>
