<?xml version="1.0" encoding="UTF-8" standalone="no"?>
<svg
   width="64"
   height="64"
   version="1"
   id="svg5"
   sodipodi:docname="appimagekit-github-desktop.svg"
   inkscape:version="1.3.2 (091e20ef0f, 2023-11-25, custom)"
   xmlns:inkscape="http://www.inkscape.org/namespaces/inkscape"
   xmlns:sodipodi="http://sodipodi.sourceforge.net/DTD/sodipodi-0.dtd"
   xmlns:xlink="http://www.w3.org/1999/xlink"
   xmlns="http://www.w3.org/2000/svg"
   xmlns:svg="http://www.w3.org/2000/svg">
  <defs
     id="defs5">
    <inkscape:path-effect
       effect="fillet_chamfer"
       id="path-effect7"
       is_visible="true"
       lpeversion="1"
       nodesatellites_param="F,0,0,1,0,0,0,1 @ F,0,1,1,0,1.7140985,0,1 @ F,0,0,1,0,0,0,1 @ F,0,1,1,0,1.7140985,0,1 @ F,0,0,1,0,0,0,1 @ F,0,0,1,0,0,0,1 @ F,0,1,1,0,1.7140985,0,1 @ F,0,0,1,0,0,0,1 @ F,0,0,1,0,2.2302803,0,1 @ F,0,0,1,0,1.5369524,0,1 @ F,0,0,1,0,0,0,1 @ F,0,0,1,0,0,0,1 @ F,0,0,1,0,0,0,1 @ F,0,0,1,0,0,0,1 @ F,0,0,1,0,1.5369524,0,1 @ F,0,0,1,0,0,0,1 @ F,0,0,1,0,0,0,1 @ F,0,0,1,0,0,0,1 @ F,0,0,1,0,0,0,1 @ F,0,0,1,0,2.2302803,0,1 @ F,0,0,1,0,0,0,1 @ F,0,0,1,0,1.7140985,0,1 @ F,0,0,1,0,0,0,1 @ F,0,0,1,0,0,0,1"
       radius="0"
       unit="px"
       method="auto"
       mode="F"
       chamfer_steps="1"
       flexible="false"
       use_knot_distance="true"
       apply_no_radius="true"
       apply_with_radius="true"
       only_selected="false"
       hide_knots="false" />
    <linearGradient
       id="linearGradient6"
       inkscape:collect="always">
      <stop
         style="stop-color:#995bff;stop-opacity:1;"
         offset="0"
         id="stop6" />
      <stop
         style="stop-color:#e85fff;stop-opacity:1;"
         offset="1"
         id="stop7" />
    </linearGradient>
    <radialGradient
       inkscape:collect="always"
       xlink:href="#linearGradient6"
       id="radialGradient7"
       cx="2.9114175"
       cy="49.279945"
       fx="2.9114175"
       fy="49.279945"
       r="27.999201"
       gradientUnits="userSpaceOnUse"
       gradientTransform="matrix(2.9157277,0,0,2.9157274,-8.3360016,-80.142446)" />
    <inkscape:path-effect
       effect="fillet_chamfer"
       id="path-effect7-3"
       is_visible="true"
       lpeversion="1"
       nodesatellites_param="F,0,0,1,0,0,0,1 @ F,0,1,1,0,1.7140985,0,1 @ F,0,0,1,0,0,0,1 @ F,0,1,1,0,1.7140985,0,1 @ F,0,0,1,0,0,0,1 @ F,0,0,1,0,0,0,1 @ F,0,1,1,0,1.7140985,0,1 @ F,0,0,1,0,0,0,1 @ F,0,0,1,0,2.2302803,0,1 @ F,0,0,1,0,1.5369524,0,1 @ F,0,0,1,0,0,0,1 @ F,0,0,1,0,0,0,1 @ F,0,0,1,0,0,0,1 @ F,0,0,1,0,0,0,1 @ F,0,0,1,0,1.5369524,0,1 @ F,0,0,1,0,0,0,1 @ F,0,0,1,0,0,0,1 @ F,0,0,1,0,0,0,1 @ F,0,0,1,0,0,0,1 @ F,0,0,1,0,2.2302803,0,1 @ F,0,0,1,0,0,0,1 @ F,0,0,1,0,1.7140985,0,1 @ F,0,0,1,0,0,0,1 @ F,0,0,1,0,0,0,1"
       radius="0"
       unit="px"
       method="auto"
       mode="F"
       chamfer_steps="1"
       flexible="false"
       use_knot_distance="true"
       apply_no_radius="true"
       apply_with_radius="true"
       only_selected="false"
       hide_knots="false" />
    <filter
       inkscape:collect="always"
       style="color-interpolation-filters:sRGB"
       id="filter4"
       x="-0.09173566"
       y="-0.091735585"
       width="1.1834713"
       height="1.1834712">
      <feGaussianBlur
         inkscape:collect="always"
         stdDeviation="2.1044655"
         id="feGaussianBlur4" />
    </filter>
  </defs>
  <sodipodi:namedview
     id="namedview5"
     pagecolor="#ffffff"
     bordercolor="#000000"
     borderopacity="0.25"
     inkscape:showpageshadow="2"
     inkscape:pageopacity="0.0"
     inkscape:pagecheckerboard="0"
     inkscape:deskcolor="#d1d1d1"
     inkscape:zoom="14.40625"
     inkscape:cx="29.119306"
     inkscape:cy="32.381779"
     inkscape:window-width="1920"
     inkscape:window-height="1010"
     inkscape:window-x="0"
     inkscape:window-y="0"
     inkscape:window-maximized="1"
     inkscape:current-layer="svg5" />
  <path
     style="fill:url(#radialGradient7);stroke-width:0.956243"
     d="M 58.772123,32.003169 C 58.772123,17.17035 46.8309,5.229128 31.998081,5.229128 17.165262,5.229128 5.22404,17.17035 5.22404,32.003169 c 0,14.832819 11.941222,26.774041 26.774041,26.774041 14.832819,0 26.774042,-11.941222 26.774042,-26.774041 z"
     id="path2" />
  <path
     style="fill:#ffffff"
     d="m 46.820312,18.005859 c -0.737669,-0.03445 -2.636059,0.174196 -5.567219,1.924468 -0.812558,0.485201 -2.173794,0.703685 -3.102336,0.521298 C 36.484124,20.124258 34.680441,19.995502 32.820312,20 c -1.737697,0.0042 -3.524256,0.113446 -5.293337,0.459444 -0.928713,0.181638 -2.292048,-0.04286 -3.097876,-0.539448 -2.823991,-1.740266 -4.356238,-1.946913 -5.093161,-1.912184 -0.284391,0.0134 -0.421876,0.05664 -0.421876,0.05664 -0.873685,2.266463 -0.874082,4.171888 -0.680984,5.464935 0.139515,0.934234 -0.09956,2.22291 -0.606896,3.020925 C 16.586728,28.185322 16,30.132959 16,32.400391 c 0,9.021572 5.116352,11.915676 10.294821,12.952456 1.207458,0.241744 1.493543,1.108064 1.138715,2.272527 -0.03558,0.116755 -0.06943,0.236912 -0.101577,0.36026 -0.214003,0.821048 -0.910279,1.817676 -1.718546,2.075096 -1.868637,0.595133 -4.624126,0.834032 -6.408335,-2.302918 0,0 -1.383047,-2.583643 -4.013672,-2.773437 0,0 -2.557376,-0.03303 -0.177734,1.634766 0,0 1.71789,0.827754 2.910156,3.935547 0,0 1.520769,4.063018 7.546441,3.364551 0.842729,-0.09768 1.51783,0.429024 1.520874,1.277854 0.0045,1.246976 0.0086,2.817741 0.01276,4.353688 C 28.6249,59.840571 30.293171,60 32,60 c 2.781923,0 5.46329,-0.40752 7.996094,-1.15625 0.0075,-2.775016 0.01563,-6.052158 0.01563,-8.1875 0,-1.291125 -0.274748,-2.352599 -0.66954,-3.192028 -0.520663,-1.107061 -0.310581,-1.885133 0.896442,-2.128803 C 45.316689,44.310279 50,41.434386 50,32.400391 c 0,-2.262883 -0.485047,-4.208425 -1.476499,-5.841935 -0.49049,-0.808127 -0.73289,-2.097194 -0.594109,-3.031664 0.191946,-1.292448 0.190117,-3.196593 -0.685251,-5.462339 0,0 -0.137824,-0.04533 -0.421875,-0.05859 z"
     id="path5"
     inkscape:path-effect="#path-effect7"
     inkscape:original-d="m 46.820312,18.005859 c -0.852136,-0.0398 -3.253167,0.244804 -7.005859,2.855469 C 37.715081,20.228289 35.318606,19.993959 32.820312,20 c -2.285448,0.0055 -4.655418,0.192771 -6.958984,0.861328 -3.753893,-2.610525 -5.672415,-2.893714 -6.52539,-2.853516 -0.284391,0.0134 -0.421876,0.05664 -0.421876,0.05664 -1.427098,3.702095 -0.524199,6.440914 -0.253906,7.121094 C 16.983684,27.064713 16,29.464475 16,32.400391 c 0,10.307306 6.678613,12.616141 12.498047,13.294921 -0.748139,0.672081 -1.218917,2.061678 -1.457031,3.798829 -1.493057,0.68858 -5.498204,2.373814 -7.835938,-1.736329 0,0 -1.383047,-2.583643 -4.013672,-2.773437 0,0 -2.557376,-0.03303 -0.177734,1.634766 0,0 1.71789,0.827754 2.910156,3.935547 0,0 1.770575,4.730421 9.060547,3.105468 0.0073,1.262052 0.01333,3.614568 0.01953,5.890625 C 28.6249,59.840571 30.293171,60 32,60 c 2.781923,0 5.46329,-0.40752 7.996094,-1.15625 0.0075,-2.775016 0.01563,-6.052158 0.01563,-8.1875 0,-2.508329 -1.03697,-4.149893 -1.976563,-4.980469 C 43.872189,45.01032 50,42.734096 50,32.400391 c 0,-2.935916 -0.816482,-5.337651 -2.496094,-7.216797 0.268692,-0.68034 1.170535,-3.417046 -0.259765,-7.119141 0,0 -0.137824,-0.04533 -0.421875,-0.05859 z"
     transform="matrix(0.95624306,0,0,0.95624306,1.3990684,1.4285104)" />
  <path
     id="path3"
     style="color:#000000;mix-blend-mode:normal;fill:#000000;filter:url(#filter4);fill-opacity:1;stroke:#000000;stroke-opacity:1;stroke-width:0.20915186;stroke-dasharray:none"
     d="M 31.966797,3.9550781 C 16.404391,3.9582805 3.875,16.491517 3.875,32.054688 c 0,13.823828 9.88746,25.246314 23.003906,27.630859 v 0.002 l 0.08203,0.01367 0.0059,0.002 c 0.01166,0.0021 0.02349,0.0038 0.03516,0.0059 l 0.07617,0.01367 v -0.002 c 0.343255,0.05975 0.688241,0.116108 1.035156,0.164063 v -0.002 c 0.0843,0.01166 0.169375,0.02031 0.253907,0.03125 v 0.002 h 0.002 c 0.323189,0.04176 0.649074,0.08036 0.976562,0.111328 v -0.002 c 0.193661,0.01833 0.389169,0.03053 0.583985,0.04492 0.226668,0.01615 0.455674,0.03594 0.6875,0.04688 0.449787,0.02211 0.901971,0.03516 1.357421,0.03516 0.431579,0 0.860484,-0.01391 1.28711,-0.0332 0.13227,-0.0059 0.263922,-0.01384 0.394531,-0.02148 0.309551,-0.01833 0.617137,-0.04205 0.923828,-0.07031 v 0.002 c 0.127373,-0.01162 0.255255,-0.02156 0.384766,-0.03516 v -0.002 c 0.395289,-0.04187 0.787612,-0.09043 1.177734,-0.148438 v 0.002 h 0.002 c 0.02445,-0.0036 0.04796,-0.0079 0.07227,-0.01172 0.146588,-0.02294 0.291716,-0.04834 0.435547,-0.07227 v -0.002 c 0.208139,-0.03486 0.416505,-0.07001 0.623047,-0.109375 0.240504,-0.04583 0.480482,-0.09268 0.71875,-0.144532 v -0.002 c 0.112513,-0.02449 0.223935,-0.05036 0.335937,-0.07617 0.01511,-0.0035 0.02982,-0.0082 0.04492,-0.01172 0.503817,-0.116984 1.003105,-0.245451 1.496094,-0.388672 v 0.0039 L 40,58.992188 l 0.07031,-0.02148 c 11.594271,-3.460995 20.001954,-14.168747 20.001954,-26.916015 0,-15.565168 -12.53444,-28.0996099 -28.09961,-28.0996099 z m 0.0059,0.1992188 h 0.0039 c 15.455979,0.00213 27.896485,12.4438971 27.896485,27.9003911 0,12.636785 -8.323144,23.241598 -19.802735,26.697265 0.0074,-2.74294 0.01563,-5.945077 0.01563,-8.042969 0,-0.652662 -0.06965,-1.248256 -0.189454,-1.787109 -0.119798,-0.538852 -0.289741,-1.020967 -0.490234,-1.447266 -0.254285,-0.540674 -0.318984,-0.985656 -0.195312,-1.310547 0.123672,-0.324889 0.437111,-0.559763 1.021484,-0.677734 2.550961,-0.514978 5.014962,-1.496617 6.839844,-3.49414 0.22811,-0.249691 0.445511,-0.514621 0.652343,-0.796876 0.206833,-0.282254 0.402451,-0.581597 0.585938,-0.898437 0.183487,-0.31684 0.355597,-0.652413 0.513672,-1.005859 0.158074,-0.353446 0.302999,-0.725115 0.433593,-1.117188 0.130595,-0.392072 0.24661,-0.803609 0.347657,-1.236328 0.101047,-0.432719 0.186427,-0.885941 0.255859,-1.361328 0.06943,-0.475387 0.122454,-0.974066 0.158203,-1.494141 0.03575,-0.520074 0.05469,-1.062123 0.05469,-1.628906 0,-0.284646 -0.0081,-0.564926 -0.02344,-0.839844 -0.107112,-1.924427 -0.589859,-3.609852 -1.466797,-5.054687 -0.118398,-0.195072 -0.221516,-0.420383 -0.308593,-0.664063 -0.08708,-0.243679 -0.157679,-0.506425 -0.208985,-0.771484 -0.05131,-0.265059 -0.08462,-0.533758 -0.0957,-0.792969 -0.01109,-0.259211 -3.81e-4,-0.50824 0.0332,-0.734375 0.04852,-0.326668 0.08446,-0.69202 0.09766,-1.091797 0.03297,-0.998988 -0.07784,-2.214443 -0.498046,-3.582031 -1.75e-4,-5.68e-4 1.74e-4,-0.0014 0,-0.002 -0.08413,-0.27367 -0.180749,-0.552483 -0.291016,-0.837891 l -0.01758,-0.04492 -0.04492,-0.01563 c 0,0 -0.156069,-0.04882 -0.449219,-0.0625 h -0.002 -0.0039 c -0.191511,-0.0088 -0.454223,-0.0019 -0.78711,0.04102 -0.332887,0.04294 -0.736368,0.121011 -1.207031,0.255859 -0.941324,0.269696 -2.154182,0.764315 -3.625,1.642579 -0.195431,0.116697 -0.426878,0.217366 -0.677734,0.300781 -0.250856,0.08342 -0.520848,0.149772 -0.794922,0.195312 -0.274074,0.04554 -0.551319,0.07114 -0.816406,0.07422 -0.265088,0.0031 -0.518293,-0.01657 -0.742188,-0.06055 -1.675091,-0.329028 -3.484661,-0.459588 -5.349609,-0.455078 -1.741774,0.0042 -3.534925,0.115231 -5.3125,0.462891 -0.223814,0.04377 -0.476911,0.06272 -0.742188,0.05859 -0.265276,-0.0041 -0.542343,-0.03085 -0.816406,-0.07813 -0.274063,-0.04728 -0.544749,-0.1155 -0.794922,-0.201172 -0.250172,-0.08567 -0.480222,-0.189284 -0.673828,-0.308593 -2.126036,-1.310156 -3.531101,-1.757614 -4.421875,-1.884766 -0.296924,-0.04238 -0.53605,-0.04999 -0.726562,-0.04102 -0.29298,0.0138 -0.447266,0.06055 -0.447266,0.06055 l -0.04687,0.01563 -0.01758,0.04492 c -0.660329,1.712987 -0.827556,3.224031 -0.78711,4.423828 0.01348,0.399933 0.0508,0.764975 0.09961,1.091797 0.03376,0.2261 0.04416,0.475196 0.0332,0.734375 -0.01096,0.25918 -0.04384,0.528409 -0.0957,0.792969 -0.05186,0.26456 -0.121992,0.525337 -0.210938,0.767578 -0.08895,0.242241 -0.196154,0.46598 -0.318359,0.658203 -1.049614,1.650992 -1.640625,3.617703 -1.640625,5.902344 0,0.56621 0.01956,1.109181 0.05859,1.628906 0.03903,0.519725 0.09823,1.016955 0.173828,1.492188 0.0756,0.475233 0.167643,0.928594 0.277344,1.361328 0.1097,0.432734 0.235615,0.8441 0.376953,1.236328 0.141338,0.392228 0.298239,0.765426 0.46875,1.119141 0.170511,0.353714 0.355515,0.688665 0.552734,1.005859 0.197219,0.317194 0.407444,0.615772 0.628906,0.898437 0.221463,0.282666 0.454025,0.548698 0.697266,0.798829 1.945928,2.001046 4.540048,2.989105 7.140625,3.509765 0.582647,0.116652 0.920302,0.37355 1.083984,0.734375 0.163684,0.360826 0.151724,0.843668 -0.02148,1.41211 -0.03596,0.118013 -0.07101,0.238592 -0.103516,0.363281 -0.05141,0.197234 -0.132555,0.406984 -0.238281,0.613281 -0.105726,0.206297 -0.236178,0.409266 -0.382812,0.595703 -0.293269,0.372874 -0.6548,0.676982 -1.03125,0.796875 -0.462217,0.147209 -0.977737,0.271813 -1.517579,0.328125 -0.26992,0.02816 -0.545656,0.03912 -0.824218,0.02734 -0.278563,-0.01178 -0.559816,-0.04619 -0.839844,-0.109375 -1.119744,-0.252646 -2.226933,-0.954719 -3.107422,-2.501953 v -0.002 c -8.12e-4,-0.0015 -0.547599,-1.028271 -1.615234,-1.845703 C 17.438817,45.752529 17.204153,45.597781 16.949219,45.460938 16.439351,45.187251 15.84679,44.986053 15.173828,44.9375 h -0.0039 -0.002 c 0,0 -0.165912,-0.0022 -0.375,0.02148 -0.209088,0.0237 -0.463287,0.06945 -0.658203,0.183594 -0.09746,0.05707 -0.183725,0.134424 -0.228516,0.240234 -0.04479,0.105812 -0.04121,0.233331 0.01367,0.367188 0.05488,0.133857 0.158265,0.278559 0.322266,0.443359 0.164,0.164801 0.388615,0.349702 0.689453,0.560547 l 0.0059,0.0039 0.0078,0.0039 c 0,0 0.409179,0.195273 0.978516,0.78125 0.427003,0.439482 0.939245,1.095652 1.417969,2.046875 0.159575,0.317074 0.31503,0.667318 0.462891,1.052734 0,0 0.0977,0.260131 0.339843,0.638672 0.121073,0.18927 0.277694,0.408189 0.476563,0.638672 0.198868,0.230483 0.440344,0.472903 0.728515,0.708984 1.152685,0.944325 3.071605,1.795257 6.107422,1.44336 0.397935,-0.04612 0.748769,0.05513 1,0.261718 0.251233,0.206588 0.406776,0.517986 0.408203,0.916016 0.0044,1.210015 0.0096,2.732483 0.01367,4.224609 C 13.875101,57.091492 4.0742188,45.769412 4.0742188,32.054688 4.0742188,16.59686 16.514836,4.1542969 31.972656,4.1542969 Z m 14.81836,14.0039061 h 0.002 c 0.240823,0.01124 0.319074,0.03892 0.345703,0.04687 0.42316,1.111305 0.636465,2.133492 0.720703,3.03711 0.04212,0.451808 0.05156,0.875472 0.03906,1.263671 -0.0125,0.3882 -0.0467,0.741796 -0.09375,1.058594 -0.03581,0.241098 -0.0477,0.502953 -0.03711,0.773438 0.01059,0.270484 0.04449,0.54929 0.09766,0.824218 0.05317,0.274929 0.126832,0.546351 0.21875,0.800782 0.09192,0.25443 0.20128,0.492182 0.328125,0.701171 0.490342,0.807885 0.856473,1.69203 1.09961,2.65625 1.54e-4,6.13e-4 -1.55e-4,0.0013 0,0.002 0.121337,0.48155 0.212984,0.984625 0.273437,1.505859 0.06053,0.521895 0.08984,1.062855 0.08984,1.625 0,0.562462 -0.0174,1.10014 -0.05273,1.615234 -0.03501,0.510313 -0.08668,0.998898 -0.154297,1.464844 -5.58e-4,0.0038 -0.0014,0.0079 -0.002,0.01172 -9e-5,6.14e-4 8.9e-5,0.0013 0,0.002 -7.72e-4,0.0053 -0.0012,0.01034 -0.002,0.01563 -0.06813,0.464001 -0.15345,0.906145 -0.251953,1.328125 -0.09965,0.426886 -0.213175,0.832706 -0.341797,1.21875 -0.128621,0.386044 -0.27226,0.752231 -0.427734,1.099609 -0.155474,0.347379 -0.3237,0.675441 -0.503906,0.986328 -0.180206,0.310888 -0.371402,0.604287 -0.574219,0.88086 -0.202817,0.276572 -0.417318,0.536817 -0.640625,0.78125 -0.669921,0.733298 -1.428245,1.327048 -2.248047,1.810547 -0.546534,0.322332 -1.120067,0.596124 -1.71289,0.828125 -0.889236,0.348001 -1.821874,0.603612 -2.769532,0.794922 -0.155661,0.03142 -0.296913,0.07134 -0.423828,0.121093 -0.25383,0.0995 -0.449524,0.235749 -0.585937,0.404297 -0.06821,0.08427 -0.121912,0.176874 -0.160156,0.277344 -0.152979,0.401879 -0.06325,0.900413 0.203124,1.466797 0.194299,0.413128 0.360099,0.880085 0.476563,1.404297 1.41e-4,6.36e-4 -1.41e-4,0.0013 0,0.002 0.11622,0.52374 0.183594,1.104462 0.183594,1.742187 0,2.1142 -0.0082,5.350003 -0.01563,8.107422 -0.08864,0.02596 -0.17858,0.04909 -0.267578,0.07422 -0.360914,0.10141 -0.724932,0.195713 -1.091797,0.283203 -1.162445,0.279021 -2.351935,0.49121 -3.566407,0.621094 -0.12577,0.01334 -0.255411,0.02323 -0.384765,0.03516 -0.304038,0.02827 -0.609092,0.04999 -0.916016,0.06836 -0.130881,0.0077 -0.260429,0.01563 -0.390625,0.02148 -0.424127,0.01942 -0.850064,0.0332 -1.279297,0.0332 -1.672561,0 -3.306057,-0.159621 -4.896484,-0.439453 -0.0041,-1.505529 -0.0093,-3.042399 -0.01367,-4.263672 -0.0016,-0.450798 -0.183379,-0.826016 -0.480469,-1.070312 -0.297088,-0.244296 -0.705599,-0.358197 -1.15039,-0.306641 -2.989836,0.346568 -4.842699,-0.485532 -5.957032,-1.398438 -0.278582,-0.228226 -0.509777,-0.460503 -0.701171,-0.68164 -0.191395,-0.221137 -0.343084,-0.430592 -0.458985,-0.611328 -0.231802,-0.361473 -0.324218,-0.609375 -0.324218,-0.609375 -0.150205,-0.391529 -0.308093,-0.747158 -0.470704,-1.070313 -0.48783,-0.969464 -1.01237,-1.644021 -1.453125,-2.097656 -0.574485,-0.591276 -1.003874,-0.804832 -1.023437,-0.814453 -0.294071,-0.206103 -0.508812,-0.386468 -0.660156,-0.539063 -0.151344,-0.152595 -0.239292,-0.27742 -0.279297,-0.375 -0.04,-0.09758 -0.03619,-0.161655 -0.01367,-0.214843 0.02252,-0.05319 0.06909,-0.10345 0.142578,-0.146485 0.146971,-0.08607 0.384023,-0.134026 0.580078,-0.15625 0.192782,-0.02185 0.338731,-0.02154 0.34375,-0.02148 h 0.002 c 0.641711,0.04662 1.208354,0.240099 1.697266,0.503906 0.244456,0.131903 0.470479,0.281858 0.675781,0.439453 1.026513,0.787975 1.558594,1.777344 1.558594,1.777344 v 0.002 c 0.903574,1.58864 2.067506,2.337403 3.238281,2.601563 0.292694,0.06604 0.585536,0.102796 0.875,0.115234 0.289464,0.01244 0.576522,-3.31e-4 0.855469,-0.0293 0.557893,-0.05793 1.086494,-0.185583 1.558594,-0.335937 0.431813,-0.137526 0.822273,-0.459875 1.132812,-0.855469 0.15527,-0.197798 0.29008,-0.41503 0.400391,-0.634766 0.110311,-0.219736 0.19636,-0.442961 0.251953,-0.65625 0.0318,-0.122005 0.06441,-0.239972 0.09961,-0.355469 0.181616,-0.596017 0.204213,-1.128394 0.01172,-1.552734 -0.192495,-0.42434 -0.601755,-0.722563 -1.226563,-0.847656 -2.577875,-0.516117 -5.1302,-1.494156 -7.037109,-3.455078 -0.238364,-0.245116 -0.466347,-0.506165 -0.683594,-0.783204 -0.217246,-0.277038 -0.423538,-0.56972 -0.617187,-0.880859 -0.193649,-0.311139 -0.375396,-0.640864 -0.542969,-0.988281 -0.167573,-0.347417 -0.32192,-0.713735 -0.460937,-1.09961 -0.139018,-0.385874 -0.263112,-0.790287 -0.371094,-1.216796 -0.107982,-0.42651 -0.19897,-0.874428 -0.273438,-1.34375 -0.07447,-0.469323 -0.131448,-0.960296 -0.169922,-1.47461 -0.03847,-0.514313 -0.05859,-1.051798 -0.05859,-1.613281 0,-0.281276 0.0095,-0.556902 0.02734,-0.828125 0.125105,-1.898562 0.681405,-3.552109 1.582032,-4.96875 0.131462,-0.206784 0.245536,-0.442186 0.339844,-0.695312 0.09431,-0.253127 0.168642,-0.524549 0.222656,-0.798829 0.05401,-0.27428 0.08708,-0.552022 0.09766,-0.822265 0.01058,-0.270243 -0.0011,-0.532421 -0.03711,-0.773438 -0.04733,-0.316942 -0.08291,-0.672193 -0.0957,-1.060547 -0.0064,-0.194176 -0.006,-0.396853 0,-0.607421 0.02999,-1.052842 0.229884,-2.303781 0.757812,-3.69336 0.02753,-0.0078 0.105322,-0.0336 0.345703,-0.04492 0.177947,-0.0084 0.405781,-0.0019 0.691406,0.03906 0.856877,0.122895 2.233813,0.559139 4.34375,1.859375 0.209307,0.128984 0.451452,0.239373 0.712891,0.330078 0.261439,0.0907 0.54215,0.16233 0.826172,0.210937 0.284022,0.04861 0.572553,0.07543 0.849609,0.07813 0.277056,0.0027 0.542662,-0.01936 0.783203,-0.06641 1.760578,-0.344335 3.539829,-0.454794 5.273438,-0.458984 1.855298,-0.0045 3.652382,0.125468 5.310547,0.451172 0.240375,0.04722 0.506659,0.0682 0.783203,0.06641 0.276544,-0.0018 0.563977,-0.02724 0.847656,-0.07422 0.283679,-0.04698 0.562439,-0.114776 0.824219,-0.203125 0.261779,-0.08835 0.50595,-0.196365 0.716797,-0.322266 2.188384,-1.30674 3.796872,-1.748291 4.763672,-1.873046 0.322266,-0.04159 0.572309,-0.04736 0.75,-0.03906 z"
     transform="matrix(0.95624306,0,0,0.95624306,1.3990684,1.4025723)" />
</svg>
