<?xml version="1.0" encoding="UTF-8" standalone="no"?>
<svg
   width="64"
   height="64"
   version="1.1"
   id="svg8"
   sodipodi:docname="web-google-gmail-offline.svg"
   inkscape:version="1.3.2 (091e20ef0f, 2023-11-25, custom)"
   xmlns:inkscape="http://www.inkscape.org/namespaces/inkscape"
   xmlns:sodipodi="http://sodipodi.sourceforge.net/DTD/sodipodi-0.dtd"
   xmlns="http://www.w3.org/2000/svg"
   xmlns:svg="http://www.w3.org/2000/svg">
  <defs
     id="defs8">
    <inkscape:path-effect
       effect="fillet_chamfer"
       id="path-effect2"
       is_visible="true"
       lpeversion="1"
       nodesatellites_param="F,0,0,1,0,0,0,1 @ F,0,0,1,0,0,0,1 @ F,0,0,1,0,0,0,1 @ F,0,0,1,0,0,0,1 @ F,0,0,1,0,4.063637,0,1 @ F,0,0,1,0,0,0,1 @ F,0,0,1,0,0,0,1 @ F,0,0,1,0,0,0,1 @ F,0,0,1,0,0,0,1"
       radius="0"
       unit="px"
       method="auto"
       mode="F"
       chamfer_steps="1"
       flexible="false"
       use_knot_distance="true"
       apply_no_radius="true"
       apply_with_radius="true"
       only_selected="false"
       hide_knots="false" />
    <inkscape:path-effect
       effect="fillet_chamfer"
       id="path-effect1"
       is_visible="true"
       lpeversion="1"
       nodesatellites_param="F,0,0,1,0,0,0,1 @ F,0,0,1,0,0,0,1 @ F,0,0,1,0,0,0,1 @ F,0,0,1,0,0,0,1 @ F,0,0,1,0,4.063637,0,1 @ F,0,0,1,0,0,0,1 @ F,0,0,1,0,0,0,1 @ F,0,0,1,0,0,0,1 @ F,0,0,1,0,0,0,1"
       radius="0"
       unit="px"
       method="auto"
       mode="F"
       chamfer_steps="1"
       flexible="false"
       use_knot_distance="true"
       apply_no_radius="true"
       apply_with_radius="true"
       only_selected="false"
       hide_knots="false" />
    <inkscape:path-effect
       effect="fillet_chamfer"
       id="path-effect3"
       is_visible="true"
       lpeversion="1"
       nodesatellites_param="F,0,0,1,0,0,0,1 @ F,0,0,1,0,0,0,1 @ F,0,1,1,0,8.3369448,0,1 @ F,0,0,1,0,0,0,1 @ F,0,0,1,0,0,0,1 @ F,0,0,1,0,0.8213523,0,1"
       radius="0"
       unit="px"
       method="auto"
       mode="F"
       chamfer_steps="1"
       flexible="false"
       use_knot_distance="true"
       apply_no_radius="true"
       apply_with_radius="true"
       only_selected="false"
       hide_knots="false" />
    <filter
       inkscape:collect="always"
       style="color-interpolation-filters:sRGB"
       id="filter3"
       x="-0.10397893"
       y="-0.13913729"
       width="1.2079641"
       height="1.2782737">
      <feGaussianBlur
         inkscape:collect="always"
         stdDeviation="2.2336041"
         id="feGaussianBlur3" />
    </filter>
    <inkscape:path-effect
       effect="fillet_chamfer"
       id="path-effect1-3"
       is_visible="true"
       lpeversion="1"
       nodesatellites_param="F,0,0,1,0,0,0,1 @ F,0,0,1,0,0,0,1 @ F,0,0,1,0,0,0,1 @ F,0,0,1,0,0,0,1 @ F,0,0,1,0,4.063637,0,1 @ F,0,0,1,0,0,0,1 @ F,0,0,1,0,0,0,1 @ F,0,0,1,0,0,0,1 @ F,0,0,1,0,0,0,1"
       radius="0"
       unit="px"
       method="auto"
       mode="F"
       chamfer_steps="1"
       flexible="false"
       use_knot_distance="true"
       apply_no_radius="true"
       apply_with_radius="true"
       only_selected="false"
       hide_knots="false" />
    <inkscape:path-effect
       effect="fillet_chamfer"
       id="path-effect3-6"
       is_visible="true"
       lpeversion="1"
       nodesatellites_param="F,0,0,1,0,0,0,1 @ F,0,0,1,0,0,0,1 @ F,0,1,1,0,8.3369448,0,1 @ F,0,0,1,0,0,0,1 @ F,0,0,1,0,0,0,1 @ F,0,0,1,0,0.8213523,0,1"
       radius="0"
       unit="px"
       method="auto"
       mode="F"
       chamfer_steps="1"
       flexible="false"
       use_knot_distance="true"
       apply_no_radius="true"
       apply_with_radius="true"
       only_selected="false"
       hide_knots="false" />
    <inkscape:path-effect
       effect="fillet_chamfer"
       id="path-effect2-7"
       is_visible="true"
       lpeversion="1"
       nodesatellites_param="F,0,0,1,0,0,0,1 @ F,0,0,1,0,0,0,1 @ F,0,0,1,0,0,0,1 @ F,0,0,1,0,0,0,1 @ F,0,0,1,0,4.063637,0,1 @ F,0,0,1,0,0,0,1 @ F,0,0,1,0,0,0,1 @ F,0,0,1,0,0,0,1 @ F,0,0,1,0,0,0,1"
       radius="0"
       unit="px"
       method="auto"
       mode="F"
       chamfer_steps="1"
       flexible="false"
       use_knot_distance="true"
       apply_no_radius="true"
       apply_with_radius="true"
       only_selected="false"
       hide_knots="false" />
  </defs>
  <sodipodi:namedview
     id="namedview8"
     pagecolor="#ffffff"
     bordercolor="#000000"
     borderopacity="0.25"
     inkscape:showpageshadow="2"
     inkscape:pageopacity="0.0"
     inkscape:pagecheckerboard="0"
     inkscape:deskcolor="#d1d1d1"
     inkscape:zoom="13.044315"
     inkscape:cx="36.835971"
     inkscape:cy="29.591436"
     inkscape:window-width="1920"
     inkscape:window-height="1020"
     inkscape:window-x="0"
     inkscape:window-y="0"
     inkscape:window-maximized="1"
     inkscape:current-layer="svg8" />
  <path
     id="path5"
     style="mix-blend-mode:normal;fill:#949494;fill-opacity:1;stroke-width:0.946537"
     d="M 11.4265,12.177824 C 6.6159708,11.971927 2.8339595,18.872211 7.9167344,22.623137 l 8.9374996,6.660156 v 0.002 l 8.458984,6.304687 a 11.188768,11.188768 0 0 0 13.371094,0 l 8.458984,-6.304687 v 0.01367 l 8.939454,-6.66211 c 5.082775,-3.750925 1.302715,-10.651209 -3.507813,-10.445312 -1.110124,0.04751 -2.274827,0.474105 -3.398437,1.404297 l -2.033204,1.486328 v -0.01172 L 32.660875,25.644621 a 1.1247941,1.1247941 0 0 1 -1.326172,0 L 16.85814,15.072355 v -0.002 l -2.035156,-1.486328 c -1.123611,-0.930192 -2.286361,-1.35873 -3.396484,-1.40625 z" />
  <path
     id="path2-5"
     style="fill:none;stroke:#000000;stroke-width:0.3;stroke-dasharray:none;stroke-opacity:1;filter:url(#filter3)"
     d="m 52.57457,12.201471 c -1.110124,0.04752 -2.274827,0.476058 -3.398437,1.40625 l -2.033204,1.486328 -14.480468,10.574219 a 1.1247941,1.1247941 0 0 1 -1.328125,0 L 16.853867,15.094049 v 0.0098 L 14.82457,13.619474 c -1.123611,-0.930192 -2.288314,-1.356787 -3.398437,-1.404297 -3.3185595,-0.142038 -6.1454248,3.096956 -5.9121088,6.351563 -0.0016,0.0352 -0.0041,0.0703 -0.00586,0.105468 v 26.191407 c 0.1952003,3.875796 3.3689514,6.939453 7.2949208,6.939453 a 4.063637,4.063637 0 0 0 4.064453,-4.064453 V 29.318659 l 8.445312,6.294922 a 11.188768,11.188768 0 0 0 13.371094,0 l 8.390625,-6.253907 v 18.369141 a 4.063637,4.063637 0 0 0 4.0625,4.064453 c 3.925971,0 7.099722,-3.063658 7.294922,-6.939453 V 19.013971 c 0.552278,-3.401547 -2.382567,-6.961228 -5.857421,-6.8125 z" />
  <path
     id="path2"
     style="mix-blend-mode:exclusion;fill:#aaaaaa;fill-opacity:1;stroke-width:0.946537"
     d="m 52.502808,12.147393 c 3.297266,-0.141127 6.108897,3.055669 5.916015,6.289063 2.36e-4,-0.0039 0.0017,-0.0078 0.002,-0.01172 l 0.0098,-0.0098 c 0.0047,0.06208 0.0067,0.12499 0.0098,0.1875 v 26.191406 c -0.1952,3.875795 -3.368951,6.939453 -7.294922,6.939453 A 4.063637,4.063637 0 0 1 47.080933,47.668878 V 29.248956 l 8.941406,-6.662109 c 0.07653,-0.05648 0.148205,-0.114016 0.220703,-0.171875 0.07552,-0.06027 0.147549,-0.121906 0.21875,-0.183594 0.07083,-0.06137 0.140405,-0.122848 0.207031,-0.185547 0.200265,-0.18846 0.381497,-0.382948 0.544922,-0.582031 0.05483,-0.06679 0.107388,-0.133339 0.158203,-0.201172 0.203408,-0.271532 0.369998,-0.552837 0.511719,-0.837891 -0.142273,0.285178 -0.30798,0.566216 -0.511719,0.837891 -0.05059,0.06745 -0.103677,0.134746 -0.158203,0.201172 -0.163578,0.199276 -0.344812,0.393424 -0.544922,0.582031 -0.0667,0.06287 -0.136149,0.12402 -0.207031,0.185547 -0.07088,0.06153 -0.14363,0.123487 -0.21875,0.183594 -0.07512,0.06011 -0.153003,0.119126 -0.232422,0.177734 l -8.929687,6.65625 -0.0098,0.0059 V 15.038018 L 49.10437,13.55169 c 1.123611,-0.930192 2.288314,-1.356777 3.398438,-1.404297 z m 5.863281,6.78125 c -0.01093,0.07001 -0.02712,0.139132 -0.04102,0.208985 0.0138,-0.0698 0.03015,-0.139012 0.04102,-0.208985 z m -0.111328,0.519532 c -0.01713,0.06462 -0.03683,0.129013 -0.05664,0.193359 0.01976,-0.06457 0.03956,-0.128506 0.05664,-0.193359 z m -0.15625,0.486328 c -0.02941,0.07829 -0.05819,0.156715 -0.0918,0.234375 0.03349,-0.07773 0.0625,-0.156003 0.0918,-0.234375 z"
     transform="matrix(-1,0,0,1,63.928589,0.03424722)" />
  <path
     id="path2-3"
     style="mix-blend-mode:exclusion;fill:#595959;fill-opacity:1;stroke-width:0.946537"
     d="m 11.35437,12.159112 c 1.110124,0.04751 2.274827,0.476058 3.398438,1.40625 l 2.033203,1.486328 v 14.140625 l 0.08984,0.06641 V 47.678646 A 4.063637,4.063637 0 0 1 12.811398,51.7431 c -3.925971,0 -7.0997221,-3.063657 -7.2949224,-6.939454 V 19.071222 c -0.6267811,-3.431288 2.3291041,-7.06229 5.8378904,-6.91211 z"
     transform="matrix(-1,0,0,1,63.928589,0.03424722)" />
</svg>
