<?xml version="1.0" encoding="UTF-8" standalone="no"?>
<svg
   width="64"
   height="64"
   version="1"
   id="svg9"
   sodipodi:docname="google-chrome-beta.svg"
   inkscape:version="1.3.2 (091e20ef0f, 2023-11-25, custom)"
   xmlns:inkscape="http://www.inkscape.org/namespaces/inkscape"
   xmlns:sodipodi="http://sodipodi.sourceforge.net/DTD/sodipodi-0.dtd"
   xmlns:xlink="http://www.w3.org/1999/xlink"
   xmlns="http://www.w3.org/2000/svg"
   xmlns:svg="http://www.w3.org/2000/svg">
  <defs
     id="defs9">
    <linearGradient
       id="linearGradient6"
       inkscape:collect="always">
      <stop
         style="stop-color:#2bffd8;stop-opacity:1;"
         offset="0"
         id="stop5" />
      <stop
         style="stop-color:#00a5ff;stop-opacity:1;"
         offset="1"
         id="stop6" />
    </linearGradient>
    <inkscape:path-effect
       effect="fillet_chamfer"
       id="path-effect1"
       is_visible="true"
       lpeversion="1"
       nodesatellites_param="F,0,1,1,0,7.2839381,0,1 @ F,0,1,1,0,7.2839381,0,1 @ F,0,0,1,0,7.2839381,0,1 @ F,0,1,1,0,7.2839381,0,1"
       radius="0"
       unit="px"
       method="auto"
       mode="F"
       chamfer_steps="1"
       flexible="false"
       use_knot_distance="true"
       apply_no_radius="true"
       apply_with_radius="true"
       only_selected="false"
       hide_knots="false" />
    <rect
       x="14.839256"
       y="37.821159"
       width="40.088468"
       height="17.609332"
       id="rect9" />
    <clipPath
       clipPathUnits="userSpaceOnUse"
       id="clipPath1">
      <path
         d="m 32.000001,5.9627538 c -14.424863,0 -26.0372472,11.6123842 -26.0372472,26.0372472 0,14.42486 11.6123842,26.037244 26.0372472,26.037244 14.42486,0 26.037244,-11.612384 26.037244,-26.037244 0,-14.424863 -11.612384,-26.0372472 -26.037244,-26.0372472 z"
         style="fill:url(#radialGradient1);stroke-width:2.36706"
         id="path1" />
    </clipPath>
    <radialGradient
       inkscape:collect="always"
       xlink:href="#linearGradient9"
       id="radialGradient1"
       gradientUnits="userSpaceOnUse"
       gradientTransform="matrix(5.956662,0,0,5.956662,-139.31925,-182.04672)"
       cx="24.407768"
       cy="40.411434"
       fx="24.407768"
       fy="40.411434"
       r="11.125" />
    <linearGradient
       id="linearGradient9"
       inkscape:collect="always">
      <stop
         style="stop-color:#2bb4ff;stop-opacity:1;"
         offset="0"
         id="stop9" />
      <stop
         style="stop-color:#0087ff;stop-opacity:1;"
         offset="1"
         id="stop10" />
    </linearGradient>
    <clipPath
       clipPathUnits="userSpaceOnUse"
       id="clipPath2">
      <path
         d="m 32.000001,5.9627538 c -14.424863,0 -26.0372472,11.6123842 -26.0372472,26.0372472 0,14.42486 11.6123842,26.037244 26.0372472,26.037244 14.42486,0 26.037244,-11.612384 26.037244,-26.037244 0,-14.424863 -11.612384,-26.0372472 -26.037244,-26.0372472 z"
         style="fill:url(#radialGradient2);stroke-width:2.36706"
         id="path2" />
    </clipPath>
    <radialGradient
       inkscape:collect="always"
       xlink:href="#linearGradient9"
       id="radialGradient2"
       gradientUnits="userSpaceOnUse"
       gradientTransform="matrix(5.956662,0,0,5.956662,-139.31925,-182.04672)"
       cx="24.407768"
       cy="40.411434"
       fx="24.407768"
       fy="40.411434"
       r="11.125" />
    <clipPath
       clipPathUnits="userSpaceOnUse"
       id="clipPath3">
      <path
         d="m 32.000001,5.9627538 c -14.424863,0 -26.0372472,11.6123842 -26.0372472,26.0372472 0,14.42486 11.6123842,26.037244 26.0372472,26.037244 14.42486,0 26.037244,-11.612384 26.037244,-26.037244 0,-14.424863 -11.612384,-26.0372472 -26.037244,-26.0372472 z"
         style="fill:url(#radialGradient3);stroke-width:2.36706"
         id="path3" />
    </clipPath>
    <radialGradient
       inkscape:collect="always"
       xlink:href="#linearGradient9"
       id="radialGradient3"
       gradientUnits="userSpaceOnUse"
       gradientTransform="matrix(5.956662,0,0,5.956662,-139.31925,-182.04672)"
       cx="24.407768"
       cy="40.411434"
       fx="24.407768"
       fy="40.411434"
       r="11.125" />
    <filter
       inkscape:collect="always"
       style="color-interpolation-filters:sRGB"
       id="filter22"
       x="-0.076345673"
       y="-0.11081288"
       width="1.153771"
       height="1.2234465">
      <feGaussianBlur
         inkscape:collect="always"
         stdDeviation="1.3680214"
         id="feGaussianBlur22" />
    </filter>
    <radialGradient
       inkscape:collect="always"
       xlink:href="#linearGradient11"
       id="radialGradient17"
       cx="26.631208"
       cy="12.710581"
       fx="26.63121"
       fy="12.710585"
       r="22.53418"
       gradientTransform="matrix(-1.1474628,1.9874632,-2.0264333,-1.1699618,82.946647,-22.617978)"
       gradientUnits="userSpaceOnUse" />
    <linearGradient
       id="linearGradient11"
       inkscape:collect="always">
      <stop
         style="stop-color:#ff5d3b;stop-opacity:1;"
         offset="0"
         id="stop11" />
      <stop
         style="stop-color:#d40909;stop-opacity:1;"
         offset="1"
         id="stop12" />
    </linearGradient>
    <filter
       inkscape:collect="always"
       style="color-interpolation-filters:sRGB"
       id="filter23"
       x="-0.090591544"
       y="-0.09227339"
       width="1.1812914"
       height="1.1806996">
      <feGaussianBlur
         inkscape:collect="always"
         stdDeviation="1.3680214"
         id="feGaussianBlur23" />
    </filter>
    <radialGradient
       inkscape:collect="always"
       xlink:href="#linearGradient1"
       id="radialGradient18"
       cx="85.668274"
       cy="17.223812"
       fx="85.668274"
       fy="17.223812"
       r="18.669922"
       gradientTransform="matrix(-1.3849617,2.3988238,-3.0206142,-1.7439524,197.30495,-160.02591)"
       gradientUnits="userSpaceOnUse" />
    <linearGradient
       id="linearGradient1"
       inkscape:collect="always">
      <stop
         style="stop-color:#1cb363;stop-opacity:1;"
         offset="0"
         id="stop3" />
      <stop
         style="stop-color:#239056;stop-opacity:1;"
         offset="1"
         id="stop4" />
    </linearGradient>
    <filter
       inkscape:collect="always"
       style="color-interpolation-filters:sRGB"
       id="filter24"
       x="-0.13850726"
       y="-0.087488786"
       width="1.2726207"
       height="1.1750935">
      <feGaussianBlur
         inkscape:collect="always"
         stdDeviation="1.3680214"
         id="feGaussianBlur24" />
    </filter>
    <radialGradient
       inkscape:collect="always"
       xlink:href="#linearGradient7"
       id="radialGradient19"
       cx="85.668251"
       cy="24.316128"
       fx="85.668251"
       fy="24.31613"
       r="12.799802"
       gradientTransform="matrix(-2.0201198,3.4989494,-3.5675559,-2.0597298,286.44046,-234.22455)"
       gradientUnits="userSpaceOnUse" />
    <linearGradient
       id="linearGradient7"
       inkscape:collect="always">
      <stop
         style="stop-color:#ffce41;stop-opacity:1;"
         offset="0"
         id="stop7" />
      <stop
         style="stop-color:#f8ae00;stop-opacity:1;"
         offset="1"
         id="stop8" />
    </linearGradient>
    <radialGradient
       inkscape:collect="always"
       xlink:href="#linearGradient2"
       id="radialGradient10-5-7"
       cx="24.407768"
       cy="40.411434"
       fx="24.407768"
       fy="40.411434"
       r="11.125"
       gradientUnits="userSpaceOnUse"
       gradientTransform="matrix(2.1449038,0,0,2.1449038,-29.681738,-45.074356)" />
    <linearGradient
       id="linearGradient2"
       inkscape:collect="always">
      <stop
         style="stop-color:#2bc4ff;stop-opacity:1;"
         offset="0"
         id="stop1" />
      <stop
         style="stop-color:#008bff;stop-opacity:1;"
         offset="1"
         id="stop2" />
    </linearGradient>
    <filter
       inkscape:collect="always"
       style="color-interpolation-filters:sRGB"
       id="filter25"
       x="-0.040631658"
       y="-0.040631658"
       width="1.0812633"
       height="1.0812633">
      <feGaussianBlur
         inkscape:collect="always"
         stdDeviation="0.43071772"
         id="feGaussianBlur25" />
    </filter>
    <radialGradient
       inkscape:collect="always"
       xlink:href="#linearGradient6"
       id="radialGradient6"
       cx="59.380459"
       cy="35.663242"
       fx="59.380459"
       fy="35.663242"
       r="15.883259"
       gradientTransform="matrix(-1.3181881,2.2831665,-2.7132043,-1.5664709,204.63031,-64.270362)"
       gradientUnits="userSpaceOnUse" />
    <inkscape:path-effect
       effect="fillet_chamfer"
       id="path-effect1-5"
       is_visible="true"
       lpeversion="1"
       nodesatellites_param="F,0,1,1,0,7.2839381,0,1 @ F,0,1,1,0,7.2839381,0,1 @ F,0,0,1,0,7.2839381,0,1 @ F,0,1,1,0,7.2839381,0,1"
       radius="0"
       unit="px"
       method="auto"
       mode="F"
       chamfer_steps="1"
       flexible="false"
       use_knot_distance="true"
       apply_no_radius="true"
       apply_with_radius="true"
       only_selected="false"
       hide_knots="false" />
    <filter
       inkscape:collect="always"
       style="color-interpolation-filters:sRGB"
       id="filter6"
       x="-0.12333962"
       y="-0.27609634"
       width="1.2466792"
       height="1.5521927">
      <feGaussianBlur
         inkscape:collect="always"
         stdDeviation="1.5908626"
         id="feGaussianBlur6" />
    </filter>
  </defs>
  <sodipodi:namedview
     id="namedview9"
     pagecolor="#505050"
     bordercolor="#eeeeee"
     borderopacity="1"
     inkscape:showpageshadow="0"
     inkscape:pageopacity="0"
     inkscape:pagecheckerboard="0"
     inkscape:deskcolor="#505050"
     inkscape:zoom="9.4244076"
     inkscape:cx="38.463956"
     inkscape:cy="38.198687"
     inkscape:window-width="1920"
     inkscape:window-height="1020"
     inkscape:window-x="0"
     inkscape:window-y="0"
     inkscape:window-maximized="1"
     inkscape:current-layer="svg9"
     showgrid="false" />
  <g
     id="g1">
    <g
       id="g2">
      <path
         id="path13-9"
         style="fill:none;fill-opacity:1;stroke:#000000;stroke-width:0.3;stroke-dasharray:none;filter:url(#filter22)"
         d="M 32.000002,5.951172 C 22.623704,5.9774809 13.985003,11.040904 9.380861,19.208984 l 2.245958,11.941453 8.15248,5.783157 13.771484,-18.160156 13.502238,4.262386 7.396205,-4.240906 C 49.770141,10.838742 41.230093,5.952773 32.000002,5.951172 Z"
         sodipodi:nodetypes="cccccccc" />
      <path
         id="path13"
         style="fill:url(#radialGradient17);fill-opacity:1;stroke:#000000;stroke-width:0;stroke-dasharray:none"
         d="M 32.000002,5.951172 C 22.623704,5.9774809 13.985003,11.040904 9.380861,19.208984 l 2.245958,11.941453 8.15248,5.783157 13.771484,-18.160156 13.502238,4.262386 7.396205,-4.240906 C 49.770141,10.838742 41.230093,5.952773 32.000002,5.951172 Z"
         sodipodi:nodetypes="cccccccc" />
      <path
         id="path13-3-2"
         style="fill:none;fill-opacity:1;stroke:#000000;stroke-width:0.3;stroke-dasharray:none;filter:url(#filter23)"
         d="M 9.373049,19.222656 C 7.1520254,23.116396 5.9734003,27.517404 5.951174,32 c 7.07e-5,14.386341 11.662487,26.048757 26.048828,26.048828 0.163518,-0.01018 0.326937,-0.0219 0.490234,-0.03516 L 43.849317,50.253299 43.291016,39.347656 19.779299,36.933594 Z"
         sodipodi:nodetypes="cccccccc" />
      <path
         id="path13-3"
         style="fill:url(#radialGradient18);fill-opacity:1;stroke:#000000;stroke-width:0;stroke-dasharray:none"
         d="M 9.373049,19.222656 C 7.1520254,23.116396 5.9734003,27.517404 5.951174,32 c 7.07e-5,14.386341 11.662487,26.048757 26.048828,26.048828 0.163518,-0.01018 0.326937,-0.0219 0.490234,-0.03516 L 43.849317,50.253299 43.291016,39.347656 19.779299,36.933594 Z"
         sodipodi:nodetypes="cccccccc" />
      <path
         id="path13-3-6-0"
         style="fill:none;fill-opacity:1;stroke:#000000;stroke-width:0.3;stroke-dasharray:none;filter:url(#filter24)"
         d="M 33.550783,18.773438 43.250006,39.314453 32.449221,58.015625 A 26.048956,26.048956 0 0 0 58.048826,32 26.048956,26.048956 0 0 0 54.437506,18.773438 Z" />
      <path
         id="path13-3-6"
         style="fill:url(#radialGradient19);fill-opacity:1;stroke:#000000;stroke-width:0;stroke-dasharray:none"
         d="M 33.550783,18.773438 43.250006,39.314453 32.449221,58.015625 A 26.048956,26.048956 0 0 0 58.048826,32 26.048956,26.048956 0 0 0 54.437506,18.773438 Z" />
      <path
         d="m 32,18.663707 c -7.387859,0 -13.336292,5.948433 -13.336292,13.336292 0,7.387859 5.948433,13.336293 13.336292,13.336293 7.387859,0 13.336292,-5.948434 13.336292,-13.336292 0,-7.387859 -5.948433,-13.336293 -13.336292,-13.336293 z"
         style="fill:#ffffff;fill-opacity:1;stroke-width:1.14054;stroke-dasharray:none"
         id="path6-1-3"
         sodipodi:nodetypes="sssss" />
      <path
         d="m 32.00773,22.625008 c -5.194175,0 -9.375618,4.181443 -9.375618,9.375617 0,5.194174 4.181443,9.375618 9.375618,9.375618 5.194174,0 9.375617,-4.181444 9.375617,-9.375618 0,-5.194174 -4.181443,-9.375617 -9.375617,-9.375617 z"
         style="fill:url(#radialGradient10-5-7);stroke-width:0.852343"
         id="path5-2-7" />
      <path
         id="path6-1-3-2"
         style="fill:none;fill-opacity:1;stroke:#9800ff;stroke-width:0.1;stroke-dasharray:none;stroke-opacity:1;filter:url(#filter25)"
         d="m 32,18.664062 c -7.387852,0 -13.335938,5.948086 -13.335938,13.335938 0,7.387851 5.948086,13.335937 13.335938,13.335937 C 39.387851,45.335937 45.335937,39.38785 45.335937,32 45.335937,24.612148 39.387852,18.664062 32,18.664062 Z M 32.0078,22.625 c 5.194169,0 9.375,4.182784 9.375,9.376953 0,5.194168 -4.180831,9.375 -9.375,9.375 -5.19417,0 -9.375,-4.180832 -9.375,-9.375 0,-5.194169 4.18083,-9.376953 9.375,-9.376953 z" />
    </g>
  </g>
  <path
     id="rect1"
     style="fill:url(#radialGradient6);stroke:none;stroke-width:0.7;stroke-linecap:round"
     d="m 37.58499,45.869232 h 17.198642 a 7.2839381,7.2839381 45 0 1 7.283938,7.283938 7.0955661,7.0955661 136.54201 0 1 -7.283938,6.902055 l -17.198642,0 a 7.2839381,7.2839381 45 0 1 -7.283938,-7.283938 7.0955661,7.0955661 136.54201 0 1 7.283938,-6.902055 z"
     inkscape:path-effect="#path-effect1"
     inkscape:original-d="M 30.301052,45.869232 H 62.06757 V 60.055225 H 30.301052 Z"
     transform="translate(-2.9628489)" />
  <path
     id="rect1-5"
     style="mix-blend-mode:normal;fill:none;fill-opacity:1;stroke:#000000;stroke-width:0.2;stroke-linecap:round;stroke-dasharray:none;stroke-opacity:1;filter:url(#filter6)"
     d="m 37.58499,45.869232 h 17.198642 a 7.2839381,7.2839381 45 0 1 7.283938,7.283938 7.0955661,7.0955661 136.54201 0 1 -7.283938,6.902055 l -17.198642,0 a 7.2839381,7.2839381 45 0 1 -7.283938,-7.283938 7.0955661,7.0955661 136.54201 0 1 7.283938,-6.902055 z"
     inkscape:path-effect="#path-effect1-5"
     inkscape:original-d="M 30.301052,45.869232 H 62.06757 V 60.055225 H 30.301052 Z"
     transform="translate(-2.9628489)" />
  <path
     d="m 32.788658,49.14375 h 1.450113 q 0.875066,0 1.345103,0.219644 0.470036,0.214415 0.740055,0.664158 0.275023,0.449746 0.275023,0.998853 0,0.512501 -0.240018,0.936097 -0.240018,0.418369 -0.705055,0.679851 0.575044,0.203953 0.885069,0.481122 0.310023,0.271937 0.480036,0.664157 0.175015,0.38699 0.175015,0.841966 0,0.925638 -0.650052,1.568878 -0.645048,0.63801 -1.735133,0.63801 h -2.020156 z m 0.720055,0.753063 v 2.463139 h 0.420034 q 0.765059,0 1.125086,-0.146429 0.360029,-0.151656 0.570045,-0.470663 0.210015,-0.324235 0.210015,-0.716455 0,-0.52819 -0.355029,-0.826275 -0.350027,-0.303317 -1.120086,-0.303317 z m 0,3.23712 v 2.949493 h 0.910072 q 0.805061,0 1.180091,-0.162119 0.375026,-0.167347 0.600044,-0.517729 0.230019,-0.350383 0.230019,-0.758291 0,-0.512501 -0.320024,-0.894262 -0.320026,-0.381761 -0.880069,-0.52296 -0.37503,-0.09413 -1.305101,-0.09413 z m 9.60574,1.81467 0.590046,0.324234 q -0.290023,0.596174 -0.670051,0.962246 -0.38003,0.366072 -0.855067,0.559566 -0.475036,0.188268 -1.075083,0.188268 -1.330101,0 -2.08016,-0.90995 -0.750056,-0.915179 -0.750056,-2.065691 0,-1.082526 0.635047,-1.929719 0.805061,-1.077298 2.155167,-1.077298 1.390105,0 2.22017,1.103445 0.590046,0.779209 0.600045,1.94541 h -4.890375 q 0.02,0.993622 0.605046,1.631633 0.585045,0.63278 1.445112,0.63278 0.415031,0 0.805062,-0.151656 0.395032,-0.151659 0.670052,-0.40268 0.275022,-0.25102 0.595045,-0.810588 z m 0,-1.532271 q -0.140011,-0.585716 -0.410032,-0.936098 -0.26502,-0.350383 -0.705053,-0.564796 -0.440034,-0.214414 -0.925072,-0.214414 -0.800061,0 -1.375104,0.538647 -0.420033,0.39222 -0.63505,1.176661 z m 2.685207,-4.382403 h 0.705054 v 2.112757 h 1.110085 v 0.627552 h -1.110085 v 5.062248 H 45.79966 v -5.062248 h -0.955075 v -0.627552 h 0.955075 z m 8.280638,2.112757 v 5.6898 h -0.690053 v -0.977933 q -0.440034,0.559567 -0.990077,0.841963 -0.545042,0.282399 -1.195092,0.282399 -1.155089,0 -1.975153,-0.873342 Q 48.41486,55.231 48.41486,53.975898 q 0,-1.228954 0.825064,-2.102297 0.825064,-0.873344 1.985154,-0.873344 0.67005,0 1.210094,0.298088 0.545041,0.298088 0.955073,0.894261 v -1.04592 z m -2.800216,0.559566 q -0.585045,0 -1.080085,0.303318 -0.495037,0.298086 -0.79006,0.841966 -0.290021,0.543876 -0.290021,1.15051 0,0.601404 0.295023,1.150512 0.295021,0.549106 0.79006,0.857653 0.500039,0.303316 1.070082,0.303316 0.575045,0 1.090083,-0.303316 0.51504,-0.303317 0.790062,-0.821046 0.280022,-0.517729 0.280022,-1.166202 0,-0.988393 -0.625048,-1.652551 -0.620049,-0.66416 -1.530118,-0.66416 z"
     id="text9"
     style="font-family:'Century Gothic';-inkscape-font-specification:'Century Gothic';white-space:pre;opacity:1;mix-blend-mode:normal;fill:#0060ff;stroke:#0060ff;stroke-width:0.569819;stroke-linecap:round;stroke-linejoin:miter;stroke-dasharray:none;paint-order:normal;fill-opacity:1;stroke-opacity:1"
     aria-label="Beta" />
</svg>
