<?xml version="1.0" encoding="UTF-8" standalone="no"?>
<svg
   width="64"
   height="64"
   version="1.1"
   id="svg8"
   sodipodi:docname="gridplayer.svg"
   inkscape:version="1.4 (e7c3feb100, 2024-10-09)"
   xmlns:inkscape="http://www.inkscape.org/namespaces/inkscape"
   xmlns:sodipodi="http://sodipodi.sourceforge.net/DTD/sodipodi-0.dtd"
   xmlns:xlink="http://www.w3.org/1999/xlink"
   xmlns="http://www.w3.org/2000/svg"
   xmlns:svg="http://www.w3.org/2000/svg">
  <defs
     id="defs8">
    <linearGradient
       id="linearGradient15"
       inkscape:collect="always">
      <stop
         style="stop-color:#000000;stop-opacity:1;"
         offset="0"
         id="stop14" />
      <stop
         style="stop-color:#00ffef;stop-opacity:1;"
         offset="1"
         id="stop15" />
    </linearGradient>
    <linearGradient
       id="linearGradient10"
       inkscape:collect="always">
      <stop
         style="stop-color:#90e3e7;stop-opacity:1;"
         offset="0"
         id="stop9" />
      <stop
         style="stop-color:#81befe;stop-opacity:1;"
         offset="1"
         id="stop10" />
    </linearGradient>
    <filter
       inkscape:collect="always"
       style="color-interpolation-filters:sRGB"
       id="filter7"
       x="-0.16383565"
       y="-0.15591676"
       width="1.3276713"
       height="1.3118373">
      <feGaussianBlur
         inkscape:collect="always"
         stdDeviation="3.1195823"
         id="feGaussianBlur7" />
    </filter>
    <radialGradient
       inkscape:collect="always"
       xlink:href="#linearGradient15"
       id="radialGradient9-6"
       cx="45.375324"
       cy="9.6736078"
       fx="45.375324"
       fy="9.6736078"
       r="14.663306"
       gradientTransform="matrix(-4.1302532,7.1538085,-7.7496817,-4.4742809,303.52506,-224.51631)"
       gradientUnits="userSpaceOnUse" />
    <linearGradient
       id="linearGradient12"
       inkscape:collect="always">
      <stop
         style="stop-color:#000000;stop-opacity:1;"
         offset="0"
         id="stop11" />
      <stop
         style="stop-color:#00ff7e;stop-opacity:1;"
         offset="1"
         id="stop12" />
    </linearGradient>
    <filter
       inkscape:collect="always"
       style="color-interpolation-filters:sRGB"
       id="filter12"
       x="-0.034743395"
       y="-0.033000866"
       width="1.0694868"
       height="1.0660017">
      <feGaussianBlur
         inkscape:collect="always"
         stdDeviation="1.3145793"
         id="feGaussianBlur12" />
    </filter>
    <radialGradient
       inkscape:collect="always"
       xlink:href="#linearGradient10"
       id="radialGradient7"
       cx="7.3497539"
       cy="73.637451"
       fx="7.3497539"
       fy="73.637451"
       r="18.94824"
       gradientTransform="matrix(3.6605147,0,0,3.8465617,-36.122075,-212.67485)"
       gradientUnits="userSpaceOnUse" />
    <linearGradient
       id="linearGradient6"
       inkscape:collect="always">
      <stop
         style="stop-color:#c090e7;stop-opacity:1;"
         offset="0"
         id="stop6" />
      <stop
         style="stop-color:#8281fe;stop-opacity:1;"
         offset="1"
         id="stop7" />
    </linearGradient>
    <radialGradient
       inkscape:collect="always"
       xlink:href="#linearGradient6"
       id="radialGradient7-3"
       cx="11.757886"
       cy="53.963005"
       fx="11.757886"
       fy="53.963005"
       r="18.94824"
       gradientTransform="matrix(1.7425128,0,0,1.8310767,14.512391,-68.666546)"
       gradientUnits="userSpaceOnUse" />
    <radialGradient
       inkscape:collect="always"
       xlink:href="#linearGradient12"
       id="radialGradient9-6-5"
       cx="34.448208"
       cy="13.722373"
       fx="34.448208"
       fy="13.722373"
       r="14.663306"
       gradientTransform="matrix(-1.8550731,3.2130809,-3.480713,-2.0095906,158.99169,-69.546959)"
       gradientUnits="userSpaceOnUse" />
    <filter
       inkscape:collect="always"
       style="color-interpolation-filters:sRGB"
       id="filter12-6"
       x="-0.10758113"
       y="-0.099309209"
       width="1.2151623"
       height="1.1986184">
      <feGaussianBlur
         inkscape:collect="always"
         stdDeviation="1.3145793"
         id="feGaussianBlur12-2" />
    </filter>
    <filter
       inkscape:collect="always"
       style="color-interpolation-filters:sRGB"
       id="filter7-9"
       x="-0.16383565"
       y="-0.15591676"
       width="1.3276713"
       height="1.3118373">
      <feGaussianBlur
         inkscape:collect="always"
         stdDeviation="3.1195823"
         id="feGaussianBlur7-1" />
    </filter>
    <radialGradient
       inkscape:collect="always"
       xlink:href="#linearGradient6"
       id="radialGradient7-6"
       cx="11.757886"
       cy="53.963005"
       fx="11.757886"
       fy="53.963005"
       r="18.94824"
       gradientTransform="matrix(1.7425128,0,0,1.8310767,-16.203312,-36.775735)"
       gradientUnits="userSpaceOnUse" />
    <radialGradient
       inkscape:collect="always"
       xlink:href="#linearGradient12"
       id="radialGradient9-6-2"
       cx="34.448208"
       cy="13.722373"
       fx="34.448208"
       fy="13.722373"
       r="14.663306"
       gradientTransform="matrix(-1.8550731,3.2130809,-3.480713,-2.0095906,158.99169,-69.546959)"
       gradientUnits="userSpaceOnUse" />
    <filter
       inkscape:collect="always"
       style="color-interpolation-filters:sRGB"
       id="filter12-8"
       x="-0.10758113"
       y="-0.099309209"
       width="1.2151623"
       height="1.1986184">
      <feGaussianBlur
         inkscape:collect="always"
         stdDeviation="1.3145793"
         id="feGaussianBlur12-7" />
    </filter>
    <filter
       inkscape:collect="always"
       style="color-interpolation-filters:sRGB"
       id="filter7-92"
       x="-0.16383565"
       y="-0.15591676"
       width="1.3276713"
       height="1.3118373">
      <feGaussianBlur
         inkscape:collect="always"
         stdDeviation="3.1195823"
         id="feGaussianBlur7-0" />
    </filter>
    <filter
       inkscape:collect="always"
       style="color-interpolation-filters:sRGB"
       id="filter7-9-9"
       x="-0.16383565"
       y="-0.15591676"
       width="1.3276713"
       height="1.3118373">
      <feGaussianBlur
         inkscape:collect="always"
         stdDeviation="3.1195823"
         id="feGaussianBlur7-1-2" />
    </filter>
  </defs>
  <sodipodi:namedview
     id="namedview8"
     pagecolor="#505050"
     bordercolor="#eeeeee"
     borderopacity="1"
     inkscape:showpageshadow="0"
     inkscape:pageopacity="0"
     inkscape:pagecheckerboard="0"
     inkscape:deskcolor="#505050"
     inkscape:zoom="6.4799707"
     inkscape:cx="8.7191752"
     inkscape:cy="43.904519"
     inkscape:current-layer="svg8" />
  <path
     id="path5"
     style="fill:url(#radialGradient7);stroke-width:0.610471"
     d="M 10.773438 3.9003906 C 7.7869273 3.8373926 5.0739007 6.286826 5.0742188 9.4277344 L 5.0742188 22.726562 L 5.0742188 22.730469 C 5.0775787 26.90277 9.8664401 29.49989 13.380859 27.550781 L 19.371094 24.226562 L 25.361328 20.898438 L 25.363281 20.896484 C 27.118271 19.919678 28.208984 17.963434 28.208984 16.076172 C 28.208984 14.188911 27.118271 12.232665 25.363281 11.255859 L 25.361328 11.253906 L 19.371094 7.9277344 L 13.388672 4.6074219 L 13.382812 4.6054688 C 12.582427 4.1608677 11.695455 3.9225 10.791016 3.9003906 L 10.773438 3.9003906 z M 41.490234 35.791016 C 38.503724 35.728016 35.790698 38.17745 35.791016 41.318359 L 35.791016 54.619141 L 35.791016 54.621094 C 35.794416 58.793395 40.583237 61.390515 44.097656 59.441406 L 50.085938 56.117188 L 56.076172 52.789062 L 56.080078 52.787109 C 57.835068 51.810303 58.925781 49.854058 58.925781 47.966797 C 58.925781 46.079535 57.835068 44.12329 56.080078 43.146484 L 56.076172 43.146484 L 50.085938 39.818359 L 44.105469 36.498047 L 44.097656 36.496094 C 43.297271 36.051493 42.410298 35.813126 41.505859 35.791016 L 41.490234 35.791016 z " />
  <path
     style="opacity:0.349788;fill:#000000;fill-opacity:1;stroke-width:0.610471"
     d="M 10.686474,8.1192889 A 1.3381302,1.2867295 0 0 0 9.3166,9.4057742 V 22.704054 a 1.3381302,1.2867295 0 0 0 2.006951,1.114078 l 5.987767,-3.323837 5.987767,-3.325546 a 1.3381302,1.2867295 0 0 0 0,-2.228183 L 17.310464,11.615996 11.323062,8.2921589 A 1.3381302,1.2867295 0 0 0 10.685741,8.1196426 Z"
     id="path3" />
  <path
     id="path5-3"
     style="fill:none;stroke:#000000;stroke-width:0.2;stroke-dasharray:none;stroke-opacity:1;filter:url(#filter7)"
     d="M 20.253909,7.6719983 C 14.275913,7.5458973 8.8450701,12.4494 8.8457061,18.736451 v 26.621094 0.0039 c 0.0067,8.351554 9.5942119,13.549904 16.6289059,9.648438 l 11.986329,-6.652344 11.992187,-6.66211 0.0039,-0.002 c 3.512904,-1.955239 5.697266,-5.87077 5.697266,-9.648437 0,-3.777667 -2.184362,-7.695152 -5.697266,-9.650391 l -0.0039,-0.002 -11.992187,-6.658203 -11.972657,-6.6484372 -0.01172,-0.00391 C 23.874451,8.1922117 22.097497,7.7162538 20.287112,7.6719983 Z m -0.175781,8.4433587 v 0.002 a 2.67849,2.5756028 0 0 1 1.275391,0.345703 l 11.984375,6.652343 11.986328,6.654297 a 2.67849,2.5756028 0 0 1 0,4.460938 l -11.984375,6.65625 -11.986328,6.652343 A 2.67849,2.5756028 0 0 1 17.335941,45.31067 V 18.691529 a 2.67849,2.5756028 0 0 1 2.742187,-2.576172 z"
     transform="matrix(0.49958381,0,0,0.49958381,0.65546689,0.06791279)" />
  <path
     style="fill:url(#radialGradient7-3);stroke-width:0.610471"
     d="m 41.489835,3.9006064 c -2.98651,-0.062998 -5.699625,2.3867027 -5.699307,5.5276111 v 13.2991755 0.0024 c 0.0034,4.172301 4.792499,6.769673 8.306918,4.820564 l 5.989041,-3.324198 5.990232,-3.327775 0.0024,-0.0012 c 1.75499,-0.976806 2.846077,-2.933302 2.846077,-4.820564 0,-1.887261 -1.091087,-3.843757 -2.846077,-4.820563 l -0.0024,-0.0012 L 50.086487,7.9282141 44.1046,4.6075937 44.0986,4.6052137 C 43.29823,4.1606096 42.410945,3.9226596 41.506506,3.9005502 Z"
     id="path5-7"
     sodipodi:nodetypes="cccsccccsccccccc" />
  <path
     style="opacity:0.349788;fill:#000000;fill-opacity:1;stroke-width:0.610471"
     d="M 41.402176,8.1192889 A 1.3381302,1.2867295 0 0 0 40.032302,9.4057742 V 22.704054 a 1.3381302,1.2867295 0 0 0 2.006951,1.114078 l 5.987767,-3.323837 5.987767,-3.325546 a 1.3381302,1.2867295 0 0 0 0,-2.228183 L 48.026166,11.615996 42.038765,8.2921589 A 1.3381302,1.2867295 0 0 0 41.401444,8.1196426 Z"
     id="path3-0" />
  <path
     style="opacity:0.277856;fill:url(#radialGradient9-6-5);stroke-width:1.22196;filter:url(#filter12-6)"
     d="m 20.078728,16.116167 a 2.67849,2.5756028 0 0 0 -2.742031,2.575114 v 26.618717 a 2.67849,2.5756028 0 0 0 4.017246,2.230012 l 11.985511,-6.653212 11.985509,-6.656634 a 2.67849,2.5756028 0 0 0 0,-4.460077 L 33.337743,23.115408 21.352965,16.462195 a 2.67849,2.5756028 0 0 0 -1.275704,-0.34532 z"
     id="path3-1-9"
     transform="matrix(0.49958381,0,0,0.49958381,31.371169,0.06791279)" />
  <path
     id="path5-3-3"
     style="fill:none;stroke:#000000;stroke-width:0.2;stroke-dasharray:none;stroke-opacity:1;filter:url(#filter7-9)"
     d="M 20.253909,7.6719983 C 14.275913,7.5458973 8.8450701,12.4494 8.8457061,18.736451 v 26.621094 0.0039 c 0.0067,8.351554 9.5942119,13.549904 16.6289059,9.648438 l 11.986329,-6.652344 11.992187,-6.66211 0.0039,-0.002 c 3.512904,-1.955239 5.697266,-5.87077 5.697266,-9.648437 0,-3.777667 -2.184362,-7.695152 -5.697266,-9.650391 l -0.0039,-0.002 -11.992187,-6.658203 -11.972657,-6.6484372 -0.01172,-0.00391 C 23.874451,8.1922117 22.097497,7.7162538 20.287112,7.6719983 Z m -0.175781,8.4433587 v 0.002 a 2.67849,2.5756028 0 0 1 1.275391,0.345703 l 11.984375,6.652343 11.986328,6.654297 a 2.67849,2.5756028 0 0 1 0,4.460938 l -11.984375,6.65625 -11.986328,6.652343 A 2.67849,2.5756028 0 0 1 17.335941,45.31067 V 18.691529 a 2.67849,2.5756028 0 0 1 2.742187,-2.576172 z"
     transform="matrix(0.49958381,0,0,0.49958381,31.371169,0.06791279)" />
  <path
     style="fill:url(#radialGradient7-6);stroke-width:0.610471"
     d="m 10.774133,35.791418 c -2.9865102,-0.063 -5.6996247,2.386702 -5.6993067,5.527611 v 13.299175 0.0024 c 0.00336,4.172301 4.7924984,6.769673 8.3069177,4.820564 l 5.989041,-3.324198 5.990232,-3.327775 0.0024,-0.0012 c 1.75499,-0.976806 2.846077,-2.933302 2.846077,-4.820563 0,-1.887262 -1.091087,-3.843758 -2.846077,-4.820564 l -0.0024,-0.0012 -5.990232,-3.326643 -5.981887,-3.32062 -0.006,-0.0024 c -0.800385,-0.444601 -1.68767,-0.682551 -2.592109,-0.704661 z"
     id="path5-8"
     sodipodi:nodetypes="cccsccccsccccccc" />
  <path
     style="opacity:0.349788;fill:#000000;fill-opacity:1;stroke-width:0.610471"
     d="M 10.686474,40.0101 A 1.3381302,1.2867295 0 0 0 9.3166,41.296585 v 13.29828 a 1.3381302,1.2867295 0 0 0 2.006951,1.114078 l 5.987767,-3.323837 5.987767,-3.325546 a 1.3381302,1.2867295 0 0 0 0,-2.228183 L 17.310464,43.506808 11.323062,40.18297 a 1.3381302,1.2867295 0 0 0 -0.637321,-0.172516 z"
     id="path3-9" />
  <path
     style="opacity:0.277856;fill:url(#radialGradient9-6-2);stroke-width:1.22196;filter:url(#filter12-8)"
     d="m 20.078728,16.116167 a 2.67849,2.5756028 0 0 0 -2.742031,2.575114 v 26.618717 a 2.67849,2.5756028 0 0 0 4.017246,2.230012 l 11.985511,-6.653212 11.985509,-6.656634 a 2.67849,2.5756028 0 0 0 0,-4.460077 L 33.337743,23.115408 21.352965,16.462195 a 2.67849,2.5756028 0 0 0 -1.275704,-0.34532 z"
     id="path3-1-7"
     transform="matrix(0.49958381,0,0,0.49958381,0.65546689,31.958724)" />
  <path
     id="path5-3-36"
     style="fill:none;stroke:#000000;stroke-width:0.2;stroke-dasharray:none;stroke-opacity:1;filter:url(#filter7-92)"
     d="M 20.253909,7.6719983 C 14.275913,7.5458973 8.8450701,12.4494 8.8457061,18.736451 v 26.621094 0.0039 c 0.0067,8.351554 9.5942119,13.549904 16.6289059,9.648438 l 11.986329,-6.652344 11.992187,-6.66211 0.0039,-0.002 c 3.512904,-1.955239 5.697266,-5.87077 5.697266,-9.648437 0,-3.777667 -2.184362,-7.695152 -5.697266,-9.650391 l -0.0039,-0.002 -11.992187,-6.658203 -11.972657,-6.6484372 -0.01172,-0.00391 C 23.874451,8.1922117 22.097497,7.7162538 20.287112,7.6719983 Z m -0.175781,8.4433587 v 0.002 a 2.67849,2.5756028 0 0 1 1.275391,0.345703 l 11.984375,6.652343 11.986328,6.654297 a 2.67849,2.5756028 0 0 1 0,4.460938 l -11.984375,6.65625 -11.986328,6.652343 A 2.67849,2.5756028 0 0 1 17.335941,45.31067 V 18.691529 a 2.67849,2.5756028 0 0 1 2.742187,-2.576172 z"
     transform="matrix(0.49958381,0,0,0.49958381,0.65546689,31.958724)" />
  <path
     style="opacity:0.349788;fill:#000000;fill-opacity:1;stroke-width:0.610471"
     d="m 41.402176,40.0101 a 1.3381302,1.2867295 0 0 0 -1.369874,1.286485 v 13.29828 a 1.3381302,1.2867295 0 0 0 2.006951,1.114078 l 5.987767,-3.323837 5.987767,-3.325546 a 1.3381302,1.2867295 0 0 0 0,-2.228183 L 48.026166,43.506808 42.038765,40.18297 a 1.3381302,1.2867295 0 0 0 -0.637321,-0.172516 z"
     id="path3-0-9" />
  <path
     id="path5-3-3-1"
     style="fill:none;stroke:#000000;stroke-width:0.2;stroke-dasharray:none;stroke-opacity:1;filter:url(#filter7-9-9)"
     d="M 20.253909,7.6719983 C 14.275913,7.5458973 8.8450701,12.4494 8.8457061,18.736451 v 26.621094 0.0039 c 0.0067,8.351554 9.5942119,13.549904 16.6289059,9.648438 l 11.986329,-6.652344 11.992187,-6.66211 0.0039,-0.002 c 3.512904,-1.955239 5.697266,-5.87077 5.697266,-9.648437 0,-3.777667 -2.184362,-7.695152 -5.697266,-9.650391 l -0.0039,-0.002 -11.992187,-6.658203 -11.972657,-6.6484372 -0.01172,-0.00391 C 23.874451,8.1922117 22.097497,7.7162538 20.287112,7.6719983 Z m -0.175781,8.4433587 v 0.002 a 2.67849,2.5756028 0 0 1 1.275391,0.345703 l 11.984375,6.652343 11.986328,6.654297 a 2.67849,2.5756028 0 0 1 0,4.460938 l -11.984375,6.65625 -11.986328,6.652343 A 2.67849,2.5756028 0 0 1 17.335941,45.31067 V 18.691529 a 2.67849,2.5756028 0 0 1 2.742187,-2.576172 z"
     transform="matrix(0.49958381,0,0,0.49958381,31.371169,31.958724)" />
  <path
     id="path3-1"
     style="opacity:0.277856;fill:url(#radialGradient9-6);stroke-width:1.22196;filter:url(#filter12)"
     d="M 20.076872 16.11587 A 2.67849 2.5756028 0 0 0 17.336309 18.692233 L 17.336309 45.308138 A 2.67849 2.5756028 0 0 0 21.355279 47.540465 L 33.33791 40.886489 L 45.32445 34.228603 A 2.67849 2.5756028 0 0 0 45.32445 29.771768 L 33.33791 23.113883 L 21.35137 16.463816 A 2.67849 2.5756028 0 0 0 20.076872 16.11587 z M 81.561644 79.950255 A 2.67849 2.5756028 0 0 0 78.821082 82.526618 L 78.821082 109.14643 A 2.67849 2.5756028 0 0 0 82.836142 111.37485 L 94.822682 104.72087 L 106.80922 98.062988 A 2.67849 2.5756028 0 0 0 106.80922 93.606153 L 94.818773 86.948267 L 82.836142 80.298201 A 2.67849 2.5756028 0 0 0 81.561644 79.950255 z "
     transform="matrix(0.49958381,0,0,0.49958381,0.65546689,0.06791279)" />
</svg>
