<?xml version="1.0" encoding="UTF-8" standalone="no"?>
<svg
   width="64"
   height="64"
   version="1"
   id="svg4"
   sodipodi:docname="help-browser.svg"
   inkscape:version="1.4 (e7c3feb100, 2024-10-09)"
   xmlns:inkscape="http://www.inkscape.org/namespaces/inkscape"
   xmlns:sodipodi="http://sodipodi.sourceforge.net/DTD/sodipodi-0.dtd"
   xmlns:xlink="http://www.w3.org/1999/xlink"
   xmlns="http://www.w3.org/2000/svg"
   xmlns:svg="http://www.w3.org/2000/svg">
  <defs
     id="defs4">
    <inkscape:path-effect
       effect="fillet_chamfer"
       id="path-effect6"
       is_visible="true"
       lpeversion="1"
       nodesatellites_param="F,0,0,1,0,0,0,1 @ F,0,1,1,0,2.9908216,0,1 @ F,0,1,1,0,2.9908216,0,1 @ F,0,0,1,0,0,0,1 @ F,0,0,1,0,0,0,1 @ F,0,0,1,0,0,0,1 @ F,0,0,1,0,0,0,1 @ F,0,1,1,0,2.9908216,0,1 @ F,0,0,1,0,2.9908216,0,1 @ F,0,0,1,0,0,0,1 @ F,0,0,1,0,0,0,1 @ F,0,0,1,0,0,0,1 | F,0,1,1,0,2.9908216,0,1 @ F,0,1,1,0,2.9908216,0,1 @ F,0,1,1,0,2.9908216,0,1 @ F,0,1,1,0,2.9908216,0,1"
       radius="0"
       unit="px"
       method="auto"
       mode="F"
       chamfer_steps="1"
       flexible="false"
       use_knot_distance="true"
       apply_no_radius="true"
       apply_with_radius="true"
       only_selected="false"
       hide_knots="false" />
    <linearGradient
       id="linearGradient5"
       inkscape:collect="always">
      <stop
         style="stop-color:#00d6ff;stop-opacity:1;"
         offset="0"
         id="stop5" />
      <stop
         style="stop-color:#4f63ff;stop-opacity:1;"
         offset="1"
         id="stop6" />
    </linearGradient>
    <radialGradient
       inkscape:collect="always"
       xlink:href="#linearGradient5"
       id="radialGradient6"
       cx="-60.26329"
       cy="3.83657"
       fx="-60.26329"
       fy="3.83657"
       r="30"
       gradientUnits="userSpaceOnUse"
       gradientTransform="matrix(2.644608,2.644608,-2.6446079,2.6446079,92.074476,159.11765)" />
    <inkscape:path-effect
       effect="fillet_chamfer"
       id="path-effect6-0"
       is_visible="true"
       lpeversion="1"
       nodesatellites_param="F,0,0,1,0,0,0,1 @ F,0,1,1,0,2.9908216,0,1 @ F,0,1,1,0,2.9908216,0,1 @ F,0,0,1,0,0,0,1 @ F,0,0,1,0,0,0,1 @ F,0,0,1,0,0,0,1 @ F,0,0,1,0,0,0,1 @ F,0,1,1,0,2.9908216,0,1 @ F,0,0,1,0,2.9908216,0,1 @ F,0,0,1,0,0,0,1 @ F,0,0,1,0,0,0,1 @ F,0,0,1,0,0,0,1 | F,0,1,1,0,2.9908216,0,1 @ F,0,1,1,0,2.9908216,0,1 @ F,0,1,1,0,2.9908216,0,1 @ F,0,1,1,0,2.9908216,0,1"
       radius="0"
       unit="px"
       method="auto"
       mode="F"
       chamfer_steps="1"
       flexible="false"
       use_knot_distance="true"
       apply_no_radius="true"
       apply_with_radius="true"
       only_selected="false"
       hide_knots="false" />
    <inkscape:path-effect
       effect="fillet_chamfer"
       id="path-effect6-3"
       is_visible="true"
       lpeversion="1"
       nodesatellites_param="F,0,0,1,0,0,0,1 @ F,0,1,1,0,2.9908216,0,1 @ F,0,1,1,0,2.9908216,0,1 @ F,0,0,1,0,0,0,1 @ F,0,0,1,0,0,0,1 @ F,0,0,1,0,0,0,1 @ F,0,0,1,0,0,0,1 @ F,0,1,1,0,2.9908216,0,1 @ F,0,0,1,0,2.9908216,0,1 @ F,0,0,1,0,0,0,1 @ F,0,0,1,0,0,0,1 @ F,0,0,1,0,0,0,1 | F,0,1,1,0,2.9908216,0,1 @ F,0,1,1,0,2.9908216,0,1 @ F,0,1,1,0,2.9908216,0,1 @ F,0,1,1,0,2.9908216,0,1"
       radius="0"
       unit="px"
       method="auto"
       mode="F"
       chamfer_steps="1"
       flexible="false"
       use_knot_distance="true"
       apply_no_radius="true"
       apply_with_radius="true"
       only_selected="false"
       hide_knots="false" />
    <filter
       inkscape:collect="always"
       style="color-interpolation-filters:sRGB"
       id="filter1"
       x="-0.14248877"
       y="-0.14248877"
       width="1.2849775"
       height="1.2849775">
      <feGaussianBlur
         inkscape:collect="always"
         stdDeviation="2.9040058"
         id="feGaussianBlur1" />
    </filter>
  </defs>
  <sodipodi:namedview
     id="namedview4"
     pagecolor="#ffffff"
     bordercolor="#000000"
     borderopacity="0.25"
     inkscape:showpageshadow="2"
     inkscape:pageopacity="0.0"
     inkscape:pagecheckerboard="0"
     inkscape:deskcolor="#d1d1d1"
     inkscape:zoom="9.8221551"
     inkscape:cx="28.252456"
     inkscape:cy="42.302325"
     inkscape:window-width="1920"
     inkscape:window-height="1018"
     inkscape:window-x="0"
     inkscape:window-y="0"
     inkscape:window-maximized="1"
     inkscape:current-layer="svg4" />
  <rect
     style="fill:url(#radialGradient6);stroke-width:0.826922"
     width="49.615314"
     height="49.615314"
     x="-56.807655"
     y="-56.807655"
     rx="10.288671"
     ry="10.288671"
     transform="matrix(0,-1,-1,0,0,0)"
     id="rect2" />
  <path
     style="fill:#ffffff"
     d="M 31.999352,12 C 26.60243,12 21.85619,15.964617 20.491769,21.043759 20.064471,22.634402 21.437997,24 23.089783,24 c 1.551923,0 2.787642,-1.4289 3.584445,-2.855464 1.074342,-1.923457 3.133563,-3.343755 5.325124,-3.343755 3.19,0 6.100906,2.610781 6.100906,5.800781 0,1.595 -0.637937,3.041938 -1.710937,4.085938 l -3.597656,3.65625 c -1.927927,1.839944 -2.993662,4.17342 -3.438792,6.679918 C 29.064422,39.647916 30.43995,41 32.091736,41 c 1.605858,0 2.743431,-1.369761 3.115398,-2.973295 0.484868,-2.090242 1.702603,-3.527649 3.385316,-5.233736 L 41.201821,30.125 c 1.653,-1.653 2.699218,-3.971438 2.699218,-6.523438 C 43.901039,17.192563 38.408352,12 31.999352,12 Z m -3,36.990822 0,0.01836 A 2.9908216,2.9908216 45 0 0 31.990174,52 h 0.01836 a 2.9908216,2.9908216 135 0 0 2.990822,-2.990822 v -0.01836 A 2.9908216,2.9908216 45 0 0 32.00853,46 h -0.01836 a 2.9908216,2.9908216 135 0 0 -2.990822,2.990822 z"
     id="path3"
     inkscape:path-effect="#path-effect6"
     inkscape:original-d="m 31.999352,12 c -6.409,0 -11.900391,5.591 -11.900391,12 h 5.800781 c 0,-3.19 2.90961,-6.199219 6.09961,-6.199219 3.19,0 6.100906,2.610781 6.100906,5.800781 0,1.595 -0.637937,3.041938 -1.710937,4.085938 l -3.597656,3.65625 C 30.115864,33.897438 29.100914,37.401823 29.100914,41 h 5.898438 C 34.76927,37.073014 36.217896,35.200506 38.59245,32.792969 L 41.201821,30.125 c 1.653,-1.653 2.699218,-3.971438 2.699218,-6.523438 C 43.901039,17.192563 38.408352,12 31.999352,12 Z m -3,34 v 6 h 6 v -6 z"
     sodipodi:nodetypes="sccssccccccssccccc"
     transform="matrix(0.82692189,0,0,0.82692189,5.5384994,5.5384994)" />
  <path
     id="rect2-3"
     style="fill:none;stroke-width:0.2;stroke:#000000;stroke-opacity:1;stroke-dasharray:none;filter:url(#filter1)"
     d="m 17.481445,7.192383 c -5.699923,0 -10.289062,4.589139 -10.289062,10.289062 v 29.03711 c 0,5.699923 4.589139,10.289062 10.289062,10.289062 h 29.03711 c 5.699923,0 10.289062,-4.589139 10.289062,-10.289062 v -29.03711 c 0,-5.699923 -4.589139,-10.289062 -10.289062,-10.289062 z m 14.517579,8.269531 c 5.299742,0 9.841796,4.294009 9.841797,9.59375 0,2.110305 -0.86552,4.02763 -2.232422,5.394531 l -2.15625,2.205079 c -1.391473,1.4108 -2.399834,2.599658 -2.800782,4.328125 -0.307588,1.325996 -1.248252,2.458984 -2.576172,2.458984 -1.365897,0 -2.502198,-1.117811 -2.263671,-2.460938 0.368088,-2.072677 1.249505,-4.001947 2.84375,-5.523437 l 2.974609,-3.023437 c 0.887287,-0.863307 1.414062,-2.059966 1.414062,-3.378907 10e-7,-2.637881 -2.407041,-4.796875 -5.044921,-4.796875 -1.81225,0 -3.513948,1.173123 -4.402344,2.763672 -0.658894,1.179657 -1.681524,2.361328 -2.964844,2.361328 -1.365897,0 -2.50178,-1.128021 -2.148437,-2.443359 1.12827,-4.200053 5.052791,-7.478516 9.515625,-7.478516 z m -0.0078,28.115235 h 0.01563 a 2.4731759,2.4731759 0 0 1 2.472656,2.472656 v 0.01563 a 2.4731759,2.4731759 0 0 1 -2.472656,2.472656 h -0.01563 a 2.4731759,2.4731759 0 0 1 -2.472656,-2.472656 v -0.01563 a 2.4731759,2.4731759 0 0 1 2.472656,-2.472656 z" />
</svg>
