<?xml version="1.0" encoding="UTF-8" standalone="no"?>
<svg
   width="64"
   height="64"
   version="1.1"
   id="svg13"
   sodipodi:docname="hwloc.svg"
   inkscape:version="1.4 (e7c3feb100, 2024-10-09)"
   xmlns:inkscape="http://www.inkscape.org/namespaces/inkscape"
   xmlns:sodipodi="http://sodipodi.sourceforge.net/DTD/sodipodi-0.dtd"
   xmlns:xlink="http://www.w3.org/1999/xlink"
   xmlns="http://www.w3.org/2000/svg"
   xmlns:svg="http://www.w3.org/2000/svg">
  <defs
     id="defs13">
    <linearGradient
       id="linearGradient1"
       inkscape:collect="always">
      <stop
         style="stop-color:#ffed6d;stop-opacity:1;"
         offset="0"
         id="stop1" />
      <stop
         style="stop-color:#ffb700;stop-opacity:1;"
         offset="1"
         id="stop2" />
    </linearGradient>
    <inkscape:path-effect
       effect="fillet_chamfer"
       id="path-effect33"
       is_visible="true"
       lpeversion="1"
       nodesatellites_param="F,0,1,1,0,2.2304529,0,1 @ F,0,0,1,0,1.6110774,0,1 @ F,0,0,1,0,0,0,1 @ F,0,0,1,0,0,0,1 @ F,0,0,1,0,2.2304529,0,1 @ F,0,0,1,0,1.6110774,0,1 @ F,0,0,1,0,0,0,1 @ F,0,0,1,0,0,0,1"
       radius="0"
       unit="px"
       method="auto"
       mode="F"
       chamfer_steps="1"
       flexible="false"
       use_knot_distance="true"
       apply_no_radius="true"
       apply_with_radius="true"
       only_selected="false"
       hide_knots="false" />
    <inkscape:path-effect
       effect="fillet_chamfer"
       id="path-effect32"
       is_visible="true"
       lpeversion="1"
       nodesatellites_param="F,0,1,1,0,3.9264974,0,1 @ F,0,0,1,0,0,0,1 @ F,0,0,1,0,0,0,1 @ F,0,0,1,0,2.9212365,0,1 @ F,0,0,1,0,0,0,1 @ F,0,0,1,0,0,0,1"
       radius="0"
       unit="px"
       method="auto"
       mode="F"
       chamfer_steps="1"
       flexible="false"
       use_knot_distance="true"
       apply_no_radius="true"
       apply_with_radius="true"
       only_selected="false"
       hide_knots="false" />
    <inkscape:path-effect
       effect="fillet_chamfer"
       id="path-effect31"
       is_visible="true"
       lpeversion="1"
       nodesatellites_param="F,0,1,1,0,2.8029704,0,1 @ F,0,0,1,0,0,0,1 @ F,0,0,1,0,0,0,1 @ F,0,0,1,0,1.9159755,0,1 @ F,0,0,1,0,0,0,1 @ F,0,0,1,0,0,0,1"
       radius="0"
       unit="px"
       method="auto"
       mode="F"
       chamfer_steps="1"
       flexible="false"
       use_knot_distance="true"
       apply_no_radius="true"
       apply_with_radius="true"
       only_selected="false"
       hide_knots="false" />
    <inkscape:path-effect
       effect="fillet_chamfer"
       id="path-effect30"
       is_visible="true"
       lpeversion="1"
       nodesatellites_param="F,0,0,1,0,3.117065,0,1 @ F,0,0,1,0,0,0,1 @ F,0,0,1,0,0,0,1 @ F,0,0,1,0,2.3490357,0,1 @ F,0,0,1,0,0,0,1 @ F,0,0,1,0,1.0586731,0,1"
       radius="0"
       unit="px"
       method="auto"
       mode="F"
       chamfer_steps="1"
       flexible="false"
       use_knot_distance="true"
       apply_no_radius="true"
       apply_with_radius="true"
       only_selected="false"
       hide_knots="false" />
    <linearGradient
       id="linearGradient27"
       inkscape:collect="always">
      <stop
         style="stop-color:#747474;stop-opacity:1;"
         offset="0"
         id="stop27" />
      <stop
         style="stop-color:#3d3d3d;stop-opacity:1;"
         offset="1"
         id="stop28" />
    </linearGradient>
    <linearGradient
       id="linearGradient16"
       inkscape:collect="always">
      <stop
         style="stop-color:#4c6141;stop-opacity:1;"
         offset="0"
         id="stop15" />
      <stop
         style="stop-color:#498e53;stop-opacity:1;"
         offset="1"
         id="stop16" />
    </linearGradient>
    <linearGradient
       id="linearGradient13"
       inkscape:collect="always">
      <stop
         style="stop-color:#345722;stop-opacity:1;"
         offset="0"
         id="stop13" />
      <stop
         style="stop-color:#317d3c;stop-opacity:1;"
         offset="1"
         id="stop14" />
    </linearGradient>
    <radialGradient
       inkscape:collect="always"
       xlink:href="#linearGradient13"
       id="radialGradient14"
       cx="43.359673"
       cy="36.935181"
       fx="43.359673"
       fy="36.935181"
       r="18.252552"
       gradientUnits="userSpaceOnUse"
       gradientTransform="matrix(2.024873,-2.024873,2.024873,2.024873,-99.336284,34.873282)" />
    <radialGradient
       inkscape:collect="always"
       xlink:href="#linearGradient16"
       id="radialGradient14-3"
       cx="43.359673"
       cy="36.935181"
       fx="43.359673"
       fy="36.935181"
       r="18.252552"
       gradientUnits="userSpaceOnUse"
       gradientTransform="matrix(2.3298571,-2.3298571,2.3298571,2.3298571,-121.11249,40.122661)" />
    <radialGradient
       inkscape:collect="always"
       xlink:href="#linearGradient27"
       id="radialGradient28"
       cx="15.013846"
       cy="37.130817"
       fx="15.013846"
       fy="37.130817"
       r="7.6703052"
       gradientTransform="matrix(2.567946,0,0,2.5807966,-24.038256,-57.289951)"
       gradientUnits="userSpaceOnUse" />
    <filter
       inkscape:collect="always"
       style="color-interpolation-filters:sRGB"
       id="filter35"
       x="-0.19029342"
       y="-0.19029342"
       width="1.3805868"
       height="1.3805868">
      <feGaussianBlur
         inkscape:collect="always"
         stdDeviation="0.83553614"
         id="feGaussianBlur35" />
    </filter>
    <inkscape:path-effect
       effect="fillet_chamfer"
       id="path-effect29"
       is_visible="true"
       lpeversion="1"
       nodesatellites_param="F,0,1,1,0,1.0063191,0,1 @ F,0,1,1,0,1.0063191,0,1 @ F,0,1,1,0,1.0063191,0,1 @ F,0,1,1,0,1.0063191,0,1 | F,0,1,1,0,1.0063191,0,1 @ F,0,1,1,0,1.0063191,0,1 @ F,0,1,1,0,1.0063191,0,1 @ F,0,1,1,0,1.0063191,0,1 | F,0,1,1,0,1.0063191,0,1 @ F,0,1,1,0,1.0063191,0,1 @ F,0,1,1,0,1.0063191,0,1 @ F,0,1,1,0,1.0063191,0,1 | F,0,1,1,0,1.0063191,0,1 @ F,0,1,1,0,1.0063191,0,1 @ F,0,0,1,0,1.0063191,0,1 @ F,0,1,1,0,1.0063191,0,1 | F,0,1,1,0,1.0063191,0,1 @ F,0,1,1,0,1.0063191,0,1 @ F,0,1,1,0,1.0063191,0,1 @ F,0,1,1,0,1.0063191,0,1 | F,0,1,1,0,1.0063191,0,1 @ F,0,1,1,0,1.0063191,0,1 @ F,0,1,1,0,1.0063191,0,1 @ F,0,1,1,0,1.0063191,0,1 | F,0,1,1,0,1.0063191,0,1 @ F,0,1,1,0,1.0063191,0,1 @ F,0,1,1,0,1.0063191,0,1 @ F,0,1,1,0,1.0063191,0,1 | F,0,1,1,0,1.0063191,0,1 @ F,0,1,1,0,1.0063191,0,1 @ F,0,1,1,0,1.0063191,0,1 @ F,0,1,1,0,1.0063191,0,1"
       radius="0"
       unit="px"
       method="auto"
       mode="F"
       chamfer_steps="1"
       flexible="false"
       use_knot_distance="true"
       apply_no_radius="true"
       apply_with_radius="true"
       only_selected="false"
       hide_knots="false" />
    <filter
       inkscape:collect="always"
       style="color-interpolation-filters:sRGB"
       id="filter29"
       x="-0.080326761"
       y="-0.080326761"
       width="1.1606535"
       height="1.1606535">
      <feGaussianBlur
         inkscape:collect="always"
         stdDeviation="1.3641675"
         id="feGaussianBlur29" />
    </filter>
    <filter
       inkscape:collect="always"
       style="color-interpolation-filters:sRGB"
       id="filter30"
       x="-0.068850594"
       y="-0.068850594"
       width="1.1377012"
       height="1.1377012">
      <feGaussianBlur
         inkscape:collect="always"
         stdDeviation="0.92708903"
         id="feGaussianBlur30" />
    </filter>
    <inkscape:path-effect
       effect="fillet_chamfer"
       id="path-effect31-7"
       is_visible="true"
       lpeversion="1"
       nodesatellites_param="F,0,1,1,0,2.8029704,0,1 @ F,0,0,1,0,0,0,1 @ F,0,0,1,0,0,0,1 @ F,0,0,1,0,1.9159755,0,1 @ F,0,0,1,0,0,0,1 @ F,0,0,1,0,0,0,1"
       radius="0"
       unit="px"
       method="auto"
       mode="F"
       chamfer_steps="1"
       flexible="false"
       use_knot_distance="true"
       apply_no_radius="true"
       apply_with_radius="true"
       only_selected="false"
       hide_knots="false" />
    <inkscape:path-effect
       effect="fillet_chamfer"
       id="path-effect32-9"
       is_visible="true"
       lpeversion="1"
       nodesatellites_param="F,0,1,1,0,3.9264974,0,1 @ F,0,0,1,0,0,0,1 @ F,0,0,1,0,0,0,1 @ F,0,0,1,0,2.9212365,0,1 @ F,0,0,1,0,0,0,1 @ F,0,0,1,0,0,0,1"
       radius="0"
       unit="px"
       method="auto"
       mode="F"
       chamfer_steps="1"
       flexible="false"
       use_knot_distance="true"
       apply_no_radius="true"
       apply_with_radius="true"
       only_selected="false"
       hide_knots="false" />
    <inkscape:path-effect
       effect="fillet_chamfer"
       id="path-effect33-2"
       is_visible="true"
       lpeversion="1"
       nodesatellites_param="F,0,1,1,0,2.2304529,0,1 @ F,0,0,1,0,1.6110774,0,1 @ F,0,0,1,0,0,0,1 @ F,0,0,1,0,0,0,1 @ F,0,0,1,0,2.2304529,0,1 @ F,0,0,1,0,1.6110774,0,1 @ F,0,0,1,0,0,0,1 @ F,0,0,1,0,0,0,1"
       radius="0"
       unit="px"
       method="auto"
       mode="F"
       chamfer_steps="1"
       flexible="false"
       use_knot_distance="true"
       apply_no_radius="true"
       apply_with_radius="true"
       only_selected="false"
       hide_knots="false" />
    <inkscape:path-effect
       effect="fillet_chamfer"
       id="path-effect30-0"
       is_visible="true"
       lpeversion="1"
       nodesatellites_param="F,0,0,1,0,3.117065,0,1 @ F,0,0,1,0,0,0,1 @ F,0,0,1,0,0,0,1 @ F,0,0,1,0,2.3490357,0,1 @ F,0,0,1,0,0,0,1 @ F,0,0,1,0,1.0586731,0,1"
       radius="0"
       unit="px"
       method="auto"
       mode="F"
       chamfer_steps="1"
       flexible="false"
       use_knot_distance="true"
       apply_no_radius="true"
       apply_with_radius="true"
       only_selected="false"
       hide_knots="false" />
    <radialGradient
       inkscape:collect="always"
       xlink:href="#linearGradient1"
       id="radialGradient2"
       cx="30.868565"
       cy="35.256592"
       fx="30.868565"
       fy="35.256592"
       r="9"
       gradientUnits="userSpaceOnUse"
       gradientTransform="matrix(2.4590366,0,0,2.4590366,-52.525319,-43.771099)" />
  </defs>
  <sodipodi:namedview
     id="namedview13"
     pagecolor="#505050"
     bordercolor="#eeeeee"
     borderopacity="1"
     inkscape:showpageshadow="0"
     inkscape:pageopacity="0"
     inkscape:pagecheckerboard="0"
     inkscape:deskcolor="#505050"
     inkscape:zoom="18.28125"
     inkscape:cx="20.540171"
     inkscape:cy="35.008547"
     inkscape:current-layer="svg13" />
  <rect
     style="fill:url(#radialGradient14-3);fill-opacity:1;stroke-width:1.15965"
     width="38.855213"
     height="38.855213"
     x="25.827227"
     y="-19.427607"
     ry="6.5008373"
     transform="rotate(45)"
     id="rect4-5"
     rx="6.5008373" />
  <rect
     style="mix-blend-mode:normal;fill:none;fill-opacity:1;stroke:#000000;stroke-width:0.2;stroke-dasharray:none;stroke-opacity:1;filter:url(#filter29)"
     width="42.00346"
     height="42.00346"
     x="24.253103"
     y="-21.00173"
     ry="7.0275683"
     transform="matrix(0.65410766,0.65410766,-0.65410766,0.65410766,2.3984663,2.3984664)"
     id="rect4-5-6"
     rx="7.0275683" />
  <rect
     style="fill:url(#radialGradient14);stroke-width:1.00785"
     width="33.76897"
     height="33.76897"
     x="28.368652"
     y="-16.88171"
     ry="4.1261315"
     transform="rotate(45)"
     id="rect4" />
  <rect
     style="fill:none;stroke-width:0.2;stroke:#000000;stroke-opacity:1;stroke-dasharray:none;filter:url(#filter30)"
     width="33.76897"
     height="33.76897"
     x="28.37035"
     y="-16.884485"
     ry="4.1261315"
     transform="rotate(45)"
     id="rect4-8" />
  <path
     style="fill:#ffffff;stroke-width:1.00785"
     d="m 28.301806,11.825402 -1.408924,1.40409 c 1.313862,-0.500642 2.84304,-0.220861 3.911073,0.847174 l 19.171021,19.17102 c 1.023888,1.023886 1.324504,2.473047 0.906719,3.748675 l 1.506227,-1.506223 c -0.09184,-1.162666 -0.545453,-2.334555 -1.433148,-3.222251 L 31.783752,13.096867 C 30.86996,12.183075 29.500014,11.895855 28.301806,11.825402 Z"
     id="path5"
     sodipodi:nodetypes="cccccccsc" />
  <path
     id="rect28-2"
     style="opacity:0.193259;mix-blend-mode:normal;fill:#004703;fill-opacity:1;stroke:none;stroke-width:0.18501;stroke-linecap:square;paint-order:stroke fill markers"
     d="M 31.849609 18.511719 A 2.9002262 2.9002262 0 0 0 29.484375 19.34375 L 29.458984 19.369141 A 2.592882 2.592882 0 0 0 26.253906 19.734375 L 16.509766 29.478516 L 17.126953 30.097656 L 26.886719 20.339844 A 1.7723692 1.7723692 0 0 1 28.84375 19.984375 L 19.945312 28.882812 L 20.5625 29.501953 L 29.558594 20.505859 L 34.675781 25.623047 L 35.244141 25.056641 L 30.136719 19.949219 A 2.1869514 2.1869514 0 0 1 33.121094 20.015625 L 37.529297 24.369141 A 0.89001688 0.89001688 0 0 0 37.400391 23.113281 L 33.574219 19.332031 A 2.9002262 2.9002262 0 0 0 31.849609 18.511719 z M 28.650391 24.484375 A 3.6321983 3.6321983 0 0 0 26.082031 25.548828 L 17.072266 34.558594 L 17.691406 35.177734 L 26.791016 26.076172 A 2.7022837 2.7022837 0 0 1 30.613281 26.076172 L 32.664062 28.126953 L 31.810547 28.980469 A 1.5011971 1.5011971 0 0 1 29.695312 28.988281 L 29.433594 28.732422 A 2.1355216 2.1355216 0 0 0 26.466797 28.703125 L 24.056641 30.984375 L 23.248047 30.175781 L 22.667969 30.755859 L 33.091797 41.179688 L 33.671875 40.599609 L 32.607422 39.535156 L 34.871094 37.144531 A 2.1355216 2.1355216 0 0 0 34.841797 34.177734 L 34.583984 33.916016 A 1.5011971 1.5011971 0 0 1 34.591797 31.800781 L 35.445312 30.947266 L 37.496094 32.998047 A 2.7022838 2.7022838 0 0 1 37.496094 36.820312 L 30.113281 44.203125 L 19.912109 34.001953 L 19.332031 34.582031 L 29.533203 44.783203 L 28.992188 45.324219 L 18.792969 35.123047 L 18.212891 35.703125 L 28.414062 45.902344 L 28.396484 45.919922 L 29.013672 46.539062 L 38.025391 37.527344 A 3.6321984 3.6321984 0 0 0 38.025391 32.390625 L 36.013672 30.380859 L 36.357422 30.037109 L 35.789062 29.46875 L 35.466797 29.796875 L 33.792969 28.123047 L 34.140625 27.783203 L 33.574219 27.216797 L 33.230469 27.560547 L 31.21875 25.548828 A 3.6321983 3.6321983 0 0 0 28.650391 24.484375 z M 39.859375 25.884766 A 0.89001689 0.89001689 0 0 0 39.205078 26.082031 L 43.556641 30.490234 A 2.1869514 2.1869514 0 0 1 43.632812 33.482422 L 38.517578 28.367188 L 37.949219 28.935547 L 43.068359 34.052734 L 34.072266 43.048828 L 34.691406 43.666016 L 43.601562 34.755859 A 1.7723692 1.7723692 0 0 1 43.234375 36.724609 L 33.476562 46.482422 L 34.09375 47.101562 L 43.839844 37.355469 A 2.5928821 2.5928821 0 0 0 44.205078 34.152344 L 44.230469 34.126953 A 2.9002263 2.9002263 0 0 0 44.242188 30.037109 L 40.458984 26.210938 A 0.89001689 0.89001689 0 0 0 39.859375 25.884766 z M 33.201172 28.701172 L 34.888672 30.390625 L 33.871094 31.431641 A 2.1407268 2.1407268 0 0 0 33.849609 34.402344 L 34.011719 34.572266 A 1.5808648 1.5808648 0 0 1 34.019531 36.740234 L 31.986328 38.914062 L 24.677734 31.605469 L 26.869141 29.554688 A 1.5808648 1.5808648 0 0 1 29.039062 29.5625 L 29.208984 29.722656 A 2.1407267 2.1407267 0 0 0 32.179688 29.701172 L 33.201172 28.701172 z M 22.126953 31.294922 L 21.546875 31.875 L 31.970703 42.300781 L 32.550781 41.720703 L 22.126953 31.294922 z " />
  <path
     d="m 20.915685,22.989817 c -0.42843,0 -0.856932,0.164952 -1.185217,0.493238 l -0.240296,0.240295 c 0.486772,0.02862 0.963951,0.226801 1.335177,0.59803 l 7.788831,7.787024 c 0.360626,0.360626 0.558932,0.823094 0.596222,1.295428 l 0.220422,-0.220421 c 0.656572,-0.656572 0.656572,-1.713863 0,-2.370435 l -7.329921,-7.329921 c -0.328286,-0.328286 -0.756786,-0.493238 -1.185218,-0.493238 z m -1.452614,1.290008 c -0.210135,-0.01323 -0.423165,0.01768 -0.623324,0.09395 l -6.441007,6.439201 c -0.656572,0.656572 -0.656572,1.713863 0,2.370435 l 7.331728,7.329921 c 0.656572,0.656572 1.713863,0.656572 2.370435,0 l 6.484369,-6.48437 c 0.169726,-0.518222 0.04738,-1.105315 -0.368574,-1.52127 l -7.788831,-7.788831 c -0.271182,-0.271189 -0.614571,-0.41699 -0.964796,-0.439036 z"
     style="baseline-shift:baseline;display:inline;overflow:visible;vector-effect:none;fill:#ffffff;stroke-width:0.925048;enable-background:accumulate;stop-color:#000000;stop-opacity:1;opacity:1;fill-opacity:1"
     id="path19" />
  <path
     d="m 32.003613,34.079551 c -0.42843,0 -0.856931,0.163146 -1.185217,0.491432 l -0.238489,0.238488 c 0.485534,0.02938 0.961246,0.22771 1.331563,0.59803 l 7.788831,7.787024 c 0.360629,0.360627 0.558934,0.823096 0.596223,1.295429 l -0.62513,0.626936 c 0.169725,-0.518223 0.04738,-1.107121 -0.368575,-1.523077 l -7.788831,-7.788831 c -0.432439,-0.432454 -1.050153,-0.547478 -1.582699,-0.346893 l -6.442814,6.442815 c -0.656572,0.656572 -0.656572,1.713863 0,2.370435 l 7.329921,7.331727 c 0.656572,0.656572 1.713864,0.656572 2.370435,0 l 7.329921,-7.331727 c 0.656572,-0.656572 0.656572,-1.713863 0,-2.370435 l -7.329921,-7.329921 c -0.328286,-0.328286 -0.756786,-0.491432 -1.185218,-0.491432 z"
     style="baseline-shift:baseline;display:inline;overflow:visible;vector-effect:none;fill:#ffffff;stroke-width:0.925048;enable-background:accumulate;stop-color:#000000;stop-opacity:1;opacity:1;fill-opacity:1"
     id="path17" />
  <path
     id="path27"
     style="baseline-shift:baseline;display:inline;overflow:visible;vector-effect:none;fill:url(#radialGradient28);stroke-width:0.846886;enable-background:accumulate;stop-color:#000000;stop-opacity:1"
     d="m 20.210446,26.145261 c -0.139155,0 -0.277116,0.05382 -0.383745,0.160445 l -0.07939,0.07939 c 0.158171,0.0093 0.312735,0.07289 0.433367,0.193527 l 2.530731,2.530731 c 0.117162,0.117184 0.181349,0.268309 0.193528,0.42179 l 0.07278,-0.07278 c 0.213256,-0.213257 0.213256,-0.557542 0,-0.770799 L 20.595851,26.3057 C 20.489223,26.199072 20.349609,26.145255 20.210452,26.145255 Z M 19.7043,26.565396 c -0.057,4.13e-4 -0.114516,0.01077 -0.168715,0.03143 l -2.092403,2.090748 c -0.213257,0.213257 -0.213257,0.557543 0,0.770799 l 2.383519,2.381865 c 0.213257,0.213256 0.555888,0.213256 0.769144,0 l 2.105636,-2.105635 c 0.05516,-0.16839 0.01607,-0.359412 -0.119094,-0.494567 L 20.051655,26.709302 C 19.954725,26.612373 19.829692,26.56449 19.7043,26.565397 Z m -2.892975,3.17582 c -0.139155,0 -0.27877,0.05216 -0.385399,0.158792 l -0.07609,0.07609 c 0.15761,0.0096 0.313155,0.07331 0.433367,0.193525 l 2.530732,2.530733 c 0.117188,0.11718 0.181348,0.268309 0.193526,0.421787 l 0.07113,-0.06947 c 0.213256,-0.213257 0.213256,-0.555887 0,-0.769144 L 17.196724,29.90001 c -0.106628,-0.106628 -0.246243,-0.158792 -0.3854,-0.158792 z m 2.69614,3.380925 -0.203451,0.201799 c 0.05516,-0.168393 0.01607,-0.359413 -0.119092,-0.494569 l -2.530734,-2.530732 c -0.140987,-0.140988 -0.342632,-0.176905 -0.51607,-0.110822 l -2.094057,2.09571 c -0.213257,0.213257 -0.213257,0.555887 0,0.769144 l 2.381865,2.381865 c 0.213257,0.213257 0.557542,0.213257 0.770799,0 z m 4.441187,-3.28995 c -0.139156,0 -0.277117,0.05382 -0.383745,0.160445 l -0.07443,0.07443 c 0.157028,0.01 0.310259,0.07373 0.43006,0.193526 l 2.530732,2.530734 c 0.117163,0.117183 0.181347,0.268307 0.193526,0.421787 l 0.07113,-0.06947 c 0.213257,-0.213257 0.213257,-0.555887 0,-0.769144 L 24.33406,29.992634 c -0.106629,-0.106628 -0.246244,-0.160445 -0.385399,-0.160445 z m -0.521034,0.415172 c -0.04981,0.0023 -0.09952,0.0122 -0.147212,0.02977 L 21.183041,32.3745 c -0.213256,0.213257 -0.213256,0.555887 0,0.769144 l 2.381866,2.381866 c 0.213257,0.213257 0.555887,0.213257 0.769144,0 l 2.107289,-2.108943 c 0.05516,-0.168392 0.01607,-0.359414 -0.119093,-0.494569 l -2.530732,-2.530731 c -0.08812,-0.08812 -0.200464,-0.136639 -0.314274,-0.143905 -0.01664,-0.0011 -0.03301,-7.63e-4 -0.04962,0 z m -3.033569,3.101388 c -0.139156,0 -0.278772,0.05382 -0.385399,0.160445 l -0.07278,0.07278 c 0.155928,0.01066 0.30944,0.07456 0.428406,0.193527 l 2.530731,2.530732 c 0.117179,0.117182 0.181349,0.268308 0.193527,0.421789 l -0.203452,0.20345 c 0.05516,-0.16839 0.01609,-0.359412 -0.119092,-0.494568 L 20.23526,33.906171 C 20.09601,33.76692 19.897779,33.729297 19.725807,33.79204 l -2.09902,2.099019 c -0.213256,0.213257 -0.213256,0.555887 0,0.769145 l 2.381866,2.381865 c 0.213256,0.213256 0.555887,0.213256 0.769143,0 l 2.38352,-2.381865 c 0.213256,-0.213258 0.213256,-0.555888 0,-0.769145 l -2.38352,-2.381865 c -0.106628,-0.106629 -0.244589,-0.160445 -0.383744,-0.160445 z" />
  <rect
     style="fill:#4e4e4e;stroke-width:0.533207"
     width="6.3984771"
     height="6.3984771"
     x="41.884846"
     y="-8.4422207"
     rx="1.2796955"
     ry="1.2796955"
     id="rect2"
     transform="rotate(45)" />
  <rect
     style="fill:none;stroke:#000000;stroke-width:0.2;stroke-dasharray:none;stroke-opacity:1;filter:url(#filter35)"
     width="11.063371"
     height="11.063371"
     x="32.782436"
     y="25.303366"
     rx="2.2126744"
     ry="2.2126744"
     id="rect2-9"
     transform="matrix(0.40895371,0.40895371,-0.40895371,0.40895371,32.507224,-0.11727088)" />
  <path
     id="rect12"
     style="fill:url(#radialGradient2);fill-opacity:1;stroke:none"
     d="m 32,22.006319 v 1.987362 A 1.0063191,1.0063191 45 0 0 33.006319,25 1.00002,1.00002 134.63795 0 0 34,23.993681 V 22.006319 A 1.0063191,1.0063191 45 0 0 32.993681,21 1.00002,1.00002 134.63795 0 0 32,22.006319 Z m 6,0 v 1.987362 A 1.0063191,1.0063191 45 0 0 39.006319,25 1.00002,1.00002 134.63795 0 0 40,23.993681 V 22.006319 A 1.0063191,1.0063191 45 0 0 38.993681,21 1.00002,1.00002 134.63795 0 0 38,22.006319 Z m -11,5 A 1.00002,1.00002 44.637947 0 0 28.006319,28 h 1.987362 A 1.0063191,1.0063191 135 0 0 31,26.993681 1.00002,1.00002 44.637947 0 0 29.993681,26 H 28.006319 A 1.0063191,1.0063191 135 0 0 27,27.006319 Z m 14,0 A 1.00002,1.00002 44.637947 0 0 42.006319,28 h 1.987362 A 1.0063191,1.0063191 135 0 0 45,26.993681 1.00002,1.00002 44.637947 0 0 43.993681,26 H 42.006319 A 1.0063191,1.0063191 135 0 0 41,27.006319 Z m -14,6 A 1.00002,1.00002 44.637947 0 0 28.006319,34 h 1.987362 A 1.0063191,1.0063191 135 0 0 31,32.993681 1.00002,1.00002 44.637947 0 0 29.993681,32 H 28.006319 A 1.0063191,1.0063191 135 0 0 27,33.006319 Z m 14,0 A 1.00002,1.00002 44.637947 0 0 42.006319,34 h 1.987362 A 1.0063191,1.0063191 135 0 0 45,32.993681 1.00002,1.00002 44.637947 0 0 43.993681,32 H 42.006319 A 1.0063191,1.0063191 135 0 0 41,33.006319 Z m -9,3 v 1.987362 A 1.0063191,1.0063191 45 0 0 33.006319,39 1.00002,1.00002 134.63795 0 0 34,37.993681 V 36.006319 A 1.0063191,1.0063191 45 0 0 32.993681,35 1.00002,1.00002 134.63795 0 0 32,36.006319 Z m 6,0 v 1.987362 A 1.0063191,1.0063191 45 0 0 39.006319,39 1.00002,1.00002 134.63795 0 0 40,37.993681 V 36.006319 A 1.0063191,1.0063191 45 0 0 38.993681,35 1.00002,1.00002 134.63795 0 0 38,36.006319 Z"
     transform="matrix(0.37703388,0.37703388,-0.37703388,0.37703388,33.324408,3.2876785)"
     inkscape:original-d="m 32,21 v 4 h 2 v -4 z m 6,0 v 4 h 2 v -4 z m -11,5 v 2 h 4 v -2 z m 14,0 v 2 h 4 v -2 z m -14,6 v 2 h 4 v -2 z m 14,0 v 2 h 4 v -2 z m -9,3 v 4 h 2 v -4 z m 6,0 v 4 h 2 v -4 z"
     inkscape:path-effect="#path-effect29" />
</svg>
