<?xml version="1.0" encoding="UTF-8" standalone="no"?>
<svg
   width="64"
   height="64"
   version="1"
   id="svg8"
   sodipodi:docname="appimagekit-hyper.svg"
   inkscape:version="1.3.2 (091e20ef0f, 2023-11-25, custom)"
   xmlns:inkscape="http://www.inkscape.org/namespaces/inkscape"
   xmlns:sodipodi="http://sodipodi.sourceforge.net/DTD/sodipodi-0.dtd"
   xmlns:xlink="http://www.w3.org/1999/xlink"
   xmlns="http://www.w3.org/2000/svg"
   xmlns:svg="http://www.w3.org/2000/svg">
  <defs
     id="defs8">
    <inkscape:path-effect
       effect="fillet_chamfer"
       id="path-effect9"
       is_visible="true"
       lpeversion="1"
       nodesatellites_param="F,0,0,1,0,0,0,1 @ F,0,1,1,0,3.1063821,0,1 @ F,0,0,1,0,1.145484,0,1 @ F,0,0,1,0,0,0,1 @ F,0,0,1,0,3.1063821,0,1 @ F,0,0,1,0,1.145484,0,1 | F,0,0,1,0,1.5023482,0,1 @ F,0,0,1,0,1.5023482,0,1 @ F,0,0,1,0,1.5023482,0,1 @ F,0,0,1,0,1.5023482,0,1"
       radius="0"
       unit="px"
       method="auto"
       mode="F"
       chamfer_steps="1"
       flexible="false"
       use_knot_distance="true"
       apply_no_radius="true"
       apply_with_radius="true"
       only_selected="false"
       hide_knots="false" />
    <linearGradient
       id="linearGradient8"
       inkscape:collect="always">
      <stop
         style="stop-color:#f746b3;stop-opacity:1;"
         offset="0"
         id="stop8" />
      <stop
         style="stop-color:#f76c46;stop-opacity:1;"
         offset="1"
         id="stop9" />
    </linearGradient>
    <radialGradient
       inkscape:collect="always"
       xlink:href="#linearGradient8"
       id="radialGradient9"
       cx="16.967617"
       cy="32.176067"
       fx="16.967617"
       fy="32.176067"
       r="28"
       gradientUnits="userSpaceOnUse"
       gradientTransform="matrix(0,2.0779409,-2.6151249,0,84.595647,-35.033767)" />
    <inkscape:path-effect
       effect="fillet_chamfer"
       id="path-effect9-3"
       is_visible="true"
       lpeversion="1"
       nodesatellites_param="F,0,0,1,0,0,0,1 @ F,0,1,1,0,3.1063821,0,1 @ F,0,0,1,0,1.145484,0,1 @ F,0,0,1,0,0,0,1 @ F,0,0,1,0,3.1063821,0,1 @ F,0,0,1,0,1.145484,0,1 | F,0,0,1,0,1.5023482,0,1 @ F,0,0,1,0,1.5023482,0,1 @ F,0,0,1,0,1.5023482,0,1 @ F,0,0,1,0,1.5023482,0,1"
       radius="0"
       unit="px"
       method="auto"
       mode="F"
       chamfer_steps="1"
       flexible="false"
       use_knot_distance="true"
       apply_no_radius="true"
       apply_with_radius="true"
       only_selected="false"
       hide_knots="false" />
    <filter
       inkscape:collect="always"
       style="color-interpolation-filters:sRGB"
       id="filter10"
       x="-0.050187588"
       y="-0.067372511"
       width="1.0976826"
       height="1.1347449">
      <feGaussianBlur
         inkscape:collect="always"
         stdDeviation="0.40959044"
         id="feGaussianBlur10" />
    </filter>
    <filter
       inkscape:collect="always"
       style="color-interpolation-filters:sRGB"
       id="filter11"
       x="-0.087906724"
       y="-0.087906723"
       width="1.1758134"
       height="1.1758134">
      <feGaussianBlur
         inkscape:collect="always"
         stdDeviation="1.5491233"
         id="feGaussianBlur11" />
    </filter>
    <filter
       inkscape:collect="always"
       style="color-interpolation-filters:sRGB"
       id="filter12"
       x="-0.069069569"
       y="-0.069069569"
       width="1.1381391"
       height="1.1381391">
      <feGaussianBlur
         inkscape:collect="always"
         stdDeviation="1.5491233"
         id="feGaussianBlur12" />
    </filter>
  </defs>
  <sodipodi:namedview
     id="namedview8"
     pagecolor="#505050"
     bordercolor="#eeeeee"
     borderopacity="1"
     inkscape:showpageshadow="0"
     inkscape:pageopacity="0"
     inkscape:pagecheckerboard="0"
     inkscape:deskcolor="#505050"
     inkscape:zoom="9.4244076"
     inkscape:cx="21.168439"
     inkscape:cy="26.15549"
     inkscape:window-width="1920"
     inkscape:window-height="1010"
     inkscape:window-x="0"
     inkscape:window-y="0"
     inkscape:window-maximized="1"
     inkscape:current-layer="svg8" />
  <path
     id="path2"
     style="fill:url(#radialGradient9)"
     d="M 20.800781 4 C 11.493591 4 4 11.493591 4 20.800781 L 4 32 L 4 43.199219 C 4 52.506409 11.493591 60 20.800781 60 L 43.199219 60 C 52.506409 60 60 52.506409 60 43.199219 L 60 32 L 60 20.800781 C 60 11.493591 52.506409 4 43.199219 4 L 20.800781 4 z " />
  <path
     style="fill:#3f3f3f"
     d="m 21,10 h 22 c 6.189135,0 11,4.810865 11,11 v 22 c 0,6.189135 -4.810865,11 -11,11 H 21 C 14.810865,54 10,49.189135 10,43 V 21 c 0,-6.189135 4.810865,-11 11,-11 z"
     id="path5" />
  <path
     style="fill:#ffffff"
     d="m 23.75,15 -6.419442,5.657134 a 2.1552569,2.1552569 83.365407 0 0 0.409182,3.517852 1.3454139,1.3454139 68.530207 0 1 0.638455,1.623322 L 16.25,32 22.669442,26.342866 A 2.1552569,2.1552569 83.365407 0 0 22.26026,22.825014 1.3454139,1.3454139 68.530207 0 1 21.621805,21.201692 Z M 28,30.502348 A 1.5000018,1.5000018 44.910305 0 0 29.502348,32 h 6.995304 A 1.5023482,1.5023482 135 0 0 38,30.497652 1.5000018,1.5000018 44.910305 0 0 36.497652,29 H 29.502348 A 1.5023482,1.5023482 135 0 0 28,30.502348 Z"
     id="path7"
     inkscape:path-effect="#path-effect9"
     inkscape:original-d="M 23.75 15 L 15 22.710938 L 18.75 24.714844 L 16.25 32 L 25 24.289062 L 21.25 22.285156 L 23.75 15 z M 28 29 L 28 32 L 38 32 L 38 29 L 28 29 z" />
  <path
     id="path2-3"
     style="fill:none;stroke:#000000;stroke-opacity:1;stroke-width:0.29999992;stroke-dasharray:none;filter:url(#filter12)"
     d="M 20.800781,4.0000002 C 11.493591,4.0000002 4,11.493591 4,20.800781 V 32 43.199219 C 4,52.506409 11.493591,60 20.800781,60 H 43.199219 C 52.506409,60 60,52.506409 60,43.199219 V 32 20.800781 C 60,11.493591 52.506409,4.0000002 43.199219,4.0000002 Z" />
  <path
     style="fill:none;stroke:#000000;stroke-opacity:1;stroke-width:0.29999992;stroke-dasharray:none;filter:url(#filter11)"
     d="m 21,9.9999998 h 22 c 6.189135,0 11,4.8108652 11,11.0000002 v 22 c 0,6.189135 -4.810865,11 -11,11 H 21 C 14.810865,54 10,49.189135 10,43 V 21 C 10,14.810865 14.810865,9.9999998 21,9.9999998 Z"
     id="path5-5" />
  <path
     style="mix-blend-mode:normal;fill:none;stroke:#ff009f;stroke-width:0.1;stroke-dasharray:none;stroke-opacity:1;filter:url(#filter10)"
     d="m 23.75,15 -6.419442,5.657134 a 2.1552569,2.1552569 83.365407 0 0 0.409182,3.517852 1.3454139,1.3454139 68.530207 0 1 0.638455,1.623322 L 16.25,32 22.669442,26.342866 A 2.1552569,2.1552569 83.365407 0 0 22.26026,22.825014 1.3454139,1.3454139 68.530207 0 1 21.621805,21.201692 Z M 28,30.502348 A 1.5000018,1.5000018 44.910305 0 0 29.502348,32 h 6.995304 A 1.5023482,1.5023482 135 0 0 38,30.497652 1.5000018,1.5000018 44.910305 0 0 36.497652,29 H 29.502348 A 1.5023482,1.5023482 135 0 0 28,30.502348 Z"
     id="path7-6"
     inkscape:path-effect="#path-effect9-3"
     inkscape:original-d="M 23.75,15 15,22.710938 18.75,24.714844 16.25,32 25,24.289062 21.25,22.285156 Z M 28,29 v 3 h 10 v -3 z"
     transform="translate(-0.04344292)" />
</svg>
