<?xml version="1.0" encoding="UTF-8" standalone="no"?>
<svg
   width="64"
   height="64"
   version="1.1"
   id="svg3"
   sodipodi:docname="icloud.svg"
   inkscape:version="1.3.2 (091e20ef0f, 2023-11-25, custom)"
   xmlns:inkscape="http://www.inkscape.org/namespaces/inkscape"
   xmlns:sodipodi="http://sodipodi.sourceforge.net/DTD/sodipodi-0.dtd"
   xmlns:xlink="http://www.w3.org/1999/xlink"
   xmlns="http://www.w3.org/2000/svg"
   xmlns:svg="http://www.w3.org/2000/svg">
  <defs
     id="defs3">
    <linearGradient
       id="linearGradient3"
       inkscape:collect="always">
      <stop
         style="stop-color:#00fffc;stop-opacity:1;"
         offset="0"
         id="stop3" />
      <stop
         style="stop-color:#1296f5;stop-opacity:1;"
         offset="1"
         id="stop4" />
    </linearGradient>
    <filter
       inkscape:collect="always"
       style="color-interpolation-filters:sRGB"
       id="filter3"
       x="-0.036309837"
       y="-0.056481969"
       width="1.0726197"
       height="1.1129639">
      <feGaussianBlur
         inkscape:collect="always"
         stdDeviation="0.84722957"
         id="feGaussianBlur3" />
    </filter>
    <radialGradient
       inkscape:collect="always"
       xlink:href="#linearGradient3"
       id="radialGradient4"
       cx="18.098909"
       cy="53.303013"
       fx="18.098909"
       fy="53.303013"
       r="28"
       gradientTransform="matrix(1.3883471,-0.37200649,0.32623007,1.2175071,-24.417704,-12.469093)"
       gradientUnits="userSpaceOnUse" />
  </defs>
  <sodipodi:namedview
     id="namedview3"
     pagecolor="#ffffff"
     bordercolor="#000000"
     borderopacity="0.25"
     inkscape:showpageshadow="2"
     inkscape:pageopacity="0.0"
     inkscape:pagecheckerboard="0"
     inkscape:deskcolor="#d1d1d1"
     inkscape:zoom="13.890625"
     inkscape:cx="32"
     inkscape:cy="32"
     inkscape:window-width="1920"
     inkscape:window-height="1018"
     inkscape:window-x="0"
     inkscape:window-y="0"
     inkscape:window-maximized="1"
     inkscape:current-layer="svg3" />
  <path
     style="opacity:0.45889318;filter:url(#filter3)"
     d="M 36.3,15 C 30.8,15.02 25.73,17.98 23.02,22.77 21.92,22.26 20.72,22 19.5,22 15.44,22.01 11.95,24.89 11.18,28.87 6.85,30.63 4.01,34.83 4,39.5 4,45.85 9.15,51 15.5,51 H 49 C 55.08,51 60,46.08 60,40 60,34.91 55.847,30.093 51,30 51,21 44.36,15 36.3,15 Z"
     id="path1" />
  <path
     style="fill:url(#radialGradient4)"
     d="M 36.3,14 C 30.8,14.02 25.73,16.98 23.02,21.77 21.92,21.26 20.72,21 19.5,21 15.44,21.01 11.95,23.89 11.18,27.87 6.85,29.63 4.01,33.83 4,38.5 4,44.85 9.15,50 15.5,50 H 49 C 55.08,50 60,45.08 60,39 60,33.91 55.847,29.093 51,29 51,20 44.36,14 36.3,14 Z"
     id="path2" />
</svg>
