<?xml version="1.0" encoding="UTF-8" standalone="no"?>
<svg
   width="64"
   height="64"
   version="1"
   id="svg6"
   sodipodi:docname="email.svg"
   inkscape:version="1.3.2 (091e20ef0f, 2023-11-25, custom)"
   xmlns:inkscape="http://www.inkscape.org/namespaces/inkscape"
   xmlns:sodipodi="http://sodipodi.sourceforge.net/DTD/sodipodi-0.dtd"
   xmlns="http://www.w3.org/2000/svg"
   xmlns:svg="http://www.w3.org/2000/svg">
  <defs
     id="defs6">
    <filter
       inkscape:collect="always"
       style="color-interpolation-filters:sRGB"
       id="filter8"
       x="-0.11252405"
       y="-0.15894379"
       width="1.2208147"
       height="1.3153637">
      <feGaussianBlur
         inkscape:collect="always"
         stdDeviation="2.1097607"
         id="feGaussianBlur8" />
    </filter>
    <filter
       inkscape:collect="always"
       style="color-interpolation-filters:sRGB"
       id="filter9"
       x="-0.1082907"
       y="-0.15894379"
       width="1.2208148"
       height="1.3153637">
      <feGaussianBlur
         inkscape:collect="always"
         stdDeviation="2.1097607"
         id="feGaussianBlur9" />
    </filter>
    <filter
       inkscape:collect="always"
       style="color-interpolation-filters:sRGB"
       id="filter10"
       x="-0.1279814"
       y="-0.15642325"
       width="1.2559628"
       height="1.3128465">
      <feGaussianBlur
         inkscape:collect="always"
         stdDeviation="2.1097607"
         id="feGaussianBlur10" />
    </filter>
    <filter
       inkscape:collect="always"
       style="color-interpolation-filters:sRGB"
       id="filter11"
       x="-0.1005556"
       y="-0.11221306"
       width="1.2011112"
       height="1.2239478">
      <feGaussianBlur
         inkscape:collect="always"
         stdDeviation="2.1097607"
         id="feGaussianBlur11" />
    </filter>
  </defs>
  <sodipodi:namedview
     id="namedview6"
     pagecolor="#ffffff"
     bordercolor="#000000"
     borderopacity="0.25"
     inkscape:showpageshadow="2"
     inkscape:pageopacity="0.0"
     inkscape:pagecheckerboard="0"
     inkscape:deskcolor="#d1d1d1"
     inkscape:zoom="6.3359375"
     inkscape:cx="25.01603"
     inkscape:cy="29.277435"
     inkscape:window-width="1920"
     inkscape:window-height="1010"
     inkscape:window-x="0"
     inkscape:window-y="0"
     inkscape:window-maximized="1"
     inkscape:current-layer="svg6" />
  <path
     style="fill:#fe9700;stroke-width:0.915474"
     d="m 7.5339469,23.454285 c -0.052638,0.03424 -0.100351,0.0747 -0.1502061,0.1126 l -0.030027,0.02252 v 0.0037 c -0.5966864,0.468526 -0.986263,1.189181 -0.986263,2.010133 l 2.75e-5,22.335009 c 3.6e-6,3.661777 2.8874943,3.661777 3.6617777,3.661777 H 53.97058 c 0,0 3.661776,0 3.661776,-3.661777 l -3.6e-5,-22.335009 c 0,-0.839481 -0.406237,-1.575589 -1.026286,-2.042539 l 0.01098,-0.01465 L 32.000723,5.464158 c 0,0 -24.6162957,18.104924 -24.4661629,17.992324 z"
     id="path2" />
  <path
     style="fill:none;stroke:#000000;stroke-width:0.183095;stroke-dasharray:none;stroke-opacity:1;filter:url(#filter11)"
     d="m 7.5339466,23.454285 c -0.05264,0.03424 -0.1003507,0.0747 -0.1502065,0.1126 l -0.030028,0.02252 v 0.0037 C 6.7570275,24.061593 6.367451,24.782248 6.367451,25.6032 l 2.75e-5,22.335009 c 3.7e-6,3.661777 2.8874939,3.661777 3.6617765,3.661777 H 53.97058 c 0,0 3.661776,0 3.661776,-3.661777 L 57.63232,25.6032 c 0,-0.839481 -0.406237,-1.575589 -1.026286,-2.042539 l 0.01098,-0.01465 L 32.000723,5.4641579 c 0,0 -24.6162963,18.1049241 -24.466163,17.9923241 z"
     id="path2-3" />
  <path
     id="rect3"
     style="fill:#ebebeb;stroke-width:0.915474"
     d="m 14.60672,10.953918 c -1.521516,0 -2.746423,1.224133 -2.746423,2.744635 v 27.467806 c 0,1.520502 1.224907,2.742847 2.746423,2.742847 h 34.786237 c 1.521516,0 2.746423,-1.222345 2.746423,-2.742847 V 13.698553 c 0,-1.520502 -1.224907,-2.744635 -2.746423,-2.744635 z m 17.394012,5.492846 v 0.0018 a 9.1544425,9.1544425 0 0 1 9.152956,9.154743 v 2.746423 c 0,1.521466 -1.224957,2.746423 -2.746423,2.746423 -1.122334,0 -2.078442,-0.671261 -2.505038,-1.632476 a 5.4926655,5.4926655 0 0 1 -3.901495,1.630645 5.4926655,5.4926655 0 0 1 -5.492846,-5.492846 5.4926655,5.4926655 0 0 1 5.492846,-5.492846 5.4926655,5.4926655 0 0 1 5.492846,5.492846 v 2.746423 c 0,0.507156 0.408319,0.915475 0.915475,0.915475 0.507155,0 0.915474,-0.408319 0.915474,-0.915475 v -2.746423 a 7.323554,7.323554 0 0 0 -7.323795,-7.323794 7.323554,7.323554 0 0 0 -7.323794,7.323794 7.323554,7.323554 0 0 0 7.323794,7.323795 h 6.408321 c 0.507155,0 0.915474,0.408319 0.915474,0.915474 0,0.507155 -0.408319,0.915475 -0.915474,0.915475 h -6.408321 a 9.1544425,9.1544425 0 0 1 -9.154743,-9.154744 9.1544425,9.1544425 0 0 1 9.154743,-9.154743 z m 0,5.492846 a 3.661777,3.661777 0 0 0 -3.661897,3.661897 3.661777,3.661777 0 0 0 3.661897,3.661898 3.661777,3.661777 0 0 0 3.661898,-3.661898 3.661777,3.661777 0 0 0 -3.661898,-3.661897 z" />
  <path
     id="rect3-6"
     style="fill:none;stroke:#000000;stroke-width:0.183095;stroke-dasharray:none;stroke-opacity:1;filter:url(#filter10)"
     d="m 14.60672,10.953918 c -1.521516,0 -2.746423,1.224133 -2.746423,2.744635 v 27.467806 c 0,1.520502 1.224907,2.742847 2.746423,2.742847 h 34.786237 c 1.521516,0 2.746423,-1.222345 2.746423,-2.742847 V 13.698553 c 0,-1.520502 -1.224907,-2.744635 -2.746423,-2.744635 z m 17.394012,5.492846 v 0.0018 a 9.1544425,9.1544425 0 0 1 9.152956,9.154743 v 2.746423 c 0,1.521466 -1.224957,2.746423 -2.746423,2.746423 -1.122334,0 -2.078442,-0.671261 -2.505038,-1.632476 a 5.4926655,5.4926655 0 0 1 -3.901495,1.630645 5.4926655,5.4926655 0 0 1 -5.492846,-5.492846 5.4926655,5.4926655 0 0 1 5.492846,-5.492846 5.4926655,5.4926655 0 0 1 5.492846,5.492846 v 2.746423 c 0,0.507156 0.408319,0.915475 0.915475,0.915475 0.507155,0 0.915474,-0.408319 0.915474,-0.915475 v -2.746423 a 7.323554,7.323554 0 0 0 -7.323795,-7.323794 7.323554,7.323554 0 0 0 -7.323794,7.323794 7.323554,7.323554 0 0 0 7.323794,7.323795 h 6.408321 c 0.507155,0 0.915474,0.408319 0.915474,0.915474 0,0.507155 -0.408319,0.915475 -0.915474,0.915475 h -6.408321 a 9.1544425,9.1544425 0 0 1 -9.154743,-9.154744 9.1544425,9.1544425 0 0 1 9.154743,-9.154743 z m 0,5.492846 a 3.661777,3.661777 0 0 0 -3.661897,3.661897 3.661777,3.661777 0 0 0 3.661897,3.661898 3.661777,3.661777 0 0 0 3.661898,-3.661898 3.661777,3.661777 0 0 0 -3.661898,-3.661897 z" />
  <path
     style="fill:#fec006;stroke-width:0.915474"
     d="M 6.3676708,25.601917 53.970772,58.557911 H 10.029448 C 8.1985593,58.557896 6.3676708,57.652536 6.3676708,54.936414 Z"
     id="path4" />
  <path
     style="fill:none;stroke:#000000;stroke-width:0.183095;stroke-dasharray:none;stroke-opacity:1;filter:url(#filter9)"
     d="M 6.3676707,25.601917 53.970772,58.557911 H 10.029447 C 8.198559,58.557896 6.3676707,57.652536 6.3676707,54.936414 Z"
     id="path4-7" />
  <path
     style="fill:#fecd38;stroke-width:0.915474"
     d="m 53.970772,58.557911 c 3.661777,0 3.661777,-3.621497 3.661777,-3.621497 V 25.601917 L 10.029448,58.557911 Z"
     id="path5" />
  <path
     style="fill:none;stroke:#000000;stroke-width:0.183095;stroke-dasharray:none;stroke-opacity:1;filter:url(#filter8)"
     d="m 53.970772,58.557911 c 3.661777,0 3.661777,-3.621497 3.661777,-3.621497 V 25.601917 L 10.029447,58.557911 Z"
     id="path5-5" />
</svg>
