<?xml version="1.0" encoding="UTF-8" standalone="no"?>
<svg
   width="64"
   height="64"
   version="1"
   id="svg8"
   sodipodi:docname="preferences-kde-connect.svg"
   inkscape:version="1.3.2 (091e20ef0f, 2023-11-25, custom)"
   xmlns:inkscape="http://www.inkscape.org/namespaces/inkscape"
   xmlns:sodipodi="http://sodipodi.sourceforge.net/DTD/sodipodi-0.dtd"
   xmlns:xlink="http://www.w3.org/1999/xlink"
   xmlns="http://www.w3.org/2000/svg"
   xmlns:svg="http://www.w3.org/2000/svg">
  <defs
     id="defs8">
    <linearGradient
       id="linearGradient9"
       inkscape:collect="always">
      <stop
         style="stop-color:#79b5ec;stop-opacity:1;"
         offset="0"
         id="stop10" />
      <stop
         style="stop-color:#0c71e7;stop-opacity:1;"
         offset="1"
         id="stop11" />
    </linearGradient>
    <inkscape:path-effect
       effect="fillet_chamfer"
       id="path-effect9"
       is_visible="true"
       lpeversion="1"
       nodesatellites_param="F,0,0,1,0,1.6044807,0,1 @ F,0,0,1,0,1.6044807,0,1 @ F,0,0,1,0,1.6044807,0,1 @ F,0,0,1,0,1.6044807,0,1 @ F,0,1,1,0,0.55940852,0,1 @ F,0,0,1,0,1.6044807,0,1 @ F,0,0,1,0,1.6044807,0,1 @ F,0,1,1,0,0.55940852,0,1 @ F,0,0,1,0,1.6044807,0,1 @ F,0,0,1,0,1.6044807,0,1 @ F,0,1,1,0,0.55940852,0,1 | F,0,0,1,0,0.67176686,0,1 @ F,0,0,1,0,0.67176686,0,1 @ F,0,0,1,0,0.67176686,0,1 @ F,0,0,1,0,0.67176686,0,1 @ F,0,0,1,0,0.67176686,0,1 @ F,0,0,1,0,0.67176686,0,1 @ F,0,0,1,0,0.67176686,0,1 @ F,0,0,1,0,0.67176686,0,1 @ F,0,0,1,0,0.67176686,0,1 @ F,0,0,1,0,0.67176686,0,1 @ F,0,0,1,0,0.67176686,0,1 @ F,0,0,1,0,0.67176686,0,1 @ F,0,0,1,0,0.67176686,0,1 @ F,0,0,1,0,0.67176686,0,1 @ F,0,0,1,0,0.67176686,0,1 @ F,0,0,1,0,0.67176686,0,1 @ F,0,0,1,0,0.67176686,0,1 @ F,0,0,1,0,0.67176686,0,1 @ F,0,0,1,0,0.67176686,0,1 @ F,0,0,1,0,0.67176686,0,1 @ F,0,0,1,0,0.67176686,0,1 @ F,0,0,1,0,0.67176686,0,1 @ F,0,0,1,0,0.67176686,0,1 @ F,0,0,1,0,0.67176686,0,1 @ F,0,0,1,0,0.67176686,0,1 @ F,0,0,1,0,0.67176686,0,1 @ F,0,0,1,0,0.67176686,0,1 @ F,0,0,1,0,0.67176686,0,1 @ F,0,0,1,0,0.67176686,0,1 @ F,0,0,1,0,0.67176686,0,1 @ F,0,0,1,0,0.67176686,0,1 @ F,0,0,1,0,0.6718,0,1 @ F,0,0,1,0,0.67176686,0,1 @ F,0,0,1,0,0.67176686,0,1 @ F,0,0,1,0,0.67176686,0,1 @ F,0,0,1,0,0.67176686,0,1 @ F,0,0,1,0,0.67176686,0,1 @ F,0,0,1,0,0.67176686,0,1"
       radius="0"
       unit="px"
       method="auto"
       mode="F"
       chamfer_steps="1"
       flexible="false"
       use_knot_distance="true"
       apply_no_radius="true"
       apply_with_radius="true"
       only_selected="false"
       hide_knots="false" />
    <linearGradient
       id="linearGradient8"
       inkscape:collect="always">
      <stop
         style="stop-color:#616161;stop-opacity:1;"
         offset="0"
         id="stop8" />
      <stop
         style="stop-color:#353535;stop-opacity:1;"
         offset="1"
         id="stop9" />
    </linearGradient>
    <radialGradient
       inkscape:collect="always"
       xlink:href="#linearGradient8"
       id="radialGradient9"
       cx="11.937752"
       cy="50.745003"
       fx="11.937752"
       fy="50.745003"
       r="20"
       gradientTransform="matrix(1.4331818,0,0,2.1497727,-1.4548927,-51.048022)"
       gradientUnits="userSpaceOnUse" />
    <inkscape:path-effect
       effect="fillet_chamfer"
       id="path-effect9-5"
       is_visible="true"
       lpeversion="1"
       nodesatellites_param="F,0,0,1,0,1.6044807,0,1 @ F,0,0,1,0,1.6044807,0,1 @ F,0,0,1,0,1.6044807,0,1 @ F,0,0,1,0,1.6044807,0,1 @ F,0,1,1,0,0.55940852,0,1 @ F,0,0,1,0,1.6044807,0,1 @ F,0,0,1,0,1.6044807,0,1 @ F,0,1,1,0,0.55940852,0,1 @ F,0,0,1,0,1.6044807,0,1 @ F,0,0,1,0,1.6044807,0,1 @ F,0,1,1,0,0.55940852,0,1 | F,0,0,1,0,0.67176686,0,1 @ F,0,0,1,0,0.67176686,0,1 @ F,0,0,1,0,0.67176686,0,1 @ F,0,0,1,0,0.67176686,0,1 @ F,0,0,1,0,0.67176686,0,1 @ F,0,0,1,0,0.67176686,0,1 @ F,0,0,1,0,0.67176686,0,1 @ F,0,0,1,0,0.67176686,0,1 @ F,0,0,1,0,0.67176686,0,1 @ F,0,0,1,0,0.67176686,0,1 @ F,0,0,1,0,0.67176686,0,1 @ F,0,0,1,0,0.67176686,0,1 @ F,0,0,1,0,0.67176686,0,1 @ F,0,0,1,0,0.67176686,0,1 @ F,0,0,1,0,0.67176686,0,1 @ F,0,0,1,0,0.67176686,0,1 @ F,0,0,1,0,0.67176686,0,1 @ F,0,0,1,0,0.67176686,0,1 @ F,0,0,1,0,0.67176686,0,1 @ F,0,0,1,0,0.67176686,0,1 @ F,0,0,1,0,0.67176686,0,1 @ F,0,0,1,0,0.67176686,0,1 @ F,0,0,1,0,0.67176686,0,1 @ F,0,0,1,0,0.67176686,0,1 @ F,0,0,1,0,0.67176686,0,1 @ F,0,0,1,0,0.67176686,0,1 @ F,0,0,1,0,0.67176686,0,1 @ F,0,0,1,0,0.67176686,0,1 @ F,0,0,1,0,0.67176686,0,1 @ F,0,0,1,0,0.67176686,0,1 @ F,0,0,1,0,0.67176686,0,1 @ F,0,0,1,0,0.67176686,0,1 @ F,0,0,1,0,0.6718,0,1 @ F,0,0,1,0,0.67176686,0,1 @ F,0,0,1,0,0.67176686,0,1 @ F,0,0,1,0,0.67176686,0,1 @ F,0,0,1,0,0.67176686,0,1 @ F,0,0,1,0,0.67176686,0,1 @ F,0,0,1,0,0.67176686,0,1"
       radius="0"
       unit="px"
       method="auto"
       mode="F"
       chamfer_steps="1"
       flexible="false"
       use_knot_distance="true"
       apply_no_radius="true"
       apply_with_radius="true"
       only_selected="false"
       hide_knots="false" />
    <radialGradient
       inkscape:collect="always"
       xlink:href="#linearGradient9"
       id="radialGradient11"
       cx="14.97054"
       cy="49.448601"
       fx="14.97054"
       fy="49.448601"
       r="18.019419"
       gradientTransform="matrix(2.484064,-2.6394933,3.850519,4.0914482,-209.70302,-106.58016)"
       gradientUnits="userSpaceOnUse" />
    <inkscape:path-effect
       effect="fillet_chamfer"
       id="path-effect9-2"
       is_visible="true"
       lpeversion="1"
       nodesatellites_param="F,0,0,1,0,1.6044807,0,1 @ F,0,0,1,0,1.6044807,0,1 @ F,0,0,1,0,1.6044807,0,1 @ F,0,0,1,0,1.6044807,0,1 @ F,0,1,1,0,0.55940852,0,1 @ F,0,0,1,0,1.6044807,0,1 @ F,0,0,1,0,1.6044807,0,1 @ F,0,1,1,0,0.55940852,0,1 @ F,0,0,1,0,1.6044807,0,1 @ F,0,0,1,0,1.6044807,0,1 @ F,0,1,1,0,0.55940852,0,1 | F,0,0,1,0,0.67176686,0,1 @ F,0,0,1,0,0.67176686,0,1 @ F,0,0,1,0,0.67176686,0,1 @ F,0,0,1,0,0.67176686,0,1 @ F,0,0,1,0,0.67176686,0,1 @ F,0,0,1,0,0.67176686,0,1 @ F,0,0,1,0,0.67176686,0,1 @ F,0,0,1,0,0.67176686,0,1 @ F,0,0,1,0,0.67176686,0,1 @ F,0,0,1,0,0.67176686,0,1 @ F,0,0,1,0,0.67176686,0,1 @ F,0,0,1,0,0.67176686,0,1 @ F,0,0,1,0,0.67176686,0,1 @ F,0,0,1,0,0.67176686,0,1 @ F,0,0,1,0,0.67176686,0,1 @ F,0,0,1,0,0.67176686,0,1 @ F,0,0,1,0,0.67176686,0,1 @ F,0,0,1,0,0.67176686,0,1 @ F,0,0,1,0,0.67176686,0,1 @ F,0,0,1,0,0.67176686,0,1 @ F,0,0,1,0,0.67176686,0,1 @ F,0,0,1,0,0.67176686,0,1 @ F,0,0,1,0,0.67176686,0,1 @ F,0,0,1,0,0.67176686,0,1 @ F,0,0,1,0,0.67176686,0,1 @ F,0,0,1,0,0.67176686,0,1 @ F,0,0,1,0,0.67176686,0,1 @ F,0,0,1,0,0.67176686,0,1 @ F,0,0,1,0,0.67176686,0,1 @ F,0,0,1,0,0.67176686,0,1 @ F,0,0,1,0,0.67176686,0,1 @ F,0,0,1,0,0.6718,0,1 @ F,0,0,1,0,0.67176686,0,1 @ F,0,0,1,0,0.67176686,0,1 @ F,0,0,1,0,0.67176686,0,1 @ F,0,0,1,0,0.67176686,0,1 @ F,0,0,1,0,0.67176686,0,1 @ F,0,0,1,0,0.67176686,0,1"
       radius="0"
       unit="px"
       method="auto"
       mode="F"
       chamfer_steps="1"
       flexible="false"
       use_knot_distance="true"
       apply_no_radius="true"
       apply_with_radius="true"
       only_selected="false"
       hide_knots="false" />
    <filter
       inkscape:collect="always"
       style="color-interpolation-filters:sRGB"
       id="filter1"
       x="-0.090624449"
       y="-0.055021328"
       width="1.1812489"
       height="1.1100427">
      <feGaussianBlur
         inkscape:collect="always"
         stdDeviation="1.0033491"
         id="feGaussianBlur1" />
    </filter>
    <filter
       inkscape:collect="always"
       style="color-interpolation-filters:sRGB"
       id="filter2"
       x="-0.091177025"
       y="-0.060784681"
       width="1.1823541"
       height="1.1215694">
      <feGaussianBlur
         inkscape:collect="always"
         stdDeviation="1.298401"
         id="feGaussianBlur2" />
    </filter>
  </defs>
  <sodipodi:namedview
     id="namedview8"
     pagecolor="#ffffff"
     bordercolor="#000000"
     borderopacity="0.25"
     inkscape:showpageshadow="2"
     inkscape:pageopacity="0.0"
     inkscape:pagecheckerboard="0"
     inkscape:deskcolor="#d1d1d1"
     inkscape:zoom="9.7669124"
     inkscape:cx="32.098169"
     inkscape:cy="31.432656"
     inkscape:window-width="1920"
     inkscape:window-height="1020"
     inkscape:window-x="0"
     inkscape:window-y="0"
     inkscape:window-maximized="1"
     inkscape:current-layer="svg8" />
  <rect
     style="opacity:1;fill:url(#radialGradient9);stroke-width:0.94742"
     width="37.896923"
     height="56.845383"
     x="13.049604"
     y="3.5753784"
     id="rect1-3"
     rx="5.4643006"
     ry="5.4643006" />
  <rect
     style="fill:url(#radialGradient11);stroke-width:0.970398"
     width="29.861605"
     height="49.18441"
     x="17.067263"
     y="7.4058661"
     id="rect2"
     rx="3.270854"
     ry="3.270854" />
  <rect
     style="mix-blend-mode:normal;fill:none;stroke:#000000;stroke-width:0.3;stroke-dasharray:none;stroke-opacity:1;filter:url(#filter2)"
     width="35.822208"
     height="53.733315"
     x="14.122299"
     y="5.1666551"
     id="rect1-3-6"
     rx="5.1651506"
     ry="5.1651506"
     transform="matrix(1.057917,0,0,1.057917,-1.8552772,-1.8552719)" />
  <rect
     style="mix-blend-mode:normal;fill:none;stroke:#000000;stroke-width:0.3;stroke-dasharray:none;stroke-opacity:1;filter:url(#filter1)"
     width="28.226795"
     height="46.491749"
     x="17.920006"
     y="8.7874384"
     id="rect2-2"
     rx="3.0917871"
     ry="3.0917871"
     transform="matrix(1.057917,0,0,1.057917,-1.8552772,-1.8552719)" />
  <path
     style="fill:#ffffff;stroke-width:1.14341"
     d="m 32.450341,14.224456 -2.869682,0.500088 A 1.9082684,1.9082684 130.05727 0 0 28,16.604481 v 17.564038 a 1.4110309,1.4110309 41.329416 0 0 1.591329,1.399465 l 2.817342,-0.362968 a 1.8183731,1.8183731 131.23457 0 0 1.586017,-1.809488 l -0.02384,-7.199123 a 0.17179542,0.17179542 162.73848 0 1 0.313658,-0.09746 l 5.857552,8.576125 a 2.575152,2.575152 23.74117 0 0 2.493077,1.096521 l 3.776722,-0.543178 a 0.953986,0.953986 112.55039 0 0 0.628926,-1.514595 l -6.706354,-8.992383 a 0.68536127,0.68536127 92.507258 0 1 0.03792,-0.865918 l 6.586686,-7.385097 a 0.90228766,0.90228766 71.080856 0 0 -0.509994,-1.487947 l -3.883084,-0.714942 a 2.6450379,2.6450379 159.19128 0 0 -2.564677,0.974676 l -5.688257,7.293676 a 0.19020288,0.19020288 19.171873 0 1 -0.340182,-0.118276 l 0.04714,-6.864162 a 1.3396775,1.3396775 40.254011 0 0 -1.56964,-1.328987 z M 21.191,19.328 19.593265,20.944259 C 19.33244,21.208108 18.983329,21.603591 19.086,21.762 l 2.133483,3.277029 c 0.202422,0.310921 0.216668,0.824206 0.05647,1.158768 -0.225622,0.471196 -0.416776,0.963234 -0.572043,1.470279 -0.10861,0.354681 -0.469006,0.719594 -0.829325,0.808004 l -3.01117,0.73884 C 16.503096,29.30333 16.000001,29.451209 16,29.637 v 0.691233 1.363 c 0,0.371007 0.03041,0.890123 0.211,0.933767 l 3.663585,0.89892 c 0.360319,0.08841 0.720717,0.453332 0.829331,0.808024 0.155268,0.507045 0.346423,0.999082 0.572046,1.470278 0.160194,0.334551 0.145943,0.847828 -0.05648,1.158749 l -1.766966,2.714058 C 19.250095,39.98595 18.987519,40.444518 19.121,40.578 l 1.597735,1.616259 C 20.97956,42.458108 21.36376,42.797332 21.52,42.703 l 3.344333,-2.050826 c 0.316275,-0.193948 0.833619,-0.199764 1.1736,-0.05175 0.499775,0.217581 1.073438,0.407541 1.603022,0.564766 0.354457,0.105232 0.705033,0.477323 0.780266,0.840621 l 0.645558,3.11738 C 29.142012,45.486488 29.271775,45.999999 29.457,46 h 0.871233 1.543 c 0.371007,0 0.888895,-0.03748 0.925767,-0.219 l 0.781779,-3.77519 c 0.07523,-0.363298 0.426793,-0.735645 0.782441,-0.841267 0.529714,-0.157317 1.103348,-0.347364 1.602927,-0.565026 0.338792,-0.147608 0.855245,-0.141291 1.17152,0.05266 l 2.771666,1.699652 c 0.316275,0.193948 0.772613,0.449226 0.901667,0.320174 l 1.597735,-1.616259 C 42.66756,40.791892 43.016671,40.396409 42.914,40.238 42.01279,38.995377 41.510385,38.293559 40.986417,37.607864 40.76126,37.313212 40.404419,36.829607 40.195231,36.523198 l -0.703444,-1.030369 c -0.209198,-0.306424 -0.506162,-0.2818 -0.690344,0.04018 -1.481206,2.589406 -4.154797,4.278973 -7.130299,4.504251 -0.369876,0.028 -0.972388,0.02836 -1.342307,0.0011 -4.435861,-0.327003 -7.977205,-3.869102 -8.304187,-8.304198 -0.02727,-0.369915 -0.027,-0.97241 8.95e-4,-1.342281 0.220799,-2.927781 1.859152,-5.566877 4.3843,-7.063234 C 26.728958,23.13954 27,22.70724 27,22.336233 v -0.621466 c 0,-0.371007 -0.28654,-0.579597 -0.632721,-0.446255 -0.111882,0.04309 -0.221475,0.08741 -0.327742,0.133046 -0.340542,0.14624 -0.857947,0.140245 -1.174244,-0.05367 L 22.092707,19.648108 C 21.77641,19.454197 21.445556,19.24559 21.348,19.254 Z"
     id="path7"
     inkscape:path-effect="#path-effect9"
     inkscape:original-d="M 34.031,13.949 28,15 V 35.773 L 34,35 33.969,25.637 41.047,36 48,35 40,24.273 l 8.027,-9 -7.039,-1.296 -7.019,9 z m -12.683,5.305 c -0.058,0.005 -0.113,0.03 -0.157,0.074 l -2.07,2.094 c -0.09,0.09 -0.105,0.232 -0.035,0.34 l 2.5,3.84 c -0.472,0.837 -0.828,1.754 -1.059,2.714 l -4.316,1.059 C 16.091,29.404 16,29.513 16,29.637 V 31 32.363 c 0,0.124 0.091,0.233 0.211,0.262 l 4.316,1.059 c 0.231,0.96 0.587,1.877 1.059,2.714 l -2.5,3.84 c -0.07,0.108 -0.055,0.25 0.035,0.34 l 2.07,2.094 c 0.088,0.088 0.223,0.095 0.329,0.031 l 3.917,-2.402 c 0.769,0.448 1.972,0.808 2.848,1.047 l 0.918,4.433 C 29.229,45.909 29.33,46 29.457,46 H 31 32.543 c 0.127,0 0.228,-0.091 0.254,-0.219 l 0.918,-4.433 c 0.876,-0.239 2.079,-0.599 2.848,-1.047 l 3.917,2.402 c 0.106,0.064 0.241,0.057 0.329,-0.031 l 2.07,-2.094 c 0.09,-0.09 0.105,-0.232 0.035,-0.34 -0.774232,-1.058139 -1.524681,-2.133238 -2.34,-3.16 l -1.461,-2.14 c -1.492,3.127 -4.647,5.121 -8.113,5.125 -4.971,0 -9,-4.03 -9,-9 0.003,-3.417 1.94,-6.537 5,-8.055 v -1.965 c -0.57,0.19 -1.131,0.405 -1.562,0.656 L 21.52,19.297 c -0.053,-0.032 -0.114,-0.048 -0.172,-0.043 z"
     sodipodi:nodetypes="ccccccccccccsccccccscsccccccccccscscccccccccccccccs"
     transform="matrix(0.70376297,0,0,0.70376297,9.7485854,10.813199)" />
</svg>
