<?xml version="1.0" encoding="UTF-8" standalone="no"?>
<svg
   width="64"
   height="64"
   version="1"
   id="svg6"
   sodipodi:docname="KittehPlayer.svg"
   inkscape:version="1.4 (e7c3feb100, 2024-10-09)"
   xmlns:inkscape="http://www.inkscape.org/namespaces/inkscape"
   xmlns:sodipodi="http://sodipodi.sourceforge.net/DTD/sodipodi-0.dtd"
   xmlns:xlink="http://www.w3.org/1999/xlink"
   xmlns="http://www.w3.org/2000/svg"
   xmlns:svg="http://www.w3.org/2000/svg">
  <defs
     id="defs6">
    <linearGradient
       id="linearGradient10"
       inkscape:collect="always">
      <stop
         style="stop-color:#c090e7;stop-opacity:1;"
         offset="0"
         id="stop9" />
      <stop
         style="stop-color:#fe81ad;stop-opacity:1;"
         offset="1"
         id="stop10" />
    </linearGradient>
    <filter
       inkscape:collect="always"
       style="color-interpolation-filters:sRGB"
       id="filter7"
       x="-0.16383565"
       y="-0.15591676"
       width="1.3276713"
       height="1.3118373">
      <feGaussianBlur
         inkscape:collect="always"
         stdDeviation="3.1195823"
         id="feGaussianBlur7" />
    </filter>
    <radialGradient
       inkscape:collect="always"
       xlink:href="#linearGradient12"
       id="radialGradient9-6"
       cx="34.448208"
       cy="13.722373"
       fx="34.448208"
       fy="13.722373"
       r="14.663306"
       gradientTransform="matrix(-1.8550731,3.2130809,-3.480713,-2.0095906,158.99169,-69.546959)"
       gradientUnits="userSpaceOnUse" />
    <linearGradient
       id="linearGradient12"
       inkscape:collect="always">
      <stop
         style="stop-color:#000000;stop-opacity:1;"
         offset="0"
         id="stop11" />
      <stop
         style="stop-color:#ff3400;stop-opacity:1;"
         offset="1"
         id="stop12" />
    </linearGradient>
    <filter
       inkscape:collect="always"
       style="color-interpolation-filters:sRGB"
       id="filter12"
       x="-0.10758113"
       y="-0.099309209"
       width="1.2151623"
       height="1.1986184">
      <feGaussianBlur
         inkscape:collect="always"
         stdDeviation="1.3145793"
         id="feGaussianBlur12" />
    </filter>
    <radialGradient
       inkscape:collect="always"
       xlink:href="#linearGradient10"
       id="radialGradient7"
       cx="11.757886"
       cy="53.963005"
       fx="11.757886"
       fy="53.963005"
       r="18.94824"
       gradientTransform="matrix(3.4879288,0,0,3.6652042,-33.745646,-137.58344)"
       gradientUnits="userSpaceOnUse" />
    <linearGradient
       id="linearGradient6"
       inkscape:collect="always">
      <stop
         style="stop-color:#c090e7;stop-opacity:1;"
         offset="0"
         id="stop6" />
      <stop
         style="stop-color:#fea381;stop-opacity:1;"
         offset="1"
         id="stop7" />
    </linearGradient>
    <radialGradient
       inkscape:collect="always"
       xlink:href="#linearGradient6"
       id="radialGradient9"
       cx="26.312143"
       cy="32.254044"
       fx="26.312143"
       fy="32.254044"
       r="16.490705"
       gradientTransform="matrix(-0.42707444,-1.5938636,1.356172,-0.36338518,-14.550442,67.985786)"
       gradientUnits="userSpaceOnUse" />
    <radialGradient
       inkscape:collect="always"
       xlink:href="#linearGradient6"
       id="radialGradient9-3"
       cx="26.312143"
       cy="32.254044"
       fx="26.312143"
       fy="32.254044"
       r="16.490705"
       gradientTransform="matrix(0.82504452,-1.429019,1.2159106,0.70200632,-38.372636,29.095164)"
       gradientUnits="userSpaceOnUse" />
  </defs>
  <sodipodi:namedview
     id="namedview6"
     pagecolor="#505050"
     bordercolor="#eeeeee"
     borderopacity="1"
     inkscape:showpageshadow="0"
     inkscape:pageopacity="0"
     inkscape:pagecheckerboard="0"
     inkscape:deskcolor="#505050"
     inkscape:zoom="9.3359375"
     inkscape:cx="16.816736"
     inkscape:cy="15.156485"
     inkscape:current-layer="svg6" />
  <path
     style="fill:url(#radialGradient9);stroke-width:0.513971"
     d="m 4.2738434,10.558721 c 0,0 1.35536,4.904808 3.8589867,6.324706 l 1.9437349,1.102365 c 1.290137,-2.274826 3.632968,-6.434941 3.632968,-6.434941 0,0 -1.961161,-0.973949 -2.026953,-0.926497 -2.5036283,-1.4198969 -7.4087366,-0.06563 -7.4087366,-0.06563 z"
     id="path1"
     sodipodi:nodetypes="cscccc"
     inkscape:transform-center-x="6.9092386"
     inkscape:transform-center-y="-4.3390401" />
  <path
     style="opacity:0.3;fill:#000000;fill-opacity:1;stroke-width:0.513971"
     d="m 6.7781708,11.979018 c 0,0 0.8123648,2.941941 2.3145392,3.793881 l 2.129453,-3.754741 C 9.7199899,11.166215 6.7781707,11.979018 6.7781708,11.979018 Z"
     id="path2"
     sodipodi:nodetypes="ccccc"
     inkscape:transform-center-x="6.9007595"
     inkscape:transform-center-y="-4.6188447" />
  <path
     style="fill:url(#radialGradient9-3);stroke-width:0.513971"
     d="m 15.54521,1.7988775 c 0,0 -2.509838,4.4266067 -1.743527,7.200958 l 0.594938,2.1539175 c 2.52081,-0.69628 7.119088,-1.9812937 7.119088,-1.9812937 0,0 -0.698065,-2.0754364 -0.77814,-2.0884048 C 19.971254,4.3097041 15.545206,1.7988812 15.545206,1.7988812 Z"
     id="path1-3"
     sodipodi:nodetypes="cscccc"
     inkscape:transform-center-x="0.69292062"
     inkscape:transform-center-y="-9.0320928" />
  <path
     style="opacity:0.3;fill:#000000;fill-opacity:1;stroke-width:0.513971"
     d="m 16.311736,4.5740054 c 0,0 -1.505838,2.6546953 -1.046053,4.3193059 L 19.426435,7.7440586 C 18.966653,6.0794473 16.311734,4.5740071 16.311734,4.5740071 Z"
     id="path2-5"
     sodipodi:nodetypes="ccccc"
     inkscape:transform-center-x="0.97645494"
     inkscape:transform-center-y="-8.7747496" />
  <g
     id="g1">
    <path
       style="fill:url(#radialGradient7);stroke-width:1.22196"
       d="M 20.254191,7.671773 C 14.276195,7.545672 8.8454456,12.449155 8.8460822,18.736205 v 26.620509 0.0048 c 0.00672,8.351554 9.5929818,13.550626 16.6276758,9.64916 l 11.98806,-6.653935 11.990446,-6.661094 0.0048,-0.0024 c 3.512904,-1.955239 5.696895,-5.871492 5.696895,-9.649159 0,-3.777667 -2.183991,-7.693919 -5.696895,-9.649158 l -0.0048,-0.0024 -11.990446,-6.658829 -11.97374,-6.6467735 -0.01198,-0.00477 C 23.873994,8.1922127 22.097946,7.7159161 20.287561,7.6716606 Z"
       id="path5-36"
       sodipodi:nodetypes="cccsccccsccccccc" />
    <path
       style="opacity:0.349788;fill:#000000;fill-opacity:1;stroke-width:1.22196"
       d="m 20.078728,16.116167 a 2.67849,2.5756028 0 0 0 -2.742031,2.575114 v 26.618717 a 2.67849,2.5756028 0 0 0 4.017246,2.230012 l 11.985511,-6.653212 11.985509,-6.656634 a 2.67849,2.5756028 0 0 0 0,-4.460077 L 33.337743,23.115408 21.352965,16.462195 a 2.67849,2.5756028 0 0 0 -1.275704,-0.34532 z"
       id="path3-7" />
    <path
       style="opacity:0.277856;fill:url(#radialGradient9-6);stroke-width:1.22196;filter:url(#filter12)"
       d="m 20.078728,16.116167 a 2.67849,2.5756028 0 0 0 -2.742031,2.575114 v 26.618717 a 2.67849,2.5756028 0 0 0 4.017246,2.230012 l 11.985511,-6.653212 11.985509,-6.656634 a 2.67849,2.5756028 0 0 0 0,-4.460077 L 33.337743,23.115408 21.352965,16.462195 a 2.67849,2.5756028 0 0 0 -1.275704,-0.34532 z"
       id="path3-1" />
    <path
       id="path5-3"
       style="fill:none;stroke:#000000;stroke-width:0.2;stroke-dasharray:none;stroke-opacity:1;filter:url(#filter7)"
       d="M 20.253909,7.6719983 C 14.275913,7.5458973 8.8450701,12.4494 8.8457061,18.736451 v 26.621094 0.0039 c 0.0067,8.351554 9.5942119,13.549904 16.6289059,9.648438 l 11.986329,-6.652344 11.992187,-6.66211 0.0039,-0.002 c 3.512904,-1.955239 5.697266,-5.87077 5.697266,-9.648437 0,-3.777667 -2.184362,-7.695152 -5.697266,-9.650391 l -0.0039,-0.002 -11.992187,-6.658203 -11.972657,-6.6484372 -0.01172,-0.00391 C 23.874451,8.1922117 22.097497,7.7162538 20.287112,7.6719983 Z m -0.175781,8.4433587 v 0.002 a 2.67849,2.5756028 0 0 1 1.275391,0.345703 l 11.984375,6.652343 11.986328,6.654297 a 2.67849,2.5756028 0 0 1 0,4.460938 l -11.984375,6.65625 -11.986328,6.652343 A 2.67849,2.5756028 0 0 1 17.335941,45.31067 V 18.691529 a 2.67849,2.5756028 0 0 1 2.742187,-2.576172 z" />
  </g>
</svg>
