<?xml version="1.0" encoding="UTF-8" standalone="no"?>
<svg
   width="64"
   height="64"
   version="1"
   id="svg6"
   sodipodi:docname="kitty.svg"
   inkscape:version="1.3.2 (091e20ef0f, 2023-11-25, custom)"
   xmlns:inkscape="http://www.inkscape.org/namespaces/inkscape"
   xmlns:sodipodi="http://sodipodi.sourceforge.net/DTD/sodipodi-0.dtd"
   xmlns:xlink="http://www.w3.org/1999/xlink"
   xmlns="http://www.w3.org/2000/svg"
   xmlns:svg="http://www.w3.org/2000/svg">
  <defs
     id="defs6">
    <inkscape:path-effect
       effect="fillet_chamfer"
       id="path-effect1"
       is_visible="true"
       lpeversion="1"
       nodesatellites_param="F,0,1,1,0,1.8124883,0,1 @ F,0,0,1,0,1.8390202,0,1 @ F,0,0,1,0,0,0,1 @ F,0,0,1,0,0,0,1 @ F,0,0,1,0,0,0,1 @ F,0,0,1,0,0,0,1 @ F,0,0,1,0,1.9394092,0,1 @ F,0,0,1,0,1.8124883,0,1 @ F,0,0,1,0,0.84739829,0,1 @ F,0,0,1,0,0.84739829,0,1 @ F,0,0,1,0,0.84739829,0,1"
       radius="0"
       unit="px"
       method="auto"
       mode="F"
       chamfer_steps="1"
       flexible="false"
       use_knot_distance="true"
       apply_no_radius="true"
       apply_with_radius="true"
       only_selected="false"
       hide_knots="false" />
    <inkscape:path-effect
       effect="fillet_chamfer"
       id="path-effect8"
       is_visible="true"
       lpeversion="1"
       nodesatellites_param="F,0,0,1,0,2.0724338,0,1 @ F,0,1,1,0,2.6696066,0,1 @ F,0,1,1,0,2.6696066,0,1 @ F,0,0,1,0,2.0724338,0,1 @ F,0,1,1,0,2.6696066,0,1 @ F,0,0,1,0,0,0,1 @ F,0,0,1,0,0,0,1 @ F,0,0,1,0,0,0,1 @ F,0,0,1,0,0,0,1 @ F,0,0,1,0,0,0,1 @ F,0,0,1,0,0,0,1 @ F,0,0,1,0,2.6696066,0,1"
       radius="0"
       unit="px"
       method="auto"
       mode="F"
       chamfer_steps="1"
       flexible="false"
       use_knot_distance="true"
       apply_no_radius="true"
       apply_with_radius="true"
       only_selected="false"
       hide_knots="false" />
    <inkscape:path-effect
       effect="fillet_chamfer"
       id="path-effect8-9"
       is_visible="true"
       lpeversion="1"
       nodesatellites_param="F,0,0,1,0,2.0724338,0,1 @ F,0,1,1,0,2.6696066,0,1 @ F,0,1,1,0,2.6696066,0,1 @ F,0,0,1,0,2.0724338,0,1 @ F,0,1,1,0,2.6696066,0,1 @ F,0,0,1,0,0,0,1 @ F,0,0,1,0,0,0,1 @ F,0,0,1,0,0,0,1 @ F,0,0,1,0,0,0,1 @ F,0,0,1,0,0,0,1 @ F,0,0,1,0,0,0,1 @ F,0,0,1,0,2.6696066,0,1"
       radius="0"
       unit="px"
       method="auto"
       mode="F"
       chamfer_steps="1"
       flexible="false"
       use_knot_distance="true"
       apply_no_radius="true"
       apply_with_radius="true"
       only_selected="false"
       hide_knots="false" />
    <filter
       inkscape:collect="always"
       style="color-interpolation-filters:sRGB"
       id="filter1"
       x="-0.083109209"
       y="-0.12495421"
       width="1.1663964"
       height="1.249929">
      <feGaussianBlur
         inkscape:collect="always"
         stdDeviation="1.0226508"
         id="feGaussianBlur1" />
    </filter>
    <filter
       inkscape:collect="always"
       style="color-interpolation-filters:sRGB"
       id="filter2"
       x="-0.11378631"
       y="-0.12744066"
       width="1.2275726"
       height="1.2548813">
      <feGaussianBlur
         inkscape:collect="always"
         stdDeviation="2.5300138"
         id="feGaussianBlur2" />
    </filter>
    <radialGradient
       inkscape:collect="always"
       xlink:href="#linearGradient14"
       id="radialGradient15"
       cx="5.8015566"
       cy="34.666862"
       fx="5.8015566"
       fy="34.666862"
       r="28"
       gradientTransform="matrix(1.9330047,1.0600342,-1.1366554,2.072726,35.774441,-43.810931)"
       gradientUnits="userSpaceOnUse" />
    <linearGradient
       id="linearGradient14"
       inkscape:collect="always">
      <stop
         style="stop-color:#e4785a;stop-opacity:1;"
         offset="0"
         id="stop14" />
      <stop
         style="stop-color:#9d2d55;stop-opacity:1;"
         offset="1"
         id="stop15" />
    </linearGradient>
    <inkscape:path-effect
       effect="fillet_chamfer"
       id="path-effect1-3"
       is_visible="true"
       lpeversion="1"
       nodesatellites_param="F,0,1,1,0,1.8124883,0,1 @ F,0,0,1,0,1.8390202,0,1 @ F,0,0,1,0,0,0,1 @ F,0,0,1,0,0,0,1 @ F,0,0,1,0,0,0,1 @ F,0,0,1,0,0,0,1 @ F,0,0,1,0,1.9394092,0,1 @ F,0,0,1,0,1.8124883,0,1 @ F,0,0,1,0,0.84739829,0,1 @ F,0,0,1,0,0.84739829,0,1 @ F,0,0,1,0,0.84739829,0,1"
       radius="0"
       unit="px"
       method="auto"
       mode="F"
       chamfer_steps="1"
       flexible="false"
       use_knot_distance="true"
       apply_no_radius="true"
       apply_with_radius="true"
       only_selected="false"
       hide_knots="false" />
    <filter
       inkscape:collect="always"
       style="color-interpolation-filters:sRGB"
       id="filter3"
       x="-0.050304489"
       y="-0.084664118"
       width="1.100819"
       height="1.1693406">
      <feGaussianBlur
         inkscape:collect="always"
         stdDeviation="0.51620307"
         id="feGaussianBlur3" />
    </filter>
  </defs>
  <sodipodi:namedview
     id="namedview6"
     pagecolor="#ffffff"
     bordercolor="#000000"
     borderopacity="0.25"
     inkscape:showpageshadow="2"
     inkscape:pageopacity="0.0"
     inkscape:pagecheckerboard="0"
     inkscape:deskcolor="#d1d1d1"
     inkscape:zoom="4.5243786"
     inkscape:cx="-22.544533"
     inkscape:cy="-4.3099842"
     inkscape:window-width="1920"
     inkscape:window-height="1018"
     inkscape:window-x="0"
     inkscape:window-y="0"
     inkscape:window-maximized="1"
     inkscape:current-layer="svg6" />
  <rect
     style="fill:url(#radialGradient15);stroke-width:0.93019"
     width="52.09066"
     height="46.509518"
     x="5.9088082"
     y="8.7241621"
     rx="10.057882"
     ry="9.5330811"
     id="rect2" />
  <path
     id="rect2-3"
     style="opacity:0.40927;fill:#ff95b9;fill-opacity:1;stroke-width:0.93019"
     d="m 32.72039,40.875809 c -0.184998,1.681803 -0.338391,3.373761 -0.558102,5.045711 -0.132106,1.005295 -0.728633,2.506563 -1.145138,3.431939 -0.738435,1.640632 -1.088252,3.380609 -1.089382,5.250063 0.01024,0.217151 0.02587,0.434014 0.04687,0.65039 H 47.98831 c 3.190774,0 6.019352,-1.396708 7.859375,-3.580078 -0.189169,-0.848737 -0.461748,-1.675028 -0.812864,-2.467087 -0.433683,-0.978317 -0.912176,-2.578052 -0.98685,-3.646341 -0.109097,-1.560753 -0.323127,-3.127346 -0.523779,-4.685441 -0.127829,-0.992613 -0.871727,-1.31602 -1.676322,-0.720496 l -2.672576,1.978119 c -0.376174,0.278427 -1.025825,0.344506 -1.463467,0.178906 -1.217173,-0.460567 -2.496065,-0.737807 -3.794695,-0.822616 -0.46693,-0.03049 -1.226653,-0.03038 -1.693574,2.46e-4 -1.275085,0.08364 -2.531212,0.352816 -3.728613,0.798989 -0.438473,0.163383 -1.088968,0.09561 -1.465193,-0.182745 l -2.637163,-1.951169 c -0.804702,-0.595378 -1.562751,-0.273379 -1.672199,0.72161 z"
     inkscape:path-effect="#path-effect1"
     inkscape:original-d="m 32.935547,39.076172 c -0.379001,2.876271 -0.560495,5.81463 -1.044172,8.661147 -1.339226,2.10579 -1.962098,4.370632 -1.963607,6.866203 0.01024,0.217151 0.02587,0.434014 0.04687,0.65039 H 47.98831 c 3.190774,0 6.019352,-1.396708 7.859375,-3.580078 -0.330127,-1.481167 -0.914279,-2.893971 -1.726562,-4.175781 -0.0031,-2.796979 -0.505426,-5.632171 -0.816406,-8.421875 l -4.810547,3.560547 c -1.703638,-0.773536 -3.552803,-1.174399 -5.423829,-1.175781 -1.847316,0.0019 -3.673481,0.393224 -5.359374,1.148437 z"
     sodipodi:nodetypes="ccccsccccccc" />
  <path
     id="rect2-3-6"
     style="opacity:0.40927;fill:none;fill-opacity:1;stroke-width:0.12999991;stroke:#000000;stroke-opacity:1;stroke-dasharray:none;filter:url(#filter3)"
     d="m 32.72039,40.875809 c -0.184998,1.681803 -0.338391,3.373761 -0.558102,5.045711 -0.132106,1.005295 -0.728633,2.506563 -1.145138,3.431939 -0.738435,1.640632 -1.088252,3.380609 -1.089382,5.250063 0.01024,0.217151 0.02587,0.434014 0.04687,0.65039 H 47.98831 c 3.190774,0 6.019352,-1.396708 7.859375,-3.580078 -0.189169,-0.848737 -0.461748,-1.675028 -0.812864,-2.467087 -0.433683,-0.978317 -0.912176,-2.578052 -0.98685,-3.646341 -0.109097,-1.560753 -0.323127,-3.127346 -0.523779,-4.685441 -0.127829,-0.992613 -0.871727,-1.31602 -1.676322,-0.720496 l -2.672576,1.978119 c -0.376174,0.278427 -1.025825,0.344506 -1.463467,0.178906 -1.217173,-0.460567 -2.496065,-0.737807 -3.794695,-0.822616 -0.46693,-0.03049 -1.226653,-0.03038 -1.693574,2.46e-4 -1.275085,0.08364 -2.531212,0.352816 -3.728613,0.798989 -0.438473,0.163383 -1.088968,0.09561 -1.465193,-0.182745 l -2.637163,-1.951169 c -0.804702,-0.595378 -1.562751,-0.273379 -1.672199,0.72161 z"
     inkscape:path-effect="#path-effect1-3"
     inkscape:original-d="m 32.935547,39.076172 c -0.379001,2.876271 -0.560495,5.81463 -1.044172,8.661147 -1.339226,2.10579 -1.962098,4.370632 -1.963607,6.866203 0.01024,0.217151 0.02587,0.434014 0.04687,0.65039 H 47.98831 c 3.190774,0 6.019352,-1.396708 7.859375,-3.580078 -0.330127,-1.481167 -0.914279,-2.893971 -1.726562,-4.175781 -0.0031,-2.796979 -0.505426,-5.632171 -0.816406,-8.421875 l -4.810547,3.560547 c -1.703638,-0.773536 -3.552803,-1.174399 -5.423829,-1.175781 -1.847316,0.0019 -3.673481,0.393224 -5.359374,1.148437 z"
     sodipodi:nodetypes="ccccsccccccc" />
  <path
     id="rect4"
     style="fill:#ffffff;fill-opacity:1;stroke-width:0.93019"
     d="m 14.638427,14.267152 c -0.340109,1e-6 -0.680483,0.124146 -0.941092,0.37244 l -1.882182,1.79316 c -0.521217,0.496588 -0.521217,1.294755 0,1.791343 l 6.018986,5.735568 a 0.81403684,0.81403684 0 0 1 0,1.177272 l -5.957215,5.675616 c -0.521218,0.496587 -0.521218,1.296572 0,1.793159 l 1.882182,1.79316 c 0.521218,0.496588 1.360964,0.496588 1.882182,0 l 9.407277,-8.963983 c 0.521216,-0.496588 0.521216,-1.296571 0,-1.79316 l -1.882183,-1.791343 c -0.04193,-0.03995 -0.0869,-0.07549 -0.132624,-0.109006 l -7.454241,-7.101786 c -0.260608,-0.248294 -0.600982,-0.372439 -0.94109,-0.37244 z m 13.05355,14.921199 c -0.730215,0 -1.318981,0.622298 -1.318981,1.395285 v 2.790571 c 0,0.772988 0.588766,1.395286 1.318981,1.395286 h 13.175274 c 0.730215,0 1.318981,-0.622298 1.318981,-1.395286 v -2.790571 c 0,-0.772987 -0.588766,-1.395285 -1.318981,-1.395285 z" />
  <rect
     style="fill:none;stroke:#000000;stroke-width:0.6;stroke-dasharray:none;stroke-opacity:1;filter:url(#filter2)"
     width="56"
     height="50"
     x="4.049305"
     y="7.0226612"
     rx="10.812714"
     ry="10.248527"
     id="rect2-5"
     transform="matrix(0.93019037,0,0,0.93019037,2.1880467,2.2128303)" />
  <path
     id="rect4-3"
     style="opacity:0.643071;fill:none;stroke:#000000;stroke-width:0.6;stroke-dasharray:none;stroke-opacity:1;filter:url(#filter1)"
     d="m 13.434071,12.981645 c -0.365634,10e-7 -0.731552,0.133463 -1.011719,0.400391 l -2.023438,1.927734 c -0.5603331,0.533857 -0.5603331,1.391925 0,1.925782 l 6.470703,6.166015 a 0.8751293,0.8751293 0 0 1 0,1.265625 l -6.404296,6.101563 c -0.5603351,0.533856 -0.5603351,1.393879 0,1.927734 l 2.023437,1.927734 c 0.560335,0.533857 1.463103,0.533857 2.023438,0 l 10.113281,-9.636718 c 0.560333,-0.533857 0.560333,-1.393878 0,-1.927735 l -2.023438,-1.925781 c -0.04508,-0.04295 -0.09342,-0.08115 -0.142578,-0.117187 l -8.013672,-7.634766 c -0.280166,-0.266928 -0.646085,-0.40039 -1.011718,-0.400391 z m 14.033203,16.041016 c -0.785017,0 -1.417969,0.669001 -1.417969,1.5 v 3 c 0,0.830999 0.632952,1.5 1.417969,1.5 h 14.164062 c 0.785017,0 1.417969,-0.669001 1.417969,-1.5 v -3 c 0,-0.830999 -0.632952,-1.5 -1.417969,-1.5 z"
     transform="matrix(0.93019037,0,0,0.93019037,2.1880467,2.2128303)" />
</svg>
