<?xml version="1.0" encoding="UTF-8" standalone="no"?>
<svg
   width="64"
   height="64"
   version="1.1"
   id="svg3"
   sodipodi:docname="3dchess.svg"
   inkscape:version="1.3.2 (091e20ef0f, 2023-11-25, custom)"
   xmlns:inkscape="http://www.inkscape.org/namespaces/inkscape"
   xmlns:sodipodi="http://sodipodi.sourceforge.net/DTD/sodipodi-0.dtd"
   xmlns:xlink="http://www.w3.org/1999/xlink"
   xmlns="http://www.w3.org/2000/svg"
   xmlns:svg="http://www.w3.org/2000/svg">
  <defs
     id="defs3">
    <linearGradient
       id="linearGradient1"
       inkscape:collect="always">
      <stop
         style="stop-color:#b0b0b0;stop-opacity:1;"
         offset="0"
         id="stop1" />
      <stop
         style="stop-color:#5f5f5f;stop-opacity:1;"
         offset="1"
         id="stop2" />
    </linearGradient>
    <inkscape:path-effect
       effect="fillet_chamfer"
       id="path-effect13"
       is_visible="true"
       lpeversion="1"
       nodesatellites_param="F,0,0,1,0,23.750095,0,1 @ F,0,0,1,0,17.517622,0,1 @ F,0,0,1,0,17.517622,0,1 @ F,0,0,1,0,12.08746,0,1 @ F,0,0,1,0,33.512311,0,1 @ F,0,0,1,0,12.08746,0,1 @ F,0,0,1,0,25.5838,0,1 @ F,0,0,1,0,25.5838,0,1 @ F,0,0,1,0,25.5838,0,1 @ F,0,0,1,0,25.5838,0,1 @ F,0,0,1,0,12.08746,0,1 @ F,0,1,1,0,33.512311,0,1 @ F,0,0,1,0,12.08746,0,1 @ F,0,0,1,0,17.517622,0,1 @ F,0,0,1,0,17.517622,0,1 @ F,0,0,1,0,23.750095,0,1 @ F,0,0,1,0,23.750095,0,1 @ F,0,0,1,0,13.684937,0,1 @ F,0,0,1,0,13.684937,0,1 @ F,0,0,1,0,23.750095,0,1 @ F,0,0,1,0,23.750095,0,1 @ F,0,0,1,0,13.684937,0,1 @ F,0,0,1,0,13.684937,0,1 @ F,0,0,1,0,23.750095,0,1 @ F,0,0,1,0,23.750095,0,1 @ F,0,0,1,0,13.684937,0,1 @ F,0,0,1,0,13.684937,0,1 @ F,0,0,1,0,23.750095,0,1"
       radius="0"
       unit="px"
       method="auto"
       mode="F"
       chamfer_steps="1"
       flexible="false"
       use_knot_distance="true"
       apply_no_radius="true"
       apply_with_radius="true"
       only_selected="false"
       hide_knots="false" />
    <radialGradient
       inkscape:collect="always"
       xlink:href="#linearGradient1"
       id="radialGradient3"
       gradientUnits="userSpaceOnUse"
       gradientTransform="matrix(2.1855108,-2.1855108,2.9141624,2.9141624,-1383.2017,-465.89307)"
       cx="130.72388"
       cy="421.46832"
       fx="130.72388"
       fy="421.46832"
       r="191.99024" />
    <inkscape:path-effect
       effect="fillet_chamfer"
       id="path-effect13-3"
       is_visible="true"
       lpeversion="1"
       nodesatellites_param="F,0,1,1,0,0,0,1 @ F,0,0,1,0,33.512311,0,1 @ F,0,0,1,0,12.08746,0,1 @ F,0,0,1,0,25.5838,0,1 @ F,0,0,1,0,25.5838,0,1 @ F,0,0,1,0,25.5838,0,1 @ F,0,0,1,0,25.5838,0,1 @ F,0,0,1,0,12.08746,0,1 @ F,0,0,1,0,33.512311,0,1 @ F,0,0,1,0,0,0,1"
       radius="0"
       unit="px"
       method="auto"
       mode="F"
       chamfer_steps="1"
       flexible="false"
       use_knot_distance="true"
       apply_no_radius="true"
       apply_with_radius="true"
       only_selected="false"
       hide_knots="false" />
    <inkscape:path-effect
       effect="fillet_chamfer"
       id="path-effect13-7"
       is_visible="true"
       lpeversion="1"
       nodesatellites_param="F,0,0,1,0,23.750095,0,1 @ F,0,0,1,0,17.517622,0,1 @ F,0,0,1,0,17.517622,0,1 @ F,0,0,1,0,17.517622,0,1 @ F,0,0,1,0,17.517622,0,1 @ F,0,0,1,0,23.750095,0,1 @ F,0,0,1,0,23.750095,0,1 @ F,0,0,1,0,13.684937,0,1 @ F,0,0,1,0,13.684937,0,1 @ F,0,0,1,0,23.750095,0,1 @ F,0,0,1,0,23.750095,0,1 @ F,0,0,1,0,13.684937,0,1 @ F,0,0,1,0,13.684937,0,1 @ F,0,0,1,0,23.750095,0,1 @ F,0,0,1,0,23.750095,0,1 @ F,0,0,1,0,13.684937,0,1 @ F,0,0,1,0,13.684937,0,1 @ F,0,0,1,0,23.750095,0,1"
       radius="0"
       unit="px"
       method="auto"
       mode="F"
       chamfer_steps="1"
       flexible="false"
       use_knot_distance="true"
       apply_no_radius="true"
       apply_with_radius="true"
       only_selected="false"
       hide_knots="false" />
    <inkscape:path-effect
       effect="fillet_chamfer"
       id="path-effect13-7-3"
       is_visible="true"
       lpeversion="1"
       nodesatellites_param="F,0,0,1,0,23.750095,0,1 @ F,0,0,1,0,17.517622,0,1 @ F,0,0,1,0,17.517622,0,1 @ F,0,0,1,0,17.517622,0,1 @ F,0,0,1,0,17.517622,0,1 @ F,0,0,1,0,23.750095,0,1 @ F,0,0,1,0,23.750095,0,1 @ F,0,0,1,0,13.684937,0,1 @ F,0,0,1,0,13.684937,0,1 @ F,0,0,1,0,23.750095,0,1 @ F,0,0,1,0,23.750095,0,1 @ F,0,0,1,0,13.684937,0,1 @ F,0,0,1,0,13.684937,0,1 @ F,0,0,1,0,23.750095,0,1 @ F,0,0,1,0,23.750095,0,1 @ F,0,0,1,0,13.684937,0,1 @ F,0,0,1,0,13.684937,0,1 @ F,0,0,1,0,23.750095,0,1"
       radius="0"
       unit="px"
       method="auto"
       mode="F"
       chamfer_steps="1"
       flexible="false"
       use_knot_distance="true"
       apply_no_radius="true"
       apply_with_radius="true"
       only_selected="false"
       hide_knots="false" />
    <inkscape:path-effect
       effect="fillet_chamfer"
       id="path-effect13-3-6"
       is_visible="true"
       lpeversion="1"
       nodesatellites_param="F,0,1,1,0,0,0,1 @ F,0,0,1,0,33.512311,0,1 @ F,0,0,1,0,12.08746,0,1 @ F,0,0,1,0,25.5838,0,1 @ F,0,0,1,0,25.5838,0,1 @ F,0,0,1,0,25.5838,0,1 @ F,0,0,1,0,25.5838,0,1 @ F,0,0,1,0,12.08746,0,1 @ F,0,0,1,0,33.512311,0,1 @ F,0,0,1,0,0,0,1"
       radius="0"
       unit="px"
       method="auto"
       mode="F"
       chamfer_steps="1"
       flexible="false"
       use_knot_distance="true"
       apply_no_radius="true"
       apply_with_radius="true"
       only_selected="false"
       hide_knots="false" />
    <inkscape:path-effect
       effect="fillet_chamfer"
       id="path-effect13-6"
       is_visible="true"
       lpeversion="1"
       nodesatellites_param="F,0,0,1,0,23.750095,0,1 @ F,0,0,1,0,17.517622,0,1 @ F,0,0,1,0,17.517622,0,1 @ F,0,0,1,0,12.08746,0,1 @ F,0,0,1,0,33.512311,0,1 @ F,0,0,1,0,12.08746,0,1 @ F,0,0,1,0,25.5838,0,1 @ F,0,0,1,0,25.5838,0,1 @ F,0,0,1,0,25.5838,0,1 @ F,0,0,1,0,25.5838,0,1 @ F,0,0,1,0,12.08746,0,1 @ F,0,1,1,0,33.512311,0,1 @ F,0,0,1,0,12.08746,0,1 @ F,0,0,1,0,17.517622,0,1 @ F,0,0,1,0,17.517622,0,1 @ F,0,0,1,0,23.750095,0,1 @ F,0,0,1,0,23.750095,0,1 @ F,0,0,1,0,13.684937,0,1 @ F,0,0,1,0,13.684937,0,1 @ F,0,0,1,0,23.750095,0,1 @ F,0,0,1,0,23.750095,0,1 @ F,0,0,1,0,13.684937,0,1 @ F,0,0,1,0,13.684937,0,1 @ F,0,0,1,0,23.750095,0,1 @ F,0,0,1,0,23.750095,0,1 @ F,0,0,1,0,13.684937,0,1 @ F,0,0,1,0,13.684937,0,1 @ F,0,0,1,0,23.750095,0,1"
       radius="0"
       unit="px"
       method="auto"
       mode="F"
       chamfer_steps="1"
       flexible="false"
       use_knot_distance="true"
       apply_no_radius="true"
       apply_with_radius="true"
       only_selected="false"
       hide_knots="false" />
    <filter
       inkscape:collect="always"
       style="color-interpolation-filters:sRGB"
       id="filter7"
       x="-0.10361047"
       y="-0.0777039"
       width="1.2072209"
       height="1.1554078">
      <feGaussianBlur
         inkscape:collect="always"
         stdDeviation="15.186899"
         id="feGaussianBlur7" />
    </filter>
  </defs>
  <sodipodi:namedview
     id="namedview3"
     pagecolor="#505050"
     bordercolor="#eeeeee"
     borderopacity="1"
     inkscape:showpageshadow="0"
     inkscape:pageopacity="0"
     inkscape:pagecheckerboard="0"
     inkscape:deskcolor="#505050"
     inkscape:zoom="9.534893"
     inkscape:cx="23.702416"
     inkscape:cy="32.145091"
     inkscape:window-width="1920"
     inkscape:window-height="1020"
     inkscape:window-x="0"
     inkscape:window-y="0"
     inkscape:window-maximized="1"
     inkscape:current-layer="svg3" />
  <path
     style="fill:url(#radialGradient3)"
     d="m 119.4668,23.750095 0,82.031115 a 46.345971,46.345971 69.294657 0 0 11.58706,30.65562 l 20.84931,23.64001 a 46.345971,46.345971 69.294657 0 1 11.58706,30.65562 v 208.1354 a 12.08746,12.08746 135 0 1 -12.08746,12.08746 l -5.96813,0 a 33.896558,33.896558 135.3266 0 0 -33.89435,33.51013 l -0.0127,1.11196 a 12.226053,12.226053 135.3266 0 1 -12.22526,12.08667 l -9.708784,0 a 25.5838,25.5838 135 0 0 -25.5838,25.5838 v 3.16832 A 25.5838,25.5838 45 0 0 89.593566,512 H 422.40643 a 25.5838,25.5838 135 0 0 25.5838,-25.5838 v -3.16834 a 25.5838,25.5838 45 0 0 -25.5838,-25.5838 l -11.02972,0 A 11.911399,11.911399 45.420328 0 1 399.46659,445.5779 l 0.0163,-1.11388 a 33.024183,33.024183 45.420328 0 0 -33.02063,-33.5087 h -6.2811 A 12.08746,12.08746 45 0 1 348.09375,398.86786 V 190.97074 c 0,-9.67471 5.18603,-23.40119 11.5881,-30.65472 6.52062,-7.38784 14.64041,-16.57996 21.17995,-23.95911 6.41533,-7.23901 11.6714,-20.90099 11.6714,-30.5757 V 23.750095 A 23.750095,23.750095 45 0 0 368.7831,0 23.684661,23.684661 134.84149 0 0 345.16406,23.750095 v 9.932155 a 13.684937,13.684937 135 0 1 -13.68494,13.684937 h -0.4934 A 13.684937,13.684937 45 0 1 317.30078,33.68225 V 23.750095 A 23.750095,23.750095 45 0 0 293.55068,0 23.684661,23.684661 134.84149 0 0 269.93164,23.750095 V 33.68225 A 13.684937,13.684937 135 0 1 256.2467,47.367187 h -0.4934 A 13.684937,13.684937 45 0 1 242.06836,33.68225 V 23.750095 A 23.750095,23.750095 45 0 0 218.31826,0 23.684661,23.684661 134.84149 0 0 194.69922,23.750095 v 9.932155 a 13.684937,13.684937 135 0 1 -13.68494,13.684937 h -0.4934 A 13.684937,13.684937 45 0 1 166.83594,33.68225 V 23.750095 A 23.750095,23.750095 45 0 0 143.08584,0 23.684661,23.684661 134.84149 0 0 119.4668,23.750095 Z"
     id="path13"
     inkscape:path-effect="#path-effect13"
     inkscape:original-d="m 119.4668,0 v 123.29883 l 44.02343,49.91601 v 237.74048 h -51.5679 l -0.53252,46.70876 H 64.009766 V 512 H 447.99023 v -54.33594 h -48.70098 l 0.68537,-46.70874 h -51.88087 v -237.5022 c 0,0 43.07257,-48.86879 44.43945,-50.15429 V 0 H 345.16406 V 47.367187 H 317.30078 V 0 H 269.93164 V 47.367187 H 242.06836 V 0 H 194.69922 V 47.367187 H 166.83594 V 0 Z"
     sodipodi:nodetypes="ccccccccccccccccccccccccccccc"
     transform="matrix(0.10582047,0,0,0.10582047,5.6019836,4.2688678)" />
  <path
     style="fill:#ffffff;fill-opacity:1;opacity:0.30256423"
     d="m 163.49023,410.95532 h -18.05559 a 33.896558,33.896558 135.3266 0 0 -33.89435,33.51013 l -0.0127,1.11196 a 12.226053,12.226053 135.3266 0 1 -12.22526,12.08667 l -9.708784,0 a 25.5838,25.5838 135 0 0 -25.5838,25.5838 v 3.16832 A 25.5838,25.5838 45 0 0 89.593566,512 H 422.40643 a 25.5838,25.5838 135 0 0 25.5838,-25.5838 v -3.16834 a 25.5838,25.5838 45 0 0 -25.5838,-25.5838 l -11.02972,0 A 11.911399,11.911399 45.420328 0 1 399.46659,445.5779 l 0.0163,-1.11388 a 33.024183,33.024183 45.420328 0 0 -33.02063,-33.5087 h -18.36856 c 0,0 -182.09371,0.12687 -184.60352,0 z"
     id="path13-6"
     inkscape:path-effect="#path-effect13-3"
     inkscape:original-d="m 163.49023,410.95532 h -51.5679 l -0.53252,46.70876 H 64.009766 V 512 H 447.99023 v -54.33594 h -48.70098 l 0.68537,-46.70874 h -51.88087 c 0,0 -182.09371,0.12687 -184.60352,0 z"
     sodipodi:nodetypes="ccccccccccc"
     transform="matrix(0.10582047,0,0,0.10582047,5.6938416,4.3255585)" />
  <path
     style="fill:#ffffff;fill-opacity:1;opacity:0.30256423"
     d="m 119.4668,23.750095 0,82.031115 a 46.345971,46.345971 69.294657 0 0 11.58706,30.65562 l 20.84931,23.64001 a 38.873764,38.873764 24.331635 0 0 29.10467,13.16061 l 149.5683,0.19306 c 9.67471,0.0125 22.70364,-5.86096 29.10571,-13.11449 6.52062,-7.38784 14.64041,-16.57996 21.17995,-23.95911 6.41533,-7.23901 11.6714,-20.90099 11.6714,-30.5757 l 0,-82.031115 A 23.750095,23.750095 45 0 0 368.78311,0 23.684661,23.684661 134.84149 0 0 345.16406,23.750095 v 9.932155 a 13.684937,13.684937 135 0 1 -13.68494,13.684937 h -0.4934 A 13.684937,13.684937 45 0 1 317.30078,33.68225 V 23.750095 A 23.750095,23.750095 45 0 0 293.55068,0 23.684661,23.684661 134.84149 0 0 269.93164,23.750095 V 33.68225 A 13.684937,13.684937 135 0 1 256.2467,47.367187 h -0.4934 A 13.684937,13.684937 45 0 1 242.06836,33.68225 V 23.750095 A 23.750095,23.750095 45 0 0 218.31826,0 23.684661,23.684661 134.84149 0 0 194.69922,23.750095 v 9.932155 a 13.684937,13.684937 135 0 1 -13.68494,13.684937 h -0.4934 A 13.684937,13.684937 45 0 1 166.83594,33.68225 V 23.750095 A 23.750095,23.750095 45 0 0 143.08584,0 23.684661,23.684661 134.84149 0 0 119.4668,23.750095 Z"
     id="path13-9"
     inkscape:path-effect="#path-effect13-7"
     inkscape:original-d="m 119.4668,0 v 123.29883 l 44.02343,49.91601 184.60352,0.23828 c 0,0 43.07257,-48.86879 44.43945,-50.15429 V 0 H 345.16406 V 47.367187 H 317.30078 V 0 H 269.93164 V 47.367187 H 242.06836 V 0 H 194.69922 V 47.367187 H 166.83594 V 0 Z"
     sodipodi:nodetypes="ccccccccccccccccccc"
     transform="matrix(0.10582047,0,0,0.10582047,5.5778655,4.3516178)" />
  <path
     style="fill:none;stroke:#000000;stroke-opacity:1;stroke-width:6.6716777;stroke-dasharray:none;opacity:1;filter:url(#filter7)"
     d="m 119.4668,23.750095 0,82.031115 a 46.345971,46.345971 69.294657 0 0 11.58706,30.65562 l 20.84931,23.64001 a 46.345971,46.345971 69.294657 0 1 11.58706,30.65562 v 208.1354 a 12.08746,12.08746 135 0 1 -12.08746,12.08746 l -5.96813,0 a 33.896558,33.896558 135.3266 0 0 -33.89435,33.51013 l -0.0127,1.11196 a 12.226053,12.226053 135.3266 0 1 -12.22526,12.08667 l -9.708784,0 a 25.5838,25.5838 135 0 0 -25.5838,25.5838 v 3.16832 A 25.5838,25.5838 45 0 0 89.593566,512 H 422.40643 a 25.5838,25.5838 135 0 0 25.5838,-25.5838 v -3.16834 a 25.5838,25.5838 45 0 0 -25.5838,-25.5838 l -11.02972,0 A 11.911399,11.911399 45.420328 0 1 399.46659,445.5779 l 0.0163,-1.11388 a 33.024183,33.024183 45.420328 0 0 -33.02063,-33.5087 h -6.2811 A 12.08746,12.08746 45 0 1 348.09375,398.86786 V 190.97074 c 0,-9.67471 5.18603,-23.40119 11.5881,-30.65472 6.52062,-7.38784 14.64041,-16.57996 21.17995,-23.95911 6.41533,-7.23901 11.6714,-20.90099 11.6714,-30.5757 V 23.750095 A 23.750095,23.750095 45 0 0 368.7831,0 23.684661,23.684661 134.84149 0 0 345.16406,23.750095 v 9.932155 a 13.684937,13.684937 135 0 1 -13.68494,13.684937 h -0.4934 A 13.684937,13.684937 45 0 1 317.30078,33.68225 V 23.750095 A 23.750095,23.750095 45 0 0 293.55068,0 23.684661,23.684661 134.84149 0 0 269.93164,23.750095 V 33.68225 A 13.684937,13.684937 135 0 1 256.2467,47.367187 h -0.4934 A 13.684937,13.684937 45 0 1 242.06836,33.68225 V 23.750095 A 23.750095,23.750095 45 0 0 218.31826,0 23.684661,23.684661 134.84149 0 0 194.69922,23.750095 v 9.932155 a 13.684937,13.684937 135 0 1 -13.68494,13.684937 h -0.4934 A 13.684937,13.684937 45 0 1 166.83594,33.68225 V 23.750095 A 23.750095,23.750095 45 0 0 143.08584,0 23.684661,23.684661 134.84149 0 0 119.4668,23.750095 Z"
     id="path13-1"
     inkscape:path-effect="#path-effect13-6"
     inkscape:original-d="m 119.4668,0 v 123.29883 l 44.02343,49.91601 v 237.74048 h -51.5679 l -0.53252,46.70876 H 64.009766 V 512 H 447.99023 v -54.33594 h -48.70098 l 0.68537,-46.70874 h -51.88087 v -237.5022 c 0,0 43.07257,-48.86879 44.43945,-50.15429 V 0 H 345.16406 V 47.367187 H 317.30078 V 0 H 269.93164 V 47.367187 H 242.06836 V 0 H 194.69922 V 47.367187 H 166.83594 V 0 Z"
     sodipodi:nodetypes="ccccccccccccccccccccccccccccc"
     transform="matrix(0.10582047,0,0,0.10582047,5.5753006,4.3116001)" />
</svg>
