<?xml version="1.0" encoding="UTF-8" standalone="no"?>
<svg
   width="64"
   height="64"
   version="1.1"
   id="svg13"
   sodipodi:docname="agenda.svg"
   inkscape:version="1.3.2 (091e20ef0f, 2023-11-25, custom)"
   xmlns:inkscape="http://www.inkscape.org/namespaces/inkscape"
   xmlns:sodipodi="http://sodipodi.sourceforge.net/DTD/sodipodi-0.dtd"
   xmlns:xlink="http://www.w3.org/1999/xlink"
   xmlns="http://www.w3.org/2000/svg"
   xmlns:svg="http://www.w3.org/2000/svg">
  <defs
     id="defs13">
    <inkscape:path-effect
       effect="fillet_chamfer"
       id="path-effect15"
       is_visible="true"
       lpeversion="1"
       nodesatellites_param="F,0,1,1,0,1.5075171,0,1 @ F,0,1,1,0,1.5075171,0,1 @ F,0,1,1,0,1.5075171,0,1 @ F,0,0,1,0,1.5075171,0,1 | F,0,1,1,0,1.5075171,0,1 @ F,0,1,1,0,1.5075171,0,1 @ F,0,1,1,0,1.5075171,0,1 @ F,0,1,1,0,1.5075171,0,1 | F,0,1,1,0,1.5075171,0,1 @ F,0,1,1,0,1.5075171,0,1 @ F,0,1,1,0,1.5075171,0,1 @ F,0,1,1,0,1.5075171,0,1 | F,0,1,1,0,1.5075171,0,1 @ F,0,1,1,0,1.5075171,0,1 @ F,0,1,1,0,1.5075171,0,1 @ F,0,1,1,0,1.5075171,0,1 | F,0,1,1,0,1.5075171,0,1 @ F,0,1,1,0,1.5075171,0,1 @ F,0,1,1,0,1.5075171,0,1 @ F,0,1,1,0,1.5075171,0,1 | F,0,1,1,0,1.5075171,0,1 @ F,0,1,1,0,1.5075171,0,1 @ F,0,1,1,0,1.5075171,0,1 @ F,0,1,1,0,1.5075171,0,1 | F,0,1,1,0,1.5075171,0,1 @ F,0,1,1,0,1.5075171,0,1 @ F,0,1,1,0,1.5075171,0,1 @ F,0,1,1,0,1.5075171,0,1 | F,0,1,1,0,1.5075171,0,1 @ F,0,1,1,0,1.5075171,0,1 @ F,0,1,1,0,1.5075171,0,1 @ F,0,1,1,0,1.5075171,0,1"
       radius="0"
       unit="px"
       method="auto"
       mode="F"
       chamfer_steps="1"
       flexible="false"
       use_knot_distance="true"
       apply_no_radius="true"
       apply_with_radius="true"
       only_selected="false"
       hide_knots="false" />
    <inkscape:path-effect
       effect="fillet_chamfer"
       id="path-effect14"
       is_visible="true"
       lpeversion="1"
       nodesatellites_param="F,0,0,1,0,0,0,1 @ F,0,0,1,0,0,0,1 @ F,0,0,1,0,0,0,1 @ F,0,0,1,0,0,0,1 | F,0,0,1,0,0,0,1 @ F,0,0,1,0,0,0,1 @ F,0,0,1,0,0,0,1 @ F,0,0,1,0,0,0,1 | F,0,0,1,0,0,0,1 @ F,0,0,1,0,0,0,1 @ F,0,0,1,0,0,0,1 @ F,0,0,1,0,0,0,1 | F,0,0,1,0,0,0,1 @ F,0,0,1,0,0,0,1 @ F,0,0,1,0,0,0,1 @ F,0,0,1,0,0,0,1 | F,0,0,1,0,0,0,1 @ F,0,0,1,0,0,0,1 @ F,0,0,1,0,0,0,1 @ F,0,0,1,0,0,0,1 | F,0,0,1,0,0,0,1 @ F,0,0,1,0,0,0,1 @ F,0,0,1,0,0,0,1 @ F,0,0,1,0,0,0,1 | F,0,0,1,0,0,0,1 @ F,0,0,1,0,0,0,1 @ F,0,0,1,0,0,0,1 @ F,0,0,1,0,0,0,1 | F,0,0,1,0,0,0,1 @ F,0,0,1,0,0,0,1 @ F,0,0,1,0,0,0,1 @ F,0,0,1,0,0,0,1"
       radius="0"
       unit="px"
       method="auto"
       mode="F"
       chamfer_steps="1"
       flexible="false"
       use_knot_distance="true"
       apply_no_radius="true"
       apply_with_radius="true"
       only_selected="false"
       hide_knots="false" />
    <linearGradient
       id="linearGradient13"
       inkscape:collect="always">
      <stop
         style="stop-color:#40e1a0;stop-opacity:1;"
         offset="0"
         id="stop13" />
      <stop
         style="stop-color:#2cddc9;stop-opacity:1;"
         offset="1"
         id="stop14" />
    </linearGradient>
    <radialGradient
       inkscape:collect="always"
       xlink:href="#linearGradient13"
       id="radialGradient14"
       cx="5.594337"
       cy="7.8435307"
       fx="5.594337"
       fy="7.8435307"
       r="28"
       gradientTransform="matrix(1.5880687,0.91687189,-0.88702319,1.5363693,5.9529341,-8.2441228)"
       gradientUnits="userSpaceOnUse" />
    <inkscape:path-effect
       effect="fillet_chamfer"
       id="path-effect15-3"
       is_visible="true"
       lpeversion="1"
       nodesatellites_param="F,0,1,1,0,1.5075171,0,1 @ F,0,1,1,0,1.5075171,0,1 @ F,0,1,1,0,1.5075171,0,1 @ F,0,0,1,0,1.5075171,0,1 | F,0,1,1,0,1.5075171,0,1 @ F,0,1,1,0,1.5075171,0,1 @ F,0,1,1,0,1.5075171,0,1 @ F,0,1,1,0,1.5075171,0,1 | F,0,1,1,0,1.5075171,0,1 @ F,0,1,1,0,1.5075171,0,1 @ F,0,1,1,0,1.5075171,0,1 @ F,0,1,1,0,1.5075171,0,1 | F,0,1,1,0,1.5075171,0,1 @ F,0,1,1,0,1.5075171,0,1 @ F,0,1,1,0,1.5075171,0,1 @ F,0,1,1,0,1.5075171,0,1 | F,0,1,1,0,1.5075171,0,1 @ F,0,1,1,0,1.5075171,0,1 @ F,0,1,1,0,1.5075171,0,1 @ F,0,1,1,0,1.5075171,0,1 | F,0,1,1,0,1.5075171,0,1 @ F,0,1,1,0,1.5075171,0,1 @ F,0,1,1,0,1.5075171,0,1 @ F,0,1,1,0,1.5075171,0,1 | F,0,1,1,0,1.5075171,0,1 @ F,0,1,1,0,1.5075171,0,1 @ F,0,1,1,0,1.5075171,0,1 @ F,0,1,1,0,1.5075171,0,1 | F,0,1,1,0,1.5075171,0,1 @ F,0,1,1,0,1.5075171,0,1 @ F,0,1,1,0,1.5075171,0,1 @ F,0,1,1,0,1.5075171,0,1"
       radius="0"
       unit="px"
       method="auto"
       mode="F"
       chamfer_steps="1"
       flexible="false"
       use_knot_distance="true"
       apply_no_radius="true"
       apply_with_radius="true"
       only_selected="false"
       hide_knots="false" />
    <filter
       inkscape:collect="always"
       style="color-interpolation-filters:sRGB"
       id="filter17"
       x="-0.055880583"
       y="-0.20320212"
       width="1.1117612"
       height="1.4064042">
      <feGaussianBlur
         inkscape:collect="always"
         stdDeviation="0.8896764"
         id="feGaussianBlur17" />
    </filter>
    <filter
       inkscape:collect="always"
       style="color-interpolation-filters:sRGB"
       id="filter18"
       x="-0.13115418"
       y="-0.13490137"
       width="1.2623084"
       height="1.2698027">
      <feGaussianBlur
         inkscape:collect="always"
         stdDeviation="1.9048137"
         id="feGaussianBlur18" />
    </filter>
    <filter
       inkscape:collect="always"
       style="color-interpolation-filters:sRGB"
       id="filter19"
       x="-0.087239833"
       y="-0.44413005"
       width="1.1744797"
       height="1.8882601">
      <feGaussianBlur
         inkscape:collect="always"
         stdDeviation="1.9048137"
         id="feGaussianBlur19" />
    </filter>
    <filter
       inkscape:collect="always"
       style="color-interpolation-filters:sRGB"
       id="filter20"
       x="-0.096282349"
       y="-0.088485067"
       width="1.1925647"
       height="1.1769701">
      <feGaussianBlur
         inkscape:collect="always"
         stdDeviation="1.9048137"
         id="feGaussianBlur20" />
    </filter>
  </defs>
  <sodipodi:namedview
     id="namedview13"
     pagecolor="#ffffff"
     bordercolor="#000000"
     borderopacity="0.25"
     inkscape:showpageshadow="2"
     inkscape:pageopacity="0.0"
     inkscape:pagecheckerboard="0"
     inkscape:deskcolor="#d1d1d1"
     inkscape:zoom="9.0487571"
     inkscape:cx="35.087692"
     inkscape:cy="38.90037"
     inkscape:window-width="1920"
     inkscape:window-height="1020"
     inkscape:window-x="0"
     inkscape:window-y="0"
     inkscape:window-maximized="1"
     inkscape:current-layer="svg13" />
  <rect
     style="fill:#eaeaea;stroke-width:0.518;stroke-dasharray:none;fill-opacity:1"
     width="48"
     height="52.229748"
     x="8"
     y="7.7702522"
     rx="8.3546972"
     ry="8.6580105"
     id="rect2" />
  <rect
     style="fill:none;stroke-width:0.1;stroke:#000000;stroke-opacity:1;opacity:1;stroke-dasharray:none;filter:url(#filter20)"
     width="48"
     height="52.229748"
     x="7.966743"
     y="7.6791973"
     rx="8.3546972"
     ry="8.6580105"
     id="rect2-2" />
  <rect
     style="fill:url(#radialGradient14);stroke-width:0.966456"
     width="54.121525"
     height="10.631014"
     x="4.9381046"
     y="5.0839949"
     rx="5.3155069"
     ry="5.3155069"
     id="rect4" />
  <rect
     style="fill:none;stroke-width:0.3;stroke:#000000;stroke-opacity:1;opacity:1;stroke-dasharray:none;filter:url(#filter19)"
     width="54.121525"
     height="10.631014"
     x="4.9048476"
     y="4.9929399"
     rx="5.3155069"
     ry="5.3155069"
     id="rect4-9" />
  <path
     id="circle4"
     style="fill:#ff4f4f"
     d="M 15.5 26 A 5.5 5.5 0 0 0 10 31.5 A 5.5 5.5 0 0 0 15.5 37 A 5.5 5.5 0 0 0 21 31.5 A 5.5 5.5 0 0 0 15.5 26 z M 15.5 29 A 2.5 2.5 0 0 1 18 31.5 A 2.5 2.5 0 0 1 15.5 34 A 2.5 2.5 0 0 1 13 31.5 A 2.5 2.5 0 0 1 15.5 29 z M 25.5 30 C 24.669002 30 24 30.669002 24 31.5 C 24 32.330998 24.669002 33 25.5 33 L 48.5 33 C 49.330998 33 50 32.330998 50 31.5 C 50 30.669002 49.330998 30 48.5 30 L 25.5 30 z " />
  <path
     id="circle4-1"
     style="fill:none;stroke:#ff5656;stroke-opacity:1;opacity:1;stroke-width:0.2;stroke-dasharray:none;filter:url(#filter17)"
     d="m 15.466743,25.908945 a 5.5,5.5 0 0 0 -5.5000004,5.5 5.5,5.5 0 0 0 5.5000004,5.5 5.5,5.5 0 0 0 5.5,-5.5 5.5,5.5 0 0 0 -5.5,-5.5 z m 0,3 a 2.5,2.5 0 0 1 2.5,2.5 2.5,2.5 0 0 1 -2.5,2.5 2.5,2.5 0 0 1 -2.5,-2.5 2.5,2.5 0 0 1 2.5,-2.5 z m 10,1 c -0.830998,0 -1.5,0.669002 -1.5,1.5 0,0.830998 0.669002,1.5 1.5,1.5 h 23 c 0.830998,0 1.5,-0.669002 1.5,-1.5 0,-0.830998 -0.669002,-1.5 -1.5,-1.5 z" />
  <path
     id="rect6"
     style="opacity:0.3"
     d="M 14,21.507517 A 1.5000188,1.5000188 44.71287 0 0 15.507517,23 1.5000188,1.5000188 134.71287 0 0 17,21.492483 1.5000188,1.5000188 44.71287 0 0 15.492483,20 1.5000188,1.5000188 134.71287 0 0 14,21.507517 Z m 6,0 A 1.5000188,1.5000188 44.71287 0 0 21.507517,23 H 48.492483 A 1.5075171,1.5075171 135 0 0 50,21.492483 1.5000188,1.5000188 44.71287 0 0 48.492483,20 H 21.507517 A 1.5075171,1.5075171 135 0 0 20,21.507517 Z m -6,20 A 1.5000188,1.5000188 44.71287 0 0 15.507517,43 1.5000188,1.5000188 134.71287 0 0 17,41.492483 1.5000188,1.5000188 44.71287 0 0 15.492483,40 1.5000188,1.5000188 134.71287 0 0 14,41.507517 Z m 6,0 A 1.5000188,1.5000188 44.71287 0 0 21.507517,43 H 48.492483 A 1.5075171,1.5075171 135 0 0 50,41.492483 1.5000188,1.5000188 44.71287 0 0 48.492483,40 H 21.507517 A 1.5075171,1.5075171 135 0 0 20,41.507517 Z m -6,6 A 1.5000188,1.5000188 44.71287 0 0 15.507517,49 1.5000188,1.5000188 134.71287 0 0 17,47.492483 1.5000188,1.5000188 44.71287 0 0 15.492483,46 1.5000188,1.5000188 134.71287 0 0 14,47.507517 Z m 6,0 A 1.5000188,1.5000188 44.71287 0 0 21.507517,49 H 48.492483 A 1.5075171,1.5075171 135 0 0 50,47.492483 1.5000188,1.5000188 44.71287 0 0 48.492483,46 H 21.507517 A 1.5075171,1.5075171 135 0 0 20,47.507517 Z m -6,6 A 1.5000188,1.5000188 44.71287 0 0 15.507517,55 1.5000188,1.5000188 134.71287 0 0 17,53.492483 1.5000188,1.5000188 44.71287 0 0 15.492483,52 1.5000188,1.5000188 134.71287 0 0 14,53.507517 Z m 6,0 A 1.5000188,1.5000188 44.71287 0 0 21.507517,55 H 48.492483 A 1.5075171,1.5075171 135 0 0 50,53.492483 1.5000188,1.5000188 44.71287 0 0 48.492483,52 H 21.507517 A 1.5075171,1.5075171 135 0 0 20,53.507517 Z"
     inkscape:path-effect="#path-effect15"
     inkscape:original-d="M 14 20 L 14 23 L 17 23 L 17 20 L 14 20 z M 20 20 L 20 23 L 50 23 L 50 20 L 20 20 z M 14 40 L 14 43 L 17 43 L 17 40 L 14 40 z M 20 40 L 20 43 L 50 43 L 50 40 L 20 40 z M 14 46 L 14 49 L 17 49 L 17 46 L 14 46 z M 20 46 L 20 49 L 50 49 L 50 46 L 20 46 z M 14 52 L 14 55 L 17 55 L 17 52 L 14 52 z M 20 52 L 20 55 L 50 55 L 50 52 L 20 52 z " />
  <path
     id="rect6-2"
     style="opacity:1;fill:none;stroke:#000000;stroke-opacity:1;stroke-width:0.3;stroke-dasharray:none;filter:url(#filter18)"
     d="M 14,21.507517 A 1.5000188,1.5000188 44.71287 0 0 15.507517,23 1.5000188,1.5000188 134.71287 0 0 17,21.492483 1.5000188,1.5000188 44.71287 0 0 15.492483,20 1.5000188,1.5000188 134.71287 0 0 14,21.507517 Z m 6,0 A 1.5000188,1.5000188 44.71287 0 0 21.507517,23 H 48.492483 A 1.5075171,1.5075171 135 0 0 50,21.492483 1.5000188,1.5000188 44.71287 0 0 48.492483,20 H 21.507517 A 1.5075171,1.5075171 135 0 0 20,21.507517 Z m -6,20 A 1.5000188,1.5000188 44.71287 0 0 15.507517,43 1.5000188,1.5000188 134.71287 0 0 17,41.492483 1.5000188,1.5000188 44.71287 0 0 15.492483,40 1.5000188,1.5000188 134.71287 0 0 14,41.507517 Z m 6,0 A 1.5000188,1.5000188 44.71287 0 0 21.507517,43 H 48.492483 A 1.5075171,1.5075171 135 0 0 50,41.492483 1.5000188,1.5000188 44.71287 0 0 48.492483,40 H 21.507517 A 1.5075171,1.5075171 135 0 0 20,41.507517 Z m -6,6 A 1.5000188,1.5000188 44.71287 0 0 15.507517,49 1.5000188,1.5000188 134.71287 0 0 17,47.492483 1.5000188,1.5000188 44.71287 0 0 15.492483,46 1.5000188,1.5000188 134.71287 0 0 14,47.507517 Z m 6,0 A 1.5000188,1.5000188 44.71287 0 0 21.507517,49 H 48.492483 A 1.5075171,1.5075171 135 0 0 50,47.492483 1.5000188,1.5000188 44.71287 0 0 48.492483,46 H 21.507517 A 1.5075171,1.5075171 135 0 0 20,47.507517 Z m -6,6 A 1.5000188,1.5000188 44.71287 0 0 15.507517,55 1.5000188,1.5000188 134.71287 0 0 17,53.492483 1.5000188,1.5000188 44.71287 0 0 15.492483,52 1.5000188,1.5000188 134.71287 0 0 14,53.507517 Z m 6,0 A 1.5000188,1.5000188 44.71287 0 0 21.507517,55 H 48.492483 A 1.5075171,1.5075171 135 0 0 50,53.492483 1.5000188,1.5000188 44.71287 0 0 48.492483,52 H 21.507517 A 1.5075171,1.5075171 135 0 0 20,53.507517 Z"
     inkscape:path-effect="#path-effect15-3"
     inkscape:original-d="m 14,20 v 3 h 3 v -3 z m 6,0 v 3 h 30 v -3 z m -6,20 v 3 h 3 v -3 z m 6,0 v 3 h 30 v -3 z m -6,6 v 3 h 3 v -3 z m 6,0 v 3 h 30 v -3 z m -6,6 v 3 h 3 v -3 z m 6,0 v 3 h 30 v -3 z"
     transform="translate(-0.03325739,-0.09105497)" />
</svg>
