<?xml version="1.0" encoding="UTF-8" standalone="no"?>
<svg
   width="64"
   height="64"
   version="1"
   id="svg7"
   sodipodi:docname="ace.svg"
   inkscape:version="1.3.2 (091e20ef0f, 2023-11-25, custom)"
   xmlns:inkscape="http://www.inkscape.org/namespaces/inkscape"
   xmlns:sodipodi="http://sodipodi.sourceforge.net/DTD/sodipodi-0.dtd"
   xmlns:xlink="http://www.w3.org/1999/xlink"
   xmlns="http://www.w3.org/2000/svg"
   xmlns:svg="http://www.w3.org/2000/svg">
  <defs
     id="defs7">
    <linearGradient
       id="linearGradient1"
       inkscape:collect="always">
      <stop
         style="stop-color:#ff6839;stop-opacity:1;"
         offset="0"
         id="stop1" />
      <stop
         style="stop-color:#ff0059;stop-opacity:1;"
         offset="1"
         id="stop2" />
    </linearGradient>
    <linearGradient
       id="linearGradient8"
       inkscape:collect="always">
      <stop
         style="stop-color:#ffffff;stop-opacity:1;"
         offset="0"
         id="stop8" />
      <stop
         style="stop-color:#c0c0c0;stop-opacity:1;"
         offset="1"
         id="stop9" />
    </linearGradient>
    <inkscape:path-effect
       effect="fillet_chamfer"
       id="path-effect7"
       is_visible="true"
       lpeversion="1"
       nodesatellites_param="F,0,0,1,0,1.0307962,0,1 @ F,0,0,1,0,0,0,1 @ F,0,1,1,0,0.55935592,0,1 @ F,0,0,1,0,0.55935592,0,1 @ F,0,1,1,0,0.55935592,0,1 @ F,0,1,1,0,0.55935592,0,1 @ F,0,0,1,0,0,0,1 @ F,0,0,1,0,1.0307962,0,1 | F,0,0,1,0,0,0,1 @ F,0,0,1,0,0,0,1 @ F,0,0,1,0,0,0,1 | F,0,0,1,0,0,0,1 @ F,0,0,1,0,0,0,1 @ F,0,0,1,0,0,0,1 @ F,0,0,1,0,0,0,1 @ F,0,0,1,0,0,0,1 @ F,0,0,1,0,0,0,1 @ F,0,0,1,0,0,0,1 @ F,0,0,1,0,0,0,1 | F,0,0,1,0,0,0,1 @ F,0,0,1,0,0,0,1 @ F,0,0,1,0,0,0,1 @ F,0,0,1,0,0,0,1 @ F,0,0,1,0,0,0,1 @ F,0,0,1,0,0,0,1 @ F,0,0,1,0,0,0,1 @ F,0,0,1,0,0,0,1 | F,0,0,1,0,0,0,1 @ F,0,0,1,0,0,0,1 @ F,0,0,1,0,0,0,1 @ F,0,0,1,0,0,0,1 @ F,0,0,1,0,0,0,1 @ F,0,0,1,0,0,0,1 @ F,0,0,1,0,0,0,1 @ F,0,0,1,0,0,0,1 | F,0,0,1,0,0,0,1 @ F,0,0,1,0,0.98010472,0,1 @ F,0,0,1,0,0.98010472,0,1 @ F,0,0,1,0,0,0,1 @ F,0,1,1,0,0.55935592,0,1 @ F,0,1,1,0,0.55935592,0,1 @ F,0,1,1,0,0.55935592,0,1 @ F,0,1,1,0,0.55935592,0,1 | F,0,0,1,0,0,0,1 @ F,0,0,1,0,0,0,1 @ F,0,0,1,0,0,0,1"
       radius="0"
       unit="px"
       method="auto"
       mode="F"
       chamfer_steps="1"
       flexible="false"
       use_knot_distance="true"
       apply_no_radius="true"
       apply_with_radius="true"
       only_selected="false"
       hide_knots="false" />
    <inkscape:path-effect
       effect="fillet_chamfer"
       id="path-effect7-3"
       is_visible="true"
       lpeversion="1"
       nodesatellites_param="F,0,0,1,0,1.0307962,0,1 @ F,0,0,1,0,0,0,1 @ F,0,1,1,0,0.55935592,0,1 @ F,0,0,1,0,0.55935592,0,1 @ F,0,1,1,0,0.55935592,0,1 @ F,0,1,1,0,0.55935592,0,1 @ F,0,0,1,0,0,0,1 @ F,0,0,1,0,1.0307962,0,1 | F,0,0,1,0,0,0,1 @ F,0,0,1,0,0,0,1 @ F,0,0,1,0,0,0,1 | F,0,0,1,0,0,0,1 @ F,0,0,1,0,0,0,1 @ F,0,0,1,0,0,0,1 @ F,0,0,1,0,0,0,1 @ F,0,0,1,0,0,0,1 @ F,0,0,1,0,0,0,1 @ F,0,0,1,0,0,0,1 @ F,0,0,1,0,0,0,1 | F,0,0,1,0,0,0,1 @ F,0,0,1,0,0,0,1 @ F,0,0,1,0,0,0,1 @ F,0,0,1,0,0,0,1 @ F,0,0,1,0,0,0,1 @ F,0,0,1,0,0,0,1 @ F,0,0,1,0,0,0,1 @ F,0,0,1,0,0,0,1 | F,0,0,1,0,0,0,1 @ F,0,0,1,0,0,0,1 @ F,0,0,1,0,0,0,1 @ F,0,0,1,0,0,0,1 @ F,0,0,1,0,0,0,1 @ F,0,0,1,0,0,0,1 @ F,0,0,1,0,0,0,1 @ F,0,0,1,0,0,0,1 | F,0,0,1,0,0,0,1 @ F,0,0,1,0,0.98010472,0,1 @ F,0,0,1,0,0.98010472,0,1 @ F,0,0,1,0,0,0,1 @ F,0,1,1,0,0.55935592,0,1 @ F,0,1,1,0,0.55935592,0,1 @ F,0,1,1,0,0.55935592,0,1 @ F,0,1,1,0,0.55935592,0,1 | F,0,0,1,0,0,0,1 @ F,0,0,1,0,0,0,1 @ F,0,0,1,0,0,0,1"
       radius="0"
       unit="px"
       method="auto"
       mode="F"
       chamfer_steps="1"
       flexible="false"
       use_knot_distance="true"
       apply_no_radius="true"
       apply_with_radius="true"
       only_selected="false"
       hide_knots="false" />
    <filter
       inkscape:collect="always"
       style="color-interpolation-filters:sRGB"
       id="filter7"
       x="-0.1066166"
       y="-0.13860158"
       width="1.2132332"
       height="1.2772032">
      <feGaussianBlur
         inkscape:collect="always"
         stdDeviation="2.2475265"
         id="feGaussianBlur7" />
    </filter>
    <radialGradient
       inkscape:collect="always"
       xlink:href="#linearGradient8"
       id="radialGradient9"
       cx="-52.152763"
       cy="-15.663099"
       fx="-52.152763"
       fy="-15.663099"
       r="26"
       gradientTransform="matrix(2.6392662,1.523781,-1.1721393,2.0302047,67.132928,91.835535)"
       gradientUnits="userSpaceOnUse" />
    <radialGradient
       inkscape:collect="always"
       xlink:href="#linearGradient1"
       id="radialGradient2"
       cx="17.327978"
       cy="48.917225"
       fx="17.327978"
       fy="48.917225"
       r="18.048828"
       gradientTransform="matrix(3.6876342,-0.98809861,1.2044089,4.4949152,-105.48761,-150.13636)"
       gradientUnits="userSpaceOnUse" />
    <inkscape:path-effect
       effect="fillet_chamfer"
       id="path-effect7-5"
       is_visible="true"
       lpeversion="1"
       nodesatellites_param="F,0,0,1,0,1.0307962,0,1 @ F,0,0,1,0,0,0,1 @ F,0,1,1,0,0.55935592,0,1 @ F,0,0,1,0,0.55935592,0,1 @ F,0,1,1,0,0.55935592,0,1 @ F,0,1,1,0,0.55935592,0,1 @ F,0,0,1,0,0,0,1 @ F,0,0,1,0,1.0307962,0,1 | F,0,0,1,0,0,0,1 @ F,0,0,1,0,0,0,1 @ F,0,0,1,0,0,0,1 | F,0,0,1,0,0,0,1 @ F,0,0,1,0,0,0,1 @ F,0,0,1,0,0,0,1 @ F,0,0,1,0,0,0,1 @ F,0,0,1,0,0,0,1 @ F,0,0,1,0,0,0,1 @ F,0,0,1,0,0,0,1 @ F,0,0,1,0,0,0,1 | F,0,0,1,0,0,0,1 @ F,0,0,1,0,0,0,1 @ F,0,0,1,0,0,0,1 @ F,0,0,1,0,0,0,1 @ F,0,0,1,0,0,0,1 @ F,0,0,1,0,0,0,1 @ F,0,0,1,0,0,0,1 @ F,0,0,1,0,0,0,1 | F,0,0,1,0,0,0,1 @ F,0,0,1,0,0,0,1 @ F,0,0,1,0,0,0,1 @ F,0,0,1,0,0,0,1 @ F,0,0,1,0,0,0,1 @ F,0,0,1,0,0,0,1 @ F,0,0,1,0,0,0,1 @ F,0,0,1,0,0,0,1 | F,0,0,1,0,0,0,1 @ F,0,0,1,0,0.98010472,0,1 @ F,0,0,1,0,0.98010472,0,1 @ F,0,0,1,0,0,0,1 @ F,0,1,1,0,0.55935592,0,1 @ F,0,1,1,0,0.55935592,0,1 @ F,0,1,1,0,0.55935592,0,1 @ F,0,1,1,0,0.55935592,0,1 | F,0,0,1,0,0,0,1 @ F,0,0,1,0,0,0,1 @ F,0,0,1,0,0,0,1"
       radius="0"
       unit="px"
       method="auto"
       mode="F"
       chamfer_steps="1"
       flexible="false"
       use_knot_distance="true"
       apply_no_radius="true"
       apply_with_radius="true"
       only_selected="false"
       hide_knots="false" />
    <filter
       inkscape:collect="always"
       style="color-interpolation-filters:sRGB"
       id="filter2"
       x="-0.054935144"
       y="-0.045068864"
       width="1.1098701"
       height="1.0901377">
      <feGaussianBlur
         inkscape:collect="always"
         stdDeviation="0.77941114"
         id="feGaussianBlur2" />
    </filter>
  </defs>
  <sodipodi:namedview
     id="namedview7"
     pagecolor="#505050"
     bordercolor="#eeeeee"
     borderopacity="1"
     inkscape:showpageshadow="0"
     inkscape:pageopacity="0"
     inkscape:pagecheckerboard="0"
     inkscape:deskcolor="#505050"
     inkscape:zoom="9.534893"
     inkscape:cx="32.774358"
     inkscape:cy="30.62436"
     inkscape:window-width="1920"
     inkscape:window-height="1010"
     inkscape:window-x="0"
     inkscape:window-y="0"
     inkscape:window-maximized="1"
     inkscape:current-layer="svg7"
     showguides="false" />
  <rect
     style="fill:url(#radialGradient9)"
     width="52"
     height="40"
     x="-57.982151"
     y="-52"
     rx="5.7700396"
     ry="5.7700396"
     transform="matrix(0,-1,-1,0,0,0)"
     id="rect1" />
  <path
     id="path2"
     style="fill:url(#radialGradient2)"
     d="M 16.604888,10.966631 14,18 h 1.440644 A 0.90505689,0.90505689 148.28253 0 0 16.250152,17.499697 0.90450856,0.90450856 148.30399 0 1 17.059356,17 h 1.881288 A 0.90505689,0.90505689 31.717474 0 1 19.750152,17.500303 0.90450856,0.90450856 31.696005 0 0 20.559356,18 h 1.526582 l -2.71496,-7.038274 A 1.5024491,1.5024491 34.453133 0 0 17.969204,10 1.4634512,1.4634512 144.68206 0 0 16.604888,10.966631 Z M 18,12 l 0.988281,3 h -1.890625 z m -1.851562,8.025391 c -1.189799,0 -2.160157,1.039485 -2.160157,2.326171 0,0.666896 0.259535,1.279188 0.677735,1.703126 l 3.267578,3.408203 3.376953,-3.408203 c 0.417999,-0.423938 0.677734,-1.03623 0.677734,-1.703126 0,-1.286686 -0.97331,-2.326171 -2.162109,-2.326171 -0.783599,0 -1.461091,0.446235 -1.837891,1.123047 -0.376799,-0.676812 -1.056244,-1.123047 -1.839843,-1.123047 z m 11.849195,4.689706 c -2.973997,0 -5.402344,2.545978 -5.402344,5.698242 0,1.640614 0.651887,3.136788 1.697266,4.17797 l 8.169922,8.358163 8.4375,-8.358163 c 1.045998,-1.039358 1.695312,-2.536877 1.695312,-4.17797 0,-3.152264 -2.428347,-5.698242 -5.402344,-5.698242 -1.957998,0 -3.655657,1.096361 -4.597656,2.753409 -0.941999,-1.657048 -2.639658,-2.753409 -4.597656,-2.753409 z m 18.057055,11.59545 -3.376954,3.408203 C 42.259735,40.142688 42,40.75498 42,41.421875 c 0,1.286687 0.972157,2.326172 2.160156,2.326172 0.783999,0 1.463844,-0.446236 1.839844,-1.123047 0.376,0.676811 1.055845,1.123047 1.839844,1.123047 C 49.027843,43.748047 50,42.708562 50,41.421875 50,40.75498 49.740265,40.142688 49.322266,39.71875 Z M 42,46 44.622494,53.080905 A 1.4081576,1.4081576 34.838658 0 0 45.942996,54 h 0.0769 a 1.4285632,1.4285632 145.54687 0 0 1.33284,-0.914431 L 50.085938,46 H 48.559356 A 0.90505689,0.90505689 148.28253 0 0 47.749848,46.500303 0.90450856,0.90450856 148.30399 0 1 46.940644,47 H 45.059356 A 0.90505689,0.90505689 31.717474 0 1 44.249848,46.499697 0.90450856,0.90450856 31.696005 0 0 43.440644,46 Z m 3.097656,3 h 1.890625 L 46,52 Z"
     inkscape:path-effect="#path-effect7"
     inkscape:original-d="M 16.962891,10 14,18 h 2 l 0.5,-1 h 3 l 0.5,1 h 2.085938 L 19,10 Z M 18,12 l 0.988281,3 h -1.890625 z m -1.851562,8.025391 c -1.189799,0 -2.160157,1.039485 -2.160157,2.326171 0,0.666896 0.259535,1.279188 0.677735,1.703126 l 3.267578,3.408203 3.376953,-3.408203 c 0.417999,-0.423938 0.677734,-1.03623 0.677734,-1.703126 0,-1.286686 -0.97331,-2.326171 -2.162109,-2.326171 -0.783599,0 -1.461091,0.446235 -1.837891,1.123047 -0.376799,-0.676812 -1.056244,-1.123047 -1.839843,-1.123047 z m 11.849195,4.689706 c -2.973997,0 -5.402344,2.545978 -5.402344,5.698242 0,1.640614 0.651887,3.136788 1.697266,4.17797 l 8.169922,8.358163 8.4375,-8.358163 c 1.045998,-1.039358 1.695312,-2.536877 1.695312,-4.17797 0,-3.152264 -2.428347,-5.698242 -5.402344,-5.698242 -1.957998,0 -3.655657,1.096361 -4.597656,2.753409 -0.941999,-1.657048 -2.639658,-2.753409 -4.597656,-2.753409 z m 18.057055,11.59545 -3.376954,3.408203 C 42.259735,40.142688 42,40.75498 42,41.421875 c 0,1.286687 0.972157,2.326172 2.160156,2.326172 0.783999,0 1.463844,-0.446236 1.839844,-1.123047 0.376,0.676811 1.055845,1.123047 1.839844,1.123047 C 49.027843,43.748047 50,42.708562 50,41.421875 50,40.75498 49.740265,40.142688 49.322266,39.71875 Z M 42,46 44.962891,54 H 47 l 3.085938,-8 H 48 l -0.5,1 h -3 L 44,46 Z m 3.097656,3 h 1.890625 L 46,52 Z"
     sodipodi:nodetypes="cccccccccccccsscccsscssscccsscsccsscssccccccccccccccc"
     transform="matrix(0.88933735,0,0,0.88933735,3.5320541,3.5411767)" />
  <path
     id="path2-3"
     style="fill:none;stroke:#000000;stroke-opacity:1;stroke-width:0.22488654;stroke-dasharray:none;stroke-linejoin:round;filter:url(#filter2)"
     d="M 16.604888,10.966631 14,18 h 1.440644 A 0.90505689,0.90505689 148.28253 0 0 16.250152,17.499697 0.90450856,0.90450856 148.30399 0 1 17.059356,17 h 1.881288 A 0.90505689,0.90505689 31.717474 0 1 19.750152,17.500303 0.90450856,0.90450856 31.696005 0 0 20.559356,18 h 1.526582 l -2.71496,-7.038274 A 1.5024491,1.5024491 34.453133 0 0 17.969204,10 1.4634512,1.4634512 144.68206 0 0 16.604888,10.966631 Z M 18,12 l 0.988281,3 h -1.890625 z m -1.851562,8.025391 c -1.189799,0 -2.160157,1.039485 -2.160157,2.326171 0,0.666896 0.259535,1.279188 0.677735,1.703126 l 3.267578,3.408203 3.376953,-3.408203 c 0.417999,-0.423938 0.677734,-1.03623 0.677734,-1.703126 0,-1.286686 -0.97331,-2.326171 -2.162109,-2.326171 -0.783599,0 -1.461091,0.446235 -1.837891,1.123047 -0.376799,-0.676812 -1.056244,-1.123047 -1.839843,-1.123047 z m 11.849195,4.689706 c -2.973997,0 -5.402344,2.545978 -5.402344,5.698242 0,1.640614 0.651887,3.136788 1.697266,4.17797 l 8.169922,8.358163 8.4375,-8.358163 c 1.045998,-1.039358 1.695312,-2.536877 1.695312,-4.17797 0,-3.152264 -2.428347,-5.698242 -5.402344,-5.698242 -1.957998,0 -3.655657,1.096361 -4.597656,2.753409 -0.941999,-1.657048 -2.639658,-2.753409 -4.597656,-2.753409 z m 18.057055,11.59545 -3.376954,3.408203 C 42.259735,40.142688 42,40.75498 42,41.421875 c 0,1.286687 0.972157,2.326172 2.160156,2.326172 0.783999,0 1.463844,-0.446236 1.839844,-1.123047 0.376,0.676811 1.055845,1.123047 1.839844,1.123047 C 49.027843,43.748047 50,42.708562 50,41.421875 50,40.75498 49.740265,40.142688 49.322266,39.71875 Z M 42,46 44.622494,53.080905 A 1.4081576,1.4081576 34.838658 0 0 45.942996,54 h 0.0769 a 1.4285632,1.4285632 145.54687 0 0 1.33284,-0.914431 L 50.085938,46 H 48.559356 A 0.90505689,0.90505689 148.28253 0 0 47.749848,46.500303 0.90450856,0.90450856 148.30399 0 1 46.940644,47 H 45.059356 A 0.90505689,0.90505689 31.717474 0 1 44.249848,46.499697 0.90450856,0.90450856 31.696005 0 0 43.440644,46 Z m 3.097656,3 h 1.890625 L 46,52 Z"
     inkscape:path-effect="#path-effect7-5"
     inkscape:original-d="M 16.962891,10 14,18 h 2 l 0.5,-1 h 3 l 0.5,1 h 2.085938 L 19,10 Z M 18,12 l 0.988281,3 h -1.890625 z m -1.851562,8.025391 c -1.189799,0 -2.160157,1.039485 -2.160157,2.326171 0,0.666896 0.259535,1.279188 0.677735,1.703126 l 3.267578,3.408203 3.376953,-3.408203 c 0.417999,-0.423938 0.677734,-1.03623 0.677734,-1.703126 0,-1.286686 -0.97331,-2.326171 -2.162109,-2.326171 -0.783599,0 -1.461091,0.446235 -1.837891,1.123047 -0.376799,-0.676812 -1.056244,-1.123047 -1.839843,-1.123047 z m 11.849195,4.689706 c -2.973997,0 -5.402344,2.545978 -5.402344,5.698242 0,1.640614 0.651887,3.136788 1.697266,4.17797 l 8.169922,8.358163 8.4375,-8.358163 c 1.045998,-1.039358 1.695312,-2.536877 1.695312,-4.17797 0,-3.152264 -2.428347,-5.698242 -5.402344,-5.698242 -1.957998,0 -3.655657,1.096361 -4.597656,2.753409 -0.941999,-1.657048 -2.639658,-2.753409 -4.597656,-2.753409 z m 18.057055,11.59545 -3.376954,3.408203 C 42.259735,40.142688 42,40.75498 42,41.421875 c 0,1.286687 0.972157,2.326172 2.160156,2.326172 0.783999,0 1.463844,-0.446236 1.839844,-1.123047 0.376,0.676811 1.055845,1.123047 1.839844,1.123047 C 49.027843,43.748047 50,42.708562 50,41.421875 50,40.75498 49.740265,40.142688 49.322266,39.71875 Z M 42,46 44.962891,54 H 47 l 3.085938,-8 H 48 l -0.5,1 h -3 L 44,46 Z m 3.097656,3 h 1.890625 L 46,52 Z"
     sodipodi:nodetypes="cccccccccccccsscccsscssscccsscsccsscssccccccccccccccc"
     transform="matrix(0.88933735,0,0,0.88933735,3.5649297,3.646369)" />
  <rect
     style="fill:none;stroke:#000000;stroke-opacity:1;stroke-linejoin:round;stroke-width:0.29999992;stroke-dasharray:none;filter:url(#filter7)"
     width="52"
     height="40"
     x="-57.981895"
     y="-51.880203"
     rx="5.7700396"
     ry="5.7700396"
     transform="matrix(0,-1,-1,0,0,0)"
     id="rect1-6" />
</svg>
