<?xml version="1.0" encoding="UTF-8" standalone="no"?>
<svg
   width="64"
   height="64"
   version="1"
   id="svg6"
   sodipodi:docname="org.libreoffice.LibreOffice.base.svg"
   inkscape:version="1.3.2 (091e20ef0f, 2023-11-25, custom)"
   xmlns:inkscape="http://www.inkscape.org/namespaces/inkscape"
   xmlns:sodipodi="http://sodipodi.sourceforge.net/DTD/sodipodi-0.dtd"
   xmlns:xlink="http://www.w3.org/1999/xlink"
   xmlns="http://www.w3.org/2000/svg"
   xmlns:svg="http://www.w3.org/2000/svg">
  <defs
     id="defs6">
    <inkscape:path-effect
       effect="fillet_chamfer"
       id="path-effect9-6"
       is_visible="true"
       lpeversion="1"
       nodesatellites_param="F,0,0,1,0,3.800465,0,1 @ F,0,0,1,0,3.800465,0,1 @ F,0,0,1,0,3.800465,0,1 @ F,0,0,1,0,3.800465,0,1 @ F,0,0,1,0,3.800465,0,1 | F,0,0,1,0,1.3899408,0,1 @ F,0,0,1,0,1.3899408,0,1 @ F,0,1,1,0,3.2374143,0,1"
       radius="0"
       unit="px"
       method="auto"
       mode="F"
       chamfer_steps="1"
       flexible="false"
       use_knot_distance="true"
       apply_no_radius="true"
       apply_with_radius="true"
       only_selected="false"
       hide_knots="false" />
    <inkscape:path-effect
       effect="fillet_chamfer"
       id="path-effect9"
       is_visible="true"
       lpeversion="1"
       nodesatellites_param="F,0,0,1,0,3.800465,0,1 @ F,0,0,1,0,3.800465,0,1 @ F,0,0,1,0,3.800465,0,1 @ F,0,0,1,0,3.800465,0,1 @ F,0,0,1,0,3.800465,0,1 | F,0,0,1,0,1.3899408,0,1 @ F,0,0,1,0,1.3899408,0,1 @ F,0,1,1,0,3.2374143,0,1"
       radius="0"
       unit="px"
       method="auto"
       mode="F"
       chamfer_steps="1"
       flexible="false"
       use_knot_distance="true"
       apply_no_radius="true"
       apply_with_radius="true"
       only_selected="false"
       hide_knots="false" />
    <radialGradient
       inkscape:collect="always"
       xlink:href="#linearGradient6"
       id="radialGradient12"
       cx="8.9159527"
       cy="52.562355"
       fx="8.9159527"
       fy="52.562355"
       r="21.984943"
       gradientTransform="matrix(2.4108181,-2.4108181,3.075631,3.075631,-180.22015,-81.761033)"
       gradientUnits="userSpaceOnUse" />
    <linearGradient
       id="linearGradient6"
       inkscape:collect="always">
      <stop
         style="stop-color:#ff3b80;stop-opacity:1;"
         offset="0.00165814"
         id="stop6" />
      <stop
         style="stop-color:#ff6319;stop-opacity:1;"
         offset="0.99860948"
         id="stop8" />
    </linearGradient>
    <filter
       inkscape:collect="always"
       style="color-interpolation-filters:sRGB"
       id="filter1"
       x="-0.086579163"
       y="-0.067864647"
       width="1.1731583"
       height="1.1357293">
      <feGaussianBlur
         inkscape:collect="always"
         stdDeviation="1.5236983"
         id="feGaussianBlur1" />
    </filter>
    <filter
       inkscape:collect="always"
       style="color-interpolation-filters:sRGB"
       id="filter2"
       x="-0.10574655"
       y="-0.079309917"
       width="1.2114931"
       height="1.1586198">
      <feGaussianBlur
         inkscape:collect="always"
         stdDeviation="1.5236983"
         id="feGaussianBlur2" />
    </filter>
  </defs>
  <sodipodi:namedview
     id="namedview6"
     pagecolor="#ffffff"
     bordercolor="#000000"
     borderopacity="0.25"
     inkscape:showpageshadow="2"
     inkscape:pageopacity="0.0"
     inkscape:pagecheckerboard="0"
     inkscape:deskcolor="#d1d1d1"
     inkscape:zoom="8"
     inkscape:cx="18.25"
     inkscape:cy="31.375"
     inkscape:window-width="1920"
     inkscape:window-height="1020"
     inkscape:window-x="0"
     inkscape:window-y="0"
     inkscape:window-maximized="1"
     inkscape:current-layer="svg6" />
  <rect
     style="fill:url(#radialGradient12);fill-opacity:1;stroke:none;stroke-width:8.3;stroke-linejoin:bevel;stroke-opacity:1;paint-order:stroke fill markers"
     id="rect10"
     width="43.969887"
     height="56.095127"
     x="10.015057"
     y="3.9524364"
     rx="6.4782028"
     ry="6.4782028" />
  <path
     id="path4-2"
     style="fill:#f5f5f5"
     d="M 17.800781,8.0000002 A 3.800465,3.800465 0 0 0 14,11.800782 V 52.199219 A 3.800465,3.800465 0 0 0 17.800781,56 H 46.199219 A 3.800465,3.800465 0 0 0 50,52.199219 V 28.628907 A 9.1751341,9.1751341 0 0 0 47.3125,22.140625 L 35.859375,10.6875 A 9.1751341,9.1751341 0 0 0 29.371094,8.0000002 Z m 22.417969,0 a 0.57572504,0.57572504 0 0 0 -0.408203,0.9824219 l 9.207031,9.2070309 A 0.57573962,0.57573962 0 0 0 50,17.78125 V 11.236328 A 3.2374143,3.2374143 0 0 0 46.761719,8.0000002 Z M 32.037109,25.783203 c 4.193996,0 7.777673,1.423186 9.263672,3.4375 0.35,0.474199 0.587688,0.981528 0.679688,1.517579 a 10,5.498031 0 0 1 0.05273,0.546875 10,5.498031 0 0 1 -0.04102,0.464843 c -0.01276,0.08109 -0.03353,0.161578 -0.05273,0.242188 a 10,5.498031 0 0 1 -0.08203,0.304687 c -0.01994,0.05789 -0.04895,0.114355 -0.07227,0.171875 a 10,5.498031 0 0 1 -0.164062,0.365235 c -0.01506,0.02798 -0.03498,0.05611 -0.05078,0.08398 a 10,5.498031 0 0 1 -0.271484,0.423828 10,5.498031 0 0 1 -0.002,0.0059 10,5.498031 0 0 1 -9.26362,3.43551 10,5.498031 0 0 1 -9.263672,-3.435546 10,5.498031 0 0 1 -0.318359,-0.5 10,5.498031 0 0 1 -0.230469,-0.513672 10,5.498031 0 0 1 -0.136719,-0.513672 c -0.03204,-0.177144 -0.05023,-0.356508 -0.05078,-0.535156 a 10,5.498031 0 0 1 0.04883,-0.513672 c 0.02036,-0.120571 0.05752,-0.239243 0.0918,-0.357422 a 10,5.498031 0 0 1 0.04102,-0.160156 c 0.06018,-0.174382 0.137162,-0.345538 0.226562,-0.513672 0.09406,-0.176917 0.203485,-0.348537 0.328125,-0.517578 1.484799,-2.01351 5.068876,-3.435547 9.263672,-3.435547 z m -9.267578,10 a 10,5.09051 0 0 0 9.263672,3.181641 10,5.09051 0 0 0 9.263672,-3.181641 10,5.09051 0 0 1 0.736328,1.908204 10,5.09051 0 0 1 -10,5.091796 10,5.09051 0 0 1 -10,-5.089843 10,5.09051 0 0 1 0.736328,-1.910157 z m 0,6 a 10,5.09051 0 0 0 9.263672,3.183594 10,5.09051 0 0 0 9.263672,-3.183594 10,5.09051 0 0 1 0.736328,1.910157 10,5.09051 0 0 1 -10,5.089843 10,5.09051 0 0 1 -10,-5.091796 10,5.09051 0 0 1 0.736328,-1.908204 z" />
  <rect
     style="fill:none;fill-opacity:1;stroke:#000000;stroke-width:0.3;stroke-linejoin:bevel;stroke-opacity:1;paint-order:stroke fill markers;stroke-dasharray:none;filter:url(#filter1)"
     id="rect10-5"
     width="43.969887"
     height="56.095127"
     x="10.015057"
     y="3.9524364"
     rx="6.4782028"
     ry="6.4782028" />
  <path
     id="path4-2-3"
     style="fill:none;stroke:#ff4700;stroke-opacity:1;stroke-width:0.3;stroke-dasharray:none;filter:url(#filter2)"
     d="M 17.800781,8.0000004 A 3.800465,3.800465 0 0 0 14,11.800782 V 52.199219 A 3.800465,3.800465 0 0 0 17.800781,56 H 46.199219 A 3.800465,3.800465 0 0 0 50,52.199219 V 28.628907 A 9.1751341,9.1751341 0 0 0 47.3125,22.140625 L 35.859375,10.6875 A 9.1751341,9.1751341 0 0 0 29.371094,8.0000004 Z m 22.417969,0 a 0.57572504,0.57572504 0 0 0 -0.408203,0.9824219 l 9.207031,9.2070307 A 0.57573962,0.57573962 0 0 0 50,17.78125 V 11.236328 A 3.2374143,3.2374143 0 0 0 46.761719,8.0000004 Z M 32.037109,25.783203 c 4.193996,0 7.777673,1.423186 9.263672,3.4375 0.35,0.474199 0.587688,0.981528 0.679688,1.517579 a 10,5.498031 0 0 1 0.05273,0.546875 10,5.498031 0 0 1 -0.04102,0.464843 c -0.01276,0.08109 -0.03353,0.161578 -0.05273,0.242188 a 10,5.498031 0 0 1 -0.08203,0.304687 c -0.01994,0.05789 -0.04895,0.114355 -0.07227,0.171875 a 10,5.498031 0 0 1 -0.164062,0.365235 c -0.01506,0.02798 -0.03498,0.05611 -0.05078,0.08398 a 10,5.498031 0 0 1 -0.271484,0.423828 10,5.498031 0 0 1 -0.002,0.0059 10,5.498031 0 0 1 -9.263672,3.435546 10,5.498031 0 0 1 -9.263672,-3.435546 10,5.498031 0 0 1 -0.318359,-0.5 10,5.498031 0 0 1 -0.230469,-0.513672 10,5.498031 0 0 1 -0.136719,-0.513672 c -0.03204,-0.177144 -0.05023,-0.356508 -0.05078,-0.535156 a 10,5.498031 0 0 1 0.04883,-0.513672 c 0.02036,-0.120571 0.05752,-0.239243 0.0918,-0.357422 a 10,5.498031 0 0 1 0.04102,-0.160156 c 0.06018,-0.174382 0.137162,-0.345538 0.226562,-0.513672 0.09406,-0.176917 0.203485,-0.348537 0.328125,-0.517578 1.484799,-2.01351 5.068876,-3.435547 9.263672,-3.435547 z m -9.267578,10 a 10,5.09051 0 0 0 9.263672,3.181641 10,5.09051 0 0 0 9.263672,-3.181641 10,5.09051 0 0 1 0.736328,1.908204 10,5.09051 0 0 1 -10,5.091796 10,5.09051 0 0 1 -10,-5.089843 10,5.09051 0 0 1 0.736328,-1.910157 z m 0,6 a 10,5.09051 0 0 0 9.263672,3.183594 10,5.09051 0 0 0 9.263672,-3.183594 10,5.09051 0 0 1 0.736328,1.910157 10,5.09051 0 0 1 -10,5.089843 10,5.09051 0 0 1 -10,-5.091796 10,5.09051 0 0 1 0.736328,-1.908204 z" />
</svg>
