<?xml version="1.0" encoding="UTF-8" standalone="no"?>
<svg
   width="64"
   height="64"
   version="1"
   id="svg6"
   sodipodi:docname="org.libreoffice.LibreOffice.draw.svg"
   inkscape:version="1.3.2 (091e20ef0f, 2023-11-25, custom)"
   xmlns:inkscape="http://www.inkscape.org/namespaces/inkscape"
   xmlns:sodipodi="http://sodipodi.sourceforge.net/DTD/sodipodi-0.dtd"
   xmlns:xlink="http://www.w3.org/1999/xlink"
   xmlns="http://www.w3.org/2000/svg"
   xmlns:svg="http://www.w3.org/2000/svg">
  <defs
     id="defs6">
    <inkscape:path-effect
       effect="fillet_chamfer"
       id="path-effect9-6"
       is_visible="true"
       lpeversion="1"
       nodesatellites_param="F,0,0,1,0,3.800465,0,1 @ F,0,0,1,0,3.800465,0,1 @ F,0,0,1,0,3.800465,0,1 @ F,0,0,1,0,3.800465,0,1 @ F,0,0,1,0,3.800465,0,1 | F,0,0,1,0,1.3899408,0,1 @ F,0,0,1,0,1.3899408,0,1 @ F,0,1,1,0,3.2374143,0,1"
       radius="0"
       unit="px"
       method="auto"
       mode="F"
       chamfer_steps="1"
       flexible="false"
       use_knot_distance="true"
       apply_no_radius="true"
       apply_with_radius="true"
       only_selected="false"
       hide_knots="false" />
    <inkscape:path-effect
       effect="fillet_chamfer"
       id="path-effect9"
       is_visible="true"
       lpeversion="1"
       nodesatellites_param="F,0,0,1,0,3.800465,0,1 @ F,0,0,1,0,3.800465,0,1 @ F,0,0,1,0,3.800465,0,1 @ F,0,0,1,0,3.800465,0,1 @ F,0,0,1,0,3.800465,0,1 | F,0,0,1,0,1.3899408,0,1 @ F,0,0,1,0,1.3899408,0,1 @ F,0,1,1,0,3.2374143,0,1"
       radius="0"
       unit="px"
       method="auto"
       mode="F"
       chamfer_steps="1"
       flexible="false"
       use_knot_distance="true"
       apply_no_radius="true"
       apply_with_radius="true"
       only_selected="false"
       hide_knots="false" />
    <radialGradient
       inkscape:collect="always"
       xlink:href="#linearGradient6"
       id="radialGradient12"
       cx="8.9159527"
       cy="52.562355"
       fx="8.9159527"
       fy="52.562355"
       r="21.984943"
       gradientTransform="matrix(2.4108181,-2.4108181,3.075631,3.075631,-180.22015,-81.761034)"
       gradientUnits="userSpaceOnUse" />
    <linearGradient
       id="linearGradient6"
       inkscape:collect="always">
      <stop
         style="stop-color:#ffe300;stop-opacity:1;"
         offset="0"
         id="stop6" />
      <stop
         style="stop-color:#ff5300;stop-opacity:1;"
         offset="0.99860948"
         id="stop8" />
    </linearGradient>
    <filter
       inkscape:collect="always"
       style="color-interpolation-filters:sRGB"
       id="filter1"
       x="-0.095512988"
       y="-0.071634742"
       width="1.191026"
       height="1.1432695">
      <feGaussianBlur
         inkscape:collect="always"
         stdDeviation="1.3910282"
         id="feGaussianBlur1" />
    </filter>
    <filter
       inkscape:collect="always"
       style="color-interpolation-filters:sRGB"
       id="filter2"
       x="-0.087737272"
       y="-0.068772425"
       width="1.1754745"
       height="1.1375448">
      <feGaussianBlur
         inkscape:collect="always"
         stdDeviation="1.5449158"
         id="feGaussianBlur2" />
    </filter>
  </defs>
  <sodipodi:namedview
     id="namedview6"
     pagecolor="#ffffff"
     bordercolor="#000000"
     borderopacity="0.25"
     inkscape:showpageshadow="2"
     inkscape:pageopacity="0.0"
     inkscape:pagecheckerboard="0"
     inkscape:deskcolor="#d1d1d1"
     inkscape:zoom="11.820899"
     inkscape:cx="29.1433"
     inkscape:cy="34.007566"
     inkscape:window-width="1920"
     inkscape:window-height="1020"
     inkscape:window-x="0"
     inkscape:window-y="0"
     inkscape:window-maximized="1"
     inkscape:current-layer="svg6" />
  <rect
     style="fill:url(#radialGradient12);fill-opacity:1;stroke:none;stroke-width:8.3;stroke-linejoin:bevel;stroke-opacity:1;paint-order:stroke fill markers"
     id="rect10"
     width="43.969887"
     height="56.095127"
     x="10.015057"
     y="3.9524364"
     rx="6.4782028"
     ry="6.4782028" />
  <path
     id="path4-2"
     style="fill:#f5f5f5"
     d="M 17.800781,7.9999999 A 3.800465,3.800465 0 0 0 14,11.800781 V 52.199219 A 3.800465,3.800465 0 0 0 17.800781,56 H 46.201172 A 3.800465,3.800465 0 0 0 50,52.199219 V 28.628906 A 9.1751341,9.1751341 0 0 0 47.314453,22.140625 L 35.859375,10.6875 A 9.1751341,9.1751341 0 0 0 29.373047,7.9999999 Z m 22.417969,0 A 0.57572504,0.57572504 0 0 0 39.8125,8.9824218 l 9.205078,9.2070312 A 0.57573962,0.57573962 0 0 0 50,17.783203 V 11.238281 A 3.2374143,3.2374143 0 0 0 46.763672,7.9999999 Z m 0.191406,16.1894531 c 0.386234,-0.01211 0.753462,0.05353 1.078125,0.140625 0.649326,0.17419 1.217632,0.46167 1.722656,0.757813 1.010062,0.59229 1.791016,1.271484 1.791016,1.271484 l 1.060547,0.912109 -1.824219,2.123047 -1.0625,-0.912109 c 0,0 -0.634928,-0.541109 -1.380859,-0.978516 -0.372966,-0.218703 -0.768014,-0.39813 -1.03125,-0.46875 -0.131617,-0.03531 -0.208031,-0.03589 -0.236328,-0.03711 -0.221534,0.135721 -0.262234,0.256218 -0.25,0.904297 0.0133,0.704587 0.261903,1.78056 0.546875,2.912109 0.28497,1.131549 0.60708,2.317886 0.61914,3.53125 0.006,0.606681 -0.0687,1.240527 -0.353515,1.859375 -0.284815,0.618848 -0.814482,1.187267 -1.478516,1.521484 -0.762521,0.383783 -1.637319,0.50238 -2.404297,0.320313 -0.766977,-0.182067 -1.383935,-0.601143 -1.902344,-1.074219 -1.036816,-0.94615 -1.805651,-2.176077 -2.636718,-3.341797 -0.831068,-1.16572 -1.698627,-2.251133 -2.603516,-2.896484 -0.893936,-0.637542 -1.735699,-0.911759 -3.035156,-0.626953 -0.459384,0.129456 -0.950556,0.527334 -1.400391,1.33789 -0.454011,0.818083 -0.807775,1.990442 -0.974609,3.277344 -0.04376,0.337529 0.03453,0.693824 0.01758,1.042969 0.752901,0.09939 1.627671,0.07289 2.310547,0.263672 1.734108,0.484483 3.292276,1.376729 4.267578,2.890625 0.992922,1.541196 1.426995,2.968245 1.226562,4.283203 -0.200432,1.314958 -1.150666,2.361327 -2.257812,2.792969 -2.214293,0.863283 -4.992348,-0.04734 -6.72461,-2.433594 l -0.03125,-0.04102 -0.02734,-0.04492 c -0.930289,-1.50518 -1.34475,-3.337637 -1.527344,-5.226562 -0.325133,-0.01387 -0.511575,-0.08625 -0.853516,-0.09375 L 18.90039,38.109375 17.5,38.078125 l 0.0625,-2.798828 1.398437,0.03125 2.154297,0.04687 c 0.284873,0.0062 0.493617,0.07789 0.771485,0.08789 0.02472,-0.360657 -0.05562,-0.730333 -0.0098,-1.083984 0.201977,-1.557965 0.614992,-3.030677 1.304687,-4.273437 0.689695,-1.24276 1.714136,-2.312007 3.128907,-2.695313 l 0.02734,-0.0078 0.02734,-0.0059 c 2.070907,-0.47198 3.93858,0.08796 5.324219,1.076172 1.38564,0.988215 2.385127,2.326687 3.257812,3.550781 0.872685,1.224096 1.645377,2.35025 2.246094,2.898438 0.30036,0.274093 0.527316,0.386439 0.660156,0.417969 0.13284,0.03153 0.214632,0.04499 0.498047,-0.09766 0.143873,-0.07241 0.148623,-0.08995 0.195313,-0.191406 0.04669,-0.10146 0.0991,-0.321296 0.0957,-0.660156 -0.0067,-0.677723 -0.248669,-1.745186 -0.533203,-2.875 -0.284535,-1.129815 -0.609793,-2.323465 -0.632813,-3.542969 -0.02302,-1.219504 0.439625,-2.716876 1.742188,-3.441406 0.399968,-0.222492 0.805172,-0.312109 1.191406,-0.324219 z M 24.71875,38.560547 c 0.194291,1.319499 0.557252,2.520843 1.080078,3.386719 1.059121,1.416372 2.721683,1.70482 3.402344,1.439453 0.343955,-0.134098 0.451472,-0.235845 0.507812,-0.605469 0.05634,-0.369625 -0.05284,-1.164612 -0.8125,-2.34375 -0.527034,-0.81808 -1.343353,-1.340859 -2.667969,-1.710938 -0.386522,-0.107984 -1.050103,-0.09213 -1.509765,-0.166015 z" />
  <rect
     style="fill:none;fill-opacity:1;stroke:#000000;stroke-width:0.3;stroke-linejoin:bevel;stroke-opacity:1;paint-order:stroke fill markers;stroke-dasharray:none;filter:url(#filter2)"
     id="rect10-5"
     width="43.969887"
     height="56.095127"
     x="10.015057"
     y="3.9524364"
     rx="6.4782028"
     ry="6.4782028" />
  <path
     id="path4-2-3"
     style="fill:none;stroke:#ff4d00;stroke-width:0.2;stroke-dasharray:none;stroke-opacity:1;filter:url(#filter1)"
     d="M 17.800781,8 A 3.800465,3.800465 0 0 0 14,11.800781 V 52.199219 A 3.800465,3.800465 0 0 0 17.800781,56 H 46.201172 A 3.800465,3.800465 0 0 0 50,52.199219 V 28.628906 A 9.1751341,9.1751341 0 0 0 47.314453,22.140625 L 35.859375,10.6875 A 9.1751341,9.1751341 0 0 0 29.373047,8 Z M 40.21875,8 A 0.57572504,0.57572504 0 0 0 39.8125,8.9824219 l 9.205078,9.2070311 A 0.57573962,0.57573962 0 0 0 50,17.783203 V 11.238281 A 3.2374143,3.2374143 0 0 0 46.763672,8 Z m 0.191406,16.189453 c 0.386234,-0.01211 0.753462,0.05353 1.078125,0.140625 0.649326,0.17419 1.217632,0.46167 1.722656,0.757813 1.010062,0.59229 1.791016,1.271484 1.791016,1.271484 l 1.060547,0.912109 -1.824219,2.123047 -1.0625,-0.912109 c 0,0 -0.634928,-0.541109 -1.380859,-0.978516 -0.372966,-0.218703 -0.768014,-0.39813 -1.03125,-0.46875 -0.131617,-0.03531 -0.208031,-0.03589 -0.236328,-0.03711 -0.221534,0.135721 -0.262234,0.256218 -0.25,0.904297 0.0133,0.704587 0.261903,1.78056 0.546875,2.912109 0.28497,1.131549 0.60708,2.317886 0.61914,3.53125 0.006,0.606681 -0.0687,1.240527 -0.353515,1.859375 -0.284815,0.618848 -0.814482,1.187267 -1.478516,1.521484 -0.762521,0.383783 -1.637319,0.50238 -2.404297,0.320313 -0.766977,-0.182067 -1.383935,-0.601143 -1.902344,-1.074219 -1.036816,-0.94615 -1.805651,-2.176077 -2.636718,-3.341797 -0.831068,-1.16572 -1.698627,-2.251133 -2.603516,-2.896484 -0.893936,-0.637542 -1.735699,-0.911759 -3.035156,-0.626953 -0.459384,0.129456 -0.950556,0.527334 -1.400391,1.33789 -0.454011,0.818083 -0.807775,1.990442 -0.974609,3.277344 -0.04376,0.337529 0.03453,0.693824 0.01758,1.042969 0.752901,0.09939 1.627671,0.07289 2.310547,0.263672 1.734108,0.484483 3.292276,1.376729 4.267578,2.890625 0.992922,1.541196 1.426995,2.968245 1.226562,4.283203 -0.200432,1.314958 -1.150666,2.361327 -2.257812,2.792969 -2.214293,0.863283 -4.992348,-0.04734 -6.72461,-2.433594 l -0.03125,-0.04102 -0.02734,-0.04492 C 22.505258,41.971382 22.090797,40.138925 21.908203,38.25 21.58307,38.23613 21.396628,38.16375 21.054687,38.15625 L 18.90039,38.10938 17.5,38.07813 l 0.0625,-2.798828 1.398437,0.03125 2.154297,0.04687 c 0.284873,0.0062 0.493617,0.07789 0.771485,0.08789 0.02472,-0.360657 -0.05562,-0.730333 -0.0098,-1.083984 0.201977,-1.557965 0.614992,-3.030677 1.304687,-4.273437 0.689695,-1.24276 1.714136,-2.312007 3.128907,-2.695313 l 0.02734,-0.0078 0.02734,-0.0059 c 2.070907,-0.47198 3.93858,0.08796 5.324219,1.076172 1.38564,0.988215 2.385127,2.326687 3.257812,3.550781 0.872685,1.224096 1.645377,2.35025 2.246094,2.898438 0.30036,0.274093 0.527316,0.386439 0.660156,0.417969 0.13284,0.03153 0.214632,0.04499 0.498047,-0.09766 0.143873,-0.07241 0.148623,-0.08995 0.195313,-0.191406 0.04669,-0.10146 0.0991,-0.321296 0.0957,-0.660156 -0.0067,-0.677723 -0.248669,-1.745186 -0.533203,-2.875 -0.284535,-1.129815 -0.609793,-2.323465 -0.632813,-3.542969 -0.02302,-1.219504 0.439625,-2.716876 1.742188,-3.441406 0.399968,-0.222492 0.805172,-0.312109 1.191406,-0.324219 z M 24.71875,38.560547 c 0.194291,1.319499 0.557252,2.520843 1.080078,3.386719 1.059121,1.416372 2.721683,1.70482 3.402344,1.439453 0.343955,-0.134098 0.451472,-0.235845 0.507812,-0.605469 0.05634,-0.369625 -0.05284,-1.164612 -0.8125,-2.34375 -0.527034,-0.81808 -1.343353,-1.340859 -2.667969,-1.710938 -0.386522,-0.107984 -1.050103,-0.09212 -1.509765,-0.166015 z" />
</svg>
