<?xml version="1.0" encoding="UTF-8" standalone="no"?>
<svg
   width="64"
   height="64"
   version="1.1"
   id="svg10"
   sodipodi:docname="maps.svg"
   inkscape:version="1.4 (e7c3feb100, 2024-10-09)"
   xmlns:inkscape="http://www.inkscape.org/namespaces/inkscape"
   xmlns:sodipodi="http://sodipodi.sourceforge.net/DTD/sodipodi-0.dtd"
   xmlns:xlink="http://www.w3.org/1999/xlink"
   xmlns="http://www.w3.org/2000/svg"
   xmlns:svg="http://www.w3.org/2000/svg">
  <circle
     style="opacity:1;fill:url(#radialGradient2);fill-opacity:1;stroke-width:0.6"
     id="path1"
     cx="32.072071"
     cy="22.918919"
     r="13.333334" />
  <path
     id="path8"
     style="fill:url(#radialGradient13);stroke:#ffffff;stroke-width:0;stroke-dasharray:none;stroke-opacity:1"
     d="m 32,5.0078125 c -10.84152,0 -19.630859,8.6301745 -19.630859,19.2753905 0,0.665221 0.0563,1.279693 0.123047,1.927735 0.05379,0.644852 0.141268,1.296378 0.246093,1.927734 C 14.985891,41.686954 24.14767,51.281442 32,58.992188 39.852084,51.282179 49.01406,41.687689 51.261719,28.138672 c 0.104825,-0.631356 0.192307,-1.282882 0.246093,-1.927734 0.06714,-0.648042 0.123047,-1.262514 0.123047,-1.927735 C 51.630859,13.638722 42.840784,5.0097656 32,5.0097656 Z m 0,7.4863285 c 5.793317,0 10.490234,4.696918 10.490234,10.490234 0,5.793667 -4.696569,10.488282 -10.490234,10.488282 -5.793666,0 -10.490234,-4.694615 -10.490234,-10.488282 0,-5.793316 4.696568,-10.490234 10.490234,-10.490234 z" />
  <defs
     id="defs10">
    <linearGradient
       id="linearGradient12"
       inkscape:collect="always">
      <stop
         style="stop-color:#00ddff;stop-opacity:1;"
         offset="0"
         id="stop12" />
      <stop
         style="stop-color:#0070ff;stop-opacity:1;"
         offset="1"
         id="stop13" />
    </linearGradient>
    <radialGradient
       inkscape:collect="always"
       xlink:href="#linearGradient12"
       id="radialGradient13"
       cx="43.696945"
       cy="43.096508"
       fx="43.696945"
       fy="43.096508"
       r="21.266257"
       gradientTransform="matrix(-1.5138836,1.5138836,-1.4755986,-1.4755986,161.72562,10.07787)"
       gradientUnits="userSpaceOnUse" />
    <radialGradient
       inkscape:collect="always"
       xlink:href="#linearGradient12"
       id="radialGradient2"
       cx="32.216217"
       cy="59.171169"
       fx="32.216217"
       fy="59.171169"
       r="13.333334"
       gradientUnits="userSpaceOnUse"
       gradientTransform="matrix(4.2621621,-4.2621621,4.2621621,4.2621621,-357.29163,-55.715205)" />
  </defs>
  <sodipodi:namedview
     id="namedview10"
     pagecolor="#282828"
     bordercolor="#000000"
     borderopacity="0.25"
     inkscape:showpageshadow="2"
     inkscape:pageopacity="0.0"
     inkscape:pagecheckerboard="0"
     inkscape:deskcolor="#191919"
     inkscape:zoom="13.875"
     inkscape:cx="38.378378"
     inkscape:cy="32.720721"
     inkscape:window-width="3440"
     inkscape:window-height="1361"
     inkscape:window-x="0"
     inkscape:window-y="0"
     inkscape:window-maximized="1"
     inkscape:current-layer="svg10" />
</svg>
