<?xml version="1.0" encoding="UTF-8" standalone="no"?>
<svg
   width="64"
   height="64"
   version="1.1"
   id="svg7"
   sodipodi:docname="mellowplayer.svg"
   inkscape:version="1.4 (e7c3feb100, 2024-10-09)"
   xmlns:inkscape="http://www.inkscape.org/namespaces/inkscape"
   xmlns:sodipodi="http://sodipodi.sourceforge.net/DTD/sodipodi-0.dtd"
   xmlns:xlink="http://www.w3.org/1999/xlink"
   xmlns="http://www.w3.org/2000/svg"
   xmlns:svg="http://www.w3.org/2000/svg">
  <defs
     id="defs7">
    <filter
       inkscape:collect="always"
       style="color-interpolation-filters:sRGB"
       id="filter7"
       x="-0.16383565"
       y="-0.15591676"
       width="1.3276713"
       height="1.3118373">
      <feGaussianBlur
         inkscape:collect="always"
         stdDeviation="3.1195823"
         id="feGaussianBlur7" />
    </filter>
    <radialGradient
       inkscape:collect="always"
       xlink:href="#linearGradient6"
       id="radialGradient7"
       cx="11.757886"
       cy="53.963005"
       fx="11.757886"
       fy="53.963005"
       r="18.94824"
       gradientTransform="matrix(3.4879288,0,0,3.6652042,-33.745646,-137.58344)"
       gradientUnits="userSpaceOnUse" />
    <linearGradient
       id="linearGradient6"
       inkscape:collect="always">
      <stop
         style="stop-color:#c090e7;stop-opacity:1;"
         offset="0"
         id="stop6" />
      <stop
         style="stop-color:#8281fe;stop-opacity:1;"
         offset="1"
         id="stop7" />
    </linearGradient>
    <filter
       inkscape:collect="always"
       style="color-interpolation-filters:sRGB"
       id="filter8"
       x="-0.12596047"
       y="-0.11627578"
       width="1.2519209"
       height="1.2326363">
      <feGaussianBlur
         inkscape:collect="always"
         stdDeviation="1.4974974"
         id="feGaussianBlur8" />
    </filter>
    <filter
       inkscape:collect="always"
       style="color-interpolation-filters:sRGB"
       id="filter2"
       x="-0.082836835"
       y="-0.078694991"
       width="1.1656737"
       height="1.15739">
      <feGaussianBlur
         inkscape:collect="always"
         stdDeviation="0.95699642"
         id="feGaussianBlur2" />
    </filter>
  </defs>
  <sodipodi:namedview
     id="namedview7"
     pagecolor="#505050"
     bordercolor="#eeeeee"
     borderopacity="1"
     inkscape:showpageshadow="0"
     inkscape:pageopacity="0"
     inkscape:pagecheckerboard="0"
     inkscape:deskcolor="#505050"
     inkscape:zoom="13.203009"
     inkscape:cx="27.910304"
     inkscape:cy="38.741169"
     inkscape:current-layer="svg7" />
  <path
     style="fill:url(#radialGradient7);stroke-width:1.22196"
     d="M 20.254191,7.671773 C 14.276195,7.545672 8.8454456,12.449155 8.8460822,18.736205 v 26.620509 0.0048 c 0.00672,8.351554 9.5929818,13.550626 16.6276758,9.64916 l 11.98806,-6.653935 11.990446,-6.661094 0.0048,-0.0024 c 3.512904,-1.955239 5.696895,-5.871492 5.696895,-9.649159 0,-3.777667 -2.183991,-7.693919 -5.696895,-9.649158 l -0.0048,-0.0024 -11.990446,-6.658829 -11.97374,-6.6467735 -0.01198,-0.00477 C 23.873994,8.1922127 22.097946,7.7159161 20.287561,7.6716606 Z"
     id="path5"
     sodipodi:nodetypes="cccsccccsccccccc" />
  <path
     id="circle4"
     style="fill:#f2f2f2;stroke-width:0.761418"
     d="M 32.610165,16.771639 A 7.6141802,7.6141802 0 0 0 24.995985,24.38582 7.6141802,7.6141802 0 0 0 32.610165,32 7.6141802,7.6141802 0 0 0 40.224346,24.38582 7.6141802,7.6141802 0 0 0 32.610165,16.771639 Z m 0,15.228361 a 7.6141802,7.6141802 0 0 0 -7.61418,7.61418 7.6141802,7.6141802 0 0 0 7.61418,7.614181 A 7.6141802,7.6141802 0 0 0 40.224346,39.61418 7.6141802,7.6141802 0 0 0 32.610165,32 Z M 18.904641,24.38582 A 7.6141802,7.6141802 0 0 0 11.290461,32 7.6141802,7.6141802 0 0 0 18.904641,39.61418 7.6141802,7.6141802 0 0 0 26.518821,32 7.6141802,7.6141802 0 0 0 18.904641,24.38582 Z" />
  <path
     id="circle4-3"
     style="fill:none;stroke-width:0.2;fill-opacity:1;stroke:#000000;stroke-opacity:1;stroke-dasharray:none;filter:url(#filter2)"
     d="M 32.610165,16.771639 A 7.6141802,7.6141802 0 0 0 24.995985,24.38582 7.6141802,7.6141802 0 0 0 32.610165,32 7.6141802,7.6141802 0 0 0 40.224346,24.38582 7.6141802,7.6141802 0 0 0 32.610165,16.771639 Z m 0,15.228361 a 7.6141802,7.6141802 0 0 0 -7.61418,7.61418 7.6141802,7.6141802 0 0 0 7.61418,7.614181 A 7.6141802,7.6141802 0 0 0 40.224346,39.61418 7.6141802,7.6141802 0 0 0 32.610165,32 Z M 18.904641,24.38582 A 7.6141802,7.6141802 0 0 0 11.290461,32 7.6141802,7.6141802 0 0 0 18.904641,39.61418 7.6141802,7.6141802 0 0 0 26.518821,32 7.6141802,7.6141802 0 0 0 18.904641,24.38582 Z" />
  <path
     style="opacity:1;fill:#f79940;fill-opacity:1;stroke-width:1.22196"
     d="m 20.078728,16.116167 a 2.67849,2.5756028 0 0 0 -2.742031,2.575114 v 26.618717 a 2.67849,2.5756028 0 0 0 4.017246,2.230012 l 11.985511,-6.653212 11.985509,-6.656634 a 2.67849,2.5756028 0 0 0 0,-4.460077 L 33.337743,23.115408 21.352965,16.462195 a 2.67849,2.5756028 0 0 0 -1.275704,-0.34532 z"
     id="path3-3" />
  <path
     style="fill:none;fill-opacity:1;stroke-width:0.2;stroke:#000000;stroke-opacity:1;stroke-dasharray:none;filter:url(#filter8)"
     d="m 20.078728,16.116167 a 2.67849,2.5756028 0 0 0 -2.742031,2.575114 v 26.618717 a 2.67849,2.5756028 0 0 0 4.017246,2.230012 l 11.985511,-6.653212 11.985509,-6.656634 a 2.67849,2.5756028 0 0 0 0,-4.460077 L 33.337743,23.115408 21.352965,16.462195 a 2.67849,2.5756028 0 0 0 -1.275704,-0.34532 z"
     id="path3-3-6" />
  <path
     id="path5-3"
     style="fill:none;stroke:#000000;stroke-width:0.2;stroke-dasharray:none;stroke-opacity:1;filter:url(#filter7)"
     d="M 20.253909,7.6719983 C 14.275913,7.5458973 8.8450701,12.4494 8.8457061,18.736451 v 26.621094 0.0039 c 0.0067,8.351554 9.5942119,13.549904 16.6289059,9.648438 l 11.986329,-6.652344 11.992187,-6.66211 0.0039,-0.002 c 3.512904,-1.955239 5.697266,-5.87077 5.697266,-9.648437 0,-3.777667 -2.184362,-7.695152 -5.697266,-9.650391 l -0.0039,-0.002 -11.992187,-6.658203 -11.972657,-6.6484372 -0.01172,-0.00391 C 23.874451,8.1922117 22.097497,7.7162538 20.287112,7.6719983 Z m -0.175781,8.4433587 v 0.002 a 2.67849,2.5756028 0 0 1 1.275391,0.345703 l 11.984375,6.652343 11.986328,6.654297 a 2.67849,2.5756028 0 0 1 0,4.460938 l -11.984375,6.65625 -11.986328,6.652343 A 2.67849,2.5756028 0 0 1 17.335941,45.31067 V 18.691529 a 2.67849,2.5756028 0 0 1 2.742187,-2.576172 z" />
</svg>
