<?xml version="1.0" encoding="UTF-8" standalone="no"?>
<svg
   width="64"
   height="64"
   version="1"
   id="svg4"
   sodipodi:docname="photogimp.svg"
   inkscape:version="1.3.2 (091e20ef0f, 2023-11-25, custom)"
   xmlns:inkscape="http://www.inkscape.org/namespaces/inkscape"
   xmlns:sodipodi="http://sodipodi.sourceforge.net/DTD/sodipodi-0.dtd"
   xmlns:xlink="http://www.w3.org/1999/xlink"
   xmlns="http://www.w3.org/2000/svg"
   xmlns:svg="http://www.w3.org/2000/svg">
  <defs
     id="defs4">
    <linearGradient
       id="linearGradient6"
       inkscape:collect="always">
      <stop
         style="stop-color:#734eff;stop-opacity:1;"
         offset="0"
         id="stop7" />
      <stop
         style="stop-color:#744be8;stop-opacity:1;"
         offset="1"
         id="stop8" />
    </linearGradient>
    <filter
       inkscape:collect="always"
       style="color-interpolation-filters:sRGB"
       id="filter4"
       x="-0.023987067"
       y="-0.023987067"
       width="1.0479741"
       height="1.0479741">
      <feGaussianBlur
         inkscape:collect="always"
         stdDeviation="0.55969821"
         id="feGaussianBlur4" />
    </filter>
    <radialGradient
       inkscape:collect="always"
       xlink:href="#linearGradient6"
       id="radialGradient8"
       cx="32"
       cy="32"
       fx="32"
       fy="32"
       r="28"
       gradientUnits="userSpaceOnUse"
       gradientTransform="matrix(1.0710972,0,0,1.0710972,-2.2751123,-2.8640014)" />
    <filter
       inkscape:collect="always"
       style="color-interpolation-filters:sRGB"
       id="filter1"
       x="-0.10454858"
       y="-0.14286019"
       width="1.2090972"
       height="1.2857204">
      <feGaussianBlur
         inkscape:collect="always"
         stdDeviation="2.1027816"
         id="feGaussianBlur1" />
    </filter>
  </defs>
  <sodipodi:namedview
     id="namedview4"
     pagecolor="#ffffff"
     bordercolor="#000000"
     borderopacity="0.25"
     inkscape:showpageshadow="2"
     inkscape:pageopacity="0.0"
     inkscape:pagecheckerboard="0"
     inkscape:deskcolor="#d1d1d1"
     inkscape:zoom="11.313709"
     inkscape:cx="23.953241"
     inkscape:cy="38.537318"
     inkscape:window-width="1920"
     inkscape:window-height="1018"
     inkscape:window-x="0"
     inkscape:window-y="0"
     inkscape:window-maximized="1"
     inkscape:current-layer="svg4" />
  <rect
     style="opacity:0.657283;filter:url(#filter4)"
     width="56"
     height="56"
     x="4"
     y="5"
     rx="15.907106"
     ry="15.907106"
     id="rect1"
     transform="matrix(1.0710972,0,0,1.0710972,-2.2751123,-2.8640014)" />
  <rect
     style="fill:url(#radialGradient8);stroke-width:1.0711"
     width="59.981449"
     height="59.981449"
     x="2.0092769"
     y="1.4203876"
     rx="16.701639"
     ry="16.701639"
     id="rect2" />
  <g
     id="g2"
     transform="matrix(1.0983471,0,0,1.0983471,-3.0892259,-3.1864436)"
     style="opacity:0.463301;fill:#000000;fill-opacity:1;filter:url(#filter1)">
    <path
       style="opacity:1;fill:#000000;fill-opacity:1;stroke-width:1.07742"
       d="m 45.035794,15.115337 c -0.200572,-0.0285 -0.394426,0.293493 -0.715473,1.07742 -0.199497,0.4871 -0.515776,1.149728 -0.707057,1.477243 -1.174559,2.011123 -3.32599,3.870296 -5.879514,5.084076 -1.14548,0.544486 -3.305673,1.296817 -4.217088,1.464616 l -0.572379,0.105221 -0.728101,-0.488207 c -0.470685,-0.315123 -1.002118,-0.575337 -1.506704,-0.740726 -0.694014,-0.227479 -0.89916,-0.255201 -1.885485,-0.25252 -0.978025,0.0033 -1.192217,0.03064 -1.818146,0.248312 -0.834991,0.290366 -1.806669,0.874635 -2.297934,1.380444 -0.192687,0.198395 -0.424394,0.361944 -0.513458,0.361946 -0.08908,0 -0.417947,-0.21667 -0.7281,-0.47979 -0.310159,-0.263114 -0.826711,-0.603762 -1.148968,-0.757559 -0.551045,-0.262988 -1.544383,-0.531067 -1.978074,-0.534501 -0.480416,-0.0039 -1.969919,-1.785449 -2.861897,-3.127044 -0.218759,-0.329026 -0.434779,-0.597631 -0.479789,-0.597631 -0.04499,0 -0.08747,0.171613 -0.09259,0.37878 -0.0052,0.207167 -0.03168,1.330098 -0.06313,2.499951 0.04232,1.32286 -0.0435,1.634578 -0.850151,2.706175 -0.340505,0.418423 -0.5934,0.887901 -0.795439,1.350983 0.285176,0.22475 0.560607,0.464521 0.820691,0.721788 0.446367,-1.305097 1.572451,-2.384344 2.929235,-2.73774 1.879282,-0.489489 3.958515,0.429065 4.839972,2.133796 0.161332,0.312016 0.319829,0.567991 0.353528,0.56817 0.0337,1.79e-4 0.196477,-0.246695 0.357736,-0.551336 0.582211,-1.099748 1.852083,-2.082598 3.131252,-2.415777 0.286024,-0.07449 0.843507,-0.134677 1.23735,-0.134677 3.709995,0 6.110347,3.884993 4.452773,7.209453 -1.120458,2.247237 -3.74659,3.321465 -6.115199,2.499952 -1.242725,-0.431024 -2.293541,-1.39026 -2.874522,-2.617794 -0.183398,-0.387501 -0.36369,-0.705728 -0.395616,-0.707057 -0.03189,-0.0015 -0.155945,0.16672 -0.277771,0.374571 -0.50275,0.857875 -1.656171,1.678962 -2.710385,1.927572 -0.523225,0.123395 -1.476928,0.07898 -2.102231,-0.07576 0.03622,0.281436 0.06052,0.565027 0.06524,0.850152 0.03551,2.147318 -0.952003,4.028882 -2.733532,4.861016 -0.387236,0.180883 -0.799178,0.276027 -1.256288,0.336693 l 0.519771,0.319859 c 3.316416,2.058848 9.195154,4.556447 12.762795,4.957814 0.463066,0.05209 0.982574,0.11058 1.153175,0.130469 0.758432,0.08828 3.282278,-0.03582 4.288636,-0.210434 0.579439,-0.100545 1.534958,-0.3456 2.12538,-0.542918 1.14584,-0.382961 2.495741,-1.035897 2.495741,-1.207889 0,-0.05737 -0.431785,-0.360113 -0.955368,-0.677596 -0.523572,-0.31749 -1.53326,-0.969592 -2.243222,-1.447783 -1.668518,-1.123796 -1.610818,-1.092305 -1.889693,-0.984828 -0.912075,0.351508 -3.284584,0.444138 -4.962023,0.197807 -1.535836,-0.22554 -4.302351,-0.905935 -4.764215,-1.174219 -0.147305,-0.08557 -0.134107,-0.09907 0.101007,-0.101009 0.146227,-0.0015 0.494172,0.03831 0.774396,0.08418 0.280224,0.04586 1.165884,0.125858 1.965448,0.185181 3.069936,0.227812 5.862842,-0.293628 7.807085,-1.460409 0.667995,-0.400869 0.841735,-0.534392 0.841735,-0.660761 0,-0.05557 -0.242035,-0.338841 -0.534502,-0.631302 -0.840724,-0.840732 -0.694024,-0.876589 0.774396,-0.172555 0.630771,0.302437 1.076339,0.592707 1.464618,0.95116 0.519021,0.479155 0.652984,0.550518 1.973867,1.031124 0.779905,0.283774 1.86972,0.709344 2.424194,0.946951 0.554473,0.237606 1.023095,0.433494 1.039541,0.433494 0.07473,0 0.774172,-1.112894 1.17422,-1.86865 1.21595,-2.297165 2.0278,-5.230448 2.466281,-8.90134 0.239364,-2.003908 0.21605,-7.702052 -0.04209,-10.277574 -0.147262,-1.469234 -0.219016,-1.900353 -0.349319,-2.074875 -0.108765,-0.145776 -0.203438,-0.231141 -0.294608,-0.244103 z M 10.722499,25.658058 c -1.8233378,0.0084 -3.1621429,1.161976 -3.5899971,3.143877 -0.2371435,1.098537 0.095136,2.926515 0.7701871,4.259175 0.6759753,1.334469 1.85575,2.663813 3.04287,3.425858 1.245782,0.799696 2.118963,1.063871 3.366936,1.018499 0.695213,-0.0253 0.922129,-0.07715 1.405696,-0.303024 1.38817,-0.6484 2.143245,-2.023205 2.112753,-3.867769 -0.05885,-3.561515 -3.202803,-7.241852 -6.527648,-7.642947 -0.198561,-0.02392 -0.392177,-0.03458 -0.580797,-0.03367 z m 24.624934,11.687479 c -0.112912,-0.0033 -0.176782,0.02828 -0.265145,0.08418 -0.303363,0.191868 -0.54457,0.489134 -0.547128,0.66918 -0.0033,0.217048 0.387404,0.531703 1.771851,1.435156 1.856241,1.211335 3.440906,2.107931 5.218752,2.958696 0.858419,0.410777 1.659547,0.799122 1.780267,0.858569 0.164306,0.08094 0.236532,0.208181 0.28619,0.50504 0.08117,0.485236 0.394062,0.795439 0.808065,0.795439 0.158359,0 1.00654,0.25865 1.881276,0.576588 2.216128,0.805507 2.06341,0.731053 2.159048,1.07742 0.133277,0.482703 0.50102,1.045331 0.934326,1.426739 0.288233,0.253716 0.781286,0.50422 1.755015,0.900657 0.743401,0.302662 1.967472,0.841423 2.723011,1.195262 0.755525,0.353844 1.404943,0.628556 1.439365,0.610257 0.03443,-0.01832 0.04476,-0.0795 0.02525,-0.138885 -0.01961,-0.05935 -0.25916,-0.904163 -0.534501,-1.877068 -0.755336,-2.668908 -1.125338,-3.504559 -1.898111,-4.330723 -0.711746,-0.760912 -1.58006,-1.033611 -2.727219,-0.850151 L 49.518027,43.3429 47.948193,42.337029 c -0.86606,-0.554613 -1.705761,-1.137849 -1.864441,-1.296271 -0.332581,-0.332034 -0.576688,-0.358252 -0.984829,-0.109426 -0.159587,0.09731 -0.347237,0.176764 -0.420867,0.176764 -0.07361,0 -0.455388,-0.182428 -0.845943,-0.404032 -1.51681,-0.860675 -4.442349,-2.080622 -7.108446,-2.962904 -0.855245,-0.283021 -1.188031,-0.390231 -1.376236,-0.395616 z"
       id="path2-6"
       sodipodi:nodetypes="cccscccscssscscsscccccsssccscssccscccccccscsccssscccssccsssscssccccccscccccsccsscsscssssscsscccscscsss" />
    <circle
       style="opacity:1;fill:#000000;fill-opacity:1;stroke:#211302;stroke-width:0;stroke-dasharray:none"
       id="path1-7"
       cx="20.776165"
       cy="29.374502"
       r="1.4282352" />
    <circle
       style="opacity:1;fill:#000000;fill-opacity:1;stroke:#211302;stroke-width:0;stroke-dasharray:none"
       id="path1-3-5"
       cx="30.258892"
       cy="29.374502"
       r="1.4282352" />
  </g>
  <g
     id="g1"
     style="opacity:1"
     transform="matrix(1.09818,0,0,1.09818,-3.0624103,-3.2180055)">
    <path
       style="opacity:1;fill:#ffffff;fill-opacity:1;stroke-width:1.07742"
       d="m 45.035794,15.115337 c -0.200572,-0.0285 -0.394426,0.293493 -0.715473,1.07742 -0.199497,0.4871 -0.515776,1.149728 -0.707057,1.477243 -1.174559,2.011123 -3.32599,3.870296 -5.879514,5.084076 -1.14548,0.544486 -3.305673,1.296817 -4.217088,1.464616 l -0.572379,0.105221 -0.728101,-0.488207 c -0.470685,-0.315123 -1.002118,-0.575337 -1.506704,-0.740726 -0.694014,-0.227479 -0.89916,-0.255201 -1.885485,-0.25252 -0.978025,0.0033 -1.192217,0.03064 -1.818146,0.248312 -0.834991,0.290366 -1.806669,0.874635 -2.297934,1.380444 -0.192687,0.198395 -0.424394,0.361944 -0.513458,0.361946 -0.08908,0 -0.417947,-0.21667 -0.7281,-0.47979 -0.310159,-0.263114 -0.826711,-0.603762 -1.148968,-0.757559 -0.551045,-0.262988 -1.544383,-0.531067 -1.978074,-0.534501 -0.480416,-0.0039 -1.969919,-1.785449 -2.861897,-3.127044 -0.218759,-0.329026 -0.434779,-0.597631 -0.479789,-0.597631 -0.04499,0 -0.08747,0.171613 -0.09259,0.37878 -0.0052,0.207167 -0.03168,1.330098 -0.06313,2.499951 0.04232,1.32286 -0.0435,1.634578 -0.850151,2.706175 -0.340505,0.418423 -0.5934,0.887901 -0.795439,1.350983 0.285176,0.22475 0.560607,0.464521 0.820691,0.721788 0.446367,-1.305097 1.572451,-2.384344 2.929235,-2.73774 1.879282,-0.489489 3.958515,0.429065 4.839972,2.133796 0.161332,0.312016 0.319829,0.567991 0.353528,0.56817 0.0337,1.79e-4 0.196477,-0.246695 0.357736,-0.551336 0.582211,-1.099748 1.852083,-2.082598 3.131252,-2.415777 0.286024,-0.07449 0.843507,-0.134677 1.23735,-0.134677 3.709995,0 6.110347,3.884993 4.452773,7.209453 -1.120458,2.247237 -3.74659,3.321465 -6.115199,2.499952 -1.242725,-0.431024 -2.293541,-1.39026 -2.874522,-2.617794 -0.183398,-0.387501 -0.36369,-0.705728 -0.395616,-0.707057 -0.03189,-0.0015 -0.155945,0.16672 -0.277771,0.374571 -0.50275,0.857875 -1.656171,1.678962 -2.710385,1.927572 -0.523225,0.123395 -1.476928,0.07898 -2.102231,-0.07576 0.03622,0.281436 0.06052,0.565027 0.06524,0.850152 0.03551,2.147318 -0.952003,4.028882 -2.733532,4.861016 -0.387236,0.180883 -0.799178,0.276027 -1.256288,0.336693 l 0.519771,0.319859 c 3.316416,2.058848 9.195154,4.556447 12.762795,4.957814 0.463066,0.05209 0.982574,0.11058 1.153175,0.130469 0.758432,0.08828 3.282278,-0.03582 4.288636,-0.210434 0.579439,-0.100545 1.534958,-0.3456 2.12538,-0.542918 1.14584,-0.382961 2.495741,-1.035897 2.495741,-1.207889 0,-0.05737 -0.431785,-0.360113 -0.955368,-0.677596 -0.523572,-0.31749 -1.53326,-0.969592 -2.243222,-1.447783 -1.668518,-1.123796 -1.610818,-1.092305 -1.889693,-0.984828 -0.912075,0.351508 -3.284584,0.444138 -4.962023,0.197807 -1.535836,-0.22554 -4.302351,-0.905935 -4.764215,-1.174219 -0.147305,-0.08557 -0.134107,-0.09907 0.101007,-0.101009 0.146227,-0.0015 0.494172,0.03831 0.774396,0.08418 0.280224,0.04586 1.165884,0.125858 1.965448,0.185181 3.069936,0.227812 5.862842,-0.293628 7.807085,-1.460409 0.667995,-0.400869 0.841735,-0.534392 0.841735,-0.660761 0,-0.05557 -0.242035,-0.338841 -0.534502,-0.631302 -0.840724,-0.840732 -0.694024,-0.876589 0.774396,-0.172555 0.630771,0.302437 1.076339,0.592707 1.464618,0.95116 0.519021,0.479155 0.652984,0.550518 1.973867,1.031124 0.779905,0.283774 1.86972,0.709344 2.424194,0.946951 0.554473,0.237606 1.023095,0.433494 1.039541,0.433494 0.07473,0 0.774172,-1.112894 1.17422,-1.86865 1.21595,-2.297165 2.0278,-5.230448 2.466281,-8.90134 0.239364,-2.003908 0.21605,-7.702052 -0.04209,-10.277574 -0.147262,-1.469234 -0.219016,-1.900353 -0.349319,-2.074875 -0.108765,-0.145776 -0.203438,-0.231141 -0.294608,-0.244103 z M 10.722499,25.658058 c -1.8233378,0.0084 -3.1621429,1.161976 -3.5899971,3.143877 -0.2371435,1.098537 0.095136,2.926515 0.7701871,4.259175 0.6759753,1.334469 1.85575,2.663813 3.04287,3.425858 1.245782,0.799696 2.118963,1.063871 3.366936,1.018499 0.695213,-0.0253 0.922129,-0.07715 1.405696,-0.303024 1.38817,-0.6484 2.143245,-2.023205 2.112753,-3.867769 -0.05885,-3.561515 -3.202803,-7.241852 -6.527648,-7.642947 -0.198561,-0.02392 -0.392177,-0.03458 -0.580797,-0.03367 z m 24.624934,11.687479 c -0.112912,-0.0033 -0.176782,0.02828 -0.265145,0.08418 -0.303363,0.191868 -0.54457,0.489134 -0.547128,0.66918 -0.0033,0.217048 0.387404,0.531703 1.771851,1.435156 1.856241,1.211335 3.440906,2.107931 5.218752,2.958696 0.858419,0.410777 1.659547,0.799122 1.780267,0.858569 0.164306,0.08094 0.236532,0.208181 0.28619,0.50504 0.08117,0.485236 0.394062,0.795439 0.808065,0.795439 0.158359,0 1.00654,0.25865 1.881276,0.576588 2.216128,0.805507 2.06341,0.731053 2.159048,1.07742 0.133277,0.482703 0.50102,1.045331 0.934326,1.426739 0.288233,0.253716 0.781286,0.50422 1.755015,0.900657 0.743401,0.302662 1.967472,0.841423 2.723011,1.195262 0.755525,0.353844 1.404943,0.628556 1.439365,0.610257 0.03443,-0.01832 0.04476,-0.0795 0.02525,-0.138885 -0.01961,-0.05935 -0.25916,-0.904163 -0.534501,-1.877068 -0.755336,-2.668908 -1.125338,-3.504559 -1.898111,-4.330723 -0.711746,-0.760912 -1.58006,-1.033611 -2.727219,-0.850151 L 49.518027,43.3429 47.948193,42.337029 c -0.86606,-0.554613 -1.705761,-1.137849 -1.864441,-1.296271 -0.332581,-0.332034 -0.576688,-0.358252 -0.984829,-0.109426 -0.159587,0.09731 -0.347237,0.176764 -0.420867,0.176764 -0.07361,0 -0.455388,-0.182428 -0.845943,-0.404032 -1.51681,-0.860675 -4.442349,-2.080622 -7.108446,-2.962904 -0.855245,-0.283021 -1.188031,-0.390231 -1.376236,-0.395616 z"
       id="path2"
       sodipodi:nodetypes="cccscccscssscscsscccccsssccscssccscccccccscsccssscccssccsssscssccccccscccccsccsscsscssssscsscccscscsss" />
    <circle
       style="opacity:1;fill:#ffffff;fill-opacity:1;stroke:#211302;stroke-width:0;stroke-dasharray:none"
       id="path1"
       cx="20.776165"
       cy="29.374502"
       r="1.4282352" />
    <circle
       style="opacity:1;fill:#ffffff;fill-opacity:1;stroke:#211302;stroke-width:0;stroke-dasharray:none"
       id="path1-3"
       cx="30.258892"
       cy="29.374502"
       r="1.4282352" />
  </g>
</svg>
