<?xml version="1.0" encoding="UTF-8" standalone="no"?>
<svg
   width="64"
   height="64"
   version="1"
   id="svg6"
   sodipodi:docname="tv.plex.PlexHTPC.svg"
   inkscape:version="1.4 (e7c3feb100, 2024-10-09)"
   xmlns:inkscape="http://www.inkscape.org/namespaces/inkscape"
   xmlns:sodipodi="http://sodipodi.sourceforge.net/DTD/sodipodi-0.dtd"
   xmlns:xlink="http://www.w3.org/1999/xlink"
   xmlns="http://www.w3.org/2000/svg"
   xmlns:svg="http://www.w3.org/2000/svg">
  <defs
     id="defs6">
    <filter
       inkscape:collect="always"
       style="color-interpolation-filters:sRGB"
       id="filter7"
       x="-0.16383565"
       y="-0.15591676"
       width="1.3276713"
       height="1.3118373">
      <feGaussianBlur
         inkscape:collect="always"
         stdDeviation="3.1195823"
         id="feGaussianBlur7" />
    </filter>
    <filter
       inkscape:collect="always"
       style="color-interpolation-filters:sRGB"
       id="filter12"
       x="-0.092426732"
       y="-0.085306514"
       width="1.1848535"
       height="1.1706108">
      <feGaussianBlur
         inkscape:collect="always"
         stdDeviation="1.1085984"
         id="feGaussianBlur12" />
    </filter>
    <radialGradient
       inkscape:collect="always"
       xlink:href="#linearGradient10"
       id="radialGradient9-6"
       cx="34.448208"
       cy="13.722373"
       fx="34.448208"
       fy="13.722373"
       r="14.663306"
       gradientTransform="matrix(-1.8550731,3.2130809,-3.480713,-2.0095906,158.99169,-69.547083)"
       gradientUnits="userSpaceOnUse" />
    <linearGradient
       id="linearGradient10"
       inkscape:collect="always">
      <stop
         style="stop-color:#ffe400;stop-opacity:1;"
         offset="0"
         id="stop9" />
      <stop
         style="stop-color:#ffab00;stop-opacity:1;"
         offset="1"
         id="stop10" />
    </linearGradient>
    <filter
       inkscape:collect="always"
       style="color-interpolation-filters:sRGB"
       id="filter1"
       x="-0.16681361"
       y="-0.15397196"
       width="1.3336272"
       height="1.3079439">
      <feGaussianBlur
         inkscape:collect="always"
         stdDeviation="2.0384209"
         id="feGaussianBlur1" />
    </filter>
    <inkscape:path-effect
       effect="fillet_chamfer"
       id="path-effect7-3"
       is_visible="true"
       lpeversion="1"
       nodesatellites_param="F,0,0,1,0,0,0,1 @ F,0,0,1,0,0,0,1 @ F,0,0,1,0,1.8303757,0,1 @ F,0,0,1,0,0,0,1 @ F,0,0,1,0,0,0,1 @ F,0,1,1,0,1.8303757,0,1 @ F,0,0,1,0,0,0,1 @ F,0,0,1,0,0,0,1 @ F,0,0,1,0,0,0,1 @ F,0,0,1,0,0,0,1 @ F,0,0,1,0,0,0,1 @ F,0,0,1,0,0,0,1 @ F,0,0,1,0,0,0,1 @ F,0,0,1,0,0,0,1"
       radius="0"
       unit="px"
       method="auto"
       mode="F"
       chamfer_steps="1"
       flexible="false"
       use_knot_distance="true"
       apply_no_radius="true"
       apply_with_radius="true"
       only_selected="false"
       hide_knots="false" />
    <radialGradient
       inkscape:collect="always"
       xlink:href="#linearGradient10"
       id="radialGradient9"
       cx="34.448208"
       cy="13.722373"
       fx="34.448208"
       fy="13.722373"
       r="14.663306"
       gradientTransform="matrix(-1.8550731,3.2130809,-3.480713,-2.0095906,158.99169,-69.547083)"
       gradientUnits="userSpaceOnUse" />
    <inkscape:path-effect
       effect="fillet_chamfer"
       id="path-effect7"
       is_visible="true"
       lpeversion="1"
       nodesatellites_param="F,0,0,1,0,0,0,1 @ F,0,0,1,0,0,0,1 @ F,0,0,1,0,1.8303757,0,1 @ F,0,0,1,0,0,0,1 @ F,0,0,1,0,0,0,1 @ F,0,1,1,0,1.8303757,0,1 @ F,0,0,1,0,0,0,1 @ F,0,0,1,0,0,0,1 @ F,0,0,1,0,0,0,1 @ F,0,0,1,0,0,0,1 @ F,0,0,1,0,0,0,1 @ F,0,0,1,0,0,0,1 @ F,0,0,1,0,0,0,1 @ F,0,0,1,0,0,0,1"
       radius="0"
       unit="px"
       method="auto"
       mode="F"
       chamfer_steps="1"
       flexible="false"
       use_knot_distance="true"
       apply_no_radius="true"
       apply_with_radius="true"
       only_selected="false"
       hide_knots="false" />
    <radialGradient
       inkscape:collect="always"
       xlink:href="#linearGradient6"
       id="radialGradient7"
       cx="11.757886"
       cy="53.963005"
       fx="11.757886"
       fy="53.963005"
       r="18.94824"
       gradientTransform="matrix(3.4879288,0,0,3.6652042,-33.745646,-137.58344)"
       gradientUnits="userSpaceOnUse" />
    <linearGradient
       id="linearGradient6"
       inkscape:collect="always">
      <stop
         style="stop-color:#474747;stop-opacity:1;"
         offset="0"
         id="stop6" />
      <stop
         style="stop-color:#616161;stop-opacity:1;"
         offset="1"
         id="stop7" />
    </linearGradient>
  </defs>
  <sodipodi:namedview
     id="namedview6"
     pagecolor="#505050"
     bordercolor="#eeeeee"
     borderopacity="1"
     inkscape:showpageshadow="0"
     inkscape:pageopacity="0"
     inkscape:pagecheckerboard="0"
     inkscape:deskcolor="#505050"
     inkscape:zoom="18.671875"
     inkscape:cx="22.895397"
     inkscape:cy="34.356485"
     inkscape:current-layer="svg6" />
  <g
     id="g2">
    <path
       style="fill:url(#radialGradient7);stroke-width:1.22196"
       d="M 20.254191,7.6717729 C 14.276195,7.5456719 8.845446,12.449155 8.846082,18.736205 v 26.620508 0.0048 c 0.0067,8.351554 9.592982,13.550626 16.627676,9.64916 l 11.98806,-6.653935 11.990446,-6.661094 0.0048,-0.0024 c 3.512904,-1.955239 5.696895,-5.871493 5.696895,-9.649159 0,-3.777667 -2.183991,-7.693919 -5.696895,-9.649158 l -0.0048,-0.0024 -11.990446,-6.658829 -11.97374,-6.6467736 -0.01198,-0.00477 C 23.873994,8.1922126 22.097946,7.715916 20.287561,7.6716605 Z"
       id="path5-36"
       sodipodi:nodetypes="cccsccccsccccccc" />
    <path
       style="opacity:0.324401;fill:#000000;fill-opacity:1;stroke-width:1.22196"
       d="m 20.078724,16.116043 a 2.67849,2.5756028 0 0 0 -2.742031,2.575114 v 26.618717 a 2.67849,2.5756028 0 0 0 4.017246,2.230013 L 33.33945,40.886674 45.32496,34.23004 a 2.67849,2.5756028 0 0 0 0,-4.460077 L 33.337739,23.115284 21.352961,16.462071 a 2.67849,2.5756028 0 0 0 -1.275704,-0.34532 z"
       id="path3-3" />
    <path
       d="m 20.078125,16.115234 c -1.504333,-0.03441 -2.742946,1.129215 -2.742188,2.576172 v 0.120796 a 3.1702505,3.1702505 59.999584 0 0 1.585165,2.745541 l 17.938273,10.356319 c 0.06514,0.03878 0.06514,0.1331 0,0.171875 l -17.938273,10.35632 a 3.1702507,3.1702507 120.00042 0 0 -1.585165,2.745541 v 0.122749 c 0.0017,1.981685 2.232763,3.219243 4.017579,2.228515 l 11.986328,-6.652343 11.984375,-6.65625 c 1.785495,-0.991381 1.785495,-3.469557 0,-4.460938 L 33.337891,23.115234 21.353516,16.462891 c -0.38831,-0.216132 -0.82686,-0.335004 -1.275391,-0.345704 z"
       style="baseline-shift:baseline;display:inline;overflow:visible;vector-effect:none;fill:url(#radialGradient9);enable-background:accumulate;stop-color:#000000;stop-opacity:1"
       id="path7"
       inkscape:path-effect="#path-effect7"
       inkscape:original-d="m 20.078125,16.115234 c -1.504333,-0.03441 -2.742946,1.129215 -2.742188,2.576172 v 1.951172 l 19.523438,11.271484 c 0.06514,0.03878 0.06514,0.1331 0,0.171875 L 17.335937,43.357422 v 1.953125 c 0.0017,1.981685 2.232763,3.219243 4.017579,2.228515 l 11.986328,-6.652343 11.984375,-6.65625 c 1.785495,-0.991381 1.785495,-3.469557 0,-4.460938 L 33.337891,23.115234 21.353516,16.462891 c -0.38831,-0.216132 -0.82686,-0.335004 -1.275391,-0.345704 z"
       transform="translate(3.6154886e-4,-0.00118152)" />
    <path
       d="m 20.078125,16.115234 c -1.504333,-0.03441 -2.742946,1.129215 -2.742188,2.576172 v 0.120796 a 3.1702505,3.1702505 59.999584 0 0 1.585165,2.745541 l 17.938273,10.356319 c 0.06514,0.03878 0.06514,0.1331 0,0.171875 l -17.938273,10.35632 a 3.1702507,3.1702507 120.00042 0 0 -1.585165,2.745541 v 0.122749 c 0.0017,1.981685 2.232763,3.219243 4.017579,2.228515 l 11.986328,-6.652343 11.984375,-6.65625 c 1.785495,-0.991381 1.785495,-3.469557 0,-4.460938 L 33.337891,23.115234 21.353516,16.462891 c -0.38831,-0.216132 -0.82686,-0.335004 -1.275391,-0.345704 z"
       style="baseline-shift:baseline;display:inline;overflow:visible;opacity:0.32299;vector-effect:none;fill:url(#radialGradient9-6);filter:url(#filter1);enable-background:accumulate;stop-color:#000000"
       id="path7-5"
       inkscape:path-effect="#path-effect7-3"
       inkscape:original-d="m 20.078125,16.115234 c -1.504333,-0.03441 -2.742946,1.129215 -2.742188,2.576172 v 1.951172 l 19.523438,11.271484 c 0.06514,0.03878 0.06514,0.1331 0,0.171875 L 17.335937,43.357422 v 1.953125 c 0.0017,1.981685 2.232763,3.219243 4.017579,2.228515 l 11.986328,-6.652343 11.984375,-6.65625 c 1.785495,-0.991381 1.785495,-3.469557 0,-4.460938 L 33.337891,23.115234 21.353516,16.462891 c -0.38831,-0.216132 -0.82686,-0.335004 -1.275391,-0.345704 z"
       transform="translate(3.6154886e-4,-0.00118152)" />
    <g
       id="g12"
       transform="translate(5.592957,-0.60624481)"
       style="filter:url(#filter12)">
      <path
         d="m 11.743342,19.41667 v 26.375 c 6.59e-4,-1.132297 0.605171,-2.178282 1.585937,-2.744141 L 31.26678,32.690108 c 0.06514,-0.03877 0.06514,-0.133095 0,-0.171875 L 13.329279,22.162764 c -0.98137,-0.566207 -1.585976,-1.613099 -1.585937,-2.746094 z m 28.574219,14.982422 c -0.16739,0.164577 -0.362751,0.311624 -0.585938,0.435547 l -11.984374,6.65625 -11.986329,6.652344 c -1.11551,0.619205 -2.405882,0.368675 -3.216797,-0.390625 0.810853,0.760057 2.100811,1.012047 3.216797,0.392578 l 11.986329,-6.652344 11.984374,-6.65625 c 0.223657,-0.124183 0.418313,-0.272503 0.585938,-0.4375 z"
         style="baseline-shift:baseline;display:inline;overflow:visible;fill:none;stroke:#000000;stroke-width:0.0999999;stroke-dasharray:none;stroke-opacity:1;enable-background:accumulate;stop-color:#000000;stop-opacity:1"
         id="path12" />
      <path
         d="m 14.485529,16.719404 c -1.504333,-0.03441 -2.742946,1.129215 -2.742187,2.576172 v 0.121094 a 3.1702505,3.1702505 0 0 0 1.585937,2.746094 L 31.26678,32.518233 c 0.06514,0.03878 0.06514,0.1331 0,0.171875 L 13.329279,43.047529 a 3.1702507,3.1702507 0 0 0 -1.585937,2.744141 v 0.123047 c 0.0017,1.981685 2.232762,3.219244 4.017578,2.228516 l 11.986329,-6.652344 11.984374,-6.65625 c 1.785495,-0.991381 1.785495,-3.469557 0,-4.460938 L 27.745296,23.719405 15.76092,17.06706 c -0.38831,-0.216132 -0.82686,-0.335003 -1.275391,-0.345703 z"
         style="fill:none;stroke:#000000;stroke-width:0.0999999;stroke-dasharray:none;stroke-opacity:1"
         id="path11" />
    </g>
    <path
       id="path5-3"
       style="fill:none;stroke:#000000;stroke-width:0.2;stroke-dasharray:none;stroke-opacity:1;filter:url(#filter7)"
       d="M 20.253909,7.6719982 C 14.275913,7.5458972 8.84507,12.4494 8.845706,18.73645 v 26.621095 0.0039 c 0.0067,8.351554 9.594212,13.549904 16.628906,9.648438 l 11.986329,-6.652344 11.992187,-6.66211 0.0039,-0.002 c 3.512904,-1.955239 5.697266,-5.870771 5.697266,-9.648438 0,-3.777667 -2.184362,-7.695152 -5.697266,-9.650391 l -0.0039,-0.002 -11.992187,-6.658203 -11.972657,-6.6484373 -0.01172,-0.00391 C 23.874451,8.1922116 22.097497,7.7162537 20.287112,7.6719982 Z m -0.175781,8.4433578 v 0.002 a 2.67849,2.5756028 0 0 1 1.275391,0.345703 l 11.984375,6.652343 11.986328,6.654297 a 2.67849,2.5756028 0 0 1 0,4.460938 L 33.339847,40.886888 21.353519,47.539231 A 2.67849,2.5756028 0 0 1 17.335941,45.31067 V 18.691528 a 2.67849,2.5756028 0 0 1 2.742187,-2.576172 z" />
  </g>
</svg>
