<?xml version="1.0" encoding="UTF-8" standalone="no"?>
<svg
   width="64"
   height="64"
   version="1"
   id="svg9"
   sodipodi:docname="preferences-system-network-share-windows.svg"
   inkscape:version="1.3.2 (091e20ef0f, 2023-11-25, custom)"
   xmlns:inkscape="http://www.inkscape.org/namespaces/inkscape"
   xmlns:sodipodi="http://sodipodi.sourceforge.net/DTD/sodipodi-0.dtd"
   xmlns:xlink="http://www.w3.org/1999/xlink"
   xmlns="http://www.w3.org/2000/svg"
   xmlns:svg="http://www.w3.org/2000/svg">
  <sodipodi:namedview
     id="namedview9"
     pagecolor="#ffffff"
     bordercolor="#000000"
     borderopacity="0.25"
     inkscape:showpageshadow="2"
     inkscape:pageopacity="0.0"
     inkscape:pagecheckerboard="0"
     inkscape:deskcolor="#d1d1d1"
     inkscape:zoom="12.90625"
     inkscape:cx="31.961259"
     inkscape:cy="32"
     inkscape:window-width="1920"
     inkscape:window-height="1020"
     inkscape:window-x="0"
     inkscape:window-y="0"
     inkscape:window-maximized="1"
     inkscape:current-layer="svg9" />
  <defs
     id="defs2">
    <linearGradient
       id="k"
       x1="16"
       x2="16"
       y1="28"
       y2="4"
       gradientTransform="matrix(1.7640507,0,0,1.7640507,30.187401,-6.9268829)"
       gradientUnits="userSpaceOnUse">
      <stop
         offset="0"
         stop-color="#eff0f1"
         id="stop1" />
      <stop
         offset="1"
         stop-color="#fcfcfc"
         id="stop2" />
    </linearGradient>
    <filter
       inkscape:collect="always"
       style="color-interpolation-filters:sRGB"
       id="filter13"
       x="-0.09986808"
       y="-0.099285098"
       width="1.1997362"
       height="1.1985702">
      <feGaussianBlur
         inkscape:collect="always"
         stdDeviation="1.5290925"
         id="feGaussianBlur13" />
    </filter>
    <inkscape:path-effect
       effect="fillet_chamfer"
       id="path-effect11-2"
       is_visible="true"
       lpeversion="1"
       nodesatellites_param="F,0,1,1,0,5.2536766,0,1 @ F,0,1,1,0,5.2536766,0,1 @ F,0,1,1,0,5.2536766,0,1 @ F,0,1,1,0,5.2536766,0,1 | F,0,1,1,0,5.2536766,0,1 @ F,0,1,1,0,5.2536766,0,1 @ F,0,1,1,0,5.2536766,0,1 @ F,0,1,1,0,5.2536766,0,1 | F,0,1,1,0,5.2536766,0,1 @ F,0,1,1,0,5.2536766,0,1 @ F,0,1,1,0,5.2536766,0,1 @ F,0,1,1,0,5.2536766,0,1 | F,0,1,1,0,5.2536766,0,1 @ F,0,1,1,0,5.2536766,0,1 @ F,0,0,1,0,5.2536766,0,1 @ F,0,1,1,0,5.2536766,0,1"
       radius="0"
       unit="px"
       method="auto"
       mode="F"
       chamfer_steps="1"
       flexible="false"
       use_knot_distance="true"
       apply_no_radius="true"
       apply_with_radius="true"
       only_selected="false"
       hide_knots="false" />
    <filter
       inkscape:collect="always"
       style="color-interpolation-filters:sRGB"
       id="filter14"
       x="-0.10874642"
       y="-0.10874642"
       width="1.2174928"
       height="1.2174928">
      <feGaussianBlur
         inkscape:collect="always"
         stdDeviation="2.4332496"
         id="feGaussianBlur14" />
    </filter>
    <inkscape:path-effect
       effect="fillet_chamfer"
       id="path-effect13-9"
       is_visible="true"
       lpeversion="1"
       nodesatellites_param="F,0,1,1,0,13.994114,0,1 @ F,0,1,1,0,13.994114,0,1 @ F,0,1,1,0,13.994114,0,1 @ F,0,0,1,0,13.994114,0,1"
       radius="0"
       unit="px"
       method="auto"
       mode="F"
       chamfer_steps="1"
       flexible="false"
       use_knot_distance="true"
       apply_no_radius="true"
       apply_with_radius="true"
       only_selected="false"
       hide_knots="false" />
    <radialGradient
       inkscape:collect="always"
       xlink:href="#linearGradient11"
       id="radialGradient12"
       cx="31.962891"
       cy="31.968748"
       fx="31.962891"
       fy="31.968748"
       r="19.625"
       gradientTransform="matrix(2.0003572,0,0,2.0121027,-31.974309,-32.355658)"
       gradientUnits="userSpaceOnUse" />
    <linearGradient
       id="linearGradient11"
       inkscape:collect="always">
      <stop
         style="stop-color:#00dfff;stop-opacity:1;"
         offset="0"
         id="stop11" />
      <stop
         style="stop-color:#0097ff;stop-opacity:1;"
         offset="1"
         id="stop12" />
    </linearGradient>
    <inkscape:path-effect
       effect="fillet_chamfer"
       id="path-effect11"
       is_visible="true"
       lpeversion="1"
       nodesatellites_param="F,0,1,1,0,5.2536766,0,1 @ F,0,1,1,0,5.2536766,0,1 @ F,0,1,1,0,5.2536766,0,1 @ F,0,1,1,0,5.2536766,0,1 | F,0,1,1,0,5.2536766,0,1 @ F,0,1,1,0,5.2536766,0,1 @ F,0,1,1,0,5.2536766,0,1 @ F,0,1,1,0,5.2536766,0,1 | F,0,1,1,0,5.2536766,0,1 @ F,0,1,1,0,5.2536766,0,1 @ F,0,1,1,0,5.2536766,0,1 @ F,0,1,1,0,5.2536766,0,1 | F,0,1,1,0,5.2536766,0,1 @ F,0,1,1,0,5.2536766,0,1 @ F,0,0,1,0,5.2536766,0,1 @ F,0,1,1,0,5.2536766,0,1"
       radius="0"
       unit="px"
       method="auto"
       mode="F"
       chamfer_steps="1"
       flexible="false"
       use_knot_distance="true"
       apply_no_radius="true"
       apply_with_radius="true"
       only_selected="false"
       hide_knots="false" />
    <inkscape:path-effect
       effect="fillet_chamfer"
       id="path-effect13"
       is_visible="true"
       lpeversion="1"
       nodesatellites_param="F,0,1,1,0,13.994114,0,1 @ F,0,1,1,0,13.994114,0,1 @ F,0,1,1,0,13.994114,0,1 @ F,0,0,1,0,13.994114,0,1"
       radius="0"
       unit="px"
       method="auto"
       mode="F"
       chamfer_steps="1"
       flexible="false"
       use_knot_distance="true"
       apply_no_radius="true"
       apply_with_radius="true"
       only_selected="false"
       hide_knots="false" />
    <filter
       inkscape:collect="always"
       style="color-interpolation-filters:sRGB"
       id="filter10"
       x="-0.07445867"
       y="-0.074481218"
       width="1.1489173"
       height="1.1489581">
      <feGaussianBlur
         inkscape:collect="always"
         stdDeviation="0.88029679"
         id="feGaussianBlur10" />
    </filter>
  </defs>
  <path
     id="rect1"
     d="M 17.994114,4.0114961 H 46.005886 A 13.994114,13.994114 45 0 1 60,18.00561 V 46.017382 A 13.994114,13.994114 135 0 1 46.005886,60.011496 H 17.994114 A 13.994114,13.994114 45 0 1 4,46.017382 V 18.00561 A 13.994114,13.994114 135 0 1 17.994114,4.0114961 Z"
     style="fill:#393939;fill-opacity:1"
     inkscape:path-effect="#path-effect13"
     inkscape:original-d="M 4,4.0114961 H 60 V 60.011496 H 4 Z"
     transform="matrix(0.94077205,0,0,0.94077205,1.8952944,1.8844792)" />
  <path
     id="rect1-3"
     style="fill:url(#radialGradient12);stroke-width:0.329007"
     d="m 12.509766,17.482193 0,7.918427 a 5.2536766,5.2536766 45 0 0 5.253677,5.253677 h 7.916474 a 5.2536766,5.2536766 135 0 0 5.253677,-5.253677 v -7.918427 a 5.2536766,5.2536766 45 0 0 -5.253677,-5.253677 h -7.916474 a 5.2536766,5.2536766 135 0 0 -5.253677,5.253677 z m 20.652343,0.04687 v 7.918432 a 5.2536766,5.2536766 45 0 0 5.253677,5.253677 h 7.918428 a 5.2536766,5.2536766 135 0 0 5.253677,-5.253677 V 17.529068 A 5.253678,5.253678 45.000008 0 0 46.334214,12.27539 l -7.918428,-3e-6 a 5.2536752,5.2536752 135.00001 0 0 -5.253677,5.253676 z M 12.337891,38.47438 v 7.916474 a 5.2536766,5.2536766 45 0 0 5.253677,5.253677 h 7.916474 a 5.2536766,5.2536766 135 0 0 5.253677,-5.253677 V 38.47438 a 5.2536766,5.2536766 45 0 0 -5.253677,-5.253677 h -7.916474 a 5.2536766,5.2536766 135 0 0 -5.253677,5.253677 z m 20.824218,0.06445 v 7.916477 a 5.2536766,5.2536766 45 0 0 5.253677,5.253677 h 7.918428 a 5.2536766,5.2536766 135 0 0 5.253677,-5.253677 v -7.916474 a 5.2536775,5.2536775 45.000005 0 0 -5.253677,-5.253678 l -7.918428,-1e-6 a 5.2536757,5.2536757 135 0 0 -5.253677,5.253676 z"
     inkscape:path-effect="#path-effect11"
     inkscape:original-d="M 12.509766,12.228516 V 30.654297 H 30.933594 V 12.228516 Z m 20.652343,0.04687 V 30.701172 H 51.587891 V 12.275391 Z M 12.337891,33.220703 V 51.644531 H 30.761719 V 33.220703 Z m 20.824218,0.06445 V 51.708984 H 51.587891 V 33.285156 Z"
     transform="matrix(0.94077205,0,0,0.94077205,1.9302055,1.9246935)" />
  <path
     id="rect1-1"
     d="M 17.994114,4.0114961 H 46.005886 A 13.994114,13.994114 45 0 1 60,18.00561 V 46.017382 A 13.994114,13.994114 135 0 1 46.005886,60.011496 H 17.994114 A 13.994114,13.994114 45 0 1 4,46.017382 V 18.00561 A 13.994114,13.994114 135 0 1 17.994114,4.0114961 Z"
     style="mix-blend-mode:normal;fill:none;fill-opacity:1;stroke:#000000;stroke-width:0.5;stroke-dasharray:none;stroke-opacity:1;filter:url(#filter14)"
     inkscape:path-effect="#path-effect13-9"
     inkscape:original-d="M 4,4.0114961 H 60 V 60.011496 H 4 Z"
     transform="matrix(0.94077205,0,0,0.94077205,1.8952948,1.8844796)" />
  <path
     id="rect1-3-2"
     style="mix-blend-mode:normal;fill:none;stroke:#000000;stroke-width:0.5;stroke-dasharray:none;stroke-opacity:1;filter:url(#filter13)"
     d="m 12.509766,17.482193 0,7.918427 a 5.2536766,5.2536766 45 0 0 5.253677,5.253677 h 7.916474 a 5.2536766,5.2536766 135 0 0 5.253677,-5.253677 v -7.918427 a 5.2536766,5.2536766 45 0 0 -5.253677,-5.253677 h -7.916474 a 5.2536766,5.2536766 135 0 0 -5.253677,5.253677 z m 20.652343,0.04687 v 7.918432 a 5.2536766,5.2536766 45 0 0 5.253677,5.253677 h 7.918428 a 5.2536766,5.2536766 135 0 0 5.253677,-5.253677 V 17.529068 A 5.253678,5.253678 45.000008 0 0 46.334214,12.27539 l -7.918428,-3e-6 a 5.2536752,5.2536752 135.00001 0 0 -5.253677,5.253676 z M 12.337891,38.47438 v 7.916474 a 5.2536766,5.2536766 45 0 0 5.253677,5.253677 h 7.916474 a 5.2536766,5.2536766 135 0 0 5.253677,-5.253677 V 38.47438 a 5.2536766,5.2536766 45 0 0 -5.253677,-5.253677 h -7.916474 a 5.2536766,5.2536766 135 0 0 -5.253677,5.253677 z m 20.824218,0.06445 v 7.916477 a 5.2536766,5.2536766 45 0 0 5.253677,5.253677 h 7.918428 a 5.2536766,5.2536766 135 0 0 5.253677,-5.253677 v -7.916474 a 5.2536775,5.2536775 45.000005 0 0 -5.253677,-5.253678 l -7.918428,-1e-6 a 5.2536757,5.2536757 135 0 0 -5.253677,5.253676 z"
     inkscape:path-effect="#path-effect11-2"
     inkscape:original-d="M 12.509766,12.228516 V 30.654297 H 30.933594 V 12.228516 Z m 20.652343,0.04687 V 30.701172 H 51.587891 V 12.275391 Z M 12.337891,33.220703 V 51.644531 H 30.761719 V 33.220703 Z m 20.824218,0.06445 V 51.708984 H 51.587891 V 33.285156 Z"
     transform="matrix(0.94077205,0,0,0.94077205,1.9302041,1.9246924)" />
  <path
     id="path7"
     style="color:#000000;fill:#ffffff;stroke-width:0.645839;stroke-linecap:round;stroke-linejoin:round;-inkscape-stroke:none"
     d="M 40.317699,17.145471 A 1.18588,1.2494959 0 0 0 39.104228,18.393 v 1.335827 H 21.666577 a 1.9377106,1.9377106 0 0 0 -1.937517,1.937517 v 10.333423 a 1.9377106,1.9377106 0 0 0 1.937517,1.937517 h 18.729329 v 6.458389 H 24.895772 v -1.335827 a 1.1858798,1.249496 0 0 0 -1.213471,-1.247529 1.1858798,1.249496 0 0 0 -0.565109,0.166505 l -2.689314,1.636042 -2.688052,1.63478 a 1.1858798,1.249496 0 0 0 0,2.165831 l 2.688052,1.634779 2.689314,1.636042 a 1.1858798,1.249496 0 0 0 1.77858,-1.081024 V 44.270707 H 42.333423 A 1.9377106,1.9377106 0 0 0 44.27094,42.33319 V 31.999767 A 1.9377106,1.9377106 0 0 0 42.333423,30.06225 H 23.604094 v -6.458389 h 15.500134 v 1.334565 a 1.18588,1.2494959 0 0 0 1.77858,1.081023 l 2.689314,-1.636041 2.688052,-1.63478 a 1.18588,1.2494959 0 0 0 0,-2.16583 l -2.688052,-1.63478 -2.689314,-1.636041 a 1.18588,1.2494959 0 0 0 -0.565109,-0.166506 z" />
  <path
     id="path7-3"
     style="color:#000000;fill:none;stroke:#000000;stroke-width:0.2;stroke-linecap:round;stroke-linejoin:round;stroke-dasharray:none;stroke-opacity:1;filter:url(#filter10)"
     d="m 40.370805,17.170527 a 1.18588,1.2494959 0 0 0 -1.213471,1.247529 v 1.335827 H 21.719683 A 1.9377106,1.9377106 0 0 0 19.782166,21.6914 v 10.333423 a 1.9377106,1.9377106 0 0 0 1.937517,1.937517 h 18.729329 v 6.458389 H 24.948878 v -1.335827 a 1.1858798,1.249496 0 0 0 -1.213471,-1.247529 1.1858798,1.249496 0 0 0 -0.565109,0.166505 l -2.689314,1.636042 -2.688052,1.63478 a 1.1858798,1.249496 0 0 0 0,2.165831 l 2.688052,1.634779 2.689314,1.636042 a 1.1858798,1.249496 0 0 0 1.77858,-1.081024 v -1.334565 h 17.437651 a 1.9377106,1.9377106 0 0 0 1.937517,-1.937517 V 32.024823 A 1.9377106,1.9377106 0 0 0 42.386529,30.087306 H 23.6572 v -6.458389 h 15.500134 v 1.334565 a 1.18588,1.2494959 0 0 0 1.77858,1.081023 l 2.689314,-1.636041 2.688052,-1.63478 a 1.18588,1.2494959 0 0 0 0,-2.16583 l -2.688052,-1.63478 -2.689314,-1.636041 a 1.18588,1.2494959 0 0 0 -0.565109,-0.166506 z" />
</svg>
