<?xml version="1.0" encoding="UTF-8" standalone="no"?>
<svg
   width="64"
   height="64"
   version="1"
   id="svg7"
   sodipodi:docname="preferences-desktop-screensaver.svg"
   inkscape:version="1.3.2 (091e20ef0f, 2023-11-25, custom)"
   xmlns:inkscape="http://www.inkscape.org/namespaces/inkscape"
   xmlns:sodipodi="http://sodipodi.sourceforge.net/DTD/sodipodi-0.dtd"
   xmlns="http://www.w3.org/2000/svg"
   xmlns:svg="http://www.w3.org/2000/svg">
  <defs
     id="defs7">
    <inkscape:path-effect
       effect="fillet_chamfer"
       id="path-effect1"
       is_visible="true"
       lpeversion="1"
       nodesatellites_param="F,0,0,1,0,0,0,1 @ F,0,1,1,0,1.6073165,0,1 @ F,0,0,1,0,0,0,1 @ F,0,1,1,0,1.6073165,0,1 @ F,0,0,1,0,0,0,1 @ F,0,1,1,0,1.6073165,0,1 @ F,0,0,1,0,0,0,1 @ F,0,1,1,0,1.6073165,0,1 | F,0,0,1,0,0,0,1 @ F,0,1,1,0,1.6073165,0,1 @ F,0,0,1,0,0,0,1 @ F,0,1,1,0,1.6073165,0,1 @ F,0,0,1,0,0,0,1 @ F,0,1,1,0,1.6073165,0,1 @ F,0,0,1,0,0,0,1 @ F,0,0,1,0,1.6073165,0,1 | F,0,0,1,0,0,0,1 @ F,0,1,1,0,1.6073165,0,1 @ F,0,0,1,0,0,0,1 @ F,0,1,1,0,1.6073165,0,1 @ F,0,0,1,0,0,0,1 @ F,0,1,1,0,1.6073165,0,1 @ F,0,0,1,0,0,0,1 @ F,0,1,1,0,1.6073165,0,1 | F,0,0,1,0,0,0,1 @ F,0,0,1,0,0,0,1 @ F,0,0,1,0,0,0,1 @ F,0,0,1,0,0,0,1 @ F,0,0,1,0,0,0,1 @ F,0,0,1,0,0,0,1"
       radius="0"
       unit="px"
       method="auto"
       mode="F"
       chamfer_steps="1"
       flexible="false"
       use_knot_distance="true"
       apply_no_radius="true"
       apply_with_radius="true"
       only_selected="false"
       hide_knots="false" />
    <inkscape:path-effect
       effect="fillet_chamfer"
       id="path-effect7-3"
       is_visible="true"
       lpeversion="1"
       nodesatellites_param="F,0,0,1,0,0,0,1 @ F,0,0,1,0,0,0,1 @ F,0,0,1,0,0,0,1 @ F,0,0,1,0,0,0,1 | F,0,0,1,0,1.8482279,0,1 @ F,0,1,1,0,1.8482279,0,1 @ F,0,0,1,0,0.88735634,0,1 @ F,0,1,1,0,1.8482279,0,1 @ F,0,1,1,0,1.8482279,0,1 @ F,0,0,1,0,0,0,1 @ F,0,0,1,0,1.9259872,0,1 @ F,0,0,1,0,0,0,1 | F,0,0,1,0,0,0,1 @ F,0,0,1,0,0,0,1 @ F,0,0,1,0,0,0,1 @ F,0,0,1,0,0,0,1 | F,0,0,1,0,0,0,1 @ F,0,0,1,0,0,0,1 @ F,0,0,1,0,0,0,1 @ F,0,0,1,0,0,0,1"
       radius="0"
       unit="px"
       method="auto"
       mode="F"
       chamfer_steps="1"
       flexible="false"
       use_knot_distance="true"
       apply_no_radius="true"
       apply_with_radius="true"
       only_selected="false"
       hide_knots="false" />
    <filter
       inkscape:collect="always"
       style="color-interpolation-filters:sRGB"
       id="filter2"
       x="-0.11020854"
       y="-0.11020854"
       width="1.2204171"
       height="1.2204171">
      <feGaussianBlur
         inkscape:collect="always"
         stdDeviation="2.4881993"
         id="feGaussianBlur2" />
    </filter>
    <inkscape:path-effect
       effect="fillet_chamfer"
       id="path-effect7"
       is_visible="true"
       lpeversion="1"
       nodesatellites_param="F,0,0,1,0,0,0,1 @ F,0,0,1,0,0,0,1 @ F,0,0,1,0,0,0,1 @ F,0,0,1,0,0,0,1 | F,0,0,1,0,1.8482279,0,1 @ F,0,1,1,0,1.8482279,0,1 @ F,0,0,1,0,0.88735634,0,1 @ F,0,1,1,0,1.8482279,0,1 @ F,0,1,1,0,1.8482279,0,1 @ F,0,0,1,0,0,0,1 @ F,0,0,1,0,1.9259872,0,1 @ F,0,0,1,0,0,0,1 | F,0,0,1,0,0,0,1 @ F,0,0,1,0,0,0,1 @ F,0,0,1,0,0,0,1 @ F,0,0,1,0,0,0,1 | F,0,0,1,0,0,0,1 @ F,0,0,1,0,0,0,1 @ F,0,0,1,0,0,0,1 @ F,0,0,1,0,0,0,1"
       radius="0"
       unit="px"
       method="auto"
       mode="F"
       chamfer_steps="1"
       flexible="false"
       use_knot_distance="true"
       apply_no_radius="true"
       apply_with_radius="true"
       only_selected="false"
       hide_knots="false" />
    <radialGradient
       id="SVGID_1_-3-2"
       cx="-159.43106"
       cy="15.462561"
       r="64.706802"
       gradientTransform="matrix(-0.83539893,0,0,0.89978704,-73.322593,48.143648)"
       gradientUnits="userSpaceOnUse"
       fx="-159.43106"
       fy="15.462561">
      <stop
         offset="0"
         style="stop-color:#c53bb5;stop-opacity:1;"
         id="stop1-6-9" />
      <stop
         offset="1"
         style="stop-color:#4f3799;stop-opacity:1;"
         id="stop2-7-1" />
    </radialGradient>
    <filter
       inkscape:collect="always"
       style="color-interpolation-filters:sRGB"
       id="filter7"
       x="-0.076607424"
       y="-0.089200425"
       width="1.1480669"
       height="1.1724067">
      <feGaussianBlur
         inkscape:collect="always"
         stdDeviation="1.2237618"
         id="feGaussianBlur7" />
    </filter>
  </defs>
  <sodipodi:namedview
     id="namedview7"
     pagecolor="#ffffff"
     bordercolor="#000000"
     borderopacity="0.25"
     inkscape:showpageshadow="2"
     inkscape:pageopacity="0.0"
     inkscape:pagecheckerboard="0"
     inkscape:deskcolor="#d1d1d1"
     inkscape:zoom="9.1260969"
     inkscape:cx="27.887059"
     inkscape:cy="27.503543"
     inkscape:window-width="1920"
     inkscape:window-height="1020"
     inkscape:window-x="0"
     inkscape:window-y="0"
     inkscape:window-maximized="1"
     inkscape:current-layer="svg7" />
  <path
     class="st1"
     d="m 21.535712,5.8392809 h 20.928576 c 8.689096,0 15.696431,7.0073351 15.696431,15.6964311 v 20.928576 c 0,8.689096 -7.007335,15.696431 -15.696431,15.696431 H 21.535712 c -8.689096,0 -15.6964311,-7.007335 -15.6964311,-15.696431 V 21.535712 c 0,-8.689096 7.0073351,-15.6964311 15.6964311,-15.6964311 z"
     id="path2-2"
     style="fill:url(#SVGID_1_-3-2);stroke-width:0.934311" />
  <path
     class="st1"
     d="M 20.8,4 H 43.2 C 52.5,4 60,11.5 60,20.8 V 43.2 C 60,52.5 52.5,60 43.2,60 H 20.8 C 11.5,60 4,52.5 4,43.2 V 20.8 C 4,11.5 11.5,4 20.8,4 Z"
     id="path2-2-3"
     style="fill:none;stroke:#000000;stroke-width:0.4;stroke-dasharray:none;stroke-opacity:1;filter:url(#filter2)"
     transform="matrix(0.9343114,0,0,0.9343114,2.1020354,2.1020354)" />
  <path
     id="path3"
     style="fill:#ffffff;stroke-width:0.862138"
     d="m 18.445298,14.995432 -0.994442,3.010142 A 3.1932492,3.1932492 135 0 1 15.42047,20.03596 l -3.010141,0.994442 3.010141,0.994441 a 3.1932484,3.1932484 44.999996 0 1 2.030386,2.030386 l 0.994442,3.010142 0.994442,-3.010142 a 3.1932484,3.1932484 135 0 1 2.030386,-2.030386 L 24.480267,21.030402 21.470126,20.03596 A 3.1932492,3.1932492 45.000002 0 1 19.43974,18.005574 Z m 11.2078,1.724277 -0.35238,1.065447 a 3.1959073,3.1959073 135 0 1 -2.030727,2.030727 l -1.065447,0.35238 1.065447,0.35238 a 3.1959073,3.1959073 45 0 1 2.030727,2.030727 l 0.35238,1.065447 0.35238,-1.065447 a 3.1959073,3.1959073 135 0 1 2.030727,-2.030727 l 1.065447,-0.35238 -1.065447,-0.35238 a 3.1959073,3.1959073 45 0 1 -2.030727,-2.030727 z m 8.621384,3.448554 a 2.7094268,2.7094268 134.99998 0 1 -1.724276,1.724277 2.7094268,2.7094268 45.000017 0 1 1.724276,1.724277 2.7094295,2.7094295 135 0 1 1.724277,-1.724277 2.7094295,2.7094295 45 0 1 -1.724277,-1.724277 z m 2.322049,4.570007 c 1.346309,1.631354 2.163766,3.715894 2.163766,5.996241 0,5.212033 -4.225807,9.438059 -9.438059,9.438059 -2.280347,0 -4.364845,-0.817457 -5.996241,-2.163766 1.141152,4.864206 5.502393,8.454682 10.714429,8.454682 6.080853,0 11.010787,-4.929936 11.010787,-11.010787 0,-5.212255 -3.590477,-9.573388 -8.454682,-10.714429 z"
     inkscape:path-effect="#path-effect1"
     inkscape:original-d="m 18.445298,14.995432 -1.498639,4.536331 -4.53633,1.498639 4.53633,1.498638 1.498639,4.536331 1.498639,-4.536331 4.53633,-1.498638 -4.53633,-1.498639 z m 11.2078,1.724277 -0.857087,2.591467 -2.591467,0.857087 2.591467,0.857087 0.857087,2.591467 0.857087,-2.591467 2.591467,-0.857087 -2.591467,-0.857087 z m 8.621384,3.448554 -0.427701,1.296575 -1.296575,0.427702 1.296575,0.427702 0.427701,1.296575 0.427702,-1.296575 1.296575,-0.427702 -1.296575,-0.427702 z m 2.322049,4.570007 c 1.346309,1.631354 2.163766,3.715894 2.163766,5.996241 0,5.212033 -4.225807,9.438059 -9.438059,9.438059 -2.280347,0 -4.364845,-0.817457 -5.996241,-2.163766 1.141152,4.864206 5.502393,8.454682 10.714429,8.454682 6.080853,0 11.010787,-4.929936 11.010787,-11.010787 0,-5.212255 -3.590477,-9.573388 -8.454682,-10.714429 z"
     transform="translate(1.269229,1.270541)" />
  <path
     id="path3-6"
     style="fill:none;stroke:#ffae00;stroke-width:0.2;stroke-dasharray:none;stroke-opacity:1;filter:url(#filter7)"
     d="m 16.469913,12.460398 -1.738281,5.261719 -5.2617186,1.738281 5.2617186,1.738281 1.738281,5.261719 1.738281,-5.261719 5.261719,-1.738281 -5.261719,-1.738281 z m 13,2 -0.994141,3.005859 -3.005859,0.994141 3.005859,0.994141 0.994141,3.005859 0.994141,-3.005859 3.005859,-0.994141 -3.005859,-0.994141 z m 10,4 -0.496094,1.503906 -1.503906,0.496094 1.503906,0.496094 0.496094,1.503906 0.496094,-1.503906 1.503906,-0.496094 -1.503906,-0.496094 z m 2.693359,5.300781 c 1.561593,1.892218 2.509766,4.310089 2.509766,6.955078 0,6.045472 -4.90154,10.947266 -10.947266,10.947266 -2.644989,0 -5.062812,-0.948173 -6.955078,-2.509766 1.323629,5.642025 6.382261,9.806641 12.427735,9.806641 7.053221,0 12.771484,-5.718265 12.771484,-12.771484 0,-6.045728 -4.164618,-11.104234 -9.806641,-12.427735 z"
     transform="matrix(0.86213846,0,0,0.86213846,5.6094943,5.6176972)" />
</svg>
