<?xml version="1.0" encoding="UTF-8" standalone="no"?>
<svg
   width="64"
   height="64"
   version="1"
   id="svg4"
   sodipodi:docname="system-search.svg"
   inkscape:version="1.3.2 (091e20ef0f, 2023-11-25, custom)"
   xmlns:inkscape="http://www.inkscape.org/namespaces/inkscape"
   xmlns:sodipodi="http://sodipodi.sourceforge.net/DTD/sodipodi-0.dtd"
   xmlns:xlink="http://www.w3.org/1999/xlink"
   xmlns="http://www.w3.org/2000/svg"
   xmlns:svg="http://www.w3.org/2000/svg">
  <defs
     id="defs4">
    <filter
       inkscape:collect="always"
       style="color-interpolation-filters:sRGB"
       id="filter2"
       x="-0.09667031"
       y="-0.095400556"
       width="1.1920708"
       height="1.1920842">
      <feGaussianBlur
         inkscape:collect="always"
         stdDeviation="1.3724559"
         id="feGaussianBlur2" />
    </filter>
    <radialGradient
       inkscape:collect="always"
       xlink:href="#linearGradient4"
       id="radialGradient5"
       cx="9.2093544"
       cy="24.43586"
       fx="9.2093544"
       fy="24.43586"
       r="29"
       gradientUnits="userSpaceOnUse"
       gradientTransform="matrix(0,2.1357448,-2.1357448,0,59.020334,-13.099978)" />
    <linearGradient
       id="linearGradient4"
       inkscape:collect="always">
      <stop
         style="stop-color:#00e0ff;stop-opacity:1;"
         offset="0"
         id="stop4" />
      <stop
         style="stop-color:#0083ff;stop-opacity:1;"
         offset="1"
         id="stop5" />
    </linearGradient>
    <filter
       inkscape:collect="always"
       style="color-interpolation-filters:sRGB"
       id="filter5"
       x="-0.12898718"
       y="-0.12898718"
       width="1.2579744"
       height="1.2579744">
      <feGaussianBlur
         inkscape:collect="always"
         stdDeviation="2.6561957"
         id="feGaussianBlur5" />
    </filter>
  </defs>
  <sodipodi:namedview
     id="namedview4"
     pagecolor="#ffffff"
     bordercolor="#000000"
     borderopacity="0.25"
     inkscape:showpageshadow="2"
     inkscape:pageopacity="0.0"
     inkscape:pagecheckerboard="0"
     inkscape:deskcolor="#d1d1d1"
     inkscape:zoom="9.8111066"
     inkscape:cx="28.284271"
     inkscape:cy="29.864113"
     inkscape:window-width="1920"
     inkscape:window-height="1020"
     inkscape:window-x="0"
     inkscape:window-y="0"
     inkscape:window-maximized="1"
     inkscape:current-layer="svg4" />
  <g
     id="g1">
    <circle
       style="fill:url(#radialGradient5);stroke-width:0.872162"
       cx="32"
       cy="32"
       r="25.292706"
       id="circle2" />
    <circle
       style="fill:none;stroke:#000000;stroke-width:0.3;stroke-dasharray:none;stroke-opacity:1;filter:url(#filter5)"
       cx="32"
       cy="32"
       r="25.292706"
       id="circle2-5" />
  </g>
  <path
     style="fill:#ffffff;stroke-width:1.08679"
     d="m 35.882052,16.516611 c -6.574434,0 -12.006244,5.377428 -12.006244,11.951774 0,2.498791 0.844835,4.797659 2.170638,6.722982 l -8.004235,8.013122 a 2.1825786,2.1850017 0 0 0 3.052573,3.123759 l 8.004236,-8.013123 c 1.925985,1.32754 4.282671,2.105144 6.783249,2.105144 6.57465,0 11.938521,-5.37743 11.938521,-11.951775 0,-6.574345 -5.363871,-11.951774 -11.938521,-11.951774 z m 0,4.3461 c 4.227105,0 7.59724,3.378658 7.59724,7.605674 0,4.226799 -3.370135,7.605674 -7.59724,7.605674 -4.227104,0 -7.59724,-3.378875 -7.59724,-7.605674 0,-4.227016 3.370136,-7.605674 7.59724,-7.605674 z"
     id="path3" />
  <path
     style="mix-blend-mode:normal;fill:none;stroke:#005dff;stroke-width:0.418767;stroke-dasharray:none;stroke-opacity:1;filter:url(#filter2)"
     d="m 36.018291,13.593737 c -7.933709,0 -14.488555,6.489221 -14.488555,14.422823 0,3.01542 1.019506,5.789583 2.619422,8.112969 l -9.659123,9.669848 a 2.6338303,2.6367544 0 0 0 3.683696,3.769601 l 9.659125,-9.669848 c 2.324186,1.602009 5.168121,2.540384 8.185697,2.540384 7.933971,0 14.40683,-6.489221 14.40683,-14.422823 0,-7.933602 -6.472859,-14.422822 -14.40683,-14.422822 z m 0,5.244663 c 5.101066,0 9.167983,4.077201 9.167983,9.17816 0,5.100697 -4.066917,9.17816 -9.167983,9.17816 -5.101064,0 -9.167981,-4.077463 -9.167981,-9.17816 0,-5.100959 4.066917,-9.17816 9.167981,-9.17816 z"
     id="path3-3"
     transform="matrix(0.82867093,0,0,0.82867093,6.0882035,5.2142436)" />
</svg>
