<?xml version="1.0" encoding="UTF-8" standalone="no"?>
<svg
   width="64"
   height="64"
   version="1"
   id="svg9"
   sodipodi:docname="applications-games.svg"
   inkscape:version="1.3.2 (091e20ef0f, 2023-11-25, custom)"
   xmlns:inkscape="http://www.inkscape.org/namespaces/inkscape"
   xmlns:sodipodi="http://sodipodi.sourceforge.net/DTD/sodipodi-0.dtd"
   xmlns:xlink="http://www.w3.org/1999/xlink"
   xmlns="http://www.w3.org/2000/svg"
   xmlns:svg="http://www.w3.org/2000/svg">
  <defs
     id="defs9">
    <inkscape:path-effect
       effect="fillet_chamfer"
       id="path-effect12"
       is_visible="true"
       lpeversion="1"
       nodesatellites_param="F,0,1,1,0,0.67292987,0,1 @ F,0,1,1,0,0.67292987,0,1 @ F,0,1,1,0,0.67292987,0,1 @ F,0,1,1,0,0.67292987,0,1 @ F,0,1,1,0,0.67292987,0,1 @ F,0,1,1,0,0.67292987,0,1 @ F,0,1,1,0,0.67292987,0,1 @ F,0,1,1,0,0.67292987,0,1 @ F,0,1,1,0,0.67292987,0,1 @ F,0,1,1,0,0.67292987,0,1 @ F,0,1,1,0,0.67292987,0,1 @ F,0,1,1,0,0.67292987,0,1"
       radius="0"
       unit="px"
       method="auto"
       mode="F"
       chamfer_steps="1"
       flexible="false"
       use_knot_distance="true"
       apply_no_radius="true"
       apply_with_radius="true"
       only_selected="false"
       hide_knots="false" />
    <linearGradient
       id="linearGradient11"
       inkscape:collect="always">
      <stop
         style="stop-color:#4b4b4b;stop-opacity:1;"
         offset="0"
         id="stop11" />
      <stop
         style="stop-color:#2c2c2c;stop-opacity:1;"
         offset="1"
         id="stop12" />
    </linearGradient>
    <linearGradient
       id="linearGradient9"
       inkscape:collect="always">
      <stop
         style="stop-color:#aeaeae;stop-opacity:1;"
         offset="0"
         id="stop9" />
      <stop
         style="stop-color:#8d8d8d;stop-opacity:1;"
         offset="1"
         id="stop10" />
    </linearGradient>
    <radialGradient
       inkscape:collect="always"
       xlink:href="#linearGradient9"
       id="radialGradient10"
       cx="10.54447"
       cy="52.384815"
       fx="10.54447"
       fy="52.384815"
       r="33.547375"
       gradientTransform="matrix(1.6493341,-0.46261924,0.2274313,0.81084006,-14.4305,0.46984663)"
       gradientUnits="userSpaceOnUse" />
    <radialGradient
       inkscape:collect="always"
       xlink:href="#linearGradient11"
       id="radialGradient12"
       cx="17.821863"
       cy="31.886627"
       fx="17.821863"
       fy="31.886627"
       r="10.022752"
       gradientUnits="userSpaceOnUse"
       gradientTransform="matrix(1.7179427,-0.46032135,0.46032131,1.7179425,-28.277047,-11.930068)" />
    <filter
       inkscape:collect="always"
       style="color-interpolation-filters:sRGB"
       id="filter12"
       x="-0.048564286"
       y="-0.098784874"
       width="1.0971286"
       height="1.1975697">
      <feGaussianBlur
         inkscape:collect="always"
         stdDeviation="1.219051"
         id="feGaussianBlur12" />
    </filter>
  </defs>
  <sodipodi:namedview
     id="namedview9"
     pagecolor="#ffffff"
     bordercolor="#000000"
     borderopacity="0.25"
     inkscape:showpageshadow="2"
     inkscape:pageopacity="0.0"
     inkscape:pagecheckerboard="0"
     inkscape:deskcolor="#d1d1d1"
     inkscape:zoom="9.8221551"
     inkscape:cx="217.46755"
     inkscape:cy="36.499118"
     inkscape:window-width="1920"
     inkscape:window-height="1028"
     inkscape:window-x="0"
     inkscape:window-y="0"
     inkscape:window-maximized="1"
     inkscape:current-layer="svg9" />
  <rect
     style="opacity:0.608825;fill:#000000;fill-opacity:1;stroke-width:1.04803;stroke-linecap:round;stroke-linejoin:round;paint-order:stroke markers fill;filter:url(#filter12)"
     id="rect9-1"
     width="60.24432"
     height="29.617109"
     x="9.5633879"
     y="9.1511946"
     rx="14.808555"
     ry="14.808555"
     transform="matrix(0.91871648,0.2576894,-0.2576894,0.91871648,1.4545962,1.2484054)" />
  <rect
     style="fill:url(#radialGradient10);stroke-width:0.999999;stroke-linecap:round;stroke-linejoin:round;paint-order:stroke markers fill"
     id="rect9"
     width="60.24432"
     height="29.617109"
     x="9.725667"
     y="8.44977"
     rx="14.808555"
     ry="14.808555"
     transform="rotate(15.668197)" />
  <path
     style="fill:url(#radialGradient12);stroke-width:0.999999"
     d="m 19.998207,20.291087 -1.503062,4.762334 A 0.67292987,0.67292987 152.51645 0 1 17.65088,25.49261 l -4.762334,-1.503062 a 0.67292987,0.67292987 152.51645 0 0 -0.844265,0.439189 l -1.503062,4.762334 a 0.67292987,0.67292987 62.516449 0 0 0.439189,0.844265 l 4.762334,1.503062 a 0.6729299,0.6729299 62.516447 0 1 0.439189,0.844265 l -1.503062,4.762335 a 0.6729299,0.6729299 62.516447 0 0 0.439189,0.844265 l 4.762334,1.503062 a 0.67292984,0.67292984 152.51645 0 0 0.844265,-0.439189 l 1.503062,-4.762335 a 0.6729299,0.6729299 152.51644 0 1 0.844265,-0.439189 l 4.762336,1.503062 a 0.67292983,0.67292983 152.51644 0 0 0.844265,-0.439189 l 1.503061,-4.762334 a 0.67292994,0.67292994 62.516443 0 0 -0.439189,-0.844265 l -4.762335,-1.503062 a 0.67292984,0.67292984 62.516447 0 1 -0.439189,-0.844265 l 1.503062,-4.762334 A 0.67292987,0.67292987 62.516449 0 0 25.604806,21.35496 l -4.762334,-1.503062 a 0.67292987,0.67292987 152.51645 0 0 -0.844265,0.439189 z"
     id="path4"
     inkscape:path-effect="#path-effect12"
     inkscape:original-d="m 20.200745,19.64936 -1.908138,6.045788 -6.045788,-1.908138 -1.908138,6.045788 6.045788,1.908138 -1.908138,6.045789 6.045788,1.908138 1.908138,-6.045789 6.04579,1.908138 1.908137,-6.045788 -6.045789,-1.908138 1.908138,-6.045788 z" />
  <path
     style="fill:#dabdff;stroke-width:0.999999;fill-opacity:1"
     d="m 48.361015,28.491611 a 3.1698795,3.1698795 0 0 0 -3.976962,2.068826 3.1698795,3.1698795 0 0 0 2.068825,3.976962 3.1698795,3.1698795 0 0 0 3.976962,-2.068825 3.1698795,3.1698795 0 0 0 -2.068825,-3.976963 z"
     id="path5" />
  <path
     style="fill:#dabdff;stroke-width:0.999999;fill-opacity:1"
     d="m 40.394058,32.670685 a 3.1698795,3.1698795 0 0 0 -3.976963,2.068826 3.1698795,3.1698795 0 0 0 2.068825,3.976962 3.1698795,3.1698795 0 0 0 3.976964,-2.068824 3.1698795,3.1698795 0 0 0 -2.068826,-3.976964 z"
     id="path6" />
  <path
     style="fill:#d9cbff;stroke-width:0.999999;fill-opacity:1"
     d="m 52.485557,36.486936 a 3.1698795,3.1698795 0 0 0 -3.976963,2.068827 3.1698795,3.1698795 0 0 0 2.068825,3.976961 3.1698795,3.1698795 0 0 0 3.976963,-2.068823 3.1698795,3.1698795 0 0 0 -2.068825,-3.976965 z"
     id="path7" />
  <path
     style="fill:#d9cbff;stroke-width:0.999999;fill-opacity:1"
     d="m 44.544739,40.583187 a 3.1698795,3.1698795 0 0 0 -3.976962,2.068825 3.1698795,3.1698795 0 0 0 2.068823,3.976963 3.1698795,3.1698795 0 0 0 3.976965,-2.068825 3.1698795,3.1698795 0 0 0 -2.068826,-3.976963 z"
     id="path8" />
</svg>
