<?xml version="1.0" encoding="UTF-8" standalone="no"?>
<svg
   width="64"
   height="64"
   version="1"
   id="svg5"
   sodipodi:docname="cs-startup-programs.svg"
   inkscape:version="1.3.2 (091e20ef0f, 2023-11-25, custom)"
   xmlns:inkscape="http://www.inkscape.org/namespaces/inkscape"
   xmlns:sodipodi="http://sodipodi.sourceforge.net/DTD/sodipodi-0.dtd"
   xmlns:xlink="http://www.w3.org/1999/xlink"
   xmlns="http://www.w3.org/2000/svg"
   xmlns:svg="http://www.w3.org/2000/svg">
  <defs
     id="defs5">
    <linearGradient
       id="linearGradient1"
       inkscape:collect="always">
      <stop
         style="stop-color:#00d2ff;stop-opacity:1;"
         offset="0"
         id="stop1" />
      <stop
         style="stop-color:#00acff;stop-opacity:1;"
         offset="1"
         id="stop2" />
    </linearGradient>
    <radialGradient
       inkscape:collect="always"
       xlink:href="#linearGradient1"
       id="radialGradient3"
       gradientUnits="userSpaceOnUse"
       gradientTransform="matrix(0,4.2682743,-4.1469202,0,71.826035,-56.118094)"
       cx="14.827367"
       cy="15.779943"
       fx="14.827367"
       fy="15.779943"
       r="19.88966" />
    <filter
       inkscape:collect="always"
       style="color-interpolation-filters:sRGB"
       id="filter8"
       x="-0.12802563"
       y="-0.13174096"
       width="1.2560259"
       height="1.263506">
      <feGaussianBlur
         inkscape:collect="always"
         stdDeviation="2.0993626"
         id="feGaussianBlur8" />
    </filter>
  </defs>
  <sodipodi:namedview
     id="namedview5"
     pagecolor="#ffffff"
     bordercolor="#000000"
     borderopacity="0.25"
     inkscape:showpageshadow="2"
     inkscape:pageopacity="0.0"
     inkscape:pagecheckerboard="0"
     inkscape:deskcolor="#d1d1d1"
     inkscape:zoom="9.8111066"
     inkscape:cx="31.34203"
     inkscape:cy="33.023798"
     inkscape:window-width="1920"
     inkscape:window-height="1020"
     inkscape:window-x="0"
     inkscape:window-y="0"
     inkscape:window-maximized="1"
     inkscape:current-layer="svg5" />
  <path
     id="path1-3-5"
     style="fill:url(#radialGradient3);fill-opacity:1;stroke-width:0.135674"
     d="m 52.033568,7.3600746 c -1.706392,0.046489 -3.42044,0.2706469 -5.092083,0.50572 -7.689316,1.292539 -15.224163,4.5849134 -20.746998,10.1941304 -0.248788,0.201511 -0.447924,0.626743 -0.829582,0.490773 -1.631353,-0.247244 -3.263642,-0.484754 -4.900256,-0.695053 -2.87549,-0.31864 -5.847327,1.007837 -7.533493,3.358183 -1.974007,2.799226 -3.9015719,5.630895 -5.856892,8.442793 -0.9201978,1.29131 -0.339938,3.286562 1.0936519,3.928677 0.9483903,0.392347 2.0013751,0.310568 2.9994461,0.460878 2.107651,0.27168 4.280748,0.368706 6.347665,0.729931 -0.02005,2.798922 1.011744,5.645884 3.069201,7.585808 1.760104,1.710252 4.170309,2.663408 6.604261,2.810112 0.145492,3.02329 0.201026,6.050944 0.348773,9.073076 0.121441,1.790891 2.327385,2.996495 3.893799,2.100111 3.005195,-1.785138 5.978406,-3.630003 8.963462,-5.450822 2.328758,-1.478558 3.832087,-4.156968 3.829026,-6.923139 -0.05516,-1.878138 -0.206109,-3.753015 -0.293966,-5.630189 6.365924,-5.116919 10.483322,-12.614241 12.428768,-20.465489 0.724757,-3.240013 1.414515,-6.649751 0.72993,-9.9524818 C 55.440455,7.4466065 53.739962,7.313586 52.033568,7.3600746 Z M 41.615226,16.527816 c 1.741421,0.04477 3.453259,0.907242 4.484222,2.321832 1.318776,1.711154 1.523982,4.182685 0.52565,6.096048 -1.008789,2.013753 -3.277908,3.333633 -5.53303,3.138956 -3.076495,-0.109313 -5.671063,-3.048589 -5.396015,-6.115981 0.100851,-2.750865 2.436244,-5.178018 5.174294,-5.408468 0.248115,-0.02769 0.496105,-0.03878 0.744879,-0.03239 z m -28.78621,21.53423 c -0.288203,0.01289 -0.571752,0.11846 -0.792213,0.333824 -1.52211,1.39864 -3.048201,2.790448 -4.5564685,4.202713 -0.7543555,0.67996 -0.3301356,2.121022 0.6776158,2.267023 0.7998556,0.08333 1.6086922,0.08299 2.4115147,0.12207 -0.6803964,1.901062 -1.4423258,3.771588 -2.1275143,5.67005 -0.3125897,0.904806 0.6317483,1.926011 1.5595143,1.6766 1.942219,-0.528875 3.866903,-1.124342 5.807066,-1.661654 -0.01742,0.806113 -0.08722,1.613844 -0.06976,2.41899 0.06756,1.016705 1.461489,1.566293 2.202251,0.861967 1.547868,-1.410931 3.086822,-2.832777 4.618748,-4.260012 0.685366,-0.671747 0.314066,-1.952344 -0.595404,-2.209724 -3.707222,-1.356904 -6.663988,-4.56463 -7.712861,-8.370547 -0.122477,-0.662299 -0.788453,-1.079663 -1.422494,-1.0513 z" />
  <path
     id="path1-3-5-7"
     style="mix-blend-mode:normal;fill:none;fill-opacity:1;stroke:#000000;stroke-width:0.106368;stroke-opacity:1;filter:url(#filter8)"
     d="m 47.176735,13.737564 c -1.33781,0.03645 -2.681622,0.212187 -3.992188,0.396484 -6.028416,1.013349 -11.935728,3.594567 -16.265625,7.992188 -0.195049,0.157984 -0.351172,0.491366 -0.650391,0.384765 -1.278979,-0.193839 -2.558692,-0.380046 -3.841796,-0.544921 -2.254381,-0.249813 -4.584298,0.790143 -5.90625,2.632812 -1.547619,2.19459 -3.058828,4.414615 -4.591797,6.619141 -0.721434,1.012386 -0.266511,2.576661 0.857422,3.080078 0.743537,0.3076 1.569076,0.243486 2.351562,0.361328 1.652396,0.212997 3.356103,0.289065 4.976563,0.572266 -0.01572,2.194351 0.793206,4.426366 2.40625,5.947265 1.37992,1.340835 3.269518,2.088109 5.177734,2.203125 0.114065,2.370255 0.157605,4.743934 0.273438,7.113282 0.09521,1.404056 1.824667,2.349248 3.052734,1.646484 2.35607,-1.399546 4.687064,-2.845918 7.027344,-4.273438 1.825745,-1.159188 3.004353,-3.259059 3.001953,-5.427734 -0.04325,-1.472458 -0.161589,-2.94236 -0.230469,-4.414062 4.990877,-4.011659 8.218913,-9.889551 9.744141,-16.044922 0.568209,-2.540167 1.108978,-5.213398 0.572265,-7.802735 -1.291895,-0.373565 -2.62508,-0.477853 -3.96289,-0.441406 z m -8.167969,7.1875 c 1.365272,0.0351 2.707351,0.711277 3.515625,1.820313 1.033919,1.341543 1.1948,3.279221 0.412109,4.779296 -0.790889,1.578781 -2.569877,2.613564 -4.33789,2.460938 -2.411969,-0.0857 -4.446107,-2.390091 -4.230469,-4.794922 0.07907,-2.156676 1.910012,-4.059561 4.05664,-4.240234 0.194522,-0.02172 0.388946,-0.0304 0.583985,-0.02539 z M 16.440407,37.807877 c -0.22595,0.01011 -0.448253,0.09287 -0.621094,0.261718 -1.193333,1.096532 -2.389786,2.187708 -3.572266,3.294922 -0.591414,0.533088 -0.258826,1.662879 0.53125,1.777344 0.627086,0.06533 1.261213,0.06506 1.890625,0.0957 -0.53343,1.49043 -1.130782,2.956921 -1.667969,4.445313 -0.24507,0.709367 0.49529,1.50999 1.222657,1.314453 1.522698,-0.414638 3.031648,-0.881483 4.552734,-1.302735 -0.01366,0.631992 -0.06839,1.265252 -0.05469,1.896485 0.05296,0.797096 1.145806,1.227973 1.726562,0.675781 1.213527,-1.106168 2.420065,-2.220894 3.621094,-3.339844 0.537326,-0.526649 0.246227,-1.530636 -0.466797,-1.732422 -2.906458,-1.063811 -5.22456,-3.578665 -6.046875,-6.5625 -0.09602,-0.519242 -0.618146,-0.846454 -1.115234,-0.824218 z"
     transform="matrix(1.2755118,0,0,1.2755118,-8.1402738,-10.162944)" />
</svg>
