<?xml version="1.0" encoding="UTF-8" standalone="no"?>
<svg
   width="64"
   height="64"
   version="1"
   id="svg6"
   sodipodi:docname="preferences-desktop-personal.svg"
   inkscape:version="1.3.2 (091e20ef0f, 2023-11-25, custom)"
   xmlns:inkscape="http://www.inkscape.org/namespaces/inkscape"
   xmlns:sodipodi="http://sodipodi.sourceforge.net/DTD/sodipodi-0.dtd"
   xmlns:xlink="http://www.w3.org/1999/xlink"
   xmlns="http://www.w3.org/2000/svg"
   xmlns:svg="http://www.w3.org/2000/svg">
  <defs
     id="defs6">
    <linearGradient
       id="linearGradient6"
       inkscape:collect="always">
      <stop
         style="stop-color:#00b8ff;stop-opacity:1;"
         offset="0"
         id="stop6" />
      <stop
         style="stop-color:#0074ff;stop-opacity:1;"
         offset="1"
         id="stop7" />
    </linearGradient>
    <radialGradient
       inkscape:collect="always"
       xlink:href="#linearGradient6"
       id="radialGradient7"
       cx="11.076758"
       cy="20.507841"
       fx="11.076758"
       fy="20.507841"
       r="28"
       gradientUnits="userSpaceOnUse"
       gradientTransform="matrix(1.0066508,1.7435703,-1.7435703,1.0066508,37.134933,-18.652126)" />
    <filter
       inkscape:collect="always"
       style="color-interpolation-filters:sRGB"
       id="filter8"
       x="-0.10886928"
       y="-0.10886928"
       width="1.2177386"
       height="1.2177386">
      <feGaussianBlur
         inkscape:collect="always"
         stdDeviation="2.4777831"
         id="feGaussianBlur8" />
    </filter>
    <filter
       inkscape:collect="always"
       style="color-interpolation-filters:sRGB"
       id="filter9"
       x="-0.08511458"
       y="-0.064411033"
       width="1.1702292"
       height="1.1288221">
      <feGaussianBlur
         inkscape:collect="always"
         stdDeviation="0.93050344"
         id="feGaussianBlur9" />
    </filter>
  </defs>
  <sodipodi:namedview
     id="namedview6"
     pagecolor="#ffffff"
     bordercolor="#000000"
     borderopacity="0.25"
     inkscape:showpageshadow="2"
     inkscape:pageopacity="0.0"
     inkscape:pagecheckerboard="0"
     inkscape:deskcolor="#d1d1d1"
     inkscape:zoom="9.1260969"
     inkscape:cx="23.942327"
     inkscape:cy="32.434457"
     inkscape:window-width="1920"
     inkscape:window-height="1020"
     inkscape:window-x="0"
     inkscape:window-y="0"
     inkscape:window-maximized="1"
     inkscape:current-layer="svg6" />
  <circle
     style="fill:url(#radialGradient7);stroke-width:0.930616"
     cx="32"
     cy="32"
     r="26.057245"
     id="circle2" />
  <path
     id="path4"
     style="fill:#ffffff;fill-opacity:1;stroke-width:0.930616"
     d="m 32,14.783606 c -3.598502,0 -6.514311,2.917112 -6.514311,6.514311 0,3.597199 2.915809,6.514311 6.514311,6.514311 3.598502,0 6.514311,-2.917112 6.514311,-6.514311 0,-3.597199 -2.915809,-6.514311 -6.514311,-6.514311 z m 0,17.681702 c -13.027307,0.0078 -13.028623,8.246493 -13.028623,8.246493 v 3.349854 c 0,0 2.405278,5.154739 13.028623,5.154739 10.623345,0 13.028623,-5.154739 13.028623,-5.154739 v -3.349854 c 0,0 -8.01e-4,-8.251647 -13.026806,-8.246493 z" />
  <circle
     style="mix-blend-mode:normal;fill:none;fill-opacity:1;stroke:#000000;stroke-width:0.3;stroke-dasharray:none;stroke-opacity:1;filter:url(#filter8)"
     cx="32"
     cy="32"
     r="28"
     id="circle2-5"
     transform="matrix(0.93061592,0,0,0.93061592,2.2202906,2.2202906)" />
  <path
     id="path4-3"
     style="mix-blend-mode:normal;fill:none;fill-opacity:1;stroke:#5300ff;stroke-width:0.3;stroke-dasharray:none;stroke-opacity:1;filter:url(#filter9)"
     d="m 32,13.5 c -3.866796,0 -7,3.134604 -7,7 0,3.865396 3.133204,7 7,7 3.866796,0 7,-3.134604 7,-7 0,-3.865396 -3.133204,-7 -7,-7 z m 0,19 c -13.998586,0.0084 -14,8.861328 -14,8.861328 v 3.59961 c 0,0 2.584609,5.539062 14,5.539062 11.415391,0 14,-5.539062 14,-5.539062 v -3.59961 c 0,0 -8.61e-4,-8.866866 -13.998047,-8.861328 z"
     transform="matrix(0.93061592,0,0,0.93061592,2.2202906,2.2202906)" />
</svg>
