<?xml version="1.0" encoding="UTF-8" standalone="no"?>
<svg
   width="64"
   height="64"
   version="1"
   id="svg19"
   sodipodi:docname="system-config-keyboard.svg"
   inkscape:version="1.3.2 (091e20ef0f, 2023-11-25, custom)"
   xmlns:inkscape="http://www.inkscape.org/namespaces/inkscape"
   xmlns:sodipodi="http://sodipodi.sourceforge.net/DTD/sodipodi-0.dtd"
   xmlns:xlink="http://www.w3.org/1999/xlink"
   xmlns="http://www.w3.org/2000/svg"
   xmlns:svg="http://www.w3.org/2000/svg">
  <defs
     id="defs19">
    <radialGradient
       inkscape:collect="always"
       xlink:href="#linearGradient15"
       id="radialGradient16"
       cx="5.4012794"
       cy="55.951233"
       fx="5.4012804"
       fy="55.951233"
       r="27.5"
       gradientTransform="matrix(2.2039715,-1.2724635,0.90229234,1.5628161,-50.518345,-35.195803)"
       gradientUnits="userSpaceOnUse" />
    <linearGradient
       id="linearGradient15"
       inkscape:collect="always">
      <stop
         style="stop-color:#5d5d5d;stop-opacity:1;"
         offset="0"
         id="stop15" />
      <stop
         style="stop-color:#383838;stop-opacity:1;"
         offset="1"
         id="stop16" />
    </linearGradient>
    <radialGradient
       inkscape:collect="always"
       xlink:href="#linearGradient3"
       id="radialGradient2"
       cx="5.401279"
       cy="55.951233"
       fx="5.401279"
       fy="55.951233"
       r="27.5"
       gradientTransform="matrix(2.494078,-1.4399567,1.0210602,1.768528,-61.414801,-44.018035)"
       gradientUnits="userSpaceOnUse" />
    <linearGradient
       id="linearGradient3"
       inkscape:collect="always">
      <stop
         style="stop-color:#939393;stop-opacity:1;"
         offset="0"
         id="stop2" />
      <stop
         style="stop-color:#656565;stop-opacity:1;"
         offset="1"
         id="stop3" />
    </linearGradient>
    <filter
       inkscape:collect="always"
       style="color-interpolation-filters:sRGB"
       id="filter13"
       x="-0.09692017"
       y="-0.13122311"
       width="1.1938403"
       height="1.2624462">
      <feGaussianBlur
         inkscape:collect="always"
         stdDeviation="2.0978543"
         id="feGaussianBlur13" />
    </filter>
    <filter
       inkscape:collect="always"
       style="color-interpolation-filters:sRGB"
       id="filter14"
       x="-0.1058439"
       y="-0.14926704"
       width="1.2116878"
       height="1.2985341">
      <feGaussianBlur
         inkscape:collect="always"
         stdDeviation="1.8083354"
         id="feGaussianBlur14" />
    </filter>
    <filter
       inkscape:collect="always"
       style="color-interpolation-filters:sRGB"
       id="filter15"
       x="-0.059029183"
       y="-0.094995857"
       width="1.1180584"
       height="1.1899917">
      <feGaussianBlur
         inkscape:collect="always"
         stdDeviation="0.75750601"
         id="feGaussianBlur15" />
    </filter>
  </defs>
  <sodipodi:namedview
     id="namedview19"
     pagecolor="#ffffff"
     bordercolor="#000000"
     borderopacity="0.25"
     inkscape:showpageshadow="2"
     inkscape:pageopacity="0.0"
     inkscape:pagecheckerboard="0"
     inkscape:deskcolor="#d1d1d1"
     inkscape:zoom="9.8111066"
     inkscape:cx="28.284271"
     inkscape:cy="27.214056"
     inkscape:window-width="1920"
     inkscape:window-height="1020"
     inkscape:window-x="0"
     inkscape:window-y="0"
     inkscape:window-maximized="1"
     inkscape:current-layer="svg19" />
  <g
     id="g15">
    <path
       style="color:#000000;fill:url(#radialGradient2);-inkscape-stroke:none"
       d="m 14.789063,12.244141 c -5.237534,0 -9.5371099,4.301529 -9.5371099,9.539062 v 20.433594 c 0,5.237533 4.2995759,9.539062 9.5371099,9.539062 h 34.421874 c 5.237534,0 9.53711,-4.301529 9.53711,-9.539062 V 21.783203 c 0,-5.237533 -4.299576,-9.539062 -9.53711,-9.539062 z"
       id="path13"
       sodipodi:nodetypes="sssssssss" />
    <path
       style="color:#000000;fill:url(#radialGradient16);stroke-width:0.88234;-inkscape-stroke:none"
       d="m 16.81482,16.959824 h 30.370361 c 3.338028,0 6.025323,2.687294 6.025323,6.025324 v 18.029705 c 0,3.338029 -2.687295,6.025323 -6.025323,6.025323 H 16.81482 c -3.33803,0 -6.025324,-2.687294 -6.025324,-6.025323 V 22.985148 c 0,-3.33803 2.687294,-6.025324 6.025324,-6.025324 z"
       id="path12" />
    <path
       id="path11"
       style="opacity:0.386239;fill:#000000;fill-opacity:1;stroke-width:0.901094"
       d="m 18.49007,21.641577 c -0.706114,0 -1.275545,0.569432 -1.275545,1.275543 v 2.54922 c 0,0.706112 0.569431,1.273676 1.275545,1.273676 h 2.549219 c 0.706113,0 1.273676,-0.567564 1.273676,-1.273676 v -2.54922 c 0,-0.706112 -0.567563,-1.275543 -1.273676,-1.275543 z m 8.157503,0 c -0.706112,0 -1.275545,0.569432 -1.275545,1.275543 v 2.54922 c 0,0.706112 0.569433,1.273676 1.275545,1.273676 h 2.549219 c 0.706113,0 1.273677,-0.567564 1.273677,-1.273676 v -2.54922 c 0,-0.706112 -0.567564,-1.275543 -1.273677,-1.275543 z m 8.155635,0 c -0.706112,0 -1.273677,0.569432 -1.273677,1.275543 v 2.54922 c 0,0.706112 0.567565,1.273676 1.273677,1.273676 h 2.549219 c 0.706113,0 1.275545,-0.567564 1.275545,-1.273676 v -2.54922 c 0,-0.706112 -0.569432,-1.275543 -1.275545,-1.275543 z m 8.157503,0 c -0.706111,0 -1.273676,0.569432 -1.273676,1.275543 v 2.54922 c 0,0.706112 0.567565,1.273676 1.273676,1.273676 h 2.549219 c 0.706116,0 1.275545,-0.567564 1.275545,-1.273676 v -2.54922 c 0,-0.706112 -0.56943,-1.275543 -1.275545,-1.275543 z m -20.39189,8.060389 c -0.706113,0 -1.275544,0.569432 -1.275544,1.275546 v 2.549218 c 0,0.706114 0.569431,1.273677 1.275544,1.273677 h 2.549219 c 0.706114,0 1.273677,-0.567563 1.273677,-1.273677 v -2.549218 c 0,-0.706114 -0.567563,-1.275546 -1.273677,-1.275546 z m 8.157503,0 c -0.706114,0 -1.275544,0.569432 -1.275544,1.275546 v 2.549218 c 0,0.706114 0.56943,1.273677 1.275544,1.273677 h 2.547352 c 0.706112,0 1.275544,-0.567563 1.275544,-1.273677 v -2.549218 c 0,-0.706114 -0.569432,-1.275546 -1.275544,-1.275546 z m 8.155636,0 c -0.706114,0 -1.273677,0.569432 -1.273677,1.275546 v 2.549218 c 0,0.706114 0.567562,1.273677 1.273677,1.273677 h 2.549219 c 0.706111,0 1.275544,-0.567563 1.275544,-1.273677 v -2.549218 c 0,-0.706114 -0.569433,-1.275546 -1.275544,-1.275546 z m -22.442472,8.151902 c -0.615518,0 -1.109331,0.502133 -1.109331,1.126139 v 2.252278 c 0,0.624005 0.493813,1.126138 1.109331,1.126138 h 31.121024 c 0.615518,0 1.109331,-0.502133 1.109331,-1.126138 v -2.252278 c 0,-0.624006 -0.493813,-1.126139 -1.109331,-1.126139 z" />
    <path
       style="color:#000000;fill:none;stroke:#000000;stroke-opacity:1;stroke-width:0.3;stroke-dasharray:none;filter:url(#filter13)"
       d="m 14.789063,12.244141 c -5.237534,0 -9.53711,4.301529 -9.53711,9.539062 v 20.433594 c 0,5.237533 4.299576,9.539062 9.53711,9.539062 h 34.421874 c 5.237534,0 9.53711,-4.301529 9.53711,-9.539062 V 21.783203 c 0,-5.237533 -4.299576,-9.539062 -9.53711,-9.539062 z"
       id="path13-6"
       sodipodi:nodetypes="sssssssss" />
    <path
       style="color:#000000;fill:none;stroke-width:0.3;stroke:#000000;stroke-opacity:1;filter:url(#filter14);stroke-dasharray:none"
       d="m 16.81482,16.959824 h 30.370361 c 3.338029,0 6.025323,2.687294 6.025323,6.025324 v 18.029705 c 0,3.338029 -2.687295,6.025323 -6.025323,6.025323 H 16.81482 c -3.33803,0 -6.025324,-2.687294 -6.025324,-6.025323 V 22.985147 c 0,-3.33803 2.687294,-6.025324 6.025324,-6.025323 z"
       id="path12-2" />
    <path
       id="path11-9"
       style="opacity:0.386239;fill:none;fill-opacity:1;stroke-width:0.3;stroke:#000000;stroke-opacity:1;stroke-dasharray:none;filter:url(#filter15)"
       d="m 18.49007,21.641577 c -0.706114,0 -1.275545,0.569432 -1.275545,1.275543 v 2.54922 c 0,0.706113 0.569431,1.273677 1.275545,1.273677 h 2.549219 c 0.706113,0 1.273676,-0.567564 1.273676,-1.273677 v -2.549219 c 0,-0.706112 -0.567563,-1.275542 -1.273676,-1.275542 z m 8.157503,0 c -0.706112,0 -1.275545,0.569432 -1.275545,1.275543 v 2.54922 c 0,0.706113 0.569433,1.273677 1.275545,1.273677 h 2.549219 c 0.706113,0 1.273677,-0.567564 1.273677,-1.273677 v -2.549219 c 0,-0.706112 -0.567564,-1.275542 -1.273677,-1.275542 z m 8.155635,0 c -0.706112,0 -1.273677,0.569432 -1.273677,1.275543 v 2.54922 c 0,0.706113 0.567565,1.273677 1.273677,1.273677 h 2.549219 c 0.706113,0 1.275545,-0.567564 1.275545,-1.273677 v -2.549219 c 0,-0.706112 -0.569432,-1.275542 -1.275545,-1.275542 z m 8.157503,0 c -0.706111,0 -1.273676,0.569432 -1.273676,1.275543 v 2.54922 c 0,0.706113 0.567565,1.273677 1.273676,1.273677 h 2.549219 c 0.706116,0 1.275545,-0.567564 1.275545,-1.273677 v -2.549219 c 0,-0.706112 -0.56943,-1.275542 -1.275545,-1.275542 z m -20.39189,8.060389 c -0.706113,0 -1.275544,0.569432 -1.275544,1.275546 v 2.549218 c 0,0.706115 0.569431,1.273676 1.275544,1.273676 h 2.549219 c 0.706114,0 1.273677,-0.567562 1.273677,-1.273676 v -2.549219 c 0,-0.706114 -0.567563,-1.275545 -1.273677,-1.275545 z m 8.157503,0 c -0.706114,0 -1.275544,0.569432 -1.275544,1.275546 v 2.549218 c 0,0.706115 0.56943,1.273676 1.275544,1.273676 h 2.547352 c 0.706112,0 1.275544,-0.567562 1.275544,-1.273676 v -2.549219 c 0,-0.706114 -0.569432,-1.275545 -1.275544,-1.275545 z m 8.155636,0 c -0.706114,0 -1.273677,0.569432 -1.273677,1.275546 v 2.549218 c 0,0.706115 0.567562,1.273676 1.273677,1.273676 h 2.549219 c 0.706111,0 1.275544,-0.567562 1.275544,-1.273676 v -2.549219 c 0,-0.706114 -0.569433,-1.275545 -1.275544,-1.275545 z m -22.442472,8.151901 c -0.615518,0 -1.109331,0.502133 -1.109331,1.12614 v 2.252277 c 0,0.624005 0.493813,1.126138 1.109331,1.126138 h 31.121024 c 0.615518,0 1.109331,-0.502133 1.109331,-1.126138 v -2.252277 c 0,-0.624007 -0.493813,-1.12614 -1.109331,-1.12614 z" />
  </g>
</svg>
