<?xml version="1.0" encoding="UTF-8" standalone="no"?>
<svg
   width="64"
   height="64"
   version="1.1"
   id="svg5"
   sodipodi:docname="qt.svg"
   inkscape:version="1.3.2 (091e20ef0f, 2023-11-25, custom)"
   xmlns:inkscape="http://www.inkscape.org/namespaces/inkscape"
   xmlns:sodipodi="http://sodipodi.sourceforge.net/DTD/sodipodi-0.dtd"
   xmlns:xlink="http://www.w3.org/1999/xlink"
   xmlns="http://www.w3.org/2000/svg"
   xmlns:svg="http://www.w3.org/2000/svg">
  <defs
     id="defs5">
    <linearGradient
       id="linearGradient6"
       inkscape:collect="always">
      <stop
         style="stop-color:#00ab60;stop-opacity:1;"
         offset="0"
         id="stop6" />
      <stop
         style="stop-color:#00f06d;stop-opacity:1;"
         offset="1"
         id="stop7" />
    </linearGradient>
    <filter
       inkscape:collect="always"
       style="color-interpolation-filters:sRGB"
       id="filter5"
       x="-0.028097398"
       y="-0.035121748"
       width="1.0561948"
       height="1.0702435">
      <feGaussianBlur
         inkscape:collect="always"
         stdDeviation="0.70243498"
         id="feGaussianBlur5" />
    </filter>
    <filter
       inkscape:collect="always"
       style="color-interpolation-filters:sRGB"
       id="filter6"
       x="-0.046828997"
       y="-0.05325468"
       width="1.093658"
       height="1.1065094">
      <feGaussianBlur
         inkscape:collect="always"
         stdDeviation="0.70243498"
         id="feGaussianBlur6" />
    </filter>
    <radialGradient
       inkscape:collect="always"
       xlink:href="#linearGradient6"
       id="radialGradient7"
       cx="8.3139486"
       cy="55.881283"
       fx="8.3139486"
       fy="55.881283"
       r="30"
       gradientTransform="matrix(2.1135954,0.31841097,-0.28969521,1.9229814,6.9301645,-59.000896)"
       gradientUnits="userSpaceOnUse" />
  </defs>
  <sodipodi:namedview
     id="namedview5"
     pagecolor="#ffffff"
     bordercolor="#000000"
     borderopacity="0.25"
     inkscape:showpageshadow="2"
     inkscape:pageopacity="0.0"
     inkscape:pagecheckerboard="0"
     inkscape:deskcolor="#d1d1d1"
     inkscape:zoom="12.59375"
     inkscape:cx="30.888337"
     inkscape:cy="34.461538"
     inkscape:window-width="1920"
     inkscape:window-height="1014"
     inkscape:window-x="0"
     inkscape:window-y="0"
     inkscape:window-maximized="1"
     inkscape:current-layer="svg5" />
  <path
     style="opacity:0.41592329;filter:url(#filter5)"
     d="m10.181818 9h48.96104s2.857142 0 2.857142 2.823529v36.705883l-8.181818 8.470588h-48.961039s-2.857143 0-2.857143-2.82353v-36.705882z"
     id="path1" />
  <path
     style="fill:url(#radialGradient7)"
     d="m10.181818 8.0000002h48.96104s2.857142 0 2.857142 2.8235288v36.705883l-8.181818 8.470588h-48.961039s-2.857143 0-2.857143-2.82353v-36.705882z"
     id="path2" />
  <path
     style="opacity:0.41592329;filter:url(#filter6)"
     d="m 40,20 v 6 h -4 v 3 h 4 v 8.234376 C 40,42.881434 41.998402,45 45.585938,45 H 50 V 41 H 46.03125 C 44.101676,41 44,39.65947 44,36.835938 V 29 h 6 V 26 H 44 V 20 Z M 24.050782,19.04296 C 16.109896,19.042968 14,23.529412 14,32 c 0,8.470588 2.072781,13.054688 10.050782,13.054688 h 2.265624 l 3.300782,5.64453 3.824218,-1.410156 -3.117188,-5.648438 C 33.292774,42.22886 34,37.647058 34,32 34,23.529412 31.991668,19.042968 24.050782,19.042968 Z M 24.015624,23 C 28.859636,23 30.000012,26.51398 30,32.308594 30,38.103206 28.89634,41 24.015624,41 19.134912,41 18,38.103206 18,32.308594 18,26.51398 19.171617,23 24.015624,23 Z"
     id="path3" />
  <path
     style="fill:#ffffff"
     d="m 40,19 v 6 h -4 v 3 h 4 v 8.234376 C 40,41.881434 41.998402,44 45.585938,44 H 50 V 40 H 46.03125 C 44.101676,40 44,38.65947 44,35.835938 V 28 h 6 V 25 H 44 V 19 Z M 24.050782,18.04297 C 16.109896,18.042969 14,22.529412 14,31 c 0,8.470588 2.072781,13.054688 10.050782,13.054688 h 2.265624 l 3.300782,5.64453 3.824218,-1.410156 -3.117188,-5.648438 C 33.292774,41.22886 34,36.647058 34,31 34,22.529412 31.991668,18.042969 24.050782,18.042968 Z M 24.015624,22 C 28.859636,22 30.000012,25.51398 30,31.308594 30,37.103206 28.89634,40 24.015624,40 19.134912,40 18,37.103206 18,31.308594 18,25.51398 19.171617,22 24.015624,22 Z"
     id="path4" />
</svg>
