<?xml version="1.0" encoding="UTF-8" standalone="no"?>
<svg
   width="64"
   height="64"
   version="1"
   id="svg5"
   sodipodi:docname="qtconfig.svg"
   inkscape:version="1.3.2 (091e20ef0f, 2023-11-25, custom)"
   xmlns:inkscape="http://www.inkscape.org/namespaces/inkscape"
   xmlns:sodipodi="http://sodipodi.sourceforge.net/DTD/sodipodi-0.dtd"
   xmlns:xlink="http://www.w3.org/1999/xlink"
   xmlns="http://www.w3.org/2000/svg"
   xmlns:svg="http://www.w3.org/2000/svg">
  <defs
     id="defs5">
    <linearGradient
       id="linearGradient6"
       inkscape:collect="always">
      <stop
         style="stop-color:#009745;stop-opacity:1;"
         offset="0"
         id="stop6" />
      <stop
         style="stop-color:#00ff73;stop-opacity:1;"
         offset="1"
         id="stop7" />
    </linearGradient>
    <filter
       inkscape:collect="always"
       style="color-interpolation-filters:sRGB"
       id="filter5"
       x="-0.051731141"
       y="-0.058829492"
       width="1.1034623"
       height="1.117659">
      <feGaussianBlur
         inkscape:collect="always"
         stdDeviation="0.77596713"
         id="feGaussianBlur5" />
    </filter>
    <filter
       inkscape:collect="always"
       style="color-interpolation-filters:sRGB"
       id="filter6"
       x="-0.034184177"
       y="-0.050380714"
       width="1.0683684"
       height="1.1007614">
      <feGaussianBlur
         inkscape:collect="always"
         stdDeviation="0.77596713"
         id="feGaussianBlur6" />
    </filter>
    <radialGradient
       inkscape:collect="always"
       xlink:href="#linearGradient6"
       id="radialGradient7"
       cx="10.149968"
       cy="46.595066"
       fx="10.149968"
       fy="46.595066"
       r="27.249811"
       gradientTransform="matrix(2.6415417,0.73075058,-0.47562018,1.7192879,5.4999578,-40.530312)"
       gradientUnits="userSpaceOnUse" />
  </defs>
  <sodipodi:namedview
     id="namedview5"
     pagecolor="#ffffff"
     bordercolor="#000000"
     borderopacity="0.25"
     inkscape:showpageshadow="2"
     inkscape:pageopacity="0.0"
     inkscape:pagecheckerboard="0"
     inkscape:deskcolor="#d1d1d1"
     inkscape:zoom="12.59375"
     inkscape:cx="21.121588"
     inkscape:cy="32.476427"
     inkscape:window-width="1920"
     inkscape:window-height="1014"
     inkscape:window-x="0"
     inkscape:window-y="0"
     inkscape:window-maximized="1"
     inkscape:current-layer="svg5" />
  <path
     style="fill:url(#radialGradient7)"
     d="M 26.268,4.0026 C 25.6744,4.067198 25.1515,4.55289 25.043,5.14 l -1.1812,5.9934 c -2.1205,0.8293 -4.1135,1.9687 -5.8622,3.3687 l -5.8178,-1.9687 c -0.60478,-0.2084 -1.338,0.0616 -1.6628,0.61258 l -5.5998,9.7121 c -0.31543,0.55858 -0.1802,1.3316 0.30623,1.7499 l 4.6373,4.0685 c -0.1632,1.0909 -0.26249,2.1885 -0.26249,3.3249 0,1.1364 0.099197,2.2339 0.26249,3.3249 l -4.6373,4.0687 c -0.48637,0.41831 -0.62166,1.1913 -0.30623,1.7499 l 5.5998,9.7121 c 0.32477,0.55078 1.058,0.8209 1.6624,0.61246 l 5.8184,-1.9687 c 1.7488,1.3999 3.7417,2.5393 5.8622,3.3687 l 1.1812,5.9934 c 0.1198,0.62738 0.71756,1.1287 1.3562,1.1374 h 11.199 c 0.63864,-0.008 1.2364,-0.51007 1.3562,-1.1374 l 1.1812,-5.9934 c 2.1205,-0.8293 4.1135,-1.9687 5.8622,-3.3687 l 5.8184,1.9687 c 0.60446,0.20844 1.3377,-0.0616 1.6624,-0.61246 l 5.5998,-9.7121 c 0.31541,-0.55858 0.1802,-1.3316 -0.30623,-1.7499 l -4.6373,-4.0687 c 0.1632,-1.0909 0.26247,-2.1883 0.26247,-3.3249 0,-1.1364 -0.0994,-2.2339 -0.26247,-3.3249 l 4.6373,-4.0685 c 0.48637,-0.41831 0.62164,-1.1913 0.30623,-1.7499 l -5.5998,-9.7121 C 53.15481,12.5944 52.4208,12.3242 51.8168,12.5326 l -5.8184,1.9687 c -1.746,-1.402 -3.738,-2.541 -5.858,-3.37 l -1.182,-5.9939 c -0.12,-0.6273 -0.718,-1.1287 -1.356,-1.1373 h -11.199 c -0.0438,-0.00102 -0.0876,-0.00102 -0.1312,0 z"
     id="path1" />
  <path
     style="opacity:0.6949128;filter:url(#filter6)"
     d="m 59.141,24.035 c -0.07932,0.21741 -0.19112,0.42278 -0.36719,0.57422 l -4.6367,4.0684 c 0.04493,0.3006 0.07095,0.60398 0.10547,0.90625 l 4.5312,-3.9766 c 0.43842,-0.37708 0.57228,-1.0356 0.36719,-1.5723 z M 4.86,24.037 c -0.20426,0.53639 -0.070882,1.1936 0.36719,1.5703 l 4.5312,3.9746 c 0.03447,-0.30158 0.060605,-0.60439 0.10547,-0.9043 l -4.6373,-4.069 c -0.1755,-0.151 -0.2878,-0.355 -0.3672,-0.572 z m 4.7617,8.4648 c -0.00428,0.16753 -0.021484,0.33086 -0.021484,0.5 0,0.82326 0.065475,1.6232 0.15625,2.418 l 0.10742,-0.09375 c -0.1396,-0.928 -0.2183,-1.866 -0.2428,-2.824 z m 44.756,0 c -0.02449,0.9581 -0.10133,1.8957 -0.24023,2.8242 l 0.10547,0.0918 c 0.09063,-0.7941 0.15625,-1.5933 0.15625,-2.416 0,-0.16915 -0.0172,-0.33247 -0.02148,-0.5 z m -49.519,8.463 c -0.14103,0.38385 -0.14124,0.82235 0.060547,1.1797 l 5.5996,9.7129 c 0.32477,0.55078 1.0576,0.81976 1.6621,0.61133 l 5.818,-1.969 c 1.7488,1.3999 3.7427,2.5398 5.8633,3.3691 l 1.1797,5.9941 c 0.12,0.628 0.719,1.128 1.357,1.137 h 11.199 c 0.63864,-0.008 1.2357,-0.50934 1.3555,-1.1367 l 1.1816,-5.9941 c 2.121,-0.829 4.115,-1.969 5.864,-3.369 l 5.8184,1.9688 c 0.60446,0.20844 1.3373,-0.06047 1.6621,-0.61133 l 5.5996,-9.7129 c 0.20136,-0.35661 0.20064,-0.79442 0.06055,-1.1777 -0.02248,0.05893 -0.02933,0.12246 -0.06055,0.17773 l -5.5996,9.7129 c -0.32477,0.55086 -1.0576,0.82172 -1.6621,0.61328 l -5.818,-1.969 c -1.7488,1.4 -3.7427,2.5379 -5.8633,3.3672 l -1.1816,5.9941 c -0.11974,0.62738 -0.71683,1.1307 -1.3555,1.1387 h -11.2 c -0.63864,-0.0087 -1.2376,-0.51129 -1.3574,-1.1387 l -1.1797,-5.9941 c -2.12,-0.829 -4.114,-1.967 -5.863,-3.367 l -5.8184,1.9688 c -0.60448,0.20844 -1.3373,-0.0625 -1.6621,-0.61328 l -5.6001,-9.713 C 4.886867,41.08888 4.880401,41.02439 4.8578,40.96494 Z"
     id="path3" />
  <path
     style="opacity:0.6949128;filter:url(#filter5)"
     d="m 40,20.000782 v 6 h -4 v 3 h 4 v 8.234376 c 0,5.647058 1.998402,7.765624 5.585938,7.765624 H 50 v -4 H 46.03125 C 44.101676,41.000782 44,39.660252 44,36.83672 v -7.835938 h 6 v -3 h -6 v -6 z M 24.050782,19.043752 C 16.109896,19.043751 14,23.530194 14,32.000782 14,40.47137 16.072781,45.05547 24.050782,45.05547 h 2.265624 L 29.617188,50.7 33.441406,49.289844 30.324218,43.641406 C 33.292774,42.229642 34,37.64784 34,32.000782 34,23.530194 31.991668,19.043751 24.050782,19.04375 Z m -0.03516,3.95703 c 4.844012,0 5.984388,3.51398 5.984376,9.308594 0,5.794612 -1.10366,8.691406 -5.984376,8.691406 C 19.134912,41.000782 18,38.103988 18,32.309376 c 0,-5.794614 1.171617,-9.308594 6.015624,-9.308594 z"
     id="path4" />
  <path
     style="fill:#ffffff"
     d="m 40,19.000782 v 6 h -4 v 3 h 4 v 8.234376 c 0,5.647058 1.998402,7.765624 5.585938,7.765624 H 50 v -4 H 46.03125 C 44.101676,40.000782 44,38.660252 44,35.83672 v -7.835938 h 6 v -3 h -6 v -6 z M 24.050782,18.043752 C 16.109896,18.043751 14,22.530194 14,31.000782 14,39.47137 16.072781,44.05547 24.050782,44.05547 h 2.265624 L 29.617188,49.7 33.441406,48.289844 30.324218,42.641406 C 33.292774,41.229642 34,36.64784 34,31.000782 34,22.530194 31.991668,18.043751 24.050782,18.04375 Z m -0.03516,3.95703 c 4.844012,0 5.984388,3.51398 5.984376,9.308594 0,5.794612 -1.10366,8.691406 -5.984376,8.691406 C 19.134912,40.000782 18,37.103988 18,31.309376 c 0,-5.794614 1.171617,-9.308594 6.015624,-9.308594 z"
     id="path5" />
</svg>
