<?xml version="1.0" encoding="UTF-8" standalone="no"?>
<svg
   width="64"
   height="64"
   version="1"
   id="svg7"
   sodipodi:docname="SheepShaver.svg"
   inkscape:version="1.3.2 (091e20ef0f, 2023-11-25, custom)"
   xmlns:inkscape="http://www.inkscape.org/namespaces/inkscape"
   xmlns:sodipodi="http://sodipodi.sourceforge.net/DTD/sodipodi-0.dtd"
   xmlns:xlink="http://www.w3.org/1999/xlink"
   xmlns="http://www.w3.org/2000/svg"
   xmlns:svg="http://www.w3.org/2000/svg">
  <defs
     id="defs7">
    <linearGradient
       id="linearGradient25"
       inkscape:collect="always">
      <stop
         style="stop-color:#707070;stop-opacity:1;"
         offset="0"
         id="stop25" />
      <stop
         style="stop-color:#353535;stop-opacity:1;"
         offset="1"
         id="stop26" />
    </linearGradient>
    <clipPath
       clipPathUnits="userSpaceOnUse"
       id="clipPath52">
      <path
         id="path52"
         style="stroke-width:0.1;stroke-linecap:square;paint-order:markers fill stroke;stop-color:#000000"
         d="m -880.82767,-187.29769 h 1640.84 v 73.28155 h -1640.84 z" />
    </clipPath>
    <clipPath
       clipPathUnits="userSpaceOnUse"
       id="clipPath54">
      <path
         id="path54"
         style="stroke-width:0.0999999;stroke-linecap:square;paint-order:markers fill stroke;stop-color:#000000"
         d="m 1691.1994,-792.32001 h 1634.8919 v 92.82806 H 1691.1994 Z" />
    </clipPath>
    <linearGradient
       id="linearGradient14">
      <stop
         style="stop-color:#363636;stop-opacity:1;"
         offset="0"
         id="stop13" />
      <stop
         style="stop-color:#202020;stop-opacity:1;"
         offset="1"
         id="stop14" />
    </linearGradient>
    <linearGradient
       id="linearGradient9"
       x2="0"
       y1="512"
       x1="0"
       y2="0"
       gradientUnits="userSpaceOnUse"
       gradientTransform="matrix(0.0942152,0,0,0.0942152,7.8809073,7.8809081)">
      <stop
         offset="0"
         stop-color="#1e73f2"
         id="stop8"
         style="stop-color:#000000;stop-opacity:1;" />
      <stop
         offset="1"
         stop-color="#19d3fd"
         id="stop9" />
    </linearGradient>
    <linearGradient
       id="b"
       x2="279.78937"
       y1="390.87318"
       gradientTransform="matrix(0.08029406,0,0,0.13776904,5.0958932,4.9510804)"
       x1="279.78937"
       y2="0"
       gradientUnits="userSpaceOnUse">
      <stop
         offset="0"
         stop-color="#dbe9f4"
         id="stop3"
         style="stop-color:#b6c1cb;stop-opacity:1;" />
      <stop
         offset="1"
         stop-color="#f7f6f6"
         id="stop4" />
    </linearGradient>
    <linearGradient
       id="a"
       x2="0"
       y1="512"
       x1="0"
       y2="0"
       gradientUnits="userSpaceOnUse"
       gradientTransform="matrix(0.10517622,0,0,0.10517622,5.0757628,4.9510804)">
      <stop
         offset="0"
         stop-color="#1e73f2"
         id="stop1"
         style="stop-color:#1e79f2;stop-opacity:1;" />
      <stop
         offset="1"
         stop-color="#19d3fd"
         id="stop2"
         style="stop-color:#19fdce;stop-opacity:1;" />
    </linearGradient>
    <radialGradient
       inkscape:collect="always"
       xlink:href="#linearGradient25"
       id="radialGradient26"
       cx="13.039497"
       cy="49.908398"
       fx="13.039497"
       fy="49.908398"
       r="28.053954"
       gradientUnits="userSpaceOnUse"
       gradientTransform="matrix(2.2284969,-0.39501935,0.38086354,2.1486373,-35.027271,-52.175794)" />
    <radialGradient
       inkscape:collect="always"
       xlink:href="#linearGradient25"
       id="radialGradient26-3"
       cx="13.039497"
       cy="49.908398"
       fx="13.039497"
       fy="49.908398"
       r="28.053953"
       gradientUnits="userSpaceOnUse"
       gradientTransform="matrix(2.2284969,-0.39501935,0.38086354,2.1486373,-35.02727,-52.175794)" />
    <radialGradient
       inkscape:collect="always"
       xlink:href="#linearGradient14"
       id="radialGradient1-5"
       gradientUnits="userSpaceOnUse"
       gradientTransform="matrix(2.2960116,-0.4437086,0.40236941,2.0820984,-96.203013,-22.535603)"
       cx="40.393101"
       cy="41.255238"
       fx="40.393101"
       fy="41.255238"
       r="26.803953" />
    <filter
       inkscape:collect="always"
       style="color-interpolation-filters:sRGB"
       id="filter1"
       x="-0.10821807"
       y="-0.10821807"
       width="1.2164361"
       height="1.2164361">
      <feGaussianBlur
         inkscape:collect="always"
         stdDeviation="1.3135177"
         id="feGaussianBlur1" />
    </filter>
  </defs>
  <sodipodi:namedview
     id="namedview7"
     pagecolor="#ffffff"
     bordercolor="#000000"
     borderopacity="0.25"
     inkscape:showpageshadow="2"
     inkscape:pageopacity="0.0"
     inkscape:pagecheckerboard="0"
     inkscape:deskcolor="#d1d1d1"
     inkscape:zoom="9.7006212"
     inkscape:cx="23.194391"
     inkscape:cy="37.317198"
     inkscape:window-width="1920"
     inkscape:window-height="1018"
     inkscape:window-x="0"
     inkscape:window-y="0"
     inkscape:window-maximized="1"
     inkscape:current-layer="svg7" />
  <rect
     style="opacity:0.95898;mix-blend-mode:normal;fill:url(#radialGradient26);fill-opacity:1;stroke:#000000;stroke-width:4.8;stroke-linejoin:round;stroke-dasharray:none;stroke-opacity:1;filter:url(#filter1)"
     id="rect1"
     width="51.307907"
     height="51.307907"
     x="6.3460464"
     y="6.3460464"
     rx="15.029948"
     ry="15.029948"
     transform="matrix(0.94880245,0,0,0.94880245,1.6383217,3.7360128)" />
  <rect
     style="fill:url(#radialGradient26-3);fill-opacity:1;stroke:url(#radialGradient1-5);stroke-width:4.8;stroke-linejoin:round;stroke-dasharray:none"
     id="rect1-6"
     width="51.307907"
     height="51.307907"
     x="6.3460464"
     y="6.3460464"
     rx="15.029948"
     ry="15.029948" />
  <path
     d="m 37.575725,14.569664 c 0.06866,0 0.137316,0 0.20986,0 0.168406,2.080466 -0.625694,3.634986 -1.590792,4.760718 -0.946962,1.117959 -2.243691,2.202237 -4.340998,2.037717 -0.139907,-2.050671 0.655489,-3.489898 1.619292,-4.613039 0.893849,-1.04671 2.532572,-1.978127 4.102638,-2.185396 z"
     id="path1"
     style="opacity:0.669776;fill:#000000;fill-opacity:1;stroke-width:1.2951;stroke-dasharray:none" />
  <path
     d="m 44.025509,36.347072 c 0,0.02073 0,0.03886 0,0.0583 -0.589422,1.785107 -1.430158,3.315014 -2.456141,4.734809 -0.936599,1.288957 -2.084353,3.023542 -4.133729,3.023542 -1.770857,0 -2.947111,-1.138686 -4.762013,-1.169776 -1.919833,-0.03109 -2.975611,0.952143 -4.730923,1.199571 -0.200793,0 -0.401585,0 -0.598491,0 -1.288956,-0.186542 -2.329189,-1.207344 -3.087018,-2.127102 -2.234623,-2.717819 -3.961435,-6.228444 -4.282703,-10.721007 0,-0.440448 0,-0.8796 0,-1.320047 0.136021,-3.215266 1.698313,-5.829451 3.774893,-7.096385 1.095937,-0.673625 2.602526,-1.247502 4.280113,-0.991006 0.718965,0.111407 1.453476,0.357539 2.097306,0.601081 0.61015,0.234473 1.37316,0.650307 2.096012,0.628285 0.489674,-0.01425 0.976757,-0.26945 1.470317,-0.449515 1.445704,-0.52206 2.862908,-1.12055 4.730923,-0.839441 2.244986,0.339403 3.838369,1.336887 4.822899,2.875862 -1.899106,1.208639 -3.400513,3.030019 -3.144017,6.140355 0.227996,2.82534 1.870606,4.478313 3.922572,5.452479 z"
     id="path2"
     style="opacity:0.669776;fill:#000000;fill-opacity:1;stroke-width:1.2951;stroke-dasharray:none" />
  <g
     id="g3"
     style="fill:#000000;fill-opacity:1;stroke-width:0.999742;stroke-dasharray:none"
     transform="matrix(1.2954335,0,0,1.2954335,17.248899,17.249546)" />
  <g
     id="g4"
     style="fill:#000000;fill-opacity:1;stroke-width:0.999742;stroke-dasharray:none"
     transform="matrix(1.2954335,0,0,1.2954335,17.248899,17.249546)" />
  <g
     id="g5"
     style="fill:#000000;fill-opacity:1;stroke-width:0.999742;stroke-dasharray:none"
     transform="matrix(1.2954335,0,0,1.2954335,17.248899,17.249546)" />
  <g
     id="g6"
     style="fill:#000000;fill-opacity:1;stroke-width:0.999742;stroke-dasharray:none"
     transform="matrix(1.2954335,0,0,1.2954335,17.248899,17.249546)" />
  <g
     id="g7"
     style="fill:#000000;fill-opacity:1;stroke-width:0.999742;stroke-dasharray:none"
     transform="matrix(1.2954335,0,0,1.2954335,17.248899,17.249546)" />
  <g
     id="g8"
     style="fill:#000000;fill-opacity:1;stroke-width:0.999742;stroke-dasharray:none"
     transform="matrix(1.2954335,0,0,1.2954335,17.248899,17.249546)" />
  <g
     id="g9"
     style="fill:#000000;fill-opacity:1;stroke-width:0.999742;stroke-dasharray:none"
     transform="matrix(1.2954335,0,0,1.2954335,17.248899,17.249546)" />
  <g
     id="g10"
     style="fill:#000000;fill-opacity:1;stroke-width:0.999742;stroke-dasharray:none"
     transform="matrix(1.2954335,0,0,1.2954335,17.248899,17.249546)" />
  <g
     id="g11"
     style="fill:#000000;fill-opacity:1;stroke-width:0.999742;stroke-dasharray:none"
     transform="matrix(1.2954335,0,0,1.2954335,17.248899,17.249546)" />
  <g
     id="g12"
     style="fill:#000000;fill-opacity:1;stroke-width:0.999742;stroke-dasharray:none"
     transform="matrix(1.2954335,0,0,1.2954335,17.248899,17.249546)" />
  <g
     id="g13"
     style="fill:#000000;fill-opacity:1;stroke-width:0.999742;stroke-dasharray:none"
     transform="matrix(1.2954335,0,0,1.2954335,17.248899,17.249546)" />
  <g
     id="g14"
     style="fill:#000000;fill-opacity:1;stroke-width:0.999742;stroke-dasharray:none"
     transform="matrix(1.2954335,0,0,1.2954335,17.248899,17.249546)" />
  <g
     id="g15"
     style="fill:#000000;fill-opacity:1;stroke-width:0.999742;stroke-dasharray:none"
     transform="matrix(1.2954335,0,0,1.2954335,17.248899,17.249546)" />
  <g
     id="g16"
     style="fill:#000000;fill-opacity:1;stroke-width:0.999742;stroke-dasharray:none"
     transform="matrix(1.2954335,0,0,1.2954335,17.248899,17.249546)" />
  <g
     id="g17"
     style="fill:#000000;fill-opacity:1;stroke-width:0.999742;stroke-dasharray:none"
     transform="matrix(1.2954335,0,0,1.2954335,17.248899,17.249546)" />
</svg>
