<?xml version="1.0" encoding="UTF-8" standalone="no"?>
<!-- Generator: Adobe Illustrator 25.2.1, SVG Export Plug-In . SVG Version: 6.00 Build 0)  -->

<svg
   version="1.1"
   id="Layer_1"
   x="0px"
   y="0px"
   viewBox="0 0 64 64"
   style="enable-background:new 0 0 64 64;"
   xml:space="preserve"
   sodipodi:docname="cs-software-properties.svg"
   inkscape:version="1.3.2 (091e20ef0f, 2023-11-25, custom)"
   xmlns:inkscape="http://www.inkscape.org/namespaces/inkscape"
   xmlns:sodipodi="http://sodipodi.sourceforge.net/DTD/sodipodi-0.dtd"
   xmlns="http://www.w3.org/2000/svg"
   xmlns:svg="http://www.w3.org/2000/svg"><defs
   id="defs6">
	
	
<radialGradient
   id="SVGID_2_-6"
   cx="23.107901"
   cy="22.3944"
   r="40.051899"
   gradientUnits="userSpaceOnUse"
   gradientTransform="translate(-0.07365748,0.02046142)">
	<stop
   offset="0"
   style="stop-color:#8A8A8A"
   id="stop3-1" />
	<stop
   offset="1"
   style="stop-color:#2E2E2E"
   id="stop4-8" />
</radialGradient><radialGradient
   id="SVGID_1_-7"
   cx="21.645599"
   cy="17.467199"
   r="45.2015"
   gradientUnits="userSpaceOnUse"
   gradientTransform="translate(-0.07365748,0.02046142)">
	<stop
   offset="0"
   style="stop-color:#E9E9E9"
   id="stop1-9" />
	<stop
   offset="1"
   style="stop-color:#8A8A8A"
   id="stop2-2" />
</radialGradient><filter
   inkscape:collect="always"
   style="color-interpolation-filters:sRGB"
   id="filter10"
   x="-0.1532575"
   y="-0.13437542"
   width="1.306515"
   height="1.2687508"><feGaussianBlur
     inkscape:collect="always"
     stdDeviation="1.0353877"
     id="feGaussianBlur10" /></filter><filter
   inkscape:collect="always"
   style="color-interpolation-filters:sRGB"
   id="filter12"
   x="-0.11395291"
   y="-0.11395291"
   width="1.2279058"
   height="1.2279058"><feGaussianBlur
     inkscape:collect="always"
     stdDeviation="2.5339012"
     id="feGaussianBlur12" /></filter><filter
   inkscape:collect="always"
   style="color-interpolation-filters:sRGB"
   id="filter1"
   x="-0.0838368"
   y="-0.077012215"
   width="1.1676736"
   height="1.1540244"><feGaussianBlur
     inkscape:collect="always"
     stdDeviation="1.265349"
     id="feGaussianBlur1" /></filter></defs><sodipodi:namedview
   id="namedview6"
   pagecolor="#505050"
   bordercolor="#eeeeee"
   borderopacity="1"
   inkscape:showpageshadow="0"
   inkscape:pageopacity="0"
   inkscape:pagecheckerboard="0"
   inkscape:deskcolor="#505050"
   inkscape:zoom="9.534893"
   inkscape:cx="29.523142"
   inkscape:cy="37.074354"
   inkscape:window-width="1920"
   inkscape:window-height="1020"
   inkscape:window-x="0"
   inkscape:window-y="0"
   inkscape:window-maximized="1"
   inkscape:current-layer="Layer_1" />
<style
   type="text/css"
   id="style1">
	.st0{opacity:0.2;enable-background:new    ;}
	.st1{fill:url(#SVGID_1_);}
	.st2{opacity:0.1;enable-background:new    ;}
	.st3{fill:url(#SVGID_2_);}
	.st4{fill:#FFFFFF;}
</style>

<radialGradient
   id="SVGID_1_"
   cx="21.6456"
   cy="17.4672"
   r="45.2015"
   gradientUnits="userSpaceOnUse"
   gradientTransform="matrix(0.9320482,0,0,0.9320482,2.1694526,2.1505034)">
	<stop
   offset="0"
   style="stop-color:#00d2ff;stop-opacity:1;"
   id="stop1" />
	<stop
   offset="1"
   style="stop-color:#0087ff;stop-opacity:1;"
   id="stop2" />
</radialGradient>
<circle
   class="st1"
   cx="31.994995"
   cy="31.976046"
   r="26.097349"
   id="circle2"
   style="fill:url(#SVGID_1_);stroke-width:0.932048" /><path
   style="opacity:0.3;fill:#000000;fill-opacity:1;stroke:none;stroke-width:1.50015;stroke-dasharray:none;stroke-opacity:1;paint-order:normal"
   d="m 31.081607,13.738737 c -2.023502,0 -3.652275,1.628774 -3.652275,3.652276 v 1.712123 a 13.69699,13.69699 0 0 0 -4.3198,2.495574 l -1.484097,-0.856062 c -1.752404,-1.011751 -3.978121,-0.414808 -4.989871,1.337596 l -0.913388,1.579639 c -1.011751,1.752405 -0.414808,3.978121 1.337598,4.989872 l 1.477725,0.853514 a 13.69699,13.69699 0 0 0 -0.239494,2.498121 13.69699,13.69699 0 0 0 0.239494,2.498122 l -1.477726,0.853514 c -1.752405,1.01175 -2.349348,3.237468 -1.337597,4.989871 l 0.913388,1.579639 c 1.01175,1.752405 3.237467,2.349348 4.989871,1.337597 l 1.473905,-0.850967 a 13.69699,13.69699 0 0 0 4.329992,2.486656 v 1.715946 c 0,2.023502 1.628773,3.652276 3.652275,3.652276 h 1.826776 c 2.023501,0 3.652275,-1.628774 3.652275,-3.652276 v -1.722315 a 13.69699,13.69699 0 0 0 4.3198,-2.485382 l 1.484096,0.856062 c 1.752404,1.011751 3.978121,0.414808 4.989872,-1.337597 l 0.913388,-1.579639 c 1.011751,-1.752403 0.414807,-3.978121 -1.337597,-4.989871 l -1.477726,-0.853514 a 13.69699,13.69699 0 0 0 0.239494,-2.498122 13.69699,13.69699 0 0 0 -0.239494,-2.498121 l 1.477726,-0.853514 c 1.752405,-1.011751 2.349348,-3.237467 1.337597,-4.989872 L 47.354426,22.080244 C 46.342675,20.32784 44.116958,19.730897 42.364554,20.742648 l -1.473904,0.850967 a 13.69699,13.69699 0 0 0 -4.329992,-2.48793 v -1.714672 c 0,-2.023502 -1.628774,-3.652276 -3.652275,-3.652276 z"
   id="path2-3" /><path
   style="opacity:0.520848;fill:none;fill-opacity:1;stroke:#0012ff;stroke-width:0.708;stroke-dasharray:none;stroke-opacity:1;paint-order:normal;filter:url(#filter1)"
   d="m 30.898946,9.9850657 c -2.439255,0 -4.40268,1.9634253 -4.40268,4.4026783 v 2.0639 a 16.511201,16.511201 0 0 0 -5.207355,3.008319 l -1.789021,-1.03195 c -2.112456,-1.219628 -4.795474,-0.500035 -6.015101,1.612422 l -1.101054,1.904194 c -1.219627,2.112457 -0.500035,4.795474 1.612423,6.015101 L 15.7775,28.988609 A 16.511201,16.511201 0 0 0 15.488799,32 16.511201,16.511201 0 0 0 15.7775,35.011389 l -1.781343,1.02888 c -2.112457,1.219627 -2.832049,3.902645 -1.612422,6.015101 l 1.101054,1.904194 c 1.219627,2.112457 3.902645,2.83205 6.015101,1.612422 l 1.776736,-1.025808 a 16.511201,16.511201 0 0 0 5.21964,2.99757 v 2.068507 c 0,2.439255 1.963425,4.402679 4.40268,4.402679 h 2.202108 c 2.439255,0 4.40268,-1.963424 4.40268,-4.402679 V 47.53607 a 16.511201,16.511201 0 0 0 5.207355,-2.996034 l 1.789021,1.03195 c 2.112456,1.219628 4.795473,0.500035 6.015101,-1.612422 l 1.101054,-1.904194 c 1.219627,-2.112456 0.500034,-4.795474 -1.612422,-6.015101 L 48.2225,35.011389 A 16.511201,16.511201 0 0 0 48.511201,32 16.511201,16.511201 0 0 0 48.2225,28.988609 l 1.781343,-1.028879 c 2.112457,-1.219626 2.832049,-3.902643 1.612422,-6.0151 l -1.101054,-1.904194 c -1.219628,-2.112458 -3.902646,-2.83205 -6.015101,-1.612422 l -1.776736,1.025808 a 16.511201,16.511201 0 0 0 -5.21964,-2.999105 v -2.066972 c 0,-2.439254 -1.963425,-4.4026793 -4.40268,-4.4026793 z"
   id="path2-3-3"
   transform="matrix(0.82955747,0,0,0.82955747,5.4491561,5.4555516)" />

<radialGradient
   id="SVGID_2_"
   cx="23.1079"
   cy="22.3944"
   r="40.0519"
   gradientUnits="userSpaceOnUse">
	<stop
   offset="0"
   style="stop-color:#8A8A8A"
   id="stop3" />
	<stop
   offset="1"
   style="stop-color:#2E2E2E"
   id="stop4" />
</radialGradient>

<path
   class="st4"
   d="m 28.676765,26.609267 v 5.640991 c 0,0.331823 -0.331823,0.663646 -0.663646,0.663646 h -2.986407 c -0.497734,0 -0.746602,0.58069 -0.414778,0.995468 l 6.968282,7.714885 c 0.248868,0.248867 0.663646,0.248867 0.829558,0 l 6.968282,-7.714885 c 0.331823,-0.414778 0.08295,-0.995468 -0.414779,-0.995468 h -2.986406 c -0.331823,0 -0.663647,-0.331823 -0.663647,-0.663646 v -5.640991 c 0,-1.078425 -0.912512,-1.990938 -1.990937,-1.990938 h -2.571629 c -1.16138,0 -2.073893,0.912513 -2.073893,1.990938 z"
   id="path6"
   style="stroke-width:0.829557" /><circle
   class="st1"
   cx="31.926344"
   cy="32.020462"
   r="28"
   id="circle2-0"
   style="fill:none;stroke:#000000;stroke-width:0.6;stroke-dasharray:none;stroke-opacity:1;filter:url(#filter12)"
   transform="matrix(0.9320482,0,0,0.9320482,2.1694526,2.1758481)" /><path
   class="st4"
   d="m 27.926342,25.520461 v 6.8 c 0,0.4 -0.4,0.8 -0.8,0.8 h -3.6 c -0.6,0 -0.9,0.7 -0.5,1.2 l 8.4,9.3 c 0.3,0.3 0.8,0.3 1,0 l 8.4,-9.3 c 0.4,-0.5 0.1,-1.2 -0.5,-1.2 h -3.6 c -0.4,0 -0.8,-0.4 -0.8,-0.8 v -6.8 c 0,-1.3 -1.1,-2.4 -2.4,-2.4 h -3.1 c -1.4,0 -2.5,1.1 -2.5,2.4 z"
   id="path6-3"
   style="fill:none;stroke:#16f4ff;stroke-width:0.6;stroke-dasharray:none;stroke-opacity:1;filter:url(#filter10)"
   transform="matrix(0.82955747,0,0,0.82955747,5.4491561,5.4555516)" />
</svg>
