<?xml version="1.0" encoding="UTF-8" standalone="no"?>
<svg
   width="64"
   height="64"
   version="1"
   id="svg4"
   sodipodi:docname="system-save-session.svg"
   inkscape:version="1.3.2 (091e20ef0f, 2023-11-25, custom)"
   xmlns:inkscape="http://www.inkscape.org/namespaces/inkscape"
   xmlns:sodipodi="http://sodipodi.sourceforge.net/DTD/sodipodi-0.dtd"
   xmlns="http://www.w3.org/2000/svg"
   xmlns:svg="http://www.w3.org/2000/svg">
  <defs
     id="defs4">
    <inkscape:path-effect
       effect="fillet_chamfer"
       id="path-effect4"
       is_visible="true"
       lpeversion="1"
       nodesatellites_param="F,0,0,1,0,0,0,1 @ F,0,0,1,0,0,0,1 @ F,0,0,1,0,3.6852483,0,1 @ F,0,0,1,0,3.6852483,0,1 @ F,0,0,1,0,0,0,1 @ F,0,0,1,0,0,0,1 @ F,0,0,1,0,0,0,1 @ F,0,0,1,0,0,0,1 | F,0,0,1,0,1.2933274,0,1 @ F,0,0,1,0,1.2933274,0,1 @ F,0,0,1,0,1.3414604,0,1 @ F,0,0,1,0,1.3414604,0,1 @ F,0,0,1,0,5.9394915,0,1 @ F,0,0,1,0,5.9394915,0,1 @ F,0,0,1,0,0.55174219,0,1 @ F,0,0,1,0,2.1920398,0,1 | F,0,0,1,0,2.226155,0,1 @ F,0,0,1,0,2.226155,0,1 @ F,0,0,1,0,2.226155,0,1 @ F,0,0,1,0,2.226155,0,1"
       radius="0"
       unit="px"
       method="auto"
       mode="F"
       chamfer_steps="1"
       flexible="false"
       use_knot_distance="true"
       apply_no_radius="true"
       apply_with_radius="true"
       only_selected="false"
       hide_knots="false" />
    <radialGradient
       id="SVGID_1_-3-2"
       cx="-159.43106"
       cy="15.462561"
       r="64.706802"
       gradientTransform="matrix(-0.89413329,0,0,0.96304834,-80.727506,49.278659)"
       gradientUnits="userSpaceOnUse"
       fx="-159.43106"
       fy="15.462561">
      <stop
         offset="0"
         style="stop-color:#006fff;stop-opacity:1;"
         id="stop1-6-9" />
      <stop
         offset="1"
         style="stop-color:#15baff;stop-opacity:1;"
         id="stop2-7-1" />
    </radialGradient>
    <inkscape:path-effect
       effect="fillet_chamfer"
       id="path-effect4-6"
       is_visible="true"
       lpeversion="1"
       nodesatellites_param="F,0,0,1,0,0,0,1 @ F,0,0,1,0,0,0,1 @ F,0,0,1,0,3.6852483,0,1 @ F,0,0,1,0,3.6852483,0,1 @ F,0,0,1,0,0,0,1 @ F,0,0,1,0,0,0,1 @ F,0,0,1,0,0,0,1 @ F,0,0,1,0,0,0,1 | F,0,0,1,0,1.2933274,0,1 @ F,0,0,1,0,1.2933274,0,1 @ F,0,0,1,0,1.3414604,0,1 @ F,0,0,1,0,1.3414604,0,1 @ F,0,0,1,0,5.9394915,0,1 @ F,0,0,1,0,5.9394915,0,1 @ F,0,0,1,0,0.55174219,0,1 @ F,0,0,1,0,2.1920398,0,1 | F,0,0,1,0,2.226155,0,1 @ F,0,0,1,0,2.226155,0,1 @ F,0,0,1,0,2.226155,0,1 @ F,0,0,1,0,2.226155,0,1"
       radius="0"
       unit="px"
       method="auto"
       mode="F"
       chamfer_steps="1"
       flexible="false"
       use_knot_distance="true"
       apply_no_radius="true"
       apply_with_radius="true"
       only_selected="false"
       hide_knots="false" />
    <filter
       inkscape:collect="always"
       style="color-interpolation-filters:sRGB"
       id="filter4"
       x="-0.071176319"
       y="-0.071176319"
       width="1.1423526"
       height="1.1423526">
      <feGaussianBlur
         inkscape:collect="always"
         stdDeviation="1.022457"
         id="feGaussianBlur4" />
    </filter>
    <radialGradient
       id="SVGID_1_-3-2-3"
       cx="-159.43106"
       cy="15.462561"
       r="64.706802"
       gradientTransform="matrix(-0.89413329,0,0,0.96304834,-80.727506,49.278659)"
       gradientUnits="userSpaceOnUse"
       fx="-159.43106"
       fy="15.462561">
      <stop
         offset="0"
         style="stop-color:#006fff;stop-opacity:1;"
         id="stop1-6-9-5" />
      <stop
         offset="1"
         style="stop-color:#15baff;stop-opacity:1;"
         id="stop2-7-1-6" />
    </radialGradient>
    <filter
       inkscape:collect="always"
       style="color-interpolation-filters:sRGB"
       id="filter1"
       x="-0.070501105"
       y="-0.070501103"
       width="1.1410022"
       height="1.1410022">
      <feGaussianBlur
         inkscape:collect="always"
         stdDeviation="1.5825257"
         id="feGaussianBlur1" />
    </filter>
  </defs>
  <sodipodi:namedview
     id="namedview4"
     pagecolor="#ffffff"
     bordercolor="#000000"
     borderopacity="0.25"
     inkscape:showpageshadow="2"
     inkscape:pageopacity="0.0"
     inkscape:pagecheckerboard="0"
     inkscape:deskcolor="#d1d1d1"
     inkscape:zoom="11.930928"
     inkscape:cx="35.747429"
     inkscape:cy="31.095653"
     inkscape:window-width="1920"
     inkscape:window-height="1020"
     inkscape:window-x="0"
     inkscape:window-y="0"
     inkscape:window-maximized="1"
     inkscape:current-layer="svg4" />
  <path
     class="st1"
     d="m 20.799999,4.0000004 h 22.4 c 9.3,0 16.8,7.4999996 16.8,16.7999996 v 22.4 c 0,9.3 -7.5,16.8 -16.8,16.8 h -22.4 c -9.3,0 -16.7999984,-7.5 -16.7999984,-16.8 V 20.8 c 0,-9.3 7.4999984,-16.7999996 16.7999984,-16.7999996 z"
     id="path2-3"
     style="fill:url(#SVGID_1_-3-2)" />
  <path
     class="st1"
     d="m 20.799999,4 h 22.4 c 9.3,0 16.8,7.5 16.8,16.8 v 22.4 c 0,9.3 -7.5,16.8 -16.8,16.8 h -22.4 c -9.3,0 -16.799998,-7.5 -16.799998,-16.8 V 20.8 c 0,-9.3 7.499998,-16.8 16.799998,-16.8 z"
     id="path2-3-2"
     style="fill:none;fill-opacity:1;stroke:#000000;stroke-opacity:1;stroke-width:0.3;stroke-dasharray:none;filter:url(#filter1)" />
  <path
     style="opacity:1;fill:#ffffff;fill-opacity:1;stroke-width:0.914594"
     d="m 16.451905,14.708124 c -1.50908,0 -2.743781,1.234701 -2.743781,2.743781 v 24.667161 a 8.8969764,8.8969764 67.5 0 0 2.605864,6.291112 l 0.275834,0.275834 a 8.8969764,8.8969764 22.5 0 0 6.291112,2.605864 h 24.667161 c 1.50908,0 2.743781,-1.234701 2.743781,-2.743781 v -31.09619 c 0,-1.50908 -1.234701,-2.743781 -2.743781,-2.743781 z m 4.037108,5.487562 23.021974,0 a 1.2933274,1.2933274 45 0 1 1.293327,1.293327 v 22.973841 a 1.3414604,1.3414604 135 0 1 -1.34146,1.34146 l -0.06086,0 a 1.3414604,1.3414604 45 0 1 -1.34146,-1.34146 V 37.110303 A 5.9394915,5.9394915 45 0 0 36.12104,31.170812 h -8.242081 a 5.9394915,5.9394915 135 0 0 -5.939491,5.939491 l 0,8.142269 a 0.55174219,0.55174219 135 0 1 -0.551742,0.551742 h 0 a 2.1920398,2.1920398 45 0 1 -2.19204,-2.19204 V 21.489013 a 1.2933274,1.2933274 135 0 1 1.293327,-1.293327 z m 14.651736,14.633502 h 1.035253 a 2.226155,2.226155 45 0 1 2.226155,2.226155 v 6.522816 a 2.226155,2.226155 135 0 1 -2.226155,2.226155 h -1.035253 a 2.226155,2.226155 45 0 1 -2.226155,-2.226155 v -6.522816 a 2.226155,2.226155 135 0 1 2.226155,-2.226155 z"
     id="path2"
     inkscape:path-effect="#path-effect4"
     inkscape:original-d="m 16.451905,14.708124 c -1.50908,0 -2.743781,1.234701 -2.743781,2.743781 v 28.352409 l 5.487562,5.487562 h 28.352409 c 1.50908,0 2.743781,-1.234701 2.743781,-2.743781 v -31.09619 c 0,-1.50908 -1.234701,-2.743781 -2.743781,-2.743781 z m 2.743781,5.487562 H 44.804314 V 45.804314 H 42.060532 V 31.170812 H 21.939468 v 14.633502 h -2.743782 z m 13.718908,14.633502 h 5.487563 v 10.975126 h -5.487563 z"
     transform="translate(0,-1)" />
  <path
     style="fill:none;fill-opacity:1;stroke-width:0.30000001;stroke:#0059ff;stroke-opacity:1;stroke-dasharray:none;filter:url(#filter4)"
     d="m 16.451905,14.708124 c -1.50908,0 -2.743781,1.234701 -2.743781,2.743781 v 24.667161 a 8.8969764,8.8969764 67.5 0 0 2.605864,6.291112 l 0.275834,0.275834 a 8.8969764,8.8969764 22.5 0 0 6.291112,2.605864 h 24.667161 c 1.50908,0 2.743781,-1.234701 2.743781,-2.743781 v -31.09619 c 0,-1.50908 -1.234701,-2.743781 -2.743781,-2.743781 z m 4.037108,5.487562 23.021974,0 a 1.2933274,1.2933274 45 0 1 1.293327,1.293327 v 22.973841 a 1.3414604,1.3414604 135 0 1 -1.34146,1.34146 l -0.06086,0 a 1.3414604,1.3414604 45 0 1 -1.34146,-1.34146 V 37.110303 A 5.9394915,5.9394915 45 0 0 36.12104,31.170812 h -8.242081 a 5.9394915,5.9394915 135 0 0 -5.939491,5.939491 l 0,8.142269 a 0.55174219,0.55174219 135 0 1 -0.551742,0.551742 h 0 a 2.1920398,2.1920398 45 0 1 -2.19204,-2.19204 V 21.489013 a 1.2933274,1.2933274 135 0 1 1.293327,-1.293327 z m 14.651736,14.633502 h 1.035253 a 2.226155,2.226155 45 0 1 2.226155,2.226155 v 6.522816 a 2.226155,2.226155 135 0 1 -2.226155,2.226155 h -1.035253 a 2.226155,2.226155 45 0 1 -2.226155,-2.226155 v -6.522816 a 2.226155,2.226155 135 0 1 2.226155,-2.226155 z"
     id="path2-7"
     inkscape:path-effect="#path-effect4-6"
     inkscape:original-d="m 16.451905,14.708124 c -1.50908,0 -2.743781,1.234701 -2.743781,2.743781 v 28.352409 l 5.487562,5.487562 h 28.352409 c 1.50908,0 2.743781,-1.234701 2.743781,-2.743781 v -31.09619 c 0,-1.50908 -1.234701,-2.743781 -2.743781,-2.743781 z m 2.743781,5.487562 H 44.804314 V 45.804314 H 42.060532 V 31.170812 H 21.939468 v 14.633502 h -2.743782 z m 13.718908,14.633502 h 5.487563 v 10.975126 h -5.487563 z"
     transform="translate(0,-1)" />
</svg>
