<?xml version="1.0" encoding="UTF-8" standalone="no"?>
<svg
   width="64"
   height="64"
   version="1.1"
   id="svg7"
   sodipodi:docname="system-software-install.svg"
   inkscape:version="1.3.2 (091e20ef0f, 2023-11-25, custom)"
   xmlns:inkscape="http://www.inkscape.org/namespaces/inkscape"
   xmlns:sodipodi="http://sodipodi.sourceforge.net/DTD/sodipodi-0.dtd"
   xmlns="http://www.w3.org/2000/svg"
   xmlns:svg="http://www.w3.org/2000/svg">
  <defs
     id="defs7">
    <linearGradient
       id="linearGradient5"
       gradientUnits="userSpaceOnUse"
       x1="31.82996"
       y1="31.892202"
       x2="56.5723"
       y2="55.5266"
       gradientTransform="translate(-0.02475664,0.04464037)">
      <stop
         offset="0"
         style="stop-color:#15c7ff;stop-opacity:0;"
         id="stop3-3" />
      <stop
         offset="1"
         style="stop-color:#000000;stop-opacity:1;"
         id="stop4-6" />
    </linearGradient>
    <linearGradient
       id="SVGID_2_"
       gradientUnits="userSpaceOnUse"
       x1="20.511299"
       y1="28.7208"
       x2="56.5723"
       y2="55.5266">
      <stop
         offset="0"
         style="stop-color:#15C7FF"
         id="stop3" />
      <stop
         offset="1"
         style="stop-color:#005A9E"
         id="stop4" />
    </linearGradient>
    <radialGradient
       id="SVGID_1_"
       cx="11.7752"
       cy="19.0165"
       r="57.6096"
       gradientUnits="userSpaceOnUse">
      <stop
         offset="0"
         style="stop-color:#00F0F4"
         id="stop1" />
      <stop
         offset="1"
         style="stop-color:#1598FF"
         id="stop2" />
    </radialGradient>
    <radialGradient
       id="SVGID_1_-2"
       cx="6.538918"
       cy="53.185608"
       r="57.6096"
       gradientUnits="userSpaceOnUse"
       gradientTransform="matrix(1.0893688,-0.62894736,0.62894736,1.0893688,-33.985322,1.3595015)"
       fx="6.538918"
       fy="53.185608">
      <stop
         offset="0"
         style="stop-color:#ffa22e;stop-opacity:1;"
         id="stop1-9" />
      <stop
         offset="1"
         style="stop-color:#ff5af9;stop-opacity:1;"
         id="stop2-1" />
    </radialGradient>
    <radialGradient
       id="SVGID_1_-2-7"
       cx="11.7752"
       cy="19.0165"
       r="57.6096"
       gradientUnits="userSpaceOnUse"
       gradientTransform="translate(-0.01215424,2.00019)">
      <stop
         offset="0"
         style="stop-color:#ff744d;stop-opacity:1;"
         id="stop1-9-5" />
      <stop
         offset="1"
         style="stop-color:#ffa844;stop-opacity:1;"
         id="stop2-1-9" />
    </radialGradient>
    <radialGradient
       id="SVGID_1_-2-3"
       cx="11.7752"
       cy="19.0165"
       r="57.6096"
       gradientUnits="userSpaceOnUse"
       gradientTransform="translate(-0.04999983,2.3)">
      <stop
         offset="0"
         style="stop-color:#2ddbf6;stop-opacity:1;"
         id="stop1-9-6" />
      <stop
         offset="1"
         style="stop-color:#26acff;stop-opacity:1;"
         id="stop2-1-7" />
    </radialGradient>
    <filter
       inkscape:collect="always"
       style="color-interpolation-filters:sRGB"
       id="filter2"
       x="-0.13858153"
       y="-0.12955515"
       width="1.2771631"
       height="1.2591103">
      <feGaussianBlur
         inkscape:collect="always"
         stdDeviation="1.3047456"
         id="feGaussianBlur2" />
    </filter>
    <filter
       inkscape:collect="always"
       style="color-interpolation-filters:sRGB"
       id="filter3"
       x="-0.069848538"
       y="-0.078057828"
       width="1.1396971"
       height="1.1561157">
      <feGaussianBlur
         inkscape:collect="always"
         stdDeviation="1.5493763"
         id="feGaussianBlur3" />
    </filter>
    <radialGradient
       id="SVGID_1_-2-3-3"
       cx="12.484092"
       cy="21.357109"
       r="57.6096"
       gradientUnits="userSpaceOnUse"
       gradientTransform="matrix(0,0.79198374,-0.79198378,0,26.748113,12.290544)"
       fx="12.484092"
       fy="21.357109">
      <stop
         offset="0"
         style="stop-color:#00f0ff;stop-opacity:1;"
         id="stop1-9-6-6" />
      <stop
         offset="1"
         style="stop-color:#36a5fc;stop-opacity:1;"
         id="stop2-1-7-7" />
    </radialGradient>
  </defs>
  <sodipodi:namedview
     id="namedview7"
     pagecolor="#ffffff"
     bordercolor="#000000"
     borderopacity="0.25"
     inkscape:showpageshadow="2"
     inkscape:pageopacity="0.0"
     inkscape:pagecheckerboard="0"
     inkscape:deskcolor="#d1d1d1"
     inkscape:zoom="8"
     inkscape:cx="21.3125"
     inkscape:cy="36.4375"
     inkscape:window-width="1920"
     inkscape:window-height="1020"
     inkscape:window-x="0"
     inkscape:window-y="0"
     inkscape:window-maximized="1"
     inkscape:current-layer="svg7" />
  <path
     class="st1"
     d="m 19.912153,14.199811 v 0 c 0,1.7 -1.3,3.1 -3,3.1 h -5.4 c -4.2000003,0 -7.6000003,3.4 -7.6000003,7.6 v 24.3 c 0,4.5 3.7,8.2 8.2000003,8.2 h 39.7 c 4.5,0 8.2,-3.7 8.2,-8.2 v -24.4 c 0,-4.2 -3.4,-7.6 -7.6,-7.6 h -5.5 c -1.7,0 -3,-1.3 -3,-3 v 0 c 0,-3.9 -3.1,-7.0000003 -6.9,-7.0000003 h -10.2 c -3.8,0.1 -6.9,3.2000003 -6.9,7.0000003 z m 7,-2.9 h 10 c 1.7,0 3,1.3 3,3 v 0 c 0,1.7 -1.3,3 -3,3 h -10 c -1.7,0 -3,-1.3 -3,-3 v 0 c 0,-1.7 1.3,-3 3,-3 z"
     id="path2"
     style="fill:url(#SVGID_1_-2-3-3)" />
  <path
     class="st2"
     d="m 37.162153,27.649811 v 6.5 c 0,0.5 0.4,0.9 0.9,0.9 h 3 c 0.6,0 0.9,0.6 0.6,1.1 l -9.1,10.4 c -0.3,0.4 -0.8,0.4 -1.1,0 l -9.1,-10.4 c -0.3,-0.5 0,-1.1 0.6,-1.1 h 3 c 0.5,0 0.9,-0.4 0.9,-0.9 v -6.5 c 0,-1.7 1.4,-3.1 3.1,-3.1 h 4.3 c 1.6,0 2.9,1.4 2.9,3.1 z m -15.7,19.6 h 21 c 1,0 1.7,0.8 1.7,1.7 v 0 c 0,1 -0.8,1.7 -1.7,1.7 h -21 c -1,0 -1.7,-0.8 -1.7,-1.7 v 0 c 0,-0.9 0.7,-1.7 1.7,-1.7 z"
     id="path4-5"
     style="opacity:0.256694;fill:#000000;fill-opacity:1" />
  <path
     class="st1"
     d="m 19.949999,13.900001 v 0 c 0,1.7 -1.3,3.1 -3,3.1 h -5.4 c -4.2000011,0 -7.6000001,3.4 -7.6000001,7.6 v 24.3 c 0,4.5 3.699999,8.2 8.2000001,8.2 h 39.7 c 4.5,0 8.2,-3.7 8.2,-8.2 v -24.4 c 0,-4.2 -3.4,-7.6 -7.6,-7.6 h -5.5 c -1.7,0 -3,-1.3 -3,-3 v 0 c 0,-3.9 -3.1,-7.0000003 -6.9,-7.0000003 h -10.2 c -3.8,0.1 -6.9,3.2000003 -6.9,7.0000003 z m 7,-2.9 h 10 c 1.7,0 3,1.3 3,3 v 0 c 0,1.7 -1.3,3 -3,3 h -10 c -1.7,0 -3,-1.3 -3,-3 v 0 c 0,-1.7 1.3,-3 3,-3 z"
     id="path2-2"
     style="fill:none;stroke:#000000;stroke-width:0.4;stroke-dasharray:none;stroke-opacity:1;filter:url(#filter3)" />
  <path
     class="st2"
     d="m 37.099998,27.650001 v 6.5 c 0,0.5 0.4,0.9 0.9,0.9 h 3 c 0.6,0 0.9,0.6 0.6,1.1 l -9.1,10.4 c -0.3,0.4 -0.8,0.4 -1.1,0 l -9.1,-10.4 c -0.3,-0.5 0,-1.1 0.6,-1.1 h 3 c 0.5,0 0.9,-0.4 0.9,-0.9 v -6.5 c 0,-1.7 1.4,-3.1 3.1,-3.1 h 4.3 c 1.6,0 2.9,1.4 2.9,3.1 z m -15.7,19.6 h 21 c 1,0 1.7,0.8 1.7,1.7 v 0 c 0,1 -0.8,1.7 -1.7,1.7 h -21 c -1,0 -1.7,-0.8 -1.7,-1.7 v 0 c 0,-0.9 0.7,-1.7 1.7,-1.7 z"
     id="path4-5-2"
     style="fill:none;fill-opacity:1;stroke:#0062ff;stroke-width:0.5;stroke-dasharray:none;stroke-opacity:1;filter:url(#filter2)" />
</svg>
