<?xml version="1.0" encoding="UTF-8" standalone="no"?>
<svg
   width="64"
   height="64"
   version="1"
   id="svg6"
   sodipodi:docname="tor.svg"
   inkscape:version="1.4 (e7c3feb100, 2024-10-09)"
   xmlns:inkscape="http://www.inkscape.org/namespaces/inkscape"
   xmlns:sodipodi="http://sodipodi.sourceforge.net/DTD/sodipodi-0.dtd"
   xmlns:xlink="http://www.w3.org/1999/xlink"
   xmlns="http://www.w3.org/2000/svg"
   xmlns:svg="http://www.w3.org/2000/svg">
  <defs
     id="defs6">
    <linearGradient
       id="linearGradient10"
       inkscape:collect="always">
      <stop
         style="stop-color:#991ea9;stop-opacity:1;"
         offset="0"
         id="stop10" />
      <stop
         style="stop-color:#4c007e;stop-opacity:1;"
         offset="1"
         id="stop11" />
    </linearGradient>
    <radialGradient
       inkscape:collect="always"
       xlink:href="#linearGradient10"
       id="radialGradient11"
       cx="-7.0086555"
       cy="67.684952"
       fx="-7.0086555"
       fy="67.684952"
       r="28"
       gradientUnits="userSpaceOnUse"
       gradientTransform="matrix(4.6854676,-2.705156,2.705156,4.6854676,-147.96607,-280.59597)" />
    <filter
       inkscape:collect="always"
       style="color-interpolation-filters:sRGB"
       id="filter11"
       x="-0.14275814"
       y="-0.14275814"
       width="1.2855163"
       height="1.2855163">
      <feGaussianBlur
         inkscape:collect="always"
         stdDeviation="2.9121589"
         id="feGaussianBlur11" />
    </filter>
  </defs>
  <sodipodi:namedview
     id="namedview6"
     pagecolor="#505050"
     bordercolor="#eeeeee"
     borderopacity="1"
     inkscape:showpageshadow="0"
     inkscape:pageopacity="0"
     inkscape:pagecheckerboard="0"
     inkscape:deskcolor="#505050"
     inkscape:zoom="11.313709"
     inkscape:cx="22.98097"
     inkscape:cy="31.952388"
     inkscape:current-layer="svg6" />
  <path
     id="circle2-3"
     style="fill:#ffffff;fill-opacity:1;stroke-width:0.855062"
     d="M 32,8.0582716 C 18.777349,8.0582716 8.0582716,18.777349 8.0582716,32 8.0582716,45.222651 18.777349,55.941729 32,55.941729 45.222651,55.941729 55.941729,45.222651 55.941729,32 55.941729,18.777349 45.222651,8.0582716 32,8.0582716 Z"
     sodipodi:nodetypes="sssss" />
  <path
     id="circle2"
     style="opacity:1;fill:url(#radialGradient11);stroke-width:0.886762"
     d="M 32,7.1706567 A 24.829343,24.829343 0 0 0 7.1706567,32 24.829343,24.829343 0 0 0 32,56.829343 24.829343,24.829343 0 0 0 56.829343,32 24.829343,24.829343 0 0 0 32,7.1706567 Z m 0,3.5470493 c 11.731471,0 21.282294,9.550823 21.282294,21.282294 0,11.731471 -9.550823,21.282294 -21.282294,21.282294 V 49.525678 C 41.701741,49.525678 49.525678,41.701741 49.525678,32 49.525678,22.298259 41.701741,14.474322 32,14.474322 Z m 0,7.094098 c 7.812919,0 14.188196,6.375277 14.188196,14.188196 0,7.812919 -6.375277,14.188196 -14.188196,14.188196 V 42.319003 C 37.721682,42.319003 42.319003,37.721682 42.319003,32 42.319003,26.278318 37.721682,21.680997 32,21.680997 Z m 0,7.094098 A 7.0940981,7.0940981 0 0 1 39.094098,32 7.0940981,7.0940981 0 0 1 32,39.094098 Z" />
  <path
     id="circle2-35"
     style="fill:none;stroke:#000000;stroke-width:0.2;stroke-dasharray:none;stroke-opacity:1;filter:url(#filter11)"
     d="M 32,7.1706567 A 24.829343,24.829343 0 0 0 7.1706567,32 24.829343,24.829343 0 0 0 32,56.829343 24.829343,24.829343 0 0 0 56.829343,32 24.829343,24.829343 0 0 0 32,7.1706567 Z m 0,3.5470493 c 11.731471,0 21.282294,9.550823 21.282294,21.282294 0,11.731471 -9.550823,21.282294 -21.282294,21.282294 V 49.525678 C 41.701741,49.525678 49.525678,41.701741 49.525678,32 49.525678,22.298259 41.701741,14.474322 32,14.474322 Z m 0,7.094098 c 7.812919,0 14.188196,6.375277 14.188196,14.188196 0,7.812919 -6.375277,14.188196 -14.188196,14.188196 V 42.319003 C 37.721682,42.319003 42.319003,37.721682 42.319003,32 42.319003,26.278318 37.721682,21.680997 32,21.680997 Z m 0,7.094098 A 7.0940981,7.0940981 0 0 1 39.094098,32 7.0940981,7.0940981 0 0 1 32,39.094098 Z" />
</svg>
