<?xml version="1.0" encoding="utf-8"?>
<!-- Generator: Adobe Illustrator 25.2.1, SVG Export Plug-In . SVG Version: 6.00 Build 0)  -->
<svg version="1.1" id="Layer_1" xmlns="http://www.w3.org/2000/svg" xmlns:xlink="http://www.w3.org/1999/xlink" x="0px" y="0px"
	 viewBox="0 0 64 64" style="enable-background:new 0 0 64 64;" xml:space="preserve">
<style type="text/css">
	.st0{opacity:0.2;enable-background:new    ;}
	.st1{fill:url(#SVGID_1_);}
	.st2{fill:#E4E4E4;}
	.st3{opacity:0.2;fill:#FFFFFF;enable-background:new    ;}
</style>
<path class="st0" d="M4,31.8c0,0.4,0,0.8,0,1.2c0,15.5,12.5,28,28,28s28-12.5,28-28c0-0.3,0-0.6,0-0.8C59.3,47.2,47,59,32,59
	C16.9,59,4.5,47,4,31.8L4,31.8z"/>
<radialGradient id="SVGID_1_" cx="16.292" cy="18.8323" r="45.7416" gradientUnits="userSpaceOnUse">
	<stop  offset="0" style="stop-color:#717171"/>
	<stop  offset="1" style="stop-color:#242424"/>
</radialGradient>
<path class="st1" d="M32,4C16.5,4,4,16.5,4,32s12.5,28,28,28s28-12.5,28-28S47.5,4,32,4z"/>
<path class="st0" d="M22.4,19c-0.4,0-0.9,0-1.4,0c-2.6-0.1-5.1,0-7.7,0c-1.8,0-1.4,2.2-0.9,3.1c5.7,10.2,12.4,21.5,18.7,32.3
	c1.2,1.8,2.5-0.6,3.2-1.7c1.7-2.6,3.1-5.4,4.6-8.1c0.6-1.8-1.1-3.3-1.7-4.8c-3.7-6.6-7.6-13-11.4-19.6C24.9,19.1,23.8,19,22.4,19z
	 M41.1,19c-1.9,0-0.7,2.2-0.7,2.2s2.9,5.5,4.5,8.4c1.7,3,2.6,0.4,3-0.4c1.5-3,2.8-6.1,3.8-8.1c1-2.1-1.1-2.1-1.1-2.1H41.1z"/>
<path class="st2" d="M22.4,18c-0.4,0-0.9,0-1.4,0c-2.6-0.1-5.1,0-7.7,0c-1.8,0-1.4,2.2-0.9,3.1c5.7,10.2,12.4,21.5,18.7,32.3
	c1.2,1.8,2.5-0.6,3.2-1.7c1.7-2.6,3.1-5.4,4.6-8.1c0.6-1.8-1.1-3.3-1.7-4.8c-3.7-6.6-7.6-13-11.4-19.6C24.9,18.1,23.8,18,22.4,18z
	 M41.1,18c-1.9,0-0.7,2.2-0.7,2.2s2.9,5.5,4.5,8.4c1.7,3,2.6,0.4,3-0.4c1.5-3,2.8-6.1,3.8-8.1c1-2.1-1.1-2.1-1.1-2.1H41.1z"/>
<path class="st3" d="M22.4,18c-0.4,0-0.9,0-1.4,0c-2.6-0.1-5.1,0-7.7,0c-1.2,0-1.4,1-1.2,2c0.1-0.5,0.5-1,1.2-1c2.6,0,5.1-0.1,7.7,0
	c0.5,0,1,0,1.4,0c1.3,0,2.4,0.1,3.4,1.2c3.8,6.5,7.7,13,11.4,19.6c0.5,1.2,1.5,2.2,1.8,3.5c0.3-1.7-1.2-3-1.8-4.5
	c-3.7-6.6-7.6-13-11.4-19.6C24.9,18.1,23.8,18,22.4,18z M41.1,18c-1.2,0-1.2,0.9-1,1.5c0.1-0.3,0.4-0.5,1-0.5h9.5c0,0,1,0,1.3,0.6
	c0.5-1.6-1.3-1.6-1.3-1.6H41.1z"/>
</svg>
