<?xml version="1.0" encoding="UTF-8" standalone="no"?>
<svg
   width="64"
   height="64"
   version="1.1"
   id="svg4"
   sodipodi:docname="ventoy.svg"
   inkscape:version="1.4 (e7c3feb100, 2024-10-09)"
   xmlns:inkscape="http://www.inkscape.org/namespaces/inkscape"
   xmlns:sodipodi="http://sodipodi.sourceforge.net/DTD/sodipodi-0.dtd"
   xmlns:xlink="http://www.w3.org/1999/xlink"
   xmlns="http://www.w3.org/2000/svg"
   xmlns:svg="http://www.w3.org/2000/svg">
  <defs
     id="defs4">
    <inkscape:path-effect
       effect="fillet_chamfer"
       id="path-effect1"
       is_visible="true"
       lpeversion="1"
       nodesatellites_param="F,0,0,1,0,0.44452384,0,1 @ F,0,0,1,0,0,0,1 @ F,0,0,1,0,2.8892056,0,1 @ F,0,0,1,0,0,0,1 @ F,0,0,1,0,0,0,1 @ F,0,0,1,0,0,0,1 @ F,0,0,1,0,0,0,1 @ F,0,0,1,0,2.8892056,0,1 @ F,0,0,1,0,0,0,1 @ F,0,0,1,0,0.44452384,0,1 | F,0,1,1,0,0.38591582,0,1 @ F,0,1,1,0,0.38591582,0,1 @ F,0,1,1,0,0.38591582,0,1 @ F,0,1,1,0,0.38591582,0,1 | F,0,1,1,0,0.38591582,0,1 @ F,0,0,1,0,0.38591582,0,1 @ F,0,1,1,0,0.38591582,0,1 @ F,0,1,1,0,0.38591582,0,1 | F,0,0,1,0,0,0,1 @ F,0,0,1,0,0,0,1 @ F,0,0,1,0,0,0,1 @ F,0,0,1,0,0,0,1 @ F,0,0,1,0,0,0,1 @ F,0,0,1,0,0,0,1 @ F,0,0,1,0,0,0,1 @ F,0,0,1,0,0,0,1 @ F,0,0,1,0,0,0,1 @ F,0,0,1,0,0,0,1 @ F,0,0,1,0,0,0,1 @ F,0,0,1,0,0,0,1 @ F,0,0,1,0,0,0,1 @ F,0,0,1,0,0,0,1 @ F,0,0,1,0,0,0,1 @ F,0,0,1,0,0,0,1 @ F,0,0,1,0,0,0,1 @ F,0,0,1,0,0,0,1 @ F,0,0,1,0,0,0,1 @ F,0,0,1,0,0,0,1 @ F,0,0,1,0,0,0,1 @ F,0,0,1,0,0,0,1 @ F,0,0,1,0,0,0,1 @ F,0,0,1,0,0,0,1 @ F,0,0,1,0,0,0,1 @ F,0,0,1,0,0,0,1 @ F,0,0,1,0,0,0,1 @ F,0,0,1,0,0,0,1 @ F,0,0,1,0,0,0,1 @ F,0,0,1,0,0,0,1 @ F,0,0,1,0,0,0,1 @ F,0,0,1,0,0,0,1 @ F,0,0,1,0,0,0,1 @ F,0,0,1,0,0,0,1 @ F,0,0,1,0,0,0,1 @ F,0,0,1,0,0,0,1 @ F,0,0,1,0,0,0,1 @ F,0,0,1,0,0,0,1"
       radius="0"
       unit="px"
       method="auto"
       mode="F"
       chamfer_steps="1"
       flexible="false"
       use_knot_distance="true"
       apply_no_radius="true"
       apply_with_radius="true"
       only_selected="false"
       hide_knots="false" />
    <inkscape:path-effect
       effect="fillet_chamfer"
       id="path-effect1-6"
       is_visible="true"
       lpeversion="1"
       nodesatellites_param="F,0,0,1,0,0.44452384,0,1 @ F,0,0,1,0,0,0,1 @ F,0,0,1,0,2.8892056,0,1 @ F,0,0,1,0,0,0,1 @ F,0,0,1,0,0,0,1 @ F,0,0,1,0,0,0,1 @ F,0,0,1,0,0,0,1 @ F,0,0,1,0,2.8892056,0,1 @ F,0,0,1,0,0,0,1 @ F,0,0,1,0,0.44452384,0,1 | F,0,1,1,0,0.38591582,0,1 @ F,0,1,1,0,0.38591582,0,1 @ F,0,1,1,0,0.38591582,0,1 @ F,0,1,1,0,0.38591582,0,1 | F,0,1,1,0,0.38591582,0,1 @ F,0,0,1,0,0.38591582,0,1 @ F,0,1,1,0,0.38591582,0,1 @ F,0,1,1,0,0.38591582,0,1 | F,0,0,1,0,0,0,1 @ F,0,0,1,0,0,0,1 @ F,0,0,1,0,0,0,1 @ F,0,0,1,0,0,0,1 @ F,0,0,1,0,0,0,1 @ F,0,0,1,0,0,0,1 @ F,0,0,1,0,0,0,1 @ F,0,0,1,0,0,0,1 @ F,0,0,1,0,0,0,1 @ F,0,0,1,0,0,0,1 @ F,0,0,1,0,0,0,1 @ F,0,0,1,0,0,0,1 @ F,0,0,1,0,0,0,1 @ F,0,0,1,0,0,0,1 @ F,0,0,1,0,0,0,1 @ F,0,0,1,0,0,0,1 @ F,0,0,1,0,0,0,1 @ F,0,0,1,0,0,0,1 @ F,0,0,1,0,0,0,1 @ F,0,0,1,0,0,0,1 @ F,0,0,1,0,0,0,1 @ F,0,0,1,0,0,0,1 @ F,0,0,1,0,0,0,1 @ F,0,0,1,0,0,0,1 @ F,0,0,1,0,0,0,1 @ F,0,0,1,0,0,0,1 @ F,0,0,1,0,0,0,1 @ F,0,0,1,0,0,0,1 @ F,0,0,1,0,0,0,1 @ F,0,0,1,0,0,0,1 @ F,0,0,1,0,0,0,1 @ F,0,0,1,0,0,0,1 @ F,0,0,1,0,0,0,1 @ F,0,0,1,0,0,0,1 @ F,0,0,1,0,0,0,1 @ F,0,0,1,0,0,0,1 @ F,0,0,1,0,0,0,1 @ F,0,0,1,0,0,0,1"
       radius="0"
       unit="px"
       method="auto"
       mode="F"
       chamfer_steps="1"
       flexible="false"
       use_knot_distance="true"
       apply_no_radius="true"
       apply_with_radius="true"
       only_selected="false"
       hide_knots="false" />
    <inkscape:path-effect
       effect="fillet_chamfer"
       id="path-effect1-3"
       is_visible="true"
       lpeversion="1"
       nodesatellites_param="F,0,0,1,0,0.44452384,0,1 @ F,0,0,1,0,0,0,1 @ F,0,0,1,0,2.8892056,0,1 @ F,0,0,1,0,0,0,1 @ F,0,0,1,0,0,0,1 @ F,0,0,1,0,0,0,1 @ F,0,0,1,0,0,0,1 @ F,0,0,1,0,2.8892056,0,1 @ F,0,0,1,0,0,0,1 @ F,0,0,1,0,0.44452384,0,1 | F,0,1,1,0,0.38591582,0,1 @ F,0,1,1,0,0.38591582,0,1 @ F,0,1,1,0,0.38591582,0,1 @ F,0,1,1,0,0.38591582,0,1 | F,0,1,1,0,0.38591582,0,1 @ F,0,0,1,0,0.38591582,0,1 @ F,0,1,1,0,0.38591582,0,1 @ F,0,1,1,0,0.38591582,0,1 | F,0,0,1,0,0,0,1 @ F,0,0,1,0,0,0,1 @ F,0,0,1,0,0,0,1 @ F,0,0,1,0,0,0,1 @ F,0,0,1,0,0,0,1 @ F,0,0,1,0,0,0,1 @ F,0,0,1,0,0,0,1 @ F,0,0,1,0,0,0,1 @ F,0,0,1,0,0,0,1 @ F,0,0,1,0,0,0,1 @ F,0,0,1,0,0,0,1 @ F,0,0,1,0,0,0,1 @ F,0,0,1,0,0,0,1 @ F,0,0,1,0,0,0,1 @ F,0,0,1,0,0,0,1 @ F,0,0,1,0,0,0,1 @ F,0,0,1,0,0,0,1 @ F,0,0,1,0,0,0,1 @ F,0,0,1,0,0,0,1 @ F,0,0,1,0,0,0,1 @ F,0,0,1,0,0,0,1 @ F,0,0,1,0,0,0,1 @ F,0,0,1,0,0,0,1 @ F,0,0,1,0,0,0,1 @ F,0,0,1,0,0,0,1 @ F,0,0,1,0,0,0,1 @ F,0,0,1,0,0,0,1 @ F,0,0,1,0,0,0,1 @ F,0,0,1,0,0,0,1 @ F,0,0,1,0,0,0,1 @ F,0,0,1,0,0,0,1 @ F,0,0,1,0,0,0,1 @ F,0,0,1,0,0,0,1 @ F,0,0,1,0,0,0,1 @ F,0,0,1,0,0,0,1 @ F,0,0,1,0,0,0,1 @ F,0,0,1,0,0,0,1 @ F,0,0,1,0,0,0,1"
       radius="0"
       unit="px"
       method="auto"
       mode="F"
       chamfer_steps="1"
       flexible="false"
       use_knot_distance="true"
       apply_no_radius="true"
       apply_with_radius="true"
       only_selected="false"
       hide_knots="false" />
    <inkscape:path-effect
       effect="fillet_chamfer"
       id="path-effect1-36"
       is_visible="true"
       lpeversion="1"
       nodesatellites_param="F,0,0,1,0,0.44452384,0,1 @ F,0,0,1,0,0,0,1 @ F,0,0,1,0,2.8892056,0,1 @ F,0,0,1,0,0,0,1 @ F,0,0,1,0,0,0,1 @ F,0,0,1,0,0,0,1 @ F,0,0,1,0,0,0,1 @ F,0,0,1,0,2.8892056,0,1 @ F,0,0,1,0,0,0,1 @ F,0,0,1,0,0.44452384,0,1"
       radius="0"
       unit="px"
       method="auto"
       mode="F"
       chamfer_steps="1"
       flexible="false"
       use_knot_distance="true"
       apply_no_radius="true"
       apply_with_radius="true"
       only_selected="false"
       hide_knots="false" />
    <filter
       inkscape:collect="always"
       style="color-interpolation-filters:sRGB"
       id="filter3"
       x="-0.076357898"
       y="-0.07686313"
       width="1.1527231"
       height="1.1537266">
      <feGaussianBlur
         inkscape:collect="always"
         stdDeviation="1.3499813"
         id="feGaussianBlur3" />
    </filter>
    <radialGradient
       id="SVGID_1_-2-3-5"
       cx="11.7752"
       cy="19.0165"
       r="57.6096"
       gradientUnits="userSpaceOnUse"
       gradientTransform="matrix(0.918263,0,0,0.918263,-0.5706792,26.18842)">
      <stop
         offset="0"
         style="stop-color:#2d9af6;stop-opacity:1;"
         id="stop1-9-6-6-3" />
      <stop
         offset="1"
         style="stop-color:#26dbff;stop-opacity:1;"
         id="stop2-1-7-2" />
    </radialGradient>
    <radialGradient
       inkscape:collect="always"
       xlink:href="#SVGID_1_-2-3-5"
       id="radialGradient1"
       cx="1.045511"
       cy="51.389706"
       fx="1.045511"
       fy="51.389706"
       r="27.579208"
       gradientTransform="matrix(3.0384433,-0.81414845,0.80875105,3.0183,-46.050309,-128.89164)"
       gradientUnits="userSpaceOnUse" />
    <inkscape:path-effect
       effect="fillet_chamfer"
       id="path-effect1-367"
       is_visible="true"
       lpeversion="1"
       nodesatellites_param="F,0,0,1,0,0.44452384,0,1 @ F,0,0,1,0,0,0,1 @ F,0,0,1,0,2.8892056,0,1 @ F,0,0,1,0,0,0,1 @ F,0,0,1,0,0,0,1 @ F,0,0,1,0,0,0,1 @ F,0,0,1,0,0,0,1 @ F,0,0,1,0,2.8892056,0,1 @ F,0,0,1,0,0,0,1 @ F,0,0,1,0,0.44452384,0,1 | F,0,1,1,0,0.38591582,0,1 @ F,0,1,1,0,0.38591582,0,1 @ F,0,1,1,0,0.38591582,0,1 @ F,0,1,1,0,0.38591582,0,1 | F,0,1,1,0,0.38591582,0,1 @ F,0,0,1,0,0.38591582,0,1 @ F,0,1,1,0,0.38591582,0,1 @ F,0,1,1,0,0.38591582,0,1 | F,0,0,1,0,0,0,1 @ F,0,0,1,0,0,0,1 @ F,0,0,1,0,0,0,1 @ F,0,0,1,0,0,0,1 @ F,0,0,1,0,0,0,1 @ F,0,0,1,0,0,0,1 @ F,0,0,1,0,0,0,1 @ F,0,0,1,0,0,0,1 @ F,0,0,1,0,0,0,1 @ F,0,0,1,0,0,0,1 @ F,0,0,1,0,0,0,1 @ F,0,0,1,0,0,0,1 @ F,0,0,1,0,0,0,1 @ F,0,0,1,0,0,0,1 @ F,0,0,1,0,0,0,1 @ F,0,0,1,0,0,0,1 @ F,0,0,1,0,0,0,1 @ F,0,0,1,0,0,0,1 @ F,0,0,1,0,0,0,1 @ F,0,0,1,0,0,0,1 @ F,0,0,1,0,0,0,1 @ F,0,0,1,0,0,0,1 @ F,0,0,1,0,0,0,1 @ F,0,0,1,0,0,0,1 @ F,0,0,1,0,0,0,1 @ F,0,0,1,0,0,0,1 @ F,0,0,1,0,0,0,1 @ F,0,0,1,0,0,0,1 @ F,0,0,1,0,0,0,1 @ F,0,0,1,0,0,0,1 @ F,0,0,1,0,0,0,1 @ F,0,0,1,0,0,0,1 @ F,0,0,1,0,0,0,1 @ F,0,0,1,0,0,0,1 @ F,0,0,1,0,0,0,1 @ F,0,0,1,0,0,0,1 @ F,0,0,1,0,0,0,1 @ F,0,0,1,0,0,0,1"
       radius="0"
       unit="px"
       method="auto"
       mode="F"
       chamfer_steps="1"
       flexible="false"
       use_knot_distance="true"
       apply_no_radius="true"
       apply_with_radius="true"
       only_selected="false"
       hide_knots="false" />
    <filter
       inkscape:collect="always"
       style="color-interpolation-filters:sRGB"
       id="filter1"
       x="-0.051371053"
       y="-0.051800739"
       width="1.1027421"
       height="1.1036015">
      <feGaussianBlur
         inkscape:collect="always"
         stdDeviation="0.77091324"
         id="feGaussianBlur1" />
    </filter>
  </defs>
  <sodipodi:namedview
     id="namedview4"
     pagecolor="#ffffff"
     bordercolor="#000000"
     borderopacity="0.25"
     inkscape:showpageshadow="2"
     inkscape:pageopacity="0.0"
     inkscape:pagecheckerboard="0"
     inkscape:deskcolor="#d1d1d1"
     inkscape:zoom="13.71875"
     inkscape:cx="30.542141"
     inkscape:cy="34.369021"
     inkscape:window-width="1920"
     inkscape:window-height="1017"
     inkscape:window-x="0"
     inkscape:window-y="0"
     inkscape:window-maximized="1"
     inkscape:current-layer="svg4" />
  <path
     style="fill:url(#radialGradient1);stroke-width:1.26901"
     d="m 45.509236,4.6036072 c -1.368264,1.256e-4 -2.735959,0.5057448 -3.754991,1.519345 l -4.870333,4.8455488 c -2.680323,-0.478565 -5.532822,0.10147 -7.485195,2.042318 L 6.8167283,35.458968 c -3.1962062,3.177277 -3.191386,8.499936 -0.00495,11.678886 l 0.00254,0.0049 9.9315147,9.869552 c 3.200885,3.181941 8.48601,3.177986 11.678887,-0.0075 l -0.0049,0.0075 22.579511,-22.44567 c 1.986181,-1.974257 2.613898,-4.734005 2.183595,-7.34144 l 4.857941,-4.830676 c 2.051069,-2.039458 2.051094,-5.505257 0,-7.544681 L 49.264302,6.1229446 C 48.245085,5.109531 46.877576,4.6034726 45.509312,4.6035995 Z"
     id="path3-7"
     sodipodi:nodetypes="ccccccccccccccccc" />
  <path
     style="mix-blend-mode:normal;fill:none;stroke:#000000;stroke-width:0.15760279;stroke-dasharray:none;stroke-opacity:1;filter:url(#filter3)"
     d="m 42.645509,10.411264 c -1.078211,9.9e-5 -2.155974,0.398534 -2.958985,1.197265 l -3.83789,3.81836 c -2.112132,-0.377116 -4.359941,0.07996 -5.898438,1.609375 L 12.155275,34.725717 c -2.5186551,2.503739 -2.5148567,6.698068 -0.0039,9.203125 l 0.002,0.0039 7.826172,7.777344 c 2.522342,2.507414 6.687094,2.504297 9.203125,-0.0059 l -0.0039,0.0059 17.792969,-17.6875 c 1.565138,-1.555742 2.059788,-3.730462 1.720703,-5.785157 l 3.828125,-3.80664 c 1.616271,-1.607121 1.616291,-4.338219 0,-5.945313 L 45.604553,11.608523 C 44.801396,10.809939 43.72378,10.411158 42.645569,10.411258 Z"
     id="path3-7-5"
     sodipodi:nodetypes="ccccccccccccccccc"
     transform="matrix(1.2690131,0,0,1.2690131,-8.6084755,-8.6084237)" />
  <path
     id="path3"
     style="opacity:0.53455571;mix-blend-mode:normal;fill:#ffffff;fill-opacity:1;filter:url(#filter1)"
     d="m 41.339132,15.413094 -5.548116,5.518547 -0.09009,-0.0896 a 2.9057468,2.9057468 0.00613638 0 0 -4.0976,-4.38e-4 L 13.808594,38.53125 c -1.078032,1.071648 -1.078032,2.81317 0,3.888672 l 7.824218,7.77539 c 1.081908,1.075505 2.835999,1.07165 3.910157,0 L 43.3376,32.507519 a 2.8722693,2.8722693 90.004093 0 0 2.91e-4,-4.073925 l 0,0 5.548064,-5.516646 a 0.44199976,0.44199976 89.999559 0 0 -5e-6,-0.626859 l -6.916431,-6.877053 a 0.44698744,0.44698744 179.99476 0 0 -0.630387,5.8e-5 z m 0.991261,3.173372 0.989605,0.983318 a 0.38259813,0.38259813 90.064771 0 1 -6.14e-4,0.543406 l -0.712987,0.705261 a 0.38851968,0.38851968 0.11947342 0 1 -0.547598,-0.0011 l -0.984786,-0.982274 a 0.38422253,0.38422253 90.052805 0 1 5.02e-4,-0.544566 l 0.708392,-0.703985 a 0.38835744,0.38835744 179.9981 0 1 0.547486,-1.8e-5 z m 2.337715,2.324394 0.991909,0.986874 a 0.38343775,0.38343775 90.038748 0 1 -3.68e-4,0.544006 l -0.709923,0.704411 a 0.38865929,0.38865929 0.02036053 0 1 -0.547697,-1.95e-4 l -0.989605,-0.983318 a 0.38408934,0.38408934 89.953333 0 1 -4.44e-4,-0.544471 l 0.709243,-0.707037 a 0.38750219,0.38750219 179.97172 0 1 0.546885,-2.7e-4 z m -7.812639,6.374296 -0.771485,2.867188 -0.753906,-0.75 -7.070312,7.027344 3.748046,0.101562 c 0.279216,-0.03051 0.567745,-0.144981 0.78125,-0.347656 1.09115,-1.084687 1.476563,-1.466797 1.476563,-1.466797 l -0.611328,-0.609375 1.828125,-1.820313 1.832031,1.820313 -1.832031,1.820312 -0.611328,-0.611328 -1.458985,1.449219 c -0.409843,0.407415 -1.062796,0.611324 -1.599609,0.621094 -0.01235,-6.1e-4 -3.974609,-0.109375 -3.974609,-0.109375 -0.278777,0.03015 -0.567886,0.146009 -0.78125,0.347656 l -2.298829,2.287109 c -0.0025,0.0029 -0.0053,0.0053 -0.0078,0.0078 l -1.041016,1.035156 c 0.559457,0.835058 0.46926,1.972625 -0.271484,2.708984 -0.844385,0.839385 -2.214216,0.83938 -3.058594,0 -0.844125,-0.839128 -0.844382,-2.201635 0,-3.041015 0.740602,-0.736216 1.885167,-0.825091 2.72461,-0.269531 l 1.058593,-1.052735 c 0.203531,-0.212216 0.320946,-0.50022 0.351563,-0.777343 0,0 -0.110587,-3.938957 -0.111328,-3.951172 h 0.0039 c 0.0097,-0.533672 0.213274,-1.184452 0.623047,-1.591797 l 1.509765,-1.501953 c -0.230968,-0.478253 -0.149382,-1.069781 0.25,-1.466797 0.505283,-0.50229 1.32248,-0.502655 1.828126,0 0.505433,0.502434 0.50525,1.32001 0,1.822265 -0.399381,0.397017 -0.991264,0.474028 -1.472657,0.244141 -0.184148,0.183768 -0.685207,0.682393 -1.529297,1.521484 -0.203821,0.212217 -0.320795,0.501661 -0.351562,0.779297 l 0.103516,3.722656 9.357421,-9.300781 -0.755859,-0.748047 z"
     inkscape:path-effect="#path-effect1"
     inkscape:original-d="m 41.654297,15.099609 -5.863281,5.832032 -2.138672,-2.126953 -19.84375,19.726562 c -1.078032,1.071648 -1.078032,2.81317 0,3.888672 l 7.824218,7.77539 c 1.081908,1.075505 2.835999,1.07165 3.910157,0 l 19.84375,-19.724609 -2.048828,-2.037109 5.863281,-5.830078 z m 0.402344,3.214844 1.537109,1.527344 -1.261719,1.248047 -1.53125,-1.527344 z m 2.33789,2.324219 1.539063,1.53125 -1.257813,1.248047 -1.537109,-1.527344 z m -7.539062,6.646484 -0.771485,2.867188 -0.753906,-0.75 -7.070312,7.027344 3.748046,0.101562 c 0.279216,-0.03051 0.567745,-0.144981 0.78125,-0.347656 1.09115,-1.084687 1.476563,-1.466797 1.476563,-1.466797 l -0.611328,-0.609375 1.828125,-1.820313 1.832031,1.820313 -1.832031,1.820312 -0.611328,-0.611328 -1.458985,1.449219 c -0.409843,0.407415 -1.062796,0.611324 -1.599609,0.621094 -0.01235,-6.1e-4 -3.974609,-0.109375 -3.974609,-0.109375 -0.278777,0.03015 -0.567886,0.146009 -0.78125,0.347656 l -2.298829,2.287109 c -0.0025,0.0029 -0.0053,0.0053 -0.0078,0.0078 l -1.041016,1.035156 c 0.559457,0.835058 0.46926,1.972625 -0.271484,2.708984 -0.844385,0.839385 -2.214216,0.83938 -3.058594,0 -0.844125,-0.839128 -0.844382,-2.201635 0,-3.041015 0.740602,-0.736216 1.885167,-0.825091 2.72461,-0.269531 l 1.058593,-1.052735 c 0.203531,-0.212216 0.320946,-0.50022 0.351563,-0.777343 0,0 -0.110587,-3.938957 -0.111328,-3.951172 h 0.0039 c 0.0097,-0.533672 0.213274,-1.184452 0.623047,-1.591797 l 1.509765,-1.501953 c -0.230968,-0.478253 -0.149382,-1.069781 0.25,-1.466797 0.505283,-0.50229 1.32248,-0.502655 1.828126,0 0.505433,0.502434 0.50525,1.32001 0,1.822265 -0.399381,0.397017 -0.991264,0.474028 -1.472657,0.244141 -0.184148,0.183768 -0.685207,0.682393 -1.529297,1.521484 -0.203821,0.212217 -0.320795,0.501661 -0.351562,0.779297 l 0.103516,3.722656 9.357421,-9.300781 -0.755859,-0.748047 z"
     transform="matrix(1.2153451,0,0,1.2153451,-5.6856489,-8.2786732)" />
  <path
     id="path3-5"
     style="opacity:0.616361;fill:#ffffff;fill-opacity:1"
     d="m 41.339132,15.413094 -5.548116,5.518547 -0.09009,-0.0896 a 2.9057468,2.9057468 0.00613638 0 0 -4.0976,-4.38e-4 L 13.808594,38.53125 c -1.078032,1.071648 -1.078032,2.81317 0,3.888672 l 7.824218,7.77539 c 1.081908,1.075505 2.835999,1.07165 3.910157,0 L 43.3376,32.507519 a 2.8722693,2.8722693 90.004093 0 0 2.91e-4,-4.073925 l 0,0 5.548064,-5.516646 a 0.44199976,0.44199976 89.999559 0 0 -5e-6,-0.626859 l -6.916431,-6.877053 a 0.44698744,0.44698744 179.99476 0 0 -0.630387,5.8e-5 z m 0.991261,3.173372 0.989605,0.983318 a 0.38259813,0.38259813 90.064771 0 1 -6.14e-4,0.543406 l -0.712987,0.705261 a 0.38851968,0.38851968 0.11947342 0 1 -0.547598,-0.0011 l -0.984786,-0.982274 a 0.38422253,0.38422253 90.052805 0 1 5.02e-4,-0.544566 l 0.708392,-0.703985 a 0.38835744,0.38835744 179.9981 0 1 0.547486,-1.8e-5 z m 2.337715,2.324394 0.991909,0.986874 a 0.38343775,0.38343775 90.038748 0 1 -3.68e-4,0.544006 l -0.709923,0.704411 a 0.38865929,0.38865929 0.02036053 0 1 -0.547697,-1.95e-4 l -0.989605,-0.983318 a 0.38408934,0.38408934 89.953333 0 1 -4.44e-4,-0.544471 l 0.709243,-0.707037 a 0.38750219,0.38750219 179.97172 0 1 0.546885,-2.7e-4 z m -7.812639,6.374296 -0.771485,2.867188 -0.753906,-0.75 -7.070312,7.027344 3.748046,0.101562 c 0.279216,-0.03051 0.567745,-0.144981 0.78125,-0.347656 1.09115,-1.084687 1.476563,-1.466797 1.476563,-1.466797 l -0.611328,-0.609375 1.828125,-1.820313 1.832031,1.820313 -1.832031,1.820312 -0.611328,-0.611328 -1.458985,1.449219 c -0.409843,0.407415 -1.062796,0.611324 -1.599609,0.621094 -0.01235,-6.1e-4 -3.974609,-0.109375 -3.974609,-0.109375 -0.278777,0.03015 -0.567886,0.146009 -0.78125,0.347656 l -2.298829,2.287109 c -0.0025,0.0029 -0.0053,0.0053 -0.0078,0.0078 l -1.041016,1.035156 c 0.559457,0.835058 0.46926,1.972625 -0.271484,2.708984 -0.844385,0.839385 -2.214216,0.83938 -3.058594,0 -0.844125,-0.839128 -0.844382,-2.201635 0,-3.041015 0.740602,-0.736216 1.885167,-0.825091 2.72461,-0.269531 l 1.058593,-1.052735 c 0.203531,-0.212216 0.320946,-0.50022 0.351563,-0.777343 0,0 -0.110587,-3.938957 -0.111328,-3.951172 h 0.0039 c 0.0097,-0.533672 0.213274,-1.184452 0.623047,-1.591797 l 1.509765,-1.501953 c -0.230968,-0.478253 -0.149382,-1.069781 0.25,-1.466797 0.505283,-0.50229 1.32248,-0.502655 1.828126,0 0.505433,0.502434 0.50525,1.32001 0,1.822265 -0.399381,0.397017 -0.991264,0.474028 -1.472657,0.244141 -0.184148,0.183768 -0.685207,0.682393 -1.529297,1.521484 -0.203821,0.212217 -0.320795,0.501661 -0.351562,0.779297 l 0.103516,3.722656 9.357421,-9.300781 -0.755859,-0.748047 z"
     inkscape:path-effect="#path-effect1-367"
     inkscape:original-d="m 41.654297,15.099609 -5.863281,5.832032 -2.138672,-2.126953 -19.84375,19.726562 c -1.078032,1.071648 -1.078032,2.81317 0,3.888672 l 7.824218,7.77539 c 1.081908,1.075505 2.835999,1.07165 3.910157,0 l 19.84375,-19.724609 -2.048828,-2.037109 5.863281,-5.830078 z m 0.402344,3.214844 1.537109,1.527344 -1.261719,1.248047 -1.53125,-1.527344 z m 2.33789,2.324219 1.539063,1.53125 -1.257813,1.248047 -1.537109,-1.527344 z m -7.539062,6.646484 -0.771485,2.867188 -0.753906,-0.75 -7.070312,7.027344 3.748046,0.101562 c 0.279216,-0.03051 0.567745,-0.144981 0.78125,-0.347656 1.09115,-1.084687 1.476563,-1.466797 1.476563,-1.466797 l -0.611328,-0.609375 1.828125,-1.820313 1.832031,1.820313 -1.832031,1.820312 -0.611328,-0.611328 -1.458985,1.449219 c -0.409843,0.407415 -1.062796,0.611324 -1.599609,0.621094 -0.01235,-6.1e-4 -3.974609,-0.109375 -3.974609,-0.109375 -0.278777,0.03015 -0.567886,0.146009 -0.78125,0.347656 l -2.298829,2.287109 c -0.0025,0.0029 -0.0053,0.0053 -0.0078,0.0078 l -1.041016,1.035156 c 0.559457,0.835058 0.46926,1.972625 -0.271484,2.708984 -0.844385,0.839385 -2.214216,0.83938 -3.058594,0 -0.844125,-0.839128 -0.844382,-2.201635 0,-3.041015 0.740602,-0.736216 1.885167,-0.825091 2.72461,-0.269531 l 1.058593,-1.052735 c 0.203531,-0.212216 0.320946,-0.50022 0.351563,-0.777343 0,0 -0.110587,-3.938957 -0.111328,-3.951172 h 0.0039 c 0.0097,-0.533672 0.213274,-1.184452 0.623047,-1.591797 l 1.509765,-1.501953 c -0.230968,-0.478253 -0.149382,-1.069781 0.25,-1.466797 0.505283,-0.50229 1.32248,-0.502655 1.828126,0 0.505433,0.502434 0.50525,1.32001 0,1.822265 -0.399381,0.397017 -0.991264,0.474028 -1.472657,0.244141 -0.184148,0.183768 -0.685207,0.682393 -1.529297,1.521484 -0.203821,0.212217 -0.320795,0.501661 -0.351562,0.779297 l 0.103516,3.722656 9.357421,-9.300781 -0.755859,-0.748047 z"
     transform="matrix(1.2690131,0,0,1.2690131,-7.3497969,-10.057325)" />
</svg>
