<?xml version="1.0" encoding="UTF-8" standalone="no"?>
<svg
   width="64"
   height="64"
   version="1"
   id="svg9"
   sodipodi:docname="vscode-exploration.svg"
   inkscape:version="1.4 (e7c3feb100, 2024-10-09)"
   xmlns:inkscape="http://www.inkscape.org/namespaces/inkscape"
   xmlns:sodipodi="http://sodipodi.sourceforge.net/DTD/sodipodi-0.dtd"
   xmlns:xlink="http://www.w3.org/1999/xlink"
   xmlns="http://www.w3.org/2000/svg"
   xmlns:svg="http://www.w3.org/2000/svg">
  <defs
     id="defs9">
    <radialGradient
       inkscape:collect="always"
       xlink:href="#linearGradient13"
       id="radialGradient14"
       cx="46.200653"
       cy="40.060677"
       fx="46.200653"
       fy="40.060677"
       r="8.7446136"
       gradientTransform="matrix(9.0485818,-2.4245589,1.6467405,6.1457224,-434.06734,-73.782645)"
       gradientUnits="userSpaceOnUse" />
    <linearGradient
       id="linearGradient13"
       inkscape:collect="always">
      <stop
         style="stop-color:#ff8f3d;stop-opacity:1;"
         offset="0"
         id="stop13" />
      <stop
         style="stop-color:#ffb849;stop-opacity:1;"
         offset="1"
         id="stop14" />
    </linearGradient>
    <radialGradient
       inkscape:collect="always"
       xlink:href="#linearGradient9"
       id="radialGradient10"
       cx="16.896795"
       cy="16.458452"
       fx="16.896795"
       fy="16.458452"
       r="27.999731"
       gradientTransform="matrix(0,-2.1593019,2.348309,-8.1204946e-8,20.488031,96.251154)"
       gradientUnits="userSpaceOnUse" />
    <linearGradient
       id="linearGradient9"
       inkscape:collect="always">
      <stop
         style="stop-color:#cc763e;stop-opacity:1;"
         offset="0"
         id="stop9" />
      <stop
         style="stop-color:#ffb44a;stop-opacity:1;"
         offset="1"
         id="stop10" />
    </linearGradient>
    <radialGradient
       inkscape:collect="always"
       xlink:href="#linearGradient14"
       id="radialGradient16"
       cx="5.178793"
       cy="47.731243"
       fx="5.178793"
       fy="47.731243"
       r="27.999731"
       gradientTransform="matrix(3.0274767,1.7479144,-1.5287216,2.6478235,64.282884,-94.095204)"
       gradientUnits="userSpaceOnUse" />
    <linearGradient
       id="linearGradient14"
       inkscape:collect="always">
      <stop
         style="stop-color:#ea954d;stop-opacity:1;"
         offset="0"
         id="stop15" />
      <stop
         style="stop-color:#d89448;stop-opacity:1;"
         offset="1"
         id="stop16" />
    </linearGradient>
  </defs>
  <sodipodi:namedview
     id="namedview9"
     pagecolor="#505050"
     bordercolor="#eeeeee"
     borderopacity="1"
     inkscape:showpageshadow="0"
     inkscape:pageopacity="0"
     inkscape:pagecheckerboard="0"
     inkscape:deskcolor="#505050"
     inkscape:zoom="12.726108"
     inkscape:cx="41.332354"
     inkscape:cy="31.117133"
     inkscape:window-width="1920"
     inkscape:window-height="1020"
     inkscape:window-x="0"
     inkscape:window-y="0"
     inkscape:window-maximized="1"
     inkscape:current-layer="svg9" />
  <path
     style="fill:url(#radialGradient16);stroke-width:0.931798"
     d="M 56.23049,11.453137 45.485647,6.2496573 C 44.242023,5.6473521 42.755587,5.9014184 41.779432,6.8831532 L 6.6045584,38.561985 c -0.9461154,0.867694 -0.9450277,2.365819 0.00235,3.232079 l 2.8731961,2.627047 c 0.7745285,0.708297 1.9409655,0.760334 2.7748735,0.12419 L 54.613681,12.803044 c 1.421047,-1.084295 3.462174,-0.06484 3.462174,1.729206 v -0.125494 c 0,-1.259335 -0.717245,-2.407329 -1.845365,-2.953632 z"
     id="path3" />
  <path
     style="fill:url(#radialGradient10);stroke-width:0.931798"
     d="m 56.23049,52.578628 -10.744843,5.203494 c -1.243624,0.602161 -2.73006,0.348095 -3.706215,-0.633509 L 6.6045584,23.54826 C 5.658443,22.68063 5.6595307,21.18244 6.6069065,20.316207 L 9.4801026,17.689054 C 10.25463,16.980861 11.421068,16.928721 12.254976,17.564995 L 54.613681,51.22863 c 1.421047,1.084256 3.462174,0.06496 3.462174,-1.729232 v 0.125625 c 0,1.25923 -0.717245,2.407211 -1.845365,2.953645 z"
     id="path6" />
  <path
     style="fill:url(#radialGradient14);stroke-width:0.931798"
     d="m 45.514523,57.75176 c -1.244028,0.601744 -2.730464,0.347483 -3.706621,-0.63433 1.202676,1.209646 3.259283,0.352817 3.259283,-1.357982 V 8.2098086 c 0,-1.710799 -2.056607,-2.5675881 -3.259283,-1.3578642 0.976157,-0.9818131 2.462593,-1.2362447 3.706621,-0.6344741 l 10.743011,5.1963307 c 1.128935,0.546016 1.846793,1.694428 1.846793,2.95431 v 35.233282 c 0,1.259843 -0.717858,2.408229 -1.846793,2.954245 z"
     id="path8" />
</svg>
