<?xml version="1.0" encoding="UTF-8" standalone="no"?>
<svg
   width="64"
   height="64"
   version="1"
   id="svg9"
   sodipodi:docname="wifi-radar.svg"
   inkscape:version="1.4 (e7c3feb100, 2024-10-09)"
   xmlns:inkscape="http://www.inkscape.org/namespaces/inkscape"
   xmlns:sodipodi="http://sodipodi.sourceforge.net/DTD/sodipodi-0.dtd"
   xmlns:xlink="http://www.w3.org/1999/xlink"
   xmlns="http://www.w3.org/2000/svg"
   xmlns:svg="http://www.w3.org/2000/svg">
  <defs
     id="defs9">
    <linearGradient
       id="linearGradient9"
       inkscape:collect="always">
      <stop
         style="stop-color:#00a7ff;stop-opacity:1;"
         offset="0"
         id="stop9" />
      <stop
         style="stop-color:#00ecff;stop-opacity:1;"
         offset="1"
         id="stop10" />
    </linearGradient>
    <radialGradient
       inkscape:collect="always"
       xlink:href="#linearGradient9"
       id="radialGradient10"
       cx="31.966141"
       cy="59.98251"
       fx="31.966141"
       fy="59.98251"
       r="27.825"
       gradientTransform="matrix(0.9930559,-0.9930559,0.98480755,0.98480755,-58.844475,21.949273)"
       gradientUnits="userSpaceOnUse" />
    <filter
       inkscape:collect="always"
       style="color-interpolation-filters:sRGB"
       id="filter16"
       x="-0.16900766"
       y="-0.23386768"
       width="1.3380107"
       height="1.4689397">
      <feGaussianBlur
         inkscape:collect="always"
         stdDeviation="3.8567039"
         id="feGaussianBlur16" />
    </filter>
  </defs>
  <sodipodi:namedview
     id="namedview9"
     pagecolor="#484848"
     bordercolor="#00e1ff"
     borderopacity="1"
     inkscape:showpageshadow="0"
     inkscape:pageopacity="0"
     inkscape:pagecheckerboard="0"
     inkscape:deskcolor="#1c1c1c"
     inkscape:zoom="16"
     inkscape:cx="34.09375"
     inkscape:cy="34.875"
     inkscape:current-layer="svg9" />
  <path
     style="fill:url(#radialGradient10);fill-opacity:1;stroke-width:0.858953"
     d="m 32.130128,14.821592 c -9.065062,0 -17.22482,3.221016 -23.9931242,8.216595 L 32.130128,49.179086 55.937725,22.943704 C 49.196906,18.004127 41.126476,14.820905 32.130128,14.820905 Z"
     id="path1" />
  <path
     style="opacity:0.2;fill:#004eff;fill-opacity:1;stroke-width:1.14558"
     d="m 32.032499,21.691232 c -7.221405,0 -13.923403,2.368376 -19.306492,6.368176 L 32.133311,49.185084 51.338992,28.059408 C 45.943301,24.061327 39.241647,21.689972 32.02448,21.689972 Z"
     id="path2" />
  <path
     style="opacity:0.2;fill:#0000ff;fill-opacity:1;stroke-width:1.14558"
     d="m 32.032499,28.564724 c -5.416082,0 -10.442666,1.776225 -14.480155,4.77616 L 32.108108,49.185428 46.512655,33.340884 c -4.037031,-2.999821 -9.06373,-4.77616 -14.480156,-4.77616 z"
     id="path4" />
  <g
     id="g16"
     style="mix-blend-mode:normal;stroke:#000000;stroke-width:0.2;stroke-dasharray:none;stroke-opacity:1;filter:url(#filter16)"
     transform="matrix(0.85895276,0,0,0.85895276,40.866462,-13.277627)">
    <path
       d="m -10.214844,32.685547 c -10.553622,0 -20.051923,3.750511 -27.93164,9.566406 l 5.355468,5.835938 c 6.264747,-4.650546 14.061693,-7.404297 22.462891,-7.404297 l -0.0098,-0.002 c 8.3887067,0 16.1786161,2.753564 22.455079,7.394531 l 5.384765,-5.935547 C 9.6542347,36.389928 0.25877884,32.685547 -10.214844,32.685547 Z"
       style="baseline-shift:baseline;display:inline;overflow:visible;fill:none;stroke:#000000;stroke-width:0.2;stroke-dasharray:none;stroke-opacity:1;enable-background:accumulate;stop-color:#000000;stop-opacity:1"
       id="path16" />
    <path
       d="m -10.337891,40.681641 0.0098,0.002 c -8.40722,0 -16.209524,2.757462 -22.476562,7.414062 l 5.636718,6.136719 c 4.697595,-3.484939 10.541967,-5.548828 16.839844,-5.548828 6.3058486,0 12.1574769,2.06813 16.8574219,5.560547 l -16.7558599,18.429687 0.01563,0.01563 22.359376,-24.59375 c -6.2817099,-4.6546 -14.084044,-7.416015 -22.486329,-7.416015 z"
       style="baseline-shift:baseline;display:inline;overflow:visible;fill:none;stroke:#000000;stroke-width:0.2;stroke-dasharray:none;stroke-opacity:1;enable-background:accumulate;stop-color:#000000;stop-opacity:1"
       id="path15" />
    <path
       d="m -10.328125,48.685547 c -6.305448,0 -12.156943,2.067997 -16.857422,5.560547 L -10.240234,72.691406 6.5292969,54.246094 C 1.8293519,50.753677 -4.0222764,48.685547 -10.328125,48.685547 Z"
       style="baseline-shift:baseline;display:inline;overflow:visible;fill:none;stroke:#000000;stroke-width:0.2;stroke-dasharray:none;stroke-opacity:1;enable-background:accumulate;stop-color:#000000;stop-opacity:1"
       id="path14" />
  </g>
</svg>
