<?xml version="1.0" encoding="UTF-8" standalone="no"?>
<svg
   width="64"
   height="64"
   version="1"
   id="svg5"
   sodipodi:docname="wps-office2019-kprometheus.svg"
   inkscape:version="1.4 (e7c3feb100, 2024-10-09)"
   xmlns:inkscape="http://www.inkscape.org/namespaces/inkscape"
   xmlns:sodipodi="http://sodipodi.sourceforge.net/DTD/sodipodi-0.dtd"
   xmlns:xlink="http://www.w3.org/1999/xlink"
   xmlns="http://www.w3.org/2000/svg"
   xmlns:svg="http://www.w3.org/2000/svg">
  <defs
     id="defs5">
    <linearGradient
       id="linearGradient1"
       inkscape:collect="always">
      <stop
         style="stop-color:#29b7e6;stop-opacity:1;"
         offset="0"
         id="stop1" />
      <stop
         style="stop-color:#2975e6;stop-opacity:1;"
         offset="1"
         id="stop2" />
    </linearGradient>
    <inkscape:path-effect
       effect="fillet_chamfer"
       id="path-effect7"
       is_visible="true"
       lpeversion="1"
       nodesatellites_param="F,0,0,1,0,0,0,1 @ F,0,0,1,0,0,0,1 @ F,0,0,1,0,0,0,1 @ F,0,0,1,0,0,0,1 @ F,0,0,1,0,0.57907549,0,1 @ F,0,0,1,0,0.61492655,0,1 @ F,0,1,1,0,0.61492655,0,1 @ F,0,0,1,0,0,0,1 @ F,0,0,1,0,1.7363003,0,1 @ F,0,0,1,0,0,0,1 @ F,0,0,1,0,0,0,1 @ F,0,0,1,0,0,0,1 @ F,0,0,1,0,0,0,1 @ F,0,0,1,0,0,0,1 @ F,0,0,1,0,0,0,1 @ F,0,1,1,0,0.61492655,0,1 @ F,0,1,1,0,0.61492655,0,1 @ F,0,0,1,0,0.57907549,0,1 @ F,0,0,1,0,0,0,1 @ F,0,0,1,0,1.7363003,0,1 @ F,0,0,1,0,0,0,1 @ F,0,0,1,0,0,0,1"
       radius="0"
       unit="px"
       method="auto"
       mode="F"
       chamfer_steps="1"
       flexible="false"
       use_knot_distance="true"
       apply_no_radius="true"
       apply_with_radius="true"
       only_selected="false"
       hide_knots="false" />
    <inkscape:path-effect
       effect="fillet_chamfer"
       id="path-effect6"
       is_visible="true"
       lpeversion="1"
       nodesatellites_param="F,0,0,1,0,0,0,1 @ F,0,0,1,0,0,0,1 @ F,0,0,1,0,0,0,1 @ F,0,0,1,0,0,0,1 @ F,0,0,1,0,1.2853053,0,1 @ F,0,0,1,0,0,0,1 @ F,0,0,1,0,0,0,1 @ F,0,0,1,0,0,0,1 @ F,0,0,1,0,0,0,1 @ F,0,0,1,0,0,0,1 @ F,0,0,1,0,1.0047522,0,1 @ F,0,0,1,0,0,0,1 @ F,0,0,1,0,0,0,1"
       radius="0"
       unit="px"
       method="auto"
       mode="F"
       chamfer_steps="1"
       flexible="false"
       use_knot_distance="true"
       apply_no_radius="true"
       apply_with_radius="true"
       only_selected="false"
       hide_knots="false" />
    <inkscape:path-effect
       effect="fillet_chamfer"
       id="path-effect6-3"
       is_visible="true"
       lpeversion="1"
       nodesatellites_param="F,0,0,1,0,0,0,1 @ F,0,0,1,0,0,0,1 @ F,0,0,1,0,0,0,1 @ F,0,0,1,0,0,0,1 @ F,0,0,1,0,1.2853053,0,1 @ F,0,0,1,0,0,0,1 @ F,0,0,1,0,0,0,1 @ F,0,0,1,0,0,0,1 @ F,0,0,1,0,0,0,1 @ F,0,0,1,0,0,0,1 @ F,0,0,1,0,1.0047522,0,1 @ F,0,0,1,0,0,0,1 @ F,0,0,1,0,0,0,1"
       radius="0"
       unit="px"
       method="auto"
       mode="F"
       chamfer_steps="1"
       flexible="false"
       use_knot_distance="true"
       apply_no_radius="true"
       apply_with_radius="true"
       only_selected="false"
       hide_knots="false" />
    <filter
       inkscape:collect="always"
       style="color-interpolation-filters:sRGB"
       id="filter1"
       x="-0.19370676"
       y="-0.27711774"
       width="1.3874147"
       height="1.5542066">
      <feGaussianBlur
         inkscape:collect="always"
         stdDeviation="3.6942574"
         id="feGaussianBlur1" />
    </filter>
    <radialGradient
       inkscape:collect="always"
       xlink:href="#linearGradient1"
       id="radialGradient2"
       cx="4.1967473"
       cy="58.678886"
       fx="4.1967473"
       fy="58.678886"
       r="23.144801"
       gradientTransform="matrix(2.7730149,0.74302711,-0.51935637,1.9382643,12.812264,-73.357157)"
       gradientUnits="userSpaceOnUse" />
    <inkscape:path-effect
       effect="fillet_chamfer"
       id="path-effect7-7"
       is_visible="true"
       lpeversion="1"
       nodesatellites_param="F,0,0,1,0,0,0,1 @ F,0,0,1,0,0,0,1 @ F,0,0,1,0,0,0,1 @ F,0,0,1,0,0,0,1 @ F,0,0,1,0,0.57907549,0,1 @ F,0,0,1,0,0.61492655,0,1 @ F,0,1,1,0,0.61492655,0,1 @ F,0,0,1,0,0,0,1 @ F,0,0,1,0,1.7363003,0,1 @ F,0,0,1,0,0,0,1 @ F,0,0,1,0,0,0,1 @ F,0,0,1,0,0,0,1 @ F,0,0,1,0,0,0,1 @ F,0,0,1,0,0,0,1 @ F,0,0,1,0,0,0,1 @ F,0,1,1,0,0.61492655,0,1 @ F,0,1,1,0,0.61492655,0,1 @ F,0,0,1,0,0.57907549,0,1 @ F,0,0,1,0,0,0,1 @ F,0,0,1,0,1.7363003,0,1 @ F,0,0,1,0,0,0,1 @ F,0,0,1,0,0,0,1"
       radius="0"
       unit="px"
       method="auto"
       mode="F"
       chamfer_steps="1"
       flexible="false"
       use_knot_distance="true"
       apply_no_radius="true"
       apply_with_radius="true"
       only_selected="false"
       hide_knots="false" />
    <filter
       inkscape:collect="always"
       style="color-interpolation-filters:sRGB"
       id="filter2"
       x="-0.10835451"
       y="-0.17160969"
       width="1.2166977"
       height="1.3430809">
      <feGaussianBlur
         inkscape:collect="always"
         stdDeviation="1.6746049"
         id="feGaussianBlur2" />
    </filter>
  </defs>
  <sodipodi:namedview
     id="namedview5"
     pagecolor="#505050"
     bordercolor="#eeeeee"
     borderopacity="1"
     inkscape:showpageshadow="0"
     inkscape:pageopacity="0"
     inkscape:pagecheckerboard="0"
     inkscape:deskcolor="#505050"
     inkscape:zoom="18.28125"
     inkscape:cx="27.241025"
     inkscape:cy="30.851282"
     inkscape:current-layer="svg5" />
  <path
     style="fill:url(#radialGradient2);paint-order:stroke fill markers"
     d="m 14.994141,17.800781 c -4.455335,0.0053 -7.5424289,5.067619 -5.5078129,9.03125 L 19.761719,46.835937 v 0.002 c 1.400733,2.719271 6.764852,5.681022 10.742247,0.371506 0.425389,-0.567862 0.973503,-0.552179 1.383886,0.02641 3.264471,4.602532 8.698416,3.034613 10.541882,-0.06589 L 54.328125,27.171875 v -0.002 C 56.678722,23.21636 53.600004,17.80177 49,17.800781 H 37.203125 c -1.817652,-1.45e-4 -3.52517,0.811215 -4.688895,2.166853 -0.361057,0.4206 -0.825362,0.424589 -1.186749,0.0041 -1.142367,-1.329032 -2.76873,-2.171139 -4.561856,-2.171003 H 14.998047 Z"
     id="path5"
     sodipodi:nodetypes="cccccccccccccc"
     inkscape:path-effect="#path-effect6"
     inkscape:original-d="m 14.994141,17.800781 c -4.455335,0.0053 -7.5424289,5.067619 -5.5078129,9.03125 L 19.761719,46.835937 v 0.002 c 1.486388,2.885556 7.435709,6.044153 11.455125,-0.697266 3.132076,5.916143 9.236322,4.353662 11.21289,1.029297 L 54.328125,27.171875 v -0.002 C 56.678722,23.21636 53.600004,17.80177 49,17.800781 H 37.203125 c -2.15591,-1.72e-4 -4.156881,1.141301 -5.279297,2.978516 -1.126952,-1.786288 -3.024516,-2.978678 -5.158203,-2.978516 H 14.998047 Z"
     transform="translate(0.00825381,-1.9783888)" />
  <path
     style="mix-blend-mode:normal;fill:none;stroke:#000000;stroke-width:0.2;stroke-dasharray:none;stroke-opacity:1;paint-order:stroke fill markers;filter:url(#filter1)"
     d="m 14.994141,17.800781 c -4.455335,0.0053 -7.5424289,5.067619 -5.5078129,9.03125 L 19.761719,46.835937 v 0.002 c 1.400733,2.719271 6.764852,5.681022 10.742247,0.371506 0.425389,-0.567862 0.973503,-0.552179 1.383886,0.02641 3.264471,4.602532 8.698416,3.034613 10.541882,-0.06589 L 54.328125,27.171875 v -0.002 C 56.678722,23.21636 53.600004,17.80177 49,17.800781 H 37.203125 c -1.817652,-1.45e-4 -3.52517,0.811215 -4.688895,2.166853 -0.361057,0.4206 -0.825362,0.424589 -1.186749,0.0041 -1.142367,-1.329032 -2.76873,-2.171139 -4.561856,-2.171003 H 14.998047 Z"
     id="path5-6"
     sodipodi:nodetypes="cccccccccccccc"
     inkscape:path-effect="#path-effect6-3"
     inkscape:original-d="m 14.994141,17.800781 c -4.455335,0.0053 -7.5424289,5.067619 -5.5078129,9.03125 L 19.761719,46.835937 v 0.002 c 1.486388,2.885556 7.435709,6.044153 11.455125,-0.697266 3.132076,5.916143 9.236322,4.353662 11.21289,1.029297 L 54.328125,27.171875 v -0.002 C 56.678722,23.21636 53.600004,17.80177 49,17.800781 H 37.203125 c -2.15591,-1.72e-4 -4.156881,1.141301 -5.279297,2.978516 -1.126952,-1.786288 -3.024516,-2.978678 -5.158203,-2.978516 H 14.998047 Z"
     transform="translate(0.00822691,-1.9779211)" />
  <path
     style="fill:#ffffff;paint-order:stroke fill markers"
     d="m 15,22.000001 c -1.495373,0.0018 -2.460235,1.583723 -1.777344,2.914062 l 10.273438,20 c 0.718835,1.395488 2.691431,1.457203 3.496094,0.10938 3.682236,-6.17623 7.369045,-12.349729 11.051139,-18.526043 0.163768,-0.274703 0.555778,-0.497399 0.875592,-0.497399 h 5.95053 a 0.34966178,0.34966178 60.376416 0 1 0.300493,0.528456 l -7.652384,12.861056 a 0.34576635,0.34576635 1.4042681 0 1 -0.602597,-0.01477 L 34.652344,35.109377 33.1436,37.637873 a 3.0849197,3.0849197 91.452038 0 0 -0.07668,3.025229 l 2.265116,4.274399 c 0.73048,1.380626 2.690699,1.428919 3.48828,0.08594 l 11.898438,-20 C 51.512103,23.690114 50.551505,22.000334 49,22.000001 H 37.203124 c -0.704964,-5.6e-5 -1.357919,0.370941 -1.718748,0.976562 -3.255757,5.455952 -6.510213,10.912672 -9.763282,16.370226 -0.173886,0.291722 -0.440662,0.283332 -0.595867,-0.01874 l -6.56686,-12.781088 a 0.3753979,0.3753979 121.40306 0 1 0.333904,-0.546956 h 6.07553 a 0.95012625,0.95012625 31.361144 0 1 0.844468,0.51468 l 2.695543,5.227508 1.521712,-2.555096 a 3.131302,3.131302 91.768046 0 0 0.0937,-3.035516 l -1.580257,-3.069544 c -0.3435,-0.664657 -1.029172,-1.082089 -1.777344,-1.082032 z"
     id="path6"
     inkscape:path-effect="#path-effect7"
     inkscape:original-d="m 15,22.000001 c -1.495373,0.0018 -2.460235,1.583723 -1.777344,2.914062 l 10.273438,20 c 0.718835,1.395488 2.691431,1.457203 3.496094,0.10938 3.781082,-6.342025 7.566986,-12.681171 11.347656,-19.023442 h 7.144532 l -8.281252,13.917968 -2.55078,-4.808592 -2.398438,4.01953 3.078126,5.808594 c 0.73048,1.380626 2.690699,1.428919 3.48828,0.08594 l 11.898438,-20 C 51.512103,23.690114 50.551505,22.000334 49,22.000001 H 37.203124 c -0.704964,-5.6e-5 -1.357919,0.370941 -1.718748,0.976562 -3.360793,5.63197 -6.7202,11.264759 -10.078126,16.898438 l -7.128906,-13.875 h 7.269532 l 2.960936,5.742188 2.410156,-4.046876 -2.375,-4.61328 c -0.3435,-0.664657 -1.029172,-1.082089 -1.777344,-1.082032 z"
     sodipodi:nodetypes="ccccccccccccccccccccccc"
     transform="translate(-0.00118072,-2.001222)" />
  <path
     style="fill:none;paint-order:stroke fill markers;stroke:#0900ff;stroke-opacity:1;stroke-width:0.2;stroke-dasharray:none;filter:url(#filter2)"
     d="m 15,22.000001 c -1.495373,0.0018 -2.460235,1.583723 -1.777344,2.914062 l 10.273438,20 c 0.718835,1.395488 2.691431,1.457203 3.496094,0.10938 3.682236,-6.17623 7.369045,-12.349729 11.051139,-18.526043 0.163768,-0.274703 0.555778,-0.497399 0.875592,-0.497399 h 5.95053 a 0.34966178,0.34966178 60.376416 0 1 0.300493,0.528456 l -7.652384,12.861056 a 0.34576635,0.34576635 1.4042681 0 1 -0.602597,-0.01477 L 34.652344,35.109377 33.1436,37.637873 a 3.0849197,3.0849197 91.452038 0 0 -0.07668,3.025229 l 2.265116,4.274399 c 0.73048,1.380626 2.690699,1.428919 3.48828,0.08594 l 11.898438,-20 C 51.512103,23.690114 50.551505,22.000334 49,22.000001 H 37.203124 c -0.704964,-5.6e-5 -1.357919,0.370941 -1.718748,0.976562 -3.255757,5.455952 -6.510213,10.912672 -9.763282,16.370226 -0.173886,0.291722 -0.440662,0.283332 -0.595867,-0.01874 l -6.56686,-12.781088 a 0.3753979,0.3753979 121.40306 0 1 0.333904,-0.546956 h 6.07553 a 0.95012625,0.95012625 31.361144 0 1 0.844468,0.51468 l 2.695543,5.227508 1.521712,-2.555096 a 3.131302,3.131302 91.768046 0 0 0.0937,-3.035516 l -1.580257,-3.069544 c -0.3435,-0.664657 -1.029172,-1.082089 -1.777344,-1.082032 z"
     id="path6-5"
     inkscape:path-effect="#path-effect7-7"
     inkscape:original-d="m 15,22.000001 c -1.495373,0.0018 -2.460235,1.583723 -1.777344,2.914062 l 10.273438,20 c 0.718835,1.395488 2.691431,1.457203 3.496094,0.10938 3.781082,-6.342025 7.566986,-12.681171 11.347656,-19.023442 h 7.144532 l -8.281252,13.917968 -2.55078,-4.808592 -2.398438,4.01953 3.078126,5.808594 c 0.73048,1.380626 2.690699,1.428919 3.48828,0.08594 l 11.898438,-20 C 51.512103,23.690114 50.551505,22.000334 49,22.000001 H 37.203124 c -0.704964,-5.6e-5 -1.357919,0.370941 -1.718748,0.976562 -3.360793,5.63197 -6.7202,11.264759 -10.078126,16.898438 l -7.128906,-13.875 h 7.269532 l 2.960936,5.742188 2.410156,-4.046876 -2.375,-4.61328 c -0.3435,-0.664657 -1.029172,-1.082089 -1.777344,-1.082032 z"
     sodipodi:nodetypes="ccccccccccccccccccccccc"
     transform="translate(-0.00118072,-2.001222)" />
</svg>
