<?xml version="1.0" encoding="UTF-8" standalone="no"?>
<svg
   width="64"
   height="64"
   version="1.1"
   id="svg4"
   sodipodi:docname="xbox.svg"
   inkscape:version="1.4 (e7c3feb100, 2024-10-09)"
   xmlns:inkscape="http://www.inkscape.org/namespaces/inkscape"
   xmlns:sodipodi="http://sodipodi.sourceforge.net/DTD/sodipodi-0.dtd"
   xmlns:xlink="http://www.w3.org/1999/xlink"
   xmlns="http://www.w3.org/2000/svg"
   xmlns:svg="http://www.w3.org/2000/svg">
  <defs
     id="defs4">
    <linearGradient
       id="linearGradient4"
       inkscape:collect="always">
      <stop
         style="stop-color:#56c756;stop-opacity:1;"
         offset="0"
         id="stop4" />
      <stop
         style="stop-color:#107c10;stop-opacity:1;"
         offset="1"
         id="stop5" />
    </linearGradient>
    <filter
       inkscape:collect="always"
       style="color-interpolation-filters:sRGB"
       id="filter4"
       x="-0.19849936"
       y="-0.19863496"
       width="1.3971558"
       height="1.3971718">
      <feGaussianBlur
         inkscape:collect="always"
         stdDeviation="3.2045537"
         id="feGaussianBlur4" />
    </filter>
    <radialGradient
       inkscape:collect="always"
       xlink:href="#linearGradient4"
       id="radialGradient5"
       cx="11.723465"
       cy="30.669369"
       fx="11.723465"
       fy="30.669369"
       r="28"
       gradientUnits="userSpaceOnUse"
       gradientTransform="matrix(0,3.8075703,-3.8075699,0,116.99457,-44.583214)" />
  </defs>
  <sodipodi:namedview
     id="namedview4"
     pagecolor="#505050"
     bordercolor="#eeeeee"
     borderopacity="1"
     inkscape:showpageshadow="0"
     inkscape:pageopacity="0"
     inkscape:pagecheckerboard="0"
     inkscape:deskcolor="#505050"
     inkscape:zoom="18.28125"
     inkscape:cx="40.232479"
     inkscape:cy="30.851282"
     inkscape:current-layer="svg4" />
  <circle
     style="fill:url(#radialGradient5)"
     cx="31.945299"
     cy="32.054703"
     r="28"
     id="circle2" />
  <path
     style="fill:#ffffff"
     d="M 30.00557,51.917846 C 26.92419,51.622798 23.804688,50.51694 21.124984,48.769408 18.879498,47.305776 18.372755,46.70313 18.372755,45.50202 c 0,-2.412904 2.654601,-6.639786 7.196707,-11.457228 2.57882,-2.736764 6.171596,-5.94282 6.559788,-5.856394 0.755934,0.16868 6.79503,6.05619 9.056322,8.828264 3.575108,4.38161 5.218078,7.970532 4.383112,9.570308 -0.634596,1.215974 -4.573256,3.593104 -7.466352,4.506132 -2.384956,0.752724 -5.517012,1.071472 -8.096762,0.824744 z M 15.339723,42.9934 c -1.866123,-2.861288 -2.808948,-5.67797 -3.263622,-9.751982 -0.150629,-1.34515 -0.09763,-2.114136 0.340774,-4.87599 0.545332,-3.438378 2.505829,-7.42039 4.86289,-9.869071 1.003263,-1.040807 1.092523,-1.068686 2.31615,-0.655152 1.483045,0.501817 3.068365,1.596523 5.527703,3.819387 l 1.436554,1.29822 -0.785688,0.961816 c -3.639266,4.465244 -7.480299,10.798364 -8.926149,14.715326 -0.785687,2.128076 -1.101821,4.265446 -0.762441,5.155242 0.227803,0.60125 0.0186,0.377292 -0.748496,-0.796402 z m 32.753851,0.486484 c 0.18458,-0.899554 -0.04882,-2.550904 -0.595076,-4.217126 -1.183182,-3.60797 -5.139044,-10.319774 -8.771336,-14.883524 l -1.143664,-1.436686 1.237576,-1.135128 c 1.615074,-1.482218 2.73642,-2.369692 3.947028,-3.123812 0.954448,-0.594746 2.318942,-1.12119 2.905648,-1.12119 0.36123,0 1.634602,1.32424 2.662038,2.76464 1.59183,2.2303 2.762458,4.939184 3.355674,7.754936 0.383544,1.821412 0.415624,5.71514 0.06184,7.531904 -0.292888,1.490584 -0.90656,3.42258 -1.501636,4.733344 -0.450956,0.981798 -1.562078,2.889168 -2.050224,3.509934 -0.25105,0.319212 -0.25105,0.318746 -0.11158,-0.369858 z M 30.335654,16.881248 c -1.676444,-0.850301 -4.262238,-1.76333 -5.690422,-2.009591 -0.500234,-0.08596 -1.354262,-0.134744 -1.896806,-0.106872 -1.178996,0.05947 -1.12646,-0.0019 0.763838,-0.894443 1.571372,-0.74204 2.882402,-1.178341 4.662982,-1.551917 2.00141,-0.420505 5.764804,-0.425151 7.7346,-0.01028 2.126934,0.448383 4.6323,1.379997 6.043746,2.248884 l 0.420274,0.257414 -0.962352,-0.04833 c -1.913542,-0.09658 -4.702034,0.676123 -7.696012,2.131393 -0.902842,0.439554 -1.6876,0.789897 -1.745246,0.780604 -0.05718,-0.01114 -0.79313,-0.369392 -1.636464,-0.796867 z"
     id="path3" />
  <path
     style="fill:none;stroke:#98ff00;stroke-opacity:1;stroke-width:0.50000002;stroke-dasharray:none;filter:url(#filter4)"
     d="M 30.00557,51.917846 C 26.92419,51.622798 23.804688,50.51694 21.124984,48.769408 18.879498,47.305776 18.372755,46.70313 18.372755,45.50202 c 0,-2.412904 2.654601,-6.639786 7.196707,-11.457228 2.57882,-2.736764 6.171596,-5.94282 6.559788,-5.856394 0.755934,0.16868 6.79503,6.05619 9.056322,8.828264 3.575108,4.38161 5.218078,7.970532 4.383112,9.570308 -0.634596,1.215974 -4.573256,3.593104 -7.466352,4.506132 -2.384956,0.752724 -5.517012,1.071472 -8.096762,0.824744 z M 15.339723,42.9934 c -1.866123,-2.861288 -2.808948,-5.67797 -3.263622,-9.751982 -0.150629,-1.34515 -0.09763,-2.114136 0.340774,-4.87599 0.545332,-3.438378 2.505829,-7.42039 4.86289,-9.869071 1.003263,-1.040807 1.092523,-1.068686 2.31615,-0.655152 1.483045,0.501817 3.068365,1.596523 5.527703,3.819387 l 1.436554,1.29822 -0.785688,0.961816 c -3.639266,4.465244 -7.480299,10.798364 -8.926149,14.715326 -0.785687,2.128076 -1.101821,4.265446 -0.762441,5.155242 0.227803,0.60125 0.0186,0.377292 -0.748496,-0.796402 z m 32.753851,0.486484 c 0.18458,-0.899554 -0.04882,-2.550904 -0.595076,-4.217126 -1.183182,-3.60797 -5.139044,-10.319774 -8.771336,-14.883524 l -1.143664,-1.436686 1.237576,-1.135128 c 1.615074,-1.482218 2.73642,-2.369692 3.947028,-3.123812 0.954448,-0.594746 2.318942,-1.12119 2.905648,-1.12119 0.36123,0 1.634602,1.32424 2.662038,2.76464 1.59183,2.2303 2.762458,4.939184 3.355674,7.754936 0.383544,1.821412 0.415624,5.71514 0.06184,7.531904 -0.292888,1.490584 -0.90656,3.42258 -1.501636,4.733344 -0.450956,0.981798 -1.562078,2.889168 -2.050224,3.509934 -0.25105,0.319212 -0.25105,0.318746 -0.11158,-0.369858 z M 30.335654,16.881248 c -1.676444,-0.850301 -4.262238,-1.76333 -5.690422,-2.009591 -0.500234,-0.08596 -1.354262,-0.134744 -1.896806,-0.106872 -1.178996,0.05947 -1.12646,-0.0019 0.763838,-0.894443 1.571372,-0.74204 2.882402,-1.178341 4.662982,-1.551917 2.00141,-0.420505 5.764804,-0.425151 7.7346,-0.01028 2.126934,0.448383 4.6323,1.379997 6.043746,2.248884 l 0.420274,0.257414 -0.962352,-0.04833 c -1.913542,-0.09658 -4.702034,0.676123 -7.696012,2.131393 -0.902842,0.439554 -1.6876,0.789897 -1.745246,0.780604 -0.05718,-0.01114 -0.79313,-0.369392 -1.636464,-0.796867 z"
     id="path3-3" />
</svg>
