<?xml version="1.0" encoding="UTF-8" standalone="no"?>
<svg
   width="64"
   height="64"
   version="1"
   id="svg5"
   sodipodi:docname="Xfwm4CompositeEditor.svg"
   inkscape:version="1.4 (e7c3feb100, 2024-10-09)"
   xmlns:inkscape="http://www.inkscape.org/namespaces/inkscape"
   xmlns:sodipodi="http://sodipodi.sourceforge.net/DTD/sodipodi-0.dtd"
   xmlns:xlink="http://www.w3.org/1999/xlink"
   xmlns="http://www.w3.org/2000/svg"
   xmlns:svg="http://www.w3.org/2000/svg">
  <defs
     id="defs5">
    <filter
       inkscape:collect="always"
       style="color-interpolation-filters:sRGB"
       id="filter6"
       x="-0.22060069"
       y="-0.22060069"
       width="1.4412014"
       height="1.4412014">
      <feGaussianBlur
         inkscape:collect="always"
         stdDeviation="1.4559333"
         id="feGaussianBlur6" />
    </filter>
    <filter
       inkscape:collect="always"
       style="color-interpolation-filters:sRGB"
       id="filter7"
       x="-0.11156048"
       y="-0.10303006"
       width="1.223121"
       height="1.2060601">
      <feGaussianBlur
         inkscape:collect="always"
         stdDeviation="2.2125405"
         id="feGaussianBlur7" />
    </filter>
    <filter
       inkscape:collect="always"
       style="color-interpolation-filters:sRGB"
       id="filter8"
       x="-0.13227165"
       y="-0.12059575"
       width="1.2645433"
       height="1.2411915">
      <feGaussianBlur
         inkscape:collect="always"
         stdDeviation="2.2125405"
         id="feGaussianBlur8" />
    </filter>
    <radialGradient
       inkscape:collect="always"
       xlink:href="#linearGradient17"
       id="radialGradient3-5"
       cx="56.666248"
       cy="41.04277"
       fx="56.666248"
       fy="41.04277"
       r="26.201006"
       gradientTransform="matrix(0.29010917,1.4178875,-1.6766772,0.34305926,71.133811,-70.705319)"
       gradientUnits="userSpaceOnUse" />
    <linearGradient
       id="linearGradient17"
       inkscape:collect="always">
      <stop
         style="stop-color:#51b196;stop-opacity:1;"
         offset="0"
         id="stop16" />
      <stop
         style="stop-color:#66ae83;stop-opacity:1;"
         offset="1"
         id="stop17" />
    </linearGradient>
    <radialGradient
       inkscape:collect="always"
       xlink:href="#linearGradient12"
       id="radialGradient7-3"
       cx="10.168851"
       cy="19.316441"
       fx="10.168851"
       fy="19.316441"
       r="25.7041"
       gradientTransform="matrix(0.30210108,1.3565133,-1.9343,0.43077656,47.395526,-2.1269029)"
       gradientUnits="userSpaceOnUse" />
    <linearGradient
       id="linearGradient12"
       inkscape:collect="always">
      <stop
         style="stop-color:#318569;stop-opacity:1;"
         offset="0"
         id="stop11" />
      <stop
         style="stop-color:#468e70;stop-opacity:1;"
         offset="1"
         id="stop12" />
    </linearGradient>
  </defs>
  <sodipodi:namedview
     id="namedview5"
     pagecolor="#505050"
     bordercolor="#eeeeee"
     borderopacity="1"
     inkscape:showpageshadow="0"
     inkscape:pageopacity="0"
     inkscape:pagecheckerboard="0"
     inkscape:deskcolor="#505050"
     inkscape:zoom="12.926796"
     inkscape:cx="23.981194"
     inkscape:cy="37.20953"
     inkscape:current-layer="svg5" />
  <g
     id="g1"
     transform="translate(3.2776588e-6,0.01654109)"
     style="stroke-width:0.2;stroke-dasharray:none">
    <path
       style="color:#000000;fill:url(#radialGradient7-3);stroke-width:0.2;stroke-dasharray:none"
       d="m 30.865697,7.6575681 c -2.697142,0 -4.868147,2.1710053 -4.868147,4.8681469 v 2.282103 a 18.256824,18.256824 0 0 0 -5.757895,3.326369 l -1.978163,-1.141052 c -2.335792,-1.348571 -5.302468,-0.5529 -6.651038,1.782893 l -1.217462,2.105512 c -1.3485706,2.335794 -0.5528999,5.302469 1.782894,6.65104 l 1.969672,1.137655 A 18.256824,18.256824 0 0 0 13.826334,32 a 18.256824,18.256824 0 0 0 0.319224,3.329765 l -1.969673,1.137655 c -2.3357929,1.348571 -3.1314636,4.315247 -1.782893,6.65104 l 1.217462,2.105512 c 1.34857,2.335793 4.315246,3.131464 6.651038,1.782893 l 1.964579,-1.13426 a 18.256824,18.256824 0 0 0 5.771479,3.314483 v 2.287198 c 0,2.697141 2.171005,4.868146 4.868147,4.868146 h 2.434923 c 2.697141,0 4.868146,-2.171005 4.868146,-4.868146 v -2.295687 a 18.256824,18.256824 0 0 0 5.757896,-3.312785 l 1.978162,1.141051 c 2.335793,1.348571 5.302469,0.5529 6.651039,-1.782893 l 1.217462,-2.105512 c 1.348571,-2.335793 0.552899,-5.302469 -1.782893,-6.65104 L 50.020759,35.329765 A 18.256824,18.256824 0 0 0 50.339982,32 18.256824,18.256824 0 0 0 50.020759,28.670235 l 1.969673,-1.137655 c 2.335793,-1.348571 3.131464,-4.315246 1.782893,-6.65104 l -1.217462,-2.105512 c -1.34857,-2.335794 -4.315247,-3.131464 -6.651039,-1.782893 l -1.964578,1.13426 a 18.256824,18.256824 0 0 0 -5.77148,-3.316181 v -2.285499 c 0,-2.6971416 -2.171005,-4.8681469 -4.868146,-4.8681469 z"
       id="path1" />
    <path
       style="color:#000000;fill:url(#radialGradient3-5);stroke-width:0.2;stroke-dasharray:none"
       d="m 30.866396,5.7456276 c -3.723486,0 -6.781785,3.0566021 -6.781786,6.7800874 v 1.06634 c -1.399466,0.609041 -2.714339,1.370612 -3.941042,2.278707 l -0.925407,-0.533171 -0.0017,-0.0017 C 15.991559,13.475423 11.815407,14.595955 9.9539481,17.820096 L 8.7364869,19.92391 v 0.0017 c -1.862074,3.225167 -0.7423208,7.400682 2.4824661,9.262513 l 0.91352,0.528076 c -0.08937,0.757897 -0.216108,1.513109 -0.219041,2.277009 V 32 32.0068 c 0.0029,0.7639 0.129673,1.519112 0.219041,2.277009 l -0.91352,0.528087 C 7.9941286,36.673709 6.8743745,40.849223 8.7364489,44.07443 v 0.0017 l 1.2174612,2.105471 c 1.8621589,3.223907 6.0394259,4.342622 9.2642509,2.480769 l 0.913521,-0.528076 c 1.230591,0.906748 2.549781,1.665547 3.952928,2.271914 v 1.068039 c 10e-7,3.723484 3.0583,6.780087 6.781786,6.780087 h 2.434922 c 3.723485,0 6.780087,-3.056603 6.780087,-6.780087 V 50.39602 c 1.397934,-0.605911 2.71307,-1.362597 3.939345,-2.266821 l 0.928802,0.534868 c 3.224561,1.860289 7.400767,0.740795 9.262553,-2.482466 v -0.0017 l 1.217462,-2.103773 v -0.0017 C 57.291641,40.84922 56.171886,36.673706 52.9471,34.811874 l -0.91352,-0.528035 c 0.08937,-0.757897 0.216109,-1.513109 0.219041,-2.277009 V 32 31.9932 c -0.003,-0.7639 -0.129672,-1.519111 -0.219041,-2.277009 l 0.91352,-0.528076 c 3.224787,-1.86183 4.344541,-6.037345 2.482467,-9.262553 v -0.0017 l -1.217462,-2.103814 v -0.0017 c -1.862158,-3.223837 -6.039426,-4.342553 -9.264251,-2.480699 l -0.91352,0.528076 c -1.230609,-0.907208 -2.549635,-1.666861 -3.952929,-2.273612 v -1.06634 c 0,-3.7234853 -3.056602,-6.7800874 -6.780087,-6.7800874 z m 0,3.8238809 h 2.434922 c 1.670792,0 2.954508,1.2854135 2.954508,2.9562065 v 3.640497 l 1.27859,0.449969 c 1.889668,0.664613 3.641175,1.670233 5.166993,2.968092 l 1.027286,0.874466 3.132797,-1.81006 c 1.446373,-0.835064 3.202521,-0.363476 4.037828,1.08332 v 0.0017 l 1.217462,2.105512 c 0.833901,1.446096 0.362986,3.202802 -1.08332,4.037828 l -3.144683,1.815155 0.253,1.334622 c 0.185859,0.980586 0.281019,1.975162 0.285263,2.973187 -0.0043,0.998025 -0.0994,1.992601 -0.285263,2.973186 l -0.253,1.334623 3.144683,1.815155 c 1.446305,0.835024 1.91722,2.591733 1.08332,4.037828 l -1.217462,2.105511 v 0.0017 c -0.835307,1.446794 -2.591453,1.918385 -4.037828,1.08332 v -0.0017 l -3.14808,-1.815155 -1.025587,0.874466 c -1.522418,1.295495 -3.269959,2.301357 -5.155108,2.966395 L 36.255826,47.8253 v 3.648988 c 0,1.670793 -1.283716,2.956206 -2.954508,2.956206 h -2.434922 c -1.670793,0 -2.956207,-1.285413 -2.956207,-2.956206 V 47.832089 L 26.6316,47.382121 c -1.889556,-0.664154 -3.641055,-1.669075 -5.166993,-2.966394 l -1.027286,-0.874466 -3.132798,1.81006 c -1.446374,0.835065 -3.202521,0.363475 -4.037828,-1.083319 v -0.0017 L 12.049234,42.16249 v -0.0017 c -0.833901,-1.446053 -0.362987,-3.202762 1.083319,-4.037787 l 3.144684,-1.815155 -0.253001,-1.334623 C 15.838377,33.992601 15.743218,32.998025 15.738973,32 c 0.0043,-0.998025 0.0994,-1.992601 0.285263,-2.973186 l 0.253001,-1.334623 -3.144684,-1.815155 c -1.446307,-0.835025 -1.91722,-2.591732 -1.083319,-4.037828 v -0.0017 l 1.217461,-2.103813 v -0.0017 c 0.835307,-1.446794 2.591454,-1.918385 4.037828,-1.08332 l 0.0017,0.0017 3.148078,1.815155 1.027287,-0.877863 c 1.521455,-1.299823 3.269055,-2.30787 5.155107,-2.976582 l 1.273495,-0.451666 v -3.633665 c 0,-1.670793 1.285414,-2.9562064 2.956207,-2.9562065 z"
       id="path2-3" />
    <path
       style="opacity:1;fill:#ffffff;stroke-width:0.2;stroke-dasharray:none"
       d="m 32.011049,23.854756 c 4.498968,0 8.146122,3.647155 8.146122,8.146122 0,4.498967 -3.647154,8.146122 -8.146122,8.146122 -4.498967,0 -8.146122,-3.647155 -8.146122,-8.146122 0,-4.498967 3.647155,-8.146122 8.146122,-8.146122 z"
       id="path5-6" />
    <path
       d="m 30.783203,9.5527344 c -1.670788,10e-8 -2.955078,1.2862436 -2.955078,2.9570316 v 3.632812 l -1.275391,0.451172 c -1.886046,0.66871 -3.632846,1.676743 -5.154297,2.976562 l -1.027343,0.878907 -3.148438,-1.814453 -0.002,-0.002 c -1.44637,-0.835062 -3.201805,-0.364758 -4.037109,1.082032 v 0.002 l -1.216797,2.103515 v 0.002 c -0.833899,1.446091 -0.364272,3.20404 1.082031,4.039062 l 3.144531,1.814453 -0.251953,1.333985 c -0.185862,0.980582 -0.280856,1.976587 -0.285156,2.974609 0.0042,0.998022 0.0993,1.992035 0.285156,2.972656 l 0.251953,1.333985 -3.144531,1.816406 c -1.446302,0.835022 -1.91593,2.591061 -1.082031,4.037109 v 0.002 L 13.183594,44.25 v 0.002 c 0.835304,1.44679 2.590739,1.917094 4.037109,1.082031 l 3.132813,-1.808593 1.027343,0.873046 c 1.525934,1.297316 3.278419,2.302645 5.167969,2.966797 l 1.279297,0.451172 v 3.640625 c 0,1.670788 1.28429,2.957031 2.955078,2.957031 h 2.435547 c 1.670787,10e-7 2.953125,-1.286243 2.953125,-2.957031 v -3.648437 l 1.277344,-0.449219 c 1.885143,-0.665036 3.633836,-1.671306 5.15625,-2.966797 l 1.02539,-0.875 3.148438,1.816406 c 1.446371,0.835063 3.201805,0.364759 4.037109,-1.082031 V 44.25 l 1.216797,-2.105469 c 0.833898,-1.44609 0.36427,-3.202088 -1.082031,-4.037109 l -3.144531,-1.816406 0.251953,-1.333985 c 0.185862,-0.980582 0.280856,-1.974634 0.285156,-2.972656 -0.0042,-0.998022 -0.0993,-1.994026 -0.285156,-2.974609 l -0.251953,-1.333985 3.144531,-1.814453 c 1.446302,-0.835023 1.91593,-2.592971 1.082031,-4.039062 l -1.216797,-2.105469 v -0.002 c -0.835304,-1.446792 -2.59074,-1.917093 -4.037109,-1.082032 l -3.132813,1.808594 -1.027343,-0.873047 c -1.525814,-1.297855 -3.278307,-2.304139 -5.167969,-2.96875 l -1.279297,-0.449218 v -3.640625 c 0,-1.670788 -1.282338,-2.9570316 -2.953125,-2.9570316 z M 32,23.853516 c 4.498955,0 8.146484,3.64753 8.146484,8.146484 0,4.498954 -3.647529,8.146484 -8.146484,8.146484 -4.498954,0 -8.146484,-3.64753 -8.146484,-8.146484 0,-4.498954 3.64753,-8.146484 8.146484,-8.146484 z"
       style="fill:none;stroke:#000000;stroke-width:0.2;stroke-dasharray:none;filter:url(#filter8)"
       id="path6" />
    <path
       d="m 30.783203,5.7285156 c -3.723478,0 -6.781249,3.0577723 -6.78125,6.7812504 v 1.066406 c -1.399463,0.60904 -2.714706,1.36925 -3.941406,2.277344 l -0.925781,-0.533203 h -0.002 C 15.907917,13.459848 11.732549,14.5786 9.8710938,17.802734 l -1.2167969,2.105469 v 0.002 c -1.8620703,3.225161 -0.7423591,7.399892 2.4824221,9.261719 l 0.912109,0.527344 c -0.08937,0.757895 -0.215817,1.513445 -0.21875,2.277343 v 0.0078 0.0059 c 0.0029,0.763899 0.129382,1.519449 0.21875,2.277344 l -0.912109,0.527344 c -3.2248182,1.861809 -4.3444934,6.038471 -2.4824221,9.263672 v 0.002 l 1.2167969,2.105469 c 1.8621552,3.2239 6.0388532,4.342318 9.2636722,2.480468 l 0.914062,-0.529297 c 1.230589,0.906747 2.549981,1.667072 3.953125,2.273438 v 1.066406 c 1e-6,3.723477 3.057772,6.78125 6.78125,6.78125 h 2.435547 c 3.723478,0 6.779297,-3.057773 6.779297,-6.78125 v -1.078125 c 1.397931,-0.60591 2.71318,-1.361403 3.939453,-2.265625 l 0.929687,0.535156 c 3.224555,1.860286 7.399937,0.740833 9.261719,-2.482421 v -0.002 l 1.216797,-2.103515 v -0.002 c 1.86207,-3.225202 0.742358,-7.401844 -2.482422,-9.263672 l -0.912109,-0.527344 c 0.08937,-0.757895 0.215818,-1.513445 0.21875,-2.277344 v -0.0059 -0.0078 c -0.003,-0.763898 -0.129381,-1.519447 -0.21875,-2.277343 l 0.912109,-0.527344 c 3.224781,-1.861826 4.344492,-6.03847 2.482422,-9.263672 l -1.216797,-2.105469 c -1.862154,-3.22383 -6.038853,-4.344272 -9.263672,-2.482421 l -0.914062,0.529296 c -1.230607,-0.907206 -2.549834,-1.666687 -3.953125,-2.273437 v -1.066406 c 0,-3.7234781 -3.055819,-6.7812504 -6.779297,-6.7812504 z m 0,3.8242188 h 2.435547 c 1.670789,0 2.953125,1.2862416 2.953125,2.9570316 v 3.640625 l 1.279297,0.449218 c 1.889664,0.664612 3.642154,1.670894 5.167969,2.96875 l 1.027343,0.873047 3.132813,-1.808594 c 1.44637,-0.835062 3.201804,-0.364761 4.037109,1.082032 v 0.002 l 1.216797,2.105469 c 0.833899,1.446093 0.364272,3.204038 -1.082031,4.039062 l -3.144531,1.814453 0.251953,1.333985 c 0.185858,0.980584 0.280912,1.976586 0.285156,2.974609 -0.0043,0.998023 -0.09929,1.992073 -0.285156,2.972656 l -0.251953,1.333985 3.144531,1.816406 c 1.446302,0.835022 1.915929,2.591017 1.082031,4.037109 L 50.816406,44.25 v 0.002 c -0.835305,1.446791 -2.590737,1.917095 -4.037109,1.082031 l -3.148438,-1.816406 -1.02539,0.875 c -1.522415,1.295493 -3.271105,2.30176 -5.15625,2.966797 l -1.277344,0.449219 v 3.648437 c 0,1.67079 -1.282336,2.957032 -2.953125,2.957031 h -2.435547 c -1.67079,0 -2.955078,-1.286241 -2.955078,-2.957031 v -3.640625 l -1.279297,-0.451172 c -1.889552,-0.664152 -3.642034,-1.66948 -5.167969,-2.966797 l -1.027343,-0.873046 -3.132813,1.808593 C 15.774332,46.169095 14.018899,45.698791 13.183594,44.252 V 44.25 l -1.216797,-2.103516 v -0.002 c -0.833899,-1.44605 -0.364272,-3.202086 1.082031,-4.037109 l 3.144531,-1.816406 -0.251953,-1.333985 c -0.185858,-0.980622 -0.280911,-1.974633 -0.285156,-2.972656 0.0043,-0.998023 0.09929,-1.994026 0.285156,-2.974609 l 0.251953,-1.333985 -3.144531,-1.814453 c -1.446304,-0.835023 -1.91593,-2.592969 -1.082031,-4.039062 v -0.002 l 1.216797,-2.103515 v -0.002 c 0.835305,-1.446791 2.590738,-1.917095 4.037109,-1.082032 l 0.002,0.002 3.148438,1.814453 1.027343,-0.878907 c 1.521452,-1.29982 3.268249,-2.307851 5.154297,-2.976562 l 1.275391,-0.451172 v -3.632812 c 0,-1.67079 1.284288,-2.9570315 2.955078,-2.9570316 z"
       style="fill:none;stroke:#000000;stroke-width:0.2;stroke-dasharray:none;filter:url(#filter7)"
       id="path4-7" />
    <path
       d="m 32,23.853516 c -4.498963,0 -8.146484,3.647521 -8.146484,8.146484 0,4.498963 3.647521,8.146484 8.146484,8.146484 4.498964,0 8.146484,-3.647521 8.146484,-8.146484 0,-4.498963 -3.64752,-8.146484 -8.146484,-8.146484 z"
       style="fill:none;stroke:#000000;stroke-width:0.2;stroke-dasharray:none;filter:url(#filter6)"
       id="path3-5" />
  </g>
</svg>
