<?xml version="1.0" encoding="UTF-8" standalone="no"?>
<svg
   width="64"
   height="64"
   version="1.1"
   id="svg5"
   sodipodi:docname="yad.svg"
   inkscape:version="1.4 (e7c3feb100, 2024-10-09)"
   xmlns:inkscape="http://www.inkscape.org/namespaces/inkscape"
   xmlns:sodipodi="http://sodipodi.sourceforge.net/DTD/sodipodi-0.dtd"
   xmlns:xlink="http://www.w3.org/1999/xlink"
   xmlns="http://www.w3.org/2000/svg"
   xmlns:svg="http://www.w3.org/2000/svg">
  <defs
     id="defs5">
    <inkscape:path-effect
       effect="fillet_chamfer"
       id="path-effect2"
       is_visible="true"
       lpeversion="1"
       nodesatellites_param="F,0,0,1,0,0,0,1 @ F,0,1,1,0,5.5049421,0,1 @ F,0,0,1,0,0,0,1 @ F,0,0,1,0,0,0,1 @ F,0,0,1,0,0,0,1 @ F,0,0,1,0,5.5049421,0,1 @ F,0,0,1,0,0,0,1"
       radius="0"
       unit="px"
       method="auto"
       mode="F"
       chamfer_steps="1"
       flexible="false"
       use_knot_distance="true"
       apply_no_radius="true"
       apply_with_radius="true"
       only_selected="false"
       hide_knots="false" />
    <inkscape:path-effect
       effect="fillet_chamfer"
       id="path-effect1"
       is_visible="true"
       lpeversion="1"
       nodesatellites_param="F,0,0,1,0,0,0,1 @ F,0,1,1,0,3.9895067,0,1 @ F,0,0,1,0,5.4470715,0,1 @ F,0,0,1,0,0,0,1 @ F,0,0,1,0,0,0,1 @ F,0,0,1,0,0,0,1 @ F,0,0,1,0,5.4470715,0,1 @ F,0,0,1,0,3.9895067,0,1 @ F,0,0,1,0,0,0,1"
       radius="0"
       unit="px"
       method="auto"
       mode="F"
       chamfer_steps="1"
       flexible="false"
       use_knot_distance="true"
       apply_no_radius="true"
       apply_with_radius="true"
       only_selected="false"
       hide_knots="false" />
    <linearGradient
       id="linearGradient11"
       inkscape:collect="always">
      <stop
         style="stop-color:#53e18c;stop-opacity:1;"
         offset="0"
         id="stop10" />
      <stop
         style="stop-color:#003a14;stop-opacity:1;"
         offset="1"
         id="stop11" />
    </linearGradient>
    <linearGradient
       id="linearGradient7"
       inkscape:collect="always">
      <stop
         style="stop-color:#316a9d;stop-opacity:1;"
         offset="0"
         id="stop8" />
      <stop
         style="stop-color:#2e9e7d;stop-opacity:1;"
         offset="1"
         id="stop9" />
    </linearGradient>
    <linearGradient
       id="linearGradient6"
       inkscape:collect="always">
      <stop
         style="stop-color:#dedede;stop-opacity:1;"
         offset="0"
         id="stop6" />
      <stop
         style="stop-color:#ffffff;stop-opacity:0.61702126;"
         offset="1"
         id="stop7" />
    </linearGradient>
    <filter
       inkscape:collect="always"
       style="color-interpolation-filters:sRGB"
       id="filter5"
       x="-0.12627684"
       y="-0.67347647"
       width="1.2525537"
       height="2.3469529">
      <feGaussianBlur
         inkscape:collect="always"
         stdDeviation="0.80017894"
         id="feGaussianBlur5" />
    </filter>
    <radialGradient
       inkscape:collect="always"
       xlink:href="#linearGradient6"
       id="radialGradient7"
       cx="33.504536"
       cy="41.863609"
       fx="33.504536"
       fy="41.863609"
       r="20"
       gradientTransform="matrix(8.6408116,0,0,8.5210899,-231.1716,-254.19824)"
       gradientUnits="userSpaceOnUse" />
    <radialGradient
       inkscape:collect="always"
       xlink:href="#linearGradient7"
       id="radialGradient9"
       cx="30.46813"
       cy="44.690865"
       fx="30.46813"
       fy="44.690865"
       r="14"
       gradientTransform="matrix(6.2921287,-1.6859708,1.2042647,4.494377,-222.33576,-99.029917)"
       gradientUnits="userSpaceOnUse" />
    <filter
       inkscape:collect="always"
       style="color-interpolation-filters:sRGB"
       id="filter9"
       x="-0.10590204"
       y="-0.078445954"
       width="1.2118041"
       height="1.1568919">
      <feGaussianBlur
         inkscape:collect="always"
         stdDeviation="1.7233673"
         id="feGaussianBlur9" />
    </filter>
    <radialGradient
       inkscape:collect="always"
       xlink:href="#linearGradient11"
       id="radialGradient9-9"
       cx="30.46813"
       cy="44.690865"
       fx="30.46813"
       fy="44.690865"
       r="14"
       gradientTransform="matrix(5.2923761,-1.4180879,1.0129198,3.7802681,-181.9245,-76.952985)"
       gradientUnits="userSpaceOnUse" />
    <filter
       inkscape:collect="always"
       style="color-interpolation-filters:sRGB"
       id="filter11"
       x="-0.46751739"
       y="-0.65452435"
       width="1.9350348"
       height="2.3090487">
      <feGaussianBlur
         inkscape:collect="always"
         stdDeviation="5.4543697"
         id="feGaussianBlur11" />
    </filter>
  </defs>
  <sodipodi:namedview
     id="namedview5"
     pagecolor="#3d3d3d"
     bordercolor="#eeeeee"
     borderopacity="1"
     inkscape:showpageshadow="0"
     inkscape:pageopacity="0"
     inkscape:pagecheckerboard="0"
     inkscape:deskcolor="#505050"
     inkscape:zoom="9.1640622"
     inkscape:cx="-6.329071"
     inkscape:cy="24.388748"
     inkscape:current-layer="svg5" />
  <path
     id="rect1-7"
     style="opacity:1;fill:url(#radialGradient7);fill-opacity:1"
     d="m 25,5.6944474 0.03434,0.1376549 A 32.474223,32.474223 82.996222 0 1 26,13.692483 v 1.50216 c 0,3.008334 -2.398203,6.126827 -4.911641,7.762932 C 15.526816,26.577824 12.008954,32.821462 12,39.694448 c 0,11.045695 8.954305,20 20,20 11.045695,0 20,-8.954305 20,-20 C 51.998424,32.813573 48.479327,26.560335 42.91164,22.936086 40.398204,21.299981 38,18.181492 38,15.173157 V 13.673193 A 35.811322,35.811322 96.35674 0 1 38.877993,5.791991 L 38.9,5.6944474 Z"
     inkscape:path-effect="#path-effect1"
     inkscape:original-d="m 25,5.6944474 1,4.0085289 V 20.641714 c -8.322877,2.617416 -13.988634,10.327998 -14,19.052734 0,11.045695 8.954305,20 20,20 11.045695,0 20,-8.954305 20,-20 C 51.998,30.96178 46.330434,23.240029 38,20.620229 V 9.6836861 l 0.9,-3.9892387 z"
     sodipodi:nodetypes="ccccsccccc" />
  <path
     id="rect1-7-2"
     style="fill:none;fill-opacity:1;stroke:#000000;stroke-width:0.2;stroke-dasharray:none;stroke-opacity:1;filter:url(#filter9)"
     d="m 26,5.6944472 v 9.4423248 c 0,3.040295 -2.424934,6.1917 -4.960095,7.852444 C 15.506391,26.614133 12.008928,32.841444 12,39.694448 c 0,11.045695 8.954305,20 20,20 11.045695,0 20,-8.954305 20,-20 C 51.998434,32.833555 48.499738,26.59666 42.960095,22.967727 40.424934,21.306984 38,18.155582 38,15.115287 V 5.6944472 Z"
     inkscape:path-effect="#path-effect2"
     inkscape:original-d="M 26,5.6944472 V 20.641714 a 20,20 0 0 0 -14,19.052734 20,20 0 0 0 20,20 20,20 0 0 0 20,-20 A 20,20 0 0 0 38,20.620229 V 5.6944472 Z" />
  <path
     style="opacity:0.640338;mix-blend-mode:normal;fill:url(#radialGradient9-9);filter:url(#filter11)"
     d="M 19.371094,34 A 14,14 0 0 0 18,40 14,14 0 0 0 32,54 14,14 0 0 0 46,40 14,14 0 0 0 44.632812,34 Z"
     id="path4-7"
     transform="matrix(0.82022598,0,0,0.82022598,5.7527687,8.6816654)" />
  <path
     style="opacity:0.685472;fill:url(#radialGradient9);stroke-width:1.1889"
     d="M 16.985439,32.882565 A 16.64466,16.64466 0 0 0 15.35534,40.015991 16.64466,16.64466 0 0 0 32,56.660651 16.64466,16.64466 0 0 0 48.64466,40.015991 16.64466,16.64466 0 0 0 47.019205,32.882565 Z"
     id="path4" />
  <rect
     style="fill:none;stroke:#000000;stroke-opacity:1;stroke-width:0.19999991;stroke-dasharray:none;filter:url(#filter5)"
     width="16"
     height="3"
     x="24"
     y="4"
     rx="1.3329999"
     ry="1.5"
     id="rect5-3" />
  <rect
     style="fill:#e4e4e4"
     width="16"
     height="3"
     x="24"
     y="4"
     rx="1.333"
     ry="1.5"
     id="rect5" />
</svg>
