<?xml version="1.0" encoding="UTF-8" standalone="no"?>
<svg
   width="64"
   height="64"
   version="1.1"
   id="svg11"
   sodipodi:docname="yakuake.svg"
   inkscape:version="1.4 (e7c3feb100, 2024-10-09)"
   xmlns:inkscape="http://www.inkscape.org/namespaces/inkscape"
   xmlns:sodipodi="http://sodipodi.sourceforge.net/DTD/sodipodi-0.dtd"
   xmlns:xlink="http://www.w3.org/1999/xlink"
   xmlns="http://www.w3.org/2000/svg"
   xmlns:svg="http://www.w3.org/2000/svg">
  <defs
     id="defs11">
    <linearGradient
       id="linearGradient12"
       inkscape:collect="always">
      <stop
         style="stop-color:#48a2ff;stop-opacity:1;"
         offset="0"
         id="stop11" />
      <stop
         style="stop-color:#40c7ff;stop-opacity:1;"
         offset="1"
         id="stop12" />
    </linearGradient>
    <linearGradient
       id="linearGradient14"
       inkscape:collect="always">
      <stop
         style="stop-color:#717171;stop-opacity:1;"
         offset="0"
         id="stop14" />
      <stop
         style="stop-color:#555555;stop-opacity:1;"
         offset="1"
         id="stop15" />
    </linearGradient>
    <filter
       inkscape:collect="always"
       style="color-interpolation-filters:sRGB"
       id="filter2-5"
       x="-0.11034889"
       y="-0.12359076"
       width="1.2206978"
       height="1.2471815">
      <feGaussianBlur
         inkscape:collect="always"
         stdDeviation="2.5300138"
         id="feGaussianBlur2-3" />
    </filter>
    <radialGradient
       inkscape:collect="always"
       xlink:href="#linearGradient14"
       id="radialGradient15-9"
       cx="5.8015566"
       cy="34.666862"
       fx="5.8015566"
       fy="34.666862"
       r="28"
       gradientTransform="matrix(1.9330047,1.0600342,-1.1366554,2.072726,35.774441,-43.810931)"
       gradientUnits="userSpaceOnUse" />
    <radialGradient
       inkscape:collect="always"
       xlink:href="#linearGradient12"
       id="radialGradient2-5-6"
       cx="16.809387"
       cy="29.579248"
       fx="16.809387"
       fy="29.579248"
       r="15.380996"
       gradientTransform="matrix(1.0961984,0.35149832,-0.37391685,1.1661139,15.80542,-17.025995)"
       gradientUnits="userSpaceOnUse" />
    <filter
       inkscape:collect="always"
       style="color-interpolation-filters:sRGB"
       id="filter1"
       x="-0.17376739"
       y="-0.26079555"
       width="1.3475986"
       height="1.5215985">
      <feGaussianBlur
         inkscape:collect="always"
         stdDeviation="2.3505015"
         id="feGaussianBlur1" />
    </filter>
    <filter
       inkscape:collect="always"
       style="color-interpolation-filters:sRGB"
       id="filter2"
       x="-0.48158834"
       y="-0.4643956"
       width="1.9601544"
       height="1.9338959">
      <feGaussianBlur
         inkscape:collect="always"
         stdDeviation="2.1864138"
         id="feGaussianBlur2" />
    </filter>
    <radialGradient
       inkscape:collect="always"
       xlink:href="#linearGradient1-6"
       id="radialGradient2-5-3"
       cx="26.805237"
       cy="24.519232"
       fx="26.805237"
       fy="24.519232"
       r="15.380996"
       gradientTransform="matrix(1,0,0,0.66654198,0,8.176134)"
       gradientUnits="userSpaceOnUse" />
    <linearGradient
       id="linearGradient1-6"
       inkscape:collect="always">
      <stop
         style="stop-color:#00e7ff;stop-opacity:1;"
         offset="0"
         id="stop1-7" />
      <stop
         style="stop-color:#41bcff;stop-opacity:1;"
         offset="1"
         id="stop2-5" />
    </linearGradient>
  </defs>
  <sodipodi:namedview
     id="namedview11"
     pagecolor="#505050"
     bordercolor="#eeeeee"
     borderopacity="1"
     inkscape:showpageshadow="0"
     inkscape:pageopacity="0"
     inkscape:pagecheckerboard="0"
     inkscape:deskcolor="#505050"
     inkscape:zoom="12.926796"
     inkscape:cx="22.666096"
     inkscape:cy="26.766107"
     inkscape:current-layer="svg11" />
  <rect
     style="fill:url(#radialGradient15-9);stroke-width:0.93019"
     width="52.09066"
     height="46.509518"
     x="5.9088101"
     y="8.7241611"
     rx="10.057882"
     ry="9.5330811"
     id="rect2" />
  <path
     id="rect4-0-2"
     style="mix-blend-mode:normal;fill:url(#radialGradient2-5-6);fill-opacity:1;stroke-width:0.93019"
     d="m 32.728999,17.627375 c 0.01648,-0.33971 -0.09101,-0.6857 -0.326382,-0.95804 l -1.699811,-1.966894 c -0.47074,-0.544674 -1.267967,-0.583369 -1.789238,-0.08684 -2.44869,2.313614 -7.356704,6.927841 -7.356704,6.927841 l 3.184418,4.234255 0.115309,-0.127181 7.454787,-7.101214 c 0.260635,-0.248265 0.401133,-0.582221 0.417621,-0.921931 z"
     sodipodi:nodetypes="scccccccss" />
  <path
     id="rect4-0-2-7"
     style="mix-blend-mode:normal;fill:none;fill-opacity:1;stroke:#0044ff;stroke-width:0.2;stroke-opacity:1;stroke-dasharray:none;filter:url(#filter2);opacity:1"
     d="m 32.80753,17.490735 c 0.01648,-0.33971 -0.09101,-0.6857 -0.326382,-0.95804 l -1.699811,-1.966894 c -0.47074,-0.544674 -1.267967,-0.583369 -1.789238,-0.08684 -2.44869,2.313614 -7.356704,6.927841 -7.356704,6.927841 l 3.184418,4.234255 0.115309,-0.127181 7.454787,-7.101214 c 0.260635,-0.248265 0.401133,-0.582221 0.417621,-0.921931 z"
     sodipodi:nodetypes="scccccccss" />
  <rect
     style="fill:none;stroke:#000000;stroke-width:0.21500976;stroke-dasharray:none;stroke-opacity:1;filter:url(#filter2-5)"
     width="56"
     height="50"
     x="4.049305"
     y="7.0226612"
     rx="10.812714"
     ry="10.248527"
     id="rect2-5-9"
     transform="matrix(0.93019037,0,0,0.93019037,2.188047,2.21283)" />
  <path
     id="rect4-3-3"
     style="opacity:1;fill:none;stroke:#0044ff;stroke-width:0.21500976;stroke-dasharray:none;stroke-opacity:1;filter:url(#filter1)"
     d="m 13.434071,12.981645 c -0.365634,10e-7 -0.731552,0.133463 -1.011719,0.400391 l -2.023438,1.927734 c -0.5603331,0.533857 -0.5603331,1.391925 0,1.925782 l 6.470703,6.166015 a 0.8751293,0.8751293 0 0 1 0,1.265625 l -6.404296,6.101563 c -0.5603351,0.533856 -0.5603351,1.393879 0,1.927734 l 2.023437,1.927734 c 0.560335,0.533857 1.463103,0.533857 2.023438,0 l 10.113281,-9.636718 c 0.560333,-0.533857 0.560333,-1.393878 0,-1.927735 l -2.023438,-1.925781 c -0.04508,-0.04295 -0.09342,-0.08115 -0.142578,-0.117187 l -8.013672,-7.634766 c -0.280166,-0.266928 -0.646085,-0.40039 -1.011718,-0.400391 z m 14.033203,16.041016 c -0.785017,0 -1.417969,0.669001 -1.417969,1.5 v 3 c 0,0.830999 0.632952,1.5 1.417969,1.5 h 14.164062 c 0.785017,0 1.417969,-0.669001 1.417969,-1.5 v -3 c 0,-0.830999 -0.632952,-1.5 -1.417969,-1.5 z"
     transform="matrix(0.93019037,0,0,0.93019037,2.188047,2.21283)" />
  <path
     id="rect4-0-3"
     style="fill:url(#radialGradient2-5-3);fill-opacity:1;stroke-width:0.93019"
     d="m 14.638427,14.267152 c -0.340109,1e-6 -0.680483,0.124146 -0.941092,0.37244 l -1.882182,1.79316 c -0.521217,0.496588 -0.521217,1.294755 0,1.791343 l 6.018986,5.735568 a 0.81403684,0.81403684 0 0 1 0,1.177272 l -5.957215,5.675616 c -0.521218,0.496587 -0.521218,1.296572 0,1.793159 l 1.882182,1.79316 c 0.521218,0.496588 1.360964,0.496588 1.882182,0 l 9.407277,-8.963983 c 0.521216,-0.496588 0.521216,-1.296571 0,-1.79316 l -1.882183,-1.791343 c -0.04193,-0.03995 -0.0869,-0.07549 -0.132624,-0.109006 l -7.454241,-7.101786 c -0.260608,-0.248294 -0.600982,-0.372439 -0.94109,-0.37244 z m 13.05355,14.921199 c -0.730215,0 -1.318981,0.622298 -1.318981,1.395285 v 2.790571 c 0,0.772988 0.588766,1.395286 1.318981,1.395286 h 13.175274 c 0.730215,0 1.318981,-0.622298 1.318981,-1.395286 v -2.790571 c 0,-0.772987 -0.588766,-1.395285 -1.318981,-1.395285 z" />
</svg>
