<?xml version="1.0" encoding="UTF-8" standalone="no"?>
<svg
   width="64"
   height="64"
   version="1"
   id="svg4"
   sodipodi:docname="yandex-browser-beta.svg"
   inkscape:version="1.4 (e7c3feb100, 2024-10-09)"
   xmlns:inkscape="http://www.inkscape.org/namespaces/inkscape"
   xmlns:sodipodi="http://sodipodi.sourceforge.net/DTD/sodipodi-0.dtd"
   xmlns:xlink="http://www.w3.org/1999/xlink"
   xmlns="http://www.w3.org/2000/svg"
   xmlns:svg="http://www.w3.org/2000/svg">
  <defs
     id="defs4">
    <linearGradient
       id="linearGradient6"
       inkscape:collect="always">
      <stop
         style="stop-color:#e9e9e9;stop-opacity:1;"
         offset="0"
         id="stop6" />
      <stop
         style="stop-color:#a2a0a0;stop-opacity:1;"
         offset="1"
         id="stop7" />
    </linearGradient>
    <filter
       inkscape:collect="always"
       style="color-interpolation-filters:sRGB"
       id="filter5"
       x="-0.096116613"
       y="-0.096127855"
       width="1.1922332"
       height="1.1922595">
      <feGaussianBlur
         inkscape:collect="always"
         stdDeviation="1.6632786"
         id="feGaussianBlur5" />
    </filter>
    <radialGradient
       inkscape:collect="always"
       xlink:href="#linearGradient6"
       id="radialGradient7"
       cx="7.5584283"
       cy="53.431042"
       fx="7.5584283"
       fy="53.431042"
       r="21.576511"
       gradientUnits="userSpaceOnUse"
       gradientTransform="matrix(6.2062436,-1.6629579,1.6629579,6.2062436,-125.83996,-264.379)" />
    <filter
       inkscape:collect="always"
       style="color-interpolation-filters:sRGB"
       id="filter7"
       x="-0.15924519"
       y="-0.15924519"
       width="1.3184904"
       height="1.3184904">
      <feGaussianBlur
         inkscape:collect="always"
         stdDeviation="2.8083591"
         id="feGaussianBlur7" />
    </filter>
  </defs>
  <sodipodi:namedview
     id="namedview4"
     pagecolor="#505050"
     bordercolor="#eeeeee"
     borderopacity="1"
     inkscape:showpageshadow="0"
     inkscape:pageopacity="0"
     inkscape:pagecheckerboard="0"
     inkscape:deskcolor="#505050"
     inkscape:zoom="13.169864"
     inkscape:cx="51.06355"
     inkscape:cy="32.574369"
     inkscape:current-layer="svg4" />
  <g
     id="g7"
     transform="matrix(1.1287121,0,0,1.1287121,-4.1187861,-4.1187861)">
    <path
       style="fill:none;stroke:#000000;stroke-width:0.2;stroke-linecap:round;stroke-linejoin:round;stroke-dasharray:none;stroke-opacity:1;filter:url(#filter5)"
       d="m 14.492188,11.051894 a 4.0929999,4.0929999 0 0 0 -2.792969,1.419922 4.0929999,4.0929999 0 0 0 0.451172,5.771484 L 27.90625,31.717909 V 49.510878 A 4.0929999,4.0929999 0 0 0 32,53.604628 4.0929999,4.0929999 0 0 0 36.09375,49.510878 V 31.717909 L 51.849609,18.2433 a 4.0929999,4.0929999 0 0 0 0.451172,-5.771484 4.0929999,4.0929999 0 0 0 -5.771484,-0.449219 L 32,24.448378 17.470703,12.022597 a 4.0929999,4.0929999 0 0 0 -2.978515,-0.970703 z"
       id="path4-6" />
    <path
       id="path6"
       style="opacity:1;fill:url(#radialGradient7);stroke:#000000;stroke-width:0.2;stroke-linecap:round;stroke-linejoin:round;stroke-miterlimit:4.1;paint-order:stroke fill markers"
       d="M 53.476511,32 A 21.476511,21.476511 0 0 1 32,53.476511 21.476511,21.476511 0 0 1 10.523489,32 21.476511,21.476511 0 0 1 32,10.523489 21.476511,21.476511 0 0 1 53.476511,32 Z" />
    <path
       id="path6-1"
       style="fill:none;stroke:#000000;stroke-width:0.2;stroke-linecap:round;stroke-linejoin:round;stroke-miterlimit:4.1;paint-order:stroke fill markers;filter:url(#filter7)"
       d="M 53.476511,32 A 21.476511,21.476511 0 0 1 32,53.476511 21.476511,21.476511 0 0 1 10.523489,32 21.476511,21.476511 0 0 1 32,10.523489 21.476511,21.476511 0 0 1 53.476511,32 Z" />
    <path
       style="fill:#e34241;stroke-linecap:round;stroke-linejoin:round"
       d="m 14.492188,14.90625 a 4.0929999,4.0929999 0 0 0 -2.792969,1.419922 4.0929999,4.0929999 0 0 0 0.451172,5.771484 L 27.90625,35.572266 V 53.365234 A 4.0929999,4.0929999 0 0 0 32,57.458984 4.0929999,4.0929999 0 0 0 36.09375,53.365234 V 35.572266 L 51.849609,22.097656 A 4.0929999,4.0929999 0 0 0 52.300781,16.326172 4.0929999,4.0929999 0 0 0 46.529297,15.875 L 32,28.302734 17.470703,15.875 a 4.0929999,4.0929999 0 0 0 -2.978515,-0.96875 z"
       id="path4" />
  </g>
</svg>
