<?xml version="1.0" encoding="UTF-8" standalone="no"?>
<svg
   width="64"
   height="64"
   version="1.1"
   id="svg6"
   sodipodi:docname="yarock.svg"
   inkscape:version="1.4 (e7c3feb100, 2024-10-09)"
   xmlns:inkscape="http://www.inkscape.org/namespaces/inkscape"
   xmlns:sodipodi="http://sodipodi.sourceforge.net/DTD/sodipodi-0.dtd"
   xmlns:xlink="http://www.w3.org/1999/xlink"
   xmlns="http://www.w3.org/2000/svg"
   xmlns:svg="http://www.w3.org/2000/svg">
  <defs
     id="defs6">
    <linearGradient
       id="linearGradient2"
       inkscape:collect="always">
      <stop
         style="stop-color:#9b3131;stop-opacity:1;"
         offset="0"
         id="stop1" />
      <stop
         style="stop-color:#593030;stop-opacity:1;"
         offset="1"
         id="stop2" />
    </linearGradient>
    <linearGradient
       id="linearGradient6"
       inkscape:collect="always">
      <stop
         style="stop-color:#e95151;stop-opacity:1;"
         offset="0"
         id="stop6" />
      <stop
         style="stop-color:#8d3838;stop-opacity:1;"
         offset="1"
         id="stop7" />
    </linearGradient>
    <radialGradient
       inkscape:collect="always"
       xlink:href="#linearGradient6"
       id="radialGradient7"
       cx="7.9650927"
       cy="58.524937"
       fx="7.9650927"
       fy="58.524937"
       r="25.340961"
       gradientUnits="userSpaceOnUse"
       gradientTransform="matrix(2.6278772,-0.70413757,0.7041376,2.6278773,-50.566314,-90.295385)" />
    <filter
       inkscape:collect="always"
       style="color-interpolation-filters:sRGB"
       id="filter9"
       x="-0.13018516"
       y="-0.13018516"
       width="1.2603703"
       height="1.2603703">
      <feGaussianBlur
         inkscape:collect="always"
         stdDeviation="2.7075143"
         id="feGaussianBlur9" />
    </filter>
    <filter
       inkscape:collect="always"
       style="color-interpolation-filters:sRGB"
       id="filter10"
       x="-0.22366915"
       y="-0.19786185"
       width="1.4471101"
       height="1.395762">
      <feGaussianBlur
         inkscape:collect="always"
         stdDeviation="1.9129167"
         id="feGaussianBlur10" />
    </filter>
    <radialGradient
       inkscape:collect="always"
       xlink:href="#linearGradient2"
       id="radialGradient7-3"
       cx="7.9650927"
       cy="58.524937"
       fx="7.9650927"
       fy="58.524937"
       r="25.340961"
       gradientUnits="userSpaceOnUse"
       gradientTransform="matrix(2.1329164,-0.57151323,0.57151325,2.1329165,-35.014946,-67.261044)" />
  </defs>
  <sodipodi:namedview
     id="namedview6"
     pagecolor="#505050"
     bordercolor="#eeeeee"
     borderopacity="1"
     inkscape:showpageshadow="0"
     inkscape:pageopacity="0"
     inkscape:pagecheckerboard="0"
     inkscape:deskcolor="#505050"
     inkscape:zoom="11.313708"
     inkscape:cx="31.598836"
     inkscape:cy="31.64303"
     inkscape:current-layer="svg6" />
  <circle
     style="fill:url(#radialGradient7);stroke-width:1.15186"
     cx="32"
     cy="32"
     r="25.340961"
     id="circle4" />
  <circle
     style="fill:url(#radialGradient7-3);stroke-width:0.934907"
     cx="32"
     cy="32"
     r="20.567991"
     id="circle4-53" />
  <path
     style="fill:#ffffff;fill-rule:evenodd;stroke-width:0.848495"
     d="m 26.543956,20.970351 a 2.5137694,2.5491618 0 0 0 -2.574066,2.545588 v 8.481421 l 0.0015,8.481422 a 2.5137694,2.5491618 0 0 0 3.770279,2.210379 l 7.242727,-4.243199 7.242727,-4.239882 a 2.5137694,2.5491618 0 0 0 0.0015,-4.415782 l -7.244314,-4.23822 -7.242728,-4.241541 A 2.5137694,2.5491618 0 0 0 27.041236,21.03341 2.5137694,2.5491618 0 0 0 26.543767,20.97034 Z"
     id="path5" />
  <circle
     style="fill:none;stroke-width:0.2;stroke:#000000;stroke-opacity:1;stroke-dasharray:none;filter:url(#filter9)"
     cx="32"
     cy="32"
     r="25.340961"
     id="circle4-5" />
  <path
     style="fill:none;fill-rule:evenodd;stroke:#ff4700;stroke-width:0.4;stroke-dasharray:none;stroke-opacity:1;filter:url(#filter10)"
     d="m 25.843067,19.893834 a 2.759108,2.7979546 0 0 0 -2.825289,2.794033 v 9.309189 l 0.0017,9.309191 a 2.759108,2.7979546 0 0 0 4.13825,2.426107 l 7.949602,-4.657325 7.949602,-4.653686 a 2.759108,2.7979546 0 0 0 0.0017,-4.846752 l -7.951344,-4.651862 -7.949602,-4.655507 a 2.759108,2.7979546 0 0 0 -0.768698,-0.304174 2.759108,2.7979546 0 0 0 -0.546021,-0.06922 z"
     id="path5-3"
     transform="matrix(0.91108047,0,0,0.91108047,2.998842,2.8454659)" />
</svg>
