<?xml version="1.0" encoding="UTF-8" standalone="no"?>
<svg
   width="64"
   height="64"
   version="1.1"
   id="svg18"
   sodipodi:docname="yast-vm-migrate.svg"
   inkscape:version="1.4 (e7c3feb100, 2024-10-09)"
   xmlns:inkscape="http://www.inkscape.org/namespaces/inkscape"
   xmlns:sodipodi="http://sodipodi.sourceforge.net/DTD/sodipodi-0.dtd"
   xmlns:xlink="http://www.w3.org/1999/xlink"
   xmlns="http://www.w3.org/2000/svg"
   xmlns:svg="http://www.w3.org/2000/svg">
  <defs
     id="defs18">
    <filter
       inkscape:collect="always"
       style="color-interpolation-filters:sRGB"
       id="filter7"
       x="-0.12979462"
       y="-0.12979462"
       width="1.2595892"
       height="1.2595892">
      <feGaussianBlur
         inkscape:collect="always"
         stdDeviation="0.39098206"
         id="feGaussianBlur7" />
    </filter>
    <filter
       inkscape:collect="always"
       style="color-interpolation-filters:sRGB"
       id="filter6"
       x="-0.12979462"
       y="-0.12979462"
       width="1.2595892"
       height="1.2595892">
      <feGaussianBlur
         inkscape:collect="always"
         stdDeviation="0.39098206"
         id="feGaussianBlur6" />
    </filter>
    <filter
       inkscape:collect="always"
       style="color-interpolation-filters:sRGB"
       id="filter5"
       x="-0.12979462"
       y="-0.12979462"
       width="1.2595892"
       height="1.2595892">
      <feGaussianBlur
         inkscape:collect="always"
         stdDeviation="0.39098206"
         id="feGaussianBlur5" />
    </filter>
    <filter
       inkscape:collect="always"
       style="color-interpolation-filters:sRGB"
       id="filter2"
       x="-0.07355455"
       y="-0.30591829"
       width="1.1470901"
       height="1.6118366">
      <feGaussianBlur
         inkscape:collect="always"
         stdDeviation="1.6718552"
         id="feGaussianBlur2" />
    </filter>
    <inkscape:path-effect
       effect="fillet_chamfer"
       id="path-effect8-36"
       is_visible="true"
       lpeversion="1"
       nodesatellites_param="F,0,0,1,0,5.8787194,0,1 @ F,0,0,1,0,0,0,1 @ F,0,1,1,0,0,0,1 @ F,0,0,1,0,5.8787194,0,1"
       radius="0"
       unit="px"
       method="auto"
       mode="F"
       chamfer_steps="1"
       flexible="false"
       use_knot_distance="true"
       apply_no_radius="true"
       apply_with_radius="true"
       only_selected="false"
       hide_knots="false" />
    <radialGradient
       inkscape:collect="always"
       xlink:href="#linearGradient4"
       id="radialGradient3"
       cx="26.667486"
       cy="29.028502"
       fx="26.667486"
       fy="29.028502"
       r="28"
       gradientTransform="matrix(0,1.3507002,-1.5214627,0,48.174199,-32.591714)"
       gradientUnits="userSpaceOnUse" />
    <linearGradient
       id="linearGradient4"
       inkscape:collect="always">
      <stop
         style="stop-color:#2563a2;stop-opacity:1;"
         offset="0"
         id="stop3" />
      <stop
         style="stop-color:#266fd8;stop-opacity:1;"
         offset="1"
         id="stop4" />
    </linearGradient>
    <inkscape:path-effect
       effect="fillet_chamfer"
       id="path-effect8"
       is_visible="true"
       lpeversion="1"
       nodesatellites_param="F,0,0,1,0,5.8787194,0,1 @ F,0,0,1,0,0,0,1 @ F,0,1,1,0,0,0,1 @ F,0,0,1,0,5.8787194,0,1"
       radius="0"
       unit="px"
       method="auto"
       mode="F"
       chamfer_steps="1"
       flexible="false"
       use_knot_distance="true"
       apply_no_radius="true"
       apply_with_radius="true"
       only_selected="false"
       hide_knots="false" />
    <filter
       inkscape:collect="always"
       style="color-interpolation-filters:sRGB"
       id="filter1"
       x="-0.073180276"
       y="-0.099323279"
       width="1.1463606"
       height="1.1986466">
      <feGaussianBlur
         inkscape:collect="always"
         stdDeviation="1.658379"
         id="feGaussianBlur1" />
    </filter>
    <inkscape:path-effect
       effect="fillet_chamfer"
       id="path-effect9-1"
       is_visible="true"
       lpeversion="1"
       nodesatellites_param="F,0,0,1,0,5.8758489,0,1 @ F,0,1,1,0,5.8758489,0,1 @ F,0,1,1,0,5.8758489,0,1 @ F,0,1,1,0,5.8758489,0,1"
       radius="0"
       unit="px"
       method="auto"
       mode="F"
       chamfer_steps="1"
       flexible="false"
       use_knot_distance="true"
       apply_no_radius="true"
       apply_with_radius="true"
       only_selected="false"
       hide_knots="false" />
    <radialGradient
       inkscape:collect="always"
       xlink:href="#linearGradient9"
       id="radialGradient10"
       cx="9.7942343"
       cy="53.223694"
       fx="9.7942343"
       fy="53.223694"
       r="27.92197"
       gradientTransform="matrix(2.4418912,0,0,2.2327301,-9.175445,-76.744037)"
       gradientUnits="userSpaceOnUse" />
    <linearGradient
       id="linearGradient9"
       inkscape:collect="always">
      <stop
         style="stop-color:#00baff;stop-opacity:1;"
         offset="0"
         id="stop9" />
      <stop
         style="stop-color:#007aff;stop-opacity:1;"
         offset="1"
         id="stop10" />
    </linearGradient>
    <inkscape:path-effect
       effect="fillet_chamfer"
       id="path-effect9"
       is_visible="true"
       lpeversion="1"
       nodesatellites_param="F,0,0,1,0,5.8758489,0,1 @ F,0,1,1,0,5.8758489,0,1 @ F,0,1,1,0,5.8758489,0,1 @ F,0,1,1,0,5.8758489,0,1"
       radius="0"
       unit="px"
       method="auto"
       mode="F"
       chamfer_steps="1"
       flexible="false"
       use_knot_distance="true"
       apply_no_radius="true"
       apply_with_radius="true"
       only_selected="false"
       hide_knots="false" />
    <radialGradient
       inkscape:collect="always"
       xlink:href="#linearGradient4"
       id="radialGradient21"
       cx="-37.698959"
       cy="47.480461"
       fx="-37.698959"
       fy="47.480461"
       r="8"
       gradientUnits="userSpaceOnUse"
       gradientTransform="matrix(4.8040432,0,0,4.8040432,205.30302,-175.11019)" />
  </defs>
  <sodipodi:namedview
     id="namedview18"
     pagecolor="#505050"
     bordercolor="#eeeeee"
     borderopacity="1"
     inkscape:showpageshadow="0"
     inkscape:pageopacity="0"
     inkscape:pagecheckerboard="0"
     inkscape:deskcolor="#505050"
     inkscape:zoom="13.169864"
     inkscape:cx="47.760555"
     inkscape:cy="38.876636"
     inkscape:current-layer="svg18" />
  <path
     id="rect8-3"
     style="fill:url(#radialGradient10);fill-opacity:1;stroke-width:0.4"
     d="M 9.9538785,11.427406 H 54.046121 a 5.8758489,5.8758489 45 0 1 5.875849,5.875849 v 29.39349 a 5.8758489,5.8758489 135 0 1 -5.875849,5.875849 H 9.9538785 A 5.8758489,5.8758489 45 0 1 4.0780296,46.696745 v -29.39349 a 5.8758489,5.8758489 135 0 1 5.8758489,-5.875849 z"
     inkscape:path-effect="#path-effect9"
     inkscape:original-d="M 4.0780296,11.427406 H 59.92197 V 52.572594 H 4.0780296 Z"
     transform="matrix(0.94793341,0,0,0.83396785,1.669619,9.0162029)" />
  <path
     id="rect8-2"
     style="mix-blend-mode:normal;fill:none;fill-opacity:1;stroke:#000000;stroke-width:0.213131;stroke-dasharray:none;stroke-opacity:1;filter:url(#filter1)"
     d="M 9.9538785,11.427406 H 54.046121 a 5.8758489,5.8758489 45 0 1 5.875849,5.875849 v 29.39349 a 5.8758489,5.8758489 135 0 1 -5.875849,5.875849 H 9.9538785 A 5.8758489,5.8758489 45 0 1 4.0780296,46.696745 v -29.39349 a 5.8758489,5.8758489 135 0 1 5.8758489,-5.875849 z"
     transform="matrix(0.94793341,0,0,0.83396785,1.541933,9.0414769)"
     inkscape:original-d="M 4.0780296,11.427406 H 59.92197 V 52.572594 H 4.0780296 Z"
     inkscape:path-effect="#path-effect9-1" />
  <path
     style="fill:url(#radialGradient3);fill-opacity:1"
     d="M 4.0759113,9.7743485 4,17.361236 H 60 V 9.8787194 C 60,6.6319923 57.368262,3.9723578 54.121734,3.9623478 43.390388,3.9292598 20.745067,3.9085066 10.013413,3.9001482 6.7667052,3.8976196 4.1083952,6.5277839 4.0759113,9.7743485 Z"
     id="path3"
     sodipodi:nodetypes="ccccc"
     inkscape:path-effect="#path-effect8"
     inkscape:original-d="M 4.1347285,3.8959233 4,17.361236 H 60 V 4 C 60.007936,3.9307094 4.1347285,3.8959233 4.1347285,3.8959233 Z"
     transform="matrix(0.94750078,0,0,0.94750078,1.683403,7.8866209)" />
  <path
     style="fill:none;fill-opacity:1;stroke:#000000;stroke-width:0.211082;stroke-dasharray:none;stroke-opacity:1;filter:url(#filter2)"
     d="M 4.0759113,9.7743485 4,17.361236 H 60 V 9.8787194 C 60,6.6319923 57.368262,3.9723578 54.121734,3.9623478 43.390388,3.9292598 20.745067,3.9085066 10.013413,3.9001482 6.7667052,3.8976196 4.1083952,6.5277839 4.0759113,9.7743485 Z"
     id="path3-7"
     sodipodi:nodetypes="ccccc"
     inkscape:path-effect="#path-effect8-36"
     inkscape:original-d="M 4.1347285,3.8959233 4,17.361236 H 60 V 4 C 60.007936,3.9307094 4.1347285,3.8959233 4.1347285,3.8959233 Z"
     transform="matrix(0.94750078,0,0,0.94750078,1.714418,7.9129249)" />
  <circle
     style="fill:#ff8383;fill-opacity:1;stroke-width:0.730536"
     cx="11.931042"
     cy="18.170057"
     r="2.9221437"
     id="circle4-6" />
  <circle
     style="fill:#ffdb7f;fill-opacity:1;stroke-width:0.730536"
     cx="20.697472"
     cy="18.170057"
     r="2.9221437"
     id="circle6-7" />
  <circle
     style="fill:#7fff96;fill-opacity:1;stroke-width:0.730536"
     cx="29.463905"
     cy="18.170057"
     r="2.9221437"
     id="circle8-5" />
  <circle
     style="mix-blend-mode:normal;fill:none;stroke:#f44a4f;stroke-width:0.2;stroke-dasharray:none;stroke-opacity:1;filter:url(#filter5)"
     cx="12"
     cy="20.154993"
     r="4"
     id="circle4-0"
     transform="matrix(0.73053593,0,0,0.73053593,3.066206,3.4682499)" />
  <circle
     style="mix-blend-mode:normal;fill:none;stroke:#ffce00;stroke-width:0.2;stroke-dasharray:none;stroke-opacity:1;filter:url(#filter6)"
     cx="24.000002"
     cy="20.154993"
     r="4"
     id="circle6-9"
     transform="matrix(0.73053593,0,0,0.73053593,3.066206,3.4682499)" />
  <circle
     style="mix-blend-mode:normal;fill:none;stroke:#00ff7c;stroke-width:0.2;stroke-dasharray:none;stroke-opacity:1;filter:url(#filter7)"
     cx="36"
     cy="20.154993"
     r="4"
     id="circle8-3"
     transform="matrix(0.73053593,0,0,0.73053593,3.066206,3.4682499)" />
  <path
     id="rect12"
     style="fill:#ffffff"
     d="m 10.042397,27.362872 c -0.4155,0 -0.75,0.3345 -0.75,0.75 v 4.5 c 0,0.4155 0.3345,0.75 0.75,0.75 h 4.5 c 0.4155,0 0.75,-0.3345 0.75,-0.75 v -4.5 c 0,-0.4155 -0.3345,-0.75 -0.75,-0.75 z m 0,8 c -0.4155,0 -0.75,0.3345 -0.75,0.75 v 4.5 c 0,0.4155 0.3345,0.75 0.75,0.75 h 4.5 c 0.4155,0 0.75,-0.3345 0.75,-0.75 v -4.5 c 0,-0.4155 -0.3345,-0.75 -0.75,-0.75 z m 0,8 c -0.4155,0 -0.75,0.3345 -0.75,0.75 v 4.5 c 0,0.4155 0.3345,0.75 0.75,0.75 h 4.5 c 0.4155,0 0.75,-0.3345 0.75,-0.75 v -4.5 c 0,-0.4155 -0.3345,-0.75 -0.75,-0.75 z"
     sodipodi:nodetypes="sssssssssssssssssssssssssss" />
  <rect
     style="fill:#253951"
     width="24"
     height="4"
     x="17.923176"
     y="27.080992"
     rx="1.5"
     ry="1.5"
     id="rect9" />
  <path
     style="fill:#ffffff"
     d="m 17.923178,30.080993 v 11.5 c 0,0.83 0.67,1.5 1.5,1.5 h 21 c 0.83,0 1.5,-0.67 1.5,-1.5 v -11.5 z"
     id="path9" />
  <path
     style="fill:none;stroke:url(#radialGradient21);stroke-width:3.48747;stroke-linecap:round;stroke-linejoin:round"
     d="M 54.327096,43.66982 H 43.864697 m 5.2312,-5.2312 5.231199,5.2312 -5.231199,5.231199"
     id="path18" />
</svg>
