<?xml version="1.0" encoding="UTF-8" standalone="no"?>
<svg
   width="64"
   height="64"
   version="1"
   id="svg4"
   sodipodi:docname="yast.svg"
   inkscape:version="1.4 (e7c3feb100, 2024-10-09)"
   xmlns:inkscape="http://www.inkscape.org/namespaces/inkscape"
   xmlns:sodipodi="http://sodipodi.sourceforge.net/DTD/sodipodi-0.dtd"
   xmlns:xlink="http://www.w3.org/1999/xlink"
   xmlns="http://www.w3.org/2000/svg"
   xmlns:svg="http://www.w3.org/2000/svg">
  <defs
     id="defs4">
    <linearGradient
       id="linearGradient5"
       inkscape:collect="always">
      <stop
         style="stop-color:#009b8c;stop-opacity:1;"
         offset="0"
         id="stop5" />
      <stop
         style="stop-color:#00849b;stop-opacity:1;"
         offset="1"
         id="stop6" />
    </linearGradient>
    <filter
       inkscape:collect="always"
       style="color-interpolation-filters:sRGB"
       id="filter4"
       x="-0.070680062"
       y="-0.075630176"
       width="1.1415503"
       height="1.1519134">
      <feGaussianBlur
         inkscape:collect="always"
         stdDeviation="1.1540173"
         id="feGaussianBlur4" />
    </filter>
    <filter
       inkscape:collect="always"
       style="color-interpolation-filters:sRGB"
       id="filter5"
       x="-0.15395705"
       y="-0.15395705"
       width="1.3079141"
       height="1.3079141">
      <feGaussianBlur
         inkscape:collect="always"
         stdDeviation="3.0830605"
         id="feGaussianBlur5" />
    </filter>
    <radialGradient
       inkscape:collect="always"
       xlink:href="#linearGradient5"
       id="radialGradient6"
       cx="11.361535"
       cy="49.881481"
       fx="11.361535"
       fy="49.881481"
       r="24.355316"
       gradientUnits="userSpaceOnUse"
       gradientTransform="matrix(3.5369018,-0.94770998,0.94771002,3.5369019,-81.659155,-103.91351)" />
  </defs>
  <sodipodi:namedview
     id="namedview4"
     pagecolor="#505050"
     bordercolor="#eeeeee"
     borderopacity="1"
     inkscape:showpageshadow="0"
     inkscape:pageopacity="0"
     inkscape:pagecheckerboard="0"
     inkscape:deskcolor="#505050"
     inkscape:zoom="13.169864"
     inkscape:cx="32.080818"
     inkscape:cy="42.369459"
     inkscape:current-layer="svg4" />
  <rect
     style="fill:url(#radialGradient6);stroke-width:0.869833;fill-opacity:1"
     width="48.710632"
     height="48.710632"
     x="7.6446848"
     y="7.6446848"
     rx="24.355316"
     ry="24.355316"
     id="rect2" />
  <rect
     style="fill:none;fill-opacity:1;stroke-width:0.2;stroke:#000000;stroke-opacity:1;stroke-dasharray:none;filter:url(#filter5)"
     width="48.710632"
     height="48.710632"
     x="7.6446848"
     y="7.6446848"
     rx="24.355316"
     ry="24.355316"
     id="rect2-6" />
  <path
     style="fill:none;fill-opacity:1;stroke:#0800ff;stroke-width:0.11496463;stroke-dasharray:none;stroke-opacity:1;filter:url(#filter4)"
     d="m 18.521166,12.258599 1.704644,4.001997 4.167952,4.760672 c -1.35138,0.213378 -2.553402,0.576116 -3.686668,1.009982 -0.640132,0.308214 -1.251812,0.640132 -1.593216,1.315826 l -1.038433,1.440146 c -0.334291,0.675694 -1.043174,0.787396 -1.737834,1.335062 l -2.84502,2.221488 c 0.566631,0.275018 1.073994,0.635384 1.541052,1.062142 -0.502621,-0.277394 -0.991016,-0.56901 -1.576615,-0.723112 -0.407788,-0.06402 -0.810832,-0.05928 -1.183058,0.237084 -0.334289,0.27739 -0.296355,0.74682 -0.227601,1.185424 0.128014,0.67807 0.694661,1.280262 1.339532,1.735466 0.599826,0.267908 1.152234,0.13042 1.683305,-0.18258 0.459945,-0.426754 0.647242,-1.175944 0.590342,-2.200154 0.331918,-0.06162 0.258421,1.913276 0.317695,1.688046 0.03081,-0.1209 4.876839,-2.944398 6.159473,-3.245498 1.30871,-0.336664 3.350014,0.38303 4.827052,-0.07718 0.91752,-0.293986 1.588474,-0.59054 2.157476,-1.465386 l -0.457574,0.97205 c -0.342114,0.553038 -0.878012,0.958762 -1.503122,1.138006 l -1.152448,8.753186 -0.0162,8.463944 -1.302106,2.13377 0.974418,-0.03316 1.038436,-1.372724 -0.763416,1.642998 c 0,0 4.995386,-0.334284 4.995386,-0.29873 0,0.03558 -1.541056,-10.12353 -1.541056,-10.12353 0,0 1.66908,-1.865862 1.704644,-1.89194 0.03558,-0.02844 6.30482,2.048414 6.30482,2.048414 L 36.46891,36.687864 35.700752,36.26348 36.6325,36.571688 c 0,0 2.164584,2.622166 2.17407,2.6601 0.0092,0.03558 0.386448,-0.471802 0.386448,-0.471802 l -2.266532,9.198904 3.01098,1.026582 -0.09486,-1.405918 0.720738,1.744946 1.107188,0.07346 -0.74919,-1.818442 1.30397,1.583724 0.715998,-0.14224 -1.289746,-1.856378 1.505492,-8.961822 -1.735462,-1.370354 -1.344274,-1.801842 1.273148,1.296854 -1.379836,-1.965438 -0.10904,-2.596082 0.483652,2.235712 0.521588,-1.837408 -0.270278,2.14562 1.00287,2.20015 2.00574,1.493636 -0.03792,0.343776 1.578988,-0.578494 1.019468,-2.304466 0.08774,-1.42725 0.147,1.446222 c 0,0 -0.877214,2.124276 -0.877214,2.197776 0,0.07114 1.145122,-1.08348 1.145122,-1.08348 l -1.256552,1.479414 2.00811,3.622664 0.680434,3.949834 0.50025,-0.357996 -0.10672,0.14228 -1.612176,2.105314 1.057396,-0.229974 0.41016,-0.649612 -0.18018,0.791866 0.376966,0.0186 -0.08774,0.86536 0.787124,-0.704142 0.587974,0.18258 0.18258,-1.050288 v 1.066886 l 0.552408,-0.10904 0.267904,0.900926 L 51.229752,47.48684 52,47.451528 c -0.734938,-5.57624 -1.706992,-10.838596 -1.967782,-16.414834 -0.02844,-1.062146 -0.919892,-2.93986 -1.880086,-4.16796 -1.12141,-1.292118 -3.411658,-4.05416 -6.662094,-4.829426 -1.773396,-0.211004 -3.579986,0.07588 -5.54779,0.718364 -1.74021,0.509736 -3.537316,0.817014 -5.490898,1.753496 0.459944,0.753934 1.069254,1.493638 2.107692,2.370852 0.324808,0.317694 0.910406,0.405418 1.486522,0.360372 -0.398304,0.1423 -0.808458,0.260792 -1.237584,0.03558 -0.699406,-0.47417 -1.27552,-1.066884 -1.825558,-1.69279 -0.334654,-0.415278 -0.617298,-0.869904 -0.841654,-1.353754 -0.331918,-0.75393 0.0593,-1.711758 0.699402,-2.740706 0.580862,-0.713626 1.22099,-1.41066 2.52259,-1.910906 1.1712,-0.46706 2.347142,-0.934116 3.459072,-1.550539 1.25655,-0.815575 3.26229,-3.414029 4.329174,-5.230101 -2.906664,1.066884 -5.810958,1.920391 -8.701026,3.622661 -1.08111,0.742077 -2.140878,1.89194 -3.221986,3.082109 -0.45995,0.521586 -0.95783,1.009982 -1.612178,1.356126 -0.898556,0.481282 -1.517348,0.02372 -1.932246,-0.343772 -0.643064,-0.695978 -1.212696,-1.456292 -1.699962,-2.268929 -0.64013,-0.877215 -1.311082,-1.756802 -2.292616,-2.634016 -1.128524,-1.047917 -2.145617,-2.257053 -3.169826,-3.354756 z m 18.388326,2.875843 -2.560522,3.108186 1.737838,-0.602196 -3.497012,1.714126 z m -12.145874,6.489024 c 0.225232,-0.0048 0.45046,0 0.668578,0.02372 -1.415396,0.10904 -2.062638,0.353258 -3.290738,0.983906 0.450462,-0.343776 0.704142,-0.599828 1.514972,-0.877214 0.355626,-0.07826 0.732596,-0.1233 1.107188,-0.13042 z m 0.39356,1.95358 c 0.699398,0.0114 1.173576,0.320064 1.173576,0.320064 -1.550538,-0.417266 -2.401674,-0.07114 -3.065516,0.9436 -0.07824,-0.06402 0.440984,-0.945968 1.128524,-1.154608 0.275024,-0.083 0.531074,-0.11376 0.763416,-0.10904 z m -0.11858,0.52159 c 0.14712,-0.006 0.29441,0.0058 0.438606,0.03558 0.289244,0.10192 0.422012,0.31769 0.564266,0.521588 -0.301102,-0.265538 -0.611682,-0.474174 -0.988648,-0.37697 0.426754,0.04742 0.5856,0.315324 0.647242,0.666212 0.05216,0.471796 -0.353258,0.749188 -0.623536,0.789488 -0.270272,0.0403 -0.61642,-0.02844 -0.815574,-0.320062 -0.0569,-0.11858 -0.20863,-0.55478 0.03316,-0.86536 -0.264094,0.10746 -0.50664,0.26165 -0.715996,0.455204 0.18258,-0.265536 0.405418,-0.474174 0.742082,-0.69703 0.21907,-0.12694 0.465452,-0.1993 0.718362,-0.211006 z m -11.441732,5.328612 c 0.362741,0.429126 0.715998,0.841652 0.889071,1.410658 0.02371,0.526332 -0.208636,0.514474 -0.436237,0.512104 -0.189668,-0.0022 -0.550039,-0.218118 -0.433867,-0.393562 0.11214,-0.227816 0.1597,-0.482012 0.137516,-0.734962 z m -1.327675,0.13042 c 0.284501,0.298728 0.564262,0.497882 0.616419,0.91515 0.02134,0.09958 0.04032,0.346148 -0.156478,0.308214 -0.573726,-0.542948 -0.22758,-0.483674 -0.457554,-1.223382 z"
     id="path3-3"
     transform="matrix(0.86983269,0,0,0.86983269,4.1653538,4.1653538)" />
  <path
     style="fill:#ffffff;fill-opacity:1;stroke:none;stroke-width:0.0869833;stroke-dasharray:none;stroke-opacity:1"
     d="m 20.27567,14.828284 1.482755,3.481068 3.625421,4.140988 c -1.175475,0.185603 -2.221033,0.501125 -3.206785,0.878515 -0.556808,0.268095 -1.088867,0.556808 -1.385831,1.144549 l -0.903263,1.252686 c -0.290777,0.587741 -0.907387,0.684903 -1.511625,1.16128 l -2.474691,1.932323 c 0.492874,0.23922 0.934195,0.552678 1.340457,0.923886 -0.437196,-0.241286 -0.862018,-0.494943 -1.371391,-0.628986 -0.354708,-0.05569 -0.705288,-0.05156 -1.029063,0.206223 -0.290775,0.241283 -0.257779,0.649609 -0.197975,1.031121 0.111351,0.589807 0.604239,1.113613 1.165169,1.509565 0.521748,0.233035 1.002251,0.113443 1.464194,-0.158814 0.400075,-0.371205 0.562992,-1.022875 0.513499,-1.913766 0.288713,-0.0536 0.224783,1.66423 0.276341,1.468317 0.0268,-0.105162 4.242034,-2.561133 5.357711,-2.82304 1.138359,-0.292841 2.913952,0.333172 4.198728,-0.06713 0.798089,-0.255718 1.381706,-0.513671 1.876643,-1.27464 l -0.398013,0.845521 c -0.297582,0.48105 -0.763723,0.833962 -1.307465,0.989875 l -1.002437,7.613807 -0.01409,7.362215 -1.132614,1.856023 0.84758,-0.02884 0.903266,-1.19404 -0.664044,1.429133 c 0,0 4.34515,-0.290771 4.34515,-0.259845 0,0.03095 -1.340461,-8.805777 -1.340461,-8.805777 0,0 1.45182,-1.622988 1.482755,-1.645671 0.03095,-0.02474 5.484139,1.781777 5.484139,1.781777 l -0.812525,-0.958942 -0.668169,-0.369143 0.810465,0.26809 c 0,0 1.882826,2.280845 1.891077,2.313842 0.008,0.03095 0.336145,-0.410389 0.336145,-0.410389 l -1.971503,8.001507 2.619048,0.892955 -0.08251,-1.222914 0.626922,1.517811 0.963068,0.0639 -0.65167,-1.58174 1.134236,1.377575 0.622798,-0.123725 -1.121863,-1.614738 1.309526,-7.795286 -1.509562,-1.191979 -1.169293,-1.567301 1.107426,1.128046 -1.200227,-1.709602 -0.09485,-2.258157 0.420696,1.944695 0.453694,-1.598237 -0.235096,1.86633 0.872329,1.913763 1.744658,1.299213 -0.03298,0.299028 1.373455,-0.503193 0.886767,-2.0045 0.07632,-1.241469 0.127865,1.257971 c 0,0 -0.763029,1.847765 -0.763029,1.911698 0,0.06188 0.996065,-0.942447 0.996065,-0.942447 l -1.09299,1.286843 1.746719,3.151112 0.591864,3.435694 0.435134,-0.311396 -0.09283,0.12376 -1.402323,1.83127 0.919758,-0.200038 0.35677,-0.565054 -0.156726,0.688791 0.327897,0.01618 -0.07632,0.752718 0.684666,-0.612486 0.511439,0.158814 0.158814,-0.913574 v 0.928012 l 0.480503,-0.09485 0.233031,0.783655 0.34225,-0.987752 0.669987,-0.03072 C 48.757383,40.589852 47.911858,36.012483 47.685015,31.162089 47.660275,30.2382 46.884863,28.604903 46.049654,27.536661 45.074215,26.412735 43.082083,24.01022 40.254747,23.335868 c -1.542558,-0.183538 -3.113989,0.066 -4.825649,0.624857 -1.513691,0.443385 -3.076873,0.710665 -4.776162,1.525248 0.400074,0.655797 0.930072,1.299215 1.833339,2.062245 0.282529,0.27634 0.791901,0.352646 1.293025,0.313463 -0.346457,0.123777 -0.703223,0.226845 -1.076491,0.03095 -0.608366,-0.412449 -1.109489,-0.928011 -1.58793,-1.472444 -0.291093,-0.361223 -0.536946,-0.756671 -0.732098,-1.17754 -0.288713,-0.655793 0.05158,-1.488943 0.608363,-2.383956 0.505253,-0.620735 1.062057,-1.227038 2.194231,-1.662168 1.018748,-0.406264 2.041621,-0.812525 3.008814,-1.34871 1.092988,-0.709413 2.837647,-2.969634 3.765657,-4.549312 -2.528311,0.92801 -5.054561,1.670418 -7.568437,3.151109 -0.940385,0.645482 -1.862205,1.645671 -2.802588,2.680919 -0.40008,0.453692 -0.833152,0.878515 -1.402326,1.179602 -0.781593,0.418635 -1.319838,0.02063 -1.68073,-0.299024 C 25.946405,21.405718 25.45092,20.744372 25.02708,20.037514 24.470274,19.274483 23.886658,18.50939 23.032888,17.74636 22.051261,16.834848 21.16656,15.783102 20.27567,14.828284 Z m 15.994767,2.501502 -2.227226,2.703602 1.511628,-0.52381 -3.041815,1.491003 z m -10.564879,5.644365 c 0.195915,-0.0042 0.391825,0 0.581551,0.02063 -1.231157,0.09485 -1.79415,0.307275 -2.862391,0.855834 0.391826,-0.299028 0.612486,-0.52175 1.317772,-0.76303 0.309335,-0.06807 0.637236,-0.10725 0.963068,-0.113443 z m 0.342332,1.699288 c 0.608359,0.0099 1.020814,0.278402 1.020814,0.278402 -1.348708,-0.362951 -2.089054,-0.06188 -2.666486,0.820775 -0.06806,-0.05569 0.383583,-0.822834 0.981628,-1.004316 0.239224,-0.0722 0.461945,-0.09895 0.664044,-0.09485 z m -0.103145,0.453696 c 0.12797,-0.0052 0.256087,0.005 0.381514,0.03095 0.251594,0.08865 0.36708,0.276337 0.490817,0.453694 -0.261909,-0.230973 -0.532061,-0.412452 -0.859959,-0.327901 0.371205,0.04125 0.509374,0.27428 0.562993,0.579493 0.04537,0.410384 -0.307276,0.651669 -0.542372,0.686723 -0.235092,0.03505 -0.536183,-0.02474 -0.709413,-0.278401 -0.04949,-0.103144 -0.181473,-0.482565 0.02884,-0.752718 -0.229717,0.09347 -0.440692,0.227592 -0.622796,0.395951 0.158814,-0.230972 0.352646,-0.412452 0.645487,-0.606299 0.190554,-0.110417 0.404865,-0.173358 0.624855,-0.18354 z m -9.952393,4.635001 c 0.315524,0.373268 0.622799,0.732097 0.773343,1.227037 0.02062,0.45782 -0.181478,0.447506 -0.379453,0.445444 -0.164979,-0.0019 -0.478442,-0.189726 -0.377391,-0.342333 0.09754,-0.198161 0.138912,-0.419269 0.119615,-0.639294 z m -1.154855,0.113444 c 0.247469,0.259843 0.490814,0.433074 0.536182,0.796027 0.01856,0.08662 0.03507,0.301091 -0.13611,0.268095 -0.499046,-0.472274 -0.197957,-0.420716 -0.397995,-1.064138 z"
     id="path3" />
</svg>
