<?xml version="1.0" encoding="UTF-8" standalone="no"?>
<svg
   width="64"
   height="64"
   version="1"
   id="svg6"
   sodipodi:docname="yed.svg"
   inkscape:version="1.4 (e7c3feb100, 2024-10-09)"
   xmlns:inkscape="http://www.inkscape.org/namespaces/inkscape"
   xmlns:sodipodi="http://sodipodi.sourceforge.net/DTD/sodipodi-0.dtd"
   xmlns:xlink="http://www.w3.org/1999/xlink"
   xmlns="http://www.w3.org/2000/svg"
   xmlns:svg="http://www.w3.org/2000/svg">
  <defs
     id="defs6">
    <linearGradient
       id="linearGradient7"
       inkscape:collect="always">
      <stop
         style="stop-color:#b1e71e;stop-opacity:1;"
         offset="0"
         id="stop8" />
      <stop
         style="stop-color:#1ee7a5;stop-opacity:1;"
         offset="1"
         id="stop9" />
    </linearGradient>
    <linearGradient
       id="linearGradient6"
       inkscape:collect="always">
      <stop
         style="stop-color:#737373;stop-opacity:1;"
         offset="0"
         id="stop6" />
      <stop
         style="stop-color:#4747d1;stop-opacity:1;"
         offset="1"
         id="stop7" />
    </linearGradient>
    <radialGradient
       inkscape:collect="always"
       xlink:href="#linearGradient6"
       id="radialGradient7"
       cx="-1.7913188"
       cy="64.989769"
       fx="-1.7913188"
       fy="64.989769"
       r="27.999997"
       gradientTransform="matrix(2.9391105,-1.6968962,1.7574996,3.0440787,-107.02782,-132.03153)"
       gradientUnits="userSpaceOnUse" />
    <radialGradient
       inkscape:collect="always"
       xlink:href="#linearGradient7"
       id="radialGradient9"
       cx="14.535887"
       cy="51.519558"
       fx="14.535887"
       fy="51.519558"
       r="18"
       gradientTransform="matrix(2.5148313,-2.5148313,2.7942567,2.7942567,-164.24069,-55.973134)"
       gradientUnits="userSpaceOnUse" />
    <filter
       inkscape:collect="always"
       style="color-interpolation-filters:sRGB"
       id="filter9"
       x="-0.11552439"
       y="-0.11154155"
       width="1.2310496"
       height="1.223088">
      <feGaussianBlur
         inkscape:collect="always"
         stdDeviation="2.3857211"
         id="feGaussianBlur9" />
    </filter>
    <filter
       inkscape:collect="always"
       style="color-interpolation-filters:sRGB"
       id="filter10"
       x="-0.11974425"
       y="-0.10776878"
       width="1.2394762"
       height="1.2155376">
      <feGaussianBlur
         inkscape:collect="always"
         stdDeviation="1.5757733"
         id="feGaussianBlur10" />
    </filter>
  </defs>
  <sodipodi:namedview
     id="namedview6"
     pagecolor="#505050"
     bordercolor="#eeeeee"
     borderopacity="1"
     inkscape:showpageshadow="0"
     inkscape:pageopacity="0"
     inkscape:pagecheckerboard="0"
     inkscape:deskcolor="#505050"
     inkscape:zoom="13.169864"
     inkscape:cx="29.651028"
     inkscape:cy="38.648843"
     inkscape:current-layer="svg6" />
  <path
     style="fill:url(#radialGradient7);stroke-width:0.900504"
     d="m 32.170467,5.8853873 c -0.461874,-3.738e-4 -0.936418,0.019881 -1.437244,0.057191 -3.433033,0.2557052 -5.12074,0.9729076 -12.756396,5.4210637 -6.369072,3.710307 -8.6807685,5.860738 -10.1210683,9.414622 -0.808458,1.994838 -0.9028847,2.949295 -1.0269303,10.383852 -0.1126962,6.754569 -0.023708,8.574712 0.5096433,10.402664 0.8101051,2.776498 2.5287283,5.463825 4.6853713,7.326413 2.153733,1.860074 13.454702,8.175537 15.802038,8.830678 2.549598,0.71159 7.66509,0.417647 9.933106,-0.570401 3.36141,-1.464382 13.245889,-7.448039 14.749895,-8.929254 3.767756,-3.71067 4.705235,-6.912104 4.705235,-16.062274 0,-7.523023 -0.358977,-9.776268 -2.066086,-12.965706 C 53.474762,16.068023 51.214319,14.239579 44.265935,10.390651 37.992113,6.9153878 35.403614,5.8879957 32.170467,5.8853873 Z"
     id="path2" />
  <path
     style="fill:none;stroke-width:0.2;stroke:#000000;stroke-opacity:1;stroke-dasharray:none;filter:url(#filter9)"
     d="m 32.170467,5.8853872 c -0.461874,-3.738e-4 -0.936418,0.019881 -1.437244,0.057191 -3.433033,0.2557052 -5.12074,0.9729076 -12.756396,5.4210638 -6.369072,3.710307 -8.6807677,5.860738 -10.1210677,9.414622 -0.808458,1.994838 -0.902885,2.949295 -1.026931,10.383852 -0.112696,6.754569 -0.02371,8.574712 0.509644,10.402664 0.810105,2.776498 2.528728,5.463825 4.6853707,7.326413 2.153733,1.860074 13.454702,8.175537 15.802038,8.830678 2.549598,0.71159 7.66509,0.417647 9.933106,-0.570401 3.36141,-1.464382 13.245889,-7.448039 14.749895,-8.929254 3.767756,-3.71067 4.705235,-6.912104 4.705235,-16.062274 0,-7.523023 -0.358977,-9.776268 -2.066086,-12.965706 C 53.474762,16.068023 51.214319,14.239579 44.265935,10.390651 37.992113,6.9153877 35.403614,5.8879956 32.170467,5.8853872 Z"
     id="path2-5" />
  <path
     id="path4"
     style="fill:url(#radialGradient9);stroke-width:0.900504"
     d="m 32.059799,14.895695 c -0.493105,0.02949 -1.006807,0.176546 -1.510807,0.466082 -0.447053,0.256821 -1.404115,1.342399 -2.126386,2.41307 -1.932939,2.865311 -3.792793,3.898434 -7.60504,4.219355 -2.494149,0.209957 -3.317894,0.438716 -4.087445,1.130906 -1.282167,1.153269 -1.253269,2.843134 0.09322,5.323881 0.832961,1.534648 1.058796,2.465504 1.058796,4.377646 0,1.912151 -0.225835,2.842999 -1.058796,4.377647 -0.222616,0.410146 -0.39188,0.784663 -0.54171,1.144977 -0.173206,0.25259 -0.310186,0.527303 -0.39397,0.8196 -0.09344,0.325948 -0.112325,0.669271 -0.07563,1.014826 -0.03383,0.864212 0.266495,1.567371 0.912815,2.186185 1.287628,1.020286 2.497787,0.805467 3.879907,0.969098 3.520565,0.210424 5.277979,1.228374 7.538206,4.361817 3.099774,4.297344 4.892327,4.281755 7.842478,-0.06156 1.946401,-2.865569 3.728217,-4.455502 7.204034,-4.694231 3.253197,-0.223439 4.472743,-0.864431 4.903528,-2.567845 0.408016,-1.613335 -0.272781,-2.80719 -1.954024,-3.420861 -1.661514,-0.606459 -3.089994,0.199202 -4.655537,2.624127 -1.48091,2.293837 -3.081809,4.150155 -4.975639,4.63443 -1.893992,0.484315 -7.942059,0.394327 -9.333937,-0.138945 -1.93944,-0.743065 -3.809034,-2.328522 -4.861316,-4.119103 -0.704771,-0.902408 -1.166844,-1.942716 -1.604023,-2.861564 -1.997114,-3.709492 -1.76059,-5.853206 1.150253,-10.443739 2.678813,-4.224606 5.185186,-5.779408 9.31635,-5.779408 1.631748,0 3.507539,-0.825202 3.857043,-1.69724 0.930204,-2.320926 -0.835581,-4.406953 -2.972368,-4.279154 z m 11.775149,7.202276 a 2.7015129,2.7015129 0 0 0 -1.479149,0.358795 2.7015129,2.7015129 0 0 0 -0.988444,3.689956 2.7015129,2.7015129 0 0 0 3.689957,0.988444 2.7015129,2.7015129 0 0 0 0.988444,-3.689956 2.7015129,2.7015129 0 0 0 -2.210808,-1.347239 z" />
  <path
     id="path4-2"
     style="fill:none;stroke-width:0.2;stroke:#000000;stroke-opacity:1;stroke-dasharray:none;filter:url(#filter10)"
     d="m 32.059799,14.895695 c -0.493105,0.02949 -1.006807,0.176546 -1.510807,0.466082 -0.447053,0.256821 -1.404115,1.342399 -2.126386,2.41307 -1.932939,2.865311 -3.792793,3.898434 -7.60504,4.219355 -2.494149,0.209957 -3.317894,0.438716 -4.087445,1.130906 -1.282167,1.153269 -1.253269,2.843134 0.09322,5.323881 0.832961,1.534648 1.058796,2.465504 1.058796,4.377646 0,1.912151 -0.225835,2.842999 -1.058796,4.377647 -0.222616,0.410146 -0.39188,0.784663 -0.54171,1.144977 -0.173206,0.25259 -0.310186,0.527303 -0.39397,0.8196 -0.09344,0.325948 -0.112325,0.669271 -0.07563,1.014826 -0.03383,0.864212 0.266495,1.567371 0.912815,2.186185 1.287628,1.020286 2.497787,0.805467 3.879907,0.969098 3.520565,0.210424 5.277979,1.228374 7.538206,4.361817 3.099774,4.297344 4.892327,4.281755 7.842478,-0.06156 1.946401,-2.865569 3.728217,-4.455502 7.204034,-4.694231 3.253197,-0.223439 4.472743,-0.864431 4.903528,-2.567845 0.408016,-1.613335 -0.272781,-2.80719 -1.954024,-3.420861 -1.661514,-0.606459 -3.089994,0.199202 -4.655537,2.624127 -1.48091,2.293837 -3.081809,4.150155 -4.975639,4.63443 -1.893992,0.484315 -7.942059,0.394327 -9.333937,-0.138945 -1.93944,-0.743065 -3.809034,-2.328522 -4.861316,-4.119103 -0.704771,-0.902408 -1.166844,-1.942716 -1.604023,-2.861564 -1.997114,-3.709492 -1.76059,-5.853206 1.150253,-10.443739 2.678813,-4.224606 5.185186,-5.779408 9.31635,-5.779408 1.631748,0 3.507539,-0.825202 3.857043,-1.69724 0.930204,-2.320926 -0.835581,-4.406953 -2.972368,-4.279154 z m 11.775149,7.202276 a 2.7015129,2.7015129 0 0 0 -1.479149,0.358795 2.7015129,2.7015129 0 0 0 -0.988444,3.689956 2.7015129,2.7015129 0 0 0 3.689957,0.988444 2.7015129,2.7015129 0 0 0 0.988444,-3.689956 2.7015129,2.7015129 0 0 0 -2.210808,-1.347239 z" />
</svg>
