<?xml version="1.0" encoding="UTF-8" standalone="no"?>
<svg
   width="64"
   height="64"
   version="1.1"
   id="svg4"
   sodipodi:docname="your-freedom.svg"
   inkscape:version="1.4 (e7c3feb100, 2024-10-09)"
   xmlns:inkscape="http://www.inkscape.org/namespaces/inkscape"
   xmlns:sodipodi="http://sodipodi.sourceforge.net/DTD/sodipodi-0.dtd"
   xmlns:xlink="http://www.w3.org/1999/xlink"
   xmlns="http://www.w3.org/2000/svg"
   xmlns:svg="http://www.w3.org/2000/svg">
  <defs
     id="defs4">
    <inkscape:path-effect
       effect="fillet_chamfer"
       id="path-effect5"
       is_visible="true"
       lpeversion="1"
       nodesatellites_param="F,0,0,1,0,0,0,1 @ F,0,0,1,0,0,0,1 @ F,0,1,1,0,2.7090772,0,1 @ F,0,0,1,0,2.7090772,0,1 @ F,0,0,1,0,0,0,1 @ F,0,0,1,0,0,0,1 @ F,0,0,1,0,0,0,1 @ F,0,0,1,0,0,0,1 @ F,0,0,1,0,0,0,1 @ F,0,0,1,0,0,0,1 @ F,0,0,1,0,0,0,1"
       radius="0"
       unit="px"
       method="auto"
       mode="F"
       chamfer_steps="1"
       flexible="false"
       use_knot_distance="true"
       apply_no_radius="true"
       apply_with_radius="true"
       only_selected="false"
       hide_knots="false" />
    <inkscape:path-effect
       effect="fillet_chamfer"
       id="path-effect4"
       is_visible="true"
       lpeversion="1"
       nodesatellites_param="F,0,0,1,0,0,0,1 @ F,0,0,1,0,0,0,1 @ F,0,1,1,0,0,0,1 @ F,0,0,1,0,0,0,1 @ F,0,0,1,0,0,0,1 | F,0,0,1,0,0,0,1 @ F,0,0,1,0,0,0,1 @ F,0,0,1,0,0,0,1 @ F,0,0,1,0,0,0,1 @ F,0,0,1,0,0,0,1"
       radius="0"
       unit="px"
       method="auto"
       mode="F"
       chamfer_steps="1"
       flexible="false"
       use_knot_distance="true"
       apply_no_radius="true"
       apply_with_radius="true"
       only_selected="false"
       hide_knots="false" />
    <radialGradient
       id="radialGradient4"
       cx="-489.36789"
       cy="84.434166"
       r="64.706802"
       gradientTransform="matrix(0.96794252,0,0,-0.96304834,416.42912,80.019991)"
       gradientUnits="userSpaceOnUse"
       fx="-489.36789"
       fy="84.434166">
      <stop
         offset="0"
         style="stop-color:#ae292f;stop-opacity:1;"
         id="stop3" />
      <stop
         offset="1"
         style="stop-color:#b75353;stop-opacity:1;"
         id="stop4" />
    </radialGradient>
    <radialGradient
       id="SVGID_1_-3-2"
       cx="-489.36789"
       cy="84.434166"
       r="64.706802"
       gradientTransform="matrix(0.96794252,0,0,-0.96304834,416.42912,80.019991)"
       gradientUnits="userSpaceOnUse"
       fx="-489.36789"
       fy="84.434166">
      <stop
         offset="0"
         style="stop-color:#ae292f;stop-opacity:1;"
         id="stop1-6-9" />
      <stop
         offset="1"
         style="stop-color:#ef4848;stop-opacity:1;"
         id="stop2-7-1" />
    </radialGradient>
    <radialGradient
       inkscape:collect="always"
       xlink:href="#SVGID_1_-3-2"
       id="radialGradient2"
       cx="11.113153"
       cy="50.160465"
       fx="11.113153"
       fy="50.160465"
       r="17.167591"
       gradientTransform="matrix(4.1784622,0,0,4.6183004,-41.75655,-170.35245)"
       gradientUnits="userSpaceOnUse" />
    <radialGradient
       inkscape:collect="always"
       xlink:href="#radialGradient4"
       id="radialGradient3"
       gradientUnits="userSpaceOnUse"
       gradientTransform="matrix(2.7664881,1.5972326,-1.7653624,3.0576975,58.785732,-133.90324)"
       cx="11.113153"
       cy="50.160465"
       fx="11.113153"
       fy="50.160465"
       r="17.167591" />
    <inkscape:path-effect
       effect="fillet_chamfer"
       id="path-effect7-6-2"
       is_visible="true"
       lpeversion="1"
       nodesatellites_param="F,0,0,1,0,0,0,1 @ F,0,0,1,0,0,0,1 @ F,0,1,1,0,0.28454474,0,1 @ F,0,0,1,0,1.066481,0,1 @ F,0,0,1,0,1.066481,0,1 @ F,0,1,1,0,0.28454474,0,1 @ F,0,0,1,0,0,0,1"
       radius="0"
       unit="px"
       method="auto"
       mode="F"
       chamfer_steps="1"
       flexible="false"
       use_knot_distance="true"
       apply_no_radius="true"
       apply_with_radius="true"
       only_selected="false"
       hide_knots="false" />
    <filter
       inkscape:collect="always"
       style="color-interpolation-filters:sRGB"
       id="filter1"
       x="-0.22967806"
       y="-0.12507141"
       width="1.4593561"
       height="1.2501428">
      <feGaussianBlur
         inkscape:collect="always"
         stdDeviation="0.73215108"
         id="feGaussianBlur1" />
    </filter>
    <inkscape:path-effect
       effect="fillet_chamfer"
       id="path-effect7-6-2-0"
       is_visible="true"
       lpeversion="1"
       nodesatellites_param="F,0,0,1,0,0,0,1 @ F,0,0,1,0,0,0,1 @ F,0,1,1,0,0.28454474,0,1 @ F,0,0,1,0,1.066481,0,1 @ F,0,0,1,0,1.066481,0,1 @ F,0,1,1,0,0.28454474,0,1 @ F,0,0,1,0,0,0,1"
       radius="0"
       unit="px"
       method="auto"
       mode="F"
       chamfer_steps="1"
       flexible="false"
       use_knot_distance="true"
       apply_no_radius="true"
       apply_with_radius="true"
       only_selected="false"
       hide_knots="false" />
    <radialGradient
       id="radialGradient4-6"
       cx="-489.36789"
       cy="84.434166"
       r="64.706802"
       gradientTransform="matrix(0.96794252,0,0,-0.96304834,416.42912,80.019991)"
       gradientUnits="userSpaceOnUse"
       fx="-489.36789"
       fy="84.434166">
      <stop
         offset="0"
         style="stop-color:#ae292f;stop-opacity:1;"
         id="stop3-7" />
      <stop
         offset="1"
         style="stop-color:#b75353;stop-opacity:1;"
         id="stop4-5" />
    </radialGradient>
    <inkscape:path-effect
       effect="fillet_chamfer"
       id="path-effect5-3"
       is_visible="true"
       lpeversion="1"
       nodesatellites_param="F,0,0,1,0,0,0,1 @ F,0,0,1,0,0,0,1 @ F,0,1,1,0,2.7090772,0,1 @ F,0,0,1,0,2.7090772,0,1 @ F,0,0,1,0,0,0,1 @ F,0,0,1,0,0,0,1 @ F,0,0,1,0,0,0,1 @ F,0,0,1,0,0,0,1 @ F,0,0,1,0,0,0,1 @ F,0,0,1,0,0,0,1 @ F,0,0,1,0,0,0,1"
       radius="0"
       unit="px"
       method="auto"
       mode="F"
       chamfer_steps="1"
       flexible="false"
       use_knot_distance="true"
       apply_no_radius="true"
       apply_with_radius="true"
       only_selected="false"
       hide_knots="false" />
    <radialGradient
       id="SVGID_1_-3-2-6"
       cx="-489.36789"
       cy="84.434166"
       r="64.706802"
       gradientTransform="matrix(0.96794252,0,0,-0.96304834,416.42912,80.019991)"
       gradientUnits="userSpaceOnUse"
       fx="-489.36789"
       fy="84.434166">
      <stop
         offset="0"
         style="stop-color:#ae292f;stop-opacity:1;"
         id="stop1-6-9-2" />
      <stop
         offset="1"
         style="stop-color:#ef4848;stop-opacity:1;"
         id="stop2-7-1-9" />
    </radialGradient>
    <filter
       inkscape:collect="always"
       style="color-interpolation-filters:sRGB"
       id="filter6"
       x="-0.12171725"
       y="-0.19271897"
       width="1.2434345"
       height="1.3854379">
      <feGaussianBlur
         inkscape:collect="always"
         stdDeviation="1.69966"
         id="feGaussianBlur6" />
    </filter>
    <filter
       inkscape:collect="always"
       style="color-interpolation-filters:sRGB"
       id="filter7"
       x="-0.17859061"
       y="-0.19333416"
       width="1.3571931"
       height="1.3883617">
      <feGaussianBlur
         inkscape:collect="always"
         stdDeviation="1.69966"
         id="feGaussianBlur7" />
    </filter>
  </defs>
  <sodipodi:namedview
     id="namedview4"
     pagecolor="#505050"
     bordercolor="#eeeeee"
     borderopacity="1"
     inkscape:showpageshadow="0"
     inkscape:pageopacity="0"
     inkscape:pagecheckerboard="0"
     inkscape:deskcolor="#505050"
     inkscape:zoom="12.926796"
     inkscape:cx="31.987819"
     inkscape:cy="38.060476"
     inkscape:current-layer="svg4" />
  <path
     d="m 33.152344,11.220703 c -3.886806,-0.05288 -7.622753,1.759961 -9.59375,5.173828 l -1.35594,2.347496 a 2.7085887,2.7085887 75.006052 0 0 0.991111,3.700439 l 0.0031,0.0018 a 2.7095656,2.7095656 165.00605 0 0 3.701107,-0.99129 l 1.355939,-2.347494 c 1.501713,-2.601043 5.441955,-3.118344 8.1875,-1.533203 2.745545,1.585141 4.547343,5.438124 2.767578,7.857421 l -2.710937,4.695313 4.695312,2.710937 2.710938,-4.695312 c 3.003425,-5.202084 0.739137,-12.09339 -4.751953,-15.263672 -1.887562,-1.089784 -3.964054,-1.628549 -6,-1.65625 z"
     style="fill:url(#radialGradient3);stroke:#ffffff;stroke-width:0"
     id="path4"
     inkscape:path-effect="#path-effect5"
     inkscape:original-d="m 33.152344,11.220703 c -3.886806,-0.05288 -7.622753,1.759961 -9.59375,5.173828 l -2.710938,4.69336 4.695313,2.710937 2.710937,-4.693359 c 1.501713,-2.601043 5.441955,-3.118344 8.1875,-1.533203 2.745545,1.585141 4.547343,5.438124 2.767578,7.857421 l -2.710937,4.695313 4.695312,2.710937 2.710938,-4.695312 c 3.003425,-5.202084 0.739137,-12.09339 -4.751953,-15.263672 -1.887562,-1.089784 -3.964054,-1.628549 -6,-1.65625 z"
     transform="matrix(1.3080318,0,0,1.3080318,-8.9368278,-9.0733057)" />
  <path
     d="m 33.152344,11.220703 c -3.886806,-0.05288 -7.622753,1.759961 -9.59375,5.173828 l -1.35594,2.347496 a 2.7085887,2.7085887 75.006052 0 0 0.991111,3.700439 l 0.0031,0.0018 a 2.7095656,2.7095656 165.00605 0 0 3.701107,-0.99129 l 1.355939,-2.347494 c 1.501713,-2.601043 5.441955,-3.118344 8.1875,-1.533203 2.745545,1.585141 4.547343,5.438124 2.767578,7.857421 l -2.710937,4.695313 4.695312,2.710937 2.710938,-4.695312 c 3.003425,-5.202084 0.739137,-12.09339 -4.751953,-15.263672 -1.887562,-1.089784 -3.964054,-1.628549 -6,-1.65625 z"
     style="mix-blend-mode:normal;fill:none;stroke:#000000;stroke-width:0.2;stroke-dasharray:none;stroke-opacity:1;filter:url(#filter7)"
     id="path4-1"
     inkscape:path-effect="#path-effect5-3"
     inkscape:original-d="m 33.152344,11.220703 c -3.886806,-0.05288 -7.622753,1.759961 -9.59375,5.173828 l -2.710938,4.69336 4.695313,2.710937 2.710937,-4.693359 c 1.501713,-2.601043 5.441955,-3.118344 8.1875,-1.533203 2.745545,1.585141 4.547343,5.438124 2.767578,7.857421 l -2.710937,4.695313 4.695312,2.710937 2.710938,-4.695312 c 3.003425,-5.202084 0.739137,-12.09339 -4.751953,-15.263672 -1.887562,-1.089784 -3.964054,-1.628549 -6,-1.65625 z"
     transform="matrix(1.3080318,0,0,1.3080318,-8.9368283,-9.0733056)" />
  <path
     style="fill:url(#radialGradient2);stroke:#ffffff;stroke-width:0;stroke-dasharray:none;stroke-opacity:1"
     d="m 13.286871,30.032576 c -2.073415,0 -3.7426257,1.58136 -3.7426257,3.545647 v 21.273872 c 0,1.964288 1.6692107,3.545646 3.7426257,3.545646 h 37.426258 c 2.073413,0 3.742625,-1.581358 3.742625,-3.545646 V 33.578223 c 0,-1.964287 -1.669212,-3.545647 -3.742625,-3.545647 z"
     id="path3-3"
     sodipodi:nodetypes="sssssssss" />
  <g
     id="g2"
     transform="matrix(1.3080318,0,0,1.3080318,-9.8570166,-10.419484)">
    <path
       id="rect1-2-7"
       style="opacity:0.486411;fill:#000000;fill-opacity:1;stroke:none;stroke-width:0.2;stroke-linecap:square;stroke-dasharray:none;stroke-opacity:1;paint-order:stroke fill markers"
       d="m 32,37.626716 c 2.233423,5.08e-4 4.04354,1.811499 4.042969,4.044922 -0.0035,1.339108 -0.668877,2.582968 -1.765318,3.330515 -0.129819,0.08851 -0.217253,0.277155 -0.188525,0.431657 l 1.114356,5.993214 a 0.88646216,0.88646216 129.73346 0 1 -0.871525,1.04851 l -4.663913,0 a 0.88646216,0.88646216 50.266541 0 1 -0.871525,-1.04851 l 1.114356,-5.993214 c 0.02873,-0.154502 -0.0587,-0.343146 -0.18852,-0.431654 C 28.625907,44.25461 27.960462,43.010748 27.957031,41.671638 27.95646,39.438215 29.766577,37.627224 32,37.626716 Z"
       inkscape:path-effect="#path-effect7-6-2"
       inkscape:original-d="m 32,37.626716 c 2.233423,5.08e-4 4.04354,1.811499 4.042969,4.044922 -0.0037,1.434402 -0.766936,2.759518 -2.005859,3.482422 l 1.361328,7.321474 H 28.601563 L 29.962891,45.15406 C 28.723967,44.431156 27.960706,43.10604 27.957031,41.671638 27.95646,39.438215 29.766577,37.627224 32,37.626716 Z"
       transform="translate(0,-3.2825344)"
       sodipodi:nodetypes="cccccccc" />
    <path
       id="rect1-2-7-9"
       style="opacity:1;fill:none;fill-opacity:1;stroke:#4f0006;stroke-width:0.2;stroke-linecap:square;stroke-dasharray:none;stroke-opacity:1;paint-order:stroke fill markers;filter:url(#filter1)"
       d="m 32,37.626716 c 2.233423,5.08e-4 4.04354,1.811499 4.042969,4.044922 -0.0035,1.339108 -0.668877,2.582968 -1.765318,3.330515 -0.129819,0.08851 -0.217253,0.277155 -0.188525,0.431657 l 1.114356,5.993214 a 0.88646216,0.88646216 129.73346 0 1 -0.871525,1.04851 l -4.663913,0 a 0.88646216,0.88646216 50.266541 0 1 -0.871525,-1.04851 l 1.114356,-5.993214 c 0.02873,-0.154502 -0.0587,-0.343146 -0.18852,-0.431654 C 28.625907,44.25461 27.960462,43.010748 27.957031,41.671638 27.95646,39.438215 29.766577,37.627224 32,37.626716 Z"
       inkscape:path-effect="#path-effect7-6-2-0"
       inkscape:original-d="m 32,37.626716 c 2.233423,5.08e-4 4.04354,1.811499 4.042969,4.044922 -0.0037,1.434402 -0.766936,2.759518 -2.005859,3.482422 l 1.361328,7.321474 H 28.601563 L 29.962891,45.15406 C 28.723967,44.431156 27.960706,43.10604 27.957031,41.671638 27.95646,39.438215 29.766577,37.627224 32,37.626716 Z"
       transform="translate(0,-3.2825344)"
       sodipodi:nodetypes="cccccccc" />
  </g>
  <path
     style="mix-blend-mode:normal;fill:none;stroke:#000000;stroke-width:0.2;stroke-dasharray:none;stroke-opacity:1;filter:url(#filter6)"
     d="m 17.693674,30.49589 c -1.585141,0 -2.861265,1.208961 -2.861265,2.710673 v 16.264033 c 0,1.501713 1.276124,2.710673 2.861265,2.710673 h 28.612652 c 1.58514,0 2.861265,-1.20896 2.861265,-2.710673 V 33.206563 c 0,-1.501712 -1.276125,-2.710673 -2.861265,-2.710673 z"
     id="path3-3-2"
     sodipodi:nodetypes="sssssssss"
     transform="matrix(1.3080318,0,0,1.3080318,-9.8570169,-9.8570165)" />
</svg>
