<?xml version="1.0" encoding="UTF-8" standalone="no"?>
<svg
   width="64"
   height="64"
   version="1.1"
   id="svg9"
   sodipodi:docname="yubioath.svg"
   inkscape:version="1.4 (e7c3feb100, 2024-10-09)"
   xmlns:inkscape="http://www.inkscape.org/namespaces/inkscape"
   xmlns:sodipodi="http://sodipodi.sourceforge.net/DTD/sodipodi-0.dtd"
   xmlns:xlink="http://www.w3.org/1999/xlink"
   xmlns="http://www.w3.org/2000/svg"
   xmlns:svg="http://www.w3.org/2000/svg">
  <defs
     id="defs9">
    <inkscape:path-effect
       effect="fillet_chamfer"
       id="path-effect12"
       is_visible="true"
       lpeversion="1"
       nodesatellites_param="F,0,1,1,0,3.012227,0,1 @ F,0,0,1,0,3.012227,0,1 @ F,0,0,1,0,0,0,1 @ F,0,1,1,0,3.012227,0,1 @ F,0,1,1,0,3.012227,0,1 @ F,0,1,1,0,3.012227,0,1 @ F,0,1,1,0,3.012227,0,1 @ F,0,0,1,0,0,0,1"
       radius="0"
       unit="px"
       method="auto"
       mode="F"
       chamfer_steps="1"
       flexible="false"
       use_knot_distance="true"
       apply_no_radius="true"
       apply_with_radius="true"
       only_selected="false"
       hide_knots="false" />
    <linearGradient
       id="linearGradient11"
       inkscape:collect="always">
      <stop
         style="stop-color:#83d03e;stop-opacity:1;"
         offset="0"
         id="stop11" />
      <stop
         style="stop-color:#3cbbca;stop-opacity:1;"
         offset="1"
         id="stop12" />
    </linearGradient>
    <inkscape:path-effect
       effect="fillet_chamfer"
       id="path-effect11"
       is_visible="true"
       lpeversion="1"
       nodesatellites_param="F,0,0,1,0,0,0,1 @ F,0,0,1,0,0,0,1 @ F,0,0,1,0,0,0,1 @ F,0,0,1,0,0,0,1 @ F,0,1,1,0,0.68974361,0,1 @ F,0,1,1,0,0.68974361,0,1 @ F,0,0,1,0,0.68974361,0,1 @ F,0,1,1,0,0.68974361,0,1 @ F,0,1,1,0,0.68974361,0,1 @ F,0,1,1,0,0.68974361,0,1 @ F,0,0,1,0,0,0,1 | F,0,0,1,0,0,0,1 @ F,0,0,1,0,0,0,1 @ F,0,0,1,0,0,0,1 @ F,0,0,1,0,0,0,1"
       radius="0"
       unit="px"
       method="auto"
       mode="F"
       chamfer_steps="1"
       flexible="false"
       use_knot_distance="true"
       apply_no_radius="true"
       apply_with_radius="true"
       only_selected="false"
       hide_knots="false" />
    <inkscape:path-effect
       effect="fillet_chamfer"
       id="path-effect10"
       is_visible="true"
       lpeversion="1"
       nodesatellites_param="F,0,0,1,0,0,0,1 @ F,0,0,1,0,0,0,1 @ F,0,1,1,0,1.1982939,0,1 @ F,0,1,1,0,1.1982939,0,1 @ F,0,1,1,0,1.1982939,0,1 @ F,0,0,1,0,1.1982939,0,1 @ F,0,1,1,0,1.1982939,0,1 @ F,0,1,1,0,1.1982939,0,1 @ F,0,1,1,0,1.1982939,0,1 @ F,0,0,1,0,0,0,1"
       radius="0"
       unit="px"
       method="auto"
       mode="F"
       chamfer_steps="1"
       flexible="false"
       use_knot_distance="true"
       apply_no_radius="true"
       apply_with_radius="true"
       only_selected="false"
       hide_knots="false" />
    <linearGradient
       id="linearGradient9"
       inkscape:collect="always">
      <stop
         style="stop-color:#3a877b;stop-opacity:1;"
         offset="0"
         id="stop9" />
      <stop
         style="stop-color:#538f69;stop-opacity:1;"
         offset="1"
         id="stop10" />
    </linearGradient>
    <radialGradient
       inkscape:collect="always"
       xlink:href="#linearGradient9"
       id="radialGradient10"
       cx="36.676922"
       cy="57.145664"
       fx="36.676922"
       fy="57.145664"
       r="9.402344"
       gradientTransform="matrix(2.9198705,0,0,3.6846177,-70.414939,-148.67336)"
       gradientUnits="userSpaceOnUse" />
    <radialGradient
       inkscape:collect="always"
       xlink:href="#linearGradient11"
       id="radialGradient12"
       cx="3.2273505"
       cy="62.249573"
       fx="3.2273505"
       fy="62.249573"
       r="28"
       gradientUnits="userSpaceOnUse"
       gradientTransform="matrix(3.7790484,0,0,3.7790483,-6.6010216,-175.482)" />
    <inkscape:path-effect
       effect="fillet_chamfer"
       id="path-effect12-6"
       is_visible="true"
       lpeversion="1"
       nodesatellites_param="F,0,1,1,0,3.012227,0,1 @ F,0,0,1,0,3.012227,0,1 @ F,0,0,1,0,0,0,1 @ F,0,1,1,0,3.012227,0,1 @ F,0,1,1,0,3.012227,0,1 @ F,0,1,1,0,3.012227,0,1 @ F,0,1,1,0,3.012227,0,1 @ F,0,0,1,0,0,0,1"
       radius="0"
       unit="px"
       method="auto"
       mode="F"
       chamfer_steps="1"
       flexible="false"
       use_knot_distance="true"
       apply_no_radius="true"
       apply_with_radius="true"
       only_selected="false"
       hide_knots="false" />
    <filter
       inkscape:collect="always"
       style="color-interpolation-filters:sRGB"
       id="filter12"
       x="-0.14682129"
       y="-0.13075502"
       width="1.293645"
       height="1.2615122">
      <feGaussianBlur
         inkscape:collect="always"
         stdDeviation="1.4514029"
         id="feGaussianBlur12" />
    </filter>
    <inkscape:path-effect
       effect="fillet_chamfer"
       id="path-effect11-5"
       is_visible="true"
       lpeversion="1"
       nodesatellites_param="F,0,0,1,0,0,0,1 @ F,0,0,1,0,0,0,1 @ F,0,0,1,0,0,0,1 @ F,0,0,1,0,0,0,1 @ F,0,1,1,0,0.68974361,0,1 @ F,0,1,1,0,0.68974361,0,1 @ F,0,0,1,0,0.68974361,0,1 @ F,0,1,1,0,0.68974361,0,1 @ F,0,1,1,0,0.68974361,0,1 @ F,0,1,1,0,0.68974361,0,1 @ F,0,0,1,0,0,0,1 | F,0,0,1,0,0,0,1 @ F,0,0,1,0,0,0,1 @ F,0,0,1,0,0,0,1 @ F,0,0,1,0,0,0,1"
       radius="0"
       unit="px"
       method="auto"
       mode="F"
       chamfer_steps="1"
       flexible="false"
       use_knot_distance="true"
       apply_no_radius="true"
       apply_with_radius="true"
       only_selected="false"
       hide_knots="false" />
    <filter
       inkscape:collect="always"
       style="color-interpolation-filters:sRGB"
       id="filter13"
       x="-0.15982419"
       y="-0.099890116"
       width="1.3196484"
       height="1.1997802">
      <feGaussianBlur
         inkscape:collect="always"
         stdDeviation="0.88893351"
         id="feGaussianBlur13" />
    </filter>
    <inkscape:path-effect
       effect="fillet_chamfer"
       id="path-effect10-1"
       is_visible="true"
       lpeversion="1"
       nodesatellites_param="F,0,0,1,0,0,0,1 @ F,0,0,1,0,0,0,1 @ F,0,1,1,0,1.1982939,0,1 @ F,0,1,1,0,1.1982939,0,1 @ F,0,1,1,0,1.1982939,0,1 @ F,0,0,1,0,1.1982939,0,1 @ F,0,1,1,0,1.1982939,0,1 @ F,0,1,1,0,1.1982939,0,1 @ F,0,1,1,0,1.1982939,0,1 @ F,0,0,1,0,0,0,1"
       radius="0"
       unit="px"
       method="auto"
       mode="F"
       chamfer_steps="1"
       flexible="false"
       use_knot_distance="true"
       apply_no_radius="true"
       apply_with_radius="true"
       only_selected="false"
       hide_knots="false" />
    <filter
       inkscape:collect="always"
       style="color-interpolation-filters:sRGB"
       id="filter14"
       x="-0.11967603"
       y="-0.11967603"
       width="1.2393521"
       height="1.2393521">
      <feGaussianBlur
         inkscape:collect="always"
         stdDeviation="2.5209608"
         id="feGaussianBlur14" />
    </filter>
    <filter
       inkscape:collect="always"
       style="color-interpolation-filters:sRGB"
       id="filter15"
       x="-0.35639292"
       y="-0.24613108"
       width="1.7127858"
       height="1.4922643">
      <feGaussianBlur
         inkscape:collect="always"
         stdDeviation="2.7470375"
         id="feGaussianBlur15" />
    </filter>
  </defs>
  <sodipodi:namedview
     id="namedview9"
     pagecolor="#505050"
     bordercolor="#eeeeee"
     borderopacity="1"
     inkscape:showpageshadow="0"
     inkscape:pageopacity="0"
     inkscape:pagecheckerboard="0"
     inkscape:deskcolor="#505050"
     inkscape:zoom="12.926796"
     inkscape:cx="31.407628"
     inkscape:cy="38.98878"
     inkscape:current-layer="svg9" />
  <path
     style="fill:url(#radialGradient12);stroke-width:0.917702"
     d="M 32,6.3064105 A 25.695647,25.695647 0 0 0 6.3043535,32.002057 25.695647,25.695647 0 0 0 32,57.697704 25.695647,25.695647 0 0 0 57.695647,32.002057 25.695647,25.695647 0 0 0 32,6.3064105 Z"
     id="path2" />
  <path
     style="fill:none;stroke:#000000;stroke-width:0.2;stroke-dasharray:none;stroke-opacity:1;filter:url(#filter14)"
     d="M 32,6.2381621 A 25.695647,25.695647 0 0 0 6.3043535,31.933808 25.695647,25.695647 0 0 0 32,57.629455 25.695647,25.695647 0 0 0 57.695647,31.933808 25.695647,25.695647 0 0 0 32,6.2381621 Z"
     id="path2-9" />
  <path
     style="fill:#ffffff;stroke-linecap:round;stroke-linejoin:round"
     d="m 21.990408,19.00768 a 3.0013612,3.0013612 96.095657 0 0 -0.45062,4.219584 l 7.862556,9.829377 -5.942732,7.725701 a 3.0135707,3.0135707 82.580834 0 0 0.550196,4.22521 2.9985644,2.9985644 172.34458 0 0 4.203732,-0.565037 L 44.540366,23.217641 A 3.0135426,3.0135426 82.581101 0 0 43.990192,18.992448 2.99841,2.99841 172.34309 0 0 39.786583,19.55758 L 33.169922,28.160156 26.22352,19.477154 A 3.0110023,3.0110023 6.3285408 0 0 21.990408,19.00768 Z"
     id="path5"
     inkscape:path-effect="#path-effect12"
     inkscape:original-d="m 24.341797,17.125 -4.683594,3.75 9.744141,12.181641 -7.779297,10.113281 4.753906,3.660156 20,-26 -4.753906,-3.660156 -8.453125,10.990234 z"
     transform="matrix(1.0998962,0,0,1.0998962,-3.3824995,-3.1918662)" />
  <path
     style="mix-blend-mode:normal;fill:none;fill-opacity:1;stroke:#000000;stroke-width:0.166871;stroke-linecap:round;stroke-linejoin:round;stroke-dasharray:none;stroke-opacity:1;filter:url(#filter12)"
     d="m 21.990408,19.00768 a 3.0013612,3.0013612 96.095657 0 0 -0.45062,4.219584 l 7.862556,9.829377 -5.942732,7.725701 a 3.0135707,3.0135707 82.580834 0 0 0.550196,4.22521 2.9985644,2.9985644 172.34458 0 0 4.203732,-0.565037 L 44.540366,23.217641 A 3.0135426,3.0135426 82.581101 0 0 43.990192,18.992448 2.99841,2.99841 172.34309 0 0 39.786583,19.55758 L 33.169922,28.160156 26.22352,19.477154 A 3.0110023,3.0110023 6.3285408 0 0 21.990408,19.00768 Z"
     id="path5-7"
     inkscape:path-effect="#path-effect12-6"
     inkscape:original-d="m 24.341797,17.125 -4.683594,3.75 9.744141,12.181641 -7.779297,10.113281 4.753906,3.660156 20,-26 -4.753906,-3.660156 -8.453125,10.990234 z"
     transform="matrix(1.0998962,0,0,1.0998962,-3.3824995,-3.1918662)" />
  <path
     d="m 48,32.919922 c -5.163743,6.29e-4 -9.401715,4.238601 -9.402344,9.402344 1.49e-4,3.181872 1.651407,5.996193 4.172567,7.692226 0.548755,0.369158 0.496017,0.606602 -0.165783,0.606602 h -0.01357 a 1.1982939,1.1982939 135 0 0 -1.198294,1.198294 v 5.230365 a 1.1982939,1.1982939 45 0 0 1.198294,1.198294 h 0.398334 a 1.1982939,1.1982939 45 0 1 1.198294,1.198294 0.96905008,0.96905008 29.027861 0 0 1.198294,0.664987 h 5.228412 A 1.1982939,1.1982939 135 0 0 51.8125,58.913034 v -6.941303 c 0,-0.6618 0.493721,-1.414205 1.058567,-1.75829 2.719917,-1.65688 4.531121,-4.565772 4.531277,-7.891175 C 57.401715,37.158523 53.163743,32.920551 48,32.919922 Z"
     id="path8-3"
     sodipodi:nodetypes="ccccccccccc"
     style="fill:url(#radialGradient10)"
     inkscape:path-effect="#path-effect10"
     inkscape:original-d="m 48,32.919922 c -5.163743,6.29e-4 -9.401715,4.238601 -9.402344,9.402344 1.68e-4,3.59818 2.111764,6.726338 5.205078,8.298828 h -2.410156 v 7.626953 H 44.1875 v 1.863281 h 7.625 V 50.773437 C 55.11092,49.275825 57.402169,46.0625 57.402344,42.322266 57.401715,37.158523 53.163743,32.920551 48,32.919922 Z"
     transform="matrix(0.91770166,0,0,0.91770166,2.6335468,2.6356038)" />
  <path
     d="m 48,32.919922 c -5.163743,6.29e-4 -9.401715,4.238601 -9.402344,9.402344 1.49e-4,3.181872 1.651407,5.996193 4.172567,7.692226 0.548755,0.369158 0.496017,0.606602 -0.165783,0.606602 h -0.01357 a 1.1982939,1.1982939 135 0 0 -1.198294,1.198294 v 5.230365 a 1.1982939,1.1982939 45 0 0 1.198294,1.198294 h 0.398334 a 1.1982939,1.1982939 45 0 1 1.198294,1.198294 0.96905008,0.96905008 29.027861 0 0 1.198294,0.664987 h 5.228412 A 1.1982939,1.1982939 135 0 0 51.8125,58.913034 v -6.941303 c 0,-0.6618 0.493721,-1.414205 1.058567,-1.75829 2.719917,-1.65688 4.531121,-4.565772 4.531277,-7.891175 C 57.401715,37.158523 53.163743,32.920551 48,32.919922 Z"
     id="path8-3-3"
     sodipodi:nodetypes="ccccccccccc"
     style="fill:none;stroke:#000000;stroke-width:0.21793575;stroke-dasharray:none;stroke-opacity:1;filter:url(#filter15)"
     inkscape:path-effect="#path-effect10-1"
     inkscape:original-d="m 48,32.919922 c -5.163743,6.29e-4 -9.401715,4.238601 -9.402344,9.402344 1.68e-4,3.59818 2.111764,6.726338 5.205078,8.298828 h -2.410156 v 7.626953 H 44.1875 v 1.863281 h 7.625 V 50.773437 C 55.11092,49.275825 57.402169,46.0625 57.402344,42.322266 57.401715,37.158523 53.163743,32.920551 48,32.919922 Z"
     transform="matrix(0.91770166,0,0,0.91770166,2.6335468,2.5673554)" />
  <path
     id="path8"
     style="fill:#ffffff;stroke-width:0.931624"
     d="m 54.987179,42.323077 c 0,-3.858912 -3.128267,-6.987179 -6.987179,-6.987179 -3.858912,0 -6.987179,3.128267 -6.987179,6.987179 3.6e-4,3.319967 2.336853,6.181258 5.589743,6.845252 v 3.17868 a 0.68974361,0.68974361 135 0 1 -0.689744,0.689744 l -1.415384,0 a 0.68974361,0.68974361 135 0 0 -0.689744,0.689744 v 1.415383 a 0.68974361,0.68974361 45 0 0 0.689744,0.689744 h 1.415384 a 0.68974361,0.68974361 45 0 1 0.689744,0.689744 v 0.48376 a 0.68974361,0.68974361 45 0 0 0.689744,0.689744 l 1.415384,0 a 0.68974361,0.68974361 135 0 0 0.689744,-0.689744 v -7.836799 c 3.25289,-0.663994 5.589383,-3.525285 5.589743,-6.845252 z m -2.794871,0 c 0,2.315348 -1.87696,4.192308 -4.192308,4.192308 -2.315348,0 -4.192308,-1.87696 -4.192308,-4.192308 0,-2.315347 1.876961,-4.192307 4.192308,-4.192307 2.315347,0 4.192308,1.87696 4.192308,4.192307 z"
     inkscape:path-effect="#path-effect11"
     inkscape:original-d="M 54.987179,42.323077 A 6.9871793,6.9871793 0 0 0 48,35.335898 a 6.9871793,6.9871793 0 0 0 -6.987179,6.987179 6.9871793,6.9871793 0 0 0 5.589743,6.845252 v 3.868424 h -2.794872 v 2.794871 h 2.794872 v 1.863248 h 2.794872 v -8.526543 a 6.9871793,6.9871793 0 0 0 5.589743,-6.845252 z m -2.794871,0 A 4.1923075,4.1923075 0 0 1 48,46.515385 4.1923075,4.1923075 0 0 1 43.807692,42.323077 4.1923075,4.1923075 0 0 1 48,38.13077 a 4.1923075,4.1923075 0 0 1 4.192308,4.192307 z"
     transform="matrix(0.91770166,0,0,0.91770166,2.6335468,2.6356038)" />
  <path
     id="path8-35"
     style="mix-blend-mode:normal;fill:none;stroke:#000000;stroke-width:0.2;stroke-dasharray:none;stroke-opacity:1;filter:url(#filter13)"
     d="m 54.987179,42.323077 c 0,-3.858912 -3.128267,-6.987179 -6.987179,-6.987179 -3.858912,0 -6.987179,3.128267 -6.987179,6.987179 3.6e-4,3.319967 2.336853,6.181258 5.589743,6.845252 v 3.17868 a 0.68974361,0.68974361 135 0 1 -0.689744,0.689744 l -1.415384,0 a 0.68974361,0.68974361 135 0 0 -0.689744,0.689744 v 1.415383 a 0.68974361,0.68974361 45 0 0 0.689744,0.689744 h 1.415384 a 0.68974361,0.68974361 45 0 1 0.689744,0.689744 v 0.48376 a 0.68974361,0.68974361 45 0 0 0.689744,0.689744 l 1.415384,0 a 0.68974361,0.68974361 135 0 0 0.689744,-0.689744 v -7.836799 c 3.25289,-0.663994 5.589383,-3.525285 5.589743,-6.845252 z m -2.794871,0 c 0,2.315348 -1.87696,4.192308 -4.192308,4.192308 -2.315348,0 -4.192308,-1.87696 -4.192308,-4.192308 0,-2.315347 1.876961,-4.192307 4.192308,-4.192307 2.315347,0 4.192308,1.87696 4.192308,4.192307 z"
     inkscape:path-effect="#path-effect11-5"
     inkscape:original-d="M 54.987179,42.323077 A 6.9871793,6.9871793 0 0 0 48,35.335898 a 6.9871793,6.9871793 0 0 0 -6.987179,6.987179 6.9871793,6.9871793 0 0 0 5.589743,6.845252 v 3.868424 h -2.794872 v 2.794871 h 2.794872 v 1.863248 h 2.794872 v -8.526543 a 6.9871793,6.9871793 0 0 0 5.589743,-6.845252 z m -2.794871,0 A 4.1923075,4.1923075 0 0 1 48,46.515385 4.1923075,4.1923075 0 0 1 43.807692,42.323077 4.1923075,4.1923075 0 0 1 48,38.13077 a 4.1923075,4.1923075 0 0 1 4.192308,4.192307 z"
     transform="matrix(0.91770166,0,0,0.91770166,2.6335468,2.6356038)" />
</svg>
