<?xml version="1.0" encoding="UTF-8" standalone="no"?>
<svg
   width="64"
   height="64"
   version="1.1"
   id="svg8"
   sodipodi:docname="yubikey-personalization-gui.svg"
   inkscape:version="1.4 (e7c3feb100, 2024-10-09)"
   xmlns:inkscape="http://www.inkscape.org/namespaces/inkscape"
   xmlns:sodipodi="http://sodipodi.sourceforge.net/DTD/sodipodi-0.dtd"
   xmlns:xlink="http://www.w3.org/1999/xlink"
   xmlns="http://www.w3.org/2000/svg"
   xmlns:svg="http://www.w3.org/2000/svg">
  <defs
     id="defs8">
    <linearGradient
       id="linearGradient9"
       inkscape:collect="always">
      <stop
         style="stop-color:#ee805f;stop-opacity:1;"
         offset="0"
         id="stop9" />
      <stop
         style="stop-color:#b52d4e;stop-opacity:1;"
         offset="1"
         id="stop10" />
    </linearGradient>
    <radialGradient
       inkscape:collect="always"
       xlink:href="#linearGradient11"
       id="radialGradient12"
       cx="3.2273505"
       cy="62.249573"
       fx="3.2273505"
       fy="62.249573"
       r="28"
       gradientUnits="userSpaceOnUse"
       gradientTransform="matrix(3.7790484,0,0,3.7790483,-6.6010216,-175.482)" />
    <linearGradient
       id="linearGradient11"
       inkscape:collect="always">
      <stop
         style="stop-color:#83d03e;stop-opacity:1;"
         offset="0"
         id="stop11" />
      <stop
         style="stop-color:#3cbbca;stop-opacity:1;"
         offset="1"
         id="stop12" />
    </linearGradient>
    <filter
       inkscape:collect="always"
       style="color-interpolation-filters:sRGB"
       id="filter14"
       x="-0.11967603"
       y="-0.11967603"
       width="1.2393521"
       height="1.2393521">
      <feGaussianBlur
         inkscape:collect="always"
         stdDeviation="2.5209608"
         id="feGaussianBlur14" />
    </filter>
    <inkscape:path-effect
       effect="fillet_chamfer"
       id="path-effect12"
       is_visible="true"
       lpeversion="1"
       nodesatellites_param="F,0,1,1,0,3.012227,0,1 @ F,0,0,1,0,3.012227,0,1 @ F,0,0,1,0,0,0,1 @ F,0,1,1,0,3.012227,0,1 @ F,0,1,1,0,3.012227,0,1 @ F,0,1,1,0,3.012227,0,1 @ F,0,1,1,0,3.012227,0,1 @ F,0,0,1,0,0,0,1"
       radius="0"
       unit="px"
       method="auto"
       mode="F"
       chamfer_steps="1"
       flexible="false"
       use_knot_distance="true"
       apply_no_radius="true"
       apply_with_radius="true"
       only_selected="false"
       hide_knots="false" />
    <filter
       inkscape:collect="always"
       style="color-interpolation-filters:sRGB"
       id="filter12"
       x="-0.14682129"
       y="-0.13075502"
       width="1.293645"
       height="1.2615122">
      <feGaussianBlur
         inkscape:collect="always"
         stdDeviation="1.4514029"
         id="feGaussianBlur12" />
    </filter>
    <inkscape:path-effect
       effect="fillet_chamfer"
       id="path-effect12-6"
       is_visible="true"
       lpeversion="1"
       nodesatellites_param="F,0,1,1,0,3.012227,0,1 @ F,0,0,1,0,3.012227,0,1 @ F,0,0,1,0,0,0,1 @ F,0,1,1,0,3.012227,0,1 @ F,0,1,1,0,3.012227,0,1 @ F,0,1,1,0,3.012227,0,1 @ F,0,1,1,0,3.012227,0,1 @ F,0,0,1,0,0,0,1"
       radius="0"
       unit="px"
       method="auto"
       mode="F"
       chamfer_steps="1"
       flexible="false"
       use_knot_distance="true"
       apply_no_radius="true"
       apply_with_radius="true"
       only_selected="false"
       hide_knots="false" />
    <radialGradient
       inkscape:collect="always"
       xlink:href="#linearGradient9"
       id="radialGradient10"
       cx="35.894524"
       cy="59.439213"
       fx="35.894524"
       fy="59.439213"
       r="10.229007"
       gradientTransform="matrix(4.5366996,0,0,4.5685327,-126.94815,-212.02349)"
       gradientUnits="userSpaceOnUse" />
    <filter
       inkscape:collect="always"
       style="color-interpolation-filters:sRGB"
       id="filter10"
       x="-0.11587262"
       y="-0.11508565"
       width="1.2317452"
       height="1.2301713">
      <feGaussianBlur
         inkscape:collect="always"
         stdDeviation="0.94622674"
         id="feGaussianBlur10" />
    </filter>
  </defs>
  <sodipodi:namedview
     id="namedview8"
     pagecolor="#505050"
     bordercolor="#eeeeee"
     borderopacity="1"
     inkscape:showpageshadow="0"
     inkscape:pageopacity="0"
     inkscape:pagecheckerboard="0"
     inkscape:deskcolor="#505050"
     inkscape:zoom="18.28125"
     inkscape:cx="31.34359"
     inkscape:cy="37.524786"
     inkscape:current-layer="svg8" />
  <g
     id="g1">
    <g
       id="g2"
       transform="translate(-1.3986849e-6,0.0661903)">
      <path
         style="fill:url(#radialGradient12);stroke-width:0.917702"
         d="M 32,6.3064105 A 25.695647,25.695647 0 0 0 6.3043535,32.002057 25.695647,25.695647 0 0 0 32,57.697704 25.695647,25.695647 0 0 0 57.695647,32.002057 25.695647,25.695647 0 0 0 32,6.3064105 Z"
         id="path2-3" />
      <path
         style="fill:none;stroke:#000000;stroke-width:0.2;stroke-dasharray:none;stroke-opacity:1;filter:url(#filter14)"
         d="M 32,6.2381621 A 25.695647,25.695647 0 0 0 6.3043535,31.933808 25.695647,25.695647 0 0 0 32,57.629455 25.695647,25.695647 0 0 0 57.695647,31.933808 25.695647,25.695647 0 0 0 32,6.2381621 Z"
         id="path2-9" />
      <path
         style="fill:#ffffff;stroke-linecap:round;stroke-linejoin:round"
         d="m 21.990408,19.00768 a 3.0013612,3.0013612 96.095657 0 0 -0.45062,4.219584 l 7.862556,9.829377 -5.942732,7.725701 a 3.0135707,3.0135707 82.580834 0 0 0.550196,4.22521 2.9985644,2.9985644 172.34458 0 0 4.203732,-0.565037 L 44.540366,23.217641 A 3.0135426,3.0135426 82.581101 0 0 43.990192,18.992448 2.99841,2.99841 172.34309 0 0 39.786583,19.55758 L 33.169922,28.160156 26.22352,19.477154 A 3.0110023,3.0110023 6.3285408 0 0 21.990408,19.00768 Z"
         id="path5-6"
         inkscape:path-effect="#path-effect12"
         inkscape:original-d="m 24.341797,17.125 -4.683594,3.75 9.744141,12.181641 -7.779297,10.113281 4.753906,3.660156 20,-26 -4.753906,-3.660156 -8.453125,10.990234 z"
         transform="matrix(1.0998962,0,0,1.0998962,-3.3824995,-3.1918662)" />
      <path
         style="mix-blend-mode:normal;fill:none;fill-opacity:1;stroke:#000000;stroke-width:0.166871;stroke-linecap:round;stroke-linejoin:round;stroke-dasharray:none;stroke-opacity:1;filter:url(#filter12)"
         d="m 21.990408,19.00768 a 3.0013612,3.0013612 96.095657 0 0 -0.45062,4.219584 l 7.862556,9.829377 -5.942732,7.725701 a 3.0135707,3.0135707 82.580834 0 0 0.550196,4.22521 2.9985644,2.9985644 172.34458 0 0 4.203732,-0.565037 L 44.540366,23.217641 A 3.0135426,3.0135426 82.581101 0 0 43.990192,18.992448 2.99841,2.99841 172.34309 0 0 39.786583,19.55758 L 33.169922,28.160156 26.22352,19.477154 A 3.0110023,3.0110023 6.3285408 0 0 21.990408,19.00768 Z"
         id="path5-7"
         inkscape:path-effect="#path-effect12-6"
         inkscape:original-d="m 24.341797,17.125 -4.683594,3.75 9.744141,12.181641 -7.779297,10.113281 4.753906,3.660156 20,-26 -4.753906,-3.660156 -8.453125,10.990234 z"
         transform="matrix(1.0998962,0,0,1.0998962,-3.3824995,-3.1918662)" />
    </g>
  </g>
  <path
     style="fill:url(#radialGradient10);stroke-linejoin:round"
     d="m 45.927734,36.699219 c -1.420543,9.04e-4 -2.500712,1.276452 -2.267578,2.677734 l -0.02344,-0.568359 -0.05469,0.662109 -0.601562,-0.283203 c -1.08189,-0.510138 -2.374208,-0.10597 -2.972657,0.929687 l -2,3.464844 c -0.597872,1.035688 -0.302416,2.356741 0.679693,3.039063 L 39.234375,47 38.689453,47.378906 c -0.982793,0.681726 -1.279122,2.002893 -0.681641,3.039063 l 2,3.464843 c 0.598448,1.035658 1.890767,1.439826 2.972657,0.929688 l 0.601562,-0.283203 0.05469,0.662109 c 0.09923,1.191772 1.095119,2.108708 2.291015,2.109375 h 4 c 1.196646,3.49e-4 2.193681,-0.916855 2.292969,-2.109375 l 0.05469,-0.662109 0.601562,0.283203 c 1.08189,0.510137 2.374208,0.105969 2.972656,-0.929688 l 2,-3.464843 c 0.597872,-1.035688 0.302417,-2.35674 -0.679691,-3.039063 L 56.623047,47 57.167969,46.621094 c 0.982793,-0.681726 1.279121,-2.002893 0.68164,-3.039063 l -2,-3.464844 C 55.25116,39.08153 53.958843,38.677363 52.876953,39.1875 l -0.601562,0.283203 -0.05469,-0.662109 c -0.09929,-1.19252 -1.096323,-2.109724 -2.292969,-2.109375 z"
     id="path8-5"
     sodipodi:nodetypes="cccccccccccccccccccccccccccccccc" />
  <path
     style="fill:#ffffff"
     d="m45.92878 39.00012-0.1764 2.1072a6.2858 6.2858 0 0 0 -1.83704 1.06252l-1.91518-0.9018-2 3.4642 1.73882 1.2076a6.2858 6.2858 0 0 0 -0.096 1.06026 6.2858 6.2858 0 0 0 0.0914 1.06474l-1.73438 1.20312 2 3.4642 1.91072-0.89956a6.2858 6.2858 0 0 0 1.8415 1.0558l0.1764 2.1116h4l0.1764-2.1072a6.2858 6.2858 0 0 0 1.83708 -1.06252l1.91516 0.9018 2-3.4642-1.73884-1.2076a6.2858 6.2858 0 0 0 0.096 -1.06026 6.2858 6.2858 0 0 0 -0.0914 -1.06474l1.73438-1.20312-2-3.4642-1.91072 0.89956a6.2858 6.2858 0 0 0 -1.842 -1.056l-0.176-2.112h-4zm2 5.7144a2.2858 2.2858 0 0 1 2.286 2.286 2.2858 2.2858 0 0 1 -2.286 2.286 2.2858 2.2858 0 0 1 -2.286 -2.286 2.2858 2.2858 0 0 1 2.286 -2.286z"
     id="path8" />
  <path
     id="path8-5-9"
     style="fill:none;stroke-linejoin:round;stroke:#000000;stroke-opacity:1;stroke-width:0.2;stroke-dasharray:none;filter:url(#filter10)"
     d="m 45.927732,36.699219 c -1.242976,7.91e-4 -2.224931,0.977247 -2.294922,2.160156 L 43.58203,39.470703 42.980468,39.1875 c -1.081892,-0.510138 -2.374209,-0.105969 -2.972658,0.929688 l -2,3.464843 c -0.597872,1.035689 -0.302422,2.356741 0.679687,3.039063 L 39.234372,47 38.68945,47.378907 c -0.982793,0.681725 -1.279121,2.002892 -0.68164,3.039062 l 2,3.464844 c 0.598448,1.035658 1.890766,1.439825 2.972656,0.929687 l 0.601562,-0.283203 0.05469,0.66211 c 0.09923,1.191772 1.09512,2.108708 2.291016,2.109374 h 4 c 1.196646,3.49e-4 2.19368,-0.916854 2.292968,-2.109374 l 0.05469,-0.66211 0.601562,0.283203 c 1.08189,0.510137 2.374209,0.10597 2.972657,-0.929687 l 2,-3.464844 c 0.597872,-1.035688 0.30242,-2.35674 -0.679688,-3.039062 L 56.623048,47 57.16797,46.621094 c 0.982793,-0.681726 1.279122,-2.002893 0.681641,-3.039063 l -2,-3.464843 C 55.251162,39.081531 53.958844,38.677363 52.876954,39.1875 l -0.601562,0.283203 -0.05469,-0.662109 c -0.09929,-1.19252 -1.096322,-2.109724 -2.292968,-2.109375 z m 0,2.300781 h 4 l 0.175781,2.111328 a 6.2858,6.2858 0 0 1 1.84375,1.056641 l 1.910156,-0.900391 2,3.464844 -1.734375,1.203125 A 6.2858,6.2858 0 0 1 54.214844,47 a 6.2858,6.2858 0 0 1 -0.0957,1.060547 l 1.738281,1.207031 -2,3.464844 -1.916015,-0.902344 a 6.2858,6.2858 0 0 1 -1.835938,1.0625 L 49.927738,55 h -4 L 45.751956,52.888672 A 6.2858,6.2858 0 0 1 43.91016,51.832031 l -1.910157,0.900391 -2,-3.464844 1.734375,-1.203125 A 6.2858,6.2858 0 0 1 41.642578,47 a 6.2858,6.2858 0 0 1 0.0957,-1.060547 l -1.738281,-1.207031 2,-3.464844 1.916016,0.902344 a 6.2858,6.2858 0 0 1 1.835937,-1.0625 z m 2,5.714844 A 2.2858,2.2858 0 0 0 45.642575,47 2.2858,2.2858 0 0 0 47.927732,49.28711 2.2858,2.2858 0 0 0 50.214841,47 2.2858,2.2858 0 0 0 47.927732,44.714844 Z" />
</svg>
