<?xml version="1.0" encoding="UTF-8" standalone="no"?>
<svg
   width="64"
   height="64"
   version="1"
   id="svg8"
   sodipodi:docname="zart.svg"
   inkscape:version="1.4 (e7c3feb100, 2024-10-09)"
   xmlns:inkscape="http://www.inkscape.org/namespaces/inkscape"
   xmlns:sodipodi="http://sodipodi.sourceforge.net/DTD/sodipodi-0.dtd"
   xmlns:xlink="http://www.w3.org/1999/xlink"
   xmlns="http://www.w3.org/2000/svg"
   xmlns:svg="http://www.w3.org/2000/svg">
  <defs
     id="defs8">
    <linearGradient
       id="linearGradient19"
       inkscape:collect="always">
      <stop
         style="stop-color:#6664a8;stop-opacity:1;"
         offset="0"
         id="stop18" />
      <stop
         style="stop-color:#7d67a9;stop-opacity:1;"
         offset="1"
         id="stop19" />
    </linearGradient>
    <linearGradient
       id="linearGradient14"
       inkscape:collect="always">
      <stop
         style="stop-color:#212056;stop-opacity:1;"
         offset="0"
         id="stop14" />
      <stop
         style="stop-color:#4b3b6a;stop-opacity:1;"
         offset="1"
         id="stop15" />
    </linearGradient>
    <radialGradient
       inkscape:collect="always"
       xlink:href="#linearGradient14"
       id="radialGradient15"
       cx="14.709951"
       cy="61.373249"
       fx="14.709951"
       fy="61.373249"
       r="20.000173"
       gradientTransform="matrix(2.7538452,-1.4117702,1.1314983,2.207138,-88.696463,-55.943526)"
       gradientUnits="userSpaceOnUse" />
    <radialGradient
       inkscape:collect="always"
       xlink:href="#linearGradient19"
       id="radialGradient18"
       cx="8.5190639"
       cy="64.490891"
       fx="8.5190668"
       fy="64.490883"
       r="28"
       gradientUnits="userSpaceOnUse"
       gradientTransform="matrix(1.9670498,-1.0084161,0.80822014,1.5765408,-47.624073,-34.333139)" />
    <filter
       inkscape:collect="always"
       style="color-interpolation-filters:sRGB"
       id="filter19"
       x="-0.1707636"
       y="-0.1707636"
       width="1.3415272"
       height="1.3415272">
      <feGaussianBlur
         inkscape:collect="always"
         stdDeviation="3.3373569"
         id="feGaussianBlur19" />
    </filter>
    <filter
       inkscape:collect="always"
       style="color-interpolation-filters:sRGB"
       id="filter20"
       x="-0.084047712"
       y="-0.085692581"
       width="1.1681366"
       height="1.169783">
      <feGaussianBlur
         inkscape:collect="always"
         stdDeviation="1.384583"
         id="feGaussianBlur20" />
    </filter>
    <radialGradient
       inkscape:collect="always"
       xlink:href="#linearGradient19"
       id="radialGradient21"
       cx="21.256191"
       cy="54.051201"
       fx="21.256191"
       fy="54.051201"
       r="4.2694125"
       gradientTransform="matrix(12.90046,-6.613474,5.3005335,10.339395,-539.45866,-359.53083)"
       gradientUnits="userSpaceOnUse" />
  </defs>
  <sodipodi:namedview
     id="namedview8"
     pagecolor="#505050"
     bordercolor="#eeeeee"
     borderopacity="1"
     inkscape:showpageshadow="0"
     inkscape:pageopacity="0"
     inkscape:pagecheckerboard="0"
     inkscape:deskcolor="#505050"
     inkscape:zoom="12.926796"
     inkscape:cx="27.539694"
     inkscape:cy="33.109519"
     inkscape:current-layer="svg8" />
  <rect
     style="fill:url(#radialGradient18);stroke-width:0.848045"
     width="47.490543"
     height="47.490543"
     x="8.2547283"
     y="8.2547283"
     rx="14.247163"
     ry="14.247163"
     id="rect2" />
  <rect
     style="fill:none;stroke-width:0.2;stroke:#000000;stroke-opacity:1;stroke-dasharray:none;filter:url(#filter19)"
     width="47.490543"
     height="47.490543"
     x="8.2547283"
     y="8.2547283"
     rx="14.247163"
     ry="14.247163"
     id="rect2-3" />
  <path
     id="path3"
     style="fill:url(#radialGradient15);fill-opacity:1;stroke-width:0.848045"
     d="m 28.993745,15.039091 -0.362738,3.393838 -2.567325,2.255934 3.122199,1.392981 1.356541,3.133793 2.292373,-2.534198 3.405432,-0.318018 -1.706029,-2.95822 0.748666,-3.330898 -3.345805,0.7056 z m 12.553391,1.696091 -1.079932,1.328384 -1.682841,0.238512 0.914299,1.450954 -0.296484,1.692778 1.644744,-0.430648 1.500643,0.808293 0.102693,-1.717624 1.222378,-1.19422 -1.581803,-0.629408 z m -18.203162,6.784364 c -1.455283,-0.0068 -3.094235,0.115464 -4.130909,0.331267 -7.765482,1.616494 -3.093688,7.460437 1.132935,7.902392 5.121822,1.192457 17.255321,-2.280369 22.168439,-3.123854 0.649971,-0.111569 1.261261,-0.186997 1.621555,-0.207043 2.031238,-0.112959 3.917513,0.420587 4.303168,0.541623 0.07814,0.01988 0.796192,0.344968 0.405803,-0.450524 -0.307132,-0.625849 -3.467412,-2.613656 -5.550392,-3.029444 -1.627058,-0.542282 -3.323756,-1.225389 -5.124711,-1.094839 -2.226731,0.161434 -5.230888,2.863258 -3.948711,2.843933 1.264004,-0.01908 2.852884,-1.168094 4.261759,-1.149499 1.031818,0.0134 3.510824,0.282163 3.007911,1.023618 -0.496977,0.609578 -7.957647,1.301301 -13.668107,1.07662 -3.444637,-0.135552 -7.203452,-1.7054 -5.79553,-2.787618 1.674329,-1.286989 4.660403,-1.124236 4.351203,-1.429421 -0.306633,-0.302653 -1.579128,-0.440274 -3.034413,-0.447211 z m 17.384931,6.43322 c -4.832134,0.495 -9.823641,2.593003 -16.949314,2.90853 0.284246,4.713038 -0.731258,8.823247 -1.914728,11.905763 -0.41975,1.881605 2.365955,3.150987 6.005884,3.880801 6.055746,1.214178 13.897401,-1.345566 14.299173,-3.402119 v 7.627439 c 0,1.589723 1.347427,2.872092 2.888655,2.872092 h 7.798042 c 1.541228,0 2.888655,-1.282369 2.888655,-2.872092 V 39.571124 c 0,-1.589721 -1.347422,-2.872091 -2.888655,-2.872091 h -7.798042 c -1.541234,0 -2.888655,1.282366 -2.888655,2.872091 v 5.60505 C 42.043468,43.79256 39.284131,36.848217 40.728905,29.952766 Z" />
  <path
     id="path3-6"
     style="fill:none;fill-opacity:1;stroke-width:0.2;stroke:#000000;stroke-opacity:1;stroke-dasharray:none;filter:url(#filter20)"
     d="m 28.993745,15.039091 -0.362738,3.393838 -2.567325,2.255934 3.122199,1.392981 1.356541,3.133793 2.292373,-2.534198 3.405432,-0.318018 -1.706029,-2.95822 0.748666,-3.330898 -3.345805,0.7056 z m 12.553391,1.696091 -1.079932,1.328384 -1.682841,0.238512 0.914299,1.450954 -0.296484,1.692778 1.644744,-0.430648 1.500643,0.808293 0.102693,-1.717624 1.222378,-1.19422 -1.581803,-0.629408 z m -18.203162,6.784364 c -1.455283,-0.0068 -3.094235,0.115464 -4.130909,0.331267 -7.765482,1.616494 -3.093688,7.460437 1.132935,7.902392 5.121822,1.192457 17.255321,-2.280369 22.168439,-3.123854 0.649971,-0.111569 1.261261,-0.186997 1.621555,-0.207043 2.031238,-0.112959 3.917513,0.420587 4.303168,0.541623 0.07814,0.01988 0.796192,0.344968 0.405803,-0.450524 -0.307132,-0.625849 -3.467412,-2.613656 -5.550392,-3.029444 -1.627058,-0.542282 -3.323756,-1.225389 -5.124711,-1.094839 -2.226731,0.161434 -5.230888,2.863258 -3.948711,2.843933 1.264004,-0.01908 2.852884,-1.168094 4.261759,-1.149499 1.031818,0.0134 3.510824,0.282163 3.007911,1.023618 -0.496977,0.609578 -7.957647,1.301301 -13.668107,1.07662 -3.444637,-0.135552 -7.203452,-1.7054 -5.79553,-2.787618 1.674329,-1.286989 4.660403,-1.124236 4.351203,-1.429421 -0.306633,-0.302653 -1.579128,-0.440274 -3.034413,-0.447211 z m 17.384931,6.43322 c -4.832134,0.495 -9.823641,2.593003 -16.949314,2.90853 0.284246,4.713038 -0.731258,8.823247 -1.914728,11.905763 -0.41975,1.881605 2.365955,3.150987 6.005884,3.880801 6.055746,1.214178 13.897401,-1.345566 14.299173,-3.402119 v 7.627439 c 0,1.589723 1.347427,2.872092 2.888655,2.872092 h 7.798042 c 1.541228,0 2.888655,-1.282369 2.888655,-2.872092 V 39.571124 c 0,-1.589721 -1.347422,-2.872091 -2.888655,-2.872091 h -7.798042 c -1.541234,0 -2.888655,1.282366 -2.888655,2.872091 v 5.60505 C 42.043468,43.79256 39.284131,36.848217 40.728905,29.952766 Z" />
  <path
     style="fill:url(#radialGradient21);stroke-width:0.794089;paint-order:stroke fill markers"
     d="m 45.306359,39.391092 c -0.341301,0 -0.618176,0.270405 -0.618176,0.603723 v 9.069165 c 0,0.333319 0.276907,0.569048 0.618176,0.573703 h 2.434158 v 1.707764 h -2.434158 c -0.341301,0 -0.618176,0.217037 -0.618176,0.550355 v 0.553689 c 0,0.333319 0.276875,0.603721 0.618176,0.603721 h 7.302473 c 0.341301,0 0.618176,-0.270402 0.618176,-0.603721 v -0.553689 c 0,-0.333318 -0.276973,-0.542195 -0.618176,-0.550355 h -2.434157 v -1.707764 h 2.434157 c 0.341301,0 0.618176,-0.240384 0.618176,-0.573703 v -9.069165 c 0,-0.333318 -0.276874,-0.603723 -0.618176,-0.603723 z m 3.651237,1.707765 c 1.414673,0 2.561647,1.146882 2.561647,2.561648 0,1.414766 -1.146881,2.561648 -2.561647,2.561648 -1.414766,0 -2.561647,-1.146882 -2.561647,-2.561648 0,-1.414766 1.146976,-2.561648 2.561647,-2.561648 z m 0,1.13851 c -0.786016,0 -1.423138,0.63712 -1.423138,1.423139 0,0.786016 0.637122,1.423137 1.423138,1.423137 0.786017,0 1.423138,-0.637121 1.423138,-1.423137 0,-0.786018 -0.637121,-1.423139 -1.423138,-1.423139 z"
     id="path10"
     sodipodi:nodetypes="ssscccssssssscccsssssssssssssss" />
</svg>
