<?xml version="1.0" encoding="UTF-8" standalone="no"?>
<svg
   width="64"
   height="64"
   version="1"
   id="svg5"
   sodipodi:docname="zaz.svg"
   inkscape:version="1.4 (e7c3feb100, 2024-10-09)"
   xmlns:inkscape="http://www.inkscape.org/namespaces/inkscape"
   xmlns:sodipodi="http://sodipodi.sourceforge.net/DTD/sodipodi-0.dtd"
   xmlns:xlink="http://www.w3.org/1999/xlink"
   xmlns="http://www.w3.org/2000/svg"
   xmlns:svg="http://www.w3.org/2000/svg">
  <defs
     id="defs5">
    <linearGradient
       id="linearGradient8"
       inkscape:collect="always">
      <stop
         style="stop-color:#f0e83c;stop-opacity:1;"
         offset="0"
         id="stop9" />
      <stop
         style="stop-color:#f0a73c;stop-opacity:1;"
         offset="1"
         id="stop10" />
    </linearGradient>
    <linearGradient
       id="linearGradient6"
       inkscape:collect="always">
      <stop
         style="stop-color:#515151;stop-opacity:1;"
         offset="0"
         id="stop7" />
      <stop
         style="stop-color:#bebebe;stop-opacity:1;"
         offset="1"
         id="stop8" />
    </linearGradient>
    <linearGradient
       id="linearGradient5"
       inkscape:collect="always">
      <stop
         style="stop-color:#aa64f5;stop-opacity:1;"
         offset="0"
         id="stop5" />
      <stop
         style="stop-color:#397cab;stop-opacity:1;"
         offset="1"
         id="stop6" />
    </linearGradient>
    <radialGradient
       inkscape:collect="always"
       xlink:href="#linearGradient5"
       id="radialGradient6"
       cx="15.261539"
       cy="37.683762"
       fx="15.261539"
       fy="37.683762"
       r="17"
       gradientUnits="userSpaceOnUse"
       gradientTransform="matrix(3.1022036,-1.7910581,1.7910581,3.1022036,-99.57667,-51.884636)" />
    <radialGradient
       inkscape:collect="always"
       xlink:href="#linearGradient6"
       id="radialGradient8"
       cx="29.33683"
       cy="83.687119"
       fx="29.33683"
       fy="83.687119"
       r="22"
       gradientTransform="matrix(1.1842244,-1.1842244,1.1409508,1.1409508,-97.513164,3.9619051)"
       gradientUnits="userSpaceOnUse" />
    <radialGradient
       inkscape:collect="always"
       xlink:href="#linearGradient8"
       id="radialGradient10"
       cx="24.760273"
       cy="59.017887"
       fx="24.760273"
       fy="59.017887"
       r="14"
       gradientTransform="matrix(1.7604669,0,0,1.5376679,-24.334941,-29.3029)"
       gradientUnits="userSpaceOnUse" />
    <filter
       inkscape:collect="always"
       style="color-interpolation-filters:sRGB"
       id="filter12"
       x="-0.090631345"
       y="-0.22308598"
       width="1.1812627"
       height="1.4461733">
      <feGaussianBlur
         inkscape:collect="always"
         stdDeviation="1.619908"
         id="feGaussianBlur12" />
    </filter>
    <filter
       inkscape:collect="always"
       style="color-interpolation-filters:sRGB"
       id="filter13"
       x="-0.14242068"
       y="-0.36252538"
       width="1.2848414"
       height="1.7250508">
      <feGaussianBlur
         inkscape:collect="always"
         stdDeviation="1.619908"
         id="feGaussianBlur13" />
    </filter>
    <filter
       inkscape:collect="always"
       style="color-interpolation-filters:sRGB"
       id="filter14"
       x="-0.11728762"
       y="-0.11728762"
       width="1.2345752"
       height="1.2345752">
      <feGaussianBlur
         inkscape:collect="always"
         stdDeviation="1.619908"
         id="feGaussianBlur14" />
    </filter>
  </defs>
  <sodipodi:namedview
     id="namedview5"
     pagecolor="#505050"
     bordercolor="#eeeeee"
     borderopacity="1"
     inkscape:showpageshadow="0"
     inkscape:pageopacity="0"
     inkscape:pagecheckerboard="0"
     inkscape:deskcolor="#505050"
     inkscape:zoom="12.926796"
     inkscape:cx="20.345336"
     inkscape:cy="31.33027"
     inkscape:current-layer="svg5" />
  <circle
     style="fill:url(#radialGradient6)"
     cx="32"
     cy="21"
     r="17"
     id="circle2" />
  <path
     style="fill:url(#radialGradient8)"
     d="M 14.278076,32.025475 C 11.916577,32.025256 10.001226,33.883258 10,36.174644 c 0.0012,1.702737 1.212067,2.950774 2.707031,3.856446 2.792563,1.691779 7.958477,7.19567 11.491456,8.983519 1.327567,0.640417 2.802768,0.857246 4.108886,0.883545 l 6.708496,-0.0027 c 1.456064,0.04022 3.222516,-0.126816 4.785644,-0.88086 3.532979,-1.787849 8.698893,-7.291738 11.491456,-8.983518 1.494965,-0.905608 2.705858,-2.153645 2.707031,-3.856382 -0.0012,-2.291386 -1.916577,-4.149388 -4.278076,-4.149169 -1.297869,2.96e-4 -2.523929,0.572136 -3.335449,1.554931 -1.562513,2.083456 -3.035139,4.613975 -4.736674,6.970646 -2.614401,3.964166 -6.944632,6.570654 -9.413473,6.57131 -4.527035,-0.14269 -6.920704,-2.531834 -9.765491,-6.405055 -1.75284,-2.403453 -3.257989,-5.004364 -4.857312,-7.136901 -0.81152,-0.982795 -2.03758,-1.554635 -3.335449,-1.554931 z"
     id="path2" />
  <path
     style="fill:none;stroke:#000000;stroke-width:0.2;stroke-dasharray:none;stroke-opacity:1;filter:url(#filter12)"
     d="M 14.278076,32.025475 C 11.916577,32.025256 10.001226,33.883258 10,36.174644 c 0.0012,1.702737 1.212067,2.950774 2.707031,3.856446 2.792563,1.691779 7.958477,7.19567 11.491456,8.983519 1.327567,0.640417 2.802768,0.857246 4.108886,0.883545 l 6.708496,-0.0027 c 1.456064,0.04022 3.222516,-0.126816 4.785644,-0.88086 3.532979,-1.787849 8.698893,-7.291738 11.491456,-8.983518 1.494965,-0.905608 2.705858,-2.153645 2.707031,-3.856382 -0.0012,-2.291386 -1.916577,-4.149388 -4.278076,-4.149169 -1.297869,2.96e-4 -2.523929,0.572136 -3.335449,1.554931 -1.562513,2.083456 -3.035139,4.613975 -4.736674,6.970646 -2.614401,3.964166 -6.944632,6.570654 -9.413473,6.57131 -4.527035,-0.14269 -6.920704,-2.531834 -9.765491,-6.405055 -1.75284,-2.403453 -3.257989,-5.004364 -4.857312,-7.136901 -0.81152,-0.982795 -2.03758,-1.554635 -3.335449,-1.554931 z"
     id="path2-7" />
  <ellipse
     style="fill:url(#radialGradient10)"
     cx="32"
     cy="54.5"
     rx="14"
     ry="5.5"
     id="ellipse3" />
  <circle
     style="fill:none;stroke:#000000;stroke-width:0.2;stroke-dasharray:none;stroke-opacity:1;filter:url(#filter14)"
     cx="32"
     cy="21"
     r="17"
     id="circle2-8" />
  <ellipse
     style="fill:none;stroke:#000000;stroke-width:0.2;stroke-dasharray:none;stroke-opacity:1;filter:url(#filter13)"
     cx="32"
     cy="54.5"
     rx="14"
     ry="5.5"
     id="ellipse3-9" />
</svg>
