<?xml version="1.0" encoding="UTF-8" standalone="no"?>
<svg
   width="64"
   height="64"
   version="1.1"
   id="svg7"
   sodipodi:docname="zenkit.svg"
   inkscape:version="1.4 (e7c3feb100, 2024-10-09)"
   xmlns:inkscape="http://www.inkscape.org/namespaces/inkscape"
   xmlns:sodipodi="http://sodipodi.sourceforge.net/DTD/sodipodi-0.dtd"
   xmlns:xlink="http://www.w3.org/1999/xlink"
   xmlns="http://www.w3.org/2000/svg"
   xmlns:svg="http://www.w3.org/2000/svg">
  <defs
     id="defs7">
    <linearGradient
       id="linearGradient8"
       inkscape:collect="always">
      <stop
         style="stop-color:#f556b6;stop-opacity:1;"
         offset="0"
         id="stop8" />
      <stop
         style="stop-color:#f57856;stop-opacity:1;"
         offset="1"
         id="stop9" />
    </linearGradient>
    <inkscape:path-effect
       effect="fillet_chamfer"
       id="path-effect8"
       is_visible="true"
       lpeversion="1"
       nodesatellites_param="F,0,0,1,0,0,0,1 @ F,0,0,1,0,0,0,1 @ F,0,0,1,0,0,0,1 @ F,0,0,1,0,0,0,1 @ F,0,0,1,0,0,0,1 @ F,0,0,1,0,0,0,1 @ F,0,0,1,0,0,0,1 @ F,0,0,1,0,0,0,1 @ F,0,0,1,0,0,0,1 | F,0,0,1,0,0,0,1 @ F,0,1,1,0,1.3988173,0,1 @ F,0,1,1,0,1.3988173,0,1 | F,0,0,1,0,0,0,1 @ F,0,0,1,0,2.0412794,0,1 @ F,0,0,1,0,0,0,1 | F,0,0,1,0,0,0,1 @ F,0,0,1,0,0,0,1 @ F,0,0,1,0,2.0412794,0,1 | F,0,0,1,0,0,0,1 @ F,0,0,1,0,2.0412794,0,1 @ F,0,0,1,0,0,0,1 | F,0,1,1,0,1.3988173,0,1 @ F,0,0,1,0,1.3988173,0,1 @ F,0,0,1,0,0,0,1 | F,0,0,1,0,2.0412794,0,1 @ F,0,0,1,0,0,0,1 @ F,0,0,1,0,0,0,1"
       radius="0"
       unit="px"
       method="auto"
       mode="F"
       chamfer_steps="1"
       flexible="false"
       use_knot_distance="true"
       apply_no_radius="true"
       apply_with_radius="true"
       only_selected="false"
       hide_knots="false" />
    <radialGradient
       inkscape:collect="always"
       xlink:href="#linearGradient8"
       id="radialGradient9"
       cx="22.595369"
       cy="41.069492"
       fx="22.595369"
       fy="41.069492"
       r="19.740229"
       gradientTransform="matrix(2.5168384,-1.4530974,1.7463014,3.0246828,-110.09668,-31.328952)"
       gradientUnits="userSpaceOnUse" />
    <filter
       inkscape:collect="always"
       style="color-interpolation-filters:sRGB"
       id="filter9"
       x="-0.12703434"
       y="-0.105702"
       width="1.2540687"
       height="1.2114157">
      <feGaussianBlur
         inkscape:collect="always"
         stdDeviation="2.2818866"
         id="feGaussianBlur9" />
    </filter>
    <inkscape:path-effect
       effect="fillet_chamfer"
       id="path-effect8-5"
       is_visible="true"
       lpeversion="1"
       nodesatellites_param="F,0,0,1,0,0,0,1 @ F,0,0,1,0,0,0,1 @ F,0,0,1,0,0,0,1 @ F,0,0,1,0,0,0,1 @ F,0,0,1,0,0,0,1 @ F,0,0,1,0,0,0,1 @ F,0,0,1,0,0,0,1 @ F,0,0,1,0,0,0,1 @ F,0,0,1,0,0,0,1 | F,0,0,1,0,0,0,1 @ F,0,1,1,0,1.3988173,0,1 @ F,0,1,1,0,1.3988173,0,1 | F,0,0,1,0,0,0,1 @ F,0,0,1,0,2.0412794,0,1 @ F,0,0,1,0,0,0,1 | F,0,0,1,0,0,0,1 @ F,0,0,1,0,0,0,1 @ F,0,0,1,0,2.0412794,0,1 | F,0,0,1,0,0,0,1 @ F,0,0,1,0,2.0412794,0,1 @ F,0,0,1,0,0,0,1 | F,0,1,1,0,1.3988173,0,1 @ F,0,0,1,0,1.3988173,0,1 @ F,0,0,1,0,0,0,1 | F,0,0,1,0,2.0412794,0,1 @ F,0,0,1,0,0,0,1 @ F,0,0,1,0,0,0,1"
       radius="0"
       unit="px"
       method="auto"
       mode="F"
       chamfer_steps="1"
       flexible="false"
       use_knot_distance="true"
       apply_no_radius="true"
       apply_with_radius="true"
       only_selected="false"
       hide_knots="false" />
    <filter
       inkscape:collect="always"
       style="color-interpolation-filters:sRGB"
       id="filter10"
       x="-0.12325967"
       y="-0.09860609"
       width="1.2465193"
       height="1.1972122">
      <feGaussianBlur
         inkscape:collect="always"
         stdDeviation="1.6434029"
         id="feGaussianBlur10" />
    </filter>
  </defs>
  <sodipodi:namedview
     id="namedview7"
     pagecolor="#505050"
     bordercolor="#eeeeee"
     borderopacity="1"
     inkscape:showpageshadow="0"
     inkscape:pageopacity="0"
     inkscape:pagecheckerboard="0"
     inkscape:deskcolor="#505050"
     inkscape:zoom="12.805262"
     inkscape:cx="38.421705"
     inkscape:cy="32.369506"
     inkscape:current-layer="svg7" />
  <path
     id="path7"
     d="m 31.997828,5.6214662 c -1.788856,7.264e-4 -3.486892,0.8272527 -4.591019,2.2347021 L 11.283946,28.428889 c -1.6443072,2.098047 -1.6451133,5.106001 0,7.203601 L 27.40898,56.203038 v 0.0022 c 2.27632,2.897728 6.90572,2.897728 9.18204,0 v -0.0022 L 52.716054,35.63249 c 1.645113,-2.0976 1.644307,-5.105554 0,-7.203601 v -0.0022 L 36.593191,7.8561161 C 35.489064,6.4487712 33.791027,5.6221926 32.002172,5.6214662 Z"
     sodipodi:nodetypes="scccccccccccss"
     style="fill:url(#radialGradient9);stroke-width:1.11192" />
  <path
     id="path7-3"
     d="m 31.997828,5.621466 c -1.788856,7.264e-4 -3.486892,0.8272527 -4.591019,2.2347021 L 11.283946,28.428889 c -1.644307,2.098047 -1.645113,5.106001 0,7.203601 L 27.40898,56.203038 v 0.0022 c 2.27632,2.897728 6.90572,2.897728 9.18204,0 v -0.0022 L 52.716054,35.63249 c 1.645113,-2.0976 1.644307,-5.105554 0,-7.203601 v -0.0022 L 36.593191,7.8561159 C 35.489064,6.448771 33.791027,5.6221924 32.002172,5.621466 Z"
     sodipodi:nodetypes="scccccccccccss"
     style="fill:none;stroke-width:0.2;stroke:#000000;stroke-opacity:1;stroke-dasharray:none;filter:url(#filter9)" />
  <path
     id="path3"
     style="fill:#ffffff;stroke-linecap:round;stroke-linejoin:round;filter:url(#filter10);opacity:0.5976243"
     d="m 32,12 c -0.460523,1.87e-4 -0.895442,0.211886 -1.179688,0.574219 l -14.5,18.5 c -0.426313,0.54357 -0.426313,1.307992 0,1.851562 l 14.5,18.5 c 0.600626,0.76459 1.75875,0.76459 2.359376,0 l 14.5,-18.5 c 0.426313,-0.54357 0.426313,-1.307992 0,-1.851562 l -14.5,-18.5 C 32.895442,12.211886 32.460523,12.000187 32,12 Z m 0,5.417969 3.384807,12.233863 A 1.0643512,1.0643512 127.26728 0 1 34.358995,31 h -4.71799 A 1.0643512,1.0643512 52.732725 0 1 28.615193,29.651832 Z M 28.787109,20.03125 26.29471,29.03274 A 2.6832881,2.6832881 142.73837 0 1 23.708721,31 h -3.519268 z m 6.425782,0 L 43.810547,31 H 40.291279 A 2.6832881,2.6832881 37.261629 0 1 37.70529,29.03274 Z M 20.189453,33 h 3.519268 a 2.6832881,2.6832881 37.261629 0 1 2.585989,1.96726 l 2.492399,9.00149 z m 9.451552,0 h 4.71799 a 1.0643512,1.0643512 52.732725 0 1 1.025812,1.348168 L 32,46.582031 28.615193,34.348168 A 1.0643512,1.0643512 127.26728 0 1 29.641005,33 Z m 10.650274,0 h 3.519268 L 35.212891,43.96875 37.70529,34.96726 A 2.6832881,2.6832881 142.73837 0 1 40.291279,33 Z"
     inkscape:path-effect="#path-effect8"
     inkscape:original-d="m 32,12 a 1.50015,1.50015 0 0 0 -1.179688,0.574219 l -14.5,18.5 a 1.50015,1.50015 0 0 0 0,1.851562 l 14.5,18.5 a 1.50015,1.50015 0 0 0 2.359376,0 l 14.5,-18.5 a 1.50015,1.50015 0 0 0 0,-1.851562 l -14.5,-18.5 A 1.50015,1.50015 0 0 0 32,12 Z M 32,17.417969 35.757812,31 H 28.242188 Z M 28.787109,20.03125 25.75,31 h -5.560547 z m 6.425782,0 L 43.810547,31 H 38.25 Z M 20.189453,33 H 25.75 l 3.037109,10.96875 z m 8.052735,0 h 7.515624 L 32,46.582031 Z M 38.25,33 h 5.560547 l -8.597656,10.96875 z"
     transform="matrix(1.1119216,0,0,1.1119216,-3.5814899,-3.5518867)" />
  <path
     id="path3-6"
     style="opacity:0.705825;fill:#ffffff;stroke-linecap:round;stroke-linejoin:round"
     d="m 32,12 c -0.460523,1.87e-4 -0.895442,0.211886 -1.179688,0.574219 l -14.5,18.5 c -0.426313,0.54357 -0.426313,1.307992 0,1.851562 l 14.5,18.5 c 0.600626,0.76459 1.75875,0.76459 2.359376,0 l 14.5,-18.5 c 0.426313,-0.54357 0.426313,-1.307992 0,-1.851562 l -14.5,-18.5 C 32.895442,12.211886 32.460523,12.000187 32,12 Z m 0,5.417969 3.384807,12.233863 A 1.0643512,1.0643512 127.26728 0 1 34.358995,31 h -4.71799 A 1.0643512,1.0643512 52.732725 0 1 28.615193,29.651832 Z M 28.787109,20.03125 26.29471,29.03274 A 2.6832881,2.6832881 142.73837 0 1 23.708721,31 h -3.519268 z m 6.425782,0 L 43.810547,31 H 40.291279 A 2.6832881,2.6832881 37.261629 0 1 37.70529,29.03274 Z M 20.189453,33 h 3.519268 a 2.6832881,2.6832881 37.261629 0 1 2.585989,1.96726 l 2.492399,9.00149 z m 9.451552,0 h 4.71799 a 1.0643512,1.0643512 52.732725 0 1 1.025812,1.348168 L 32,46.582031 28.615193,34.348168 A 1.0643512,1.0643512 127.26728 0 1 29.641005,33 Z m 10.650274,0 h 3.519268 L 35.212891,43.96875 37.70529,34.96726 A 2.6832881,2.6832881 142.73837 0 1 40.291279,33 Z"
     inkscape:path-effect="#path-effect8-5"
     inkscape:original-d="m 32,12 a 1.50015,1.50015 0 0 0 -1.179688,0.574219 l -14.5,18.5 a 1.50015,1.50015 0 0 0 0,1.851562 l 14.5,18.5 a 1.50015,1.50015 0 0 0 2.359376,0 l 14.5,-18.5 a 1.50015,1.50015 0 0 0 0,-1.851562 l -14.5,-18.5 A 1.50015,1.50015 0 0 0 32,12 Z M 32,17.417969 35.757812,31 H 28.242188 Z M 28.787109,20.03125 25.75,31 h -5.560547 z m 6.425782,0 L 43.810547,31 H 38.25 Z M 20.189453,33 H 25.75 l 3.037109,10.96875 z m 8.052735,0 h 7.515624 L 32,46.582031 Z M 38.25,33 h 5.560547 l -8.597656,10.96875 z"
     transform="matrix(1.1119216,0,0,1.1119216,-3.5814912,-3.5810597)" />
</svg>
