<?xml version="1.0" encoding="UTF-8" standalone="no"?>
<svg
   width="64"
   height="64"
   version="1.1"
   id="svg7"
   sodipodi:docname="ZeroNet.svg"
   inkscape:version="1.4 (e7c3feb100, 2024-10-09)"
   xmlns:inkscape="http://www.inkscape.org/namespaces/inkscape"
   xmlns:sodipodi="http://sodipodi.sourceforge.net/DTD/sodipodi-0.dtd"
   xmlns="http://www.w3.org/2000/svg"
   xmlns:svg="http://www.w3.org/2000/svg">
  <defs
     id="defs7">
    <inkscape:path-effect
       effect="fillet_chamfer"
       id="path-effect9"
       is_visible="true"
       lpeversion="1"
       nodesatellites_param="F,0,0,1,0,0,0,1 @ F,0,0,1,0,6.5483202,0,1 @ F,0,0,1,0,0,0,1 @ F,0,1,1,0,6.5483202,0,1"
       radius="0"
       unit="px"
       method="auto"
       mode="F"
       chamfer_steps="1"
       flexible="false"
       use_knot_distance="true"
       apply_no_radius="true"
       apply_with_radius="true"
       only_selected="false"
       hide_knots="false" />
    <inkscape:path-effect
       effect="fillet_chamfer"
       id="path-effect8"
       is_visible="true"
       lpeversion="1"
       nodesatellites_param="F,0,0,1,0,0,0,1 @ F,0,0,1,0,4.494825,0,1 @ F,0,0,1,0,5.8647363,0,1 @ F,0,0,1,0,0,0,1 @ F,0,0,1,0,0,0,1 @ F,0,0,1,0,1.4116354,0,1 @ F,0,1,1,0,1.8190641,0,1 @ F,0,0,1,0,1.8190641,0,1"
       radius="0"
       unit="px"
       method="auto"
       mode="F"
       chamfer_steps="1"
       flexible="false"
       use_knot_distance="true"
       apply_no_radius="true"
       apply_with_radius="true"
       only_selected="false"
       hide_knots="false" />
    <inkscape:path-effect
       effect="fillet_chamfer"
       id="path-effect7"
       is_visible="true"
       lpeversion="1"
       nodesatellites_param="F,0,0,1,0,0,0,1 @ F,0,0,1,0,4.3025203,0,1 @ F,0,0,1,0,5.2611326,0,1 @ F,0,0,1,0,0,0,1 @ F,0,0,1,0,0,0,1 @ F,0,0,1,0,1.3888691,0,1 @ F,0,1,1,0,1.8929496,0,1 @ F,0,0,1,0,1.8929496,0,1"
       radius="0"
       unit="px"
       method="auto"
       mode="F"
       chamfer_steps="1"
       flexible="false"
       use_knot_distance="true"
       apply_no_radius="true"
       apply_with_radius="true"
       only_selected="false"
       hide_knots="false" />
    <inkscape:path-effect
       effect="fillet_chamfer"
       id="path-effect7-3"
       is_visible="true"
       lpeversion="1"
       nodesatellites_param="F,0,0,1,0,0,0,1 @ F,0,0,1,0,4.3025203,0,1 @ F,0,0,1,0,5.2611326,0,1 @ F,0,0,1,0,0,0,1 @ F,0,0,1,0,0,0,1 @ F,0,0,1,0,1.3888691,0,1 @ F,0,1,1,0,1.8929496,0,1 @ F,0,0,1,0,1.8929496,0,1"
       radius="0"
       unit="px"
       method="auto"
       mode="F"
       chamfer_steps="1"
       flexible="false"
       use_knot_distance="true"
       apply_no_radius="true"
       apply_with_radius="true"
       only_selected="false"
       hide_knots="false" />
    <inkscape:path-effect
       effect="fillet_chamfer"
       id="path-effect9-6"
       is_visible="true"
       lpeversion="1"
       nodesatellites_param="F,0,0,1,0,0,0,1 @ F,0,0,1,0,6.5483202,0,1 @ F,0,0,1,0,0,0,1 @ F,0,1,1,0,6.5483202,0,1"
       radius="0"
       unit="px"
       method="auto"
       mode="F"
       chamfer_steps="1"
       flexible="false"
       use_knot_distance="true"
       apply_no_radius="true"
       apply_with_radius="true"
       only_selected="false"
       hide_knots="false" />
    <inkscape:path-effect
       effect="fillet_chamfer"
       id="path-effect8-7"
       is_visible="true"
       lpeversion="1"
       nodesatellites_param="F,0,0,1,0,0,0,1 @ F,0,0,1,0,4.494825,0,1 @ F,0,0,1,0,5.8647363,0,1 @ F,0,0,1,0,0,0,1 @ F,0,0,1,0,0,0,1 @ F,0,0,1,0,1.4116354,0,1 @ F,0,1,1,0,1.8190641,0,1 @ F,0,0,1,0,1.8190641,0,1"
       radius="0"
       unit="px"
       method="auto"
       mode="F"
       chamfer_steps="1"
       flexible="false"
       use_knot_distance="true"
       apply_no_radius="true"
       apply_with_radius="true"
       only_selected="false"
       hide_knots="false" />
    <filter
       inkscape:collect="always"
       style="color-interpolation-filters:sRGB"
       id="filter9"
       x="-0.14374915"
       y="-0.10751918"
       width="1.2874983"
       height="1.2151155">
      <feGaussianBlur
         inkscape:collect="always"
         stdDeviation="2.3541524"
         id="feGaussianBlur9" />
    </filter>
  </defs>
  <sodipodi:namedview
     id="namedview7"
     pagecolor="#505050"
     bordercolor="#eeeeee"
     borderopacity="1"
     inkscape:showpageshadow="0"
     inkscape:pageopacity="0"
     inkscape:pagecheckerboard="0"
     inkscape:deskcolor="#505050"
     inkscape:zoom="18.28125"
     inkscape:cx="35.774359"
     inkscape:cy="31.124786"
     inkscape:current-layer="svg7" />
  <path
     style="fill:#b66af5;fill-rule:evenodd"
     d="M 12,36.886 V 19.56252 c 0,-2.376216 1.668272,-5.26568 3.714712,-6.473342 3.921062,-2.313931 7.814078,-4.675812 11.708543,-7.0347572 2.485108,-1.5052727 6.531238,-1.5250773 9.034213,-0.049313 L 52,15.169051 47.166368,24.05368 33.192305,15.485834 a 2.2853441,2.2853441 0.22524869 0 0 -2.373741,-0.0093 l -7.197062,4.335209 A 3.3500732,3.3500732 119.4685 0 0 22,22.681386 v 6.612684 a 3.257559,3.257559 120.16064 0 1 -1.644624,2.830218 z"
     id="path3"
     inkscape:path-effect="#path-effect7"
     inkscape:original-d="M 12,36.886 V 15.26 C 18.701417,11.385911 25.294911,7.3268872 31.925431,3.333 L 52,15.169051 47.166368,24.05368 32.00827,14.759873 22,20.788436 V 31.18702 Z"
     sodipodi:nodetypes="ccccccccc" />
  <path
     style="fill:#8a49ff;fill-rule:evenodd"
     d="m 51.984838,26.8032 0,17.310975 c 0,2.482423 -1.717593,5.543742 -3.858468,6.800301 -3.652536,2.143809 -7.348025,4.215743 -11.042527,6.288139 -2.82438,1.584309 -7.396153,1.585515 -10.216704,-0.0069 l -14.851977,-8.384826 6.04769,-7.60499 12.700855,7.299826 a 2.3982104,2.3982104 179.40624 0 0 2.432933,-0.02521 l 7.245357,-4.366488 A 3.2201462,3.2201462 119.46215 0 0 42,41.356058 v -6.894394 a 3.1711446,3.1711446 119.83988 0 1 1.570248,-2.737387 z"
     id="path4"
     sodipodi:nodetypes="ccccccccc"
     inkscape:path-effect="#path-effect8"
     inkscape:original-d="M 51.984838,26.8032 V 48.609 c -6.565064,4.000269 -13.322885,7.679377 -20.010639,11.47 L 12.015162,48.810934 18.062852,41.205944 31.987594,49.2092 42,43.175122 V 32.6426 Z" />
  <path
     style="fill:#a551ff;fill-rule:evenodd"
     d="M 12,48.8 46.345628,28.73815 A 11.408582,11.408582 119.85505 0 0 52,18.887018 V 15.199999 L 17.672105,35.003934 A 11.33765,11.33765 120.00957 0 0 12,44.82452 Z"
     id="path7"
     inkscape:path-effect="#path-effect9"
     inkscape:original-d="M 12,48.8 52,25.435338 V 15.199999 L 12,38.2762 Z" />
  <path
     id="path3-5"
     style="fill:none;fill-rule:evenodd;stroke:#000000;stroke-opacity:1;stroke-width:0.20000001;stroke-dasharray:none;opacity:1;filter:url(#filter9)"
     d="M 31.933594,4.912408 C 30.298551,4.9210477 28.666382,5.3023498 27.423828,6.0549861 23.529363,8.4139314 19.635906,10.776212 15.714844,13.090143 13.668404,14.297805 12,17.186582 12,19.562799 v 17.324219 l 8.355469,-4.761719 C 21.372201,31.545821 21.999969,30.465494 22,29.295221 v -6.613282 c 1.01e-4,-1.174416 0.615175,-2.263022 1.621094,-2.86914 l 7.197265,-4.335938 c 0.730856,-0.439863 1.645849,-0.436084 2.373047,0.0098 L 42.070312,20.93002 17.671875,35.004239 C 14.162329,37.029023 12.000062,40.77277 12,44.824518 l 0.0078,3.981447 14.859378,8.38965 c 2.820551,1.59237 7.392416,1.592122 10.216796,0.0078 3.694502,-2.072396 7.390433,-4.145254 11.042969,-6.289063 2.140875,-1.256559 3.857422,-4.316404 3.857422,-6.798828 v -17.3125 l -8.414063,4.921875 C 42.597502,32.293794 41.999693,33.336241 42,34.463189 v 6.892579 c 4.91e-4,1.12962 -0.590965,2.176896 -1.558594,2.759765 l -7.24414,4.365235 c -0.746327,0.450015 -1.67804,0.459736 -2.433594,0.02539 L 21.560547,43.217096 46.345703,28.73858 C 49.847475,26.693101 52.000168,22.942433 52,18.887018 V 15.169051 L 36.457031,6.006158 C 35.205544,5.2682758 33.568637,4.9037683 31.933594,4.912408 Z"
     sodipodi:nodetypes="sssscccccccccccccssccccccccccccs" />
</svg>
