<?xml version="1.0" encoding="UTF-8" standalone="no"?>
<svg
   width="64"
   height="64"
   version="1.1"
   id="svg10"
   sodipodi:docname="zim.svg"
   inkscape:version="1.4 (e7c3feb100, 2024-10-09)"
   xmlns:inkscape="http://www.inkscape.org/namespaces/inkscape"
   xmlns:sodipodi="http://sodipodi.sourceforge.net/DTD/sodipodi-0.dtd"
   xmlns:xlink="http://www.w3.org/1999/xlink"
   xmlns="http://www.w3.org/2000/svg"
   xmlns:svg="http://www.w3.org/2000/svg">
  <defs
     id="defs10">
    <linearGradient
       id="linearGradient15"
       inkscape:collect="always">
      <stop
         style="stop-color:#5a5ecd;stop-opacity:1;"
         offset="0"
         id="stop16" />
      <stop
         style="stop-color:#3438b2;stop-opacity:1;"
         offset="1"
         id="stop17" />
    </linearGradient>
    <linearGradient
       id="linearGradient13"
       inkscape:collect="always">
      <stop
         style="stop-color:#b47226;stop-opacity:1;"
         offset="0"
         id="stop14" />
      <stop
         style="stop-color:#ce8a38;stop-opacity:1;"
         offset="1"
         id="stop15" />
    </linearGradient>
    <linearGradient
       id="linearGradient11"
       inkscape:collect="always">
      <stop
         style="stop-color:#ffc612;stop-opacity:1;"
         offset="0"
         id="stop12" />
      <stop
         style="stop-color:#ffa712;stop-opacity:1;"
         offset="1"
         id="stop13" />
    </linearGradient>
    <linearGradient
       id="linearGradient10"
       inkscape:collect="always">
      <stop
         style="stop-color:#28c5d7;stop-opacity:1;"
         offset="0"
         id="stop10" />
      <stop
         style="stop-color:#2781e6;stop-opacity:1;"
         offset="1"
         id="stop11" />
    </linearGradient>
    <radialGradient
       inkscape:collect="always"
       xlink:href="#linearGradient10"
       id="radialGradient11"
       cx="58.62719"
       cy="7.1530943"
       fx="58.62719"
       fy="7.1530943"
       r="21.71444"
       gradientTransform="matrix(-2.9751407,0,0,-2.6032216,208.34798,49.325399)"
       gradientUnits="userSpaceOnUse" />
    <radialGradient
       inkscape:collect="always"
       xlink:href="#linearGradient11"
       id="radialGradient13"
       cx="42.479076"
       cy="8.7771149"
       fx="42.479076"
       fy="8.7771149"
       r="8.0434999"
       gradientTransform="matrix(2.0387671,0.22835775,-0.18961401,1.6928648,-45.714976,-15.583903)"
       gradientUnits="userSpaceOnUse" />
    <radialGradient
       inkscape:collect="always"
       xlink:href="#linearGradient13"
       id="radialGradient15"
       cx="7.9051991"
       cy="51.86636"
       fx="7.9051991"
       fy="51.86636"
       r="11.234312"
       gradientTransform="matrix(1.7449705,0,0,1.6309041,-9.8591717,-29.336994)"
       gradientUnits="userSpaceOnUse" />
    <radialGradient
       inkscape:collect="always"
       xlink:href="#linearGradient15"
       id="radialGradient17"
       cx="-24.760454"
       cy="-12.430955"
       fx="-24.760454"
       fy="-12.430955"
       r="28"
       gradientUnits="userSpaceOnUse"
       gradientTransform="matrix(0,-2.0239316,2.0239315,0,13.400934,-65.429707)" />
  </defs>
  <sodipodi:namedview
     id="namedview10"
     pagecolor="#505050"
     bordercolor="#eeeeee"
     borderopacity="1"
     inkscape:showpageshadow="0"
     inkscape:pageopacity="0"
     inkscape:pagecheckerboard="0"
     inkscape:deskcolor="#505050"
     inkscape:zoom="9.140625"
     inkscape:cx="31.398291"
     inkscape:cy="29.757265"
     inkscape:current-layer="svg10" />
  <rect
     style="fill:url(#radialGradient17)"
     width="56"
     height="56"
     x="-59.997784"
     y="-60"
     rx="28"
     ry="28"
     transform="matrix(0,-1,-1,0,0,0)"
     id="rect2" />
  <path
     style="opacity:0.3"
     d="m 32.144922,5.4 -3.24297,0.36914 -4.003125,1.09922 -0.757421,0.73555 2.485546,1.71445 v 0.97891 l -1.626954,0.9789 1.955079,2.57303 0.864063,-0.4894 1.082812,-1.7145 c 1.671418,-0.51659 3.169157,-1.10291 4.757813,-1.83749 l 1.140233,-3.30586 z m -7.678125,0.24609 -1.397266,0.19961 -0.661719,0.65625 -1.085547,0.1586 -0.967968,0.4539 -0.470314,0.22696 -0.287109,0.38554 1.405469,0.24336 0.541406,-0.48945 1.082813,-0.24336 c 0.74119,-0.36037 1.485818,-0.60431 2.272265,-0.85859 z m -6.384766,2.93672 -0.216016,0.48946 0.106638,1.225 -0.864063,0.73554 -0.541407,1.34529 h 1.082813 l 0.541407,-1.22224 c 0.466588,-0.32987 0.930247,-0.66412 1.405468,-0.98164 l 1.082812,0.36914 c 0.720958,0.48967 1.441337,0.97943 2.162891,1.46834 l 1.082813,-0.97889 -1.192188,-0.48945 -0.541405,-1.10195 -2.05625,-0.2461 -0.106638,-0.6125 -0.973438,0.2461 -0.432032,0.85586 z m 27.710155,0.97891 -2.05078,0.49219 -1.304298,0.85586 v 0.73553 l -2.050781,1.3453 0.429297,1.9606 1.194923,-0.8586 0.754686,0.8586 0.864064,0.4894 0.541405,-1.4683 -0.322655,-0.8586 0.322655,-0.6125 L 45.360156,11 h 0.541406 l -0.541406,1.6242 v 1.102 c 0.497111,-0.1353 1.008852,-0.1802 1.517577,-0.2434 l -1.408202,0.9789 -0.106638,0.6125 -1.621484,1.3453 -1.626954,-0.3664 v -0.9789 l -0.757421,0.4895 0.328125,1.1357 H 40.49297 l -0.648046,0.8221 -0.814844,0.916 -1.457421,0.309 0.864061,0.8531 0.21875,0.8559 h -1.082811 l -1.372661,0.7355 v 2.2067 h 0.615238 l 0.593359,0.6726 1.353516,-0.6726 0.538673,-1.3481 0.976171,-0.6125 0.216015,-0.4894 1.621485,-0.3637 0.866797,0.9762 0.973437,0.4894 -0.541405,1.102 0.866796,-0.2461 0.432031,-1.0965 -1.082812,-1.225 h 0.434766 l 1.082812,0.8531 0.216016,1.225 0.970702,1.102 0.216016,-1.5942 0.544141,-0.2433 c 0.534915,0.5551 0.954939,1.3871 1.405468,2.0119 l 1.621485,0.123 0.976172,0.4354 -0.434766,0.6125 L 49.688674,26 h -1.405469 l -1.840235,-0.6445 -0.973436,0.1203 -0.7,0.7984 -2.004298,-2.0207 -1.408202,-0.3664 -2.05625,0.2434 -1.840235,0.4894 c -1.032025,1.1697 -2.911015,2.3345 -3.887808,3.5492 l -1.189453,2.8192 0.541407,0.6098 -0.973438,1.4683 1.082813,2.5731 c 0.919951,1.0403 2.69849,2.0788 3.617104,3.1199 l 1.35625,-1.1621 0.59336,0.6754 1.457421,-0.9188 L 40.547659,38 h 2.462455 l 0.836719,0.8523 -0.516798,1.6844 1.03086,1.1621 -0.05468,2.0207 0.757422,1.4711 -0.809379,1.2223 c -0.05389,0.9008 -0.0547,1.7952 -0.0547,2.6961 0.443374,1.2205 1.181778,2.4375 1.600443,3.6668 l 0.414182,1.9605 v 0.9817 h 0.178293 l 0.591892,-0.7356 h 1.025391 c 0.382435,-0.2663 0.750283,-0.5521 1.118359,-0.8367 l 1.369922,-1.5504 -0.26797,-0.7957 1.408204,-1.2277 -1.030859,-1.1594 1.246875,-1.0391 1.050007,-0.7382 0.541407,-0.6071 -0.325391,-1.3535 v -3.4234 l 1.112882,-2.0836 1.189454,-1.3453 1.298828,-3.1828 v -0.8586 c -0.639755,0.081 -1.263658,0.1459 -1.889453,0.1914 l 1.29336,-1.2934 1.785546,-1.225 0.976172,-1.0992 v -1.225 c -0.216551,-0.4083 -0.43275,-0.8167 -0.650782,-1.225 l -0.866796,0.9789 -0.648047,-0.7328 -0.973437,-0.7356 v -1.5914 l 1.1375,1.2852 1.24414,-0.1832 c 0.566763,0.5144 1.124375,1.0058 1.621485,1.5914 l 0.123046,-0.1395 C 59.275804,22.8807 56.465239,17.054 52.212501,12.6187 51.977616,12.3781 51.729735,12.1191 51.53711,11.9297 51.21379,11.61496 50.8746,11.31799 50.536329,11.01914 L 50.230079,11.52227 49.147267,12.7473 47.741799,11 h 1.405468 l 0.650782,-0.45664 -2.597657,-0.48945 z m -30.583984,0.041 c -0.158377,0.11872 -0.320048,0.23349 -0.47578,0.35547 l 0.21328,0.95157 c 0,0 -0.989474,0.10862 -1.561328,0.1832 C 7.6385962,16.2089 4.0071411,23.6432 3.9999993,31.9754 4.2253516,32.3464 4.4484368,32.7 4.4484368,32.7 l 2.2722657,1.3453 2.275,0.6152 0.9707031,1.225 1.5148434,1.0993 0.866797,-0.1204 0.648047,0.2926 v 0.1969 l -0.864062,2.3242 -0.650782,0.9817 0.216016,0.4894 -0.697266,1.8348 2.102734,3.5519 1.389435,1.7118 0.864063,1.2222 -0.106638,2.5731 1.208222,1.4683 -0.358204,1.5531 c 1.248478,0.8604 2.579647,1.6045 3.964844,2.2559 l 0.50586,-0.5031 0.322655,-0.8559 1.408204,-0.4922 1.298824,-2.6933 -0.541403,-0.7328 0.754689,-1.5226 1.423468,-0.3692 0.962496,-1.5371 -0.311715,-2.4446 1.977092,-1.8375 0.21875,-1.8375 c -1.776196,-0.8805 -4.019243,-1.7868 -5.7822,-2.6933 L 21.434377,38.0867 19.812893,37.92 18.94883,35.8963 16.785939,36.1397 14.945705,34 l -1.94961,2.0059 v 0.2707 c -0.589393,-0.1701 -1.312719,-0.1915 -1.837502,-0.5141 l -0.434766,-1.225 v -1.348 l -1.2988277,0.123 c 0.1083516,-0.8573 0.2190318,-1.7131 0.328125,-2.5703 H 8.9957025 l -0.7574219,0.9789 -0.757422,0.3664 -1.0828125,-0.6098 -0.109375,-1.348 0.2160157,-1.4684 1.6242188,-1.225 h 1.2960937 l 0.2160157,-0.7355 1.624219,0.3664 1.04919,1.4711 0.21875,-2.45 2.196512,-1.7117 0.757423,-2.3502 1.512109,-0.053 0.866797,-0.7069 1.946875,-0.3719 0.973437,-1.4656 h -2.920312 l 1.840234,-1.4292 h 1.296094 l 1.840234,-0.6016 0.216016,-0.7328 -0.65078,-0.6125 -0.757423,-0.2461 0.21875,-0.7328 -0.541406,-1.1019 -1.298828,0.4867 0.216016,-0.9789 -1.514845,-0.8559 -1.186718,2.0809 0.106638,0.7355 -1.192187,0.4895 -0.757423,1.5914 -0.322656,-1.4684 -2.05625,-0.8586 -0.325391,-1.1019 2.704297,-1.5914 1.192187,-1.10199 0.106638,-1.34531 -0.648046,-0.36914 z m 21.15978,0.87357 -1.567076,0.48945 -0.708682,-0.12305 h -0.0028 l -0.109382,0.73555 1.039542,0.48946 1.996373,-0.8586 -0.648047,-0.73281 z m -15.581655,0.92292 -0.864062,0.61249 1.080078,0.7356 h 0.866797 v -0.8586 z m 17.092579,2.81639 v 0.7356 l 0.434766,0.4894 v 1.102 l -0.21875,1.4683 1.192186,-0.2433 0.864064,-0.8586 -0.757423,-0.7328 C 39.139394,15.499 38.848036,14.8651 38.529686,14.2156 Z m -0.429298,1.4684 -0.760156,0.2461 0.21875,1.3453 0.970704,-0.4867 z m -14.929686,2.2066 0.322655,1.709 0.648047,-0.9762 z m 28.248827,9.5457 1.246875,1.4082 1.460157,3.12 0.864062,0.9816 -0.434766,1.0992 0.823047,0.9324 c -0.377899,0.026 -0.7544,0.052 -1.142968,0.052 -0.688953,-1.4473 -1.206204,-2.8965 -1.730859,-4.4106 l -1.200939,-1.039 -0.486719,-1.7774 z"
     id="path2" />
  <path
     style="fill:url(#radialGradient15);fill-rule:evenodd;fill-opacity:1"
     d="m 13.533147,36.005 c -1.919736,-0.069 -3.481754,0.5795 -4.6128943,1.6277 -1.1311409,1.0481 -1.8417674,2.4663 -2.2209273,3.9443 -0.6227668,2.427 -0.6634728,5.916 -1.1402661,8.4958 -0.2368222,1.2809 -1.3135288,3.2749 -3.3300946,5.8583 -0.5150616,0.8657 -1.892e-4,0.9777 -1.892e-4,0.9777 0.2891,0.2061 0.813516,0.016 1.0773617,-0.1149 2.9723088,-1.5082 4.7823151,-2.7994 6.0935452,-2.8597 2.6047106,-0.119 6.0423236,0.3149 8.5157126,0.028 1.606737,-0.186 3.199273,-0.7548 4.418531,-1.8703 1.219257,-1.1157 2.023124,-2.1653 2.049887,-4.3459 0.0023,-0.1811 0.06689,-0.4828 0.08292,-0.8476 0.01606,-0.365 -0.0638,-0.9066 -0.487203,-1.2547 -0.459015,-0.3775 -0.992046,-1.3246 -1.516035,-2.4024 -0.523988,-1.0779 -1.065419,-2.2783 -1.827019,-3.2189 l -0.443147,-0.5478 -0.295432,0.2711 C 19.253292,39.1855 18.582614,38.671 17.998318,38.2721 17.255156,37.7652 16.66551,37.3077 16.337155,36.7645 15.566349,35.9606 14.523011,36.0759 13.533138,36.0041 Z"
     id="path6" />
  <path
     style="fill:url(#radialGradient11);fill-rule:evenodd"
     d="m 55.429714,7.7146 c -1.677885,0.65592 -3.677395,1.62207 -5.640049,2.63424 -1.962654,1.0123 -3.886002,2.07156 -5.387953,2.91476 -1.501951,0.843 -2.631087,1.4922 -2.837326,1.5987 -0.665894,0.3435 -4.000348,2.2699 -7.772988,4.7225 -3.772639,2.4521 -7.883438,5.3535 -9.950411,7.6835 -1.961875,2.2116 -3.151962,3.5728 -3.934688,5.0571 -0.782728,1.4843 -1.11001,3.0351 -1.379119,5.4922 l -0.02718,0.246 0.150764,0.1991 c 1.354605,1.7928 3.633012,4.7853 5.845188,6.5696 l 0.165591,0.1317 0.212552,0.014 c 5.080715,0.1585 6.418456,-0.4882 11.467939,-3.6548 2.657302,-1.6665 6.181812,-5.2247 9.201535,-8.5176 3.019724,-3.2929 5.440469,-6.2361 5.884731,-6.8327 0.149447,-0.2006 0.933523,-1.1794 1.967346,-2.5012 1.033821,-1.3222 2.340347,-3.0193 3.615859,-4.7619 1.275514,-1.7428 2.518823,-3.5283 3.435437,-5.0521 0.458309,-0.7619 0.836268,-1.4565 1.097364,-2.06358 0.261096,-0.60692 0.44117,-1.10269 0.368258,-1.648 -0.121207,-0.9063 -0.579591,-1.4417 -0.847735,-1.71666 l 0.0075,-0.0135 c 0,0 -0.0436,-0.0312 -0.04449,-0.0325 C 60.708372,7.79871 60.354786,7.55226 59.984084,7.36999 58.368159,6.58977 56.85898,7.20931 55.429751,7.71484 Z"
     id="path8" />
  <rect
     style="fill:url(#radialGradient13)"
     width="16.087"
     height="5.362"
     x="37.34063"
     y="4.8530593"
     rx="2.681"
     ry="2.681"
     transform="rotate(53.609065)"
     id="rect10" />
</svg>
