<?xml version="1.0" encoding="UTF-8" standalone="no"?>
<svg
   width="64"
   height="64"
   version="1.1"
   id="svg4"
   sodipodi:docname="zmninja.svg"
   inkscape:version="1.3.2 (091e20ef0f, 2023-11-25, custom)"
   xmlns:inkscape="http://www.inkscape.org/namespaces/inkscape"
   xmlns:sodipodi="http://sodipodi.sourceforge.net/DTD/sodipodi-0.dtd"
   xmlns:xlink="http://www.w3.org/1999/xlink"
   xmlns="http://www.w3.org/2000/svg"
   xmlns:svg="http://www.w3.org/2000/svg">
  <defs
     id="defs4">
    <linearGradient
       id="linearGradient5"
       inkscape:collect="always">
      <stop
         style="stop-color:#7c7c7c;stop-opacity:1;"
         offset="0"
         id="stop5" />
      <stop
         style="stop-color:#595959;stop-opacity:1;"
         offset="1"
         id="stop6" />
    </linearGradient>
    <inkscape:path-effect
       effect="fillet_chamfer"
       id="path-effect4"
       is_visible="true"
       lpeversion="1"
       nodesatellites_param="F,0,0,1,0,0,0,1 @ F,0,0,1,0,0,0,1 @ F,0,1,1,0,2.4003621,0,1 @ F,0,1,1,0,2.4003621,0,1 | F,0,0,1,0,1.5692767,0,1 @ F,0,0,1,0,1.5692767,0,1 @ F,0,0,1,0,0,0,1 | F,0,0,1,0,1.5692767,0,1 @ F,0,0,1,0,1.5692767,0,1 @ F,0,0,1,0,0,0,1 | F,0,0,1,0,2.4003621,0,1 @ F,0,1,1,0,2.4003621,0,1 @ F,0,0,1,0,0,0,1"
       radius="0"
       unit="px"
       method="auto"
       mode="F"
       chamfer_steps="1"
       flexible="false"
       use_knot_distance="true"
       apply_no_radius="true"
       apply_with_radius="true"
       only_selected="false"
       hide_knots="false" />
    <radialGradient
       inkscape:collect="always"
       xlink:href="#linearGradient5"
       id="radialGradient6"
       cx="19.10993"
       cy="9.6682463"
       fx="19.10993"
       fy="9.6682463"
       r="26.208166"
       gradientUnits="userSpaceOnUse"
       gradientTransform="matrix(0,2.0088081,-2.0088081,0,25.343624,-32.47177)" />
    <inkscape:path-effect
       effect="fillet_chamfer"
       id="path-effect4-3"
       is_visible="true"
       lpeversion="1"
       nodesatellites_param="F,0,0,1,0,0,0,1 @ F,0,0,1,0,0,0,1 @ F,0,1,1,0,2.4003621,0,1 @ F,0,1,1,0,2.4003621,0,1 | F,0,0,1,0,1.5692767,0,1 @ F,0,0,1,0,1.5692767,0,1 @ F,0,0,1,0,0,0,1 | F,0,0,1,0,1.5692767,0,1 @ F,0,0,1,0,1.5692767,0,1 @ F,0,0,1,0,0,0,1 | F,0,0,1,0,2.4003621,0,1 @ F,0,1,1,0,2.4003621,0,1 @ F,0,0,1,0,0,0,1"
       radius="0"
       unit="px"
       method="auto"
       mode="F"
       chamfer_steps="1"
       flexible="false"
       use_knot_distance="true"
       apply_no_radius="true"
       apply_with_radius="true"
       only_selected="false"
       hide_knots="false" />
    <filter
       inkscape:collect="always"
       style="color-interpolation-filters:sRGB"
       id="filter6"
       x="-0.14724736"
       y="-0.14054182"
       width="1.2944947"
       height="1.2810836">
      <feGaussianBlur
         inkscape:collect="always"
         stdDeviation="2.5101683"
         id="feGaussianBlur6" />
    </filter>
    <filter
       inkscape:collect="always"
       style="color-interpolation-filters:sRGB"
       id="filter7"
       x="-0.10860133"
       y="-0.10860133"
       width="1.2172027"
       height="1.2172027">
      <feGaussianBlur
         inkscape:collect="always"
         stdDeviation="2.3093682"
         id="feGaussianBlur7" />
    </filter>
  </defs>
  <sodipodi:namedview
     id="namedview4"
     pagecolor="#ffffff"
     bordercolor="#000000"
     borderopacity="0.25"
     inkscape:showpageshadow="2"
     inkscape:pageopacity="0.0"
     inkscape:pagecheckerboard="0"
     inkscape:deskcolor="#d1d1d1"
     inkscape:zoom="10.468606"
     inkscape:cx="29.660109"
     inkscape:cy="37.349767"
     inkscape:window-width="1920"
     inkscape:window-height="1020"
     inkscape:window-x="0"
     inkscape:window-y="0"
     inkscape:window-maximized="1"
     inkscape:current-layer="svg4" />
  <circle
     style="fill:url(#radialGradient6);fill-opacity:1;stroke:none;stroke-width:0.3;stroke-linecap:round;stroke-linejoin:round;stroke-miterlimit:4.2;paint-order:markers stroke fill"
     id="path5"
     cx="32"
     cy="32"
     r="26.208166" />
  <path
     style="fill:#ffffff;fill-opacity:1"
     d="M 36.542376,10.464256 C 34.963677,10.133844 33.354059,9.9741652 31.741902,9.9880364 22.42812,10.090119 14.284207,15.908433 11.169735,24.409992 c -0.455787,1.244157 0.374342,2.284278 1.699964,2.271451 l 38.217028,-0.369811 c 1.325622,-0.01283 2.126735,-1.066521 1.637503,-2.297919 C 49.995302,17.145001 43.939512,12.010439 36.542376,10.464256 Z m 8.399243,18.677528 -6.738674,0.05357 c -0.86666,0.0069 -1.687554,0.728493 -1.512516,1.572922 0.431233,2.080394 2.243438,4.025857 4.970333,4.003398 2.440119,-0.01976 4.332488,-1.894372 4.782158,-4.081396 0.173787,-0.845234 -0.634641,-1.555384 -1.501301,-1.548494 z m -20.495437,0.0744 -6.642801,0.06575 c -0.866645,0.0086 -1.687247,0.731119 -1.515179,1.576267 0.423767,2.081417 2.215046,4.020137 4.913181,3.993685 2.628993,0 4.413612,-2.085527 4.807841,-4.092732 0.165887,-0.84461 -0.696397,-1.551553 -1.563042,-1.542974 z m 26.783924,8.102389 -38.217028,0.369811 c -1.325622,0.01283 -2.126865,1.066539 -1.638097,2.298125 3.351657,8.44542 11.663048,14.107879 20.982922,14.025471 9.313782,-0.102083 17.457695,-5.920397 20.572167,-14.421956 0.455787,-1.244157 -0.374342,-2.284278 -1.699964,-2.271451 z"
     id="path4"
     sodipodi:nodetypes="ccccccccccccccccc"
     inkscape:path-effect="#path-effect4"
     inkscape:original-d="M 36.542376,10.464256 C 34.963677,10.133844 33.354059,9.9741652 31.741902,9.9880364 21.611978,10.099064 12.86593,16.972013 10.469449,26.704669 L 53.486977,26.288406 C 51.282733,18.291274 44.73529,12.176776 36.542376,10.464256 Z m 9.96847,18.665053 -9.877128,0.07852 c -0.362803,2.542322 1.616863,5.591931 5.027044,5.563845 3.00898,-0.02437 5.185049,-2.86923 4.850084,-5.642365 z m -20.495464,0.07134 -9.781201,0.09682 c -0.361885,2.548862 1.59392,5.58749 4.967202,5.554419 3.335133,0 5.311383,-3.35632 4.813999,-5.651239 z m 27.614974,8.094696 -43.017528,0.416263 c 2.669474,9.687231 11.611093,16.389976 21.745075,16.30037 10.129924,-0.111028 18.875972,-6.983977 21.272453,-16.716633 z"
     transform="matrix(0.88865691,-0.2381149,0.2381149,0.88865691,-4.0528408,11.181626)" />
  <circle
     style="fill:none;fill-opacity:1;stroke:#000000;stroke-width:0.3;stroke-linecap:round;stroke-linejoin:round;stroke-miterlimit:4.2;paint-order:markers stroke fill;stroke-opacity:1;stroke-dasharray:none;filter:url(#filter7)"
     id="path5-3"
     cx="32"
     cy="32"
     r="26.208166" />
  <path
     style="fill:none;fill-opacity:1;stroke:#000000;stroke-width:0.326085;stroke-dasharray:none;stroke-opacity:1;filter:url(#filter6)"
     d="M 36.542376,10.464256 C 34.963677,10.133844 33.354059,9.9741652 31.741902,9.9880364 22.42812,10.090119 14.284207,15.908433 11.169735,24.409992 c -0.455787,1.244157 0.374342,2.284278 1.699964,2.271451 l 38.217028,-0.369811 c 1.325622,-0.01283 2.126735,-1.066521 1.637503,-2.297919 C 49.995302,17.145001 43.939512,12.010439 36.542376,10.464256 Z m 8.399243,18.677528 -6.738674,0.05357 c -0.86666,0.0069 -1.687554,0.728493 -1.512516,1.572922 0.431233,2.080394 2.243438,4.025857 4.970333,4.003398 2.440119,-0.01976 4.332488,-1.894372 4.782158,-4.081396 0.173787,-0.845234 -0.634641,-1.555384 -1.501301,-1.548494 z m -20.495437,0.0744 -6.642801,0.06575 c -0.866645,0.0086 -1.687247,0.731119 -1.515179,1.576267 0.423767,2.081417 2.215046,4.020137 4.913181,3.993685 2.628993,0 4.413612,-2.085527 4.807841,-4.092732 0.165887,-0.84461 -0.696397,-1.551553 -1.563042,-1.542974 z m 26.783924,8.102389 -38.217028,0.369811 c -1.325622,0.01283 -2.126865,1.066539 -1.638097,2.298125 3.351657,8.44542 11.663048,14.107879 20.982922,14.025471 9.313782,-0.102083 17.457695,-5.920397 20.572167,-14.421956 0.455787,-1.244157 -0.374342,-2.284278 -1.699964,-2.271451 z"
     id="path4-5"
     sodipodi:nodetypes="ccccccccccccccccc"
     inkscape:path-effect="#path-effect4-3"
     inkscape:original-d="M 36.542376,10.464256 C 34.963677,10.133844 33.354059,9.9741652 31.741902,9.9880364 21.611978,10.099064 12.86593,16.972013 10.469449,26.704669 L 53.486977,26.288406 C 51.282733,18.291274 44.73529,12.176776 36.542376,10.464256 Z m 9.96847,18.665053 -9.877128,0.07852 c -0.362803,2.542322 1.616863,5.591931 5.027044,5.563845 3.00898,-0.02437 5.185049,-2.86923 4.850084,-5.642365 z m -20.495464,0.07134 -9.781201,0.09682 c -0.361885,2.548862 1.59392,5.58749 4.967202,5.554419 3.335133,0 5.311383,-3.35632 4.813999,-5.651239 z m 27.614974,8.094696 -43.017528,0.416263 c 2.669474,9.687231 11.611093,16.389976 21.745075,16.30037 10.129924,-0.111028 18.875972,-6.983977 21.272453,-16.716633 z"
     transform="matrix(0.88865691,-0.2381149,0.2381149,0.88865691,-4.1010521,11.194507)" />
</svg>
