<?xml version="1.0" encoding="UTF-8" standalone="no"?>
<svg
   width="64"
   height="64"
   version="1.1"
   id="svg6"
   sodipodi:docname="zoho-mail-desktop.svg"
   inkscape:version="1.3.2 (091e20ef0f, 2023-11-25, custom)"
   xmlns:inkscape="http://www.inkscape.org/namespaces/inkscape"
   xmlns:sodipodi="http://sodipodi.sourceforge.net/DTD/sodipodi-0.dtd"
   xmlns:xlink="http://www.w3.org/1999/xlink"
   xmlns="http://www.w3.org/2000/svg"
   xmlns:svg="http://www.w3.org/2000/svg">
  <defs
     id="defs6">
    <inkscape:path-effect
       effect="fillet_chamfer"
       id="path-effect7"
       is_visible="true"
       lpeversion="1"
       nodesatellites_param="F,0,0,1,0,0,0,1 @ F,0,0,1,0,0,0,1 @ F,0,0,1,0,0,0,1 @ F,0,0,1,0,0,0,1 @ F,0,0,1,0,0,0,1 @ F,0,0,1,0,0,0,1 @ F,0,0,1,0,0,0,1 @ F,0,0,1,0,0,0,1 @ F,0,0,1,0,0,0,1 @ F,0,0,1,0,0,0,1 @ F,0,0,1,0,0,0,1 @ F,0,0,1,0,1.5076344,0,1 @ F,0,0,1,0,1.5076344,0,1 @ F,0,0,1,0,0,0,1 @ F,0,0,1,0,1.5076344,0,1 @ F,0,0,1,0,2.0013919,0,1 @ F,0,0,1,0,1.894628,0,1 @ F,0,0,1,0,0,0,1 @ F,0,0,1,0,0,0,1 @ F,0,0,1,0,0,0,1 @ F,0,0,1,0,0,0,1 @ F,0,0,1,0,0,0,1 @ F,0,0,1,0,0,0,1 @ F,0,0,1,0,0,0,1 @ F,0,0,1,0,0,0,1 @ F,0,0,1,0,0,0,1 @ F,0,0,1,0,0,0,1 @ F,0,0,1,0,0,0,1 @ F,0,0,1,0,0,0,1 @ F,0,0,1,0,0,0,1 @ F,0,0,1,0,0,0,1"
       radius="0"
       unit="px"
       method="auto"
       mode="F"
       chamfer_steps="1"
       flexible="false"
       use_knot_distance="true"
       apply_no_radius="true"
       apply_with_radius="true"
       only_selected="false"
       hide_knots="false" />
    <linearGradient
       id="linearGradient6"
       inkscape:collect="always">
      <stop
         style="stop-color:#00c8ff;stop-opacity:1;"
         offset="0"
         id="stop6" />
      <stop
         style="stop-color:#0081ff;stop-opacity:1;"
         offset="1"
         id="stop7" />
    </linearGradient>
    <radialGradient
       inkscape:collect="always"
       xlink:href="#linearGradient6"
       id="radialGradient7"
       cx="17.233248"
       cy="19.95368"
       fx="17.233248"
       fy="19.95368"
       r="28"
       gradientTransform="matrix(0,2.9961719,-2.9961723,0,62.480657,-49.355952)"
       gradientUnits="userSpaceOnUse" />
    <filter
       inkscape:collect="always"
       style="color-interpolation-filters:sRGB"
       id="filter7"
       x="-0.10973236"
       y="-0.10973402"
       width="1.2194647"
       height="1.219468">
      <feGaussianBlur
         inkscape:collect="always"
         stdDeviation="2.3258373"
         id="feGaussianBlur7" />
    </filter>
    <inkscape:path-effect
       effect="fillet_chamfer"
       id="path-effect7-3"
       is_visible="true"
       lpeversion="1"
       nodesatellites_param="F,0,0,1,0,0,0,1 @ F,0,0,1,0,0,0,1 @ F,0,0,1,0,0,0,1 @ F,0,0,1,0,0,0,1 @ F,0,0,1,0,0,0,1 @ F,0,0,1,0,0,0,1 @ F,0,0,1,0,0,0,1 @ F,0,0,1,0,0,0,1 @ F,0,0,1,0,0,0,1 @ F,0,0,1,0,0,0,1 @ F,0,0,1,0,0,0,1 @ F,0,0,1,0,1.5076344,0,1 @ F,0,0,1,0,1.5076344,0,1 @ F,0,0,1,0,0,0,1 @ F,0,0,1,0,1.5076344,0,1 @ F,0,0,1,0,2.0013919,0,1 @ F,0,0,1,0,1.894628,0,1 @ F,0,0,1,0,0,0,1 @ F,0,0,1,0,0,0,1 @ F,0,0,1,0,0,0,1 @ F,0,0,1,0,0,0,1 @ F,0,0,1,0,0,0,1 @ F,0,0,1,0,0,0,1 @ F,0,0,1,0,0,0,1 @ F,0,0,1,0,0,0,1 @ F,0,0,1,0,0,0,1 @ F,0,0,1,0,0,0,1 @ F,0,0,1,0,0,0,1 @ F,0,0,1,0,0,0,1 @ F,0,0,1,0,0,0,1 @ F,0,0,1,0,0,0,1"
       radius="0"
       unit="px"
       method="auto"
       mode="F"
       chamfer_steps="1"
       flexible="false"
       use_knot_distance="true"
       apply_no_radius="true"
       apply_with_radius="true"
       only_selected="false"
       hide_knots="false" />
    <filter
       inkscape:collect="always"
       style="color-interpolation-filters:sRGB"
       id="filter8"
       x="-0.042486355"
       y="-0.042496753"
       width="1.0849754"
       height="1.0849935">
      <feGaussianBlur
         inkscape:collect="always"
         stdDeviation="0.71211876"
         id="feGaussianBlur8" />
    </filter>
  </defs>
  <sodipodi:namedview
     id="namedview6"
     pagecolor="#ffffff"
     bordercolor="#000000"
     borderopacity="0.25"
     inkscape:showpageshadow="2"
     inkscape:pageopacity="0.0"
     inkscape:pagecheckerboard="0"
     inkscape:deskcolor="#d1d1d1"
     inkscape:zoom="8.6247675"
     inkscape:cx="31.595055"
     inkscape:cy="35.827053"
     inkscape:window-width="1920"
     inkscape:window-height="1020"
     inkscape:window-x="0"
     inkscape:window-y="0"
     inkscape:window-maximized="1"
     inkscape:current-layer="svg6" />
  <path
     style="fill:url(#radialGradient7);stroke-width:0.932776"
     d="M 32.025504,5.8823032 C 30.560128,5.877147 29.128236,6.3203663 27.921981,7.1524813 L 8.9881482,20.21134 c -1.9433193,1.340804 -3.1036704,3.551083 -3.1037818,5.912196 v 21.547118 c 0,0 -0.101366,2.251504 1.1094044,4.756792 1.2107705,2.505286 5.1728282,5.690295 9.2271842,5.690295 h 31.558089 c 4.054358,0 8.016416,-3.185009 9.227187,-5.690295 1.210769,-2.505288 1.109402,-4.756792 1.109402,-4.756792 V 26.123536 C 58.115523,23.762423 56.95517,21.552144 55.011852,20.21134 L 36.078019,7.1524813 C 34.886084,6.3302437 33.473483,5.8874926 32.025504,5.8823032 Z"
     id="path2" />
  <path
     style="fill:none;stroke-width:0.3;stroke:#000000;stroke-opacity:1;stroke-dasharray:none;filter:url(#filter7)"
     d="m 32.025504,5.8823041 c -1.465376,-0.0052 -2.897268,0.438063 -4.103523,1.270178 L 8.9881485,20.21134 c -1.943319,1.340804 -3.10367,3.551083 -3.103782,5.912196 v 21.547118 c 0,0 -0.101366,2.251504 1.109405,4.756792 1.21077,2.505286 5.1728275,5.690295 9.2271835,5.690295 h 31.558089 c 4.054358,0 8.016416,-3.185009 9.227187,-5.690295 1.210769,-2.505288 1.109402,-4.756792 1.109402,-4.756792 V 26.123536 C 58.115523,23.762423 56.95517,21.552144 55.011852,20.21134 L 36.078019,7.1524821 c -1.191935,-0.822238 -2.604536,-1.264989 -4.052515,-1.270178 z"
     id="path2-5" />
  <path
     style="color:#000000;fill:#ffffff;stroke-linecap:round;stroke-linejoin:round;-inkscape-stroke:none"
     d="m 30.869141,10.349609 -20,13.701172 C 10.325521,24.423495 10.000416,25.0401 10,25.699219 v 7.992187 c -3.941e-4,0.721386 0.387687,1.387094 1.015625,1.742188 l 20,11.30664 c 0.618907,0.350604 1.377448,0.346141 1.992187,-0.01172 l 12,-7 c 0.955045,-0.556287 1.277815,-1.781765 0.720704,-2.736329 C 45.172229,36.037141 43.94675,35.71437 42.992187,36.271482 L 31.984375,42.693359 15.3124,33.267393 A 2.584295,2.584295 59.741429 0 1 14,31.017757 V 28.26154 a 2.8601674,2.8601674 117.79434 0 1 1.243801,-2.359643 L 32,14.423828 48.756199,25.901897 c 0.686932,0.470551 1.243899,1.527 1.244097,2.359643 0.0016,6.578991 0.0065,13.158177 0.0074,19.737069 C 50.00781,49.103947 49.111746,50 48.006408,50 H 15.894628 A 1.894628,1.894628 45 0 1 14,48.105372 V 41 c 0,-1.104569 -0.895431,-2 -2,-2 -1.104569,0 -2,0.895431 -2,2 v 7.400391 c -2.492e-4,0.01823 -2.492e-4,0.03646 0,0.05469 0,0 0.01189,1.287172 0.683594,2.636719 C 11.3553,52.441344 13.083337,54 15.484375,54 h 33.431641 c 2.401037,0 4.131366,-1.669681 4.675781,-3.078125 0.544415,-1.408444 0.40039,-2.6875 0.40039,-2.6875 L 54,48.400391 V 25.699219 C 53.999584,25.0401 53.674479,24.423495 53.130859,24.050781 l -20,-13.701172 c -0.681539,-0.4671523 -1.580179,-0.4671523 -2.261718,0 z"
     id="path4"
     inkscape:path-effect="#path-effect7"
     inkscape:original-d="m 30.869141,10.349609 -20,13.701172 C 10.325521,24.423495 10.000416,25.0401 10,25.699219 v 7.992187 c -3.941e-4,0.721386 0.387687,1.387094 1.015625,1.742188 l 20,11.30664 c 0.618907,0.350604 1.377448,0.346141 1.992187,-0.01172 l 12,-7 c 0.955045,-0.556287 1.277815,-1.781765 0.720704,-2.736329 C 45.172229,36.037141 43.94675,35.71437 42.992187,36.271482 L 31.984375,42.693359 14,32.525391 V 26.753906 L 32,14.423828 50,26.753906 C 50.001187,34.502548 50.0078,42.251512 50.0078,50 H 14 v -9 c 0,-1.104569 -0.895431,-2 -2,-2 -1.104569,0 -2,0.895431 -2,2 v 7.400391 c -2.492e-4,0.01823 -2.492e-4,0.03646 0,0.05469 0,0 0.01189,1.287172 0.683594,2.636719 C 11.3553,52.441344 13.083337,54 15.484375,54 h 33.431641 c 2.401037,0 4.131366,-1.669681 4.675781,-3.078125 0.544415,-1.408444 0.40039,-2.6875 0.40039,-2.6875 L 54,48.400391 V 25.699219 C 53.999584,25.0401 53.674479,24.423495 53.130859,24.050781 l -20,-13.701172 c -0.681539,-0.4671523 -1.580179,-0.4671523 -2.261718,0 z"
     sodipodi:nodetypes="cccccccccccccccccsssccsssscccccc"
     transform="matrix(0.93277567,0,0,0.93277567,2.1511787,2.1511787)" />
  <path
     style="color:#000000;fill:#ffad42;stroke-width:0.932776;stroke-linecap:round;stroke-linejoin:round;-inkscape-stroke:none"
     d="m 24.109666,26.403346 a 1.8657379,1.8657379 0 0 0 -0.227729,0.01458 c 0,0 -1.083619,0.116133 -2.237205,0.675898 -1.153585,0.559761 -2.703591,1.91877 -2.703591,3.973401 a 1.8655513,1.8655513 0 0 0 1.865551,1.865552 1.8655513,1.8655513 0 0 0 1.865551,-1.865552 c 0,-0.335991 0.103014,-0.375858 0.601203,-0.617599 0.476058,-0.231003 0.97141,-0.307596 1.018402,-0.315176 H 39.78649 c 0.01123,0.0012 0.451303,0.04853 0.865369,0.273274 0.419322,0.227599 0.675898,0.299308 0.675898,1.244308 v 5.944623 a 1.8655513,1.8655513 0 0 0 1.865551,1.865551 1.8655513,1.8655513 0 0 0 1.865551,-1.865551 v -5.944623 c 0,-2.236428 -1.394637,-3.854656 -2.627075,-4.523597 -1.232438,-0.668943 -2.428496,-0.721445 -2.428496,-0.721445 a 1.8657379,1.8657379 0 0 0 -0.112954,-0.0036 z"
     id="path5" />
  <path
     id="path4-5"
     style="color:#000000;fill:none;stroke-linecap:round;stroke-linejoin:round;stroke:#0024ff;stroke-opacity:1;stroke-width:0.32162075;stroke-dasharray:none;filter:url(#filter8)"
     d="M 32.000434 9.9991725 C 31.60539 9.9991725 31.210506 10.115275 30.869736 10.348851 L 10.868947 24.051235 C 10.325327 24.423948 10.0004 25.040004 9.9999844 25.699122 L 9.9999844 33.691481 C 9.9995903 34.412867 10.387581 35.0785 11.015519 35.433594 L 31.016308 46.740573 C 31.635215 47.091177 32.392855 47.08587 33.007593 46.72801 L 45.007648 39.728152 C 45.032755 39.713528 45.052518 39.69343 45.076746 39.677899 A 2 2 0 0 0 45.261008 39.54389 C 45.371388 39.454008 45.471702 39.356753 45.55834 39.248652 A 2 2 0 0 0 45.675597 39.079048 C 45.749603 38.963946 45.81113 38.843423 45.859859 38.716806 A 2 2 0 0 0 45.916394 38.561858 C 45.964106 38.399137 45.99057 38.231725 45.995962 38.061419 A 2 2 0 0 0 46.004337 38.006978 L 46.004337 31.633192 C 46.004337 29.235589 44.509319 27.500905 43.188062 26.783755 C 41.866805 26.066602 40.585363 26.011111 40.585363 26.011111 A 2.0002 2.0002 0 0 0 40.463918 26.006923 L 23.545327 26.006923 A 2.0002 2.0002 0 0 0 23.302436 26.023675 C 23.302436 26.023675 22.139566 26.148053 20.902844 26.748159 C 19.666122 27.348261 18.004907 28.804417 18.004907 31.007121 A 2 2 0 0 0 20.004567 33.006781 A 2 2 0 0 0 22.004227 31.007121 C 22.004227 30.646916 22.115051 30.604616 22.649144 30.345453 C 23.15951 30.097802 23.689679 30.01437 23.740058 30.006244 L 40.352942 30.006244 C 40.364981 30.00753 40.836626 30.058447 41.280533 30.299388 C 41.730074 30.543389 42.005017 30.620088 42.005017 31.633192 L 42.005017 36.846966 L 31.983683 42.693093 L 15.312171 33.266423 A 2.584295 2.584295 0 0 1 13.999305 31.01759 L 13.999305 28.262038 A 2.8601674 2.8601674 0 0 1 15.243073 25.902229 L 32.000434 14.423552 L 48.755702 25.902229 C 49.442634 26.37278 49.999272 27.429395 49.99947 28.262038 C 50.001032 34.841022 50.006954 41.420112 50.007845 47.998998 C 50.007995 49.104335 49.111428 50.000752 48.006091 50.000752 L 15.894271 50.000752 A 1.894628 1.894628 0 0 1 13.999305 48.105786 L 13.999305 40.99914 C 13.999305 39.894572 13.104213 38.99948 11.999645 38.99948 C 10.895077 38.99948 9.9999844 39.894572 9.9999844 40.99914 L 9.9999844 48.401024 C 9.9997352 48.419254 9.9997352 48.437235 9.9999844 48.455465 C 9.9999844 48.455465 10.010888 49.74212 10.682591 51.091666 C 11.354296 52.441209 13.082834 54.000072 15.483869 54.000072 L 48.916931 54.000072 C 51.317966 54.000072 53.048162 52.330504 53.592577 50.922061 C 54.05867 49.716242 54.021612 48.655943 54.000884 48.36124 L 54.000884 25.699122 C 54.000468 25.040004 53.673447 24.423948 53.129828 24.051235 L 33.131132 10.348851 C 32.790363 10.115275 32.395479 9.9991725 32.000434 9.9991725 z "
     transform="matrix(0.93277567,0,0,0.93277567,2.1468672,2.1515308)" />
</svg>
