<?xml version="1.0" encoding="UTF-8" standalone="no"?>
<svg
   width="64"
   height="64"
   version="1.1"
   id="svg6"
   sodipodi:docname="zombie-panic-source.svg"
   inkscape:version="1.3.2 (091e20ef0f, 2023-11-25, custom)"
   xmlns:inkscape="http://www.inkscape.org/namespaces/inkscape"
   xmlns:sodipodi="http://sodipodi.sourceforge.net/DTD/sodipodi-0.dtd"
   xmlns:xlink="http://www.w3.org/1999/xlink"
   xmlns="http://www.w3.org/2000/svg"
   xmlns:svg="http://www.w3.org/2000/svg">
  <defs
     id="defs6">
    <linearGradient
       id="linearGradient6"
       inkscape:collect="always">
      <stop
         style="stop-color:#ff782e;stop-opacity:1;"
         offset="0"
         id="stop6" />
      <stop
         style="stop-color:#cf3c37;stop-opacity:1;"
         offset="1"
         id="stop7" />
    </linearGradient>
    <radialGradient
       inkscape:collect="always"
       xlink:href="#linearGradient6"
       id="radialGradient7"
       cx="19.819763"
       cy="18.649904"
       fx="19.819763"
       fy="18.649904"
       r="28"
       gradientUnits="userSpaceOnUse"
       gradientTransform="matrix(1.7519925,1.0115134,-1.0115134,1.7519925,-1.0878474,-31.750465)" />
    <filter
       inkscape:collect="always"
       style="color-interpolation-filters:sRGB"
       id="filter7"
       x="-0.076201115"
       y="-0.082105133"
       width="1.1524022"
       height="1.1642034">
      <feGaussianBlur
         inkscape:collect="always"
         stdDeviation="1.1108782"
         id="feGaussianBlur7" />
    </filter>
    <filter
       inkscape:collect="always"
       style="color-interpolation-filters:sRGB"
       id="filter8"
       x="-0.11859143"
       y="-0.11859143"
       width="1.2371829"
       height="1.2371829">
      <feGaussianBlur
         inkscape:collect="always"
         stdDeviation="2.493402"
         id="feGaussianBlur8" />
    </filter>
  </defs>
  <sodipodi:namedview
     id="namedview6"
     pagecolor="#ffffff"
     bordercolor="#000000"
     borderopacity="0.25"
     inkscape:showpageshadow="2"
     inkscape:pageopacity="0.0"
     inkscape:pagecheckerboard="0"
     inkscape:deskcolor="#d1d1d1"
     inkscape:zoom="6.8795494"
     inkscape:cx="8.7941806"
     inkscape:cy="34.159214"
     inkscape:window-width="1920"
     inkscape:window-height="1020"
     inkscape:window-x="0"
     inkscape:window-y="0"
     inkscape:window-maximized="1"
     inkscape:current-layer="svg6" />
  <circle
     cx="32"
     cy="32"
     r="25.862597"
     style="fill:url(#radialGradient7);stroke-width:0.923664"
     id="circle2" />
  <path
     id="path4"
     style="fill:#ffffff;stroke-width:0.923664"
     d="m 31.446162,12.950865 c -6.313404,0.297638 -11.283291,5.486837 -11.318495,11.80017 -1.127797,0.558941 -2.192483,1.285059 -3.131799,2.224371 -4.410586,4.421245 -4.644637,11.502625 -0.535797,16.205615 -2.569074,-3.149061 -2.337642,-7.731864 0.535797,-10.605901 1.612508,-1.612508 3.747272,-2.376304 5.859495,-2.307357 a 9.2366415,9.2366415 0 0 0 -0.09201,1.279059 9.2366415,9.2366415 0 0 0 7.374881,9.023766 c -0.371007,1.170692 -1.014479,2.273693 -1.942942,3.202156 -2.93936,2.938732 -7.6506,3.106552 -10.789912,0.382455 4.104747,3.735139 10.143863,4.073773 14.594619,1.095047 4.450754,2.978726 10.489871,2.640092 14.594615,-1.095047 -3.139315,2.724097 -7.850554,2.556279 -10.789912,-0.382455 -0.928463,-0.928463 -1.571935,-2.031464 -1.942942,-3.202156 a 9.2366415,9.2366415 0 0 0 7.374881,-9.023766 9.2366415,9.2366415 0 0 0 -0.0902,-1.279059 c 2.111636,-0.06845 4.245641,0.695307 5.857691,2.307357 2.873439,2.874037 3.104872,7.45684 0.535797,10.605901 4.108841,-4.70299 3.87479,-11.78437 -0.535797,-16.205615 -0.936345,-0.936345 -1.998988,-1.662392 -3.122779,-2.220763 -0.03567,-6.220512 -4.864064,-11.365035 -11.076754,-11.783934 4.04333,0.410112 7.120091,3.815932 7.120512,7.88001 0,1.584301 -0.470569,3.055758 -1.271842,4.293595 a 9.2366415,9.2366415 0 0 0 -6.65327,-2.834134 9.2366415,9.2366415 0 0 0 -6.637032,2.844958 c -0.805288,-1.239908 -1.277254,-2.715803 -1.277254,-4.304419 4.41e-4,-4.156442 3.21439,-7.606252 7.360449,-7.899854 z m 0.553837,11.998614 a 6.5976011,6.5976011 0 0 1 4.852845,2.154013 c -1.340475,1.040781 -3.018952,1.665122 -4.847433,1.665122 -1.83081,0 -3.513342,-0.625547 -4.854649,-1.66873 a 6.5976011,6.5976011 0 0 1 4.849237,-2.150405 z m 0.0054,5.139686 1.979023,1.980826 -1.979023,1.979022 -1.980827,-1.979022 z m -6.537811,0.70718 c 0.993383,0.386058 1.925636,0.976716 2.727696,1.778775 1.489784,1.489784 2.254627,3.424323 2.309161,5.376014 a 6.5976011,6.5976011 0 0 1 -5.101789,-6.404312 6.5976011,6.5976011 0 0 1 0.06494,-0.750477 z m 13.064798,0 a 6.5976011,6.5976011 0 0 1 0.06496,0.750477 6.5976011,6.5976011 0 0 1 -5.101801,6.42596 c 0.04941,-1.959023 0.813869,-3.902369 2.309161,-5.397662 0.80206,-0.802059 1.734313,-1.392717 2.727696,-1.778775 z" />
  <circle
     cx="32"
     cy="32"
     r="25.862597"
     style="fill:none;stroke-width:0.30000001;stroke:#000000;stroke-opacity:1;stroke-dasharray:none;stroke-linecap:round;stroke-linejoin:round;filter:url(#filter8)"
     id="circle2-5" />
  <path
     id="path4-3"
     style="fill:none;stroke-width:0.30000001;stroke:#ff0000;stroke-opacity:1;stroke-dasharray:none;stroke-linecap:round;stroke-linejoin:round;filter:url(#filter7)"
     d="m 31.446164,12.950864 c -6.313404,0.297638 -11.283291,5.486837 -11.318495,11.80017 -1.127797,0.558941 -2.192483,1.285059 -3.131799,2.224371 -4.410586,4.421246 -4.644637,11.502626 -0.535797,16.205616 -2.569074,-3.149061 -2.337642,-7.731864 0.535797,-10.605901 1.612508,-1.612508 3.747272,-2.376304 5.859495,-2.307357 a 9.2366415,9.2366415 0 0 0 -0.09201,1.279059 9.2366415,9.2366415 0 0 0 7.374881,9.023766 c -0.371007,1.170692 -1.014479,2.273693 -1.942942,3.202156 -2.93936,2.938732 -7.6506,3.106552 -10.789912,0.382455 4.104743,3.735139 10.143859,4.073773 14.594615,1.095046 4.450754,2.978727 10.489871,2.640093 14.594615,-1.095047 -3.139315,2.724097 -7.850554,2.55628 -10.789912,-0.382455 -0.928463,-0.928462 -1.571935,-2.031464 -1.942942,-3.202155 a 9.2366415,9.2366415 0 0 0 7.374881,-9.023766 9.2366415,9.2366415 0 0 0 -0.0902,-1.27906 c 2.111636,-0.06845 4.245641,0.695307 5.857691,2.307358 2.873439,2.874037 3.104872,7.45684 0.535797,10.6059 4.108841,-4.70299 3.87479,-11.78437 -0.535797,-16.205615 -0.936345,-0.936345 -1.998988,-1.662392 -3.122779,-2.220763 -0.03567,-6.220512 -4.864064,-11.365035 -11.076754,-11.783934 4.04333,0.410112 7.120091,3.815932 7.120512,7.88001 0,1.584301 -0.470569,3.055758 -1.271842,4.293595 a 9.2366415,9.2366415 0 0 0 -6.653268,-2.834134 9.2366415,9.2366415 0 0 0 -6.637032,2.844958 c -0.805288,-1.239908 -1.277254,-2.715803 -1.277254,-4.304419 4.41e-4,-4.156442 3.21439,-7.606252 7.360449,-7.899854 z m 0.553837,11.998614 a 6.5976011,6.5976011 0 0 1 4.852845,2.154013 c -1.340475,1.040781 -3.018952,1.665123 -4.847433,1.665123 -1.83081,0 -3.513342,-0.625548 -4.854649,-1.668731 a 6.5976011,6.5976011 0 0 1 4.849237,-2.150405 z m 0.0054,5.139687 1.979023,1.980826 -1.979023,1.979022 -1.980827,-1.979022 z m -6.537811,0.70718 c 0.993383,0.386058 1.925636,0.976716 2.727696,1.778775 1.489784,1.489784 2.254627,3.424323 2.309161,5.376014 a 6.5976011,6.5976011 0 0 1 -5.101789,-6.404312 6.5976011,6.5976011 0 0 1 0.06494,-0.750478 z m 13.064798,0 a 6.5976011,6.5976011 0 0 1 0.06496,0.750477 6.5976011,6.5976011 0 0 1 -5.101801,6.42596 c 0.04941,-1.959023 0.813869,-3.902369 2.309161,-5.397662 0.80206,-0.802059 1.734313,-1.392717 2.727696,-1.778775 z" />
</svg>
