<?xml version="1.0" encoding="UTF-8" standalone="no"?>
<svg
   width="64"
   height="64"
   version="1.1"
   id="svg4"
   sodipodi:docname="zrythm.svg"
   inkscape:version="1.3.2 (091e20ef0f, 2023-11-25, custom)"
   xmlns:inkscape="http://www.inkscape.org/namespaces/inkscape"
   xmlns:sodipodi="http://sodipodi.sourceforge.net/DTD/sodipodi-0.dtd"
   xmlns:xlink="http://www.w3.org/1999/xlink"
   xmlns="http://www.w3.org/2000/svg"
   xmlns:svg="http://www.w3.org/2000/svg">
  <defs
     id="defs4">
    <linearGradient
       id="linearGradient6"
       inkscape:collect="always">
      <stop
         style="stop-color:#f16929;stop-opacity:1;"
         offset="0"
         id="stop6" />
      <stop
         style="stop-color:#f12b29;stop-opacity:1;"
         offset="1"
         id="stop7" />
    </linearGradient>
    <inkscape:path-effect
       effect="fillet_chamfer"
       id="path-effect5"
       is_visible="true"
       lpeversion="1"
       nodesatellites_param="F,0,1,1,0,14.461821,0,1 @ F,0,0,1,0,14.461821,0,1 @ F,0,1,1,0,14.461821,0,1 @ F,0,1,1,0,14.461821,0,1"
       radius="0"
       unit="px"
       method="auto"
       mode="F"
       chamfer_steps="1"
       flexible="false"
       use_knot_distance="true"
       apply_no_radius="true"
       apply_with_radius="true"
       only_selected="false"
       hide_knots="false" />
    <inkscape:path-effect
       effect="fillet_chamfer"
       id="path-effect4"
       is_visible="true"
       lpeversion="1"
       nodesatellites_param="F,0,0,1,0,6.0707272,0,1 @ F,0,0,1,0,6.0707272,0,1 @ F,0,0,1,0,6.0707272,0,1 @ F,0,0,1,0,6.0707272,0,1 | F,0,0,1,0,2.7446336,0,1 @ F,0,0,1,0,2.7446336,0,1 @ F,0,0,1,0,1.5924351,0,1 @ F,0,0,1,0,2.773763,0,1 @ F,0,0,1,0,2.773763,0,1 @ F,0,0,1,0,1.0809223,0,1 @ F,0,0,1,0,2.7446336,0,1 @ F,0,0,1,0,2.7446336,0,1 @ F,0,0,1,0,1.5924351,0,1 @ F,0,0,1,0,2.773763,0,1 @ F,0,0,1,0,2.773763,0,1 @ F,0,1,1,0,1.0809223,0,1"
       radius="0"
       unit="px"
       method="auto"
       mode="F"
       chamfer_steps="1"
       flexible="false"
       use_knot_distance="true"
       apply_no_radius="true"
       apply_with_radius="true"
       only_selected="false"
       hide_knots="false" />
    <inkscape:path-effect
       effect="fillet_chamfer"
       id="path-effect4-3"
       is_visible="true"
       lpeversion="1"
       nodesatellites_param="F,0,0,1,0,6.0707272,0,1 @ F,0,0,1,0,6.0707272,0,1 @ F,0,0,1,0,6.0707272,0,1 @ F,0,0,1,0,6.0707272,0,1 | F,0,0,1,0,2.7446336,0,1 @ F,0,0,1,0,2.7446336,0,1 @ F,0,0,1,0,1.5924351,0,1 @ F,0,0,1,0,2.773763,0,1 @ F,0,0,1,0,2.773763,0,1 @ F,0,0,1,0,1.0809223,0,1 @ F,0,0,1,0,2.7446336,0,1 @ F,0,0,1,0,2.7446336,0,1 @ F,0,0,1,0,1.5924351,0,1 @ F,0,0,1,0,2.773763,0,1 @ F,0,0,1,0,2.773763,0,1 @ F,0,1,1,0,1.0809223,0,1"
       radius="0"
       unit="px"
       method="auto"
       mode="F"
       chamfer_steps="1"
       flexible="false"
       use_knot_distance="true"
       apply_no_radius="true"
       apply_with_radius="true"
       only_selected="false"
       hide_knots="false" />
    <inkscape:path-effect
       effect="fillet_chamfer"
       id="path-effect5-6"
       is_visible="true"
       lpeversion="1"
       nodesatellites_param="F,0,1,1,0,14.461821,0,1 @ F,0,0,1,0,14.461821,0,1 @ F,0,1,1,0,14.461821,0,1 @ F,0,1,1,0,14.461821,0,1"
       radius="0"
       unit="px"
       method="auto"
       mode="F"
       chamfer_steps="1"
       flexible="false"
       use_knot_distance="true"
       apply_no_radius="true"
       apply_with_radius="true"
       only_selected="false"
       hide_knots="false" />
    <filter
       inkscape:collect="always"
       style="color-interpolation-filters:sRGB"
       id="filter5"
       x="-0.062539094"
       y="-0.062539094"
       width="1.1250782"
       height="1.1250782">
      <feGaussianBlur
         inkscape:collect="always"
         stdDeviation="0.81883547"
         id="feGaussianBlur5" />
    </filter>
    <filter
       inkscape:collect="always"
       style="color-interpolation-filters:sRGB"
       id="filter6"
       x="-0.11229184"
       y="-0.11229184"
       width="1.2245837"
       height="1.2245837">
      <feGaussianBlur
         inkscape:collect="always"
         stdDeviation="2.5530078"
         id="feGaussianBlur6" />
    </filter>
    <radialGradient
       inkscape:collect="always"
       xlink:href="#linearGradient6"
       id="radialGradient7"
       cx="4.0761261"
       cy="3.6664839"
       fx="4.0761261"
       fy="3.6664839"
       r="28"
       gradientUnits="userSpaceOnUse"
       gradientTransform="matrix(2.1112972,2.1112972,-2.1112972,2.1112972,3.2112496,-12.680467)" />
  </defs>
  <sodipodi:namedview
     id="namedview4"
     pagecolor="#ffffff"
     bordercolor="#000000"
     borderopacity="0.25"
     inkscape:showpageshadow="2"
     inkscape:pageopacity="0.0"
     inkscape:pagecheckerboard="0"
     inkscape:deskcolor="#d1d1d1"
     inkscape:zoom="11.747328"
     inkscape:cx="30.687829"
     inkscape:cy="33.113913"
     inkscape:window-width="1920"
     inkscape:window-height="1020"
     inkscape:window-x="0"
     inkscape:window-y="0"
     inkscape:window-maximized="1"
     inkscape:current-layer="svg4" />
  <path
     id="rect2"
     style="fill:url(#radialGradient7)"
     d="M 18.461821,4 H 45.538179 A 14.461821,14.461821 45 0 1 60,18.461821 V 45.538179 A 14.461821,14.461821 135 0 1 45.538179,60 H 18.461821 A 14.461821,14.461821 45 0 1 4,45.538179 V 18.461821 A 14.461821,14.461821 135 0 1 18.461821,4 Z"
     inkscape:path-effect="#path-effect5"
     inkscape:original-d="M 4,4 H 60 V 60 H 4 Z"
     transform="matrix(0.93096003,0,0,0.93096003,2.209279,2.209279)" />
  <path
     d="M 15,21.070727 V 42.929273 A 6.0707272,6.0707272 45 0 0 21.070727,49 H 42.929273 A 6.0707272,6.0707272 135 0 0 49,42.929273 V 21.070727 A 6.0707272,6.0707272 45 0 0 42.929273,15 H 21.070727 A 6.0707272,6.0707272 135 0 0 15,21.070727 Z M 22.744634,20 H 41.255366 A 2.7446336,2.7446336 45 0 1 44,22.744634 v 0.662931 a 3.8444784,3.8444784 112.5 0 1 -1.126022,2.718457 l -6.912631,6.912631 a 2.773763,2.773763 90 0 0 0,3.922694 l 0.07731,0.07731 a 2.773763,2.773763 0 0 0 3.922694,0 l 3.274326,-3.274326 A 0.44773268,0.44773268 22.5 0 1 44,34.080922 l 0,7.174444 A 2.7446336,2.7446336 135 0 1 41.255366,44 H 22.744634 A 2.7446336,2.7446336 45 0 1 20,41.255366 v -1.662931 a 3.8444784,3.8444784 112.5 0 1 1.126022,-2.718457 l 6.912631,-6.912631 a 2.773763,2.773763 90 0 0 0,-3.922694 l -0.07731,-0.07731 a 2.773763,2.773763 0 0 0 -3.922694,0 l -3.274326,3.274326 A 0.44773268,0.44773268 22.5 0 1 20,28.919078 l 0,-6.174444 A 2.7446336,2.7446336 135 0 1 22.744634,20 Z"
     style="fill:#ffffff"
     id="path3"
     inkscape:path-effect="#path-effect4"
     inkscape:original-d="M 15,15 V 49 H 49 V 15 Z m 5,5 h 24 v 5 l -10,10 4,4 6,-6 V 44 H 20 v -6 l 10,-10 -4,-4 -6,6 z"
     sodipodi:nodetypes="cccccccccccccccccc"
     transform="matrix(0.93096003,0,0,0.93096003,2.209279,2.209279)" />
  <path
     id="rect2-7"
     style="fill:none;stroke:#000000;stroke-opacity:1;stroke-width:0.32224799;stroke-dasharray:none;filter:url(#filter6)"
     d="M 18.461821,4 H 45.538179 A 14.461821,14.461821 45 0 1 60,18.461821 V 45.538179 A 14.461821,14.461821 135 0 1 45.538179,60 H 18.461821 A 14.461821,14.461821 45 0 1 4,45.538179 V 18.461821 A 14.461821,14.461821 135 0 1 18.461821,4 Z"
     inkscape:path-effect="#path-effect5-6"
     inkscape:original-d="M 4,4 H 60 V 60 H 4 Z"
     transform="matrix(0.93096003,0,0,0.93096003,2.209279,2.209279)" />
  <path
     d="M 15,21.070727 V 42.929273 A 6.0707272,6.0707272 45 0 0 21.070727,49 H 42.929273 A 6.0707272,6.0707272 135 0 0 49,42.929273 V 21.070727 A 6.0707272,6.0707272 45 0 0 42.929273,15 H 21.070727 A 6.0707272,6.0707272 135 0 0 15,21.070727 Z M 22.744634,20 H 41.255366 A 2.7446336,2.7446336 45 0 1 44,22.744634 v 0.662931 a 3.8444784,3.8444784 112.5 0 1 -1.126022,2.718457 l -6.912631,6.912631 a 2.773763,2.773763 90 0 0 0,3.922694 l 0.07731,0.07731 a 2.773763,2.773763 0 0 0 3.922694,0 l 3.274326,-3.274326 A 0.44773268,0.44773268 22.5 0 1 44,34.080922 l 0,7.174444 A 2.7446336,2.7446336 135 0 1 41.255366,44 H 22.744634 A 2.7446336,2.7446336 45 0 1 20,41.255366 v -1.662931 a 3.8444784,3.8444784 112.5 0 1 1.126022,-2.718457 l 6.912631,-6.912631 a 2.773763,2.773763 90 0 0 0,-3.922694 l -0.07731,-0.07731 a 2.773763,2.773763 0 0 0 -3.922694,0 l -3.274326,3.274326 A 0.44773268,0.44773268 22.5 0 1 20,28.919078 l 0,-6.174444 A 2.7446336,2.7446336 135 0 1 22.744634,20 Z"
     style="fill:none;stroke:#ff0000;stroke-opacity:1;stroke-width:0.32224799;stroke-dasharray:none;filter:url(#filter5)"
     id="path3-5"
     inkscape:path-effect="#path-effect4-3"
     inkscape:original-d="M 15,15 V 49 H 49 V 15 Z m 5,5 h 24 v 5 l -10,10 4,4 6,-6 V 44 H 20 v -6 l 10,-10 -4,-4 -6,6 z"
     sodipodi:nodetypes="cccccccccccccccccc"
     transform="matrix(0.93096003,0,0,0.93096003,2.209279,2.209279)" />
</svg>
