<?xml version="1.0" encoding="UTF-8" standalone="no"?>
<!-- Generator: Adobe Illustrator 25.2.1, SVG Export Plug-In . SVG Version: 6.00 Build 0)  -->

<svg
   version="1.1"
   id="Layer_1"
   x="0px"
   y="0px"
   viewBox="0 0 64 64"
   style="enable-background:new 0 0 64 64;"
   xml:space="preserve"
   sodipodi:docname="folder-blue-remote.svg"
   inkscape:version="1.4 (e7c3feb100, 2024-10-09)"
   xmlns:inkscape="http://www.inkscape.org/namespaces/inkscape"
   xmlns:sodipodi="http://sodipodi.sourceforge.net/DTD/sodipodi-0.dtd"
   xmlns:xlink="http://www.w3.org/1999/xlink"
   xmlns="http://www.w3.org/2000/svg"
   xmlns:svg="http://www.w3.org/2000/svg"><defs
   id="defs14"><inkscape:path-effect
     effect="fillet_chamfer"
     id="path-effect1"
     is_visible="true"
     lpeversion="1"
     nodesatellites_param="F,0,0,1,0,0,0,1 @ F,0,1,1,0,3.5255747,0,1 @ F,0,0,1,0,0,0,1 @ F,0,0,1,0,0,0,1 @ F,0,0,1,0,0,0,1 @ F,0,0,1,0,0,0,1 @ F,0,0,1,0,3.5255747,0,1 @ F,0,0,1,0,0,0,1 @ F,0,0,1,0,0,0,1 @ F,0,0,1,0,0,0,1 | F,0,0,1,0,0,0,1 @ F,0,0,1,0,0,0,1 @ F,0,0,1,0,0,0,1 @ F,0,0,1,0,4.0773422,0,1 @ F,0,0,1,0,0,0,1 @ F,0,0,1,0,0,0,1 @ F,0,0,1,0,0,0,1 @ F,0,0,1,0,0,0,1 @ F,0,0,1,0,4.0773422,0,1 @ F,0,0,1,0,0,0,1"
     radius="0"
     unit="px"
     method="auto"
     mode="F"
     chamfer_steps="1"
     flexible="false"
     use_knot_distance="true"
     apply_no_radius="true"
     apply_with_radius="true"
     only_selected="false"
     hide_knots="false" /><radialGradient
     id="SVGID_6_-3"
     cx="32"
     cy="39"
     r="40.048599"
     fx="14.0678"
     fy="24.8514"
     gradientUnits="userSpaceOnUse">
	<stop
   offset="0"
   style="stop-color:#00F0F4"
   id="stop11-6" />
	<stop
   offset="1"
   style="stop-color:#1598FF"
   id="stop12-7" />
</radialGradient><radialGradient
     id="SVGID_4_-5"
     cx="25.213699"
     cy="25.563499"
     r="32.348301"
     fx="16.568701"
     fy="17.644699"
     gradientUnits="userSpaceOnUse">
	<stop
   offset="0"
   style="stop-color:#FFFFFF"
   id="stop7-3" />
	<stop
   offset="1"
   style="stop-color:#B7B7B7"
   id="stop8-5" />
</radialGradient><radialGradient
     id="SVGID_2_-6"
     cx="28.128099"
     cy="25.073299"
     r="40.0504"
     fx="5.4853001"
     fy="7.4745002"
     gradientUnits="userSpaceOnUse">
	<stop
   offset="0"
   style="stop-color:#15C7FF"
   id="stop3-2" />
	<stop
   offset="1"
   style="stop-color:#005A9E"
   id="stop4-9" />
</radialGradient><filter
     inkscape:collect="always"
     style="color-interpolation-filters:sRGB"
     id="filter5"
     x="-0.091865969"
     y="-0.10508204"
     width="1.1837319"
     height="1.2101641"><feGaussianBlur
       inkscape:collect="always"
       stdDeviation="2.0448052"
       id="feGaussianBlur5" /></filter><radialGradient
     inkscape:collect="always"
     xlink:href="#SVGID_1_-3-2-7"
     id="radialGradient14-6"
     cx="51.925644"
     cy="78.491135"
     fx="51.925644"
     fy="78.491135"
     r="27.708172"
     gradientTransform="matrix(0,-2.1910082,2.2418851,0,-92.280969,184.46437)"
     gradientUnits="userSpaceOnUse" /><radialGradient
     id="SVGID_1_-3-2-7"
     cx="-159.43106"
     cy="15.462561"
     r="64.706802"
     gradientTransform="matrix(-0.89413329,0,0,0.96304834,-80.753654,49.330428)"
     gradientUnits="userSpaceOnUse"
     fx="-159.43106"
     fy="15.462561">
	<stop
   offset="0"
   style="stop-color:#006fff;stop-opacity:1;"
   id="stop1-6-9-5" />
	<stop
   offset="1"
   style="stop-color:#15baff;stop-opacity:1;"
   id="stop2-7-1-3" />
</radialGradient><inkscape:path-effect
     effect="fillet_chamfer"
     id="path-effect2-5"
     is_visible="true"
     lpeversion="1"
     nodesatellites_param="F,0,0,1,0,1.7191201,0,1 @ F,0,0,1,0,13.761382,0,1 @ F,0,0,1,0,13.761382,0,1 @ F,0,0,1,0,14.755441,0,1"
     radius="0"
     unit="px"
     method="auto"
     mode="F"
     chamfer_steps="1"
     flexible="false"
     use_knot_distance="true"
     apply_no_radius="true"
     apply_with_radius="true"
     only_selected="false"
     hide_knots="false" /><radialGradient
     inkscape:collect="always"
     xlink:href="#radialGradient16-9"
     id="radialGradient15-2"
     cx="10.757424"
     cy="61.399044"
     fx="10.757424"
     fy="61.399044"
     r="24.565832"
     gradientTransform="matrix(0,-2.330989,2.5178893,0,-79.137526,79.401559)"
     gradientUnits="userSpaceOnUse" /><radialGradient
     id="radialGradient16-9"
     cx="-159.43106"
     cy="15.462561"
     r="64.706802"
     gradientTransform="matrix(-0.89413329,0,0,0.96304834,-80.753654,49.330428)"
     gradientUnits="userSpaceOnUse"
     fx="-159.43106"
     fy="15.462561">
	<stop
   offset="0"
   style="stop-color:#3d6aa4;stop-opacity:1;"
   id="stop15-1" />
	<stop
   offset="1"
   style="stop-color:#0097d2;stop-opacity:1;"
   id="stop16-2" />
</radialGradient><inkscape:path-effect
     effect="fillet_chamfer"
     id="path-effect20-7"
     is_visible="true"
     lpeversion="1"
     nodesatellites_param="F,0,0,1,0,1.4582365,0,1 @ F,0,0,1,0,4.7943319,0,1 @ F,0,0,1,0,0,0,1 @ F,0,0,1,0,0,0,1 @ F,0,0,1,0,0,0,1 @ F,0,0,1,0,0,0,1 @ F,0,0,1,0,0,0,1 @ F,0,0,1,0,0,0,1 @ F,0,0,1,0,2.051402,0,1"
     radius="0"
     unit="px"
     method="auto"
     mode="F"
     chamfer_steps="1"
     flexible="false"
     use_knot_distance="true"
     apply_no_radius="true"
     apply_with_radius="true"
     only_selected="false"
     hide_knots="false" /></defs><sodipodi:namedview
   id="namedview14"
   pagecolor="#ffffff"
   bordercolor="#000000"
   borderopacity="0.25"
   inkscape:showpageshadow="2"
   inkscape:pageopacity="0.0"
   inkscape:pagecheckerboard="0"
   inkscape:deskcolor="#d1d1d1"
   inkscape:zoom="28.254934"
   inkscape:cx="29.959369"
   inkscape:cy="42.558939"
   inkscape:window-width="1920"
   inkscape:window-height="1020"
   inkscape:window-x="0"
   inkscape:window-y="0"
   inkscape:window-maximized="1"
   inkscape:current-layer="Layer_1" />
<style
   type="text/css"
   id="style1">
	.st0{opacity:0.15;fill:url(#SVGID_1_);enable-background:new    ;}
	.st1{fill:url(#SVGID_2_);}
	.st2{opacity:0.34;fill:url(#SVGID_3_);enable-background:new    ;}
	.st3{fill:url(#SVGID_4_);}
	.st4{opacity:0.12;fill:url(#SVGID_5_);enable-background:new    ;}
	.st5{fill:url(#SVGID_6_);}
	.st6{fill:url(#SVGID_7_);}
</style>
<radialGradient
   id="SVGID_1_"
   cx="28.1281"
   cy="41.5136"
   r="40.0504"
   fx="5.4853"
   fy="23.9148"
   gradientTransform="matrix(1 0 0 -1 0 66)"
   gradientUnits="userSpaceOnUse">
	<stop
   offset="0"
   style="stop-color:#000000"
   id="stop1" />
	<stop
   offset="1"
   style="stop-color:#545454"
   id="stop2" />
</radialGradient>

<radialGradient
   id="SVGID_2_"
   cx="28.1281"
   cy="40.9267"
   r="40.0504"
   fx="5.4853"
   fy="23.3279"
   gradientTransform="matrix(1 0 0 -1 0 66)"
   gradientUnits="userSpaceOnUse">
	<stop
   offset="0"
   style="stop-color:#15C7FF"
   id="stop3" />
	<stop
   offset="1"
   style="stop-color:#005A9E"
   id="stop4" />
</radialGradient>

<linearGradient
   id="SVGID_3_"
   gradientUnits="userSpaceOnUse"
   x1="8"
   y1="39.25"
   x2="56"
   y2="39.25"
   gradientTransform="matrix(1 0 0 -1 0 66)">
	<stop
   offset="0"
   style="stop-color:#000000"
   id="stop5" />
	<stop
   offset="1"
   style="stop-color:#404040"
   id="stop6" />
</linearGradient>

<radialGradient
   id="SVGID_4_"
   cx="25.2137"
   cy="40.4365"
   r="32.3483"
   fx="16.5687"
   fy="32.5177"
   gradientTransform="matrix(1 0 0 -1 0 66)"
   gradientUnits="userSpaceOnUse">
	<stop
   offset="0"
   style="stop-color:#FFFFFF"
   id="stop7" />
	<stop
   offset="1"
   style="stop-color:#B7B7B7"
   id="stop8" />
</radialGradient>

<radialGradient
   id="SVGID_5_"
   cx="32"
   cy="27.8"
   r="40.0672"
   fx="14.0595"
   fy="13.6449"
   gradientTransform="matrix(1 0 0 -1 0 66)"
   gradientUnits="userSpaceOnUse">
	<stop
   offset="0"
   style="stop-color:#000000"
   id="stop9" />
	<stop
   offset="1"
   style="stop-color:#545454"
   id="stop10" />
</radialGradient>

<radialGradient
   id="SVGID_6_"
   cx="32"
   cy="27"
   r="40.0486"
   fx="14.0678"
   fy="12.8514"
   gradientTransform="matrix(1 0 0 -1 0 66)"
   gradientUnits="userSpaceOnUse">
	<stop
   offset="0"
   style="stop-color:#00F0F4"
   id="stop11" />
	<stop
   offset="1"
   style="stop-color:#1598FF"
   id="stop12" />
</radialGradient>

<radialGradient
   id="SVGID_7_"
   cx="31.95"
   cy="45.8"
   r="40.1553"
   fx="18.1285"
   fy="29.8044"
   gradientUnits="userSpaceOnUse">
	<stop
   offset="0"
   style="stop-color:#15C7FF"
   id="stop13" />
	<stop
   offset="1"
   style="stop-color:#005A9E"
   id="stop14" />
</radialGradient>
<g
   id="g1"><path
     class="st1"
     d="M 22.196242,11.795294 H 12.203491 A 4.7943319,4.7943319 135 0 0 7.409159,16.589626 V 40.29912 c 0,3.691468 2.98833,6.76769 6.679798,6.76769 h 35.772071 c 3.691466,0 6.679797,-2.98833 6.679797,-6.679797 v -18.28155 c 0,-3.691467 -2.988331,-6.679798 -6.679797,-6.679798 H 30.037826 a 5.6416074,5.6416074 19.982285 0 1 -3.623682,-1.317644 l -1.642012,-1.376082 a 4.0103294,4.0103294 19.982285 0 0 -2.57589,-0.936645 z"
     id="path4-0"
     style="fill:url(#radialGradient15-2);stroke-width:0.878921"
     sodipodi:nodetypes="ccsssssscc"
     inkscape:path-effect="#path-effect20-7"
     inkscape:original-d="M 23.654479,11.795294 H 7.409159 V 40.29912 c 0,3.691468 2.98833,6.76769 6.679798,6.76769 h 35.772071 c 3.691466,0 6.679797,-2.98833 6.679797,-6.679797 v -18.28155 c 0,-3.691467 -2.988331,-6.679798 -6.679797,-6.679798 H 27.986424 Z"
     transform="matrix(1.0965063,0,0,1.0965063,-3.060779,-4.5220224)" /><path
     id="rect1-9"
     style="opacity:0.870323;fill:#ffffff;stroke-width:0.2"
     d="m 11.603718,20.662382 28.646459,0 A 13.761382,13.761382 45 0 1 54.011559,34.423764 13.636557,13.636557 135.5269 0 1 40.250177,47.934343 H 24.640039 A 14.755441,14.755441 45 0 1 9.8845978,33.178902 v -10.7974 a 1.7191201,1.7191201 135 0 1 1.7191202,-1.71912 z"
     inkscape:path-effect="#path-effect2-5"
     inkscape:original-d="M 9.8845978,20.662382 H 54.011559 V 47.934343 H 9.8845978 Z"
     transform="matrix(1.0965063,0,0,1.0965063,-2.416994,-5.7391264)" /><path
     id="rect13-36"
     style="fill:url(#radialGradient14-6);fill-opacity:1;stroke:none;stroke-width:0.681659;stroke-linecap:round;stroke-linejoin:round"
     d="m 12.869929,20.661523 h 10.852407 a 7.0733661,7.0733661 0 0 0 5.326416,-2.419142 7.0447591,7.0447591 0 0 1 5.309311,-2.399567 h 16.77201 a 7.8520921,7.8520921 0 0 1 7.85209,7.852092 v 24.041409 a 7.8520921,7.8520921 0 0 1 -7.85209,7.852093 H 12.869929 A 7.8520921,7.8520921 0 0 1 5.017836,47.736315 V 28.513616 a 7.8520921,7.8520921 0 0 1 7.852093,-7.852093 z"
     sodipodi:nodetypes="ccccccc" /><g
     id="g5"
     transform="translate(61.121094,3.7353514)"
     style="filter:url(#filter5)"><path
       d="m -50.800781,4.6757812 c -2.90323,6.383e-4 -5.2563,2.3545832 -5.25586,5.2578126 V 24.035156 c 0.224089,-2.374268 1.494712,-4.443315 3.357422,-5.726562 v -3.242188 c 1.44e-4,-1.040868 0.843898,-1.884622 1.884766,-1.884765 H -30.5 c 1.111326,-0.692982 2.401403,-1.077108 3.738281,-1.074219 h 16.7714846 c 4.0563348,2.73e-4 7.3924736,3.076738 7.8066406,7.023437 v -3.15039 c 0,-4.047717 -3.276503,-7.324219 -7.3242187,-7.324219 H -31.244141 c -1.453526,1.441e-4 -2.860685,-0.5115502 -3.974609,-1.4453125 L -37.017578,5.703125 C -37.809635,5.0391986 -38.810236,4.6754694 -39.84375,4.6757812 Z m 0.02734,2.7617188 h 10.521484 c 1.066492,0 1.925781,0.8592893 1.925781,1.9257813 0,1.0664907 -0.859289,1.9257817 -1.925781,1.9257817 h -10.521484 c -1.066493,0 -1.925782,-0.859291 -1.925782,-1.9257817 0,-1.066492 0.859289,-1.9257803 1.925782,-1.9257813 z"
       style="baseline-shift:baseline;display:inline;overflow:visible;fill:none;stroke:#000000;stroke-width:0.1;stroke-dasharray:none;stroke-opacity:1;enable-background:accumulate;stop-color:#000000;stop-opacity:1"
       id="path5" /><path
       d="m -50.814453,13.181641 c -1.040868,1.43e-4 -1.884622,0.843897 -1.884766,1.884765 v 3.242188 c 1.26506,-0.871517 2.796825,-1.383112 4.449219,-1.382813 h 10.851563 c 2.04141,-2.67e-4 3.983163,-0.882493 5.326171,-2.419922 0.459363,-0.523529 0.993287,-0.963189 1.572266,-1.324218 z"
       style="baseline-shift:baseline;display:inline;overflow:visible;fill:none;stroke:#000000;stroke-width:0.1;stroke-dasharray:none;stroke-opacity:1;enable-background:accumulate;stop-color:#000000;stop-opacity:1"
       id="path4" /><path
       d="m -26.761719,12.107422 c -2.033365,-0.0044 -3.969457,0.870017 -5.310547,2.398437 -1.343008,1.537429 -3.284761,2.419655 -5.326171,2.419922 H -48.25 c -4.33694,-7.86e-4 -7.853223,3.514623 -7.853516,7.851563 V 44 c -7.86e-4,4.337703 3.515813,7.854302 7.853516,7.853516 H -9.9902344 C -5.6532945,51.853223 -2.1378856,48.33694 -2.1386719,44 V 19.958984 c -2.924e-4,-4.336177 -3.5153854,-7.85127 -7.8515625,-7.851562 z"
       style="baseline-shift:baseline;display:inline;overflow:visible;fill:none;stroke:#000000;stroke-width:0.1;stroke-linecap:round;stroke-linejoin:round;stroke-dasharray:none;stroke-opacity:1;enable-background:accumulate;stop-color:#000000;stop-opacity:1"
       id="path3" /></g></g><path
   class="st6"
   d="m 29.6,37.9 c -0.405364,0.09538 -0.7823,0.219189 -1.134873,0.368715 -1.775085,0.752814 -3.730619,3.463025 -5.39963,4.444977 C 21.904664,43.396661 20.595547,43.8 19.2,43.8 H 4 v 4 h 15.2 c 1.406069,0 2.7244,0.380198 3.891728,1.061514 1.67092,0.975238 3.617059,3.685726 5.387348,4.439811 0.352017,0.149948 0.725659,0.28242 1.120924,0.398675 0.3,0.1 0.6,-0.2 0.6,-0.5 V 38.4 c 0,-0.3 -0.3,-0.5 -0.6,-0.5 z m 4.6,0.5 v 14.7 c 0,0.3 0.3,0.6 0.6,0.5 0.213929,-0.05034 0.41994,-0.10859 0.618631,-0.174364 2.108716,-0.698057 4.404143,-3.898677 6.400203,-4.903481 C 42.85495,48.00058 43.99527,47.7 45.2,47.7 L 60,47.6 v -4 l -14.8,0.1 c -1.214386,0 -2.363325,-0.283603 -3.40606,-0.79986 -2.000287,-0.990342 -4.298214,-4.1528 -6.386758,-4.902543 C 35.2108,37.9271 35.008406,37.861296 34.8,37.8 c -0.3,0.1 -0.6,0.3 -0.6,0.6 z"
   id="path14"
   style="opacity:0.3;fill:#000000;fill-opacity:1"
   inkscape:path-effect="#path-effect1"
   inkscape:original-d="m 29.6,37.9 c -1.7,0.4 -2.9,1.3 -3.9,2.5 -1.6,2 -3.9,3.4 -6.5,3.4 H 4 v 4 h 15.2 c 2.6,0 4.9,1.3 6.5,3.4 0.9,1.2 2.2,2 3.9,2.5 0.3,0.1 0.6,-0.2 0.6,-0.5 V 38.4 c 0,-0.3 -0.3,-0.5 -0.6,-0.5 z m 4.6,0.5 v 14.7 c 0,0.3 0.3,0.6 0.6,0.5 1.7,-0.4 2.9,-1.3 3.9,-2.5 1.6,-2 3.9,-3.4 6.5,-3.4 L 60,47.6 v -4 l -14.8,0.1 c -2.6,0 -4.9,-1.3 -6.5,-3.4 -0.9,-1.2 -2.2,-2 -3.9,-2.5 -0.3,0.1 -0.6,0.3 -0.6,0.6 z"
   transform="matrix(0.96442924,0,0,0.96442924,1.1382643,1.3445747)" />
</svg>
