<?xml version="1.0" encoding="UTF-8" standalone="no"?>
<svg
   width="64"
   height="64"
   version="1"
   id="svg5"
   sodipodi:docname="folder-blue-obsidian.svg"
   inkscape:version="1.4 (e7c3feb100, 2024-10-09)"
   xmlns:inkscape="http://www.inkscape.org/namespaces/inkscape"
   xmlns:sodipodi="http://sodipodi.sourceforge.net/DTD/sodipodi-0.dtd"
   xmlns:xlink="http://www.w3.org/1999/xlink"
   xmlns="http://www.w3.org/2000/svg"
   xmlns:svg="http://www.w3.org/2000/svg">
  <defs
     id="defs5">
    <inkscape:path-effect
       effect="fillet_chamfer"
       id="path-effect1"
       is_visible="true"
       lpeversion="1"
       nodesatellites_param="F,0,0,1,0,0,0,1 @ F,0,0,1,0,0,0,1 @ F,0,0,1,0,0,0,1 @ F,0,0,1,0,0.43596658,0,1 @ F,0,0,1,0,0.59567766,0,1 @ F,0,0,1,0,0.59567766,0,1 @ F,0,0,1,0,0,0,1 @ F,0,0,1,0,0,0,1 @ F,0,0,1,0,0,0,1 @ F,0,0,1,0,0,0,1 @ F,0,0,1,0,0,0,1 @ F,0,0,1,0,0.43943014,0,1 | F,0,0,1,0,0.68711815,0,1 @ F,0,0,1,0,0,0,1 @ F,0,0,1,0,0,0,1 @ F,0,0,1,0,0,0,1 @ F,0,0,1,0,0,0,1 @ F,0,0,1,0,0,0,1 @ F,0,0,1,0,0.72291026,0,1 @ F,0,0,1,0,0,0,1 @ F,0,0,1,0,0.79039855,0,1 @ F,0,0,1,0,0,0,1 @ F,0,0,1,0,0,0,1 @ F,0,0,1,0,0,0,1 @ F,0,0,1,0,0,0,1 @ F,0,0,1,0,0,0,1 | F,0,0,1,0,0.43596658,0,1 @ F,0,0,1,0,0,0,1 @ F,0,0,1,0,0,0,1 @ F,0,0,1,0,1.1828249,0,1 @ F,0,0,1,0,0,0,1 @ F,0,0,1,0,0,0,1 | F,0,0,1,0,0,0,1 @ F,0,0,1,0,0,0,1 @ F,0,0,1,0,0.59567766,0,1 @ F,0,0,1,0,1.1828249,0,1 @ F,0,0,1,0,0,0,1 @ F,0,0,1,0,0,0,1 @ F,0,0,1,0,0,0,1 @ F,0,0,1,0,0.50741953,0,1 @ F,0,0,1,0,0,0,1 @ F,0,0,1,0,0,0,1 @ F,0,0,1,0,0,0,1"
       radius="0"
       unit="px"
       method="auto"
       mode="F"
       chamfer_steps="1"
       flexible="false"
       use_knot_distance="true"
       apply_no_radius="true"
       apply_with_radius="true"
       only_selected="false"
       hide_knots="false" />
    <radialGradient
       id="SVGID_1_-3"
       cx="28.128099"
       cy="41.513599"
       r="40.0504"
       fx="5.4853001"
       fy="23.914801"
       gradientTransform="matrix(1,0,0,-1,0,66.5)"
       gradientUnits="userSpaceOnUse">
      <stop
         offset="0"
         style="stop-color:#000000"
         id="stop1-6" />
      <stop
         offset="1"
         style="stop-color:#545454"
         id="stop2-0" />
    </radialGradient>
    <radialGradient
       id="SVGID_2_-7"
       cx="28.128099"
       cy="40.926701"
       r="40.0504"
       fx="5.4853001"
       fy="23.3279"
       gradientTransform="matrix(1,0,0,-1,0,66.5)"
       gradientUnits="userSpaceOnUse">
      <stop
         offset="0"
         style="stop-color:#15C7FF"
         id="stop3-0" />
      <stop
         offset="1"
         style="stop-color:#005A9E"
         id="stop4-9" />
    </radialGradient>
    <linearGradient
       id="SVGID_3_"
       gradientUnits="userSpaceOnUse"
       x1="8"
       y1="39.25"
       x2="56"
       y2="39.25"
       gradientTransform="matrix(1,0,0,-1,0,66.5)">
      <stop
         offset="0"
         style="stop-color:#000000"
         id="stop5" />
      <stop
         offset="1"
         style="stop-color:#404040"
         id="stop6" />
    </linearGradient>
    <radialGradient
       id="SVGID_4_-6"
       cx="25.213699"
       cy="40.436501"
       r="32.348301"
       fx="16.568701"
       fy="32.5177"
       gradientTransform="matrix(1,0,0,-1,0,66.5)"
       gradientUnits="userSpaceOnUse">
      <stop
         offset="0"
         style="stop-color:#FFFFFF"
         id="stop7-2" />
      <stop
         offset="1"
         style="stop-color:#B7B7B7"
         id="stop8-9" />
    </radialGradient>
    <radialGradient
       id="SVGID_5_-5"
       cx="32"
       cy="27.799999"
       r="40.0672"
       fx="14.0595"
       fy="13.6449"
       gradientTransform="matrix(1,0,0,-1,0,66.5)"
       gradientUnits="userSpaceOnUse">
      <stop
         offset="0"
         style="stop-color:#000000"
         id="stop9-3" />
      <stop
         offset="1"
         style="stop-color:#545454"
         id="stop10-5" />
    </radialGradient>
    <radialGradient
       id="SVGID_6_-3"
       cx="32"
       cy="27"
       r="40.048599"
       fx="14.0678"
       fy="12.8514"
       gradientTransform="matrix(1,0,0,-1,0,66.5)"
       gradientUnits="userSpaceOnUse">
      <stop
         offset="0"
         style="stop-color:#00F0F4"
         id="stop11-6" />
      <stop
         offset="1"
         style="stop-color:#1598FF"
         id="stop12-7" />
    </radialGradient>
    <radialGradient
       id="SVGID_6_"
       cx="32"
       cy="39"
       r="40.048599"
       fx="14.0678"
       fy="24.8514"
       gradientUnits="userSpaceOnUse">
      <stop
         offset="0"
         style="stop-color:#00F0F4"
         id="stop11" />
      <stop
         offset="1"
         style="stop-color:#1598FF"
         id="stop12" />
    </radialGradient>
    <radialGradient
       id="SVGID_4_"
       cx="25.213699"
       cy="25.563499"
       r="32.348301"
       fx="16.568701"
       fy="17.644699"
       gradientUnits="userSpaceOnUse">
      <stop
         offset="0"
         style="stop-color:#FFFFFF"
         id="stop7" />
      <stop
         offset="1"
         style="stop-color:#B7B7B7"
         id="stop8" />
    </radialGradient>
    <radialGradient
       id="SVGID_2_"
       cx="28.128099"
       cy="25.073299"
       r="40.0504"
       fx="5.4853001"
       fy="7.4745002"
       gradientUnits="userSpaceOnUse">
      <stop
         offset="0"
         style="stop-color:#15C7FF"
         id="stop3" />
      <stop
         offset="1"
         style="stop-color:#005A9E"
         id="stop4" />
    </radialGradient>
    <filter
       inkscape:collect="always"
       style="color-interpolation-filters:sRGB"
       id="filter5"
       x="-0.091865969"
       y="-0.10508204"
       width="1.1837319"
       height="1.2101641">
      <feGaussianBlur
         inkscape:collect="always"
         stdDeviation="2.0448052"
         id="feGaussianBlur5" />
    </filter>
    <radialGradient
       inkscape:collect="always"
       xlink:href="#SVGID_1_-3-2-7"
       id="radialGradient14-6"
       cx="51.925644"
       cy="78.491135"
       fx="51.925644"
       fy="78.491135"
       r="27.708172"
       gradientTransform="matrix(0,-2.1910082,2.2418851,0,-92.280969,184.46437)"
       gradientUnits="userSpaceOnUse" />
    <radialGradient
       id="SVGID_1_-3-2-7"
       cx="-159.43106"
       cy="15.462561"
       r="64.706802"
       gradientTransform="matrix(-0.89413329,0,0,0.96304834,-80.753654,49.330428)"
       gradientUnits="userSpaceOnUse"
       fx="-159.43106"
       fy="15.462561">
	<stop
   offset="0"
   style="stop-color:#006fff;stop-opacity:1;"
   id="stop1-6-9-5" />

	<stop
   offset="1"
   style="stop-color:#15baff;stop-opacity:1;"
   id="stop2-7-1-3" />

</radialGradient>
    <inkscape:path-effect
       effect="fillet_chamfer"
       id="path-effect2-5"
       is_visible="true"
       lpeversion="1"
       nodesatellites_param="F,0,0,1,0,1.7191201,0,1 @ F,0,0,1,0,13.761382,0,1 @ F,0,0,1,0,13.761382,0,1 @ F,0,0,1,0,14.755441,0,1"
       radius="0"
       unit="px"
       method="auto"
       mode="F"
       chamfer_steps="1"
       flexible="false"
       use_knot_distance="true"
       apply_no_radius="true"
       apply_with_radius="true"
       only_selected="false"
       hide_knots="false" />
    <radialGradient
       inkscape:collect="always"
       xlink:href="#radialGradient16-9"
       id="radialGradient15-2"
       cx="10.757424"
       cy="61.399044"
       fx="10.757424"
       fy="61.399044"
       r="24.565832"
       gradientTransform="matrix(0,-2.330989,2.5178893,0,-79.137526,79.401559)"
       gradientUnits="userSpaceOnUse" />
    <radialGradient
       id="radialGradient16-9"
       cx="-159.43106"
       cy="15.462561"
       r="64.706802"
       gradientTransform="matrix(-0.89413329,0,0,0.96304834,-80.753654,49.330428)"
       gradientUnits="userSpaceOnUse"
       fx="-159.43106"
       fy="15.462561">
	<stop
   offset="0"
   style="stop-color:#3d6aa4;stop-opacity:1;"
   id="stop15-1" />

	<stop
   offset="1"
   style="stop-color:#0097d2;stop-opacity:1;"
   id="stop16-2" />

</radialGradient>
    <inkscape:path-effect
       effect="fillet_chamfer"
       id="path-effect20-7"
       is_visible="true"
       lpeversion="1"
       nodesatellites_param="F,0,0,1,0,1.4582365,0,1 @ F,0,0,1,0,4.7943319,0,1 @ F,0,0,1,0,0,0,1 @ F,0,0,1,0,0,0,1 @ F,0,0,1,0,0,0,1 @ F,0,0,1,0,0,0,1 @ F,0,0,1,0,0,0,1 @ F,0,0,1,0,0,0,1 @ F,0,0,1,0,2.051402,0,1"
       radius="0"
       unit="px"
       method="auto"
       mode="F"
       chamfer_steps="1"
       flexible="false"
       use_knot_distance="true"
       apply_no_radius="true"
       apply_with_radius="true"
       only_selected="false"
       hide_knots="false" />
  </defs>
  <sodipodi:namedview
     id="namedview5"
     pagecolor="#ffffff"
     bordercolor="#000000"
     borderopacity="0.25"
     inkscape:showpageshadow="2"
     inkscape:pageopacity="0.0"
     inkscape:pagecheckerboard="0"
     inkscape:deskcolor="#d1d1d1"
     inkscape:zoom="11.313709"
     inkscape:cx="35.532114"
     inkscape:cy="27.621357"
     inkscape:window-width="1920"
     inkscape:window-height="1020"
     inkscape:window-x="0"
     inkscape:window-y="0"
     inkscape:window-maximized="1"
     inkscape:current-layer="svg5" />
  <g
     id="g1">
    <path
       class="st1"
       d="M 22.196242,11.795294 H 12.203491 A 4.7943319,4.7943319 135 0 0 7.409159,16.589626 V 40.29912 c 0,3.691468 2.98833,6.76769 6.679798,6.76769 h 35.772071 c 3.691466,0 6.679797,-2.98833 6.679797,-6.679797 v -18.28155 c 0,-3.691467 -2.988331,-6.679798 -6.679797,-6.679798 H 30.037826 a 5.6416074,5.6416074 19.982285 0 1 -3.623682,-1.317644 l -1.642012,-1.376082 a 4.0103294,4.0103294 19.982285 0 0 -2.57589,-0.936645 z"
       id="path4-0"
       style="fill:url(#radialGradient15-2);stroke-width:0.878921"
       sodipodi:nodetypes="ccsssssscc"
       inkscape:path-effect="#path-effect20-7"
       inkscape:original-d="M 23.654479,11.795294 H 7.409159 V 40.29912 c 0,3.691468 2.98833,6.76769 6.679798,6.76769 h 35.772071 c 3.691466,0 6.679797,-2.98833 6.679797,-6.679797 v -18.28155 c 0,-3.691467 -2.988331,-6.679798 -6.679797,-6.679798 H 27.986424 Z"
       transform="matrix(1.0965063,0,0,1.0965063,-3.060779,-4.5220224)" />
    <path
       id="rect1-9"
       style="opacity:0.870323;fill:#ffffff;stroke-width:0.2"
       d="m 11.603718,20.662382 28.646459,0 A 13.761382,13.761382 45 0 1 54.011559,34.423764 13.636557,13.636557 135.5269 0 1 40.250177,47.934343 H 24.640039 A 14.755441,14.755441 45 0 1 9.8845978,33.178902 v -10.7974 a 1.7191201,1.7191201 135 0 1 1.7191202,-1.71912 z"
       inkscape:path-effect="#path-effect2-5"
       inkscape:original-d="M 9.8845978,20.662382 H 54.011559 V 47.934343 H 9.8845978 Z"
       transform="matrix(1.0965063,0,0,1.0965063,-2.416994,-5.7391264)" />
    <path
       id="rect13-36"
       style="fill:url(#radialGradient14-6);fill-opacity:1;stroke:none;stroke-width:0.681659;stroke-linecap:round;stroke-linejoin:round"
       d="m 12.869929,20.661523 h 10.852407 a 7.0733661,7.0733661 0 0 0 5.326416,-2.419142 7.0447591,7.0447591 0 0 1 5.309311,-2.399567 h 16.77201 a 7.8520921,7.8520921 0 0 1 7.85209,7.852092 v 24.041409 a 7.8520921,7.8520921 0 0 1 -7.85209,7.852093 H 12.869929 A 7.8520921,7.8520921 0 0 1 5.017836,47.736315 V 28.513616 a 7.8520921,7.8520921 0 0 1 7.852093,-7.852093 z"
       sodipodi:nodetypes="ccccccc" />
    <g
       id="g5"
       transform="translate(61.121094,3.7353514)"
       style="filter:url(#filter5)">
      <path
         d="m -50.800781,4.6757812 c -2.90323,6.383e-4 -5.2563,2.3545832 -5.25586,5.2578126 V 24.035156 c 0.224089,-2.374268 1.494712,-4.443315 3.357422,-5.726562 v -3.242188 c 1.44e-4,-1.040868 0.843898,-1.884622 1.884766,-1.884765 H -30.5 c 1.111326,-0.692982 2.401403,-1.077108 3.738281,-1.074219 h 16.7714846 c 4.0563348,2.73e-4 7.3924736,3.076738 7.8066406,7.023437 v -3.15039 c 0,-4.047717 -3.276503,-7.324219 -7.3242187,-7.324219 H -31.244141 c -1.453526,1.441e-4 -2.860685,-0.5115502 -3.974609,-1.4453125 L -37.017578,5.703125 C -37.809635,5.0391986 -38.810236,4.6754694 -39.84375,4.6757812 Z m 0.02734,2.7617188 h 10.521484 c 1.066492,0 1.925781,0.8592893 1.925781,1.9257813 0,1.0664907 -0.859289,1.9257817 -1.925781,1.9257817 h -10.521484 c -1.066493,0 -1.925782,-0.859291 -1.925782,-1.9257817 0,-1.066492 0.859289,-1.9257803 1.925782,-1.9257813 z"
         style="baseline-shift:baseline;display:inline;overflow:visible;fill:none;stroke:#000000;stroke-width:0.1;stroke-dasharray:none;stroke-opacity:1;enable-background:accumulate;stop-color:#000000;stop-opacity:1"
         id="path5" />
      <path
         d="m -50.814453,13.181641 c -1.040868,1.43e-4 -1.884622,0.843897 -1.884766,1.884765 v 3.242188 c 1.26506,-0.871517 2.796825,-1.383112 4.449219,-1.382813 h 10.851563 c 2.04141,-2.67e-4 3.983163,-0.882493 5.326171,-2.419922 0.459363,-0.523529 0.993287,-0.963189 1.572266,-1.324218 z"
         style="baseline-shift:baseline;display:inline;overflow:visible;fill:none;stroke:#000000;stroke-width:0.1;stroke-dasharray:none;stroke-opacity:1;enable-background:accumulate;stop-color:#000000;stop-opacity:1"
         id="path4" />
      <path
         d="m -26.761719,12.107422 c -2.033365,-0.0044 -3.969457,0.870017 -5.310547,2.398437 -1.343008,1.537429 -3.284761,2.419655 -5.326171,2.419922 H -48.25 c -4.33694,-7.86e-4 -7.853223,3.514623 -7.853516,7.851563 V 44 c -7.86e-4,4.337703 3.515813,7.854302 7.853516,7.853516 H -9.9902344 C -5.6532945,51.853223 -2.1378856,48.33694 -2.1386719,44 V 19.958984 c -2.924e-4,-4.336177 -3.5153854,-7.85127 -7.8515625,-7.851562 z"
         style="baseline-shift:baseline;display:inline;overflow:visible;fill:none;stroke:#000000;stroke-width:0.1;stroke-linecap:round;stroke-linejoin:round;stroke-dasharray:none;stroke-opacity:1;enable-background:accumulate;stop-color:#000000;stop-opacity:1"
         id="path3" />
    </g>
  </g>
  <path
     d="m 48.851718,35.655458 c -0.607523,0.148414 -1.000776,0.694233 -1.4896,1.054081 -1.01086,0.879202 -2.061435,1.717148 -3.046841,2.6228 -0.370984,0.534817 -0.307427,1.226619 -0.448221,1.841031 -0.05397,0.452878 -0.281939,1.040103 0.203415,1.345371 1.129852,0.688372 2.07489,1.691952 2.623098,2.901983 0.332218,0.550935 1.740436,0.476832 1.580027,-0.327768 -0.554861,-1.730832 -0.625806,-3.69045 0.252929,-5.331464 0.517312,-1.043883 1.309571,-2.164841 0.940209,-3.389825 -0.06143,-0.320982 -0.23487,-0.701918 -0.615016,-0.716209 z m 1.53125,0.882813 c -0.231915,0.549528 -0.066,1.39004 -0.434837,1.991571 -0.582747,1.248724 -1.410477,2.463604 -1.376036,3.901075 0.01737,0.958182 0.153023,1.957528 0.567124,2.82625 0.500414,0.650064 1.418951,0.517988 2.065222,0.941762 1.161155,0.58137 1.992893,1.634704 2.631971,2.736305 0.856444,0.523842 1.128977,-1.110028 1.632528,-1.58042 0.685382,-0.710268 -0.233238,-1.374592 -0.661622,-1.912622 -0.691449,-0.78188 -1.214806,-1.750102 -1.218637,-2.817497 -0.08857,-0.767196 0.08218,-1.552045 -0.06979,-2.309001 -0.307605,-0.601664 -0.833965,-1.063812 -1.242511,-1.600667 -0.602111,-0.705274 -1.179625,-1.43278 -1.797801,-2.123533 z m -6.683593,6.673828 c -0.415612,0.114778 -0.444173,0.638385 -0.648398,0.962781 -0.530011,1.183716 -1.093359,2.354118 -1.601894,3.546415 -0.211355,0.628355 0.23545,1.162176 0.703673,1.509584 0.765108,0.655122 1.494746,1.356091 2.283477,1.980699 0.698166,0.43477 1.300082,-0.318908 1.423226,-0.954065 0.620338,-1.499402 0.853445,-3.273286 0.07205,-4.759108 -0.470473,-0.934512 -1.222685,-1.733996 -2.113417,-2.275408 l -0.118717,-0.01089 z m 5.091797,3.15625 c -0.6476,0.0093 -1.849115,-0.04792 -1.661447,0.935662 0.07916,1.370597 -0.389498,2.690187 -0.882292,3.944837 -0.195892,0.939328 0.943059,0.920298 1.569209,0.923659 1.295094,0.09181 2.567312,0.373087 3.83128,0.643878 0.926494,-0.04885 1.320052,-1.060222 1.709613,-1.76116 0.404561,-0.601468 0.144795,-1.323485 -0.217797,-1.870285 -0.75518,-1.445023 -2.134904,-2.679897 -3.821177,-2.789958 -0.175235,-0.0173 -0.351382,-0.02566 -0.527389,-0.02663 z"
     style="opacity:0.3;stroke-width:0.716521"
     id="path1" />
</svg>
