<?xml version="1.0" encoding="UTF-8" standalone="no"?>
<!-- Generator: Adobe Illustrator 25.2.1, SVG Export Plug-In . SVG Version: 6.00 Build 0)  -->

<svg
   version="1.1"
   id="Layer_1"
   x="0px"
   y="0px"
   viewBox="0 0 64 64"
   style="enable-background:new 0 0 64 64;"
   xml:space="preserve"
   sodipodi:docname="folder-blue-tar.svg"
   inkscape:version="1.4 (e7c3feb100, 2024-10-09)"
   xmlns:inkscape="http://www.inkscape.org/namespaces/inkscape"
   xmlns:sodipodi="http://sodipodi.sourceforge.net/DTD/sodipodi-0.dtd"
   xmlns:xlink="http://www.w3.org/1999/xlink"
   xmlns="http://www.w3.org/2000/svg"
   xmlns:svg="http://www.w3.org/2000/svg"><defs
   id="defs14"><inkscape:path-effect
     effect="fillet_chamfer"
     id="path-effect7"
     is_visible="true"
     lpeversion="1"
     nodesatellites_param="F,0,1,1,0,0.45839291,0,1 @ F,0,1,1,0,0.45839291,0,1 @ F,0,1,1,0,0.45839291,0,1 @ F,0,1,1,0,0.45839291,0,1 | F,0,1,1,0,0.45839291,0,1 @ F,0,1,1,0,0.45839291,0,1 @ F,0,1,1,0,0.45839291,0,1 @ F,0,1,1,0,0.45839291,0,1 | F,0,1,1,0,0.45839291,0,1 @ F,0,1,1,0,0.45839291,0,1 @ F,0,1,1,0,0.45839291,0,1 @ F,0,1,1,0,0.45839291,0,1 | F,0,1,1,0,0.45839291,0,1 @ F,0,1,1,0,0.45839291,0,1 @ F,0,1,1,0,0.45839291,0,1 @ F,0,1,1,0,0.45839291,0,1 | F,0,0,1,0,0.45839291,0,1 @ F,0,1,1,0,0.45839291,0,1 @ F,0,1,1,0,0.45839291,0,1 @ F,0,1,1,0,0.45839291,0,1 | F,0,1,1,0,0.45839291,0,1 @ F,0,1,1,0,0.45839291,0,1 @ F,0,1,1,0,0.45839291,0,1 @ F,0,1,1,0,0.45839291,0,1 | F,0,1,1,0,0.45839291,0,1 @ F,0,1,1,0,0.45839291,0,1 @ F,0,1,1,0,0.45839291,0,1 | F,0,1,1,0,0.45839291,0,1 @ F,0,0,1,0,0,0,1 @ F,0,0,1,0,0,0,1 @ F,0,0,1,0,0,0,1 @ F,0,0,1,0,0,0,1 @ F,0,0,1,0,0,0,1 | F,0,0,1,0,0,0,1 @ F,0,0,1,0,0,0,1 @ F,0,0,1,0,0,0,1 @ F,0,0,1,0,0,0,1 | F,0,0,1,0,0,0,1 @ F,0,0,1,0,0,0,1 @ F,0,0,1,0,0,0,1 @ F,0,0,1,0,0,0,1 @ F,0,0,1,0,0,0,1 @ F,0,0,1,0,0,0,1"
     radius="0"
     unit="px"
     method="auto"
     mode="F"
     chamfer_steps="1"
     flexible="false"
     use_knot_distance="true"
     apply_no_radius="true"
     apply_with_radius="true"
     only_selected="false"
     hide_knots="false" /><radialGradient
     id="SVGID_6_-3"
     cx="32"
     cy="39"
     r="40.048599"
     fx="14.0678"
     fy="24.8514"
     gradientUnits="userSpaceOnUse">
	<stop
   offset="0"
   style="stop-color:#00F0F4"
   id="stop11-6" />
	<stop
   offset="1"
   style="stop-color:#1598FF"
   id="stop12-7" />
</radialGradient><radialGradient
     id="SVGID_4_-5"
     cx="25.213699"
     cy="25.563499"
     r="32.348301"
     fx="16.568701"
     fy="17.644699"
     gradientUnits="userSpaceOnUse">
	<stop
   offset="0"
   style="stop-color:#FFFFFF"
   id="stop7-3" />
	<stop
   offset="1"
   style="stop-color:#B7B7B7"
   id="stop8-5" />
</radialGradient><radialGradient
     id="SVGID_2_-6"
     cx="28.128099"
     cy="25.073299"
     r="40.0504"
     fx="5.4853001"
     fy="7.4745002"
     gradientUnits="userSpaceOnUse">
	<stop
   offset="0"
   style="stop-color:#15C7FF"
   id="stop3-2" />
	<stop
   offset="1"
   style="stop-color:#005A9E"
   id="stop4-9" />
</radialGradient><radialGradient
     inkscape:collect="always"
     xlink:href="#SVGID_1_-3-2-7"
     id="radialGradient14-6"
     cx="51.925644"
     cy="78.491135"
     fx="51.925644"
     fy="78.491135"
     r="27.708172"
     gradientTransform="matrix(0,-2.1910082,2.2418851,0,-92.280969,184.46437)"
     gradientUnits="userSpaceOnUse" /><radialGradient
     id="SVGID_1_-3-2-7"
     cx="-159.43106"
     cy="15.462561"
     r="64.706802"
     gradientTransform="matrix(-0.89413329,0,0,0.96304834,-80.753654,49.330428)"
     gradientUnits="userSpaceOnUse"
     fx="-159.43106"
     fy="15.462561">
	<stop
   offset="0"
   style="stop-color:#006fff;stop-opacity:1;"
   id="stop1-6-9-5" />
	<stop
   offset="1"
   style="stop-color:#15baff;stop-opacity:1;"
   id="stop2-7-1-3" />
</radialGradient><inkscape:path-effect
     effect="fillet_chamfer"
     id="path-effect2-5"
     is_visible="true"
     lpeversion="1"
     nodesatellites_param="F,0,0,1,0,1.7191201,0,1 @ F,0,0,1,0,13.761382,0,1 @ F,0,0,1,0,13.761382,0,1 @ F,0,0,1,0,14.755441,0,1"
     radius="0"
     unit="px"
     method="auto"
     mode="F"
     chamfer_steps="1"
     flexible="false"
     use_knot_distance="true"
     apply_no_radius="true"
     apply_with_radius="true"
     only_selected="false"
     hide_knots="false" /><radialGradient
     inkscape:collect="always"
     xlink:href="#radialGradient16-9"
     id="radialGradient15-2"
     cx="10.757424"
     cy="61.399044"
     fx="10.757424"
     fy="61.399044"
     r="24.565832"
     gradientTransform="matrix(0,-2.330989,2.5178893,0,-79.137526,79.401559)"
     gradientUnits="userSpaceOnUse" /><radialGradient
     id="radialGradient16-9"
     cx="-159.43106"
     cy="15.462561"
     r="64.706802"
     gradientTransform="matrix(-0.89413329,0,0,0.96304834,-80.753654,49.330428)"
     gradientUnits="userSpaceOnUse"
     fx="-159.43106"
     fy="15.462561">
	<stop
   offset="0"
   style="stop-color:#3d6aa4;stop-opacity:1;"
   id="stop15-1" />
	<stop
   offset="1"
   style="stop-color:#0097d2;stop-opacity:1;"
   id="stop16-2" />
</radialGradient><inkscape:path-effect
     effect="fillet_chamfer"
     id="path-effect20-7"
     is_visible="true"
     lpeversion="1"
     nodesatellites_param="F,0,0,1,0,1.4582365,0,1 @ F,0,0,1,0,4.7943319,0,1 @ F,0,0,1,0,0,0,1 @ F,0,0,1,0,0,0,1 @ F,0,0,1,0,0,0,1 @ F,0,0,1,0,0,0,1 @ F,0,0,1,0,0,0,1 @ F,0,0,1,0,0,0,1 @ F,0,0,1,0,2.051402,0,1"
     radius="0"
     unit="px"
     method="auto"
     mode="F"
     chamfer_steps="1"
     flexible="false"
     use_knot_distance="true"
     apply_no_radius="true"
     apply_with_radius="true"
     only_selected="false"
     hide_knots="false" /></defs><sodipodi:namedview
   id="namedview14"
   pagecolor="#ffffff"
   bordercolor="#000000"
   borderopacity="0.25"
   inkscape:showpageshadow="2"
   inkscape:pageopacity="0.0"
   inkscape:pagecheckerboard="0"
   inkscape:deskcolor="#d1d1d1"
   inkscape:zoom="10.507702"
   inkscape:cx="33.594406"
   inkscape:cy="44.300839"
   inkscape:window-width="1920"
   inkscape:window-height="1020"
   inkscape:window-x="0"
   inkscape:window-y="0"
   inkscape:window-maximized="1"
   inkscape:current-layer="Layer_1" />
<style
   type="text/css"
   id="style1">
	.st0{opacity:0.15;fill:url(#SVGID_1_);enable-background:new    ;}
	.st1{fill:url(#SVGID_2_);}
	.st2{opacity:0.34;fill:url(#SVGID_3_);enable-background:new    ;}
	.st3{fill:url(#SVGID_4_);}
	.st4{opacity:0.12;fill:url(#SVGID_5_);enable-background:new    ;}
	.st5{fill:url(#SVGID_6_);}
	.st6{fill:url(#SVGID_7_);}
</style>
<radialGradient
   id="SVGID_1_"
   cx="28.1281"
   cy="41.5136"
   r="40.0504"
   fx="5.4853"
   fy="23.9148"
   gradientTransform="matrix(1 0 0 -1 0 66)"
   gradientUnits="userSpaceOnUse">
	<stop
   offset="0"
   style="stop-color:#000000"
   id="stop1" />
	<stop
   offset="1"
   style="stop-color:#545454"
   id="stop2" />
</radialGradient>

<radialGradient
   id="SVGID_2_"
   cx="28.1281"
   cy="40.9267"
   r="40.0504"
   fx="5.4853"
   fy="23.3279"
   gradientTransform="matrix(1 0 0 -1 0 66)"
   gradientUnits="userSpaceOnUse">
	<stop
   offset="0"
   style="stop-color:#15C7FF"
   id="stop3" />
	<stop
   offset="1"
   style="stop-color:#005A9E"
   id="stop4" />
</radialGradient>

<linearGradient
   id="SVGID_3_"
   gradientUnits="userSpaceOnUse"
   x1="8"
   y1="39.25"
   x2="56"
   y2="39.25"
   gradientTransform="matrix(1 0 0 -1 0 66)">
	<stop
   offset="0"
   style="stop-color:#000000"
   id="stop5" />
	<stop
   offset="1"
   style="stop-color:#404040"
   id="stop6" />
</linearGradient>

<radialGradient
   id="SVGID_4_"
   cx="25.2137"
   cy="40.4365"
   r="32.3483"
   fx="16.5687"
   fy="32.5177"
   gradientTransform="matrix(1 0 0 -1 0 66)"
   gradientUnits="userSpaceOnUse">
	<stop
   offset="0"
   style="stop-color:#FFFFFF"
   id="stop7" />
	<stop
   offset="1"
   style="stop-color:#B7B7B7"
   id="stop8" />
</radialGradient>

<radialGradient
   id="SVGID_5_"
   cx="32"
   cy="27.8"
   r="40.0672"
   fx="14.0595"
   fy="13.6449"
   gradientTransform="matrix(1 0 0 -1 0 66)"
   gradientUnits="userSpaceOnUse">
	<stop
   offset="0"
   style="stop-color:#000000"
   id="stop9" />
	<stop
   offset="1"
   style="stop-color:#545454"
   id="stop10" />
</radialGradient>

<radialGradient
   id="SVGID_6_"
   cx="32"
   cy="27"
   r="40.0486"
   fx="14.0678"
   fy="12.8514"
   gradientTransform="matrix(1 0 0 -1 0 66)"
   gradientUnits="userSpaceOnUse">
	<stop
   offset="0"
   style="stop-color:#00F0F4"
   id="stop11" />
	<stop
   offset="1"
   style="stop-color:#1598FF"
   id="stop12" />
</radialGradient>

<linearGradient
   id="SVGID_7_"
   gradientUnits="userSpaceOnUse"
   x1="22.7539"
   y1="20.9195"
   x2="44.1007"
   y2="48.2357">
	<stop
   offset="0"
   style="stop-color:#15C7FF"
   id="stop13" />
	<stop
   offset="1"
   style="stop-color:#005A9E"
   id="stop14" />
</linearGradient>
<path
   class="st1"
   d="M 22.196242,11.795294 H 12.203491 A 4.7943319,4.7943319 135 0 0 7.409159,16.589626 V 40.29912 c 0,3.691468 2.98833,6.76769 6.679798,6.76769 h 35.772071 c 3.691466,0 6.679797,-2.98833 6.679797,-6.679797 V 23.375415 c 0,-3.691467 -4.328472,-7.94975 -8.019938,-7.94975 H 30.037826 a 5.6416074,5.6416074 19.982285 0 1 -3.623682,-1.317644 l -1.642012,-1.376082 a 4.0103294,4.0103294 19.982285 0 0 -2.57589,-0.936645 z"
   id="path4-0"
   style="fill:url(#radialGradient15-2);stroke-width:0.878921"
   sodipodi:nodetypes="ccsssssscc"
   inkscape:path-effect="#path-effect20-7"
   inkscape:original-d="M 23.654479,11.795294 H 7.409159 V 40.29912 c 0,3.691468 2.98833,6.76769 6.679798,6.76769 h 35.772071 c 3.691466,0 6.679797,-2.98833 6.679797,-6.679797 V 23.375415 c 0,-3.691467 -4.328472,-7.94975 -8.019938,-7.94975 l -20.534463,0 z"
   transform="matrix(1.0965063,0,0,1.0965063,-3.060779,-1.0769658)" /><path
   id="rect13-36"
   style="fill:url(#radialGradient14-6);fill-opacity:1;stroke:none;stroke-width:0.681659;stroke-linecap:round;stroke-linejoin:round"
   d="m 12.869929,20.661523 h 10.852407 a 7.0733661,7.0733661 0 0 0 5.326416,-2.419142 7.0447591,7.0447591 0 0 1 5.309311,-2.399567 h 16.77201 a 7.8520921,7.8520921 0 0 1 7.85209,7.852092 v 24.041409 a 7.8520921,7.8520921 0 0 1 -7.85209,7.852093 H 12.869929 A 7.8520921,7.8520921 0 0 1 5.017836,47.736315 V 28.513616 a 7.8520921,7.8520921 0 0 1 7.852093,-7.852093 z"
   sodipodi:nodetypes="ccccccc" /><path
   id="path7"
   style="opacity:0.3;fill:#000000;fill-opacity:1"
   d="m 32,16.705254 v 0.673058 a 0.45839291,0.45839291 45 0 0 0.458393,0.458393 h 1.083214 A 0.45839291,0.45839291 135 0 0 34,17.378312 v -1.075401 c 0,-0.253164 -0.205088,-0.446489 -0.456338,-0.415706 -0.461497,0.05654 -0.841031,0.143892 -1.108282,0.218348 C 32.191853,16.173401 32,16.45209 32,16.705254 Z m -0.458393,1.131451 H 30.458393 A 0.45839291,0.45839291 135 0 0 30,18.295098 v 1.083214 a 0.45839291,0.45839291 45 0 0 0.458393,0.458393 h 1.083214 A 0.45839291,0.45839291 135 0 0 32,19.378312 V 18.295098 A 0.45839291,0.45839291 45 0 0 31.541607,17.836705 Z M 32,20.295098 v 1.083214 a 0.45839291,0.45839291 45 0 0 0.458393,0.458393 h 1.083214 A 0.45839291,0.45839291 135 0 0 34,21.378312 V 20.295098 A 0.45839291,0.45839291 45 0 0 33.541607,19.836705 H 32.458393 A 0.45839291,0.45839291 135 0 0 32,20.295098 Z m -0.458393,1.541607 H 30.458393 A 0.45839291,0.45839291 135 0 0 30,22.295098 v 1.083214 a 0.45839291,0.45839291 45 0 0 0.458393,0.458393 l 1.083214,0 A 0.45839291,0.45839291 135 0 0 32,23.378312 V 22.295098 A 0.45839291,0.45839291 45 0 0 31.541607,21.836705 Z M 32,24.295098 v 1.083214 a 0.45839291,0.45839291 45 0 0 0.458393,0.458393 h 1.083214 A 0.45839291,0.45839291 135 0 0 34,25.378312 v -1.083214 a 0.45839291,0.45839291 45 0 0 -0.458393,-0.458393 l -1.083214,0 A 0.45839291,0.45839291 135 0 0 32,24.295098 Z m -0.458393,1.541607 H 30.458393 A 0.45839291,0.45839291 135 0 0 30,26.295098 v 1.083214 a 0.45839291,0.45839291 45 0 0 0.458393,0.458393 l 1.083214,0 A 0.45839291,0.45839291 135 0 0 32,27.378312 V 26.295098 A 0.45839291,0.45839291 45 0 0 31.541607,25.836705 Z M 32,28.295098 v 1.083214 c 0,0.253164 0.208954,0.463584 0.453576,0.401 0.726735,-0.185926 1.304312,-0.799746 1.486327,-1.489458 0.06442,-0.244101 -0.145132,-0.453149 -0.398296,-0.453149 l -1.083214,0 A 0.45839291,0.45839291 135 0 0 32,28.295098 Z m -0.457393,1.567788 C 29.555905,30.091665 28,31.791307 28,33.836705 v 8 c 0,2.2 1.8,4 4,4 2.2,0 4,-1.8 4,-4 v -8 c 0,-2.045314 -1.555776,-3.744899 -3.54236,-3.97379 -0.251498,-0.02898 -0.663669,-0.02897 -0.915033,-2.9e-5 z M 32,31.836705 c 1.1,0 2,0.8 2,2 0,1 -0.9,2 -2,2 -1.1,0 -2,-1 -2,-2 0,-1.2 0.8,-2 2,-2 z m 0,6 c 1.1,0 2,0.8 2,2 v 2 c 0,1 -0.9,2 -2,2 -1.1,0 -2,-1 -2,-2 v -2 c 0,-1.2 0.8,-2 2,-2 z"
   sodipodi:nodetypes="ccccccccccccccccccccccccccccccccccsssssssssssssssssss"
   inkscape:path-effect="#path-effect7"
   inkscape:original-d="m 32,16.246861 v 1.589844 h 2 v -1.992187 c -1.201154,0.07771 -2,0.402343 -2,0.402343 z m 0,1.589844 h -2 v 2 h 2 z m 0,2 v 2 h 2 v -2 z m 0,2 h -2 v 2 h 2 z m 0,2 v 2 h 2 v -2 z m 0,2 h -2 v 2 h 2 z m 0,2 v 2 c 1.1,0 2,-1 2,-2 z m 0,2 c -2.2,0 -4,1.8 -4,4 v 8 c 0,2.2 1.8,4 4,4 2.2,0 4,-1.8 4,-4 v -8 c 0,-2.2 -1.8,-4 -4,-4 z m 0,2 c 1.1,0 2,0.8 2,2 0,1 -0.9,2 -2,2 -1.1,0 -2,-1 -2,-2 0,-1.2 0.8,-2 2,-2 z m 0,6 c 1.1,0 2,0.8 2,2 v 2 c 0,1 -0.9,2 -2,2 -1.1,0 -2,-1 -2,-2 v -2 c 0,-1.2 0.8,-2 2,-2 z" />
</svg>
