<?xml version="1.0" encoding="UTF-8" standalone="no"?>
<svg
   width="64"
   height="64"
   version="1"
   id="svg4"
   sodipodi:docname="network-workgroup.svg"
   inkscape:version="1.4 (e7c3feb100, 2024-10-09)"
   xmlns:inkscape="http://www.inkscape.org/namespaces/inkscape"
   xmlns:sodipodi="http://sodipodi.sourceforge.net/DTD/sodipodi-0.dtd"
   xmlns:xlink="http://www.w3.org/1999/xlink"
   xmlns="http://www.w3.org/2000/svg"
   xmlns:svg="http://www.w3.org/2000/svg">
  <defs
     id="defs4">
    <inkscape:path-effect
       effect="fillet_chamfer"
       id="path-effect1"
       is_visible="true"
       lpeversion="1"
       nodesatellites_param="F,0,0,1,0,0,0,1 @ F,0,0,1,0,0,0,1 @ F,0,0,1,0,0,0,1 @ F,0,0,1,0,0,0,1 @ F,0,0,1,0,0,0,1 @ F,0,0,1,0,0,0,1 | F,0,0,1,0,2.2313425,0,1 @ F,0,0,1,0,0,0,1 @ F,0,0,1,0,0,0,1 @ F,0,0,1,0,0,0,1 @ F,0,0,1,0,0,0,1 @ F,0,0,1,0,0,0,1 @ F,0,0,1,0,0,0,1 @ F,0,0,1,0,3.0996664,0,1 @ F,0,0,1,0,0,0,1 @ F,0,0,1,0,0,0,1 @ F,0,0,1,0,2.774701,0,1 @ F,0,0,1,0,0,0,1 @ F,0,0,1,0,0,0,1 | F,0,0,1,0,1.8892532,0,1 @ F,0,0,1,0,0,0,1 @ F,0,0,1,0,1.0211566,0,1 @ F,0,0,1,0,0,0,1 @ F,0,0,1,0,0,0,1"
       radius="0"
       unit="px"
       method="auto"
       mode="F"
       chamfer_steps="1"
       flexible="false"
       use_knot_distance="true"
       apply_no_radius="true"
       apply_with_radius="true"
       only_selected="false"
       hide_knots="false" />
    <linearGradient
       id="linearGradient5"
       inkscape:collect="always">
      <stop
         style="stop-color:#01d9f6;stop-opacity:1;"
         offset="0"
         id="stop5" />
      <stop
         style="stop-color:#0077ff;stop-opacity:1;"
         offset="1"
         id="stop6" />
    </linearGradient>
    <radialGradient
       inkscape:collect="always"
       xlink:href="#linearGradient5"
       id="radialGradient6"
       cx="-34.96265"
       cy="-10.95596"
       fx="-34.96265"
       fy="-10.95596"
       r="27.999001"
       gradientUnits="userSpaceOnUse"
       gradientTransform="matrix(4.4182857,-1.1838762,-0.8691964,-3.2438851,153.43313,-68.914352)" />
    <inkscape:path-effect
       effect="fillet_chamfer"
       id="path-effect1-3"
       is_visible="true"
       lpeversion="1"
       nodesatellites_param="F,0,0,1,0,0,0,1 @ F,0,0,1,0,0,0,1 @ F,0,0,1,0,0,0,1 @ F,0,0,1,0,0,0,1 @ F,0,0,1,0,0,0,1 @ F,0,0,1,0,0,0,1 | F,0,0,1,0,2.2313425,0,1 @ F,0,0,1,0,0,0,1 @ F,0,0,1,0,0,0,1 @ F,0,0,1,0,0,0,1 @ F,0,0,1,0,0,0,1 @ F,0,0,1,0,0,0,1 @ F,0,0,1,0,0,0,1 @ F,0,0,1,0,3.0996664,0,1 @ F,0,0,1,0,0,0,1 @ F,0,0,1,0,0,0,1 @ F,0,0,1,0,2.774701,0,1 @ F,0,0,1,0,0,0,1 @ F,0,0,1,0,0,0,1 | F,0,0,1,0,1.8892532,0,1 @ F,0,0,1,0,0,0,1 @ F,0,0,1,0,1.0211566,0,1 @ F,0,0,1,0,0,0,1 @ F,0,0,1,0,0,0,1"
       radius="0"
       unit="px"
       method="auto"
       mode="F"
       chamfer_steps="1"
       flexible="false"
       use_knot_distance="true"
       apply_no_radius="true"
       apply_with_radius="true"
       only_selected="false"
       hide_knots="false" />
    <inkscape:path-effect
       effect="fillet_chamfer"
       id="path-effect1-9"
       is_visible="true"
       lpeversion="1"
       nodesatellites_param="F,0,0,1,0,0,0,1 @ F,0,0,1,0,0,0,1 @ F,0,0,1,0,0,0,1 @ F,0,0,1,0,0,0,1 @ F,0,0,1,0,0,0,1 @ F,0,0,1,0,0,0,1 | F,0,0,1,0,2.2313425,0,1 @ F,0,0,1,0,0,0,1 @ F,0,0,1,0,0,0,1 @ F,0,0,1,0,0,0,1 @ F,0,0,1,0,0,0,1 @ F,0,0,1,0,0,0,1 @ F,0,0,1,0,0,0,1 @ F,0,0,1,0,3.0996664,0,1 @ F,0,0,1,0,0,0,1 @ F,0,0,1,0,0,0,1 @ F,0,0,1,0,2.774701,0,1 @ F,0,0,1,0,0,0,1 @ F,0,0,1,0,0,0,1 | F,0,0,1,0,1.8892532,0,1 @ F,0,0,1,0,0,0,1 @ F,0,0,1,0,1.0211566,0,1 @ F,0,0,1,0,0,0,1 @ F,0,0,1,0,0,0,1"
       radius="0"
       unit="px"
       method="auto"
       mode="F"
       chamfer_steps="1"
       flexible="false"
       use_knot_distance="true"
       apply_no_radius="true"
       apply_with_radius="true"
       only_selected="false"
       hide_knots="false" />
    <filter
       inkscape:collect="always"
       style="color-interpolation-filters:sRGB"
       id="filter1"
       x="-0.13553691"
       y="-0.13553163"
       width="1.2710738"
       height="1.2710633">
      <feGaussianBlur
         inkscape:collect="always"
         stdDeviation="2.7947033"
         id="feGaussianBlur1" />
    </filter>
  </defs>
  <sodipodi:namedview
     id="namedview4"
     pagecolor="#ffffff"
     bordercolor="#000000"
     borderopacity="0.25"
     inkscape:showpageshadow="2"
     inkscape:pageopacity="0.0"
     inkscape:pagecheckerboard="0"
     inkscape:deskcolor="#d1d1d1"
     inkscape:zoom="9.7006212"
     inkscape:cx="50.306057"
     inkscape:cy="35.410103"
     inkscape:window-width="1920"
     inkscape:window-height="1020"
     inkscape:window-x="0"
     inkscape:window-y="0"
     inkscape:window-maximized="1"
     inkscape:current-layer="svg4" />
  <path
     id="rect1"
     style="fill:url(#radialGradient6);stroke-width:0.89691"
     d="m 57.113587,32.000999 c 0,-13.912373 -11.200214,-25.112587 -25.112588,-25.112587 -13.912373,0 -25.112587,11.200214 -25.112587,25.112587 0,13.912374 11.200214,25.112588 25.112587,25.112588 13.912374,0 25.112588,-11.200214 25.112588,-25.112588 z" />
  <path
     d="m 32,12.001953 c -7.864088,-0.109208 -15.448957,4.944528 -18.428258,12.213577 -3.110519,7.141191 -1.500752,16.01223 3.950996,21.583161 5.245392,5.645249 13.88719,7.705478 21.123193,5.070434 7.500109,-2.548112 13.029038,-9.9164 13.326097,-17.839954 C 52.469938,25.326875 48.006012,17.627641 41.104484,14.189584 38.300705,12.748836 35.151574,11.997154 32,12.001953 Z m -1.95835,6.095689 c -0.332024,0.761564 -0.683994,1.577622 -0.647882,2.246285 -0.465328,2.431674 -0.227683,5.127828 1.344513,7.132629 -2.059882,0.484921 -3.292299,-1.80597 -5.05418,-2.423371 -2.405118,-0.605763 -3.33562,3.300633 -1.22144,4.41224 3.728441,3.058228 9.212342,2.097318 12.971336,5.072261 1.821549,1.83973 1.537635,4.836971 0.807769,7.10506 -0.905883,2.363484 -2.77452,4.126421 -4.923016,5.410901 -1.467809,0.877531 -3.179951,0.03518 -3.494611,-1.642457 -0.253412,-1.351085 -0.626725,-2.741272 -1.682998,-3.651229 -1.255267,-1.71243 -4.363766,-2.049173 -4.64678,-4.307005 0.200249,-1.051287 0.661532,-2.0325 1.310126,-2.870535 0.932117,-1.20437 0.870378,-2.122611 -0.613517,-2.505141 -2.429991,-0.626422 -4.844969,-1.352115 -6.912415,-2.836999 -2.0733,-0.693942 -0.77804,-2.618154 -0.241782,-3.979202 2.0723,-4.519926 6.350566,-8.042109 11.23191,-9.014935 1.207264,-0.240602 2.249019,0.759574 1.772967,1.851498 z m 16.282389,7.097515 c 0.746434,1.403905 1.245722,3.0055 1.530871,4.538612 0.231629,2.201028 0.248072,4.511049 -0.40489,6.642046 -0.165155,0.538997 -0.610002,0.586498 -0.937876,0.12763 -0.815811,-1.141749 -1.678014,-2.294718 -2.694287,-3.281834 -1.443973,-1.473893 -2.994668,-3.625619 -1.882385,-5.740884 0.480731,-0.964095 1.145001,-1.871336 1.920937,-2.653226 0.733982,-0.739614 1.978465,-0.552373 2.46763,0.367656 z"
     style="fill:#ffffff"
     id="path1"
     inkscape:path-effect="#path-effect1"
     inkscape:original-d="m 32,12.001953 c -7.864088,-0.109208 -15.448957,4.944528 -18.428258,12.213577 -3.110519,7.141191 -1.500752,16.01223 3.950996,21.583161 5.245392,5.645249 13.88719,7.705478 21.123193,5.070434 7.500109,-2.548112 13.029038,-9.9164 13.326097,-17.839954 C 52.469938,25.326875 48.006012,17.627641 41.104484,14.189584 38.300705,12.748836 35.151574,11.997154 32,12.001953 Z m -1.517578,3.984375 c 0.560377,0.788185 -1.166529,2.915624 -1.088654,4.357599 -0.465328,2.431674 -0.227683,5.127828 1.344513,7.132629 -2.059882,0.484921 -3.292299,-1.80597 -5.05418,-2.423371 -2.405118,-0.605763 -3.33562,3.300633 -1.22144,4.41224 3.728441,3.058228 9.212342,2.097318 12.971336,5.072261 1.821549,1.83973 1.537635,4.836971 0.807769,7.10506 -1.283028,3.347471 -4.49733,5.490253 -7.702704,6.775217 -0.822001,-1.693091 -0.457204,-4.986115 -2.397921,-6.658002 -1.255267,-1.71243 -4.363766,-2.049173 -4.64678,-4.307005 0.374815,-1.967739 1.664143,-3.689983 3.384541,-4.687337 -3.282329,-0.881518 -6.767567,-1.490775 -9.600347,-3.525338 -2.0733,-0.693942 -0.77804,-2.618154 -0.241782,-3.979202 2.380648,-5.192469 7.672577,-9.068187 13.445649,-9.274751 z m 14.816406,7.625 c 1.33436,1.685504 2.155999,3.97138 2.556082,6.122441 0.266904,2.536223 0.24809,5.217163 -0.751389,7.602162 -0.99497,-1.400791 -2.021029,-2.885967 -3.285664,-4.11432 -1.443973,-1.473893 -2.994668,-3.625619 -1.882385,-5.740884 0.758395,-1.520943 1.973578,-2.900391 3.363356,-3.869399 z"
     transform="matrix(0.89691014,0,0,0.89691014,3.2989786,3.2989786)" />
  <path
     id="rect1-0"
     style="fill:none;stroke-width:0.2;stroke:#000000;stroke-opacity:1;stroke-dasharray:none;filter:url(#filter1)"
     d="M 32.000979,6.8867189 C 18.088605,6.8867189 6.8876975,18.087627 6.8876975,32 c 0,13.912374 11.2009075,25.113281 25.1132815,25.113281 13.912374,0 25.111323,-11.200907 25.111323,-25.113281 0,-13.912373 -11.198949,-25.1132812 -25.111323,-25.1132811 z m -0.002,7.1757811 c 2.826678,-0.0043 5.651278,0.670669 8.166015,1.962891 6.19005,3.083628 10.194632,9.988217 9.748052,16.896484 -0.26644,7.106716 -5.226207,13.714573 -11.95313,16 C 31.469919,51.285273 23.719295,49.438281 19.014651,44.375 14.124922,39.378375 12.681826,31.422585 15.471682,25.017578 18.143848,18.497894 24.945645,13.96455 31.999026,14.0625 Z m -2.949219,3.775391 c -0.128343,-0.0058 -0.261133,0.0043 -0.396484,0.03125 -4.378129,0.872537 -8.215553,4.03197 -10.074219,8.085937 -0.480975,1.220738 -1.642768,2.945956 0.216797,3.568359 1.854313,1.331808 4.019734,1.983078 6.199219,2.544922 1.33092,0.343095 1.386807,1.165882 0.550781,2.246094 -0.581731,0.751642 -0.996177,1.633262 -1.175781,2.576172 0.253838,2.025072 3.042107,2.325432 4.167968,3.861328 0.947383,0.81615 1.282477,2.063588 1.509766,3.275391 0.282222,1.504689 1.818273,2.259722 3.134766,1.472656 1.927008,-1.152063 3.60352,-2.73173 4.416015,-4.851563 0.654624,-2.034272 0.909156,-4.722974 -0.724609,-6.373046 -3.371481,-2.668257 -8.290689,-1.805873 -11.634766,-4.548828 -1.89623,-0.997012 -1.061471,-4.5023 1.095703,-3.958985 1.580249,0.553753 2.685675,2.608759 4.533203,2.173828 -1.410118,-1.798126 -1.624388,-4.215491 -1.207031,-6.396484 -0.03239,-0.59973 0.284237,-1.332571 0.582031,-2.015625 0.373604,-0.856938 -0.294957,-1.65088 -1.193359,-1.691406 z m 14.457031,7.322265 c -0.315775,0.02414 -0.626178,0.157488 -0.873047,0.40625 -0.695944,0.701285 -1.291483,1.5142 -1.722656,2.378907 -0.997618,1.897202 0.392386,3.826487 1.6875,5.148437 0.911506,0.885354 1.68626,1.921266 2.417969,2.945313 0.294073,0.411563 0.691715,0.368197 0.839844,-0.115235 0.585649,-1.911313 0.571032,-3.982907 0.363281,-5.957031 -0.255753,-1.375064 -0.703563,-2.811135 -1.373047,-4.070313 -0.27421,-0.515739 -0.813553,-0.776556 -1.339844,-0.736328 z" />
</svg>
