<?xml version="1.0" encoding="UTF-8" standalone="no"?>
<!-- Generator: Adobe Illustrator 25.2.1, SVG Export Plug-In . SVG Version: 6.00 Build 0)  -->

<svg
   version="1.1"
   id="Layer_1"
   x="0px"
   y="0px"
   viewBox="0 0 64 64"
   style="enable-background:new 0 0 64 64;"
   xml:space="preserve"
   sodipodi:docname="user-trash-full.svg"
   inkscape:version="1.4 (e7c3feb100, 2024-10-09)"
   xmlns:inkscape="http://www.inkscape.org/namespaces/inkscape"
   xmlns:sodipodi="http://sodipodi.sourceforge.net/DTD/sodipodi-0.dtd"
   xmlns:xlink="http://www.w3.org/1999/xlink"
   xmlns="http://www.w3.org/2000/svg"
   xmlns:svg="http://www.w3.org/2000/svg"><defs
   id="defs10"><inkscape:path-effect
   effect="fillet_chamfer"
   id="path-effect3"
   is_visible="true"
   lpeversion="1"
   nodesatellites_param="F,0,0,1,0,0,0,1 @ F,0,0,1,0,3.0487964,0,1 @ F,0,0,1,0,0,0,1"
   radius="0"
   unit="px"
   method="auto"
   mode="F"
   chamfer_steps="1"
   flexible="false"
   use_knot_distance="true"
   apply_no_radius="true"
   apply_with_radius="true"
   only_selected="false"
   hide_knots="false" /><inkscape:path-effect
   effect="fillet_chamfer"
   id="path-effect2"
   is_visible="true"
   lpeversion="1"
   nodesatellites_param="F,0,0,1,0,0,0,1 @ F,0,0,1,0,0,0,1 @ F,0,0,1,0,1.5956216,0,1 @ F,0,0,1,0,2.9617033,0,1 @ F,0,0,1,0,2.2005129,0,1 @ F,0,0,1,0,0,0,1 @ F,0,0,1,0,0,0,1 @ F,0,0,1,0,0,0,1 @ F,0,0,1,0,0,0,1"
   radius="0"
   unit="px"
   method="auto"
   mode="F"
   chamfer_steps="1"
   flexible="false"
   use_knot_distance="true"
   apply_no_radius="true"
   apply_with_radius="true"
   only_selected="false"
   hide_knots="false" /><inkscape:path-effect
   effect="fillet_chamfer"
   id="path-effect1"
   is_visible="true"
   lpeversion="1"
   nodesatellites_param="F,0,0,1,0,0,0,1 @ F,0,0,1,0,0,0,1 @ F,0,0,1,0,0,0,1 @ F,0,0,1,0,0,0,1 @ F,0,0,1,0,0,0,1 @ F,0,0,1,0,0,0,1 @ F,0,0,1,0,0,0,1"
   radius="0"
   unit="px"
   method="auto"
   mode="F"
   chamfer_steps="1"
   flexible="false"
   use_knot_distance="true"
   apply_no_radius="true"
   apply_with_radius="true"
   only_selected="false"
   hide_knots="false" />
	
	
		<radialGradient
   id="SVGID_1_"
   cx="18.9775"
   cy="1036.8816"
   r="38.583"
   gradientTransform="matrix(0.90140012,0,0,0.90140012,3.2364082,-910.11319)"
   gradientUnits="userSpaceOnUse">
		<stop
   offset="0"
   style="stop-color:#a7a7a7;stop-opacity:1;"
   id="stop1" />
		<stop
   offset="1"
   style="stop-color:#777777;stop-opacity:1;"
   id="stop2" />
	</radialGradient>
	
	
	
	
		<radialGradient
   id="SVGID_4_"
   cx="-15.6362"
   cy="32.7225"
   r="16.5058"
   fx="-20.0474"
   fy="28.6819"
   gradientTransform="matrix(-0.9057,0.4239,0.4239,0.9057,18.1452,-17.0021)"
   gradientUnits="userSpaceOnUse">
		<stop
   offset="0"
   style="stop-color:#FFFFFF"
   id="stop7" />
		<stop
   offset="1"
   style="stop-color:#B7B7B7"
   id="stop8" />
	</radialGradient>
	
	
	
		<radialGradient
   id="SVGID_5_"
   cx="11.4873"
   cy="1016.485"
   r="36.1253"
   gradientTransform="matrix(0.89676018,-0.09134202,0.09134202,0.89676018,-91.203627,-903.05715)"
   gradientUnits="userSpaceOnUse">
		<stop
   offset="0"
   style="stop-color:#898989;stop-opacity:1;"
   id="stop9" />
		<stop
   offset="1"
   style="stop-color:#797979;stop-opacity:1;"
   id="stop10" />
	</radialGradient>
	

		
			<linearGradient
   id="SVGID_2_"
   gradientUnits="userSpaceOnUse"
   x1="-9.5656996"
   y1="22.406401"
   x2="16.434299"
   y2="22.406401"
   gradientTransform="matrix(-0.7274,0.6862,0.6862,0.7274,10.5345,-8.7009)">
			<stop
   offset="0"
   style="stop-color:#000000"
   id="stop3" />
			<stop
   offset="1"
   style="stop-color:#404040"
   id="stop4" />
		</linearGradient>
		
		
			<radialGradient
   id="SVGID_3_"
   cx="-2.1222"
   cy="17.730499"
   r="19.099701"
   fx="-7.2266002"
   fy="13.0549"
   gradientTransform="matrix(-0.7274,0.6862,0.6862,0.7274,10.5345,-8.7009)"
   gradientUnits="userSpaceOnUse">
			<stop
   offset="0"
   style="stop-color:#FFFFFF"
   id="stop5" />
			<stop
   offset="1"
   style="stop-color:#B7B7B7"
   id="stop6" />
		</radialGradient>
		
	<radialGradient
   id="SVGID_2_-6"
   cx="11.483"
   cy="63.456902"
   r="36.125301"
   gradientTransform="matrix(1,0,0,-1,0,66)"
   gradientUnits="userSpaceOnUse">
		<stop
   offset="0"
   style="stop-color:#707070"
   id="stop3-2" />
		<stop
   offset="1"
   style="stop-color:#454545"
   id="stop4-9" />
	</radialGradient><radialGradient
   id="SVGID_1_-1"
   cx="19.542999"
   cy="43.0602"
   r="37.8494"
   gradientTransform="matrix(1,0,0,-1,0,66)"
   gradientUnits="userSpaceOnUse">
		<stop
   offset="0"
   style="stop-color:#707070"
   id="stop1-2" />
		<stop
   offset="1"
   style="stop-color:#454545"
   id="stop2-7" />
	</radialGradient><radialGradient
   id="SVGID_5_-6"
   cx="11.4873"
   cy="1016.485"
   r="36.125301"
   gradientTransform="matrix(0.89676018,-0.09134202,0.09134202,0.89676018,-91.166257,-903.01675)"
   gradientUnits="userSpaceOnUse">
		<stop
   offset="0"
   style="stop-color:#707070"
   id="stop9-0" />
		<stop
   offset="1"
   style="stop-color:#454545"
   id="stop10-6" />
	</radialGradient><radialGradient
   id="SVGID_1_-2"
   cx="18.977501"
   cy="1036.8816"
   r="38.583"
   gradientTransform="matrix(0.90140012,0,0,0.90140012,3.2737778,-910.07279)"
   gradientUnits="userSpaceOnUse">
		<stop
   offset="0"
   style="stop-color:#707070"
   id="stop3-0" />
		<stop
   offset="1"
   style="stop-color:#454545"
   id="stop4-2" />
	</radialGradient><filter
   inkscape:collect="always"
   style="color-interpolation-filters:sRGB"
   id="filter8"
   x="-0.11316951"
   y="-0.1070153"
   width="1.226339"
   height="1.2140306"><feGaussianBlur
     inkscape:collect="always"
     stdDeviation="2.3046797"
     id="feGaussianBlur8" /></filter><radialGradient
   inkscape:collect="always"
   xlink:href="#SVGID_1_-53"
   id="radialGradient7"
   cx="2.1575665"
   cy="22.66441"
   fx="2.1575665"
   fy="22.66441"
   r="21.491165"
   gradientTransform="matrix(1.0917042,4.0742956,-4.6045726,1.2337915,98.546451,-29.544394)"
   gradientUnits="userSpaceOnUse" /><radialGradient
   id="SVGID_1_-53"
   cx="18.977501"
   cy="1036.8816"
   r="38.583"
   gradientTransform="matrix(0.90140012,0,0,0.90140012,3.2364082,-910.11319)"
   gradientUnits="userSpaceOnUse">
		<stop
   offset="0"
   style="stop-color:#6f6f6f;stop-opacity:1;"
   id="stop3-5" />
		<stop
   offset="1"
   style="stop-color:#5e5e5e;stop-opacity:1;"
   id="stop4-6" />
	</radialGradient><radialGradient
   inkscape:collect="always"
   xlink:href="#SVGID_5_-3"
   id="radialGradient6"
   cx="9.8319702"
   cy="-5.9575515"
   fx="9.8319702"
   fy="-5.9575515"
   r="25.174034"
   gradientTransform="matrix(0.02485484,0.36700445,-1.9499709,0.13205894,-12.372808,13.834728)"
   gradientUnits="userSpaceOnUse" /><radialGradient
   id="SVGID_5_-3"
   cx="11.4873"
   cy="1016.485"
   r="36.125301"
   gradientTransform="matrix(0.89676018,-0.09134202,0.09134202,0.89676018,-35.833715,-905.40519)"
   gradientUnits="userSpaceOnUse">
		<stop
   offset="0"
   style="stop-color:#898989;stop-opacity:1;"
   id="stop9-6" />
		<stop
   offset="1"
   style="stop-color:#797979;stop-opacity:1;"
   id="stop10-7" />
	</radialGradient><inkscape:path-effect
   effect="fillet_chamfer"
   id="path-effect3-6"
   is_visible="true"
   lpeversion="1"
   nodesatellites_param="F,0,0,1,0,0,0,1 @ F,0,0,1,0,2.3654244,0,1 @ F,0,0,1,0,0,0,1"
   radius="0"
   unit="px"
   method="auto"
   mode="F"
   chamfer_steps="1"
   flexible="false"
   use_knot_distance="true"
   apply_no_radius="true"
   apply_with_radius="true"
   only_selected="false"
   hide_knots="false" /></defs><sodipodi:namedview
   id="namedview10"
   pagecolor="#ffffff"
   bordercolor="#000000"
   borderopacity="0.25"
   inkscape:showpageshadow="2"
   inkscape:pageopacity="0.0"
   inkscape:pagecheckerboard="0"
   inkscape:deskcolor="#d1d1d1"
   inkscape:zoom="10.94393"
   inkscape:cx="29.331328"
   inkscape:cy="45.824489"
   inkscape:window-width="1920"
   inkscape:window-height="1020"
   inkscape:window-x="0"
   inkscape:window-y="0"
   inkscape:window-maximized="1"
   inkscape:current-layer="Layer_1" />
<style
   type="text/css"
   id="style1">
	.st0{opacity:0.21;enable-background:new    ;}
	.st1{fill:url(#SVGID_1_);}
	.st2{opacity:0.3;fill:none;stroke:#000000;stroke-width:6;stroke-linecap:round;enable-background:new    ;}
	.st3{opacity:0.34;fill:url(#SVGID_2_);enable-background:new    ;}
	.st4{fill:url(#SVGID_3_);}
	.st5{fill:url(#SVGID_4_);}
	.st6{opacity:0.2;enable-background:new    ;}
	.st7{fill:url(#SVGID_5_);}
</style>
<path
   class="st1"
   d="m 22.708306,13.717945 h 20.79839 c 5.135405,0 9.329319,-2.072437 9.329319,3.062968 v 32.200146 c 0,5.135404 -4.193914,9.329318 -9.329319,9.329318 h -20.79839 c -5.135405,0 -9.329318,-4.193914 -9.329318,-9.329318 V 23.047264 c 0,-5.135404 4.193913,-9.329319 9.329318,-9.329319 z"
   id="path2-5"
   style="fill:url(#radialGradient7);stroke-width:0.855901"
   sodipodi:nodetypes="sssssssss" /><path
   id="path1"
   style="opacity:0.3;stroke-width:0.917982;stroke-linecap:round"
   d="m 23.26094,25.980681 a 2.7539473,2.7539473 0 0 0 -2.753947,2.753947 v 19.60753 a 2.7539473,2.7539473 0 0 0 2.753947,2.753948 2.7539473,2.7539473 0 0 0 2.753947,-2.753948 V 28.734628 A 2.7539473,2.7539473 0 0 0 23.26094,25.980681 Z m 9.803766,0 a 2.7539473,2.7539473 0 0 0 -2.753947,2.753947 v 19.60753 a 2.7539473,2.7539473 0 0 0 2.753947,2.753948 2.7539473,2.7539473 0 0 0 2.753948,-2.753948 v -19.60753 a 2.7539473,2.7539473 0 0 0 -2.753948,-2.753947 z m 9.803766,0 a 2.7539473,2.7539473 0 0 0 -2.753947,2.753947 v 19.60753 a 2.7539473,2.7539473 0 0 0 2.753947,2.753948 2.7539473,2.7539473 0 0 0 2.753948,-2.753948 v -19.60753 a 2.7539473,2.7539473 0 0 0 -2.753948,-2.753947 z" /><path
   sodipodi:type="star"
   style="opacity:1;fill:#ffffff;fill-opacity:1;stroke:none;stroke-width:0.2"
   id="path2"
   inkscape:flatsided="true"
   sodipodi:sides="3"
   sodipodi:cx="-7.0358639"
   sodipodi:cy="12.60973"
   sodipodi:r1="7.3948894"
   sodipodi:r2="5.3044658"
   sodipodi:arg1="-0.54636801"
   sodipodi:arg2="0.50082954"
   inkscape:rounded="0"
   inkscape:randomized="0"
   d="M -0.71754256,8.7674382 -5.4036126,17.328345 a 1.7602234,1.7602234 178.69542 0 1 -3.0480061,0.06941 L -13.522547,9.0590488 Z"
   inkscape:transform-center-x="-3.1770819"
   inkscape:transform-center-y="0.92508661"
   transform="matrix(1.157932,0.57554314,-0.57554314,1.157932,36.362079,10.670134)"
   inkscape:path-effect="#path-effect3" /><path
   sodipodi:type="star"
   style="fill:#ffffff;fill-opacity:1;stroke:none;stroke-width:0.2"
   id="path2-2"
   inkscape:flatsided="true"
   sodipodi:sides="3"
   sodipodi:cx="-7.0358639"
   sodipodi:cy="12.60973"
   sodipodi:r1="7.3948894"
   sodipodi:r2="5.3044658"
   sodipodi:arg1="-0.54636801"
   sodipodi:arg2="0.50082954"
   inkscape:rounded="0"
   inkscape:randomized="0"
   d="M -0.71754256,8.7674382 -5.731736,17.927789 a 1.3656784,1.3656784 178.69542 0 1 -2.3648112,0.05385 L -13.522547,9.0590488 Z"
   inkscape:transform-center-x="-1.2228181"
   inkscape:transform-center-y="0.54344736"
   transform="matrix(1.5312117,-0.25976586,0.31884325,1.2474987,48.900359,4.6994913)"
   inkscape:path-effect="#path-effect3-6" /><path
   d="M 25.878627,6.4922792 C 25.090733,6.5490252 24.421051,6.9428342 23.966848,7.5431308 23.534052,8.1151371 22.8664,8.7947524 22.189206,8.8435256 L 12.214919,9.5618994 C 9.1763445,9.7807454 6.8924709,12.758126 7.1388733,16.179308 7.3852756,19.60049 10.072412,22.222224 13.110986,22.003377 L 51.78525,19.217958 c 3.038575,-0.218846 5.322278,-3.198592 5.075876,-6.619775 C 56.614724,9.1770011 53.927758,6.5576335 50.889183,6.7764795 L 40.914897,7.4948533 C 40.237703,7.5436265 39.479565,6.9667055 38.969252,6.4626191 38.433717,5.9336168 37.714501,5.6398291 36.926615,5.6965747 Z"
   style="baseline-shift:baseline;display:inline;overflow:visible;vector-effect:none;fill:url(#radialGradient6);stroke-width:1.05061;enable-background:accumulate;stop-color:#000000"
   id="path3-3" /><g
   id="g8"
   transform="translate(62.734375,8.2127561)"
   style="filter:url(#filter8)"><path
     d="m -9.8984375,10.810547 c -0.3376405,0.10054 -0.6887085,0.169235 -1.0507815,0.195312 l -38.339843,2.761719 c -0.04031,0.350555 -0.06641,0.705406 -0.06641,1.066406 v 25.935547 c 0,5.135405 4.19272,9.328125 9.328125,9.328125 h 20.798828 c 5.135405,0 9.3300785,-4.19272 9.3300785,-9.328125 z m -29.5761715,6.957031 c 1.520931,2.3e-5 2.753883,1.232975 2.753906,2.753906 v 19.607422 c -2.3e-5,1.520931 -1.232975,2.753884 -2.753906,2.753906 -1.520931,-2.2e-5 -2.753884,-1.232975 -2.753907,-2.753906 V 20.521484 c 2.3e-5,-1.520931 1.232976,-2.753883 2.753907,-2.753906 z m 9.804687,0 c 1.520931,2.3e-5 2.753884,1.232975 2.753906,2.753906 v 19.607422 c -2.2e-5,1.520931 -1.232975,2.753884 -2.753906,2.753906 -1.520931,-2.2e-5 -2.753883,-1.232975 -2.753906,-2.753906 V 20.521484 c 2.3e-5,-1.520931 1.232975,-2.753883 2.753906,-2.753906 z m 9.802735,0 c 1.520931,2.3e-5 2.753883,1.232975 2.753906,2.753906 v 19.607422 c -2.3e-5,1.520931 -1.232975,2.753884 -2.753906,2.753906 -1.520932,-2.2e-5 -2.753884,-1.232975 -2.753907,-2.753906 V 20.521484 c 2.3e-5,-1.520931 1.232975,-2.753883 2.753907,-2.753906 z"
     style="baseline-shift:baseline;display:inline;overflow:visible;fill:none;fill-opacity:1;stroke:#000000;stroke-width:0.2;stroke-dasharray:none;stroke-opacity:1;enable-background:accumulate;stop-color:#000000;stop-opacity:1"
     id="path7" /><path
     d="m -25.515625,-2.5214844 c -0.09612,-0.00364 -0.194483,-0.00123 -0.292969,0.00586 l -11.046875,0.7949219 c -0.787894,0.056746 -1.457907,0.4504846 -1.912109,1.05078123 -0.432797,0.57200633 -1.10015,1.25200801 -1.777344,1.30078124 L -50.519531,1.34961 c -3.038574,0.218846 -5.322574,3.1960057 -5.076172,6.6171875 0.246403,3.4211825 2.934082,6.0430655 5.972656,5.8242195 L -10.949219,11.00586 C -7.9106435,10.787013 -5.6266448,7.8079015 -5.8730469,4.3867187 -6.119449,0.96553707 -8.8071283,-1.6543929 -11.845703,-1.4355469 l -9.974609,0.71875003 c -0.677194,0.0487732 -1.435,-0.52911673 -1.945313,-1.03320313 -0.468593,-0.462877 -1.077194,-0.7460342 -1.75,-0.7714844 z"
     style="baseline-shift:baseline;display:inline;overflow:visible;fill:none;fill-opacity:1;stroke:#000000;stroke-width:0.2;stroke-dasharray:none;stroke-opacity:1;enable-background:accumulate;stop-color:#000000;stop-opacity:1"
     id="path6-5" /></g>
</svg>
