<?xml version="1.0" encoding="UTF-8" standalone="no"?>
<svg
   width="64"
   height="64"
   version="1"
   id="svg7"
   sodipodi:docname="input-mouse.svg"
   inkscape:version="1.4 (e7c3feb100, 2024-10-09)"
   xmlns:inkscape="http://www.inkscape.org/namespaces/inkscape"
   xmlns:sodipodi="http://sodipodi.sourceforge.net/DTD/sodipodi-0.dtd"
   xmlns:xlink="http://www.w3.org/1999/xlink"
   xmlns="http://www.w3.org/2000/svg"
   xmlns:svg="http://www.w3.org/2000/svg">
  <defs
     id="defs7">
    <linearGradient
       id="linearGradient6"
       inkscape:collect="always">
      <stop
         style="stop-color:#4c4c4c;stop-opacity:1;"
         offset="0"
         id="stop6" />
      <stop
         style="stop-color:#727272;stop-opacity:1;"
         offset="1"
         id="stop7" />
    </linearGradient>
    <radialGradient
       inkscape:collect="always"
       xlink:href="#linearGradient6"
       id="radialGradient9"
       cx="14.207322"
       cy="50.177513"
       fx="14.207322"
       fy="50.177513"
       r="17.999989"
       gradientTransform="matrix(3.2852229,-1.8967243,2.9504605,5.1103475,-182.39245,-168.10542)"
       gradientUnits="userSpaceOnUse" />
    <filter
       inkscape:collect="always"
       style="color-interpolation-filters:sRGB"
       id="filter9"
       x="-0.29380005"
       y="-0.13560002"
       width="1.5876001"
       height="1.2712">
      <feGaussianBlur
         inkscape:collect="always"
         stdDeviation="0.69283347"
         id="feGaussianBlur9" />
    </filter>
  </defs>
  <sodipodi:namedview
     id="namedview7"
     pagecolor="#505050"
     bordercolor="#eeeeee"
     borderopacity="1"
     inkscape:showpageshadow="0"
     inkscape:pageopacity="0"
     inkscape:pagecheckerboard="0"
     inkscape:deskcolor="#505050"
     inkscape:zoom="18.453125"
     inkscape:cx="37.012701"
     inkscape:cy="30.753599"
     inkscape:current-layer="svg7" />
  <path
     style="fill:url(#radialGradient9)"
     d="m 32.00001,4.0000313 c -0.024,0 -0.05,0.004 -0.074,0.004 h -0.0082 c -8.971795,0.056 -17.91779,9.3539957 -17.91779,16.3319917 V 43.40601 c 0,9.481995 6.749996,16.593991 17.99999,16.593991 11.249992,0.002 17.999988,-7.107996 17.999988,-16.589991 V 20.972022 c 0,-7.251996 -8.987995,-16.9059907 -17.999988,-16.9639907 z"
     id="path2" />
  <path
     style="opacity:0.255;fill:#000000;fill-opacity:1"
     d="m 32.00001,4.0000313 c -0.024,0 -0.04902,0.00274 -0.073,0.00274 h -0.0082 C 22.946889,4.0587713 14,13.357194 14,20.335189 V 32.000016 H 50 V 20.972288 C 50,13.720292 41.012003,4.0662345 32.00001,4.0082343 Z"
     id="path3" />
  <path
     style="opacity:0.225;fill:#000000;fill-opacity:1"
     d="m 32.00001,4.0000313 c -0.024,0 -0.04902,0.00274 -0.073,0.00274 h -0.0082 C 22.946889,4.0587713 14,13.357194 14,20.335189 v 11.664827 h 18.00001 c 0,0 0,-27.9999847 0,-27.9917817 z"
     id="path4" />
  <path
     style="fill:#e4e4e4"
     d="m 32,11.000669 c 1.653001,0 3,1.248085 3,2.78587 v 7.429131 c 0,1.536266 -1.346999,2.78435 -3,2.78435 -1.652999,0 -3,-1.248084 -3,-2.786517 v -7.429132 c 0,-1.536268 1.347001,-2.784351 3,-2.784351"
     id="path6" />
  <path
     style="fill:none;stroke:#000000;stroke-opacity:1;stroke-width:0.19999992;stroke-dasharray:none;filter:url(#filter9)"
     d="m 32,11.000669 c 1.653001,0 3,1.248085 3,2.78587 v 7.429131 c 0,1.536266 -1.346999,2.78435 -3,2.78435 -1.652999,0 -3,-1.248084 -3,-2.786517 v -7.429132 c 0,-1.536268 1.347001,-2.784351 3,-2.784351"
     id="path6-3" />
</svg>
