<?xml version="1.0" encoding="UTF-8" standalone="no"?>
<svg
   width="64"
   height="64"
   version="1.1"
   id="svg11"
   sodipodi:docname="media-tape.svg"
   inkscape:version="1.4 (e7c3feb100, 2024-10-09)"
   xmlns:inkscape="http://www.inkscape.org/namespaces/inkscape"
   xmlns:sodipodi="http://sodipodi.sourceforge.net/DTD/sodipodi-0.dtd"
   xmlns:xlink="http://www.w3.org/1999/xlink"
   xmlns="http://www.w3.org/2000/svg"
   xmlns:svg="http://www.w3.org/2000/svg">
  <defs
     id="defs11">
    <inkscape:path-effect
       effect="fillet_chamfer"
       id="path-effect5"
       is_visible="true"
       lpeversion="1"
       nodesatellites_param="F,0,0,1,0,0,0,1 @ F,0,1,1,0,4.0992427,0,1 @ F,0,0,1,0,4.0992427,0,1 @ F,0,0,1,0,0,0,1"
       radius="0"
       unit="px"
       method="auto"
       mode="F"
       chamfer_steps="1"
       flexible="false"
       use_knot_distance="true"
       apply_no_radius="true"
       apply_with_radius="true"
       only_selected="false"
       hide_knots="false" />
    <inkscape:path-effect
       effect="fillet_chamfer"
       id="path-effect13"
       is_visible="true"
       lpeversion="1"
       nodesatellites_param=""
       radius="0"
       unit="px"
       method="auto"
       mode="F"
       chamfer_steps="1"
       flexible="false"
       use_knot_distance="true"
       apply_no_radius="true"
       apply_with_radius="true"
       only_selected="false"
       hide_knots="false" />
    <radialGradient
       inkscape:collect="always"
       xlink:href="#linearGradient6"
       id="radialGradient7"
       cx="-51.568161"
       cy="-12.040905"
       fx="-51.568161"
       fy="-12.040905"
       r="19"
       gradientTransform="matrix(3.5264956,0.94492163,-1.2930507,4.8257309,176.11341,105.29542)"
       gradientUnits="userSpaceOnUse" />
    <linearGradient
       id="linearGradient6"
       inkscape:collect="always">
      <stop
         style="stop-color:#4c4c4c;stop-opacity:1;"
         offset="0"
         id="stop6" />
      <stop
         style="stop-color:#727272;stop-opacity:1;"
         offset="1"
         id="stop7" />
    </linearGradient>
  </defs>
  <sodipodi:namedview
     id="namedview11"
     pagecolor="#505050"
     bordercolor="#eeeeee"
     borderopacity="1"
     inkscape:showpageshadow="0"
     inkscape:pageopacity="0"
     inkscape:pagecheckerboard="0"
     inkscape:deskcolor="#505050"
     inkscape:zoom="18.453125"
     inkscape:cx="15.363251"
     inkscape:cy="31.891617"
     inkscape:current-layer="svg11" />
  <rect
     style="fill:url(#radialGradient7);stroke-width:1.11348"
     width="46.987297"
     height="57.901138"
     x="8.012702"
     y="-60.901138"
     rx="4.654285"
     ry="4.654285"
     transform="rotate(90)"
     id="rect4-6" />
  <path
     style="opacity:0.45;fill:#000000;fill-opacity:1"
     d="M 8.9999998,55 12.46073,48.605171 A 6.8794374,6.8794374 149.2106 0 1 18.511006,45 h 26.977986 a 6.8794384,6.8794384 30.789395 0 1 6.050277,3.605171 L 55,55 Z"
     id="path3"
     inkscape:path-effect="#path-effect5"
     inkscape:original-d="M 8.9999998,55 14.411763,45 H 49.588235 L 55,55 Z"
     transform="matrix(1,0,0,-1,0,62.999901)" />
  <path
     d="M 11.306641,48.999901 C 10.027873,48.999901 9,47.792117 9,46.290917 V 37.999901 23.548729 c 0,-1.4129 1.027873,-2.548828 2.306641,-2.548828 H 52.693359 C 53.972123,20.999901 55,22.135829 55,23.548729 v 14.451172 8.291016 c 0,1.5012 -1.027877,2.708984 -2.306641,2.708984 z m 8.693359,-11 h 24 c 3.313708,0 6,-2.686292 6,-6 0,-3.313708 -2.686292,-6 -6,-6 H 20 c -3.313708,0 -6,2.686292 -6,6 0,3.313708 2.686292,6 6,6 z"
     style="baseline-shift:baseline;display:inline;overflow:visible;opacity:0.45;vector-effect:none;fill:#000000;fill-opacity:1;enable-background:accumulate;stop-color:#000000"
     id="path13" />
  <circle
     style="opacity:0.4"
     cx="19.5"
     cy="-13.49958"
     r="2.5"
     id="circle5"
     transform="scale(1,-1)" />
  <path
     style="baseline-shift:baseline;display:inline;overflow:visible;opacity:0.45;vector-effect:none;fill:#000000;fill-opacity:1;enable-background:accumulate;stop-color:#000000"
     d="m 43.994947,36.000737 a 4,4 0 0 0 4,-4 4,4 0 0 0 -4,-4 4,4 0 0 0 -4,4 4,4 0 0 0 4,4 z"
     id="path4" />
  <path
     style="baseline-shift:baseline;display:inline;overflow:visible;opacity:0.45;vector-effect:none;fill:#000000;fill-opacity:1;enable-background:accumulate;stop-color:#000000"
     d="m 19.994947,36.000737 a 4,4 0 0 0 4,-4 4,4 0 0 0 -4,-4 4,4 0 0 0 -4,4 4,4 0 0 0 4,4 z"
     id="path1" />
  <circle
     style="opacity:0.4"
     cx="44.5"
     cy="-13.49958"
     r="2.5"
     id="circle7"
     transform="scale(1,-1)" />
</svg>
