<?xml version="1.0" encoding="UTF-8" standalone="no"?>
<svg
   width="64"
   height="64"
   version="1"
   id="svg4"
   sodipodi:docname="gnome-dev-disc-cdr.svg"
   inkscape:version="1.3.2 (091e20ef0f, 2023-11-25, custom)"
   xmlns:inkscape="http://www.inkscape.org/namespaces/inkscape"
   xmlns:sodipodi="http://sodipodi.sourceforge.net/DTD/sodipodi-0.dtd"
   xmlns:xlink="http://www.w3.org/1999/xlink"
   xmlns="http://www.w3.org/2000/svg"
   xmlns:svg="http://www.w3.org/2000/svg">
  <defs
     id="defs4">
    <radialGradient
       inkscape:collect="always"
       xlink:href="#linearGradient7"
       id="radialGradient8-3"
       cx="15.716949"
       cy="10.069217"
       fx="15.716949"
       fy="10.069217"
       r="15"
       gradientUnits="userSpaceOnUse"
       gradientTransform="matrix(-1.3335687,3.2054239,-5.2238883,-2.1733207,89.277045,-18.426632)" />
    <linearGradient
       id="linearGradient7"
       inkscape:collect="always">
      <stop
         style="stop-color:#bebebe;stop-opacity:1;"
         offset="0"
         id="stop7" />
      <stop
         style="stop-color:#373737;stop-opacity:1;"
         offset="1"
         id="stop8" />
    </linearGradient>
    <radialGradient
       inkscape:collect="always"
       xlink:href="#linearGradient4"
       id="radialGradient5"
       cx="12.888744"
       cy="20.522711"
       fx="12.888744"
       fy="20.522711"
       r="28"
       gradientUnits="userSpaceOnUse"
       gradientTransform="matrix(0.67676038,2.4785214,-1.9512608,0.53279185,44.211314,-22.356651)" />
    <linearGradient
       id="linearGradient4"
       inkscape:collect="always">
      <stop
         style="stop-color:#ffffff;stop-opacity:1;"
         offset="0"
         id="stop4" />
      <stop
         style="stop-color:#b4bbbe;stop-opacity:1;"
         offset="1"
         id="stop5" />
    </linearGradient>
    <radialGradient
       inkscape:collect="always"
       xlink:href="#linearGradient7"
       id="radialGradient8"
       cx="15.716949"
       cy="10.069217"
       fx="15.716949"
       fy="10.069217"
       r="15"
       gradientUnits="userSpaceOnUse"
       gradientTransform="matrix(-1.3335687,3.2054239,-5.2238883,-2.1733207,89.277045,-18.426632)" />
    <filter
       inkscape:collect="always"
       style="color-interpolation-filters:sRGB"
       id="filter4"
       x="-0.02109939"
       y="-0.02109939"
       width="1.0421988"
       height="1.0421988">
      <feGaussianBlur
         inkscape:collect="always"
         stdDeviation="0.49231912"
         id="feGaussianBlur4" />
    </filter>
  </defs>
  <sodipodi:namedview
     id="namedview4"
     pagecolor="#ffffff"
     bordercolor="#000000"
     borderopacity="0.25"
     inkscape:showpageshadow="2"
     inkscape:pageopacity="0.0"
     inkscape:pagecheckerboard="0"
     inkscape:deskcolor="#d1d1d1"
     inkscape:zoom="13.875"
     inkscape:cx="32"
     inkscape:cy="32"
     inkscape:window-width="1920"
     inkscape:window-height="1017"
     inkscape:window-x="0"
     inkscape:window-y="0"
     inkscape:window-maximized="1"
     inkscape:current-layer="g2" />
  <g
     id="g2">
    <path
       style="mix-blend-mode:normal;fill:#000000;fill-opacity:1;filter:url(#filter4);opacity:0.6186643"
       d="M 32,4 A 28,28 0 0 0 4,32 28,28 0 0 0 32,60 28,28 0 0 0 60,32 28,28 0 0 0 32,4 Z m 0,16 A 12,12 0 0 1 44,32 12,12 0 0 1 32,44 12,12 0 0 1 20,32 12,12 0 0 1 32,20 Z"
       id="path3-6"
       transform="matrix(0.98575172,0,0,0.98575172,0.45594529,1.167376)" />
    <path
       style="fill:url(#radialGradient8)"
       d="M 32,17 A 15,15 0 0 0 17,32 15,15 0 0 0 32,47 15,15 0 0 0 47,32 15,15 0 0 0 32,17 Z m 0,9 a 6,6 0 0 1 6,6 6,6 0 0 1 -6,6 6,6 0 0 1 -6,-6 6,6 0 0 1 6,-6 z"
       id="path2" />
    <path
       style="fill:url(#radialGradient5)"
       d="M 32,4 A 28,28 0 0 0 4,32 28,28 0 0 0 32,60 28,28 0 0 0 60,32 28,28 0 0 0 32,4 Z m 0,16 A 12,12 0 0 1 44,32 12,12 0 0 1 32,44 12,12 0 0 1 20,32 12,12 0 0 1 32,20 Z"
       id="path3" />
    <path
       style="opacity:0.305456;fill:url(#radialGradient8-3)"
       d="M 32,17 A 15,15 0 0 0 17,32 15,15 0 0 0 32,47 15,15 0 0 0 47,32 15,15 0 0 0 32,17 Z m 0,9 a 6,6 0 0 1 6,6 6,6 0 0 1 -6,6 6,6 0 0 1 -6,-6 6,6 0 0 1 6,-6 z"
       id="path2-5" />
  </g>
</svg>
