<?xml version="1.0" encoding="UTF-8" standalone="no"?>
<svg
   width="64"
   height="64"
   version="1"
   id="svg6"
   sodipodi:docname="pda.svg"
   inkscape:version="1.4 (e7c3feb100, 2024-10-09)"
   xmlns:inkscape="http://www.inkscape.org/namespaces/inkscape"
   xmlns:sodipodi="http://sodipodi.sourceforge.net/DTD/sodipodi-0.dtd"
   xmlns:xlink="http://www.w3.org/1999/xlink"
   xmlns="http://www.w3.org/2000/svg"
   xmlns:svg="http://www.w3.org/2000/svg">
  <defs
     id="defs6">
    <inkscape:path-effect
       effect="fillet_chamfer"
       id="path-effect7"
       is_visible="true"
       lpeversion="1"
       nodesatellites_param="F,0,0,1,0,4.2787468,0,1 @ F,0,0,1,0,4.2787468,0,1 @ F,0,0,1,0,9.7394575,0,1 @ F,0,1,1,0,9.7394575,0,1"
       radius="0"
       unit="px"
       method="auto"
       mode="F"
       chamfer_steps="1"
       flexible="false"
       use_knot_distance="true"
       apply_no_radius="true"
       apply_with_radius="true"
       only_selected="false"
       hide_knots="false" />
    <inkscape:path-effect
       effect="fillet_chamfer"
       id="path-effect6"
       is_visible="true"
       lpeversion="1"
       nodesatellites_param="F,0,0,1,0,0,0,1 @ F,0,0,1,0,0,0,1 @ F,0,1,1,0,1.4878916,0,1 @ F,0,1,1,0,1.4878916,0,1"
       radius="0"
       unit="px"
       method="auto"
       mode="F"
       chamfer_steps="1"
       flexible="false"
       use_knot_distance="true"
       apply_no_radius="true"
       apply_with_radius="true"
       only_selected="false"
       hide_knots="false" />
    <radialGradient
       inkscape:collect="always"
       xlink:href="#linearGradient6"
       id="radialGradient7"
       cx="-51.568161"
       cy="-12.040905"
       fx="-51.568161"
       fy="-12.040905"
       r="19"
       gradientTransform="matrix(3.1670841,0.84861762,-1.1612663,4.3339047,97.769843,91.25823)"
       gradientUnits="userSpaceOnUse" />
    <linearGradient
       id="linearGradient6"
       inkscape:collect="always">
      <stop
         style="stop-color:#4c4c4c;stop-opacity:1;"
         offset="0"
         id="stop6" />
      <stop
         style="stop-color:#727272;stop-opacity:1;"
         offset="1"
         id="stop7" />
    </linearGradient>
  </defs>
  <sodipodi:namedview
     id="namedview6"
     pagecolor="#505050"
     bordercolor="#eeeeee"
     borderopacity="1"
     inkscape:showpageshadow="0"
     inkscape:pageopacity="0"
     inkscape:pagecheckerboard="0"
     inkscape:deskcolor="#505050"
     inkscape:zoom="13.04833"
     inkscape:cx="2.0692303"
     inkscape:cy="31.536603"
     inkscape:current-layer="svg6" />
  <g
     id="g6"
     transform="translate(2.4699411,2.4089754)">
    <g
       id="g1"
       transform="translate(-2.4699411,-2.4089754)">
      <g
         id="g2"
         transform="matrix(0,-1,-1,0,62,64)">
        <path
           id="rect4-3"
           style="fill:url(#radialGradient7)"
           transform="matrix(0,-1,-1,0,0,0)"
           d="m -44.721253,-58 h 29.442506 A 4.2787468,4.2787468 45 0 1 -11,-53.721253 v 37.981796 A 9.7394575,9.7394575 135 0 1 -20.739457,-6 H -39.260542 A 9.7394575,9.7394575 45 0 1 -49,-15.739458 V -53.721253 A 4.2787468,4.2787468 135 0 1 -44.721253,-58 Z"
           inkscape:path-effect="#path-effect7"
           inkscape:original-d="m -49,-58 h 38 v 52 h -38 z" />
        <rect
           style="opacity:0.482682;fill:#000000;fill-opacity:1"
           width="32"
           height="41.122776"
           x="-46"
           y="-55"
           rx="1.3547841"
           ry="1.3547841"
           transform="matrix(0,-1,-1,0,0,0)"
           id="rect5-6" />
      </g>
    </g>
    <path
       id="circle4"
       style="opacity:0.415531;fill:#000000;fill-opacity:1;stroke-width:0.674852"
       d="m 21.166699,48.404297 a 2.0245554,2.0245554 0 0 0 -2.023438,2.023437 2.0245554,2.0245554 0 0 0 2.023438,2.025391 2.0245554,2.0245554 0 0 0 2.02539,-2.025391 2.0245554,2.0245554 0 0 0 -2.02539,-2.023437 z m 16.873047,0 a 2.0245554,2.0245554 0 0 0 -2.025391,2.023437 2.0245554,2.0245554 0 0 0 2.025391,2.025391 2.0245554,2.0245554 0 0 0 2.023437,-2.025391 2.0245554,2.0245554 0 0 0 -2.023437,-2.023437 z m -8.09961,0.673828 a 2.6994073,2.6994073 0 0 0 -2.699218,2.699219 2.6994073,2.6994073 0 0 0 2.699218,2.701172 2.6994073,2.6994073 0 0 0 2.699219,-2.701172 2.6994073,2.6994073 0 0 0 -2.699219,-2.699219 z" />
    <path
       id="rect5"
       style="opacity:0.20586;stroke-width:0.739204"
       d="m 41.275192,3.5986452 h 2.956816 V 5.0675698 A 1.4878916,1.4878916 135 0 1 42.744116,6.5554614 1.4784384,1.4784384 45.367532 0 1 41.275192,5.0675698 Z"
       inkscape:path-effect="#path-effect6"
       inkscape:original-d="m 41.275192,3.5986452 h 2.956816 v 2.9568162 h -2.956816 z" />
  </g>
</svg>
