<?xml version="1.0" encoding="UTF-8" standalone="no"?>
<svg
   width="64"
   height="64"
   version="1"
   id="svg5"
   sodipodi:docname="wiimotedev.svg"
   inkscape:version="1.4 (e7c3feb100, 2024-10-09)"
   xmlns:inkscape="http://www.inkscape.org/namespaces/inkscape"
   xmlns:sodipodi="http://sodipodi.sourceforge.net/DTD/sodipodi-0.dtd"
   xmlns:xlink="http://www.w3.org/1999/xlink"
   xmlns="http://www.w3.org/2000/svg"
   xmlns:svg="http://www.w3.org/2000/svg">
  <defs
     id="defs5">
    <linearGradient
       id="linearGradient5"
       inkscape:collect="always">
      <stop
         style="stop-color:#474747;stop-opacity:1;"
         offset="0"
         id="stop5" />
      <stop
         style="stop-color:#383838;stop-opacity:1;"
         offset="1"
         id="stop6" />
    </linearGradient>
    <radialGradient
       inkscape:collect="always"
       xlink:href="#linearGradient5"
       id="radialGradient6"
       cx="50.699711"
       cy="-17.4286"
       fx="50.699711"
       fy="-17.4286"
       r="28"
       gradientTransform="matrix(0,-2.169248,2.2361921,0,89.673408,93.001326)"
       gradientUnits="userSpaceOnUse" />
    <filter
       inkscape:collect="always"
       style="color-interpolation-filters:sRGB"
       id="filter6"
       x="-0.15545453"
       y="-0.15545453"
       width="1.3109091"
       height="1.3109091">
      <feGaussianBlur
         inkscape:collect="always"
         stdDeviation="0.62732467"
         id="feGaussianBlur6" />
    </filter>
    <filter
       inkscape:collect="always"
       style="color-interpolation-filters:sRGB"
       id="filter1"
       x="-0.070312747"
       y="-0.21120909"
       width="1.1406255"
       height="1.4224182">
      <feGaussianBlur
         inkscape:collect="always"
         stdDeviation="1.5989641"
         id="feGaussianBlur1" />
    </filter>
    <filter
       inkscape:collect="always"
       style="color-interpolation-filters:sRGB"
       id="filter2"
       x="-0.10647071"
       y="-0.073765904"
       width="1.2129414"
       height="1.1475318">
      <feGaussianBlur
         inkscape:collect="always"
         stdDeviation="0.57941247"
         id="feGaussianBlur2" />
    </filter>
  </defs>
  <sodipodi:namedview
     id="namedview5"
     pagecolor="#505050"
     bordercolor="#eeeeee"
     borderopacity="1"
     inkscape:showpageshadow="0"
     inkscape:pageopacity="0"
     inkscape:pagecheckerboard="0"
     inkscape:deskcolor="#505050"
     inkscape:zoom="13.04833"
     inkscape:cx="15.634185"
     inkscape:cy="33.146005"
     inkscape:current-layer="svg5" />
  <rect
     style="fill:url(#radialGradient6)"
     width="56"
     height="18.642729"
     x="4"
     y="-41.321365"
     rx="9.3213644"
     ry="9.3213644"
     transform="rotate(90)"
     id="rect1" />
  <rect
     style="fill:none;stroke:#000000;stroke-opacity:1;stroke-width:0.2;stroke-dasharray:none;filter:url(#filter1)"
     width="56"
     height="18.642729"
     x="4"
     y="-41.321365"
     rx="9.3213644"
     ry="9.3213644"
     transform="rotate(90)"
     id="rect1-5" />
  <path
     id="circle2"
     style="fill:#ffffff;fill-opacity:1;opacity:0.33984935"
     d="M 22.982422 -28 A 3 3 0 0 0 25.982422 -25 A 3 3 0 0 0 28.982422 -28 A 3 3 0 0 0 25.982422 -31 A 3 3 0 0 0 22.982422 -28 z M 22.982422 -36 A 3 3 0 0 0 25.982422 -33 A 3 3 0 0 0 28.982422 -36 A 3 3 0 0 0 25.982422 -39 A 3 3 0 0 0 22.982422 -36 z M 30.085938 -28 C 30.085938 -26.338 31.356569 -25 32.935547 -25 L 40.339844 -25 C 41.918822 -25 43.189453 -26.338 43.189453 -28 C 43.189453 -29.662 41.918822 -31 40.339844 -31 L 32.935547 -31 C 31.356569 -31 30.085938 -29.662 30.085938 -28 z M 30.085938 -36 A 3 3 0 0 0 33.085938 -33 A 3 3 0 0 0 36.085938 -36 A 3 3 0 0 0 33.085938 -39 A 3 3 0 0 0 30.085938 -36 z M 37.189453 -36 A 3 3 0 0 0 40.189453 -33 A 3 3 0 0 0 43.189453 -36 A 3 3 0 0 0 40.189453 -39 A 3 3 0 0 0 37.189453 -36 z "
     transform="rotate(90)" />
  <path
     id="circle2-3"
     style="opacity:0.339849;fill:none;fill-opacity:1;stroke:#000000;stroke-opacity:1;stroke-width:0.2;stroke-dasharray:none;filter:url(#filter2)"
     d="m 28,22.982422 a 3,3 0 0 0 -3,3 3,3 0 0 0 3,3 3,3 0 0 0 3,-3 3,3 0 0 0 -3,-3 z m 8,0 a 3,3 0 0 0 -3,3 3,3 0 0 0 3,3 3,3 0 0 0 3,-3 3,3 0 0 0 -3,-3 z m -8,7.103516 c -1.662,0 -3,1.270631 -3,2.849609 v 7.404297 c 0,1.578978 1.338,2.849609 3,2.849609 1.662,0 3,-1.270631 3,-2.849609 v -7.404297 c 0,-1.578978 -1.338,-2.849609 -3,-2.849609 z m 8,0 a 3,3 0 0 0 -3,3 3,3 0 0 0 3,3 3,3 0 0 0 3,-3 3,3 0 0 0 -3,-3 z m 0,7.103515 a 3,3 0 0 0 -3,3 3,3 0 0 0 3,3 3,3 0 0 0 3,-3 3,3 0 0 0 -3,-3 z" />
  <circle
     style="fill:#ffffff;stroke-width:2.33333;fill-opacity:1;opacity:0.33984935"
     cx="13.558668"
     cy="-32"
     transform="rotate(90)"
     id="circle5-7-5"
     r="7" />
  <circle
     style="opacity:0.339849;fill:#ffffff;fill-opacity:1;stroke-width:1.61417;filter:url(#filter6)"
     cx="13.558668"
     cy="-32"
     r="4.8425064"
     transform="rotate(90)"
     id="circle5-7-3" />
  <circle
     style="fill:#ffffff;fill-opacity:1;stroke-width:1.61417;opacity:0.33984935"
     cx="13.558668"
     cy="-32"
     r="4.8425064"
     transform="rotate(90)"
     id="circle5-7" />
</svg>
