<?xml version="1.0" encoding="UTF-8" standalone="no"?>
<svg
   width="64"
   height="64"
   version="1.1"
   id="svg6"
   sodipodi:docname="application-sql.svg"
   inkscape:version="1.3.2 (091e20ef0f, 2023-11-25, custom)"
   xmlns:inkscape="http://www.inkscape.org/namespaces/inkscape"
   xmlns:sodipodi="http://sodipodi.sourceforge.net/DTD/sodipodi-0.dtd"
   xmlns:xlink="http://www.w3.org/1999/xlink"
   xmlns="http://www.w3.org/2000/svg"
   xmlns:svg="http://www.w3.org/2000/svg">
  <defs
     id="defs6">
    <inkscape:path-effect
       effect="fillet_chamfer"
       id="path-effect1"
       is_visible="true"
       lpeversion="1"
       nodesatellites_param="F,0,1,1,0,1.4262277,0,1 @ F,0,1,1,0,1.4262277,0,1 @ F,0,1,1,0,1.4262277,0,1 @ F,0,1,1,0,1.4262277,0,1 | F,0,1,1,0,1.4262277,0,1 @ F,0,0,1,0,1.4262277,0,1 @ F,0,1,1,0,1.4262277,0,1 @ F,0,1,1,0,1.4262277,0,1 | F,0,1,1,0,1.4262277,0,1 @ F,0,1,1,0,1.4262277,0,1 @ F,0,1,1,0,1.4262277,0,1 @ F,0,1,1,0,1.4262277,0,1 | F,0,1,1,0,1.4262277,0,1 @ F,0,1,1,0,1.4262277,0,1 @ F,0,1,1,0,1.4262277,0,1 @ F,0,1,1,0,1.4262277,0,1"
       radius="0"
       unit="px"
       method="auto"
       mode="F"
       chamfer_steps="1"
       flexible="false"
       use_knot_distance="true"
       apply_no_radius="true"
       apply_with_radius="true"
       only_selected="false"
       hide_knots="false" />
    <radialGradient
       inkscape:collect="always"
       xlink:href="#linearGradient2"
       id="radialGradient9"
       cx="20.238163"
       cy="45.446491"
       fx="20.238163"
       fy="45.446491"
       r="22"
       gradientTransform="matrix(2.2768343,-1.3145309,1.6730393,2.8977891,-103.5617,-78.365997)"
       gradientUnits="userSpaceOnUse" />
    <linearGradient
       id="linearGradient2"
       inkscape:collect="always">
      <stop
         style="stop-color:#00b1ff;stop-opacity:1;"
         offset="0"
         id="stop1" />
      <stop
         style="stop-color:#136dff;stop-opacity:1;"
         offset="1"
         id="stop2" />
    </linearGradient>
  </defs>
  <sodipodi:namedview
     id="namedview6"
     pagecolor="#ffffff"
     bordercolor="#000000"
     borderopacity="0.25"
     inkscape:showpageshadow="2"
     inkscape:pageopacity="0.0"
     inkscape:pagecheckerboard="0"
     inkscape:deskcolor="#d1d1d1"
     inkscape:zoom="13.890625"
     inkscape:cx="32"
     inkscape:cy="32.035996"
     inkscape:window-width="1920"
     inkscape:window-height="1014"
     inkscape:window-x="0"
     inkscape:window-y="0"
     inkscape:window-maximized="1"
     inkscape:current-layer="svg6" />
  <g
     id="g2"
     transform="translate(0.0397662,0.06140005)">
    <path
       style="fill:url(#radialGradient9)"
       d="m 12.710234,3.9385999 c -1.5235,0 -2.7500004,1.2487999 -2.7500004,2.7999999 V 57.1386 c 0,1.55008 1.2265004,2.8 2.7500004,2.8 h 38.5 c 1.5224,0 2.75,-1.24992 2.75,-2.8 v -35.2 l -18,-18.0000001 z"
       id="path2-6"
       sodipodi:nodetypes="ssssssccs" />
    <path
       style="opacity:0.533302;fill:#ffffff;fill-opacity:1"
       d="m 53.960234,21.9386 -18,-18.0000001 V 19.1261 c 0,1.55925 1.2555,2.8125 2.8125,2.8125 z"
       id="path4-5" />
  </g>
  <path
     style="fill:#ffffff"
     d="m 31.838263,29.026769 c -4.194948,0 -7.77697,1.552562 -9.261718,3.75 -0.12464,0.18448 -0.234066,0.373336 -0.328126,0.566406 -0.08938,0.18348 -0.16638,0.368282 -0.226562,0.558594 a 10.000219,6.0002448 0 0 0 -0.04298,0.17578 c -0.03426,0.129 -0.07342,0.259054 -0.09374,0.390624 a 10.000219,6.0002448 0 0 0 -0.04687,0.558596 c 5.5e-4,0.195 0.0188,0.388688 0.05078,0.582032 a 10.000219,6.0002448 0 0 0 0.13672,0.5625 10.000219,6.0002448 0 0 0 0.230468,0.5625 10.000219,6.0002448 0 0 0 0.320314,0.542968 10.000219,6.0002448 0 0 0 9.261718,3.75 10.000219,6.0002448 0 0 0 9.265624,-3.75 10.000219,6.0002448 0 0 0 0,-0.0078 10.000219,6.0002448 0 0 0 0.273438,-0.460938 c 0.016,-0.03042 0.03182,-0.0593 0.04688,-0.08984 a 10.000219,6.0002448 0 0 0 0.16796,-0.398438 c 0.0233,-0.06276 0.0504,-0.1243 0.07032,-0.1875 a 10.000219,6.0002448 0 0 0 0.08204,-0.335936 c 0.0192,-0.088 0.03802,-0.17322 0.05078,-0.26172 a 10.000219,6.0002448 0 0 0 0.04296,-0.507828 10.000219,6.0002448 0 0 0 -0.05469,-0.597656 c -0.0957,-0.580524 -0.332158,-1.133324 -0.683594,-1.652344 -1.484318,-2.197592 -5.06734,-3.75 -9.261718,-3.75 z m -9.40625,10.003906 c -0.06178,0.10402 -0.13152,0.2056 -0.1836,0.3125 -0.08938,0.18348 -0.16638,0.368282 -0.226562,0.558594 a 10.000219,6.0002448 0 0 0 -0.04298,0.17578 c -0.03426,0.129 -0.07344,0.259054 -0.09374,0.390624 a 10.000219,6.0002448 0 0 0 -0.04687,0.558596 c 5.5e-4,0.195 0.0188,0.388688 0.05078,0.582032 a 10.000219,6.0002448 0 0 0 0.13672,0.5625 10.000219,6.0002448 0 0 0 0.230468,0.5625 10.000219,6.0002448 0 0 0 0.320314,0.542968 10.000219,6.0002448 0 0 0 9.261718,3.75 10.000219,6.0002448 0 0 0 9.265624,-3.75 10.000219,6.0002448 0 0 0 0,-0.0078 10.000219,6.0002448 0 0 0 0.273438,-0.460938 c 0.016,-0.03042 0.03182,-0.0593 0.04688,-0.08984 a 10.000219,6.0002448 0 0 0 0.16796,-0.398438 c 0.0233,-0.06276 0.0504,-0.1243 0.07032,-0.1875 a 10.000219,6.0002448 0 0 0 0.08204,-0.335936 c 0.0192,-0.088 0.03802,-0.17322 0.05078,-0.26172 a 10.000219,6.0002448 0 0 0 0.04296,-0.507828 10.000219,6.0002448 0 0 0 -0.05469,-0.597656 c -0.08018,-0.486372 -0.280182,-0.946572 -0.542966,-1.390626 a 10.000219,6.0002448 0 0 1 -0.13672,0.23047 10.000219,6.0002448 0 0 1 0,0.0078 10.000219,6.0002448 0 0 1 -9.265624,3.750012 10.000219,6.0002448 0 0 1 -9.261718,-3.75 10.000219,6.0002448 0 0 1 -0.144532,-0.246094 z m 0,6 c -0.06178,0.10402 -0.13152,0.2056 -0.1836,0.3125 -0.08938,0.18348 -0.16638,0.368282 -0.226562,0.558594 a 10.000219,6.0002448 0 0 0 -0.04298,0.17578 c -0.03426,0.129 -0.07342,0.259054 -0.09374,0.390624 a 10.000219,6.0002448 0 0 0 -0.04687,0.558596 c 5.5e-4,0.195 0.0188,0.388688 0.05078,0.582032 a 10.000219,6.0002448 0 0 0 0.13672,0.5625 10.000219,6.0002448 0 0 0 0.230468,0.5625 10.000219,6.0002448 0 0 0 0.320314,0.542968 10.000219,6.0002448 0 0 0 9.261718,3.75 10.000219,6.0002448 0 0 0 9.265624,-3.75 10.000219,6.0002448 0 0 0 0,-0.0078 10.000219,6.0002448 0 0 0 0.273438,-0.460938 c 0.016,-0.03042 0.03182,-0.0593 0.04688,-0.08984 a 10.000219,6.0002448 0 0 0 0.16796,-0.398438 c 0.0233,-0.06276 0.0504,-0.1243 0.07032,-0.1875 a 10.000219,6.0002448 0 0 0 0.08204,-0.335936 c 0.0192,-0.088 0.03802,-0.17322 0.05078,-0.26172 a 10.000219,6.0002448 0 0 0 0.04296,-0.507828 10.000219,6.0002448 0 0 0 -0.05469,-0.597656 c -0.08018,-0.486372 -0.280182,-0.946572 -0.542966,-1.390626 a 10.000219,6.0002448 0 0 1 -0.13672,0.23047 10.000219,6.0002448 0 0 1 0,0.0078 10.000219,6.0002448 0 0 1 -9.265624,3.750012 10.000219,6.0002448 0 0 1 -9.261718,-3.75 10.000219,6.0002448 0 0 1 -0.144532,-0.246094 z"
     id="path6-5" />
</svg>
