<?xml version="1.0" encoding="UTF-8" standalone="no"?>
<svg
   width="64"
   height="64"
   version="1.1"
   id="svg7"
   sodipodi:docname="application-json.svg"
   inkscape:version="1.3.2 (091e20ef0f, 2023-11-25, custom)"
   xmlns:inkscape="http://www.inkscape.org/namespaces/inkscape"
   xmlns:sodipodi="http://sodipodi.sourceforge.net/DTD/sodipodi-0.dtd"
   xmlns:xlink="http://www.w3.org/1999/xlink"
   xmlns="http://www.w3.org/2000/svg"
   xmlns:svg="http://www.w3.org/2000/svg">
  <defs
     id="defs7">
    <radialGradient
       inkscape:collect="always"
       xlink:href="#linearGradient2"
       id="radialGradient9"
       cx="12.124838"
       cy="52.623104"
       fx="12.124838"
       fy="52.623104"
       r="22"
       gradientTransform="matrix(2.2768343,-1.3145309,1.6730393,2.8977891,-103.12593,-78.908599)"
       gradientUnits="userSpaceOnUse" />
    <linearGradient
       id="linearGradient2"
       inkscape:collect="always">
      <stop
         style="stop-color:#6426ff;stop-opacity:1;"
         offset="0"
         id="stop1" />
      <stop
         style="stop-color:#9048f1;stop-opacity:1;"
         offset="1"
         id="stop2" />
    </linearGradient>
  </defs>
  <sodipodi:namedview
     id="namedview7"
     pagecolor="#ffffff"
     bordercolor="#000000"
     borderopacity="0.25"
     inkscape:showpageshadow="2"
     inkscape:pageopacity="0.0"
     inkscape:pagecheckerboard="0"
     inkscape:deskcolor="#d1d1d1"
     inkscape:zoom="9.8221551"
     inkscape:cx="34.259284"
     inkscape:cy="32.273976"
     inkscape:window-width="1920"
     inkscape:window-height="1014"
     inkscape:window-x="0"
     inkscape:window-y="0"
     inkscape:window-maximized="1"
     inkscape:current-layer="svg7" />
  <path
     style="fill:url(#radialGradient9)"
     d="m 13.145998,3.3959984 c -1.5235,0 -2.75,1.2488 -2.75,2.8 V 56.595998 c 0,1.55008 1.2265,2.8 2.75,2.8 h 38.5 c 1.5224,0 2.75,-1.24992 2.75,-2.8 v -35.2 l -18,-17.9999996 z"
     id="path2"
     sodipodi:nodetypes="ssssssccs" />
  <path
     style="fill:#fefefe;fill-opacity:1;opacity:0.3511091"
     d="m 54.395998,21.395998 -18,-17.9999996 V 18.583498 c 0,1.55925 1.2555,2.8125 2.8125,2.8125 z"
     id="path4" />
  <path
     style="fill:none;stroke:#ffffff;stroke-width:3;stroke-linecap:round"
     d="m 37.520548,29.494022 c 9.625,2.75 -1.644648,6.875 7.980352,11 m -7.980352,11 c 9.625,-2.75 -1.644648,-6.875 7.980352,-11 m -19.0009,-11 c -9.625,2.75 1.644648,6.875 -7.980352,11 m 7.980352,11 c -9.625,-2.75 1.644648,-6.875 -7.980352,-11"
     id="path7" />
</svg>
