<?xml version="1.0" encoding="UTF-8" standalone="no"?>
<svg
   width="64"
   height="64"
   version="1"
   id="svg9"
   sodipodi:docname="application-gvdesign.svg"
   inkscape:version="1.3.2 (091e20ef0f, 2023-11-25, custom)"
   xmlns:inkscape="http://www.inkscape.org/namespaces/inkscape"
   xmlns:sodipodi="http://sodipodi.sourceforge.net/DTD/sodipodi-0.dtd"
   xmlns:xlink="http://www.w3.org/1999/xlink"
   xmlns="http://www.w3.org/2000/svg"
   xmlns:svg="http://www.w3.org/2000/svg">
  <defs
     id="defs9">
    <linearGradient
       id="linearGradient12"
       inkscape:collect="always">
      <stop
         style="stop-color:#eddf36;stop-opacity:1;"
         offset="0"
         id="stop13" />
      <stop
         style="stop-color:#ed9d36;stop-opacity:1;"
         offset="1"
         id="stop14" />
    </linearGradient>
    <linearGradient
       id="linearGradient11"
       inkscape:collect="always">
      <stop
         style="stop-color:#c63166;stop-opacity:1;"
         offset="0"
         id="stop11" />
      <stop
         style="stop-color:#c64331;stop-opacity:1;"
         offset="1"
         id="stop12" />
    </linearGradient>
    <radialGradient
       inkscape:collect="always"
       xlink:href="#linearGradient11"
       id="radialGradient12"
       cx="14.941476"
       cy="44.364937"
       fx="14.941476"
       fy="44.364937"
       r="15.634918"
       gradientTransform="matrix(2.2233418,-2.2233418,3.9817011,3.9817011,-194.92645,-89.284001)"
       gradientUnits="userSpaceOnUse" />
    <radialGradient
       inkscape:collect="always"
       xlink:href="#linearGradient12"
       id="radialGradient14"
       cx="31.828558"
       cy="48.417225"
       fx="31.828558"
       fy="48.417225"
       r="12.249756"
       gradientTransform="matrix(2.3894579,-2.3894579,3.9608187,3.9608187,-235.99629,-61.565386)"
       gradientUnits="userSpaceOnUse" />
  </defs>
  <sodipodi:namedview
     id="namedview9"
     pagecolor="#ffffff"
     bordercolor="#000000"
     borderopacity="0.25"
     inkscape:showpageshadow="2"
     inkscape:pageopacity="0.0"
     inkscape:pagecheckerboard="0"
     inkscape:deskcolor="#d1d1d1"
     inkscape:zoom="13.890625"
     inkscape:cx="32"
     inkscape:cy="32.035996"
     inkscape:window-width="1920"
     inkscape:window-height="1014"
     inkscape:window-x="0"
     inkscape:window-y="0"
     inkscape:window-maximized="1"
     inkscape:current-layer="svg9" />
  <path
     style="fill:url(#radialGradient12)"
     d="M 28.163147,4 C 25.857512,6.1522078 16.074977,16.029937 10,22.224609 v 1.211328 c 0.972518,-0.875122 2.389112,-2.134065 2.881164,-2.542969 0.289453,-0.240541 1.414189,-1.225338 2.49939,-2.1875 1.085202,-0.962159 2.488035,-2.19252 3.117371,-2.734375 0.629336,-0.541853 1.934536,-1.723603 2.900391,-2.625 1.862917,-1.738592 7.617029,-6.8189627 8.256224,-7.289843 0.208814,-0.153827 0.402949,-0.2578499 0.431214,-0.2296875 0.06248,0.062236 -0.300075,0.6677608 -1.579285,2.6332032 -0.536762,0.8247093 -2.6325,4.0589133 -4.658203,7.1859373 -2.025706,3.127023 -4.539673,7.006428 -5.586547,8.621484 -1.046873,1.615057 -3.360529,5.186126 -5.141602,7.935156 C 12.043979,33.86333 11.07365,35.358964 10,37.014843 V 57.2 c 0,1.5512 1.254375,2.8 2.8125,2.8 H 31.357422 C 34.007067,49.974565 36.747537,33.783015 41.269836,19.558593 L 39.53125,19.4 38,4 Z"
     id="path2" />
  <path
     style="fill:#b8da6c"
     d="M 12.8125,4 C 11.254375,4 10,5.2488 10,6.8 V 22.221875 C 16.072899,16.030035 25.858962,6.1501812 28.163147,4 Z m 17.273254,1.8265625 c -0.02827,-0.028162 -0.2224,0.07586 -0.431214,0.2296875 -0.639197,0.4708803 -6.393307,5.551252 -8.256224,7.289843 -0.965855,0.901397 -2.271055,2.083147 -2.900391,2.625 -0.629336,0.541855 -2.032169,1.772216 -3.117371,2.734375 -1.085201,0.962162 -2.209937,1.946959 -2.49939,2.1875 C 12.389112,21.301872 10.972518,22.560815 10,23.435937 v 13.578906 c 1.07365,-1.655879 2.043979,-3.151513 3.120117,-4.8125 1.781073,-2.74903 4.094729,-6.320098 5.141602,-7.935156 1.046874,-1.615056 3.560841,-5.494461 5.586547,-8.621484 2.025703,-3.127024 4.121441,-6.361228 4.658203,-7.1859373 1.27921,-1.9654424 1.641765,-2.5709676 1.579285,-2.6332032 z"
     id="path3" />
  <path
     style="fill:#778b3c"
     d="M 55,40.419141 35.65857,60 H 52.1875 C 53.745625,60 55,58.7512 55,57.2 Z"
     id="path4" />
  <path
     style="fill:url(#radialGradient14)"
     d="m 39.53125,19.389063 c -4.887172,12.79643 -8.192388,26.127003 -8.797302,36.848437 -0.07367,1.30579 -0.1728,2.909995 -0.219726,3.562891 L 30.500488,60 H 35.65857 L 55,40.419141 V 21 L 39.53125,19.4 Z"
     id="path5" />
  <path
     style="fill:#faf5bc"
     d="M 38,4 V 18.166667 C 38,19.731517 39.268525,21 40.833333,21 H 55 Z"
     id="path7" />
</svg>
