<?xml version="1.0" encoding="UTF-8" standalone="no"?>
<svg
   width="64"
   height="64"
   version="1"
   id="svg4"
   sodipodi:docname="application-x-source-rpm.svg"
   inkscape:version="1.4 (e7c3feb100, 2024-10-09)"
   xmlns:inkscape="http://www.inkscape.org/namespaces/inkscape"
   xmlns:sodipodi="http://sodipodi.sourceforge.net/DTD/sodipodi-0.dtd"
   xmlns:xlink="http://www.w3.org/1999/xlink"
   xmlns="http://www.w3.org/2000/svg"
   xmlns:svg="http://www.w3.org/2000/svg">
  <defs
     id="defs4">
    <inkscape:path-effect
       effect="fillet_chamfer"
       id="path-effect4"
       is_visible="true"
       lpeversion="1"
       nodesatellites_param="F,0,0,1,0,3.1955798,0,1 @ F,0,0,1,0,1.1193658,0,1 @ F,0,0,1,0,1.1193658,0,1 @ F,0,0,1,0,0.58026455,0,1 @ F,0,0,1,0,0,0,1 @ F,0,0,1,0,0,0,1 @ F,0,1,1,0,0.30347937,0,1 @ F,0,0,1,0,0.30347937,0,1 @ F,0,0,1,0,0,0,1 @ F,0,0,1,0,0,0,1 @ F,0,0,1,0,0,0,1 | F,0,0,1,0,2.2626951,0,1 @ F,0,0,1,0,1.1193658,0,1 @ F,0,0,1,0,1.1193658,0,1 @ F,0,0,1,0,0,0,1 @ F,0,0,1,0,0,0,1 @ F,0,0,1,0,0,0,1 @ F,0,0,1,0,0,0,1 @ F,0,0,1,0,0,0,1 @ F,0,0,1,0,0,0,1 @ F,0,0,1,0,0,0,1 @ F,0,0,1,0,0,0,1 @ F,0,0,1,0,0,0,1 | F,0,0,1,0,2.2626951,0,1 @ F,0,0,1,0,1.1193658,0,1 @ F,0,0,1,0,1.1193658,0,1 @ F,0,0,1,0,0,0,1 @ F,0,0,1,0,0,0,1 @ F,0,0,1,0,0,0,1 @ F,0,0,1,0,0,0,1 @ F,0,0,1,0,0,0,1 @ F,0,0,1,0,0,0,1 @ F,0,0,1,0,1.1193658,0,1 @ F,0,0,1,0,1.1193658,0,1 @ F,0,0,1,0,0,0,1 @ F,0,0,1,0,0,0,1 @ F,0,0,1,0,0,0,1 @ F,0,0,1,0,0,0,1 @ F,0,0,1,0,0,0,1 @ F,0,0,1,0,0,0,1 @ F,0,0,1,0,1.1193658,0,1 @ F,0,0,1,0,1.1193658,0,1 @ F,0,0,1,0,0,0,1 @ F,0,0,1,0,0,0,1 @ F,0,0,1,0,0,0,1 | F,0,0,1,0,0,0,1 @ F,0,0,1,0,0,0,1 @ F,0,0,1,0,0,0,1 @ F,0,0,1,0,0,0,1 @ F,0,0,1,0,0,0,1 @ F,0,0,1,0,0,0,1 @ F,0,0,1,0,0,0,1 @ F,0,0,1,0,0,0,1 @ F,0,0,1,0,0,0,1 @ F,0,0,1,0,0,0,1"
       radius="0"
       unit="px"
       method="auto"
       mode="F"
       chamfer_steps="1"
       flexible="false"
       use_knot_distance="true"
       apply_no_radius="true"
       apply_with_radius="true"
       only_selected="false"
       hide_knots="false" />
    <radialGradient
       inkscape:collect="always"
       xlink:href="#linearGradient4"
       id="radialGradient15"
       cx="17.386076"
       cy="47.039314"
       fx="17.386076"
       fy="47.039314"
       r="22"
       gradientTransform="matrix(2.0221847,-2.0221847,2.5736897,2.5736897,-138.00161,-36.688012)"
       gradientUnits="userSpaceOnUse" />
    <linearGradient
       id="linearGradient4"
       inkscape:collect="always">
      <stop
         style="stop-color:#ff4f54;stop-opacity:1;"
         offset="0"
         id="stop3" />
      <stop
         style="stop-color:#fa7e6a;stop-opacity:1;"
         offset="1"
         id="stop4" />
    </linearGradient>
  </defs>
  <sodipodi:namedview
     id="namedview4"
     pagecolor="#ffffff"
     bordercolor="#000000"
     borderopacity="0.25"
     inkscape:showpageshadow="2"
     inkscape:pageopacity="0.0"
     inkscape:pagecheckerboard="0"
     inkscape:deskcolor="#d1d1d1"
     inkscape:zoom="17.8125"
     inkscape:cx="23.522807"
     inkscape:cy="44.014035"
     inkscape:current-layer="svg4" />
  <g
     id="g1">
    <g
       id="g2">
      <path
         style="fill:url(#radialGradient15)"
         d="M 12.75,4 C 11.2265,4 10,5.2488 10,6.8 v 50.4 c 0,1.55008 1.2265,2.8 2.75,2.8 h 38.5 C 52.7724,60 54,58.75008 54,57.2 V 22 L 36,4 Z"
         id="path2"
         sodipodi:nodetypes="ssssssccs" />
      <path
         style="opacity:0.457139;fill:#ffffff;fill-opacity:1"
         d="M 54,22 36,4 V 19.1875 C 36,20.74675 37.2555,22 38.8125,22 Z"
         id="path4" />
    </g>
  </g>
  <path
     style="fill:#ffffff;fill-opacity:1;stroke-width:0.751378"
     d="m 12.83985,46.114878 0,6.204352 a 1.1193658,1.1193658 45 0 0 1.119366,1.119366 l 0.0154,0 a 1.1193658,1.1193658 135 0 0 1.119366,-1.119366 v -6.565532 a 0.58026455,0.58026455 135 0 1 0.580265,-0.580265 h 4.428436 c 0.27133,0 0.506136,0.111535 0.704417,0.334598 0.0406,0.04567 0.07647,0.09327 0.108034,0.142644 0.09004,0.140827 0.264111,0.274137 0.431718,0.274137 h 1.708814 a 0.30347937,0.30347937 135 0 0 0.303479,-0.303479 v -0.597589 c 0,-0.569795 -0.208782,-1.062888 -0.62517,-1.479276 -0.405432,-0.416388 -0.898524,-0.62517 -1.479277,-0.62517 H 16.03543 a 3.1955798,3.1955798 135 0 0 -3.19558,3.19558 z m 12.022055,-0.932885 v 7.137237 a 1.1193658,1.1193658 45 0 0 1.119366,1.119366 h 0.0154 A 1.1193658,1.1193658 135 0 0 27.11604,52.31923 v -1.585302 c 0,-0.284898 0.0992,-0.531444 0.296442,-0.739639 0.208195,-0.208195 0.459926,-0.312585 0.755782,-0.312585 h 5.108493 c 0.580752,0 1.073844,-0.202128 1.479276,-0.60756 0.416388,-0.416389 0.62517,-0.916134 0.62517,-1.496887 v -2.553513 c 0,-0.580752 -0.208782,-1.073844 -0.62517,-1.479276 -0.416389,-0.416388 -0.909481,-0.62517 -1.479276,-0.62517 l -6.152157,0 a 2.2626951,2.2626951 135 0 0 -2.262695,2.262695 z m 12.022055,0 v 7.137237 a 1.1193658,1.1193658 45 0 0 1.119366,1.119366 h 0.0154 a 1.1193658,1.1193658 135 0 0 1.119366,-1.119366 v -6.093573 c 0,-0.284897 0.105452,-0.531443 0.306715,-0.739638 0.212443,-0.208195 0.468564,-0.312586 0.770457,-0.312586 h 1.609887 c 0.290711,0 0.54187,0.104393 0.754313,0.312586 0.212444,0.208195 0.315393,0.454741 0.31552,0.739638 v 6.093573 a 1.1193658,1.1193658 45 0 0 1.119366,1.119366 h 0.0154 a 1.1193658,1.1193658 135 0 0 1.119366,-1.119366 v -6.093573 c 0,-0.284897 0.121596,-0.531443 0.322858,-0.739638 0.212443,-0.208195 0.47003,-0.312586 0.771923,-0.312586 h 1.592277 c 0.290712,0 0.54187,0.104393 0.754314,0.312586 0.212444,0.208195 0.315393,0.454741 0.31552,0.739638 v 6.093573 a 1.1193658,1.1193658 45 0 0 1.119366,1.119366 h 0.0154 A 1.1193658,1.1193658 135 0 0 51.16015,52.31923 v -7.295486 c 0,-0.569795 -0.212024,-1.062888 -0.63691,-1.479276 -0.413706,-0.416388 -0.91749,-0.62517 -1.510095,-0.62517 h -9.86649 a 2.2626951,2.2626951 135 0 0 -2.262695,2.262695 z m -8.765593,-0.0086 h 4.006374 c 0.27133,0 0.506136,0.111535 0.704417,0.334598 0.198281,0.223066 0.29791,0.487223 0.29791,0.79247 0,0.316988 -0.09963,0.587014 -0.29791,0.81008 -0.198281,0.211325 -0.433087,0.316988 -0.704417,0.316988 h -4.006374 c -0.281767,0 -0.522279,-0.105663 -0.72056,-0.316988 -0.187845,-0.223066 -0.281767,-0.493092 -0.281767,-0.81008 0,-0.305247 0.09392,-0.569403 0.281767,-0.79247 0.198281,-0.223065 0.438793,-0.334598 0.72056,-0.334598 z"
     id="path3"
     inkscape:path-effect="#path-effect4"
     inkscape:original-d="m 12.83985,42.919298 v 10.519298 h 2.254135 v -8.265163 h 5.008701 c 0.27133,0 0.506136,0.111535 0.704417,0.334598 0.111488,0.125425 0.187337,0.265375 0.236273,0.416781 h 2.315772 v -0.901068 c 0,-0.569795 -0.208782,-1.062888 -0.62517,-1.479276 -0.405432,-0.416388 -0.898524,-0.62517 -1.479277,-0.62517 z m 12.022055,0 v 10.519298 h 2.254135 v -2.704668 c 0,-0.284898 0.0992,-0.531444 0.296442,-0.739639 0.208195,-0.208195 0.459926,-0.312585 0.755782,-0.312585 h 5.108493 c 0.580752,0 1.073844,-0.202128 1.479276,-0.60756 0.416388,-0.416389 0.62517,-0.916134 0.62517,-1.496887 v -2.553513 c 0,-0.580752 -0.208782,-1.073844 -0.62517,-1.479276 -0.416389,-0.416388 -0.909481,-0.62517 -1.479276,-0.62517 z m 12.022055,0 v 10.519298 h 2.254135 v -7.212939 c 0,-0.284897 0.105452,-0.531443 0.306715,-0.739638 0.212443,-0.208195 0.468564,-0.312586 0.770457,-0.312586 h 1.609887 c 0.290711,0 0.54187,0.104393 0.754313,0.312586 0.212444,0.208195 0.315393,0.454741 0.31552,0.739638 v 7.212939 h 2.254136 v -7.212939 c 0,-0.284897 0.121596,-0.531443 0.322858,-0.739638 0.212443,-0.208195 0.47003,-0.312586 0.771923,-0.312586 h 1.592277 c 0.290712,0 0.54187,0.104393 0.754314,0.312586 0.212444,0.208195 0.315393,0.454741 0.31552,0.739638 v 7.212939 h 2.254135 v -8.414852 c 0,-0.569795 -0.212024,-1.062888 -0.63691,-1.479276 -0.413706,-0.416388 -0.91749,-0.62517 -1.510095,-0.62517 z m -8.765593,2.254135 h 4.006374 c 0.27133,0 0.506136,0.111535 0.704417,0.334598 0.198281,0.223066 0.29791,0.487223 0.29791,0.79247 0,0.316988 -0.09963,0.587014 -0.29791,0.81008 -0.198281,0.211325 -0.433087,0.316988 -0.704417,0.316988 h -4.006374 c -0.281767,0 -0.522279,-0.105663 -0.72056,-0.316988 -0.187845,-0.223066 -0.281767,-0.493092 -0.281767,-0.81008 0,-0.305247 0.09392,-0.569403 0.281767,-0.79247 0.198281,-0.223065 0.438793,-0.334598 0.72056,-0.334598 z"
     sodipodi:nodetypes="ccccssccscsccccscssssscsccccscssscccscssscccscscsssscsscscs" />
</svg>
