<?xml version="1.0" encoding="UTF-8" standalone="no"?>
<svg
   width="64"
   height="64"
   version="1.1"
   id="svg7"
   sodipodi:docname="application-pkcs10.svg"
   inkscape:version="1.3.2 (091e20ef0f, 2023-11-25, custom)"
   xmlns:inkscape="http://www.inkscape.org/namespaces/inkscape"
   xmlns:sodipodi="http://sodipodi.sourceforge.net/DTD/sodipodi-0.dtd"
   xmlns:xlink="http://www.w3.org/1999/xlink"
   xmlns="http://www.w3.org/2000/svg"
   xmlns:svg="http://www.w3.org/2000/svg">
  <defs
     id="defs7">
    <radialGradient
       inkscape:collect="always"
       xlink:href="#linearGradient9"
       id="radialGradient10"
       cx="11.199748"
       cy="52.255859"
       fx="11.199748"
       fy="52.255859"
       r="22"
       gradientTransform="matrix(2.3937499,-0.64140334,0.81633154,3.0465908,-58.267754,-94.238478)"
       gradientUnits="userSpaceOnUse" />
    <linearGradient
       id="linearGradient9"
       inkscape:collect="always">
      <stop
         style="stop-color:#28a268;stop-opacity:1;"
         offset="0"
         id="stop9" />
      <stop
         style="stop-color:#1fc327;stop-opacity:1;"
         offset="1"
         id="stop10" />
    </linearGradient>
  </defs>
  <sodipodi:namedview
     id="namedview7"
     pagecolor="#ffffff"
     bordercolor="#000000"
     borderopacity="0.25"
     inkscape:showpageshadow="2"
     inkscape:pageopacity="0.0"
     inkscape:pagecheckerboard="0"
     inkscape:deskcolor="#d1d1d1"
     inkscape:zoom="13.890625"
     inkscape:cx="32"
     inkscape:cy="32.035996"
     inkscape:window-width="1920"
     inkscape:window-height="1014"
     inkscape:window-x="0"
     inkscape:window-y="0"
     inkscape:window-maximized="1"
     inkscape:current-layer="svg7" />
  <g
     id="g1">
    <path
       style="fill:url(#radialGradient10);fill-opacity:1"
       d="M 12.75,4 C 11.2265,4 10,5.2488 10,6.8 v 50.4 c 0,1.55008 1.2265,2.8 2.75,2.8 h 38.5 C 52.7724,60 54,58.75008 54,57.2 V 22 L 36,4 Z"
       id="path2"
       sodipodi:nodetypes="ssssssccs" />
    <path
       style="opacity:0.537555;fill:#ffffff;fill-opacity:1"
       d="M 54,22 36,4 V 19.1875 C 36,20.74675 37.2555,22 38.8125,22 Z"
       id="path4" />
  </g>
  <path
     style="fill:#ffffff"
     d="m 32,26.998291 c -1.532492,0.0023 -2.92898,0.879905 -3.595703,2.259766 C 27.95557,29.08793 27.479892,28.999939 27,28.998291 c -2.209139,0 -4,1.790861 -4,4 4e-4,0.479653 0.08706,0.955325 0.255859,1.404297 -1.37834,0.667835 -2.254321,2.064095 -2.255859,3.595703 0.0023,1.532492 0.879905,2.92898 2.259766,3.595703 -0.170127,0.448727 -0.258118,0.924405 -0.259766,1.404297 0,2.209139 1.790861,4 4,4 0.337602,-0.0019 0.673607,-0.04652 1,-0.132812 v 7.132812 c 3.5e-4,0.890637 1.077036,1.336587 1.707031,0.707031 L 32,52.412353 34.292969,54.705322 C 34.922964,55.334878 35.99965,54.888928 36,53.998291 v -7.130859 c 0.326477,0.08564 0.662481,0.129604 1,0.130859 2.209139,0 4,-1.790861 4,-4 -4e-4,-0.479653 -0.08707,-0.955325 -0.255859,-1.404297 C 42.122481,40.926159 42.998462,39.529899 43,37.998291 42.9977,36.465799 42.120095,35.069311 40.740234,34.402588 40.910361,33.953861 40.998352,33.478183 41,32.998291 c 0,-2.209139 -1.790861,-4 -4,-4 -0.479653,4e-4 -0.955325,0.08706 -1.404297,0.255859 C 34.927868,27.87581 33.531608,26.999829 32,26.998291 Z m 0,4 c 3.865993,0 7,3.134007 7,7 0,3.865993 -3.134007,7 -7,7 -3.865993,0 -7,-3.134007 -7,-7 0,-3.865993 3.134007,-7 7,-7 z m 0,1 c -3.313708,0 -6,2.686292 -6,6 0,3.313708 2.686292,6 6,6 3.313708,0 6,-2.686292 6,-6 0,-3.313708 -2.686292,-6 -6,-6 z"
     id="path7" />
</svg>
