<?xml version="1.0" encoding="UTF-8" standalone="no"?>
<svg
   width="64"
   height="64"
   version="1.1"
   id="svg9"
   sodipodi:docname="application-x-eqonomize.svg"
   inkscape:version="1.4 (e7c3feb100, 2024-10-09)"
   xmlns:inkscape="http://www.inkscape.org/namespaces/inkscape"
   xmlns:sodipodi="http://sodipodi.sourceforge.net/DTD/sodipodi-0.dtd"
   xmlns:xlink="http://www.w3.org/1999/xlink"
   xmlns="http://www.w3.org/2000/svg"
   xmlns:svg="http://www.w3.org/2000/svg">
  <defs
     id="defs9">
    <inkscape:path-effect
       effect="fillet_chamfer"
       id="path-effect11"
       is_visible="true"
       lpeversion="1"
       nodesatellites_param="F,0,0,1,0,1.234794,0,1 @ F,0,0,1,0,0.78229623,0,1 @ F,0,1,1,0,0.78229623,0,1"
       radius="0"
       unit="px"
       method="auto"
       mode="F"
       chamfer_steps="1"
       flexible="false"
       use_knot_distance="true"
       apply_no_radius="true"
       apply_with_radius="true"
       only_selected="false"
       hide_knots="false" />
    <inkscape:path-effect
       effect="fillet_chamfer"
       id="path-effect10"
       is_visible="true"
       lpeversion="1"
       nodesatellites_param="F,0,0,1,0,0,0,1 @ F,0,0,1,0,0,0,1 @ F,0,0,1,0,0,0,1 @ F,0,1,1,0,1.0119147,0,1 @ F,0,0,1,0,1.0119147,0,1 @ F,0,0,1,0,0,0,1 @ F,0,0,1,0,0,0,1 @ F,0,0,1,0,0,0,1"
       radius="0"
       unit="px"
       method="auto"
       mode="F"
       chamfer_steps="1"
       flexible="false"
       use_knot_distance="true"
       apply_no_radius="true"
       apply_with_radius="true"
       only_selected="false"
       hide_knots="false" />
    <radialGradient
       inkscape:collect="always"
       xlink:href="#linearGradient8"
       id="radialGradient9"
       cx="21.477476"
       cy="23.351734"
       fx="21.477476"
       fy="23.351734"
       r="22"
       gradientTransform="matrix(5.2437612,-5.1735227e-8,0,4.286547,-93.168663,-54.97246)"
       gradientUnits="userSpaceOnUse" />
    <linearGradient
       id="linearGradient8"
       inkscape:collect="always">
      <stop
         style="stop-color:#ededed;stop-opacity:1;"
         offset="0"
         id="stop8" />
      <stop
         style="stop-color:#b7b7b7;stop-opacity:1;"
         offset="1"
         id="stop9" />
    </linearGradient>
  </defs>
  <sodipodi:namedview
     id="namedview9"
     pagecolor="#ffffff"
     bordercolor="#000000"
     borderopacity="0.25"
     inkscape:showpageshadow="2"
     inkscape:pageopacity="0.0"
     inkscape:pagecheckerboard="0"
     inkscape:deskcolor="#d1d1d1"
     inkscape:zoom="12.606388"
     inkscape:cx="17.372145"
     inkscape:cy="48.507153"
     inkscape:window-width="3440"
     inkscape:window-height="1361"
     inkscape:window-x="0"
     inkscape:window-y="0"
     inkscape:window-maximized="1"
     inkscape:current-layer="svg9" />
  <g
     id="g1">
    <g
       id="g4">
      <g
         id="g3">
        <g
           id="g2">
          <path
             style="fill:url(#radialGradient9);fill-opacity:1"
             d="M 12.75,4 C 11.2265,4 10,5.2488 10,6.8 v 50.4 c 0,1.5512 1.2265,2.8 2.75,2.8 h 38.5 C 52.7735,60 54,58.7512 54,57.2 V 20 L 38,4 Z"
             id="path2-3"
             sodipodi:nodetypes="ssssssccs" />
          <path
             style="opacity:0.593376;fill:#ffffff;fill-opacity:1"
             d="M 38,4 V 17.333333 C 38,18.806133 39.193906,20 40.666666,20 H 54 Z"
             id="path4-6" />
        </g>
      </g>
    </g>
  </g>
  <rect
     style="fill:#3ac140"
     width="10"
     height="24"
     x="34"
     y="29"
     id="rect6"
     rx="2.3558283"
     ry="2.3558283" />
  <rect
     style="fill:#fa3e30"
     width="10"
     height="14"
     x="20"
     y="39"
     id="rect7"
     rx="2.9167397"
     ry="2.9167397" />
  <path
     style="fill:#3f51b5"
     d="m 30,31 c -2,0 -3.863346,-0.06149 -5.447266,0.730469 -0.791959,0.39598 -1.485143,1.050134 -1.919922,1.939453 -0.320631,0.655836 -0.51251,1.421225 -0.591161,2.319348 C 21.992911,36.545824 22.45305,37 23.011915,37 c 0.545713,0 0.977966,-0.454984 1.040831,-1.010006 0.07047,-0.622159 0.206471,-1.092476 0.376941,-1.441166 0.252722,-0.516931 0.559538,-0.800277 1.017579,-1.029297 C 26.363346,33.061491 28,33 30,33 Z"
     id="path7"
     inkscape:path-effect="#path-effect10"
     inkscape:original-d="m 30,31 c -2,0 -3.863346,-0.06149 -5.447266,0.730469 -0.791959,0.39598 -1.485143,1.050134 -1.919922,1.939453 C 22.198034,34.559241 22,35.65 22,37 h 2 c 0,-1.15 0.176966,-1.934241 0.429687,-2.451172 0.252722,-0.516931 0.559538,-0.800277 1.017579,-1.029297 C 26.363346,33.061491 28,33 30,33 Z" />
  <path
     style="fill:#3f51b5"
     d="m 31.012165,32.740876 -2.386328,1.789746 A 0.39114812,0.39114812 26.565051 0 1 28,34.217704 l 0,-4.435408 a 0.39114811,0.39114811 153.43495 0 1 0.625837,-0.312918 l 2.386328,1.789746 a 0.9260955,0.9260955 90 0 1 0,1.481752 z"
     id="path8"
     inkscape:path-effect="#path-effect11"
     inkscape:original-d="m 32,32 -4,3 v -6 z" />
  <path
     style="fill:#3f3f3f"
     d="M 40,43 C 39,42.95874 38.343308,43.265724 37.833984,43.796876 37.324662,44.32075 37.138244,45.105048 37,46 h -1 l -0.5,1 h 1.50586 c -0.0018,0.14982 -0.0088,0.323802 -0.0118,0.5 0.0028,0.1762 0.0098,0.350176 0.0118,0.5 H 36 l -0.5,1 H 37 c 0.13824,0.894952 0.324662,1.67925 0.833984,2.203124 C 38.343308,51.734276 39,52 40,52 c 1,0 2,-1.001836 2,-1.001836 v -0.986328 c 0,0 -1.123436,0.938788 -2,0.988164 -0.876562,0.04938 -1.697584,-0.610276 -1.966796,-2 H 40 l 0.5,-1 H 38 C 37.9862,47.85788 37.9854,47.678264 37.9882,47.5 37.9852,47.32174 37.9862,47.142116 38,47 h 2.5 L 41,46 H 38.033204 C 38.302416,44.610278 39.083912,43.971018 40,44 c 0.91609,0.02898 2,0.988164 2,0.988164 v -0.986328 c 0,0 -1,-0.960574 -2,-1.001836 z"
     id="path9" />
</svg>
