<?xml version="1.0" encoding="UTF-8" standalone="no"?>
<svg
   width="64"
   height="64"
   version="1.1"
   id="svg7"
   sodipodi:docname="application-x-vmware-team.svg"
   inkscape:version="1.4 (e7c3feb100, 2024-10-09)"
   xmlns:inkscape="http://www.inkscape.org/namespaces/inkscape"
   xmlns:sodipodi="http://sodipodi.sourceforge.net/DTD/sodipodi-0.dtd"
   xmlns:xlink="http://www.w3.org/1999/xlink"
   xmlns="http://www.w3.org/2000/svg"
   xmlns:svg="http://www.w3.org/2000/svg">
  <defs
     id="defs7">
    <linearGradient
       id="linearGradient9"
       inkscape:collect="always">
      <stop
         style="stop-color:#03a9f4;stop-opacity:1;"
         offset="0"
         id="stop9" />
      <stop
         style="stop-color:#03ebf4;stop-opacity:1;"
         offset="1"
         id="stop10" />
    </linearGradient>
    <linearGradient
       id="linearGradient7"
       inkscape:collect="always">
      <stop
         style="stop-color:#3f70b5;stop-opacity:1;"
         offset="0"
         id="stop7" />
      <stop
         style="stop-color:#623fb5;stop-opacity:1;"
         offset="1"
         id="stop8" />
    </linearGradient>
    <linearGradient
       inkscape:collect="always"
       xlink:href="#linearGradient7"
       id="linearGradient8"
       x1="5.1157894"
       y1="57.263157"
       x2="54.898247"
       y2="9.3754387"
       gradientUnits="userSpaceOnUse" />
    <linearGradient
       inkscape:collect="always"
       xlink:href="#linearGradient9"
       id="linearGradient10"
       x1="1.2491229"
       y1="62.764912"
       x2="63.649124"
       y2="0.16842106"
       gradientUnits="userSpaceOnUse" />
  </defs>
  <sodipodi:namedview
     id="namedview7"
     pagecolor="#ffffff"
     bordercolor="#000000"
     borderopacity="0.25"
     inkscape:showpageshadow="2"
     inkscape:pageopacity="0.0"
     inkscape:pagecheckerboard="0"
     inkscape:deskcolor="#d1d1d1"
     inkscape:zoom="12.59534"
     inkscape:cx="27.86745"
     inkscape:cy="31.360806"
     inkscape:current-layer="svg7" />
  <rect
     style="fill:url(#linearGradient8)"
     width="44"
     height="44"
     x="10"
     y="10"
     rx="7.333"
     ry="7.333"
     id="rect2" />
  <path
     id="rect3"
     style="fill:url(#linearGradient10)"
     d="M 26.667969 4 C 25.190451 4 24 5.1904507 24 6.6679688 L 24 17.332031 C 24 18.809549 25.190451 20 26.667969 20 L 37.332031 20 C 38.809549 20 40 18.809549 40 17.332031 L 40 6.6679688 C 40 5.1904507 38.809549 4 37.332031 4 L 26.667969 4 z M 6.6679688 24 C 5.1904507 24 4 25.190451 4 26.667969 L 4 37.332031 C 4 38.809549 5.1904507 40 6.6679688 40 L 17.332031 40 C 18.809549 40 20 38.809549 20 37.332031 L 20 26.667969 C 20 25.190451 18.809549 24 17.332031 24 L 6.6679688 24 z M 46.667969 24 C 45.190451 24 44 25.190451 44 26.667969 L 44 37.332031 C 44 38.809549 45.190451 40 46.667969 40 L 57.332031 40 C 58.809549 40 60 38.809549 60 37.332031 L 60 26.667969 C 60 25.190451 58.809549 24 57.332031 24 L 46.667969 24 z M 26.667969 44 C 25.190451 44 24 45.190451 24 46.667969 L 24 57.332031 C 24 58.809549 25.190451 60 26.667969 60 L 37.332031 60 C 38.809549 60 40 58.809549 40 57.332031 L 40 46.667969 C 40 45.190451 38.809549 44 37.332031 44 L 26.667969 44 z " />
</svg>
