<?xml version="1.0" encoding="UTF-8" standalone="no"?>
<svg
   width="64"
   height="64"
   version="1.1"
   id="svg7"
   sodipodi:docname="application-x-gameboy-color-rom.svg"
   inkscape:version="1.4 (e7c3feb100, 2024-10-09)"
   xmlns:inkscape="http://www.inkscape.org/namespaces/inkscape"
   xmlns:sodipodi="http://sodipodi.sourceforge.net/DTD/sodipodi-0.dtd"
   xmlns:xlink="http://www.w3.org/1999/xlink"
   xmlns="http://www.w3.org/2000/svg"
   xmlns:svg="http://www.w3.org/2000/svg">
  <defs
     id="defs7">
    <radialGradient
       inkscape:collect="always"
       xlink:href="#linearGradient9"
       id="radialGradient10"
       cx="11.199748"
       cy="52.255859"
       fx="11.199748"
       fy="52.255859"
       r="22"
       gradientTransform="matrix(2.3937499,-0.64140334,0.81633154,3.0465908,-58.267754,-94.238478)"
       gradientUnits="userSpaceOnUse" />
    <linearGradient
       id="linearGradient9"
       inkscape:collect="always">
      <stop
         style="stop-color:#2897a2;stop-opacity:1;"
         offset="0"
         id="stop9" />
      <stop
         style="stop-color:#1fc3b8;stop-opacity:1;"
         offset="1"
         id="stop10" />
    </linearGradient>
  </defs>
  <sodipodi:namedview
     id="namedview7"
     pagecolor="#ffffff"
     bordercolor="#000000"
     borderopacity="0.25"
     inkscape:showpageshadow="2"
     inkscape:pageopacity="0.0"
     inkscape:pagecheckerboard="0"
     inkscape:deskcolor="#d1d1d1"
     inkscape:zoom="17.8125"
     inkscape:cx="32"
     inkscape:cy="32"
     inkscape:window-width="2382"
     inkscape:window-height="1359"
     inkscape:window-x="1058"
     inkscape:window-y="0"
     inkscape:window-maximized="0"
     inkscape:current-layer="svg7" />
  <g
     id="g1">
    <g
       id="g3">
      <g
         id="g2">
        <path
           style="fill:url(#radialGradient10);fill-opacity:1"
           d="M 12.75,4 C 11.2265,4 10,5.2488 10,6.8 v 50.4 c 0,1.55008 1.2265,2.8 2.75,2.8 h 38.5 C 52.7724,60 54,58.75008 54,57.2 V 22 L 36,4 Z"
           id="path2"
           sodipodi:nodetypes="ssssssccs" />
        <path
           style="opacity:0.537555;fill:#ffffff;fill-opacity:1"
           d="M 54,22 36,4 V 19.1875 C 36,20.74675 37.2555,22 38.8125,22 Z"
           id="path4" />
      </g>
    </g>
  </g>
  <path
     d="m28.097656 29.075c-5.075277 0.099232-11.880503 4.07659-12.089844 11.251172-0.134129 4.596985 1.342337 9.548907 9.230469 9.673828 2.381062 0.037712 5.261719-2 5.261719-2l1.5-8h-6.875l-1.125 3h3l-0.597656 2.9375s-1.637631 0.201809-2.47461 0.167969c-2.745071-0.111007-3.973725-2.814787-3.953125-5.109375 0.03784-4.220244 4.076858-7.977234 8.78125-8.027344 2.161396-0.02302 3.660157 1.09375 3.660157 1.09375l0.658203-4.136719s-1.258435-0.923481-4.976563-0.850781zm7.902344-0.075-3 20 9.234375 0.06836c2.44659 0.01386 6.659256-3.07921 6.792969-6.923828-0.0275-1.843894-2.527344-3.644532-2.527344-3.644532s2.474478-1.893636 2.472656-4.501953c-0.0022-2.955251-4.266173-4.929688-5.125-4.929688zm4 4 1.966797 0.05664s2.112206-0.05979 2.132812 1.537109c-0.118376 2.305484-1.803579 2.470342-2.779297 2.458984-0.872958-0.009899-2.320312-0.052733-2.320312-0.052733zm-1.345703 7.927734 3.21875 0.072266s2.100599-0.201319 2.162109 1.826172c0.05119 1.68736-1.590319 2.161142-2.435547 2.173828h-3.599609z"
     style="fill:#ffffff"
     id="path7" />
</svg>
