<?xml version="1.0" encoding="UTF-8" standalone="no"?>
<svg
   width="64"
   height="64"
   version="1.1"
   id="svg7"
   sodipodi:docname="application-x-fusioncomp.svg"
   inkscape:version="1.4 (e7c3feb100, 2024-10-09)"
   xmlns:inkscape="http://www.inkscape.org/namespaces/inkscape"
   xmlns:sodipodi="http://sodipodi.sourceforge.net/DTD/sodipodi-0.dtd"
   xmlns:xlink="http://www.w3.org/1999/xlink"
   xmlns="http://www.w3.org/2000/svg"
   xmlns:svg="http://www.w3.org/2000/svg">
  <defs
     id="defs7">
    <radialGradient
       inkscape:collect="always"
       xlink:href="#linearGradient12"
       id="radialGradient10"
       cx="13.687016"
       cy="51.762657"
       fx="13.687016"
       fy="51.762657"
       r="22"
       gradientTransform="matrix(2.2102385,-1.2760818,1.6241041,2.8130308,-97.6325,-66.991724)"
       gradientUnits="userSpaceOnUse" />
    <linearGradient
       id="linearGradient12"
       inkscape:collect="always">
      <stop
         style="stop-color:#004a6a;stop-opacity:1;"
         offset="0"
         id="stop13" />
      <stop
         style="stop-color:#005f6a;stop-opacity:1;"
         offset="1"
         id="stop14" />
    </linearGradient>
  </defs>
  <sodipodi:namedview
     id="namedview7"
     pagecolor="#ffffff"
     bordercolor="#000000"
     borderopacity="0.25"
     inkscape:showpageshadow="2"
     inkscape:pageopacity="0.0"
     inkscape:pagecheckerboard="0"
     inkscape:deskcolor="#d1d1d1"
     inkscape:zoom="17.8125"
     inkscape:cx="32"
     inkscape:cy="32"
     inkscape:current-layer="svg7" />
  <g
     id="g7"
     transform="translate(-3,-4)">
    <path
       style="fill:url(#radialGradient10)"
       d="M 15.75,8 C 14.2265,8 13,9.2488002 13,10.8 v 50.4 c 0,1.550081 1.2265,2.8 2.75,2.8 h 38.5 C 55.7724,64 57,62.75008 57,61.2 V 26 L 39,8 Z"
       id="path2-3"
       sodipodi:nodetypes="ssssssccs" />
    <path
       style="opacity:0.523832;fill:#ffffff;fill-opacity:1"
       d="M 57,26 39,8 V 23.187501 C 39,24.746751 40.2555,26 41.8125,26 Z"
       id="path4-6" />
  </g>
  <path
     style="fill:#fed909"
     d="m 32.335916,49.004407 c -0.163315,0.0101 -0.326183,0.0377 -0.484344,0.08008 -0.632639,0.169531 -1.189998,0.59879 -1.517478,1.166054 -0.327478,0.567267 -0.419498,1.265797 -0.249983,1.898501 0.169515,0.632703 0.59873,1.190116 1.165939,1.517628 0.56721,0.327511 1.265672,0.41954 1.898313,0.250008 0.632639,-0.169531 1.189998,-0.59879 1.517478,-1.166054 0.327478,-0.567267 0.419498,-1.265797 0.249983,-1.898501 -0.169515,-0.632705 -0.59873,-1.190118 -1.165939,-1.51763 -0.425408,-0.245633 -0.924026,-0.360391 -1.413969,-0.330089 z m 7.032738,-10.002616 c -0.716676,0.01964 -1.42927,0.248719 -2.009633,0.669944 -0.673009,0.488467 -1.150664,1.191545 -1.67567,1.835998 -0.262503,0.322227 -0.541195,0.633548 -0.863225,0.896514 -0.322028,0.262967 -0.689864,0.478459 -1.091723,0.585957 -0.40186,0.107498 -0.827614,0.10411 -1.238201,0.03711 -0.410589,-0.06698 -0.808469,-0.19769 -1.197186,-0.345715 -0.777435,-0.296047 -1.541497,-0.666848 -2.368984,-0.753931 -1.141718,-0.120154 -2.330239,0.353246 -3.075968,1.22465 -0.745729,0.871405 -1.027556,2.117647 -0.73042,3.224715 0.297135,1.107071 1.163693,2.043444 2.245944,2.425861 1.082254,0.382418 2.348547,0.199335 3.277127,-0.474624 0.67301,-0.488467 1.150664,-1.191546 1.67567,-1.835998 0.262503,-0.322227 0.541197,-0.633548 0.863226,-0.896514 0.322029,-0.262967 0.689864,-0.478458 1.091724,-0.585957 0.401859,-0.107497 0.827612,-0.104109 1.2382,-0.03711 0.410588,0.06699 0.808467,0.19769 1.197185,0.345714 0.777434,0.296049 1.541497,0.666848 2.368984,0.753932 1.141718,0.120153 2.330239,-0.353245 3.075969,-1.22465 0.745729,-0.871404 1.027556,-2.117647 0.730419,-3.224716 -0.297136,-1.10707 -1.163691,-2.043443 -2.245944,-2.425861 -0.405845,-0.143406 -0.837488,-0.207101 -1.267494,-0.195319 z M 39.15773,29.001794 c -0.955568,0.02553 -1.905694,0.323532 -2.679509,0.871123 -0.897347,0.635008 -1.532267,1.550963 -2.232275,2.38875 -0.350003,0.418894 -0.722896,0.822244 -1.152267,1.164101 -0.429372,0.341857 -0.919169,0.620043 -1.454983,0.759791 -0.535812,0.139747 -1.102831,0.137873 -1.650282,0.05078 -0.547451,-0.08709 -1.07926,-0.256803 -1.59755,-0.449234 -1.036579,-0.384864 -2.056631,-0.867293 -3.159946,-0.980501 -1.522291,-0.156199 -3.106987,0.459025 -4.101292,1.59185 -0.994305,1.132824 -1.370725,2.752354 -0.974544,4.191544 0.39618,1.43919 1.554844,2.657259 2.997848,3.154401 1.443004,0.497144 3.130745,0.258938 4.368851,-0.617208 0.897347,-0.635007 1.532266,-1.550963 2.232274,-2.388751 0.350004,-0.418894 0.722896,-0.822243 1.152268,-1.1641 0.42937,-0.341857 0.919169,-0.620045 1.454981,-0.759791 0.535813,-0.139748 1.102832,-0.137874 1.650283,-0.05078 0.547452,0.08709 1.07926,0.256802 1.59755,0.449234 1.03658,0.384863 2.056631,0.867293 3.159947,0.9805 1.52229,0.156199 3.106985,-0.459023 4.101291,-1.591849 0.994305,-1.132825 1.370724,-2.752354 0.974545,-4.191545 -0.396182,-1.439189 -1.554845,-2.657258 -2.997849,-3.154401 -0.541126,-0.186428 -1.116,-0.269232 -1.689341,-0.253914 z"
     id="path7" />
</svg>
