<?xml version="1.0" encoding="UTF-8" standalone="no"?>
<svg
   width="64"
   height="64"
   version="1.1"
   id="svg7"
   sodipodi:docname="virtualbox-hdd.svg"
   inkscape:version="1.3.2 (091e20ef0f, 2023-11-25, custom)"
   xmlns:inkscape="http://www.inkscape.org/namespaces/inkscape"
   xmlns:sodipodi="http://sodipodi.sourceforge.net/DTD/sodipodi-0.dtd"
   xmlns:xlink="http://www.w3.org/1999/xlink"
   xmlns="http://www.w3.org/2000/svg"
   xmlns:svg="http://www.w3.org/2000/svg">
  <defs
     id="defs7">
    <radialGradient
       inkscape:collect="always"
       xlink:href="#linearGradient7"
       id="radialGradient8"
       cx="16.935129"
       cy="49.153992"
       fx="16.935129"
       fy="49.153992"
       r="22"
       gradientTransform="matrix(8.3672725,-2.2420039,2.8534596,10.649256,-265.02464,-431.65247)"
       gradientUnits="userSpaceOnUse" />
    <linearGradient
       id="linearGradient7"
       inkscape:collect="always">
      <stop
         style="stop-color:#a200ff;stop-opacity:1;"
         offset="0"
         id="stop7" />
      <stop
         style="stop-color:#c67a43;stop-opacity:1;"
         offset="1"
         id="stop8" />
    </linearGradient>
  </defs>
  <sodipodi:namedview
     id="namedview7"
     pagecolor="#ffffff"
     bordercolor="#000000"
     borderopacity="0.25"
     inkscape:showpageshadow="2"
     inkscape:pageopacity="0.0"
     inkscape:pagecheckerboard="0"
     inkscape:deskcolor="#d1d1d1"
     inkscape:zoom="13.09375"
     inkscape:cx="31.961814"
     inkscape:cy="32"
     inkscape:window-width="1920"
     inkscape:window-height="1014"
     inkscape:window-x="0"
     inkscape:window-y="0"
     inkscape:window-maximized="1"
     inkscape:current-layer="svg7" />
  <g
     id="g1">
    <path
       style="fill:url(#radialGradient8)"
       d="M 12.75,4 C 11.2265,4 10,5.2488 10,6.8 v 50.4 c 0,1.55008 1.2265,2.8 2.75,2.8 h 38.5 C 52.7724,60 54,58.75008 54,57.2 V 22 L 36,4 Z"
       id="path2"
       sodipodi:nodetypes="ssssssccs" />
    <path
       style="opacity:0.374382;fill:#ffffff;fill-opacity:1"
       d="M 54,22 36,4 V 19.1875 C 36,20.74675 37.2555,22 38.8125,22 Z"
       id="path4" />
    <path
       style="fill:#ffffff"
       d="M 30.625,25 23.75,46.75 19.51775,33 H 10 v 4 h 6.96025 l 6.78975,19.375 6.875,-22 4.125,13.75 L 40.25,33 44.375,47 H 54 V 42.9995 H 47.125 L 40.25,26.125 l -5.5,11 z"
       id="path7" />
  </g>
</svg>
