<?xml version="1.0" encoding="UTF-8" standalone="no"?>
<svg
   width="64"
   height="64"
   version="1.1"
   id="svg7"
   sodipodi:docname="virtualbox-ova.svg"
   inkscape:version="1.3.2 (091e20ef0f, 2023-11-25, custom)"
   xmlns:inkscape="http://www.inkscape.org/namespaces/inkscape"
   xmlns:sodipodi="http://sodipodi.sourceforge.net/DTD/sodipodi-0.dtd"
   xmlns:xlink="http://www.w3.org/1999/xlink"
   xmlns="http://www.w3.org/2000/svg"
   xmlns:svg="http://www.w3.org/2000/svg">
  <defs
     id="defs7">
    <radialGradient
       inkscape:collect="always"
       xlink:href="#linearGradient9"
       id="radialGradient10"
       cx="13.687016"
       cy="51.762657"
       fx="13.687016"
       fy="51.762657"
       r="22"
       gradientTransform="matrix(2.2102385,-1.2760818,1.6241041,2.8130308,-100.6325,-71.991724)"
       gradientUnits="userSpaceOnUse" />
    <linearGradient
       id="linearGradient9"
       inkscape:collect="always">
      <stop
         style="stop-color:#ff9e22;stop-opacity:1;"
         offset="0"
         id="stop9" />
      <stop
         style="stop-color:#ff6122;stop-opacity:1;"
         offset="1"
         id="stop10" />
    </linearGradient>
  </defs>
  <sodipodi:namedview
     id="namedview7"
     pagecolor="#ffffff"
     bordercolor="#000000"
     borderopacity="0.25"
     inkscape:showpageshadow="2"
     inkscape:pageopacity="0.0"
     inkscape:pagecheckerboard="0"
     inkscape:deskcolor="#d1d1d1"
     inkscape:zoom="13.09375"
     inkscape:cx="32.038186"
     inkscape:cy="32"
     inkscape:window-width="1920"
     inkscape:window-height="1014"
     inkscape:window-x="0"
     inkscape:window-y="0"
     inkscape:window-maximized="1"
     inkscape:current-layer="svg7" />
  <g
     id="g1"
     transform="translate(1e-6,0.9999998)">
    <path
       style="fill:url(#radialGradient10)"
       d="m 12.749999,3.0000004 c -1.5235,0 -2.75,1.2488002 -2.75,2.8000002 V 56.2 c 0,1.550081 1.2265,2.8 2.75,2.8 h 38.5 c 1.5224,0 2.75,-1.24992 2.75,-2.8 V 21 l -18,-17.9999996 z"
       id="path2"
       sodipodi:nodetypes="ssssssccs" />
    <path
       style="opacity:0.523832;fill:#ffffff;fill-opacity:1"
       d="m 53.999999,21 -18,-17.9999996 V 18.187501 c 0,1.55925 1.2555,2.812499 2.8125,2.812499 z"
       id="path4" />
  </g>
  <path
     style="fill:#ffffff"
     d="M 30.625,25 23.75,46.75 19.51775,33 H 10 v 4 h 6.96025 l 6.78975,19.375 6.875,-22 4.125,13.75 L 40.25,33 44.375,47 H 54 V 42.9995 H 47.125 L 40.25,26.125 l -5.5,11 z"
     id="path7" />
</svg>
