<?xml version="1.0" encoding="UTF-8" standalone="no"?>
<svg
   width="64"
   height="64"
   version="1.1"
   id="svg7"
   sodipodi:docname="application-x-tiled.svg"
   inkscape:version="1.4 (e7c3feb100, 2024-10-09)"
   xmlns:inkscape="http://www.inkscape.org/namespaces/inkscape"
   xmlns:sodipodi="http://sodipodi.sourceforge.net/DTD/sodipodi-0.dtd"
   xmlns:xlink="http://www.w3.org/1999/xlink"
   xmlns="http://www.w3.org/2000/svg"
   xmlns:svg="http://www.w3.org/2000/svg">
  <defs
     id="defs7">
    <inkscape:path-effect
       effect="fillet_chamfer"
       id="path-effect7"
       is_visible="true"
       lpeversion="1"
       nodesatellites_param="F,0,1,1,0,1.3807018,0,1 @ F,0,1,1,0,1.3807018,0,1 @ F,0,0,1,0,1.3807018,0,1 @ F,0,1,1,0,1.3807018,0,1 | F,0,1,1,0,1.3807018,0,1 @ F,0,1,1,0,1.3807018,0,1 @ F,0,1,1,0,1.3807018,0,1 @ F,0,1,1,0,1.3807018,0,1 | F,0,1,1,0,1.3807018,0,1 @ F,0,1,1,0,1.3807018,0,1 @ F,0,1,1,0,1.3807018,0,1 @ F,0,1,1,0,1.3807018,0,1"
       radius="0"
       unit="px"
       method="auto"
       mode="F"
       chamfer_steps="1"
       flexible="false"
       use_knot_distance="true"
       apply_no_radius="true"
       apply_with_radius="true"
       only_selected="false"
       hide_knots="false" />
    <radialGradient
       inkscape:collect="always"
       xlink:href="#linearGradient7"
       id="radialGradient8"
       cx="17.222261"
       cy="49.789066"
       fx="17.222261"
       fy="49.789066"
       r="22"
       gradientTransform="matrix(2.3473368,-1.3552355,1.7248452,2.9875196,-97.08262,-74.764958)"
       gradientUnits="userSpaceOnUse" />
    <linearGradient
       id="linearGradient7"
       inkscape:collect="always">
      <stop
         style="stop-color:#656bff;stop-opacity:1;"
         offset="0"
         id="stop7" />
      <stop
         style="stop-color:#a057ff;stop-opacity:1;"
         offset="1"
         id="stop8" />
    </linearGradient>
  </defs>
  <sodipodi:namedview
     id="namedview7"
     pagecolor="#ffffff"
     bordercolor="#000000"
     borderopacity="0.25"
     inkscape:showpageshadow="2"
     inkscape:pageopacity="0.0"
     inkscape:pagecheckerboard="0"
     inkscape:deskcolor="#d1d1d1"
     inkscape:zoom="17.8125"
     inkscape:cx="32"
     inkscape:cy="32"
     inkscape:current-layer="svg7" />
  <g
     id="g1">
    <g
       id="g7"
       transform="translate(-12,4)">
      <path
         style="fill:url(#radialGradient8)"
         d="M 24.75,0 C 23.2265,0 22,1.2488 22,2.8 v 50.4 c 0,1.55008 1.2265,2.8 2.75,2.8 h 38.5 C 64.7724,56 66,54.75008 66,53.2 V 18 L 48,0 Z"
         id="path2"
         sodipodi:nodetypes="ssssssccs" />
      <path
         style="opacity:0.448535;fill:#ffffff;fill-opacity:1"
         d="M 66,18 48,0 V 15.1875 C 48,16.74675 49.2555,18 50.8125,18 Z"
         id="path4" />
    </g>
  </g>
  <path
     style="fill:#ffffff"
     d="m 38,31.380702 v 8.238596 A 1.3807018,1.3807018 45 0 0 39.380702,41 h 8.238596 A 1.3807018,1.3807018 135 0 0 49,39.619298 V 31.380702 A 1.3807018,1.3807018 45 0 0 47.619298,30 H 39.380702 A 1.3807018,1.3807018 135 0 0 38,31.380702 Z m -14,14 v 8.238596 A 1.3807018,1.3807018 45 0 0 25.380702,55 h 8.238596 A 1.3807018,1.3807018 135 0 0 35,53.619298 V 45.380702 A 1.3807018,1.3807018 45 0 0 33.619298,44 H 25.380702 A 1.3807018,1.3807018 135 0 0 24,45.380702 Z m 14,0 v 8.238596 A 1.3807018,1.3807018 45 0 0 39.380702,55 h 8.238596 A 1.3807018,1.3807018 135 0 0 49,53.619298 V 45.380702 A 1.3807018,1.3807018 45 0 0 47.619298,44 H 39.380702 A 1.3807018,1.3807018 135 0 0 38,45.380702 Z"
     id="path7"
     inkscape:path-effect="#path-effect7"
     inkscape:original-d="M 38,30 V 41 H 49 V 30 Z M 24,44 V 55 H 35 V 44 Z m 14,0 V 55 H 49 V 44 Z" />
</svg>
