<?xml version="1.0" encoding="UTF-8" standalone="no"?>
<svg
   width="64"
   height="64"
   version="1.1"
   id="svg7"
   sodipodi:docname="application-x-php.svg"
   inkscape:version="1.4 (e7c3feb100, 2024-10-09)"
   xmlns:inkscape="http://www.inkscape.org/namespaces/inkscape"
   xmlns:sodipodi="http://sodipodi.sourceforge.net/DTD/sodipodi-0.dtd"
   xmlns:xlink="http://www.w3.org/1999/xlink"
   xmlns="http://www.w3.org/2000/svg"
   xmlns:svg="http://www.w3.org/2000/svg">
  <defs
     id="defs7">
    <radialGradient
       inkscape:collect="always"
       xlink:href="#linearGradient7"
       id="radialGradient8"
       cx="17.222261"
       cy="49.789066"
       fx="17.222261"
       fy="49.789066"
       r="22"
       gradientTransform="matrix(2.3473368,-1.3552355,1.7248452,2.9875196,-97.08262,-74.764958)"
       gradientUnits="userSpaceOnUse" />
    <linearGradient
       id="linearGradient7"
       inkscape:collect="always">
      <stop
         style="stop-color:#656bff;stop-opacity:1;"
         offset="0"
         id="stop7" />
      <stop
         style="stop-color:#a057ff;stop-opacity:1;"
         offset="1"
         id="stop8" />
    </linearGradient>
  </defs>
  <sodipodi:namedview
     id="namedview7"
     pagecolor="#ffffff"
     bordercolor="#000000"
     borderopacity="0.25"
     inkscape:showpageshadow="2"
     inkscape:pageopacity="0.0"
     inkscape:pagecheckerboard="0"
     inkscape:deskcolor="#d1d1d1"
     inkscape:zoom="17.8125"
     inkscape:cx="32"
     inkscape:cy="32"
     inkscape:current-layer="svg7" />
  <g
     id="g1">
    <g
       id="g7"
       transform="translate(-12,4)">
      <path
         style="fill:url(#radialGradient8)"
         d="M 24.75,0 C 23.2265,0 22,1.2488 22,2.8 v 50.4 c 0,1.55008 1.2265,2.8 2.75,2.8 h 38.5 C 64.7724,56 66,54.75008 66,53.2 V 18 L 48,0 Z"
         id="path2"
         sodipodi:nodetypes="ssssssccs" />
      <path
         style="opacity:0.448535;fill:#ffffff;fill-opacity:1"
         d="M 66,18 48,0 V 15.1875 C 48,16.74675 49.2555,18 50.8125,18 Z"
         id="path4" />
    </g>
  </g>
  <path
     style="fill:#ffffff"
     d="M 36.333984,31 C 35.597984,31 35,31.955406 35,32.691406 v 2.666016 c -0.026,1.804 3.026,1.804 3,0 V 34 h 2 v 4.642578 l -3.300781,2.271484 C 36.341219,41.153062 36.014,41.550469 36,41.980469 v 2.667969 c -0.026,1.804 3.026,1.804 3,0 v -1.953126 l 3.40625,-2.271484 C 42.76525,40.184828 42.986,39.788422 43,39.357422 V 32.691406 C 43,31.955406 42.402016,31 41.666016,31 Z M 31,32 21,41 31,50 v -4 l -5,-5 5,-5 z m 6.5,15 A 1.5,1.5 0 0 0 36,48.5 1.5,1.5 0 0 0 37.5,50 1.5,1.5 0 0 0 39,48.5 1.5,1.5 0 0 0 37.5,47 Z"
     id="path7" />
</svg>
