<?xml version="1.0" encoding="UTF-8" standalone="no"?>
<svg
   width="64"
   height="64"
   version="1.1"
   id="svg7"
   sodipodi:docname="image-x-3ds.svg"
   inkscape:version="1.4 (e7c3feb100, 2024-10-09)"
   xmlns:inkscape="http://www.inkscape.org/namespaces/inkscape"
   xmlns:sodipodi="http://sodipodi.sourceforge.net/DTD/sodipodi-0.dtd"
   xmlns:xlink="http://www.w3.org/1999/xlink"
   xmlns="http://www.w3.org/2000/svg"
   xmlns:svg="http://www.w3.org/2000/svg">
  <defs
     id="defs7">
    <radialGradient
       inkscape:collect="always"
       xlink:href="#linearGradient4"
       id="radialGradient15"
       cx="17.386076"
       cy="47.039314"
       fx="17.386076"
       fy="47.039314"
       r="22"
       gradientTransform="matrix(2.0221847,-2.0221847,2.5736897,2.5736897,-138.00161,-36.688012)"
       gradientUnits="userSpaceOnUse" />
    <linearGradient
       id="linearGradient4"
       inkscape:collect="always">
      <stop
         style="stop-color:#ff4f54;stop-opacity:1;"
         offset="0"
         id="stop3" />
      <stop
         style="stop-color:#fa7e6a;stop-opacity:1;"
         offset="1"
         id="stop4" />
    </linearGradient>
    <inkscape:path-effect
       effect="fillet_chamfer"
       id="path-effect4"
       is_visible="true"
       lpeversion="1"
       nodesatellites_param="F,0,0,1,0,3.1955798,0,1 @ F,0,0,1,0,1.1193658,0,1 @ F,0,0,1,0,1.1193658,0,1 @ F,0,0,1,0,0.58026455,0,1 @ F,0,0,1,0,0,0,1 @ F,0,0,1,0,0,0,1 @ F,0,1,1,0,0.30347937,0,1 @ F,0,0,1,0,0.30347937,0,1 @ F,0,0,1,0,0,0,1 @ F,0,0,1,0,0,0,1 @ F,0,0,1,0,0,0,1 | F,0,0,1,0,2.2626951,0,1 @ F,0,0,1,0,1.1193658,0,1 @ F,0,0,1,0,1.1193658,0,1 @ F,0,0,1,0,0,0,1 @ F,0,0,1,0,0,0,1 @ F,0,0,1,0,0,0,1 @ F,0,0,1,0,0,0,1 @ F,0,0,1,0,0,0,1 @ F,0,0,1,0,0,0,1 @ F,0,0,1,0,0,0,1 @ F,0,0,1,0,0,0,1 @ F,0,0,1,0,0,0,1 | F,0,0,1,0,2.2626951,0,1 @ F,0,0,1,0,1.1193658,0,1 @ F,0,0,1,0,1.1193658,0,1 @ F,0,0,1,0,0,0,1 @ F,0,0,1,0,0,0,1 @ F,0,0,1,0,0,0,1 @ F,0,0,1,0,0,0,1 @ F,0,0,1,0,0,0,1 @ F,0,0,1,0,0,0,1 @ F,0,0,1,0,1.1193658,0,1 @ F,0,0,1,0,1.1193658,0,1 @ F,0,0,1,0,0,0,1 @ F,0,0,1,0,0,0,1 @ F,0,0,1,0,0,0,1 @ F,0,0,1,0,0,0,1 @ F,0,0,1,0,0,0,1 @ F,0,0,1,0,0,0,1 @ F,0,0,1,0,1.1193658,0,1 @ F,0,0,1,0,1.1193658,0,1 @ F,0,0,1,0,0,0,1 @ F,0,0,1,0,0,0,1 @ F,0,0,1,0,0,0,1 | F,0,0,1,0,0,0,1 @ F,0,0,1,0,0,0,1 @ F,0,0,1,0,0,0,1 @ F,0,0,1,0,0,0,1 @ F,0,0,1,0,0,0,1 @ F,0,0,1,0,0,0,1 @ F,0,0,1,0,0,0,1 @ F,0,0,1,0,0,0,1 @ F,0,0,1,0,0,0,1 @ F,0,0,1,0,0,0,1"
       radius="0"
       unit="px"
       method="auto"
       mode="F"
       chamfer_steps="1"
       flexible="false"
       use_knot_distance="true"
       apply_no_radius="true"
       apply_with_radius="true"
       only_selected="false"
       hide_knots="false" />
  </defs>
  <sodipodi:namedview
     id="namedview7"
     pagecolor="#ffffff"
     bordercolor="#000000"
     borderopacity="0.25"
     inkscape:showpageshadow="2"
     inkscape:pageopacity="0.0"
     inkscape:pagecheckerboard="0"
     inkscape:deskcolor="#d1d1d1"
     inkscape:zoom="17.8125"
     inkscape:cx="32"
     inkscape:cy="32"
     inkscape:current-layer="svg7" />
  <g
     id="g4">
    <g
       id="g3">
      <g
         id="g2">
        <path
           style="fill:url(#radialGradient15)"
           d="M 12.75,4 C 11.2265,4 10,5.2488 10,6.8 v 50.4 c 0,1.55008 1.2265,2.8 2.75,2.8 h 38.5 C 52.7724,60 54,58.75008 54,57.2 V 22 L 36,4 Z"
           id="path2"
           sodipodi:nodetypes="ssssssccs" />
        <path
           style="opacity:0.457139;fill:#ffffff;fill-opacity:1"
           d="M 54,22 36,4 V 19.1875 C 36,20.74675 37.2555,22 38.8125,22 Z"
           id="path4" />
      </g>
    </g>
  </g>
  <path
     style="fill:#ffffff"
     d="M 18.732422 35 C 16.001557 35 14 35.380859 14 35.380859 L 14 37.068359 C 15.239518 36.726095 16.630241 36.433594 18.246094 36.433594 C 19.98017 36.433594 21.304687 37.02468 21.304688 37.859375 C 21.304688 38.865796 19.996243 39.439453 17.179688 39.439453 L 17 39.439453 L 17 40.957031 L 17.087891 40.957031 C 20.054843 40.957031 21.742188 41.467288 21.742188 42.710938 C 21.742188 43.821196 20.233083 44.496094 18.353516 44.496094 C 16.714574 44.496094 15.216091 44.098292 14 43.712891 L 14 45.529297 C 14.584088 45.643917 16.133029 46 19.019531 46 C 22.216972 46 25 44.825412 25 42.755859 C 25 41.020178 23.070932 40.003906 21.929688 40.003906 C 21.929688 40.003906 24.603514 39.513855 24.603516 37.615234 C 24.603516 35.759341 21.758133 35 18.732422 35 z M 27 35 L 27 46 L 32.380859 46 C 33.78961 46 35.397719 45.699618 36.25 45.226562 C 38.328944 44.076794 39 42.241795 39 40.5 C 39 38.759423 38.323996 36.923145 36.251953 35.775391 C 35.399009 35.303547 33.78961 35 32.380859 35 L 27 35 z M 45.435547 35 C 42.157804 35 40.007812 36.054695 40.007812 37.849609 C 40.007812 39.582693 41.795148 40.350811 44.230469 41.326172 C 46.052423 42.049757 46.6875 42.45387 46.6875 43.144531 C 46.6875 43.914298 46.003131 44.53125 44.353516 44.53125 C 42.846954 44.53125 40.915056 44.213374 40 43.822266 L 40 45.65625 C 41.284194 45.879913 42.438093 46 44.113281 46 C 48.19156 46 50 44.740069 50 42.994141 C 50 41.297201 48.554051 40.520361 45.958984 39.513672 C 44.094043 38.7937 43.033203 38.395708 43.033203 37.5625 C 43.033203 36.988289 43.724515 36.431641 45.34375 36.431641 C 46.691241 36.431641 47.53856 36.733674 48.5 36.960938 L 48.5 35.285156 C 47.595892 35.109414 46.992415 35 45.435547 35 z M 30 37 L 31.712891 37 C 34.342038 37 36 38.242371 36 40.513672 C 36 42.785681 34.342038 44 31.712891 44 L 30 44 L 30 37 z"
     id="path7" />
</svg>
