<?xml version="1.0" encoding="UTF-8" standalone="no"?>
<svg
   width="64"
   height="64"
   version="1.1"
   id="svg6"
   sodipodi:docname="text-x-csrc.svg"
   inkscape:version="1.4 (e7c3feb100, 2024-10-09)"
   xmlns:inkscape="http://www.inkscape.org/namespaces/inkscape"
   xmlns:sodipodi="http://sodipodi.sourceforge.net/DTD/sodipodi-0.dtd"
   xmlns:xlink="http://www.w3.org/1999/xlink"
   xmlns="http://www.w3.org/2000/svg"
   xmlns:svg="http://www.w3.org/2000/svg">
  <defs
     id="defs6">
    <radialGradient
       inkscape:collect="always"
       xlink:href="#linearGradient2"
       id="radialGradient9"
       cx="20.238163"
       cy="45.446491"
       fx="20.238163"
       fy="45.446491"
       r="22"
       gradientTransform="matrix(2.2768343,-1.3145309,1.6730393,2.8977891,-103.5617,-78.365997)"
       gradientUnits="userSpaceOnUse" />
    <linearGradient
       id="linearGradient2"
       inkscape:collect="always">
      <stop
         style="stop-color:#00b1ff;stop-opacity:1;"
         offset="0"
         id="stop1" />
      <stop
         style="stop-color:#136dff;stop-opacity:1;"
         offset="1"
         id="stop2" />
    </linearGradient>
  </defs>
  <sodipodi:namedview
     id="namedview6"
     pagecolor="#ffffff"
     bordercolor="#000000"
     borderopacity="0.25"
     inkscape:showpageshadow="2"
     inkscape:pageopacity="0.0"
     inkscape:pagecheckerboard="0"
     inkscape:deskcolor="#d1d1d1"
     inkscape:zoom="17.8125"
     inkscape:cx="32"
     inkscape:cy="32"
     inkscape:current-layer="svg6" />
  <g
     id="g3">
    <g
       id="g2"
       transform="translate(0.0397662,0.06140005)">
      <path
         style="fill:url(#radialGradient9)"
         d="m 12.710234,3.9385999 c -1.5235,0 -2.7500004,1.2487999 -2.7500004,2.7999999 V 57.1386 c 0,1.55008 1.2265004,2.8 2.7500004,2.8 h 38.5 c 1.5224,0 2.75,-1.24992 2.75,-2.8 v -35.2 l -18,-18.0000001 z"
         id="path2-6"
         sodipodi:nodetypes="ssssssccs" />
      <path
         style="opacity:0.533302;fill:#ffffff;fill-opacity:1"
         d="m 53.960234,21.9386 -18,-18.0000001 V 19.1261 c 0,1.55925 1.2555,2.8125 2.8125,2.8125 z"
         id="path4-5" />
    </g>
  </g>
  <path
     style="fill:#ffffff;fill-opacity:1"
     d="m 31.601562,29 c -1.757142,0 -3.322724,0.512898 -4.484374,1.439453 -1.161651,0.926555 -1.87195,2.174142 -2.306641,3.431641 -0.869382,2.514998 -0.808593,5.228125 -0.808594,7.328125 0,2.1 -0.06594,4.722957 0.820313,7.160156 0.443127,1.218599 1.175037,2.425712 2.341796,3.300781 C 28.330822,52.535226 29.868229,53 31.601562,53 34.671457,53 36.694185,52.080717 37.8125,50.837891 38.930815,49.595064 39,48 39,48 v -2 h -4 v 2 c 0,0 0.0693,-0.09506 -0.162109,0.162109 C 34.606481,48.419283 33.930566,49 31.601562,49 c -1.066666,0 -1.628868,-0.234835 -2.037109,-0.541016 -0.408241,-0.30618 -0.727502,-0.760396 -0.984375,-1.466796 -0.513746,-1.412802 -0.578125,-3.692969 -0.578125,-5.792969 1e-6,-2.100001 0.05923,-4.486483 0.589844,-6.021485 0.265309,-0.767501 0.606182,-1.281633 1.019531,-1.611328 C 30.024677,33.236711 30.558705,33 31.601562,33 c 2.329004,0 3.004919,0.580717 3.236329,0.837891 C 35.0693,34.095064 35,34 35,34 v 2 h 4 v -2 c 0,0 -0.06918,-1.595064 -1.1875,-2.837891 C 36.694185,29.919283 34.671457,29 31.601562,29 Z"
     id="path6" />
</svg>
