<?xml version="1.0" encoding="UTF-8" standalone="no"?>
<svg
   width="64"
   height="64"
   version="1.1"
   id="svg6"
   sodipodi:docname="text-x-common-lisp.svg"
   inkscape:version="1.4 (e7c3feb100, 2024-10-09)"
   xmlns:inkscape="http://www.inkscape.org/namespaces/inkscape"
   xmlns:sodipodi="http://sodipodi.sourceforge.net/DTD/sodipodi-0.dtd"
   xmlns:xlink="http://www.w3.org/1999/xlink"
   xmlns="http://www.w3.org/2000/svg"
   xmlns:svg="http://www.w3.org/2000/svg">
  <defs
     id="defs6">
    <radialGradient
       inkscape:collect="always"
       xlink:href="#linearGradient8"
       id="radialGradient9"
       cx="21.477476"
       cy="23.351734"
       fx="21.477476"
       fy="23.351734"
       r="22"
       gradientTransform="matrix(5.2437612,-5.1735227e-8,0,4.286547,-90.168663,-52.97246)"
       gradientUnits="userSpaceOnUse" />
    <linearGradient
       id="linearGradient8"
       inkscape:collect="always">
      <stop
         style="stop-color:#ededed;stop-opacity:1;"
         offset="0"
         id="stop8" />
      <stop
         style="stop-color:#b7b7b7;stop-opacity:1;"
         offset="1"
         id="stop9" />
    </linearGradient>
  </defs>
  <sodipodi:namedview
     id="namedview6"
     pagecolor="#ffffff"
     bordercolor="#000000"
     borderopacity="0.25"
     inkscape:showpageshadow="2"
     inkscape:pageopacity="0.0"
     inkscape:pagecheckerboard="0"
     inkscape:deskcolor="#d1d1d1"
     inkscape:zoom="17.8125"
     inkscape:cx="32"
     inkscape:cy="32"
     inkscape:current-layer="svg6" />
  <g
     id="g1">
    <g
       id="g6"
       transform="translate(-3,-2)">
      <path
         style="fill:url(#radialGradient9);fill-opacity:1"
         d="M 15.75,6 C 14.2265,6 13,7.2488 13,8.8 v 50.4 c 0,1.5512 1.2265,2.8 2.75,2.8 h 38.5 C 55.7735,62 57,60.7512 57,59.2 V 22 L 41,6 Z"
         id="path2"
         sodipodi:nodetypes="ssssssccs" />
      <path
         style="opacity:0.593376;fill:#ffffff;fill-opacity:1"
         d="M 41,6 V 19.333333 C 41,20.806133 42.193906,22 43.666666,22 H 57 Z"
         id="path4" />
    </g>
  </g>
  <path
     style="fill:#3f3f3f"
     d="m 32,25 c -8.284271,0 -15,6.715729 -15,15 0,8.284271 6.715729,15 15,15 8.284271,0 15,-6.715729 15,-15 0,-8.284271 -6.715729,-15 -15,-15 z m 0,1.5 c 7.455844,0 13.5,6.044154 13.5,13.5 0,6.291491 -4.309691,11.5629 -10.133788,13.060547 -0.07069,-0.01706 -0.120038,-0.018 -0.208009,-0.04101 -2.143399,-0.560181 -3.892779,-1.967052 -4.877929,-3.919924 -1.171398,-2.322099 -1.051723,-5.014898 0.325195,-7.274413 0.318153,-0.52207 0.447534,-0.688108 1.098632,-1.400391 0.863625,-0.944788 1.305637,-1.563679 1.678711,-2.349609 0.981141,-2.066796 0.935076,-4.588851 -0.123037,-6.665038 -1.083249,-2.125499 -3.02733,-3.589682 -5.393554,-4.060549 -0.09784,-0.01946 -0.281205,-0.02094 -0.413087,-0.03516 1.42402,-0.510764 2.947112,-0.814454 4.546874,-0.814454 z m 2.803712,4.5 c 0.861589,1.116227 1.871394,3.248614 2.056639,3.887694 0.252705,0.871815 0.266176,1.909759 0.03808,2.976563 -0.214575,1.003552 -1.015076,3.183176 -1.719726,4.67871 C 34.758105,43.435651 33.73804,45.381889 33.376948,46 h 2.516601 c 0.360675,-0.601641 0.98097,-1.685481 1.40625,-2.525391 0.485887,-0.959638 0.920812,-1.914819 1.21875,-2.677734 0.124987,-0.320048 0.291771,-0.743066 0.369141,-0.940431 0.07736,-0.197364 0.162187,-0.360352 0.190428,-0.360352 0.07834,0 0.442892,0.812385 0.931641,2.077149 0.371914,0.962398 1.130756,3.088228 1.330078,3.723634 0.07712,0.245844 0.148144,0.474769 0.219728,0.703125 h 2.334961 c -0.05861,-0.196509 -0.09351,-0.326199 -0.21387,-0.703125 -0.764111,-2.393049 -1.750501,-5.002307 -2.572263,-6.808594 -1.000587,-2.199416 -1.803477,-3.80109 -2.484375,-4.954102 C 38.220067,32.850139 37.518352,31.450714 37.270505,31 Z m -15.331056,3 h 2.34961 c 0.06101,0.175763 0.09581,0.248348 0.175781,0.512694 0.148462,0.490748 0.387009,1.240262 0.530274,1.666994 0.574485,1.711229 1.630828,4.464069 1.751953,4.561524 0.07558,0.06086 0.127763,0.01896 0.161138,-0.128906 0.01556,-0.06909 0.109125,-0.335753 0.208007,-0.591797 0.586749,-1.519596 2.038742,-4.402641 3.01758,-5.994141 l 0.01762,-0.02636 h 2.548828 c -0.05794,0.113962 -0.06399,0.147768 -0.152344,0.301757 -0.453124,0.7898 -1.494579,2.799219 -1.877929,3.621093 -0.428426,0.91852 -0.85041,1.958996 -1.177734,2.91211 -0.516506,1.503984 -0.644132,2.109513 -0.644531,3.032227 -4.88e-4,1.115738 0.262293,1.972307 0.925781,3.002929 0.143737,0.223258 0.285231,0.450568 0.313476,0.503908 0.0891,0.167963 0.883621,1.311501 1.083984,1.561523 0.03137,0.03919 0.01069,0.03465 0.03221,0.06446 h -2.504883 c -0.07016,-0.06495 -0.142219,-0.152194 -0.73242,-1.060547 -1.088112,-1.67471 -2.017277,-3.47825 -3.184564,-6.166995 -1.084924,-2.499037 -1.899173,-4.688964 -2.677736,-7.21289 -0.0948,-0.307375 -0.125832,-0.418799 -0.164063,-0.55957 z"
     id="path6" />
</svg>
