<?xml version="1.0" encoding="UTF-8" standalone="no"?>
<svg
   width="64"
   height="64"
   version="1.1"
   id="svg7"
   sodipodi:docname="text-x-lua.svg"
   inkscape:version="1.4 (e7c3feb100, 2024-10-09)"
   xmlns:inkscape="http://www.inkscape.org/namespaces/inkscape"
   xmlns:sodipodi="http://sodipodi.sourceforge.net/DTD/sodipodi-0.dtd"
   xmlns:xlink="http://www.w3.org/1999/xlink"
   xmlns="http://www.w3.org/2000/svg"
   xmlns:svg="http://www.w3.org/2000/svg">
  <defs
     id="defs7">
    <radialGradient
       inkscape:collect="always"
       xlink:href="#linearGradient12"
       id="radialGradient10"
       cx="13.687016"
       cy="51.762657"
       fx="13.687016"
       fy="51.762657"
       r="22"
       gradientTransform="matrix(2.2102385,-1.2760818,1.6241041,2.8130308,-103.6325,-65.991724)"
       gradientUnits="userSpaceOnUse" />
    <linearGradient
       id="linearGradient12"
       inkscape:collect="always">
      <stop
         style="stop-color:#004a6a;stop-opacity:1;"
         offset="0"
         id="stop13" />
      <stop
         style="stop-color:#005f6a;stop-opacity:1;"
         offset="1"
         id="stop14" />
    </linearGradient>
  </defs>
  <sodipodi:namedview
     id="namedview7"
     pagecolor="#ffffff"
     bordercolor="#000000"
     borderopacity="0.25"
     inkscape:showpageshadow="2"
     inkscape:pageopacity="0.0"
     inkscape:pagecheckerboard="0"
     inkscape:deskcolor="#d1d1d1"
     inkscape:zoom="17.8125"
     inkscape:cx="32"
     inkscape:cy="32"
     inkscape:current-layer="svg7" />
  <g
     id="g7"
     transform="translate(3,-5)">
    <path
       style="fill:url(#radialGradient10)"
       d="M 9.75,9 C 8.2265,9 7,10.2488 7,11.8 V 62.2 C 7,63.750081 8.2265,65 9.75,65 h 38.5 C 49.7724,65 51,63.75008 51,62.2 V 27 L 33,9 Z"
       id="path2-3"
       sodipodi:nodetypes="ssssssccs" />
    <path
       style="opacity:0.523832;fill:#ffffff;fill-opacity:1"
       d="M 51,27 33,9 V 24.187501 C 33,25.746751 34.2555,27 35.8125,27 Z"
       id="path4-6" />
  </g>
  <path
     style="fill:#ffffff"
     d="M 40.5 28 A 3.5 3.5 0 0 0 37 31.5 A 3.5 3.5 0 0 0 40.5 35 A 3.5 3.5 0 0 0 44 31.5 A 3.5 3.5 0 0 0 40.5 28 z M 29.5 32 A 10.5 10.5 0 0 0 19 42.5 A 10.5 10.5 0 0 0 29.5 53 A 10.5 10.5 0 0 0 40 42.5 A 10.5 10.5 0 0 0 29.5 32 z M 33.5 35 A 3.5 3.5 0 0 1 37 38.5 A 3.5 3.5 0 0 1 33.5 42 A 3.5 3.5 0 0 1 30 38.5 A 3.5 3.5 0 0 1 33.5 35 z"
     id="path7" />
</svg>
