<?xml version="1.0" encoding="UTF-8" standalone="no"?>
<svg
   width="64"
   height="64"
   version="1.1"
   id="svg7"
   sodipodi:docname="text-vcard.svg"
   inkscape:version="1.4 (e7c3feb100, 2024-10-09)"
   xmlns:inkscape="http://www.inkscape.org/namespaces/inkscape"
   xmlns:sodipodi="http://sodipodi.sourceforge.net/DTD/sodipodi-0.dtd"
   xmlns:xlink="http://www.w3.org/1999/xlink"
   xmlns="http://www.w3.org/2000/svg"
   xmlns:svg="http://www.w3.org/2000/svg">
  <defs
     id="defs7">
    <radialGradient
       inkscape:collect="always"
       xlink:href="#linearGradient2"
       id="radialGradient9"
       cx="20.238163"
       cy="45.446491"
       fx="20.238163"
       fy="45.446491"
       r="22"
       gradientTransform="matrix(2.2768343,-1.3145309,1.6730393,2.8977891,-103.5617,-78.365997)"
       gradientUnits="userSpaceOnUse" />
    <linearGradient
       id="linearGradient2"
       inkscape:collect="always">
      <stop
         style="stop-color:#00b1ff;stop-opacity:1;"
         offset="0"
         id="stop1" />
      <stop
         style="stop-color:#136dff;stop-opacity:1;"
         offset="1"
         id="stop2" />
    </linearGradient>
  </defs>
  <sodipodi:namedview
     id="namedview7"
     pagecolor="#ffffff"
     bordercolor="#000000"
     borderopacity="0.25"
     inkscape:showpageshadow="2"
     inkscape:pageopacity="0.0"
     inkscape:pagecheckerboard="0"
     inkscape:deskcolor="#d1d1d1"
     inkscape:zoom="17.828125"
     inkscape:cx="32"
     inkscape:cy="32"
     inkscape:window-width="3440"
     inkscape:window-height="1361"
     inkscape:window-x="0"
     inkscape:window-y="0"
     inkscape:window-maximized="1"
     inkscape:current-layer="svg7" />
  <g
     id="g1">
    <g
       id="g2"
       transform="translate(0.0397662,0.06140005)">
      <path
         style="fill:url(#radialGradient9)"
         d="m 12.710234,3.9385999 c -1.5235,0 -2.7500004,1.2487999 -2.7500004,2.7999999 V 57.1386 c 0,1.55008 1.2265004,2.8 2.7500004,2.8 h 38.5 c 1.5224,0 2.75,-1.24992 2.75,-2.8 v -35.2 l -18,-18.0000001 z"
         id="path2-6"
         sodipodi:nodetypes="ssssssccs" />
      <path
         style="opacity:0.533302;fill:#ffffff;fill-opacity:1"
         d="m 53.960234,21.9386 -18,-18.0000001 V 19.1261 c 0,1.55925 1.2555,2.8125 2.8125,2.8125 z"
         id="path4-5" />
    </g>
  </g>
  <path
     style="fill:#ffffff"
     d="m 31.972656,27.000003 a 14,14 0 0 0 -13.972656,14 14,14 0 0 0 14,14 14,14 0 0 0 14,-14 14,14 0 0 0 -14,-14 14,14 0 0 0 -0.02734,0 z m 0.17968,6.003906 c 0.843774,0.0243 1.657896,0.263674 2.285156,0.6875 0.831744,0.562008 1.349236,1.404302 1.558594,2.54297 0.0685,0.372306 0.07632,1.27813 0.0156,1.718748 -0.17032,1.238004 -0.558296,2.376594 -1.355468,3.964844 -0.325328,0.648202 -0.39236,0.863736 -0.367188,1.207032 0.02032,0.276738 0.13748,0.51834 0.359376,0.730468 0.424118,0.405458 1.127574,0.678446 2.652344,1.039064 1.16479,0.275484 1.274932,0.31025 1.660156,0.496092 0.446912,0.215598 0.730184,0.479058 0.90625,0.839844 0.1827,0.374254 0.185,0.345698 -0.0625,0.671876 -0.501348,0.66071 -1.164458,1.338748 -1.796876,1.832032 l -0.343718,0.265624 H 31.972656 26.28125 l -0.339844,-0.265624 c -0.625606,-0.487972 -1.383398,-1.260954 -1.8125,-1.847658 -0.17668,-0.241732 -0.17366,-0.289868 0.0156,-0.664062 0.16018,-0.31661 0.468452,-0.614312 0.824218,-0.796874 0.344462,-0.17674 0.718886,-0.28921 1.691406,-0.515626 2.30051,-0.535588 3.083326,-1.015916 3.078126,-1.890624 -0.0018,-0.30715 -0.0717,-0.509714 -0.453126,-1.257814 -0.908192,-1.781224 -1.295236,-3.060244 -1.335938,-4.429686 -0.0287,-0.967206 0.08996,-1.570724 0.453126,-2.296876 0.555344,-1.110412 1.547834,-1.786972 2.902344,-1.984374 0.281856,-0.04108 0.566396,-0.05498 0.847656,-0.04688 z"
     id="path7" />
</svg>
