<?xml version="1.0" encoding="UTF-8" standalone="no"?>
<svg
   width="64"
   height="64"
   version="1.1"
   id="svg8"
   sodipodi:docname="text-x-arduino.svg"
   inkscape:version="1.4 (e7c3feb100, 2024-10-09)"
   xmlns:inkscape="http://www.inkscape.org/namespaces/inkscape"
   xmlns:sodipodi="http://sodipodi.sourceforge.net/DTD/sodipodi-0.dtd"
   xmlns:xlink="http://www.w3.org/1999/xlink"
   xmlns="http://www.w3.org/2000/svg"
   xmlns:svg="http://www.w3.org/2000/svg">
  <defs
     id="defs8">
    <radialGradient
       inkscape:collect="always"
       xlink:href="#linearGradient9"
       id="radialGradient10"
       cx="11.199748"
       cy="52.255859"
       fx="11.199748"
       fy="52.255859"
       r="22"
       gradientTransform="matrix(2.3937499,-0.64140334,0.81633154,3.0465908,-58.267754,-94.238478)"
       gradientUnits="userSpaceOnUse" />
    <linearGradient
       id="linearGradient9"
       inkscape:collect="always">
      <stop
         style="stop-color:#2897a2;stop-opacity:1;"
         offset="0"
         id="stop9" />
      <stop
         style="stop-color:#1fc3b8;stop-opacity:1;"
         offset="1"
         id="stop10" />
    </linearGradient>
  </defs>
  <sodipodi:namedview
     id="namedview8"
     pagecolor="#ffffff"
     bordercolor="#000000"
     borderopacity="0.25"
     inkscape:showpageshadow="2"
     inkscape:pageopacity="0.0"
     inkscape:pagecheckerboard="0"
     inkscape:deskcolor="#d1d1d1"
     inkscape:zoom="17.8125"
     inkscape:cx="32"
     inkscape:cy="32"
     inkscape:current-layer="svg8" />
  <g
     id="g1">
    <g
       id="g4">
      <g
         id="g3">
        <g
           id="g2">
          <path
             style="fill:url(#radialGradient10);fill-opacity:1"
             d="M 12.75,4 C 11.2265,4 10,5.2488 10,6.8 v 50.4 c 0,1.55008 1.2265,2.8 2.75,2.8 h 38.5 C 52.7724,60 54,58.75008 54,57.2 V 22 L 36,4 Z"
             id="path2"
             sodipodi:nodetypes="ssssssccs" />
          <path
             style="opacity:0.537555;fill:#ffffff;fill-opacity:1"
             d="M 54,22 36,4 V 19.1875 C 36,20.74675 37.2555,22 38.8125,22 Z"
             id="path4-3" />
        </g>
      </g>
    </g>
  </g>
  <path
     id="path4"
     style="fill:#ffffff;fill-opacity:1;stroke-width:0.564667;stroke-linecap:round;stroke-linejoin:round"
     d="m 24.376986,36.168953 c -3.929142,0 -6.369872,2.122666 -7.431108,4.156701 -1.061236,2.034035 -1.038899,4.030973 -1.038899,4.030973 0,0 -0.02234,1.995836 1.038899,4.029871 1.061236,2.034035 3.501966,4.157803 7.431108,4.157803 2.235142,0 4.111979,-1.096744 5.605867,-2.480344 0.922202,-0.854121 1.735157,-1.83467 2.502401,-2.840982 0.740036,0.992678 1.51297,1.960409 2.378882,2.807896 1.409993,1.379993 3.180364,2.51343 5.323532,2.51343 3.696004,0 5.996318,-2.19077 6.96239,-4.21074 0.966074,-2.019971 0.942951,-3.976934 0.942951,-3.976934 0,0 0.02312,-1.958065 -0.942951,-3.978036 -0.966072,-2.019971 -3.266386,-4.209638 -6.96239,-4.209638 -2.143168,0 -3.913539,1.132334 -5.323532,2.512328 -0.865912,0.847488 -1.638846,1.815217 -2.378882,2.807895 -0.767163,-1.005859 -1.580312,-1.985862 -2.502401,-2.839878 -1.493888,-1.3836 -3.370725,-2.480345 -5.605867,-2.480345 z m 0,3.388003 c 1.152863,0 2.168842,0.526674 3.304186,1.578201 0.900144,0.833691 1.804634,1.97768 2.718564,3.220367 -0.914108,1.243251 -1.818248,2.388724 -2.718564,3.222574 -1.135344,1.051527 -2.151323,1.5782 -3.304186,1.5782 -2.846863,0 -3.795239,-1.12417 -4.428005,-2.336972 -0.632766,-1.212801 -0.653999,-2.462699 -0.653999,-2.462699 0,0 0.02123,-1.251 0.653999,-2.463802 0.632766,-1.212801 1.581142,-2.335869 4.428005,-2.335869 z m 15.810682,0 c 2.515336,0 3.319589,1.056066 3.90635,2.282932 0.586762,1.226865 0.610987,2.516739 0.610987,2.516739 0,0 -0.02422,1.288772 -0.610987,2.515637 -0.586761,1.226865 -1.391014,2.284034 -3.90635,2.284034 -0.962501,0 -1.875402,-0.491084 -2.953474,-1.546217 -0.856698,-0.838471 -1.738868,-1.99759 -2.651289,-3.254557 0.912236,-1.256689 1.794754,-2.415142 2.651289,-3.253453 1.078072,-1.055134 1.990973,-1.545115 2.953474,-1.545115 z m -0.282334,1.694001 a 0.84700079,0.84700079 0 0 0 -0.847,0.847001 v 1.411668 h -1.426005 a 0.84700079,0.84700079 0 0 0 -0.847001,0.847001 0.84700079,0.84700079 0 0 0 0.847001,0.847001 h 1.426005 v 1.411668 a 0.84700079,0.84700079 0 0 0 0.847,0.847001 0.84700079,0.84700079 0 0 0 0.847001,-0.847001 v -1.411668 h 1.411668 a 0.84700079,0.84700079 0 0 0 0.847001,-0.847001 0.84700079,0.84700079 0 0 0 -0.847001,-0.847001 h -1.411668 v -1.411668 a 0.84700079,0.84700079 0 0 0 -0.847001,-0.847001 z m -18.06935,2.258669 a 0.84700079,0.84700079 0 0 0 -0.847001,0.847001 0.84700079,0.84700079 0 0 0 0.847001,0.847001 h 4.517338 a 0.84700079,0.84700079 0 0 0 0.847,-0.847001 0.84700079,0.84700079 0 0 0 -0.847,-0.847001 z" />
</svg>
