<?xml version="1.0" encoding="UTF-8" standalone="no"?>
<svg
   width="64"
   height="64"
   version="1"
   id="svg7"
   sodipodi:docname="text-x-emacs-lisp.svg"
   inkscape:version="1.4 (e7c3feb100, 2024-10-09)"
   xmlns:inkscape="http://www.inkscape.org/namespaces/inkscape"
   xmlns:sodipodi="http://sodipodi.sourceforge.net/DTD/sodipodi-0.dtd"
   xmlns:xlink="http://www.w3.org/1999/xlink"
   xmlns="http://www.w3.org/2000/svg"
   xmlns:svg="http://www.w3.org/2000/svg">
  <defs
     id="defs7">
    <radialGradient
       inkscape:collect="always"
       xlink:href="#linearGradient7"
       id="radialGradient8"
       cx="17.222261"
       cy="49.789066"
       fx="17.222261"
       fy="49.789066"
       r="22"
       gradientTransform="matrix(2.3473368,-1.3552355,1.7248452,2.9875196,-97.08262,-74.764958)"
       gradientUnits="userSpaceOnUse" />
    <linearGradient
       id="linearGradient7"
       inkscape:collect="always">
      <stop
         style="stop-color:#656bff;stop-opacity:1;"
         offset="0"
         id="stop7" />
      <stop
         style="stop-color:#a057ff;stop-opacity:1;"
         offset="1"
         id="stop8" />
    </linearGradient>
  </defs>
  <sodipodi:namedview
     id="namedview7"
     pagecolor="#ffffff"
     bordercolor="#000000"
     borderopacity="0.25"
     inkscape:showpageshadow="2"
     inkscape:pageopacity="0.0"
     inkscape:pagecheckerboard="0"
     inkscape:deskcolor="#d1d1d1"
     inkscape:zoom="17.8125"
     inkscape:cx="32"
     inkscape:cy="32"
     inkscape:current-layer="svg7" />
  <g
     id="g1">
    <g
       id="g2">
      <g
         id="g7"
         transform="translate(-12,4)">
        <path
           style="fill:url(#radialGradient8)"
           d="M 24.75,0 C 23.2265,0 22,1.2488 22,2.8 v 50.4 c 0,1.55008 1.2265,2.8 2.75,2.8 h 38.5 C 64.7724,56 66,54.75008 66,53.2 V 18 L 48,0 Z"
           id="path2"
           sodipodi:nodetypes="ssssssccs" />
        <path
           style="opacity:0.448535;fill:#ffffff;fill-opacity:1"
           d="M 66,18 48,0 V 15.1875 C 48,16.74675 49.2555,18 50.8125,18 Z"
           id="path4" />
      </g>
    </g>
  </g>
  <path
     style="fill:#ffffff"
     d="m 24.41063,52.743996 c 0,0 1.687058,0.484642 3.932766,0.761712 0.90946,0.11222 3.647902,0.504384 6.300946,0.494094 0,0 4.031976,0.004 5.815666,-0.247052 1.866266,-0.262282 2.923622,-0.597014 3.511986,-1.265004 0.0152,-0.15928 0.28401,-0.678474 -0.44142,-1.179106 -1.854642,-1.280004 -4.331134,-1.630406 -8.98831,-2.724612 -5.149924,-1.281006 -6.688906,-2.50761 -7.45779,-3.395412 -0.728942,-0.889714 0.13682,-1.916714 4.28653,-2.82322 2.101066,-0.505852 9.926266,-0.598792 9.926266,-0.598792 -3.048736,-2.575012 -7.216616,-6.164842 -10.002426,-8.292166 -0.17656,-0.786094 1.074134,-1.164604 1.736282,-1.208204 2.133512,-0.14558 5.623918,-0.318658 8.213586,0.19084 1.301656,0.256112 1.53029,0.218362 1.53029,0.218362 1.853934,0.0874 3.295884,-0.873434 3.222302,-2.896912 -0.0148,-2.052608 -2.08904,-3.698416 -4.384676,-3.770316 -2.161914,-0.0677 -7.489326,0.305702 -7.489326,0.305702 6.209198,1.266506 7.224304,1.589706 7.548152,2.32921 -1.449232,2.95688 -12.524856,-1.907934 -15.555742,1.017418 -0.720946,0.932024 0.10302,2.067108 0.4267,2.736712 1.44195,2.48931 4.512486,3.776554 6.09473,4.98016 0.595368,0.45287 2.413088,1.455706 2.413088,1.455706 -5.650144,-1.528508 -10.15207,-0.669634 -13.007466,0.815212 -3.281127,1.921608 -2.719954,5.16422 2.486672,8.195734 3.075132,1.790506 4.606334,2.65071 9.641334,3.262312 2.943028,0.464282 3.381596,0.654244 3.359258,0.896614 -0.03156,0.341222 -3.483382,0.470512 -4.432182,0.535262 -2.413794,0.1647 -8.656344,0.205882 -8.68758,0.205882 z"
     id="path6" />
</svg>
