<?xml version="1.0" encoding="UTF-8" standalone="no"?>
<svg
   width="64"
   height="64"
   version="1.1"
   id="svg9"
   sodipodi:docname="text-org.svg"
   inkscape:version="1.4 (e7c3feb100, 2024-10-09)"
   xmlns:inkscape="http://www.inkscape.org/namespaces/inkscape"
   xmlns:sodipodi="http://sodipodi.sourceforge.net/DTD/sodipodi-0.dtd"
   xmlns:xlink="http://www.w3.org/1999/xlink"
   xmlns="http://www.w3.org/2000/svg"
   xmlns:svg="http://www.w3.org/2000/svg">
  <defs
     id="defs9">
    <radialGradient
       inkscape:collect="always"
       xlink:href="#linearGradient9"
       id="radialGradient10"
       cx="13.687016"
       cy="51.762657"
       fx="13.687016"
       fy="51.762657"
       r="22"
       gradientTransform="matrix(2.2102385,-1.2760818,1.6241041,2.8130308,-100.6325,-70.991724)"
       gradientUnits="userSpaceOnUse" />
    <linearGradient
       id="linearGradient9"
       inkscape:collect="always">
      <stop
         style="stop-color:#0dd689;stop-opacity:1;"
         offset="0"
         id="stop9" />
      <stop
         style="stop-color:#59ae75;stop-opacity:1;"
         offset="1"
         id="stop10" />
    </linearGradient>
  </defs>
  <sodipodi:namedview
     id="namedview9"
     pagecolor="#ffffff"
     bordercolor="#000000"
     borderopacity="0.25"
     inkscape:showpageshadow="2"
     inkscape:pageopacity="0.0"
     inkscape:pagecheckerboard="0"
     inkscape:deskcolor="#d1d1d1"
     inkscape:zoom="12.59534"
     inkscape:cx="33.028089"
     inkscape:cy="43.428762"
     inkscape:current-layer="svg9" />
  <g
     id="g1">
    <path
       style="fill:url(#radialGradient10)"
       d="m 12.75,4.0000002 c -1.5235,0 -2.75,1.2488002 -2.75,2.8000002 V 57.2 c 0,1.550081 1.2265,2.8 2.75,2.8 h 38.5 C 52.7724,60 54,58.75008 54,57.2 V 22 L 36,4.0000002 Z"
       id="path2"
       sodipodi:nodetypes="ssssssccs" />
    <path
       style="opacity:0.523832;fill:#ffffff;fill-opacity:1"
       d="M 54,22 36,4.0000002 V 19.187501 C 36,20.746751 37.2555,22 38.8125,22 Z"
       id="path4" />
  </g>
  <path
     style="fill:#ffffff"
     d="m 29.76933,33.948472 c -0.460434,-0.0186 -1.380372,0.864864 -1.380372,2.190236 0,0.1537 -0.04948,0.92777 -0.07108,1.060776 0.316052,-0.0367 0.60342,-0.06036 0.835206,-0.06344 1.427546,-0.0192 1.513234,0.34525 1.513234,0.34525 0,0 -0.1208,-0.12298 0,0 0.602068,0.50752 0.944564,2.164028 0.944294,2.164028 -0.301434,-0.377428 -1.022092,-1.288272 -1.395464,-1.417544 0.09502,0.28642 0.458448,1.146146 0.399128,1.401138 -0.3978,-0.444934 -1.250202,-1.375198 -1.835896,-1.45309 0.26493,0.36267 0.582788,1.343904 0.501188,1.726526 -0.255,-0.58459 -1.08906,-1.504832 -1.658648,-1.630824 0.05154,0.595524 0.282148,1.515812 -0.05204,1.726528 -0.726462,-2.59284 -1.109124,-2.767144 -1.109124,-2.767144 C 26,36 25.136298,34.618918 24.566442,36.566458 c -0.865924,2.08966 -0.937342,2.577932 -1.106446,3.595704 -0.03976,0.238294 -0.0686,0.442326 -0.094,0.63164 0.02878,1.00487 0.31379,1.690046 0.539796,2.23125 0.15864,0.52993 0.423192,1.115378 0.86206,1.714452 1.484634,2.027074 1.890624,3.024428 1.890624,3.98672 0.206416,0.520092 -1.010978,-1.996572 -1.823486,-2.955858 0.539258,1.070518 1.025924,2.140176 1.114502,3.196484 -0.910482,-1.798592 -1.610276,-2.545244 -2.194092,-2.715234 0.386258,1.146768 0.703786,2.235402 0.50757,2.8875 -0.540332,-1.368694 -1.17822,-2.085192 -1.855712,-2.54297 -0.410954,0.993722 -0.453296,2.07272 0.13428,3.297656 -0.575494,-0.295438 -1.198914,-0.87116 -1.906738,-1.941406 0.20024,0.836026 0.388164,1.67277 1.130616,2.526562 -0.537648,0.06204 -1.090616,-0.0904 -1.654298,-0.41289 0.560194,1.52174 1.63999,2.99486 3.104492,4.432422 -1.477386,-0.783006 -2.928746,-1.75373 -4.31836,-3.196486 0.191652,1.038544 0.55748,1.962992 1.552246,2.474612 -0.799355,0.08472 -1.597761,0.02276 -2.395507,-0.377346 0.664879,1.37607 1.910927,2.44366 3.305909,3.434376 -1.334318,-0.39328 -2.660898,-0.846964 -3.848389,-2.198438 -0.06495,0.796126 0.157868,1.561972 0.609618,2.302344 -0.715345,-0.456132 -1.318031,-1.045452 -1.772466,-1.80468 0.0165,1.767244 0.755766,3.341618 1.675782,4.867186 H 34.964844 C 33.8699,58.892162 32.631134,57.86 31.234618,57.035932 27.1404,54.761524 29.70857,50.845164 30.001954,49.461712 c 0,0 3.282928,1.937372 5.661132,-1.63658 2.148436,0.563546 4.48839,-0.59934 6.336196,0.08173 1.122802,0.500962 5.844482,0.19826 4.090086,-2.48828 -0.260098,0.229026 0.12154,0.479232 -0.13158,0.82031 -0.0757,0.09812 -0.22422,0.412966 -0.714358,0.560548 -0.55026,0.265376 -1.4526,0.483414 -2.505614,-0.65625 -0.759362,-0.569832 -1.311298,-0.07412 -1.737548,-0.11484 0.265734,-0.17628 1.009562,-0.563282 2.21289,-0.563282 0.67964,0 1.04195,0.601292 1.49585,0.604298 0.306268,0.002 1.201066,-0.468216 1.38037,-0.650782 1.103208,-0.733264 1.217904,-0.496846 1.769776,-1.613282 0.296602,-1.353384 -0.375006,-1.642176 -0.580078,-2.0125 -0.05502,-0.860896 -0.76285,-1.192154 -1.608644,-0.579686 -1.937726,-0.354472 -3.839456,-0.18762 -4.777586,-0.26797 -2.056638,-0.29325 -4.671156,-1.20282 -4.671156,-1.20282 0.250168,-0.33862 0.13186,-1.070806 -1.474366,-1.121094 -0.882296,-0.295712 -1.811474,-0.456312 -2.492186,-0.463418 -1.413328,-0.762284 -1.83211,-2.685106 -2.227986,-3.87301 0,-0.223766 -0.10434,-0.330134 -0.257812,-0.33633 z m -0.1541,6.873892 c 1.256744,0.477456 3.048766,0.466132 3.843018,0.308986 -0.0687,0.04538 0.10668,0.0048 -0.308838,0.1586 -0.11462,0.14458 -0.12112,-0.02548 -0.1504,0.434766 -0.265734,0.270568 -1.14734,0.361648 -1.834228,0.14492 -0.760166,-0.347364 -0.72835,-0.545606 -0.786866,-0.741016 -0.07436,-0.04538 -0.657472,-0.24339 -0.762694,-0.30625 z m 13.184434,1.56741 c 0.202758,-0.0128 0.426316,0.0126 0.660646,0.06562 0.627566,0.18502 0.426392,0.649294 0.279296,0.95703 0.214738,-0.769342 -0.472626,-0.918992 -1.485106,-0.85586 0.15984,-0.10208 0.342408,-0.15384 0.545164,-0.1668 z m 0.02418,0.317186 c 0.451482,0 0.816406,0.24871 0.816406,0.55508 0,0.30637 -0.364924,0.555078 -0.816406,0.555078 0.959066,-0.306372 -0.05302,-1.271948 -0.816406,-0.555078 0,-0.306372 0.364922,-0.55508 0.816406,-0.55508 z M 15.387207,56.52461 c -0.05771,1.200486 0.199122,2.354594 0.682128,3.47539 h 1.823487 c -0.953865,-0.984018 -1.886959,-1.997358 -2.505615,-3.47539 z m -2.15918,1.235938 C 12.971312,58.5858 13.026374,59.319408 13.26294,60 h 2.239745 c -0.445957,-0.455214 -0.882686,-1.096964 -1.297118,-2.203906 -0.221984,0.301176 -0.165078,0.756584 0,1.271484 -0.467858,-0.16808 -0.802798,-0.586336 -0.97754,-1.30703 z"
     id="path5" />
  <path
     style="fill:#ffffff"
     d="m 37.783678,25.956021 c -0.14722,0.0024 -0.361354,0.18698 -0.542084,0.60105 -0.443162,0.820174 -1.011676,1.17802 -1.006576,1.783926 0.202656,0.344088 -1.5097,0.849074 -0.968832,1.92752 -0.383306,0.481828 -1.284338,1.101244 -0.96411,1.839974 -0.16266,0.362398 -1.312044,1.21157 -0.816272,2.014526 -1.081466,0.73436 -1.01691,0.91145 -0.788484,1.583224 -0.578446,0.377154 -1.183814,1.128968 -0.880232,1.743894 0,0 -0.0677,2.342569 1.802926,1.011865 0.968998,0.02296 0.541038,-1.356159 0.541038,-1.356159 0.653602,-0.18366 0.75363,-1.050018 0.495946,-1.56027 0.833714,0.02296 0.701272,-1.289396 0.58612,-1.743896 0.653606,-0.252256 0.743976,-1.046988 0.473408,-1.675034 0.788618,-0.18338 0.810772,-1.124052 0.743398,-1.789266 0.811166,-0.04592 0.698834,-1.49189 0.698834,-1.790334 0.698968,-0.458872 0.541346,-1.078244 0.65113,-1.796206 0.242336,-0.499626 0.16308,-0.79779 -0.02622,-0.794814 z m -1.182206,1.856524 c -0.207488,0.599894 0.15204,0.527538 0.58822,0.52098 -0.19916,0.217274 -0.78534,0.28302 -0.78534,0.06192 0,-0.2211 0.19712,-0.582898 0.19712,-0.582898 z m -1.143406,1.713468 c -0.207758,0.600168 0.467114,0.68554 0.903298,0.678982 -0.19916,0.217274 -0.84736,0.221928 -0.95258,-0.0459 -0.16884,-0.34108 0.04928,-0.633076 0.04928,-0.633076 z m -0.84196,1.764178 c -0.1495,0.621486 0.39267,0.761326 0.828852,0.755314 -0.19916,0.217274 -0.960442,0.17732 -0.960442,-0.04376 -0.13582,-0.343266 0.13158,-0.711544 0.13158,-0.711544 z m -0.825708,1.95741 c -0.1495,0.62176 0.728198,0.607062 1.16438,0.601048 -0.19916,0.217276 -0.818234,0.425008 -1.204224,0.20391 -0.336598,-0.383442 0.03984,-0.804958 0.03984,-0.804958 z m -0.806834,1.564006 c -0.18708,0.37415 0.984828,0.748528 1.42074,0.74197 -0.19916,0.217274 -1.039994,0.383906 -1.425982,0.1628 -0.417394,-0.518726 0.0052,-0.904776 0.0052,-0.904776 z m -0.84458,1.842112 c -0.14924,0.62176 1.34315,0.542746 1.779334,0.53646 -0.19916,0.217274 -1.43319,0.489598 -1.819178,0.268496 -0.336598,-0.38344 0.03984,-0.804956 0.03984,-0.804956 z"
     id="path6" />
  <path
     style="opacity:0.5;fill:#ffffff"
     d="m 29.585694,37.102344 c -0.648886,0.0086 -1.601454,0.1303 -3.002442,0.467578 -0.287746,0.202242 0.644532,1.290626 0.644532,1.290626 0,0 -0.319518,0.3396 -0.15068,0.16742 0.06792,0.306916 0.540702,1.068368 0.37454,1.204472 0.334184,-0.210716 0.619902,-0.768164 0.568366,-1.363686 0.569588,0.12598 1.00452,0.449004 1.25952,1.033594 0.0816,-0.382622 0.16288,-0.763892 -0.10206,-1.126562 0.585692,0.0779 1.038968,0.408192 1.436768,0.853126 0.05932,-0.254992 0.09502,-0.514754 0,-0.801174 0.37337,0.12928 0.6949,0.440152 0.996336,0.81758 2.7e-4,0 0.241082,-1.137798 -0.361004,-1.645318 -0.1208,-0.123 -0.328362,-0.16168 -0.283542,-0.386322 0,0 0.04718,-0.530454 -1.38037,-0.51133 z m -5.84375,1.211328 c -0.702994,0.443294 -0.956528,1.82782 -3.51001,2.701562 -0.861899,0.294892 -1.985636,0.533266 -3.477784,0.65625 C 14.848858,41.828196 11.658613,44.357936 10,47.413672 V 57.2 c 0,1.5512 1.2265,2.8 2.75,2.8 h 0.51294 c -0.236566,-0.680592 -0.291628,-1.4142 -0.03491,-2.239452 0.174742,0.720694 0.509683,1.13895 0.977539,1.30703 -0.165078,-0.5149 -0.221984,-0.970306 0,-1.271484 C 14.62,58.903038 15.056729,59.544786 15.502687,60 h 0.56665 c -0.483008,-1.120796 -0.739844,-2.274904 -0.68213,-3.47539 0.618656,1.47803 1.55175,2.491372 2.505615,3.47539 h 0.131588 c -0.920015,-1.525568 -1.659281,-3.099942 -1.675782,-4.867186 0.454435,0.759226 1.057121,1.348548 1.77246,1.804686 -0.45175,-0.740372 -0.674576,-1.506218 -0.609618,-2.302344 1.187491,1.351472 2.51407,1.805158 3.848388,2.198438 -1.39498,-0.990716 -2.64103,-2.058306 -3.305908,-3.434376 0.797746,0.400114 1.596151,0.462068 2.395506,0.377346 -0.994766,-0.511622 -1.360592,-1.436068 -1.552245,-2.474612 1.389613,1.442756 2.840973,2.41348 4.318359,3.196484 -1.464502,-1.43756 -2.544298,-2.91068 -3.104492,-4.43242 0.563684,0.322496 1.11665,0.47493 1.654298,0.41289 -0.742452,-0.853792 -0.930374,-1.690534 -1.130616,-2.526562 0.707826,1.070246 1.331244,1.645966 1.906738,1.941406 -0.587572,-1.224936 -0.545226,-2.303934 -0.13428,-3.297656 0.677494,0.457778 1.315382,1.174278 1.855712,2.54297 0.19622,-0.652096 -0.12132,-1.740732 -0.507568,-2.8875 0.583816,0.17 1.283608,0.91664 2.194092,2.715234 -0.08858,-1.056308 -0.575244,-2.125966 -1.114502,-3.196484 0.812508,0.959284 2.0299,3.47595 1.823486,2.955858 0,-0.962292 -0.405992,-1.959646 -1.890626,-3.98672 -0.438866,-0.599074 -0.703424,-1.184522 -0.86206,-1.714452 -0.376056,-0.900524 -0.589059,-2.389627 0.166005,-4.907819 z"
     id="path7"
     sodipodi:nodetypes="cccccccccccccccccccssccccccccccccccccccccccccccccccc" />
</svg>
