<?xml version="1.0" encoding="UTF-8" standalone="no"?>
<svg
   width="64"
   height="64"
   version="1.1"
   id="svg13"
   sodipodi:docname="application-java.svg"
   inkscape:version="1.3.2 (091e20ef0f, 2023-11-25, custom)"
   xmlns:inkscape="http://www.inkscape.org/namespaces/inkscape"
   xmlns:sodipodi="http://sodipodi.sourceforge.net/DTD/sodipodi-0.dtd"
   xmlns:xlink="http://www.w3.org/1999/xlink"
   xmlns="http://www.w3.org/2000/svg"
   xmlns:svg="http://www.w3.org/2000/svg">
  <defs
     id="defs13">
    <linearGradient
       id="linearGradient4"
       inkscape:collect="always">
      <stop
         style="stop-color:#ff4f54;stop-opacity:1;"
         offset="0"
         id="stop3" />
      <stop
         style="stop-color:#fa7e6a;stop-opacity:1;"
         offset="1"
         id="stop4" />
    </linearGradient>
    <radialGradient
       inkscape:collect="always"
       xlink:href="#linearGradient4"
       id="radialGradient15"
       cx="17.386076"
       cy="47.039314"
       fx="17.386076"
       fy="47.039314"
       r="22"
       gradientTransform="matrix(2.0221847,-2.0221847,2.5736897,2.5736897,-138.00161,-36.688012)"
       gradientUnits="userSpaceOnUse" />
  </defs>
  <sodipodi:namedview
     id="namedview13"
     pagecolor="#ffffff"
     bordercolor="#000000"
     borderopacity="0.25"
     inkscape:showpageshadow="2"
     inkscape:pageopacity="0.0"
     inkscape:pagecheckerboard="0"
     inkscape:deskcolor="#d1d1d1"
     inkscape:zoom="9.8221551"
     inkscape:cx="37.109982"
     inkscape:cy="32.88484"
     inkscape:window-width="1920"
     inkscape:window-height="1014"
     inkscape:window-x="0"
     inkscape:window-y="0"
     inkscape:window-maximized="1"
     inkscape:current-layer="svg13" />
  <path
     style="fill:url(#radialGradient15)"
     d="M 12.75,4 C 11.2265,4 10,5.2488 10,6.8 v 50.4 c 0,1.55008 1.2265,2.8 2.75,2.8 h 38.5 C 52.7724,60 54,58.75008 54,57.2 V 22 L 36,4 Z"
     id="path2"
     sodipodi:nodetypes="ssssssccs" />
  <path
     style="fill:#ffffff;fill-opacity:1;opacity:0.45713879"
     d="M 54,22 36,4 V 19.1875 C 36,20.74675 37.2555,22 38.8125,22 Z"
     id="path4" />
  <g
     id="g17"
     transform="matrix(1.0083002,0,0,1.0083002,-0.80586732,-0.40134252)"
     style="fill:#fefefe;fill-opacity:1;stroke-width:0.991768">
    <path
       style="fill:#fefefe;fill-opacity:1;stroke-width:0.991768"
       d="m 41.472984,41.460692 c -0.439068,-0.02102 -0.911988,0.04582 -1.399206,0.217118 -0.342406,0.12156 -0.521686,0.401068 -0.521686,0.401068 0,0 0.213676,-0.08644 0.696586,-0.18696 1.970232,-0.410728 4.793296,2.638508 -1.311756,5.81093 -0.02824,0.07552 -0.12364,0.15992 -0.12364,0.15982 7.134404,-1.875518 5.733176,-6.254804 2.659698,-6.401974 z"
       id="path6" />
    <path
       style="fill:#fefefe;fill-opacity:1;stroke-width:0.991768"
       d="m 27.9242,41.13907 c -0.778344,0.02044 -2.597792,0.18818 -4.716292,1.212244 -3.340026,1.615636 8.2608,2.351476 14.266482,0.771976 0.62438,-0.42634 1.486658,-0.7961 1.486658,-0.7961 0,0 -2.455728,0.438864 -4.903256,0.645324 -2.994814,0.250932 -6.212478,0.300366 -7.825304,0.08444 -3.81978,-0.5101 2.095794,-1.914862 2.095794,-1.914862 0,0 -0.14464,-0.0098 -0.404082,-0.003 z"
       id="path7" />
    <path
       style="fill:#fefefe;fill-opacity:1;stroke-width:0.991768"
       d="m 26.950184,45.364338 c -5.511808,1.829374 3.066632,3.90463 10.768464,1.652512 -0.81865,-0.288644 -1.338896,-0.81721 -1.338896,-0.81721 -3.764086,0.724804 -5.939278,0.703326 -8.693778,0.419158 -2.130034,-0.22032 -0.73579,-1.25446 -0.73579,-1.25446 z"
       id="path8" />
    <path
       style="fill:#fefefe;fill-opacity:1;stroke-width:0.991768"
       d="m 27.731208,49.311874 c -5.003376,1.398036 3.041374,4.286132 9.411474,1.556014 -1.043354,-0.40573 -1.78821,-0.874504 -1.78821,-0.874504 -2.841592,0.537814 -4.161152,0.577626 -6.739716,0.28346 -2.128452,-0.2447 -0.883548,-0.96497 -0.883548,-0.96497 z"
       id="path9" />
    <path
       style="fill:#fefefe;fill-opacity:1;stroke-width:0.991768"
       d="m 24.495542,51.541825 c -2.150202,-0.08286 -7.031897,2.065624 -2.864756,2.741116 12.987882,2.106264 23.675472,-0.95012 20.30659,-2.46972 0,0 0.92044,0.75835 -1.013218,1.344928 -3.676906,1.113868 -15.30359,1.45108 -18.533458,0.04524 -1.161056,-0.505098 1.015864,-1.206892 1.70076,-1.353974 0.71428,-0.1549 1.124792,-0.12364 1.124792,-0.12364 -0.1614,-0.1137 -0.41354,-0.17212 -0.72071,-0.18394 z"
       id="path10" />
    <path
       style="fill:#fefefe;fill-opacity:1;stroke-width:0.991768"
       d="m 44,52.91823 c 0,0 -0.409572,1.049918 -4.842944,1.884708 -5.001708,0.941262 -11.171546,0.83242 -14.830386,0.229178 9e-5,-8.8e-5 0.750262,0.618478 4.601702,0.865458 C 34.78846,56.272694 43.786874,55.69106 44,52.91823 Z"
       id="path11" />
    <path
       style="fill:#fefefe;fill-opacity:1;stroke-width:0.991768"
       d="m 35.522972,23.4595 c 1.364184,5.372442 -4.8099,6.997194 -7.03825,10.343274 -1.518194,2.279482 0.743048,4.726458 3.826708,7.508674 -1.202484,-2.717842 -5.27979,-5.094722 0.003,-9.26673 6.587876,-5.20089 3.208528,-8.585218 3.208528,-8.585218 z"
       id="path12" />
    <path
       style="fill:#fefefe;fill-opacity:1;stroke-width:0.991768"
       d="m 39.25683,30.10573 c 0,0 -11.137568,2.783252 -5.816962,8.913912 1.569592,1.807098 -0.413126,3.434692 -0.413126,3.434692 0,0 3.986446,-2.058504 2.156106,-4.634872 -1.70948,-2.402624 -3.022938,-3.597768 4.073982,-7.713732 z"
       id="path13" />
  </g>
</svg>
