<?xml version="1.0" encoding="UTF-8" standalone="no"?>
<svg
   width="64"
   height="64"
   version="1.1"
   id="svg7"
   sodipodi:docname="text-x-python.svg"
   inkscape:version="1.4 (e7c3feb100, 2024-10-09)"
   xmlns:inkscape="http://www.inkscape.org/namespaces/inkscape"
   xmlns:sodipodi="http://sodipodi.sourceforge.net/DTD/sodipodi-0.dtd"
   xmlns:xlink="http://www.w3.org/1999/xlink"
   xmlns="http://www.w3.org/2000/svg"
   xmlns:svg="http://www.w3.org/2000/svg">
  <defs
     id="defs7">
    <radialGradient
       inkscape:collect="always"
       xlink:href="#linearGradient2"
       id="radialGradient9-3"
       cx="20.238163"
       cy="45.446491"
       fx="20.238163"
       fy="45.446491"
       r="22"
       gradientTransform="matrix(2.2768343,-1.3145309,1.6730393,2.8977891,-103.5617,-78.365997)"
       gradientUnits="userSpaceOnUse" />
    <linearGradient
       id="linearGradient2"
       inkscape:collect="always">
      <stop
         style="stop-color:#00b1ff;stop-opacity:1;"
         offset="0"
         id="stop1" />
      <stop
         style="stop-color:#136dff;stop-opacity:1;"
         offset="1"
         id="stop2" />
    </linearGradient>
  </defs>
  <sodipodi:namedview
     id="namedview7"
     pagecolor="#ffffff"
     bordercolor="#000000"
     borderopacity="0.25"
     inkscape:showpageshadow="2"
     inkscape:pageopacity="0.0"
     inkscape:pagecheckerboard="0"
     inkscape:deskcolor="#d1d1d1"
     inkscape:zoom="6.546875"
     inkscape:cx="35.742243"
     inkscape:cy="28.868735"
     inkscape:window-width="1920"
     inkscape:window-height="1014"
     inkscape:window-x="0"
     inkscape:window-y="0"
     inkscape:window-maximized="1"
     inkscape:current-layer="svg7" />
  <g
     id="g4">
    <g
       id="g3">
      <g
         id="g2"
         transform="translate(0.0397662,0.06140005)">
        <path
           style="fill:url(#radialGradient9-3)"
           d="m 12.710234,3.9385999 c -1.5235,0 -2.7500004,1.2487999 -2.7500004,2.7999999 V 57.1386 c 0,1.55008 1.2265004,2.8 2.7500004,2.8 h 38.5 c 1.5224,0 2.75,-1.24992 2.75,-2.8 v -35.2 l -18,-18.0000001 z"
           id="path2-6"
           sodipodi:nodetypes="ssssssccs" />
        <path
           style="opacity:0.533302;fill:#ffffff;fill-opacity:1"
           d="m 53.960234,21.9386 -18,-18.0000001 V 19.1261 c 0,1.55925 1.2555,2.8125 2.8125,2.8125 z"
           id="path4-5" />
      </g>
    </g>
  </g>
  <path
     style="fill:#ffffff;fill-opacity:1;opacity:0.70714403"
     d="m 38.980907,33.961814 v 3.5 c 0,1.939 -1.561,3.5 -3.5,3.5 h -7 c 0,0 -3.5,0 -3.5,3.5 v 6.125 c 0,2.4234 2.7314,4.375 6.125,4.375 h 1.75 c 3.3936,0 6.125,-1.9516 6.125,-4.375 v -2.625 h 2.625 c 2.4234,0 4.375,-2.7314 4.375,-6.125 v -1.75 c 0,-3.3936 -1.9516,-6.125 -4.375,-6.125 z m -2.5,15 a 1.5,1.5 0 0 1 1.5,1.5 1.5,1.5 0 0 1 -1.5,1.5 1.5,1.5 0 0 1 -1.5,-1.5 1.5,1.5 0 0 1 1.5,-1.5 z"
     id="path6" />
  <path
     style="fill:#ffffff;fill-opacity:1"
     d="M 31.125 27 C 27.7314 27 25 28.9516 25 31.375 L 25 34 L 22.375 34 C 19.9516 34 18 36.7314 18 40.125 L 18 41.875 C 18 45.2686 19.9516 48 22.375 48 L 25 48 L 25 44.5 C 25 42.561 26.561 41 28.5 41 L 35.5 41 C 35.5 41 39 41 39 37.5 L 39 31.375 C 39 28.9516 36.2686 27 32.875 27 L 31.125 27 z M 27.5 30 A 1.5 1.5 0 0 1 29 31.5 A 1.5 1.5 0 0 1 27.5 33 A 1.5 1.5 0 0 1 26 31.5 A 1.5 1.5 0 0 1 27.5 30 z"
     id="path7" />
</svg>
