<?xml version="1.0" encoding="UTF-8" standalone="no"?>
<svg
   width="64"
   height="64"
   version="1.1"
   id="svg11"
   sodipodi:docname="text-x-kotlin.svg"
   inkscape:version="1.4 (e7c3feb100, 2024-10-09)"
   xmlns:inkscape="http://www.inkscape.org/namespaces/inkscape"
   xmlns:sodipodi="http://sodipodi.sourceforge.net/DTD/sodipodi-0.dtd"
   xmlns:xlink="http://www.w3.org/1999/xlink"
   xmlns="http://www.w3.org/2000/svg"
   xmlns:svg="http://www.w3.org/2000/svg">
  <defs
     id="defs11">
    <radialGradient
       inkscape:collect="always"
       xlink:href="#linearGradient9"
       id="radialGradient10"
       cx="15.999628"
       cy="48.462826"
       fx="15.999628"
       fy="48.462826"
       r="22"
       gradientTransform="matrix(2.1335699,-1.2318172,1.5677674,2.7154527,-84.115134,-60.937205)"
       gradientUnits="userSpaceOnUse" />
    <linearGradient
       id="linearGradient9"
       inkscape:collect="always">
      <stop
         style="stop-color:#4f4f4f;stop-opacity:1;"
         offset="0"
         id="stop9" />
      <stop
         style="stop-color:#6a6a6a;stop-opacity:1;"
         offset="1"
         id="stop10" />
    </linearGradient>
  </defs>
  <sodipodi:namedview
     id="namedview11"
     pagecolor="#ffffff"
     bordercolor="#000000"
     borderopacity="0.25"
     inkscape:showpageshadow="2"
     inkscape:pageopacity="0.0"
     inkscape:pagecheckerboard="0"
     inkscape:deskcolor="#d1d1d1"
     inkscape:zoom="17.8125"
     inkscape:cx="32"
     inkscape:cy="32"
     inkscape:current-layer="svg11" />
  <g
     id="g1">
    <g
       id="g8"
       transform="translate(-10,2)">
      <path
         style="fill:url(#radialGradient10)"
         d="M 22.75,2 C 21.2265,2 20,3.2488 20,4.8 v 50.4 c 0,1.55008 1.2265,2.8 2.75,2.8 h 38.5 C 62.7724,58 64,56.75008 64,55.2 V 20 L 46,2 Z"
         id="path2"
         sodipodi:nodetypes="ssssssccs" />
      <path
         style="opacity:0.395668;fill:#ffffff;fill-opacity:1"
         d="M 64,20 46,2 V 17.1875 C 46,18.74675 47.2555,20 48.8125,20 Z"
         id="path4" />
    </g>
  </g>
  <path
     style="fill:#6069e5"
     transform="matrix(0.41666667,0,0,0.41666667,20,28)"
     d="M 0,60 30.1,29.9 60,60 Z"
     id="path6" />
  <path
     style="fill:#ec7537"
     transform="matrix(0.41666667,0,0,0.41666667,20,28)"
     d="M 30.1,29.9 60,0 H 30.1 L 0,31.7 V 60 Z"
     id="path8" />
  <path
     style="fill:#00a1e6"
     transform="matrix(0.41666667,0,0,0.41666667,20,28)"
     d="M 0,0 H 30.1 L 0,32.5 Z"
     id="path10" />
</svg>
