<?xml version="1.0" encoding="UTF-8" standalone="no"?>
<svg
   width="64"
   height="64"
   version="1.1"
   id="svg7"
   sodipodi:docname="text-x-gradle.svg"
   inkscape:version="1.4 (e7c3feb100, 2024-10-09)"
   xmlns:inkscape="http://www.inkscape.org/namespaces/inkscape"
   xmlns:sodipodi="http://sodipodi.sourceforge.net/DTD/sodipodi-0.dtd"
   xmlns:xlink="http://www.w3.org/1999/xlink"
   xmlns="http://www.w3.org/2000/svg"
   xmlns:svg="http://www.w3.org/2000/svg">
  <defs
     id="defs7">
    <radialGradient
       inkscape:collect="always"
       xlink:href="#linearGradient9"
       id="radialGradient10"
       cx="13.687016"
       cy="51.762657"
       fx="13.687016"
       fy="51.762657"
       r="22"
       gradientTransform="matrix(2.2102385,-1.2760818,1.6241041,2.8130308,-100.6325,-70.991724)"
       gradientUnits="userSpaceOnUse" />
    <linearGradient
       id="linearGradient9"
       inkscape:collect="always">
      <stop
         style="stop-color:#0dd689;stop-opacity:1;"
         offset="0"
         id="stop9" />
      <stop
         style="stop-color:#59ae75;stop-opacity:1;"
         offset="1"
         id="stop10" />
    </linearGradient>
  </defs>
  <sodipodi:namedview
     id="namedview7"
     pagecolor="#ffffff"
     bordercolor="#000000"
     borderopacity="0.25"
     inkscape:showpageshadow="2"
     inkscape:pageopacity="0.0"
     inkscape:pagecheckerboard="0"
     inkscape:deskcolor="#d1d1d1"
     inkscape:zoom="17.8125"
     inkscape:cx="32"
     inkscape:cy="32"
     inkscape:current-layer="svg7" />
  <g
     id="g1">
    <path
       style="fill:url(#radialGradient10)"
       d="m 12.75,4.0000002 c -1.5235,0 -2.75,1.2488002 -2.75,2.8000002 V 57.2 c 0,1.550081 1.2265,2.8 2.75,2.8 h 38.5 C 52.7724,60 54,58.75008 54,57.2 V 22 L 36,4.0000002 Z"
       id="path2"
       sodipodi:nodetypes="ssssssccs" />
    <path
       style="opacity:0.523832;fill:#ffffff;fill-opacity:1"
       d="M 54,22 36,4.0000002 V 19.187501 C 36,20.746751 37.2555,22 38.8125,22 Z"
       id="path4" />
  </g>
  <path
     style="fill:#ffffff"
     d="m 42.76103,29.000772 c -1.271144,-0.02248 -2.550012,0.439962 -3.549532,1.39301 -0.096,0.09246 -0.15282,0.222046 -0.15626,0.356712 7.6e-4,0.13402 0.05152,0.260794 0.14322,0.356716 l 0.63282,0.669166 c 0.1704,0.1733 0.440404,0.1915 0.632822,0.04428 0.501246,-0.386388 1.11164,-0.592972 1.739608,-0.591052 1.178258,-0.0054 2.243268,0.716436 2.695352,1.827838 0.452088,1.111398 0.202166,2.392546 -0.63282,3.241676 -4.027956,4.114272 -9.404978,-7.413978 -21.607092,-1.48414 -0.419672,0.20038 -0.737244,0.569738 -0.877618,1.020674 -0.14038,0.450932 -0.09134,0.9428 0.13802,1.353952 l 2.091178,2.992808 c 0.45411,0.800006 1.188356,1.080254 1.979196,0.63011 l 0.04948,-0.02864 -0.03906,0.02864 0.927096,-0.531166 c 1.033722,-0.655632 2.31058,-1.399918 3.219502,-2.226212 0.568678,-0.36882 1.070856,0.416284 0.690116,0.75509 -0.957336,0.867982 -2.287476,1.648832 -3.37836,2.332966 h -0.02864 l -0.927096,0.525958 c -0.39206,0.226966 -0.835846,0.345578 -1.28648,0.343698 -0.947174,6.6e-5 -1.557656,-0.511404 -2.036488,-1.346142 l -1.97659,-2.789718 c -3.798842,2.74033 -6.105211,8.019198 -4.86726,14.71904 0.04534,0.230736 0.243574,0.398456 0.473965,0.400978 h 1.986132 c 0.486782,0.04568 0.447173,-0.44464 0.537343,-0.666562 0,-1.84066 1.492406,-3.332808 3.333382,-3.332808 1.761468,8.52e-4 3.218232,1.37182 3.32557,3.129714 0.03734,0.14416 0.07768,0.28847 0.09638,0.440034 0.0316,0.246338 0.235934,0.429626 0.479164,0.429626 h 2.195346 c 0.242444,0 0.446742,-0.18388 0.47657,-0.429622 0.02016,-0.158 0.06118,-0.308406 0.10156,-0.45826 0.11654,-1.750702 1.570698,-3.11125 3.325576,-3.111488 1.840974,0 3.333382,1.492146 3.333382,3.332808 0,0.666562 0.401338,0.666562 0.401338,0.666562 h 2.036196 c 0.262446,0 0.477738,-0.216246 0.481778,-0.4843 0.05174,-3.12156 0.873746,-6.707178 3.224008,-8.503872 8.140894,-6.22047 6.001888,-11.553702 4.117248,-13.490064 -0.966662,-0.987812 -2.228906,-1.495524 -3.500052,-1.51799 z m -4.591758,8.978322 c 0.327308,0.0444 0.621322,0.258822 0.763034,0.580638 0.18894,0.429076 0.05914,0.93534 -0.312506,1.213348 v -0.0052 l -1.552106,-0.79675 c -0.0013,-0.470476 0.31806,-0.87685 0.76824,-0.97641 0.11254,-0.02488 0.224236,-0.03042 0.333338,-0.0158 z"
     id="path7" />
</svg>
