<?xml version="1.0" encoding="UTF-8" standalone="no"?>
<svg
   width="64"
   height="64"
   version="1.1"
   id="svg6"
   sodipodi:docname="text-x-po.svg"
   inkscape:version="1.4 (e7c3feb100, 2024-10-09)"
   xmlns:inkscape="http://www.inkscape.org/namespaces/inkscape"
   xmlns:sodipodi="http://sodipodi.sourceforge.net/DTD/sodipodi-0.dtd"
   xmlns:xlink="http://www.w3.org/1999/xlink"
   xmlns="http://www.w3.org/2000/svg"
   xmlns:svg="http://www.w3.org/2000/svg">
  <defs
     id="defs6">
    <inkscape:path-effect
       effect="fillet_chamfer"
       id="path-effect6"
       is_visible="true"
       lpeversion="1"
       nodesatellites_param="F,0,0,1,0,0,0,1 @ F,0,0,1,0,0,0,1 @ F,0,0,1,0,0,0,1 @ F,0,0,1,0,0,0,1 @ F,0,1,1,0,1.5786167,0,1 @ F,0,0,1,0,0,0,1 @ F,0,0,1,0,1.5786167,0,1 @ F,0,0,1,0,0,0,1 @ F,0,0,1,0,0,0,1 @ F,0,0,1,0,0,0,1 @ F,0,0,1,0,0,0,1 | F,0,0,1,0,1.0181773,0,1 @ F,0,0,1,0,1.0181773,0,1 @ F,0,0,1,0,1.0181773,0,1 @ F,0,0,1,0,1.0181773,0,1 | F,0,0,1,0,1.0181773,0,1 @ F,0,0,1,0,1.0181773,0,1 @ F,0,0,1,0,1.0181773,0,1 @ F,0,0,1,0,1.0181773,0,1 | F,0,0,1,0,1.0181773,0,1 @ F,0,0,1,0,1.0181773,0,1 @ F,0,0,1,0,1.0181773,0,1 @ F,0,0,1,0,1.0181773,0,1"
       radius="0"
       unit="px"
       method="auto"
       mode="F"
       chamfer_steps="1"
       flexible="false"
       use_knot_distance="true"
       apply_no_radius="true"
       apply_with_radius="true"
       only_selected="false"
       hide_knots="false" />
    <radialGradient
       inkscape:collect="always"
       xlink:href="#linearGradient2"
       id="radialGradient9-3"
       cx="20.238163"
       cy="45.446491"
       fx="20.238163"
       fy="45.446491"
       r="22"
       gradientTransform="matrix(2.2768343,-1.3145309,1.6730393,2.8977891,-103.5617,-78.365997)"
       gradientUnits="userSpaceOnUse" />
    <linearGradient
       id="linearGradient2"
       inkscape:collect="always">
      <stop
         style="stop-color:#00b1ff;stop-opacity:1;"
         offset="0"
         id="stop1" />
      <stop
         style="stop-color:#136dff;stop-opacity:1;"
         offset="1"
         id="stop2" />
    </linearGradient>
  </defs>
  <sodipodi:namedview
     id="namedview6"
     pagecolor="#ffffff"
     bordercolor="#000000"
     borderopacity="0.25"
     inkscape:showpageshadow="2"
     inkscape:pageopacity="0.0"
     inkscape:pagecheckerboard="0"
     inkscape:deskcolor="#d1d1d1"
     inkscape:zoom="9.2586794"
     inkscape:cx="29.70186"
     inkscape:cy="44.174766"
     inkscape:window-width="1920"
     inkscape:window-height="1014"
     inkscape:window-x="0"
     inkscape:window-y="0"
     inkscape:window-maximized="1"
     inkscape:current-layer="svg6" />
  <g
     id="g1">
    <g
       id="g3">
      <g
         id="g2"
         transform="translate(0.0397662,0.06140005)">
        <path
           style="fill:url(#radialGradient9-3)"
           d="m 12.710234,3.9385999 c -1.5235,0 -2.7500004,1.2487999 -2.7500004,2.7999999 V 57.1386 c 0,1.55008 1.2265004,2.8 2.7500004,2.8 h 38.5 c 1.5224,0 2.75,-1.24992 2.75,-2.8 v -35.2 l -18,-18.0000001 z"
           id="path2-6"
           sodipodi:nodetypes="ssssssccs" />
        <path
           style="opacity:0.533302;fill:#ffffff;fill-opacity:1"
           d="m 53.960234,21.9386 -18,-18.0000001 V 19.1261 c 0,1.55925 1.2555,2.8125 2.8125,2.8125 z"
           id="path4-5" />
      </g>
    </g>
  </g>
  <path
     style="fill:#ffffff;fill-opacity:1"
     d="m 23.375,31 c 0,0 -3.375,0.002 -3.375,3.333984 v 10.332032 c 0,1.8466 1.527652,3.358139 3.427734,3.333984 h 7.388649 a 3.2424831,3.2424831 25.959332 0 1 2.552275,1.242586 L 35.529297,52 37.772995,49.227181 A 3.3080743,3.3080743 154.48947 0 1 40.344617,48 h 0.227649 C 40.572266,48 44,47.998016 44,44.666016 V 34.333984 C 44,31.001984 40.572266,31 40.572266,31 Z m 0.643177,2.7 H 37.981823 A 1.0181773,1.0181773 45 0 1 39,34.718177 1.0001652,1.0001652 136.04137 0 1 37.981823,35.7 H 24.018177 A 1.0181773,1.0181773 45 0 1 23,34.681823 1.0001652,1.0001652 136.04137 0 1 24.018177,33.7 Z m 0,4.5 h 8.963646 A 1.0181773,1.0181773 45 0 1 34,39.218177 1.0001652,1.0001652 136.04137 0 1 32.981823,40.2 H 24.018177 A 1.0181773,1.0181773 45 0 1 23,39.181823 1.0001652,1.0001652 136.04137 0 1 24.018177,38.2 Z m 0,4.7 h 5.963646 A 1.0181773,1.0181773 45 0 1 31,43.918177 1.0001652,1.0001652 136.04137 0 1 29.981823,44.9 H 24.018177 A 1.0181773,1.0181773 45 0 1 23,43.881823 1.0001652,1.0001652 136.04137 0 1 24.018177,42.9 Z"
     id="path6"
     inkscape:path-effect="#path-effect6"
     inkscape:original-d="m 23.375,31 c 0,0 -3.375,0.002 -3.375,3.333984 v 10.332032 c 0,1.8466 1.527652,3.358139 3.427734,3.333984 H 32.395 l 3.134297,4 3.236703,-4 h 1.806266 C 40.572266,48 44,47.998016 44,44.666016 V 34.333984 C 44,31.001984 40.572266,31 40.572266,31 Z M 23,33.7 h 16 v 2 H 23 Z m 0,4.5 h 11 v 2 H 23 Z m 0,4.7 h 8 v 2 h -8 z"
     sodipodi:nodetypes="csscccccssccccccccccccccccc" />
</svg>
