<?xml version="1.0" encoding="UTF-8" standalone="no"?>
<svg
   width="64"
   height="64"
   version="1.1"
   id="svg6"
   sodipodi:docname="text-x-pkgbuild.svg"
   inkscape:version="1.4 (e7c3feb100, 2024-10-09)"
   xmlns:inkscape="http://www.inkscape.org/namespaces/inkscape"
   xmlns:sodipodi="http://sodipodi.sourceforge.net/DTD/sodipodi-0.dtd"
   xmlns:xlink="http://www.w3.org/1999/xlink"
   xmlns="http://www.w3.org/2000/svg"
   xmlns:svg="http://www.w3.org/2000/svg">
  <defs
     id="defs6">
    <radialGradient
       inkscape:collect="always"
       xlink:href="#linearGradient2"
       id="radialGradient9"
       cx="20.238163"
       cy="45.446491"
       fx="20.238163"
       fy="45.446491"
       r="22"
       gradientTransform="matrix(2.2768343,-1.3145309,1.6730393,2.8977891,-103.5617,-78.365997)"
       gradientUnits="userSpaceOnUse" />
    <linearGradient
       id="linearGradient2"
       inkscape:collect="always">
      <stop
         style="stop-color:#00b1ff;stop-opacity:1;"
         offset="0"
         id="stop1" />
      <stop
         style="stop-color:#136dff;stop-opacity:1;"
         offset="1"
         id="stop2" />
    </linearGradient>
  </defs>
  <sodipodi:namedview
     id="namedview6"
     pagecolor="#ffffff"
     bordercolor="#000000"
     borderopacity="0.25"
     inkscape:showpageshadow="2"
     inkscape:pageopacity="0.0"
     inkscape:pagecheckerboard="0"
     inkscape:deskcolor="#d1d1d1"
     inkscape:zoom="13.09375"
     inkscape:cx="32"
     inkscape:cy="32.076372"
     inkscape:window-width="1920"
     inkscape:window-height="1014"
     inkscape:window-x="0"
     inkscape:window-y="0"
     inkscape:window-maximized="1"
     inkscape:current-layer="svg6" />
  <g
     id="g3">
    <g
       id="g2"
       transform="translate(0.0397662,0.06140005)">
      <path
         style="fill:url(#radialGradient9)"
         d="m 12.710234,3.9385999 c -1.5235,0 -2.7500004,1.2487999 -2.7500004,2.7999999 V 57.1386 c 0,1.55008 1.2265004,2.8 2.7500004,2.8 h 38.5 c 1.5224,0 2.75,-1.24992 2.75,-2.8 v -35.2 l -18,-18.0000001 z"
         id="path2-6"
         sodipodi:nodetypes="ssssssccs" />
      <path
         style="opacity:0.533302;fill:#ffffff;fill-opacity:1"
         d="m 53.960234,21.9386 -18,-18.0000001 V 19.1261 c 0,1.55925 1.2555,2.8125 2.8125,2.8125 z"
         id="path4-5" />
    </g>
  </g>
  <path
     style="fill:#ffffff;fill-opacity:1"
     d="m 32.00087,26 c -1.24733,3.05576 -1.999703,5.057232 -3.387829,8.022122 0.851938,0.901957 1.895871,1.947145 3.591207,3.13341 -1.82334,-0.750357 -3.06497,-1.498294 -3.995128,-2.280092 -1.776397,3.705857 -4.562604,8.97956 -10.209124,19.124466 4.43759,-2.561402 8.119747,-4.138636 11.325531,-4.741644 -0.13797,-0.591648 -0.214769,-1.234486 -0.209076,-1.902924 l 0.0041,-0.137955 c 0.0697,-2.843001 1.309971,-5.365352 3.062193,-5.217442 1.752229,0.147909 2.77447,2.91204 2.703358,5.755029 -0.01288,0.534759 -0.0725,1.048178 -0.177782,1.524617 3.17022,0.621507 6.916816,2.194471 11.291684,4.720314 -0.863306,-1.588605 -1.637023,-3.017932 -2.372337,-4.381826 -1.159136,-0.898837 -2.365213,-2.067892 -4.83141,-3.333669 1.693912,0.44089 2.91136,0.947197 3.85717,1.516086 C 35.172241,33.871655 34.56493,32.021071 32.000599,26.00085 Z"
     id="path6" />
</svg>
