<?xml version="1.0" encoding="UTF-8" standalone="no"?>
<svg
   width="64"
   height="64"
   version="1.1"
   id="svg6"
   sodipodi:docname="text-x-twig.svg"
   inkscape:version="1.3.2 (091e20ef0f, 2023-11-25, custom)"
   xmlns:inkscape="http://www.inkscape.org/namespaces/inkscape"
   xmlns:sodipodi="http://sodipodi.sourceforge.net/DTD/sodipodi-0.dtd"
   xmlns:xlink="http://www.w3.org/1999/xlink"
   xmlns="http://www.w3.org/2000/svg"
   xmlns:svg="http://www.w3.org/2000/svg">
  <defs
     id="defs6">
    <inkscape:path-effect
       effect="fillet_chamfer"
       id="path-effect6"
       is_visible="true"
       lpeversion="1"
       nodesatellites_param="F,0,1,1,0,1.504254,0,1 @ F,0,1,1,0,1.504254,0,1 @ F,0,1,1,0,1.504254,0,1 @ F,0,1,1,0,1.504254,0,1 | F,0,1,1,0,1.504254,0,1 @ F,0,1,1,0,1.504254,0,1 @ F,0,1,1,0,1.504254,0,1 @ F,0,1,1,0,1.504254,0,1 | F,0,1,1,0,1.504254,0,1 @ F,0,1,1,0,1.504254,0,1 @ F,0,1,1,0,1.504254,0,1 @ F,0,1,1,0,1.504254,0,1 | F,0,1,1,0,1.504254,0,1 @ F,0,1,1,0,1.504254,0,1 @ F,0,1,1,0,1.504254,0,1 @ F,0,1,1,0,1.504254,0,1 | F,0,1,1,0,1.504254,0,1 @ F,0,1,1,0,1.504254,0,1 @ F,0,1,1,0,1.504254,0,1 @ F,0,1,1,0,1.504254,0,1 | F,0,1,1,0,1.504254,0,1 @ F,0,1,1,0,1.504254,0,1 @ F,0,1,1,0,1.504254,0,1 @ F,0,1,1,0,1.504254,0,1 | F,0,1,1,0,1.504254,0,1 @ F,0,1,1,0,1.504254,0,1 @ F,0,1,1,0,1.504254,0,1 @ F,0,1,1,0,1.504254,0,1 | F,0,1,1,0,1.504254,0,1 @ F,0,1,1,0,1.504254,0,1 @ F,0,1,1,0,1.504254,0,1 @ F,0,1,1,0,1.504254,0,1 | F,0,1,1,0,1.504254,0,1 @ F,0,1,1,0,1.504254,0,1 @ F,0,1,1,0,1.504254,0,1 @ F,0,1,1,0,1.504254,0,1 | F,0,1,1,0,1.504254,0,1 @ F,0,1,1,0,1.504254,0,1 @ F,0,1,1,0,1.504254,0,1 @ F,0,1,1,0,1.504254,0,1 | F,0,1,1,0,1.504254,0,1 @ F,0,1,1,0,1.504254,0,1 @ F,0,1,1,0,1.504254,0,1 @ F,0,1,1,0,1.504254,0,1 | F,0,1,1,0,1.504254,0,1 @ F,0,1,1,0,1.504254,0,1 @ F,0,1,1,0,1.504254,0,1 @ F,0,1,1,0,1.504254,0,1 | F,0,1,1,0,1.504254,0,1 @ F,0,1,1,0,1.504254,0,1 @ F,0,1,1,0,1.504254,0,1 @ F,0,1,1,0,1.504254,0,1 | F,0,1,1,0,1.504254,0,1 @ F,0,1,1,0,1.504254,0,1 @ F,0,1,1,0,1.504254,0,1 @ F,0,1,1,0,1.504254,0,1 | F,0,1,1,0,1.504254,0,1 @ F,0,1,1,0,1.504254,0,1 @ F,0,1,1,0,1.504254,0,1 @ F,0,1,1,0,1.504254,0,1 | F,0,1,1,0,1.504254,0,1 @ F,0,1,1,0,1.504254,0,1 @ F,0,0,1,0,1.504254,0,1 @ F,0,1,1,0,1.504254,0,1"
       radius="0"
       unit="px"
       method="auto"
       mode="F"
       chamfer_steps="1"
       flexible="false"
       use_knot_distance="true"
       apply_no_radius="true"
       apply_with_radius="true"
       only_selected="false"
       hide_knots="false" />
    <radialGradient
       inkscape:collect="always"
       xlink:href="#linearGradient8"
       id="radialGradient9"
       cx="21.477476"
       cy="23.351734"
       fx="21.477476"
       fy="23.351734"
       r="22"
       gradientTransform="matrix(5.2437612,-5.1735227e-8,0,4.286547,-85.168663,-62.97246)"
       gradientUnits="userSpaceOnUse" />
    <linearGradient
       id="linearGradient8"
       inkscape:collect="always">
      <stop
         style="stop-color:#ededed;stop-opacity:1;"
         offset="0"
         id="stop8" />
      <stop
         style="stop-color:#b7b7b7;stop-opacity:1;"
         offset="1"
         id="stop9" />
    </linearGradient>
  </defs>
  <sodipodi:namedview
     id="namedview6"
     pagecolor="#ffffff"
     bordercolor="#000000"
     borderopacity="0.25"
     inkscape:showpageshadow="2"
     inkscape:pageopacity="0.0"
     inkscape:pagecheckerboard="0"
     inkscape:deskcolor="#d1d1d1"
     inkscape:zoom="6.546875"
     inkscape:cx="28.639618"
     inkscape:cy="32.534606"
     inkscape:window-width="1920"
     inkscape:window-height="1014"
     inkscape:window-x="0"
     inkscape:window-y="0"
     inkscape:window-maximized="1"
     inkscape:current-layer="svg6" />
  <g
     id="g6"
     transform="translate(-8,8)">
    <path
       style="fill:url(#radialGradient9);fill-opacity:1"
       d="M 20.75,-4 C 19.2265,-4 18,-2.7512 18,-1.2 v 50.4 c 0,1.5512 1.2265,2.8 2.75,2.8 h 38.5 C 60.7735,52 62,50.7512 62,49.2 V 12 L 46,-4 Z"
       id="path2"
       sodipodi:nodetypes="ssssssccs" />
    <path
       style="opacity:0.593376;fill:#ffffff;fill-opacity:1"
       d="M 46,-4 V 9.333333 C 46,10.806133 47.193906,12 48.666666,12 H 62 Z"
       id="path4" />
  </g>
  <path
     style="opacity:0.5"
     d="M 20,32.504254 A 1.500006,1.500006 44.83751 0 0 21.504254,34 1.500006,1.500006 134.83751 0 0 23,32.495746 1.500006,1.500006 44.83751 0 0 21.495746,31 1.500006,1.500006 134.83751 0 0 20,32.504254 Z m 6,0 A 1.500006,1.500006 44.83751 0 0 27.504254,34 1.500006,1.500006 134.83751 0 0 29,32.495746 1.500006,1.500006 44.83751 0 0 27.495746,31 1.500006,1.500006 134.83751 0 0 26,32.504254 Z m 6,0 A 1.500006,1.500006 44.83751 0 0 33.504254,34 1.500006,1.500006 134.83751 0 0 35,32.495746 1.500006,1.500006 44.83751 0 0 33.495746,31 1.500006,1.500006 134.83751 0 0 32,32.504254 Z m 6,0 A 1.500006,1.500006 44.83751 0 0 39.504254,34 1.500006,1.500006 134.83751 0 0 41,32.495746 1.500006,1.500006 44.83751 0 0 39.495746,31 1.500006,1.500006 134.83751 0 0 38,32.504254 Z m -15,6 A 1.500006,1.500006 44.83751 0 0 24.504254,40 1.500006,1.500006 134.83751 0 0 26,38.495746 1.500006,1.500006 44.83751 0 0 24.495746,37 1.500006,1.500006 134.83751 0 0 23,38.504254 Z m 6,0 A 1.500006,1.500006 44.83751 0 0 30.504254,40 1.500006,1.500006 134.83751 0 0 32,38.495746 1.500006,1.500006 44.83751 0 0 30.495746,37 1.500006,1.500006 134.83751 0 0 29,38.504254 Z m 6,0 A 1.500006,1.500006 44.83751 0 0 36.504254,40 1.500006,1.500006 134.83751 0 0 38,38.495746 1.500006,1.500006 44.83751 0 0 36.495746,37 1.500006,1.500006 134.83751 0 0 35,38.504254 Z m 6,0 A 1.500006,1.500006 44.83751 0 0 42.504254,40 1.500006,1.500006 134.83751 0 0 44,38.495746 1.500006,1.500006 44.83751 0 0 42.495746,37 1.500006,1.500006 134.83751 0 0 41,38.504254 Z m -21,6 A 1.500006,1.500006 44.83751 0 0 21.504254,46 1.500006,1.500006 134.83751 0 0 23,44.495746 1.500006,1.500006 44.83751 0 0 21.495746,43 1.500006,1.500006 134.83751 0 0 20,44.504254 Z m 6,0 A 1.500006,1.500006 44.83751 0 0 27.504254,46 1.500006,1.500006 134.83751 0 0 29,44.495746 1.500006,1.500006 44.83751 0 0 27.495746,43 1.500006,1.500006 134.83751 0 0 26,44.504254 Z m 6,0 A 1.500006,1.500006 44.83751 0 0 33.504254,46 1.500006,1.500006 134.83751 0 0 35,44.495746 1.500006,1.500006 44.83751 0 0 33.495746,43 1.500006,1.500006 134.83751 0 0 32,44.504254 Z m 6,0 A 1.500006,1.500006 44.83751 0 0 39.504254,46 1.500006,1.500006 134.83751 0 0 41,44.495746 1.500006,1.500006 44.83751 0 0 39.495746,43 1.500006,1.500006 134.83751 0 0 38,44.504254 Z m -15,6 A 1.500006,1.500006 44.83751 0 0 24.504254,52 1.500006,1.500006 134.83751 0 0 26,50.495746 1.500006,1.500006 44.83751 0 0 24.495746,49 1.500006,1.500006 134.83751 0 0 23,50.504254 Z m 6,0 A 1.500006,1.500006 44.83751 0 0 30.504254,52 1.500006,1.500006 134.83751 0 0 32,50.495746 1.500006,1.500006 44.83751 0 0 30.495746,49 1.500006,1.500006 134.83751 0 0 29,50.504254 Z m 6,0 A 1.500006,1.500006 44.83751 0 0 36.504254,52 1.500006,1.500006 134.83751 0 0 38,50.495746 1.500006,1.500006 44.83751 0 0 36.495746,49 1.500006,1.500006 134.83751 0 0 35,50.504254 Z m 6,0 A 1.500006,1.500006 44.83751 0 0 42.504254,52 1.500006,1.500006 134.83751 0 0 44,50.495746 1.500006,1.500006 44.83751 0 0 42.495746,49 1.500006,1.500006 134.83751 0 0 41,50.504254 Z"
     id="path6"
     inkscape:path-effect="#path-effect6"
     inkscape:original-d="m 20,31 v 3 h 3 v -3 z m 6,0 v 3 h 3 v -3 z m 6,0 v 3 h 3 v -3 z m 6,0 v 3 h 3 v -3 z m -15,6 v 3 h 3 v -3 z m 6,0 v 3 h 3 v -3 z m 6,0 v 3 h 3 v -3 z m 6,0 v 3 h 3 v -3 z m -21,6 v 3 h 3 v -3 z m 6,0 v 3 h 3 v -3 z m 6,0 v 3 h 3 v -3 z m 6,0 v 3 h 3 v -3 z m -15,6 v 3 h 3 v -3 z m 6,0 v 3 h 3 v -3 z m 6,0 v 3 h 3 v -3 z m 6,0 v 3 h 3 v -3 z" />
</svg>
