<?xml version="1.0" encoding="UTF-8" standalone="no"?>
<svg
   width="64"
   height="64"
   version="1.1"
   id="svg6"
   sodipodi:docname="text-r.svg"
   inkscape:version="1.4 (e7c3feb100, 2024-10-09)"
   xmlns:inkscape="http://www.inkscape.org/namespaces/inkscape"
   xmlns:sodipodi="http://sodipodi.sourceforge.net/DTD/sodipodi-0.dtd"
   xmlns:xlink="http://www.w3.org/1999/xlink"
   xmlns="http://www.w3.org/2000/svg"
   xmlns:svg="http://www.w3.org/2000/svg">
  <defs
     id="defs6">
    <inkscape:path-effect
       effect="fillet_chamfer"
       id="path-effect1"
       is_visible="true"
       lpeversion="1"
       nodesatellites_param="F,0,0,1,0,0,0,1 @ F,0,0,1,0,0,0,1 @ F,0,0,1,0,0,0,1 @ F,0,0,1,0,0,0,1 @ F,0,0,1,0,0,0,1 @ F,0,0,1,0,2.0958931,0,1 @ F,0,0,1,0,0,0,1 @ F,0,0,1,0,0,0,1 @ F,0,0,1,0,0,0,1 @ F,0,0,1,0,4.0017435,0,1 @ F,0,0,1,0,4.0017435,0,1 @ F,0,0,1,0,4.0017435,0,1 @ F,0,0,1,0,0,0,1 @ F,0,0,1,0,0,0,1 @ F,0,0,1,0,0,0,1 | F,0,0,1,0,0,0,1 @ F,0,0,1,0,0,0,1 @ F,0,0,1,0,0,0,1 @ F,0,0,1,0,0,0,1 @ F,0,0,1,0,0,0,1"
       radius="0"
       unit="px"
       method="auto"
       mode="F"
       chamfer_steps="1"
       flexible="false"
       use_knot_distance="true"
       apply_no_radius="true"
       apply_with_radius="true"
       only_selected="false"
       hide_knots="false" />
    <radialGradient
       inkscape:collect="always"
       xlink:href="#linearGradient2"
       id="radialGradient9"
       cx="20.238163"
       cy="45.446491"
       fx="20.238163"
       fy="45.446491"
       r="22"
       gradientTransform="matrix(2.2768343,-1.3145309,1.6730393,2.8977891,-103.5617,-78.365997)"
       gradientUnits="userSpaceOnUse" />
    <linearGradient
       id="linearGradient2"
       inkscape:collect="always">
      <stop
         style="stop-color:#00b1ff;stop-opacity:1;"
         offset="0"
         id="stop1" />
      <stop
         style="stop-color:#136dff;stop-opacity:1;"
         offset="1"
         id="stop2" />
    </linearGradient>
  </defs>
  <sodipodi:namedview
     id="namedview6"
     pagecolor="#ffffff"
     bordercolor="#000000"
     borderopacity="0.25"
     inkscape:showpageshadow="2"
     inkscape:pageopacity="0.0"
     inkscape:pagecheckerboard="0"
     inkscape:deskcolor="#d1d1d1"
     inkscape:zoom="13.09375"
     inkscape:cx="34.749403"
     inkscape:cy="29.785203"
     inkscape:window-width="1920"
     inkscape:window-height="1014"
     inkscape:window-x="0"
     inkscape:window-y="0"
     inkscape:window-maximized="1"
     inkscape:current-layer="svg6" />
  <g
     id="g2"
     transform="translate(0.0397662,0.06140005)">
    <path
       style="fill:url(#radialGradient9)"
       d="m 12.710234,3.9385999 c -1.5235,0 -2.7500004,1.2487999 -2.7500004,2.7999999 V 57.1386 c 0,1.55008 1.2265004,2.8 2.7500004,2.8 h 38.5 c 1.5224,0 2.75,-1.24992 2.75,-2.8 v -35.2 l -18,-18.0000001 z"
       id="path2-6"
       sodipodi:nodetypes="ssssssccs" />
    <path
       style="opacity:0.533302;fill:#ffffff;fill-opacity:1"
       d="m 53.960234,21.9386 -18,-18.0000001 V 19.1261 c 0,1.55925 1.2555,2.8125 2.8125,2.8125 z"
       id="path4-5" />
  </g>
  <path
     style="fill:#ffffff;fill-opacity:1;fill-rule:evenodd"
     d="m 37.789326,42.80042 c 0,0 0.756821,-0.0224 1.511563,0.37184 0.261916,0.1358 0.715057,0.41048 1.041932,0.7693 0.320184,0.35154 0.476294,0.70784 0.476294,0.70784 L 45.999973,54 H 38.51689 C 37.35936,54 35.996057,53.163177 35.50151,52.116662 34.258511,49.486339 33.054749,46.721371 31.409824,44.4719 31.003402,44.1317 30.665009,43.982345 30.263084,44.0001 H 27.9994 l 7.2e-4,5.992697 A 4.0012631,4.0012631 134.99656 0 1 23.998857,53.99454 4.0003003,4.0003003 45.020675 0 1 20,49.992797 V 30.001884 a 4.0017435,4.0017435 135 0 1 4.001744,-4.001744 h 10.012541 c 1.605984,0 8.948008,1.4 9.185429,8.4 -0.237516,7 -5.410871,8.4 -5.410871,8.4 z M 28.000399,30.99818 V 39 h 5.683652 c 0,0 2.715949,-0.39958 2.715949,-4.17286 0,-3.22672 -2.715949,-3.82532 -2.715949,-3.82532 z"
     id="path6"
     inkscape:path-effect="#path-effect1"
     inkscape:original-d="m 37.789326,42.80042 c 0,0 0.756821,-0.0224 1.511563,0.37184 0.261916,0.1358 0.715057,0.41048 1.041932,0.7693 0.320184,0.35154 0.476294,0.70784 0.476294,0.70784 L 45.999973,54 h -9.578976 c -1.603794,-3.1402 -2.966746,-6.7323 -5.011173,-9.5281 -0.406422,-0.3402 -0.744815,-0.489555 -1.14674,-0.4718 H 27.9994 l 0.0012,9.99444 H 20 v -27.9944 h 14.014285 c 1.605984,0 8.948008,1.4 9.185429,8.4 -0.237516,7 -5.410871,8.4 -5.410871,8.4 z M 28.000399,30.99818 V 39 h 5.683652 c 0,0 2.715949,-0.39958 2.715949,-4.17286 0,-3.22672 -2.715949,-3.82532 -2.715949,-3.82532 z"
     sodipodi:nodetypes="ccccccccccccsccccccscc" />
</svg>
