<?xml version="1.0" encoding="UTF-8" standalone="no"?>
<svg
   width="64"
   height="64"
   version="1.1"
   id="svg6"
   sodipodi:docname="text-x-eiffel.svg"
   inkscape:version="1.4 (e7c3feb100, 2024-10-09)"
   xmlns:inkscape="http://www.inkscape.org/namespaces/inkscape"
   xmlns:sodipodi="http://sodipodi.sourceforge.net/DTD/sodipodi-0.dtd"
   xmlns:xlink="http://www.w3.org/1999/xlink"
   xmlns="http://www.w3.org/2000/svg"
   xmlns:svg="http://www.w3.org/2000/svg">
  <defs
     id="defs6">
    <radialGradient
       inkscape:collect="always"
       xlink:href="#linearGradient2"
       id="radialGradient9"
       cx="20.238163"
       cy="45.446491"
       fx="20.238163"
       fy="45.446491"
       r="22"
       gradientTransform="matrix(2.2768343,-1.3145309,1.6730393,2.8977891,-103.5617,-78.365997)"
       gradientUnits="userSpaceOnUse" />
    <linearGradient
       id="linearGradient2"
       inkscape:collect="always">
      <stop
         style="stop-color:#00b1ff;stop-opacity:1;"
         offset="0"
         id="stop1" />
      <stop
         style="stop-color:#136dff;stop-opacity:1;"
         offset="1"
         id="stop2" />
    </linearGradient>
  </defs>
  <sodipodi:namedview
     id="namedview6"
     pagecolor="#ffffff"
     bordercolor="#000000"
     borderopacity="0.25"
     inkscape:showpageshadow="2"
     inkscape:pageopacity="0.0"
     inkscape:pagecheckerboard="0"
     inkscape:deskcolor="#d1d1d1"
     inkscape:zoom="17.8125"
     inkscape:cx="32"
     inkscape:cy="32"
     inkscape:current-layer="svg6" />
  <g
     id="g1">
    <g
       id="g3">
      <g
         id="g2"
         transform="translate(0.0397662,0.06140005)">
        <path
           style="fill:url(#radialGradient9)"
           d="m 12.710234,3.9385999 c -1.5235,0 -2.7500004,1.2487999 -2.7500004,2.7999999 V 57.1386 c 0,1.55008 1.2265004,2.8 2.7500004,2.8 h 38.5 c 1.5224,0 2.75,-1.24992 2.75,-2.8 v -35.2 l -18,-18.0000001 z"
           id="path2-6"
           sodipodi:nodetypes="ssssssccs" />
        <path
           style="opacity:0.533302;fill:#ffffff;fill-opacity:1"
           d="m 53.960234,21.9386 -18,-18.0000001 V 19.1261 c 0,1.55925 1.2555,2.8125 2.8125,2.8125 z"
           id="path4-5" />
      </g>
    </g>
  </g>
  <path
     id="polygon2"
     style="fill:#ffffff"
     d="m 39.215976,28.000016 c -1.880414,0.430462 -4.547812,1.076488 -6.603148,1.420858 l 1.66125,1.937072 z m 2.361624,0.12948 1.223946,4.692188 3.41133,-1.506612 z m -0.743934,0.300986 -2.754514,6.414032 3.935754,-1.721842 z m -0.91817,0.08658 -5.11614,3.486564 2.405184,2.840872 z m -7.95863,1.377136 -3.105554,5.252126 4.766804,-3.272174 z m 14.343128,2.238902 -3.323356,1.462894 1.268358,4.950296 z m -12.156598,0.343864 -5.073434,3.486562 7.434204,-0.688568 z m 8.090164,1.420856 -4.067288,1.764722 5.379206,3.400806 z m -6.34094,2.152302 -7.609296,0.68857 2.098558,3.185576 z m 2.098558,0.343866 1.355478,5.295002 4.023728,-1.894196 z m -1.574132,0.258948 -5.597858,3.917026 2.361624,3.572316 0.08796,-0.1715 v 0.04286 z m 0.831052,0.12864 -3.192676,7.404426 4.548156,-2.152304 z m -9.620734,0.387582 -4.766806,8.049278 6.865364,-4.820824 z m 16.005232,3.357928 -4.110848,1.937074 1.574132,6.069328 z M 30.163228,41.043302 23.166332,45.9936 32.56841,44.70222 Z m 8.659004,1.764722 -4.72325,2.2389 6.297378,3.874146 z m -6.996898,2.712238 -9.489202,1.291382 2.667396,3.701796 z m 2.230088,0.300986 2.011438,6.069326 4.3295,-2.152302 z M 33.268784,46.036478 29.944576,54 h 1.924318 l 3.498448,-1.76472 z m -0.874612,0.04286 -6.909776,5.079772 2.011438,2.840872 h 1.44345 z m -10.713996,1.162748 -3.980171,6.757894 h 2.536717 l 4.11085,-3.013222 z m 18.804158,3.31421 -4.154406,2.109426 0.437306,1.334258 h 2.667394 z M 24.828438,51.632448 21.5922,53.99998 h 4.941902 z m 10.757558,1.377978 -1.96788,0.989554 h 2.318064 z" />
</svg>
