<?xml version="1.0" encoding="UTF-8" standalone="no"?>
<svg
   width="64"
   height="64"
   version="1.1"
   id="svg7"
   sodipodi:docname="text-x-fortran.svg"
   inkscape:version="1.4 (e7c3feb100, 2024-10-09)"
   xmlns:inkscape="http://www.inkscape.org/namespaces/inkscape"
   xmlns:sodipodi="http://sodipodi.sourceforge.net/DTD/sodipodi-0.dtd"
   xmlns:xlink="http://www.w3.org/1999/xlink"
   xmlns="http://www.w3.org/2000/svg"
   xmlns:svg="http://www.w3.org/2000/svg">
  <defs
     id="defs7">
    <radialGradient
       inkscape:collect="always"
       xlink:href="#linearGradient7"
       id="radialGradient8"
       cx="17.222261"
       cy="49.789066"
       fx="17.222261"
       fy="49.789066"
       r="22"
       gradientTransform="matrix(2.3473368,-1.3552355,1.7248452,2.9875196,-97.08262,-74.764958)"
       gradientUnits="userSpaceOnUse" />
    <linearGradient
       id="linearGradient7"
       inkscape:collect="always">
      <stop
         style="stop-color:#656bff;stop-opacity:1;"
         offset="0"
         id="stop7" />
      <stop
         style="stop-color:#a057ff;stop-opacity:1;"
         offset="1"
         id="stop8" />
    </linearGradient>
  </defs>
  <sodipodi:namedview
     id="namedview7"
     pagecolor="#ffffff"
     bordercolor="#000000"
     borderopacity="0.25"
     inkscape:showpageshadow="2"
     inkscape:pageopacity="0.0"
     inkscape:pagecheckerboard="0"
     inkscape:deskcolor="#d1d1d1"
     inkscape:zoom="17.8125"
     inkscape:cx="32"
     inkscape:cy="32"
     inkscape:current-layer="svg7" />
  <g
     id="g1">
    <g
       id="g2">
      <g
         id="g7"
         transform="translate(-12,4)">
        <path
           style="fill:url(#radialGradient8)"
           d="M 24.75,0 C 23.2265,0 22,1.2488 22,2.8 v 50.4 c 0,1.55008 1.2265,2.8 2.75,2.8 h 38.5 C 64.7724,56 66,54.75008 66,53.2 V 18 L 48,0 Z"
           id="path2"
           sodipodi:nodetypes="ssssssccs" />
        <path
           style="opacity:0.448535;fill:#ffffff;fill-opacity:1"
           d="M 66,18 48,0 V 15.1875 C 48,16.74675 49.2555,18 50.8125,18 Z"
           id="path4" />
      </g>
    </g>
  </g>
  <path
     style="fill:#ffffff"
     d="m 34.000048,52.611964 -0.03846,-1.388018 -1.94458,-0.0897 c -1.989982,-0.0918 -1.310506,-0.224692 -1.665174,-0.603684 -0.360598,-0.941048 -0.351546,-3.097832 -0.367258,-4.547972 l -0.04556,-4.08337 0.921966,0.09338 c 2.19075,0.27788 3.746352,1.180894 3.853346,2.35243 l 0.08346,1.455748 H 36.19354 38 v -5.139346 -6.572408 h -1.759026 c -0.741578,0 -1.348318,0.05296 -1.348318,0.11766 0,0.06472 -0.08932,0.63214 -0.1985,1.260922 -1.084972,2.656572 -2.402772,2.424316 -4.731456,2.619368 v -3.177086 -4.357952 l 3.486736,0.06818 c 2.38834,0.04058 4.208582,0.12974 4.499008,0.220346 1.886058,0.588494 2.771072,2.34055 3.158424,6.611316 l 0.08904,0.548444 H 42.597954 44 V 33.416668 28.000004 H 31.999998 20.000002 v 1.406896 1.406892 l 1.449438,0.05904 c 1.607948,0.0655 2.403262,0.247344 2.55056,0.772774 v 9.422096 c 0,9.728558 -0.0124,9.555716 -0.703732,9.819726 -0.17928,0.06844 -1.097384,0.16592 -1.877638,0.21659 L 20,51.196138 V 52.598068 54 h 6.948538 7.089874 z"
     id="path7" />
</svg>
