<?xml version="1.0" encoding="UTF-8" standalone="no"?>
<svg
   width="64"
   height="64"
   version="1.1"
   id="svg9"
   sodipodi:docname="application-ld+json.svg"
   inkscape:version="1.3.2 (091e20ef0f, 2023-11-25, custom)"
   xmlns:inkscape="http://www.inkscape.org/namespaces/inkscape"
   xmlns:sodipodi="http://sodipodi.sourceforge.net/DTD/sodipodi-0.dtd"
   xmlns:xlink="http://www.w3.org/1999/xlink"
   xmlns="http://www.w3.org/2000/svg"
   xmlns:svg="http://www.w3.org/2000/svg">
  <defs
     id="defs9">
    <radialGradient
       inkscape:collect="always"
       xlink:href="#linearGradient2"
       id="radialGradient9"
       cx="20.238163"
       cy="45.446491"
       fx="20.238163"
       fy="45.446491"
       r="22"
       gradientTransform="matrix(2.2768343,-1.3145309,1.6730393,2.8977891,-103.5617,-78.365997)"
       gradientUnits="userSpaceOnUse" />
    <linearGradient
       id="linearGradient2"
       inkscape:collect="always">
      <stop
         style="stop-color:#00b1ff;stop-opacity:1;"
         offset="0"
         id="stop1" />
      <stop
         style="stop-color:#136dff;stop-opacity:1;"
         offset="1"
         id="stop2" />
    </linearGradient>
  </defs>
  <sodipodi:namedview
     id="namedview9"
     pagecolor="#ffffff"
     bordercolor="#000000"
     borderopacity="0.25"
     inkscape:showpageshadow="2"
     inkscape:pageopacity="0.0"
     inkscape:pagecheckerboard="0"
     inkscape:deskcolor="#d1d1d1"
     inkscape:zoom="13.890625"
     inkscape:cx="32.071991"
     inkscape:cy="32.035996"
     inkscape:window-width="1920"
     inkscape:window-height="1014"
     inkscape:window-x="0"
     inkscape:window-y="0"
     inkscape:window-maximized="1"
     inkscape:current-layer="svg9" />
  <g
     id="g1"
     transform="translate(0.0397662,0.06140005)">
    <path
       style="fill:url(#radialGradient9)"
       d="m 12.710234,3.9385999 c -1.5235,0 -2.7500004,1.2487999 -2.7500004,2.7999999 V 57.1386 c 0,1.55008 1.2265004,2.8 2.7500004,2.8 h 38.5 c 1.5224,0 2.75,-1.24992 2.75,-2.8 v -35.2 l -18,-18.0000001 z"
       id="path2-6"
       sodipodi:nodetypes="ssssssccs" />
    <path
       style="opacity:0.533302;fill:#ffffff;fill-opacity:1"
       d="m 53.960234,21.9386 -18,-18.0000001 V 19.1261 c 0,1.55925 1.2555,2.8125 2.8125,2.8125 z"
       id="path4-5" />
  </g>
  <path
     style="fill:#ffffff;fill-opacity:1;opacity:0.45734079"
     d="m 36.077736,28.604 c 0,0 -2.211334,3.836604 -3.773844,5.366554 -0.960228,0.940228 -2.119798,1.700574 -3.346674,2.249034 -2.586528,1.156278 -8.23797,2.096268 -8.23797,2.096268 l 1.45126,1.983106 -1.612508,4.399052 c 0,0 5.072184,0.640636 7.51375,1.357908 1.233702,0.36243 2.496484,0.756478 3.56167,1.476724 1.831192,1.23819 4.636686,4.741354 4.636686,4.741354 l 1.114616,-2.232056 3.94359,-0.248952 c 0,0 -1.457186,-4.896862 -1.785086,-7.42039 -0.16568,-1.275118 -0.317386,-2.59356 -0.0877,-3.858716 0.394882,-2.174964 2.469694,-6.153012 2.469694,-6.153012 l -3.802136,-0.18672 z m -1.179684,6.696176 c 0.202116,0.0209 0.332274,0.06426 0.393234,0.0905 0.15688,0.11976 0.318844,0.231924 0.489406,0.333814 0.32448,0.19336 0.65725,0.346334 0.995798,0.458304 0.396438,0.423782 1.12655,1.626554 1.202316,4.789444 0.07746,3.187064 -0.756044,4.414428 -1.210806,4.848854 -0.468686,0.238296 -0.907758,0.556066 -1.301316,0.942048 -0.432206,0.17162 -1.664444,0.362238 -4.263268,-1.202308 -2.814346,-1.696118 -3.231878,-3.113726 -3.292916,-3.539046 0.04002,-0.516008 0.0138,-1.031156 -0.06506,-1.533304 l 0.0174,0.0311 c 0,0 -0.23004,-1.37906 2.990222,-3.623916 2.161714,-1.505946 3.43897,-1.65799 4.045428,-1.595534 z"
     id="path6" />
  <path
     id="circle7"
     style="fill:#ffffff;fill-opacity:1"
     d="M 39 27 A 5 5 0 0 0 34 32 A 5 5 0 0 0 39 37 A 5 5 0 0 0 44 32 A 5 5 0 0 0 39 27 z M 23 37 A 5 5 0 0 0 18 42 A 5 5 0 0 0 23 47 A 5 5 0 0 0 28 42 A 5 5 0 0 0 23 37 z M 39 45 A 5 5 0 0 0 34 50 A 5 5 0 0 0 39 55 A 5 5 0 0 0 44 50 A 5 5 0 0 0 39 45 z " />
</svg>
