<?xml version="1.0" encoding="UTF-8" standalone="no"?>
<svg
   width="64"
   height="64"
   version="1.1"
   id="svg7"
   sodipodi:docname="text-vnd.wap.wmlscript.svg"
   inkscape:version="1.4 (e7c3feb100, 2024-10-09)"
   xmlns:inkscape="http://www.inkscape.org/namespaces/inkscape"
   xmlns:sodipodi="http://sodipodi.sourceforge.net/DTD/sodipodi-0.dtd"
   xmlns:xlink="http://www.w3.org/1999/xlink"
   xmlns="http://www.w3.org/2000/svg"
   xmlns:svg="http://www.w3.org/2000/svg">
  <defs
     id="defs7">
    <radialGradient
       inkscape:collect="always"
       xlink:href="#linearGradient8-9"
       id="radialGradient9-2-3"
       cx="21.477476"
       cy="23.351734"
       fx="21.477476"
       fy="23.351734"
       r="22"
       gradientTransform="matrix(5.2437612,-5.1735227e-8,0,4.286547,-93.16866,-54.97246)"
       gradientUnits="userSpaceOnUse" />
    <linearGradient
       id="linearGradient8-9"
       inkscape:collect="always">
      <stop
         style="stop-color:#494949;stop-opacity:1;"
         offset="0"
         id="stop8-1" />
      <stop
         style="stop-color:#9c9c9c;stop-opacity:1;"
         offset="1"
         id="stop9-2" />
    </linearGradient>
  </defs>
  <sodipodi:namedview
     id="namedview7"
     pagecolor="#ffffff"
     bordercolor="#000000"
     borderopacity="0.25"
     inkscape:showpageshadow="2"
     inkscape:pageopacity="0.0"
     inkscape:pagecheckerboard="0"
     inkscape:deskcolor="#d1d1d1"
     inkscape:zoom="17.8125"
     inkscape:cx="32"
     inkscape:cy="32"
     inkscape:current-layer="svg7" />
  <g
     id="g1">
    <g
       id="g5">
      <g
         id="g4">
        <g
           id="g3">
          <g
             id="g2">
            <path
               style="fill:url(#radialGradient9-2-3);fill-opacity:1"
               d="M 12.75,4 C 11.2265,4 10,5.2488 10,6.8 v 50.4 c 0,1.5512 1.2265,2.8 2.75,2.8 h 38.5 C 52.7735,60 54,58.7512 54,57.2 V 20 L 38,4 Z"
               id="path2-0-5"
               sodipodi:nodetypes="ssssssccs" />
            <path
               style="opacity:0.36674;fill:#ffffff;fill-opacity:1"
               d="M 38,4 V 17.333333 C 38,18.806133 39.193906,20 40.666666,20 H 54 Z"
               id="path4-9" />
          </g>
        </g>
      </g>
    </g>
  </g>
  <path
     style="fill-rule:evenodd;fill:#ffffff"
     d="M 24.642578 28 A 1.365308 1.4042805 0 0 0 24.513672 28.003906 A 1.365308 1.4042805 0 0 0 24.152344 28.080078 C 24.152344 28.080078 23.298343 28.369868 22.308594 28.90625 C 21.317479 29.442632 20.113897 30.191468 19.339844 31.480469 C 18.478421 32.914096 18.804692 34.448879 19.072266 35.367188 C 19.341204 36.284092 19.488696 36.687172 19.240234 37.300781 C 19.1201 37.601267 18.379858 38.257412 17.570312 38.666016 C 16.759401 39.074621 16.023438 39.289062 16.023438 39.289062 A 1.365308 1.4042805 0 0 0 15.046875 41.013672 A 1.365308 1.4042805 0 0 0 16.023438 42.701172 C 16.023438 42.701172 16.7594 42.915614 17.570312 43.324219 C 18.379859 43.73142 19.1201 44.388968 19.240234 44.689453 C 19.488696 45.304466 19.341204 45.704739 19.072266 46.623047 C 18.804692 47.541354 18.478421 49.074734 19.339844 50.509766 C 20.113897 51.797362 21.317479 52.547602 22.308594 53.083984 C 23.298343 53.618961 24.152344 53.910156 24.152344 53.910156 A 1.365308 1.4042805 0 1 0 25.011719 51.246094 C 25.011719 51.246094 24.362321 51.02366 23.580078 50.599609 C 22.797834 50.176963 21.960892 49.52215 21.666016 49.029297 C 21.331548 48.471854 21.440989 48.280047 21.689453 47.427734 C 21.93928 46.575421 22.38756 45.162597 21.763672 43.615234 C 21.212143 42.244794 20.110066 41.517885 19.123047 40.994141 C 20.110066 40.471801 21.212143 39.745441 21.763672 38.375 C 22.387555 36.827638 21.939275 35.41286 21.689453 34.560547 C 21.440992 33.708233 21.331551 33.515023 21.666016 32.958984 C 21.960892 32.466131 22.797834 31.814675 23.580078 31.390625 C 24.362321 30.967979 25.011719 30.744141 25.011719 30.744141 A 1.365308 1.4042805 0 0 0 24.642578 28 z M 39.351562 28 A 1.3653073 1.404279 0 0 0 38.988281 30.744141 C 38.988281 30.744141 39.63768 30.96798 40.419922 31.390625 C 41.202165 31.814676 42.039697 32.466131 42.335938 32.958984 C 42.670404 33.515023 42.559005 33.708234 42.310547 34.560547 C 42.062086 35.412859 41.613806 36.82764 42.236328 38.375 C 42.789222 39.74544 43.889935 40.471801 44.876953 40.994141 C 43.889935 41.517885 42.789222 42.244795 42.236328 43.615234 C 41.61381 45.162595 42.06209 46.575422 42.310547 47.427734 C 42.559008 48.280046 42.670407 48.473807 42.335938 49.03125 C 42.039696 49.524102 41.202165 50.176963 40.419922 50.599609 C 39.63768 51.023659 38.988281 51.246094 38.988281 51.246094 A 1.3653073 1.404279 0 1 0 39.847656 53.910156 C 39.847656 53.910156 40.70361 53.618961 41.693359 53.083984 C 42.683108 52.547603 43.886105 51.797361 44.660156 50.509766 C 45.521579 49.074737 45.195307 47.541353 44.927734 46.623047 C 44.66016 45.70474 44.512671 45.304465 44.759766 44.689453 C 44.881267 44.388967 45.62073 43.73142 46.431641 43.324219 C 47.241188 42.915615 47.976563 42.701172 47.976562 42.701172 A 1.3653073 1.404279 0 0 0 48.953125 41.013672 A 1.3653073 1.404279 0 0 0 47.976562 39.289062 C 47.976562 39.289062 47.241188 39.07462 46.431641 38.666016 C 45.62073 38.257412 44.881267 37.601266 44.759766 37.300781 C 44.512671 36.687172 44.660157 36.284089 44.927734 35.367188 C 45.195307 34.448881 45.521579 32.914094 44.660156 31.480469 C 43.886105 30.191469 42.683108 29.44263 41.693359 28.90625 C 40.70361 28.369868 39.847656 28.080078 39.847656 28.080078 A 1.3653073 1.404279 0 0 0 39.488281 28.003906 A 1.3653073 1.404279 0 0 0 39.357422 28 A 1.3653073 1.404279 0 0 0 39.351562 28 z M 32 34 A 3.0000002 3.0000002 0 0 0 29 37 A 3.0000002 3.0000002 0 0 0 32 40 A 3.0000002 3.0000002 0 0 0 35 37 A 3.0000002 3.0000002 0 0 0 32 34 z M 32 41.976562 C 30.3425 41.976562 29 43.319062 29 44.976562 C 29 46.634062 30.3425 47.976562 32 47.976562 C 33.0605 47.976562 33.5 50.976562 33.5 50.976562 C 33.5 50.976562 35 45.573561 35 44.976562 C 35 43.319062 33.657501 41.976562 32 41.976562 z"
     id="path7" />
</svg>
