<?xml version="1.0" encoding="UTF-8" standalone="no"?>
<svg
   width="64"
   height="64"
   version="1.1"
   id="svg10"
   sodipodi:docname="1cedt.svg"
   inkscape:version="1.3.2 (091e20ef0f, 2023-11-25, custom)"
   xmlns:inkscape="http://www.inkscape.org/namespaces/inkscape"
   xmlns:sodipodi="http://sodipodi.sourceforge.net/DTD/sodipodi-0.dtd"
   xmlns:xlink="http://www.w3.org/1999/xlink"
   xmlns="http://www.w3.org/2000/svg"
   xmlns:svg="http://www.w3.org/2000/svg">
  <defs
     id="defs10">
    <inkscape:path-effect
       effect="fillet_chamfer"
       id="path-effect17"
       is_visible="true"
       lpeversion="1"
       nodesatellites_param="F,0,0,1,0,3.0071877,0,1 @ F,0,0,1,0,3.0071877,0,1 @ F,0,0,1,0,3.0071877,0,1 @ F,0,0,1,0,3.0071877,0,1 @ F,0,0,1,0,3.0071877,0,1 @ F,0,0,1,0,3.0071877,0,1 | F,0,0,1,0,1.2419172,0,1 @ F,0,0,1,0,1.2419172,0,1 @ F,0,0,1,0,1.2419172,0,1 @ F,0,0,1,0,1.2419172,0,1 @ F,0,0,1,0,1.1240049,0,1 @ F,0,0,1,0,0,0,1 @ F,0,0,1,0,0,0,1 @ F,0,1,1,0,1.1240049,0,1 @ F,0,0,1,0,1.2419172,0,1"
       radius="0"
       unit="px"
       method="auto"
       mode="F"
       chamfer_steps="1"
       flexible="false"
       use_knot_distance="true"
       apply_no_radius="true"
       apply_with_radius="true"
       only_selected="false"
       hide_knots="false" />
    <inkscape:path-effect
       effect="fillet_chamfer"
       id="path-effect16"
       is_visible="true"
       lpeversion="1"
       nodesatellites_param="F,0,0,1,0,0,0,1 @ F,0,0,1,0,0,0,1 @ F,0,0,1,0,0,0,1 @ F,0,0,1,0,0,0,1 @ F,0,0,1,0,0,0,1 @ F,0,0,1,0,0,0,1 | F,0,0,1,0,0,0,1 @ F,0,0,1,0,0,0,1 @ F,0,0,1,0,0,0,1 @ F,0,0,1,0,0,0,1 @ F,0,0,1,0,0,0,1 @ F,0,0,1,0,0,0,1 @ F,0,0,1,0,0,0,1 @ F,0,0,1,0,0,0,1 @ F,0,0,1,0,0,0,1"
       radius="0"
       unit="px"
       method="auto"
       mode="F"
       chamfer_steps="1"
       flexible="false"
       use_knot_distance="true"
       apply_no_radius="true"
       apply_with_radius="true"
       only_selected="false"
       hide_knots="false" />
    <inkscape:path-effect
       effect="fillet_chamfer"
       id="path-effect15"
       is_visible="true"
       lpeversion="1"
       nodesatellites_param="F,0,0,1,0,3.4964181,0,1 @ F,0,0,1,0,3.4964181,0,1 @ F,0,0,1,0,3.4964181,0,1 @ F,0,0,1,0,3.4964181,0,1 @ F,0,0,1,0,3.4964181,0,1 @ F,0,0,1,0,3.4964181,0,1 | F,0,0,1,0,1.3134311,0,1 @ F,0,0,1,0,0.85230402,0,1 @ F,0,0,1,0,0,0,1 @ F,0,0,1,0,2.167911,0,1 @ F,0,0,1,0,0,0,1 @ F,0,0,1,0,0.85230402,0,1 @ F,0,0,1,0,1.3134311,0,1 @ F,0,0,1,0,1.3134311,0,1 @ F,0,0,1,0,1.3134311,0,1 @ F,0,0,1,0,1.3134311,0,1"
       radius="0"
       unit="px"
       method="auto"
       mode="F"
       chamfer_steps="1"
       flexible="false"
       use_knot_distance="true"
       apply_no_radius="true"
       apply_with_radius="true"
       only_selected="false"
       hide_knots="false" />
    <linearGradient
       id="linearGradient13"
       inkscape:collect="always">
      <stop
         style="stop-color:#676be6;stop-opacity:1;"
         offset="0"
         id="stop14" />
      <stop
         style="stop-color:#8f7fa1;stop-opacity:1;"
         offset="1"
         id="stop15" />
    </linearGradient>
    <linearGradient
       id="linearGradient12"
       inkscape:collect="always">
      <stop
         style="stop-color:#0dafd7;stop-opacity:1;"
         offset="0"
         id="stop12" />
      <stop
         style="stop-color:#0d65d7;stop-opacity:1;"
         offset="1"
         id="stop13" />
    </linearGradient>
    <radialGradient
       inkscape:collect="always"
       xlink:href="#linearGradient12"
       id="radialGradient13"
       cx="21.867147"
       cy="26.782825"
       fx="21.867147"
       fy="26.782825"
       r="16.164062"
       gradientTransform="matrix(2.3974414,0,0,2.0764693,-30.558056,-28.935694)"
       gradientUnits="userSpaceOnUse" />
    <radialGradient
       inkscape:collect="always"
       xlink:href="#linearGradient13"
       id="radialGradient15"
       cx="20.339188"
       cy="49.950886"
       fx="20.339188"
       fy="49.950886"
       r="16.164062"
       gradientTransform="matrix(2.3910807,-1.3804911,1.1956694,2.0709602,-88.018197,-27.01734)"
       gradientUnits="userSpaceOnUse" />
    <inkscape:path-effect
       effect="fillet_chamfer"
       id="path-effect15-5"
       is_visible="true"
       lpeversion="1"
       nodesatellites_param="F,0,0,1,0,3.4964181,0,1 @ F,0,0,1,0,3.4964181,0,1 @ F,0,0,1,0,3.4964181,0,1 @ F,0,0,1,0,3.4964181,0,1 @ F,0,0,1,0,3.4964181,0,1 @ F,0,0,1,0,3.4964181,0,1 | F,0,0,1,0,1.3134311,0,1 @ F,0,0,1,0,0.85230402,0,1 @ F,0,0,1,0,0,0,1 @ F,0,0,1,0,2.167911,0,1 @ F,0,0,1,0,0,0,1 @ F,0,0,1,0,0.85230402,0,1 @ F,0,0,1,0,1.3134311,0,1 @ F,0,0,1,0,1.3134311,0,1 @ F,0,0,1,0,1.3134311,0,1 @ F,0,0,1,0,1.3134311,0,1"
       radius="0"
       unit="px"
       method="auto"
       mode="F"
       chamfer_steps="1"
       flexible="false"
       use_knot_distance="true"
       apply_no_radius="true"
       apply_with_radius="true"
       only_selected="false"
       hide_knots="false" />
    <inkscape:path-effect
       effect="fillet_chamfer"
       id="path-effect17-2"
       is_visible="true"
       lpeversion="1"
       nodesatellites_param="F,0,0,1,0,3.0071877,0,1 @ F,0,0,1,0,3.0071877,0,1 @ F,0,0,1,0,3.0071877,0,1 @ F,0,0,1,0,3.0071877,0,1 @ F,0,0,1,0,3.0071877,0,1 @ F,0,0,1,0,3.0071877,0,1 | F,0,0,1,0,1.2419172,0,1 @ F,0,0,1,0,1.2419172,0,1 @ F,0,0,1,0,1.2419172,0,1 @ F,0,0,1,0,1.2419172,0,1 @ F,0,0,1,0,1.1240049,0,1 @ F,0,0,1,0,0,0,1 @ F,0,0,1,0,0,0,1 @ F,0,1,1,0,1.1240049,0,1 @ F,0,0,1,0,1.2419172,0,1"
       radius="0"
       unit="px"
       method="auto"
       mode="F"
       chamfer_steps="1"
       flexible="false"
       use_knot_distance="true"
       apply_no_radius="true"
       apply_with_radius="true"
       only_selected="false"
       hide_knots="false" />
    <filter
       inkscape:collect="always"
       style="color-interpolation-filters:sRGB"
       id="filter19"
       x="-0.071880055"
       y="-0.078859682"
       width="1.1437601"
       height="1.1577194">
      <feGaussianBlur
         inkscape:collect="always"
         stdDeviation="0.81586294"
         id="feGaussianBlur19" />
    </filter>
    <filter
       inkscape:collect="always"
       style="color-interpolation-filters:sRGB"
       id="filter20"
       x="-0.092696639"
       y="-0.092696639"
       width="1.1853933"
       height="1.1853933">
      <feGaussianBlur
         inkscape:collect="always"
         stdDeviation="2.0587549"
         id="feGaussianBlur20" />
    </filter>
    <filter
       inkscape:collect="always"
       style="color-interpolation-filters:sRGB"
       id="filter1"
       x="-0.070882278"
       y="-0.077101951"
       width="1.1417646"
       height="1.1542039">
      <feGaussianBlur
         inkscape:collect="always"
         stdDeviation="0.7953561"
         id="feGaussianBlur1" />
    </filter>
  </defs>
  <sodipodi:namedview
     id="namedview10"
     pagecolor="#505050"
     bordercolor="#eeeeee"
     borderopacity="1"
     inkscape:showpageshadow="0"
     inkscape:pageopacity="0"
     inkscape:pagecheckerboard="0"
     inkscape:deskcolor="#505050"
     inkscape:zoom="6.7421875"
     inkscape:cx="11.272306"
     inkscape:cy="33.149479"
     inkscape:window-width="1920"
     inkscape:window-height="1020"
     inkscape:window-x="0"
     inkscape:window-y="0"
     inkscape:window-maximized="1"
     inkscape:current-layer="svg10" />
  <path
     id="circle2"
     style="fill:#e4e4e4;stroke-width:0.959984"
     d="M 58.879561,32 A 26.879561,26.879561 0 0 1 32,58.879561 26.879561,26.879561 0 0 1 5.1204387,32 26.879561,26.879561 0 0 1 32,5.1204387 26.879561,26.879561 0 0 1 58.879561,32 Z" />
  <path
     id="circle2-9"
     style="fill:none;stroke:#000000;stroke-width:0.5;stroke-dasharray:none;stroke-opacity:1;filter:url(#filter20)"
     d="M 60,32 A 28,28 0 0 1 32,60 28,28 0 0 1 4,32 28,28 0 0 1 32,3.9999999 28,28 0 0 1 60,32 Z"
     transform="matrix(0.95998433,0,0,0.95998433,1.3111358,1.2529721)" />
  <path
     d="m 18.94184,26.604371 -5.075087,8.791258 a 5.2091644,5.2091644 90 0 0 0,5.208742 l 5.075087,8.791258 A 5.2083207,5.2083207 30.001339 0 0 23.4525,52 h 10.149687 a 5.2083207,5.2083207 149.99866 0 0 4.51066,-2.604371 l 5.075087,-8.791258 a 5.2091644,5.2091644 90 0 0 0,-5.208742 L 38.112847,26.604371 A 5.2083207,5.2083207 30.001339 0 0 33.602187,24 H 23.4525 a 5.2083207,5.2083207 149.99866 0 0 -4.51066,2.604371 z M 23.995823,28 h 9.063041 a 2.1510516,2.1510516 30.000139 0 1 1.86287,1.075535 l 4.531532,7.84893 a 2.1510878,2.1510878 90 0 1 0,2.15107 l -4.531532,7.84893 A 2.1510516,2.1510516 149.99986 0 1 33.058864,48 H 26.190411 A 0.64860496,0.64860496 60.012984 0 1 25.62885,47.026838 l 4.824275,-8.347151 -3.464844,-2.003906 -4.826252,8.351043 a 0.64928959,0.64928959 0.0113754 0 1 -1.124453,-2.23e-4 l -3.436114,-5.951089 a 2.1509973,2.1509973 89.998952 0 1 -4e-5,-2.151047 l 4.531531,-7.84893 A 2.1510515,2.1510515 149.99986 0 1 23.995823,28 Z"
     style="fill:url(#radialGradient15)"
     id="path12"
     inkscape:path-effect="#path-effect17"
     inkscape:original-d="m 20.445312,24 -8.082031,14 8.082031,14 H 36.609375 L 44.691406,38 36.609375,24 Z m 2.308594,4 h 11.546875 l 5.773438,10 -5.773438,10 H 25.066406 L 30.453125,38.679687 26.988281,36.675781 21.599609,46 16.980469,38 Z"
     transform="matrix(0.95998433,0,0,0.95998433,1.2805014,1.2805014)" />
  <path
     d="m 18.94184,26.604371 -5.075087,8.791258 a 5.2091644,5.2091644 90 0 0 0,5.208742 l 5.075087,8.791258 A 5.2083207,5.2083207 30.001339 0 0 23.4525,52 h 10.149687 a 5.2083207,5.2083207 149.99866 0 0 4.51066,-2.604371 l 5.075087,-8.791258 a 5.2091644,5.2091644 90 0 0 0,-5.208742 L 38.112847,26.604371 A 5.2083207,5.2083207 30.001339 0 0 33.602187,24 H 23.4525 a 5.2083207,5.2083207 149.99866 0 0 -4.51066,2.604371 z M 23.995823,28 h 9.063041 a 2.1510516,2.1510516 30.000139 0 1 1.86287,1.075535 l 4.531532,7.84893 a 2.1510878,2.1510878 90 0 1 0,2.15107 l -4.531532,7.84893 A 2.1510516,2.1510516 149.99986 0 1 33.058864,48 H 26.190411 A 0.64860496,0.64860496 60.012984 0 1 25.62885,47.026838 l 4.824275,-8.347151 -3.464844,-2.003906 -4.826252,8.351043 a 0.64928959,0.64928959 0.0113754 0 1 -1.124453,-2.23e-4 l -3.436114,-5.951089 a 2.1509973,2.1509973 89.998952 0 1 -4e-5,-2.151047 l 4.531531,-7.84893 A 2.1510515,2.1510515 149.99986 0 1 23.995823,28 Z"
     style="fill:none;stroke:#3000ff;stroke-width:0.5;stroke-dasharray:none;stroke-opacity:1;filter:url(#filter19)"
     id="path12-1"
     inkscape:path-effect="#path-effect17-2"
     inkscape:original-d="m 20.445312,24 -8.082031,14 8.082031,14 H 36.609375 L 44.691406,38 36.609375,24 Z m 2.308594,4 h 11.546875 l 5.773438,10 -5.773438,10 H 25.066406 L 30.453125,38.679687 26.988281,36.675781 21.599609,46 16.980469,38 Z"
     transform="matrix(0.95998433,0,0,0.95998433,1.2805014,1.2805014)" />
  <path
     d="m 25.642558,15.028069 -4.585897,7.943862 a 6.0566278,6.0566278 90 0 0 0,6.056138 l 4.585897,7.943862 A 6.0556468,6.0556468 30.001339 0 0 30.887043,40 h 9.171226 a 6.0556472,6.0556472 149.99866 0 0 5.244486,-3.028069 l 4.585896,-7.943862 a 6.0580914,6.0580914 90.005997 0 0 6.34e-4,-6.056503 L 45.306028,15.028434 A 6.0541837,6.0541837 30.007335 0 0 40.062176,12 h -9.175133 a 6.0556468,6.0556468 149.99866 0 0 -5.244485,3.028069 z M 31.01265,16 h 7.025671 a 0.48500201,0.48500201 60.358041 0 1 0.416961,0.732733 l -4.35372,7.327814 0.209412,0.02152 a 4.8170655,4.8170655 30.095977 0 1 3.420825,1.982662 l 0,0 4.235005,-7.343926 a 0.49168214,0.49168214 179.99062 0 1 0.85179,-1.39e-4 l 3.544432,6.141755 a 2.2754276,2.2754276 90.00515 0 1 -2.05e-4,2.275054 l -4.460017,7.725064 A 2.2749165,2.2749165 149.99986 0 1 39.932663,36 h -8.916107 a 2.2756863,2.2756863 29.991748 0 1 -1.970474,-1.137275 l -4.463258,-7.72545 a 2.2741857,2.2741857 89.991609 0 1 -3.33e-4,-2.274743 l 4.460018,-7.725064 A 2.2749167,2.2749167 149.99986 0 1 31.01265,16 Z"
     style="fill:url(#radialGradient13)"
     id="path11"
     inkscape:path-effect="#path-effect15"
     inkscape:original-d="m 27.390625,12 -8.082031,14 8.082031,14 H 43.554687 L 51.636719,26 43.558594,12 Z m 2.308594,4 h 9.191406 l -4.789063,8.060547 2.365971,0.243078 1.264266,1.761099 4.660779,-8.082261 L 47.019531,26 41.246094,36 H 29.703125 L 23.925781,26 Z"
     sodipodi:nodetypes="cccccccccccccccccc"
     transform="matrix(0.95998433,0,0,0.95998433,1.2805014,1.2805014)" />
  <path
     d="m 25.642558,15.028069 -4.585897,7.943862 a 6.0566278,6.0566278 90 0 0 0,6.056138 l 4.585897,7.943862 A 6.0556468,6.0556468 30.001339 0 0 30.887043,40 h 9.171226 a 6.0556472,6.0556472 149.99866 0 0 5.244486,-3.028069 l 4.585896,-7.943862 a 6.0580914,6.0580914 90.005997 0 0 6.34e-4,-6.056503 L 45.306028,15.028434 A 6.0541837,6.0541837 30.007335 0 0 40.062176,12 h -9.175133 a 6.0556468,6.0556468 149.99866 0 0 -5.244485,3.028069 z M 31.01265,16 h 7.025671 a 0.48500201,0.48500201 60.358041 0 1 0.416961,0.732733 l -4.35372,7.327814 0.209412,0.02152 a 4.8170655,4.8170655 30.095977 0 1 3.420825,1.982662 l 0,0 4.235005,-7.343926 a 0.49168214,0.49168214 179.99062 0 1 0.85179,-1.39e-4 l 3.544432,6.141755 a 2.2754276,2.2754276 90.00515 0 1 -2.05e-4,2.275054 l -4.460017,7.725064 A 2.2749165,2.2749165 149.99986 0 1 39.932663,36 h -8.916107 a 2.2756863,2.2756863 29.991748 0 1 -1.970474,-1.137275 l -4.463258,-7.72545 a 2.2741857,2.2741857 89.991609 0 1 -3.33e-4,-2.274743 l 4.460018,-7.725064 A 2.2749167,2.2749167 149.99986 0 1 31.01265,16 Z"
     style="mix-blend-mode:normal;fill:none;stroke:#0044ff;stroke-width:0.5;stroke-dasharray:none;stroke-opacity:1;filter:url(#filter1)"
     id="path11-2"
     inkscape:path-effect="#path-effect15-5"
     inkscape:original-d="m 27.390625,12 -8.082031,14 8.082031,14 H 43.554687 L 51.636719,26 43.558594,12 Z m 2.308594,4 h 9.191406 l -4.789063,8.060547 2.365971,0.243078 1.264266,1.761099 4.660779,-8.082261 L 47.019531,26 41.246094,36 H 29.703125 L 23.925781,26 Z"
     sodipodi:nodetypes="cccccccccccccccccc"
     transform="matrix(0.95998433,0,0,0.95998433,1.2805014,1.2805014)" />
</svg>
