<?xml version="1.0" encoding="UTF-8" standalone="no"?>
<svg
   width="64"
   height="64"
   version="1.1"
   id="svg10"
   sodipodi:docname="2048-qt.svg"
   inkscape:version="1.4 (e7c3feb100, 2024-10-09)"
   xmlns:inkscape="http://www.inkscape.org/namespaces/inkscape"
   xmlns:sodipodi="http://sodipodi.sourceforge.net/DTD/sodipodi-0.dtd"
   xmlns:xlink="http://www.w3.org/1999/xlink"
   xmlns="http://www.w3.org/2000/svg"
   xmlns:svg="http://www.w3.org/2000/svg">
  <defs
     id="defs10">
    <linearGradient
       id="linearGradient10"
       inkscape:collect="always">
      <stop
         style="stop-color:#ff3f00;stop-opacity:1;"
         offset="0"
         id="stop10" />
      <stop
         style="stop-color:#ff9700;stop-opacity:1;"
         offset="1"
         id="stop11" />
    </linearGradient>
    <radialGradient
       inkscape:collect="always"
       xlink:href="#linearGradient10"
       id="radialGradient11"
       cx="4.0469851"
       cy="59.683823"
       fx="4.0469851"
       fy="59.683823"
       r="28.15472"
       gradientUnits="userSpaceOnUse"
       gradientTransform="matrix(1.9019559,-1.4715651,1.0875112,1.4055772,-65.796882,-20.9703)" />
    <filter
       inkscape:collect="always"
       style="color-interpolation-filters:sRGB"
       id="filter1"
       x="-0.13126894"
       y="-0.13126894"
       width="1.2625379"
       height="1.2625379">
      <feGaussianBlur
         inkscape:collect="always"
         stdDeviation="2.7149604"
         id="feGaussianBlur1" />
    </filter>
    <filter
       inkscape:collect="always"
       style="color-interpolation-filters:sRGB"
       id="filter2"
       x="-0.019984545"
       y="-0.054246367"
       width="1.0399691"
       height="1.1084928">
      <feGaussianBlur
         inkscape:collect="always"
         stdDeviation="0.26439531"
         id="feGaussianBlur2" />
    </filter>
  </defs>
  <sodipodi:namedview
     id="namedview10"
     pagecolor="#ffffff"
     bordercolor="#000000"
     borderopacity="0.25"
     inkscape:showpageshadow="2"
     inkscape:pageopacity="0.0"
     inkscape:pagecheckerboard="0"
     inkscape:deskcolor="#d1d1d1"
     inkscape:zoom="19.622213"
     inkscape:cx="37.68688"
     inkscape:cy="40.082125"
     inkscape:window-width="1920"
     inkscape:window-height="1017"
     inkscape:window-x="0"
     inkscape:window-y="0"
     inkscape:window-maximized="1"
     inkscape:current-layer="svg10" />
  <rect
     style="opacity:1;fill:url(#radialGradient11);stroke:none;stroke-width:0.36058"
     id="rect10"
     width="50.39962"
     height="50.39962"
     x="6.805594"
     y="6.8090987"
     rx="16.74258"
     ry="16.74258" />
  <path
     id="path4"
     style="fill:#ffffff;fill-rule:evenodd;stroke-width:1.13134"
     d="m 15.037541,24.092357 c 0,0 -1.085437,-0.02195 -2.203649,0.54417 -1.118437,0.559334 -2.321308,1.906596 -2.321308,3.980787 h 2.262479 c 0,-2.262672 2.262478,-2.26248 2.262478,-2.26248 0,0 2.262478,-1.92e-4 2.262478,2.26248 0,0.848501 -0.289431,1.4874 -0.82116,2.16688 -0.531954,0.679481 -1.318378,1.34704 -2.16688,2.054124 -0.848502,0.707086 -1.759449,1.452818 -2.500248,2.399747 -0.741025,0.946701 -1.299147,2.147457 -1.299147,3.561626 v 1.130013 h 9.049914 v -2.262478 h -6.581533 c 0.138024,-0.356145 0.343094,-0.690038 0.612805,-1.034416 0.531728,-0.67948 1.318379,-1.347039 2.166881,-2.054123 0.848501,-0.707086 1.759222,-1.452821 2.500247,-2.399748 0.740799,-0.946702 1.3016,-2.147456 1.3016,-3.561625 0,-2.074191 -1.205321,-3.421453 -2.32376,-3.980787 -1.118212,-0.559104 -2.201197,-0.54417 -2.201197,-0.54417 z m 11.312391,0 c -2.487467,0 -4.524957,2.037376 -4.524957,4.524957 v 6.787434 c 0,2.487582 2.03749,4.524956 4.524957,4.524956 2.487468,0 4.524957,-2.037374 4.524957,-4.524956 v -6.787434 c 0,-2.487581 -2.037489,-4.524957 -4.524957,-4.524957 z m 6.789886,0 v 9.049912 h 6.787435 v 6.787435 h 2.262479 V 24.092357 h -2.262479 v 6.787434 h -4.524956 v -6.787434 z m 15.837349,0 c -2.487468,0 -4.524957,2.037376 -4.524957,4.524957 0,1.3555 0.618022,2.563489 1.571233,3.394942 -0.953211,0.831455 -1.571233,2.036992 -1.571233,3.392492 0,2.487582 2.037489,4.524956 4.524957,4.524956 2.487468,0 4.524956,-2.037374 4.524956,-4.524956 0,-1.3555 -0.618023,-2.561037 -1.571234,-3.392492 0.953211,-0.831453 1.571234,-2.03944 1.571234,-3.394942 0,-2.487581 -2.037488,-4.524957 -4.524956,-4.524957 z m -22.627235,2.262477 c 1.273092,0 2.262478,0.9895 2.262478,2.26248 v 6.787434 c 0,1.273207 -0.989386,2.262478 -2.262478,2.262478 -1.273092,0 -2.262477,-0.989271 -2.262479,-2.262478 v -6.787434 c 0,-1.272981 0.989387,-2.26248 2.262479,-2.26248 z m 22.627235,0 c 1.273092,0 2.262478,0.9895 2.262478,2.26248 0,1.27298 -0.989386,2.262477 -2.262478,2.262477 -1.273092,0 -2.262479,-0.989498 -2.262479,-2.262477 0,-1.272978 0.989387,-2.26248 2.262479,-2.26248 z m 0,6.787435 c 1.273092,0 2.262478,0.989502 2.262478,2.262479 0,1.272981 -0.989386,2.262478 -2.262478,2.262478 -1.273092,0 -2.262479,-0.989497 -2.262479,-2.262478 0,-1.272977 0.989387,-2.262479 2.262479,-2.262479 z" />
  <rect
     style="fill:none;stroke:#000000;stroke-width:0.2;stroke-opacity:1;stroke-dasharray:none;filter:url(#filter1)"
     id="rect10-0"
     width="50.39962"
     height="50.39962"
     x="6.80019"
     y="6.80019"
     rx="16.74258"
     ry="16.74258" />
  <path
     id="path4-9"
     style="fill:none;fill-rule:evenodd;stroke:#ff0000;stroke-width:0.1;stroke-dasharray:none;stroke-opacity:1;filter:url(#filter2)"
     d="m 18.478516,25.690475 c 0,0 -0.864872,-0.01749 -1.755859,0.433593 -0.891167,0.445675 -1.84961,1.519169 -1.84961,3.171876 h 1.802735 c 0,-1.802888 1.802734,-1.802735 1.802734,-1.802735 0,0 1.802734,-1.53e-4 1.802734,1.802735 0,0.676083 -0.230617,1.185155 -0.654297,1.726562 -0.423859,0.541408 -1.050479,1.073317 -1.726562,1.636719 -0.676083,0.563403 -1.401922,1.1576 -1.992188,1.912109 -0.590446,0.754328 -1.035156,1.711086 -1.035156,2.837891 v 0.90039 h 7.210938 v -1.802734 h -5.244141 c 0.109977,-0.283775 0.273376,-0.54982 0.488281,-0.824219 0.423679,-0.541407 1.050479,-1.073316 1.726563,-1.636718 0.676082,-0.563403 1.401741,-1.157602 1.992187,-1.91211 0.590266,-0.754329 1.03711,-1.711085 1.03711,-2.83789 0,-1.652707 -0.960395,-2.726201 -1.851563,-3.171876 -0.890987,-0.445492 -1.753906,-0.433593 -1.753906,-0.433593 z m 9.013672,0 c -1.982005,0 -3.605469,1.623374 -3.605469,3.605469 v 5.408203 c 0,1.982096 1.623464,3.605468 3.605469,3.605468 1.982005,0 3.605469,-1.623372 3.605469,-3.605468 v -5.408203 c 0,-1.982095 -1.623464,-3.605469 -3.605469,-3.605469 z m 5.410156,0 v 7.210937 h 5.408203 v 5.408203 h 1.802735 v -12.61914 h -1.802735 v 5.408203 h -3.605468 v -5.408203 z m 12.619141,0 c -1.982005,0 -3.605469,1.623374 -3.605469,3.605469 0,1.080058 0.492438,2.042579 1.251953,2.705078 -0.759515,0.6625 -1.251953,1.623067 -1.251953,2.703125 0,1.982096 1.623464,3.605468 3.605469,3.605468 1.982005,0 3.605468,-1.623372 3.605468,-3.605468 0,-1.080058 -0.492438,-2.040625 -1.251953,-2.703125 0.759515,-0.662499 1.251953,-1.625019 1.251953,-2.705078 0,-1.982095 -1.623463,-3.605469 -3.605468,-3.605469 z m -18.029297,1.802734 c 1.014395,0 1.802734,0.78843 1.802734,1.802735 v 5.408203 c 0,1.014486 -0.788339,1.802734 -1.802734,1.802734 -1.014395,0 -1.802734,-0.788248 -1.802735,-1.802734 v -5.408203 c 0,-1.014306 0.78834,-1.802735 1.802735,-1.802735 z m 18.029297,0 c 1.014395,0 1.802734,0.78843 1.802734,1.802735 0,1.014306 -0.788339,1.802734 -1.802734,1.802734 -1.014395,0 -1.802735,-0.788429 -1.802735,-1.802734 0,-1.014304 0.78834,-1.802735 1.802735,-1.802735 z m 0,5.408203 c 1.014395,0 1.802734,0.788431 1.802734,1.802735 0,1.014306 -0.788339,1.802734 -1.802734,1.802734 -1.014395,0 -1.802735,-0.788428 -1.802735,-1.802734 0,-1.014304 0.78834,-1.802735 1.802735,-1.802735 z"
     transform="matrix(1.2550259,0,0,1.2550259,-8.1608286,-8.1608287)" />
</svg>
