<?xml version="1.0" encoding="UTF-8" standalone="no"?>
<svg
   width="64"
   height="64"
   version="1"
   id="svg11"
   sodipodi:docname="aafm.svg"
   inkscape:version="1.3.2 (091e20ef0f, 2023-11-25, custom)"
   xmlns:inkscape="http://www.inkscape.org/namespaces/inkscape"
   xmlns:sodipodi="http://sodipodi.sourceforge.net/DTD/sodipodi-0.dtd"
   xmlns:xlink="http://www.w3.org/1999/xlink"
   xmlns="http://www.w3.org/2000/svg"
   xmlns:svg="http://www.w3.org/2000/svg">
  <defs
     id="defs11">
    <linearGradient
       id="linearGradient2"
       inkscape:collect="always">
      <stop
         style="stop-color:#006ce5;stop-opacity:1;"
         offset="0"
         id="stop3" />
      <stop
         style="stop-color:#0089e5;stop-opacity:1;"
         offset="1"
         id="stop4" />
    </linearGradient>
    <inkscape:path-effect
       effect="fillet_chamfer"
       id="path-effect2"
       is_visible="true"
       lpeversion="1"
       nodesatellites_param="F,0,1,1,0,3.9214112,0,1 @ F,0,0,1,0,3.9214112,0,1 @ F,0,1,1,0,3.9214112,0,1 @ F,0,1,1,0,3.9214112,0,1"
       radius="0"
       unit="px"
       method="auto"
       mode="F"
       chamfer_steps="1"
       flexible="false"
       use_knot_distance="true"
       apply_no_radius="true"
       apply_with_radius="true"
       only_selected="false"
       hide_knots="false" />
    <linearGradient
       id="linearGradient1"
       inkscape:collect="always">
      <stop
         style="stop-color:#00c7ff;stop-opacity:1;"
         offset="0"
         id="stop1" />
      <stop
         style="stop-color:#0079ff;stop-opacity:1;"
         offset="1"
         id="stop2" />
    </linearGradient>
    <inkscape:path-effect
       effect="fillet_chamfer"
       id="path-effect1"
       is_visible="true"
       lpeversion="1"
       nodesatellites_param="F,0,0,1,0,0,0,1 @ F,0,0,1,0,0,0,1 @ F,0,0,1,0,0,0,1 @ F,0,1,1,0,1.8201961,0,1 @ F,0,0,1,0,0,0,1 @ F,0,0,1,0,0,0,1 @ F,0,0,1,0,1.8201961,0,1 @ F,0,0,1,0,0,0,1 @ F,0,0,1,0,0,0,1 @ F,0,0,1,0,0,0,1 @ F,0,1,1,0,1.8201961,0,1 @ F,0,0,1,0,0,0,1 @ F,0,1,1,0,1.8201961,0,1 @ F,0,0,1,0,0,0,1 @ F,0,0,1,0,0,0,1 @ F,0,0,1,0,0,0,1 | F,0,0,1,0,0,0,1 @ F,0,0,1,0,0,0,1 @ F,0,0,1,0,0,0,1 @ F,0,0,1,0,0,0,1 | F,0,0,1,0,0,0,1 @ F,0,0,1,0,0,0,1 @ F,0,0,1,0,0,0,1 @ F,0,0,1,0,0,0,1"
       radius="0"
       unit="px"
       method="auto"
       mode="F"
       chamfer_steps="1"
       flexible="false"
       use_knot_distance="true"
       apply_no_radius="true"
       apply_with_radius="true"
       only_selected="false"
       hide_knots="false" />
    <inkscape:path-effect
       effect="fillet_chamfer"
       id="path-effect11"
       is_visible="true"
       lpeversion="1"
       nodesatellites_param="F,0,0,1,0,0,0,1 @ F,0,0,1,0,0,0,1 @ F,0,0,1,0,0,0,1 @ F,0,0,1,0,0,0,1 @ F,0,0,1,0,0,0,1 @ F,0,0,1,0,0,0,1 @ F,0,0,1,0,0,0,1 @ F,0,1,1,0,1.3356823,0,1 @ F,0,1,1,0,1.3356823,0,1 @ F,0,0,1,0,0,0,1"
       radius="0"
       unit="px"
       method="auto"
       mode="F"
       chamfer_steps="1"
       flexible="false"
       use_knot_distance="true"
       apply_no_radius="true"
       apply_with_radius="true"
       only_selected="false"
       hide_knots="false" />
    <inkscape:path-effect
       effect="fillet_chamfer"
       id="path-effect11-7"
       is_visible="true"
       lpeversion="1"
       nodesatellites_param="F,0,0,1,0,0,0,1 @ F,0,0,1,0,0,0,1 @ F,0,0,1,0,0,0,1 @ F,0,0,1,0,0,0,1 @ F,0,0,1,0,0,0,1 @ F,0,0,1,0,0,0,1 @ F,0,0,1,0,0,0,1 @ F,0,0,1,0,1.9899551,0,1 @ F,0,1,1,0,1.9899551,0,1 @ F,0,0,1,0,0,0,1"
       radius="0"
       unit="px"
       method="auto"
       mode="F"
       chamfer_steps="1"
       flexible="false"
       use_knot_distance="true"
       apply_no_radius="true"
       apply_with_radius="true"
       only_selected="false"
       hide_knots="false" />
    <inkscape:path-effect
       effect="fillet_chamfer"
       id="path-effect11-5"
       is_visible="true"
       lpeversion="1"
       nodesatellites_param="F,0,0,1,0,0,0,1 @ F,0,0,1,0,0,0,1 @ F,0,0,1,0,0,0,1 @ F,0,0,1,0,0,0,1 @ F,0,0,1,0,0,0,1 @ F,0,0,1,0,0,0,1 @ F,0,0,1,0,0,0,1 @ F,0,0,1,0,1.0275119,0,1 @ F,0,1,1,0,1.0275119,0,1 @ F,0,0,1,0,0,0,1"
       radius="0"
       unit="px"
       method="auto"
       mode="F"
       chamfer_steps="1"
       flexible="false"
       use_knot_distance="true"
       apply_no_radius="true"
       apply_with_radius="true"
       only_selected="false"
       hide_knots="false" />
    <radialGradient
       inkscape:collect="always"
       xlink:href="#linearGradient1"
       id="radialGradient2"
       cx="36.302643"
       cy="44.324814"
       fx="36.302643"
       fy="44.324814"
       r="10"
       gradientTransform="matrix(-1.4846745,-1.4846745,1.1209005,-1.1209005,40.516547,148.67191)"
       gradientUnits="userSpaceOnUse" />
    <radialGradient
       inkscape:collect="always"
       xlink:href="#linearGradient2"
       id="radialGradient4"
       cx="21.501093"
       cy="39.214798"
       fx="21.501093"
       fy="39.214798"
       r="10"
       gradientTransform="matrix(3.2565227,0,0,2.749556,-49.937125,-64.081499)"
       gradientUnits="userSpaceOnUse" />
    <inkscape:path-effect
       effect="fillet_chamfer"
       id="path-effect1-3"
       is_visible="true"
       lpeversion="1"
       nodesatellites_param="F,0,0,1,0,0,0,1 @ F,0,0,1,0,0,0,1 @ F,0,0,1,0,0,0,1 @ F,0,1,1,0,1.8201961,0,1 @ F,0,0,1,0,0,0,1 @ F,0,0,1,0,0,0,1 @ F,0,0,1,0,1.8201961,0,1 @ F,0,0,1,0,0,0,1 @ F,0,0,1,0,0,0,1 @ F,0,0,1,0,0,0,1 @ F,0,1,1,0,1.8201961,0,1 @ F,0,0,1,0,0,0,1 @ F,0,1,1,0,1.8201961,0,1 @ F,0,0,1,0,0,0,1 @ F,0,0,1,0,0,0,1 @ F,0,0,1,0,0,0,1 | F,0,0,1,0,0,0,1 @ F,0,0,1,0,0,0,1 @ F,0,0,1,0,0,0,1 @ F,0,0,1,0,0,0,1 | F,0,0,1,0,0,0,1 @ F,0,0,1,0,0,0,1 @ F,0,0,1,0,0,0,1 @ F,0,0,1,0,0,0,1"
       radius="0"
       unit="px"
       method="auto"
       mode="F"
       chamfer_steps="1"
       flexible="false"
       use_knot_distance="true"
       apply_no_radius="true"
       apply_with_radius="true"
       only_selected="false"
       hide_knots="false" />
    <inkscape:path-effect
       effect="fillet_chamfer"
       id="path-effect11-5-3"
       is_visible="true"
       lpeversion="1"
       nodesatellites_param="F,0,0,1,0,0,0,1 @ F,0,0,1,0,0,0,1 @ F,0,0,1,0,0,0,1 @ F,0,0,1,0,0,0,1 @ F,0,0,1,0,0,0,1 @ F,0,0,1,0,0,0,1 @ F,0,0,1,0,0,0,1 @ F,0,0,1,0,1.0275119,0,1 @ F,0,1,1,0,1.0275119,0,1 @ F,0,0,1,0,0,0,1"
       radius="0"
       unit="px"
       method="auto"
       mode="F"
       chamfer_steps="1"
       flexible="false"
       use_knot_distance="true"
       apply_no_radius="true"
       apply_with_radius="true"
       only_selected="false"
       hide_knots="false" />
    <inkscape:path-effect
       effect="fillet_chamfer"
       id="path-effect2-5"
       is_visible="true"
       lpeversion="1"
       nodesatellites_param="F,0,1,1,0,3.9214112,0,1 @ F,0,0,1,0,3.9214112,0,1 @ F,0,1,1,0,3.9214112,0,1 @ F,0,1,1,0,3.9214112,0,1"
       radius="0"
       unit="px"
       method="auto"
       mode="F"
       chamfer_steps="1"
       flexible="false"
       use_knot_distance="true"
       apply_no_radius="true"
       apply_with_radius="true"
       only_selected="false"
       hide_knots="false" />
    <inkscape:path-effect
       effect="fillet_chamfer"
       id="path-effect11-1"
       is_visible="true"
       lpeversion="1"
       nodesatellites_param="F,0,0,1,0,0,0,1 @ F,0,0,1,0,0,0,1 @ F,0,0,1,0,0,0,1 @ F,0,0,1,0,0,0,1 @ F,0,0,1,0,0,0,1 @ F,0,0,1,0,0,0,1 @ F,0,0,1,0,0,0,1 @ F,0,1,1,0,1.3356823,0,1 @ F,0,1,1,0,1.3356823,0,1 @ F,0,0,1,0,0,0,1"
       radius="0"
       unit="px"
       method="auto"
       mode="F"
       chamfer_steps="1"
       flexible="false"
       use_knot_distance="true"
       apply_no_radius="true"
       apply_with_radius="true"
       only_selected="false"
       hide_knots="false" />
    <filter
       inkscape:collect="always"
       style="color-interpolation-filters:sRGB"
       id="filter15"
       x="-0.08699939"
       y="-0.10246691"
       width="1.1739988"
       height="1.2049338">
      <feGaussianBlur
         inkscape:collect="always"
         stdDeviation="1.8456218"
         id="feGaussianBlur15" />
    </filter>
  </defs>
  <sodipodi:namedview
     id="namedview11"
     pagecolor="#505050"
     bordercolor="#eeeeee"
     borderopacity="1"
     inkscape:showpageshadow="0"
     inkscape:pageopacity="0"
     inkscape:pagecheckerboard="0"
     inkscape:deskcolor="#505050"
     inkscape:zoom="11.390625"
     inkscape:cx="33.843621"
     inkscape:cy="37.004115"
     inkscape:window-width="1920"
     inkscape:window-height="1020"
     inkscape:window-x="0"
     inkscape:window-y="0"
     inkscape:window-maximized="1"
     inkscape:current-layer="svg11" />
  <path
     style="fill:url(#radialGradient4);fill-opacity:1"
     d="M 22,39.49816 V 53.615384 C 22,53.615384 22,55 23.428572,55 H 40.571428 C 40.571428,55 42,55 42,53.615384 V 41.354308 C 42,39.969693 40.571428,40 40.571428,40 h -5.807174 a 4.4471069,4.4471069 16.717566 0 1 -2.450322,-0.735951 l -0.627864,-0.414552 a 4.4471069,4.4471069 16.717566 0 0 -2.450322,-0.735951 h -5.807174 c 0,0 -1.428572,0 -1.428572,1.384614 z"
     id="path9"
     inkscape:path-effect="#path-effect11"
     inkscape:original-d="M 22,39.49816 V 53.615384 C 22,53.615384 22,55 23.428572,55 H 40.571428 C 40.571428,55 42,55 42,53.615384 V 41.354308 C 42,39.969693 40.571428,40 40.571428,40 h -7.142856 l -2.857144,-1.886454 h -7.142856 c 0,0 -1.428572,0 -1.428572,1.384614 z"
     sodipodi:nodetypes="scscssccccs"
     transform="matrix(2.5299438,0,0,2.5299438,-48.958202,-87.075626)" />
  <path
     id="rect2"
     style="opacity:1;fill:#ffffff;stroke-width:0.5;stroke-linecap:round;stroke-linejoin:round;stroke-miterlimit:4.6;paint-order:stroke fill markers"
     d="m 13.179186,15.124869 20.782478,0 a 3.9214112,3.9214112 45 0 1 3.921411,3.921411 l 0,6.636208 a 3.9214112,3.9214112 135 0 1 -3.921411,3.921411 H 13.179186 A 3.9214112,3.9214112 45 0 1 9.2577752,25.682488 V 19.04628 a 3.9214112,3.9214112 135 0 1 3.9214108,-3.921411 z"
     inkscape:path-effect="#path-effect2"
     inkscape:original-d="M 9.2577752,15.124869 H 37.883075 v 14.47903 H 9.2577752 Z" />
  <path
     style="fill:url(#radialGradient2)"
     d="M 22,41.285003 V 53.615384 C 22,53.615384 22,55 23.428572,55 H 40.571428 C 40.571428,55 42,55 42,53.615384 V 43.25454 c 0,-1.384615 -1.428572,-1.354308 -1.428572,-1.354308 H 34.456084 A 3.2598523,3.2598523 17.494955 0 1 32.58678,41.311024 l -1.17356,-0.821428 a 3.2598523,3.2598523 17.494955 0 0 -1.869304,-0.589208 h -6.115344 c 0,0 -1.428572,0 -1.428572,1.384615 z"
     id="path9-6"
     inkscape:path-effect="#path-effect11-5"
     inkscape:original-d="M 22,41.285003 V 53.615384 C 22,53.615384 22,55 23.428572,55 H 40.571428 C 40.571428,55 42,55 42,53.615384 V 43.25454 c 0,-1.384615 -1.428572,-1.354308 -1.428572,-1.354308 h -7.142856 l -2.857144,-1.999844 h -7.142856 c 0,0 -1.428572,0 -1.428572,1.384615 z"
     transform="matrix(-2.5299438,0,0,2.5299438,112.9451,-86.869343)"
     sodipodi:nodetypes="scscssccccs" />
  <path
     id="path3"
     style="color:#000000;opacity:0.237358;fill:#000000;fill-opacity:1;stroke-width:0.850444;stroke-linecap:round;-inkscape-stroke:none"
     d="m 16.798926,28.502797 c -0.350375,0.0058 -0.691148,0.115466 -0.979223,0.315007 -0.803739,0.557073 -1.004178,1.660059 -0.447827,2.464334 l 2.152891,3.11241 c 0.571875,0.826752 0.399152,2.008975 -0.32021,2.710732 -4.071512,3.971875 -6.401321,9.434221 -6.413809,15.172991 h 42.520067 c -0.0017,-5.744936 -2.32626,-11.216926 -6.397934,-15.197284 -0.71863,-0.702513 -0.890755,-1.885358 -0.318801,-2.712057 l 2.135606,-3.086792 c 0.556351,-0.804275 0.355912,-1.907261 -0.447827,-2.464334 -0.80461,-0.557862 -1.909133,-0.357284 -2.466267,0.447866 l -2.13361,3.08455 c -0.571873,0.826754 -1.739392,1.082788 -2.65019,0.658063 -2.805779,-1.308395 -5.870587,-1.991355 -8.981011,-1.991864 -3.110619,0.0011 -6.175493,0.684637 -8.981182,1.993682 -0.910711,0.424908 -2.077999,0.168914 -2.649691,-0.657965 L 18.28597,29.26567 c -0.267447,-0.386522 -0.677506,-0.650925 -1.139925,-0.735016 -0.114511,-0.02066 -0.230779,-0.02999 -0.347119,-0.02785 z m 6.321013,13.570984 c 1.644521,-0.0011 2.978269,1.331826 2.978376,2.976488 -1.07e-4,1.644662 -1.333855,2.977565 -2.978376,2.976488 -1.643684,-1.07e-4 -2.976126,-1.332664 -2.976233,-2.976488 1.07e-4,-1.643824 1.332549,-2.976381 2.976233,-2.976488 z m 17.859542,0 c 1.643684,1.07e-4 2.976126,1.332664 2.976233,2.976488 -1.07e-4,1.643824 -1.332549,2.976381 -2.976233,2.976488 -1.643684,-1.07e-4 -2.976127,-1.332663 -2.976234,-2.976488 1.07e-4,-1.643825 1.33255,-2.976381 2.976234,-2.976488 z"
     inkscape:path-effect="#path-effect1"
     inkscape:original-d="m 16.798926,28.502797 a 1.7716828,1.7718344 0 0 0 -0.979223,0.315007 1.7716828,1.7718344 0 0 0 -0.447827,2.464334 l 3.188362,4.609378 a 21.260195,21.262014 0 0 0 -7.76949,16.386755 H 53.310815 A 21.260195,21.262014 0 0 0 45.558466,35.8658 l 3.17122,-4.583662 a 1.7716828,1.7718344 0 0 0 -0.447827,-2.464334 1.7716828,1.7718344 0 0 0 -2.466267,0.447866 l -3.169078,4.58152 A 21.260195,21.262014 0 0 0 32.050781,31.016419 21.260195,21.262014 0 0 0 21.455048,33.849333 L 18.28597,29.26567 a 1.7716828,1.7718344 0 0 0 -1.139925,-0.735016 1.7716828,1.7718344 0 0 0 -0.347119,-0.02785 z m 6.321013,13.570984 a 2.9764273,2.9766819 0 0 1 2.978376,2.976488 2.9764273,2.9766819 0 0 1 -2.978376,2.976488 2.9764273,2.9766819 0 0 1 -2.976233,-2.976488 2.9764273,2.9766819 0 0 1 2.976233,-2.976488 z m 17.859542,0 a 2.9764273,2.9766819 0 0 1 2.976233,2.976488 2.9764273,2.9766819 0 0 1 -2.976233,2.976488 2.9764273,2.9766819 0 0 1 -2.976234,-2.976488 2.9764273,2.9766819 0 0 1 2.976234,-2.976488 z"
     transform="translate(-0.0507815)" />
  <path
     id="path13"
     style="color:#000000;fill:#000000;-inkscape-stroke:none;filter:url(#filter15)"
     d="M 10.322266 9.2265625 C 10.322266 9.2265625 9.3883492 9.224973 8.4492188 9.6796875 C 7.5100882 10.134406 6.5566407 11.075816 6.5566406 12.878906 L 6.5566406 22.263672 L 6.5566406 22.273438 L 6.5644531 22.273438 C 6.5573188 22.37876 6.5429688 22.477839 6.5429688 22.589844 L 6.5429688 48.800781 C 6.5429688 50.603871 7.4964396 51.546741 8.4355469 52.001953 C 9.3746539 52.457167 10.308594 52.455078 10.308594 52.455078 L 10.595703 52.455078 L 10.896484 52.455078 L 53.115234 52.455078 L 53.416016 52.455078 L 53.677734 52.455078 C 55.533301 52.455078 56.5039 51.533261 56.974609 50.621094 C 57.445321 49.708927 57.443359 48.800781 57.443359 48.800781 C 57.446359 48.743381 57.457031 48.680567 57.457031 48.595703 L 57.457031 17.574219 C 57.457031 17.542959 57.436107 17.532693 57.435547 17.501953 C 57.431547 17.316592 57.423371 17.135701 57.400391 16.96875 C 57.345491 16.569736 57.238127 16.221172 57.09375 15.917969 C 57.087944 15.90578 57.078652 15.898109 57.072266 15.886719 C 56.938089 15.615181 56.774589 15.38158 56.591797 15.179688 C 56.582278 15.166573 56.575118 15.150047 56.564453 15.138672 C 56.505933 15.076252 56.448306 15.028302 56.398438 14.982422 C 56.354218 14.941742 56.304937 14.890932 56.244141 14.841797 L 56.242188 14.841797 L 56.240234 14.837891 L 56.234375 14.833984 C 56.234366 14.833978 56.228562 14.830878 56.226562 14.830078 C 56.121931 14.746458 56.015606 14.668985 55.904297 14.599609 L 55.902344 14.599609 C 55.78764 14.528189 55.669528 14.46293 55.552734 14.40625 L 55.550781 14.40625 L 55.548828 14.404297 L 55.519531 14.390625 L 55.513672 14.390625 C 54.587258 13.953751 53.677734 13.953125 53.677734 13.953125 L 38.214844 13.957031 C 38.212244 13.957031 38.209631 13.957029 38.207031 13.957031 C 38.166532 13.957069 38.126396 13.960319 38.085938 13.960938 L 38.085938 13.957031 C 36.232785 13.804187 34.442548 13.191726 32.882812 12.162109 L 31.294922 11.113281 C 29.430787 9.8829028 27.24715 9.2263783 25.013672 9.2265625 L 10.322266 9.2265625 z M 10.322266 9.5273438 L 25.013672 9.5273438 C 27.188407 9.5271644 29.315869 10.165209 31.130859 11.363281 L 32.71875 12.412109 C 34.023059 13.273114 35.502395 13.769375 37.027344 14.039062 C 37.024744 14.039448 37.022531 14.040516 37.019531 14.041016 C 37.007625 14.042736 36.996272 14.047057 36.984375 14.048828 C 36.682702 14.093192 36.384269 14.155969 36.089844 14.232422 C 36.071814 14.237161 36.053155 14.23928 36.035156 14.244141 C 36.007616 14.251541 35.988902 14.258329 35.976562 14.261719 L 35.974609 14.261719 C 35.961335 14.265409 35.948805 14.271641 35.935547 14.275391 C 35.313045 14.449726 34.712611 14.696203 34.144531 15.009766 C 34.089318 15.006287 34.033054 15.001953 33.96875 15.001953 L 13.185547 15.001953 C 10.939171 15.001687 9.1141308 16.82589 9.1132812 19.072266 L 9.1132812 19.181641 C 8.8974979 19.240545 8.6679371 19.318938 8.4375 19.425781 C 8.2878336 19.495176 8.1386805 19.581961 7.9921875 19.677734 C 7.9753486 19.687454 7.9633423 19.693014 7.9453125 19.705078 C 7.9241145 19.719207 7.9086465 19.73514 7.8886719 19.75 C 7.792126 19.818464 7.6988115 19.892882 7.6074219 19.974609 C 7.5804244 19.996741 7.5556878 20.01602 7.5273438 20.042969 C 7.5153346 20.05434 7.5074986 20.066513 7.4960938 20.078125 C 7.4081856 20.16494 7.32569 20.260154 7.2460938 20.361328 C 7.2170101 20.395133 7.1898458 20.425229 7.1601562 20.466797 C 7.159347 20.467925 7.1590116 20.469573 7.1582031 20.470703 C 7.0621411 20.605551 6.9718546 20.752124 6.8945312 20.912109 L 6.8925781 20.914062 C 6.8838381 20.932332 6.8785051 20.943926 6.8769531 20.947266 C 6.8689031 20.964556 6.8652139 20.986316 6.8574219 21.003906 L 6.8574219 12.878906 C 6.8574219 11.179021 7.7115949 10.36973 8.5800781 9.9492188 C 9.4485614 9.5287076 10.322266 9.5273438 10.322266 9.5273438 z M 38.207031 14.246094 L 53.677734 14.253906 C 53.677734 14.253906 54.55144 14.255307 55.419922 14.675781 L 55.421875 14.675781 L 55.423828 14.677734 C 55.522635 14.725709 55.621582 14.781046 55.71875 14.839844 C 55.983334 15.011137 56.230084 15.239745 56.453125 15.503906 C 56.531175 15.599236 56.600337 15.7074 56.667969 15.818359 C 56.9303 16.24511 57.120583 16.774425 57.134766 17.5 C 57.13563 17.53665 57.142578 17.56798 57.142578 17.605469 L 57.142578 48.794922 L 57.142578 48.800781 C 57.142578 48.800781 57.140378 49.644595 56.707031 50.484375 C 56.273676 51.324155 55.436353 52.154297 53.677734 52.154297 L 53.412109 52.154297 C 53.409809 51.843127 53.404412 51.531893 53.388672 51.222656 C 53.370577 50.866171 53.342315 50.511685 53.306641 50.158203 C 53.306381 50.155629 53.306901 50.152965 53.306641 50.150391 C 53.303059 50.115031 53.296725 50.080249 53.292969 50.044922 C 53.261091 49.74508 53.224035 49.445679 53.179688 49.148438 C 53.161529 49.026769 53.139368 48.906348 53.119141 48.785156 C 53.082082 48.563078 53.045906 48.34145 53.001953 48.121094 C 52.975619 47.989076 52.944804 47.857919 52.916016 47.726562 C 52.871397 47.522961 52.825858 47.3191 52.775391 47.117188 C 52.740202 46.976396 52.700118 46.837186 52.662109 46.697266 C 52.610117 46.505867 52.557227 46.314678 52.5 46.125 C 52.456107 45.979523 52.408274 45.835816 52.361328 45.691406 C 52.300376 45.503898 52.239885 45.316476 52.173828 45.130859 C 52.130013 45.007746 52.083152 44.885915 52.037109 44.763672 C 51.960179 44.559414 51.881926 44.356014 51.798828 44.154297 C 51.750362 44.036642 51.700937 43.919486 51.650391 43.802734 C 51.563178 43.601297 51.472257 43.401761 51.378906 43.203125 C 51.323671 43.085586 51.268303 42.968081 51.210938 42.851562 C 51.122339 42.671618 51.029184 42.493826 50.935547 42.316406 C 50.864608 42.181979 50.794508 42.046985 50.720703 41.914062 C 50.626071 41.743645 50.527036 41.576057 50.427734 41.408203 C 50.355171 41.285531 50.284019 41.162272 50.208984 41.041016 C 50.097952 40.861613 49.981628 40.685962 49.865234 40.509766 C 49.790652 40.396849 49.717389 40.283432 49.640625 40.171875 C 49.530956 40.012516 49.416816 39.85572 49.302734 39.699219 C 49.211169 39.573589 49.121725 39.445997 49.027344 39.322266 C 48.90926 39.167481 48.784559 39.016959 48.662109 38.865234 C 48.568514 38.749249 48.476982 38.631724 48.380859 38.517578 C 48.228957 38.337208 48.072209 38.161964 47.914062 37.986328 C 47.849399 37.914513 47.788354 37.840534 47.722656 37.769531 C 47.716726 37.763122 47.711017 37.756403 47.705078 37.75 C 47.468408 37.494849 47.224489 37.244276 46.974609 37 C 46.307573 36.347923 46.147923 35.242564 46.673828 34.482422 L 48.808594 31.394531 C 49.411022 30.523643 49.194609 29.323972 48.324219 28.720703 C 48.222341 28.650068 48.115269 28.593338 48.005859 28.544922 C 47.966231 28.527403 47.925117 28.516606 47.884766 28.501953 C 47.811711 28.475398 47.73884 28.450868 47.664062 28.433594 C 47.616588 28.422609 47.569379 28.415497 47.521484 28.408203 C 47.455765 28.398196 47.390251 28.389861 47.324219 28.386719 C 47.269788 28.384123 47.21641 28.384715 47.162109 28.386719 C 47.097207 28.389088 47.032986 28.393487 46.96875 28.402344 C 46.921432 28.408882 46.874829 28.415771 46.828125 28.425781 C 46.759097 28.440543 46.692125 28.460172 46.625 28.482422 C 46.578084 28.497974 46.532028 28.514048 46.486328 28.533203 C 46.423966 28.559336 46.364282 28.592245 46.304688 28.625 C 46.262513 28.648186 46.218263 28.666905 46.177734 28.693359 C 46.107389 28.739226 46.043068 28.79405 45.978516 28.849609 C 45.953061 28.87152 45.924821 28.888714 45.900391 28.912109 C 45.808521 29.000087 45.723557 29.098471 45.648438 29.207031 L 43.515625 32.291016 C 42.989855 33.051118 41.896129 33.292643 41.050781 32.898438 C 38.225212 31.580815 35.138218 30.893091 32.005859 30.892578 C 28.873308 30.893678 25.78834 31.582126 22.962891 32.900391 C 22.117652 33.294751 21.023629 33.053156 20.498047 32.292969 L 18.365234 29.207031 C 18.075203 28.787867 17.630666 28.499447 17.128906 28.408203 C 17.004197 28.385723 16.877665 28.376636 16.751953 28.378906 C 16.37206 28.385206 16.001909 28.504272 15.689453 28.720703 C 14.819063 29.323972 14.60265 30.523643 15.205078 31.394531 L 17.357422 34.507812 C 17.883183 35.267902 17.722355 36.374064 17.054688 37.025391 C 16.804481 37.269474 16.561232 37.520411 16.324219 37.775391 C 16.259469 37.845052 16.198518 37.917833 16.134766 37.988281 C 15.969069 38.171371 15.803426 38.354701 15.644531 38.542969 C 15.547603 38.657818 15.455697 38.775861 15.361328 38.892578 C 15.23877 39.044157 15.116247 39.194969 14.998047 39.349609 C 14.91391 39.459687 14.833862 39.572007 14.751953 39.683594 C 14.62754 39.853084 14.503988 40.022445 14.384766 40.195312 C 14.302618 40.314423 14.22419 40.435977 14.144531 40.556641 C 14.040773 40.713804 13.93739 40.871531 13.837891 41.03125 C 13.747326 41.176628 13.659268 41.32328 13.572266 41.470703 C 13.484756 41.618976 13.398326 41.767695 13.314453 41.917969 C 13.235087 42.060178 13.158112 42.203716 13.082031 42.347656 C 12.996129 42.510182 12.911754 42.673238 12.830078 42.837891 C 12.763281 42.972534 12.698712 43.108126 12.634766 43.244141 C 12.544438 43.436268 12.455681 43.629467 12.371094 43.824219 C 12.325164 43.929979 12.280551 44.036074 12.236328 44.142578 C 12.144483 44.363746 12.057075 44.586308 11.972656 44.810547 C 11.935909 44.908163 11.898609 45.005343 11.863281 45.103516 C 11.783226 45.325968 11.707472 45.55021 11.634766 45.775391 C 11.599705 45.884002 11.564586 45.992347 11.53125 46.101562 C 11.468396 46.307418 11.410194 46.514758 11.353516 46.722656 C 11.315989 46.860333 11.278936 46.998195 11.244141 47.136719 C 11.20051 47.310391 11.160398 47.485222 11.121094 47.660156 C 11.084698 47.822186 11.046326 47.983436 11.013672 48.146484 C 10.963401 48.397401 10.920228 48.649198 10.878906 48.902344 C 10.867198 48.974075 10.852781 49.045289 10.841797 49.117188 C 10.793 49.436616 10.753125 49.757618 10.71875 50.080078 C 10.715892 50.106889 10.711742 50.133326 10.708984 50.160156 C 10.672693 50.513234 10.64374 50.868504 10.625 51.224609 C 10.60875 51.533396 10.602459 51.843711 10.599609 52.154297 L 10.308594 52.154297 C 10.308594 52.154297 9.4349109 52.151496 8.5664062 51.730469 C 7.6978994 51.309484 6.84375 50.500669 6.84375 48.800781 L 6.84375 22.589844 C 6.84375 22.419161 6.8586479 22.264164 6.875 22.111328 C 6.8808739 22.057885 6.8849093 22.002379 6.8925781 21.951172 C 6.8937081 21.943572 6.8951744 21.936074 6.8964844 21.927734 C 6.9150588 21.807252 6.9405515 21.695207 6.96875 21.585938 C 7.0173337 21.400257 7.0781732 21.227491 7.1503906 21.072266 C 7.1584206 21.054956 7.1610824 21.045119 7.1621094 21.042969 C 7.2320263 20.897113 7.3132656 20.766811 7.4023438 20.642578 C 7.4417317 20.587428 7.4898638 20.535055 7.5429688 20.472656 C 7.6099757 20.394196 7.6726388 20.320179 7.734375 20.261719 C 7.777307 20.220899 7.826282 20.181759 7.8808594 20.136719 C 7.9566792 20.074365 8.0260903 20.017845 8.09375 19.970703 C 8.1068907 19.961836 8.119591 19.951989 8.1328125 19.943359 C 8.1659181 19.922836 8.2025225 19.903316 8.25 19.875 C 8.3411169 19.82085 8.4276492 19.767966 8.5097656 19.728516 C 8.5611949 19.7037 8.6166926 19.682204 8.671875 19.660156 C 8.81024 19.601411 8.9469164 19.553802 9.0800781 19.513672 C 9.1535309 19.492021 9.2289087 19.466288 9.2988281 19.449219 C 9.3361373 19.440109 9.3648026 19.435605 9.4003906 19.427734 C 9.5016818 19.405517 9.6041685 19.38297 9.6933594 19.369141 C 9.7731174 19.35655 9.837327 19.350758 9.9042969 19.34375 C 10.096311 19.326464 10.304687 19.3125 10.304688 19.3125 L 10.306641 19.3125 L 10.308594 19.3125 L 25.779297 19.3125 C 25.994386 19.312549 26.209879 19.305402 26.423828 19.289062 C 26.626016 19.273563 26.827524 19.248759 27.027344 19.21875 C 27.083712 19.210288 27.139169 19.199054 27.195312 19.189453 C 27.341272 19.164479 27.486635 19.138092 27.630859 19.105469 C 27.688448 19.092452 27.745455 19.076723 27.802734 19.0625 C 27.946268 19.02683 28.089086 18.9885 28.230469 18.945312 C 28.291485 18.926699 28.351532 18.904764 28.412109 18.884766 C 28.536207 18.843737 28.65915 18.800704 28.78125 18.753906 C 28.854463 18.725888 28.927564 18.698042 29 18.667969 C 29.114118 18.620523 29.225842 18.568123 29.337891 18.515625 C 29.412087 18.480905 29.487322 18.449025 29.560547 18.412109 C 29.673627 18.355043 29.783916 18.292717 29.894531 18.230469 C 29.958847 18.194306 30.02446 18.160948 30.087891 18.123047 C 30.260381 18.019912 30.430234 17.910719 30.595703 17.794922 L 33.564453 15.716797 C 33.692081 15.627477 33.825449 15.544612 33.960938 15.462891 A 0.15001501 0.15001501 0 0 0 33.960938 15.460938 C 34.042857 15.410462 34.126727 15.36188 34.210938 15.314453 L 34.25 15.292969 C 34.526787 15.137778 34.813807 15.001211 35.107422 14.878906 C 35.134722 14.867626 35.155662 14.857342 35.169922 14.851562 C 35.193142 14.842263 35.191481 14.841903 35.181641 14.845703 C 35.465998 14.730559 35.758067 14.633308 36.054688 14.550781 C 36.082694 14.543054 36.110581 14.53477 36.138672 14.527344 C 36.442217 14.446466 36.750463 14.382978 37.0625 14.337891 C 37.0686 14.337469 37.076452 14.335938 37.076172 14.335938 L 37.078125 14.335938 C 37.078956 14.335868 37.081931 14.335947 37.082031 14.335938 C 37.39408 14.291605 37.708394 14.268921 38.025391 14.261719 C 38.086003 14.260356 38.146301 14.253907 38.207031 14.253906 L 38.207031 14.246094 z M 13.185547 15.302734 L 33.652344 15.302734 C 33.565204 15.357354 33.478334 15.410688 33.392578 15.470703 L 30.423828 17.548828 C 30.261385 17.662508 30.095261 17.768168 29.925781 17.869141 C 29.878084 17.897563 29.829466 17.923767 29.78125 17.951172 C 29.663544 18.018062 29.544458 18.083764 29.423828 18.144531 C 29.357005 18.178192 29.288364 18.20847 29.220703 18.240234 C 29.10694 18.293634 28.992932 18.344589 28.876953 18.392578 C 28.811042 18.419864 28.744312 18.445181 28.677734 18.470703 C 28.565963 18.513522 28.453357 18.55399 28.339844 18.591797 C 28.262739 18.617497 28.185264 18.642649 28.107422 18.666016 C 28.000947 18.697952 27.892893 18.728324 27.785156 18.755859 C 27.706317 18.77601 27.628279 18.79668 27.548828 18.814453 C 27.417558 18.843836 27.285093 18.867791 27.152344 18.890625 C 27.096391 18.900247 27.04056 18.913427 26.984375 18.921875 C 26.586884 18.981631 26.184754 19.01181 25.779297 19.011719 L 10.308594 19.011719 A 0.15001501 0.15001501 0 0 0 10.302734 19.011719 C 10.302734 19.011719 10.298871 19.011717 10.298828 19.011719 C 10.288644 19.011524 10.16528 19.016027 9.9941406 19.029297 A 0.15001501 0.15001501 0 0 0 9.9921875 19.029297 C 9.8399365 19.041164 9.6461856 19.072326 9.4140625 19.119141 L 9.4140625 19.072266 C 9.414112 18.941999 9.4206897 18.812384 9.4335938 18.685547 C 9.4851472 18.178808 9.6374753 17.702337 9.8691406 17.275391 L 9.8691406 17.273438 C 10.507518 16.098253 11.752611 15.302565 13.185547 15.302734 z M 16.755859 28.679688 C 16.862828 28.677788 16.96991 28.686288 17.074219 28.705078 C 17.497294 28.782018 17.874284 29.025033 18.119141 29.378906 L 20.251953 32.464844 C 20.86975 33.358405 22.111713 33.629283 23.087891 33.173828 C 25.873783 31.874019 28.917215 31.194452 32.005859 31.193359 C 35.094315 31.193865 38.139828 31.872724 40.925781 33.171875 C 41.902018 33.627117 43.143748 33.356285 43.761719 32.462891 L 45.894531 29.378906 C 45.958341 29.286695 46.030223 29.202973 46.107422 29.128906 C 46.183646 29.055807 46.266684 28.991308 46.353516 28.935547 C 46.364119 28.928738 46.375981 28.924515 46.386719 28.917969 C 46.459595 28.87354 46.535121 28.834881 46.613281 28.802734 C 46.644025 28.790125 46.67564 28.780213 46.707031 28.769531 C 46.765563 28.749578 46.824478 28.731895 46.884766 28.71875 C 46.926896 28.709592 46.96899 28.703059 47.011719 28.697266 C 47.066061 28.689878 47.120872 28.68545 47.175781 28.683594 C 47.218025 28.682193 47.260387 28.681685 47.302734 28.683594 C 47.356789 28.686018 47.410995 28.693273 47.464844 28.701172 C 47.511859 28.708094 47.558914 28.713465 47.605469 28.724609 C 47.654174 28.736249 47.702108 28.753205 47.75 28.769531 C 47.79559 28.785081 47.842153 28.798515 47.886719 28.818359 C 47.97815 28.859114 48.06698 28.907612 48.152344 28.966797 C 48.889424 29.477667 49.072765 30.485002 48.5625 31.222656 L 46.427734 34.310547 C 45.80974 35.203794 45.993458 36.461904 46.763672 37.214844 C 47.014096 37.459652 47.257283 37.710895 47.494141 37.966797 C 47.727537 38.218959 47.953851 38.475904 48.173828 38.738281 C 48.177091 38.742173 48.180334 38.746107 48.183594 38.75 C 48.201455 38.77131 48.218555 38.793078 48.236328 38.814453 C 48.436335 39.055301 48.631747 39.299921 48.820312 39.548828 C 48.824236 39.554007 48.828113 39.559271 48.832031 39.564453 C 48.850373 39.588671 48.866533 39.61438 48.884766 39.638672 C 49.066684 39.881451 49.245098 40.127004 49.416016 40.376953 C 49.42314 40.387372 49.430394 40.397772 49.4375 40.408203 C 49.457676 40.437763 49.476072 40.468391 49.496094 40.498047 C 49.661832 40.744054 49.823529 40.991677 49.978516 41.244141 C 49.985414 41.255378 49.993123 41.266094 50 41.277344 C 50.013719 41.299727 50.025429 41.323271 50.039062 41.345703 C 50.204076 41.617922 50.365201 41.892693 50.517578 42.171875 C 50.517848 42.17237 50.517308 42.173333 50.517578 42.173828 C 50.518276 42.175104 50.518833 42.176458 50.519531 42.177734 C 50.683959 42.479202 50.840782 42.784718 50.990234 43.09375 C 52.34101 45.886833 53.07573 48.976942 53.099609 52.154297 L 10.912109 52.154297 C 10.938634 49.333103 11.524549 46.581518 12.605469 44.046875 C 12.740584 43.730045 12.884727 43.417193 13.035156 43.107422 C 13.175023 42.819403 13.321719 42.535343 13.474609 42.253906 C 13.494143 42.218054 13.51346 42.182226 13.533203 42.146484 C 13.676211 41.886848 13.826501 41.630523 13.980469 41.376953 C 14.003648 41.33878 14.025403 41.299749 14.048828 41.261719 C 14.195132 41.024192 14.348075 40.790395 14.503906 40.558594 C 14.544622 40.498158 14.583645 40.436987 14.625 40.376953 C 14.755414 40.187246 14.892525 40.001985 15.029297 39.816406 C 15.101528 39.718569 15.170166 39.618139 15.244141 39.521484 C 15.370575 39.356031 15.503245 39.195089 15.634766 39.033203 C 15.715392 38.934082 15.792495 38.832122 15.875 38.734375 C 16.063154 38.511237 16.259138 38.293851 16.457031 38.078125 C 16.485424 38.047174 16.512425 38.015169 16.541016 37.984375 C 16.776151 37.731119 17.017194 37.482586 17.265625 37.240234 C 18.036674 36.488057 18.221495 35.229346 17.603516 34.335938 L 15.451172 31.222656 C 14.940905 30.485002 15.124248 29.477667 15.861328 28.966797 C 16.125017 28.784146 16.435012 28.684999 16.755859 28.679688 z M 23.076172 41.949219 C 22.860578 41.949233 22.650668 41.971958 22.447266 42.013672 C 22.243863 42.055386 22.04637 42.116113 21.859375 42.195312 C 21.68211 42.270391 21.5143 42.363674 21.355469 42.46875 C 21.346975 42.474363 21.336562 42.476722 21.328125 42.482422 C 21.319276 42.4884 21.311521 42.49588 21.302734 42.501953 C 21.146034 42.610155 20.999487 42.730986 20.865234 42.865234 C 20.730982 42.999483 20.61016 43.146036 20.501953 43.302734 C 20.49588 43.311521 20.4884 43.319277 20.482422 43.328125 C 20.476721 43.336562 20.474363 43.346974 20.46875 43.355469 C 20.363668 43.514299 20.270397 43.682107 20.195312 43.859375 C 20.116107 44.046373 20.05539 44.243854 20.013672 44.447266 C 19.971954 44.650678 19.949233 44.860561 19.949219 45.076172 C 19.949233 45.291783 19.971954 45.501666 20.013672 45.705078 C 20.05539 45.90849 20.116107 46.10597 20.195312 46.292969 C 20.270397 46.470237 20.363668 46.638045 20.46875 46.796875 C 20.474363 46.805369 20.476721 46.815781 20.482422 46.824219 C 20.4884 46.833067 20.49588 46.840823 20.501953 46.849609 C 20.61016 47.006308 20.730982 47.152861 20.865234 47.287109 C 20.999487 47.421358 21.146034 47.542189 21.302734 47.650391 C 21.311521 47.656464 21.319276 47.663943 21.328125 47.669922 C 21.336562 47.675622 21.346975 47.677981 21.355469 47.683594 C 21.5143 47.78867 21.68211 47.881952 21.859375 47.957031 C 22.04637 48.036231 22.243863 48.096958 22.447266 48.138672 C 22.650668 48.180386 22.860578 48.203111 23.076172 48.203125 C 23.495809 48.203392 23.895759 48.118936 24.261719 47.96875 C 24.271768 47.964642 24.282972 47.963207 24.292969 47.958984 C 24.30404 47.954308 24.313204 47.946211 24.324219 47.941406 C 24.493848 47.867392 24.656164 47.781349 24.808594 47.679688 C 24.821074 47.671364 24.83335 47.662794 24.845703 47.654297 C 25.003878 47.545497 25.151727 47.422407 25.287109 47.287109 C 25.428737 47.14557 25.557366 46.990631 25.669922 46.824219 C 25.782477 46.657807 25.879722 46.480035 25.958984 46.292969 C 26.038247 46.105903 26.098876 45.910533 26.140625 45.707031 C 26.140753 45.706407 26.140497 45.705703 26.140625 45.705078 C 26.161347 45.603889 26.178559 45.500633 26.189453 45.396484 C 26.189518 45.395845 26.189388 45.395171 26.189453 45.394531 C 26.200351 45.289721 26.205068 45.184024 26.205078 45.076172 C 26.205071 44.967655 26.200483 44.861294 26.189453 44.755859 C 26.178814 44.651435 26.161311 44.548415 26.140625 44.447266 C 26.140498 44.446648 26.140752 44.44593 26.140625 44.445312 C 26.098876 44.241809 26.038247 44.046443 25.958984 43.859375 C 25.879722 43.672307 25.782477 43.494539 25.669922 43.328125 C 25.557366 43.161711 25.428737 43.006775 25.287109 42.865234 C 25.151727 42.729935 25.003878 42.606848 24.845703 42.498047 C 24.838835 42.493322 24.83308 42.487093 24.826172 42.482422 C 24.825701 42.482104 24.82469 42.48274 24.824219 42.482422 C 24.819132 42.478986 24.813702 42.476063 24.808594 42.472656 C 24.656164 42.370995 24.493848 42.284951 24.324219 42.210938 C 24.313204 42.206133 24.30404 42.198036 24.292969 42.193359 C 24.282972 42.189137 24.271768 42.187702 24.261719 42.183594 C 23.895759 42.03341 23.49581 41.948938 23.076172 41.949219 z M 40.935547 41.949219 C 40.719953 41.949233 40.510043 41.971958 40.306641 42.013672 C 40.103238 42.055386 39.905745 42.116113 39.71875 42.195312 C 39.541485 42.270391 39.373675 42.363674 39.214844 42.46875 C 39.20635 42.474363 39.195937 42.476722 39.1875 42.482422 C 39.178651 42.4884 39.170896 42.49588 39.162109 42.501953 C 39.005409 42.610155 38.858862 42.730986 38.724609 42.865234 C 38.590357 42.999483 38.469535 43.146036 38.361328 43.302734 C 38.355255 43.311521 38.347775 43.319277 38.341797 43.328125 C 38.336096 43.336562 38.333738 43.346974 38.328125 43.355469 C 38.223043 43.514299 38.129772 43.682106 38.054688 43.859375 C 37.975482 44.046374 37.914765 44.243854 37.873047 44.447266 C 37.831329 44.650678 37.808608 44.860561 37.808594 45.076172 C 37.808608 45.291783 37.831329 45.501666 37.873047 45.705078 C 37.914765 45.90849 37.975482 46.10597 38.054688 46.292969 C 38.129772 46.470237 38.223043 46.638045 38.328125 46.796875 C 38.333738 46.805369 38.336096 46.815781 38.341797 46.824219 C 38.347775 46.833067 38.355255 46.840823 38.361328 46.849609 C 38.469535 47.006308 38.590357 47.152861 38.724609 47.287109 C 38.858862 47.421358 39.005409 47.542189 39.162109 47.650391 C 39.170896 47.656464 39.178651 47.663943 39.1875 47.669922 C 39.195937 47.675622 39.20635 47.677981 39.214844 47.683594 C 39.373675 47.78867 39.541485 47.881952 39.71875 47.957031 C 39.905745 48.036231 40.103238 48.096958 40.306641 48.138672 C 40.510043 48.180386 40.719953 48.203111 40.935547 48.203125 C 41.15114 48.203111 41.361051 48.180386 41.564453 48.138672 C 41.767855 48.096958 41.965349 48.036231 42.152344 47.957031 C 42.329609 47.881952 42.497419 47.78867 42.65625 47.683594 C 42.664744 47.677981 42.675157 47.675622 42.683594 47.669922 C 42.692443 47.663943 42.700198 47.656464 42.708984 47.650391 C 42.865685 47.542189 43.012232 47.421358 43.146484 47.287109 C 43.280737 47.152861 43.401559 47.006308 43.509766 46.849609 C 43.515839 46.840823 43.523318 46.833067 43.529297 46.824219 C 43.534998 46.815781 43.537356 46.805369 43.542969 46.796875 C 43.648051 46.638045 43.741322 46.470237 43.816406 46.292969 C 43.895612 46.10597 43.956329 45.90849 43.998047 45.705078 C 44.039765 45.501666 44.062486 45.291783 44.0625 45.076172 C 44.062486 44.860561 44.039765 44.650678 43.998047 44.447266 C 43.956329 44.243854 43.895612 44.046373 43.816406 43.859375 C 43.741322 43.682107 43.648051 43.514299 43.542969 43.355469 C 43.537356 43.346974 43.534998 43.336562 43.529297 43.328125 C 43.523318 43.319277 43.515839 43.311521 43.509766 43.302734 C 43.401559 43.146036 43.280737 42.999483 43.146484 42.865234 C 43.012232 42.730986 42.865685 42.610155 42.708984 42.501953 C 42.700198 42.49588 42.692443 42.4884 42.683594 42.482422 C 42.675157 42.476722 42.664744 42.474363 42.65625 42.46875 C 42.497419 42.363674 42.329609 42.270391 42.152344 42.195312 C 41.965349 42.116113 41.767855 42.055386 41.564453 42.013672 C 41.361051 41.971958 41.15114 41.949233 40.935547 41.949219 z M 23.076172 42.25 C 23.2714 42.249877 23.462201 42.269031 23.646484 42.306641 C 23.831131 42.344321 24.007172 42.399481 24.175781 42.470703 C 24.176344 42.47094 24.177172 42.470466 24.177734 42.470703 C 24.346175 42.541978 24.508261 42.631209 24.658203 42.732422 C 24.80842 42.83382 24.94784 42.947926 25.076172 43.076172 C 25.20385 43.203765 25.317988 43.345304 25.419922 43.496094 C 25.521445 43.646278 25.610325 43.8064 25.681641 43.974609 C 25.681865 43.975138 25.681417 43.976033 25.681641 43.976562 C 25.753261 44.145805 25.809995 44.321973 25.847656 44.505859 C 25.885356 44.689926 25.904287 44.88072 25.904297 45.076172 C 25.904278 45.271631 25.885356 45.462423 25.847656 45.646484 C 25.809996 45.83037 25.753266 46.006537 25.681641 46.175781 C 25.681417 46.17631 25.681865 46.177205 25.681641 46.177734 C 25.610328 46.345947 25.521445 46.506064 25.419922 46.65625 C 25.317989 46.807041 25.203851 46.948577 25.076172 47.076172 C 24.94784 47.204419 24.80842 47.318523 24.658203 47.419922 C 24.508263 47.521134 24.346178 47.61036 24.177734 47.681641 C 24.177206 47.681864 24.17631 47.681417 24.175781 47.681641 C 24.007169 47.752861 23.831131 47.808023 23.646484 47.845703 C 23.462198 47.883313 23.271392 47.902474 23.076172 47.902344 C 22.88086 47.902325 22.689828 47.883363 22.505859 47.845703 C 22.322116 47.808093 22.145755 47.751263 21.976562 47.679688 C 21.976029 47.679462 21.975142 47.679913 21.974609 47.679688 C 21.805686 47.608109 21.645583 47.520918 21.496094 47.419922 C 21.345424 47.318127 21.203816 47.203811 21.076172 47.076172 C 20.948534 46.948539 20.834226 46.806926 20.732422 46.65625 C 20.631423 46.506768 20.544237 46.346666 20.472656 46.177734 C 20.47242 46.177175 20.472892 46.176341 20.472656 46.175781 C 20.401086 46.00658 20.344253 45.830237 20.306641 45.646484 C 20.268971 45.462511 20.25001 45.2715 20.25 45.076172 C 20.250019 44.880842 20.268981 44.689841 20.306641 44.505859 C 20.344261 44.322105 20.401081 44.145761 20.472656 43.976562 C 20.472882 43.976029 20.47243 43.975142 20.472656 43.974609 C 20.544245 43.805676 20.631424 43.645576 20.732422 43.496094 C 20.834227 43.345418 20.948535 43.203804 21.076172 43.076172 C 21.203816 42.948532 21.345425 42.834216 21.496094 42.732422 C 21.645582 42.631426 21.805683 42.544236 21.974609 42.472656 C 21.975169 42.47242 21.976003 42.472892 21.976562 42.472656 C 22.145757 42.401086 22.322117 42.344253 22.505859 42.306641 C 22.689831 42.268981 22.880866 42.25001 23.076172 42.25 z M 40.935547 42.25 C 41.130857 42.250019 41.321894 42.268981 41.505859 42.306641 C 41.689606 42.344251 41.865962 42.401081 42.035156 42.472656 C 42.035716 42.472892 42.03655 42.47242 42.037109 42.472656 C 42.206036 42.544235 42.366138 42.631425 42.515625 42.732422 C 42.666294 42.834215 42.807903 42.948532 42.935547 43.076172 C 43.063184 43.203805 43.177492 43.345418 43.279297 43.496094 C 43.380295 43.645577 43.467484 43.805678 43.539062 43.974609 C 43.539288 43.975142 43.538837 43.976029 43.539062 43.976562 C 43.610642 44.145764 43.667466 44.32211 43.705078 44.505859 C 43.742748 44.689835 43.761709 44.880844 43.761719 45.076172 C 43.7617 45.271501 43.742738 45.462504 43.705078 45.646484 C 43.667458 45.830241 43.610638 46.006583 43.539062 46.175781 C 43.538837 46.176314 43.539288 46.177201 43.539062 46.177734 C 43.467484 46.346668 43.380295 46.506769 43.279297 46.65625 C 43.177493 46.806926 43.063184 46.948537 42.935547 47.076172 C 42.807903 47.203811 42.666295 47.318127 42.515625 47.419922 C 42.366138 47.520917 42.206038 47.60811 42.037109 47.679688 C 42.036576 47.679913 42.035689 47.679462 42.035156 47.679688 C 41.86596 47.751257 41.689605 47.808091 41.505859 47.845703 C 41.32189 47.883363 41.130851 47.902334 40.935547 47.902344 C 40.740235 47.902325 40.549203 47.883363 40.365234 47.845703 C 40.181492 47.808093 40.005131 47.751263 39.835938 47.679688 C 39.835404 47.679462 39.834517 47.679913 39.833984 47.679688 C 39.665061 47.608109 39.504958 47.520918 39.355469 47.419922 C 39.204799 47.318127 39.063191 47.203811 38.935547 47.076172 C 38.807909 46.948538 38.693601 46.806926 38.591797 46.65625 C 38.490798 46.506768 38.403612 46.346666 38.332031 46.177734 C 38.331795 46.177175 38.332267 46.176341 38.332031 46.175781 C 38.260451 46.00658 38.203628 45.830237 38.166016 45.646484 C 38.128346 45.462511 38.109385 45.2715 38.109375 45.076172 C 38.109394 44.880842 38.128356 44.689843 38.166016 44.505859 C 38.203636 44.322104 38.260456 44.145761 38.332031 43.976562 C 38.332257 43.976029 38.331805 43.975142 38.332031 43.974609 C 38.40362 43.805676 38.490799 43.645576 38.591797 43.496094 C 38.693602 43.345418 38.80791 43.203804 38.935547 43.076172 C 39.063191 42.948532 39.2048 42.834216 39.355469 42.732422 C 39.504957 42.631426 39.665058 42.544236 39.833984 42.472656 C 39.834544 42.47242 39.835378 42.472892 39.835938 42.472656 C 40.005132 42.401086 40.181492 42.344253 40.365234 42.306641 C 40.549206 42.268981 40.740241 42.25001 40.935547 42.25 z " />
</svg>
