<?xml version="1.0" encoding="UTF-8" standalone="no"?>
<svg
   width="64"
   height="64"
   version="1"
   id="svg10"
   sodipodi:docname="accessories-notes.svg"
   inkscape:version="1.3.2 (091e20ef0f, 2023-11-25, custom)"
   xmlns:inkscape="http://www.inkscape.org/namespaces/inkscape"
   xmlns:sodipodi="http://sodipodi.sourceforge.net/DTD/sodipodi-0.dtd"
   xmlns:xlink="http://www.w3.org/1999/xlink"
   xmlns="http://www.w3.org/2000/svg"
   xmlns:svg="http://www.w3.org/2000/svg">
  <defs
     id="defs10">
    <linearGradient
       id="linearGradient14"
       inkscape:collect="always">
      <stop
         style="stop-color:#ff9500;stop-opacity:0.99995726;"
         offset="0"
         id="stop15" />
      <stop
         style="stop-color:#ff6600;stop-opacity:0.99995726;"
         offset="1"
         id="stop16" />
    </linearGradient>
    <linearGradient
       id="linearGradient13"
       inkscape:collect="always">
      <stop
         style="stop-color:#fecd38;stop-opacity:1;"
         offset="0"
         id="stop13" />
      <stop
         style="stop-color:#feaa38;stop-opacity:1;"
         offset="1"
         id="stop14" />
    </linearGradient>
    <radialGradient
       inkscape:collect="always"
       xlink:href="#linearGradient13"
       id="radialGradient14"
       cx="9.3540497"
       cy="8.8626909"
       fx="9.3540497"
       fy="8.8626909"
       r="28"
       gradientUnits="userSpaceOnUse"
       gradientTransform="matrix(0.03933392,1.7187554,-1.8898584,0.04324962,26.948702,-6.3536861)" />
    <radialGradient
       inkscape:collect="always"
       xlink:href="#linearGradient14"
       id="radialGradient1"
       cx="3.4521797"
       cy="3.0840595"
       fx="3.4521797"
       fy="3.0840595"
       r="22"
       gradientTransform="matrix(-0.40437185,2.2844593,-2.4986895,-0.44229262,18.265134,-6.5079832)"
       gradientUnits="userSpaceOnUse" />
    <radialGradient
       inkscape:collect="always"
       xlink:href="#linearGradient14"
       id="radialGradient2"
       cx="3.4521797"
       cy="3.0840595"
       fx="3.4521797"
       fy="3.0840595"
       r="22"
       gradientTransform="matrix(-0.40437185,2.2844593,-2.4986895,-0.44229262,18.265134,-6.5079832)"
       gradientUnits="userSpaceOnUse" />
    <radialGradient
       inkscape:collect="always"
       xlink:href="#linearGradient14"
       id="radialGradient4"
       cx="3.4521797"
       cy="3.0840595"
       fx="3.4521797"
       fy="3.0840595"
       r="22"
       gradientTransform="matrix(-0.40437185,2.2844593,-2.4986895,-0.44229262,18.265134,-6.5079832)"
       gradientUnits="userSpaceOnUse" />
    <filter
       inkscape:collect="always"
       style="color-interpolation-filters:sRGB"
       id="filter11"
       x="-0.10002892"
       y="-0.10006768"
       width="1.2000339"
       height="1.2001336">
      <feGaussianBlur
         inkscape:collect="always"
         stdDeviation="2.2766101"
         id="feGaussianBlur11" />
    </filter>
    <radialGradient
       inkscape:collect="always"
       xlink:href="#linearGradient14"
       id="radialGradient11"
       gradientUnits="userSpaceOnUse"
       gradientTransform="matrix(-0.38263652,2.1616677,-2.3643828,-0.41851902,18.999508,-4.4375419)"
       cx="3.4521797"
       cy="3.0840595"
       fx="3.4521797"
       fy="3.0840595"
       r="22" />
  </defs>
  <sodipodi:namedview
     id="namedview10"
     pagecolor="#ffffff"
     bordercolor="#000000"
     borderopacity="0.25"
     inkscape:showpageshadow="2"
     inkscape:pageopacity="0.0"
     inkscape:pagecheckerboard="0"
     inkscape:deskcolor="#d1d1d1"
     inkscape:zoom="9.8111066"
     inkscape:cx="31.851657"
     inkscape:cy="29.6093"
     inkscape:window-width="1920"
     inkscape:window-height="1020"
     inkscape:window-x="0"
     inkscape:window-y="0"
     inkscape:window-maximized="1"
     inkscape:current-layer="svg10" />
  <path
     style="fill:url(#radialGradient14);stroke-width:0.946249"
     d="m 9.2861341,5.5056283 c 0,0 -3.7849966,0 -3.7849966,3.7849966 V 54.710584 c 0,3.784997 3.7849966,3.784997 3.7849966,3.784997 H 39.566107 L 58.49109,39.570598 V 9.2906249 c 0,-3.7849966 -3.784997,-3.7849966 -3.784997,-3.7849966 z"
     id="path2" />
  <path
     style="fill:#ffe69b;stroke-width:0.946249"
     d="M 58.513977,39.570598 H 42.427741 c -1.566988,0 -2.838747,1.271759 -2.838747,2.838747 v 16.086236 z"
     id="path3" />
  <path
     id="rect6"
     style="fill:url(#radialGradient11);stroke-width:0.946249"
     d="m 13.544255,19.699366 c -1.310554,0 -2.365623,1.055068 -2.365623,2.365623 0,1.310554 1.055069,2.365622 2.365623,2.365622 h 36.903717 c 1.310554,0 2.365623,-1.055068 2.365623,-2.365622 0,-1.310555 -1.055069,-2.365623 -2.365623,-2.365623 z m 0,10.40874 c -1.310554,0 -2.365623,1.055069 -2.365623,2.365623 0,1.310554 1.055069,2.365623 2.365623,2.365623 h 23.656229 c 1.310554,0 2.365623,-1.055069 2.365623,-2.365623 0,-1.310554 -1.055069,-2.365623 -2.365623,-2.365623 z m 0,10.408741 c -1.310554,0 -2.365623,1.055069 -2.365623,2.365623 0,1.310554 1.055069,2.365623 2.365623,2.365623 h 13.247488 c 1.310555,0 2.365623,-1.055069 2.365623,-2.365623 0,-1.310554 -1.055068,-2.365623 -2.365623,-2.365623 z" />
  <path
     id="path7"
     style="color:#000000;mix-blend-mode:normal;fill:#000000;stroke:#000000;stroke-width:0.3;stroke-linejoin:round;stroke-dasharray:none;stroke-opacity:1;filter:url(#filter11)"
     d="m 7.9179688,3.9609375 c 0,0 -1.0095608,-1.035e-4 -2.0214844,0.5058594 C 4.8845607,4.9727597 3.8671875,5.9950601 3.8671875,8.0117188 V 56.011719 c 0,2.016658 1.0173732,3.037006 2.0292969,3.542969 1.0119236,0.505963 2.0214844,0.505859 2.0214844,0.505859 H 39.917969 a 0.05000499,0.05000499 0 0 0 0.0039,-0.002 0.05000499,0.05000499 0 0 0 0.002,0 0.05000499,0.05000499 0 0 0 0.05273,-0.01172 l 20,-20 a 0.05000499,0.05000499 0 0 0 -0.0078,-0.07422 V 8.0117188 c 0,-2.0166587 -1.01542,-3.0389591 -2.027344,-3.5449219 C 56.929472,3.960834 55.917969,3.9609375 55.917969,3.9609375 Z m 0,0.099609 H 55.917969 c 0,0 0.990443,1.034e-4 1.978515,0.4941406 0.988073,0.4940372 1.970704,1.4737058 1.970704,3.4570313 V 39.960938 H 42.941406 c -0.21038,0 -0.416763,0.02181 -0.615234,0.0625 -0.198472,0.04069 -0.389814,0.100473 -0.572266,0.177734 -0.182451,0.07726 -0.355257,0.171525 -0.517578,0.28125 -0.16232,0.109725 -0.313093,0.234968 -0.451172,0.373047 -0.138078,0.138078 -0.263321,0.288851 -0.373047,0.451172 -0.109725,0.16232 -0.203988,0.335126 -0.28125,0.517578 -0.07726,0.182451 -0.137048,0.373794 -0.177734,0.572265 -0.04069,0.198472 -0.0625,0.404854 -0.0625,0.615235 V 59.960938 H 7.9179688 c 0,0 -0.9884901,-1.04e-4 -1.9765626,-0.494141 C 4.9533339,58.972759 3.96875,57.995044 3.96875,56.011719 V 8.0117188 c 0,-1.9833255 0.9845839,-2.9629941 1.9726562,-3.4570313 C 6.9294787,4.0606503 7.9179688,4.0605473 7.9179688,4.0605469 Z M 12.417969,18.960938 c -1.411827,0 -2.5507815,1.138954 -2.5507815,2.550781 0,1.411826 1.1389545,2.548828 2.5507815,2.548828 h 39 c 1.411826,0 2.550781,-1.137002 2.550781,-2.548828 0,-1.411827 -1.138955,-2.550781 -2.550781,-2.550781 z m 0,0.09961 h 39 c 1.358155,0 2.449218,1.093015 2.449219,2.451172 0,1.358155 -1.091064,2.449219 -2.449219,2.449219 h -39 c -1.358157,0 -2.449219,-1.091064 -2.449219,-2.449219 0,-1.358157 1.091062,-2.451172 2.449219,-2.451172 z m 0,10.900391 c -1.411826,0 -2.5507815,1.138955 -2.5507815,2.550781 0,1.411825 1.1389555,2.548828 2.5507815,2.548828 h 25 c 1.411825,0 2.550781,-1.137003 2.550781,-2.548828 0,-1.411826 -1.138956,-2.550781 -2.550781,-2.550781 z m 0,0.09961 h 25 c 1.358154,0 2.449219,1.093017 2.449219,2.451172 0,1.358154 -1.091065,2.449219 -2.449219,2.449219 h -25 c -1.358155,0 -2.449219,-1.091065 -2.449219,-2.449219 0,-1.358155 1.091064,-2.451172 2.449219,-2.451172 z m 30.523437,10 H 59.820312 L 39.992188,59.888672 V 43.011719 c 0,-0.203618 0.02126,-0.401701 0.06055,-0.59375 0.03928,-0.192049 0.09726,-0.378173 0.171875,-0.554688 0.07461,-0.176514 0.165491,-0.34494 0.271485,-0.501953 0.105993,-0.157012 0.225953,-0.302003 0.359375,-0.435547 0.133421,-0.133543 0.280602,-0.25522 0.4375,-0.361328 0.156898,-0.106108 0.323577,-0.196779 0.5,-0.271484 0.176422,-0.07471 0.362691,-0.132539 0.554687,-0.171875 0.191996,-0.03934 0.390133,-0.06055 0.59375,-0.06055 z m -30.523437,0.900391 c -1.411826,0 -2.5507815,1.138955 -2.5507815,2.550781 0,1.411825 1.1389555,2.548828 2.5507815,2.548828 h 14 c 1.411825,0 2.550781,-1.137003 2.550781,-2.548828 0,-1.411826 -1.138956,-2.550781 -2.550781,-2.550781 z m 0,0.09961 h 14 c 1.358154,0 2.449219,1.093017 2.449219,2.451172 0,1.358154 -1.091065,2.449219 -2.449219,2.449219 h -14 c -1.358155,0 -2.449219,-1.091065 -2.449219,-2.449219 0,-1.358155 1.091064,-2.451172 2.449219,-2.451172 z"
     transform="matrix(0.94624915,0,0,0.94624915,1.7161409,1.7206317)" />
</svg>
