<?xml version="1.0" encoding="UTF-8" standalone="no"?>
<svg
   width="64"
   height="64"
   version="1"
   id="svg8"
   sodipodi:docname="accessories-character-map.svg"
   inkscape:version="1.4 (e7c3feb100, 2024-10-09)"
   xmlns:inkscape="http://www.inkscape.org/namespaces/inkscape"
   xmlns:sodipodi="http://sodipodi.sourceforge.net/DTD/sodipodi-0.dtd"
   xmlns:xlink="http://www.w3.org/1999/xlink"
   xmlns="http://www.w3.org/2000/svg"
   xmlns:svg="http://www.w3.org/2000/svg">
  <defs
     id="defs8">
    <inkscape:path-effect
       effect="fillet_chamfer"
       id="path-effect10"
       is_visible="true"
       lpeversion="1"
       nodesatellites_param="F,0,0,1,0,0.67483794,0,1 @ F,0,0,1,0,0.92504917,0,1 @ F,0,0,1,0,0.92504917,0,1 | F,0,0,1,0,0,0,1 @ F,0,0,1,0,2.9600186,0,1 @ F,0,0,1,0,2.9600186,0,1 @ F,0,0,1,0,0,0,1 @ F,0,0,1,0,1.5276987,0,1 @ F,0,0,1,0,1.0782002,0,1 @ F,0,1,1,0,1.0782002,0,1 @ F,0,0,1,0,1.5276987,0,1"
       radius="0"
       unit="px"
       method="auto"
       mode="F"
       chamfer_steps="1"
       flexible="false"
       use_knot_distance="true"
       apply_no_radius="true"
       apply_with_radius="true"
       only_selected="false"
       hide_knots="false" />
    <radialGradient
       inkscape:collect="always"
       xlink:href="#linearGradient10"
       id="radialGradient11"
       cx="27.734428"
       cy="11.548291"
       fx="27.734426"
       fy="11.54829"
       r="14"
       gradientUnits="userSpaceOnUse"
       gradientTransform="matrix(1.9283647,1.9283647,-1.9283648,1.9283648,-3.4783374,-64.20313)" />
    <linearGradient
       id="linearGradient10"
       inkscape:collect="always">
      <stop
         style="stop-color:#00d6ff;stop-opacity:1;"
         offset="0"
         id="stop10" />
      <stop
         style="stop-color:#0097ff;stop-opacity:1;"
         offset="1"
         id="stop11" />
    </linearGradient>
    <inkscape:path-effect
       effect="fillet_chamfer"
       id="path-effect12"
       is_visible="true"
       lpeversion="1"
       nodesatellites_param="F,0,0,1,0,9.2768362,0,1 @ F,0,1,1,0,9.2768362,0,1 @ F,0,1,1,0,9.2768362,0,1 @ F,0,1,1,0,9.2768362,0,1"
       radius="0"
       unit="px"
       method="auto"
       mode="F"
       chamfer_steps="1"
       flexible="false"
       use_knot_distance="true"
       apply_no_radius="true"
       apply_with_radius="true"
       only_selected="false"
       hide_knots="false" />
    <inkscape:path-effect
       effect="fillet_chamfer"
       id="path-effect4"
       is_visible="true"
       lpeversion="1"
       nodesatellites_param="F,0,0,1,0,0,0,1 @ F,0,0,1,0,1.0446683,0,1 @ F,0,0,1,0,0,0,1 @ F,0,0,1,0,0,0,1 @ F,0,0,1,0,0.96424836,0,1 @ F,0,0,1,0,0,0,1 @ F,0,0,1,0,0,0,1 @ F,0,0,1,0,0,0,1 @ F,0,0,1,0,1.0203189,0,1 | F,0,0,1,0,1.0534274,0,1 @ F,0,0,1,0,1.0534274,0,1 @ F,0,0,1,0,0,0,1 @ F,0,0,1,0,1.0534274,0,1 | F,0,0,1,0,2.3149553,0,1 @ F,0,0,1,0,0,0,1 @ F,0,0,1,0,0.95543774,0,1 @ F,0,0,1,0,0.69542463,0,1 @ F,0,0,1,0,0.69542463,0,1 @ F,0,0,1,0,0.95543774,0,1 @ F,0,0,1,0,0,0,1 @ F,0,0,1,0,2.3149553,0,1 | F,0,0,1,0,0.44265585,0,1 @ F,0,0,1,0,0.44265585,0,1 @ F,0,0,1,0,0.49982134,0,1 @ F,0,0,1,0,0.49982134,0,1 | F,0,0,1,0,2.8124925,0,1 @ F,0,0,1,0,0.62995945,0,1 @ F,0,0,1,0,0,0,1 @ F,0,0,1,0,0.93943768,0,1 @ F,0,0,1,0,0.62995945,0,1 @ F,0,0,1,0,3.0447511,0,1 @ F,0,0,1,0,0,0,1 @ F,0,0,1,0,0,0,1 @ F,0,0,1,0,0,0,1 @ F,0,0,1,0,1.2362875,0,1 @ F,0,0,1,0,0,0,1 @ F,0,0,1,0,0.56279463,0,1 @ F,0,0,1,0,0.90230294,0,1 @ F,0,0,1,0,0.50097917,0,1 @ F,0,0,1,0,0.56279463,0,1 @ F,0,0,1,0,0.49019105,0,1 @ F,0,0,1,0,0,0,1 @ F,0,0,1,0,0.81265617,0,1 @ F,0,0,1,0,0.49019105,0,1 @ F,0,0,1,0,2.8124925,0,1 | F,0,0,1,0,1.1025857,0,1 @ F,0,0,1,0,1.1025857,0,1 @ F,0,0,1,0,0,0,1 @ F,0,0,1,0,1.1025857,0,1 | F,0,0,1,0,0.97612796,0,1 @ F,0,0,1,0,0.97612796,0,1 @ F,0,0,1,0,1.0020474,0,1 @ F,0,0,1,0,1.0020474,0,1 | F,0,0,1,0,0.64469521,0,1 @ F,0,0,1,0,0.64469521,0,1 @ F,0,0,1,0,0,0,1 @ F,0,0,1,0,0.64469521,0,1 | F,0,0,1,0,1.0020474,0,1 @ F,0,0,1,0,1.0020474,0,1 @ F,0,0,1,0,1.1870763,0,1 @ F,0,0,1,0,0.90347465,0,1 | F,0,0,1,0,0,0,1 @ F,0,0,1,0,1.1325996,0,1 @ F,0,0,1,0,0,0,1 @ F,0,0,1,0,1.2903558,0,1 | F,0,0,1,0,0.86932564,0,1 @ F,0,0,1,0,0.86932564,0,1 @ F,0,0,1,0,0,0,1 @ F,0,0,1,0,0.86932564,0,1"
       radius="0"
       unit="px"
       method="auto"
       mode="F"
       chamfer_steps="1"
       flexible="false"
       use_knot_distance="true"
       apply_no_radius="true"
       apply_with_radius="true"
       only_selected="false"
       hide_knots="false" />
    <filter
       inkscape:collect="always"
       style="color-interpolation-filters:sRGB"
       id="filter1"
       x="-0.15188874"
       y="-0.15188873"
       width="1.3037775"
       height="1.3037775">
      <feGaussianBlur
         inkscape:collect="always"
         stdDeviation="1.7197866"
         id="feGaussianBlur1" />
    </filter>
    <inkscape:path-effect
       effect="fillet_chamfer"
       id="path-effect12-3-5"
       is_visible="true"
       lpeversion="1"
       nodesatellites_param="F,0,0,1,0,9.2768362,0,1 @ F,0,1,1,0,9.2768362,0,1 @ F,0,1,1,0,9.2768362,0,1 @ F,0,1,1,0,9.2768362,0,1"
       radius="0"
       unit="px"
       method="auto"
       mode="F"
       chamfer_steps="1"
       flexible="false"
       use_knot_distance="true"
       apply_no_radius="true"
       apply_with_radius="true"
       only_selected="false"
       hide_knots="false" />
    <inkscape:path-effect
       effect="fillet_chamfer"
       id="path-effect12-3"
       is_visible="true"
       lpeversion="1"
       nodesatellites_param="F,0,0,1,0,9.2768362,0,1 @ F,0,1,1,0,9.2768362,0,1 @ F,0,1,1,0,9.2768362,0,1 @ F,0,1,1,0,9.2768362,0,1"
       radius="0"
       unit="px"
       method="auto"
       mode="F"
       chamfer_steps="1"
       flexible="false"
       use_knot_distance="true"
       apply_no_radius="true"
       apply_with_radius="true"
       only_selected="false"
       hide_knots="false" />
    <radialGradient
       inkscape:collect="always"
       xlink:href="#linearGradient10"
       id="radialGradient9"
       cx="16.014132"
       cy="46.659866"
       fx="16.014133"
       fy="46.659866"
       r="6.9999399"
       gradientTransform="matrix(4.5822078,4.8791591,-4.349012,4.0843261,156.18444,-260.39068)"
       gradientUnits="userSpaceOnUse" />
    <radialGradient
       inkscape:collect="always"
       xlink:href="#linearGradient10"
       id="radialGradient12"
       cx="26.640194"
       cy="21.299236"
       fx="26.640194"
       fy="21.299236"
       r="7.7999401"
       gradientTransform="matrix(4.1122344,4.3787277,-3.9029552,3.6654177,0.21943718,-186.40183)"
       gradientUnits="userSpaceOnUse" />
    <filter
       inkscape:collect="always"
       style="color-interpolation-filters:sRGB"
       id="filter12"
       x="-0.14704509"
       y="-0.14704509"
       width="1.2940902"
       height="1.2940902">
      <feGaussianBlur
         inkscape:collect="always"
         stdDeviation="1.8548642"
         id="feGaussianBlur12" />
    </filter>
  </defs>
  <sodipodi:namedview
     id="namedview8"
     pagecolor="#505050"
     bordercolor="#eeeeee"
     borderopacity="1"
     inkscape:showpageshadow="0"
     inkscape:pageopacity="0"
     inkscape:pagecheckerboard="0"
     inkscape:deskcolor="#505050"
     inkscape:zoom="18.28125"
     inkscape:cx="30.495726"
     inkscape:cy="31.671795"
     inkscape:current-layer="svg8" />
  <path
     id="rect10-3-5"
     style="fill:#ececec;fill-opacity:1;stroke:none;stroke-width:0.250793;stroke-linecap:round;stroke-linejoin:round;stroke-miterlimit:2.1;stroke-dasharray:none;stroke-opacity:1;paint-order:markers stroke fill"
     d="m 36.146337,9.0000001 h 9.446327 A 9.2768362,9.2768362 45 0 1 54.8695,18.276836 v 9.446328 A 9.2768362,9.2768362 135 0 1 45.592664,37 h -9.446327 a 9.2768362,9.2768362 45 0 1 -9.276836,-9.276836 v -9.446328 a 9.2768362,9.2768362 135 0 1 9.276836,-9.2768359 z"
     transform="matrix(1.1962047,0,0,1.1962047,-26.804675,14.034129)"
     inkscape:original-d="M 26.869501,9.0000001 H 54.8695 V 37 H 26.869501 Z"
     inkscape:path-effect="#path-effect12-3" />
  <path
     id="rect10-3-5-3"
     style="fill:none;stroke:#000000;stroke-width:0.250793;stroke-linecap:round;stroke-linejoin:round;stroke-miterlimit:2.1;stroke-dasharray:none;stroke-opacity:1;paint-order:markers stroke fill;filter:url(#filter1)"
     d="m 36.146337,9.0000001 h 9.446327 A 9.2768362,9.2768362 45 0 1 54.8695,18.276836 v 9.446328 A 9.2768362,9.2768362 135 0 1 45.592664,37 h -9.446327 a 9.2768362,9.2768362 45 0 1 -9.276836,-9.276836 v -9.446328 a 9.2768362,9.2768362 135 0 1 9.276836,-9.2768359 z"
     transform="matrix(1.1962047,0,0,1.1962047,-26.804675,14.034129)"
     inkscape:original-d="M 26.869501,9.0000001 H 54.8695 V 37 H 26.869501 Z"
     inkscape:path-effect="#path-effect12-3-5" />
  <path
     id="rect10-3"
     style="fill:url(#radialGradient11);stroke-width:0.217316;stroke-linecap:round;stroke-linejoin:round;stroke-miterlimit:2.1;paint-order:markers stroke fill"
     d="m 36.146337,9.0000001 h 9.446327 A 9.2768362,9.2768362 45 0 1 54.8695,18.276836 v 9.446328 A 9.2768362,9.2768362 135 0 1 45.592664,37 h -9.446327 a 9.2768362,9.2768362 45 0 1 -9.276836,-9.276836 v -9.446328 a 9.2768362,9.2768362 135 0 1 9.276836,-9.2768359 z"
     transform="matrix(1.1962047,0,0,1.1962047,-6.5358705,-5.4951902)"
     inkscape:original-d="M 26.869501,9.0000001 H 54.8695 V 37 H 26.869501 Z"
     inkscape:path-effect="#path-effect12" />
  <path
     id="path18"
     style="mix-blend-mode:normal;fill:none;stroke:#000000;stroke-width:0.181281;stroke-linecap:round;stroke-linejoin:round;stroke-miterlimit:2.1;paint-order:markers stroke fill;filter:url(#filter12)"
     d="M 35.658203,7.5546875 C 30.005997,7.554888 25.424029,12.136856 25.423828,17.789062 v 10.421876 c 2.01e-4,5.652206 4.582169,10.234174 10.234375,10.234374 h 10.421875 c 5.652206,-2e-4 10.234174,-4.582168 10.234375,-10.234374 V 17.789062 C 56.314252,12.136856 51.732284,7.554888 46.080078,7.5546875 Z"
     transform="matrix(1.0842481,0,0,1.0842481,-1.9602581,-2.9201882)"
     sodipodi:nodetypes="ccccccccc" />
  <path
     style="fill:#ffffff;stroke:#ffffff;stroke-width:0.69999983;stroke-linecap:square;stroke-linejoin:miter;stroke-dasharray:none;stroke-opacity:1"
     d="m 38.030152,10.997987 v 3 h 3.000001 v -3 z m 6.000001,0 v 3 h 3 v -3 z M 42.7782,16.076112 c -2.3802,0 -4.274262,0.764762 -5.681642,2.294922 -1.39784,1.5208 -2.09767,3.779353 -2.097656,6.376953 0,2.5126 0.737437,4.604625 2.210938,6.078125 1.482998,1.47344 3.490085,2.210937 6.021485,2.210937 1.01076,0 2.007874,-0.1047 2.990234,-0.3125 0.98236,-0.207799 1.873474,-0.509529 2.808594,-0.90625 v -2.265624 c -0.92576,0.491179 -1.793761,0.859888 -2.738281,1.105468 -0.93502,0.24558 -1.903097,0.369141 -2.904297,0.369141 -1.7286,0 -3.079856,-0.467224 -4.052735,-1.402344 -0.96346,-0.9446 -1.501835,-2.832313 -1.615235,-4.626953 h 11.986329 v -1.058594 c 0,-2.3614 -0.624313,-4.425322 -1.871093,-5.794922 C 46.59744,16.765411 44.9128,16.076126 42.7782,16.076112 Z m 0.02734,2.208984 c 1.2845,2e-5 2.315303,0.425311 3.089843,1.275391 0.78394,0.8502 1.184125,2.003428 1.203125,3.429688 l -9.294922,0.01562 c 0.13224,-1.49236 0.632953,-2.666501 1.501953,-3.488281 0.8784,-0.82176 2.045381,-1.232408 3.500001,-1.232422 z"
     id="path4" />
  <path
     style="fill:url(#radialGradient9);stroke:url(#radialGradient12);stroke-width:0.9;stroke-linecap:round;stroke-linejoin:miter;stroke-dasharray:none;stroke-opacity:1"
     d="m 23.650733,44.723287 c -2.2002,2.2e-5 -3.7244,0.24476 -4.573,0.73426 -0.848499,0.48952 -1.272739,1.62407 -1.272739,2.80473 0,0.94062 0.31572,1.68928 0.947159,2.246 0.64128,0.5471 1.5095,0.82064 2.6046,0.82064 1.5095,0 2.718,-0.5183 3.6258,-1.55488 0.91752,-1.0462 1.17602,-2.73273 1.17604,-4.46033 v -0.59028 h -2.50792 m 5.432,-1.094 v 9.91739 h -2.99994 v -2.86566 c -0.62,0.98 -1.11906,1.704 -2.04506,2.174 -0.928,0.462 -2.062,0.692 -3.404,0.692 -1.698,0 -3.047999,-0.46 -4.055999,-1.382 -0.996,-0.932 -1.494,-2.174 -1.494,-3.728 0,-1.81404 0.62156,-3.48133 1.8647,-4.40273 1.253,-0.9214 3.118448,-1.446956 5.593999,-1.38212 h 3.61792 v -0.25916 c -2.2e-5,-1.21894 -0.41438,-1.86007 -1.24312,-2.52227 -2.542081,-1.499249 -6.347141,-1.185848 -8.834439,0.01721 v -2.14807 c 0.99648,-0.37432 2.17786,-0.65264 3.115119,-0.83504 0.93728,-0.19194 1.8499,-0.28792 2.7378,-0.28794 2.3974,2e-5 4.1882,0.6047 5.372,1.81404 1.18392,1.20938 1.77588,2.74307 1.7759,5.20027 m -9.174,-14.08483 4.1734,5.0003 h -2.2642 l -4.823999,-4.9997 h 2.915399"
     id="path8" />
</svg>
