<?xml version="1.0" encoding="UTF-8" standalone="no"?>
<svg
   width="64"
   height="64"
   version="1"
   id="svg5"
   sodipodi:docname="advanced-rest-client.svg"
   inkscape:version="1.3.2 (091e20ef0f, 2023-11-25, custom)"
   xmlns:inkscape="http://www.inkscape.org/namespaces/inkscape"
   xmlns:sodipodi="http://sodipodi.sourceforge.net/DTD/sodipodi-0.dtd"
   xmlns="http://www.w3.org/2000/svg"
   xmlns:svg="http://www.w3.org/2000/svg">
  <defs
     id="defs5">
    <inkscape:path-effect
       effect="fillet_chamfer"
       id="path-effect6"
       is_visible="true"
       lpeversion="1"
       nodesatellites_param="F,0,0,1,0,2.5159487,0,1 @ F,0,0,1,0,1.3327465,0,1 @ F,0,0,1,0,2.8724833,0,1 @ F,0,0,1,0,0,0,1 @ F,0,0,1,0,2.8724833,0,1 @ F,0,0,1,0,0,0,1 @ F,0,0,1,0,2.8724833,0,1 @ F,0,1,1,0,1.3327465,0,1 @ F,0,0,1,0,2.5159487,0,1"
       radius="0"
       unit="px"
       method="auto"
       mode="F"
       chamfer_steps="1"
       flexible="false"
       use_knot_distance="true"
       apply_no_radius="true"
       apply_with_radius="true"
       only_selected="false"
       hide_knots="false" />
    <inkscape:path-effect
       effect="fillet_chamfer"
       id="path-effect5"
       is_visible="true"
       lpeversion="1"
       nodesatellites_param="F,0,0,1,0,3.6526676,0,1 @ F,0,0,1,0,0,0,1 @ F,0,0,1,0,3.6526676,0,1 @ F,0,0,1,0,1.3538359,0,1 @ F,0,0,1,0,4.3965542,0,1 @ F,0,0,1,0,4.3965542,0,1 @ F,0,1,1,0,1.3538359,0,1 @ F,0,0,1,0,3.6526676,0,1 @ F,0,0,1,0,0,0,1"
       radius="0"
       unit="px"
       method="auto"
       mode="F"
       chamfer_steps="1"
       flexible="false"
       use_knot_distance="true"
       apply_no_radius="true"
       apply_with_radius="true"
       only_selected="false"
       hide_knots="false" />
    <filter
       inkscape:collect="always"
       style="color-interpolation-filters:sRGB"
       id="filter6"
       x="-0.070628931"
       y="-0.070628931"
       width="1.1412579"
       height="1.1412579">
      <feGaussianBlur
         inkscape:collect="always"
         stdDeviation="1.6063417"
         id="feGaussianBlur6" />
    </filter>
    <inkscape:path-effect
       effect="fillet_chamfer"
       id="path-effect5-6"
       is_visible="true"
       lpeversion="1"
       nodesatellites_param="F,0,0,1,0,3.6526676,0,1 @ F,0,0,1,0,0,0,1 @ F,0,0,1,0,3.6526676,0,1 @ F,0,0,1,0,1.3538359,0,1 @ F,0,0,1,0,4.3965542,0,1 @ F,0,0,1,0,4.3965542,0,1 @ F,0,1,1,0,1.3538359,0,1 @ F,0,0,1,0,3.6526676,0,1 @ F,0,0,1,0,0,0,1"
       radius="0"
       unit="px"
       method="auto"
       mode="F"
       chamfer_steps="1"
       flexible="false"
       use_knot_distance="true"
       apply_no_radius="true"
       apply_with_radius="true"
       only_selected="false"
       hide_knots="false" />
    <inkscape:path-effect
       effect="fillet_chamfer"
       id="path-effect6-7"
       is_visible="true"
       lpeversion="1"
       nodesatellites_param="F,0,0,1,0,2.5159487,0,1 @ F,0,0,1,0,1.3327465,0,1 @ F,0,0,1,0,2.8724833,0,1 @ F,0,0,1,0,0,0,1 @ F,0,0,1,0,2.8724833,0,1 @ F,0,0,1,0,0,0,1 @ F,0,0,1,0,2.8724833,0,1 @ F,0,1,1,0,1.3327465,0,1 @ F,0,0,1,0,2.5159487,0,1"
       radius="0"
       unit="px"
       method="auto"
       mode="F"
       chamfer_steps="1"
       flexible="false"
       use_knot_distance="true"
       apply_no_radius="true"
       apply_with_radius="true"
       only_selected="false"
       hide_knots="false" />
    <filter
       inkscape:collect="always"
       style="color-interpolation-filters:sRGB"
       id="filter7"
       x="-0.077010191"
       y="-0.094570656"
       width="1.1540842"
       height="1.1891413">
      <feGaussianBlur
         inkscape:collect="always"
         stdDeviation="1.327507"
         id="feGaussianBlur7" />
    </filter>
  </defs>
  <sodipodi:namedview
     id="namedview5"
     pagecolor="#ffffff"
     bordercolor="#000000"
     borderopacity="0.25"
     inkscape:showpageshadow="2"
     inkscape:pageopacity="0.0"
     inkscape:pagecheckerboard="0"
     inkscape:deskcolor="#d1d1d1"
     inkscape:zoom="6.3359375"
     inkscape:cx="23.200986"
     inkscape:cy="42.850801"
     inkscape:window-width="1920"
     inkscape:window-height="1011"
     inkscape:window-x="0"
     inkscape:window-y="0"
     inkscape:window-maximized="1"
     inkscape:current-layer="svg5" />
  <rect
     style="fill:#16a1db"
     width="56"
     height="56"
     x="4"
     y="4"
     rx="17.521442"
     ry="17.521442"
     id="rect2" />
  <rect
     style="fill:none;stroke:#000000;stroke-opacity:1;filter:url(#filter6);stroke-width:0.19999998;stroke-dasharray:none"
     width="56"
     height="56"
     x="4"
     y="4"
     rx="17.521442"
     ry="17.521442"
     id="rect2-3" />
  <path
     id="rect3"
     style="fill:#ffffff"
     d="M 20.677973,15.819605 16,21.5 11.322027,27.180395 A 1.7237831,1.7237831 64.73623 0 0 12.652668,30 h 1.993496 A 1.3538359,1.3538359 45 0 1 16,31.353836 v 14.24961 A 4.3965542,4.3965542 45 0 0 20.396554,50 h 5.206892 A 4.3965542,4.3965542 135 0 0 30,45.603446 V 31.353836 A 1.3538359,1.3538359 135 0 1 31.353836,30 l 1.993496,0 a 1.7237831,1.7237831 115.26377 0 0 1.330641,-2.819605 L 30,21.5 25.322027,15.819605 a 3.0080792,3.0080792 0 0 0 -4.644054,0 z"
     inkscape:path-effect="#path-effect5"
     inkscape:original-d="M 23 13 L 16 21.5 L 9 30 L 16 30 L 16 50 L 30 50 L 30 30 L 37 30 L 30 21.5 L 23 13 z " />
  <path
     id="rect4"
     style="fill:#a2cced"
     d="m 42,-22.515949 v -8.151304 A 1.3327465,1.3327465 45 0 0 40.667253,-32 h -1.595551 a 1.3033134,1.3033134 65.595084 0 1 -0.980779,-2.161624 l 3.008686,-3.437985 3.008687,-3.437986 a 2.5137985,2.5137985 180 0 1 3.783408,0 l 3.008687,3.437986 3.008686,3.437985 A 1.3033134,1.3033134 114.40492 0 1 52.928298,-32 H 51.332746 A 1.3327465,1.3327465 135 0 0 50,-30.667253 v 8.151304 A 2.5159487,2.5159487 135 0 1 47.484051,-20 H 44.515949 A 2.5159487,2.5159487 45 0 1 42,-22.515949 Z"
     transform="scale(1,-1)"
     inkscape:path-effect="#path-effect6"
     inkscape:original-d="M 42 -20 L 42 -32 L 36.199219 -32 L 41.099609 -37.599609 L 46 -43.199219 L 50.900391 -37.599609 L 55.800781 -32 L 50 -32 L 50 -20 L 42 -20 z " />
  <path
     id="rect3-5"
     style="fill:none;stroke:#0021ff;stroke-opacity:1;stroke-width:0.3;stroke-dasharray:none;filter:url(#filter7)"
     d="m 22.96848,14.732867 a 3.0080792,3.0080792 0 0 0 -2.320313,1.095703 l -4.679687,5.679688 -4.677735,5.68164 a 1.7237831,1.7237831 0 0 0 1.332031,2.81836 h 1.992188 a 1.3538359,1.3538359 0 0 1 1.353516,1.355468 v 14.248047 a 4.3965542,4.3965542 0 0 0 4.396484,4.396485 h 5.207031 A 4.3965542,4.3965542 0 0 0 29.96848,45.611773 V 31.363726 a 1.3538359,1.3538359 0 0 1 1.355468,-1.355468 h 1.992188 a 1.7237831,1.7237831 0 0 0 1.332031,-2.81836 L 29.96848,21.508258 25.290745,15.82857 A 3.0080792,3.0080792 0 0 0 22.96848,14.732867 Z m 21.517578,5.275391 a 2.5159487,2.5159487 0 0 0 -2.517579,2.517578 v 8.15039 a 1.3327465,1.3327465 0 0 1 -1.332031,1.332032 h -1.595703 a 1.3033134,1.3033134 0 0 0 -0.980469,2.162109 l 3.007813,3.4375 3.009765,3.439453 a 2.5137985,2.5137985 0 0 0 3.783204,0 l 3.007812,-3.439453 3.009766,-3.4375 a 1.3033134,1.3033134 0 0 0 -0.980469,-2.162109 h -1.595703 a 1.3327465,1.3327465 0 0 1 -1.333985,-1.332032 v -8.15039 a 2.5159487,2.5159487 0 0 0 -2.515625,-2.517578 z" />
</svg>
