<?xml version="1.0" encoding="UTF-8" standalone="no"?>
<svg
   width="64"
   height="64"
   version="1.1"
   id="svg6"
   sodipodi:docname="adventure-capitalist.svg"
   inkscape:version="1.3.2 (091e20ef0f, 2023-11-25, custom)"
   xmlns:inkscape="http://www.inkscape.org/namespaces/inkscape"
   xmlns:sodipodi="http://sodipodi.sourceforge.net/DTD/sodipodi-0.dtd"
   xmlns:xlink="http://www.w3.org/1999/xlink"
   xmlns="http://www.w3.org/2000/svg"
   xmlns:svg="http://www.w3.org/2000/svg">
  <defs
     id="defs6">
    <linearGradient
       id="linearGradient16"
       inkscape:collect="always">
      <stop
         style="stop-color:#ffdb6a;stop-opacity:1;"
         offset="0"
         id="stop17" />
      <stop
         style="stop-color:#ffa06a;stop-opacity:1;"
         offset="1"
         id="stop18" />
    </linearGradient>
    <linearGradient
       id="linearGradient15"
       inkscape:collect="always">
      <stop
         style="stop-color:#ffcc0f;stop-opacity:1;"
         offset="0"
         id="stop15" />
      <stop
         style="stop-color:#ff670f;stop-opacity:1;"
         offset="1"
         id="stop16" />
    </linearGradient>
    <filter
       inkscape:collect="always"
       style="color-interpolation-filters:sRGB"
       id="filter15"
       x="-0.058380233"
       y="-0.050478963"
       width="1.1167605"
       height="1.1009579">
      <feGaussianBlur
         inkscape:collect="always"
         stdDeviation="1.2211019"
         id="feGaussianBlur15" />
    </filter>
    <radialGradient
       inkscape:collect="always"
       xlink:href="#linearGradient15"
       id="radialGradient16"
       cx="11.033086"
       cy="26.742704"
       fx="11.033086"
       fy="26.742704"
       r="25"
       gradientTransform="matrix(2.780238,1.6051711,-1.5108445,2.6168594,6.9181194,-71.522562)"
       gradientUnits="userSpaceOnUse" />
    <radialGradient
       inkscape:collect="always"
       xlink:href="#linearGradient16"
       id="radialGradient18"
       cx="32.641438"
       cy="30.990568"
       fx="32.641438"
       fy="30.990568"
       r="2.500264"
       gradientTransform="matrix(13.283446,23.007603,-25.10155,14.492387,358.86324,-1185.0015)"
       gradientUnits="userSpaceOnUse" />
  </defs>
  <sodipodi:namedview
     id="namedview6"
     pagecolor="#ffffff"
     bordercolor="#000000"
     borderopacity="0.25"
     inkscape:showpageshadow="2"
     inkscape:pageopacity="0.0"
     inkscape:pagecheckerboard="0"
     inkscape:deskcolor="#d1d1d1"
     inkscape:zoom="5.6568543"
     inkscape:cx="36.592776"
     inkscape:cy="43.575455"
     inkscape:window-width="1920"
     inkscape:window-height="1011"
     inkscape:window-x="0"
     inkscape:window-y="0"
     inkscape:window-maximized="1"
     inkscape:current-layer="svg6" />
  <path
     style="fill:none;stroke:url(#radialGradient16);stroke-width:11;stroke-linecap:round;stroke-linejoin:round"
     d="m 31.959278,31.621758 6.904762,-0.04119 c 0,0 12.555902,-1.00643 12.555902,10.041189 0,9.007688 -12.555902,8 -12.555902,8 H 18.071082 m 13.809524,-18 -6.904762,0.04119 c 0,0 -12.555902,0.625479 -12.555902,-9.041188 0,-9.666667 12.555902,-9 12.555902,-9 l 20.444098,-1e-6"
     id="path3" />
  <path
     style="fill:url(#radialGradient18);fill-rule:evenodd;fill-opacity:1"
     d="M 31.382833,3.1217577 A 2.5,2.4971915 0 0 0 28.919942,5.6549608 V 26.121758 h 5 V 5.6549608 A 2.5,2.4971915 0 0 0 31.382833,3.1217577 Z M 28.919942,37.121758 v 21.466797 a 2.5,2.4971915 0 1 0 5,0 V 37.121758 Z"
     id="path5" />
  <path
     id="path12"
     style="color:#000000;fill:#000000;fill-opacity:1;stroke:#000000;stroke-width:0;stroke-linecap:round;stroke-linejoin:round;stroke-dasharray:none;stroke-opacity:1;filter:url(#filter15)"
     d="m 31.459004,2.9733202 c -1.265706,0.017166 -1.952936,0.7054468 -2.28125,1.6015625 -0.328507,0.8966494 -0.323944,1.99929 -0.277343,2.9042969 v 0.4941406 h -3.775391 -0.0059 c -0.101546,-0.0057 -0.16507,-0.012199 -0.455078,-0.015625 -1.323141,-0.015632 -4.37335,0.086993 -7.648438,1.1738281 -2.183051,0.7244432 -4.65022,1.9358987 -6.699219,4.1933597 -2.0524016,2.261215 -3.4160149,5.61569 -3.4160149,9.248047 0,3.632326 1.3620366,6.984836 3.4101559,9.248047 2.044757,2.259497 4.508248,3.476044 6.689453,4.207031 3.980138,1.333862 7.481391,1.21674 8.095703,1.185547 l 3.804688,-0.02344 v 6.783203 H 18.152364 c -3.091595,0 -5.59961,2.508015 -5.59961,5.59961 0,3.091595 2.508015,5.599609 5.59961,5.599609 h 10.748047 v 3.371094 0.0039 c 0.08052,1.06115 0.499829,1.758684 1.078125,2.134766 0.578295,0.37608 1.303923,0.428329 1.984375,0.240234 0.68045,-0.188094 1.321184,-0.615853 1.740234,-1.216797 0.417452,-0.59865 0.611383,-1.372846 0.396485,-2.232422 v -2.300781 h 4.679687 c 0.692297,0.05461 4.059334,0.253916 7.945313,-0.828125 2.166823,-0.603346 4.63678,-1.633886 6.765624,-3.753906 2.133716,-2.124866 3.609376,-5.46022 3.609376,-9.017578 0,-3.824798 -1.209381,-7.276956 -3.201172,-9.746094 -1.98999,-2.466902 -4.52758,-3.87667 -6.78125,-4.6875 -4.034501,-1.451537 -7.580772,-1.263786 -8.31836,-1.207031 h -0.0078 l -4.691406,0.0293 v -6.789063 h 11.40039 c 3.091595,0 5.59961,-2.508014 5.59961,-5.599609 0,-3.091595 -2.508015,-5.5996098 -5.59961,-5.5996098 H 34.09963 V 5.6100389 C 34.154342,4.1817391 32.888194,2.9190414 31.460958,2.9733202 Z m 0.0059,0.1992187 h 0.002 c 1.304695,-0.05069 2.483597,1.1243175 2.433594,2.4296876 v 0.00195 2.46875 11.0000005 6.90039 H 32.00792 31.92784 29.099716 V 19.07293 8.0729296 7.4713671 7.4694139 C 29.053536,6.572626 29.057386,5.4910722 29.367294,4.6451952 29.6772,3.7993182 30.267211,3.1880164 31.46495,3.1725389 Z m -6.804688,4.984375 c 0.29118,0.00344 0.345473,0.00966 0.453125,0.015625 a 0.10001,0.10001 0 0 0 0.0059,0 h 3.78125 V 18.97332 h -3.84375 c -0.09527,0 -0.190022,-0.0027 -0.285157,-0.0078 a 0.10001,0.10001 0 0 0 -0.0039,0 c 0,0 -2.331047,-0.0417 -4.287109,0.607422 -0.978671,0.32477 -1.679278,0.769662 -2.019531,1.144531 -0.159214,0.175414 -0.305824,0.330002 -0.40625,0.597656 -0.100427,0.267656 -0.154297,0.638959 -0.154297,1.257813 0,0.618898 0.05296,0.99194 0.154297,1.261719 0.101339,0.269777 0.250677,0.427085 0.412109,0.605468 0.344086,0.380222 1.046875,0.829621 2.027344,1.158203 1.959553,0.656704 4.291015,0.621094 4.291015,0.621094 a 0.10001,0.10001 0 0 0 0.002,0 c 0.07861,-0.0036 0.157709,-0.0057 0.236328,-0.0059 l 6.884765,-0.04102 c 0.0081,0.0031 0.01555,0.0067 0.02344,0.0098 a 0.10001,0.10001 0 0 0 0.07422,-0.002 c 0.007,-0.0028 0.01436,-0.005 0.02148,-0.0078 h 1.972656 0.09961 v -0.01172 l 4.699218,-0.0293 a 0.10001,0.10001 0 0 0 0.0078,0 c 0.715589,-0.05528 4.244685,-0.243617 8.24414,1.195312 2.229172,0.802015 4.730186,2.193763 6.691407,4.625 1.959416,2.429004 3.158203,5.838503 3.158203,9.621094 0,3.501936 -1.458651,6.7935 -3.550781,8.876953 -2.097,2.088306 -4.531694,3.105022 -6.679688,3.703125 -3.856455,1.073819 -7.20987,0.873578 -7.882812,0.820312 a 0.10001,0.10001 0 0 0 -0.0078,0 H 34.09963 V 44.172539 h 4.845703 c 0.143994,0 0.28811,0.0061 0.43164,0.01758 a 0.10001,0.10001 0 0 0 0.0039,0 c 0,0 2.407839,0.111783 4.394531,-0.441406 0.995069,-0.277074 1.685261,-0.686371 1.953125,-0.953125 0.05634,-0.0561 0.107343,-0.09581 0.15625,-0.144531 0.04891,-0.04872 0.09399,-0.108201 0.126953,-0.189453 0.06593,-0.162505 0.08789,-0.398151 0.08789,-0.888672 0,-1.73417 -0.379084,-2.363085 -0.763672,-2.839844 -0.393881,-0.488272 -1.031776,-0.914921 -1.941407,-1.242187 -1.821686,-0.65541 -4.013671,-0.576172 -4.013671,-0.576172 a 0.10001,0.10001 0 0 0 -0.0039,0 c -0.133366,0.01069 -0.266648,0.01679 -0.40039,0.01758 l -6.882813,0.04102 c -0.0032,-0.0012 -0.0066,-0.0027 -0.0098,-0.0039 a 0.10001,0.10001 0 0 0 -0.05664,-0.0039 c -0.01359,0.0026 -0.02694,0.0052 -0.04102,0.0078 h -3.085937 l 0.0957,0.0039 a 0.10001,0.10001 0 0 0 -0.0625,0.0625 l -0.0332,-0.06641 v 0.01758 l -3.810547,0.02344 a 0.10001,0.10001 0 0 0 -0.0059,0 c -0.600762,0.0305 -4.078199,0.143776 -8.021484,-1.177734 -2.16092,-0.72419 -4.588431,-1.921727 -6.603516,-4.148438 -2.0117242,-2.222993 -3.3593742,-5.532986 -3.3593742,-9.115234 0,-3.582219 1.3494224,-6.894334 3.3652342,-9.115234 2.019218,-2.224651 4.450646,-3.417098 6.613281,-4.1347664 3.243439,-1.0763324 6.273052,-1.18148 7.582031,-1.1660157 z m 9.439454,0.015625 h 11.40039 c 2.983507,0 5.400391,2.4168841 5.400391,5.4003911 0,2.983507 -2.416884,5.40039 -5.400391,5.40039 H 34.09963 Z M 24.759786,19.164727 c 0.0987,0.0053 0.198032,0.0078 0.296875,0.0078 h 3.84375 v 6.81836 l -3.876953,0.02344 c -0.08095,2.06e-4 -0.161394,0.0022 -0.242188,0.0059 0,0 -2.312598,0.02749 -4.224609,-0.613282 -0.955314,-0.320152 -1.636905,-0.76313 -1.941407,-1.099609 -0.162862,-0.179967 -0.284952,-0.308449 -0.373046,-0.542969 -0.08809,-0.23452 -0.142578,-0.584293 -0.142578,-1.191406 0,-0.607161 0.0535,-0.955298 0.140624,-1.1875 0.08713,-0.232202 0.208248,-0.357893 0.369141,-0.535156 0.299965,-0.330481 0.98004,-0.769503 1.933594,-1.085938 1.905717,-0.632411 4.210347,-0.599705 4.216797,-0.599609 z M 39.75588,37.111992 c 0.69349,0.0096 2.245932,0.08922 3.572265,0.566407 0.885436,0.318561 1.488218,0.729268 1.851563,1.179687 0.372629,0.461934 0.720703,1.008857 0.720703,2.714844 0,0.483643 -0.02957,0.704401 -0.07422,0.814453 -0.02232,0.05503 -0.04618,0.08539 -0.08398,0.123047 -0.0378,0.03766 -0.08999,0.08049 -0.154297,0.144531 -0.21472,0.21383 -0.899171,0.632802 -1.867188,0.902344 -1.936851,0.53931 -4.321647,0.43388 -4.328125,0.433594 -0.148853,-0.01193 -0.297944,-0.01758 -0.447265,-0.01758 h -4.845703 v -6.8125 l 4.876953,-0.0293 c 0.137429,-8.09e-4 0.275158,-0.0067 0.412109,-0.01758 0,0 0.136024,-0.0052 0.367188,-0.002 z m -6.009766,0.05078 0.154297,0.0059 v 20.332031 l 0.002,0.01172 c 0.205058,0.809028 0.02643,1.519264 -0.363281,2.078125 -0.389707,0.558861 -0.992782,0.96283 -1.628907,1.138672 -0.636124,0.175842 -1.301032,0.124129 -1.822265,-0.214844 -0.521235,-0.338973 -0.911185,-0.966407 -0.988281,-1.982422 v -3.458984 -11 -6.900391 h 2.894531 a 0.10001,0.10001 0 0 0 0.01758,-0.002 c 0.0075,-0.0014 0.01578,-0.0025 0.02344,-0.0039 a 0.10001,0.10001 0 0 0 0.03711,0.0059 z m -15.59375,7.009765 H 28.900411 V 54.97332 H 18.152364 c -2.983507,0 -5.400391,-2.416883 -5.400391,-5.40039 0,-2.983507 2.416884,-5.400391 5.400391,-5.400391 z" />
</svg>
