<?xml version="1.0" encoding="UTF-8" standalone="no"?>
<svg
   width="64"
   height="64"
   version="1.1"
   id="svg5"
   sodipodi:docname="agordejo.svg"
   inkscape:version="1.3.2 (091e20ef0f, 2023-11-25, custom)"
   xmlns:inkscape="http://www.inkscape.org/namespaces/inkscape"
   xmlns:sodipodi="http://sodipodi.sourceforge.net/DTD/sodipodi-0.dtd"
   xmlns:xlink="http://www.w3.org/1999/xlink"
   xmlns="http://www.w3.org/2000/svg"
   xmlns:svg="http://www.w3.org/2000/svg">
  <defs
     id="defs5">
    <linearGradient
       id="linearGradient6"
       inkscape:collect="always">
      <stop
         style="stop-color:#737373;stop-opacity:1;"
         offset="0"
         id="stop6" />
      <stop
         style="stop-color:#3f3f3f;stop-opacity:1;"
         offset="1"
         id="stop7" />
    </linearGradient>
    <inkscape:path-effect
       effect="fillet_chamfer"
       id="path-effect6"
       is_visible="true"
       lpeversion="1"
       nodesatellites_param="F,0,0,1,0,11.822717,0,1 @ F,0,0,1,0,6.4179446,0,1 @ F,0,0,1,0,5.7993812,0,1 @ F,0,0,1,0,6.4179446,0,1 @ F,0,0,1,0,11.822717,0,1"
       radius="0"
       unit="px"
       method="auto"
       mode="F"
       chamfer_steps="1"
       flexible="false"
       use_knot_distance="true"
       apply_no_radius="true"
       apply_with_radius="true"
       only_selected="false"
       hide_knots="false" />
    <inkscape:path-effect
       effect="fillet_chamfer"
       id="path-effect5"
       is_visible="true"
       lpeversion="1"
       nodesatellites_param="F,0,0,1,0,2.50315,0,1 @ F,0,1,1,0,2.50315,0,1 @ F,0,1,1,0,2.50315,0,1 @ F,0,1,1,0,2.50315,0,1"
       radius="0"
       unit="px"
       method="auto"
       mode="F"
       chamfer_steps="1"
       flexible="false"
       use_knot_distance="true"
       apply_no_radius="true"
       apply_with_radius="true"
       only_selected="false"
       hide_knots="false" />
    <inkscape:path-effect
       effect="fillet_chamfer"
       id="path-effect6-3"
       is_visible="true"
       lpeversion="1"
       nodesatellites_param="F,0,0,1,0,11.822717,0,1 @ F,0,0,1,0,6.4179446,0,1 @ F,0,0,1,0,5.7993812,0,1 @ F,0,0,1,0,6.4179446,0,1 @ F,0,0,1,0,11.822717,0,1"
       radius="0"
       unit="px"
       method="auto"
       mode="F"
       chamfer_steps="1"
       flexible="false"
       use_knot_distance="true"
       apply_no_radius="true"
       apply_with_radius="true"
       only_selected="false"
       hide_knots="false" />
    <inkscape:path-effect
       effect="fillet_chamfer"
       id="path-effect5-6"
       is_visible="true"
       lpeversion="1"
       nodesatellites_param="F,0,0,1,0,2.50315,0,1 @ F,0,1,1,0,2.50315,0,1 @ F,0,1,1,0,2.50315,0,1 @ F,0,1,1,0,2.50315,0,1"
       radius="0"
       unit="px"
       method="auto"
       mode="F"
       chamfer_steps="1"
       flexible="false"
       use_knot_distance="true"
       apply_no_radius="true"
       apply_with_radius="true"
       only_selected="false"
       hide_knots="false" />
    <filter
       inkscape:collect="always"
       style="color-interpolation-filters:sRGB"
       id="filter6"
       x="-0.11589528"
       y="-0.098061458"
       width="1.2317906"
       height="1.1962127">
      <feGaussianBlur
         inkscape:collect="always"
         stdDeviation="2.1166975"
         id="feGaussianBlur6" />
    </filter>
    <radialGradient
       inkscape:collect="always"
       xlink:href="#linearGradient6"
       id="radialGradient7"
       cx="20.568205"
       cy="19.71422"
       fx="20.568205"
       fy="19.71422"
       r="22.576087"
       gradientTransform="matrix(2.6719874,2.6719874,-3.1561899,3.1561899,16.976689,-111.73587)"
       gradientUnits="userSpaceOnUse" />
  </defs>
  <sodipodi:namedview
     id="namedview5"
     pagecolor="#ffffff"
     bordercolor="#000000"
     borderopacity="0.25"
     inkscape:showpageshadow="2"
     inkscape:pageopacity="0.0"
     inkscape:pagecheckerboard="0"
     inkscape:deskcolor="#d1d1d1"
     inkscape:zoom="6.453125"
     inkscape:cx="39.283293"
     inkscape:cy="38.276029"
     inkscape:window-width="1920"
     inkscape:window-height="1020"
     inkscape:window-x="0"
     inkscape:window-y="0"
     inkscape:window-maximized="1"
     inkscape:current-layer="svg5" />
  <path
     d="M 17.599921,15.560523 9.4961256,53.396262 a 3.2561878,3.2561878 38.990433 0 0 4.5140064,3.654122 L 26.70647,51.368831 a 12.959643,12.959643 180 0 1 10.58706,0 l 12.696338,5.681553 a 3.2561878,3.2561878 141.00957 0 0 4.514006,-3.654122 L 46.400079,15.560523 A 14.62309,14.62309 38.955418 0 0 32.101287,4 H 31.898713 A 14.62309,14.62309 141.04458 0 0 17.599921,15.560523 Z"
     style="fill:url(#radialGradient7)"
     id="path2"
     sodipodi:nodetypes="cccccc"
     inkscape:path-effect="#path-effect6"
     inkscape:original-d="M 20.075996,4 8.1519921,59.671875 32,49 55.848008,59.671875 43.924004,4 Z"
     transform="translate(0,1.3327974)" />
  <path
     d="m 33.186743,39.796049 4.626514,-8.592098 a 4.4644678,4.4644678 89.022159 0 0 -0.07452,-4.366119 l -4.47747,-7.675664 a 1.4601708,1.4601708 180 0 0 -2.52253,0 l -4.47747,7.675664 a 4.4644678,4.4644678 90.977841 0 0 -0.07452,4.366119 l 4.626514,8.592098 a 1.34785,1.34785 0 0 0 2.373486,0 z"
     style="fill:#ffffff"
     id="path4"
     inkscape:path-effect="#path-effect5"
     inkscape:original-d="M 32,42 39,29 32,17 25,29 Z"
     transform="translate(0,2.8831081)" />
  <path
     id="path2-7"
     style="fill:none;stroke:#000000;stroke-opacity:1;stroke-width:0.29999992;stroke-dasharray:none;filter:url(#filter6)"
     d="M 31.898438 3.9992338 A 14.62309 14.62309 0 0 0 17.599609 15.559781 L 9.4960938 53.395718 A 3.2561878 3.2561878 0 0 0 14.009766 57.050015 L 26.707031 51.368374 A 12.959643 12.959643 0 0 1 37.292969 51.368374 L 49.990234 57.050015 A 3.2561878 3.2561878 0 0 0 54.503906 53.395718 L 46.400391 15.559781 A 14.62309 14.62309 0 0 0 32.101563 3.9992338 L 31.898438 3.9992338 z M 32 19.987515 A 1.4601708 1.4601708 0 0 1 33.261719 20.712124 L 37.738281 28.387906 A 4.4644678 4.4644678 0 0 1 37.8125 32.755093 L 33.1875 41.34689 A 1.34785 1.34785 0 0 1 30.8125 41.34689 L 26.1875 32.755093 A 4.4644678 4.4644678 0 0 1 26.261719 28.387906 L 30.738281 20.712124 A 1.4601708 1.4601708 0 0 1 32 19.987515 z "
     transform="translate(-4.518969e-8,1.3327974)" />
</svg>
