<?xml version="1.0" encoding="UTF-8" standalone="no"?>
<svg
   width="64"
   height="64"
   version="1"
   id="svg4"
   sodipodi:docname="airwave-manager.svg"
   inkscape:version="1.4 (e7c3feb100, 2024-10-09)"
   xmlns:inkscape="http://www.inkscape.org/namespaces/inkscape"
   xmlns:sodipodi="http://sodipodi.sourceforge.net/DTD/sodipodi-0.dtd"
   xmlns:xlink="http://www.w3.org/1999/xlink"
   xmlns="http://www.w3.org/2000/svg"
   xmlns:svg="http://www.w3.org/2000/svg">
  <defs
     id="defs4">
    <linearGradient
       id="linearGradient6"
       inkscape:collect="always">
      <stop
         style="stop-color:#ba2d2d;stop-opacity:1;"
         offset="0"
         id="stop6" />
      <stop
         style="stop-color:#ea6533;stop-opacity:1;"
         offset="1"
         id="stop7" />
    </linearGradient>
    <linearGradient
       id="linearGradient4"
       inkscape:collect="always">
      <stop
         style="stop-color:#848484;stop-opacity:1;"
         offset="0"
         id="stop4" />
      <stop
         style="stop-color:#e7e7e7;stop-opacity:1;"
         offset="1"
         id="stop5" />
    </linearGradient>
    <linearGradient
       inkscape:collect="always"
       xlink:href="#linearGradient4"
       id="linearGradient5"
       x1="32.360424"
       y1="58.497669"
       x2="31.922262"
       y2="7.7273493"
       gradientUnits="userSpaceOnUse"
       gradientTransform="translate(0,2.9964664)" />
    <linearGradient
       inkscape:collect="always"
       xlink:href="#linearGradient6"
       id="linearGradient7"
       x1="2.2190812"
       y1="64.558304"
       x2="35.660778"
       y2="2.7632508"
       gradientUnits="userSpaceOnUse" />
  </defs>
  <sodipodi:namedview
     id="namedview4"
     pagecolor="#ffffff"
     bordercolor="#000000"
     borderopacity="0.25"
     inkscape:showpageshadow="2"
     inkscape:pageopacity="0.0"
     inkscape:pagecheckerboard="0"
     inkscape:deskcolor="#d1d1d1"
     inkscape:zoom="12.506951"
     inkscape:cx="23.307039"
     inkscape:cy="34.460836"
     inkscape:current-layer="svg4" />
  <g
     id="g7"
     transform="translate(0,-3.476749)">
    <path
       id="rect1"
       style="fill:url(#linearGradient5)"
       d="M 20.666016,12.953498 C 19.189052,12.953498 18,14.179997 18,15.703497 v 16.5 c 0,1.5235 1.189052,2.75 2.666016,2.75 h 2.667968 c 1.476964,0 2.666016,-1.2265 2.666016,-2.75 v -16.5 c 0,-1.5235 -1.189052,-2.749999 -2.666016,-2.749999 z m 20,0 C 39.189052,12.953498 38,14.179997 38,15.703497 v 16.5 c 0,1.5235 1.189052,2.75 2.666016,2.75 h 2.667968 c 1.476964,0 2.666016,-1.2265 2.666016,-2.75 v -16.5 c 0,-1.5235 -1.189052,-2.749999 -2.666016,-2.749999 z" />
    <rect
       style="fill:url(#linearGradient7)"
       width="40"
       height="32"
       x="12"
       y="26"
       rx="9.4504528"
       ry="9.4504528"
       id="rect3" />
  </g>
</svg>
