<?xml version="1.0" encoding="UTF-8" standalone="no"?>
<svg
   width="64"
   height="64"
   version="1"
   id="svg5"
   sodipodi:docname="aks.svg"
   inkscape:version="1.4 (e7c3feb100, 2024-10-09)"
   xmlns:inkscape="http://www.inkscape.org/namespaces/inkscape"
   xmlns:sodipodi="http://sodipodi.sourceforge.net/DTD/sodipodi-0.dtd"
   xmlns:xlink="http://www.w3.org/1999/xlink"
   xmlns="http://www.w3.org/2000/svg"
   xmlns:svg="http://www.w3.org/2000/svg">
  <defs
     id="defs5">
    <linearGradient
       id="linearGradient5"
       inkscape:collect="always">
      <stop
         style="stop-color:#9d4cff;stop-opacity:1;"
         offset="0"
         id="stop4" />
      <stop
         style="stop-color:#6e169f;stop-opacity:1;"
         offset="1"
         id="stop5" />
    </linearGradient>
    <inkscape:path-effect
       effect="fillet_chamfer"
       id="path-effect3"
       is_visible="true"
       lpeversion="1"
       nodesatellites_param="F,0,1,1,0,5.7458823,0,1 @ F,0,1,1,0,5.7458823,0,1 @ F,0,1,1,0,5.7458823,0,1 @ F,0,1,1,0,5.7458823,0,1 @ F,0,1,1,0,5.7458823,0,1 @ F,0,0,1,0,5.7458823,0,1"
       radius="0"
       unit="px"
       method="auto"
       mode="F"
       chamfer_steps="1"
       flexible="false"
       use_knot_distance="true"
       apply_no_radius="true"
       apply_with_radius="true"
       only_selected="false"
       hide_knots="false" />
    <inkscape:path-effect
       effect="fillet_chamfer"
       id="path-effect2"
       is_visible="true"
       lpeversion="1"
       nodesatellites_param="F,0,0,1,0,0,0,1 @ F,0,0,1,0,0,0,1 @ F,0,0,1,0,0,0,1 @ F,0,0,1,0,0,0,1 @ F,0,0,1,0,0,0,1 @ F,0,0,1,0,0,0,1"
       radius="0"
       unit="px"
       method="auto"
       mode="F"
       chamfer_steps="1"
       flexible="false"
       use_knot_distance="true"
       apply_no_radius="true"
       apply_with_radius="true"
       only_selected="false"
       hide_knots="false" />
    <inkscape:path-effect
       effect="fillet_chamfer"
       id="path-effect1"
       is_visible="true"
       lpeversion="1"
       nodesatellites_param="F,0,0,1,0,0,0,1 @ F,0,0,1,0,0,0,1 @ F,0,0,1,0,0,0,1 @ F,0,0,1,0,3.7948601,0,1 @ F,0,0,1,0,3.81536,0,1 @ F,0,0,1,0,3.0131726,0,1 @ F,0,0,1,0,0,0,1 @ F,0,0,1,0,0,0,1"
       radius="0"
       unit="px"
       method="auto"
       mode="F"
       chamfer_steps="1"
       flexible="false"
       use_knot_distance="true"
       apply_no_radius="true"
       apply_with_radius="true"
       only_selected="false"
       hide_knots="false" />
    <inkscape:path-effect
       effect="fillet_chamfer"
       id="path-effect8"
       is_visible="true"
       lpeversion="1"
       nodesatellites_param="F,0,0,1,0,1.9885327,0,1 @ F,0,0,1,0,3.8501546,0,1 @ F,0,0,1,0,0,0,1 @ F,0,0,1,0,0,0,1 @ F,0,0,1,0,0,0,1 @ F,0,0,1,0,0,0,1 @ F,0,0,1,0,0,0,1"
       radius="0"
       unit="px"
       method="auto"
       mode="F"
       chamfer_steps="1"
       flexible="false"
       use_knot_distance="true"
       apply_no_radius="true"
       apply_with_radius="true"
       only_selected="false"
       hide_knots="false" />
    <inkscape:path-effect
       effect="fillet_chamfer"
       id="path-effect5"
       is_visible="true"
       lpeversion="1"
       nodesatellites_param="F,0,0,1,0,2.1123573,0,1 @ F,0,1,1,0,0.58353444,0,1 @ F,0,0,1,0,2.1123573,0,1 @ F,0,0,1,0,2.1123573,0,1 @ F,0,0,1,0,0.58353444,0,1 @ F,0,0,1,0,2.1123573,0,1 @ F,0,0,1,0,2.1123573,0,1 @ F,0,1,1,0,0.58353444,0,1 @ F,0,0,1,0,2.1123573,0,1 @ F,0,0,1,0,2.1123573,0,1 @ F,0,1,1,0,0.58353444,0,1 @ F,0,0,1,0,2.1123573,0,1"
       radius="0"
       unit="px"
       method="auto"
       mode="F"
       chamfer_steps="1"
       flexible="false"
       use_knot_distance="true"
       apply_no_radius="true"
       apply_with_radius="true"
       only_selected="false"
       hide_knots="false" />
    <inkscape:path-effect
       effect="fillet_chamfer"
       id="path-effect5-3"
       is_visible="true"
       lpeversion="1"
       nodesatellites_param="F,0,0,1,0,2.1123573,0,1 @ F,0,1,1,0,0.58353444,0,1 @ F,0,0,1,0,2.1123573,0,1 @ F,0,0,1,0,2.1123573,0,1 @ F,0,0,1,0,0.58353444,0,1 @ F,0,0,1,0,2.1123573,0,1 @ F,0,0,1,0,2.1123573,0,1 @ F,0,1,1,0,0.58353444,0,1 @ F,0,0,1,0,2.1123573,0,1 @ F,0,0,1,0,2.1123573,0,1 @ F,0,1,1,0,0.58353444,0,1 @ F,0,0,1,0,2.1123573,0,1"
       radius="0"
       unit="px"
       method="auto"
       mode="F"
       chamfer_steps="1"
       flexible="false"
       use_knot_distance="true"
       apply_no_radius="true"
       apply_with_radius="true"
       only_selected="false"
       hide_knots="false" />
    <inkscape:path-effect
       effect="fillet_chamfer"
       id="path-effect5-3-3"
       is_visible="true"
       lpeversion="1"
       nodesatellites_param="F,0,0,1,0,2.1123573,0,1 @ F,0,1,1,0,0.58353444,0,1 @ F,0,0,1,0,2.1123573,0,1 @ F,0,0,1,0,2.1123573,0,1 @ F,0,0,1,0,0.58353444,0,1 @ F,0,0,1,0,2.1123573,0,1 @ F,0,0,1,0,2.1123573,0,1 @ F,0,1,1,0,0.58353444,0,1 @ F,0,0,1,0,2.1123573,0,1 @ F,0,0,1,0,2.1123573,0,1 @ F,0,1,1,0,0.58353444,0,1 @ F,0,0,1,0,2.1123573,0,1"
       radius="0"
       unit="px"
       method="auto"
       mode="F"
       chamfer_steps="1"
       flexible="false"
       use_knot_distance="true"
       apply_no_radius="true"
       apply_with_radius="true"
       only_selected="false"
       hide_knots="false" />
    <radialGradient
       inkscape:collect="always"
       xlink:href="#linearGradient5"
       id="radialGradient4"
       cx="6.4576435"
       cy="46.342373"
       fx="6.4576435"
       fy="46.342373"
       r="25.222685"
       gradientTransform="matrix(3.2066056,-1.8513346,2.020741,3.500026,-100.64349,-107.11152)"
       gradientUnits="userSpaceOnUse" />
    <inkscape:path-effect
       effect="fillet_chamfer"
       id="path-effect3-5"
       is_visible="true"
       lpeversion="1"
       nodesatellites_param="F,0,1,1,0,5.7458823,0,1 @ F,0,1,1,0,5.7458823,0,1 @ F,0,1,1,0,5.7458823,0,1 @ F,0,1,1,0,5.7458823,0,1 @ F,0,1,1,0,5.7458823,0,1 @ F,0,0,1,0,5.7458823,0,1"
       radius="0"
       unit="px"
       method="auto"
       mode="F"
       chamfer_steps="1"
       flexible="false"
       use_knot_distance="true"
       apply_no_radius="true"
       apply_with_radius="true"
       only_selected="false"
       hide_knots="false" />
    <inkscape:path-effect
       effect="fillet_chamfer"
       id="path-effect3-9"
       is_visible="true"
       lpeversion="1"
       nodesatellites_param="F,0,1,1,0,5.7458823,0,1 @ F,0,1,1,0,5.7458823,0,1 @ F,0,1,1,0,5.7458823,0,1 @ F,0,1,1,0,5.7458823,0,1 @ F,0,1,1,0,5.7458823,0,1 @ F,0,0,1,0,5.7458823,0,1"
       radius="0"
       unit="px"
       method="auto"
       mode="F"
       chamfer_steps="1"
       flexible="false"
       use_knot_distance="true"
       apply_no_radius="true"
       apply_with_radius="true"
       only_selected="false"
       hide_knots="false" />
    <inkscape:path-effect
       effect="fillet_chamfer"
       id="path-effect3-93"
       is_visible="true"
       lpeversion="1"
       nodesatellites_param="F,0,1,1,0,5.7458823,0,1 @ F,0,1,1,0,5.7458823,0,1 @ F,0,1,1,0,5.7458823,0,1 @ F,0,1,1,0,5.7458823,0,1 @ F,0,1,1,0,5.7458823,0,1 @ F,0,0,1,0,5.7458823,0,1"
       radius="0"
       unit="px"
       method="auto"
       mode="F"
       chamfer_steps="1"
       flexible="false"
       use_knot_distance="true"
       apply_no_radius="true"
       apply_with_radius="true"
       only_selected="false"
       hide_knots="false" />
    <filter
       inkscape:collect="always"
       style="color-interpolation-filters:sRGB"
       id="filter7"
       x="-0.082722117"
       y="-0.075696779"
       width="1.1654442"
       height="1.1513936">
      <feGaussianBlur
         inkscape:collect="always"
         stdDeviation="1.6942009"
         id="feGaussianBlur7" />
    </filter>
    <filter
       inkscape:collect="always"
       style="color-interpolation-filters:sRGB"
       id="filter8"
       x="-0.18826063"
       y="-0.18619331"
       width="1.3765213"
       height="1.3723866">
      <feGaussianBlur
         inkscape:collect="always"
         stdDeviation="2.7234447"
         id="feGaussianBlur8" />
    </filter>
  </defs>
  <sodipodi:namedview
     id="namedview5"
     pagecolor="#505050"
     bordercolor="#eeeeee"
     borderopacity="1"
     inkscape:showpageshadow="0"
     inkscape:pageopacity="0"
     inkscape:pagecheckerboard="0"
     inkscape:deskcolor="#505050"
     inkscape:zoom="12.926796"
     inkscape:cx="55.272784"
     inkscape:cy="27.230259"
     inkscape:current-layer="svg5" />
  <path
     id="path1"
     transform="matrix(1.0212421,0,0,1.0212421,-0.15379313,9.2474387)"
     d="M 26.508908,48.126863 11.588384,39.512495 a 9.9521602,9.9521602 59.999999 0 1 -4.97608,-8.618823 l -4e-7,-17.228737 A 9.9521601,9.9521601 120 0 1 11.588383,5.0461115 L 26.508906,-3.568257 a 9.95216,9.95216 180 0 1 9.95216,-3e-7 L 51.38159,5.0461105 a 9.9521601,9.9521601 59.999998 0 1 4.97608,8.6188235 l 1e-6,17.228736 a 9.9521603,9.9521603 120 0 1 -4.97608,8.618823 l -14.920523,8.61437 a 9.9521597,9.9521597 180 0 1 -9.95216,0 z"
     style="opacity:1;fill:url(#radialGradient4);stroke:none;stroke-width:0.7;stroke-linecap:square"
     inkscape:original-d="M 31.484988,50.999804 6.6123042,36.639554 6.6123034,7.9190528 31.484986,-6.4411983 56.35767,7.9190515 l 1e-6,28.7205005 z"
     inkscape:path-effect="#path-effect3" />
  <path
     id="path1-6"
     transform="matrix(1.0212421,0,0,1.0212421,-0.15379313,9.2474387)"
     d="M 26.508908,48.126863 11.588384,39.512495 a 9.9521602,9.9521602 59.999999 0 1 -4.97608,-8.618823 l -4e-7,-17.228737 A 9.9521601,9.9521601 120 0 1 11.588383,5.0461115 L 26.508906,-3.568257 a 9.95216,9.95216 180 0 1 9.95216,-3e-7 L 51.38159,5.0461105 a 9.9521601,9.9521601 59.999998 0 1 4.97608,8.6188235 l 1e-6,17.228736 a 9.9521603,9.9521603 120 0 1 -4.97608,8.618823 l -14.920523,8.61437 a 9.9521597,9.9521597 180 0 1 -9.95216,0 z"
     style="fill:none;stroke:#000000;stroke-width:0.09791997;stroke-linecap:square;stroke-dasharray:none;stroke-opacity:1;filter:url(#filter7)"
     inkscape:original-d="M 31.484988,50.999804 6.6123042,36.639554 6.6123034,7.9190528 31.484986,-6.4411983 56.35767,7.9190515 l 1e-6,28.7205005 z"
     inkscape:path-effect="#path-effect3-93" />
  <path
     style="mix-blend-mode:normal;fill:#8c12ff;fill-opacity:1;stroke-width:1.02;stroke-dasharray:none;filter:url(#filter8)"
     d="m 35.689277,49.498726 c 0.0026,-0.04538 0.321584,-0.161475 0.70925,-0.257974 0.456348,-0.113588 0.749967,-0.263813 0.832827,-0.426124 0.07043,-0.137848 0.493884,-0.423892 0.941095,-0.635605 0.447207,-0.211712 1.224676,-0.614861 1.727713,-0.8959 0.788707,-0.440608 0.907083,-0.550296 0.859861,-0.796789 -0.03633,-0.189648 0.0076,-0.303501 0.128689,-0.338508 0.222168,-0.06379 0.256342,-0.297127 0.0463,-0.315905 -0.08281,-0.0076 -0.403057,0.130075 -0.711794,0.305487 -0.776592,0.441267 -1.649023,0.788534 -1.802728,0.717565 -0.07058,-0.03259 -0.428838,0.05073 -0.79607,0.185271 -0.367241,0.134519 -0.80985,0.231901 -0.983606,0.216427 -0.173738,-0.01545 -0.550523,0.03215 -0.83729,0.105928 -0.28675,0.07369 -0.578171,0.128817 -0.64758,0.122365 -0.218281,-0.02026 0.443148,-0.549986 1.261441,-1.01022 0.820076,-0.461249 1.020875,-0.681413 0.482017,-0.52847 -0.416336,0.118175 -1.023238,0.05663 -1.01471,-0.103135 0.0038,-0.06962 0.179172,-0.203986 0.389889,-0.298431 0.86691,-0.388528 1.504248,-0.753622 1.44194,-0.825972 -0.03643,-0.04233 -0.455196,0.113207 -0.930476,0.34571 -0.475284,0.232512 -0.922377,0.417324 -0.993544,0.410717 -0.317074,-0.02946 -0.05125,-0.288629 0.757509,-0.738456 0.906443,-0.504213 1.122984,-0.783027 0.296656,-0.381985 -0.663865,0.322205 -1.640088,0.597642 -1.632772,0.460677 0.0034,-0.06331 0.487762,-0.380124 1.076398,-0.703992 0.588645,-0.323883 1.17544,-0.739771 1.303997,-0.924218 0.128577,-0.184457 0.606206,-0.598212 1.061423,-0.919463 0.455222,-0.321239 0.884105,-0.675361 0.95306,-0.786927 0.06909,-0.111561 0.478632,-0.580733 0.910375,-1.042597 0.945951,-1.011937 2.147168,-3.042469 2.524814,-4.267986 0.162398,-0.527062 0.348024,-1.621365 0.457206,-2.695541 0.163205,-1.606008 0.161923,-1.958935 -0.01179,-3.15526 -0.510466,-3.516051 -1.604498,-5.914309 -3.466603,-7.599205 -1.886894,-1.707338 -3.486636,-2.409507 -6.027191,-2.645505 -1.903946,-0.176853 -3.083714,-0.01017 -5.133731,0.724987 -1.960508,0.703132 -2.537801,1.037033 -3.944609,2.281579 -1.193445,1.055801 -1.207712,1.075766 -2.383563,3.334756 l -0.422942,0.812545 0.109784,-0.598253 c 0.139488,-0.760102 0.831752,-2.059945 1.551827,-2.913764 1.109053,-1.31508 3.083617,-2.697385 4.198612,-2.939253 0.269214,-0.0584 1.013875,-0.338576 1.654797,-0.622597 l 1.165318,-0.516392 -0.528567,-0.08249 c -0.290711,-0.04538 -0.647022,-0.15607 -0.791788,-0.246116 -0.191984,-0.119323 -0.379172,-0.139059 -0.691569,-0.07311 -0.659909,0.140156 -0.501198,-0.09804 0.26437,-0.396885 0.68642,-0.267879 0.768996,-0.391217 0.43189,-0.645083 -0.231478,-0.17432 -1.373051,0.189854 -2.639723,0.84207 -1.411825,0.726953 -2.884966,1.969583 -1.800198,1.518514 l 0.387422,-0.161095 -0.100833,0.325169 c -0.065,0.209944 -0.04962,0.363026 0.04375,0.43202 0.103794,0.07672 0.0027,0.252368 -0.358908,0.623541 -0.739479,0.759033 -1.612401,1.765197 -2.020743,2.329194 -0.197111,0.272252 -0.577791,0.734192 -0.845946,1.026532 -0.50216,0.547485 -1.230503,2.170608 -1.265171,2.819476 -0.0098,0.183548 -0.07633,0.428755 -0.147755,0.544917 -0.09445,0.153377 -0.08629,0.232505 0.02974,0.289265 0.238253,0.116519 0.298286,0.83284 0.227993,2.720237 -0.07494,2.011774 0.06288,2.586446 1.002123,4.178438 0.328826,0.557353 0.596271,1.043203 0.594321,1.079669 -0.0021,0.03637 -0.150655,0.01893 -0.3305,-0.03956 -0.278083,-0.08971 -0.20192,0.0393 0.509324,0.862667 0.459967,0.532489 0.7847,0.980475 0.721633,0.99549 -0.06307,0.01497 -0.354472,-0.101336 -0.647564,-0.258593 -0.481466,-0.258335 -0.759415,-0.569235 -1.556524,-1.741159 -0.270415,-0.397567 -0.457946,-0.284097 -0.283328,0.171425 0.215901,0.563256 0.04187,0.456374 -0.404479,-0.248393 -0.23424,-0.369882 -0.448929,-0.614478 -0.477085,-0.543545 -0.06752,0.170345 0.06669,0.450747 0.764252,1.596549 0.320433,0.526298 0.666262,1.136903 0.768512,1.356893 0.122508,0.263598 0.306584,0.435871 0.539794,0.505211 0.194644,0.05789 0.379262,0.185461 0.410345,0.283414 0.07186,0.226808 1.575023,1.071347 1.794608,1.008265 0.09069,-0.02599 0.430829,0.08551 0.755785,0.248084 0.324965,0.162476 0.873169,0.321705 1.218237,0.353834 1.708898,0.159001 3.712505,2.226514 3.634237,3.750185 -0.03848,0.746492 -0.6856,1.688391 -1.457424,2.120843 -0.974259,0.545863 -3.0356,0.582001 -4.308081,0.07552 -1.572511,-0.6259 -5.875301,-5.049663 -7.546096,-7.758254 -0.991294,-1.607037 -1.49894,-2.915123 -1.910685,-4.92338 -0.533305,-3.197699 0.608519,-7.438612 1.563871,-9.817119 0.791746,-1.95797 1.020334,-2.371299 1.341148,-2.425153 0.299125,-0.05022 0.349727,0.04709 0.199785,0.382154 -0.24377,0.545352 -0.189908,0.669736 0.276057,0.637229 0.538247,-0.03752 0.536813,-0.01226 -0.09006,1.561764 -0.493511,1.239152 -0.614978,1.879368 -0.152327,0.802907 0.745849,-1.735398 1.274805,-2.435831 1.049255,-1.389402 -0.14747,0.684213 0.111136,0.586356 0.560219,-0.212002 0.194014,-0.344891 0.53506,-0.774435 0.757899,-0.954515 l 0.405167,-0.327429 -0.372711,0.661678 c -0.204979,0.363939 -0.336327,0.704007 -0.291688,0.755783 0.125997,0.146322 0.281255,-0.04708 0.728562,-0.907693 0.310325,-0.597116 0.365828,-0.782556 0.221998,-0.741211 -0.114912,0.03309 -0.02029,-0.154063 0.235655,-0.466481 0.235155,-0.286877 0.493701,-0.540815 0.57453,-0.564315 0.08084,-0.02352 0.41084,-0.355739 0.733359,-0.738306 1.045573,-1.240242 2.345087,-1.951701 5.253254,-2.87601 0.670233,-0.21303 1.590207,-0.57213 2.044385,-0.797998 1.155031,-0.574429 1.550904,-0.628528 3.295519,-0.450401 1.875934,0.191641 2.906578,0.454514 4.50208,1.148694 2.236134,0.972869 4.174279,2.327311 5.894045,4.118907 0.502461,0.523429 0.936867,0.892991 0.965343,0.821229 0.162992,-0.410646 -1.844214,-2.790621 -3.074319,-3.645238 -0.865815,-0.601515 -1.106431,-0.886365 -0.718277,-0.850312 0.09766,0.0092 0.669817,0.33603 1.271469,0.726572 1.184492,0.768866 1.3319,0.827143 1.405769,0.555794 0.08571,-0.314848 1.02825,0.373561 1.903905,1.390575 2.300162,2.671452 3.814254,6.809259 4.057819,11.089503 0.139919,2.458422 -0.04102,3.679135 -1.058585,7.142207 -0.45252,1.540041 -1.754767,3.89021 -2.789594,5.034361 -0.390895,0.432205 -0.948246,1.055778 -1.238565,1.385756 -0.595086,0.676381 -3.224738,2.389342 -4.500377,2.931554 -1.266022,0.53813 -4.054661,1.184461 -4.041424,0.936678 z m 3.206201,-1.060394 c 0.26933,-0.110175 0.491008,-0.225159 0.492627,-0.255459 0.0045,-0.08403 -0.60161,0.106107 -0.900715,0.282467 -0.376899,0.222221 -0.167099,0.208345 0.408075,-0.02709 z M 41.33062,20.98989 c -0.26819,-0.374277 -1.44581,-1.222599 -2.26973,-1.635065 -1.296148,-0.64885 -1.306083,-0.522401 -0.02296,0.296388 0.643301,0.410589 1.429947,0.944014 1.748106,1.185371 0.587644,0.445765 0.796596,0.504564 0.544921,0.153283 z m -4.145727,-2.474262 c -0.429266,-0.282193 -1.950782,-0.746709 -2.135744,-0.652032 -0.155672,0.0796 0.111695,0.201863 1.271044,0.581024 0.999195,0.326787 1.290162,0.350668 0.864686,0.07144 z m 2.350815,22.376434 c 0.0032,-0.05978 1.204009,-1.451666 1.455858,-1.687504 0.161374,-0.151085 -0.410846,0.828367 -0.7922,1.356268 -0.169931,0.235194 -0.389554,0.420153 -0.488023,0.411005 -0.09851,-0.0092 -0.177488,-0.04506 -0.175642,-0.07979 z m 2.172771,-3.111596 c 0.388709,-0.872498 0.72143,-1.879998 1.018343,-3.083698 0.03827,-0.154907 0.09166,-0.255919 0.118893,-0.224396 0.0826,0.09591 -0.377956,2.030863 -0.632009,2.655323 -0.238586,0.586423 -0.840679,1.686398 -0.919106,1.679113 -0.02292,-0.0021 0.163356,-0.463975 0.413936,-1.026321 z m 1.166395,-4.485439 c 0.01561,-0.266271 0.04526,-0.358707 0.06598,-0.20544 0.02085,0.153315 0.0079,0.37115 -0.02883,0.484075 -0.03633,0.112983 -0.05328,-0.01243 -0.03771,-0.278723 z m -0.03167,-2.041848 c -0.06235,-0.591759 -0.07923,-1.105386 -0.03773,-1.141418 0.140907,-0.122126 0.291073,0.959922 0.220825,1.590436 -0.06856,0.615485 -0.07189,0.607329 -0.183138,-0.449019 z M 21.296789,19.586409 c 0.62721,-0.777046 3.192148,-2.640956 2.976769,-2.16318 -0.06131,0.13592 -1.585258,1.324751 -2.889675,2.254137 l -0.377747,0.269122 z m 6.77317,0.468644 c 0.0035,-0.06663 0.09092,-0.113221 0.194095,-0.103637 0.103191,0.0094 0.151245,0.06867 0.106801,0.131587 -0.04444,0.06284 -0.131812,0.109382 -0.194093,0.103604 -0.06228,-0.0057 -0.110342,-0.06504 -0.106789,-0.131555 z m -7.309713,-1.278632 c 0.0068,-0.128418 0.167666,-0.337696 0.357472,-0.465159 0.286637,-0.192563 0.349666,-0.199707 0.372601,-0.04224 0.03636,0.250033 -0.363971,0.776016 -0.575847,0.756321 -0.09167,-0.0085 -0.161077,-0.120565 -0.154222,-0.248892 z m 11.908365,-3.296512 c 0.0061,-0.116854 0.487141,-0.181526 1.005082,-0.135315 0.248286,0.02207 0.448506,0.09477 0.444948,0.161359 -0.007,0.130188 -0.02004,0.131302 -0.881428,0.08481 -0.315029,-0.01758 -0.570907,-0.06763 -0.568602,-0.110846 z m -0.209666,-0.603236 c 0.01906,-0.356808 1.841428,-0.590222 2.296821,-0.294187 0.367293,0.238768 0.301702,0.523911 -0.111672,0.485545 -0.188606,-0.01758 -0.759145,-0.03509 -1.267903,-0.03901 -0.681411,-0.0053 -0.922943,-0.04549 -0.917237,-0.152296 z"
     id="path4-0"
     transform="matrix(1.0809789,0,0,1.0809789,-2.5913241,-2.5913242)" />
  <path
     style="opacity:0.46799;mix-blend-mode:normal;fill:#ffffff;fill-opacity:1;stroke-width:1.1026;stroke-dasharray:none"
     d="m 35.988031,50.915753 c 0.0028,-0.04906 0.347625,-0.174551 0.766684,-0.278864 0.493302,-0.122786 0.810698,-0.285177 0.900268,-0.460631 0.07613,-0.149011 0.533878,-0.458219 1.017304,-0.687076 0.483421,-0.228856 1.323849,-0.664652 1.867621,-0.968449 0.852576,-0.476288 0.980538,-0.594858 0.929492,-0.861312 -0.03927,-0.205005 0.0082,-0.328078 0.13911,-0.36592 0.240159,-0.06896 0.2771,-0.321188 0.05005,-0.341487 -0.08952,-0.0082 -0.435696,0.140609 -0.769434,0.330225 -0.839479,0.477001 -1.782559,0.852389 -1.948711,0.775673 -0.07629,-0.03523 -0.463565,0.05484 -0.860535,0.200274 -0.396979,0.145412 -0.87543,0.25068 -1.063257,0.233953 -0.187807,-0.0167 -0.595104,0.03475 -0.905093,0.114506 -0.30997,0.07966 -0.62499,0.139248 -0.70002,0.132274 -0.235957,-0.0219 0.479034,-0.594523 1.363591,-1.092026 0.886485,-0.498601 1.103544,-0.736594 0.52105,-0.571265 -0.45005,0.127744 -1.106098,0.06121 -1.09688,-0.111487 0.0041,-0.07526 0.193681,-0.220505 0.421462,-0.322598 0.937111,-0.41999 1.62606,-0.814649 1.558707,-0.892858 -0.03938,-0.04576 -0.492058,0.122374 -1.005825,0.373705 -0.513772,0.251341 -0.99707,0.451119 -1.074,0.443977 -0.342751,-0.03185 -0.0554,-0.312002 0.818851,-0.798256 0.979846,-0.545043 1.213922,-0.846435 0.320679,-0.412918 -0.717624,0.348297 -1.772901,0.646039 -1.764992,0.497983 0.0037,-0.06844 0.52726,-0.410906 1.163563,-0.761001 0.636313,-0.350111 1.270626,-0.799677 1.409593,-0.99906 0.138989,-0.199394 0.655296,-0.646655 1.147376,-0.99392 0.492086,-0.347253 0.955699,-0.730051 1.030238,-0.850652 0.07469,-0.120595 0.517391,-0.62776 0.984096,-1.127025 1.022553,-1.093882 2.321043,-3.288845 2.729271,-4.613603 0.175548,-0.569743 0.376206,-1.752661 0.49423,-2.913823 0.176421,-1.73606 0.175035,-2.117567 -0.01275,-3.410769 -0.551803,-3.800777 -1.734428,-6.393243 -3.747325,-8.21458 -2.039692,-1.845596 -3.76898,-2.604626 -6.515266,-2.859735 -2.058125,-0.191174 -3.33343,-0.01099 -5.549455,0.783696 -2.119267,0.76007 -2.743309,1.12101 -4.264039,2.466338 -1.290088,1.141299 -1.305511,1.162881 -2.576581,3.604801 l -0.457191,0.878344 0.118674,-0.646699 c 0.150783,-0.821654 0.899106,-2.226757 1.677492,-3.149717 1.198863,-1.421574 3.333325,-2.915816 4.538611,-3.177271 0.291015,-0.06313 1.095977,-0.365993 1.788801,-0.673014 l 1.259684,-0.558209 -0.57137,-0.08917 c -0.314252,-0.04905 -0.699417,-0.168708 -0.855906,-0.266046 -0.207531,-0.128985 -0.409877,-0.15032 -0.747572,-0.07903 -0.713347,0.151506 -0.541784,-0.105979 0.285779,-0.429024 0.742005,-0.289572 0.831268,-0.422898 0.466864,-0.697322 -0.250223,-0.188436 -1.484239,0.205229 -2.853485,0.91026 -1.526153,0.785821 -3.118587,2.129078 -1.945976,1.641482 l 0.418795,-0.17414 -0.108998,0.3515 c -0.07026,0.226945 -0.05364,0.392424 0.04729,0.467005 0.1122,0.08293 0.0029,0.272804 -0.387972,0.674035 -0.799361,0.820498 -1.742971,1.90814 -2.18438,2.517809 -0.213073,0.294299 -0.62458,0.793646 -0.91445,1.10966 -0.542824,0.591819 -1.330148,2.346381 -1.367623,3.047794 -0.01059,0.198411 -0.08251,0.463475 -0.15972,0.589043 -0.102098,0.165798 -0.09328,0.251333 0.03215,0.31269 0.257547,0.125954 0.322441,0.900282 0.246456,2.940518 -0.08101,2.174686 0.06797,2.795894 1.083274,4.516804 0.355454,0.602486 0.644556,1.12768 0.642448,1.167099 -0.0023,0.03932 -0.162855,0.02046 -0.357263,-0.04276 -0.300602,-0.09697 -0.218272,0.04248 0.550568,0.932525 0.497215,0.57561 0.848244,1.059873 0.78007,1.076104 -0.06818,0.01618 -0.383177,-0.109542 -0.700003,-0.279534 -0.520454,-0.279254 -0.820911,-0.615331 -1.682569,-1.882156 -0.292313,-0.429761 -0.49503,-0.307103 -0.306272,0.185307 0.233384,0.608868 0.04526,0.493331 -0.437233,-0.268507 -0.253209,-0.399835 -0.485283,-0.664238 -0.515719,-0.587561 -0.07299,0.184139 0.07209,0.487248 0.82614,1.725836 0.346382,0.568917 0.720215,1.228968 0.830745,1.466772 0.132429,0.284944 0.331411,0.471168 0.583506,0.546123 0.210406,0.06258 0.409975,0.200479 0.443575,0.306364 0.07768,0.245175 1.702566,1.158104 1.939933,1.089913 0.09803,-0.02809 0.465717,0.09244 0.816988,0.268174 0.35128,0.175633 0.943877,0.347756 1.316888,0.382487 1.847283,0.171877 4.01314,2.406815 3.928534,4.053871 -0.0416,0.806942 -0.74112,1.825115 -1.575445,2.292586 -1.053153,0.590067 -3.281419,0.629131 -4.656945,0.08164 -1.699851,-0.676585 -6.351076,-5.458579 -8.15717,-8.386509 -1.071568,-1.737173 -1.620322,-3.151186 -2.06541,-5.32207 -0.576492,-3.456645 0.657796,-8.040982 1.690511,-10.612098 0.855861,-2.116524 1.10296,-2.563324 1.449753,-2.621539 0.323348,-0.05429 0.378048,0.0509 0.215963,0.4131 -0.26351,0.589514 -0.205286,0.723971 0.298412,0.688831 0.581834,-0.04056 0.580284,-0.01325 -0.09735,1.688234 -0.533475,1.339497 -0.664778,2.031557 -0.164662,0.867926 0.806247,-1.875929 1.378037,-2.633082 1.134222,-1.501914 -0.159411,0.739619 0.120136,0.633838 0.605585,-0.22917 0.209725,-0.37282 0.578389,-0.837148 0.819273,-1.031811 l 0.437977,-0.353944 -0.402893,0.71526 c -0.221578,0.393411 -0.363562,0.761017 -0.315308,0.816986 0.1362,0.158171 0.304031,-0.05089 0.78756,-0.981197 0.335455,-0.64547 0.395452,-0.845927 0.239975,-0.801234 -0.124217,0.03577 -0.02193,-0.166538 0.254738,-0.504256 0.254198,-0.310108 0.533681,-0.584609 0.621055,-0.610012 0.08739,-0.02542 0.444109,-0.384547 0.792746,-0.798093 1.130242,-1.340676 2.534989,-2.109748 5.678656,-3.108906 0.724508,-0.230281 1.71898,-0.618461 2.209937,-0.862619 1.248564,-0.620946 1.676495,-0.679426 3.562387,-0.486874 2.027845,0.207159 3.141949,0.49132 4.866653,1.241714 2.417214,1.05165 4.512308,2.515774 6.371338,4.452451 0.54315,0.565816 1.012734,0.965304 1.043516,0.887731 0.176191,-0.443899 -1.993557,-3.016602 -3.323274,-3.940425 -0.935928,-0.650225 -1.196029,-0.958142 -0.776443,-0.919169 0.105569,0.0099 0.724059,0.363241 1.374432,0.785409 1.28041,0.831127 1.439755,0.894124 1.519606,0.600801 0.09265,-0.340344 1.111517,0.403812 2.058081,1.503182 2.486427,2.887784 4.123128,7.360666 4.386417,11.987519 0.151249,2.657502 -0.04434,3.977067 -1.144308,7.720575 -0.489165,1.664752 -1.896866,4.205235 -3.015492,5.442038 -0.42255,0.467204 -1.025034,1.141273 -1.338863,1.497973 -0.643275,0.731153 -3.485874,2.582828 -4.864812,3.168948 -1.368543,0.581707 -4.383003,1.280377 -4.368694,1.012529 z m 3.465835,-1.146263 c 0.29114,-0.119097 0.530769,-0.243392 0.53252,-0.276146 0.0049,-0.09083 -0.650328,0.114699 -0.973654,0.305341 -0.40742,0.240216 -0.180631,0.225216 0.44112,-0.02928 z m 2.632337,-29.671186 c -0.289907,-0.404586 -1.56289,-1.321604 -2.45353,-1.767471 -1.401109,-0.701393 -1.411848,-0.564705 -0.02482,0.320389 0.695395,0.443838 1.545742,1.020459 1.889665,1.281361 0.635231,0.481863 0.861104,0.545423 0.589049,0.165696 z M 37.60476,17.423679 c -0.464028,-0.305045 -2.108754,-0.807177 -2.308694,-0.704833 -0.168278,0.08605 0.12074,0.218209 1.373971,0.628074 1.080109,0.35325 1.394638,0.379065 0.934708,0.07723 z m 2.541181,24.188452 c 0.0035,-0.06462 1.301509,-1.56922 1.573752,-1.824156 0.174442,-0.16332 -0.444116,0.895447 -0.856351,1.466097 -0.183692,0.25424 -0.4211,0.454177 -0.527543,0.444288 -0.106487,-0.0099 -0.191861,-0.04871 -0.189865,-0.08625 z m 2.34872,-3.363569 c 0.420186,-0.943152 0.77985,-2.032239 1.100807,-3.333413 0.04137,-0.167451 0.09908,-0.276643 0.128521,-0.242567 0.08929,0.103677 -0.408563,2.19532 -0.683188,2.870348 -0.257907,0.633911 -0.908757,1.822961 -0.993535,1.815086 -0.02478,-0.0023 0.176585,-0.501548 0.447456,-1.109432 z m 1.260848,-4.848665 c 0.01687,-0.287834 0.04892,-0.387755 0.07132,-0.222077 0.02254,0.165731 0.0085,0.401206 -0.03116,0.523275 -0.03927,0.122133 -0.05759,-0.01344 -0.04076,-0.301293 z m -0.03423,-2.207195 c -0.0674,-0.639679 -0.08565,-1.194899 -0.04079,-1.233849 0.152318,-0.132015 0.314644,1.037656 0.238707,1.719228 -0.07411,0.665326 -0.07771,0.65651 -0.197968,-0.48538 z M 20.430055,18.58117 c 0.678001,-0.83997 3.450645,-2.854817 3.217824,-2.338352 -0.06627,0.146927 -1.71363,1.432028 -3.123677,2.436675 l -0.408337,0.290915 z m 7.321654,0.506595 c 0.0038,-0.07203 0.09828,-0.12239 0.209812,-0.11203 0.111548,0.01016 0.163493,0.07423 0.11545,0.142243 -0.04804,0.06793 -0.142486,0.11824 -0.20981,0.111994 -0.06732,-0.0062 -0.119278,-0.07031 -0.115437,-0.142209 z M 19.850063,17.70559 c 0.0074,-0.138817 0.181244,-0.365042 0.38642,-0.502827 0.309849,-0.208156 0.377982,-0.215879 0.402774,-0.04566 0.0393,0.27028 -0.393445,0.838857 -0.622479,0.817567 -0.09909,-0.0092 -0.17412,-0.130328 -0.16671,-0.269047 z m 12.872691,-3.56346 c 0.0066,-0.126316 0.52659,-0.196225 1.086473,-0.146272 0.268392,0.02386 0.484825,0.102444 0.480979,0.174425 -0.0076,0.140731 -0.02166,0.141935 -0.952805,0.09168 -0.340539,-0.019 -0.617138,-0.07311 -0.614647,-0.119822 z M 32.49611,13.490045 c 0.0206,-0.385702 1.990545,-0.638017 2.482815,-0.31801 0.397036,0.258103 0.326133,0.566337 -0.120715,0.524864 -0.203879,-0.019 -0.82062,-0.03793 -1.370577,-0.04217 -0.73659,-0.0057 -0.997681,-0.04917 -0.991513,-0.164629 z"
     id="path4" />
</svg>
