<?xml version="1.0" encoding="UTF-8" standalone="no"?>
<svg
   width="64"
   height="64"
   version="1.1"
   id="svg14"
   sodipodi:docname="alc.svg"
   inkscape:version="1.4 (e7c3feb100, 2024-10-09)"
   xmlns:inkscape="http://www.inkscape.org/namespaces/inkscape"
   xmlns:sodipodi="http://sodipodi.sourceforge.net/DTD/sodipodi-0.dtd"
   xmlns:xlink="http://www.w3.org/1999/xlink"
   xmlns="http://www.w3.org/2000/svg"
   xmlns:svg="http://www.w3.org/2000/svg">
  <defs
     id="defs14">
    <linearGradient
       id="linearGradient17"
       inkscape:collect="always">
      <stop
         style="stop-color:#bf3667;stop-opacity:1;"
         offset="0"
         id="stop18" />
      <stop
         style="stop-color:#83291f;stop-opacity:1;"
         offset="1"
         id="stop19" />
    </linearGradient>
    <linearGradient
       id="linearGradient15"
       inkscape:collect="always">
      <stop
         style="stop-color:#a86f5e;stop-opacity:1;"
         offset="0"
         id="stop16" />
      <stop
         style="stop-color:#ff96ba;stop-opacity:1;"
         offset="1"
         id="stop17" />
    </linearGradient>
    <linearGradient
       id="linearGradient14"
       inkscape:collect="always">
      <stop
         style="stop-color:#bfbfbf;stop-opacity:1;"
         offset="0"
         id="stop14" />
      <stop
         style="stop-color:#6e6e6e;stop-opacity:1;"
         offset="1"
         id="stop15" />
    </linearGradient>
    <radialGradient
       inkscape:collect="always"
       xlink:href="#linearGradient14"
       id="radialGradient15"
       cx="31.92108"
       cy="47.616379"
       fx="31.92108"
       fy="47.616379"
       r="25.000813"
       gradientTransform="matrix(2.7371643,0,0,2.9568103,-55.59067,-60.678736)"
       gradientUnits="userSpaceOnUse" />
    <filter
       inkscape:collect="always"
       style="color-interpolation-filters:sRGB"
       id="filter15"
       x="-0.034724336"
       y="-0.058235467"
       width="1.0694487"
       height="1.1164709">
      <feGaussianBlur
         inkscape:collect="always"
         stdDeviation="0.64675635"
         id="feGaussianBlur15" />
    </filter>
    <radialGradient
       inkscape:collect="always"
       xlink:href="#linearGradient15"
       id="radialGradient17"
       cx="32.199625"
       cy="20.559485"
       fx="32.199625"
       fy="20.559485"
       r="23.902755"
       gradientTransform="matrix(1,0,0,0.62249209,0,7.7613682)"
       gradientUnits="userSpaceOnUse" />
    <radialGradient
       inkscape:collect="always"
       xlink:href="#linearGradient17"
       id="radialGradient19"
       cx="32"
       cy="52.282276"
       fx="32"
       fy="52.282276"
       r="3.9999999"
       gradientTransform="matrix(4.4529477,0,0,3.3397105,-110.49433,-119.32524)"
       gradientUnits="userSpaceOnUse" />
    <filter
       inkscape:collect="always"
       style="color-interpolation-filters:sRGB"
       id="filter21"
       x="-0.079572134"
       y="-0.070919096"
       width="1.1591457"
       height="1.1418385">
      <feGaussianBlur
         inkscape:collect="always"
         stdDeviation="1.613076"
         id="feGaussianBlur21" />
    </filter>
    <filter
       inkscape:collect="always"
       style="color-interpolation-filters:sRGB"
       id="filter22"
       x="-0.17351743"
       y="-0.23138653"
       width="1.3470349"
       height="1.4627975">
      <feGaussianBlur
         inkscape:collect="always"
         stdDeviation="0.55763295"
         id="feGaussianBlur22" />
    </filter>
    <filter
       inkscape:collect="always"
       style="color-interpolation-filters:sRGB"
       id="filter23"
       x="-0.069927072"
       y="-0.25633279"
       width="1.1398544"
       height="1.5126656">
      <feGaussianBlur
         inkscape:collect="always"
         stdDeviation="0.61999862"
         id="feGaussianBlur23" />
    </filter>
  </defs>
  <sodipodi:namedview
     id="namedview14"
     pagecolor="#505050"
     bordercolor="#eeeeee"
     borderopacity="1"
     inkscape:showpageshadow="0"
     inkscape:pageopacity="0"
     inkscape:pagecheckerboard="0"
     inkscape:deskcolor="#505050"
     inkscape:zoom="12.959941"
     inkscape:cx="37.461589"
     inkscape:cy="37.53875"
     inkscape:current-layer="svg14" />
  <circle
     style="fill:#8e8e8e"
     cx="32.001"
     cy="51.999"
     r="8"
     id="circle2" />
  <path
     id="path4"
     style="fill:#ffffff"
     d="M 29.697266 51 C 29.281766 51 28.947266 51.3345 28.947266 51.75 L 28.947266 55.650391 C 28.947266 56.065891 29.281766 57 29.697266 57 L 31.197266 57 C 31.612766 57 31.947266 56.6655 31.947266 56.25 C 31.947266 56.6655 32.281766 57 32.697266 57 L 34.197266 57 C 34.612766 57 34.947266 56.065891 34.947266 55.650391 L 34.947266 51.75 C 34.947266 51.3345 34.612766 51 34.197266 51 L 32.697266 51 C 32.281766 51 31.947266 51.3345 31.947266 51.75 C 31.947266 51.3345 31.612766 51 31.197266 51 L 29.697266 51 z " />
  <path
     style="fill:url(#radialGradient15)"
     d="m 7.7430004,4.28125 c -2.14072,1.696448 1.3319817,17.613126 5.5078126,23.886718 2.880098,4.326833 7.673695,7.506909 7.75,11.332032 -0.504967,4.500014 -3.800004,6.85694 -4,10.6875 0,4.637876 2.161634,7.8125 6.800782,7.8125 2.909864,0.291178 5.594006,-3.475052 8.199218,-4 2.605212,0.524948 5.289354,4.291178 8.199218,4 4.639148,0 6.800782,-3.174624 6.800782,-7.8125 -0.2,-3.83056 -3.495034,-6.187486 -4,-10.6875 0.128941,-6.462894 7.533829,-4.97597 11.886718,-21.441406 C 57.161417,9.4572808 57.572219,5.3222284 56.258625,4.28125 55.082472,3.349196 51.108053,4.9060037 46.438313,9.4023438 39.690859,15.899204 40.644107,19.562499 33.625813,29.652344 33.115017,30.003994 32.000813,30 32.000813,30 c 0,0 -1.114204,0.004 -1.625,-0.347656 C 23.36855,19.578357 24.304708,15.893369 17.563313,9.4023438 14.081301,6.049629 9.2929606,3.0529628 7.7430004,4.28125 Z"
     id="path7"
     sodipodi:nodetypes="cccccccccsscccccc" />
  <g
     id="g20"
     transform="translate(52.205855,3.3877115)"
     style="filter:url(#filter21)">
    <path
       d="m -20.205078,50.712891 c -1.886551,0.380138 -3.814772,2.454928 -5.839844,3.46289 1.459802,1.559275 3.535348,2.535156 5.839844,2.535156 2.304496,0 4.380042,-0.975881 5.839844,-2.535156 -2.025072,-1.007962 -3.953294,-3.082752 -5.839844,-3.46289 z"
       style="baseline-shift:baseline;display:inline;overflow:visible;fill:none;stroke:#000000;stroke-width:0.2;stroke-dasharray:none;stroke-opacity:1;enable-background:accumulate;stop-color:#000000;stop-opacity:1"
       id="path20" />
    <path
       d="m -43.279297,0.72265625 c -0.488358,-0.0412602 -0.892976,0.0411806 -1.183594,0.27148438 -2.14072,1.69644797 1.331982,17.61312637 5.507813,23.88671837 2.880098,4.326833 7.673695,7.506909 7.75,11.332032 -0.504967,4.500014 -3.800004,6.85694 -4,10.6875 0,4.637876 2.161633,7.8125 6.800781,7.8125 2.909864,0.291178 5.594007,-3.475052 8.199219,-4 2.605212,0.524948 5.289355,4.291178 8.199219,4 4.6391476,0 6.8007809,-3.174624 6.8007809,-7.8125 -0.2,-3.83056 -3.495034,-6.187486 -4,-10.6875 C -9.0761371,29.749997 -1.6712484,31.23692 2.6816406,14.771484 4.9555266,6.1701718 5.3663284,2.0351186 4.0527344,0.99414063 2.8765814,0.06208662 -1.0978381,1.6188944 -5.7675781,6.1152344 -12.515032,12.612094 -11.561784,16.275389 -18.580078,26.365234 c -0.510796,0.35165 -1.625,0.347657 -1.625,0.347657 0,0 -1.114204,0.004 -1.625,-0.347657 -7.007263,-10.073987 -6.071105,-13.758975 -12.8125,-20.2499996 -2.829135,-2.724081 -6.520499,-5.21378409 -8.636719,-5.39257815 z"
       style="baseline-shift:baseline;display:inline;overflow:visible;fill:none;stroke:#000000;stroke-width:0.2;stroke-dasharray:none;stroke-opacity:1;enable-background:accumulate;stop-color:#000000;stop-opacity:1"
       id="path19" />
  </g>
  <path
     style="opacity:0.3;filter:url(#filter15);fill:url(#radialGradient17);fill-opacity:1"
     d="m 9.860531,7.2324242 c 0.0043,0.301485 -0.03315,0.412154 0.0082,0.828496 0.193518,1.9484538 0.83308,5.0509478 1.952297,9.2857138 1.240638,4.69418 2.125283,6.82012 3.762409,9.280246 h -0.0028 c 1.13917,1.711868 1.439944,2.060938 3.365935,3.964748 l 0.05468,0.05196 0.04922,0.05742 c 0.823812,0.9078 1.83486,1.95379 2.717903,3.182736 1.438872,-1.614014 3.23205,-2.872794 5.238938,-3.677646 -1.413176,-2.282922 -2.56816,-4.617854 -3.510854,-6.532266 v -0.0028 C 19.597636,15.733845 18.809382,14.494238 15.621721,11.42412 13.541141,9.4202462 11.813258,8.1688652 10.128493,7.3472652 9.896002,7.2338952 10.046506,7.2997422 9.860531,7.2324242 Z m 44.678614,0.01368 c -0.125,0.05445 -0.1267,0.03228 -0.267962,0.10117 -1.684766,0.8216 -3.412648,2.072982 -5.493228,4.0768558 -3.187662,3.070117 -3.975916,4.309724 -7.87481,12.24697 v 0.0028 c -0.943136,1.915306 -2.0995,4.251066 -3.513588,6.535 2.007872,0.804484 3.80202,2.063288 5.24167,3.677646 0.883338,-1.229738 1.893664,-2.27723 2.717904,-3.18547 l 0.04922,-0.05742 0.05468,-0.05196 c 1.92599,-1.90381 2.226764,-2.252882 3.365934,-3.964748 h -0.0028 c 1.63706,-2.46013 2.521772,-4.586066 3.76241,-9.280246 1.119218,-4.234766 1.758778,-7.33726 1.952296,-9.2857138 0.04072,-0.409472 0.0036,-0.516305 0.0082,-0.814824 z"
     id="path8-3" />
  <path
     style="opacity:0.41043724"
     d="m 9.8605332,7.2324244 c 0.00428,0.3014846 -0.033148,0.412154 0.0082,0.8284956 0.1935178,1.948454 0.8330798,5.050948 1.9522968,9.285714 1.240638,4.69418 2.125283,6.82012 3.762409,9.280246 h -0.0028 c 1.13917,1.711868 1.439944,2.060938 3.365935,3.964748 l 0.05468,0.05196 0.04922,0.05742 c 0.823812,0.9078 1.83486,1.95379 2.717903,3.182736 1.438872,-1.614014 3.23205,-2.872794 5.238938,-3.677646 -1.413176,-2.282922 -2.56816,-4.617854 -3.510854,-6.532266 v -0.0028 C 19.597638,15.733845 18.809384,14.494238 15.621723,11.42412 13.541143,9.4202464 11.81326,8.168865 10.128495,7.3472654 9.8960042,7.2338946 10.046508,7.2997418 9.8605332,7.2324244 Z m 44.6786138,0.01368 c -0.125,0.054454 -0.1267,0.032284 -0.267962,0.10117 -1.684766,0.8215996 -3.412648,2.0729812 -5.493228,4.0768556 -3.187662,3.070117 -3.975916,4.309724 -7.87481,12.24697 v 0.0028 c -0.943136,1.915306 -2.0995,4.251066 -3.513588,6.535 2.007872,0.804484 3.80202,2.063288 5.24167,3.677646 0.883338,-1.229738 1.893664,-2.27723 2.717904,-3.18547 l 0.04922,-0.05742 0.05468,-0.05196 c 1.92599,-1.90381 2.226764,-2.252882 3.365934,-3.964748 h -0.0028 c 1.63706,-2.46013 2.521772,-4.586066 3.76241,-9.280246 1.119218,-4.234766 1.758778,-7.33726 1.952296,-9.285714 0.04072,-0.409472 0.0036,-0.5163048 0.0082,-0.8148242 z"
     id="path8" />
  <path
     style="fill:url(#radialGradient19)"
     d="m 31.999998,54 c -2.575385,-0.19758 -4.786948,-3.065764 -3.729691,-4.47926 1.128155,-1.114636 2.544091,-1.533812 3.729691,-1.52043 1.185603,-0.0132 2.601539,0.405794 3.729694,1.52043 C 36.786949,50.934236 34.57539,53.80243 31.999998,54 Z"
     id="path9" />
  <path
     style="fill:none;stroke:#000000;stroke-opacity:1;stroke-width:0.1;stroke-dasharray:none;filter:url(#filter22)"
     d="m 32.054559,54 c -2.575385,-0.19758 -4.786948,-3.065764 -3.729691,-4.47926 1.128155,-1.114636 2.544091,-1.533812 3.729691,-1.52043 1.185603,-0.0132 2.601539,0.405794 3.729694,1.52043 C 36.84151,50.934236 34.629951,53.80243 32.054559,54 Z"
     id="path9-1" />
  <path
     id="path11"
     style="fill:#ffffff"
     d="M 22.726562 40 C 20.824914 40 21.003906 41.343146 21.003906 43 C 21.003906 44.656854 23.750696 46 25.652344 46 C 27.89045 46 27.61455 40.506736 22.726562 40 z M 41.275391 40 C 36.387403 40.506736 36.10955 46 38.347656 46 C 40.249304 46 42.996094 44.656854 42.996094 43 C 42.996094 41.343146 43.177031 40 41.275391 40 z " />
  <path
     id="circle11"
     style="fill:#323232"
     d="m 25.908781,43.681583 a 1.5,1.5 0 0 1 -1.5,1.5 1.5,1.5 0 0 1 -1.5,-1.5 1.5,1.5 0 0 1 1.5,-1.5 1.5,1.5 0 0 1 1.5,1.5 z" />
  <path
     id="path11-0"
     style="fill:none;stroke:#000000;stroke-width:0.1;stroke-dasharray:none;stroke-opacity:1;filter:url(#filter23)"
     d="m 22.726556,40 c -1.901648,0 -1.722656,1.343146 -1.722656,3 0,1.656854 2.74679,3 4.648438,3 2.238106,0 1.962206,-5.493264 -2.925782,-6 z m 18.548829,0 c -4.887988,0.506736 -5.165841,6 -2.927735,6 1.901648,0 4.648438,-1.343146 4.648438,-3 0,-1.656854 0.180937,-3 -1.720703,-3 z" />
  <path
     id="circle13"
     style="fill:#323232"
     transform="scale(-1,1)"
     d="m -37.927536,43.681583 a 1.5,1.5 0 0 1 -1.5,1.5 1.5,1.5 0 0 1 -1.5,-1.5 1.5,1.5 0 0 1 1.5,-1.5 1.5,1.5 0 0 1 1.5,1.5 z" />
</svg>
