<?xml version="1.0" encoding="UTF-8" standalone="no"?>
<svg
   width="64"
   height="64"
   version="1.1"
   id="svg5"
   sodipodi:docname="alexandra.svg"
   inkscape:version="1.4 (e7c3feb100, 2024-10-09)"
   xmlns:inkscape="http://www.inkscape.org/namespaces/inkscape"
   xmlns:sodipodi="http://sodipodi.sourceforge.net/DTD/sodipodi-0.dtd"
   xmlns:xlink="http://www.w3.org/1999/xlink"
   xmlns="http://www.w3.org/2000/svg"
   xmlns:svg="http://www.w3.org/2000/svg">
  <defs
     id="defs5">
    <linearGradient
       id="linearGradient2"
       inkscape:collect="always">
      <stop
         style="stop-color:#68e4aa;stop-opacity:1;"
         offset="0"
         id="stop1" />
      <stop
         style="stop-color:#2e8f5b;stop-opacity:1;"
         offset="1"
         id="stop2" />
    </linearGradient>
    <inkscape:path-effect
       effect="fillet_chamfer"
       id="path-effect44"
       is_visible="true"
       lpeversion="1"
       nodesatellites_param="F,0,0,1,0,0,0,1 @ F,0,0,1,0,0,0,1 @ F,0,0,1,0,0,0,1 @ F,0,0,1,0,2.3085109,0,1 @ F,0,0,1,0,1.7436881,0,1 @ F,0,0,1,0,0,0,1 @ F,0,0,1,0,0,0,1 @ F,0,0,1,0,0,0,1 @ F,0,0,1,0,0,0,1 @ F,0,0,1,0,0,0,1 @ F,0,0,1,0,0,0,1 @ F,0,0,1,0,0,0,1 @ F,0,0,1,0,0,0,1 @ F,0,0,1,0,0,0,1 @ F,0,0,1,0,0,0,1 @ F,0,0,1,0,0,0,1 @ F,0,0,1,0,0,0,1 | F,0,0,1,0,0,0,1 @ F,0,0,1,0,0,0,1 @ F,0,0,1,0,2.3085109,0,1 @ F,0,0,1,0,0,0,1 @ F,0,0,1,0,0,0,1 | F,0,0,1,0,0,0,1 @ F,0,0,1,0,0,0,1 @ F,0,0,1,0,0,0,1 @ F,0,0,1,0,0,0,1 | F,0,0,1,0,0,0,1 @ F,0,0,1,0,0,0,1 @ F,0,0,1,0,0,0,1 @ F,0,0,1,0,0,0,1 | F,0,0,1,0,0,0,1 @ F,0,0,1,0,0,0,1 @ F,0,0,1,0,0,0,1 @ F,0,0,1,0,0,0,1"
       radius="0"
       unit="px"
       method="auto"
       mode="F"
       chamfer_steps="1"
       flexible="false"
       use_knot_distance="true"
       apply_no_radius="true"
       apply_with_radius="true"
       only_selected="false"
       hide_knots="false" />
    <linearGradient
       id="linearGradient28"
       inkscape:collect="always">
      <stop
         style="stop-color:#31dc8d;stop-opacity:1;"
         offset="0"
         id="stop27" />
      <stop
         style="stop-color:#2e8f5b;stop-opacity:1;"
         offset="1"
         id="stop28" />
    </linearGradient>
    <inkscape:path-effect
       effect="fillet_chamfer"
       id="path-effect24"
       is_visible="true"
       lpeversion="1"
       nodesatellites_param="F,0,0,1,0,4.9572266,0,1 @ F,0,0,1,0,0,0,1 @ F,0,0,1,0,0,0,1 @ F,0,0,1,0,4.9572266,0,1 | F,0,1,1,0,1.8769531,0,1 @ F,0,0,1,0,1.8769531,0,1 @ F,0,0,1,0,0,0,1 @ F,0,0,1,0,0,0,1 | F,0,0,1,0,0,0,1 @ F,0,0,1,0,4.9572266,0,1 @ F,0,0,1,0,4.9572266,0,1 @ F,0,0,1,0,0,0,1"
       radius="0"
       unit="px"
       method="auto"
       mode="F"
       chamfer_steps="1"
       flexible="false"
       use_knot_distance="true"
       apply_no_radius="true"
       apply_with_radius="true"
       only_selected="false"
       hide_knots="false" />
    <inkscape:path-effect
       effect="fillet_chamfer"
       id="path-effect23"
       is_visible="true"
       lpeversion="1"
       nodesatellites_param="F,0,0,1,0,0,0,1 @ F,0,0,1,0,0,0,1 @ F,0,0,1,0,0,0,1 @ F,0,0,1,0,0,0,1"
       radius="0"
       unit="px"
       method="auto"
       mode="F"
       chamfer_steps="1"
       flexible="false"
       use_knot_distance="true"
       apply_no_radius="true"
       apply_with_radius="true"
       only_selected="false"
       hide_knots="false" />
    <inkscape:path-effect
       effect="fillet_chamfer"
       id="path-effect20"
       is_visible="true"
       lpeversion="1"
       nodesatellites_param="F,0,1,1,0,5.717001,0,1 @ F,0,1,1,0,5.717001,0,1 @ F,0,0,1,0,5.717001,0,1 @ F,0,1,1,0,5.717001,0,1"
       radius="0"
       unit="px"
       method="auto"
       mode="F"
       chamfer_steps="1"
       flexible="false"
       use_knot_distance="true"
       apply_no_radius="true"
       apply_with_radius="true"
       only_selected="false"
       hide_knots="false" />
    <radialGradient
       inkscape:collect="always"
       xlink:href="#linearGradient2"
       id="radialGradient23"
       cx="5.811727"
       cy="60.553516"
       fx="5.811727"
       fy="60.553516"
       r="21.135005"
       gradientTransform="matrix(4.0031287,-1.1176297,0.73213537,2.6223641,-62.236883,-112.87333)"
       gradientUnits="userSpaceOnUse" />
    <radialGradient
       inkscape:collect="always"
       xlink:href="#linearGradient28"
       id="radialGradient25"
       cx="56.767284"
       cy="-29.180473"
       fx="56.767284"
       fy="-29.180473"
       r="14.046094"
       gradientUnits="userSpaceOnUse"
       gradientTransform="matrix(5.7735215,-0.87854178,0.57551389,3.7821096,-320.011,184.03066)" />
    <inkscape:path-effect
       effect="fillet_chamfer"
       id="path-effect20-9"
       is_visible="true"
       lpeversion="1"
       nodesatellites_param="F,0,1,1,0,5.717001,0,1 @ F,0,1,1,0,5.717001,0,1 @ F,0,0,1,0,5.717001,0,1 @ F,0,1,1,0,5.717001,0,1"
       radius="0"
       unit="px"
       method="auto"
       mode="F"
       chamfer_steps="1"
       flexible="false"
       use_knot_distance="true"
       apply_no_radius="true"
       apply_with_radius="true"
       only_selected="false"
       hide_knots="false" />
    <inkscape:path-effect
       effect="fillet_chamfer"
       id="path-effect24-2"
       is_visible="true"
       lpeversion="1"
       nodesatellites_param="F,0,0,1,0,4.9572266,0,1 @ F,0,0,1,0,0,0,1 @ F,0,0,1,0,0,0,1 @ F,0,0,1,0,4.9572266,0,1 | F,0,1,1,0,1.8769531,0,1 @ F,0,0,1,0,1.8769531,0,1 @ F,0,0,1,0,0,0,1 @ F,0,0,1,0,0,0,1 | F,0,0,1,0,0,0,1 @ F,0,0,1,0,4.9572266,0,1 @ F,0,0,1,0,4.9572266,0,1 @ F,0,0,1,0,0,0,1"
       radius="0"
       unit="px"
       method="auto"
       mode="F"
       chamfer_steps="1"
       flexible="false"
       use_knot_distance="true"
       apply_no_radius="true"
       apply_with_radius="true"
       only_selected="false"
       hide_knots="false" />
    <inkscape:path-effect
       effect="fillet_chamfer"
       id="path-effect20-5"
       is_visible="true"
       lpeversion="1"
       nodesatellites_param="F,0,1,1,0,5.717001,0,1 @ F,0,1,1,0,5.717001,0,1 @ F,0,0,1,0,5.717001,0,1 @ F,0,1,1,0,5.717001,0,1"
       radius="0"
       unit="px"
       method="auto"
       mode="F"
       chamfer_steps="1"
       flexible="false"
       use_knot_distance="true"
       apply_no_radius="true"
       apply_with_radius="true"
       only_selected="false"
       hide_knots="false" />
    <filter
       inkscape:collect="always"
       style="color-interpolation-filters:sRGB"
       id="filter2"
       x="-0.11946743"
       y="-0.12412264"
       width="1.2389349"
       height="1.2482453">
      <feGaussianBlur
         inkscape:collect="always"
         stdDeviation="2.5328915"
         id="feGaussianBlur2" />
    </filter>
    <filter
       inkscape:collect="always"
       style="color-interpolation-filters:sRGB"
       id="filter3"
       x="-0.15690752"
       y="-0.24270225"
       width="1.313815"
       height="1.4854045">
      <feGaussianBlur
         inkscape:collect="always"
         stdDeviation="2.7123773"
         id="feGaussianBlur3" />
    </filter>
  </defs>
  <sodipodi:namedview
     id="namedview5"
     pagecolor="#505050"
     bordercolor="#eeeeee"
     borderopacity="1"
     inkscape:showpageshadow="0"
     inkscape:pageopacity="0"
     inkscape:pagecheckerboard="0"
     inkscape:deskcolor="#505050"
     inkscape:zoom="11.313709"
     inkscape:cx="38.051182"
     inkscape:cy="28.947183"
     inkscape:current-layer="svg5" />
  <path
     id="path14-6"
     style="fill:url(#radialGradient25);stroke:none;stroke-width:0.0933827;stroke-linecap:round;stroke-linejoin:round;stroke-miterlimit:4.1;stroke-dasharray:none;stroke-opacity:1;paint-order:stroke fill markers"
     d="M 19.217774,6.8095713 C 11.998412,6.8050974 6.1427266,12.654661 6.1396495,19.874024 c -0.0034,7.219363 5.8470435,13.074174 13.0664065,13.076172 4.028891,-4.6e-4 7.832412,-1.858982 10.308593,-5.037109 2.466607,3.172078 6.255224,5.033254 10.273438,5.046875 7.219363,0.0034 13.074174,-5.847044 13.076172,-13.066407 C 52.865832,13.394406 48.091829,7.8814591 41.659181,6.9541026 41.042742,6.8648866 40.420714,6.81985 39.797852,6.819337 35.770763,6.8297678 31.973332,8.6960575 29.504884,11.877931 27.039684,8.6940072 23.244481,6.8241477 19.217774,6.8095713 Z m 0.117188,6.5351557 c 0.220323,0.0043 0.44272,0.01967 0.666016,0.04687 3.572548,0.435299 6.134539,3.706564 5.699218,7.279297 -0.435298,3.572547 -3.708703,6.132564 -7.28125,5.697266 -3.572733,-0.435321 -6.132562,-3.706749 -5.697265,-7.279297 0.408114,-3.349437 3.308441,-5.808416 6.613281,-5.744141 z m 20.583984,0.0078 c 0.220314,0.0043 0.442732,0.01967 0.666016,0.04687 3.572548,0.435298 6.132587,3.706564 5.697266,7.279297 -0.4353,3.572548 -3.70675,6.134517 -7.279297,5.699219 -3.572548,-0.435298 -6.134518,-3.706749 -5.699219,-7.279297 0.408112,-3.349438 3.310527,-5.810354 6.615234,-5.746094 z m -20.623047,1.857422 c -2.373729,-0.04953 -4.427054,1.695459 -4.720703,4.105469 -0.313315,2.571418 1.499636,4.885993 4.070313,5.199218 2.571419,0.313316 4.885903,-1.498894 5.199219,-4.070312 0.313226,-2.570678 -1.498895,-4.885904 -4.070313,-5.199219 -0.160667,-0.01958 -0.320267,-0.03185 -0.478516,-0.03516 z m 20.583985,0.0098 c -2.374259,-0.04959 -4.427055,1.693505 -4.720703,4.103516 -0.313315,2.571418 1.498894,4.887857 4.070312,5.201172 2.571419,0.313316 4.885904,-1.498895 5.199219,-4.070313 0.313225,-2.570677 -1.498894,-4.885902 -4.070313,-5.199218 -0.160713,-0.01958 -0.320231,-0.03185 -0.478515,-0.03516 z m 15.642578,16.66178 c -0.541812,-0.03593 -1.080616,0.105285 -1.535156,0.402344 l -5.494141,3.59375 v 6.800781 l 5.476563,3.53125 c 1.679245,1.083097 3.891264,-0.122854 3.890624,-2.121094 v -9.709006 c 8.3e-5,-1.318396 -1.022377,-2.4109 -2.33789,-2.498047 z M 9.6533213,36.549476 c -0.9673948,4.4e-4 -1.7515135,0.784559 -1.7519531,1.751953 v 0.113281 c -6.388e-4,0.968158 0.7837956,1.753467 1.7519531,1.753906 h 4.1015627 v -3.61914 z m 14.8183597,10.693359 -5.623047,5.976563 c -1.200679,1.276804 -0.295641,3.370768 1.457031,3.371094 h 18.357422 c 1.742823,-7.73e-4 2.635514,-2.089403 1.431641,-3.34961 l -5.72461,-5.998047 z"
     sodipodi:nodetypes="ccccccccccccsssccscsssssssssssssssssssccccccccccccccccccccccc" />
  <path
     id="path14-6-5"
     style="fill:none;stroke:#000000;stroke-width:0.19999999;stroke-linecap:round;stroke-linejoin:round;stroke-miterlimit:4.1;stroke-dasharray:none;stroke-opacity:1;paint-order:stroke fill markers;filter:url(#filter2)"
     d="M 19.217774,6.8095714 C 11.998412,6.8051014 6.1427268,12.654661 6.1396498,19.874024 c -0.0034,7.219363 5.8470432,13.074174 13.0664062,13.076172 4.028891,-4.6e-4 7.832412,-1.858982 10.308593,-5.037109 2.466607,3.172078 6.255224,5.033254 10.273438,5.046875 7.219363,0.0034 13.074174,-5.847044 13.076172,-13.066407 C 52.865832,13.394406 48.091829,7.8814592 41.659181,6.9541027 41.042742,6.8648867 40.420714,6.8198501 39.797852,6.8193371 35.770763,6.8297679 31.973332,8.6960577 29.504884,11.877931 27.039684,8.6940074 23.244481,6.8241478 19.217774,6.8095714 Z m 0.117188,6.5351556 c 0.220323,0.0043 0.44272,0.01967 0.666016,0.04687 3.572548,0.435299 6.134539,3.706564 5.699218,7.279297 -0.435298,3.572547 -3.708703,6.132564 -7.28125,5.697266 -3.572733,-0.435321 -6.132562,-3.706749 -5.697265,-7.279297 0.408114,-3.349437 3.308441,-5.808416 6.613281,-5.744141 z m 20.583984,0.0078 c 0.220314,0.0043 0.442732,0.01967 0.666016,0.04687 3.572548,0.435298 6.132587,3.706564 5.697266,7.279297 -0.4353,3.572548 -3.70675,6.134517 -7.279297,5.699219 -3.572548,-0.435298 -6.134518,-3.706749 -5.699219,-7.279297 0.408112,-3.349438 3.310527,-5.810354 6.615234,-5.746094 z m -20.623047,1.857422 c -2.373729,-0.04953 -4.427054,1.695459 -4.720703,4.105469 -0.313315,2.571418 1.499636,4.885993 4.070313,5.199218 2.571419,0.313316 4.885903,-1.498894 5.199219,-4.070312 0.313226,-2.570678 -1.498895,-4.885904 -4.070313,-5.199219 -0.160667,-0.01958 -0.320267,-0.03185 -0.478516,-0.03516 z m 20.583985,0.0098 c -2.374259,-0.04959 -4.427055,1.693505 -4.720703,4.103516 -0.313315,2.571418 1.498894,4.887857 4.070312,5.201172 2.571419,0.313316 4.885904,-1.498895 5.199219,-4.070313 0.313225,-2.570677 -1.498894,-4.885902 -4.070313,-5.199218 -0.160713,-0.01958 -0.320231,-0.03185 -0.478515,-0.03516 z m 15.642578,16.66178 c -0.541812,-0.03593 -1.080616,0.105285 -1.535156,0.402344 l -5.494141,3.59375 v 6.800781 l 5.476563,3.53125 c 1.679245,1.083097 3.891264,-0.122854 3.890624,-2.121094 v -9.709006 c 8.3e-5,-1.318396 -1.022377,-2.4109 -2.33789,-2.498047 z M 9.6533208,36.549476 c -0.967394,4.4e-4 -1.751513,0.784559 -1.751953,1.751953 v 0.113281 c -6.39e-4,0.968158 0.783796,1.753467 1.751953,1.753906 h 4.1015632 v -3.61914 z m 14.8183602,10.693359 -5.623047,5.976563 c -1.200679,1.276804 -0.295641,3.370768 1.457031,3.371094 h 18.357422 c 1.742823,-7.73e-4 2.635514,-2.089403 1.431641,-3.34961 l -5.72461,-5.998047 z"
     sodipodi:nodetypes="ccccccccccccsssccscsssssssssssssssssssccccccccccccccccccccccc" />
  <path
     id="rect20"
     style="fill:url(#radialGradient23);stroke:none;stroke-width:0.1;stroke-linecap:round;stroke-linejoin:round;stroke-miterlimit:4.1;paint-order:stroke fill markers"
     d="m 13.592001,27.112 h 30.736008 a 5.717001,5.717001 45 0 1 5.717001,5.717001 V 48.657999 A 5.717001,5.717001 135 0 1 44.328009,54.375 H 13.592001 A 5.717001,5.717001 45 0 1 7.875,48.657999 l 0,-15.828998 A 5.717001,5.717001 135 0 1 13.592001,27.112 Z"
     sodipodi:nodetypes="ccccc"
     inkscape:path-effect="#path-effect20"
     inkscape:original-d="M 7.875,27.112 H 50.04501 V 54.375 H 7.875 Z"
     transform="matrix(0.9338271,0,0,0.9338271,2.4145118,0.3250109)" />
  <path
     id="rect20-6"
     style="fill:none;stroke:#000000;stroke-width:0.214172;stroke-linecap:round;stroke-linejoin:round;stroke-miterlimit:4.1;stroke-dasharray:none;stroke-opacity:1;paint-order:stroke fill markers;filter:url(#filter3)"
     d="m 13.592001,27.112 h 30.736008 a 5.717001,5.717001 45 0 1 5.717001,5.717001 V 48.657999 A 5.717001,5.717001 135 0 1 44.328009,54.375 H 13.592001 A 5.717001,5.717001 45 0 1 7.875,48.657999 l 0,-15.828998 A 5.717001,5.717001 135 0 1 13.592001,27.112 Z"
     sodipodi:nodetypes="ccccc"
     inkscape:path-effect="#path-effect20-5"
     inkscape:original-d="M 7.875,27.112 H 50.04501 V 54.375 H 7.875 Z"
     transform="matrix(0.9338271,0,0,0.9338271,2.4145116,-0.55887242)" />
</svg>
