<?xml version="1.0" encoding="UTF-8" standalone="no"?>
<svg
   width="64"
   height="64"
   version="1.1"
   id="svg4"
   sodipodi:docname="alien-swarm.svg"
   inkscape:version="1.4 (e7c3feb100, 2024-10-09)"
   xmlns:inkscape="http://www.inkscape.org/namespaces/inkscape"
   xmlns:sodipodi="http://sodipodi.sourceforge.net/DTD/sodipodi-0.dtd"
   xmlns:xlink="http://www.w3.org/1999/xlink"
   xmlns="http://www.w3.org/2000/svg"
   xmlns:svg="http://www.w3.org/2000/svg">
  <defs
     id="defs4">
    <linearGradient
       id="linearGradient2"
       inkscape:collect="always">
      <stop
         style="stop-color:#64cacc;stop-opacity:1;"
         offset="0"
         id="stop1" />
      <stop
         style="stop-color:#45fcff;stop-opacity:1;"
         offset="1"
         id="stop2" />
    </linearGradient>
    <inkscape:path-effect
       effect="fillet_chamfer"
       id="path-effect10"
       is_visible="true"
       lpeversion="1"
       nodesatellites_param="F,0,0,1,0,0,0,1 @ F,0,0,1,0,2.2626517,0,1 @ F,0,0,1,0,0,0,1 @ F,0,0,1,0,0,0,1 @ F,0,0,1,0,1.1955024,0,1 @ F,0,0,1,0,0,0,1 @ F,0,0,1,0,0,0,1 @ F,0,0,1,0,0,0,1 @ F,0,0,1,0,0,0,1 @ F,0,0,1,0,0,0,1 @ F,0,0,1,0,1.772902,0,1 @ F,0,0,1,0,1.772902,0,1 @ F,0,0,1,0,0,0,1 @ F,0,0,1,0,1.772902,0,1 @ F,0,0,1,0,0,0,1 @ F,0,0,1,0,0,0,1 @ F,0,0,1,0,0,0,1 @ F,0,0,1,0,0,0,1 @ F,0,0,1,0,0,0,1 @ F,0,0,1,0,0,0,1 @ F,0,0,1,0,0,0,1 @ F,0,0,1,0,0,0,1 @ F,0,0,1,0,0,0,1 @ F,0,0,1,0,0,0,1 @ F,0,0,1,0,0,0,1 @ F,0,0,1,0,0,0,1 @ F,0,0,1,0,0,0,1 @ F,0,0,1,0,0,0,1 @ F,0,0,1,0,0,0,1 @ F,0,0,1,0,0,0,1 @ F,0,0,1,0,0,0,1 @ F,0,0,1,0,0,0,1 @ F,0,0,1,0,0,0,1 @ F,0,0,1,0,0,0,1 @ F,0,0,1,0,0,0,1 @ F,0,0,1,0,0,0,1 @ F,0,0,1,0,1.0198346,0,1 @ F,0,0,1,0,0,0,1 @ F,0,0,1,0,0,0,1 @ F,0,0,1,0,0,0,1 @ F,0,0,1,0,0,0,1 @ F,0,0,1,0,0,0,1 @ F,0,0,1,0,0,0,1 @ F,0,0,1,0,0,0,1 @ F,0,0,1,0,0,0,1"
       radius="0"
       unit="px"
       method="auto"
       mode="F"
       chamfer_steps="1"
       flexible="false"
       use_knot_distance="true"
       apply_no_radius="true"
       apply_with_radius="true"
       only_selected="false"
       hide_knots="false" />
    <inkscape:path-effect
       effect="fillet_chamfer"
       id="path-effect9"
       is_visible="true"
       lpeversion="1"
       nodesatellites_param="F,0,0,1,0,0,0,1 @ F,0,0,1,0,1.3248494,0,1 @ F,0,0,1,0,0,0,1 @ F,0,0,1,0,0,0,1 @ F,0,0,1,0,1.0461677,0,1 @ F,0,0,1,0,0,0,1 @ F,0,0,1,0,0,0,1 @ F,0,0,1,0,0,0,1 @ F,0,0,1,0,0,0,1 @ F,0,0,1,0,0,0,1 @ F,0,0,1,0,0.97991279,0,1 @ F,0,0,1,0,2.6641323,0,1 @ F,0,0,1,0,0,0,1 @ F,0,0,1,0,2.6641323,0,1 @ F,0,0,1,0,0,0,1 @ F,0,0,1,0,0,0,1 @ F,0,0,1,0,0,0,1 @ F,0,0,1,0,0,0,1 @ F,0,0,1,0,0,0,1 @ F,0,0,1,0,0,0,1 @ F,0,0,1,0,0,0,1 @ F,0,0,1,0,0,0,1 @ F,0,0,1,0,0,0,1 @ F,0,0,1,0,0,0,1 @ F,0,0,1,0,0,0,1 @ F,0,0,1,0,0,0,1 @ F,0,0,1,0,0,0,1 @ F,0,0,1,0,0,0,1 @ F,0,0,1,0,0,0,1 @ F,0,0,1,0,0,0,1 @ F,0,0,1,0,0,0,1 @ F,0,0,1,0,0,0,1 @ F,0,0,1,0,0,0,1 @ F,0,0,1,0,0,0,1 @ F,0,0,1,0,0,0,1 @ F,0,1,1,0,0,0,1 @ F,0,0,1,0,1.0487699,0,1 @ F,0,0,1,0,0,0,1 @ F,0,0,1,0,0,0,1 @ F,0,0,1,0,0,0,1 @ F,0,0,1,0,0,0,1 @ F,0,0,1,0,0,0,1 @ F,0,0,1,0,0,0,1 @ F,0,0,1,0,0,0,1 @ F,0,0,1,0,0,0,1"
       radius="0"
       unit="px"
       method="auto"
       mode="F"
       chamfer_steps="1"
       flexible="false"
       use_knot_distance="true"
       apply_no_radius="true"
       apply_with_radius="true"
       only_selected="false"
       hide_knots="false" />
    <linearGradient
       id="linearGradient6"
       inkscape:collect="always">
      <stop
         style="stop-color:#0e7879;stop-opacity:1;"
         offset="0"
         id="stop6" />
      <stop
         style="stop-color:#0e6179;stop-opacity:1;"
         offset="1"
         id="stop7" />
    </linearGradient>
    <radialGradient
       inkscape:collect="always"
       xlink:href="#linearGradient6"
       id="radialGradient7"
       cx="10.626446"
       cy="52.319099"
       fx="10.626446"
       fy="52.319099"
       r="19.003993"
       gradientTransform="matrix(2.9845968,-1.7231577,2.6567065,4.6015506,-158.73511,-161.0898)"
       gradientUnits="userSpaceOnUse" />
    <radialGradient
       inkscape:collect="always"
       xlink:href="#linearGradient2"
       id="radialGradient9"
       cx="26.469524"
       cy="35.117741"
       fx="26.469524"
       fy="35.117741"
       r="13.49104"
       gradientTransform="matrix(2.4027141,0,0,3.2906398,-46.554279,-65.614315)"
       gradientUnits="userSpaceOnUse" />
    <inkscape:path-effect
       effect="fillet_chamfer"
       id="path-effect10-0"
       is_visible="true"
       lpeversion="1"
       nodesatellites_param="F,0,0,1,0,0,0,1 @ F,0,0,1,0,2.2626517,0,1 @ F,0,0,1,0,0,0,1 @ F,0,0,1,0,0,0,1 @ F,0,0,1,0,1.1955024,0,1 @ F,0,0,1,0,0,0,1 @ F,0,0,1,0,0,0,1 @ F,0,0,1,0,0,0,1 @ F,0,0,1,0,0,0,1 @ F,0,0,1,0,0,0,1 @ F,0,0,1,0,1.772902,0,1 @ F,0,0,1,0,1.772902,0,1 @ F,0,0,1,0,0,0,1 @ F,0,0,1,0,1.772902,0,1 @ F,0,0,1,0,0,0,1 @ F,0,0,1,0,0,0,1 @ F,0,0,1,0,0,0,1 @ F,0,0,1,0,0,0,1 @ F,0,0,1,0,0,0,1 @ F,0,0,1,0,0,0,1 @ F,0,0,1,0,0,0,1 @ F,0,0,1,0,0,0,1 @ F,0,0,1,0,0,0,1 @ F,0,0,1,0,0,0,1 @ F,0,0,1,0,0,0,1 @ F,0,0,1,0,0,0,1 @ F,0,0,1,0,0,0,1 @ F,0,0,1,0,0,0,1 @ F,0,0,1,0,0,0,1 @ F,0,0,1,0,0,0,1 @ F,0,0,1,0,0,0,1 @ F,0,0,1,0,0,0,1 @ F,0,0,1,0,0,0,1 @ F,0,0,1,0,0,0,1 @ F,0,0,1,0,0,0,1 @ F,0,0,1,0,0,0,1 @ F,0,0,1,0,1.0198346,0,1 @ F,0,0,1,0,0,0,1 @ F,0,0,1,0,0,0,1 @ F,0,0,1,0,0,0,1 @ F,0,0,1,0,0,0,1 @ F,0,0,1,0,0,0,1 @ F,0,0,1,0,0,0,1 @ F,0,0,1,0,0,0,1 @ F,0,0,1,0,0,0,1"
       radius="0"
       unit="px"
       method="auto"
       mode="F"
       chamfer_steps="1"
       flexible="false"
       use_knot_distance="true"
       apply_no_radius="true"
       apply_with_radius="true"
       only_selected="false"
       hide_knots="false" />
    <filter
       inkscape:collect="always"
       style="color-interpolation-filters:sRGB"
       id="filter10"
       x="-0.12417844"
       y="-0.080525422"
       width="1.2483276"
       height="1.1610345">
      <feGaussianBlur
         inkscape:collect="always"
         stdDeviation="1.8006469"
         id="feGaussianBlur10" />
    </filter>
    <filter
       inkscape:collect="always"
       style="color-interpolation-filters:sRGB"
       id="filter11"
       x="-0.17492146"
       y="-0.098329088"
       width="1.3498448"
       height="1.1966575">
      <feGaussianBlur
         inkscape:collect="always"
         stdDeviation="1.8006469"
         id="feGaussianBlur11" />
    </filter>
    <inkscape:path-effect
       effect="fillet_chamfer"
       id="path-effect10-5"
       is_visible="true"
       lpeversion="1"
       nodesatellites_param="F,0,0,1,0,0,0,1 @ F,0,0,1,0,2.2626517,0,1 @ F,0,0,1,0,0,0,1 @ F,0,0,1,0,0,0,1 @ F,0,0,1,0,1.1955024,0,1 @ F,0,0,1,0,0,0,1 @ F,0,0,1,0,0,0,1 @ F,0,0,1,0,0,0,1 @ F,0,0,1,0,0,0,1 @ F,0,0,1,0,0,0,1 @ F,0,0,1,0,1.772902,0,1 @ F,0,0,1,0,1.772902,0,1 @ F,0,0,1,0,0,0,1 @ F,0,0,1,0,1.772902,0,1 @ F,0,0,1,0,0,0,1 @ F,0,0,1,0,0,0,1 @ F,0,0,1,0,0,0,1 @ F,0,0,1,0,0,0,1 @ F,0,0,1,0,0,0,1 @ F,0,0,1,0,0,0,1 @ F,0,0,1,0,0,0,1 @ F,0,0,1,0,0,0,1 @ F,0,0,1,0,0,0,1 @ F,0,0,1,0,0,0,1 @ F,0,0,1,0,0,0,1 @ F,0,0,1,0,0,0,1 @ F,0,0,1,0,0,0,1 @ F,0,0,1,0,0,0,1 @ F,0,0,1,0,0,0,1 @ F,0,0,1,0,0,0,1 @ F,0,0,1,0,0,0,1 @ F,0,0,1,0,0,0,1 @ F,0,0,1,0,0,0,1 @ F,0,0,1,0,0,0,1 @ F,0,0,1,0,0,0,1 @ F,0,0,1,0,0,0,1 @ F,0,0,1,0,1.0198346,0,1 @ F,0,0,1,0,0,0,1 @ F,0,0,1,0,0,0,1 @ F,0,0,1,0,0,0,1 @ F,0,0,1,0,0,0,1 @ F,0,0,1,0,0,0,1 @ F,0,0,1,0,0,0,1 @ F,0,0,1,0,0,0,1 @ F,0,0,1,0,0,0,1"
       radius="0"
       unit="px"
       method="auto"
       mode="F"
       chamfer_steps="1"
       flexible="false"
       use_knot_distance="true"
       apply_no_radius="true"
       apply_with_radius="true"
       only_selected="false"
       hide_knots="false" />
    <filter
       inkscape:collect="always"
       style="color-interpolation-filters:sRGB"
       id="filter2"
       x="-0.26942044"
       y="-0.15144842"
       width="1.5388409"
       height="1.3028968">
      <feGaussianBlur
         inkscape:collect="always"
         stdDeviation="2.8375681"
         id="feGaussianBlur2" />
    </filter>
  </defs>
  <sodipodi:namedview
     id="namedview4"
     pagecolor="#505050"
     bordercolor="#eeeeee"
     borderopacity="1"
     inkscape:showpageshadow="0"
     inkscape:pageopacity="0"
     inkscape:pagecheckerboard="0"
     inkscape:deskcolor="#505050"
     inkscape:zoom="6.4799705"
     inkscape:cx="5.0154549"
     inkscape:cy="38.34894"
     inkscape:current-layer="svg4" />
  <path
     style="fill:url(#radialGradient7);stroke-width:0.93681;stroke-linecap:round;stroke-linejoin:round"
     d="M 29.87913,4.5521441 C 29.150532,4.5523512 28.430907,4.7128926 27.771307,5.0223788 27.06271,5.3545594 25.25114,6.3434856 24.13385,7.8968487 23.016558,9.4502118 22.464547,11.024396 21.738763,13.38597 c -1.451569,4.723149 -3.405422,12.982281 -7.404825,29.633937 -0.363048,1.512942 0.004,3.108582 0.991701,4.31079 0,0 1.32944,1.689519 3.617331,2.757369 2.287892,1.067849 6.326956,1.314726 9.547412,-0.850815 0.995271,-0.669141 1.71474,-1.675877 2.025486,-2.834215 0.740969,-2.762538 0.76626,-2.708717 1.463766,-5.229303 0.24741,4.957541 0.192461,9.863528 0.02379,13.047641 -0.244184,4.626538 5.42,7.037317 8.584987,3.653926 10.75846,-11.504274 10.71372,-25.297578 6.83944,-35.271265 C 45.49071,17.61719 42.727259,13.438225 39.856523,10.3267 38.421155,8.7709373 36.964781,7.4789018 35.424972,6.4678474 33.885163,5.456793 32.323669,4.5521441 29.87913,4.5521441 Z"
     id="path6"
     sodipodi:nodetypes="ccssccscccccsssc" />
  <path
     style="fill:none;stroke-width:0.20000001;stroke-linecap:round;stroke-linejoin:round;stroke:#000000;stroke-opacity:1;stroke-dasharray:none;filter:url(#filter10)"
     d="M 29.87916,4.5456107 C 29.150562,4.5458178 28.430937,4.7063592 27.771337,5.0158454 27.06274,5.348026 25.25117,6.3369522 24.13388,7.8903157 c -1.117292,1.553363 -1.669303,3.1275473 -2.395087,5.4891213 -1.451569,4.723149 -3.405422,12.982281 -7.404825,29.633937 -0.363048,1.512942 0.004,3.108582 0.991701,4.31079 0,0 1.32944,1.689519 3.617331,2.757369 2.287892,1.067849 6.326956,1.314726 9.547412,-0.850815 0.995271,-0.669141 1.71474,-1.675877 2.025486,-2.834215 0.740969,-2.762538 0.76626,-2.708717 1.463766,-5.229303 0.24741,4.957541 0.192461,9.863528 0.02379,13.047641 -0.244184,4.626538 5.42,7.037317 8.584987,3.653926 10.75846,-11.504274 10.71372,-25.297578 6.83944,-35.271265 C 45.49074,17.610657 42.727289,13.431692 39.856553,10.320167 38.421185,8.7644037 36.964811,7.4723687 35.425002,6.461314 33.885193,5.4502596 32.323699,4.5456107 29.87916,4.5456107 Z"
     id="path6-2"
     sodipodi:nodetypes="ccssccscccccsssc" />
  <path
     d="m 19.361456,44.178944 4.506969,-14.582428 a 0.43885835,0.43885835 28.15139 0 0 -0.759728,-0.406533 l 2.81043,-9.368101 0.09146,-0.09146 a 2.363654,2.363654 108.17037 0 0 0.665355,-2.027223 l -0.03821,-0.250893 1.155012,-4.188092 c 0,0 1.103732,-3.7472405 2.285841,-3.7472405 3.546329,0 6.145449,4.6840505 6.145449,4.6840505 0.13843,1.36314 -0.93681,1.87362 -0.93681,1.87362 l 0.217426,-0.07889 a 2.1398006,2.1398006 19.700466 0 1 2.570578,0.920424 l 1.92887,3.254206 a 3.8820601,3.8820601 83.889195 0 1 0.343346,3.207043 l -0.844574,2.533722 0.821774,-0.493064 c 0.839611,-0.503767 1.891999,-0.209266 2.273497,0.692175 0.831182,1.963998 2.05145,5.508474 2.040321,9.370518 -0.0081,2.785398 -0.675579,5.629771 -1.556672,8.272238 -2.364218,7.090492 -5.920946,10.73084 -5.920946,10.73084 0,0 2.222607,-6.569046 1.87362,-7.49448 -0.348987,-0.925434 -2.81043,-1.87362 -2.81043,-1.87362 0,0 2.674649,0.723942 2.981815,0.110213 0.307166,-0.613729 -2.981815,-2.920644 -2.981815,-2.920644 0,0 3.029517,0.352003 3.311429,-0.915804 0.281912,-1.267807 -3.311429,-2.831436 -3.311429,-2.831436 0,0 2.670172,0.110535 2.81043,-0.93681 0.140258,-1.047345 -2.81043,-1.87362 -2.81043,-1.87362 0,0 1.64487,-1.32137 1.87362,-1.87362 0.22875,-0.55225 0.441616,-0.495194 0,-0.93681 -0.441616,-0.441616 -2.81043,0 -2.81043,0 0,0 4.696312,-2.307936 3.74724,-3.74724 -0.949072,-1.439304 -4.68405,1.87362 -4.68405,1.87362 0,0 2.360274,-1.901108 1.87362,-2.81043 -0.486654,-0.909322 -2.81043,0 -2.81043,0 0,0 3.758052,-2.611788 2.81043,-3.747241 -0.947622,-1.135453 -3.74724,1.87362 -3.74724,1.87362 0,0 1.696375,-2.844549 1.405215,-3.74724 -0.29116,-0.902691 -0.625915,-1.134086 -1.405215,-0.93681 -0.715799,0.181201 -5.205156,17.998634 -6.311503,22.430715 -0.136392,0.546397 -0.569029,1.312399 -0.967299,1.710669 l -0.215678,0.215678 c 0,0 0.777694,-1.623482 0,-1.87362 -0.777694,-0.250138 -2.810431,3.74724 -2.810431,3.74724 0,0 1.286017,-2.559774 0.936811,-2.81043 -0.349206,-0.250656 -1.762801,1.432769 -1.762801,1.432769 0,0 1.402251,-1.862853 0.82599,-2.369579 -0.576261,-0.506726 -1.87362,0.93681 -1.87362,0.93681 0,0 1.732474,-2.318684 0.93681,-2.810431 -0.795664,-0.491747 -1.87362,1.873621 -1.87362,1.873621 z"
     style="fill:url(#radialGradient9);stroke-width:0.93681"
     id="path4"
     sodipodi:nodetypes="cccccccscccccccsczczczczczzczczczczscczczczczc"
     inkscape:path-effect="#path-effect10"
     inkscape:original-d="m 19.361456,44.178944 5.1751,-16.744185 -1.427859,1.755224 2.81043,-9.368101 0.93681,-0.93681 -0.218202,-1.432768 1.155012,-4.188092 c 0,0 1.103732,-3.7472405 2.285841,-3.7472405 3.546329,0 6.145449,4.6840505 6.145449,4.6840505 0.13843,1.36314 -0.93681,1.87362 -0.93681,1.87362 l 1.884017,-0.683586 3.736844,6.304446 -1.405215,4.215645 2.342025,-1.405215 c 0,0 2.81043,5.122853 2.793567,10.974844 -0.0081,2.785398 -0.675579,5.629771 -1.556672,8.272238 -2.364218,7.090492 -5.920946,10.73084 -5.920946,10.73084 0,0 2.222607,-6.569046 1.87362,-7.49448 -0.348987,-0.925434 -2.81043,-1.87362 -2.81043,-1.87362 0,0 2.674649,0.723942 2.981815,0.110213 0.307166,-0.613729 -2.981815,-2.920644 -2.981815,-2.920644 0,0 3.029517,0.352003 3.311429,-0.915804 0.281912,-1.267807 -3.311429,-2.831436 -3.311429,-2.831436 0,0 2.670172,0.110535 2.81043,-0.93681 0.140258,-1.047345 -2.81043,-1.87362 -2.81043,-1.87362 0,0 1.64487,-1.32137 1.87362,-1.87362 0.22875,-0.55225 0.441616,-0.495194 0,-0.93681 -0.441616,-0.441616 -2.81043,0 -2.81043,0 0,0 4.696312,-2.307936 3.74724,-3.74724 -0.949072,-1.439304 -4.68405,1.87362 -4.68405,1.87362 0,0 2.360274,-1.901108 1.87362,-2.81043 -0.486654,-0.909322 -2.81043,0 -2.81043,0 0,0 3.758052,-2.611788 2.81043,-3.747241 -0.947622,-1.135453 -3.74724,1.87362 -3.74724,1.87362 0,0 1.696375,-2.844549 1.405215,-3.74724 -0.29116,-0.902691 -0.625915,-1.134086 -1.405215,-0.93681 -0.817546,0.206958 -6.55767,23.420252 -6.55767,23.420252 l -0.93681,0.93681 c 0,0 0.777694,-1.623482 0,-1.87362 -0.777694,-0.250138 -2.810431,3.74724 -2.810431,3.74724 0,0 1.286017,-2.559774 0.936811,-2.81043 -0.349206,-0.250656 -1.762801,1.432769 -1.762801,1.432769 0,0 1.402251,-1.862853 0.82599,-2.369579 -0.576261,-0.506726 -1.87362,0.93681 -1.87362,0.93681 0,0 1.732474,-2.318684 0.93681,-2.810431 -0.795664,-0.491747 -1.87362,1.873621 -1.87362,1.873621 z"
     transform="translate(1.7085124e-6,-4.1275e-4)" />
  <path
     d="m 19.361456,44.178944 4.506969,-14.582428 a 0.43885835,0.43885835 28.15139 0 0 -0.759728,-0.406533 l 2.81043,-9.368101 0.09146,-0.09146 a 2.363654,2.363654 108.17037 0 0 0.665355,-2.027223 l -0.03821,-0.250893 1.155012,-4.188092 c 0,0 1.103732,-3.7472405 2.285841,-3.7472405 3.546329,0 6.145449,4.6840505 6.145449,4.6840505 0.13843,1.36314 -0.93681,1.87362 -0.93681,1.87362 l 0.217426,-0.07889 a 2.1398006,2.1398006 19.700466 0 1 2.570578,0.920424 l 1.92887,3.254206 a 3.8820601,3.8820601 83.889195 0 1 0.343346,3.207043 l -0.844574,2.533722 0.821774,-0.493064 c 0.839611,-0.503767 1.891999,-0.209266 2.273497,0.692175 0.831182,1.963998 2.05145,5.508474 2.040321,9.370518 -0.0081,2.785398 -0.675579,5.629771 -1.556672,8.272238 -2.364218,7.090492 -5.920946,10.73084 -5.920946,10.73084 0,0 2.222607,-6.569046 1.87362,-7.49448 -0.348987,-0.925434 -2.81043,-1.87362 -2.81043,-1.87362 0,0 2.674649,0.723942 2.981815,0.110213 0.307166,-0.613729 -2.981815,-2.920644 -2.981815,-2.920644 0,0 3.029517,0.352003 3.311429,-0.915804 0.281912,-1.267807 -3.311429,-2.831436 -3.311429,-2.831436 0,0 2.670172,0.110535 2.81043,-0.93681 0.140258,-1.047345 -2.81043,-1.87362 -2.81043,-1.87362 0,0 1.64487,-1.32137 1.87362,-1.87362 0.22875,-0.55225 0.441616,-0.495194 0,-0.93681 -0.441616,-0.441616 -2.81043,0 -2.81043,0 0,0 4.696312,-2.307936 3.74724,-3.74724 -0.949072,-1.439304 -4.68405,1.87362 -4.68405,1.87362 0,0 2.360274,-1.901108 1.87362,-2.81043 -0.486654,-0.909322 -2.81043,0 -2.81043,0 0,0 3.758052,-2.611788 2.81043,-3.747241 -0.947622,-1.135453 -3.74724,1.87362 -3.74724,1.87362 0,0 1.696375,-2.844549 1.405215,-3.74724 -0.29116,-0.902691 -0.625915,-1.134086 -1.405215,-0.93681 -0.715799,0.181201 -5.205156,17.998634 -6.311503,22.430715 -0.136392,0.546397 -0.569029,1.312399 -0.967299,1.710669 l -0.215678,0.215678 c 0,0 0.777694,-1.623482 0,-1.87362 -0.777694,-0.250138 -2.810431,3.74724 -2.810431,3.74724 0,0 1.286017,-2.559774 0.936811,-2.81043 -0.349206,-0.250656 -1.762801,1.432769 -1.762801,1.432769 0,0 1.402251,-1.862853 0.82599,-2.369579 -0.576261,-0.506726 -1.87362,0.93681 -1.87362,0.93681 0,0 1.732474,-2.318684 0.93681,-2.810431 -0.795664,-0.491747 -1.87362,1.873621 -1.87362,1.873621 z"
     style="fill:#00fffa;stroke-width:0.93681;fill-opacity:1;filter:url(#filter2);opacity:0.53173484"
     id="path4-3"
     sodipodi:nodetypes="cccccccscccccccsczczczczczzczczczczscczczczczc"
     inkscape:path-effect="#path-effect10-5"
     inkscape:original-d="m 19.361456,44.178944 5.1751,-16.744185 -1.427859,1.755224 2.81043,-9.368101 0.93681,-0.93681 -0.218202,-1.432768 1.155012,-4.188092 c 0,0 1.103732,-3.7472405 2.285841,-3.7472405 3.546329,0 6.145449,4.6840505 6.145449,4.6840505 0.13843,1.36314 -0.93681,1.87362 -0.93681,1.87362 l 1.884017,-0.683586 3.736844,6.304446 -1.405215,4.215645 2.342025,-1.405215 c 0,0 2.81043,5.122853 2.793567,10.974844 -0.0081,2.785398 -0.675579,5.629771 -1.556672,8.272238 -2.364218,7.090492 -5.920946,10.73084 -5.920946,10.73084 0,0 2.222607,-6.569046 1.87362,-7.49448 -0.348987,-0.925434 -2.81043,-1.87362 -2.81043,-1.87362 0,0 2.674649,0.723942 2.981815,0.110213 0.307166,-0.613729 -2.981815,-2.920644 -2.981815,-2.920644 0,0 3.029517,0.352003 3.311429,-0.915804 0.281912,-1.267807 -3.311429,-2.831436 -3.311429,-2.831436 0,0 2.670172,0.110535 2.81043,-0.93681 0.140258,-1.047345 -2.81043,-1.87362 -2.81043,-1.87362 0,0 1.64487,-1.32137 1.87362,-1.87362 0.22875,-0.55225 0.441616,-0.495194 0,-0.93681 -0.441616,-0.441616 -2.81043,0 -2.81043,0 0,0 4.696312,-2.307936 3.74724,-3.74724 -0.949072,-1.439304 -4.68405,1.87362 -4.68405,1.87362 0,0 2.360274,-1.901108 1.87362,-2.81043 -0.486654,-0.909322 -2.81043,0 -2.81043,0 0,0 3.758052,-2.611788 2.81043,-3.747241 -0.947622,-1.135453 -3.74724,1.87362 -3.74724,1.87362 0,0 1.696375,-2.844549 1.405215,-3.74724 -0.29116,-0.902691 -0.625915,-1.134086 -1.405215,-0.93681 -0.817546,0.206958 -6.55767,23.420252 -6.55767,23.420252 l -0.93681,0.93681 c 0,0 0.777694,-1.623482 0,-1.87362 -0.777694,-0.250138 -2.810431,3.74724 -2.810431,3.74724 0,0 1.286017,-2.559774 0.936811,-2.81043 -0.349206,-0.250656 -1.762801,1.432769 -1.762801,1.432769 0,0 1.402251,-1.862853 0.82599,-2.369579 -0.576261,-0.506726 -1.87362,0.93681 -1.87362,0.93681 0,0 1.732474,-2.318684 0.93681,-2.810431 -0.795664,-0.491747 -1.87362,1.873621 -1.87362,1.873621 z"
     transform="translate(1.7085124e-6,-4.1275e-4)" />
  <path
     d="m 19.361456,44.178944 4.506969,-14.582428 a 0.43885835,0.43885835 28.15139 0 0 -0.759728,-0.406533 l 2.81043,-9.368101 0.09146,-0.09146 a 2.363654,2.363654 108.17037 0 0 0.665355,-2.027223 l -0.03821,-0.250893 1.155012,-4.188092 c 0,0 1.103732,-3.7472405 2.285841,-3.7472405 3.546329,0 6.145449,4.6840505 6.145449,4.6840505 0.13843,1.36314 -0.93681,1.87362 -0.93681,1.87362 l 0.217426,-0.07889 a 2.1398006,2.1398006 19.700466 0 1 2.570578,0.920424 l 1.92887,3.254206 a 3.8820601,3.8820601 83.889195 0 1 0.343346,3.207043 l -0.844574,2.533722 0.821774,-0.493064 c 0.839611,-0.503767 1.891999,-0.209266 2.273497,0.692175 0.831182,1.963998 2.05145,5.508474 2.040321,9.370518 -0.0081,2.785398 -0.675579,5.629771 -1.556672,8.272238 -2.364218,7.090492 -5.920946,10.73084 -5.920946,10.73084 0,0 2.222607,-6.569046 1.87362,-7.49448 -0.348987,-0.925434 -2.81043,-1.87362 -2.81043,-1.87362 0,0 2.674649,0.723942 2.981815,0.110213 0.307166,-0.613729 -2.981815,-2.920644 -2.981815,-2.920644 0,0 3.029517,0.352003 3.311429,-0.915804 0.281912,-1.267807 -3.311429,-2.831436 -3.311429,-2.831436 0,0 2.670172,0.110535 2.81043,-0.93681 0.140258,-1.047345 -2.81043,-1.87362 -2.81043,-1.87362 0,0 1.64487,-1.32137 1.87362,-1.87362 0.22875,-0.55225 0.441616,-0.495194 0,-0.93681 -0.441616,-0.441616 -2.81043,0 -2.81043,0 0,0 4.696312,-2.307936 3.74724,-3.74724 -0.949072,-1.439304 -4.68405,1.87362 -4.68405,1.87362 0,0 2.360274,-1.901108 1.87362,-2.81043 -0.486654,-0.909322 -2.81043,0 -2.81043,0 0,0 3.758052,-2.611788 2.81043,-3.747241 -0.947622,-1.135453 -3.74724,1.87362 -3.74724,1.87362 0,0 1.696375,-2.844549 1.405215,-3.74724 -0.29116,-0.902691 -0.625915,-1.134086 -1.405215,-0.93681 -0.715799,0.181201 -5.205156,17.998634 -6.311503,22.430715 -0.136392,0.546397 -0.569029,1.312399 -0.967299,1.710669 l -0.215678,0.215678 c 0,0 0.777694,-1.623482 0,-1.87362 -0.777694,-0.250138 -2.810431,3.74724 -2.810431,3.74724 0,0 1.286017,-2.559774 0.936811,-2.81043 -0.349206,-0.250656 -1.762801,1.432769 -1.762801,1.432769 0,0 1.402251,-1.862853 0.82599,-2.369579 -0.576261,-0.506726 -1.87362,0.93681 -1.87362,0.93681 0,0 1.732474,-2.318684 0.93681,-2.810431 -0.795664,-0.491747 -1.87362,1.873621 -1.87362,1.873621 z"
     style="fill:none;stroke-width:0.2;stroke:#00ffee;stroke-opacity:1;stroke-dasharray:none;stroke-linecap:square;stroke-linejoin:round;filter:url(#filter11)"
     id="path4-9"
     sodipodi:nodetypes="cccccccscccccccsczczczczczzczczczczscczczczczc"
     inkscape:path-effect="#path-effect10-0"
     inkscape:original-d="m 19.361456,44.178944 5.1751,-16.744185 -1.427859,1.755224 2.81043,-9.368101 0.93681,-0.93681 -0.218202,-1.432768 1.155012,-4.188092 c 0,0 1.103732,-3.7472405 2.285841,-3.7472405 3.546329,0 6.145449,4.6840505 6.145449,4.6840505 0.13843,1.36314 -0.93681,1.87362 -0.93681,1.87362 l 1.884017,-0.683586 3.736844,6.304446 -1.405215,4.215645 2.342025,-1.405215 c 0,0 2.81043,5.122853 2.793567,10.974844 -0.0081,2.785398 -0.675579,5.629771 -1.556672,8.272238 -2.364218,7.090492 -5.920946,10.73084 -5.920946,10.73084 0,0 2.222607,-6.569046 1.87362,-7.49448 -0.348987,-0.925434 -2.81043,-1.87362 -2.81043,-1.87362 0,0 2.674649,0.723942 2.981815,0.110213 0.307166,-0.613729 -2.981815,-2.920644 -2.981815,-2.920644 0,0 3.029517,0.352003 3.311429,-0.915804 0.281912,-1.267807 -3.311429,-2.831436 -3.311429,-2.831436 0,0 2.670172,0.110535 2.81043,-0.93681 0.140258,-1.047345 -2.81043,-1.87362 -2.81043,-1.87362 0,0 1.64487,-1.32137 1.87362,-1.87362 0.22875,-0.55225 0.441616,-0.495194 0,-0.93681 -0.441616,-0.441616 -2.81043,0 -2.81043,0 0,0 4.696312,-2.307936 3.74724,-3.74724 -0.949072,-1.439304 -4.68405,1.87362 -4.68405,1.87362 0,0 2.360274,-1.901108 1.87362,-2.81043 -0.486654,-0.909322 -2.81043,0 -2.81043,0 0,0 3.758052,-2.611788 2.81043,-3.747241 -0.947622,-1.135453 -3.74724,1.87362 -3.74724,1.87362 0,0 1.696375,-2.844549 1.405215,-3.74724 -0.29116,-0.902691 -0.625915,-1.134086 -1.405215,-0.93681 -0.817546,0.206958 -6.55767,23.420252 -6.55767,23.420252 l -0.93681,0.93681 c 0,0 0.777694,-1.623482 0,-1.87362 -0.777694,-0.250138 -2.810431,3.74724 -2.810431,3.74724 0,0 1.286017,-2.559774 0.936811,-2.81043 -0.349206,-0.250656 -1.762801,1.432769 -1.762801,1.432769 0,0 1.402251,-1.862853 0.82599,-2.369579 -0.576261,-0.506726 -1.87362,0.93681 -1.87362,0.93681 0,0 1.732474,-2.318684 0.93681,-2.810431 -0.795664,-0.491747 -1.87362,1.873621 -1.87362,1.873621 z"
     transform="translate(1.7085124e-6,-4.1275e-4)" />
</svg>
