<?xml version="1.0" encoding="UTF-8" standalone="no"?>
<svg
   width="64"
   height="64"
   version="1.1"
   id="svg4"
   sodipodi:docname="alien-swarm-reactive-drop.svg"
   inkscape:version="1.4 (e7c3feb100, 2024-10-09)"
   xmlns:inkscape="http://www.inkscape.org/namespaces/inkscape"
   xmlns:sodipodi="http://sodipodi.sourceforge.net/DTD/sodipodi-0.dtd"
   xmlns:xlink="http://www.w3.org/1999/xlink"
   xmlns="http://www.w3.org/2000/svg"
   xmlns:svg="http://www.w3.org/2000/svg">
  <defs
     id="defs4">
    <inkscape:path-effect
       effect="fillet_chamfer"
       id="path-effect10-0"
       is_visible="true"
       lpeversion="1"
       nodesatellites_param="F,0,0,1,0,0,0,1 @ F,0,0,1,0,2.2626517,0,1 @ F,0,0,1,0,0,0,1 @ F,0,0,1,0,0,0,1 @ F,0,0,1,0,1.1955024,0,1 @ F,0,0,1,0,0,0,1 @ F,0,0,1,0,0,0,1 @ F,0,0,1,0,0,0,1 @ F,0,0,1,0,0,0,1 @ F,0,0,1,0,0,0,1 @ F,0,0,1,0,1.772902,0,1 @ F,0,0,1,0,1.772902,0,1 @ F,0,0,1,0,0,0,1 @ F,0,0,1,0,1.772902,0,1 @ F,0,0,1,0,0,0,1 @ F,0,0,1,0,0,0,1 @ F,0,0,1,0,0,0,1 @ F,0,0,1,0,0,0,1 @ F,0,0,1,0,0,0,1 @ F,0,0,1,0,0,0,1 @ F,0,0,1,0,0,0,1 @ F,0,0,1,0,0,0,1 @ F,0,0,1,0,0,0,1 @ F,0,0,1,0,0,0,1 @ F,0,0,1,0,0,0,1 @ F,0,0,1,0,0,0,1 @ F,0,0,1,0,0,0,1 @ F,0,0,1,0,0,0,1 @ F,0,0,1,0,0,0,1 @ F,0,0,1,0,0,0,1 @ F,0,0,1,0,0,0,1 @ F,0,0,1,0,0,0,1 @ F,0,0,1,0,0,0,1 @ F,0,0,1,0,0,0,1 @ F,0,0,1,0,0,0,1 @ F,0,0,1,0,0,0,1 @ F,0,0,1,0,1.0198346,0,1 @ F,0,0,1,0,0,0,1 @ F,0,0,1,0,0,0,1 @ F,0,0,1,0,0,0,1 @ F,0,0,1,0,0,0,1 @ F,0,0,1,0,0,0,1 @ F,0,0,1,0,0,0,1 @ F,0,0,1,0,0,0,1 @ F,0,0,1,0,0,0,1"
       radius="0"
       unit="px"
       method="auto"
       mode="F"
       chamfer_steps="1"
       flexible="false"
       use_knot_distance="true"
       apply_no_radius="true"
       apply_with_radius="true"
       only_selected="false"
       hide_knots="false" />
    <inkscape:path-effect
       effect="fillet_chamfer"
       id="path-effect10-5"
       is_visible="true"
       lpeversion="1"
       nodesatellites_param="F,0,0,1,0,0,0,1 @ F,0,0,1,0,2.2626517,0,1 @ F,0,0,1,0,0,0,1 @ F,0,0,1,0,0,0,1 @ F,0,0,1,0,1.1955024,0,1 @ F,0,0,1,0,0,0,1 @ F,0,0,1,0,0,0,1 @ F,0,0,1,0,0,0,1 @ F,0,0,1,0,0,0,1 @ F,0,0,1,0,0,0,1 @ F,0,0,1,0,1.772902,0,1 @ F,0,0,1,0,1.772902,0,1 @ F,0,0,1,0,0,0,1 @ F,0,0,1,0,1.772902,0,1 @ F,0,0,1,0,0,0,1 @ F,0,0,1,0,0,0,1 @ F,0,0,1,0,0,0,1 @ F,0,0,1,0,0,0,1 @ F,0,0,1,0,0,0,1 @ F,0,0,1,0,0,0,1 @ F,0,0,1,0,0,0,1 @ F,0,0,1,0,0,0,1 @ F,0,0,1,0,0,0,1 @ F,0,0,1,0,0,0,1 @ F,0,0,1,0,0,0,1 @ F,0,0,1,0,0,0,1 @ F,0,0,1,0,0,0,1 @ F,0,0,1,0,0,0,1 @ F,0,0,1,0,0,0,1 @ F,0,0,1,0,0,0,1 @ F,0,0,1,0,0,0,1 @ F,0,0,1,0,0,0,1 @ F,0,0,1,0,0,0,1 @ F,0,0,1,0,0,0,1 @ F,0,0,1,0,0,0,1 @ F,0,0,1,0,0,0,1 @ F,0,0,1,0,1.0198346,0,1 @ F,0,0,1,0,0,0,1 @ F,0,0,1,0,0,0,1 @ F,0,0,1,0,0,0,1 @ F,0,0,1,0,0,0,1 @ F,0,0,1,0,0,0,1 @ F,0,0,1,0,0,0,1 @ F,0,0,1,0,0,0,1 @ F,0,0,1,0,0,0,1"
       radius="0"
       unit="px"
       method="auto"
       mode="F"
       chamfer_steps="1"
       flexible="false"
       use_knot_distance="true"
       apply_no_radius="true"
       apply_with_radius="true"
       only_selected="false"
       hide_knots="false" />
    <radialGradient
       inkscape:collect="always"
       xlink:href="#linearGradient2"
       id="radialGradient9"
       cx="26.469524"
       cy="35.117741"
       fx="26.469524"
       fy="35.117741"
       r="13.49104"
       gradientTransform="matrix(2.4027141,0,0,3.2906398,-46.554279,-65.614315)"
       gradientUnits="userSpaceOnUse" />
    <linearGradient
       id="linearGradient2"
       inkscape:collect="always">
      <stop
         style="stop-color:#ffaf8f;stop-opacity:1;"
         offset="0"
         id="stop1" />
      <stop
         style="stop-color:#ffa1aa;stop-opacity:1;"
         offset="1"
         id="stop2" />
    </linearGradient>
    <inkscape:path-effect
       effect="fillet_chamfer"
       id="path-effect10"
       is_visible="true"
       lpeversion="1"
       nodesatellites_param="F,0,0,1,0,0,0,1 @ F,0,0,1,0,2.2626517,0,1 @ F,0,0,1,0,0,0,1 @ F,0,0,1,0,0,0,1 @ F,0,0,1,0,1.1955024,0,1 @ F,0,0,1,0,0,0,1 @ F,0,0,1,0,0,0,1 @ F,0,0,1,0,0,0,1 @ F,0,0,1,0,0,0,1 @ F,0,0,1,0,0,0,1 @ F,0,0,1,0,1.772902,0,1 @ F,0,0,1,0,1.772902,0,1 @ F,0,0,1,0,0,0,1 @ F,0,0,1,0,1.772902,0,1 @ F,0,0,1,0,0,0,1 @ F,0,0,1,0,0,0,1 @ F,0,0,1,0,0,0,1 @ F,0,0,1,0,0,0,1 @ F,0,0,1,0,0,0,1 @ F,0,0,1,0,0,0,1 @ F,0,0,1,0,0,0,1 @ F,0,0,1,0,0,0,1 @ F,0,0,1,0,0,0,1 @ F,0,0,1,0,0,0,1 @ F,0,0,1,0,0,0,1 @ F,0,0,1,0,0,0,1 @ F,0,0,1,0,0,0,1 @ F,0,0,1,0,0,0,1 @ F,0,0,1,0,0,0,1 @ F,0,0,1,0,0,0,1 @ F,0,0,1,0,0,0,1 @ F,0,0,1,0,0,0,1 @ F,0,0,1,0,0,0,1 @ F,0,0,1,0,0,0,1 @ F,0,0,1,0,0,0,1 @ F,0,0,1,0,0,0,1 @ F,0,0,1,0,1.0198346,0,1 @ F,0,0,1,0,0,0,1 @ F,0,0,1,0,0,0,1 @ F,0,0,1,0,0,0,1 @ F,0,0,1,0,0,0,1 @ F,0,0,1,0,0,0,1 @ F,0,0,1,0,0,0,1 @ F,0,0,1,0,0,0,1 @ F,0,0,1,0,0,0,1"
       radius="0"
       unit="px"
       method="auto"
       mode="F"
       chamfer_steps="1"
       flexible="false"
       use_knot_distance="true"
       apply_no_radius="true"
       apply_with_radius="true"
       only_selected="false"
       hide_knots="false" />
    <filter
       inkscape:collect="always"
       style="color-interpolation-filters:sRGB"
       id="filter10"
       x="-0.12417844"
       y="-0.080525422"
       width="1.2483276"
       height="1.1610345">
      <feGaussianBlur
         inkscape:collect="always"
         stdDeviation="1.8006469"
         id="feGaussianBlur10" />
    </filter>
    <radialGradient
       inkscape:collect="always"
       xlink:href="#linearGradient6"
       id="radialGradient7"
       cx="10.626446"
       cy="52.319099"
       fx="10.626446"
       fy="52.319099"
       r="19.003992"
       gradientTransform="matrix(2.9845968,-1.7231577,2.6567065,4.6015506,-158.73459,-161.08935)"
       gradientUnits="userSpaceOnUse" />
    <linearGradient
       id="linearGradient6"
       inkscape:collect="always">
      <stop
         style="stop-color:#6f3324;stop-opacity:1;"
         offset="0"
         id="stop6" />
      <stop
         style="stop-color:#66453b;stop-opacity:1;"
         offset="1"
         id="stop7" />
    </linearGradient>
    <filter
       inkscape:collect="always"
       style="color-interpolation-filters:sRGB"
       id="filter4"
       x="-0.1118482"
       y="-0.062873424"
       width="1.2236974"
       height="1.1257465">
      <feGaussianBlur
         inkscape:collect="always"
         stdDeviation="1.1571758"
         id="feGaussianBlur4" />
    </filter>
  </defs>
  <sodipodi:namedview
     id="namedview4"
     pagecolor="#505050"
     bordercolor="#eeeeee"
     borderopacity="1"
     inkscape:showpageshadow="0"
     inkscape:pageopacity="0"
     inkscape:pagecheckerboard="0"
     inkscape:deskcolor="#505050"
     inkscape:zoom="18.328125"
     inkscape:cx="29.271952"
     inkscape:cy="34.400682"
     inkscape:current-layer="svg4" />
  <path
     style="fill:url(#radialGradient7);stroke-width:0.93681;stroke-linecap:round;stroke-linejoin:round"
     d="m 29.879651,4.5525936 c -0.728598,2.071e-4 -1.448223,0.1607485 -2.107823,0.4702347 -0.708597,0.3321806 -2.520167,1.3211068 -3.637457,2.8744699 -1.117292,1.5533631 -1.669303,3.1275468 -2.395087,5.4891208 -1.451569,4.723149 -3.405422,12.982281 -7.404825,29.633937 -0.363048,1.512942 0.004,3.108582 0.991701,4.31079 0,0 1.32944,1.689519 3.617331,2.757369 2.287892,1.067849 6.326956,1.314726 9.547412,-0.850815 0.995271,-0.669141 1.71474,-1.675877 2.025486,-2.834215 0.740969,-2.762538 0.76626,-2.708717 1.463766,-5.229303 0.24741,4.957541 0.192461,9.863528 0.02379,13.047641 -0.244184,4.626538 5.42,7.037317 8.584987,3.653926 10.75846,-11.504274 10.71372,-25.297578 6.83944,-35.271265 C 45.491231,17.617639 42.72778,13.438674 39.857044,10.327149 38.421676,8.7713868 36.965302,7.4793513 35.425493,6.4682969 33.885684,5.4572425 32.32419,4.5525936 29.879651,4.5525936 Z"
     id="path6"
     sodipodi:nodetypes="ccssccscccccsssc" />
  <path
     style="fill:none;stroke:#000000;stroke-width:0.2;stroke-linecap:round;stroke-linejoin:round;stroke-dasharray:none;stroke-opacity:1;filter:url(#filter10)"
     d="m 29.879681,4.5460602 c -0.728598,2.071e-4 -1.448223,0.1607485 -2.107823,0.4702347 -0.708597,0.3321806 -2.520167,1.3211068 -3.637457,2.8744703 -1.117292,1.553363 -1.669303,3.1275468 -2.395087,5.4891208 -1.451569,4.723149 -3.405422,12.982281 -7.404825,29.633937 -0.363048,1.512942 0.004,3.108582 0.991701,4.31079 0,0 1.32944,1.689519 3.617331,2.757369 2.287892,1.067849 6.326956,1.314726 9.547412,-0.850815 0.995271,-0.669141 1.71474,-1.675877 2.025486,-2.834215 0.740969,-2.762538 0.76626,-2.708717 1.463766,-5.229303 0.24741,4.957541 0.192461,9.863528 0.02379,13.047641 -0.244184,4.626538 5.42,7.037317 8.584987,3.653926 10.75846,-11.504274 10.71372,-25.297578 6.83944,-35.271265 C 45.491261,17.611106 42.72781,13.432141 39.857074,10.320616 38.421706,8.7648532 36.965332,7.4728182 35.425523,6.4617635 33.885714,5.4507091 32.32422,4.5460602 29.879681,4.5460602 Z"
     id="path6-2"
     sodipodi:nodetypes="ccssccscccccsssc" />
  <path
     d="m 19.361456,44.178944 4.506969,-14.582428 a 0.43885835,0.43885835 28.15139 0 0 -0.759728,-0.406533 l 2.81043,-9.368101 0.09146,-0.09146 a 2.363654,2.363654 108.17037 0 0 0.665355,-2.027223 l -0.03821,-0.250893 1.155012,-4.188092 c 0,0 1.103732,-3.7472405 2.285841,-3.7472405 3.546329,0 6.145449,4.6840505 6.145449,4.6840505 0.13843,1.36314 -0.93681,1.87362 -0.93681,1.87362 l 0.217426,-0.07889 a 2.1398006,2.1398006 19.700466 0 1 2.570578,0.920424 l 1.92887,3.254206 a 3.8820601,3.8820601 83.889195 0 1 0.343346,3.207043 l -0.844574,2.533722 0.821774,-0.493064 c 0.839611,-0.503767 1.891999,-0.209266 2.273497,0.692175 0.831182,1.963998 2.05145,5.508474 2.040321,9.370518 -0.0081,2.785398 -0.675579,5.629771 -1.556672,8.272238 -2.364218,7.090492 -5.920946,10.73084 -5.920946,10.73084 0,0 2.222607,-6.569046 1.87362,-7.49448 -0.348987,-0.925434 -2.81043,-1.87362 -2.81043,-1.87362 0,0 2.674649,0.723942 2.981815,0.110213 0.307166,-0.613729 -2.981815,-2.920644 -2.981815,-2.920644 0,0 3.029517,0.352003 3.311429,-0.915804 0.281912,-1.267807 -3.311429,-2.831436 -3.311429,-2.831436 0,0 2.670172,0.110535 2.81043,-0.93681 0.140258,-1.047345 -2.81043,-1.87362 -2.81043,-1.87362 0,0 1.64487,-1.32137 1.87362,-1.87362 0.22875,-0.55225 0.441616,-0.495194 0,-0.93681 -0.441616,-0.441616 -2.81043,0 -2.81043,0 0,0 4.696312,-2.307936 3.74724,-3.74724 -0.949072,-1.439304 -4.68405,1.87362 -4.68405,1.87362 0,0 2.360274,-1.901108 1.87362,-2.81043 -0.486654,-0.909322 -2.81043,0 -2.81043,0 0,0 3.758052,-2.611788 2.81043,-3.747241 -0.947622,-1.135453 -3.74724,1.87362 -3.74724,1.87362 0,0 1.696375,-2.844549 1.405215,-3.74724 -0.29116,-0.902691 -0.625915,-1.134086 -1.405215,-0.93681 -0.715799,0.181201 -5.205156,17.998634 -6.311503,22.430715 -0.136392,0.546397 -0.569029,1.312399 -0.967299,1.710669 l -0.215678,0.215678 c 0,0 0.777694,-1.623482 0,-1.87362 -0.777694,-0.250138 -2.810431,3.74724 -2.810431,3.74724 0,0 1.286017,-2.559774 0.936811,-2.81043 -0.349206,-0.250656 -1.762801,1.432769 -1.762801,1.432769 0,0 1.402251,-1.862853 0.82599,-2.369579 -0.576261,-0.506726 -1.87362,0.93681 -1.87362,0.93681 0,0 1.732474,-2.318684 0.93681,-2.810431 -0.795664,-0.491747 -1.87362,1.873621 -1.87362,1.873621 z"
     style="fill:url(#radialGradient9);stroke-width:0.93681"
     id="path4"
     sodipodi:nodetypes="cccccccscccccccsczczczczczzczczczczscczczczczc"
     inkscape:path-effect="#path-effect10"
     inkscape:original-d="m 19.361456,44.178944 5.1751,-16.744185 -1.427859,1.755224 2.81043,-9.368101 0.93681,-0.93681 -0.218202,-1.432768 1.155012,-4.188092 c 0,0 1.103732,-3.7472405 2.285841,-3.7472405 3.546329,0 6.145449,4.6840505 6.145449,4.6840505 0.13843,1.36314 -0.93681,1.87362 -0.93681,1.87362 l 1.884017,-0.683586 3.736844,6.304446 -1.405215,4.215645 2.342025,-1.405215 c 0,0 2.81043,5.122853 2.793567,10.974844 -0.0081,2.785398 -0.675579,5.629771 -1.556672,8.272238 -2.364218,7.090492 -5.920946,10.73084 -5.920946,10.73084 0,0 2.222607,-6.569046 1.87362,-7.49448 -0.348987,-0.925434 -2.81043,-1.87362 -2.81043,-1.87362 0,0 2.674649,0.723942 2.981815,0.110213 0.307166,-0.613729 -2.981815,-2.920644 -2.981815,-2.920644 0,0 3.029517,0.352003 3.311429,-0.915804 0.281912,-1.267807 -3.311429,-2.831436 -3.311429,-2.831436 0,0 2.670172,0.110535 2.81043,-0.93681 0.140258,-1.047345 -2.81043,-1.87362 -2.81043,-1.87362 0,0 1.64487,-1.32137 1.87362,-1.87362 0.22875,-0.55225 0.441616,-0.495194 0,-0.93681 -0.441616,-0.441616 -2.81043,0 -2.81043,0 0,0 4.696312,-2.307936 3.74724,-3.74724 -0.949072,-1.439304 -4.68405,1.87362 -4.68405,1.87362 0,0 2.360274,-1.901108 1.87362,-2.81043 -0.486654,-0.909322 -2.81043,0 -2.81043,0 0,0 3.758052,-2.611788 2.81043,-3.747241 -0.947622,-1.135453 -3.74724,1.87362 -3.74724,1.87362 0,0 1.696375,-2.844549 1.405215,-3.74724 -0.29116,-0.902691 -0.625915,-1.134086 -1.405215,-0.93681 -0.817546,0.206958 -6.55767,23.420252 -6.55767,23.420252 l -0.93681,0.93681 c 0,0 0.777694,-1.623482 0,-1.87362 -0.777694,-0.250138 -2.810431,3.74724 -2.810431,3.74724 0,0 1.286017,-2.559774 0.936811,-2.81043 -0.349206,-0.250656 -1.762801,1.432769 -1.762801,1.432769 0,0 1.402251,-1.862853 0.82599,-2.369579 -0.576261,-0.506726 -1.87362,0.93681 -1.87362,0.93681 0,0 1.732474,-2.318684 0.93681,-2.810431 -0.795664,-0.491747 -1.87362,1.873621 -1.87362,1.873621 z"
     transform="translate(5.2238905e-4,3.672593e-5)" />
  <path
     d="m 19.361456,44.178944 4.506969,-14.582428 a 0.43885835,0.43885835 28.15139 0 0 -0.759728,-0.406533 l 2.81043,-9.368101 0.09146,-0.09146 a 2.363654,2.363654 108.17037 0 0 0.665355,-2.027223 l -0.03821,-0.250893 1.155012,-4.188092 c 0,0 1.103732,-3.7472405 2.285841,-3.7472405 3.546329,0 6.145449,4.6840505 6.145449,4.6840505 0.13843,1.36314 -0.93681,1.87362 -0.93681,1.87362 l 0.217426,-0.07889 a 2.1398006,2.1398006 19.700466 0 1 2.570578,0.920424 l 1.92887,3.254206 a 3.8820601,3.8820601 83.889195 0 1 0.343346,3.207043 l -0.844574,2.533722 0.821774,-0.493064 c 0.839611,-0.503767 1.891999,-0.209266 2.273497,0.692175 0.831182,1.963998 2.05145,5.508474 2.040321,9.370518 -0.0081,2.785398 -0.675579,5.629771 -1.556672,8.272238 -2.364218,7.090492 -5.920946,10.73084 -5.920946,10.73084 0,0 2.222607,-6.569046 1.87362,-7.49448 -0.348987,-0.925434 -2.81043,-1.87362 -2.81043,-1.87362 0,0 2.674649,0.723942 2.981815,0.110213 0.307166,-0.613729 -2.981815,-2.920644 -2.981815,-2.920644 0,0 3.029517,0.352003 3.311429,-0.915804 0.281912,-1.267807 -3.311429,-2.831436 -3.311429,-2.831436 0,0 2.670172,0.110535 2.81043,-0.93681 0.140258,-1.047345 -2.81043,-1.87362 -2.81043,-1.87362 0,0 1.64487,-1.32137 1.87362,-1.87362 0.22875,-0.55225 0.441616,-0.495194 0,-0.93681 -0.441616,-0.441616 -2.81043,0 -2.81043,0 0,0 4.696312,-2.307936 3.74724,-3.74724 -0.949072,-1.439304 -4.68405,1.87362 -4.68405,1.87362 0,0 2.360274,-1.901108 1.87362,-2.81043 -0.486654,-0.909322 -2.81043,0 -2.81043,0 0,0 3.758052,-2.611788 2.81043,-3.747241 -0.947622,-1.135453 -3.74724,1.87362 -3.74724,1.87362 0,0 1.696375,-2.844549 1.405215,-3.74724 -0.29116,-0.902691 -0.625915,-1.134086 -1.405215,-0.93681 -0.715799,0.181201 -5.205156,17.998634 -6.311503,22.430715 -0.136392,0.546397 -0.569029,1.312399 -0.967299,1.710669 l -0.215678,0.215678 c 0,0 0.777694,-1.623482 0,-1.87362 -0.777694,-0.250138 -2.810431,3.74724 -2.810431,3.74724 0,0 1.286017,-2.559774 0.936811,-2.81043 -0.349206,-0.250656 -1.762801,1.432769 -1.762801,1.432769 0,0 1.402251,-1.862853 0.82599,-2.369579 -0.576261,-0.506726 -1.87362,0.93681 -1.87362,0.93681 0,0 1.732474,-2.318684 0.93681,-2.810431 -0.795664,-0.491747 -1.87362,1.873621 -1.87362,1.873621 z"
     style="fill:none;stroke:#ff0002;stroke-width:0.1;stroke-linecap:square;stroke-linejoin:round;stroke-dasharray:none;stroke-opacity:1;filter:url(#filter4)"
     id="path4-9"
     sodipodi:nodetypes="cccccccscccccccsczczczczczzczczczczscczczczczc"
     inkscape:path-effect="#path-effect10-0"
     inkscape:original-d="m 19.361456,44.178944 5.1751,-16.744185 -1.427859,1.755224 2.81043,-9.368101 0.93681,-0.93681 -0.218202,-1.432768 1.155012,-4.188092 c 0,0 1.103732,-3.7472405 2.285841,-3.7472405 3.546329,0 6.145449,4.6840505 6.145449,4.6840505 0.13843,1.36314 -0.93681,1.87362 -0.93681,1.87362 l 1.884017,-0.683586 3.736844,6.304446 -1.405215,4.215645 2.342025,-1.405215 c 0,0 2.81043,5.122853 2.793567,10.974844 -0.0081,2.785398 -0.675579,5.629771 -1.556672,8.272238 -2.364218,7.090492 -5.920946,10.73084 -5.920946,10.73084 0,0 2.222607,-6.569046 1.87362,-7.49448 -0.348987,-0.925434 -2.81043,-1.87362 -2.81043,-1.87362 0,0 2.674649,0.723942 2.981815,0.110213 0.307166,-0.613729 -2.981815,-2.920644 -2.981815,-2.920644 0,0 3.029517,0.352003 3.311429,-0.915804 0.281912,-1.267807 -3.311429,-2.831436 -3.311429,-2.831436 0,0 2.670172,0.110535 2.81043,-0.93681 0.140258,-1.047345 -2.81043,-1.87362 -2.81043,-1.87362 0,0 1.64487,-1.32137 1.87362,-1.87362 0.22875,-0.55225 0.441616,-0.495194 0,-0.93681 -0.441616,-0.441616 -2.81043,0 -2.81043,0 0,0 4.696312,-2.307936 3.74724,-3.74724 -0.949072,-1.439304 -4.68405,1.87362 -4.68405,1.87362 0,0 2.360274,-1.901108 1.87362,-2.81043 -0.486654,-0.909322 -2.81043,0 -2.81043,0 0,0 3.758052,-2.611788 2.81043,-3.747241 -0.947622,-1.135453 -3.74724,1.87362 -3.74724,1.87362 0,0 1.696375,-2.844549 1.405215,-3.74724 -0.29116,-0.902691 -0.625915,-1.134086 -1.405215,-0.93681 -0.817546,0.206958 -6.55767,23.420252 -6.55767,23.420252 l -0.93681,0.93681 c 0,0 0.777694,-1.623482 0,-1.87362 -0.777694,-0.250138 -2.810431,3.74724 -2.810431,3.74724 0,0 1.286017,-2.559774 0.936811,-2.81043 -0.349206,-0.250656 -1.762801,1.432769 -1.762801,1.432769 0,0 1.402251,-1.862853 0.82599,-2.369579 -0.576261,-0.506726 -1.87362,0.93681 -1.87362,0.93681 0,0 1.732474,-2.318684 0.93681,-2.810431 -0.795664,-0.491747 -1.87362,1.873621 -1.87362,1.873621 z"
     transform="translate(5.2238905e-4,3.672593e-5)" />
</svg>
