<?xml version="1.0" encoding="UTF-8" standalone="no"?>
<svg
   width="64"
   height="64"
   version="1"
   id="svg4"
   sodipodi:docname="anbox.svg"
   inkscape:version="1.4 (e7c3feb100, 2024-10-09)"
   xmlns:inkscape="http://www.inkscape.org/namespaces/inkscape"
   xmlns:sodipodi="http://sodipodi.sourceforge.net/DTD/sodipodi-0.dtd"
   xmlns:xlink="http://www.w3.org/1999/xlink"
   xmlns="http://www.w3.org/2000/svg"
   xmlns:svg="http://www.w3.org/2000/svg">
  <defs
     id="defs4">
    <inkscape:path-effect
       effect="fillet_chamfer"
       id="path-effect33-5-9-2"
       is_visible="true"
       lpeversion="1"
       nodesatellites_param="F,0,0,1,0,5.4161913,0,1 @ F,0,0,1,0,5.0201459,0,1 @ F,0,0,1,0,4.5562612,0,1 @ F,0,0,1,0,4.8044969,0,1 @ F,0,0,1,0,4.8694015,0,1 @ F,0,0,1,0,4.5176611,0,1"
       radius="0"
       unit="px"
       method="auto"
       mode="F"
       chamfer_steps="1"
       flexible="false"
       use_knot_distance="true"
       apply_no_radius="true"
       apply_with_radius="true"
       only_selected="false"
       hide_knots="false" />
    <radialGradient
       inkscape:collect="always"
       xlink:href="#linearGradient10"
       id="radialGradient33-3"
       cx="5.9532309"
       cy="34.176308"
       fx="5.9532309"
       fy="34.176308"
       r="22.291637"
       gradientTransform="matrix(1.5256731,1.5939044,-1.8523151,1.7730219,60.175837,-34.507623)"
       gradientUnits="userSpaceOnUse" />
    <inkscape:path-effect
       effect="fillet_chamfer"
       id="path-effect33-5-91"
       is_visible="true"
       lpeversion="1"
       nodesatellites_param="F,0,0,1,0,5.4161913,0,1 @ F,0,0,1,0,5.0201459,0,1 @ F,0,0,1,0,4.5562612,0,1 @ F,0,0,1,0,4.8044969,0,1 @ F,0,0,1,0,4.8694015,0,1 @ F,0,0,1,0,4.5176611,0,1"
       radius="0"
       unit="px"
       method="auto"
       mode="F"
       chamfer_steps="1"
       flexible="false"
       use_knot_distance="true"
       apply_no_radius="true"
       apply_with_radius="true"
       only_selected="false"
       hide_knots="false" />
    <linearGradient
       id="linearGradient10"
       inkscape:collect="always">
      <stop
         style="stop-color:#52e192;stop-opacity:1;"
         offset="0"
         id="stop9" />
      <stop
         style="stop-color:#2fa165;stop-opacity:1;"
         offset="1"
         id="stop10" />
    </linearGradient>
    <filter
       inkscape:collect="always"
       style="color-interpolation-filters:sRGB"
       id="filter17"
       x="-0.11242667"
       y="-0.19179405"
       width="1.2248531"
       height="1.3835881">
      <feGaussianBlur
         inkscape:collect="always"
         stdDeviation="2.6753398"
         id="feGaussianBlur17" />
    </filter>
  </defs>
  <sodipodi:namedview
     id="namedview4"
     pagecolor="#505050"
     bordercolor="#eeeeee"
     borderopacity="1"
     inkscape:showpageshadow="0"
     inkscape:pageopacity="0"
     inkscape:pagecheckerboard="0"
     inkscape:deskcolor="#505050"
     inkscape:zoom="12.926796"
     inkscape:cx="37.054812"
     inkscape:cy="31.252911"
     inkscape:current-layer="svg4" />
  <path
     sodipodi:type="star"
     style="fill:url(#radialGradient33-3);fill-opacity:1;stroke:#ffffff;stroke-width:0;stroke-dasharray:none"
     id="path13-3"
     inkscape:flatsided="true"
     sodipodi:sides="6"
     sodipodi:cx="26.006084"
     sodipodi:cy="25.124659"
     sodipodi:r1="25.740166"
     sodipodi:r2="22.291637"
     sodipodi:arg1="0.52359878"
     sodipodi:arg2="1.0471976"
     inkscape:rounded="0"
     inkscape:randomized="0"
     transform="matrix(1.1656015,0,0,1.1656015,1.687269,2.7382007)"
     d="m 43.607163,40.702837 -13.253505,7.651914 a 8.6951478,8.6951478 2.5219888e-7 0 1 -8.695148,0 L 7.6602849,40.272872 A 7.8916759,7.8916759 60 0 1 3.714447,33.43848 l 1e-7,-16.379407 A 8.3216327,8.3216327 120 0 1 7.8752635,9.8523272 L 21.789059,1.8191936 a 8.4340508,8.4340508 2.5219889e-7 0 1 8.434051,0 l 14.162203,8.1765517 a 7.8248186,7.8248186 60 0 1 3.912409,6.7764917 l 0,15.806313 a 9.3811185,9.3811185 120 0 1 -4.690559,8.124287 z"
     inkscape:path-effect="#path-effect33-5-91" />
  <path
     id="path13-3-1"
     style="opacity:0.269575;fill:#000000;fill-opacity:1;stroke:#ffffff;stroke-width:0;stroke-dasharray:none"
     d="M 25.124516 0.73609542 A 8.4340508 8.4340508 0 0 0 21.788528 1.8199903 L 7.8761347 9.8528561 A 8.3216327 8.3216327 0 0 0 3.7139781 17.059553 L 3.7139781 33.43841 A 7.8916759 7.8916759 0 0 0 7.6593557 40.271765 L 21.658461 48.355213 A 8.6951478 8.6951478 0 0 0 30.353707 48.355213 L 43.606129 40.702914 A 9.3811185 9.3811185 0 0 0 48.29819 32.57852 L 48.29819 16.772923 A 7.8248186 7.8248186 0 0 0 44.384125 9.9949668 L 30.223639 1.8199903 A 8.4340508 8.4340508 0 0 0 25.124516 0.73609542 z M 12.322513 12.064002 A 1.8861263 1.8861263 0 0 1 13.72435 12.90944 L 16.566563 17.254654 C 19.318735 15.552412 22.537714 14.569003 25.981997 14.569003 C 29.446234 14.569003 32.682976 15.563035 35.445604 17.283558 L 38.283 12.943161 A 1.8232553 1.8232553 0 0 1 39.436746 12.157939 A 1.8232553 1.8232553 0 0 1 39.790819 12.119401 A 1.8232553 1.8232553 0 0 1 40.807271 12.415665 A 1.8232553 1.8232553 0 0 1 41.334767 14.939936 L 38.343217 19.513973 C 41.576489 22.559985 43.74608 26.783277 44.208293 31.525937 C 44.300662 33.43193 42.394575 33.431184 42.394575 33.431184 L 9.516429 33.431184 C 9.516429 33.431184 7.6647296 33.430389 7.7484759 31.615058 C 8.1893254 26.861601 10.345743 22.626182 13.570196 19.564555 L 10.569011 14.973657 A 1.8861263 1.8861263 0 0 1 11.113368 12.362675 A 1.8861263 1.8861263 0 0 1 12.322513 12.064002 z M 17.175953 24.629957 A 1.88614 1.88614 0 0 0 15.289976 26.515934 A 1.88614 1.88614 0 0 0 17.175953 28.401911 A 1.88614 1.88614 0 0 0 19.06193 26.515934 A 1.88614 1.88614 0 0 0 17.175953 24.629957 z M 34.780816 24.629957 A 1.88614 1.88614 0 0 0 32.894838 26.515934 A 1.88614 1.88614 0 0 0 34.780816 28.401911 A 1.88614 1.88614 0 0 0 36.666793 26.515934 A 1.88614 1.88614 0 0 0 34.780816 24.629957 z "
     transform="matrix(0.81087772,0,0,0.81087772,10.912246,11.643351)" />
  <g
     id="g17"
     transform="matrix(0.50980964,0,0,0.50980964,-17.095361,14.302806)"
     style="filter:url(#filter17)">
    <path
       d="m 74.03125,13.966797 c -0.502939,0.03784 -0.991393,0.201305 -1.417969,0.480469 -1.385868,0.907332 -1.774076,2.766185 -0.867187,4.152343 l 4.773437,7.298828 c 1.458639,-1.38501 3.057076,-2.613987 4.767578,-3.671875 l -4.521484,-6.912109 c -0.499791,-0.763555 -1.319961,-1.258101 -2.228516,-1.34375 -0.169186,-0.01592 -0.338213,-0.01652 -0.505859,-0.0039 z m 44.19531,0.0918 c -0.18968,0.0017 -0.37873,0.02195 -0.56445,0.06055 -0.7529,0.156991 -1.4126,0.606626 -1.83398,1.25 l -4.51368,6.902343 c 1.6503,1.027385 3.19431,2.215674 4.60938,3.548828 l 4.75781,-7.27539 c 0.87656,-1.3398 0.50149,-3.136468 -0.83789,-4.013672 -0.48041,-0.314125 -1.04323,-0.47862 -1.61719,-0.472656 z"
       style="baseline-shift:baseline;display:inline;overflow:visible;fill:none;stroke:#000000;stroke-width:0.2;stroke-linecap:round;stroke-dasharray:none;stroke-opacity:1;enable-background:accumulate;stop-color:#000000;stop-opacity:1"
       id="path17" />
    <path
       d="m 96.263672,17.957031 c -15.144929,0 -27.590986,11.897538 -29.001953,27.111328 -0.133205,2.887375 2.810547,2.888672 2.810547,2.888672 h 52.296874 c 0,0 3.02973,-0.0016 2.88281,-3.033203 C 123.77597,29.779121 111.36073,17.957031 96.263672,17.957031 Z"
       style="baseline-shift:baseline;display:inline;overflow:visible;fill:none;stroke:#000000;stroke-width:0.2;stroke-dasharray:none;stroke-opacity:1;enable-background:accumulate;stop-color:#000000;stop-opacity:1"
       id="path16" />
  </g>
</svg>
