<?xml version="1.0" encoding="UTF-8" standalone="no"?>
<svg
   width="64"
   height="64"
   version="1.1"
   id="svg5"
   sodipodi:docname="appimagekit-android-messages-desktop.svg"
   inkscape:version="1.3.2 (091e20ef0f, 2023-11-25, custom)"
   xmlns:inkscape="http://www.inkscape.org/namespaces/inkscape"
   xmlns:sodipodi="http://sodipodi.sourceforge.net/DTD/sodipodi-0.dtd"
   xmlns:xlink="http://www.w3.org/1999/xlink"
   xmlns="http://www.w3.org/2000/svg"
   xmlns:svg="http://www.w3.org/2000/svg">
  <defs
     id="defs5">
    <linearGradient
       id="linearGradient18"
       inkscape:collect="always">
      <stop
         style="stop-color:#00f9ff;stop-opacity:1;"
         offset="0"
         id="stop18" />
      <stop
         style="stop-color:#00aeff;stop-opacity:1;"
         offset="1"
         id="stop19" />
    </linearGradient>
    <inkscape:path-effect
       effect="fillet_chamfer"
       id="path-effect17"
       is_visible="true"
       lpeversion="1"
       nodesatellites_param="F,0,0,1,0,0,0,1 @ F,0,0,1,0,0,0,1 @ F,0,0,1,0,1.4823955,0,1 @ F,0,0,1,0,3.9557688,0,1 @ F,0,0,1,0,1.4823955,0,1 @ F,0,0,1,0,0,0,1 @ F,0,0,1,0,0,0,1"
       radius="0"
       unit="px"
       method="auto"
       mode="F"
       chamfer_steps="1"
       flexible="false"
       use_knot_distance="true"
       apply_no_radius="true"
       apply_with_radius="true"
       only_selected="false"
       hide_knots="false" />
    <inkscape:path-effect
       effect="fillet_chamfer"
       id="path-effect8"
       is_visible="true"
       lpeversion="1"
       nodesatellites_param="F,0,0,1,0,0,0,1 @ F,0,0,1,0,0,0,1 @ F,0,0,1,0,0,0,1 @ F,0,0,1,0,0,0,1 @ F,0,0,1,0,0,0,1 @ F,0,0,1,0,0,0,1 @ F,0,0,1,0,1.3246017,0,1 @ F,0,0,1,0,0,0,1 @ F,0,0,1,0,0,0,1 @ F,0,0,1,0,0,0,1 @ F,0,0,1,0,0,0,1"
       radius="0"
       unit="px"
       method="auto"
       mode="F"
       chamfer_steps="1"
       flexible="false"
       use_knot_distance="true"
       apply_no_radius="true"
       apply_with_radius="true"
       only_selected="false"
       hide_knots="false" />
    <inkscape:path-effect
       effect="fillet_chamfer"
       id="path-effect7"
       is_visible="true"
       lpeversion="1"
       nodesatellites_param="F,0,0,1,0,0,0,1 @ F,0,0,1,0,0,0,1 @ F,0,0,1,0,1.5089681,0,1 @ F,0,0,1,0,0,0,1 @ F,0,0,1,0,0,0,1 @ F,0,0,1,0,0,0,1 @ F,0,0,1,0,0,0,1 @ F,0,0,1,0,0,0,1 @ F,0,0,1,0,0,0,1 @ F,0,0,1,0,0,0,1 @ F,0,0,1,0,0,0,1 @ F,0,0,1,0,0,0,1"
       radius="0"
       unit="px"
       method="auto"
       mode="F"
       chamfer_steps="1"
       flexible="false"
       use_knot_distance="true"
       apply_no_radius="true"
       apply_with_radius="true"
       only_selected="false"
       hide_knots="false" />
    <inkscape:path-effect
       effect="fillet_chamfer"
       id="path-effect6"
       is_visible="true"
       lpeversion="1"
       nodesatellites_param="F,0,0,1,0,0,0,1 @ F,0,0,1,0,0,0,1 @ F,0,0,1,0,0,0,1 @ F,0,0,1,0,0,0,1 @ F,0,0,1,0,0,0,1 @ F,0,0,1,0,0,0,1 @ F,0,0,1,0,0,0,1 @ F,0,0,1,0,0,0,1 @ F,0,0,1,0,0,0,1 @ F,0,0,1,0,0,0,1 @ F,0,0,1,0,0,0,1"
       radius="0"
       unit="px"
       method="auto"
       mode="F"
       chamfer_steps="1"
       flexible="false"
       use_knot_distance="true"
       apply_no_radius="true"
       apply_with_radius="true"
       only_selected="false"
       hide_knots="false" />
    <inkscape:path-effect
       effect="fillet_chamfer"
       id="path-effect5"
       is_visible="true"
       lpeversion="1"
       nodesatellites_param="F,0,0,1,0,0,0,1 @ F,0,0,1,0,0,0,1 @ F,0,0,1,0,0,0,1 @ F,0,0,1,0,0,0,1 @ F,0,0,1,0,0,0,1 @ F,0,0,1,0,0,0,1 @ F,0,0,1,0,0,0,1 @ F,0,0,1,0,0,0,1 @ F,0,0,1,0,0,0,1 @ F,0,0,1,0,0,0,1 @ F,0,0,1,0,0,0,1 @ F,0,0,1,0,0,0,1"
       radius="0"
       unit="px"
       method="auto"
       mode="F"
       chamfer_steps="1"
       flexible="false"
       use_knot_distance="true"
       apply_no_radius="true"
       apply_with_radius="true"
       only_selected="false"
       hide_knots="false" />
    <inkscape:path-effect
       effect="fillet_chamfer"
       id="path-effect7-1"
       is_visible="true"
       lpeversion="1"
       nodesatellites_param="F,0,0,1,0,0,0,1 @ F,0,0,1,0,0,0,1 @ F,0,0,1,0,1.5089681,0,1 @ F,0,0,1,0,0,0,1 @ F,0,0,1,0,0,0,1 @ F,0,0,1,0,0,0,1 @ F,0,0,1,0,0,0,1 @ F,0,0,1,0,0,0,1 @ F,0,0,1,0,0,0,1 @ F,0,0,1,0,0,0,1 @ F,0,0,1,0,0,0,1 @ F,0,0,1,0,0,0,1"
       radius="0"
       unit="px"
       method="auto"
       mode="F"
       chamfer_steps="1"
       flexible="false"
       use_knot_distance="true"
       apply_no_radius="true"
       apply_with_radius="true"
       only_selected="false"
       hide_knots="false" />
    <inkscape:path-effect
       effect="fillet_chamfer"
       id="path-effect8-9"
       is_visible="true"
       lpeversion="1"
       nodesatellites_param="F,0,0,1,0,0,0,1 @ F,0,0,1,0,0,0,1 @ F,0,0,1,0,0,0,1 @ F,0,0,1,0,0,0,1 @ F,0,0,1,0,0,0,1 @ F,0,0,1,0,0,0,1 @ F,0,0,1,0,1.3246017,0,1 @ F,0,0,1,0,0,0,1 @ F,0,0,1,0,0,0,1 @ F,0,0,1,0,0,0,1 @ F,0,0,1,0,0,0,1"
       radius="0"
       unit="px"
       method="auto"
       mode="F"
       chamfer_steps="1"
       flexible="false"
       use_knot_distance="true"
       apply_no_radius="true"
       apply_with_radius="true"
       only_selected="false"
       hide_knots="false" />
    <radialGradient
       inkscape:collect="always"
       xlink:href="#linearGradient18"
       id="radialGradient19"
       cx="10.792354"
       cy="29.205273"
       fx="10.792354"
       fy="29.205273"
       r="25.411133"
       gradientTransform="matrix(0,2.1358158,-2.1775055,0,68.235825,-18.516699)"
       gradientUnits="userSpaceOnUse" />
    <filter
       inkscape:collect="always"
       style="color-interpolation-filters:sRGB"
       id="filter20"
       x="-0.076861293"
       y="-0.076858339"
       width="1.1537226"
       height="1.1537167">
      <feGaussianBlur
         inkscape:collect="always"
         stdDeviation="1.5442771"
         id="feGaussianBlur20" />
    </filter>
    <filter
       inkscape:collect="always"
       style="color-interpolation-filters:sRGB"
       id="filter1"
       x="-0.049451113"
       y="-0.20062484"
       width="1.0988804"
       height="1.4013881">
      <feGaussianBlur
         inkscape:collect="always"
         stdDeviation="0.78764422"
         id="feGaussianBlur1" />
    </filter>
  </defs>
  <sodipodi:namedview
     id="namedview5"
     pagecolor="#505050"
     bordercolor="#eeeeee"
     borderopacity="1"
     inkscape:showpageshadow="0"
     inkscape:pageopacity="0"
     inkscape:pagecheckerboard="0"
     inkscape:deskcolor="#505050"
     inkscape:zoom="9.0156115"
     inkscape:cx="21.130014"
     inkscape:cy="33.55291"
     inkscape:window-width="1920"
     inkscape:window-height="1010"
     inkscape:window-x="0"
     inkscape:window-y="0"
     inkscape:window-maximized="1"
     inkscape:current-layer="svg5" />
  <path
     d="M 32.001058,4.4868161 C 16.805853,4.4865552 4.4876123,16.804795 4.4878731,32 c 0.012846,4.969154 1.3690193,9.832113 3.9141426,14.076955 0.4557466,0.760111 0.7950022,2.065823 0.7062798,2.947766 l -0.7253112,7.196016 a 2.920186,2.920186 0 0 0 3.6942227,3.104247 l 6.844991,-1.92218 c 0.853406,-0.239565 2.195008,-0.125907 3.019662,0.198773 3.198936,1.259477 6.611783,1.908922 10.059198,1.911607 C 47.195436,59.512278 59.512388,47.194379 59.512127,32 59.512388,16.805621 47.195436,4.4877232 32.001058,4.4868161 Z"
     style="opacity:1;fill:url(#radialGradient19);stroke-width:0.108268;stroke-linejoin:round"
     id="path18" />
  <path
     d="M 32.000976,6.587891 C 17.96617,6.58765 6.5886265,17.965194 6.5888675,32 c 0.01187,4.589679 1.264472,9.081273 3.6152335,13.001953 0.420943,0.702064 0.734291,1.908064 0.652344,2.722656 l -0.669922,6.646485 a 2.6971828,2.6971828 0 0 0 3.412109,2.867187 l 6.322266,-1.77539 c 0.788235,-0.221271 2.027384,-0.116292 2.789062,0.183593 2.954646,1.163296 6.106867,1.763145 9.291016,1.765625 C 46.035019,57.411272 57.411373,46.034043 57.411132,32 57.411373,17.965957 46.035019,6.5887288 32.000976,6.587891 Z"
     style="mix-blend-mode:normal;fill:none;fill-opacity:1;stroke:#000000;stroke-width:0.4;stroke-linejoin:round;stroke-dasharray:none;stroke-opacity:1;filter:url(#filter20)"
     id="path18-7"
     transform="matrix(1.0826801,0,0,1.0826801,-2.6457621,-2.645762)" />
  <path
     d="m 52.636696,31.972602 c 0.101664,-2.986967 -2.879579,-5.533948 -5.814051,-4.983186 -2.898035,0.350388 -4.92,3.523156 -4.113086,6.30641 0.64878,2.905928 4.148176,4.620818 6.849494,3.383286 1.857788,-0.757863 3.128915,-2.700051 3.077643,-4.70651 z m -15.583447,0 c 0.102412,-2.986136 -2.876588,-5.534482 -5.810956,-4.983186 -2.898052,0.350271 -4.923945,3.52201 -4.115972,6.30641 0.65041,2.905616 4.150216,4.620671 6.851963,3.383286 1.857398,-0.758053 3.126251,-2.700844 3.074965,-4.70651 z m -15.586622,0 c 0.102412,-2.986136 -2.876588,-5.534482 -5.810956,-4.983186 -2.898052,0.350271 -4.923945,3.52201 -4.115973,6.30641 0.65041,2.905616 4.150217,4.620671 6.851963,3.383286 1.857398,-0.758053 3.126251,-2.700844 3.074966,-4.70651 z"
     style="opacity:1;fill:#ffffff;stroke-width:0.175971;stroke-linejoin:round"
     id="path1" />
  <path
     d="m 52.636696,31.972602 c 0.101664,-2.986967 -2.879579,-5.533948 -5.814051,-4.983186 -2.898035,0.350388 -4.92,3.523156 -4.113086,6.30641 0.64878,2.905928 4.148176,4.620818 6.849494,3.383286 1.857788,-0.757863 3.128915,-2.700051 3.077643,-4.70651 z m -15.583447,0 c 0.102412,-2.986136 -2.876588,-5.534482 -5.810956,-4.983186 -2.898052,0.350271 -4.923945,3.52201 -4.115972,6.30641 0.65041,2.905616 4.150216,4.620671 6.851963,3.383286 1.857398,-0.758053 3.126251,-2.700844 3.074965,-4.70651 z m -15.586622,0 c 0.102412,-2.986136 -2.876588,-5.534482 -5.810956,-4.983186 -2.898052,0.350271 -4.923945,3.52201 -4.115973,6.30641 0.65041,2.905616 4.150217,4.620671 6.851963,3.383286 1.857398,-0.758053 3.126251,-2.700844 3.074966,-4.70651 z"
     style="fill:none;stroke-width:0.30000001;stroke-linejoin:round;stroke:#0024ff;stroke-opacity:1;filter:url(#filter1);stroke-dasharray:none"
     id="path1-3" />
</svg>
