<?xml version="1.0" encoding="UTF-8" standalone="no"?>
<svg
   width="64"
   height="64"
   version="1"
   id="svg9"
   sodipodi:docname="android-sdk.svg"
   inkscape:version="1.4 (e7c3feb100, 2024-10-09)"
   xmlns:inkscape="http://www.inkscape.org/namespaces/inkscape"
   xmlns:sodipodi="http://sodipodi.sourceforge.net/DTD/sodipodi-0.dtd"
   xmlns:xlink="http://www.w3.org/1999/xlink"
   xmlns="http://www.w3.org/2000/svg"
   xmlns:svg="http://www.w3.org/2000/svg">
  <defs
     id="defs9">
    <linearGradient
       id="linearGradient11"
       inkscape:collect="always">
      <stop
         style="stop-color:#2d3e6b;stop-opacity:1;"
         offset="0"
         id="stop11" />
      <stop
         style="stop-color:#2d5a6b;stop-opacity:1;"
         offset="1"
         id="stop12" />
    </linearGradient>
    <filter
       inkscape:collect="always"
       style="color-interpolation-filters:sRGB"
       id="filter18"
       x="-0.060457881"
       y="-0.34249952"
       width="1.1209158"
       height="1.684999">
      <feGaussianBlur
         inkscape:collect="always"
         stdDeviation="0.72566825"
         id="feGaussianBlur18" />
    </filter>
    <filter
       inkscape:collect="always"
       style="color-interpolation-filters:sRGB"
       id="filter17"
       x="-0.11242667"
       y="-0.19179405"
       width="1.2248531"
       height="1.3835881">
      <feGaussianBlur
         inkscape:collect="always"
         stdDeviation="2.6753398"
         id="feGaussianBlur17" />
    </filter>
    <radialGradient
       inkscape:collect="always"
       xlink:href="#linearGradient10"
       id="radialGradient9"
       cx="11.674412"
       cy="48.279011"
       fx="11.674412"
       fy="48.279011"
       r="28.999786"
       gradientTransform="matrix(3.5593323,0.95372024,-0.49330357,1.8410339,5.889795,-82.835791)"
       gradientUnits="userSpaceOnUse" />
    <linearGradient
       id="linearGradient10"
       inkscape:collect="always">
      <stop
         style="stop-color:#52e192;stop-opacity:1;"
         offset="0"
         id="stop9" />
      <stop
         style="stop-color:#2fa165;stop-opacity:1;"
         offset="1"
         id="stop10" />
    </linearGradient>
    <radialGradient
       inkscape:collect="always"
       xlink:href="#linearGradient16"
       id="radialGradient15"
       cx="33.645397"
       cy="33.712631"
       fx="33.645397"
       fy="33.712631"
       r="6.0248585"
       gradientTransform="matrix(3.6157516,-3.6157516,3.6730012,3.6730012,-230.46673,24.50144)"
       gradientUnits="userSpaceOnUse" />
    <linearGradient
       id="linearGradient16"
       inkscape:collect="always">
      <stop
         style="stop-color:#28a067;stop-opacity:1;"
         offset="0"
         id="stop15" />
      <stop
         style="stop-color:#39bf75;stop-opacity:1;"
         offset="1"
         id="stop16" />
    </linearGradient>
    <radialGradient
       inkscape:collect="always"
       xlink:href="#linearGradient11"
       id="radialGradient12"
       cx="16.25247"
       cy="46.971748"
       fx="16.25247"
       fy="46.971748"
       r="19.39978"
       gradientTransform="matrix(3.6124313,0,0,2.400784,-57.850255,-61.093592)"
       gradientUnits="userSpaceOnUse" />
    <filter
       inkscape:collect="always"
       style="color-interpolation-filters:sRGB"
       id="filter12"
       x="-0.10954727"
       y="-0.16483388"
       width="1.2190946"
       height="1.3296651">
      <feGaussianBlur
         inkscape:collect="always"
         stdDeviation="2.352966"
         id="feGaussianBlur12" />
    </filter>
  </defs>
  <sodipodi:namedview
     id="namedview9"
     pagecolor="#505050"
     bordercolor="#eeeeee"
     borderopacity="1"
     inkscape:showpageshadow="0"
     inkscape:pageopacity="0"
     inkscape:pagecheckerboard="0"
     inkscape:deskcolor="#505050"
     inkscape:zoom="18.28125"
     inkscape:cx="32"
     inkscape:cy="32"
     inkscape:current-layer="svg9" />
  <path
     style="fill:url(#radialGradient12);stroke-width:1.35215;stroke-linecap:round"
     d="m 16.527159,14.59865 c -1.614988,-0.14976 -3.233817,0.253768 -4.589901,1.143513 -3.2570351,2.134968 -4.1990801,6.651362 -2.0678301,9.911332 l 1.4445771,2.207799 C 8.2823244,31.816645 6.2774918,36.627682 5.7892227,41.892442 l -0.010547,0.113553 -0.00527,0.116203 c -0.1264797,2.741284 1.988496,5.644714 3.7289625,6.517764 1.7404678,0.873049 3.2932138,0.792272 3.2932138,0.792272 h 38.3592 c 0,0 1.594677,0.0803 3.361877,-0.826604 1.767198,-0.906903 3.8415,-3.844006 3.707835,-6.602273 l -0.0053,-0.11884 -0.01055,-0.121477 C 57.697579,36.51933 55.682336,31.728897 52.646867,27.792631 l 1.420809,-2.173469 v -0.0027 c 2.112135,-3.225522 1.183004,-7.69931 -2.041422,-9.813618 l -0.0053,-0.0027 -0.0027,-0.0027 C 50.843031,15.029977 49.462991,14.62763 48.059532,14.643366 h -0.0053 c -0.458934,0.0054 -0.916059,0.05678 -1.36535,0.150533 -1.838451,0.382855 -3.454465,1.482358 -4.484263,3.05289 v 0.0027 l -1.022031,1.560778 C 38.295796,18.296665 35.26098,17.50089 32.005429,17.50089 c -3.231266,0 -6.247633,0.785108 -9.116416,1.882968 l -1.032596,-1.576623 v -0.0027 C 20.66451,15.984895 18.700988,14.802257 16.535081,14.59865 h -0.0027 z"
     id="path2-7"
     sodipodi:nodetypes="cccccccsccscccccccccccccccscccccc" />
  <path
     style="fill:none;stroke-width:0.2;stroke-linecap:round;stroke:#000000;stroke-opacity:1;stroke-dasharray:none;filter:url(#filter12)"
     d="m 16.527192,14.59865 c -1.614988,-0.14976 -3.233817,0.253768 -4.589901,1.143513 -3.2570351,2.134968 -4.1990801,6.651362 -2.0678301,9.911332 l 1.4445771,2.207799 C 8.2823569,31.816645 6.2775249,36.627682 5.7892559,41.892442 l -0.01055,0.113553 -0.0053,0.116203 c -0.12648,2.741284 1.988496,5.644714 3.728962,6.517764 1.7404681,0.873049 3.2932141,0.792272 3.2932141,0.792272 h 38.3592 c 0,0 1.594677,0.0803 3.361877,-0.826604 1.767198,-0.906903 3.8415,-3.844006 3.707835,-6.602273 l -0.0053,-0.11884 -0.01055,-0.121477 C 57.697612,36.51933 55.682369,31.728897 52.6469,27.792631 l 1.420809,-2.173469 v -0.0027 c 2.112135,-3.225522 1.183004,-7.69931 -2.041422,-9.813618 l -0.0053,-0.0027 -0.0027,-0.0027 C 50.843064,15.029977 49.463024,14.62763 48.059565,14.643366 h -0.0053 c -0.458934,0.0054 -0.916059,0.05678 -1.36535,0.150533 -1.838451,0.382855 -3.454465,1.482358 -4.484263,3.05289 v 0.0027 l -1.022031,1.560778 c -2.886792,-1.113602 -5.921608,-1.909377 -9.177159,-1.909377 -3.231266,0 -6.247633,0.785108 -9.116416,1.882968 L 21.85645,17.807235 v -0.0027 c -1.191907,-1.81964 -3.155429,-3.002278 -5.321336,-3.205885 h -0.0027 z"
     id="path2-7-8"
     sodipodi:nodetypes="cccccccsccscccccccccccccccscccccc" />
  <g
     id="g9"
     transform="matrix(0.8186446,0,0,0.8186446,19.864161,14.748312)">
    <path
       id="path2"
       style="fill:url(#radialGradient15);fill-opacity:1;stroke-width:0.895947;stroke-linecap:round"
       d="m -4.634254,5.85413 a 2.6878226,2.6878226 0 0 0 -1.723648,0.426974 2.6878226,2.6878226 0 0 0 -0.776955,3.720282 l 5.419432,8.287513 a 2.6878226,2.6878226 0 0 0 3.720281,0.778705 2.6878226,2.6878226 0 0 0 0.778705,-3.722032 L -2.637621,7.058059 A 2.6878226,2.6878226 0 0 0 -4.634254,5.85413 Z m 39.143452,0.07874 a 2.5982283,2.5982283 0 0 0 -0.50572,0.05425 2.5982283,2.5982283 0 0 0 -1.643153,1.119935 l -5.419432,8.287513 a 2.5982283,2.5982283 0 0 0 0.752455,3.597789 2.5982283,2.5982283 0 0 0 3.596039,-0.752455 L 36.708819,9.952388 A 2.5982283,2.5982283 0 0 0 35.958114,6.35635 2.5982283,2.5982283 0 0 0 34.509198,5.932874 Z" />
    <path
       style="fill:url(#radialGradient9);stroke-width:0.895947"
       d="M 38.219883,36.304105 H -8.6350808 c 0,0 -2.6382032,0 -2.5188592,-2.586936 C -9.8897873,20.086414 1.261142,9.42588 14.830202,9.42588 c 13.526163,0 24.649459,10.593232 25.971857,24.162093 0.131631,2.716132 -2.582176,2.716132 -2.582176,2.716132 z"
       id="path5" />
    <g
       id="g17"
       transform="matrix(0.8959474,0,0,0.8959474,-71.416805,-6.6633125)"
       style="filter:url(#filter17)">
      <path
         d="m 74.03125,13.966797 c -0.502939,0.03784 -0.991393,0.201305 -1.417969,0.480469 -1.385868,0.907332 -1.774076,2.766185 -0.867187,4.152343 l 4.773437,7.298828 c 1.458639,-1.38501 3.057076,-2.613987 4.767578,-3.671875 l -4.521484,-6.912109 c -0.499791,-0.763555 -1.319961,-1.258101 -2.228516,-1.34375 -0.169186,-0.01592 -0.338213,-0.01652 -0.505859,-0.0039 z m 44.19531,0.0918 c -0.18968,0.0017 -0.37873,0.02195 -0.56445,0.06055 -0.7529,0.156991 -1.4126,0.606626 -1.83398,1.25 l -4.51368,6.902343 c 1.6503,1.027385 3.19431,2.215674 4.60938,3.548828 l 4.75781,-7.27539 c 0.87656,-1.3398 0.50149,-3.136468 -0.83789,-4.013672 -0.48041,-0.314125 -1.04323,-0.47862 -1.61719,-0.472656 z"
         style="baseline-shift:baseline;display:inline;overflow:visible;fill:none;stroke:#000000;stroke-width:0.2;stroke-linecap:round;stroke-dasharray:none;stroke-opacity:1;enable-background:accumulate;stop-color:#000000;stop-opacity:1"
         id="path17" />
      <path
         d="m 96.263672,17.957031 c -15.144929,0 -27.590986,11.897538 -29.001953,27.111328 -0.133205,2.887375 2.810547,2.888672 2.810547,2.888672 h 52.296874 c 0,0 3.02973,-0.0016 2.88281,-3.033203 C 123.77597,29.779121 111.36073,17.957031 96.263672,17.957031 Z"
         style="baseline-shift:baseline;display:inline;overflow:visible;fill:none;stroke:#000000;stroke-width:0.2;stroke-dasharray:none;stroke-opacity:1;enable-background:accumulate;stop-color:#000000;stop-opacity:1"
         id="path16" />
    </g>
    <path
       id="circle6"
       style="fill:#ffffff;stroke-width:0.895947"
       d="m 2.281635,23.760486 a 2.6878421,2.6878421 0 0 0 -2.6875,2.6875 2.6878421,2.6878421 0 0 0 2.6875,2.689453 2.6878421,2.6878421 0 0 0 2.6875,-2.689453 2.6878421,2.6878421 0 0 0 -2.6875,-2.6875 z m 25.085938,0 a 2.6878421,2.6878421 0 0 0 -2.6875,2.6875 2.6878421,2.6878421 0 0 0 2.6875,2.689453 2.6878421,2.6878421 0 0 0 2.6875,-2.689453 2.6878421,2.6878421 0 0 0 -2.6875,-2.6875 z" />
    <path
       id="circle6-2"
       style="fill:none;stroke:#ffd400;stroke-width:0.2;stroke-dasharray:none;stroke-opacity:1;filter:url(#filter18)"
       d="m 2.281635,23.760486 a 2.6878421,2.6878421 0 0 0 -2.6875,2.6875 2.6878421,2.6878421 0 0 0 2.6875,2.689453 2.6878421,2.6878421 0 0 0 2.6875,-2.689453 2.6878421,2.6878421 0 0 0 -2.6875,-2.6875 z m 25.085938,0 a 2.6878421,2.6878421 0 0 0 -2.6875,2.6875 2.6878421,2.6878421 0 0 0 2.6875,2.689453 2.6878421,2.6878421 0 0 0 2.6875,-2.689453 2.6878421,2.6878421 0 0 0 -2.6875,-2.6875 z" />
  </g>
</svg>
