<?xml version="1.0" encoding="UTF-8" standalone="no"?>
<svg
   width="64"
   height="64"
   version="1.1"
   id="svg8"
   sodipodi:docname="blackmagicraw-player.svg"
   inkscape:version="1.4 (e7c3feb100, 2024-10-09)"
   xmlns:inkscape="http://www.inkscape.org/namespaces/inkscape"
   xmlns:sodipodi="http://sodipodi.sourceforge.net/DTD/sodipodi-0.dtd"
   xmlns:xlink="http://www.w3.org/1999/xlink"
   xmlns="http://www.w3.org/2000/svg"
   xmlns:svg="http://www.w3.org/2000/svg">
  <defs
     id="defs8">
    <filter
       inkscape:collect="always"
       style="color-interpolation-filters:sRGB"
       id="filter7"
       x="-0.16383565"
       y="-0.15591676"
       width="1.3276713"
       height="1.3118373">
      <feGaussianBlur
         inkscape:collect="always"
         stdDeviation="3.1195823"
         id="feGaussianBlur7" />
    </filter>
    <radialGradient
       inkscape:collect="always"
       xlink:href="#linearGradient12"
       id="radialGradient9-6"
       cx="34.448208"
       cy="13.722373"
       fx="34.448208"
       fy="13.722373"
       r="14.663306"
       gradientTransform="matrix(-1.8550731,3.2130809,-3.480713,-2.0095906,158.99168,-69.547082)"
       gradientUnits="userSpaceOnUse" />
    <linearGradient
       id="linearGradient12"
       inkscape:collect="always">
      <stop
         style="stop-color:#f8ff00;stop-opacity:1;"
         offset="0"
         id="stop11" />
      <stop
         style="stop-color:#ff7100;stop-opacity:1;"
         offset="1"
         id="stop12" />
    </linearGradient>
    <filter
       inkscape:collect="always"
       style="color-interpolation-filters:sRGB"
       id="filter12"
       x="-0.10758114"
       y="-0.099309209"
       width="1.2151623"
       height="1.1986184">
      <feGaussianBlur
         inkscape:collect="always"
         stdDeviation="1.3145793"
         id="feGaussianBlur12" />
    </filter>
    <radialGradient
       inkscape:collect="always"
       xlink:href="#linearGradient10"
       id="radialGradient9"
       cx="34.448208"
       cy="13.722373"
       fx="34.448208"
       fy="13.722373"
       r="14.663306"
       gradientTransform="matrix(-1.8550731,3.2130809,-3.480713,-2.0095906,158.99169,-69.547082)"
       gradientUnits="userSpaceOnUse" />
    <linearGradient
       id="linearGradient10"
       inkscape:collect="always">
      <stop
         style="stop-color:#ffe400;stop-opacity:1;"
         offset="0"
         id="stop9" />
      <stop
         style="stop-color:#ffab00;stop-opacity:1;"
         offset="1"
         id="stop10" />
    </linearGradient>
    <radialGradient
       inkscape:collect="always"
       xlink:href="#linearGradient6"
       id="radialGradient7"
       cx="11.757886"
       cy="53.963005"
       fx="11.757886"
       fy="53.963005"
       r="18.94824"
       gradientTransform="matrix(3.4879288,0,0,3.6652042,-33.745646,-137.58344)"
       gradientUnits="userSpaceOnUse" />
    <linearGradient
       id="linearGradient6"
       inkscape:collect="always">
      <stop
         style="stop-color:#636363;stop-opacity:1;"
         offset="0"
         id="stop6" />
      <stop
         style="stop-color:#727272;stop-opacity:1;"
         offset="1"
         id="stop7" />
    </linearGradient>
    <filter
       inkscape:collect="always"
       style="color-interpolation-filters:sRGB"
       id="filter8"
       x="-0.3375224"
       y="-0.048212648"
       width="1.6750448"
       height="1.0964253">
      <feGaussianBlur
         inkscape:collect="always"
         stdDeviation="0.78172915"
         id="feGaussianBlur8" />
    </filter>
  </defs>
  <sodipodi:namedview
     id="namedview8"
     pagecolor="#505050"
     bordercolor="#eeeeee"
     borderopacity="1"
     inkscape:showpageshadow="0"
     inkscape:pageopacity="0"
     inkscape:pagecheckerboard="0"
     inkscape:deskcolor="#505050"
     inkscape:zoom="12.959941"
     inkscape:cx="27.044875"
     inkscape:cy="32.06033"
     inkscape:current-layer="svg8" />
  <path
     style="fill:url(#radialGradient7);stroke-width:1.22196"
     d="M 20.254191,7.671773 C 14.276195,7.545672 8.8454456,12.449155 8.8460822,18.736205 v 26.620509 0.0048 c 0.00672,8.351554 9.5929818,13.550626 16.6276758,9.64916 l 11.98806,-6.653935 11.990446,-6.661094 0.0048,-0.0024 c 3.512904,-1.955239 5.696895,-5.871492 5.696895,-9.649159 0,-3.777667 -2.183991,-7.693919 -5.696895,-9.649158 l -0.0048,-0.0024 -11.990446,-6.658829 -11.97374,-6.6467735 -0.01198,-0.00477 C 23.873994,8.1922127 22.097946,7.7159161 20.287561,7.6716606 Z"
     id="path5"
     sodipodi:nodetypes="cccsccccsccccccc" />
  <path
     style="fill:url(#radialGradient9);stroke-width:1.22196"
     d="m 20.078725,16.116044 a 2.67849,2.5756028 0 0 0 -2.742031,2.575114 v 26.618717 a 2.67849,2.5756028 0 0 0 4.017246,2.230012 L 33.339451,40.886675 45.32496,34.230041 a 2.67849,2.5756028 0 0 0 0,-4.460077 L 33.33774,23.115285 21.352962,16.462072 a 2.67849,2.5756028 0 0 0 -1.275704,-0.34532 z"
     id="path3-3" />
  <path
     style="opacity:0.277856;fill:url(#radialGradient9-6);stroke-width:1.22196;filter:url(#filter12)"
     d="m 20.078725,16.116044 a 2.67849,2.5756028 0 0 0 -2.742031,2.575114 v 26.618717 a 2.67849,2.5756028 0 0 0 4.017246,2.230012 l 11.98551,-6.653212 11.985509,-6.656634 a 2.67849,2.5756028 0 0 0 0,-4.460077 L 33.337739,23.115285 21.352962,16.462072 a 2.67849,2.5756028 0 0 0 -1.275704,-0.34532 z"
     id="path3-1" />
  <path
     id="path5-3"
     style="fill:none;stroke:#000000;stroke-width:0.2;stroke-dasharray:none;stroke-opacity:1;filter:url(#filter7)"
     d="M 20.253909,7.6719983 C 14.275913,7.5458973 8.8450701,12.4494 8.8457061,18.736451 v 26.621094 0.0039 c 0.0067,8.351554 9.5942119,13.549904 16.6289059,9.648438 l 11.986329,-6.652344 11.992187,-6.66211 0.0039,-0.002 c 3.512904,-1.955239 5.697266,-5.87077 5.697266,-9.648437 0,-3.777667 -2.184362,-7.695152 -5.697266,-9.650391 l -0.0039,-0.002 -11.992187,-6.658203 -11.972657,-6.6484372 -0.01172,-0.00391 C 23.874451,8.1922117 22.097497,7.7162538 20.287112,7.6719983 Z m -0.175781,8.4433587 v 0.002 a 2.67849,2.5756028 0 0 1 1.275391,0.345703 l 11.984375,6.652343 11.986328,6.654297 a 2.67849,2.5756028 0 0 1 0,4.460938 l -11.984375,6.65625 -11.986328,6.652343 A 2.67849,2.5756028 0 0 1 17.335941,45.31067 V 18.691529 a 2.67849,2.5756028 0 0 1 2.742187,-2.576172 z" />
  <path
     id="rect4"
     style="fill:#000000;stroke-width:0.926513;opacity:0.32722144;fill-opacity:1"
     d="M 25.609375 12.542969 C 24.839442 12.542969 24.220703 13.163661 24.220703 13.933594 L 24.220703 16.712891 C 24.220703 17.482823 24.839442 18.101562 25.609375 18.101562 L 28.390625 18.101562 C 29.160558 18.101562 29.779297 17.482823 29.779297 16.712891 L 29.779297 13.933594 C 29.779297 13.163661 29.160558 12.542969 28.390625 12.542969 L 25.609375 12.542969 z M 25.609375 20.882812 C 24.839442 20.882812 24.220703 21.501552 24.220703 22.271484 L 24.220703 25.050781 C 24.220703 25.820714 24.839442 26.441406 25.609375 26.441406 L 28.390625 26.441406 C 29.160558 26.441406 29.779297 25.820714 29.779297 25.050781 L 29.779297 22.271484 C 29.779297 21.501552 29.160558 20.882812 28.390625 20.882812 L 25.609375 20.882812 z M 25.609375 29.220703 C 24.839442 29.220703 24.220703 29.839442 24.220703 30.609375 L 24.220703 33.390625 C 24.220703 34.160558 24.839442 34.779297 25.609375 34.779297 L 28.390625 34.779297 C 29.160558 34.779297 29.779297 34.160558 29.779297 33.390625 L 29.779297 30.609375 C 29.779297 29.839442 29.160558 29.220703 28.390625 29.220703 L 25.609375 29.220703 z M 25.609375 37.558594 C 24.839442 37.558594 24.220703 38.179286 24.220703 38.949219 L 24.220703 41.728516 C 24.220703 42.498448 24.839442 43.117188 25.609375 43.117188 L 28.390625 43.117188 C 29.160558 43.117188 29.779297 42.498448 29.779297 41.728516 L 29.779297 38.949219 C 29.779297 38.179286 29.160558 37.558594 28.390625 37.558594 L 25.609375 37.558594 z M 25.609375 45.898438 C 24.839442 45.898438 24.220703 46.517177 24.220703 47.287109 L 24.220703 50.066406 C 24.220703 50.836339 24.839442 51.457031 25.609375 51.457031 L 28.390625 51.457031 C 29.160558 51.457031 29.779297 50.836339 29.779297 50.066406 L 29.779297 47.287109 C 29.779297 46.517177 29.160558 45.898438 28.390625 45.898438 L 25.609375 45.898438 z " />
  <path
     id="rect4-6"
     style="opacity:0.184767;fill:#000000;fill-opacity:1;stroke-width:0.926513;filter:url(#filter8)"
     d="m 25.609375,12.542969 c -0.769933,0 -1.388672,0.620692 -1.388672,1.390625 v 2.779297 c 0,0.769932 0.618739,1.388671 1.388672,1.388671 h 2.78125 c 0.769933,0 1.388672,-0.618739 1.388672,-1.388671 v -2.779297 c 0,-0.769933 -0.618739,-1.390625 -1.388672,-1.390625 z m 0,8.339843 c -0.769933,0 -1.388672,0.61874 -1.388672,1.388672 v 2.779297 c 0,0.769933 0.618739,1.390625 1.388672,1.390625 h 2.78125 c 0.769933,0 1.388672,-0.620692 1.388672,-1.390625 v -2.779297 c 0,-0.769932 -0.618739,-1.388672 -1.388672,-1.388672 z m 0,8.337891 c -0.769933,0 -1.388672,0.618739 -1.388672,1.388672 v 2.78125 c 0,0.769933 0.618739,1.388672 1.388672,1.388672 h 2.78125 c 0.769933,0 1.388672,-0.618739 1.388672,-1.388672 v -2.78125 c 0,-0.769933 -0.618739,-1.388672 -1.388672,-1.388672 z m 0,8.337891 c -0.769933,0 -1.388672,0.620692 -1.388672,1.390625 v 2.779297 c 0,0.769932 0.618739,1.388672 1.388672,1.388672 h 2.78125 c 0.769933,0 1.388672,-0.61874 1.388672,-1.388672 v -2.779297 c 0,-0.769933 -0.618739,-1.390625 -1.388672,-1.390625 z m 0,8.339844 c -0.769933,0 -1.388672,0.618739 -1.388672,1.388671 v 2.779297 c 0,0.769933 0.618739,1.390625 1.388672,1.390625 h 2.78125 c 0.769933,0 1.388672,-0.620692 1.388672,-1.390625 v -2.779297 c 0,-0.769932 -0.618739,-1.388671 -1.388672,-1.388671 z" />
</svg>
