<?xml version="1.0" encoding="UTF-8" standalone="no"?>
<svg
   width="64"
   height="64"
   version="1"
   id="svg11"
   sodipodi:docname="chrome-remote-desktop.svg"
   inkscape:version="1.3.2 (091e20ef0f, 2023-11-25, custom)"
   xmlns:inkscape="http://www.inkscape.org/namespaces/inkscape"
   xmlns:sodipodi="http://sodipodi.sourceforge.net/DTD/sodipodi-0.dtd"
   xmlns:xlink="http://www.w3.org/1999/xlink"
   xmlns="http://www.w3.org/2000/svg"
   xmlns:svg="http://www.w3.org/2000/svg">
  <sodipodi:namedview
     id="namedview11"
     pagecolor="#505050"
     bordercolor="#eeeeee"
     borderopacity="1"
     inkscape:showpageshadow="0"
     inkscape:pageopacity="0"
     inkscape:pagecheckerboard="0"
     inkscape:deskcolor="#505050"
     inkscape:zoom="13.328125"
     inkscape:cx="32"
     inkscape:cy="32"
     inkscape:window-width="1920"
     inkscape:window-height="1010"
     inkscape:window-x="0"
     inkscape:window-y="0"
     inkscape:window-maximized="1"
     inkscape:current-layer="g11" />
  <defs
     id="defs2">
    <linearGradient
       id="linearGradient8505"
       x1="168"
       x2="160"
       y1="266"
       y2="270"
       gradientTransform="matrix(0.79874,0,0,0.79956,-95.82,-175.89)"
       gradientUnits="userSpaceOnUse">
      <stop
         offset="0"
         id="stop1" />
      <stop
         offset="1"
         stop-opacity="0"
         id="stop2" />
    </linearGradient>
    <radialGradient
       inkscape:collect="always"
       xlink:href="#linearGradient2"
       id="radialGradient10"
       cx="24.407768"
       cy="40.411434"
       fx="24.407768"
       fy="40.411434"
       r="11.125"
       gradientUnits="userSpaceOnUse"
       gradientTransform="matrix(2.1449038,0,0,2.1449038,-23.750273,-33.277568)" />
    <linearGradient
       id="linearGradient2"
       inkscape:collect="always">
      <stop
         style="stop-color:#2bc4ff;stop-opacity:1;"
         offset="0"
         id="stop1-3" />
      <stop
         style="stop-color:#008bff;stop-opacity:1;"
         offset="1"
         id="stop2-6" />
    </linearGradient>
    <linearGradient
       inkscape:collect="always"
       xlink:href="#linearGradient11"
       id="linearGradient12"
       x1="7.7662468"
       y1="23.760038"
       x2="56.207077"
       y2="23.760038"
       gradientUnits="userSpaceOnUse"
       gradientTransform="matrix(0.9418182,0,0,0.9418182,1.9247768,1.8700021)" />
    <linearGradient
       id="linearGradient11"
       inkscape:collect="always">
      <stop
         style="stop-color:#db4130;stop-opacity:1;"
         offset="0"
         id="stop11" />
      <stop
         style="stop-color:#d40909;stop-opacity:1;"
         offset="1"
         id="stop12" />
    </linearGradient>
    <clipPath
       clipPathUnits="userSpaceOnUse"
       id="clipPath1">
      <path
         d="m 32.000001,5.9627538 c -14.424863,0 -26.0372472,11.6123842 -26.0372472,26.0372472 0,14.42486 11.6123842,26.037244 26.0372472,26.037244 14.42486,0 26.037244,-11.612384 26.037244,-26.037244 0,-14.424863 -11.612384,-26.0372472 -26.037244,-26.0372472 z"
         style="fill:url(#radialGradient1);stroke-width:2.36706"
         id="path1" />
    </clipPath>
    <radialGradient
       inkscape:collect="always"
       xlink:href="#linearGradient9"
       id="radialGradient1"
       gradientUnits="userSpaceOnUse"
       gradientTransform="matrix(5.956662,0,0,5.956662,-139.31925,-182.04672)"
       cx="24.407768"
       cy="40.411434"
       fx="24.407768"
       fy="40.411434"
       r="11.125" />
    <linearGradient
       id="linearGradient9"
       inkscape:collect="always">
      <stop
         style="stop-color:#2bb4ff;stop-opacity:1;"
         offset="0"
         id="stop9" />
      <stop
         style="stop-color:#0087ff;stop-opacity:1;"
         offset="1"
         id="stop10" />
    </linearGradient>
    <linearGradient
       inkscape:collect="always"
       xlink:href="#linearGradient7"
       id="linearGradient8"
       x1="32.000332"
       y1="38.996185"
       x2="60"
       y2="38.996185"
       gradientUnits="userSpaceOnUse"
       gradientTransform="matrix(0.9418182,0,0,0.9418182,2.0307624,1.8481692)" />
    <linearGradient
       id="linearGradient7"
       inkscape:collect="always">
      <stop
         style="stop-color:#ffce41;stop-opacity:1;"
         offset="0"
         id="stop7" />
      <stop
         style="stop-color:#f8ae00;stop-opacity:1;"
         offset="1"
         id="stop8" />
    </linearGradient>
    <clipPath
       clipPathUnits="userSpaceOnUse"
       id="clipPath2">
      <path
         d="m 32.000001,5.9627538 c -14.424863,0 -26.0372472,11.6123842 -26.0372472,26.0372472 0,14.42486 11.6123842,26.037244 26.0372472,26.037244 14.42486,0 26.037244,-11.612384 26.037244,-26.037244 0,-14.424863 -11.612384,-26.0372472 -26.037244,-26.0372472 z"
         style="fill:url(#radialGradient2);stroke-width:2.36706"
         id="path2-7" />
    </clipPath>
    <radialGradient
       inkscape:collect="always"
       xlink:href="#linearGradient9"
       id="radialGradient2"
       gradientUnits="userSpaceOnUse"
       gradientTransform="matrix(5.956662,0,0,5.956662,-139.31925,-182.04672)"
       cx="24.407768"
       cy="40.411434"
       fx="24.407768"
       fy="40.411434"
       r="11.125" />
    <clipPath
       clipPathUnits="userSpaceOnUse"
       id="clipPath3">
      <path
         d="m 32.000001,5.9627538 c -14.424863,0 -26.0372472,11.6123842 -26.0372472,26.0372472 0,14.42486 11.6123842,26.037244 26.0372472,26.037244 14.42486,0 26.037244,-11.612384 26.037244,-26.037244 0,-14.424863 -11.612384,-26.0372472 -26.037244,-26.0372472 z"
         style="fill:url(#radialGradient3);stroke-width:2.36706"
         id="path3" />
    </clipPath>
    <radialGradient
       inkscape:collect="always"
       xlink:href="#linearGradient9"
       id="radialGradient3"
       gradientUnits="userSpaceOnUse"
       gradientTransform="matrix(5.956662,0,0,5.956662,-139.31925,-182.04672)"
       cx="24.407768"
       cy="40.411434"
       fx="24.407768"
       fy="40.411434"
       r="11.125" />
    <filter
       inkscape:collect="always"
       style="color-interpolation-filters:sRGB"
       id="filter11"
       x="-0.10731784"
       y="-0.080488377"
       width="1.2146357"
       height="1.1609768">
      <feGaussianBlur
         inkscape:collect="always"
         stdDeviation="1.5472675"
         id="feGaussianBlur11" />
    </filter>
    <filter
       inkscape:collect="always"
       style="color-interpolation-filters:sRGB"
       id="filter12"
       x="-0.087805502"
       y="-0.068990037"
       width="1.175611"
       height="1.1379801">
      <feGaussianBlur
         inkscape:collect="always"
         stdDeviation="1.5472675"
         id="feGaussianBlur12" />
    </filter>
    <filter
       inkscape:collect="always"
       style="color-interpolation-filters:sRGB"
       id="filter1"
       x="-0.10367375"
       y="-0.10420182"
       width="1.2073475"
       height="1.2084036">
      <feGaussianBlur
         inkscape:collect="always"
         stdDeviation="2.2945474"
         id="feGaussianBlur1" />
    </filter>
  </defs>
  <rect
     style="fill:#325f78"
     width="44"
     height="56"
     x="-54"
     y="-60"
     rx="9.7091579"
     ry="9.7091579"
     transform="matrix(0,-1,-1,0,0,0)"
     id="rect2" />
  <rect
     style="opacity:0.2"
     width="36"
     height="48"
     x="-50"
     y="-56"
     rx="6.4494882"
     ry="6.4494882"
     transform="matrix(0,-1,-1,0,0,0)"
     id="rect3" />
  <rect
     style="fill:none;stroke:#000000;stroke-opacity:1;opacity:1;stroke-width:0.29999992;stroke-dasharray:none;filter:url(#filter12)"
     width="44"
     height="56"
     x="-54"
     y="-60"
     rx="9.7091579"
     ry="9.7091579"
     transform="matrix(0,-1,-1,0,0,0)"
     id="rect2-3" />
  <rect
     style="opacity:1;fill:none;stroke:#000000;stroke-opacity:1;stroke-width:0.29999992;stroke-dasharray:none;filter:url(#filter11)"
     width="36"
     height="48"
     x="-50"
     y="-56"
     rx="6.4494882"
     ry="6.4494882"
     transform="matrix(0,-1,-1,0,0,0)"
     id="rect3-5" />
  <g
     id="g11"
     transform="matrix(0.56466506,0,0,0.56466506,10.581426,7.2694841)"
     style="opacity:1;stroke-width:1.00059317;stroke-dasharray:none">
    <path
       d="m 9.2587732,18.877713 c -0.1329224,0.228533 -0.2661181,0.457299 -0.399169,0.686129 -2.0495495,3.824575 -3.1236785,8.095818 -3.1271307,12.434944 -1.732e-4,14.56359 11.8054795,26.370066 26.3690695,26.370909 0.134932,-0.0039 0.269832,-0.0088 0.404688,-0.01472 l 0.0056,-0.01104 c -0.04418,9.42e-4 -0.08826,0.0048 -0.132443,0.0056 -0.06982,3.77e-4 -0.1398,-0.0056 -0.209702,-0.0073 l 10.713182,-18.556762 0.294318,-0.445156 c 0,0 5e-6,-0.01907 0,-0.03679 -2.37686,3.637415 -6.482056,6.033523 -11.169375,6.033523 -5.786074,0 -10.687506,-3.648643 -12.541633,-8.779879 z"
       style="fill:#1cb363;stroke-width:1.00059317;stroke-dasharray:none"
       id="path9"
       clip-path="url(#clipPath3)"
       transform="translate(5.9314652,11.796788)" />
    <path
       d="m 54.84866,18.800454 c 0.0042,0.0073 0.0086,0.0147 0.01288,0.02208 H 34.075314 c 6.399224,0.988077 11.268708,6.493819 11.268708,13.178094 0,2.700521 -0.797529,5.207134 -2.166917,7.30277 4e-6,0.01771 0,0.03679 0,0.03679 L 42.882787,39.785338 32.169605,58.3421 c 0.0699,0.0018 0.139879,0.0077 0.209701,0.0073 0.364459,-0.0059 0.728757,-0.01943 1.092656,-0.04047 0.211213,-0.0098 0.422099,-0.01093 0.632784,-0.02575 0.830845,-0.06133 1.658318,-0.162006 2.479631,-0.301677 0.05414,-0.009 0.107796,-0.02005 0.161875,-0.02943 C 49.349049,55.731343 58.53845,44.782863 58.540514,31.985897 58.5286,27.353268 57.296492,22.805511 54.968227,18.800442 Z"
       style="fill:url(#linearGradient8);stroke-width:1.00059317;stroke-dasharray:none"
       id="path8"
       clip-path="url(#clipPath2)"
       transform="translate(5.9314652,11.796788)" />
    <path
       d="m 32.051877,5.6370736 c -0.152103,0.00359 -0.304174,0.0085 -0.456193,0.014716 -0.466377,0.0048 -0.932546,0.021977 -1.398011,0.051505 -0.02576,0.00364 -0.05151,0.00732 -0.07726,0.011037 -0.798603,0.059406 -1.594088,0.1551588 -2.383977,0.2869602 -0.08071,0.013261 -0.162258,0.023107 -0.242813,0.03679 -0.0049,8.419e-4 -0.0098,0.00282 -0.01472,0.00368 C 26.647626,6.1873325 25.823812,6.3727214 25.01031,6.5972904 23.314783,7.0684064 21.670665,7.7080593 20.102555,8.5066797 19.906155,8.615775 19.711153,8.72738 19.517601,8.8414628 15.233343,11.1611 11.675416,14.622249 9.2385388,18.840923 L 19.466096,36.557039 c -0.51328,-1.420486 -0.794659,-2.954649 -0.794659,-4.556414 0,-7.387852 5.948441,-13.336292 13.336293,-13.336292 0.70357,0 1.394019,0.05419 2.067584,0.158195 h 20.786223 c -0.439809,-0.76165 -0.917448,-1.500824 -1.431122,-2.214744 -0.503903,-0.697924 -1.041679,-1.370757 -1.611393,-2.01608 -0.02324,-0.02703 -0.04654,-0.054 -0.0699,-0.08094 -0.542735,-0.611154 -1.113595,-1.196744 -1.710724,-1.754873 -0.05983,-0.05546 -0.119923,-0.110649 -0.180269,-0.165554 -0.579301,-0.530675 -1.18203,-1.0352 -1.806379,-1.51206 C 47.967512,11.014 47.882899,10.95023 47.797899,10.886971 47.194545,10.437477 46.572227,10.014006 45.932658,9.6177271 45.81307,9.5431854 45.692887,9.4696034 45.572119,9.3969884 44.960769,9.0308593 44.334828,8.68966 43.69584,8.3742327 43.518977,8.2876272 43.341148,8.2030052 43.162389,8.1203832 42.571014,7.8468016 41.9697,7.5952316 41.359689,7.3661929 41.129133,7.2770958 40.897334,7.1912444 40.664363,7.1086645 40.09179,6.9121955 39.51262,6.7354996 38.927886,6.5788918 38.638545,6.4991297 38.347863,6.4243127 38.055968,6.3544741 37.518678,6.2296156 36.977601,6.1216456 36.433539,6.0307241 36.089997,5.9723934 35.745331,5.9208774 35.399746,5.8762071 34.908244,5.8132688 34.415065,5.7641962 33.920798,5.729048 33.302779,5.6765505 32.683097,5.6458732 32.062914,5.6370736 Z"
       style="fill:url(#linearGradient12);stroke-width:1.00059317;stroke-dasharray:none"
       id="path7"
       clip-path="url(#clipPath1)"
       transform="translate(5.9314652,11.796788)" />
    <path
       d="m 37.931465,30.460495 c -7.387859,0 -13.336292,5.948433 -13.336292,13.336292 0,7.387859 5.948433,13.336293 13.336292,13.336293 7.387859,0 13.336292,-5.948434 13.336292,-13.336292 0,-7.387859 -5.948433,-13.336293 -13.336292,-13.336293 z"
       style="fill:#ffffff;fill-opacity:1;stroke-width:1.00059317;stroke-dasharray:none"
       id="path6"
       sodipodi:nodetypes="sssss" />
    <path
       d="m 37.939195,34.421796 c -5.194175,0 -9.375618,4.181443 -9.375618,9.375617 0,5.194174 4.181443,9.375618 9.375618,9.375618 5.194174,0 9.375617,-4.181444 9.375617,-9.375618 0,-5.194174 -4.181443,-9.375617 -9.375617,-9.375617 z"
       style="fill:url(#radialGradient10);stroke-width:1.00059317;stroke-dasharray:none"
       id="path5" />
    <path
       d="M 31.959825,5.5776509 C 20.841913,5.4133996 10.191829,13.080609 6.8212399,23.640607 3.1240308,34.146613 7.0663375,46.696874 16.119484,53.199199 c 9.20805,7.097046 23.025432,6.925155 32.11715,-0.282231 C 57.203769,46.238192 60.953941,33.550894 56.979545,23.091299 53.429032,12.947015 43.20099,5.6828713 32.446162,5.5882886 c -1.534192,0.5698342 3.193323,0.404919 3.869077,0.7530777 7.447034,1.2186024 14.28315,5.8228197 18.108379,12.3422857 -1.902208,0.05243 -4.288031,0.0065 -6.372025,0.02198 -5.610006,-0.04739 -11.231914,0.121196 -16.830162,-0.14005 -7.53806,0.149608 -13.840826,7.54803 -12.737855,15.016435 0.708183,2.73993 -0.431665,0.213808 -1.090397,-0.823988 C 14.717295,28.144667 12.041411,23.531306 9.3655271,18.917944 13.91488,11.006462 22.83382,5.874804 31.963435,5.9513261 c -0.01369,-0.1112553 0.01337,-0.2657115 -0.0036,-0.3736752 z m -0.04048,13.3439561 c 7.137531,-0.163272 13.538099,6.41716 13.049845,13.586128 -0.112757,6.161212 -5.058546,11.78042 -11.220801,12.468204 C 26.807961,46.129318 19.615515,40.785706 18.884647,33.744971 17.727002,26.653914 23.453026,19.475227 30.612055,18.984925 l 0.649366,-0.04728 0.657948,-0.01592 z m 3.770316,0.157505 c 6.329862,0 12.659724,0 18.989586,0 5.590498,9.318119 4.321195,22.059526 -2.995238,30.097618 -4.794413,5.499504 -11.980496,8.806965 -19.275264,8.875673 3.919688,-6.793618 7.907823,-13.570347 11.789748,-20.369645 3.279726,-6.592135 -0.09919,-15.375742 -6.963399,-18.056995 -0.503429,-0.21332 -1.020028,-0.395987 -1.545433,-0.546651 z M 9.1631184,19.320863 c 3.3734386,5.8975 6.8963466,11.72372 10.1758426,17.66602 2.458115,6.586532 10.497239,10.21192 17.074747,7.731241 1.556102,-0.07512 4.826562,-3.135862 4.723596,-2.627777 C 38.046862,47.417748 34.956421,52.745148 31.86598,58.072549 20.083337,58.226677 8.9668814,49.407735 6.4911892,37.878715 5.0357113,31.646238 5.9850235,24.88172 9.1631184,19.320863 Z"
       style="opacity:1;stroke-width:0;stroke-dasharray:none;mix-blend-mode:normal;stroke:#000000;stroke-linejoin:round;stroke-opacity:1;filter:url(#filter1)"
       id="path13"
       transform="translate(5.9314649,11.796788)" />
  </g>
</svg>
