<?xml version="1.0" encoding="UTF-8" standalone="no"?>
<svg
   width="64"
   height="64"
   version="1"
   id="svg7"
   sodipodi:docname="com.endlessm.photos.svg"
   inkscape:version="1.4 (e7c3feb100, 2024-10-09)"
   xmlns:inkscape="http://www.inkscape.org/namespaces/inkscape"
   xmlns:sodipodi="http://sodipodi.sourceforge.net/DTD/sodipodi-0.dtd"
   xmlns:xlink="http://www.w3.org/1999/xlink"
   xmlns="http://www.w3.org/2000/svg"
   xmlns:svg="http://www.w3.org/2000/svg">
  <defs
     id="defs7">
    <radialGradient
       inkscape:collect="always"
       xlink:href="#linearGradient10"
       id="radialGradient11"
       cx="34.967323"
       cy="54.234669"
       fx="34.967323"
       fy="54.234669"
       r="4.5"
       gradientUnits="userSpaceOnUse"
       gradientTransform="matrix(4.5493987,0,0,4.5493987,-129.26092,-189.73977)" />
    <linearGradient
       id="linearGradient10"
       inkscape:collect="always">
      <stop
         style="stop-color:#ffffff;stop-opacity:1;"
         offset="0"
         id="stop10" />
      <stop
         style="stop-color:#dcdcdc;stop-opacity:1;"
         offset="1"
         id="stop11" />
    </linearGradient>
    <radialGradient
       inkscape:collect="always"
       xlink:href="#linearGradient8"
       id="radialGradient3"
       cx="42.896454"
       cy="26.235332"
       fx="42.896454"
       fy="26.235332"
       r="27.972471"
       gradientTransform="matrix(0,-1.8667819,1.5957138,0,1.0323728,107.15123)"
       gradientUnits="userSpaceOnUse" />
    <linearGradient
       id="linearGradient8"
       inkscape:collect="always">
      <stop
         style="stop-color:#ffd48e;stop-opacity:1;"
         offset="0"
         id="stop8" />
      <stop
         style="stop-color:#ff803a;stop-opacity:1;"
         offset="1"
         id="stop9" />
    </linearGradient>
    <inkscape:path-effect
       effect="fillet_chamfer"
       id="path-effect3"
       is_visible="true"
       lpeversion="1"
       nodesatellites_param="F,0,1,1,0,11.17963,0,1 @ F,0,1,1,0,11.17963,0,1 @ F,0,1,1,0,11.17963,0,1 @ F,0,1,1,0,11.17963,0,1"
       radius="0"
       unit="px"
       method="auto"
       mode="F"
       chamfer_steps="1"
       flexible="false"
       use_knot_distance="true"
       apply_no_radius="true"
       apply_with_radius="true"
       only_selected="false"
       hide_knots="false" />
    <inkscape:path-effect
       effect="fillet_chamfer"
       id="path-effect4"
       is_visible="true"
       lpeversion="1"
       nodesatellites_param="F,0,0,1,0,0,0,1 @ F,0,0,1,0,0,0,1 @ F,0,1,1,0,11.042056,0,1 @ F,0,0,1,0,11.042056,0,1"
       radius="0"
       unit="px"
       method="auto"
       mode="F"
       chamfer_steps="1"
       flexible="false"
       use_knot_distance="true"
       apply_no_radius="true"
       apply_with_radius="true"
       only_selected="false"
       hide_knots="false" />
  </defs>
  <sodipodi:namedview
     id="namedview7"
     pagecolor="#505050"
     bordercolor="#eeeeee"
     borderopacity="1"
     inkscape:showpageshadow="0"
     inkscape:pageopacity="0"
     inkscape:pagecheckerboard="0"
     inkscape:deskcolor="#505050"
     inkscape:zoom="18.453125"
     inkscape:cx="31.972904"
     inkscape:cy="32"
     inkscape:current-layer="svg7" />
  <g
     id="g7"
     transform="translate(5.1479493,-2.7606986)">
    <g
       id="g4"
       transform="translate(-5.1069026,2.757167)">
      <path
         id="rect1"
         style="opacity:1;fill:url(#radialGradient3);fill-opacity:1;stroke:none;stroke-width:0.3;stroke-linecap:round;stroke-linejoin:round;stroke-miterlimit:2.1;paint-order:markers stroke fill"
         d="m 15.340651,8.2428331 h 33.285683 a 11.17963,11.17963 45 0 1 11.17963,11.1796299 l 0,25.162137 a 11.17963,11.17963 135 0 1 -11.17963,11.17963 l -33.285683,0 A 11.17963,11.17963 45 0 1 4.1610208,44.5846 V 19.422463 A 11.17963,11.17963 135 0 1 15.340651,8.2428331 Z"
         inkscape:path-effect="#path-effect3"
         inkscape:original-d="M 4.1610208,8.2428331 H 59.805964 V 55.76423 H 4.1610208 Z" />
      <path
         style="fill:#fffee4;fill-rule:evenodd"
         d="m 44,18 c 4.4182,0 8,3.5818 8,8 0,4.4182 -3.5818,8 -8,8 -4.4182,0 -8,-3.5818 -8,-8 0,-4.4182 3.5818,-8 8,-8 z"
         id="path5" />
      <path
         style="fill:#441b00;fill-opacity:1;stroke-width:0.993621"
         d="m 4.1611265,43.848442 v -1.72628 c 0,0 4.012797,-2.877064 5.1408017,-3.128023 1.1281588,-0.251001 2.4605008,-0.04683 3.8297638,0.233911 1.369243,0.279657 3.413422,1.055305 4.051349,1.078956 0.63801,0.02418 1.792525,-0.06042 3.134006,-0.148461 1.341441,-0.08631 3.562469,-0.165721 4.25525,-0.157091 0.692798,0 2.422344,0.103574 4.265782,0.225776 1.843579,0.122568 4.375682,0.327326 4.950215,0.384615 0.574535,0.05697 1.249847,0.162272 2.016336,0.277091 0.76637,0.113931 2.093245,0.286024 2.56245,0.333345 0.469346,0.04639 1.557504,0.209095 2.820009,0.335245 1.262544,0.126016 3.283053,0.169175 3.866529,0.122566 0.583498,-0.04683 1.806534,-0.515733 3.169579,-0.948165 1.362942,-0.432261 2.865914,-0.828098 4.00902,-0.730218 1.140723,0.09925 7.571691,2.120715 7.571691,2.120715 v 1.72628 H 10.915829 Z"
         id="path7" />
      <path
         id="rect2"
         style="opacity:0.634609;mix-blend-mode:normal;fill:#ff3b00;fill-opacity:1;stroke:none;stroke-width:0.3;stroke-linecap:round;stroke-linejoin:round;stroke-miterlimit:2.1;paint-order:markers stroke fill"
         d="M 4.1069026,43.835411 H 59.811004 v 0.863064 A 11.042056,11.042056 135 0 1 48.768948,55.740531 l -33.619989,0 A 11.042056,11.042056 45 0 1 4.1069026,44.698475 Z"
         inkscape:path-effect="#path-effect4"
         inkscape:original-d="M 4.1069026,43.835411 H 59.811004 v 11.90512 H 4.1069026 Z" />
    </g>
    <rect
       style="opacity:0.3"
       width="40"
       height="3"
       x="6.8520508"
       y="50.746849"
       rx="1.429"
       ry="1.5"
       id="rect4" />
    <circle
       style="fill:url(#radialGradient11)"
       cx="34.352051"
       cy="52.246849"
       r="4.5"
       id="circle5" />
  </g>
</svg>
