<?xml version="1.0" encoding="UTF-8" standalone="no"?>
<svg
   width="64"
   height="64"
   version="1"
   id="svg8"
   sodipodi:docname="com.bixense.PasswordCalculator.svg"
   inkscape:version="1.3.2 (091e20ef0f, 2023-11-25, custom)"
   xmlns:inkscape="http://www.inkscape.org/namespaces/inkscape"
   xmlns:sodipodi="http://sodipodi.sourceforge.net/DTD/sodipodi-0.dtd"
   xmlns:xlink="http://www.w3.org/1999/xlink"
   xmlns="http://www.w3.org/2000/svg"
   xmlns:svg="http://www.w3.org/2000/svg">
  <defs
     id="defs8">
    <linearGradient
       id="linearGradient12"
       inkscape:collect="always">
      <stop
         style="stop-color:#e8973e;stop-opacity:1;"
         offset="0"
         id="stop13" />
      <stop
         style="stop-color:#e8733e;stop-opacity:1;"
         offset="1"
         id="stop14" />
    </linearGradient>
    <inkscape:path-effect
       effect="fillet_chamfer"
       id="path-effect12"
       is_visible="true"
       lpeversion="1"
       nodesatellites_param="F,0,0,1,0,0,0,1 @ F,0,0,1,0,0,0,1 @ F,0,0,1,0,0,0,1 @ F,0,0,1,0,0,0,1 @ F,0,0,1,0,0,0,1 @ F,0,0,1,0,0,0,1 @ F,0,0,1,0,0,0,1 @ F,0,0,1,0,0,0,1 @ F,0,0,1,0,0,0,1 @ F,0,0,1,0,0,0,1 @ F,0,0,1,0,0,0,1 @ F,0,0,1,0,0,0,1 @ F,0,0,1,0,0,0,1 @ F,0,0,1,0,0,0,1"
       radius="0"
       unit="px"
       method="auto"
       mode="F"
       chamfer_steps="1"
       flexible="false"
       use_knot_distance="true"
       apply_no_radius="true"
       apply_with_radius="true"
       only_selected="false"
       hide_knots="false" />
    <linearGradient
       id="linearGradient11"
       inkscape:collect="always">
      <stop
         style="stop-color:#f7ba3f;stop-opacity:1;"
         offset="0"
         id="stop11" />
      <stop
         style="stop-color:#f79f3f;stop-opacity:1;"
         offset="1"
         id="stop12" />
    </linearGradient>
    <filter
       inkscape:collect="always"
       style="color-interpolation-filters:sRGB"
       id="filter11"
       x="-0.066806809"
       y="-0.06680681"
       width="1.1336136"
       height="1.1336136">
      <feGaussianBlur
         inkscape:collect="always"
         stdDeviation="1.5671981"
         id="feGaussianBlur11" />
    </filter>
    <radialGradient
       inkscape:collect="always"
       xlink:href="#linearGradient11"
       id="radialGradient12"
       cx="9.3311911"
       cy="24.5361"
       fx="9.3311911"
       fy="24.5361"
       r="28"
       gradientUnits="userSpaceOnUse"
       gradientTransform="matrix(1.8059445,1.8059445,-1.8059445,1.8059445,36.790413,-36.626348)" />
    <radialGradient
       inkscape:collect="always"
       xlink:href="#linearGradient12"
       id="radialGradient14"
       cx="29.227177"
       cy="35.013813"
       fx="29.227177"
       fy="35.013813"
       r="22.074609"
       gradientTransform="matrix(0.93315525,1.6162723,-1.4350849,0.82854663,52.201476,-40.632037)"
       gradientUnits="userSpaceOnUse" />
  </defs>
  <sodipodi:namedview
     id="namedview8"
     pagecolor="#ffffff"
     bordercolor="#000000"
     borderopacity="0.25"
     inkscape:showpageshadow="2"
     inkscape:pageopacity="0.0"
     inkscape:pagecheckerboard="0"
     inkscape:deskcolor="#d1d1d1"
     inkscape:zoom="9.1260969"
     inkscape:cx="29.530697"
     inkscape:cy="32.653609"
     inkscape:window-width="1920"
     inkscape:window-height="1020"
     inkscape:window-x="0"
     inkscape:window-y="0"
     inkscape:window-maximized="1"
     inkscape:current-layer="svg8" />
  <path
     style="fill:url(#radialGradient14)"
     d="M 30.000487,25.29566 15.850782,25.749218 30.501563,40 H 36 v 5 h 4 v 4 h 6 v 5 h 3.000219 v 4.698437 L 50.301782,60 H 60 L 52.981632,48.658299 Z"
     id="path2"
     sodipodi:nodetypes="ccccccccccccccc"
     inkscape:path-effect="#path-effect12"
     inkscape:original-d="M 30.000487,25.29566 15.850782,25.749218 30.501563,40 H 36 v 5 h 4 v 4 h 6 v 5 h 3.000219 v 4.698437 L 50.301782,60 H 60 L 52.981632,48.658299 Z" />
  <path
     id="path4"
     style="fill:url(#radialGradient12);fill-opacity:1"
     d="M 21 4 A 17 17 0 0 0 4 21 A 17 17 0 0 0 21 38 A 17 17 0 0 0 32.990234 32.990234 L 60 60 L 60 50.101562 L 36.869141 26.970703 A 17 17 0 0 0 38 21 A 17 17 0 0 0 21 4 z M 17 10 A 7 7 0 0 1 24 17 A 7 7 0 0 1 17 24 A 7 7 0 0 1 10 17 A 7 7 0 0 1 17 10 z " />
  <path
     id="path10"
     style="color:#000000;fill:#000000;stroke-linejoin:round;-inkscape-stroke:none;filter:url(#filter11)"
     d="M 20.966797 3.7675781 C 11.496918 3.7675781 3.8164062 11.448089 3.8164062 20.917969 C 3.8164062 30.387846 11.496918 38.068359 20.966797 38.068359 C 23.100055 38.06068 25.187053 37.648559 27.134766 36.884766 L 30.363281 40.025391 A 0.15001501 0.15001501 0 0 0 30.46875 40.068359 L 35.816406 40.068359 L 35.816406 44.917969 A 0.15001501 0.15001501 0 0 0 35.966797 45.068359 L 39.816406 45.068359 L 39.816406 48.917969 A 0.15001501 0.15001501 0 0 0 39.966797 49.068359 L 45.816406 49.068359 L 45.816406 53.917969 A 0.15001501 0.15001501 0 0 0 45.966797 54.068359 L 48.816406 54.068359 L 48.816406 58.617188 A 0.15001501 0.15001501 0 0 0 48.861328 58.722656 L 50.164062 60.023438 A 0.15001501 0.15001501 0 0 0 50.269531 60.068359 L 59.966797 60.068359 A 0.15001501 0.15001501 0 0 0 60.003906 60.052734 A 0.15001501 0.15001501 0 0 0 60.035156 60.039062 A 0.15001501 0.15001501 0 0 0 60.111328 59.925781 A 0.15001501 0.15001501 0 0 0 60.117188 59.917969 L 60.117188 50.019531 A 0.15001501 0.15001501 0 0 0 60.072266 49.914062 L 37.003906 26.845703 C 37.719266 24.950627 38.102018 22.946001 38.117188 20.919922 A 0.15001501 0.15001501 0 0 0 38.117188 20.917969 C 38.117188 11.448089 30.436675 3.767578 20.966797 3.7675781 z M 20.966797 4.0683594 C 30.274543 4.0683593 37.816406 11.610221 37.816406 20.917969 C 37.801026 22.941284 37.421113 24.945255 36.695312 26.833984 A 0.15001501 0.15001501 0 0 0 36.730469 26.994141 L 59.816406 50.082031 L 59.816406 59.556641 L 33.0625 32.802734 A 0.15001501 0.15001501 0 0 0 32.957031 32.757812 A 0.15001501 0.15001501 0 0 0 32.851562 32.802734 C 32.654836 33.000467 32.453347 33.19204 32.248047 33.378906 C 32.238854 33.387267 32.229913 33.395958 32.220703 33.404297 C 32.17339 33.44717 32.123923 33.487005 32.076172 33.529297 C 31.90671 33.679248 31.735382 33.828175 31.560547 33.970703 C 31.343682 34.147494 31.123128 34.317209 30.898438 34.482422 C 30.890987 34.4879 30.884412 34.494534 30.876953 34.5 C 30.839926 34.527176 30.800902 34.551265 30.763672 34.578125 C 30.573703 34.714945 30.382604 34.85 30.1875 34.978516 C 30.180871 34.982882 30.174604 34.98783 30.167969 34.992188 C 30.146245 35.006479 30.123348 35.019015 30.101562 35.033203 C 29.885661 35.173553 29.667035 35.3113 29.445312 35.441406 C 29.442046 35.443323 29.438815 35.445351 29.435547 35.447266 C 29.424468 35.453768 29.413437 35.460321 29.402344 35.466797 C 29.176764 35.598271 28.947953 35.722998 28.716797 35.84375 C 28.678328 35.863874 28.640179 35.884474 28.601562 35.904297 C 28.386007 36.014799 28.167236 36.121548 27.947266 36.222656 C 27.90913 36.240195 27.870295 36.256185 27.832031 36.273438 C 27.611249 36.37294 27.388879 36.466675 27.164062 36.556641 C 25.210518 37.338164 23.111529 37.759857 20.966797 37.767578 C 11.65905 37.767578 4.1171875 30.225714 4.1171875 20.917969 C 4.1171875 11.610221 11.65905 4.0683594 20.966797 4.0683594 z M 16.966797 9.7675781 C 13.019745 9.7675781 9.8164061 12.970917 9.8164062 16.917969 C 9.8164062 20.86502 13.019746 24.068359 16.966797 24.068359 C 20.913848 24.068359 24.117188 20.86502 24.117188 16.917969 C 24.117188 12.970917 20.913848 9.7675781 16.966797 9.7675781 z M 16.966797 10.068359 C 20.751712 10.068359 23.816406 13.133053 23.816406 16.917969 C 23.816406 20.702884 20.751712 23.767578 16.966797 23.767578 C 13.181881 23.767578 10.117187 20.702884 10.117188 16.917969 C 10.117188 13.133053 13.181881 10.068359 16.966797 10.068359 z M 32.947266 33.109375 L 59.605469 59.767578 L 50.332031 59.767578 L 49.117188 58.554688 L 49.117188 53.917969 A 0.15001501 0.15001501 0 0 0 48.966797 53.767578 L 46.117188 53.767578 L 46.117188 48.917969 A 0.15001501 0.15001501 0 0 0 45.966797 48.767578 L 40.117188 48.767578 L 40.117188 44.917969 A 0.15001501 0.15001501 0 0 0 39.966797 44.767578 L 36.117188 44.767578 L 36.117188 39.917969 A 0.15001501 0.15001501 0 0 0 35.966797 39.767578 L 30.529297 39.767578 L 27.443359 36.765625 C 27.670103 36.671612 27.88682 36.554855 28.109375 36.451172 C 28.167029 36.42452 28.223886 36.396419 28.28125 36.369141 C 29.492178 35.788556 30.644413 35.081591 31.697266 34.226562 C 31.881832 34.077528 32.061511 33.922887 32.240234 33.765625 C 32.271056 33.738412 32.303339 33.712996 32.333984 33.685547 C 32.334668 33.684936 32.335254 33.684205 32.335938 33.683594 C 32.543898 33.497264 32.747698 33.306461 32.947266 33.109375 z " />
</svg>
