<?xml version="1.0" encoding="UTF-8" standalone="no"?>
<svg
   width="64"
   height="64"
   version="1"
   id="svg4"
   sodipodi:docname="cs-applets.svg"
   inkscape:version="1.3.2 (091e20ef0f, 2023-11-25, custom)"
   xmlns:inkscape="http://www.inkscape.org/namespaces/inkscape"
   xmlns:sodipodi="http://sodipodi.sourceforge.net/DTD/sodipodi-0.dtd"
   xmlns:xlink="http://www.w3.org/1999/xlink"
   xmlns="http://www.w3.org/2000/svg"
   xmlns:svg="http://www.w3.org/2000/svg">
  <defs
     id="defs4">
    <linearGradient
       id="linearGradient6"
       inkscape:collect="always">
      <stop
         style="stop-color:#00daff;stop-opacity:1;"
         offset="0"
         id="stop6" />
      <stop
         style="stop-color:#009bff;stop-opacity:1;"
         offset="1"
         id="stop7" />
    </linearGradient>
    <radialGradient
       inkscape:collect="always"
       xlink:href="#linearGradient6"
       id="radialGradient7"
       cx="-43.319752"
       cy="-12.758696"
       fx="-43.319752"
       fy="-12.758696"
       r="22"
       gradientTransform="matrix(2.7255403e-8,-2.5079296,2.0744966,0,15.829601,-113.97581)"
       gradientUnits="userSpaceOnUse" />
    <filter
       inkscape:collect="always"
       style="color-interpolation-filters:sRGB"
       id="filter1"
       x="-0.029326209"
       y="-0.13929949"
       width="1.0586524"
       height="1.278599">
      <feGaussianBlur
         inkscape:collect="always"
         stdDeviation="0.432385"
         id="feGaussianBlur1" />
    </filter>
    <filter
       inkscape:collect="always"
       style="color-interpolation-filters:sRGB"
       id="filter2"
       x="-0.11952786"
       y="-0.089645901"
       width="1.2390557"
       height="1.1792918">
      <feGaussianBlur
         inkscape:collect="always"
         stdDeviation="1.6082738"
         id="feGaussianBlur2" />
    </filter>
    <filter
       inkscape:collect="always"
       style="color-interpolation-filters:sRGB"
       id="filter3"
       x="-0.1390653"
       y="-0.10926559"
       width="1.2781306"
       height="1.2185312">
      <feGaussianBlur
         inkscape:collect="always"
         stdDeviation="2.4870305"
         id="feGaussianBlur3" />
    </filter>
  </defs>
  <sodipodi:namedview
     id="namedview4"
     pagecolor="#ffffff"
     bordercolor="#000000"
     borderopacity="0.25"
     inkscape:showpageshadow="2"
     inkscape:pageopacity="0.0"
     inkscape:pagecheckerboard="0"
     inkscape:deskcolor="#d1d1d1"
     inkscape:zoom="9.8111066"
     inkscape:cx="36.438295"
     inkscape:cy="33.125723"
     inkscape:window-width="1920"
     inkscape:window-height="1020"
     inkscape:window-x="0"
     inkscape:window-y="0"
     inkscape:window-maximized="1"
     inkscape:current-layer="svg4" />
  <rect
     style="fill:url(#radialGradient7);stroke-width:0.934504"
     width="41.118187"
     height="52.332237"
     x="-52.556416"
     y="-58.166073"
     rx="6.8426719"
     ry="6.8426719"
     transform="matrix(0,-1,-1,0,0,0)"
     id="rect1" />
  <rect
     style="opacity:0.273186;fill:#ffffff;fill-opacity:1;stroke-width:0.87084"
     width="31.35025"
     height="41.800331"
     x="-47.672443"
     y="-52.900116"
     rx="3.9005466"
     ry="3.9005466"
     transform="matrix(0,-1,-1,0,0,0)"
     id="rect2" />
  <path
     style="fill:#ffffff;stroke-width:0.912138"
     d="m 15.88611,37.018053 c -0.673768,0 -1.216776,0.543009 -1.216776,1.216777 v 4.863549 c 0,0.673768 0.543008,1.216777 1.216776,1.216777 h 4.863549 c 0.673769,0 1.216777,-0.543009 1.216777,-1.216777 V 38.23483 c 0,-0.673768 -0.543008,-1.216777 -1.216777,-1.216777 z m 9.12138,0 c -0.673769,0 -1.216778,0.543009 -1.216778,1.216777 v 4.863549 c 0,0.673768 0.543009,1.216777 1.216778,1.216777 h 4.863548 c 0.673769,0 1.216777,-0.543009 1.216777,-1.216777 V 38.23483 c 0,-0.673768 -0.543008,-1.216777 -1.216777,-1.216777 z m 9.121377,0 c -0.673769,0 -1.216777,0.543009 -1.216777,1.216777 v 4.863549 c 0,0.673768 0.543008,1.216777 1.216777,1.216777 h 4.863548 c 0.673769,0 1.216778,-0.543009 1.216778,-1.216777 V 38.23483 c 0,-0.673768 -0.543009,-1.216777 -1.216778,-1.216777 z m 9.121379,0 c -0.673769,0 -1.216777,0.543009 -1.216777,1.216777 v 4.863549 c 0,0.673768 0.543008,1.216777 1.216777,1.216777 h 4.863548 c 0.673769,0 1.216777,-0.543009 1.216777,-1.216777 V 38.23483 c 0,-0.673768 -0.543008,-1.216777 -1.216777,-1.216777 z"
     id="path4" />
  <rect
     style="opacity:1;mix-blend-mode:normal;fill:none;stroke:#000000;stroke-width:0.3;stroke-dasharray:none;stroke-opacity:1;filter:url(#filter3)"
     width="44"
     height="56"
     x="-53.959087"
     y="-59.999275"
     rx="7.322248"
     ry="7.322248"
     transform="matrix(0,-0.93450426,-0.93450426,0,2.0958161,2.0931841)"
     id="rect1-5" />
  <rect
     style="opacity:1;mix-blend-mode:normal;fill:none;fill-opacity:1;stroke:#000000;stroke-width:0.3;stroke-dasharray:none;stroke-opacity:1;filter:url(#filter2)"
     width="33.547466"
     height="44.729954"
     x="-48.732819"
     y="-54.36425"
     rx="4.1739206"
     ry="4.1739206"
     transform="matrix(0,-0.93450426,-0.93450426,0,2.0958161,2.0931841)"
     id="rect2-3" />
  <path
     style="opacity:1;fill:none;stroke:#0043ff;stroke-width:0.1;stroke-dasharray:none;stroke-opacity:1;filter:url(#filter1)"
     d="m 14.756076,37.331704 c -0.72099,0 -1.302056,0.581066 -1.302056,1.302056 v 5.204416 c 0,0.72099 0.581066,1.302056 1.302056,1.302056 h 5.204416 c 0.72099,0 1.302056,-0.581066 1.302056,-1.302056 V 38.63376 c 0,-0.72099 -0.581066,-1.302056 -1.302056,-1.302056 z m 9.760661,0 c -0.720991,0 -1.302057,0.581066 -1.302057,1.302056 v 5.204416 c 0,0.72099 0.581066,1.302056 1.302057,1.302056 h 5.204415 c 0.720991,0 1.302056,-0.581066 1.302056,-1.302056 V 38.63376 c 0,-0.72099 -0.581065,-1.302056 -1.302056,-1.302056 z m 9.760659,0 c -0.720991,0 -1.302056,0.581066 -1.302056,1.302056 v 5.204416 c 0,0.72099 0.581065,1.302056 1.302056,1.302056 h 5.204415 c 0.720991,0 1.302057,-0.581066 1.302057,-1.302056 V 38.63376 c 0,-0.72099 -0.581066,-1.302056 -1.302057,-1.302056 z m 9.76066,0 c -0.72099,0 -1.302056,0.581066 -1.302056,1.302056 v 5.204416 c 0,0.72099 0.581066,1.302056 1.302056,1.302056 h 5.204416 c 0.72099,0 1.302056,-0.581066 1.302056,-1.302056 V 38.63376 c 0,-0.72099 -0.581066,-1.302056 -1.302056,-1.302056 z"
     id="path4-5"
     transform="matrix(0.93450426,0,0,0.93450426,2.0958161,2.0931841)" />
</svg>
