<?xml version="1.0" encoding="UTF-8" standalone="no"?>
<svg
   width="64"
   height="64"
   version="1"
   id="svg5"
   sodipodi:docname="steam_icon_240.svg"
   inkscape:version="1.3.2 (091e20ef0f, 2023-11-25, custom)"
   xmlns:inkscape="http://www.inkscape.org/namespaces/inkscape"
   xmlns:sodipodi="http://sodipodi.sourceforge.net/DTD/sodipodi-0.dtd"
   xmlns:xlink="http://www.w3.org/1999/xlink"
   xmlns="http://www.w3.org/2000/svg"
   xmlns:svg="http://www.w3.org/2000/svg">
  <defs
     id="defs5">
    <filter
       inkscape:collect="always"
       style="color-interpolation-filters:sRGB"
       id="filter10"
       x="-0.058748133"
       y="-0.041961068"
       width="1.1175039"
       height="1.0838721">
      <feGaussianBlur
         inkscape:collect="always"
         stdDeviation="0.52155802"
         id="feGaussianBlur10" />
    </filter>
    <filter
       inkscape:collect="always"
       style="color-interpolation-filters:sRGB"
       id="filter11"
       x="-0.068500605"
       y="-0.068500605"
       width="1.1370012"
       height="1.1370012">
      <feGaussianBlur
         inkscape:collect="always"
         stdDeviation="1.0583434"
         id="feGaussianBlur11" />
    </filter>
    <filter
       inkscape:collect="always"
       style="color-interpolation-filters:sRGB"
       id="filter12"
       x="-0.10418617"
       y="-0.10418532"
       width="1.2083723"
       height="1.2083706">
      <feGaussianBlur
         inkscape:collect="always"
         stdDeviation="2.3475819"
         id="feGaussianBlur12" />
    </filter>
    <radialGradient
       inkscape:collect="always"
       xlink:href="#linearGradient5"
       id="radialGradient6"
       cx="69.588242"
       cy="14.079489"
       fx="69.588242"
       fy="14.079489"
       r="27.998899"
       gradientTransform="matrix(1.4776977e-8,2.9302486,-2.9302725,0,46.913729,-198.70639)"
       gradientUnits="userSpaceOnUse" />
    <linearGradient
       id="linearGradient5"
       inkscape:collect="always">
      <stop
         style="stop-color:#60e5e8;stop-opacity:1;"
         offset="0"
         id="stop5" />
      <stop
         style="stop-color:#0090ff;stop-opacity:1;"
         offset="1"
         id="stop6" />
    </linearGradient>
  </defs>
  <sodipodi:namedview
     id="namedview5"
     pagecolor="#505050"
     bordercolor="#eeeeee"
     borderopacity="1"
     inkscape:showpageshadow="0"
     inkscape:pageopacity="0"
     inkscape:pagecheckerboard="0"
     inkscape:deskcolor="#505050"
     inkscape:zoom="12.109375"
     inkscape:cx="32"
     inkscape:cy="31.95871"
     inkscape:window-width="1920"
     inkscape:window-height="1011"
     inkscape:window-x="0"
     inkscape:window-y="0"
     inkscape:window-maximized="1"
     inkscape:current-layer="svg5" />
  <path
     style="fill:url(#radialGradient6);stroke-width:0.942019"
     d="m 31.724296,5.6331127 -0.02208,0.014714 C 17.229576,5.8083429 5.6239944,17.497385 5.6239944,32.008648 c 0,14.612244 11.7636486,26.375893 26.3758926,26.375893 14.391064,0 25.993442,-11.416806 26.34198,-25.720264 0,0 0.0228,-0.450707 0.03312,-0.654989 V 11.285373 c 0,-3.1311959 -2.520782,-5.6519777 -5.651978,-5.6519777 H 31.999096 Z"
     id="path2" />
  <circle
     style="fill:#353535;stroke-width:0.942019"
     cx="31.999058"
     cy="32.000942"
     r="18.840382"
     id="circle3" />
  <path
     style="fill:#ffffff;fill-opacity:1;fill-rule:evenodd;stroke-width:1.0837"
     d="m 34.979303,22.598419 c -0.103948,1.222903 -0.920558,0.703824 -1.804705,1.371085 -0.238517,-0.03652 -0.510562,-0.03652 -0.884148,-0.03652 -0.06752,-0.815464 0.204988,-0.963645 0.33958,-1.111761 0.544568,-0.445043 0.920559,-0.222262 0.920559,-0.222262 0.407591,-0.07508 0.7807,0.03652 1.428692,-5.87e-4 z m 2.04034,-2.001912 h -1.1897 v -0.333381 h -0.64563 v 0.1847 c -0.06992,0.03652 -0.137453,0.111641 -0.204988,0.148183 h -0.06752 c -1.125589,-0.963647 -1.192561,1.001204 -1.942138,0.556161 -0.06751,-0.408002 -0.03355,-0.778943 -0.03355,-1.260527 1.293646,-0.0376 0.816613,-0.407982 0.443504,-0.889545 -0.13457,-0.18574 -0.204987,-0.482083 -0.238517,-0.667304 -0.305595,-1.221299 -1.564823,-1.962532 -3.400565,-1.184238 -1.192561,0.481563 -0.884148,2.224131 -0.783084,3.410103 -0.06752,0.110621 -0.204987,0.0741 -0.306051,0.0741 -1.293646,0.07413 -1.871807,1.555764 -2.144286,2.742342 0.06752,1.075243 -0.06751,2.261194 -0.238515,3.298268 -0.171005,1.037725 -0.510563,1.853233 -0.544568,2.853744 -0.06752,0.889544 0.238516,1.92727 0.171003,2.742777 -0.715571,2.298254 -1.226654,3.817563 -1.599718,6.264064 -0.272045,0.555643 -1.223706,1.741571 -1.599718,2.001415 -0.101044,0.184701 0.06751,0.593202 -0.101044,0.852004 -0.306051,0.481564 -0.783085,0.741385 -1.05515,1.260529 0.06751,0.110622 -0.4095,0.222262 -0.373109,0.407982 0.03355,0.184702 0.272044,0.666264 0.373109,0.777904 0.03355,0.07413 0.373107,-0.11164 0.373107,0 0.137454,0.444003 0.443526,1.371085 0.783085,1.59339 1.498632,0.184679 1.498632,0.184679 2.110279,0 0.339581,-1.075243 -1.156214,-0.593204 -1.021644,-2.038931 2.043201,-0.444003 2.688377,-1.074744 3.505033,-3.409453 0.373108,-1.705052 0.884147,-3.37239 1.666797,-5.003319 0.13457,-0.110621 0.101067,-0.407461 0.339581,-0.519122 0.917675,1.667447 2.587378,2.854395 3.401649,4.596508 0.204988,2.260541 0.614486,3.483576 1.327241,3.89147 0.171002,0.0741 0,0.777903 0.137474,0.926063 0,0.222262 0.06752,0.481563 -0.03355,0.741363 -0.06992,0.185741 -0.03353,0.407981 -0.03353,0.593202 v 0.222262 c 0.03353,0.334941 0.101065,0.334941 0.407114,0.593203 0.884147,0.629721 2.076794,1.630928 3.266408,0.889544 0.544567,-0.964686 -0.611626,-2.186636 -1.428194,-2.8169 -0.272046,-0.222262 -0.74908,-0.777905 -0.682043,-1.148889 0.443525,-0.482084 0.749078,-2.59453 0.578097,-4.225459 -0.06752,-0.3699 -0.134572,-0.741383 -0.272046,-1.037724 -0.407114,-0.851984 -1.324768,-2.038434 -2.107441,-2.890374 0.101066,-0.11062 0.238517,-0.259821 0.407114,-0.333901 0,-0.814944 -0.30605,-1.074743 -0.712688,-1.667426 -0.342441,-0.593203 -1.122621,-1.741571 -1.703642,-2.112468 0,0 0,-0.03761 -0.578097,-0.03761 -0.03355,-0.40746 0.06992,-0.741362 0.171005,-1.185907 0,-0.33338 0.238516,-0.147661 0.306051,-0.889543 0.171003,-0.629722 0.101065,-0.259302 0.238515,-0.889045 0.13457,-0.296341 0.204988,-0.593204 0.204988,-1.075242 0.508177,0.185741 1.529279,0.148181 1.972761,0 l 0.101066,0.07413 c 0.137454,0.03761 0.170982,-0.184701 0.272046,-0.221741 0.783084,-0.445563 1.05515,-1.223422 1.700781,-1.297547 0,0 0.342441,-0.185741 0.850142,0 0.204987,0 0.375992,0.03652 0.375992,-0.185741 0.03355,-0.333381 0.03355,-0.592162 0.204987,-0.815464 0.13457,0.889544 0.508178,1.89075 1.1897,2.854395 l 0.679723,-0.517843 c -0.645632,-0.851985 -1.05229,-1.815609 -1.122621,-2.928086 0.03351,0.0741 0.06994,0.14816 0.137475,0.222261 0.238517,0 0.373108,-0.556184 0.645631,-0.519144 0.03353,-0.0741 0.103949,-0.407981 0.170982,-0.667283 h 2.550967 l 0.916787,-0.221069 v -0.519123 l -0.67916,-0.0741 v -0.593204 h -0.170982 v -0.667282 h -0.407114 v 0.630243 l -1.055151,-0.07411 v -0.40798 h -0.407115 v 0.370421 l -1.088636,-0.110622 v -0.556162 h -0.409498 v 0.519122 L 37.019115,20.784929 V 20.60077 h 0.0012 z"
     id="path5" />
  <path
     style="mix-blend-mode:normal;fill:none;stroke:#000000;stroke-width:0.4;stroke-linecap:round;stroke-linejoin:round;stroke-dasharray:none;stroke-opacity:1;filter:url(#filter12)"
     d="m 31.707867,4.0008699 -0.02344,0.01562 C 16.321,4.1868854 4.0010999,16.595384 4.0010999,31.99981 c 0,15.511623 12.4876961,27.99932 27.9993201,27.99932 15.276829,0 27.593329,-12.119506 27.96332,-27.303337 0,0 0.0242,-0.478448 0.03516,-0.695303 V 10.001025 c 0,-3.3239201 -2.675935,-5.9998551 -5.999855,-5.9998551 H 31.99958 Z"
     id="path2-5"
     transform="matrix(0.94201905,0,0,0.94201905,1.8553903,1.8553902)" />
  <circle
     style="mix-blend-mode:normal;fill:none;stroke:#000000;stroke-width:0.4;stroke-linecap:round;stroke-linejoin:round;stroke-dasharray:none;stroke-opacity:1;filter:url(#filter11)"
     cx="32"
     cy="32.04866"
     r="20"
     id="circle3-3"
     transform="matrix(0.94201905,0,0,0.94201905,1.8291732,1.8553902)" />
  <path
     style="mix-blend-mode:normal;fill:none;fill-opacity:1;fill-rule:evenodd;stroke:#000000;stroke-width:0.2;stroke-linecap:round;stroke-linejoin:round;stroke-dasharray:none;stroke-opacity:1;filter:url(#filter10)"
     d="m 35.162252,22.016771 c -0.110346,1.298172 -0.977218,0.747144 -1.915784,1.455475 -0.253198,-0.03877 -0.541987,-0.03877 -0.938567,-0.03877 -0.07167,-0.865656 0.217605,-1.022957 0.360481,-1.18019 0.578086,-0.472435 0.977219,-0.235942 0.977219,-0.235942 0.432678,-0.0797 0.828752,0.03877 1.516628,-6.23e-4 z m 2.165922,-2.125129 H 36.065249 V 19.537741 H 35.37988 v 0.196069 c -0.07422,0.03877 -0.145913,0.118512 -0.217605,0.157303 h -0.07167 c -1.194869,-1.022959 -1.265963,1.062828 -2.061676,0.590393 -0.07167,-0.433115 -0.03562,-0.826887 -0.03562,-1.338112 1.373269,-0.03992 0.866875,-0.433093 0.470801,-0.944296 -0.142853,-0.197173 -0.217604,-0.511755 -0.253197,-0.708377 -0.324405,-1.296469 -1.661138,-2.083325 -3.609869,-1.257127 -1.265963,0.511203 -0.938567,2.361025 -0.831283,3.619994 -0.07167,0.117429 -0.217604,0.07866 -0.324888,0.07866 -1.373269,0.07869 -1.987016,1.651521 -2.276266,2.911133 0.07167,1.141423 -0.07167,2.400369 -0.253196,3.501275 -0.18153,1.101597 -0.541987,1.967299 -0.578086,3.029391 -0.07167,0.944295 0.253197,2.045893 0.181529,2.911594 -0.759614,2.439711 -1.302154,4.052533 -1.69818,6.649615 -0.28879,0.589842 -1.299025,1.848764 -1.698181,2.124601 -0.107263,0.196069 0.07167,0.629714 -0.107263,0.904445 -0.324888,0.511204 -0.831283,0.787017 -1.120094,1.338114 0.07167,0.117431 -0.434704,0.235942 -0.396074,0.433093 0.03562,0.19607 0.288789,0.707272 0.396074,0.825784 0.03562,0.07869 0.396072,-0.118512 0.396072,0 0.145914,0.471331 0.470825,1.455474 0.831283,1.691462 1.590873,0.196046 1.590873,0.196046 2.240166,0 0.360482,-1.141423 -1.227378,-0.629715 -1.084525,-2.164426 2.168959,-0.471331 2.853845,-1.140894 3.720766,-3.619304 0.396073,-1.809997 0.938566,-3.579959 1.769388,-5.311271 0.142853,-0.11743 0.107287,-0.432541 0.360482,-0.551074 0.974158,1.770078 2.74663,3.030082 3.611019,4.879421 0.217605,2.399677 0.652308,3.697989 1.408932,4.130989 0.181528,0.07866 0,0.825783 0.145936,0.983062 0,0.235942 0.07167,0.511203 -0.03562,0.786993 -0.07422,0.197174 -0.03559,0.433092 -0.03559,0.629714 v 0.235942 c 0.03559,0.355556 0.107286,0.355556 0.432172,0.629714 0.938566,0.668481 2.20462,1.731311 3.467454,0.944295 0.578085,-1.024062 -0.649271,-2.321222 -1.516099,-2.990279 -0.28879,-0.235942 -0.795185,-0.825784 -0.724022,-1.219602 0.470824,-0.511756 0.795183,-2.754223 0.613678,-4.485535 -0.07167,-0.392667 -0.142854,-0.787015 -0.28879,-1.101596 -0.432172,-0.904423 -1.406307,-2.163898 -2.237153,-3.068275 0.107286,-0.117429 0.253197,-0.275813 0.432172,-0.354452 0,-0.865104 -0.324888,-1.140894 -0.756554,-1.770056 -0.363518,-0.629714 -1.191718,-1.848764 -1.808501,-2.24249 0,0 0,-0.03992 -0.613678,-0.03992 -0.03562,-0.432539 0.07422,-0.786993 0.18153,-1.258899 0,-0.3539 0.253196,-0.15675 0.324888,-0.944295 0.181528,-0.668481 0.107286,-0.275261 0.253196,-0.943765 0.142853,-0.314581 0.217605,-0.629715 0.217605,-1.141423 0.539455,0.197174 1.623405,0.157302 2.094184,0 l 0.107286,0.07869 c 0.145914,0.03992 0.181506,-0.196069 0.28879,-0.235389 0.831283,-0.472988 1.120095,-1.298724 1.805464,-1.377411 0,0 0.363518,-0.197173 0.902468,0 0.217604,0 0.399134,0.03877 0.399134,-0.197173 0.03562,-0.353901 0.03562,-0.62861 0.217604,-0.865656 0.142853,0.944295 0.539456,2.007125 1.262925,3.030082 l 0.72156,-0.549716 c -0.68537,-0.904424 -1.117058,-1.927359 -1.191718,-3.108308 0.03557,0.07866 0.07425,0.157279 0.145937,0.235941 0.253197,0 0.396073,-0.590417 0.685369,-0.551097 0.03559,-0.07866 0.110347,-0.433093 0.181506,-0.708354 h 2.707978 l 0.973215,-0.234676 v -0.551075 l -0.720962,-0.07866 v -0.629715 h -0.181506 v -0.708353 h -0.432172 v 0.669034 l -1.120095,-0.07867 v -0.433092 h -0.432172 v 0.393221 l -1.155642,-0.117431 v -0.590394 h -0.434702 v 0.551074 l -1.698181,-0.11743 v -0.195494 h 0.0013 z"
     id="path5-5"
     transform="matrix(0.94201905,0,0,0.94201905,1.8553903,1.8553902)" />
</svg>
