<?xml version="1.0" encoding="UTF-8" standalone="no"?>
<svg
   width="64"
   height="64"
   version="1"
   id="svg5"
   sodipodi:docname="preferences-gtk-config.svg"
   inkscape:version="1.3.2 (091e20ef0f, 2023-11-25, custom)"
   xmlns:inkscape="http://www.inkscape.org/namespaces/inkscape"
   xmlns:sodipodi="http://sodipodi.sourceforge.net/DTD/sodipodi-0.dtd"
   xmlns:xlink="http://www.w3.org/1999/xlink"
   xmlns="http://www.w3.org/2000/svg"
   xmlns:svg="http://www.w3.org/2000/svg">
  <defs
     id="defs5">
    <linearGradient
       id="linearGradient5"
       inkscape:collect="always">
      <stop
         style="stop-color:#57d9a0;stop-opacity:1;"
         offset="0"
         id="stop5" />
      <stop
         style="stop-color:#3b9c46;stop-opacity:1;"
         offset="1"
         id="stop6" />
    </linearGradient>
    <inkscape:path-effect
       effect="fillet_chamfer"
       id="path-effect5"
       is_visible="true"
       lpeversion="1"
       nodesatellites_param="F,0,0,1,0,0,0,1 @ F,0,0,1,0,0,0,1 @ F,0,0,1,0,0,0,1 @ F,0,0,1,0,0,0,1 @ F,0,0,1,0,0,0,1 @ F,0,0,1,0,0,0,1 @ F,0,0,1,0,0,0,1 @ F,0,0,1,0,0,0,1 @ F,0,0,1,0,0,0,1 @ F,0,0,1,0,0,0,1 @ F,0,0,1,0,0,0,1 @ F,0,0,1,0,0,0,1 @ F,0,0,1,0,0,0,1 @ F,0,0,1,0,0,0,1 @ F,0,0,1,0,0,0,1 @ F,0,0,1,0,0,0,1 @ F,0,0,1,0,0,0,1 @ F,0,0,1,0,0,0,1 @ F,0,0,1,0,0,0,1 @ F,0,0,1,0,0,0,1 @ F,0,0,1,0,0,0,1 @ F,0,0,1,0,0,0,1 @ F,0,0,1,0,0,0,1 @ F,0,0,1,0,5.8306363,0,1 @ F,0,0,1,0,0,0,1 @ F,0,0,1,0,0,0,1"
       radius="0"
       unit="px"
       method="auto"
       mode="F"
       chamfer_steps="1"
       flexible="false"
       use_knot_distance="true"
       apply_no_radius="true"
       apply_with_radius="true"
       only_selected="false"
       hide_knots="false" />
    <radialGradient
       inkscape:collect="always"
       xlink:href="#linearGradient5"
       id="radialGradient6"
       cx="9.4021921"
       cy="54.803112"
       fx="9.4021912"
       fy="54.803112"
       r="24.000003"
       gradientTransform="matrix(2.183132,-2.183132,2.5469868,2.5469868,-150.70683,-60.452944)"
       gradientUnits="userSpaceOnUse" />
    <inkscape:path-effect
       effect="fillet_chamfer"
       id="path-effect5-5"
       is_visible="true"
       lpeversion="1"
       nodesatellites_param="F,0,0,1,0,0,0,1 @ F,0,0,1,0,0,0,1 @ F,0,0,1,0,0,0,1 @ F,0,0,1,0,0,0,1 @ F,0,0,1,0,0,0,1 @ F,0,0,1,0,0,0,1 @ F,0,0,1,0,0,0,1 @ F,0,0,1,0,0,0,1 @ F,0,0,1,0,0,0,1 @ F,0,0,1,0,0,0,1 @ F,0,0,1,0,0,0,1 @ F,0,0,1,0,0,0,1 @ F,0,0,1,0,0,0,1 @ F,0,0,1,0,0,0,1 @ F,0,0,1,0,0,0,1 @ F,0,0,1,0,0,0,1 @ F,0,0,1,0,0,0,1 @ F,0,0,1,0,0,0,1 @ F,0,0,1,0,0,0,1 @ F,0,0,1,0,0,0,1 @ F,0,0,1,0,0,0,1 @ F,0,0,1,0,0,0,1 @ F,0,0,1,0,0,0,1 @ F,0,0,1,0,5.8306363,0,1 @ F,0,0,1,0,0,0,1 @ F,0,0,1,0,0,0,1"
       radius="0"
       unit="px"
       method="auto"
       mode="F"
       chamfer_steps="1"
       flexible="false"
       use_knot_distance="true"
       apply_no_radius="true"
       apply_with_radius="true"
       only_selected="false"
       hide_knots="false" />
    <inkscape:path-effect
       effect="fillet_chamfer"
       id="path-effect5-6"
       is_visible="true"
       lpeversion="1"
       nodesatellites_param="F,0,0,1,0,0,0,1 @ F,0,0,1,0,0,0,1 @ F,0,0,1,0,0,0,1 @ F,0,0,1,0,0,0,1 @ F,0,0,1,0,0,0,1 @ F,0,0,1,0,0,0,1 @ F,0,0,1,0,0,0,1 @ F,0,0,1,0,0,0,1 @ F,0,0,1,0,0,0,1 @ F,0,0,1,0,0,0,1 @ F,0,0,1,0,0,0,1 @ F,0,0,1,0,0,0,1 @ F,0,0,1,0,0,0,1 @ F,0,0,1,0,0,0,1 @ F,0,0,1,0,0,0,1 @ F,0,0,1,0,0,0,1 @ F,0,0,1,0,0,0,1 @ F,0,0,1,0,0,0,1 @ F,0,0,1,0,0,0,1 @ F,0,0,1,0,0,0,1 @ F,0,0,1,0,0,0,1 @ F,0,0,1,0,0,0,1 @ F,0,0,1,0,0,0,1 @ F,0,0,1,0,5.8306363,0,1 @ F,0,0,1,0,0,0,1 @ F,0,0,1,0,0,0,1"
       radius="0"
       unit="px"
       method="auto"
       mode="F"
       chamfer_steps="1"
       flexible="false"
       use_knot_distance="true"
       apply_no_radius="true"
       apply_with_radius="true"
       only_selected="false"
       hide_knots="false" />
    <inkscape:path-effect
       effect="fillet_chamfer"
       id="path-effect5-53"
       is_visible="true"
       lpeversion="1"
       nodesatellites_param="F,0,0,1,0,0,0,1 @ F,0,0,1,0,0,0,1 @ F,0,0,1,0,0,0,1 @ F,0,0,1,0,0,0,1 @ F,0,0,1,0,0,0,1 @ F,0,0,1,0,0,0,1 @ F,0,0,1,0,0,0,1 @ F,0,0,1,0,0,0,1 @ F,0,0,1,0,0,0,1 @ F,0,0,1,0,0,0,1 @ F,0,0,1,0,0,0,1 @ F,0,0,1,0,0,0,1 @ F,0,0,1,0,0,0,1 @ F,0,0,1,0,0,0,1 @ F,0,0,1,0,0,0,1 @ F,0,0,1,0,0,0,1 @ F,0,0,1,0,0,0,1 @ F,0,0,1,0,0,0,1 @ F,0,0,1,0,0,0,1 @ F,0,0,1,0,0,0,1 @ F,0,0,1,0,0,0,1 @ F,0,0,1,0,0,0,1 @ F,0,0,1,0,0,0,1 @ F,0,0,1,0,5.8306363,0,1 @ F,0,0,1,0,0,0,1 @ F,0,0,1,0,0,0,1"
       radius="0"
       unit="px"
       method="auto"
       mode="F"
       chamfer_steps="1"
       flexible="false"
       use_knot_distance="true"
       apply_no_radius="true"
       apply_with_radius="true"
       only_selected="false"
       hide_knots="false" />
    <filter
       inkscape:collect="always"
       style="color-interpolation-filters:sRGB"
       id="filter1"
       x="-0.12436487"
       y="-0.10659891"
       width="1.2487291"
       height="1.2131978">
      <feGaussianBlur
         inkscape:collect="always"
         stdDeviation="2.4207547"
         id="feGaussianBlur1" />
    </filter>
    <filter
       inkscape:collect="always"
       style="color-interpolation-filters:sRGB"
       id="filter2"
       x="-0.069559862"
       y="-0.056913298"
       width="1.1391561"
       height="1.1138266">
      <feGaussianBlur
         inkscape:collect="always"
         stdDeviation="0.93845455"
         id="feGaussianBlur2" />
    </filter>
  </defs>
  <sodipodi:namedview
     id="namedview5"
     pagecolor="#ffffff"
     bordercolor="#000000"
     borderopacity="0.25"
     inkscape:showpageshadow="2"
     inkscape:pageopacity="0.0"
     inkscape:pagecheckerboard="0"
     inkscape:deskcolor="#d1d1d1"
     inkscape:zoom="9.7669124"
     inkscape:cx="32.91726"
     inkscape:cy="25.494239"
     inkscape:window-width="1920"
     inkscape:window-height="1020"
     inkscape:window-x="0"
     inkscape:window-y="0"
     inkscape:window-maximized="1"
     inkscape:current-layer="svg5" />
  <path
     style="fill:url(#radialGradient6);stroke:none;stroke-width:10.6027;stroke-linecap:round;stroke-linejoin:round;stroke-dasharray:none;paint-order:stroke fill markers"
     d="M 46.289305,4 C 42.536858,4 39.432265,5.5051667 37.078053,7.6503906 35.750524,6.7032813 34.216268,6.0054619 32.677252,6 32.226398,5.9984 31.804745,6.031024 31.409291,6.083984 h -0.002 c -1.683615,0.2257036 -3.21641,1.0465182 -4.531449,2.0859379 L 23.672775,8.0097656 c -6.53e-4,-3.28e-5 -0.0013,3.26e-5 -0.002,0 -0.443345,-0.022159 -0.860273,-0.00523 -1.232849,0.03125 -0.860714,0.084294 -1.653489,0.2911459 -2.377915,0.5664063 -2.729654,1.0372823 -5.065103,3.6989291 -5.74484,6.2812501 -0.04927,0.187178 -0.005,0.338209 -0.04292,0.521484 -0.618472,0.188477 -1.226868,0.406711 -1.761491,0.701172 v 0.002 c -2.363812,1.302716 -4.4223373,4.366456 -4.5061395,7.117188 -0.083802,2.750731 0.9860919,4.664373 2.0892105,6.130859 0.857892,1.140483 1.873682,2.016059 3.013846,2.78125 -0.268978,0.719914 -0.607835,1.393253 -0.774431,2.177734 -1.370908,6.450305 1.23023,12.464038 5.089402,17.167969 C 21.281873,56.192212 26.889821,60 33.709177,60 c 4.187725,0 7.658744,-1.879571 10.426545,-4.425781 2.198039,-2.022063 4.103741,-4.588377 5.166509,-7.628968 1.043037,-2.416554 0.509441,-5.125687 0.126153,-7.477608 -0.79635,-4.860089 -1.918741,-10.088183 1.202422,-16.163953 1.468035,-2.857731 4.992424,-7.039432 5.319544,-10.216677 0.106093,-1.030461 0.05038,-2.162277 -0.246919,-3.428857 C 55.245858,8.7088474 53.786233,6.5747483 51.924906,5.4375 50.063578,4.3002517 48.129266,4 46.289305,4 Z"
     id="path2"
     inkscape:path-effect="#path-effect5"
     inkscape:original-d="M 46.289305,4 C 42.536858,4 39.432265,5.5051667 37.078053,7.6503906 35.750524,6.7032813 34.216268,6.0054619 32.677252,6 32.226398,5.9984 31.804745,6.031024 31.409291,6.083984 h -0.002 c -1.683615,0.2257036 -3.21641,1.0465182 -4.531449,2.0859379 L 23.672775,8.0097656 c -6.53e-4,-3.28e-5 -0.0013,3.26e-5 -0.002,0 -0.443345,-0.022159 -0.860273,-0.00523 -1.232849,0.03125 -0.860714,0.084294 -1.653489,0.2911459 -2.377915,0.5664063 -2.729654,1.0372823 -5.065103,3.6989291 -5.74484,6.2812501 -0.04927,0.187178 -0.005,0.338209 -0.04292,0.521484 -0.618472,0.188477 -1.226868,0.406711 -1.761491,0.701172 v 0.002 c -2.363812,1.302716 -4.4223373,4.366456 -4.5061395,7.117188 -0.083802,2.750731 0.9860919,4.664373 2.0892105,6.130859 0.857892,1.140483 1.873682,2.016059 3.013846,2.78125 -0.268978,0.719914 -0.607835,1.393253 -0.774431,2.177734 -1.370908,6.450305 1.23023,12.464038 5.089402,17.167969 C 21.281873,56.192212 26.889821,60 33.709177,60 c 4.187725,0 7.658744,-1.879571 10.426545,-4.425781 2.198039,-2.022063 4.103741,-4.588377 5.166509,-7.628968 1.043037,-2.416554 0.509441,-5.125687 0.126153,-7.477608 C 48.429598,34.372094 46.917939,27.697662 53.908778,19.498 55.244604,17.178704 56.618575,14.556868 55.703431,10.658156 55.245858,8.7088474 53.786233,6.5747483 51.924906,5.4375 50.063578,4.3002517 48.129266,4 46.289305,4 Z"
     transform="matrix(0.93909713,0,0,0.93909713,1.9488889,1.9488918)" />
  <path
     style="fill:#ffffff;stroke-width:0.959311"
     d="m 45.752788,10.89517 c -8.524133,0 -10.122098,12.471037 -5.326796,12.471037 4.794608,0 13.851277,-12.471037 5.326796,-12.471037 z m -13.094964,1.918621 c -0.137563,-4.88e-4 -0.28228,0.0097 -0.434688,0.02998 -4.875253,0.652744 -3.16175,9.397795 -0.565842,9.561254 2.513764,0.158351 5.265017,-9.576116 1.00053,-9.591232 z m -8.916715,1.920494 c -0.108959,-0.0055 -0.220528,-0.002 -0.337259,0.0095 -0.249018,0.0243 -0.516713,0.0885 -0.801923,0.196734 -4.564188,1.732268 -0.692607,8.883933 1.864286,8.403333 2.324047,-0.435796 2.652524,-8.441124 -0.725104,-8.609436 z m -6.338569,6.713301 c -0.40741,-0.01085 -0.849961,0.09608 -1.319052,0.35412 -3.751031,2.064666 1.26497,7.054025 3.47188,6.280487 1.93105,-0.677139 0.699043,-6.55815 -2.152828,-6.634607 z m 17.822189,3.83724 c -6.468288,-0.114913 -15.001168,3.294769 -16.456296,10.138338 -1.575957,7.405925 6.487931,17.681666 14.901164,17.681666 4.138879,0 8.913555,-4.212745 9.806702,-9.184649 0.3261,-1.812482 -1.696054,-2.469785 -3.861599,-2.327076 -2.364347,0.155809 -4.899943,1.253751 -4.736597,2.563157 0.255549,2.049526 -0.483888,3.159341 -1.957968,3.192704 C 30.907577,47.10414 29.387012,46.180717 29.12224,44.418573 28.761816,39.791347 43.621842,36.49374 42.472021,29.318802 42.051474,26.694575 39.105702,25.353781 35.224729,25.284826 Z"
     id="path4" />
  <path
     style="fill:none;stroke:#000000;stroke-width:0.31945577;stroke-linecap:round;stroke-linejoin:round;stroke-dasharray:none;paint-order:stroke fill markers;stroke-opacity:1;filter:url(#filter1)"
     d="M 46.289305,4 C 42.536858,4 39.432265,5.5051667 37.078053,7.6503906 35.750524,6.7032813 34.216268,6.0054619 32.677252,6 32.226398,5.9984 31.804745,6.031024 31.409291,6.083984 h -0.002 c -1.683615,0.2257036 -3.21641,1.0465182 -4.531449,2.0859379 L 23.672775,8.0097656 c -6.53e-4,-3.28e-5 -0.0013,3.26e-5 -0.002,0 -0.443345,-0.022159 -0.860273,-0.00523 -1.232849,0.03125 -0.860714,0.084294 -1.653489,0.2911459 -2.377915,0.5664063 -2.729654,1.0372823 -5.065103,3.6989291 -5.74484,6.2812501 -0.04927,0.187178 -0.005,0.338209 -0.04292,0.521484 -0.618472,0.188477 -1.226868,0.406711 -1.761491,0.701172 v 0.002 c -2.363812,1.302716 -4.4223373,4.366456 -4.5061395,7.117188 -0.083802,2.750731 0.9860919,4.664373 2.0892105,6.130859 0.857892,1.140483 1.873682,2.016059 3.013846,2.78125 -0.268978,0.719914 -0.607835,1.393253 -0.774431,2.177734 -1.370908,6.450305 1.23023,12.464038 5.089402,17.167969 C 21.281873,56.192212 26.889821,60 33.709177,60 c 4.187725,0 7.658744,-1.879571 10.426545,-4.425781 2.198039,-2.022063 4.103741,-4.588377 5.166509,-7.628968 1.043037,-2.416554 0.509441,-5.125687 0.126153,-7.477608 -0.79635,-4.860089 -1.918741,-10.088183 1.202422,-16.163953 1.468035,-2.857731 4.992424,-7.039432 5.319544,-10.216677 0.106093,-1.030461 0.05038,-2.162277 -0.246919,-3.428857 C 55.245858,8.7088474 53.786233,6.5747483 51.924906,5.4375 50.063578,4.3002517 48.129266,4 46.289305,4 Z"
     id="path2-5"
     inkscape:path-effect="#path-effect5-53"
     inkscape:original-d="M 46.289305,4 C 42.536858,4 39.432265,5.5051667 37.078053,7.6503906 35.750524,6.7032813 34.216268,6.0054619 32.677252,6 32.226398,5.9984 31.804745,6.031024 31.409291,6.083984 h -0.002 c -1.683615,0.2257036 -3.21641,1.0465182 -4.531449,2.0859379 L 23.672775,8.0097656 c -6.53e-4,-3.28e-5 -0.0013,3.26e-5 -0.002,0 -0.443345,-0.022159 -0.860273,-0.00523 -1.232849,0.03125 -0.860714,0.084294 -1.653489,0.2911459 -2.377915,0.5664063 -2.729654,1.0372823 -5.065103,3.6989291 -5.74484,6.2812501 -0.04927,0.187178 -0.005,0.338209 -0.04292,0.521484 -0.618472,0.188477 -1.226868,0.406711 -1.761491,0.701172 v 0.002 c -2.363812,1.302716 -4.4223373,4.366456 -4.5061395,7.117188 -0.083802,2.750731 0.9860919,4.664373 2.0892105,6.130859 0.857892,1.140483 1.873682,2.016059 3.013846,2.78125 -0.268978,0.719914 -0.607835,1.393253 -0.774431,2.177734 -1.370908,6.450305 1.23023,12.464038 5.089402,17.167969 C 21.281873,56.192212 26.889821,60 33.709177,60 c 4.187725,0 7.658744,-1.879571 10.426545,-4.425781 2.198039,-2.022063 4.103741,-4.588377 5.166509,-7.628968 1.043037,-2.416554 0.509441,-5.125687 0.126153,-7.477608 C 48.429598,34.372094 46.917939,27.697662 53.908778,19.498 55.244604,17.178704 56.618575,14.556868 55.703431,10.658156 55.245858,8.7088474 53.786233,6.5747483 51.924906,5.4375 50.063578,4.3002517 48.129266,4 46.289305,4 Z"
     transform="matrix(0.93909713,0,0,0.93909713,1.9488889,1.9488918)" />
  <path
     style="fill:none;stroke-width:0.3;stroke:#074400;stroke-opacity:1;stroke-dasharray:none;filter:url(#filter2)"
     d="m 45.752788,10.89517 c -8.524133,0 -10.122098,12.471037 -5.326796,12.471037 4.794608,0 13.851277,-12.471037 5.326796,-12.471037 z m -13.094964,1.918621 c -0.137563,-4.89e-4 -0.28228,0.0097 -0.434688,0.02998 -4.875253,0.652744 -3.16175,9.397796 -0.565842,9.561254 2.513764,0.158351 5.265017,-9.576116 1.00053,-9.591232 z m -8.916715,1.920494 c -0.108959,-0.0055 -0.220528,-0.002 -0.337259,0.0095 -0.249018,0.0243 -0.516713,0.0885 -0.801923,0.196734 -4.564188,1.732268 -0.692607,8.883933 1.864286,8.403333 2.324047,-0.435796 2.652524,-8.441124 -0.725104,-8.609436 z m -6.338569,6.713301 c -0.40741,-0.01085 -0.849961,0.09608 -1.319052,0.35412 -3.751031,2.064666 1.26497,7.054025 3.47188,6.280487 1.93105,-0.677139 0.699043,-6.55815 -2.152828,-6.634607 z m 17.822189,3.83724 c -6.468288,-0.114913 -15.001168,3.294768 -16.456296,10.138338 -1.575957,7.405925 6.487931,17.681666 14.901164,17.681666 4.138879,0 8.913555,-4.212745 9.806702,-9.184649 0.3261,-1.812482 -1.696054,-2.469785 -3.861599,-2.327076 -2.364347,0.155809 -4.899943,1.253751 -4.736597,2.563157 0.255549,2.049526 -0.483888,3.159341 -1.957968,3.192704 C 30.907577,47.10414 29.387012,46.180717 29.12224,44.418573 28.761816,39.791347 43.621842,36.49374 42.472021,29.318803 42.051474,26.694575 39.105702,25.35378 35.224729,25.284826 Z"
     id="path4-6" />
</svg>
