<?xml version="1.0" encoding="UTF-8" standalone="no"?>
<svg
   width="64"
   height="64"
   version="1.1"
   id="svg7"
   sodipodi:docname="distributor-logo-steamos.svg"
   inkscape:version="1.3.2 (091e20ef0f, 2023-11-25, custom)"
   xmlns:inkscape="http://www.inkscape.org/namespaces/inkscape"
   xmlns:sodipodi="http://sodipodi.sourceforge.net/DTD/sodipodi-0.dtd"
   xmlns:xlink="http://www.w3.org/1999/xlink"
   xmlns="http://www.w3.org/2000/svg"
   xmlns:svg="http://www.w3.org/2000/svg">
  <defs
     id="defs7">
    <filter
       inkscape:collect="always"
       style="color-interpolation-filters:sRGB"
       id="filter10"
       x="-0.041856086"
       y="-0.054980831"
       width="1.0851667"
       height="1.1099617">
      <feGaussianBlur
         inkscape:collect="always"
         stdDeviation="0.69794606"
         id="feGaussianBlur10" />
    </filter>
    <filter
       inkscape:collect="always"
       style="color-interpolation-filters:sRGB"
       id="filter8"
       x="-0.12185851"
       y="-0.12185851"
       width="1.243717"
       height="1.243717">
      <feGaussianBlur
         inkscape:collect="always"
         stdDeviation="2.5425786"
         id="feGaussianBlur8" />
    </filter>
    <radialGradient
       inkscape:collect="always"
       xlink:href="#linearGradient5"
       id="radialGradient6"
       cx="11.55467"
       cy="52.421906"
       fx="11.55467"
       fy="52.421906"
       r="29.549749"
       gradientUnits="userSpaceOnUse"
       gradientTransform="matrix(2.4192827,-0.64824487,0.64824487,2.4192827,-52.848979,-60.469061)" />
    <linearGradient
       id="linearGradient5"
       inkscape:collect="always">
      <stop
         style="stop-color:#63a3f7;stop-opacity:1;"
         offset="0"
         id="stop5" />
      <stop
         style="stop-color:#e550d3;stop-opacity:1;"
         offset="1"
         id="stop6" />
    </linearGradient>
  </defs>
  <sodipodi:namedview
     id="namedview7"
     pagecolor="#505050"
     bordercolor="#eeeeee"
     borderopacity="1"
     inkscape:showpageshadow="0"
     inkscape:pageopacity="0"
     inkscape:pagecheckerboard="0"
     inkscape:deskcolor="#505050"
     inkscape:zoom="9.5918786"
     inkscape:cx="35.290271"
     inkscape:cy="33.778576"
     inkscape:window-width="1920"
     inkscape:window-height="1020"
     inkscape:window-x="0"
     inkscape:window-y="0"
     inkscape:window-maximized="1"
     inkscape:current-layer="svg7" />
  <path
     id="path5"
     style="fill:url(#radialGradient6);stroke-width:0.261772;stroke-linejoin:bevel;stroke-miterlimit:4.6"
     d="M 57.462288,31.866127 A 25.653477,25.653477 0 0 1 31.808811,57.519604 25.653477,25.653477 0 0 1 6.1553338,31.866127 25.653477,25.653477 0 0 1 31.808811,6.2126504 25.653477,25.653477 0 0 1 57.462288,31.866127 Z" />
  <path
     id="path3-3"
     style="opacity:0.8;mix-blend-mode:normal;fill:#ffffff;fill-opacity:1;stroke:none;stroke-width:0.261772;stroke-dasharray:none;stroke-opacity:1"
     d="m 37.640582,17.043122 c -5.301006,0 -9.598321,4.297315 -9.598321,9.598321 0.0044,0.06936 0.0095,0.138671 0.01534,0.207919 l -4.591243,7.652071 c -0.07438,-0.0034 -0.148807,-0.0057 -0.223256,-0.0068 -1.823866,0.0028 -3.582773,0.677436 -4.940613,1.895124 L 6.2542186,31.070548 c -0.02759,1.278828 -0.049235,3.842336 0.7576841,7.026057 l 8.8194293,3.877953 c 0.0346,4.069593 3.342033,7.351169 7.411772,7.353827 4.096232,0 7.416885,-3.320653 7.416885,-7.416885 -6.59e-4,-0.189975 -0.0086,-0.379854 -0.02386,-0.569218 l 8.205951,-5.187729 c 4.794735,-0.60495 8.391936,-4.680366 8.396828,-9.51311 0,-5.301006 -4.297316,-9.598321 -9.598322,-9.598321 z m 0,3.490298 c 3.373368,0 6.108023,2.734656 6.108023,6.108023 0,3.373368 -2.734655,6.108023 -6.108023,6.108023 -3.373367,0 -6.108023,-2.734655 -6.108023,-6.108023 0,-3.373367 2.734656,-6.108023 6.108023,-6.108023 z m 0,1.74515 c -2.409548,0 -4.362873,1.953325 -4.362873,4.362873 0,2.409549 1.953325,4.362874 4.362873,4.362874 2.409549,0 4.362874,-1.953325 4.362874,-4.362874 0,-2.409548 -1.953325,-4.362873 -4.362874,-4.362873 z M 23.2431,37.112339 c 2.650503,0 4.799161,2.148658 4.799161,4.799161 0,2.650503 -2.148658,4.799161 -4.799161,4.799161 -2.141526,-0.0075 -4.018946,-1.432916 -4.601468,-3.493707 l 3.367593,1.487808 c 3.768012,1.759718 6.306183,-3.986226 2.46775,-5.586523 l -3.365888,-1.487808 c 0.661131,-0.335011 1.39087,-0.512341 2.132013,-0.518092 z"
     sodipodi:nodetypes="scccccccccccccsssssssssssscscccccc" />
  <path
     id="path5-9"
     style="fill:none;stroke:#000000;stroke-width:0.3;stroke-linejoin:bevel;stroke-miterlimit:4.6;stroke-dasharray:none;stroke-opacity:1;filter:url(#filter8)"
     d="M 57.520393,31.866916 A 25.653477,25.653477 0 0 1 31.866916,57.520393 25.653477,25.653477 0 0 1 6.2134389,31.866916 25.653477,25.653477 0 0 1 31.866916,6.2134389 25.653477,25.653477 0 0 1 57.520393,31.866916 Z" />
  <path
     id="path3-3-1"
     style="fill:none;stroke:#ff00f8;stroke-width:0.2;stroke-dasharray:none;stroke-opacity:1;filter:url(#filter10)"
     d="m 6.9852819,38.089358 8.8173501,3.8852 c 0.0346,4.069593 3.342033,7.351169 7.411772,7.353827 4.096232,0 7.416885,-3.320653 7.416885,-7.416885 -6.59e-4,-0.189975 -0.0086,-0.379854 -0.02386,-0.569218 l 8.205951,-5.187729 c 4.794735,-0.60495 8.391936,-4.680366 8.396828,-9.51311 0,-5.301006 -4.297316,-9.598321 -9.598322,-9.598321 h -4e-6 c -5.301006,0 -9.598321,4.297315 -9.598321,9.598321 0.0044,0.06936 0.0095,0.138671 0.01534,0.207919 l -4.591243,7.652071 c -0.07438,-0.0034 -0.148807,-0.0057 -0.223256,-0.0068 -1.823866,0.0028 -3.582773,0.677436 -4.940613,1.895124 L 6.2255179,31.070548 M 37.611882,20.53342 c 3.373368,0 6.108023,2.734656 6.108023,6.108023 0,3.373368 -2.734655,6.108023 -6.108023,6.108023 -3.373367,0 -6.108023,-2.734655 -6.108023,-6.108023 0,-3.373367 2.734656,-6.108023 6.108023,-6.108023 z m 0,1.74515 c -2.409548,0 -4.362873,1.953325 -4.362873,4.362873 0,2.409549 1.953325,4.362874 4.362873,4.362874 2.409549,0 4.362874,-1.953325 4.362874,-4.362874 0,-2.409548 -1.953325,-4.362873 -4.362874,-4.362873 z M 23.2144,37.112339 c 2.650503,0 4.799161,2.148658 4.799161,4.799161 0,2.650503 -2.148658,4.799161 -4.799161,4.799161 -2.141526,-0.0075 -4.018946,-1.432916 -4.601468,-3.493707 l 3.367593,1.487808 c 3.768012,1.759718 6.306183,-3.986226 2.46775,-5.586523 l -3.365888,-1.487808 c 0.661131,-0.335011 1.39087,-0.512341 2.132013,-0.518092 z"
     sodipodi:nodetypes="cccccccssccccccsssssssssscscccccc" />
</svg>
