<?xml version="1.0" encoding="UTF-8" standalone="no"?>
<svg
   width="64"
   height="64"
   version="1.1"
   id="svg5"
   sodipodi:docname="09BE_EpicGamesLauncher.0.svg"
   inkscape:version="1.3.2 (091e20ef0f, 2023-11-25, custom)"
   xmlns:inkscape="http://www.inkscape.org/namespaces/inkscape"
   xmlns:sodipodi="http://sodipodi.sourceforge.net/DTD/sodipodi-0.dtd"
   xmlns:xlink="http://www.w3.org/1999/xlink"
   xmlns="http://www.w3.org/2000/svg"
   xmlns:svg="http://www.w3.org/2000/svg">
  <defs
     id="defs5">
    <inkscape:path-effect
       effect="fillet_chamfer"
       id="path-effect6"
       nodesatellites_param="F,0,0,1,0,0,0,1 @ F,0,0,1,0,0,0,1 @ F,0,0,1,0,0,0,1 @ F,0,0,1,0,0,0,1 @ F,0,0,1,0,0,0,1 @ F,0,0,1,0,0,0,1 @ F,0,0,1,0,0,0,1 @ F,0,0,1,0,0,0,1 @ F,0,0,1,0,0,0,1 @ F,0,0,1,0,0,0,1 @ F,0,0,1,0,0,0,1 @ F,0,0,1,0,0,0,1 | F,0,0,1,0,0,0,1 @ F,0,0,1,0,0,0,1 @ F,0,0,1,0,0,0,1 @ F,0,0,1,0,0,0,1 @ F,0,0,1,0,0,0,1 @ F,0,0,1,0,0,0,1 @ F,0,0,1,0,0,0,1 @ F,0,0,1,0,0,0,1 @ F,0,0,1,0,0,0,1 | F,0,0,1,0,0,0,1 @ F,0,0,1,0,0,0,1 @ F,0,0,1,0,0,0,1 @ F,0,0,1,0,0,0,1 | F,0,0,1,0,0,0,1 @ F,0,0,1,0,0,0,1 @ F,0,0,1,0,0,0,1 @ F,0,0,1,0,0,0,1 @ F,0,0,1,0,0,0,1 @ F,0,0,1,0,0,0,1 @ F,0,0,1,0,0,0,1 @ F,0,0,1,0,0,0,1 @ F,0,0,1,0,0,0,1 @ F,0,0,1,0,0,0,1 @ F,0,0,1,0,0,0,1 @ F,0,0,1,0,0,0,1 @ F,0,0,1,0,0,0,1 @ F,0,0,1,0,0,0,1 @ F,0,0,1,0,0,0,1 @ F,0,0,1,0,0,0,1 @ F,0,0,1,0,0,0,1 @ F,0,0,1,0,0,0,1 @ F,0,0,1,0,0,0,1 @ F,0,0,1,0,0,0,1 | F,0,0,1,0,0,0,1 @ F,0,0,1,0,0,0,1 @ F,0,0,1,0,0,0,1 @ F,0,0,1,0,0,0,1 @ F,0,0,1,0,0,0,1 @ F,0,0,1,0,0,0,1 | F,0,0,1,0,0,0,1 @ F,0,0,1,0,0,0,1 @ F,0,0,1,0,0,0,1 @ F,0,0,1,0,0,0,1 @ F,0,0,1,0,0,0,1 @ F,0,0,1,0,0,0,1 @ F,0,0,1,0,0,0,1 @ F,0,0,1,0,0,0,1 @ F,0,0,1,0,0,0,1 @ F,0,0,1,0,0,0,1 @ F,0,0,1,0,0,0,1 @ F,0,0,1,0,0,0,1 @ F,0,0,1,0,0,0,1 @ F,0,0,1,0,0,0,1 @ F,0,0,1,0,0,0,1 | F,0,0,1,0,0,0,1 @ F,0,0,1,0,0,0,1 @ F,0,0,1,0,0,0,1 @ F,0,0,1,0,0,0,1 @ F,0,0,1,0,0,0,1 @ F,0,0,1,0,0,0,1 @ F,0,0,1,0,0,0,1 @ F,0,0,1,0,0,0,1 @ F,0,0,1,0,0,0,1 @ F,0,0,1,0,0,0,1 @ F,0,0,1,0,0,0,1 @ F,0,0,1,0,0,0,1 | F,0,0,1,0,0,0,1 @ F,0,0,1,0,0,0,1 @ F,0,0,1,0,0,0,1 @ F,0,0,1,0,0,0,1 @ F,0,0,1,0,0,0,1 @ F,0,0,1,0,0,0,1 @ F,0,0,1,0,0,0,1 @ F,0,0,1,0,0,0,1 @ F,0,0,1,0,0,0,1 @ F,0,0,1,0,0,0,1 @ F,0,0,1,0,0,0,1 @ F,0,0,1,0,0,0,1 | F,0,0,1,0,0,0,1 @ F,0,0,1,0,0,0,1 @ F,0,0,1,0,0,0,1 @ F,0,0,1,0,0,0,1 @ F,0,0,1,0,0,0,1 @ F,0,0,1,0,0,0,1 @ F,0,0,1,0,0,0,1 @ F,0,0,1,0,0,0,1 | F,0,0,1,0,0,0,1 @ F,0,0,1,0,0,0,1 @ F,0,0,1,0,0,0,1 @ F,0,0,1,0,0,0,1 @ F,0,0,1,0,0,0,1 @ F,0,0,1,0,0,0,1 @ F,0,0,1,0,0,0,1 @ F,0,0,1,0,0,0,1 @ F,0,0,1,0,0,0,1 @ F,0,0,1,0,0,0,1 @ F,0,0,1,0,0,0,1 @ F,0,0,1,0,0,0,1 @ F,0,0,1,0,0,0,1 | F,0,0,1,0,0,0,1 @ F,0,0,1,0,0,0,1 @ F,0,0,1,0,0,0,1 | F,0,0,1,0,0,0,1 @ F,0,0,1,0,0,0,1 @ F,0,0,1,0,0,0,1"
       is_visible="true"
       lpeversion="1"
       radius="0"
       unit="px"
       method="auto"
       mode="F"
       chamfer_steps="1"
       flexible="false"
       use_knot_distance="true"
       apply_no_radius="true"
       apply_with_radius="true"
       only_selected="false"
       hide_knots="false" />
    <linearGradient
       id="linearGradient5"
       inkscape:collect="always">
      <stop
         style="stop-color:#0f0f0f;stop-opacity:1;"
         offset="0"
         id="stop5" />
      <stop
         style="stop-color:#2e2e2e;stop-opacity:1;"
         offset="1"
         id="stop6" />
    </linearGradient>
    <radialGradient
       inkscape:collect="always"
       xlink:href="#linearGradient5"
       id="radialGradient6"
       cx="15.958046"
       cy="46.553932"
       fx="15.958046"
       fy="46.553932"
       r="24"
       gradientTransform="matrix(1.9733015,-0.52874455,0.61686866,2.3021852,-44.249652,-49.75849)"
       gradientUnits="userSpaceOnUse" />
    <inkscape:path-effect
       effect="fillet_chamfer"
       id="path-effect6-3"
       nodesatellites_param="F,0,0,1,0,0,0,1 @ F,0,0,1,0,0,0,1 @ F,0,0,1,0,0,0,1 @ F,0,0,1,0,0,0,1 @ F,0,0,1,0,0,0,1 @ F,0,0,1,0,0,0,1 @ F,0,0,1,0,0,0,1 @ F,0,0,1,0,0,0,1 @ F,0,0,1,0,0,0,1 @ F,0,0,1,0,0,0,1 @ F,0,0,1,0,0,0,1 @ F,0,0,1,0,0,0,1 | F,0,0,1,0,0,0,1 @ F,0,0,1,0,0,0,1 @ F,0,0,1,0,0,0,1 @ F,0,0,1,0,0,0,1 @ F,0,0,1,0,0,0,1 @ F,0,0,1,0,0,0,1 @ F,0,0,1,0,0,0,1 @ F,0,0,1,0,0,0,1 @ F,0,0,1,0,0,0,1 | F,0,0,1,0,0,0,1 @ F,0,0,1,0,0,0,1 @ F,0,0,1,0,0,0,1 @ F,0,0,1,0,0,0,1 | F,0,0,1,0,0,0,1 @ F,0,0,1,0,0,0,1 @ F,0,0,1,0,0,0,1 @ F,0,0,1,0,0,0,1 @ F,0,0,1,0,0,0,1 @ F,0,0,1,0,0,0,1 @ F,0,0,1,0,0,0,1 @ F,0,0,1,0,0,0,1 @ F,0,0,1,0,0,0,1 @ F,0,0,1,0,0,0,1 @ F,0,0,1,0,0,0,1 @ F,0,0,1,0,0,0,1 @ F,0,0,1,0,0,0,1 @ F,0,0,1,0,0,0,1 @ F,0,0,1,0,0,0,1 @ F,0,0,1,0,0,0,1 @ F,0,0,1,0,0,0,1 @ F,0,0,1,0,0,0,1 @ F,0,0,1,0,0,0,1 @ F,0,0,1,0,0,0,1 | F,0,0,1,0,0,0,1 @ F,0,0,1,0,0,0,1 @ F,0,0,1,0,0,0,1 @ F,0,0,1,0,0,0,1 @ F,0,0,1,0,0,0,1 @ F,0,0,1,0,0,0,1 | F,0,0,1,0,0,0,1 @ F,0,0,1,0,0,0,1 @ F,0,0,1,0,0,0,1 @ F,0,0,1,0,0,0,1 @ F,0,0,1,0,0,0,1 @ F,0,0,1,0,0,0,1 @ F,0,0,1,0,0,0,1 @ F,0,0,1,0,0,0,1 @ F,0,0,1,0,0,0,1 @ F,0,0,1,0,0,0,1 @ F,0,0,1,0,0,0,1 @ F,0,0,1,0,0,0,1 @ F,0,0,1,0,0,0,1 @ F,0,0,1,0,0,0,1 @ F,0,0,1,0,0,0,1 | F,0,0,1,0,0,0,1 @ F,0,0,1,0,0,0,1 @ F,0,0,1,0,0,0,1 @ F,0,0,1,0,0,0,1 @ F,0,0,1,0,0,0,1 @ F,0,0,1,0,0,0,1 @ F,0,0,1,0,0,0,1 @ F,0,0,1,0,0,0,1 @ F,0,0,1,0,0,0,1 @ F,0,0,1,0,0,0,1 @ F,0,0,1,0,0,0,1 @ F,0,0,1,0,0,0,1 | F,0,0,1,0,0,0,1 @ F,0,0,1,0,0,0,1 @ F,0,0,1,0,0,0,1 @ F,0,0,1,0,0,0,1 @ F,0,0,1,0,0,0,1 @ F,0,0,1,0,0,0,1 @ F,0,0,1,0,0,0,1 @ F,0,0,1,0,0,0,1 @ F,0,0,1,0,0,0,1 @ F,0,0,1,0,0,0,1 @ F,0,0,1,0,0,0,1 @ F,0,0,1,0,0,0,1 | F,0,0,1,0,0,0,1 @ F,0,0,1,0,0,0,1 @ F,0,0,1,0,0,0,1 @ F,0,0,1,0,0,0,1 @ F,0,0,1,0,0,0,1 @ F,0,0,1,0,0,0,1 @ F,0,0,1,0,0,0,1 @ F,0,0,1,0,0,0,1 | F,0,0,1,0,0,0,1 @ F,0,0,1,0,0,0,1 @ F,0,0,1,0,0,0,1 @ F,0,0,1,0,0,0,1 @ F,0,0,1,0,0,0,1 @ F,0,0,1,0,0,0,1 @ F,0,0,1,0,0,0,1 @ F,0,0,1,0,0,0,1 @ F,0,0,1,0,0,0,1 @ F,0,0,1,0,0,0,1 @ F,0,0,1,0,0,0,1 @ F,0,0,1,0,0,0,1 @ F,0,0,1,0,0,0,1 | F,0,0,1,0,0,0,1 @ F,0,0,1,0,0,0,1 @ F,0,0,1,0,0,0,1 | F,0,0,1,0,0,0,1 @ F,0,0,1,0,0,0,1 @ F,0,0,1,0,0,0,1"
       is_visible="true"
       lpeversion="1"
       radius="0"
       unit="px"
       method="auto"
       mode="F"
       chamfer_steps="1"
       flexible="false"
       use_knot_distance="true"
       apply_no_radius="true"
       apply_with_radius="true"
       only_selected="false"
       hide_knots="false" />
    <filter
       inkscape:collect="always"
       style="color-interpolation-filters:sRGB"
       id="filter7"
       x="-0.14746439"
       y="-0.11109113"
       width="1.2949288"
       height="1.2221822">
      <feGaussianBlur
         inkscape:collect="always"
         stdDeviation="1.978792"
         id="feGaussianBlur7" />
    </filter>
    <filter
       inkscape:collect="always"
       style="color-interpolation-filters:sRGB"
       id="filter8"
       x="-0.082753438"
       y="-0.070931519"
       width="1.1655069"
       height="1.1418632">
      <feGaussianBlur
         inkscape:collect="always"
         stdDeviation="1.5509021"
         id="feGaussianBlur8" />
    </filter>
  </defs>
  <sodipodi:namedview
     id="namedview5"
     pagecolor="#505050"
     bordercolor="#eeeeee"
     borderopacity="1"
     inkscape:showpageshadow="0"
     inkscape:pageopacity="0"
     inkscape:pagecheckerboard="0"
     inkscape:deskcolor="#505050"
     inkscape:zoom="9.269728"
     inkscape:cx="27.886471"
     inkscape:cy="34.898543"
     inkscape:window-width="1920"
     inkscape:window-height="1020"
     inkscape:window-x="0"
     inkscape:window-y="0"
     inkscape:window-maximized="1"
     inkscape:current-layer="svg5" />
  <path
     d="m10.823529 4.000216c-1.5593273 1.54e-4 -2.8233731 1.2536597-2.823529 2.7999849v41.999773c-5.54e-5 1.145348 0.7032566 2.175274 1.7757353 2.600377l21.17647 8.399955c0.672674 0.266547 1.422916 0.266547 2.09559 0l21.17647-8.399955c1.072479-0.425103 1.77579-1.455029 1.775735-2.600377v-41.999773c-1.55e-4 -1.5463252-1.264201-2.7998309-2.823529-2.7999849z"
     style="fill:url(#radialGradient6)"
     id="path2" />
  <path
     d="m 15,11 v 23 h 7 v -3 h -4 v -7 h 4 v -3 h -4 v -7 h 4 v -3 z m 8,0 v 23 h 3 v -9 h 3.201172 C 31.527972,25 33,23.127577 33,20.800781 V 15.199219 C 33,12.872422 31.527972,11 29.201172,11 h -2.800781 z m 11.900391,0 v 23 h 3 V 11 Z m 6.800781,0 c -1.5512,0 -2.800781,1.249583 -2.800781,2.800781 V 31.21875 c 0,1.551198 1.249581,2.800781 2.800781,2.800781 h 4.398438 c 1.5512,0 2.800781,-1.249583 2.800781,-2.800781 V 25 h -3 v 4.679688 c 0,0.775598 -0.800681,1.367716 -1.400391,1.539062 h -1.199218 c -0.7756,0 -1.400391,-0.622838 -1.400391,-1.398438 V 15.199219 c 0,-0.775599 0.827018,-1.398438 1.400391,-1.398438 H 44.5 c 0.7756,0 1.400391,0.622839 1.400391,1.398438 V 19 h 3 V 13.800781 C 48.900391,12.249583 47.65081,11 46.09961,11 Z M 26,14 h 2.59961 C 29.37521,14 30,14.624792 30,15.400391 v 5.199218 C 30,21.375208 29.37521,22 28.59961,22 H 26 Z m -6.714843,23.5625 c -1.600665,-0.03075 -3.327513,1.148669 -3.378907,3.28125 -0.03645,1.512267 1.335045,3.208784 3.185547,3.234375 1.623374,0.02246 2.798828,-1.013672 2.798828,-1.013672 V 40.914062 H 19.1875 v 1.154297 l 1.111329,0.0039 0.04687,0.220703 c 0,0 -0.360899,0.372418 -1.011718,0.384765 -1.143847,0.02171 -1.701175,-0.918284 -1.738282,-1.736328 -0.03984,-0.878461 0.58332,-1.929835 1.757813,-1.923828 0.782763,0.0039 1.283203,0.716797 1.283203,0.716797 l 1.060547,-1.302734 c 0,0 -1.01142,-0.842239 -2.412109,-0.869141 z M 29.90625,38 v 5.994141 h 1.464844 v -3.326172 l 1.529297,2.269531 1.482422,-2.363281 0.01758,3.419922 h 1.5 V 38 h -1.51758 L 32.900391,40.388672 31.417969,38 Z m 6.994141,0 v 5.962891 H 41.3125 v -1.476563 l -2.912109,0.02734 V 41 h 2.5 v -1 h -2.5 v -0.5 h 2.919922 L 41.3125,38 Z m -11.701172,0.03711 -2.626953,5.955079 1.779297,-0.0039 0.408203,-1.074219 h 2.285156 l 0.398438,1.074219 h 1.658203 l -2.441406,-5.951172 z m 19.205078,0.002 c -0.98925,0.0063 -2.42098,0.626208 -2.449218,2.146485 -0.02868,1.543682 3.36466,1.326651 3.375,2.113281 0.0036,0.272695 -0.171487,0.471011 -0.578126,0.457031 C 43.900596,42.7266 42.785157,42.09375 42.785157,42.09375 l -0.867188,1.041016 c 0,0 1.263546,0.890737 2.771484,0.898437 0.999793,0.0052 2.197201,-0.48251 2.1875,-1.939453 -0.01168,-1.751841 -3.348688,-1.673781 -3.392578,-2.271484 -0.02204,-0.300121 0.416661,-0.466557 1.015625,-0.472657 0.582183,-0.006 1.712891,0.566407 1.712891,0.566407 L 46.939453,38.8125 c 0,0 -1.140266,-0.782336 -2.535156,-0.773438 z m -18.490234,1.820313 0.636719,1.722656 H 25.261719 Z M 21.900391,51 l 10,5 10,-5 z"
     style="fill:#ffffff"
     id="path4"
     inkscape:path-effect="#path-effect6"
     inkscape:original-d="m15 11v23h7v-3h-4v-7h4v-3h-4v-7h4v-3zm8 0v23h3v-9h3.201172c2.3268 0 3.798828-1.872423 3.798828-4.199219v-5.601562c0-2.326797-1.472028-4.199219-3.798828-4.199219h-2.800781zm11.900391 0v23h3v-23zm6.800781 0c-1.5512 0-2.800781 1.249583-2.800781 2.800781v17.417969c0 1.551198 1.249581 2.800781 2.800781 2.800781h4.398438c1.5512 0 2.800781-1.249583 2.800781-2.800781v-6.21875h-3v4.679688c0 0.775598-0.800681 1.367716-1.400391 1.539062h-1.199218c-0.7756 0-1.400391-0.622838-1.400391-1.398438v-14.621093c0-0.775599 0.827018-1.398438 1.400391-1.398438h1.199218c0.7756 0 1.400391 0.622839 1.400391 1.398438v3.800781h3v-5.199219c0-1.551198-1.249581-2.800781-2.800781-2.800781zm-15.701172 3h2.59961c0.7756 0 1.40039 0.624792 1.40039 1.400391v5.199218c0 0.775599-0.62479 1.400391-1.40039 1.400391h-2.59961zm-6.714843 23.5625c-1.600665-0.03075-3.327513 1.148669-3.378907 3.28125-0.03645 1.512267 1.335045 3.208784 3.185547 3.234375 1.623374 0.02246 2.798828-1.013672 2.798828-1.013672v-2.150391h-2.703125v1.154297l1.111329 0.0039 0.04687 0.220703s-0.360899 0.372418-1.011718 0.384765c-1.143847 0.02171-1.701175-0.918284-1.738282-1.736328-0.03984-0.878461 0.58332-1.929835 1.757813-1.923828 0.782763 0.0039 1.283203 0.716797 1.283203 0.716797l1.060547-1.302734s-1.01142-0.842239-2.412109-0.869141zm10.621093 0.4375v5.994141h1.464844v-3.326172l1.529297 2.269531 1.482422-2.363281 0.01758 3.419922h1.5v-5.994141h-1.51758l-1.482422 2.388672-1.482422-2.388672zm6.994141 0v5.962891h4.412109v-1.476563l-2.912109 0.02734v-1.513668h2.5v-1h-2.5v-0.5h2.919922l-0.007813-1.5zm-11.701172 0.03711-2.626953 5.955079 1.779297-0.0039 0.408203-1.074219h2.285156l0.398438 1.074219h1.658203l-2.441406-5.951172zm19.205078 2e-3c-0.98925 0.0063-2.42098 0.626208-2.449218 2.146485-0.02868 1.543682 3.36466 1.326651 3.375 2.113281 0.0036 0.272695-0.171487 0.471011-0.578126 0.457031-0.851357-0.029307-1.966796-0.662157-1.966796-0.662157l-0.867188 1.041016s1.263546 0.890737 2.771484 0.898437c0.999793 0.0052 2.197201-0.48251 2.1875-1.939453-0.01168-1.751841-3.348688-1.673781-3.392578-2.271484-0.02204-0.300121 0.416661-0.466557 1.015625-0.472657 0.582183-6e-3 1.712891 0.566407 1.712891 0.566407l0.726562-1.103516s-1.140266-0.782336-2.535156-0.773438zm-18.490234 1.820313 0.636719 1.722656h-1.289063zm-4.013672 11.140577 10 5 10-5z" />
  <path
     d="M 10.718749,3.9649961 C 9.1594216,3.9651501 7.8953756,5.2186558 7.8952196,6.764981 v 41.999773 c -5.5e-5,1.145348 0.703257,2.175274 1.775735,2.600377 l 21.1764704,8.399955 c 0.672674,0.266547 1.422916,0.266547 2.09559,0 l 21.17647,-8.399955 c 1.072479,-0.425103 1.77579,-1.455029 1.775735,-2.600377 V 6.764981 C 55.895065,5.2186558 54.631019,3.9651501 53.071691,3.9649961 Z"
     style="fill:none;stroke:#000000;stroke-opacity:1;stroke-width:0.49999992;stroke-dasharray:none;stroke-linejoin:round;stroke-linecap:round;filter:url(#filter8)"
     id="path2-3" />
  <path
     d="m 15,11 v 23 h 7 v -3 h -4 v -7 h 4 v -3 h -4 v -7 h 4 v -3 z m 8,0 v 23 h 3 v -9 h 3.201172 C 31.527972,25 33,23.127577 33,20.800781 V 15.199219 C 33,12.872422 31.527972,11 29.201172,11 h -2.800781 z m 11.900391,0 v 23 h 3 V 11 Z m 6.800781,0 c -1.5512,0 -2.800781,1.249583 -2.800781,2.800781 V 31.21875 c 0,1.551198 1.249581,2.800781 2.800781,2.800781 h 4.398438 c 1.5512,0 2.800781,-1.249583 2.800781,-2.800781 V 25 h -3 v 4.679688 c 0,0.775598 -0.800681,1.367716 -1.400391,1.539062 h -1.199218 c -0.7756,0 -1.400391,-0.622838 -1.400391,-1.398438 V 15.199219 c 0,-0.775599 0.827018,-1.398438 1.400391,-1.398438 H 44.5 c 0.7756,0 1.400391,0.622839 1.400391,1.398438 V 19 h 3 V 13.800781 C 48.900391,12.249583 47.65081,11 46.09961,11 Z M 26,14 h 2.59961 C 29.37521,14 30,14.624792 30,15.400391 v 5.199218 C 30,21.375208 29.37521,22 28.59961,22 H 26 Z m -6.714843,23.5625 c -1.600665,-0.03075 -3.327513,1.148669 -3.378907,3.28125 -0.03645,1.512267 1.335045,3.208784 3.185547,3.234375 1.623374,0.02246 2.798828,-1.013672 2.798828,-1.013672 V 40.914062 H 19.1875 v 1.154297 l 1.111329,0.0039 0.04687,0.220703 c 0,0 -0.360899,0.372418 -1.011718,0.384765 -1.143847,0.02171 -1.701175,-0.918284 -1.738282,-1.736328 -0.03984,-0.878461 0.58332,-1.929835 1.757813,-1.923828 0.782763,0.0039 1.283203,0.716797 1.283203,0.716797 l 1.060547,-1.302734 c 0,0 -1.01142,-0.842239 -2.412109,-0.869141 z M 29.90625,38 v 5.994141 h 1.464844 v -3.326172 l 1.529297,2.269531 1.482422,-2.363281 0.01758,3.419922 h 1.5 V 38 h -1.51758 L 32.900391,40.388672 31.417969,38 Z m 6.994141,0 v 5.962891 H 41.3125 v -1.476563 l -2.912109,0.02734 V 41 h 2.5 v -1 h -2.5 v -0.5 h 2.919922 L 41.3125,38 Z m -11.701172,0.03711 -2.626953,5.955079 1.779297,-0.0039 0.408203,-1.074219 h 2.285156 l 0.398438,1.074219 h 1.658203 l -2.441406,-5.951172 z m 19.205078,0.002 c -0.98925,0.0063 -2.42098,0.626208 -2.449218,2.146485 -0.02868,1.543682 3.36466,1.326651 3.375,2.113281 0.0036,0.272695 -0.171487,0.471011 -0.578126,0.457031 C 43.900596,42.7266 42.785157,42.09375 42.785157,42.09375 l -0.867188,1.041016 c 0,0 1.263546,0.890737 2.771484,0.898437 0.999793,0.0052 2.197201,-0.48251 2.1875,-1.939453 -0.01168,-1.751841 -3.348688,-1.673781 -3.392578,-2.271484 -0.02204,-0.300121 0.416661,-0.466557 1.015625,-0.472657 0.582183,-0.006 1.712891,0.566407 1.712891,0.566407 L 46.939453,38.8125 c 0,0 -1.140266,-0.782336 -2.535156,-0.773438 z m -18.490234,1.820313 0.636719,1.722656 H 25.261719 Z M 21.900391,51 l 10,5 10,-5 z"
     style="fill:none;stroke:#ffffff;stroke-opacity:1;stroke-width:0.49999992;stroke-dasharray:none;stroke-linejoin:round;stroke-linecap:round;filter:url(#filter7)"
     id="path4-5"
     inkscape:path-effect="#path-effect6-3"
     inkscape:original-d="m 15,11 v 23 h 7 v -3 h -4 v -7 h 4 v -3 h -4 v -7 h 4 v -3 z m 8,0 v 23 h 3 v -9 h 3.201172 C 31.527972,25 33,23.127577 33,20.800781 V 15.199219 C 33,12.872422 31.527972,11 29.201172,11 h -2.800781 z m 11.900391,0 v 23 h 3 V 11 Z m 6.800781,0 c -1.5512,0 -2.800781,1.249583 -2.800781,2.800781 V 31.21875 c 0,1.551198 1.249581,2.800781 2.800781,2.800781 h 4.398438 c 1.5512,0 2.800781,-1.249583 2.800781,-2.800781 V 25 h -3 v 4.679688 c 0,0.775598 -0.800681,1.367716 -1.400391,1.539062 h -1.199218 c -0.7756,0 -1.400391,-0.622838 -1.400391,-1.398438 V 15.199219 c 0,-0.775599 0.827018,-1.398438 1.400391,-1.398438 H 44.5 c 0.7756,0 1.400391,0.622839 1.400391,1.398438 V 19 h 3 V 13.800781 C 48.900391,12.249583 47.65081,11 46.09961,11 Z M 26,14 h 2.59961 C 29.37521,14 30,14.624792 30,15.400391 v 5.199218 C 30,21.375208 29.37521,22 28.59961,22 H 26 Z m -6.714843,23.5625 c -1.600665,-0.03075 -3.327513,1.148669 -3.378907,3.28125 -0.03645,1.512267 1.335045,3.208784 3.185547,3.234375 1.623374,0.02246 2.798828,-1.013672 2.798828,-1.013672 V 40.914062 H 19.1875 v 1.154297 l 1.111329,0.0039 0.04687,0.220703 c 0,0 -0.360899,0.372418 -1.011718,0.384765 -1.143847,0.02171 -1.701175,-0.918284 -1.738282,-1.736328 -0.03984,-0.878461 0.58332,-1.929835 1.757813,-1.923828 0.782763,0.0039 1.283203,0.716797 1.283203,0.716797 l 1.060547,-1.302734 c 0,0 -1.01142,-0.842239 -2.412109,-0.869141 z M 29.90625,38 v 5.994141 h 1.464844 v -3.326172 l 1.529297,2.269531 1.482422,-2.363281 0.01758,3.419922 h 1.5 V 38 h -1.51758 L 32.900391,40.388672 31.417969,38 Z m 6.994141,0 v 5.962891 H 41.3125 v -1.476563 l -2.912109,0.02734 V 41 h 2.5 v -1 h -2.5 v -0.5 h 2.919922 L 41.3125,38 Z m -11.701172,0.03711 -2.626953,5.955079 1.779297,-0.0039 0.408203,-1.074219 h 2.285156 l 0.398438,1.074219 h 1.658203 l -2.441406,-5.951172 z m 19.205078,0.002 c -0.98925,0.0063 -2.42098,0.626208 -2.449218,2.146485 -0.02868,1.543682 3.36466,1.326651 3.375,2.113281 0.0036,0.272695 -0.171487,0.471011 -0.578126,0.457031 C 43.900596,42.7266 42.785157,42.09375 42.785157,42.09375 l -0.867188,1.041016 c 0,0 1.263546,0.890737 2.771484,0.898437 0.999793,0.0052 2.197201,-0.48251 2.1875,-1.939453 -0.01168,-1.751841 -3.348688,-1.673781 -3.392578,-2.271484 -0.02204,-0.300121 0.416661,-0.466557 1.015625,-0.472657 0.582183,-0.006 1.712891,0.566407 1.712891,0.566407 L 46.939453,38.8125 c 0,0 -1.140266,-0.782336 -2.535156,-0.773438 z m -18.490234,1.820313 0.636719,1.722656 H 25.261719 Z M 21.900391,51 l 10,5 10,-5 z"
     transform="translate(-0.10478041,-0.03521993)" />
</svg>
