<?xml version="1.0" encoding="UTF-8" standalone="no"?>
<svg
   width="64"
   height="64"
   version="1.1"
   id="svg17"
   sodipodi:docname="gimp.svg"
   inkscape:version="1.3.2 (091e20ef0f, 2023-11-25, custom)"
   xmlns:inkscape="http://www.inkscape.org/namespaces/inkscape"
   xmlns:sodipodi="http://sodipodi.sourceforge.net/DTD/sodipodi-0.dtd"
   xmlns:xlink="http://www.w3.org/1999/xlink"
   xmlns="http://www.w3.org/2000/svg"
   xmlns:svg="http://www.w3.org/2000/svg">
  <defs
     id="defs17">
    <linearGradient
       id="linearGradient27"
       inkscape:collect="always">
      <stop
         style="stop-color:#1a1a1a;stop-opacity:1;"
         offset="0"
         id="stop28" />
      <stop
         style="stop-color:#000000;stop-opacity:1;"
         offset="1"
         id="stop29" />
    </linearGradient>
    <linearGradient
       id="linearGradient26"
       inkscape:collect="always">
      <stop
         style="stop-color:#272727;stop-opacity:1;"
         offset="0"
         id="stop26" />
      <stop
         style="stop-color:#0e0e0e;stop-opacity:1;"
         offset="1"
         id="stop27" />
    </linearGradient>
    <linearGradient
       id="linearGradient20"
       inkscape:collect="always">
      <stop
         style="stop-color:#8a8a8a;stop-opacity:1;"
         offset="0"
         id="stop21" />
      <stop
         style="stop-color:#5b5b5b;stop-opacity:1;"
         offset="1"
         id="stop22" />
    </linearGradient>
    <linearGradient
       id="linearGradient18"
       inkscape:collect="always">
      <stop
         style="stop-color:#ff9a0c;stop-opacity:1;"
         offset="0"
         id="stop19" />
      <stop
         style="stop-color:#ff6b0c;stop-opacity:1;"
         offset="1"
         id="stop20" />
    </linearGradient>
    <linearGradient
       id="linearGradient17"
       inkscape:collect="always">
      <stop
         style="stop-color:#ab6b32;stop-opacity:1;"
         offset="0"
         id="stop17" />
      <stop
         style="stop-color:#dea141;stop-opacity:1;"
         offset="1"
         id="stop18" />
    </linearGradient>
    <radialGradient
       inkscape:collect="always"
       xlink:href="#linearGradient17"
       id="radialGradient18"
       cx="14.462611"
       cy="40.196156"
       fx="14.462611"
       fy="40.196156"
       r="25"
       gradientTransform="matrix(1.0614534,0.68400071,-0.77790475,1.2071765,32.960989,-19.196459)"
       gradientUnits="userSpaceOnUse" />
    <radialGradient
       inkscape:collect="always"
       xlink:href="#linearGradient18"
       id="radialGradient20"
       cx="38.420204"
       cy="39.934105"
       fx="38.420204"
       fy="39.934105"
       r="7.1047445"
       gradientTransform="matrix(2.9753448,1.5000767,-0.24281118,0.48160672,-67.245073,-35.09874)"
       gradientUnits="userSpaceOnUse" />
    <radialGradient
       inkscape:collect="always"
       xlink:href="#linearGradient20"
       id="radialGradient22"
       cx="47.060272"
       cy="47.249897"
       fx="47.060272"
       fy="47.249897"
       r="4.5737787"
       gradientTransform="matrix(2.1930435,1.9970558,-1.7858472,1.9611071,25.87888,-139.96161)"
       gradientUnits="userSpaceOnUse" />
    <radialGradient
       inkscape:collect="always"
       xlink:href="#linearGradient26"
       id="radialGradient27"
       cx="2.6373563"
       cy="31.312056"
       fx="2.6373563"
       fy="31.312056"
       r="8.0000003"
       gradientTransform="matrix(3.9816145,3.4912931,-2.2828236,2.6034259,64.714007,-61.753788)"
       gradientUnits="userSpaceOnUse" />
    <radialGradient
       inkscape:collect="always"
       xlink:href="#linearGradient27"
       id="radialGradient29"
       cx="34"
       cy="29"
       fx="34"
       fy="29"
       r="3"
       gradientUnits="userSpaceOnUse"
       gradientTransform="matrix(0.84850914,0,0,0.84850914,4.7719377,6.354854)" />
    <radialGradient
       inkscape:collect="always"
       xlink:href="#linearGradient27"
       id="radialGradient29-3"
       cx="34"
       cy="29"
       fx="34"
       fy="29"
       r="3"
       gradientUnits="userSpaceOnUse"
       gradientTransform="matrix(0.84850914,0,0,0.84850914,-5.9864989,6.1185224)" />
    <filter
       inkscape:collect="always"
       style="color-interpolation-filters:sRGB"
       id="filter5"
       x="-0.27669442"
       y="-0.26061098"
       width="1.5533887"
       height="1.5211496">
      <feGaussianBlur
         inkscape:collect="always"
         stdDeviation="1.804328"
         id="feGaussianBlur5" />
    </filter>
    <filter
       inkscape:collect="always"
       style="color-interpolation-filters:sRGB"
       id="filter7"
       x="-0.22857673"
       y="-0.2591783"
       width="1.456679"
       height="1.5183502">
      <feGaussianBlur
         inkscape:collect="always"
         stdDeviation="4.6778341"
         id="feGaussianBlur7" />
    </filter>
    <filter
       inkscape:collect="always"
       style="color-interpolation-filters:sRGB"
       id="filter1"
       x="-0.20960732"
       y="-0.30714625"
       width="1.4230596"
       height="1.6043901">
      <feGaussianBlur
         inkscape:collect="always"
         stdDeviation="0.75735997"
         id="feGaussianBlur1" />
    </filter>
    <filter
       inkscape:collect="always"
       style="color-interpolation-filters:sRGB"
       id="filter2"
       x="-0.14005665"
       y="-0.21345841"
       width="1.2769371"
       height="1.4278796">
      <feGaussianBlur
         inkscape:collect="always"
         stdDeviation="0.75735997"
         id="feGaussianBlur2" />
    </filter>
    <filter
       inkscape:collect="always"
       style="color-interpolation-filters:sRGB"
       id="filter4"
       x="-0.15642993"
       y="-0.15642992"
       width="1.3128599"
       height="1.3128598">
      <feGaussianBlur
         inkscape:collect="always"
         stdDeviation="0.88795505"
         id="feGaussianBlur4" />
    </filter>
    <filter
       inkscape:collect="always"
       style="color-interpolation-filters:sRGB"
       id="filter6"
       x="-0.15642993"
       y="-0.15642993"
       width="1.3128599"
       height="1.3128599">
      <feGaussianBlur
         inkscape:collect="always"
         stdDeviation="0.88795505"
         id="feGaussianBlur6" />
    </filter>
    <filter
       inkscape:collect="always"
       style="color-interpolation-filters:sRGB"
       id="filter8"
       x="-0.28305852"
       y="-0.28304581"
       width="1.5732086"
       height="1.5763614">
      <feGaussianBlur
         inkscape:collect="always"
         stdDeviation="1.0198062"
         id="feGaussianBlur8" />
    </filter>
  </defs>
  <sodipodi:namedview
     id="namedview17"
     pagecolor="#ffffff"
     bordercolor="#000000"
     borderopacity="0.25"
     inkscape:showpageshadow="2"
     inkscape:pageopacity="0.0"
     inkscape:pagecheckerboard="0"
     inkscape:deskcolor="#d1d1d1"
     inkscape:zoom="8.9714173"
     inkscape:cx="30.485707"
     inkscape:cy="35.445904"
     inkscape:window-width="1920"
     inkscape:window-height="1020"
     inkscape:window-x="0"
     inkscape:window-y="0"
     inkscape:window-maximized="1"
     inkscape:current-layer="svg17" />
  <path
     style="fill:url(#radialGradient18);fill-rule:evenodd;stroke-width:0.848509"
     d="m 50.759191,11.456266 c -0.381295,-0.06069 -0.723852,0.154758 -0.929787,0.400064 -0.205932,0.245428 -0.34882,0.549482 -0.473255,0.932675 -0.215201,0.663093 -1.005524,3.124412 -3.855381,5.557084 -2.849857,2.432797 -7.764332,6.456514 -16.281985,6.675967 -5.179299,0.06068 -8.327116,-3.008917 -10.392396,-7.101202 -0.515421,-1.021282 -1.326799,-2.9245 -1.326799,-1.713505 v 1.87239 l -0.0263,9.690518 0.05258,0.127569 c 0,0 0.463992,1.032084 -0.02629,2.4226 -0.490287,1.390635 -2.787486,3.419951 -7.108344,4.718582 l -0.5282339,0.157186 0.1003876,0.557007 c 0.2396653,1.349368 1.1949873,2.732358 2.6053093,4.148241 1.410322,1.415763 3.298617,2.848154 5.49744,4.143145 4.397648,2.58998 10.030215,4.636668 15.502785,4.732315 5.472568,0.09589 10.826978,-1.82044 14.369832,-7.127968 3.542857,-5.307411 5.270689,-15.436648 3.855378,-28.629188 h -0.0024 c -0.04496,-0.362194 -0.12474,-0.671467 -0.267646,-0.942506 -0.142907,-0.270918 -0.383566,-0.550696 -0.764861,-0.611142 z"
     id="path2" />
  <path
     style="fill:none;fill-rule:evenodd;stroke:#000000;stroke-width:0.35356131;stroke-dasharray:none;stroke-opacity:1;filter:url(#filter7)"
     d="M 54.197711,6.0122063 C 53.74834,5.9406823 53.344625,6.1945944 53.101923,6.4836971 52.859224,6.7729431 52.690825,7.1312821 52.544173,7.5828893 52.29055,8.3643687 51.359126,11.265127 48.000462,14.132122 44.641797,16.999265 38.849904,21.741367 28.811529,22 c -6.104,0.07152 -9.813821,-3.546121 -12.24783,-8.369033 -0.607444,-1.20362 -1.563684,-3.446634 -1.563684,-2.01943 v 2.206682 l -0.031,11.42064 0.06197,0.150345 c 0,0 0.546833,1.21635 -0.03099,2.855126 -0.577822,1.638916 -3.285157,4.030541 -8.3774517,5.561026 L 6,33.990606 6.1183106,34.64706 c 0.282455,1.590281 1.4083374,3.220187 3.0704548,4.888858 1.6621176,1.66853 3.8875446,3.356657 6.4789406,4.882852 5.182794,3.05239 11.820986,5.464489 18.270616,5.577212 6.449628,0.113015 12.760001,-2.145456 16.935389,-8.400579 4.17539,-6.254983 6.211706,-18.192671 4.543709,-33.7405766 h -0.0029 C 55.361571,7.4279668 55.267549,7.0634769 55.099129,6.7440473 54.930708,6.4247608 54.647082,6.0950317 54.197711,6.0237932 Z"
     id="path2-1"
     transform="matrix(0.84850914,0,0,0.84850914,4.7719377,6.354854)" />
  <path
     style="fill:#ffffff;fill-rule:evenodd;stroke-width:0.848509"
     d="m 22.589529,24.173546 c -1.469386,0 -2.946156,0.485738 -4.070453,1.48513 -1.1243,0.999389 -1.868011,2.522411 -1.868011,4.455504 0,1.933089 0.743711,3.453974 1.868011,4.453365 1.124297,0.999392 2.601067,1.485129 4.070453,1.485129 1.469388,0 2.946158,-0.485737 4.070457,-1.485129 1.1243,-0.999391 1.870207,-2.520276 1.870207,-4.453365 0,-1.933093 -0.745907,-3.456115 -1.870207,-4.455504 -1.124299,-0.999392 -2.601069,-1.48513 -4.070457,-1.48513 z"
     id="path6" />
  <path
     style="fill:none;fill-rule:evenodd;stroke:#000000;stroke-width:0.11785377;stroke-dasharray:none;stroke-opacity:1;filter:url(#filter6)"
     d="M 20.998703,21 C 19.266976,21 17.526547,21.57246 16.20152,22.750281 14.876491,23.928099 14,25.723039 14,28.001261 14,30.27948 14.876491,32.0719 16.20152,33.24972 17.526547,34.427541 19.266976,35 20.998703,35 22.730432,35 24.470861,34.427541 25.795889,33.24972 27.120919,32.0719 28,30.27948 28,28.001261 28,25.723039 27.120919,23.928099 25.795889,22.750281 24.470861,21.57246 22.730432,21 20.998703,21 Z"
     id="path6-9"
     transform="matrix(0.84850914,0,0,0.84850914,4.7719377,6.354854)" />
  <path
     style="opacity:0.944948;fill-rule:evenodd;stroke-width:0.848509"
     d="m 21.742121,41.474293 c 2.327526,0 4.449468,0.118814 6.374151,0 3.197306,-0.201007 6.007769,-0.555012 7.42867,-1.667803 -0.601028,-0.787328 -0.768663,-1.65099 -0.768663,-1.65099 0,0 1.807919,0.751708 2.747056,1.98121 0.936446,1.226072 -0.329621,1.98143 -0.574696,3.550113 -0.545589,-1.377742 -0.886622,-1.894478 -1.024493,-2.441969 -0.991589,1.390353 -2.699541,2.38754 -4.996747,2.441969 -2.445219,0.05752 -5.558074,-0.911341 -9.185277,-2.210317 z"
     id="path8" />
  <path
     style="fill:url(#radialGradient27);fill-rule:evenodd;stroke-width:0.848509"
     d="m 11.53056,26.719072 c -0.301202,0 -0.596577,0.01803 -0.883694,0.0625 -0.7656476,0.117802 -1.4745432,0.400044 -2.0857102,0.828216 -2.4446681,1.712809 -3.0884954,5.594608 -0.068892,9.659478 3.0196072,4.064991 7.0146682,4.695831 9.4593362,2.983023 2.444669,-1.71281 3.090873,-5.594609 0.07127,-9.65948 -1.981613,-2.667602 -4.383884,-3.855592 -6.492303,-3.873503 z"
     id="path10" />
  <path
     style="fill:none;fill-rule:evenodd;stroke:#000000;stroke-width:0.2;stroke-dasharray:none;stroke-opacity:1;filter:url(#filter5)"
     d="m 7.9652917,23.999998 c -0.3549789,0 -0.7030886,0.02125 -1.0414678,0.07366 -0.902344,0.138834 -1.7378042,0.471467 -2.4580876,0.976084 -2.8811334,2.01861 -3.63990819,6.593456 -0.081191,11.384059 3.5587193,4.790745 8.2670507,5.534213 11.1481837,3.515604 2.881134,-2.018611 3.64271,-6.593457 0.08399,-11.384061 -2.335406,-3.143869 -5.166573,-4.543961 -7.6514243,-4.565069 z"
     id="path10-4"
     transform="matrix(0.84850914,0,0,0.84850914,4.7719377,6.354854)" />
  <path
     style="fill:#ffffff;fill-rule:evenodd;stroke-width:0.848509"
     d="m 32.771639,24.173546 c -1.469386,0 -2.946157,0.485737 -4.070454,1.485129 -1.1243,0.999389 -1.86801,2.522412 -1.86801,4.455504 0,1.93309 0.74371,3.453975 1.86801,4.453366 1.124297,0.999392 2.601068,1.485129 4.070454,1.485129 1.469388,0 2.946158,-0.485737 4.070457,-1.485129 1.124298,-0.999391 1.870207,-2.520276 1.870207,-4.453366 0,-1.933092 -0.745909,-3.456115 -1.870207,-4.455504 -1.124299,-0.999392 -2.601069,-1.485129 -4.070457,-1.485129 z"
     id="path11" />
  <path
     style="fill:none;fill-rule:evenodd;stroke:#000000;stroke-width:0.11785377;stroke-dasharray:none;stroke-opacity:1;filter:url(#filter4)"
     d="m 32.998703,20.999999 c -1.731727,0 -3.472157,0.57246 -4.797184,1.750281 C 26.87649,23.928098 26,25.723039 26,28.00126 c 0,2.27822 0.87649,4.07064 2.201519,5.24846 C 29.526546,34.427541 31.266976,35 32.998703,35 34.730432,35 36.470861,34.427541 37.79589,33.24972 39.120918,32.0719 40,30.27948 40,28.00126 40,25.723039 39.120918,23.928098 37.79589,22.75028 36.470861,21.572459 34.730432,20.999999 32.998703,20.999999 Z"
     id="path11-7"
     transform="matrix(0.84850914,0,0,0.84850914,4.7719377,6.354854)" />
  <path
     style="fill:url(#radialGradient29);fill-opacity:1;fill-rule:evenodd;stroke-width:0.848509"
     d="m 33.621249,28.416093 c -0.623747,0 -1.254322,0.206188 -1.740107,0.63801 -0.485784,0.431824 -0.805421,1.096919 -0.805421,1.907516 0,0.810599 0.319637,1.475694 0.805421,1.907518 0.485785,0.431822 1.11636,0.638009 1.740107,0.638009 0.623746,0 1.254321,-0.206187 1.740106,-0.638009 0.485784,-0.431824 0.805421,-1.096919 0.805421,-1.907518 0,-0.810597 -0.319637,-1.475692 -0.805421,-1.907516 -0.485785,-0.431822 -1.11636,-0.63801 -1.740106,-0.63801 z"
     id="path12" />
  <path
     style="fill:url(#radialGradient29-3);fill-opacity:1;fill-rule:evenodd;stroke-width:0.848509"
     d="m 22.862812,28.179761 c -0.623747,0 -1.254322,0.206187 -1.740107,0.638011 -0.485784,0.431823 -0.805421,1.096919 -0.805421,1.907515 0,0.810599 0.319637,1.475694 0.805421,1.907518 0.485785,0.431822 1.11636,0.638009 1.740107,0.638009 0.623746,0 1.254322,-0.206187 1.740106,-0.638009 0.485784,-0.431824 0.805422,-1.096919 0.805422,-1.907518 0,-0.810596 -0.319638,-1.475692 -0.805422,-1.907515 -0.485784,-0.431824 -1.11636,-0.638011 -1.740106,-0.638011 z"
     id="path12-5" />
  <path
     style="fill:url(#radialGradient20);stroke-width:0.848509"
     d="m 46.276327,48.264311 1.025288,-2.041817 C 43.487386,43.432003 36.366711,40.600373 36.366711,40.600373 l -1.121978,0.616777 c 0,0 6.465094,5.734115 11.031594,7.047161 z"
     id="path14" />
  <path
     style="fill:none;stroke:#000000;stroke-width:0.2;stroke-dasharray:none;stroke-opacity:1;filter:url(#filter2)"
     d="m 48.914487,49.391875 1.20834,-2.406359 C 45.627615,43.696818 37.235631,40.359634 37.235631,40.359634 l -1.322293,0.726895 c 0,0 7.619357,6.757871 13.001149,8.305346 z"
     id="path14-8"
     transform="matrix(0.84850914,0,0,0.84850914,4.7719377,6.354854)" />
  <path
     style="fill:url(#radialGradient22);stroke-width:0.848509"
     d="m 46.311995,44.500911 -0.534644,0.351601 c -0.495197,0.271053 -0.896951,0.731753 -1.222821,1.264564 -0.372882,0.875898 -0.52013,1.423634 -0.456037,2.27941 l 0.774725,-0.132659 c 0,0 4.04509,1.160471 5.95999,1.770802 l 0.223994,-0.43151 0.788548,-1.526266 -5.533755,-2.834875 z"
     id="path15" />
  <path
     style="fill:none;stroke:#000000;stroke-width:0.2;stroke-dasharray:none;stroke-opacity:1;filter:url(#filter1)"
     d="m 48.956523,44.956566 -0.630097,0.414375 c -0.583609,0.319446 -1.057092,0.862398 -1.441141,1.490336 -0.439456,1.032279 -0.612994,1.677807 -0.537458,2.686371 l 0.913044,-0.156343 c 0,0 4.76729,1.367658 7.024072,2.086956 l 0.263985,-0.508551 0.929334,-1.798762 -6.521739,-3.341006 z"
     id="path15-4"
     transform="matrix(0.84850914,0,0,0.84850914,4.7719377,6.354854)" />
  <path
     style="fill:#3f3f3f;stroke-width:0.848509"
     d="m 57.379504,55.568384 c -1.360387,-4.420035 -1.842888,-7.929532 -5.398025,-7.61724 -2.864949,0.251665 -3.065522,4.180847 -0.105027,5.265093 2.851898,1.044472 5.503049,2.352147 5.503049,2.352147 z"
     id="path16" />
  <path
     style="fill:none;stroke:#000000;stroke-width:0.2;stroke-dasharray:none;stroke-opacity:1;filter:url(#filter8)"
     d="m 62,58 c -1.603267,-5.209178 -2.171913,-9.345252 -6.361777,-8.977205 -3.37645,0.296597 -3.612833,4.927287 -0.123777,6.205111 C 58.875515,56.458855 61.999996,58 61.999996,58 Z"
     id="path16-5"
     transform="matrix(0.84850914,0,0,0.84850914,4.7719377,6.354854)" />
</svg>
