<?xml version="1.0" encoding="UTF-8" standalone="no"?>
<svg
   width="64"
   height="64"
   version="1"
   id="svg4"
   sodipodi:docname="gitkraken.svg"
   inkscape:version="1.3.2 (091e20ef0f, 2023-11-25, custom)"
   xmlns:inkscape="http://www.inkscape.org/namespaces/inkscape"
   xmlns:sodipodi="http://sodipodi.sourceforge.net/DTD/sodipodi-0.dtd"
   xmlns:xlink="http://www.w3.org/1999/xlink"
   xmlns="http://www.w3.org/2000/svg"
   xmlns:svg="http://www.w3.org/2000/svg">
  <defs
     id="defs4">
    <inkscape:path-effect
       effect="fillet_chamfer"
       id="path-effect3"
       is_visible="true"
       lpeversion="1"
       nodesatellites_param="F,0,0,1,0,0,0,1 @ F,0,0,1,0,0,0,1 @ F,0,0,1,0,0,0,1 @ F,0,0,1,0,0,0,1 @ F,0,0,1,0,0,0,1 @ F,0,0,1,0,0,0,1 @ F,0,0,1,0,0,0,1 @ F,0,0,1,0,0,0,1 @ F,0,0,1,0,3.5963363,0,1 @ F,0,0,1,0,0,0,1 @ F,0,0,1,0,0,0,1 @ F,0,0,1,0,0,0,1 @ F,0,0,1,0,0,0,1 @ F,0,0,1,0,0,0,1 @ F,0,0,1,0,0,0,1 @ F,0,0,1,0,0,0,1 @ F,0,0,1,0,0,0,1 @ F,0,0,1,0,0,0,1 @ F,0,0,1,0,0,0,1 @ F,0,0,1,0,0,0,1 @ F,0,0,1,0,0,0,1 @ F,0,0,1,0,0,0,1 @ F,0,0,1,0,0,0,1 @ F,0,0,1,0,0,0,1 @ F,0,0,1,0,0,0,1 @ F,0,0,1,0,0,0,1 @ F,0,0,1,0,0,0,1 @ F,0,0,1,0,0,0,1 @ F,0,0,1,0,0,0,1 @ F,0,0,1,0,0,0,1"
       radius="0"
       unit="px"
       method="auto"
       mode="F"
       chamfer_steps="1"
       flexible="false"
       use_knot_distance="true"
       apply_no_radius="true"
       apply_with_radius="true"
       only_selected="false"
       hide_knots="false" />
    <inkscape:path-effect
       effect="fillet_chamfer"
       id="path-effect2"
       is_visible="true"
       lpeversion="1"
       nodesatellites_param="F,0,0,1,0,0,0,1 @ F,0,0,1,0,0,0,1 @ F,0,0,1,0,0,0,1 @ F,0,0,1,0,0,0,1 @ F,0,0,1,0,0,0,1 @ F,0,0,1,0,0,0,1 @ F,0,0,1,0,0,0,1 @ F,0,0,1,0,0,0,1 @ F,0,0,1,0,2.879146,0,1 @ F,0,0,1,0,0,0,1 @ F,0,0,1,0,0,0,1 @ F,0,0,1,0,0,0,1 @ F,0,0,1,0,0,0,1 @ F,0,0,1,0,0,0,1 @ F,0,0,1,0,0,0,1 @ F,0,0,1,0,0,0,1 @ F,0,0,1,0,0,0,1 @ F,0,0,1,0,0,0,1 @ F,0,0,1,0,0,0,1 @ F,0,0,1,0,0,0,1 @ F,0,0,1,0,0,0,1 @ F,0,0,1,0,0,0,1 @ F,0,0,1,0,0,0,1 @ F,0,0,1,0,0,0,1 @ F,0,0,1,0,0,0,1 @ F,0,0,1,0,0,0,1 @ F,0,0,1,0,0,0,1 @ F,0,0,1,0,0,0,1 @ F,0,0,1,0,0,0,1"
       radius="0"
       unit="px"
       method="auto"
       mode="F"
       chamfer_steps="1"
       flexible="false"
       use_knot_distance="true"
       apply_no_radius="true"
       apply_with_radius="true"
       only_selected="false"
       hide_knots="false" />
    <linearGradient
       id="linearGradient7"
       inkscape:collect="always">
      <stop
         style="stop-color:#3e3e3e;stop-opacity:1;"
         offset="0"
         id="stop8" />
      <stop
         style="stop-color:#1e1e1e;stop-opacity:1;"
         offset="1"
         id="stop9" />
    </linearGradient>
    <inkscape:path-effect
       effect="fillet_chamfer"
       id="path-effect1"
       is_visible="true"
       lpeversion="1"
       nodesatellites_param="F,0,0,1,0,0,0,1 @ F,0,0,1,0,0,0,1 @ F,0,0,1,0,0,0,1 @ F,0,0,1,0,0,0,1 @ F,0,0,1,0,0,0,1 @ F,0,0,1,0,0,0,1 @ F,0,0,1,0,2.1784629,0,1 @ F,0,0,1,0,0,0,1 @ F,0,0,1,0,0,0,1 @ F,0,0,1,0,10.420922,0,1 @ F,0,0,1,0,0,0,1 @ F,0,0,1,0,0,0,1 @ F,0,0,1,0,0,0,1 @ F,0,0,1,0,1.6670227,0,1 @ F,0,0,1,0,1.8299602,0,1 @ F,0,0,1,0,0,0,1 @ F,0,0,1,0,0,0,1 @ F,0,0,1,0,6.9927616,0,1 @ F,0,0,1,0,0,0,1 @ F,0,0,1,0,5.843735,0,1 @ F,0,0,1,0,1.161725,0,1 @ F,0,0,1,0,1.161725,0,1 @ F,0,0,1,0,5.843735,0,1 @ F,0,0,1,0,0,0,1 @ F,0,0,1,0,6.9927616,0,1 @ F,0,0,1,0,0,0,1 @ F,0,0,1,0,0,0,1 @ F,0,0,1,0,1.8299602,0,1 @ F,0,1,1,0,1.6670227,0,1 @ F,0,0,1,0,1.4929763,0,1 @ F,0,0,1,0,0,0,1 @ F,0,0,1,0,0,0,1 @ F,0,0,1,0,16.46648,0,1 @ F,0,0,1,0,0,0,1 @ F,0,0,1,0,0,0,1 @ F,0,0,1,0,0,0,1 @ F,0,0,1,0,2.1784629,0,1 @ F,0,0,1,0,0,0,1 @ F,0,0,1,0,0,0,1 @ F,0,0,1,0,0,0,1 @ F,0,0,1,0,0,0,1 @ F,0,0,1,0,0,0,1 @ F,0,0,1,0,0,0,1 @ F,0,0,1,0,0,0,1 | F,0,0,1,0,0,0,1 @ F,0,0,1,0,0,0,1 @ F,0,0,1,0,0,0,1 @ F,0,0,1,0,0,0,1 | F,0,0,1,0,0,0,1 @ F,0,0,1,0,0,0,1 @ F,0,0,1,0,0,0,1 @ F,0,0,1,0,0,0,1"
       radius="0"
       unit="px"
       method="auto"
       mode="F"
       chamfer_steps="1"
       flexible="false"
       use_knot_distance="true"
       apply_no_radius="true"
       apply_with_radius="true"
       only_selected="false"
       hide_knots="false" />
    <linearGradient
       id="linearGradient5"
       inkscape:collect="always">
      <stop
         style="stop-color:#41d8ff;stop-opacity:1;"
         offset="0"
         id="stop6" />
      <stop
         style="stop-color:#00ffe7;stop-opacity:1;"
         offset="1"
         id="stop7" />
    </linearGradient>
    <radialGradient
       inkscape:collect="always"
       xlink:href="#linearGradient5"
       id="radialGradient7"
       cx="27.411766"
       cy="44.426723"
       fx="27.411766"
       fy="44.426723"
       r="23.003906"
       gradientTransform="matrix(4.5409426,-2.6217144,2.2064531,3.8216886,-210.55601,-52.163783)"
       gradientUnits="userSpaceOnUse" />
    <inkscape:path-effect
       effect="fillet_chamfer"
       id="path-effect1-6"
       is_visible="true"
       lpeversion="1"
       nodesatellites_param="F,0,0,1,0,0,0,1 @ F,0,0,1,0,0,0,1 @ F,0,0,1,0,0,0,1 @ F,0,0,1,0,0,0,1 @ F,0,0,1,0,0,0,1 @ F,0,0,1,0,0,0,1 @ F,0,0,1,0,2.1784629,0,1 @ F,0,0,1,0,0,0,1 @ F,0,0,1,0,0,0,1 @ F,0,0,1,0,10.420922,0,1 @ F,0,0,1,0,0,0,1 @ F,0,0,1,0,0,0,1 @ F,0,0,1,0,0,0,1 @ F,0,0,1,0,1.4929763,0,1 @ F,0,0,1,0,1.451682,0,1 @ F,0,0,1,0,0,0,1 @ F,0,0,1,0,0,0,1 @ F,0,0,1,0,6.9927616,0,1 @ F,0,0,1,0,0,0,1 @ F,0,0,1,0,5.843735,0,1 @ F,0,0,1,0,1.161725,0,1 @ F,0,0,1,0,1.161725,0,1 @ F,0,0,1,0,5.843735,0,1 @ F,0,0,1,0,0,0,1 @ F,0,0,1,0,6.9927616,0,1 @ F,0,0,1,0,0,0,1 @ F,0,0,1,0,0,0,1 @ F,0,1,1,0,1.451682,0,1 @ F,0,0,1,0,2.2698534,0,1 @ F,0,0,1,0,1.4929763,0,1 @ F,0,0,1,0,0,0,1 @ F,0,0,1,0,0,0,1 @ F,0,0,1,0,16.46648,0,1 @ F,0,0,1,0,0,0,1 @ F,0,0,1,0,0,0,1 @ F,0,0,1,0,0,0,1 @ F,0,0,1,0,2.1784629,0,1 @ F,0,0,1,0,0,0,1 @ F,0,0,1,0,0,0,1 @ F,0,0,1,0,0,0,1 @ F,0,0,1,0,0,0,1 @ F,0,0,1,0,0,0,1 @ F,0,0,1,0,0,0,1 @ F,0,0,1,0,0,0,1 | F,0,0,1,0,0,0,1 @ F,0,0,1,0,0,0,1 @ F,0,0,1,0,0,0,1 @ F,0,0,1,0,0,0,1 | F,0,0,1,0,0,0,1 @ F,0,0,1,0,0,0,1 @ F,0,0,1,0,0,0,1 @ F,0,0,1,0,0,0,1"
       radius="0"
       unit="px"
       method="auto"
       mode="F"
       chamfer_steps="1"
       flexible="false"
       use_knot_distance="true"
       apply_no_radius="true"
       apply_with_radius="true"
       only_selected="false"
       hide_knots="false" />
    <inkscape:path-effect
       effect="fillet_chamfer"
       id="path-effect1-5"
       is_visible="true"
       lpeversion="1"
       nodesatellites_param="F,0,0,1,0,0,0,1 @ F,0,0,1,0,0,0,1 @ F,0,0,1,0,0,0,1 @ F,0,0,1,0,0,0,1 @ F,0,0,1,0,0,0,1 @ F,0,0,1,0,0,0,1 @ F,0,0,1,0,2.1784629,0,1 @ F,0,0,1,0,0,0,1 @ F,0,0,1,0,0,0,1 @ F,0,0,1,0,10.420922,0,1 @ F,0,0,1,0,0,0,1 @ F,0,0,1,0,0,0,1 @ F,0,0,1,0,0,0,1 @ F,0,0,1,0,1.6670227,0,1 @ F,0,0,1,0,1.8299602,0,1 @ F,0,0,1,0,0,0,1 @ F,0,0,1,0,0,0,1 @ F,0,0,1,0,6.9927616,0,1 @ F,0,0,1,0,0,0,1 @ F,0,0,1,0,5.843735,0,1 @ F,0,0,1,0,1.161725,0,1 @ F,0,0,1,0,1.161725,0,1 @ F,0,0,1,0,5.843735,0,1 @ F,0,0,1,0,0,0,1 @ F,0,0,1,0,6.9927616,0,1 @ F,0,0,1,0,0,0,1 @ F,0,0,1,0,0,0,1 @ F,0,0,1,0,1.8299602,0,1 @ F,0,1,1,0,1.6670227,0,1 @ F,0,0,1,0,1.4929763,0,1 @ F,0,0,1,0,0,0,1 @ F,0,0,1,0,0,0,1 @ F,0,0,1,0,16.46648,0,1 @ F,0,0,1,0,0,0,1 @ F,0,0,1,0,0,0,1 @ F,0,0,1,0,0,0,1 @ F,0,0,1,0,2.1784629,0,1 @ F,0,0,1,0,0,0,1 @ F,0,0,1,0,0,0,1 @ F,0,0,1,0,0,0,1 @ F,0,0,1,0,0,0,1 @ F,0,0,1,0,0,0,1 @ F,0,0,1,0,0,0,1 @ F,0,0,1,0,0,0,1 | F,0,0,1,0,0,0,1 @ F,0,0,1,0,0,0,1 @ F,0,0,1,0,0,0,1 @ F,0,0,1,0,0,0,1 | F,0,0,1,0,0,0,1 @ F,0,0,1,0,0,0,1 @ F,0,0,1,0,0,0,1 @ F,0,0,1,0,0,0,1"
       radius="0"
       unit="px"
       method="auto"
       mode="F"
       chamfer_steps="1"
       flexible="false"
       use_knot_distance="true"
       apply_no_radius="true"
       apply_with_radius="true"
       only_selected="false"
       hide_knots="false" />
    <radialGradient
       inkscape:collect="always"
       xlink:href="#linearGradient7"
       id="radialGradient9"
       cx="11.864526"
       cy="17.874657"
       fx="11.864526"
       fy="17.874657"
       r="32.903324"
       gradientTransform="matrix(1.6364198,0.94478739,-0.7758098,1.343742,9.5010519,-12.995228)"
       gradientUnits="userSpaceOnUse" />
    <inkscape:path-effect
       effect="fillet_chamfer"
       id="path-effect1-9"
       is_visible="true"
       lpeversion="1"
       nodesatellites_param="F,0,0,1,0,0,0,1 @ F,0,0,1,0,0,0,1 @ F,0,0,1,0,0,0,1 @ F,0,0,1,0,0,0,1 @ F,0,0,1,0,0,0,1 @ F,0,0,1,0,0,0,1 @ F,0,0,1,0,2.1784629,0,1 @ F,0,0,1,0,0,0,1 @ F,0,0,1,0,0,0,1 @ F,0,0,1,0,10.420922,0,1 @ F,0,0,1,0,0,0,1 @ F,0,0,1,0,0,0,1 @ F,0,0,1,0,0,0,1 @ F,0,0,1,0,1.6670227,0,1 @ F,0,0,1,0,1.8299602,0,1 @ F,0,0,1,0,0,0,1 @ F,0,0,1,0,0,0,1 @ F,0,0,1,0,6.9927616,0,1 @ F,0,0,1,0,0,0,1 @ F,0,0,1,0,5.843735,0,1 @ F,0,0,1,0,1.161725,0,1 @ F,0,0,1,0,1.161725,0,1 @ F,0,0,1,0,5.843735,0,1 @ F,0,0,1,0,0,0,1 @ F,0,0,1,0,6.9927616,0,1 @ F,0,0,1,0,0,0,1 @ F,0,0,1,0,0,0,1 @ F,0,0,1,0,1.8299602,0,1 @ F,0,1,1,0,1.6670227,0,1 @ F,0,0,1,0,1.4929763,0,1 @ F,0,0,1,0,0,0,1 @ F,0,0,1,0,0,0,1 @ F,0,0,1,0,16.46648,0,1 @ F,0,0,1,0,0,0,1 @ F,0,0,1,0,0,0,1 @ F,0,0,1,0,0,0,1 @ F,0,0,1,0,2.1784629,0,1 @ F,0,0,1,0,0,0,1 @ F,0,0,1,0,0,0,1 @ F,0,0,1,0,0,0,1 @ F,0,0,1,0,0,0,1 @ F,0,0,1,0,0,0,1 @ F,0,0,1,0,0,0,1 @ F,0,0,1,0,0,0,1 | F,0,0,1,0,0,0,1 @ F,0,0,1,0,0,0,1 @ F,0,0,1,0,0,0,1 @ F,0,0,1,0,0,0,1 | F,0,0,1,0,0,0,1 @ F,0,0,1,0,0,0,1 @ F,0,0,1,0,0,0,1 @ F,0,0,1,0,0,0,1"
       radius="0"
       unit="px"
       method="auto"
       mode="F"
       chamfer_steps="1"
       flexible="false"
       use_knot_distance="true"
       apply_no_radius="true"
       apply_with_radius="true"
       only_selected="false"
       hide_knots="false" />
    <filter
       inkscape:collect="always"
       style="color-interpolation-filters:sRGB"
       id="filter10"
       x="-0.043991821"
       y="-0.053573593"
       width="1.0879836"
       height="1.1071483">
      <feGaussianBlur
         inkscape:collect="always"
         stdDeviation="1.0527397"
         id="feGaussianBlur10" />
    </filter>
    <filter
       inkscape:collect="always"
       style="color-interpolation-filters:sRGB"
       id="filter1"
       x="-0.021254866"
       y="-0.026942646"
       width="1.0425097"
       height="1.0538718">
      <feGaussianBlur
         inkscape:collect="always"
         stdDeviation="0.42219003"
         id="feGaussianBlur1" />
    </filter>
  </defs>
  <sodipodi:namedview
     id="namedview4"
     pagecolor="#ffffff"
     bordercolor="#000000"
     borderopacity="0.25"
     inkscape:showpageshadow="2"
     inkscape:pageopacity="0.0"
     inkscape:pagecheckerboard="0"
     inkscape:deskcolor="#d1d1d1"
     inkscape:zoom="8.0000004"
     inkscape:cx="22.562499"
     inkscape:cy="31.062498"
     inkscape:window-width="1920"
     inkscape:window-height="1020"
     inkscape:window-x="0"
     inkscape:window-y="0"
     inkscape:window-maximized="1"
     inkscape:current-layer="svg4" />
  <path
     d="m 26.378172,9.2497634 c -2.815455,-1.107e-4 -5.41813,0.9623146 -8.094494,2.6115526 -1.827093,1.125895 -3.619852,2.677862 -5.009312,4.682044 -0.236292,-0.07845 -0.478953,-0.136234 -0.725247,-0.172678 -3.114463,0 -4.8822937,1.7992 -6.1604994,3.645976 -1.2782055,1.846776 -2.0816463,4.169073 -2.090228,6.798585 -8.4e-6,0.0051 -8.4e-6,0.0099 0,0.0148 0.00488,12.93609 8.3346464,24.174978 20.3858894,27.621927 1.371028,0.392147 2.794667,0.381022 4.116259,0.05846 1.914576,-0.467295 4.502001,-0.465918 6.416651,5.01e-4 1.319709,0.321489 2.740642,0.331831 4.106909,-0.05896 12.051188,-3.446966 20.379354,-14.685848 20.384245,-27.621925 v -0.0017 -0.0017 -0.0017 -0.0017 -0.0017 -0.0017 -0.0017 -0.0017 -0.0017 c -0.0085,-2.629566 -0.811999,-4.951799 -2.090227,-6.798586 -1.278228,-1.846784 -3.046037,-3.645976 -6.1605,-3.645976 -0.441284,0.139022 -0.857226,0.348382 -1.23177,0.619997 -0.889467,-1.200545 -1.842236,-2.308376 -2.85988,-3.206644 -1.56781,-1.383901 -3.210856,-2.445517 -4.803742,-3.211814 C 40.969342,9.8055456 39.559334,9.2496201 37.630209,9.2496201 36.93871,9.3926709 36.29311,9.703893 35.750485,10.155769 34.65101,9.6243788 33.40114,9.2496201 32.004191,9.2496201 c -1.420816,0 -2.645281,0.3870174 -3.72327,0.9176609 C 27.732889,9.7078647 27.078887,9.3924506 26.378172,9.2496201 Z"
     style="fill:url(#radialGradient9);stroke-width:0.842011;stroke-linecap:round;stroke-linejoin:round;stroke-miterlimit:6.1"
     id="path6"
     sodipodi:nodetypes="csccsccscssccccccccssccssccscc"
     inkscape:path-effect="#path-effect3"
     inkscape:original-d="m 26.378172,9.2497634 c -2.815455,-1.107e-4 -5.41813,0.9623146 -8.094494,2.6115526 -1.827093,1.125895 -3.619852,2.677862 -5.009312,4.682044 -0.236292,-0.07845 -0.478953,-0.136234 -0.725247,-0.172678 -3.114463,0 -4.8822937,1.7992 -6.1604994,3.645976 -1.2782055,1.846776 -2.0816463,4.169073 -2.090228,6.798585 -8.4e-6,0.0051 -8.4e-6,0.0099 0,0.0148 0.00488,12.93609 8.3346464,24.174978 20.3858894,27.621927 2.605408,0.745209 5.40081,0.0341 7.324843,-1.503124 1.921484,1.538945 4.717055,2.2462 7.314976,1.503124 12.051188,-3.446966 20.379354,-14.685848 20.384245,-27.621925 v -0.0017 -0.0017 -0.0017 -0.0017 -0.0017 -0.0017 -0.0017 -0.0017 -0.0017 c -0.0085,-2.629566 -0.811999,-4.951799 -2.090227,-6.798586 -1.278228,-1.846784 -3.046037,-3.645976 -6.1605,-3.645976 -0.441284,0.139022 -0.857226,0.348382 -1.23177,0.619997 -0.889467,-1.200545 -1.842236,-2.308376 -2.85988,-3.206644 -1.56781,-1.383901 -3.210856,-2.445517 -4.803742,-3.211814 C 40.969342,9.8055456 39.559334,9.2496201 37.630209,9.2496201 36.93871,9.3926709 36.29311,9.703893 35.750485,10.155769 34.65101,9.6243788 33.40114,9.2496201 32.004191,9.2496201 c -1.420816,0 -2.645281,0.3870174 -3.72327,0.9176609 C 27.732889,9.7078647 27.078887,9.3924506 26.378172,9.2496201 Z" />
  <path
     style="fill:url(#radialGradient7);stroke-width:1.14275"
     d="m 25.166511,22.1752 c -2.790328,3.664822 -4.231733,6.625105 -4.231733,8.682195 0,1.363736 0.120809,1.581541 1.301214,2.365841 2.017715,1.82953 1.655143,3.532556 2.129257,5.943621 -0.64971,0 -1.142746,1.142746 -1.142746,2.285492 0,1.142747 0.522916,2.285493 1.142746,2.285493 l -1.56e-4,0.158365 c -0.0012,1.203131 -0.860094,1.702296 -1.806597,0.961177 -3.990775,-3.124805 -6.194772,-8.053541 -6.194772,-13.62949 0,-6.816512 3.947844,-12.148028 9.682097,-14.914815 -3.378262,-1.33e-4 -10.099472,3.09219 -12.015485,8.453659 -0.709001,1.983955 -1.094851,4.137523 -1.094851,6.458867 0,8.330302 4.339873,15.457793 11.427464,18.69908 l 0.330324,0.1607 c 0.488144,0.212646 0.988669,0.40102 1.498237,0.570251 0.873534,0.290107 1.599678,1.213946 1.599678,2.134618 0,1.008455 -0.80333,1.657496 -1.770548,1.365246 C 16.027171,51.135926 9.5304831,41.864431 9.5050833,31.227894 c 0.00354,-2.322545 0.3440501,-4.692052 1.0110617,-6.91674 -1.9574778,0 -4.42673,3.064872 -4.4393009,6.91674 0.00472,12.481588 7.9466209,23.10665 19.3940399,26.38089 3.096928,0.885796 5.748612,-1.631568 5.748612,-4.858974 v -4.426467 a 1.1570841,1.1570841 135.11467 0 1 1.161716,-1.157075 l 0.04987,2e-4 a 1.1579115,1.1579115 45.323539 0 1 1.153246,1.166344 l -0.0322,4.417119 c -0.02353,3.22732 2.609085,5.744613 5.706017,4.858806 11.447355,-3.274256 19.389242,-13.899309 19.393961,-26.380884 -0.01249,-3.851868 -2.481823,-6.91674 -4.439301,-6.91674 0.667012,2.224688 1.007519,4.594195 1.011062,6.91674 -0.0254,10.636539 -6.522139,19.908084 -16.51563,22.927664 -0.967216,0.292249 -1.770544,-0.358607 -1.770544,-1.369266 0,-0.918468 0.726179,-1.8405 1.599754,-2.130624 0.03502,-0.01163 0.06999,-0.02335 0.104924,-0.03516 0.780821,-0.26404 1.541127,-0.607011 1.723561,-0.695764 7.087591,-3.241287 11.427464,-10.368778 11.427464,-18.69908 0,-0.177397 -0.0022,-0.353816 -0.0067,-0.529255 -0.223392,-8.824025 -9.712587,-14.383314 -13.10366,-14.383314 5.734253,2.766787 9.682097,8.098357 9.682097,14.914868 0,6.366695 -2.873436,11.889594 -7.999225,14.846776 l -1.49e-4,-0.158419 c -0.0011,-1.203131 0.934667,-2.780489 1.098574,-3.894347 0.02741,-0.186275 0.04212,-0.377941 0.04212,-0.569608 0,-1.142746 -0.493036,-2.285492 -1.142746,-2.285492 0.474114,-2.411065 0.111543,-4.114091 2.129257,-5.943621 1.180405,-0.7843 1.301213,-1.002105 1.301213,-2.365841 0,-2.05709 -1.441404,-5.017373 -4.231732,-8.682195 -1.812953,-2.380257 -3.769755,-5.863278 -7.197994,-5.863278 -3.428239,0 -5.657179,3.914993 -7.197963,5.863264 z m 2.055604,18.134403 c 0.946688,0 1.714032,0.767344 1.71412,1.71412 -8.8e-5,0.946776 -0.767432,1.714119 -1.71412,1.714119 -0.946687,0 -1.714031,-0.767344 -1.714119,-1.714119 8.8e-5,-0.946776 0.767432,-1.71412 1.714119,-1.71412 z m 10.284718,0 c 0.946687,0 1.714031,0.767344 1.714119,1.71412 -8.8e-5,0.946775 -0.767432,1.714119 -1.714119,1.714119 -0.946688,0 -1.714032,-0.767343 -1.71412,-1.714119 8.8e-5,-0.946776 0.767432,-1.71412 1.71412,-1.71412 z"
     id="path3"
     inkscape:path-effect="#path-effect1"
     inkscape:original-d="m 25.166511,22.1752 c -2.790328,3.664822 -4.231733,6.625105 -4.231733,8.682195 0,1.363736 0.120809,1.581541 1.301214,2.365841 2.017715,1.82953 1.655143,3.532556 2.129257,5.943621 -0.64971,0 -1.142746,1.142746 -1.142746,2.285492 0,1.142747 0.522916,2.285493 1.142746,2.285493 l -0.0023,2.336827 c -5.125789,-2.957181 -7.999225,-8.48008 -7.999225,-14.846775 0,-6.816512 3.947844,-12.148028 9.682097,-14.914815 -2.038945,-8e-5 -4.07789,7.53e-4 -6.116834,-0.0011 -4.27052,3.764247 -6.993502,8.746927 -6.993502,14.913626 0,8.330302 4.339873,15.457793 11.427464,18.69908 l 0.330324,0.1607 c 0.990924,0.431668 2.032869,0.763316 3.097915,1.037846 v 3.492964 C 16.801223,52.205043 9.5319538,42.480318 9.5050833,31.227894 c 0.00354,-2.322545 0.3440501,-4.692052 1.0110617,-6.91674 H 6.9718466 c -0.5860108,2.238792 -0.8874528,4.602523 -0.8950025,6.91674 0.00547,14.47957 10.6925929,26.460679 25.1426519,27.365651 V 47.161618 l 2.373305,0.0095 -0.08328,11.422393 c 14.44999,-0.904979 25.137109,-12.886088 25.142583,-27.365658 -0.0075,-2.314217 -0.308992,-4.677948 -0.895002,-6.91674 h -3.544299 c 0.667012,2.224688 1.007519,4.594195 1.011062,6.91674 -0.02687,11.252424 -7.296193,20.977203 -18.286174,23.388358 v -3.492965 c 1.065047,-0.274529 2.106991,-0.606177 3.097915,-1.037845 l 0.330324,-0.1607 c 7.087591,-3.241287 11.427464,-10.368778 11.427464,-18.69908 0,-6.166699 -2.699786,-11.150622 -6.970306,-14.914869 -2.046675,0.0037 -4.093353,0.0023 -6.14003,0.0023 5.734253,2.766787 9.682097,8.098357 9.682097,14.914868 0,6.366695 -2.873436,11.889594 -7.999225,14.846776 l -0.0022,-2.336881 c 0.61983,0 1.142746,-1.142746 1.142746,-2.285493 0,-1.142746 -0.493036,-2.285492 -1.142746,-2.285492 0.474114,-2.411065 0.111543,-4.114091 2.129257,-5.943621 1.180405,-0.7843 1.301213,-1.002105 1.301213,-2.365841 0,-2.05709 -1.441404,-5.017373 -4.231732,-8.682195 -1.812953,-2.380257 -3.769755,-5.863278 -7.197994,-5.863278 -3.428239,0 -5.657179,3.914993 -7.197963,5.863264 z m 2.055604,18.134403 c 0.946688,0 1.714032,0.767344 1.71412,1.71412 -8.8e-5,0.946776 -0.767432,1.714119 -1.71412,1.714119 -0.946687,0 -1.714031,-0.767344 -1.714119,-1.714119 8.8e-5,-0.946776 0.767432,-1.71412 1.714119,-1.71412 z m 10.284718,0 c 0.946687,0 1.714031,0.767344 1.714119,1.71412 -8.8e-5,0.946775 -0.767432,1.714119 -1.714119,1.714119 -0.946688,0 -1.714032,-0.767343 -1.71412,-1.714119 8.8e-5,-0.946776 0.767432,-1.71412 1.71412,-1.71412 z"
     sodipodi:nodetypes="ssccsccsccsccccccccccccccccccccsccsccsccscscssscsscscsc"
     transform="matrix(0.88755894,0,0,0.88755894,3.2779878,-0.88444081)" />
  <path
     d="m 25.985448,7.4810838 c -3.033742,-1.19e-4 -5.838208,1.036925 -8.722075,2.8140302 -1.968749,1.213189 -3.900504,2.885482 -5.397691,5.045052 -0.254612,-0.08454 -0.516088,-0.146796 -0.781478,-0.186066 -3.355932,0 -5.2608263,1.938695 -6.6381335,3.928655 -1.3773071,1.98996 -2.2430401,4.49231 -2.2522872,7.325692 -9.1e-6,0.0054 -9.1e-6,0.01063 0,0.01595 0.00526,13.93905 8.9808467,26.049309 21.9664427,29.763505 1.813425,0.518683 3.712269,0.382617 5.388302,-0.225177 1.48829,-0.539711 3.519915,-0.538486 5.008247,8.67e-4 1.674287,0.60674 3.570706,0.741337 5.378322,0.22431 C 52.920635,52.473682 61.8945,40.36343 61.89977,26.424395 v -0.0018 -0.0018 -0.0018 -0.0018 -0.0018 -0.0018 -0.0018 -0.0018 -0.0018 c -0.0092,-2.833442 -0.874955,-5.335722 -2.252287,-7.325693 -1.377331,-1.98997 -3.282202,-3.928655 -6.638134,-3.928655 -0.475498,0.1498 -0.923688,0.375392 -1.327272,0.668066 -0.958428,-1.293626 -1.985067,-2.487349 -3.081611,-3.455261 -1.689366,-1.491197 -3.4598,-2.6351234 -5.176185,-3.4608322 -1.716384,-0.825709 -3.235712,-1.424736 -5.314405,-1.424736 -0.745112,0.154142 -1.440768,0.489493 -2.025463,0.976404 -1.184719,-0.572589 -2.531493,-0.976404 -4.036751,-0.976404 -1.530974,0 -2.850374,0.417024 -4.011942,0.988809 -0.590521,-0.495036 -1.295229,-0.834904 -2.050272,-0.988809 z"
     style="mix-blend-mode:normal;fill:none;stroke:#000000;stroke-width:0.2;stroke-linecap:round;stroke-linejoin:round;stroke-miterlimit:6.1;stroke-dasharray:none;stroke-opacity:0.997776;filter:url(#filter10)"
     id="path6-0"
     sodipodi:nodetypes="csccsccscssccccccccssccssccscc"
     transform="matrix(0.92804686,0,0,0.92804686,2.3058663,2.3021392)"
     inkscape:path-effect="#path-effect2"
     inkscape:original-d="m 25.985448,7.4810838 c -3.033742,-1.19e-4 -5.838208,1.036925 -8.722075,2.8140302 -1.968749,1.213189 -3.900504,2.885482 -5.397691,5.045052 -0.254612,-0.08454 -0.516088,-0.146796 -0.781478,-0.186066 -3.355932,0 -5.2608263,1.938695 -6.6381335,3.928655 -1.3773071,1.98996 -2.2430401,4.49231 -2.2522872,7.325692 -9.1e-6,0.0054 -9.1e-6,0.01063 0,0.01595 0.00526,13.93905 8.9808467,26.049309 21.9664427,29.763505 2.807411,0.802987 5.819545,0.03674 7.892752,-1.619663 2.07046,1.658262 5.082776,2.420351 7.882119,1.619663 C 52.920635,52.473682 61.8945,40.36343 61.89977,26.424395 v -0.0018 -0.0018 -0.0018 -0.0018 -0.0018 -0.0018 -0.0018 -0.0018 -0.0018 c -0.0092,-2.833442 -0.874955,-5.335722 -2.252287,-7.325693 -1.377331,-1.98997 -3.282202,-3.928655 -6.638134,-3.928655 -0.475498,0.1498 -0.923688,0.375392 -1.327272,0.668066 -0.958428,-1.293626 -1.985067,-2.487349 -3.081611,-3.455261 -1.689366,-1.491197 -3.4598,-2.6351234 -5.176185,-3.4608322 -1.716384,-0.825709 -3.235712,-1.424736 -5.314405,-1.424736 -0.745112,0.154142 -1.440768,0.489493 -2.025463,0.976404 -1.184719,-0.572589 -2.531493,-0.976404 -4.036751,-0.976404 -1.530974,0 -2.850374,0.417024 -4.011942,0.988809 -0.590521,-0.495036 -1.295229,-0.834904 -2.050272,-0.988809 z" />
  <path
     style="mix-blend-mode:normal;fill:none;stroke:#00fffa;stroke-width:0.208448;stroke-miterlimit:4.6;stroke-dasharray:none;stroke-opacity:0.99777597;filter:url(#filter1)"
     d="m 25.166511,22.1752 c -2.790328,3.664822 -4.231733,6.625105 -4.231733,8.682195 0,1.363736 0.120809,1.581541 1.301214,2.365841 2.017715,1.82953 1.655143,3.532556 2.129257,5.943621 -0.64971,0 -1.142746,1.142746 -1.142746,2.285492 0,1.142747 0.522916,2.285493 1.142746,2.285493 l -1.56e-4,0.158365 c -0.0012,1.203131 -0.860094,1.702296 -1.806597,0.961177 -3.990775,-3.124805 -6.194772,-8.053541 -6.194772,-13.62949 0,-6.816512 3.947844,-12.148028 9.682097,-14.914815 -3.378262,-1.33e-4 -10.099472,3.09219 -12.015485,8.453659 -0.709001,1.983955 -1.094851,4.137523 -1.094851,6.458867 0,8.330302 4.339873,15.457793 11.427464,18.69908 l 0.330324,0.1607 c 0.488144,0.212646 0.988669,0.40102 1.498237,0.570251 0.873534,0.290107 1.599678,1.213946 1.599678,2.134618 0,1.008455 -0.80333,1.657496 -1.770548,1.365246 C 16.027171,51.135926 9.5304831,41.864431 9.5050833,31.227894 c 0.00354,-2.322545 0.3440501,-4.692052 1.0110617,-6.91674 -1.9574778,0 -4.42673,3.064872 -4.4393009,6.91674 0.00472,12.481588 7.9466209,23.10665 19.3940399,26.38089 3.096928,0.885796 5.748612,-1.631568 5.748612,-4.858974 v -4.426467 a 1.1570841,1.1570841 135.11467 0 1 1.161716,-1.157075 l 0.04987,2e-4 a 1.1579115,1.1579115 45.323539 0 1 1.153246,1.166344 l -0.0322,4.417119 c -0.02353,3.22732 2.609085,5.744613 5.706017,4.858806 11.447355,-3.274256 19.389242,-13.899309 19.393961,-26.380884 -0.01249,-3.851868 -2.481823,-6.91674 -4.439301,-6.91674 0.667012,2.224688 1.007519,4.594195 1.011062,6.91674 -0.0254,10.636539 -6.522139,19.908084 -16.51563,22.927664 -0.967216,0.292249 -1.770544,-0.358607 -1.770544,-1.369266 0,-0.918468 0.726179,-1.8405 1.599754,-2.130624 0.03502,-0.01163 0.06999,-0.02335 0.104924,-0.03516 0.780821,-0.26404 1.541127,-0.607011 1.723561,-0.695764 7.087591,-3.241287 11.427464,-10.368778 11.427464,-18.69908 0,-0.177397 -0.0022,-0.353816 -0.0067,-0.529255 -0.223392,-8.824025 -9.712587,-14.383314 -13.10366,-14.383314 5.734253,2.766787 9.682097,8.098357 9.682097,14.914868 0,6.366695 -2.873436,11.889594 -7.999225,14.846776 l -1.49e-4,-0.158419 c -0.0011,-1.203131 0.934667,-2.780489 1.098574,-3.894347 0.02741,-0.186275 0.04212,-0.377941 0.04212,-0.569608 0,-1.142746 -0.493036,-2.285492 -1.142746,-2.285492 0.474114,-2.411065 0.111543,-4.114091 2.129257,-5.943621 1.180405,-0.7843 1.301213,-1.002105 1.301213,-2.365841 0,-2.05709 -1.441404,-5.017373 -4.231732,-8.682195 -1.812953,-2.380257 -3.769755,-5.863278 -7.197994,-5.863278 -3.428239,0 -5.657179,3.914993 -7.197963,5.863264 z m 2.055604,18.134403 c 0.946688,0 1.714032,0.767344 1.71412,1.71412 -8.8e-5,0.946776 -0.767432,1.714119 -1.71412,1.714119 -0.946687,0 -1.714031,-0.767344 -1.714119,-1.714119 8.8e-5,-0.946776 0.767432,-1.71412 1.714119,-1.71412 z m 10.284718,0 c 0.946687,0 1.714031,0.767344 1.714119,1.71412 -8.8e-5,0.946775 -0.767432,1.714119 -1.714119,1.714119 -0.946688,0 -1.714032,-0.767343 -1.71412,-1.714119 8.8e-5,-0.946776 0.767432,-1.71412 1.71412,-1.71412 z"
     id="path3-9"
     inkscape:path-effect="#path-effect1-9"
     inkscape:original-d="m 25.166511,22.1752 c -2.790328,3.664822 -4.231733,6.625105 -4.231733,8.682195 0,1.363736 0.120809,1.581541 1.301214,2.365841 2.017715,1.82953 1.655143,3.532556 2.129257,5.943621 -0.64971,0 -1.142746,1.142746 -1.142746,2.285492 0,1.142747 0.522916,2.285493 1.142746,2.285493 l -0.0023,2.336827 c -5.125789,-2.957181 -7.999225,-8.48008 -7.999225,-14.846775 0,-6.816512 3.947844,-12.148028 9.682097,-14.914815 -2.038945,-8e-5 -4.07789,7.53e-4 -6.116834,-0.0011 -4.27052,3.764247 -6.993502,8.746927 -6.993502,14.913626 0,8.330302 4.339873,15.457793 11.427464,18.69908 l 0.330324,0.1607 c 0.990924,0.431668 2.032869,0.763316 3.097915,1.037846 v 3.492964 C 16.801223,52.205043 9.5319538,42.480318 9.5050833,31.227894 c 0.00354,-2.322545 0.3440501,-4.692052 1.0110617,-6.91674 H 6.9718466 c -0.5860108,2.238792 -0.8874528,4.602523 -0.8950025,6.91674 0.00547,14.47957 10.6925929,26.460679 25.1426519,27.365651 V 47.161618 l 2.373305,0.0095 -0.08328,11.422393 c 14.44999,-0.904979 25.137109,-12.886088 25.142583,-27.365658 -0.0075,-2.314217 -0.308992,-4.677948 -0.895002,-6.91674 h -3.544299 c 0.667012,2.224688 1.007519,4.594195 1.011062,6.91674 -0.02687,11.252424 -7.296193,20.977203 -18.286174,23.388358 v -3.492965 c 1.065047,-0.274529 2.106991,-0.606177 3.097915,-1.037845 l 0.330324,-0.1607 c 7.087591,-3.241287 11.427464,-10.368778 11.427464,-18.69908 0,-6.166699 -2.699786,-11.150622 -6.970306,-14.914869 -2.046675,0.0037 -4.093353,0.0023 -6.14003,0.0023 5.734253,2.766787 9.682097,8.098357 9.682097,14.914868 0,6.366695 -2.873436,11.889594 -7.999225,14.846776 l -0.0022,-2.336881 c 0.61983,0 1.142746,-1.142746 1.142746,-2.285493 0,-1.142746 -0.493036,-2.285492 -1.142746,-2.285492 0.474114,-2.411065 0.111543,-4.114091 2.129257,-5.943621 1.180405,-0.7843 1.301213,-1.002105 1.301213,-2.365841 0,-2.05709 -1.441404,-5.017373 -4.231732,-8.682195 -1.812953,-2.380257 -3.769755,-5.863278 -7.197994,-5.863278 -3.428239,0 -5.657179,3.914993 -7.197963,5.863264 z m 2.055604,18.134403 c 0.946688,0 1.714032,0.767344 1.71412,1.71412 -8.8e-5,0.946776 -0.767432,1.714119 -1.71412,1.714119 -0.946687,0 -1.714031,-0.767344 -1.714119,-1.714119 8.8e-5,-0.946776 0.767432,-1.71412 1.714119,-1.71412 z m 10.284718,0 c 0.946687,0 1.714031,0.767344 1.714119,1.71412 -8.8e-5,0.946775 -0.767432,1.714119 -1.714119,1.714119 -0.946688,0 -1.714032,-0.767343 -1.71412,-1.714119 8.8e-5,-0.946776 0.767432,-1.71412 1.71412,-1.71412 z"
     sodipodi:nodetypes="ssccsccsccsccccccccccccccccccccsccsccsccscscssscsscscsc"
     transform="matrix(0.89043291,0,0,0.89043291,3.2146634,-0.99574948)" />
</svg>
