<?xml version="1.0" encoding="UTF-8" standalone="no"?>
<svg
   width="64"
   height="64"
   version="1"
   id="svg6"
   sodipodi:docname="gnome-boxes.svg"
   inkscape:version="1.3.2 (091e20ef0f, 2023-11-25, custom)"
   xmlns:inkscape="http://www.inkscape.org/namespaces/inkscape"
   xmlns:sodipodi="http://sodipodi.sourceforge.net/DTD/sodipodi-0.dtd"
   xmlns:xlink="http://www.w3.org/1999/xlink"
   xmlns="http://www.w3.org/2000/svg"
   xmlns:svg="http://www.w3.org/2000/svg">
  <defs
     id="defs6">
    <linearGradient
       id="linearGradient7"
       inkscape:collect="always">
      <stop
         style="stop-color:#00dcff;stop-opacity:1;"
         offset="0"
         id="stop7" />
      <stop
         style="stop-color:#0094ff;stop-opacity:1;"
         offset="1"
         id="stop8" />
    </linearGradient>
    <radialGradient
       inkscape:collect="always"
       xlink:href="#linearGradient7"
       id="radialGradient8"
       cx="-1.0357902"
       cy="37.088264"
       fx="-1.0357902"
       fy="37.088264"
       r="28"
       gradientUnits="userSpaceOnUse"
       gradientTransform="matrix(0,2.3340988,-2.5414978,0,100.27618,8.5414106)" />
    <filter
       inkscape:collect="always"
       style="color-interpolation-filters:sRGB"
       id="filter2"
       x="-0.11576997"
       y="-0.11576997"
       width="1.2315399"
       height="1.2315399">
      <feGaussianBlur
         inkscape:collect="always"
         stdDeviation="2.35446"
         id="feGaussianBlur2" />
    </filter>
    <filter
       inkscape:collect="always"
       style="color-interpolation-filters:sRGB"
       id="filter1"
       x="-0.086085125"
       y="-0.086085125"
       width="1.1721703"
       height="1.1721703">
      <feGaussianBlur
         inkscape:collect="always"
         stdDeviation="1.3890402"
         id="feGaussianBlur1" />
    </filter>
    <filter
       inkscape:collect="always"
       style="color-interpolation-filters:sRGB"
       id="filter3"
       x="-0.073611314"
       y="-0.073611314"
       width="1.1472226"
       height="1.1472226">
      <feGaussianBlur
         inkscape:collect="always"
         stdDeviation="0.96079912"
         id="feGaussianBlur3" />
    </filter>
  </defs>
  <sodipodi:namedview
     id="namedview6"
     pagecolor="#ffffff"
     bordercolor="#000000"
     borderopacity="0.25"
     inkscape:showpageshadow="2"
     inkscape:pageopacity="0.0"
     inkscape:pagecheckerboard="0"
     inkscape:deskcolor="#d1d1d1"
     inkscape:zoom="6.34375"
     inkscape:cx="28.610837"
     inkscape:cy="30.029557"
     inkscape:window-width="1920"
     inkscape:window-height="1020"
     inkscape:window-x="0"
     inkscape:window-y="0"
     inkscape:window-maximized="1"
     inkscape:current-layer="svg6" />
  <rect
     style="fill:url(#radialGradient8);stroke-width:0.92676"
     width="51.898499"
     height="51.898499"
     x="6.0507512"
     y="6.0507512"
     rx="11.222356"
     ry="11.222356"
     id="rect1" />
  <rect
     style="opacity:1;mix-blend-mode:normal;fill:none;stroke:#000000;stroke-width:0.8;stroke-dasharray:none;stroke-opacity:1;filter:url(#filter2)"
     width="52.264885"
     height="52.264885"
     x="5.867558"
     y="5.867558"
     rx="11.301582"
     ry="11.301582"
     id="rect1-5"
     transform="matrix(0.99298976,0,0,0.99298976,0.20772601,0.26592816)" />
  <path
     style="opacity:0.635299;fill:#ffffff;fill-opacity:1;stroke-width:0.887299"
     d="M 16.028629,16.028019 V 47.970761 H 47.971371 V 16.028019 Z m 4.803834,3.549194 h 22.335074 l -5.32379,5.32379 H 26.156431 l -5.323791,-5.32379 z m -1.25464,1.259963 5.32379,5.323791 v 11.687316 l -5.32379,5.323791 V 20.836999 Z m 24.844354,0 V 43.17225 l -5.32379,-5.323791 V 26.161144 l 5.32379,-5.32379 z M 26.676209,26.675599 H 37.323791 V 37.323181 H 26.676209 Z m -0.519903,12.422178 h 11.687316 l 5.323791,5.32379 H 20.832339 l 5.323789,-5.32379 z"
     id="path4" />
  <path
     style="opacity:1;fill:none;fill-opacity:1;stroke:#001eff;stroke-width:0.3;stroke-dasharray:none;stroke-opacity:1;filter:url(#filter3)"
     d="m 15.340402,15.234688 v 33.36332 h 33.36332 v -33.36332 z m 5.017473,3.707036 h 23.328374 l -5.560553,5.560553 H 25.918614 L 20.35806,18.941724 Z m -1.310437,1.315997 5.560553,5.560554 v 12.207082 l -5.560553,5.560554 V 20.257536 Z m 25.949248,0 V 43.586095 L 39.436133,38.025541 V 25.81846 l 5.560553,-5.560553 z M 26.461508,26.355794 H 37.582616 V 37.476902 H 26.461508 Z m -0.543024,12.974625 h 12.207082 l 5.560554,5.560553 H 20.357746 l 5.560552,-5.560553 z"
     id="path4-3"
     transform="matrix(0.95742096,0,0,0.95742096,1.3625292,1.361919)" />
  <path
     style="fill:#ffffff;fill-opacity:1;stroke-width:0.887299"
     d="m 17.803226,12.478826 a 5.3237903,5.3237903 0 0 0 -5.32379,5.32379 5.3237903,5.3237903 0 0 0 5.32379,5.32379 5.3237903,5.3237903 0 0 0 5.32379,-5.32379 5.3237903,5.3237903 0 0 0 -5.32379,-5.32379 z m 28.393548,0 a 5.3237903,5.3237903 0 0 0 -5.32379,5.32379 5.3237903,5.3237903 0 0 0 5.32379,5.32379 5.3237903,5.3237903 0 0 0 5.32379,-5.32379 5.3237903,5.3237903 0 0 0 -5.32379,-5.32379 z m -20.407863,10.64758 a 2.6618951,2.6618951 0 0 0 -2.661895,2.661895 2.6618951,2.6618951 0 0 0 2.661895,2.661896 2.6618951,2.6618951 0 0 0 2.661896,-2.661896 2.6618951,2.6618951 0 0 0 -2.661896,-2.661895 z m 12.422176,0 a 2.6618951,2.6618951 0 0 0 -2.661894,2.661895 2.6618951,2.6618951 0 0 0 2.661894,2.661896 2.6618951,2.6618951 0 0 0 2.661897,-2.661896 2.6618951,2.6618951 0 0 0 -2.661897,-2.661895 z M 25.788911,35.548583 a 2.6618951,2.6618951 0 0 0 -2.661895,2.661894 2.6618951,2.6618951 0 0 0 2.661895,2.661897 2.6618951,2.6618951 0 0 0 2.661896,-2.661897 2.6618951,2.6618951 0 0 0 -2.661896,-2.661894 z m 12.422176,0 a 2.6618951,2.6618951 0 0 0 -2.661894,2.661894 2.6618951,2.6618951 0 0 0 2.661894,2.661897 2.6618951,2.6618951 0 0 0 2.661897,-2.661897 2.6618951,2.6618951 0 0 0 -2.661897,-2.661894 z m -20.407861,5.323791 a 5.3237903,5.3237903 0 0 0 -5.32379,5.32379 5.3237903,5.3237903 0 0 0 5.32379,5.32379 5.3237903,5.3237903 0 0 0 5.32379,-5.32379 5.3237903,5.3237903 0 0 0 -5.32379,-5.32379 z m 28.393548,0 a 5.3237903,5.3237903 0 0 0 -5.32379,5.32379 5.3237903,5.3237903 0 0 0 5.32379,5.32379 5.3237903,5.3237903 0 0 0 5.32379,-5.32379 5.3237903,5.3237903 0 0 0 -5.32379,-5.32379 z"
     id="path6" />
  <path
     style="opacity:1;mix-blend-mode:normal;fill:none;fill-opacity:1;stroke:#000000;stroke-width:0.402824;stroke-dasharray:none;stroke-opacity:1;filter:url(#filter1)"
     d="m 17.067176,11.467367 a 5.599809,5.599809 0 0 0 -5.599809,5.599809 5.599809,5.599809 0 0 0 5.599809,5.599809 5.599809,5.599809 0 0 0 5.599809,-5.599809 5.599809,5.599809 0 0 0 -5.599809,-5.599809 z m 29.865648,0 a 5.599809,5.599809 0 0 0 -5.599809,5.599809 5.599809,5.599809 0 0 0 5.599809,5.599809 5.599809,5.599809 0 0 0 5.599809,-5.599809 5.599809,5.599809 0 0 0 -5.599809,-5.599809 z M 25.46689,22.666985 a 2.7999045,2.7999045 0 0 0 -2.799905,2.799905 2.7999045,2.7999045 0 0 0 2.799905,2.799904 2.7999045,2.7999045 0 0 0 2.799904,-2.799904 2.7999045,2.7999045 0 0 0 -2.799904,-2.799905 z m 13.06622,0 A 2.7999045,2.7999045 0 0 0 35.733206,25.46689 2.7999045,2.7999045 0 0 0 38.53311,28.266794 2.7999045,2.7999045 0 0 0 41.333015,25.46689 2.7999045,2.7999045 0 0 0 38.53311,22.666985 Z M 25.46689,35.733206 a 2.7999045,2.7999045 0 0 0 -2.799905,2.799904 2.7999045,2.7999045 0 0 0 2.799905,2.799905 2.7999045,2.7999045 0 0 0 2.799904,-2.799905 2.7999045,2.7999045 0 0 0 -2.799904,-2.799904 z m 13.06622,0 a 2.7999045,2.7999045 0 0 0 -2.799904,2.799904 2.7999045,2.7999045 0 0 0 2.799904,2.799905 2.7999045,2.7999045 0 0 0 2.799905,-2.799905 2.7999045,2.7999045 0 0 0 -2.799905,-2.799904 z m -21.465934,5.599809 a 5.599809,5.599809 0 0 0 -5.599809,5.599809 5.599809,5.599809 0 0 0 5.599809,5.599809 5.599809,5.599809 0 0 0 5.599809,-5.599809 5.599809,5.599809 0 0 0 -5.599809,-5.599809 z m 29.865648,0 a 5.599809,5.599809 0 0 0 -5.599809,5.599809 5.599809,5.599809 0 0 0 5.599809,5.599809 5.599809,5.599809 0 0 0 5.599809,-5.599809 5.599809,5.599809 0 0 0 -5.599809,-5.599809 z"
     id="path6-5"
     transform="matrix(0.95070921,0,0,0.95070921,1.5773037,1.5629728)" />
</svg>
