<?xml version="1.0" encoding="UTF-8" standalone="no"?>
<svg
   width="64"
   height="64"
   version="1"
   id="svg6"
   sodipodi:docname="preferences-desktop-tweaks.svg"
   inkscape:version="1.3.2 (091e20ef0f, 2023-11-25, custom)"
   xmlns:inkscape="http://www.inkscape.org/namespaces/inkscape"
   xmlns:sodipodi="http://sodipodi.sourceforge.net/DTD/sodipodi-0.dtd"
   xmlns:xlink="http://www.w3.org/1999/xlink"
   xmlns="http://www.w3.org/2000/svg"
   xmlns:svg="http://www.w3.org/2000/svg">
  <defs
     id="defs6">
    <linearGradient
       id="linearGradient2"
       inkscape:collect="always">
      <stop
         style="stop-color:#eaeaea;stop-opacity:1;"
         offset="0"
         id="stop3" />
      <stop
         style="stop-color:#696969;stop-opacity:1;"
         offset="1"
         id="stop4" />
    </linearGradient>
    <linearGradient
       id="linearGradient1"
       inkscape:collect="always">
      <stop
         style="stop-color:#0068be;stop-opacity:1;"
         offset="0"
         id="stop1" />
      <stop
         style="stop-color:#00c8eb;stop-opacity:1;"
         offset="1"
         id="stop2" />
    </linearGradient>
    <radialGradient
       id="SVGID_1_-3"
       cx="4.2902999"
       cy="58.8507"
       r="64.706802"
       gradientTransform="matrix(0,1,1,0,-1.9999977,-0.99999771)"
       gradientUnits="userSpaceOnUse">
      <stop
         offset="0"
         style="stop-color:#5a5a5a;stop-opacity:1;"
         id="stop1-6" />
      <stop
         offset="1"
         style="stop-color:#363636;stop-opacity:1;"
         id="stop2-7" />
    </radialGradient>
    <radialGradient
       id="SVGID_2_-36"
       cx="21.0371"
       cy="56.209099"
       r="40.250599"
       gradientTransform="matrix(1,0,0,-1,0,66)"
       gradientUnits="userSpaceOnUse">
      <stop
         offset="0"
         style="stop-color:#FFFFFF"
         id="stop5-7" />
      <stop
         offset="1"
         style="stop-color:#C4C4C4"
         id="stop6-5" />
    </radialGradient>
    <radialGradient
       id="SVGID_2_-3"
       cx="21.0371"
       cy="56.209099"
       r="40.250599"
       gradientTransform="matrix(1,0,0,-1,0,66)"
       gradientUnits="userSpaceOnUse">
      <stop
         offset="0"
         style="stop-color:#FFFFFF"
         id="stop5-5" />
      <stop
         offset="1"
         style="stop-color:#C4C4C4"
         id="stop6-6" />
    </radialGradient>
    <radialGradient
       inkscape:collect="always"
       xlink:href="#linearGradient1"
       id="radialGradient2"
       cx="21.077367"
       cy="31.712784"
       fx="21.077367"
       fy="31.712784"
       r="10.389744"
       gradientTransform="matrix(0.92517049,0,0,1.0884359,2.3945443,-1.8578866)"
       gradientUnits="userSpaceOnUse" />
    <radialGradient
       inkscape:collect="always"
       xlink:href="#linearGradient2"
       id="radialGradient4"
       cx="21.557022"
       cy="21.226723"
       fx="21.557022"
       fy="21.226723"
       r="28"
       gradientUnits="userSpaceOnUse"
       gradientTransform="matrix(2.6647132,2.6647132,-2.574181,2.5741813,14.542111,-88.298282)" />
    <radialGradient
       id="SVGID_2_-3-6"
       cx="21.0371"
       cy="56.209099"
       r="40.250599"
       gradientTransform="matrix(1,0,0,-1,0,66)"
       gradientUnits="userSpaceOnUse">
      <stop
         offset="0"
         style="stop-color:#FFFFFF"
         id="stop5-5-7" />
      <stop
         offset="1"
         style="stop-color:#C4C4C4"
         id="stop6-6-5" />
    </radialGradient>
    <filter
       inkscape:collect="always"
       style="color-interpolation-filters:sRGB"
       id="filter1"
       x="-0.1153608"
       y="-0.075428217"
       width="1.2307216"
       height="1.1508564">
      <feGaussianBlur
         inkscape:collect="always"
         stdDeviation="0.95714091"
         id="feGaussianBlur1" />
    </filter>
    <filter
       inkscape:collect="always"
       style="color-interpolation-filters:sRGB"
       id="filter2"
       x="-0.10982212"
       y="-0.12080433"
       width="1.2196442"
       height="1.2416087">
      <feGaussianBlur
         inkscape:collect="always"
         stdDeviation="1.1680157"
         id="feGaussianBlur2" />
    </filter>
    <filter
       inkscape:collect="always"
       style="color-interpolation-filters:sRGB"
       id="filter3"
       x="-0.10021318"
       y="-0.085181205"
       width="1.2004264"
       height="1.1703624">
      <feGaussianBlur
         inkscape:collect="always"
         stdDeviation="0.82599101"
         id="feGaussianBlur3" />
    </filter>
    <filter
       inkscape:collect="always"
       style="color-interpolation-filters:sRGB"
       id="filter4"
       x="-0.11514769"
       y="-0.11514769"
       width="1.2302954"
       height="1.2302954">
      <feGaussianBlur
         inkscape:collect="always"
         stdDeviation="2.6034459"
         id="feGaussianBlur4" />
    </filter>
  </defs>
  <sodipodi:namedview
     id="namedview6"
     pagecolor="#ffffff"
     bordercolor="#000000"
     borderopacity="0.25"
     inkscape:showpageshadow="2"
     inkscape:pageopacity="0.0"
     inkscape:pagecheckerboard="0"
     inkscape:deskcolor="#d1d1d1"
     inkscape:zoom="8.9714172"
     inkscape:cx="31.377428"
     inkscape:cy="39.347184"
     inkscape:window-width="1920"
     inkscape:window-height="1020"
     inkscape:window-x="0"
     inkscape:window-y="0"
     inkscape:window-maximized="1"
     inkscape:current-layer="svg6" />
  <path
     class="st1"
     d="m 57.904775,21.63809 v 20.723819 c 0,8.604086 -6.938778,15.542865 -15.542864,15.542865 H 21.638092 c -8.604085,0 -15.5428636,-6.938779 -15.5428636,-15.542865 V 21.63809 c 0,-8.604085 6.9387786,-15.5428636 15.5428636,-15.5428636 h 20.723819 c 8.604086,0 15.542864,6.9387786 15.542864,15.5428636 z"
     id="path2"
     style="fill:url(#radialGradient4);fill-opacity:1;stroke-width:0.92517" />
  <path
     class="st1"
     d="M 60,20.8 V 43.2 C 60,52.5 52.5,60 43.2,60 H 20.8 C 11.5,60 4,52.5 4,43.2 V 20.8 C 4,11.5 11.5,4.0000001 20.8,4.0000001 H 43.2 C 52.5,4.0000001 60,11.5 60,20.8 Z"
     id="path2-2"
     style="opacity:0.452172;mix-blend-mode:normal;fill:none;fill-opacity:1;stroke:#000000;stroke-width:0.4;stroke-dasharray:none;stroke-opacity:1;filter:url(#filter4)"
     transform="matrix(0.92517049,0,0,0.92517049,2.3945443,2.3945443)" />
  <path
     class="st2"
     d="M 31.506986,28.136017 H 15.674988 c -1.922456,0 -3.39257,-1.470113 -3.39257,-3.392571 0,-1.922457 1.470114,-3.39257 3.39257,-3.39257 H 31.506986 Z M 25.852701,43.968015 H 15.674988 c -1.922456,0 -3.39257,-1.470115 -3.39257,-3.392571 0,-1.922457 1.470114,-3.392571 3.39257,-3.392571 h 10.177713 z"
     id="path3"
     style="fill:url(#radialGradient2);fill-opacity:1;stroke-width:1.13085"
     sodipodi:nodetypes="cssscccssscc" />
  <path
     class="st2"
     d="M 31.467108,27.823491 H 14.354589 c -2.077948,0 -3.666968,-1.589019 -3.666968,-3.666968 0,-2.077949 1.58902,-3.666968 3.666968,-3.666968 H 31.467108 Z M 25.355494,44.93601 H 14.354589 c -2.077948,0 -3.666968,-1.58902 -3.666968,-3.666968 0,-2.077949 1.58902,-3.666969 3.666968,-3.666969 h 11.000905 z"
     id="path3-7"
     style="opacity:1;mix-blend-mode:normal;fill:none;fill-opacity:1;stroke:#0059ff;stroke-width:0.2;stroke-dasharray:none;stroke-opacity:1;filter:url(#filter3)"
     sodipodi:nodetypes="cssscccssscc"
     transform="matrix(0.92517049,0,0,0.92517049,2.3945443,2.3945443)" />
  <path
     class="st0"
     d="m 50.731554,40.575444 c 0,1.922456 -1.5832,3.392571 -3.392571,3.392571 H 25.852701 v -6.785142 h 21.486282 c 1.922457,0 3.392571,1.583199 3.392571,3.392571 z m 0,-15.831998 c 0,1.922458 -1.5832,3.392571 -3.392571,3.392571 H 31.506986 v -6.785141 h 15.831997 c 1.922457,0 3.392571,1.5832 3.392571,3.39257 z"
     id="path4"
     style="opacity:0.452671;stroke-width:1.13085;enable-background:new" />
  <path
     class="st0"
     d="m 52.246595,41.269042 c 0,2.077948 -1.711252,3.666968 -3.666968,3.666968 H 25.355494 v -7.333937 h 23.224133 c 2.077948,0 3.666968,1.711252 3.666968,3.666969 z m 0,-17.112519 c 0,2.077949 -1.711252,3.666968 -3.666968,3.666968 H 31.467108 v -7.333936 h 17.112519 c 2.077948,0 3.666968,1.711252 3.666968,3.666968 z"
     id="path4-0"
     style="opacity:1;fill:none;stroke:#000000;stroke-width:0.3;stroke-dasharray:none;stroke-opacity:1;filter:url(#filter2);enable-background:new"
     transform="matrix(0.92517049,0,0,0.92517049,2.3945443,2.3945443)" />
  <path
     class="st4"
     d="m 39.038275,25.017266 c 0,3.731828 -3.053314,6.785143 -6.785142,6.785143 -3.731828,0 -6.785141,-3.053315 -6.785141,-6.785143 0,-3.731827 3.053313,-6.785141 6.785141,-6.785141 3.731828,0 6.785142,3.053314 6.785142,6.785141 z M 33.38399,40.849264 c 0,3.731828 -3.053314,6.785141 -6.785142,6.785141 -3.731828,0 -6.785141,-3.053313 -6.785141,-6.785141 0,-3.731828 3.053313,-6.785142 6.785141,-6.785142 3.731828,0 6.785142,3.053314 6.785142,6.785142 z"
     id="path6-2"
     style="fill:#ffffff;fill-opacity:1;stroke-width:1.13085"
     sodipodi:nodetypes="ssssssssss" />
  <path
     class="st4"
     d="m 39.607542,24.45249 c 0,4.033665 -3.300272,7.333937 -7.333937,7.333937 -4.033665,0 -7.333936,-3.300272 -7.333936,-7.333937 0,-4.033665 3.300271,-7.333936 7.333936,-7.333936 4.033665,0 7.333937,3.300271 7.333937,7.333936 z m -6.111614,17.112519 c 0,4.033665 -3.300272,7.333936 -7.333937,7.333936 -4.033665,0 -7.333936,-3.300271 -7.333936,-7.333936 0,-4.033665 3.300271,-7.333937 7.333936,-7.333937 4.033665,0 7.333937,3.300272 7.333937,7.333937 z"
     id="path6-2-9"
     style="opacity:0.631999;fill:none;stroke:#000000;stroke-width:0.2;stroke-dasharray:none;stroke-opacity:1;filter:url(#filter1)"
     sodipodi:nodetypes="ssssssssss"
     transform="matrix(0.92517049,0,0,0.92517049,2.3945443,2.3945443)" />
</svg>
