<?xml version="1.0" encoding="UTF-8" standalone="no"?>
<svg
   width="64"
   height="64"
   version="1"
   id="svg7"
   sodipodi:docname="com.google.Chrome.svg"
   inkscape:version="1.3.2 (091e20ef0f, 2023-11-25, custom)"
   xmlns:inkscape="http://www.inkscape.org/namespaces/inkscape"
   xmlns:sodipodi="http://sodipodi.sourceforge.net/DTD/sodipodi-0.dtd"
   xmlns:xlink="http://www.w3.org/1999/xlink"
   xmlns="http://www.w3.org/2000/svg"
   xmlns:svg="http://www.w3.org/2000/svg">
  <defs
     id="defs7">
    <linearGradient
       id="linearGradient1"
       inkscape:collect="always">
      <stop
         style="stop-color:#1cb363;stop-opacity:1;"
         offset="0"
         id="stop3" />
      <stop
         style="stop-color:#239056;stop-opacity:1;"
         offset="1"
         id="stop4" />
    </linearGradient>
    <linearGradient
       id="linearGradient2"
       inkscape:collect="always">
      <stop
         style="stop-color:#2bc4ff;stop-opacity:1;"
         offset="0"
         id="stop1" />
      <stop
         style="stop-color:#008bff;stop-opacity:1;"
         offset="1"
         id="stop2" />
    </linearGradient>
    <linearGradient
       id="linearGradient9"
       inkscape:collect="always">
      <stop
         style="stop-color:#2bb4ff;stop-opacity:1;"
         offset="0"
         id="stop9" />
      <stop
         style="stop-color:#0087ff;stop-opacity:1;"
         offset="1"
         id="stop10" />
    </linearGradient>
    <linearGradient
       id="linearGradient11"
       inkscape:collect="always">
      <stop
         style="stop-color:#ff5d3b;stop-opacity:1;"
         offset="0"
         id="stop11" />
      <stop
         style="stop-color:#d40909;stop-opacity:1;"
         offset="1"
         id="stop12" />
    </linearGradient>
    <linearGradient
       id="linearGradient7"
       inkscape:collect="always">
      <stop
         style="stop-color:#ffce41;stop-opacity:1;"
         offset="0"
         id="stop7" />
      <stop
         style="stop-color:#f8ae00;stop-opacity:1;"
         offset="1"
         id="stop8" />
    </linearGradient>
    <clipPath
       clipPathUnits="userSpaceOnUse"
       id="clipPath1">
      <path
         d="m 32.000001,5.9627538 c -14.424863,0 -26.0372472,11.6123842 -26.0372472,26.0372472 0,14.42486 11.6123842,26.037244 26.0372472,26.037244 14.42486,0 26.037244,-11.612384 26.037244,-26.037244 0,-14.424863 -11.612384,-26.0372472 -26.037244,-26.0372472 z"
         style="fill:url(#radialGradient1);stroke-width:2.36706"
         id="path1" />
    </clipPath>
    <radialGradient
       inkscape:collect="always"
       xlink:href="#linearGradient9"
       id="radialGradient1"
       gradientUnits="userSpaceOnUse"
       gradientTransform="matrix(5.956662,0,0,5.956662,-139.31925,-182.04672)"
       cx="24.407768"
       cy="40.411434"
       fx="24.407768"
       fy="40.411434"
       r="11.125" />
    <clipPath
       clipPathUnits="userSpaceOnUse"
       id="clipPath2">
      <path
         d="m 32.000001,5.9627538 c -14.424863,0 -26.0372472,11.6123842 -26.0372472,26.0372472 0,14.42486 11.6123842,26.037244 26.0372472,26.037244 14.42486,0 26.037244,-11.612384 26.037244,-26.037244 0,-14.424863 -11.612384,-26.0372472 -26.037244,-26.0372472 z"
         style="fill:url(#radialGradient2);stroke-width:2.36706"
         id="path2" />
    </clipPath>
    <radialGradient
       inkscape:collect="always"
       xlink:href="#linearGradient9"
       id="radialGradient2"
       gradientUnits="userSpaceOnUse"
       gradientTransform="matrix(5.956662,0,0,5.956662,-139.31925,-182.04672)"
       cx="24.407768"
       cy="40.411434"
       fx="24.407768"
       fy="40.411434"
       r="11.125" />
    <clipPath
       clipPathUnits="userSpaceOnUse"
       id="clipPath3">
      <path
         d="m 32.000001,5.9627538 c -14.424863,0 -26.0372472,11.6123842 -26.0372472,26.0372472 0,14.42486 11.6123842,26.037244 26.0372472,26.037244 14.42486,0 26.037244,-11.612384 26.037244,-26.037244 0,-14.424863 -11.612384,-26.0372472 -26.037244,-26.0372472 z"
         style="fill:url(#radialGradient3);stroke-width:2.36706"
         id="path3" />
    </clipPath>
    <radialGradient
       inkscape:collect="always"
       xlink:href="#linearGradient9"
       id="radialGradient3"
       gradientUnits="userSpaceOnUse"
       gradientTransform="matrix(5.956662,0,0,5.956662,-139.31925,-182.04672)"
       cx="24.407768"
       cy="40.411434"
       fx="24.407768"
       fy="40.411434"
       r="11.125" />
    <radialGradient
       inkscape:collect="always"
       xlink:href="#linearGradient11"
       id="radialGradient17"
       cx="26.631207"
       cy="12.710576"
       fx="26.631207"
       fy="12.710576"
       r="22.53418"
       gradientTransform="matrix(-0.92912671,1.6092941,-1.9124076,-1.104129,75.682761,-13.383652)"
       gradientUnits="userSpaceOnUse" />
    <radialGradient
       inkscape:collect="always"
       xlink:href="#linearGradient1"
       id="radialGradient18"
       cx="85.668274"
       cy="17.223812"
       fx="85.668274"
       fy="17.223812"
       r="18.669922"
       gradientTransform="matrix(-1.1214352,1.9423819,-2.3082331,-1.3326595,162.45918,-128.00735)"
       gradientUnits="userSpaceOnUse" />
    <radialGradient
       inkscape:collect="always"
       xlink:href="#linearGradient7"
       id="radialGradient19"
       cx="85.668251"
       cy="24.316126"
       fx="85.668251"
       fy="24.316126"
       r="12.799802"
       gradientTransform="matrix(-1.6357365,2.8331787,-3.3668127,-1.9438302,248.62972,-180.00737)"
       gradientUnits="userSpaceOnUse" />
    <radialGradient
       inkscape:collect="always"
       xlink:href="#linearGradient2"
       id="radialGradient10-5-7"
       cx="24.407768"
       cy="40.411434"
       fx="24.407768"
       fy="40.411434"
       r="11.125"
       gradientUnits="userSpaceOnUse"
       gradientTransform="matrix(2.1449038,0,0,2.1449038,-29.681738,-45.074356)" />
    <filter
       inkscape:collect="always"
       style="color-interpolation-filters:sRGB"
       id="filter22"
       x="-0.076345673"
       y="-0.11081288"
       width="1.153771"
       height="1.2234465">
      <feGaussianBlur
         inkscape:collect="always"
         stdDeviation="1.3680214"
         id="feGaussianBlur22" />
    </filter>
    <filter
       inkscape:collect="always"
       style="color-interpolation-filters:sRGB"
       id="filter23"
       x="-0.090591544"
       y="-0.09227339"
       width="1.1812914"
       height="1.1806996">
      <feGaussianBlur
         inkscape:collect="always"
         stdDeviation="1.3680214"
         id="feGaussianBlur23" />
    </filter>
    <filter
       inkscape:collect="always"
       style="color-interpolation-filters:sRGB"
       id="filter24"
       x="-0.13850726"
       y="-0.087488786"
       width="1.2726207"
       height="1.1750935">
      <feGaussianBlur
         inkscape:collect="always"
         stdDeviation="1.3680214"
         id="feGaussianBlur24" />
    </filter>
    <filter
       inkscape:collect="always"
       style="color-interpolation-filters:sRGB"
       id="filter25"
       x="-0.040631658"
       y="-0.040631658"
       width="1.0812633"
       height="1.0812633">
      <feGaussianBlur
         inkscape:collect="always"
         stdDeviation="0.43071772"
         id="feGaussianBlur25" />
    </filter>
  </defs>
  <sodipodi:namedview
     id="namedview7"
     pagecolor="#ffffff"
     bordercolor="#000000"
     borderopacity="0.25"
     inkscape:showpageshadow="2"
     inkscape:pageopacity="0.0"
     inkscape:pagecheckerboard="0"
     inkscape:deskcolor="#d1d1d1"
     inkscape:zoom="8"
     inkscape:cx="28.5625"
     inkscape:cy="29.125"
     inkscape:window-width="1920"
     inkscape:window-height="1020"
     inkscape:window-x="0"
     inkscape:window-y="0"
     inkscape:window-maximized="1"
     inkscape:current-layer="svg7" />
  <g
     id="g1">
    <path
       id="path13-9"
       style="fill:none;fill-opacity:1;stroke:#000000;stroke-width:0.3;stroke-dasharray:none;filter:url(#filter22)"
       d="M 32.000002,5.951172 C 22.623704,5.9774809 13.985003,11.040904 9.380861,19.208984 l 2.245958,11.941453 8.15248,5.783157 13.771484,-18.160156 13.502238,4.262386 7.396205,-4.240906 C 49.770141,10.838742 41.230093,5.952773 32.000002,5.951172 Z"
       sodipodi:nodetypes="cccccccc" />
    <path
       id="path13"
       style="fill:url(#radialGradient17);fill-opacity:1;stroke:#000000;stroke-width:0;stroke-dasharray:none"
       d="M 32.000002,5.951172 C 22.623704,5.9774809 13.985003,11.040904 9.380861,19.208984 l 2.245958,11.941453 8.15248,5.783157 13.771484,-18.160156 13.502238,4.262386 7.396205,-4.240906 C 49.770141,10.838742 41.230093,5.952773 32.000002,5.951172 Z"
       sodipodi:nodetypes="cccccccc" />
    <path
       id="path13-3-2"
       style="fill:none;fill-opacity:1;stroke:#000000;stroke-width:0.3;stroke-dasharray:none;filter:url(#filter23)"
       d="M 9.373049,19.222656 C 7.1520254,23.116396 5.9734003,27.517404 5.951174,32 c 7.07e-5,14.386341 11.662487,26.048757 26.048828,26.048828 0.163518,-0.01018 0.326937,-0.0219 0.490234,-0.03516 L 43.849317,50.253299 43.291016,39.347656 19.779299,36.933594 Z"
       sodipodi:nodetypes="cccccccc" />
    <path
       id="path13-3"
       style="fill:url(#radialGradient18);fill-opacity:1;stroke:#000000;stroke-width:0;stroke-dasharray:none"
       d="M 9.373049,19.222656 C 7.1520254,23.116396 5.9734003,27.517404 5.951174,32 c 7.07e-5,14.386341 11.662487,26.048757 26.048828,26.048828 0.163518,-0.01018 0.326937,-0.0219 0.490234,-0.03516 L 43.849317,50.253299 43.291016,39.347656 19.779299,36.933594 Z"
       sodipodi:nodetypes="cccccccc" />
    <path
       id="path13-3-6-0"
       style="fill:none;fill-opacity:1;stroke:#000000;stroke-width:0.3;stroke-dasharray:none;filter:url(#filter24)"
       d="M 33.550783,18.773438 43.250006,39.314453 32.449221,58.015625 A 26.048956,26.048956 0 0 0 58.048826,32 26.048956,26.048956 0 0 0 54.437506,18.773438 Z" />
    <path
       id="path13-3-6"
       style="fill:url(#radialGradient19);fill-opacity:1;stroke:#000000;stroke-width:0;stroke-dasharray:none"
       d="M 33.550783,18.773438 43.250006,39.314453 32.449221,58.015625 A 26.048956,26.048956 0 0 0 58.048826,32 26.048956,26.048956 0 0 0 54.437506,18.773438 Z" />
    <path
       d="m 32,18.663707 c -7.387859,0 -13.336292,5.948433 -13.336292,13.336292 0,7.387859 5.948433,13.336293 13.336292,13.336293 7.387859,0 13.336292,-5.948434 13.336292,-13.336292 0,-7.387859 -5.948433,-13.336293 -13.336292,-13.336293 z"
       style="fill:#ffffff;fill-opacity:1;stroke-width:1.14054;stroke-dasharray:none"
       id="path6-1-3"
       sodipodi:nodetypes="sssss" />
    <path
       d="m 32.00773,22.625008 c -5.194175,0 -9.375618,4.181443 -9.375618,9.375617 0,5.194174 4.181443,9.375618 9.375618,9.375618 5.194174,0 9.375617,-4.181444 9.375617,-9.375618 0,-5.194174 -4.181443,-9.375617 -9.375617,-9.375617 z"
       style="fill:url(#radialGradient10-5-7);stroke-width:0.852343"
       id="path5-2-7" />
    <path
       id="path6-1-3-2"
       style="fill:none;fill-opacity:1;stroke:#9800ff;stroke-width:0.1;stroke-dasharray:none;stroke-opacity:1;filter:url(#filter25)"
       d="m 32,18.664062 c -7.387852,0 -13.335938,5.948086 -13.335938,13.335938 0,7.387851 5.948086,13.335937 13.335938,13.335937 C 39.387851,45.335937 45.335937,39.38785 45.335937,32 45.335937,24.612148 39.387852,18.664062 32,18.664062 Z M 32.0078,22.625 c 5.194169,0 9.375,4.182784 9.375,9.376953 0,5.194168 -4.180831,9.375 -9.375,9.375 -5.19417,0 -9.375,-4.180832 -9.375,-9.375 0,-5.194169 4.18083,-9.376953 9.375,-9.376953 z" />
  </g>
</svg>
