<?xml version="1.0" encoding="UTF-8" standalone="no"?>
<svg
   width="64"
   height="64"
   version="1.1"
   id="svg7"
   sodipodi:docname="google-slides.svg"
   inkscape:version="1.3.2 (091e20ef0f, 2023-11-25, custom)"
   xmlns:inkscape="http://www.inkscape.org/namespaces/inkscape"
   xmlns:sodipodi="http://sodipodi.sourceforge.net/DTD/sodipodi-0.dtd"
   xmlns:xlink="http://www.w3.org/1999/xlink"
   xmlns="http://www.w3.org/2000/svg"
   xmlns:svg="http://www.w3.org/2000/svg">
  <defs
     id="defs7">
    <inkscape:path-effect
       effect="fillet_chamfer"
       id="path-effect7"
       is_visible="true"
       lpeversion="1"
       nodesatellites_param="F,0,0,1,0,0.91845824,0,1 @ F,0,0,1,0,0,0,1 @ F,0,0,1,0,0,0,1 @ F,0,0,1,0,0.91845824,0,1 @ F,0,0,1,0,2.8939267,0,1 | F,0,0,1,0,1.4119587,0,1 @ F,0,0,1,0,1.4119587,0,1 @ F,0,0,1,0,1.4119587,0,1 @ F,0,0,1,0,1.4119587,0,1 | F,0,0,1,0,1.4119587,0,1 @ F,0,0,1,0,1.4119587,0,1 @ F,0,0,1,0,1.4119587,0,1 @ F,0,0,1,0,1.4119587,0,1 | F,0,0,1,0,1.4119587,0,1 @ F,0,0,1,0,1.4119587,0,1 @ F,0,0,1,0,1.4119587,0,1 @ F,0,0,1,0,1.4119587,0,1"
       radius="0"
       unit="px"
       method="auto"
       mode="F"
       chamfer_steps="1"
       flexible="false"
       use_knot_distance="true"
       apply_no_radius="true"
       apply_with_radius="true"
       only_selected="false"
       hide_knots="false" />
    <inkscape:path-effect
       effect="fillet_chamfer"
       id="path-effect7-3"
       is_visible="true"
       lpeversion="1"
       nodesatellites_param="F,0,0,1,0,0.91845824,0,1 @ F,0,0,1,0,0,0,1 @ F,0,0,1,0,0,0,1 @ F,0,0,1,0,0.91845824,0,1 @ F,0,0,1,0,1.1264079,0,1 | F,0,0,1,0,1.4119587,0,1 @ F,0,0,1,0,1.4119587,0,1 @ F,0,0,1,0,1.4119587,0,1 @ F,0,0,1,0,1.4119587,0,1 | F,0,0,1,0,1.4119587,0,1 @ F,0,0,1,0,1.4119587,0,1 @ F,0,0,1,0,1.4119587,0,1 @ F,0,0,1,0,1.4119587,0,1 | F,0,0,1,0,1.4119587,0,1 @ F,0,0,1,0,1.4119587,0,1 @ F,0,0,1,0,1.4119587,0,1 @ F,0,0,1,0,1.4119587,0,1"
       radius="0"
       unit="px"
       method="auto"
       mode="F"
       chamfer_steps="1"
       flexible="false"
       use_knot_distance="true"
       apply_no_radius="true"
       apply_with_radius="true"
       only_selected="false"
       hide_knots="false" />
    <radialGradient
       inkscape:collect="always"
       xlink:href="#linearGradient9"
       id="radialGradient10"
       cx="13.687016"
       cy="51.762657"
       fx="13.687016"
       fy="51.762657"
       r="22"
       gradientTransform="matrix(2.2102385,-1.2760818,1.6241041,2.8130308,-73.632499,-74.991724)"
       gradientUnits="userSpaceOnUse" />
    <linearGradient
       id="linearGradient9"
       inkscape:collect="always">
      <stop
         style="stop-color:#ff9e22;stop-opacity:1;"
         offset="0"
         id="stop9" />
      <stop
         style="stop-color:#ff6122;stop-opacity:1;"
         offset="1"
         id="stop10" />
    </linearGradient>
  </defs>
  <sodipodi:namedview
     id="namedview7"
     pagecolor="#ffffff"
     bordercolor="#000000"
     borderopacity="0.25"
     inkscape:showpageshadow="2"
     inkscape:pageopacity="0.0"
     inkscape:pagecheckerboard="0"
     inkscape:deskcolor="#d1d1d1"
     inkscape:zoom="9.8221551"
     inkscape:cx="23.670976"
     inkscape:cy="36.397307"
     inkscape:window-width="1920"
     inkscape:window-height="1012"
     inkscape:window-x="0"
     inkscape:window-y="0"
     inkscape:window-maximized="1"
     inkscape:current-layer="svg7" />
  <g
     id="g1"
     transform="translate(-27,4)">
    <path
       style="fill:url(#radialGradient10)"
       d="M 39.75,0 C 38.2265,0 37,1.2488002 37,2.8000002 V 53.2 c 0,1.550081 1.2265,2.8 2.75,2.8 h 38.5 C 79.7724,56 81,54.75008 81,53.2 V 18 L 63,0 Z"
       id="path2-6"
       sodipodi:nodetypes="ssssssccs" />
    <path
       style="opacity:0.523832;fill:#ffffff;fill-opacity:1"
       d="M 81,18 63,0 V 15.187501 C 63,16.746751 64.2555,18 65.8125,18 Z"
       id="path4-7" />
    <path
       style="fill:#ffffff"
       d="M 23.085046,32.069322 C 20.205643,32.50991 17.999999,34.997431 17.999999,38 c 0,3.31365 2.68635,6 6,6 3.002571,0 5.490093,-2.205646 5.930678,-5.085052 C 30.007326,38.414018 29.588791,38 29.081541,38 h -3.955134 a 1.1264079,1.1264079 45 0 1 -1.126408,-1.126408 l 0,-3.955134 c 0,-0.50725 -0.414021,-0.925785 -0.914953,-0.849136 z m 9.914953,1.342637 v 0.176082 A 1.4119587,1.4119587 45 0 0 34.411958,35 H 44.58804 a 1.4119587,1.4119587 135 0 0 1.411959,-1.411959 V 33.411959 A 1.4119587,1.4119587 45 0 0 44.58804,32 H 34.411958 a 1.4119587,1.4119587 135 0 0 -1.411959,1.411959 z m 0,7 v 0.176082 A 1.4119587,1.4119587 45 0 0 34.411958,42 H 44.58804 a 1.4119587,1.4119587 135 0 0 1.411959,-1.411959 V 40.411959 A 1.4119587,1.4119587 45 0 0 44.58804,39 H 34.411958 a 1.4119587,1.4119587 135 0 0 -1.411959,1.411959 z m -15,7 v 0.176082 A 1.4119587,1.4119587 45 0 0 19.411958,49 H 44.58804 a 1.4119587,1.4119587 135 0 0 1.411959,-1.411959 V 47.411959 A 1.4119587,1.4119587 45 0 0 44.58804,46 l -25.176082,0 a 1.4119587,1.4119587 135 0 0 -1.411959,1.411959 z"
       id="path7-5"
       inkscape:path-effect="#path-effect7-3"
       inkscape:original-d="m 23.999999,32 c -3.31365,0 -6,2.68635 -6,6 0,3.31365 2.68635,6 6,6 3.31365,0 6,-2.68635 6,-6 h -6 z m 9,0 v 3 h 13 v -3 z m 0,7 v 3 h 13 v -3 z m -15,7 v 3 h 28 v -3 z"
       sodipodi:nodetypes="csscccccccccccccccccc"
       transform="translate(27.000001,-3.0000004)" />
  </g>
</svg>
