<?xml version="1.0" encoding="UTF-8" standalone="no"?>
<svg
   width="64"
   height="64"
   version="1.1"
   id="svg4"
   sodipodi:docname="631F_RobloxStudioLauncherBeta.0.svg"
   inkscape:version="1.3.2 (091e20ef0f, 2023-11-25, custom)"
   xmlns:inkscape="http://www.inkscape.org/namespaces/inkscape"
   xmlns:sodipodi="http://sodipodi.sourceforge.net/DTD/sodipodi-0.dtd"
   xmlns:xlink="http://www.w3.org/1999/xlink"
   xmlns="http://www.w3.org/2000/svg"
   xmlns:svg="http://www.w3.org/2000/svg">
  <defs
     id="defs4">
    <inkscape:path-effect
       effect="fillet_chamfer"
       id="path-effect8"
       is_visible="true"
       lpeversion="1"
       nodesatellites_param="F,0,0,1,0,0,0,1 @ F,0,0,1,0,0,0,1 @ F,0,0,1,0,0,0,1 @ F,0,0,1,0,0,0,1 @ F,0,0,1,0,0,0,1 @ F,0,0,1,0,0,0,1 @ F,0,0,1,0,0,0,1 @ F,0,0,1,0,0,0,1 @ F,0,0,1,0,2.4498969,0,1 @ F,0,0,1,0,0,0,1 @ F,0,0,1,0,0,0,1 @ F,0,0,1,0,0,0,1 @ F,0,0,1,0,0,0,1 @ F,0,0,1,0,0,0,1 @ F,0,0,1,0,0,0,1 @ F,0,0,1,0,0,0,1 @ F,0,0,1,0,0,0,1 @ F,0,0,1,0,0,0,1"
       radius="0"
       unit="px"
       method="auto"
       mode="F"
       chamfer_steps="1"
       flexible="false"
       use_knot_distance="true"
       apply_no_radius="true"
       apply_with_radius="true"
       only_selected="false"
       hide_knots="false" />
    <inkscape:path-effect
       effect="fillet_chamfer"
       id="path-effect7"
       is_visible="true"
       lpeversion="1"
       nodesatellites_param="F,0,0,1,0,0,0,1 @ F,0,0,1,0,0,0,1 @ F,0,0,1,0,0,0,1 @ F,0,0,1,0,0,0,1 @ F,0,0,1,0,0,0,1 @ F,0,0,1,0,0,0,1 @ F,0,0,1,0,0,0,1 @ F,0,0,1,0,0,0,1 @ F,0,0,1,0,0,0,1 @ F,0,0,1,0,0,0,1 @ F,0,0,1,0,0,0,1 @ F,0,0,1,0,0,0,1 @ F,0,0,1,0,0,0,1 @ F,0,0,1,0,0,0,1 @ F,0,0,1,0,0,0,1 @ F,0,0,1,0,2.5517992,0,1 @ F,0,0,1,0,0,0,1 @ F,0,0,1,0,0,0,1 @ F,0,0,1,0,0,0,1 @ F,0,0,1,0,0,0,1 @ F,0,0,1,0,0,0,1"
       radius="0"
       unit="px"
       method="auto"
       mode="F"
       chamfer_steps="1"
       flexible="false"
       use_knot_distance="true"
       apply_no_radius="true"
       apply_with_radius="true"
       only_selected="false"
       hide_knots="false" />
    <linearGradient
       id="linearGradient5"
       inkscape:collect="always">
      <stop
         style="stop-color:#00d4fd;stop-opacity:1;"
         offset="0"
         id="stop6" />
      <stop
         style="stop-color:#005dd9;stop-opacity:1;"
         offset="1"
         id="stop7" />
    </linearGradient>
    <linearGradient
       id="linearGradient4"
       inkscape:collect="always">
      <stop
         style="stop-color:#00f0ff;stop-opacity:1;"
         offset="0"
         id="stop4" />
      <stop
         style="stop-color:#00ffbe;stop-opacity:1;"
         offset="1"
         id="stop5" />
    </linearGradient>
    <radialGradient
       inkscape:collect="always"
       xlink:href="#linearGradient4"
       id="radialGradient5"
       cx="15.80894"
       cy="29.039181"
       fx="15.80894"
       fy="29.039181"
       r="25.142907"
       gradientTransform="matrix(1.8368575,-0.49218447,0.28866594,1.077316,-21.612452,1.2807351)"
       gradientUnits="userSpaceOnUse" />
    <radialGradient
       inkscape:collect="always"
       xlink:href="#linearGradient5"
       id="radialGradient7"
       cx="6.7992601"
       cy="49.263149"
       fx="6.7992601"
       fy="49.263149"
       r="25.140851"
       gradientTransform="matrix(2.2115946,0,0,1.2970614,-8.2379467,-16.291699)"
       gradientUnits="userSpaceOnUse" />
    <inkscape:path-effect
       effect="fillet_chamfer"
       id="path-effect7-5"
       is_visible="true"
       lpeversion="1"
       nodesatellites_param="F,0,0,1,0,0,0,1 @ F,0,0,1,0,0,0,1 @ F,0,0,1,0,0,0,1 @ F,0,0,1,0,0,0,1 @ F,0,0,1,0,0,0,1 @ F,0,0,1,0,0,0,1 @ F,0,0,1,0,0,0,1 @ F,0,0,1,0,0,0,1 @ F,0,0,1,0,0,0,1 @ F,0,0,1,0,0,0,1 @ F,0,0,1,0,0,0,1 @ F,0,0,1,0,0,0,1 @ F,0,0,1,0,0,0,1 @ F,0,0,1,0,0,0,1 @ F,0,0,1,0,0,0,1 @ F,0,0,1,0,2.5517992,0,1 @ F,0,0,1,0,0,0,1 @ F,0,0,1,0,0,0,1 @ F,0,0,1,0,0,0,1 @ F,0,0,1,0,0,0,1 @ F,0,0,1,0,0,0,1"
       radius="0"
       unit="px"
       method="auto"
       mode="F"
       chamfer_steps="1"
       flexible="false"
       use_knot_distance="true"
       apply_no_radius="true"
       apply_with_radius="true"
       only_selected="false"
       hide_knots="false" />
    <inkscape:path-effect
       effect="fillet_chamfer"
       id="path-effect8-2"
       is_visible="true"
       lpeversion="1"
       nodesatellites_param="F,0,0,1,0,0,0,1 @ F,0,0,1,0,0,0,1 @ F,0,0,1,0,0,0,1 @ F,0,0,1,0,0,0,1 @ F,0,0,1,0,0,0,1 @ F,0,0,1,0,0,0,1 @ F,0,0,1,0,0,0,1 @ F,0,0,1,0,0,0,1 @ F,0,0,1,0,2.4498969,0,1 @ F,0,0,1,0,0,0,1 @ F,0,0,1,0,0,0,1 @ F,0,0,1,0,0,0,1 @ F,0,0,1,0,0,0,1 @ F,0,0,1,0,0,0,1 @ F,0,0,1,0,0,0,1 @ F,0,0,1,0,0,0,1 @ F,0,0,1,0,0,0,1 @ F,0,0,1,0,0,0,1"
       radius="0"
       unit="px"
       method="auto"
       mode="F"
       chamfer_steps="1"
       flexible="false"
       use_knot_distance="true"
       apply_no_radius="true"
       apply_with_radius="true"
       only_selected="false"
       hide_knots="false" />
    <filter
       inkscape:collect="always"
       style="color-interpolation-filters:sRGB"
       id="filter8"
       x="-0.13541429"
       y="-0.23091462"
       width="1.2708258"
       height="1.4618047">
      <feGaussianBlur
         inkscape:collect="always"
         stdDeviation="2.6289744"
         id="feGaussianBlur8" />
    </filter>
    <filter
       inkscape:collect="always"
       style="color-interpolation-filters:sRGB"
       id="filter9"
       x="-0.13540118"
       y="-0.23088816"
       width="1.2708038"
       height="1.4617529">
      <feGaussianBlur
         inkscape:collect="always"
         stdDeviation="2.6289744"
         id="feGaussianBlur9" />
    </filter>
  </defs>
  <sodipodi:namedview
     id="namedview4"
     pagecolor="#505050"
     bordercolor="#eeeeee"
     borderopacity="1"
     inkscape:showpageshadow="0"
     inkscape:pageopacity="0"
     inkscape:pagecheckerboard="0"
     inkscape:deskcolor="#505050"
     inkscape:zoom="9.269728"
     inkscape:cx="26.807691"
     inkscape:cy="34.898543"
     inkscape:window-width="1920"
     inkscape:window-height="1020"
     inkscape:window-x="0"
     inkscape:window-y="0"
     inkscape:window-maximized="1"
     inkscape:current-layer="svg4" />
  <path
     style="fill:url(#radialGradient5)"
     d="m 16.466797,4.0039062 c -0.453267,-0.022333 -0.876057,0.2719868 -1,0.7265626 L 9.7460938,26.029297 v 0.002 c -0.1382087,0.526093 0.1752336,1.064811 0.7011722,1.203125 l 16.384765,4.310547 c 0.517354,0.139662 1.050666,-0.160819 1.199219,-0.675781 0.0075,-0.02813 0.01744,-0.05427 0.02539,-0.08203 l 0.393547,-1.469442 a 2.4494957,2.4494957 149.99782 0 1 3.000187,-1.732311 l 1.649234,0.441988 0.04102,0.0059 21.300781,5.427735 c 0.0018,3.56e-4 0.0025,0.0016 0.0039,0.002 0.526293,0.137975 1.065351,-0.177031 1.203126,-0.703125 l 4.316406,-16.087891 c 5.26e-4,-0.0016 0.0018,-0.0044 0.002,-0.0059 0.138108,-0.526177 -0.177002,-1.065218 -0.703125,-1.203125 L 16.662109,4.0332031 c -0.06522,-0.01657 -0.13056,-0.026106 -0.195312,-0.029297 z"
     id="path2"
     inkscape:path-effect="#path-effect8"
     inkscape:original-d="m 16.466797,4.0039062 c -0.453267,-0.022333 -0.876057,0.2719868 -1,0.7265626 L 9.7460938,26.029297 c 0,0 0,0.002 0,0.002 -0.1382087,0.526093 0.1752336,1.064811 0.7011722,1.203125 l 16.384765,4.310547 c 0.517354,0.139662 1.050666,-0.160819 1.199219,-0.675781 0.0075,-0.02813 0.01744,-0.05427 0.02539,-0.08203 l 1.027343,-3.835937 4.015625,1.076172 0.04102,0.0059 21.300781,5.427735 c 0.0018,3.56e-4 0.0025,0.0016 0.0039,0.002 0.526293,0.137975 1.065351,-0.177031 1.203126,-0.703125 l 4.316406,-16.087891 c 5.26e-4,-0.0016 0.0018,-0.0044 0.002,-0.0059 0.138108,-0.526177 -0.177002,-1.065218 -0.703125,-1.203125 L 16.662109,4.0332031 c -0.06522,-0.01657 -0.13056,-0.026106 -0.195312,-0.029297 z"
     transform="matrix(0.89809967,0,0,0.89809967,3.2847377,3.2541195)" />
  <path
     style="fill:url(#radialGradient7)"
     d="m 9.3554688,30.511719 c -0.4583317,-0.0261 -0.8858035,0.273307 -1.0078126,0.734375 l -4.3125,16.099609 -0.00195,0.002 c -0.1381918,0.525757 0.177153,1.064811 0.703125,1.203125 L 47.339844,59.966797 h 0.002 c 0.525619,0.138312 1.064851,-0.175077 1.203125,-0.701172 l 5.703125,-21.289063 c 5.26e-4,-0.0016 0.0018,-0.0046 0.002,-0.0059 0.137938,-0.526431 -0.17717,-1.063359 -0.703125,-1.201172 L 37.169922,32.455078 c -0.519885,-0.139493 -1.054459,0.165429 -1.201172,0.683594 v 0.002 c -0.01083,0.04035 -0.0254,0.07757 -0.03711,0.117187 l -0.355277,1.326139 a 2.5525594,2.5525594 149.989 0 1 -3.125422,1.805263 l -1.366958,-0.365776 c -0.07619,-0.01689 -0.151825,-0.03214 -0.228515,-0.05273 L 9.5546875,30.542969 h -0.00195 c -0.065871,-0.01744 -0.1317897,-0.02752 -0.1972656,-0.03125 z"
     id="path3"
     inkscape:path-effect="#path-effect7"
     inkscape:original-d="m 9.3554688,30.511719 c -0.4583317,-0.0261 -0.8858035,0.273307 -1.0078126,0.734375 l -4.3125,16.099609 c 0,0 -0.00195,0.002 -0.00195,0.002 -0.1381918,0.525757 0.177153,1.064811 0.703125,1.203125 L 47.339844,59.966797 c 0,0 0.002,0 0.002,0 0.525619,0.138312 1.064851,-0.175077 1.203125,-0.701172 l 5.703125,-21.289063 c 5.26e-4,-0.0016 0.0018,-0.0046 0.002,-0.0059 0.137938,-0.526431 -0.17717,-1.063359 -0.703125,-1.201172 L 37.169922,32.455078 c -0.519885,-0.139493 -1.054459,0.165429 -1.201172,0.683594 0,0 0,0.002 0,0.002 -0.01083,0.04035 -0.0254,0.07757 -0.03711,0.117187 l -1.015625,3.791016 -3.832032,-1.02539 c -0.07619,-0.01689 -0.151825,-0.03214 -0.228515,-0.05273 L 9.5546875,30.542969 h -0.00195 c -0.065871,-0.01744 -0.1317897,-0.02752 -0.1972656,-0.03125 z"
     transform="matrix(0.89809967,0,0,0.89809967,3.2609616,3.2251273)" />
  <path
     style="mix-blend-mode:normal;fill:none;stroke:#000000;stroke-opacity:1;filter:url(#filter9)"
     d="m 16.466797,4.0039062 c -0.453267,-0.022333 -0.876057,0.2719868 -1,0.7265626 L 9.7460938,26.029297 v 0.002 c -0.1382087,0.526093 0.1752336,1.064811 0.7011722,1.203125 l 16.384765,4.310547 c 0.517354,0.139662 1.050666,-0.160819 1.199219,-0.675781 0.0075,-0.02813 0.01744,-0.05427 0.02539,-0.08203 l 0.393547,-1.469442 a 2.4494957,2.4494957 149.99782 0 1 3.000187,-1.732311 l 1.649234,0.441988 0.04102,0.0059 21.300781,5.427735 c 0.0018,3.56e-4 0.0025,0.0016 0.0039,0.002 0.526293,0.137975 1.065351,-0.177031 1.203126,-0.703125 l 4.316406,-16.087891 c 5.26e-4,-0.0016 0.0018,-0.0044 0.002,-0.0059 0.138108,-0.526177 -0.177002,-1.065218 -0.703125,-1.203125 L 16.662109,4.0332031 c -0.06522,-0.01657 -0.13056,-0.026106 -0.195312,-0.029297 z"
     id="path2-9"
     inkscape:path-effect="#path-effect8-2"
     inkscape:original-d="m 16.466797,4.0039062 c -0.453267,-0.022333 -0.876057,0.2719868 -1,0.7265626 L 9.7460938,26.029297 c 0,0 0,0.002 0,0.002 -0.1382087,0.526093 0.1752336,1.064811 0.7011722,1.203125 l 16.384765,4.310547 c 0.517354,0.139662 1.050666,-0.160819 1.199219,-0.675781 0.0075,-0.02813 0.01744,-0.05427 0.02539,-0.08203 l 1.027343,-3.835937 4.015625,1.076172 0.04102,0.0059 21.300781,5.427735 c 0.0018,3.56e-4 0.0025,0.0016 0.0039,0.002 0.526293,0.137975 1.065351,-0.177031 1.203126,-0.703125 l 4.316406,-16.087891 c 5.26e-4,-0.0016 0.0018,-0.0044 0.002,-0.0059 0.138108,-0.526177 -0.177002,-1.065218 -0.703125,-1.203125 L 16.662109,4.0332031 c -0.06522,-0.01657 -0.13056,-0.026106 -0.195312,-0.029297 z"
     transform="matrix(0.89809967,0,0,0.89809967,3.262297,3.1944901)" />
  <path
     style="mix-blend-mode:normal;fill:none;stroke:#000000;stroke-opacity:1;filter:url(#filter8)"
     d="m 9.3554688,30.511719 c -0.4583317,-0.0261 -0.8858035,0.273307 -1.0078126,0.734375 l -4.3125,16.099609 -0.00195,0.002 c -0.1381918,0.525757 0.177153,1.064811 0.703125,1.203125 L 47.339844,59.966797 h 0.002 c 0.525619,0.138312 1.064851,-0.175077 1.203125,-0.701172 l 5.703125,-21.289063 c 5.26e-4,-0.0016 0.0018,-0.0046 0.002,-0.0059 0.137938,-0.526431 -0.17717,-1.063359 -0.703125,-1.201172 L 37.169922,32.455078 c -0.519885,-0.139493 -1.054459,0.165429 -1.201172,0.683594 v 0.002 c -0.01083,0.04035 -0.0254,0.07757 -0.03711,0.117187 l -0.355277,1.326139 a 2.5525594,2.5525594 149.989 0 1 -3.125422,1.805263 l -1.366958,-0.365776 c -0.07619,-0.01689 -0.151825,-0.03214 -0.228515,-0.05273 L 9.5546875,30.542969 h -0.00195 c -0.065871,-0.01744 -0.1317897,-0.02752 -0.1972656,-0.03125 z"
     id="path3-1"
     inkscape:path-effect="#path-effect7-5"
     inkscape:original-d="m 9.3554688,30.511719 c -0.4583317,-0.0261 -0.8858035,0.273307 -1.0078126,0.734375 l -4.3125,16.099609 c 0,0 -0.00195,0.002 -0.00195,0.002 -0.1381918,0.525757 0.177153,1.064811 0.703125,1.203125 L 47.339844,59.966797 c 0,0 0.002,0 0.002,0 0.525619,0.138312 1.064851,-0.175077 1.203125,-0.701172 l 5.703125,-21.289063 c 5.26e-4,-0.0016 0.0018,-0.0046 0.002,-0.0059 0.137938,-0.526431 -0.17717,-1.063359 -0.703125,-1.201172 L 37.169922,32.455078 c -0.519885,-0.139493 -1.054459,0.165429 -1.201172,0.683594 0,0 0,0.002 0,0.002 -0.01083,0.04035 -0.0254,0.07757 -0.03711,0.117187 l -1.015625,3.791016 -3.832032,-1.02539 c -0.07619,-0.01689 -0.151825,-0.03214 -0.228515,-0.05273 L 9.5546875,30.542969 h -0.00195 c -0.065871,-0.01744 -0.1317897,-0.02752 -0.1972656,-0.03125 z"
     transform="matrix(0.89809967,0,0,0.89809967,3.262297,3.1944901)" />
</svg>
