<?xml version="1.0" encoding="UTF-8" standalone="no"?>
<svg
   width="64"
   height="64"
   version="1"
   id="svg10"
   sodipodi:docname="hb-icon.svg"
   inkscape:version="1.4 (e7c3feb100, 2024-10-09)"
   xmlns:inkscape="http://www.inkscape.org/namespaces/inkscape"
   xmlns:sodipodi="http://sodipodi.sourceforge.net/DTD/sodipodi-0.dtd"
   xmlns:xlink="http://www.w3.org/1999/xlink"
   xmlns="http://www.w3.org/2000/svg"
   xmlns:svg="http://www.w3.org/2000/svg">
  <defs
     id="defs10">
    <inkscape:path-effect
       effect="fillet_chamfer"
       id="path-effect46"
       is_visible="true"
       lpeversion="1"
       nodesatellites_param="F,0,1,1,0,0.78093475,0,1 @ F,0,1,1,0,0.78093475,0,1 @ F,0,1,1,0,0.78093475,0,1 @ F,0,1,1,0,0.78093475,0,1 @ F,0,1,1,0,0.78093475,0,1 @ F,0,1,1,0,0.78093475,0,1 @ F,0,1,1,0,0.78093475,0,1 @ F,0,1,1,0,0.78093475,0,1 @ F,0,1,1,0,0.78093475,0,1 @ F,0,1,1,0,0.78093475,0,1 @ F,0,1,1,0,0.78093475,0,1 @ F,0,1,1,0,0.78093475,0,1 @ F,0,1,1,0,0.78093475,0,1 @ F,0,1,1,0,0.78093475,0,1 @ F,0,1,1,0,0.78093475,0,1 @ F,0,1,1,0,0.78093475,0,1 @ F,0,1,1,0,0.78093475,0,1 @ F,0,1,1,0,0.78093475,0,1 @ F,0,1,1,0,0.78093475,0,1 @ F,0,1,1,0,0.78093475,0,1 @ F,0,1,1,0,0.78093475,0,1 @ F,0,1,1,0,0.78093475,0,1 @ F,0,1,1,0,0.78093475,0,1 @ F,0,1,1,0,0.78093475,0,1 @ F,0,1,1,0,0.78093475,0,1 @ F,0,1,1,0,0.78093475,0,1 @ F,0,1,1,0,0.78093475,0,1 @ F,0,1,1,0,0.78093475,0,1 @ F,0,1,1,0,0.78093475,0,1 @ F,0,1,1,0,0.78093475,0,1 @ F,0,1,1,0,0.78093475,0,1 @ F,0,1,1,0,0.78093475,0,1 @ F,0,1,1,0,0.78093475,0,1 @ F,0,1,1,0,0.78093475,0,1 @ F,0,1,1,0,0.78093475,0,1 @ F,0,1,1,0,0.78093475,0,1 @ F,0,1,1,0,0.78093475,0,1 @ F,0,1,1,0,0.78093475,0,1 @ F,0,1,1,0,0.78093475,0,1 @ F,0,1,1,0,0.78093475,0,1 @ F,0,1,1,0,0.78093475,0,1 | F,0,1,1,0,0.78093475,0,1 @ F,0,1,1,0,0.78093475,0,1 @ F,0,1,1,0,0.78093475,0,1 @ F,0,1,1,0,0.78093475,0,1 | F,0,1,1,0,0.78093475,0,1 @ F,0,1,1,0,0.78093475,0,1 @ F,0,1,1,0,0.78093475,0,1 @ F,0,1,1,0,0.78093475,0,1 | F,0,1,1,0,0.78093475,0,1 @ F,0,1,1,0,0.78093475,0,1 @ F,0,0,1,0,0.78093475,0,1 @ F,0,1,1,0,0.78093475,0,1 | F,0,1,1,0,0.78093475,0,1 @ F,0,1,1,0,0.78093475,0,1 @ F,0,1,1,0,0.78093475,0,1 @ F,0,1,1,0,0.78093475,0,1 | F,0,1,1,0,0.78093475,0,1 @ F,0,1,1,0,0.78093475,0,1 @ F,0,1,1,0,0.78093475,0,1 @ F,0,1,1,0,0.78093475,0,1 | F,0,1,1,0,0.78093475,0,1 @ F,0,1,1,0,0.78093475,0,1 @ F,0,1,1,0,0.78093475,0,1 @ F,0,1,1,0,0.78093475,0,1 | F,0,1,1,0,0.78093475,0,1 @ F,0,1,1,0,0.78093475,0,1 @ F,0,1,1,0,0.78093475,0,1 @ F,0,1,1,0,0.78093475,0,1 | F,0,1,1,0,0.78093475,0,1 @ F,0,1,1,0,0.78093475,0,1 @ F,0,1,1,0,0.78093475,0,1 @ F,0,1,1,0,0.78093475,0,1 | F,0,1,1,0,0.78093475,0,1 @ F,0,1,1,0,0.78093475,0,1 @ F,0,1,1,0,0.78093475,0,1 @ F,0,1,1,0,0.78093475,0,1"
       radius="0"
       unit="px"
       method="auto"
       mode="F"
       chamfer_steps="1"
       flexible="false"
       use_knot_distance="true"
       apply_no_radius="true"
       apply_with_radius="true"
       only_selected="false"
       hide_knots="false" />
    <linearGradient
       id="linearGradient2"
       inkscape:collect="always">
      <stop
         style="stop-color:#f55800;stop-opacity:1;"
         offset="0"
         id="stop3" />
      <stop
         style="stop-color:#f50024;stop-opacity:1;"
         offset="1"
         id="stop4" />
    </linearGradient>
    <inkscape:path-effect
       effect="fillet_chamfer"
       id="path-effect14"
       is_visible="true"
       lpeversion="1"
       nodesatellites_param="F,0,1,1,0,6.161173,0,1 @ F,0,1,1,0,6.161173,0,1 @ F,0,0,1,0,1.4913093,0,1 @ F,0,0,1,0,1.4913093,0,1 @ F,0,0,1,0,1.4913093,0,1 @ F,0,0,1,0,1.4913093,0,1 @ F,0,0,1,0,1.4913093,0,1 @ F,0,0,1,0,1.4913093,0,1 @ F,0,0,1,0,1.4913093,0,1 @ F,0,0,1,0,1.4913093,0,1"
       radius="0"
       unit="px"
       method="auto"
       mode="F"
       chamfer_steps="1"
       flexible="false"
       use_knot_distance="true"
       apply_no_radius="true"
       apply_with_radius="true"
       only_selected="false"
       hide_knots="false" />
    <inkscape:path-effect
       effect="fillet_chamfer"
       id="path-effect13"
       is_visible="true"
       lpeversion="1"
       nodesatellites_param="F,0,0,1,0,2.2621526,0,1 @ F,0,0,1,0,0,0,1 @ F,0,0,1,0,0,0,1 @ F,0,0,1,0,0,0,1 @ F,0,0,1,0,0,0,1 @ F,0,1,1,0,2.2621526,0,1"
       radius="0"
       unit="px"
       method="auto"
       mode="F"
       chamfer_steps="1"
       flexible="false"
       use_knot_distance="true"
       apply_no_radius="true"
       apply_with_radius="true"
       only_selected="false"
       hide_knots="false" />
    <inkscape:path-effect
       effect="fillet_chamfer"
       id="path-effect13-1"
       is_visible="true"
       lpeversion="1"
       nodesatellites_param="F,0,0,1,0,2.2621526,0,1 @ F,0,0,1,0,0,0,1 @ F,0,0,1,0,0,0,1 @ F,0,0,1,0,0,0,1 @ F,0,0,1,0,0,0,1 @ F,0,1,1,0,2.2621526,0,1"
       radius="0"
       unit="px"
       method="auto"
       mode="F"
       chamfer_steps="1"
       flexible="false"
       use_knot_distance="true"
       apply_no_radius="true"
       apply_with_radius="true"
       only_selected="false"
       hide_knots="false" />
    <inkscape:path-effect
       effect="fillet_chamfer"
       id="path-effect14-9"
       is_visible="true"
       lpeversion="1"
       nodesatellites_param="F,0,1,1,0,6.161173,0,1 @ F,0,1,1,0,6.161173,0,1 @ F,0,0,1,0,1.4913093,0,1 @ F,0,0,1,0,1.4913093,0,1 @ F,0,0,1,0,1.4913093,0,1 @ F,0,0,1,0,1.4913093,0,1 @ F,0,0,1,0,1.4913093,0,1 @ F,0,0,1,0,1.4913093,0,1 @ F,0,0,1,0,1.4913093,0,1 @ F,0,0,1,0,1.4913093,0,1"
       radius="0"
       unit="px"
       method="auto"
       mode="F"
       chamfer_steps="1"
       flexible="false"
       use_knot_distance="true"
       apply_no_radius="true"
       apply_with_radius="true"
       only_selected="false"
       hide_knots="false" />
    <radialGradient
       inkscape:collect="always"
       xlink:href="#linearGradient2"
       id="radialGradient4"
       cx="14.196343"
       cy="31.167873"
       fx="14.196343"
       fy="31.167873"
       r="10.498612"
       gradientTransform="matrix(1.1799133,0,0,2.1240198,-41.021012,-31.525951)"
       gradientUnits="userSpaceOnUse" />
    <inkscape:path-effect
       effect="fillet_chamfer"
       id="path-effect46-3"
       is_visible="true"
       lpeversion="1"
       nodesatellites_param="F,0,1,1,0,0.78093475,0,1 @ F,0,1,1,0,0.78093475,0,1 @ F,0,1,1,0,0.78093475,0,1 @ F,0,1,1,0,0.78093475,0,1 @ F,0,1,1,0,0.78093475,0,1 @ F,0,1,1,0,0.78093475,0,1 @ F,0,1,1,0,0.78093475,0,1 @ F,0,1,1,0,0.78093475,0,1 @ F,0,1,1,0,0.78093475,0,1 @ F,0,1,1,0,0.78093475,0,1 @ F,0,1,1,0,0.78093475,0,1 @ F,0,1,1,0,0.78093475,0,1 @ F,0,1,1,0,0.78093475,0,1 @ F,0,1,1,0,0.78093475,0,1 @ F,0,1,1,0,0.78093475,0,1 @ F,0,1,1,0,0.78093475,0,1 @ F,0,1,1,0,0.78093475,0,1 @ F,0,1,1,0,0.78093475,0,1 @ F,0,1,1,0,0.78093475,0,1 @ F,0,1,1,0,0.78093475,0,1 @ F,0,1,1,0,0.78093475,0,1 @ F,0,1,1,0,0.78093475,0,1 @ F,0,1,1,0,0.78093475,0,1 @ F,0,1,1,0,0.78093475,0,1 @ F,0,1,1,0,0.78093475,0,1 @ F,0,1,1,0,0.78093475,0,1 @ F,0,1,1,0,0.78093475,0,1 @ F,0,1,1,0,0.78093475,0,1 @ F,0,1,1,0,0.78093475,0,1 @ F,0,1,1,0,0.78093475,0,1 @ F,0,1,1,0,0.78093475,0,1 @ F,0,1,1,0,0.78093475,0,1 @ F,0,1,1,0,0.78093475,0,1 @ F,0,1,1,0,0.78093475,0,1 @ F,0,1,1,0,0.78093475,0,1 @ F,0,1,1,0,0.78093475,0,1 @ F,0,1,1,0,0.78093475,0,1 @ F,0,1,1,0,0.78093475,0,1 @ F,0,1,1,0,0.78093475,0,1 @ F,0,1,1,0,0.78093475,0,1 @ F,0,1,1,0,0.78093475,0,1 | F,0,1,1,0,0.78093475,0,1 @ F,0,1,1,0,0.78093475,0,1 @ F,0,1,1,0,0.78093475,0,1 @ F,0,1,1,0,0.78093475,0,1 | F,0,1,1,0,0.78093475,0,1 @ F,0,1,1,0,0.78093475,0,1 @ F,0,1,1,0,0.78093475,0,1 @ F,0,1,1,0,0.78093475,0,1 | F,0,1,1,0,0.78093475,0,1 @ F,0,1,1,0,0.78093475,0,1 @ F,0,0,1,0,0.78093475,0,1 @ F,0,1,1,0,0.78093475,0,1 | F,0,1,1,0,0.78093475,0,1 @ F,0,1,1,0,0.78093475,0,1 @ F,0,1,1,0,0.78093475,0,1 @ F,0,1,1,0,0.78093475,0,1 | F,0,1,1,0,0.78093475,0,1 @ F,0,1,1,0,0.78093475,0,1 @ F,0,1,1,0,0.78093475,0,1 @ F,0,1,1,0,0.78093475,0,1 | F,0,1,1,0,0.78093475,0,1 @ F,0,1,1,0,0.78093475,0,1 @ F,0,1,1,0,0.78093475,0,1 @ F,0,1,1,0,0.78093475,0,1 | F,0,1,1,0,0.78093475,0,1 @ F,0,1,1,0,0.78093475,0,1 @ F,0,1,1,0,0.78093475,0,1 @ F,0,1,1,0,0.78093475,0,1 | F,0,1,1,0,0.78093475,0,1 @ F,0,1,1,0,0.78093475,0,1 @ F,0,1,1,0,0.78093475,0,1 @ F,0,1,1,0,0.78093475,0,1 | F,0,1,1,0,0.78093475,0,1 @ F,0,1,1,0,0.78093475,0,1 @ F,0,1,1,0,0.78093475,0,1 @ F,0,1,1,0,0.78093475,0,1"
       radius="0"
       unit="px"
       method="auto"
       mode="F"
       chamfer_steps="1"
       flexible="false"
       use_knot_distance="true"
       apply_no_radius="true"
       apply_with_radius="true"
       only_selected="false"
       hide_knots="false" />
    <filter
       inkscape:collect="always"
       style="color-interpolation-filters:sRGB"
       id="filter7"
       x="-0.16383565"
       y="-0.15591676"
       width="1.3276713"
       height="1.3118373">
      <feGaussianBlur
         inkscape:collect="always"
         stdDeviation="3.1195823"
         id="feGaussianBlur7" />
    </filter>
    <radialGradient
       inkscape:collect="always"
       xlink:href="#linearGradient9"
       id="radialGradient7"
       cx="11.78556"
       cy="53.989319"
       fx="11.78556"
       fy="53.989319"
       r="18.94824"
       gradientTransform="matrix(3.3834406,-0.29726968,0.32078972,3.6511393,-49.833192,-133.32073)"
       gradientUnits="userSpaceOnUse" />
    <linearGradient
       id="linearGradient9"
       inkscape:collect="always">
      <stop
         style="stop-color:#fdcb21;stop-opacity:1;"
         offset="0"
         id="stop8" />
      <stop
         style="stop-color:#ffaa3d;stop-opacity:1;"
         offset="1"
         id="stop9" />
    </linearGradient>
  </defs>
  <sodipodi:namedview
     id="namedview10"
     pagecolor="#505050"
     bordercolor="#eeeeee"
     borderopacity="1"
     inkscape:showpageshadow="0"
     inkscape:pageopacity="0"
     inkscape:pagecheckerboard="0"
     inkscape:deskcolor="#505050"
     inkscape:zoom="8.0543882"
     inkscape:cx="25.079496"
     inkscape:cy="40.536909"
     inkscape:window-width="1920"
     inkscape:window-height="1020"
     inkscape:window-x="0"
     inkscape:window-y="0"
     inkscape:window-maximized="1"
     inkscape:current-layer="svg10" />
  <g
     id="g2"
     transform="matrix(-1,0,0,1,58.25262,-10.663861)">
    <path
       d="m 41.807331,27.812139 c -0.210101,-1.883336 0.05072,-3.494029 0.451007,-5.023919 a 18.156876,18.156876 0 0 1 1.782171,-4.253429 17.839954,17.839954 0 0 1 2.792163,-3.669577 c 1.125027,-1.110502 2.394792,-2.137072 4.137856,-2.890486 0.215114,1.885414 -0.0428,3.498723 -0.444403,5.02783 a 17.839954,17.839954 0 0 1 -1.788776,4.24952 18.161218,18.161218 0 0 1 -2.798497,3.666718 c -1.126616,1.108668 -2.394792,2.137071 -4.131521,2.893343 z"
       fill="#8bc34a"
       id="path1-3"
       style="fill:#cbff8f;fill-opacity:1;stroke-width:0.050876" />
    <path
       id="path2-6"
       style="fill:#a6e168;fill-opacity:1;stroke-width:0.050876"
       d="m 43.088827,11.75243 c -1.151021,1.53394 -1.757661,3.076662 -2.193934,4.61913 a 18.392398,18.392398 0 0 0 -0.639432,4.639612 c -0.01595,1.46201 0.132858,2.925803 0.467424,4.393506 -0.60958,0.785281 -1.161839,1.668678 -1.612052,2.724614 0.885738,0.09165 1.71083,0.07659 2.495779,-0.0038 0.319935,0.737257 0.717611,1.47486 1.239995,2.214679 0.692288,-0.927558 1.18424,-1.858116 1.563372,-2.790638 a 18.038573,18.038573 0 0 0 4.008503,-1.751751 18.394569,18.394569 0 0 0 3.670299,-2.838756 c 1.108536,-1.139889 2.133959,-2.42 2.885474,-4.16645 -1.893009,-0.190759 -3.509903,0.08454 -5.044034,0.503218 a 18.358753,18.358753 0 0 0 -4.251788,1.823403 18.655053,18.655053 0 0 0 0.0016,-0.03777 18.418447,18.418447 0 0 0 -0.519422,-4.654905 c -0.398005,-1.553994 -0.961075,-3.111025 -2.071724,-4.674084 z" />
    <path
       id="path4-5"
       style="fill:#68983a;fill-opacity:1;stroke-width:0.050876"
       d="m 37.831423,13.100809 c -0.832708,1.635038 -1.133826,3.167715 -1.274176,4.671364 -0.119323,1.498263 -0.03038,2.956516 0.238147,4.381212 0.266431,1.425234 0.720844,2.814964 1.382494,4.164746 0.279084,0.550982 0.589248,1.095995 0.948598,1.631483 -0.229166,0.212043 -0.455074,0.436372 -0.67845,0.678346 0.581856,0.274917 1.150216,0.485681 1.710946,0.653194 0.280729,0.309649 0.5902,0.612781 0.930406,0.911036 0.105545,-0.205689 0.200464,-0.409853 0.289792,-0.612443 0.679057,0.132064 1.347159,0.212639 2.010346,0.26068 a 18.194864,18.194864 0 0 0 4.647744,-0.313886 c 1.511399,-0.297467 2.986787,-0.771186 4.422511,-1.455987 1.431393,-0.706081 2.832254,-1.571714 4.130155,-2.969614 -1.725459,-0.80955 -3.349478,-1.087273 -4.941447,-1.205004 -1.588685,-0.09616 -3.134773,0.01527 -4.647787,0.306422 -1.512232,0.289835 -2.990335,0.764632 -4.426061,1.449421 -0.07711,0.03785 -0.15249,0.0797 -0.229403,0.118556 0.0087,-0.08315 0.0181,-0.166591 0.02579,-0.249552 a 16.178277,16.178277 0 0 0 -0.247812,-4.382472 c -0.274067,-1.424399 -0.72679,-2.813444 -1.389508,-4.162951 -0.684,-1.345179 -1.526976,-2.660494 -2.902282,-3.874551 z" />
  </g>
  <path
     id="path5-3"
     style="fill:none;stroke:#000000;stroke-width:0.2;stroke-dasharray:none;stroke-opacity:1;filter:url(#filter7)"
     d="M 20.253909,7.6719983 C 14.275913,7.5458973 8.8450701,12.4494 8.8457061,18.736451 v 26.621094 0.0039 c 0.0067,8.351554 9.5942119,13.549904 16.6289059,9.648438 l 11.986329,-6.652344 11.992187,-6.66211 0.0039,-0.002 c 3.512904,-1.955239 5.697266,-5.87077 5.697266,-9.648437 0,-3.777667 -2.184362,-7.695152 -5.697266,-9.650391 l -0.0039,-0.002 -11.992187,-6.658203 -11.972657,-6.6484367 -0.01172,-0.0039 c -1.602113,-0.889839 -3.379067,-1.365797 -5.189452,-1.410053 z m -0.175781,8.4433587 v 0.002 a 2.67849,2.5756028 0 0 1 1.275391,0.345703 l 11.984375,6.652343 11.986328,6.654297 a 2.67849,2.5756028 0 0 1 0,4.460938 l -11.984375,6.65625 -11.986328,6.652343 A 2.67849,2.5756028 0 0 1 17.335941,45.31067 V 18.691529 a 2.67849,2.5756028 0 0 1 2.742187,-2.576172 z" />
  <path
     style="fill:url(#radialGradient7);stroke-width:1.22196"
     d="M 20.254489,7.6716323 C 14.276493,7.5455313 8.845744,12.449014 8.84638,18.736064 v 26.620509 0.0048 c 0.0067,8.351554 9.592982,13.550626 16.627676,9.64916 l 11.98806,-6.653935 11.990446,-6.661094 0.0048,-0.0024 c 3.512904,-1.955239 5.696895,-5.871492 5.696895,-9.649159 0,-3.777667 -2.183991,-7.693919 -5.696895,-9.649158 l -0.0048,-0.0024 -11.990446,-6.658829 -11.97374,-6.6467727 -0.01198,-0.0048 c -1.602104,-0.889943 -3.378152,-1.36624 -5.188537,-1.410495 z"
     id="path5-36"
     sodipodi:nodetypes="cccsccccsccccccc" />
  <path
     id="path5-36-5"
     style="opacity:0.215797;fill:#ae3800;fill-opacity:1;stroke-width:1.22196"
     d="m 23.425822,8.1997543 c 0.47696,0.829858 0.872903,1.737696 1.234375,2.6113287 0.319597,0.772427 0.942726,1.994428 1.117187,2.810546 0.0925,0.432702 0.04065,0.750065 -0.255859,0.871094 -0.760523,0.310435 -2.129675,-0.445017 -2.960938,-0.433594 -2.672387,0.03672 -6.033667,1.786601 -7.228515,-0.158203 -0.433602,-0.705755 -0.535264,-2.123741 -0.921875,-2.863281 -0.271228,-0.518826 -0.58989,-0.780461 -0.953125,-0.591797 -0.730928,0.379644 -1.297073,1.739296 -1.753906,2.439453 -0.521495,0.79926 -0.894725,1.62618 -0.775391,2.50586 0.11117,0.819502 -0.07441,0.866853 -0.849609,1.111328 -0.454204,0.143241 -0.795139,0.528906 -1.09375,0.998047 -0.02325,0.03653 -0.0558,0.09577 -0.08008,0.134765 -0.03707,0.361987 -0.05863,0.729106 -0.05859,1.101563 v 2.361328 c 0.399174,-0.0444 0.783422,-0.08028 1.044922,-0.04102 2.497387,0.375015 4.024909,2.74055 5.044921,5.074219 0.334799,0.76598 0.837637,2.026051 1.126953,2.810547 0.276938,0.750929 0.416627,1.404243 -0.02734,1.585937 -0.758979,0.310611 -2.12354,-0.46862 -2.955078,-0.457031 -1.361789,0.01898 -2.895606,0.472385 -4.234375,0.662109 v 4.511719 c 2.179248,-0.36388 4.422861,-0.640938 6.548828,-0.177734 0.815342,0.177646 1.979679,0.867512 2.527344,1.498047 1.544802,1.778555 2.403319,4.093729 3.175781,6.345703 0.271078,0.790281 -0.160537,1.211863 -0.990235,1.121094 -2.451793,-0.268229 -5.224458,0.449489 -7.414062,0.433593 -0.833876,-0.0061 -1.712304,-0.815739 -1.998047,-1.601562 C 10.173339,41.428207 9.570135,40.016968 8.845749,38.67436 v 6.68164 0.0059 c 0.0036,4.431908 2.704959,7.9747 6.291015,9.742187 -0.799753,-1.597412 -1.769729,-3.17149 -2.285156,-4.40039 -0.320806,-0.764876 0.314506,-1.556248 1.140625,-1.685547 2.270246,-0.355325 4.665066,-0.708322 6.824219,-0.0625 0.798221,0.238755 1.886743,1.054838 2.396484,1.716797 0.993785,1.290546 1.699991,2.781174 2.294922,4.318359 l 4.060547,-2.251953 c -0.785018,-1.547188 -1.708816,-3.064286 -2.208984,-4.25586 -0.321029,-0.764801 0.314558,-1.555911 1.140624,-1.685546 2.270234,-0.356271 4.665107,-0.710662 6.824219,-0.06445 0.737563,0.220748 1.702504,0.931318 2.25,1.560547 l 4.101563,-2.277343 c -0.120354,-0.655148 0.597629,-1.323391 1.339844,-1.439454 0.559073,-0.08742 1.126188,-0.17557 1.695312,-0.248046 l 4.742188,-2.632813 0.0039,-0.002 c 2.113819,-1.176526 3.741853,-3.065917 4.707031,-5.205078 -0.160003,-0.669339 -0.246292,-1.437841 -0.464844,-1.927734 -0.665266,-1.491225 -1.870921,-3.101066 -2.447265,-4.316407 -0.347995,-0.733818 0.415993,-1.554725 1.242187,-1.683593 0.648015,-0.101077 1.302519,-0.187509 1.958985,-0.259766 -0.599126,-1.601733 -1.565351,-3.092093 -2.828126,-4.296875 -0.146914,0.0047 -0.297214,0.01474 -0.439453,0.01367 -0.833868,-0.0062 -1.710694,-0.817568 -1.996093,-1.603516 -0.02616,-0.07204 -0.0555,-0.1429 -0.08203,-0.214844 L 41.546917,18.00248 c 0.12882,0.110941 0.263412,0.221523 0.359374,0.332031 1.535895,1.768687 2.408031,4.114582 3.177735,6.357422 0.271145,0.790091 -0.158636,1.212428 -0.988281,1.121094 -2.452576,-0.269999 -5.227309,0.442612 -7.417969,0.423828 -0.83388,-0.0072 -1.711541,-0.817972 -1.998047,-1.603516 -0.773911,-2.121911 -1.705424,-4.203188 -2.984375,-6.060547 -0.474023,-0.688401 -0.243861,-1.324221 0.580078,-1.466797 2.349161,-0.406501 4.796497,-0.767327 7.101563,-0.265625 0.06067,0.0132 0.133099,0.04584 0.197265,0.06445 L 37.462932,15.732944 31.521526,12.43607 c -0.462119,-0.04855 -0.911468,-0.334135 -1.273438,-0.707032 l -4.759765,-2.6425777 -0.01172,-0.0039 C 24.819442,8.7175173 24.131881,8.4243263 23.425822,8.1997473 Z M 22.236369,18.816942 c 0.890435,-0.01154 1.773489,0.05421 2.636718,0.242187 0.815356,0.177551 1.979489,0.867683 2.527344,1.498047 1.544946,1.777618 2.402574,4.092583 3.175781,6.34375 0.271399,0.790167 -0.158528,1.213317 -0.988281,1.123047 -2.452454,-0.266807 -5.225921,0.449946 -7.416015,0.433594 -0.833869,-0.0062 -1.71246,-0.815682 -1.998047,-1.601563 -0.771089,-2.121884 -1.69732,-4.205353 -2.97461,-6.0625 -0.473634,-0.688652 -0.241897,-1.326111 0.582031,-1.46875 1.46634,-0.253853 2.971019,-0.488585 4.455079,-0.507812 z m 19.52539,11.566406 c 0.891898,-0.01159 1.775996,0.05573 2.640625,0.244141 0.81533,0.177671 1.983391,0.863885 2.53125,1.49414 1.53686,1.767997 2.408948,4.116028 3.177735,6.359375 0.270801,0.790209 -0.160543,1.212022 -0.990235,1.121094 -2.453186,-0.268851 -5.228893,0.444514 -7.419922,0.425781 -0.833879,-0.0071 -1.711745,-0.817896 -1.998046,-1.603515 -0.773644,-2.122897 -1.704321,-4.204941 -2.984376,-6.0625 -0.474263,-0.68823 -0.243841,-1.324108 0.580079,-1.466797 1.468716,-0.254358 2.976394,-0.492404 4.46289,-0.511719 z M 27.2559,32.604051 c 0.891658,-0.01141 1.776236,0.05574 2.640625,0.244141 0.815321,0.177709 1.983489,0.8638 2.53125,1.494141 1.536579,1.768233 2.407249,4.114624 3.177734,6.357421 0.271395,0.789999 -0.158627,1.212344 -0.988281,1.121094 -2.453752,-0.269877 -5.230735,0.443669 -7.421875,0.425781 -0.833882,-0.0068 -1.71015,-0.817766 -1.996094,-1.603515 -0.772854,-2.123739 -1.704201,-4.20632 -2.984375,-6.064453 -0.474194,-0.68828 -0.243912,-1.324516 0.580078,-1.466797 1.46845,-0.253563 2.97484,-0.488788 4.460938,-0.507813 z" />
  <path
     style="opacity:0.778561;fill:#c5560a;fill-opacity:1;stroke-width:1.22196"
     d="m 20.079043,16.116044 a 2.67849,2.5756028 0 0 0 -2.742031,2.575114 v 26.618717 a 2.67849,2.5756028 0 0 0 4.017246,2.230012 l 11.985511,-6.653212 11.985509,-6.656634 a 2.67849,2.5756028 0 0 0 0,-4.460077 L 33.338058,23.115285 21.35328,16.462072 a 2.67849,2.5756028 0 0 0 -1.275704,-0.34532 z"
     id="path3-7" />
  <g
     id="g1"
     transform="translate(55.1475,-5.6996744)">
    <path
       id="path7"
       style="fill:#d4fffb;fill-opacity:0.916975;stroke-width:0.0445239"
       d="m -31.277279,19.055865 3.498047,4.75 H -11.6347 c 0.0058,0.0078 0.01171,0.01564 0.01758,0.02344 h 1.9882807 1.384766 l 3.498047,-4.75 h -7.1171877 -1.365234 c -6.79e-4,-0.0078 -0.0013,-0.01563 -0.002,-0.02344 z m 12.347657,15.703125 v 10.222711 l 1.900391,-1.039806 V 34.75899 Z"
       sodipodi:nodetypes="cccccccccccccccc" />
    <path
       d="m -28.542761,22.879203 9.136538,12.400198 c 0,0 1.256642,1.969974 2.749795,-0.03514 1.491253,-2.006068 9.1108907,-12.365054 9.1108907,-12.365054 z"
       fill="#f50057"
       id="path11"
       style="fill:url(#radialGradient4);stroke-width:0.0445239" />
  </g>
</svg>
