<?xml version="1.0" encoding="UTF-8" standalone="no"?>
<svg
   width="64"
   height="64"
   version="1"
   id="svg12"
   sodipodi:docname="hub.svg"
   inkscape:version="1.4 (e7c3feb100, 2024-10-09)"
   xmlns:inkscape="http://www.inkscape.org/namespaces/inkscape"
   xmlns:sodipodi="http://sodipodi.sourceforge.net/DTD/sodipodi-0.dtd"
   xmlns:xlink="http://www.w3.org/1999/xlink"
   xmlns="http://www.w3.org/2000/svg"
   xmlns:svg="http://www.w3.org/2000/svg">
  <defs
     id="defs12">
    <inkscape:path-effect
       effect="fillet_chamfer"
       id="path-effect9-3"
       is_visible="true"
       lpeversion="1"
       nodesatellites_param="F,0,0,1,0,0,0,1 @ F,0,1,1,0,3.1063821,0,1 @ F,0,0,1,0,1.145484,0,1 @ F,0,0,1,0,0,0,1 @ F,0,0,1,0,3.1063821,0,1 @ F,0,0,1,0,1.145484,0,1 | F,0,0,1,0,1.5023482,0,1 @ F,0,0,1,0,1.5023482,0,1 @ F,0,0,1,0,1.5023482,0,1 @ F,0,0,1,0,1.5023482,0,1"
       radius="0"
       unit="px"
       method="auto"
       mode="F"
       chamfer_steps="1"
       flexible="false"
       use_knot_distance="true"
       apply_no_radius="true"
       apply_with_radius="true"
       only_selected="false"
       hide_knots="false" />
    <filter
       inkscape:collect="always"
       style="color-interpolation-filters:sRGB"
       id="filter11"
       x="-0.087906725"
       y="-0.087906724"
       width="1.1758134"
       height="1.1758134">
      <feGaussianBlur
         inkscape:collect="always"
         stdDeviation="1.5491233"
         id="feGaussianBlur11" />
    </filter>
    <filter
       inkscape:collect="always"
       style="color-interpolation-filters:sRGB"
       id="filter12"
       x="-0.06906957"
       y="-0.06906957"
       width="1.1381391"
       height="1.1381391">
      <feGaussianBlur
         inkscape:collect="always"
         stdDeviation="1.5491233"
         id="feGaussianBlur12" />
    </filter>
    <inkscape:path-effect
       effect="fillet_chamfer"
       id="path-effect9"
       is_visible="true"
       lpeversion="1"
       nodesatellites_param="F,0,0,1,0,0,0,1 @ F,0,1,1,0,3.1063821,0,1 @ F,0,0,1,0,1.145484,0,1 @ F,0,0,1,0,0,0,1 @ F,0,0,1,0,3.1063821,0,1 @ F,0,0,1,0,1.145484,0,1 | F,0,0,1,0,1.5023482,0,1 @ F,0,0,1,0,1.5023482,0,1 @ F,0,0,1,0,1.5023482,0,1 @ F,0,0,1,0,1.5023482,0,1"
       radius="0"
       unit="px"
       method="auto"
       mode="F"
       chamfer_steps="1"
       flexible="false"
       use_knot_distance="true"
       apply_no_radius="true"
       apply_with_radius="true"
       only_selected="false"
       hide_knots="false" />
    <radialGradient
       inkscape:collect="always"
       xlink:href="#linearGradient8"
       id="radialGradient9"
       cx="16.967617"
       cy="32.176067"
       fx="16.967617"
       fy="32.176067"
       r="28"
       gradientUnits="userSpaceOnUse"
       gradientTransform="matrix(0,3.6689312,-4.6174139,0,149.02143,-62.02908)" />
    <linearGradient
       id="linearGradient8"
       inkscape:collect="always">
      <stop
         style="stop-color:#46a0f7;stop-opacity:1;"
         offset="0"
         id="stop8" />
      <stop
         style="stop-color:#46f7a5;stop-opacity:1;"
         offset="1"
         id="stop9" />
    </linearGradient>
    <filter
       inkscape:collect="always"
       style="color-interpolation-filters:sRGB"
       id="filter13"
       x="-0.083181858"
       y="-0.072724667"
       width="1.1663637"
       height="1.1454459">
      <feGaussianBlur
         inkscape:collect="always"
         stdDeviation="0.62118876"
         id="feGaussianBlur13" />
    </filter>
  </defs>
  <sodipodi:namedview
     id="namedview12"
     pagecolor="#505050"
     bordercolor="#eeeeee"
     borderopacity="1"
     inkscape:showpageshadow="0"
     inkscape:pageopacity="0"
     inkscape:pagecheckerboard="0"
     inkscape:deskcolor="#505050"
     inkscape:zoom="16"
     inkscape:cx="28.96875"
     inkscape:cy="35.71875"
     inkscape:current-layer="svg12" />
  <path
     id="path2-36"
     style="fill:url(#radialGradient9)"
     d="M 20.800781,4 C 11.493591,4 4,11.493591 4,20.800781 V 32 43.199219 C 4,52.506409 11.493591,60 20.800781,60 H 43.199219 C 52.506409,60 60,52.506409 60,43.199219 V 32 20.800781 C 60,11.493591 52.506409,4 43.199219,4 Z" />
  <path
     style="fill:#3f3f3f"
     d="m 21,10 h 22 c 6.189135,0 11,4.810865 11,11 v 22 c 0,6.189135 -4.810865,11 -11,11 H 21 C 14.810865,54 10,49.189135 10,43 V 21 c 0,-6.189135 4.810865,-11 11,-11 z"
     id="path5-7" />
  <path
     id="path2-3"
     style="fill:none;stroke:#000000;stroke-width:0.3;stroke-dasharray:none;stroke-opacity:1;filter:url(#filter12)"
     d="M 20.800781,4.0000002 C 11.493591,4.0000002 4,11.493591 4,20.800781 V 32 43.199219 C 4,52.506409 11.493591,60 20.800781,60 H 43.199219 C 52.506409,60 60,52.506409 60,43.199219 V 32 20.800781 C 60,11.493591 52.506409,4.0000002 43.199219,4.0000002 Z" />
  <path
     style="fill:none;stroke:#000000;stroke-width:0.3;stroke-dasharray:none;stroke-opacity:1;filter:url(#filter11)"
     d="m 21,9.9999998 h 22 c 6.189135,0 11,4.8108652 11,11.0000002 v 22 c 0,6.189135 -4.810865,11 -11,11 H 21 C 14.810865,54 10,49.189135 10,43 V 21 C 10,14.810865 14.810865,9.9999998 21,9.9999998 Z"
     id="path5-5" />
  <path
     id="path8"
     style="fill:#ffffff;stroke-width:0.683036;stroke-linecap:round"
     d="m 30.050357,14.124179 c -1.92244,0.03097 -2.170506,0.944635 -2.170506,1.41412 v 10.897888 c 0,0.73707 0.714633,1.347459 1.430106,1.370099 0.715474,0.02264 1.368415,0.03188 2.925581,-0.132071 0.826232,-0.08699 1.703699,-0.433268 2.480006,-1.060573 0.776309,-0.627308 1.360736,-1.698368 1.360736,-2.909572 0,-1.116373 -0.522966,-2.07559 -1.208653,-2.716134 0.686073,-0.640518 1.208653,-1.600692 1.208653,-2.717469 0,-1.211204 -0.584427,-2.282267 -1.360736,-2.909572 -0.776307,-0.627306 -1.664101,-0.903971 -2.480006,-1.060573 -0.815905,-0.156603 -1.602352,-0.185512 -2.185181,-0.176095 z m -11.733006,0.01734 c -0.75446,0 -1.366071,0.611611 -1.366071,1.366072 v 5.464285 5.464286 c 0,0.754461 0.611611,1.366071 1.366071,1.366071 0.754461,0 1.366072,-0.61161 1.366072,-1.366071 V 22.33795 h 2.732143 v 4.098214 c 0,0.754461 0.61161,1.366071 1.366071,1.366071 0.754461,0 1.366072,-0.61161 1.366072,-1.366071 v -5.464286 -5.464285 c 0,-0.754461 -0.611611,-1.366072 -1.366072,-1.366072 -0.754461,0 -1.366071,0.611611 -1.366071,1.366072 v 4.098214 h -2.732143 v -4.098214 c 0,-0.754461 -0.611611,-1.366072 -1.366072,-1.366072 z m 12.813591,2.782837 c 0.157133,-0.0017 0.326446,0.0095 0.589651,0.06003 0.550168,0.105598 1.029778,0.301007 1.278024,0.501605 0.248246,0.200598 0.34552,0.312286 0.34552,0.784424 0,0.472136 -0.09727,0.583826 -0.34552,0.784423 -0.248246,0.200598 -0.727856,0.397341 -1.278024,0.502939 -0.526422,0.10104 -0.674875,0.04457 -1.108599,0.04269 V 16.9417 c 0.21686,-9.56e-4 0.361814,-0.01563 0.518948,-0.01734 z m 0,5.432269 c 0.157131,-0.0017 0.32644,0.0095 0.589651,0.06003 0.550168,0.105598 1.029778,0.302341 1.278024,0.502938 0.248246,0.200598 0.34552,0.312288 0.34552,0.784424 0,0.472138 -0.09727,0.583826 -0.34552,0.784424 -0.248246,0.200598 -0.727856,0.397341 -1.278024,0.502939 -0.526422,0.10104 -0.674875,0.04457 -1.108599,0.04269 v -2.660104 c 0.216862,-9.56e-4 0.361816,-0.01562 0.518948,-0.01734 z M 18.317351,33.266522 c -0.75446,0 -1.366071,0.611611 -1.366071,1.366071 0,0.75446 0.611611,1.366072 1.366071,1.366072 h 10.928572 c 0.75446,0 1.366071,-0.611612 1.366071,-1.366072 0,-0.75446 -0.611611,-1.366071 -1.366071,-1.366071 z"
     sodipodi:nodetypes="ccczssscsssccsscsssccssscsssccsscsssssccccssssscccsssssss" />
  <path
     id="path8-3"
     style="fill:none;stroke-width:0.2;stroke-linecap:round;fill-opacity:1;stroke:#000fff;stroke-opacity:1;stroke-dasharray:none;filter:url(#filter13)"
     d="m 30.050357,14.124179 c -1.92244,0.03097 -2.170506,0.944635 -2.170506,1.41412 v 10.897888 c 0,0.73707 0.714633,1.347459 1.430106,1.370099 0.715474,0.02264 1.368415,0.03188 2.925581,-0.132071 0.826232,-0.08699 1.703699,-0.433268 2.480006,-1.060573 0.776309,-0.627308 1.360736,-1.698368 1.360736,-2.909572 0,-1.116373 -0.522966,-2.07559 -1.208653,-2.716134 0.686073,-0.640518 1.208653,-1.600692 1.208653,-2.717469 0,-1.211204 -0.584427,-2.282267 -1.360736,-2.909572 -0.776307,-0.627306 -1.664101,-0.903971 -2.480006,-1.060573 -0.815905,-0.156603 -1.602352,-0.185512 -2.185181,-0.176095 z m -11.733006,0.01734 c -0.75446,0 -1.366071,0.611611 -1.366071,1.366072 v 5.464285 5.464286 c 0,0.754461 0.611611,1.366071 1.366071,1.366071 0.754461,0 1.366072,-0.61161 1.366072,-1.366071 V 22.33795 h 2.732143 v 4.098214 c 0,0.754461 0.61161,1.366071 1.366071,1.366071 0.754461,0 1.366072,-0.61161 1.366072,-1.366071 v -5.464286 -5.464285 c 0,-0.754461 -0.611611,-1.366072 -1.366072,-1.366072 -0.754461,0 -1.366071,0.611611 -1.366071,1.366072 v 4.098214 h -2.732143 v -4.098214 c 0,-0.754461 -0.611611,-1.366072 -1.366072,-1.366072 z m 12.813591,2.782837 c 0.157133,-0.0017 0.326446,0.0095 0.589651,0.06003 0.550168,0.105598 1.029778,0.301007 1.278024,0.501605 0.248246,0.200598 0.34552,0.312286 0.34552,0.784424 0,0.472136 -0.09727,0.583826 -0.34552,0.784423 -0.248246,0.200598 -0.727856,0.397341 -1.278024,0.502939 -0.526422,0.10104 -0.674875,0.04457 -1.108599,0.04269 V 16.9417 c 0.21686,-9.56e-4 0.361814,-0.01563 0.518948,-0.01734 z m 0,5.432269 c 0.157131,-0.0017 0.32644,0.0095 0.589651,0.06003 0.550168,0.105598 1.029778,0.302341 1.278024,0.502938 0.248246,0.200598 0.34552,0.312288 0.34552,0.784424 0,0.472138 -0.09727,0.583826 -0.34552,0.784424 -0.248246,0.200598 -0.727856,0.397341 -1.278024,0.502939 -0.526422,0.10104 -0.674875,0.04457 -1.108599,0.04269 v -2.660104 c 0.216862,-9.56e-4 0.361816,-0.01562 0.518948,-0.01734 z M 18.317351,33.266522 c -0.75446,0 -1.366071,0.611611 -1.366071,1.366071 0,0.75446 0.611611,1.366072 1.366071,1.366072 h 10.928572 c 0.75446,0 1.366071,-0.611612 1.366071,-1.366072 0,-0.75446 -0.611611,-1.366071 -1.366071,-1.366071 z"
     sodipodi:nodetypes="ccczssscsssccsscsssccssscsssccsscsssssccccssssscccsssssss" />
</svg>
