<?xml version="1.0" encoding="UTF-8" standalone="no"?>
<svg
   width="64"
   height="64"
   version="1"
   id="svg5"
   sodipodi:docname="cs-tablet.svg"
   inkscape:version="1.3.2 (091e20ef0f, 2023-11-25, custom)"
   xmlns:inkscape="http://www.inkscape.org/namespaces/inkscape"
   xmlns:sodipodi="http://sodipodi.sourceforge.net/DTD/sodipodi-0.dtd"
   xmlns:xlink="http://www.w3.org/1999/xlink"
   xmlns="http://www.w3.org/2000/svg"
   xmlns:svg="http://www.w3.org/2000/svg">
  <defs
     id="defs5">
    <linearGradient
       id="linearGradient7"
       inkscape:collect="always">
      <stop
         style="stop-color:#1ea353;stop-opacity:1;"
         offset="0"
         id="stop7" />
      <stop
         style="stop-color:#00ffd0;stop-opacity:1;"
         offset="1"
         id="stop8" />
    </linearGradient>
    <linearGradient
       id="linearGradient5"
       inkscape:collect="always">
      <stop
         style="stop-color:#858585;stop-opacity:1;"
         offset="0"
         id="stop5" />
      <stop
         style="stop-color:#222222;stop-opacity:1;"
         offset="1"
         id="stop6" />
    </linearGradient>
    <radialGradient
       inkscape:collect="always"
       xlink:href="#linearGradient5"
       id="radialGradient6"
       cx="-49.586819"
       cy="-0.44002363"
       fx="-49.586819"
       fy="-0.44002363"
       r="22"
       gradientTransform="matrix(-3.2114989,0.28173647,-0.29166571,-3.3246801,-179.83896,22.462979)"
       gradientUnits="userSpaceOnUse" />
    <filter
       inkscape:collect="always"
       style="color-interpolation-filters:sRGB"
       id="filter6"
       x="-0.0085870883"
       y="-0.096175389"
       width="1.0171742"
       height="1.1923508">
      <feGaussianBlur
         inkscape:collect="always"
         stdDeviation="0.2003654"
         id="feGaussianBlur6" />
    </filter>
    <filter
       inkscape:collect="always"
       style="color-interpolation-filters:sRGB"
       id="filter7"
       x="-0.015027405"
       y="-0.028035647"
       width="1.0300548"
       height="1.0560713">
      <feGaussianBlur
         inkscape:collect="always"
         stdDeviation="0.2003654"
         id="feGaussianBlur7" />
    </filter>
    <radialGradient
       inkscape:collect="always"
       xlink:href="#linearGradient7"
       id="radialGradient8"
       cx="14.213944"
       cy="15.31711"
       fx="14.213944"
       fy="15.31711"
       r="16"
       gradientUnits="userSpaceOnUse"
       gradientTransform="matrix(5.8681548,5.7060111,-3.8821151,3.9924305,1.6401968,-114.67916)" />
  </defs>
  <sodipodi:namedview
     id="namedview5"
     pagecolor="#ffffff"
     bordercolor="#000000"
     borderopacity="0.25"
     inkscape:showpageshadow="2"
     inkscape:pageopacity="0.0"
     inkscape:pagecheckerboard="0"
     inkscape:deskcolor="#d1d1d1"
     inkscape:zoom="9.8111066"
     inkscape:cx="52.695381"
     inkscape:cy="51.879979"
     inkscape:window-width="1920"
     inkscape:window-height="1017"
     inkscape:window-x="0"
     inkscape:window-y="0"
     inkscape:window-maximized="1"
     inkscape:current-layer="svg5" />
  <path
     style="opacity:0.65123266;mix-blend-mode:normal;filter:url(#filter6)"
     d="m 4,49.1 v 2 c 0,1.662 1.338,3 3,3 h 50 c 1.662,0 3,-1.338 3,-3 v -2 c 0,1.662 -1.338,3 -3,3 H 7 c -1.662,0 -3,-1.338 -3,-3 z"
     id="path1" />
  <rect
     style="fill:url(#radialGradient6);fill-opacity:1"
     width="44"
     height="56"
     x="-54"
     y="4"
     rx="3"
     ry="3"
     transform="matrix(0,-1,1,0,0,0)"
     id="rect1" />
  <path
     style="opacity:0.1;fill:#ffffff"
     d="m 7,10 c -1.662,0 -3,1.338 -3,3 l 0,38 c 0,1.662 1.338,3 3,3 l 7,0 0,-44 z"
     id="path3" />
  <path
     style="opacity:0.65123266;mix-blend-mode:normal;fill-rule:evenodd;filter:url(#filter7)"
     d="M 63.958,44.948 A 16,16 0 0 1 48,60.1 16,16 0 0 1 32.042,45.252 16,16 0 0 0 32,46.1 a 16,16 0 0 0 16,16 16,16 0 0 0 16,-16 16,16 0 0 0 -0.04296,-1.15234 z"
     id="path4" />
  <circle
     style="fill:url(#radialGradient8);fill-opacity:1"
     cx="48"
     cy="46"
     r="16"
     id="circle4" />
  <path
     style="fill:#ffffff"
     d="m 40,50.436 0,3.5638 3.5638,0 9.0008,-9.0008 -3.5638,-3.5638 z m 15.7172,-8.5782 c 0.37696,-0.37694 0.37696,-0.9709 0,-1.34786 l -2.2274,-2.2274 c -0.37696,-0.37696 -0.97092,-0.37696 -1.34786,0 l -1.86186,1.87328 3.5638,3.5638 z"
     id="path5" />
</svg>
