<?xml version="1.0" encoding="UTF-8" standalone="no"?>
<svg
   width="64"
   height="64"
   version="1"
   id="svg12"
   sodipodi:docname="intellij.svg"
   inkscape:version="1.4 (e7c3feb100, 2024-10-09)"
   xmlns:inkscape="http://www.inkscape.org/namespaces/inkscape"
   xmlns:sodipodi="http://sodipodi.sourceforge.net/DTD/sodipodi-0.dtd"
   xmlns:xlink="http://www.w3.org/1999/xlink"
   xmlns="http://www.w3.org/2000/svg"
   xmlns:svg="http://www.w3.org/2000/svg">
  <defs
     id="defs12">
    <inkscape:path-effect
       effect="fillet_chamfer"
       id="path-effect9-3"
       is_visible="true"
       lpeversion="1"
       nodesatellites_param="F,0,0,1,0,0,0,1 @ F,0,1,1,0,3.1063821,0,1 @ F,0,0,1,0,1.145484,0,1 @ F,0,0,1,0,0,0,1 @ F,0,0,1,0,3.1063821,0,1 @ F,0,0,1,0,1.145484,0,1 | F,0,0,1,0,1.5023482,0,1 @ F,0,0,1,0,1.5023482,0,1 @ F,0,0,1,0,1.5023482,0,1 @ F,0,0,1,0,1.5023482,0,1"
       radius="0"
       unit="px"
       method="auto"
       mode="F"
       chamfer_steps="1"
       flexible="false"
       use_knot_distance="true"
       apply_no_radius="true"
       apply_with_radius="true"
       only_selected="false"
       hide_knots="false" />
    <filter
       inkscape:collect="always"
       style="color-interpolation-filters:sRGB"
       id="filter11"
       x="-0.087906725"
       y="-0.087906724"
       width="1.1758134"
       height="1.1758134">
      <feGaussianBlur
         inkscape:collect="always"
         stdDeviation="1.5491233"
         id="feGaussianBlur11" />
    </filter>
    <filter
       inkscape:collect="always"
       style="color-interpolation-filters:sRGB"
       id="filter12"
       x="-0.06906957"
       y="-0.06906957"
       width="1.1381391"
       height="1.1381391">
      <feGaussianBlur
         inkscape:collect="always"
         stdDeviation="1.5491233"
         id="feGaussianBlur12" />
    </filter>
    <inkscape:path-effect
       effect="fillet_chamfer"
       id="path-effect9"
       is_visible="true"
       lpeversion="1"
       nodesatellites_param="F,0,0,1,0,0,0,1 @ F,0,1,1,0,3.1063821,0,1 @ F,0,0,1,0,1.145484,0,1 @ F,0,0,1,0,0,0,1 @ F,0,0,1,0,3.1063821,0,1 @ F,0,0,1,0,1.145484,0,1 | F,0,0,1,0,1.5023482,0,1 @ F,0,0,1,0,1.5023482,0,1 @ F,0,0,1,0,1.5023482,0,1 @ F,0,0,1,0,1.5023482,0,1"
       radius="0"
       unit="px"
       method="auto"
       mode="F"
       chamfer_steps="1"
       flexible="false"
       use_knot_distance="true"
       apply_no_radius="true"
       apply_with_radius="true"
       only_selected="false"
       hide_knots="false" />
    <radialGradient
       inkscape:collect="always"
       xlink:href="#linearGradient8"
       id="radialGradient9"
       cx="37.338306"
       cy="32.122997"
       fx="37.338306"
       fy="32.122997"
       r="28"
       gradientUnits="userSpaceOnUse"
       gradientTransform="matrix(2.9155121,0,0,3.6692226,-108.19767,-53.166849)" />
    <linearGradient
       id="linearGradient8"
       inkscape:collect="always">
      <stop
         style="stop-color:#f78846;stop-opacity:1;"
         offset="0"
         id="stop8" />
      <stop
         style="stop-color:#d06ae5;stop-opacity:1;"
         offset="0.5"
         id="stop13" />
      <stop
         style="stop-color:#468ff7;stop-opacity:1;"
         offset="1"
         id="stop9" />
    </linearGradient>
    <filter
       inkscape:collect="always"
       style="color-interpolation-filters:sRGB"
       id="filter13"
       x="-0.051929555"
       y="-0.045740284"
       width="1.1038603"
       height="1.0914806">
      <feGaussianBlur
         inkscape:collect="always"
         stdDeviation="0.35797242"
         id="feGaussianBlur13" />
    </filter>
  </defs>
  <sodipodi:namedview
     id="namedview12"
     pagecolor="#505050"
     bordercolor="#eeeeee"
     borderopacity="1"
     inkscape:showpageshadow="0"
     inkscape:pageopacity="0"
     inkscape:pagecheckerboard="0"
     inkscape:deskcolor="#505050"
     inkscape:zoom="4.7304688"
     inkscape:cx="-15.114781"
     inkscape:cy="14.057803"
     inkscape:current-layer="svg12" />
  <path
     id="path2-36"
     style="fill:url(#radialGradient9)"
     d="M 20.800781,4 C 11.493591,4 4,11.493591 4,20.800781 V 32 43.199219 C 4,52.506409 11.493591,60 20.800781,60 H 43.199219 C 52.506409,60 60,52.506409 60,43.199219 V 32 20.800781 C 60,11.493591 52.506409,4 43.199219,4 Z" />
  <path
     style="fill:#3f3f3f"
     d="m 21,10 h 22 c 6.189135,0 11,4.810865 11,11 v 22 c 0,6.189135 -4.810865,11 -11,11 H 21 C 14.810865,54 10,49.189135 10,43 V 21 c 0,-6.189135 4.810865,-11 11,-11 z"
     id="path5-7" />
  <path
     id="path2-3"
     style="fill:none;stroke:#000000;stroke-width:0.3;stroke-dasharray:none;stroke-opacity:1;filter:url(#filter12)"
     d="M 20.800781,4.0000002 C 11.493591,4.0000002 4,11.493591 4,20.800781 V 32 43.199219 C 4,52.506409 11.493591,60 20.800781,60 H 43.199219 C 52.506409,60 60,52.506409 60,43.199219 V 32 20.800781 C 60,11.493591 52.506409,4.0000002 43.199219,4.0000002 Z" />
  <path
     style="fill:none;stroke:#000000;stroke-width:0.3;stroke-dasharray:none;stroke-opacity:1;filter:url(#filter11)"
     d="m 21,9.9999998 h 22 c 6.189135,0 11,4.8108652 11,11.0000002 v 22 c 0,6.189135 -4.810865,11 -11,11 H 21 C 14.810865,54 10,49.189135 10,43 V 21 C 10,14.810865 14.810865,9.9999998 21,9.9999998 Z"
     id="path5-5" />
  <path
     id="path8"
     style="fill:#ffffff;stroke-width:0.655285;stroke-linecap:round"
     d="m 16.377438,14.953646 a 1.3105704,1.3105704 0 0 0 -1.31057,1.31057 1.3105704,1.3105704 0 0 0 1.31057,1.31057 h 1.310571 v 7.863423 h -1.310571 a 1.3105704,1.3105704 0 0 0 -1.31057,1.31057 1.3105704,1.3105704 0 0 0 1.31057,1.310571 h 2.621141 2.621141 a 1.3105704,1.3105704 0 0 0 1.310571,-1.310571 1.3105704,1.3105704 0 0 0 -1.310571,-1.31057 h -1.31057 v -7.863423 h 1.31057 a 1.3105704,1.3105704 0 0 0 1.310571,-1.31057 1.3105704,1.3105704 0 0 0 -1.310571,-1.31057 h -2.621141 z m 15.728126,0 a 1.3105704,1.3105704 0 0 0 -1.311851,1.30929 c -3.96e-4,0.545363 0.0765,1.274822 0.107508,2.27302 0.03101,0.998199 0.01856,2.184084 -0.135665,3.277706 -0.154227,1.093622 -0.465332,2.080103 -0.889498,2.690253 -0.416666,0.599362 -0.83347,0.889789 -1.704765,0.925335 a 1.3105704,1.3105704 0 0 0 -1.309291,-1.301612 1.3105704,1.3105704 0 0 0 -1.31057,1.310571 v 1.31057 a 1.3107014,1.3107014 0 0 0 1.31057,1.310571 h 1.310571 a 1.3107014,1.3107014 0 0 0 0.03839,-0.0013 c 1.661805,-0.04883 3.023817,-0.915878 3.817804,-2.058005 0.793987,-1.142128 1.145258,-2.493863 1.332328,-3.820364 0.18707,-1.326501 0.193551,-2.643648 0.159981,-3.724375 -0.03356,-1.080665 -0.106361,-2.006476 -0.106227,-2.189799 a 1.3105704,1.3105704 0 0 0 -1.309288,-1.31185 z M 16.377438,33.301631 a 1.3105705,1.3105705 0 0 0 -1.31057,1.310571 1.3105705,1.3105705 0 0 0 1.31057,1.31057 h 10.484564 a 1.3105705,1.3105705 0 0 0 1.310571,-1.31057 1.3105705,1.3105705 0 0 0 -1.310571,-1.310571 z" />
  <path
     id="path8-3"
     style="fill:none;stroke-width:0.2;stroke-linecap:round;stroke:#ff8500;stroke-opacity:1;stroke-dasharray:none;filter:url(#filter13)"
     d="m 16.377438,14.953646 a 1.3105704,1.3105704 0 0 0 -1.31057,1.31057 1.3105704,1.3105704 0 0 0 1.31057,1.31057 h 1.310571 v 7.863423 h -1.310571 a 1.3105704,1.3105704 0 0 0 -1.31057,1.31057 1.3105704,1.3105704 0 0 0 1.31057,1.310571 h 2.621141 2.621141 a 1.3105704,1.3105704 0 0 0 1.310571,-1.310571 1.3105704,1.3105704 0 0 0 -1.310571,-1.31057 h -1.31057 v -7.863423 h 1.31057 a 1.3105704,1.3105704 0 0 0 1.310571,-1.31057 1.3105704,1.3105704 0 0 0 -1.310571,-1.31057 h -2.621141 z m 15.728126,0 a 1.3105704,1.3105704 0 0 0 -1.311851,1.30929 c -3.96e-4,0.545363 0.0765,1.274822 0.107508,2.27302 0.03101,0.998199 0.01856,2.184084 -0.135665,3.277706 -0.154227,1.093622 -0.465332,2.080103 -0.889498,2.690253 -0.416666,0.599362 -0.83347,0.889789 -1.704765,0.925335 a 1.3105704,1.3105704 0 0 0 -1.309291,-1.301612 1.3105704,1.3105704 0 0 0 -1.31057,1.310571 v 1.31057 a 1.3107014,1.3107014 0 0 0 1.31057,1.310571 h 1.310571 a 1.3107014,1.3107014 0 0 0 0.03839,-0.0013 c 1.661805,-0.04883 3.023817,-0.915878 3.817804,-2.058005 0.793987,-1.142128 1.145258,-2.493863 1.332328,-3.820364 0.18707,-1.326501 0.193551,-2.643648 0.159981,-3.724375 -0.03356,-1.080665 -0.106361,-2.006476 -0.106227,-2.189799 a 1.3105704,1.3105704 0 0 0 -1.309288,-1.31185 z M 16.377438,33.301631 a 1.3105705,1.3105705 0 0 0 -1.31057,1.310571 1.3105705,1.3105705 0 0 0 1.31057,1.31057 h 10.484564 a 1.3105705,1.3105705 0 0 0 1.310571,-1.31057 1.3105705,1.3105705 0 0 0 -1.310571,-1.310571 z" />
</svg>
