<?xml version="1.0" encoding="UTF-8" standalone="no"?>
<svg
   width="64"
   height="64"
   version="1"
   id="svg20"
   sodipodi:docname="hardinfo.svg"
   inkscape:version="1.4 (e7c3feb100, 2024-10-09)"
   xmlns:inkscape="http://www.inkscape.org/namespaces/inkscape"
   xmlns:sodipodi="http://sodipodi.sourceforge.net/DTD/sodipodi-0.dtd"
   xmlns:xlink="http://www.w3.org/1999/xlink"
   xmlns="http://www.w3.org/2000/svg"
   xmlns:svg="http://www.w3.org/2000/svg">
  <defs
     id="defs20">
    <radialGradient
       inkscape:collect="always"
       xlink:href="#linearGradient94"
       id="radialGradient95"
       cx="15.411671"
       cy="7.0459924"
       fx="15.411671"
       fy="7.0459924"
       r="24"
       gradientUnits="userSpaceOnUse"
       gradientTransform="matrix(1.3727404,2.3776562,-2.3776562,1.3727404,4.1662225,-34.962408)" />
    <linearGradient
       id="linearGradient94"
       inkscape:collect="always">
      <stop
         style="stop-color:#ffe61b;stop-opacity:1;"
         offset="0"
         id="stop94" />
      <stop
         style="stop-color:#ffb347;stop-opacity:1;"
         offset="1"
         id="stop95" />
    </linearGradient>
    <filter
       inkscape:collect="always"
       style="color-interpolation-filters:sRGB"
       id="filter96"
       x="-0.21418309"
       y="-0.21418309"
       width="1.4283662"
       height="1.4283662">
      <feGaussianBlur
         inkscape:collect="always"
         stdDeviation="1.3017845"
         id="feGaussianBlur96" />
    </filter>
    <filter
       inkscape:collect="always"
       style="color-interpolation-filters:sRGB"
       id="filter95"
       x="-0.12522879"
       y="-0.12522879"
       width="1.2504576"
       height="1.2504576">
      <feGaussianBlur
         inkscape:collect="always"
         stdDeviation="2.5910441"
         id="feGaussianBlur95" />
    </filter>
  </defs>
  <sodipodi:namedview
     id="namedview20"
     pagecolor="#505050"
     bordercolor="#eeeeee"
     borderopacity="1"
     inkscape:showpageshadow="0"
     inkscape:pageopacity="0"
     inkscape:pagecheckerboard="0"
     inkscape:deskcolor="#505050"
     inkscape:zoom="18.421875"
     inkscape:cx="32.027142"
     inkscape:cy="32"
     inkscape:current-layer="svg20" />
  <g
     id="g1">
    <rect
       style="fill:#419d45;stroke-width:0.908124"
       width="50.854969"
       height="50.854969"
       x="-57.427483"
       y="-57.427483"
       rx="13.447009"
       ry="13.447009"
       transform="matrix(0,-1,-1,0,0,0)"
       id="rect2" />
    <rect
       style="fill:none;stroke:#000000;stroke-width:0.3;stroke-dasharray:none;stroke-opacity:1;filter:url(#filter95)"
       width="50.854969"
       height="50.854969"
       x="-57.427483"
       y="-57.427483"
       rx="13.447009"
       ry="13.447009"
       transform="matrix(0,-1,-1,0,3.4229448e-6,3.4229448e-6)"
       id="rect2-6" />
    <rect
       style="fill:#37474f;stroke-width:0.764366"
       width="15.287308"
       height="15.287308"
       x="24.356346"
       y="24.356346"
       rx="5.3335843"
       ry="5.3335843"
       id="rect4" />
    <rect
       style="fill:none;stroke:#000000;stroke-width:0.3;stroke-dasharray:none;stroke-opacity:1;filter:url(#filter96)"
       width="15.287308"
       height="15.287308"
       x="24.356346"
       y="24.356346"
       rx="5.3335843"
       ry="5.3335843"
       id="rect4-7" />
    <path
       id="circle49"
       style="fill:url(#radialGradient95);stroke-width:1.52873"
       d="m 24.356312,13.654511 a 1.5287308,1.5287308 0 0 0 -1.529056,1.529057 1.5287308,1.5287308 0 0 0 1.529056,1.529056 1.5287308,1.5287308 0 0 0 1.529056,-1.529056 1.5287308,1.5287308 0 0 0 -1.529056,-1.529057 z m 4.585574,0 a 1.5287308,1.5287308 0 0 0 -1.527462,1.529057 1.5287308,1.5287308 0 0 0 1.527462,1.529056 1.5287308,1.5287308 0 0 0 1.529057,-1.529056 1.5287308,1.5287308 0 0 0 -1.529057,-1.529057 z m 6.116228,0 a 1.5287308,1.5287308 0 0 0 -1.529057,1.529057 1.5287308,1.5287308 0 0 0 1.529057,1.529056 1.5287308,1.5287308 0 0 0 1.527462,-1.529056 1.5287308,1.5287308 0 0 0 -1.527462,-1.529057 z m 4.585574,0 a 1.5287308,1.5287308 0 0 0 -1.529056,1.529057 1.5287308,1.5287308 0 0 0 1.529056,1.529056 1.5287308,1.5287308 0 0 0 1.529056,-1.529056 1.5287308,1.5287308 0 0 0 -1.529056,-1.529057 z m 4.585575,0 a 1.5287308,1.5287308 0 0 0 -1.527462,1.529057 1.5287308,1.5287308 0 0 0 1.527462,1.529056 1.5287308,1.5287308 0 0 0 1.529057,-1.529056 1.5287308,1.5287308 0 0 0 -1.529057,-1.529057 z m 4.587169,0 a 1.5287308,1.5287308 0 0 0 -1.529056,1.529057 1.5287308,1.5287308 0 0 0 1.529056,1.529056 1.5287308,1.5287308 0 0 0 1.529057,-1.529056 1.5287308,1.5287308 0 0 0 -1.529057,-1.529057 z m -35.021611,0.129148 v 3.392944 l 3.391348,-3.392944 z m 1.388747,4.458021 a 1.5287308,1.5287308 0 0 0 -1.529057,1.529057 1.5287308,1.5287308 0 0 0 1.529057,1.527462 1.5287308,1.5287308 0 0 0 1.529056,-1.527462 1.5287308,1.5287308 0 0 0 -1.529056,-1.529057 z m 4.587169,0 a 1.5287308,1.5287308 0 0 0 -1.529057,1.529057 1.5287308,1.5287308 0 0 0 1.529057,1.527462 1.5287308,1.5287308 0 0 0 1.527462,-1.527462 1.5287308,1.5287308 0 0 0 -1.527462,-1.529057 z m 4.585575,0 a 1.5287308,1.5287308 0 0 0 -1.529056,1.529057 1.5287308,1.5287308 0 0 0 1.529056,1.527462 1.5287308,1.5287308 0 0 0 1.529056,-1.527462 1.5287308,1.5287308 0 0 0 -1.529056,-1.529057 z m 4.585574,0 a 1.5287308,1.5287308 0 0 0 -1.527462,1.529057 1.5287308,1.5287308 0 0 0 1.527462,1.527462 1.5287308,1.5287308 0 0 0 1.529057,-1.527462 1.5287308,1.5287308 0 0 0 -1.529057,-1.529057 z m 6.116228,0 a 1.5287308,1.5287308 0 0 0 -1.529057,1.529057 1.5287308,1.5287308 0 0 0 1.529057,1.527462 1.5287308,1.5287308 0 0 0 1.527462,-1.527462 1.5287308,1.5287308 0 0 0 -1.527462,-1.529057 z m 4.585574,0 a 1.5287308,1.5287308 0 0 0 -1.529056,1.529057 1.5287308,1.5287308 0 0 0 1.529056,1.527462 1.5287308,1.5287308 0 0 0 1.529056,-1.527462 1.5287308,1.5287308 0 0 0 -1.529056,-1.529057 z m 4.585575,0 a 1.5287308,1.5287308 0 0 0 -1.527462,1.529057 1.5287308,1.5287308 0 0 0 1.527462,1.527462 1.5287308,1.5287308 0 0 0 1.529057,-1.527462 1.5287308,1.5287308 0 0 0 -1.529057,-1.529057 z m 4.587169,0 a 1.5287308,1.5287308 0 0 0 -1.529056,1.529057 1.5287308,1.5287308 0 0 0 1.529056,1.527462 1.5287308,1.5287308 0 0 0 1.529057,-1.527462 1.5287308,1.5287308 0 0 0 -1.529057,-1.529057 z m -33.632864,4.585576 a 1.5287308,1.5287308 0 0 0 -1.529057,1.529056 1.5287308,1.5287308 0 0 0 1.529057,1.529056 1.5287308,1.5287308 0 0 0 1.529056,-1.529056 1.5287308,1.5287308 0 0 0 -1.529056,-1.529056 z m 4.587169,0 a 1.5287308,1.5287308 0 0 0 -1.529057,1.529056 1.5287308,1.5287308 0 0 0 1.529057,1.529056 1.5287308,1.5287308 0 0 0 1.527462,-1.529056 1.5287308,1.5287308 0 0 0 -1.527462,-1.529056 z m 24.458526,0 a 1.5287308,1.5287308 0 0 0 -1.527462,1.529056 1.5287308,1.5287308 0 0 0 1.527462,1.529056 1.5287308,1.5287308 0 0 0 1.529057,-1.529056 1.5287308,1.5287308 0 0 0 -1.529057,-1.529056 z m 4.587169,0 a 1.5287308,1.5287308 0 0 0 -1.529056,1.529056 1.5287308,1.5287308 0 0 0 1.529056,1.529056 1.5287308,1.5287308 0 0 0 1.529057,-1.529056 1.5287308,1.5287308 0 0 0 -1.529057,-1.529056 z m -33.632864,4.587168 a 1.5287308,1.5287308 0 0 0 -1.529057,1.527462 1.5287308,1.5287308 0 0 0 1.529057,1.529057 1.5287308,1.5287308 0 0 0 1.529056,-1.529057 1.5287308,1.5287308 0 0 0 -1.529056,-1.527462 z m 4.587169,0 a 1.5287308,1.5287308 0 0 0 -1.529057,1.527462 1.5287308,1.5287308 0 0 0 1.529057,1.529057 1.5287308,1.5287308 0 0 0 1.527462,-1.529057 1.5287308,1.5287308 0 0 0 -1.527462,-1.527462 z m 24.458526,0 a 1.5287308,1.5287308 0 0 0 -1.527462,1.527462 1.5287308,1.5287308 0 0 0 1.527462,1.529057 1.5287308,1.5287308 0 0 0 1.529057,-1.529057 1.5287308,1.5287308 0 0 0 -1.529057,-1.527462 z m 4.587169,0 a 1.5287308,1.5287308 0 0 0 -1.529056,1.527462 1.5287308,1.5287308 0 0 0 1.529056,1.529057 1.5287308,1.5287308 0 0 0 1.529057,-1.529057 1.5287308,1.5287308 0 0 0 -1.529057,-1.527462 z m -33.632864,6.114633 a 1.5287308,1.5287308 0 0 0 -1.529057,1.529057 1.5287308,1.5287308 0 0 0 1.529057,1.527462 1.5287308,1.5287308 0 0 0 1.529056,-1.527462 1.5287308,1.5287308 0 0 0 -1.529056,-1.529057 z m 4.587169,0 a 1.5287308,1.5287308 0 0 0 -1.529057,1.529057 1.5287308,1.5287308 0 0 0 1.529057,1.527462 1.5287308,1.5287308 0 0 0 1.527462,-1.527462 1.5287308,1.5287308 0 0 0 -1.527462,-1.529057 z m 24.458526,0 a 1.5287308,1.5287308 0 0 0 -1.527462,1.529057 1.5287308,1.5287308 0 0 0 1.527462,1.527462 1.5287308,1.5287308 0 0 0 1.529057,-1.527462 1.5287308,1.5287308 0 0 0 -1.529057,-1.529057 z m 4.587169,0 a 1.5287308,1.5287308 0 0 0 -1.529056,1.529057 1.5287308,1.5287308 0 0 0 1.529056,1.527462 1.5287308,1.5287308 0 0 0 1.529057,-1.527462 1.5287308,1.5287308 0 0 0 -1.529057,-1.529057 z m -33.632864,4.585575 a 1.5287308,1.5287308 0 0 0 -1.529057,1.529056 1.5287308,1.5287308 0 0 0 1.529057,1.529056 1.5287308,1.5287308 0 0 0 1.529056,-1.529056 1.5287308,1.5287308 0 0 0 -1.529056,-1.529056 z m 4.587169,0 a 1.5287308,1.5287308 0 0 0 -1.529057,1.529056 1.5287308,1.5287308 0 0 0 1.529057,1.529056 1.5287308,1.5287308 0 0 0 1.527462,-1.529056 1.5287308,1.5287308 0 0 0 -1.527462,-1.529056 z m 24.458526,0 a 1.5287308,1.5287308 0 0 0 -1.527462,1.529056 1.5287308,1.5287308 0 0 0 1.527462,1.529056 1.5287308,1.5287308 0 0 0 1.529057,-1.529056 1.5287308,1.5287308 0 0 0 -1.529057,-1.529056 z m 4.587169,0 a 1.5287308,1.5287308 0 0 0 -1.529056,1.529056 1.5287308,1.5287308 0 0 0 1.529056,1.529056 1.5287308,1.5287308 0 0 0 1.529057,-1.529056 1.5287308,1.5287308 0 0 0 -1.529057,-1.529056 z m -33.632864,4.587169 a 1.5287308,1.5287308 0 0 0 -1.529057,1.527462 1.5287308,1.5287308 0 0 0 1.529057,1.529057 1.5287308,1.5287308 0 0 0 1.529056,-1.529057 1.5287308,1.5287308 0 0 0 -1.529056,-1.527462 z m 4.587169,0 a 1.5287308,1.5287308 0 0 0 -1.529057,1.527462 1.5287308,1.5287308 0 0 0 1.529057,1.529057 1.5287308,1.5287308 0 0 0 1.527462,-1.529057 1.5287308,1.5287308 0 0 0 -1.527462,-1.527462 z m 4.585575,0 a 1.5287308,1.5287308 0 0 0 -1.529056,1.527462 1.5287308,1.5287308 0 0 0 1.529056,1.529057 1.5287308,1.5287308 0 0 0 1.529056,-1.529057 1.5287308,1.5287308 0 0 0 -1.529056,-1.527462 z m 4.585574,0 a 1.5287308,1.5287308 0 0 0 -1.527462,1.527462 1.5287308,1.5287308 0 0 0 1.527462,1.529057 1.5287308,1.5287308 0 0 0 1.529057,-1.529057 1.5287308,1.5287308 0 0 0 -1.529057,-1.527462 z m 6.116228,0 a 1.5287308,1.5287308 0 0 0 -1.529057,1.527462 1.5287308,1.5287308 0 0 0 1.529057,1.529057 1.5287308,1.5287308 0 0 0 1.527462,-1.529057 1.5287308,1.5287308 0 0 0 -1.527462,-1.527462 z m 4.585574,0 a 1.5287308,1.5287308 0 0 0 -1.529056,1.527462 1.5287308,1.5287308 0 0 0 1.529056,1.529057 1.5287308,1.5287308 0 0 0 1.529056,-1.529057 1.5287308,1.5287308 0 0 0 -1.529056,-1.527462 z m 4.585575,0 a 1.5287308,1.5287308 0 0 0 -1.527462,1.527462 1.5287308,1.5287308 0 0 0 1.527462,1.529057 1.5287308,1.5287308 0 0 0 1.529057,-1.529057 1.5287308,1.5287308 0 0 0 -1.529057,-1.527462 z m 4.587169,0 a 1.5287308,1.5287308 0 0 0 -1.529056,1.527462 1.5287308,1.5287308 0 0 0 1.529056,1.529057 1.5287308,1.5287308 0 0 0 1.529057,-1.529057 1.5287308,1.5287308 0 0 0 -1.529057,-1.527462 z m -33.632864,4.585575 a 1.5287308,1.5287308 0 0 0 -1.529057,1.529056 1.5287308,1.5287308 0 0 0 1.529057,1.529057 1.5287308,1.5287308 0 0 0 1.529056,-1.529057 1.5287308,1.5287308 0 0 0 -1.529056,-1.529056 z m 9.172744,0 a 1.5287308,1.5287308 0 0 0 -1.529056,1.529056 1.5287308,1.5287308 0 0 0 1.529056,1.529057 1.5287308,1.5287308 0 0 0 1.529056,-1.529057 1.5287308,1.5287308 0 0 0 -1.529056,-1.529056 z m 4.585574,0 a 1.5287308,1.5287308 0 0 0 -1.527462,1.529056 1.5287308,1.5287308 0 0 0 1.527462,1.529057 1.5287308,1.5287308 0 0 0 1.529057,-1.529057 1.5287308,1.5287308 0 0 0 -1.529057,-1.529056 z m 6.116228,0 a 1.5287308,1.5287308 0 0 0 -1.529057,1.529056 1.5287308,1.5287308 0 0 0 1.529057,1.529057 1.5287308,1.5287308 0 0 0 1.527462,-1.529057 1.5287308,1.5287308 0 0 0 -1.527462,-1.529056 z m 4.585574,0 a 1.5287308,1.5287308 0 0 0 -1.529056,1.529056 1.5287308,1.5287308 0 0 0 1.529056,1.529057 1.5287308,1.5287308 0 0 0 1.529056,-1.529057 1.5287308,1.5287308 0 0 0 -1.529056,-1.529056 z m 4.585575,0 a 1.5287308,1.5287308 0 0 0 -1.527462,1.529056 1.5287308,1.5287308 0 0 0 1.527462,1.529057 1.5287308,1.5287308 0 0 0 1.529057,-1.529057 1.5287308,1.5287308 0 0 0 -1.529057,-1.529056 z m 4.587169,0 a 1.5287308,1.5287308 0 0 0 -1.529056,1.529056 1.5287308,1.5287308 0 0 0 1.529056,1.529057 1.5287308,1.5287308 0 0 0 1.529057,-1.529057 1.5287308,1.5287308 0 0 0 -1.529057,-1.529056 z" />
  </g>
</svg>
