<?xml version="1.0" encoding="UTF-8" standalone="no"?>
<svg
   width="64"
   height="64"
   version="1"
   id="svg6"
   sodipodi:docname="org.libreoffice.LibreOffice.calc.svg"
   inkscape:version="1.3.2 (091e20ef0f, 2023-11-25, custom)"
   xmlns:inkscape="http://www.inkscape.org/namespaces/inkscape"
   xmlns:sodipodi="http://sodipodi.sourceforge.net/DTD/sodipodi-0.dtd"
   xmlns:xlink="http://www.w3.org/1999/xlink"
   xmlns="http://www.w3.org/2000/svg"
   xmlns:svg="http://www.w3.org/2000/svg">
  <defs
     id="defs6">
    <inkscape:path-effect
       effect="fillet_chamfer"
       id="path-effect6"
       is_visible="true"
       lpeversion="1"
       nodesatellites_param="F,0,1,1,0,3.1497952,0,1 @ F,0,0,1,0,3.1497952,0,1 @ F,0,1,1,0,3.1497952,0,1 @ F,0,1,1,0,3.1497952,0,1 | F,0,0,1,0,1.088849,0,1 @ F,0,0,1,0,1.088849,0,1 @ F,0,0,1,0,1.088849,0,1 @ F,0,0,1,0,1.088849,0,1 | F,0,0,1,0,1.088849,0,1 @ F,0,0,1,0,1.088849,0,1 @ F,0,0,1,0,1.088849,0,1 @ F,0,0,1,0,1.088849,0,1 | F,0,0,1,0,1.088849,0,1 @ F,0,0,1,0,1.088849,0,1 @ F,0,0,1,0,1.088849,0,1 @ F,0,0,1,0,1.088849,0,1 | F,0,0,1,0,1.088849,0,1 @ F,0,0,1,0,1.088849,0,1 @ F,0,0,1,0,1.088849,0,1 @ F,0,0,1,0,1.088849,0,1 | F,0,0,1,0,1.088849,0,1 @ F,0,0,1,0,1.088849,0,1 @ F,0,0,1,0,1.088849,0,1 @ F,0,0,1,0,1.088849,0,1 | F,0,0,1,0,1.088849,0,1 @ F,0,0,1,0,1.088849,0,1 @ F,0,0,1,0,1.088849,0,1 @ F,0,0,1,0,1.088849,0,1"
       radius="0"
       unit="px"
       method="auto"
       mode="F"
       chamfer_steps="1"
       flexible="false"
       use_knot_distance="true"
       apply_no_radius="true"
       apply_with_radius="true"
       only_selected="false"
       hide_knots="false" />
    <inkscape:path-effect
       effect="fillet_chamfer"
       id="path-effect9-6"
       is_visible="true"
       lpeversion="1"
       nodesatellites_param="F,0,0,1,0,3.800465,0,1 @ F,0,0,1,0,3.800465,0,1 @ F,0,0,1,0,3.800465,0,1 @ F,0,0,1,0,3.800465,0,1 @ F,0,0,1,0,3.800465,0,1 | F,0,0,1,0,1.3899408,0,1 @ F,0,0,1,0,1.3899408,0,1 @ F,0,1,1,0,3.2374143,0,1"
       radius="0"
       unit="px"
       method="auto"
       mode="F"
       chamfer_steps="1"
       flexible="false"
       use_knot_distance="true"
       apply_no_radius="true"
       apply_with_radius="true"
       only_selected="false"
       hide_knots="false" />
    <inkscape:path-effect
       effect="fillet_chamfer"
       id="path-effect9"
       is_visible="true"
       lpeversion="1"
       nodesatellites_param="F,0,0,1,0,3.800465,0,1 @ F,0,0,1,0,3.800465,0,1 @ F,0,0,1,0,3.800465,0,1 @ F,0,0,1,0,3.800465,0,1 @ F,0,0,1,0,3.800465,0,1 | F,0,0,1,0,1.3899408,0,1 @ F,0,0,1,0,1.3899408,0,1 @ F,0,1,1,0,3.2374143,0,1"
       radius="0"
       unit="px"
       method="auto"
       mode="F"
       chamfer_steps="1"
       flexible="false"
       use_knot_distance="true"
       apply_no_radius="true"
       apply_with_radius="true"
       only_selected="false"
       hide_knots="false" />
    <radialGradient
       inkscape:collect="always"
       xlink:href="#linearGradient6"
       id="radialGradient12"
       cx="8.9159527"
       cy="52.562355"
       fx="8.9159527"
       fy="52.562355"
       r="21.984943"
       gradientTransform="matrix(2.4108181,-2.4108181,3.075631,3.075631,-180.22015,-81.761034)"
       gradientUnits="userSpaceOnUse" />
    <linearGradient
       id="linearGradient6"
       inkscape:collect="always">
      <stop
         style="stop-color:#00ac75;stop-opacity:1;"
         offset="0"
         id="stop6" />
      <stop
         style="stop-color:#00b543;stop-opacity:1;"
         offset="0.99820381"
         id="stop8" />
    </linearGradient>
    <filter
       inkscape:collect="always"
       style="color-interpolation-filters:sRGB"
       id="filter1"
       x="-0.086879145"
       y="-0.068099786"
       width="1.1737583"
       height="1.1361996">
      <feGaussianBlur
         inkscape:collect="always"
         stdDeviation="1.5291942"
         id="feGaussianBlur1" />
    </filter>
    <filter
       inkscape:collect="always"
       style="color-interpolation-filters:sRGB"
       id="filter2"
       x="-0.1086755"
       y="-0.081506627"
       width="1.217351"
       height="1.1630133">
      <feGaussianBlur
         inkscape:collect="always"
         stdDeviation="1.5676326"
         id="feGaussianBlur2" />
    </filter>
  </defs>
  <sodipodi:namedview
     id="namedview6"
     pagecolor="#ffffff"
     bordercolor="#000000"
     borderopacity="0.25"
     inkscape:showpageshadow="2"
     inkscape:pageopacity="0.0"
     inkscape:pagecheckerboard="0"
     inkscape:deskcolor="#d1d1d1"
     inkscape:zoom="9.8221551"
     inkscape:cx="19.802172"
     inkscape:cy="33.801136"
     inkscape:window-width="1920"
     inkscape:window-height="1020"
     inkscape:window-x="0"
     inkscape:window-y="0"
     inkscape:window-maximized="1"
     inkscape:current-layer="svg6" />
  <rect
     style="fill:url(#radialGradient12);fill-opacity:1;stroke:none;stroke-width:8.3;stroke-linejoin:bevel;stroke-opacity:1;paint-order:stroke fill markers"
     id="rect10"
     width="43.969887"
     height="56.095127"
     x="10.015057"
     y="3.9524364"
     rx="6.4782028"
     ry="6.4782028" />
  <path
     id="path4-2"
     style="fill:#f5f5f5"
     d="M 17.800781,8.0000002 A 3.800465,3.800465 0 0 0 14,11.800781 V 52.199218 A 3.800465,3.800465 0 0 0 17.800781,56 H 46.199218 A 3.800465,3.800465 0 0 0 50,52.199218 V 28.628906 A 9.1751341,9.1751341 0 0 0 47.3125,22.140625 L 35.859375,10.6875 A 9.1751341,9.1751341 0 0 0 29.371093,8.0000002 Z m 22.417969,0 A 0.57572504,0.57572504 0 0 0 39.810546,8.982422 l 9.207032,9.207031 A 0.57573962,0.57573962 0 0 0 50,17.78125 V 11.238281 A 3.2374143,3.2374143 0 0 0 46.761718,8.0000002 Z M 23.15039,30.234375 H 40.849609 A 3.1497952,3.1497952 0 0 1 44,33.384765 v 13.699219 a 3.1497952,3.1497952 0 0 1 -3.150391,3.150391 H 23.15039 A 3.1497952,3.1497952 0 0 1 20,47.083984 V 33.384765 a 3.1497952,3.1497952 0 0 1 3.15039,-3.15039 z m -0.0625,2 A 1.088849,1.088849 0 0 0 22,33.322265 v 1.824219 a 1.088849,1.088849 0 0 0 1.08789,1.087891 h 6.824219 A 1.088849,1.088849 0 0 0 31,35.146484 v -1.824219 a 1.088849,1.088849 0 0 0 -1.087891,-1.08789 z m 11,0 A 1.088849,1.088849 0 0 0 33,33.322265 v 1.824219 a 1.088849,1.088849 0 0 0 1.08789,1.087891 h 6.824219 A 1.088849,1.088849 0 0 0 42,35.146484 v -1.824219 a 1.088849,1.088849 0 0 0 -1.087891,-1.08789 z m -11,6 A 1.088849,1.088849 0 0 0 22,39.322265 v 1.824219 a 1.088849,1.088849 0 0 0 1.08789,1.087891 h 6.824219 A 1.088849,1.088849 0 0 0 31,41.146484 v -1.824219 a 1.088849,1.088849 0 0 0 -1.087891,-1.08789 z m 11,0 A 1.088849,1.088849 0 0 0 33,39.322265 v 1.824219 a 1.088849,1.088849 0 0 0 1.08789,1.087891 h 6.824219 A 1.088849,1.088849 0 0 0 42,41.146484 v -1.824219 a 1.088849,1.088849 0 0 0 -1.087891,-1.08789 z m -11,6 A 1.088849,1.088849 0 0 0 22,45.322265 v 1.824219 a 1.088849,1.088849 0 0 0 1.08789,1.087891 h 6.824219 A 1.088849,1.088849 0 0 0 31,47.146484 v -1.824219 a 1.088849,1.088849 0 0 0 -1.087891,-1.08789 z m 11,0 A 1.088849,1.088849 0 0 0 33,45.322265 v 1.824219 a 1.088849,1.088849 0 0 0 1.08789,1.087891 h 6.824219 A 1.088849,1.088849 0 0 0 42,47.146484 v -1.824219 a 1.088849,1.088849 0 0 0 -1.087891,-1.08789 z" />
  <rect
     style="fill:none;fill-opacity:1;stroke:#000000;stroke-width:0.30000001;stroke-linejoin:bevel;stroke-opacity:1;paint-order:stroke fill markers;stroke-dasharray:none;filter:url(#filter1)"
     id="rect10-5"
     width="43.969887"
     height="56.095127"
     x="10.015057"
     y="3.9524364"
     rx="6.4782028"
     ry="6.4782028" />
  <path
     id="path4-2-3"
     style="fill:none;stroke:#00ffdb;stroke-opacity:1;stroke-width:0.29999992;stroke-dasharray:none;filter:url(#filter2)"
     d="M 17.800781,8.0000002 A 3.800465,3.800465 0 0 0 14,11.800781 V 52.199218 A 3.800465,3.800465 0 0 0 17.800781,56 H 46.199218 A 3.800465,3.800465 0 0 0 50,52.199218 V 28.628906 A 9.1751341,9.1751341 0 0 0 47.3125,22.140625 L 35.859375,10.6875 A 9.1751341,9.1751341 0 0 0 29.371093,8.0000002 Z m 22.417969,0 a 0.57572504,0.57572504 0 0 0 -0.408204,0.982421 l 9.207032,9.2070318 A 0.57573962,0.57573962 0 0 0 50,17.78125 V 11.238281 A 3.2374143,3.2374143 0 0 0 46.761718,8.0000002 Z M 23.15039,30.234375 H 40.849609 A 3.1497952,3.1497952 0 0 1 44,33.384765 v 13.699219 a 3.1497952,3.1497952 0 0 1 -3.150391,3.150391 H 23.15039 A 3.1497952,3.1497952 0 0 1 20,47.083984 V 33.384765 a 3.1497952,3.1497952 0 0 1 3.15039,-3.15039 z m -0.0625,2 A 1.088849,1.088849 0 0 0 22,33.322265 v 1.824219 a 1.088849,1.088849 0 0 0 1.08789,1.087891 h 6.824219 A 1.088849,1.088849 0 0 0 31,35.146484 v -1.824219 a 1.088849,1.088849 0 0 0 -1.087891,-1.08789 z m 11,0 A 1.088849,1.088849 0 0 0 33,33.322265 v 1.824219 a 1.088849,1.088849 0 0 0 1.08789,1.087891 h 6.824219 A 1.088849,1.088849 0 0 0 42,35.146484 v -1.824219 a 1.088849,1.088849 0 0 0 -1.087891,-1.08789 z m -11,6 A 1.088849,1.088849 0 0 0 22,39.322265 v 1.824219 a 1.088849,1.088849 0 0 0 1.08789,1.087891 h 6.824219 A 1.088849,1.088849 0 0 0 31,41.146484 v -1.824219 a 1.088849,1.088849 0 0 0 -1.087891,-1.08789 z m 11,0 A 1.088849,1.088849 0 0 0 33,39.322265 v 1.824219 a 1.088849,1.088849 0 0 0 1.08789,1.087891 h 6.824219 A 1.088849,1.088849 0 0 0 42,41.146484 v -1.824219 a 1.088849,1.088849 0 0 0 -1.087891,-1.08789 z m -11,6 A 1.088849,1.088849 0 0 0 22,45.322265 v 1.824219 a 1.088849,1.088849 0 0 0 1.08789,1.087891 h 6.824219 A 1.088849,1.088849 0 0 0 31,47.146484 v -1.824219 a 1.088849,1.088849 0 0 0 -1.087891,-1.08789 z m 11,0 A 1.088849,1.088849 0 0 0 33,45.322265 v 1.824219 a 1.088849,1.088849 0 0 0 1.08789,1.087891 h 6.824219 A 1.088849,1.088849 0 0 0 42,47.146484 v -1.824219 a 1.088849,1.088849 0 0 0 -1.087891,-1.08789 z" />
</svg>
