<?xml version="1.0" encoding="UTF-8" standalone="no"?>
<svg
   width="64"
   height="64"
   version="1.1"
   id="svg14"
   sodipodi:docname="lutris.svg"
   inkscape:version="1.3.2 (091e20ef0f, 2023-11-25, custom)"
   xmlns:inkscape="http://www.inkscape.org/namespaces/inkscape"
   xmlns:sodipodi="http://sodipodi.sourceforge.net/DTD/sodipodi-0.dtd"
   xmlns:xlink="http://www.w3.org/1999/xlink"
   xmlns="http://www.w3.org/2000/svg"
   xmlns:svg="http://www.w3.org/2000/svg">
  <defs
     id="defs14">
    <linearGradient
       id="linearGradient27"
       inkscape:collect="always">
      <stop
         style="stop-color:#ec9f46;stop-opacity:1;"
         offset="0"
         id="stop27" />
      <stop
         style="stop-color:#8a5231;stop-opacity:1;"
         offset="1"
         id="stop28" />
    </linearGradient>
    <inkscape:path-effect
       effect="fillet_chamfer"
       id="path-effect14"
       is_visible="true"
       lpeversion="1"
       nodesatellites_param="F,0,0,1,0,0,0,1 @ F,0,0,1,0,0,0,1 @ F,0,0,1,0,0,0,1 @ F,0,0,1,0,0,0,1 @ F,0,0,1,0,0,0,1 @ F,0,0,1,0,0,0,1 @ F,0,0,1,0,0,0,1 @ F,0,0,1,0,0,0,1 @ F,0,0,1,0,0,0,1 @ F,0,0,1,0,2.4298809,0,1 @ F,0,0,1,0,0,0,1 @ F,0,0,1,0,0,0,1 @ F,0,0,1,0,0,0,1 @ F,0,0,1,0,0,0,1 @ F,0,0,1,0,0,0,1"
       radius="0"
       unit="px"
       method="auto"
       mode="F"
       chamfer_steps="1"
       flexible="false"
       use_knot_distance="true"
       apply_no_radius="true"
       apply_with_radius="true"
       only_selected="false"
       hide_knots="false" />
    <radialGradient
       inkscape:collect="always"
       xlink:href="#linearGradient27"
       id="radialGradient1"
       cx="44.645695"
       cy="16.53344"
       fx="44.645695"
       fy="16.53344"
       r="27.327015"
       gradientTransform="matrix(0,2.5394574,-2.6028436,0,87.679652,-97.22219)"
       gradientUnits="userSpaceOnUse" />
    <radialGradient
       inkscape:collect="always"
       xlink:href="#linearGradient27"
       id="radialGradient2"
       cx="44.645695"
       cy="16.53344"
       fx="44.645695"
       fy="16.53344"
       r="27.327015"
       gradientTransform="matrix(0,2.5394574,-2.6028436,0,87.679652,-97.22219)"
       gradientUnits="userSpaceOnUse" />
    <radialGradient
       r="77.057365"
       fy="-121.30928"
       fx="365.89624"
       cy="-121.30928"
       cx="365.89624"
       gradientTransform="matrix(0.33981425,0.00386332,-0.0042561,0.38188222,-92.765593,78.570069)"
       gradientUnits="userSpaceOnUse"
       id="radialGradient4544-0"
       xlink:href="#linearGradient4146"
       inkscape:collect="always" />
    <linearGradient
       id="linearGradient4146">
      <stop
         id="stop4148"
         offset="0"
         style="stop-color:#ffba00;stop-opacity:1;" />
      <stop
         id="stop4150"
         offset="1"
         style="stop-color:#ff7f02;stop-opacity:1;" />
    </linearGradient>
    <linearGradient
       id="linearGradient4520">
      <stop
         id="stop4522"
         offset="0"
         style="stop-color:#ac522e;stop-opacity:1;" />
      <stop
         id="stop4524"
         offset="1"
         style="stop-color:#bc685d;stop-opacity:1;" />
    </linearGradient>
    <linearGradient
       y2="-183.11708"
       x2="369.23862"
       y1="-117.5489"
       x1="369.23862"
       gradientTransform="matrix(0.2680392,0,0,0.27078178,-66.170685,67.181529)"
       gradientUnits="userSpaceOnUse"
       id="linearGradient4550-5"
       xlink:href="#linearGradient4214"
       inkscape:collect="always" />
    <linearGradient
       id="linearGradient4214">
      <stop
         id="stop4216"
         offset="0"
         style="stop-color:#e5dfdd;stop-opacity:1;" />
      <stop
         id="stop4218"
         offset="1"
         style="stop-color:#ffffff;stop-opacity:1;" />
    </linearGradient>
    <linearGradient
       inkscape:collect="always"
       xlink:href="#linearGradient4520"
       id="linearGradient1"
       gradientUnits="userSpaceOnUse"
       x1="332.25"
       y1="369.85709"
       x2="332.25"
       y2="522.87469"
       gradientTransform="matrix(0.2680392,0,0,0.27078178,-66.148901,-85.719659)" />
    <filter
       inkscape:collect="always"
       style="color-interpolation-filters:sRGB"
       id="filter15"
       x="-0.098623345"
       y="-0.11314097"
       width="1.1972467"
       height="1.2262819">
      <feGaussianBlur
         inkscape:collect="always"
         stdDeviation="1.2129558"
         id="feGaussianBlur15" />
    </filter>
    <filter
       inkscape:collect="always"
       style="color-interpolation-filters:sRGB"
       id="filter16"
       x="-0.082248847"
       y="-0.086707375"
       width="1.1644977"
       height="1.1734147">
      <feGaussianBlur
         inkscape:collect="always"
         stdDeviation="1.2129558"
         id="feGaussianBlur16" />
    </filter>
    <filter
       inkscape:collect="always"
       style="color-interpolation-filters:sRGB"
       id="filter17"
       x="-0.069019057"
       y="-0.067908153"
       width="1.146096"
       height="1.1358165">
      <feGaussianBlur
         inkscape:collect="always"
         stdDeviation="1.2129558"
         id="feGaussianBlur17" />
    </filter>
    <filter
       inkscape:collect="always"
       style="color-interpolation-filters:sRGB"
       id="filter18"
       x="-0.3415627"
       y="-0.39557265"
       width="1.683128"
       height="1.7911534">
      <feGaussianBlur
         inkscape:collect="always"
         stdDeviation="1.2129558"
         id="feGaussianBlur18" />
    </filter>
  </defs>
  <sodipodi:namedview
     id="namedview14"
     pagecolor="#4d4d4d"
     bordercolor="#eeeeee"
     borderopacity="1"
     inkscape:showpageshadow="0"
     inkscape:pageopacity="0"
     inkscape:pagecheckerboard="0"
     inkscape:deskcolor="#505050"
     inkscape:zoom="8.5626212"
     inkscape:cx="30.539714"
     inkscape:cy="34.744034"
     inkscape:window-width="1920"
     inkscape:window-height="1020"
     inkscape:window-x="0"
     inkscape:window-y="0"
     inkscape:window-maximized="1"
     inkscape:current-layer="svg14" />
  <path
     style="fill:url(#radialGradient4544-0);fill-opacity:1;stroke:none;stroke-width:0.269408"
     d="m 46.729265,14.630864 -0.05948,2.149138 -15.832821,1.258378 -11.931473,7.825974 -2.827164,13.082173 c 0,0 1.921942,8.455611 3.561948,10.169524 1.64,1.713913 5.031439,6.62968 9.216273,7.486637 4.184835,0.856957 7.747598,1.825483 11.140707,0.968526 3.39311,-0.856956 5.657828,-1.884031 5.657828,-1.884031 l 1.413582,-0.685744 c 0,0 -0.347891,0.307832 -0.906232,0.703418 6.752242,-4.373229 11.224682,-12.023511 11.224682,-20.727875 0,-8.45827 -4.223357,-15.918289 -10.65785,-20.346118 z"
     id="path2996-71-2"
     inkscape:connector-curvature="0"
     sodipodi:nodetypes="cccccssscccsc"
     inkscape:label="path4" />
  <path
     d="m 41.81981,12.253628 c -5.344914,0.02756 -8.458327,0.652827 -14.004541,3.045003 -7.036212,3.306668 -14.100917,9.499486 -14.1407,19.619232 -0.04637,11.793452 9.467634,21.35216 21.141732,21.35216 6.032499,0 12.527805,-2.225923 16.378654,-6.32024 -4.144313,3.505796 -10.975379,4.616394 -14.200114,4.617018 -10.074311,0 -18.307156,-7.572748 -18.307156,-17.750143 0,-6.43038 3.118228,-11.1674 8.201705,-14.237249 1.771667,-1.069887 5.534957,-2.285093 10.754061,-1.490319 2.646801,0.403061 4.814092,0.980362 8.157145,2.057234 3.879909,1.249806 6.040945,2.995088 9.026084,3.342077 3.39976,0.395186 6.992031,-2.840867 4.339749,-7.874924 0,0 -0.481933,0.484246 -0.883794,0.727831 -0.40186,0.243582 -0.962244,-0.07778 -2.569686,-0.646136 -1.607444,-0.56836 -1.849193,-1.222564 -4.099615,-2.76526 -2.250418,-1.542692 -2.249899,-3.245556 -8.840413,-3.651528 -0.308931,-0.01904 -0.628694,-0.02806 -0.953111,-0.02476 z"
     style="fill:url(#linearGradient4550-5);stroke-width:0.269408"
     id="path5" />
  <path
     id="path6"
     style="fill:url(#linearGradient1);stroke-width:0.269408"
     d="m 31.489078,3.903386 c -15.242455,0 -27.5981311,12.481938 -27.598131,27.880351 0,15.39842 12.412339,28.306926 27.598131,28.308632 9.907183,0.297478 19.097708,-4.362163 22.127028,-11.954734 -0.881063,0.410741 -1.792635,1.249464 -2.609296,2.000296 -0.01829,0.01876 -0.03855,0.03578 -0.05694,0.05446 -0.224271,0.227724 -0.45536,0.450331 -0.695647,0.66594 l -0.0025,0.0025 c -0.0039,0.0035 -0.0084,0.0064 -0.01238,0.0099 -0.257352,0.230367 -0.522835,0.454541 -0.797147,0.67089 -0.556741,0.439103 -1.144675,0.850014 -1.762636,1.230381 -0.309172,0.190298 -0.625837,0.371761 -0.94816,0.547109 -0.322234,0.1753 -0.64889,0.344836 -0.982819,0.505026 -0.325652,0.15622 -0.657304,0.303918 -0.99272,0.44561 -0.0085,0.0035 -0.01624,0.0087 -0.02476,0.01238 -0.04629,0.01949 -0.09464,0.03525 -0.14111,0.05446 -0.298348,0.12338 -0.598758,0.244641 -0.903599,0.356488 -0.349407,0.128196 -0.700469,0.248539 -1.057086,0.361439 -0.0042,0.0014 -0.0081,0.0036 -0.01238,0.005 -0.04346,0.01374 -0.08765,0.0261 -0.131206,0.03961 -0.311256,0.09651 -0.625148,0.187534 -0.940734,0.272318 -0.0058,0.0015 -0.01154,0.0034 -0.01733,0.005 -0.0796,0.02132 -0.160295,0.03884 -0.240135,0.05941 -0.274016,0.07061 -0.547956,0.141263 -0.824379,0.203 -0.174982,0.03914 -0.35155,0.0709 -0.527305,0.106452 -0.200514,0.0405 -0.400273,0.0855 -0.601574,0.121305 -0.0091,0.0016 -0.01816,0.0033 -0.02723,0.005 -0.355574,0.06288 -0.712444,0.117728 -1.069464,0.165867 -0.01813,0.0024 -0.03634,0.005 -0.05446,0.0074 -0.362897,0.04817 -0.726244,0.08853 -1.08927,0.121305 -0.01153,10e-4 -0.02315,0.0013 -0.03466,0.0025 -0.369629,0.03288 -0.738254,0.0575 -1.1066,0.07427 -0.379679,0.01732 -0.759446,0.02723 -1.136307,0.02723 -5.472221,0 -10.469061,-2.09912 -14.229821,-5.545373 -0.250718,-0.22975 -0.495762,-0.466534 -0.735257,-0.708024 -3.831959,-3.863851 -6.199837,-9.20205 -6.176654,-15.098763 0.0049,-1.264966 0.118526,-2.467637 0.329256,-3.611919 0.105368,-0.572142 0.237036,-1.130782 0.388671,-1.673515 0.151636,-0.542731 0.325417,-1.070558 0.519879,-1.584392 0.03985,-0.105289 0.08979,-0.202957 0.131208,-0.306975 -2.46e-4,0.0051 2.6e-4,0.01485 0,0.01981 0.546927,-0.889429 2.042433,-0.762903 3.07471,-0.601575 2.434011,0.380397 4.930555,1.034939 6.491057,3.567359 0.13153,0.191542 0.224781,0.41298 0.371343,0.594147 0.721619,0.892015 1.501777,1.119633 2.287465,1.156111 1.678918,0.04938 2.472612,-1.216266 2.547406,-2.918748 0.0022,-0.133548 -6.22e-4,-0.06875 -0.0099,-0.185671 -0.05548,-1.185475 -1.856204,-5.708239 -4.827444,-5.847397 -0.03312,-0.0011 -0.0662,-3.73e-4 -0.09903,-0.0025 -1.648162,-0.101731 -2.929626,-1.520524 -2.881612,-3.213346 0.16374,-1.085217 0.662399,-1.946589 1.63638,-2.64643 1.3586,-0.905563 2.767816,-1.699939 4.18131,-2.364211 5.546203,-2.392171 8.659637,-3.017447 14.004541,-3.045003 0.324415,-0.0033 0.64418,0.0057 0.953111,0.02476 3.295249,0.202986 4.942937,0.729422 6.047922,1.398722 0.276247,0.167323 0.519457,0.345065 0.74516,0.527304 0.677104,0.546721 1.203427,1.146995 2.047331,1.725502 0.562605,0.385674 0.999819,0.71547 1.364063,1.002624 1.092735,0.861459 1.529971,1.336366 2.735552,1.762636 0.80372,0.284179 1.346621,0.505394 1.73788,0.626331 0.195629,0.06047 0.353533,0.09675 0.487696,0.1015 0.134164,0.0048 0.243646,-0.0208 0.34411,-0.08169 0.20093,-0.121796 0.420955,-0.304005 0.591672,-0.455513 0.170715,-0.15151 0.292122,-0.272318 0.292122,-0.272318 0.0085,0.0161 0.01391,0.03096 0.02228,0.04704 l -0.373818,-1.844331 c 0,0 0.317501,-3.534709 -0.398574,-4.941322 -0.716078,-1.406616 -1.231871,-2.010949 -4.89181,-4.0203955 -3.659935,-2.0094517 -6.92429,-0.8837943 -6.92429,-0.8837943 0,0 -0.713899,-0.6032047 -1.07194,-1.0050991 C 45.170242,5.5636856 44.849892,5.2025 44.292948,5.2426928 43.866171,5.2734934 43.422964,6.1424641 43.23586,6.5522918 39.671475,4.8551214 35.690923,3.903386 31.489078,3.903386 Z" />
  <path
     id="path3026-6-2"
     style="fill:#1b1b1b;fill-opacity:1;stroke:none;stroke-width:0.117333"
     d="m 51.01176,13.852904 a 2.0845944,2.1059241 0 0 0 -2.084465,2.10427 2.0845944,2.1059241 0 0 0 2.084465,2.106746 2.0845944,2.1059241 0 0 0 2.086942,-2.106746 2.0845944,2.1059241 0 0 0 -2.086942,-2.10427 z m 7.711534,2.22805 a 1.0806171,1.3579747 0 0 0 -1.079367,1.356636 1.0806171,1.3579747 0 0 0 1.079367,1.359111 1.0806171,1.3579747 0 0 0 1.081843,-1.359111 1.0806171,1.3579747 0 0 0 -1.081843,-1.356636 z m -0.54711,3.35198 c 0,0 -0.270451,0.474392 -0.854086,0.757538 -0.239649,0.116268 -0.662081,-0.17518 -1.057088,0.230231 -0.83873,1.700782 1.211385,3.119854 2.166162,3.079663 0.954774,-0.04019 1.70834,-1.012733 1.668563,-1.85671 -0.03979,-1.30615 -1.923551,-2.210722 -1.923551,-2.210722 z"
     inkscape:label="path7" />
  <path
     d="m 33.580748,23.173828 c -2.637666,0.04468 -4.568878,0.74194 -5.617188,1.375 -0.412129,0.24888 -0.803243,0.516288 -1.18164,0.792969 2.14755,0.405403 3.440738,3.675722 3.482422,4.566406 0.0073,0.09224 0.0095,0.04112 0.0078,0.146484 -0.05901,1.343162 -0.685195,2.341695 -2.009766,2.302735 -0.619863,-0.02878 -1.23537,-0.20836 -1.804687,-0.91211 -0.115629,-0.14293 -0.189199,-0.317634 -0.292969,-0.46875 -0.702719,-1.140389 -1.650091,-1.788897 -2.6875,-2.199218 -1.272547,1.954324 -1.984375,4.285725 -1.984375,7.003906 0,8.029392 6.495295,14.003906 14.44336,14.003906 2.544134,-4.92e-4 7.933494,-0.876702 11.203125,-3.642578 -0.04771,0.05072 -0.09971,0.09844 -0.148438,0.148438 0.641973,-0.590225 1.358011,-1.248914 2.050781,-1.574219 1.887058,-3.004243 2.982422,-6.565375 2.982422,-10.386719 0,-2.354516 -0.421791,-4.607254 -1.18164,-6.695312 -0.277105,0.02828 -0.558107,0.03057 -0.837891,-0.002 C 47.649457,27.359012 45.9445,25.982074 42.88347,24.996048 40.24599,24.146456 38.5361,23.690993 36.447923,23.373001 35.418528,23.216243 34.459958,23.158889 33.580736,23.173782 Z"
     style="mix-blend-mode:normal;fill:none;stroke:#000000;stroke-width:0.2;stroke-dasharray:none;filter:url(#filter15)"
     id="path14"
     transform="matrix(1.2675137,0,0,1.2675137,-8.5613853,-8.5563731)" />
  <path
     d="m 39.753906,16.402344 c -4.216828,0.02174 -6.673186,0.515055 -11.048828,2.402343 -0.2994,0.140703 -0.597827,0.291234 -0.896484,0.445313 -0.246314,0.128194 -0.49171,0.260705 -0.736328,0.398437 -0.01427,0.008 -0.02871,0.01537 -0.04297,0.02344 -0.547974,0.309918 -1.090315,0.642959 -1.623047,0.998047 -0.768417,0.552135 -1.161834,1.231715 -1.291016,2.08789 -0.03788,1.335541 0.973131,2.454897 2.273438,2.535157 0.0259,0.0017 0.052,0.0011 0.07813,0.002 0.111755,0.0052 0.218664,0.02658 0.326172,0.04687 0.378397,-0.276681 0.769511,-0.544089 1.18164,-0.792969 1.397748,-0.844081 4.366792,-1.802814 8.484375,-1.175781 2.088179,0.317992 3.798065,0.773454 6.435547,1.623047 3.061033,0.986027 4.765985,2.362964 7.121094,2.636718 2.036692,0.236745 4.154187,-1.181559 4.142578,-3.615234 -0.09709,0.597946 -0.634639,1.198602 -1.298828,1.226563 -0.753266,0.03171 -2.370695,-1.087867 -1.708984,-2.429688 0.311638,-0.319847 0.644915,-0.08991 0.833984,-0.181641 0.460456,-0.223386 0.673828,-0.597656 0.673828,-0.597656 0,0 1.230811,0.592472 1.474609,1.476563 -0.07617,-0.629503 -0.292238,-1.317297 -0.675781,-2.054688 -0.0042,-0.0081 -0.0075,-0.01534 -0.01172,-0.02344 -0.01607,0.0093 -0.03225,0.0174 -0.04883,0.02539 -7.93e-4,3.83e-4 -0.0012,0.0016 -0.002,0.002 -0.02813,0.02756 -0.07686,0.07737 -0.185547,0.173829 -0.134685,0.119532 -0.308273,0.263287 -0.466797,0.359375 -0.03963,0.02402 -0.08204,0.0402 -0.126953,0.05078 -0.04423,0.01027 -0.09231,0.01555 -0.144531,0.01367 -0.105848,-0.0038 -0.230425,-0.03237 -0.384766,-0.08008 -0.308681,-0.09541 -0.737003,-0.26994 -1.371093,-0.494141 -0.214315,-0.07578 -0.391019,-0.155579 -0.556641,-0.238281 -0.04042,-0.0202 -0.08262,-0.04166 -0.121094,-0.0625 -0.15303,-0.08292 -0.298559,-0.169057 -0.435547,-0.265625 -0.312923,-0.220594 -0.613866,-0.484396 -1.044921,-0.824219 -0.02135,-0.01683 -0.05808,-0.04139 -0.08008,-0.05859 -0.270241,0.545163 -0.826015,0.920655 -1.470703,0.919922 -0.908515,-5.6e-5 -1.644886,-0.744298 -1.644531,-1.662109 3.98e-4,-0.51186 0.231229,-0.968937 0.591797,-1.273438 -0.03028,-0.02531 -0.05688,-0.05308 -0.08789,-0.07813 C 45.687168,17.79763 45.495287,17.657399 45.277344,17.525391 45.0594,17.39338 44.814367,17.268096 44.529297,17.152344 43.958788,16.920815 43.2277,16.727325 42.224609,16.587891 c -0.250535,-0.03488 -0.516684,-0.06602 -0.802734,-0.09375 -0.286054,-0.02772 -0.591045,-0.05225 -0.916016,-0.07227 -0.243729,-0.01503 -0.496008,-0.02213 -0.751953,-0.01953 z M 20.042969,28.072266 c -0.582421,0.0014 -1.144379,0.125885 -1.414063,0.564453 2.05e-4,-0.0039 -1.94e-4,-0.01162 0,-0.01563 -0.03268,0.08207 -0.07208,0.159117 -0.103515,0.242187 -0.15342,0.405386 -0.290525,0.821816 -0.410157,1.25 -0.119631,0.428187 -0.223515,0.868924 -0.30664,1.320313 -0.04156,0.225693 -0.07753,0.454046 -0.109375,0.685547 -0.06385,0.46314 -0.107588,0.936885 -0.13086,1.423828 -0.01155,0.243402 -0.01856,0.490737 -0.01953,0.740234 -0.008,2.035327 0.345147,3.986824 0.998047,5.792969 0.186543,0.516041 0.396793,1.018784 0.630859,1.509765 0.117033,0.245491 0.240763,0.487866 0.369141,0.726563 0.256329,0.476599 0.534559,0.941267 0.833984,1.388672 0.150462,0.224822 0.305992,0.445192 0.466797,0.662109 0.160257,0.216196 0.325916,0.426775 0.496094,0.634766 0.07882,0.09635 0.161293,0.188669 0.242187,0.283203 0.268723,0.314031 0.5452,0.620904 0.835938,0.914062 0.188951,0.190524 0.382275,0.377334 0.580078,0.558594 0.190547,0.174612 0.385552,0.346031 0.583984,0.511719 0.06901,0.05761 0.140998,0.11146 0.210938,0.167969 0.134493,0.108665 0.268397,0.217754 0.40625,0.322265 0.06269,0.04753 0.128033,0.09202 0.191406,0.138672 0.15542,0.114419 0.311284,0.228817 0.470703,0.337891 0.04619,0.0316 0.09411,0.06065 0.140625,0.0918 0.167941,0.112447 0.337639,0.221714 0.509766,0.328125 0.07347,0.04541 0.148446,0.08852 0.222656,0.132812 0.146245,0.0873 0.292344,0.174928 0.441406,0.257813 0.08217,0.04568 0.165043,0.09044 0.248047,0.134765 0.151536,0.08093 0.304738,0.160012 0.458985,0.236328 0.09488,0.04694 0.191227,0.09156 0.287109,0.136719 0.139637,0.06579 0.280177,0.129434 0.421875,0.191406 0.09663,0.04225 0.193456,0.08455 0.291016,0.125 0.142926,0.05927 0.286768,0.116517 0.43164,0.171875 0.105511,0.04031 0.211846,0.07898 0.31836,0.117188 0.154012,0.05525 0.3088,0.107426 0.464843,0.158203 0.09434,0.03069 0.188148,0.06081 0.283204,0.08984 0.168065,0.05135 0.337571,0.10038 0.507812,0.146484 0.08255,0.02235 0.165001,0.04531 0.248047,0.06641 0.168229,0.04275 0.337617,0.08158 0.507812,0.119141 0.104617,0.02308 0.209121,0.04727 0.314454,0.06836 0.152015,0.03044 0.305531,0.05774 0.458984,0.08398 0.111876,0.01913 0.223324,0.03977 0.335937,0.05664 0.210671,0.03157 0.423594,0.05654 0.636719,0.08008 0.05022,0.0055 0.100037,0.01248 0.150391,0.01758 0.189407,0.01917 0.381075,0.0322 0.572265,0.04492 0.09786,0.0065 0.194663,0.01669 0.292969,0.02148 0.0045,2.21e-4 0.0091,-2.18e-4 0.01367,0 0.266753,0.01279 0.534858,0.01953 0.804688,0.01953 0.297322,0 0.596938,-0.0078 0.896484,-0.02148 0.290604,-0.01323 0.581431,-0.03265 0.873047,-0.05859 0.0091,-9e-4 0.01824,-0.0011 0.02734,-0.002 0.286407,-0.02586 0.573069,-0.0577 0.859375,-0.0957 0.0143,-0.0019 0.02867,-0.004 0.04297,-0.0059 0.28167,-0.03798 0.563221,-0.08125 0.84375,-0.130859 0.0072,-0.0013 0.01429,-0.0026 0.02148,-0.0039 0.0026,-4.7e-4 0.0052,-0.0015 0.0078,-0.002 0.156138,-0.02801 0.311231,-0.06233 0.466797,-0.09375 0.138661,-0.02805 0.277965,-0.05311 0.416016,-0.08398 0.202351,-0.04519 0.402925,-0.09678 0.603515,-0.148437 0.01561,-0.004 0.03128,-0.0077 0.04687,-0.01172 0.06299,-0.01623 0.126654,-0.03005 0.189453,-0.04687 0.0046,-0.0012 0.0091,-0.0027 0.01367,-0.0039 0.18345,-0.04928 0.365174,-0.103811 0.546875,-0.158203 0.06489,-0.0194 0.130676,-0.0366 0.195313,-0.05664 0.03437,-0.01066 0.06923,-0.02041 0.103515,-0.03125 0.0034,-0.0011 0.0065,-0.0028 0.0098,-0.0039 0.281351,-0.08907 0.558322,-0.184017 0.833984,-0.285156 0.240503,-0.08824 0.477511,-0.183911 0.712891,-0.28125 0.01671,-0.0069 0.03374,-0.01322 0.05078,-0.01953 0.01991,-0.0083 0.04068,-0.01507 0.06055,-0.02344 0.0067,-0.0029 0.01283,-0.007 0.01953,-0.0098 0.264625,-0.111786 0.526282,-0.228314 0.783204,-0.351562 0.263451,-0.126381 0.521166,-0.260136 0.77539,-0.398438 0.254294,-0.138339 0.504128,-0.281506 0.748047,-0.43164 0.487537,-0.300088 0.951387,-0.624276 1.390625,-0.970704 0.216416,-0.170687 0.42587,-0.34755 0.628906,-0.529296 0.002,-0.0018 0.0037,-0.0042 0.0059,-0.0059 10e-4,-9.37e-4 0.0029,-10e-4 0.0039,-0.002 l 0.002,-0.002 c 0.189573,-0.170103 0.371891,-0.345729 0.548828,-0.525391 6.45e-4,-6.54e-4 0.0013,-0.0013 0.002,-0.002 0.01387,-0.01409 0.02918,-0.02687 0.04297,-0.04102 0.04872,-0.04999 0.100733,-0.09772 0.148438,-0.148438 -3.269634,2.765879 -8.658988,3.642086 -11.203125,3.642578 -7.948072,0 -14.44336,-5.974506 -14.44336,-14.003906 0,-2.718183 0.711827,-5.04958 1.984375,-7.003906 -0.780107,-0.308552 -1.609371,-0.486422 -2.433594,-0.615235 -0.305403,-0.04773 -0.662266,-0.09066 -1.011718,-0.08984 z"
     style="mix-blend-mode:normal;fill:none;stroke:#000000;stroke-width:0.2;stroke-dasharray:none;filter:url(#filter16)"
     id="path13"
     transform="matrix(1.2675137,0,0,1.2675137,-8.5613853,-8.5563731)" />
  <path
     d="m 31.603516,9.8144531 c -12.025451,0 -21.7734379,9.8475999 -21.7734379,21.9960939 0,12.148499 9.7926909,22.332638 21.7734379,22.333984 7.816217,0.234694 15.067066,-3.441523 17.457031,-9.43164 -0.69511,0.324051 -1.414293,0.98576 -2.058594,1.578125 -0.01443,0.0148 -0.03041,0.02823 -0.04492,0.04297 -0.176937,0.179662 -0.359255,0.355287 -0.548828,0.525391 l -0.002,0.002 c -0.0031,0.0028 -0.0067,0.005 -0.0098,0.0078 -0.203036,0.181746 -0.412489,0.358609 -0.628906,0.529296 -0.439238,0.346429 -0.903088,0.670615 -1.390625,0.970704 -0.243919,0.150134 -0.493752,0.293301 -0.748047,0.43164 -0.254224,0.138302 -0.511939,0.272057 -0.77539,0.398438 -0.256922,0.123249 -0.518579,0.239775 -0.783204,0.351562 -0.0067,0.0028 -0.01281,0.0069 -0.01953,0.0098 -0.03652,0.01538 -0.07467,0.02781 -0.111328,0.04297 -0.23538,0.09734 -0.472388,0.193009 -0.712891,0.28125 -0.275662,0.101139 -0.552632,0.196084 -0.833984,0.285156 -0.0033,0.0011 -0.0064,0.0028 -0.0098,0.0039 -0.03429,0.01084 -0.06915,0.02059 -0.103515,0.03125 -0.245564,0.07614 -0.493208,0.147954 -0.742188,0.214844 -0.0046,0.0012 -0.0091,0.0027 -0.01367,0.0039 -0.0628,0.01682 -0.126464,0.03064 -0.189453,0.04687 -0.216183,0.05571 -0.432308,0.111449 -0.65039,0.160156 -0.138051,0.03088 -0.277355,0.05593 -0.416016,0.08398 -0.158195,0.03195 -0.315794,0.06745 -0.474609,0.0957 -0.0072,0.0013 -0.01432,0.0026 -0.02148,0.0039 -0.280528,0.04961 -0.56208,0.09288 -0.84375,0.130859 -0.0143,0.0019 -0.02867,0.004 -0.04297,0.0059 -0.286306,0.038 -0.572968,0.06984 -0.859375,0.0957 -0.0091,8.22e-4 -0.01826,0.0011 -0.02734,0.002 -0.291617,0.02594 -0.582443,0.04536 -0.873047,0.05859 -0.299546,0.01366 -0.599162,0.02148 -0.896484,0.02148 -4.31728,0 -8.259532,-1.656097 -11.226563,-4.375 -0.197802,-0.181259 -0.391129,-0.368071 -0.580078,-0.558594 -3.023203,-3.048363 -4.891337,-7.259929 -4.873047,-11.912109 0.0039,-0.997988 0.09351,-1.946834 0.259766,-2.849609 0.08313,-0.451388 0.187009,-0.892127 0.30664,-1.320313 0.119632,-0.428185 0.256737,-0.844614 0.410157,-1.25 0.03144,-0.08307 0.07084,-0.160122 0.103515,-0.242187 -1.94e-4,0.004 2.05e-4,0.0117 0,0.01563 0.431495,-0.70171 1.611372,-0.601888 2.425781,-0.47461 1.9203,0.300113 3.889945,0.816514 5.121094,2.814453 0.10377,0.151116 0.17734,0.32582 0.292969,0.46875 0.569318,0.703751 1.184823,0.883331 1.804687,0.91211 1.324574,0.03896 1.950757,-0.95957 2.009766,-2.302735 0.0017,-0.105361 -5.03e-4,-0.05424 -0.0078,-0.146484 -0.04377,-0.935274 -1.464451,-4.503493 -3.808594,-4.613281 -0.02613,-8.55e-4 -0.05222,-2.47e-4 -0.07813,-0.002 -1.300309,-0.08026 -2.311318,-1.199614 -2.273438,-2.535157 0.129182,-0.856176 0.522599,-1.535754 1.291016,-2.08789 1.07186,-0.714439 2.183659,-1.341161 3.298828,-1.865235 4.375646,-1.88729 6.831996,-2.380603 11.048828,-2.402343 0.255946,-0.0026 0.508224,0.0045 0.751953,0.01953 2.599769,0.160145 3.899713,0.575476 4.771485,1.103516 0.217943,0.132008 0.409824,0.272239 0.58789,0.416015 0.03101,0.02504 0.05761,0.05281 0.08789,0.07813 0.285426,-0.241043 0.65165,-0.386694 1.052734,-0.386719 0.908524,-0.001 1.645772,0.742337 1.646485,1.660157 1.03e-4,0.267298 -0.06487,0.518443 -0.175782,0.742187 0.022,0.01721 0.05873,0.04176 0.08008,0.05859 0.862107,0.679644 1.207067,1.054322 2.158203,1.390625 0.63409,0.224202 1.062412,0.398728 1.371093,0.494141 0.154341,0.04771 0.278918,0.07633 0.384766,0.08008 0.105848,0.0038 0.192224,-0.01641 0.271484,-0.06445 0.158523,-0.09609 0.332112,-0.239844 0.466797,-0.359375 0.108684,-0.09646 0.157415,-0.146271 0.185547,-0.173829 -0.09486,0.04561 -0.197042,0.07242 -0.304687,0.07227 -0.470743,-6.84e-4 -0.851957,-0.480699 -0.851563,-1.072266 4.63e-4,-0.590804 0.381427,-1.069629 0.851563,-1.070312 0.03629,-5.2e-5 0.07232,0.0043 0.107422,0.0098 0.04027,-0.876467 0.05468,-2.502703 -0.34961,-3.296875 -0.564946,-1.109742 -0.971886,-1.586534 -3.859375,-3.171875 -2.887485,-1.585346 -5.46289,-0.697266 -5.46289,-0.697266 0,0 -0.563229,-0.475896 -0.845704,-0.792969 -0.28247,-0.317065 -0.535211,-0.602022 -0.974609,-0.570312 -0.336703,0.0243 -0.68637,0.709872 -0.833984,1.033203 -2.812007,-1.33909 -5.95246,-2.0899609 -9.267482,-2.0899609 z M 53.451172,21.431641 c -0.0013,7.39e-4 -0.0026,0.0012 -0.0039,0.002 0.0034,0.0076 0.0057,0.01561 0.0098,0.02344 z"
     style="mix-blend-mode:normal;fill:none;stroke:#000000;stroke-width:0.2;stroke-dasharray:none;filter:url(#filter17)"
     id="path12"
     transform="matrix(1.2675137,0,0,1.2675137,-8.5613853,-8.5563731)" />
  <path
     d="m 47.005859,17.632812 a 1.6446326,1.6614606 0 0 0 -1.644531,1.660157 1.6446326,1.6614606 0 0 0 1.644531,1.662109 1.6446326,1.6614606 0 0 0 1.646485,-1.662109 1.6446326,1.6614606 0 0 0 -1.646485,-1.660157 z m 6.083985,1.757813 a 0.8525486,1.0713688 0 0 0 -0.851563,1.070312 0.8525486,1.0713688 0 0 0 0.851563,1.072266 0.8525486,1.0713688 0 0 0 0.853515,-1.072266 0.8525486,1.0713688 0 0 0 -0.853515,-1.070312 z m -0.431641,2.644531 c 0,0 -0.213371,0.37427 -0.673828,0.597656 -0.18907,0.09173 -0.522346,-0.138207 -0.833984,0.181641 -0.661713,1.341824 0.955717,2.461396 1.708984,2.429688 0.753264,-0.03171 1.347788,-0.798993 1.316406,-1.464844 -0.03139,-1.030481 -1.517578,-1.744141 -1.517578,-1.744141 z"
     style="mix-blend-mode:normal;fill:none;stroke:#000000;stroke-width:0.2;stroke-dasharray:none;filter:url(#filter18)"
     id="path11"
     transform="matrix(1.2675137,0,0,1.2675137,-8.5613853,-8.5563731)" />
</svg>
