<?xml version="1.0" encoding="UTF-8" standalone="no"?>
<svg
   width="64"
   height="64"
   version="1"
   id="svg6"
   sodipodi:docname="org.midori_browser.Midori.svg"
   inkscape:version="1.4 (e7c3feb100, 2024-10-09)"
   xmlns:inkscape="http://www.inkscape.org/namespaces/inkscape"
   xmlns:sodipodi="http://sodipodi.sourceforge.net/DTD/sodipodi-0.dtd"
   xmlns:xlink="http://www.w3.org/1999/xlink"
   xmlns="http://www.w3.org/2000/svg"
   xmlns:svg="http://www.w3.org/2000/svg">
  <defs
     id="defs6">
    <filter
       inkscape:collect="always"
       style="color-interpolation-filters:sRGB"
       id="filter6"
       x="-0.42167797"
       y="-0.31237748"
       width="1.8433877"
       height="1.6247328">
      <feGaussianBlur
         inkscape:collect="always"
         stdDeviation="3.0509026"
         id="feGaussianBlur6" />
    </filter>
    <radialGradient
       inkscape:collect="always"
       xlink:href="#linearGradient1"
       id="radialGradient2"
       cx="19.208988"
       cy="44.441853"
       fx="19.208988"
       fy="44.441853"
       r="10.000001"
       gradientTransform="matrix(-3.4526505,3.4526505,-2.6738256,-2.6738257,210.07513,87.526885)"
       gradientUnits="userSpaceOnUse" />
    <linearGradient
       id="linearGradient1"
       inkscape:collect="always">
      <stop
         style="stop-color:#ffffff;stop-opacity:1;"
         offset="0"
         id="stop1" />
      <stop
         style="stop-color:#b9b9b9;stop-opacity:1;"
         offset="1"
         id="stop2" />
    </linearGradient>
    <filter
       inkscape:collect="always"
       style="color-interpolation-filters:sRGB"
       id="filter5"
       x="-0.15061062"
       y="-0.15061062"
       width="1.3012212"
       height="1.3012212">
      <feGaussianBlur
         inkscape:collect="always"
         stdDeviation="3.0509026"
         id="feGaussianBlur5" />
    </filter>
    <inkscape:path-effect
       effect="fillet_chamfer"
       id="path-effect8"
       is_visible="true"
       lpeversion="1"
       nodesatellites_param="F,0,0,1,0,0,0,1 @ F,0,0,1,0,0,0,1 @ F,0,0,1,0,0,0,1 @ F,0,0,1,0,0,0,1 @ F,0,0,1,0,0,0,1 | F,0,0,1,0,0,0,1 @ F,0,0,1,0,0,0,1 | F,0,0,1,0,0,0,1 @ F,0,0,1,0,0,0,1 @ F,0,0,1,0,0,0,1 @ F,0,0,1,0,0,0,1 @ F,0,0,1,0,0,0,1 | F,0,0,1,0,0,0,1 @ F,0,0,1,0,0,0,1 @ F,0,0,1,0,0,0,1 @ F,0,0,1,0,0,0,1 @ F,0,0,1,0,0,0,1 @ F,0,0,1,0,0,0,1 @ F,0,0,1,0,0,0,1 @ F,0,0,1,0,0,0,1 @ F,0,0,1,0,0,0,1 @ F,0,0,1,0,0,0,1 @ F,0,0,1,0,0,0,1 @ F,0,0,1,0,0,0,1 @ F,0,0,1,0,0,0,1 @ F,0,0,1,0,0,0,1 @ F,0,0,1,0,3.3647819,0,1 @ F,0,0,1,0,1.6692262,0,1 @ F,0,0,1,0,0,0,1 @ F,0,0,1,0,0,0,1 @ F,0,0,1,0,0,0,1 @ F,0,0,1,0,0,0,1 @ F,0,0,1,0,0,0,1 @ F,0,0,1,0,0,0,1 @ F,0,0,1,0,0,0,1 @ F,0,0,1,0,0,0,1 @ F,0,0,1,0,0,0,1 @ F,0,0,1,0,0,0,1 @ F,0,0,1,0,0,0,1 | F,0,0,1,0,0,0,1 @ F,0,0,1,0,0,0,1 @ F,0,0,1,0,0,0,1 @ F,0,0,1,0,0,0,1 @ F,0,0,1,0,0,0,1 @ F,0,0,1,0,0,0,1 @ F,0,0,1,0,0,0,1 @ F,0,0,1,0,0,0,1 @ F,0,0,1,0,0,0,1 @ F,0,0,1,0,0,0,1 @ F,0,0,1,0,0,0,1 @ F,0,0,1,0,0,0,1 @ F,0,0,1,0,0,0,1 @ F,0,0,1,0,0,0,1 @ F,0,0,1,0,0,0,1 @ F,0,0,1,0,0,0,1 @ F,0,0,1,0,0,0,1 @ F,0,0,1,0,0,0,1 @ F,0,0,1,0,0,0,1 @ F,0,0,1,0,0,0,1 @ F,0,0,1,0,0,0,1 @ F,0,0,1,0,0,0,1 | F,0,0,1,0,0,0,1 @ F,0,0,1,0,0,0,1 | F,0,0,1,0,0,0,1 @ F,0,0,1,0,0,0,1 @ F,0,0,1,0,0,0,1 | F,0,0,1,0,0,0,1 @ F,0,0,1,0,0,0,1 |  |  | F,0,0,1,0,0,0,1 @ F,0,0,1,0,0,0,1 @ F,0,0,1,0,0,0,1"
       radius="0"
       unit="px"
       method="auto"
       mode="F"
       chamfer_steps="1"
       flexible="false"
       use_knot_distance="true"
       apply_no_radius="true"
       apply_with_radius="true"
       only_selected="false"
       hide_knots="false" />
    <radialGradient
       inkscape:collect="always"
       xlink:href="#linearGradient7"
       id="radialGradient8"
       cx="4.2663589"
       cy="64.160767"
       fx="4.2663589"
       fy="64.160767"
       r="28"
       gradientUnits="userSpaceOnUse"
       gradientTransform="matrix(2.1850582,-2.1850582,2.1850582,2.1850582,-127.12723,-63.19218)" />
    <linearGradient
       id="linearGradient7"
       inkscape:collect="always">
      <stop
         style="stop-color:#0ff49f;stop-opacity:1;"
         offset="0"
         id="stop7" />
      <stop
         style="stop-color:#008aff;stop-opacity:1;"
         offset="1"
         id="stop8" />
    </linearGradient>
  </defs>
  <sodipodi:namedview
     id="namedview6"
     pagecolor="#505050"
     bordercolor="#eeeeee"
     borderopacity="1"
     inkscape:showpageshadow="0"
     inkscape:pageopacity="0"
     inkscape:pagecheckerboard="0"
     inkscape:deskcolor="#505050"
     inkscape:zoom="18.921875"
     inkscape:cx="32"
     inkscape:cy="32"
     inkscape:current-layer="svg6" />
  <g
     id="g1">
    <path
       id="rect2"
       style="fill:url(#radialGradient8);stroke-width:0.880009"
       d="m 31.999925,7.3597515 c 13.650698,0 24.640249,10.9895505 24.640249,24.6402485 0,13.650698 -10.989551,24.640249 -24.640249,24.640249 C 18.349227,56.640249 7.3596766,45.650698 7.3596766,32 7.3596766,18.349302 18.349227,7.3597515 31.999925,7.3597515 Z" />
    <path
       style="opacity:0.3;stroke-width:1;enable-background:new"
       d="m 24.103516,5 c -1.520959,0.3770258 -5.210952,0.075231 -5.049646,1.9006038 1.153836,0.6930993 1.047354,2.0811583 0.157619,2.4597045 0.41832,1.8085137 2.26834,1.4253777 2.975412,0.059332 C 23.703479,8.9314972 27.350047,7.1250161 25.227154,5.4112939 24.854203,5.2713257 24.443781,5.2197205 24.103516,5 Z M 18.619141,5.1757812 C 17.814439,5.534265 15.58088,5.6469815 15.801197,6.6894928 16.718423,6.3474264 18.701055,6.6052684 18.619141,5.1757812 Z m -4.560547,2.0976563 c 0.207333,0.7953817 -1.715719,3.5594165 0.01813,1.8952538 1.089317,-1.7873475 3.258979,1.1806607 3.720069,-0.2665565 -0.779496,-1.2870201 -2.69954,-1.6760114 -3.664987,-1.1999275 l -0.04425,-0.1761406 z m 19.792968,0.6992187 c -1.591855,0.074453 -4.11031,2.0763478 -3.442563,3.3958808 1.582768,0.951507 2.316853,0.163727 2.445847,-1.4378684 0.454732,-1.2189537 1.118747,-0.6712481 0.705012,0.3617374 1.618552,0.977151 -0.997995,2.869117 -2.249377,2.267888 -0.561349,-0.658771 -1.053996,1.361418 -2.137413,1.393264 -1.073004,0.760692 -0.602306,1.964328 -2.072233,2.525918 -0.942871,1.839194 2.058272,2.074932 2.408848,0.304769 1.001191,-1.793424 2.473762,-0.408319 3.193336,0.701841 0.416173,-0.839602 -0.276945,-2.159637 0.673719,-0.630734 0.499249,0.869909 0.793568,1.064636 1.281096,0.263714 0.838081,0.53825 2.460819,1.187721 2.691447,1.734276 -0.870312,1.544261 -3.394606,0.245484 -4.552796,0.558106 -1.470886,-1.620097 -4.163669,-1.626984 -5.584205,0.05992 -1.491429,1.453091 -2.593953,3.452354 -2.444723,5.530729 0.14923,2.078375 2.243487,4.403523 4.627967,3.032897 2.543161,-0.33292 2.196673,2.31213 2.814096,3.888695 0.298854,2.136866 -0.728957,4.29473 0.392025,6.3543 0.519141,1.298272 -0.04183,3.547493 2.019484,2.398912 2.170327,-0.697822 3.034242,-2.81338 3.303745,-4.660703 2.404483,-1.245821 0.334374,-3.764844 1.648817,-5.565963 0.482277,-1.219432 3.232124,-3.711035 1.291494,-4.464067 -0.325341,-0.255653 4.044923,-3.097003 1.361609,-3.714221 -1.3198,0.245592 -1.652501,-2.735257 -0.146947,-1.195936 0.742332,0.665123 1.817271,0.877653 1.62009,-0.598838 C 42.901651,16.081872 40.616399,11.951096 37.240234,9.0136719 37.343075,10.830808 34.17234,9.2050305 36.38571,8.7697771 35.691676,8.2490636 34.624816,8.3898949 33.851562,7.9726562 Z M 12.005859,8.0019532 C 11.111151,9.8617691 9.1073361,10.512473 7.8050313,12.256642 5.3814983,15.651767 3.9582896,19.796291 4,23.982422 c 1.6498974,1.700852 4.1715082,2.135576 5.9380513,3.678947 0.8428277,1.826188 -2.0674158,3.887793 -0.1189975,5.747834 1.6698472,1.686759 2.5262662,3.765073 2.7589092,6.094099 0.416647,2.463432 3.904323,3.083577 4.80121,0.600385 0.223618,-1.721093 0.908018,-2.981873 2.412398,-3.91095 -0.08344,-1.589184 0.762934,-2.980256 1.102626,-4.496792 C 19.091302,30.34882 16.610591,29.568326 15.144612,27.548472 13.468929,26.867583 11.840219,26.054089 10.151985,26.821318 8.4708451,26.989269 9.0545756,24.949107 7.9663212,24.737035 8.1283211,23.676819 7.9111859,22.6362 6.8259797,23.78113 4.6531615,24.167597 5.7639655,20.496287 7.4622881,20.559218 c 1.122847,-1.214926 2.7902719,1.761625 2.5900369,-0.243485 1.071837,-1.39536 2.022011,-3.162036 3.786565,-3.656924 0.897796,-0.263758 3.008712,-1.781408 0.869927,-1.673838 -0.81747,-0.656386 3.201934,-0.341941 2.633525,-2.080126 -0.617061,-0.746532 -0.712819,-1.694751 -1.855547,-1.860651 -1.047389,-1.7992223 -1.925877,1.244108 -2.648222,1.748479 C 12.187114,13.7923 11.81316,12.268885 10.971043,12.080788 9.7811844,10.12073 14.135678,10.412738 13.081466,8.2097525 12.795572,7.9449882 12.363357,7.9719988 12.005859,8.0019532 Z M 26.691606,8.9116406 C 25.208181,8.5294778 24.850529,10.570803 26.474758,9.7773472 26.931062,9.6790297 27.33929,9.156311 26.691606,8.9116406 Z M 15.990234,9.2851563 c -1.371667,1.0758107 2.135085,0.6964651 0.100929,0.01965 l -1.11e-4,-2.15e-5 z m 12.208985,2.0117187 c 0.156544,0.887555 0.380191,3.859398 1.373237,1.786151 -0.103716,-0.787614 -0.749278,-1.367893 -1.373237,-1.786151 z m -0.306641,1.048828 c -1.864859,0.62595 1.308894,1.597817 0,0 z m -10.664062,1.576172 c -0.305377,1.533971 1.404564,0.849159 0,0 z m 20.177734,6.818359 c 1.059072,1.458645 2.878475,3.594376 2.200115,5.316492 -0.878149,-1.432735 -1.660629,-3.022831 -2.426867,-4.543752 -0.05368,-0.276634 0.03016,-0.573867 0.226752,-0.77274 z"
       id="path2"
       inkscape:path-effect="#path-effect8"
       inkscape:original-d="m 24.103516,5 c -1.520959,0.3770258 -5.210952,0.075231 -5.049646,1.9006038 1.153836,0.6930993 1.047354,2.0811583 0.157619,2.4597045 0.41832,1.8085137 2.26834,1.4253777 2.975412,0.059332 C 23.703479,8.9314972 27.350047,7.1250161 25.227154,5.4112939 24.854203,5.2713257 24.443781,5.2197205 24.103516,5 Z M 18.619141,5.1757812 C 17.814439,5.534265 15.58088,5.6469815 15.801197,6.6894928 16.718423,6.3474264 18.701055,6.6052684 18.619141,5.1757812 Z m -4.560547,2.0976563 c 0.207333,0.7953817 -1.715719,3.5594165 0.01813,1.8952538 1.089317,-1.7873475 3.258979,1.1806607 3.720069,-0.2665565 -0.779496,-1.2870201 -2.69954,-1.6760114 -3.664987,-1.1999275 l -0.04425,-0.1761406 z m 19.792968,0.6992187 c -1.591855,0.074453 -4.11031,2.0763478 -3.442563,3.3958808 1.582768,0.951507 2.316853,0.163727 2.445847,-1.4378684 0.454732,-1.2189537 1.118747,-0.6712481 0.705012,0.3617374 1.618552,0.977151 -0.997995,2.869117 -2.249377,2.267888 -0.561349,-0.658771 -1.053996,1.361418 -2.137413,1.393264 -1.073004,0.760692 -0.602306,1.964328 -2.072233,2.525918 -0.942871,1.839194 2.058272,2.074932 2.408848,0.304769 1.001191,-1.793424 2.473762,-0.408319 3.193336,0.701841 0.416173,-0.839602 -0.276945,-2.159637 0.673719,-0.630734 0.499249,0.869909 0.793568,1.064636 1.281096,0.263714 0.838081,0.53825 2.460819,1.187721 2.691447,1.734276 -0.870312,1.544261 -3.394606,0.245484 -4.552796,0.558106 -1.470886,-1.620097 -4.163669,-1.626984 -5.584205,0.05992 -1.491429,1.453091 -2.593953,3.452354 -2.444723,5.530729 0.14923,2.078375 2.243487,4.403523 4.627967,3.032897 2.543161,-0.33292 2.196673,2.31213 2.814096,3.888695 0.298854,2.136866 -0.728957,4.29473 0.392025,6.3543 0.519141,1.298272 -0.04183,3.547493 2.019484,2.398912 2.170327,-0.697822 3.034242,-2.81338 3.303745,-4.660703 2.404483,-1.245821 0.334374,-3.764844 1.648817,-5.565963 0.482277,-1.219432 3.232124,-3.711035 1.291494,-4.464067 -0.325341,-0.255653 4.044923,-3.097003 1.361609,-3.714221 -1.3198,0.245592 -1.652501,-2.735257 -0.146947,-1.195936 0.742332,0.665123 1.817271,0.877653 1.62009,-0.598838 C 42.901651,16.081872 40.616399,11.951096 37.240234,9.0136719 37.343075,10.830808 34.17234,9.2050305 36.38571,8.7697771 35.691676,8.2490636 34.624816,8.3898949 33.851562,7.9726562 Z M 12.005859,8.0019532 C 11.111151,9.8617691 9.1073361,10.512473 7.8050313,12.256642 5.3814983,15.651767 3.9582896,19.796291 4,23.982422 c 1.6498974,1.700852 4.1715082,2.135576 5.9380513,3.678947 0.8428277,1.826188 -2.0674158,3.887793 -0.1189975,5.747834 1.6698472,1.686759 2.5262662,3.765073 2.7589092,6.094099 0.416647,2.463432 3.904323,3.083577 4.80121,0.600385 0.223618,-1.721093 0.908018,-2.981873 2.412398,-3.91095 -0.08344,-1.589184 0.762934,-2.980256 1.102626,-4.496792 C 19.091302,30.34882 16.610591,29.568326 15.144612,27.548472 13.468929,26.867583 11.840219,26.054089 10.151985,26.821318 8.4708451,26.989269 9.0545756,24.949107 7.9663212,24.737035 8.1283211,23.676819 7.9111859,22.6362 6.8259797,23.78113 4.6531615,24.167597 5.7639655,20.496287 7.4622881,20.559218 c 1.122847,-1.214926 2.7902719,1.761625 2.5900369,-0.243485 1.071837,-1.39536 2.022011,-3.162036 3.786565,-3.656924 0.897796,-0.263758 3.008712,-1.781408 0.869927,-1.673838 -0.81747,-0.656386 3.201934,-0.341941 2.633525,-2.080126 -0.617061,-0.746532 -0.712819,-1.694751 -1.855547,-1.860651 -1.047389,-1.7992223 -1.925877,1.244108 -2.648222,1.748479 C 12.187114,13.7923 11.81316,12.268885 10.971043,12.080788 9.7811844,10.12073 14.135678,10.412738 13.081466,8.2097525 12.795572,7.9449882 12.363357,7.9719988 12.005859,8.0019532 Z M 26.691606,8.9116406 C 25.208181,8.5294778 24.850529,10.570803 26.474758,9.7773472 26.931062,9.6790297 27.33929,9.156311 26.691606,8.9116406 Z M 15.990234,9.2851563 c -1.371667,1.0758107 2.135085,0.6964651 0.100929,0.01965 l -1.11e-4,-2.15e-5 z m 12.208985,2.0117187 c 0.156544,0.887555 0.380191,3.859398 1.373237,1.786151 -0.103716,-0.787614 -0.749278,-1.367893 -1.373237,-1.786151 z m -0.306641,1.048828 c -1.864859,0.62595 1.308894,1.597817 0,0 z m -10.664062,1.576172 c -0.305377,1.533971 1.404564,0.849159 0,0 z m 20.177734,6.818359 c 1.059072,1.458645 2.878475,3.594376 2.200115,5.316492 -0.878149,-1.432735 -1.660629,-3.022831 -2.426867,-4.543752 -0.05368,-0.276634 0.03016,-0.573867 0.226752,-0.77274 z"
       transform="matrix(1.2320124,0,0,1.2320124,2.4316272,2.4317028)"
       sodipodi:nodetypes="ccccccccccccccccccccccccccccczcccccccccccccccccccccccccccccccccccccccccccccccccccccc" />
    <path
       id="rect2-6"
       style="fill:none;stroke:#000000;stroke-width:0.2;stroke-dasharray:none;stroke-opacity:1;filter:url(#filter5)"
       d="m 31.999999,7.3597511 c 13.650698,0 24.640249,10.9895509 24.640249,24.6402489 0,13.650698 -10.989551,24.640249 -24.640249,24.640249 C 18.349301,56.640249 7.3597512,45.650698 7.3597512,32 7.3597512,18.349302 18.349301,7.3597511 31.999999,7.3597511 Z" />
    <path
       style="fill:url(#radialGradient2);stroke-width:0.880009"
       d="m 24.79648,31.974233 c -0.241406,0.0056 -0.472884,0.09482 -0.65303,0.251561 L 8.5811846,44.535747 c -0.6459594,0.561215 -0.3238261,1.602375 0.5327358,1.721845 l 6.0343976,0.84749 -2.828163,4.872462 c -0.632013,1.08903 -0.257522,2.473016 0.837156,3.101766 l 0.606386,0.349254 c 1.094677,0.628753 2.48584,0.256195 3.117852,-0.832835 l 2.936185,-5.060521 4.303619,3.47056 c 0.662543,0.536138 1.66612,0.07738 1.666948,-0.76201 l 0.05156,-19.275493 c 0.0016,-0.558715 -0.470413,-1.008404 -1.04338,-0.994032 z"
       id="path4" />
    <path
       style="fill:none;stroke:#000000;stroke-width:0.2;stroke-dasharray:none;stroke-opacity:1;filter:url(#filter6)"
       d="m 24.796554,31.974233 c -0.241406,0.0056 -0.472884,0.09482 -0.65303,0.251561 L 8.5812592,44.535747 c -0.645959,0.561215 -0.323826,1.602375 0.532736,1.721845 l 6.0343968,0.84749 -2.828163,4.872462 c -0.632013,1.08903 -0.257522,2.473016 0.837156,3.101766 l 0.606386,0.349254 c 1.094677,0.628753 2.48584,0.256195 3.117852,-0.832835 l 2.936185,-5.060521 4.303619,3.47056 c 0.662543,0.536138 1.66612,0.07738 1.666948,-0.76201 l 0.05156,-19.275493 c 0.0016,-0.558715 -0.470413,-1.008404 -1.04338,-0.994032 z"
       id="path4-2" />
  </g>
</svg>
