<?xml version="1.0" encoding="UTF-8" standalone="no"?>
<svg
   width="64"
   height="64"
   version="1"
   id="svg6"
   sodipodi:docname="nextcloud.svg"
   inkscape:version="1.4 (e7c3feb100, 2024-10-09)"
   xmlns:inkscape="http://www.inkscape.org/namespaces/inkscape"
   xmlns:sodipodi="http://sodipodi.sourceforge.net/DTD/sodipodi-0.dtd"
   xmlns:xlink="http://www.w3.org/1999/xlink"
   xmlns="http://www.w3.org/2000/svg"
   xmlns:svg="http://www.w3.org/2000/svg">
  <defs
     id="defs6">
    <linearGradient
       id="linearGradient6"
       inkscape:collect="always">
      <stop
         style="stop-color:#0099ff;stop-opacity:1;"
         offset="0"
         id="stop6" />
      <stop
         style="stop-color:#00d0ff;stop-opacity:1;"
         offset="1"
         id="stop7" />
    </linearGradient>
    <linearGradient
       inkscape:collect="always"
       xlink:href="#linearGradient6"
       id="linearGradient7"
       x1="0.27133253"
       y1="63.660778"
       x2="63.841743"
       y2="0.50883394"
       gradientUnits="userSpaceOnUse" />
    <filter
       inkscape:collect="always"
       style="color-interpolation-filters:sRGB"
       id="filter7"
       x="-0.04797879"
       y="-0.104681"
       width="1.0959576"
       height="1.209362">
      <feGaussianBlur
         inkscape:collect="always"
         stdDeviation="0.93874248"
         id="feGaussianBlur7" />
    </filter>
  </defs>
  <sodipodi:namedview
     id="namedview6"
     pagecolor="#ffffff"
     bordercolor="#000000"
     borderopacity="0.25"
     inkscape:showpageshadow="2"
     inkscape:pageopacity="0.0"
     inkscape:pagecheckerboard="0"
     inkscape:deskcolor="#d1d1d1"
     inkscape:zoom="17.6875"
     inkscape:cx="35.420495"
     inkscape:cy="35.90106"
     inkscape:current-layer="svg6" />
  <path
     id="path6"
     style="opacity:1;fill:url(#linearGradient7);fill-opacity:1;stroke:none;stroke-width:0.2"
     d="M 32 17.074219 A 14.925795 14.925795 0 0 0 20.248047 22.857422 A 10.545249 10.545249 0 0 0 15 21.455078 A 10.545249 10.545249 0 0 0 4.4550781 32 A 10.545249 10.545249 0 0 0 15 42.544922 A 10.545249 10.545249 0 0 0 20.234375 41.125 A 14.925795 14.925795 0 0 0 32 46.925781 A 14.925795 14.925795 0 0 0 43.765625 41.125 A 10.545249 10.545249 0 0 0 49 42.544922 A 10.545249 10.545249 0 0 0 59.544922 32 A 10.545249 10.545249 0 0 0 49 21.455078 A 10.545249 10.545249 0 0 0 43.792969 22.859375 A 14.925795 14.925795 0 0 0 32 17.074219 z " />
  <path
     id="path3"
     style="fill:#ffffff;fill-opacity:1"
     d="M 32,21 A 11,11 0 0 0 21.390625,29.150391 7,7 0 0 0 15,25 7,7 0 0 0 8,32 7,7 0 0 0 15,39 7,7 0 0 0 21.390625,34.845703 11,11 0 0 0 32,43 11,11 0 0 0 42.609375,34.845703 7,7 0 0 0 49,39 7,7 0 0 0 56,32 7,7 0 0 0 49,25 7,7 0 0 0 42.617188,29.134766 11,11 0 0 0 32,21 Z m 0.125,4 a 7,7 0 0 1 7,7 7,7 0 0 1 -7,7 7,7 0 0 1 -7,-7 7,7 0 0 1 7,-7 z M 15,29 a 3,3 0 0 1 3,3 3,3 0 0 1 -3,3 3,3 0 0 1 -3,-3 3,3 0 0 1 3,-3 z m 34,0 a 3,3 0 0 1 3,3 3,3 0 0 1 -3,3 3,3 0 0 1 -3,-3 3,3 0 0 1 3,-3 z" />
  <path
     id="path3-6"
     style="fill:none;fill-opacity:1;stroke:#002eff;stroke-opacity:1;stroke-width:0.1;stroke-dasharray:none;filter:url(#filter7)"
     d="M 32,21 A 11,11 0 0 0 21.390625,29.150391 7,7 0 0 0 15,25 7,7 0 0 0 8,32 7,7 0 0 0 15,39 7,7 0 0 0 21.390625,34.845703 11,11 0 0 0 32,43 11,11 0 0 0 42.609375,34.845703 7,7 0 0 0 49,39 7,7 0 0 0 56,32 7,7 0 0 0 49,25 7,7 0 0 0 42.617188,29.134766 11,11 0 0 0 32,21 Z m 0.125,4 a 7,7 0 0 1 7,7 7,7 0 0 1 -7,7 7,7 0 0 1 -7,-7 7,7 0 0 1 7,-7 z M 15,29 a 3,3 0 0 1 3,3 3,3 0 0 1 -3,3 3,3 0 0 1 -3,-3 3,3 0 0 1 3,-3 z m 34,0 a 3,3 0 0 1 3,3 3,3 0 0 1 -3,3 3,3 0 0 1 -3,-3 3,3 0 0 1 3,-3 z" />
</svg>
