<?xml version="1.0" encoding="UTF-8" standalone="no"?>
<svg
   width="64"
   height="64"
   version="1"
   id="svg4"
   sodipodi:docname="nvidia-x-server-settings.svg"
   inkscape:version="1.3.2 (091e20ef0f, 2023-11-25, custom)"
   xmlns:inkscape="http://www.inkscape.org/namespaces/inkscape"
   xmlns:sodipodi="http://sodipodi.sourceforge.net/DTD/sodipodi-0.dtd"
   xmlns:xlink="http://www.w3.org/1999/xlink"
   xmlns="http://www.w3.org/2000/svg"
   xmlns:svg="http://www.w3.org/2000/svg">
  <defs
     id="defs4">
    <inkscape:path-effect
       effect="fillet_chamfer"
       id="path-effect2"
       is_visible="true"
       lpeversion="1"
       nodesatellites_param="F,0,0,1,0,0,0,1 @ F,0,0,1,0,0,0,1 @ F,0,0,1,0,0,0,1 @ F,0,0,1,0,0,0,1 @ F,0,0,1,0,0,0,1 @ F,0,0,1,0,0,0,1 @ F,0,0,1,0,0,0,1 | F,0,0,1,0,0,0,1 @ F,0,0,1,0,0,0,1 @ F,0,0,1,0,0,0,1 @ F,0,0,1,0,0,0,1 @ F,0,0,1,0,0,0,1 @ F,0,0,1,0,0,0,1 @ F,0,0,1,0,0,0,1 @ F,0,0,1,0,0,0,1 | F,0,0,1,0,3.968777,0,1 @ F,0,0,1,0,0,0,1 @ F,0,0,1,0,0,0,1 @ F,0,0,1,0,0,0,1 @ F,0,0,1,0,0,0,1 @ F,0,0,1,0,0,0,1 @ F,0,0,1,0,0,0,1 @ F,0,0,1,0,0,0,1 @ F,0,0,1,0,2.8796182,0,1 @ F,0,0,1,0,2.8796182,0,1 @ F,0,0,1,0,0,0,1 @ F,0,0,1,0,0,0,1 @ F,0,0,1,0,3.3759106,0,1 @ F,0,0,1,0,3.3759106,0,1 @ F,0,0,1,0,3.3759106,0,1 | F,0,0,1,0,0,0,1 @ F,0,0,1,0,0,0,1 @ F,0,0,1,0,0,0,1 @ F,0,0,1,0,0,0,1 @ F,0,0,1,0,0,0,1 @ F,0,0,1,0,0,0,1 @ F,0,0,1,0,0,0,1 @ F,0,0,1,0,2.9051656,0,1 @ F,0,1,1,0,2.9051656,0,1 @ F,0,0,1,0,0,0,1 @ F,0,0,1,0,0,0,1"
       radius="0"
       unit="px"
       method="auto"
       mode="F"
       chamfer_steps="1"
       flexible="false"
       use_knot_distance="true"
       apply_no_radius="true"
       apply_with_radius="true"
       only_selected="false"
       hide_knots="false" />
    <inkscape:path-effect
       effect="fillet_chamfer"
       id="path-effect1"
       is_visible="true"
       lpeversion="1"
       nodesatellites_param="F,0,0,1,0,0,0,1 @ F,0,0,1,0,0,0,1 @ F,0,0,1,0,0,0,1 @ F,0,0,1,0,0,0,1 @ F,0,0,1,0,0,0,1 @ F,0,0,1,0,0,0,1 @ F,0,0,1,0,0,0,1 | F,0,0,1,0,0,0,1 @ F,0,0,1,0,0,0,1 @ F,0,0,1,0,0,0,1 @ F,0,0,1,0,0,0,1 @ F,0,0,1,0,0,0,1 @ F,0,0,1,0,0,0,1 @ F,0,0,1,0,0,0,1 @ F,0,0,1,0,0,0,1 | F,0,1,1,0,3.5420508,0,1 @ F,0,0,1,0,0,0,1 @ F,0,0,1,0,0,0,1 @ F,0,0,1,0,0,0,1 @ F,0,0,1,0,0,0,1 @ F,0,0,1,0,0,0,1 @ F,0,0,1,0,0,0,1 @ F,0,0,1,0,0,0,1 @ F,0,0,1,0,0,0,1 @ F,0,0,1,0,0,0,1 @ F,0,0,1,0,0,0,1 @ F,0,0,1,0,0,0,1 @ F,0,0,1,0,3.5420508,0,1 @ F,0,1,1,0,3.5420508,0,1 @ F,0,1,1,0,3.5420508,0,1 @ F,0,1,1,0,3.5420508,0,1 | F,0,0,1,0,0,0,1 @ F,0,0,1,0,0,0,1 @ F,0,0,1,0,0,0,1 @ F,0,0,1,0,0,0,1 @ F,0,0,1,0,0,0,1 @ F,0,0,1,0,0,0,1 @ F,0,0,1,0,0,0,1 @ F,0,0,1,0,0,0,1 @ F,0,0,1,0,0,0,1 @ F,0,0,1,0,0,0,1 @ F,0,0,1,0,0,0,1"
       radius="0"
       unit="px"
       method="auto"
       mode="F"
       chamfer_steps="1"
       flexible="false"
       use_knot_distance="true"
       apply_no_radius="true"
       apply_with_radius="true"
       only_selected="false"
       hide_knots="false" />
    <linearGradient
       id="linearGradient5"
       inkscape:collect="always">
      <stop
         style="stop-color:#4bbb70;stop-opacity:1;"
         offset="0"
         id="stop5" />
      <stop
         style="stop-color:#6cec60;stop-opacity:1;"
         offset="1"
         id="stop6" />
    </linearGradient>
    <radialGradient
       inkscape:collect="always"
       xlink:href="#linearGradient5"
       id="radialGradient6"
       cx="11.235291"
       cy="51.977283"
       fx="11.235291"
       fy="51.977283"
       r="27.000083"
       gradientTransform="matrix(2.3560089,-0.73494309,0.49229092,1.5781383,-39.586905,-27.157218)"
       gradientUnits="userSpaceOnUse" />
    <inkscape:path-effect
       effect="fillet_chamfer"
       id="path-effect2-3"
       is_visible="true"
       lpeversion="1"
       nodesatellites_param="F,0,0,1,0,0,0,1 @ F,0,0,1,0,0,0,1 @ F,0,0,1,0,0,0,1 @ F,0,0,1,0,0,0,1 @ F,0,0,1,0,0,0,1 @ F,0,0,1,0,0,0,1 @ F,0,0,1,0,0,0,1 | F,0,0,1,0,0,0,1 @ F,0,0,1,0,0,0,1 @ F,0,0,1,0,0,0,1 @ F,0,0,1,0,0,0,1 @ F,0,0,1,0,0,0,1 @ F,0,0,1,0,0,0,1 @ F,0,0,1,0,0,0,1 @ F,0,0,1,0,0,0,1 | F,0,0,1,0,3.968777,0,1 @ F,0,0,1,0,0,0,1 @ F,0,0,1,0,0,0,1 @ F,0,0,1,0,0,0,1 @ F,0,0,1,0,0,0,1 @ F,0,0,1,0,0,0,1 @ F,0,0,1,0,0,0,1 @ F,0,0,1,0,0,0,1 @ F,0,0,1,0,2.8796182,0,1 @ F,0,0,1,0,2.8796182,0,1 @ F,0,0,1,0,0,0,1 @ F,0,0,1,0,0,0,1 @ F,0,0,1,0,3.3759106,0,1 @ F,0,0,1,0,3.3759106,0,1 @ F,0,0,1,0,3.3759106,0,1 | F,0,0,1,0,0,0,1 @ F,0,0,1,0,0,0,1 @ F,0,0,1,0,0,0,1 @ F,0,0,1,0,0,0,1 @ F,0,0,1,0,0,0,1 @ F,0,0,1,0,0,0,1 @ F,0,0,1,0,0,0,1 @ F,0,0,1,0,2.9051656,0,1 @ F,0,1,1,0,2.9051656,0,1 @ F,0,0,1,0,0,0,1 @ F,0,0,1,0,0,0,1"
       radius="0"
       unit="px"
       method="auto"
       mode="F"
       chamfer_steps="1"
       flexible="false"
       use_knot_distance="true"
       apply_no_radius="true"
       apply_with_radius="true"
       only_selected="false"
       hide_knots="false" />
    <filter
       inkscape:collect="always"
       style="color-interpolation-filters:sRGB"
       id="filter2"
       x="-0.12517895"
       y="-0.1609468"
       width="1.2503594"
       height="1.3218936">
      <feGaussianBlur
         inkscape:collect="always"
         stdDeviation="2.889782"
         id="feGaussianBlur2" />
    </filter>
    <filter
       inkscape:collect="always"
       style="color-interpolation-filters:sRGB"
       id="filter3"
       x="-0.075943541"
       y="-0.10768254"
       width="1.1513218"
       height="1.2153651">
      <feGaussianBlur
         inkscape:collect="always"
         stdDeviation="1.2502662"
         id="feGaussianBlur3" />
    </filter>
  </defs>
  <sodipodi:namedview
     id="namedview4"
     pagecolor="#ffffff"
     bordercolor="#000000"
     borderopacity="0.25"
     inkscape:showpageshadow="2"
     inkscape:pageopacity="0.0"
     inkscape:pagecheckerboard="0"
     inkscape:deskcolor="#d1d1d1"
     inkscape:zoom="13.127825"
     inkscape:cx="33.32616"
     inkscape:cy="32.221636"
     inkscape:window-width="1920"
     inkscape:window-height="1020"
     inkscape:window-x="0"
     inkscape:window-y="0"
     inkscape:window-maximized="1"
     inkscape:current-layer="svg4" />
  <path
     style="fill:url(#radialGradient6);stroke-width:0.94047"
     d="m 27.154475,12.250196 0.0349,0.01102 c -2.776986,0.05752 -5.418966,1.867067 -6.232431,4.841934 -7.70147,2.588627 -12.4740426,8.060095 -12.4740426,8.060095 -1.72422,1.764144 -2.3176349,4.344116 -1.5374427,6.684296 0,0 3.6022403,11.316954 14.1216963,15.411164 0.898526,2.68011 3.40755,4.487583 6.234266,4.491097 h 23.508003 c 3.635688,-3.64e-4 6.582904,-2.94758 6.583268,-6.583267 V 18.833463 c -3.64e-4,-3.635687 -2.94758,-6.582903 -6.583268,-6.583267 z"
     id="path2" />
  <path
     style="fill:#000000;stroke-width:1.05079;opacity:0.70683846;fill-opacity:1"
     d="m 15.007147,29.171746 c 0,0 3.883245,-5.93127 11.470765,-6.54493 v -2.151801 c -8.404191,0.714031 -15.76491,8.244052 -15.76491,8.244052 0,0 4.205206,12.605657 15.76491,13.759841 V 40.191556 C 17.994702,39.060909 15.006937,29.170905 15.006937,29.170905 Z m 11.470765,6.470744 v 2.094722 c -6.411479,-1.209203 -8.274272,-8.259813 -8.274272,-8.259813 0,0 3.161565,-3.607561 8.274272,-4.192639 v 2.298491 c -0.0032,0 -0.0053,-0.0012 -0.0082,-0.0012 -2.683289,-0.340665 -4.862788,2.31131 -4.862788,2.31131 0,0 1.258128,4.464372 4.872666,5.749064 m 0,-15.167685 c 0.246703,-0.01996 0.410248,-0.03678 0.658296,-0.04573 9.554593,-0.340665 15.780084,8.289866 15.780084,8.289866 0,0 -7.150183,9.197745 -14.59942,9.197745 -0.682717,0 -1.238667,-0.06702 -1.839002,-0.179495 v 2.454428 c 0.513351,0.06885 0.962415,0.109513 1.517819,0.109513 5.911277,0 10.426986,-2.723436 14.638803,-6.274047 1.215839,-1.024966 3.23177,-1.185925 4.603169,-0.382966 1.334463,0.781334 1.361792,2.405828 0.01149,3.242458 -5.271023,3.265851 -13.92021,5.686776 -19.146908,5.686776 -0.58781,0 -1.069134,-0.03762 -1.624033,-0.09423 v 0.07298 a 3.3759106,3.3759106 45 0 0 3.375911,3.375911 h 19.512426 a 3.3759106,3.3759106 135 0 0 3.375911,-3.375911 l 0,-22.670165 a 3.3759106,3.3759106 45 0 0 -3.375911,-3.375911 l -18.919854,0 A 3.968777,3.968777 135 0 0 26.47959,20.47474 Z m 0,4.810081 v -2.65786 c 0.244181,-0.01513 0.407032,-0.03186 0.658296,-0.04035 6.870674,-0.228315 11.378338,6.246086 11.378338,6.246086 0,0 -4.868714,7.153335 -10.088812,7.153335 -0.751271,0 -1.341687,-0.127691 -1.947906,-0.343355 v -8.059113 c 1.69722,0.216953 2.500743,0.799464 3.272175,1.920727 0.909123,1.321394 2.436482,1.641233 3.633799,0.573159 0.777921,-0.693949 0.612364,-2.324199 -0.692999,-3.24713 -1.190811,-0.841939 -2.855442,-1.631621 -4.910378,-1.631621 -0.478402,-1.73e-4 -0.852987,0.03545 -1.302513,0.08608"
     id="path3-3"
     inkscape:path-effect="#path-effect2"
     inkscape:original-d="m 15.007147,29.171746 c 0,0 3.883245,-5.93127 11.470765,-6.54493 v -2.151801 c -8.404191,0.714031 -15.76491,8.244052 -15.76491,8.244052 0,0 4.205206,12.605657 15.76491,13.759841 V 40.191556 C 17.994702,39.060909 15.006937,29.170905 15.006937,29.170905 Z m 11.470765,6.470744 v 2.094722 c -6.411479,-1.209203 -8.274272,-8.259813 -8.274272,-8.259813 0,0 3.161565,-3.607561 8.274272,-4.192639 v 2.298491 c -0.0032,0 -0.0053,-0.0012 -0.0082,-0.0012 -2.683289,-0.340665 -4.862788,2.31131 -4.862788,2.31131 0,0 1.258128,4.464372 4.872666,5.749064 m 0,-19.136462 v 3.968777 c 0.246703,-0.01996 0.410248,-0.03678 0.658296,-0.04573 9.554593,-0.340665 15.780084,8.289866 15.780084,8.289866 0,0 -7.150183,9.197745 -14.59942,9.197745 -0.682717,0 -1.238667,-0.06702 -1.839002,-0.179495 v 2.454428 c 0.513351,0.06885 0.962415,0.109513 1.517819,0.109513 6.932039,0 11.944922,-3.745214 16.799136,-8.177642 0.804819,0.681876 4.099749,2.340732 4.777086,3.066825 -4.615265,4.087771 -15.371747,7.383038 -21.469672,7.383038 -0.58781,0 -1.069134,-0.03762 -1.624033,-0.09423 V 45.92795 H 52.744132 V 16.505963 Z m 0,8.778858 v -2.65786 c 0.244181,-0.01513 0.407032,-0.03186 0.658296,-0.04035 6.870674,-0.228315 11.378338,6.246086 11.378338,6.246086 0,0 -4.868714,7.153335 -10.088812,7.153335 -0.751271,0 -1.341687,-0.127691 -1.947906,-0.343355 v -8.059113 c 2.674882,0.341926 3.129915,1.591858 4.738039,4.427805 l 3.576457,-3.190399 c 0,0 -2.610785,-3.622271 -7.011899,-3.622271 -0.478402,-1.73e-4 -0.852987,0.03545 -1.302513,0.08608"
     sodipodi:nodetypes="ccccccccccccccccccccsccsccscccccccccscccccc"
     transform="matrix(0.89501217,0,0,0.89501217,3.6025505,4.0604439)" />
  <path
     style="mix-blend-mode:normal;fill:none;stroke:#000000;stroke-width:0.33519097;stroke-dasharray:none;stroke-opacity:1;filter:url(#filter2)"
     d="m 26.586076,9.9334775 0.03899,0.01232 c -3.102735,0.064272 -6.054628,2.0860805 -6.963515,5.4099095 -8.604878,2.89228 -13.9372894,9.00557 -13.9372894,9.00557 -1.926477,1.971083 -2.589501,4.853695 -1.71779,7.468384 0,0 4.024796,12.64447 15.7782184,17.218944 1.003926,2.994496 3.807266,5.013992 6.965566,5.017917 h 26.265567 c 4.062166,-4.06e-4 7.3551,-3.293341 7.355507,-7.355506 V 17.288983 C 60.370923,13.226819 57.077989,9.9338845 53.015823,9.9334775 Z"
     id="path2-3"
     transform="matrix(0.89501217,0,0,0.89501217,3.3596146,3.3596104)" />
  <path
     style="mix-blend-mode:normal;fill:none;stroke:#000000;stroke-width:0.33519097;stroke-dasharray:none;stroke-opacity:1;filter:url(#filter3)"
     d="m 15.007147,29.171746 c 0,0 3.883245,-5.93127 11.470765,-6.54493 v -2.151801 c -8.404191,0.714031 -15.76491,8.244052 -15.76491,8.244052 0,0 4.205206,12.605657 15.76491,13.759841 V 40.191556 C 17.994702,39.060909 15.006937,29.170905 15.006937,29.170905 Z m 11.470765,6.470744 v 2.094722 c -6.411479,-1.209203 -8.274272,-8.259813 -8.274272,-8.259813 0,0 3.161565,-3.607561 8.274272,-4.192639 v 2.298491 c -0.0032,0 -0.0053,-0.0012 -0.0082,-0.0012 -2.683289,-0.340665 -4.862788,2.31131 -4.862788,2.31131 0,0 1.258128,4.464372 4.872666,5.749064 m 0,-15.167685 c 0.246703,-0.01996 0.410248,-0.03678 0.658296,-0.04573 9.554593,-0.340665 15.780084,8.289866 15.780084,8.289866 0,0 -7.150183,9.197745 -14.59942,9.197745 -0.682717,0 -1.238667,-0.06702 -1.839002,-0.179495 v 2.454428 c 0.513351,0.06885 0.962415,0.109513 1.517819,0.109513 5.911277,0 10.426986,-2.723436 14.638803,-6.274047 1.215839,-1.024966 3.23177,-1.185925 4.603169,-0.382966 1.334463,0.781334 1.361792,2.405828 0.01149,3.242458 -5.271023,3.265851 -13.92021,5.686776 -19.146908,5.686776 -0.58781,0 -1.069134,-0.03762 -1.624033,-0.09423 v 0.07298 a 3.3759106,3.3759106 45 0 0 3.375911,3.375911 h 19.512426 a 3.3759106,3.3759106 135 0 0 3.375911,-3.375911 l 0,-22.670165 a 3.3759106,3.3759106 45 0 0 -3.375911,-3.375911 l -18.919854,0 A 3.968777,3.968777 135 0 0 26.47959,20.47474 Z m 0,4.810081 v -2.65786 c 0.244181,-0.01513 0.407032,-0.03186 0.658296,-0.04035 6.870674,-0.228315 11.378338,6.246086 11.378338,6.246086 0,0 -4.868714,7.153335 -10.088812,7.153335 -0.751271,0 -1.341687,-0.127691 -1.947906,-0.343355 v -8.059113 c 1.69722,0.216953 2.500743,0.799464 3.272175,1.920727 0.909123,1.321394 2.436482,1.641233 3.633799,0.573159 0.777921,-0.693949 0.612364,-2.324199 -0.692999,-3.24713 -1.190811,-0.841939 -2.855442,-1.631621 -4.910378,-1.631621 -0.478402,-1.73e-4 -0.852987,0.03545 -1.302513,0.08608"
     id="path3-3-5"
     inkscape:path-effect="#path-effect2-3"
     inkscape:original-d="m 15.007147,29.171746 c 0,0 3.883245,-5.93127 11.470765,-6.54493 v -2.151801 c -8.404191,0.714031 -15.76491,8.244052 -15.76491,8.244052 0,0 4.205206,12.605657 15.76491,13.759841 V 40.191556 C 17.994702,39.060909 15.006937,29.170905 15.006937,29.170905 Z m 11.470765,6.470744 v 2.094722 c -6.411479,-1.209203 -8.274272,-8.259813 -8.274272,-8.259813 0,0 3.161565,-3.607561 8.274272,-4.192639 v 2.298491 c -0.0032,0 -0.0053,-0.0012 -0.0082,-0.0012 -2.683289,-0.340665 -4.862788,2.31131 -4.862788,2.31131 0,0 1.258128,4.464372 4.872666,5.749064 m 0,-19.136462 v 3.968777 c 0.246703,-0.01996 0.410248,-0.03678 0.658296,-0.04573 9.554593,-0.340665 15.780084,8.289866 15.780084,8.289866 0,0 -7.150183,9.197745 -14.59942,9.197745 -0.682717,0 -1.238667,-0.06702 -1.839002,-0.179495 v 2.454428 c 0.513351,0.06885 0.962415,0.109513 1.517819,0.109513 6.932039,0 11.944922,-3.745214 16.799136,-8.177642 0.804819,0.681876 4.099749,2.340732 4.777086,3.066825 -4.615265,4.087771 -15.371747,7.383038 -21.469672,7.383038 -0.58781,0 -1.069134,-0.03762 -1.624033,-0.09423 V 45.92795 H 52.744132 V 16.505963 Z m 0,8.778858 v -2.65786 c 0.244181,-0.01513 0.407032,-0.03186 0.658296,-0.04035 6.870674,-0.228315 11.378338,6.246086 11.378338,6.246086 0,0 -4.868714,7.153335 -10.088812,7.153335 -0.751271,0 -1.341687,-0.127691 -1.947906,-0.343355 v -8.059113 c 2.674882,0.341926 3.129915,1.591858 4.738039,4.427805 l 3.576457,-3.190399 c 0,0 -2.610785,-3.622271 -7.011899,-3.622271 -0.478402,-1.73e-4 -0.852987,0.03545 -1.302513,0.08608"
     sodipodi:nodetypes="ccccccccccccccccccccsccsccscccccccccscccccc"
     transform="matrix(0.89501217,0,0,0.89501217,3.6025505,4.0604439)" />
</svg>
