<?xml version="1.0" encoding="UTF-8" standalone="no"?>
<svg
   width="64"
   height="64"
   version="1"
   id="svg7"
   sodipodi:docname="com.obsproject.Studio.svg"
   inkscape:version="1.3.2 (091e20ef0f, 2023-11-25, custom)"
   xmlns:inkscape="http://www.inkscape.org/namespaces/inkscape"
   xmlns:sodipodi="http://sodipodi.sourceforge.net/DTD/sodipodi-0.dtd"
   xmlns:xlink="http://www.w3.org/1999/xlink"
   xmlns="http://www.w3.org/2000/svg"
   xmlns:svg="http://www.w3.org/2000/svg">
  <defs
     id="defs7">
    <inkscape:path-effect
       effect="fillet_chamfer"
       id="path-effect9"
       is_visible="true"
       lpeversion="1"
       nodesatellites_param="F,0,0,1,0,0,0,1 @ F,0,0,1,0,0,0,1 @ F,0,0,1,0,0,0,1 @ F,0,0,1,0,0,0,1 @ F,0,0,1,0,0,0,1 @ F,0,0,1,0,0,0,1 | F,0,0,1,0,0,0,1 @ F,0,0,1,0,0,0,1 @ F,0,0,1,0,0,0,1 @ F,0,1,1,0,8.570179,0,1 @ F,0,0,1,0,0,0,1 @ F,0,0,1,0,0,0,1 @ F,0,0,1,0,0,0,1 | F,0,0,1,0,0,0,1 @ F,0,1,1,0,8.570179,0,1 @ F,0,0,1,0,0,0,1 @ F,0,0,1,0,0,0,1 @ F,0,0,1,0,0,0,1 @ F,0,0,1,0,0,0,1 | F,0,0,1,0,0,0,1 @ F,0,0,1,0,0,0,1 @ F,0,0,1,0,0,0,1 @ F,0,0,1,0,0,0,1 @ F,0,0,1,0,8.570179,0,1 @ F,0,0,1,0,0,0,1"
       radius="0"
       unit="px"
       method="auto"
       mode="F"
       chamfer_steps="1"
       flexible="false"
       use_knot_distance="true"
       apply_no_radius="true"
       apply_with_radius="true"
       only_selected="false"
       hide_knots="false" />
    <inkscape:path-effect
       effect="fillet_chamfer"
       id="path-effect8"
       is_visible="true"
       lpeversion="1"
       nodesatellites_param=""
       radius="0"
       unit="px"
       method="auto"
       mode="F"
       chamfer_steps="1"
       flexible="false"
       use_knot_distance="true"
       apply_no_radius="true"
       apply_with_radius="true"
       only_selected="false"
       hide_knots="false" />
    <linearGradient
       id="linearGradient7"
       inkscape:collect="always">
      <stop
         style="stop-color:#424242;stop-opacity:1;"
         offset="0"
         id="stop7" />
      <stop
         style="stop-color:#2e2e2e;stop-opacity:1;"
         offset="1"
         id="stop8" />
    </linearGradient>
    <radialGradient
       inkscape:collect="always"
       xlink:href="#linearGradient7"
       id="radialGradient8"
       cx="19.979305"
       cy="46.655491"
       fx="19.979305"
       fy="46.655491"
       r="30"
       gradientUnits="userSpaceOnUse"
       gradientTransform="matrix(1.48737,0,0,1.48737,-8.5036073,-24.260345)" />
    <inkscape:path-effect
       effect="fillet_chamfer"
       id="path-effect9-3"
       is_visible="true"
       lpeversion="1"
       nodesatellites_param="F,0,0,1,0,0,0,1 @ F,0,0,1,0,0,0,1 @ F,0,0,1,0,0,0,1 @ F,0,0,1,0,0,0,1 @ F,0,0,1,0,0,0,1 @ F,0,0,1,0,0,0,1 | F,0,0,1,0,0,0,1 @ F,0,0,1,0,0,0,1 @ F,0,0,1,0,0,0,1 @ F,0,1,1,0,8.570179,0,1 @ F,0,0,1,0,0,0,1 @ F,0,0,1,0,0,0,1 @ F,0,0,1,0,0,0,1 | F,0,0,1,0,0,0,1 @ F,0,1,1,0,8.570179,0,1 @ F,0,0,1,0,0,0,1 @ F,0,0,1,0,0,0,1 @ F,0,0,1,0,0,0,1 @ F,0,0,1,0,0,0,1 | F,0,0,1,0,0,0,1 @ F,0,0,1,0,0,0,1 @ F,0,0,1,0,0,0,1 @ F,0,0,1,0,0,0,1 @ F,0,0,1,0,8.570179,0,1 @ F,0,0,1,0,0,0,1"
       radius="0"
       unit="px"
       method="auto"
       mode="F"
       chamfer_steps="1"
       flexible="false"
       use_knot_distance="true"
       apply_no_radius="true"
       apply_with_radius="true"
       only_selected="false"
       hide_knots="false" />
    <filter
       inkscape:collect="always"
       style="color-interpolation-filters:sRGB"
       id="filter9"
       x="-0.088030131"
       y="-0.088030132"
       width="1.1760603"
       height="1.1760603">
      <feGaussianBlur
         inkscape:collect="always"
         stdDeviation="2.05492"
         id="feGaussianBlur9" />
    </filter>
    <filter
       inkscape:collect="always"
       style="color-interpolation-filters:sRGB"
       id="filter10"
       x="-0.12728409"
       y="-0.12723611"
       width="1.2545087"
       height="1.2545224">
      <feGaussianBlur
         inkscape:collect="always"
         stdDeviation="2.6869236"
         id="feGaussianBlur10" />
    </filter>
  </defs>
  <sodipodi:namedview
     id="namedview7"
     pagecolor="#505050"
     bordercolor="#eeeeee"
     borderopacity="1"
     inkscape:showpageshadow="0"
     inkscape:pageopacity="0"
     inkscape:pagecheckerboard="0"
     inkscape:deskcolor="#505050"
     inkscape:zoom="6.4296875"
     inkscape:cx="30.872418"
     inkscape:cy="29.62819"
     inkscape:window-width="1920"
     inkscape:window-height="1020"
     inkscape:window-x="0"
     inkscape:window-y="0"
     inkscape:window-maximized="1"
     inkscape:current-layer="svg7" />
  <path
     style="fill:url(#radialGradient8);stroke-width:0.896769"
     d="M 58.895852,31.991048 A 26.903058,26.903058 0 0 1 31.992793,58.894106 26.903058,26.903058 0 0 1 5.089735,31.991048 26.903058,26.903058 0 0 1 31.992793,5.0879897 26.903058,26.903058 0 0 1 58.895852,31.991048 Z"
     id="path2" />
  <path
     d="M 32,5.0117187 C 21.387492,4.8642209 11.152321,11.685053 7.1325055,21.494684 2.9356909,31.131503 5.1068926,43.102626 12.463807,50.620543 19.542337,58.238629 31.204171,61.017646 40.968818,57.46237 51.090172,54.024384 58.552351,44.081648 58.953166,33.388867 59.62508,22.994251 53.600503,12.604022 44.286727,7.9641072 40.502971,6.01974 36.253142,5.0052424 32,5.0117187 Z m 0,4.1523438 c 10.143455,-0.176245 19.729916,7.2890285 22.115711,17.1358465 0.762653,2.411307 0.953544,7.264581 0.409232,8.407036 -0.680006,-3.561021 -2.801205,-6.740791 -5.676935,-8.894548 -3.730003,-2.793561 -10.071724,1.109362 -14.530787,2.173336 -2.709424,0.646495 -5.666936,0.24985 -7.986196,-1.408222 C 21.733896,23.634233 20.520477,16.7952 23.8088,12.439847 25.210129,9.7669571 28.187465,9.2761457 30.90817,9.1924576 31.271788,9.1736081 31.635892,9.1640606 32,9.1640625 Z m -8.912109,1.8125005 c -3.262577,2.373122 -5.306989,6.156084 -5.790605,10.112221 -0.565294,4.624292 5.996418,8.162885 9.145958,11.492903 1.993495,2.107728 3.143691,5.012671 2.74414,7.962137 -0.439914,5.557249 -6.114031,9.839639 -11.578846,8.859723 -2.991372,-1.781932 -5.023577,-5.128996 -6.528353,-8.266879 -3.9372549,-8.645924 -1.6362043,-19.593617 5.45505,-25.922675 1.921314,-1.77233 4.146935,-3.214434 6.552656,-4.23743 z m 21.132812,18.914062 c 4.710208,0.0457 8.968337,3.834392 9.695313,8.470703 C 51.288971,47.890907 41.902099,55.000836 32,54.835937 c -3.966027,0.0087 -7.922194,-1.063093 -11.353516,-3.048828 2.804461,0.505241 5.727372,0.113864 8.331596,-1.008153 4.281347,-1.844597 4.080762,-9.280431 5.384881,-13.676021 0.81183,-2.736311 2.699838,-5.151073 5.392121,-6.301014 1.394036,-0.63645 2.933441,-0.952531 4.465621,-0.911296 z"
     style="fill:#ffffff;stroke-width:2.07602"
     id="path8"
     inkscape:path-effect="#path-effect9"
     inkscape:original-d="M 32,5.0117187 C 21.387492,4.8642209 11.152321,11.685053 7.1325055,21.494684 2.9356909,31.131503 5.1068926,43.102626 12.463807,50.620543 19.542337,58.238629 31.204171,61.017646 40.968818,57.46237 51.090172,54.024384 58.552351,44.081648 58.953166,33.388867 59.62508,22.994251 53.600503,12.604022 44.286727,7.9641072 40.502971,6.01974 36.253142,5.0052424 32,5.0117187 Z m 0,4.1523438 c 10.143455,-0.176245 19.729916,7.2890285 22.115711,17.1358465 0.762653,2.411307 0.953544,7.264581 0.409232,8.407036 C 53.304851,28.317631 47.445151,23.155676 40.912109,22.945312 38.340962,28.120136 31.02743,29.935038 26.331025,26.577511 21.733896,23.634233 20.520477,16.7952 23.8088,12.439847 25.210129,9.7669571 28.187465,9.2761457 30.90817,9.1924576 31.271788,9.1736081 31.635892,9.1640606 32,9.1640625 Z m -8.912109,1.8125005 c -5.596633,4.070861 -7.608687,12.290324 -4.306641,18.416015 5.890945,-0.377418 11.198873,5.299279 10.406134,11.151246 -0.439914,5.557249 -6.114031,9.839639 -11.578846,8.859723 -2.991372,-1.781932 -5.023577,-5.128996 -6.528353,-8.266879 -3.9372549,-8.645924 -1.6362043,-19.593617 5.45505,-25.922675 1.921314,-1.77233 4.146935,-3.214434 6.552656,-4.23743 z m 21.132812,18.914062 c 4.710208,0.0457 8.968337,3.834392 9.695313,8.470703 C 51.288971,47.890907 41.902099,55.000836 32,54.835937 c -3.966027,0.0087 -7.922194,-1.063093 -11.353516,-3.048828 5.628624,1.014032 11.734381,-1.583652 14.783203,-6.451172 -3.227435,-4.87226 -1.060162,-12.23371 4.325395,-14.534016 1.394036,-0.63645 2.933441,-0.952531 4.465621,-0.911296 z"
     transform="matrix(0.74705305,0,0,0.74705305,8.0884343,8.0855873)" />
  <path
     style="mix-blend-mode:normal;fill:none;fill-opacity:1;stroke:#000000;stroke-width:0.7;stroke-linecap:round;stroke-linejoin:round;stroke-dasharray:none;stroke-opacity:1;paint-order:normal;filter:url(#filter9)"
     d="m 61.930191,31.913284 a 30,30 0 0 1 -30,30 30,30 0 0 1 -30.0000004,-30 30,30 0 0 1 30.0000004,-29.9999999 30,30 0 0 1 30,29.9999999 z"
     id="path2-5"
     transform="matrix(0.89676861,0,0,0.89676861,3.2961978,3.2944525)" />
  <path
     d="M 32,5.0117187 C 21.387492,4.8642209 11.152321,11.685053 7.1325055,21.494684 2.9356909,31.131503 5.1068926,43.102626 12.463807,50.620543 19.542337,58.238629 31.204171,61.017646 40.968818,57.46237 51.090172,54.024384 58.552351,44.081648 58.953166,33.388867 59.62508,22.994251 53.600503,12.604022 44.286727,7.9641072 40.502971,6.01974 36.253142,5.0052424 32,5.0117187 Z m 0,4.1523438 c 10.143455,-0.176245 19.729916,7.2890285 22.115711,17.1358465 0.762653,2.411307 0.953544,7.264581 0.409232,8.407036 -0.680006,-3.561021 -2.801205,-6.740791 -5.676935,-8.894548 -3.730003,-2.793561 -10.071724,1.109362 -14.530787,2.173336 -2.709424,0.646495 -5.666936,0.24985 -7.986196,-1.408222 C 21.733896,23.634233 20.520477,16.7952 23.8088,12.439847 25.210129,9.7669571 28.187465,9.2761457 30.90817,9.1924576 31.271788,9.1736081 31.635892,9.1640606 32,9.1640625 Z m -8.912109,1.8125005 c -3.262577,2.373122 -5.306989,6.156084 -5.790605,10.112221 -0.565294,4.624292 5.996418,8.162885 9.145958,11.492903 1.993495,2.107728 3.143691,5.012671 2.74414,7.962137 -0.439914,5.557249 -6.114031,9.839639 -11.578846,8.859723 -2.991372,-1.781932 -5.023577,-5.128996 -6.528353,-8.266879 -3.9372549,-8.645924 -1.6362043,-19.593617 5.45505,-25.922675 1.921314,-1.77233 4.146935,-3.214434 6.552656,-4.23743 z m 21.132812,18.914062 c 4.710208,0.0457 8.968337,3.834392 9.695313,8.470703 C 51.288971,47.890907 41.902099,55.000836 32,54.835937 c -3.966027,0.0087 -7.922194,-1.063093 -11.353516,-3.048828 2.804461,0.505241 5.727372,0.113864 8.331596,-1.008153 4.281347,-1.844597 4.080762,-9.280431 5.384881,-13.676021 0.81183,-2.736311 2.699838,-5.151073 5.392121,-6.301014 1.394036,-0.63645 2.933441,-0.952531 4.465621,-0.911296 z"
     style="mix-blend-mode:normal;fill:none;stroke:#ffffff;stroke-width:0.840286;stroke-linecap:round;stroke-linejoin:round;stroke-dasharray:none;stroke-opacity:1;paint-order:normal;filter:url(#filter10)"
     id="path8-6"
     inkscape:path-effect="#path-effect9-3"
     inkscape:original-d="M 32,5.0117187 C 21.387492,4.8642209 11.152321,11.685053 7.1325055,21.494684 2.9356909,31.131503 5.1068926,43.102626 12.463807,50.620543 19.542337,58.238629 31.204171,61.017646 40.968818,57.46237 51.090172,54.024384 58.552351,44.081648 58.953166,33.388867 59.62508,22.994251 53.600503,12.604022 44.286727,7.9641072 40.502971,6.01974 36.253142,5.0052424 32,5.0117187 Z m 0,4.1523438 c 10.143455,-0.176245 19.729916,7.2890285 22.115711,17.1358465 0.762653,2.411307 0.953544,7.264581 0.409232,8.407036 C 53.304851,28.317631 47.445151,23.155676 40.912109,22.945312 38.340962,28.120136 31.02743,29.935038 26.331025,26.577511 21.733896,23.634233 20.520477,16.7952 23.8088,12.439847 25.210129,9.7669571 28.187465,9.2761457 30.90817,9.1924576 31.271788,9.1736081 31.635892,9.1640606 32,9.1640625 Z m -8.912109,1.8125005 c -5.596633,4.070861 -7.608687,12.290324 -4.306641,18.416015 5.890945,-0.377418 11.198873,5.299279 10.406134,11.151246 -0.439914,5.557249 -6.114031,9.839639 -11.578846,8.859723 -2.991372,-1.781932 -5.023577,-5.128996 -6.528353,-8.266879 -3.9372549,-8.645924 -1.6362043,-19.593617 5.45505,-25.922675 1.921314,-1.77233 4.146935,-3.214434 6.552656,-4.23743 z m 21.132812,18.914062 c 4.710208,0.0457 8.968337,3.834392 9.695313,8.470703 C 51.288971,47.890907 41.902099,55.000836 32,54.835937 c -3.966027,0.0087 -7.922194,-1.063093 -11.353516,-3.048828 5.628624,1.014032 11.734381,-1.583652 14.783203,-6.451172 -3.227435,-4.87226 -1.060162,-12.23371 4.325395,-14.534016 1.394036,-0.63645 2.933441,-0.952531 4.465621,-0.911296 z"
     transform="matrix(0.74705305,0,0,0.74705305,7.9882219,8.0078232)" />
</svg>
