<?xml version="1.0" encoding="UTF-8" standalone="no"?>
<svg
   width="64"
   height="64"
   version="1.1"
   id="svg14"
   sodipodi:docname="org.gnome.TextEditor.svg"
   inkscape:version="1.3.2 (091e20ef0f, 2023-11-25, custom)"
   xmlns:inkscape="http://www.inkscape.org/namespaces/inkscape"
   xmlns:sodipodi="http://sodipodi.sourceforge.net/DTD/sodipodi-0.dtd"
   xmlns:xlink="http://www.w3.org/1999/xlink"
   xmlns="http://www.w3.org/2000/svg"
   xmlns:svg="http://www.w3.org/2000/svg">
  <defs
     id="defs14">
    <linearGradient
       id="linearGradient18"
       inkscape:collect="always">
      <stop
         style="stop-color:#6173ee;stop-opacity:1;"
         offset="0"
         id="stop18" />
      <stop
         style="stop-color:#a161ee;stop-opacity:1;"
         offset="1"
         id="stop19" />
    </linearGradient>
    <linearGradient
       id="linearGradient17"
       inkscape:collect="always">
      <stop
         style="stop-color:#d7d7d7;stop-opacity:1;"
         offset="0"
         id="stop16" />
      <stop
         style="stop-color:#ffffff;stop-opacity:1;"
         offset="1"
         id="stop17" />
    </linearGradient>
    <linearGradient
       id="linearGradient14"
       inkscape:collect="always">
      <stop
         style="stop-color:#ee6161;stop-opacity:1;"
         offset="0"
         id="stop14" />
      <stop
         style="stop-color:#ee3f3f;stop-opacity:1;"
         offset="1"
         id="stop15" />
    </linearGradient>
    <radialGradient
       inkscape:collect="always"
       xlink:href="#linearGradient11"
       id="radialGradient13"
       cx="11.377555"
       cy="51.785305"
       fx="11.377555"
       fy="51.785305"
       r="22"
       gradientTransform="matrix(1.9732229,-0.32009143,0.31799767,1.9603157,-29.909094,-42.336876)"
       gradientUnits="userSpaceOnUse" />
    <linearGradient
       id="linearGradient11"
       inkscape:collect="always">
      <stop
         style="stop-color:#e4e4e4;stop-opacity:1;"
         offset="0"
         id="stop12" />
      <stop
         style="stop-color:#eeeeee;stop-opacity:1;"
         offset="1"
         id="stop13" />
    </linearGradient>
    <radialGradient
       inkscape:collect="always"
       xlink:href="#linearGradient9"
       id="radialGradient11"
       cx="27.125879"
       cy="37.228973"
       fx="27.125879"
       fy="37.228973"
       r="4.5465002"
       gradientUnits="userSpaceOnUse"
       gradientTransform="matrix(1.7293781,0.66285406,-1.1139235,2.9062128,17.685876,-93.17776)" />
    <linearGradient
       id="linearGradient9"
       inkscape:collect="always">
      <stop
         style="stop-color:#f3d491;stop-opacity:1;"
         offset="0"
         id="stop10" />
      <stop
         style="stop-color:#f3b491;stop-opacity:1;"
         offset="1"
         id="stop11" />
    </linearGradient>
    <radialGradient
       inkscape:collect="always"
       xlink:href="#linearGradient8"
       id="radialGradient9"
       cx="58.683773"
       cy="11.498439"
       fx="58.683773"
       fy="11.498439"
       r="19.5"
       gradientTransform="matrix(-1.2244372,1.2169479,-0.65809887,-0.66214897,132.57181,-50.80429)"
       gradientUnits="userSpaceOnUse" />
    <linearGradient
       id="linearGradient8"
       inkscape:collect="always">
      <stop
         style="stop-color:#ffbb29;stop-opacity:1;"
         offset="0"
         id="stop8" />
      <stop
         style="stop-color:#ff8929;stop-opacity:1;"
         offset="1"
         id="stop9" />
    </linearGradient>
    <radialGradient
       inkscape:collect="always"
       xlink:href="#linearGradient14"
       id="radialGradient15"
       cx="42.398026"
       cy="-21.444998"
       fx="42.398026"
       fy="-21.444998"
       r="6.4738712"
       gradientTransform="matrix(0.85140078,0.38295184,-2.0965186,4.6611019,-38.94535,58.821556)"
       gradientUnits="userSpaceOnUse" />
    <radialGradient
       inkscape:collect="always"
       xlink:href="#linearGradient17"
       id="radialGradient15-3"
       cx="40.471687"
       cy="-21.34346"
       fx="40.471687"
       fy="-21.34346"
       r="6.4738712"
       gradientTransform="matrix(-1.5904926,0.58692981,-0.05655857,-1.8150291,108.19877,-89.772931)"
       gradientUnits="userSpaceOnUse" />
    <radialGradient
       inkscape:collect="always"
       xlink:href="#linearGradient18"
       id="radialGradient19"
       cx="25.905188"
       cy="18.542084"
       fx="25.905188"
       fy="18.542084"
       r="22.014168"
       gradientTransform="matrix(-0.26146468,0.64142283,-1.5645226,-0.32668632,47.034435,-4.9484235)"
       gradientUnits="userSpaceOnUse" />
    <filter
       inkscape:collect="always"
       style="color-interpolation-filters:sRGB"
       id="filter48"
       x="-0.10587461"
       y="-0.10582188"
       width="1.2117322"
       height="1.2116438">
      <feGaussianBlur
         inkscape:collect="always"
         stdDeviation="2.461606"
         id="feGaussianBlur48" />
    </filter>
  </defs>
  <sodipodi:namedview
     id="namedview14"
     pagecolor="#ffffff"
     bordercolor="#000000"
     borderopacity="0.25"
     inkscape:showpageshadow="2"
     inkscape:pageopacity="0.0"
     inkscape:pagecheckerboard="0"
     inkscape:deskcolor="#d1d1d1"
     inkscape:zoom="5.6568543"
     inkscape:cx="12.020815"
     inkscape:cy="39.156038"
     inkscape:window-width="1920"
     inkscape:window-height="1020"
     inkscape:window-x="0"
     inkscape:window-y="0"
     inkscape:window-maximized="1"
     inkscape:current-layer="svg14" />
  <path
     style="fill:url(#radialGradient13);stroke-width:0.933561"
     d="m 8.4231036,58.168243 c -1.4222796,0 -2.5672917,-1.166017 -2.5672917,-2.61397 V 8.5028194 c 0,-1.4481392 1.1450121,-2.6139697 2.5672917,-2.6139697 H 44.365185 c 1.422747,0 2.567292,1.1658305 2.567292,2.6139697 V 43.231274 L 31.995508,58.168243 Z"
     id="path2" />
  <rect
     style="opacity:0.404597;fill:#000000;fill-opacity:1;stroke:#211302;stroke-width:0"
     id="rect17-5"
     width="24.490494"
     height="6.7732749"
     x="9.2265949"
     y="19.173679"
     rx="1.9414376"
     ry="2.0066268" />
  <rect
     style="opacity:0.404597;fill:#000000;fill-opacity:1;stroke:#211302;stroke-width:0"
     id="rect17-5-2"
     width="24.490494"
     height="6.7732749"
     x="9.2265949"
     y="27.404409"
     rx="1.9414376"
     ry="2.0066268" />
  <rect
     style="opacity:0.404597;fill:#000000;fill-opacity:1;stroke:#211302;stroke-width:0"
     id="rect17-5-7"
     width="15.068443"
     height="6.7732749"
     x="9.2265949"
     y="35.635136"
     rx="1.834926"
     ry="2.0066268" />
  <path
     style="fill:#fafafa;stroke-width:0.933561"
     d="M 31.995508,58.168243 V 45.72108 c 0,-1.375135 1.114671,-2.489806 2.489806,-2.489806 h 12.447163 z"
     id="path5" />
  <path
     style="fill:url(#radialGradient11);stroke-width:0.933561"
     d="m 21.704261,42.405742 v -8.488867 l 8.488867,8.488867 z"
     id="path6" />
  <rect
     style="fill:url(#radialGradient19);fill-opacity:1;stroke:none;stroke-width:0.933561;stroke-dasharray:none"
     id="rect17"
     width="41.103119"
     height="6.7732749"
     x="5.7969403"
     y="5.8608341"
     rx="1.7733594"
     ry="1.757799" />
  <path
     style="fill:#545454;stroke-width:0.933561"
     d="m 21.704261,42.405742 v -3.39536 l 3.395359,3.39536 z"
     id="path7" />
  <path
     style="fill:url(#radialGradient9);stroke-width:0.933561"
     d="M 48.869007,6.7514759 21.704261,33.916875 30.193128,42.405742 57.358807,15.240996 c 0,0 1.697214,-1.698147 0,-3.396294 L 52.2653,6.7514759 c -1.698147,-1.6978666 -3.396293,0 -3.396293,0 z"
     id="path8" />
  <rect
     style="fill:url(#radialGradient15);stroke:#211302;stroke-width:0"
     id="rect14"
     width="12.087502"
     height="4.6814065"
     x="39.957798"
     y="-31.291224"
     rx="1.6098958"
     ry="1.4580253"
     transform="rotate(43.839177)" />
  <rect
     style="fill:url(#radialGradient15-3);fill-opacity:1;stroke:#211302;stroke-width:0"
     id="rect14-5"
     width="12.087487"
     height="2.9871166"
     x="39.985264"
     y="-28.205128"
     rx="0.95608759"
     ry="0.66164976"
     transform="matrix(0.72234978,0.69152787,-0.69014965,0.72366668,0,0)" />
  <path
     d="m 6.7644973,3.8496103 c -0.066874,0 -0.129588,0.015021 -0.1953125,0.019531 -0.017669,0.00164 -0.035158,0.00391 -0.052734,0.00586 -1.4868199,0.1297034 -2.6523441,1.38178 -2.6523442,2.9257809 V 57.201173 c 0,1.63007 1.2949931,2.949219 2.9003907,2.949219 H 32.014497 a 0.15001501,0.15001501 0 0 0 0.09961,-0.04297 0.15001501,0.15001501 0 0 0 0.0059,-0.002 l 16,-16 a 0.15001501,0.15001501 0 0 0 0.0039,-0.0078 0.15001501,0.15001501 0 0 0 0.0293,-0.05469 0.15001501,0.15001501 0 0 0 0.0078,-0.02344 0.15001501,0.15001501 0 0 0 0.0039,-0.01953 V 25.246095 L 59.287934,14.123048 c 0,0 0.478854,-0.473608 0.71875,-1.193359 0.239899,-0.719754 0.22558,-1.709448 -0.71875,-2.654297 L 53.832856,4.8183603 C 53.242212,4.2278118 52.633646,3.9948817 52.084809,3.968751 50.87695,3.9112434 49.983247,4.8183603 49.983247,4.8183603 l -1.785156,1.7851563 c -0.06875,-0.939959 -0.570197,-1.7587075 -1.310547,-2.2519532 0,0 -0.002,0 -0.002,0 -0.356748,-0.237388 -0.769647,-0.3965115 -1.212891,-0.4609374 -0.02576,-0.00496 -0.05206,-0.00764 -0.07813,-0.011719 -0.04529,-0.00536 -0.09082,-0.00842 -0.136719,-0.011719 -0.0644,-0.006 -0.127049,-0.017578 -0.193359,-0.017578 z M 6.8465283,4.156251 H 45.243012 c 0.119106,0 0.234952,0.010384 0.34961,0.025391 0.03675,0.00477 0.07313,0.011346 0.109375,0.017578 0.110808,0.019238 0.220669,0.04178 0.326172,0.074219 0.121086,0.03723 0.238555,0.083383 0.351562,0.1367187 0.0026,0.00123 0.0052,0.00267 0.0078,0.00391 0.0034,0.00162 0.0063,0.00422 0.0098,0.00586 0.1117,0.053755 0.219731,0.11344 0.322266,0.1816406 a 0.15001501,0.15001501 0 0 0 0.0059,0 c 0.715388,0.4766416 1.183594,1.2911099 1.183594,2.2207032 v 0.068359 L 43.688325,11.111329 H 6.8465285 c -0.1849071,0 -0.3650426,-0.01935 -0.5390625,-0.05469 C 6.1334462,11.021302 5.9651522,10.969531 5.8055129,10.902345 5.6458736,10.835159 5.4941536,10.753743 5.3523879,10.658204 5.2106222,10.562665 5.0782555,10.454385 4.9578566,10.333986 4.8374579,10.213586 4.7291768,10.08122 4.6336379,9.9394541 4.538099,9.7976884 4.456683,9.6459683 4.3894973,9.4863291 4.3223115,9.3266897 4.2705399,9.1583958 4.2352004,8.984376 4.1998609,8.8103562 4.1805129,8.6302206 4.1805129,8.4453135 V 6.8222666 c 0,-0.1849072 0.019348,-0.3650427 0.054687,-0.5390625 C 4.2705399,6.1091842 4.3223115,5.9408903 4.3894973,5.7812509 4.456683,5.6216117 4.538099,5.4698917 4.6336379,5.3281259 4.7291768,5.1863603 4.8374579,5.0539936 4.9578566,4.9335947 5.0782555,4.8131958 5.2106222,4.7049149 5.3523879,4.6093759 5.4941536,4.5138371 5.6458736,4.4324211 5.8055129,4.3652353 5.9651522,4.2980496 6.1334462,4.2462778 6.307466,4.2109385 6.4814859,4.175599 6.6616214,4.1562509 6.8465283,4.156251 Z M 52.069184,4.2695322 c 0.477012,0.022711 1.00651,0.2136313 1.552735,0.7597656 l 5.455078,5.4570312 c 0.873663,0.874146 0.859132,1.703802 0.644531,2.347657 -0.214601,0.643852 -0.644531,1.078125 -0.644531,1.078125 L 47.909028,25.080079 30.084809,42.902345 21.201997,34.023439 28.073091,27.152345 a 0.15001501,0.15001501 0 0 0 0,-0.002 l 1.560546,-1.558594 4.330079,-4.330078 a 0.15001501,0.15001501 0 0 0 0.002,-0.0039 l 9.845703,-9.845703 0.04492,-0.04492 4.353515,-4.3515631 v -0.00195 l 1.984375,-1.984375 c 0,0 0.825996,-0.8097099 1.875,-0.7597656 z M 4.1648879,9.7109385 C 4.6395651,10.716165 5.6596883,11.412111 6.8465285,11.412111 H 43.389497 l -9.38086,9.382812 v -0.414062 c 0,-0.158569 -0.01535,-0.313262 -0.04492,-0.462891 -0.02957,-0.149629 -0.0727,-0.29406 -0.128907,-0.431641 -0.0562,-0.137579 -0.125171,-0.268201 -0.205078,-0.390625 -0.07991,-0.122423 -0.170808,-0.237641 -0.271484,-0.341797 -0.100676,-0.104156 -0.211566,-0.198469 -0.330078,-0.28125 -0.118513,-0.08278 -0.245492,-0.152641 -0.378907,-0.210937 -0.133415,-0.0583 -0.272582,-0.104063 -0.417968,-0.134766 -0.145387,-0.0307 -0.296749,-0.04687 -0.451172,-0.04687 H 9.7059034 c -0.154423,0 -0.305732,0.01618 -0.4511717,0.04687 -0.1454395,0.0307 -0.2844614,0.07648 -0.4179688,0.134766 -0.1335074,0.05829 -0.2602793,0.128163 -0.3789062,0.210937 -0.1186269,0.08277 -0.22928,0.177099 -0.3300782,0.28125 -0.1007981,0.104151 -0.1914633,0.219376 -0.2714843,0.341797 -0.080021,0.122422 -0.1507356,0.253042 -0.2070313,0.390625 -0.056296,0.137585 -0.099284,0.282001 -0.1289062,0.431641 -0.029622,0.14964 -0.044922,0.304302 -0.044922,0.462891 v 2.955078 c 0,0.158589 0.0153,0.313251 0.044922,0.46289 0.029622,0.149641 0.07261,0.294057 0.1289062,0.431641 0.056296,0.137584 0.1270101,0.268204 0.2070313,0.390625 0.080021,0.122421 0.1706862,0.237645 0.2714843,0.341797 0.1007982,0.104151 0.2114513,0.198476 0.3300782,0.28125 0.1186269,0.08277 0.2453988,0.152647 0.3789062,0.210937 0.1335074,0.05829 0.2725293,0.104067 0.4179688,0.134766 0.1454397,0.0307 0.2967487,0.04687 0.4511717,0.04687 H 29.166841 l -1.261719,1.259766 H 9.7059034 c -0.154423,0 -0.305732,0.01618 -0.4511717,0.04687 -0.1454395,0.0307 -0.2844614,0.07648 -0.4179688,0.134765 -0.1335074,0.05829 -0.2602793,0.128164 -0.3789062,0.210938 -0.1186269,0.08277 -0.22928,0.177098 -0.3300782,0.28125 -0.1007981,0.104151 -0.1914633,0.219375 -0.2714843,0.341797 -0.080021,0.122421 -0.1507356,0.25304 -0.2070313,0.390625 -0.056296,0.137583 -0.099284,0.282 -0.1289062,0.43164 -0.029622,0.149641 -0.044922,0.304302 -0.044922,0.462891 v 2.955078 c 0,0.158589 0.0153,0.31325 0.044922,0.462891 0.029622,0.149639 0.07261,0.294056 0.1289062,0.43164 0.056296,0.137585 0.1270101,0.268204 0.2070313,0.390625 0.080021,0.122422 0.1706862,0.237646 0.2714843,0.341797 0.1007982,0.104152 0.2114513,0.198476 0.3300782,0.28125 0.1186269,0.08277 0.2453988,0.152648 0.3789062,0.210938 0.1335074,0.05829 0.2725293,0.104067 0.4179688,0.134765 0.1454397,0.0307 0.2967487,0.04687 0.4511717,0.04687 H 20.840669 v 1.259766 H 9.5906694 c -0.147127,0 -0.2913893,0.01606 -0.4296877,0.04687 -0.1382984,0.03081 -0.2697468,0.07631 -0.3964844,0.134765 -0.1267378,0.05846 -0.24693,0.129938 -0.359375,0.212891 -0.112445,0.08295 -0.2170799,0.176962 -0.3125,0.28125 -0.09542,0.104288 -0.1821493,0.219333 -0.2578125,0.341797 -0.075663,0.122464 -0.1421383,0.253143 -0.1953125,0.390625 -0.053174,0.137482 -0.093141,0.282299 -0.1210938,0.431641 -0.027953,0.14934 -0.042969,0.302894 -0.042969,0.460937 v 2.955078 c 0,0.158043 0.015016,0.311596 0.042969,0.460938 0.027953,0.149341 0.06792,0.294159 0.1210938,0.43164 0.053174,0.137482 0.1196493,0.268161 0.1953125,0.390625 0.075663,0.122465 0.1623923,0.237509 0.2578125,0.341797 0.09542,0.104288 0.200055,0.198297 0.3125,0.28125 0.112445,0.08295 0.2326372,0.15443 0.359375,0.212891 0.1267376,0.05846 0.258186,0.103956 0.3964844,0.134765 0.1382984,0.03081 0.2825607,0.04687 0.4296877,0.04687 H 21.801606 c 0.03333,0 0.05373,-0.0031 0.06641,-0.0039 h 0.0059 2.753906 5.457031 a 0.15001501,0.15001501 0 0 0 0.09375,-0.04102 0.15001501,0.15001501 0 0 0 0.01172,-0.0039 L 47.864106,25.546876 v 18.302735 h -13.18164 c -0.194265,0 -0.383104,0.01904 -0.566407,0.05664 -0.183302,0.0376 -0.360762,0.09461 -0.529297,0.166016 -0.168535,0.0714 -0.328554,0.158372 -0.478515,0.259765 -0.149961,0.101395 -0.290388,0.21617 -0.417969,0.34375 -0.127581,0.127582 -0.242355,0.268008 -0.34375,0.417969 -0.101395,0.149961 -0.188364,0.309981 -0.259766,0.478516 -0.0714,0.168535 -0.128411,0.345994 -0.166015,0.529297 -0.0376,0.183303 -0.05664,0.372141 -0.05664,0.566406 V 59.849611 H 6.7644973 c -1.4415867,0 -2.5996094,-1.176523 -2.5996094,-2.648438 z M 9.7059034,18.380861 H 31.780122 c 0.1336,0 0.264851,0.01459 0.390625,0.04102 0.125774,0.02643 0.245915,0.06496 0.361328,0.115235 0.115413,0.05027 0.225609,0.112057 0.328125,0.183593 0.102516,0.07154 0.198073,0.15197 0.285156,0.242188 0.08708,0.09022 0.16526,0.190557 0.234375,0.296875 0.06912,0.106318 0.129122,0.220007 0.177735,0.339844 0.04861,0.119836 0.08575,0.244227 0.111328,0.375 0.02557,0.130771 0.03906,0.267123 0.03906,0.40625 v 0.71289 l -4.242187,4.242188 H 9.7059034 c -0.1336,0 -0.264797,-0.01458 -0.3906249,-0.04102 C 9.1894512,25.268492 9.0694544,25.229968 8.9539504,25.179689 8.8384464,25.12941 8.7284553,25.067638 8.6258254,24.996095 8.5231955,24.924552 8.4278743,24.84413 8.3406692,24.753907 8.2534639,24.663684 8.1735709,24.563352 8.104341,24.457032 8.0351113,24.350714 7.9753105,24.237021 7.9266067,24.117189 7.8779029,23.997356 7.8409058,23.87295 7.8152785,23.742189 7.7896514,23.611428 7.776216,23.475045 7.776216,23.335939 v -2.955078 c 0,-0.139107 0.013435,-0.27549 0.039063,-0.40625 0.025627,-0.130762 0.062624,-0.255168 0.1113282,-0.375 0.048704,-0.119833 0.1085046,-0.233524 0.1777343,-0.339844 0.06923,-0.10632 0.1491229,-0.206652 0.2363282,-0.296875 0.087205,-0.09022 0.1825263,-0.170645 0.2851562,-0.242188 0.1026299,-0.07154 0.212621,-0.133314 0.328125,-0.183593 0.115504,-0.05028 0.2355008,-0.0888 0.3613281,-0.115235 0.1258274,-0.02643 0.2570244,-0.04102 0.3906244,-0.04102 z m 0,8.816406 H 27.606294 l -6.720703,6.720703 a 0.15001501,0.15001501 0 0 0 -0.0039,0.0098 0.15001501,0.15001501 0 0 0 -0.04102,0.0957 v 0.128906 H 9.7059034 c -0.1336,0 -0.264797,-0.01458 -0.3906249,-0.04102 C 9.1894513,34.084898 9.0694544,34.046374 8.9539504,33.996095 8.8384464,33.945816 8.7284553,33.884044 8.6258254,33.812501 8.5231955,33.740958 8.4278743,33.660537 8.3406692,33.570314 8.2534639,33.48009 8.173571,33.379758 8.104341,33.273439 8.035111,33.167119 7.9753106,33.053427 7.9266067,32.933595 c -0.048704,-0.119832 -0.085701,-0.244239 -0.1113282,-0.375 -0.025627,-0.130761 -0.039063,-0.267144 -0.039063,-0.40625 v -2.955078 c 0,-0.139106 0.013435,-0.275489 0.039063,-0.40625 0.025627,-0.130761 0.062624,-0.255168 0.1113282,-0.375 0.048704,-0.119832 0.1085045,-0.233524 0.1777343,-0.339844 0.06923,-0.10632 0.1491229,-0.206652 0.2363282,-0.296875 0.087205,-0.09022 0.1825263,-0.170644 0.2851562,-0.242187 0.1026299,-0.07154 0.212621,-0.133315 0.328125,-0.183594 0.115504,-0.05028 0.2355009,-0.0888 0.3613281,-0.115235 0.1258279,-0.02643 0.2570249,-0.04102 0.3906249,-0.04102 z m 11.4355466,7.1875 4.291016,4.291015 4.291015,4.289063 H 24.690278 L 21.14145,39.416017 V 35.863282 Z M 9.5906694,36.013673 H 20.840669 v 3.464844 3.490234 H 9.5906694 c -0.125095,0 -0.2472095,-0.0147 -0.3652346,-0.04102 C 9.1074096,42.901415 8.9940987,42.86261 8.885591,42.812501 8.7770834,42.762393 8.6735396,42.702225 8.5769973,42.630861 8.4804549,42.559497 8.3895954,42.47876 8.307466,42.388673 8.2253367,42.298586 8.1520315,42.198075 8.0867629,42.091798 8.0214943,41.985521 7.9647543,41.871889 7.9187942,41.751954 7.8728339,41.63202 7.8375294,41.506061 7.8133254,41.375001 7.7891214,41.243941 7.776216,41.108403 7.776216,40.968751 v -2.955078 c 0,-0.139652 0.012905,-0.27519 0.037109,-0.40625 0.024204,-0.131059 0.059508,-0.257018 0.1054688,-0.376953 0.04596,-0.119935 0.1027001,-0.233567 0.1679687,-0.339844 0.065269,-0.106277 0.1385738,-0.206788 0.2207031,-0.296875 0.082129,-0.09009 0.1729889,-0.170823 0.2695313,-0.242187 0.096542,-0.07136 0.2000861,-0.131532 0.3085937,-0.181641 0.1085077,-0.05011 0.2218186,-0.08891 0.3398438,-0.115234 0.1180251,-0.02632 0.24014,-0.04102 0.365235,-0.04102 z m 11.5507806,3.826172 3.125,3.125 H 21.862153 21.14145 Z m 13.541016,4.310547 H 47.653169 L 32.164887,59.638673 V 46.66797 c 0,-0.173983 0.01728,-0.343827 0.05078,-0.507813 0.0335,-0.163986 0.08284,-0.322023 0.146484,-0.472656 0.06364,-0.150633 0.141996,-0.293812 0.232422,-0.427734 0.09043,-0.133922 0.192788,-0.259194 0.306641,-0.373047 0.113852,-0.113853 0.239125,-0.216215 0.373046,-0.306641 0.133921,-0.09043 0.277102,-0.168781 0.427735,-0.232422 0.150633,-0.06364 0.308669,-0.112984 0.472656,-0.146484 0.163987,-0.0335 0.33383,-0.05078 0.507813,-0.05078 z"
     style="mix-blend-mode:normal;fill:#000000;fill-opacity:1;stroke:#211302;stroke-width:0.1;stroke-linejoin:round;stroke-dasharray:none;stroke-opacity:1;filter:url(#filter48)"
     id="path48"
     transform="matrix(0.93356059,0,0,0.93356059,2.126061,2.1260612)" />
</svg>
