<?xml version="1.0" encoding="UTF-8" standalone="no"?>
<svg
   width="64"
   height="64"
   version="1"
   id="svg4"
   sodipodi:docname="plexamp.svg"
   inkscape:version="1.4 (e7c3feb100, 2024-10-09)"
   xmlns:inkscape="http://www.inkscape.org/namespaces/inkscape"
   xmlns:sodipodi="http://sodipodi.sourceforge.net/DTD/sodipodi-0.dtd"
   xmlns:xlink="http://www.w3.org/1999/xlink"
   xmlns="http://www.w3.org/2000/svg"
   xmlns:svg="http://www.w3.org/2000/svg">
  <defs
     id="defs4">
    <inkscape:path-effect
       effect="fillet_chamfer"
       id="path-effect6"
       is_visible="true"
       lpeversion="1"
       nodesatellites_param="F,0,0,1,0,0,0,1 @ F,0,0,1,0,1.4606299,0,1 @ F,0,0,1,0,1.8918693,0,1 @ F,0,0,1,0,0,0,1 @ F,0,0,1,0,0,0,1 @ F,0,0,1,0,0,0,1 @ F,0,0,1,0,1.4162918,0,1 @ F,0,0,1,0,1.4606299,0,1 @ F,0,0,1,0,0,0,1 @ F,0,0,1,0,0,0,1 @ F,0,0,1,0,0,0,1 @ F,0,0,1,0,0,0,1 @ F,0,0,1,0,0,0,1 @ F,0,0,1,0,0,0,1 @ F,0,1,1,0,2.2134554,0,1 @ F,0,0,1,0,0.25294326,0,1 @ F,0,0,1,0,0,0,1 @ F,0,0,1,0,0,0,1 @ F,0,0,1,0,0,0,1 @ F,0,0,1,0,0,0,1 @ F,0,0,1,0,1.1002806,0,1 @ F,0,0,1,0,2.2134554,0,1 @ F,0,0,1,0,0,0,1 @ F,0,0,1,0,0,0,1 @ F,0,0,1,0,0,0,1 @ F,0,0,1,0,0,0,1 @ F,0,0,1,0,0,0,1 @ F,0,0,1,0,0,0,1 @ F,0,0,1,0,0,0,1"
       radius="0"
       unit="px"
       method="auto"
       mode="F"
       chamfer_steps="1"
       flexible="false"
       use_knot_distance="true"
       apply_no_radius="true"
       apply_with_radius="true"
       only_selected="false"
       hide_knots="false" />
    <inkscape:path-effect
       effect="fillet_chamfer"
       id="path-effect5"
       is_visible="true"
       lpeversion="1"
       nodesatellites_param="F,0,0,1,0,0,0,1 @ F,0,0,1,0,2.2196661,0,1 @ F,0,0,1,0,0.57012064,0,1 @ F,0,0,1,0,0,0,1 @ F,0,0,1,0,0,0,1 @ F,0,0,1,0,0,0,1 @ F,0,0,1,0,0,0,1 @ F,0,0,1,0,0,0,1 @ F,0,0,1,0,0,0,1 @ F,0,0,1,0,0,0,1 @ F,0,0,1,0,0,0,1 @ F,0,0,1,0,0,0,1 @ F,0,0,1,0,0,0,1 @ F,0,0,1,0,0,0,1 @ F,0,0,1,0,0,0,1 @ F,0,0,1,0,0,0,1 @ F,0,0,1,0,0,0,1 @ F,0,0,1,0,0,0,1 @ F,0,0,1,0,0,0,1 @ F,0,0,1,0,0,0,1 @ F,0,0,1,0,0.52006592,0,1 @ F,0,0,1,0,0,0,1 @ F,0,0,1,0,0,0,1 @ F,0,0,1,0,0,0,1 @ F,0,0,1,0,0,0,1 @ F,0,0,1,0,0,0,1 @ F,0,0,1,0,0,0,1 @ F,0,0,1,0,0,0,1 @ F,0,0,1,0,0,0,1 @ F,0,0,1,0,0,0,1 @ F,0,0,1,0,0,0,1 @ F,0,0,1,0,0,0,1 @ F,0,0,1,0,0,0,1 @ F,0,0,1,0,0,0,1"
       radius="0"
       unit="px"
       method="auto"
       mode="F"
       chamfer_steps="1"
       flexible="false"
       use_knot_distance="true"
       apply_no_radius="true"
       apply_with_radius="true"
       only_selected="false"
       hide_knots="false" />
    <inkscape:path-effect
       effect="fillet_chamfer"
       id="path-effect1"
       is_visible="true"
       lpeversion="1"
       nodesatellites_param="F,0,0,1,0,0,0,1 @ F,0,0,1,0,2.0271595,0,1 @ F,0,1,1,0,1.0842658,0,1 @ F,0,1,1,0,1.0842658,0,1 @ F,0,0,1,0,0,0,1 @ F,0,0,1,0,0,0,1"
       radius="0"
       unit="px"
       method="auto"
       mode="F"
       chamfer_steps="1"
       flexible="false"
       use_knot_distance="true"
       apply_no_radius="true"
       apply_with_radius="true"
       only_selected="false"
       hide_knots="false" />
    <linearGradient
       id="linearGradient6"
       inkscape:collect="always">
      <stop
         style="stop-color:#474747;stop-opacity:1;"
         offset="0"
         id="stop6" />
      <stop
         style="stop-color:#616161;stop-opacity:1;"
         offset="1"
         id="stop7" />
    </linearGradient>
    <inkscape:path-effect
       effect="fillet_chamfer"
       id="path-effect7"
       is_visible="true"
       lpeversion="1"
       nodesatellites_param="F,0,0,1,0,0,0,1 @ F,0,0,1,0,0,0,1 @ F,0,0,1,0,1.8303757,0,1 @ F,0,0,1,0,0,0,1 @ F,0,0,1,0,0,0,1 @ F,0,1,1,0,1.8303757,0,1 @ F,0,0,1,0,0,0,1 @ F,0,0,1,0,0,0,1 @ F,0,0,1,0,0,0,1 @ F,0,0,1,0,0,0,1 @ F,0,0,1,0,0,0,1 @ F,0,0,1,0,0,0,1 @ F,0,0,1,0,0,0,1 @ F,0,0,1,0,0,0,1"
       radius="0"
       unit="px"
       method="auto"
       mode="F"
       chamfer_steps="1"
       flexible="false"
       use_knot_distance="true"
       apply_no_radius="true"
       apply_with_radius="true"
       only_selected="false"
       hide_knots="false" />
    <inkscape:path-effect
       effect="fillet_chamfer"
       id="path-effect7-3"
       is_visible="true"
       lpeversion="1"
       nodesatellites_param="F,0,0,1,0,0,0,1 @ F,0,0,1,0,0,0,1 @ F,0,0,1,0,1.8303757,0,1 @ F,0,0,1,0,0,0,1 @ F,0,0,1,0,0,0,1 @ F,0,1,1,0,1.8303757,0,1 @ F,0,0,1,0,0,0,1 @ F,0,0,1,0,0,0,1 @ F,0,0,1,0,0,0,1 @ F,0,0,1,0,0,0,1 @ F,0,0,1,0,0,0,1 @ F,0,0,1,0,0,0,1 @ F,0,0,1,0,0,0,1 @ F,0,0,1,0,0,0,1"
       radius="0"
       unit="px"
       method="auto"
       mode="F"
       chamfer_steps="1"
       flexible="false"
       use_knot_distance="true"
       apply_no_radius="true"
       apply_with_radius="true"
       only_selected="false"
       hide_knots="false" />
    <radialGradient
       inkscape:collect="always"
       xlink:href="#linearGradient6"
       id="radialGradient7-3"
       cx="11.757886"
       cy="53.963005"
       fx="11.757886"
       fy="53.963005"
       r="18.94824"
       gradientTransform="matrix(3.4879288,0,0,3.6652042,-33.745646,-137.58344)"
       gradientUnits="userSpaceOnUse" />
    <radialGradient
       inkscape:collect="always"
       xlink:href="#linearGradient10"
       id="radialGradient9"
       cx="34.448208"
       cy="13.722373"
       fx="34.448208"
       fy="13.722373"
       r="14.663306"
       gradientTransform="matrix(-1.8550731,3.2130809,-3.480713,-2.0095906,158.99169,-69.547083)"
       gradientUnits="userSpaceOnUse" />
    <linearGradient
       id="linearGradient10"
       inkscape:collect="always">
      <stop
         style="stop-color:#ff7900;stop-opacity:1;"
         offset="0"
         id="stop9" />
      <stop
         style="stop-color:#ffd700;stop-opacity:1;"
         offset="1"
         id="stop10" />
    </linearGradient>
    <inkscape:path-effect
       effect="fillet_chamfer"
       id="path-effect7-5"
       is_visible="true"
       lpeversion="1"
       nodesatellites_param="F,0,0,1,0,0,0,1 @ F,0,0,1,0,0,0,1 @ F,0,0,1,0,1.8303757,0,1 @ F,0,0,1,0,0,0,1 @ F,0,0,1,0,0,0,1 @ F,0,1,1,0,1.8303757,0,1 @ F,0,0,1,0,0,0,1 @ F,0,0,1,0,0,0,1 @ F,0,0,1,0,0,0,1 @ F,0,0,1,0,0,0,1 @ F,0,0,1,0,0,0,1 @ F,0,0,1,0,0,0,1 @ F,0,0,1,0,0,0,1 @ F,0,0,1,0,0,0,1"
       radius="0"
       unit="px"
       method="auto"
       mode="F"
       chamfer_steps="1"
       flexible="false"
       use_knot_distance="true"
       apply_no_radius="true"
       apply_with_radius="true"
       only_selected="false"
       hide_knots="false" />
    <inkscape:path-effect
       effect="fillet_chamfer"
       id="path-effect7-3-3"
       is_visible="true"
       lpeversion="1"
       nodesatellites_param="F,0,0,1,0,0,0,1 @ F,0,0,1,0,0,0,1 @ F,0,0,1,0,1.8303757,0,1 @ F,0,0,1,0,0,0,1 @ F,0,0,1,0,0,0,1 @ F,0,1,1,0,1.8303757,0,1 @ F,0,0,1,0,0,0,1 @ F,0,0,1,0,0,0,1 @ F,0,0,1,0,0,0,1 @ F,0,0,1,0,0,0,1 @ F,0,0,1,0,0,0,1 @ F,0,0,1,0,0,0,1 @ F,0,0,1,0,0,0,1 @ F,0,0,1,0,0,0,1"
       radius="0"
       unit="px"
       method="auto"
       mode="F"
       chamfer_steps="1"
       flexible="false"
       use_knot_distance="true"
       apply_no_radius="true"
       apply_with_radius="true"
       only_selected="false"
       hide_knots="false" />
    <filter
       inkscape:collect="always"
       style="color-interpolation-filters:sRGB"
       id="filter12-5"
       x="-0.094862995"
       y="-0.09150245"
       width="1.1892037"
       height="1.184722">
      <feGaussianBlur
         inkscape:collect="always"
         stdDeviation="1.1085984"
         id="feGaussianBlur12-6" />
    </filter>
    <filter
       inkscape:collect="always"
       style="color-interpolation-filters:sRGB"
       id="filter7"
       x="-0.16383565"
       y="-0.15591676"
       width="1.3276713"
       height="1.3118373">
      <feGaussianBlur
         inkscape:collect="always"
         stdDeviation="3.1195823"
         id="feGaussianBlur7" />
    </filter>
    <inkscape:path-effect
       effect="fillet_chamfer"
       id="path-effect6-6"
       is_visible="true"
       lpeversion="1"
       nodesatellites_param="F,0,0,1,0,0,0,1 @ F,0,0,1,0,1.4606299,0,1 @ F,0,0,1,0,1.8918693,0,1 @ F,0,0,1,0,0,0,1 @ F,0,0,1,0,0,0,1 @ F,0,0,1,0,0,0,1 @ F,0,0,1,0,1.4162918,0,1 @ F,0,0,1,0,1.4606299,0,1 @ F,0,0,1,0,0,0,1 @ F,0,0,1,0,0,0,1 @ F,0,0,1,0,0,0,1 @ F,0,0,1,0,0,0,1 @ F,0,0,1,0,0,0,1 @ F,0,0,1,0,0,0,1 @ F,0,1,1,0,2.2134554,0,1 @ F,0,0,1,0,0.25294326,0,1 @ F,0,0,1,0,0,0,1 @ F,0,0,1,0,0,0,1 @ F,0,0,1,0,0,0,1 @ F,0,0,1,0,0,0,1 @ F,0,0,1,0,1.1002806,0,1 @ F,0,0,1,0,2.2134554,0,1 @ F,0,0,1,0,0,0,1 @ F,0,0,1,0,0,0,1 @ F,0,0,1,0,0,0,1 @ F,0,0,1,0,0,0,1 @ F,0,0,1,0,0,0,1 @ F,0,0,1,0,0,0,1 @ F,0,0,1,0,0,0,1"
       radius="0"
       unit="px"
       method="auto"
       mode="F"
       chamfer_steps="1"
       flexible="false"
       use_knot_distance="true"
       apply_no_radius="true"
       apply_with_radius="true"
       only_selected="false"
       hide_knots="false" />
    <filter
       inkscape:collect="always"
       style="color-interpolation-filters:sRGB"
       id="filter6"
       x="-0.050850908"
       y="-0.046937411"
       width="1.1017018"
       height="1.0938748">
      <feGaussianBlur
         inkscape:collect="always"
         stdDeviation="0.62138544"
         id="feGaussianBlur6" />
    </filter>
  </defs>
  <sodipodi:namedview
     id="namedview4"
     pagecolor="#ffffff"
     bordercolor="#000000"
     borderopacity="0.25"
     inkscape:showpageshadow="2"
     inkscape:pageopacity="0.0"
     inkscape:pagecheckerboard="0"
     inkscape:deskcolor="#d1d1d1"
     inkscape:zoom="11.313709"
     inkscape:cx="16.396038"
     inkscape:cy="33.45499"
     inkscape:window-width="1920"
     inkscape:window-height="1020"
     inkscape:window-x="0"
     inkscape:window-y="0"
     inkscape:window-maximized="1"
     inkscape:current-layer="svg4" />
  <path
     style="fill:url(#radialGradient7-3);stroke-width:1.22196"
     d="M 20.254191,7.6717729 C 14.276195,7.5456719 8.845446,12.449155 8.846082,18.736205 v 26.620508 0.0048 c 0.0067,8.351554 9.592982,13.550626 16.627676,9.64916 l 11.98806,-6.653935 11.990446,-6.661094 0.0048,-0.0024 c 3.512904,-1.955239 5.696895,-5.871493 5.696895,-9.649159 0,-3.777667 -2.183991,-7.693919 -5.696895,-9.649158 l -0.0048,-0.0024 -11.990446,-6.658829 -11.97374,-6.6467736 -0.01198,-0.00477 C 23.873994,8.1922126 22.097946,7.715916 20.287561,7.6716605 Z"
     id="path5-36-2"
     sodipodi:nodetypes="cccsccccsccccccc" />
  <path
     style="opacity:0.324401;fill:#000000;fill-opacity:1;stroke-width:1.22196"
     d="m 20.078724,16.116043 a 2.67849,2.5756028 0 0 0 -2.742031,2.575114 v 26.618717 a 2.67849,2.5756028 0 0 0 4.017246,2.230013 L 33.33945,40.886674 45.32496,34.23004 a 2.67849,2.5756028 0 0 0 0,-4.460077 L 33.337739,23.115284 21.352961,16.462071 a 2.67849,2.5756028 0 0 0 -1.275704,-0.34532 z"
     id="path3-3-9" />
  <path
     d="m 20.078125,16.113281 c -0.742998,-0.017 -0.746335,0.624141 -0.04793,1.027844 l 24.064315,13.91014 a 1.0929043,1.0929043 90.015259 0 1 -5.04e-4,1.892691 L 20.058594,46.820312 c -0.215178,0.12473 -0.490734,0.05125 -0.615235,-0.164062 -0.124402,-0.21569 -0.05,-0.491404 0.166016,-0.615234 L 42.707078,32.70429 a 0.81819536,0.81819536 90.01279 0 0 3.17e-4,-1.41694 L 19.256774,17.732884 c -0.698412,-0.403682 -1.765984,-0.219316 -1.890357,0.566387 -0.02013,0.127169 -0.03055,0.257458 -0.03048,0.390182 v 0.121094 c -3.8e-5,1.132995 0.604568,2.179886 1.585938,2.746094 l 17.9375,10.355468 c 0.06514,0.03878 0.06514,0.1331 0,0.171875 l -17.9375,10.357422 c -0.248641,0.143455 -0.472558,0.317871 -0.668341,0.516774 -0.840326,0.853719 -0.04107,1.479202 1.018487,0.869504 L 39.61084,32.124202 a 0.14575124,0.14575124 90.03422 0 0 1.51e-4,-0.252572 L 19.289415,20.145737 c -0.21531,-0.124501 -0.288791,-0.400057 -0.164062,-0.615235 0.05985,-0.10314 0.158202,-0.178305 0.273437,-0.208984 0.115379,-0.03099 0.238345,-0.01483 0.341797,0.04492 l 20.939206,12.081724 a 0.63402907,0.63402907 90.032141 0 1 -6.17e-4,1.098697 l -21.34276,12.282674 c -1.059529,0.609755 -1.614194,2.229873 -0.554673,2.761605 0.763994,0.383419 1.718371,0.419682 2.571773,-0.05403 l 11.986328,-6.652343 11.984375,-6.65625 c 1.785495,-0.991381 1.785495,-3.469557 0,-4.460938 L 33.337891,23.113281 21.353516,16.460937 c -0.38831,-0.216132 -0.82686,-0.335003 -1.275391,-0.345703 z"
     style="fill:url(#radialGradient9)"
     id="path5"
     inkscape:path-effect="#path-effect6"
     inkscape:original-d="m 20.078125,16.113281 c -0.474225,-0.01085 -0.921589,0.09827 -1.3125,0.296875 L 45.732422,31.998047 20.058594,46.820312 c -0.215178,0.12473 -0.490734,0.05125 -0.615235,-0.164062 -0.124402,-0.21569 -0.05,-0.491404 0.166016,-0.615234 L 43.933594,31.996094 17.992187,17.001953 c -0.407904,0.451852 -0.656588,1.040773 -0.65625,1.6875 v 0.121094 c -3.8e-5,1.132995 0.604568,2.179886 1.585938,2.746094 l 17.9375,10.355468 c 0.06514,0.03878 0.06514,0.1331 0,0.171875 l -17.9375,10.357422 c -0.906609,0.523073 -1.48451,1.457787 -1.568359,2.490235 L 39.830078,31.998047 19.289415,20.145737 c -0.21531,-0.124501 -0.288791,-0.400057 -0.164062,-0.615235 0.05985,-0.10314 0.158202,-0.178305 0.273437,-0.208984 0.115379,-0.03099 0.238345,-0.01483 0.341797,0.04492 L 41.632812,31.998045 17.417969,45.933592 c 0.410252,1.600821 2.347685,2.484917 3.935547,1.603515 l 11.986328,-6.652343 11.984375,-6.65625 c 1.785495,-0.991381 1.785495,-3.469557 0,-4.460938 L 33.337891,23.113281 21.353516,16.460937 c -0.38831,-0.216132 -0.82686,-0.335003 -1.275391,-0.345703 z"
     sodipodi:nodetypes="cccccccccscccccccccccccccccccc" />
  <path
     d="m 20.078125,16.113281 c -0.742998,-0.017 -0.746335,0.624141 -0.04793,1.027844 l 24.064315,13.91014 a 1.0929043,1.0929043 90.015259 0 1 -5.04e-4,1.892691 L 20.058594,46.820312 c -0.215178,0.12473 -0.490734,0.05125 -0.615235,-0.164062 -0.124402,-0.21569 -0.05,-0.491404 0.166016,-0.615234 L 42.707078,32.70429 a 0.81819536,0.81819536 90.01279 0 0 3.17e-4,-1.41694 L 19.256774,17.732884 c -0.698412,-0.403682 -1.765984,-0.219316 -1.890357,0.566387 -0.02013,0.127169 -0.03055,0.257458 -0.03048,0.390182 v 0.121094 c -3.8e-5,1.132995 0.604568,2.179886 1.585938,2.746094 l 17.9375,10.355468 c 0.06514,0.03878 0.06514,0.1331 0,0.171875 l -17.9375,10.357422 c -0.248641,0.143455 -0.472558,0.317871 -0.668341,0.516774 -0.840326,0.853719 -0.04107,1.479202 1.018487,0.869504 L 39.61084,32.124202 a 0.14575124,0.14575124 90.03422 0 0 1.51e-4,-0.252572 L 19.289415,20.145737 c -0.21531,-0.124501 -0.288791,-0.400057 -0.164062,-0.615235 0.05985,-0.10314 0.158202,-0.178305 0.273437,-0.208984 0.115379,-0.03099 0.238345,-0.01483 0.341797,0.04492 l 20.939206,12.081724 a 0.63402907,0.63402907 90.032141 0 1 -6.17e-4,1.098697 l -21.34276,12.282674 c -1.059529,0.609755 -1.614194,2.229873 -0.554673,2.761605 0.763994,0.383419 1.718371,0.419682 2.571773,-0.05403 l 11.986328,-6.652343 11.984375,-6.65625 c 1.785495,-0.991381 1.785495,-3.469557 0,-4.460938 L 33.337891,23.113281 21.353516,16.460937 c -0.38831,-0.216132 -0.82686,-0.335003 -1.275391,-0.345703 z"
     style="fill:#ff9d00;fill-opacity:1;opacity:0.33850494;filter:url(#filter6)"
     id="path5-2"
     inkscape:path-effect="#path-effect6-6"
     inkscape:original-d="m 20.078125,16.113281 c -0.474225,-0.01085 -0.921589,0.09827 -1.3125,0.296875 L 45.732422,31.998047 20.058594,46.820312 c -0.215178,0.12473 -0.490734,0.05125 -0.615235,-0.164062 -0.124402,-0.21569 -0.05,-0.491404 0.166016,-0.615234 L 43.933594,31.996094 17.992187,17.001953 c -0.407904,0.451852 -0.656588,1.040773 -0.65625,1.6875 v 0.121094 c -3.8e-5,1.132995 0.604568,2.179886 1.585938,2.746094 l 17.9375,10.355468 c 0.06514,0.03878 0.06514,0.1331 0,0.171875 l -17.9375,10.357422 c -0.906609,0.523073 -1.48451,1.457787 -1.568359,2.490235 L 39.830078,31.998047 19.289415,20.145737 c -0.21531,-0.124501 -0.288791,-0.400057 -0.164062,-0.615235 0.05985,-0.10314 0.158202,-0.178305 0.273437,-0.208984 0.115379,-0.03099 0.238345,-0.01483 0.341797,0.04492 L 41.632812,31.998045 17.417969,45.933592 c 0.410252,1.600821 2.347685,2.484917 3.935547,1.603515 l 11.986328,-6.652343 11.984375,-6.65625 c 1.785495,-0.991381 1.785495,-3.469557 0,-4.460938 L 33.337891,23.113281 21.353516,16.460937 c -0.38831,-0.216132 -0.82686,-0.335003 -1.275391,-0.345703 z"
     sodipodi:nodetypes="cccccccccscccccccccccccccccccc" />
  <path
     d="m 17.336299,18.810425 v 26.375 c 6.59e-4,-1.132297 0.605171,-2.178282 1.585937,-2.744141 L 36.859737,32.083863 c 0.06514,-0.03877 0.06514,-0.133095 0,-0.171875 L 18.922236,21.556519 C 17.940866,20.990312 17.33626,19.94342 17.336299,18.810425 Z m 28.574219,14.982422 c -0.16739,0.164577 -0.362751,0.311624 -0.585938,0.435547 l -11.984374,6.65625 -11.986329,6.652344 c -1.11551,0.619205 -2.405882,0.368675 -3.216797,-0.390625 0.810853,0.760057 2.100811,1.012047 3.216797,0.392578 l 11.986329,-6.652344 11.984374,-6.65625 c 0.223657,-0.124183 0.418313,-0.272503 0.585938,-0.4375 z"
     style="baseline-shift:baseline;display:inline;overflow:visible;fill:none;stroke:#000000;stroke-width:0.0999999;stroke-dasharray:none;stroke-opacity:1;filter:url(#filter12-5);enable-background:accumulate;stop-color:#000000"
     id="path12-1" />
  <path
     d="m 20.078486,16.113159 c -1.504333,-0.03441 -2.742946,1.129215 -2.742187,2.576172 v 0.121094 a 3.1702505,3.1702505 0 0 0 1.585937,2.746094 l 17.937501,10.355469 c 0.06514,0.03878 0.06514,0.1331 0,0.171875 L 18.922236,42.441284 a 3.1702507,3.1702507 0 0 0 -1.585937,2.744141 v 0.123047 c 0.0017,1.981685 2.232762,3.219244 4.017578,2.228516 l 11.986329,-6.652344 11.984374,-6.65625 c 1.785495,-0.991381 1.785495,-3.469557 0,-4.460938 L 33.338253,23.11316 21.353877,16.460815 c -0.38831,-0.216132 -0.82686,-0.335003 -1.275391,-0.345703 z"
     style="fill:none;stroke:#000000;stroke-width:0.0999999;stroke-dasharray:none;stroke-opacity:1;filter:url(#filter12-5)"
     id="path11" />
  <path
     id="path5-3-2"
     style="fill:none;stroke:#000000;stroke-width:0.2;stroke-dasharray:none;stroke-opacity:1;filter:url(#filter7)"
     d="M 20.191409,7.6719982 C 14.213413,7.5458972 8.78257,12.4494 8.783206,18.73645 v 26.621095 0.0039 c 0.0067,8.351554 9.594212,13.549904 16.628906,9.648438 l 11.986329,-6.652344 11.992187,-6.66211 0.0039,-0.002 c 3.512904,-1.955239 5.697266,-5.870771 5.697266,-9.648438 0,-3.777667 -2.184362,-7.695152 -5.697266,-9.650391 l -0.0039,-0.002 -11.992187,-6.658203 -11.972657,-6.6484373 -0.01172,-0.00391 C 23.811951,8.1922116 22.034997,7.7162537 20.224612,7.6719982 Z m -0.175781,8.4433578 v 0.002 a 2.67849,2.5756028 0 0 1 1.275391,0.345703 l 11.984375,6.652343 11.986328,6.654297 a 2.67849,2.5756028 0 0 1 0,4.460938 L 33.277347,40.886888 21.291019,47.539231 A 2.67849,2.5756028 0 0 1 17.273441,45.31067 V 18.691528 a 2.67849,2.5756028 0 0 1 2.742187,-2.576172 z" />
</svg>
