<?xml version="1.0" encoding="UTF-8" standalone="no"?>
<svg
   width="64"
   height="64"
   version="1"
   id="svg10"
   sodipodi:docname="preferences-desktop-locale.svg"
   inkscape:version="1.3.2 (091e20ef0f, 2023-11-25, custom)"
   xmlns:inkscape="http://www.inkscape.org/namespaces/inkscape"
   xmlns:sodipodi="http://sodipodi.sourceforge.net/DTD/sodipodi-0.dtd"
   xmlns:xlink="http://www.w3.org/1999/xlink"
   xmlns="http://www.w3.org/2000/svg"
   xmlns:svg="http://www.w3.org/2000/svg">
  <defs
     id="defs10">
    <inkscape:path-effect
       effect="fillet_chamfer"
       id="path-effect4"
       is_visible="true"
       lpeversion="1"
       nodesatellites_param="F,0,0,1,0,0,0,1 @ F,0,0,1,0,1.0446683,0,1 @ F,0,0,1,0,0,0,1 @ F,0,0,1,0,0,0,1 @ F,0,0,1,0,0.96424836,0,1 @ F,0,0,1,0,0,0,1 @ F,0,0,1,0,0,0,1 @ F,0,0,1,0,0,0,1 @ F,0,0,1,0,1.0203189,0,1 | F,0,0,1,0,1.0534274,0,1 @ F,0,0,1,0,1.0534274,0,1 @ F,0,0,1,0,0,0,1 @ F,0,0,1,0,1.0534274,0,1 | F,0,0,1,0,2.3149553,0,1 @ F,0,0,1,0,0,0,1 @ F,0,0,1,0,0.95543774,0,1 @ F,0,0,1,0,0.69542463,0,1 @ F,0,0,1,0,0.69542463,0,1 @ F,0,0,1,0,0.95543774,0,1 @ F,0,0,1,0,0,0,1 @ F,0,0,1,0,2.3149553,0,1 | F,0,0,1,0,0.44265585,0,1 @ F,0,0,1,0,0.44265585,0,1 @ F,0,0,1,0,0.49982134,0,1 @ F,0,0,1,0,0.49982134,0,1 | F,0,0,1,0,2.8124925,0,1 @ F,0,0,1,0,0.62995945,0,1 @ F,0,0,1,0,0,0,1 @ F,0,0,1,0,0.93943768,0,1 @ F,0,0,1,0,0.62995945,0,1 @ F,0,0,1,0,3.0447511,0,1 @ F,0,0,1,0,0,0,1 @ F,0,0,1,0,0,0,1 @ F,0,0,1,0,0,0,1 @ F,0,0,1,0,1.2362875,0,1 @ F,0,0,1,0,0,0,1 @ F,0,0,1,0,0.56279463,0,1 @ F,0,0,1,0,0.90230294,0,1 @ F,0,0,1,0,0.50097917,0,1 @ F,0,0,1,0,0.56279463,0,1 @ F,0,0,1,0,0.49019105,0,1 @ F,0,0,1,0,0,0,1 @ F,0,0,1,0,0.81265617,0,1 @ F,0,0,1,0,0.49019105,0,1 @ F,0,0,1,0,2.8124925,0,1 | F,0,0,1,0,1.1025857,0,1 @ F,0,0,1,0,1.1025857,0,1 @ F,0,0,1,0,0,0,1 @ F,0,0,1,0,1.1025857,0,1 | F,0,0,1,0,0.97612796,0,1 @ F,0,0,1,0,0.97612796,0,1 @ F,0,0,1,0,1.0020474,0,1 @ F,0,0,1,0,1.0020474,0,1 | F,0,0,1,0,0.64469521,0,1 @ F,0,0,1,0,0.64469521,0,1 @ F,0,0,1,0,0,0,1 @ F,0,0,1,0,0.64469521,0,1 | F,0,0,1,0,1.0020474,0,1 @ F,0,0,1,0,1.0020474,0,1 @ F,0,0,1,0,1.1870763,0,1 @ F,0,0,1,0,0.90347465,0,1 | F,0,0,1,0,0,0,1 @ F,0,0,1,0,1.1325996,0,1 @ F,0,0,1,0,0,0,1 @ F,0,0,1,0,1.2903558,0,1 | F,0,0,1,0,0.86932564,0,1 @ F,0,0,1,0,0.86932564,0,1 @ F,0,0,1,0,0,0,1 @ F,0,0,1,0,0.86932564,0,1"
       radius="0"
       unit="px"
       method="auto"
       mode="F"
       chamfer_steps="1"
       flexible="false"
       use_knot_distance="true"
       apply_no_radius="true"
       apply_with_radius="true"
       only_selected="false"
       hide_knots="false" />
    <inkscape:path-effect
       effect="fillet_chamfer"
       id="path-effect3"
       is_visible="true"
       lpeversion="1"
       nodesatellites_param="F,0,0,1,0,0,0,1 @ F,0,0,1,0,0,0,1 @ F,0,0,1,0,0,0,1 @ F,0,0,1,0,0,0,1 @ F,0,0,1,0,0,0,1 | F,0,0,1,0,0,0,1 @ F,0,0,1,0,0,0,1 @ F,0,0,1,0,0,0,1 @ F,0,0,1,0,0,0,1 @ F,0,0,1,0,0,0,1 | F,0,0,1,0,0,0,1 @ F,0,0,1,0,0,0,1 @ F,0,0,1,0,0,0,1 @ F,0,0,1,0,0,0,1 @ F,0,0,1,0,0,0,1 | F,0,0,1,0,0,0,1 @ F,0,0,1,0,0,0,1 @ F,0,0,1,0,0,0,1 @ F,0,0,1,0,0,0,1 @ F,0,0,1,0,0,0,1 @ F,0,0,1,0,0,0,1 @ F,0,0,1,0,0,0,1 @ F,0,0,1,0,0,0,1 @ F,0,0,1,0,0,0,1 @ F,0,0,1,0,0,0,1 | F,0,0,1,0,0,0,1 @ F,0,0,1,0,0,0,1 @ F,0,0,1,0,0,0,1 @ F,0,0,1,0,0,0,1 @ F,0,0,1,0,0,0,1 @ F,0,0,1,0,0,0,1 @ F,0,0,1,0,0,0,1 @ F,0,0,1,0,0,0,1 @ F,0,0,1,0,0,0,1 @ F,0,0,1,0,0,0,1 @ F,0,0,1,0,0,0,1 @ F,0,0,1,0,0,0,1 @ F,0,0,1,0,0,0,1 @ F,0,0,1,0,0,0,1 @ F,0,0,1,0,0,0,1 @ F,0,0,1,0,0,0,1 @ F,0,0,1,0,0,0,1 @ F,0,0,1,0,0,0,1 @ F,0,0,1,0,0,0,1 @ F,0,0,1,0,0,0,1 @ F,0,0,1,0,0,0,1 | F,0,0,1,0,0,0,1 @ F,0,0,1,0,0,0,1 @ F,0,0,1,0,0,0,1 @ F,0,0,1,0,0,0,1 @ F,0,0,1,0,0,0,1 | F,0,0,1,0,0,0,1 @ F,0,0,1,0,0,0,1 @ F,0,0,1,0,0,0,1 @ F,0,0,1,0,0,0,1 @ F,0,0,1,0,0,0,1 | F,0,0,1,0,0,0,1 @ F,0,0,1,0,0,0,1 @ F,0,0,1,0,0,0,1 @ F,0,0,1,0,0,0,1 @ F,0,0,1,0,0,0,1 | F,0,0,1,0,0,0,1 @ F,0,0,1,0,0,0,1 @ F,0,0,1,0,0,0,1 @ F,0,0,1,0,0,0,1 @ F,0,0,1,0,0,0,1 | F,0,0,1,0,0,0,1 @ F,0,0,1,0,0,0,1 @ F,0,0,1,0,0,0,1 @ F,0,0,1,0,0,0,1 @ F,0,0,1,0,0,0,1 @ F,0,0,1,0,0,0,1 @ F,0,0,1,0,0,0,1 @ F,0,0,1,0,0,0,1 | F,0,0,1,0,0,0,1 @ F,0,0,1,0,0,0,1 @ F,0,0,1,0,0,0,1 @ F,0,0,1,0,0,0,1 @ F,0,0,1,0,0,0,1"
       radius="0"
       unit="px"
       method="auto"
       mode="F"
       chamfer_steps="1"
       flexible="false"
       use_knot_distance="true"
       apply_no_radius="true"
       apply_with_radius="true"
       only_selected="false"
       hide_knots="false" />
    <inkscape:path-effect
       effect="fillet_chamfer"
       id="path-effect2"
       is_visible="true"
       lpeversion="1"
       nodesatellites_param="F,0,0,1,0,0,0,1 @ F,0,0,1,0,0,0,1 @ F,0,0,1,0,0,0,1 @ F,0,0,1,0,0,0,1 @ F,0,0,1,0,0,0,1 | F,0,0,1,0,0,0,1 @ F,0,0,1,0,0,0,1 @ F,0,0,1,0,0,0,1 @ F,0,0,1,0,0,0,1 @ F,0,0,1,0,0,0,1 | F,0,0,1,0,0,0,1 @ F,0,0,1,0,0,0,1 @ F,0,0,1,0,0,0,1 @ F,0,0,1,0,0,0,1 @ F,0,0,1,0,0,0,1 | F,0,0,1,0,0,0,1 @ F,0,0,1,0,0,0,1 @ F,0,0,1,0,0,0,1 @ F,0,0,1,0,0,0,1 @ F,0,0,1,0,0,0,1 @ F,0,0,1,0,0,0,1 @ F,0,0,1,0,0,0,1 @ F,0,0,1,0,0,0,1 @ F,0,0,1,0,0,0,1 @ F,0,0,1,0,0,0,1 | F,0,0,1,0,0,0,1 @ F,0,0,1,0,0,0,1 @ F,0,0,1,0,0,0,1 @ F,0,0,1,0,0,0,1 @ F,0,0,1,0,0,0,1 @ F,0,0,1,0,0,0,1 @ F,0,0,1,0,0,0,1 @ F,0,0,1,0,0,0,1 @ F,0,0,1,0,0,0,1 @ F,0,0,1,0,0,0,1 @ F,0,0,1,0,0,0,1 @ F,0,0,1,0,0,0,1 @ F,0,0,1,0,0,0,1 @ F,0,0,1,0,0,0,1 @ F,0,0,1,0,0,0,1 @ F,0,0,1,0,0,0,1 @ F,0,0,1,0,0,0,1 @ F,0,0,1,0,0,0,1 @ F,0,0,1,0,0,0,1 @ F,0,0,1,0,0,0,1 @ F,0,0,1,0,0,0,1 | F,0,0,1,0,0,0,1 @ F,0,0,1,0,0,0,1 @ F,0,0,1,0,0,0,1 @ F,0,0,1,0,0,0,1 @ F,0,0,1,0,0,0,1 | F,0,0,1,0,0,0,1 @ F,0,0,1,0,0,0,1 @ F,0,0,1,0,0,0,1 @ F,0,0,1,0,0,0,1 @ F,0,0,1,0,0,0,1 | F,0,0,1,0,0,0,1 @ F,0,0,1,0,0,0,1 @ F,0,0,1,0,0,0,1 @ F,0,0,1,0,0,0,1 @ F,0,0,1,0,0,0,1 | F,0,0,1,0,0,0,1 @ F,0,0,1,0,0,0,1 @ F,0,0,1,0,0,0,1 @ F,0,0,1,0,0,0,1 @ F,0,0,1,0,0,0,1 | F,0,0,1,0,0,0,1 @ F,0,0,1,0,0,0,1 @ F,0,0,1,0,0,0,1 @ F,0,0,1,0,0,0,1 @ F,0,0,1,0,0,0,1 @ F,0,0,1,0,0,0,1 @ F,0,0,1,0,0,0,1 @ F,0,0,1,0,0,0,1 | F,0,0,1,0,0,0,1 @ F,0,0,1,0,0,0,1 @ F,0,0,1,0,0,0,1 @ F,0,0,1,0,0,0,1 @ F,0,0,1,0,0,0,1"
       radius="0"
       unit="px"
       method="auto"
       mode="F"
       chamfer_steps="1"
       flexible="false"
       use_knot_distance="true"
       apply_no_radius="true"
       apply_with_radius="true"
       only_selected="false"
       hide_knots="false" />
    <inkscape:path-effect
       effect="fillet_chamfer"
       id="path-effect1"
       is_visible="true"
       lpeversion="1"
       nodesatellites_param="F,0,0,1,0,0,0,1 @ F,0,0,1,0,0,0,1 @ F,0,0,1,0,0,0,1 @ F,0,0,1,0,0,0,1 @ F,0,0,1,0,0,0,1 | F,0,0,1,0,0,0,1 @ F,0,0,1,0,0,0,1 @ F,0,0,1,0,0,0,1 @ F,0,0,1,0,0,0,1 @ F,0,0,1,0,0,0,1 | F,0,0,1,0,0,0,1 @ F,0,0,1,0,0,0,1 @ F,0,0,1,0,0,0,1 @ F,0,0,1,0,0,0,1 @ F,0,0,1,0,0,0,1 | F,0,0,1,0,0,0,1 @ F,0,0,1,0,0,0,1 @ F,0,0,1,0,0,0,1 @ F,0,0,1,0,0,0,1 @ F,0,0,1,0,0,0,1 @ F,0,0,1,0,0,0,1 @ F,0,0,1,0,0,0,1 @ F,0,0,1,0,0,0,1 @ F,0,0,1,0,0,0,1 @ F,0,0,1,0,0,0,1 | F,0,0,1,0,0,0,1 @ F,0,0,1,0,0,0,1 @ F,0,0,1,0,0,0,1 @ F,0,0,1,0,0,0,1 @ F,0,0,1,0,0,0,1 @ F,0,0,1,0,0,0,1 @ F,0,0,1,0,0,0,1 @ F,0,0,1,0,0,0,1 @ F,0,0,1,0,0,0,1 @ F,0,0,1,0,0,0,1 @ F,0,0,1,0,0,0,1 @ F,0,0,1,0,0,0,1 @ F,0,0,1,0,0,0,1 @ F,0,0,1,0,0,0,1 @ F,0,0,1,0,0,0,1 @ F,0,0,1,0,0,0,1 @ F,0,0,1,0,0,0,1 @ F,0,0,1,0,0,0,1 @ F,0,0,1,0,0,0,1 @ F,0,0,1,0,0,0,1 @ F,0,0,1,0,0,0,1 | F,0,0,1,0,0,0,1 @ F,0,0,1,0,0,0,1 @ F,0,0,1,0,0,0,1 @ F,0,0,1,0,0,0,1 @ F,0,0,1,0,0,0,1 | F,0,0,1,0,0,0,1 @ F,0,0,1,0,0,0,1 @ F,0,0,1,0,0,0,1 @ F,0,0,1,0,0,0,1 @ F,0,0,1,0,0,0,1 | F,0,0,1,0,0,0,1 @ F,0,0,1,0,0,0,1 @ F,0,0,1,0,0,0,1 @ F,0,0,1,0,0,0,1 @ F,0,0,1,0,0,0,1 | F,0,0,1,0,0,0,1 @ F,0,0,1,0,0,0,1 @ F,0,0,1,0,0,0,1 @ F,0,0,1,0,0,0,1 @ F,0,0,1,0,0,0,1 | F,0,0,1,0,0,0,1 @ F,0,0,1,0,0,0,1 @ F,0,0,1,0,0,0,1 @ F,0,0,1,0,0,0,1 @ F,0,0,1,0,0,0,1 @ F,0,0,1,0,0,0,1 @ F,0,0,1,0,0,0,1 @ F,0,0,1,0,0,0,1 | F,0,0,1,0,0,0,1 @ F,0,0,1,0,0,0,1 @ F,0,0,1,0,0,0,1 @ F,0,0,1,0,0,0,1 @ F,0,0,1,0,0,0,1"
       radius="0"
       unit="px"
       method="auto"
       mode="F"
       chamfer_steps="1"
       flexible="false"
       use_knot_distance="true"
       apply_no_radius="true"
       apply_with_radius="true"
       only_selected="false"
       hide_knots="false" />
    <inkscape:path-effect
       effect="fillet_chamfer"
       id="path-effect12"
       is_visible="true"
       lpeversion="1"
       nodesatellites_param="F,0,0,1,0,9.2768362,0,1 @ F,0,1,1,0,9.2768362,0,1 @ F,0,1,1,0,9.2768362,0,1 @ F,0,1,1,0,9.2768362,0,1"
       radius="0"
       unit="px"
       method="auto"
       mode="F"
       chamfer_steps="1"
       flexible="false"
       use_knot_distance="true"
       apply_no_radius="true"
       apply_with_radius="true"
       only_selected="false"
       hide_knots="false" />
    <inkscape:path-effect
       effect="fillet_chamfer"
       id="path-effect11"
       is_visible="true"
       lpeversion="1"
       nodesatellites_param="F,0,1,1,0,9.2832561,0,1 @ F,0,1,1,0,9.2832561,0,1 @ F,0,0,1,0,9.2832561,0,1 @ F,0,1,1,0,9.2832561,0,1"
       radius="0"
       unit="px"
       method="auto"
       mode="F"
       chamfer_steps="1"
       flexible="false"
       use_knot_distance="true"
       apply_no_radius="true"
       apply_with_radius="true"
       only_selected="false"
       hide_knots="false" />
    <linearGradient
       id="linearGradient10"
       inkscape:collect="always">
      <stop
         style="stop-color:#00d6ff;stop-opacity:1;"
         offset="0"
         id="stop10" />
      <stop
         style="stop-color:#0097ff;stop-opacity:1;"
         offset="1"
         id="stop11" />
    </linearGradient>
    <inkscape:path-effect
       effect="fillet_chamfer"
       id="path-effect10"
       is_visible="true"
       lpeversion="1"
       nodesatellites_param="F,0,0,1,0,0.67483794,0,1 @ F,0,0,1,0,0.92504917,0,1 @ F,0,0,1,0,0.92504917,0,1 | F,0,0,1,0,0,0,1 @ F,0,0,1,0,2.9600186,0,1 @ F,0,0,1,0,2.9600186,0,1 @ F,0,0,1,0,0,0,1 @ F,0,0,1,0,1.5276987,0,1 @ F,0,0,1,0,1.0782002,0,1 @ F,0,1,1,0,1.0782002,0,1 @ F,0,0,1,0,1.5276987,0,1"
       radius="0"
       unit="px"
       method="auto"
       mode="F"
       chamfer_steps="1"
       flexible="false"
       use_knot_distance="true"
       apply_no_radius="true"
       apply_with_radius="true"
       only_selected="false"
       hide_knots="false" />
    <radialGradient
       inkscape:collect="always"
       xlink:href="#linearGradient10"
       id="radialGradient11"
       cx="27.734432"
       cy="11.548296"
       fx="27.734432"
       fy="11.548296"
       r="14"
       gradientUnits="userSpaceOnUse"
       gradientTransform="matrix(1.9283648,1.9283648,-1.9283648,1.9283648,-3.4783422,-64.203135)" />
    <inkscape:path-effect
       effect="fillet_chamfer"
       id="path-effect12-3"
       is_visible="true"
       lpeversion="1"
       nodesatellites_param="F,0,0,1,0,9.2768362,0,1 @ F,0,1,1,0,9.2768362,0,1 @ F,0,1,1,0,9.2768362,0,1 @ F,0,1,1,0,9.2768362,0,1"
       radius="0"
       unit="px"
       method="auto"
       mode="F"
       chamfer_steps="1"
       flexible="false"
       use_knot_distance="true"
       apply_no_radius="true"
       apply_with_radius="true"
       only_selected="false"
       hide_knots="false" />
    <inkscape:path-effect
       effect="fillet_chamfer"
       id="path-effect10-6"
       is_visible="true"
       lpeversion="1"
       nodesatellites_param="F,0,0,1,0,0.67483794,0,1 @ F,0,0,1,0,0.92504917,0,1 @ F,0,0,1,0,0.92504917,0,1 | F,0,0,1,0,0,0,1 @ F,0,0,1,0,2.9600186,0,1 @ F,0,0,1,0,2.9600186,0,1 @ F,0,0,1,0,0,0,1 @ F,0,0,1,0,1.5276987,0,1 @ F,0,0,1,0,1.0782002,0,1 @ F,0,1,1,0,1.0782002,0,1 @ F,0,0,1,0,1.5276987,0,1"
       radius="0"
       unit="px"
       method="auto"
       mode="F"
       chamfer_steps="1"
       flexible="false"
       use_knot_distance="true"
       apply_no_radius="true"
       apply_with_radius="true"
       only_selected="false"
       hide_knots="false" />
    <inkscape:path-effect
       effect="fillet_chamfer"
       id="path-effect12-2"
       is_visible="true"
       lpeversion="1"
       nodesatellites_param="F,0,0,1,0,9.2768362,0,1 @ F,0,1,1,0,9.2768362,0,1 @ F,0,1,1,0,9.2768362,0,1 @ F,0,1,1,0,9.2768362,0,1"
       radius="0"
       unit="px"
       method="auto"
       mode="F"
       chamfer_steps="1"
       flexible="false"
       use_knot_distance="true"
       apply_no_radius="true"
       apply_with_radius="true"
       only_selected="false"
       hide_knots="false" />
    <inkscape:path-effect
       effect="fillet_chamfer"
       id="path-effect12-3-3"
       is_visible="true"
       lpeversion="1"
       nodesatellites_param="F,0,0,1,0,9.2768362,0,1 @ F,0,1,1,0,9.2768362,0,1 @ F,0,1,1,0,9.2768362,0,1 @ F,0,1,1,0,9.2768362,0,1"
       radius="0"
       unit="px"
       method="auto"
       mode="F"
       chamfer_steps="1"
       flexible="false"
       use_knot_distance="true"
       apply_no_radius="true"
       apply_with_radius="true"
       only_selected="false"
       hide_knots="false" />
    <filter
       inkscape:collect="always"
       style="color-interpolation-filters:sRGB"
       id="filter19"
       x="-0.138894"
       y="-0.138894"
       width="1.277788"
       height="1.277788">
      <feGaussianBlur
         inkscape:collect="always"
         stdDeviation="1.7499508"
         id="feGaussianBlur19" />
    </filter>
    <inkscape:path-effect
       effect="fillet_chamfer"
       id="path-effect12-3-5"
       is_visible="true"
       lpeversion="1"
       nodesatellites_param="F,0,0,1,0,9.2768362,0,1 @ F,0,1,1,0,9.2768362,0,1 @ F,0,1,1,0,9.2768362,0,1 @ F,0,1,1,0,9.2768362,0,1"
       radius="0"
       unit="px"
       method="auto"
       mode="F"
       chamfer_steps="1"
       flexible="false"
       use_knot_distance="true"
       apply_no_radius="true"
       apply_with_radius="true"
       only_selected="false"
       hide_knots="false" />
    <filter
       inkscape:collect="always"
       style="color-interpolation-filters:sRGB"
       id="filter1"
       x="-0.15188874"
       y="-0.15188873"
       width="1.3037775"
       height="1.3037775">
      <feGaussianBlur
         inkscape:collect="always"
         stdDeviation="1.7197866"
         id="feGaussianBlur1" />
    </filter>
  </defs>
  <sodipodi:namedview
     id="namedview10"
     pagecolor="#ffffff"
     bordercolor="#000000"
     borderopacity="0.25"
     inkscape:showpageshadow="2"
     inkscape:pageopacity="0.0"
     inkscape:pagecheckerboard="0"
     inkscape:deskcolor="#d1d1d1"
     inkscape:zoom="10.186807"
     inkscape:cx="36.272406"
     inkscape:cy="36.125157"
     inkscape:window-width="1920"
     inkscape:window-height="1020"
     inkscape:window-x="0"
     inkscape:window-y="0"
     inkscape:window-maximized="1"
     inkscape:current-layer="svg10" />
  <path
     id="rect10-3-5"
     style="fill:#ececec;stroke-width:0.25079318;stroke-linecap:round;stroke-linejoin:round;stroke-miterlimit:2.1;paint-order:markers stroke fill;stroke:none;stroke-opacity:1;stroke-dasharray:none;fill-opacity:1"
     d="m 36.146337,9.0000001 h 9.446327 A 9.2768362,9.2768362 45 0 1 54.8695,18.276836 v 9.446328 A 9.2768362,9.2768362 135 0 1 45.592664,37 h -9.446327 a 9.2768362,9.2768362 45 0 1 -9.276836,-9.276836 v -9.446328 a 9.2768362,9.2768362 135 0 1 9.276836,-9.2768359 z"
     transform="matrix(1.1962047,0,0,1.1962047,-27.022586,14.252024)"
     inkscape:original-d="M 26.869501,9.0000001 H 54.8695 V 37 H 26.869501 Z"
     inkscape:path-effect="#path-effect12-3" />
  <path
     id="rect10-3-5-3"
     style="fill:none;stroke-width:0.25079318;stroke-linecap:round;stroke-linejoin:round;stroke-miterlimit:2.1;paint-order:markers stroke fill;stroke:#000000;stroke-opacity:1;stroke-dasharray:none;filter:url(#filter1)"
     d="m 36.146337,9.0000001 h 9.446327 A 9.2768362,9.2768362 45 0 1 54.8695,18.276836 v 9.446328 A 9.2768362,9.2768362 135 0 1 45.592664,37 h -9.446327 a 9.2768362,9.2768362 45 0 1 -9.276836,-9.276836 v -9.446328 a 9.2768362,9.2768362 135 0 1 9.276836,-9.2768359 z"
     transform="matrix(1.1962047,0,0,1.1962047,-27.022586,14.252024)"
     inkscape:original-d="M 26.869501,9.0000001 H 54.8695 V 37 H 26.869501 Z"
     inkscape:path-effect="#path-effect12-3-5" />
  <path
     id="path3"
     style="opacity:1;fill:#00b3ff;fill-opacity:1;stroke:#00b3ff;stroke-width:0.2;stroke-linecap:round;stroke-linejoin:round;stroke-dasharray:none;stroke-opacity:1;paint-order:normal"
     d="m 23.259766,29.837891 c -0.573264,2.063748 -1.362479,3.816645 -2.365404,5.25937 -0.329226,0.473598 -0.326108,1.187373 0.04961,1.62522 L 21.503906,37.375 c 0.619107,-0.619105 1.066399,-1.203109 1.341797,-1.753906 l 0.433433,-0.722084 a 1.703415,1.703415 150.4872 0 1 1.460503,-0.826744 h 7.916611 v -1.859375 h -8.054688 c 0.140271,-0.315333 0.262549,-0.639547 0.366969,-0.972763 0.168426,-0.537472 -0.194785,-1.082552 -0.746134,-1.198973 z m -6.040118,1.54429 c -0.371569,0.344454 -0.296013,0.908879 0.134765,1.299679 0.608463,0.551996 1.200906,1.187924 1.776446,1.906031 l 0.677259,-0.833018 c 0.367014,-0.451423 0.371517,-1.189127 -0.04184,-1.598077 -0.299985,-0.296789 -0.617151,-0.575052 -0.943975,-0.842463 -0.450214,-0.368371 -1.175995,-0.327679 -1.602657,0.06785 z M 10.25,34.633314 v 14.82567 h 0.901984 a 0.95543774,0.95543774 135 0 0 0.955438,-0.955438 v -1.034683 a 0.69542463,0.69542463 135 0 1 0.695425,-0.695425 h 0.365009 a 0.69542463,0.69542463 45 0 1 0.695425,0.695425 v 0.104996 a 0.95543774,0.95543774 45 0 0 0.955438,0.955438 h 0.903937 V 34.633314 A 2.3149553,2.3149553 45 0 0 13.407701,32.318359 H 12.564955 A 2.3149553,2.3149553 135 0 0 10.25,34.633314 Z m 2.300078,-0.561048 h 0.870547 a 0.44265585,0.44265585 45 0 1 0.442656,0.442656 V 44.51971 A 0.49982134,0.49982134 135 0 1 13.36346,45.019531 H 12.607243 A 0.49982134,0.49982134 45 0 1 12.107422,44.51971 l 0,-10.004788 a 0.44265585,0.44265585 135 0 1 0.442656,-0.442656 z m 10.074548,4.97797 c -0.04347,0.863408 -0.09329,1.714017 -0.149473,2.551779 -0.02328,0.347137 -0.325554,0.628454 -0.673471,0.628454 h -1.022385 v 0.917984 a 0.93943768,0.93943768 45 0 0 0.939438,0.939438 c 0.279393,0 0.478925,0.280754 0.443941,0.626907 -0.08101,0.801575 -0.167106,1.583445 -0.258227,2.345399 -0.199667,1.669617 0.960686,3.017928 2.642255,3.017928 h 5.009937 c -0.1377,1.239295 -0.447198,1.857422 -0.929688,1.857422 -0.481404,0 -1.168866,-0.06846 -2.064453,-0.205078 l 0.0946,0.538234 c 0.118188,0.672476 0.757647,1.330427 1.437239,1.394302 0.201387,0.01893 0.378961,0.0284 0.532619,0.0284 1.519707,0 2.457803,-1.020126 2.812901,-3.058138 0.05335,-0.306194 0.331649,-0.557096 0.642472,-0.557096 h 0.290762 a 0.90230294,0.90230294 135 0 0 0.902303,-0.902303 v -0.352578 a 0.50097917,0.50097917 45 0 0 -0.500979,-0.500979 h -0.485055 c -0.310823,0 -0.550493,-0.251674 -0.53311,-0.56201 0.05834,-1.041514 0.1361,-2.101536 0.233645,-3.182315 0.02433,-0.269629 0.26473,-0.488096 0.535455,-0.488096 h 0.957075 v -1.046719 a 0.81265617,0.81265617 45 0 0 -0.812656,-0.812656 h -0.03895 c -0.270725,0 -0.482042,-0.219316 -0.473102,-0.489893 0.02862,-0.86618 0.04985,-1.761513 0.06387,-2.686 0.02355,-1.553103 -1.238594,-2.812389 -2.791891,-2.812389 H 25.55468 c -1.553296,0 -2.851951,1.258688 -2.930054,2.810002 z m -5.440483,-1.130142 c -0.35196,0.326751 -0.242372,0.88959 0.207064,1.300191 0.57607,0.526294 1.120783,1.116262 1.634184,1.769949 l 0.673659,-0.88026 c 0.370081,-0.48358 0.32259,-1.226701 -0.128432,-1.635745 -0.234824,-0.212967 -0.472751,-0.419744 -0.713737,-0.620387 -0.467923,-0.38959 -1.226467,-0.348057 -1.672738,0.06625 z m 8.391594,0.076 h 3.727432 c 0.539101,0 0.976682,0.437045 0.970327,0.976105 -0.0088,0.742624 -0.02737,1.49509 -0.05552,2.257116 -0.02043,0.553036 -0.490825,1.001154 -1.04424,1.001154 h -3.880671 c -0.553415,0 -0.954367,-0.446128 -0.905748,-0.997397 0.0639,-0.724596 0.117817,-1.478735 0.162356,-2.262136 0.0306,-0.538227 0.486965,-0.974842 1.026066,-0.974842 z m 0.860456,0.991699 -0.36262,0.393555 c -0.241268,0.26185 -0.202353,0.642748 0.07533,0.865562 0.558194,0.447903 1.075797,0.936101 1.552272,1.465981 l 0.835388,-1.043577 c 0.222512,-0.277964 0.19577,-0.704765 -0.07534,-0.935491 -0.344913,-0.293539 -0.706203,-0.567858 -1.070178,-0.83774 -0.28564,-0.211798 -0.713584,-0.17014 -0.954852,0.09171 z M 25.1915,44.089844 h 3.882625 c 0.553415,0 0.980018,0.448107 0.945995,1.000473 -0.04159,0.67522 -0.09119,1.35834 -0.148831,2.049592 -0.05448,0.653333 -0.637136,1.182357 -1.29274,1.182357 h -4.001246 c -0.498976,0 -0.839875,-0.3995 -0.770252,-0.893588 0.105525,-0.748871 0.200607,-1.529262 0.285224,-2.341518 0.05734,-0.550433 0.54581,-0.997316 1.099225,-0.997316 z m -6.78525,0.205078 c -0.7814,2.404389 -1.826262,4.731175 -3.133099,6.978657 -0.314417,0.540729 -0.180792,1.278456 0.316219,1.658263 l 0.855942,0.654096 c 1.351545,-2.232826 2.426879,-4.541923 3.22664,-6.925266 0.226699,-0.675578 -0.08958,-1.558036 -0.677032,-1.961474 z m 7.543982,0.925737 -0.0098,0.0099 c -0.339225,0.33976 -0.297574,0.842362 0.0711,1.149787 0.510663,0.425831 1.004884,0.901174 1.482652,1.426341 l 0.772575,-0.89178 c 0.314373,-0.362878 0.281607,-0.920015 -0.09527,-1.21733 -0.279823,-0.220752 -0.569697,-0.431339 -0.869686,-0.631767 -0.399152,-0.266682 -1.012307,-0.184865 -1.351532,0.154895 z"
     inkscape:path-effect="#path-effect4"
     inkscape:original-d="m 23.259766,29.837891 c -0.688497,2.478588 -1.68849,4.508796 -2.996094,6.091797 L 21.503906,37.375 c 0.619107,-0.619105 1.066399,-1.203109 1.341797,-1.753906 l 0.929688,-1.548828 h 8.880859 v -1.859375 h -8.054688 c 0.275399,-0.619106 0.481443,-1.272442 0.619141,-1.960938 z m -5.267578,0.828125 -1.445313,1.339843 c 0.894504,0.687414 1.756705,1.549829 2.583984,2.582032 L 20.472656,32.9375 C 19.764305,32.052415 18.890303,31.343374 17.992188,30.666016 Z M 10.25,32.318359 v 17.140625 h 1.857422 v -2.685546 h 1.755859 v 1.755859 h 1.859375 V 32.318359 Z m 1.857422,1.753907 h 1.755859 v 10.947265 h -1.755859 z m 10.634766,2.167968 c -0.06939,2.065491 -0.172849,4.062444 -0.310547,5.990235 h -1.652344 v 1.857422 h 1.445312 c -0.206006,2.133797 -0.447258,4.131835 -0.722656,5.990234 h 8.054688 c -0.1377,1.239295 -0.447198,1.857422 -0.929688,1.857422 -0.481404,0 -1.168866,-0.06846 -2.064453,-0.205078 l 0.308594,1.755859 c 0.756804,0.136617 1.342761,0.205078 1.755859,0.205078 1.652393,0 2.617181,-1.206038 2.892578,-3.615234 h 1.75586 v -1.75586 h -1.548829 c 0.06831,-1.376994 0.170893,-2.786036 0.308594,-4.232421 h 1.447266 v -1.859375 h -1.341797 c 0.0683,-1.8584 0.101563,-3.854484 0.101563,-5.988282 z m -4.75,0.929688 -1.445313,1.341797 c 0.894504,0.687412 1.720628,1.513535 2.478516,2.478515 l 1.34375,-1.755859 c -0.757888,-0.756804 -1.550757,-1.444264 -2.376953,-2.064453 z m 6.607421,0.826172 h 5.679688 c 0,1.376993 -0.03521,2.789073 -0.103516,4.234375 h -5.884765 c 0.137699,-1.307603 0.239203,-2.719683 0.308593,-4.234375 z m 2.273438,0.517578 -1.236328,1.341797 c 0.756804,0.550797 1.445346,1.168924 2.064453,1.857422 l 1.238281,-1.546875 c -0.635739,-0.61391 -1.358296,-1.128246 -2.066406,-1.652344 z m -2.683594,5.576172 h 5.886719 c -0.06939,1.376993 -0.172847,2.78712 -0.310547,4.232422 h -6.091797 c 0.206008,-1.307602 0.377927,-2.717729 0.515625,-4.232422 z m -5.783203,0.205078 c -0.894459,2.752274 -2.134134,5.402864 -3.716797,7.949219 l 1.755859,1.341797 c 1.583001,-2.615204 2.787086,-5.335039 3.613282,-8.15625 z m 8.158203,0.310547 -1.238281,1.240234 c 0.756804,0.550798 1.47947,1.204133 2.167969,1.960938 l 1.341797,-1.548829 c -0.688499,-0.620189 -1.445289,-1.170938 -2.271485,-1.652343 z"
     sodipodi:nodetypes="ccccccccccccccccccccccccccccccccccccsccscccccccccccccccccccccccccccccccccccccccc"
     transform="matrix(1.0675503,0,0,1.0675503,-1.4770699,-2.8212162)" />
  <path
     id="rect10-3"
     style="fill:url(#radialGradient11);stroke-width:0.217316;stroke-linecap:round;stroke-linejoin:round;stroke-miterlimit:2.1;paint-order:markers stroke fill"
     d="m 36.146337,9.0000001 h 9.446327 A 9.2768362,9.2768362 45 0 1 54.8695,18.276836 v 9.446328 A 9.2768362,9.2768362 135 0 1 45.592664,37 h -9.446327 a 9.2768362,9.2768362 45 0 1 -9.276836,-9.276836 v -9.446328 a 9.2768362,9.2768362 135 0 1 9.276836,-9.2768359 z"
     transform="matrix(1.1962047,0,0,1.1962047,-6.7537815,-5.2772954)"
     inkscape:original-d="M 26.869501,9.0000001 H 54.8695 V 37 H 26.869501 Z"
     inkscape:path-effect="#path-effect12" />
  <path
     style="fill:#ffffff"
     d="m 40.983609,16.220585 c 0.360246,1.508361 1.265822,5.290677 1.905421,7.881693 C 43.011463,24.598252 42.697841,25 42.186951,25 h -2.840902 c -0.51089,0 -0.81419,-0.399054 -0.681924,-0.892525 0.686166,-2.560014 1.629669,-6.372792 2.002242,-7.888149 0.08895,-0.361784 0.230661,-0.361257 0.317242,0.0013 z M 50.739,34 44.739835,14.824986 A 4.027588,4.027588 36.313498 0 0 40.895981,12 h -0.05296 a 4.027588,4.027588 143.6865 0 0 -3.843854,2.824986 L 31,34 h 3.533301 a 1.9948825,1.9948825 142.55479 0 0 1.925918,-1.474885 L 37.12995,30.040926 A 1.4079234,1.4079234 142.55479 0 1 38.4892,29 h 4.5586 a 1.4077875,1.4077875 37.447883 0 1 1.359153,1.040952 l 0.670466,2.484126 A 1.9946899,1.9946899 37.447883 0 0 47.003199,34 Z"
     id="path8"
     sodipodi:nodetypes="ccccccccccccc"
     transform="matrix(0.97515178,0,0,0.97515178,2.280543,-0.19307729)"
     inkscape:original-d="m 40.827,15.564153 c 0,0 1.5,6.298847 2.285,9.435847 h -4.691 c 0.851,-3.063 2.406,-9.435847 2.406,-9.435847 z M 50.739,34 43.856,12 H 37.883 L 31,34 h 5.061 l 1.35,-5 h 6.715 l 1.3495,5 z"
     inkscape:path-effect="#path-effect10" />
  <path
     id="path18"
     style="mix-blend-mode:normal;fill:none;stroke:#000000;stroke-width:0.181281;stroke-linecap:round;stroke-linejoin:round;stroke-miterlimit:2.1;paint-order:markers stroke fill;filter:url(#filter19)"
     d="M 35.658203,7.5546875 A 10.234738,10.234738 0 0 0 25.423828,17.789062 V 28.210938 A 10.234738,10.234738 0 0 0 35.658203,38.445312 H 46.080078 A 10.234738,10.234738 0 0 0 56.314453,28.210938 V 17.789062 A 10.234738,10.234738 0 0 0 46.080078,7.5546875 Z m 5.1875,5.5527345 h 0.04687 a 3.6223348,3.6223348 0 0 1 3.457031,2.541016 l 5.396485,17.24414 H 46.386714 A 1.7939856,1.7939856 0 0 1 44.654292,31.566406 L 44.050776,29.332031 A 1.2661368,1.2661368 0 0 0 42.82812,28.396484 h -4.099609 a 1.2662591,1.2662591 0 0 0 -1.222657,0.935547 l -0.603515,2.234375 a 1.7941588,1.7941588 0 0 1 -1.732422,1.326172 h -3.177734 l 5.396484,-17.24414 a 3.6223348,3.6223348 0 0 1 3.457031,-2.541016 z m -0.01563,3.550781 c -0.0516,-2.01e-4 -0.102578,0.08145 -0.142578,0.244141 -0.335085,1.362881 -1.183658,4.791324 -1.800781,7.09375 -0.118957,0.443817 0.153796,0.802734 0.613281,0.802734 h 2.554688 c 0.459484,0 0.740972,-0.360571 0.630859,-0.80664 -0.575243,-2.330308 -1.388893,-5.733255 -1.712891,-7.089844 -0.03893,-0.16302 -0.09098,-0.24394 -0.142578,-0.244141 z"
     transform="matrix(1.0842481,0,0,1.0842481,-2.178169,-2.7022926)" />
</svg>
