<?xml version="1.0" encoding="UTF-8" standalone="no"?>
<svg
   width="64"
   height="64"
   version="1"
   id="svg3"
   sodipodi:docname="preferences-desktop-emoticons.svg"
   inkscape:version="1.3.2 (091e20ef0f, 2023-11-25, custom)"
   xmlns:inkscape="http://www.inkscape.org/namespaces/inkscape"
   xmlns:sodipodi="http://sodipodi.sourceforge.net/DTD/sodipodi-0.dtd"
   xmlns:xlink="http://www.w3.org/1999/xlink"
   xmlns="http://www.w3.org/2000/svg"
   xmlns:svg="http://www.w3.org/2000/svg">
  <defs
     id="defs3">
    <linearGradient
       id="linearGradient4"
       inkscape:collect="always">
      <stop
         style="stop-color:#fecd38;stop-opacity:1;"
         offset="0"
         id="stop4" />
      <stop
         style="stop-color:#fe9e38;stop-opacity:1;"
         offset="1"
         id="stop5" />
    </linearGradient>
    <inkscape:path-effect
       effect="fillet_chamfer"
       id="path-effect4"
       is_visible="true"
       lpeversion="1"
       nodesatellites_param="F,0,0,1,0,0,0,1 @ F,0,0,1,0,0,0,1 @ F,0,0,1,0,0,0,1 @ F,0,0,1,0,0,0,1 | F,0,0,1,0,0,0,1 @ F,0,0,1,0,0,0,1 @ F,0,0,1,0,0,0,1 @ F,0,0,1,0,0,0,1 | F,0,0,1,0,0.99333647,0,1 @ F,0,0,1,0,0,0,1 @ F,0,0,1,0,0.99333647,0,1 @ F,0,1,1,0,0.47327105,0,1 @ F,0,0,1,0,0,0,1 @ F,0,0,1,0,0.47327105,0,1"
       radius="0"
       unit="px"
       method="auto"
       mode="F"
       chamfer_steps="1"
       flexible="false"
       use_knot_distance="true"
       apply_no_radius="true"
       apply_with_radius="true"
       only_selected="false"
       hide_knots="false" />
    <inkscape:path-effect
       effect="fillet_chamfer"
       id="path-effect3"
       is_visible="true"
       lpeversion="1"
       nodesatellites_param=""
       radius="0"
       unit="px"
       method="auto"
       mode="F"
       chamfer_steps="1"
       flexible="false"
       use_knot_distance="true"
       apply_no_radius="true"
       apply_with_radius="true"
       only_selected="false"
       hide_knots="false" />
    <radialGradient
       inkscape:collect="always"
       xlink:href="#linearGradient4"
       id="radialGradient5"
       cx="26.988974"
       cy="24.559582"
       fx="26.988974"
       fy="24.559582"
       r="28"
       gradientUnits="userSpaceOnUse"
       gradientTransform="matrix(1.4591232,-0.39097088,0.39097085,1.4591231,-27.203009,-2.1808709)" />
    <inkscape:path-effect
       effect="fillet_chamfer"
       id="path-effect4-3"
       is_visible="true"
       lpeversion="1"
       nodesatellites_param="F,0,0,1,0,0,0,1 @ F,0,0,1,0,0,0,1 @ F,0,0,1,0,0,0,1 @ F,0,0,1,0,0,0,1 | F,0,0,1,0,0,0,1 @ F,0,0,1,0,0,0,1 @ F,0,0,1,0,0,0,1 @ F,0,0,1,0,0,0,1 | F,0,0,1,0,0.99333647,0,1 @ F,0,0,1,0,0,0,1 @ F,0,0,1,0,0.99333647,0,1 @ F,0,1,1,0,0.47327105,0,1 @ F,0,0,1,0,0,0,1 @ F,0,0,1,0,0.47327105,0,1"
       radius="0"
       unit="px"
       method="auto"
       mode="F"
       chamfer_steps="1"
       flexible="false"
       use_knot_distance="true"
       apply_no_radius="true"
       apply_with_radius="true"
       only_selected="false"
       hide_knots="false" />
    <filter
       inkscape:collect="always"
       style="color-interpolation-filters:sRGB"
       id="filter5"
       x="-0.14178566"
       y="-0.14178566"
       width="1.2835713"
       height="1.2835713">
      <feGaussianBlur
         inkscape:collect="always"
         stdDeviation="1.591666"
         id="feGaussianBlur5" />
    </filter>
    <filter
       inkscape:collect="always"
       style="color-interpolation-filters:sRGB"
       id="filter6"
       x="-0.070892828"
       y="-0.070892828"
       width="1.1417857"
       height="1.1417857">
      <feGaussianBlur
         inkscape:collect="always"
         stdDeviation="1.591666"
         id="feGaussianBlur6" />
    </filter>
  </defs>
  <sodipodi:namedview
     id="namedview3"
     pagecolor="#ffffff"
     bordercolor="#000000"
     borderopacity="0.25"
     inkscape:showpageshadow="2"
     inkscape:pageopacity="0.0"
     inkscape:pagecheckerboard="0"
     inkscape:deskcolor="#d1d1d1"
     inkscape:zoom="9.1260969"
     inkscape:cx="31.393487"
     inkscape:cy="30.571668"
     inkscape:window-width="1920"
     inkscape:window-height="1020"
     inkscape:window-x="0"
     inkscape:window-y="0"
     inkscape:window-maximized="1"
     inkscape:current-layer="svg3" />
  <rect
     style="fill:url(#radialGradient5)"
     width="56"
     height="56"
     x="4"
     y="4"
     rx="28"
     ry="28"
     id="rect1" />
  <path
     id="circle1"
     style="fill:#3f3f3f;stroke-width:1.4"
     d="m 22,18 c -2.209185,-1.1e-4 -4.00011,1.790815 -4,4 -1.1e-4,2.209185 1.790815,4.00011 4,4 2.209185,1.1e-4 4.00011,-1.790815 4,-4 1.1e-4,-2.209185 -1.790815,-4.00011 -4,-4 z m 20,0 c -2.209185,-1.1e-4 -4.00011,1.790815 -4,4 -1.1e-4,2.209185 1.790815,4.00011 4,4 2.209185,1.1e-4 4.00011,-1.790815 4,-4 1.1e-4,-2.209185 -1.790815,-4.00011 -4,-4 z M 21.806533,39.494084 C 24.082561,43.539728 27.895092,45.995941 32,46 c 4.10214,-0.0072 7.911202,-2.463019 10.185694,-6.505985 0.268921,-0.478015 0.01411,-0.880734 -0.534499,-0.880734 h -0.02949 c -0.26138,0 -0.599275,0.170444 -0.762422,0.374641 -2.310999,2.89247 -5.507925,4.540099 -8.859287,4.549187 -3.352729,-0.0078 -6.551268,-1.655556 -8.863203,-4.549201 -0.163141,-0.204189 -0.501032,-0.374627 -0.762412,-0.374627 h -0.03339 c -0.548604,0 -0.803405,0.402752 -0.534459,0.880803 z"
     inkscape:path-effect="#path-effect4"
     inkscape:original-d="M 22 18 A 3.9998002 3.9998002 0 0 0 18 22 A 3.9998002 3.9998002 0 0 0 22 26 A 3.9998002 3.9998002 0 0 0 26 22 A 3.9998002 3.9998002 0 0 0 22 18 z M 42 18 A 3.9998002 3.9998002 0 0 0 38 22 A 3.9998002 3.9998002 0 0 0 42 26 A 3.9998002 3.9998002 0 0 0 46 22 A 3.9998002 3.9998002 0 0 0 42 18 z M 21.347656 38.613281 A 12.31258 14.7756 0 0 0 32 46 A 12.31258 14.7756 0 0 0 42.644531 38.613281 L 41.148438 38.613281 A 12.31258 14.7756 0 0 1 32 43.537109 A 12.31258 14.7756 0 0 1 22.847656 38.613281 L 21.347656 38.613281 z " />
  <rect
     style="fill:none;stroke:#000000;stroke-opacity:1;stroke-width:0.3;stroke-dasharray:none;filter:url(#filter6)"
     width="56"
     height="56"
     x="3.9010406"
     y="4.0905519"
     rx="28"
     ry="28"
     id="rect1-3" />
  <path
     id="circle1-5"
     style="fill:none;stroke-width:0.3;stroke:#000000;stroke-opacity:1;stroke-dasharray:none;filter:url(#filter5)"
     d="m 22,18 c -2.209185,-1.1e-4 -4.00011,1.790815 -4,4 -1.1e-4,2.209185 1.790815,4.00011 4,4 2.209185,1.1e-4 4.00011,-1.790815 4,-4 1.1e-4,-2.209185 -1.790815,-4.00011 -4,-4 z m 20,0 c -2.209185,-1.1e-4 -4.00011,1.790815 -4,4 -1.1e-4,2.209185 1.790815,4.00011 4,4 2.209185,1.1e-4 4.00011,-1.790815 4,-4 1.1e-4,-2.209185 -1.790815,-4.00011 -4,-4 z M 21.806533,39.494084 C 24.082561,43.539728 27.895092,45.995941 32,46 c 4.10214,-0.0072 7.911202,-2.463019 10.185694,-6.505985 0.268921,-0.478015 0.01411,-0.880734 -0.534499,-0.880734 h -0.02949 c -0.26138,0 -0.599275,0.170444 -0.762422,0.374641 -2.310999,2.89247 -5.507925,4.540099 -8.859287,4.549187 -3.352729,-0.0078 -6.551268,-1.655556 -8.863203,-4.549201 -0.163141,-0.204189 -0.501032,-0.374627 -0.762412,-0.374627 h -0.03339 c -0.548604,0 -0.803405,0.402752 -0.534459,0.880803 z"
     inkscape:path-effect="#path-effect4-3"
     inkscape:original-d="m 22,18 a 3.9998002,3.9998002 0 0 0 -4,4 3.9998002,3.9998002 0 0 0 4,4 3.9998002,3.9998002 0 0 0 4,-4 3.9998002,3.9998002 0 0 0 -4,-4 z m 20,0 a 3.9998002,3.9998002 0 0 0 -4,4 3.9998002,3.9998002 0 0 0 4,4 3.9998002,3.9998002 0 0 0 4,-4 3.9998002,3.9998002 0 0 0 -4,-4 z M 21.347656,38.613281 A 12.31258,14.7756 0 0 0 32,46 12.31258,14.7756 0 0 0 42.644531,38.613281 H 41.148438 A 12.31258,14.7756 0 0 1 32,43.537109 12.31258,14.7756 0 0 1 22.847656,38.613281 Z"
     transform="translate(-0.09895938,0.09055199)" />
</svg>
