<?xml version="1.0" encoding="UTF-8" standalone="no"?>
<svg
   width="64"
   height="64"
   version="1.1"
   id="svg7"
   sodipodi:docname="preferences-system-services.svg"
   inkscape:version="1.3.2 (091e20ef0f, 2023-11-25, custom)"
   xmlns:inkscape="http://www.inkscape.org/namespaces/inkscape"
   xmlns:sodipodi="http://sodipodi.sourceforge.net/DTD/sodipodi-0.dtd"
   xmlns:xlink="http://www.w3.org/1999/xlink"
   xmlns="http://www.w3.org/2000/svg"
   xmlns:svg="http://www.w3.org/2000/svg">
  <defs
     id="defs7">
    <filter
       inkscape:collect="always"
       style="color-interpolation-filters:sRGB"
       id="filter7"
       x="-0.1136188"
       y="-0.10493447"
       width="1.2272376"
       height="1.2098689">
      <feGaussianBlur
         inkscape:collect="always"
         stdDeviation="2.2125405"
         id="feGaussianBlur7" />
    </filter>
    <filter
       inkscape:collect="always"
       style="color-interpolation-filters:sRGB"
       id="filter8"
       x="-0.1346786"
       y="-0.12282484"
       width="1.2693572"
       height="1.2456497">
      <feGaussianBlur
         inkscape:collect="always"
         stdDeviation="2.2125405"
         id="feGaussianBlur8" />
    </filter>
    <radialGradient
       inkscape:collect="always"
       xlink:href="#linearGradient17"
       id="radialGradient3-5"
       cx="56.666248"
       cy="41.04277"
       fx="56.666248"
       fy="41.04277"
       r="26.201006"
       gradientTransform="matrix(0.29010917,1.4178875,-1.6766772,0.34305926,71.050803,-70.7053)"
       gradientUnits="userSpaceOnUse" />
    <linearGradient
       id="linearGradient17"
       inkscape:collect="always">
      <stop
         style="stop-color:#5b7d90;stop-opacity:1;"
         offset="0"
         id="stop16" />
      <stop
         style="stop-color:#48515e;stop-opacity:1;"
         offset="1"
         id="stop17" />
    </linearGradient>
    <radialGradient
       inkscape:collect="always"
       xlink:href="#linearGradient12"
       id="radialGradient7-3"
       cx="10.168851"
       cy="19.316441"
       fx="10.168851"
       fy="19.316441"
       r="25.7041"
       gradientTransform="matrix(0.30210108,1.3565133,-1.9343,0.43077656,47.312367,-2.1269029)"
       gradientUnits="userSpaceOnUse" />
    <linearGradient
       id="linearGradient12"
       inkscape:collect="always">
      <stop
         style="stop-color:#4b6777;stop-opacity:1;"
         offset="0"
         id="stop11" />
      <stop
         style="stop-color:#38404b;stop-opacity:1;"
         offset="1"
         id="stop12" />
    </linearGradient>
  </defs>
  <sodipodi:namedview
     id="namedview7"
     pagecolor="#ffffff"
     bordercolor="#000000"
     borderopacity="0.25"
     inkscape:showpageshadow="2"
     inkscape:pageopacity="0.0"
     inkscape:pagecheckerboard="0"
     inkscape:deskcolor="#d1d1d1"
     inkscape:zoom="12.90625"
     inkscape:cx="32.038741"
     inkscape:cy="32"
     inkscape:window-width="1920"
     inkscape:window-height="1020"
     inkscape:window-x="0"
     inkscape:window-y="0"
     inkscape:window-maximized="1"
     inkscape:current-layer="svg7" />
  <path
     style="color:#000000;fill:url(#radialGradient7-3);stroke-width:0.869373;-inkscape-stroke:none"
     d="m 30.782538,7.6575681 c -2.697142,0 -4.868147,2.1710053 -4.868147,4.8681469 v 2.282103 a 18.256824,18.256824 0 0 0 -5.757895,3.326369 l -1.978163,-1.141052 c -2.335792,-1.348571 -5.302468,-0.5529 -6.651038,1.782893 l -1.217462,2.105512 c -1.3485704,2.335794 -0.5528997,5.302469 1.782894,6.65104 l 1.969672,1.137655 A 18.256824,18.256824 0 0 0 13.743175,32 a 18.256824,18.256824 0 0 0 0.319224,3.329765 l -1.969673,1.137655 c -2.3357927,1.348571 -3.1314634,4.315247 -1.782893,6.65104 l 1.217462,2.105512 c 1.34857,2.335793 4.315246,3.131464 6.651038,1.782893 l 1.964579,-1.13426 a 18.256824,18.256824 0 0 0 5.771479,3.314483 v 2.287198 c 0,2.697141 2.171005,4.868146 4.868147,4.868146 h 2.434923 c 2.697141,0 4.868146,-2.171005 4.868146,-4.868146 v -2.295687 a 18.256824,18.256824 0 0 0 5.757896,-3.312785 l 1.978162,1.141051 c 2.335793,1.348571 5.302469,0.5529 6.651039,-1.782893 l 1.217462,-2.105512 c 1.348571,-2.335793 0.552899,-5.302469 -1.782893,-6.65104 L 49.9376,35.329765 A 18.256824,18.256824 0 0 0 50.256823,32 18.256824,18.256824 0 0 0 49.9376,28.670235 l 1.969673,-1.137655 c 2.335793,-1.348571 3.131464,-4.315246 1.782893,-6.65104 l -1.217462,-2.105512 c -1.34857,-2.335794 -4.315247,-3.131464 -6.651039,-1.782893 l -1.964578,1.13426 a 18.256824,18.256824 0 0 0 -5.77148,-3.316181 v -2.285499 c 0,-2.6971416 -2.171005,-4.8681469 -4.868146,-4.8681469 z"
     id="path1" />
  <path
     style="color:#000000;fill:url(#radialGradient3-5);stroke-width:0.869373;-inkscape-stroke:none"
     d="m 30.783388,5.7456468 c -3.723486,0 -6.781785,3.0566021 -6.781786,6.7800872 v 1.06634 c -1.399466,0.609041 -2.714339,1.370612 -3.941042,2.278707 l -0.925407,-0.533171 -0.0017,-0.0017 c -3.224902,-1.860468 -7.401054,-0.739936 -9.2625135,2.484205 l -1.2174612,2.103814 v 0.0017 c -1.862074,3.225167 -0.7423208,7.400682 2.4824667,9.262513 l 0.91352,0.528076 c -0.08937,0.757897 -0.216108,1.513109 -0.219041,2.277009 v 0.0068 0.0068 c 0.0029,0.7639 0.129673,1.519112 0.219041,2.277009 l -0.91352,0.528087 C 7.91112,36.673728 6.7913659,40.849242 8.6534403,44.074449 v 0.0017 l 1.2174612,2.105471 c 1.8621595,3.223907 6.0394265,4.342622 9.2642515,2.480769 l 0.913521,-0.528076 c 1.230591,0.906748 2.549781,1.665547 3.952928,2.271914 v 1.068039 c 1e-6,3.723484 3.0583,6.780087 6.781786,6.780087 h 2.434922 c 3.723485,0 6.780087,-3.056603 6.780087,-6.780087 v -1.078227 c 1.397934,-0.605911 2.71307,-1.362597 3.939345,-2.266821 l 0.928802,0.534868 c 3.224561,1.860289 7.400767,0.740795 9.262553,-2.482466 v -0.0017 l 1.217462,-2.103773 v -0.0017 c 1.862074,-3.225208 0.742319,-7.400722 -2.482467,-9.262554 l -0.91352,-0.528035 c 0.08937,-0.757897 0.216109,-1.513109 0.219041,-2.277009 v -0.0068 -0.0068 c -0.003,-0.7639 -0.129672,-1.519111 -0.219041,-2.277009 l 0.91352,-0.528076 c 3.224787,-1.86183 4.344541,-6.037345 2.482467,-9.262553 v -0.0017 l -1.217462,-2.103844 v -0.0017 C 52.266939,14.59453 48.089671,13.475814 44.864846,15.337668 l -0.91352,0.528076 c -1.230609,-0.907208 -2.549635,-1.666861 -3.952929,-2.273612 v -1.06634 c 0,-3.7234851 -3.056602,-6.7800872 -6.780087,-6.7800872 z m 0,3.8238809 h 2.434922 c 1.670792,0 2.954508,1.2854133 2.954508,2.9562063 v 3.640497 l 1.27859,0.449969 c 1.889668,0.664613 3.641175,1.670233 5.166993,2.968092 l 1.027286,0.874466 3.132797,-1.81006 c 1.446373,-0.835064 3.202521,-0.363476 4.037828,1.08332 v 0.0017 l 1.217462,2.105512 c 0.833901,1.446096 0.362986,3.202802 -1.08332,4.037828 l -3.144683,1.815155 0.253,1.334622 c 0.185859,0.980586 0.281019,1.975162 0.285263,2.973187 -0.0043,0.998025 -0.0994,1.992601 -0.285263,2.973186 l -0.253,1.334623 3.144683,1.815155 c 1.446305,0.835024 1.91722,2.591733 1.08332,4.037828 l -1.217462,2.105511 v 0.0017 c -0.835307,1.446794 -2.591453,1.918385 -4.037828,1.08332 v -0.0017 l -3.14808,-1.815155 -1.025587,0.874466 c -1.522418,1.295495 -3.269959,2.301357 -5.155108,2.966395 l -1.276891,0.449968 v 3.648988 c 0,1.670793 -1.283716,2.956206 -2.954508,2.956206 h -2.434922 c -1.670793,0 -2.956207,-1.285413 -2.956207,-2.956206 V 47.832108 L 26.548592,47.38214 c -1.889556,-0.664154 -3.641055,-1.669075 -5.166993,-2.966394 l -1.027286,-0.874466 -3.132798,1.81006 c -1.446374,0.835065 -3.202521,0.363475 -4.037828,-1.083319 v -0.0017 l -1.217461,-2.103812 v -0.0017 c -0.833901,-1.446053 -0.362987,-3.202762 1.083319,-4.037787 l 3.144684,-1.815155 -0.253001,-1.334623 c -0.185859,-0.980624 -0.281018,-1.9752 -0.285263,-2.973225 0.0043,-0.998025 0.0994,-1.992601 0.285263,-2.973186 l 0.253001,-1.334623 -3.144684,-1.815155 c -1.446307,-0.835025 -1.91722,-2.591732 -1.083319,-4.037828 v -0.0017 l 1.217461,-2.103813 v -0.0017 c 0.835307,-1.446794 2.591454,-1.918385 4.037828,-1.08332 l 0.0017,0.0017 3.148078,1.815155 1.027287,-0.877863 c 1.521455,-1.299823 3.269055,-2.30787 5.155107,-2.976582 l 1.273495,-0.451666 v -3.633665 c 0,-1.670793 1.285414,-2.9562062 2.956207,-2.9562062 z"
     id="path2" />
  <path
     d="m 30.783227,9.5693359 c -1.670788,10e-8 -2.955078,1.2862431 -2.955078,2.9570311 v 3.632812 l -1.275391,0.451172 c -1.886046,0.66871 -3.632846,1.676743 -5.154297,2.976562 l -1.027343,0.878907 -3.148438,-1.814453 -0.002,-0.002 c -1.44637,-0.835062 -3.201805,-0.364758 -4.037109,1.082032 v 0.002 l -1.216797,2.103515 v 0.002 c -0.833899,1.446091 -0.364272,3.20404 1.082031,4.039062 l 3.144531,1.814453 -0.251953,1.333985 c -0.185862,0.980582 -0.280856,1.976587 -0.285156,2.974609 0.0042,0.998022 0.0993,1.992035 0.285156,2.972656 l 0.251953,1.333985 -3.144531,1.816406 c -1.446302,0.835022 -1.91593,2.591061 -1.082031,4.037109 v 0.002 l 1.216844,2.103422 v 0.002 c 0.835304,1.44679 2.590739,1.917094 4.037109,1.082031 l 3.132813,-1.808593 1.027343,0.873046 c 1.525934,1.297316 3.278419,2.302645 5.167969,2.966797 l 1.279297,0.451172 v 3.640625 c 0,1.670788 1.28429,2.957031 2.955078,2.957031 h 2.435547 c 1.670787,1e-6 2.953125,-1.286243 2.953125,-2.957031 v -3.648437 l 1.277344,-0.449219 c 1.885143,-0.665036 3.633836,-1.671306 5.15625,-2.966797 l 1.02539,-0.875 3.148438,1.816406 c 1.446371,0.835063 3.201805,0.364759 4.037109,-1.082031 v -0.002 l 1.216797,-2.105469 c 0.833898,-1.44609 0.36427,-3.202088 -1.082031,-4.037109 l -3.144531,-1.816406 0.251953,-1.333985 c 0.185862,-0.980582 0.280856,-1.974634 0.285156,-2.972656 -0.0042,-0.998022 -0.0993,-1.994026 -0.285156,-2.974609 l -0.251953,-1.333985 3.144531,-1.814453 c 1.446302,-0.835023 1.91593,-2.592971 1.082031,-4.039062 L 50.81643,19.733398 v -0.002 c -0.835304,-1.446792 -2.59074,-1.917093 -4.037109,-1.082032 l -3.132813,1.808594 -1.027343,-0.873047 c -1.525814,-1.297855 -3.278307,-2.304139 -5.167969,-2.96875 L 36.171899,16.166945 V 12.52632 c 0,-1.670788 -1.282338,-2.9570311 -2.953125,-2.9570311 z m 1.216797,14.3007811 c 4.498955,0 8.146484,3.64753 8.146484,8.146484 0,4.498954 -3.647529,8.146484 -8.146484,8.146484 -4.498954,0 -8.146484,-3.64753 -8.146484,-8.146484 0,-4.498954 3.64753,-8.146484 8.146484,-8.146484 z"
     style="fill:none;stroke:#000000;stroke-width:0.4;stroke-dasharray:none;filter:url(#filter8)"
     id="path6-3" />
  <path
     d="m 30.783208,5.7450571 c -3.723478,0 -6.781249,3.0577723 -6.78125,6.7812499 v 1.066406 c -1.399463,0.60904 -2.714706,1.36925 -3.941406,2.277344 l -0.925781,-0.533203 h -0.002 c -3.224849,-1.860465 -7.400217,-0.741713 -9.2616726,2.482421 l -1.2167969,2.105469 v 0.002 c -1.8620703,3.225161 -0.7423591,7.399892 2.4824225,9.261719 l 0.912109,0.527344 c -0.08937,0.757895 -0.215817,1.513445 -0.21875,2.277343 v 0.0078 0.0059 c 0.0029,0.763899 0.129382,1.519449 0.21875,2.277344 l -0.912109,0.527344 C 7.9119054,36.673347 6.7922302,40.850009 8.6543015,44.07521 v 0.002 l 1.2167969,2.105469 c 1.8621556,3.2239 6.0388536,4.342318 9.2636726,2.480468 l 0.914062,-0.529297 c 1.230589,0.906747 2.549981,1.667072 3.953125,2.273438 v 1.066406 c 1e-6,3.723477 3.057772,6.78125 6.78125,6.78125 h 2.435547 c 3.723478,0 6.779297,-3.057773 6.779297,-6.78125 v -1.078125 c 1.397931,-0.60591 2.71318,-1.361403 3.939453,-2.265625 l 0.929687,0.535156 c 3.224555,1.860286 7.399937,0.740833 9.261719,-2.482421 v -0.002 l 1.216797,-2.103515 v -0.002 c 1.86207,-3.225202 0.742358,-7.401844 -2.482422,-9.263672 l -0.912109,-0.527344 c 0.08937,-0.757895 0.215818,-1.513445 0.21875,-2.277344 v -0.0059 -0.0078 c -0.003,-0.763898 -0.129381,-1.519447 -0.21875,-2.277343 l 0.912109,-0.527344 c 3.224781,-1.861826 4.344492,-6.03847 2.482422,-9.263672 l -1.216797,-2.105469 c -1.862154,-3.22383 -6.038853,-4.344272 -9.263672,-2.482421 l -0.914062,0.529296 C 42.72057,14.958945 41.401343,14.199464 39.998052,13.592714 v -1.066406 c 0,-3.7234776 -3.055819,-6.7812499 -6.779297,-6.7812499 z m 0,3.8242188 h 2.435547 c 1.670789,0 2.953125,1.2862411 2.953125,2.9570311 v 3.640625 l 1.279297,0.449218 c 1.889664,0.664612 3.642154,1.670894 5.167969,2.96875 l 1.027343,0.873047 3.132813,-1.808594 c 1.44637,-0.835062 3.201804,-0.364761 4.037109,1.082032 v 0.002 l 1.216797,2.105469 c 0.833899,1.446093 0.364272,3.204038 -1.082031,4.039062 l -3.144531,1.814453 0.251953,1.333985 c 0.185858,0.980584 0.280912,1.976586 0.285156,2.974609 -0.0043,0.998023 -0.09929,1.992073 -0.285156,2.972656 l -0.251953,1.333985 3.144531,1.816406 c 1.446302,0.835022 1.915929,2.591017 1.082031,4.037109 l -1.216797,2.105422 v 0.002 c -0.835305,1.446791 -2.590737,1.917095 -4.037109,1.082031 l -3.148438,-1.816406 -1.02539,0.875 c -1.522415,1.295493 -3.271105,2.30176 -5.15625,2.966797 l -1.277344,0.449219 v 3.648437 c 0,1.67079 -1.282336,2.957032 -2.953125,2.957031 h -2.435547 c -1.67079,0 -2.955078,-1.286241 -2.955078,-2.957031 v -3.640625 l -1.279297,-0.451172 c -1.889552,-0.664152 -3.642034,-1.66948 -5.167969,-2.966797 l -1.027343,-0.873046 -3.132813,1.808593 c -1.446371,0.835064 -3.201804,0.36476 -4.037109,-1.082031 v -0.002 l -1.216797,-2.103516 v -0.002 c -0.833899,-1.44605 -0.364272,-3.202086 1.082031,-4.037109 l 3.144531,-1.816406 -0.251953,-1.333985 c -0.185858,-0.980622 -0.280911,-1.974633 -0.285156,-2.972656 0.0043,-0.998023 0.09929,-1.994026 0.285156,-2.974609 l 0.251953,-1.333985 -3.144531,-1.814453 c -1.446304,-0.835023 -1.91593,-2.592969 -1.082031,-4.039062 v -0.002 l 1.216797,-2.103515 v -0.002 c 0.835305,-1.446791 2.590738,-1.917095 4.037109,-1.082032 l 0.002,0.002 3.148438,1.814453 1.027343,-0.878907 c 1.521452,-1.29982 3.268249,-2.307851 5.154297,-2.976562 l 1.275391,-0.451172 v -3.632812 c 0,-1.67079 1.284288,-2.957031 2.955078,-2.9570311 z"
     style="fill:none;stroke:#000000;stroke-width:0.4;stroke-dasharray:none;filter:url(#filter7)"
     id="path4-6" />
  <path
     style="fill:#f1f1f1;stroke-width:0.817295"
     d="m 38.706971,21.376273 c 0.354846,0.006 0.708333,0.03433 1.048276,0.06777 1.613788,0.100635 0.609091,1.302988 -0.375687,1.542782 -1.612961,0.460133 -1.603933,2.291692 -0.645709,3.441458 0.876881,1.488951 2.194343,0.07436 3.21725,-0.412736 1.524987,-0.2528 0.05206,1.866033 -0.432631,2.385399 -0.726463,1.123323 -1.962876,1.662118 -3.234257,1.468333 -1.596129,-0.228487 -2.71865,1.131464 -3.772222,2.156651 -2.968047,2.766839 -5.989319,5.794307 -8.975105,8.829802 -0.438935,0.37572 -0.91827,0.804188 -1.256189,1.284907 -1.640291,1.540768 -4.086341,-0.916256 -2.254021,-2.884529 3.795019,-3.4949 7.694704,-7.51883 11.201282,-10.93922 0.57391,-0.562083 1.109788,-1.156419 1.476153,-1.888147 0.619395,-1.282905 -0.04112,-2.996784 1.107089,-4.023914 0.755033,-0.860923 1.831222,-1.046169 2.895771,-1.02856 z"
     id="path4" />
  <path
     style="fill:#ffffff;stroke-width:0.817295"
     d="m 29.265711,21.406099 c 1.120965,-0.148713 2.318952,0.242841 3.133727,1.086094 -0.21651,0.455972 -1.541405,0.229624 -2.019134,0.865427 -0.71144,0.61282 -1.934994,1.956042 -1.023798,2.883369 3.543155,3.463854 7.821269,7.715106 11.341831,11.20727 0.642121,0.810872 1.75557,1.349187 1.926504,2.477135 -0.209951,1.123905 -1.192292,1.927557 -1.972416,2.604203 -0.348528,0.187512 -0.824769,0.08727 -1.098676,-0.20524 -4.668976,-4.990181 -7.975155,-9.182065 -12.247028,-13.970061 -0.523414,-0.451331 -1.421016,-0.405075 -1.406497,0.540539 0.590681,1.027522 -0.904212,1.630662 -1.377595,2.386072 -0.54367,0.403046 -0.918856,-0.381628 -1.318014,-0.668522 -0.587551,-0.779985 -1.802,-1.267259 -1.829456,-2.372056 0.673019,-0.671898 1.230951,-2.320205 2.249044,-1.894191 1.0105,-0.466287 0.588189,-2.168767 1.662715,-2.750994 0.848007,-0.701352 1.948824,-0.862479 2.725764,-1.760998 0.387481,-0.228951 0.81439,-0.369851 1.253029,-0.428047 z"
     id="path6" />
</svg>
