<?xml version="1.0" encoding="UTF-8" standalone="no"?>
<svg
   width="64"
   height="64"
   version="1"
   id="svg3"
   sodipodi:docname="preferences-system-parental-controls.svg"
   inkscape:version="1.3.2 (091e20ef0f, 2023-11-25, custom)"
   xmlns:inkscape="http://www.inkscape.org/namespaces/inkscape"
   xmlns:sodipodi="http://sodipodi.sourceforge.net/DTD/sodipodi-0.dtd"
   xmlns:xlink="http://www.w3.org/1999/xlink"
   xmlns="http://www.w3.org/2000/svg"
   xmlns:svg="http://www.w3.org/2000/svg">
  <defs
     id="defs3">
    <linearGradient
       id="linearGradient3"
       inkscape:collect="always">
      <stop
         style="stop-color:#f038fe;stop-opacity:1;"
         offset="0"
         id="stop3" />
      <stop
         style="stop-color:#00b6ff;stop-opacity:1;"
         offset="1"
         id="stop4" />
    </linearGradient>
    <inkscape:path-effect
       effect="fillet_chamfer"
       id="path-effect3"
       is_visible="true"
       lpeversion="1"
       nodesatellites_param="F,0,0,1,0,0,0,1 @ F,0,0,1,0,0,0,1 @ F,0,0,1,0,0,0,1 @ F,0,0,1,0,0,0,1 | F,0,0,1,0,0,0,1 @ F,0,0,1,0,0,0,1 @ F,0,0,1,0,0,0,1 @ F,0,0,1,0,0,0,1 @ F,0,0,1,0,0,0,1 @ F,0,0,1,0,0,0,1 @ F,0,0,1,0,0,0,1 @ F,0,0,1,0,0,0,1 @ F,0,0,1,0,0,0,1 @ F,0,0,1,0,0,0,1 @ F,0,0,1,0,0,0,1 @ F,0,0,1,0,0,0,1 @ F,0,0,1,0,0,0,1 @ F,0,0,1,0,0,0,1 @ F,0,0,1,0,0,0,1 @ F,0,0,1,0,0,0,1 @ F,0,0,1,0,0,0,1 @ F,0,0,1,0,0,0,1 @ F,0,0,1,0,0.81365911,0,1 @ F,0,0,1,0,0,0,1 @ F,0,0,1,0,0,0,1 @ F,0,0,1,0,0,0,1 @ F,0,0,1,0,0,0,1 @ F,0,0,1,0,0,0,1 @ F,0,0,1,0,0,0,1 @ F,0,0,1,0,0,0,1 @ F,0,0,1,0,0,0,1 @ F,0,0,1,0,0,0,1 @ F,0,0,1,0,0,0,1 @ F,0,0,1,0,0,0,1 @ F,0,0,1,0,0,0,1 @ F,0,0,1,0,0,0,1 @ F,0,0,1,0,0,0,1 @ F,0,0,1,0,0,0,1 @ F,0,0,1,0,0,0,1 @ F,0,0,1,0,0.83645065,0,1 @ F,0,0,1,0,0,0,1 @ F,0,0,1,0,0,0,1 @ F,0,0,1,0,0,0,1 | F,0,0,1,0,0,0,1 @ F,0,0,1,0,0,0,1 @ F,0,0,1,0,0,0,1 @ F,0,0,1,0,0,0,1"
       radius="0"
       unit="px"
       method="auto"
       mode="F"
       chamfer_steps="1"
       flexible="false"
       use_knot_distance="true"
       apply_no_radius="true"
       apply_with_radius="true"
       only_selected="false"
       hide_knots="false" />
    <filter
       inkscape:collect="always"
       style="color-interpolation-filters:sRGB"
       id="filter3"
       x="-0.053374336"
       y="-0.053374336"
       width="1.1067487"
       height="1.1067487">
      <feGaussianBlur
         inkscape:collect="always"
         stdDeviation="1.1412345"
         id="feGaussianBlur3" />
    </filter>
    <radialGradient
       inkscape:collect="always"
       xlink:href="#linearGradient3"
       id="radialGradient4"
       cx="14.220952"
       cy="53.580746"
       fx="14.220952"
       fy="53.580746"
       r="28"
       gradientUnits="userSpaceOnUse"
       gradientTransform="matrix(2.3731877,-2.3731877,2.3731877,2.3731877,-146.6852,-39.827433)" />
    <inkscape:path-effect
       effect="fillet_chamfer"
       id="path-effect3-6"
       is_visible="true"
       lpeversion="1"
       nodesatellites_param="F,0,0,1,0,0,0,1 @ F,0,0,1,0,0,0,1 @ F,0,0,1,0,0,0,1 @ F,0,0,1,0,0,0,1 | F,0,0,1,0,0,0,1 @ F,0,0,1,0,0,0,1 @ F,0,0,1,0,0,0,1 @ F,0,0,1,0,0,0,1 @ F,0,0,1,0,0,0,1 @ F,0,0,1,0,0,0,1 @ F,0,0,1,0,0,0,1 @ F,0,0,1,0,0,0,1 @ F,0,0,1,0,0,0,1 @ F,0,0,1,0,0,0,1 @ F,0,0,1,0,0,0,1 @ F,0,0,1,0,0,0,1 @ F,0,0,1,0,0,0,1 @ F,0,0,1,0,0,0,1 @ F,0,0,1,0,0,0,1 @ F,0,0,1,0,0,0,1 @ F,0,0,1,0,0,0,1 @ F,0,0,1,0,0,0,1 @ F,0,0,1,0,0.81365911,0,1 @ F,0,0,1,0,0,0,1 @ F,0,0,1,0,0,0,1 @ F,0,0,1,0,0,0,1 @ F,0,0,1,0,0,0,1 @ F,0,0,1,0,0,0,1 @ F,0,0,1,0,0,0,1 @ F,0,0,1,0,0,0,1 @ F,0,0,1,0,0,0,1 @ F,0,0,1,0,0,0,1 @ F,0,0,1,0,0,0,1 @ F,0,0,1,0,0,0,1 @ F,0,0,1,0,0,0,1 @ F,0,0,1,0,0,0,1 @ F,0,0,1,0,0,0,1 @ F,0,0,1,0,0,0,1 @ F,0,0,1,0,0,0,1 @ F,0,0,1,0,0.83645065,0,1 @ F,0,0,1,0,0,0,1 @ F,0,0,1,0,0,0,1 @ F,0,0,1,0,0,0,1 | F,0,0,1,0,0,0,1 @ F,0,0,1,0,0,0,1 @ F,0,0,1,0,0,0,1 @ F,0,0,1,0,0,0,1"
       radius="0"
       unit="px"
       method="auto"
       mode="F"
       chamfer_steps="1"
       flexible="false"
       use_knot_distance="true"
       apply_no_radius="true"
       apply_with_radius="true"
       only_selected="false"
       hide_knots="false" />
    <filter
       inkscape:collect="always"
       style="color-interpolation-filters:sRGB"
       id="filter4"
       x="-0.041319189"
       y="-0.039064793"
       width="1.0826799"
       height="1.0781296">
      <feGaussianBlur
         inkscape:collect="always"
         stdDeviation="0.50263856"
         id="feGaussianBlur4" />
    </filter>
  </defs>
  <sodipodi:namedview
     id="namedview3"
     pagecolor="#505050"
     bordercolor="#eeeeee"
     borderopacity="1"
     inkscape:showpageshadow="0"
     inkscape:pageopacity="0"
     inkscape:pagecheckerboard="0"
     inkscape:deskcolor="#505050"
     inkscape:zoom="13.484375"
     inkscape:cx="32.964079"
     inkscape:cy="36.597914"
     inkscape:window-width="1920"
     inkscape:window-height="1024"
     inkscape:window-x="0"
     inkscape:window-y="0"
     inkscape:window-maximized="1"
     inkscape:current-layer="svg3" />
  <rect
     style="fill:url(#radialGradient4)"
     width="56"
     height="56"
     x="4"
     y="4"
     rx="14.926031"
     ry="14.926031"
     id="rect1" />
  <rect
     style="fill:none;stroke:#000000;stroke-opacity:1;filter:url(#filter3);stroke-width:0.49999992;stroke-dasharray:none"
     width="56"
     height="56"
     x="4"
     y="4"
     rx="14.926031"
     ry="14.926031"
     id="rect1-3" />
  <path
     style="fill:#ffffff;fill-opacity:0.99607503;opacity:0.72420889"
     d="m 27.024081,14.000152 c -2.755463,0 -4.989251,2.238601 -4.989251,5.000002 0,2.761402 2.233788,5.000004 4.989251,5.000004 2.755465,0 4.989253,-2.238602 4.989253,-5.000004 0,-2.761401 -2.233788,-5.000002 -4.989253,-5.000002 z M 23.03268,26.000158 c -0.806124,-6e-4 -1.533477,0.484821 -1.843688,1.230461 l -4.989253,10.000005 c -1.103163,2.493202 2.6926,4.079203 3.683466,1.539081 l 2.21403,-5.320403 -0.07025,0.550781 V 48.00009 c 0,1.108002 0.890083,2.000002 1.995701,2.000002 h 0.008 c 1.105618,0 1.995701,-0.892 1.995701,-2.000002 l -0.008,-8.000004 h 1.995701 l 0.008,8.000004 c 0.0011,1.108002 0.890082,2.000002 1.9957,2.000002 1.105619,0 1.995702,-0.892 1.995702,-2.000002 l -0.008,-14.000007 -0.07404,-0.597661 2.229597,5.367203 c 0.342048,0.874448 1.218706,1.357563 2.086155,1.258022 0.443389,-0.05088 1.130862,-0.273668 1.579586,-0.29778 l 2.239538,-0.120341 c -0.02654,0.130401 -0.07803,0.25212 -0.07803,0.39062 v 9.000005 c 0,0.554 0.44504,1.000001 0.997849,1.000001 0.55281,0 0.997851,-0.446001 0.997851,-1.000001 l -0.008,-5.000002 h 2.003484 l 0.008,5.000002 c 8.58e-4,0.554 0.445042,1.000001 0.997851,1.000001 0.552809,0 0.997851,-0.446001 0.997851,-1.000001 v -7.582004 l 2.280287,2.289001 c 0.940493,0.981541 2.390451,-0.47156 1.411041,-1.414081 l -3.983619,-4.000002 c -0.187197,-0.1876 -0.440871,-0.2929 -0.7055,-0.29296 h -3.722382 l -2.410628,0.03192 c -0.461918,0.0061 -0.836377,0.01108 -0.836377,0.01108 1.8e-4,-0.27986 -0.05828,-0.55666 -0.171431,-0.812501 L 32.855316,27.230599 c -0.309673,-0.74432 -1.03507,-1.229481 -1.839777,-1.230461 z m 19.949226,3.500002 c -1.922938,0 -3.492477,1.572921 -3.492477,3.500002 0,1.927081 1.569539,3.500002 3.492477,3.500002 1.922937,0 3.492476,-1.572921 3.492476,-3.500002 0,-1.927081 -1.569539,-3.500002 -3.492476,-3.500002 z"
     id="path1"
     inkscape:path-effect="#path-effect3"
     inkscape:original-d="m 27.024081,14.000152 c -2.755463,0 -4.989251,2.238601 -4.989251,5.000002 0,2.761402 2.233788,5.000004 4.989251,5.000004 2.755465,0 4.989253,-2.238602 4.989253,-5.000004 0,-2.761401 -2.233788,-5.000002 -4.989253,-5.000002 z M 23.03268,26.000158 c -0.806124,-6e-4 -1.533477,0.484821 -1.843688,1.230461 l -4.989253,10.000005 c -1.103163,2.493202 2.6926,4.079203 3.683466,1.539081 l 2.21403,-5.320403 -0.07025,0.550781 0,14.000007 c 0,1.108002 0.890083,2.000002 1.995701,2.000002 l 0.008,0 c 1.105618,0 1.995701,-0.892 1.995701,-2.000002 l -0.008,-8.000004 1.995701,0 0.008,8.000004 c 0.0011,1.108002 0.890082,2.000002 1.9957,2.000002 1.105619,0 1.995702,-0.892 1.995702,-2.000002 l -0.008,-14.000007 -0.07404,-0.597661 2.229597,5.367203 c 0.445162,1.138061 1.795851,1.613281 2.853254,1.003901 l 3.052025,-0.164 c -0.02654,0.130401 -0.07803,0.25212 -0.07803,0.39062 l 0,9.000005 c 0,0.554 0.44504,1.000001 0.997849,1.000001 0.55281,0 0.997851,-0.446001 0.997851,-1.000001 l -0.008,-5.000002 2.003484,0 0.008,5.000002 c 8.58e-4,0.554 0.445042,1.000001 0.997851,1.000001 0.552809,0 0.997851,-0.446001 0.997851,-1.000001 l 0,-7.582004 2.280287,2.289001 c 0.940493,0.981541 2.390451,-0.47156 1.411041,-1.414081 l -3.983619,-4.000002 c -0.187197,-0.1876 -0.440871,-0.2929 -0.7055,-0.29296 l -3.722382,0 -3.247005,0.043 c 1.8e-4,-0.27986 -0.05828,-0.55666 -0.171431,-0.812501 L 32.855316,27.230599 c -0.309673,-0.74432 -1.03507,-1.229481 -1.839777,-1.230461 z m 19.949226,3.500002 c -1.922938,0 -3.492477,1.572921 -3.492477,3.500002 0,1.927081 1.569539,3.500002 3.492477,3.500002 1.922937,0 3.492476,-1.572921 3.492476,-3.500002 0,-1.927081 -1.569539,-3.500002 -3.492476,-3.500002 z" />
  <path
     style="opacity:0.436087;fill:none;fill-opacity:0.996075;stroke:#000000;stroke-opacity:1;filter:url(#filter4);stroke-width:0.39999992;stroke-dasharray:none"
     d="m 27.024081,14.000152 c -2.755463,0 -4.989251,2.238601 -4.989251,5.000002 0,2.761402 2.233788,5.000004 4.989251,5.000004 2.755465,0 4.989253,-2.238602 4.989253,-5.000004 0,-2.761401 -2.233788,-5.000002 -4.989253,-5.000002 z M 23.03268,26.000158 c -0.806124,-6e-4 -1.533477,0.484821 -1.843688,1.230461 l -4.989253,10.000005 c -1.103163,2.493202 2.6926,4.079203 3.683466,1.539081 l 2.21403,-5.320403 -0.07025,0.550781 V 48.00009 c 0,1.108002 0.890083,2.000002 1.995701,2.000002 h 0.008 c 1.105618,0 1.995701,-0.892 1.995701,-2.000002 l -0.008,-8.000004 h 1.995701 l 0.008,8.000004 c 0.0011,1.108002 0.890082,2.000002 1.9957,2.000002 1.105619,0 1.995702,-0.892 1.995702,-2.000002 l -0.008,-14.000007 -0.07404,-0.597661 2.229597,5.367203 c 0.342048,0.874448 1.218706,1.357563 2.086155,1.258022 0.443389,-0.05088 1.130862,-0.273668 1.579586,-0.29778 l 2.239538,-0.120341 c -0.02654,0.130401 -0.07803,0.25212 -0.07803,0.39062 v 9.000005 c 0,0.554 0.44504,1.000001 0.997849,1.000001 0.55281,0 0.997851,-0.446001 0.997851,-1.000001 l -0.008,-5.000002 h 2.003484 l 0.008,5.000002 c 8.58e-4,0.554 0.445042,1.000001 0.997851,1.000001 0.552809,0 0.997851,-0.446001 0.997851,-1.000001 v -7.582004 l 2.280287,2.289001 c 0.940493,0.981541 2.390451,-0.47156 1.411041,-1.414081 l -3.983619,-4.000002 c -0.187197,-0.1876 -0.440871,-0.2929 -0.7055,-0.29296 h -3.722382 l -2.410628,0.03192 c -0.461918,0.0061 -0.836377,0.01108 -0.836377,0.01108 1.8e-4,-0.27986 -0.05828,-0.55666 -0.171431,-0.812501 L 32.855316,27.230599 c -0.309673,-0.74432 -1.03507,-1.229481 -1.839777,-1.230461 z m 19.949226,3.500002 c -1.922938,0 -3.492477,1.572921 -3.492477,3.500002 0,1.927081 1.569539,3.500002 3.492477,3.500002 1.922937,0 3.492476,-1.572921 3.492476,-3.500002 0,-1.927081 -1.569539,-3.500002 -3.492476,-3.500002 z"
     id="path1-7"
     inkscape:path-effect="#path-effect3-6"
     inkscape:original-d="m 27.024081,14.000152 c -2.755463,0 -4.989251,2.238601 -4.989251,5.000002 0,2.761402 2.233788,5.000004 4.989251,5.000004 2.755465,0 4.989253,-2.238602 4.989253,-5.000004 0,-2.761401 -2.233788,-5.000002 -4.989253,-5.000002 z M 23.03268,26.000158 c -0.806124,-6e-4 -1.533477,0.484821 -1.843688,1.230461 l -4.989253,10.000005 c -1.103163,2.493202 2.6926,4.079203 3.683466,1.539081 l 2.21403,-5.320403 -0.07025,0.550781 V 48.00009 c 0,1.108002 0.890083,2.000002 1.995701,2.000002 h 0.008 c 1.105618,0 1.995701,-0.892 1.995701,-2.000002 l -0.008,-8.000004 h 1.995701 l 0.008,8.000004 c 0.0011,1.108002 0.890082,2.000002 1.9957,2.000002 1.105619,0 1.995702,-0.892 1.995702,-2.000002 l -0.008,-14.000007 -0.07404,-0.597661 2.229597,5.367203 c 0.445162,1.138061 1.795851,1.613281 2.853254,1.003901 l 3.052025,-0.164 c -0.02654,0.130401 -0.07803,0.25212 -0.07803,0.39062 v 9.000005 c 0,0.554 0.44504,1.000001 0.997849,1.000001 0.55281,0 0.997851,-0.446001 0.997851,-1.000001 l -0.008,-5.000002 h 2.003484 l 0.008,5.000002 c 8.58e-4,0.554 0.445042,1.000001 0.997851,1.000001 0.552809,0 0.997851,-0.446001 0.997851,-1.000001 v -7.582004 l 2.280287,2.289001 c 0.940493,0.981541 2.390451,-0.47156 1.411041,-1.414081 l -3.983619,-4.000002 c -0.187197,-0.1876 -0.440871,-0.2929 -0.7055,-0.29296 h -3.722382 l -3.247005,0.043 c 1.8e-4,-0.27986 -0.05828,-0.55666 -0.171431,-0.812501 L 32.855316,27.230599 c -0.309673,-0.74432 -1.03507,-1.229481 -1.839777,-1.230461 z m 19.949226,3.500002 c -1.922938,0 -3.492477,1.572921 -3.492477,3.500002 0,1.927081 1.569539,3.500002 3.492477,3.500002 1.922937,0 3.492476,-1.572921 3.492476,-3.500002 0,-1.927081 -1.569539,-3.500002 -3.492476,-3.500002 z"
     transform="translate(-0.03256743,0.07437907)" />
</svg>
