<?xml version="1.0" encoding="UTF-8" standalone="no"?>
<svg
   width="64"
   height="64"
   version="1.1"
   id="svg5"
   sodipodi:docname="liteupdatesnotify.svg"
   inkscape:version="1.3.2 (091e20ef0f, 2023-11-25, custom)"
   xmlns:inkscape="http://www.inkscape.org/namespaces/inkscape"
   xmlns:sodipodi="http://sodipodi.sourceforge.net/DTD/sodipodi-0.dtd"
   xmlns:xlink="http://www.w3.org/1999/xlink"
   xmlns="http://www.w3.org/2000/svg"
   xmlns:svg="http://www.w3.org/2000/svg">
  <defs
     id="defs5">
    <linearGradient
       id="linearGradient6"
       inkscape:collect="always">
      <stop
         style="stop-color:#ffba00;stop-opacity:1;"
         offset="0"
         id="stop6" />
      <stop
         style="stop-color:#ff7000;stop-opacity:1;"
         offset="1"
         id="stop7" />
    </linearGradient>
    <filter
       inkscape:collect="always"
       style="color-interpolation-filters:sRGB"
       id="filter5"
       x="-0.010895823"
       y="-0.22109341"
       width="1.0217916"
       height="1.4421868">
      <feGaussianBlur
         inkscape:collect="always"
         stdDeviation="0.25423587"
         id="feGaussianBlur5" />
    </filter>
    <filter
       inkscape:collect="always"
       style="color-interpolation-filters:sRGB"
       id="filter6"
       x="-0.030508304"
       y="-0.10169435"
       width="1.0610166"
       height="1.2033887">
      <feGaussianBlur
         inkscape:collect="always"
         stdDeviation="0.25423587"
         id="feGaussianBlur6" />
    </filter>
    <radialGradient
       inkscape:collect="always"
       xlink:href="#linearGradient6"
       id="radialGradient7"
       cx="16.376692"
       cy="14.73904"
       fx="16.376692"
       fy="14.73904"
       r="28.000001"
       gradientTransform="matrix(-1.420874,2.1093482,-1.9332437,-1.3022487,68.140069,1.9353152)"
       gradientUnits="userSpaceOnUse" />
    <radialGradient
       inkscape:collect="always"
       xlink:href="#linearGradient6"
       id="radialGradient9"
       cx="16.376694"
       cy="-70.714729"
       fx="16.376694"
       fy="-70.714729"
       r="10.000042"
       gradientTransform="matrix(-3.9784289,5.906152,-5.4130601,-3.6462811,-301.25287,-337.28346)"
       gradientUnits="userSpaceOnUse" />
  </defs>
  <sodipodi:namedview
     id="namedview5"
     pagecolor="#ffffff"
     bordercolor="#000000"
     borderopacity="0.25"
     inkscape:showpageshadow="2"
     inkscape:pageopacity="0.0"
     inkscape:pagecheckerboard="0"
     inkscape:deskcolor="#d1d1d1"
     inkscape:zoom="13.875"
     inkscape:cx="22.27027"
     inkscape:cy="44.756757"
     inkscape:window-width="1920"
     inkscape:window-height="1017"
     inkscape:window-x="0"
     inkscape:window-y="0"
     inkscape:window-maximized="1"
     inkscape:current-layer="svg5" />
  <path
     style="opacity:0.434488;mix-blend-mode:normal;filter:url(#filter6)"
     d="m 22,52.3 c 1.478006,3.476014 5.37398,6 10,6 4.626019,0 8.521993,-2.523986 10,-6 h -0.513672 c -1.748075,2.948348 -5.115704,3.620254 -9.283902,3.620254 -4.168199,0 -7.94068,-0.671906 -9.688754,-3.620254 z"
     id="path5"
     sodipodi:nodetypes="csccscc" />
  <path
     style="fill:url(#radialGradient9)"
     d="m 22.000088,51.999966 c 1.477366,3.475015 5.373022,6.000025 10.000042,6.000025 4.627019,0 8.522635,-2.52501 10.000042,-6.000025 l -20.000084,0 z"
     id="path2" />
  <path
     style="opacity:0.434488;mix-blend-mode:normal;filter:url(#filter5)"
     d="m 59.947616,49.540234 c -0.295014,1.133029 -2.021208,1.048917 -5.516682,1.050439 l -44.7765909,0.0195 c -3.4908324,0.0015 -5.3049128,0.0644 -5.6023967,-1.066032 C 3.7235581,51.300207 4.8913583,52.3 9.3011464,52.3 H 54.696462 c 4.413231,0 5.581129,-1.001537 5.251154,-2.759766 z"
     id="path4"
     sodipodi:nodetypes="csscssc" />
  <path
     style="fill:url(#radialGradient7)"
     d="m 10.74084,32.483884 c 0,11.248047 -14.1726592,19.516082 -1.4172056,19.516082 l 45.3521906,0 c 12.756053,0 -1.416006,-8.268035 -1.416006,-19.516082 0,-12.544652 -5.670024,-26.484111 -21.260089,-26.484111 -15.590066,0 -21.26009,13.939459 -21.26009,26.484111 z"
     id="path1" />
</svg>
