<?xml version="1.0" encoding="UTF-8" standalone="no"?>
<svg
   width="64"
   height="64"
   version="1"
   id="svg7"
   sodipodi:docname="preferences-desktop-peripherals.svg"
   inkscape:version="1.3.2 (091e20ef0f, 2023-11-25, custom)"
   xmlns:inkscape="http://www.inkscape.org/namespaces/inkscape"
   xmlns:sodipodi="http://sodipodi.sourceforge.net/DTD/sodipodi-0.dtd"
   xmlns:xlink="http://www.w3.org/1999/xlink"
   xmlns="http://www.w3.org/2000/svg"
   xmlns:svg="http://www.w3.org/2000/svg">
  <defs
     id="defs7">
    <linearGradient
       id="linearGradient7"
       inkscape:collect="always">
      <stop
         style="stop-color:#5d5d5d;stop-opacity:1;"
         offset="0"
         id="stop7" />
      <stop
         style="stop-color:#444444;stop-opacity:1;"
         offset="1"
         id="stop8" />
    </linearGradient>
    <radialGradient
       inkscape:collect="always"
       xlink:href="#linearGradient7"
       id="radialGradient8"
       cx="14.088158"
       cy="49.57943"
       fx="14.088158"
       fy="49.57943"
       r="17.999989"
       gradientTransform="matrix(3.5255061,-2.0354519,3.1662588,5.4841211,-192.56103,-183.87805)"
       gradientUnits="userSpaceOnUse" />
    <filter
       inkscape:collect="always"
       style="color-interpolation-filters:sRGB"
       id="filter1"
       x="-0.10746052"
       y="-0.06908176"
       width="1.214921"
       height="1.1381635">
      <feGaussianBlur
         inkscape:collect="always"
         stdDeviation="1.5494069"
         id="feGaussianBlur1" />
    </filter>
    <filter
       inkscape:collect="always"
       style="color-interpolation-filters:sRGB"
       id="filter2"
       x="-0.30440985"
       y="-0.14049686"
       width="1.6088197"
       height="1.2809937">
      <feGaussianBlur
         inkscape:collect="always"
         stdDeviation="0.69852467"
         id="feGaussianBlur2" />
    </filter>
  </defs>
  <sodipodi:namedview
     id="namedview7"
     pagecolor="#ffffff"
     bordercolor="#000000"
     borderopacity="0.25"
     inkscape:showpageshadow="2"
     inkscape:pageopacity="0.0"
     inkscape:pagecheckerboard="0"
     inkscape:deskcolor="#d1d1d1"
     inkscape:zoom="9.8111066"
     inkscape:cx="33.278611"
     inkscape:cy="30.271815"
     inkscape:window-width="1920"
     inkscape:window-height="1020"
     inkscape:window-x="0"
     inkscape:window-y="0"
     inkscape:window-maximized="1"
     inkscape:current-layer="svg7" />
  <path
     style="fill:url(#radialGradient8)"
     d="m 32.00001,4.0000313 c -0.024,0 -0.05,0.004 -0.074,0.004 h -0.0082 c -8.971795,0.056 -17.91779,9.3539957 -17.91779,16.3319917 V 43.40601 c 0,9.481995 6.749996,16.593991 17.99999,16.593991 11.249992,0.002 17.999988,-7.107996 17.999988,-16.589991 V 20.972022 c 0,-7.251996 -8.987995,-16.9059907 -17.999988,-16.9639907 z"
     id="path2" />
  <path
     style="opacity:0.1;fill:#ffffff;fill-opacity:1"
     d="m 32.00001,4.0000313 c -0.024,0 -0.04902,0.00274 -0.073,0.00274 h -0.0082 C 22.946889,4.0587713 14,13.357194 14,20.335189 V 32.000016 H 50 V 20.972288 C 50,13.720292 41.012003,4.0662345 32.00001,4.0082343 Z"
     id="path3" />
  <path
     style="opacity:0.1;fill:#ffffff;fill-opacity:1"
     d="m 32.00001,4.0000313 c -0.024,0 -0.04902,0.00274 -0.073,0.00274 h -0.0082 C 22.946889,4.0587713 14,13.357194 14,20.335189 v 11.664827 h 18.00001 c 0,0 0,-27.9999847 0,-27.9917817 z"
     id="path4" />
  <path
     style="fill:#e4e4e4;opacity:1"
     d="m 32,11.000669 c 1.653001,0 3,1.248085 3,2.78587 v 7.429131 c 0,1.536266 -1.346999,2.78435 -3,2.78435 -1.652999,0 -3,-1.248084 -3,-2.786517 v -7.429132 c 0,-1.536268 1.347001,-2.784351 3,-2.784351"
     id="path6" />
  <path
     style="fill:none;stroke:#000000;stroke-opacity:1;stroke-width:0.29999991;stroke-dasharray:none;filter:url(#filter1)"
     d="m 31.981123,4.0707351 c -0.024,0 -0.05,0.004 -0.074,0.004 h -0.0082 c -8.971795,0.056 -17.91779,9.3539959 -17.91779,16.3319919 v 23.069987 c 0,9.481995 6.749996,16.593991 17.99999,16.593991 11.249992,0.002 17.999988,-7.107996 17.999988,-16.589991 V 21.042726 c 0,-7.251996 -8.987995,-16.9059909 -17.999988,-16.9639909 z"
     id="path2-5" />
  <path
     style="opacity:0.802847;fill:none;stroke:#000000;stroke-opacity:1;stroke-width:0.29999989;stroke-dasharray:none;filter:url(#filter2)"
     d="m 31.981113,11.071373 c 1.653001,0 3,1.248085 3,2.78587 v 7.429131 c 0,1.536266 -1.346999,2.78435 -3,2.78435 -1.652999,0 -3,-1.248084 -3,-2.786517 v -7.429132 c 0,-1.536268 1.347001,-2.784351 3,-2.784351"
     id="path6-3" />
</svg>
