<?xml version="1.0" encoding="UTF-8" standalone="no"?>
<svg
   width="64"
   height="64"
   version="1"
   id="svg7"
   sodipodi:docname="preferences-system-windows.svg"
   inkscape:version="1.4 (e7c3feb100, 2024-10-09)"
   xmlns:inkscape="http://www.inkscape.org/namespaces/inkscape"
   xmlns:sodipodi="http://sodipodi.sourceforge.net/DTD/sodipodi-0.dtd"
   xmlns:xlink="http://www.w3.org/1999/xlink"
   xmlns="http://www.w3.org/2000/svg"
   xmlns:svg="http://www.w3.org/2000/svg">
  <defs
     id="defs7">
    <linearGradient
       id="linearGradient7"
       inkscape:collect="always">
      <stop
         style="stop-color:#1eb4e9;stop-opacity:1;"
         offset="0"
         id="stop7" />
      <stop
         style="stop-color:#00caff;stop-opacity:1;"
         offset="1"
         id="stop8" />
    </linearGradient>
    <radialGradient
       inkscape:collect="always"
       xlink:href="#linearGradient7"
       id="radialGradient8-3"
       cx="21.937601"
       cy="8.9499645"
       fx="21.937601"
       fy="8.9499645"
       r="19.95833"
       gradientTransform="matrix(4.108354,2.3719594,-1.8413792,3.1893622,-72.85461,-45.006503)"
       gradientUnits="userSpaceOnUse" />
    <radialGradient
       inkscape:collect="always"
       xlink:href="#linearGradient7"
       id="radialGradient8-3-3"
       cx="21.937601"
       cy="8.9499645"
       fx="21.937601"
       fy="8.9499645"
       r="19.95833"
       gradientTransform="matrix(4.108354,2.3719594,-1.8413792,3.1893622,-62.989213,-62.200048)"
       gradientUnits="userSpaceOnUse" />
    <filter
       inkscape:collect="always"
       style="color-interpolation-filters:sRGB"
       id="filter1"
       x="-0.076318516"
       y="-0.10593726"
       width="1.152637"
       height="1.2118745">
      <feGaussianBlur
         inkscape:collect="always"
         stdDeviation="1.4118595"
         id="feGaussianBlur1" />
    </filter>
    <filter
       inkscape:collect="always"
       style="color-interpolation-filters:sRGB"
       id="filter2"
       x="-0.026588911"
       y="-0.037289694"
       width="1.0531778"
       height="1.0745794">
      <feGaussianBlur
         inkscape:collect="always"
         stdDeviation="0.4408416"
         id="feGaussianBlur2" />
    </filter>
  </defs>
  <sodipodi:namedview
     id="namedview7"
     pagecolor="#ffffff"
     bordercolor="#000000"
     borderopacity="0.25"
     inkscape:showpageshadow="2"
     inkscape:pageopacity="0.0"
     inkscape:pagecheckerboard="0"
     inkscape:deskcolor="#d1d1d1"
     inkscape:zoom="13.875"
     inkscape:cx="18.306306"
     inkscape:cy="40.900901"
     inkscape:window-width="1920"
     inkscape:window-height="1017"
     inkscape:window-x="0"
     inkscape:window-y="0"
     inkscape:window-maximized="1"
     inkscape:current-layer="svg7" />
  <g
     id="g1"
     style="opacity:0.49506347">
    <rect
       style="opacity:0.626234;fill:url(#radialGradient8-3-3);fill-opacity:1;stroke:#ffffff;stroke-width:0"
       id="rect12-5-5"
       width="45.709259"
       height="32.929516"
       x="13.417906"
       y="8.1472073"
       rx="3.1469252"
       ry="3.1469252" />
    <path
       id="rect12-8-3-3"
       style="opacity:0.49929478;fill:#ffffff;fill-opacity:1;stroke:#ffffff;stroke-width:0"
       d="m 42.375163,9.118955 a 2.265043,2.265043 0 0 0 -2.265625,2.263672 2.265043,2.265043 0 0 0 2.265625,2.265625 2.265043,2.265043 0 0 0 2.263672,-2.265625 2.265043,2.265043 0 0 0 -2.263672,-2.263672 z m 6.705078,0 a 2.265043,2.265043 0 0 0 -2.265625,2.263672 2.265043,2.265043 0 0 0 2.265625,2.265625 2.265043,2.265043 0 0 0 2.263672,-2.265625 2.265043,2.265043 0 0 0 -2.263672,-2.263672 z m 6.705078,0 a 2.265043,2.265043 0 0 0 -2.265625,2.263672 2.265043,2.265043 0 0 0 2.265625,2.265625 2.265043,2.265043 0 0 0 2.263672,-2.265625 2.265043,2.265043 0 0 0 -2.263672,-2.263672 z m -38.673828,5.400391 c -1.449181,0 -2.615235,1.168006 -2.615235,2.617187 v 20.421875 c 0,1.449181 1.166054,2.615235 2.615235,2.615235 h 38.322265 c 1.449181,0 2.615235,-1.166054 2.615235,-2.615235 V 17.136533 c 0,-1.449181 -1.166054,-2.617187 -2.615235,-2.617187 z" />
  </g>
  <rect
     style="fill:url(#radialGradient8-3);fill-opacity:1;stroke:#ffffff;stroke-width:0"
     id="rect12-5"
     width="45.709259"
     height="32.929516"
     x="3.5525086"
     y="25.340752"
     rx="3.1469252"
     ry="3.1469252" />
  <rect
     style="fill:none;fill-opacity:1;stroke:#000000;stroke-width:0.2;stroke-dasharray:none;stroke-opacity:1;filter:url(#filter1)"
     id="rect12-5-56"
     width="45.709259"
     height="32.929516"
     x="3.5525086"
     y="25.340752"
     rx="3.1469252"
     ry="3.1469252" />
  <path
     id="rect12-8-3"
     style="opacity:0.49929478;fill:#ffffff;fill-opacity:1;stroke:none;stroke-width:0.2;stroke-dasharray:none;stroke-opacity:1"
     d="m 32.509766,26.3125 a 2.265043,2.265043 0 0 0 -2.265625,2.263672 2.265043,2.265043 0 0 0 2.265625,2.265625 2.265043,2.265043 0 0 0 2.263672,-2.265625 2.265043,2.265043 0 0 0 -2.263672,-2.263672 z m 6.705078,0 a 2.265043,2.265043 0 0 0 -2.265625,2.263672 2.265043,2.265043 0 0 0 2.265625,2.265625 2.265043,2.265043 0 0 0 2.263672,-2.265625 2.265043,2.265043 0 0 0 -2.263672,-2.263672 z m 6.705078,0 a 2.265043,2.265043 0 0 0 -2.265625,2.263672 2.265043,2.265043 0 0 0 2.265625,2.265625 2.265043,2.265043 0 0 0 2.263672,-2.265625 A 2.265043,2.265043 0 0 0 45.919922,26.3125 Z M 7.2460938,31.712891 c -1.4491808,0 -2.6152344,1.168006 -2.6152344,2.617187 v 20.421875 c 0,1.449181 1.1660536,2.615235 2.6152344,2.615235 H 45.568359 c 1.449181,0 2.615235,-1.166054 2.615235,-2.615235 V 34.330078 c 0,-1.449181 -1.166054,-2.617187 -2.615235,-2.617187 z" />
  <path
     id="rect12-8-3-9"
     style="opacity:0.499295;fill:none;fill-opacity:1;stroke:#000000;stroke-width:0.2;stroke-dasharray:none;stroke-opacity:1;filter:url(#filter2)"
     d="m 32.509766,26.3125 a 2.265043,2.265043 0 0 0 -2.265625,2.263672 2.265043,2.265043 0 0 0 2.265625,2.265625 2.265043,2.265043 0 0 0 2.263672,-2.265625 2.265043,2.265043 0 0 0 -2.263672,-2.263672 z m 6.705078,0 a 2.265043,2.265043 0 0 0 -2.265625,2.263672 2.265043,2.265043 0 0 0 2.265625,2.265625 2.265043,2.265043 0 0 0 2.263672,-2.265625 2.265043,2.265043 0 0 0 -2.263672,-2.263672 z m 6.705078,0 a 2.265043,2.265043 0 0 0 -2.265625,2.263672 2.265043,2.265043 0 0 0 2.265625,2.265625 2.265043,2.265043 0 0 0 2.263672,-2.265625 A 2.265043,2.265043 0 0 0 45.919922,26.3125 Z M 7.2460932,31.712891 c -1.44918,0 -2.615234,1.168006 -2.615234,2.617187 v 20.421875 c 0,1.449181 1.166054,2.615235 2.615234,2.615235 H 45.568359 c 1.449181,0 2.615235,-1.166054 2.615235,-2.615235 V 34.330078 c 0,-1.449181 -1.166054,-2.617187 -2.615235,-2.617187 z" />
</svg>
