<?xml version="1.0" encoding="UTF-8" standalone="no"?>
<svg
   width="64"
   height="64"
   version="1.1"
   id="svg5"
   sodipodi:docname="preferences-management-service.svg"
   inkscape:version="1.3.2 (091e20ef0f, 2023-11-25, custom)"
   xmlns:inkscape="http://www.inkscape.org/namespaces/inkscape"
   xmlns:sodipodi="http://sodipodi.sourceforge.net/DTD/sodipodi-0.dtd"
   xmlns:xlink="http://www.w3.org/1999/xlink"
   xmlns="http://www.w3.org/2000/svg"
   xmlns:svg="http://www.w3.org/2000/svg">
  <defs
     id="defs5">
    <inkscape:path-effect
       effect="fillet_chamfer"
       id="path-effect6"
       is_visible="true"
       lpeversion="1"
       nodesatellites_param="F,0,0,1,0,3.8757605,0,1 @ F,0,0,1,0,12.17519,0,1 @ F,0,0,1,0,3.8757605,0,1 @ F,0,0,1,0,3.8757605,0,1 @ F,0,0,1,0,3.8757605,0,1 @ F,0,0,1,0,3.8757605,0,1"
       radius="0"
       unit="px"
       method="auto"
       mode="F"
       chamfer_steps="1"
       flexible="false"
       use_knot_distance="true"
       apply_no_radius="true"
       apply_with_radius="true"
       only_selected="false"
       hide_knots="false" />
    <linearGradient
       id="linearGradient5"
       inkscape:collect="always">
      <stop
         style="stop-color:#f56e2c;stop-opacity:1;"
         offset="0"
         id="stop5" />
      <stop
         style="stop-color:#f5432c;stop-opacity:1;"
         offset="1"
         id="stop6" />
    </linearGradient>
    <radialGradient
       inkscape:collect="always"
       xlink:href="#linearGradient5"
       id="radialGradient6"
       cx="3.7788637"
       cy="4.3260355"
       fx="3.7788637"
       fy="4.3260355"
       r="28"
       gradientUnits="userSpaceOnUse"
       gradientTransform="matrix(0,1.7765465,-1.7765465,0,12.517719,-1.7848067)" />
    <inkscape:path-effect
       effect="fillet_chamfer"
       id="path-effect6-3"
       is_visible="true"
       lpeversion="1"
       nodesatellites_param="F,0,0,1,0,3.8757605,0,1 @ F,0,0,1,0,12.17519,0,1 @ F,0,0,1,0,3.8757605,0,1 @ F,0,0,1,0,3.8757605,0,1 @ F,0,0,1,0,3.8757605,0,1 @ F,0,0,1,0,3.8757605,0,1"
       radius="0"
       unit="px"
       method="auto"
       mode="F"
       chamfer_steps="1"
       flexible="false"
       use_knot_distance="true"
       apply_no_radius="true"
       apply_with_radius="true"
       only_selected="false"
       hide_knots="false" />
    <filter
       inkscape:collect="always"
       style="color-interpolation-filters:sRGB"
       id="filter6"
       x="-0.070015785"
       y="-0.070015785"
       width="1.1400316"
       height="1.1400316">
      <feGaussianBlur
         inkscape:collect="always"
         stdDeviation="1.5503683"
         id="feGaussianBlur6" />
    </filter>
  </defs>
  <sodipodi:namedview
     id="namedview5"
     pagecolor="#ffffff"
     bordercolor="#000000"
     borderopacity="0.25"
     inkscape:showpageshadow="2"
     inkscape:pageopacity="0.0"
     inkscape:pagecheckerboard="0"
     inkscape:deskcolor="#d1d1d1"
     inkscape:zoom="9.1260969"
     inkscape:cx="30.845607"
     inkscape:cy="36.488764"
     inkscape:window-width="1920"
     inkscape:window-height="1020"
     inkscape:window-x="0"
     inkscape:window-y="0"
     inkscape:window-maximized="1"
     inkscape:current-layer="svg5" />
  <path
     style="fill:url(#radialGradient6)"
     d="M 60,32 A 28,28 0 0 1 32,60 28,28 0 0 1 4,32 28,28 0 0 1 32,4 28,28 0 0 1 60,32 Z"
     id="path1" />
  <path
     style="fill:#ffffff"
     d="M 22,19.875761 22,35.82481 A 12.17519,12.17519 45 0 0 34.17519,48 h 3.94905 A 3.8757605,3.8757605 135 0 0 42,44.12424 V 43.87576 A 3.8757605,3.8757605 45 0 0 38.12424,40 H 33.8754 A 3.8757605,3.8757605 45 0 1 29.99964,36.12424 V 19.87576 A 3.8757605,3.8757605 45 0 0 26.123879,16 H 25.87576 A 3.8757605,3.8757605 135 0 0 22,19.875761 Z"
     id="path5"
     inkscape:path-effect="#path-effect6"
     inkscape:original-d="m 22,16 0,32 20,0 0,-8 -12.00036,0 0,-24 z" />
  <path
     id="path1-3"
     style="fill:none;stroke:#000000;stroke-width:0.4;stroke-dasharray:none;stroke-opacity:1;filter:url(#filter6)"
     d="m 32.045598,4.139587 a 28,28 0 0 0 -27.9999999,28 28,28 0 0 0 27.9999999,28 28,28 0 0 0 28,-28 28,28 0 0 0 -28,-28 z m -6.125,12 h 0.248047 a 3.8757605,3.8757605 0 0 1 3.876953,3.875 v 16.25 a 3.8757605,3.8757605 0 0 0 3.875,3.875 h 4.25 a 3.8757605,3.8757605 0 0 1 3.875,3.875 v 0.25 a 3.8757605,3.8757605 0 0 1 -3.875,3.875 H 34.221379 A 12.17519,12.17519 0 0 1 22.045598,35.963806 V 20.014587 a 3.8757605,3.8757605 0 0 1 3.875,-3.875 z" />
</svg>
