<?xml version="1.0" encoding="UTF-8" standalone="no"?>
<svg
   width="64"
   height="64"
   version="1"
   id="svg8"
   sodipodi:docname="preferences-system-tabbox.svg"
   inkscape:version="1.3.2 (091e20ef0f, 2023-11-25, custom)"
   xmlns:inkscape="http://www.inkscape.org/namespaces/inkscape"
   xmlns:sodipodi="http://sodipodi.sourceforge.net/DTD/sodipodi-0.dtd"
   xmlns:xlink="http://www.w3.org/1999/xlink"
   xmlns="http://www.w3.org/2000/svg"
   xmlns:svg="http://www.w3.org/2000/svg">
  <path
     id="rect2"
     style="fill:url(#radialGradient12);stroke-width:0.843831"
     d="m 15.748245,11.996443 h 32.503513 a 7.3755114,7.3755114 45 0 1 7.375511,7.375511 v 25.752865 a 7.3755114,7.3755114 135 0 1 -7.375511,7.375511 l -32.503513,0 A 7.3755114,7.3755114 45 0 1 8.3727331,45.124819 V 19.371954 a 7.3755114,7.3755114 135 0 1 7.3755119,-7.375511 z"
     inkscape:path-effect="#path-effect2" />
  <path
     id="rect4"
     style="fill:#ebebeb;stroke-width:0.843831"
     d="m 4.9980469,19.83912 v 9.628401 A 3.6242761,3.6242761 45 0 0 8.622323,33.091797 H 25.000724 A 3.6242761,3.6242761 135 0 0 28.625,29.467521 V 19.83912 A 3.6242761,3.6242761 45 0 0 25.000724,16.214844 H 8.622323 A 3.6242761,3.6242761 135 0 0 4.9980469,19.83912 Z m 30.3769531,0 v 9.628401 a 3.6242761,3.6242761 45 0 0 3.624276,3.624276 h 16.378401 a 3.6242761,3.6242761 135 0 0 3.624276,-3.624276 V 19.83912 A 3.6242761,3.6242761 45 0 0 55.377677,16.214844 H 38.999276 A 3.6242761,3.6242761 135 0 0 35.375,19.83912 Z M 20.185547,41.778573 v 9.628401 a 3.6242761,3.6242761 45 0 0 3.624276,3.624276 h 16.380354 a 3.6242761,3.6242761 135 0 0 3.624276,-3.624276 V 41.778573 A 3.6242761,3.6242761 45 0 0 40.190177,38.154297 H 23.809823 a 3.6242761,3.6242761 135 0 0 -3.624276,3.624276 z"
     inkscape:path-effect="#path-effect1" />
  <path
     id="path3"
     style="color:#000000;fill:#000000;-inkscape-stroke:none;filter:url(#filter4)"
     d="M 47.683594 11.705078 C 47.481577 11.710324 47.279032 11.722714 47.078125 11.742188 L 15.833984 11.742188 L 15.712891 11.742188 L 15.714844 11.757812 C 14.435261 11.639391 12.846877 12.216097 11.580078 13.070312 C 10.928405 13.509742 10.365344 14.017301 9.9824219 14.535156 C 9.6294128 15.012559 9.4372626 15.501935 9.4785156 15.960938 L 8.6992188 15.960938 L 8.6972656 15.960938 C 7.0144004 15.935008 6.0146803 16.806084 5.4863281 17.986328 C 4.9577408 19.167098 4.8781716 20.653592 4.9726562 21.912109 L 4.9726562 29.314453 C 4.9475623 30.996797 5.8179391 31.997434 6.9980469 32.525391 C 7.4172135 32.712917 7.8752805 32.841375 8.3476562 32.927734 C 8.3969446 37.312947 8.2430633 41.711025 8.4316406 46.097656 L 8.4316406 46.101562 L 8.4335938 46.107422 C 8.932696 50.001311 12.800416 52.855254 16.654297 52.445312 L 20.320312 52.445312 C 20.619934 53.428828 21.317246 54.076383 22.185547 54.464844 C 23.363866 54.991999 24.846888 55.070068 26.103516 54.976562 L 40.263672 54.976562 C 41.945939 55.002562 42.946057 54.132959 43.474609 52.953125 C 43.585074 52.706547 43.67236 52.44423 43.746094 52.175781 C 43.78249 52.27049 43.849891 52.345722 43.935547 52.392578 C 44.120055 52.493509 44.36789 52.502412 44.642578 52.490234 C 44.917267 52.478054 45.2189 52.439139 45.496094 52.417969 C 45.773287 52.396809 46.026884 52.395226 46.1875 52.441406 L 46.199219 52.445312 L 46.210938 52.445312 C 48.697315 52.54735 51.445817 52.40083 53.349609 50.505859 L 53.353516 50.501953 C 55.511823 48.691754 55.967492 45.80006 55.800781 43.167969 L 55.800781 43.162109 L 55.800781 33.019531 C 57.26931 32.925496 58.172076 32.107524 58.662109 31.013672 C 59.190121 29.835048 59.269793 28.350867 59.175781 27.09375 L 59.175781 27.089844 C 59.143251 24.415184 59.244204 21.730383 59.121094 19.050781 L 59.121094 19.046875 L 59.121094 19.042969 C 58.951532 17.805852 58.209398 16.966854 57.251953 16.478516 C 56.58208 16.13685 55.806521 15.971163 55.035156 15.9375 C 53.741593 13.113739 50.684049 11.627163 47.683594 11.705078 z M 47.667969 11.904297 C 50.560717 11.824794 53.492179 13.254287 54.779297 15.927734 C 54.534732 15.926943 54.290433 15.934491 54.052734 15.960938 L 40.058594 15.960938 C 39.654232 15.905693 39.242237 15.919586 38.835938 15.972656 C 37.821529 16.011412 37.071597 16.389263 36.535156 16.966797 C 35.972783 17.461785 35.562642 18.12523 35.423828 18.9375 L 35.423828 18.943359 L 35.423828 18.949219 C 35.409857 19.212685 35.408413 19.476591 35.398438 19.740234 C 35.306564 20.441647 35.301073 21.156183 35.345703 21.816406 C 35.33725 22.814783 35.342277 23.814179 35.349609 24.8125 L 35.349609 28.328125 L 35.349609 28.330078 C 35.349554 28.333978 35.349665 28.337877 35.349609 28.341797 C 35.283237 28.795199 35.295375 29.258083 35.371094 29.708984 C 35.446411 30.709877 35.859384 31.443139 36.470703 31.958984 C 37.037876 32.551363 37.793248 32.957267 38.697266 33.019531 L 38.699219 33.019531 L 38.703125 33.019531 C 38.940074 33.020972 39.177106 33.020202 39.414062 33.021484 C 40.056236 33.083765 40.704411 33.081839 41.300781 33.037109 L 45.615234 33.037109 C 46.753334 33.037788 47.89121 33.038581 49.029297 33.037109 L 55.451172 33.037109 C 55.503914 33.037925 55.550155 33.030224 55.601562 33.029297 L 55.601562 43.171875 L 55.601562 43.173828 C 55.767368 45.777037 55.314346 48.600861 53.220703 50.353516 L 53.216797 50.355469 L 53.214844 50.359375 C 51.375526 52.195485 48.69378 52.347666 46.21875 52.246094 C 46.010893 52.191696 45.755157 52.197773 45.480469 52.21875 C 45.196319 52.24045 44.89542 52.277423 44.632812 52.289062 C 44.370206 52.300712 44.146627 52.28186 44.03125 52.21875 C 43.97356 52.18719 43.94114 52.15068 43.923828 52.095703 C 43.906518 52.040723 43.907216 51.959804 43.941406 51.841797 L 43.943359 51.830078 L 43.945312 51.816406 C 43.953677 51.563196 43.954958 51.309933 43.960938 51.056641 C 44.035875 50.397338 44.032691 49.729443 43.990234 49.111328 C 43.995974 48.08649 43.997283 47.061767 43.992188 46.037109 C 43.998839 45.00684 44.001842 43.97602 43.988281 42.945312 C 43.989002 42.834087 43.987276 42.72253 43.988281 42.611328 L 43.988281 42.609375 C 44.06604 42.088586 44.044254 41.554836 43.935547 41.041016 C 43.934787 41.024084 43.934372 41.007166 43.933594 40.990234 L 43.933594 40.986328 L 43.933594 40.982422 C 43.810585 40.088549 43.393552 39.414275 42.818359 38.923828 C 42.815241 38.921169 42.813675 38.916711 42.810547 38.914062 C 42.25008 38.355711 41.513013 37.97808 40.640625 37.917969 L 40.638672 37.917969 L 40.634766 37.917969 C 40.527357 37.916891 40.41991 37.918948 40.3125 37.917969 C 39.781819 37.852437 39.241841 37.84609 38.728516 37.900391 L 34.78125 37.900391 C 32.396695 37.902201 30.012735 37.9072 27.628906 37.900391 L 27.621094 37.900391 L 25.794922 37.900391 C 25.3618 37.883764 24.925959 37.866856 24.494141 37.875 C 24.357074 37.877585 24.22209 37.891947 24.085938 37.900391 L 23.886719 37.900391 L 23.884766 37.900391 C 22.735204 37.882678 21.911554 38.289834 21.332031 38.921875 C 20.498006 39.705842 20.222826 40.713672 20.15625 41.767578 C 20.137337 42.066985 20.134746 42.369794 20.138672 42.673828 C 20.128425 43.076816 20.131892 43.475088 20.160156 43.851562 L 20.160156 45.144531 L 20.160156 45.150391 L 20.160156 45.15625 L 20.160156 47.960938 C 20.152819 48.45444 20.156661 48.947839 20.160156 49.441406 L 20.160156 51.253906 C 20.154728 51.617915 20.199003 51.943798 20.271484 52.246094 L 16.648438 52.246094 L 16.644531 52.246094 C 12.901631 52.649351 9.1216871 49.865377 8.6328125 46.089844 L 8.6328125 46.087891 C 8.4462321 41.745426 8.5928519 37.381003 8.546875 33.023438 C 8.7389335 33.024586 8.930987 33.024395 9.1230469 33.025391 C 9.7341375 33.078754 10.348363 33.079348 10.916016 33.037109 L 15.347656 33.037109 C 18.261813 33.036295 21.176115 33.032008 24.089844 33.037109 C 24.494082 33.092316 24.906169 33.078499 25.3125 33.025391 C 26.331333 32.986582 27.084014 32.606938 27.621094 32.025391 C 28.179598 31.531592 28.586067 30.870939 28.724609 30.0625 L 28.724609 30.056641 L 28.724609 30.050781 C 28.738577 29.788627 28.740013 29.526008 28.75 29.263672 C 28.841941 28.563186 28.84713 27.84909 28.802734 27.189453 C 28.809994 26.337583 28.808747 25.484757 28.802734 24.632812 C 28.809882 23.410682 28.81556 22.187787 28.798828 20.964844 C 28.79987 20.867236 28.797448 20.769451 28.798828 20.671875 L 28.798828 20.669922 C 28.876586 20.149132 28.854801 19.615383 28.746094 19.101562 C 28.745334 19.084631 28.744919 19.067713 28.744141 19.050781 L 28.744141 19.046875 L 28.744141 19.042969 C 28.62384 18.165232 28.211728 17.491912 27.642578 16.998047 C 27.079401 16.427319 26.335249 16.039433 25.451172 15.978516 L 25.449219 15.978516 L 25.445312 15.978516 C 25.343765 15.977683 25.242174 15.979289 25.140625 15.978516 C 24.650073 15.918538 24.153021 15.907839 23.675781 15.960938 L 19.005859 15.960938 C 15.905166 15.961472 12.805081 15.967722 9.7050781 15.960938 C 9.6614762 15.565765 9.7999326 15.117684 10.142578 14.654297 C 10.506726 14.16183 11.054637 13.665709 11.691406 13.236328 C 12.964946 12.377568 14.597843 11.78697 15.810547 11.941406 L 15.931641 11.957031 L 15.929688 11.941406 L 47.083984 11.941406 L 47.087891 11.941406 C 47.280697 11.922494 47.474298 11.90962 47.667969 11.904297 z M 55.132812 16.146484 C 55.844311 16.190026 56.553625 16.345896 57.162109 16.65625 C 58.074861 17.121794 58.761207 17.89809 58.921875 19.070312 C 59.043839 21.736878 58.943843 24.418327 58.976562 27.097656 L 58.976562 27.099609 L 58.976562 27.103516 C 59.069692 28.341422 58.986561 29.802041 58.480469 30.931641 C 58.005941 31.99088 57.170883 32.753423 55.738281 32.824219 L 55.701172 32.824219 C 53.499169 32.831766 51.296132 32.83541 49.09375 32.837891 L 45.789062 32.837891 C 43.670205 32.836426 41.551991 32.831829 39.433594 32.820312 C 38.736838 32.752204 38.051384 32.607702 37.457031 32.341797 C 37.149408 32.204173 36.870163 32.033197 36.621094 31.830078 C 36.464564 31.667506 36.321226 31.491414 36.195312 31.300781 C 35.877379 30.819428 35.664216 30.259188 35.566406 29.677734 C 35.5583 29.558985 35.546867 29.443844 35.548828 29.316406 L 35.548828 29.314453 L 35.548828 28.359375 L 35.548828 28.351562 L 35.548828 28.345703 C 35.565546 27.172111 35.55733 25.997937 35.548828 24.824219 L 35.548828 21.900391 L 35.548828 21.896484 C 35.547553 21.879496 35.548084 21.860822 35.546875 21.84375 C 35.552616 21.146809 35.571438 20.451001 35.597656 19.755859 C 35.676266 19.159557 35.815808 18.578175 36.044922 18.066406 C 36.191546 17.738874 36.376259 17.443832 36.597656 17.183594 C 36.791067 17.003487 37.003687 16.842923 37.234375 16.707031 C 37.732058 16.413861 38.304183 16.240366 38.890625 16.167969 C 38.95249 16.166413 39.008188 16.159139 39.072266 16.160156 L 39.074219 16.160156 L 40.03125 16.160156 L 54.070312 16.160156 L 54.076172 16.160156 L 55.138672 16.160156 L 55.132812 16.146484 z M 8.6953125 16.160156 L 8.6972656 16.160156 L 9.4960938 16.160156 L 9.5800781 16.160156 L 18.230469 16.160156 C 20.534138 16.159085 22.837553 16.162105 25.140625 16.179688 C 25.719932 16.252777 26.286855 16.402094 26.785156 16.65625 C 27.013344 16.772636 27.226664 16.907893 27.421875 17.064453 C 27.445909 17.083729 27.46678 17.107046 27.490234 17.126953 C 27.662069 17.299985 27.817 17.491024 27.953125 17.697266 C 28.234627 18.123765 28.436543 18.612754 28.546875 19.123047 C 28.575186 19.757204 28.589414 20.391745 28.597656 21.027344 C 28.585451 22.251852 28.595132 23.476911 28.603516 24.701172 C 28.599073 25.500207 28.589851 26.298546 28.599609 27.097656 L 28.599609 27.099609 L 28.599609 27.103516 C 28.600887 27.120501 28.600352 27.139183 28.601562 27.15625 C 28.595828 27.853195 28.57711 28.549027 28.550781 29.244141 C 28.472167 29.840077 28.33272 30.420056 28.103516 30.931641 C 27.955793 31.261386 27.768548 31.556842 27.544922 31.818359 C 27.35287 31.996327 27.142707 32.156399 26.914062 32.291016 C 26.416451 32.583988 25.844296 32.757623 25.257812 32.830078 C 25.195968 32.831633 25.140226 32.838911 25.076172 32.837891 L 25.074219 32.837891 L 24.117188 32.837891 L 24.103516 32.837891 L 15.296875 32.837891 C 13.247335 32.83854 11.197413 32.836701 9.1484375 32.826172 C 8.4202511 32.762419 7.7005239 32.619371 7.0800781 32.341797 C 5.9501961 31.83631 5.1470299 30.931292 5.171875 29.316406 L 5.171875 29.314453 L 5.171875 21.900391 L 5.171875 21.896484 C 5.0789171 20.658302 5.1621056 19.196413 5.6679688 18.066406 C 6.1738317 16.936399 7.0799097 16.134508 8.6953125 16.160156 z M 24.083984 38.099609 L 25.785156 38.099609 C 26.404805 38.123626 27.026127 38.14784 27.628906 38.099609 L 34.71875 38.099609 C 36.582309 38.098531 38.445701 38.100178 40.308594 38.117188 C 40.874255 38.188979 41.42649 38.333484 41.916016 38.570312 C 42.190188 38.702955 42.442603 38.865111 42.669922 39.054688 C 42.672039 39.056453 42.673668 39.058776 42.675781 39.060547 C 42.849586 39.234867 43.005156 39.428513 43.142578 39.636719 C 43.42621 40.066446 43.626549 40.559729 43.736328 41.074219 C 43.764978 41.719453 43.781041 42.364999 43.789062 43.011719 C 43.790385 43.118323 43.788142 43.225394 43.789062 43.332031 C 43.785516 44.233822 43.788758 45.135527 43.792969 46.037109 C 43.786644 47.037166 43.776846 48.036757 43.789062 49.037109 L 43.789062 49.039062 L 43.789062 49.042969 C 43.78982 49.053043 43.790281 49.064116 43.791016 49.074219 C 43.787338 49.731517 43.775265 50.388488 43.759766 51.044922 C 43.685591 51.689637 43.540001 52.319716 43.292969 52.871094 C 42.78692 54.000693 41.88043 54.803061 40.265625 54.777344 L 40.263672 54.777344 L 26.099609 54.777344 L 26.095703 54.777344 C 24.857802 54.870194 23.39746 54.786743 22.267578 54.28125 C 21.453747 53.917159 20.814846 53.339928 20.527344 52.445312 L 20.544922 52.445312 L 20.529297 52.330078 C 20.41253 51.547503 20.375453 50.754657 20.359375 49.958984 L 20.359375 47.736328 C 20.374333 46.877587 20.388578 46.017867 20.359375 45.160156 L 20.359375 45.148438 C 20.415957 44.340006 20.348906 43.473734 20.339844 42.628906 C 20.339802 42.625024 20.339883 42.621068 20.339844 42.617188 C 20.368877 41.710028 20.50884 40.78012 20.855469 40.005859 C 21.004456 39.673047 21.193605 39.374457 21.419922 39.111328 C 21.491599 39.041385 21.561311 38.9706 21.642578 38.904297 C 22.372403 38.345236 23.205694 38.155652 24.083984 38.099609 z " />
  <defs
     id="defs8">
    <inkscape:path-effect
       effect="fillet_chamfer"
       id="path-effect2"
       is_visible="true"
       lpeversion="1"
       nodesatellites_param="F,0,0,1,0,7.3755114,0,1 @ F,0,1,1,0,7.3755114,0,1 @ F,0,1,1,0,7.3755114,0,1 @ F,0,1,1,0,7.3755114,0,1"
       radius="0"
       unit="px"
       method="auto"
       mode="F"
       chamfer_steps="1"
       flexible="false"
       use_knot_distance="true"
       apply_no_radius="true"
       apply_with_radius="true"
       only_selected="false"
       hide_knots="false" />
    <inkscape:path-effect
       effect="fillet_chamfer"
       id="path-effect1"
       is_visible="true"
       lpeversion="1"
       nodesatellites_param="F,0,1,1,0,3.6242761,0,1 @ F,0,1,1,0,3.6242761,0,1 @ F,0,1,1,0,3.6242761,0,1 @ F,0,1,1,0,3.6242761,0,1 | F,0,1,1,0,3.6242761,0,1 @ F,0,1,1,0,3.6242761,0,1 @ F,0,0,1,0,3.6242761,0,1 @ F,0,1,1,0,3.6242761,0,1 | F,0,1,1,0,3.6242761,0,1 @ F,0,1,1,0,3.6242761,0,1 @ F,0,1,1,0,3.6242761,0,1 @ F,0,1,1,0,3.6242761,0,1"
       radius="0"
       unit="px"
       method="auto"
       mode="F"
       chamfer_steps="1"
       flexible="false"
       use_knot_distance="true"
       apply_no_radius="true"
       apply_with_radius="true"
       only_selected="false"
       hide_knots="false" />
    <linearGradient
       id="linearGradient11"
       inkscape:collect="always">
      <stop
         style="stop-color:#1ec6e5;stop-opacity:1;"
         offset="0"
         id="stop11" />
      <stop
         style="stop-color:#1e72e5;stop-opacity:1;"
         offset="1"
         id="stop12" />
    </linearGradient>
    <radialGradient
       inkscape:collect="always"
       xlink:href="#linearGradient11"
       id="radialGradient12"
       cx="10.502829"
       cy="54.105305"
       fx="10.502829"
       fy="54.105305"
       r="25.879868"
       gradientTransform="matrix(2.7498103,0,0,2.3569802,-16.50683,-78.097048)"
       gradientUnits="userSpaceOnUse" />
    <inkscape:path-effect
       effect="fillet_chamfer"
       id="path-effect1-3"
       is_visible="true"
       lpeversion="1"
       nodesatellites_param="F,0,1,1,0,3.6242761,0,1 @ F,0,1,1,0,3.6242761,0,1 @ F,0,1,1,0,3.6242761,0,1 @ F,0,1,1,0,3.6242761,0,1 | F,0,1,1,0,3.6242761,0,1 @ F,0,1,1,0,3.6242761,0,1 @ F,0,0,1,0,3.6242761,0,1 @ F,0,1,1,0,3.6242761,0,1 | F,0,1,1,0,3.6242761,0,1 @ F,0,1,1,0,3.6242761,0,1 @ F,0,1,1,0,3.6242761,0,1 @ F,0,1,1,0,3.6242761,0,1"
       radius="0"
       unit="px"
       method="auto"
       mode="F"
       chamfer_steps="1"
       flexible="false"
       use_knot_distance="true"
       apply_no_radius="true"
       apply_with_radius="true"
       only_selected="false"
       hide_knots="false" />
    <inkscape:path-effect
       effect="fillet_chamfer"
       id="path-effect2-3"
       is_visible="true"
       lpeversion="1"
       nodesatellites_param="F,0,0,1,0,7.3755114,0,1 @ F,0,1,1,0,7.3755114,0,1 @ F,0,1,1,0,7.3755114,0,1 @ F,0,1,1,0,7.3755114,0,1"
       radius="0"
       unit="px"
       method="auto"
       mode="F"
       chamfer_steps="1"
       flexible="false"
       use_knot_distance="true"
       apply_no_radius="true"
       apply_with_radius="true"
       only_selected="false"
       hide_knots="false" />
    <filter
       inkscape:collect="always"
       style="color-interpolation-filters:sRGB"
       id="filter4"
       x="-0.079825941"
       y="-0.10003296"
       width="1.1596519"
       height="1.2000659">
      <feGaussianBlur
         inkscape:collect="always"
         stdDeviation="1.8051078"
         id="feGaussianBlur4" />
    </filter>
  </defs>
  <sodipodi:namedview
     id="namedview8"
     pagecolor="#ffffff"
     bordercolor="#000000"
     borderopacity="0.25"
     inkscape:showpageshadow="2"
     inkscape:pageopacity="0.0"
     inkscape:pagecheckerboard="0"
     inkscape:deskcolor="#d1d1d1"
     inkscape:zoom="9.8111066"
     inkscape:cx="32.819947"
     inkscape:cy="38.0691"
     inkscape:window-width="1920"
     inkscape:window-height="1018"
     inkscape:window-x="0"
     inkscape:window-y="0"
     inkscape:window-maximized="1"
     inkscape:current-layer="svg8" />
</svg>
