<?xml version="1.0" encoding="UTF-8" standalone="no"?>
<!-- Generator: Adobe Illustrator 25.2.1, SVG Export Plug-In . SVG Version: 6.00 Build 0)  -->

<svg
   version="1.1"
   id="Layer_1"
   x="0px"
   y="0px"
   viewBox="0 0 64 64"
   style="enable-background:new 0 0 64 64;"
   xml:space="preserve"
   sodipodi:docname="deepin-software-center.svg"
   inkscape:version="1.4 (e7c3feb100, 2024-10-09)"
   xmlns:inkscape="http://www.inkscape.org/namespaces/inkscape"
   xmlns:sodipodi="http://sodipodi.sourceforge.net/DTD/sodipodi-0.dtd"
   xmlns="http://www.w3.org/2000/svg"
   xmlns:svg="http://www.w3.org/2000/svg"><defs
   id="defs4"><linearGradient
     id="linearGradient7"
     gradientUnits="userSpaceOnUse"
     x1="20.5113"
     y1="28.7208"
     x2="56.5723"
     y2="55.5266">
	<stop
   offset="0"
   style="stop-color:#15C7FF"
   id="stop6" />
	<stop
   offset="1"
   style="stop-color:#0277d1;stop-opacity:1;"
   id="stop7" />
</linearGradient><linearGradient
     id="linearGradient5"
     gradientUnits="userSpaceOnUse"
     x1="31.82996"
     y1="31.892202"
     x2="56.5723"
     y2="55.5266"
     gradientTransform="translate(-0.02475664,0.04464037)">
	<stop
   offset="0"
   style="stop-color:#15c7ff;stop-opacity:0;"
   id="stop3-3" />
	<stop
   offset="1"
   style="stop-color:#000000;stop-opacity:1;"
   id="stop4-6" />
</linearGradient><radialGradient
     id="SVGID_1_-3"
     cx="11.7752"
     cy="19.0165"
     r="57.6096"
     gradientUnits="userSpaceOnUse"
     gradientTransform="translate(0.05000052,1.9999996)"><stop
       offset="0"
       style="stop-color:#f47f00;stop-opacity:1;"
       id="stop1-6" /><stop
       offset="1"
       style="stop-color:#d515ff;stop-opacity:1;"
       id="stop2-7" /></radialGradient><linearGradient
     id="linearGradient1"
     gradientUnits="userSpaceOnUse"
     x1="20.511299"
     y1="28.7208"
     x2="56.5723"
     y2="55.5266"
     gradientTransform="translate(0.05000052,1.9999996)"><stop
       offset="0"
       style="stop-color:#15C7FF"
       id="stop3-5" /><stop
       offset="1"
       style="stop-color:#005A9E"
       id="stop4-3" /></linearGradient><radialGradient
     id="SVGID_1_-2"
     cx="11.7752"
     cy="19.0165"
     r="57.6096"
     gradientUnits="userSpaceOnUse"
     gradientTransform="translate(0.05000052,1.9999996)"><stop
       offset="0"
       style="stop-color:#75efff;stop-opacity:1;"
       id="stop1-9" /><stop
       offset="1"
       style="stop-color:#26a1ff;stop-opacity:1;"
       id="stop2-1" /></radialGradient><radialGradient
     id="SVGID_1_-2-3"
     cx="11.7752"
     cy="19.0165"
     r="57.6096"
     gradientUnits="userSpaceOnUse"
     gradientTransform="translate(0.02398919,2.0215435)"><stop
       offset="0"
       style="stop-color:#75baff;stop-opacity:1;"
       id="stop1-9-6" /><stop
       offset="1"
       style="stop-color:#3f48ff;stop-opacity:1;"
       id="stop2-1-7" /></radialGradient><radialGradient
     id="SVGID_1_-2-3-3"
     cx="12.484092"
     cy="21.357109"
     r="57.6096"
     gradientUnits="userSpaceOnUse"
     gradientTransform="matrix(0,0.79198374,-0.79198378,0,26.748113,12.290544)"
     fx="12.484092"
     fy="21.357109"><stop
       offset="0"
       style="stop-color:#00f0ff;stop-opacity:1;"
       id="stop1-9-6-6" /><stop
       offset="1"
       style="stop-color:#36a5fc;stop-opacity:1;"
       id="stop2-1-7-7" /></radialGradient><filter
     inkscape:collect="always"
     style="color-interpolation-filters:sRGB"
     id="filter3"
     x="-0.11913381"
     y="-0.13313559"
     width="1.2382676"
     height="1.2662712"><feGaussianBlur
       inkscape:collect="always"
       stdDeviation="2.7430862"
       id="feGaussianBlur3" /></filter><radialGradient
     id="SVGID_1_-2-3-5"
     cx="11.7752"
     cy="19.0165"
     r="57.6096"
     gradientUnits="userSpaceOnUse"
     gradientTransform="matrix(0.918263,0,0,0.918263,-0.5706792,26.18842)"><stop
       offset="0"
       style="stop-color:#2ddbf6;stop-opacity:1;"
       id="stop1-9-6-6-3" /><stop
       offset="1"
       style="stop-color:#26acff;stop-opacity:1;"
       id="stop2-1-7-2" /></radialGradient><filter
     inkscape:collect="always"
     style="color-interpolation-filters:sRGB"
     id="filter1"
     x="-0.087202166"
     y="-0.081522331"
     width="1.1744043"
     height="1.1630447"><feGaussianBlur
       inkscape:collect="always"
       stdDeviation="0.84488869"
       id="feGaussianBlur1" /></filter></defs><sodipodi:namedview
   id="namedview4"
   pagecolor="#ffffff"
   bordercolor="#000000"
   borderopacity="0.25"
   inkscape:showpageshadow="2"
   inkscape:pageopacity="0.0"
   inkscape:pagecheckerboard="0"
   inkscape:deskcolor="#d1d1d1"
   inkscape:zoom="8.9382717"
   inkscape:cx="32.612569"
   inkscape:cy="31.82942"
   inkscape:window-width="1920"
   inkscape:window-height="1020"
   inkscape:window-x="0"
   inkscape:window-y="0"
   inkscape:window-maximized="1"
   inkscape:current-layer="Layer_1" />
<style
   type="text/css"
   id="style1">
	.st0{opacity:0.27;}
	.st1{fill:url(#SVGID_1_);}
	.st2{fill:url(#SVGID_2_);}
</style>

<radialGradient
   id="SVGID_1_"
   cx="11.7752"
   cy="19.0165"
   r="57.6096"
   gradientUnits="userSpaceOnUse">
	<stop
   offset="0"
   style="stop-color:#00F0F4"
   id="stop1" />
	<stop
   offset="1"
   style="stop-color:#1598FF"
   id="stop2" />
</radialGradient>

<linearGradient
   id="SVGID_2_"
   gradientUnits="userSpaceOnUse"
   x1="20.5113"
   y1="28.7208"
   x2="56.5723"
   y2="55.5266"
   gradientTransform="translate(0.05000052,1.9999996)">
	<stop
   offset="0"
   style="stop-color:#ff1586;stop-opacity:1;"
   id="stop3" />
	<stop
   offset="1"
   style="stop-color:#5e009e;stop-opacity:1;"
   id="stop4" />
</linearGradient>

<g
   id="g1"
   transform="translate(3.1055997,-21.185528)"><path
     class="st1"
     d="m 17.79458,36.840271 v 0 c 0,1.561047 -1.193742,2.846615 -2.754789,2.846615 h -4.95862 c -3.8567045,0 -6.9787987,3.122094 -6.9787987,6.978799 v 22.313791 c 0,4.132184 3.3975731,7.529757 7.5297567,7.529757 H 47.08717 c 4.132184,0 7.529757,-3.397573 7.529757,-7.529757 V 46.573859 c 0,-3.856705 -3.122094,-6.978799 -6.978799,-6.978799 h -5.050447 c -1.561047,0 -2.754789,-1.193742 -2.754789,-2.754789 v 0 c 0,-3.581226 -2.846615,-6.427841 -6.336014,-6.427841 h -9.366283 c -3.489399,0.09183 -6.336015,2.938442 -6.336015,6.427841 z m 6.427841,-2.662963 h 9.18263 c 1.561047,0 2.754789,1.193742 2.754789,2.754789 v 0 c 0,1.561047 -1.193742,2.754789 -2.754789,2.754789 h -9.18263 c -1.561047,0 -2.754789,-1.193742 -2.754789,-2.754789 v 0 c 0,-1.561047 1.193742,-2.754789 2.754789,-2.754789 z"
     id="path2"
     style="fill:url(#SVGID_1_-2-3-5);stroke-width:0.918263" /><path
     class="st1"
     d="m 19.949999,13.900001 v 0 c 0,1.7 -1.3,3.1 -3,3.1 h -5.4 c -4.2000011,0 -7.6000001,3.4 -7.6000001,7.6 v 24.3 c 0,4.5 3.699999,8.2 8.2000001,8.2 h 39.7 c 4.5,0 8.2,-3.7 8.2,-8.2 v -24.4 c 0,-4.2 -3.4,-7.6 -7.6,-7.6 h -5.5 c -1.7,0 -3,-1.3 -3,-3 v 0 c 0,-3.9 -3.1,-7.0000003 -6.9,-7.0000003 h -10.2 c -3.8,0.1 -6.9,3.2000003 -6.9,7.0000003 z m 7,-2.9 h 10 c 1.7,0 3,1.3 3,3 v 0 c 0,1.7 -1.3,3 -3,3 h -10 c -1.7,0 -3,-1.3 -3,-3 v 0 c 0,-1.7 1.3,-3 3,-3 z"
     id="path2-2"
     style="mix-blend-mode:normal;fill:none;stroke:#000000;stroke-width:0.2;stroke-dasharray:none;stroke-opacity:1;filter:url(#filter3)"
     transform="matrix(0.918263,0,0,0.918263,-0.4900128,23.80111)" /></g><path
   class="st2"
   d="m 37.162153,27.649811 v 6.5 c 0,0.5 0.4,0.9 0.9,0.9 h 3 c 0.6,0 0.9,0.6 0.6,1.1 l -9.1,10.4 c -0.3,0.4 -0.8,0.4 -1.1,0 l -9.1,-10.4 c -0.3,-0.5 0,-1.1 0.6,-1.1 h 3 c 0.5,0 0.9,-0.4 0.9,-0.9 v -6.5 c 0,-1.7 1.4,-3.1 3.1,-3.1 h 4.3 c 1.6,0 2.9,1.4 2.9,3.1 z m -15.7,19.6 h 21 c 1,0 1.7,0.8 1.7,1.7 v 0 c 0,1 -0.8,1.7 -1.7,1.7 h -21 c -1,0 -1.7,-0.8 -1.7,-1.7 v 0 c 0,-0.9 0.7,-1.7 1.7,-1.7 z"
   id="path4-5"
   style="opacity:0.25669409;fill:#000000;fill-opacity:1" /><path
   class="st2"
   d="m 37.162153,27.649811 v 6.5 c 0,0.5 0.4,0.9 0.9,0.9 h 3 c 0.6,0 0.9,0.6 0.6,1.1 l -9.1,10.4 c -0.3,0.4 -0.8,0.4 -1.1,0 l -9.1,-10.4 c -0.3,-0.5 0,-1.1 0.6,-1.1 h 3 c 0.5,0 0.9,-0.4 0.9,-0.9 v -6.5 c 0,-1.7 1.4,-3.1 3.1,-3.1 h 4.3 c 1.6,0 2.9,1.4 2.9,3.1 z m -15.7,19.6 h 21 c 1,0 1.7,0.8 1.7,1.7 v 0 c 0,1 -0.8,1.7 -1.7,1.7 h -21 c -1,0 -1.7,-0.8 -1.7,-1.7 v 0 c 0,-0.9 0.7,-1.7 1.7,-1.7 z"
   id="path4-5-0"
   style="opacity:0.256694;fill:none;fill-opacity:1;stroke:#000000;stroke-opacity:1;stroke-width:0.2;stroke-dasharray:none;filter:url(#filter1)" /></svg>
