<?xml version="1.0" encoding="UTF-8" standalone="no"?>
<svg
   width="64"
   height="64"
   version="1.1"
   id="svg7"
   sodipodi:docname="steampowered.svg"
   inkscape:version="1.3.2 (091e20ef0f, 2023-11-25, custom)"
   xmlns:inkscape="http://www.inkscape.org/namespaces/inkscape"
   xmlns:sodipodi="http://sodipodi.sourceforge.net/DTD/sodipodi-0.dtd"
   xmlns:xlink="http://www.w3.org/1999/xlink"
   xmlns="http://www.w3.org/2000/svg"
   xmlns:svg="http://www.w3.org/2000/svg">
  <defs
     id="defs7">
    <linearGradient
       id="linearGradient5"
       inkscape:collect="always">
      <stop
         style="stop-color:#5734be;stop-opacity:1;"
         offset="0"
         id="stop5" />
      <stop
         style="stop-color:#215db7;stop-opacity:1;"
         offset="1"
         id="stop6" />
    </linearGradient>
    <radialGradient
       inkscape:collect="always"
       xlink:href="#linearGradient5"
       id="radialGradient6"
       cx="16.354628"
       cy="48.499519"
       fx="16.354628"
       fy="48.499519"
       r="29.54975"
       gradientUnits="userSpaceOnUse"
       gradientTransform="matrix(1.3288716,-0.35607008,0.35607008,1.3288716,-20.604891,-12.257379)" />
    <filter
       inkscape:collect="always"
       style="color-interpolation-filters:sRGB"
       id="filter8"
       x="-0.12092483"
       y="-0.12092483"
       width="1.2418497"
       height="1.2418497">
      <feGaussianBlur
         inkscape:collect="always"
         stdDeviation="2.5226188"
         id="feGaussianBlur8" />
    </filter>
    <filter
       inkscape:collect="always"
       style="color-interpolation-filters:sRGB"
       id="filter10"
       x="-0.041856086"
       y="-0.054980831"
       width="1.0851667"
       height="1.1099617">
      <feGaussianBlur
         inkscape:collect="always"
         stdDeviation="0.69794606"
         id="feGaussianBlur10" />
    </filter>
  </defs>
  <sodipodi:namedview
     id="namedview7"
     pagecolor="#ffffff"
     bordercolor="#000000"
     borderopacity="0.25"
     inkscape:showpageshadow="2"
     inkscape:pageopacity="0.0"
     inkscape:pagecheckerboard="0"
     inkscape:deskcolor="#d1d1d1"
     inkscape:zoom="8"
     inkscape:cx="21.0625"
     inkscape:cy="30.5"
     inkscape:window-width="1920"
     inkscape:window-height="1020"
     inkscape:window-x="0"
     inkscape:window-y="0"
     inkscape:window-maximized="1"
     inkscape:current-layer="svg7" />
  <path
     id="path5"
     style="opacity:1;fill:url(#radialGradient6);stroke-width:0.261772;stroke-linejoin:bevel;stroke-miterlimit:4.6"
     d="M 57.702771,31.971802 A 25.653477,25.653477 0 0 1 32.049294,57.625279 25.653477,25.653477 0 0 1 6.3958168,31.971802 25.653477,25.653477 0 0 1 32.049294,6.3183251 25.653477,25.653477 0 0 1 57.702771,31.971802 Z" />
  <path
     id="path3-3"
     style="opacity:0.8;mix-blend-mode:normal;fill:#ffffff;stroke:none;stroke-width:0.261772;stroke-dasharray:none;stroke-opacity:1;fill-opacity:1"
     d="m 37.787179,17.176206 c -5.301006,0 -9.598321,4.297315 -9.598321,9.598321 0.0044,0.06936 0.0095,0.138671 0.01534,0.207919 l -4.591243,7.652071 c -0.07438,-0.0034 -0.148807,-0.0057 -0.223256,-0.0068 -1.823866,0.0028 -3.582773,0.677436 -4.940613,1.895124 L 6.4008155,31.203632 c -0.02759,1.278828 -0.049235,3.842336 0.7576841,7.026057 l 8.8194294,3.877953 c 0.0346,4.069593 3.342033,7.351169 7.411772,7.353827 4.096232,0 7.416885,-3.320653 7.416885,-7.416885 -6.59e-4,-0.189975 -0.0086,-0.379854 -0.02386,-0.569218 l 8.205951,-5.187729 c 4.794735,-0.60495 8.391936,-4.680366 8.396828,-9.51311 0,-5.301006 -4.297316,-9.598321 -9.598322,-9.598321 z m 0,3.490298 c 3.373368,0 6.108023,2.734656 6.108023,6.108023 0,3.373368 -2.734655,6.108023 -6.108023,6.108023 -3.373367,0 -6.108023,-2.734655 -6.108023,-6.108023 0,-3.373367 2.734656,-6.108023 6.108023,-6.108023 z m 0,1.74515 c -2.409548,0 -4.362873,1.953325 -4.362873,4.362873 0,2.409549 1.953325,4.362874 4.362873,4.362874 2.409549,0 4.362874,-1.953325 4.362874,-4.362874 0,-2.409548 -1.953325,-4.362873 -4.362874,-4.362873 z M 23.389697,37.245423 c 2.650503,0 4.799161,2.148658 4.799161,4.799161 0,2.650503 -2.148658,4.799161 -4.799161,4.799161 -2.141526,-0.0075 -4.018946,-1.432916 -4.601468,-3.493707 l 3.367593,1.487808 c 3.768012,1.759718 6.306183,-3.986226 2.46775,-5.586523 l -3.365888,-1.487808 c 0.661131,-0.335011 1.39087,-0.512341 2.132013,-0.518092 z"
     sodipodi:nodetypes="scccccccccccccsssssssssssscscccccc" />
  <path
     id="path5-9"
     style="fill:none;stroke-width:0.29999933;stroke-linejoin:bevel;stroke-miterlimit:4.6;stroke:#000000;stroke-opacity:1;filter:url(#filter8);stroke-dasharray:none"
     d="M 57.653477,32 A 25.653477,25.653477 0 0 1 32,57.653477 25.653477,25.653477 0 0 1 6.3465227,32 25.653477,25.653477 0 0 1 32,6.3465229 25.653477,25.653477 0 0 1 57.653477,32 Z" />
  <path
     id="path3-3-1"
     style="fill:none;stroke:#1400ff;stroke-width:0.2;stroke-dasharray:none;stroke-opacity:1;filter:url(#filter10)"
     d="m 7.1183657,38.222442 8.8173503,3.8852 c 0.0346,4.069593 3.342033,7.351169 7.411772,7.353827 4.096232,0 7.416885,-3.320653 7.416885,-7.416885 -6.59e-4,-0.189975 -0.0086,-0.379854 -0.02386,-0.569218 l 8.205951,-5.187729 c 4.794735,-0.60495 8.391936,-4.680366 8.396828,-9.51311 0,-5.301006 -4.297316,-9.598321 -9.598322,-9.598321 l -4e-6,0 c -5.301006,0 -9.598321,4.297315 -9.598321,9.598321 0.0044,0.06936 0.0095,0.138671 0.01534,0.207919 l -4.591243,7.652071 c -0.07438,-0.0034 -0.148807,-0.0057 -0.223256,-0.0068 -1.823866,0.0028 -3.582773,0.677436 -4.940613,1.895124 L 6.3586017,31.203632 M 37.744966,20.666504 c 3.373368,0 6.108023,2.734656 6.108023,6.108023 0,3.373368 -2.734655,6.108023 -6.108023,6.108023 -3.373367,0 -6.108023,-2.734655 -6.108023,-6.108023 0,-3.373367 2.734656,-6.108023 6.108023,-6.108023 z m 0,1.74515 c -2.409548,0 -4.362873,1.953325 -4.362873,4.362873 0,2.409549 1.953325,4.362874 4.362873,4.362874 2.409549,0 4.362874,-1.953325 4.362874,-4.362874 0,-2.409548 -1.953325,-4.362873 -4.362874,-4.362873 z M 23.347484,37.245423 c 2.650503,0 4.799161,2.148658 4.799161,4.799161 0,2.650503 -2.148658,4.799161 -4.799161,4.799161 -2.141526,-0.0075 -4.018946,-1.432916 -4.601468,-3.493707 l 3.367593,1.487808 c 3.768012,1.759718 6.306183,-3.986226 2.46775,-5.586523 l -3.365888,-1.487808 c 0.661131,-0.335011 1.39087,-0.512341 2.132013,-0.518092 z"
     sodipodi:nodetypes="cccccccssccccccsssssssssscscccccc" />
</svg>
