<?xml version="1.0" encoding="UTF-8" standalone="no"?>
<svg
   width="64"
   height="64"
   version="1"
   id="svg5"
   sodipodi:docname="system-help.svg"
   inkscape:version="1.3.2 (091e20ef0f, 2023-11-25, custom)"
   xmlns:inkscape="http://www.inkscape.org/namespaces/inkscape"
   xmlns:sodipodi="http://sodipodi.sourceforge.net/DTD/sodipodi-0.dtd"
   xmlns:xlink="http://www.w3.org/1999/xlink"
   xmlns="http://www.w3.org/2000/svg"
   xmlns:svg="http://www.w3.org/2000/svg">
  <defs
     id="defs5">
    <linearGradient
       id="linearGradient1"
       inkscape:collect="always">
      <stop
         style="stop-color:#e74c3c;stop-opacity:1;"
         offset="0"
         id="stop1" />
      <stop
         style="stop-color:#d01840;stop-opacity:1;"
         offset="1"
         id="stop2" />
    </linearGradient>
    <radialGradient
       inkscape:collect="always"
       xlink:href="#linearGradient1"
       id="radialGradient2"
       cx="11.325887"
       cy="50.832596"
       fx="11.325887"
       fy="50.832596"
       r="29"
       gradientUnits="userSpaceOnUse"
       gradientTransform="matrix(0.48142787,-1.7967133,1.7967133,0.48142787,-65.99854,53.933232)" />
    <filter
       inkscape:collect="always"
       style="color-interpolation-filters:sRGB"
       id="filter1"
       x="-0.15617165"
       y="-0.15617838"
       width="1.3123433"
       height="1.3123481">
      <feGaussianBlur
         inkscape:collect="always"
         stdDeviation="3.0937859"
         id="feGaussianBlur1" />
    </filter>
    <filter
       inkscape:collect="always"
       style="color-interpolation-filters:sRGB"
       id="filter2"
       x="-0.15523176"
       y="-0.15522766"
       width="1.3104684"
       height="1.3104553">
      <feGaussianBlur
         inkscape:collect="always"
         stdDeviation="3.0937859"
         id="feGaussianBlur2" />
    </filter>
  </defs>
  <sodipodi:namedview
     id="namedview5"
     pagecolor="#505050"
     bordercolor="#eeeeee"
     borderopacity="1"
     inkscape:showpageshadow="0"
     inkscape:pageopacity="0"
     inkscape:pagecheckerboard="0"
     inkscape:deskcolor="#505050"
     inkscape:zoom="7.8418054"
     inkscape:cx="30.286393"
     inkscape:cy="30.09511"
     inkscape:window-width="1920"
     inkscape:window-height="1020"
     inkscape:window-x="0"
     inkscape:window-y="0"
     inkscape:window-maximized="1"
     inkscape:current-layer="svg5" />
  <path
     style="fill:#e4e4e4;stroke-width:0.932728"
     d="M 14.962993,14.741107 C 12.724851,16.956442 10.883864,19.649925 9.6029537,22.752182 4.4794818,35.161385 10.344245,49.27531 22.753792,54.398439 35.162909,59.521996 49.275632,53.658435 54.398761,41.248889 59.522747,28.8402 53.657468,14.725761 41.247922,9.602632 31.941319,5.7595582 21.675792,8.0969028 14.962993,14.741107 Z m 7.80368,8.025245 a 13.058197,13.058197 0 0 1 18.467079,0 13.058197,13.058197 0 0 1 0,18.467079 13.058197,13.058197 0 0 1 -18.467079,0 13.058197,13.058197 0 0 1 0,-18.467079 z"
     id="path2" />
  <path
     style="fill:none;stroke-width:0.30000001;stroke:#000000;stroke-opacity:1;stroke-dasharray:none;filter:url(#filter1)"
     d="M 15.074184,14.795383 C 12.836042,17.010718 10.995055,19.704201 9.7141447,22.806458 4.5906727,35.215661 10.455436,49.329586 22.864983,54.452715 35.2741,59.576272 49.386823,53.712711 54.509952,41.303165 59.633938,28.894476 53.768659,14.780037 41.359113,9.6569077 32.05251,5.8138339 21.786983,8.1511785 15.074184,14.795383 Z m 7.80368,8.025245 a 13.058197,13.058197 0 0 1 18.467079,0 13.058197,13.058197 0 0 1 0,18.467079 13.058197,13.058197 0 0 1 -18.467079,0 13.058197,13.058197 0 0 1 0,-18.467079 z"
     id="path2-5" />
  <path
     style="fill:url(#radialGradient2);stroke-width:0.932728"
     d="m 12.984112,12.76321 c -2.134284,2.112391 -3.9041615,4.653178 -5.1871803,7.54596 a 2.2836022,2.2618241 45 0 0 1.1580436,3.008066 l 10.3708017,4.689097 a 2.2836022,2.2618241 45 0 0 2.999172,-1.127803 c 0.446085,-1.005914 1.073952,-1.922159 1.850023,-2.700323 0.779473,-0.773674 1.694086,-1.395846 2.700321,-1.839349 a 2.2836022,2.2618241 45 0 0 1.134919,-2.999171 L 23.315778,8.9528751 A 2.2836022,2.2618241 45 0 0 20.304155,7.7948315 C 17.618952,8.9885097 15.124109,10.645164 12.984112,12.76321 Z M 8.2665534,41.161063 a 2.2618241,2.2836022 45 0 0 -0.4696211,2.52955 c 1.2830183,2.892781 3.0528947,5.433569 5.1871797,7.54596 2.139997,2.118045 4.63484,3.774701 7.320043,4.968378 a 2.2618241,2.2836022 45 0 0 3.011624,-1.158043 L 28.011991,44.661876 A 2.2618241,2.2836022 45 0 0 26.875293,41.660925 C 25.869059,41.217421 24.95446,40.595235 24.174972,39.821576 23.398915,39.043398 22.771034,38.127167 22.324949,37.121253 A 2.2618241,2.2836022 45 0 0 19.325778,35.993451 L 8.9549752,40.682547 A 2.2618241,2.2836022 45 0 0 8.2665534,41.161063 Z M 41.161385,8.2662313 A 2.2618241,2.2836022 45 0 0 40.682869,8.9546534 L 35.993773,19.325456 a 2.2618241,2.2836022 45 0 0 1.127802,2.999171 c 1.005913,0.446085 1.922158,1.073952 2.700322,1.850023 0.773675,0.779473 1.395845,1.694087 1.83935,2.700322 a 2.2618241,2.2836022 45 0 0 3.00095,1.136697 L 55.04723,23.315458 a 2.2618241,2.2836022 45 0 0 1.158043,-3.011625 C 55.011595,17.618633 53.354941,15.123787 51.236894,12.98379 49.124503,10.849507 46.583716,9.0796289 43.690935,7.7966105 a 2.2618241,2.2836022 45 0 0 -2.52955,0.4696208 z m 1.021069,28.1274647 a 2.2836022,2.2618241 45 0 0 -0.521207,0.731115 c -0.443505,1.006234 -1.06569,1.920834 -1.83935,2.700321 -0.778178,0.776057 -1.694409,1.403938 -2.700322,1.850024 a 2.2836022,2.2618241 45 0 0 -1.127803,2.999172 l 4.689097,10.370801 a 2.2836022,2.2618241 45 0 0 3.008065,1.158044 c 2.892782,-1.283019 5.43357,-3.052895 7.54596,-5.187181 2.118048,-2.139995 3.774701,-4.634841 4.968379,-7.320043 A 2.2836022,2.2618241 45 0 0 55.047229,40.684326 L 44.660418,35.989893 a 2.2836022,2.2618241 45 0 0 -2.477964,0.403803 z"
     id="path5" />
  <path
     style="fill:none;stroke-width:0.3;stroke:#000000;stroke-opacity:1;stroke-dasharray:none;filter:url(#filter2)"
     d="m 13.095303,12.817486 c -2.134284,2.112391 -3.9041623,4.653178 -5.1871803,7.54596 a 2.2836022,2.2618241 45 0 0 1.158043,3.008066 l 10.3708023,4.689097 a 2.2836022,2.2618241 45 0 0 2.999172,-1.127803 c 0.446085,-1.005914 1.073952,-1.922159 1.850023,-2.700323 0.779473,-0.773674 1.694086,-1.395846 2.700321,-1.839349 a 2.2836022,2.2618241 45 0 0 1.134919,-2.999171 L 23.426969,9.0071508 A 2.2836022,2.2618241 45 0 0 20.415346,7.8491072 C 17.730143,9.0427854 15.2353,10.69944 13.095303,12.817486 Z M 8.3777437,41.215339 a 2.2618241,2.2836022 45 0 0 -0.469621,2.52955 c 1.283018,2.892781 3.0528953,5.433569 5.1871803,7.54596 2.139997,2.118045 4.63484,3.774701 7.320043,4.968378 A 2.2618241,2.2836022 45 0 0 23.42697,55.101184 L 28.123182,44.716152 A 2.2618241,2.2836022 45 0 0 26.986484,41.715201 C 25.98025,41.271697 25.065651,40.649511 24.286163,39.875852 23.510106,39.097674 22.882225,38.181443 22.43614,37.175529 A 2.2618241,2.2836022 45 0 0 19.436969,36.047727 L 9.0661657,40.736823 a 2.2618241,2.2836022 45 0 0 -0.688422,0.478516 z M 41.272576,8.320507 A 2.2618241,2.2836022 45 0 0 40.79406,9.0089291 L 36.104964,19.379732 a 2.2618241,2.2836022 45 0 0 1.127802,2.999171 c 1.005913,0.446085 1.922158,1.073952 2.700322,1.850023 0.773675,0.779473 1.395845,1.694087 1.83935,2.700322 a 2.2618241,2.2836022 45 0 0 3.00095,1.136697 l 10.385033,-4.696211 a 2.2618241,2.2836022 45 0 0 1.158043,-3.011625 c -1.193678,-2.6852 -2.850332,-5.180046 -4.968379,-7.320043 -2.112391,-2.134283 -4.653178,-3.9041614 -7.545959,-5.1871798 a 2.2618241,2.2836022 45 0 0 -2.52955,0.4696208 z m 1.021069,28.127465 a 2.2836022,2.2618241 45 0 0 -0.521207,0.731115 c -0.443505,1.006234 -1.06569,1.920834 -1.83935,2.700321 -0.778178,0.776057 -1.694409,1.403938 -2.700322,1.850024 a 2.2836022,2.2618241 45 0 0 -1.127803,2.999172 l 4.689097,10.370801 a 2.2836022,2.2618241 45 0 0 3.008065,1.158044 c 2.892782,-1.283019 5.43357,-3.052895 7.54596,-5.187181 2.118048,-2.139995 3.774701,-4.634841 4.968379,-7.320043 A 2.2836022,2.2618241 45 0 0 55.15842,40.738602 L 44.771609,36.044169 a 2.2836022,2.2618241 45 0 0 -2.477964,0.403803 z"
     id="path5-3" />
</svg>
