<?xml version="1.0" encoding="UTF-8" standalone="no"?>
<!-- Generator: Adobe Illustrator 25.2.1, SVG Export Plug-In . SVG Version: 6.00 Build 0)  -->

<svg
   version="1.1"
   id="Layer_1"
   x="0px"
   y="0px"
   viewBox="0 0 64 64"
   style="enable-background:new 0 0 64 64;"
   xml:space="preserve"
   sodipodi:docname="preferences-system-users.svg"
   inkscape:version="1.3.2 (091e20ef0f, 2023-11-25, custom)"
   xmlns:inkscape="http://www.inkscape.org/namespaces/inkscape"
   xmlns:sodipodi="http://sodipodi.sourceforge.net/DTD/sodipodi-0.dtd"
   xmlns:xlink="http://www.w3.org/1999/xlink"
   xmlns="http://www.w3.org/2000/svg"
   xmlns:svg="http://www.w3.org/2000/svg"><defs
   id="defs5"><filter
     inkscape:collect="always"
     style="color-interpolation-filters:sRGB"
     id="filter1"
     x="-0.10203644"
     y="-0.10203644"
     width="1.2040729"
     height="1.2040729"><feGaussianBlur
       inkscape:collect="always"
       stdDeviation="2.3154179"
       id="feGaussianBlur1" /></filter><radialGradient
     inkscape:collect="always"
     xlink:href="#linearGradient4"
     id="radialGradient5"
     cx="11.001936"
     cy="34.411228"
     fx="11.001936"
     fy="34.411228"
     r="28"
     gradientUnits="userSpaceOnUse"
     gradientTransform="matrix(0.51712686,1.9299437,-1.6733204,0.44836488,62.568412,-23.779042)" /><linearGradient
     id="linearGradient4"
     inkscape:collect="always"><stop
       style="stop-color:#00c8ff;stop-opacity:1;"
       offset="0"
       id="stop4" /><stop
       style="stop-color:#009cff;stop-opacity:1;"
       offset="1"
       id="stop5" /></linearGradient><filter
     inkscape:collect="always"
     style="color-interpolation-filters:sRGB"
     id="filter2"
     x="-0.20736424"
     y="-0.15692429"
     width="1.4147285"
     height="1.3138486"><feGaussianBlur
       inkscape:collect="always"
       stdDeviation="2.3567495"
       id="feGaussianBlur2" /></filter></defs><sodipodi:namedview
   id="namedview5"
   pagecolor="#ffffff"
   bordercolor="#000000"
   borderopacity="0.25"
   inkscape:showpageshadow="2"
   inkscape:pageopacity="0.0"
   inkscape:pagecheckerboard="0"
   inkscape:deskcolor="#d1d1d1"
   inkscape:zoom="9.8111066"
   inkscape:cx="36.132519"
   inkscape:cy="37.355623"
   inkscape:window-width="1920"
   inkscape:window-height="1018"
   inkscape:window-x="0"
   inkscape:window-y="0"
   inkscape:window-maximized="1"
   inkscape:current-layer="Layer_1" />
<style
   type="text/css"
   id="style1">
	.st0{opacity:0.2;fill:#00100F;enable-background:new    ;}
	.st1{fill:url(#SVGID_1_);}
	.st2{opacity:0.2;}
	.st3{fill:#FFFFFF;}
</style>

<radialGradient
   id="SVGID_1_"
   cx="12.3889"
   cy="14.305"
   r="63.2895"
   gradientUnits="userSpaceOnUse"
   gradientTransform="translate(0.0534514,-0.01588344)">
	<stop
   offset="0"
   style="stop-color:#00F0F4"
   id="stop1" />
	<stop
   offset="1"
   style="stop-color:#1598FF"
   id="stop2" />
</radialGradient>



<rect
   style="fill:url(#radialGradient5);stroke-width:0.955185"
   width="53.490372"
   height="53.490372"
   x="5.1931915"
   y="5.2981958"
   rx="26.745186"
   ry="26.745186"
   id="rect1" /><rect
   style="mix-blend-mode:normal;fill:none;stroke:#000000;stroke-width:0.31407521;stroke-dasharray:none;stroke-opacity:1;filter:url(#filter1)"
   width="56"
   height="56"
   x="4.0645156"
   y="3.9545853"
   rx="28"
   ry="28"
   id="rect1-5"
   transform="matrix(0.95518521,0,0,0.95518521,1.3724513,1.4774551)" /><path
   id="path4"
   class="st3"
   d="m 32,14.006629 c -3.899996,0 -7,3.100004 -7,7 0,3.899996 3.100004,7 7,7 3.899996,0 7,-3.100004 7,-7 0,-3.899996 -3.100004,-7 -7,-7 z m 0,19 c -13.999986,0 -14,8.900391 -14,8.900391 0,3.199996 1.900784,6.200001 4.800781,7.5 2.099998,0.899999 5.099223,1.599609 9.199219,1.599609 4.099996,0 7.099221,-0.69961 9.199219,-1.599609 C 44.199216,48.107021 46,45.107016 46,41.90702 c 0,0 -1.4e-5,-8.900391 -14,-8.900391 z" /><path
   id="path4-3"
   class="st3"
   d="m 31.961168,14.010239 c -3.899996,0 -7,3.100004 -7,7 0,3.899996 3.100004,7 7,7 3.899996,0 7,-3.100004 7,-7 0,-3.899996 -3.100004,-7 -7,-7 z m 0,19 c -13.999986,0 -14,8.900391 -14,8.900391 0,3.199996 1.900784,6.200001 4.800781,7.5 2.099998,0.899999 5.099223,1.599609 9.199219,1.599609 4.099996,0 7.099221,-0.69961 9.199219,-1.599609 2.999997,-1.299999 4.800781,-4.300004 4.800781,-7.5 0,0 -1.4e-5,-8.900391 -14,-8.900391 z"
   style="fill:none;stroke:#000aff;stroke-opacity:1;filter:url(#filter2);stroke-width:0.29999992;stroke-dasharray:none" /></svg>
