<?xml version="1.0" encoding="UTF-8" standalone="no"?>
<svg
   width="64"
   height="64"
   version="1.1"
   id="svg10"
   sodipodi:docname="solstice-microsoft-365-teams.svg"
   inkscape:version="1.3.2 (091e20ef0f, 2023-11-25, custom)"
   xmlns:inkscape="http://www.inkscape.org/namespaces/inkscape"
   xmlns:sodipodi="http://sodipodi.sourceforge.net/DTD/sodipodi-0.dtd"
   xmlns:xlink="http://www.w3.org/1999/xlink"
   xmlns="http://www.w3.org/2000/svg"
   xmlns:svg="http://www.w3.org/2000/svg">
  <defs
     id="defs10">
    <inkscape:path-effect
       effect="fillet_chamfer"
       id="path-effect20"
       is_visible="true"
       lpeversion="1"
       nodesatellites_param="F,0,0,1,0,0,0,1 @ F,0,0,1,0,0,0,1 @ F,0,0,1,0,0,0,1 @ F,0,0,1,0,0,0,1 @ F,0,0,1,0,0,0,1 @ F,0,0,1,0,0,0,1 @ F,0,0,1,0,0,0,1 @ F,0,0,1,0,0,0,1"
       radius="0"
       unit="px"
       method="auto"
       mode="F"
       chamfer_steps="1"
       flexible="false"
       use_knot_distance="true"
       apply_no_radius="true"
       apply_with_radius="true"
       only_selected="false"
       hide_knots="false" />
    <linearGradient
       id="linearGradient14"
       inkscape:collect="always">
      <stop
         style="stop-color:#a798ff;stop-opacity:1;"
         offset="0"
         id="stop14" />
      <stop
         style="stop-color:#836dff;stop-opacity:1;"
         offset="1"
         id="stop15" />
    </linearGradient>
    <radialGradient
       inkscape:collect="always"
       xlink:href="#linearGradient14"
       id="radialGradient1"
       cx="21.425623"
       cy="43.880768"
       fx="21.425623"
       fy="43.880768"
       r="14.500001"
       gradientTransform="matrix(2.2790882,-2.2790882,4.4009975,4.4009975,-220.52441,-89.346098)"
       gradientUnits="userSpaceOnUse" />
    <radialGradient
       inkscape:collect="always"
       xlink:href="#linearGradient14"
       id="radialGradient2"
       cx="21.425623"
       cy="43.880768"
       fx="21.425623"
       fy="43.880768"
       r="14.500001"
       gradientTransform="matrix(2.2790882,-2.2790882,4.4009975,4.4009975,-220.52441,-89.346098)"
       gradientUnits="userSpaceOnUse" />
    <radialGradient
       inkscape:collect="always"
       xlink:href="#linearGradient14"
       id="radialGradient4"
       cx="21.425623"
       cy="43.880768"
       fx="21.425623"
       fy="43.880768"
       r="14.500001"
       gradientTransform="matrix(2.2790882,-2.2790882,4.4009975,4.4009975,-220.52441,-89.346098)"
       gradientUnits="userSpaceOnUse" />
    <radialGradient
       inkscape:collect="always"
       xlink:href="#linearGradient14"
       id="radialGradient6"
       cx="21.425623"
       cy="43.880768"
       fx="21.425623"
       fy="43.880768"
       r="14.500001"
       gradientTransform="matrix(2.2790882,-2.2790882,4.4009975,4.4009975,-220.52441,-89.346098)"
       gradientUnits="userSpaceOnUse" />
    <filter
       inkscape:collect="always"
       style="color-interpolation-filters:sRGB"
       id="filter16"
       x="-0.31187846"
       y="-0.25989892"
       width="1.6237569"
       height="1.5197978">
      <feGaussianBlur
         inkscape:collect="always"
         stdDeviation="1.9075753"
         id="feGaussianBlur16" />
    </filter>
    <inkscape:path-effect
       effect="fillet_chamfer"
       id="path-effect1"
       is_visible="true"
       lpeversion="1"
       nodesatellites_param="F,0,0,1,0,0,0,1 @ F,0,0,1,0,0,0,1 @ F,0,0,1,0,0,0,1 @ F,0,1,1,0,0.71413666,0,1 @ F,0,0,1,0,0,0,1 @ F,0,0,1,0,0,0,1 @ F,0,0,1,0,0,0,1 @ F,0,0,1,0,0,0,1 @ F,0,0,1,0,0.71413666,0,1 @ F,0,0,1,0,0,0,1 @ F,0,0,1,0,0,0,1 @ F,0,0,1,0,0,0,1"
       radius="0"
       unit="px"
       method="auto"
       mode="F"
       chamfer_steps="1"
       flexible="false"
       use_knot_distance="true"
       apply_no_radius="true"
       apply_with_radius="true"
       only_selected="false"
       hide_knots="false" />
    <filter
       inkscape:collect="always"
       style="color-interpolation-filters:sRGB"
       id="filter17"
       x="-0.16131657"
       y="-0.16131657"
       width="1.3226331"
       height="1.3226331">
      <feGaussianBlur
         inkscape:collect="always"
         stdDeviation="1.9075753"
         id="feGaussianBlur17" />
    </filter>
    <inkscape:path-effect
       effect="fillet_chamfer"
       id="path-effect16-7"
       is_visible="true"
       lpeversion="1"
       nodesatellites_param="F,0,1,1,0,7.2294037,0,1 @ F,0,1,1,0,7.2294037,0,1 @ F,0,0,1,0,7.2294037,0,1 @ F,0,1,1,0,7.2294037,0,1"
       radius="0"
       unit="px"
       method="auto"
       mode="F"
       chamfer_steps="1"
       flexible="false"
       use_knot_distance="true"
       apply_no_radius="true"
       apply_with_radius="true"
       only_selected="false"
       hide_knots="false" />
    <radialGradient
       inkscape:collect="always"
       xlink:href="#linearGradient2"
       id="radialGradient20"
       cx="8.4310722"
       cy="43.794502"
       fx="8.4310722"
       fy="43.794502"
       r="14.5"
       gradientUnits="userSpaceOnUse"
       gradientTransform="matrix(2.6993379,-1.5584634,1.5584634,2.6993379,-82.579369,-61.282139)" />
    <linearGradient
       id="linearGradient2"
       inkscape:collect="always">
      <stop
         style="stop-color:#5742ff;stop-opacity:1;"
         offset="0"
         id="stop1" />
      <stop
         style="stop-color:#5b5bff;stop-opacity:1;"
         offset="1"
         id="stop2" />
    </linearGradient>
    <inkscape:path-effect
       effect="fillet_chamfer"
       id="path-effect16"
       is_visible="true"
       lpeversion="1"
       nodesatellites_param="F,0,1,1,0,7.2294037,0,1 @ F,0,1,1,0,7.2294037,0,1 @ F,0,0,1,0,7.2294037,0,1 @ F,0,1,1,0,7.2294037,0,1"
       radius="0"
       unit="px"
       method="auto"
       mode="F"
       chamfer_steps="1"
       flexible="false"
       use_knot_distance="true"
       apply_no_radius="true"
       apply_with_radius="true"
       only_selected="false"
       hide_knots="false" />
    <filter
       inkscape:collect="always"
       style="color-interpolation-filters:sRGB"
       id="filter18"
       x="-0.16131658"
       y="-0.08353894"
       width="1.3226332"
       height="1.1670779">
      <feGaussianBlur
         inkscape:collect="always"
         stdDeviation="1.9075753"
         id="feGaussianBlur18" />
    </filter>
    <radialGradient
       inkscape:collect="always"
       xlink:href="#linearGradient4"
       id="radialGradient9"
       gradientUnits="userSpaceOnUse"
       gradientTransform="matrix(2.1636819,-2.1636819,4.1781439,4.1781439,-207.73731,-83.201488)"
       cx="21.425623"
       cy="43.880768"
       fx="21.425623"
       fy="43.880768"
       r="14.500001" />
    <linearGradient
       id="linearGradient4"
       inkscape:collect="always">
      <stop
         style="stop-color:#6b62ff;stop-opacity:1;"
         offset="0"
         id="stop3" />
      <stop
         style="stop-color:#969cff;stop-opacity:1;"
         offset="1"
         id="stop4" />
    </linearGradient>
    <filter
       inkscape:collect="always"
       style="color-interpolation-filters:sRGB"
       id="filter19"
       x="-0.24621998"
       y="-0.11410197"
       width="1.49244"
       height="1.2282039">
      <feGaussianBlur
         inkscape:collect="always"
         stdDeviation="1.9075753"
         id="feGaussianBlur19" />
    </filter>
    <radialGradient
       inkscape:collect="always"
       xlink:href="#linearGradient6"
       id="radialGradient3"
       gradientUnits="userSpaceOnUse"
       gradientTransform="matrix(2.4080436,-4.1708539,9.0002635,5.1963046,-401.4439,26.478459)"
       cx="42.587048"
       cy="37.881489"
       fx="42.587048"
       fy="37.881489"
       r="9.5" />
    <linearGradient
       id="linearGradient6"
       inkscape:collect="always">
      <stop
         style="stop-color:#6164ff;stop-opacity:1;"
         offset="0"
         id="stop5" />
      <stop
         style="stop-color:#8589ff;stop-opacity:1;"
         offset="1"
         id="stop6" />
    </linearGradient>
  </defs>
  <sodipodi:namedview
     id="namedview10"
     pagecolor="#ffffff"
     bordercolor="#000000"
     borderopacity="0.25"
     inkscape:showpageshadow="2"
     inkscape:pageopacity="0.0"
     inkscape:pagecheckerboard="0"
     inkscape:deskcolor="#d1d1d1"
     inkscape:zoom="13.890625"
     inkscape:cx="29.552306"
     inkscape:cy="31.568054"
     inkscape:window-width="1920"
     inkscape:window-height="1012"
     inkscape:window-x="0"
     inkscape:window-y="0"
     inkscape:window-maximized="1"
     inkscape:current-layer="svg10" />
  <path
     id="path3"
     style="fill:url(#radialGradient3);stroke-width:0.949363"
     d="m 50.512576,11.114015 a 6.170859,6.170859 0 0 0 -6.170859,6.170859 6.170859,6.170859 0 0 0 6.170859,6.170859 6.170859,6.170859 0 0 0 6.170859,-6.170859 6.170859,6.170859 0 0 0 -6.170859,-6.170859 z M 43.42573,26.303822 c -1.070676,0 -1.932102,0.861424 -1.932102,1.932101 v 0.645271 11.48692 1.112535 h 0.03338 a 9.0189478,9.0189478 0 0 0 8.985572,8.557246 9.0189478,9.0189478 0 0 0 8.985572,-8.557246 h 0.03338 v -1.112535 -11.48692 -0.645271 c 0,-1.070677 -0.861424,-1.932101 -1.932102,-1.932101 z" />
  <path
     id="path3-7"
     style="mix-blend-mode:normal;fill:none;stroke:#000000;stroke-width:0.2;stroke-dasharray:none;stroke-opacity:1;filter:url(#filter19)"
     d="m 51.499998,10 a 6.5,6.5 0 0 0 -6.5,6.5 6.5,6.5 0 0 0 6.5,6.5 6.5,6.5 0 0 0 6.5,-6.5 6.5,6.5 0 0 0 -6.5,-6.5 z m -7.464844,16 c -1.127784,0 -2.035156,0.907371 -2.035156,2.035156 v 0.679688 12.099609 1.171875 h 0.03516 A 9.5,9.5 0 0 0 51.499998,51 9.5,9.5 0 0 0 60.964842,41.986328 h 0.03516 V 40.814453 28.714844 28.035156 C 61.000002,26.907371 60.092631,26 58.964846,26 Z"
     transform="matrix(0.94936293,0,0,0.94936293,1.6203851,1.6203858)" />
  <path
     id="circle5"
     style="fill:url(#radialGradient9);stroke-width:0.949363"
     d="m 33.424043,5.4178375 a 9.0189478,9.0189478 0 0 0 -9.018947,9.0189475 9.0189478,9.0189478 0 0 0 9.018947,9.018948 9.0189478,9.0189478 0 0 0 9.018948,-9.018948 9.0189478,9.0189478 0 0 0 -9.018948,-9.0189475 z M 22.786358,26.303822 c -1.733232,0 -3.128077,1.394843 -3.128077,3.128076 v 3.129931 10.635832 1.878329 h 0.01854 A 13.765762,13.765762 0 0 0 33.424041,58.582161 13.765762,13.765762 0 0 0 47.171262,45.07599 h 0.01854 V 43.197661 32.561829 29.431898 c 0,-1.733233 -1.394844,-3.128076 -3.128077,-3.128076 z" />
  <path
     id="circle5-3"
     style="mix-blend-mode:normal;fill:none;stroke:#000000;stroke-width:0.2;stroke-dasharray:none;stroke-opacity:1;filter:url(#filter18)"
     d="m 33.499998,4.0000002 a 9.5,9.5 0 0 0 -9.5,9.4999998 9.5,9.5 0 0 0 9.5,9.5 9.5,9.5 0 0 0 9.5,-9.5 9.5,9.5 0 0 0 -9.5,-9.4999998 z M 22.29492,26 c -1.825679,0 -3.294922,1.469242 -3.294922,3.294922 v 3.296875 11.203125 1.978516 h 0.01953 A 14.5,14.5 0 0 0 33.499998,60 14.5,14.5 0 0 0 47.980467,45.773438 h 0.01953 V 43.794922 32.591797 29.294922 C 47.999997,27.469242 46.530755,26 44.705075,26 Z"
     transform="matrix(0.94936293,0,0,0.94936293,1.6203851,1.6203858)" />
  <path
     id="rect7"
     style="fill:url(#radialGradient20)"
     d="M 10.229404,18 H 24.770596 A 7.2294037,7.2294037 45 0 1 32,25.229404 V 39.770596 A 7.2294037,7.2294037 135 0 1 24.770596,47 H 10.229404 A 7.2294037,7.2294037 45 0 1 3,39.770596 V 25.229404 A 7.2294037,7.2294037 135 0 1 10.229404,18 Z"
     inkscape:path-effect="#path-effect16"
     inkscape:original-d="M 3,18 H 32 V 47 H 3 Z"
     transform="matrix(0.94936293,0,0,0.94936293,1.6203851,1.6203858)" />
  <path
     id="rect7-6"
     style="mix-blend-mode:normal;fill:none;stroke:#000000;stroke-width:0.2;stroke-dasharray:none;stroke-opacity:1;filter:url(#filter17)"
     d="M 10.229404,18 H 24.770596 A 7.2294037,7.2294037 45 0 1 32,25.229404 V 39.770596 A 7.2294037,7.2294037 135 0 1 24.770596,47 H 10.229404 A 7.2294037,7.2294037 45 0 1 3,39.770596 V 25.229404 A 7.2294037,7.2294037 135 0 1 10.229404,18 Z"
     inkscape:path-effect="#path-effect16-7"
     inkscape:original-d="M 3,18 H 32 V 47 H 3 Z"
     transform="matrix(0.94936293,0,0,0.94936293,1.6203851,1.6203858)" />
  <path
     id="rect8"
     style="fill:#ffffff;stroke-width:0.949363"
     d="m 13.487423,24.405097 c -1.314867,0 -2.373407,1.05854 -2.373407,2.373407 0,1.314867 1.05854,2.373407 2.373407,2.373407 h 1.666687 c 0.394407,0 0.713784,0.319738 0.713369,0.714154 -0.0019,1.801609 -0.0066,6.57621 -0.0066,9.228198 0,1.329193 1.0577,2.399366 2.371554,2.399366 h 0.07046 c 1.313854,0 2.371553,-1.070173 2.371553,-2.399366 -0.0059,-2.652002 -0.0071,-7.426623 -0.0073,-9.228217 -5.2e-5,-0.394406 0.319671,-0.714135 0.714078,-0.714135 h 1.599935 c 1.314867,0 2.373408,-1.05854 2.373408,-2.373407 0,-1.314867 -1.058541,-2.373407 -2.373408,-2.373407 z"
     sodipodi:nodetypes="ssscsssscssss"
     inkscape:path-effect="#path-effect1"
     inkscape:original-d="m 13.487423,24.405097 c -1.314867,0 -2.373407,1.05854 -2.373407,2.373407 0,1.314867 1.05854,2.373407 2.373407,2.373407 h 2.380824 c 0,0 -0.0074,6.628417 -0.0074,9.942352 0,1.329193 1.0577,2.399366 2.371554,2.399366 h 0.07046 c 1.313854,0 2.371553,-1.070173 2.371553,-2.399366 -0.0074,-3.313941 -0.0074,-9.942352 -0.0074,-9.942352 h 2.314072 c 1.314867,0 2.373408,-1.05854 2.373408,-2.373407 0,-1.314867 -1.058541,-2.373407 -2.373408,-2.373407 z" />
  <path
     id="rect8-1"
     style="mix-blend-mode:normal;fill:none;stroke:#000000;stroke-width:0.2;stroke-dasharray:none;stroke-opacity:1;filter:url(#filter16)"
     d="m 12.499998,24 c -1.384999,0 -2.4999999,1.115001 -2.4999999,2.5 0,1.384999 1.1150009,2.5 2.4999999,2.5 h 2.507812 c -0.0028,0.04899 -0.0078,0.09676 -0.0078,0.146484 V 39.472656 C 15.00001,40.872746 16.114125,42 17.498057,42 h 0.07422 c 1.383932,0 2.498046,-1.127254 2.498046,-2.527344 V 29.146484 c 0,-0.04972 -0.005,-0.09749 -0.0078,-0.146484 h 2.437487 c 1.384999,0 2.5,-1.115001 2.5,-2.5 0,-1.384999 -1.115001,-2.5 -2.5,-2.5 z"
     transform="matrix(0.94936293,0,0,0.94936293,1.6203851,1.6203858)" />
</svg>
