<?xml version="1.0" encoding="UTF-8" standalone="no"?>
<svg
   width="64"
   height="64"
   version="1"
   id="svg6"
   sodipodi:docname="tor-browser-alpha.svg"
   inkscape:version="1.4 (e7c3feb100, 2024-10-09)"
   xmlns:inkscape="http://www.inkscape.org/namespaces/inkscape"
   xmlns:sodipodi="http://sodipodi.sourceforge.net/DTD/sodipodi-0.dtd"
   xmlns:xlink="http://www.w3.org/1999/xlink"
   xmlns="http://www.w3.org/2000/svg"
   xmlns:svg="http://www.w3.org/2000/svg">
  <defs
     id="defs6">
    <filter
       inkscape:collect="always"
       style="color-interpolation-filters:sRGB"
       id="filter11"
       x="-0.14275814"
       y="-0.14275814"
       width="1.2855163"
       height="1.2855163">
      <feGaussianBlur
         inkscape:collect="always"
         stdDeviation="2.9121589"
         id="feGaussianBlur11" />
    </filter>
    <radialGradient
       inkscape:collect="always"
       xlink:href="#linearGradient10"
       id="radialGradient11"
       cx="-7.0086555"
       cy="67.684952"
       fx="-7.0086555"
       fy="67.684952"
       r="28"
       gradientUnits="userSpaceOnUse"
       gradientTransform="matrix(4.6854676,-2.705156,2.705156,4.6854676,-148.04754,-280.67744)" />
    <linearGradient
       id="linearGradient10"
       inkscape:collect="always">
      <stop
         style="stop-color:#1ea976;stop-opacity:1;"
         offset="0"
         id="stop10" />
      <stop
         style="stop-color:#00597e;stop-opacity:1;"
         offset="1"
         id="stop11" />
    </linearGradient>
  </defs>
  <sodipodi:namedview
     id="namedview6"
     pagecolor="#505050"
     bordercolor="#eeeeee"
     borderopacity="1"
     inkscape:showpageshadow="0"
     inkscape:pageopacity="0"
     inkscape:pagecheckerboard="0"
     inkscape:deskcolor="#505050"
     inkscape:zoom="18.109375"
     inkscape:cx="31.97239"
     inkscape:cy="32"
     inkscape:current-layer="svg6" />
  <path
     id="circle2-3"
     style="fill:#ffffff;fill-opacity:1;stroke-width:0.855062"
     d="m 31.918525,7.9767969 c -13.222651,0 -23.9417281,10.7190771 -23.9417281,23.9417281 0,13.222651 10.7190771,23.941729 23.9417281,23.941729 13.222651,0 23.941729,-10.719078 23.941729,-23.941729 0,-13.222651 -10.719078,-23.9417281 -23.941729,-23.9417281 z"
     sodipodi:nodetypes="sssss" />
  <path
     id="circle2-36"
     style="fill:url(#radialGradient11);stroke-width:0.886762"
     d="M 31.918525,7.089182 A 24.829343,24.829343 0 0 0 7.089182,31.918525 24.829343,24.829343 0 0 0 31.918525,56.747868 24.829343,24.829343 0 0 0 56.747868,31.918525 24.829343,24.829343 0 0 0 31.918525,7.089182 Z m 0,3.547049 c 11.731471,0 21.282294,9.550823 21.282294,21.282294 0,11.731471 -9.550823,21.282294 -21.282294,21.282294 v -3.756616 c 9.701741,0 17.525678,-7.823937 17.525678,-17.525678 0,-9.701741 -7.823937,-17.525678 -17.525678,-17.525678 z m 0,7.094098 c 7.812919,0 14.188196,6.375277 14.188196,14.188196 0,7.812919 -6.375277,14.188196 -14.188196,14.188196 v -3.869193 c 5.721682,0 10.319003,-4.597321 10.319003,-10.319003 0,-5.721682 -4.597321,-10.319003 -10.319003,-10.319003 z m 0,7.094098 a 7.0940981,7.0940981 0 0 1 7.094098,7.094098 7.0940981,7.0940981 0 0 1 -7.094098,7.094098 z" />
  <path
     id="circle2-35"
     style="fill:none;stroke:#000000;stroke-width:0.2;stroke-dasharray:none;stroke-opacity:1;filter:url(#filter11)"
     d="M 31.918525,7.089182 A 24.829343,24.829343 0 0 0 7.089182,31.918525 24.829343,24.829343 0 0 0 31.918525,56.747868 24.829343,24.829343 0 0 0 56.747868,31.918525 24.829343,24.829343 0 0 0 31.918525,7.089182 Z m 0,3.547049 c 11.731471,0 21.282294,9.550823 21.282294,21.282294 0,11.731471 -9.550823,21.282294 -21.282294,21.282294 v -3.756616 c 9.701741,0 17.525678,-7.823937 17.525678,-17.525678 0,-9.701741 -7.823937,-17.525678 -17.525678,-17.525678 z m 0,7.094098 c 7.812919,0 14.188196,6.375277 14.188196,14.188196 0,7.812919 -6.375277,14.188196 -14.188196,14.188196 v -3.869193 c 5.721682,0 10.319003,-4.597321 10.319003,-10.319003 0,-5.721682 -4.597321,-10.319003 -10.319003,-10.319003 z m 0,7.094098 a 7.0940981,7.0940981 0 0 1 7.094098,7.094098 7.0940981,7.0940981 0 0 1 -7.094098,7.094098 z" />
</svg>
