<?xml version="1.0" encoding="UTF-8" standalone="no"?>
<svg
   width="64"
   height="64"
   version="1"
   id="svg10"
   sodipodi:docname="preferences-desktop-touchpad.svg"
   inkscape:version="1.3.2 (091e20ef0f, 2023-11-25, custom)"
   xmlns:inkscape="http://www.inkscape.org/namespaces/inkscape"
   xmlns:sodipodi="http://sodipodi.sourceforge.net/DTD/sodipodi-0.dtd"
   xmlns:xlink="http://www.w3.org/1999/xlink"
   xmlns="http://www.w3.org/2000/svg"
   xmlns:svg="http://www.w3.org/2000/svg">
  <defs
     id="defs10">
    <filter
       inkscape:collect="always"
       style="color-interpolation-filters:sRGB"
       id="filter2"
       x="-0.0937941"
       y="-0.093718284"
       width="1.1875882"
       height="1.1874366">
      <feGaussianBlur
         inkscape:collect="always"
         stdDeviation="1.3487599"
         id="feGaussianBlur2" />
    </filter>
    <filter
       inkscape:collect="always"
       style="color-interpolation-filters:sRGB"
       id="filter1"
       x="-0.099246493"
       y="-0.099246493"
       width="1.198493"
       height="1.198493">
      <feGaussianBlur
         inkscape:collect="always"
         stdDeviation="2.1257053"
         id="feGaussianBlur1" />
    </filter>
    <radialGradient
       inkscape:collect="always"
       xlink:href="#linearGradient4"
       id="radialGradient5"
       cx="11.397592"
       cy="51.913704"
       fx="11.397592"
       fy="51.913704"
       r="29"
       gradientUnits="userSpaceOnUse"
       gradientTransform="matrix(0,2.6342154,-2.2758542,0,122.88172,-25.259537)" />
    <linearGradient
       id="linearGradient4"
       inkscape:collect="always">
      <stop
         style="stop-color:#00cfff;stop-opacity:1;"
         offset="0"
         id="stop4" />
      <stop
         style="stop-color:#008eff;stop-opacity:1;"
         offset="1"
         id="stop5" />
    </linearGradient>
  </defs>
  <sodipodi:namedview
     id="namedview10"
     pagecolor="#ffffff"
     bordercolor="#000000"
     borderopacity="0.25"
     inkscape:showpageshadow="2"
     inkscape:pageopacity="0.0"
     inkscape:pagecheckerboard="0"
     inkscape:deskcolor="#d1d1d1"
     inkscape:zoom="12.90625"
     inkscape:cx="31.961259"
     inkscape:cy="32"
     inkscape:window-width="1920"
     inkscape:window-height="1020"
     inkscape:window-x="0"
     inkscape:window-y="0"
     inkscape:window-maximized="1"
     inkscape:current-layer="svg10" />
  <rect
     style="fill:url(#radialGradient5);fill-opacity:1;stroke-width:0.921025"
     width="53.419445"
     height="53.419445"
     x="5.3339157"
     y="5.2496734"
     rx="13.676166"
     ry="13.676166"
     id="rect2" />
  <path
     id="path3"
     style="fill:#ffffff;fill-opacity:1;stroke-width:0.921025"
     d="m 20.314961,14.492302 c -3.278923,0 -5.920103,2.639381 -5.920103,5.918305 v 13.80638 c 0,3.278923 2.64118,5.918304 5.920103,5.918304 h 23.599465 c 3.278924,0 5.918305,-2.639381 5.918305,-5.918304 v -13.80638 c 0,-3.278924 -2.639381,-5.918305 -5.918305,-5.918305 z M 18.370376,41.93057 c -2.234343,5e-5 -4.045624,1.811331 -4.045674,4.045674 v 0.07735 c 5e-5,2.234343 1.811331,4.045624 4.045674,4.045674 h 8.785713 c 2.234344,-5e-5 4.045625,-1.81133 4.045675,-4.045674 v -0.07735 c -5e-5,-2.234344 -1.811331,-4.045624 -4.045675,-4.045674 z m 18.702922,0 c -2.234344,5e-5 -4.045625,1.81133 -4.045675,4.045674 v 0.07735 c 5e-5,2.234344 1.811331,4.045624 4.045675,4.045674 h 8.783915 c 2.234343,-5e-5 4.045624,-1.811331 4.045674,-4.045674 v -0.07735 c -5e-5,-2.234343 -1.811331,-4.045624 -4.045674,-4.045674 z"
     sodipodi:nodetypes="ssssssssscssccsscccssccsscc" />
  <rect
     style="fill:none;fill-opacity:1;stroke:#000000;stroke-width:0.4;stroke-dasharray:none;stroke-opacity:1;filter:url(#filter1)"
     width="53.419445"
     height="53.419445"
     x="5.3016925"
     y="5.3016925"
     rx="13.676166"
     ry="13.676166"
     id="rect2-6" />
  <path
     id="path3-2"
     style="fill:none;fill-opacity:1;stroke:#0016ff;stroke-width:0.2;stroke-dasharray:none;stroke-opacity:1;filter:url(#filter2)"
     d="m 20.282737,14.544321 c -3.278922,0 -5.920102,2.639381 -5.920102,5.918305 v 13.80638 c 0,3.278923 2.641179,5.918304 5.920102,5.918304 h 23.599465 c 3.278924,0 5.918305,-2.639381 5.918305,-5.918304 v -13.80638 c 0,-3.278924 -2.639381,-5.918305 -5.918305,-5.918305 z m -1.944585,27.438268 c -2.234343,5.1e-5 -4.045623,1.811331 -4.045673,4.045674 v 0.07735 c 5e-5,2.234343 1.81133,4.045623 4.045673,4.045674 h 8.785713 c 2.234344,-5e-5 4.045625,-1.81133 4.045675,-4.045674 v -0.07735 c -5e-5,-2.234344 -1.811331,-4.045624 -4.045675,-4.045674 z m 18.702922,0 c -2.234344,5e-5 -4.045625,1.81133 -4.045675,4.045674 v 0.07735 c 5e-5,2.234344 1.811331,4.045624 4.045675,4.045674 h 8.783915 c 2.234343,-5e-5 4.045624,-1.811331 4.045674,-4.045674 v -0.07735 c -5e-5,-2.234343 -1.811331,-4.045624 -4.045674,-4.045674 z"
     sodipodi:nodetypes="ssssssssscssccsscccssccsscc" />
</svg>
