<?xml version="1.0" encoding="UTF-8" standalone="no"?>
<svg
   width="64"
   height="64"
   version="1.1"
   id="svg4"
   sodipodi:docname="device_usb.svg"
   inkscape:version="1.4 (e7c3feb100, 2024-10-09)"
   xmlns:inkscape="http://www.inkscape.org/namespaces/inkscape"
   xmlns:sodipodi="http://sodipodi.sourceforge.net/DTD/sodipodi-0.dtd"
   xmlns:xlink="http://www.w3.org/1999/xlink"
   xmlns="http://www.w3.org/2000/svg"
   xmlns:svg="http://www.w3.org/2000/svg">
  <defs
     id="defs4">
    <inkscape:path-effect
       effect="fillet_chamfer"
       id="path-effect10"
       is_visible="true"
       lpeversion="1"
       nodesatellites_param="F,0,1,1,0,1.1149572,0,1 @ F,0,1,1,0,1.1149572,0,1 @ F,0,1,1,0,1.1149572,0,1 @ F,0,1,1,0,1.1149572,0,1 | F,0,1,1,0,1.1149572,0,1 @ F,0,1,1,0,1.1149572,0,1 @ F,0,1,1,0,1.1149572,0,1 @ F,0,0,1,0,1.1149572,0,1"
       radius="0"
       unit="px"
       method="auto"
       mode="F"
       chamfer_steps="1"
       flexible="false"
       use_knot_distance="true"
       apply_no_radius="true"
       apply_with_radius="true"
       only_selected="false"
       hide_knots="false" />
    <radialGradient
       inkscape:collect="always"
       xlink:href="#linearGradient6"
       id="radialGradient9"
       cx="3.6037257"
       cy="69.383522"
       fx="3.6037257"
       fy="69.383522"
       r="28"
       gradientTransform="matrix(3.6631184,0,0,2.2240362,-9.5971482,-96.078611)"
       gradientUnits="userSpaceOnUse" />
    <linearGradient
       id="linearGradient6"
       inkscape:collect="always">
      <stop
         style="stop-color:#4c4c4c;stop-opacity:1;"
         offset="0"
         id="stop6" />
      <stop
         style="stop-color:#727272;stop-opacity:1;"
         offset="1"
         id="stop7" />
    </linearGradient>
    <inkscape:path-effect
       effect="fillet_chamfer"
       id="path-effect9"
       is_visible="true"
       lpeversion="1"
       nodesatellites_param="F,0,1,1,0,5.2514818,0,1 @ F,0,0,1,0,5.2514818,0,1 @ F,0,0,1,0,0,0,1 @ F,0,0,1,0,0,0,1"
       radius="0"
       unit="px"
       method="auto"
       mode="F"
       chamfer_steps="1"
       flexible="false"
       use_knot_distance="true"
       apply_no_radius="true"
       apply_with_radius="true"
       only_selected="false"
       hide_knots="false" />
  </defs>
  <sodipodi:namedview
     id="namedview4"
     pagecolor="#ffffff"
     bordercolor="#000000"
     borderopacity="0.25"
     inkscape:showpageshadow="2"
     inkscape:pageopacity="0.0"
     inkscape:pagecheckerboard="0"
     inkscape:deskcolor="#d1d1d1"
     inkscape:zoom="8.9714173"
     inkscape:cx="27.086021"
     inkscape:cy="40.183172"
     inkscape:window-width="1920"
     inkscape:window-height="1020"
     inkscape:window-x="0"
     inkscape:window-y="0"
     inkscape:window-maximized="1"
     inkscape:current-layer="svg4" />
  <g
     id="g1">
    <path
       id="rect2"
       style="fill:#949494;fill-opacity:1"
       d="M 17.251482,6 H 46.748518 A 5.2514818,5.2514818 45 0 1 52,11.251482 V 26 H 12 V 11.251482 A 5.2514818,5.2514818 135 0 1 17.251482,6 Z"
       inkscape:path-effect="#path-effect9"
       inkscape:original-d="M 12,6 H 52 V 26 H 12 Z" />
    <rect
       style="fill:url(#radialGradient9)"
       width="56"
       height="34"
       x="4"
       y="24"
       rx="7.5939879"
       ry="7.5939879"
       id="rect3" />
    <path
       id="rect7"
       style="opacity:0.450368;fill:#000000;fill-opacity:1"
       d="m 16,10.345426 v 3.770086 a 1.1149572,1.1149572 45 0 0 1.114957,1.114957 l 7.770086,0 A 1.1149572,1.1149572 135 0 0 26,14.115512 l 0,-3.770086 A 1.1149572,1.1149572 45 0 0 24.885043,9.2304688 H 17.114957 A 1.1149572,1.1149572 135 0 0 16,10.345426 Z m 22,0 v 3.770086 a 1.1149572,1.1149572 45 0 0 1.114957,1.114957 l 7.770086,0 A 1.1149572,1.1149572 135 0 0 48,14.115512 V 10.345426 A 1.1149572,1.1149572 45 0 0 46.885043,9.2304688 H 39.114957 A 1.1149572,1.1149572 135 0 0 38,10.345426 Z"
       inkscape:path-effect="#path-effect10"
       inkscape:original-d="M 16,9.2304688 V 15.230469 H 26 V 9.2304688 Z m 22,0 V 15.230469 H 48 V 9.2304688 Z"
       transform="translate(0,0.72806253)" />
    <path
       style="opacity:0.450368;fill:#000000;fill-opacity:1;stroke-width:0;stroke-dasharray:none"
       d="m 32,27.408188 -4.1188,6.589621 h 2.3536 v 8.237601 h -4.824421 v -2.175471 a 3.5304003,3.5304003 0 0 0 1.88242,-3.120128 3.5304003,3.5304003 0 0 0 -3.5304,-3.530401 3.5304003,3.5304003 0 0 0 -3.5304,3.530401 3.5304003,3.5304003 0 0 0 1.882421,3.120128 v 2.175471 c 0,3.295039 3.295959,3.530401 3.295959,3.530401 H 30.2348 v 2.243275 A 3.5304003,3.5304003 0 0 0 28.4696,51.061412 3.5304003,3.5304003 0 0 0 32,54.591811 3.5304003,3.5304003 0 0 0 35.5304,51.061412 3.5304003,3.5304003 0 0 0 33.7652,48.007936 V 45.76581 h 4.824421 c 0,0 3.295959,-0.235361 3.295959,-3.5304 v -1.7652 h 0.411421 c 0.814934,0 1.471,-0.656066 1.471,-1.471001 v -4.1188 c 0,-0.814933 -0.656066,-1.471 -1.471,-1.471 H 38.1782 c -0.814934,0 -1.470999,0.656067 -1.470999,1.471 v 4.1188 c 0,0.814935 0.656065,1.471001 1.470999,1.471001 h 0.411421 v 1.7652 H 33.7652 v -8.2376 h 2.3536 z"
       id="path3" />
  </g>
</svg>
