<?xml version="1.0" encoding="UTF-8" standalone="no"?>
<svg
   width="64"
   height="64"
   version="1"
   id="svg9"
   sodipodi:docname="visual-studio-code-insiders.svg"
   inkscape:version="1.4 (e7c3feb100, 2024-10-09)"
   xmlns:inkscape="http://www.inkscape.org/namespaces/inkscape"
   xmlns:sodipodi="http://sodipodi.sourceforge.net/DTD/sodipodi-0.dtd"
   xmlns:xlink="http://www.w3.org/1999/xlink"
   xmlns="http://www.w3.org/2000/svg"
   xmlns:svg="http://www.w3.org/2000/svg">
  <defs
     id="defs9">
    <radialGradient
       inkscape:collect="always"
       xlink:href="#linearGradient13"
       id="radialGradient14"
       cx="46.200653"
       cy="40.060677"
       fx="46.200653"
       fy="40.060677"
       r="8.7446136"
       gradientTransform="matrix(9.0485818,-2.4245589,1.6467405,6.1457224,-422.96301,-77.677081)"
       gradientUnits="userSpaceOnUse" />
    <linearGradient
       id="linearGradient13"
       inkscape:collect="always">
      <stop
         style="stop-color:#00995c;stop-opacity:1;"
         offset="0"
         id="stop13" />
      <stop
         style="stop-color:#49d8a3;stop-opacity:1;"
         offset="1"
         id="stop14" />
    </linearGradient>
    <radialGradient
       inkscape:collect="always"
       xlink:href="#linearGradient9"
       id="radialGradient10"
       cx="16.896795"
       cy="16.458452"
       fx="16.896795"
       fy="16.458452"
       r="27.999731"
       gradientTransform="matrix(0,-2.1593019,2.348309,-8.1204946e-8,31.592358,92.356718)"
       gradientUnits="userSpaceOnUse" />
    <linearGradient
       id="linearGradient9"
       inkscape:collect="always">
      <stop
         style="stop-color:#00bd92;stop-opacity:1;"
         offset="0"
         id="stop9" />
      <stop
         style="stop-color:#00e58e;stop-opacity:1;"
         offset="1"
         id="stop10" />
    </linearGradient>
    <radialGradient
       inkscape:collect="always"
       xlink:href="#linearGradient14"
       id="radialGradient16"
       cx="5.178793"
       cy="47.731243"
       fx="5.178793"
       fy="47.731243"
       r="27.999731"
       gradientTransform="matrix(3.0274767,1.7479144,-1.5287216,2.6478235,75.387211,-97.989639)"
       gradientUnits="userSpaceOnUse" />
    <linearGradient
       id="linearGradient14"
       inkscape:collect="always">
      <stop
         style="stop-color:#00cea3;stop-opacity:1;"
         offset="0"
         id="stop15" />
      <stop
         style="stop-color:#00a656;stop-opacity:1;"
         offset="1"
         id="stop16" />
    </linearGradient>
  </defs>
  <sodipodi:namedview
     id="namedview9"
     pagecolor="#505050"
     bordercolor="#eeeeee"
     borderopacity="1"
     inkscape:showpageshadow="0"
     inkscape:pageopacity="0"
     inkscape:pagecheckerboard="0"
     inkscape:deskcolor="#505050"
     inkscape:zoom="18.28125"
     inkscape:cx="32"
     inkscape:cy="32"
     inkscape:current-layer="svg9" />
  <g
     id="g9"
     transform="translate(-11.104324,3.8944356)">
    <path
       style="fill:url(#radialGradient16);stroke-width:0.931798"
       d="M 67.334817,7.5587015 56.589974,2.3552218 C 55.34635,1.7529166 53.859914,2.0069829 52.883759,2.9887177 L 17.708885,34.667549 c -0.946115,0.867694 -0.945027,2.36582 0.0023,3.232079 l 2.873196,2.627047 c 0.774529,0.708297 1.940966,0.760334 2.774874,0.12419 L 65.718008,8.9086085 c 1.421047,-1.084295 3.462174,-0.06484 3.462174,1.7292055 v -0.125493 c 0,-1.2593355 -0.717245,-2.4073295 -1.845365,-2.9536325 z"
       id="path3" />
    <path
       style="fill:url(#radialGradient10);stroke-width:0.931798"
       d="m 67.334817,48.684193 -10.744843,5.203493 c -1.243624,0.602162 -2.73006,0.348096 -3.706215,-0.633508 L 17.708885,19.653824 c -0.946115,-0.86763 -0.945027,-2.36582 0.0023,-3.232053 l 2.873197,-2.627153 c 0.774527,-0.708192 1.940965,-0.760333 2.774873,-0.124058 L 65.71796,47.334195 c 1.421047,1.084256 3.462174,0.06496 3.462174,-1.729233 v 0.125625 c 0,1.25923 -0.717245,2.407212 -1.845365,2.953645 z"
       id="path6" />
    <path
       style="fill:url(#radialGradient14);stroke-width:0.931798"
       d="m 56.61885,53.857324 c -1.244028,0.601744 -2.730464,0.347483 -3.706621,-0.63433 1.202676,1.209646 3.259283,0.352817 3.259283,-1.357982 V 4.3153731 c 0,-1.710799 -2.056607,-2.5675881 -3.259283,-1.3578642 0.976157,-0.9818131 2.462593,-1.2362447 3.706621,-0.6344741 l 10.743011,5.1963307 c 1.128935,0.546016 1.846793,1.694428 1.846793,2.9543095 v 35.233283 c 0,1.259843 -0.717858,2.408228 -1.846793,2.954245 z"
       id="path8" />
  </g>
</svg>
