<?xml version="1.0" encoding="UTF-8" standalone="no"?>
<svg
   width="64"
   height="64"
   version="1"
   id="svg6"
   sodipodi:docname="vlc.svg"
   inkscape:version="1.3.2 (091e20ef0f, 2023-11-25, custom)"
   xmlns:inkscape="http://www.inkscape.org/namespaces/inkscape"
   xmlns:sodipodi="http://sodipodi.sourceforge.net/DTD/sodipodi-0.dtd"
   xmlns:xlink="http://www.w3.org/1999/xlink"
   xmlns="http://www.w3.org/2000/svg"
   xmlns:svg="http://www.w3.org/2000/svg">
  <defs
     id="defs6">
    <linearGradient
       id="linearGradient2"
       inkscape:collect="always">
      <stop
         style="stop-color:#ff6600;stop-opacity:1;"
         offset="0"
         id="stop1" />
      <stop
         style="stop-color:#ff9700;stop-opacity:1;"
         offset="1"
         id="stop2" />
    </linearGradient>
    <linearGradient
       id="linearGradient11"
       inkscape:collect="always">
      <stop
         style="stop-color:#ffffff;stop-opacity:1;"
         offset="0"
         id="stop12" />
      <stop
         style="stop-color:#c2c2c2;stop-opacity:1;"
         offset="1"
         id="stop13" />
    </linearGradient>
    <radialGradient
       inkscape:collect="always"
       xlink:href="#linearGradient11"
       id="radialGradient13"
       cx="12.830364"
       cy="52.834171"
       fx="12.830364"
       fy="52.834171"
       r="16.799908"
       gradientTransform="matrix(4.4307869,-1.1872257,1.2790945,4.7736456,-111.36926,-183.2091)"
       gradientUnits="userSpaceOnUse" />
    <radialGradient
       inkscape:collect="always"
       xlink:href="#linearGradient2"
       id="radialGradient1"
       gradientUnits="userSpaceOnUse"
       gradientTransform="matrix(1.8564526,-0.49743497,0.49743282,1.8564446,-36.754164,-45.162922)"
       cx="11.15862"
       cy="57.348446"
       fx="11.15862"
       fy="57.348446"
       r="27.999962" />
    <filter
       inkscape:collect="always"
       style="color-interpolation-filters:sRGB"
       id="filter9"
       x="-0.10228729"
       y="-0.10233668"
       width="1.2045746"
       height="1.2046734">
      <feGaussianBlur
         inkscape:collect="always"
         stdDeviation="2.3993762"
         id="feGaussianBlur9" />
    </filter>
  </defs>
  <sodipodi:namedview
     id="namedview6"
     pagecolor="#ffffff"
     bordercolor="#000000"
     borderopacity="0.25"
     inkscape:showpageshadow="2"
     inkscape:pageopacity="0.0"
     inkscape:pagecheckerboard="0"
     inkscape:deskcolor="#d1d1d1"
     inkscape:zoom="6.90625"
     inkscape:cx="28.0181"
     inkscape:cy="39.457014"
     inkscape:window-width="1920"
     inkscape:window-height="1020"
     inkscape:window-x="0"
     inkscape:window-y="0"
     inkscape:window-maximized="1"
     inkscape:current-layer="svg6" />
  <path
     id="path1"
     style="fill:url(#radialGradient1);fill-rule:evenodd;stroke-width:0.938123"
     d="M 32.029136,5.7333957 C 30.836077,5.720262 29.619458,5.9229961 28.41773,6.405839 27.673035,6.7053722 27.107855,7.3289785 26.880455,8.098857 l -2.416764,8.168262 c 3.821323,8.218739 11.50412,2.693044 15.123561,0 L 37.170487,8.098857 C 36.929523,7.283962 36.30845,6.636392 35.504953,6.3600323 34.391896,5.976791 33.222232,5.7467357 32.029136,5.7333957 Z M 28.393912,24.856803 c -1.960787,0.03372 -4.240805,0.541467 -7.037751,1.918388 l -2.915143,9.850286 c 0.03879,0.343752 0.108325,0.664844 0.192388,0.974768 h -3.666373 c -1.059997,2.62e-4 -2.016201,0.636894 -2.424094,1.61423 L 5.9779137,54.605547 c -0.7208112,1.728089 0.5499997,3.63283 2.4240939,3.633393 H 55.678251 c 1.874076,-5.82e-4 3.144943,-1.905322 2.424094,-3.633393 L 51.535487,39.214475 c -0.407911,-0.977336 -1.362227,-1.613968 -2.422261,-1.61423 h -5.916401 c 0.782208,-0.413675 1.555546,-0.849212 2.314157,-1.310074 l -2.814368,-9.51498 c -5.417199,2.154745 -8.420343,-2.019547 -14.302702,-1.918388 z" />
  <path
     style="fill:url(#radialGradient13);fill-rule:evenodd;stroke-width:0.938123"
     d="m 24.441347,16.428231 -6.022943,20.244519 2.915683,-9.795675 c 8.044165,3.592059 14.117584,2.857336 21.341778,0 l 2.815486,9.463304 c -11.432693,6.888138 -24.242638,1.981902 -27.072197,0.332183 l -2.066441,6.942444 c -0.320352,1.078235 0.08887,2.239626 1.015864,2.88309 4.048258,2.807509 9.305645,3.93824 14.539016,3.888412 5.23337,-0.04983 10.482876,-1.287118 14.605814,-3.804246 1.011754,-0.618197 1.480865,-1.83479 1.144132,-2.967256 L 39.566653,16.428231 c -3.621949,2.61249 -11.503244,2.61249 -15.125193,0 z"
     id="path5" />
  <path
     d="m 32.076172,3.8789063 c -1.289857,-0.014199 -2.608201,0.2061862 -3.908203,0.7285156 -0.836304,0.3363802 -1.471271,1.0360874 -1.726563,1.9003906 l -2.576172,8.7070315 a 0.15001501,0.15001501 0 0 0 0.0078,0.105469 c 0.0038,0.0081 0.0079,0.01359 0.01172,0.02148 a 0.15001501,0.15001501 0 0 0 -0.04297,0.04492 l -3.275391,11.013672 a 0.15001501,0.15001501 0 0 0 -0.01367,0.01563 l -3.107422,10.5 a 0.15001501,0.15001501 0 0 0 -0.002,0.02734 0.15001501,0.15001501 0 0 0 -0.02148,0.02344 l -0.261719,0.880859 h -3.273437 c -1.189944,2.95e-4 -2.264685,0.715178 -2.722656,1.8125 l -6.9980474,16.40625 c -0.8075403,1.936015 0.6233469,4.081402 2.7226563,4.082031 H 57.283203 c 2.099289,-6.5e-4 3.530243,-2.146033 2.722656,-4.082031 l -7,-16.40625 c -0.457924,-1.097168 -1.530721,-1.812205 -2.720703,-1.8125 h -3.349609 l -0.353516,-1.185547 a 0.15001501,0.15001501 0 0 0 0.0078,-0.103515 l -3,-10.142578 a 0.15001501,0.15001501 0 0 0 -0.08203,-0.0918 l -3.253906,-10.9375 a 0.15001501,0.15001501 0 0 0 -0.01953,-0.02149 0.15001501,0.15001501 0 0 0 0.04102,-0.15039 L 37.699219,6.5078125 C 37.428617,5.5926857 36.730282,4.8649813 35.828125,4.5546875 34.628545,4.1416549 33.366136,3.8933292 32.076172,3.8789063 Z m -0.0039,0.3007812 c 1.253597,0.014017 2.484851,0.2561545 3.658203,0.6601562 0.810817,0.2788781 1.436579,0.9317574 1.679687,1.7539063 l 2.544922,8.605469 c -0.319111,0.235988 -0.684833,0.499981 -1.052734,0.763672 -0.0015,0.0011 -0.0024,0.0028 -0.0039,0.0039 -0.0043,0.0019 -0.0054,0.0018 -0.01367,0.0059 -0.0026,0.0013 -0.0052,0.0026 -0.0078,0.0039 -0.237674,0.117606 -0.485456,0.227295 -0.742187,0.330078 -0.01936,0.0077 -0.03913,0.0158 -0.05859,0.02344 -0.317671,0.125033 -0.649961,0.237416 -0.992188,0.339844 -0.0395,0.0118 -0.07935,0.02366 -0.11914,0.03516 -0.32783,0.09491 -0.664629,0.179519 -1.009766,0.253906 -0.04761,0.01025 -0.09468,0.02139 -0.142578,0.03125 -0.361801,0.07456 -0.732199,0.137271 -1.107422,0.189453 -0.01459,0.002 -0.02837,0.0058 -0.04297,0.0078 -0.0078,0.0011 -0.01566,9.01e-4 -0.02344,0.002 -0.405332,0.05484 -0.8157,0.09824 -1.230469,0.126953 -0.301062,0.02084 -0.604742,0.03199 -0.910156,0.03906 -0.05286,0.0012 -0.103155,0.0032 -0.152344,0.0039 -0.273821,0.0042 -0.54949,0.0012 -0.824219,-0.0059 -0.08399,-0.0022 -0.167191,-0.0046 -0.25,-0.0078 -0.262774,-0.01005 -0.524466,-0.02642 -0.785156,-0.04687 -0.0026,-2.06e-4 -0.0052,2.07e-4 -0.0078,0 -0.102505,-0.0082 -0.204647,-0.01755 -0.306641,-0.02734 -0.231431,-0.02203 -0.461634,-0.04788 -0.689453,-0.07813 -0.0071,-9.4e-4 -0.01441,-10e-4 -0.02148,-0.002 -0.09071,-0.01218 -0.181023,-0.02684 -0.273437,-0.04102 -0.0091,-0.0014 -0.01825,-0.0025 -0.02734,-0.0039 -0.004,-6.01e-4 -0.0077,-0.0014 -0.01172,-0.002 -0.217894,-0.03297 -0.431641,-0.06754 -0.642578,-0.107422 -0.12464,-0.02387 -0.246333,-0.05165 -0.36914,-0.07813 -0.006,-0.0013 -0.01162,-0.0026 -0.01758,-0.0039 -0.208263,-0.04475 -0.414508,-0.08946 -0.613282,-0.140625 -0.08995,-0.02335 -0.175044,-0.05135 -0.263672,-0.07617 -0.0041,-0.0011 -0.0077,-0.0028 -0.01172,-0.0039 -0.357124,-0.100324 -0.701507,-0.213557 -1.033203,-0.337891 -0.01954,-0.0073 -0.03915,-0.0141 -0.05859,-0.02148 -0.334247,-0.127338 -0.655672,-0.266202 -0.958985,-0.417969 -0.09245,-0.04625 -0.181992,-0.08684 -0.259765,-0.128906 -0.228144,-0.123403 -0.445954,-0.253431 -0.650391,-0.390625 -0.03421,-0.06716 -0.06648,-0.130241 -0.09766,-0.193359 L 26.730469,6.59375 C 26.959974,5.8167491 27.529937,5.186961 28.28125,4.8847656 29.543215,4.3777204 30.818633,4.1658869 32.072266,4.1796875 Z m 7.939453,11.4511715 3.226562,10.841797 c -7.582809,2.978654 -13.952524,3.725715 -22.378906,0 l 3.212891,-10.804687 c 0.0018,0.0012 0.0052,0.0029 0.0039,0.002 a 0.15001501,0.15001501 0 0 0 0,0.002 c 0.221263,0.149935 0.454974,0.289763 0.699219,0.421875 0.09255,0.05006 0.187975,0.09103 0.271484,0.132812 0.502456,0.251412 1.055425,0.458161 1.630859,0.642579 0.161766,0.05184 0.315591,0.111498 0.482422,0.158203 0.07684,0.02153 0.157734,0.04722 0.246094,0.07031 0.220592,0.05761 0.445009,0.106372 0.667969,0.154297 0.108103,0.02326 0.216981,0.04961 0.333984,0.07227 0.09607,0.01857 0.1939,0.03232 0.291016,0.04883 0.02847,0.0052 0.05739,0.0086 0.08594,0.01367 0.11101,0.01829 0.221262,0.0399 0.332031,0.05664 0.09998,0.01514 0.200686,0.03096 0.304688,0.04492 0.06079,0.0081 0.122587,0.01402 0.183594,0.02148 0.170953,0.0219 0.342821,0.03941 0.515625,0.05664 0.02357,0.0023 0.04671,0.0056 0.07031,0.0078 0.08675,0.0081 0.174571,0.01832 0.263672,0.02539 0.0441,0.0035 0.08867,0.0046 0.132813,0.0078 0.219467,0.01643 0.438996,0.03008 0.660156,0.03906 0.0039,1.59e-4 0.0078,-1.56e-4 0.01172,0 0.08517,0.0033 0.169663,0.0056 0.253906,0.0078 0.01817,4.64e-4 0.03651,-4.29e-4 0.05469,0 0.159704,0.0039 0.318475,0.01367 0.478516,0.01367 0.09537,0 0.189883,-0.0064 0.285156,-0.0078 0.0059,-8.2e-5 0.01171,8.9e-5 0.01758,0 0.05373,-8e-4 0.106244,-0.0027 0.15625,-0.0039 0.0235,-5.42e-4 0.04683,-0.0033 0.07031,-0.0039 0.263422,-0.0071 0.525711,-0.0156 0.787109,-0.0332 0.02149,-0.0014 0.04295,-4.66e-4 0.06445,-0.002 0.06772,-0.0047 0.133623,-0.0161 0.201172,-0.02148 0.291836,-0.02374 0.582149,-0.05098 0.869141,-0.08789 0.186988,-0.02353 0.370267,-0.05303 0.554687,-0.08203 0.177917,-0.02859 0.354364,-0.05802 0.529297,-0.0918 0.241551,-0.04564 0.477916,-0.09702 0.712891,-0.152343 0.08531,-0.02051 0.169589,-0.04069 0.253906,-0.0625 0.583523,-0.147835 1.150713,-0.316553 1.675781,-0.525391 0.27429,-0.109094 0.539002,-0.225647 0.792969,-0.351563 0.001,-5.08e-4 0.0097,-0.0039 0.02539,-0.01172 a 0.15001501,0.15001501 0 0 0 0.02148,-0.01367 c 7.4e-5,-5.5e-5 0.0028,-0.003 0.0039,-0.0039 -1.46e-4,1.07e-4 0.0049,-0.0034 0.0078,-0.0059 0.0041,-0.0036 0.0078,-0.0058 0.0098,-0.0078 l 0.002,-0.002 c 0.03752,-0.02689 0.06983,-0.05122 0.107421,-0.07813 0.286749,-0.152284 0.561,-0.313777 0.816407,-0.488282 z m 3.361328,11.117188 2.894531,9.783203 c -0.505296,0.304569 -1.018241,0.597233 -1.535156,0.882812 -0.0021,0.0011 -0.0038,0.0028 -0.0059,0.0039 0,0 -0.002,0 -0.002,0 3.5e-5,-3.75e-4 8.48e-4,-6.37e-4 -0.0039,0.002 0.0067,-0.0037 0.01,-0.005 -0.0078,0.0039 a 0.15001501,0.15001501 0 0 0 -0.002,0.002 c -0.0052,0.0026 -0.01042,0.0052 -0.01563,0.0078 -0.354308,0.179792 -0.709237,0.349495 -1.064453,0.509765 -0.387908,0.175024 -0.777337,0.339256 -1.166015,0.492188 -1.554716,0.611727 -3.111821,1.051195 -4.648438,1.349609 -0.384153,0.0746 -0.767316,0.139734 -1.148437,0.197266 -0.381122,0.05753 -0.75939,0.106974 -1.136719,0.148437 -0.377329,0.04146 -0.754177,0.07516 -1.126953,0.101563 -1.478087,0.104678 -2.916149,0.09492 -4.292969,0.002 -0.02542,-0.0017 -0.0508,-0.0041 -0.07617,-0.0059 -0.673301,-0.04704 -1.332338,-0.114261 -1.972656,-0.197266 -0.0131,-0.0017 -0.02597,-0.0041 -0.03906,-0.0059 -0.585337,-0.07657 -1.149978,-0.168871 -1.703125,-0.269532 -0.235853,-0.04309 -0.461953,-0.09194 -0.691406,-0.138672 -0.369011,-0.07633 -0.740993,-0.151169 -1.09375,-0.234375 -0.161838,-0.03826 -0.316361,-0.07837 -0.478515,-0.11914 -0.034,-0.0085 -0.06567,-0.01683 -0.09961,-0.02539 -0.332864,-0.08394 -0.664231,-0.169444 -0.974609,-0.257812 -0.179931,-0.0513 -0.347158,-0.104234 -0.525391,-0.158203 -0.01734,-0.0052 -0.03343,-0.01037 -0.05078,-0.01563 -0.30484,-0.09229 -0.611602,-0.185953 -0.890625,-0.279297 -0.08027,-0.02685 -0.15146,-0.05483 -0.236328,-0.08398 -0.348989,-0.119912 -0.690603,-0.239235 -1,-0.357422 -0.0054,-0.0021 -0.0122,-0.0038 -0.01758,-0.0059 -0.05012,-0.01922 -0.09227,-0.03863 -0.148438,-0.06055 -0.0058,-0.0023 -0.0098,-0.0036 -0.01563,-0.0059 -0.515116,-0.201443 -0.97145,-0.398493 -1.361328,-0.580078 -0.394269,-0.183631 -0.722444,-0.352438 -0.982422,-0.5 l 3.007813,-10.166016 c 8.493572,3.749912 14.983493,2.980925 22.611328,-0.01953 z m 2.957031,10.11914 0.349609,1.173829 1.908204,6.412109 c 0.339753,1.142625 -0.130953,2.366149 -1.152344,2.990234 -0.272826,0.166566 -0.550083,0.328321 -0.832031,0.484375 -0.317447,0.175704 -0.642495,0.341471 -0.970704,0.503907 -0.546134,0.270196 -1.104727,0.525882 -1.677734,0.759765 -0.580308,0.236865 -1.175794,0.452697 -1.779297,0.652344 -0.06756,0.02234 -0.135304,0.04453 -0.203125,0.06641 -0.602942,0.194468 -1.213972,0.373226 -1.835937,0.53125 -0.613347,0.155835 -1.23587,0.291536 -1.863282,0.41211 -0.08971,0.01723 -0.179576,0.03426 -0.269531,0.05078 -0.631507,0.115771 -1.268866,0.216262 -1.910156,0.296875 -0.685855,0.08622 -1.375748,0.151028 -2.068359,0.197265 -0.692664,0.04624 -1.387635,0.07347 -2.082032,0.08008 -0.694375,0.0066 -1.387376,-0.0074 -2.080078,-0.04102 0,0 -0.002,0 -0.002,0 -0.691978,-0.03362 -1.383593,-0.08631 -2.068359,-0.162109 -0.685471,-0.07587 -1.365831,-0.174796 -2.039063,-0.294922 -0.673215,-0.120124 -1.338329,-0.261363 -1.99414,-0.427735 -0.61806,-0.156793 -1.226085,-0.337527 -1.824219,-0.537109 -0.353569,-0.117951 -0.705337,-0.241642 -1.050781,-0.375 -1.55023,-0.598459 -3.013813,-1.353507 -4.351563,-2.28125 -0.935763,-0.649551 -1.348543,-1.818583 -1.02539,-2.90625 l 2.152343,-7.226563 c 0.369042,0.206112 0.886037,0.450134 1.488281,0.710938 0.117496,0.05144 0.239468,0.101685 0.365235,0.154297 0.170734,0.07073 0.305283,0.1368 0.490234,0.208984 0.04935,0.01926 0.09265,0.03841 0.150391,0.06055 0.08567,0.03284 0.185697,0.06486 0.27539,0.09766 0.01504,0.0057 0.03175,0.01192 0.04687,0.01758 0.231336,0.08403 0.46085,0.168036 0.705079,0.251954 0.07893,0.02712 0.152776,0.05473 0.240234,0.08398 0.05575,0.01865 0.118499,0.03617 0.175781,0.05469 0.192881,0.06386 0.398823,0.126569 0.601563,0.189454 0.05828,0.01769 0.113719,0.03515 0.171875,0.05273 0.174538,0.05285 0.342874,0.107006 0.529297,0.160156 0.02577,0.0073 0.05411,0.0142 0.08008,0.02148 0.294491,0.08357 0.604606,0.160944 0.916015,0.240234 0.02926,0.0074 0.05664,0.01609 0.08594,0.02344 0.159005,0.03997 0.314873,0.08149 0.482422,0.121094 0.01638,0.0039 0.03437,0.0079 0.05078,0.01172 0.350111,0.08233 0.713781,0.155938 1.082031,0.230469 0.160536,0.03288 0.310652,0.0708 0.47461,0.101562 0.06736,0.01264 0.141103,0.02088 0.208984,0.0332 0.551641,0.100278 1.113747,0.19266 1.699219,0.269532 0.0163,0.0021 0.03251,0.0037 0.04883,0.0059 0.169888,0.02206 0.337245,0.04662 0.509765,0.06641 0.47475,0.05446 0.961118,0.09618 1.453125,0.13086 0.04233,0.003 0.08451,0.005 0.126954,0.0078 0.653594,0.04352 1.320825,0.0676 2,0.07031 0.08142,3.81e-4 0.162392,0.0022 0.24414,0.002 0.229771,-8.79e-4 0.461132,-0.0056 0.69336,-0.01172 0.151301,-0.0038 0.302799,-0.0075 0.455078,-0.01367 0.197899,-0.0081 0.396257,-0.01909 0.595703,-0.03125 0.188841,-0.01133 0.378231,-0.02401 0.568359,-0.03906 0.1721,-0.01381 0.344504,-0.03186 0.517578,-0.04883 0.208478,-0.0202 0.417175,-0.04148 0.626953,-0.06641 0.141564,-0.01699 0.283675,-0.03548 0.425782,-0.05469 0.260974,-0.03496 0.522531,-0.07256 0.785156,-0.115235 0.09163,-0.015 0.183576,-0.03091 0.275391,-0.04687 0.309242,-0.05341 0.618644,-0.113024 0.929687,-0.177734 0.01359,-0.0028 0.02743,-0.005 0.04102,-0.0078 0.0227,-0.0048 0.04565,-0.01078 0.06836,-0.01563 0.358781,-0.07616 0.717575,-0.159948 1.078125,-0.251953 1.438733,-0.367132 2.889018,-0.856727 4.332031,-1.507812 0.364223,-0.164337 0.727243,-0.339161 1.089844,-0.523438 l 0.002,-0.002 c -0.0067,0.0036 -0.0043,0.0047 0.01563,-0.0059 -0.0042,0.0022 -0.0027,0.0016 0.0039,-0.002 a 0.15001501,0.15001501 0 0 0 0.002,-0.002 c 0.07541,-0.04165 0.149285,-0.087 0.224609,-0.128907 0.413574,-0.215931 0.825469,-0.442188 1.236328,-0.685547 z m -32.443359,1.28125 h 3.183593 l -1.851562,6.21875 c -0.359806,1.21103 0.102077,2.516026 1.142578,3.238282 1.087428,0.754142 2.254938,1.394777 3.482422,1.93164 0.920613,0.402648 1.874413,0.74639 2.853516,1.035157 0,0 0.002,0 0.002,0 0.978533,0.288521 1.982379,0.523158 3.001953,0.705078 0,0 0.002,0 0.002,0 1.35966,0.24251 2.747932,0.393189 4.144531,0.460937 0.698625,0.03389 1.399469,0.04768 2.09961,0.04102 0.699504,-0.0067 1.399965,-0.03359 2.097656,-0.08008 0,0 0.002,0 0.002,0 2.793342,-0.186285 5.55206,-0.693615 8.126953,-1.535157 1.287447,-0.420769 2.529045,-0.924048 3.705078,-1.513671 0.588018,-0.294812 1.159827,-0.611564 1.712891,-0.949219 1.135574,-0.693853 1.663288,-2.062297 1.285156,-3.333985 l -1.851562,-6.21875 h 3.259765 c 1.06991,2.65e-4 2.031657,0.642489 2.44336,1.628907 l 7,16.40625 c 0.729195,1.748078 -0.549256,3.663474 -2.445313,3.664062 H 6.8886719 C 4.9925932,59.847085 3.7142003,57.931695 4.4433594,56.183594 l 6.9980466,-16.40625 c 0.411623,-0.986264 1.375445,-1.628642 2.445313,-1.628907 z"
     style="mix-blend-mode:normal;fill-rule:evenodd;stroke-linejoin:round;filter:url(#filter9)"
     id="path9"
     transform="matrix(0.9381225,0,0,0.9381225,1.9853962,1.9809057)" />
</svg>
