<?xml version="1.0" encoding="UTF-8" standalone="no"?>
<svg
   width="64"
   height="64"
   version="1.1"
   id="svg4"
   sodipodi:docname="vscodium-insiders.svg"
   inkscape:version="1.4 (e7c3feb100, 2024-10-09)"
   xmlns:inkscape="http://www.inkscape.org/namespaces/inkscape"
   xmlns:sodipodi="http://sodipodi.sourceforge.net/DTD/sodipodi-0.dtd"
   xmlns:xlink="http://www.w3.org/1999/xlink"
   xmlns="http://www.w3.org/2000/svg"
   xmlns:svg="http://www.w3.org/2000/svg">
  <defs
     id="defs4">
    <linearGradient
       id="linearGradient6"
       inkscape:collect="always">
      <stop
         style="stop-color:#ec8530;stop-opacity:1;"
         offset="0"
         id="stop7" />
      <stop
         style="stop-color:#ec6921;stop-opacity:1;"
         offset="1"
         id="stop8" />
    </linearGradient>
    <inkscape:path-effect
       effect="fillet_chamfer"
       id="path-effect5"
       is_visible="true"
       lpeversion="1"
       nodesatellites_param="F,0,0,1,0,0,0,1 @ F,0,0,1,0,0,0,1 @ F,0,0,1,0,3.17068,0,1 @ F,0,0,1,0,0,0,1 @ F,0,0,1,0,0,0,1 @ F,0,0,1,0,0,0,1 @ F,0,0,1,0,4.9351223,0,1 @ F,0,0,1,0,0,0,1 @ F,0,0,1,0,0,0,1 @ F,0,0,1,0,1.4464916,0,1 @ F,0,0,1,0,0,0,1 @ F,0,0,1,0,0,0,1 @ F,0,0,1,0,0,0,1 @ F,0,0,1,0,0,0,1 @ F,0,0,1,0,0,0,1 @ F,0,0,1,0,0,0,1 @ F,0,0,1,0,0,0,1 @ F,0,0,1,0,0,0,1 @ F,0,0,1,0,1.647564,0,1 @ F,0,0,1,0,0,0,1 @ F,0,0,1,0,0,0,1 @ F,0,0,1,0,0,0,1 @ F,0,0,1,0,1.647564,0,1 @ F,0,0,1,0,0,0,1 @ F,0,0,1,0,0,0,1 @ F,0,0,1,0,0,0,1 @ F,0,0,1,0,0,0,1 @ F,0,0,1,0,1.647564,0,1 @ F,0,0,1,0,0,0,1 @ F,0,0,1,0,0,0,1 @ F,0,0,1,0,0,0,1"
       radius="0"
       unit="px"
       method="auto"
       mode="F"
       chamfer_steps="1"
       flexible="false"
       use_knot_distance="true"
       apply_no_radius="true"
       apply_with_radius="true"
       only_selected="false"
       hide_knots="false" />
    <radialGradient
       inkscape:collect="always"
       xlink:href="#linearGradient6"
       id="radialGradient8"
       cx="30.137699"
       cy="38.361309"
       fx="30.137699"
       fy="38.361309"
       r="18.709148"
       gradientTransform="matrix(2.4569446,-0.65833631,0.64189,2.3955661,-67.162706,-23.591353)"
       gradientUnits="userSpaceOnUse" />
    <filter
       inkscape:collect="always"
       style="color-interpolation-filters:sRGB"
       id="filter8"
       x="-0.047849028"
       y="-0.049074893"
       width="1.0956981"
       height="1.0981499">
      <feGaussianBlur
         inkscape:collect="always"
         stdDeviation="0.70434548"
         id="feGaussianBlur8" />
    </filter>
  </defs>
  <sodipodi:namedview
     id="namedview4"
     pagecolor="#505050"
     bordercolor="#eeeeee"
     borderopacity="1"
     inkscape:showpageshadow="0"
     inkscape:pageopacity="0"
     inkscape:pagecheckerboard="0"
     inkscape:deskcolor="#505050"
     inkscape:zoom="12.926796"
     inkscape:cx="36.474623"
     inkscape:cy="31.020835"
     inkscape:current-layer="svg4" />
  <path
     style="fill:#ffffff;fill-opacity:1"
     d="m 31.431641,9.59375 c -1.371165,0.245762 -1.519779,0.436972 -2.386719,0.9375 -1.979919,1.270825 -2.934456,3.502482 -2.878906,5.734375 -1.603559,-1.976599 -3.708048,-2.874242 -6.257813,-2.761719 -1.724121,0.213188 -3.300508,1.103535 -4.371094,2.476563 v 0.002 c -2.151879,2.761537 -1.658565,6.825498 1.013672,9.050781 -5.321135,-0.845677 -7.5273895,2.25155 -7.5273895,6.361328 0,4.925572 1.5624565,10.297825 5.9296875,13.91211 3.466338,3.18768 6.455201,2.587258 9.0625,3.830078 0.355307,2.259939 2.042098,3.821346 3.294922,4.451172 1.399101,0.703363 2.628458,0.921875 3.955078,0.921875 1.602763,0 2.88351,-0.406356 4.158203,-1.173829 1.274693,-0.767472 3.048828,-2.173572 3.048828,-4.978515 0,-1.049944 0.168491,-1.454671 1.650391,-2.308594 1.481899,-0.853923 4.360941,-1.611276 8.279297,-1.605469 3.570229,0.0053 6.567833,-2.975045 6.574218,-6.548828 v -0.002 c 0.0043,-2.264931 -1.261959,-4.195544 -3.046875,-5.380859 0.250035,-1.520286 0.363838,-3.076006 0.3125,-4.65625 v -0.002 -0.002 c -0.07965,-2.394628 -1.548133,-4.3888 -3.544921,-5.46875 1.025614,-1.159362 1.706524,-2.632971 1.707031,-4.273437 v -0.002 c 0.0015,-3.576794 -2.988477,-6.561818 -6.560547,-6.564453 h -0.002 c -2.048936,0 -3.880684,0.548879 -5.501953,1.363281 -0.889493,-1.725504 -2.540144,-2.720934 -4.355423,-3.2674851 h -0.002 -0.002 C 33.144558,9.4582286 32.277337,9.4421709 31.431641,9.59375 Z"
     id="path4-3"
     sodipodi:nodetypes="sccscccsccsssssssscccccssssccccs"
     transform="translate(4.0790933e-5,-2.3075112e-4)"
     inkscape:original-d="m 31.431641,9.59375 c -1.371165,0.245762 -1.519779,0.436972 -2.386719,0.9375 -1.979919,1.270825 -2.934456,3.502482 -2.878906,5.734375 -1.603559,-1.976599 -3.708048,-2.874242 -6.257813,-2.761719 -1.724121,0.213188 -3.300508,1.103535 -4.371094,2.476563 v 0.002 c -2.151879,2.761537 -1.658565,6.825498 1.013672,9.050781 -5.321135,-0.845677 -7.5273895,2.25155 -7.5273895,6.361328 0,4.925572 1.5624565,10.297825 5.9296875,13.91211 3.466338,3.18768 6.455201,2.587258 9.0625,3.830078 0.355307,2.259939 2.042098,3.821346 3.294922,4.451172 1.399101,0.703363 2.628458,0.921875 3.955078,0.921875 1.602763,0 2.88351,-0.406356 4.158203,-1.173829 1.274693,-0.767472 3.048828,-2.173572 3.048828,-4.978515 0,-1.049944 0.168491,-1.454671 1.650391,-2.308594 1.481899,-0.853923 4.360941,-1.611276 8.279297,-1.605469 3.570229,0.0053 6.567833,-2.975045 6.574218,-6.548828 v -0.002 c 0.0043,-2.264931 -1.261959,-4.195544 -3.046875,-5.380859 0.250035,-1.520286 0.363838,-3.076006 0.3125,-4.65625 v -0.002 -0.002 c -0.07965,-2.394628 -1.548133,-4.3888 -3.544921,-5.46875 1.025614,-1.159362 1.706524,-2.632971 1.707031,-4.273437 v -0.002 c 0.0015,-3.576794 -2.988477,-6.561818 -6.560547,-6.564453 h -0.002 c -2.048936,0 -3.880684,0.548879 -5.501953,1.363281 -0.889493,-1.725504 -2.540144,-2.720934 -4.355423,-3.2674851 h -0.002 -0.002 C 33.144558,9.4582286 32.277337,9.4421709 31.431641,9.59375 Z"
     inkscape:path-effect="#path-effect5" />
  <path
     style="fill:url(#radialGradient8);stroke-width:0.935481"
     d="m 31.3503,14.121919 c -1.068319,0.685708 -1.376092,2.105767 -0.687578,3.170344 3.782148,5.861722 4.675532,10.282804 4.288243,14.156629 -1.565995,7.419297 -4.969273,8.925421 -7.943166,8.925421 -2.903732,0 -2.126348,-4.782177 0.05613,-6.181656 1.303125,-0.813868 2.972023,-1.34335 4.252696,-1.34335 1.269447,0 2.298476,-1.026222 2.298476,-2.292863 0,-1.266641 -1.029029,-2.292863 -2.298476,-2.292863 -1.495834,0 -2.963603,0.315257 -4.333147,0.850352 0.279709,-1.321835 0.383547,-2.749378 0.02152,-4.267663 -0.549127,-2.305025 -2.131025,-4.506211 -4.876661,-6.640042 -0.480837,-0.375128 -1.09077,-0.542579 -1.696026,-0.46774 -0.605256,0.07484 -1.155319,0.386353 -1.529511,0.866255 -0.779255,1.000029 -0.598707,2.440669 0.403192,3.218053 2.236735,1.738123 2.975764,3.025345 3.228344,4.084309 0.25258,1.059899 0.04865,2.195573 -0.458385,3.75689 -0.648289,2.104832 -1.40135,3.983277 -1.731575,5.784077 -0.161838,0.886836 -0.175871,1.852252 -0.217967,2.623088 -1.610898,-1.571608 -2.241412,-3.645568 -2.241412,-6.676526 0,-1.26664 -1.029029,-2.292863 -2.298476,-2.292863 -1.267576,9.36e-4 -2.295669,1.027158 -2.295669,2.292863 0,4.139502 1.209576,8.078811 4.451952,10.706577 2.935538,2.798022 10.398803,1.764316 10.398803,6.255559 0,1.267576 1.854123,1.884993 3.12357,1.884993 1.301254,0 2.93928,-0.870932 2.93928,-1.884993 0,-5.096499 5.367788,-8.193875 14.204339,-8.180779 1.269447,0.0019 2.298476,-1.023415 2.300347,-2.290056 0.0028,-1.266641 -1.024352,-2.294734 -2.293799,-2.296605 -0.60432,-9.36e-4 -1.192738,0.01964 -1.773671,0.05426 0.987867,-2.325605 1.425672,-4.88508 1.335866,-7.649426 -0.0421,-1.265705 -1.103867,-2.25825 -2.372379,-2.217089 -1.269447,0.04116 -2.263863,1.101996 -2.222702,2.368637 0.119742,3.62031 -0.0159,6.852396 -2.711023,8.555906 -0.766158,0.484579 -1.657672,0.90461 -2.502411,0.90461 0.655772,-1.784897 1.151577,-3.669891 1.354576,-5.700819 0.129097,-1.296576 0.143129,-2.836378 -0.0047,-4.032857 -0.229193,-1.853188 -0.506095,-3.955213 0.196451,-5.538046 0.632385,-1.363931 2.046832,-1.935509 4.12547,-1.935509 1.267576,-9.36e-4 2.295669,-1.027158 2.295669,-2.291928 9.36e-4,-1.266641 -1.027157,-2.294734 -2.295669,-2.29567 -3.088022,0 -5.428595,1.626801 -6.756042,3.591311 -0.693191,-1.482737 -1.53793,-3.011313 -2.559475,-4.592275 -0.329289,-0.511708 -0.848481,-0.870932 -1.444382,-1.000029 -0.294676,-0.06361 -0.598708,-0.06922 -0.89619,-0.0159 -0.297483,0.05332 -0.580934,0.164645 -0.834449,0.327418 z"
     id="path4" />
  <path
     style="fill:none;stroke-width:0.2;stroke:#ff0000;stroke-opacity:1;stroke-dasharray:none;filter:url(#filter8)"
     d="m 31.3503,14.121919 c -1.068319,0.685708 -1.376092,2.105767 -0.687578,3.170344 3.782148,5.861722 4.675532,10.282804 4.288243,14.156629 -1.565995,7.419297 -4.969273,8.925421 -7.943166,8.925421 -2.903732,0 -2.126348,-4.782177 0.05613,-6.181656 1.303125,-0.813868 2.972023,-1.34335 4.252696,-1.34335 1.269447,0 2.298476,-1.026222 2.298476,-2.292863 0,-1.266641 -1.029029,-2.292863 -2.298476,-2.292863 -1.495834,0 -2.963603,0.315257 -4.333147,0.850352 0.279709,-1.321835 0.383547,-2.749378 0.02152,-4.267663 -0.549127,-2.305025 -2.131025,-4.506211 -4.876661,-6.640042 -0.480837,-0.375128 -1.09077,-0.542579 -1.696026,-0.46774 -0.605256,0.07484 -1.155319,0.386353 -1.529511,0.866255 -0.779255,1.000029 -0.598707,2.440669 0.403192,3.218053 2.236735,1.738123 2.975764,3.025345 3.228344,4.084309 0.25258,1.059899 0.04865,2.195573 -0.458385,3.75689 -0.648289,2.104832 -1.40135,3.983277 -1.731575,5.784077 -0.161838,0.886836 -0.175871,1.852252 -0.217967,2.623088 -1.610898,-1.571608 -2.241412,-3.645568 -2.241412,-6.676526 0,-1.26664 -1.029029,-2.292863 -2.298476,-2.292863 -1.267576,9.36e-4 -2.295669,1.027158 -2.295669,2.292863 0,4.139502 1.209576,8.078811 4.451952,10.706577 2.935538,2.798022 10.398803,1.764316 10.398803,6.255559 0,1.267576 1.854123,1.884993 3.12357,1.884993 1.301254,0 2.93928,-0.870932 2.93928,-1.884993 0,-5.096499 5.367788,-8.193875 14.204339,-8.180779 1.269447,0.0019 2.298476,-1.023415 2.300347,-2.290056 0.0028,-1.266641 -1.024352,-2.294734 -2.293799,-2.296605 -0.60432,-9.36e-4 -1.192738,0.01964 -1.773671,0.05426 0.987867,-2.325605 1.425672,-4.88508 1.335866,-7.649426 -0.0421,-1.265705 -1.103867,-2.25825 -2.372379,-2.217089 -1.269447,0.04116 -2.263863,1.101996 -2.222702,2.368637 0.119742,3.62031 -0.0159,6.852396 -2.711023,8.555906 -0.766158,0.484579 -1.657672,0.90461 -2.502411,0.90461 0.655772,-1.784897 1.151577,-3.669891 1.354576,-5.700819 0.129097,-1.296576 0.143129,-2.836378 -0.0047,-4.032857 -0.229193,-1.853188 -0.506095,-3.955213 0.196451,-5.538046 0.632385,-1.363931 2.046832,-1.935509 4.12547,-1.935509 1.267576,-9.36e-4 2.295669,-1.027158 2.295669,-2.291928 9.36e-4,-1.266641 -1.027157,-2.294734 -2.295669,-2.29567 -3.088022,0 -5.428595,1.626801 -6.756042,3.591311 -0.693191,-1.482737 -1.53793,-3.011313 -2.559475,-4.592275 -0.329289,-0.511708 -0.848481,-0.870932 -1.444382,-1.000029 -0.294676,-0.06361 -0.598708,-0.06922 -0.89619,-0.0159 -0.297483,0.05332 -0.580934,0.164645 -0.834449,0.327418 z"
     id="path4-35" />
</svg>
