<?xml version="1.0" encoding="UTF-8" standalone="no"?>
<!-- Generator: Adobe Illustrator 25.2.1, SVG Export Plug-In . SVG Version: 6.00 Build 0)  -->

<svg
   version="1.1"
   id="Layer_1"
   x="0px"
   y="0px"
   viewBox="0 0 64 64"
   style="enable-background:new 0 0 64 64;"
   xml:space="preserve"
   sodipodi:docname="com.github.bitseater.weather.svg"
   inkscape:version="1.3.2 (091e20ef0f, 2023-11-25, custom)"
   xmlns:inkscape="http://www.inkscape.org/namespaces/inkscape"
   xmlns:sodipodi="http://sodipodi.sourceforge.net/DTD/sodipodi-0.dtd"
   xmlns:xlink="http://www.w3.org/1999/xlink"
   xmlns="http://www.w3.org/2000/svg"
   xmlns:svg="http://www.w3.org/2000/svg"><defs
   id="defs11"><filter
     inkscape:collect="always"
     style="color-interpolation-filters:sRGB"
     id="filter6"
     x="-0.13681843"
     y="-0.21890949"
     width="1.2736369"
     height="1.437819"><feGaussianBlur
       inkscape:collect="always"
       stdDeviation="2.6947019"
       id="feGaussianBlur6" /></filter><filter
     inkscape:collect="always"
     style="color-interpolation-filters:sRGB"
     id="filter7"
     x="-0.11469675"
     y="-0.14823002"
     width="1.2293935"
     height="1.3021478"><feGaussianBlur
       inkscape:collect="always"
       stdDeviation="2.6947019"
       id="feGaussianBlur7" /></filter><radialGradient
     inkscape:collect="always"
     xlink:href="#linearGradient13"
     id="radialGradient1"
     gradientUnits="userSpaceOnUse"
     gradientTransform="matrix(1.2656882,0,-2.948011e-8,1.2515637,-33.414164,-4.4996527)"
     cx="40.793858"
     cy="40.102558"
     fx="40.793858"
     fy="40.102558"
     r="24" /><linearGradient
     id="linearGradient13"
     inkscape:collect="always"><stop
       style="stop-color:#ffffff;stop-opacity:1;"
       offset="0"
       id="stop13" /><stop
       style="stop-color:#d2d2d2;stop-opacity:1;"
       offset="1"
       id="stop14" /></linearGradient><radialGradient
     id="SVGID_3_-3"
     cx="15.451116"
     cy="28.595697"
     r="32.3983"
     fx="15.451116"
     fy="28.595697"
     gradientUnits="userSpaceOnUse"
     gradientTransform="matrix(0.90563873,0,0,0.90563873,24.396654,7.5325328)">
	<stop
   offset="0"
   style="stop-color:#ffd700;stop-opacity:1;"
   id="stop6-6" />
	<stop
   offset="1"
   style="stop-color:#ff6000;stop-opacity:1;"
   id="stop7-7" />
</radialGradient><radialGradient
     id="SVGID_1_-5"
     cx="13.286"
     cy="20.816799"
     r="53.599499"
     gradientUnits="userSpaceOnUse"
     gradientTransform="matrix(0.92599042,0,0,0.92599042,3.2942969,0.49241303)">
	<stop
   offset="0"
   style="stop-color:#00F0F4"
   id="stop2-3" />
	<stop
   offset="1"
   style="stop-color:#1598FF"
   id="stop3-5" />
</radialGradient></defs><sodipodi:namedview
   id="namedview11"
   pagecolor="#ffffff"
   bordercolor="#000000"
   borderopacity="0.25"
   inkscape:showpageshadow="2"
   inkscape:pageopacity="0.0"
   inkscape:pagecheckerboard="0"
   inkscape:deskcolor="#d1d1d1"
   showguides="false"
   inkscape:zoom="13.890625"
   inkscape:cx="32"
   inkscape:cy="32.899888"
   inkscape:window-width="1920"
   inkscape:window-height="1020"
   inkscape:window-x="0"
   inkscape:window-y="0"
   inkscape:window-maximized="1"
   inkscape:current-layer="Layer_1" />
<style
   type="text/css"
   id="style1">
	.st0{opacity:0.2;fill:#FFFFFF;enable-background:new    ;}
	.st1{opacity:0.2;fill:#0D0D08;enable-background:new    ;}
	.st2{fill:url(#SVGID_1_);}
	.st3{fill:url(#SVGID_2_);}
	.st4{fill:url(#SVGID_3_);}
	.st5{opacity:0.2;enable-background:new    ;}
	.st6{fill:#FFFFFF;}
</style>


<radialGradient
   id="SVGID_1_"
   cx="13.286"
   cy="20.8168"
   r="53.5995"
   gradientUnits="userSpaceOnUse"
   gradientTransform="matrix(1.0224722,0,0,1.0224722,0.30336231,-1.2988926)">
	<stop
   offset="0"
   style="stop-color:#00F0F4"
   id="stop2" />
	<stop
   offset="1"
   style="stop-color:#1598FF"
   id="stop3" />
</radialGradient>

<radialGradient
   id="SVGID_2_"
   cx="18.887732"
   cy="23.331114"
   r="43.885"
   gradientUnits="userSpaceOnUse"
   gradientTransform="matrix(-1.3708142,0,0,-1.3708142,72.844972,59.337154)"
   fx="18.887732"
   fy="23.331114">
	<stop
   offset="0"
   style="stop-color:#FF4500"
   id="stop4" />
	<stop
   offset="1"
   style="stop-color:#FFAC00"
   id="stop5" />
</radialGradient>


<radialGradient
   id="SVGID_3_"
   cx="15.451116"
   cy="28.595697"
   r="32.3983"
   fx="15.451116"
   fy="28.595697"
   gradientUnits="userSpaceOnUse"
   gradientTransform="translate(23.604439,6.4747588)">
	<stop
   offset="0"
   style="stop-color:#ffee00;stop-opacity:1;"
   id="stop6" />
	<stop
   offset="1"
   style="stop-color:#ff6000;stop-opacity:1;"
   id="stop7" />
</radialGradient>







<g
   id="g1"><path
     class="st2"
     d="m 57.927732,33.920668 c 0,6.944928 -2.685372,13.241663 -7.130126,17.871615 -4.722551,5.000348 -12.59347,0 -20.001394,0 -7.500522,0 -13.056465,4.81515 -17.779016,-0.277797 C 8.6650413,46.977133 6.0722681,40.772997 6.0722681,33.920668 6.0722681,19.567816 17.647148,7.9929355 32,7.9929355 c 14.352851,0 25.927732,11.5748805 25.927732,25.9277325 z"
     id="path3"
     style="fill:url(#SVGID_1_-5);stroke-width:0.905639" /><circle
     class="st4"
     cx="43.596195"
     cy="27.637714"
     r="10.867664"
     id="circle7"
     style="fill:url(#SVGID_3_-3);stroke-width:0.905639" /><path
     id="circle9"
     style="fill:url(#radialGradient1);stroke-width:0.905639"
     class="st6"
     d="m 32,28.837903 a 10.867665,10.867665 0 0 0 -10.867665,10.867664 10.867665,10.867665 0 0 0 0.03361,0.477584 8.1507486,8.1507486 0 0 0 -2.750524,-0.477584 8.1507486,8.1507486 0 0 0 -8.150749,8.150749 8.1507486,8.1507486 0 0 0 8.150749,8.150749 H 45.584583 A 8.1507486,8.1507486 0 0 0 53.735331,47.856316 8.1507486,8.1507486 0 0 0 45.584583,39.705567 8.1507486,8.1507486 0 0 0 42.83229,40.206145 10.867665,10.867665 0 0 0 42.86767,39.705567 10.867665,10.867665 0 0 0 32,28.837903 Z" /><path
     d="m 32,5.4921875 c -15.848271,0 -28.6289062,12.7806345 -28.6289062,28.6289065 -1e-7,5.802689 1.6881636,11.181639 4.640625,15.634765 C 8.0094456,49.672658 8,49.591563 8,49.507812 c 0,-4.970557 4.029442,-9 9,-9 1.035162,-1.88e-4 2.062601,0.17821 3.037109,0.527344 -0.01624,-0.175487 -0.02861,-0.351311 -0.03711,-0.527344 0,-6.62741 5.37259,-12 12,-12 0.298731,0 0.593464,0.01565 0.886719,0.03711 -0.05061,-0.447484 -0.08203,-0.900314 -0.08203,-1.361328 0,-6.627411 5.37259,-12 12,-12 6.627411,0 12,5.372589 12,12 0,6.62741 -5.372589,12 -12,12 -0.298784,0 -0.591459,-0.02346 -0.884765,-0.04492 0.0511,0.44961 0.08008,0.905861 0.08008,1.36914 -0.0088,0.184521 -0.02179,0.368815 -0.03906,0.552735 0.973591,-0.35801 2.001753,-0.545009 3.039057,-0.552737 4.970558,10e-7 9,4.029443 9,9 0,0.09763 -0.01254,0.19218 -0.01563,0.289063 2.947053,-4.493222 4.644531,-9.878974 4.644531,-15.675781 C 60.628906,18.272822 47.848271,5.4921875 32,5.4921875 Z"
     style="mix-blend-mode:normal;fill:none;fill-opacity:1;stroke:#000000;stroke-width:0.2;stroke-dasharray:none;stroke-opacity:1;filter:url(#filter7)"
     id="path6"
     transform="matrix(0.90563873,0,0,0.90563873,3.0195602,3.0195605)" /><path
     d="m 32,28.507812 a 12,12 0 0 0 -12,12 12,12 0 0 0 0.03711,0.527344 A 9,9 0 0 0 17,40.507812 a 9,9 0 0 0 -9,9 9,9 0 0 0 9,9 h 30 a 9,9 0 0 0 9,-9 9,9 0 0 0 -9,-9 9,9 0 0 0 -3.039063,0.552735 A 12,12 0 0 0 44,40.507812 a 12,12 0 0 0 -12,-12 z"
     style="mix-blend-mode:normal;fill:none;fill-opacity:1;stroke:#000000;stroke-width:0.2;stroke-dasharray:none;stroke-opacity:1;filter:url(#filter6)"
     id="path5"
     transform="matrix(0.90563873,0,0,0.90563873,3.0195602,3.0195605)" /></g></svg>
