<?xml version="1.0" encoding="UTF-8" standalone="no"?>
<svg
   width="64"
   height="64"
   version="1"
   id="svg15"
   sodipodi:docname="winefile.svg"
   inkscape:version="1.3.2 (091e20ef0f, 2023-11-25, custom)"
   xmlns:inkscape="http://www.inkscape.org/namespaces/inkscape"
   xmlns:sodipodi="http://sodipodi.sourceforge.net/DTD/sodipodi-0.dtd"
   xmlns:xlink="http://www.w3.org/1999/xlink"
   xmlns="http://www.w3.org/2000/svg"
   xmlns:svg="http://www.w3.org/2000/svg">
  <defs
     id="defs15">
    <linearGradient
       id="linearGradient22"
       inkscape:collect="always">
      <stop
         style="stop-color:#46df6f;stop-opacity:1;"
         offset="0"
         id="stop22" />
      <stop
         style="stop-color:#36b08a;stop-opacity:1;"
         offset="1"
         id="stop23" />
    </linearGradient>
    <linearGradient
       id="linearGradient20"
       inkscape:collect="always">
      <stop
         style="stop-color:#ffffff;stop-opacity:1;"
         offset="0"
         id="stop20" />
      <stop
         style="stop-color:#c2c2c2;stop-opacity:1;"
         offset="1"
         id="stop21" />
    </linearGradient>
    <inkscape:path-effect
       effect="fillet_chamfer"
       id="path-effect15"
       is_visible="true"
       lpeversion="1"
       nodesatellites_param="F,0,0,1,0,0,0,1 @ F,0,0,1,0,0,0,1 @ F,0,0,1,0,0,0,1 @ F,0,0,1,0,0,0,1 @ F,0,0,1,0,0,0,1 @ F,0,0,1,0,0,0,1 @ F,0,0,1,0,0,0,1 @ F,0,0,1,0,0,0,1 @ F,0,1,1,0,2.8854661,0,1 @ F,0,0,1,0,2.8854661,0,1"
       radius="0"
       unit="px"
       method="auto"
       mode="F"
       chamfer_steps="1"
       flexible="false"
       use_knot_distance="true"
       apply_no_radius="true"
       apply_with_radius="true"
       only_selected="false"
       hide_knots="false" />
    <inkscape:path-effect
       effect="fillet_chamfer"
       id="path-effect2"
       is_visible="true"
       lpeversion="1"
       nodesatellites_param="F,0,1,1,0,2.1942082,0,1 @ F,0,1,1,0,2.1942082,0,1 @ F,0,1,1,0,2.1942082,0,1 @ F,0,1,1,0,2.1942082,0,1 | F,0,1,1,0,2.1942082,0,1 @ F,0,1,1,0,2.1942082,0,1 @ F,0,1,1,0,2.1942082,0,1 @ F,0,1,1,0,2.1942082,0,1 | F,0,1,1,0,2.1942082,0,1 @ F,0,1,1,0,2.1942082,0,1 @ F,0,1,1,0,2.1942082,0,1 @ F,0,1,1,0,2.1942082,0,1 | F,0,1,1,0,2.1942082,0,1 @ F,0,1,1,0,2.1942082,0,1 @ F,0,1,1,0,2.1942082,0,1 @ F,0,1,1,0,2.1942082,0,1"
       radius="0"
       unit="px"
       method="auto"
       mode="F"
       chamfer_steps="1"
       flexible="false"
       use_knot_distance="true"
       apply_no_radius="true"
       apply_with_radius="true"
       only_selected="false"
       hide_knots="false" />
    <linearGradient
       id="linearGradient18"
       inkscape:collect="always">
      <stop
         style="stop-color:#00c3ff;stop-opacity:1;"
         offset="0"
         id="stop18" />
      <stop
         style="stop-color:#0065ff;stop-opacity:1;"
         offset="1"
         id="stop19" />
    </linearGradient>
    <inkscape:path-effect
       effect="fillet_chamfer"
       id="path-effect17"
       is_visible="true"
       lpeversion="1"
       nodesatellites_param="F,0,1,1,0,1.9324473,0,1 @ F,0,0,1,0,1.9324473,0,1 @ F,0,1,1,0,1.9324473,0,1 @ F,0,1,1,0,1.9324473,0,1"
       radius="0"
       unit="px"
       method="auto"
       mode="F"
       chamfer_steps="1"
       flexible="false"
       use_knot_distance="true"
       apply_no_radius="true"
       apply_with_radius="true"
       only_selected="false"
       hide_knots="false" />
    <inkscape:path-effect
       effect="fillet_chamfer"
       id="path-effect16"
       is_visible="true"
       lpeversion="1"
       nodesatellites_param="F,0,0,1,0,2.7189566,0,1 @ F,0,1,1,0,2.7189566,0,1 @ F,0,1,1,0,2.7189566,0,1 @ F,0,1,1,0,2.7189566,0,1"
       radius="0"
       unit="px"
       method="auto"
       mode="F"
       chamfer_steps="1"
       flexible="false"
       use_knot_distance="true"
       apply_no_radius="true"
       apply_with_radius="true"
       only_selected="false"
       hide_knots="false" />
    <inkscape:path-effect
       effect="fillet_chamfer"
       id="path-effect21-3"
       is_visible="true"
       lpeversion="1"
       nodesatellites_param="F,0,0,1,0,0,0,1 @ F,0,1,1,0,5.4856001,0,1 @ F,0,0,1,0,5.4856001,0,1 @ F,0,0,1,0,0,0,1 @ F,0,0,1,0,0,0,1 @ F,0,0,1,0,1.1692229,0,1 @ F,0,0,1,0,1.1692229,0,1 @ F,0,0,1,0,0,0,1 @ F,0,0,1,0,0,0,1"
       radius="0"
       unit="px"
       method="auto"
       mode="F"
       chamfer_steps="1"
       flexible="false"
       use_knot_distance="true"
       apply_no_radius="true"
       apply_with_radius="true"
       only_selected="false"
       hide_knots="false" />
    <inkscape:path-effect
       effect="fillet_chamfer"
       id="path-effect21"
       is_visible="true"
       lpeversion="1"
       nodesatellites_param="F,0,0,1,0,0,0,1 @ F,0,1,1,0,10.457687,0,1 @ F,0,0,1,0,10.457687,0,1 @ F,0,0,1,0,0,0,1 @ F,0,0,1,0,0,0,1 @ F,0,0,1,0,4.0428666,0,1 @ F,0,0,1,0,4.0428666,0,1 @ F,0,0,1,0,0,0,1 @ F,0,0,1,0,0,0,1"
       radius="0"
       unit="px"
       method="auto"
       mode="F"
       chamfer_steps="1"
       flexible="false"
       use_knot_distance="true"
       apply_no_radius="true"
       apply_with_radius="true"
       only_selected="false"
       hide_knots="false" />
    <inkscape:path-effect
       effect="fillet_chamfer"
       id="path-effect13-3"
       is_visible="true"
       lpeversion="1"
       nodesatellites_param="F,0,1,1,0,8.0633676,0,1 @ F,0,1,1,0,8.0633676,0,1 @ F,0,0,1,0,8.0633676,0,1 @ F,0,1,1,0,8.0633676,0,1"
       radius="0"
       unit="px"
       method="auto"
       mode="F"
       chamfer_steps="1"
       flexible="false"
       use_knot_distance="true"
       apply_no_radius="true"
       apply_with_radius="true"
       only_selected="false"
       hide_knots="false" />
    <radialGradient
       inkscape:collect="always"
       xlink:href="#SVGID_6_"
       id="radialGradient14"
       cx="14.113472"
       cy="45.698372"
       fx="14.113472"
       fy="45.698372"
       r="28.05817"
       gradientTransform="matrix(1.8149615,-0.48631747,0.44065378,1.6445423,-32.694005,-34.38585)"
       gradientUnits="userSpaceOnUse" />
    <radialGradient
       id="SVGID_6_"
       cx="32"
       cy="28"
       r="41.077301"
       fx="13.6072"
       fy="13.488"
       gradientTransform="matrix(1,0,0,-1,0,66)"
       gradientUnits="userSpaceOnUse">
      <stop
         offset="0"
         style="stop-color:#fbe85a;stop-opacity:1;"
         id="stop11" />
      <stop
         offset="1"
         style="stop-color:#f08f24;stop-opacity:1;"
         id="stop12" />
    </radialGradient>
    <inkscape:path-effect
       effect="fillet_chamfer"
       id="path-effect13"
       is_visible="true"
       lpeversion="1"
       nodesatellites_param="F,0,1,1,0,8.0633676,0,1 @ F,0,1,1,0,8.0633676,0,1 @ F,0,0,1,0,8.0633676,0,1 @ F,0,1,1,0,8.0633676,0,1"
       radius="0"
       unit="px"
       method="auto"
       mode="F"
       chamfer_steps="1"
       flexible="false"
       use_knot_distance="true"
       apply_no_radius="true"
       apply_with_radius="true"
       only_selected="false"
       hide_knots="false" />
    <radialGradient
       id="SVGID_4_"
       cx="25.828501"
       cy="56.472801"
       r="29.894199"
       gradientTransform="matrix(1,0,0,-1,0.10022575,67.129461)"
       gradientUnits="userSpaceOnUse">
      <stop
         offset="0"
         style="stop-color:#2a73ff;stop-opacity:1;"
         id="stop7" />
      <stop
         offset="1"
         style="stop-color:#003fff;stop-opacity:1;"
         id="stop8" />
    </radialGradient>
    <radialGradient
       id="SVGID_3_"
       cx="25.0116"
       cy="44.2061"
       r="29.493601"
       gradientTransform="matrix(1,0,0,-1,-0.00652336,67.15156)"
       gradientUnits="userSpaceOnUse">
      <stop
         offset="0"
         style="stop-color:#8200ff;stop-opacity:1;"
         id="stop5" />
      <stop
         offset="1"
         style="stop-color:#cb3fff;stop-opacity:1;"
         id="stop6" />
    </radialGradient>
    <radialGradient
       id="SVGID_2_"
       cx="28.153099"
       cy="40.426701"
       r="40.0504"
       fx="5.5103002"
       fy="22.8279"
       gradientTransform="matrix(1,0,0,-1,-2.5943204,51.824163)"
       gradientUnits="userSpaceOnUse"
       fr="0"
       spreadMethod="pad">
      <stop
         offset="0"
         style="stop-color:#c3a436;stop-opacity:1;"
         id="stop3" />
      <stop
         offset="1"
         style="stop-color:#c38e3d;stop-opacity:1;"
         id="stop4" />
    </radialGradient>
    <inkscape:path-effect
       effect="fillet_chamfer"
       id="path-effect17-3"
       is_visible="true"
       lpeversion="1"
       nodesatellites_param="F,0,1,1,0,1.9324473,0,1 @ F,0,0,1,0,1.9324473,0,1 @ F,0,1,1,0,1.9324473,0,1 @ F,0,1,1,0,1.9324473,0,1"
       radius="0"
       unit="px"
       method="auto"
       mode="F"
       chamfer_steps="1"
       flexible="false"
       use_knot_distance="true"
       apply_no_radius="true"
       apply_with_radius="true"
       only_selected="false"
       hide_knots="false" />
    <inkscape:path-effect
       effect="fillet_chamfer"
       id="path-effect16-6"
       is_visible="true"
       lpeversion="1"
       nodesatellites_param="F,0,0,1,0,2.7189566,0,1 @ F,0,1,1,0,2.7189566,0,1 @ F,0,1,1,0,2.7189566,0,1 @ F,0,1,1,0,2.7189566,0,1"
       radius="0"
       unit="px"
       method="auto"
       mode="F"
       chamfer_steps="1"
       flexible="false"
       use_knot_distance="true"
       apply_no_radius="true"
       apply_with_radius="true"
       only_selected="false"
       hide_knots="false" />
    <radialGradient
       inkscape:collect="always"
       xlink:href="#linearGradient18"
       id="radialGradient19"
       cx="31.317982"
       cy="52.623924"
       fx="31.317982"
       fy="52.623924"
       r="18.206532"
       gradientTransform="matrix(2.3998141,0,0,0.67737203,-43.839352,16.977949)"
       gradientUnits="userSpaceOnUse" />
    <radialGradient
       id="SVGID_2_-3"
       cx="28.153099"
       cy="40.426701"
       r="40.0504"
       fx="5.5103002"
       fy="22.8279"
       gradientTransform="matrix(1,0,0,-1,-0.03564776,70.043858)"
       gradientUnits="userSpaceOnUse"
       fr="0"
       spreadMethod="pad">
      <stop
         offset="0"
         style="stop-color:#996a03;stop-opacity:1;"
         id="stop3-5" />
      <stop
         offset="1"
         style="stop-color:#945300;stop-opacity:1;"
         id="stop4-6" />
    </radialGradient>
    <radialGradient
       id="SVGID_6_-2"
       cx="32"
       cy="28"
       r="41.077301"
       fx="13.6072"
       fy="13.488"
       gradientTransform="matrix(1,0,0,-1,0,66)"
       gradientUnits="userSpaceOnUse">
      <stop
         offset="0"
         style="stop-color:#e6b321;stop-opacity:1;"
         id="stop11-9" />
      <stop
         offset="1"
         style="stop-color:#ff7000;stop-opacity:1;"
         id="stop12-1" />
    </radialGradient>
    <radialGradient
       id="radialGradient2"
       cx="32"
       cy="28"
       r="41.077301"
       fx="13.6072"
       fy="13.488"
       gradientTransform="matrix(1,0,0,-1,0,66)"
       gradientUnits="userSpaceOnUse">
      <stop
         offset="0"
         style="stop-color:#e6b321;stop-opacity:1;"
         id="stop1" />
      <stop
         offset="1"
         style="stop-color:#ff7000;stop-opacity:1;"
         id="stop2" />
    </radialGradient>
    <inkscape:path-effect
       effect="fillet_chamfer"
       id="path-effect21-3-5"
       is_visible="true"
       lpeversion="1"
       nodesatellites_param="F,0,0,1,0,0,0,1 @ F,0,1,1,0,5.4856001,0,1 @ F,0,0,1,0,5.4856001,0,1 @ F,0,0,1,0,0,0,1 @ F,0,0,1,0,0,0,1 @ F,0,0,1,0,1.1692229,0,1 @ F,0,0,1,0,1.1692229,0,1 @ F,0,0,1,0,0,0,1 @ F,0,0,1,0,0,0,1"
       radius="0"
       unit="px"
       method="auto"
       mode="F"
       chamfer_steps="1"
       flexible="false"
       use_knot_distance="true"
       apply_no_radius="true"
       apply_with_radius="true"
       only_selected="false"
       hide_knots="false" />
    <inkscape:path-effect
       effect="fillet_chamfer"
       id="path-effect21-35"
       is_visible="true"
       lpeversion="1"
       nodesatellites_param="F,0,0,1,0,0,0,1 @ F,0,1,1,0,5.4856001,0,1 @ F,0,0,1,0,5.4856001,0,1 @ F,0,0,1,0,0,0,1 @ F,0,0,1,0,0,0,1 @ F,0,0,1,0,1.1692229,0,1 @ F,0,0,1,0,1.1692229,0,1 @ F,0,0,1,0,0,0,1 @ F,0,0,1,0,0,0,1"
       radius="0"
       unit="px"
       method="auto"
       mode="F"
       chamfer_steps="1"
       flexible="false"
       use_knot_distance="true"
       apply_no_radius="true"
       apply_with_radius="true"
       only_selected="false"
       hide_knots="false" />
    <inkscape:path-effect
       effect="fillet_chamfer"
       id="path-effect13-3-6"
       is_visible="true"
       lpeversion="1"
       nodesatellites_param="F,0,1,1,0,8.0633676,0,1 @ F,0,1,1,0,8.0633676,0,1 @ F,0,0,1,0,8.0633676,0,1 @ F,0,1,1,0,8.0633676,0,1"
       radius="0"
       unit="px"
       method="auto"
       mode="F"
       chamfer_steps="1"
       flexible="false"
       use_knot_distance="true"
       apply_no_radius="true"
       apply_with_radius="true"
       only_selected="false"
       hide_knots="false" />
    <radialGradient
       id="SVGID_6_-9"
       cx="32"
       cy="28"
       r="41.077301"
       fx="13.6072"
       fy="13.488"
       gradientTransform="matrix(1,0,0,-1,0,66)"
       gradientUnits="userSpaceOnUse">
			<stop
   offset="0"
   style="stop-color:#21e2e6;stop-opacity:1;"
   id="stop11-1" />

			<stop
   offset="1"
   style="stop-color:#0089ff;stop-opacity:1;"
   id="stop12-2" />

		</radialGradient>
    <inkscape:path-effect
       effect="fillet_chamfer"
       id="path-effect13-7"
       is_visible="true"
       lpeversion="1"
       nodesatellites_param="F,0,1,1,0,8.0633676,0,1 @ F,0,1,1,0,8.0633676,0,1 @ F,0,0,1,0,8.0633676,0,1 @ F,0,1,1,0,8.0633676,0,1"
       radius="0"
       unit="px"
       method="auto"
       mode="F"
       chamfer_steps="1"
       flexible="false"
       use_knot_distance="true"
       apply_no_radius="true"
       apply_with_radius="true"
       only_selected="false"
       hide_knots="false" />
    <radialGradient
       id="SVGID_4_-0"
       cx="25.828501"
       cy="56.472801"
       r="29.894199"
       gradientTransform="matrix(1,0,0,-1,1.2745567,65.527993)"
       gradientUnits="userSpaceOnUse">
			<stop
   offset="0"
   style="stop-color:#D4FF2A"
   id="stop7-9" />

			<stop
   offset="1"
   style="stop-color:#FF9C00"
   id="stop8-3" />

		</radialGradient>
    <radialGradient
       id="SVGID_3_-6"
       cx="25.0116"
       cy="44.2061"
       r="29.493601"
       gradientTransform="matrix(1,0,0,-1,1.1678076,65.550092)"
       gradientUnits="userSpaceOnUse">
			<stop
   offset="0"
   style="stop-color:#FF9500"
   id="stop5-0" />

			<stop
   offset="1"
   style="stop-color:#FF3FBF"
   id="stop6-6" />

		</radialGradient>
    <radialGradient
       id="SVGID_2_-2"
       cx="28.153099"
       cy="40.426701"
       r="40.0504"
       fx="5.5103002"
       fy="22.8279"
       gradientTransform="matrix(1,0,0,-1,1.0397024,64.144156)"
       gradientUnits="userSpaceOnUse"
       xlink:href="#SVGID_2_-3">
		<stop
   offset="0"
   style="stop-color:#799edc;stop-opacity:1;"
   id="stop3-6" />

		<stop
   offset="1"
   style="stop-color:#1e66b7;stop-opacity:1;"
   id="stop4-1" />

	</radialGradient>
    <radialGradient
       inkscape:collect="always"
       xlink:href="#SVGID_2_"
       id="radialGradient10"
       cx="32.9897"
       cy="26.244156"
       fx="32.9897"
       fy="26.244156"
       r="27.950001"
       gradientTransform="matrix(1,0,0,0.75134169,-0.9897022,8.1272958)"
       gradientUnits="userSpaceOnUse" />
    <inkscape:path-effect
       effect="fillet_chamfer"
       id="path-effect21-7"
       is_visible="true"
       lpeversion="1"
       nodesatellites_param="F,0,0,1,0,0,0,1 @ F,0,1,1,0,10.457687,0,1 @ F,0,0,1,0,10.457687,0,1 @ F,0,0,1,0,0,0,1 @ F,0,0,1,0,0,0,1 @ F,0,0,1,0,4.0428666,0,1 @ F,0,0,1,0,4.0428666,0,1 @ F,0,0,1,0,0,0,1 @ F,0,0,1,0,0,0,1"
       radius="0"
       unit="px"
       method="auto"
       mode="F"
       chamfer_steps="1"
       flexible="false"
       use_knot_distance="true"
       apply_no_radius="true"
       apply_with_radius="true"
       only_selected="false"
       hide_knots="false" />
    <radialGradient
       inkscape:collect="always"
       xlink:href="#SVGID_4_"
       id="radialGradient13"
       cx="29.61824"
       cy="56.434834"
       fx="29.61824"
       fy="56.434834"
       r="15.777873"
       gradientTransform="matrix(4.3748487,0,0,1.0937123,-108.12961,-4.941766)"
       gradientUnits="userSpaceOnUse" />
    <radialGradient
       id="SVGID_6_-22"
       cx="32"
       cy="28"
       r="41.077301"
       fx="13.6072"
       fy="13.488"
       gradientTransform="matrix(1,0,0,-1,0,66)"
       gradientUnits="userSpaceOnUse">
      <stop
         offset="0"
         style="stop-color:#e6b321;stop-opacity:1;"
         id="stop11-8" />
      <stop
         offset="1"
         style="stop-color:#ff7000;stop-opacity:1;"
         id="stop12-9" />
    </radialGradient>
    <radialGradient
       id="SVGID_2_-36"
       cx="28.153099"
       cy="40.426701"
       r="40.0504"
       fx="5.5103002"
       fy="22.8279"
       gradientTransform="matrix(1,0,0,-1,-2.5943204,51.824163)"
       gradientUnits="userSpaceOnUse"
       fr="0"
       spreadMethod="pad">
      <stop
         offset="0"
         style="stop-color:#76643c;stop-opacity:1;"
         id="stop3-1" />
      <stop
         offset="1"
         style="stop-color:#ca7810;stop-opacity:1;"
         id="stop4-2" />
    </radialGradient>
    <radialGradient
       id="SVGID_2_-9"
       cx="28.153099"
       cy="40.426701"
       r="40.0504"
       fx="5.5103002"
       fy="22.8279"
       gradientTransform="matrix(1,0,0,-1,-2.5943204,51.824163)"
       gradientUnits="userSpaceOnUse"
       fr="0"
       spreadMethod="pad">
      <stop
         offset="0"
         style="stop-color:#76643c;stop-opacity:1;"
         id="stop3-4" />
      <stop
         offset="1"
         style="stop-color:#ca7810;stop-opacity:1;"
         id="stop4-7" />
    </radialGradient>
    <radialGradient
       id="SVGID_6_-4"
       cx="32"
       cy="28"
       r="41.077301"
       fx="13.6072"
       fy="13.488"
       gradientTransform="matrix(1,0,0,-1,0,66)"
       gradientUnits="userSpaceOnUse">
      <stop
         offset="0"
         style="stop-color:#e6b321;stop-opacity:1;"
         id="stop11-5" />
      <stop
         offset="1"
         style="stop-color:#ff7000;stop-opacity:1;"
         id="stop12-0" />
    </radialGradient>
    <inkscape:path-effect
       effect="fillet_chamfer"
       id="path-effect15-3"
       is_visible="true"
       lpeversion="1"
       nodesatellites_param="F,0,0,1,0,0,0,1 @ F,0,0,1,0,0,0,1 @ F,0,0,1,0,0,0,1 @ F,0,0,1,0,0,0,1 @ F,0,0,1,0,0,0,1 @ F,0,0,1,0,0,0,1 @ F,0,0,1,0,0,0,1 @ F,0,0,1,0,0,0,1 @ F,0,1,1,0,2.8854661,0,1 @ F,0,0,1,0,2.8854661,0,1"
       radius="0"
       unit="px"
       method="auto"
       mode="F"
       chamfer_steps="1"
       flexible="false"
       use_knot_distance="true"
       apply_no_radius="true"
       apply_with_radius="true"
       only_selected="false"
       hide_knots="false" />
    <inkscape:path-effect
       effect="fillet_chamfer"
       id="path-effect21-6"
       is_visible="true"
       lpeversion="1"
       nodesatellites_param="F,0,0,1,0,0,0,1 @ F,0,1,1,0,10.457687,0,1 @ F,0,0,1,0,10.457687,0,1 @ F,0,0,1,0,0,0,1 @ F,0,0,1,0,0,0,1 @ F,0,0,1,0,4.0428666,0,1 @ F,0,0,1,0,4.0428666,0,1 @ F,0,0,1,0,0,0,1 @ F,0,0,1,0,0,0,1"
       radius="0"
       unit="px"
       method="auto"
       mode="F"
       chamfer_steps="1"
       flexible="false"
       use_knot_distance="true"
       apply_no_radius="true"
       apply_with_radius="true"
       only_selected="false"
       hide_knots="false" />
    <filter
       inkscape:collect="always"
       style="color-interpolation-filters:sRGB"
       id="filter20"
       x="-0.034647867"
       y="-0.038030257"
       width="1.0692957"
       height="1.0760605">
      <feGaussianBlur
         inkscape:collect="always"
         stdDeviation="0.81126996"
         id="feGaussianBlur20" />
    </filter>
    <radialGradient
       inkscape:collect="always"
       xlink:href="#linearGradient20"
       id="radialGradient21"
       cx="9.439189"
       cy="14.995531"
       fx="9.439189"
       fy="14.995531"
       r="7.5357413"
       gradientTransform="matrix(2.262471,0,0,1.643159,-13.43975,-9.7654883)"
       gradientUnits="userSpaceOnUse" />
    <filter
       inkscape:collect="always"
       style="color-interpolation-filters:sRGB"
       id="filter21"
       x="-0.10616258"
       y="-0.39630974"
       width="1.2123252"
       height="1.7926195">
      <feGaussianBlur
         inkscape:collect="always"
         stdDeviation="0.7879133"
         id="feGaussianBlur21" />
    </filter>
    <radialGradient
       inkscape:collect="always"
       xlink:href="#linearGradient22"
       id="radialGradient23"
       cx="9.8888826"
       cy="12.867253"
       fx="9.8888826"
       fy="12.867253"
       r="1.6089088"
       gradientUnits="userSpaceOnUse"
       gradientTransform="matrix(1.9023776,0,0,1.9023778,-9.246027,-11.31151)" />
    <filter
       inkscape:collect="always"
       style="color-interpolation-filters:sRGB"
       id="filter23"
       x="-0.16747015"
       y="-0.16747015"
       width="1.3349403"
       height="1.3349403">
      <feGaussianBlur
         inkscape:collect="always"
         stdDeviation="0.18387101"
         id="feGaussianBlur23" />
    </filter>
  </defs>
  <sodipodi:namedview
     id="namedview15"
     pagecolor="#505050"
     bordercolor="#eeeeee"
     borderopacity="1"
     inkscape:showpageshadow="0"
     inkscape:pageopacity="0"
     inkscape:pagecheckerboard="0"
     inkscape:deskcolor="#505050"
     inkscape:zoom="5.6568543"
     inkscape:cx="38.183766"
     inkscape:cy="42.691572"
     inkscape:window-width="1920"
     inkscape:window-height="1020"
     inkscape:window-x="0"
     inkscape:window-y="0"
     inkscape:window-maximized="1"
     inkscape:current-layer="svg15" />
  <path
     class="st1"
     d="m 11.65,48.845624 h 40.7 c 4.2,0 7.6,-3.4 7.6,-7.6 v -20.8 c 0,-4.2 -3.4,-7.6 -7.6,-7.6 h -20.3 c -4.2,0 -5.6,-5.9999997 -9.8,-5.9999997 h -10.6 c -4.1999998,0 -7.5999998,3.3999997 -7.5999998,7.5999997 v 26.7 c 0,4.2 3.4,7.7 7.5999998,7.7 z"
     id="path4"
     style="fill:url(#radialGradient10)" />
  <path
     d="M 12.163942,17.902022 C 7.6634607,17.901484 4.0149657,21.549979 4.0155037,26.05046 v 23.645109 c -4.933e-4,4.500462 3.6479757,8.148931 8.1484383,8.148437 H 51.86316 c 4.50048,5.38e-4 8.148975,-3.647957 8.148438,-8.148437 V 20.950885 c 4.94e-4,-4.500463 -3.647975,-8.148932 -8.148438,-8.148438 H 33.145814 a 4.8071863,4.8071863 149.02613 0 0 -4.242433,2.546479 l -0.0035,0.0066 a 4.8071863,4.8071863 149.02613 0 1 -4.242433,2.546479 z"
     style="fill:url(#radialGradient14);stroke-width:0.7;stroke-linecap:round;stroke-linejoin:round"
     id="path19"
     sodipodi:nodetypes="ccccccccccc"
     inkscape:path-effect="#path-effect15"
     inkscape:original-d="M 12.163942,17.902022 C 7.6634607,17.901484 4.0149657,21.549979 4.0155037,26.05046 v 23.645109 c -4.933e-4,4.500462 3.6479757,8.148931 8.1484383,8.148437 H 51.86316 c 4.50048,5.38e-4 8.148975,-3.647957 8.148438,-8.148437 V 20.950885 c 4.94e-4,-4.500463 -3.647975,-8.148932 -8.148438,-8.148438 H 30.260348 l -2.717461,5.099575 z" />
  <rect
     style="opacity:1;fill:url(#radialGradient13);fill-opacity:1;stroke:none;stroke-width:0.4;stroke-linecap:round;stroke-linejoin:round;stroke-miterlimit:4.6;stroke-opacity:1;paint-order:stroke fill markers"
     id="rect10"
     width="31.555746"
     height="7.8889365"
     x="16.261967"
     y="50.002827" />
  <path
     style="fill:url(#radialGradient19);fill-opacity:1;stroke:none;stroke-width:0.514865;stroke-linecap:round;stroke-linejoin:round;stroke-dasharray:none;stroke-opacity:1"
     d="m 49.524514,57.762902 0,-2.019896 A 10.457687,10.457687 45 0 0 39.066827,45.285319 H 23.569137 A 10.457687,10.457687 135 0 0 13.11145,55.743006 l 0,2.019896 h 6.432055 v -1.845815 a 4.0428666,4.0428666 135 0 1 4.042867,-4.042867 l 15.475266,0 a 4.0428666,4.0428666 45 0 1 4.042867,4.042867 v 1.845815 h 6.420009"
     id="path21"
     sodipodi:nodetypes="ccccccccc"
     inkscape:path-effect="#path-effect21"
     inkscape:original-d="M 49.524514,57.762902 V 45.285319 H 13.11145 v 12.477583 h 6.432055 V 51.87422 h 23.561 v 5.888682 h 6.420009"
     transform="translate(0.682018,0.12886306)" />
  <path
     d="m 11.648438,6.7089844 c -4.253942,0 -7.6992458,3.4452766 -7.6992192,7.6992186 v 10.882813 0.0078 h 0.00195 c -0.020271,0.235934 -0.037138,0.473664 -0.037109,0.714844 v 23.644531 c -4.992e-4,4.554493 3.6935559,8.248547 8.2480465,8.248047 h 1.63086 a 0.10001,0.10001 0 0 0 0.09961,-0.09961 V 55.835937 C 13.891867,50.114129 18.528192,45.476921 24.25,45.476562 h 15.498047 c 5.721807,3.59e-4 10.358131,4.637567 10.357422,10.359375 v 1.970704 a 0.10001,0.10001 0 0 0 0.09961,0.09961 h 1.65625 c 4.554511,5.44e-4 8.24859,-3.693536 8.248047,-8.248047 V 20.914062 c 4.4e-5,-0.404236 -0.03952,-0.798801 -0.0957,-1.1875 h 0.002 c -1.86e-4,-0.0021 -0.0018,-0.0037 -0.002,-0.0059 h 0.002 c -6.9e-4,-0.0048 -0.0021,-0.0093 -0.0039,-0.01367 -0.0142,-0.09665 -0.02739,-0.193534 -0.04492,-0.289062 -0.462814,-3.58578 -3.375807,-6.389556 -7.015625,-6.671875 -0.01567,-0.0021 -0.03118,-0.0039 -0.04687,-0.0059 -0.0038,-0.0015 -0.0075,-0.0036 -0.01172,-0.0039 -0.0013,-9.1e-5 -0.0026,9e-5 -0.0039,0 -0.337136,-0.04195 -0.678863,-0.07035 -1.027344,-0.07031 H 33.144531 c -0.212019,2e-5 -0.421975,0.01626 -0.628906,0.04297 h -0.01367 -0.453125 c -2.05237,0 -3.427931,-1.468755 -4.828125,-2.9687496 -1.400192,-1.4999956 -2.825048,-3.03125 -4.972656,-3.03125 z m 0,0.1992187 h 10.599609 c 2.05237,1e-7 3.427931,1.4687545 4.828125,2.96875 1.326209,1.4207389 2.678638,2.8593049 4.642578,3.0078129 -1.053254,0.320574 -1.975538,0.987978 -2.609375,1.908203 -0.08506,0.11985 -0.16257,0.246734 -0.236328,0.376953 -0.01818,0.03232 -0.04109,0.06092 -0.05859,0.09375 v 0.002 l -0.002,0.002 a 0.10001,0.10001 0 0 0 -0.002,0.0039 c -0.715551,1.343071 -2.027725,2.244563 -3.509766,2.449219 -0.211721,0.02924 -0.427131,0.0449 -0.644531,0.04492 H 12.162109 c -0.265472,-3.4e-5 -0.526919,0.01423 -0.785156,0.03906 -0.125346,0.01183 -0.247442,0.0334 -0.371094,0.05078 -0.129565,0.01859 -0.259355,0.03588 -0.386718,0.06055 -0.168522,0.03193 -0.333318,0.07322 -0.498047,0.115234 -0.06422,0.01677 -0.1298017,0.03052 -0.1933596,0.04883 -2.8605245,0.804223 -5.08546,3.108698 -5.7792969,6.013672 V 14.408203 C 4.1484116,10.262187 7.5024202,6.9082031 11.648438,6.9082031 Z m 21.496093,5.9570309 h 18.716797 c 0.342332,-3.7e-5 0.67674,0.02889 1.007813,0.07031 0.0013,1.6e-4 0.0026,-1.61e-4 0.0039,0 0.653029,0.0819 1.280801,0.24424 1.875,0.472656 0.01724,0.0066 0.03556,0.01084 0.05273,0.01758 0.0054,0.0021 0.01025,0.0057 0.01563,0.0078 0.184134,0.07272 0.36387,0.152658 0.541016,0.238281 0.01284,0.0062 0.02627,0.01131 0.03906,0.01758 0.0078,0.0038 0.01562,0.0079 0.02344,0.01172 0.180398,0.08912 0.356898,0.185162 0.529297,0.287109 0.0058,0.0034 0.01183,0.0063 0.01758,0.0098 0.01134,0.0067 0.02189,0.01468 0.0332,0.02148 0.173437,0.104311 0.34325,0.213364 0.507812,0.330078 0.522534,0.3706 1.00031,0.801063 1.419922,1.283204 0.0027,0.0031 0.0051,0.0066 0.0078,0.0098 0,0 0.002,0.002 0.002,0.002 0.128385,0.148078 0.249751,0.303652 0.367187,0.460938 0.01807,0.02417 0.03689,0.04788 0.05469,0.07227 0.112541,0.154322 0.218767,0.312214 0.320312,0.47461 0.01429,0.02282 0.0289,0.04538 0.04297,0.06836 0.553681,0.905598 0.934266,1.929133 1.09375,3.025391 0,0 0,0.002 0,0.002 0.0555,0.381759 0.09379,0.768828 0.09375,1.166015 v 28.744141 c 5.31e-4,4.446406 -3.602422,8.04936 -8.048828,8.048828 h -1.556641 v -1.871094 c 7.23e-4,-5.8299 -4.72674,-10.558228 -10.55664,-10.558593 H 24.25 c -5.8299,3.65e-4 -10.557364,4.728693 -10.556641,10.558593 v 1.871094 h -1.53125 C 7.7157222,57.707519 4.1127941,54.104592 4.1132812,49.658203 V 26.013672 c -2.84e-5,-0.238953 0.014799,-0.47338 0.035156,-0.707031 0,0 0,-0.002 0,-0.002 0.019984,-0.229357 0.053011,-0.454297 0.091797,-0.677734 0.00562,-0.03231 0.00963,-0.06548 0.015625,-0.09766 0.035746,-0.191911 0.081773,-0.37955 0.1308593,-0.566406 0.017422,-0.06627 0.031723,-0.133632 0.050781,-0.199219 0.050375,-0.173506 0.1103621,-0.343267 0.171875,-0.511719 0.026285,-0.07188 0.051818,-0.143938 0.080078,-0.214844 0.061236,-0.15386 0.128943,-0.304109 0.1992188,-0.453125 0.037294,-0.07897 0.073519,-0.158793 0.1132812,-0.236328 0.076714,-0.149768 0.160456,-0.295314 0.2460938,-0.439453 0.043228,-0.07266 0.085431,-0.145638 0.1308593,-0.216797 0.084919,-0.133197 0.1751921,-0.26292 0.2675782,-0.390625 0.054289,-0.07494 0.1092375,-0.149696 0.1660156,-0.222656 0.09318,-0.119889 0.189386,-0.237229 0.2890625,-0.351563 0.073157,-0.0838 0.1480881,-0.165404 0.2246094,-0.246093 0.087712,-0.09261 0.1775436,-0.183131 0.2695312,-0.271485 0.090919,-0.0872 0.1843694,-0.171012 0.2792969,-0.253906 0.095507,-0.08352 0.1916015,-0.167101 0.2910156,-0.246094 0.100828,-0.07998 0.2058768,-0.155301 0.3105469,-0.230468 0.095521,-0.06869 0.1904677,-0.136639 0.2890625,-0.201172 0.1080975,-0.07068 0.2184543,-0.13759 0.3300781,-0.203125 0.1087784,-0.06393 0.2181004,-0.128617 0.3300782,-0.1875 0.1223313,-0.06424 0.2490551,-0.121664 0.375,-0.179688 0.1006063,-0.0464 0.1999318,-0.0944 0.3027343,-0.136719 0.1338115,-0.05503 0.2708829,-0.102481 0.4082032,-0.15039 0.1053863,-0.0368 0.2090653,-0.07689 0.3164062,-0.109375 0.1555596,-0.04703 0.315225,-0.08338 0.474609,-0.121094 0.09129,-0.02163 0.180965,-0.04792 0.273438,-0.06641 0.169663,-0.03387 0.344243,-0.05705 0.517578,-0.08008 0.09025,-0.01199 0.178357,-0.03009 0.269531,-0.03906 0.26313,-0.02592 0.528863,-0.03909 0.798828,-0.03906 H 24.65625 c 0.906106,-8.1e-5 1.775967,-0.249708 2.525391,-0.699219 0.37471,-0.224755 0.719109,-0.499887 1.023437,-0.818359 0.152773,-0.159874 0.294684,-0.33058 0.425781,-0.511719 0.130317,-0.179997 0.249129,-0.368921 0.355469,-0.568359 a 0.10001,0.10001 0 0 0 0,-0.002 l 0.002,-0.002 0.002,-0.0039 c 0.09861,-0.185093 0.209916,-0.359671 0.330078,-0.527344 0.02663,-0.03715 0.05636,-0.07117 0.08398,-0.107422 0.09294,-0.122013 0.191364,-0.240051 0.294922,-0.351562 0.05148,-0.05536 0.10622,-0.107502 0.160156,-0.160156 0.08634,-0.08439 0.173384,-0.166894 0.265625,-0.244141 0.06917,-0.05786 0.140625,-0.112311 0.212891,-0.166016 0.08367,-0.06227 0.17028,-0.121208 0.257812,-0.177734 0.08016,-0.05166 0.160991,-0.10173 0.244141,-0.148437 0.08945,-0.05035 0.18081,-0.09619 0.273437,-0.140625 0.08595,-0.04115 0.171325,-0.08322 0.259766,-0.119141 0.09687,-0.03942 0.197311,-0.07055 0.296875,-0.103516 0.08958,-0.0296 0.178007,-0.06364 0.269531,-0.08789 0.105751,-0.02805 0.214236,-0.04572 0.322266,-0.06641 0.08933,-0.0171 0.17691,-0.03882 0.267578,-0.05078 0.202397,-0.02667 0.407714,-0.04295 0.615234,-0.04297 z m -8.876953,39.001953 c -2.286933,-5.6e-5 -4.142636,1.855646 -4.142578,4.142579 v 1.796875 a 0.10001,0.10001 0 0 0 0.09961,0.09961 h 23.560547 a 0.10001,0.10001 0 0 0 0.09961,-0.09961 v -1.796875 c 5.8e-5,-2.286933 -1.855646,-4.142635 -4.142579,-4.142579 z m 0,0.199219 h 15.474609 c 2.178841,-5.5e-5 3.943415,1.764518 3.94336,3.94336 v 1.697265 H 20.324219 v -1.697265 c -5.5e-5,-2.178842 1.764518,-3.943415 3.943359,-3.94336 z"
     style="filter:url(#filter20)"
     id="path20" />
  <path
     id="rect20"
     style="opacity:1;fill:url(#radialGradient21);stroke-width:0.1629;stroke-linecap:round;stroke-linejoin:round;stroke-miterlimit:4.6;paint-order:stroke fill markers"
     d="m 10.194682,10.461991 h 11.183343 c 1.133456,0 2.045949,0.912494 2.045949,2.045949 0,1.133456 -0.912493,2.045949 -2.045949,2.045949 H 10.194682 c -1.1334559,0 -2.0459492,-0.912493 -2.0459492,-2.045949 0,-1.133455 0.9124933,-2.045949 2.0459492,-2.045949 z"
     sodipodi:nodetypes="sssssss" />
  <path
     id="rect20-5"
     style="mix-blend-mode:normal;fill:none;stroke:#000000;stroke-width:0.2;stroke-linecap:round;stroke-linejoin:round;stroke-miterlimit:4.6;stroke-opacity:1;paint-order:stroke fill markers;filter:url(#filter21)"
     d="m 10.665464,11 h 13.73035 c 1.3916,0 2.511914,1.120314 2.511914,2.511914 0,1.3916 -1.120314,2.511914 -2.511914,2.511914 h -13.73035 c -1.3915999,0 -2.5119139,-1.120314 -2.5119139,-2.511914 C 8.1535501,12.120314 9.2738641,11 10.665464,11 Z"
     transform="matrix(0.81449807,0,0,0.81449807,1.507682,1.4672163)"
     sodipodi:nodetypes="sssssss" />
  <circle
     style="opacity:1;fill:url(#radialGradient23);fill-opacity:1;stroke:none;stroke-width:0.152056;stroke-linecap:round;stroke-linejoin:round;stroke-miterlimit:4.6;stroke-dasharray:none;stroke-opacity:1;paint-order:stroke fill markers"
     id="path22"
     cx="10.246294"
     cy="12.535227"
     r="1.3548398" />
  <circle
     style="fill:none;fill-opacity:1;stroke:#000000;stroke-width:0.025;stroke-linecap:round;stroke-linejoin:round;stroke-miterlimit:4.6;stroke-dasharray:none;stroke-opacity:1;paint-order:stroke fill markers;filter:url(#filter23)"
     id="path22-5"
     cx="10.250697"
     cy="12.538241"
     r="1.3548398" />
</svg>
