<?xml version="1.0" encoding="UTF-8" standalone="no"?>
<svg
   width="64"
   height="64"
   version="1"
   id="svg10"
   sodipodi:docname="bottles_wine-uninstaller.svg"
   inkscape:version="1.3.2 (091e20ef0f, 2023-11-25, custom)"
   xmlns:inkscape="http://www.inkscape.org/namespaces/inkscape"
   xmlns:sodipodi="http://sodipodi.sourceforge.net/DTD/sodipodi-0.dtd"
   xmlns:xlink="http://www.w3.org/1999/xlink"
   xmlns="http://www.w3.org/2000/svg"
   xmlns:svg="http://www.w3.org/2000/svg">
  <defs
     id="defs10">
    <inkscape:path-effect
       effect="fillet_chamfer"
       id="path-effect12"
       is_visible="true"
       lpeversion="1"
       nodesatellites_param="F,0,0,1,0,0,0,1 @ F,0,0,1,0,0,0,1 @ F,0,1,1,0,0.45141572,0,1 @ F,0,0,1,0,0,0,1 @ F,0,0,1,0,0,0,1 @ F,0,0,1,0,0,0,1 @ F,0,1,1,0,0.45141572,0,1 @ F,0,0,1,0,0,0,1 @ F,0,0,1,0,0,0,1 @ F,0,0,1,0,0,0,1 @ F,0,0,1,0,0.45141572,0,1 @ F,0,0,1,0,0,0,1 @ F,0,0,1,0,0,0,1 @ F,0,0,1,0,0,0,1 @ F,0,1,1,0,0.45141572,0,1 @ F,0,0,1,0,0,0,1"
       radius="0"
       unit="px"
       method="auto"
       mode="F"
       chamfer_steps="1"
       flexible="false"
       use_knot_distance="true"
       apply_no_radius="true"
       apply_with_radius="true"
       only_selected="false"
       hide_knots="false" />
    <inkscape:path-effect
       effect="fillet_chamfer"
       id="path-effect10-3"
       is_visible="true"
       lpeversion="1"
       nodesatellites_param="F,0,0,1,0,0.62715937,0,1 @ F,0,0,1,0,0.87973099,0,1 @ F,0,1,1,0,0.62715937,0,1 @ F,0,0,1,0,0.87973099,0,1 @ F,0,1,1,0,0.62715937,0,1 @ F,0,0,1,0,0.87973099,0,1 @ F,0,1,1,0,0.62715937,0,1 @ F,0,0,1,0,0.87973099,0,1 @ F,0,1,1,0,0.62715937,0,1 @ F,0,0,1,0,0.87973099,0,1"
       radius="0"
       unit="px"
       method="auto"
       mode="F"
       chamfer_steps="1"
       flexible="false"
       use_knot_distance="true"
       apply_no_radius="true"
       apply_with_radius="true"
       only_selected="false"
       hide_knots="false" />
    <filter
       inkscape:collect="always"
       style="color-interpolation-filters:sRGB"
       id="filter16"
       x="-0.13301649"
       y="-0.13301649"
       width="1.266033"
       height="1.266033">
      <feGaussianBlur
         inkscape:collect="always"
         stdDeviation="0.93194511"
         id="feGaussianBlur16" />
    </filter>
    <inkscape:path-effect
       effect="fillet_chamfer"
       id="path-effect10"
       is_visible="true"
       lpeversion="1"
       nodesatellites_param="F,0,0,1,0,0.62715937,0,1 @ F,0,0,1,0,0.87973099,0,1 @ F,0,1,1,0,0.62715937,0,1 @ F,0,0,1,0,0.87973099,0,1 @ F,0,1,1,0,0.62715937,0,1 @ F,0,0,1,0,0.87973099,0,1 @ F,0,1,1,0,0.62715937,0,1 @ F,0,0,1,0,0.87973099,0,1 @ F,0,1,1,0,0.62715937,0,1 @ F,0,0,1,0,0.87973099,0,1"
       radius="0"
       unit="px"
       method="auto"
       mode="F"
       chamfer_steps="1"
       flexible="false"
       use_knot_distance="true"
       apply_no_radius="true"
       apply_with_radius="true"
       only_selected="false"
       hide_knots="false" />
    <radialGradient
       inkscape:collect="always"
       xlink:href="#linearGradient10"
       id="radialGradient13"
       cx="45.875225"
       cy="58.843693"
       fx="45.875225"
       fy="58.843693"
       r="8.888628"
       gradientUnits="userSpaceOnUse"
       gradientTransform="matrix(1.9936757,0,0,1.9936753,-46.400062,-56.522614)" />
    <linearGradient
       id="linearGradient10"
       inkscape:collect="always">
      <stop
         style="stop-color:#faa457;stop-opacity:1;"
         offset="0"
         id="stop10" />
      <stop
         style="stop-color:#fa6257;stop-opacity:1;"
         offset="1"
         id="stop13" />
    </linearGradient>
    <inkscape:path-effect
       effect="fillet_chamfer"
       id="path-effect13"
       is_visible="true"
       lpeversion="1"
       nodesatellites_param="F,0,1,1,0,13.994114,0,1 @ F,0,1,1,0,13.994114,0,1 @ F,0,1,1,0,13.994114,0,1 @ F,0,0,1,0,13.994114,0,1"
       radius="0"
       unit="px"
       method="auto"
       mode="F"
       chamfer_steps="1"
       flexible="false"
       use_knot_distance="true"
       apply_no_radius="true"
       apply_with_radius="true"
       only_selected="false"
       hide_knots="false" />
    <radialGradient
       inkscape:collect="always"
       xlink:href="#linearGradient11"
       id="radialGradient12"
       cx="31.962891"
       cy="31.968748"
       fx="31.962891"
       fy="31.968748"
       r="19.625"
       gradientTransform="matrix(2.0003572,0,0,2.0121027,-31.974309,-32.355658)"
       gradientUnits="userSpaceOnUse" />
    <linearGradient
       id="linearGradient11"
       inkscape:collect="always">
      <stop
         style="stop-color:#00dfff;stop-opacity:1;"
         offset="0"
         id="stop11" />
      <stop
         style="stop-color:#0097ff;stop-opacity:1;"
         offset="1"
         id="stop12" />
    </linearGradient>
    <inkscape:path-effect
       effect="fillet_chamfer"
       id="path-effect11"
       is_visible="true"
       lpeversion="1"
       nodesatellites_param="F,0,1,1,0,5.2536766,0,1 @ F,0,1,1,0,5.2536766,0,1 @ F,0,1,1,0,5.2536766,0,1 @ F,0,1,1,0,5.2536766,0,1 | F,0,1,1,0,5.2536766,0,1 @ F,0,1,1,0,5.2536766,0,1 @ F,0,1,1,0,5.2536766,0,1 @ F,0,1,1,0,5.2536766,0,1 | F,0,1,1,0,5.2536766,0,1 @ F,0,1,1,0,5.2536766,0,1 @ F,0,1,1,0,5.2536766,0,1 @ F,0,1,1,0,5.2536766,0,1 | F,0,1,1,0,5.2536766,0,1 @ F,0,1,1,0,5.2536766,0,1 @ F,0,0,1,0,5.2536766,0,1 @ F,0,1,1,0,5.2536766,0,1"
       radius="0"
       unit="px"
       method="auto"
       mode="F"
       chamfer_steps="1"
       flexible="false"
       use_knot_distance="true"
       apply_no_radius="true"
       apply_with_radius="true"
       only_selected="false"
       hide_knots="false" />
    <filter
       inkscape:collect="always"
       style="color-interpolation-filters:sRGB"
       id="filter14"
       x="-0.10874642"
       y="-0.10874642"
       width="1.2174928"
       height="1.2174928">
      <feGaussianBlur
         inkscape:collect="always"
         stdDeviation="2.4332496"
         id="feGaussianBlur14" />
    </filter>
    <inkscape:path-effect
       effect="fillet_chamfer"
       id="path-effect13-9"
       is_visible="true"
       lpeversion="1"
       nodesatellites_param="F,0,1,1,0,13.994114,0,1 @ F,0,1,1,0,13.994114,0,1 @ F,0,1,1,0,13.994114,0,1 @ F,0,0,1,0,13.994114,0,1"
       radius="0"
       unit="px"
       method="auto"
       mode="F"
       chamfer_steps="1"
       flexible="false"
       use_knot_distance="true"
       apply_no_radius="true"
       apply_with_radius="true"
       only_selected="false"
       hide_knots="false" />
    <filter
       inkscape:collect="always"
       style="color-interpolation-filters:sRGB"
       id="filter13"
       x="-0.09986808"
       y="-0.099285098"
       width="1.1997362"
       height="1.1985702">
      <feGaussianBlur
         inkscape:collect="always"
         stdDeviation="1.5290925"
         id="feGaussianBlur13" />
    </filter>
    <inkscape:path-effect
       effect="fillet_chamfer"
       id="path-effect11-2"
       is_visible="true"
       lpeversion="1"
       nodesatellites_param="F,0,1,1,0,5.2536766,0,1 @ F,0,1,1,0,5.2536766,0,1 @ F,0,1,1,0,5.2536766,0,1 @ F,0,1,1,0,5.2536766,0,1 | F,0,1,1,0,5.2536766,0,1 @ F,0,1,1,0,5.2536766,0,1 @ F,0,1,1,0,5.2536766,0,1 @ F,0,1,1,0,5.2536766,0,1 | F,0,1,1,0,5.2536766,0,1 @ F,0,1,1,0,5.2536766,0,1 @ F,0,1,1,0,5.2536766,0,1 @ F,0,1,1,0,5.2536766,0,1 | F,0,1,1,0,5.2536766,0,1 @ F,0,1,1,0,5.2536766,0,1 @ F,0,0,1,0,5.2536766,0,1 @ F,0,1,1,0,5.2536766,0,1"
       radius="0"
       unit="px"
       method="auto"
       mode="F"
       chamfer_steps="1"
       flexible="false"
       use_knot_distance="true"
       apply_no_radius="true"
       apply_with_radius="true"
       only_selected="false"
       hide_knots="false" />
    <inkscape:path-effect
       effect="fillet_chamfer"
       id="path-effect12-6"
       is_visible="true"
       lpeversion="1"
       nodesatellites_param="F,0,0,1,0,0,0,1 @ F,0,0,1,0,0,0,1 @ F,0,1,1,0,0.45141572,0,1 @ F,0,0,1,0,0,0,1 @ F,0,0,1,0,0,0,1 @ F,0,0,1,0,0,0,1 @ F,0,1,1,0,0.45141572,0,1 @ F,0,0,1,0,0,0,1 @ F,0,0,1,0,0,0,1 @ F,0,0,1,0,0,0,1 @ F,0,0,1,0,0.45141572,0,1 @ F,0,0,1,0,0,0,1 @ F,0,0,1,0,0,0,1 @ F,0,0,1,0,0,0,1 @ F,0,1,1,0,0.45141572,0,1 @ F,0,0,1,0,0,0,1"
       radius="0"
       unit="px"
       method="auto"
       mode="F"
       chamfer_steps="1"
       flexible="false"
       use_knot_distance="true"
       apply_no_radius="true"
       apply_with_radius="true"
       only_selected="false"
       hide_knots="false" />
    <filter
       inkscape:collect="always"
       style="color-interpolation-filters:sRGB"
       id="filter12"
       x="-0.10145272"
       y="-0.10145272"
       width="1.2029054"
       height="1.2029054">
      <feGaussianBlur
         inkscape:collect="always"
         stdDeviation="0.33987917"
         id="feGaussianBlur12" />
    </filter>
  </defs>
  <sodipodi:namedview
     id="namedview10"
     pagecolor="#505050"
     bordercolor="#eeeeee"
     borderopacity="1"
     inkscape:showpageshadow="0"
     inkscape:pageopacity="0"
     inkscape:pagecheckerboard="0"
     inkscape:deskcolor="#505050"
     inkscape:zoom="6.5"
     inkscape:cx="26.769231"
     inkscape:cy="30.846154"
     inkscape:window-width="1920"
     inkscape:window-height="1020"
     inkscape:window-x="0"
     inkscape:window-y="0"
     inkscape:window-maximized="1"
     inkscape:current-layer="svg10" />
  <path
     id="rect1"
     d="M 17.994114,4.0114961 H 46.005886 A 13.994114,13.994114 45 0 1 60,18.00561 V 46.017382 A 13.994114,13.994114 135 0 1 46.005886,60.011496 H 17.994114 A 13.994114,13.994114 45 0 1 4,46.017382 V 18.00561 A 13.994114,13.994114 135 0 1 17.994114,4.0114961 Z"
     style="fill:#393939;fill-opacity:1"
     inkscape:path-effect="#path-effect13"
     inkscape:original-d="M 4,4.0114961 H 60 V 60.011496 H 4 Z"
     transform="matrix(0.94077205,0,0,0.94077205,2.0557515,2.102711)" />
  <path
     id="rect1-3"
     style="fill:url(#radialGradient12);stroke-width:0.329007"
     d="m 12.509766,17.482193 0,7.918427 a 5.2536766,5.2536766 45 0 0 5.253677,5.253677 h 7.916474 a 5.2536766,5.2536766 135 0 0 5.253677,-5.253677 v -7.918427 a 5.2536766,5.2536766 45 0 0 -5.253677,-5.253677 h -7.916474 a 5.2536766,5.2536766 135 0 0 -5.253677,5.253677 z m 20.652343,0.04687 v 7.918432 a 5.2536766,5.2536766 45 0 0 5.253677,5.253677 h 7.918428 a 5.2536766,5.2536766 135 0 0 5.253677,-5.253677 V 17.529068 A 5.253678,5.253678 45.000008 0 0 46.334214,12.27539 l -7.918428,-3e-6 a 5.2536752,5.2536752 135.00001 0 0 -5.253677,5.253676 z M 12.337891,38.47438 v 7.916474 a 5.2536766,5.2536766 45 0 0 5.253677,5.253677 h 7.916474 a 5.2536766,5.2536766 135 0 0 5.253677,-5.253677 V 38.47438 a 5.2536766,5.2536766 45 0 0 -5.253677,-5.253677 h -7.916474 a 5.2536766,5.2536766 135 0 0 -5.253677,5.253677 z m 20.824218,0.06445 v 7.916477 a 5.2536766,5.2536766 45 0 0 5.253677,5.253677 h 7.918428 a 5.2536766,5.2536766 135 0 0 5.253677,-5.253677 v -7.916474 a 5.2536775,5.2536775 45.000005 0 0 -5.253677,-5.253678 l -7.918428,-1e-6 a 5.2536757,5.2536757 135 0 0 -5.253677,5.253676 z"
     inkscape:path-effect="#path-effect11"
     inkscape:original-d="M 12.509766,12.228516 V 30.654297 H 30.933594 V 12.228516 Z m 20.652343,0.04687 V 30.701172 H 51.587891 V 12.275391 Z M 12.337891,33.220703 V 51.644531 H 30.761719 V 33.220703 Z m 20.824218,0.06445 V 51.708984 H 51.587891 V 33.285156 Z"
     transform="matrix(0.94077205,0,0,0.94077205,2.0557515,2.1135264)" />
  <path
     id="rect1-1"
     d="M 17.994114,4.0114961 H 46.005886 A 13.994114,13.994114 45 0 1 60,18.00561 V 46.017382 A 13.994114,13.994114 135 0 1 46.005886,60.011496 H 17.994114 A 13.994114,13.994114 45 0 1 4,46.017382 V 18.00561 A 13.994114,13.994114 135 0 1 17.994114,4.0114961 Z"
     style="mix-blend-mode:normal;fill:none;fill-opacity:1;stroke:#000000;stroke-width:0.5;stroke-dasharray:none;stroke-opacity:1;filter:url(#filter14)"
     inkscape:path-effect="#path-effect13-9"
     inkscape:original-d="M 4,4.0114961 H 60 V 60.011496 H 4 Z"
     transform="matrix(0.94077205,0,0,0.94077205,2.0557515,2.0918959)" />
  <path
     id="rect1-3-2"
     style="mix-blend-mode:normal;fill:none;stroke:#000000;stroke-width:0.5;stroke-dasharray:none;stroke-opacity:1;filter:url(#filter13)"
     d="m 12.509766,17.482193 0,7.918427 a 5.2536766,5.2536766 45 0 0 5.253677,5.253677 h 7.916474 a 5.2536766,5.2536766 135 0 0 5.253677,-5.253677 v -7.918427 a 5.2536766,5.2536766 45 0 0 -5.253677,-5.253677 h -7.916474 a 5.2536766,5.2536766 135 0 0 -5.253677,5.253677 z m 20.652343,0.04687 v 7.918432 a 5.2536766,5.2536766 45 0 0 5.253677,5.253677 h 7.918428 a 5.2536766,5.2536766 135 0 0 5.253677,-5.253677 V 17.529068 A 5.253678,5.253678 45.000008 0 0 46.334214,12.27539 l -7.918428,-3e-6 a 5.2536752,5.2536752 135.00001 0 0 -5.253677,5.253676 z M 12.337891,38.47438 v 7.916474 a 5.2536766,5.2536766 45 0 0 5.253677,5.253677 h 7.916474 a 5.2536766,5.2536766 135 0 0 5.253677,-5.253677 V 38.47438 a 5.2536766,5.2536766 45 0 0 -5.253677,-5.253677 h -7.916474 a 5.2536766,5.2536766 135 0 0 -5.253677,5.253677 z m 20.824218,0.06445 v 7.916477 a 5.2536766,5.2536766 45 0 0 5.253677,5.253677 h 7.918428 a 5.2536766,5.2536766 135 0 0 5.253677,-5.253677 v -7.916474 a 5.2536775,5.2536775 45.000005 0 0 -5.253677,-5.253678 l -7.918428,-1e-6 a 5.2536757,5.2536757 135 0 0 -5.253677,5.253676 z"
     inkscape:path-effect="#path-effect11-2"
     inkscape:original-d="M 12.509766,12.228516 V 30.654297 H 30.933594 V 12.228516 Z m 20.652343,0.04687 V 30.701172 H 51.587891 V 12.275391 Z M 12.337891,33.220703 V 51.644531 H 30.761719 V 33.220703 Z m 20.824218,0.06445 V 51.708984 H 51.587891 V 33.285156 Z"
     transform="matrix(0.94077205,0,0,0.94077205,2.0906626,2.1321102)" />
  <circle
     style="fill:url(#radialGradient13);stroke-width:0.555539"
     cx="52.994862"
     cy="53.019897"
     r="8.888628"
     id="circle8" />
  <circle
     style="fill:none;stroke:#000000;stroke-width:0.256;stroke-dasharray:none;stroke-opacity:1;filter:url(#filter16)"
     cx="52.914856"
     cy="52.946747"
     r="8.888628"
     id="circle8-5" />
  <path
     style="fill:#ffffff;stroke-width:0.547416"
     d="m 56.961998,49.05383 c -0.378166,-0.378166 -0.987068,-0.378166 -1.365256,0 l -2.411313,2.411313 a 0.45141572,0.45141572 0 0 1 -0.638398,0 L 50.135718,49.05383 c -0.378166,-0.378166 -0.987068,-0.378166 -1.365256,0 -0.378166,0.378166 -0.378166,0.987068 0,1.365256 l 2.411313,2.411313 a 0.45141572,0.45141572 90 0 1 0,0.638398 l -2.411313,2.411313 c -0.378166,0.378166 -0.378166,0.987068 0,1.365256 0.378166,0.378166 0.987068,0.378166 1.365256,0 l 2.411313,-2.411313 a 0.45141572,0.45141572 0 0 1 0.638398,0 l 2.411313,2.411313 c 0.378166,0.378166 0.987068,0.378166 1.365256,0 0.378166,-0.378166 0.378166,-0.987068 0,-1.365256 l -2.411313,-2.411313 a 0.45141572,0.45141572 90 0 1 0,-0.638398 l 2.411313,-2.411313 c 0.378166,-0.378166 0.378166,-0.987068 0,-1.365256 z"
     id="path9"
     inkscape:path-effect="#path-effect12"
     inkscape:original-d="m 56.961998,49.05383 c -0.378166,-0.378166 -0.987068,-0.378166 -1.365256,0 L 52.86623,51.784342 50.135718,49.05383 c -0.378166,-0.378166 -0.987068,-0.378166 -1.365256,0 -0.378166,0.378166 -0.378166,0.987068 0,1.365256 l 2.730512,2.730512 -2.730512,2.730512 c -0.378166,0.378166 -0.378166,0.987068 0,1.365256 0.378166,0.378166 0.987068,0.378166 1.365256,0 l 2.730512,-2.730512 2.730512,2.730512 c 0.378166,0.378166 0.987068,0.378166 1.365256,0 0.378166,-0.378166 0.378166,-0.987068 0,-1.365256 l -2.730512,-2.730512 2.730512,-2.730512 c 0.378166,-0.378166 0.378166,-0.987068 0,-1.365256 z"
     transform="translate(0,-0.01203621)" />
  <path
     style="fill:none;stroke-width:0.14699998;stroke:#ff0000;stroke-opacity:1;stroke-dasharray:none;filter:url(#filter12)"
     d="m 56.961998,49.05383 c -0.378166,-0.378166 -0.987068,-0.378166 -1.365256,0 l -2.411313,2.411313 a 0.45141572,0.45141572 0 0 1 -0.638398,0 L 50.135718,49.05383 c -0.378166,-0.378166 -0.987068,-0.378166 -1.365256,0 -0.378166,0.378166 -0.378166,0.987068 0,1.365256 l 2.411313,2.411313 a 0.45141572,0.45141572 90 0 1 0,0.638398 l -2.411313,2.411313 c -0.378166,0.378166 -0.378166,0.987068 0,1.365256 0.378166,0.378166 0.987068,0.378166 1.365256,0 l 2.411313,-2.411313 a 0.45141572,0.45141572 0 0 1 0.638398,0 l 2.411313,2.411313 c 0.378166,0.378166 0.987068,0.378166 1.365256,0 0.378166,-0.378166 0.378166,-0.987068 0,-1.365256 l -2.411313,-2.411313 a 0.45141572,0.45141572 90 0 1 0,-0.638398 l 2.411313,-2.411313 c 0.378166,-0.378166 0.378166,-0.987068 0,-1.365256 z"
     id="path9-7"
     inkscape:path-effect="#path-effect12-6"
     inkscape:original-d="m 56.961998,49.05383 c -0.378166,-0.378166 -0.987068,-0.378166 -1.365256,0 L 52.86623,51.784342 50.135718,49.05383 c -0.378166,-0.378166 -0.987068,-0.378166 -1.365256,0 -0.378166,0.378166 -0.378166,0.987068 0,1.365256 l 2.730512,2.730512 -2.730512,2.730512 c -0.378166,0.378166 -0.378166,0.987068 0,1.365256 0.378166,0.378166 0.987068,0.378166 1.365256,0 l 2.730512,-2.730512 2.730512,2.730512 c 0.378166,0.378166 0.987068,0.378166 1.365256,0 0.378166,-0.378166 0.378166,-0.987068 0,-1.365256 l -2.730512,-2.730512 2.730512,-2.730512 c 0.378166,-0.378166 0.378166,-0.987068 0,-1.365256 z"
     transform="translate(-0.01152994,-0.00157566)" />
</svg>
