<?xml version="1.0" encoding="UTF-8" standalone="no"?>
<svg
   width="64"
   height="64"
   version="1"
   id="svg10"
   sodipodi:docname="woeusbgui-icon.svg"
   inkscape:version="1.3.2 (091e20ef0f, 2023-11-25, custom)"
   xmlns:inkscape="http://www.inkscape.org/namespaces/inkscape"
   xmlns:sodipodi="http://sodipodi.sourceforge.net/DTD/sodipodi-0.dtd"
   xmlns:xlink="http://www.w3.org/1999/xlink"
   xmlns="http://www.w3.org/2000/svg"
   xmlns:svg="http://www.w3.org/2000/svg">
  <defs
     id="defs10">
    <radialGradient
       inkscape:collect="always"
       xlink:href="#linearGradient7"
       id="radialGradient8"
       cx="31.468199"
       cy="34.686081"
       fx="31.468199"
       fy="34.686081"
       r="20"
       gradientTransform="matrix(1.6833155,-1.6456476,0.93779953,0.95926518,-56.031298,43.855457)"
       gradientUnits="userSpaceOnUse" />
    <linearGradient
       id="linearGradient7"
       inkscape:collect="always">
      <stop
         style="stop-color:#e1e1e1;stop-opacity:1;"
         offset="0"
         id="stop7" />
      <stop
         style="stop-color:#9b9b9b;stop-opacity:1;"
         offset="1"
         id="stop8" />
    </linearGradient>
    <radialGradient
       inkscape:collect="always"
       xlink:href="#linearGradient8"
       id="radialGradient10"
       cx="9.6674023"
       cy="56.387177"
       fx="9.6674023"
       fy="56.387177"
       r="28"
       gradientTransform="matrix(2.3307489,-0.10075402,0.06713998,1.5531538,-18.65072,-36.261714)"
       gradientUnits="userSpaceOnUse" />
    <linearGradient
       id="linearGradient8"
       inkscape:collect="always">
      <stop
         style="stop-color:#4f4f4f;stop-opacity:1;"
         offset="0"
         id="stop9" />
      <stop
         style="stop-color:#363636;stop-opacity:1;"
         offset="1"
         id="stop10" />
    </linearGradient>
    <radialGradient
       inkscape:collect="always"
       xlink:href="#linearGradient12"
       id="radialGradient14"
       cx="41.835732"
       cy="15.105268"
       fx="41.835732"
       fy="15.105268"
       r="5"
       gradientTransform="matrix(5.8831225,-2.4225104,2.3599688,5.7312389,-240.7499,27.884652)"
       gradientUnits="userSpaceOnUse" />
    <linearGradient
       id="linearGradient12"
       inkscape:collect="always">
      <stop
         style="stop-color:#2f2f2f;stop-opacity:1;"
         offset="0"
         id="stop13" />
      <stop
         style="stop-color:#000000;stop-opacity:1;"
         offset="1"
         id="stop14" />
    </linearGradient>
    <radialGradient
       inkscape:collect="always"
       xlink:href="#linearGradient12"
       id="radialGradient14-6"
       cx="41.835732"
       cy="15.105268"
       fx="41.835732"
       fy="15.105268"
       r="5"
       gradientTransform="matrix(5.8831225,-2.4225104,2.3599688,5.7312389,-262.36405,27.884652)"
       gradientUnits="userSpaceOnUse" />
    <filter
       inkscape:collect="always"
       style="color-interpolation-filters:sRGB"
       id="filter10"
       x="-0.025602717"
       y="-0.37414941"
       width="1.0512054"
       height="1.7482988">
      <feGaussianBlur
         inkscape:collect="always"
         stdDeviation="0.59739672"
         id="feGaussianBlur10" />
    </filter>
    <filter
       inkscape:collect="always"
       style="color-interpolation-filters:sRGB"
       id="filter11"
       x="-0.035054936"
       y="-0.067985331"
       width="1.0701099"
       height="1.1359707">
      <feGaussianBlur
         inkscape:collect="always"
         stdDeviation="0.46739914"
         id="feGaussianBlur11" />
    </filter>
  </defs>
  <sodipodi:namedview
     id="namedview10"
     pagecolor="#ffffff"
     bordercolor="#000000"
     borderopacity="0.25"
     inkscape:showpageshadow="2"
     inkscape:pageopacity="0.0"
     inkscape:pagecheckerboard="0"
     inkscape:deskcolor="#d1d1d1"
     inkscape:zoom="12.6875"
     inkscape:cx="32"
     inkscape:cy="32"
     inkscape:window-width="1920"
     inkscape:window-height="1020"
     inkscape:window-x="0"
     inkscape:window-y="0"
     inkscape:window-maximized="1"
     inkscape:current-layer="svg10" />
  <g
     id="g11"
     transform="translate(-1.5)">
    <g
       id="g2"
       transform="translate(2.433752,-1)">
      <path
         style="fill:url(#radialGradient8)"
         d="M 10,6 H 50 V 26 H 10 Z"
         id="path1" />
      <rect
         style="fill:url(#radialGradient10)"
         width="56"
         height="34"
         x="2"
         y="24"
         rx="2.8"
         ry="2.8340001"
         id="rect1" />
      <rect
         width="32"
         height="4"
         x="14"
         y="32"
         id="rect2"
         style="opacity:0.4;stroke-width:2" />
      <rect
         width="24"
         height="4"
         x="18"
         y="40"
         id="rect3"
         style="opacity:0.4;stroke-width:2" />
      <rect
         width="16"
         height="4"
         x="22"
         y="48"
         id="rect4"
         style="opacity:0.4;stroke-width:2" />
      <rect
         style="opacity:1;fill:url(#radialGradient14)"
         width="10"
         height="6"
         x="36"
         y="10"
         id="rect7"
         ry="1.4617758"
         rx="1.0482268" />
      <rect
         style="opacity:1;fill:url(#radialGradient14-6)"
         width="10"
         height="6"
         x="14.385847"
         y="10"
         id="rect7-3"
         ry="1.4617758"
         rx="1.0482268" />
      <path
         style="opacity:0.386824;filter:url(#filter10)"
         d="m 2.0000001,55.167969 v 1 c 0,1.57 1.2496033,2.832031 2.8007812,2.832031 H 55.199219 C 56.749197,59 58,57.737969 58,56.167969 v -1 C 58,56.737969 56.749197,58 55.199219,58 H 4.8007813 C 3.2496036,58 2.0000003,56.737969 2.0000001,55.167969 Z"
         id="path4" />
    </g>
    <g
       transform="translate(1,-1)"
       id="g10">
      <circle
         style="fill:#48aeff"
         cx="47"
         cy="47"
         r="16"
         id="circle6" />
      <path
         style="opacity:0.40135827;filter:url(#filter11)"
         d="M 31.02539,47.5 A 16,16.001894 0 0 0 31,47.998106 16,16.001894 0 0 0 47,64 16,16.001894 0 0 0 63,47.998106 16,16.001894 0 0 0 62.98242,47.50586 16,16.001894 0 0 1 46.999998,62.999882 16,16.001894 0 0 1 31.02539,47.5 Z"
         id="path6" />
      <path
         style="fill:#ffffff"
         d="m 39.50022,39.00021 h 5.99998 c 0.2765,0 0.4998,0.22302 0.4998,0.50001 V 45.5002 C 46,45.7767 45.7767,46 45.5002,46 H 39.50001 C 39.22302,46 39,45.7767 39,45.5002 V 39.50001 C 39,39.22302 39.22302,39 39.50001,39 Z"
         id="path7" />
      <path
         style="fill:#ffffff"
         d="m 48.49978,39 h 5.99974 C 54.77671,39 55,39.223027 55,39.500025 v 6.000159 C 55,45.776693 54.77671,46 54.50022,46 H 48.500481 C 48.223291,46 48,45.776693 48,45.500184 v -6.000159 c 0,-0.277006 0.22299,-0.500018 0.499983,-0.500018 z"
         id="path8" />
      <path
         style="fill:#ffffff"
         d="m 39.50022,48.000209 h 5.99998 c 0.2765,0 0.4998,0.223021 0.4998,0.50001 V 54.5002 c 0,0.276499 -0.2233,0.499799 -0.4998,0.499799 H 39.50001 C 39.22302,54.999999 39,54.776699 39,54.5002 v -6.000191 c 0,-0.27699 0.22302,-0.50001 0.50001,-0.50001 z"
         id="path9" />
      <path
         style="fill:#ffffff"
         d="m 48.49978,47.999999 h 5.99974 c 0.27719,0 0.50048,0.223027 0.50048,0.500026 v 6.000159 c 0,0.276509 -0.22329,0.499815 -0.49978,0.499815 H 48.500481 C 48.223291,54.999999 48,54.776693 48,54.500184 v -6.000159 c 0,-0.277006 0.22299,-0.500018 0.499983,-0.500018 z"
         id="path10" />
    </g>
  </g>
</svg>
