<?xml version="1.0" encoding="UTF-8" standalone="no"?>
<svg
   width="64"
   height="64"
   version="1"
   id="svg5"
   sodipodi:docname="xt7-player-mpv.svg"
   inkscape:version="1.4 (e7c3feb100, 2024-10-09)"
   xmlns:inkscape="http://www.inkscape.org/namespaces/inkscape"
   xmlns:sodipodi="http://sodipodi.sourceforge.net/DTD/sodipodi-0.dtd"
   xmlns:xlink="http://www.w3.org/1999/xlink"
   xmlns="http://www.w3.org/2000/svg"
   xmlns:svg="http://www.w3.org/2000/svg">
  <defs
     id="defs5">
    <filter
       inkscape:collect="always"
       style="color-interpolation-filters:sRGB"
       id="filter7"
       x="-0.16383565"
       y="-0.15591676"
       width="1.3276713"
       height="1.3118373">
      <feGaussianBlur
         inkscape:collect="always"
         stdDeviation="3.1195823"
         id="feGaussianBlur7" />
    </filter>
    <radialGradient
       inkscape:collect="always"
       xlink:href="#linearGradient12"
       id="radialGradient9-6"
       cx="34.448208"
       cy="13.722373"
       fx="34.448208"
       fy="13.722373"
       r="14.663306"
       gradientTransform="matrix(-1.8550731,3.2130809,-3.480713,-2.0095906,158.99169,-69.547082)"
       gradientUnits="userSpaceOnUse" />
    <linearGradient
       id="linearGradient12"
       inkscape:collect="always">
      <stop
         style="stop-color:#000000;stop-opacity:1;"
         offset="0"
         id="stop11" />
      <stop
         style="stop-color:#ffffff;stop-opacity:1;"
         offset="1"
         id="stop12" />
    </linearGradient>
    <filter
       inkscape:collect="always"
       style="color-interpolation-filters:sRGB"
       id="filter12"
       x="-0.10758113"
       y="-0.099309207"
       width="1.2151623"
       height="1.1986184">
      <feGaussianBlur
         inkscape:collect="always"
         stdDeviation="1.3145793"
         id="feGaussianBlur12" />
    </filter>
    <radialGradient
       inkscape:collect="always"
       xlink:href="#linearGradient6"
       id="radialGradient7"
       cx="11.757886"
       cy="53.963005"
       fx="11.757886"
       fy="53.963005"
       r="18.94824"
       gradientTransform="matrix(3.4879288,0,0,3.6652042,-33.745666,-137.58358)"
       gradientUnits="userSpaceOnUse" />
    <linearGradient
       id="linearGradient6"
       inkscape:collect="always">
      <stop
         style="stop-color:#626262;stop-opacity:1;"
         offset="0"
         id="stop6" />
      <stop
         style="stop-color:#6d6d6d;stop-opacity:1;"
         offset="1"
         id="stop7" />
    </linearGradient>
  </defs>
  <sodipodi:namedview
     id="namedview5"
     pagecolor="#505050"
     bordercolor="#eeeeee"
     borderopacity="1"
     inkscape:showpageshadow="0"
     inkscape:pageopacity="0"
     inkscape:pagecheckerboard="0"
     inkscape:deskcolor="#505050"
     inkscape:zoom="18.671875"
     inkscape:cx="32"
     inkscape:cy="32"
     inkscape:current-layer="svg5" />
  <g
     id="g1">
    <path
       style="opacity:0.2;stroke-width:0.453311"
       d="m 43,37 -8.999999,5 -9,4.999999 -1e-6,-10 1e-6,-9.999999 9,4.999999 z"
       id="path12" />
    <path
       style="fill:#bababa;stroke-width:0.453311"
       d="m 43,36 -8.999999,5 -9,4.999999 -1e-6,-10 1e-6,-9.999999 9,4.999999 z"
       id="path13" />
    <path
       style="fill:url(#radialGradient7);stroke-width:1.22196"
       d="M 20.254171,7.6716323 C 14.276175,7.5455313 8.8454248,12.449015 8.8460614,18.736064 v 26.620509 0.0048 c 0.00672,8.351554 9.5929826,13.550626 16.6276766,9.64916 l 11.98806,-6.653935 11.990446,-6.661094 0.0048,-0.0024 c 3.512904,-1.955239 5.696895,-5.871492 5.696895,-9.649159 0,-3.777667 -2.183991,-7.693919 -5.696895,-9.649158 l -0.0048,-0.0024 -11.990446,-6.658829 -11.97374,-6.6467732 -0.01197,-0.00477 C 23.873974,8.192072 22.097926,7.7157754 20.287541,7.6715199 Z"
       id="path5-36"
       sodipodi:nodetypes="cccsccccsccccccc" />
    <path
       d="m 20.078486,16.115961 a 2.67849,2.5756028 0 0 0 -2.742188,2.576172 v 26.619141 a 2.67849,2.5756028 0 0 0 4.017579,2.228515 l 11.986328,-6.652343 11.984375,-6.65625 a 2.67849,2.5756028 0 0 0 0,-4.460938 L 33.338252,23.115961 21.353877,16.463618 a 2.67849,2.5756028 0 0 0 -1.275391,-0.345704 z"
       style="baseline-shift:baseline;display:inline;overflow:visible;opacity:0.35;vector-effect:none;enable-background:accumulate;stop-color:#000000;stop-opacity:1;fill:#ffffff;fill-opacity:1"
       id="path15" />
    <path
       style="opacity:0.277856;fill:url(#radialGradient9-6);stroke-width:1.22196;filter:url(#filter12)"
       d="m 20.078724,16.116044 a 2.67849,2.5756028 0 0 0 -2.742031,2.575114 v 26.618717 a 2.67849,2.5756028 0 0 0 4.017247,2.230012 L 33.339451,40.886675 45.32496,34.230041 a 2.67849,2.5756028 0 0 0 0,-4.460077 L 33.33774,23.115285 21.352962,16.462072 a 2.67849,2.5756028 0 0 0 -1.275705,-0.34532 z"
       id="path3-1" />
    <path
       id="path5-3"
       style="fill:none;stroke:#000000;stroke-width:0.2;stroke-dasharray:none;stroke-opacity:1;filter:url(#filter7)"
       d="M 20.253909,7.6719991 C 14.275913,7.5458981 8.8450696,12.449401 8.8457056,18.736452 v 26.621094 0.0039 c 0.0067,8.351554 9.5942124,13.549904 16.6289064,9.648438 l 11.986329,-6.652344 11.992187,-6.66211 0.0039,-0.002 c 3.512904,-1.955239 5.697266,-5.87077 5.697266,-9.648437 0,-3.777667 -2.184362,-7.695152 -5.697266,-9.650391 l -0.0039,-0.002 -11.992187,-6.658203 -11.972657,-6.6484374 -0.01172,-0.00391 C 23.874451,8.1922125 22.097497,7.7162546 20.287112,7.6719991 Z m -0.175781,8.4433589 v 0.002 a 2.67849,2.5756028 0 0 1 1.275391,0.345703 l 11.984375,6.652343 11.986328,6.654297 a 2.67849,2.5756028 0 0 1 0,4.460938 l -11.984375,6.65625 -11.986328,6.652343 A 2.67849,2.5756028 0 0 1 17.335941,45.310671 V 18.69153 a 2.67849,2.5756028 0 0 1 2.742187,-2.576172 z" />
  </g>
</svg>
