<?xml version="1.0" encoding="UTF-8" standalone="no"?>
<svg
   width="64"
   height="64"
   version="1.1"
   id="svg3"
   sodipodi:docname="YACReader.svg"
   inkscape:version="1.4 (e7c3feb100, 2024-10-09)"
   xmlns:inkscape="http://www.inkscape.org/namespaces/inkscape"
   xmlns:sodipodi="http://sodipodi.sourceforge.net/DTD/sodipodi-0.dtd"
   xmlns="http://www.w3.org/2000/svg"
   xmlns:svg="http://www.w3.org/2000/svg">
  <defs
     id="defs3">
    <inkscape:path-effect
       effect="fillet_chamfer"
       id="path-effect3"
       is_visible="true"
       lpeversion="1"
       nodesatellites_param="F,0,0,1,0,0,0,1 @ F,0,0,1,0,0,0,1 @ F,0,0,1,0,2.6911275,0,1 @ F,0,0,1,0,0,0,1 @ F,0,0,1,0,0,0,1"
       radius="0"
       unit="px"
       method="auto"
       mode="F"
       chamfer_steps="1"
       flexible="false"
       use_knot_distance="true"
       apply_no_radius="true"
       apply_with_radius="true"
       only_selected="false"
       hide_knots="false" />
    <filter
       inkscape:collect="always"
       style="color-interpolation-filters:sRGB"
       id="filter3"
       x="-0.24917165"
       y="-0.25840023"
       width="1.4983433"
       height="1.5168005">
      <feGaussianBlur
         inkscape:collect="always"
         stdDeviation="4.1691729"
         id="feGaussianBlur3" />
    </filter>
    <inkscape:path-effect
       effect="fillet_chamfer"
       id="path-effect3-7"
       is_visible="true"
       lpeversion="1"
       nodesatellites_param="F,0,0,1,0,0,0,1 @ F,0,0,1,0,0,0,1 @ F,0,0,1,0,2.6911275,0,1 @ F,0,0,1,0,0,0,1 @ F,0,0,1,0,0,0,1"
       radius="0"
       unit="px"
       method="auto"
       mode="F"
       chamfer_steps="1"
       flexible="false"
       use_knot_distance="true"
       apply_no_radius="true"
       apply_with_radius="true"
       only_selected="false"
       hide_knots="false" />
    <filter
       inkscape:collect="always"
       style="color-interpolation-filters:sRGB"
       id="filter4"
       x="-0.15138113"
       y="-0.15859214"
       width="1.3027454"
       height="1.3171736">
      <feGaussianBlur
         inkscape:collect="always"
         stdDeviation="3.052446"
         id="feGaussianBlur4" />
    </filter>
  </defs>
  <sodipodi:namedview
     id="namedview3"
     pagecolor="#505050"
     bordercolor="#eeeeee"
     borderopacity="1"
     inkscape:showpageshadow="0"
     inkscape:pageopacity="0"
     inkscape:pagecheckerboard="0"
     inkscape:deskcolor="#505050"
     inkscape:zoom="6.4799707"
     inkscape:cx="7.8704059"
     inkscape:cy="31.250141"
     inkscape:current-layer="svg3" />
  <path
     style="fill:#ffffff;stroke-linecap:round"
     d="m 8.4335938,23.998047 c -0.303041,1.083419 -5.8557618,21.937946 15.4433592,22.949219 -3.630755,6.006816 0.03997,14.460814 15.74171,1.759512 1.155484,-0.934683 3.255635,-1.967582 4.617498,-2.55683 4.205913,-1.819806 7.810811,-5.681539 10.048995,-9.939008 C 59.152466,26.078174 55.619941,17.240795 50.920808,13.383449 37.978581,2.7596503 12.107385,10.863595 8.4335938,23.998047 Z"
     id="path2-3"
     sodipodi:nodetypes="cccssc"
     inkscape:original-d="m 8.4335938,23.998047 c -0.303041,1.083419 -5.8557618,21.937946 15.4433592,22.949219 -3.784592,6.261327 0.364142,15.181607 17.802734,0.0293 C 46.964806,45.840113 51.604924,41.309272 54.285156,36.21094 59.152466,26.078174 55.619941,17.240795 50.920808,13.383449 37.978581,2.7596503 12.107385,10.863595 8.4335938,23.998047 Z"
     inkscape:path-effect="#path-effect3" />
  <path
     style="opacity:0.65021157;mix-blend-mode:normal;fill:#ffc933;stroke-width:0.717091;filter:url(#filter3)"
     d="m 26.342634,51.168104 c -0.06807,-0.109887 0.518961,-1.056059 1.304504,-2.102628 2.012122,-2.680718 3.104567,-4.359422 2.209856,-5.396393 -0.367257,-0.425656 -0.868778,-0.912713 -3.862522,-0.912713 -6.481514,0 -9.137633,-1.256352 -11.148099,-3.432403 -2.765018,-2.992752 -3.684174,-9.086456 -2.263365,-14.166071 1.6666,-5.95839 8.040158,-10.366431 17.522719,-12.118973 6.179548,-0.808928 13.567533,-0.757167 18.18018,3.693176 4.088708,4.079252 4.994391,11.619881 2.115477,17.613204 -1.88368,3.921439 -5.312907,7.31102 -9.589127,8.447346 -1.50016,0.398647 -1.688948,0.538222 -3.980524,2.942923 -2.448169,2.569029 -5.737769,4.147913 -8.026143,5.126555 -1.226548,0.524542 -2.248888,0.651551 -2.462956,0.305977 z"
     id="path2-6"
     transform="matrix(0.82888278,0,0,0.82888278,5.4757509,5.4757509)" />
  <path
     style="fill:#ffc933;stroke-width:0.717091;opacity:0.67559944"
     d="m 26.342634,51.168104 c -0.06807,-0.109887 0.518961,-1.056059 1.304504,-2.102628 2.012122,-2.680718 3.104567,-4.359422 2.209856,-5.396393 -0.367257,-0.425656 -0.868778,-0.912713 -3.862522,-0.912713 -6.481514,0 -9.137633,-1.256352 -11.148099,-3.432403 -2.765018,-2.992752 -3.684174,-9.086456 -2.263365,-14.166071 1.6666,-5.95839 8.040158,-10.366431 17.522719,-12.118973 6.179548,-0.808928 13.567533,-0.757167 18.18018,3.693176 4.088708,4.079252 4.994391,11.619881 2.115477,17.613204 -1.88368,3.921439 -5.312907,7.31102 -9.589127,8.447346 -1.50016,0.398647 -1.688948,0.538222 -3.980524,2.942923 -2.448169,2.569029 -5.737769,4.147913 -8.026143,5.126555 -1.226548,0.524542 -2.248888,0.651551 -2.462956,0.305977 z"
     id="path2" />
  <path
     style="fill:none;stroke-linecap:round;stroke:#000000;stroke-opacity:1;stroke-width:0.2;stroke-dasharray:none;filter:url(#filter4)"
     d="m 8.4335938,23.998047 c -0.303041,1.083419 -5.8557618,21.937946 15.4433592,22.949219 -3.630755,6.006816 0.03997,14.460814 15.74171,1.759512 1.155484,-0.934683 3.255635,-1.967582 4.617498,-2.55683 4.205913,-1.819806 7.810811,-5.681539 10.048995,-9.939008 C 59.152466,26.078174 55.619941,17.240795 50.920808,13.383449 37.978581,2.7596503 12.107385,10.863595 8.4335938,23.998047 Z"
     id="path2-3-5"
     sodipodi:nodetypes="cccssc"
     inkscape:original-d="m 8.4335938,23.998047 c -0.303041,1.083419 -5.8557618,21.937946 15.4433592,22.949219 -3.784592,6.261327 0.364142,15.181607 17.802734,0.0293 C 46.964806,45.840113 51.604924,41.309272 54.285156,36.21094 59.152466,26.078174 55.619941,17.240795 50.920808,13.383449 37.978581,2.7596503 12.107385,10.863595 8.4335938,23.998047 Z"
     inkscape:path-effect="#path-effect3-7"
     transform="translate(-0.09164649,0.0970948)" />
</svg>
