<?xml version="1.0" encoding="UTF-8" standalone="no"?>
<svg
   width="64"
   height="64"
   version="1"
   id="svg5"
   sodipodi:docname="yaourtgui.svg"
   inkscape:version="1.4 (e7c3feb100, 2024-10-09)"
   xmlns:inkscape="http://www.inkscape.org/namespaces/inkscape"
   xmlns:sodipodi="http://sodipodi.sourceforge.net/DTD/sodipodi-0.dtd"
   xmlns:xlink="http://www.w3.org/1999/xlink"
   xmlns="http://www.w3.org/2000/svg"
   xmlns:svg="http://www.w3.org/2000/svg">
  <defs
     id="defs5">
    <linearGradient
       id="linearGradient6"
       inkscape:collect="always">
      <stop
         style="stop-color:#80fe9b;stop-opacity:1;"
         offset="0"
         id="stop7" />
      <stop
         style="stop-color:#5bfbc6;stop-opacity:1;"
         offset="1"
         id="stop8" />
    </linearGradient>
    <linearGradient
       id="linearGradient5"
       inkscape:collect="always">
      <stop
         style="stop-color:#6ab9ff;stop-opacity:1;"
         offset="0"
         id="stop5" />
      <stop
         style="stop-color:#4a5ea4;stop-opacity:1;"
         offset="1"
         id="stop6" />
    </linearGradient>
    <radialGradient
       inkscape:collect="always"
       xlink:href="#linearGradient5"
       id="radialGradient6"
       cx="6.7397346"
       cy="57.749184"
       fx="6.7397346"
       fy="57.749184"
       r="23.70103"
       gradientTransform="matrix(3.3767404,0,0,2.9488238,-19.063624,-113.18427)"
       gradientUnits="userSpaceOnUse" />
    <radialGradient
       inkscape:collect="always"
       xlink:href="#linearGradient6"
       id="radialGradient8"
       cx="5.1204505"
       cy="58.730232"
       fx="5.1204505"
       fy="58.730232"
       r="18.999396"
       gradientTransform="matrix(4.2123566,0,0,3.6785465,-17.874454,-158.93495)"
       gradientUnits="userSpaceOnUse" />
    <filter
       inkscape:collect="always"
       style="color-interpolation-filters:sRGB"
       id="filter9"
       x="-0.13009776"
       y="-0.12741467"
       width="1.2601955"
       height="1.2548423">
      <feGaussianBlur
         inkscape:collect="always"
         stdDeviation="2.5281378"
         id="feGaussianBlur9" />
    </filter>
    <filter
       inkscape:collect="always"
       style="color-interpolation-filters:sRGB"
       id="filter10"
       x="-0.08951978"
       y="-0.087252195"
       width="1.1790396"
       height="1.1745044">
      <feGaussianBlur
         inkscape:collect="always"
         stdDeviation="1.3387123"
         id="feGaussianBlur10" />
    </filter>
  </defs>
  <sodipodi:namedview
     id="namedview5"
     pagecolor="#505050"
     bordercolor="#eeeeee"
     borderopacity="1"
     inkscape:showpageshadow="0"
     inkscape:pageopacity="0"
     inkscape:pagecheckerboard="0"
     inkscape:deskcolor="#505050"
     inkscape:zoom="6.5849319"
     inkscape:cx="7.2893692"
     inkscape:cy="11.845225"
     inkscape:current-layer="svg5" />
  <path
     style="fill:url(#radialGradient6);stroke-width:1.05304;stroke-linecap:round;stroke-linejoin:round"
     d="m 16.204373,6.518148 a 9.1614634,9.1614634 0 0 0 -6.4786753,2.6819662 9.1614634,9.1614634 0 0 0 0,12.9573508 L 22.839359,35.269069 V 48.323085 A 9.1614634,9.1614634 0 0 0 32,57.483726 9.1614634,9.1614634 0 0 0 41.160641,48.323085 V 35.269069 L 54.274302,22.157465 a 9.1614634,9.1614634 0 0 0 0,-12.9573508 9.1614634,9.1614634 0 0 0 -12.95735,0 L 32,18.517066 22.683048,9.2001142 A 9.1614634,9.1614634 0 0 0 16.204373,6.518148 Z"
     id="path3-3" />
  <path
     style="fill:url(#radialGradient8);stroke-width:1.05304;stroke-linecap:round;stroke-linejoin:round"
     d="m 16.204373,11.465668 a 4.2121672,4.2121672 0 0 0 -2.978134,1.234034 4.2121672,4.2121672 0 0 0 0,5.956267 L 27.787833,33.217563 V 48.322131 A 4.2121672,4.2121672 0 0 0 32,52.534298 4.2121672,4.2121672 0 0 0 36.212167,48.322131 V 33.217563 L 50.773761,18.655969 a 4.2121672,4.2121672 0 0 0 0,-5.956267 4.2121672,4.2121672 0 0 0 -5.956268,0 L 32,25.517195 19.182507,12.699702 a 4.2121672,4.2121672 0 0 0 -2.978134,-1.234034 z"
     id="path3" />
  <path
     style="mix-blend-mode:normal;fill:none;stroke:#000000;stroke-width:0.2;stroke-linecap:round;stroke-linejoin:round;stroke-dasharray:none;stroke-opacity:1;filter:url(#filter9)"
     d="m 17,7.8016862 a 8.6999998,8.6999998 0 0 0 -6.152344,2.5468758 8.6999998,8.6999998 0 0 0 0,12.304688 L 23.300781,35.104422 V 47.500906 A 8.6999998,8.6999998 0 0 0 32,56.200125 8.6999998,8.6999998 0 0 0 40.699219,47.500906 V 35.104422 L 53.152344,22.65325 a 8.6999998,8.6999998 0 0 0 0,-12.304688 8.6999998,8.6999998 0 0 0 -12.304688,0 L 32,19.196218 23.152344,10.348562 A 8.6999998,8.6999998 0 0 0 17,7.8016862 Z"
     id="path3-3-2"
     transform="matrix(1.0530418,0,0,1.0530418,-1.6973375,-1.6973541)" />
  <path
     style="mix-blend-mode:normal;fill:none;stroke:#2500ff;stroke-width:0.37985198;stroke-linecap:round;stroke-linejoin:round;stroke-dasharray:none;stroke-opacity:1;filter:url(#filter10)"
     d="m 17,12.5 a 4,4 0 0 0 -2.828125,1.171875 4,4 0 0 0 0,5.65625 L 28,33.15625 V 47.5 a 4,4 0 0 0 4,4 4,4 0 0 0 4,-4 V 33.15625 L 49.828125,19.328125 a 4,4 0 0 0 0,-5.65625 4,4 0 0 0 -5.65625,0 L 32,25.84375 19.828125,13.671875 A 4,4 0 0 0 17,12.5 Z"
     id="path3-9"
     transform="matrix(1.0530418,0,0,1.0530418,-1.6973375,-1.6973541)" />
</svg>
