<?xml version="1.0" encoding="UTF-8" standalone="no"?>
<svg
   width="64"
   height="64"
   version="1.1"
   id="svg7"
   sodipodi:docname="yaradio-yamusic.svg"
   inkscape:version="1.4 (e7c3feb100, 2024-10-09)"
   xmlns:inkscape="http://www.inkscape.org/namespaces/inkscape"
   xmlns:sodipodi="http://sodipodi.sourceforge.net/DTD/sodipodi-0.dtd"
   xmlns:xlink="http://www.w3.org/1999/xlink"
   xmlns="http://www.w3.org/2000/svg"
   xmlns:svg="http://www.w3.org/2000/svg">
  <defs
     id="defs7">
    <linearGradient
       id="linearGradient8"
       inkscape:collect="always">
      <stop
         style="stop-color:#e23b51;stop-opacity:1;"
         offset="0"
         id="stop9" />
      <stop
         style="stop-color:#ff6926;stop-opacity:1;"
         offset="1"
         id="stop10" />
    </linearGradient>
    <linearGradient
       id="linearGradient7"
       inkscape:collect="always">
      <stop
         style="stop-color:#fff24a;stop-opacity:1;"
         offset="0"
         id="stop7" />
      <stop
         style="stop-color:#ffad50;stop-opacity:1;"
         offset="1"
         id="stop8" />
    </linearGradient>
    <radialGradient
       inkscape:collect="always"
       xlink:href="#linearGradient7"
       id="radialGradient8"
       cx="17.493755"
       cy="44.110718"
       fx="17.493755"
       fy="44.110718"
       r="28"
       gradientUnits="userSpaceOnUse"
       gradientTransform="matrix(1.8084728,-1.0441223,1.0441223,1.8084728,-61.082961,-7.6457885)" />
    <radialGradient
       inkscape:collect="always"
       xlink:href="#linearGradient8"
       id="radialGradient10"
       cx="31.696278"
       cy="59.767323"
       fx="31.696278"
       fy="59.767323"
       r="18"
       gradientTransform="matrix(3.1368178,-0.8405078,0.83813659,3.1279683,-117.78281,-104.20012)"
       gradientUnits="userSpaceOnUse" />
    <filter
       inkscape:collect="always"
       style="color-interpolation-filters:sRGB"
       id="filter11"
       x="-0.155246"
       y="-0.155246"
       width="1.310492"
       height="1.310492">
      <feGaussianBlur
         inkscape:collect="always"
         stdDeviation="3.1092212"
         id="feGaussianBlur11" />
    </filter>
    <filter
       inkscape:collect="always"
       style="color-interpolation-filters:sRGB"
       id="filter12"
       x="-0.091859102"
       y="-0.092118982"
       width="1.1837182"
       height="1.1842279">
      <feGaussianBlur
         inkscape:collect="always"
         stdDeviation="1.1568641"
         id="feGaussianBlur12" />
    </filter>
  </defs>
  <sodipodi:namedview
     id="namedview7"
     pagecolor="#505050"
     bordercolor="#eeeeee"
     borderopacity="1"
     inkscape:showpageshadow="0"
     inkscape:pageopacity="0"
     inkscape:pagecheckerboard="0"
     inkscape:deskcolor="#505050"
     inkscape:zoom="13.169864"
     inkscape:cx="35.687537"
     inkscape:cy="34.396711"
     inkscape:current-layer="svg7" />
  <circle
     style="fill:url(#radialGradient8);stroke-width:0.869833"
     cx="32"
     cy="32"
     r="24.355316"
     id="circle2" />
  <path
     id="circle4"
     style="fill:url(#radialGradient10);stroke-width:0.869833"
     d="M 32,25.041338 A 15.656988,15.656988 0 0 0 16.343012,40.698327 15.656988,15.656988 0 0 0 30.75811,56.266973 8.6983269,8.6983269 0 0 1 23.301673,47.656988 8.6983269,8.6983269 0 0 1 32,38.958662 8.6983269,8.6983269 0 0 1 40.698327,47.656988 8.6983269,8.6983269 0 0 1 33.24189,56.266973 15.656988,15.656988 0 0 0 47.656988,40.698327 15.656988,15.656988 0 0 0 32,25.041338 Z" />
  <circle
     style="fill:none;stroke-width:0.2;stroke:#000000;stroke-opacity:1;stroke-dasharray:none;filter:url(#filter11)"
     cx="32"
     cy="32"
     r="24.355316"
     id="circle2-6" />
  <path
     id="circle4-2"
     style="fill:none;stroke-width:0.2;stroke:#ff0000;stroke-opacity:1;stroke-dasharray:none;filter:url(#filter12)"
     d="M 32,25.041338 A 15.656988,15.656988 0 0 0 16.343012,40.698327 15.656988,15.656988 0 0 0 30.75811,56.266973 8.6983269,8.6983269 0 0 1 23.301673,47.656988 8.6983269,8.6983269 0 0 1 32,38.958662 8.6983269,8.6983269 0 0 1 40.698327,47.656988 8.6983269,8.6983269 0 0 1 33.24189,56.266973 15.656988,15.656988 0 0 0 47.656988,40.698327 15.656988,15.656988 0 0 0 32,25.041338 Z" />
</svg>
