<?xml version="1.0" encoding="UTF-8" standalone="no"?>
<svg
   width="64"
   height="64"
   version="1"
   id="svg10"
   sodipodi:docname="yast-vpn.svg"
   inkscape:version="1.4 (e7c3feb100, 2024-10-09)"
   xmlns:inkscape="http://www.inkscape.org/namespaces/inkscape"
   xmlns:sodipodi="http://sodipodi.sourceforge.net/DTD/sodipodi-0.dtd"
   xmlns:xlink="http://www.w3.org/1999/xlink"
   xmlns="http://www.w3.org/2000/svg"
   xmlns:svg="http://www.w3.org/2000/svg">
  <defs
     id="defs10">
    <linearGradient
       id="linearGradient10"
       inkscape:collect="always">
      <stop
         style="stop-color:#fe8b38;stop-opacity:1;"
         offset="0"
         id="stop10" />
      <stop
         style="stop-color:#feb938;stop-opacity:1;"
         offset="1"
         id="stop11" />
    </linearGradient>
    <radialGradient
       inkscape:collect="always"
       xlink:href="#linearGradient10"
       id="radialGradient11"
       cx="14.225233"
       cy="51.194752"
       fx="14.225233"
       fy="51.194752"
       r="17"
       gradientTransform="matrix(3.5998701,-0.96458229,0.68088161,2.5410848,-71.841324,-70.525442)"
       gradientUnits="userSpaceOnUse" />
  </defs>
  <sodipodi:namedview
     id="namedview10"
     pagecolor="#505050"
     bordercolor="#eeeeee"
     borderopacity="1"
     inkscape:showpageshadow="0"
     inkscape:pageopacity="0"
     inkscape:pagecheckerboard="0"
     inkscape:deskcolor="#505050"
     inkscape:zoom="18.453125"
     inkscape:cx="31.972904"
     inkscape:cy="32"
     inkscape:current-layer="svg10" />
  <path
     id="rect1"
     style="fill:#828282"
     d="M 29 44 L 29 53 L 6 53 C 4.338 53 3 54.338 3 56 C 3 57.662 4.338 59 6 59 L 58 59 C 59.662 59 61 57.662 61 56 C 61 54.338 59.662 53 58 53 L 35 53 L 35 44 L 29 44 z " />
  <path
     style="fill:#e4e4e4"
     d="m32 3c-7.2 0-13 5.8-13 13v17h26v-17c0-7.2-5.8-13-13-13zm0 6c3.9 0 7 3.1 7 7v11h-14v-11c0-3.9 3.1-7 7-7z"
     id="path2" />
  <rect
     style="fill:url(#radialGradient11);fill-opacity:1"
     width="34"
     height="24"
     x="15"
     y="21"
     rx="2.8"
     ry="2.8"
     id="rect3" />
  <rect
     style="fill:#ffffff;opacity:0.3"
     width="34"
     height="16"
     x="15"
     y="25"
     id="rect4" />
  <rect
     style="fill:#afafb1"
     width="20"
     height="10"
     x="22"
     y="51"
     id="rect7"
     rx="5"
     ry="5" />
  <path
     style="fill:#ffffff;opacity:0.2"
     d="M 32,3 C 24.8,3 19,8.8 19,16 V 17 C 19,9.8 24.8,4 32,4 39.2,4 45,9.8 45,17 V 16 C 45,8.8 39.2,3 32,3 Z"
     id="path9" />
</svg>
