<?xml version="1.0" encoding="UTF-8" standalone="no"?>
<svg
   width="64"
   height="64"
   version="1.1"
   id="svg12"
   sodipodi:docname="ymuse.svg"
   inkscape:version="1.4 (e7c3feb100, 2024-10-09)"
   xmlns:inkscape="http://www.inkscape.org/namespaces/inkscape"
   xmlns:sodipodi="http://sodipodi.sourceforge.net/DTD/sodipodi-0.dtd"
   xmlns:xlink="http://www.w3.org/1999/xlink"
   xmlns="http://www.w3.org/2000/svg"
   xmlns:svg="http://www.w3.org/2000/svg">
  <defs
     id="defs12">
    <linearGradient
       id="linearGradient14"
       inkscape:collect="always">
      <stop
         style="stop-color:#00d42a;stop-opacity:1;"
         offset="0"
         id="stop15" />
      <stop
         style="stop-color:#00b925;stop-opacity:1;"
         offset="1"
         id="stop16" />
    </linearGradient>
    <linearGradient
       id="linearGradient13"
       inkscape:collect="always">
      <stop
         style="stop-color:#e6ff17;stop-opacity:1;"
         offset="0"
         id="stop13" />
      <stop
         style="stop-color:#00b903;stop-opacity:1;"
         offset="1"
         id="stop14" />
    </linearGradient>
    <inkscape:path-effect
       effect="fillet_chamfer"
       id="path-effect12"
       is_visible="true"
       lpeversion="1"
       nodesatellites_param="F,0,0,1,0,5.2848468,0,1 @ F,0,1,1,0,5.2848468,0,1 @ F,0,1,1,0,5.2848468,0,1"
       radius="0"
       unit="px"
       method="auto"
       mode="F"
       chamfer_steps="1"
       flexible="false"
       use_knot_distance="true"
       apply_no_radius="true"
       apply_with_radius="true"
       only_selected="false"
       hide_knots="false" />
    <inkscape:path-effect
       effect="fillet_chamfer"
       id="path-effect12-3"
       is_visible="true"
       lpeversion="1"
       nodesatellites_param="F,0,0,1,0,5.2848468,0,1 @ F,0,1,1,0,5.2848468,0,1 @ F,0,1,1,0,5.2848468,0,1"
       radius="0"
       unit="px"
       method="auto"
       mode="F"
       chamfer_steps="1"
       flexible="false"
       use_knot_distance="true"
       apply_no_radius="true"
       apply_with_radius="true"
       only_selected="false"
       hide_knots="false" />
    <filter
       inkscape:collect="always"
       style="color-interpolation-filters:sRGB"
       id="filter12"
       x="-0.13106615"
       y="-0.10986369"
       width="1.2619949"
       height="1.2197274">
      <feGaussianBlur
         inkscape:collect="always"
         stdDeviation="0.98968221"
         id="feGaussianBlur12" />
    </filter>
    <filter
       inkscape:collect="always"
       style="color-interpolation-filters:sRGB"
       id="filter13"
       x="-0.14593587"
       y="-0.14593612"
       width="1.2918653"
       height="1.291872">
      <feGaussianBlur
         inkscape:collect="always"
         stdDeviation="2.9428836"
         id="feGaussianBlur13" />
    </filter>
    <radialGradient
       inkscape:collect="always"
       xlink:href="#linearGradient13"
       id="radialGradient14"
       cx="13.429312"
       cy="56.036034"
       fx="13.429312"
       fy="56.036034"
       r="24.541329"
       gradientTransform="matrix(4.7246905,-2.7278013,2.7278012,4.7246903,-184.68408,-197.33503)"
       gradientUnits="userSpaceOnUse" />
    <filter
       inkscape:collect="always"
       style="color-interpolation-filters:sRGB"
       id="filter14"
       x="-0.064052936"
       y="-0.064052936"
       width="1.1281059"
       height="1.1281059">
      <feGaussianBlur
         inkscape:collect="always"
         stdDeviation="1.1227366"
         id="feGaussianBlur14" />
    </filter>
    <radialGradient
       inkscape:collect="always"
       xlink:href="#linearGradient14"
       id="radialGradient16"
       cx="11.824384"
       cy="50.475845"
       fx="11.824384"
       fy="50.475845"
       r="9.4427025"
       gradientTransform="matrix(7.0043666,-1.8768144,2.2416624,8.365998,-184.14774,-346.0212)"
       gradientUnits="userSpaceOnUse" />
  </defs>
  <sodipodi:namedview
     id="namedview12"
     pagecolor="#505050"
     bordercolor="#eeeeee"
     borderopacity="1"
     inkscape:showpageshadow="0"
     inkscape:pageopacity="0"
     inkscape:pagecheckerboard="0"
     inkscape:deskcolor="#505050"
     inkscape:zoom="9.3125"
     inkscape:cx="37.798658"
     inkscape:cy="33.932886"
     inkscape:current-layer="svg12" />
  <path
     style="fill:url(#radialGradient14);stroke-width:1.8878"
     d="M 31.687807,7.4597662 C 30.85079,7.4545937 30.08782,7.4736982 29.626789,7.5240874 22.227208,8.2830088 15.643905,12.245347 11.47022,18.472534 c -1.5361527,2.301132 -2.9751059,5.726117 -3.5217034,8.422467 -0.4137039,2.034588 -0.489771,2.830836 -0.489771,5.085175 0,2.25434 0.076041,3.033012 0.489771,5.084311 0.5374001,2.657919 1.9763344,6.093822 3.5208384,8.424198 4.61597,6.898381 12.314345,11.052924 20.508252,11.052924 9.269549,0 17.812193,-5.306131 21.967638,-13.634155 C 58.109903,34.551857 57.217007,24.72598 51.604796,17.252735 47.716788,12.071426 41.977727,8.6656705 35.432802,7.6588204 34.683214,7.5449759 33.082827,7.4683912 31.687807,7.4597662 Z"
     id="path7" />
  <path
     style="fill:none;stroke-width:0.2;stroke:#000000;stroke-opacity:1;stroke-dasharray:none;filter:url(#filter13)"
     d="M 31.687807,7.4597658 C 30.85079,7.4545958 30.08782,7.4736978 29.626789,7.5240868 22.227208,8.2830084 15.643905,12.245347 11.47022,18.472534 c -1.5361534,2.301132 -2.9751064,5.726117 -3.5217034,8.422467 -0.413704,2.034588 -0.489771,2.830836 -0.489771,5.085175 0,2.25434 0.07604,3.033012 0.489771,5.084311 0.5374,2.657919 1.976334,6.093822 3.5208384,8.424198 4.61597,6.898381 12.314345,11.052924 20.508252,11.052924 9.269549,0 17.812193,-5.306131 21.967638,-13.634155 C 58.109903,34.551857 57.217007,24.72598 51.604796,17.252735 47.716788,12.071426 41.977727,8.6656701 35.432802,7.65882 34.683214,7.5449755 33.082827,7.4683908 31.687807,7.4597658 Z"
     id="path7-7" />
  <path
     style="fill:#ffffff;stroke-width:1.8878"
     d="M 32.000068,10.185763 A 21.813024,21.812425 0 0 0 10.185556,32.000279 21.813024,21.812425 0 0 0 32.000068,53.814798 21.813024,21.812425 0 0 0 53.814591,32.000279 21.813024,21.812425 0 0 0 32.000068,10.185763 Z m -2.705826,2.252076 c 0.612595,-0.01227 1.177478,0.04957 1.422042,0.182735 0.373483,0.196029 0.446099,0.394216 0.553016,1.59522 0.169676,1.867355 0.05399,15.692162 -0.123462,15.878122 -0.05339,0.04412 -0.731028,-0.497779 -3.347723,-2.686685 -4.8661,-4.076418 -8.316848,-7.390803 -8.956881,-8.618143 -0.196067,-0.39129 -0.171072,-0.953201 0.06913,-1.442119 0.861645,-1.726336 5.417292,-4.085597 9.28771,-4.805417 0.343466,-0.0639 0.728611,-0.09646 1.096162,-0.103708 z m 5.540041,0.162977 c 1.043527,-0.02009 2.817029,0.336082 4.414255,0.928482 2.002239,0.729895 4.509574,2.136777 5.515345,3.086727 0.8453,0.793431 1.130026,1.72818 0.720909,2.316281 -0.871692,1.263761 -4.205343,4.356437 -9.988869,9.250308 l -2.315753,1.965627 -0.06422,-0.488938 c -0.149552,-1.307149 -0.01548,-10.532078 0.197501,-13.334662 0.116213,-1.493884 0.312733,-2.734152 0.498704,-3.205258 0.106925,-0.267316 0.216455,-0.373192 0.429573,-0.444489 0.151968,-0.04669 0.351735,-0.06946 0.592516,-0.0741 z m 12.358919,7.990923 c 0.338672,0 1.084009,0.472781 1.510917,0.953177 0.809745,0.907333 1.859521,2.749507 2.330568,4.074477 0.365026,1.014257 0.47408,1.764346 0.47408,3.249709 0,1.511703 -0.09069,1.92801 -0.464184,2.222443 -0.222383,0.177434 -0.336104,0.177793 -8.379175,0.177793 l -8.152055,-0.0098 0.715956,-0.671677 c 4.456961,-4.253837 9.643806,-8.732043 11.21831,-9.67502 0.285172,-0.177454 0.621457,-0.321013 0.745542,-0.321013 z m -30.475139,0.0049 c 0.846146,0 3.919787,2.436998 9.969104,7.926717 1.22815,1.111892 2.339706,2.131301 2.473758,2.281709 l 0.256741,0.271647 -1.683733,0.06915 c -2.766243,0.124746 -11.752577,0.100242 -12.882319,-0.03455 -1.290908,-0.150306 -1.851193,-0.41302 -2.16268,-1.01739 -0.444777,-0.871692 -0.334582,-2.241857 0.360446,-4.296724 0.853893,-2.570135 2.094771,-4.560722 3.135406,-5.0326 0.196029,-0.08914 0.436399,-0.16792 0.533258,-0.16792 z m 25.048665,12.025885 c 1.635722,-0.01718 6.643875,0.140792 7.470656,0.24694 1.050724,0.134052 1.410074,0.259784 1.747937,0.597585 0.854679,0.854639 0.719158,2.732982 -0.409769,5.61537 -1.139881,2.926562 -2.536287,4.546435 -3.648986,4.207831 -0.650095,-0.196822 -2.099793,-1.281375 -4.759881,-3.575667 -2.598105,-2.233852 -7.616101,-6.85422 -7.544727,-6.934022 0.02719,-0.02647 1.408175,-0.06677 3.081094,-0.09377 1.67292,-0.02794 3.503482,-0.05399 4.063676,-0.06422 z m -27.991504,0.06915 c 1.762027,-2e-6 13.426667,0.18644 14.467298,0.232105 l 1.199852,0.05431 -0.488839,0.454364 c -5.08849,4.680034 -9.792783,8.646481 -11.420765,9.615794 -0.640818,0.392104 -0.854457,0.392142 -1.441797,0.05429 -0.799645,-0.453279 -1.703222,-1.629311 -2.547816,-3.338605 -0.880233,-1.751127 -1.091221,-2.656148 -1.091221,-4.622677 0,-1.565944 0.07566,-1.96965 0.459196,-2.271834 0.179002,-0.142567 0.365856,-0.177793 0.864088,-0.177793 z m 19.325941,1.15567 c 0.0814,0 0.978685,0.740254 2.918151,2.3953 4.716559,4.029931 7.951868,7.160164 8.877883,8.583573 0.275695,0.426938 0.340635,0.608767 0.340635,0.972931 0,0.596628 -0.203732,0.988502 -0.888792,1.674241 -1.272324,1.289327 -4.006074,2.691875 -6.764585,3.501579 -2.605844,0.756212 -4.430883,0.750148 -4.725319,-0.02492 -0.292949,-0.77328 -0.273467,-6.761715 0.05429,-13.942125 0.07283,-1.565169 0.133316,-2.918537 0.133316,-3.007708 0,-0.08061 0.02794,-0.153081 0.05429,-0.153081 z m -2.261438,0.04935 c 0.03511,-0.0066 0.05739,0.0074 0.06419,0.03451 0.07204,0.30064 -0.07102,11.157305 -0.167864,12.554337 -0.116213,1.797624 -0.319906,3.450356 -0.488838,4.054724 -0.213095,0.729857 -0.331573,0.793019 -1.55042,0.785272 -0.845384,-0.01019 -1.219153,-0.06536 -2.073824,-0.296271 -1.441234,-0.373445 -2.561915,-0.801115 -4.048868,-1.531018 -2.89177,-1.432671 -4.288006,-2.683682 -4.295754,-3.87693 0,-0.292911 0.07102,-0.452457 0.365403,-0.844527 1.032109,-1.334267 5.148802,-5.055167 11.376331,-10.277568 0.467823,-0.400391 0.714249,-0.582951 0.819652,-0.602524 z"
     id="path8" />
  <path
     style="fill:none;stroke-width:0.2;stroke:#00df2c;stroke-opacity:1;stroke-dasharray:none;filter:url(#filter14)"
     d="M 32.000068,10.185763 A 21.813024,21.812425 0 0 0 10.185556,32.000279 21.813024,21.812425 0 0 0 32.000068,53.814798 21.813024,21.812425 0 0 0 53.814591,32.000279 21.813024,21.812425 0 0 0 32.000068,10.185763 Z m -2.705826,2.252076 c 0.612595,-0.01227 1.177478,0.04957 1.422042,0.182735 0.373483,0.196029 0.446099,0.394216 0.553016,1.59522 0.169676,1.867355 0.05399,15.692162 -0.123462,15.878122 -0.05339,0.04412 -0.731028,-0.497779 -3.347723,-2.686685 -4.8661,-4.076418 -8.316848,-7.390803 -8.956881,-8.618143 -0.196067,-0.39129 -0.171072,-0.953201 0.06913,-1.442119 0.861645,-1.726336 5.417292,-4.085597 9.28771,-4.805417 0.343466,-0.0639 0.728611,-0.09646 1.096162,-0.103708 z m 5.540041,0.162977 c 1.043527,-0.02009 2.817029,0.336082 4.414255,0.928482 2.002239,0.729895 4.509574,2.136777 5.515345,3.086727 0.8453,0.793431 1.130026,1.72818 0.720909,2.316281 -0.871692,1.263761 -4.205343,4.356437 -9.988869,9.250308 l -2.315753,1.965627 -0.06422,-0.488938 c -0.149552,-1.307149 -0.01548,-10.532078 0.197501,-13.334662 0.116213,-1.493884 0.312733,-2.734152 0.498704,-3.205258 0.106925,-0.267316 0.216455,-0.373192 0.429573,-0.444489 0.151968,-0.04669 0.351735,-0.06946 0.592516,-0.0741 z m 12.358919,7.990923 c 0.338672,0 1.084009,0.472781 1.510917,0.953177 0.809745,0.907333 1.859521,2.749507 2.330568,4.074477 0.365026,1.014257 0.47408,1.764346 0.47408,3.249709 0,1.511703 -0.09069,1.92801 -0.464184,2.222443 -0.222383,0.177434 -0.336104,0.177793 -8.379175,0.177793 l -8.152055,-0.0098 0.715956,-0.671677 c 4.456961,-4.253837 9.643806,-8.732043 11.21831,-9.67502 0.285172,-0.177454 0.621457,-0.321013 0.745542,-0.321013 z m -30.475139,0.0049 c 0.846146,0 3.919787,2.436998 9.969104,7.926717 1.22815,1.111892 2.339706,2.131301 2.473758,2.281709 l 0.256741,0.271647 -1.683733,0.06915 c -2.766243,0.124746 -11.752577,0.100242 -12.882319,-0.03455 -1.290908,-0.150306 -1.851193,-0.41302 -2.16268,-1.01739 -0.444777,-0.871692 -0.334582,-2.241857 0.360446,-4.296724 0.853893,-2.570135 2.094771,-4.560722 3.135406,-5.0326 0.196029,-0.08914 0.436399,-0.16792 0.533258,-0.16792 z m 25.048665,12.025885 c 1.635722,-0.01718 6.643875,0.140792 7.470656,0.24694 1.050724,0.134052 1.410074,0.259784 1.747937,0.597585 0.854679,0.854639 0.719158,2.732982 -0.409769,5.61537 -1.139881,2.926562 -2.536287,4.546435 -3.648986,4.207831 -0.650095,-0.196822 -2.099793,-1.281375 -4.759881,-3.575667 -2.598105,-2.233852 -7.616101,-6.85422 -7.544727,-6.934022 0.02719,-0.02647 1.408175,-0.06677 3.081094,-0.09377 1.67292,-0.02794 3.503482,-0.05399 4.063676,-0.06422 z m -27.991504,0.06915 c 1.762027,-2e-6 13.426667,0.18644 14.467298,0.232105 l 1.199852,0.05431 -0.488839,0.454364 c -5.08849,4.680034 -9.792783,8.646481 -11.420765,9.615794 -0.640818,0.392104 -0.854457,0.392142 -1.441797,0.05429 -0.799645,-0.453279 -1.703222,-1.629311 -2.547816,-3.338605 -0.880233,-1.751127 -1.091221,-2.656148 -1.091221,-4.622677 0,-1.565944 0.07566,-1.96965 0.459196,-2.271834 0.179002,-0.142567 0.365856,-0.177793 0.864088,-0.177793 z m 19.325941,1.15567 c 0.0814,0 0.978685,0.740254 2.918151,2.3953 4.716559,4.029931 7.951868,7.160164 8.877883,8.583573 0.275695,0.426938 0.340635,0.608767 0.340635,0.972931 0,0.596628 -0.203732,0.988502 -0.888792,1.674241 -1.272324,1.289327 -4.006074,2.691875 -6.764585,3.501579 -2.605844,0.756212 -4.430883,0.750148 -4.725319,-0.02492 -0.292949,-0.77328 -0.273467,-6.761715 0.05429,-13.942125 0.07283,-1.565169 0.133316,-2.918537 0.133316,-3.007708 0,-0.08061 0.02794,-0.153081 0.05429,-0.153081 z m -2.261438,0.04935 c 0.03511,-0.0066 0.05739,0.0074 0.06419,0.03451 0.07204,0.30064 -0.07102,11.157305 -0.167864,12.554337 -0.116213,1.797624 -0.319906,3.450356 -0.488838,4.054724 -0.213095,0.729857 -0.331573,0.793019 -1.55042,0.785272 -0.845384,-0.01019 -1.219153,-0.06536 -2.073824,-0.296271 -1.441234,-0.373445 -2.561915,-0.801115 -4.048868,-1.531018 -2.89177,-1.432671 -4.288006,-2.683682 -4.295754,-3.87693 0,-0.292911 0.07102,-0.452457 0.365403,-0.844527 1.032109,-1.334267 5.148802,-5.055167 11.376331,-10.277568 0.467823,-0.400391 0.714249,-0.582951 0.819652,-0.602524 z"
     id="path8-5" />
  <path
     fill="#00d42a"
     d="M 41.781738,34.801593 28.930377,42.833449 A 2.9291611,2.9291611 28.9977 0 1 24.448798,40.349504 V 23.651053 a 2.9290671,2.9290671 151.00308 0 1 4.481503,-2.483823 l 12.851513,8.032437 a 3.3030288,3.3030288 90.000779 0 1 -7.6e-5,5.601926 z"
     id="path9"
     style="stroke-width:1.8878;fill:url(#radialGradient16)"
     sodipodi:nodetypes="cccc"
     inkscape:path-effect="#path-effect12"
     inkscape:original-d="M 46.263317,32.000691 24.448798,45.634351 V 18.366206 Z" />
  <path
     fill="#00d42a"
     d="M 41.781738,34.801593 28.930377,42.833449 A 2.9291611,2.9291611 28.9977 0 1 24.448798,40.349504 V 23.651053 a 2.9290671,2.9290671 151.00308 0 1 4.481503,-2.483823 l 12.851513,8.032437 a 3.3030288,3.3030288 90.000779 0 1 -7.6e-5,5.601926 z"
     id="path9-6"
     style="stroke-width:0.2;fill:none;stroke:#0070ff;stroke-opacity:1;stroke-dasharray:none;filter:url(#filter12)"
     sodipodi:nodetypes="cccc"
     inkscape:path-effect="#path-effect12-3"
     inkscape:original-d="M 46.263317,32.000691 24.448798,45.634351 V 18.366206 Z" />
</svg>
