<?xml version="1.0" encoding="UTF-8" standalone="no"?>
<svg
   width="64"
   height="64"
   version="1.1"
   id="svg4"
   sodipodi:docname="yokadi.svg"
   inkscape:version="1.3.2 (091e20ef0f, 2023-11-25, custom)"
   xmlns:inkscape="http://www.inkscape.org/namespaces/inkscape"
   xmlns:sodipodi="http://sodipodi.sourceforge.net/DTD/sodipodi-0.dtd"
   xmlns:xlink="http://www.w3.org/1999/xlink"
   xmlns="http://www.w3.org/2000/svg"
   xmlns:svg="http://www.w3.org/2000/svg">
  <defs
     id="defs4">
    <inkscape:path-effect
       effect="fillet_chamfer"
       id="path-effect8"
       is_visible="true"
       lpeversion="1"
       nodesatellites_param="F,0,1,1,0,0.99562471,0,1 @ F,0,1,1,0,0.99562471,0,1 @ F,0,0,1,0,0.99562471,0,1 @ F,0,1,1,0,0.99562471,0,1"
       radius="0"
       unit="px"
       method="auto"
       mode="F"
       chamfer_steps="1"
       flexible="false"
       use_knot_distance="true"
       apply_no_radius="true"
       apply_with_radius="true"
       only_selected="false"
       hide_knots="false" />
    <inkscape:path-effect
       effect="fillet_chamfer"
       id="path-effect7"
       is_visible="true"
       lpeversion="1"
       nodesatellites_param="F,0,0,1,0,1.0351543,0,1 @ F,0,0,1,0,1.437943,0,1 @ F,0,0,1,0,0.9643676,0,1 @ F,0,0,1,0,0.95713037,0,1 @ F,0,0,1,0,0.54839763,0,1 @ F,0,0,1,0,1.9882018,0,1 @ F,0,0,1,0,1.9882018,0,1 @ F,0,0,1,0,1.0182836,0,1 @ F,0,0,1,0,0.95845041,0,1"
       radius="0"
       unit="px"
       method="auto"
       mode="F"
       chamfer_steps="1"
       flexible="false"
       use_knot_distance="true"
       apply_no_radius="true"
       apply_with_radius="true"
       only_selected="false"
       hide_knots="false" />
    <inkscape:path-effect
       effect="fillet_chamfer"
       id="path-effect6"
       is_visible="true"
       lpeversion="1"
       nodesatellites_param="F,0,0,1,0,0.99319765,0,1 @ F,0,0,1,0,0,0,1 @ F,0,0,1,0,0,0,1 @ F,0,0,1,0,0.87296252,0,1 @ F,0,0,1,0,0.87296252,0,1 @ F,0,0,1,0,1.0016254,0,1 @ F,0,1,1,0,1.0016254,0,1 @ F,0,0,1,0,0,0,1 @ F,0,0,1,0,0,0,1 @ F,0,0,1,0,0.99319765,0,1 @ F,0,0,1,0,0.99319765,0,1 @ F,0,0,1,0,0.90054871,0,1 @ F,0,0,1,0,0.90054871,0,1 @ F,0,0,1,0,0.99319765,0,1"
       radius="0"
       unit="px"
       method="auto"
       mode="F"
       chamfer_steps="1"
       flexible="false"
       use_knot_distance="true"
       apply_no_radius="true"
       apply_with_radius="true"
       only_selected="false"
       hide_knots="false" />
    <radialGradient
       inkscape:collect="always"
       xlink:href="#linearGradient14"
       id="radialGradient15"
       cx="5.8015566"
       cy="34.666862"
       fx="5.8015566"
       fy="34.666862"
       r="28"
       gradientTransform="matrix(1.9330047,1.0600342,-1.1366554,2.072726,35.820302,-43.789852)"
       gradientUnits="userSpaceOnUse" />
    <linearGradient
       id="linearGradient14"
       inkscape:collect="always">
      <stop
         style="stop-color:#00cbff;stop-opacity:1;"
         offset="0"
         id="stop14" />
      <stop
         style="stop-color:#009aff;stop-opacity:1;"
         offset="1"
         id="stop15" />
    </linearGradient>
    <filter
       inkscape:collect="always"
       style="color-interpolation-filters:sRGB"
       id="filter2"
       x="-0.11378631"
       y="-0.12744066"
       width="1.2275726"
       height="1.2548813">
      <feGaussianBlur
         inkscape:collect="always"
         stdDeviation="2.5300138"
         id="feGaussianBlur2" />
    </filter>
    <filter
       inkscape:collect="always"
       style="color-interpolation-filters:sRGB"
       id="filter12"
       x="-0.040829199"
       y="-0.065053116"
       width="1.0816584"
       height="1.1301062">
      <feGaussianBlur
         inkscape:collect="always"
         stdDeviation="0.39024993"
         id="feGaussianBlur12" />
    </filter>
  </defs>
  <sodipodi:namedview
     id="namedview4"
     pagecolor="#ffffff"
     bordercolor="#000000"
     borderopacity="0.25"
     inkscape:showpageshadow="2"
     inkscape:pageopacity="0.0"
     inkscape:pagecheckerboard="0"
     inkscape:deskcolor="#d1d1d1"
     inkscape:zoom="12.90625"
     inkscape:cx="34.208232"
     inkscape:cy="35.486683"
     inkscape:window-width="1920"
     inkscape:window-height="1020"
     inkscape:window-x="0"
     inkscape:window-y="0"
     inkscape:window-maximized="1"
     inkscape:current-layer="svg4" />
  <rect
     style="fill:url(#radialGradient15);stroke-width:0.93019"
     width="52.09066"
     height="46.509518"
     x="5.95467"
     y="8.7452412"
     rx="10.057882"
     ry="9.5330811"
     id="rect2" />
  <rect
     style="fill:none;stroke:#000000;stroke-width:0.6;stroke-dasharray:none;stroke-opacity:1;filter:url(#filter2)"
     width="56"
     height="50"
     x="4.049305"
     y="7.0226612"
     rx="10.812714"
     ry="10.248527"
     id="rect2-5"
     transform="matrix(0.93019037,0,0,0.93019037,2.1880467,2.2128303)" />
  <path
     id="path10"
     style="color:#000000;fill:#ffffff;stroke-width:0.904825;-inkscape-stroke:none"
     d="M 31.767578 15.916016 C 31.137814 15.916017 30.59421 16.362933 30.470703 16.980469 L 29.099609 23.835938 C 29.072899 23.969493 28.982034 24.032542 28.875 24.046875 C 28.767966 24.061205 28.664427 24.022214 28.603516 23.900391 L 27.765625 22.226562 C 27.495983 21.687278 26.942782 21.345703 26.339844 21.345703 L 26.267578 21.345703 C 25.691481 21.345703 25.222656 21.818436 25.222656 22.394531 L 25.222656 22.839844 C 25.222656 23.194249 25.304397 23.544338 25.462891 23.861328 L 26.246094 25.427734 C 26.769643 26.474831 27.84103 27.136719 29.011719 27.136719 L 29.03125 27.136719 C 30.162428 27.136719 31.139484 26.335774 31.361328 25.226562 L 32.638672 18.847656 C 32.761179 18.235126 32.822266 17.61099 32.822266 16.986328 L 32.822266 16.964844 C 32.822266 16.388088 32.352148 15.916017 31.775391 15.916016 L 31.767578 15.916016 z M 12.238281 15.982422 C 11.392514 15.982422 10.695313 16.679622 10.695312 17.525391 L 10.695312 22.533203 C 10.695312 22.533203 10.688315 23.148117 11.003906 23.779297 C 11.319497 24.410477 12.06081 25.082031 13.244141 25.082031 L 18.371094 25.082031 C 18.555975 25.082031 18.695313 25.221368 18.695312 25.40625 L 18.695312 27.660156 C 18.695312 27.845038 18.555975 27.982422 18.371094 27.982422 L 12.246094 27.982422 C 11.395672 27.982422 10.695313 28.682782 10.695312 29.533203 L 10.695312 29.535156 C 10.696712 30.384034 11.397441 31.082347 12.246094 31.082031 L 19.244141 31.082031 C 20.427469 31.082031 21.170737 30.410477 21.486328 29.779297 C 21.801919 29.148117 21.794922 28.533203 21.794922 28.533203 L 21.794922 17.525391 C 21.794922 16.679622 21.09772 15.982422 20.251953 15.982422 L 20.238281 15.982422 C 19.392514 15.982422 18.695312 16.679622 18.695312 17.525391 L 18.695312 21.630859 C 18.695312 21.830976 18.543867 21.982422 18.34375 21.982422 L 14.146484 21.982422 C 13.946369 21.982422 13.794922 21.830976 13.794922 21.630859 L 13.794922 17.525391 C 13.794922 16.679622 13.09772 15.982422 12.251953 15.982422 L 12.238281 15.982422 z M 24.494141 28.357422 C 23.776556 28.357422 23.185547 28.948431 23.185547 29.666016 L 23.185547 29.673828 C 23.185547 30.391413 23.776556 30.982422 24.494141 30.982422 L 33.550781 30.982422 C 34.268366 30.982422 34.859376 30.391413 34.859375 29.673828 L 34.859375 29.666016 C 34.859376 28.948431 34.268366 28.357422 33.550781 28.357422 L 24.494141 28.357422 z " />
  <path
     id="path10-3"
     style="color:#000000;fill:none;stroke-width:0.1;stroke:#5d00ff;stroke-opacity:1;stroke-dasharray:none;filter:url(#filter12)"
     d="m 31.806375,15.96051 c -0.629764,1e-6 -1.173368,0.446917 -1.296875,1.064453 l -1.371094,6.855469 c -0.02671,0.133555 -0.117575,0.196604 -0.224609,0.210937 -0.107034,0.01433 -0.210573,-0.02466 -0.271484,-0.146484 L 27.804422,22.271056 C 27.53478,21.731772 26.981579,21.390197 26.378641,21.390197 h -0.07227 c -0.576097,0 -1.044922,0.472733 -1.044922,1.048828 v 0.445313 c 0,0.354405 0.08174,0.704494 0.240235,1.021484 l 0.783203,1.566406 c 0.523549,1.047097 1.594936,1.708985 2.765625,1.708985 h 0.01953 c 1.131178,0 2.108234,-0.800945 2.330078,-1.910157 l 1.277344,-6.378906 c 0.122507,-0.61253 0.183594,-1.236666 0.183594,-1.861328 v -0.02148 c 0,-0.576756 -0.470118,-1.048827 -1.046875,-1.048828 z m -19.529297,0.06641 c -0.845767,0 -1.542968,0.6972 -1.542969,1.542969 v 5.007812 c 0,0 -0.007,0.614914 0.308594,1.246094 0.315591,0.63118 1.056904,1.302734 2.240235,1.302734 h 5.126953 c 0.184881,0 0.324219,0.139337 0.324218,0.324219 v 2.253906 c 0,0.184882 -0.139337,0.322266 -0.324218,0.322266 h -6.125 c -0.850422,0 -1.550781,0.70036 -1.550782,1.550781 v 0.002 c 0.0014,0.848878 0.702129,1.547191 1.550782,1.546875 h 6.998047 c 1.183328,0 1.926596,-0.671554 2.242187,-1.302734 0.315591,-0.63118 0.308594,-1.246094 0.308594,-1.246094 V 17.569885 c 0,-0.845769 -0.697202,-1.542969 -1.542969,-1.542969 h -0.01367 c -0.845767,0 -1.542969,0.6972 -1.542969,1.542969 v 4.105468 c 0,0.200117 -0.151445,0.351563 -0.351562,0.351563 h -4.197266 c -0.200115,0 -0.351562,-0.151446 -0.351562,-0.351563 v -4.105468 c 0,-0.845769 -0.697202,-1.542969 -1.542969,-1.542969 z m 12.25586,12.375 c -0.717585,0 -1.308594,0.591009 -1.308594,1.308594 v 0.0078 c 0,0.717585 0.591009,1.308594 1.308594,1.308594 h 9.05664 c 0.717585,0 1.308595,-0.591009 1.308594,-1.308594 v -0.0078 c 10e-7,-0.717585 -0.591009,-1.308594 -1.308594,-1.308594 z" />
</svg>
