<?xml version="1.0" encoding="UTF-8" standalone="no"?>
<svg
   width="64"
   height="64"
   version="1.1"
   id="svg12"
   sodipodi:docname="yoshimi.svg"
   inkscape:version="1.4 (e7c3feb100, 2024-10-09)"
   xmlns:inkscape="http://www.inkscape.org/namespaces/inkscape"
   xmlns:sodipodi="http://sodipodi.sourceforge.net/DTD/sodipodi-0.dtd"
   xmlns:xlink="http://www.w3.org/1999/xlink"
   xmlns="http://www.w3.org/2000/svg"
   xmlns:svg="http://www.w3.org/2000/svg">
  <defs
     id="defs12">
    <linearGradient
       id="linearGradient14"
       inkscape:collect="always">
      <stop
         style="stop-color:#ff776d;stop-opacity:1;"
         offset="0"
         id="stop14" />
      <stop
         style="stop-color:#ff74b3;stop-opacity:1;"
         offset="1"
         id="stop15" />
    </linearGradient>
    <inkscape:path-effect
       effect="fillet_chamfer"
       id="path-effect12"
       is_visible="true"
       lpeversion="1"
       nodesatellites_param="F,0,1,1,0,2.0107383,0,1 @ F,0,1,1,0,2.0107383,0,1 @ F,0,1,1,0,2.0107383,0,1 @ F,0,0,1,0,2.0107383,0,1 | F,0,1,1,0,2.0107383,0,1 @ F,0,1,1,0,2.0107383,0,1 @ F,0,1,1,0,2.0107383,0,1 @ F,0,1,1,0,2.0107383,0,1 | F,0,1,1,0,2.0107383,0,1 @ F,0,1,1,0,2.0107383,0,1 @ F,0,1,1,0,2.0107383,0,1 @ F,0,1,1,0,2.0107383,0,1 | F,0,1,1,0,2.0107383,0,1 @ F,0,1,1,0,2.0107383,0,1 @ F,0,1,1,0,2.0107383,0,1 @ F,0,1,1,0,2.0107383,0,1 | F,0,1,1,0,2.0107383,0,1 @ F,0,1,1,0,2.0107383,0,1 @ F,0,1,1,0,2.0107383,0,1 @ F,0,1,1,0,2.0107383,0,1 | F,0,1,1,0,2.0107383,0,1 @ F,0,1,1,0,2.0107383,0,1 @ F,0,1,1,0,2.0107383,0,1 @ F,0,1,1,0,2.0107383,0,1 | F,0,1,1,0,2.0107383,0,1 @ F,0,1,1,0,2.0107383,0,1 @ F,0,1,1,0,2.0107383,0,1 @ F,0,1,1,0,2.0107383,0,1 | F,0,1,1,0,2.0107383,0,1 @ F,0,1,1,0,2.0107383,0,1 @ F,0,1,1,0,2.0107383,0,1 @ F,0,1,1,0,2.0107383,0,1 | F,0,1,1,0,2.0107383,0,1 @ F,0,1,1,0,2.0107383,0,1 @ F,0,1,1,0,2.0107383,0,1 @ F,0,1,1,0,2.0107383,0,1 | F,0,1,1,0,2.0107383,0,1 @ F,0,1,1,0,2.0107383,0,1 @ F,0,1,1,0,2.0107383,0,1 @ F,0,1,1,0,2.0107383,0,1"
       radius="0"
       unit="px"
       method="auto"
       mode="F"
       chamfer_steps="1"
       flexible="false"
       use_knot_distance="true"
       apply_no_radius="true"
       apply_with_radius="true"
       only_selected="false"
       hide_knots="false" />
    <radialGradient
       inkscape:collect="always"
       xlink:href="#linearGradient14"
       id="radialGradient15"
       cx="6.9048276"
       cy="60.095173"
       fx="6.9048276"
       fy="60.095173"
       r="25"
       gradientUnits="userSpaceOnUse"
       gradientTransform="matrix(2.5307675,0,0,2.5307675,-10.569686,-91.991739)" />
    <filter
       inkscape:collect="always"
       style="color-interpolation-filters:sRGB"
       id="filter15"
       x="-0.071736721"
       y="-0.31085912"
       width="1.1434734"
       height="1.6217182">
      <feGaussianBlur
         inkscape:collect="always"
         stdDeviation="0.73548116"
         id="feGaussianBlur15" />
    </filter>
    <filter
       inkscape:collect="always"
       style="color-interpolation-filters:sRGB"
       id="filter16"
       x="-0.057447055"
       y="-0.12925587"
       width="1.1148941"
       height="1.2585117">
      <feGaussianBlur
         inkscape:collect="always"
         stdDeviation="0.82003915"
         id="feGaussianBlur16" />
    </filter>
    <inkscape:path-effect
       effect="fillet_chamfer"
       id="path-effect12-7"
       is_visible="true"
       lpeversion="1"
       nodesatellites_param="F,0,1,1,0,2.0107383,0,1 @ F,0,1,1,0,2.0107383,0,1 @ F,0,1,1,0,2.0107383,0,1 @ F,0,0,1,0,2.0107383,0,1 | F,0,1,1,0,2.0107383,0,1 @ F,0,1,1,0,2.0107383,0,1 @ F,0,1,1,0,2.0107383,0,1 @ F,0,1,1,0,2.0107383,0,1 | F,0,1,1,0,2.0107383,0,1 @ F,0,1,1,0,2.0107383,0,1 @ F,0,1,1,0,2.0107383,0,1 @ F,0,1,1,0,2.0107383,0,1 | F,0,1,1,0,2.0107383,0,1 @ F,0,1,1,0,2.0107383,0,1 @ F,0,1,1,0,2.0107383,0,1 @ F,0,1,1,0,2.0107383,0,1 | F,0,1,1,0,2.0107383,0,1 @ F,0,1,1,0,2.0107383,0,1 @ F,0,1,1,0,2.0107383,0,1 @ F,0,1,1,0,2.0107383,0,1 | F,0,1,1,0,2.0107383,0,1 @ F,0,1,1,0,2.0107383,0,1 @ F,0,1,1,0,2.0107383,0,1 @ F,0,1,1,0,2.0107383,0,1 | F,0,1,1,0,2.0107383,0,1 @ F,0,1,1,0,2.0107383,0,1 @ F,0,1,1,0,2.0107383,0,1 @ F,0,1,1,0,2.0107383,0,1 | F,0,1,1,0,2.0107383,0,1 @ F,0,1,1,0,2.0107383,0,1 @ F,0,1,1,0,2.0107383,0,1 @ F,0,1,1,0,2.0107383,0,1 | F,0,1,1,0,2.0107383,0,1 @ F,0,1,1,0,2.0107383,0,1 @ F,0,1,1,0,2.0107383,0,1 @ F,0,1,1,0,2.0107383,0,1 | F,0,1,1,0,2.0107383,0,1 @ F,0,1,1,0,2.0107383,0,1 @ F,0,1,1,0,2.0107383,0,1 @ F,0,1,1,0,2.0107383,0,1"
       radius="0"
       unit="px"
       method="auto"
       mode="F"
       chamfer_steps="1"
       flexible="false"
       use_knot_distance="true"
       apply_no_radius="true"
       apply_with_radius="true"
       only_selected="false"
       hide_knots="false" />
    <filter
       inkscape:collect="always"
       style="color-interpolation-filters:sRGB"
       id="filter17"
       x="-0.062007329"
       y="-0.14173104"
       width="1.1240147"
       height="1.2834621">
      <feGaussianBlur
         inkscape:collect="always"
         stdDeviation="0.78509773"
         id="feGaussianBlur17" />
    </filter>
    <filter
       inkscape:collect="always"
       style="color-interpolation-filters:sRGB"
       id="filter18"
       x="-0.12964447"
       y="-0.11785631"
       width="1.2592889"
       height="1.2357126">
      <feGaussianBlur
         inkscape:collect="always"
         stdDeviation="2.6592597"
         id="feGaussianBlur18" />
    </filter>
  </defs>
  <sodipodi:namedview
     id="namedview12"
     pagecolor="#505050"
     bordercolor="#eeeeee"
     borderopacity="1"
     inkscape:showpageshadow="0"
     inkscape:pageopacity="0"
     inkscape:pagecheckerboard="0"
     inkscape:deskcolor="#505050"
     inkscape:zoom="13.169864"
     inkscape:cx="28.20834"
     inkscape:cy="39.787807"
     inkscape:current-layer="svg12" />
  <g
     id="g17"
     transform="matrix(0.92726523,0,0,0.92726523,2.3275126,2.3638402)">
    <path
       id="path3"
       style="fill:#434343;stroke-linecap:round"
       d="M 12.828125,5.0058594 A 2,2 0 0 0 11.75,5.4375 2,2 0 0 0 11.4375,8.25 l 4,5 A 2,2 0 0 0 18.25,13.5625 2,2 0 0 0 18.5625,10.75 l -4,-5 a 2,2 0 0 0 -1.341797,-0.7382812 2,2 0 0 0 -0.392578,-0.00586 z m 38.34375,0 A 2,2 0 0 0 50.779297,5.0117188 2,2 0 0 0 49.4375,5.75 l -4,5 A 2,2 0 0 0 45.75,13.5625 2,2 0 0 0 48.5625,13.25 l 4,-5 A 2,2 0 0 0 52.25,5.4375 2,2 0 0 0 51.171875,5.0058594 Z" />
    <rect
       x="7"
       y="10"
       width="50"
       height="50"
       ry="10.95302"
       style="fill:url(#radialGradient15)"
       id="rect6"
       rx="10.95302" />
  </g>
  <path
     id="path3-9"
     style="mix-blend-mode:normal;fill:none;stroke:#000000;stroke-width:0.2;stroke-linecap:round;stroke-dasharray:none;stroke-opacity:1;filter:url(#filter18)"
     d="M 12.828125,5.0058506 A 2,2 0 0 0 11.75,5.4374916 a 2,2 0 0 0 -0.3125,2.8125 l 2.128906,2.6621094 C 9.695473,12.59779 7,16.4476 7,20.953117 v 28.09375 c 0,6.067973 4.883199,10.953125 10.951172,10.953125 H 46.046875 C 52.114848,59.999992 57,55.11484 57,49.046867 v -28.09375 c 0,-4.50607 -2.696661,-8.355652 -6.568359,-10.041016 L 52.5625,8.2499916 a 2,2 0 0 0 -0.3125,-2.8125 2,2 0 0 0 -1.078125,-0.431641 2,2 0 0 0 -0.392578,0.0059 2,2 0 0 0 -1.341797,0.738282 L 46.03711,10.000033 H 17.962891 L 14.5625,5.7500326 a 2,2 0 0 0 -1.341797,-0.738282 2,2 0 0 0 -0.392578,-0.0059 z"
     transform="matrix(0.92726523,0,0,0.92726523,2.3275126,2.3638402)" />
  <path
     id="circle7"
     style="opacity:0.436727;fill:#77000d;fill-opacity:1;stroke-width:0.927265"
     d="m 22.727348,19.054614 a 7.4181219,7.4181219 0 0 0 -7.418122,7.418122 7.4181219,7.4181219 0 0 0 7.418122,7.418122 7.4181219,7.4181219 0 0 0 7.418122,-7.418122 7.4181219,7.4181219 0 0 0 -7.418122,-7.418122 z m 18.545304,0 a 7.4181219,7.4181219 0 0 0 -7.418121,7.418122 7.4181219,7.4181219 0 0 0 7.418121,7.418122 7.4181219,7.4181219 0 0 0 7.418122,-7.418122 7.4181219,7.4181219 0 0 0 -7.418122,-7.418122 z" />
  <path
     id="circle7-6"
     style="opacity:0.776043;fill:none;fill-opacity:1;stroke:#000000;stroke-width:0.2;stroke-dasharray:none;stroke-opacity:1;filter:url(#filter16)"
     d="m 22,18 a 8,8 0 0 0 -8,8 8,8 0 0 0 8,8 8,8 0 0 0 8,-8 8,8 0 0 0 -8,-8 z m 20,0 a 8,8 0 0 0 -8,8 8,8 0 0 0 8,8 8,8 0 0 0 8,-8 8,8 0 0 0 -8,-8 z"
     transform="matrix(0.92726523,0,0,0.92726523,2.3275126,2.3638402)" />
  <rect
     x="17.163755"
     y="38.527184"
     width="29.672487"
     height="12.981713"
     style="opacity:0.437;fill:#77000d;fill-opacity:1;stroke-width:0.927265"
     id="rect11"
     rx="3.8335261"
     ry="3.8335261" />
  <path
     d="M 18,43.010738 A 2.0000288,2.0000288 44.692373 0 0 20.010738,45 2.0000288,2.0000288 134.69237 0 0 22,42.989262 2.0000288,2.0000288 44.692373 0 0 19.989262,41 2.0000288,2.0000288 134.69237 0 0 18,43.010738 Z m 6,0 A 2.0000288,2.0000288 44.692373 0 0 26.010738,45 2.0000288,2.0000288 134.69237 0 0 28,42.989262 2.0000288,2.0000288 44.692373 0 0 25.989262,41 2.0000288,2.0000288 134.69237 0 0 24,43.010738 Z m 6,0 A 2.0000288,2.0000288 44.692373 0 0 32.010738,45 2.0000288,2.0000288 134.69237 0 0 34,42.989262 2.0000288,2.0000288 44.692373 0 0 31.989262,41 2.0000288,2.0000288 134.69237 0 0 30,43.010738 Z m 6,0 A 2.0000288,2.0000288 44.692373 0 0 38.010738,45 2.0000288,2.0000288 134.69237 0 0 40,42.989262 2.0000288,2.0000288 44.692373 0 0 37.989262,41 2.0000288,2.0000288 134.69237 0 0 36,43.010738 Z m 6,0 A 2.0000288,2.0000288 44.692373 0 0 44.010738,45 2.0000288,2.0000288 134.69237 0 0 46,42.989262 2.0000288,2.0000288 44.692373 0 0 43.989262,41 2.0000288,2.0000288 134.69237 0 0 42,43.010738 Z m -24,6 A 2.0000288,2.0000288 44.692373 0 0 20.010738,51 2.0000288,2.0000288 134.69237 0 0 22,48.989262 2.0000288,2.0000288 44.692373 0 0 19.989262,47 2.0000288,2.0000288 134.69237 0 0 18,49.010738 Z m 6,0 A 2.0000288,2.0000288 44.692373 0 0 26.010738,51 2.0000288,2.0000288 134.69237 0 0 28,48.989262 2.0000288,2.0000288 44.692373 0 0 25.989262,47 2.0000288,2.0000288 134.69237 0 0 24,49.010738 Z m 6,0 A 2.0000288,2.0000288 44.692373 0 0 32.010738,51 2.0000288,2.0000288 134.69237 0 0 34,48.989262 2.0000288,2.0000288 44.692373 0 0 31.989262,47 2.0000288,2.0000288 134.69237 0 0 30,49.010738 Z m 6,0 A 2.0000288,2.0000288 44.692373 0 0 38.010738,51 2.0000288,2.0000288 134.69237 0 0 40,48.989262 2.0000288,2.0000288 44.692373 0 0 37.989262,47 2.0000288,2.0000288 134.69237 0 0 36,49.010738 Z m 6,0 A 2.0000288,2.0000288 44.692373 0 0 44.010738,51 2.0000288,2.0000288 134.69237 0 0 46,48.989262 2.0000288,2.0000288 44.692373 0 0 43.989262,47 2.0000288,2.0000288 134.69237 0 0 42,49.010738 Z"
     style="fill:#ffffff"
     id="path11"
     inkscape:path-effect="#path-effect12"
     inkscape:original-d="m 18,41 v 4 h 4 v -4 z m 6,0 v 4 h 4 v -4 z m 6,0 v 4 h 4 v -4 z m 6,0 v 4 h 4 v -4 z m 6,0 v 4 h 4 v -4 z m -24,6 v 4 h 4 v -4 z m 6,0 v 4 h 4 v -4 z m 6,0 v 4 h 4 v -4 z m 6,0 v 4 h 4 v -4 z m 6,0 v 4 h 4 v -4 z"
     transform="matrix(0.92726523,0,0,0.92726523,2.3275126,2.3638402)" />
  <path
     id="rect11-5"
     style="opacity:0.624956;mix-blend-mode:normal;fill:none;fill-opacity:1;stroke:#000000;stroke-width:0.2;stroke-dasharray:none;stroke-opacity:1;filter:url(#filter17)"
     d="M 20.134766,39 C 17.844403,39 16,40.844403 16,43.134766 v 5.730468 C 16,51.155597 17.844403,53 20.134766,53 H 43.865234 C 46.155597,53 48,51.155597 48,48.865234 V 43.134766 C 48,40.844403 46.155597,39 43.865234,39 Z m -0.144532,2 A 2.0000288,2.0000288 0 0 1 22,42.990234 2.0000288,2.0000288 0 0 1 20.009766,45 2.0000288,2.0000288 0 0 1 18,43.009766 2.0000288,2.0000288 0 0 1 19.990234,41 Z m 6,0 A 2.0000288,2.0000288 0 0 1 28,42.990234 2.0000288,2.0000288 0 0 1 26.009766,45 2.0000288,2.0000288 0 0 1 24,43.009766 2.0000288,2.0000288 0 0 1 25.990234,41 Z m 6,0 A 2.0000288,2.0000288 0 0 1 34,42.990234 2.0000288,2.0000288 0 0 1 32.009766,45 2.0000288,2.0000288 0 0 1 30,43.009766 2.0000288,2.0000288 0 0 1 31.990234,41 Z m 6,0 A 2.0000288,2.0000288 0 0 1 40,42.990234 2.0000288,2.0000288 0 0 1 38.009766,45 2.0000288,2.0000288 0 0 1 36,43.009766 2.0000288,2.0000288 0 0 1 37.990234,41 Z m 6,0 A 2.0000288,2.0000288 0 0 1 46,42.990234 2.0000288,2.0000288 0 0 1 44.009766,45 2.0000288,2.0000288 0 0 1 42,43.009766 2.0000288,2.0000288 0 0 1 43.990234,41 Z m -24,6 A 2.0000288,2.0000288 0 0 1 22,48.990234 2.0000288,2.0000288 0 0 1 20.009766,51 2.0000288,2.0000288 0 0 1 18,49.009766 2.0000288,2.0000288 0 0 1 19.990234,47 Z m 6,0 A 2.0000288,2.0000288 0 0 1 28,48.990234 2.0000288,2.0000288 0 0 1 26.009766,51 2.0000288,2.0000288 0 0 1 24,49.009766 2.0000288,2.0000288 0 0 1 25.990234,47 Z m 6,0 A 2.0000288,2.0000288 0 0 1 34,48.990234 2.0000288,2.0000288 0 0 1 32.009766,51 2.0000288,2.0000288 0 0 1 30,49.009766 2.0000288,2.0000288 0 0 1 31.990234,47 Z m 6,0 A 2.0000288,2.0000288 0 0 1 40,48.990234 2.0000288,2.0000288 0 0 1 38.009766,51 2.0000288,2.0000288 0 0 1 36,49.009766 2.0000288,2.0000288 0 0 1 37.990234,47 Z m 6,0 A 2.0000288,2.0000288 0 0 1 46,48.990234 2.0000288,2.0000288 0 0 1 44.009766,51 2.0000288,2.0000288 0 0 1 42,49.009766 2.0000288,2.0000288 0 0 1 43.990234,47 Z"
     transform="matrix(0.92726523,0,0,0.92726523,2.3275126,2.3638402)" />
  <path
     id="circle9"
     style="fill:#363636;fill-opacity:1;stroke-width:0.927265"
     d="m 22.727348,23.690941 a 2.7817957,2.7817957 0 0 0 -2.781796,2.781795 2.7817957,2.7817957 0 0 0 2.781796,2.781796 2.7817957,2.7817957 0 0 0 2.781795,-2.781796 2.7817957,2.7817957 0 0 0 -2.781795,-2.781795 z m 18.545304,0 a 2.7817957,2.7817957 0 0 0 -2.781795,2.781795 2.7817957,2.7817957 0 0 0 2.781795,2.781796 2.7817957,2.7817957 0 0 0 2.781796,-2.781796 2.7817957,2.7817957 0 0 0 -2.781796,-2.781795 z" />
  <path
     id="circle9-3"
     style="mix-blend-mode:normal;fill:none;fill-opacity:1;stroke:#000000;stroke-width:0.2;stroke-dasharray:none;stroke-opacity:1;filter:url(#filter15)"
     d="m 22,23 a 3,3 0 0 0 -3,3 3,3 0 0 0 3,3 3,3 0 0 0 3,-3 3,3 0 0 0 -3,-3 z m 20,0 a 3,3 0 0 0 -3,3 3,3 0 0 0 3,3 3,3 0 0 0 3,-3 3,3 0 0 0 -3,-3 z"
     transform="matrix(0.92726523,0,0,0.92726523,2.3275126,2.3638402)" />
</svg>
