<?xml version="1.0" encoding="UTF-8" standalone="no"?>
<svg
   width="64"
   height="64"
   version="1.1"
   id="svg5"
   sodipodi:docname="youdao-dict.svg"
   inkscape:version="1.4 (e7c3feb100, 2024-10-09)"
   xmlns:inkscape="http://www.inkscape.org/namespaces/inkscape"
   xmlns:sodipodi="http://sodipodi.sourceforge.net/DTD/sodipodi-0.dtd"
   xmlns:xlink="http://www.w3.org/1999/xlink"
   xmlns="http://www.w3.org/2000/svg"
   xmlns:svg="http://www.w3.org/2000/svg">
  <defs
     id="defs5">
    <linearGradient
       id="linearGradient5"
       inkscape:collect="always">
      <stop
         style="stop-color:#00d8ff;stop-opacity:1;"
         offset="0"
         id="stop5" />
      <stop
         style="stop-color:#0081ff;stop-opacity:1;"
         offset="1"
         id="stop6" />
    </linearGradient>
    <inkscape:path-effect
       effect="fillet_chamfer"
       id="path-effect5"
       is_visible="true"
       lpeversion="1"
       nodesatellites_param="F,0,0,1,0,0,0,1 @ F,0,0,1,0,0,0,1 @ F,0,0,1,0,0,0,1 @ F,0,0,1,0,0,0,1 @ F,0,0,1,0,0,0,1 @ F,0,0,1,0,0,0,1 @ F,0,0,1,0,0,0,1 @ F,0,0,1,0,0,0,1 | F,0,0,1,0,4.237895,0,1 @ F,0,0,1,0,0,0,1 @ F,0,0,1,0,0,0,1 @ F,0,0,1,0,2.5033557,0,1 @ F,0,0,1,0,0,0,1 @ F,0,0,1,0,1.6011935,0,1 @ F,0,0,1,0,1.6011935,0,1 @ F,0,0,1,0,0,0,1 @ F,0,0,1,0,2.4900082,0,1 @ F,0,0,1,0,0,0,1 @ F,0,0,1,0,0,0,1 @ F,0,0,1,0,5.1555474,0,1 @ F,0,0,1,0,0,0,1 @ F,0,0,1,0,3.5676834,0,1 @ F,0,0,1,0,3.5676834,0,1 @ F,0,0,1,0,0,0,1 | F,0,0,1,0,0,0,1 @ F,0,0,1,0,0,0,1 @ F,0,0,1,0,0,0,1 @ F,0,0,1,0,0,0,1"
       radius="0"
       unit="px"
       method="auto"
       mode="F"
       chamfer_steps="1"
       flexible="false"
       use_knot_distance="true"
       apply_no_radius="true"
       apply_with_radius="true"
       only_selected="false"
       hide_knots="false" />
    <inkscape:path-effect
       effect="fillet_chamfer"
       id="path-effect5-6"
       is_visible="true"
       lpeversion="1"
       nodesatellites_param="F,0,0,1,0,0,0,1 @ F,0,0,1,0,0,0,1 @ F,0,0,1,0,0,0,1 @ F,0,0,1,0,0,0,1 @ F,0,0,1,0,0,0,1 @ F,0,0,1,0,0,0,1 @ F,0,0,1,0,0,0,1 @ F,0,0,1,0,0,0,1 | F,0,0,1,0,4.237895,0,1 @ F,0,0,1,0,0,0,1 @ F,0,0,1,0,0,0,1 @ F,0,0,1,0,2.5033557,0,1 @ F,0,0,1,0,0,0,1 @ F,0,0,1,0,1.6011935,0,1 @ F,0,0,1,0,1.6011935,0,1 @ F,0,0,1,0,0,0,1 @ F,0,0,1,0,2.4900082,0,1 @ F,0,0,1,0,0,0,1 @ F,0,0,1,0,0,0,1 @ F,0,0,1,0,5.1555474,0,1 @ F,0,0,1,0,0,0,1 @ F,0,0,1,0,3.5676834,0,1 @ F,0,0,1,0,3.5676834,0,1 @ F,0,0,1,0,0,0,1 | F,0,0,1,0,0,0,1 @ F,0,0,1,0,0,0,1 @ F,0,0,1,0,0,0,1 @ F,0,0,1,0,0,0,1"
       radius="0"
       unit="px"
       method="auto"
       mode="F"
       chamfer_steps="1"
       flexible="false"
       use_knot_distance="true"
       apply_no_radius="true"
       apply_with_radius="true"
       only_selected="false"
       hide_knots="false" />
    <radialGradient
       inkscape:collect="always"
       xlink:href="#linearGradient5"
       id="radialGradient6"
       cx="5.6245055"
       cy="60.211941"
       fx="5.6245055"
       fy="60.211941"
       r="26.419922"
       gradientUnits="userSpaceOnUse"
       gradientTransform="matrix(3.00784,0,0,3.0078402,-11.33372,-121.94011)" />
    <inkscape:path-effect
       effect="fillet_chamfer"
       id="path-effect5-5"
       is_visible="true"
       lpeversion="1"
       nodesatellites_param="F,0,0,1,0,0,0,1 @ F,0,0,1,0,0,0,1 @ F,0,0,1,0,0,0,1 @ F,0,0,1,0,0,0,1 @ F,0,0,1,0,0,0,1 @ F,0,0,1,0,0,0,1 @ F,0,0,1,0,0,0,1 @ F,0,0,1,0,0,0,1 | F,0,0,1,0,4.237895,0,1 @ F,0,0,1,0,0,0,1 @ F,0,0,1,0,0,0,1 @ F,0,0,1,0,2.5033557,0,1 @ F,0,0,1,0,0,0,1 @ F,0,0,1,0,1.6011935,0,1 @ F,0,0,1,0,1.6011935,0,1 @ F,0,0,1,0,0,0,1 @ F,0,0,1,0,2.4900082,0,1 @ F,0,0,1,0,0,0,1 @ F,0,0,1,0,0,0,1 @ F,0,0,1,0,5.1555474,0,1 @ F,0,0,1,0,0,0,1 @ F,0,0,1,0,3.5676834,0,1 @ F,0,0,1,0,3.5676834,0,1 @ F,0,0,1,0,0,0,1 | F,0,0,1,0,0,0,1 @ F,0,0,1,0,0,0,1 @ F,0,0,1,0,0,0,1 @ F,0,0,1,0,0,0,1"
       radius="0"
       unit="px"
       method="auto"
       mode="F"
       chamfer_steps="1"
       flexible="false"
       use_knot_distance="true"
       apply_no_radius="true"
       apply_with_radius="true"
       only_selected="false"
       hide_knots="false" />
    <filter
       inkscape:collect="always"
       style="color-interpolation-filters:sRGB"
       id="filter6"
       x="-0.098519198"
       y="-0.098519198"
       width="1.1974913"
       height="1.1974913">
      <feGaussianBlur
         inkscape:collect="always"
         stdDeviation="1.6824193"
         id="feGaussianBlur6" />
    </filter>
    <filter
       inkscape:collect="always"
       style="color-interpolation-filters:sRGB"
       id="filter7"
       x="-0.10651216"
       y="-0.10651216"
       width="1.2133843"
       height="1.2133843">
      <feGaussianBlur
         inkscape:collect="always"
         stdDeviation="2.3033691"
         id="feGaussianBlur7" />
    </filter>
  </defs>
  <sodipodi:namedview
     id="namedview5"
     pagecolor="#505050"
     bordercolor="#eeeeee"
     borderopacity="1"
     inkscape:showpageshadow="0"
     inkscape:pageopacity="0"
     inkscape:pagecheckerboard="0"
     inkscape:deskcolor="#505050"
     inkscape:zoom="9.3125"
     inkscape:cx="41.127517"
     inkscape:cy="32.751678"
     inkscape:current-layer="svg5" />
  <path
     style="fill:url(#radialGradient6)"
     d="m 23.029297,5.5800781 c -9.578738,0 -17.4492189,7.8704809 -17.4492189,17.4492189 0,4.361702 1.6869502,8.320909 4.3691408,11.392578 -2.9813325,3.768401 -3.3934598,9.07192 -0.6796876,13.142578 l 7.2382817,10.855469 3.585937,-1.195313 c 0,0 6.839849,-2.340953 20.994141,-2.701171 3.735256,-0.09506 6.729529,-1.282264 9.464843,-4.017579 2.735002,-2.735001 3.876478,-5.715953 3.970704,-9.417968 C 54.883694,26.933873 57.22461,20.09375 57.224609,20.09375 L 58.419922,16.507813 46.800781,8.7617188 C 42.903333,6.1634197 37.694558,6.658954 34.294922,9.8437499 31.239896,7.2258514 27.332109,5.5800781 23.029297,5.5800781 Z"
     id="path3-7"
     sodipodi:nodetypes="ssccccsssccscs" />
  <path
     style="fill:none;stroke:#000000;stroke-opacity:1;stroke-width:0.2;stroke-dasharray:none;filter:url(#filter7)"
     d="m 23.029297,5.580078 c -9.578738,0 -17.449219,7.870481 -17.449219,17.449219 0,4.361702 1.68695,8.320909 4.369141,11.392578 -2.981333,3.768401 -3.39346,9.07192 -0.679688,13.142578 l 7.238282,10.855469 3.585937,-1.195313 c 0,0 6.839849,-2.340953 20.994141,-2.701171 3.735256,-0.09506 6.729529,-1.282264 9.464843,-4.017579 2.735002,-2.735001 3.876478,-5.715953 3.970704,-9.417968 C 54.883694,26.933873 57.22461,20.09375 57.224609,20.09375 L 58.419922,16.507813 46.800781,8.761719 C 42.903333,6.16342 37.694558,6.658954 34.294922,9.84375 31.239896,7.225851 27.332109,5.580078 23.029297,5.580078 Z"
     id="path3-7-9"
     sodipodi:nodetypes="ssccccsssccscs" />
  <path
     id="path3"
     style="fill:#ffffff"
     d="M 23.5,11 C 16.596441,11 11,16.596441 11,23.5 11,30.403559 16.596441,36 23.5,36 c 2.08619,-0.0043 4.138119,-0.530752 5.96875,-1.53125 L 36,41 41,36 34.478516,29.478516 C 35.477195,27.644089 36.000286,25.588656 36,23.5 36,16.596441 30.403559,11 23.5,11 Z M 38.003356,13.996644 36,16 l 2,3 0.611388,-0.917082 a 2.3681406,2.3681406 170.27998 0 1 3.391297,-0.580905 L 48,22 c 0,0 -2.77073,5.54146 -2.986686,18.399548 -0.01484,0.883811 -0.520224,2.107362 -1.145529,2.732667 l -0.73557,0.73557 C 42.50691,44.49309 41.28306,44.998468 40.398881,45.013325 27.541268,45.229366 22,48 22,48 l -4.505995,-6.007993 a 2.3555141,2.3555141 99.720017 0 1 0.577807,-3.373215 L 19,38 16,36 14.645523,37.354477 a 6.2887568,6.2887568 95.654966 0 0 -0.78574,7.935198 L 19,53 c 0,0 7.743746,-2.581249 22.433127,-2.955085 1.969448,-0.05012 4.696339,-1.174381 6.089606,-2.567648 1.368179,-1.368179 2.47206,-4.074885 2.522193,-6.044571 C 50.418802,26.743594 53,19 53,19 l -8.473858,-5.649239 a 5.1694009,5.1694009 174.34503 0 0 -6.522786,0.645883 z M 23.5,17 C 27.089851,17 30,19.910149 30,23.5 30,27.089851 27.089851,30 23.5,30 19.910149,30 17,27.089851 17,23.5 17,19.910149 19.910149,17 23.5,17 Z"
     inkscape:original-d="M 23.5,11 A 12.5,12.5 0 0 0 11,23.5 12.5,12.5 0 0 0 23.5,36 12.5,12.5 0 0 0 29.46875,34.46875 L 36,41 41,36 34.478516,29.478516 A 12.5,12.5 0 0 0 36,23.5 12.5,12.5 0 0 0 23.5,11 Z m 17.5,0 -5,5 2,3 2,-3 8,6 c 0,0 -3,6 -3,20 l -3,3 c -14,0 -20,3 -20,3 l -6,-8 3,-2 -3,-2 -5,5 8,12 c 0,0 9,-3 26,-3 l 5,-5 C 50,28 53,19 53,19 Z M 23.5,17 A 6.5,6.5 0 0 1 30,23.5 6.5,6.5 0 0 1 23.5,30 6.5,6.5 0 0 1 17,23.5 6.5,6.5 0 0 1 23.5,17 Z"
     inkscape:path-effect="#path-effect5" />
  <path
     id="path3-3"
     style="fill:none;stroke:#000000;stroke-opacity:1;stroke-width:0.2;stroke-dasharray:none;filter:url(#filter6)"
     d="M 23.5,11 C 16.596441,11 11,16.596441 11,23.5 11,30.403559 16.596441,36 23.5,36 c 2.08619,-0.0043 4.138119,-0.530752 5.96875,-1.53125 L 36,41 41,36 34.478516,29.478516 C 35.477195,27.644089 36.000286,25.588656 36,23.5 36,16.596441 30.403559,11 23.5,11 Z M 38.003356,13.996644 36,16 l 2,3 0.611388,-0.917082 a 2.3681406,2.3681406 170.27998 0 1 3.391297,-0.580905 L 48,22 c 0,0 -2.77073,5.54146 -2.986686,18.399548 -0.01484,0.883811 -0.520224,2.107362 -1.145529,2.732667 l -0.73557,0.73557 C 42.50691,44.49309 41.28306,44.998468 40.398881,45.013325 27.541268,45.229366 22,48 22,48 l -4.505995,-6.007993 a 2.3555141,2.3555141 99.720017 0 1 0.577807,-3.373215 L 19,38 16,36 14.645523,37.354477 a 6.2887568,6.2887568 95.654966 0 0 -0.78574,7.935198 L 19,53 c 0,0 7.743746,-2.581249 22.433127,-2.955085 1.969448,-0.05012 4.696339,-1.174381 6.089606,-2.567648 1.368179,-1.368179 2.47206,-4.074885 2.522193,-6.044571 C 50.418802,26.743594 53,19 53,19 l -8.473858,-5.649239 a 5.1694009,5.1694009 174.34503 0 0 -6.522786,0.645883 z M 23.5,17 C 27.089851,17 30,19.910149 30,23.5 30,27.089851 27.089851,30 23.5,30 19.910149,30 17,27.089851 17,23.5 17,19.910149 19.910149,17 23.5,17 Z"
     inkscape:original-d="M 23.5,11 A 12.5,12.5 0 0 0 11,23.5 12.5,12.5 0 0 0 23.5,36 12.5,12.5 0 0 0 29.46875,34.46875 L 36,41 41,36 34.478516,29.478516 A 12.5,12.5 0 0 0 36,23.5 12.5,12.5 0 0 0 23.5,11 Z m 17.5,0 -5,5 2,3 2,-3 8,6 c 0,0 -3,6 -3,20 l -3,3 c -14,0 -20,3 -20,3 l -6,-8 3,-2 -3,-2 -5,5 8,12 c 0,0 9,-3 26,-3 l 5,-5 C 50,28 53,19 53,19 Z M 23.5,17 A 6.5,6.5 0 0 1 30,23.5 6.5,6.5 0 0 1 23.5,30 6.5,6.5 0 0 1 17,23.5 6.5,6.5 0 0 1 23.5,17 Z"
     inkscape:path-effect="#path-effect5-5" />
</svg>
