<?xml version="1.0" encoding="UTF-8" standalone="no"?>
<svg
   width="64"
   height="64"
   version="1"
   id="svg5"
   sodipodi:docname="youtube.svg"
   inkscape:version="1.3.2 (091e20ef0f, 2023-11-25, custom)"
   xmlns:inkscape="http://www.inkscape.org/namespaces/inkscape"
   xmlns:sodipodi="http://sodipodi.sourceforge.net/DTD/sodipodi-0.dtd"
   xmlns:xlink="http://www.w3.org/1999/xlink"
   xmlns="http://www.w3.org/2000/svg"
   xmlns:svg="http://www.w3.org/2000/svg">
  <defs
     id="defs5">
    <linearGradient
       id="linearGradient5"
       inkscape:collect="always">
      <stop
         style="stop-color:#ff5f58;stop-opacity:1;"
         offset="0"
         id="stop5" />
      <stop
         style="stop-color:#ff3030;stop-opacity:1;"
         offset="1"
         id="stop6" />
    </linearGradient>
    <inkscape:path-effect
       effect="fillet_chamfer"
       id="path-effect5"
       is_visible="true"
       lpeversion="1"
       nodesatellites_param="F,0,0,1,0,3.9204598,0,1 @ F,0,1,1,0,3.9204598,0,1 @ F,0,1,1,0,3.9204598,0,1"
       radius="0"
       unit="px"
       method="auto"
       mode="F"
       chamfer_steps="1"
       flexible="false"
       use_knot_distance="true"
       apply_no_radius="true"
       apply_with_radius="true"
       only_selected="false"
       hide_knots="false" />
    <radialGradient
       inkscape:collect="always"
       xlink:href="#linearGradient5"
       id="radialGradient6"
       cx="7.5437222"
       cy="10.500487"
       fx="7.5437222"
       fy="10.500487"
       r="28"
       gradientTransform="matrix(1.8228986,1.052451,-0.75175072,1.3020705,2.7480114,-4.3016884)"
       gradientUnits="userSpaceOnUse" />
    <inkscape:path-effect
       effect="fillet_chamfer"
       id="path-effect5-3"
       is_visible="true"
       lpeversion="1"
       nodesatellites_param="F,0,1,1,0,3.9720929,0,1 @ F,0,1,1,0,3.9720929,0,1 @ F,0,1,1,0,3.9720929,0,1"
       radius="0"
       unit="px"
       method="auto"
       mode="F"
       chamfer_steps="1"
       flexible="false"
       use_knot_distance="true"
       apply_no_radius="true"
       apply_with_radius="true"
       only_selected="false"
       hide_knots="false" />
    <filter
       inkscape:collect="always"
       style="color-interpolation-filters:sRGB"
       id="filter7"
       x="-0.096541876"
       y="-0.13515956"
       width="1.1931199"
       height="1.2703241">
      <feGaussianBlur
         inkscape:collect="always"
         stdDeviation="1.9426019"
         id="feGaussianBlur7" />
    </filter>
    <filter
       inkscape:collect="always"
       style="color-interpolation-filters:sRGB"
       id="filter8"
       x="-0.23281911"
       y="-0.21484291"
       width="1.4653072"
       height="1.4296876">
      <feGaussianBlur
         inkscape:collect="always"
         stdDeviation="1.0810727"
         id="feGaussianBlur8" />
    </filter>
  </defs>
  <sodipodi:namedview
     id="namedview5"
     pagecolor="#505050"
     bordercolor="#eeeeee"
     borderopacity="1"
     inkscape:showpageshadow="0"
     inkscape:pageopacity="0"
     inkscape:pagecheckerboard="0"
     inkscape:deskcolor="#505050"
     inkscape:zoom="12.109375"
     inkscape:cx="36.211613"
     inkscape:cy="28.325161"
     inkscape:window-width="1920"
     inkscape:window-height="1011"
     inkscape:window-x="0"
     inkscape:window-y="0"
     inkscape:window-maximized="1"
     inkscape:current-layer="svg5" />
  <path
     style="fill:url(#radialGradient6);stroke-width:0.956574"
     d="M 27.595246,51.097084 C 18.741276,50.925365 15.147578,50.773744 12.950051,50.47919 11.338521,50.263173 10.547105,50.052581 9.6545122,49.602259 8.1802907,48.858509 7.2634449,47.82139 6.6017851,46.14907 5.99684,44.620141 5.7505204,43.405783 5.5244629,40.83778 5.2693577,37.939773 5.2494169,37.41513 5.2229273,32.899814 5.1917206,27.589791 5.2545383,25.849743 5.6039975,22.325237 5.7872548,20.477511 6.0543459,19.249542 6.556212,17.947361 c 0.4570566,-1.185872 0.874339,-1.84034 1.6332258,-2.561559 0.9537804,-0.906438 2.0012652,-1.457461 3.3236222,-1.748344 1.97377,-0.434181 10.894915,-0.768942 20.491488,-0.768942 9.59657,0 18.517716,0.334761 20.491486,0.768942 1.427416,0.313998 2.475048,0.893984 3.497208,1.936107 0.800014,0.815635 1.21206,1.556773 1.702409,3.062177 0.505255,1.551144 0.699024,2.923895 0.986123,6.986168 0.13633,1.929114 0.136311,10.809468 0,12.737634 -0.159518,2.255651 -0.355265,4.264365 -0.485609,4.983121 -0.335096,1.847891 -0.993234,3.578027 -1.735246,4.561723 -0.509084,0.674893 -1.514049,1.479037 -2.354413,1.883932 -0.850943,0.409996 -1.661684,0.613257 -2.968678,0.744319 -4.050033,0.40612 -16.417525,0.702646 -23.542528,0.564445 z"
     id="path2" />
  <path
     style="fill:#ffffff"
     d="m 37.600533,30.069435 -7.162371,-4.115867 a 2.2702844,2.2702844 149.95843 0 0 -3.401439,1.967114 l -0.0047,8.144533 a 2.2764427,2.2764427 30.174871 0 0 3.403747,1.97903 l 7.157931,-4.080036 a 2.243775,2.243775 90.100328 0 0 0.0068,-3.894774 z"
     id="path4"
     inkscape:path-effect="#path-effect5"
     inkscape:original-d="m 40.999716,32.02278 -13.960737,-8.022557 -0.0092,15.985451 z"
     sodipodi:nodetypes="cccc"
     transform="matrix(1.2385531,0,0,1.2385531,-9.2882996,-7.628221)" />
  <path
     style="mix-blend-mode:normal;fill:none;stroke:#000000;stroke-width:0.4;stroke-dasharray:none;stroke-opacity:1;filter:url(#filter7)"
     d="M 27.858788,49.954722 C 19.534453,49.793275 16.155726,49.650724 14.089653,49.37379 12.574523,49.170695 11.830449,48.9727 10.99125,48.549316 9.6052148,47.850056 8.7432138,46.874977 8.1211338,45.302693 c -0.568758,-1.43747 -0.800343,-2.579186 -1.012878,-4.993574 -0.239845,-2.724652 -0.258593,-3.217911 -0.283498,-7.463126 -0.02934,-4.992383 0.02972,-6.628343 0.358275,-9.942017 0.172295,-1.737197 0.423409,-2.89171 0.895254,-4.115996 0.429716,-1.114934 0.822037,-1.730253 1.535528,-2.408329 0.8967262,-0.852216 1.8815512,-1.370277 3.1248062,-1.64376 1.855702,-0.408209 10.243193,-0.722945 19.265709,-0.722945 9.022514,0 17.410006,0.314736 19.265707,0.722945 1.34203,0.295215 2.326994,0.840507 3.288009,1.820291 0.752158,0.766845 1.139556,1.463649 1.600573,2.879001 0.475031,1.458356 0.657209,2.748991 0.927134,6.568263 0.128175,1.813716 0.128157,10.162857 0,11.975682 -0.149976,2.120721 -0.334013,4.009275 -0.45656,4.685036 -0.315051,1.737352 -0.93382,3.363993 -1.631446,4.288846 -0.478631,0.634521 -1.42348,1.390562 -2.213574,1.771237 -0.800041,0.38547 -1.562284,0.576573 -2.791095,0.699795 -3.807764,0.381826 -15.435446,0.660614 -22.134239,0.53068 z"
     id="path2-3"
     transform="matrix(1.0636249,0,0,1.0636249,-2.0360551,-2.0360029)" />
  <path
     style="mix-blend-mode:normal;fill:none;stroke:#ff0002;stroke-width:0.24221813;stroke-dasharray:none;stroke-opacity:1;filter:url(#filter8)"
     d="M 37.555765,30.043709 30.48293,25.979294 a 2.3001845,2.3001845 149.95843 0 0 -3.446237,1.993021 l -0.0046,8.041267 a 2.3064238,2.3064238 30.174871 0 0 3.448575,2.005094 l 7.068215,-4.028898 a 2.2733258,2.2733258 90.100328 0 0 0.0069,-3.946069 z"
     id="path4-5"
     inkscape:path-effect="#path-effect5-3"
     inkscape:original-d="m 40.999716,32.02278 -13.960737,-8.022557 -0.0092,15.985451 z"
     sodipodi:nodetypes="cccc"
     transform="matrix(1.2385531,0,0,1.2385531,-9.3030317,-7.6429531)" />
</svg>
