<?xml version="1.0" encoding="UTF-8" standalone="no"?>
<svg
   width="64"
   height="64"
   version="1"
   id="svg12"
   sodipodi:docname="youtrack.svg"
   inkscape:version="1.4 (e7c3feb100, 2024-10-09)"
   xmlns:inkscape="http://www.inkscape.org/namespaces/inkscape"
   xmlns:sodipodi="http://sodipodi.sourceforge.net/DTD/sodipodi-0.dtd"
   xmlns:xlink="http://www.w3.org/1999/xlink"
   xmlns="http://www.w3.org/2000/svg"
   xmlns:svg="http://www.w3.org/2000/svg">
  <defs
     id="defs12">
    <linearGradient
       id="linearGradient13"
       inkscape:collect="always">
      <stop
         style="stop-color:#ff4e7d;stop-opacity:1;"
         offset="0"
         id="stop12" />
      <stop
         style="stop-color:#ffb86d;stop-opacity:1;"
         offset="1"
         id="stop13" />
    </linearGradient>
    <radialGradient
       inkscape:collect="always"
       xlink:href="#linearGradient13"
       id="radialGradient15-9"
       cx="2.5464683"
       cy="39.483047"
       fx="2.5464683"
       fy="39.483047"
       r="28"
       gradientTransform="matrix(6.4995818,3.7525353,-4.0237754,6.9693839,109.36858,-229.1834)"
       gradientUnits="userSpaceOnUse" />
    <linearGradient
       id="linearGradient14"
       inkscape:collect="always">
      <stop
         style="stop-color:#717171;stop-opacity:1;"
         offset="0"
         id="stop14" />
      <stop
         style="stop-color:#555555;stop-opacity:1;"
         offset="1"
         id="stop15" />
    </linearGradient>
    <filter
       inkscape:collect="always"
       style="color-interpolation-filters:sRGB"
       id="filter2-5"
       x="-0.1103489"
       y="-0.12359076"
       width="1.2206978"
       height="1.2471815">
      <feGaussianBlur
         inkscape:collect="always"
         stdDeviation="2.5300138"
         id="feGaussianBlur2-3" />
    </filter>
    <radialGradient
       inkscape:collect="always"
       xlink:href="#linearGradient14"
       id="radialGradient15-9-3"
       cx="5.8015566"
       cy="34.666862"
       fx="5.8015566"
       fy="34.666862"
       r="28"
       gradientTransform="matrix(1.6329095,0.89546594,-0.96019184,1.7509393,35.227207,-32.023623)"
       gradientUnits="userSpaceOnUse" />
    <filter
       inkscape:collect="always"
       style="color-interpolation-filters:sRGB"
       id="filter13"
       x="-0.12702903"
       y="-0.12704575"
       width="1.2540809"
       height="1.2540915">
      <feGaussianBlur
         inkscape:collect="always"
         stdDeviation="1.1117622"
         id="feGaussianBlur13" />
    </filter>
    <filter
       inkscape:collect="always"
       style="color-interpolation-filters:sRGB"
       id="filter14"
       x="-0.081516418"
       y="-0.091298386"
       width="1.1630328"
       height="1.1825968">
      <feGaussianBlur
         inkscape:collect="always"
         stdDeviation="1.4529262"
         id="feGaussianBlur14" />
    </filter>
  </defs>
  <sodipodi:namedview
     id="namedview12"
     pagecolor="#505050"
     bordercolor="#eeeeee"
     borderopacity="1"
     inkscape:showpageshadow="0"
     inkscape:pageopacity="0"
     inkscape:pagecheckerboard="0"
     inkscape:deskcolor="#505050"
     inkscape:zoom="3.231699"
     inkscape:cx="87.724755"
     inkscape:cy="44.558606"
     inkscape:current-layer="svg12" />
  <rect
     style="fill:url(#radialGradient15-9);stroke-width:0.2;stroke-dasharray:none"
     width="52.09066"
     height="46.509518"
     x="5.9088101"
     y="8.7241611"
     rx="10.057882"
     ry="9.5330811"
     id="rect2" />
  <rect
     style="fill:url(#radialGradient15-9-3);stroke-width:0.16895;stroke-dasharray:none"
     width="44.003685"
     height="39.289005"
     x="9.9981575"
     y="12.355497"
     rx="6.7402668"
     ry="6.7402668"
     id="rect2-5" />
  <rect
     style="fill:none;stroke-width:0.2;stroke-dasharray:none;stroke:#000000;stroke-opacity:1;filter:url(#filter14)"
     width="44.003685"
     height="39.289005"
     x="9.9981575"
     y="12.355497"
     rx="6.7402668"
     ry="6.7402668"
     id="rect2-5-7" />
  <rect
     style="fill:none;stroke:#000000;stroke-width:0.21501;stroke-dasharray:none;stroke-opacity:1;filter:url(#filter2-5)"
     width="56"
     height="50"
     x="4.049305"
     y="7.0226612"
     rx="10.812714"
     ry="10.248527"
     id="rect2-5-9"
     transform="matrix(0.93019037,0,0,0.93019037,2.188047,2.21283)" />
  <path
     id="path8"
     style="fill:#ffffff;stroke-linecap:round"
     d="M 15.947266 16.945312 A 1.3617899 1.3617899 0 0 0 15.150391 17.21875 A 1.3617899 1.3617899 0 0 0 14.878906 19.125 L 18.691406 24.207031 L 18.691406 29.201172 A 1.3617899 1.3617899 0 0 0 20.054688 30.564453 A 1.3617899 1.3617899 0 0 0 21.416016 29.201172 L 21.416016 24.207031 L 25.228516 19.125 A 1.3617899 1.3617899 0 0 0 24.957031 17.21875 A 1.3617899 1.3617899 0 0 0 23.048828 17.490234 L 20.054688 21.484375 L 17.058594 17.490234 A 1.3617899 1.3617899 0 0 0 15.947266 16.945312 z M 29.585938 16.945312 A 1.3617899 1.3617899 0 0 0 28.224609 18.308594 A 1.3617899 1.3617899 0 0 0 29.585938 19.669922 L 30.947266 19.669922 L 30.947266 29.201172 A 1.3617899 1.3617899 0 0 0 32.310547 30.564453 A 1.3617899 1.3617899 0 0 0 33.671875 29.201172 L 33.671875 19.669922 L 35.033203 19.669922 A 1.3617899 1.3617899 0 0 0 36.394531 18.308594 A 1.3617899 1.3617899 0 0 0 35.033203 16.945312 L 32.310547 16.945312 L 29.585938 16.945312 z M 15.96875 36.011719 A 1.3617899 1.3617899 0 0 0 14.607422 37.373047 A 1.3617899 1.3617899 0 0 0 15.96875 38.734375 L 26.863281 38.734375 A 1.3617899 1.3617899 0 0 0 28.224609 37.373047 A 1.3617899 1.3617899 0 0 0 26.863281 36.011719 L 15.96875 36.011719 z " />
  <path
     id="path8-5"
     style="fill:none;stroke-linecap:round;stroke:#000000;stroke-opacity:1;stroke-width:0.2;stroke-dasharray:none;filter:url(#filter13)"
     d="M 15.947266 16.945312 A 1.3617899 1.3617899 0 0 0 15.150391 17.21875 A 1.3617899 1.3617899 0 0 0 14.878906 19.125 L 18.691406 24.207031 L 18.691406 29.201172 A 1.3617899 1.3617899 0 0 0 20.054688 30.564453 A 1.3617899 1.3617899 0 0 0 21.416016 29.201172 L 21.416016 24.207031 L 25.228516 19.125 A 1.3617899 1.3617899 0 0 0 24.957031 17.21875 A 1.3617899 1.3617899 0 0 0 23.048828 17.490234 L 20.054688 21.484375 L 17.058594 17.490234 A 1.3617899 1.3617899 0 0 0 15.947266 16.945312 z M 29.585938 16.945312 A 1.3617899 1.3617899 0 0 0 28.224609 18.308594 A 1.3617899 1.3617899 0 0 0 29.585938 19.669922 L 30.947266 19.669922 L 30.947266 29.201172 A 1.3617899 1.3617899 0 0 0 32.310547 30.564453 A 1.3617899 1.3617899 0 0 0 33.671875 29.201172 L 33.671875 19.669922 L 35.033203 19.669922 A 1.3617899 1.3617899 0 0 0 36.394531 18.308594 A 1.3617899 1.3617899 0 0 0 35.033203 16.945312 L 32.310547 16.945312 L 29.585938 16.945312 z M 15.96875 36.011719 A 1.3617899 1.3617899 0 0 0 14.607422 37.373047 A 1.3617899 1.3617899 0 0 0 15.96875 38.734375 L 26.863281 38.734375 A 1.3617899 1.3617899 0 0 0 28.224609 37.373047 A 1.3617899 1.3617899 0 0 0 26.863281 36.011719 L 15.96875 36.011719 z " />
</svg>
