<?xml version="1.0" encoding="UTF-8" standalone="no"?>
<svg
   width="64"
   height="64"
   version="1.1"
   id="svg8"
   sodipodi:docname="yubikey-neo-manager.svg"
   inkscape:version="1.4 (e7c3feb100, 2024-10-09)"
   xmlns:inkscape="http://www.inkscape.org/namespaces/inkscape"
   xmlns:sodipodi="http://sodipodi.sourceforge.net/DTD/sodipodi-0.dtd"
   xmlns:xlink="http://www.w3.org/1999/xlink"
   xmlns="http://www.w3.org/2000/svg"
   xmlns:svg="http://www.w3.org/2000/svg">
  <defs
     id="defs8">
    <linearGradient
       id="linearGradient9"
       inkscape:collect="always">
      <stop
         style="stop-color:#9e4ae1;stop-opacity:1;"
         offset="0"
         id="stop9" />
      <stop
         style="stop-color:#5d2f81;stop-opacity:1;"
         offset="1"
         id="stop10" />
    </linearGradient>
    <radialGradient
       inkscape:collect="always"
       xlink:href="#linearGradient11"
       id="radialGradient12"
       cx="3.2273505"
       cy="62.249573"
       fx="3.2273505"
       fy="62.249573"
       r="28"
       gradientUnits="userSpaceOnUse"
       gradientTransform="matrix(3.7790484,0,0,3.7790483,-6.6010216,-175.482)" />
    <linearGradient
       id="linearGradient11"
       inkscape:collect="always">
      <stop
         style="stop-color:#83d03e;stop-opacity:1;"
         offset="0"
         id="stop11" />
      <stop
         style="stop-color:#3cbbca;stop-opacity:1;"
         offset="1"
         id="stop12" />
    </linearGradient>
    <filter
       inkscape:collect="always"
       style="color-interpolation-filters:sRGB"
       id="filter14"
       x="-0.11967603"
       y="-0.11967603"
       width="1.2393521"
       height="1.2393521">
      <feGaussianBlur
         inkscape:collect="always"
         stdDeviation="2.5209608"
         id="feGaussianBlur14" />
    </filter>
    <inkscape:path-effect
       effect="fillet_chamfer"
       id="path-effect12"
       is_visible="true"
       lpeversion="1"
       nodesatellites_param="F,0,1,1,0,3.012227,0,1 @ F,0,0,1,0,3.012227,0,1 @ F,0,0,1,0,0,0,1 @ F,0,1,1,0,3.012227,0,1 @ F,0,1,1,0,3.012227,0,1 @ F,0,1,1,0,3.012227,0,1 @ F,0,1,1,0,3.012227,0,1 @ F,0,0,1,0,0,0,1"
       radius="0"
       unit="px"
       method="auto"
       mode="F"
       chamfer_steps="1"
       flexible="false"
       use_knot_distance="true"
       apply_no_radius="true"
       apply_with_radius="true"
       only_selected="false"
       hide_knots="false" />
    <filter
       inkscape:collect="always"
       style="color-interpolation-filters:sRGB"
       id="filter12"
       x="-0.14682129"
       y="-0.13075502"
       width="1.293645"
       height="1.2615122">
      <feGaussianBlur
         inkscape:collect="always"
         stdDeviation="1.4514029"
         id="feGaussianBlur12" />
    </filter>
    <inkscape:path-effect
       effect="fillet_chamfer"
       id="path-effect12-6"
       is_visible="true"
       lpeversion="1"
       nodesatellites_param="F,0,1,1,0,3.012227,0,1 @ F,0,0,1,0,3.012227,0,1 @ F,0,0,1,0,0,0,1 @ F,0,1,1,0,3.012227,0,1 @ F,0,1,1,0,3.012227,0,1 @ F,0,1,1,0,3.012227,0,1 @ F,0,1,1,0,3.012227,0,1 @ F,0,0,1,0,0,0,1"
       radius="0"
       unit="px"
       method="auto"
       mode="F"
       chamfer_steps="1"
       flexible="false"
       use_knot_distance="true"
       apply_no_radius="true"
       apply_with_radius="true"
       only_selected="false"
       hide_knots="false" />
    <radialGradient
       inkscape:collect="always"
       xlink:href="#linearGradient9"
       id="radialGradient10"
       cx="38.536751"
       cy="55.736912"
       fx="38.536751"
       fy="55.736912"
       r="8.9023449"
       gradientTransform="matrix(3.0944402,0.82915275,-0.90846353,3.3904321,-30.077968,-164.35244)"
       gradientUnits="userSpaceOnUse" />
    <filter
       inkscape:collect="always"
       style="color-interpolation-filters:sRGB"
       id="filter10"
       x="-0.18206308"
       y="-0.16616771"
       width="1.3641262"
       height="1.3323354">
      <feGaussianBlur
         inkscape:collect="always"
         stdDeviation="1.3089901"
         id="feGaussianBlur10" />
    </filter>
  </defs>
  <sodipodi:namedview
     id="namedview8"
     pagecolor="#505050"
     bordercolor="#eeeeee"
     borderopacity="1"
     inkscape:showpageshadow="0"
     inkscape:pageopacity="0"
     inkscape:pagecheckerboard="0"
     inkscape:deskcolor="#505050"
     inkscape:zoom="18.28125"
     inkscape:cx="32"
     inkscape:cy="32"
     inkscape:current-layer="svg8" />
  <g
     id="g1">
    <g
       id="g3">
      <g
         id="g2"
         transform="translate(-1.3986849e-6,0.0661903)">
        <path
           style="fill:url(#radialGradient12);stroke-width:0.917702"
           d="M 32,6.3064105 A 25.695647,25.695647 0 0 0 6.3043535,32.002057 25.695647,25.695647 0 0 0 32,57.697704 25.695647,25.695647 0 0 0 57.695647,32.002057 25.695647,25.695647 0 0 0 32,6.3064105 Z"
           id="path2-3" />
        <path
           style="fill:none;stroke:#000000;stroke-width:0.2;stroke-dasharray:none;stroke-opacity:1;filter:url(#filter14)"
           d="M 32,6.2381621 A 25.695647,25.695647 0 0 0 6.3043535,31.933808 25.695647,25.695647 0 0 0 32,57.629455 25.695647,25.695647 0 0 0 57.695647,31.933808 25.695647,25.695647 0 0 0 32,6.2381621 Z"
           id="path2-9" />
        <path
           style="fill:#ffffff;stroke-linecap:round;stroke-linejoin:round"
           d="m 21.990408,19.00768 a 3.0013612,3.0013612 96.095657 0 0 -0.45062,4.219584 l 7.862556,9.829377 -5.942732,7.725701 a 3.0135707,3.0135707 82.580834 0 0 0.550196,4.22521 2.9985644,2.9985644 172.34458 0 0 4.203732,-0.565037 L 44.540366,23.217641 A 3.0135426,3.0135426 82.581101 0 0 43.990192,18.992448 2.99841,2.99841 172.34309 0 0 39.786583,19.55758 L 33.169922,28.160156 26.22352,19.477154 A 3.0110023,3.0110023 6.3285408 0 0 21.990408,19.00768 Z"
           id="path5-6"
           inkscape:path-effect="#path-effect12"
           inkscape:original-d="m 24.341797,17.125 -4.683594,3.75 9.744141,12.181641 -7.779297,10.113281 4.753906,3.660156 20,-26 -4.753906,-3.660156 -8.453125,10.990234 z"
           transform="matrix(1.0998962,0,0,1.0998962,-3.3824995,-3.1918662)" />
        <path
           style="mix-blend-mode:normal;fill:none;fill-opacity:1;stroke:#000000;stroke-width:0.166871;stroke-linecap:round;stroke-linejoin:round;stroke-dasharray:none;stroke-opacity:1;filter:url(#filter12)"
           d="m 21.990408,19.00768 a 3.0013612,3.0013612 96.095657 0 0 -0.45062,4.219584 l 7.862556,9.829377 -5.942732,7.725701 a 3.0135707,3.0135707 82.580834 0 0 0.550196,4.22521 2.9985644,2.9985644 172.34458 0 0 4.203732,-0.565037 L 44.540366,23.217641 A 3.0135426,3.0135426 82.581101 0 0 43.990192,18.992448 2.99841,2.99841 172.34309 0 0 39.786583,19.55758 L 33.169922,28.160156 26.22352,19.477154 A 3.0110023,3.0110023 6.3285408 0 0 21.990408,19.00768 Z"
           id="path5-7"
           inkscape:path-effect="#path-effect12-6"
           inkscape:original-d="m 24.341797,17.125 -4.683594,3.75 9.744141,12.181641 -7.779297,10.113281 4.753906,3.660156 20,-26 -4.753906,-3.660156 -8.453125,10.990234 z"
           transform="matrix(1.0998962,0,0,1.0998962,-3.3824995,-3.1918662)" />
      </g>
    </g>
  </g>
  <path
     style="stroke-linecap:round;stroke-linejoin:round;fill:url(#radialGradient10);fill-opacity:1"
     d="m 53.111328,37.246094 c -2.068971,-10e-7 -3.791016,1.722044 -3.791016,3.791015 v 1.679688 l -3.554687,-4.146485 a 2.0873688,2.0873688 0 0 0 0,-0.002 c -1.078259,-1.255458 -2.840288,-1.585574 -4.191406,-1.085937 -1.351119,0.499636 -2.474552,1.895845 -2.476563,3.550781 a 2.0873688,2.0873688 0 0 0 0,0.0039 v 11.925782 c -10e-7,2.06897 1.722046,3.791015 3.791016,3.791015 2.068971,10e-7 3.791016,-1.722044 3.791015,-3.791015 v -1.679688 l 3.554688,4.146484 a 2.0873688,2.0873688 0 0 0 0,0.002 c 1.078259,1.255458 2.840288,1.585574 4.191406,1.085937 1.351119,-0.499636 2.474552,-1.895845 2.476563,-3.550781 a 2.0873688,2.0873688 0 0 0 0,-0.0039 V 41.037109 c 10e-7,-2.06897 -1.722046,-3.791015 -3.791016,-3.791015 z m -9.839844,4.828125 1.603516,1.871093 a 2.0873688,2.0873688 0 0 0 -1.603516,0.595704 z m 9.457032,7.384765 v 2.466797 L 51.125,50.054687 a 2.0873688,2.0873688 0 0 0 1.603516,-0.595703 z"
     id="path8-6" />
  <path
     style="fill:#ffffff;stroke-width:0.851902;stroke-linecap:round;stroke-linejoin:round"
     d="m 53.11141,39.332885 a 1.7038032,1.7038032 0 0 0 -1.703804,1.703804 v 7.322693 l -7.226189,-8.430831 a 1.7039736,1.7039736 0 0 0 -2.99663,1.108138 v 11.926622 a 1.7038032,1.7038032 0 0 0 1.703803,1.703804 1.7038032,1.7038032 0 0 0 1.703804,-1.703804 v -7.322693 l 7.226189,8.430831 a 1.7039736,1.7039736 0 0 0 2.99663,-1.108138 V 41.036689 A 1.7038032,1.7038032 0 0 0 53.11141,39.332885 Z"
     id="path8" />
  <path
     id="path8-6-6"
     style="fill:none;fill-opacity:1;stroke-linecap:round;stroke-linejoin:round;stroke:#000000;stroke-opacity:1;stroke-width:0.2;stroke-dasharray:none;filter:url(#filter10)"
     d="m 53.111328,37.246097 c -2.068971,-10e-7 -3.791015,1.722044 -3.791015,3.791015 V 42.7168 l -3.554688,-4.146484 v -0.002 c -1.078259,-1.255411 -2.840288,-1.585528 -4.191406,-1.085891 -1.351119,0.499636 -2.474552,1.895845 -2.476563,3.550781 v 0.0039 11.925782 c -10e-7,2.06897 1.722046,3.791015 3.791016,3.791015 2.068971,10e-7 3.791017,-1.722044 3.791015,-3.791015 V 51.2832 l 3.554688,4.146485 v 0.002 c 1.078259,1.255458 2.840288,1.585574 4.191406,1.085937 1.351119,-0.499636 2.474552,-1.895845 2.476563,-3.550781 v -0.002 -0.002 -11.925782 c 10e-7,-2.06897 -1.722046,-3.791015 -3.791016,-3.791015 z m 0,2.087891 c 0.941217,-7.04e-4 1.704703,0.761907 1.705078,1.703124 v 11.927735 c -0.0032,1.579052 -1.966697,2.304819 -2.996093,1.107422 L 44.59375,45.640628 v 7.324219 c -3.74e-4,0.941218 -0.763861,1.703829 -1.705078,1.703125 -0.940455,-3.74e-4 -1.702751,-0.76267 -1.703125,-1.703125 V 41.037112 c 0.0032,-1.579053 1.966698,-2.304819 2.996093,-1.107421 l 7.226563,8.429687 v -7.322266 c 3.75e-4,-0.940455 0.76267,-1.70275 1.703125,-1.703124 z"
     sodipodi:nodetypes="sscccsscssscccssccssccccccccccccc" />
</svg>
