<?xml version="1.0" encoding="UTF-8" standalone="no"?>
<svg
   width="64"
   height="64"
   version="1.1"
   id="svg8"
   sodipodi:docname="zandronum.svg"
   inkscape:version="1.4 (e7c3feb100, 2024-10-09)"
   xmlns:inkscape="http://www.inkscape.org/namespaces/inkscape"
   xmlns:sodipodi="http://sodipodi.sourceforge.net/DTD/sodipodi-0.dtd"
   xmlns:xlink="http://www.w3.org/1999/xlink"
   xmlns="http://www.w3.org/2000/svg"
   xmlns:svg="http://www.w3.org/2000/svg">
  <defs
     id="defs8">
    <linearGradient
       id="linearGradient9"
       inkscape:collect="always">
      <stop
         style="stop-color:#7ee0fa;stop-opacity:1;"
         offset="0"
         id="stop10" />
      <stop
         style="stop-color:#2caeff;stop-opacity:1;"
         offset="1"
         id="stop11" />
    </linearGradient>
    <inkscape:path-effect
       effect="fillet_chamfer"
       id="path-effect9"
       is_visible="true"
       lpeversion="1"
       nodesatellites_param="F,0,1,1,0,3.1037718,0,1 @ F,0,0,1,0,0,0,1 @ F,0,0,1,0,0,0,1 @ F,0,0,1,0,0,0,1 @ F,0,0,1,0,0,0,1 @ F,0,0,1,0,0,0,1 @ F,0,1,1,0,3.1037718,0,1"
       radius="0"
       unit="px"
       method="auto"
       mode="F"
       chamfer_steps="1"
       flexible="false"
       use_knot_distance="true"
       apply_no_radius="true"
       apply_with_radius="true"
       only_selected="false"
       hide_knots="false" />
    <linearGradient
       id="linearGradient8"
       inkscape:collect="always">
      <stop
         style="stop-color:#808080;stop-opacity:1;"
         offset="0"
         id="stop8" />
      <stop
         style="stop-color:#666666;stop-opacity:1;"
         offset="1"
         id="stop9" />
    </linearGradient>
    <radialGradient
       inkscape:collect="always"
       xlink:href="#linearGradient8"
       id="radialGradient9"
       cx="24.00506"
       cy="40.266396"
       fx="24.00506"
       fy="40.266396"
       r="25"
       gradientTransform="matrix(2.413985,-1.3937148,1.5609607,2.7036632,-98.550071,-23.256562)"
       gradientUnits="userSpaceOnUse" />
    <inkscape:path-effect
       effect="fillet_chamfer"
       id="path-effect9-3"
       is_visible="true"
       lpeversion="1"
       nodesatellites_param="F,0,1,1,0,1.5228764,0,1 @ F,0,1,1,0,1.5228764,0,1 @ F,0,0,1,0,0,0,1 @ F,0,0,1,0,0,0,1 @ F,0,0,1,0,0,0,1 @ F,0,0,1,0,0,0,1 @ F,0,0,1,0,0,0,1 @ F,0,1,1,0,1.5228764,0,1 @ F,0,0,1,0,1.5228764,0,1 @ F,0,0,1,0,0,0,1"
       radius="0"
       unit="px"
       method="auto"
       mode="F"
       chamfer_steps="1"
       flexible="false"
       use_knot_distance="true"
       apply_no_radius="true"
       apply_with_radius="true"
       only_selected="false"
       hide_knots="false" />
    <radialGradient
       inkscape:collect="always"
       xlink:href="#linearGradient9"
       id="radialGradient11"
       cx="29.717543"
       cy="27.618849"
       fx="29.717543"
       fy="27.618849"
       r="19"
       gradientTransform="matrix(1.6296728,0,0,1.5383111,-20.149528,-20.72493)"
       gradientUnits="userSpaceOnUse" />
    <radialGradient
       inkscape:collect="always"
       xlink:href="#linearGradient9"
       id="radialGradient13"
       cx="31.92264"
       cy="9.0916796"
       fx="31.92264"
       fy="9.0916796"
       r="26.835705"
       gradientTransform="matrix(-1.4614621,1.4614621,-1.6088703,-1.6088703,93.216669,-21.01894)"
       gradientUnits="userSpaceOnUse" />
    <filter
       inkscape:collect="always"
       style="color-interpolation-filters:sRGB"
       id="filter13"
       x="-0.16427659"
       y="-0.14922616"
       width="1.3285532"
       height="1.2984523">
      <feGaussianBlur
         inkscape:collect="always"
         stdDeviation="3.0164497"
         id="feGaussianBlur13" />
    </filter>
  </defs>
  <sodipodi:namedview
     id="namedview8"
     pagecolor="#505050"
     bordercolor="#eeeeee"
     borderopacity="1"
     inkscape:showpageshadow="0"
     inkscape:pageopacity="0"
     inkscape:pagecheckerboard="0"
     inkscape:deskcolor="#505050"
     inkscape:zoom="12.926796"
     inkscape:cx="25.528368"
     inkscape:cy="36.358585"
     inkscape:current-layer="svg8" />
  <path
     style="fill:none;stroke:url(#radialGradient13);stroke-width:7.0755;stroke-dasharray:none"
     d="M 13.207394,23.985599 V 32 c 0,1.778967 -0.141676,4.841316 1.02976,6.266776 1.948441,3.264698 6.123792,10.329569 7.726258,13.563625 0.522978,0.967289 1.683692,1.223336 3.148413,1.223337 H 32 38.888175 c 1.464721,-1e-6 2.625435,-0.256048 3.148414,-1.223337 1.602465,-3.234056 5.777815,-10.298927 7.726257,-13.563625 1.171435,-1.42546 1.02976,-4.487809 1.02976,-6.266776 v -8.014401 c 0,-6.723216 -8.352269,-13.039337 -18.792606,-13.039337 -10.440337,0 -18.792606,6.316121 -18.792606,13.039337 z"
     id="path2-5" />
  <path
     style="fill:none;stroke:#000000;stroke-opacity:1;stroke-width:0.2;stroke-dasharray:none;filter:url(#filter13)"
     d="m 31.999023,7.4082023 c -5.933583,0 -11.307682,1.763042 -15.365234,4.6562497 C 12.576237,14.95766 9.6689447,19.15778 9.6689447,23.984375 V 32 c 0,0.795568 -0.04783,2.134858 0.0918,3.601562 0.139623,1.466705 0.3230553,3.183287 1.7421883,4.910156 l -0.304688,-0.43164 c 1.937217,3.245892 6.168638,10.440247 7.595703,13.320312 l 0.02734,0.05664 0.0293,0.05469 c 0.72015,1.331976 2.049245,2.248564 3.185547,2.638672 1.136302,0.390109 2.137668,0.441406 3.076172,0.441406 h 6.886718 6.888671 c 0.938504,0 1.93987,-0.0513 3.076172,-0.441406 1.136302,-0.390108 2.465396,-1.306698 3.185547,-2.638672 l 0.0293,-0.05469 0.02734,-0.05664 c 1.427064,-2.880065 5.656533,-10.074422 7.59375,-13.320312 l -0.304687,0.43164 c 1.419131,-1.726869 1.604518,-3.443452 1.74414,-4.910156 0.139623,-1.466704 0.0918,-2.805993 0.0918,-3.601562 v -8.015625 c 0,-4.826595 -2.909245,-9.026715 -6.966797,-11.919923 C 43.30671,9.1712444 37.93261,7.4082023 31.999027,7.4082023 Z m 0,7.0761717 c 4.506754,0 8.529145,1.394187 11.257812,3.339843 2.728667,1.945657 3.998047,4.263534 3.998047,6.160158 V 32 c 0,0.983397 0.02185,2.06411 -0.06055,2.929687 -0.0824,0.865577 -0.411759,1.391253 -0.164063,1.089844 l -0.169921,0.205078 -0.134766,0.228516 c -1.849609,3.099099 -5.504971,9.310778 -7.417969,13.03125 -0.134459,0.01758 -0.136336,0.03125 -0.419922,0.03125 H 31.99902 25.112302 c -0.283587,-10e-7 -0.285464,-0.01367 -0.419922,-0.03125 -1.912999,-3.720471 -5.568362,-9.932152 -7.417969,-13.03125 L 17.139645,36.224609 16.969723,36.019531 C 17.21742,36.32094 16.886103,35.795264 16.803708,34.929687 16.721308,34.06411 16.745118,32.983398 16.745118,32 v -8.015625 c 0,-1.896624 1.26938,-4.214501 3.998047,-6.160158 2.728667,-1.945656 6.749105,-3.339843 11.255858,-3.339843 z m -6.935547,35.650391 c 0.0034,0.0059 0.0085,0.0057 0.01172,0.01172 l 0.05859,0.113281 c -0.01605,-0.03239 -0.05389,-0.09207 -0.07031,-0.125001 z m 13.873046,0 c -0.01643,0.03293 -0.05426,0.09261 -0.07031,0.125 l 0.05859,-0.113281 c 0.0032,-0.006 0.0083,-0.0058 0.01172,-0.01172 z"
     id="path2-5-1" />
  <path
     style="fill:url(#radialGradient9);stroke-width:0.75192"
     d="M 13.207394,23.985599 V 32 c 0,1.778967 -0.141675,4.841316 1.02976,6.266776 1.948441,3.264698 6.123792,10.329569 7.726258,13.563625 0.522978,0.967289 1.683692,1.223336 3.148413,1.223337 H 32 38.888175 c 1.464721,-1e-6 2.625435,-0.256048 3.148414,-1.223337 1.602465,-3.234056 5.777815,-10.298927 7.726257,-13.563625 1.171435,-1.42546 1.02976,-4.487809 1.02976,-6.266776 v -8.014401 c 0,-6.723216 -8.352269,-13.039337 -18.792606,-13.039337 -10.440337,0 -18.792606,6.316121 -18.792606,13.039337 z"
     id="path2" />
  <path
     style="opacity:0.2;stroke-width:0.75192"
     d="m 15.833247,31.212452 c -1.217744,0.0084 -2.435811,0.02668 -2.625108,0.05551 v 1.033844 c 0,1.778967 -0.143421,4.539508 1.028014,5.964967 1.948441,3.264699 6.123962,10.329569 7.726427,13.563626 0.522979,0.967294 1.684594,1.223341 3.149315,1.223343 H 32 38.888104 c 1.464723,-2e-6 2.626336,-0.256049 3.149315,-1.223337 1.602465,-3.234057 5.777985,-10.298928 7.726428,-13.563625 1.171434,-1.42546 1.028015,-4.186001 1.028015,-5.964968 v -1.033844 c -0.219006,10e-6 -4.579408,-0.02982 -4.770886,-0.01953 -4.246026,-0.03599 -4.068802,1.480328 -5.816034,4.211435 -1.639422,2.830975 -1.646175,7.114004 -2.465193,9.172374 C 36.587052,40.659574 37.221661,32.000354 32,32.000354 c -5.221661,0 -4.587052,8.65922 -5.739749,12.631889 -0.819018,-2.05837 -0.374619,-6.341399 -2.014042,-9.172374 -1.134949,-1.922854 -3.017386,-4.085263 -5.507057,-4.243307 -0.167871,-0.01068 -1.685323,-0.01264 -2.905905,-0.0041 z"
     id="path3" />
  <path
     style="opacity:0.15;stroke-width:0.75192"
     d="M 25.111895,53.053738 H 32 38.888104 L 37.739749,44.632243 C 36.587052,40.659574 37.221661,33.052687 32,33.052687 c -5.221661,0 -4.587052,7.606887 -5.739749,11.579556 z"
     id="path4" />
  <path
     style="fill:url(#radialGradient11)"
     d="M 13,31 C 18.300813,30.170132 22.24731,41.164805 24.367188,49 25.900194,43.716628 25.055556,34 32,34 c 6.944444,0 6.099807,9.716628 7.632812,15 C 41.751489,41.169208 45.698149,30.16997 51,31 A 3.0523269,3.0523269 44.025993 0 0 47.896228,28 L 16.103772,28 A 3.0523269,3.0523269 135.97401 0 0 13,31 Z"
     id="path6"
     inkscape:path-effect="#path-effect9"
     inkscape:original-d="m 13,28 v 3 C 18.300813,30.170132 22.24731,41.164805 24.367188,49 25.900194,43.716628 25.055556,34 32,34 c 6.944444,0 6.099807,9.716628 7.632812,15 C 41.751489,41.169208 45.698149,30.16997 51,31 v -3 z"
     sodipodi:nodetypes="cccscccc"
     transform="matrix(0.75191922,0,0,0.75191922,7.9385849,7.9385849)" />
</svg>
