<?xml version="1.0" encoding="UTF-8" standalone="no"?>
<svg
   width="64"
   height="64"
   version="1.1"
   id="svg17"
   sodipodi:docname="zbstudio.svg"
   inkscape:version="1.4 (e7c3feb100, 2024-10-09)"
   xmlns:inkscape="http://www.inkscape.org/namespaces/inkscape"
   xmlns:sodipodi="http://sodipodi.sourceforge.net/DTD/sodipodi-0.dtd"
   xmlns:xlink="http://www.w3.org/1999/xlink"
   xmlns="http://www.w3.org/2000/svg"
   xmlns:svg="http://www.w3.org/2000/svg">
  <defs
     id="defs17">
    <linearGradient
       id="linearGradient2"
       inkscape:collect="always">
      <stop
         style="stop-color:#7a7a7a;stop-opacity:1;"
         offset="0"
         id="stop1" />
      <stop
         style="stop-color:#8e8e92;stop-opacity:1;"
         offset="1"
         id="stop2" />
    </linearGradient>
    <inkscape:path-effect
       effect="fillet_chamfer"
       id="path-effect31"
       is_visible="true"
       lpeversion="1"
       nodesatellites_param="F,0,1,1,0,1.5297909,0,1 @ F,0,0,1,0,0,0,1 @ F,0,0,1,0,0,0,1 @ F,0,1,1,0,1.5297909,0,1 | F,0,1,1,0,1.5297909,0,1 @ F,0,0,1,0,0,0,1 @ F,0,0,1,0,0,0,1 @ F,0,0,1,0,1.5297909,0,1"
       radius="0"
       unit="px"
       method="auto"
       mode="F"
       chamfer_steps="1"
       flexible="false"
       use_knot_distance="true"
       apply_no_radius="true"
       apply_with_radius="true"
       only_selected="false"
       hide_knots="false" />
    <linearGradient
       id="linearGradient31"
       inkscape:collect="always">
      <stop
         style="stop-color:#4b4b4b;stop-opacity:1;"
         offset="0"
         id="stop30" />
      <stop
         style="stop-color:#535353;stop-opacity:1;"
         offset="1"
         id="stop31" />
    </linearGradient>
    <linearGradient
       id="linearGradient23"
       inkscape:collect="always">
      <stop
         style="stop-color:#d56d36;stop-opacity:1;"
         offset="0"
         id="stop24" />
      <stop
         style="stop-color:#d53a36;stop-opacity:1;"
         offset="1"
         id="stop25" />
    </linearGradient>
    <linearGradient
       id="linearGradient21"
       inkscape:collect="always">
      <stop
         style="stop-color:#7a7a7a;stop-opacity:1;"
         offset="0"
         id="stop22" />
      <stop
         style="stop-color:#626263;stop-opacity:1;"
         offset="1"
         id="stop23" />
    </linearGradient>
    <inkscape:path-effect
       effect="fillet_chamfer"
       id="path-effect17"
       is_visible="true"
       lpeversion="1"
       nodesatellites_param="F,0,1,1,0,6.1591104,0,1 @ F,0,0,1,0,0,0,1 @ F,0,0,1,0,0,0,1 @ F,0,0,1,0,0,0,1 @ F,0,0,1,0,0,0,1 @ F,0,0,1,0,6.1591104,0,1 @ F,0,0,1,0,0,0,1"
       radius="0"
       unit="px"
       method="auto"
       mode="F"
       chamfer_steps="1"
       flexible="false"
       use_knot_distance="true"
       apply_no_radius="true"
       apply_with_radius="true"
       only_selected="false"
       hide_knots="false" />
    <radialGradient
       inkscape:collect="always"
       xlink:href="#linearGradient21"
       id="radialGradient23"
       cx="17.775568"
       cy="54.446903"
       fx="17.775568"
       fy="54.446903"
       r="22"
       gradientTransform="matrix(2.0337105,0,0,2.0740023,-25.483691,-59.428127)"
       gradientUnits="userSpaceOnUse" />
    <radialGradient
       inkscape:collect="always"
       xlink:href="#linearGradient23"
       id="radialGradient25"
       cx="29.215443"
       cy="23.313929"
       fx="29.215443"
       fy="23.313929"
       r="7"
       gradientUnits="userSpaceOnUse"
       gradientTransform="matrix(2.7894994,0,0,2.7894994,-57.26398,-37.579487)" />
    <radialGradient
       inkscape:collect="always"
       xlink:href="#linearGradient2"
       id="radialGradient28"
       cx="32"
       cy="42.5"
       fx="32"
       fy="42.5"
       r="27.240625"
       gradientTransform="matrix(1.4660348,0,0,1.2065251,-14.913113,-8.7773142)"
       gradientUnits="userSpaceOnUse" />
    <radialGradient
       inkscape:collect="always"
       xlink:href="#linearGradient31"
       id="radialGradient30"
       cx="6.7820859"
       cy="33.400314"
       fx="6.7820859"
       fy="33.400314"
       r="1.6042738"
       gradientTransform="matrix(42.632399,0,0,48.203052,-266.23327,-1564.0483)"
       gradientUnits="userSpaceOnUse" />
    <filter
       inkscape:collect="always"
       style="color-interpolation-filters:sRGB"
       id="filter31"
       x="-0.064892066"
       y="-0.18169778"
       width="1.1297841"
       height="1.3633956">
      <feGaussianBlur
         inkscape:collect="always"
         stdDeviation="0.71540741"
         id="feGaussianBlur31" />
    </filter>
    <inkscape:path-effect
       effect="fillet_chamfer"
       id="path-effect31-0"
       is_visible="true"
       lpeversion="1"
       nodesatellites_param="F,0,1,1,0,1.5297909,0,1 @ F,0,0,1,0,0,0,1 @ F,0,0,1,0,0,0,1 @ F,0,1,1,0,1.5297909,0,1 | F,0,1,1,0,1.5297909,0,1 @ F,0,0,1,0,0,0,1 @ F,0,0,1,0,0,0,1 @ F,0,0,1,0,1.5297909,0,1"
       radius="0"
       unit="px"
       method="auto"
       mode="F"
       chamfer_steps="1"
       flexible="false"
       use_knot_distance="true"
       apply_no_radius="true"
       apply_with_radius="true"
       only_selected="false"
       hide_knots="false" />
    <filter
       inkscape:collect="always"
       style="color-interpolation-filters:sRGB"
       id="filter34"
       x="-0.085996599"
       y="-0.2449181"
       width="1.1719932"
       height="1.4953497">
      <feGaussianBlur
         inkscape:collect="always"
         stdDeviation="1.8503345"
         id="feGaussianBlur34" />
    </filter>
    <filter
       inkscape:collect="always"
       style="color-interpolation-filters:sRGB"
       id="filter35"
       x="-0.1020637"
       y="-0.16632603"
       width="1.2041274"
       height="1.3326521">
      <feGaussianBlur
         inkscape:collect="always"
         stdDeviation="1.8503345"
         id="feGaussianBlur35" />
    </filter>
    <filter
       inkscape:collect="always"
       style="color-interpolation-filters:sRGB"
       id="filter36"
       x="-0.082732119"
       y="-0.1190294"
       width="1.1654642"
       height="1.2380588">
      <feGaussianBlur
         inkscape:collect="always"
         stdDeviation="1.8503345"
         id="feGaussianBlur36" />
    </filter>
  </defs>
  <sodipodi:namedview
     id="namedview17"
     pagecolor="#2f2f2f"
     bordercolor="#eeeeee"
     borderopacity="1"
     inkscape:showpageshadow="0"
     inkscape:pageopacity="0"
     inkscape:pagecheckerboard="0"
     inkscape:deskcolor="#505050"
     inkscape:zoom="18.28125"
     inkscape:cx="29.647863"
     inkscape:cy="34.297435"
     inkscape:current-layer="svg17" />
  <g
     id="g34"
     transform="translate(0,-0.984375)">
    <path
       d="m 7.421875,21.072266 c -0.8444944,2.72e-4 -1.5290242,0.684802 -1.5292969,1.529296 V 39.400391 C 6.6298186,38.412315 7.7059215,37.691466 8.953125,37.421875 V 22.601562 C 8.9528523,21.757068 8.2683225,21.072538 7.4238281,21.072266 Z m 49.162109,0 c -0.844607,-10e-7 -1.529297,0.684689 -1.529297,1.529296 v 14.822266 c 1.247159,0.271626 2.322781,0.994343 3.058594,1.984375 V 22.601562 c -2.72e-4,-0.844494 -0.684802,-1.529024 -1.529297,-1.529296 z"
       style="fill:url(#radialGradient30);stroke-width:0.149146;stroke-linecap:square;paint-order:stroke fill markers"
       id="path34" />
    <path
       d="m 24,9.96875 c -2.216,0 -4,1.784 -4,4 V 29 H 44 V 13.96875 c 0,-2.216 -1.784,-4 -4,-4 z M 10,37.304687 C 7.1557048,37.335025 4.8589995,39.648684 4.859375,42.5 c -3.779e-4,2.869764 2.3255477,5.196565 5.195313,5.197266 0.0026,0 0.0052,3e-6 0.0078,0 C 10.026148,47.412898 10,47.127033 10,46.841797 Z m 44,0 v 9.53711 c 0,0.285236 -0.02615,0.571102 -0.0625,0.855469 0.0026,3e-6 0.0052,0 0.0078,0 C 56.815089,47.696565 59.141003,45.369764 59.140625,42.5 59.141001,39.648684 56.844295,37.335025 54,37.304687 Z"
       style="baseline-shift:baseline;display:inline;overflow:visible;vector-effect:none;fill:url(#radialGradient28);stroke-linecap:square;paint-order:stroke fill markers;enable-background:accumulate;stop-color:#000000;stop-opacity:1"
       id="path33" />
    <path
       d="m 24.083984,12.595703 c -0.919909,0 -1.660156,0.740247 -1.660156,1.660156 V 29 H 41.576172 V 14.255859 c 0,-0.919909 -0.740247,-1.660156 -1.660156,-1.660156 z"
       style="baseline-shift:baseline;display:inline;overflow:visible;opacity:0.373675;vector-effect:none;enable-background:accumulate;stop-color:#000000;stop-opacity:1"
       id="path18" />
    <path
       d="m 15,29 c -3,0 -5,2 -5,5 v 12.841797 c 0,3.401583 2.66965,6.862388 6.009766,7.498047 C 20.211667,55.139509 26.105456,56 32,56 37.893824,56 43.788433,55.139426 47.990234,54.339844 51.33121,53.704072 54,50.24338 54,46.841797 V 34 c 0,-3 -2,-5 -5,-5 z"
       style="baseline-shift:baseline;display:inline;overflow:visible;vector-effect:none;fill:url(#radialGradient23);enable-background:accumulate;stop-color:#000000;stop-opacity:1"
       id="path31" />
    <path
       id="circle9"
       style="fill:#ffffff"
       d="m 23,37.5 a 5,5 0 0 0 -5,5 5,5 0 0 0 5,5 5,5 0 0 0 5,-5 5,5 0 0 0 -5,-5 z m 18,0 a 5,5 0 0 0 -5,5 5,5 0 0 0 5,5 5,5 0 0 0 5,-5 5,5 0 0 0 -5,-5 z" />
    <path
       id="circle9-3"
       style="fill:none;stroke:#ff7e5b;stroke-width:0.2;stroke-dasharray:none;stroke-opacity:1;filter:url(#filter31)"
       d="m 23,37.5 a 5,5 0 0 0 -5,5 5,5 0 0 0 5,5 5,5 0 0 0 5,-5 5,5 0 0 0 -5,-5 z m 18,0 a 5,5 0 0 0 -5,5 5,5 0 0 0 5,5 5,5 0 0 0 5,-5 5,5 0 0 0 -5,-5 z" />
    <circle
       cx="32"
       cy="11.31282"
       r="0.78119659"
       style="fill:#ffffff;stroke-width:0.781197"
       id="circle12" />
    <circle
       cx="32"
       cy="21"
       r="7"
       style="fill:url(#radialGradient25)"
       id="circle13" />
    <circle
       cx="32"
       cy="21"
       r="3"
       style="fill:#ffffff"
       id="circle14" />
  </g>
  <path
     d="m 7.421875,20.087891 c -0.8444944,2.72e-4 -1.5290242,0.684802 -1.5292969,1.529296 V 38.416016 C 6.6298186,37.42794 7.7059215,36.707091 8.953125,36.4375 V 21.617187 C 8.9528523,20.772693 8.2683225,20.088163 7.4238281,20.087891 Z m 49.162109,0 c -0.844607,-10e-7 -1.529297,0.684689 -1.529297,1.529296 v 14.822266 c 1.247159,0.271626 2.322781,0.994343 3.058594,1.984375 V 21.617187 c -2.72e-4,-0.844494 -0.684802,-1.529024 -1.529297,-1.529296 z"
     style="fill:none;stroke-width:0.1;stroke-linecap:square;paint-order:stroke fill markers;stroke:#000000;stroke-opacity:1;stroke-dasharray:none;filter:url(#filter34)"
     id="path34-5" />
  <path
     d="m 24,8.984375 c -2.216,0 -4,1.784 -4,4 v 15.03125 h 24 v -15.03125 c 0,-2.216 -1.784,-4 -4,-4 z M 10,36.320312 c -2.8442952,0.03034 -5.1410005,2.343997 -5.140625,5.195313 -3.779e-4,2.869764 2.3255477,5.196565 5.195313,5.197266 0.0026,0 0.0052,3e-6 0.0078,0 C 10.026148,46.428523 10,46.142658 10,45.857422 Z m 44,0 v 9.53711 c 0,0.285236 -0.02615,0.571102 -0.0625,0.855469 0.0026,3e-6 0.0052,0 0.0078,0 2.869789,-7.01e-4 5.195703,-2.327502 5.195325,-5.197266 C 59.141001,38.664309 56.844295,36.35065 54,36.320312 Z"
     style="baseline-shift:baseline;display:inline;overflow:visible;fill:none;stroke-linecap:square;paint-order:stroke fill markers;enable-background:accumulate;stop-color:#000000;stroke:#000000;stroke-opacity:1;stroke-width:0.1;stroke-dasharray:none;filter:url(#filter36)"
     id="path33-9" />
  <path
     d="m 15,28.015625 c -3,0 -5,2 -5,5 v 12.841797 c 0,3.401583 2.66965,6.862388 6.009766,7.498047 4.201901,0.799665 10.09569,1.660156 15.990234,1.660156 5.893824,0 11.788433,-0.860574 15.990234,-1.660156 C 51.33121,52.719697 54,49.259005 54,45.857422 V 33.015625 c 0,-3 -2,-5 -5,-5 z"
     style="baseline-shift:baseline;display:inline;overflow:visible;fill:none;enable-background:accumulate;stop-color:#000000;stroke:#000000;stroke-opacity:1;stroke-width:0.1;stroke-dasharray:none;filter:url(#filter35)"
     id="path31-2" />
</svg>
