<?xml version="1.0" encoding="UTF-8" standalone="no"?>
<svg
   width="64"
   height="64"
   version="1.1"
   id="svg6"
   sodipodi:docname="zdoom.svg"
   inkscape:version="1.4 (e7c3feb100, 2024-10-09)"
   xmlns:inkscape="http://www.inkscape.org/namespaces/inkscape"
   xmlns:sodipodi="http://sodipodi.sourceforge.net/DTD/sodipodi-0.dtd"
   xmlns:xlink="http://www.w3.org/1999/xlink"
   xmlns="http://www.w3.org/2000/svg"
   xmlns:svg="http://www.w3.org/2000/svg">
  <defs
     id="defs6">
    <linearGradient
       id="linearGradient10"
       inkscape:collect="always">
      <stop
         style="stop-color:#972a2a;stop-opacity:1;"
         offset="0"
         id="stop9" />
      <stop
         style="stop-color:#bd4c29;stop-opacity:1;"
         offset="1"
         id="stop10" />
    </linearGradient>
    <radialGradient
       inkscape:collect="always"
       xlink:href="#linearGradient10"
       id="radialGradient7"
       cx="10.585666"
       cy="56.813271"
       fx="10.585666"
       fy="56.813271"
       r="17.502564"
       gradientTransform="matrix(3.5842631,0,0,0.98591664,-34.109735,-6.6129045)"
       gradientUnits="userSpaceOnUse" />
    <filter
       inkscape:collect="always"
       style="color-interpolation-filters:sRGB"
       id="filter11"
       x="-0.10339902"
       y="-0.18072868"
       width="1.2066726"
       height="1.3614574">
      <feGaussianBlur
         inkscape:collect="always"
         stdDeviation="1.4644057"
         id="feGaussianBlur11" />
    </filter>
    <filter
       inkscape:collect="always"
       style="color-interpolation-filters:sRGB"
       id="filter13"
       x="-0.12497777"
       y="-0.19468132"
       width="1.2499555"
       height="1.3893626">
      <feGaussianBlur
         inkscape:collect="always"
         stdDeviation="2.1402597"
         id="feGaussianBlur13" />
    </filter>
  </defs>
  <sodipodi:namedview
     id="namedview6"
     pagecolor="#505050"
     bordercolor="#eeeeee"
     borderopacity="1"
     inkscape:showpageshadow="0"
     inkscape:pageopacity="0"
     inkscape:pagecheckerboard="0"
     inkscape:deskcolor="#505050"
     inkscape:zoom="18.28125"
     inkscape:cx="39.712821"
     inkscape:cy="25.6"
     inkscape:current-layer="svg6" />
  <path
     id="path12"
     style="fill:url(#radialGradient7);stroke-width:1.20492;stroke-linejoin:round"
     d="m 11.353193,15.794798 a 4.1573818,4.1573818 0 0 0 -4.1560249,4.156025 v 7.229506 a 4.1573818,4.1573818 0 0 0 4.1560249,4.156025 H 13.07585 L 9.4728624,34.93934 C 7.151139,37.262681 6.690117,40.75303 7.7902141,43.409065 8.8903112,46.0651 11.68339,48.203914 14.967946,48.205202 H 46.65587 a 4.1573818,4.1573818 0 0 0 0.0024,0 c 3.84649,-0.002 6.0884,-2.393636 7.930807,-5.219741 C 56.431436,40.159357 57.683691,36.391376 57.683691,32 c 0,-4.017673 -1.078951,-7.674587 -2.814612,-10.583037 -1.735661,-2.908449 -4.203797,-5.622364 -8.213209,-5.622165 H 31.836794 Z" />
  <path
     id="path12-0"
     style="opacity:1;mix-blend-mode:normal;fill:none;stroke:#000000;stroke-width:0.2;stroke-linejoin:round;stroke-dasharray:none;stroke-opacity:1;filter:url(#filter13)"
     d="M 14.939429,18.550781 A 3.450345,3.450345 0 0 0 11.49021,22 v 6 a 3.450345,3.450345 0 0 0 3.449219,3.449219 h 1.429688 l -2.990235,2.990234 c -1.926873,1.928215 -2.30949,4.824968 -1.396484,7.029297 0.913006,2.204329 3.231072,3.9794 5.957031,3.980469 h 26.298828 a 3.450345,3.450345 0 0 0 0.002,0 c 3.192326,-0.0017 5.052959,-1.986556 6.582032,-4.332031 1.529072,-2.345475 2.568359,-5.472644 2.568359,-9.117188 0,-3.334396 -0.895456,-6.369387 -2.335937,-8.783203 -1.440481,-2.413816 -3.488867,-4.666181 -6.816407,-4.666016 H 31.939429 Z"
     transform="matrix(1.2049177,0,0,1.2049177,-6.6476183,-6.5573665)" />
  <g
     id="g11"
     transform="matrix(1.2049177,0,0,1.2049177,-6.7193959,-6.5573664)">
    <path
       style="opacity:0.655001;fill:#000000;fill-opacity:1;stroke-linejoin:round"
       d="m 32,22 v 6 h 10.818359 c 1.5316,2.154945 1.541135,6.116034 0.335938,7.923828 -0.05602,0.08402 -0.01772,0.01802 -0.05859,0.07617 H 38 v -4 h -6 v 7 c 1.66e-4,1.656786 1.343214,2.999834 3,3 h 9.300781 C 46.548254,41.998847 50,37.951236 50,31.999999 50,26.626639 46.971509,22.001606 44.300781,22 Z"
       id="path3"
       sodipodi:nodetypes="cccscccccccscc" />
    <path
       style="fill:#fefefe;stroke-linejoin:round"
       d="m 15,22 v 6 h 9.757812 l -8.878906,8.878906 A 3.0003,3.0003 0 0 0 18,42 h 17 v -6 h -9.757813 l 8.878907,-8.878906 A 3.0003,3.0003 0 0 0 32,22 Z"
       id="path5" />
  </g>
  <g
     id="g10"
     transform="matrix(1.2049177,0,0,1.2049177,-12.216118,19.24023)"
     style="mix-blend-mode:normal;fill:none;stroke:#000000;stroke-width:0.2;stroke-dasharray:none;stroke-opacity:1;filter:url(#filter11)">
    <path
       style="opacity:0.655001;fill:none;fill-opacity:1;stroke:#000000;stroke-width:0.2;stroke-linejoin:round;stroke-dasharray:none;stroke-opacity:1"
       d="M 36.564103,0.58974359 V 6.5897436 h 10.818359 c 1.5316,2.154945 1.541135,6.1160344 0.335938,7.9238284 -0.05602,0.08402 -0.01772,0.01802 -0.05859,0.07617 h -5.095707 v -4 h -6 v 7 c 1.66e-4,1.656786 1.343214,2.999834 3,3 h 9.300781 c 2.247473,-0.0012 5.699219,-4.048762 5.699219,-9.999999 0,-5.3733604 -3.028491,-9.99839341 -5.699219,-9.99999941 z"
       id="path3-7"
       sodipodi:nodetypes="cccscccccccscc" />
    <path
       style="fill:none;stroke:#000000;stroke-width:0.2;stroke-linejoin:round;stroke-dasharray:none;stroke-opacity:1"
       d="M 19.564103,0.58974359 V 6.5897436 h 9.757812 L 20.443009,15.46865 a 3.0003,3.0003 0 0 0 2.121094,5.121094 h 17 v -6 H 29.80629 L 38.685197,5.7108376 A 3.0003,3.0003 0 0 0 36.564103,0.58974359 Z"
       id="path5-5" />
  </g>
</svg>
