<?xml version="1.0" encoding="UTF-8" standalone="no"?>
<svg
   width="64"
   height="64"
   version="1"
   id="svg4"
   sodipodi:docname="zegrapher.svg"
   inkscape:version="1.4 (e7c3feb100, 2024-10-09)"
   xmlns:inkscape="http://www.inkscape.org/namespaces/inkscape"
   xmlns:sodipodi="http://sodipodi.sourceforge.net/DTD/sodipodi-0.dtd"
   xmlns:xlink="http://www.w3.org/1999/xlink"
   xmlns="http://www.w3.org/2000/svg"
   xmlns:svg="http://www.w3.org/2000/svg">
  <defs
     id="defs4">
    <linearGradient
       id="linearGradient6"
       inkscape:collect="always">
      <stop
         style="stop-color:#00c8c8;stop-opacity:1;"
         offset="0"
         id="stop3" />
      <stop
         style="stop-color:#00a2c8;stop-opacity:1"
         offset="1"
         id="stop6" />
    </linearGradient>
    <linearGradient
       id="linearGradient4"
       inkscape:collect="always">
      <stop
         style="stop-color:#00c8c8;stop-opacity:1;"
         offset="0"
         id="stop4" />
      <stop
         style="stop-color:#00a2c8;stop-opacity:1;"
         offset="1"
         id="stop5" />
    </linearGradient>
    <radialGradient
       inkscape:collect="always"
       xlink:href="#linearGradient4"
       id="radialGradient5"
       cx="20.15584"
       cy="42.13303"
       fx="20.15584"
       fy="42.13303"
       r="26.019658"
       gradientTransform="matrix(2.5844637,-1.4921408,1.3122846,2.2729436,-91.615063,-12.81645)"
       gradientUnits="userSpaceOnUse" />
    <filter
       inkscape:collect="always"
       style="color-interpolation-filters:sRGB"
       id="filter8"
       x="-0.11443896"
       y="-0.1301062"
       width="1.2288781"
       height="1.260218">
      <feGaussianBlur
         inkscape:collect="always"
         stdDeviation="2.4397202"
         id="feGaussianBlur8" />
    </filter>
    <filter
       inkscape:collect="always"
       style="color-interpolation-filters:sRGB"
       id="filter2"
       x="-0.067305825"
       y="-0.077933061"
       width="1.1346116"
       height="1.1558661">
      <feGaussianBlur
         inkscape:collect="always"
         stdDeviation="1.2339401"
         id="feGaussianBlur2" />
    </filter>
    <radialGradient
       inkscape:collect="always"
       xlink:href="#linearGradient6"
       id="radialGradient3"
       cx="6.9470072"
       cy="56.993607"
       fx="6.9470072"
       fy="56.993607"
       r="24.961454"
       gradientTransform="matrix(2.6583098,-0.71229196,0.62668497,2.3388202,-47.237326,-74.359755)"
       gradientUnits="userSpaceOnUse" />
  </defs>
  <sodipodi:namedview
     id="namedview4"
     pagecolor="#505050"
     bordercolor="#eeeeee"
     borderopacity="1"
     inkscape:showpageshadow="0"
     inkscape:pageopacity="0"
     inkscape:pagecheckerboard="0"
     inkscape:deskcolor="#505050"
     inkscape:zoom="18.28125"
     inkscape:cx="30.988034"
     inkscape:cy="31.39829"
     inkscape:current-layer="svg4" />
  <path
     id="path3-3"
     style="fill:url(#radialGradient5)"
     d="M 15.328125,8.9902344 C 4.1630294,8.7165698 0.10185352,26.552375 19.833984,37.095703 5.8238364,50.425992 19.870489,63.340908 32.013672,47.320312 44.156855,63.340908 58.203507,50.425992 44.193359,37.095703 72.256834,22.100747 52.193048,-7.6476351 32.013672,20.933594 26.02292,12.448541 20.042276,9.1057816 15.328125,8.9902344 Z"
     sodipodi:nodetypes="sccccs" />
  <path
     id="path3-3-6"
     style="fill:none;stroke:#000000;stroke-opacity:1;stroke-width:0.2;stroke-dasharray:none;filter:url(#filter8)"
     d="M 15.314473,9.1211653 C 4.1493773,8.8475013 0.08820193,26.683306 19.820332,37.226634 5.8101843,50.556923 19.856837,63.471839 32.00002,47.451243 44.143203,63.471839 58.189855,50.556923 44.179707,37.226634 72.243182,22.231678 52.179396,-7.5167037 32.00002,21.064525 26.009268,12.579472 20.028624,9.2367133 15.314473,9.1211653 Z"
     sodipodi:nodetypes="sccccs" />
  <path
     style="fill:#3f3f3f"
     d="m 19.547119,50.77006 c -2.085142,-0.613738 -2.594449,-3.221054 -1.758594,-5.007296 1.264355,-3.222204 4.002515,-5.50312 6.733631,-7.472412 -1.67965,-0.567828 -1.286848,-2.56126 -0.872144,-2.991268 0.2647,-0.274468 -0.994836,-0.667924 -1.50811,-0.88777 C 17.235951,31.4798 12.670007,27.34833 10.576159,21.907774 9.6264363,19.28235 9.6481307,15.720388 12.204988,14.002808 c 2.978299,-1.978531 6.80869,-0.603991 9.55812,1.146286 3.548156,2.261554 6.256902,5.589446 8.472738,9.120896 0.988982,-1.302878 3.1232,-0.938078 3.621914,0.0368 2.984856,-4.797966 7.183626,-9.621889 12.84681,-11.084653 2.67467,-0.725094 6.0484,0.322847 6.944954,3.174553 1.197282,3.784658 -0.877532,7.648286 -3.134776,10.58407 -2.711196,3.440744 -6.248316,6.170846 -10.103926,8.216282 1.053996,1.16294 0.303372,2.638054 -0.847156,3.037442 2.930222,2.167246 6.315974,5.037286 6.992502,8.826524 0.580758,2.604558 -2.315588,4.701628 -4.6783,3.671276 -4.229322,-1.461446 -7.16017,-5.247416 -9.346232,-8.978664 -0.34151,-0.973826 -0.685072,-0.993202 -1.030782,-0.0102 -2.187516,3.728102 -5.07686,7.499818 -9.28341,8.989686 -0.862382,0.246092 -1.807948,0.327814 -2.670325,0.03682 z m 3.563951,-3.604804 c 2.715928,-1.572852 4.488702,-4.413352 5.569052,-7.295098 -2.768364,0.693556 -5.320234,2.425308 -7.0939,4.665788 -1.448616,1.592216 -0.973118,4.110502 1.524848,2.62931 z m 19.947502,0.0932 c 0.897036,-1.895972 -1.501064,-3.962972 -2.832318,-5.109034 -1.23273,-1.061234 -4.768548,-2.318 -4.768548,-2.318 1.223628,2.932866 3.022562,6.244488 6.004266,7.622204 0.511294,0.19264 1.336458,0.354664 1.5966,-0.19518 z M 23.5749,26.757346 c -3.966401,2.519982 5.819408,7.37492 6.067734,6.463836 0.496872,0.16572 -2.824388,-8.52444 -6.067734,-6.463836 z m 13.174318,5.947576 c 2.012342,-0.7964 4.483884,-2.334806 4.48,-4.765812 -0.8341,-2.477874 -3.92974,-0.551498 -4.8238,0.939062 -0.686032,1.075704 -2.023386,3.7109 -1.705168,4.366958 0.653922,-0.11086 1.42489,-0.32008 2.048968,-0.540208 z M 24.203192,23.853368 c -1.494454,-1.217974 -3.456186,-3.053004 -5.359904,-2.272836 -1.873387,0.767732 0.343765,4.12785 1.17263,5.490038 0.645582,-3.373798 3.307508,-3.063048 4.187274,-3.217202 z m 19.604302,-2.245164 c -1.304866,0.229066 -3.870458,1.727744 -4.010424,2.42454 1.695446,-0.209924 3.885628,0.259 4.370746,3.061172 0,0 4.093852,-6.393894 -0.360322,-5.485712 z M 15.138386,20.964638 c 0.6577,-1.95288 2.731472,-2.887264 4.680544,-2.768108 1.466122,0.07212 -1.259695,-0.939113 -1.504623,-1.179535 -1.51426,-0.767835 -4.527114,-1.402121 -4.927771,0.950576 -0.274181,1.499153 0.524884,4.176027 1.404711,4.699967 0.05159,-0.578008 0.150626,-1.15523 0.347139,-1.7029 z m 33.7721,-4.613438 c -1.953484,-0.18775 -3.720006,0.837029 -5.328944,1.813414 4.049456,-0.585641 5.842946,2.301858 5.812962,4.635542 2.098494,-3.826092 1.489004,-6.081754 -0.484018,-6.448956 z"
     id="path3" />
  <path
     style="fill:url(#radialGradient3);fill-opacity:1;stroke:none;stroke-opacity:1;opacity:0.28679182;stroke-width:0.20000001;stroke-dasharray:none;filter:url(#filter2)"
     d="m 19.547119,50.77006 c -2.085142,-0.613738 -2.594449,-3.221054 -1.758594,-5.007296 1.264355,-3.222204 4.002515,-5.50312 6.733631,-7.472412 -1.67965,-0.567828 -1.286848,-2.56126 -0.872144,-2.991268 0.2647,-0.274468 -0.994836,-0.667924 -1.50811,-0.88777 C 17.235951,31.4798 12.670007,27.34833 10.576159,21.907774 9.626436,19.28235 9.648131,15.720388 12.204988,14.002808 c 2.978299,-1.978531 6.80869,-0.603991 9.55812,1.146286 3.548156,2.261554 6.256902,5.589446 8.472738,9.120896 0.988982,-1.302878 3.1232,-0.938078 3.621914,0.0368 2.984856,-4.797966 7.183626,-9.621889 12.84681,-11.084653 2.67467,-0.725094 6.0484,0.322847 6.944954,3.174553 1.197282,3.784658 -0.877532,7.648286 -3.134776,10.58407 -2.711196,3.440744 -6.248316,6.170846 -10.103926,8.216282 1.053996,1.16294 0.303372,2.638054 -0.847156,3.037442 2.930222,2.167246 6.315974,5.037286 6.992502,8.826524 0.580758,2.604558 -2.315588,4.701628 -4.6783,3.671276 -4.229322,-1.461446 -7.16017,-5.247416 -9.346232,-8.978664 -0.34151,-0.973826 -0.685072,-0.993202 -1.030782,-0.0102 -2.187516,3.728102 -5.07686,7.499818 -9.28341,8.989686 -0.862382,0.246092 -1.807948,0.327814 -2.670325,0.03682 z m 3.563951,-3.604804 c 2.715928,-1.572852 4.488702,-4.413352 5.569052,-7.295098 -2.768364,0.693556 -5.320234,2.425308 -7.0939,4.665788 -1.448616,1.592216 -0.973118,4.110502 1.524848,2.62931 z m 19.947502,0.0932 c 0.897036,-1.895972 -1.501064,-3.962972 -2.832318,-5.109034 -1.23273,-1.061234 -4.768548,-2.318 -4.768548,-2.318 1.223628,2.932866 3.022562,6.244488 6.004266,7.622204 0.511294,0.19264 1.336458,0.354664 1.5966,-0.19518 z M 23.5749,26.757346 c -3.966401,2.519982 5.819408,7.37492 6.067734,6.463836 0.496872,0.16572 -2.824388,-8.52444 -6.067734,-6.463836 z m 13.174318,5.947576 c 2.012342,-0.7964 4.483884,-2.334806 4.48,-4.765812 -0.8341,-2.477874 -3.92974,-0.551498 -4.8238,0.939062 -0.686032,1.075704 -2.023386,3.7109 -1.705168,4.366958 0.653922,-0.11086 1.42489,-0.32008 2.048968,-0.540208 z M 24.203192,23.853368 c -1.494454,-1.217974 -3.456186,-3.053004 -5.359904,-2.272836 -1.873387,0.767732 0.343765,4.12785 1.17263,5.490038 0.645582,-3.373798 3.307508,-3.063048 4.187274,-3.217202 z m 19.604302,-2.245164 c -1.304866,0.229066 -3.870458,1.727744 -4.010424,2.42454 1.695446,-0.209924 3.885628,0.259 4.370746,3.061172 0,0 4.093852,-6.393894 -0.360322,-5.485712 z M 15.138386,20.964638 c 0.6577,-1.95288 2.731472,-2.887264 4.680544,-2.768108 1.466122,0.07212 -1.259695,-0.939113 -1.504623,-1.179535 -1.51426,-0.767835 -4.527114,-1.402121 -4.927771,0.950576 -0.274181,1.499153 0.524884,4.176027 1.404711,4.699967 0.05159,-0.578008 0.150626,-1.15523 0.347139,-1.7029 z m 33.7721,-4.613438 c -1.953484,-0.18775 -3.720006,0.837029 -5.328944,1.813414 4.049456,-0.585641 5.842946,2.301858 5.812962,4.635542 2.098494,-3.826092 1.489004,-6.081754 -0.484018,-6.448956 z"
     id="path3-7" />
</svg>
