<?xml version="1.0" encoding="UTF-8" standalone="no"?>
<svg
   width="64"
   height="64"
   version="1.1"
   id="svg10"
   sodipodi:docname="zen-bound-2.svg"
   inkscape:version="1.4 (e7c3feb100, 2024-10-09)"
   xmlns:inkscape="http://www.inkscape.org/namespaces/inkscape"
   xmlns:sodipodi="http://sodipodi.sourceforge.net/DTD/sodipodi-0.dtd"
   xmlns:xlink="http://www.w3.org/1999/xlink"
   xmlns="http://www.w3.org/2000/svg"
   xmlns:svg="http://www.w3.org/2000/svg">
  <defs
     id="defs10">
    <linearGradient
       id="linearGradient17"
       inkscape:collect="always">
      <stop
         style="stop-color:#69501b;stop-opacity:1;"
         offset="0"
         id="stop18" />
      <stop
         style="stop-color:#613615;stop-opacity:1;"
         offset="1"
         id="stop19" />
    </linearGradient>
    <linearGradient
       id="linearGradient16"
       inkscape:collect="always">
      <stop
         style="stop-color:#9b7528;stop-opacity:1;"
         offset="0"
         id="stop16" />
      <stop
         style="stop-color:#9b5928;stop-opacity:1;"
         offset="1"
         id="stop17" />
    </linearGradient>
    <inkscape:path-effect
       effect="fillet_chamfer"
       id="path-effect16"
       is_visible="true"
       lpeversion="1"
       nodesatellites_param="F,0,1,1,0,1.7921281,0,1 @ F,0,1,1,0,1.7921281,0,1 @ F,0,0,1,0,1.7921281,0,1 @ F,0,1,1,0,1.7921281,0,1 @ F,0,1,1,0,1.7921281,0,1 @ F,0,1,1,0,1.7921281,0,1 @ F,0,1,1,0,1.7921281,0,1 @ F,0,1,1,0,1.7921281,0,1 @ F,0,1,1,0,1.7921281,0,1 @ F,0,1,1,0,1.7921281,0,1"
       radius="0"
       unit="px"
       method="auto"
       mode="F"
       chamfer_steps="1"
       flexible="false"
       use_knot_distance="true"
       apply_no_radius="true"
       apply_with_radius="true"
       only_selected="false"
       hide_knots="false" />
    <inkscape:path-effect
       effect="fillet_chamfer"
       id="path-effect15"
       is_visible="true"
       lpeversion="1"
       nodesatellites_param="F,0,0,1,0,1.8067969,0,1 @ F,0,1,1,0,1.8067969,0,1 @ F,0,1,1,0,1.8067969,0,1 @ F,0,1,1,0,1.8067969,0,1 @ F,0,1,1,0,1.8067969,0,1 @ F,0,1,1,0,1.8067969,0,1 @ F,0,1,1,0,1.8067969,0,1 | F,0,1,1,0,1.8067969,0,1 @ F,0,1,1,0,1.8067969,0,1 @ F,0,1,1,0,1.8067969,0,1 @ F,0,1,1,0,1.8067969,0,1 @ F,0,1,1,0,1.8067969,0,1 @ F,0,1,1,0,1.8067969,0,1 @ F,0,1,1,0,1.8067969,0,1 | F,0,1,1,0,1.8067969,0,1 @ F,0,1,1,0,1.8067969,0,1 @ F,0,1,1,0,1.8067969,0,1 @ F,0,1,1,0,1.8067969,0,1 @ F,0,1,1,0,1.8067969,0,1 @ F,0,1,1,0,1.8067969,0,1 @ F,0,1,1,0,1.8067969,0,1"
       radius="0"
       unit="px"
       method="auto"
       mode="F"
       chamfer_steps="1"
       flexible="false"
       use_knot_distance="true"
       apply_no_radius="true"
       apply_with_radius="true"
       only_selected="false"
       hide_knots="false" />
    <linearGradient
       id="linearGradient13"
       inkscape:collect="always">
      <stop
         style="stop-color:#8ab9c1;stop-opacity:1;"
         offset="0"
         id="stop14" />
      <stop
         style="stop-color:#8a9cc1;stop-opacity:1;"
         offset="1"
         id="stop15" />
    </linearGradient>
    <linearGradient
       id="linearGradient11"
       inkscape:collect="always">
      <stop
         style="stop-color:#28837e;stop-opacity:1;"
         offset="0"
         id="stop12" />
      <stop
         style="stop-color:#5cc0e3;stop-opacity:1;"
         offset="1"
         id="stop13" />
    </linearGradient>
    <linearGradient
       id="linearGradient10"
       inkscape:collect="always">
      <stop
         style="stop-color:#148256;stop-opacity:1;"
         offset="0"
         id="stop10" />
      <stop
         style="stop-color:#59dda8;stop-opacity:1;"
         offset="1"
         id="stop11" />
    </linearGradient>
    <radialGradient
       inkscape:collect="always"
       xlink:href="#linearGradient10"
       id="radialGradient11"
       cx="23.180275"
       cy="48.922344"
       fx="23.180275"
       fy="48.922344"
       r="28"
       gradientTransform="matrix(3.1529131,-0.84482052,0.67887365,2.5335909,-97.269012,-48.992872)"
       gradientUnits="userSpaceOnUse" />
    <radialGradient
       inkscape:collect="always"
       xlink:href="#linearGradient11"
       id="radialGradient13"
       cx="28.66432"
       cy="34.452938"
       fx="28.66432"
       fy="34.452938"
       r="8"
       gradientTransform="matrix(5.148405,0,0,5.5669507,-132.74896,-136.55183)"
       gradientUnits="userSpaceOnUse" />
    <radialGradient
       inkscape:collect="always"
       xlink:href="#linearGradient13"
       id="radialGradient15"
       cx="32.326427"
       cy="18.660873"
       fx="32.326427"
       fy="18.660873"
       r="7"
       gradientTransform="matrix(2.7219725,0.72935033,-0.69226901,2.5835831,-54.425128,-54.384565)"
       gradientUnits="userSpaceOnUse" />
    <radialGradient
       inkscape:collect="always"
       xlink:href="#linearGradient16"
       id="radialGradient17"
       cx="27.154819"
       cy="30.15377"
       fx="27.154819"
       fy="30.15377"
       r="10.999247"
       gradientTransform="matrix(2.3705541,0,0,2.1551866,-43.857732,-35.809969)"
       gradientUnits="userSpaceOnUse" />
    <radialGradient
       inkscape:collect="always"
       xlink:href="#linearGradient17"
       id="radialGradient19"
       cx="28.300627"
       cy="34.323292"
       fx="28.300627"
       fy="34.323292"
       r="10.999247"
       gradientTransform="matrix(2.6868361,0,0,2.4425615,-53.978751,-44.719407)"
       gradientUnits="userSpaceOnUse" />
    <inkscape:path-effect
       effect="fillet_chamfer"
       id="path-effect16-0"
       is_visible="true"
       lpeversion="1"
       nodesatellites_param="F,0,1,1,0,1.7921281,0,1 @ F,0,1,1,0,1.7921281,0,1 @ F,0,0,1,0,1.7921281,0,1 @ F,0,1,1,0,1.7921281,0,1 @ F,0,1,1,0,1.7921281,0,1 @ F,0,1,1,0,1.7921281,0,1 @ F,0,1,1,0,1.7921281,0,1 @ F,0,1,1,0,1.7921281,0,1 @ F,0,1,1,0,1.7921281,0,1 @ F,0,1,1,0,1.7921281,0,1"
       radius="0"
       unit="px"
       method="auto"
       mode="F"
       chamfer_steps="1"
       flexible="false"
       use_knot_distance="true"
       apply_no_radius="true"
       apply_with_radius="true"
       only_selected="false"
       hide_knots="false" />
    <inkscape:path-effect
       effect="fillet_chamfer"
       id="path-effect15-0"
       is_visible="true"
       lpeversion="1"
       nodesatellites_param="F,0,0,1,0,1.8067969,0,1 @ F,0,1,1,0,1.8067969,0,1 @ F,0,1,1,0,1.8067969,0,1 @ F,0,1,1,0,1.8067969,0,1 @ F,0,1,1,0,1.8067969,0,1 @ F,0,1,1,0,1.8067969,0,1 @ F,0,1,1,0,1.8067969,0,1 | F,0,1,1,0,1.8067969,0,1 @ F,0,1,1,0,1.8067969,0,1 @ F,0,1,1,0,1.8067969,0,1 @ F,0,1,1,0,1.8067969,0,1 @ F,0,1,1,0,1.8067969,0,1 @ F,0,1,1,0,1.8067969,0,1 @ F,0,1,1,0,1.8067969,0,1 | F,0,1,1,0,1.8067969,0,1 @ F,0,1,1,0,1.8067969,0,1 @ F,0,1,1,0,1.8067969,0,1 @ F,0,1,1,0,1.8067969,0,1 @ F,0,1,1,0,1.8067969,0,1 @ F,0,1,1,0,1.8067969,0,1 @ F,0,1,1,0,1.8067969,0,1"
       radius="0"
       unit="px"
       method="auto"
       mode="F"
       chamfer_steps="1"
       flexible="false"
       use_knot_distance="true"
       apply_no_radius="true"
       apply_with_radius="true"
       only_selected="false"
       hide_knots="false" />
    <filter
       inkscape:collect="always"
       style="color-interpolation-filters:sRGB"
       id="filter23"
       x="-0.074944992"
       y="-0.0846398"
       width="1.14989"
       height="1.1692795">
      <feGaussianBlur
         inkscape:collect="always"
         stdDeviation="1.6909421"
         id="feGaussianBlur23" />
    </filter>
  </defs>
  <sodipodi:namedview
     id="namedview10"
     pagecolor="#505050"
     bordercolor="#eeeeee"
     borderopacity="1"
     inkscape:showpageshadow="0"
     inkscape:pageopacity="0"
     inkscape:pagecheckerboard="0"
     inkscape:deskcolor="#505050"
     inkscape:zoom="18.109375"
     inkscape:cx="36.058671"
     inkscape:cy="31.94478"
     inkscape:current-layer="svg10" />
  <path
     d="M 6.1919759,13.616048 4.8080241,16.383952 A 5.1507824,5.1507824 97.235147 0 0 4.3785765,19.76669 l 2.242847,10.46662 a 3.9377781,3.9377781 53.257851 0 0 1.9647555,2.631879 l 7.827642,4.269622 a 3.312461,3.312461 0 0 0 3.172358,0 l 7.827642,-4.269622 A 3.0436256,3.0436256 120.69477 0 0 29,30.193203 V 27.806797 A 2.164927,2.164927 50.152423 0 0 27.222347,25.67679 l -7.444694,-1.35358 a 5.3711595,5.3711595 28.8972 0 1 -2.99855,-1.655098 L 8.2208972,13.331888 a 1.2435306,1.2435306 172.0273 0 0 -2.0289213,0.28416 z m 49.5871271,-0.28416 -8.558206,9.336224 a 5.3711595,5.3711595 151.1028 0 1 -2.99855,1.655098 l -7.444694,1.35358 A 2.164927,2.164927 129.84758 0 0 35,27.806797 v 2.386406 a 3.0436256,3.0436256 59.30523 0 0 1.586179,2.671986 l 7.827642,4.269622 a 3.3423643,3.3423643 0.21593478 0 0 3.178834,0.01198 l 8.01469,-4.293584 a 3.8299633,3.8299633 126.56567 0 0 1.946997,-2.624918 l 2.091316,-10.45658 a 5.2659752,5.2659752 82.372441 0 0 -0.453682,-3.387758 l -1.383952,-2.767904 a 1.2435306,1.2435306 7.972698 0 0 -2.028921,-0.28416 z m -28.224541,30.75219 -5.109124,3.831844 a 2.003349,2.003349 101.08317 0 0 -0.515849,2.633394 l 1.140822,1.901368 a 5.1767456,5.1767456 39.796144 0 0 2.621346,2.183725 l 4.616486,1.731182 a 4.8181251,4.8181251 0 0 0 3.383514,0 l 4.616486,-1.731182 a 5.1767456,5.1767456 140.20386 0 0 2.621346,-2.183725 l 1.140822,-1.901368 A 2.003349,2.003349 78.916827 0 0 41.554562,47.915922 L 36.445438,44.084078 A 5.4203907,5.4203907 18.434949 0 0 33.193203,43 h -2.386406 a 5.4203907,5.4203907 161.56505 0 0 -3.252235,1.084078 z"
     style="fill:url(#radialGradient11)"
     id="path2"
     inkscape:path-effect="#path-effect15"
     inkscape:original-d="m 7,12 -3,6 3,14 11,6 11,-6 V 26 L 18,24 Z m 50,0 -11,12 -11,2 v 6 L 46,38 57.2,32 60,18 Z m -28,31 -8,6 3,5 8,3 8,-3 3,-5 -8,-6 z" />
  <path
     d="m 30.732774,8.067226 -3.065548,3.065548 a 2.5639566,2.5639566 100.04762 0 0 -0.512541,2.892702 l 1.09063,2.349048 a 3.3068699,3.3068699 93.550307 0 1 -0.195141,3.145198 l -3.100348,4.960556 A 6.2487855,6.2487855 106.00269 0 0 24,27.792128 v 8.415744 a 7.1685124,7.1685124 75.963757 0 0 0.843354,3.373418 l 6.313292,11.837421 a 0.95580165,0.95580165 0 0 0 1.686708,0 L 39.156646,39.58129 A 7.1685124,7.1685124 104.03624 0 0 40,36.207872 v -8.415744 a 6.2487855,6.2487855 73.997308 0 0 -0.949826,-3.31185 l -3.100348,-4.960556 a 3.3068699,3.3068699 86.449693 0 1 -0.195141,-3.145198 l 1.09063,-2.349048 A 2.5639566,2.5639566 79.952384 0 0 36.332774,11.132774 L 33.267226,8.067226 a 1.7921281,1.7921281 0 0 0 -2.534452,0 z"
     style="fill:url(#radialGradient13)"
     id="path5"
     inkscape:path-effect="#path-effect16"
     inkscape:original-d="M 32,6.8000001 26.4,12.4 29,18 24,26 v 12 l 8,15 8,-15 V 26 l -5,-8 2.6,-5.6 z" />
  <rect
     x="32"
     y="12"
     width="14"
     height="3"
     style="fill:url(#radialGradient15)"
     id="rect7"
     rx="1.5"
     ry="1.5" />
  <path
     style="fill:url(#radialGradient19);stroke-linecap:round;stroke-linejoin:round"
     d="m 38.025391,21.742187 -16,14 a 3,3 0 0 0 -0.283204,4.232422 3,3 0 0 0 4.232422,0.283203 l 16,-14 a 3,3 0 0 0 0.283203,-4.232421 3,3 0 0 0 -4.232421,-0.283204 z"
     id="path8" />
  <path
     style="fill:url(#radialGradient17);stroke-linecap:round;stroke-linejoin:round"
     d="m 23.800781,21.005859 a 3,3 0 0 0 -2.058594,1.019532 3,3 0 0 0 0.283204,4.232421 l 16,14 a 3,3 0 0 0 4.232421,-0.283203 3,3 0 0 0 -0.283203,-4.232422 l -16,-14 a 3,3 0 0 0 -2.173828,-0.736328 z"
     id="path10" />
  <g
     id="g23"
     style="filter:url(#filter23)">
    <path
       d="m 7.2263032,12.834979 c -0.394953,0.05754 -0.748101,0.303874 -0.933594,0.675782 l -1.384765,2.767578 c -0.523158,1.046111 -0.674696,2.239128 -0.429688,3.382812 l 2.242188,10.466797 c 0.240629,1.121217 0.958064,2.081838 1.964843,2.630859 l 7.8281248,4.269532 c 0.988569,0.539112 2.183307,0.539112 3.171875,0 l 2.291016,-1.25 c 0.04835,-0.04848 0.09614,-0.09682 0.148437,-0.142578 l 1.97461,-1.728516 v -6.027344 l -1.97461,-1.728515 c -0.525992,-0.460182 -0.85072,-1.063774 -0.970703,-1.701172 l -1.277343,-0.232422 c -1.153316,-0.210116 -2.206222,-0.791786 -2.998047,-1.65625 L 8.3200532,13.225604 c -0.182199,-0.199025 -0.424189,-0.333388 -0.689453,-0.382812 -0.136245,-0.02508 -0.272646,-0.02699 -0.404297,-0.0078 z m 49.7460948,0 c -0.13185,-0.01907 -0.26789,-0.0175 -0.4043,0.0078 -0.26526,0.04942 -0.50725,0.183787 -0.68945,0.382812 l -8.55859,9.335938 c -0.79183,0.864464 -1.84474,1.446134 -2.99805,1.65625 l -1.277346,0.232422 c -0.119982,0.637398 -0.44471,1.24099 -0.970703,1.701172 l -1.974609,1.728515 v 6.027344 l 1.974609,1.728516 c 0.0523,0.04575 0.100089,0.0941 0.148438,0.142578 l 2.291011,1.25 c 0.99005,0.540101 2.1857,0.544508 3.17969,0.01172 l 8.01367,-4.292968 c 1.0086,-0.540213 1.72286,-1.503063 1.94727,-2.625 l 2.0918,-10.457032 c 0.22959,-1.14789 0.0701,-2.339557 -0.45313,-3.386718 l -1.38476,-2.767578 c -0.18566,-0.372507 -0.54001,-0.618562 -0.93555,-0.675782 z m -29.539064,31.308594 -4.888672,3.666016 c -0.820881,0.615976 -1.043501,1.752687 -0.515625,2.632812 l 1.140625,1.902344 c 0.601881,1.00311 1.525772,1.77279 2.621094,2.183594 l 4.617188,1.730468 c 1.090542,0.408857 2.29227,0.408857 3.382812,0 l 4.617188,-1.730468 c 1.095322,-0.410804 2.019213,-1.180484 2.621093,-2.183594 l 1.140625,-1.902344 c 0.527877,-0.880125 0.305257,-2.016836 -0.515625,-2.632812 L 36.765365,44.143573 32.9431,51.311542 c -0.359596,0.675673 -1.327904,0.675673 -1.6875,0 z"
       style="baseline-shift:baseline;display:inline;overflow:visible;fill:none;stroke:#000000;stroke-width:0.2;stroke-dasharray:none;stroke-opacity:1;enable-background:accumulate;stop-color:#000000;stop-opacity:1"
       id="path23" />
    <path
       d="m 32.09935,7.4365421 c -0.475494,3.61e-5 -0.931483,0.1890361 -1.267578,0.5253911 l -3.064453,3.0644528 c -0.761406,0.76079 -0.966578,1.916147 -0.513672,2.892578 l 1.091797,2.349609 c 0.470485,1.013831 0.397014,2.196714 -0.195313,3.144531 l -1.630859,2.611328 5.580078,4.882813 5.582031,-4.882813 -1.630859,-2.611328 c -0.592327,-0.947817 -0.665798,-2.1307 -0.195313,-3.144531 l 0.638672,-1.375 H 33.59935 c -0.831,0 -1.5,-0.669 -1.5,-1.5 0,-0.831 0.669,-1.5 1.5,-1.5 h 3.396484 c -0.126215,-0.317596 -0.310647,-0.615168 -0.5625,-0.867187 L 33.366928,7.9619332 C 33.030832,7.6255782 32.574844,7.4365782 32.09935,7.4365421 Z m -8,20.4433589 v 6.027344 l 3.445312,-3.013672 z m 16,0 -3.445313,3.013672 3.445313,3.013672 z m -8,7 -6.025391,5.271485 c -0.176115,0.153969 -0.366594,0.281021 -0.564453,0.386718 L 31.2556,51.311542 c 0.359596,0.675673 1.327904,0.675673 1.6875,0 l 5.746094,-10.773438 c -0.19786,-0.105697 -0.388338,-0.232749 -0.564454,-0.386718 z"
       style="baseline-shift:baseline;display:inline;overflow:visible;fill:none;stroke:#000000;stroke-width:0.2;stroke-dasharray:none;stroke-opacity:1;enable-background:accumulate;stop-color:#000000;stop-opacity:1"
       id="path22" />
    <path
       d="m 33.59935,11.893573 c -0.831,0 -1.5,0.669 -1.5,1.5 0,0.831 0.669,1.5 1.5,1.5 h 10.999998 c 0.831,0 1.5,-0.669 1.5,-1.5 0,-0.831 -0.669,-1.5 -1.5,-1.5 z"
       style="baseline-shift:baseline;display:inline;overflow:visible;fill:none;stroke:#000000;stroke-width:0.2;stroke-dasharray:none;stroke-opacity:1;enable-background:accumulate;stop-color:#000000;stop-opacity:1"
       id="path21" />
    <path
       d="m 40.003647,20.895526 c -0.689886,0.02191 -1.354641,0.282026 -1.878907,0.740235 l -6.02539,5.271484 4.554687,3.986328 5.419922,-4.742187 c 1.24667,-1.090688 1.373448,-2.985365 0.283203,-4.232422 -0.523616,-0.598327 -1.263335,-0.964323 -2.05664,-1.017578 -0.09924,-0.0067 -0.19832,-0.009 -0.296875,-0.0059 z m -12.458985,9.998047 -5.419922,4.742188 c -1.246669,1.090688 -1.373447,2.985364 -0.283203,4.232421 1.090688,1.24667 2.985365,1.373448 4.232422,0.283204 l 6.025391,-5.271485 z"
       style="baseline-shift:baseline;display:inline;overflow:visible;fill:none;stroke:#000000;stroke-width:0.2;stroke-linecap:round;stroke-linejoin:round;stroke-dasharray:none;stroke-opacity:1;enable-background:accumulate;stop-color:#000000;stop-opacity:1"
       id="path20" />
    <path
       d="m 23.900131,20.899432 a 3,3 0 0 0 -2.058594,1.019532 3,3 0 0 0 0.283203,4.232422 l 16,14 a 3,3 0 0 0 4.232422,-0.283204 3,3 0 0 0 -0.283203,-4.232421 l -16,-14 a 3,3 0 0 0 -2.173828,-0.736329 z"
       style="baseline-shift:baseline;display:inline;overflow:visible;fill:none;stroke:#000000;stroke-width:0.2;stroke-linecap:round;stroke-linejoin:round;stroke-dasharray:none;stroke-opacity:1;enable-background:accumulate;stop-color:#000000;stop-opacity:1"
       id="path19" />
  </g>
</svg>
