<?xml version="1.0" encoding="UTF-8" standalone="no"?>
<svg
   width="64"
   height="64"
   version="1.1"
   id="svg8"
   sodipodi:docname="zenbooru.svg"
   inkscape:version="1.4 (e7c3feb100, 2024-10-09)"
   xmlns:inkscape="http://www.inkscape.org/namespaces/inkscape"
   xmlns:sodipodi="http://sodipodi.sourceforge.net/DTD/sodipodi-0.dtd"
   xmlns:xlink="http://www.w3.org/1999/xlink"
   xmlns="http://www.w3.org/2000/svg"
   xmlns:svg="http://www.w3.org/2000/svg">
  <defs
     id="defs8">
    <linearGradient
       id="linearGradient12"
       inkscape:collect="always">
      <stop
         style="stop-color:#55d400;stop-opacity:1;"
         offset="0"
         id="stop13" />
      <stop
         style="stop-color:#00d4aa;stop-opacity:1;"
         offset="1"
         id="stop14" />
    </linearGradient>
    <linearGradient
       id="linearGradient11"
       inkscape:collect="always">
      <stop
         style="stop-color:#1f1f1f;stop-opacity:1;"
         offset="0"
         id="stop11" />
      <stop
         style="stop-color:#323232;stop-opacity:1;"
         offset="1"
         id="stop12" />
    </linearGradient>
    <linearGradient
       id="linearGradient8"
       inkscape:collect="always">
      <stop
         style="stop-color:#212121;stop-opacity:1;"
         offset="0"
         id="stop8" />
      <stop
         style="stop-color:#3a3a3a;stop-opacity:1;"
         offset="1"
         id="stop9" />
    </linearGradient>
    <radialGradient
       inkscape:collect="always"
       xlink:href="#linearGradient8"
       id="radialGradient10"
       cx="3.1727602"
       cy="113.69601"
       fx="3.1727602"
       fy="113.69601"
       r="28"
       gradientTransform="matrix(1.7938873,0,0,1.6963382,-1.4393076,-136.5233)"
       gradientUnits="userSpaceOnUse" />
    <radialGradient
       inkscape:collect="always"
       xlink:href="#linearGradient11"
       id="radialGradient12"
       cx="23.572069"
       cy="40.860413"
       fx="23.572069"
       fy="40.860413"
       r="6.9990001"
       gradientTransform="matrix(4.3315437,-2.5008179,3.5806108,6.2017999,-224.52102,-150.64325)"
       gradientUnits="userSpaceOnUse" />
    <filter
       inkscape:collect="always"
       style="color-interpolation-filters:sRGB"
       id="filter12"
       x="-0.4694015"
       y="-0.25552612"
       width="1.938803"
       height="1.5110522">
      <feGaussianBlur
         inkscape:collect="always"
         stdDeviation="1.1735037"
         id="feGaussianBlur12" />
    </filter>
    <radialGradient
       inkscape:collect="always"
       xlink:href="#linearGradient12"
       id="radialGradient14"
       cx="24.001032"
       cy="41.333092"
       fx="24.001032"
       fy="41.333092"
       r="12.998"
       gradientTransform="matrix(3.3234027,-0.89050307,1.1670811,4.3556059,-109.33815,-107.47094)"
       gradientUnits="userSpaceOnUse" />
    <filter
       inkscape:collect="always"
       style="color-interpolation-filters:sRGB"
       id="filter14"
       x="-0.10180156"
       y="-0.077676357"
       width="1.2036031"
       height="1.1553527">
      <feGaussianBlur
         inkscape:collect="always"
         stdDeviation="1.0610139"
         id="feGaussianBlur14" />
    </filter>
    <filter
       inkscape:collect="always"
       style="color-interpolation-filters:sRGB"
       id="filter15"
       x="-0.093108712"
       y="-0.10862572"
       width="1.1861912"
       height="1.2172514">
      <feGaussianBlur
         inkscape:collect="always"
         stdDeviation="2.1308476"
         id="feGaussianBlur15" />
    </filter>
    <filter
       inkscape:collect="always"
       style="color-interpolation-filters:sRGB"
       id="filter16"
       x="-0.11139684"
       y="-0.11948673"
       width="1.2227937"
       height="1.239002">
      <feGaussianBlur
         inkscape:collect="always"
         stdDeviation="1.8792043"
         id="feGaussianBlur16" />
    </filter>
  </defs>
  <sodipodi:namedview
     id="namedview8"
     pagecolor="#505050"
     bordercolor="#eeeeee"
     borderopacity="1"
     inkscape:showpageshadow="0"
     inkscape:pageopacity="0"
     inkscape:pagecheckerboard="0"
     inkscape:deskcolor="#505050"
     inkscape:zoom="18.28125"
     inkscape:cx="40.888889"
     inkscape:cy="27.241026"
     inkscape:current-layer="svg8" />
  <path
     style="fill:#e4e4e4;stroke-width:0.962552"
     d="m 11.785521,18.447916 c 0,0 5.389596,-3.858245 18.863583,-3.858245 13.473987,0 20.595952,4.822806 20.595952,4.822806 0,0 0.962428,8.488138 0.962428,15.240066 0,12.153471 -4.812139,15.625891 -4.812139,15.625891 l -15.398843,2.893684 -16.36127,-1.929123 c 0,0 -4.812138,-8.488138 -4.812138,-16.590452 0,-5.420265 0.962427,-16.204627 0.962427,-16.204627 z"
     id="path3" />
  <path
     style="fill:none;stroke-width:0.2;stroke:#000000;stroke-opacity:1;stroke-dasharray:none;filter:url(#filter16)"
     d="m 11.785521,18.447916 c 0,0 5.389596,-3.858245 18.863583,-3.858245 13.473987,0 20.595952,4.822806 20.595952,4.822806 0,0 0.962428,8.488138 0.962428,15.240066 0,12.153471 -4.812139,15.625891 -4.812139,15.625891 l -15.398843,2.893684 -16.36127,-1.929123 c 0,0 -4.812138,-8.488138 -4.812138,-16.590452 0,-5.420265 0.962427,-16.204627 0.962427,-16.204627 z"
     id="path3-1" />
  <ellipse
     style="fill:url(#radialGradient14);stroke-width:0.962552"
     cx="32.092381"
     cy="32.916348"
     rx="12.511247"
     ry="16.397068"
     id="ellipse5" />
  <ellipse
     style="fill:none;stroke:#a4470c;stroke-width:0.2;stroke-dasharray:none;stroke-opacity:1;filter:url(#filter14)"
     cx="32.096001"
     cy="32.952"
     rx="12.998"
     ry="17.035"
     id="ellipse5-3"
     transform="matrix(0.96255166,0,0,0.96255166,1.1983212,1.1983469)" />
  <ellipse
     style="fill:url(#radialGradient12);stroke-width:0.962552"
     cx="31.996124"
     cy="32.916348"
     rx="6.7368989"
     ry="9.64573"
     id="ellipse6" />
  <ellipse
     style="opacity:0.68543;mix-blend-mode:normal;fill:#ffffff;filter:url(#filter12)"
     id="ellipse8"
     ry="5.5110002"
     rx="3"
     cy="26.438"
     cx="28.997"
     transform="matrix(0.96255166,0,0,0.96255166,1.1983212,1.1983469)" />
  <ellipse
     style="opacity:0.624356;fill:#ffffff;stroke-width:0.962552"
     id="ellipse8-3"
     ry="5.3046222"
     rx="2.887655"
     cy="26.646288"
     cx="29.109432" />
  <path
     id="path2"
     style="fill:url(#radialGradient10);stroke-width:0.962552"
     d="m 26.606301,8.8987602 c -8.271532,0 -13.570093,1.8298088 -16.8239742,3.6415278 -1.6269405,0.90586 -2.7391275,1.829509 -3.4554101,2.547379 -0.7162825,0.717869 -1.0866306,1.315988 -1.0866305,1.315988 -0.2256511,0.376957 -0.253004,0.840816 -0.075199,1.24267 L 10.55312,29.800419 c 0.623949,1.397248 2.720446,0.839217 2.571818,-0.684314 0,0 -0.278835,-3.022727 1.21259,-6.012188 1.491424,-2.989463 4.558658,-6.006548 12.268773,-6.006548 10.417411,0 30.643735,5.356073 30.643735,5.356073 1.331845,0.356544 2.274432,-1.283394 1.299068,-2.25974 l -1.372388,-1.376147 1.022711,-0.511356 c 1.033208,-0.516617 0.981565,-2.010961 -0.0846,-2.455259 0,0 -16.27884,-6.9521798 -31.508527,-6.9521798 z M 14.089369,49.31465 a 1.3541366,1.4434623 0 0 0 -0.943752,2.477818 c 0,0 0.377365,0.366275 0.943752,0.695594 0.566387,0.329318 1.419866,0.727182 2.686497,1.112951 2.533264,0.771535 6.715088,1.500227 13.575362,1.500227 6.193302,0 10.697797,-0.735635 13.678762,-1.483308 2.980964,-0.747672 4.528881,-1.554746 4.528881,-1.554746 a 1.354853,1.444226 0 1 0 -1.21259,-2.583098 c 0,0 -1.161264,0.635383 -3.934805,1.331029 -2.77354,0.695645 -7.06754,1.404348 -13.060248,1.404348 -6.679739,0 -10.62327,-0.715645 -12.829009,-1.387428 -1.10287,-0.335891 -1.773053,-0.660386 -2.137541,-0.872312 -0.364489,-0.211926 -0.325237,-0.204919 -0.325237,-0.204919 A 1.3541366,1.4434623 0 0 0 14.089369,49.31465 Z" />
  <path
     id="path2-9"
     style="mix-blend-mode:normal;fill:none;stroke:#000000;stroke-width:0.2;stroke-dasharray:none;stroke-opacity:1;filter:url(#filter15)"
     d="M 26.396484,8 C 17.803146,8 12.298443,9.9009984 8.9179691,11.783203 7.2277317,12.724305 6.0722747,13.683889 5.328125,14.429688 4.5839753,15.175486 4.1992187,15.796875 4.1992188,15.796875 3.9647887,16.188498 3.9363716,16.670403 4.1210938,17.087891 l 5.5976563,12.626953 c 0.6482239,1.451608 2.8262859,0.871867 2.6718749,-0.710938 0,0 -0.289683,-3.140327 1.259766,-6.246094 1.549449,-3.105768 4.736014,-6.240234 12.746093,-6.240234 10.822704,0 31.835938,5.564453 31.835938,5.564453 1.383661,0.370415 2.36292,-1.333325 1.349609,-2.347656 l -1.425781,-1.429687 1.0625,-0.53125 C 60.292155,17.236722 60.238503,15.68424 59.130859,15.222656 59.130859,15.222656 42.218687,8 26.396484,8 Z M 13.392578,49.988281 A 1.4068197,1.4996206 0 0 0 12.412109,52.5625 c 0,0 0.392046,0.380525 0.980469,0.722656 0.588422,0.34213 1.475106,0.755473 2.791016,1.15625 C 18.815415,55.242958 23.159934,56 30.287109,56 c 6.434254,0 11.113998,-0.764255 14.210938,-1.541016 3.096939,-0.776761 4.705078,-1.615234 4.705078,-1.615234 a 1.4075638,1.5004139 0 1 0 -1.259766,-2.683594 c 0,0 -1.206443,0.660102 -4.08789,1.382813 -2.881445,0.722709 -7.342504,1.458984 -13.56836,1.458984 -6.939616,0 -11.036571,-0.743487 -13.328125,-1.441406 -1.145778,-0.348959 -1.842034,-0.686078 -2.220703,-0.90625 -0.37867,-0.220171 -0.33789,-0.212891 -0.33789,-0.212891 a 1.4068197,1.4996206 0 0 0 -1.007813,-0.453125 z"
     transform="matrix(0.96255166,0,0,0.96255166,1.1983212,1.1983469)" />
</svg>
