<?xml version="1.0" encoding="UTF-8" standalone="no"?>
<svg
   width="64"
   height="64"
   version="1.1"
   id="svg5"
   sodipodi:docname="zerotier-gui.svg"
   inkscape:version="1.4 (e7c3feb100, 2024-10-09)"
   xmlns:inkscape="http://www.inkscape.org/namespaces/inkscape"
   xmlns:sodipodi="http://sodipodi.sourceforge.net/DTD/sodipodi-0.dtd"
   xmlns:xlink="http://www.w3.org/1999/xlink"
   xmlns="http://www.w3.org/2000/svg"
   xmlns:svg="http://www.w3.org/2000/svg">
  <defs
     id="defs5">
    <linearGradient
       id="linearGradient7"
       inkscape:collect="always">
      <stop
         style="stop-color:#ff7316;stop-opacity:1;"
         offset="0"
         id="stop7" />
      <stop
         style="stop-color:#ffb216;stop-opacity:1;"
         offset="1"
         id="stop8" />
    </linearGradient>
    <inkscape:path-effect
       effect="fillet_chamfer"
       id="path-effect7"
       is_visible="true"
       lpeversion="1"
       nodesatellites_param="F,0,0,1,0,1.2387403,0,1 @ F,0,0,1,0,1.2387403,0,1 @ F,0,0,1,0,0,0,1 @ F,0,0,1,0,0,0,1 @ F,0,0,1,0,0,0,1 @ F,0,0,1,0,0,0,1 @ F,0,1,1,0,1.1181624,0,1 @ F,0,0,1,0,1.1181624,0,1 @ F,0,0,1,0,0,0,1 @ F,0,0,1,0,0,0,1 @ F,0,0,1,0,0,0,1 @ F,0,0,1,0,0,0,1 @ F,0,0,1,0,1.2387403,0,1 @ F,0,0,1,0,1.2387403,0,1 | F,0,0,1,0,0,0,1 @ F,0,0,1,0,0,0,1 @ F,0,0,1,0,0,0,1 | F,0,0,1,0,0,0,1 @ F,0,0,1,0,0,0,1 @ F,0,0,1,0,0,0,1"
       radius="0"
       unit="px"
       method="auto"
       mode="F"
       chamfer_steps="1"
       flexible="false"
       use_knot_distance="true"
       apply_no_radius="true"
       apply_with_radius="true"
       only_selected="false"
       hide_knots="false" />
    <inkscape:path-effect
       effect="fillet_chamfer"
       id="path-effect6"
       is_visible="true"
       lpeversion="1"
       nodesatellites_param="F,0,1,1,0,4.6484992,0,1 @ F,0,1,1,0,4.6484992,0,1 @ F,0,0,1,0,0,0,1 @ F,0,0,1,0,0,0,1 @ F,0,0,1,0,0,0,1 @ F,0,0,1,0,0,0,1 @ F,0,0,1,0,1.510373,0,1 @ F,0,0,1,0,3.5407884,0,1 @ F,0,0,1,0,3.5407884,0,1 @ F,0,0,1,0,1.510373,0,1 @ F,0,0,1,0,0,0,1 @ F,0,0,1,0,0,0,1 @ F,0,0,1,0,0,0,1 @ F,0,0,1,0,0,0,1 @ F,0,0,1,0,4.6484992,0,1 @ F,0,1,1,0,4.6484992,0,1"
       radius="0"
       unit="px"
       method="auto"
       mode="F"
       chamfer_steps="1"
       flexible="false"
       use_knot_distance="true"
       apply_no_radius="true"
       apply_with_radius="true"
       only_selected="false"
       hide_knots="false" />
    <radialGradient
       inkscape:collect="always"
       xlink:href="#linearGradient7"
       id="radialGradient8"
       cx="-3.0049646"
       cy="71.243195"
       fx="-3.0049646"
       fy="71.243195"
       r="26.400391"
       gradientTransform="matrix(3.6739137,-2.1211351,2.1613075,3.7434944,-141.54866,-196.58565)"
       gradientUnits="userSpaceOnUse" />
    <filter
       inkscape:collect="always"
       style="color-interpolation-filters:sRGB"
       id="filter8"
       x="-0.14480079"
       y="-0.14210936"
       width="1.2896016"
       height="1.2842187">
      <feGaussianBlur
         inkscape:collect="always"
         stdDeviation="3.1439979"
         id="feGaussianBlur8" />
    </filter>
  </defs>
  <sodipodi:namedview
     id="namedview5"
     pagecolor="#505050"
     bordercolor="#eeeeee"
     borderopacity="1"
     inkscape:showpageshadow="0"
     inkscape:pageopacity="0"
     inkscape:pagecheckerboard="0"
     inkscape:deskcolor="#505050"
     inkscape:zoom="9.0546875"
     inkscape:cx="35.230371"
     inkscape:cy="32.74547"
     inkscape:current-layer="svg5" />
  <path
     id="path5"
     style="fill:url(#radialGradient8);stroke-width:0.923885;paint-order:stroke fill markers"
     d="M 11.903687,7.1471197 A 4.2946808,4.2946808 0 0 0 7.609063,11.441744 v 3.237207 a 4.2946808,4.2946808 0 0 0 4.294624,4.294624 h 8.100238 c -4.164313,3.471131 -6.838676,8.647064 -6.85155,14.401425 v 0.01083 0.01083 c 0.0173,7.732195 4.794101,14.452683 11.627965,17.308416 0.710914,0.297077 1.306432,1.115 1.306432,1.885664 v 0.990651 a 3.2712829,3.2712829 0 0 0 3.271493,3.271494 h 5.28347 a 3.2712829,3.2712829 0 0 0 3.271493,-3.271494 V 52.59074 c 0,-0.770664 0.595517,-1.588587 1.306431,-1.885664 6.833863,-2.855734 11.610667,-9.576223 11.627965,-17.308417 v -0.0055 -0.0055 c 1.8e-4,-5.752706 -2.662294,-10.932004 -6.815459,-14.412252 h 8.064148 a 4.2946808,4.2946808 0 0 0 4.294624,-4.294624 V 11.441744 A 4.2946808,4.2946808 0 0 0 52.096313,7.1471197 Z" />
  <path
     id="path5-5"
     style="mix-blend-mode:normal;fill:none;stroke:#000000;stroke-width:0.2;stroke-dasharray:none;stroke-opacity:1;paint-order:stroke fill markers;filter:url(#filter8)"
     d="m 10.248047,5.0996085 a 4.6484992,4.6484992 0 0 0 -4.648438,4.648438 v 3.5039055 a 4.6484992,4.6484992 0 0 0 4.648438,4.648438 h 8.767578 c -4.507391,3.757101 -7.402082,9.359454 -7.416016,15.58789 V 33.5 33.51172 c 0.01872,8.369214 5.189064,15.643371 12.585938,18.734375 0.769482,0.321551 1.414062,1.206859 1.414062,2.041015 v 1.072266 a 3.5407884,3.5407884 0 0 0 3.541016,3.541016 h 5.71875 a 3.5407884,3.5407884 0 0 0 3.541016,-3.541016 V 54.28711 c 0,-0.834156 0.644579,-1.719464 1.414062,-2.041015 7.396872,-3.091005 12.567215,-10.365163 12.585938,-18.734376 v -0.0059 -0.0059 c 1.95e-4,-6.226644 -2.881628,-11.83264 -7.376953,-15.599609 h 8.728515 a 4.6484992,4.6484992 0 0 0 4.648438,-4.648438 V 9.7480465 a 4.6484992,4.6484992 0 0 0 -4.648438,-4.648438 z"
     transform="matrix(0.92388545,0,0,0.92388545,2.4356655,2.4356655)" />
  <path
     style="fill:#3e3e3e;paint-order:stroke fill markers"
     d="m 11,11.23874 v 0.52252 A 1.2387403,1.2387403 45 0 0 12.23874,13 L 31,13 v 5.107422 C 23.071225,18.878321 17.017821,25.533857 17,33.5 c 0.01782,7.966143 6.071225,14.621679 14,15.392578 v 3.98926 A 1.1181624,1.1181624 45 0 0 32.118162,54 h 0.763676 A 1.1181624,1.1181624 135 0 0 34,52.881838 v -3.98926 C 41.928775,48.121679 47.982179,41.466143 48,33.5 48.00025,25.520387 41.942159,18.844487 34,18.072266 V 13 H 52.76126 A 1.2387403,1.2387403 135 0 0 54,11.76126 V 11.23874 A 1.2387403,1.2387403 45 0 0 52.76126,10 H 12.23874 A 1.2387403,1.2387403 135 0 0 11,11.23874 Z m 23,9.85501 c 6.27642,0.758652 10.998268,6.084146 11,12.40625 -0.01455,6.312419 -4.733177,11.623383 -11,12.380859 z m -3,0.02539 V 45.880859 C 24.733177,45.123383 20.014553,39.812419 20,33.5 20.014553,27.187581 24.733176,21.876616 31,21.11914 Z"
     id="path6"
     inkscape:path-effect="#path-effect7"
     inkscape:original-d="m 11,10 v 3 h 20 v 5.107422 A 15.5,15.5 0 0 0 17,33.5 15.5,15.5 0 0 0 31,48.892578 V 54 h 3 V 48.892578 A 15.5,15.5 0 0 0 48,33.5 15.5,15.5 0 0 0 34,18.072266 V 13 H 54 V 10 Z M 34,21.09375 A 12.5,12.5 0 0 1 45,33.5 12.5,12.5 0 0 1 34,45.880859 Z m -3,0.02539 V 45.880859 A 12.5,12.5 0 0 1 20,33.5 12.5,12.5 0 0 1 31,21.11914 Z"
     transform="matrix(0.92388545,0,0,0.92388545,2.4356655,2.4356655)" />
</svg>
