<?xml version="1.0" encoding="UTF-8" standalone="no"?>
<svg
   width="64"
   height="64"
   version="1"
   id="svg4"
   sodipodi:docname="zettlr.svg"
   inkscape:version="1.4 (e7c3feb100, 2024-10-09)"
   xmlns:inkscape="http://www.inkscape.org/namespaces/inkscape"
   xmlns:sodipodi="http://sodipodi.sourceforge.net/DTD/sodipodi-0.dtd"
   xmlns:xlink="http://www.w3.org/1999/xlink"
   xmlns="http://www.w3.org/2000/svg"
   xmlns:svg="http://www.w3.org/2000/svg">
  <defs
     id="defs4">
    <linearGradient
       id="linearGradient7"
       inkscape:collect="always">
      <stop
         style="stop-color:#32a980;stop-opacity:1;"
         offset="0"
         id="stop7" />
      <stop
         style="stop-color:#1c8773;stop-opacity:1;"
         offset="1"
         id="stop8" />
    </linearGradient>
    <inkscape:path-effect
       effect="fillet_chamfer"
       id="path-effect7"
       is_visible="true"
       lpeversion="1"
       nodesatellites_param="F,0,0,1,0,1.7141181,0,1 @ F,0,0,1,0,0,0,1 @ F,0,0,1,0,0,0,1 @ F,0,0,1,0,0,0,1 @ F,0,0,1,0,0,0,1 @ F,0,0,1,0,0,0,1 @ F,0,0,1,0,0,0,1 @ F,0,0,1,0,2.189585,0,1 @ F,0,0,1,0,2.189585,0,1 @ F,0,0,1,0,2.189585,0,1 @ F,0,0,1,0,2.189585,0,1 @ F,0,0,1,0,0,0,1 @ F,0,0,1,0,0,0,1 @ F,0,0,1,0,0,0,1 @ F,0,0,1,0,0,0,1 @ F,0,0,1,0,0,0,1 @ F,0,1,1,0,1.7141181,0,1"
       radius="0"
       unit="px"
       method="auto"
       mode="F"
       chamfer_steps="1"
       flexible="false"
       use_knot_distance="true"
       apply_no_radius="true"
       apply_with_radius="true"
       only_selected="false"
       hide_knots="false" />
    <inkscape:path-effect
       effect="fillet_chamfer"
       id="path-effect6"
       is_visible="true"
       lpeversion="1"
       nodesatellites_param="F,0,0,1,0,3.7078971,0,1 @ F,0,0,1,0,3.7078971,0,1 @ F,0,0,1,0,3.8830741,0,1 @ F,0,0,1,0,0,0,1 @ F,0,0,1,0,0,0,1 @ F,0,0,1,0,0,0,1 @ F,0,0,1,0,0,0,1 @ F,0,0,1,0,2.3534431,0,1 @ F,0,0,1,0,0,0,1 @ F,0,0,1,0,0,0,1 @ F,0,0,1,0,0,0,1 @ F,0,0,1,0,0,0,1 @ F,0,0,1,0,0,0,1 @ F,0,0,1,0,0,0,1 @ F,0,0,1,0,0,0,1 @ F,0,0,1,0,0,0,1 @ F,0,0,1,0,0,0,1 @ F,0,0,1,0,0,0,1 @ F,0,0,1,0,0,0,1 @ F,0,0,1,0,0,0,1"
       radius="0"
       unit="px"
       method="auto"
       mode="F"
       chamfer_steps="1"
       flexible="false"
       use_knot_distance="true"
       apply_no_radius="true"
       apply_with_radius="true"
       only_selected="false"
       hide_knots="false" />
    <inkscape:path-effect
       effect="fillet_chamfer"
       id="path-effect5"
       nodesatellites_param="F,0,0,1,0,0,0,1 @ F,0,0,1,0,0,0,1 @ F,0,0,1,0,0,0,1 @ F,0,0,1,0,0,0,1 @ F,0,0,1,0,0,0,1 @ F,0,0,1,0,0,0,1 @ F,0,0,1,0,0,0,1 @ F,0,0,1,0,0,0,1 @ F,0,0,1,0,0,0,1 @ F,0,0,1,0,0,0,1 @ F,0,0,1,0,0,0,1 @ F,0,0,1,0,0,0,1 @ F,0,0,1,0,0,0,1 @ F,0,0,1,0,0,0,1 @ F,0,0,1,0,0,0,1 @ F,0,0,1,0,0,0,1 @ F,0,0,1,0,0,0,1 @ F,0,0,1,0,0,0,1 @ F,0,0,1,0,0,0,1 @ F,0,0,1,0,0,0,1 @ F,0,0,1,0,0,0,1 @ F,0,0,1,0,0,0,1 @ F,0,0,1,0,0,0,1 @ F,0,0,1,0,0,0,1 @ F,0,0,1,0,0,0,1 | F,0,0,1,0,0,0,1 @ F,0,0,1,0,0,0,1 @ F,0,0,1,0,0,0,1 @ F,0,0,1,0,0,0,1 | F,0,0,1,0,0,0,1 @ F,0,0,1,0,0,0,1 @ F,0,0,1,0,0,0,1 @ F,0,0,1,0,0,0,1 @ F,0,0,1,0,0,0,1 @ F,0,0,1,0,0,0,1 @ F,0,0,1,0,0,0,1 | F,0,0,1,0,0,0,1 @ F,0,0,1,0,0,0,1 @ F,0,0,1,0,0,0,1 | F,0,0,1,0,0,0,1 @ F,0,0,1,0,0,0,1 @ F,0,0,1,0,0,0,1 @ F,0,0,1,0,0,0,1 | F,0,0,1,0,0,0,1 @ F,0,0,1,0,0,0,1 @ F,0,0,1,0,0,0,1 @ F,0,0,1,0,0,0,1"
       is_visible="true"
       lpeversion="1"
       radius="0"
       unit="px"
       method="auto"
       mode="F"
       chamfer_steps="1"
       flexible="false"
       use_knot_distance="true"
       apply_no_radius="true"
       apply_with_radius="true"
       only_selected="false"
       hide_knots="false" />
    <radialGradient
       inkscape:collect="always"
       xlink:href="#linearGradient7"
       id="radialGradient8"
       cx="17.346432"
       cy="42.514908"
       fx="17.346432"
       fy="42.514908"
       r="16.979542"
       gradientTransform="matrix(4.3665018,0,0,4.3529397,-76.079633,-118.53531)"
       gradientUnits="userSpaceOnUse" />
    <filter
       inkscape:collect="always"
       style="color-interpolation-filters:sRGB"
       id="filter8"
       x="-0.16723543"
       y="-0.090041579"
       width="1.334448"
       height="1.1800832">
      <feGaussianBlur
         inkscape:collect="always"
         stdDeviation="1.7383546"
         id="feGaussianBlur8" />
    </filter>
  </defs>
  <sodipodi:namedview
     id="namedview4"
     pagecolor="#505050"
     bordercolor="#eeeeee"
     borderopacity="1"
     inkscape:showpageshadow="0"
     inkscape:pageopacity="0"
     inkscape:pagecheckerboard="0"
     inkscape:deskcolor="#505050"
     inkscape:zoom="11.313709"
     inkscape:cx="39.244426"
     inkscape:cy="33.45499"
     inkscape:current-layer="svg4" />
  <path
     id="path4"
     style="fill:url(#radialGradient8);stroke-linecap:round;stroke-linejoin:round;paint-order:stroke fill markers"
     d="M 19.456544 4.5800767 A 3.7078971 3.7078971 0 0 0 15.747559 8.2871079 L 15.747559 14.08203 C 15.747559 16.129845 17.408733 17.796774 19.456544 17.804686 C 21.248879 17.811611 21.485821 19.064769 20.173341 20.759764 C 17.714852 23.934764 15.73725 27.596869 14.878419 31.882811 C 14.868369 31.933421 14.859255 31.98421 14.851075 32.035155 C 14.114894 36.566581 14.161214 42.858837 18.962403 47.089842 C 18.979853 47.104962 18.997437 47.119934 19.015137 47.134764 C 22.43716 50.051984 26.309921 50.490229 29.511231 50.580077 C 30.810376 50.616538 31.058318 51.329797 30.372559 52.429686 C 28.145162 56.002211 28.935569 60.418829 33.196778 60.41992 L 40.800294 60.41992 C 42.033603 60.419438 43.204294 59.876592 44.001466 58.935545 C 46.557324 55.917756 48.184448 52.045119 48.403809 47.953124 C 48.864156 43.218723 46.635876 38.166062 41.743653 36.058592 C 41.723533 36.049992 41.703356 36.041502 41.683106 36.033202 C 37.351978 34.2449 27.936957 38.18799 32.597169 29.835936 C 32.599169 29.832636 32.601028 29.82947 32.603028 29.82617 C 35.123547 24.881019 40.120451 20.416302 45.302247 17.13867 C 46.518189 16.369294 47.255298 15.030702 47.255372 13.591795 L 47.255372 8.7773423 C 47.255235 6.4592992 45.376149 4.5801941 43.058106 4.5800767 L 19.456544 4.5800767 z "
     transform="translate(0.5161126,-0.49999855)" />
  <path
     id="path5"
     style="fill:#ffffff;stroke-linecap:round;stroke-linejoin:round;paint-order:stroke fill markers"
     d="M 22.632812 8.2773438 A 2.189585 2.189585 0 0 0 20.443359 10.466797 L 20.443359 10.902344 C 20.443359 12.111618 21.423777 13.108833 22.632812 13.126953 C 25.081295 13.163653 28.98223 13.212753 31.115234 13.195312 C 33.271794 13.177679 31.035604 15.655609 30.339844 16.279297 C 25.402595 20.475151 20.794229 25.699525 19.490234 32.207031 C 18.875224 35.992612 19.15696 40.72774 22.236328 43.441406 C 26.693718 47.24126 33.889402 45.441546 35.443359 46.269531 C 37.072107 47.137367 37.270949 49.237289 36.707031 50.935547 C 36.299032 52.164252 35.379445 53.208732 34.599609 54.269531 C 34.039784 55.031051 34.461522 55.722656 35.408203 55.722656 L 39.583984 55.722656 C 40.530665 55.722656 41.800587 55.136311 42.304688 54.335938 C 43.642319 52.212143 44.629923 49.420275 44.732422 47.107422 C 45.054186 44.029123 43.522388 40.678755 40.582031 39.412109 C 38.456275 38.53583 36.066558 38.965334 33.824219 38.714844 C 31.955365 38.778088 29.443688 38.038348 28.578125 36.28125 C 27.268579 33.28938 27.908563 30.249594 29.361328 27.419922 C 32.073925 22.097922 36.790814 17.689026 41.728516 14.296875 C 42.725186 13.612173 43.556641 12.111618 43.556641 10.902344 L 43.556641 10.466797 A 2.189585 2.189585 0 0 0 41.367188 8.2773438 L 22.632812 8.2773438 z " />
  <path
     id="path5-3"
     style="fill:none;stroke:#00301f;stroke-width:0.2;stroke-linecap:round;stroke-linejoin:round;stroke-dasharray:none;stroke-opacity:1;paint-order:stroke fill markers;filter:url(#filter8)"
     d="m 22.63301,8.2773434 a 2.189585,2.189585 0 0 0 -2.189453,2.1894536 v 0.435547 c 0,1.209274 0.980418,2.206489 2.189453,2.224609 2.448483,0.0367 6.349418,0.0858 8.482422,0.06836 2.15656,-0.01763 -0.07963,2.460297 -0.77539,3.083985 -4.937249,4.195854 -9.545615,9.420228 -10.84961,15.927734 -0.61501,3.785581 -0.333274,8.520709 2.746094,11.234375 4.45739,3.799854 11.653074,2.00014 13.207031,2.828125 1.628748,0.867836 1.82759,2.967758 1.263672,4.666016 -0.407999,1.228705 -1.327586,2.273185 -2.107422,3.333984 -0.559825,0.76152 -0.138087,1.453125 0.808594,1.453125 h 4.175781 c 0.946681,0 2.216603,-0.586345 2.720704,-1.386718 1.337631,-2.123795 2.325235,-4.915663 2.427734,-7.228516 0.321764,-3.078299 -1.210034,-6.428667 -4.150391,-7.695313 -2.125756,-0.876279 -4.515473,-0.446775 -6.757812,-0.697265 -1.868854,0.06324 -4.380531,-0.676496 -5.246094,-2.433594 -1.309546,-2.99187 -0.669562,-6.031656 0.783203,-8.861328 2.712597,-5.322 7.429486,-9.730896 12.367188,-13.123047 0.99667,-0.684702 1.828125,-2.185257 1.828125,-3.394531 V 10.466797 A 2.189585,2.189585 0 0 0 41.367386,8.2773434 Z" />
</svg>
