<?xml version="1.0" encoding="UTF-8" standalone="no"?>
<svg
   width="64"
   height="64"
   version="1"
   id="svg6"
   sodipodi:docname="zuluMount.svg"
   inkscape:version="1.3.2 (091e20ef0f, 2023-11-25, custom)"
   xmlns:inkscape="http://www.inkscape.org/namespaces/inkscape"
   xmlns:sodipodi="http://sodipodi.sourceforge.net/DTD/sodipodi-0.dtd"
   xmlns:xlink="http://www.w3.org/1999/xlink"
   xmlns="http://www.w3.org/2000/svg"
   xmlns:svg="http://www.w3.org/2000/svg">
  <defs
     id="defs6">
    <linearGradient
       id="linearGradient8"
       inkscape:collect="always">
      <stop
         style="stop-color:#ee4343;stop-opacity:1;"
         offset="0"
         id="stop8" />
      <stop
         style="stop-color:#ef3d52;stop-opacity:1;"
         offset="1"
         id="stop9" />
    </linearGradient>
    <inkscape:path-effect
       effect="fillet_chamfer"
       id="path-effect7"
       is_visible="true"
       lpeversion="1"
       nodesatellites_param="F,0,0,1,0,0.84172559,0,1 @ F,0,0,1,0,1.7519928,0,1 @ F,0,0,1,0,0.49821131,0,1 @ F,0,0,1,0,0,0,1 @ F,0,0,1,0,0.6587761,0,1 @ F,0,0,1,0,1.6506694,0,1 @ F,0,0,1,0,1.5842335,0,1 @ F,0,0,1,0,1.5842335,0,1 @ F,0,0,1,0,0,0,1 @ F,0,0,1,0,0.67498122,0,1 @ F,0,0,1,0,2.3113719,0,1 @ F,0,0,1,0,2.9372449,0,1 @ F,0,0,1,0,0.78454469,0,1 @ F,0,0,1,0,2.952603,0,1 @ F,0,0,1,0,0.78454469,0,1 @ F,0,0,1,0,1.3969415,0,1 @ F,0,0,1,0,1.6526902,0,1 @ F,0,0,1,0,1.7519928,0,1 @ F,0,0,1,0,0.84172559,0,1 @ F,0,0,1,0,0.74286656,0,1"
       radius="0"
       unit="px"
       method="auto"
       mode="F"
       chamfer_steps="1"
       flexible="false"
       use_knot_distance="true"
       apply_no_radius="true"
       apply_with_radius="true"
       only_selected="false"
       hide_knots="false" />
    <inkscape:path-effect
       effect="fillet_chamfer"
       id="path-effect6"
       is_visible="true"
       lpeversion="1"
       nodesatellites_param="F,0,1,1,0,15.049302,0,1 @ F,0,1,1,0,15.049302,0,1 @ F,0,0,1,0,15.049302,0,1 @ F,0,1,1,0,15.049302,0,1"
       radius="0"
       unit="px"
       method="auto"
       mode="F"
       chamfer_steps="1"
       flexible="false"
       use_knot_distance="true"
       apply_no_radius="true"
       apply_with_radius="true"
       only_selected="false"
       hide_knots="false" />
    <inkscape:path-effect
       effect="fillet_chamfer"
       id="path-effect7-6"
       is_visible="true"
       lpeversion="1"
       nodesatellites_param="F,0,0,1,0,0.84172559,0,1 @ F,0,0,1,0,1.7519928,0,1 @ F,0,0,1,0,0.49821131,0,1 @ F,0,0,1,0,0,0,1 @ F,0,0,1,0,0.6587761,0,1 @ F,0,0,1,0,1.6506694,0,1 @ F,0,0,1,0,1.5842335,0,1 @ F,0,0,1,0,1.5842335,0,1 @ F,0,0,1,0,0,0,1 @ F,0,0,1,0,0.67498122,0,1 @ F,0,0,1,0,2.3113719,0,1 @ F,0,0,1,0,2.9372449,0,1 @ F,0,0,1,0,0.78454469,0,1 @ F,0,0,1,0,2.952603,0,1 @ F,0,0,1,0,0.78454469,0,1 @ F,0,0,1,0,1.3969415,0,1 @ F,0,0,1,0,1.6526902,0,1 @ F,0,0,1,0,1.7519928,0,1 @ F,0,0,1,0,0.84172559,0,1 @ F,0,0,1,0,0.74286656,0,1"
       radius="0"
       unit="px"
       method="auto"
       mode="F"
       chamfer_steps="1"
       flexible="false"
       use_knot_distance="true"
       apply_no_radius="true"
       apply_with_radius="true"
       only_selected="false"
       hide_knots="false" />
    <inkscape:path-effect
       effect="fillet_chamfer"
       id="path-effect6-1"
       is_visible="true"
       lpeversion="1"
       nodesatellites_param="F,0,1,1,0,15.049302,0,1 @ F,0,1,1,0,15.049302,0,1 @ F,0,0,1,0,15.049302,0,1 @ F,0,1,1,0,15.049302,0,1"
       radius="0"
       unit="px"
       method="auto"
       mode="F"
       chamfer_steps="1"
       flexible="false"
       use_knot_distance="true"
       apply_no_radius="true"
       apply_with_radius="true"
       only_selected="false"
       hide_knots="false" />
    <filter
       inkscape:collect="always"
       style="color-interpolation-filters:sRGB"
       id="filter7"
       x="-0.05501564"
       y="-0.083826611"
       width="1.1100333"
       height="1.1676532">
      <feGaussianBlur
         inkscape:collect="always"
         stdDeviation="0.46236331"
         id="feGaussianBlur7" />
    </filter>
    <filter
       inkscape:collect="always"
       style="color-interpolation-filters:sRGB"
       id="filter8"
       x="-0.11496178"
       y="-0.11496178"
       width="1.2299236"
       height="1.2299236">
      <feGaussianBlur
         inkscape:collect="always"
         stdDeviation="2.6150016"
         id="feGaussianBlur8" />
    </filter>
    <radialGradient
       inkscape:collect="always"
       xlink:href="#linearGradient8"
       id="radialGradient9"
       cx="6.8583097"
       cy="8.2839613"
       fx="6.8583097"
       fy="8.2839613"
       r="28"
       gradientUnits="userSpaceOnUse"
       gradientTransform="matrix(0.5881976,2.1951833,-2.1951833,0.5881976,21.009082,-11.643892)" />
  </defs>
  <sodipodi:namedview
     id="namedview6"
     pagecolor="#ffffff"
     bordercolor="#000000"
     borderopacity="0.25"
     inkscape:showpageshadow="2"
     inkscape:pageopacity="0.0"
     inkscape:pagecheckerboard="0"
     inkscape:deskcolor="#d1d1d1"
     inkscape:zoom="8.7987862"
     inkscape:cx="23.014538"
     inkscape:cy="31.936223"
     inkscape:window-width="1920"
     inkscape:window-height="1020"
     inkscape:window-x="0"
     inkscape:window-y="0"
     inkscape:window-maximized="1"
     inkscape:current-layer="svg6" />
  <path
     id="rect1"
     style="fill:url(#radialGradient9)"
     d="M 19.049302,4 H 44.950698 A 15.049302,15.049302 45 0 1 60,19.049302 V 44.950698 A 15.049302,15.049302 135 0 1 44.950698,60 H 19.049302 A 15.049302,15.049302 45 0 1 4,44.950698 V 19.049302 A 15.049302,15.049302 135 0 1 19.049302,4 Z"
     inkscape:path-effect="#path-effect6"
     inkscape:original-d="M 4,4 H 60 V 60 H 4 Z"
     transform="matrix(0.9267512,0,0,0.9267512,2.3439616,2.3439616)" />
  <path
     style="fill:#ffa85e;stroke:none;stroke-width:2.58969146;stroke-linecap:square;stroke-linejoin:miter;stroke-dasharray:none;color:#000000;stroke-miterlimit:1.5;-inkscape-stroke:none;fill-opacity:1"
     d="m 17.361399,9.2265625 h -0.03909 a 1.7519928,1.7519928 135 0 0 -1.751993,1.7519925 v 9.093546 a 0.49821131,0.49821131 135 0 1 -0.498211,0.498211 H 9.4952731 l 4.3211349,-6.139027 a 2.0804458,2.0804458 107.57046 0 0 0.379185,-1.197483 1.6502437,1.6502437 44.985218 0 0 -1.650669,-1.649818 l -5.1692163,0 a 1.5842335,1.5842335 135 0 0 -1.5842335,1.584233 1.4380163,1.4380163 38.830412 0 0 1.5842335,1.275142 l 2.7671513,0 -3.9534414,5.416368 a 2.0696361,2.0696361 108.06297 0 0 -0.3979434,1.220179 v 0.03841 a 2.3113719,2.3113719 45 0 0 2.3113719,2.311372 h 7.3895959 a 2.9372449,2.9372449 135 0 0 2.937245,-2.937245 v -4.838756 a 0.25100166,0.25100166 162.25882 0 1 0.455391,-0.145695 l 0.901076,1.264086 a 2.1047004,2.1047004 180 0 0 3.427691,-1e-6 l 0.901076,-1.264085 a 0.2510016,0.2510016 17.74118 0 1 0.455391,0.145695 v 6.365388 a 1.3969415,1.3969415 45 0 0 1.396942,1.396942 1.5604641,1.5604641 131.50499 0 0 1.462433,-1.65269 V 10.978555 A 1.7519928,1.7519928 45 0 0 25.677694,9.2265625 h -0.03909 a 1.5416891,1.5416891 151.36651 0 0 -1.296868,0.708059 L 21.901687,13.73057 a 0.47751664,0.47751664 0 0 1 -0.803374,0 L 18.658267,9.9346215 a 1.5416891,1.5416891 28.63349 0 0 -1.296868,-0.708059 z"
     id="path5"
     sodipodi:nodetypes="ccccccccccccccccccccc"
     inkscape:path-effect="#path-effect7"
     inkscape:original-d="M 18.203125,9.2265625 H 15.570313 V 20.570312 H 9.4952731 L 14.195593,13.892578 V 11.583984 H 5.7914742 v 2.859375 h 4.3513848 l -4.3513848,5.961566 v 3.024762 H 18.429687 V 14.869141 L 21.5,19.176364 24.570312,14.869141 v 8.546875 h 2.859375 V 9.2265625 H 24.796875 L 21.5,14.355469 Z"
     transform="matrix(1.8535024,0,0,1.8535024,2.3439616,2.3175631)" />
  <path
     id="rect1-8"
     style="fill:none;stroke-width:0.32371148;stroke-dasharray:none;stroke:#000000;stroke-opacity:1;filter:url(#filter8)"
     d="M 19.049302,4 H 44.950698 A 15.049302,15.049302 45 0 1 60,19.049302 V 44.950698 A 15.049302,15.049302 135 0 1 44.950698,60 H 19.049302 A 15.049302,15.049302 45 0 1 4,44.950698 V 19.049302 A 15.049302,15.049302 135 0 1 19.049302,4 Z"
     inkscape:path-effect="#path-effect6-1"
     inkscape:original-d="M 4,4 H 60 V 60 H 4 Z"
     transform="matrix(0.9267512,0,0,0.9267512,2.343962,2.343962)" />
  <path
     style="color:#000000;fill:none;stroke:#ff000e;stroke-width:0.16185574;stroke-linecap:square;stroke-linejoin:miter;stroke-miterlimit:1.5;stroke-dasharray:none;stroke-opacity:1;filter:url(#filter7)"
     d="m 17.361399,9.2265625 h -0.03909 a 1.7519928,1.7519928 135 0 0 -1.751993,1.7519925 v 9.093546 a 0.49821131,0.49821131 135 0 1 -0.498211,0.498211 H 9.4952731 l 4.3211349,-6.139027 a 2.0804458,2.0804458 107.57046 0 0 0.379185,-1.197483 1.6502437,1.6502437 44.985218 0 0 -1.650669,-1.649818 l -5.1692163,0 a 1.5842335,1.5842335 135 0 0 -1.5842335,1.584233 1.4380163,1.4380163 38.830412 0 0 1.5842335,1.275142 l 2.7671513,0 -3.9534414,5.416368 a 2.0696361,2.0696361 108.06297 0 0 -0.3979434,1.220179 v 0.03841 a 2.3113719,2.3113719 45 0 0 2.3113719,2.311372 h 7.3895959 a 2.9372449,2.9372449 135 0 0 2.937245,-2.937245 v -4.838756 a 0.25100166,0.25100166 162.25882 0 1 0.455391,-0.145695 l 0.901076,1.264086 a 2.1047004,2.1047004 180 0 0 3.427691,-1e-6 l 0.901076,-1.264085 a 0.2510016,0.2510016 17.74118 0 1 0.455391,0.145695 v 6.365388 a 1.3969415,1.3969415 45 0 0 1.396942,1.396942 1.5604641,1.5604641 131.50499 0 0 1.462433,-1.65269 V 10.978555 A 1.7519928,1.7519928 45 0 0 25.677694,9.2265625 h -0.03909 a 1.5416891,1.5416891 151.36651 0 0 -1.296868,0.708059 L 21.901687,13.73057 a 0.47751664,0.47751664 0 0 1 -0.803374,0 L 18.658267,9.9346215 a 1.5416891,1.5416891 28.63349 0 0 -1.296868,-0.708059 z"
     id="path5-7"
     sodipodi:nodetypes="ccccccccccccccccccccc"
     inkscape:path-effect="#path-effect7-6"
     inkscape:original-d="M 18.203125,9.2265625 H 15.570313 V 20.570312 H 9.4952731 L 14.195593,13.892578 V 11.583984 H 5.7914742 v 2.859375 h 4.3513848 l -4.3513848,5.961566 v 3.024762 H 18.429687 V 14.869141 L 21.5,19.176364 24.570312,14.869141 v 8.546875 h 2.859375 V 9.2265625 H 24.796875 L 21.5,14.355469 Z"
     transform="matrix(1.8535024,0,0,1.8535024,2.343962,2.317563)" />
</svg>
