<?xml version="1.0" encoding="UTF-8" standalone="no"?>
<!-- Generator: Adobe Illustrator 25.4.1, SVG Export Plug-In . SVG Version: 6.00 Build 0)  -->

<svg
   version="1.1"
   id="Layer_1"
   x="0px"
   y="0px"
   viewBox="0 0 1080 1080"
   style="enable-background:new 0 0 1080 1080;"
   xml:space="preserve"
   sodipodi:docname="FairyWren-app-menu.svg"
   inkscape:version="1.3.2 (091e20ef0f, 2023-11-25, custom)"
   inkscape:export-filename="FairyWren-app-menu.png"
   inkscape:export-xdpi="96"
   inkscape:export-ydpi="96"
   xmlns:inkscape="http://www.inkscape.org/namespaces/inkscape"
   xmlns:sodipodi="http://sodipodi.sourceforge.net/DTD/sodipodi-0.dtd"
   xmlns:xlink="http://www.w3.org/1999/xlink"
   xmlns="http://www.w3.org/2000/svg"
   xmlns:svg="http://www.w3.org/2000/svg"><defs
   id="defs9"><linearGradient
     id="linearGradient16"
     inkscape:collect="always"><stop
       style="stop-color:#1fffff;stop-opacity:1;"
       offset="0"
       id="stop15" /><stop
       style="stop-color:#4ac6ff;stop-opacity:1;"
       offset="1"
       id="stop16" /></linearGradient><linearGradient
     id="linearGradient10"
     inkscape:collect="always"><stop
       style="stop-color:#95beff;stop-opacity:1;"
       offset="0"
       id="stop9" /><stop
       style="stop-color:#2e67ff;stop-opacity:1;"
       offset="1"
       id="stop10" /></linearGradient><inkscape:path-effect
     effect="fillet_chamfer"
     id="path-effect9"
     is_visible="true"
     lpeversion="1"
     nodesatellites_param="F,0,0,1,0,0,0,1 @ F,0,0,1,0,29.632631,0,1"
     radius="0"
     unit="px"
     method="auto"
     mode="F"
     chamfer_steps="1"
     flexible="false"
     use_knot_distance="true"
     apply_no_radius="true"
     apply_with_radius="true"
     only_selected="false"
     hide_knots="false" /><linearGradient
     id="linearGradient1"
     inkscape:collect="always"><stop
       style="stop-color:#333333;stop-opacity:1;"
       offset="0"
       id="stop1" /><stop
       style="stop-color:#262626;stop-opacity:1;"
       offset="1"
       id="stop2" /></linearGradient><radialGradient
     inkscape:collect="always"
     xlink:href="#linearGradient16"
     id="radialGradient14"
     cx="159.57385"
     cy="201.75441"
     fx="159.57385"
     fy="201.75441"
     r="192.96225"
     gradientTransform="matrix(1.9350013,0.96272149,-1.3273551,2.5727158,303.36846,-354.64862)"
     gradientUnits="userSpaceOnUse" /><radialGradient
     inkscape:collect="always"
     xlink:href="#linearGradient10"
     id="radialGradient28"
     cx="129.99368"
     cy="348.08768"
     fx="129.99368"
     fy="348.08768"
     r="132.27158"
     gradientTransform="matrix(1.3274058,7.5256362,-6.1453798,0.97480601,2202.6594,-756.67615)"
     gradientUnits="userSpaceOnUse" /><radialGradient
     inkscape:collect="always"
     xlink:href="#linearGradient11"
     id="radialGradient12"
     cx="244.89355"
     cy="240.82286"
     fx="244.89355"
     fy="240.82286"
     r="147.44055"
     gradientTransform="matrix(5.2232614,3.2190088,-1.8389583,2.9839494,-316.68744,-995.87418)"
     gradientUnits="userSpaceOnUse" /><linearGradient
     id="linearGradient11"
     inkscape:collect="always"><stop
       style="stop-color:#53fff9;stop-opacity:1;"
       offset="0"
       id="stop11" /><stop
       style="stop-color:#4adcff;stop-opacity:1;"
       offset="0.32617188"
       id="stop12" /></linearGradient><radialGradient
     inkscape:collect="always"
     xlink:href="#linearGradient1"
     id="radialGradient2"
     cx="519.04054"
     cy="315.43475"
     fx="519.04054"
     fy="315.43475"
     r="83.547951"
     gradientTransform="matrix(0.97921569,0,0,0.96291445,30.783316,53.908803)"
     gradientUnits="userSpaceOnUse" /><filter
     inkscape:collect="always"
     style="color-interpolation-filters:sRGB"
     id="filter15"
     x="-0.084037773"
     y="-0.087943814"
     width="1.1681746"
     height="1.1758877"><feGaussianBlur
       inkscape:collect="always"
       stdDeviation="33.317844"
       id="feGaussianBlur15" /></filter></defs><sodipodi:namedview
   id="namedview9"
   pagecolor="#ffffff"
   bordercolor="#000000"
   borderopacity="0.25"
   inkscape:showpageshadow="2"
   inkscape:pageopacity="0.0"
   inkscape:pagecheckerboard="0"
   inkscape:deskcolor="#d1d1d1"
   inkscape:zoom="0.53687737"
   inkscape:cx="498.25158"
   inkscape:cy="463.79306"
   inkscape:window-width="1920"
   inkscape:window-height="1011"
   inkscape:window-x="0"
   inkscape:window-y="0"
   inkscape:window-maximized="1"
   inkscape:current-layer="Layer_1"
   inkscape:export-bgcolor="#ffffff00" />
<style
   type="text/css"
   id="style1">
	.st0{fill:#333333;}
	.st1{fill:url(#SVGID_1_);}
	.st2{fill:url(#SVGID_00000114772258057173255150000011320655733637898394_);}
	.st3{fill:url(#SVGID_00000160869104684635257460000017665131418852208299_);}
	.st4{fill:url(#SVGID_00000129166249405916835070000008397553724718422659_);}
</style>

<g
   id="g10"
   transform="matrix(0.93969436,0,0,0.93969436,32.564809,28.637354)"><path
     id="path7"
     style="color:#000000;fill:#333333;stroke-miterlimit:10;-inkscape-stroke:none"
     d="m 768.0957,193.0625 c -8.94,0.14939 -18.02669,0.49815 -27.24609,1.03516 -147.51044,8.59201 -330.00887,65.64841 -492.74805,130.57226 l -0.0723,0.0293 -0.0703,0.0293 c -52.39644,21.83185 -116.5987,39.70163 -175.582027,74.67773 l -18.505859,10.97656 20.273437,7.20703 c 0,0 35.095119,13.87037 79.410159,22.88868 115.1618,23.43593 188.9218,24.66055 188.48047,166.02148 l -0.0156,0.31055 0.004,0.31054 c 0.87096,81.67649 -40.20672,133.95799 -75.12891,178.03907 -17.46109,22.04052 -33.5563,41.69527 -41.20898,63.12304 -7.6527,21.42777 -4.78269,45.25343 13.99609,67.74805 52.09253,62.40032 132.02073,91.95085 220.21289,93.13675 88.19216,1.1859 185.11631,-25.69734 273.64258,-76.78323 C 910.58954,830.21296 1054.3343,629.83604 1021.4023,362.39258 1013.183,295.64183 979.57423,249.95579 929.71094,223.72852 886.08055,200.77964 830.67573,192.01679 768.0957,193.0625 Z"
     sodipodi:nodetypes="scccscccscccssssssss" /><path
     id="path5"
     style="color:#000000;fill:url(#radialGradient28);stroke-miterlimit:10;-inkscape-stroke:none"
     d="m 278.38672,445.94336 c -19.5306,-0.2546 -41.134,0.44404 -65.29688,2.08594 l -11.68359,0.79492 2.80273,11.37109 c 22.24911,90.23697 21.88959,162.14734 16.97266,212.20313 -29.00578,121.11621 -16.20422,200.93811 23.57422,247.76758 39.86938,46.93651 104.75117,57.7131 172.59961,45.57031 67.84844,-12.1428 139.99778,-46.89761 198.95508,-93.67188 58.95729,-46.77425 104.98874,-105.60811 118.4375,-167.55468 l 0.52929,-2.43946 -0.69922,-2.39843 c -3.5137,-12.05623 -11.93856,-20.7871 -22.30273,-26.88086 -10.36417,-6.09378 -22.84806,-10.48868 -37.95508,-16.2168 C 644.1606,645.13856 603.25616,628.80666 550.81641,588.88867 492.46494,536.84732 457.4328,498.42217 411.46875,474.22852 376.92967,456.0485 336.97852,446.70714 278.38672,445.94336 Z" /><path
     id="path3"
     style="color:#000000;fill:url(#radialGradient14);stroke-miterlimit:10;-inkscape-stroke:none"
     d="m 583.75781,79.160156 c -9.07863,0.04823 -18.10567,0.376306 -27.07031,0.984375 C 413.25331,89.873649 285.92846,172.38106 231.57227,326.4375 l -1.99415,5.65234 4.04883,4.42188 c 27.76895,30.32331 74.02726,47.18899 133.83789,60.21875 l 1.08399,0.23633 1.11133,-0.008 c 37.35954,-0.2539 53.75561,-3.49177 68.49023,-9.66992 14.73463,-6.17814 26.37681,-14.06456 59.63477,-25.01562 l 0.48437,-0.16016 0.4668,-0.20898 c 82.17821,-36.72417 89.91575,-36.26901 171.64258,-46.09375 56.72611,-2.44147 89.56779,4.95963 175.55664,0.97656 l 0.0332,-0.002 0.0352,-0.002 c 50.97361,-2.71137 86.299,-24.06744 131.54492,-35.9414 L 993.69141,276.60547 982.33594,264.375 C 867.47416,140.64981 719.93735,78.436705 583.75781,79.160156 Z" /><path
     class="st5"
     d="m 1008.5402,462.16494 c -55.91436,265.31843 -199.26954,422.52249 -574.76233,36.4776 -11.41072,-11.73139 -17.98012,-35.82431 -5.66982,-45.36606 96.39721,-74.71779 619.92985,-178.34789 580.43215,8.88846 z"
     id="path9-6"
     style="fill:url(#radialGradient12);stroke-width:2.01755"
     inkscape:transform-center-x="-34.009301"
     inkscape:transform-center-y="19.265499" /><path
     id="path1"
     style="color:#000000;fill:url(#radialGradient2);stroke-miterlimit:10;-inkscape-stroke:none"
     d="m 539.03516,277.19531 c -20.0858,0 -40.3091,6.53095 -55.83008,20.07813 -15.52099,13.54717 -25.8686,34.31803 -25.98047,60.32812 v 0.043 0.0449 c 0.11187,26.01011 10.45948,46.78095 25.98047,60.32813 15.52098,13.54717 35.74428,20.07812 55.83008,20.07812 20.08579,0 40.30909,-6.53095 55.83007,-20.07812 15.52099,-13.54718 25.87055,-34.31802 25.98243,-60.32813 v -0.0449 -0.043 c -0.11188,-26.01009 -10.46144,-46.78095 -25.98243,-60.32812 -15.52098,-13.54718 -35.74428,-20.07813 -55.83007,-20.07813 z" /></g><path
   id="path14"
   style="color:#000000;mix-blend-mode:normal;fill:#000000;stroke-linejoin:round;stroke-miterlimit:10;stroke-width:4.25670281;stroke-dasharray:none;stroke:#000000;stroke-opacity:1;filter:url(#filter15)"
   d="m 583.74805,73.28125 c -9.11357,0.04839 -18.1755,0.377794 -27.17578,0.988281 -144.0133,9.7684 -272.03376,92.760129 -326.60352,247.421879 l -1.62891,4.61718 c -48.49245,18.73084 -104.42064,36.3772 -156.830074,67.45508 l -18.50586,10.97656 a 1.70017,1.70017 0 0 0 0.296875,3.06446 l 20.273438,7.20703 c 0.155877,0.0616 35.262581,13.92199 79.640621,22.95312 16.74823,3.40834 32.2336,6.37952 47.09766,9.34571 l 2.24609,9.11133 c 22.18566,89.9796 21.83405,161.64241 16.93946,211.54492 -23.25976,97.20981 -19.657,168.09874 3.39062,216.84179 2.8238,9.45786 7.80388,18.92786 15.48828,28.13282 52.47136,62.8541 132.93651,92.55529 221.49414,93.74609 88.55394,1.1908 185.74808,-25.78463 274.51563,-77.00977 177.54002,-102.45323 321.72098,-303.53171 288.70308,-571.67187 -4.0526,-32.9128 -14.3072,-60.76331 -29.59175,-83.77148 l 0.625,-0.16407 a 1.70017,1.70017 0 0 0 0.81445,-2.80078 L 983.58203,259.03906 C 868.42015,134.99095 720.4513,72.555018 583.74805,73.28125 Z m 0.0195,3.398438 C 719.42234,75.959025 866.52901,137.95088 981.08984,261.35156 l 9.42383,10.15039 -0.13476,0.0352 -13.26172,3.48047 c -39.82973,10.45258 -71.71399,28.03187 -112.92188,34.06445 -5.88683,0.8618 -11.96349,1.48817 -18.28125,1.82422 a 1.70017,1.70017 0 0 0 -0.006,0 l -0.0351,0.002 a 1.70017,1.70017 0 0 0 -0.006,0 h -0.01 c -7.42058,0.34373 -13.96903,0.50395 -20.64648,0.69141 -12.64051,0.35479 -24.5156,0.55342 -35.00977,0.49023 -0.0125,-7e-5 -0.0227,8e-5 -0.0352,0 -16.01306,-0.097 -29.92138,-0.57261 -42.92579,-1.0957 -0.006,-2.6e-4 -0.015,2.6e-4 -0.0215,0 -0.003,-1.1e-4 -0.005,1.1e-4 -0.008,0 -13.01779,-0.52375 -25.13082,-1.09529 -37.54492,-1.38281 -0.001,-3e-5 -0.003,3e-5 -0.004,0 -6.20773,-0.14375 -12.49091,-0.21745 -19,-0.17774 -6.50906,0.0397 -13.24346,0.19195 -20.35547,0.49805 a 1.70017,1.70017 0 0 0 -0.13086,0.0117 c -23.54237,2.83013 -40.55242,4.85723 -55.39258,7.125 -4.61875,-9.99673 -11.07186,-18.50984 -18.80078,-25.25586 -15.86815,-13.85022 -36.49303,-20.49609 -56.94726,-20.49609 -2.55678,0 -5.11549,0.10372 -7.66797,0.3125 -0.004,3.2e-4 -0.008,0.002 -0.0117,0.002 -2.54459,0.20845 -5.08233,0.51939 -7.60352,0.9375 -0.0105,0.002 -0.0208,0.004 -0.0312,0.006 -2.51639,0.41821 -5.0162,0.94302 -7.49023,1.57226 -0.0144,0.004 -0.0286,0.008 -0.043,0.0117 -7.4373,1.89556 -14.63968,4.74957 -21.34961,8.5918 -0.0233,0.0133 -0.047,0.0257 -0.0703,0.0391 -4.47104,2.56607 -8.7236,5.57044 -12.67969,9.02344 -1.97356,1.72258 -3.86275,3.56081 -5.66211,5.50781 -0.0235,0.0254 -0.0468,0.0507 -0.0703,0.0762 -3.59125,3.89684 -6.81488,8.23309 -9.5918,12.97461 -0.0207,0.0353 -0.0419,0.0702 -0.0625,0.10547 -4.16294,7.1342 -7.31669,15.18368 -9.19531,24.03125 -0.0101,0.0475 -0.0193,0.0951 -0.0293,0.14258 -1.24476,5.91105 -1.92284,12.17592 -1.95117,18.76367 a 1.70017,1.70017 0 0 0 0,0.008 v 0.043 0.0449 a 1.70017,1.70017 0 0 0 0,0.008 c 0.0282,6.55561 0.70239,12.79207 1.93555,18.67773 -7.41906,3.50688 -13.57259,6.66383 -19.96875,9.34571 -7.25757,3.04305 -14.90216,5.36469 -25.39063,6.95703 -10.48847,1.59234 -23.82089,2.4554 -42.45312,2.58203 l -0.92188,0.006 -0.90039,-0.19532 c -44.76745,-9.75308 -81.78292,-21.66523 -109.02929,-39.60937 -4.54107,-2.99068 -8.8118,-6.14846 -12.80079,-9.49219 -3.98898,-3.34373 -7.69701,-6.87282 -11.11523,-10.60547 l -3.35938,-3.66797 v -0.002 l 1.6543,-4.68945 C 287.31797,169.37431 413.94881,87.349918 556.80273,77.660156 c 8.92893,-0.605647 17.92123,-0.932454 26.96485,-0.980468 z M 539.03516,274.71484 c 17.23048,0 34.53928,4.90217 48.75781,14.97657 0.0348,0.0246 0.0707,0.0476 0.10547,0.0723 2.01506,1.43287 3.96839,2.96934 5.84961,4.61133 7.65727,6.68348 14.01363,15.17997 18.46289,25.23633 3.26586,7.38159 5.50512,15.60148 6.44336,24.58398 0.31248,2.99164 0.48029,6.06876 0.49414,9.22657 10e-6,0.003 -1e-5,0.005 0,0.008 v 0.0351 0.0371 c -1e-5,0.003 10e-6,0.005 0,0.008 -1e-5,0.001 0,0.003 0,0.004 -0.0205,4.63078 -0.37509,9.08497 -1.0293,13.35547 -0.6544,4.27174 -1.60866,8.35984 -2.82812,12.25586 -1.06507,3.40271 -2.33469,6.656 -3.78907,9.75586 -0.0161,0.0343 -0.0346,0.0673 -0.0508,0.10156 -2.88408,6.12302 -6.50168,11.62787 -10.68359,16.48047 -0.13878,0.16077 -0.27989,0.31921 -0.41992,0.47852 -2.07296,2.36203 -4.26912,4.58111 -6.59961,6.61523 -15.17369,13.24404 -34.99569,19.66016 -54.71289,19.66016 -2.03714,0 -4.07536,-0.0848 -6.10938,-0.22266 -0.23698,-0.016 -0.47408,-0.0251 -0.71094,-0.043 -1.94597,-0.14735 -3.88574,-0.36619 -5.81836,-0.64062 -0.30227,-0.0428 -0.60443,-0.0849 -0.90625,-0.13086 -1.93813,-0.29568 -3.86731,-0.65147 -5.78125,-1.07617 -0.22598,-0.05 -0.4502,-0.10637 -0.67578,-0.15821 -6.25007,-1.43943 -12.3407,-3.56073 -18.10742,-6.39843 -0.0669,-0.0329 -0.13437,-0.0646 -0.20117,-0.0977 -1.91707,-0.95004 -3.79767,-1.98103 -5.63672,-3.08789 -0.0593,-0.0357 -0.11852,-0.0716 -0.17773,-0.10742 -1.86021,-1.1264 -3.67993,-2.32888 -5.44727,-3.61719 -1.76857,-1.28921 -3.49054,-2.63983 -5.14062,-4.08008 -11.10794,-9.69534 -19.46662,-23.21122 -23.21289,-39.79102 -1.36455,-6.03905 -2.15566,-12.44617 -2.18555,-19.25585 v -0.0449 -0.0351 -0.008 c 0.11202,-25.55922 10.24564,-45.82109 25.39844,-59.04688 1.88122,-1.64199 3.83454,-3.17846 5.84961,-4.61133 0.0347,-0.0247 0.0707,-0.0476 0.10546,-0.0723 14.21853,-10.0744 31.52732,-14.97657 48.75782,-14.97657 z m 451.00781,0.42578 c 15.32593,22.71667 25.61853,50.36112 29.67183,83.2793 32.8461,266.74463 -110.46407,466.42293 -287.0273,568.3125 -88.28427,50.94625 -184.93985,77.73768 -272.76953,76.55668 C 390.48299,1002.3554 326.38157,983.69952 277,945.35156 c 0.007,0.004 0.0145,0.008 0.0215,0.0117 4.60219,2.73807 9.38344,5.16662 14.28711,7.37695 0.62533,0.28203 1.25875,0.54667 1.88868,0.82032 9.72826,4.2233 19.9847,7.46353 30.67773,9.76367 0.8378,0.18062 1.68054,0.34631 2.52344,0.51562 10.57038,2.11831 21.52187,3.3656 32.76562,3.78321 1.1237,0.0422 2.24977,0.0697 3.37891,0.0957 5.51183,0.1247 11.06496,0.12045 16.68945,-0.13086 0.0472,-0.002 0.0934,1.7e-4 0.14063,-0.002 5.63803,-0.25497 11.33725,-0.75139 17.06054,-1.36719 1.34873,-0.14487 2.6963,-0.30046 4.04883,-0.46484 5.70082,-0.69365 11.42062,-1.49414 17.17188,-2.52344 8.52452,-1.52563 17.11386,-3.40594 25.73437,-5.61914 8.62051,-2.21321 17.27313,-4.75975 25.92188,-7.61914 8.64875,-2.85939 17.29309,-6.03191 25.90234,-9.4961 8.60925,-3.46418 17.18354,-7.22044 25.68555,-11.24804 8.50201,-4.0276 16.93274,-8.32538 25.25976,-12.875 8.32703,-4.54963 16.54852,-9.3506 24.63282,-14.38086 8.08429,-5.03026 16.03086,-10.29026 23.80468,-15.75977 7.77383,-5.46951 15.37588,-11.14826 22.77149,-17.01562 6.82995,-5.41861 13.48333,-11.00156 19.9375,-16.73047 6.36062,-5.64477 12.52067,-11.43536 18.45898,-17.35547 0.064,-0.0639 0.13133,-0.12556 0.19531,-0.18945 5.96412,-5.95357 11.69392,-12.04251 17.17188,-18.24805 0.0249,-0.0282 0.0513,-0.0557 0.0762,-0.084 27.47951,-31.14813 48.42772,-65.30572 59.18555,-100.82618 41.54945,13.39362 77.67559,14.80399 109.05078,6.3418 40.8464,-11.01668 73.41175,-38.80877 99.4375,-77.9375 1.54789,-2.32169 3.03911,-4.7409 4.54102,-7.14258 1.31827,-2.11311 2.70718,-4.10428 3.99023,-6.27734 4.08926,-6.92587 7.94763,-14.24515 11.69336,-21.75196 0.58674,-1.17356 1.14022,-2.40071 1.71875,-3.58789 3.27055,-6.72416 6.4109,-13.66016 9.42578,-20.80078 0.80196,-1.89649 1.60824,-3.78246 2.39258,-5.70703 3.30863,-8.13013 6.50456,-16.43919 9.50976,-25.04101 0.10716,-0.30641 0.22525,-0.59537 0.33204,-0.90235 3.10047,-8.92226 6.0099,-18.13014 8.80273,-27.50781 0.73604,-2.46981 1.43108,-4.99283 2.14648,-7.49219 2.04152,-7.13626 4.00413,-14.38017 5.88281,-21.74218 0.7065,-2.76754 1.4233,-5.51694 2.1074,-8.31446 2.3749,-9.71322 4.6628,-19.54079 6.7793,-29.58398 v -0.002 c 6e-4,-0.003 0,-0.005 0,-0.008 1.017,-4.82316 1.6658,-9.46825 1.9629,-13.9375 0.2972,-4.47173 0.2415,-8.76758 -0.1524,-12.88867 -0.3939,-4.12109 -1.1262,-8.06769 -2.1816,-11.8418 -1.0555,-3.7741 -2.4337,-7.37586 -4.1211,-10.80664 -1.6875,-3.43089 -3.6803,-6.68682 -5.95899,-9.77344 -2.27871,-3.08661 -4.84412,-6.00453 -7.67579,-8.75781 -2.83166,-2.75328 -5.92903,-5.34254 -9.27539,-7.77343 -3.34635,-2.4309 -6.94089,-4.70283 -10.76367,-6.82227 -30.58219,-16.95557 -75.86228,-24.31023 -127.71484,-25.06055 -8.77746,-0.12701 -17.74327,-0.0603 -26.85352,0.1836 -4.50029,0.12013 -9.12999,0.41157 -13.69726,0.61718 -4.65397,0.21004 -9.24755,0.33922 -13.96094,0.63477 -6.37731,0.39899 -12.85574,0.9735 -19.32031,1.52148 -2.98392,0.25345 -5.92328,0.42703 -8.92188,0.71094 -7.67367,0.72517 -15.40908,1.6125 -23.15039,2.52735 -1.81981,0.21541 -3.62122,0.37613 -5.44336,0.60156 -8.70565,1.0753 -17.43069,2.29404 -26.15429,3.58594 -0.85463,0.12672 -1.70801,0.22676 -2.5625,0.35546 -9.56198,1.43838 -19.10622,3.00221 -28.60938,4.67383 -9.54742,1.67941 -19.03504,3.47072 -28.44531,5.35938 -9.39106,1.88479 -18.68053,3.86651 -27.85742,5.93359 2.0303,-7.36726 3.16259,-15.33701 3.19922,-23.85156 a 1.70017,1.70017 0 0 0 0,-0.002 1.70017,1.70017 0 0 0 0,-0.002 1.70017,1.70017 0 0 0 0,-0.002 1.70017,1.70017 0 0 0 0,-0.002 v -0.0449 -0.043 a 1.70017,1.70017 0 0 0 0,-0.002 1.70017,1.70017 0 0 0 0,-0.002 1.70017,1.70017 0 0 0 0,-0.002 1.70017,1.70017 0 0 0 0,-0.002 c -0.013,-3.01756 -0.1798,-5.95839 -0.45704,-8.83789 -0.005,-0.0555 -0.008,-0.11253 -0.0137,-0.16797 -0.8551,-8.71741 -2.895,-16.77564 -5.89258,-24.10156 14.53251,-2.1999 31.22143,-4.20266 54.24805,-6.9707 0.0265,-0.003 0.036,-0.005 0.0625,-0.008 0.001,-1.7e-4 0.002,1.8e-4 0.004,0 5.77186,-0.24789 11.17387,-0.3367 16.53515,-0.40234 1.20479,-0.0147 2.52574,-0.0829 3.71485,-0.0898 19.50095,-0.11386 37.03967,0.78539 56.66601,1.57226 12.88935,0.5166 26.69453,0.98268 42.5625,1.08008 16.14121,0.0994 34.3944,-0.17913 56.03711,-1.18164 a 1.70017,1.70017 0 0 0 0.0234,-0.002 l 0.0312,-0.002 0.0254,-0.002 c 6.42558,-0.34179 12.60363,-0.97619 18.58203,-1.84766 41.8488,-6.10027 73.95437,-23.8197 113.30469,-34.14648 z m -761.11328,54.58008 3.44336,3.75977 c 3.52398,3.84814 7.33624,7.47855 11.42578,10.91211 4.08954,3.43355 8.45659,6.67024 13.09179,9.72851 4.61668,3.04605 9.5004,5.91429 14.63868,8.62696 5.18002,2.73487 10.61655,5.3104 16.30664,7.74609 22.66732,9.70295 49.30245,17.19074 79.26758,23.71875 l 1.08398,0.23633 a 1.70017,1.70017 0 0 0 0.37305,0.0371 l 1.11133,-0.008 c 9.36355,-0.0636 17.43105,-0.31692 24.5,-0.75782 7.06894,-0.4409 13.13928,-1.06941 18.50585,-1.88672 5.36657,-0.8173 10.0307,-1.82277 14.28711,-3.01562 4.25642,-1.19285 8.10526,-2.57309 11.84375,-4.14063 6.36882,-2.67038 12.36839,-5.72014 19.45508,-9.08398 3.08986,12.24276 8.65918,22.85766 15.97266,31.51758 2.43756,2.88632 5.05638,5.56809 7.85156,8.00781 0.97462,0.85068 1.96719,1.67425 2.97656,2.4707 -12.41415,4.99253 -23.6886,10.02803 -33.41015,15.05469 -0.97314,0.50145 -1.75442,0.9989 -2.69727,1.5 -3.81847,2.03651 -7.60575,4.07408 -10.89844,6.09961 -0.03,0.0184 -0.0559,0.0363 -0.0859,0.0547 -4.05655,2.49903 -7.72222,4.98712 -10.90625,7.45508 -0.9763,0.75673 -1.81447,1.61139 -2.57813,2.51562 -0.21132,0.25117 -0.38624,0.52365 -0.58203,0.78516 -0.52621,0.7002 -1.00683,1.42645 -1.42383,2.19336 -0.16495,0.30388 -0.3183,0.61076 -0.4668,0.92383 -0.38034,0.80098 -0.70621,1.62885 -0.98242,2.48437 -0.0942,0.29149 -0.20076,0.57448 -0.2832,0.87109 -0.31577,1.13696 -0.56748,2.30174 -0.7207,3.50586 -0.2434,1.91276 -0.15439,3.91076 -0.0293,5.91992 0.0159,0.1778 0.0264,0.353 0.0449,0.53126 0.0969,1.2579 0.10539,2.5055 0.32813,3.76953 0.13168,0.74727 0.40053,1.48701 0.57226,2.23437 -2.86507,-1.68535 -5.72044,-3.38265 -8.68554,-4.94336 -34.80469,-18.31982 -75.08943,-27.71446 -133.85157,-28.48047 -19.58739,-0.25534 -41.23496,0.44551 -65.43359,2.08985 l -11.68359,0.79492 a 1.70017,1.70017 0 0 0 -1.28516,0.83203 c -14.60018,-2.9087 -29.73273,-5.81532 -46.11133,-9.14844 -44.15294,-8.98532 -79.124999,-22.80273 -79.124999,-22.80273 a 1.70017,1.70017 0 0 0 -0.05469,-0.0215 l -16.857422,-5.99218 15.386719,-9.12696 C 125.0056,365.99601 180.43397,348.42051 228.92969,329.7207 Z m 615.34375,24.3418 c 51.55732,0.74604 96.42041,8.17009 126.11718,24.63477 3.71211,2.05808 7.18541,4.25414 10.40821,6.59375 3.22279,2.3396 6.19537,4.82196 8.90234,7.45312 2.70697,2.63116 5.14984,5.41099 7.31445,8.34375 2.16462,2.93276 4.05078,6.01928 5.64648,9.26367 1.5958,3.24439 2.9035,6.65064 3.9063,10.22852 1.0028,3.57788 1.7016,7.32725 2.0761,11.25586 0.3746,3.9286 0.4256,8.03741 0.1367,12.33398 -0.2888,4.29658 -0.9186,8.78111 -1.9062,13.46289 a 1.70017,1.70017 0 0 0 0,0.002 c -2.1167,10.04404 -4.4045,19.8712 -6.7812,29.57617 -0.65646,2.68253 -1.34464,5.32013 -2.02153,7.97461 -1.92748,7.55116 -3.93827,14.9857 -6.03711,22.29297 -0.64629,2.25316 -1.27454,4.53111 -1.9375,6.75976 -5.65492,18.98202 -11.92395,37.05096 -18.86524,54.01367 -0.58761,1.43849 -1.19366,2.84716 -1.79101,4.26953 -3.24757,7.71929 -6.62369,15.22379 -10.16602,22.44336 -0.34149,0.69716 -0.66742,1.42099 -1.01172,2.11328 -12.43224,24.95604 -26.68053,46.7642 -43.04101,64.51368 -43.99016,47.72489 -102.90253,66.61322 -183.32813,40.22851 -53.17244,-17.44394 -115.64164,-54.74015 -188.99414,-116.89648 -0.41005,-0.34778 -0.81974,-0.69755 -1.23047,-1.04688 -4.07173,-3.45994 -8.23213,-7.12059 -12.37109,-10.73437 -7.50545,-6.55828 -15.10188,-13.32437 -22.83008,-20.39453 -1.63371,-1.49372 -3.22536,-2.89321 -4.86914,-4.41016 -9.33783,-8.62206 -18.88194,-17.71882 -28.54688,-27.09766 -2.48448,-2.41019 -4.98576,-4.86112 -7.49218,-7.32226 -10.0344,-9.85558 -20.17635,-19.9606 -30.56446,-30.64063 -1.21642,-1.25061 -2.35918,-2.70484 -3.45117,-4.23437 -0.36944,-0.51924 -0.71089,-1.07591 -1.0625,-1.62109 -0.67946,-1.04983 -1.32114,-2.13908 -1.92578,-3.26758 -0.37324,-0.70047 -0.74327,-1.40115 -1.08398,-2.125 -0.51226,-1.08273 -0.95361,-2.19688 -1.38477,-3.31641 -0.2885,-0.75356 -0.62063,-1.49225 -0.86914,-2.25586 -0.0157,-0.048 -0.0216,-0.0965 -0.0371,-0.14453 -0.74818,-2.32519 -1.25552,-4.67404 -1.58008,-6.98047 -0.0758,-0.54392 -0.0927,-1.06753 -0.14258,-1.60351 -0.16748,-1.7787 -0.17889,-3.50287 -0.0449,-5.16016 0.0542,-0.64682 0.11942,-1.28659 0.22266,-1.9082 0.30208,-1.8531 0.7517,-3.61292 1.50586,-5.16602 0.11016,-0.22519 0.21578,-0.45359 0.33594,-0.67187 0.30734,-0.56091 0.66293,-1.08781 1.03906,-1.59961 0.19172,-0.26097 0.36653,-0.53385 0.57617,-0.78125 0.61195,-0.72076 1.2809,-1.40024 2.05469,-2 3.1726,-2.4591 6.86412,-4.96034 11.0039,-7.49024 3.89187,-2.37604 8.25022,-4.78002 12.91407,-7.19336 0.27025,-0.13984 0.4773,-0.27609 0.75,-0.41601 9.9681,-5.1148 21.56785,-10.28259 34.40429,-15.38868 11.0607,7.86247 23.88336,12.67811 37.09961,14.63672 0.22597,0.0337 0.45153,0.0656 0.67774,0.0977 2.019,0.28393 4.04464,0.50751 6.07617,0.6582 0.24026,0.018 0.48033,0.0288 0.7207,0.0449 2.07881,0.1381 4.15977,0.22461 6.24024,0.22461 20.45423,0 41.07911,-6.64588 56.94726,-20.49609 2.41501,-2.10789 4.68888,-4.4071 6.83985,-6.84961 0.0978,-0.11154 0.19575,-0.22176 0.29296,-0.33398 6.53268,-7.50813 11.75602,-16.52101 15.12696,-26.84961 0.17358,-0.0394 0.35367,-0.074 0.52734,-0.11328 9.03232,-2.04514 18.18226,-4.01385 27.42774,-5.88282 9.43471,-1.90722 18.96191,-3.71475 28.53906,-5.41211 0.7641,-0.13538 1.53605,-0.2469 2.30078,-0.38085 8.83754,-1.54849 17.70815,-3.02462 26.5957,-4.3711 0.95675,-0.14495 1.91222,-0.25596 2.86914,-0.39844 8.68385,-1.29291 17.37336,-2.51745 26.03907,-3.5957 2.41002,-0.29971 4.7935,-0.51082 7.19921,-0.79297 7.21596,-0.84677 14.43535,-1.69186 21.58985,-2.37305 3.889,-0.37003 7.70335,-0.60332 11.5664,-0.92187 5.60184,-0.46224 11.23632,-0.98279 16.76954,-1.33203 5.306,-0.33467 10.48117,-0.49097 15.70898,-0.7168 4.01752,-0.17368 8.10662,-0.44005 12.07031,-0.54687 9.1071,-0.24521 18.06362,-0.31237 26.82813,-0.18555 z m -565.90821,89.40039 c 58.421,0.76156 98.03931,10.04977 132.3125,28.08984 3.89013,2.04761 7.68259,4.25491 11.45313,6.52344 0.42193,1.25105 0.9997,2.44183 1.51953,3.65821 0.21595,0.50974 0.40524,1.02758 0.63672,1.52929 0.48333,1.03629 1.01081,2.01715 1.55859,3.00977 0.52958,0.97271 1.08594,1.90758 1.67188,2.82812 0.44572,0.69196 0.87463,1.38018 1.34961,2.03711 1.15658,1.6161 2.37214,3.15343 3.6914,4.50977 10.40513,10.69753 20.5662,20.82484 30.61719,30.69531 2.47725,2.43325 4.95014,4.85625 7.40625,7.24023 9.68177,9.39498 19.24614,18.51584 28.60156,27.15235 1.68472,1.55602 3.31788,2.99352 4.99219,4.52539 7.78552,7.11937 15.4502,13.95559 23.01172,20.55664 3.81265,3.33086 7.64376,6.70861 11.40039,9.91016 0.56818,0.4838 1.13623,0.96445 1.70313,1.44531 48.91815,41.52987 93.12889,72.20901 133.04687,93.26562 19.60958,10.344 38.17101,18.3214 55.79492,24.22657 -1.76698,5.84752 -3.8273,11.66096 -6.14648,17.43554 -0.38048,0.94769 -0.71654,1.90219 -1.11133,2.84766 -2.53309,6.06386 -5.40044,12.07173 -8.5,18.0332 -0.44239,0.85133 -0.84341,1.71153 -1.29688,2.56055 -3.23483,6.05305 -6.78049,12.03875 -10.55468,17.96289 -0.45542,0.71527 -0.87691,1.43911 -1.33985,2.15234 -3.90893,6.01874 -8.11004,11.95513 -12.52929,17.81641 -0.44634,0.59232 -0.86316,1.19457 -1.31446,1.78516 -4.59615,6.01131 -9.46161,11.92649 -14.54492,17.74609 -0.33722,0.38625 -0.65488,0.78066 -0.99414,1.16602 -5.26784,5.98078 -10.78476,11.84885 -16.51367,17.5996 -0.2113,0.21218 -0.41116,0.43073 -0.62305,0.64258 -3.01483,3.01318 -6.24881,5.89168 -9.3789,8.83594 -3.083,2.90075 -6.05842,5.86892 -9.2461,8.69922 -6.40288,5.68398 -13.00549,11.22481 -19.78515,16.60351 -7.34365,5.82615 -14.8936,11.46505 -22.61524,16.89649 -7.72164,5.43143 -15.61578,10.65504 -23.64648,15.65039 -8.0307,4.99535 -16.19792,9.76335 -24.46875,14.28125 -8.27083,4.5179 -16.64391,8.78608 -25.08594,12.78516 -8.44203,3.99907 -16.95375,7.72909 -25.49805,11.16796 -8.54429,3.43888 -17.12158,6.58652 -25.69922,9.42383 -8.57763,2.83731 -17.15522,5.36423 -25.69726,7.5586 -8.54204,2.19436 -17.04882,4.05635 -25.48633,5.5664 -8.43642,1.50986 -16.82118,2.66359 -25.11133,3.43555 -8.28949,0.7719 -16.48349,1.16233 -24.54297,1.14648 -6.4e-4,0 -0.001,10e-6 -0.002,0 -6.4e-4,0 -0.001,10e-6 -0.002,0 -4.02938,-0.008 -8.02624,-0.11777 -11.98242,-0.33203 -3.95618,-0.21426 -7.87359,-0.53416 -11.7461,-0.96093 -6.4e-4,-8e-5 -0.001,7e-5 -0.002,0 -38.73131,-4.26879 -73.01519,-19.32229 -97.61719,-48.28516 -2.18549,-2.57289 -4.25797,-5.28604 -6.27734,-8.06445 -0.86681,-1.19857 -1.69247,-2.448 -2.52735,-3.68555 -0.88638,-1.3061 -1.747,-2.64274 -2.59765,-3.99219 -3.10452,-4.95577 -6.01487,-10.14828 -8.63672,-15.68359 -22.64874,-47.82366 -26.39399,-117.90416 -3.17774,-214.84571 a 1.70017,1.70017 0 0 0 0.0391,-0.23046 c 4.9316,-50.20522 5.28663,-122.33083 -17.01367,-212.77539 l -2.31836,-9.40626 9.66406,-0.6582 c 24.12695,-1.63946 45.6865,-2.33589 65.16015,-2.08203 z"
   transform="matrix(0.93969436,0,0,0.93969436,32.564987,32.565057)" /></svg>
