<?xml version="1.0" encoding="UTF-8" standalone="no"?>
<svg
   width="64"
   height="64"
   version="1.1"
   id="svg8"
   sodipodi:docname="application-x-aoi.svg"
   inkscape:version="1.4 (e7c3feb100, 2024-10-09)"
   xmlns:inkscape="http://www.inkscape.org/namespaces/inkscape"
   xmlns:sodipodi="http://sodipodi.sourceforge.net/DTD/sodipodi-0.dtd"
   xmlns:xlink="http://www.w3.org/1999/xlink"
   xmlns="http://www.w3.org/2000/svg"
   xmlns:svg="http://www.w3.org/2000/svg">
  <defs
     id="defs8">
    <radialGradient
       inkscape:collect="always"
       xlink:href="#linearGradient8"
       id="radialGradient9"
       cx="21.477476"
       cy="23.351734"
       fx="21.477476"
       fy="23.351734"
       r="22"
       gradientTransform="matrix(5.2437612,-5.1735227e-8,0,4.286547,-93.168663,-54.97246)"
       gradientUnits="userSpaceOnUse" />
    <linearGradient
       id="linearGradient8"
       inkscape:collect="always">
      <stop
         style="stop-color:#ededed;stop-opacity:1;"
         offset="0"
         id="stop8" />
      <stop
         style="stop-color:#b7b7b7;stop-opacity:1;"
         offset="1"
         id="stop9" />
    </linearGradient>
  </defs>
  <sodipodi:namedview
     id="namedview8"
     pagecolor="#ffffff"
     bordercolor="#000000"
     borderopacity="0.25"
     inkscape:showpageshadow="2"
     inkscape:pageopacity="0.0"
     inkscape:pagecheckerboard="0"
     inkscape:deskcolor="#d1d1d1"
     inkscape:zoom="17.828125"
     inkscape:cx="31.971954"
     inkscape:cy="32"
     inkscape:window-width="3440"
     inkscape:window-height="1361"
     inkscape:window-x="0"
     inkscape:window-y="0"
     inkscape:window-maximized="1"
     inkscape:current-layer="svg8" />
  <g
     id="g1">
    <g
       id="g4">
      <g
         id="g3">
        <g
           id="g2">
          <path
             style="fill:url(#radialGradient9);fill-opacity:1"
             d="M 12.75,4 C 11.2265,4 10,5.2488 10,6.8 v 50.4 c 0,1.5512 1.2265,2.8 2.75,2.8 h 38.5 C 52.7735,60 54,58.7512 54,57.2 V 20 L 38,4 Z"
             id="path2-3"
             sodipodi:nodetypes="ssssssccs" />
          <path
             style="opacity:0.593376;fill:#ffffff;fill-opacity:1"
             d="M 38,4 V 17.333333 C 38,18.806133 39.193906,20 40.666666,20 H 54 Z"
             id="path4-6" />
        </g>
      </g>
    </g>
  </g>
  <g
     id="g5"
     style="opacity:0.7339737">
    <rect
       style="fill:#51a9ff;opacity:1;fill-opacity:1"
       width="16"
       height="16"
       x="30"
       y="27"
       ry="2.667"
       id="rect6" />
    <circle
       style="fill:#ff5145;opacity:1;fill-opacity:1"
       cx="33"
       cy="44"
       r="8"
       id="circle7" />
    <path
       style="fill:#ffab13;opacity:1;fill-opacity:1"
       d="m 26.015559,27.000088 c -0.464598,-0.0053 -0.898407,0.232007 -1.144778,0.626298 l -6.660534,10.666608 c -0.07401,0.118706 -0.128877,0.248329 -0.16261,0.384113 0,0 -0.106378,0.506881 -0.0012,1.011713 0.105076,0.504832 0.415205,1.128087 0.991274,1.640617 C 20.18988,42.354498 22.175319,43 26.00008,43 c 3.82476,0 5.810198,-0.645502 6.962337,-1.670563 0.576069,-0.51253 0.886198,-1.135785 0.991276,-1.640617 0.105076,-0.504832 -0.0014,-1.011713 -0.0014,-1.011713 -0.03373,-0.135784 -0.0886,-0.265407 -0.16261,-0.384113 L 27.129151,27.626386 C 26.888609,27.241524 26.469044,27.00554 26.015559,27.000088 Z"
       id="path8" />
  </g>
</svg>
