<?xml version="1.0" encoding="UTF-8" standalone="no"?>
<svg
   width="64"
   height="64"
   version="1.1"
   id="svg7"
   sodipodi:docname="application-pdf.svg"
   inkscape:version="1.3.2 (091e20ef0f, 2023-11-25, custom)"
   xmlns:inkscape="http://www.inkscape.org/namespaces/inkscape"
   xmlns:sodipodi="http://sodipodi.sourceforge.net/DTD/sodipodi-0.dtd"
   xmlns:xlink="http://www.w3.org/1999/xlink"
   xmlns="http://www.w3.org/2000/svg"
   xmlns:svg="http://www.w3.org/2000/svg">
  <defs
     id="defs7">
    <radialGradient
       inkscape:collect="always"
       xlink:href="#linearGradient4"
       id="radialGradient15"
       cx="17.386076"
       cy="47.039314"
       fx="17.386076"
       fy="47.039314"
       r="22"
       gradientTransform="matrix(2.0221847,-2.0221847,2.5736897,2.5736897,-138.00161,-36.688012)"
       gradientUnits="userSpaceOnUse" />
    <linearGradient
       id="linearGradient4"
       inkscape:collect="always">
      <stop
         style="stop-color:#ff4f54;stop-opacity:1;"
         offset="0"
         id="stop3" />
      <stop
         style="stop-color:#fa7e6a;stop-opacity:1;"
         offset="1"
         id="stop4" />
    </linearGradient>
  </defs>
  <sodipodi:namedview
     id="namedview7"
     pagecolor="#ffffff"
     bordercolor="#000000"
     borderopacity="0.25"
     inkscape:showpageshadow="2"
     inkscape:pageopacity="0.0"
     inkscape:pagecheckerboard="0"
     inkscape:deskcolor="#d1d1d1"
     inkscape:zoom="13.890625"
     inkscape:cx="29.984252"
     inkscape:cy="32.035996"
     inkscape:window-width="1920"
     inkscape:window-height="1014"
     inkscape:window-x="0"
     inkscape:window-y="0"
     inkscape:window-maximized="1"
     inkscape:current-layer="svg7" />
  <g
     id="g1">
    <path
       style="fill:url(#radialGradient15)"
       d="M 12.75,4 C 11.2265,4 10,5.2488 10,6.8 v 50.4 c 0,1.55008 1.2265,2.8 2.75,2.8 h 38.5 C 52.7724,60 54,58.75008 54,57.2 V 22 L 36,4 Z"
       id="path2"
       sodipodi:nodetypes="ssssssccs" />
    <path
       style="opacity:0.457139;fill:#ffffff;fill-opacity:1"
       d="M 54,22 36,4 V 19.1875 C 36,20.74675 37.2555,22 38.8125,22 Z"
       id="path4" />
  </g>
  <path
     style="fill:#ffffff;stroke-width:14.2857;fill-opacity:1"
     d="m 20.317439,52.625713 v 0 c -0.404162,0 -0.792063,-0.131235 -1.123057,-0.37861 -1.208999,-0.907038 -1.371592,-1.916281 -1.294941,-2.603819 0.211372,-1.890729 2.549234,-3.869724 6.950872,-5.885884 1.746719,-3.827916 3.408657,-8.544289 4.399315,-12.484858 -1.159059,-2.522522 -2.285599,-5.795297 -1.464502,-7.715061 0.288023,-0.672441 0.646889,-1.188094 1.317007,-1.411079 0.264795,-0.08827 0.933751,-0.199758 1.179964,-0.199758 0.585337,0 1.099829,0.753736 1.464503,1.21829 0.342608,0.436678 1.119572,1.3623 -0.433196,7.899721 1.565544,3.233288 3.783784,6.526967 5.909113,8.782371 1.522572,-0.275247 2.832611,-0.415775 3.89992,-0.415775 1.818725,0 2.920877,0.423905 3.370332,1.297264 0.371642,0.72238 0.219501,1.566705 -0.452939,2.508586 -0.646891,0.904716 -1.538832,1.383206 -2.578269,1.383206 -1.41224,0 -3.056758,-0.891941 -4.890579,-2.653759 -3.294842,0.6887 -7.142501,1.917442 -10.252682,3.277422 -0.970916,2.060291 -1.901183,3.719907 -2.767574,4.937035 -1.190417,1.666583 -2.217078,2.444708 -3.233287,2.444708 z m 3.091599,-5.953244 c -2.481874,1.394821 -3.493438,2.541105 -3.566605,3.186833 -0.01161,0.106847 -0.04297,0.387901 0.500556,0.803677 0.173046,-0.05459 1.183448,-0.515655 3.066049,-3.99051 z M 39.246806,41.51361 c 0.946526,0.728187 1.177642,1.096345 1.796658,1.096345 0.271764,0 1.046405,-0.01161 1.405272,-0.51217 0.173046,-0.242729 0.240407,-0.398354 0.267118,-0.481974 -0.14285,-0.07549 -0.332155,-0.228792 -1.364624,-0.228792 -0.586498,0.0012 -1.323975,0.02672 -2.104424,0.126591 z m -8.675525,-7.644218 c -0.830388,2.87326 -1.926733,5.975312 -3.105535,8.784695 2.427288,-0.941881 5.065949,-1.764139 7.544338,-2.345992 -1.567866,-1.821047 -3.13457,-4.095034 -4.438803,-6.438703 z m -0.704958,-9.827615 c -0.113816,0.03833 -1.544639,2.040548 0.111492,3.735005 1.102152,-2.456324 -0.06156,-3.751265 -0.111492,-3.735005 z"
     id="path2-3" />
</svg>
