<?xml version="1.0" encoding="UTF-8" standalone="no"?>
<svg
   width="64"
   height="64"
   version="1.1"
   id="svg7"
   sodipodi:docname="application-mathematica.svg"
   inkscape:version="1.3.2 (091e20ef0f, 2023-11-25, custom)"
   xmlns:inkscape="http://www.inkscape.org/namespaces/inkscape"
   xmlns:sodipodi="http://sodipodi.sourceforge.net/DTD/sodipodi-0.dtd"
   xmlns:xlink="http://www.w3.org/1999/xlink"
   xmlns="http://www.w3.org/2000/svg"
   xmlns:svg="http://www.w3.org/2000/svg">
  <defs
     id="defs7">
    <inkscape:path-effect
       effect="fillet_chamfer"
       id="path-effect13"
       is_visible="true"
       lpeversion="1"
       nodesatellites_param="F,0,0,1,0,0,0,1 @ F,0,0,1,0,0,0,1 @ F,0,0,1,0,0,0,1 @ F,0,0,1,0,0,0,1 @ F,0,0,1,0,0,0,1 @ F,0,0,1,0,0,0,1 @ F,0,0,1,0,0,0,1 @ F,0,0,1,0,0,0,1 @ F,0,0,1,0,0,0,1 @ F,0,0,1,0,0,0,1 | F,0,0,1,0,0,0,1 @ F,0,0,1,0,0,0,1 @ F,0,0,1,0,0,0,1 @ F,0,0,1,0,0,0,1 @ F,0,0,1,0,0,0,1 @ F,0,0,1,0,0,0,1 @ F,0,0,1,0,0,0,1 @ F,0,0,1,0,0,0,1 @ F,0,0,1,0,0,0,1 @ F,0,0,1,0,0,0,1 @ F,0,0,1,0,0,0,1 @ F,0,0,1,0,0,0,1 @ F,0,0,1,0,0,0,1"
       radius="0"
       unit="px"
       method="auto"
       mode="F"
       chamfer_steps="1"
       flexible="false"
       use_knot_distance="true"
       apply_no_radius="true"
       apply_with_radius="true"
       only_selected="false"
       hide_knots="false" />
    <linearGradient
       id="linearGradient7"
       inkscape:collect="always">
      <stop
         style="stop-color:#d15d92;stop-opacity:1;"
         offset="0"
         id="stop7" />
      <stop
         style="stop-color:#e43f4d;stop-opacity:1;"
         offset="1"
         id="stop8" />
    </linearGradient>
    <radialGradient
       inkscape:collect="always"
       xlink:href="#linearGradient7"
       id="radialGradient8"
       cx="17.222261"
       cy="49.789066"
       fx="17.222261"
       fy="49.789066"
       r="22"
       gradientTransform="matrix(2.3473368,-1.3552355,1.7248452,2.9875196,-109.08262,-70.764958)"
       gradientUnits="userSpaceOnUse" />
  </defs>
  <sodipodi:namedview
     id="namedview7"
     pagecolor="#ffffff"
     bordercolor="#000000"
     borderopacity="0.25"
     inkscape:showpageshadow="2"
     inkscape:pageopacity="0.0"
     inkscape:pagecheckerboard="0"
     inkscape:deskcolor="#d1d1d1"
     inkscape:zoom="13.890625"
     inkscape:cx="32"
     inkscape:cy="32.035996"
     inkscape:window-width="1920"
     inkscape:window-height="1014"
     inkscape:window-x="0"
     inkscape:window-y="0"
     inkscape:window-maximized="1"
     inkscape:current-layer="svg7" />
  <path
     style="fill:url(#radialGradient8)"
     d="M 12.75,4 C 11.2265,4 10,5.2488 10,6.8 v 50.4 c 0,1.55008 1.2265,2.8 2.75,2.8 h 38.5 C 52.7724,60 54,58.75008 54,57.2 V 22 L 36,4 Z"
     id="path2"
     sodipodi:nodetypes="ssssssccs" />
  <path
     style="fill:#ffffff;fill-opacity:1;opacity:0.49931893"
     d="M 54,22 36,4 V 19.1875 C 36,20.74675 37.2555,22 38.8125,22 Z"
     id="path4" />
  <path
     style="fill:#ffffff;fill-rule:evenodd;fill-opacity:1"
     d="m 22.726562,26.999781 c 0,0 1.724632,5.556606 0.671876,9.119141 C 22.345678,39.681457 17,43.693141 17,43.693141 c 0,0 6.989124,0.380316 9.642578,2.076171 2.653454,1.695853 5.351562,8.230469 5.351563,8.230469 0,0 3.582998,-7.199951 5.082031,-8.230469 C 38.575202,44.738794 47,43.683374 47,43.683375 c 0,0 -6.160025,-5.796846 -6.683594,-7.414063 -0.523571,-1.617226 0.958985,-9.265624 0.958985,-9.265624 0,0 -5.544109,3.746093 -9.4375,3.746093 -3.893389,0 -9.111328,-3.75 -9.111329,-3.75 z m 13.519532,6.996094 c -0.08625,1.034466 -0.295233,1.771507 0.265625,3.503906 0.623151,1.924809 1.259654,2.298721 2.013672,3.191407 0.09195,0.108862 0.205746,0.216579 0.300781,0.326171 -0.167779,0.03827 -0.349722,0.06356 -0.513672,0.103516 -1.153041,0.281007 -1.948481,0.283617 -3.501953,1.351563 -1.553606,1.068033 -1.846505,1.834386 -2.488281,2.796874 -0.08242,0.123611 -0.154584,0.264043 -0.236328,0.390626 -0.798641,-1.167299 -1.788122,-2.302451 -3.289063,-3.261719 -1.158055,-0.740128 -2.308187,-1.148865 -3.439453,-1.466797 0.752318,-1.051043 1.446284,-2.222304 1.876953,-3.679688 0.334763,-1.132838 0.379906,-2.189177 0.419922,-3.232422 1.261646,0.416849 2.639465,0.730469 4.183594,0.730469 1.618414,0 3.082666,-0.311019 4.408203,-0.753906 z"
     id="path7"
     inkscape:path-effect="#path-effect13"
     inkscape:original-d="m 22.726562,26.999781 c 0,0 1.724632,5.556606 0.671876,9.119141 C 22.345678,39.681457 17,43.693141 17,43.693141 c 0,0 6.989124,0.380316 9.642578,2.076171 2.653454,1.695853 5.351562,8.230469 5.351563,8.230469 0,0 3.582998,-7.199951 5.082031,-8.230469 C 38.575202,44.738794 47,43.683374 47,43.683375 c 0,0 -6.160025,-5.796846 -6.683594,-7.414063 -0.523571,-1.617226 0.958985,-9.265624 0.958985,-9.265624 0,0 -5.544109,3.746093 -9.4375,3.746093 -3.893389,0 -9.111328,-3.75 -9.111329,-3.75 z m 13.519532,6.996094 c -0.08625,1.034466 -0.295233,1.771507 0.265625,3.503906 0.623151,1.924809 1.259654,2.298721 2.013672,3.191407 0.09195,0.108862 0.205746,0.216579 0.300781,0.326171 -0.167779,0.03827 -0.349722,0.06356 -0.513672,0.103516 -1.153041,0.281007 -1.948481,0.283617 -3.501953,1.351563 -1.553606,1.068033 -1.846505,1.834386 -2.488281,2.796874 -0.08242,0.123611 -0.154584,0.264043 -0.236328,0.390626 -0.798641,-1.167299 -1.788122,-2.302451 -3.289063,-3.261719 -1.158055,-0.740128 -2.308187,-1.148865 -3.439453,-1.466797 0.752318,-1.051043 1.446284,-2.222304 1.876953,-3.679688 0.334763,-1.132838 0.379906,-2.189177 0.419922,-3.232422 1.261646,0.416849 2.639465,0.730469 4.183594,0.730469 1.618414,0 3.082666,-0.311019 4.408203,-0.753906 z" />
</svg>
