<?xml version="1.0" encoding="UTF-8" standalone="no"?>
<svg
   width="64"
   height="64"
   version="1.1"
   id="svg7"
   sodipodi:docname="application-relaxng.svg"
   inkscape:version="1.3.2 (091e20ef0f, 2023-11-25, custom)"
   xmlns:inkscape="http://www.inkscape.org/namespaces/inkscape"
   xmlns:sodipodi="http://sodipodi.sourceforge.net/DTD/sodipodi-0.dtd"
   xmlns:xlink="http://www.w3.org/1999/xlink"
   xmlns="http://www.w3.org/2000/svg"
   xmlns:svg="http://www.w3.org/2000/svg">
  <defs
     id="defs7">
    <radialGradient
       inkscape:collect="always"
       xlink:href="#linearGradient2"
       id="radialGradient9"
       cx="20.238163"
       cy="45.446491"
       fx="20.238163"
       fy="45.446491"
       r="22"
       gradientTransform="matrix(2.2768343,-1.3145309,1.6730393,2.8977891,-103.5617,-78.365997)"
       gradientUnits="userSpaceOnUse" />
    <linearGradient
       id="linearGradient2"
       inkscape:collect="always">
      <stop
         style="stop-color:#00b1ff;stop-opacity:1;"
         offset="0"
         id="stop1" />
      <stop
         style="stop-color:#136dff;stop-opacity:1;"
         offset="1"
         id="stop2" />
    </linearGradient>
  </defs>
  <sodipodi:namedview
     id="namedview7"
     pagecolor="#ffffff"
     bordercolor="#000000"
     borderopacity="0.25"
     inkscape:showpageshadow="2"
     inkscape:pageopacity="0.0"
     inkscape:pagecheckerboard="0"
     inkscape:deskcolor="#d1d1d1"
     inkscape:zoom="13.890625"
     inkscape:cx="32"
     inkscape:cy="32.035996"
     inkscape:window-width="1920"
     inkscape:window-height="1014"
     inkscape:window-x="0"
     inkscape:window-y="0"
     inkscape:window-maximized="1"
     inkscape:current-layer="svg7" />
  <g
     id="g2"
     transform="translate(0.0397662,0.06140005)">
    <path
       style="fill:url(#radialGradient9)"
       d="m 12.710234,3.9385999 c -1.5235,0 -2.7500004,1.2487999 -2.7500004,2.7999999 V 57.1386 c 0,1.55008 1.2265004,2.8 2.7500004,2.8 h 38.5 c 1.5224,0 2.75,-1.24992 2.75,-2.8 v -35.2 l -18,-18.0000001 z"
       id="path2-6"
       sodipodi:nodetypes="ssssssccs" />
    <path
       style="opacity:0.533302;fill:#ffffff;fill-opacity:1"
       d="m 53.960234,21.9386 -18,-18.0000001 V 19.1261 c 0,1.55925 1.2555,2.8125 2.8125,2.8125 z"
       id="path4-5" />
  </g>
  <path
     style="fill:#ffffff"
     d="m 32,27 c -7.732,0 -14,6.268 -14,14 0,7.732 6.268,14 14,14 7.732,0 14,-6.268 14,-14 0,-7.732 -6.268,-14 -14,-14 z m -1.402344,2.675782 c 0.16322,-0.017 0.370476,0.0098 0.535156,0 0.0196,0.07808 -0.11852,0.355178 -0.304688,0.761718 -1.185386,2.589588 -1.25249,5.625102 -0.15234,7.246094 0.19908,0.293896 0.378906,0.573014 0.378906,0.609374 0,0.03634 -0.214272,0.07422 -0.457032,0.07422 -0.569884,0 -1.109058,-0.34621 -2.210938,-1.21875 -0.489494,-0.38761 -1.124554,-0.71244 -1.371094,-0.76172 -0.387146,-0.07734 -0.491348,-0.04386 -0.992186,0.457032 -0.465986,0.465902 -0.609376,0.71801 -0.609376,1.144532 0,1.617432 1.919072,2.899672 5.488282,3.65625 4.84712,1.02732 6.042082,1.951206 6.17578,4.5 0.16786,3.196116 -1.534702,5.606954 -5.261718,7.472656 -0.444844,0.222758 -0.727422,0.306926 -0.914062,0.378906 -0.0827,-0.0074 -0.1441,0.0074 -0.226562,0 -0.03172,-0.09882 -0.07812,-0.32734 -0.07812,-0.761718 0,-1.697554 -0.66754,-3.444742 -1.67578,-4.421876 -0.270646,-0.262326 -1.030754,-0.81704 -1.679688,-1.21875 -0.64891,-0.401686 -1.30332,-0.867326 -1.44922,-1.066406 -0.24178,-0.330372 -0.259978,-0.534218 -0.07422,-1.144532 0.338544,-1.114664 0.740072,-1.737112 1.523438,-2.441406 0.410688,-0.369236 0.823082,-0.676194 0.914062,-0.683594 0.091,-0.0074 -0.521608,-0.19386 -1.445312,-0.382812 -0.923652,-0.18932 -2.277978,-0.58701 -2.976562,-0.839844 -1.277422,-0.462218 -2.998728,-1.430544 -3.656252,-2.132812 -0.02782,-0.02976 -0.05396,-0.05176 -0.07812,-0.07812 0.942074,-3.752632 3.585094,-6.826424 7.089844,-8.308594 0.733326,-0.31017 1.491058,-0.52428 2.289062,-0.6875 0.39749,-0.08124 0.80833,-0.11062 1.21875,-0.15234 z m 11.4375,5.71875 c 0.286552,0.17712 1.366928,2.518338 1.675782,3.660156 0.398758,1.474094 0.369894,4.02392 0,5.48828 -0.14078,0.557344 -0.318886,1.079632 -0.378906,1.144532 -0.06002,0.0649 -0.279126,-0.307992 -0.535156,-0.761718 -0.256058,-0.453654 -1.07421,-1.419546 -1.753908,-2.13672 -1.961928,-2.07023 -2.271036,-3.148558 -1.449218,-4.80078 0.414446,-0.83316 2.21963,-2.73063 2.441406,-2.59375 z"
     id="path7" />
</svg>
