<?xml version="1.0" encoding="UTF-8" standalone="no"?>
<svg
   width="64"
   height="64"
   version="1.1"
   id="svg7"
   sodipodi:docname="application-mathematicaplayer.svg"
   inkscape:version="1.3.2 (091e20ef0f, 2023-11-25, custom)"
   xmlns:inkscape="http://www.inkscape.org/namespaces/inkscape"
   xmlns:sodipodi="http://sodipodi.sourceforge.net/DTD/sodipodi-0.dtd"
   xmlns:xlink="http://www.w3.org/1999/xlink"
   xmlns="http://www.w3.org/2000/svg"
   xmlns:svg="http://www.w3.org/2000/svg">
  <defs
     id="defs7">
    <inkscape:path-effect
       effect="fillet_chamfer"
       id="path-effect1"
       is_visible="true"
       lpeversion="1"
       nodesatellites_param="F,0,0,1,0,0,0,1 @ F,0,0,1,0,0,0,1 @ F,0,0,1,0,0,0,1 @ F,0,0,1,0,0,0,1 @ F,0,0,1,0,2.8868018,0,1 @ F,0,0,1,0,0,0,1 @ F,0,0,1,0,0,0,1 | F,0,0,1,0,0,0,1 @ F,0,0,1,0,0,0,1 @ F,0,0,1,0,0,0,1 @ F,0,0,1,0,0,0,1 @ F,0,0,1,0,0,0,1 @ F,0,0,1,0,0,0,1 @ F,0,0,1,0,0,0,1"
       radius="0"
       unit="px"
       method="auto"
       mode="F"
       chamfer_steps="1"
       flexible="false"
       use_knot_distance="true"
       apply_no_radius="true"
       apply_with_radius="true"
       only_selected="false"
       hide_knots="false" />
    <radialGradient
       inkscape:collect="always"
       xlink:href="#linearGradient7"
       id="radialGradient8"
       cx="17.222261"
       cy="49.789066"
       fx="17.222261"
       fy="49.789066"
       r="22"
       gradientTransform="matrix(2.3473368,-1.3552355,1.7248452,2.9875196,-109.08262,-71.764958)"
       gradientUnits="userSpaceOnUse" />
    <linearGradient
       id="linearGradient7"
       inkscape:collect="always">
      <stop
         style="stop-color:#656bff;stop-opacity:1;"
         offset="0"
         id="stop7" />
      <stop
         style="stop-color:#57acff;stop-opacity:1;"
         offset="1"
         id="stop8" />
    </linearGradient>
  </defs>
  <sodipodi:namedview
     id="namedview7"
     pagecolor="#ffffff"
     bordercolor="#000000"
     borderopacity="0.25"
     inkscape:showpageshadow="2"
     inkscape:pageopacity="0.0"
     inkscape:pagecheckerboard="0"
     inkscape:deskcolor="#d1d1d1"
     inkscape:zoom="9.8221551"
     inkscape:cx="31.815828"
     inkscape:cy="31.561302"
     inkscape:window-width="1920"
     inkscape:window-height="1014"
     inkscape:window-x="0"
     inkscape:window-y="0"
     inkscape:window-maximized="1"
     inkscape:current-layer="svg7"
     showguides="true" />
  <path
     style="fill:url(#radialGradient8)"
     d="m 12.75,2.9999996 c -1.5235,0 -2.7500004,1.2488 -2.7500004,2.8 V 56.2 c 0,1.55008 1.2265004,2.8 2.7500004,2.8 h 38.5 C 52.7724,59 54,57.75008 54,56.2 V 21 L 36,2.9999996 Z"
     id="path2"
     sodipodi:nodetypes="ssssssccs" />
  <path
     style="fill:#ffffff;fill-opacity:1;opacity:0.44853477"
     d="M 54,21 36,2.9999996 V 18.1875 C 36,19.74675 37.2555,21 38.8125,21 Z"
     id="path4" />
  <path
     style="fill:#ffffff;fill-opacity:1"
     d="M 29.980469,26 C 23.24158,25.999922 17.999791,31.673076 18,38.34375 18.000096,45.01421 22.733981,50.000079 29.472656,50 c 8.4951,-0.55027 10.18326,-12.77064 2.773438,-11.337891 0.249754,0.146496 0.468226,0.268255 0.660882,0.379117 1.322118,0.760799 1.853169,3.758238 0.93894,5.018544 -0.87245,1.202711 -2.512549,1.76775 -4.383025,1.479292 C 18.793933,43.893737 22.333487,25.740892 38,28.519531 35.716144,26.799746 33.204567,26.003297 29.980469,26 Z m 4.546875,6 c -8.4951,0.55027 -10.18326,12.77064 -2.773438,11.337891 0.08941,-0.290347 -2.065941,-0.616584 -2.232422,-2.650391 -0.245369,-2.997538 2.191746,-5.65786 5.145792,-5.089812 C 45.670985,37.71363 40.729282,55.784589 26,53.480469 28.283856,55.200254 30.795433,55.996703 34.019531,56 40.75842,56.000078 46.000209,50.326924 46,43.65625 45.999904,36.98579 41.266019,31.999921 34.527344,32 Z"
     id="path7"
     sodipodi:nodetypes="cccccsccccsscccc"
     inkscape:path-effect="#path-effect1"
     inkscape:original-d="M 29.980469,26 C 23.24158,25.999922 17.999791,31.673076 18,38.34375 18.000096,45.01421 22.733981,50.000079 29.472656,50 c 8.4951,-0.55027 10.18326,-12.77064 2.773438,-11.337891 1.421813,0.833983 1.829824,0.866251 2.232422,2.650391 0.348407,2.987316 -2.042604,4.68505 -5.015625,4.226562 C 18.793933,43.893737 22.333487,25.740892 38,28.519531 35.716144,26.799746 33.204567,26.003297 29.980469,26 Z m 4.546875,6 c -8.4951,0.55027 -10.18326,12.77064 -2.773438,11.337891 0.08941,-0.290347 -2.065941,-0.616584 -2.232422,-2.650391 -0.245369,-2.997538 2.191746,-5.65786 5.145792,-5.089812 C 45.670985,37.71363 40.729282,55.784589 26,53.480469 28.283856,55.200254 30.795433,55.996703 34.019531,56 40.75842,56.000078 46.000209,50.326924 46,43.65625 45.999904,36.98579 41.266019,31.999921 34.527344,32 Z" />
</svg>
