<?xml version="1.0" encoding="UTF-8" standalone="no"?>
<svg
   width="64"
   height="64"
   version="1.1"
   id="svg7"
   sodipodi:docname="application-x-hipnc.svg"
   inkscape:version="1.4 (e7c3feb100, 2024-10-09)"
   xmlns:inkscape="http://www.inkscape.org/namespaces/inkscape"
   xmlns:sodipodi="http://sodipodi.sourceforge.net/DTD/sodipodi-0.dtd"
   xmlns:xlink="http://www.w3.org/1999/xlink"
   xmlns="http://www.w3.org/2000/svg"
   xmlns:svg="http://www.w3.org/2000/svg">
  <defs
     id="defs7">
    <radialGradient
       inkscape:collect="always"
       xlink:href="#linearGradient9"
       id="radialGradient10"
       cx="13.030433"
       cy="49.4501"
       fx="13.030433"
       fy="49.4501"
       r="22"
       gradientTransform="matrix(2.2649253,-1.3076552,1.6642885,2.8826322,-98.781756,-71.297919)"
       gradientUnits="userSpaceOnUse" />
    <linearGradient
       id="linearGradient9"
       inkscape:collect="always">
      <stop
         style="stop-color:#f78330;stop-opacity:1;"
         offset="0"
         id="stop9" />
      <stop
         style="stop-color:#e6664a;stop-opacity:1;"
         offset="1"
         id="stop10" />
    </linearGradient>
  </defs>
  <sodipodi:namedview
     id="namedview7"
     pagecolor="#ffffff"
     bordercolor="#000000"
     borderopacity="0.25"
     inkscape:showpageshadow="2"
     inkscape:pageopacity="0.0"
     inkscape:pagecheckerboard="0"
     inkscape:deskcolor="#d1d1d1"
     inkscape:zoom="17.828125"
     inkscape:cx="31.971954"
     inkscape:cy="32"
     inkscape:window-width="3440"
     inkscape:window-height="1361"
     inkscape:window-x="0"
     inkscape:window-y="0"
     inkscape:window-maximized="1"
     inkscape:current-layer="svg7" />
  <g
     id="g1">
    <g
       id="g2">
      <path
         style="fill:url(#radialGradient10)"
         d="M 12.75,4 C 11.2265,4 10,5.2488 10,6.8 v 50.4 c 0,1.55008 1.2265,2.8 2.75,2.8 h 38.5 C 52.7724,60 54,58.75008 54,57.2 V 22 L 36,4 Z"
         id="path2"
         sodipodi:nodetypes="ssssssccs" />
      <path
         style="opacity:0.584913;fill:#ffeeee;fill-opacity:1"
         d="M 54,22 36,4 V 19.1875 C 36,20.74675 37.2555,22 38.8125,22 Z"
         id="path4" />
    </g>
  </g>
  <path
     style="fill:#ffffff;fill-opacity:0.68158394"
     d="M 24.145862,25 C 18.47265,24.9972 13.680224,26.8158 10,29.6312 v 5.509 c 3.008415,-3.1122 7.402524,-5.2822 13.008414,-5.3676 0.373072,-0.0056 0.753156,-0.0014 1.137448,0.0112 8.680224,0.2996 14.457222,7.2016 14.465637,14.3696 0.01122,7.9156 -4.896213,13.3224 -13.169705,13.2188 -5.63394,-0.07 -11.124824,-3.9116 -10.983169,-9.758 0.1108,-4.6424 3.408135,-8.3972 8.647966,-8.5218 4.237027,-0.0994 5.942496,2.8154 5.942496,4.6186 0,1.7094 -1.014025,3.9144 -3.506311,4.4436 -2.014025,0.4284 -4.862552,-1.6758 -2.71108,-4.5458 -2.199158,-0.0994 -4.116409,1.2852 -4.230013,3.7394 -0.220197,4.7572 4.72791,6.6052 7.8892,6.0984 5.798036,-0.9268 7.948106,-4.6872 7.921458,-9.7958 -0.02805,-5.3452 -4.88359,-10.073 -11.17812,-10.136 C 18.196353,33.4658 12.181907,36.3442 10,42.6232 v 9.6194 c 1.165498,3.0254 3.504909,5.88 6.817671,7.7574 h 18.273492 c 5.434782,-2.898 8.90603,-8.4672 8.908835,-15.876 C 44.004206,33.4602 36.291724,25.007 24.145862,25 Z"
     id="path7" />
</svg>
