<?xml version="1.0" encoding="UTF-8" standalone="no"?>
<svg
   width="64"
   height="64"
   version="1.1"
   id="svg7"
   sodipodi:docname="application-rnote.svg"
   inkscape:version="1.3.2 (091e20ef0f, 2023-11-25, custom)"
   xmlns:inkscape="http://www.inkscape.org/namespaces/inkscape"
   xmlns:sodipodi="http://sodipodi.sourceforge.net/DTD/sodipodi-0.dtd"
   xmlns:xlink="http://www.w3.org/1999/xlink"
   xmlns="http://www.w3.org/2000/svg"
   xmlns:svg="http://www.w3.org/2000/svg">
  <defs
     id="defs7">
    <radialGradient
       inkscape:collect="always"
       xlink:href="#linearGradient8"
       id="radialGradient9"
       cx="21.477476"
       cy="23.351734"
       fx="21.477476"
       fy="23.351734"
       r="22"
       gradientTransform="matrix(5.2437612,-5.1735227e-8,0,4.286547,-85.168663,-52.97246)"
       gradientUnits="userSpaceOnUse" />
    <linearGradient
       id="linearGradient8"
       inkscape:collect="always">
      <stop
         style="stop-color:#ededed;stop-opacity:1;"
         offset="0"
         id="stop8" />
      <stop
         style="stop-color:#b7b7b7;stop-opacity:1;"
         offset="1"
         id="stop9" />
    </linearGradient>
  </defs>
  <sodipodi:namedview
     id="namedview7"
     pagecolor="#ffffff"
     bordercolor="#000000"
     borderopacity="0.25"
     inkscape:showpageshadow="2"
     inkscape:pageopacity="0.0"
     inkscape:pagecheckerboard="0"
     inkscape:deskcolor="#d1d1d1"
     inkscape:zoom="13.09375"
     inkscape:cx="31.961814"
     inkscape:cy="32"
     inkscape:window-width="1920"
     inkscape:window-height="1014"
     inkscape:window-x="0"
     inkscape:window-y="0"
     inkscape:window-maximized="1"
     inkscape:current-layer="svg7" />
  <g
     id="g7"
     transform="translate(-8,-2)">
    <path
       style="fill:url(#radialGradient9);fill-opacity:1"
       d="M 20.75,6 C 19.2265,6 18,7.2488 18,8.8 v 50.4 c 0,1.5512 1.2265,2.8 2.75,2.8 h 38.5 C 60.7735,62 62,60.7512 62,59.2 V 22 L 46,6 Z"
       id="path2"
       sodipodi:nodetypes="ssssssccs" />
    <path
       style="opacity:0.593376;fill:#ffffff;fill-opacity:1"
       d="M 46,6 V 19.333333 C 46,20.806133 47.193906,22 48.666666,22 H 62 Z"
       id="path4-3" />
  </g>
  <path
     style="fill:#444342"
     d="m 41.255577,33.03423 c -0.0808,-0.399506 0.757341,-2.746478 -1.923338,-4.071796 -0.532218,-0.263126 -1.199909,-0.502734 -1.982183,-0.677204 -1.697203,-0.378527 -3.93606,-0.446121 -6.326829,0.206206 -2.002916,0.546495 -3.911712,1.546585 -5.539406,2.929238 -1.451977,1.233391 -2.628006,2.726928 -3.442557,4.377177 -0.07095,0.143754 -0.138985,0.28899 -0.203995,0.435651 -0.455272,1.02384 -0.766085,2.182061 -0.82656,3.405506 -0.05819,1.177225 0.113795,2.481754 0.687816,3.768394 0.560853,1.106873 1.501276,2.267347 2.862625,3.144089 0.82148,0.53007 1.828795,0.966244 2.962375,1.182215 0.440198,0.08387 0.919754,0.136812 1.428281,0.138268 0.936724,0.0083 1.822752,-0.160186 2.639868,-0.435123 0.738537,-0.248508 1.412407,-0.580721 2.014291,-0.936108 0.548251,-0.324178 1.045938,-0.670277 1.480621,-0.974237 0.43131,-0.301597 0.783162,-0.54907 1.138363,-0.767036 0.327011,-0.201266 0.625879,-0.352302 0.89546,-0.454072 0.258445,-0.09755 0.459002,-0.13806 0.608498,-0.148746 0.138077,-0.02522 0.252615,-0.01638 0.295564,-0.02548 0.04397,-0.02522 0.05371,-0.0037 0.05253,-0.09282 0.0068,-0.08078 0.06374,-0.02888 0.08635,0.0234 0.0289,0.0799 0.0198,0.216892 -0.03965,0.389673 -0.08751,0.177528 -0.225197,0.366946 -0.423918,0.578323 -0.217387,0.231296 -0.482405,0.462159 -0.773041,0.70158 -0.07834,0.06446 -0.158289,0.12935 -0.239084,0.194688 -0.2475,0.200174 -0.518755,0.411369 -0.799411,0.641196 -0.38161,0.312498 -0.78388,0.662622 -1.157795,1.068708 -0.398713,0.431845 -0.753609,0.92401 -1.010855,1.464204 -0.27522,0.57792 -0.43678,1.207753 -0.420772,1.861637 0.02338,0.524019 0.166623,1.000045 0.373617,1.401666 0.240543,0.466695 0.569119,0.838164 0.923594,1.106898 0.342572,0.259715 0.698178,0.412675 1.011548,0.484062 0.109362,0.02496 0.217937,0.03882 0.323541,0.0436 0.731084,0.03297 1.201379,-0.34916 1.389529,-0.461705 -0.184855,-0.203788 -0.333394,-0.616681 -0.460149,-1.046062 -0.01705,-0.0578 -0.03407,-0.11505 -0.05098,-0.167258 -0.04986,-0.15361 -0.09471,-0.300494 -0.120532,-0.445995 -0.02613,-0.146562 -0.04172,-0.301374 -0.0343,-0.451766 0.0066,-0.132314 0.03082,-0.257036 0.07695,-0.365035 0.0409,-0.135226 0.121,-0.300931 0.257399,-0.485046 0.13211,-0.178334 0.313456,-0.368875 0.544148,-0.552456 0.231605,-0.18629 0.504017,-0.368457 0.841739,-0.572862 0.256492,-0.15522 0.505477,-0.296777 0.81291,-0.474859 0.09605,-0.05564 0.197092,-0.114972 0.30049,-0.177216 0.373841,-0.22516 0.838555,-0.524145 1.290418,-0.89184 0.41579,-0.338336 0.869989,-0.773851 1.25775,-1.32596 0.37227,-0.494083 0.721892,-1.138202 0.878628,-1.907228 0.14553,-0.716078 0.123805,-1.558237 -0.2222,-2.392331 -0.407754,-0.967014 -1.17048,-1.736918 -2.057631,-2.240462 -0.885597,-0.503161 -1.864637,-0.73536 -2.776139,-0.783285 -0.930014,-0.03492 -1.78671,0.116246 -2.528638,0.335751 -0.756188,0.223703 -1.434456,0.530661 -2.006319,0.831572 -0.565235,0.297089 -1.111434,0.631418 -1.523939,0.879142 -0.472877,0.283977 -0.833108,0.49342 -1.18667,0.664432 -0.356076,0.171392 -0.656277,0.275512 -0.900074,0.325429 -0.26466,0.05419 -0.42034,0.03638 -0.50391,0.0063 -0.03982,-0.01976 -0.08307,-0.04457 -0.126252,-0.0749 -0.11704,-0.08224 -0.218488,-0.205894 -0.26037,-0.339295 -0.0841,-0.230932 -0.09229,-0.510255 -0.04765,-0.759297 -0.02283,-0.247624 5.94e-4,-0.561548 0.07576,-0.916718 0.08088,-0.382178 0.218487,-0.798943 0.410858,-1.242646 0.02775,-0.06349 0.0567,-0.126854 0.08693,-0.190008 0.349093,-0.730637 0.894004,-1.415152 1.581626,-1.994358 0.771546,-0.649902 1.641679,-1.101616 2.499453,-1.386765 1.036926,-0.344706 2.058549,-0.449115 2.964867,-0.515766 0.411743,-0.03029 0.790107,-0.05265 1.129603,-0.09027 1.786831,-0.197938 2.995995,-1.586651 3.731286,-1.755006 z"
     id="path4" />
</svg>
