<?xml version="1.0" encoding="UTF-8" standalone="no"?>
<svg
   width="64"
   height="64"
   version="1.1"
   id="svg7"
   sodipodi:docname="application-x-wonderswan-color-rom.svg"
   inkscape:version="1.4 (e7c3feb100, 2024-10-09)"
   xmlns:inkscape="http://www.inkscape.org/namespaces/inkscape"
   xmlns:sodipodi="http://sodipodi.sourceforge.net/DTD/sodipodi-0.dtd"
   xmlns:xlink="http://www.w3.org/1999/xlink"
   xmlns="http://www.w3.org/2000/svg"
   xmlns:svg="http://www.w3.org/2000/svg">
  <defs
     id="defs7">
    <radialGradient
       inkscape:collect="always"
       xlink:href="#linearGradient2"
       id="radialGradient9"
       cx="20.238163"
       cy="45.446491"
       fx="20.238163"
       fy="45.446491"
       r="22"
       gradientTransform="matrix(2.2768343,-1.3145309,1.6730393,2.8977891,-103.5617,-78.365997)"
       gradientUnits="userSpaceOnUse" />
    <linearGradient
       id="linearGradient2"
       inkscape:collect="always">
      <stop
         style="stop-color:#00b1ff;stop-opacity:1;"
         offset="0"
         id="stop1" />
      <stop
         style="stop-color:#136dff;stop-opacity:1;"
         offset="1"
         id="stop2" />
    </linearGradient>
  </defs>
  <sodipodi:namedview
     id="namedview7"
     pagecolor="#ffffff"
     bordercolor="#000000"
     borderopacity="0.25"
     inkscape:showpageshadow="2"
     inkscape:pageopacity="0.0"
     inkscape:pagecheckerboard="0"
     inkscape:deskcolor="#d1d1d1"
     inkscape:zoom="17.828125"
     inkscape:cx="31.971954"
     inkscape:cy="32"
     inkscape:window-width="3440"
     inkscape:window-height="1361"
     inkscape:window-x="0"
     inkscape:window-y="0"
     inkscape:window-maximized="1"
     inkscape:current-layer="svg7" />
  <g
     id="g2"
     transform="translate(0.0397662,0.06140005)">
    <path
       style="fill:url(#radialGradient9)"
       d="m 12.710234,3.9385999 c -1.5235,0 -2.7500004,1.2487999 -2.7500004,2.7999999 V 57.1386 c 0,1.55008 1.2265004,2.8 2.7500004,2.8 h 38.5 c 1.5224,0 2.75,-1.24992 2.75,-2.8 v -35.2 l -18,-18.0000001 z"
       id="path2-6"
       sodipodi:nodetypes="ssssssccs" />
    <path
       style="opacity:0.533302;fill:#ffffff;fill-opacity:1"
       d="m 53.960234,21.9386 -18,-18.0000001 V 19.1261 c 0,1.55925 1.2555,2.8125 2.8125,2.8125 z"
       id="path4-5" />
  </g>
  <path
     style="fill:#ffffff"
     d="M 29.199219,27 C 24.896765,27 19,29.800391 19,35.400391 c 0,5.6 5.999609,9.799218 8.099609,11.199218 -7.7,0 -11.90039,-7 -11.90039,-7 0,0 7.001562,15.400391 19.601562,15.400391 C 40.400781,55 45,50.799219 45,45.199219 c 0,-4.2 -3.200391,-8.4 -7.400391,-10.5 8.4,0.7 11.201172,6.300781 11.201172,6.300781 0,0 -5.601562,-14 -19.601562,-14 z m 1.447265,6.994141 c 2.111336,0.06296 4.540267,0.920924 6.535157,2.617187 3.013645,2.562518 4.080845,6.230162 3.263671,8.691406 0.06542,-1.300075 -0.510962,-2.684122 -1.552734,-3.728515 -1.812619,-1.812601 -4.475207,-2.088916 -5.947266,-0.617188 -1.471728,1.472059 -1.195413,4.134647 0.617188,5.947266 0.403838,0.403643 0.864677,0.743313 1.359375,1.001953 -2.122518,-0.252158 -4.782029,-1.197356 -6.653954,-2.789062 -3.647797,-3.10174 -4.040699,-7.430666 -2.089843,-9.667969 0.731572,-0.838988 2.210558,-1.32178 3.585594,-1.433594 0.286466,-0.0233 0.581193,-0.03047 0.882812,-0.02148 z"
     id="path7" />
</svg>
