<?xml version="1.0" encoding="UTF-8" standalone="no"?>
<svg
   width="64"
   height="64"
   version="1.1"
   id="svg6"
   sodipodi:docname="application-visual-studio-code.svg"
   inkscape:version="1.3.2 (091e20ef0f, 2023-11-25, custom)"
   xmlns:inkscape="http://www.inkscape.org/namespaces/inkscape"
   xmlns:sodipodi="http://sodipodi.sourceforge.net/DTD/sodipodi-0.dtd"
   xmlns:xlink="http://www.w3.org/1999/xlink"
   xmlns="http://www.w3.org/2000/svg"
   xmlns:svg="http://www.w3.org/2000/svg">
  <defs
     id="defs6">
    <inkscape:path-effect
       effect="fillet_chamfer"
       id="path-effect11"
       is_visible="true"
       lpeversion="1"
       nodesatellites_param="F,0,0,1,0,1.3237414,0,1 @ F,0,0,1,0,1.3237414,0,1 @ F,0,0,1,0,1.3237414,0,1 @ F,0,0,1,0,1.3237414,0,1 | F,0,0,1,0,1.573385,0,1 @ F,0,0,1,0,1.082753,0,1 @ F,0,0,1,0,1.1049408,0,1 @ F,0,0,1,0,1.082753,0,1 @ F,0,0,1,0,1.573385,0,1 @ F,0,0,1,0,2.6590953,0,1 | F,0,1,1,0,1.1710764,0,1 @ F,0,0,1,0,2.9025897,0,1 @ F,0,0,1,0,1.1710764,0,1 @ F,0,0,1,0,1.1363991,0,1 @ F,0,0,1,0,1.1260028,0,1 @ F,0,0,1,0,1.1363991,0,1"
       radius="0"
       unit="px"
       method="auto"
       mode="F"
       chamfer_steps="1"
       flexible="false"
       use_knot_distance="true"
       apply_no_radius="true"
       apply_with_radius="true"
       only_selected="false"
       hide_knots="false" />
    <linearGradient
       id="linearGradient7"
       inkscape:collect="always">
      <stop
         style="stop-color:#00b1ff;stop-opacity:1;"
         offset="0"
         id="stop7" />
      <stop
         style="stop-color:#4368c6;stop-opacity:1;"
         offset="1"
         id="stop8" />
    </linearGradient>
    <radialGradient
       inkscape:collect="always"
       xlink:href="#linearGradient7"
       id="radialGradient8"
       cx="16.935129"
       cy="49.153992"
       fx="16.935129"
       fy="49.153992"
       r="22"
       gradientTransform="matrix(8.3672725,-2.2420039,2.8534596,10.649256,-265.02464,-431.65247)"
       gradientUnits="userSpaceOnUse" />
    <inkscape:path-effect
       effect="fillet_chamfer"
       id="path-effect11-3"
       is_visible="true"
       lpeversion="1"
       nodesatellites_param="F,0,0,1,0,1.3237414,0,1 @ F,0,0,1,0,1.3237414,0,1 @ F,0,0,1,0,1.3237414,0,1 @ F,0,0,1,0,1.3237414,0,1 | F,0,0,1,0,1.573385,0,1 @ F,0,0,1,0,1.082753,0,1 @ F,0,0,1,0,1.1049408,0,1 @ F,0,0,1,0,1.082753,0,1 @ F,0,0,1,0,1.573385,0,1 @ F,0,0,1,0,2.6590953,0,1 | F,0,1,1,0,1.1710764,0,1 @ F,0,0,1,0,2.9025897,0,1 @ F,0,0,1,0,1.1710764,0,1 @ F,0,0,1,0,1.1363991,0,1 @ F,0,0,1,0,1.1260028,0,1 @ F,0,0,1,0,1.1363991,0,1"
       radius="0"
       unit="px"
       method="auto"
       mode="F"
       chamfer_steps="1"
       flexible="false"
       use_knot_distance="true"
       apply_no_radius="true"
       apply_with_radius="true"
       only_selected="false"
       hide_knots="false" />
  </defs>
  <sodipodi:namedview
     id="namedview6"
     pagecolor="#ffffff"
     bordercolor="#000000"
     borderopacity="0.25"
     inkscape:showpageshadow="2"
     inkscape:pageopacity="0.0"
     inkscape:pagecheckerboard="0"
     inkscape:deskcolor="#d1d1d1"
     inkscape:zoom="11.313709"
     inkscape:cx="28.151687"
     inkscape:cy="35.797279"
     inkscape:window-width="1920"
     inkscape:window-height="1014"
     inkscape:window-x="0"
     inkscape:window-y="0"
     inkscape:window-maximized="1"
     inkscape:current-layer="svg6" />
  <path
     style="fill:url(#radialGradient8)"
     d="M 12.75,4 C 11.2265,4 10,5.2488 10,6.8 v 50.4 c 0,1.55008 1.2265,2.8 2.75,2.8 h 38.5 C 52.7724,60 54,58.75008 54,57.2 V 22 L 36,4 Z"
     id="path2"
     sodipodi:nodetypes="ssssssccs" />
  <path
     style="fill:#ffffff;opacity:0.3743819;fill-opacity:1"
     d="M 54,22 36,4 V 19.1875 C 36,20.74675 37.2555,22 38.8125,22 Z"
     id="path4" />
  <path
     style="fill:#ffffff;fill-opacity:1"
     d="m 33.126472,31.282306 -4.797866,18.722497 a 1.3535395,1.3535395 60.011102 0 0 0.946069,1.639372 1.2923531,1.2923531 149.90918 0 0 1.598853,-0.926481 l 4.797866,-18.722497 a 1.3535395,1.3535395 60.011102 0 0 -0.946069,-1.639372 1.2923531,1.2923531 149.90918 0 0 -1.598853,0.926481 z M 37,31.573385 v 1.416128 a 2.3901056,2.3901056 65.628774 0 0 0.813963,1.796769 l 4.542895,3.98507 a 0.96926461,0.96926461 90 0 1 0,1.457296 l -4.542895,3.98507 A 2.3901056,2.3901056 114.37123 0 0 37,46.010487 v 1.416128 a 0.72909568,0.72909568 24.862679 0 0 1.200421,0.556267 l 7.77081,-6.584216 a 2.2961404,2.2961404 90.536109 0 0 0.03252,-3.475619 L 38.181178,31.039403 A 0.71128911,0.71128911 155.67343 0 0 37,31.573385 Z m -10.879155,2.200247 -7.941801,6.988559 a 2.5063989,2.5063989 89.463891 0 0 0.0355,3.793882 l 7.891978,6.686882 A 0.54266867,0.54266867 155.13732 0 0 27,50.828924 v -1.764791 a 2.5085258,2.5085258 65.628774 0 0 -0.854291,-1.885792 l -4.486733,-3.935804 a 0.98774039,0.98774039 90 0 1 0,-1.485074 l 4.486733,-3.935804 A 2.5085258,2.5085258 114.37123 0 0 27,35.935867 v -1.764791 a 0.52941517,0.52941517 24.326569 0 0 -0.879155,-0.397444 z"
     id="path6"
     inkscape:path-effect="#path-effect11"
     inkscape:original-d="M 33.455078,30 28,51.287109 30.544922,52 36,30.712891 Z M 37,30 v 4.072266 L 43.1875,39.5 37,44.927734 V 49 L 48,39.679688 Z M 27,33 16,42.679688 27,52 V 47.927734 L 20.8125,42.5 27,37.072266 Z"
     sodipodi:nodetypes="ccccccccccccccccccc" />
</svg>
