<?xml version="1.0" encoding="UTF-8" standalone="no"?>
<svg
   width="64"
   height="64"
   version="1.1"
   id="svg7"
   sodipodi:docname="application-x-kmymoney.svg"
   inkscape:version="1.4 (e7c3feb100, 2024-10-09)"
   xmlns:inkscape="http://www.inkscape.org/namespaces/inkscape"
   xmlns:sodipodi="http://sodipodi.sourceforge.net/DTD/sodipodi-0.dtd"
   xmlns:xlink="http://www.w3.org/1999/xlink"
   xmlns="http://www.w3.org/2000/svg"
   xmlns:svg="http://www.w3.org/2000/svg">
  <defs
     id="defs7">
    <radialGradient
       inkscape:collect="always"
       xlink:href="#linearGradient9"
       id="radialGradient10"
       cx="13.687016"
       cy="51.762657"
       fx="13.687016"
       fy="51.762657"
       r="22"
       gradientTransform="matrix(2.2102385,-1.2760818,1.6241041,2.8130308,-100.6325,-71.991724)"
       gradientUnits="userSpaceOnUse" />
    <linearGradient
       id="linearGradient9"
       inkscape:collect="always">
      <stop
         style="stop-color:#ff9e22;stop-opacity:1;"
         offset="0"
         id="stop9" />
      <stop
         style="stop-color:#ff6122;stop-opacity:1;"
         offset="1"
         id="stop10" />
    </linearGradient>
  </defs>
  <sodipodi:namedview
     id="namedview7"
     pagecolor="#ffffff"
     bordercolor="#000000"
     borderopacity="0.25"
     inkscape:showpageshadow="2"
     inkscape:pageopacity="0.0"
     inkscape:pagecheckerboard="0"
     inkscape:deskcolor="#d1d1d1"
     inkscape:zoom="17.828125"
     inkscape:cx="32"
     inkscape:cy="32"
     inkscape:window-width="3440"
     inkscape:window-height="1361"
     inkscape:window-x="0"
     inkscape:window-y="0"
     inkscape:window-maximized="1"
     inkscape:current-layer="svg7" />
  <g
     id="g1">
    <g
       id="g2"
       transform="translate(1e-6,0.9999998)">
      <path
         style="fill:url(#radialGradient10)"
         d="m 12.749999,3.0000004 c -1.5235,0 -2.75,1.2488002 -2.75,2.8000002 V 56.2 c 0,1.550081 1.2265,2.8 2.75,2.8 h 38.5 c 1.5224,0 2.75,-1.24992 2.75,-2.8 V 21 l -18,-17.9999996 z"
         id="path2"
         sodipodi:nodetypes="ssssssccs" />
      <path
         style="opacity:0.523832;fill:#ffffff;fill-opacity:1"
         d="m 53.999999,21 -18,-17.9999996 V 18.187501 c 0,1.55925 1.2555,2.812499 2.8125,2.812499 z"
         id="path4" />
    </g>
  </g>
  <path
     style="fill:#ffffff"
     d="m 28,27.999931 c -1.108,0 -2,0.892 -2,2 v 20 c 0,1.108 0.892,2 2,2 1.108,0 2,-0.892 2,-2 v -5.632812 l 0.203125,-0.353516 4.033203,6.984375 c 0.554,0.959556 1.770913,1.286422 2.730469,0.732422 0.959556,-0.554 1.286422,-1.772866 0.732422,-2.732422 l -5.1875,-8.982422 5.1875,-8.984375 c 0.554,-0.959556 0.227134,-2.178422 -0.732422,-2.732422 -0.959556,-0.554 -2.176469,-0.227134 -2.730469,0.732422 L 30.203125,36.015556 30,35.663993 v -5.664062 c 0,-1.108 -0.892,-2 -2,-2 z"
     id="path7" />
</svg>
