<?xml version="1.0" encoding="UTF-8" standalone="no"?>
<svg
   width="64"
   height="64"
   version="1.1"
   id="svg6"
   sodipodi:docname="text-x-makefile.svg"
   inkscape:version="1.3.2 (091e20ef0f, 2023-11-25, custom)"
   xmlns:inkscape="http://www.inkscape.org/namespaces/inkscape"
   xmlns:sodipodi="http://sodipodi.sourceforge.net/DTD/sodipodi-0.dtd"
   xmlns:xlink="http://www.w3.org/1999/xlink"
   xmlns="http://www.w3.org/2000/svg"
   xmlns:svg="http://www.w3.org/2000/svg">
  <defs
     id="defs6">
    <linearGradient
       id="linearGradient6"
       inkscape:collect="always">
      <stop
         style="stop-color:#6d638d;stop-opacity:1;"
         offset="0"
         id="stop6" />
      <stop
         style="stop-color:#63748d;stop-opacity:1;"
         offset="1"
         id="stop7" />
    </linearGradient>
    <inkscape:path-effect
       effect="fillet_chamfer"
       id="path-effect6"
       is_visible="true"
       lpeversion="1"
       nodesatellites_param="F,0,1,1,0,2.7688708,0,1 @ F,0,0,1,0,0,0,1 @ F,0,0,1,0,0,0,1 @ F,0,1,1,0,2.7688708,0,1 @ F,0,1,1,0,2.7688708,0,1 @ F,0,0,1,0,0,0,1 @ F,0,0,1,0,0,0,1 @ F,0,1,1,0,2.7688708,0,1 @ F,0,1,1,0,2.7688708,0,1 @ F,0,0,1,0,0,0,1 @ F,0,0,1,0,0,0,1 @ F,0,1,1,0,2.7688708,0,1 @ F,0,1,1,0,2.7688708,0,1 @ F,0,0,1,0,0,0,1 @ F,0,0,1,0,0,0,1 @ F,0,1,1,0,2.7688708,0,1 @ F,0,1,1,0,2.7688708,0,1 @ F,0,0,1,0,0,0,1 @ F,0,0,1,0,0,0,1 @ F,0,1,1,0,2.7688708,0,1 @ F,0,1,1,0,2.7688708,0,1 @ F,0,0,1,0,0,0,1 @ F,0,0,1,0,0,0,1 @ F,0,0,1,0,2.7688708,0,1 | F,0,0,1,0,0,0,1 @ F,0,0,1,0,0,0,1 @ F,0,0,1,0,0,0,1 @ F,0,0,1,0,0,0,1"
       radius="0"
       unit="px"
       method="auto"
       mode="F"
       chamfer_steps="1"
       flexible="false"
       use_knot_distance="true"
       apply_no_radius="true"
       apply_with_radius="true"
       only_selected="false"
       hide_knots="false" />
    <radialGradient
       inkscape:collect="always"
       xlink:href="#linearGradient8"
       id="radialGradient9"
       cx="21.477476"
       cy="23.351734"
       fx="21.477476"
       fy="23.351734"
       r="22"
       gradientTransform="matrix(5.2437612,-5.1735227e-8,0,4.286547,-97.16866,-39.97246)"
       gradientUnits="userSpaceOnUse" />
    <linearGradient
       id="linearGradient8"
       inkscape:collect="always">
      <stop
         style="stop-color:#ededed;stop-opacity:1;"
         offset="0"
         id="stop8" />
      <stop
         style="stop-color:#b7b7b7;stop-opacity:1;"
         offset="1"
         id="stop9" />
    </linearGradient>
    <radialGradient
       inkscape:collect="always"
       xlink:href="#linearGradient6"
       id="radialGradient7"
       cx="28.328154"
       cy="45.370235"
       fx="28.328154"
       fy="45.370235"
       r="12.011711"
       gradientTransform="matrix(2.1768619,-0.58328841,0.63127959,2.3559675,-63.541979,-36.929473)"
       gradientUnits="userSpaceOnUse" />
  </defs>
  <sodipodi:namedview
     id="namedview6"
     pagecolor="#ffffff"
     bordercolor="#000000"
     borderopacity="0.25"
     inkscape:showpageshadow="2"
     inkscape:pageopacity="0.0"
     inkscape:pagecheckerboard="0"
     inkscape:deskcolor="#d1d1d1"
     inkscape:zoom="9.2586794"
     inkscape:cx="28.891809"
     inkscape:cy="33.590104"
     inkscape:window-width="1920"
     inkscape:window-height="1014"
     inkscape:window-x="0"
     inkscape:window-y="0"
     inkscape:window-maximized="1"
     inkscape:current-layer="svg6" />
  <g
     id="g6"
     transform="translate(4,-15)">
    <path
       style="fill:url(#radialGradient9);fill-opacity:1"
       d="M 8.75,19 C 7.2265,19 6,20.2488 6,21.8 V 72.2 C 6,73.7512 7.2265,75 8.75,75 h 38.5 C 48.7735,75 50,73.7512 50,72.2 V 35 L 34,19 Z"
       id="path2"
       sodipodi:nodetypes="ssssssccs" />
    <path
       style="opacity:0.593376;fill:#ffffff;fill-opacity:1"
       d="M 34,19 V 32.333333 C 34,33.806133 35.193906,35 36.666666,35 H 50 Z"
       id="path4" />
  </g>
  <path
     style="fill:url(#radialGradient7)"
     d="m 28.489976,30.758912 -0.05638,0.662963 c -1.094545,0.401786 -2.112278,0.984951 -3.009766,1.724609 l -0.631282,-0.294441 a 3.0341054,3.0341054 162.62215 0 0 -3.903774,1.221712 l -0.492388,0.844678 a 2.985453,2.985453 77.394621 0 0 0.886095,3.962415 l 0.57299,0.394543 c -0.208086,1.162827 -0.207774,2.305705 -0.0078,3.453125 l -0.564996,0.3879 a 2.982584,2.982584 102.65633 0 0 -0.889222,3.959863 l 0.492395,0.845489 a 3.0330659,3.0330659 17.391555 0 0 3.902875,1.222455 l 0.623388,-0.290707 c 0.901162,0.737141 1.922227,1.317021 3.019532,1.714843 l 0.05626,0.67241 A 3.010203,3.010203 42.608737 0 0 31.487621,54 h 1.022805 a 3.0123431,3.0123431 137.41155 0 0 3.001677,-2.759066 l 0.05626,-0.666715 c 1.095369,-0.402184 2.113784,-0.986023 3.011719,-1.726563 l 0.630206,0.294515 a 3.0313635,3.0313635 162.6393 0 0 3.902536,-1.220042 l 0.49311,-0.846211 a 2.983124,2.983124 77.363678 0 0 -0.887914,-3.960505 l -0.571532,-0.392757 c 0.210601,-1.169295 0.209358,-2.307835 0.0098,-3.453125 l 0.561328,-0.385532 a 2.9826766,2.9826766 102.6468 0 0 0.888576,-3.960068 L 43.114515,34.079975 A 3.0335247,3.0335247 17.387226 0 0 39.21128,32.85773 l -0.623389,0.290708 C 37.686873,32.410604 36.6658,31.830058 35.568359,31.431641 l -0.05626,-0.67241 A 3.010203,3.010203 42.608737 0 0 32.512379,28 H 31.49348 a 3.014346,3.014346 137.43052 0 0 -3.003504,2.758912 z M 32,36 c 2.761424,0 5,2.238576 5,5 0,2.761424 -2.238576,5 -5,5 -2.761424,0 -5,-2.238576 -5,-5 0,-2.761424 2.238576,-5 5,-5 z"
     id="path6"
     sodipodi:nodetypes="cccccccccccccccccccccccccsssss"
     inkscape:path-effect="#path-effect6"
     inkscape:original-d="m 28.724609,28 -0.291015,3.421875 c -1.094545,0.401786 -2.112278,0.984951 -3.009766,1.724609 l -3.140625,-1.464843 -3.28125,5.628906 2.853516,1.964844 c -0.208086,1.162827 -0.207774,2.305705 -0.0078,3.453125 L 19,44.683594 l 3.279297,5.630859 3.132812,-1.460937 c 0.901162,0.737141 1.922227,1.317021 3.019532,1.714843 L 28.71875,54 h 6.560547 l 0.289062,-3.425781 c 1.095369,-0.402184 2.113784,-0.986023 3.011719,-1.726563 L 41.71875,50.314453 45,44.683594 42.146484,42.722656 c 0.210601,-1.169295 0.209358,-2.307835 0.0098,-3.453125 L 45,37.316406 41.720703,31.6875 38.587891,33.148438 C 37.686873,32.410604 36.6658,31.830058 35.568359,31.431641 L 35.28125,28 Z M 32,36 c 2.761424,0 5,2.238576 5,5 0,2.761424 -2.238576,5 -5,5 -2.761424,0 -5,-2.238576 -5,-5 0,-2.761424 2.238576,-5 5,-5 z" />
</svg>
