<?xml version="1.0" encoding="UTF-8" standalone="no"?>
<svg
   width="64"
   height="64"
   version="1.1"
   id="svg6"
   sodipodi:docname="text-x-r-source.svg"
   inkscape:version="1.3.2 (091e20ef0f, 2023-11-25, custom)"
   xmlns:inkscape="http://www.inkscape.org/namespaces/inkscape"
   xmlns:sodipodi="http://sodipodi.sourceforge.net/DTD/sodipodi-0.dtd"
   xmlns:xlink="http://www.w3.org/1999/xlink"
   xmlns="http://www.w3.org/2000/svg"
   xmlns:svg="http://www.w3.org/2000/svg">
  <defs
     id="defs6">
    <linearGradient
       id="linearGradient6"
       inkscape:collect="always">
      <stop
         style="stop-color:#1e85b2;stop-opacity:1;"
         offset="0"
         id="stop6" />
      <stop
         style="stop-color:#1e4ab2;stop-opacity:1;"
         offset="1"
         id="stop7" />
    </linearGradient>
    <radialGradient
       inkscape:collect="always"
       xlink:href="#linearGradient8"
       id="radialGradient9"
       cx="21.477476"
       cy="23.351734"
       fx="21.477476"
       fy="23.351734"
       r="22"
       gradientTransform="matrix(5.2437612,-5.1735227e-8,0,4.286547,-90.168663,-52.97246)"
       gradientUnits="userSpaceOnUse" />
    <linearGradient
       id="linearGradient8"
       inkscape:collect="always">
      <stop
         style="stop-color:#ededed;stop-opacity:1;"
         offset="0"
         id="stop8" />
      <stop
         style="stop-color:#b7b7b7;stop-opacity:1;"
         offset="1"
         id="stop9" />
    </linearGradient>
    <radialGradient
       inkscape:collect="always"
       xlink:href="#linearGradient6"
       id="radialGradient7"
       cx="19.937923"
       cy="53.086037"
       fx="19.937923"
       fy="53.086037"
       r="12.999986"
       gradientTransform="matrix(7.4501394,-4.30134,4.6321939,8.0231952,-374.5072,-286.06725)"
       gradientUnits="userSpaceOnUse" />
  </defs>
  <sodipodi:namedview
     id="namedview6"
     pagecolor="#ffffff"
     bordercolor="#000000"
     borderopacity="0.25"
     inkscape:showpageshadow="2"
     inkscape:pageopacity="0.0"
     inkscape:pagecheckerboard="0"
     inkscape:deskcolor="#d1d1d1"
     inkscape:zoom="9.2586794"
     inkscape:cx="33.5361"
     inkscape:cy="26.893684"
     inkscape:window-width="1920"
     inkscape:window-height="1014"
     inkscape:window-x="0"
     inkscape:window-y="0"
     inkscape:window-maximized="1"
     inkscape:current-layer="svg6" />
  <g
     id="g6"
     transform="translate(-3,-2)">
    <path
       style="fill:url(#radialGradient9);fill-opacity:1"
       d="M 15.75,6 C 14.2265,6 13,7.2488 13,8.8 v 50.4 c 0,1.5512 1.2265,2.8 2.75,2.8 h 38.5 C 55.7735,62 57,60.7512 57,59.2 V 22 L 41,6 Z"
       id="path2"
       sodipodi:nodetypes="ssssssccs" />
    <path
       style="opacity:0.593376;fill:#ffffff;fill-opacity:1"
       d="M 41,6 V 19.333333 C 41,20.806133 42.193906,22 43.666666,22 H 57 Z"
       id="path4" />
  </g>
  <path
     style="fill:url(#radialGradient7);fill-rule:evenodd"
     d="m 37.789326,42.80042 c 0,0 0.756821,-0.0224 1.511563,0.37184 0.261916,0.1358 0.715057,0.41048 1.041932,0.7693 0.320184,0.35154 0.476294,0.70784 0.476294,0.70784 L 45.999973,54 h -9.578976 c -1.603794,-3.1402 -2.966746,-6.7323 -5.011173,-9.5281 -0.406422,-0.3402 -0.744815,-0.489555 -1.14674,-0.4718 H 27.9994 l 0.0012,9.99444 H 20 v -27.9944 h 14.814571 c 1.605984,0 8.948007,1.4 9.185429,8.4 -0.237517,7 -6.211157,8.4 -6.211157,8.4 z M 28.000399,30.99818 V 39 h 5.683652 C 33.684051,39 35,38.60042 35,34.82714 35,31.60042 33.684051,31.00182 33.684051,31.00182 Z"
     id="path6" />
</svg>
