<?xml version="1.0" encoding="UTF-8" standalone="no"?>
<svg
   width="64"
   height="64"
   version="1.1"
   id="svg8"
   sodipodi:docname="text-x-markdown.svg"
   inkscape:version="1.3.2 (091e20ef0f, 2023-11-25, custom)"
   xmlns:inkscape="http://www.inkscape.org/namespaces/inkscape"
   xmlns:sodipodi="http://sodipodi.sourceforge.net/DTD/sodipodi-0.dtd"
   xmlns:xlink="http://www.w3.org/1999/xlink"
   xmlns="http://www.w3.org/2000/svg"
   xmlns:svg="http://www.w3.org/2000/svg">
  <defs
     id="defs8">
    <inkscape:path-effect
       effect="fillet_chamfer"
       id="path-effect2"
       is_visible="true"
       lpeversion="1"
       nodesatellites_param="F,0,0,1,0,0,0,1 @ F,0,0,1,0,0,0,1 @ F,0,0,1,0,0,0,1 @ F,0,0,1,0,0,0,1 @ F,0,0,1,0,0,0,1 @ F,0,0,1,0,0,0,1 @ F,0,0,1,0,0,0,1 @ F,0,0,1,0,0,0,1 | F,0,0,1,0,0.684258,0,1 @ F,0,0,1,0,0.684258,0,1 @ F,0,0,1,0,0.684258,0,1 @ F,0,0,1,0,0.684258,0,1 | F,0,0,1,0,1.6587341,0,1 @ F,0,0,1,0,1.4515774,0,1 @ F,0,0,1,0,1.4515774,0,1 @ F,0,0,1,0,0,0,1 @ F,0,0,1,0,1.8872102,0,1 @ F,0,0,1,0,0,0,1 @ F,0,0,1,0,1.4515774,0,1 @ F,0,0,1,0,1.4515774,0,1 @ F,0,0,1,0,1.6587341,0,1 @ F,0,0,1,0,1.3103746,0,1 @ F,0,0,1,0,0,0,1 @ F,0,0,1,0,1.3103746,0,1 | F,0,0,1,0,1.5347183,0,1 @ F,0,0,1,0,0,0,1 @ F,0,0,1,0,0,0,1 @ F,0,0,1,0,0.49582443,0,1 @ F,0,0,1,0,0.49582443,0,1 @ F,0,0,1,0,0,0,1 @ F,0,0,1,0,0,0,1 @ F,0,0,1,0,1.5347183,0,1"
       radius="0"
       unit="px"
       method="auto"
       mode="F"
       chamfer_steps="1"
       flexible="false"
       use_knot_distance="true"
       apply_no_radius="true"
       apply_with_radius="true"
       only_selected="false"
       hide_knots="false" />
    <linearGradient
       id="linearGradient1"
       inkscape:collect="always">
      <stop
         style="stop-color:#d74c4c;stop-opacity:1;"
         offset="0"
         id="stop1" />
      <stop
         style="stop-color:#d7684c;stop-opacity:1;"
         offset="1"
         id="stop2" />
    </linearGradient>
    <radialGradient
       inkscape:collect="always"
       xlink:href="#linearGradient8"
       id="radialGradient9"
       cx="21.477476"
       cy="23.351734"
       fx="21.477476"
       fy="23.351734"
       r="22"
       gradientTransform="matrix(5.2437612,-5.1735227e-8,0,4.286547,-93.16866,-54.97246)"
       gradientUnits="userSpaceOnUse" />
    <linearGradient
       id="linearGradient8"
       inkscape:collect="always">
      <stop
         style="stop-color:#ededed;stop-opacity:1;"
         offset="0"
         id="stop8" />
      <stop
         style="stop-color:#b7b7b7;stop-opacity:1;"
         offset="1"
         id="stop9" />
    </linearGradient>
    <radialGradient
       inkscape:collect="always"
       xlink:href="#linearGradient1"
       id="radialGradient2"
       cx="21.773884"
       cy="47.504967"
       fx="21.773884"
       fy="47.504967"
       r="15"
       gradientTransform="matrix(2.9749084,-1.717564,1.4657941,2.5388298,-115.08628,-15.600576)"
       gradientUnits="userSpaceOnUse" />
  </defs>
  <sodipodi:namedview
     id="namedview8"
     pagecolor="#ffffff"
     bordercolor="#000000"
     borderopacity="0.25"
     inkscape:showpageshadow="2"
     inkscape:pageopacity="0.0"
     inkscape:pagecheckerboard="0"
     inkscape:deskcolor="#d1d1d1"
     inkscape:zoom="8"
     inkscape:cx="44.8125"
     inkscape:cy="34.125"
     inkscape:window-width="1920"
     inkscape:window-height="1014"
     inkscape:window-x="0"
     inkscape:window-y="0"
     inkscape:window-maximized="1"
     inkscape:current-layer="svg8" />
  <path
     style="fill:url(#radialGradient9);fill-opacity:1"
     d="M 12.75,4 C 11.2265,4 10,5.2488 10,6.8 v 50.4 c 0,1.5512 1.2265,2.8 2.75,2.8 h 38.5 C 52.7735,60 54,58.7512 54,57.2 V 20 L 38,4 Z"
     id="path2"
     sodipodi:nodetypes="ssssssccs" />
  <path
     style="opacity:0.593376;fill:#ffffff;fill-opacity:1"
     d="M 38,4 V 17.333333 C 38,18.806133 39.193906,20 40.666666,20 H 54 Z"
     id="path4" />
  <path
     id="path6"
     style="fill:url(#radialGradient2)"
     d="M 19.044922,32 C 17.935356,32 17,32.94946 17,34.076172 V 47.923828 C 17,49.050541 17.935356,50 19.044922,50 H 44.955078 C 46.064644,50 47,49.050541 47,47.923828 V 34.076172 C 47,32.94946 46.064644,32 44.955078,32 Z m 1.639336,3 22.631484,0 A 0.684258,0.684258 45 0 1 44,35.684258 V 46.315742 A 0.684258,0.684258 135 0 1 43.315742,47 L 20.684258,47 A 0.684258,0.684258 45 0 1 20,46.315742 L 20,35.684258 A 0.684258,0.684258 135 0 1 20.684258,35 Z M 22,37.658734 v 6.889689 A 1.4515774,1.4515774 45 0 0 23.451577,46 h 0.09685 A 1.4515774,1.4515774 135 0 0 25,44.548423 v -4.247642 l 1.257332,1.437091 a 1.6511476,1.6511476 0 0 0 2.485336,0 L 30,40.300781 v 4.247642 A 1.4515774,1.4515774 45 0 0 31.451577,46 h 0.09685 A 1.4515774,1.4515774 135 0 0 33,44.548423 V 37.658734 A 1.6587341,1.6587341 45 0 0 31.341266,36 h -0.03089 A 2.8875761,2.8875761 155.59158 0 0 29.13716,36.986199 L 27.5,38.857422 25.86284,36.986199 A 2.8875761,2.8875761 24.408424 0 0 23.689625,36 h -0.03089 A 1.6587341,1.6587341 135 0 0 22,37.658734 Z M 37,37.534718 V 42 h -2.5 l 3.173497,3.626854 A 1.0926821,1.0926821 24.407037 0 0 38.495824,46 h 0.0084 a 1.0926821,1.0926821 155.59296 0 0 0.822327,-0.373146 L 42.5,42 H 40 V 37.534718 A 1.5347183,1.5347183 45 0 0 38.465282,36 1.5004017,1.5004017 133.6741 0 0 37,37.534718 Z"
     inkscape:path-effect="#path-effect2"
     inkscape:original-d="M 19.044922 32 C 17.935356 32 17 32.94946 17 34.076172 L 17 47.923828 C 17 49.050541 17.935356 50 19.044922 50 L 44.955078 50 C 46.064644 50 47 49.050541 47 47.923828 L 47 34.076172 C 47 32.94946 46.064644 32 44.955078 32 L 19.044922 32 z M 20 35 L 44 35 L 44 47 L 20 47 L 20 35 z M 22 36 L 22 46 L 25 46 L 25 40.300781 L 27.5 43.158203 L 30 40.300781 L 30 46 L 33 46 L 33 36 L 30 36 L 27.5 38.857422 L 25 36 L 22 36 z M 37 36 L 37 42 L 34.5 42 L 38 46 L 39 46 L 42.5 42 L 40 42 L 40 36 L 37 36 z " />
</svg>
