<?xml version="1.0" encoding="UTF-8" standalone="no"?>
<svg
   width="64"
   height="64"
   version="1.1"
   id="svg6"
   sodipodi:docname="text-x-pkgbuild.svg"
   inkscape:version="1.3.2 (091e20ef0f, 2023-11-25, custom)"
   xmlns:inkscape="http://www.inkscape.org/namespaces/inkscape"
   xmlns:sodipodi="http://sodipodi.sourceforge.net/DTD/sodipodi-0.dtd"
   xmlns:xlink="http://www.w3.org/1999/xlink"
   xmlns="http://www.w3.org/2000/svg"
   xmlns:svg="http://www.w3.org/2000/svg">
  <defs
     id="defs6">
    <linearGradient
       id="linearGradient6"
       inkscape:collect="always">
      <stop
         style="stop-color:#1793d1;stop-opacity:1;"
         offset="0"
         id="stop6" />
      <stop
         style="stop-color:#175ed1;stop-opacity:1;"
         offset="1"
         id="stop7" />
    </linearGradient>
    <radialGradient
       inkscape:collect="always"
       xlink:href="#linearGradient8"
       id="radialGradient9"
       cx="21.477476"
       cy="23.351734"
       fx="21.477476"
       fy="23.351734"
       r="22"
       gradientTransform="matrix(5.2437612,-5.1735227e-8,0,4.286547,-90.168663,-52.97246)"
       gradientUnits="userSpaceOnUse" />
    <linearGradient
       id="linearGradient8"
       inkscape:collect="always">
      <stop
         style="stop-color:#ededed;stop-opacity:1;"
         offset="0"
         id="stop8" />
      <stop
         style="stop-color:#b7b7b7;stop-opacity:1;"
         offset="1"
         id="stop9" />
    </linearGradient>
    <radialGradient
       inkscape:collect="always"
       xlink:href="#linearGradient6"
       id="radialGradient7"
       cx="31.185621"
       cy="43.535225"
       fx="31.185621"
       fy="43.535225"
       r="14.000004"
       gradientTransform="matrix(2.0722803,-0.55526584,0.5552639,2.0722731,-56.523502,-25.122367)"
       gradientUnits="userSpaceOnUse" />
  </defs>
  <sodipodi:namedview
     id="namedview6"
     pagecolor="#ffffff"
     bordercolor="#000000"
     borderopacity="0.25"
     inkscape:showpageshadow="2"
     inkscape:pageopacity="0.0"
     inkscape:pagecheckerboard="0"
     inkscape:deskcolor="#d1d1d1"
     inkscape:zoom="13.09375"
     inkscape:cx="31.961814"
     inkscape:cy="32"
     inkscape:window-width="1920"
     inkscape:window-height="1014"
     inkscape:window-x="0"
     inkscape:window-y="0"
     inkscape:window-maximized="1"
     inkscape:current-layer="svg6" />
  <g
     id="g6"
     transform="translate(-3,-2)">
    <path
       style="fill:url(#radialGradient9);fill-opacity:1"
       d="M 15.75,6 C 14.2265,6 13,7.2488 13,8.8 v 50.4 c 0,1.5512 1.2265,2.8 2.75,2.8 h 38.5 C 55.7735,62 57,60.7512 57,59.2 V 22 L 41,6 Z"
       id="path2"
       sodipodi:nodetypes="ssssssccs" />
    <path
       style="opacity:0.593376;fill:#ffffff;fill-opacity:1"
       d="M 41,6 V 19.333333 C 41,20.806133 42.193906,22 43.666666,22 H 57 Z"
       id="path4" />
  </g>
  <path
     style="fill:url(#radialGradient7)"
     d="m 32.00087,26 c -1.24733,3.05576 -1.999703,5.057232 -3.387829,8.022122 0.851938,0.901957 1.895871,1.947145 3.591207,3.13341 -1.82334,-0.750357 -3.06497,-1.498294 -3.995128,-2.280092 -1.776397,3.705857 -4.562604,8.97956 -10.209124,19.124466 4.43759,-2.561402 8.119747,-4.138636 11.325531,-4.741644 -0.13797,-0.591648 -0.214769,-1.234486 -0.209076,-1.902924 l 0.0041,-0.137955 c 0.0697,-2.843001 1.309971,-5.365352 3.062193,-5.217442 1.752229,0.147909 2.77447,2.91204 2.703358,5.755029 -0.01288,0.534759 -0.0725,1.048178 -0.177782,1.524617 3.17022,0.621507 6.916816,2.194471 11.291684,4.720314 -0.863306,-1.588605 -1.637023,-3.017932 -2.372337,-4.381826 -1.159136,-0.898837 -2.365213,-2.067892 -4.83141,-3.333669 1.693912,0.44089 2.91136,0.947197 3.85717,1.516086 C 35.172241,33.871655 34.56493,32.021071 32.000599,26.00085 Z"
     id="path6" />
</svg>
