<?xml version="1.0" encoding="UTF-8" standalone="no"?>
<svg
   width="64"
   height="64"
   version="1.1"
   id="svg7"
   sodipodi:docname="application-vnd.google-apps.spreadsheet.svg"
   inkscape:version="1.4 (e7c3feb100, 2024-10-09)"
   xmlns:inkscape="http://www.inkscape.org/namespaces/inkscape"
   xmlns:sodipodi="http://sodipodi.sourceforge.net/DTD/sodipodi-0.dtd"
   xmlns:xlink="http://www.w3.org/1999/xlink"
   xmlns="http://www.w3.org/2000/svg"
   xmlns:svg="http://www.w3.org/2000/svg">
  <defs
     id="defs7">
    <inkscape:path-effect
       effect="fillet_chamfer"
       id="path-effect1"
       is_visible="true"
       lpeversion="1"
       nodesatellites_param="F,0,1,1,0,2.8871467,0,1 @ F,0,1,1,0,2.8871467,0,1 @ F,0,0,1,0,2.8871467,0,1 @ F,0,1,1,0,2.8871467,0,1 | F,0,0,1,0,0.91630177,0,1 @ F,0,0,1,0,0.91630177,0,1 @ F,0,0,1,0,0.91630177,0,1 @ F,0,0,1,0,0.91630177,0,1 | F,0,0,1,0,0.91630177,0,1 @ F,0,0,1,0,0.91630177,0,1 @ F,0,0,1,0,0.91630177,0,1 @ F,0,0,1,0,0.91630177,0,1 | F,0,0,1,0,0.91630177,0,1 @ F,0,0,1,0,0.91630177,0,1 @ F,0,0,1,0,0.91630177,0,1 @ F,0,0,1,0,0.91630177,0,1 | F,0,0,1,0,0.91630177,0,1 @ F,0,0,1,0,0.91630177,0,1 @ F,0,0,1,0,0.91630177,0,1 @ F,0,0,1,0,0.91630177,0,1 | F,0,0,1,0,0.91630177,0,1 @ F,0,0,1,0,0.91630177,0,1 @ F,0,0,1,0,0.91630177,0,1 @ F,0,0,1,0,0.91630177,0,1 | F,0,0,1,0,0.91630177,0,1 @ F,0,0,1,0,0.91630177,0,1 @ F,0,0,1,0,0.91630177,0,1 @ F,0,0,1,0,0.91630177,0,1"
       radius="0"
       unit="px"
       method="auto"
       mode="F"
       chamfer_steps="1"
       flexible="false"
       use_knot_distance="true"
       apply_no_radius="true"
       apply_with_radius="true"
       only_selected="false"
       hide_knots="false" />
    <linearGradient
       id="linearGradient9"
       inkscape:collect="always">
      <stop
         style="stop-color:#28a268;stop-opacity:1;"
         offset="0"
         id="stop9" />
      <stop
         style="stop-color:#1fc327;stop-opacity:1;"
         offset="1"
         id="stop10" />
    </linearGradient>
    <radialGradient
       inkscape:collect="always"
       xlink:href="#linearGradient9"
       id="radialGradient10"
       cx="11.199748"
       cy="52.255859"
       fx="11.199748"
       fy="52.255859"
       r="22"
       gradientTransform="matrix(2.3937499,-0.64140334,0.81633154,3.0465908,-58.267754,-94.238478)"
       gradientUnits="userSpaceOnUse" />
  </defs>
  <sodipodi:namedview
     id="namedview7"
     pagecolor="#ffffff"
     bordercolor="#000000"
     borderopacity="0.25"
     inkscape:showpageshadow="2"
     inkscape:pageopacity="0.0"
     inkscape:pagecheckerboard="0"
     inkscape:deskcolor="#d1d1d1"
     inkscape:zoom="6.9453125"
     inkscape:cx="31.532058"
     inkscape:cy="33.475816"
     inkscape:window-width="3440"
     inkscape:window-height="1361"
     inkscape:window-x="0"
     inkscape:window-y="0"
     inkscape:window-maximized="1"
     inkscape:current-layer="svg7" />
  <g
     id="g1">
    <path
       style="fill:url(#radialGradient10);fill-opacity:1"
       d="M 12.75,4 C 11.2265,4 10,5.2488 10,6.8 v 50.4 c 0,1.55008 1.2265,2.8 2.75,2.8 h 38.5 C 52.7724,60 54,58.75008 54,57.2 V 22 L 36,4 Z"
       id="path2"
       sodipodi:nodetypes="ssssssccs" />
    <path
       style="fill:#ffffff;fill-opacity:1;opacity:0.53755503"
       d="M 54,22 36,4 V 19.1875 C 36,20.74675 37.2555,22 38.8125,22 Z"
       id="path4" />
  </g>
  <path
     style="fill:#ffffff"
     d="M 21,34.887147 V 46.112853 A 2.8871467,2.8871467 45 0 0 23.887147,49 H 40.112853 A 2.8871467,2.8871467 135 0 0 43,46.112853 V 34.887147 A 2.8871467,2.8871467 45 0 0 40.112853,32 H 23.887147 A 2.8871467,2.8871467 135 0 0 21,34.887147 Z M 23.916302,34 h 6.167396 A 0.91630177,0.91630177 45 0 1 31,34.916302 l 0,1.167396 A 0.91630177,0.91630177 135 0 1 30.083698,37 H 23.916302 A 0.91630177,0.91630177 45 0 1 23,36.083698 V 34.916302 A 0.91630177,0.91630177 135 0 1 23.916302,34 Z m 10,0 h 6.167396 A 0.91630177,0.91630177 45 0 1 41,34.916302 v 1.167396 A 0.91630177,0.91630177 135 0 1 40.083698,37 H 33.916302 A 0.91630177,0.91630177 45 0 1 33,36.083698 V 34.916302 A 0.91630177,0.91630177 135 0 1 33.916302,34 Z m -10,5 h 6.167396 A 0.91630177,0.91630177 45 0 1 31,39.916302 l 0,1.167396 A 0.91630177,0.91630177 135 0 1 30.083698,42 H 23.916302 A 0.91630177,0.91630177 45 0 1 23,41.083698 V 39.916302 A 0.91630177,0.91630177 135 0 1 23.916302,39 Z m 10,0 h 6.167396 A 0.91630177,0.91630177 45 0 1 41,39.916302 v 1.167396 A 0.91630177,0.91630177 135 0 1 40.083698,42 H 33.916302 A 0.91630177,0.91630177 45 0 1 33,41.083698 V 39.916302 A 0.91630177,0.91630177 135 0 1 33.916302,39 Z m -10,5 h 6.167396 A 0.91630177,0.91630177 45 0 1 31,44.916302 l 0,1.167396 A 0.91630177,0.91630177 135 0 1 30.083698,47 H 23.916302 A 0.91630177,0.91630177 45 0 1 23,46.083698 V 44.916302 A 0.91630177,0.91630177 135 0 1 23.916302,44 Z m 10,0 h 6.167396 A 0.91630177,0.91630177 45 0 1 41,44.916302 v 1.167396 A 0.91630177,0.91630177 135 0 1 40.083698,47 H 33.916302 A 0.91630177,0.91630177 45 0 1 33,46.083698 V 44.916302 A 0.91630177,0.91630177 135 0 1 33.916302,44 Z"
     id="path7"
     inkscape:path-effect="#path-effect1"
     inkscape:original-d="M 21,32 V 49 H 43 V 32 Z m 2,2 h 8 v 3 h -8 z m 10,0 h 8 v 3 h -8 z m -10,5 h 8 v 3 h -8 z m 10,0 h 8 v 3 h -8 z m -10,5 h 8 v 3 h -8 z m 10,0 h 8 v 3 h -8 z" />
</svg>
