<?xml version="1.0" encoding="UTF-8" standalone="no"?>
<svg
   width="64"
   height="64"
   version="1"
   id="svg3"
   sodipodi:docname="gnome-dev-dvd.svg"
   inkscape:version="1.3.2 (091e20ef0f, 2023-11-25, custom)"
   xmlns:inkscape="http://www.inkscape.org/namespaces/inkscape"
   xmlns:sodipodi="http://sodipodi.sourceforge.net/DTD/sodipodi-0.dtd"
   xmlns:xlink="http://www.w3.org/1999/xlink"
   xmlns="http://www.w3.org/2000/svg"
   xmlns:svg="http://www.w3.org/2000/svg">
  <defs
     id="defs3">
    <radialGradient
       inkscape:collect="always"
       xlink:href="#linearGradient4"
       id="radialGradient5"
       cx="-54.994705"
       cy="-7.5219774"
       fx="-54.994705"
       fy="-7.5219774"
       r="28"
       gradientTransform="matrix(1.2330984,1.2791683,-1.5131133,2.3608104,3.4086565,78.394902)"
       gradientUnits="userSpaceOnUse" />
    <linearGradient
       id="linearGradient4"
       inkscape:collect="always">
      <stop
         style="stop-color:#a5a5a5;stop-opacity:1;"
         offset="0"
         id="stop4" />
      <stop
         style="stop-color:#5f5f5f;stop-opacity:1;"
         offset="1"
         id="stop5" />
    </linearGradient>
    <filter
       inkscape:collect="always"
       style="color-interpolation-filters:sRGB"
       id="filter2"
       x="-0.12128726"
       y="-0.12128726"
       width="1.2425745"
       height="1.2425745">
      <feGaussianBlur
         inkscape:collect="always"
         stdDeviation="1.9589543"
         id="feGaussianBlur2" />
    </filter>
    <filter
       inkscape:collect="always"
       style="color-interpolation-filters:sRGB"
       id="filter3"
       x="-0.12761262"
       y="-0.12766422"
       width="1.2552252"
       height="1.2553284">
      <feGaussianBlur
         inkscape:collect="always"
         stdDeviation="2.7124965"
         id="feGaussianBlur3" />
    </filter>
  </defs>
  <sodipodi:namedview
     id="namedview3"
     pagecolor="#ffffff"
     bordercolor="#000000"
     borderopacity="0.25"
     inkscape:showpageshadow="2"
     inkscape:pageopacity="0.0"
     inkscape:pagecheckerboard="0"
     inkscape:deskcolor="#d1d1d1"
     inkscape:zoom="9.8111066"
     inkscape:cx="24.207259"
     inkscape:cy="35.979631"
     inkscape:window-width="1920"
     inkscape:window-height="1020"
     inkscape:window-x="0"
     inkscape:window-y="0"
     inkscape:window-maximized="1"
     inkscape:current-layer="svg3" />
  <rect
     style="fill:url(#radialGradient5);stroke:none;stroke-width:0.273288;stroke-dasharray:none;stroke-opacity:1"
     width="51.013699"
     height="50.99308"
     x="-57.583241"
     y="-57.49654"
     rx="12.355121"
     ry="12.355121"
     transform="matrix(0,-1,-1,0,0,0)"
     id="rect2" />
  <rect
     style="fill:none;stroke-width:1.02749;stroke:none;filter:url(#filter3)"
     width="51.013699"
     height="50.99308"
     x="-57.583241"
     y="-57.49654"
     rx="12.355121"
     ry="12.355121"
     transform="matrix(0,-1,-1,0,0,0)"
     id="rect2-7" />
  <path
     style="opacity:0.38;stroke-width:0.910959"
     d="M 32,13.787625 A 18.219178,18.219178 0 0 0 13.780823,32.006802 18.219178,18.219178 0 0 0 32,50.22598 18.219178,18.219178 0 0 0 50.219178,32.006802 18.219178,18.219178 0 0 0 32,13.787625 Z m 0,10.931506 A 7.287671,7.287671 0 0 1 39.287671,32.006802 7.287671,7.287671 0 0 1 32,39.294473 7.287671,7.287671 0 0 1 24.712329,32.006802 7.287671,7.287671 0 0 1 32,24.719131 Z"
     id="path2" />
  <path
     style="opacity:1;mix-blend-mode:normal;fill:none;stroke:#000000;stroke-width:0.3;stroke-dasharray:none;stroke-opacity:1;filter:url(#filter2)"
     d="M 32,12 A 20,20 0 0 0 12,32 20,20 0 0 0 32,52 20,20 0 0 0 52,32 20,20 0 0 0 32,12 Z m 0,12 a 8,8 0 0 1 8,8 8,8 0 0 1 -8,8 8,8 0 0 1 -8,-8 8,8 0 0 1 8,-8 z"
     id="path2-5"
     transform="matrix(0.91095888,0,0,0.91095888,2.8493162,2.8561181)" />
</svg>
