<?xml version="1.0" encoding="UTF-8" standalone="no"?>
<svg
   width="16"
   height="16"
   version="1.1"
   id="svg1"
   sodipodi:docname="window-close-symbolic.svg"
   inkscape:version="1.4.1 (93de688d07, 2025-03-30)"
   xmlns:inkscape="http://www.inkscape.org/namespaces/inkscape"
   xmlns:sodipodi="http://sodipodi.sourceforge.net/DTD/sodipodi-0.dtd"
   xmlns="http://www.w3.org/2000/svg"
   xmlns:svg="http://www.w3.org/2000/svg">
  <defs
     id="defs1" />
  <sodipodi:namedview
     id="namedview1"
     pagecolor="#ffffff"
     bordercolor="#000000"
     borderopacity="0.25"
     inkscape:showpageshadow="2"
     inkscape:pageopacity="0.0"
     inkscape:pagecheckerboard="0"
     inkscape:deskcolor="#d1d1d1"
     inkscape:zoom="75.125"
     inkscape:cx="7.9933444"
     inkscape:cy="8"
     inkscape:window-width="3440"
     inkscape:window-height="1363"
     inkscape:window-x="0"
     inkscape:window-y="0"
     inkscape:window-maximized="1"
     inkscape:current-layer="svg1" />
  <path
     id="path9"
     style="baseline-shift:baseline;display:inline;overflow:visible;vector-effect:none;stroke:none;stroke-width:1;stroke-linecap:round;stroke-dasharray:none;stroke-opacity:1;enable-background:accumulate;stop-color:#000000;fill:#444444;fill-opacity:1"
     d="M 3.0644531 2.5644531 A 0.5 0.5 0 0 0 2.7109375 2.7109375 A 0.5 0.5 0 0 0 2.7109375 3.4179688 L 7.2929688 8 L 2.7109375 12.582031 A 0.5 0.5 0 0 0 2.7109375 13.289062 A 0.5 0.5 0 0 0 3.4179688 13.289062 L 8 8.7070312 L 12.582031 13.289062 A 0.5 0.5 0 0 0 13.289062 13.289062 A 0.5 0.5 0 0 0 13.289062 12.582031 L 8.7070312 8 L 13.289062 3.4179688 A 0.5 0.5 0 0 0 13.289062 2.7109375 A 0.5 0.5 0 0 0 12.582031 2.7109375 L 8 7.2929688 L 3.4179688 2.7109375 A 0.5 0.5 0 0 0 3.0644531 2.5644531 z " />
</svg>
