<?xml version="1.0" encoding="UTF-8" standalone="no"?>
<svg
   width="16"
   height="16"
   version="1.1"
   id="svg1"
   sodipodi:docname="folder-android.svg"
   inkscape:version="1.4 (e7c3feb100, 2024-10-09)"
   xmlns:inkscape="http://www.inkscape.org/namespaces/inkscape"
   xmlns:sodipodi="http://sodipodi.sourceforge.net/DTD/sodipodi-0.dtd"
   xmlns:xlink="http://www.w3.org/1999/xlink"
   xmlns="http://www.w3.org/2000/svg"
   xmlns:svg="http://www.w3.org/2000/svg">
  <sodipodi:namedview
     id="namedview1"
     pagecolor="#ffffff"
     bordercolor="#000000"
     borderopacity="0.25"
     inkscape:showpageshadow="2"
     inkscape:pageopacity="0.0"
     inkscape:pagecheckerboard="0"
     inkscape:deskcolor="#d1d1d1"
     inkscape:zoom="33.580221"
     inkscape:cx="9.3358529"
     inkscape:cy="7.3406308"
     inkscape:current-layer="svg1" />
  <defs
     id="defs1">
    <style
       id="current-color-scheme"
       type="text/css">
   .ColorScheme-Text { color:#dfdfdf; } .ColorScheme-Highlight { color:#4285f4; } .ColorScheme-NeutralText { color:#ff9800; } .ColorScheme-PositiveText { color:#4caf50; } .ColorScheme-NegativeText { color:#f44336; }
  </style>
    <radialGradient
       id="SVGID_1_-3-2-7"
       cx="-159.43106"
       cy="15.462561"
       r="64.706802"
       gradientTransform="matrix(-0.89413329,0,0,0.96304834,-80.753654,49.330428)"
       gradientUnits="userSpaceOnUse"
       fx="-159.43106"
       fy="15.462561">
      <stop
         offset="0"
         style="stop-color:#006fff;stop-opacity:1;"
         id="stop1-6-9-5" />
      <stop
         offset="1"
         style="stop-color:#15baff;stop-opacity:1;"
         id="stop2-7-1-3" />
    </radialGradient>
    <inkscape:path-effect
       effect="fillet_chamfer"
       id="path-effect1"
       is_visible="true"
       lpeversion="1"
       nodesatellites_param="F,0,0,1,0,2.2050452,0,1 @ F,0,1,1,0,2.2050452,0,1 @ F,0,1,1,0,2.2050452,0,1 @ F,0,1,1,0,2.2050452,0,1 @ F,0,0,1,0,0.95487539,0,1 @ F,0,0,1,0,0.95487539,0,1"
       radius="0"
       unit="px"
       method="auto"
       mode="F"
       chamfer_steps="1"
       flexible="false"
       use_knot_distance="true"
       apply_no_radius="true"
       apply_with_radius="true"
       only_selected="false"
       hide_knots="false" />
    <radialGradient
       inkscape:collect="always"
       xlink:href="#SVGID_1_-3-2-7"
       id="radialGradient3"
       cx="18.303684"
       cy="13.935308"
       fx="18.303684"
       fy="13.935308"
       r="8"
       gradientTransform="matrix(0,-1.3700117,1.6974278,0,-5.3504959,40.105559)"
       gradientUnits="userSpaceOnUse" />
  </defs>
  <path
     style="fill:url(#radialGradient3)"
     class="ColorScheme-Text"
     d="M 1.793,2.9902 C 1.112,2.9901 0.7422,3.7865 1.1816,4.3066 L 2.6172,6.0625 C 1.168,7.3652 0,9.1838 0,11.23 0,12 0.77734,12 0.77734,12 H 15.203 C 15.203,12 16,12 16,11.191 16,9.1604 14.826,7.3552 13.385,6.0605 L 14.818,4.3066 C 15.262,3.7781 14.874,2.973 14.184,2.9922 13.948,2.9986 13.727,3.1087 13.58,3.293 L 12.088,5.1191 C 10.89,4.4124 9.4939,4 8,4 6.5054,4 5.1108,4.4118 3.9121,5.1191 L 2.4199,3.293 C 2.2681,3.1017 2.0372,2.9902 1.793,2.9902 Z M 4,8 C 4.5523,8 5,8.4477 5,9 5,9.5523 4.5523,10 4,10 3.4477,10 3,9.5523 3,9 3,8.4477 3.4477,8 4,8 Z M 12,8 C 12.552,8 13,8.4477 13,9 13,9.5523 12.552,10 12,10 11.448,10 11,9.5523 11,9 11,8.4477 11.448,8 12,8 Z"
     id="path1" />
</svg>
