<?xml version="1.0" encoding="UTF-8" standalone="no"?>
<svg
   width="16"
   height="16"
   version="1.1"
   viewBox="0 0 16 16"
   id="svg1"
   sodipodi:docname="folder-pictures.svg"
   inkscape:version="1.4 (e7c3feb100, 2024-10-09)"
   xmlns:inkscape="http://www.inkscape.org/namespaces/inkscape"
   xmlns:sodipodi="http://sodipodi.sourceforge.net/DTD/sodipodi-0.dtd"
   xmlns:xlink="http://www.w3.org/1999/xlink"
   xmlns="http://www.w3.org/2000/svg"
   xmlns:svg="http://www.w3.org/2000/svg">
  <sodipodi:namedview
     id="namedview1"
     pagecolor="#ffffff"
     bordercolor="#000000"
     borderopacity="0.25"
     inkscape:showpageshadow="2"
     inkscape:pageopacity="0.0"
     inkscape:pagecheckerboard="0"
     inkscape:deskcolor="#d1d1d1"
     inkscape:zoom="73.9375"
     inkscape:cx="8"
     inkscape:cy="8"
     inkscape:current-layer="svg1" />
  <defs
     id="defs1">
    <style
       id="current-color-scheme"
       type="text/css">
   .ColorScheme-Text { color:#dfdfdf; } .ColorScheme-Highlight { color:#4285f4; } .ColorScheme-NeutralText { color:#ff9800; } .ColorScheme-PositiveText { color:#4caf50; } .ColorScheme-NegativeText { color:#f44336; }
  </style>
    <radialGradient
       inkscape:collect="always"
       xlink:href="#SVGID_1_-3-2-7"
       id="radialGradient2"
       cx="13.645912"
       cy="17.617479"
       fx="13.645912"
       fy="17.617479"
       r="7"
       gradientTransform="matrix(0,-1.8551176,2.0237646,0,-16.232597,43.721436)"
       gradientUnits="userSpaceOnUse" />
    <radialGradient
       id="SVGID_1_-3-2-7"
       cx="-159.43106"
       cy="15.462561"
       r="64.706802"
       gradientTransform="matrix(-0.89413329,0,0,0.96304834,-80.753654,49.330428)"
       gradientUnits="userSpaceOnUse"
       fx="-159.43106"
       fy="15.462561">
      <stop
         offset="0"
         style="stop-color:#006fff;stop-opacity:1;"
         id="stop1-6-9-5" />
      <stop
         offset="1"
         style="stop-color:#15baff;stop-opacity:1;"
         id="stop2-7-1-3" />
    </radialGradient>
    <inkscape:path-effect
       effect="fillet_chamfer"
       id="path-effect2"
       is_visible="true"
       lpeversion="1"
       nodesatellites_param="F,0,0,1,0,0,0,1 @ F,0,0,1,0,0,0,1 @ F,0,0,1,0,0,0,1 @ F,0,0,1,0,0,0,1 @ F,0,0,1,0,0,0,1 @ F,0,0,1,0,0,0,1 @ F,0,0,1,0,0,0,1 @ F,0,0,1,0,0,0,1 | F,0,0,1,0,0.58345376,0,1 @ F,0,0,1,0,0.58345376,0,1 @ F,0,0,1,0,0.58345376,0,1 @ F,0,0,1,0,0.58345376,0,1 @ F,0,1,1,0,0.36780694,0,1 @ F,0,0,1,0,0.36780694,0,1 @ F,0,0,1,0,0.58345376,0,1"
       radius="0"
       unit="px"
       method="auto"
       mode="F"
       chamfer_steps="1"
       flexible="false"
       use_knot_distance="true"
       apply_no_radius="true"
       apply_with_radius="true"
       only_selected="false"
       hide_knots="false" />
  </defs>
  <g
     id="g1">
    <path
       style="fill:url(#radialGradient2)"
       d="M 2,2 C 1,2 1,3 1,3 v 10 c 0,1 1,1 1,1 h 12 c 0,0 1,0 1,-1 V 3 C 15,2 14,2 14,2 Z m 3.8861028,4.9974276 2.5377944,2.8751448 a 0.55747179,0.55747179 2.2616745 0 0 0.8055009,0.031813 l 1.2912039,-1.24877 a 0.59328261,0.59328261 0.47855984 0 1 0.831962,0.00695 l 1.234872,1.2348718 A 1.408582,1.408582 67.5 0 1 13,10.893454 v 0.738739 A 0.36780694,0.36780694 135 0 1 12.632193,12 H 3.3678069 A 0.36780694,0.36780694 45 0 1 3,11.632193 V 10.083454 A 1.5868128,1.5868128 110.18792 0 1 3.3779607,9.0555183 L 5.1220393,7.0044817 a 0.50548924,0.50548924 179.47104 0 1 0.7640635,-0.00705 z"
       id="path1"
       inkscape:path-effect="#path-effect2"
       inkscape:original-d="M 2,2 C 1,2 1,3 1,3 v 10 c 0,1 1,1 1,1 h 12 c 0,0 1,0 1,-1 V 3 C 15,2 14,2 14,2 Z M 5.5,6.56 8.81,10.31 10.94,8.25 13,10.31 V 12 H 3 V 9.5 Z" />
  </g>
</svg>
