<?xml version="1.0" encoding="UTF-8" standalone="no"?>
<svg
   width="16"
   height="16"
   version="1.1"
   id="svg1"
   sodipodi:docname="user-trash-full.svg"
   inkscape:version="1.4 (e7c3feb100, 2024-10-09)"
   xmlns:inkscape="http://www.inkscape.org/namespaces/inkscape"
   xmlns:sodipodi="http://sodipodi.sourceforge.net/DTD/sodipodi-0.dtd"
   xmlns:xlink="http://www.w3.org/1999/xlink"
   xmlns="http://www.w3.org/2000/svg"
   xmlns:svg="http://www.w3.org/2000/svg">
  <sodipodi:namedview
     id="namedview1"
     pagecolor="#ffffff"
     bordercolor="#000000"
     borderopacity="0.25"
     inkscape:showpageshadow="2"
     inkscape:pageopacity="0.0"
     inkscape:pagecheckerboard="0"
     inkscape:deskcolor="#d1d1d1"
     inkscape:zoom="51.745749"
     inkscape:cx="7.6431399"
     inkscape:cy="9.51769"
     inkscape:current-layer="svg1" />
  <defs
     id="defs1">
    <style
       id="current-color-scheme"
       type="text/css">
   .ColorScheme-Text { color:#dfdfdf; } .ColorScheme-Highlight { color:#4285f4; } .ColorScheme-NeutralText { color:#ff9800; } .ColorScheme-PositiveText { color:#4caf50; } .ColorScheme-NegativeText { color:#f44336; }
  </style>
    <radialGradient
       inkscape:collect="always"
       xlink:href="#SVGID_1_-3-2-7"
       id="radialGradient6"
       cx="1.7672268"
       cy="12.576531"
       fx="1.7672268"
       fy="12.576531"
       r="6.5"
       gradientTransform="matrix(0,-3.1569824,2.3946152,0,-11.656922,27.397012)"
       gradientUnits="userSpaceOnUse" />
    <radialGradient
       id="SVGID_1_-3-2-7"
       cx="-159.43106"
       cy="15.462561"
       r="64.706802"
       gradientTransform="matrix(-0.89413329,0,0,0.96304834,-80.753654,49.330428)"
       gradientUnits="userSpaceOnUse"
       fx="-159.43106"
       fy="15.462561">
      <stop
         offset="0"
         style="stop-color:#006fff;stop-opacity:1;"
         id="stop1-6-9-5" />
      <stop
         offset="1"
         style="stop-color:#15baff;stop-opacity:1;"
         id="stop2-7-1-3" />
    </radialGradient>
    <inkscape:path-effect
       effect="fillet_chamfer"
       id="path-effect6"
       is_visible="true"
       lpeversion="1"
       nodesatellites_param="F,0,0,1,0,0,0,1 @ F,0,0,1,0,0,0,1 @ F,0,0,1,0,0,0,1 @ F,0,0,1,0,0,0,1 @ F,0,0,1,0,0.990625,0,1 @ F,0,0,1,0,0.990625,0,1 @ F,0,0,1,0,0,0,1 @ F,0,0,1,0,0,0,1 @ F,0,0,1,0,0,0,1 @ F,0,0,1,0,0,0,1 | F,0,0,1,0,0.990625,0,1 @ F,0,0,1,0,2.5294131,0,1 @ F,0,0,1,0,0,0,1 @ F,0,0,1,0,0,0,1 @ F,0,0,1,0,0,0,1 @ F,0,0,1,0,1.0292275,0,1 @ F,0,0,1,0,2.5294131,0,1 @ F,0,0,1,0,0.990625,0,1"
       radius="0"
       unit="px"
       method="auto"
       mode="F"
       chamfer_steps="1"
       flexible="false"
       use_knot_distance="true"
       apply_no_radius="true"
       apply_with_radius="true"
       only_selected="false"
       hide_knots="false" />
  </defs>
  <g
     id="g1">
    <path
       style="color:#dfdfdf;fill:url(#radialGradient6)"
       class="ColorScheme-Text"
       d="M 6,1 C 5,1 5,2 5,2 H 2 C 2,2 1,2 1,3 v 0.00937 A 0.990625,0.990625 45 0 0 1.990625,4 h 11.01875 A 0.990625,0.990625 135 0 0 14,3.009375 V 3 C 14,2 13,2 13,2 H 10 C 10,2 10,1 9,1 Z M 1.8306053,5.9760345 1.6538088,6.9947172 a 14.61672,14.61672 90.028077 0 0 -0.00244,4.9847398 L 2,14 c 0.088417,0.512428 0.48,1 1,1 h 9 c 0.176819,0 0.349013,-0.0555 0.499283,-0.149201 0.462646,-0.288482 0.579068,-1.30489 0.675719,-1.865039 l 0.173632,-1.006303 a 14.616727,14.616727 89.971923 0 0 -0.0024,-4.9847398 L 13.169395,5.9760345 A 1.1773605,1.1773605 40.077082 0 0 12.009375,5 H 2.990625 A 1.1773606,1.1773606 139.92292 0 0 1.8306053,5.9760345 Z"
       id="path1"
       inkscape:path-effect="#path-effect6"
       inkscape:original-d="M 6,1 C 5,1 5,2 5,2 H 2 C 2,2 1,2 1,3 V 4 H 14 V 3 C 14,2 13,2 13,2 H 10 C 10,2 10,1 9,1 Z M 2,5 1.2212846,9.4868756 2,14 c 0.088417,0.512428 0.48,1 1,1 h 9 c 0.52,0 1,-0.48 1,-1 L 13.778715,9.4868756 13,5 Z"
       transform="matrix(1.1415747,0,0,1.1415747,-0.56181025,-1.1325976)"
       sodipodi:nodetypes="sccsccsccssccssssccc" />
  </g>
</svg>
