<?xml version="1.0" encoding="UTF-8" standalone="no"?>
<svg
   width="16"
   height="16"
   version="1.1"
   id="svg1"
   sodipodi:docname="user-bookmarks.svg"
   inkscape:version="1.4 (e7c3feb100, 2024-10-09)"
   xmlns:inkscape="http://www.inkscape.org/namespaces/inkscape"
   xmlns:sodipodi="http://sodipodi.sourceforge.net/DTD/sodipodi-0.dtd"
   xmlns:xlink="http://www.w3.org/1999/xlink"
   xmlns="http://www.w3.org/2000/svg"
   xmlns:svg="http://www.w3.org/2000/svg">
  <sodipodi:namedview
     id="namedview1"
     pagecolor="#ffffff"
     bordercolor="#000000"
     borderopacity="0.25"
     inkscape:showpageshadow="2"
     inkscape:pageopacity="0.0"
     inkscape:pagecheckerboard="0"
     inkscape:deskcolor="#d1d1d1"
     inkscape:zoom="43.372778"
     inkscape:cx="6.3749663"
     inkscape:cy="8.0811056"
     inkscape:current-layer="svg1" />
  <defs
     id="defs1">
    <inkscape:path-effect
       effect="fillet_chamfer"
       id="path-effect2"
       is_visible="true"
       lpeversion="1"
       nodesatellites_param="F,0,0,1,0,0,0,1 @ F,0,0,1,0,0,0,1 @ F,0,0,1,0,0,0,1 @ F,0,1,1,0,0.86072603,0,1 @ F,0,0,1,0,0,0,1 @ F,0,0,1,0,0,0,1 @ F,0,0,1,0,0,0,1 @ F,0,0,1,0,0,0,1 @ F,0,1,1,0,0.86072603,0,1 @ F,0,0,1,0,0,0,1 @ F,0,0,1,0,0,0,1 @ F,0,0,1,0,0,0,1 @ F,0,0,1,0,0,0,1 @ F,0,0,1,0,0,0,1 @ F,0,0,1,0,0,0,1 @ F,0,0,1,0,0.86072603,0,1 @ F,0,0,1,0,0,0,1 @ F,0,0,1,0,0,0,1 @ F,0,0,1,0,0,0,1 @ F,0,0,1,0,0,0,1 @ F,0,0,1,0,0,0,1 @ F,0,0,1,0,0,0,1 @ F,0,1,1,0,0.86072603,0,1 @ F,0,0,1,0,0,0,1 @ F,0,0,1,0,0,0,1 @ F,0,0,1,0,0,0,1 @ F,0,0,1,0,0,0,1 @ F,0,1,1,0,0.86072603,0,1 @ F,0,0,1,0,0,0,1 @ F,0,0,1,0,0,0,1"
       radius="0"
       unit="px"
       method="auto"
       mode="F"
       chamfer_steps="1"
       flexible="false"
       use_knot_distance="true"
       apply_no_radius="true"
       apply_with_radius="true"
       only_selected="false"
       hide_knots="false" />
    <style
       id="current-color-scheme"
       type="text/css">
   .ColorScheme-Text { color:#dfdfdf; } .ColorScheme-Highlight { color:#4285f4; } .ColorScheme-NeutralText { color:#ff9800; } .ColorScheme-PositiveText { color:#4caf50; } .ColorScheme-NegativeText { color:#f44336; }
  </style>
    <radialGradient
       id="SVGID_1_-3-2-7"
       cx="-159.43106"
       cy="15.462561"
       r="64.706802"
       gradientTransform="matrix(-0.89413329,0,0,0.96304834,-80.753654,49.330428)"
       gradientUnits="userSpaceOnUse"
       fx="-159.43106"
       fy="15.462561">
      <stop
         offset="0"
         style="stop-color:#006fff;stop-opacity:1;"
         id="stop1-6-9-5" />
      <stop
         offset="1"
         style="stop-color:#15baff;stop-opacity:1;"
         id="stop2-7-1-3" />
    </radialGradient>
    <inkscape:path-effect
       effect="fillet_chamfer"
       id="path-effect6"
       is_visible="true"
       lpeversion="1"
       nodesatellites_param="F,0,1,1,0,3.2289402,0,1 @ F,0,1,1,0,3.2289402,0,1 @ F,0,0,1,0,3.2289402,0,1 @ F,0,1,1,0,3.2289402,0,1 | F,0,0,1,0,0.61204127,0,1 @ F,0,0,1,0,1.1826766,0,1 @ F,0,0,1,0,1.1826766,0,1"
       radius="0"
       unit="px"
       method="auto"
       mode="F"
       chamfer_steps="1"
       flexible="false"
       use_knot_distance="true"
       apply_no_radius="true"
       apply_with_radius="true"
       only_selected="false"
       hide_knots="false" />
    <radialGradient
       inkscape:collect="always"
       xlink:href="#SVGID_1_-3-2-7"
       id="radialGradient2"
       cx="19.527967"
       cy="19.527967"
       fx="19.527967"
       fy="19.527967"
       r="8.0000038"
       gradientUnits="userSpaceOnUse"
       gradientTransform="matrix(0,-2.458338,2.458338,0,-28.478377,67.534312)" />
  </defs>
  <path
     style="fill:url(#radialGradient2)"
     class="ColorScheme-Text"
     d="M 8.0000025,-1.0572069e-6 C 7.2788175,0.01003494 6.7648665,0.43177074 6.5234945,1.1319405 l 0.0078,-0.031334 -0.893442,3.0864758 a 1.1452164,1.1452164 143.07207 0 1 -1.100055,0.8267835 h -2.959447 c -0.0083,-1.301e-4 -0.01706,-1.301e-4 -0.02539,0 -0.45633,0.0144 -0.86826003,0.2203755 -1.15816103,0.5640123 -0.626968,0.7007156 -0.493432,1.8039654 0.302724,2.3265512 L 3.0001463,9.5437755 a 1.2098403,1.2098403 70.878345 0 1 0.4594862,1.3252965 l -0.924283,3.1592 c -0.0013,0.0039 -0.0027,0.0078 -0.0039,0.01175 -0.178148,0.569792 -0.01062,1.157308 0.437484,1.558867 0.0032,0.003 0.0084,0.0049 0.01172,0.0078 0.538485,0.466081 1.294158,0.524829 1.902274,0.139045 0.01157,-0.0073 0.024,-0.01366 0.03515,-0.02155 l 2.3779202,-1.672673 a 1.2236201,1.2236201 2.8086132e-4 0 1 1.4079987,7e-6 l 2.3779206,1.672708 c 0.01115,0.0079 0.0236,0.01426 0.03516,0.02155 0.608116,0.385784 1.363788,0.327036 1.902273,-0.139045 0.0033,-0.0029 0.0085,-0.0048 0.01172,-0.0078 0.448108,-0.401569 0.615632,-0.989075 0.437484,-1.558867 -0.0012,-0.0039 -0.0026,-0.0078 -0.0039,-0.01175 l -0.924283,-3.1592 a 1.209841,1.209841 109.12164 0 1 0.459486,-1.3252969 l 2.30262,-1.6393458 C 16.098632,7.3818856 16.232168,6.2786358 15.605201,5.5779202 15.3153,5.2342832 14.903368,5.0283094 14.44704,5.0139078 c -0.0083,-1.302e-4 -0.01709,-1.302e-4 -0.02539,0 H 11.462203 A 1.1452161,1.1452161 36.927935 0 1 10.362148,4.1871243 l -0.8934412,-3.0864758 0.00781,0.031334 C 9.2351394,0.43177074 8.7211886,0.01003504 8.0000025,-1.0572069e-6 Z"
     id="path1"
     inkscape:path-effect="#path-effect2"
     inkscape:original-d="M 8.0000025,-1.0572069e-6 C 7.2788175,0.01003494 6.7648665,0.43177074 6.5234945,1.1319405 l 0.0078,-0.031334 -1.132771,3.9132593 h -3.820173 c -0.0083,-1.301e-4 -0.01706,-1.301e-4 -0.02539,0 -0.45633,0.0144 -0.86826003,0.2203755 -1.15816103,0.5640123 -0.626968,0.7007156 -0.493432,1.8039654 0.302724,2.3265512 l 3.00379903,2.1385467 -1.165973,3.985296 c -0.0013,0.0039 -0.0027,0.0078 -0.0039,0.01175 -0.178148,0.569792 -0.01062,1.157308 0.437484,1.558867 0.0032,0.003 0.0084,0.0049 0.01172,0.0078 0.538485,0.466081 1.294158,0.524829 1.902274,0.139045 0.01157,-0.0073 0.024,-0.01366 0.03515,-0.02155 l 3.081922,-2.167881 3.0819175,2.167923 c 0.01115,0.0079 0.0236,0.01426 0.03516,0.02155 0.608116,0.385784 1.363788,0.327036 1.902273,-0.139045 0.0033,-0.0029 0.0085,-0.0048 0.01172,-0.0078 0.448108,-0.401569 0.615632,-0.989075 0.437484,-1.558867 -0.0012,-0.0039 -0.0026,-0.0078 -0.0039,-0.01175 L 12.298681,10.043018 15.302477,7.9044713 C 16.098632,7.3818856 16.232168,6.2786358 15.605201,5.5779202 15.3153,5.2342832 14.903368,5.0283094 14.44704,5.0139078 c -0.0083,-1.302e-4 -0.01709,-1.302e-4 -0.02539,0 h -3.820173 l -1.1327702,-3.9132593 0.00781,0.031334 C 9.2351394,0.43177074 8.7211886,0.01003504 8.0000025,-1.0572069e-6 Z" />
</svg>
