<?xml version="1.0" encoding="UTF-8" standalone="no"?>
<svg
   width="64"
   height="64"
   version="1"
   id="svg7"
   sodipodi:docname="application-font-woff.svg"
   inkscape:version="1.3.2 (091e20ef0f, 2023-11-25, custom)"
   xmlns:inkscape="http://www.inkscape.org/namespaces/inkscape"
   xmlns:sodipodi="http://sodipodi.sourceforge.net/DTD/sodipodi-0.dtd"
   xmlns:xlink="http://www.w3.org/1999/xlink"
   xmlns="http://www.w3.org/2000/svg"
   xmlns:svg="http://www.w3.org/2000/svg">
  <defs
     id="defs7">
    <linearGradient
       id="linearGradient8"
       inkscape:collect="always">
      <stop
         style="stop-color:#ededed;stop-opacity:1;"
         offset="0"
         id="stop8" />
      <stop
         style="stop-color:#b7b7b7;stop-opacity:1;"
         offset="1"
         id="stop9" />
    </linearGradient>
    <radialGradient
       inkscape:collect="always"
       xlink:href="#linearGradient8"
       id="radialGradient9"
       cx="21.477476"
       cy="23.351734"
       fx="21.477476"
       fy="23.351734"
       r="22"
       gradientTransform="matrix(5.2437612,-5.1735227e-8,0,4.286547,-93.168663,-54.97246)"
       gradientUnits="userSpaceOnUse" />
  </defs>
  <sodipodi:namedview
     id="namedview7"
     pagecolor="#ffffff"
     bordercolor="#000000"
     borderopacity="0.25"
     inkscape:showpageshadow="2"
     inkscape:pageopacity="0.0"
     inkscape:pagecheckerboard="0"
     inkscape:deskcolor="#d1d1d1"
     inkscape:zoom="4.9055533"
     inkscape:cx="19.467733"
     inkscape:cy="30.781441"
     inkscape:window-width="1920"
     inkscape:window-height="1014"
     inkscape:window-x="0"
     inkscape:window-y="0"
     inkscape:window-maximized="1"
     inkscape:current-layer="svg7" />
  <path
     style="fill:url(#radialGradient9);fill-opacity:1"
     d="M 12.75,4 C 11.2265,4 10,5.2488 10,6.8 v 50.4 c 0,1.5512 1.2265,2.8 2.75,2.8 h 38.5 C 52.7735,60 54,58.7512 54,57.2 V 20 L 38,4 Z"
     id="path2"
     sodipodi:nodetypes="ssssssccs" />
  <path
     style="fill:#ffffff;fill-opacity:1;opacity:0.59337604"
     d="M 38,4 V 17.333333 C 38,18.806133 39.193906,20 40.666666,20 H 54 Z"
     id="path4" />
  <path
     style="fill:#000000;fill-opacity:1"
     d="M 45,28.6 C 42.623,29.9 37.732,30.171 33.105,30.117 29.474,30.138 22.385,29.384 21.166,32.933 21.627,32.299 30.069,29.42 29.22,32.995 28.221,35.907 27.034,37.384 25.505,40.02 24.017,40.132 21.959,40.197 20.682,41.084 21.015,40.879 23.846,40.316 24.981,40.935 23.243,43.807 20.852,47.131 19.578,50.259 19.227,51.333 18.437,53.061 19.651,53.839 20.68,54.319 19.959,53.629 20.376,52.957 22.123,49.202 25.127,45.042 27.322,41.555 28.604,42.088 29.847,43.076 31.245,43.23 33.148,43.456 36.427,40.766 36.932,38.917 34.765,40.544 31.025,40.036 28.555,39.984 L 33.291,32.711 C 33.816,32.873 34.743,32.916 36.276,32.933 39.849,33.035 44.417,32.369 44.999,28.6 Z"
     id="path7" />
</svg>
