<?xml version="1.0" encoding="UTF-8" standalone="no"?>
<svg
   width="64"
   height="64"
   version="1.1"
   id="svg7"
   sodipodi:docname="application-x-kicad-project.svg"
   inkscape:version="1.4 (e7c3feb100, 2024-10-09)"
   xmlns:inkscape="http://www.inkscape.org/namespaces/inkscape"
   xmlns:sodipodi="http://sodipodi.sourceforge.net/DTD/sodipodi-0.dtd"
   xmlns:xlink="http://www.w3.org/1999/xlink"
   xmlns="http://www.w3.org/2000/svg"
   xmlns:svg="http://www.w3.org/2000/svg">
  <defs
     id="defs7">
    <radialGradient
       inkscape:collect="always"
       xlink:href="#linearGradient4"
       id="radialGradient15"
       cx="17.386076"
       cy="47.039314"
       fx="17.386076"
       fy="47.039314"
       r="22"
       gradientTransform="matrix(2.0221847,-2.0221847,2.5736897,2.5736897,-138.00161,-36.688012)"
       gradientUnits="userSpaceOnUse" />
    <linearGradient
       id="linearGradient4"
       inkscape:collect="always">
      <stop
         style="stop-color:#ffa12d;stop-opacity:1;"
         offset="0"
         id="stop3" />
      <stop
         style="stop-color:#fadb6a;stop-opacity:1;"
         offset="1"
         id="stop4" />
    </linearGradient>
  </defs>
  <sodipodi:namedview
     id="namedview7"
     pagecolor="#ffffff"
     bordercolor="#000000"
     borderopacity="0.25"
     inkscape:showpageshadow="2"
     inkscape:pageopacity="0.0"
     inkscape:pagecheckerboard="0"
     inkscape:deskcolor="#d1d1d1"
     inkscape:zoom="17.828125"
     inkscape:cx="32"
     inkscape:cy="32"
     inkscape:window-width="3440"
     inkscape:window-height="1361"
     inkscape:window-x="0"
     inkscape:window-y="0"
     inkscape:window-maximized="1"
     inkscape:current-layer="svg7" />
  <g
     id="g1">
    <g
       id="g3">
      <g
         id="g2">
        <path
           style="fill:url(#radialGradient15)"
           d="M 12.75,4 C 11.2265,4 10,5.2488 10,6.8 v 50.4 c 0,1.55008 1.2265,2.8 2.75,2.8 h 38.5 C 52.7724,60 54,58.75008 54,57.2 V 22 L 36,4 Z"
           id="path2-3"
           sodipodi:nodetypes="ssssssccs" />
        <path
           style="opacity:0.457139;fill:#ffffff;fill-opacity:1"
           d="M 54,22 36,4 V 19.1875 C 36,20.74675 37.2555,22 38.8125,22 Z"
           id="path4-6" />
      </g>
    </g>
  </g>
  <path
     style="fill:#920300;fill-opacity:1;opacity:0.28123717"
     d="M 24 14 L 24 15 L 24 22 L 22 22 L 22 34 L 24 34 L 24 39.912109 L 20 43.039062 L 20 41 L 20 40 L 18 40 L 18 41 L 18 44 L 17.875 44 L 11 44 L 10 44 L 10 46 L 11 46 L 17.875 46 L 18 46 L 18 49 L 18 50 L 20 50 L 20 49 L 20 46.433594 L 24 50.601562 L 24 56 L 23 56 L 22 56 L 22 58 L 23 58 L 27 58 L 28 58 L 28 56 L 27 56 L 26 56 L 26 50.453125 A 1.0001 1.0001 0 0 0 25.884766 49.71875 A 1.0001 1.0001 0 0 0 25.859375 49.673828 A 1.0001 1.0001 0 0 0 25.853516 49.666016 A 1.0001 1.0001 0 0 0 25.613281 49.396484 L 21.113281 44.707031 L 25.492188 41.285156 A 1.0001 1.0001 0 0 0 25.914062 40.820312 A 1.0001 1.0001 0 0 0 26 40.255859 L 26 38 L 26.5 38 L 37.5 38 L 38 38 L 38 40 L 48.830078 40 L 52.880859 37 L 48.830078 34 L 38 34 L 38 35 L 38 36 L 37.5 36 L 26.5 36 L 26 36 L 26 34 L 27 34 L 28 34 L 28 32 L 28 22 L 26 22 L 26 15 L 26 14 L 24 14 z M 24 24 L 26 24 L 26 32 L 24 32 L 24 24 z M 40 36 L 48.169922 36 L 49.521484 37 L 48.169922 38 L 40 38 L 40 36 z M 30 44 L 30 60 L 32 60 L 32 46 L 54 46 L 54 44 L 30 44 z M 34 48 L 34 50 L 40 50 L 40 48 L 34 48 z M 44 48 L 44 50 L 52 50 L 52 48 L 44 48 z M 34 54 L 34 56 L 42 56 L 42 54 L 34 54 z M 46 54 L 46 56 L 52 56 L 52 54 L 46 54 z"
     id="path6" />
</svg>
