<?xml version="1.0" encoding="UTF-8" standalone="no"?>
<svg
   width="64"
   height="64"
   version="1.1"
   id="svg9"
   sodipodi:docname="application-vnd.android.package-archive.svg"
   inkscape:version="1.4 (e7c3feb100, 2024-10-09)"
   xmlns:inkscape="http://www.inkscape.org/namespaces/inkscape"
   xmlns:sodipodi="http://sodipodi.sourceforge.net/DTD/sodipodi-0.dtd"
   xmlns:xlink="http://www.w3.org/1999/xlink"
   xmlns="http://www.w3.org/2000/svg"
   xmlns:svg="http://www.w3.org/2000/svg">
  <defs
     id="defs9">
    <radialGradient
       inkscape:collect="always"
       xlink:href="#linearGradient9"
       id="radialGradient10"
       cx="11.199748"
       cy="52.255859"
       fx="11.199748"
       fy="52.255859"
       r="22"
       gradientTransform="matrix(2.3937499,-0.64140334,0.81633154,3.0465908,-58.267754,-94.238478)"
       gradientUnits="userSpaceOnUse" />
    <linearGradient
       id="linearGradient9"
       inkscape:collect="always">
      <stop
         style="stop-color:#28a268;stop-opacity:1;"
         offset="0"
         id="stop9" />
      <stop
         style="stop-color:#1fc327;stop-opacity:1;"
         offset="1"
         id="stop10" />
    </linearGradient>
  </defs>
  <sodipodi:namedview
     id="namedview9"
     pagecolor="#ffffff"
     bordercolor="#000000"
     borderopacity="0.25"
     inkscape:showpageshadow="2"
     inkscape:pageopacity="0.0"
     inkscape:pagecheckerboard="0"
     inkscape:deskcolor="#d1d1d1"
     inkscape:zoom="13.890625"
     inkscape:cx="32"
     inkscape:cy="32.071991"
     inkscape:window-width="3440"
     inkscape:window-height="1361"
     inkscape:window-x="0"
     inkscape:window-y="0"
     inkscape:window-maximized="1"
     inkscape:current-layer="svg9" />
  <g
     id="g1">
    <g
       id="g3">
      <g
         id="g2">
        <path
           style="fill:url(#radialGradient10);fill-opacity:1"
           d="M 12.75,4 C 11.2265,4 10,5.2488 10,6.8 v 50.4 c 0,1.55008 1.2265,2.8 2.75,2.8 h 38.5 C 52.7724,60 54,58.75008 54,57.2 V 22 L 36,4 Z"
           id="path2"
           sodipodi:nodetypes="ssssssccs" />
        <path
           style="opacity:0.537555;fill:#ffffff;fill-opacity:1"
           d="M 54,22 36,4 V 19.1875 C 36,20.74675 37.2555,22 38.8125,22 Z"
           id="path4" />
      </g>
    </g>
  </g>
  <path
     d="m 19.44087,30.149921 a 1.333464,1.333464 0 0 0 -1.0625,2.035156 l 2.679688,4.460938 c -2.72685,2.583024 -4.551296,6.102862 -4.929688,10.046876 -0.07349,1.539942 1.550781,1.539062 1.550782,1.539062 h 28.851562 c 0,0 1.670902,-3.38e-4 1.589844,-1.617188 -0.39481,-3.916022 -2.217084,-7.406176 -4.929688,-9.972656 l 2.675782,-4.457032 a 1.333464,1.333464 0 0 0 -1.097656,-2.035156 1.333464,1.333464 0 0 0 -1.1875,0.664064 l -2.496094,4.152344 c -2.561646,-1.71758 -5.635828,-2.734376 -8.957032,-2.734376 -3.323994,0 -6.40188,1.017824 -8.964844,2.738282 l -2.496094,-4.15625 A 1.333464,1.333464 0 0 0 19.44087,30.149921 Z m 4.683594,10.082032 a 1.9999959,1.9999959 0 0 1 2,2 1.9999959,1.9999959 0 0 1 -2,2 1.9999959,1.9999959 0 0 1 -2,-2 1.9999959,1.9999959 0 0 1 2,-2 z m 16,0 a 1.9999959,1.9999959 0 0 1 2,2 1.9999959,1.9999959 0 0 1 -2,2 1.9999959,1.9999959 0 0 1 -2,-2 1.9999959,1.9999959 0 0 1 2,-2 z"
     id="path6-6"
     style="fill:#fff3f3;fill-opacity:1" />
</svg>
