<?xml version="1.0" encoding="UTF-8" standalone="no"?>
<svg
   width="64"
   height="64"
   version="1.1"
   id="svg6"
   sodipodi:docname="application-vnd.comicbook+zip.svg"
   inkscape:version="1.3.2 (091e20ef0f, 2023-11-25, custom)"
   xmlns:inkscape="http://www.inkscape.org/namespaces/inkscape"
   xmlns:sodipodi="http://sodipodi.sourceforge.net/DTD/sodipodi-0.dtd"
   xmlns:xlink="http://www.w3.org/1999/xlink"
   xmlns="http://www.w3.org/2000/svg"
   xmlns:svg="http://www.w3.org/2000/svg">
  <defs
     id="defs6">
    <inkscape:path-effect
       effect="fillet_chamfer"
       id="path-effect7"
       is_visible="true"
       lpeversion="1"
       nodesatellites_param="F,0,0,1,0,1.9214777,0,1 @ F,0,0,1,0,0,0,1 @ F,0,0,1,0,0,0,1 @ F,0,0,1,0,1.9214777,0,1 @ F,0,0,1,0,0,0,1 @ F,0,0,1,0,1.2110978,0,1 @ F,0,0,1,0,0,0,1 @ F,0,0,1,0,1.1328155,0,1 @ F,0,0,1,0,0,0,1 @ F,0,0,1,0,1.2110978,0,1 @ F,0,0,1,0,0,0,1 @ F,0,0,1,0,1.1328155,0,1 @ F,0,0,1,0,0,0,1 @ F,0,0,1,0,1.2110978,0,1 @ F,0,0,1,0,0,0,1 @ F,0,0,1,0,1.9214777,0,1 @ F,0,0,1,0,0,0,1 @ F,0,0,1,0,0,0,1 @ F,0,0,1,0,1.9214777,0,1 @ F,0,1,1,0,0.6070551,0,1 @ F,0,0,1,0,0,0,1 @ F,0,1,1,0,0.6070551,0,1"
       radius="0"
       unit="px"
       method="auto"
       mode="F"
       chamfer_steps="1"
       flexible="false"
       use_knot_distance="true"
       apply_no_radius="true"
       apply_with_radius="true"
       only_selected="false"
       hide_knots="false" />
    <inkscape:path-effect
       effect="fillet_chamfer"
       id="path-effect7-4"
       is_visible="true"
       lpeversion="1"
       nodesatellites_param="F,0,0,1,0,1.9214777,0,1 @ F,0,0,1,0,0,0,1 @ F,0,0,1,0,0,0,1 @ F,0,0,1,0,1.9214777,0,1 @ F,0,0,1,0,0,0,1 @ F,0,0,1,0,1.2110978,0,1 @ F,0,0,1,0,0,0,1 @ F,0,0,1,0,1.1328155,0,1 @ F,0,0,1,0,0,0,1 @ F,0,0,1,0,1.2110978,0,1 @ F,0,0,1,0,0,0,1 @ F,0,0,1,0,1.1328155,0,1 @ F,0,0,1,0,0,0,1 @ F,0,0,1,0,1.2110978,0,1 @ F,0,0,1,0,0,0,1 @ F,0,0,1,0,1.9214777,0,1 @ F,0,0,1,0,0,0,1 @ F,0,0,1,0,0,0,1 @ F,0,0,1,0,1.9214777,0,1 @ F,0,1,1,0,0.6070551,0,1 @ F,0,0,1,0,0,0,1 @ F,0,1,1,0,0.6070551,0,1"
       radius="0"
       unit="px"
       method="auto"
       mode="F"
       chamfer_steps="1"
       flexible="false"
       use_knot_distance="true"
       apply_no_radius="true"
       apply_with_radius="true"
       only_selected="false"
       hide_knots="false" />
    <radialGradient
       inkscape:collect="always"
       xlink:href="#linearGradient4"
       id="radialGradient15"
       cx="17.386076"
       cy="47.039314"
       fx="17.386076"
       fy="47.039314"
       r="22"
       gradientTransform="matrix(2.0221847,-2.0221847,2.5736897,2.5736897,-138.00161,-36.688012)"
       gradientUnits="userSpaceOnUse" />
    <linearGradient
       id="linearGradient4"
       inkscape:collect="always">
      <stop
         style="stop-color:#ffa12d;stop-opacity:1;"
         offset="0"
         id="stop3" />
      <stop
         style="stop-color:#fadb6a;stop-opacity:1;"
         offset="1"
         id="stop4" />
    </linearGradient>
  </defs>
  <sodipodi:namedview
     id="namedview6"
     pagecolor="#ffffff"
     bordercolor="#000000"
     borderopacity="0.25"
     inkscape:showpageshadow="2"
     inkscape:pageopacity="0.0"
     inkscape:pagecheckerboard="0"
     inkscape:deskcolor="#d1d1d1"
     inkscape:zoom="9.8221551"
     inkscape:cx="36.80455"
     inkscape:cy="41.945988"
     inkscape:window-width="1920"
     inkscape:window-height="1014"
     inkscape:window-x="0"
     inkscape:window-y="0"
     inkscape:window-maximized="1"
     inkscape:current-layer="svg6" />
  <g
     id="g1">
    <g
       id="g2">
      <path
         style="fill:url(#radialGradient15)"
         d="M 12.75,4 C 11.2265,4 10,5.2488 10,6.8 v 50.4 c 0,1.55008 1.2265,2.8 2.75,2.8 h 38.5 C 52.7724,60 54,58.75008 54,57.2 V 22 L 36,4 Z"
         id="path2"
         sodipodi:nodetypes="ssssssccs" />
      <path
         style="opacity:0.457139;fill:#ffffff;fill-opacity:1"
         d="M 54,22 36,4 V 19.1875 C 36,20.74675 37.2555,22 38.8125,22 Z"
         id="path4" />
    </g>
  </g>
  <path
     style="fill:#000000;fill-opacity:1;opacity:0.58586561"
     d="M 27.919121,31.921438 C 27.868736,35.25233 27.549712,38 25.529715,38 24.443631,38 23.152487,37.9912 22.38337,36.627929 21.811554,35.614569 22.301128,34.145032 22.864822,33.01781 23.338913,32.069769 23.032402,31.624788 22.04617,32.015928 16.708707,34.132769 13,37.748971 13,42.047364 c 0,3.404521 2.770316,7.047134 6.417607,9.343845 0.565887,0.356341 0.881076,0.09168 0.725922,-0.558804 -0.43076,-1.805965 -0.939644,-5.129807 0.962218,-5.707405 1.118811,-0.180124 2.510489,0.745856 3.448652,1.831264 0.408522,0.47264 0.599776,0.403011 0.720001,-0.209019 0.147097,-0.748825 0.568948,-1.598885 1.723785,-1.622245 1.81947,-0.0368 4.026086,2.831019 4.777161,5.686055 0.170014,0.646267 0.279295,0.646256 0.449313,-2.2e-5 0.75108,-2.855029 2.957691,-5.722837 4.777155,-5.686033 1.154952,0.02336 1.576772,0.873587 1.723829,1.622467 0.120162,0.611916 0.311424,0.681459 0.719923,0.208838 0.938163,-1.085426 2.329861,-2.011432 3.448687,-1.831305 1.901997,0.577639 1.392905,3.901914 0.962126,5.707791 -0.155117,0.650271 0.160125,0.91476 0.726009,0.558421 C 48.229681,49.094502 51,45.451887 51,42.047364 51,37.748971 47.291293,34.13277 41.953831,32.015929 c -0.986232,-0.391141 -1.292638,0.05397 -0.81849,1.002209 0.563626,1.127179 1.053049,2.596529 0.481288,3.609791 C 40.847512,37.991162 39.556369,38 38.470284,38 36.45028,38 36.131261,35.252307 36.080878,31.921397 36.064829,30.860347 35.479844,30.62458 34.750087,31.395038 l -1.102723,1.164226 A 1.4111232,1.4111232 156.72297 0 1 32.622855,33 H 32 31.377144 a 1.4111228,1.4111228 23.277035 0 1 -1.024508,-0.440736 l -1.102723,-1.164226 c -0.729757,-0.770458 -1.314742,-0.534672 -1.330792,0.5264 z"
     id="path6"
     inkscape:path-effect="#path-effect7"
     inkscape:original-d="m 27.928571,30 c 0,4.125 0,8 -2.398856,8 -1.086084,0 -2.377228,-0.0088 -3.146345,-1.372071 C 21.334421,34.769002 23.857143,31.375 23.857143,31.375 17.566234,33.348268 13,37.277852 13,42.047364 13,45.770854 16.313734,49.77914 20.464286,52 c 0,0 -1.994167,-6.074556 0.641461,-6.875 1.428784,-0.230029 3.302578,1.343856 4.108539,2.75 0,0 -0.289988,-2.708049 1.783899,-2.75 C 29.072074,45.08305 31.64895,48.814836 32,52 c 0.351049,-3.185164 2.927926,-6.91695 5.001814,-6.875 2.073888,0.04195 1.7839,2.75 1.7839,2.75 0.80596,-1.406144 2.679754,-2.980029 4.108539,-2.75 C 45.52988,45.925444 43.535714,52 43.535714,52 47.686265,49.77914 51,45.770854 51,42.047364 51,37.277852 46.433765,33.348268 40.142857,31.375 c 0,0 2.522722,3.394002 1.473772,5.252929 C 40.847512,37.991162 39.556369,38 38.470284,38 36.071429,38 36.071429,34.125 36.071429,30 L 33.22991,33 H 32 30.770089 Z" />
</svg>
