<?xml version="1.0" encoding="UTF-8" standalone="no"?>
<svg
   width="64"
   height="64"
   version="1.1"
   id="svg7"
   sodipodi:docname="application-x.allegorithmic.substance.svg"
   inkscape:version="1.4 (e7c3feb100, 2024-10-09)"
   xmlns:inkscape="http://www.inkscape.org/namespaces/inkscape"
   xmlns:sodipodi="http://sodipodi.sourceforge.net/DTD/sodipodi-0.dtd"
   xmlns:xlink="http://www.w3.org/1999/xlink"
   xmlns="http://www.w3.org/2000/svg"
   xmlns:svg="http://www.w3.org/2000/svg">
  <defs
     id="defs7">
    <radialGradient
       inkscape:collect="always"
       xlink:href="#linearGradient9"
       id="radialGradient10"
       cx="11.199748"
       cy="52.255859"
       fx="11.199748"
       fy="52.255859"
       r="22"
       gradientTransform="matrix(2.3937499,-0.64140334,0.81633154,3.0465908,-58.267754,-94.238478)"
       gradientUnits="userSpaceOnUse" />
    <linearGradient
       id="linearGradient9"
       inkscape:collect="always">
      <stop
         style="stop-color:#28a268;stop-opacity:1;"
         offset="0"
         id="stop9" />
      <stop
         style="stop-color:#1fc327;stop-opacity:1;"
         offset="1"
         id="stop10" />
    </linearGradient>
  </defs>
  <sodipodi:namedview
     id="namedview7"
     pagecolor="#ffffff"
     bordercolor="#000000"
     borderopacity="0.25"
     inkscape:showpageshadow="2"
     inkscape:pageopacity="0.0"
     inkscape:pagecheckerboard="0"
     inkscape:deskcolor="#d1d1d1"
     inkscape:zoom="17.828125"
     inkscape:cx="31.971954"
     inkscape:cy="32"
     inkscape:window-width="3440"
     inkscape:window-height="1361"
     inkscape:window-x="0"
     inkscape:window-y="0"
     inkscape:window-maximized="1"
     inkscape:current-layer="svg7" />
  <g
     id="g1">
    <g
       id="g2">
      <path
         style="fill:url(#radialGradient10);fill-opacity:1"
         d="M 12.75,4 C 11.2265,4 10,5.2488 10,6.8 v 50.4 c 0,1.55008 1.2265,2.8 2.75,2.8 h 38.5 C 52.7724,60 54,58.75008 54,57.2 V 22 L 36,4 Z"
         id="path2"
         sodipodi:nodetypes="ssssssccs" />
      <path
         style="opacity:0.537555;fill:#ffffff;fill-opacity:1"
         d="M 54,22 36,4 V 19.1875 C 36,20.74675 37.2555,22 38.8125,22 Z"
         id="path4" />
    </g>
  </g>
  <path
     style="fill:#ffffff"
     d="m 32,27 -12,7 v 5.5 L 37.585,44.776 32,48 25,44 V 43 L 20,41.5 V 47 l 12,7 12,-7 V 41.5 L 26.415,36.225 32,33 l 7,4 v 1 l 5,1.5 V 34 Z"
     id="path7" />
</svg>
