<?xml version="1.0" encoding="UTF-8" standalone="no"?>
<svg
   width="64"
   height="64"
   version="1.1"
   id="svg13"
   sodipodi:docname="application-x-ipynb+json.svg"
   inkscape:version="1.4 (e7c3feb100, 2024-10-09)"
   xmlns:inkscape="http://www.inkscape.org/namespaces/inkscape"
   xmlns:sodipodi="http://sodipodi.sourceforge.net/DTD/sodipodi-0.dtd"
   xmlns:xlink="http://www.w3.org/1999/xlink"
   xmlns="http://www.w3.org/2000/svg"
   xmlns:svg="http://www.w3.org/2000/svg">
  <defs
     id="defs13">
    <radialGradient
       inkscape:collect="always"
       xlink:href="#linearGradient2"
       id="radialGradient9"
       cx="20.238163"
       cy="45.446491"
       fx="20.238163"
       fy="45.446491"
       r="22"
       gradientTransform="matrix(2.2768343,-1.3145309,1.6730393,2.8977891,-103.5617,-78.365997)"
       gradientUnits="userSpaceOnUse" />
    <linearGradient
       id="linearGradient2"
       inkscape:collect="always">
      <stop
         style="stop-color:#00b1ff;stop-opacity:1;"
         offset="0"
         id="stop1" />
      <stop
         style="stop-color:#136dff;stop-opacity:1;"
         offset="1"
         id="stop2" />
    </linearGradient>
  </defs>
  <sodipodi:namedview
     id="namedview13"
     pagecolor="#ffffff"
     bordercolor="#000000"
     borderopacity="0.25"
     inkscape:showpageshadow="2"
     inkscape:pageopacity="0.0"
     inkscape:pagecheckerboard="0"
     inkscape:deskcolor="#d1d1d1"
     inkscape:zoom="17.828125"
     inkscape:cx="32"
     inkscape:cy="32"
     inkscape:window-width="3440"
     inkscape:window-height="1361"
     inkscape:window-x="0"
     inkscape:window-y="0"
     inkscape:window-maximized="1"
     inkscape:current-layer="svg13" />
  <g
     id="g2"
     transform="translate(0.0397662,0.06140005)">
    <path
       style="fill:url(#radialGradient9)"
       d="m 12.710234,3.9385999 c -1.5235,0 -2.7500004,1.2487999 -2.7500004,2.7999999 V 57.1386 c 0,1.55008 1.2265004,2.8 2.7500004,2.8 h 38.5 c 1.5224,0 2.75,-1.24992 2.75,-2.8 v -35.2 l -18,-18.0000001 z"
       id="path2-6"
       sodipodi:nodetypes="ssssssccs" />
    <path
       style="opacity:0.533302;fill:#ffffff;fill-opacity:1"
       d="m 53.960234,21.9386 -18,-18.0000001 V 19.1261 c 0,1.55925 1.2555,2.8125 2.8125,2.8125 z"
       id="path4-5" />
  </g>
  <path
     id="rect5"
     style="fill:#ffffff;fill-opacity:1"
     d="M 17 28 L 17 31 L 17 55 L 20 55 L 24 55 L 24 52 L 20 52 L 20 31 L 24 31 L 24 28 L 17 28 z M 38 28 L 38 31 L 42 31 L 42 52 L 38 52 L 38 55 L 45 55 L 45 52 L 45 28 L 38 28 z M 26.410156 31.806641 L 23.714844 33.125 L 30.578125 47.146484 C 30.344895 47.592845 30.111829 48.016089 29.880859 48.400391 C 29.363184 49.261733 28.850373 49.944809 28.443359 50.341797 C 28.036346 50.738786 27.798995 50.765625 27.863281 50.765625 L 26.662109 50.765625 L 26.662109 53.765625 L 27.863281 53.765625 C 28.977567 53.765625 29.833966 53.176058 30.537109 52.490234 C 31.240252 51.80441 31.853222 50.940221 32.451172 49.945312 C 33.647071 47.955497 34.757132 45.428087 35.736328 42.910156 C 37.694719 37.874292 39.105469 32.875 39.105469 32.875 L 36.21875 32.058594 C 36.21875 32.058594 34.831062 36.958129 32.939453 41.822266 C 32.701709 42.433607 32.456697 43.045279 32.205078 43.644531 L 26.410156 31.806641 z M 47.5 34 A 1.5 1.5 0 0 0 46 35.5 A 1.5 1.5 0 0 0 47.5 37 A 1.5 1.5 0 0 0 49 35.5 A 1.5 1.5 0 0 0 47.5 34 z M 47.5 48 A 1.5 1.5 0 0 0 46 49.5 A 1.5 1.5 0 0 0 47.5 51 A 1.5 1.5 0 0 0 49 49.5 A 1.5 1.5 0 0 0 47.5 48 z " />
</svg>
