<?xml version="1.0" encoding="UTF-8" standalone="no"?>
<svg
   width="64"
   height="64"
   version="1.1"
   id="svg7"
   sodipodi:docname="application-vnd.scribus.svg"
   inkscape:version="1.4 (e7c3feb100, 2024-10-09)"
   xmlns:inkscape="http://www.inkscape.org/namespaces/inkscape"
   xmlns:sodipodi="http://sodipodi.sourceforge.net/DTD/sodipodi-0.dtd"
   xmlns:xlink="http://www.w3.org/1999/xlink"
   xmlns="http://www.w3.org/2000/svg"
   xmlns:svg="http://www.w3.org/2000/svg">
  <defs
     id="defs7">
    <radialGradient
       inkscape:collect="always"
       xlink:href="#linearGradient2"
       id="radialGradient9"
       cx="20.238163"
       cy="45.446491"
       fx="20.238163"
       fy="45.446491"
       r="22"
       gradientTransform="matrix(2.2768343,-1.3145309,1.6730393,2.8977891,-103.5617,-78.365997)"
       gradientUnits="userSpaceOnUse" />
    <linearGradient
       id="linearGradient2"
       inkscape:collect="always">
      <stop
         style="stop-color:#00b1ff;stop-opacity:1;"
         offset="0"
         id="stop1" />
      <stop
         style="stop-color:#136dff;stop-opacity:1;"
         offset="1"
         id="stop2" />
    </linearGradient>
  </defs>
  <sodipodi:namedview
     id="namedview7"
     pagecolor="#ffffff"
     bordercolor="#000000"
     borderopacity="0.25"
     inkscape:showpageshadow="2"
     inkscape:pageopacity="0.0"
     inkscape:pagecheckerboard="0"
     inkscape:deskcolor="#d1d1d1"
     inkscape:zoom="13.890625"
     inkscape:cx="32.035996"
     inkscape:cy="32.071991"
     inkscape:window-width="3440"
     inkscape:window-height="1361"
     inkscape:window-x="0"
     inkscape:window-y="0"
     inkscape:window-maximized="1"
     inkscape:current-layer="svg7" />
  <g
     id="g2"
     transform="translate(0.0397662,0.06140005)">
    <path
       style="fill:url(#radialGradient9)"
       d="m 12.710234,3.9385999 c -1.5235,0 -2.7500004,1.2487999 -2.7500004,2.7999999 V 57.1386 c 0,1.55008 1.2265004,2.8 2.7500004,2.8 h 38.5 c 1.5224,0 2.75,-1.24992 2.75,-2.8 v -35.2 l -18,-18.0000001 z"
       id="path2-6"
       sodipodi:nodetypes="ssssssccs" />
    <path
       style="opacity:0.533302;fill:#ffffff;fill-opacity:1"
       d="m 53.960234,21.9386 -18,-18.0000001 V 19.1261 c 0,1.55925 1.2555,2.8125 2.8125,2.8125 z"
       id="path4-5" />
  </g>
  <path
     style="fill:#ffffff;fill-rule:evenodd"
     d="m 34.249662,26.705692 c -3.677737,6.026216 -6.594077,11.40466 -8.477662,17.43338 -0.997877,3.22687 -1.897875,6.56904 -2.772,9.811166 1.42425,0.1166 1.150537,-0.0096 2.249662,2.52e-4 0.808875,-1.753474 2.424713,-3.421942 3.547463,-4.639238 2.786623,-2.80839 5.441625,-4.06601 8.827873,-5.168878 0.0495,-3.306424 -0.199103,-6.585604 1.184627,-9.485534 C 39.376627,33.45153 40.2665,32.15904 41,31.064888 c 0,-3.26937 -3.375002,-6.538742 -6.75,-4.35916 z"
     id="path6" />
</svg>
