<?xml version="1.0" encoding="UTF-8" standalone="no"?>
<svg
   width="64"
   height="64"
   version="1.1"
   id="svg7"
   sodipodi:docname="application-vnd.mysql-workbench-model.svg"
   inkscape:version="1.4 (e7c3feb100, 2024-10-09)"
   xmlns:inkscape="http://www.inkscape.org/namespaces/inkscape"
   xmlns:sodipodi="http://sodipodi.sourceforge.net/DTD/sodipodi-0.dtd"
   xmlns:xlink="http://www.w3.org/1999/xlink"
   xmlns="http://www.w3.org/2000/svg"
   xmlns:svg="http://www.w3.org/2000/svg">
  <defs
     id="defs7">
    <linearGradient
       id="linearGradient12"
       inkscape:collect="always">
      <stop
         style="stop-color:#005e6a;stop-opacity:1;"
         offset="0"
         id="stop13" />
      <stop
         style="stop-color:#003a6a;stop-opacity:1;"
         offset="1"
         id="stop14" />
    </linearGradient>
    <radialGradient
       inkscape:collect="always"
       xlink:href="#linearGradient12"
       id="radialGradient10"
       cx="13.687016"
       cy="51.762657"
       fx="13.687016"
       fy="51.762657"
       r="22"
       gradientTransform="matrix(2.2102385,-1.2760818,1.6241041,2.8130308,-100.6325,-70.991724)"
       gradientUnits="userSpaceOnUse" />
  </defs>
  <sodipodi:namedview
     id="namedview7"
     pagecolor="#ffffff"
     bordercolor="#000000"
     borderopacity="0.25"
     inkscape:showpageshadow="2"
     inkscape:pageopacity="0.0"
     inkscape:pagecheckerboard="0"
     inkscape:deskcolor="#d1d1d1"
     inkscape:zoom="13.890625"
     inkscape:cx="32.035996"
     inkscape:cy="32.071991"
     inkscape:window-width="3440"
     inkscape:window-height="1361"
     inkscape:window-x="0"
     inkscape:window-y="0"
     inkscape:window-maximized="1"
     inkscape:current-layer="svg7" />
  <path
     style="fill:url(#radialGradient10)"
     d="m 12.75,4.0000002 c -1.5235,0 -2.75,1.2488002 -2.75,2.8000002 V 57.2 c 0,1.550081 1.2265,2.8 2.75,2.8 h 38.5 C 52.7724,60 54,58.75008 54,57.2 V 22 L 36,4.0000002 Z"
     id="path2-3"
     sodipodi:nodetypes="ssssssccs" />
  <path
     style="fill:#ffffff"
     d="M 19.566406 26 C 18.372127 25.974177 17.81067 26.816763 18.056641 28.267578 C 18.135978 28.735177 18.537945 29.403457 19.404297 30.509766 C 20.367726 31.740107 20.754065 32.410664 21.173828 33.574219 C 21.835646 35.408631 22.141974 36.022399 22.679688 36.595703 C 23.097381 37.041016 23.097012 37.04278 22.816406 37.951172 C 22.381295 39.359776 22.293303 42.184 22.642578 43.511719 C 23.1653 45.498865 23.808307 46.400391 24.705078 46.400391 C 25.345635 46.400391 25.870737 45.854944 26.058594 44.994141 C 26.123731 44.695695 26.245778 44.269797 26.330078 44.046875 C 26.475618 43.662218 26.514352 43.691278 27.083984 44.638672 C 27.414064 45.187784 28.041878 46.006917 28.480469 46.457031 C 29.493706 47.496763 30.884021 48.668389 30.984375 48.568359 C 31.026725 48.526152 30.622955 47.910327 30.085938 47.199219 C 29.548922 46.488124 28.535295 44.83669 27.833984 43.529297 C 27.015981 42.004438 26.461067 41.151491 26.287109 41.150391 C 25.721715 41.14645 25.194145 42.054579 24.888672 43.558594 C 24.536737 45.291201 23.917814 45.000076 23.414062 42.865234 C 23.123774 41.634997 23.274978 39.977393 23.816406 38.425781 C 24.062708 37.719901 24.263672 37.068606 24.263672 36.978516 C 24.263672 36.888396 23.869398 36.131575 23.388672 35.296875 C 22.907936 34.462166 22.343701 33.279085 22.134766 32.667969 C 21.627166 31.183245 21.386359 30.750855 20.367188 29.490234 C 19.317245 28.191553 19.218484 27.592056 20.054688 27.597656 C 20.704179 27.60201 21.752804 28.048982 22.806641 28.771484 C 23.473742 29.228903 23.698191 29.289062 24.769531 29.289062 C 26.114921 29.289063 26.406271 29.402491 28.271484 30.654297 C 30.17108 31.929126 31.586114 33.114532 32.566406 34.251953 C 33.437025 35.262027 33.910721 36.141254 36.472656 41.496094 C 37.456167 43.551604 38.328374 44.541967 39.53125 44.966797 C 41.389109 45.623056 42.023252 45.920789 42.841797 46.519531 L 43.707031 47.152344 L 43.123047 47.265625 C 42.80208 47.328364 42.10512 47.431421 41.572266 47.494141 C 40.462046 47.624911 39.734375 48.095677 39.734375 48.683594 C 39.734375 49.346052 41.94915 51.242144 44.169922 52.480469 C 45.23681 53.075395 46.264155 53.660899 46.451172 53.783203 C 46.948783 54.108675 47.083521 54.071425 46.955078 53.642578 C 46.686106 52.744402 45.776945 51.869035 43.248047 50.072266 C 41.764536 49.018265 41.748739 49.055844 43.730469 48.855469 C 45.14383 48.712554 45.855469 48.465636 45.855469 48.119141 C 45.855469 47.961512 45.138758 47.122274 44.261719 46.251953 C 42.888367 44.889079 42.422813 44.546838 40.910156 43.796875 C 38.849817 42.775394 38.099798 41.965708 37.625 40.246094 C 36.916468 37.679845 35.01021 34.66515 32.478516 32.109375 C 29.864794 29.470844 27.370939 28.011931 25.083984 27.783203 C 24.154298 27.690222 23.673837 27.54626 23.193359 27.214844 C 22.378874 26.653052 20.489752 26.01998 19.566406 26 z M 23.869141 30.966797 C 23.717025 30.955002 23.583071 30.981479 23.492188 31.056641 C 23.153129 31.337066 23.195563 31.678273 23.59375 31.890625 C 23.780924 31.99044 24.04721 32.341941 24.185547 32.671875 C 24.650736 33.781298 25.363021 33.038295 25.044922 31.775391 C 24.944639 31.377302 24.325486 31.002182 23.869141 30.966797 z"
     id="path6" />
  <path
     style="opacity:0.523832;fill:#ffffff;fill-opacity:1"
     d="M 54,22 36,4.0000002 V 19.187501 C 36,20.746751 37.2555,22 38.8125,22 Z"
     id="path4-6" />
</svg>
