<?xml version="1.0" encoding="UTF-8" standalone="no"?>
<svg
   width="64"
   height="64"
   version="1.1"
   id="svg8"
   sodipodi:docname="application-vnd.jgraph.mxfile.svg"
   inkscape:version="1.4 (e7c3feb100, 2024-10-09)"
   xmlns:inkscape="http://www.inkscape.org/namespaces/inkscape"
   xmlns:sodipodi="http://sodipodi.sourceforge.net/DTD/sodipodi-0.dtd"
   xmlns:xlink="http://www.w3.org/1999/xlink"
   xmlns="http://www.w3.org/2000/svg"
   xmlns:svg="http://www.w3.org/2000/svg">
  <defs
     id="defs8">
    <radialGradient
       inkscape:collect="always"
       xlink:href="#linearGradient9"
       id="radialGradient10"
       cx="13.687016"
       cy="51.762657"
       fx="13.687016"
       fy="51.762657"
       r="22"
       gradientTransform="matrix(2.2102385,-1.2760818,1.6241041,2.8130308,-100.6325,-71.991724)"
       gradientUnits="userSpaceOnUse" />
    <linearGradient
       id="linearGradient9"
       inkscape:collect="always">
      <stop
         style="stop-color:#ff9e22;stop-opacity:1;"
         offset="0"
         id="stop9" />
      <stop
         style="stop-color:#ff6122;stop-opacity:1;"
         offset="1"
         id="stop10" />
    </linearGradient>
  </defs>
  <sodipodi:namedview
     id="namedview8"
     pagecolor="#ffffff"
     bordercolor="#000000"
     borderopacity="0.25"
     inkscape:showpageshadow="2"
     inkscape:pageopacity="0.0"
     inkscape:pagecheckerboard="0"
     inkscape:deskcolor="#d1d1d1"
     inkscape:zoom="13.890625"
     inkscape:cx="32.035996"
     inkscape:cy="32.071991"
     inkscape:window-width="3440"
     inkscape:window-height="1361"
     inkscape:window-x="0"
     inkscape:window-y="0"
     inkscape:window-maximized="1"
     inkscape:current-layer="svg8" />
  <g
     id="g1"
     transform="translate(1e-6,0.9999998)">
    <g
       id="g2">
      <path
         style="fill:url(#radialGradient10)"
         d="m 12.749999,3.0000004 c -1.5235,0 -2.75,1.2488002 -2.75,2.8000002 V 56.2 c 0,1.550081 1.2265,2.8 2.75,2.8 h 38.5 c 1.5224,0 2.75,-1.24992 2.75,-2.8 V 21 l -18,-17.9999996 z"
         id="path2"
         sodipodi:nodetypes="ssssssccs" />
      <path
         style="opacity:0.523832;fill:#ffffff;fill-opacity:1"
         d="m 53.999999,21 -18,-17.9999996 V 18.187501 c 0,1.55925 1.2555,2.812499 2.8125,2.812499 z"
         id="path4" />
    </g>
  </g>
  <path
     style="fill:none;stroke:#3f3f3f;stroke-width:1.93847"
     d="M 23.276922,48.153845 32,32.646153 40.723077,48.153845"
     id="path6" />
  <path
     style="fill:#ffffff"
     d="M 28 28 C 26.892 28 26 28.892 26 30 L 26 36 C 26 37.108 26.892 38 28 38 L 36 38 C 37.107999 38 38 37.108 38 36 L 38 30 C 38 28.892 37.107999 28 36 28 L 28 28 z M 20 43 C 18.892 43 18 43.892001 18 45 L 18 51 C 18 52.108 18.892 53 20 53 L 28 53 C 29.107999 53 30 52.108 30 51 L 30 45 C 30 43.892001 29.107999 43 28 43 L 20 43 z M 36 43 C 34.892 43 34 43.892001 34 45 L 34 51 C 34 52.108 34.892 53 36 53 L 44 53 C 45.107999 53 46 52.108 46 51 L 46 45 C 46 43.892001 45.107999 43 44 43 L 36 43 z"
     id="path8" />
</svg>
