<?xml version="1.0" encoding="UTF-8" standalone="no"?>
<svg
   width="64"
   height="64"
   version="1.1"
   id="svg8"
   sodipodi:docname="application-x-trash.svg"
   inkscape:version="1.3.2 (091e20ef0f, 2023-11-25, custom)"
   xmlns:inkscape="http://www.inkscape.org/namespaces/inkscape"
   xmlns:sodipodi="http://sodipodi.sourceforge.net/DTD/sodipodi-0.dtd"
   xmlns:xlink="http://www.w3.org/1999/xlink"
   xmlns="http://www.w3.org/2000/svg"
   xmlns:svg="http://www.w3.org/2000/svg">
  <defs
     id="defs8">
    <filter
       inkscape:collect="always"
       style="color-interpolation-filters:sRGB"
       id="filter7"
       x="-0.031614057"
       y="-0.024839616"
       width="1.0632281"
       height="1.0496792">
      <feGaussianBlur
         inkscape:collect="always"
         stdDeviation="0.57959106"
         id="feGaussianBlur7" />
    </filter>
    <radialGradient
       inkscape:collect="always"
       xlink:href="#linearGradient7"
       id="radialGradient8"
       cx="13.860722"
       cy="50.874687"
       fx="13.860722"
       fy="50.874687"
       r="22"
       gradientTransform="matrix(2.15787,-1.2458468,1.5856233,2.7463801,-96.325983,-67.039541)"
       gradientUnits="userSpaceOnUse" />
    <linearGradient
       id="linearGradient7"
       inkscape:collect="always">
      <stop
         style="stop-color:#ffffff;stop-opacity:1;"
         offset="0"
         id="stop7" />
      <stop
         style="stop-color:#c9c9c9;stop-opacity:1;"
         offset="1"
         id="stop8" />
    </linearGradient>
    <filter
       inkscape:collect="always"
       style="color-interpolation-filters:sRGB"
       id="filter6"
       x="-0.077278805"
       y="-0.077278803"
       width="1.1545576"
       height="1.1545576">
      <feGaussianBlur
         inkscape:collect="always"
         stdDeviation="0.57959106"
         id="feGaussianBlur6" />
    </filter>
    <radialGradient
       inkscape:collect="always"
       xlink:href="#linearGradient8"
       id="radialGradient10"
       cx="58.856777"
       cy="-0.47705048"
       fx="58.856777"
       fy="-0.47705048"
       r="9"
       gradientUnits="userSpaceOnUse"
       gradientTransform="matrix(-3.6697035,0,0,-3.6697019,252.42576,17.319856)" />
    <linearGradient
       id="linearGradient8"
       inkscape:collect="always">
      <stop
         style="stop-color:#fafafa;stop-opacity:1;"
         offset="0"
         id="stop9" />
      <stop
         style="stop-color:#aaaaaa;stop-opacity:1;"
         offset="1"
         id="stop10" />
    </linearGradient>
    <radialGradient
       id="SVGID_2_"
       cx="11.483"
       cy="63.456902"
       r="36.125301"
       gradientTransform="matrix(0.51930749,0,0,-0.51930749,16.255954,59.032363)"
       gradientUnits="userSpaceOnUse">
      <stop
         offset="0"
         style="stop-color:#707070"
         id="stop3" />
      <stop
         offset="1"
         style="stop-color:#454545"
         id="stop4" />
    </radialGradient>
    <radialGradient
       id="SVGID_1_"
       cx="19.542999"
       cy="43.0602"
       r="37.8494"
       gradientTransform="matrix(0.51930749,0,0,-0.51930749,16.255954,59.032363)"
       gradientUnits="userSpaceOnUse">
      <stop
         offset="0"
         style="stop-color:#707070"
         id="stop1" />
      <stop
         offset="1"
         style="stop-color:#454545"
         id="stop2" />
    </radialGradient>
  </defs>
  <sodipodi:namedview
     id="namedview8"
     pagecolor="#ffffff"
     bordercolor="#000000"
     borderopacity="0.25"
     inkscape:showpageshadow="2"
     inkscape:pageopacity="0.0"
     inkscape:pagecheckerboard="0"
     inkscape:deskcolor="#d1d1d1"
     inkscape:zoom="13.890625"
     inkscape:cx="32"
     inkscape:cy="32"
     inkscape:window-width="1920"
     inkscape:window-height="1018"
     inkscape:window-x="0"
     inkscape:window-y="0"
     inkscape:window-maximized="1"
     inkscape:current-layer="svg8" />
  <g
     id="g8">
    <path
       style="opacity:0.511511;filter:url(#filter7)"
       d="m 13.141019,4.3910185 c -1.523501,0 -2.75,1.2488 -2.75,2.8 V 57.591018 c 0,1.55008 1.226499,2.8 2.75,2.8 h 38.5 c 1.522399,10e-7 2.75,-1.24992 2.75,-2.799999 v -35.2 l -14,-4 -4,-14.0000005 z"
       id="path1" />
    <path
       style="fill:url(#radialGradient8)"
       d="m 13.141019,3.3910185 c -1.523501,0 -2.75,1.2488 -2.75,2.8 V 56.591018 c 0,1.55008 1.226499,2.8 2.75,2.8 h 38.5 c 1.522399,10e-7 2.75,-1.24992 2.75,-2.799999 v -35.2 l -14,-4 -4,-14.0000005 z"
       id="path2" />
    <path
       style="opacity:0.511511;filter:url(#filter6)"
       d="m 54.391019,22.391019 -18,-18.0000005 V 19.578519 c 0,1.559249 1.255499,2.8125 2.8125,2.8125 z"
       id="path3" />
    <path
       style="fill:url(#radialGradient10)"
       d="m 54.391019,21.391019 -18,-18.0000005 V 18.578519 c 0,1.559249 1.255499,2.8125 2.8125,2.8125 z"
       id="path4" />
  </g>
  <g
     id="g1"
     style="opacity:0.616369;stroke-width:0.899356"
     transform="matrix(1.1119064,0,0,1.1119064,-3.5871939,-6.1796326)">
    <path
       class="st1"
       d="m 28.164078,35.183576 h 9.345882 c 2.307625,0 4.192186,1.884561 4.192186,4.192186 V 51.02927 c 0,2.307625 -1.884561,4.192185 -4.192186,4.192185 h -9.345882 c -2.307625,0 -4.192186,-1.88456 -4.192186,-4.192185 V 39.375762 c 0,-2.307625 1.884561,-4.192186 4.192186,-4.192186 z"
       id="path2-5"
       style="opacity:0.88218;fill:#000000;fill-opacity:1;stroke-width:0.899356" />
    <path
       class="st2"
       d="m 29.13447,32.850989 4.505063,-1.002468 c 0.638218,-0.142017 1.234867,0.237432 1.376883,0.875649 v 0 c 0.142017,0.638218 -0.237431,1.234866 -0.875649,1.376882 l -4.505063,1.002468 c -0.638217,0.142017 -1.234865,-0.23743 -1.376882,-0.875648 v 0 c -0.142016,-0.638217 0.237431,-1.234867 0.875648,-1.376883 z m -5.46425,2.00393 15.767721,-3.508639 c 1.238893,-0.275679 2.478087,0.512406 2.753766,1.751297 v 0 c 0.275678,1.238893 -0.512405,2.478088 -1.751297,2.753767 l -15.767722,3.508639 c -1.238892,0.275678 -2.478087,-0.512406 -2.753766,-1.751299 v 0 c -0.275678,-1.238891 0.512405,-2.478086 1.751298,-2.753765 z"
       id="path4-5"
       style="opacity:1;fill:#000000;fill-opacity:1;stroke-width:0.899356" />
  </g>
  <path
     class="st3"
     d="M 38.034842,40.211157 V 50.47461 M 32.903115,40.211157 V 50.47461 M 27.771387,40.211157 V 50.47461"
     id="path5"
     style="opacity:0.618393;fill:none;stroke:#ffffff;stroke-width:2.40001;stroke-linecap:round;stroke-dasharray:none;stroke-opacity:1;enable-background:new" />
</svg>
