<?xml version="1.0" encoding="UTF-8" standalone="no"?>
<svg
   width="64"
   height="64"
   version="1.1"
   id="svg7"
   sodipodi:docname="openoffice4-database.svg"
   inkscape:version="1.3.2 (091e20ef0f, 2023-11-25, custom)"
   xmlns:inkscape="http://www.inkscape.org/namespaces/inkscape"
   xmlns:sodipodi="http://sodipodi.sourceforge.net/DTD/sodipodi-0.dtd"
   xmlns:xlink="http://www.w3.org/1999/xlink"
   xmlns="http://www.w3.org/2000/svg"
   xmlns:svg="http://www.w3.org/2000/svg">
  <defs
     id="defs7">
    <radialGradient
       inkscape:collect="always"
       xlink:href="#linearGradient4"
       id="radialGradient15"
       cx="17.386076"
       cy="47.039314"
       fx="17.386076"
       fy="47.039314"
       r="22"
       gradientTransform="matrix(2.0221847,-2.0221847,2.5736897,2.5736897,-138.00161,-36.688012)"
       gradientUnits="userSpaceOnUse" />
    <linearGradient
       id="linearGradient4"
       inkscape:collect="always">
      <stop
         style="stop-color:#ff4f54;stop-opacity:1;"
         offset="0"
         id="stop3" />
      <stop
         style="stop-color:#fa7e6a;stop-opacity:1;"
         offset="1"
         id="stop4" />
    </linearGradient>
  </defs>
  <sodipodi:namedview
     id="namedview7"
     pagecolor="#ffffff"
     bordercolor="#000000"
     borderopacity="0.25"
     inkscape:showpageshadow="2"
     inkscape:pageopacity="0.0"
     inkscape:pagecheckerboard="0"
     inkscape:deskcolor="#d1d1d1"
     inkscape:zoom="13.890625"
     inkscape:cx="36.607424"
     inkscape:cy="33.04387"
     inkscape:window-width="1920"
     inkscape:window-height="1014"
     inkscape:window-x="0"
     inkscape:window-y="0"
     inkscape:window-maximized="1"
     inkscape:current-layer="svg7" />
  <g
     id="g1">
    <g
       id="g2">
      <path
         style="fill:url(#radialGradient15)"
         d="M 12.75,4 C 11.2265,4 10,5.2488 10,6.8 v 50.4 c 0,1.55008 1.2265,2.8 2.75,2.8 h 38.5 C 52.7724,60 54,58.75008 54,57.2 V 22 L 36,4 Z"
         id="path2"
         sodipodi:nodetypes="ssssssccs" />
      <path
         style="opacity:0.457139;fill:#ffffff;fill-opacity:1"
         d="M 54,22 36,4 V 19.1875 C 36,20.74675 37.2555,22 38.8125,22 Z"
         id="path4" />
    </g>
  </g>
  <path
     style="fill:#ffffff"
     d="m 32,29 c -4.194948,0 -7.77697,1.552562 -9.261718,3.75 -0.12464,0.18448 -0.234066,0.373336 -0.328126,0.566406 -0.08938,0.18348 -0.16638,0.368282 -0.226562,0.558594 a 10.000219,6.0002448 0 0 0 -0.04298,0.17578 c -0.03426,0.129 -0.07342,0.259054 -0.09374,0.390624 A 10.000219,6.0002448 0 0 0 22,35 c 5.5e-4,0.195 0.0188,0.388688 0.05078,0.582032 a 10.000219,6.0002448 0 0 0 0.13672,0.5625 10.000219,6.0002448 0 0 0 0.230468,0.5625 A 10.000219,6.0002448 0 0 0 22.738282,37.25 10.000219,6.0002448 0 0 0 32,41 a 10.000219,6.0002448 0 0 0 9.265624,-3.75 10.000219,6.0002448 0 0 0 0,-0.0078 10.000219,6.0002448 0 0 0 0.273438,-0.460938 c 0.016,-0.03042 0.03182,-0.0593 0.04688,-0.08984 a 10.000219,6.0002448 0 0 0 0.16796,-0.398438 c 0.0233,-0.06276 0.0504,-0.1243 0.07032,-0.1875 a 10.000219,6.0002448 0 0 0 0.08204,-0.335936 c 0.0192,-0.088 0.03802,-0.17322 0.05078,-0.26172 A 10.000219,6.0002448 0 0 0 42,35 10.000219,6.0002448 0 0 0 41.945312,34.402344 C 41.849612,33.82182 41.613154,33.26902 41.261718,32.75 39.7774,30.552408 36.194378,29 32,29 Z m -9.40625,10.003906 c -0.06178,0.10402 -0.13152,0.2056 -0.1836,0.3125 -0.08938,0.18348 -0.16638,0.368282 -0.226562,0.558594 a 10.000219,6.0002448 0 0 0 -0.04298,0.17578 c -0.03426,0.129 -0.07344,0.259054 -0.09374,0.390624 A 10.000219,6.0002448 0 0 0 22,41 c 5.5e-4,0.195 0.0188,0.388688 0.05078,0.582032 a 10.000219,6.0002448 0 0 0 0.13672,0.5625 10.000219,6.0002448 0 0 0 0.230468,0.5625 A 10.000219,6.0002448 0 0 0 22.738282,43.25 10.000219,6.0002448 0 0 0 32,47 a 10.000219,6.0002448 0 0 0 9.265624,-3.75 10.000219,6.0002448 0 0 0 0,-0.0078 10.000219,6.0002448 0 0 0 0.273438,-0.460938 c 0.016,-0.03042 0.03182,-0.0593 0.04688,-0.08984 a 10.000219,6.0002448 0 0 0 0.16796,-0.398438 c 0.0233,-0.06276 0.0504,-0.1243 0.07032,-0.1875 a 10.000219,6.0002448 0 0 0 0.08204,-0.335936 c 0.0192,-0.088 0.03802,-0.17322 0.05078,-0.26172 A 10.000219,6.0002448 0 0 0 42,41 10.000219,6.0002448 0 0 0 41.945312,40.402344 c -0.08018,-0.486372 -0.280184,-0.946572 -0.542968,-1.390626 a 10.000219,6.0002448 0 0 1 -0.13672,0.23047 10.000219,6.0002448 0 0 1 0,0.0078 A 10.000219,6.0002448 0 0 1 32,43 10.000219,6.0002448 0 0 1 22.738282,39.25 10.000219,6.0002448 0 0 1 22.59375,39.003906 Z m 0,6 c -0.06178,0.10402 -0.13152,0.2056 -0.1836,0.3125 -0.08938,0.18348 -0.16638,0.368282 -0.226562,0.558594 a 10.000219,6.0002448 0 0 0 -0.04298,0.17578 c -0.03426,0.129 -0.07342,0.259054 -0.09374,0.390624 A 10.000219,6.0002448 0 0 0 22,47 c 5.5e-4,0.195 0.0188,0.388688 0.05078,0.582032 a 10.000219,6.0002448 0 0 0 0.13672,0.5625 10.000219,6.0002448 0 0 0 0.230468,0.5625 A 10.000219,6.0002448 0 0 0 22.738282,49.25 10.000219,6.0002448 0 0 0 32,53 a 10.000219,6.0002448 0 0 0 9.265624,-3.75 10.000219,6.0002448 0 0 0 0,-0.0078 10.000219,6.0002448 0 0 0 0.273438,-0.460938 c 0.016,-0.03042 0.03182,-0.0593 0.04688,-0.08984 a 10.000219,6.0002448 0 0 0 0.16796,-0.398438 c 0.0233,-0.06276 0.0504,-0.1243 0.07032,-0.1875 a 10.000219,6.0002448 0 0 0 0.08204,-0.335936 c 0.0192,-0.088 0.03802,-0.17322 0.05078,-0.26172 A 10.000219,6.0002448 0 0 0 42,47 10.000219,6.0002448 0 0 0 41.945312,46.402344 c -0.08018,-0.486372 -0.280184,-0.946572 -0.542968,-1.390626 a 10.000219,6.0002448 0 0 1 -0.13672,0.23047 10.000219,6.0002448 0 0 1 0,0.0078 A 10.000219,6.0002448 0 0 1 32,49 10.000219,6.0002448 0 0 1 22.738282,45.25 10.000219,6.0002448 0 0 1 22.59375,45.003906 Z"
     id="path6" />
</svg>
