<?xml version="1.0" encoding="UTF-8" standalone="no"?>
<svg
   width="64"
   height="64"
   version="1"
   id="svg9"
   sodipodi:docname="application-illustrator.svg"
   inkscape:version="1.3.2 (091e20ef0f, 2023-11-25, custom)"
   xmlns:inkscape="http://www.inkscape.org/namespaces/inkscape"
   xmlns:sodipodi="http://sodipodi.sourceforge.net/DTD/sodipodi-0.dtd"
   xmlns:xlink="http://www.w3.org/1999/xlink"
   xmlns="http://www.w3.org/2000/svg"
   xmlns:svg="http://www.w3.org/2000/svg">
  <defs
     id="defs9">
    <radialGradient
       inkscape:collect="always"
       xlink:href="#linearGradient9"
       id="radialGradient10"
       cx="13.030433"
       cy="49.4501"
       fx="13.030433"
       fy="49.4501"
       r="22"
       gradientTransform="matrix(2.2649253,-1.3076552,1.6642885,2.8826322,-99.064972,-71.137182)"
       gradientUnits="userSpaceOnUse" />
    <linearGradient
       id="linearGradient9"
       inkscape:collect="always">
      <stop
         style="stop-color:#f78330;stop-opacity:1;"
         offset="0"
         id="stop9" />
      <stop
         style="stop-color:#e6664a;stop-opacity:1;"
         offset="1"
         id="stop10" />
    </linearGradient>
  </defs>
  <sodipodi:namedview
     id="namedview9"
     pagecolor="#ffffff"
     bordercolor="#000000"
     borderopacity="0.25"
     inkscape:showpageshadow="2"
     inkscape:pageopacity="0.0"
     inkscape:pagecheckerboard="0"
     inkscape:deskcolor="#d1d1d1"
     inkscape:zoom="13.71875"
     inkscape:cx="27.954442"
     inkscape:cy="32.510251"
     inkscape:window-width="1920"
     inkscape:window-height="1014"
     inkscape:window-x="0"
     inkscape:window-y="0"
     inkscape:window-maximized="1"
     inkscape:current-layer="svg9" />
  <g
     id="g1"
     transform="translate(0.28321625,-0.1607369)">
    <path
       style="fill:url(#radialGradient10)"
       d="m 12.466784,4.1607368 c -1.5235,0 -2.7500005,1.2488 -2.7500005,2.8 V 57.360737 c 0,1.55008 1.2265005,2.8 2.7500005,2.8 h 38.5 c 1.5224,0 2.75,-1.24992 2.75,-2.8 v -35.2 l -18,-18.0000002 z"
       id="path2-3"
       sodipodi:nodetypes="ssssssccs" />
    <path
       style="opacity:0.584913;fill:#ffeeee;fill-opacity:1"
       d="m 53.716784,22.160737 -18,-18.0000002 V 19.348237 c 0,1.55925 1.2555,2.8125 2.8125,2.8125 z"
       id="path4" />
  </g>
  <path
     id="path3"
     style="color:#000000;fill:#ffffff;stroke-width:0.752343;-inkscape-stroke:none"
     d="m 19.838679,31.283114 a 3.7617164,3.7617164 0 0 0 -3.761716,3.761717 3.7617164,3.7617164 0 0 0 3.761716,3.761716 3.7617164,3.7617164 0 0 0 1.603138,-0.361477 l 4.167276,4.515529 a 3.7617164,3.7617164 0 0 0 -0.504011,1.864694 3.7617164,3.7617164 0 0 0 3.761716,3.761717 3.7617164,3.7617164 0 0 0 3.735268,-3.39583 l 7.289794,-1.534076 a 3.7617164,3.7617164 0 0 0 3.269461,1.920533 3.7617164,3.7617164 0 0 0 3.761716,-3.761717 3.7617164,3.7617164 0 0 0 -3.761716,-3.761716 3.7617164,3.7617164 0 0 0 -3.735267,3.395831 l -7.280978,1.532606 a 3.7617164,3.7617164 0 0 0 -3.278278,-1.919064 3.7617164,3.7617164 0 0 0 -1.603137,0.361478 l -4.167277,-4.515529 a 3.7617164,3.7617164 0 0 0 0.504011,-1.864695 3.7617164,3.7617164 0 0 0 -3.761716,-3.761717 z" />
</svg>
