<?xml version="1.0" encoding="UTF-8" standalone="no"?>
<svg
   width="64"
   height="64"
   version="1"
   id="svg15"
   sodipodi:docname="image-svg+xml-compressed.svg"
   inkscape:version="1.3.2 (091e20ef0f, 2023-11-25, custom)"
   xmlns:inkscape="http://www.inkscape.org/namespaces/inkscape"
   xmlns:sodipodi="http://sodipodi.sourceforge.net/DTD/sodipodi-0.dtd"
   xmlns:xlink="http://www.w3.org/1999/xlink"
   xmlns="http://www.w3.org/2000/svg"
   xmlns:svg="http://www.w3.org/2000/svg">
  <defs
     id="defs15">
    <filter
       inkscape:collect="always"
       style="color-interpolation-filters:sRGB"
       id="filter12"
       x="-0.015276032"
       y="-0.019327575"
       width="1.0305521"
       height="1.0386551">
      <feGaussianBlur
         inkscape:collect="always"
         stdDeviation="0.33098069"
         id="feGaussianBlur12" />
    </filter>
    <radialGradient
       inkscape:collect="always"
       xlink:href="#linearGradient12"
       id="radialGradient13"
       cx="9.6699247"
       cy="62.508015"
       fx="9.6699247"
       fy="62.508015"
       r="26"
       gradientTransform="matrix(2.8657167,-1.6040127,0.98966627,1.7681302,-74.316611,-32.619532)"
       gradientUnits="userSpaceOnUse" />
    <linearGradient
       id="linearGradient12"
       inkscape:collect="always">
      <stop
         style="stop-color:#ff3d00;stop-opacity:1;"
         offset="0"
         id="stop12" />
      <stop
         style="stop-color:#ffe300;stop-opacity:1;"
         offset="1"
         id="stop13" />
    </linearGradient>
    <filter
       inkscape:collect="always"
       style="color-interpolation-filters:sRGB"
       id="filter20"
       x="-0.094755015"
       y="-0.21943234"
       width="1.1639233"
       height="1.487009">
      <feGaussianBlur
         inkscape:collect="always"
         stdDeviation="0.76466681"
         id="feGaussianBlur20" />
    </filter>
    <filter
       inkscape:collect="always"
       style="color-interpolation-filters:sRGB"
       id="filter11"
       x="-0.079435365"
       y="-0.079435365"
       width="1.1588707"
       height="1.1588707">
      <feGaussianBlur
         inkscape:collect="always"
         stdDeviation="0.33098069"
         id="feGaussianBlur11" />
    </filter>
    <filter
       inkscape:collect="always"
       style="color-interpolation-filters:sRGB"
       id="filter10"
       x="-0.079435365"
       y="-0.079435365"
       width="1.1588707"
       height="1.1588707">
      <feGaussianBlur
         inkscape:collect="always"
         stdDeviation="0.33098069"
         id="feGaussianBlur10" />
    </filter>
    <filter
       inkscape:collect="always"
       style="color-interpolation-filters:sRGB"
       id="filter9"
       x="-0.079435365"
       y="-0.079435365"
       width="1.1588707"
       height="1.1588707">
      <feGaussianBlur
         inkscape:collect="always"
         stdDeviation="0.33098069"
         id="feGaussianBlur9" />
    </filter>
    <radialGradient
       inkscape:collect="always"
       xlink:href="#linearGradient13"
       id="radialGradient15"
       cx="6.2728815"
       cy="64.434212"
       fx="6.2728815"
       fy="64.434212"
       r="20.5"
       gradientTransform="matrix(3.4843059,-0.05731685,0.03425051,2.0820976,-17.790661,-80.750313)"
       gradientUnits="userSpaceOnUse" />
    <linearGradient
       id="linearGradient13"
       inkscape:collect="always">
      <stop
         style="stop-color:#000000;stop-opacity:1;"
         offset="0"
         id="stop14" />
      <stop
         style="stop-color:#404040;stop-opacity:1;"
         offset="1"
         id="stop15" />
    </linearGradient>
    <radialGradient
       inkscape:collect="always"
       xlink:href="#linearGradient13"
       id="radialGradient18"
       gradientUnits="userSpaceOnUse"
       gradientTransform="matrix(3.4843059,-0.05731685,0.03425051,2.0820976,-17.790661,-80.750313)"
       cx="6.2728815"
       cy="64.434212"
       fx="6.2728815"
       fy="64.434212"
       r="20.5" />
    <radialGradient
       inkscape:collect="always"
       xlink:href="#linearGradient13"
       id="radialGradient19"
       gradientUnits="userSpaceOnUse"
       gradientTransform="matrix(3.4843059,-0.05731685,0.03425051,2.0820976,-17.790661,-80.750313)"
       cx="6.2728815"
       cy="64.434212"
       fx="6.2728815"
       fy="64.434212"
       r="20.5" />
    <radialGradient
       inkscape:collect="always"
       xlink:href="#linearGradient13"
       id="radialGradient20"
       gradientUnits="userSpaceOnUse"
       gradientTransform="matrix(3.4843059,-0.05731685,0.03425051,2.0820976,-17.790661,-80.750313)"
       cx="6.2728815"
       cy="64.434212"
       fx="6.2728815"
       fy="64.434212"
       r="20.5" />
    <filter
       inkscape:collect="always"
       style="color-interpolation-filters:sRGB"
       id="filter15"
       x="-0.13920441"
       y="-0.069602201"
       width="1.2784088"
       height="1.1392044">
      <feGaussianBlur
         inkscape:collect="always"
         stdDeviation="0.34760072"
         id="feGaussianBlur15" />
    </filter>
  </defs>
  <sodipodi:namedview
     id="namedview15"
     pagecolor="#ffffff"
     bordercolor="#000000"
     borderopacity="0.25"
     inkscape:showpageshadow="2"
     inkscape:pageopacity="0.0"
     inkscape:pagecheckerboard="0"
     inkscape:deskcolor="#d1d1d1"
     inkscape:zoom="11.313709"
     inkscape:cx="18.119611"
     inkscape:cy="34.736621"
     inkscape:window-width="1920"
     inkscape:window-height="1017"
     inkscape:window-x="0"
     inkscape:window-y="0"
     inkscape:window-maximized="1"
     inkscape:current-layer="svg15" />
  <g
     id="g6"
     transform="translate(-2.2277236e-6,0.38518361)">
    <path
       style="opacity:0.91562;mix-blend-mode:normal;filter:url(#filter12)"
       d="m 58,49.883052 v -35.7658 c 0,-1.4777 -1.16,-2.667 -2.6,-2.667 H 8.6 c -1.4404,0 -2.6,1.1893 -2.6,2.6667 v 35.7658 c 0,1.478 1.1596,2.667 2.6,2.667 h 46.8 c 1.44,0 2.6,-1.189 2.6,-2.667 z"
       id="path1-3"
       sodipodi:nodetypes="cssssssscc" />
    <path
       fill="#a47a4a"
       d="m 58,49.682752 v -35.7665 c 0,-1.4777 -1.16,-2.667 -2.6,-2.667 H 8.6 c -1.4404,0 -2.6,1.1893 -2.6,2.6667 v 35.7665 c 0,1.478 1.1596,2.667 2.6,2.667 h 46.8 c 1.44,0 2.6,-1.189 2.6,-2.667 z"
       id="path2-6"
       style="fill:url(#radialGradient13)"
       sodipodi:nodetypes="cssssssscc" />
    <path
       style="mix-blend-mode:normal;fill:none;stroke:#000000;stroke-width:3;stroke-opacity:1;filter:url(#filter20)"
       d="m 15.790257,28.30828 12,13 19,-4"
       id="path3-3" />
    <path
       style="fill:none;stroke:#ffffff;stroke-width:3"
       d="m 16,28.349752 12,13 19,-4"
       id="path3-7" />
    <circle
       style="opacity:0.91562;mix-blend-mode:normal;filter:url(#filter11)"
       cx="16"
       cy="28.549765"
       r="5"
       id="circle4-5" />
    <circle
       style="opacity:0.91562;mix-blend-mode:normal;filter:url(#filter10)"
       cx="28"
       cy="41.549763"
       r="5"
       id="circle6-3" />
    <circle
       style="opacity:0.91562;mix-blend-mode:normal;filter:url(#filter9)"
       cx="47"
       cy="37.549763"
       r="5"
       id="circle8-5" />
    <g
       id="g13"
       style="fill:url(#radialGradient15)"
       transform="translate(0,-3.6502478)">
      <circle
         style="fill:url(#radialGradient18)"
         cx="16"
         cy="32"
         r="5"
         id="circle5-6" />
      <circle
         style="fill:url(#radialGradient19)"
         cx="28"
         cy="45"
         r="5"
         id="circle7-2" />
      <circle
         style="fill:url(#radialGradient20)"
         cx="47"
         cy="41"
         r="5"
         id="circle9" />
    </g>
  </g>
  <path
     style="opacity:0.24836899;stroke-width:0.749116;filter:url(#filter15)"
     d="m 32,22.870082 c -1.656045,0 -2.996463,1.348408 -2.996463,2.996463 v 5.992926 c 0,1.648055 1.340917,2.996464 2.996463,2.996464 1.655546,0 2.996463,-1.348409 2.996463,-2.996464 v -5.992926 c 0,-1.648055 -1.340418,-2.996463 -2.996463,-2.996463 z m 0,1.498231 c 0.827024,0 1.498232,0.599293 1.498232,1.498232 0,0.749114 -0.671208,1.498232 -1.498232,1.498232 -0.827024,0 -1.498232,-0.749118 -1.498232,-1.498232 0,-0.898939 0.671208,-1.498232 1.498232,-1.498232 z m 0,4.494695 c 0.827451,0 1.498232,0.670781 1.498232,1.498232 v 1.498231 c 0,0.827451 -0.670781,1.498232 -1.498232,1.498232 -0.827451,0 -1.498232,-0.670781 -1.498232,-1.498232 V 30.36124 c 0,-0.827451 0.670781,-1.498232 1.498232,-1.498232 z"
     id="path8" />
  <path
     style="opacity:0.2;stroke-width:0.749116"
     d="m 30.501768,11.633344 v 10.487622 c 0,0.824027 0.670459,1.498231 1.498232,1.498231 0.827773,0 1.498232,-0.674204 1.498232,-1.498231 V 11.633344 Z"
     id="path9" />
  <path
     style="opacity:0.2;stroke-width:0.749116"
     d="m 32,11.633344 v 0.749116 h 0.749116 v -0.749116 z m 0,0.749116 h -0.749116 v 0.749116 H 32 Z m 0,0.749116 v 0.749116 h 0.749116 v -0.749116 z m 0,0.749116 h -0.749116 v 0.749116 H 32 Z m 0,0.749116 v 0.749115 h 0.749116 v -0.749115 z m 0,0.749115 h -0.749116 v 0.749116 H 32 Z m 0,0.749116 v 0.749116 h 0.749116 v -0.749116 z"
     id="path10" />
  <path
     style="fill:#dddddd;stroke-width:0.749116"
     d="M 31.250884,11.633344 V 12.38246 H 32 v -0.749116 z m 0,1.498232 v 0.749116 H 32 v -0.749116 z m 0,1.498232 v 0.749115 H 32 v -0.749115 z m 0,1.498231 v 0.749116 H 32 v -0.749116 z"
     id="path11" />
  <path
     style="opacity:0.2;stroke-width:0.749116"
     d="M 31.250884,17.626271 H 32 c 0.0309,-0.275322 0,-0.749116 0,-0.749116 h -0.749116 z m 0.749116,0 v 0.749116 h 0.749116 v -0.749116 z m 0,0.749116 h -0.749116 v 0.749116 H 32 Z m 0,0.749116 v 0.749115 h 0.749116 v -0.749115 z m 0,0.749115 h -0.749116 v 0.749116 H 32 Z m 0,0.749116 v 0.749116 h 0.749116 v -0.749116 z m 0,0.749116 h -0.749116 v 0.749116 H 32 Z m 0,0.749116 v 0.749116 h 0.749116 v -0.749116 z m 0,0.749116 H 31.250884 C 31.133947,23.912036 32,23.912036 32,22.870082 Z"
     id="path12" />
  <path
     style="fill:#dddddd;stroke-width:0.749116"
     d="m 31.250884,17.626271 v 0.749116 H 32 v -0.749116 z m 0,1.498232 v 0.749115 H 32 v -0.749115 z m 0,1.498231 V 21.37185 H 32 v -0.749116 z m 0,1.498232 v 0.749116 H 32 v -0.749116 z"
     id="path13" />
  <path
     style="fill:#ffffff;stroke-width:0.749116"
     d="m 32,22.120966 c -1.656045,0 -2.996463,1.348408 -2.996463,2.996463 v 5.992927 c 0,1.648054 1.340917,2.996463 2.996463,2.996463 1.655546,0 2.996463,-1.348409 2.996463,-2.996463 v -5.992927 c 0,-1.648055 -1.340418,-2.996463 -2.996463,-2.996463 z m 0,1.498231 c 0.827024,0 1.498232,0.599293 1.498232,1.498232 0,0.749114 -0.671208,1.498232 -1.498232,1.498232 -0.827024,0 -1.498232,-0.749118 -1.498232,-1.498232 0,-0.898939 0.671208,-1.498232 1.498232,-1.498232 z m 0,4.494695 c 0.827451,0 1.498232,0.670781 1.498232,1.498232 v 1.498232 c 0,0.827451 -0.670781,1.498231 -1.498232,1.498231 -0.827451,0 -1.498232,-0.67078 -1.498232,-1.498231 v -1.498232 c 0,-0.827451 0.670781,-1.498232 1.498232,-1.498232 z"
     id="path14" />
</svg>
