<?xml version="1.0" encoding="UTF-8" standalone="no"?>
<svg
   width="64"
   height="64"
   version="1.1"
   id="svg8"
   sodipodi:docname="inode-socket.svg"
   inkscape:version="1.3.2 (091e20ef0f, 2023-11-25, custom)"
   xmlns:inkscape="http://www.inkscape.org/namespaces/inkscape"
   xmlns:sodipodi="http://sodipodi.sourceforge.net/DTD/sodipodi-0.dtd"
   xmlns:xlink="http://www.w3.org/1999/xlink"
   xmlns="http://www.w3.org/2000/svg"
   xmlns:svg="http://www.w3.org/2000/svg">
  <defs
     id="defs8">
    <radialGradient
       inkscape:collect="always"
       xlink:href="#linearGradient9"
       id="radialGradient10"
       cx="11.199748"
       cy="52.255859"
       fx="11.199748"
       fy="52.255859"
       r="22"
       gradientTransform="matrix(2.3937499,-0.64140334,0.81633154,3.0465908,-58.267754,-94.238478)"
       gradientUnits="userSpaceOnUse" />
    <linearGradient
       id="linearGradient9"
       inkscape:collect="always">
      <stop
         style="stop-color:#28a268;stop-opacity:1;"
         offset="0"
         id="stop9" />
      <stop
         style="stop-color:#1fc327;stop-opacity:1;"
         offset="1"
         id="stop10" />
    </linearGradient>
  </defs>
  <sodipodi:namedview
     id="namedview8"
     pagecolor="#ffffff"
     bordercolor="#000000"
     borderopacity="0.25"
     inkscape:showpageshadow="2"
     inkscape:pageopacity="0.0"
     inkscape:pagecheckerboard="0"
     inkscape:deskcolor="#d1d1d1"
     inkscape:zoom="13.09375"
     inkscape:cx="31.961814"
     inkscape:cy="32"
     inkscape:window-width="1920"
     inkscape:window-height="1014"
     inkscape:window-x="0"
     inkscape:window-y="0"
     inkscape:window-maximized="1"
     inkscape:current-layer="svg8" />
  <g
     id="g1">
    <g
       id="g2">
      <path
         style="fill:url(#radialGradient10);fill-opacity:1"
         d="M 12.75,4 C 11.2265,4 10,5.2488 10,6.8 v 50.4 c 0,1.55008 1.2265,2.8 2.75,2.8 h 38.5 C 52.7724,60 54,58.75008 54,57.2 V 22 L 36,4 Z"
         id="path2"
         sodipodi:nodetypes="ssssssccs" />
      <path
         style="opacity:0.537555;fill:#ffffff;fill-opacity:1"
         d="M 54,22 36,4 V 19.1875 C 36,20.74675 37.2555,22 38.8125,22 Z"
         id="path4" />
    </g>
  </g>
  <path
     id="path6"
     style="fill:#ffffff;stroke-width:0.815139"
     d="m 43.953261,26.865395 a 1.1474397,1.1474397 0 0 0 -0.788074,0.347071 l -6.645296,6.645297 a 6.9286848,6.9286848 0 0 0 -4.019976,-1.286392 6.9286848,6.9286848 0 0 0 -4.467346,1.644607 l 9.757792,9.759384 a 6.9286848,6.9286848 0 0 0 1.63824,-4.475306 6.9286848,6.9286848 0 0 0 -1.286392,-4.019975 l 6.645297,-6.645296 a 1.1474397,1.1474397 0 0 0 -0.834245,-1.96939 z M 27.20947,35.02475 a 6.9286848,6.9286848 0 0 0 -1.63824,4.475306 6.9286848,6.9286848 0 0 0 1.297537,4.00883 l -6.650073,6.650073 a 1.1474397,1.1474397 0 1 0 1.622318,1.622319 l 6.648481,-6.650073 a 6.9286848,6.9286848 0 0 0 4.010422,1.297536 6.9286848,6.9286848 0 0 0 4.467347,-1.644607 z" />
</svg>
