<?xml version="1.0" encoding="UTF-8" standalone="no"?>
<svg
   width="64"
   height="64"
   version="1.1"
   id="svg7"
   sodipodi:docname="inode-fifo.svg"
   inkscape:version="1.3.2 (091e20ef0f, 2023-11-25, custom)"
   xmlns:inkscape="http://www.inkscape.org/namespaces/inkscape"
   xmlns:sodipodi="http://sodipodi.sourceforge.net/DTD/sodipodi-0.dtd"
   xmlns:xlink="http://www.w3.org/1999/xlink"
   xmlns="http://www.w3.org/2000/svg"
   xmlns:svg="http://www.w3.org/2000/svg">
  <defs
     id="defs7">
    <inkscape:path-effect
       effect="fillet_chamfer"
       id="path-effect7"
       is_visible="true"
       lpeversion="1"
       nodesatellites_param="F,0,0,1,0,0,0,1 @ F,0,0,1,0,0,0,1 @ F,0,0,1,0,0,0,1 @ F,0,0,1,0,0,0,1 | F,0,0,1,0,0,0,1 @ F,0,0,1,0,0,0,1 @ F,0,1,1,0,1.0370861,0,1 @ F,0,1,1,0,1.0370861,0,1 @ F,0,0,1,0,0,0,1 @ F,0,0,1,0,0,0,1 @ F,0,0,1,0,0,0,1 @ F,0,0,1,0,0,0,1 @ F,0,0,1,0,0,0,1 | F,0,1,1,0,1.0370861,0,1 @ F,0,0,1,0,1.0370861,0,1 @ F,0,0,1,0,1.5650544,0,1 @ F,0,0,1,0,0,0,1 @ F,0,0,1,0,0,0,1 @ F,0,0,1,0,0,0,1 @ F,0,0,1,0,0,0,1 @ F,0,0,1,0,0,0,1 @ F,0,0,1,0,0,0,1 @ F,0,0,1,0,0,0,1 @ F,0,0,1,0,3.5912366,0,1 | F,0,0,1,0,0,0,1 @ F,0,0,1,0,0,0,1 @ F,0,0,1,0,0,0,1 @ F,0,0,1,0,0,0,1 | F,0,1,1,0,1.0370861,0,1 @ F,0,0,1,0,1.5650544,0,1 @ F,0,0,1,0,0,0,1 @ F,0,0,1,0,0,0,1 @ F,0,0,1,0,0,0,1 @ F,0,0,1,0,0,0,1 @ F,0,0,1,0,0,0,1 @ F,0,0,1,0,0,0,1 @ F,0,0,1,0,0,0,1 @ F,0,0,1,0,3.5912366,0,1 @ F,0,1,1,0,1.0370861,0,1 | F,0,0,1,0,0,0,1 @ F,0,0,1,0,0,0,1 @ F,0,0,1,0,0,0,1 @ F,0,0,1,0,0,0,1 | F,0,0,1,0,0,0,1 @ F,0,0,1,0,0,0,1 @ F,0,0,1,0,0,0,1 @ F,0,0,1,0,0,0,1 @ F,0,0,1,0,0,0,1 @ F,0,0,1,0,0,0,1 @ F,0,1,1,0,1.0370861,0,1 @ F,0,1,1,0,1.0370861,0,1 @ F,0,0,1,0,0,0,1"
       radius="0"
       unit="px"
       method="auto"
       mode="F"
       chamfer_steps="1"
       flexible="false"
       use_knot_distance="true"
       apply_no_radius="true"
       apply_with_radius="true"
       only_selected="false"
       hide_knots="false" />
    <radialGradient
       inkscape:collect="always"
       xlink:href="#linearGradient7"
       id="radialGradient8"
       cx="16.935129"
       cy="49.153992"
       fx="16.935129"
       fy="49.153992"
       r="22"
       gradientTransform="matrix(8.3672725,-2.2420039,2.8534596,10.649256,-259.02464,-433.65247)"
       gradientUnits="userSpaceOnUse" />
    <linearGradient
       id="linearGradient7"
       inkscape:collect="always">
      <stop
         style="stop-color:#a200ff;stop-opacity:1;"
         offset="0"
         id="stop7" />
      <stop
         style="stop-color:#c67a43;stop-opacity:1;"
         offset="1"
         id="stop8" />
    </linearGradient>
  </defs>
  <sodipodi:namedview
     id="namedview7"
     pagecolor="#ffffff"
     bordercolor="#000000"
     borderopacity="0.25"
     inkscape:showpageshadow="2"
     inkscape:pageopacity="0.0"
     inkscape:pagecheckerboard="0"
     inkscape:deskcolor="#d1d1d1"
     inkscape:zoom="9.2586794"
     inkscape:cx="23.815491"
     inkscape:cy="36.074259"
     inkscape:window-width="1920"
     inkscape:window-height="1014"
     inkscape:window-x="0"
     inkscape:window-y="0"
     inkscape:window-maximized="1"
     inkscape:current-layer="svg7" />
  <g
     id="g7"
     transform="translate(-6,2)">
    <path
       style="fill:url(#radialGradient8)"
       d="M 18.75,2 C 17.2265,2 16,3.2488 16,4.8 v 50.4 c 0,1.55008 1.2265,2.8 2.75,2.8 h 38.5 C 58.7724,58 60,56.75008 60,55.2 V 20 L 42,2 Z"
       id="path2"
       sodipodi:nodetypes="ssssssccs" />
    <path
       style="opacity:0.374382;fill:#ffffff;fill-opacity:1"
       d="M 60,20 42,2 V 17.1875 C 42,18.74675 43.2555,20 44.8125,20 Z"
       id="path4" />
  </g>
  <path
     style="fill:#ffffff"
     d="m 31,24 c -2.209139,0 -4,1.790861 -4,4 0,2.209139 1.790861,4 4,4 2.209139,0 4,-1.790861 4,-4 0,-2.209139 -1.790861,-4 -4,-4 z M 21,25.5 V 27 H 16.037086 A 1.0370861,1.0370861 135 0 0 15,28.037086 1.0006875,1.0006875 42.876096 0 0 16.037086,29 H 21 v 1.5 L 23,29.25 25,28 23,26.75 Z m 16,2.537086 A 1.0006875,1.0006875 42.876096 0 0 38.037086,29 h 4.39786 A 1.5650544,1.5650544 45 0 1 44,30.565054 V 32 h -1.5 l 1.25,2 1.25,2 1.25,-2 1.25,-2 H 46 l 0,-1.408763 A 3.5912366,3.5912366 45 0 0 42.408763,27 H 38.037086 A 1.0370861,1.0370861 135 0 0 37,28.037086 Z M 45,37 c -2.209139,0 -4,1.790861 -4,4 0,2.209139 1.790861,4 4,4 2.209139,0 4,-1.790861 4,-4 0,-2.209139 -1.790861,-4 -4,-4 z m -1,11.037086 v 1.39786 A 1.5650544,1.5650544 135 0 1 42.434946,51 H 40 v -1.5 l -2,1.25 -2,1.25 2,1.25 2,1.25 V 53 h 2.408763 A 3.5912366,3.5912366 135 0 0 46,49.408763 V 48.037086 A 1.0370861,1.0370861 45 0 0 44.962914,47 1.0006875,1.0006875 132.8761 0 0 44,48.037086 Z M 31,48 c -2.209139,0 -4,1.790861 -4,4 0,2.209139 1.790861,4 4,4 2.209139,0 4,-1.790861 4,-4 0,-2.209139 -1.790861,-4 -4,-4 z m -12,1.5 -2,1.25 -2,1.25 2,1.25 2,1.25 V 53 h 4.962914 A 1.0370861,1.0370861 135 0 0 25,51.962914 1.0006875,1.0006875 42.876096 0 0 23.962914,51 H 19 Z"
     id="path6"
     inkscape:path-effect="#path-effect7"
     inkscape:original-d="m 31,24 c -2.209139,0 -4,1.790861 -4,4 0,2.209139 1.790861,4 4,4 2.209139,0 4,-1.790861 4,-4 0,-2.209139 -1.790861,-4 -4,-4 z M 21,25.5 V 27 h -6 v 2 h 6 v 1.5 L 23,29.25 25,28 23,26.75 Z M 37,27 v 2 h 7 v 3 h -1.5 l 1.25,2 1.25,2 1.25,-2 1.25,-2 H 46 v -5 z m 8,10 c -2.209139,0 -4,1.790861 -4,4 0,2.209139 1.790861,4 4,4 2.209139,0 4,-1.790861 4,-4 0,-2.209139 -1.790861,-4 -4,-4 z m -1,10 v 4 h -4 v -1.5 l -2,1.25 -2,1.25 2,1.25 2,1.25 V 53 h 6 v -6 z m -13,1 c -2.209139,0 -4,1.790861 -4,4 0,2.209139 1.790861,4 4,4 2.209139,0 4,-1.790861 4,-4 0,-2.209139 -1.790861,-4 -4,-4 z m -12,1.5 -2,1.25 -2,1.25 2,1.25 2,1.25 V 53 h 6 v -2 h -6 z"
     sodipodi:nodetypes="sssssccccccccccccccccccccccsssssccccccccccccssssscccccccccc" />
</svg>
