<?xml version="1.0" encoding="UTF-8" standalone="no"?>
<svg
   width="64"
   height="64"
   version="1.1"
   id="svg7"
   sodipodi:docname="inode-mount-point.svg"
   inkscape:version="1.3.2 (091e20ef0f, 2023-11-25, custom)"
   xmlns:inkscape="http://www.inkscape.org/namespaces/inkscape"
   xmlns:sodipodi="http://sodipodi.sourceforge.net/DTD/sodipodi-0.dtd"
   xmlns:xlink="http://www.w3.org/1999/xlink"
   xmlns="http://www.w3.org/2000/svg"
   xmlns:svg="http://www.w3.org/2000/svg">
  <defs
     id="defs7">
    <inkscape:path-effect
       effect="fillet_chamfer"
       id="path-effect7"
       is_visible="true"
       lpeversion="1"
       nodesatellites_param="F,0,0,1,0,0,0,1 @ F,0,0,1,0,0,0,1 @ F,0,0,1,0,0,0,1 @ F,0,0,1,0,0,0,1 @ F,0,0,1,0,0,0,1 @ F,0,0,1,0,0,0,1 @ F,0,0,1,0,0,0,1 @ F,0,0,1,0,2.3908476,0,1 @ F,0,1,1,0,2.3908476,0,1 @ F,0,0,1,0,0,0,1"
       radius="0"
       unit="px"
       method="auto"
       mode="F"
       chamfer_steps="1"
       flexible="false"
       use_knot_distance="true"
       apply_no_radius="true"
       apply_with_radius="true"
       only_selected="false"
       hide_knots="false" />
    <radialGradient
       inkscape:collect="always"
       xlink:href="#linearGradient9"
       id="radialGradient10"
       cx="13.030433"
       cy="49.4501"
       fx="13.030433"
       fy="49.4501"
       r="22"
       gradientTransform="matrix(2.2649253,-1.3076552,1.6642885,2.8826322,-99.064972,-71.137182)"
       gradientUnits="userSpaceOnUse" />
    <linearGradient
       id="linearGradient9"
       inkscape:collect="always">
      <stop
         style="stop-color:#f78330;stop-opacity:1;"
         offset="0"
         id="stop9" />
      <stop
         style="stop-color:#e6664a;stop-opacity:1;"
         offset="1"
         id="stop10" />
    </linearGradient>
    <inkscape:path-effect
       effect="fillet_chamfer"
       id="path-effect7-3"
       is_visible="true"
       lpeversion="1"
       nodesatellites_param="F,0,0,1,0,0,0,1 @ F,0,0,1,0,0,0,1 @ F,0,0,1,0,0,0,1 @ F,0,0,1,0,0,0,1 @ F,0,0,1,0,0,0,1 @ F,0,0,1,0,0,0,1 @ F,0,0,1,0,0,0,1 @ F,0,0,1,0,2.3908476,0,1 @ F,0,1,1,0,2.3908476,0,1 @ F,0,0,1,0,0,0,1"
       radius="0"
       unit="px"
       method="auto"
       mode="F"
       chamfer_steps="1"
       flexible="false"
       use_knot_distance="true"
       apply_no_radius="true"
       apply_with_radius="true"
       only_selected="false"
       hide_knots="false" />
  </defs>
  <sodipodi:namedview
     id="namedview7"
     pagecolor="#ffffff"
     bordercolor="#000000"
     borderopacity="0.25"
     inkscape:showpageshadow="2"
     inkscape:pageopacity="0.0"
     inkscape:pagecheckerboard="0"
     inkscape:deskcolor="#d1d1d1"
     inkscape:zoom="13.09375"
     inkscape:cx="31.961814"
     inkscape:cy="32"
     inkscape:window-width="1920"
     inkscape:window-height="1014"
     inkscape:window-x="0"
     inkscape:window-y="0"
     inkscape:window-maximized="1"
     inkscape:current-layer="svg7" />
  <g
     id="g1">
    <g
       id="g2"
       transform="translate(0.28321625,-0.1607369)">
      <path
         style="fill:url(#radialGradient10)"
         d="m 12.466784,4.1607368 c -1.5235,0 -2.7500005,1.2488 -2.7500005,2.8 V 57.360737 c 0,1.55008 1.2265005,2.8 2.7500005,2.8 h 38.5 c 1.5224,0 2.75,-1.24992 2.75,-2.8 v -35.2 l -18,-18.0000002 z"
         id="path2-3"
         sodipodi:nodetypes="ssssssccs" />
      <path
         style="opacity:0.584913;fill:#ffeeee;fill-opacity:1"
         d="m 53.716784,22.160737 -18,-18.0000002 V 19.348237 c 0,1.55925 1.2555,2.8125 2.8125,2.8125 z"
         id="path4" />
    </g>
  </g>
  <path
     d="m 36.105469,28.900391 c -1.487759,-0.02011 -2.929966,0.513065 -4.046875,1.496093 -0.01894,0.01713 -0.03946,0.03195 -0.05859,0.04883 1.133524,0.999839 2.592242,1.554646 4.105469,1.554688 h 6.179687 C 42.285156,32 44,32.210037 44,33.902344 v -3.310547 c 0,-1.692305 -1.714844,-1.691406 -1.714844,-1.691406 z m -16.09961,19.49414 c 0.01988,0.5359 0.215735,0.893563 0.470703,1.13086 -0.376672,-0.397503 -0.454717,-0.927766 -0.470703,-1.13086 z m 23.517578,1.13086 C 43.01591,49.997742 42.285156,50 42.285156,50 c 0.597468,0 0.984615,-0.206914 1.238281,-0.474609 z"
     style="opacity:0.552722;fill:#ffffff"
     id="path8" />
  <path
     d="m 21.714844,28.900391 c 0,0 -1.714844,-9e-4 -1.714844,1.691406 V 48.308594 C 20,48.308594 20.000559,50 21.714844,50 H 42.285156 C 42.285156,50 44,50.000902 44,48.308594 V 33.902344 C 44,32.210035 42.285156,32 42.285156,32 h -6.179687 a 6.2088918,6.2088918 0 0 1 -4.164063,-1.603516 6.0025092,6.0025092 0 0 0 -4.046875,-1.496093 z"
     style="fill:#ffffff"
     id="path7" />
</svg>
