<?xml version="1.0" encoding="UTF-8" standalone="no"?>
<svg
   width="64"
   height="64"
   version="1.1"
   id="svg6"
   sodipodi:docname="text-x-readme.svg"
   inkscape:version="1.3.2 (091e20ef0f, 2023-11-25, custom)"
   xmlns:inkscape="http://www.inkscape.org/namespaces/inkscape"
   xmlns:sodipodi="http://sodipodi.sourceforge.net/DTD/sodipodi-0.dtd"
   xmlns:xlink="http://www.w3.org/1999/xlink"
   xmlns="http://www.w3.org/2000/svg"
   xmlns:svg="http://www.w3.org/2000/svg">
  <defs
     id="defs6">
    <inkscape:path-effect
       effect="fillet_chamfer"
       id="path-effect6"
       is_visible="true"
       lpeversion="1"
       nodesatellites_param="F,0,1,1,0,1.9998358,0,1 @ F,0,0,1,0,1.9998358,0,1 @ F,0,1,1,0,1.9998358,0,1 @ F,0,1,1,0,1.9998358,0,1 | F,0,1,1,0,1.9998358,0,1 @ F,0,1,1,0,1.9998358,0,1 @ F,0,1,1,0,1.9998358,0,1 @ F,0,1,1,0,1.9998358,0,1"
       radius="0"
       unit="px"
       method="auto"
       mode="F"
       chamfer_steps="1"
       flexible="false"
       use_knot_distance="true"
       apply_no_radius="true"
       apply_with_radius="true"
       only_selected="false"
       hide_knots="false" />
    <radialGradient
       inkscape:collect="always"
       xlink:href="#linearGradient8"
       id="radialGradient9"
       cx="21.477476"
       cy="23.351734"
       fx="21.477476"
       fy="23.351734"
       r="22"
       gradientTransform="matrix(5.2437612,-5.1735227e-8,0,4.286547,-90.168663,-52.97246)"
       gradientUnits="userSpaceOnUse" />
    <linearGradient
       id="linearGradient8"
       inkscape:collect="always">
      <stop
         style="stop-color:#ededed;stop-opacity:1;"
         offset="0"
         id="stop8" />
      <stop
         style="stop-color:#b7b7b7;stop-opacity:1;"
         offset="1"
         id="stop9" />
    </linearGradient>
  </defs>
  <sodipodi:namedview
     id="namedview6"
     pagecolor="#ffffff"
     bordercolor="#000000"
     borderopacity="0.25"
     inkscape:showpageshadow="2"
     inkscape:pageopacity="0.0"
     inkscape:pagecheckerboard="0"
     inkscape:deskcolor="#d1d1d1"
     inkscape:zoom="13.09375"
     inkscape:cx="27.455847"
     inkscape:cy="44.21957"
     inkscape:window-width="1920"
     inkscape:window-height="1014"
     inkscape:window-x="0"
     inkscape:window-y="0"
     inkscape:window-maximized="1"
     inkscape:current-layer="svg6" />
  <g
     id="g6"
     transform="translate(-3,-2)">
    <path
       style="fill:url(#radialGradient9);fill-opacity:1"
       d="M 15.75,6 C 14.2265,6 13,7.2488 13,8.8 v 50.4 c 0,1.5512 1.2265,2.8 2.75,2.8 h 38.5 C 55.7735,62 57,60.7512 57,59.2 V 22 L 41,6 Z"
       id="path2"
       sodipodi:nodetypes="ssssssccs" />
    <path
       style="opacity:0.593376;fill:#ffffff;fill-opacity:1"
       d="M 41,6 V 19.333333 C 41,20.806133 42.193906,22 43.666666,22 H 57 Z"
       id="path4" />
  </g>
  <path
     style="fill:#d74c4c"
     d="M 30,29.999836 V 44.000164 A 1.9998358,1.9998358 45 0 0 31.999836,46 h 3.28e-4 A 1.9998358,1.9998358 135 0 0 34,44.000164 V 29.999836 A 1.9998358,1.9998358 45 0 0 32.000164,28 h -3.28e-4 A 1.9998358,1.9998358 135 0 0 30,29.999836 Z m 0,22 v 3.28e-4 A 1.9998358,1.9998358 45 0 0 31.999836,54 h 3.28e-4 A 1.9998358,1.9998358 135 0 0 34,52.000164 v -3.28e-4 A 1.9998358,1.9998358 45 0 0 32.000164,50 h -3.28e-4 A 1.9998358,1.9998358 135 0 0 30,51.999836 Z"
     id="path6"
     inkscape:path-effect="#path-effect6"
     inkscape:original-d="m 30,28 v 18 h 4 V 28 Z m 0,22 v 4 h 4 v -4 z" />
</svg>
