<?xml version="1.0" encoding="UTF-8" standalone="no"?>
<svg
   width="64"
   height="64"
   version="1.1"
   id="svg7"
   sodipodi:docname="text-x-script.svg"
   inkscape:version="1.3.2 (091e20ef0f, 2023-11-25, custom)"
   xmlns:inkscape="http://www.inkscape.org/namespaces/inkscape"
   xmlns:sodipodi="http://sodipodi.sourceforge.net/DTD/sodipodi-0.dtd"
   xmlns:xlink="http://www.w3.org/1999/xlink"
   xmlns="http://www.w3.org/2000/svg"
   xmlns:svg="http://www.w3.org/2000/svg">
  <defs
     id="defs7">
    <linearGradient
       id="linearGradient9"
       inkscape:collect="always">
      <stop
         style="stop-color:#4f4f4f;stop-opacity:1;"
         offset="0"
         id="stop9" />
      <stop
         style="stop-color:#6a6a6a;stop-opacity:1;"
         offset="1"
         id="stop10" />
    </linearGradient>
    <radialGradient
       inkscape:collect="always"
       xlink:href="#linearGradient9"
       id="radialGradient10"
       cx="15.999628"
       cy="48.462826"
       fx="15.999628"
       fy="48.462826"
       r="22"
       gradientTransform="matrix(2.1335699,-1.2318172,1.5677674,2.7154527,-94.115134,-58.937205)"
       gradientUnits="userSpaceOnUse" />
  </defs>
  <sodipodi:namedview
     id="namedview7"
     pagecolor="#ffffff"
     bordercolor="#000000"
     borderopacity="0.25"
     inkscape:showpageshadow="2"
     inkscape:pageopacity="0.0"
     inkscape:pagecheckerboard="0"
     inkscape:deskcolor="#d1d1d1"
     inkscape:zoom="9.8221551"
     inkscape:cx="37.517225"
     inkscape:cy="34.819242"
     inkscape:window-width="1920"
     inkscape:window-height="1014"
     inkscape:window-x="0"
     inkscape:window-y="0"
     inkscape:window-maximized="1"
     inkscape:current-layer="svg7" />
  <path
     style="fill:url(#radialGradient10)"
     d="M 12.75,4 C 11.2265,4 10,5.2488 10,6.8 v 50.4 c 0,1.55008 1.2265,2.8 2.75,2.8 h 38.5 C 52.7724,60 54,58.75008 54,57.2 V 22 L 36,4 Z"
     id="path2"
     sodipodi:nodetypes="ssssssccs" />
  <path
     style="fill:#ffffff;fill-opacity:1;opacity:0.39566815"
     d="M 54,22 36,4 V 19.1875 C 36,20.74675 37.2555,22 38.8125,22 Z"
     id="path4" />
  <path
     style="fill:#ffffff"
     d="M 24.476562 29 A 1.50015 1.4972215 0 0 0 23 30.519531 L 23 34 L 19.517578 34 A 1.4972215 1.50015 0 1 0 19.517578 37 L 23 37 L 23 43 L 19.517578 43 A 1.4972215 1.50015 0 1 0 19.517578 46 L 23 46 L 23 49.482422 A 1.50015 1.4972215 0 1 0 26 49.482422 L 26 46 L 32 46 L 32 49.482422 A 1.50015 1.4972215 0 1 0 35 49.482422 L 35 46 L 38.482422 46 A 1.4972215 1.50015 0 0 0 40 44.476562 A 1.4972215 1.50015 0 0 0 38.482422 43 L 35 43 L 35 37 L 38.482422 37 A 1.4972215 1.50015 0 0 0 40 35.476562 A 1.4972215 1.50015 0 0 0 38.482422 34 L 35 34 L 35 30.519531 A 1.50015 1.4972215 0 0 0 33.476562 29 A 1.50015 1.4972215 0 0 0 32 30.519531 L 32 34 L 26 34 L 26 30.519531 A 1.50015 1.4972215 0 0 0 24.476562 29 z M 44.476562 29 C 43.648902 29.0129 42.988128 29.693471 43 30.519531 L 43 44.482422 C 42.97131 46.506946 46.028688 46.506946 46 44.482422 L 46 30.519531 C 46.01214 29.675147 45.322582 28.986804 44.476562 29 z M 26 37 L 32 37 L 32 43 L 26 43 L 26 37 z M 44.5 49 A 1.5 1.5 0 0 0 43 50.5 A 1.5 1.5 0 0 0 44.5 52 A 1.5 1.5 0 0 0 46 50.5 A 1.5 1.5 0 0 0 44.5 49 z"
     id="path7" />
</svg>
