<?xml version="1.0" encoding="UTF-8" standalone="no"?>
<svg
   width="64"
   height="64"
   version="1.1"
   id="svg7"
   sodipodi:docname="text-x-python3.svg"
   inkscape:version="1.3.2 (091e20ef0f, 2023-11-25, custom)"
   xmlns:inkscape="http://www.inkscape.org/namespaces/inkscape"
   xmlns:sodipodi="http://sodipodi.sourceforge.net/DTD/sodipodi-0.dtd"
   xmlns:xlink="http://www.w3.org/1999/xlink"
   xmlns="http://www.w3.org/2000/svg"
   xmlns:svg="http://www.w3.org/2000/svg">
  <defs
     id="defs7">
    <linearGradient
       id="linearGradient10"
       inkscape:collect="always">
      <stop
         style="stop-color:#30abe0;stop-opacity:1;"
         offset="0"
         id="stop11" />
      <stop
         style="stop-color:#007cff;stop-opacity:1;"
         offset="1"
         id="stop12" />
    </linearGradient>
    <linearGradient
       id="linearGradient7"
       inkscape:collect="always">
      <stop
         style="stop-color:#ffa923;stop-opacity:1;"
         offset="0"
         id="stop7" />
      <stop
         style="stop-color:#ff7f23;stop-opacity:1;"
         offset="1"
         id="stop10" />
    </linearGradient>
    <radialGradient
       inkscape:collect="always"
       xlink:href="#linearGradient8"
       id="radialGradient9"
       cx="21.477476"
       cy="23.351734"
       fx="21.477476"
       fy="23.351734"
       r="22"
       gradientTransform="matrix(5.2437612,-5.1735227e-8,0,4.286547,-90.168663,-52.97246)"
       gradientUnits="userSpaceOnUse" />
    <linearGradient
       id="linearGradient8"
       inkscape:collect="always">
      <stop
         style="stop-color:#ededed;stop-opacity:1;"
         offset="0"
         id="stop8" />
      <stop
         style="stop-color:#b7b7b7;stop-opacity:1;"
         offset="1"
         id="stop9" />
    </linearGradient>
    <radialGradient
       inkscape:collect="always"
       xlink:href="#linearGradient7"
       id="radialGradient10"
       cx="36.722557"
       cy="46.745533"
       fx="36.722557"
       fy="46.745533"
       r="10.5"
       gradientUnits="userSpaceOnUse"
       gradientTransform="matrix(2.0142587,-0.53971901,0.53971901,2.0142587,-60.023681,-25.97449)" />
    <radialGradient
       inkscape:collect="always"
       xlink:href="#linearGradient10"
       id="radialGradient12"
       cx="25.718573"
       cy="35.863689"
       fx="25.718573"
       fy="35.863689"
       r="10.5"
       gradientUnits="userSpaceOnUse"
       gradientTransform="matrix(2.7686603,0,0,2.7686598,-50.406817,-66.324742)" />
  </defs>
  <sodipodi:namedview
     id="namedview7"
     pagecolor="#ffffff"
     bordercolor="#000000"
     borderopacity="0.25"
     inkscape:showpageshadow="2"
     inkscape:pageopacity="0.0"
     inkscape:pagecheckerboard="0"
     inkscape:deskcolor="#d1d1d1"
     inkscape:zoom="13.09375"
     inkscape:cx="31.961814"
     inkscape:cy="32"
     inkscape:window-width="1920"
     inkscape:window-height="1014"
     inkscape:window-x="0"
     inkscape:window-y="0"
     inkscape:window-maximized="1"
     inkscape:current-layer="svg7" />
  <g
     id="g6"
     transform="translate(-3,-2)">
    <path
       style="fill:url(#radialGradient9);fill-opacity:1"
       d="M 15.75,6 C 14.2265,6 13,7.2488 13,8.8 v 50.4 c 0,1.5512 1.2265,2.8 2.75,2.8 h 38.5 C 55.7735,62 57,60.7512 57,59.2 V 22 L 41,6 Z"
       id="path2"
       sodipodi:nodetypes="ssssssccs" />
    <path
       style="opacity:0.593376;fill:#ffffff;fill-opacity:1"
       d="M 41,6 V 19.333333 C 41,20.806133 42.193906,22 43.666666,22 H 57 Z"
       id="path4" />
  </g>
  <path
     style="fill:url(#radialGradient10)"
     d="M 39 34 L 39 37.5 C 39 39.439 37.439 41 35.5 41 L 28.5 41 C 28.5 41 25 41 25 44.5 L 25 50.625 C 25 53.0484 27.7314 55 31.125 55 L 32.875 55 C 36.2686 55 39 53.0484 39 50.625 L 39 48 L 41.625 48 C 44.0484 48 46 45.2686 46 41.875 L 46 40.125 C 46 36.7314 44.0484 34 41.625 34 L 39 34 z M 36.5 49 A 1.5 1.5 0 0 1 38 50.5 A 1.5 1.5 0 0 1 36.5 52 A 1.5 1.5 0 0 1 35 50.5 A 1.5 1.5 0 0 1 36.5 49 z"
     id="path6" />
  <path
     style="fill:url(#radialGradient12)"
     d="M 31.125 27 C 27.7314 27 25 28.9516 25 31.375 L 25 34 L 22.375 34 C 19.9516 34 18 36.7314 18 40.125 L 18 41.875 C 18 45.2686 19.9516 48 22.375 48 L 25 48 L 25 44.5 C 25 42.561 26.561 41 28.5 41 L 35.5 41 C 35.5 41 39 41 39 37.5 L 39 31.375 C 39 28.9516 36.2686 27 32.875 27 L 31.125 27 z M 27.5 30 A 1.5 1.5 0 0 1 29 31.5 A 1.5 1.5 0 0 1 27.5 33 A 1.5 1.5 0 0 1 26 31.5 A 1.5 1.5 0 0 1 27.5 30 z"
     id="path7" />
</svg>
