<?xml version="1.0" encoding="UTF-8" standalone="no"?>
<svg
   width="64"
   height="64"
   version="1"
   id="svg5"
   sodipodi:docname="application-ram.svg"
   inkscape:version="1.3.2 (091e20ef0f, 2023-11-25, custom)"
   xmlns:inkscape="http://www.inkscape.org/namespaces/inkscape"
   xmlns:sodipodi="http://sodipodi.sourceforge.net/DTD/sodipodi-0.dtd"
   xmlns:xlink="http://www.w3.org/1999/xlink"
   xmlns="http://www.w3.org/2000/svg"
   xmlns:svg="http://www.w3.org/2000/svg">
  <defs
     id="defs5">
    <linearGradient
       id="linearGradient6"
       inkscape:collect="always">
      <stop
         style="stop-color:#844dd9;stop-opacity:1;"
         offset="0"
         id="stop6" />
      <stop
         style="stop-color:#37d5d9;stop-opacity:1;"
         offset="1"
         id="stop7" />
    </linearGradient>
    <radialGradient
       inkscape:collect="always"
       xlink:href="#linearGradient6"
       id="radialGradient7"
       cx="9.2683764"
       cy="9.2845249"
       fx="9.2683764"
       fy="9.2845249"
       r="26"
       gradientTransform="matrix(-3.3123819,5.0717519,-5.3273973,-3.4793445,89.43113,-8.821186)"
       gradientUnits="userSpaceOnUse" />
  </defs>
  <sodipodi:namedview
     id="namedview5"
     pagecolor="#ffffff"
     bordercolor="#000000"
     borderopacity="0.25"
     inkscape:showpageshadow="2"
     inkscape:pageopacity="0.0"
     inkscape:pagecheckerboard="0"
     inkscape:deskcolor="#d1d1d1"
     inkscape:zoom="13.71875"
     inkscape:cx="30.432802"
     inkscape:cy="33.676538"
     inkscape:window-width="1920"
     inkscape:window-height="1014"
     inkscape:window-x="0"
     inkscape:window-y="0"
     inkscape:window-maximized="1"
     inkscape:current-layer="svg5" />
  <path
     fill="#7282d9"
     d="m 58,48.18295 v -32.3663 c 0,-1.4777 -1.16,-2.667 -2.6,-2.667 H 8.6 c -1.4404,0 -2.6,1.1893 -2.6,2.6667 v 32.3673 c 0,1.4773 1.1596,2.6667 2.6,2.6667 h 46.8 c 1.4404,0 2.6,-1.1893 2.6,-2.6667 z"
     id="path2"
     style="fill:url(#radialGradient7)"
     sodipodi:nodetypes="cssssssssc" />
  <path
     fill="#ffffff"
     d="M 19.796,23.00015 H 36.2 c 1.3,0 1.3,1.2857 1.3,1.2857 v 15.429 c 0,1.285 -1.3,1.285 -1.3,1.285 H 19.8 c 0,0 -1.3,0 -1.3,-1.2857 v -15.428 c 0,0 0,-1.286 1.3,-1.286 z m 25.704,2 v 15 l -8,-8 z"
     id="path4" />
</svg>
