<?xml version="1.0" encoding="UTF-8" standalone="no"?>
<svg
   width="64"
   height="64"
   version="1"
   id="svg18"
   sodipodi:docname="x-office-calendar.svg"
   inkscape:version="1.3.2 (091e20ef0f, 2023-11-25, custom)"
   xmlns:inkscape="http://www.inkscape.org/namespaces/inkscape"
   xmlns:sodipodi="http://sodipodi.sourceforge.net/DTD/sodipodi-0.dtd"
   xmlns:xlink="http://www.w3.org/1999/xlink"
   xmlns="http://www.w3.org/2000/svg"
   xmlns:svg="http://www.w3.org/2000/svg">
  <defs
     id="defs18">
    <linearGradient
       id="linearGradient19"
       inkscape:collect="always">
      <stop
         style="stop-color:#3e60f5;stop-opacity:1;"
         offset="0"
         id="stop20" />
      <stop
         style="stop-color:#11f6ec;stop-opacity:1;"
         offset="1"
         id="stop21" />
    </linearGradient>
    <linearGradient
       id="linearGradient18"
       inkscape:collect="always">
      <stop
         style="stop-color:#3351d4;stop-opacity:1;"
         offset="0"
         id="stop18" />
      <stop
         style="stop-color:#3cd1ed;stop-opacity:1;"
         offset="0.99578035"
         id="stop19" />
    </linearGradient>
    <radialGradient
       inkscape:collect="always"
       xlink:href="#linearGradient18"
       id="radialGradient19"
       cx="8.715395"
       cy="28.644829"
       fx="8.715395"
       fy="28.644829"
       r="27.500196"
       gradientTransform="matrix(1.9608695,0.18312266,-0.11566234,1.2385074,-5.0612286,-19.34507)"
       gradientUnits="userSpaceOnUse" />
    <radialGradient
       inkscape:collect="always"
       xlink:href="#linearGradient19"
       id="radialGradient21"
       cx="36.986748"
       cy="39.905136"
       fx="36.986748"
       fy="39.905136"
       r="4"
       gradientUnits="userSpaceOnUse"
       gradientTransform="matrix(4.8033053,5.0790997,-4.2305634,4.0008443,23.29804,-306.48514)" />
  </defs>
  <sodipodi:namedview
     id="namedview18"
     pagecolor="#ffffff"
     bordercolor="#000000"
     borderopacity="0.25"
     inkscape:showpageshadow="2"
     inkscape:pageopacity="0.0"
     inkscape:pagecheckerboard="0"
     inkscape:deskcolor="#d1d1d1"
     inkscape:zoom="8.9382717"
     inkscape:cx="18.739641"
     inkscape:cy="33.28384"
     inkscape:window-width="1920"
     inkscape:window-height="1017"
     inkscape:window-x="0"
     inkscape:window-y="0"
     inkscape:window-maximized="1"
     inkscape:current-layer="svg18" />
  <path
     style="fill:#e4e4e4"
     d="M 4,20.9 4,54.199219 C 4,55.750419 5.2495813,57 6.8007812,57 l 49.3988278,0 c 1.551201,0 2.800782,-1.249581 2.800782,-2.800781 l 0,-33.299219 z"
     id="path2" />
  <path
     style="opacity:0.2"
     d="m 59.000391,22 0,-11.2 c 0,-1.5512 -1.248801,-2.8 -2.8,-2.8 L 6.8,8 C 5.2488,8 4,9.2488 4,10.8 L 4,22 Z"
     id="path3" />
  <path
     style="fill:url(#radialGradient19)"
     d="m 59.000391,21 0,-11.2 c 0,-1.5512 -1.248801,-2.8 -2.8,-2.8 L 6.8,7 C 5.2488,7 4,8.2488 4,9.8 L 4,21 Z"
     id="path4" />
  <rect
     style="opacity:0.2"
     width="8"
     height="8"
     x="33"
     y="24"
     id="rect4"
     ry="1.6298044" />
  <rect
     style="opacity:0.2"
     width="8"
     height="8"
     x="44"
     y="24"
     id="rect5"
     ry="1.5436568" />
  <rect
     style="opacity:0.2"
     width="8"
     height="8"
     x="22"
     y="24"
     id="rect6"
     ry="1.5017768" />
  <rect
     style="opacity:0.2"
     width="8"
     height="8"
     x="11"
     y="24"
     id="rect7"
     ry="1.6313012" />
  <circle
     style="opacity:0.2"
     cx="37"
     cy="40"
     r="4"
     id="circle7" />
  <circle
     style="fill:url(#radialGradient21)"
     cx="37"
     cy="39"
     id="circle8"
     r="4" />
  <circle
     style="opacity:0.2"
     cx="14.5"
     cy="14.5"
     r="2.5"
     id="circle9" />
  <circle
     style="fill:#ffffff"
     cx="14.5"
     cy="13.5"
     r="2.5"
     id="circle10" />
  <circle
     style="opacity:0.2"
     cx="48.5"
     cy="14.5"
     r="2.5"
     id="circle11" />
  <circle
     style="fill:#ffffff"
     cx="48.5"
     cy="13.5"
     r="2.5"
     id="circle12" />
  <rect
     style="opacity:0.2"
     width="8"
     height="8"
     x="44"
     y="35"
     id="rect12"
     ry="1.6547049" />
  <rect
     style="opacity:0.2"
     width="8"
     height="8"
     x="22"
     y="35"
     id="rect13"
     ry="1.5876806" />
  <rect
     style="opacity:0.2"
     width="8"
     height="8"
     x="11"
     y="35"
     id="rect14"
     ry="1.375029" />
  <rect
     style="opacity:0.2"
     width="8"
     height="8"
     x="33"
     y="46"
     id="rect15"
     ry="1.7737803" />
  <rect
     style="opacity:0.2"
     width="8"
     height="8"
     x="44"
     y="46"
     id="rect16"
     ry="1.5755321" />
  <rect
     style="opacity:0.2"
     width="8"
     height="8"
     x="22"
     y="46"
     id="rect17"
     ry="2.0691247" />
  <rect
     style="opacity:0.2"
     width="8"
     height="8"
     x="11"
     y="46"
     id="rect18"
     ry="1.9131017" />
</svg>
