<?xml version="1.0" encoding="UTF-8" standalone="no"?>
<svg
   width="64"
   height="64"
   version="1.1"
   id="svg7"
   sodipodi:docname="xopt.svg"
   inkscape:version="1.3.2 (091e20ef0f, 2023-11-25, custom)"
   xmlns:inkscape="http://www.inkscape.org/namespaces/inkscape"
   xmlns:sodipodi="http://sodipodi.sourceforge.net/DTD/sodipodi-0.dtd"
   xmlns:xlink="http://www.w3.org/1999/xlink"
   xmlns="http://www.w3.org/2000/svg"
   xmlns:svg="http://www.w3.org/2000/svg">
  <defs
     id="defs7">
    <radialGradient
       inkscape:collect="always"
       xlink:href="#linearGradient8"
       id="radialGradient9"
       cx="21.477476"
       cy="23.351734"
       fx="21.477476"
       fy="23.351734"
       r="22"
       gradientTransform="matrix(5.2437612,-5.1735227e-8,0,4.286547,-93.16866,-54.97246)"
       gradientUnits="userSpaceOnUse" />
    <linearGradient
       id="linearGradient8"
       inkscape:collect="always">
      <stop
         style="stop-color:#ededed;stop-opacity:1;"
         offset="0"
         id="stop8" />
      <stop
         style="stop-color:#b7b7b7;stop-opacity:1;"
         offset="1"
         id="stop9" />
    </linearGradient>
  </defs>
  <sodipodi:namedview
     id="namedview7"
     pagecolor="#ffffff"
     bordercolor="#000000"
     borderopacity="0.25"
     inkscape:showpageshadow="2"
     inkscape:pageopacity="0.0"
     inkscape:pagecheckerboard="0"
     inkscape:deskcolor="#d1d1d1"
     inkscape:zoom="13.09375"
     inkscape:cx="31.961814"
     inkscape:cy="32"
     inkscape:window-width="1920"
     inkscape:window-height="1014"
     inkscape:window-x="0"
     inkscape:window-y="0"
     inkscape:window-maximized="1"
     inkscape:current-layer="svg7" />
  <g
     id="g1">
    <path
       style="fill:url(#radialGradient9);fill-opacity:1"
       d="M 12.75,4 C 11.2265,4 10,5.2488 10,6.8 v 50.4 c 0,1.5512 1.2265,2.8 2.75,2.8 h 38.5 C 52.7735,60 54,58.7512 54,57.2 V 20 L 38,4 Z"
       id="path2"
       sodipodi:nodetypes="ssssssccs" />
    <path
       style="opacity:0.593376;fill:#ffffff;fill-opacity:1"
       d="M 38,4 V 17.333333 C 38,18.806133 39.193906,20 40.666666,20 H 54 Z"
       id="path4" />
  </g>
  <path
     style="fill:#ff6600"
     d="m 34.708384,37.324688 c 0.09748,0.11216 0.35622,0.361132 0.776264,0.746932 5.896098,5.980728 8.73068,8.647954 8.502614,9.364636 -0.16392,0.52718 -0.636396,0.974204 -1.41744,1.341082 -0.779758,0.345532 -1.482248,0.502214 -2.107476,0.470046 -0.495022,-0.02546 -2.84597,-1.8644 -7.051716,-6.879776 -0.848634,-1.050578 -1.347062,-1.643958 -1.495284,-1.780144 -0.616212,0.653892 -1.537312,1.999082 -2.763308,4.035578 -1.57813,3.24932 -3.654624,6.247706 -4.843906,9.680956 -0.363252,1.20249 -1.287366,1.765546 -2.77234,1.689158 -0.781574,-0.04022 -1.261776,-0.300572 -1.440596,-0.781102 -0.178834,-0.480534 -0.105704,-1.226616 0.219386,-2.238262 0.624112,-2.024614 3.625602,-6.93704 9.004478,-14.73729 -0.0306,-0.344342 -0.801302,-1.594454 -2.312118,-3.75034 -1.510842,-2.155844 -2.710312,-3.788884 -3.598422,-4.62729 -0.962246,-0.90644 -1.362766,-1.601906 -1.20156,-2.086396 0.363234,-1.202468 1.50879,-1.75413 3.436672,-1.654988 0.937874,0.04828 2.609472,2.069812 5.014806,5.792784 1.027424,1.531144 1.700398,2.46558 2.01892,2.803304 0.554652,-0.50705 1.34532,-1.44118 2.371992,-2.802388 1.027984,-1.382518 1.738894,-2.502856 2.132744,-3.361016 0.389772,-0.794044 1.004616,-1.426564 1.844544,-1.897568 0.83988,-0.470946 1.637588,-0.687002 2.393132,-0.648166 1.172324,0.06032 1.596634,0.58563 1.272922,1.575886 -0.36327,1.20252 -2.477004,3.846798 -6.341208,7.932842 -1.00785,1.062234 -1.555544,1.666074 -1.643102,1.811522"
     id="path6" />
</svg>
