<?xml version="1.0" encoding="UTF-8" standalone="no"?>
<svg
   width="16"
   height="16"
   version="1.1"
   id="svg1"
   sodipodi:docname="window-restore-symbolic.svg"
   inkscape:version="1.4.1 (93de688d07, 2025-03-30)"
   xmlns:inkscape="http://www.inkscape.org/namespaces/inkscape"
   xmlns:sodipodi="http://sodipodi.sourceforge.net/DTD/sodipodi-0.dtd"
   xmlns="http://www.w3.org/2000/svg"
   xmlns:svg="http://www.w3.org/2000/svg">
  <defs
     id="defs1" />
  <sodipodi:namedview
     id="namedview1"
     pagecolor="#ffffff"
     bordercolor="#000000"
     borderopacity="0.25"
     inkscape:showpageshadow="2"
     inkscape:pageopacity="0.0"
     inkscape:pagecheckerboard="0"
     inkscape:deskcolor="#d1d1d1"
     inkscape:zoom="75.125"
     inkscape:cx="7.9933444"
     inkscape:cy="8"
     inkscape:window-width="3440"
     inkscape:window-height="1412"
     inkscape:window-x="0"
     inkscape:window-y="0"
     inkscape:window-maximized="1"
     inkscape:current-layer="svg1" />
  <path
     d="m 5.5214844,3.9140625 c -0.8819891,0 -1.6074219,0.7254328 -1.6074219,1.6074219 v 4.9570316 c 0,0.881989 0.7254328,1.607421 1.6074219,1.607422 h 4.9570316 c 0.881989,0 1.607421,-0.725433 1.607422,-1.607422 V 5.5214844 c 0,-0.8819891 -0.725433,-1.6074219 -1.607422,-1.6074219 z m 0,1.0058594 h 4.9570316 c 0.342189,0 0.601562,0.2593729 0.601562,0.6015625 v 4.9570316 c 0,0.342189 -0.259373,0.601562 -0.601562,0.601562 H 5.5214844 c -0.3421896,0 -0.6015625,-0.259373 -0.6015625,-0.601562 V 5.5214844 c 0,-0.3421896 0.2593729,-0.6015625 0.6015625,-0.6015625 z"
     style="baseline-shift:baseline;display:inline;overflow:visible;opacity:1;vector-effect:none;fill:#dfdfdf;stroke-linecap:round;enable-background:accumulate;stop-color:#000000;stop-opacity:1"
     id="path2" />
</svg>
