<?xml version="1.0" encoding="UTF-8" standalone="no"?>
<svg
   width="16"
   height="16"
   version="1.1"
   id="svg1"
   sodipodi:docname="window_new.svg"
   inkscape:version="1.4.1 (93de688d07, 2025-03-30)"
   xmlns:inkscape="http://www.inkscape.org/namespaces/inkscape"
   xmlns:sodipodi="http://sodipodi.sourceforge.net/DTD/sodipodi-0.dtd"
   xmlns="http://www.w3.org/2000/svg"
   xmlns:svg="http://www.w3.org/2000/svg">
  <sodipodi:namedview
     id="namedview1"
     pagecolor="#ffffff"
     bordercolor="#000000"
     borderopacity="0.25"
     inkscape:showpageshadow="2"
     inkscape:pageopacity="0.0"
     inkscape:pagecheckerboard="0"
     inkscape:deskcolor="#d1d1d1"
     inkscape:zoom="75.125"
     inkscape:cx="7.9933444"
     inkscape:cy="8"
     inkscape:window-width="3440"
     inkscape:window-height="1412"
     inkscape:window-x="0"
     inkscape:window-y="0"
     inkscape:window-maximized="1"
     inkscape:current-layer="svg1" />
  <defs
     id="defs1">
    <style
       id="current-color-scheme"
       type="text/css">
   .ColorScheme-Text { color:#dfdfdf; } .ColorScheme-Highlight { color:#4285f4; } .ColorScheme-NeutralText { color:#ff9800; } .ColorScheme-PositiveText { color:#4caf50; } .ColorScheme-NegativeText { color:#f44336; }
  </style>
    <inkscape:path-effect
       effect="fillet_chamfer"
       id="path-effect3"
       is_visible="true"
       lpeversion="1"
       nodesatellites_param="F,0,1,1,0,0.66056574,0,1 @ F,0,0,1,0,0,0,1 @ F,0,1,1,0,0.66056574,0,1 @ F,0,1,1,0,0.66056574,0,1 @ F,0,0,1,0,0,0,1 @ F,0,1,1,0,0.66056574,0,1 @ F,0,1,1,0,0.66056574,0,1 @ F,0,0,1,0,0,0,1 @ F,0,1,1,0,0.66056574,0,1 @ F,0,0,1,0,0.66056574,0,1 @ F,0,0,1,0,0,0,1 @ F,0,1,1,0,0.66056574,0,1"
       radius="0"
       unit="px"
       method="auto"
       mode="F"
       chamfer_steps="1"
       flexible="false"
       use_knot_distance="true"
       apply_no_radius="true"
       apply_with_radius="true"
       only_selected="false"
       hide_knots="false" />
    <inkscape:path-effect
       effect="fillet_chamfer"
       id="path-effect2"
       is_visible="true"
       lpeversion="1"
       nodesatellites_param="F,0,0,1,0,0,0,1 @ F,0,0,1,0,0,0,1 @ F,0,0,1,0,0,0,1 @ F,0,0,1,0,0,0,1 @ F,0,1,1,0,0.71447587,0,1 @ F,0,0,1,0,0.71447587,0,1 @ F,0,1,1,0,0.71447587,0,1 @ F,0,1,1,0,0.71447587,0,1 @ F,0,1,1,0,0.71447587,0,1 @ F,0,1,1,0,0.71447587,0,1 @ F,0,1,1,0,0.71447587,0,1 @ F,0,0,1,0,0,0,1 @ F,0,0,1,0,0,0,1"
       radius="0"
       unit="px"
       method="auto"
       mode="F"
       chamfer_steps="1"
       flexible="false"
       use_knot_distance="true"
       apply_no_radius="true"
       apply_with_radius="true"
       only_selected="false"
       hide_knots="false" />
  </defs>
  <g
     id="svg2"
     transform="translate(-0.5,-0.5)">
    <path
       style="fill:#dfdfdf"
       d="M 2,1 C 1,1 1,2 1,2 v 12 c 0,1 1,1 1,1 H 8.2855241 A 0.71447587,0.71447587 135 0 0 9,14.285524 0.7071924,0.7071924 44.406822 0 0 8.2855241,13.585691 H 3.1021631 A 0.71447587,0.71447587 45 0 1 2.3876872,12.871215 l 0,-8.7790353 A 0.71447587,0.71447587 135 0 1 3.1021631,3.3777038 h 9.7956739 a 0.71447587,0.71447587 45 0 1 0.714476,0.7144759 V 8.2855241 A 0.71447587,0.71447587 45 0 0 14.326789,9 0.6941502,0.6941502 133.29673 0 0 15,8.2855241 V 2 C 15,1 14,1 14,1 Z"
       id="path1"
       sodipodi:nodetypes="scsccccccccscs"
       inkscape:path-effect="#path-effect2"
       inkscape:original-d="M 2,1 C 1,1 1,2 1,2 v 12 c 0,1 1,1 1,1 H 9 V 13.585691 H 2.3876872 V 3.3777038 H 13.612313 V 9 H 15 V 2 C 15,1 14,1 14,1 Z" />
    <path
       style="fill:#dfdfdf"
       d="M 12.34609,10.660566 V 12.34609 H 10.660566 A 0.66056574,0.66056574 135 0 0 10,13.006656 0.65394387,0.65394387 44.416842 0 0 10.660566,13.65391 h 1.685524 v 1.685524 A 0.66056574,0.66056574 45 0 0 13.006656,16 0.65394387,0.65394387 134.41684 0 0 13.65391,15.339434 V 13.65391 h 1.685524 A 0.66056574,0.66056574 135 0 0 16,12.993344 0.65394387,0.65394387 44.416842 0 0 15.339434,12.34609 H 13.65391 V 10.660566 A 0.66056574,0.66056574 45 0 0 12.993344,10 0.65394387,0.65394387 134.41684 0 0 12.34609,10.660566 Z"
       id="path2"
       sodipodi:nodetypes="ccccccccccccc"
       inkscape:path-effect="#path-effect3"
       inkscape:original-d="m 12.34609,10 v 2.34609 H 10 v 1.30782 h 2.34609 V 16 h 1.30782 V 13.65391 H 16 V 12.34609 H 13.65391 V 10 Z" />
  </g>
</svg>
