<?xml version="1.0" encoding="UTF-8" standalone="no"?>
<svg
   width="16"
   height="16"
   version="1.1"
   id="svg1"
   sodipodi:docname="window-maximize-symbolic.svg"
   inkscape:version="1.4.1 (93de688d07, 2025-03-30)"
   xmlns:inkscape="http://www.inkscape.org/namespaces/inkscape"
   xmlns:sodipodi="http://sodipodi.sourceforge.net/DTD/sodipodi-0.dtd"
   xmlns="http://www.w3.org/2000/svg"
   xmlns:svg="http://www.w3.org/2000/svg">
  <defs
     id="defs1">
    <inkscape:path-effect
       effect="fillet_chamfer"
       id="path-effect3"
       is_visible="true"
       lpeversion="1"
       nodesatellites_param="F,0,1,1,0,0.60234375,0,1 @ F,0,0,1,0,0.61122056,0,1 @ F,0,0,1,0,0.61122056,0,1 @ F,0,0,1,0,0.61122056,0,1 @ F,0,0,1,0,0.60234375,0,1 @ F,0,0,1,0,1.5832671,0,1 | F,0,1,1,0,0.60234375,0,1 @ F,0,0,1,0,1.5832671,0,1 @ F,0,1,1,0,0.60234375,0,1 @ F,0,0,1,0,0.61122056,0,1 @ F,0,0,1,0,0.61122056,0,1 @ F,0,0,1,0,0.61122056,0,1"
       radius="0"
       unit="px"
       method="auto"
       mode="F"
       chamfer_steps="1"
       flexible="false"
       use_knot_distance="true"
       apply_no_radius="true"
       apply_with_radius="true"
       only_selected="false"
       hide_knots="false" />
  </defs>
  <sodipodi:namedview
     id="namedview1"
     pagecolor="#ffffff"
     bordercolor="#000000"
     borderopacity="0.25"
     inkscape:showpageshadow="2"
     inkscape:pageopacity="0.0"
     inkscape:pagecheckerboard="0"
     inkscape:deskcolor="#d1d1d1"
     inkscape:zoom="75.125"
     inkscape:cx="7.9933444"
     inkscape:cy="8"
     inkscape:window-width="3440"
     inkscape:window-height="1412"
     inkscape:window-x="0"
     inkscape:window-y="0"
     inkscape:window-maximized="1"
     inkscape:current-layer="svg1" />
  <g
     id="g1">
    <path
       d="m 6.4845151,4.3458433 0.1418804,0.1418804 a 1.475617,1.475617 22.5 0 0 1.0434188,0.4321982 h 2.7990427 a 0.61122056,0.61122056 45 0 1 0.611221,0.6112206 l 0,2.8009963 a 1.475617,1.475617 67.5 0 0 0.432198,1.0434188 L 11.654157,9.517438 A 0.24949895,0.24949895 157.5 0 0 12.080078,9.3410157 V 5.503189 A 1.5832671,1.5832671 45 0 0 10.496811,3.9199219 l -3.8358735,0 A 0.24949895,0.24949895 112.5 0 0 6.4845151,4.3458433 Z M 3.9199219,6.7 v 3.796811 A 1.5832671,1.5832671 45 0 0 5.503189,12.080078 H 9.3000001 A 0.24949895,0.24949895 112.5 0 0 9.4764224,11.654157 L 9.334542,11.512276 A 1.475617,1.475617 22.5 0 0 8.2911232,11.080078 H 5.5311425 A 0.61122056,0.61122056 45 0 1 4.9199219,10.468857 V 7.7088768 A 1.475617,1.475617 67.5 0 0 4.4877237,6.665458 L 4.3458433,6.5235776 A 0.24949895,0.24949895 157.5 0 0 3.9199219,6.7 Z"
       style="baseline-shift:baseline;display:inline;overflow:visible;opacity:1;vector-effect:none;fill:#dfdfdf;stroke-linecap:round;enable-background:accumulate;stop-color:#000000;stop-opacity:1"
       id="path3"
       inkscape:path-effect="#path-effect3"
       inkscape:original-d="m 6.0585937,3.9199219 1,1 h 4.0214843 v 4.0234375 l 1,1 V 3.9199219 Z M 3.9199219,6.0976562 v 5.9824218 h 5.9824219 l -1,-1 H 4.9199219 V 7.0976562 Z"
       sodipodi:nodetypes="cccccccccccccc" />
  </g>
</svg>
