<?xml version="1.0" encoding="UTF-8" standalone="no"?>
<svg
   width="64"
   height="64"
   version="1"
   id="svg8"
   sodipodi:docname="4diac-ide.svg"
   inkscape:version="1.3.2 (091e20ef0f, 2023-11-25, custom)"
   xmlns:inkscape="http://www.inkscape.org/namespaces/inkscape"
   xmlns:sodipodi="http://sodipodi.sourceforge.net/DTD/sodipodi-0.dtd"
   xmlns:xlink="http://www.w3.org/1999/xlink"
   xmlns="http://www.w3.org/2000/svg"
   xmlns:svg="http://www.w3.org/2000/svg">
  <defs
     id="defs8">
    <linearGradient
       id="linearGradient10"
       inkscape:collect="always">
      <stop
         style="stop-color:#ffe00e;stop-opacity:1;"
         offset="0"
         id="stop11" />
      <stop
         style="stop-color:#ff950e;stop-opacity:1;"
         offset="1"
         id="stop12" />
    </linearGradient>
    <linearGradient
       id="linearGradient9"
       inkscape:collect="always">
      <stop
         style="stop-color:#547bb0;stop-opacity:1;"
         offset="0"
         id="stop9" />
      <stop
         style="stop-color:#1e3d7d;stop-opacity:1;"
         offset="1"
         id="stop10" />
    </linearGradient>
    <inkscape:path-effect
       effect="fillet_chamfer"
       id="path-effect9"
       is_visible="true"
       lpeversion="1"
       nodesatellites_param="F,0,1,1,0,2.3496261,0,1 @ F,0,1,1,0,2.3496261,0,1 @ F,0,0,1,0,2.3496261,0,1 @ F,0,1,1,0,2.3496261,0,1 | F,0,0,1,0,0,0,1 @ F,0,0,1,0,0,0,1 @ F,0,0,1,0,0,0,1 @ F,0,0,1,0,0,0,1 | F,0,0,1,0,0,0,1 @ F,0,0,1,0,0,0,1 @ F,0,0,1,0,0,0,1 @ F,0,0,1,0,0,0,1 | F,0,0,1,0,0,0,1 @ F,0,0,1,0,0,0,1 @ F,0,0,1,0,0,0,1 @ F,0,0,1,0,0,0,1"
       radius="0"
       unit="px"
       method="auto"
       mode="F"
       chamfer_steps="1"
       flexible="false"
       use_knot_distance="true"
       apply_no_radius="true"
       apply_with_radius="true"
       only_selected="false"
       hide_knots="false" />
    <inkscape:path-effect
       effect="fillet_chamfer"
       id="path-effect8"
       is_visible="true"
       lpeversion="1"
       nodesatellites_param="F,0,0,1,0,3.670932,0,1 @ F,0,0,1,0,2.22435,0,1 @ F,0,0,1,0,4.2014149,0,1 @ F,0,0,1,0,1.4421151,0,1 @ F,0,0,1,0,4.2635076,0,1 @ F,0,0,1,0,4.2635076,0,1 @ F,0,0,1,0,1.4421151,0,1 @ F,0,0,1,0,2.5303547,0,1 @ F,0,0,1,0,2.5303547,0,1 @ F,0,0,1,0,1.4421151,0,1 @ F,0,0,1,0,5.0487996,0,1 | F,0,0,1,0,1.3741842,0,1 @ F,0,0,1,0,1.8415069,0,1 @ F,0,0,1,0,2.1342857,0,1"
       radius="0"
       unit="px"
       method="auto"
       mode="F"
       chamfer_steps="1"
       flexible="false"
       use_knot_distance="true"
       apply_no_radius="true"
       apply_with_radius="true"
       only_selected="false"
       hide_knots="false" />
    <radialGradient
       inkscape:collect="always"
       xlink:href="#linearGradient9"
       id="radialGradient10"
       cx="-50.588688"
       cy="-10.250269"
       fx="-50.588688"
       fy="-10.250269"
       r="28.5"
       gradientTransform="matrix(1.9994912,1.1544068,-0.95238565,1.6495803,42.2526,59.858106)"
       gradientUnits="userSpaceOnUse" />
    <radialGradient
       inkscape:collect="always"
       xlink:href="#linearGradient10"
       id="radialGradient12"
       cx="28.589739"
       cy="43.396515"
       fx="28.589739"
       fy="43.396515"
       r="18.5"
       gradientTransform="matrix(1.9241782,0,0,2.9642745,-26.422013,-78.812119)"
       gradientUnits="userSpaceOnUse" />
    <inkscape:path-effect
       effect="fillet_chamfer"
       id="path-effect9-5"
       is_visible="true"
       lpeversion="1"
       nodesatellites_param="F,0,1,1,0,2.3496261,0,1 @ F,0,1,1,0,2.3496261,0,1 @ F,0,0,1,0,2.3496261,0,1 @ F,0,1,1,0,2.3496261,0,1 | F,0,0,1,0,0,0,1 @ F,0,0,1,0,0,0,1 @ F,0,0,1,0,0,0,1 @ F,0,0,1,0,0,0,1 | F,0,0,1,0,0,0,1 @ F,0,0,1,0,0,0,1 @ F,0,0,1,0,0,0,1 @ F,0,0,1,0,0,0,1 | F,0,0,1,0,0,0,1 @ F,0,0,1,0,0,0,1 @ F,0,0,1,0,0,0,1 @ F,0,0,1,0,0,0,1"
       radius="0"
       unit="px"
       method="auto"
       mode="F"
       chamfer_steps="1"
       flexible="false"
       use_knot_distance="true"
       apply_no_radius="true"
       apply_with_radius="true"
       only_selected="false"
       hide_knots="false" />
    <inkscape:path-effect
       effect="fillet_chamfer"
       id="path-effect8-2"
       is_visible="true"
       lpeversion="1"
       nodesatellites_param="F,0,0,1,0,3.670932,0,1 @ F,0,0,1,0,2.22435,0,1 @ F,0,0,1,0,4.2014149,0,1 @ F,0,0,1,0,1.4421151,0,1 @ F,0,0,1,0,4.2635076,0,1 @ F,0,0,1,0,4.2635076,0,1 @ F,0,0,1,0,1.4421151,0,1 @ F,0,0,1,0,2.5303547,0,1 @ F,0,0,1,0,2.5303547,0,1 @ F,0,0,1,0,1.4421151,0,1 @ F,0,0,1,0,5.0487996,0,1 | F,0,0,1,0,1.3741842,0,1 @ F,0,0,1,0,1.8415069,0,1 @ F,0,0,1,0,2.1342857,0,1"
       radius="0"
       unit="px"
       method="auto"
       mode="F"
       chamfer_steps="1"
       flexible="false"
       use_knot_distance="true"
       apply_no_radius="true"
       apply_with_radius="true"
       only_selected="false"
       hide_knots="false" />
    <filter
       inkscape:collect="always"
       style="color-interpolation-filters:sRGB"
       id="filter12"
       x="-0.13962058"
       y="-0.090630903"
       width="1.2792412"
       height="1.1812618">
      <feGaussianBlur
         inkscape:collect="always"
         stdDeviation="2.027484"
         id="feGaussianBlur12" />
    </filter>
    <filter
       inkscape:collect="always"
       style="color-interpolation-filters:sRGB"
       id="filter13"
       x="-0.16664392"
       y="-0.18449862"
       width="1.3332878"
       height="1.3689972">
      <feGaussianBlur
         inkscape:collect="always"
         stdDeviation="2.027484"
         id="feGaussianBlur13" />
    </filter>
    <filter
       inkscape:collect="always"
       style="color-interpolation-filters:sRGB"
       id="filter14"
       x="-0.090630903"
       y="-0.10985564"
       width="1.1812618"
       height="1.2197113">
      <feGaussianBlur
         inkscape:collect="always"
         stdDeviation="2.027484"
         id="feGaussianBlur14" />
    </filter>
  </defs>
  <sodipodi:namedview
     id="namedview8"
     pagecolor="#505050"
     bordercolor="#eeeeee"
     borderopacity="1"
     inkscape:showpageshadow="0"
     inkscape:pageopacity="0"
     inkscape:pagecheckerboard="0"
     inkscape:deskcolor="#505050"
     inkscape:zoom="9.534893"
     inkscape:cx="24.856073"
     inkscape:cy="26.586559"
     inkscape:window-width="1920"
     inkscape:window-height="1020"
     inkscape:window-x="0"
     inkscape:window-y="0"
     inkscape:window-maximized="1"
     inkscape:current-layer="svg8" />
  <rect
     style="fill:url(#radialGradient10);stroke-width:0.89813"
     width="51.193386"
     height="42.234543"
     x="-57.589405"
     y="-48.61364"
     rx="11.485174"
     ry="11.485174"
     transform="matrix(0,-1,-1,0,0,0)"
     id="rect2" />
  <rect
     style="fill:none;stroke:#000000;stroke-width:0.6;stroke-dasharray:none;stroke-opacity:1;filter:url(#filter14)"
     width="57"
     height="47.025002"
     x="-60.008114"
     y="-50.044456"
     rx="12.787881"
     ry="12.787881"
     transform="matrix(0,-0.89812955,-0.89812955,0,3.6891981,3.701631)"
     id="rect2-9" />
  <path
     style="fill:#ffffff;stroke-width:0.89813"
     d="M 48.618129,12.795193 V 47.350727 H 29.42061 Z"
     id="path4" />
  <path
     style="fill:#ffffff"
     d="m 3,16.349626 v 4.300748 A 2.3496261,2.3496261 45 0 0 5.3496261,23 H 9.6503739 A 2.3496261,2.3496261 135 0 0 12,20.650374 V 16.349626 A 2.3496261,2.3496261 45 0 0 9.6503739,14 H 5.3496261 A 2.3496261,2.3496261 135 0 0 3,16.349626 Z M 3,27 v 3 h 31 v -3 z m 0,6 v 3 h 31 v -3 z m 0,6 v 3 h 31 v -3 z"
     id="path5"
     inkscape:path-effect="#path-effect9"
     inkscape:original-d="m 3,14 v 9 h 9 v -9 z m 0,13 v 3 h 31 v -3 z m 0,6 v 3 h 31 v -3 z m 0,6 v 3 h 31 v -3 z"
     transform="matrix(0.89812955,0,0,0.89812955,3.6891981,3.701631)" />
  <path
     style="fill:none;stroke:#000000;stroke-width:0.6;stroke-dasharray:none;stroke-opacity:1;filter:url(#filter13)"
     d="m 3,16.349626 v 4.300748 A 2.3496261,2.3496261 45 0 0 5.3496261,23 H 9.6503739 A 2.3496261,2.3496261 135 0 0 12,20.650374 V 16.349626 A 2.3496261,2.3496261 45 0 0 9.6503739,14 H 5.3496261 A 2.3496261,2.3496261 135 0 0 3,16.349626 Z M 3,27 v 3 h 31 v -3 z m 0,6 v 3 h 31 v -3 z m 0,6 v 3 h 31 v -3 z"
     id="path5-1"
     inkscape:path-effect="#path-effect9-5"
     inkscape:original-d="m 3,14 v 9 h 9 v -9 z m 0,13 v 3 h 31 v -3 z m 0,6 v 3 h 31 v -3 z m 0,6 v 3 h 31 v -3 z"
     transform="matrix(0.89812955,0,0,0.89812955,3.7111621,3.70892)" />
  <path
     style="fill:url(#radialGradient12)"
     d="M 44.835403,6.2271945 24.060121,44.548775 A 8.7701218,8.7701218 104.23173 0 0 23,48.728598 v 0.06999 A 4.2014149,4.2014149 45 0 0 27.201415,53 l 18.35647,0 A 1.4421151,1.4421151 45 0 1 47,54.442115 v 1.294377 A 4.2635076,4.2635076 45 0 0 51.263508,60 h 0.472984 A 4.2635076,4.2635076 135 0 0 56,55.736492 V 54.442115 A 1.4421151,1.4421151 135 0 1 57.442115,53 h 0.02753 A 2.5303547,2.5303547 135 0 0 60,50.469645 v -3.93929 A 2.5303547,2.5303547 45 0 0 57.469645,44 h -0.02753 A 1.4421151,1.4421151 45 0 1 56,42.557885 V 8.0487996 A 5.0487996,5.0487996 45 0 0 50.9512,3 H 50.255894 A 6.1658059,6.1658059 149.23173 0 0 44.835403,6.2271945 Z M 47,20.694887 V 42.158493 A 1.8415069,1.8415069 135 0 1 45.158493,44 H 35.24576 A 1.2479486,1.2479486 59.684539 0 1 34.158199,42.140016 L 46.326054,20.518275 A 0.36011415,0.36011415 14.684539 0 1 47,20.694887 Z"
     id="path7"
     inkscape:path-effect="#path-effect8"
     inkscape:original-d="M 46.584962,3 23,46.504248 V 53 h 24 v 7 h 9 v -7 h 4 V 44 H 56 V 3 Z M 47,19.320703 V 44 H 33.111474 Z"
     sodipodi:nodetypes="cccccccccccccccc"
     transform="matrix(0.89812955,0,0,0.89812955,3.6891981,3.701631)" />
  <path
     style="fill:none;stroke:#000000;stroke-width:0.6;stroke-dasharray:none;stroke-opacity:1;filter:url(#filter12)"
     d="M 44.835403,6.2271945 24.060121,44.548775 A 8.7701218,8.7701218 104.23173 0 0 23,48.728598 v 0.06999 A 4.2014149,4.2014149 45 0 0 27.201415,53 l 18.35647,0 A 1.4421151,1.4421151 45 0 1 47,54.442115 v 1.294377 A 4.2635076,4.2635076 45 0 0 51.263508,60 h 0.472984 A 4.2635076,4.2635076 135 0 0 56,55.736492 V 54.442115 A 1.4421151,1.4421151 135 0 1 57.442115,53 h 0.02753 A 2.5303547,2.5303547 135 0 0 60,50.469645 v -3.93929 A 2.5303547,2.5303547 45 0 0 57.469645,44 h -0.02753 A 1.4421151,1.4421151 45 0 1 56,42.557885 V 8.0487996 A 5.0487996,5.0487996 45 0 0 50.9512,3 H 50.255894 A 6.1658059,6.1658059 149.23173 0 0 44.835403,6.2271945 Z M 47,20.694887 V 42.158493 A 1.8415069,1.8415069 135 0 1 45.158493,44 H 35.24576 A 1.2479486,1.2479486 59.684539 0 1 34.158199,42.140016 L 46.326054,20.518275 A 0.36011415,0.36011415 14.684539 0 1 47,20.694887 Z"
     id="path7-2"
     inkscape:path-effect="#path-effect8-2"
     inkscape:original-d="M 46.584962,3 23,46.504248 V 53 h 24 v 7 h 9 v -7 h 4 V 44 H 56 V 3 Z M 47,19.320703 V 44 H 33.111474 Z"
     sodipodi:nodetypes="cccccccccccccccc"
     transform="matrix(0.89812955,0,0,0.89812955,3.7111621,3.70892)" />
</svg>
