<?xml version="1.0" encoding="UTF-8" standalone="no"?>
<svg
   width="64"
   height="64"
   version="1.1"
   id="svg10"
   sodipodi:docname="4kvideotomp3.svg"
   inkscape:version="1.3.2 (091e20ef0f, 2023-11-25, custom)"
   xmlns:inkscape="http://www.inkscape.org/namespaces/inkscape"
   xmlns:sodipodi="http://sodipodi.sourceforge.net/DTD/sodipodi-0.dtd"
   xmlns:xlink="http://www.w3.org/1999/xlink"
   xmlns="http://www.w3.org/2000/svg"
   xmlns:svg="http://www.w3.org/2000/svg">
  <defs
     id="defs10">
    <linearGradient
       id="linearGradient1"
       inkscape:collect="always">
      <stop
         style="stop-color:#8e8e8e;stop-opacity:1;"
         offset="0"
         id="stop1" />
      <stop
         style="stop-color:#4d4c4c;stop-opacity:1;"
         offset="1"
         id="stop2" />
    </linearGradient>
    <linearGradient
       id="linearGradient10"
       inkscape:collect="always">
      <stop
         style="stop-color:#e764fe;stop-opacity:1;"
         offset="0"
         id="stop10" />
      <stop
         style="stop-color:#7350c3;stop-opacity:1;"
         offset="1"
         id="stop11" />
    </linearGradient>
    <radialGradient
       inkscape:collect="always"
       xlink:href="#linearGradient10"
       id="radialGradient11"
       cx="10.315989"
       cy="47.873844"
       fx="10.315989"
       fy="47.873844"
       r="29.999994"
       gradientTransform="matrix(1.6084838,-0.92865853,0.83579124,1.4476329,-44.088869,-14.70683)"
       gradientUnits="userSpaceOnUse" />
    <filter
       inkscape:collect="always"
       style="color-interpolation-filters:sRGB"
       id="filter11"
       x="-0.13313568"
       y="-0.13313568"
       width="1.2662714"
       height="1.2662714">
      <feGaussianBlur
         inkscape:collect="always"
         stdDeviation="1.0607705"
         id="feGaussianBlur11" />
    </filter>
    <filter
       inkscape:collect="always"
       style="color-interpolation-filters:sRGB"
       id="filter12"
       x="-0.10756358"
       y="-0.10756358"
       width="1.2151272"
       height="1.2151272">
      <feGaussianBlur
         inkscape:collect="always"
         stdDeviation="1.19556"
         id="feGaussianBlur12" />
    </filter>
    <filter
       inkscape:collect="always"
       style="color-interpolation-filters:sRGB"
       id="filter13"
       x="-0.041721448"
       y="-0.04768119"
       width="1.0834429"
       height="1.095342">
      <feGaussianBlur
         inkscape:collect="always"
         stdDeviation="0.73026192"
         id="feGaussianBlur13" />
    </filter>
    <filter
       inkscape:collect="always"
       style="color-interpolation-filters:sRGB"
       id="filter14"
       x="-0.063810739"
       y="-0.070901012"
       width="1.1276215"
       height="1.141834">
      <feGaussianBlur
         inkscape:collect="always"
         stdDeviation="1.4911031"
         id="feGaussianBlur14" />
    </filter>
    <radialGradient
       inkscape:collect="always"
       xlink:href="#linearGradient1"
       id="radialGradient2"
       cx="40.743217"
       cy="52.855583"
       fx="40.743217"
       fy="52.855583"
       r="13.064763"
       gradientUnits="userSpaceOnUse"
       gradientTransform="matrix(1.5689906,-0.90585713,0.90585713,1.5689906,-71.062113,6.8332055)" />
  </defs>
  <sodipodi:namedview
     id="namedview10"
     pagecolor="#505050"
     bordercolor="#eeeeee"
     borderopacity="1"
     inkscape:showpageshadow="0"
     inkscape:pageopacity="0"
     inkscape:pagecheckerboard="0"
     inkscape:deskcolor="#505050"
     inkscape:zoom="13.484375"
     inkscape:cx="32.33372"
     inkscape:cy="31.77752"
     inkscape:window-width="1920"
     inkscape:window-height="1020"
     inkscape:window-x="0"
     inkscape:window-y="0"
     inkscape:window-maximized="1"
     inkscape:current-layer="svg10" />
  <path
     style="fill:url(#radialGradient11);stroke-width:0.901018"
     d="m 32.086715,7.8223741 c -14.822425,0 -26.9982023,12.0640929 -26.9983099,26.8564689 -0.1556382,2.189654 0,3.785898 0.1546778,6.304244 0.4329238,6.141159 4.2274449,10.539029 7.6249131,12.655341 3.203869,1.995214 6.144927,2.700171 6.144927,2.700171 0.07697,0.01802 0.154332,0.03424 0.232017,0.04865 1.993642,0.362209 4.337838,-0.471052 5.638712,-1.833933 1.300872,-1.36306 1.804436,-3.021294 1.803402,-4.587083 V 30.565875 c 0.0014,-1.393875 -0.383302,-2.886322 -1.476468,-4.224514 -0.322321,-0.394466 -0.846119,-0.666393 -1.304217,-0.985714 2.230213,-1.924394 5.114154,-3.109774 8.180344,-3.11536 3.067218,0 5.951638,1.18592 8.183862,3.111936 -0.458842,0.318961 -0.981641,0.591429 -1.304215,0.985714 -1.093192,1.33603 -1.478668,2.825954 -1.479985,4.217306 v 19.407391 c -9.91e-4,1.565789 0.502528,3.224203 1.803402,4.587083 1.300874,1.3627 3.645689,2.195421 5.638711,1.833933 0.07768,-0.01802 0.155047,-0.03064 0.232015,-0.04866 0,0 2.941059,-0.704957 6.144928,-2.700171 3.39471,-2.11451 7.183195,-6.508055 7.621398,-12.641286 0.1582,-2.528797 0.158164,-4.169011 0.158164,-6.319921 C 59.084885,19.881241 46.909109,7.8171482 32.086685,7.8171482 Z"
     id="path2" />
  <path
     style="fill:none;stroke:#000000;stroke-width:0.5;stroke-dasharray:none;stroke-opacity:1;filter:url(#filter14)"
     d="m 32.085988,4.9662079 c -16.450751,0 -29.9641039,13.3894001 -29.9642233,29.8068001 -0.172736,2.4302 0,4.2018 0.17167,6.9968 0.4804828,6.8158 4.691853,11.6968 8.4625513,14.0456 3.555832,2.2144 6.819982,2.9968 6.819982,2.9968 0.08543,0.02 0.171286,0.038 0.257505,0.054 2.212654,0.402 4.814373,-0.5228 6.258155,-2.0354 1.44378,-1.5128 2.002664,-3.3532 2.001516,-5.091 v -21.5316 c 0.0015,-1.547 -0.42541,-3.2034 -1.638666,-4.6886 -0.35773,-0.4378 -0.93907,-0.7396 -1.447492,-1.094 2.475214,-2.1358 5.675972,-3.4514 9.079,-3.4576 3.404168,0 6.605458,1.3162 9.082904,3.4538 -0.509248,0.354 -1.08948,0.6564 -1.44749,1.094 -1.213286,1.4828 -1.641108,3.1364 -1.64257,4.6806 v 21.5394 c -0.0011,1.7378 0.557734,3.5784 2.001516,5.091 1.443782,1.5124 4.046188,2.4366 6.258154,2.0354 0.08622,-0.02 0.17208,-0.034 0.257504,-0.054 0,0 3.26415,-0.7824 6.819982,-2.9968 3.767638,-2.3468 7.972308,-7.223 8.45865,-14.03 0.17558,-2.8066 0.17554,-4.627 0.17554,-7.0142 C 62.050056,18.349808 48.536704,4.9604079 32.085954,4.9604079 Z"
     id="path2-5"
     transform="matrix(0.90101818,0,0,0.90101818,3.2218771,3.3119672)" />
  <path
     style="fill:#ffffff;stroke-width:0.901018"
     d="m 32.054461,13.223077 c -11.942783,0 -21.624345,9.600889 -21.624432,21.444052 v 5.045702 h 0.0075 c -0.0013,0.07749 -0.0077,0.153173 -0.0075,0.234265 0.01726,4.616277 2.705471,7.508905 5.237168,9.083705 2.531695,1.574439 4.495521,2.020263 4.495521,2.020263 0.615758,0.111726 1.079975,-0.409603 1.079523,-1.093836 V 30.550197 c 6.12e-4,-0.624586 -0.373633,-1.125912 -0.942879,-1.108613 -0.01905,-5.4e-4 -0.0381,-5.4e-4 -0.05714,0 0,0 -1.9847,0.227598 -4.542729,1.596424 -0.409636,0.219128 -1.001297,0.667295 -1.407701,0.958684 1.328843,-8.613914 8.975357,-15.15909 17.762674,-15.169542 8.794336,0 16.446708,6.55779 17.771681,15.179273 -0.409599,-0.294453 -1.003729,-0.745863 -1.416714,-0.966613 -2.55803,-1.368826 -4.542728,-1.596604 -4.542728,-1.596604 -0.01905,-5.4e-4 -0.03809,-5.4e-4 -0.05714,0 -0.568407,-0.01802 -0.942288,0.482766 -0.942879,1.10627 v 19.407752 c -4.53e-4,0.684233 0.463764,1.205382 1.079522,1.093836 0,0 1.963836,-0.445824 4.495522,-2.020263 2.531697,-1.5748 5.219907,-4.467428 5.237166,-9.083705 3e-4,-0.07929 -0.0061,-0.154975 -0.0074,-0.234265 h 0.0074 V 34.667129 C 53.678805,22.823966 43.997246,13.223077 32.054464,13.223077 Z"
     id="path4" />
  <path
     style="fill:none;stroke:#ff00c3;stroke-width:0.5;stroke-dasharray:none;stroke-opacity:1;filter:url(#filter13)"
     d="m 32.05019,10.960208 c -13.254763,0 -23.9998983,10.6556 -23.9999941,23.7998 v 5.6 h 0.00828 c -0.00148,0.086 -0.0086,0.17 -0.00828,0.26 0.01916,5.1234 3.0026811,8.3338 5.8124991,10.0816 2.809816,1.7474 4.989379,2.2422 4.989379,2.2422 0.683402,0.124 1.198616,-0.4546 1.198114,-1.214 v -21.539 c 6.8e-4,-0.6932 -0.414678,-1.2496 -1.046459,-1.2304 -0.02114,-6e-4 -0.04229,-6e-4 -0.06342,0 0,0 -2.20273,0.2526 -5.041772,1.7718 -0.454637,0.2432 -1.111295,0.7406 -1.562345,1.064 1.474824,-9.5602 9.96135,-16.8244 19.714002,-16.836 9.760442,0 18.25347,7.2782 19.723998,16.8468 -0.454596,-0.3268 -1.113994,-0.8278 -1.572348,-1.0728 -2.839044,-1.5192 -5.041772,-1.772 -5.041772,-1.772 -0.02114,-6e-4 -0.04228,-6e-4 -0.06342,0 -0.63085,-0.02 -1.045804,0.5358 -1.04646,1.2278 v 21.5398 c -5.02e-4,0.7594 0.514712,1.3378 1.198114,1.214 0,0 2.179574,-0.4948 4.98938,-2.2422 2.809818,-1.7478 5.793342,-4.9582 5.812498,-10.0816 3.32e-4,-0.088 -0.0068,-0.172 -0.0082,-0.26 h 0.0082 v -5.6 c -9.6e-5,-13.1442 -10.745228,-23.7998 -23.99999,-23.7998 z"
     id="path4-3"
     transform="matrix(0.90101818,0,0,0.90101818,3.2218771,3.3119672)" />
  <path
     id="circle6"
     style="fill:url(#radialGradient2);stroke-width:0.901018"
     d="M 59.986022,46.110331 A 13.064764,13.064764 0 0 1 46.921259,59.175094 13.064764,13.064764 0 0 1 33.856495,46.110331 13.064764,13.064764 0 0 1 46.921259,33.045567 13.064764,13.064764 0 0 1 59.986022,46.110331 Z" />
  <path
     id="circle6-5"
     style="fill:none;stroke:#000000;stroke-width:0.5;stroke-dasharray:none;stroke-opacity:1;filter:url(#filter12)"
     d="m 63.050188,47.460308 a 14.5,14.5 0 0 1 -14.5,14.5 14.5,14.5 0 0 1 -14.5,-14.5 14.5,14.5 0 0 1 14.5,-14.5 14.5,14.5 0 0 1 14.5,14.5 z"
     transform="matrix(0.90101818,0,0,0.90101818,3.2218771,3.3119672)" />
  <path
     id="circle10"
     style="fill:#3f3f3f;stroke-width:0.901018"
     d="m 40.614131,49.263894 a 3.1535636,3.1535636 0 0 1 -3.153563,-3.153563 3.1535636,3.1535636 0 0 1 3.153563,-3.153564 3.1535636,3.1535636 0 0 1 3.153564,3.153564 3.1535636,3.1535636 0 0 1 -3.153564,3.153563 z m 12.614255,0 a 3.1535636,3.1535636 0 0 1 -3.153564,-3.153563 3.1535636,3.1535636 0 0 1 3.153564,-3.153564 3.1535636,3.1535636 0 0 1 3.153564,3.153564 3.1535636,3.1535636 0 0 1 -3.153564,3.153563 z m -3.153564,3.153564 a 3.1535636,3.1535636 0 0 1 -3.153563,3.153563 3.1535636,3.1535636 0 0 1 -3.153564,-3.153563 3.1535636,3.1535636 0 0 1 3.153564,-3.153564 3.1535636,3.1535636 0 0 1 3.153563,3.153564 z m 0,-12.614255 a 3.1535636,3.1535636 0 0 1 -3.153563,3.153564 3.1535636,3.1535636 0 0 1 -3.153564,-3.153564 3.1535636,3.1535636 0 0 1 3.153564,-3.153563 3.1535636,3.1535636 0 0 1 3.153563,3.153563 z" />
  <path
     id="circle10-6"
     style="fill:none;stroke:#000000;stroke-width:0.5;stroke-dasharray:none;stroke-opacity:1;filter:url(#filter11)"
     d="m 41.550188,50.960308 a 3.5,3.5 0 0 1 -3.5,-3.5 3.5,3.5 0 0 1 3.5,-3.5 3.5,3.5 0 0 1 3.5,3.5 3.5,3.5 0 0 1 -3.5,3.5 z m 14,0 a 3.5,3.5 0 0 1 -3.5,-3.5 3.5,3.5 0 0 1 3.5,-3.5 3.5,3.5 0 0 1 3.5,3.5 3.5,3.5 0 0 1 -3.5,3.5 z m -3.5,3.5 a 3.5,3.5 0 0 1 -3.5,3.5 3.5,3.5 0 0 1 -3.5,-3.5 3.5,3.5 0 0 1 3.5,-3.5 3.5,3.5 0 0 1 3.5,3.5 z m 0,-14 a 3.5,3.5 0 0 1 -3.5,3.5 3.5,3.5 0 0 1 -3.5,-3.5 3.5,3.5 0 0 1 3.5,-3.5 3.5,3.5 0 0 1 3.5,3.5 z"
     transform="matrix(0.90101818,0,0,0.90101818,3.2218771,3.3119672)" />
</svg>
