<?xml version="1.0" encoding="UTF-8" standalone="no"?>
<svg
   height="64"
   width="64"
   version="1.1"
   id="svg6"
   sodipodi:docname="6180-the-moon.svg"
   inkscape:version="1.3.2 (091e20ef0f, 2023-11-25, custom)"
   xmlns:inkscape="http://www.inkscape.org/namespaces/inkscape"
   xmlns:sodipodi="http://sodipodi.sourceforge.net/DTD/sodipodi-0.dtd"
   xmlns:xlink="http://www.w3.org/1999/xlink"
   xmlns="http://www.w3.org/2000/svg"
   xmlns:svg="http://www.w3.org/2000/svg">
  <defs
     id="defs6">
    <linearGradient
       id="linearGradient10"
       inkscape:collect="always">
      <stop
         style="stop-color:#d7cac0;stop-opacity:1;"
         offset="0"
         id="stop10" />
      <stop
         style="stop-color:#acacac;stop-opacity:1;"
         offset="1"
         id="stop11" />
    </linearGradient>
    <inkscape:path-effect
       effect="fillet_chamfer"
       id="path-effect8"
       is_visible="true"
       lpeversion="1"
       nodesatellites_param="F,0,0,1,0,0,0,1 @ F,0,0,1,0,0,0,1 @ F,0,0,1,0,0,0,1 @ F,0,0,1,0,0,0,1 @ F,0,0,1,0,0,0,1 @ F,0,0,1,0,0,0,1 @ F,0,0,1,0,0,0,1 @ F,0,0,1,0,0,0,1 | F,0,1,1,0,0.94384498,0,1 @ F,0,1,1,0,0.94384498,0,1 @ F,0,0,1,0,0.94384498,0,1 @ F,0,1,1,0,0.94384498,0,1"
       radius="0"
       unit="px"
       method="auto"
       mode="F"
       chamfer_steps="1"
       flexible="false"
       use_knot_distance="true"
       apply_no_radius="true"
       apply_with_radius="true"
       only_selected="false"
       hide_knots="false" />
    <inkscape:path-effect
       effect="fillet_chamfer"
       id="path-effect7"
       is_visible="true"
       lpeversion="1"
       nodesatellites_param="F,0,0,1,0,0,0,1 @ F,0,0,1,0,0,0,1 @ F,0,0,1,0,0,0,1 @ F,0,0,1,0,0,0,1 @ F,0,0,1,0,0,0,1 @ F,0,0,1,0,0,0,1 @ F,0,0,1,0,0,0,1 @ F,0,0,1,0,0,0,1 @ F,0,0,1,0,1.0297041,0,1 @ F,0,0,1,0,1.0297041,0,1 @ F,0,0,1,0,1.4863407,0,1 @ F,0,0,1,0,1.4863407,0,1 | F,0,1,1,0,1.041979,0,1 @ F,0,1,1,0,1.041979,0,1 @ F,0,1,1,0,1.041979,0,1 @ F,0,0,1,0,1.041979,0,1"
       radius="0"
       unit="px"
       method="auto"
       mode="F"
       chamfer_steps="1"
       flexible="false"
       use_knot_distance="true"
       apply_no_radius="true"
       apply_with_radius="true"
       only_selected="false"
       hide_knots="false" />
    <inkscape:path-effect
       effect="fillet_chamfer"
       id="path-effect6"
       is_visible="true"
       lpeversion="1"
       nodesatellites_param="F,0,0,1,0,0,0,1 @ F,0,0,1,0,0,0,1 @ F,0,0,1,0,2.2697177,0,1 @ F,0,0,1,0,0,0,1 @ F,0,0,1,0,2.2697177,0,1 @ F,0,0,1,0,0,0,1 @ F,0,0,1,0,0,0,1 @ F,0,0,1,0,0,0,1 @ F,0,0,1,0,0,0,1 @ F,0,0,1,0,2,0,1 @ F,0,0,1,0,0,0,1 @ F,0,0,1,0,2,0,1 @ F,0,0,1,0,0,0,1 @ F,0,0,1,0,0,0,1 | F,0,1,1,0,0.97342353,0,1 @ F,0,1,1,0,0.97342353,0,1 @ F,0,1,1,0,0.97342353,0,1 @ F,0,1,1,0,0.97342353,0,1 | F,0,1,1,0,0.97342353,0,1 @ F,0,1,1,0,0.97342353,0,1 @ F,0,0,1,0,0.97342353,0,1 @ F,0,1,1,0,0.97342353,0,1"
       radius="0"
       unit="px"
       method="auto"
       mode="F"
       chamfer_steps="1"
       flexible="false"
       use_knot_distance="true"
       apply_no_radius="true"
       apply_with_radius="true"
       only_selected="false"
       hide_knots="false" />
    <radialGradient
       inkscape:collect="always"
       xlink:href="#linearGradient10"
       id="radialGradient11"
       cx="32"
       cy="32"
       fx="32"
       fy="32"
       r="28"
       gradientUnits="userSpaceOnUse"
       gradientTransform="matrix(0.87470785,0,0,0.87470785,4.099811,4.0131895)" />
    <filter
       inkscape:collect="always"
       style="color-interpolation-filters:sRGB"
       id="filter13"
       x="-0.01336459"
       y="-0.015301827"
       width="1.0267292"
       height="1.0306037">
      <feGaussianBlur
         inkscape:collect="always"
         stdDeviation="0.26227789"
         id="feGaussianBlur13" />
    </filter>
    <filter
       inkscape:collect="always"
       style="color-interpolation-filters:sRGB"
       id="filter14"
       x="-0.14963958"
       y="-0.14963958"
       width="1.2992792"
       height="1.2992792">
      <feGaussianBlur
         inkscape:collect="always"
         stdDeviation="3.2832568"
         id="feGaussianBlur14" />
    </filter>
    <filter
       inkscape:collect="always"
       style="color-interpolation-filters:sRGB"
       id="filter15"
       x="-0.040385109"
       y="-0.11192667"
       width="1.0807702"
       height="1.2238533">
      <feGaussianBlur
         inkscape:collect="always"
         stdDeviation="0.65746097"
         id="feGaussianBlur15" />
    </filter>
  </defs>
  <sodipodi:namedview
     id="namedview6"
     pagecolor="#505050"
     bordercolor="#eeeeee"
     borderopacity="1"
     inkscape:showpageshadow="0"
     inkscape:pageopacity="0"
     inkscape:pagecheckerboard="0"
     inkscape:deskcolor="#505050"
     inkscape:zoom="6.5546875"
     inkscape:cx="39.1323"
     inkscape:cy="59.27056"
     inkscape:window-width="1920"
     inkscape:window-height="1020"
     inkscape:window-x="0"
     inkscape:window-y="0"
     inkscape:window-maximized="1"
     inkscape:current-layer="svg6" />
  <circle
     cx="32.090462"
     cy="32.003841"
     r="24.491819"
     style="fill:url(#radialGradient11);stroke-width:0.874708"
     id="circle2" />
  <path
     id="path10"
     style="opacity:0.123456;fill:#210b00;fill-opacity:1;stroke:none;stroke-width:0.106508;stroke-linecap:round;stroke-linejoin:round;stroke-opacity:1"
     d="m 23.814946,13.674269 a 5.6232943,5.6232943 0 0 0 -5.622389,5.624098 5.6232943,5.6232943 0 0 0 5.622389,5.62239 5.6232943,5.6232943 0 0 0 5.624099,-5.62239 5.6232943,5.6232943 0 0 0 -5.624099,-5.624098 z m -0.457854,0.210135 a 4.97024,4.97024 0 0 1 0.256262,0.0068 4.97024,4.97024 0 0 1 0.05296,0.0051 4.97024,4.97024 0 0 1 0.193052,0.01538 4.97024,4.97024 0 0 1 0.382684,0.05467 4.97024,4.97024 0 0 1 0.116172,0.02221 4.97024,4.97024 0 0 1 0.141798,0.03075 4.97024,4.97024 0 0 1 0.08884,0.02221 4.97024,4.97024 0 0 1 0.124714,0.03417 4.97024,4.97024 0 0 1 0.145215,0.04271 4.97024,4.97024 0 0 1 0.111047,0.03588 4.97024,4.97024 0 0 1 0.09396,0.03417 4.97024,4.97024 0 0 1 0.152049,0.05809 4.97024,4.97024 0 0 1 0.09567,0.041 4.97024,4.97024 0 0 1 0.111047,0.04784 4.97024,4.97024 0 0 1 0.175967,0.08371 4.97024,4.97024 0 0 1 0.02392,0.01196 4.97024,4.97024 0 0 1 0.181092,0.09909 4.97024,4.97024 0 0 1 0.06663,0.03929 4.97024,4.97024 0 0 1 0.131548,0.07859 4.97024,4.97024 0 0 1 0.08371,0.05296 4.97024,4.97024 0 0 1 0.15205,0.105922 4.97024,4.97024 0 0 1 0.05125,0.03588 4.97024,4.97024 0 0 1 0.12984,0.09909 4.97024,4.97024 0 0 1 0.852498,0.852498 4.97024,4.97024 0 0 1 0.09909,0.128131 4.97024,4.97024 0 0 1 0.03588,0.05296 4.97024,4.97024 0 0 1 0.104214,0.152049 4.97024,4.97024 0 0 1 0.05467,0.08371 4.97024,4.97024 0 0 1 0.07859,0.131549 4.97024,4.97024 0 0 1 0.03929,0.06663 4.97024,4.97024 0 0 1 0.09909,0.181091 4.97024,4.97024 0 0 1 0.01196,0.02392 4.97024,4.97024 0 0 1 0.08371,0.175967 4.97024,4.97024 0 0 1 0.04783,0.111047 4.97024,4.97024 0 0 1 0.041,0.09567 4.97024,4.97024 0 0 1 0.05809,0.152049 4.97024,4.97024 0 0 1 0.03246,0.09396 4.97024,4.97024 0 0 1 0.03758,0.111046 4.97024,4.97024 0 0 1 0.04271,0.145216 4.97024,4.97024 0 0 1 0.03417,0.124714 4.97024,4.97024 0 0 1 0.0205,0.08884 4.97024,4.97024 0 0 1 0.03246,0.141799 4.97024,4.97024 0 0 1 0.02221,0.116172 4.97024,4.97024 0 0 1 0.05467,0.382684 4.97024,4.97024 0 0 1 0.01538,0.193051 4.97024,4.97024 0 0 1 0.0051,0.05296 4.97024,4.97024 0 0 1 0.0068,0.256262 4.97024,4.97024 0 0 1 -0.0068,0.256263 4.97024,4.97024 0 0 1 -0.0051,0.05296 4.97024,4.97024 0 0 1 -0.01538,0.193051 4.97024,4.97024 0 0 1 -0.05467,0.380977 4.97024,4.97024 0 0 1 -0.02221,0.11788 4.97024,4.97024 0 0 1 -0.03246,0.141798 4.97024,4.97024 0 0 1 -0.0205,0.08884 4.97024,4.97024 0 0 1 -0.03417,0.124715 4.97024,4.97024 0 0 1 -0.04271,0.145215 4.97024,4.97024 0 0 1 -0.03758,0.109339 4.97024,4.97024 0 0 1 -0.03246,0.09567 4.97024,4.97024 0 0 1 -0.05809,0.152048 4.97024,4.97024 0 0 1 -0.041,0.09567 4.97024,4.97024 0 0 1 -0.04783,0.109338 4.97024,4.97024 0 0 1 -0.08371,0.175967 4.97024,4.97024 0 0 1 -0.01196,0.02563 4.97024,4.97024 0 0 1 -0.09909,0.181092 4.97024,4.97024 0 0 1 -0.03929,0.06663 4.97024,4.97024 0 0 1 -0.07859,0.131548 4.97024,4.97024 0 0 1 -0.05467,0.08371 4.97024,4.97024 0 0 1 -0.104214,0.152049 4.97024,4.97024 0 0 1 -0.03588,0.05125 4.97024,4.97024 0 0 1 -0.09909,0.128131 4.97024,4.97024 0 0 1 -0.852498,0.854207 4.97024,4.97024 0 0 1 -0.12984,0.09738 4.97024,4.97024 0 0 1 -0.05125,0.03758 4.97024,4.97024 0 0 1 -0.15205,0.104213 4.97024,4.97024 0 0 1 -0.08371,0.05296 4.97024,4.97024 0 0 1 -0.131548,0.0803 4.97024,4.97024 0 0 1 -0.06663,0.03929 4.97024,4.97024 0 0 1 -0.181092,0.09738 4.97024,4.97024 0 0 1 -0.02392,0.01196 4.97024,4.97024 0 0 1 -0.175967,0.08542 4.97024,4.97024 0 0 1 -0.111047,0.04783 4.97024,4.97024 0 0 1 -0.09567,0.03929 4.97024,4.97024 0 0 1 -0.152049,0.0598 4.97024,4.97024 0 0 1 -0.09396,0.03246 4.97024,4.97024 0 0 1 -0.111047,0.03758 4.97024,4.97024 0 0 1 -0.145215,0.04271 4.97024,4.97024 0 0 1 -0.124714,0.03417 4.97024,4.97024 0 0 1 -0.08884,0.0205 4.97024,4.97024 0 0 1 -0.141798,0.03246 4.97024,4.97024 0 0 1 -0.116172,0.02221 4.97024,4.97024 0 0 1 -0.382684,0.05467 4.97024,4.97024 0 0 1 -0.193052,0.01538 4.97024,4.97024 0 0 1 -0.05296,0.0034 4.97024,4.97024 0 0 1 -0.256262,0.0068 4.97024,4.97024 0 0 1 -0.739743,-0.05638 4.97024,4.97024 0 0 1 -0.263097,-0.05809 4.97024,4.97024 0 0 1 -0.469813,-0.112755 4.97024,4.97024 0 0 1 -0.264804,-0.09909 4.97024,4.97024 0 0 1 -0.430521,-0.179383 4.97024,4.97024 0 0 1 -0.25797,-0.140091 4.97024,4.97024 0 0 1 -0.389518,-0.239177 4.97024,4.97024 0 0 1 -0.240887,-0.179384 4.97024,4.97024 0 0 1 -0.343391,-0.293847 4.97024,4.97024 0 0 1 -0.211844,-0.211843 4.97024,4.97024 0 0 1 -0.293846,-0.343391 4.97024,4.97024 0 0 1 -0.179384,-0.240887 4.97024,4.97024 0 0 1 -0.239178,-0.389518 4.97024,4.97024 0 0 1 -0.14009,-0.25797 4.97024,4.97024 0 0 1 -0.179383,-0.430521 4.97024,4.97024 0 0 1 -0.09909,-0.264804 4.97024,4.97024 0 0 1 -0.112755,-0.469814 4.97024,4.97024 0 0 1 -0.05809,-0.263096 4.97024,4.97024 0 0 1 -0.05638,-0.739743 4.97024,4.97024 0 0 1 0.05638,-0.739743 4.97024,4.97024 0 0 1 0.05809,-0.264804 4.97024,4.97024 0 0 1 0.112755,-0.468106 4.97024,4.97024 0 0 1 0.09909,-0.264803 4.97024,4.97024 0 0 1 0.179383,-0.432229 4.97024,4.97024 0 0 1 0.14009,-0.257971 4.97024,4.97024 0 0 1 0.239178,-0.389518 4.97024,4.97024 0 0 1 0.179384,-0.239178 4.97024,4.97024 0 0 1 0.293846,-0.343391 4.97024,4.97024 0 0 1 0.211844,-0.211843 4.97024,4.97024 0 0 1 0.343391,-0.293848 4.97024,4.97024 0 0 1 0.240887,-0.179383 4.97024,4.97024 0 0 1 0.389518,-0.239178 4.97024,4.97024 0 0 1 0.25797,-0.141799 4.97024,4.97024 0 0 1 0.430521,-0.177675 4.97024,4.97024 0 0 1 0.264804,-0.09909 4.97024,4.97024 0 0 1 0.469813,-0.112755 4.97024,4.97024 0 0 1 0.263097,-0.05809 4.97024,4.97024 0 0 1 0.739743,-0.05809 z m 19.205987,7.537522 A 11.951844,11.951844 0 0 0 30.611017,33.373988 11.951844,11.951844 0 0 0 42.563079,45.326051 11.951844,11.951844 0 0 0 54.515141,33.373988 11.951844,11.951844 0 0 0 42.563079,21.421926 Z m -0.973796,0.445895 a 10.563831,10.563831 0 0 1 0.546693,0.01538 10.563831,10.563831 0 0 1 0.109338,0.0085 10.563831,10.563831 0 0 1 0.411728,0.03417 10.563831,10.563831 0 0 1 0.811496,0.114464 10.563831,10.563831 0 0 1 0.249428,0.04783 10.563831,10.563831 0 0 1 0.300681,0.06663 10.563831,10.563831 0 0 1 0.189634,0.04613 10.563831,10.563831 0 0 1 0.264805,0.07175 10.563831,10.563831 0 0 1 0.307514,0.09225 10.563831,10.563831 0 0 1 0.235762,0.07688 10.563831,10.563831 0 0 1 0.199883,0.07175 10.563831,10.563831 0 0 1 0.324599,0.124715 10.563831,10.563831 0 0 1 0.201593,0.08371 10.563831,10.563831 0 0 1 0.235761,0.104212 10.563831,10.563831 0 0 1 0.374143,0.177676 10.563831,10.563831 0 0 1 0.05125,0.02733 10.563831,10.563831 0 0 1 0.386101,0.208426 10.563831,10.563831 0 0 1 0.141799,0.082 10.563831,10.563831 0 0 1 0.278471,0.169133 10.563831,10.563831 0 0 1 0.179384,0.112755 10.563831,10.563831 0 0 1 0.32289,0.223803 10.563831,10.563831 0 0 1 0.109339,0.07859 10.563831,10.563831 0 0 1 0.273346,0.208426 10.563831,10.563831 0 0 1 1.812626,1.814336 10.563831,10.563831 0 0 1 0.210136,0.271637 10.563831,10.563831 0 0 1 0.07688,0.111047 10.563831,10.563831 0 0 1 0.223803,0.32289 10.563831,10.563831 0 0 1 0.112755,0.177675 10.563831,10.563831 0 0 1 0.169132,0.28018 10.563831,10.563831 0 0 1 0.08371,0.141798 10.563831,10.563831 0 0 1 0.208427,0.384393 10.563831,10.563831 0 0 1 0.02563,0.05296 10.563831,10.563831 0 0 1 0.179383,0.372434 10.563831,10.563831 0 0 1 0.102505,0.235762 10.563831,10.563831 0 0 1 0.08542,0.203301 10.563831,10.563831 0 0 1 0.124714,0.32289 10.563831,10.563831 0 0 1 0.07005,0.199885 10.563831,10.563831 0 0 1 0.07859,0.235761 10.563831,10.563831 0 0 1 0.09055,0.307514 10.563831,10.563831 0 0 1 0.07346,0.266513 10.563831,10.563831 0 0 1 0.04442,0.187925 10.563831,10.563831 0 0 1 0.06834,0.300681 10.563831,10.563831 0 0 1 0.04783,0.249428 10.563831,10.563831 0 0 1 0.114465,0.811497 10.563831,10.563831 0 0 1 0.03246,0.411727 10.563831,10.563831 0 0 1 0.01025,0.111048 10.563831,10.563831 0 0 1 0.01367,0.544983 10.563831,10.563831 0 0 1 -0.01367,0.546693 10.563831,10.563831 0 0 1 -0.01025,0.109338 10.563831,10.563831 0 0 1 -0.03246,0.411728 10.563831,10.563831 0 0 1 -0.114465,0.811497 10.563831,10.563831 0 0 1 -0.04783,0.249428 10.563831,10.563831 0 0 1 -0.06834,0.300681 10.563831,10.563831 0 0 1 -0.04442,0.187925 10.563831,10.563831 0 0 1 -0.07346,0.266513 10.563831,10.563831 0 0 1 -0.09055,0.307514 10.563831,10.563831 0 0 1 -0.07859,0.235761 10.563831,10.563831 0 0 1 -0.07005,0.199885 10.563831,10.563831 0 0 1 -0.124714,0.324598 10.563831,10.563831 0 0 1 -0.08542,0.201593 10.563831,10.563831 0 0 1 -0.102505,0.235761 10.563831,10.563831 0 0 1 -0.179383,0.374143 10.563831,10.563831 0 0 1 -0.02563,0.05125 10.563831,10.563831 0 0 1 -0.208427,0.386101 10.563831,10.563831 0 0 1 -0.08371,0.14009 10.563831,10.563831 0 0 1 -0.169132,0.28018 10.563831,10.563831 0 0 1 -0.112755,0.179383 10.563831,10.563831 0 0 1 -0.223803,0.321182 10.563831,10.563831 0 0 1 -0.07688,0.111047 10.563831,10.563831 0 0 1 -0.210136,0.273346 10.563831,10.563831 0 0 1 -1.812626,1.812627 10.563831,10.563831 0 0 1 -0.273346,0.210135 10.563831,10.563831 0 0 1 -0.109339,0.07688 10.563831,10.563831 0 0 1 -0.32289,0.223801 10.563831,10.563831 0 0 1 -0.179384,0.112756 10.563831,10.563831 0 0 1 -0.278471,0.169133 10.563831,10.563831 0 0 1 -0.141799,0.082 10.563831,10.563831 0 0 1 -0.386101,0.210134 10.563831,10.563831 0 0 1 -0.05125,0.02563 10.563831,10.563831 0 0 1 -0.374143,0.179383 10.563831,10.563831 0 0 1 -0.235761,0.102505 10.563831,10.563831 0 0 1 -0.201593,0.08542 10.563831,10.563831 0 0 1 -0.324599,0.124714 10.563831,10.563831 0 0 1 -0.199883,0.07005 10.563831,10.563831 0 0 1 -0.235762,0.07688 10.563831,10.563831 0 0 1 -0.307514,0.09225 10.563831,10.563831 0 0 1 -0.264805,0.07346 10.563831,10.563831 0 0 1 -0.189634,0.04442 10.563831,10.563831 0 0 1 -0.300681,0.06834 10.563831,10.563831 0 0 1 -0.249428,0.04613 10.563831,10.563831 0 0 1 -0.811496,0.116171 10.563831,10.563831 0 0 1 -0.411728,0.03246 10.563831,10.563831 0 0 1 -0.109338,0.01025 10.563831,10.563831 0 0 1 -0.546693,0.01367 A 10.563831,10.563831 0 0 1 40.019251,42.874477 10.563831,10.563831 0 0 1 39.457183,42.75318 10.563831,10.563831 0 0 1 38.459469,42.512294 10.563831,10.563831 0 0 1 37.897401,42.30045 10.563831,10.563831 0 0 1 36.979983,41.922891 10.563831,10.563831 0 0 1 36.433291,41.623919 10.563831,10.563831 0 0 1 35.60471,41.11652 10.563831,10.563831 0 0 1 35.093894,40.735543 10.563831,10.563831 0 0 1 34.362693,40.108556 10.563831,10.563831 0 0 1 33.91338,39.660951 10.563831,10.563831 0 0 1 33.2881,38.928042 a 10.563831,10.563831 0 0 1 -0.380975,-0.509108 10.563831,10.563831 0 0 1 -0.5074,-0.82858 10.563831,10.563831 0 0 1 -0.298972,-0.548401 10.563831,10.563831 0 0 1 -0.379268,-0.91571 10.563831,10.563831 0 0 1 -0.211843,-0.562069 10.563831,10.563831 0 0 1 -0.239178,-0.997712 10.563831,10.563831 0 0 1 -0.123006,-0.562069 10.563831,10.563831 0 0 1 -0.121297,-1.571741 10.563831,10.563831 0 0 1 0.121297,-1.570032 10.563831,10.563831 0 0 1 0.123006,-0.562068 10.563831,10.563831 0 0 1 0.239178,-0.997714 10.563831,10.563831 0 0 1 0.211843,-0.562068 10.563831,10.563831 0 0 1 0.379268,-0.917418 10.563831,10.563831 0 0 1 0.298972,-0.548401 10.563831,10.563831 0 0 1 0.5074,-0.826872 10.563831,10.563831 0 0 1 0.380975,-0.510816 10.563831,10.563831 0 0 1 0.62528,-0.7312 10.563831,10.563831 0 0 1 0.449313,-0.449313 10.563831,10.563831 0 0 1 0.731201,-0.62528 10.563831,10.563831 0 0 1 0.510816,-0.380976 10.563831,10.563831 0 0 1 0.828581,-0.507399 10.563831,10.563831 0 0 1 0.546692,-0.298973 10.563831,10.563831 0 0 1 0.917418,-0.379268 10.563831,10.563831 0 0 1 0.562068,-0.211843 10.563831,10.563831 0 0 1 0.997714,-0.239178 10.563831,10.563831 0 0 1 0.562068,-0.123006 10.563831,10.563831 0 0 1 1.570032,-0.121297 z M 21.431709,33.428657 a 8.1147851,8.1147851 0 0 0 -8.114965,8.113258 8.1147851,8.1147851 0 0 0 8.114965,8.114965 8.1147851,8.1147851 0 0 0 8.113258,-8.114965 8.1147851,8.1147851 0 0 0 -8.113258,-8.113258 z m -0.661156,0.30239 a 7.1723846,7.1723846 0 0 1 0.369017,0.01025 7.1723846,7.1723846 0 0 1 0.07517,0.0068 7.1723846,7.1723846 0 0 1 0.280179,0.02221 7.1723846,7.1723846 0 0 1 0.55011,0.07688 7.1723846,7.1723846 0 0 1 0.169133,0.03246 7.1723846,7.1723846 0 0 1 0.205009,0.04613 7.1723846,7.1723846 0 0 1 0.128132,0.03075 7.1723846,7.1723846 0 0 1 0.179383,0.04954 7.1723846,7.1723846 0 0 1 0.210135,0.0615 7.1723846,7.1723846 0 0 1 0.158882,0.05296 7.1723846,7.1723846 0 0 1 0.136674,0.04784 7.1723846,7.1723846 0 0 1 0.220385,0.08542 7.1723846,7.1723846 0 0 1 0.136673,0.05638 7.1723846,7.1723846 0 0 1 0.160591,0.07175 7.1723846,7.1723846 0 0 1 0.252845,0.121297 7.1723846,7.1723846 0 0 1 0.03588,0.01708 7.1723846,7.1723846 0 0 1 0.261387,0.141798 7.1723846,7.1723846 0 0 1 0.09567,0.05638 7.1723846,7.1723846 0 0 1 0.189634,0.114464 7.1723846,7.1723846 0 0 1 0.121298,0.07688 7.1723846,7.1723846 0 0 1 0.218677,0.152048 7.1723846,7.1723846 0 0 1 0.07517,0.05296 7.1723846,7.1723846 0 0 1 0.186217,0.141798 7.1723846,7.1723846 0 0 1 1.230058,1.230058 7.1723846,7.1723846 0 0 1 0.143506,0.186218 7.1723846,7.1723846 0 0 1 0.05125,0.07517 7.1723846,7.1723846 0 0 1 0.152049,0.218676 7.1723846,7.1723846 0 0 1 0.07688,0.121298 7.1723846,7.1723846 0 0 1 0.114464,0.189634 7.1723846,7.1723846 0 0 1 0.05638,0.09567 7.1723846,7.1723846 0 0 1 0.141798,0.261387 7.1723846,7.1723846 0 0 1 0.01879,0.03588 7.1723846,7.1723846 0 0 1 0.121297,0.254553 7.1723846,7.1723846 0 0 1 0.07005,0.158883 7.1723846,7.1723846 0 0 1 0.05638,0.136673 7.1723846,7.1723846 0 0 1 0.08542,0.220386 7.1723846,7.1723846 0 0 1 0.04784,0.136673 7.1723846,7.1723846 0 0 1 0.05296,0.158883 7.1723846,7.1723846 0 0 1 0.0615,0.210134 7.1723846,7.1723846 0 0 1 0.04955,0.179383 7.1723846,7.1723846 0 0 1 0.03075,0.128131 7.1723846,7.1723846 0 0 1 0.04613,0.205011 7.1723846,7.1723846 0 0 1 0.03246,0.169132 7.1723846,7.1723846 0 0 1 0.07859,0.550109 7.1723846,7.1723846 0 0 1 0.02221,0.280181 7.1723846,7.1723846 0 0 1 0.0051,0.07517 7.1723846,7.1723846 0 0 1 0.01025,0.370726 7.1723846,7.1723846 0 0 1 -0.01025,0.369017 7.1723846,7.1723846 0 0 1 -0.0051,0.07517 7.1723846,7.1723846 0 0 1 -0.02221,0.28018 7.1723846,7.1723846 0 0 1 -0.07859,0.550109 7.1723846,7.1723846 0 0 1 -0.03246,0.169133 7.1723846,7.1723846 0 0 1 -0.04613,0.20501 7.1723846,7.1723846 0 0 1 -0.03075,0.12813 7.1723846,7.1723846 0 0 1 -0.04955,0.181092 7.1723846,7.1723846 0 0 1 -0.0615,0.208427 7.1723846,7.1723846 0 0 1 -0.05296,0.158882 7.1723846,7.1723846 0 0 1 -0.04784,0.136673 7.1723846,7.1723846 0 0 1 -0.08542,0.220386 7.1723846,7.1723846 0 0 1 -0.05638,0.136673 7.1723846,7.1723846 0 0 1 -0.07005,0.160591 7.1723846,7.1723846 0 0 1 -0.121297,0.252845 7.1723846,7.1723846 0 0 1 -0.01879,0.03588 7.1723846,7.1723846 0 0 1 -0.141798,0.261388 7.1723846,7.1723846 0 0 1 -0.05638,0.09567 7.1723846,7.1723846 0 0 1 -0.114464,0.189634 7.1723846,7.1723846 0 0 1 -0.07688,0.121297 7.1723846,7.1723846 0 0 1 -0.152049,0.220386 7.1723846,7.1723846 0 0 1 -0.05125,0.07346 7.1723846,7.1723846 0 0 1 -0.143506,0.186217 7.1723846,7.1723846 0 0 1 -1.230058,1.230057 7.1723846,7.1723846 0 0 1 -0.186217,0.143508 7.1723846,7.1723846 0 0 1 -0.07517,0.05296 7.1723846,7.1723846 0 0 1 -0.218677,0.15034 7.1723846,7.1723846 0 0 1 -0.121298,0.07688 7.1723846,7.1723846 0 0 1 -0.189634,0.114464 7.1723846,7.1723846 0 0 1 -0.09567,0.05638 7.1723846,7.1723846 0 0 1 -0.261387,0.141798 7.1723846,7.1723846 0 0 1 -0.03588,0.01879 7.1723846,7.1723846 0 0 1 -0.252845,0.121297 7.1723846,7.1723846 0 0 1 -0.160591,0.07005 7.1723846,7.1723846 0 0 1 -0.136673,0.05638 7.1723846,7.1723846 0 0 1 -0.220385,0.08542 7.1723846,7.1723846 0 0 1 -0.136674,0.04784 7.1723846,7.1723846 0 0 1 -0.158882,0.05296 7.1723846,7.1723846 0 0 1 -0.210135,0.0615 7.1723846,7.1723846 0 0 1 -0.179383,0.04954 7.1723846,7.1723846 0 0 1 -0.128132,0.03075 7.1723846,7.1723846 0 0 1 -0.205009,0.04613 7.1723846,7.1723846 0 0 1 -0.169133,0.03246 7.1723846,7.1723846 0 0 1 -0.55011,0.07859 7.1723846,7.1723846 0 0 1 -0.280179,0.02221 7.1723846,7.1723846 0 0 1 -0.07517,0.0068 7.1723846,7.1723846 0 0 1 -0.369017,0.0085 7.1723846,7.1723846 0 0 1 -1.067759,-0.082 7.1723846,7.1723846 0 0 1 -0.380975,-0.08371 7.1723846,7.1723846 0 0 1 -0.676533,-0.162299 7.1723846,7.1723846 0 0 1 -0.382684,-0.145216 7.1723846,7.1723846 0 0 1 -0.621863,-0.256261 7.1723846,7.1723846 0 0 1 -0.372434,-0.203301 7.1723846,7.1723846 0 0 1 -0.562068,-0.345101 7.1723846,7.1723846 0 0 1 -0.346808,-0.257969 7.1723846,7.1723846 0 0 1 -0.497149,-0.425396 7.1723846,7.1723846 0 0 1 -0.304097,-0.304098 7.1723846,7.1723846 0 0 1 -0.425395,-0.497148 7.1723846,7.1723846 0 0 1 -0.257971,-0.346808 7.1723846,7.1723846 0 0 1 -0.345099,-0.562068 7.1723846,7.1723846 0 0 1 -0.203302,-0.370726 7.1723846,7.1723846 0 0 1 -0.256262,-0.62357 7.1723846,7.1723846 0 0 1 -0.143506,-0.380977 7.1723846,7.1723846 0 0 1 -0.164008,-0.67824 7.1723846,7.1723846 0 0 1 -0.082,-0.380977 7.1723846,7.1723846 0 0 1 -0.08371,-1.06605 7.1723846,7.1723846 0 0 1 0.08371,-1.067758 7.1723846,7.1723846 0 0 1 0.082,-0.380977 7.1723846,7.1723846 0 0 1 0.164008,-0.676531 7.1723846,7.1723846 0 0 1 0.143506,-0.382685 7.1723846,7.1723846 0 0 1 0.256262,-0.621863 7.1723846,7.1723846 0 0 1 0.203302,-0.372434 7.1723846,7.1723846 0 0 1 0.345099,-0.562068 7.1723846,7.1723846 0 0 1 0.257971,-0.346808 7.1723846,7.1723846 0 0 1 0.425395,-0.49544 7.1723846,7.1723846 0 0 1 0.304097,-0.305806 7.1723846,7.1723846 0 0 1 0.497149,-0.425395 7.1723846,7.1723846 0 0 1 0.346808,-0.25797 7.1723846,7.1723846 0 0 1 0.562068,-0.3451 7.1723846,7.1723846 0 0 1 0.372434,-0.203301 7.1723846,7.1723846 0 0 1 0.621863,-0.256262 7.1723846,7.1723846 0 0 1 0.382684,-0.143508 7.1723846,7.1723846 0 0 1 0.676533,-0.164007 7.1723846,7.1723846 0 0 1 0.380975,-0.082 7.1723846,7.1723846 0 0 1 1.067759,-0.08371 z" />
  <path
     id="path10-7"
     style="opacity:0.194125;fill:#ffffff;fill-opacity:1;stroke:none;stroke-width:0.121764;stroke-linecap:round;stroke-linejoin:round;stroke-opacity:1;filter:url(#filter13)"
     d="m 22.676729,11.089525 a 6.4287686,6.4287686 0 0 0 -6.427734,6.429687 6.4287686,6.4287686 0 0 0 6.427734,6.427735 6.4287686,6.4287686 0 0 0 6.429688,-6.427735 6.4287686,6.4287686 0 0 0 -6.429688,-6.429687 z m -0.523437,0.240234 a 5.6821715,5.6821715 0 0 1 0.292969,0.0078 5.6821715,5.6821715 0 0 1 0.06055,0.0059 5.6821715,5.6821715 0 0 1 0.220704,0.01758 5.6821715,5.6821715 0 0 1 0.4375,0.0625 5.6821715,5.6821715 0 0 1 0.132812,0.02539 5.6821715,5.6821715 0 0 1 0.162109,0.03516 5.6821715,5.6821715 0 0 1 0.101563,0.02539 5.6821715,5.6821715 0 0 1 0.142578,0.03906 5.6821715,5.6821715 0 0 1 0.166016,0.04883 5.6821715,5.6821715 0 0 1 0.126953,0.04102 5.6821715,5.6821715 0 0 1 0.107422,0.03906 5.6821715,5.6821715 0 0 1 0.173828,0.06641 5.6821715,5.6821715 0 0 1 0.109375,0.04687 5.6821715,5.6821715 0 0 1 0.126953,0.05469 5.6821715,5.6821715 0 0 1 0.201172,0.0957 5.6821715,5.6821715 0 0 1 0.02734,0.01367 5.6821715,5.6821715 0 0 1 0.207032,0.113282 5.6821715,5.6821715 0 0 1 0.07617,0.04492 5.6821715,5.6821715 0 0 1 0.15039,0.08984 5.6821715,5.6821715 0 0 1 0.0957,0.06055 5.6821715,5.6821715 0 0 1 0.173829,0.121094 5.6821715,5.6821715 0 0 1 0.05859,0.04101 5.6821715,5.6821715 0 0 1 0.148438,0.113282 5.6821715,5.6821715 0 0 1 0.974609,0.974609 5.6821715,5.6821715 0 0 1 0.113281,0.146484 5.6821715,5.6821715 0 0 1 0.04102,0.06055 5.6821715,5.6821715 0 0 1 0.119141,0.173828 5.6821715,5.6821715 0 0 1 0.0625,0.0957 5.6821715,5.6821715 0 0 1 0.08984,0.150391 5.6821715,5.6821715 0 0 1 0.04492,0.07617 5.6821715,5.6821715 0 0 1 0.113281,0.207031 5.6821715,5.6821715 0 0 1 0.01367,0.02734 5.6821715,5.6821715 0 0 1 0.0957,0.201172 5.6821715,5.6821715 0 0 1 0.05469,0.126953 5.6821715,5.6821715 0 0 1 0.04687,0.109375 5.6821715,5.6821715 0 0 1 0.06641,0.173828 5.6821715,5.6821715 0 0 1 0.03711,0.107422 5.6821715,5.6821715 0 0 1 0.04297,0.126953 5.6821715,5.6821715 0 0 1 0.04883,0.166016 5.6821715,5.6821715 0 0 1 0.03906,0.142578 5.6821715,5.6821715 0 0 1 0.02344,0.101562 5.6821715,5.6821715 0 0 1 0.03711,0.16211 5.6821715,5.6821715 0 0 1 0.02539,0.132812 5.6821715,5.6821715 0 0 1 0.0625,0.4375 5.6821715,5.6821715 0 0 1 0.01758,0.220703 5.6821715,5.6821715 0 0 1 0.0059,0.06055 5.6821715,5.6821715 0 0 1 0.0078,0.292969 5.6821715,5.6821715 0 0 1 -0.0078,0.292969 5.6821715,5.6821715 0 0 1 -0.0059,0.06055 5.6821715,5.6821715 0 0 1 -0.01758,0.220703 5.6821715,5.6821715 0 0 1 -0.0625,0.435547 5.6821715,5.6821715 0 0 1 -0.02539,0.134765 5.6821715,5.6821715 0 0 1 -0.03711,0.16211 5.6821715,5.6821715 0 0 1 -0.02344,0.101562 5.6821715,5.6821715 0 0 1 -0.03906,0.142578 5.6821715,5.6821715 0 0 1 -0.04883,0.166016 5.6821715,5.6821715 0 0 1 -0.04297,0.125 5.6821715,5.6821715 0 0 1 -0.03711,0.109375 5.6821715,5.6821715 0 0 1 -0.06641,0.173828 5.6821715,5.6821715 0 0 1 -0.04687,0.109375 5.6821715,5.6821715 0 0 1 -0.05469,0.125 5.6821715,5.6821715 0 0 1 -0.0957,0.201172 5.6821715,5.6821715 0 0 1 -0.01367,0.0293 5.6821715,5.6821715 0 0 1 -0.113281,0.207031 5.6821715,5.6821715 0 0 1 -0.04492,0.07617 5.6821715,5.6821715 0 0 1 -0.08984,0.150391 5.6821715,5.6821715 0 0 1 -0.0625,0.0957 5.6821715,5.6821715 0 0 1 -0.119141,0.173828 5.6821715,5.6821715 0 0 1 -0.04102,0.05859 5.6821715,5.6821715 0 0 1 -0.113281,0.146485 5.6821715,5.6821715 0 0 1 -0.974609,0.976562 5.6821715,5.6821715 0 0 1 -0.148438,0.111329 5.6821715,5.6821715 0 0 1 -0.05859,0.04297 5.6821715,5.6821715 0 0 1 -0.173829,0.119141 5.6821715,5.6821715 0 0 1 -0.0957,0.06055 5.6821715,5.6821715 0 0 1 -0.15039,0.0918 5.6821715,5.6821715 0 0 1 -0.07617,0.04492 5.6821715,5.6821715 0 0 1 -0.207032,0.111329 5.6821715,5.6821715 0 0 1 -0.02734,0.01367 5.6821715,5.6821715 0 0 1 -0.201172,0.09766 5.6821715,5.6821715 0 0 1 -0.126953,0.05469 5.6821715,5.6821715 0 0 1 -0.109375,0.04492 5.6821715,5.6821715 0 0 1 -0.173828,0.06836 5.6821715,5.6821715 0 0 1 -0.107422,0.03711 5.6821715,5.6821715 0 0 1 -0.126953,0.04297 5.6821715,5.6821715 0 0 1 -0.166016,0.04883 5.6821715,5.6821715 0 0 1 -0.142578,0.03906 5.6821715,5.6821715 0 0 1 -0.101563,0.02344 5.6821715,5.6821715 0 0 1 -0.162109,0.03711 5.6821715,5.6821715 0 0 1 -0.132812,0.02539 5.6821715,5.6821715 0 0 1 -0.4375,0.0625 5.6821715,5.6821715 0 0 1 -0.220704,0.01758 5.6821715,5.6821715 0 0 1 -0.06055,0.0039 5.6821715,5.6821715 0 0 1 -0.292969,0.0078 5.6821715,5.6821715 0 0 1 -0.845703,-0.06445 5.6821715,5.6821715 0 0 1 -0.300782,-0.06641 5.6821715,5.6821715 0 0 1 -0.537109,-0.128906 5.6821715,5.6821715 0 0 1 -0.302734,-0.113281 5.6821715,5.6821715 0 0 1 -0.492188,-0.205078 5.6821715,5.6821715 0 0 1 -0.294922,-0.160157 5.6821715,5.6821715 0 0 1 -0.445312,-0.273437 5.6821715,5.6821715 0 0 1 -0.275391,-0.205078 5.6821715,5.6821715 0 0 1 -0.392578,-0.335938 5.6821715,5.6821715 0 0 1 -0.242188,-0.242187 5.6821715,5.6821715 0 0 1 -0.335937,-0.392578 5.6821715,5.6821715 0 0 1 -0.205078,-0.275391 5.6821715,5.6821715 0 0 1 -0.273438,-0.445312 5.6821715,5.6821715 0 0 1 -0.160156,-0.294922 5.6821715,5.6821715 0 0 1 -0.205078,-0.492188 5.6821715,5.6821715 0 0 1 -0.113281,-0.302734 5.6821715,5.6821715 0 0 1 -0.128906,-0.53711 5.6821715,5.6821715 0 0 1 -0.06641,-0.300781 5.6821715,5.6821715 0 0 1 -0.06445,-0.845703 5.6821715,5.6821715 0 0 1 0.06445,-0.845703 5.6821715,5.6821715 0 0 1 0.06641,-0.302735 5.6821715,5.6821715 0 0 1 0.128906,-0.535156 5.6821715,5.6821715 0 0 1 0.113281,-0.302734 5.6821715,5.6821715 0 0 1 0.205078,-0.494141 5.6821715,5.6821715 0 0 1 0.160156,-0.294922 5.6821715,5.6821715 0 0 1 0.273438,-0.445312 5.6821715,5.6821715 0 0 1 0.205078,-0.273438 5.6821715,5.6821715 0 0 1 0.335937,-0.392578 5.6821715,5.6821715 0 0 1 0.242188,-0.242187 5.6821715,5.6821715 0 0 1 0.392578,-0.335938 5.6821715,5.6821715 0 0 1 0.275391,-0.205078 5.6821715,5.6821715 0 0 1 0.445312,-0.273437 5.6821715,5.6821715 0 0 1 0.294922,-0.16211 5.6821715,5.6821715 0 0 1 0.492188,-0.203125 5.6821715,5.6821715 0 0 1 0.302734,-0.113281 5.6821715,5.6821715 0 0 1 0.537109,-0.128906 5.6821715,5.6821715 0 0 1 0.300782,-0.06641 5.6821715,5.6821715 0 0 1 0.845703,-0.06641 z m 21.957031,8.617188 A 13.663812,13.663812 0 0 0 30.446261,33.611009 13.663812,13.663812 0 0 0 44.110323,47.275072 13.663812,13.663812 0 0 0 57.774385,33.611009 13.663812,13.663812 0 0 0 44.110323,19.946947 Z m -1.113281,0.509765 a 12.076982,12.076982 0 0 1 0.625,0.01758 12.076982,12.076982 0 0 1 0.125,0.0098 12.076982,12.076982 0 0 1 0.470703,0.03906 12.076982,12.076982 0 0 1 0.927734,0.130859 12.076982,12.076982 0 0 1 0.285156,0.05469 12.076982,12.076982 0 0 1 0.34375,0.07617 12.076982,12.076982 0 0 1 0.216797,0.05273 12.076982,12.076982 0 0 1 0.302735,0.08203 12.076982,12.076982 0 0 1 0.351562,0.105469 12.076982,12.076982 0 0 1 0.269532,0.08789 12.076982,12.076982 0 0 1 0.228515,0.08203 12.076982,12.076982 0 0 1 0.371094,0.142578 12.076982,12.076982 0 0 1 0.230469,0.0957 12.076982,12.076982 0 0 1 0.269531,0.11914 12.076982,12.076982 0 0 1 0.427734,0.203126 12.076982,12.076982 0 0 1 0.05859,0.03125 12.076982,12.076982 0 0 1 0.441406,0.238281 12.076982,12.076982 0 0 1 0.16211,0.09375 12.076982,12.076982 0 0 1 0.318359,0.193359 12.076982,12.076982 0 0 1 0.205078,0.128906 12.076982,12.076982 0 0 1 0.369141,0.25586 12.076982,12.076982 0 0 1 0.125,0.08984 12.076982,12.076982 0 0 1 0.3125,0.238281 12.076982,12.076982 0 0 1 2.072265,2.074219 12.076982,12.076982 0 0 1 0.240235,0.310546 12.076982,12.076982 0 0 1 0.08789,0.126954 12.076982,12.076982 0 0 1 0.25586,0.36914 12.076982,12.076982 0 0 1 0.128906,0.203125 12.076982,12.076982 0 0 1 0.193359,0.320313 12.076982,12.076982 0 0 1 0.0957,0.162109 12.076982,12.076982 0 0 1 0.238281,0.439453 12.076982,12.076982 0 0 1 0.0293,0.06055 12.076982,12.076982 0 0 1 0.205078,0.425781 12.076982,12.076982 0 0 1 0.117187,0.269532 12.076982,12.076982 0 0 1 0.09766,0.232421 12.076982,12.076982 0 0 1 0.142578,0.369141 12.076982,12.076982 0 0 1 0.08008,0.228516 12.076982,12.076982 0 0 1 0.08984,0.269531 12.076982,12.076982 0 0 1 0.103515,0.351562 12.076982,12.076982 0 0 1 0.08398,0.304688 12.076982,12.076982 0 0 1 0.05078,0.214844 12.076982,12.076982 0 0 1 0.07813,0.34375 12.076982,12.076982 0 0 1 0.05469,0.285156 12.076982,12.076982 0 0 1 0.13086,0.927734 12.076982,12.076982 0 0 1 0.03711,0.470703 12.076982,12.076982 0 0 1 0.01172,0.126954 12.076982,12.076982 0 0 1 0.01563,0.623046 12.076982,12.076982 0 0 1 -0.01563,0.625 12.076982,12.076982 0 0 1 -0.01172,0.125 12.076982,12.076982 0 0 1 -0.03711,0.470704 12.076982,12.076982 0 0 1 -0.13086,0.927734 12.076982,12.076982 0 0 1 -0.05469,0.285156 12.076982,12.076982 0 0 1 -0.07813,0.34375 12.076982,12.076982 0 0 1 -0.05078,0.214844 12.076982,12.076982 0 0 1 -0.08398,0.304687 12.076982,12.076982 0 0 1 -0.103515,0.351563 12.076982,12.076982 0 0 1 -0.08984,0.269531 12.076982,12.076982 0 0 1 -0.08008,0.228516 12.076982,12.076982 0 0 1 -0.142578,0.371093 12.076982,12.076982 0 0 1 -0.09766,0.230469 12.076982,12.076982 0 0 1 -0.117187,0.269531 12.076982,12.076982 0 0 1 -0.205078,0.427735 12.076982,12.076982 0 0 1 -0.0293,0.05859 12.076982,12.076982 0 0 1 -0.238281,0.441406 12.076982,12.076982 0 0 1 -0.0957,0.160156 12.076982,12.076982 0 0 1 -0.193359,0.320313 12.076982,12.076982 0 0 1 -0.128906,0.205078 12.076982,12.076982 0 0 1 -0.25586,0.367187 12.076982,12.076982 0 0 1 -0.08789,0.126953 12.076982,12.076982 0 0 1 -0.240235,0.3125 12.076982,12.076982 0 0 1 -2.072261,2.072248 12.076982,12.076982 0 0 1 -0.3125,0.240234 12.076982,12.076982 0 0 1 -0.125,0.08789 12.076982,12.076982 0 0 1 -0.369141,0.255859 12.076982,12.076982 0 0 1 -0.205078,0.128908 12.076982,12.076982 0 0 1 -0.318359,0.193359 12.076982,12.076982 0 0 1 -0.16211,0.09375 12.076982,12.076982 0 0 1 -0.441406,0.240234 12.076982,12.076982 0 0 1 -0.05859,0.0293 12.076982,12.076982 0 0 1 -0.427734,0.205078 12.076982,12.076982 0 0 1 -0.269531,0.117188 12.076982,12.076982 0 0 1 -0.230469,0.09766 12.076982,12.076982 0 0 1 -0.371094,0.142578 12.076982,12.076982 0 0 1 -0.228515,0.08008 12.076982,12.076982 0 0 1 -0.269536,0.08788 12.076982,12.076982 0 0 1 -0.351562,0.105469 12.076982,12.076982 0 0 1 -0.302735,0.08398 12.076982,12.076982 0 0 1 -0.216797,0.05078 12.076982,12.076982 0 0 1 -0.34375,0.07813 12.076982,12.076982 0 0 1 -0.285156,0.05273 12.076982,12.076982 0 0 1 -0.927734,0.132812 12.076982,12.076982 0 0 1 -0.470703,0.03711 12.076982,12.076982 0 0 1 -0.125,0.01172 12.076982,12.076982 0 0 1 -0.625,0.01563 12.076982,12.076982 0 0 1 -1.794922,-0.140625 12.076982,12.076982 0 0 1 -0.642578,-0.138672 12.076982,12.076982 0 0 1 -1.140625,-0.27539 12.076982,12.076982 0 0 1 -0.642578,-0.242188 12.076982,12.076982 0 0 1 -1.048828,-0.43164 12.076982,12.076982 0 0 1 -0.625,-0.341797 12.076982,12.076982 0 0 1 -0.947266,-0.580078 12.076982,12.076982 0 0 1 -0.583984,-0.435547 12.076982,12.076982 0 0 1 -0.835938,-0.716797 12.076982,12.076982 0 0 1 -0.513672,-0.511719 12.076982,12.076982 0 0 1 -0.714844,-0.83789 12.076982,12.076982 0 0 1 -0.435546,-0.582032 12.076982,12.076982 0 0 1 -0.580079,-0.947265 12.076982,12.076982 0 0 1 -0.341797,-0.626953 12.076982,12.076982 0 0 1 -0.433593,-1.046875 12.076982,12.076982 0 0 1 -0.242188,-0.642579 12.076982,12.076982 0 0 1 -0.273437,-1.140624 12.076982,12.076982 0 0 1 -0.140625,-0.642579 12.076982,12.076982 0 0 1 -0.138672,-1.796875 12.076982,12.076982 0 0 1 0.138672,-1.794922 12.076982,12.076982 0 0 1 0.140625,-0.642578 12.076982,12.076982 0 0 1 0.273437,-1.140625 12.076982,12.076982 0 0 1 0.242188,-0.642578 12.076982,12.076982 0 0 1 0.433593,-1.048828 12.076982,12.076982 0 0 1 0.341797,-0.626953 12.076982,12.076982 0 0 1 0.580079,-0.945312 12.076982,12.076982 0 0 1 0.435546,-0.583985 12.076982,12.076982 0 0 1 0.714844,-0.835937 12.076982,12.076982 0 0 1 0.513672,-0.513674 12.076982,12.076982 0 0 1 0.835938,-0.714844 12.076982,12.076982 0 0 1 0.583984,-0.435547 12.076982,12.076982 0 0 1 0.947266,-0.580078 12.076982,12.076982 0 0 1 0.625,-0.341797 12.076982,12.076982 0 0 1 1.048828,-0.433594 12.076982,12.076982 0 0 1 0.642578,-0.242187 12.076982,12.076982 0 0 1 1.140625,-0.273438 12.076982,12.076982 0 0 1 0.642578,-0.140625 12.076982,12.076982 0 0 1 1.794922,-0.138672 z M 19.95212,33.673509 A 9.2771376,9.2771376 0 0 0 10.674776,42.9489 9.2771376,9.2771376 0 0 0 19.95212,52.226244 9.2771376,9.2771376 0 0 0 29.227511,42.9489 9.2771376,9.2771376 0 0 0 19.95212,33.673509 Z m -0.755859,0.345703 a 8.1997488,8.1997488 0 0 1 0.421874,0.01172 8.1997488,8.1997488 0 0 1 0.08594,0.0078 8.1997488,8.1997488 0 0 1 0.320312,0.02539 8.1997488,8.1997488 0 0 1 0.628907,0.08789 8.1997488,8.1997488 0 0 1 0.193359,0.03711 8.1997488,8.1997488 0 0 1 0.234375,0.05273 8.1997488,8.1997488 0 0 1 0.146485,0.03516 8.1997488,8.1997488 0 0 1 0.205078,0.05664 8.1997488,8.1997488 0 0 1 0.240234,0.07031 8.1997488,8.1997488 0 0 1 0.181641,0.06055 8.1997488,8.1997488 0 0 1 0.15625,0.05469 8.1997488,8.1997488 0 0 1 0.251953,0.09766 8.1997488,8.1997488 0 0 1 0.15625,0.06445 8.1997488,8.1997488 0 0 1 0.183594,0.08203 8.1997488,8.1997488 0 0 1 0.289062,0.138672 8.1997488,8.1997488 0 0 1 0.04102,0.01953 8.1997488,8.1997488 0 0 1 0.298828,0.162109 8.1997488,8.1997488 0 0 1 0.109375,0.06445 8.1997488,8.1997488 0 0 1 0.216797,0.130859 8.1997488,8.1997488 0 0 1 0.138672,0.08789 8.1997488,8.1997488 0 0 1 0.25,0.173828 8.1997488,8.1997488 0 0 1 0.08594,0.06055 8.1997488,8.1997488 0 0 1 0.212891,0.162109 8.1997488,8.1997488 0 0 1 1.40625,1.40625 8.1997488,8.1997488 0 0 1 0.164062,0.212891 8.1997488,8.1997488 0 0 1 0.05859,0.08594 8.1997488,8.1997488 0 0 1 0.173828,0.25 8.1997488,8.1997488 0 0 1 0.08789,0.138672 8.1997488,8.1997488 0 0 1 0.130859,0.216797 8.1997488,8.1997488 0 0 1 0.06445,0.109375 8.1997488,8.1997488 0 0 1 0.162109,0.298828 8.1997488,8.1997488 0 0 1 0.02148,0.04102 8.1997488,8.1997488 0 0 1 0.138672,0.291015 8.1997488,8.1997488 0 0 1 0.08008,0.181641 8.1997488,8.1997488 0 0 1 0.06445,0.15625 8.1997488,8.1997488 0 0 1 0.09766,0.251953 8.1997488,8.1997488 0 0 1 0.05469,0.15625 8.1997488,8.1997488 0 0 1 0.06055,0.181641 8.1997488,8.1997488 0 0 1 0.07031,0.240234 8.1997488,8.1997488 0 0 1 0.05664,0.205078 8.1997488,8.1997488 0 0 1 0.03516,0.146484 8.1997488,8.1997488 0 0 1 0.05273,0.234376 8.1997488,8.1997488 0 0 1 0.03711,0.193359 8.1997488,8.1997488 0 0 1 0.08984,0.628906 8.1997488,8.1997488 0 0 1 0.02539,0.320313 8.1997488,8.1997488 0 0 1 0.0059,0.08594 8.1997488,8.1997488 0 0 1 0.01172,0.423828 8.1997488,8.1997488 0 0 1 -0.01172,0.421875 8.1997488,8.1997488 0 0 1 -0.0059,0.08594 8.1997488,8.1997488 0 0 1 -0.02539,0.320312 8.1997488,8.1997488 0 0 1 -0.08984,0.628906 8.1997488,8.1997488 0 0 1 -0.03711,0.19336 8.1997488,8.1997488 0 0 1 -0.05273,0.234375 8.1997488,8.1997488 0 0 1 -0.03516,0.146484 8.1997488,8.1997488 0 0 1 -0.05664,0.207031 8.1997488,8.1997488 0 0 1 -0.07031,0.238282 8.1997488,8.1997488 0 0 1 -0.06055,0.18164 8.1997488,8.1997488 0 0 1 -0.05469,0.15625 8.1997488,8.1997488 0 0 1 -0.09766,0.251954 8.1997488,8.1997488 0 0 1 -0.06445,0.15625 8.1997488,8.1997488 0 0 1 -0.08008,0.183593 8.1997488,8.1997488 0 0 1 -0.138672,0.289063 8.1997488,8.1997488 0 0 1 -0.02148,0.04102 8.1997488,8.1997488 0 0 1 -0.162109,0.298829 8.1997488,8.1997488 0 0 1 -0.06445,0.109374 8.1997488,8.1997488 0 0 1 -0.130859,0.216797 8.1997488,8.1997488 0 0 1 -0.08789,0.138669 8.1997488,8.1997488 0 0 1 -0.173828,0.251953 8.1997488,8.1997488 0 0 1 -0.05859,0.08398 8.1997488,8.1997488 0 0 1 -0.164062,0.21289 8.1997488,8.1997488 0 0 1 -1.40625,1.40625 8.1997488,8.1997488 0 0 1 -0.212891,0.164063 8.1997488,8.1997488 0 0 1 -0.08594,0.06055 8.1997488,8.1997488 0 0 1 -0.25,0.171875 8.1997488,8.1997488 0 0 1 -0.138672,0.08789 8.1997488,8.1997488 0 0 1 -0.216797,0.13086 8.1997488,8.1997488 0 0 1 -0.109375,0.06445 8.1997488,8.1997488 0 0 1 -0.298828,0.162109 8.1997488,8.1997488 0 0 1 -0.04102,0.02148 8.1997488,8.1997488 0 0 1 -0.289062,0.138671 8.1997488,8.1997488 0 0 1 -0.183594,0.08008 8.1997488,8.1997488 0 0 1 -0.15625,0.06445 8.1997488,8.1997488 0 0 1 -0.251953,0.09766 8.1997488,8.1997488 0 0 1 -0.15625,0.05469 8.1997488,8.1997488 0 0 1 -0.181641,0.06055 8.1997488,8.1997488 0 0 1 -0.240234,0.07031 8.1997488,8.1997488 0 0 1 -0.205078,0.05664 8.1997488,8.1997488 0 0 1 -0.146485,0.03516 8.1997488,8.1997488 0 0 1 -0.234375,0.05273 8.1997488,8.1997488 0 0 1 -0.193359,0.03711 8.1997488,8.1997488 0 0 1 -0.628907,0.08984 8.1997488,8.1997488 0 0 1 -0.320312,0.02539 8.1997488,8.1997488 0 0 1 -0.08594,0.0078 8.1997488,8.1997488 0 0 1 -0.421874,0.0098 8.1997488,8.1997488 0 0 1 -1.220704,-0.09375 8.1997488,8.1997488 0 0 1 -0.435546,-0.0957 8.1997488,8.1997488 0 0 1 -0.773433,-0.185562 8.1997488,8.1997488 0 0 1 -0.4375,-0.166016 8.1997488,8.1997488 0 0 1 -0.710938,-0.292968 8.1997488,8.1997488 0 0 1 -0.425781,-0.232422 8.1997488,8.1997488 0 0 1 -0.642578,-0.394532 8.1997488,8.1997488 0 0 1 -0.396484,-0.294921 8.1997488,8.1997488 0 0 1 -0.56836,-0.486329 8.1997488,8.1997488 0 0 1 -0.347656,-0.347656 8.1997488,8.1997488 0 0 1 -0.486328,-0.568359 8.1997488,8.1997488 0 0 1 -0.294922,-0.396485 8.1997488,8.1997488 0 0 1 -0.394531,-0.642578 8.1997488,8.1997488 0 0 1 -0.232422,-0.423828 8.1997488,8.1997488 0 0 1 -0.292969,-0.71289 8.1997488,8.1997488 0 0 1 -0.164062,-0.435547 8.1997488,8.1997488 0 0 1 -0.1875,-0.775391 8.1997488,8.1997488 0 0 1 -0.09375,-0.435547 8.1997488,8.1997488 0 0 1 -0.0957,-1.21875 8.1997488,8.1997488 0 0 1 0.0957,-1.220703 8.1997488,8.1997488 0 0 1 0.09375,-0.435547 8.1997488,8.1997488 0 0 1 0.1875,-0.773437 8.1997488,8.1997488 0 0 1 0.164062,-0.4375 8.1997488,8.1997488 0 0 1 0.292969,-0.710938 8.1997488,8.1997488 0 0 1 0.232422,-0.425781 8.1997488,8.1997488 0 0 1 0.394531,-0.642578 8.1997488,8.1997488 0 0 1 0.294922,-0.396485 8.1997488,8.1997488 0 0 1 0.486328,-0.566406 8.1997488,8.1997488 0 0 1 0.347656,-0.349609 8.1997488,8.1997488 0 0 1 0.56836,-0.486328 8.1997488,8.1997488 0 0 1 0.396484,-0.294922 8.1997488,8.1997488 0 0 1 0.642578,-0.394531 8.1997488,8.1997488 0 0 1 0.425781,-0.232422 8.1997488,8.1997488 0 0 1 0.710938,-0.292969 8.1997488,8.1997488 0 0 1 0.4375,-0.164063 8.1997488,8.1997488 0 0 1 0.773438,-0.1875 8.1997488,8.1997488 0 0 1 0.435546,-0.09375 8.1997488,8.1997488 0 0 1 1.220704,-0.0957 z"
     transform="matrix(0.87470785,0,0,0.87470785,4.0212645,4.0131895)" />
  <path
     id="path4"
     style="fill:#4f4f4f;stroke-width:1.0688"
     d="m 15.977128,24.388827 c -3.206386,0 -3.206389,3.20639 -3.206389,3.20639 v 7.481574 c 0,0 3e-6,3.206389 3.206389,3.206389 h 2.137593 c 3.206385,0 3.206388,-3.206389 3.206388,-3.206389 v -2.137593 c 0,0 -3e-6,-3.206388 -3.206388,-3.206388 h -1.037484 a 1.1005439,1.1005439 0 0 1 -1.100109,-1.100109 1.0692677,1.0692677 0 0 1 1.100109,-1.037484 h 2.65529 a 1.5885954,1.5885954 0 0 0 1.588582,-1.588582 v -0.02922 a 1.5885954,1.5885954 0 0 0 -1.588582,-1.588583 z m 10.153565,0 c -0.888169,0 -1.603195,0.715027 -1.603195,1.603196 v 10.687962 c 0,0.888169 0.715026,1.603195 1.603195,1.603195 0.888168,0 1.603194,-0.715026 1.603194,-1.603195 V 25.992023 c 0,-0.888169 -0.715026,-1.603196 -1.603194,-1.603196 z m 6.947176,0 c -2.13759,0 -2.137593,2.350518 -2.137593,2.350518 v 2.170992 a 2.2862773,2.2862773 0 0 0 2.137593,2.425667 2.2862773,2.2862773 0 0 0 -2.137593,2.425666 v 2.383918 c 0,0 3e-6,2.137592 2.137593,2.137592 h 4.275185 c 2.13759,0 2.137593,-2.565529 2.137593,-2.565529 v -2.244055 a 1.9288345,1.9288345 0 0 0 -1.695045,-2.137592 1.9288345,1.9288345 0 0 0 1.695045,-2.137593 v -2.459066 c 0,0 -3e-6,-2.350518 -2.137593,-2.350518 z m 11.788072,0 c -1.068795,0 -2.137593,1.068798 -2.137593,2.137593 v 9.619168 c 0,1.450675 0.686917,2.137592 2.137593,2.137592 h 4.275185 c 1.450676,0 2.137593,-0.686917 2.137593,-2.137592 V 26.52642 c 0,-1.068795 -1.068798,-2.137593 -2.137593,-2.137593 z M 34.495277,26.59322 h 1.229532 a 1.0403915,1.0403915 0 0 1 1.04166,1.041659 v 0.628336 a 1.0403915,1.0403915 0 0 1 -1.04166,1.039571 h -1.229532 a 1.0403915,1.0403915 0 0 1 -1.039571,-1.039571 v -0.628336 a 1.0403915,1.0403915 0 0 1 1.039571,-1.041659 z m 11.900796,0.54066 h 1.212833 a 1.008778,1.008778 0 0 1 1.008259,1.00826 v 6.387727 a 1.008778,1.008778 0 0 1 -1.008259,1.00826 h -1.212833 a 1.008778,1.008778 0 0 1 -1.00826,-1.00826 V 28.14214 a 1.008778,1.008778 0 0 1 1.00826,-1.00826 z m -29.362674,5.325194 h 0.02505 a 1.1136633,1.1136633 0 0 1 1.112633,1.114722 v 0.868397 a 1.1136633,1.1136633 0 0 1 -1.112633,1.114721 h -0.02505 a 1.1136633,1.1136633 0 0 1 -1.112633,-1.114721 v -0.868397 a 1.1136633,1.1136633 0 0 1 1.112633,-1.114722 z m 17.461878,0.910148 h 1.229532 a 1.0403915,1.0403915 0 0 1 1.04166,1.039571 v 0.628336 a 1.0403915,1.0403915 0 0 1 -1.04166,1.041659 h -1.229532 a 1.0403915,1.0403915 0 0 1 -1.039571,-1.041659 v -0.628336 a 1.0403915,1.0403915 0 0 1 1.039571,-1.039571 z" />
  <circle
     cx="32.0951"
     cy="32.030651"
     r="28"
     style="mix-blend-mode:normal;fill:none;stroke:#000000;stroke-linejoin:round;stroke-opacity:1;filter:url(#filter14)"
     id="circle2-6"
     transform="matrix(0.87470785,0,0,0.87470785,4.0212645,4.0131895)" />
  <path
     id="path4-2"
     style="mix-blend-mode:normal;fill:none;stroke:#ffffff;stroke-width:0.4;stroke-linejoin:round;stroke-dasharray:none;stroke-opacity:1;filter:url(#filter15)"
     d="m 13.673709,23.324873 c -3.665665,0 -3.665669,3.665669 -3.665669,3.665669 v 8.553226 c 0,0 4e-6,3.665669 3.665669,3.665669 h 2.443779 c 3.665664,0 3.665668,-3.665669 3.665668,-3.665669 v -2.443779 c 0,0 -4e-6,-3.665668 -3.665668,-3.665668 h -1.186092 a 1.2581846,1.2581846 0 0 1 -1.257687,-1.257687 1.2224284,1.2224284 0 0 1 1.257687,-1.186092 h 3.035631 a 1.816144,1.816144 0 0 0 1.816129,-1.816129 v -0.03341 a 1.816144,1.816144 0 0 0 -1.816129,-1.816129 z m 11.60795,0 c -1.015389,0 -1.832835,0.817446 -1.832835,1.832835 v 12.218894 c 0,1.015389 0.817446,1.832835 1.832835,1.832835 1.015388,0 1.832834,-0.817446 1.832834,-1.832835 V 25.157708 c 0,-1.015389 -0.817446,-1.832835 -1.832834,-1.832835 z m 7.942281,0 c -2.443776,0 -2.443779,2.687203 -2.443779,2.687203 v 2.481963 a 2.613761,2.613761 0 0 0 2.443779,2.773116 2.613761,2.613761 0 0 0 -2.443779,2.773116 v 2.725387 c 0,0 3e-6,2.443779 2.443779,2.443779 h 4.887558 c 2.443776,0 2.443779,-2.933013 2.443779,-2.933013 v -2.56549 a 2.2051185,2.2051185 0 0 0 -1.937841,-2.443779 2.2051185,2.2051185 0 0 0 1.937841,-2.443779 v -2.8113 c 0,0 -3e-6,-2.687203 -2.443779,-2.687203 z m 13.476582,0 c -1.221888,0 -2.443779,1.221891 -2.443779,2.443779 v 10.997006 c 0,1.658469 0.78531,2.443779 2.443779,2.443779 h 4.887558 c 1.658469,0 2.443779,-0.78531 2.443779,-2.443779 V 25.768652 c 0,-1.221888 -1.221891,-2.443779 -2.443779,-2.443779 z M 34.844376,25.84502 h 1.405649 a 1.189416,1.189416 0 0 1 1.190866,1.190865 v 0.718338 a 1.189416,1.189416 0 0 1 -1.190866,1.188478 h -1.405649 a 1.189416,1.189416 0 0 1 -1.188478,-1.188478 v -0.718338 a 1.189416,1.189416 0 0 1 1.188478,-1.190865 z m 13.605453,0.618104 h 1.386557 a 1.1532742,1.1532742 0 0 1 1.152681,1.152682 v 7.302698 a 1.1532742,1.1532742 0 0 1 -1.152681,1.152682 h -1.386557 a 1.1532742,1.1532742 0 0 1 -1.152682,-1.152682 v -7.302698 a 1.1532742,1.1532742 0 0 1 1.152682,-1.152682 z m -33.56855,6.087969 h 0.02864 a 1.2731832,1.2731832 0 0 1 1.272006,1.274393 v 0.992785 a 1.2731832,1.2731832 0 0 1 -1.272006,1.274393 h -0.02864 a 1.2731832,1.2731832 0 0 1 -1.272006,-1.274393 v -0.992785 a 1.2731832,1.2731832 0 0 1 1.272006,-1.274393 z m 19.963097,1.040516 h 1.405649 a 1.189416,1.189416 0 0 1 1.190866,1.188478 v 0.718338 a 1.189416,1.189416 0 0 1 -1.190866,1.190865 h -1.405649 a 1.189416,1.189416 0 0 1 -1.188478,-1.190865 v -0.718338 a 1.189416,1.189416 0 0 1 1.188478,-1.188478 z"
     transform="matrix(0.87470785,0,0,0.87470785,4.0212645,4.0131895)" />
</svg>
