<?xml version="1.0" encoding="UTF-8" standalone="no"?>
<svg
   width="64"
   height="64"
   version="1.1"
   id="svg4"
   sodipodi:docname="abiword.svg"
   inkscape:version="1.3.2 (091e20ef0f, 2023-11-25, custom)"
   xmlns:inkscape="http://www.inkscape.org/namespaces/inkscape"
   xmlns:sodipodi="http://sodipodi.sourceforge.net/DTD/sodipodi-0.dtd"
   xmlns:xlink="http://www.w3.org/1999/xlink"
   xmlns="http://www.w3.org/2000/svg"
   xmlns:svg="http://www.w3.org/2000/svg">
  <defs
     id="defs4">
    <inkscape:path-effect
       effect="fillet_chamfer"
       id="path-effect7"
       is_visible="true"
       lpeversion="1"
       nodesatellites_param="F,0,0,1,0,0,0,1 @ F,0,0,1,0,2.6164579,0,1 @ F,0,0,1,0,4.1347718,0,1 @ F,0,0,1,0,2.6048631,0,1 @ F,0,0,1,0,0,0,1 @ F,0,0,1,0,0,0,1 @ F,0,0,1,0,0,0,1 @ F,0,0,1,0,0,0,1 @ F,0,0,1,0,1.8083716,0,1 @ F,0,0,1,0,2.3159539,0,1 @ F,0,0,1,0,0,0,1 @ F,0,0,1,0,0,0,1"
       radius="0"
       unit="px"
       method="auto"
       mode="F"
       chamfer_steps="1"
       flexible="false"
       use_knot_distance="true"
       apply_no_radius="true"
       apply_with_radius="true"
       only_selected="false"
       hide_knots="false" />
    <linearGradient
       id="linearGradient6"
       inkscape:collect="always">
      <stop
         style="stop-color:#0081ff;stop-opacity:1;"
         offset="0"
         id="stop6" />
      <stop
         style="stop-color:#22d9ff;stop-opacity:1;"
         offset="1"
         id="stop7" />
    </linearGradient>
    <radialGradient
       inkscape:collect="always"
       xlink:href="#linearGradient6"
       id="radialGradient7"
       cx="15.16554"
       cy="42.402992"
       fx="15.16554"
       fy="42.402992"
       r="17.189868"
       gradientTransform="matrix(3.3459723,1.8970668,-2.3927282,4.2202007,50.760546,-150.13853)"
       gradientUnits="userSpaceOnUse" />
    <inkscape:path-effect
       effect="fillet_chamfer"
       id="path-effect7-9"
       is_visible="true"
       lpeversion="1"
       nodesatellites_param="F,0,0,1,0,0,0,1 @ F,0,0,1,0,2.6164579,0,1 @ F,0,0,1,0,4.1347718,0,1 @ F,0,0,1,0,2.6048631,0,1 @ F,0,0,1,0,0,0,1 @ F,0,0,1,0,0,0,1 @ F,0,0,1,0,0,0,1 @ F,0,0,1,0,0,0,1 @ F,0,0,1,0,1.8083716,0,1 @ F,0,0,1,0,2.3159539,0,1 @ F,0,0,1,0,0,0,1 @ F,0,0,1,0,0,0,1"
       radius="0"
       unit="px"
       method="auto"
       mode="F"
       chamfer_steps="1"
       flexible="false"
       use_knot_distance="true"
       apply_no_radius="true"
       apply_with_radius="true"
       only_selected="false"
       hide_knots="false" />
    <filter
       inkscape:collect="always"
       style="color-interpolation-filters:sRGB"
       id="filter7"
       x="-0.06435265"
       y="-0.059188587"
       width="1.1285907"
       height="1.1185144">
      <feGaussianBlur
         inkscape:collect="always"
         stdDeviation="1.2220387"
         id="feGaussianBlur7" />
    </filter>
  </defs>
  <sodipodi:namedview
     id="namedview4"
     pagecolor="#505050"
     bordercolor="#eeeeee"
     borderopacity="1"
     inkscape:showpageshadow="0"
     inkscape:pageopacity="0"
     inkscape:pagecheckerboard="0"
     inkscape:deskcolor="#505050"
     inkscape:zoom="8.0543882"
     inkscape:cx="32.653008"
     inkscape:cy="25.88651"
     inkscape:window-width="1920"
     inkscape:window-height="1020"
     inkscape:window-x="0"
     inkscape:window-y="0"
     inkscape:window-maximized="1"
     inkscape:current-layer="svg4" />
  <path
     style="fill:url(#radialGradient7);stroke-width:0.994528"
     d="m 44.173897,42.05004 c -8.381989,4.258626 -12.435707,5.195711 -20.692021,7.096163 -1.407546,0.323991 -3.840532,0.623496 -4.998384,-0.201845 -0.33757,-0.240628 -0.637345,-0.524947 -0.896956,-0.836837 -1.411917,-1.696239 -0.531669,-5.606283 0.200962,-7.769119 4.035183,-11.912462 7.484849,-19.011102 11.824363,-21.938894 1.188573,-0.80191 3.624161,-1.203132 4.736633,-0.354714 3.048829,2.325164 8.782293,10.882696 22.464571,40.494335 C 53.132317,43.09708 48.178566,27.781333 40.191506,14.076728 38.401353,11.370614 36.771322,8.4335735 34.35561,6.2562511 32.00156,4.398372 29.106489,6.3985612 27.366064,8.1970716 14.807603,21.141705 8.9790985,41.662249 7.3990498,52.891188 c -0.1391564,0.988944 -0.2396575,2.625983 0.070168,3.571823 0.4505968,1.375588 1.3766841,2.323149 2.5433047,2.649342 1.212672,0.339069 3.292721,-0.326468 4.529782,-0.651123 6.668452,-1.750069 12.974311,-4.8214 18.94369,-8.294445 3.825454,-2.308598 7.504615,-4.930076 10.687206,-8.117641 z"
     id="path3"
     sodipodi:nodetypes="ccccccccccccc"
     inkscape:path-effect="#path-effect7"
     inkscape:original-d="m 44.173897,42.05004 c -9.200883,4.67468 -13.186466,5.347108 -23.240159,7.684748 -3.240471,-0.01621 -4.966268,-3.50542 -4.442847,-5.470211 5.334121,-16.525082 9.45871,-25.081499 15.450847,-27.010266 2.452533,-0.280064 6.484492,1.491421 24.871327,41.284818 C 53.132317,43.09708 48.178566,27.781333 40.191506,14.076728 38.401353,11.370614 36.771322,8.4335735 34.35561,6.2562511 32.00156,4.398372 29.106489,6.3985612 27.366064,8.1970716 14.105132,21.865777 8.3481081,43.98163 7.1733486,54.685329 c 0.093983,3.320726 2.4065605,5.257875 5.1162524,4.312574 7.505411,-1.604275 14.55891,-4.969362 21.196394,-8.831118 3.825454,-2.308598 7.504615,-4.930076 10.687206,-8.117641 z"
     transform="matrix(1.0617798,0,0,1.0617798,-2.0565243,-2.2389042)" />
  <path
     style="mix-blend-mode:normal;fill:none;stroke:#000000;stroke-width:0.5;stroke-linejoin:round;stroke-dasharray:none;stroke-opacity:1;filter:url(#filter7)"
     d="m 44.173897,42.05004 c -8.381989,4.258626 -12.435707,5.195711 -20.692021,7.096163 -1.407546,0.323991 -3.840532,0.623496 -4.998384,-0.201845 -0.33757,-0.240628 -0.637345,-0.524947 -0.896956,-0.836837 -1.411917,-1.696239 -0.531669,-5.606283 0.200962,-7.769119 4.035183,-11.912462 7.484849,-19.011102 11.824363,-21.938894 1.188573,-0.80191 3.624161,-1.203132 4.736633,-0.354714 3.048829,2.325164 8.782293,10.882696 22.464571,40.494335 C 53.132317,43.09708 48.178566,27.781333 40.191506,14.076728 38.401353,11.370614 36.771322,8.4335735 34.35561,6.2562511 32.00156,4.398372 29.106489,6.3985612 27.366064,8.1970716 14.807603,21.141705 8.9790985,41.662249 7.3990498,52.891188 c -0.1391564,0.988944 -0.2396575,2.625983 0.070168,3.571823 0.4505968,1.375588 1.3766841,2.323149 2.5433047,2.649342 1.212672,0.339069 3.292721,-0.326468 4.529782,-0.651123 6.668452,-1.750069 12.974311,-4.8214 18.94369,-8.294445 3.825454,-2.308598 7.504615,-4.930076 10.687206,-8.117641 z"
     id="path3-1"
     sodipodi:nodetypes="ccccccccccccc"
     inkscape:path-effect="#path-effect7-9"
     inkscape:original-d="m 44.173897,42.05004 c -9.200883,4.67468 -13.186466,5.347108 -23.240159,7.684748 -3.240471,-0.01621 -4.966268,-3.50542 -4.442847,-5.470211 5.334121,-16.525082 9.45871,-25.081499 15.450847,-27.010266 2.452533,-0.280064 6.484492,1.491421 24.871327,41.284818 C 53.132317,43.09708 48.178566,27.781333 40.191506,14.076728 38.401353,11.370614 36.771322,8.4335735 34.35561,6.2562511 32.00156,4.398372 29.106489,6.3985612 27.366064,8.1970716 14.105132,21.865777 8.3481081,43.98163 7.1733486,54.685329 c 0.093983,3.320726 2.4065605,5.257875 5.1162524,4.312574 7.505411,-1.604275 14.55891,-4.969362 21.196394,-8.831118 3.825454,-2.308598 7.504615,-4.930076 10.687206,-8.117641 z"
     transform="matrix(1.0617798,0,0,1.0617798,-2.0565243,-2.2389042)" />
</svg>
