<?xml version="1.0" encoding="UTF-8" standalone="no"?>
<!-- Generator: Adobe Illustrator 25.2.2, SVG Export Plug-In . SVG Version: 6.00 Build 0)  -->

<svg
   version="1.1"
   id="Layer_1"
   x="0px"
   y="0px"
   viewBox="0 0 64 64"
   style="enable-background:new 0 0 64 64;"
   xml:space="preserve"
   sodipodi:docname="accessories-calculator.svg"
   inkscape:version="1.3.2 (091e20ef0f, 2023-11-25, custom)"
   xmlns:inkscape="http://www.inkscape.org/namespaces/inkscape"
   xmlns:sodipodi="http://sodipodi.sourceforge.net/DTD/sodipodi-0.dtd"
   xmlns="http://www.w3.org/2000/svg"
   xmlns:svg="http://www.w3.org/2000/svg"><defs
   id="defs9"><radialGradient
     id="SVGID_1_-3"
     cx="10.424094"
     cy="10.679166"
     r="55.238602"
     fx="10.424094"
     fy="10.679166"
     gradientUnits="userSpaceOnUse"
     gradientTransform="matrix(0.01197397,0.69906106,-0.99985334,0.01712614,20.976875,3.759193)"><stop
       offset="0"
       style="stop-color:#282828;stop-opacity:1;"
       id="stop4-6" /><stop
       offset="1"
       style="stop-color:#3E3E3E"
       id="stop5-7" /></radialGradient><radialGradient
     id="SVGID_2_-5"
     cx="32.024788"
     cy="31.075253"
     r="48.247601"
     fx="32.024788"
     fy="31.075253"
     gradientUnits="userSpaceOnUse"
     gradientTransform="matrix(0.95361227,0,0,0.95361227,1.3968658,2.4763844)"><stop
       offset="0"
       style="stop-color:#0085ff;stop-opacity:1;"
       id="stop6-3" /><stop
       offset="1"
       style="stop-color:#2aff58;stop-opacity:1;"
       id="stop7-5" /></radialGradient><radialGradient
     id="SVGID_3_-6"
     cx="25.693399"
     cy="24.2379"
     r="57.7332"
     gradientUnits="userSpaceOnUse"
     gradientTransform="matrix(0.95361227,0,0,0.95361227,1.3968658,2.4763844)"><stop
       offset="0"
       style="stop-color:#FFFFFF"
       id="stop8-2" /><stop
       offset="1"
       style="stop-color:#B8B8B8"
       id="stop9-9" /></radialGradient><radialGradient
     id="SVGID_2_-5-3"
     cx="42.115299"
     cy="38.446899"
     r="48.247601"
     fx="40.043098"
     fy="35.905499"
     gradientUnits="userSpaceOnUse"
     gradientTransform="translate(0.02119093,0.55942359)"><stop
       offset="0"
       style="stop-color:#5FC2FF"
       id="stop6-3-6" /><stop
       offset="1"
       style="stop-color:#1F5EFF"
       id="stop7-5-7" /></radialGradient><radialGradient
     id="SVGID_2_-5-2"
     cx="42.115299"
     cy="38.446899"
     r="48.247601"
     fx="40.043098"
     fy="35.905499"
     gradientUnits="userSpaceOnUse"
     gradientTransform="translate(0.09097295,0.50949025)"><stop
       offset="0"
       style="stop-color:#5FC2FF"
       id="stop6-3-9" /><stop
       offset="1"
       style="stop-color:#1F5EFF"
       id="stop7-5-1" /></radialGradient><radialGradient
     id="SVGID_3_-6-3"
     cx="25.693399"
     cy="24.2379"
     r="57.7332"
     gradientUnits="userSpaceOnUse"
     gradientTransform="translate(0.05266191,1.142292)"><stop
       offset="0"
       style="stop-color:#FFFFFF"
       id="stop8-2-6" /><stop
       offset="1"
       style="stop-color:#B8B8B8"
       id="stop9-9-0" /></radialGradient><linearGradient
     id="a"
     gradientTransform="matrix(0.09774471,0,0,0.12703952,10.879953,28.710159)"
     gradientUnits="userSpaceOnUse"
     x1="10.276156"
     x2="426.27621"
     y1="259.99988"
     y2="259.99988"><stop
       offset="0"
       stop-color="#9a9996"
       id="stop1" /><stop
       offset="0.0502156"
       stop-color="#c0bfbc"
       id="stop2" /><stop
       offset="0.100204"
       stop-color="#9a9996"
       id="stop3" /><stop
       offset="0.900023"
       stop-color="#9a9996"
       id="stop4-3" /><stop
       offset="0.950011"
       stop-color="#c0bfbc"
       id="stop5-6" /><stop
       offset="1"
       stop-color="#9a9996"
       id="stop6-7" /></linearGradient><filter
     inkscape:collect="always"
     style="color-interpolation-filters:sRGB"
     id="filter2"
     x="-0.11922822"
     y="-0.12253765"
     width="1.2384564"
     height="1.2450753"><feGaussianBlur
       inkscape:collect="always"
       stdDeviation="0.89539816"
       id="feGaussianBlur2" /></filter><filter
     inkscape:collect="always"
     style="color-interpolation-filters:sRGB"
     id="filter3"
     x="-0.073525724"
     y="-0.31507279"
     width="1.1470514"
     height="1.6301456"><feGaussianBlur
       inkscape:collect="always"
       stdDeviation="0.89539816"
       id="feGaussianBlur3" /></filter><filter
     inkscape:collect="always"
     style="color-interpolation-filters:sRGB"
     id="filter4"
     x="-0.09322518"
     y="-0.34982203"
     width="1.1864504"
     height="1.6996441"><feGaussianBlur
       inkscape:collect="always"
       stdDeviation="1.107715"
       id="feGaussianBlur4" /></filter><filter
     inkscape:collect="always"
     style="color-interpolation-filters:sRGB"
     id="filter5"
     x="-0.091144258"
     y="-0.070489518"
     width="1.1822885"
     height="1.140979"><feGaussianBlur
       inkscape:collect="always"
       stdDeviation="1.4810573"
       id="feGaussianBlur5" /></filter><filter
     inkscape:collect="always"
     style="color-interpolation-filters:sRGB"
     id="filter6"
     x="-0.41126448"
     y="-0.15993617"
     width="1.822529"
     height="1.3198723"><feGaussianBlur
       inkscape:collect="always"
       stdDeviation="1.1417087"
       id="feGaussianBlur6" /></filter></defs><sodipodi:namedview
   id="namedview9"
   pagecolor="#ffffff"
   bordercolor="#000000"
   borderopacity="0.25"
   inkscape:showpageshadow="2"
   inkscape:pageopacity="0.0"
   inkscape:pagecheckerboard="0"
   inkscape:deskcolor="#d1d1d1"
   inkscape:zoom="8.9714173"
   inkscape:cx="32.380614"
   inkscape:cy="25.74844"
   inkscape:window-width="1920"
   inkscape:window-height="1020"
   inkscape:window-x="0"
   inkscape:window-y="0"
   inkscape:window-maximized="1"
   inkscape:current-layer="Layer_1" />
<style
   type="text/css"
   id="style1">
	.st0{opacity:0.15;}
	.st1{fill:#8C8C8C;}
	.st2{fill:#A6A6A6;}
	.st3{fill:#595959;}
	.st4{opacity:0.52;fill:url(#SVGID_1_);}
	.st5{fill:url(#SVGID_2_);}
	.st6{opacity:0.49;}
	.st7{fill:url(#SVGID_3_);}
</style>




<radialGradient
   id="SVGID_1_"
   cx="8.4339"
   cy="7.1327"
   r="55.2386"
   fx="8.6696"
   fy="7.3669"
   gradientUnits="userSpaceOnUse">
	<stop
   offset="0"
   style="stop-color:#FFFFFF"
   id="stop4" />
	<stop
   offset="1"
   style="stop-color:#3E3E3E"
   id="stop5" />
</radialGradient>

<radialGradient
   id="SVGID_2_"
   cx="42.1153"
   cy="38.4469"
   r="48.2476"
   fx="40.0431"
   fy="35.9055"
   gradientUnits="userSpaceOnUse">
	<stop
   offset="0"
   style="stop-color:#5FC2FF"
   id="stop6" />
	<stop
   offset="1"
   style="stop-color:#1F5EFF"
   id="stop7" />
</radialGradient>


<radialGradient
   id="SVGID_3_"
   cx="25.6934"
   cy="24.2379"
   r="57.7332"
   gradientUnits="userSpaceOnUse">
	<stop
   offset="0"
   style="stop-color:#FFFFFF"
   id="stop8" />
	<stop
   offset="1"
   style="stop-color:#B8B8B8"
   id="stop9" />
</radialGradient>

<rect
   style="fill:#deddda;fill-opacity:1;stroke:none;stroke-width:0.107688;stroke-linecap:round;stroke-linejoin:round;stroke-miterlimit:2.1;paint-order:markers stroke fill"
   id="rect1"
   width="43.094345"
   height="55.721786"
   x="10.452828"
   y="4.1391063"
   rx="6.9201727"
   ry="6.9201727" /><path
   d="m 17.708614,18.449332 h 28.477027 c 1.209879,0 2.188896,-0.97902 2.188896,-2.188897 v -4.377792 c 0,-1.209878 -0.979017,-2.188897 -2.188896,-2.188897 H 17.708614 c -1.209879,0 -2.188896,0.979019 -2.188896,2.188897 v 4.377792 c 0,1.209877 0.979017,2.188897 2.188896,2.188897 z m 0,0"
   fill="#6fb182"
   id="path9"
   style="stroke-width:0.547224;fill:#3f3f3f;fill-opacity:1" /><path
   id="path11"
   style="fill:#9a9996;fill-opacity:1;stroke-width:0.547224"
   d="m 19.35125,22.826507 c -2.116215,0 -3.83217,1.715953 -3.83217,3.83217 0,2.116215 1.715955,3.830066 3.83217,3.830066 2.116217,0 3.830068,-1.713851 3.830068,-3.830066 0,-2.116216 -1.713851,-3.83217 -3.830068,-3.83217 z m 12.586008,0 c -2.116217,0 -3.83217,1.715953 -3.83217,3.83217 0,2.116215 1.715953,3.830066 3.83217,3.830066 2.116216,0 3.830067,-1.713851 3.830067,-3.830066 0,-2.116216 -1.713851,-3.83217 -3.830067,-3.83217 z m 12.586007,0 c -2.116216,0 -3.83217,1.715953 -3.83217,3.83217 0,2.116215 1.715954,3.830066 3.83217,3.830066 2.116216,0 3.830067,-1.713851 3.830067,-3.830066 0,-2.116216 -1.713851,-3.83217 -3.830067,-3.83217 z" /><path
   id="path18"
   style="fill:#5e5c64;fill-opacity:1;stroke-width:0.547224"
   d="m 19.35125,34.865662 c -2.116215,0 -3.83217,1.713851 -3.83217,3.830067 0,2.116215 1.715955,3.83217 3.83217,3.83217 2.116217,0 3.830068,-1.715955 3.830068,-3.83217 0,-2.116216 -1.713851,-3.830067 -3.830068,-3.830067 z m 12.586008,0 c -2.116217,0 -3.83217,1.713851 -3.83217,3.830067 0,2.116215 1.715953,3.83217 3.83217,3.83217 2.116216,0 3.830067,-1.715955 3.830067,-3.83217 0,-2.116216 -1.713851,-3.830067 -3.830067,-3.830067 z M 19.35125,46.904818 c -2.116215,0 -3.83217,1.71385 -3.83217,3.830067 0,2.116216 1.715955,3.832169 3.83217,3.832169 2.116217,0 3.830068,-1.715953 3.830068,-3.832169 0,-2.116217 -1.713851,-3.830067 -3.830068,-3.830067 z m 12.586008,0 c -2.116217,0 -3.83217,1.71385 -3.83217,3.830067 0,2.116216 1.715953,3.832169 3.83217,3.832169 2.116216,0 3.830067,-1.715953 3.830067,-3.832169 0,-2.116217 -1.713851,-3.830067 -3.830067,-3.830067 z" /><path
   d="m 44.522593,34.866054 c 2.116218,0 3.830568,1.714349 3.830568,3.830569 v 12.038929 c 0,2.116217 -1.71435,3.830569 -3.830568,3.830569 -2.116218,0 -3.830569,-1.714351 -3.830569,-3.830569 V 38.696623 c 0,-2.116219 1.714351,-3.830569 3.830569,-3.830569 z m 0,0"
   fill="#ff7800"
   id="path25"
   style="stroke-width:0.547224;fill:#009eff;fill-opacity:1" /><rect
   style="fill:none;fill-opacity:1;stroke:#000000;stroke-width:0.18572211;stroke-linecap:round;stroke-linejoin:round;stroke-miterlimit:2.1;stroke-dasharray:none;stroke-opacity:1;paint-order:markers stroke fill;filter:url(#filter5)"
   id="rect1-5"
   width="40.017864"
   height="51.743843"
   x="11.991068"
   y="6.1280785"
   rx="6.4261456"
   ry="6.4261456"
   transform="matrix(1.0768776,0,0,1.0768776,-2.4600846,-2.4600846)" /><path
   d="m 18.728867,19.416705 h 26.44407 c 1.123506,0 2.032632,-0.909127 2.032632,-2.032633 v -4.065263 c 0,-1.123506 -0.909126,-2.032633 -2.032632,-2.032633 h -26.44407 c -1.123506,0 -2.032632,0.909127 -2.032632,2.032633 v 4.065263 c 0,1.123506 0.909126,2.032633 2.032632,2.032633 z m 0,0"
   fill="#6fb182"
   id="path9-3"
   style="fill:none;stroke:#032c00;stroke-width:0.37144427;stroke-dasharray:none;stroke-opacity:1;filter:url(#filter4)"
   transform="matrix(1.0768776,0,0,1.0768776,-2.4600846,-2.4600846)" /><path
   id="path11-5"
   style="fill:none;fill-opacity:1;stroke:#000000;stroke-width:0.18572214;stroke-dasharray:none;stroke-opacity:1;filter:url(#filter3)"
   d="m 20.254237,23.481396 c -1.96514,0 -3.558594,1.593452 -3.558594,3.558594 0,1.965141 1.593454,3.55664 3.558594,3.55664 1.965141,0 3.556641,-1.591499 3.556641,-3.55664 0,-1.965141 -1.5915,-3.558594 -3.556641,-3.558594 z m 11.6875,0 c -1.965141,0 -3.558594,1.593452 -3.558594,3.558594 0,1.965141 1.593453,3.55664 3.558594,3.55664 1.965141,0 3.556641,-1.591499 3.556641,-3.55664 0,-1.965141 -1.5915,-3.558594 -3.556641,-3.558594 z m 11.6875,0 c -1.965141,0 -3.558594,1.593452 -3.558594,3.558594 0,1.965141 1.593453,3.55664 3.558594,3.55664 1.96514,0 3.556641,-1.591499 3.556641,-3.55664 0,-1.965141 -1.591501,-3.558594 -3.556641,-3.558594 z"
   transform="matrix(1.0768776,0,0,1.0768776,-2.4600846,-2.4600846)" /><path
   id="path18-6"
   style="fill:none;fill-opacity:1;stroke:#000000;stroke-width:0.18572214;stroke-dasharray:none;stroke-opacity:1;filter:url(#filter2)"
   d="m 20.254237,34.661084 c -1.96514,0 -3.558594,1.591499 -3.558594,3.55664 0,1.96514 1.593454,3.558594 3.558594,3.558594 1.965141,0 3.556641,-1.593454 3.556641,-3.558594 0,-1.965141 -1.5915,-3.55664 -3.556641,-3.55664 z m 11.6875,0 c -1.965141,0 -3.558594,1.591499 -3.558594,3.55664 0,1.96514 1.593453,3.558594 3.558594,3.558594 1.965141,0 3.556641,-1.593454 3.556641,-3.558594 0,-1.965141 -1.5915,-3.55664 -3.556641,-3.55664 z m -11.6875,11.179687 c -1.96514,0 -3.558594,1.591499 -3.558594,3.556641 0,1.965142 1.593454,3.558593 3.558594,3.558593 1.965141,0 3.556641,-1.593451 3.556641,-3.558593 0,-1.965142 -1.5915,-3.556641 -3.556641,-3.556641 z m 11.6875,0 c -1.965141,0 -3.558594,1.591499 -3.558594,3.556641 0,1.965142 1.593453,3.558593 3.558594,3.558593 1.965141,0 3.556641,-1.593451 3.556641,-3.558593 0,-1.965142 -1.5915,-3.556641 -3.556641,-3.556641 z"
   transform="matrix(1.0768776,0,0,1.0768776,-2.4600846,-2.4600846)" /><path
   d="m 43.628613,34.661447 c 1.965142,0 3.557106,1.591963 3.557106,3.557107 v 11.179477 c 0,1.965142 -1.591964,3.557108 -3.557106,3.557108 -1.965143,0 -3.557107,-1.591964 -3.557107,-3.557108 V 38.218554 c 0,-1.965142 1.591964,-3.557107 3.557107,-3.557107 z m 0,0"
   fill="#ff7800"
   id="path25-2"
   style="fill:none;stroke:#000eff;stroke-width:0.37144427;stroke-dasharray:none;stroke-opacity:1;filter:url(#filter6)"
   transform="matrix(1.0768776,0,0,1.0768776,-2.4600846,-2.4600846)" /></svg>
