<?xml version="1.0" encoding="UTF-8" standalone="no"?>
<svg
   width="64"
   height="64"
   version="1.1"
   id="svg8"
   sodipodi:docname="acreloaded.svg"
   inkscape:version="1.3.2 (091e20ef0f, 2023-11-25, custom)"
   xmlns:inkscape="http://www.inkscape.org/namespaces/inkscape"
   xmlns:sodipodi="http://sodipodi.sourceforge.net/DTD/sodipodi-0.dtd"
   xmlns:xlink="http://www.w3.org/1999/xlink"
   xmlns="http://www.w3.org/2000/svg"
   xmlns:svg="http://www.w3.org/2000/svg">
  <defs
     id="defs8">
    <inkscape:path-effect
       effect="fillet_chamfer"
       id="path-effect5"
       is_visible="true"
       lpeversion="1"
       nodesatellites_param="F,0,0,1,0,2.1123573,0,1 @ F,0,1,1,0,0.58353444,0,1 @ F,0,0,1,0,2.1123573,0,1 @ F,0,0,1,0,2.1123573,0,1 @ F,0,0,1,0,0.58353444,0,1 @ F,0,0,1,0,2.1123573,0,1 @ F,0,0,1,0,2.1123573,0,1 @ F,0,1,1,0,0.58353444,0,1 @ F,0,0,1,0,2.1123573,0,1 @ F,0,0,1,0,2.1123573,0,1 @ F,0,1,1,0,0.58353444,0,1 @ F,0,0,1,0,2.1123573,0,1"
       radius="0"
       unit="px"
       method="auto"
       mode="F"
       chamfer_steps="1"
       flexible="false"
       use_knot_distance="true"
       apply_no_radius="true"
       apply_with_radius="true"
       only_selected="false"
       hide_knots="false" />
    <linearGradient
       id="linearGradient1"
       inkscape:collect="always">
      <stop
         style="stop-color:#36b752;stop-opacity:1;"
         offset="0"
         id="stop1" />
      <stop
         style="stop-color:#36b798;stop-opacity:1;"
         offset="1"
         id="stop2" />
    </linearGradient>
    <inkscape:path-effect
       effect="fillet_chamfer"
       id="path-effect1"
       is_visible="true"
       lpeversion="1"
       nodesatellites_param="F,0,0,1,0,0,0,1 @ F,0,0,1,0,0,0,1 @ F,0,0,1,0,0,0,1 @ F,0,0,1,0,3.7948601,0,1 @ F,0,0,1,0,3.81536,0,1 @ F,0,0,1,0,3.0131726,0,1 @ F,0,0,1,0,0,0,1 @ F,0,0,1,0,0,0,1"
       radius="0"
       unit="px"
       method="auto"
       mode="F"
       chamfer_steps="1"
       flexible="false"
       use_knot_distance="true"
       apply_no_radius="true"
       apply_with_radius="true"
       only_selected="false"
       hide_knots="false" />
    <linearGradient
       id="linearGradient9"
       inkscape:collect="always">
      <stop
         style="stop-color:#ff4088;stop-opacity:1;"
         offset="0"
         id="stop9" />
      <stop
         style="stop-color:#ff5c2b;stop-opacity:1;"
         offset="1"
         id="stop10" />
    </linearGradient>
    <inkscape:path-effect
       effect="fillet_chamfer"
       id="path-effect9"
       is_visible="true"
       lpeversion="1"
       nodesatellites_param="F,0,0,1,0,0,0,1 @ F,0,0,1,0,0,0,1 @ F,0,0,1,0,0,0,1 @ F,0,0,1,0,0,0,1 @ F,0,0,1,0,6.1458013,0,1 @ F,0,0,1,0,0,0,1 @ F,0,0,1,0,0,0,1 @ F,0,0,1,0,0,0,1"
       radius="0"
       unit="px"
       method="auto"
       mode="F"
       chamfer_steps="1"
       flexible="false"
       use_knot_distance="true"
       apply_no_radius="true"
       apply_with_radius="true"
       only_selected="false"
       hide_knots="false" />
    <inkscape:path-effect
       effect="fillet_chamfer"
       id="path-effect8"
       is_visible="true"
       lpeversion="1"
       nodesatellites_param="F,0,0,1,0,1.9885327,0,1 @ F,0,0,1,0,3.8501546,0,1 @ F,0,0,1,0,0,0,1 @ F,0,0,1,0,0,0,1 @ F,0,0,1,0,0,0,1 @ F,0,0,1,0,0,0,1 @ F,0,0,1,0,0,0,1"
       radius="0"
       unit="px"
       method="auto"
       mode="F"
       chamfer_steps="1"
       flexible="false"
       use_knot_distance="true"
       apply_no_radius="true"
       apply_with_radius="true"
       only_selected="false"
       hide_knots="false" />
    <radialGradient
       inkscape:collect="always"
       xlink:href="#linearGradient9"
       id="radialGradient10"
       cx="5.3004398"
       cy="45.72401"
       fx="5.3004398"
       fy="45.72401"
       r="26.999999"
       gradientTransform="matrix(1.142202,0.65945058,-0.73272293,1.2691134,34.416109,-14.088748)"
       gradientUnits="userSpaceOnUse" />
    <radialGradient
       inkscape:collect="always"
       xlink:href="#linearGradient1"
       id="radialGradient2"
       cx="42.615387"
       cy="55.610096"
       fx="42.615387"
       fy="55.610096"
       r="9.8415775"
       gradientUnits="userSpaceOnUse"
       gradientTransform="matrix(2.0147325,-0.53984593,0.53984593,2.0147325,-73.87301,-33.854793)" />
    <inkscape:path-effect
       effect="fillet_chamfer"
       id="path-effect5-3"
       is_visible="true"
       lpeversion="1"
       nodesatellites_param="F,0,0,1,0,2.1123573,0,1 @ F,0,1,1,0,0.58353444,0,1 @ F,0,0,1,0,2.1123573,0,1 @ F,0,0,1,0,2.1123573,0,1 @ F,0,0,1,0,0.58353444,0,1 @ F,0,0,1,0,2.1123573,0,1 @ F,0,0,1,0,2.1123573,0,1 @ F,0,1,1,0,0.58353444,0,1 @ F,0,0,1,0,2.1123573,0,1 @ F,0,0,1,0,2.1123573,0,1 @ F,0,1,1,0,0.58353444,0,1 @ F,0,0,1,0,2.1123573,0,1"
       radius="0"
       unit="px"
       method="auto"
       mode="F"
       chamfer_steps="1"
       flexible="false"
       use_knot_distance="true"
       apply_no_radius="true"
       apply_with_radius="true"
       only_selected="false"
       hide_knots="false" />
    <radialGradient
       inkscape:collect="always"
       xlink:href="#linearGradient1"
       id="radialGradient2-6"
       cx="42.615387"
       cy="55.610096"
       fx="42.615387"
       fy="55.610096"
       r="9.8415775"
       gradientUnits="userSpaceOnUse"
       gradientTransform="matrix(2.0147325,-0.53984593,0.53984593,2.0147325,-73.943963,-33.906086)" />
    <inkscape:path-effect
       effect="fillet_chamfer"
       id="path-effect8-3"
       is_visible="true"
       lpeversion="1"
       nodesatellites_param="F,0,0,1,0,1.9885327,0,1 @ F,0,0,1,0,3.8501546,0,1 @ F,0,0,1,0,0,0,1 @ F,0,0,1,0,0,0,1 @ F,0,0,1,0,0,0,1 @ F,0,0,1,0,0,0,1 @ F,0,0,1,0,0,0,1"
       radius="0"
       unit="px"
       method="auto"
       mode="F"
       chamfer_steps="1"
       flexible="false"
       use_knot_distance="true"
       apply_no_radius="true"
       apply_with_radius="true"
       only_selected="false"
       hide_knots="false" />
    <inkscape:path-effect
       effect="fillet_chamfer"
       id="path-effect1-5"
       is_visible="true"
       lpeversion="1"
       nodesatellites_param="F,0,0,1,0,0,0,1 @ F,0,0,1,0,0,0,1 @ F,0,0,1,0,0,0,1 @ F,0,0,1,0,3.7948601,0,1 @ F,0,0,1,0,3.81536,0,1 @ F,0,0,1,0,3.0131726,0,1 @ F,0,0,1,0,0,0,1 @ F,0,0,1,0,0,0,1"
       radius="0"
       unit="px"
       method="auto"
       mode="F"
       chamfer_steps="1"
       flexible="false"
       use_knot_distance="true"
       apply_no_radius="true"
       apply_with_radius="true"
       only_selected="false"
       hide_knots="false" />
    <filter
       inkscape:collect="always"
       style="color-interpolation-filters:sRGB"
       id="filter9"
       x="-0.067400591"
       y="-0.060677604"
       width="1.1348012"
       height="1.1213552">
      <feGaussianBlur
         inkscape:collect="always"
         stdDeviation="1.5277069"
         id="feGaussianBlur9" />
    </filter>
    <inkscape:path-effect
       effect="fillet_chamfer"
       id="path-effect5-3-3"
       is_visible="true"
       lpeversion="1"
       nodesatellites_param="F,0,0,1,0,2.1123573,0,1 @ F,0,1,1,0,0.58353444,0,1 @ F,0,0,1,0,2.1123573,0,1 @ F,0,0,1,0,2.1123573,0,1 @ F,0,0,1,0,0.58353444,0,1 @ F,0,0,1,0,2.1123573,0,1 @ F,0,0,1,0,2.1123573,0,1 @ F,0,1,1,0,0.58353444,0,1 @ F,0,0,1,0,2.1123573,0,1 @ F,0,0,1,0,2.1123573,0,1 @ F,0,1,1,0,0.58353444,0,1 @ F,0,0,1,0,2.1123573,0,1"
       radius="0"
       unit="px"
       method="auto"
       mode="F"
       chamfer_steps="1"
       flexible="false"
       use_knot_distance="true"
       apply_no_radius="true"
       apply_with_radius="true"
       only_selected="false"
       hide_knots="false" />
    <filter
       inkscape:collect="always"
       style="color-interpolation-filters:sRGB"
       id="filter10"
       x="-0.11912582"
       y="-0.11912582"
       width="1.2382516"
       height="1.2382516">
      <feGaussianBlur
         inkscape:collect="always"
         stdDeviation="0.65343611"
         id="feGaussianBlur10" />
    </filter>
    <filter
       inkscape:collect="always"
       style="color-interpolation-filters:sRGB"
       id="filter11"
       x="-0.091869773"
       y="-0.091869773"
       width="1.1837395"
       height="1.1837395">
      <feGaussianBlur
         inkscape:collect="always"
         stdDeviation="0.66583557"
         id="feGaussianBlur11" />
    </filter>
  </defs>
  <sodipodi:namedview
     id="namedview8"
     pagecolor="#505050"
     bordercolor="#eeeeee"
     borderopacity="1"
     inkscape:showpageshadow="0"
     inkscape:pageopacity="0"
     inkscape:pagecheckerboard="0"
     inkscape:deskcolor="#505050"
     inkscape:zoom="5.6568543"
     inkscape:cx="25.544232"
     inkscape:cy="30.847533"
     inkscape:window-width="1920"
     inkscape:window-height="1020"
     inkscape:window-x="0"
     inkscape:window-y="0"
     inkscape:window-maximized="1"
     inkscape:current-layer="svg8" />
  <path
     style="fill:url(#radialGradient10);stroke-width:0.939013"
     d="M 32.19784,3.8685208 A 5.4678079,5.4179976 0 0 0 29.336071,4.5922592 L 9.4510436,15.968917 a 5.4678079,5.4179976 0 0 0 -2.7336305,4.691602 v 22.753313 a 5.4678079,5.4179976 0 0 0 2.7336305,4.691601 L 29.336071,59.482092 a 5.4678079,5.4179976 0 0 0 5.46726,0 L 54.690492,48.105433 a 5.4678079,5.4179976 0 0 0 2.733633,-4.691601 V 20.660519 A 5.4678079,5.4179976 0 0 0 54.690492,15.968917 L 34.803331,4.5922592 A 5.4678079,5.4179976 0 0 0 32.19784,3.8685208 Z"
     id="path2" />
  <path
     style="opacity:0.3;fill:#ffffff"
     d="M 32.128861,0.97043303 C 31.060976,0.94529347 30.00775,1.2324824 29.082433,1.7612967 L 7.8946962,13.87824 c -0.00131,7.52e-4 -0.00262,0.0015 -0.00392,0.0023 -1.7835019,1.027394 -0.9079654,3.561052 0.9778943,4.475433 l 19.698237,9.550918 a 7.8733223,7.8733223 0.01244173 0 0 6.866917,0.0015 L 55.886047,18.00281 c 1.497715,-0.725381 2.211279,-2.675124 0.918524,-3.694368 -0.213065,-0.167986 -0.43853,-0.320895 -0.675127,-0.456608 L 34.938275,1.7352762 C 34.093676,1.2526096 33.10359,0.99306283 32.128861,0.97043303 Z"
     id="path3"
     sodipodi:nodetypes="ccccccccc"
     inkscape:path-effect="#path-effect1"
     inkscape:original-d="M 32.128861,0.97043303 C 31.060976,0.94529347 30.00775,1.2324824 29.082433,1.7612967 L 7.8946962,13.87824 C 6.7818587,14.518075 5.9409464,15.520242 5.4540149,16.700299 L 32,29.571427 58.597899,16.689392 C 58.109727,15.509955 57.242847,14.490488 56.129444,13.851834 L 34.938275,1.7352762 C 34.093676,1.2526096 33.10359,0.99306283 32.128861,0.97043303 Z"
     transform="matrix(0.93901321,0,0,0.93901321,1.9900678,2.9603145)" />
  <path
     style="opacity:0.15;fill:#ffffff"
     d="M 56.764963,17.569723 35.464728,27.892335 A 6.1443355,6.1443355 122.07202 0 0 32,33.421582 V 60.99442 c 1.020682,0.0013 2.023769,-0.263346 2.908717,-0.767299 l 21.17979,-12.114955 c 1.801739,-1.030745 2.911611,-2.935701 2.911492,-4.997211 V 18.885043 c -1.58e-4,-0.08472 -0.0023,-0.169211 -0.0063,-0.253443 -0.0519,-1.091455 -1.240485,-1.540829 -2.22878,-1.061877 z"
     id="path4"
     inkscape:original-d="M 58.55443,16.702504 32,29.571427 V 60.99442 c 1.020682,0.0013 2.023769,-0.263346 2.908717,-0.767299 l 21.17979,-12.114955 c 1.801739,-1.030745 2.911611,-2.935701 2.911492,-4.997211 V 18.885043 c -0.0014,-0.752548 -0.155542,-1.487024 -0.445569,-2.182539 z"
     inkscape:path-effect="#path-effect8"
     sodipodi:nodetypes="cccccccc"
     transform="matrix(0.93901321,0,0,0.93901321,1.9900678,2.9603145)" />
  <rect
     style="fill:url(#radialGradient2);stroke-width:0.660098"
     width="18.482742"
     height="18.482742"
     x="38.760342"
     y="39.730591"
     rx="7.4568"
     ry="7.4568"
     id="rect5" />
  <path
     d="m 46.890625,44.08306 v 2.224031 a 0.58353444,0.58353444 135 0 1 -0.583534,0.583534 H 44.08306 a 2.1123573,2.1123573 135 0 0 -2.112357,2.112357 2.1093771,2.1093771 44.918993 0 0 2.112357,2.106393 h 2.224031 a 0.58353444,0.58353444 45 0 1 0.583534,0.583534 v 2.224031 a 2.1123573,2.1123573 45 0 0 2.112357,2.112357 2.1093771,2.1093771 134.91899 0 0 2.106393,-2.112357 v -2.224031 a 0.58353444,0.58353444 135 0 1 0.583534,-0.583534 H 53.91694 A 2.1123573,2.1123573 135 0 0 56.029297,48.997018 2.1093771,2.1093771 44.918993 0 0 53.91694,46.890625 H 51.692909 A 0.58353444,0.58353444 45 0 1 51.109375,46.307091 V 44.08306 a 2.1123573,2.1123573 45 0 0 -2.112357,-2.112357 2.1093771,2.1093771 134.91899 0 0 -2.106393,2.112357 z"
     style="fill:#ffffff;stroke-width:0.70297"
     id="path5"
     inkscape:path-effect="#path-effect5"
     inkscape:original-d="m 46.890625,41.970703 c 0,1.639974 0,3.279948 0,4.919922 -1.639974,0 -3.279948,0 -4.919922,0 0,1.40625 0,2.8125 0,4.21875 1.639974,0 3.279948,0 4.919922,0 0,1.639974 0,3.279948 0,4.919922 1.40625,0 2.8125,0 4.21875,0 0,-1.639974 0,-3.279948 0,-4.919922 1.639974,0 3.279948,0 4.919922,0 0,-1.40625 0,-2.8125 0,-4.21875 -1.639974,0 -3.279948,0 -4.919922,0 0,-1.639974 0,-3.279948 0,-4.919922 -1.40625,0 -2.8125,0 -4.21875,0 z"
     transform="matrix(0.93901321,0,0,0.93901321,1.9900678,2.9603145)" />
  <path
     id="path8"
     style="color:#000000;mix-blend-mode:normal;fill:#000000;-inkscape-stroke:none;filter:url(#filter9);opacity:0.74899739"
     d="m 32.097656,0.71289062 c -0.03159,-7.2794e-4 -0.06224,0.004121 -0.09375,0.003906 -0.535468,-0.007648 -1.065583,0.0586454 -1.578125,0.19335937 -0.513922,0.13416621 -1.01253,0.33301781 -1.478515,0.59960931 l -0.002,0.00195 -0.03711,0.021484 -0.0039,0.00195 -21.1816408,12.1132817 -0.00391,0.002 -0.00391,0.002 c -0.1207025,0.06953 -0.2328987,0.147833 -0.3320313,0.230468 -0.016739,0.01399 -0.028787,0.03059 -0.044922,0.04492 -1.59541,1.109881 -2.5781169,2.911539 -2.578125,4.867188 v 24.230469 c -7.198e-4,2.133319 1.1468307,4.105469 3.0097656,5.171875 L 28.947266,60.3125 c 0.862201,0.493182 1.816131,0.74676 2.777343,0.783203 v 0.04297 h 0.199219 c 1.055454,0.0013 2.094457,-0.271726 3.009766,-0.792969 L 56.113281,48.230469 c 0.472826,-0.270496 0.897975,-0.599693 1.271485,-0.97461 6.51e-4,-6.53e-4 0.0013,-0.0013 0.002,-0.002 6.52e-4,-6.44e-4 0.0013,-0.0013 0.002,-0.002 0.251002,-0.252415 0.469206,-0.531824 0.669922,-0.822265 0.06351,-0.0896 0.12513,-0.180645 0.183594,-0.273438 0.03729,-0.06088 0.07431,-0.121432 0.109374,-0.183594 0.513943,-0.883603 0.806791,-1.891377 0.806641,-2.947265 V 18.794922 c -1.2e-5,-0.06122 -0.03715,-0.112913 -0.03906,-0.173828 -6.65e-4,-0.01823 -0.0011,-0.03645 -0.002,-0.05469 -0.0048,-0.100629 -0.02322,-0.194915 -0.04492,-0.287109 -0.135271,-1.536797 -0.828439,-2.957267 -1.984375,-3.962891 -0.03322,-0.03579 -0.07464,-0.06743 -0.111329,-0.101562 -0.0011,-9.23e-4 -0.0013,-0.0026 -0.002,-0.0039 l -0.002,-0.002 c -0.0033,-0.0027 -0.0045,-0.0071 -0.0078,-0.0098 l -0.03125,-0.02539 c -0.02828,-0.02485 -0.0518,-0.05234 -0.08203,-0.07617 -0.0084,-0.0066 -0.01895,-0.01298 -0.02734,-0.01953 -0.212255,-0.165626 -0.434006,-0.319756 -0.669922,-0.455078 L 34.962891,1.5058594 C 34.518946,1.2521565 34.037061,1.059612 33.539062,0.92773438 33.07121,0.79939838 32.587587,0.72424488 32.097656,0.71289062 Z m -0.04883,0.40234378 c 0.538223,0.012496 1.078854,0.1083203 1.597656,0.2675781 0.320559,0.1248415 0.655235,0.2614247 1.027344,0.4296875 9.97e-4,5.331e-4 -0.03235,-0.018166 -0.03125,-0.017578 0.03938,0.021165 0.08237,0.036462 0.121094,0.058594 C 34.73506,1.840469 34.70216,1.825312 34.67383,1.8125 34.6551,1.802478 35.248088,2.1298854 35.263674,2.1386719 L 55.955078,13.970703 c 0.153234,0.0879 0.293973,0.194468 0.4375,0.296875 l 0.002,0.002 c 0.07377,0.05209 0.139107,0.08952 0.185547,0.125 h 0.002 c 0.0074,0.0058 0.01605,0.0098 0.02344,0.01563 L 56.703125,14.5 c 0.373332,0.343237 0.521295,0.7721 0.494141,1.222656 -8.4e-5,0.0013 8.6e-5,0.0026 0,0.0039 -0.0089,0.141891 -0.03825,0.285375 -0.08008,0.429688 -0.0175,0.05991 -0.04722,0.118324 -0.07031,0.177734 -0.03652,0.09451 -0.06921,0.189432 -0.119141,0.28125 -0.04464,0.08179 -0.103697,0.158038 -0.158203,0.236328 -0.04201,0.06049 -0.07744,0.123902 -0.125,0.181641 -0.112455,0.136234 -0.238682,0.265452 -0.378906,0.380859 -0.0047,0.0039 -0.009,0.0079 -0.01367,0.01172 -0.0061,0.005 -0.01334,0.0087 -0.01953,0.01367 -0.134232,0.107245 -0.278429,0.203679 -0.433594,0.285156 l -20.5,9.933594 -0.002,0.002 -0.0078,0.0039 -0.01953,0.0098 c -2.113267,1.022978 -4.57677,1.02232 -6.689453,-0.002 L 8.8808594,18.121094 C 8.6894593,18.028291 8.5114815,17.914142 8.34375,17.789062 8.322022,17.772852 8.298635,17.758872 8.277344,17.742192 8.118433,17.617759 7.9742125,17.478337 7.8417971,17.332035 7.8245401,17.312965 7.8058351,17.294765 7.7890631,17.275395 7.661454,17.127961 7.5485082,16.9715 7.4511725,16.810551 c -0.014118,-0.02332 -0.027576,-0.04679 -0.041016,-0.07031 -0.092252,-0.161681 -0.1665881,-0.327038 -0.2246093,-0.49414 -0.00864,-0.02478 -0.017547,-0.04942 -0.025391,-0.07422 -0.053137,-0.168525 -0.089303,-0.335672 -0.1054687,-0.5 -0.002,-0.01968 -0.00245,-0.03902 -0.00391,-0.05859 -0.0382,-0.543022 0.1340148,-1.047674 0.5859376,-1.421875 v -0.002 C 7.71977,14.121689 7.8118281,14.058893 7.9140625,14 L 29.107422,1.8808594 c 0.0013,-7.556e-4 0.0026,-0.0012 0.0039,-0.00195 0.203135,-0.1158959 0.414848,-0.2154998 0.628906,-0.3066406 0.04608,-0.019579 0.09139,-0.038728 0.136719,-0.056641 0.208876,-0.082778 0.420145,-0.1572478 0.636719,-0.2148438 0.01673,-0.00441 0.03226,-0.00556 0.04883,-0.00977 0.175262,-0.044573 0.352969,-0.074081 0.53125,-0.1015625 0.401753,-0.059633 0.742958,-0.074219 0.955078,-0.074219 z M 6.6640625,15.265625 c -0.029212,0.293227 -0.008,0.594752 0.070312,0.890625 0.012308,0.0465 0.030305,0.0924 0.044922,0.138672 0.00399,0.013 0.00352,0.02609 0.00781,0.03906 0.00529,0.01601 0.01592,0.0309 0.021484,0.04687 0.065738,0.188968 0.1500276,0.374564 0.2519531,0.554688 0.016185,0.0286 0.033734,0.0557 0.050781,0.08398 0.1096471,0.18205 0.2336776,0.358362 0.3769531,0.523438 0.015146,0.01744 0.031376,0.03357 0.046875,0.05078 0.1537504,0.170852 0.3215893,0.330841 0.5078126,0.474609 0.00998,0.0077 0.021181,0.01387 0.03125,0.02148 0.1954758,0.147877 0.4050965,0.281161 0.6308593,0.390625 L 28.404297,28.03125 c 0.249436,0.120931 0.502773,0.226423 0.759765,0.316406 1.524553,0.555438 3.174549,0.633849 4.736329,0.240235 -1.36146,1.187364 -2.175779,2.919506 -2.175782,4.779297 V 60.65625 C 30.834517,60.61866 29.944485,60.421302 29.146484,59.964844 L 7.96875,47.849609 C 6.2287244,46.853561 5.1575317,45.015128 5.1582031,43.025391 V 18.794922 c 5.6e-6,-1.357224 0.6294136,-2.538358 1.5058594,-3.529297 z m 50.9355465,0.380859 c 0.384767,0.532161 0.659407,1.102734 0.833985,1.740235 -0.21391,-0.133777 -0.458244,-0.216192 -0.71875,-0.244141 -0.0064,-9.7e-4 -0.01314,-0.0011 -0.01953,-0.002 -0.08291,-0.01155 -0.167385,-0.01649 -0.253906,-0.01367 -0.133865,0.0044 -0.269083,0.02469 -0.404297,0.05664 0.207023,-0.274478 0.364204,-0.577304 0.458985,-0.890625 0.0071,-0.02356 0.01703,-0.04664 0.02344,-0.07031 0.05129,-0.189431 0.07914,-0.38324 0.08008,-0.576172 z m -0.146484,1.878907 c 0.167307,-0.0054 0.328447,0.01526 0.476563,0.06055 0.148115,0.04528 0.283206,0.11515 0.396484,0.205078 0.0548,0.0435 0.104562,0.09261 0.148437,0.146484 0.131627,0.161611 0.212024,0.369318 0.230469,0.623047 9.28e-4,0.02051 0.01297,0.03805 0.01367,0.05859 0.0028,0.06992 0.0057,0.139772 0.0059,0.210937 v 24.230469 c 1.3e-5,0.221079 -0.0171,0.43989 -0.04297,0.65625 -0.0088,0.07337 -0.02148,0.146068 -0.0332,0.21875 -0.02349,0.14627 -0.05295,0.29056 -0.08789,0.433594 -0.01842,0.07513 -0.03513,0.150496 -0.05664,0.224609 -0.0533,0.184247 -0.11567,0.365961 -0.1875,0.542969 -0.0065,0.01601 -0.01091,0.03289 -0.01758,0.04883 -0.01888,0.04517 -0.04244,0.08818 -0.0625,0.132812 -0.06607,0.147384 -0.138166,0.290657 -0.216797,0.431641 -0.04093,0.0733 -0.08468,0.145393 -0.128906,0.216797 -0.07447,0.120312 -0.154701,0.23707 -0.238281,0.351562 -0.04582,0.06276 -0.0902,0.12661 -0.138672,0.1875 -0.128517,0.161378 -0.263594,0.317795 -0.410156,0.464844 -6.52e-4,6.54e-4 -0.0013,0.0013 -0.002,0.002 -0.348607,0.349418 -0.746211,0.657703 -1.1875,0.910156 L 34.734375,59.998047 c -0.793997,0.452158 -1.697824,0.656858 -2.611328,0.689453 V 33.367188 c 0,-0.269583 0.0211,-0.536357 0.05664,-0.798829 0.002,-0.0148 0.0018,-0.03015 0.0039,-0.04492 0.0014,-0.0099 0.0044,-0.01938 0.0059,-0.0293 0.03734,-0.251742 0.08979,-0.497982 0.158203,-0.740235 0.0042,-0.0148 0.0074,-0.03016 0.01172,-0.04492 7.49e-4,-0.0026 0.0012,-0.0052 0.002,-0.0078 0.0754,-0.257889 0.168567,-0.510121 0.277344,-0.753906 0.105937,-0.237422 0.2295,-0.46642 0.365234,-0.6875 0.0097,-0.01588 0.01745,-0.03304 0.02734,-0.04883 0.135835,-0.216639 0.286338,-0.423359 0.449219,-0.621094 0.0095,-0.0115 0.01778,-0.02372 0.02734,-0.03516 0.0021,-0.0025 0.0038,-0.0053 0.0059,-0.0078 0.157851,-0.188099 0.330732,-0.365162 0.511719,-0.533203 0.02064,-0.01916 0.03962,-0.03971 0.06055,-0.05859 6.85e-4,-6.19e-4 0.0013,-0.0013 0.002,-0.002 0.193216,-0.174179 0.39836,-0.33553 0.615234,-0.484375 0.0073,-0.005 0.01414,-0.01063 0.02148,-0.01563 0.22187,-0.150813 0.456676,-0.286833 0.701172,-0.408203 0.0069,-0.0034 0.01265,-0.0083 0.01953,-0.01172 l 0.01953,-0.0098 c 0.0048,-0.0023 0.0085,-0.0042 0.01172,-0.0059 l 0.0039,-0.002 2,-0.96875 18.5,-8.964844 0.002,-0.002 0.0059,-0.002 0.789063,-0.382813 c 0.221815,-0.107496 0.452702,-0.162667 0.675781,-0.169921 z"
     transform="matrix(0.93901321,0,0,0.93901321,1.9900678,2.9603145)" />
  <rect
     style="fill:url(#radialGradient2-6);stroke-width:0.660098"
     width="18.482742"
     height="18.482742"
     x="38.689388"
     y="39.679295"
     rx="7.4568"
     ry="7.4568"
     id="rect5-0" />
  <path
     d="m 46.890625,44.08306 v 2.224031 a 0.58353444,0.58353444 135 0 1 -0.583534,0.583534 H 44.08306 a 2.1123573,2.1123573 135 0 0 -2.112357,2.112357 2.1093771,2.1093771 44.918993 0 0 2.112357,2.106393 h 2.224031 a 0.58353444,0.58353444 45 0 1 0.583534,0.583534 v 2.224031 a 2.1123573,2.1123573 45 0 0 2.112357,2.112357 2.1093771,2.1093771 134.91899 0 0 2.106393,-2.112357 v -2.224031 a 0.58353444,0.58353444 135 0 1 0.583534,-0.583534 H 53.91694 A 2.1123573,2.1123573 135 0 0 56.029297,48.997018 2.1093771,2.1093771 44.918993 0 0 53.91694,46.890625 H 51.692909 A 0.58353444,0.58353444 45 0 1 51.109375,46.307091 V 44.08306 a 2.1123573,2.1123573 45 0 0 -2.112357,-2.112357 2.1093771,2.1093771 134.91899 0 0 -2.106393,2.112357 z"
     style="fill:#ffffff;stroke-width:0.70297"
     id="path5-9"
     inkscape:path-effect="#path-effect5-3"
     inkscape:original-d="m 46.890625,41.970703 c 0,1.639974 0,3.279948 0,4.919922 -1.639974,0 -3.279948,0 -4.919922,0 0,1.40625 0,2.8125 0,4.21875 1.639974,0 3.279948,0 4.919922,0 0,1.639974 0,3.279948 0,4.919922 1.40625,0 2.8125,0 4.21875,0 0,-1.639974 0,-3.279948 0,-4.919922 1.639974,0 3.279948,0 4.919922,0 0,-1.40625 0,-2.8125 0,-4.21875 -1.639974,0 -3.279948,0 -4.919922,0 0,-1.639974 0,-3.279948 0,-4.919922 -1.40625,0 -2.8125,0 -4.21875,0 z"
     transform="matrix(0.93901321,0,0,0.93901321,1.9191143,2.9090209)" />
  <rect
     style="fill:none;stroke-width:0.2;stroke:#000000;stroke-opacity:1;stroke-dasharray:none;filter:url(#filter11)"
     width="18.482742"
     height="18.482742"
     x="38.77821"
     y="39.640221"
     rx="7.4568"
     ry="7.4568"
     id="rect5-0-2" />
  <path
     d="m 46.890625,44.08306 v 2.224031 a 0.58353444,0.58353444 135 0 1 -0.583534,0.583534 H 44.08306 a 2.1123573,2.1123573 135 0 0 -2.112357,2.112357 2.1093771,2.1093771 44.918993 0 0 2.112357,2.106393 h 2.224031 a 0.58353444,0.58353444 45 0 1 0.583534,0.583534 v 2.224031 a 2.1123573,2.1123573 45 0 0 2.112357,2.112357 2.1093771,2.1093771 134.91899 0 0 2.106393,-2.112357 v -2.224031 a 0.58353444,0.58353444 135 0 1 0.583534,-0.583534 H 53.91694 A 2.1123573,2.1123573 135 0 0 56.029297,48.997018 2.1093771,2.1093771 44.918993 0 0 53.91694,46.890625 H 51.692909 A 0.58353444,0.58353444 45 0 1 51.109375,46.307091 V 44.08306 a 2.1123573,2.1123573 45 0 0 -2.112357,-2.112357 2.1093771,2.1093771 134.91899 0 0 -2.106393,2.112357 z"
     style="fill:none;stroke-width:0.21298955;stroke:#0064ff;stroke-opacity:1;stroke-dasharray:none;filter:url(#filter10)"
     id="path5-9-6"
     inkscape:path-effect="#path-effect5-3-3"
     inkscape:original-d="m 46.890625,41.970703 c 0,1.639974 0,3.279948 0,4.919922 -1.639974,0 -3.279948,0 -4.919922,0 0,1.40625 0,2.8125 0,4.21875 1.639974,0 3.279948,0 4.919922,0 0,1.639974 0,3.279948 0,4.919922 1.40625,0 2.8125,0 4.21875,0 0,-1.639974 0,-3.279948 0,-4.919922 1.639974,0 3.279948,0 4.919922,0 0,-1.40625 0,-2.8125 0,-4.21875 -1.639974,0 -3.279948,0 -4.919922,0 0,-1.639974 0,-3.279948 0,-4.919922 -1.40625,0 -2.8125,0 -4.21875,0 z"
     transform="matrix(0.93901321,0,0,0.93901321,2.0079357,2.8699466)" />
</svg>
