<?xml version="1.0" encoding="UTF-8" standalone="no"?>
<svg
   width="64"
   height="64"
   version="1.1"
   id="svg6"
   sodipodi:docname="AdobeFlashBuilder.svg"
   inkscape:version="1.3.2 (091e20ef0f, 2023-11-25, custom)"
   xmlns:inkscape="http://www.inkscape.org/namespaces/inkscape"
   xmlns:sodipodi="http://sodipodi.sourceforge.net/DTD/sodipodi-0.dtd"
   xmlns="http://www.w3.org/2000/svg"
   xmlns:svg="http://www.w3.org/2000/svg">
  <defs
     id="defs6">
    <rect
       x="51.550888"
       y="22.651217"
       width="49.367706"
       height="17.69709"
       id="rect7" />
    <rect
       x="10.084149"
       y="16.356342"
       width="47.7108"
       height="32.505421"
       id="rect6" />
    <filter
       inkscape:collect="always"
       style="color-interpolation-filters:sRGB"
       id="filter6"
       x="-0.069486645"
       y="-0.069486645"
       width="1.1389733"
       height="1.1389733">
      <feGaussianBlur
         inkscape:collect="always"
         stdDeviation="1.5588551"
         id="feGaussianBlur6" />
    </filter>
  </defs>
  <sodipodi:namedview
     id="namedview6"
     pagecolor="#ffffff"
     bordercolor="#000000"
     borderopacity="0.25"
     inkscape:showpageshadow="2"
     inkscape:pageopacity="0.0"
     inkscape:pagecheckerboard="0"
     inkscape:deskcolor="#d1d1d1"
     inkscape:zoom="12.6875"
     inkscape:cx="31.960591"
     inkscape:cy="32"
     inkscape:window-width="1920"
     inkscape:window-height="1012"
     inkscape:window-x="0"
     inkscape:window-y="0"
     inkscape:window-maximized="1"
     inkscape:current-layer="svg6" />
  <rect
     x="4"
     y="4"
     width="56"
     height="56"
     rx="16.964949"
     ry="16.964949"
     style="fill:#c55700;fill-opacity:1"
     id="rect1-3" />
  <rect
     x="3.9999983"
     y="3.9999983"
     width="56"
     height="56"
     rx="16.964949"
     ry="16.964949"
     style="fill:none;stroke:#000000;stroke-width:0.3;stroke-dasharray:none;stroke-opacity:1;filter:url(#filter6)"
     id="rect1-1" />
  <g
     id="text6"
     style="font-stretch:condensed;font-family:'Myriad Pro';-inkscape-font-specification:'Myriad Pro Condensed';white-space:pre;fill:none;stroke:#00cdff;stroke-width:0.200021"
     transform="matrix(3.2237257,0,0,3.2237257,-21.021504,-41.537918)"
     aria-label="Fb">
    <path
       style="font-weight:bold;font-stretch:normal;-inkscape-font-specification:'Myriad Pro Bold';fill:#ffcca3;stroke:none"
       d="m 10.887984,26.855469 h 1.824 v -3.252 h 2.904 v -1.488 h -2.904 v -1.848 h 3.108 v -1.5 h -4.932 z"
       id="path1" />
    <path
       style="font-weight:bold;font-stretch:normal;font-size:9.9264px;-inkscape-font-specification:'Myriad Pro Bold';fill:#ffcca3;stroke:none"
       d="m 17.0135,25.406214 c 0,0.545952 -0.01985,1.13161 -0.03971,1.449255 H 18.2543 l 0.05956,-0.674995 h 0.01985 c 0.337498,0.575731 0.893376,0.784185 1.459181,0.784185 1.111757,0 2.213587,-0.873523 2.213587,-2.620569 0.0099,-1.488961 -0.833817,-2.451821 -1.995206,-2.451821 -0.674995,0 -1.181242,0.268012 -1.469107,0.684921 h -0.01985 V 19.807725 H 17.0135 Z m 1.508813,-1.330137 c 0,-0.09926 0.0099,-0.188602 0.02978,-0.27794 0.09926,-0.436761 0.476467,-0.74448 0.88345,-0.74448 0.704774,0 1.042272,0.595584 1.042272,1.349991 0,0.873523 -0.397056,1.369843 -1.042272,1.369843 -0.436762,0 -0.784186,-0.317645 -0.88345,-0.714701 -0.01985,-0.07941 -0.02978,-0.168748 -0.02978,-0.268012 z"
       id="path2" />
  </g>
</svg>
