<?xml version="1.0" encoding="UTF-8" standalone="no"?>
<svg
   width="64"
   height="64"
   version="1.1"
   id="svg6"
   sodipodi:docname="AdobeCharacterAnimator.svg"
   inkscape:version="1.3.2 (091e20ef0f, 2023-11-25, custom)"
   xmlns:inkscape="http://www.inkscape.org/namespaces/inkscape"
   xmlns:sodipodi="http://sodipodi.sourceforge.net/DTD/sodipodi-0.dtd"
   xmlns="http://www.w3.org/2000/svg"
   xmlns:svg="http://www.w3.org/2000/svg">
  <defs
     id="defs6">
    <rect
       x="10.084149"
       y="16.356342"
       width="47.7108"
       height="32.505421"
       id="rect6" />
    <filter
       inkscape:collect="always"
       style="color-interpolation-filters:sRGB"
       id="filter6"
       x="-0.069486645"
       y="-0.069486645"
       width="1.1389733"
       height="1.1389733">
      <feGaussianBlur
         inkscape:collect="always"
         stdDeviation="1.5588551"
         id="feGaussianBlur6" />
    </filter>
  </defs>
  <sodipodi:namedview
     id="namedview6"
     pagecolor="#ffffff"
     bordercolor="#000000"
     borderopacity="0.25"
     inkscape:showpageshadow="2"
     inkscape:pageopacity="0.0"
     inkscape:pagecheckerboard="0"
     inkscape:deskcolor="#d1d1d1"
     inkscape:zoom="13.125"
     inkscape:cx="32.038095"
     inkscape:cy="32"
     inkscape:window-width="1920"
     inkscape:window-height="1012"
     inkscape:window-x="0"
     inkscape:window-y="0"
     inkscape:window-maximized="1"
     inkscape:current-layer="svg6" />
  <rect
     x="4"
     y="4"
     width="56"
     height="56"
     rx="16.964949"
     ry="16.964949"
     style="fill:#502e8e"
     id="rect1" />
  <rect
     x="4"
     y="4"
     width="56"
     height="56"
     rx="16.964949"
     ry="16.964949"
     style="fill:none;stroke:#000000;stroke-width:0.3;stroke-dasharray:none;stroke-opacity:1;filter:url(#filter6)"
     id="rect1-1" />
  <path
     style="font-weight:bold;font-family:'Myriad Pro';-inkscape-font-specification:'Myriad Pro Bold';white-space:pre;fill:#c3a3ff;stroke-width:0.200021"
     d="m 16.539984,25.199469 c -0.372,0.156 -0.972,0.264 -1.536,0.264 -1.62,0 -2.58,-1.02 -2.58,-2.64 0,-1.8 1.128,-2.676 2.568,-2.676 0.66,0 1.176,0.144 1.536,0.3 l 0.384,-1.44 c -0.324,-0.18 -1.044,-0.36 -1.992,-0.36 -2.448,0 -4.416,1.524 -4.416,4.284 0,2.304 1.44,4.056 4.236,4.056 0.972,0 1.74,-0.192 2.064,-0.348 z m 1.379989,1.656 h 1.824 v -3.48 c 0,-0.132 0.012,-0.288 0.06,-0.396 0.132,-0.336 0.432,-0.648 0.912,-0.648 0.684,0 0.948,0.528 0.948,1.296 v 3.228 h 1.824 v -3.42 c 0,-1.776 -0.888,-2.58 -2.052,-2.58 -0.336,0 -0.672,0.084 -0.948,0.228 -0.288,0.144 -0.528,0.348 -0.72,0.612 h -0.024 v -3.36 h -1.824 z"
     id="text6"
     transform="matrix(3.2237257,0,0,3.2237257,-22.790373,-41.433245)"
     aria-label="Ch" />
</svg>
