<?xml version="1.0" encoding="UTF-8" standalone="no"?>
<svg
   width="64"
   height="64"
   version="1.1"
   id="svg4"
   sodipodi:docname="AdobeLightroomClassic.svg"
   inkscape:version="1.3.2 (091e20ef0f, 2023-11-25, custom)"
   xmlns:inkscape="http://www.inkscape.org/namespaces/inkscape"
   xmlns:sodipodi="http://sodipodi.sourceforge.net/DTD/sodipodi-0.dtd"
   xmlns="http://www.w3.org/2000/svg"
   xmlns:svg="http://www.w3.org/2000/svg">
  <defs
     id="defs4">
    <rect
       x="10.084149"
       y="16.356342"
       width="47.7108"
       height="32.505421"
       id="rect6" />
    <filter
       inkscape:collect="always"
       style="color-interpolation-filters:sRGB"
       id="filter6"
       x="-0.069486645"
       y="-0.069486645"
       width="1.1389733"
       height="1.1389733">
      <feGaussianBlur
         inkscape:collect="always"
         stdDeviation="1.5588551"
         id="feGaussianBlur6" />
    </filter>
  </defs>
  <sodipodi:namedview
     id="namedview4"
     pagecolor="#ffffff"
     bordercolor="#000000"
     borderopacity="0.25"
     inkscape:showpageshadow="2"
     inkscape:pageopacity="0.0"
     inkscape:pagecheckerboard="0"
     inkscape:deskcolor="#d1d1d1"
     inkscape:zoom="12.6875"
     inkscape:cx="31.960591"
     inkscape:cy="32"
     inkscape:window-width="1920"
     inkscape:window-height="1012"
     inkscape:window-x="0"
     inkscape:window-y="0"
     inkscape:window-maximized="1"
     inkscape:current-layer="svg4" />
  <rect
     x="3.9999983"
     y="3.9999983"
     width="56"
     height="56"
     rx="16.964949"
     ry="16.964949"
     style="fill:#618498;fill-opacity:1"
     id="rect1" />
  <rect
     x="3.9999983"
     y="3.9999983"
     width="56"
     height="56"
     rx="16.964949"
     ry="16.964949"
     style="fill:none;stroke:#000000;stroke-width:0.3;stroke-dasharray:none;stroke-opacity:1;filter:url(#filter6)"
     id="rect1-1" />
  <path
     d="m 10.887984,26.855469 h 5.04 v -1.536 h -3.216 v -6.552 h -1.824 z m 6.059997,0 h 1.824 v -2.976 c 0,-0.144 0.012,-0.288 0.036,-0.408 0.12,-0.564 0.576,-0.924 1.248,-0.924 0.204,0 0.348,0.024 0.492,0.048 v -1.716 c -0.132,-0.024 -0.216,-0.036 -0.384,-0.036 -0.576,0 -1.284,0.36 -1.584,1.224 h -0.048 l -0.072,-1.08 h -1.56 c 0.036,0.504 0.048,1.068 0.048,1.932 z"
     id="text6"
     style="font-weight:bold;font-family:'Myriad Pro';-inkscape-font-specification:'Myriad Pro Bold';white-space:pre;fill:#d2f0ff;stroke-width:0.200021"
     transform="matrix(3.2237257,0,0,3.2237257,-18.670464,-41.537918)"
     aria-label="Lr" />
</svg>
