<?xml version="1.0" encoding="UTF-8" standalone="no"?>
<svg
   width="64"
   height="64"
   version="1.1"
   id="svg6"
   sodipodi:docname="AdobeMuse.svg"
   inkscape:version="1.3.2 (091e20ef0f, 2023-11-25, custom)"
   xmlns:inkscape="http://www.inkscape.org/namespaces/inkscape"
   xmlns:sodipodi="http://sodipodi.sourceforge.net/DTD/sodipodi-0.dtd"
   xmlns="http://www.w3.org/2000/svg"
   xmlns:svg="http://www.w3.org/2000/svg">
  <defs
     id="defs6">
    <rect
       x="10.084149"
       y="16.356342"
       width="47.7108"
       height="32.505421"
       id="rect6" />
    <filter
       inkscape:collect="always"
       style="color-interpolation-filters:sRGB"
       id="filter6"
       x="-0.069486645"
       y="-0.069486645"
       width="1.1389733"
       height="1.1389733">
      <feGaussianBlur
         inkscape:collect="always"
         stdDeviation="1.5588551"
         id="feGaussianBlur6" />
    </filter>
  </defs>
  <sodipodi:namedview
     id="namedview6"
     pagecolor="#ffffff"
     bordercolor="#000000"
     borderopacity="0.25"
     inkscape:showpageshadow="2"
     inkscape:pageopacity="0.0"
     inkscape:pagecheckerboard="0"
     inkscape:deskcolor="#d1d1d1"
     inkscape:zoom="12.6875"
     inkscape:cx="31.960591"
     inkscape:cy="32"
     inkscape:window-width="1920"
     inkscape:window-height="1012"
     inkscape:window-x="0"
     inkscape:window-y="0"
     inkscape:window-maximized="1"
     inkscape:current-layer="svg6" />
  <rect
     x="3.9999983"
     y="3.9999983"
     width="56"
     height="56"
     rx="16.964949"
     ry="16.964949"
     style="fill:#2b9c82;fill-opacity:1"
     id="rect1" />
  <rect
     x="3.9999983"
     y="3.9999983"
     width="56"
     height="56"
     rx="16.964949"
     ry="16.964949"
     style="fill:none;stroke:#000000;stroke-width:0.3;stroke-dasharray:none;stroke-opacity:1;filter:url(#filter6)"
     id="rect1-1" />
  <g
     id="text6"
     style="font-weight:bold;font-family:'Myriad Pro';-inkscape-font-specification:'Myriad Pro Bold';white-space:pre;fill:#a3f8ff;stroke-width:0.200021"
     transform="matrix(3.2237257,0,0,3.2237257,-25.572769,-41.669918)"
     aria-label="Mu">
    <path
       d="m 17.847984,26.855469 h 1.776 l -0.432,-8.088 h -2.4 l -0.852,2.688 c -0.276,0.9 -0.552,1.968 -0.768,2.904 h -0.048 c -0.18,-0.948 -0.42,-1.956 -0.684,-2.892 l -0.792,-2.7 h -2.436 l -0.516,8.088 h 1.692 l 0.156,-3.072 c 0.048,-1.008 0.096,-2.256 0.132,-3.348 h 0.024 c 0.204,1.056 0.468,2.208 0.732,3.168 l 0.864,3.12 h 1.428 l 0.984,-3.156 c 0.312,-0.948 0.648,-2.1 0.912,-3.132 h 0.024 c 0,1.176 0.036,2.352 0.072,3.324 z"
       id="path1" />
    <path
       style="font-size:9.0992px"
       d="m 24.985775,22.40596 h -1.383078 v 2.647867 c 0,0.11829 -0.0182,0.218381 -0.0546,0.300274 -0.08189,0.218381 -0.309372,0.482257 -0.691539,0.482257 -0.491357,0 -0.700638,-0.391265 -0.700638,-1.037309 V 22.40596 h -1.383079 v 2.61147 c 0,1.37398 0.655143,1.93813 1.565063,1.93813 0.800729,0 1.219293,-0.45496 1.392177,-0.727936 h 0.0273 l 0.06369,0.627845 h 1.201095 c -0.0182,-0.373067 -0.0364,-0.846226 -0.0364,-1.428575 z"
       id="path2" />
  </g>
</svg>
