<?xml version="1.0" encoding="UTF-8" standalone="no"?>
<svg
   width="64"
   height="64"
   version="1.1"
   id="svg6"
   sodipodi:docname="AdobeFirework.svg"
   inkscape:version="1.3.2 (091e20ef0f, 2023-11-25, custom)"
   xmlns:inkscape="http://www.inkscape.org/namespaces/inkscape"
   xmlns:sodipodi="http://sodipodi.sourceforge.net/DTD/sodipodi-0.dtd"
   xmlns="http://www.w3.org/2000/svg"
   xmlns:svg="http://www.w3.org/2000/svg">
  <defs
     id="defs6">
    <rect
       x="51.550888"
       y="22.651217"
       width="49.367706"
       height="17.69709"
       id="rect7" />
    <rect
       x="10.084149"
       y="16.356342"
       width="47.7108"
       height="32.505421"
       id="rect6" />
    <filter
       inkscape:collect="always"
       style="color-interpolation-filters:sRGB"
       id="filter6"
       x="-0.069486645"
       y="-0.069486645"
       width="1.1389733"
       height="1.1389733">
      <feGaussianBlur
         inkscape:collect="always"
         stdDeviation="1.5588551"
         id="feGaussianBlur6" />
    </filter>
  </defs>
  <sodipodi:namedview
     id="namedview6"
     pagecolor="#ffffff"
     bordercolor="#000000"
     borderopacity="0.25"
     inkscape:showpageshadow="2"
     inkscape:pageopacity="0.0"
     inkscape:pagecheckerboard="0"
     inkscape:deskcolor="#d1d1d1"
     inkscape:zoom="12.6875"
     inkscape:cx="31.960591"
     inkscape:cy="32"
     inkscape:window-width="1920"
     inkscape:window-height="1012"
     inkscape:window-x="0"
     inkscape:window-y="0"
     inkscape:window-maximized="1"
     inkscape:current-layer="svg6" />
  <rect
     x="4"
     y="4"
     width="56"
     height="56"
     rx="16.964949"
     ry="16.964949"
     style="fill:#c55700;fill-opacity:1"
     id="rect1-3" />
  <rect
     x="3.9999983"
     y="3.9999983"
     width="56"
     height="56"
     rx="16.964949"
     ry="16.964949"
     style="fill:none;stroke:#000000;stroke-width:0.3;stroke-dasharray:none;stroke-opacity:1;filter:url(#filter6)"
     id="rect1-1" />
  <g
     id="text6"
     style="font-stretch:condensed;font-family:'Myriad Pro';-inkscape-font-specification:'Myriad Pro Condensed';white-space:pre;fill:none;stroke:#00cdff;stroke-width:0.200021"
     transform="matrix(3.2237257,0,0,3.2237257,-22.982697,-41.537918)"
     aria-label="Fw">
    <path
       style="font-weight:bold;font-stretch:normal;-inkscape-font-specification:'Myriad Pro Bold';fill:#ffcca3;stroke:none"
       d="m 10.887984,26.855469 h 1.824 v -3.252 h 2.904 v -1.488 h -2.904 v -1.848 h 3.108 v -1.5 h -4.932 z"
       id="path2" />
    <path
       style="font-weight:bold;font-stretch:normal;font-size:9.0992px;-inkscape-font-specification:'Myriad Pro Bold';fill:#ffcca3;stroke:none"
       d="m 16.508081,22.40596 1.301185,4.449509 h 1.301186 l 0.445861,-1.565063 c 0.10919,-0.409464 0.200182,-0.828027 0.282075,-1.383078 h 0.0182 c 0.09099,0.555051 0.172885,0.955416 0.291175,1.392178 l 0.418563,1.555963 h 1.292086 l 1.36488,-4.449509 h -1.35578 l -0.373068,1.765245 c -0.10919,0.509555 -0.200182,1.01911 -0.263876,1.519566 h -0.0182 c -0.08189,-0.509555 -0.200182,-1.000912 -0.327571,-1.510467 L 20.438935,22.40596 h -1.091904 l -0.473158,1.838038 c -0.100091,0.436762 -0.236579,0.937218 -0.318472,1.446773 h -0.0273 C 18.45531,25.181216 18.364318,24.689859 18.282425,24.234899 L 17.918457,22.40596 Z"
       id="path3" />
  </g>
  <text
     xml:space="preserve"
     id="text7"
     style="font-weight:bold;font-family:'Myriad Pro';-inkscape-font-specification:'Myriad Pro Bold';white-space:pre;shape-inside:url(#rect7);display:inline;fill:#c55700;fill-opacity:1;stroke:#000000;stroke-width:0.3"
     transform="translate(-0.10874772,6.8912523)" />
</svg>
