<?xml version="1.0" encoding="UTF-8" standalone="no"?>
<svg
   width="64"
   height="64"
   version="1.1"
   id="svg8"
   sodipodi:docname="aircrack-ng.svg"
   inkscape:version="1.3.2 (091e20ef0f, 2023-11-25, custom)"
   xmlns:inkscape="http://www.inkscape.org/namespaces/inkscape"
   xmlns:sodipodi="http://sodipodi.sourceforge.net/DTD/sodipodi-0.dtd"
   xmlns:xlink="http://www.w3.org/1999/xlink"
   xmlns="http://www.w3.org/2000/svg"
   xmlns:svg="http://www.w3.org/2000/svg">
  <defs
     id="defs8">
    <linearGradient
       id="linearGradient11"
       inkscape:collect="always">
      <stop
         style="stop-color:#747474;stop-opacity:1;"
         offset="0"
         id="stop12" />
      <stop
         style="stop-color:#5a5a5a;stop-opacity:1;"
         offset="1"
         id="stop13" />
    </linearGradient>
    <inkscape:path-effect
       effect="fillet_chamfer"
       id="path-effect11"
       is_visible="true"
       lpeversion="1"
       nodesatellites_param="F,0,0,1,0,0,0,1 @ F,0,0,1,0,1.2230489,0,1 @ F,0,0,1,0,1.2230489,0,1 @ F,0,0,1,0,0,0,1 @ F,0,0,1,0,1.2256125,0,1 @ F,0,0,1,0,1.2256125,0,1 | F,0,0,1,0,0,0,1 @ F,0,0,1,0,1.2230489,0,1 @ F,0,0,1,0,1.2230489,0,1 @ F,0,0,1,0,0,0,1 @ F,0,0,1,0,1.2256125,0,1 @ F,0,0,1,0,1.2256125,0,1 | F,0,0,1,0,0,0,1 @ F,0,0,1,0,1.7731822,0,1 @ F,0,0,1,0,3.82882,0,1 @ F,0,1,1,0,1.7731822,0,1"
       radius="0"
       unit="px"
       method="auto"
       mode="F"
       chamfer_steps="1"
       flexible="false"
       use_knot_distance="true"
       apply_no_radius="true"
       apply_with_radius="true"
       only_selected="false"
       hide_knots="false" />
    <linearGradient
       id="linearGradient9"
       inkscape:collect="always">
      <stop
         style="stop-color:#00d7ff;stop-opacity:1;"
         offset="0"
         id="stop10" />
      <stop
         style="stop-color:#00a3ff;stop-opacity:1;"
         offset="1"
         id="stop11" />
    </linearGradient>
    <radialGradient
       inkscape:collect="always"
       xlink:href="#linearGradient9"
       id="radialGradient11"
       cx="1.9294659"
       cy="16.865988"
       fx="1.9294659"
       fy="16.865988"
       r="27.509469"
       gradientTransform="matrix(0,1.9935977,-1.9936803,0,38.115304,0.66724425)"
       gradientUnits="userSpaceOnUse" />
    <radialGradient
       inkscape:collect="always"
       xlink:href="#linearGradient11"
       id="radialGradient13"
       cx="-10.040009"
       cy="33.029034"
       fx="-10.040009"
       fy="33.029034"
       r="17.296659"
       gradientTransform="matrix(2.7515331,2.7082524,-4.3820445,4.452074,161.64214,-91.583196)"
       gradientUnits="userSpaceOnUse" />
    <inkscape:path-effect
       effect="fillet_chamfer"
       id="path-effect11-3"
       is_visible="true"
       lpeversion="1"
       nodesatellites_param="F,0,0,1,0,0,0,1 @ F,0,0,1,0,1.2230489,0,1 @ F,0,0,1,0,1.2230489,0,1 @ F,0,0,1,0,0,0,1 @ F,0,0,1,0,1.2256125,0,1 @ F,0,0,1,0,1.2256125,0,1 | F,0,0,1,0,0,0,1 @ F,0,0,1,0,1.2230489,0,1 @ F,0,0,1,0,1.2230489,0,1 @ F,0,0,1,0,0,0,1 @ F,0,0,1,0,1.2256125,0,1 @ F,0,0,1,0,1.2256125,0,1 | F,0,0,1,0,0,0,1 @ F,0,0,1,0,1.7731822,0,1 @ F,0,0,1,0,3.82882,0,1 @ F,0,1,1,0,1.7731822,0,1"
       radius="0"
       unit="px"
       method="auto"
       mode="F"
       chamfer_steps="1"
       flexible="false"
       use_knot_distance="true"
       apply_no_radius="true"
       apply_with_radius="true"
       only_selected="false"
       hide_knots="false" />
    <filter
       inkscape:collect="always"
       style="color-interpolation-filters:sRGB"
       id="filter20"
       x="-0.043203894"
       y="-0.043199934"
       width="1.0864078"
       height="1.0863999">
      <feGaussianBlur
         inkscape:collect="always"
         stdDeviation="0.99217433"
         id="feGaussianBlur20" />
    </filter>
  </defs>
  <sodipodi:namedview
     id="namedview8"
     pagecolor="#ffffff"
     bordercolor="#000000"
     borderopacity="0.25"
     inkscape:showpageshadow="2"
     inkscape:pageopacity="0.0"
     inkscape:pagecheckerboard="0"
     inkscape:deskcolor="#d1d1d1"
     inkscape:zoom="12.90625"
     inkscape:cx="32"
     inkscape:cy="32"
     inkscape:window-width="1920"
     inkscape:window-height="1020"
     inkscape:window-x="0"
     inkscape:window-y="0"
     inkscape:window-maximized="1"
     inkscape:current-layer="svg8" />
  <ellipse
     style="fill:url(#radialGradient13);fill-opacity:1;stroke:none;stroke-width:0.3;stroke-linecap:round;stroke-linejoin:round;stroke-miterlimit:2.1;paint-order:markers stroke fill"
     id="path11"
     cx="7.2934594"
     cy="41.253971"
     rx="17.296659"
     ry="27.986584"
     transform="rotate(-29.545816)" />
  <path
     d="m 48.486687,4.4895253 c -0.403705,0.00458 -0.796574,0.1312274 -1.126953,0.3632812 l -37,26.0000005 c -1.1988089,0.842826 -1.1142303,2.646128 0.158203,3.373047 L 22.107781,40.848901 5.1761414,55.999292 c -1.7952055,1.611571 0.2697309,4.435195 2.3496094,3.21289 l 38.9999992,-23 C 47.984972,35.350099 47.777836,33.177524 46.182,32.606714 L 35.973016,28.960229 58.603875,14.163354 c 1.20071,-0.785079 1.208935,-2.541601 0.01563,-3.33789 l -9,-6.0000014 C 49.284344,4.6019619 48.889507,4.4848727 48.486687,4.4895253 Z"
     style="fill:url(#radialGradient11)"
     id="path5" />
  <path
     d="m 26,18 c -5.444726,0 -10.889453,3.630006 -13.040115,5.243049 -0.540101,0.405088 -0.572689,1.144147 -0.09506,1.621777 0.466223,0.466223 1.289845,0.525662 1.854717,0.15535 C 17.383179,23.273978 21.671492,21 26,21 c 4.838421,0 8.903614,2.174231 11.383304,3.903675 0.555112,0.38716 1.375797,0.337224 1.854429,-0.141408 0.420996,-0.420996 0.367679,-1.144618 -0.152326,-1.577681 C 37.115556,21.544082 32.148458,18 26,18 Z m 0,6 c -3.439514,0 -6.837915,1.432129 -9.42776,2.897126 -0.587875,0.332542 -0.665513,1.009601 -0.187883,1.487231 l 0.178551,0.178551 c 0.47763,0.47763 1.349377,0.609077 1.96152,0.323648 C 20.773481,27.837868 23.386382,27 26,27 c 2.855404,0 5.449456,0.766308 7.611429,1.749986 0.616028,0.280288 1.489469,0.149116 1.968101,-0.329516 l 0.161253,-0.161253 C 36.219415,27.780585 36.147787,27.092101 35.561614,26.753746 33.112433,25.340018 29.802417,24 26,24 Z m 0,6 c -1.659358,0 -3.306836,0.341159 -4.861921,0.855411 -0.92952,0.307384 -1.098205,1.184463 -0.405734,1.876934 l 2.56027,2.56027 a 3.82882,3.82882 0 0 0 5.41477,0 l 2.687224,-2.687224 C 32.08708,31.91292 31.912884,31.048062 30.975959,30.764121 29.449526,30.301525 27.781845,30 26,30 Z"
     style="fill:#ffffff"
     id="path8"
     inkscape:path-effect="#path-effect11"
     inkscape:original-d="m 26,18 c -7,0 -14,6 -14,6 l 1.708984,1.708984 C 16.194095,23.948694 21.070987,21 26,21 c 5.549354,0 10.081559,2.860114 12.371094,4.628906 L 40,24 c 0,0 -6,-6 -14,-6 z m 0,6 c -3.92819,0 -7.802755,1.867983 -10.480469,3.519531 l 1.908203,1.908203 C 19.899104,28.141715 22.949063,27 26,27 c 3.358441,0 6.355335,1.060092 8.712891,2.287109 l 1.894531,-1.894531 C 34.097351,25.773599 30.374538,24 26,24 Z m 0,6 c -2.26412,0 -4.506122,0.635149 -6.521484,1.478516 L 26,38 32.648438,31.351562 C 30.696669,30.573249 28.456857,30 26,30 Z"
     transform="translate(-0.48987456,0.51060773)" />
  <path
     id="path19"
     style="color:#000000;fill:#000000;stroke-linecap:round;stroke-linejoin:round;stroke-miterlimit:2.1;paint-order:markers stroke fill;stroke:#000000;stroke-opacity:1;stroke-width:0;stroke-dasharray:none;filter:url(#filter20)"
     d="m 48.486472,4.4396948 c -0.413799,0.00469 -0.817613,0.1351917 -1.15625,0.3730468 l -13.0625,9.1816404 C 29.697768,9.608202 24.522896,6.8479882 19.699362,6.4865698 19.383357,6.4628821 19.069175,6.4502986 18.759909,6.4475073 16.594686,6.4279648 14.598571,6.9201206 12.861472,7.9045385 8.6872858,10.270765 6.4643541,15.146739 6.2384249,21.107663 6.0124955,27.068588 7.7826234,34.119331 11.5978,40.849851 c 1.192815,2.104194 2.51562,4.05008 3.929687,5.822265 L 5.1427218,55.963132 c -0.9155065,0.821858 -0.8496143,1.96448 -0.2851563,2.736328 0.564458,0.771848 1.6326772,1.179983 2.6933594,0.556641 l 12.7792971,-7.53711 c 6.782836,5.936873 14.535055,8.166823 20.183594,4.964844 5.763324,-3.267749 7.80236,-11.316439 6.005859,-20.410156 l 0.03125,-0.01758 c 1.492699,-0.881861 1.280886,-3.111406 -0.351563,-3.695313 L 45.509909,32.314694 C 44.738569,29.83446 43.695863,27.318739 42.375144,24.834226 L 58.631003,14.205319 c 1.229231,-0.803727 1.237265,-2.604718 0.01563,-3.419921 l -9,-6.0000001 C 49.303078,4.55631 48.899362,4.4349258 48.486472,4.4396948 Z m 0,0.1015625 c 0.392745,-0.00454 0.778685,0.1082603 1.105468,0.3261719 l 9,5.9999998 c 1.164947,0.777369 1.156561,2.489434 -0.01562,3.255859 l -16.292969,10.654297 -6.337891,4.142578 -0.08398,0.05469 0.09375,0.0332 9.498047,3.392578 0.710937,0.253906 c 1.559212,0.557711 1.761669,2.673328 0.335938,3.515625 l -0.06055,0.03711 -15.90625,9.378907 -10.22461,6.029297 a 0.05004333,0.05004333 0 0 0 0,0.002 L 7.5001436,59.170163 C 6.4809556,59.769121 5.47682,59.376191 4.9376436,58.638913 4.3984723,57.901636 4.3294363,56.827057 5.209128,56.037351 l 10.417969,-9.322266 6.513672,-5.828125 0.05273,-0.04687 -0.06055,-0.0332 -11.589844,-6.623047 c -0.155288,-0.08871 -0.293249,-0.19299 -0.412109,-0.310547 -0.713162,-0.705344 -0.767049,-1.861861 -0.123047,-2.630859 0.107334,-0.128167 0.234556,-0.244797 0.38086,-0.347657 l 13.037109,-9.160156 c 0.308651,-0.04788 0.618935,-0.08431 0.929687,-0.113281 0.056,-0.005 0.111913,-0.01132 0.167969,-0.01563 0.328158,-0.02651 0.657025,-0.04297 0.986328,-0.04297 1.205853,0 2.363792,0.134968 3.460938,0.365235 2.742865,0.575666 5.106815,1.744784 6.892578,2.867187 0.357152,0.224481 0.690652,0.446357 1,0.662109 0.575809,0.401595 1.422303,0.349183 1.919922,-0.148437 0.442718,-0.44272 0.383478,-1.2009 -0.15625,-1.650391 -0.225153,-0.187508 -0.494177,-0.402226 -0.794922,-0.630859 -0.272902,-0.208125 -0.573271,-0.426476 -0.904297,-0.65625 -0.0058,-0.004 -0.01367,-0.0077 -0.01953,-0.01172 -2.085765,-1.445018 -5.268015,-3.190325 -9.064453,-3.730468 l 0.74414,-0.523438 5.703125,-4.007812 L 47.38881,4.8947739 C 47.710932,4.6685222 48.092863,4.5457227 48.486472,4.5412573 Z M 18.759909,6.5490698 c 0.307132,0.00277 0.617892,0.015543 0.931641,0.039063 4.785272,0.3585516 9.93451,3.0994427 14.488281,7.4648442 l -6.482422,4.55664 c -0.355718,-0.04749 -0.716285,-0.08447 -1.082031,-0.109375 -0.363779,-0.02477 -0.732572,-0.03906 -1.105469,-0.03906 -0.341685,0 -0.682692,0.01396 -1.023437,0.04102 -0.340745,0.02706 -0.681326,0.0678 -1.019532,0.119141 -0.338205,0.05135 -0.673746,0.112678 -1.007812,0.185547 -1.670328,0.364344 -3.279735,0.980784 -4.726562,1.675781 -0.578731,0.277999 -1.131775,0.569147 -1.652344,0.861328 -0.52057,0.292182 -1.009377,0.586857 -1.458985,0.871094 -0.449607,0.284237 -0.860717,0.558334 -1.226562,0.8125 -0.365845,0.254166 -0.685797,0.487486 -0.955078,0.689453 -0.562708,0.422043 -0.596243,1.198679 -0.09961,1.695313 0.303469,0.303468 0.746521,0.440162 1.179688,0.40625 0.173267,-0.01356 0.345684,-0.05467 0.505859,-0.123047 0.08009,-0.03419 0.15728,-0.07507 0.230469,-0.123047 0.279617,-0.183308 0.586739,-0.374787 0.900391,-0.566406 0.290826,-0.176122 0.594953,-0.354174 0.912109,-0.53125 1.9881,-1.110008 4.462856,-2.191178 7.050781,-2.648438 l -12.789062,8.986328 c -0.153398,0.107847 -0.285909,0.230622 -0.398438,0.365235 -0.675176,0.807677 -0.618892,2.024687 0.128906,2.765625 0.124633,0.123489 0.268823,0.233156 0.431641,0.326171 l 11.53125,6.589844 -6.419922,5.742188 C 14.194398,44.835101 12.872867,42.896763 11.683737,40.799069 7.8768033,34.083091 6.1149202,27.049746 6.3399874,21.111569 6.5650544,15.173393 8.7761327,10.335124 12.912253,7.990476 14.633166,7.0152307 16.610357,6.5296687 18.759909,6.5490698 Z m 6.75,12.0136712 c 0.363656,0 0.72309,0.01343 1.078125,0.03711 0.01094,7.3e-4 0.02227,0.0012 0.0332,0.002 0.0078,5.36e-4 0.01567,0.0014 0.02344,0.002 0.357583,0.02509 0.710565,0.06053 1.058594,0.107422 a 0.05004333,0.05004333 0 0 0 0.0039,0 c 0.286603,0.03868 0.568032,0.08669 0.847656,0.138672 0.05541,0.0103 0.110885,0.02046 0.166016,0.03125 0.103408,0.02025 0.20425,0.04448 0.30664,0.06641 0.245462,0.05255 0.489127,0.108376 0.728516,0.169922 0.101806,0.02618 0.202066,0.05434 0.302734,0.08203 0.226774,0.06236 0.451074,0.127836 0.671875,0.197266 0.09431,0.02966 0.188068,0.059 0.28125,0.08984 0.153167,0.05069 0.303073,0.104541 0.453125,0.158203 0.479971,0.171715 0.946497,0.356626 1.392579,0.552735 0.07087,0.03115 0.139015,0.06212 0.208984,0.09375 0.463323,0.209513 0.912219,0.427876 1.333984,0.652344 0.0058,0.0031 0.0118,0.0067 0.01758,0.0098 0.435757,0.232408 0.845132,0.470427 1.232422,0.707032 0.03288,0.02009 0.0671,0.04048 0.09961,0.06055 0.356021,0.21978 0.685571,0.435782 0.996093,0.648438 0.07542,0.05164 0.150035,0.101469 0.222657,0.152344 0.279961,0.196192 0.542657,0.388545 0.779296,0.568359 0.308634,0.234553 0.586692,0.455176 0.816407,0.646484 0.500276,0.416635 0.547709,1.102683 0.148437,1.501953 -0.459639,0.459642 -1.256604,0.509442 -1.791015,0.136719 -2.484583,-1.732856 -6.558709,-3.914062 -11.41211,-3.914062 -0.343602,0 -0.687111,0.0178 -1.029297,0.04492 -0.02673,0.0022 -0.05336,0.0054 -0.08008,0.0078 -0.335456,0.02856 -0.669462,0.07125 -1.001953,0.123047 -2.620902,0.408295 -5.117485,1.491044 -7.148437,2.619141 -0.239067,0.132345 -0.466085,0.264015 -0.691407,0.396484 -0.121104,0.07137 -0.246405,0.141977 -0.363281,0.212891 -0.350186,0.212052 -0.685219,0.42248 -0.99414,0.625 -0.06803,0.0446 -0.140015,0.08356 -0.214844,0.115234 -0.07483,0.03168 -0.15317,0.05536 -0.232422,0.07422 -0.475515,0.113165 -1.008581,-0.0027 -1.34375,-0.337891 -0.458624,-0.458622 -0.429602,-1.158744 0.08789,-1.546875 0.268382,-0.201292 0.588245,-0.434344 0.953126,-0.6875 0.36488,-0.253155 0.774225,-0.525582 1.222656,-0.808594 0.44843,-0.283011 0.936046,-0.576326 1.455078,-0.867187 0.519032,-0.290861 1.0698,-0.580719 1.646484,-0.857422 1.730053,-0.830109 3.691182,-1.546957 5.707032,-1.853516 0.335974,-0.05109 0.67347,-0.09027 1.011718,-0.117187 0.338248,-0.02692 0.676722,-0.04102 1.015625,-0.04102 z m 0,5.898438 c -3.453386,0 -6.859117,1.436946 -9.453125,2.904297 -0.305804,0.172984 -0.48249,0.43945 -0.517578,0.726562 -0.03509,0.287112 0.07217,0.591703 0.320313,0.839844 l 0.177734,0.177734 c 0.49593,0.49593 1.385517,0.629611 2.019531,0.333985 0.561212,-0.261682 1.145489,-0.510933 1.746094,-0.736329 1.201209,-0.450791 2.469041,-0.808937 3.759766,-0.998046 0.645362,-0.09455 1.296537,-0.146485 1.947265,-0.146485 0.355805,0 0.707344,0.01239 1.054688,0.03516 2.43141,0.159395 4.64765,0.850184 6.535156,1.708984 0.637646,0.290123 1.528467,0.157079 2.025391,-0.339844 L 35.2853,28.806882 c 0.248667,-0.248668 0.35703,-0.555247 0.324219,-0.845703 -0.03281,-0.290458 -0.206648,-0.562187 -0.511719,-0.738281 -2.454226,-1.41664 -5.773727,-2.761719 -9.587891,-2.761719 z m 0,0.101562 c 2.842984,0 5.411247,0.751924 7.548828,1.722657 0.712527,0.323577 1.377251,0.670735 1.988282,1.023437 0.2811,0.162259 0.43372,0.403885 0.46289,0.662109 0.02917,0.258226 -0.06496,0.535663 -0.294922,0.765625 l -0.160156,0.160157 c -0.115084,0.115084 -0.255756,0.210466 -0.410156,0.283203 -0.308801,0.145472 -0.67526,0.203239 -1.017578,0.166015 -0.171159,-0.01861 -0.335774,-0.06129 -0.484375,-0.128906 -2.166782,-0.985867 -4.768465,-1.755859 -7.632813,-1.755859 -2.624305,0 -5.242853,0.841937 -7.496093,1.892578 -0.147568,0.06881 -0.311928,0.111553 -0.482422,0.130859 -0.340989,0.03861 -0.707371,-0.01904 -1.015625,-0.164062 -0.154127,-0.07251 -0.293371,-0.166418 -0.408203,-0.28125 l -0.177735,-0.177735 c -0.229489,-0.229487 -0.322115,-0.503327 -0.291015,-0.757812 0.0311,-0.254486 0.186683,-0.492786 0.46875,-0.652344 0.969626,-0.548487 2.05154,-1.091717 3.207031,-1.556641 1.925818,-0.774872 4.054302,-1.332031 6.195312,-1.332031 z m 16.777344,0.330078 c 1.30107,2.449258 2.327957,4.929983 3.09375,7.375 l -9.296875,-3.320312 z m -16.777344,5.56836 c -1.666212,0 -3.318137,0.343888 -4.876953,0.859375 -0.477369,0.157861 -0.767777,0.466481 -0.84375,0.830078 -0.07597,0.363597 0.06282,0.773761 0.417969,1.128906 l 2.560547,2.560547 c 1.514284,1.513889 3.97009,1.513889 5.484375,0 l 2.6875,-2.6875 c 0.355081,-0.355082 0.494265,-0.760996 0.416015,-1.119141 -0.07825,-0.358143 -0.374325,-0.660826 -0.855468,-0.80664 -1.530346,-0.463782 -3.202758,-0.765625 -4.990235,-0.765625 z m 0,0.101562 c 1.776202,0 3.440381,0.300312 4.962891,0.761719 0.455777,0.138127 0.715535,0.411818 0.785156,0.730469 0.06962,0.318649 -0.05128,0.689957 -0.388672,1.027343 l -2.6875,2.6875 c -1.476039,1.475656 -3.867709,1.475656 -5.34375,0 l -2.560547,-2.560546 c -0.337322,-0.337324 -0.458515,-0.712194 -0.390625,-1.03711 0.06789,-0.324914 0.325197,-0.608291 0.777344,-0.757812 1.551345,-0.513017 3.193212,-0.851563 4.845703,-0.851563 z m 20.914063,5.769531 c 1.77701,9.051291 -0.258957,17.032659 -5.960938,20.265626 -5.589208,3.168345 -13.280201,0.966022 -20.037109,-4.935547 l 9.904297,-5.839844 z" />
</svg>
