<?xml version="1.0" encoding="UTF-8" standalone="no"?>
<svg
   width="64"
   height="64"
   version="1"
   id="svg7"
   sodipodi:docname="alienfx.svg"
   inkscape:version="1.3.2 (091e20e, 2023-11-25, custom)"
   xmlns:inkscape="http://www.inkscape.org/namespaces/inkscape"
   xmlns:sodipodi="http://sodipodi.sourceforge.net/DTD/sodipodi-0.dtd"
   xmlns:xlink="http://www.w3.org/1999/xlink"
   xmlns="http://www.w3.org/2000/svg"
   xmlns:svg="http://www.w3.org/2000/svg">
  <defs
     id="defs7">
    <linearGradient
       id="linearGradient7"
       inkscape:collect="always">
      <stop
         style="stop-color:#00b5ff;stop-opacity:1;"
         offset="0"
         id="stop7" />
      <stop
         style="stop-color:#008aff;stop-opacity:1;"
         offset="1"
         id="stop8" />
    </linearGradient>
    <radialGradient
       inkscape:collect="always"
       xlink:href="#linearGradient7"
       id="radialGradient8"
       cx="31.5"
       cy="32"
       fx="31.5"
       fy="32"
       r="19.5"
       gradientTransform="matrix(0.9239639,0,0,1.3267175,2.395137,-10.454958)"
       gradientUnits="userSpaceOnUse" />
    <filter
       inkscape:collect="always"
       style="color-interpolation-filters:sRGB"
       id="filter8"
       x="-0.14690071"
       y="-0.35020555"
       width="1.2938014"
       height="1.7004259">
      <feGaussianBlur
         inkscape:collect="always"
         stdDeviation="1.8762874"
         id="feGaussianBlur8" />
    </filter>
    <filter
       inkscape:collect="always"
       style="color-interpolation-filters:sRGB"
       id="filter9"
       x="-0.16906832"
       y="-0.11774401"
       width="1.3381366"
       height="1.235488">
      <feGaussianBlur
         inkscape:collect="always"
         stdDeviation="2.7056935"
         id="feGaussianBlur9" />
    </filter>
  </defs>
  <sodipodi:namedview
     id="namedview7"
     pagecolor="#505050"
     bordercolor="#eeeeee"
     borderopacity="1"
     inkscape:showpageshadow="0"
     inkscape:pageopacity="0"
     inkscape:pagecheckerboard="0"
     inkscape:deskcolor="#505050"
     inkscape:zoom="9.0377085"
     inkscape:cx="15.711947"
     inkscape:cy="25.780871"
     inkscape:window-width="1920"
     inkscape:window-height="1014"
     inkscape:window-x="-4"
     inkscape:window-y="-4"
     inkscape:window-maximized="1"
     inkscape:current-layer="svg7" />
  <path
     style="fill:url(#radialGradient8);stroke-width:0.923964"
     d="m 49.517295,24.238703 c 0,18.109693 -10.295598,33.632286 -18.017296,33.632286 -7.721698,0 -18.017295,-15.522593 -18.017295,-33.632286 0,-10.001706 8.066619,-18.1096921 18.017295,-18.1096921 9.950677,0 18.017296,8.1079861 18.017296,18.1096921 z"
     id="path2" />
  <path
     style="mix-blend-mode:normal;fill:none;stroke:#000000;stroke-width:0.2;stroke-dasharray:none;stroke-opacity:1;filter:url(#filter9)"
     d="m 50.999999,23.6 c 0,19.6 -11.142857,36.4 -19.5,36.4 C 23.142857,60 12,43.2 12,23.6 12,12.77522 20.730448,4 31.499999,4 c 10.769552,0 19.5,8.77522 19.5,19.6 z"
     id="path2-7"
     transform="matrix(0.9239639,0,0,0.9239639,2.395137,2.4331553)" />
  <path
     id="path4"
     style="fill:#ffffff;stroke-width:0.923964"
     d="m 17.653174,32 c -0.517395,0.0177 -0.512702,0.302061 -0.438523,1.165783 0.233136,2.714411 1.057452,4.648117 2.867537,6.724002 1.947345,2.233362 5.021887,3.779612 8.117167,4.082044 0.758244,0.07364 0.905376,0.05356 0.976298,-0.128128 C 29.37065,43.343506 27.64099,38.990464 26.605879,37.375954 24.672723,34.360586 22.030943,32.596092 18.725116,32.111887 18.232226,32.039664 17.888353,31.991954 17.653174,32 Z m 27.693652,0 c -0.235179,-0.008 -0.579052,0.03966 -1.071942,0.111887 -3.305827,0.484205 -5.947608,2.248699 -7.880763,5.264067 -1.035111,1.61451 -2.764771,5.967552 -2.569774,6.467747 0.07092,0.181683 0.218054,0.201768 0.976298,0.128128 3.09528,-0.302432 6.169821,-1.848682 8.117167,-4.082044 1.810085,-2.075885 2.634401,-4.009591 2.867536,-6.724002 C 45.859528,32.302061 45.864221,32.017701 45.346826,32 Z" />
  <path
     id="path4-7"
     style="fill:none;stroke:#000000;stroke-width:0.1;stroke-dasharray:none;stroke-opacity:1;filter:url(#filter8)"
     d="m 16.513673,32 c -0.559973,0.01916 -0.554894,0.326918 -0.47461,1.261719 0.252321,2.937789 1.144473,5.030626 3.103516,7.277343 2.107599,2.417153 5.435155,4.090649 8.785156,4.417969 0.820642,0.0797 0.979882,0.05796 1.056641,-0.138672 0.211044,-0.541358 -1.660956,-5.252626 -2.78125,-7 C 24.110885,34.554847 21.251703,32.645146 17.673829,32.121094 17.140377,32.042924 16.768206,31.991292 16.513673,32 Z m 29.972656,0 c -0.254533,-0.0087 -0.626704,0.04293 -1.160156,0.121094 -3.577874,0.524052 -6.437056,2.433753 -8.529297,5.697265 -1.120294,1.747374 -2.992294,6.458642 -2.78125,7 0.07676,0.196634 0.235999,0.218372 1.056641,0.138672 3.350001,-0.32732 6.677557,-2.000816 8.785156,-4.417969 1.959043,-2.246717 2.851195,-4.339554 3.103516,-7.277343 0.08028,-0.934801 0.08536,-1.242561 -0.47461,-1.261719 z"
     transform="matrix(0.9239639,0,0,0.9239639,2.395137,2.4331553)" />
</svg>
