<?xml version="1.0" encoding="UTF-8" standalone="no"?>
<!-- Created with Inkscape (http://www.inkscape.org/) -->

<svg
   width="64"
   height="64"
   viewBox="0 0 16.933334 16.933334"
   version="1.1"
   id="svg1"
   inkscape:version="1.3.2 (091e20ef0f, 2023-11-25, custom)"
   sodipodi:docname="an-anime-game-launcher.svg"
   xmlns:inkscape="http://www.inkscape.org/namespaces/inkscape"
   xmlns:sodipodi="http://sodipodi.sourceforge.net/DTD/sodipodi-0.dtd"
   xmlns:xlink="http://www.w3.org/1999/xlink"
   xmlns="http://www.w3.org/2000/svg"
   xmlns:svg="http://www.w3.org/2000/svg">
  <sodipodi:namedview
     id="namedview1"
     pagecolor="#323232"
     bordercolor="#000000"
     borderopacity="0.25"
     inkscape:showpageshadow="2"
     inkscape:pageopacity="0.0"
     inkscape:pagecheckerboard="0"
     inkscape:deskcolor="#292c3a"
     inkscape:document-units="mm"
     inkscape:zoom="5.8368685"
     inkscape:cx="3.5978196"
     inkscape:cy="8.1379253"
     inkscape:window-width="1920"
     inkscape:window-height="1018"
     inkscape:window-x="0"
     inkscape:window-y="0"
     inkscape:window-maximized="1"
     inkscape:current-layer="svg1" />
  <defs
     id="defs1">
    <inkscape:path-effect
       effect="fillet_chamfer"
       id="path-effect2"
       is_visible="true"
       lpeversion="1"
       nodesatellites_param="F,0,0,1,0,0,0,1 @ F,0,0,1,0,0.24012207,0,1 @ F,0,0,1,0,0,0,1 @ F,0,0,1,0,0,0,1 @ F,0,0,1,0,0,0,1"
       radius="0"
       unit="px"
       method="auto"
       mode="F"
       chamfer_steps="1"
       flexible="false"
       use_knot_distance="true"
       apply_no_radius="true"
       apply_with_radius="true"
       only_selected="false"
       hide_knots="false" />
    <inkscape:path-effect
       effect="fillet_chamfer"
       id="path-effect1"
       is_visible="true"
       lpeversion="1"
       nodesatellites_param="F,0,0,1,0,0,0,1 @ F,0,0,1,0,0,0,1 @ F,0,0,1,0,0,0,1 @ F,0,0,1,0,0,0,1"
       radius="0"
       unit="px"
       method="auto"
       mode="F"
       chamfer_steps="1"
       flexible="false"
       use_knot_distance="true"
       apply_no_radius="true"
       apply_with_radius="true"
       only_selected="false"
       hide_knots="false" />
    <linearGradient
       id="linearGradient1"
       inkscape:collect="always">
      <stop
         style="stop-color:#ffffff;stop-opacity:1;"
         offset="0"
         id="stop1" />
      <stop
         style="stop-color:#d3eeff;stop-opacity:1;"
         offset="1"
         id="stop2" />
    </linearGradient>
    <radialGradient
       inkscape:collect="always"
       xlink:href="#linearGradient1"
       id="radialGradient2"
       cx="44.409645"
       cy="43.334572"
       fx="44.409645"
       fy="43.334572"
       r="48.045776"
       gradientTransform="matrix(0.18969325,0.18969325,-0.18227127,0.18227127,6.6237628,-9.2080395)"
       gradientUnits="userSpaceOnUse" />
    <filter
       inkscape:collect="always"
       style="color-interpolation-filters:sRGB"
       id="filter31"
       x="-0.11560474"
       y="-0.11560474"
       width="1.2312095"
       height="1.2312095">
      <feGaussianBlur
         inkscape:collect="always"
         stdDeviation="5.0766358"
         id="feGaussianBlur31" />
    </filter>
    <filter
       inkscape:collect="always"
       style="color-interpolation-filters:sRGB"
       id="filter2"
       x="-0.23623968"
       y="-0.14028594"
       width="1.4708725"
       height="1.2738005">
      <feGaussianBlur
         inkscape:collect="always"
         stdDeviation="0.32744494"
         id="feGaussianBlur2" />
    </filter>
    <filter
       inkscape:collect="always"
       style="color-interpolation-filters:sRGB"
       id="filter3"
       x="-0.17847442"
       y="-0.13616225"
       width="1.3569488"
       height="1.2723245">
      <feGaussianBlur
         inkscape:collect="always"
         stdDeviation="0.22630741"
         id="feGaussianBlur3" />
    </filter>
  </defs>
  <circle
     style="fill:#363671;fill-opacity:1;stroke:none;stroke-width:0.0347985;stroke-linecap:round;stroke-linejoin:round;stroke-miterlimit:2.1;stroke-dasharray:none;stroke-opacity:1;paint-order:markers stroke fill"
     id="path31"
     cx="8.4666662"
     cy="8.4666662"
     r="6.8423309" />
  <path
     d="m 7.1159272,15.167081 c 0.4365015,0.08751 0.8878717,0.13059 1.3501137,0.134064 3.1129091,0.0234 4.0859291,-2.855986 3.6117371,-4.347454 -0.340393,0.07743 -0.907317,-2.1247751 -1.446699,-1.4909361 -0.08758,5.4016161 -1.968258,5.1650831 -3.5151518,5.7043261 z m -1.590204,-4.712438 c -0.6880622,0.437094 -1.4038135,1.905708 -0.4289399,3.957075 3.991e-4,2.5e-4 7.608e-4,4.99e-4 0.00116,7.49e-4 0.2953823,0.16775 0.4442428,0.265841 0.9442066,0.41744 7.3360711,-0.658906 4.5152391,-4.021625 0.7287598,-4.381906 -0.1706351,-0.07839 -1.1174204,0.112881 -1.2451866,0.0067 z"
     style="fill:#8dc3ff;stroke:none;stroke-width:0.0223259;stroke-dasharray:none;stroke-opacity:1;fill-opacity:1"
     id="path30"
     sodipodi:nodetypes="cscccccccccc" />
  <path
     d="m 4.7817494,8.1562585 c -0.581209,1.4450979 -1.0449934,1.802977 -2.1454091,2.1920735 0.474306,0.445644 0.9488326,0.674124 1.5499205,0.436481 -1.1236967,1.873316 -0.5164895,2.786939 0.902611,3.612894 C 4.4572352,12.61372 5.0142802,11.158165 5.5178117,10.44063 4.8156807,9.8569965 4.7209586,8.9078393 4.7817494,8.1562585 Z m 4.9543821,4.1123005 c -0.7511141,0.612997 -2.5983037,2.333477 -3.1540586,2.115869 -0.1714672,0.18619 -0.3578857,0.332813 -0.554045,0.455753 0.3416132,0.130134 0.6955518,0.235185 1.0609096,0.309507 0.0063,0.0013 0.012769,0.0021 0.019078,0.0034 1.0976767,-0.08164 2.7617372,-1.027092 3.0377615,-1.50397 z m 0.3715645,2.094793 c -0.1255631,0.05659 -0.2507409,0.116822 -0.3744771,0.184016 0.2701431,0.06111 0.5114481,0.0973 0.7355471,0.112471 -0.353292,0.244837 -0.7434976,0.400468 -1.1370941,0.566807 0.3191587,-0.0411 0.6324166,-0.101024 0.9363851,-0.184273 h 6.4e-5 l 3.87e-4,-6.4e-5 c 0.0065,-0.0018 0.01307,-0.0032 0.01953,-0.005 0.144248,-0.04002 0.285923,-0.08609 0.426169,-0.135159 0.11819,-0.05973 0.221061,-0.141033 0.248856,-0.249307 -0.344343,0.05936 -0.716329,-0.07698 -0.855302,-0.289462 -7e-6,-10e-6 -5.8e-5,8e-6 -6.4e-5,-2e-6 z m 1.380084,0.854142 c -0.01163,-1e-6 -0.02293,7.48e-4 -0.03461,6.23e-4 z"
     style="fill:#6790cd;fill-opacity:1;stroke:none;stroke-width:0.0124726;stroke-dasharray:none;stroke-opacity:1"
     id="path29"
     sodipodi:nodetypes="cccccccccscccccccccccccsccccc" />
  <path
     d="m 5.9299585,7.3121507 c -0.5844874,1.0165358 -0.3967789,2.1234946 -0.293306,3.0869803 -0.00291,0.67405 -0.1785076,1.169026 -0.7261618,1.145072 0.064112,0.623059 0.179413,1.418972 1.6524018,2.076419 C 7.6065751,12.97967 8.6246936,11.613231 8.4538122,9.2943822 7.0360653,8.8302041 6.6567724,8.5368675 5.9299585,7.3121507 Z"
     style="fill:#f5bc92;fill-opacity:1;stroke:#f5bc92;stroke-width:0.0487115;stroke-dasharray:none;stroke-opacity:1"
     id="path28"
     sodipodi:nodetypes="cccccc" />
  <path
     d="M 5.9292838,7.3115289 C 5.3447964,8.3280644 5.5325049,9.4350234 5.6359778,10.39851 5.6330678,11.07256 5.4574702,11.567536 4.909816,11.543582 4.973928,12.166641 5.089229,12.962554 6.5622178,13.620001 7.6059004,12.979049 8.6240189,11.61261 8.4531375,9.2937604 7.0353906,8.8295824 6.6560977,8.5362454 5.9292838,7.3115289 Z"
     style="fill:none;fill-opacity:1;stroke:#b85126;stroke-width:0.1;stroke-dasharray:none;stroke-opacity:1;filter:url(#filter2)"
     id="path28-5"
     sodipodi:nodetypes="cccccc" />
  <path
     d="M 9.3660902,3.7519373 C 7.4160209,3.7466614 5.7426657,5.1079127 4.9976696,7.0217427 4.974314,7.0817415 4.019842,10.032456 6.1513925,10.79635 5.9267828,10.517279 5.9855197,10.111553 5.9918695,10.072148 6.3394491,10.363922 6.6302489,10.437836 6.9985733,10.465122 6.3569795,9.6656404 6.2352572,9.3573714 6.1576446,8.3410475 6.6390315,9.2847249 6.8902448,9.5107472 7.8292538,9.8684091 8.0064563,12.665876 6.2215037,13.829157 5.4951363,13.692187 c 0.6834972,0.958071 2.8032774,1.368081 4.2624462,-1.155777 0.00673,0.01608 0.3894675,0.946405 -0.8622629,1.66149 2.3250414,0.303673 2.0325784,-3.019631 1.8248804,-4.4010345 0.172332,0.9357305 1.009268,1.2202595 1.349662,1.1428305 -0.06054,0.07492 -0.480494,0.159219 -0.749726,0.03326 0.326416,1.237725 0.290475,2.985835 -1.269804,3.249438 0.03427,0.289798 0.496462,0.50218 0.91273,0.430424 -0.0278,0.108275 -0.130666,0.189575 -0.248856,0.249306 2.343143,-0.819779 4.104595,-2.87741 4.494814,-5.3909802 C 14.872282,9.194948 14.572949,8.7491575 14.393874,8.1261586 13.947602,6.5735837 13.195298,4.6864827 10.752362,3.9839064 10.280882,3.8271386 9.8161062,3.7531548 9.3660902,3.7519373 Z"
     style="display:inline;fill:url(#radialGradient2);stroke-width:0.0099001"
     id="path27"
     sodipodi:nodetypes="sscccccccccccccccscs" />
  <path
     d="m 7.433138,10.770919 c -0.2803221,0.238971 -0.6037844,0.314654 -0.8589209,0.33456 -0.1320208,0.0103 -0.1836661,0.102901 -0.1742615,0.234267 0.00712,0.09948 -0.0125,0.195569 -0.054089,0.27712 0.2270407,0.0031 0.2996792,-0.161065 0.3191059,-0.287047 0.3760844,-0.04626 0.6619794,-0.260237 0.7681662,-0.558896 z"
     style="fill:#282828;stroke-width:0.0099001"
     id="path1"
     inkscape:path-effect="#path-effect2"
     inkscape:original-d="m 7.433138,10.770919 c -0.3792639,0.323317 -0.8374958,0.347738 -1.0986409,0.339518 0.089745,0.173227 0.084782,0.362478 0.011369,0.506429 0.2270407,0.0031 0.2996792,-0.161065 0.3191059,-0.287047 0.3760844,-0.04626 0.6619794,-0.260237 0.7681662,-0.558896 z"
     sodipodi:nodetypes="ccccsc" />
  <path
     style="fill:#6ab5cd;fill-opacity:1;stroke:none;stroke-width:0.0099001"
     d="M 8.1464995,5.6930159 9.2184612,9.678215 C 8.5739596,8.4894716 8.2391018,8.2544785 7.1572627,8.103372 8.0194491,7.4182692 8.189927,7.0449931 8.1464995,5.6930159 Z"
     id="path7"
     sodipodi:nodetypes="cccc" />
  <path
     style="fill:#288bb0;fill-opacity:1;stroke:none;stroke-width:0.0099001"
     d="M 9.211377,9.6743041 8.1394153,5.689105 C 8.783917,6.8778483 9.1187748,7.1128415 10.200614,7.2639481 9.3384274,7.9490507 9.1679495,8.3223268 9.211377,9.6743041 Z"
     id="path7-3"
     sodipodi:nodetypes="cccc" />
  <path
     id="path7-2"
     style="opacity:0.613197;mix-blend-mode:normal;fill:#ffffff;fill-opacity:1;stroke:none;stroke-width:0.0099001;filter:url(#filter3)"
     d="m 8.1553822,5.6756229 0.00723,0.026872 c 0.040667,1.3326826 -0.1324688,1.7063658 -0.989599,2.3874509 1.0749366,0.1501424 1.4129806,0.3837736 2.0494873,1.5528764 l 0.00465,0.018087 c -1.099e-4,-0.00342 1.071e-4,-0.00641 0,-0.00982 0.00253,0.00465 0.0047,0.00876 0.00723,0.013435 l -0.00775,-0.028936 C 9.1862861,8.3050818 9.3596823,7.9313491 10.216238,7.2507205 9.1406644,7.100489 8.8034737,6.8661672 8.1662342,5.6952599 l -0.00413,-0.015503 c 9.26e-5,0.00288 -9.06e-5,0.0054 0,0.00827 -0.00234,-0.0043 -0.00437,-0.00808 -0.00672,-0.012402 z"
     transform="matrix(0.8594904,0,0,0.8594904,1.2216784,1.077719)" />
  <circle
     style="mix-blend-mode:normal;fill:none;fill-opacity:1;stroke:#000000;stroke-width:1;stroke-linecap:round;stroke-linejoin:round;stroke-miterlimit:2.1;stroke-dasharray:none;stroke-opacity:1;paint-order:markers stroke fill;filter:url(#filter31)"
     id="path31-5"
     cx="67.73333"
     cy="67.73333"
     r="54.859024"
     transform="matrix(0.12472571,0,0,0.12472571,0.01857847,0.01857847)" />
</svg>
