<?xml version="1.0" encoding="UTF-8" standalone="no"?>
<svg
   width="64"
   height="64"
   version="1.1"
   id="svg15"
   sodipodi:docname="android-studio-canary.svg"
   inkscape:version="1.3.2 (091e20ef0f, 2023-11-25, custom)"
   xmlns:inkscape="http://www.inkscape.org/namespaces/inkscape"
   xmlns:sodipodi="http://sodipodi.sourceforge.net/DTD/sodipodi-0.dtd"
   xmlns:xlink="http://www.w3.org/1999/xlink"
   xmlns="http://www.w3.org/2000/svg"
   xmlns:svg="http://www.w3.org/2000/svg">
  <defs
     id="defs15">
    <filter
       inkscape:collect="always"
       style="color-interpolation-filters:sRGB"
       id="filter23"
       x="-0.19547689"
       y="-0.16210516"
       width="1.3909538"
       height="1.3242103">
      <feGaussianBlur
         inkscape:collect="always"
         stdDeviation="1.016212"
         id="feGaussianBlur23" />
    </filter>
    <inkscape:path-effect
       effect="fillet_chamfer"
       id="path-effect22-0"
       is_visible="true"
       lpeversion="1"
       nodesatellites_param="F,0,0,1,0,1.9277992,0,1 @ F,0,0,1,0,0.48794334,0,1 @ F,0,0,1,0,0,0,1 @ F,0,0,1,0,0,0,1 @ F,0,0,1,0,0,0,1 @ F,0,1,1,0,0.48794334,0,1 @ F,0,0,1,0,1.9277992,0,1 | F,0,0,1,0,0,0,1 @ F,0,0,1,0,0,0,1 @ F,0,0,1,0,0,0,1 @ F,0,0,1,0,0,0,1"
       radius="0"
       unit="px"
       method="auto"
       mode="F"
       chamfer_steps="1"
       flexible="false"
       use_knot_distance="true"
       apply_no_radius="true"
       apply_with_radius="true"
       only_selected="false"
       hide_knots="false" />
    <inkscape:path-effect
       effect="fillet_chamfer"
       id="path-effect22"
       is_visible="true"
       lpeversion="1"
       nodesatellites_param="F,0,0,1,0,1.9277992,0,1 @ F,0,0,1,0,0.48794334,0,1 @ F,0,0,1,0,0,0,1 @ F,0,0,1,0,0,0,1 @ F,0,0,1,0,0,0,1 @ F,0,1,1,0,0.48794334,0,1 @ F,0,0,1,0,1.9277992,0,1 | F,0,0,1,0,0,0,1 @ F,0,0,1,0,0,0,1 @ F,0,0,1,0,0,0,1 @ F,0,0,1,0,0,0,1"
       radius="0"
       unit="px"
       method="auto"
       mode="F"
       chamfer_steps="1"
       flexible="false"
       use_knot_distance="true"
       apply_no_radius="true"
       apply_with_radius="true"
       only_selected="false"
       hide_knots="false" />
    <filter
       inkscape:collect="always"
       style="color-interpolation-filters:sRGB"
       id="filter21"
       x="-0.11816697"
       y="-0.11315816"
       width="1.2363203"
       height="1.2263265">
      <feGaussianBlur
         inkscape:collect="always"
         stdDeviation="1.7876779"
         id="feGaussianBlur21" />
    </filter>
    <inkscape:path-effect
       effect="fillet_chamfer"
       id="path-effect21-9"
       is_visible="true"
       lpeversion="1"
       nodesatellites_param="F,0,0,1,0,0,0,1 @ F,0,0,1,0,1.8369268,0,1 @ F,0,0,1,0,2.4111799,0,1 @ F,0,0,1,0,1.8369268,0,1 @ F,0,0,1,0,0,0,1 @ F,0,0,1,0,1.3187549,0,1 @ F,0,1,1,0,1.3187549,0,1 @ F,0,0,1,0,0,0,1 @ F,0,0,1,0,0,0,1"
       radius="0"
       unit="px"
       method="auto"
       mode="F"
       chamfer_steps="1"
       flexible="false"
       use_knot_distance="true"
       apply_no_radius="true"
       apply_with_radius="true"
       only_selected="false"
       hide_knots="false" />
    <inkscape:path-effect
       effect="fillet_chamfer"
       id="path-effect21"
       is_visible="true"
       lpeversion="1"
       nodesatellites_param="F,0,0,1,0,0,0,1 @ F,0,0,1,0,1.8369268,0,1 @ F,0,0,1,0,2.4111799,0,1 @ F,0,0,1,0,1.8369268,0,1 @ F,0,0,1,0,0,0,1 @ F,0,0,1,0,1.3187549,0,1 @ F,0,1,1,0,1.3187549,0,1 @ F,0,0,1,0,0,0,1 @ F,0,0,1,0,0,0,1"
       radius="0"
       unit="px"
       method="auto"
       mode="F"
       chamfer_steps="1"
       flexible="false"
       use_knot_distance="true"
       apply_no_radius="true"
       apply_with_radius="true"
       only_selected="false"
       hide_knots="false" />
    <filter
       inkscape:collect="always"
       style="color-interpolation-filters:sRGB"
       id="filter22"
       x="-0.15999852"
       y="-0.086841734"
       width="1.3199972"
       height="1.1736959">
      <feGaussianBlur
         inkscape:collect="always"
         stdDeviation="1.3609973"
         id="feGaussianBlur22" />
    </filter>
    <inkscape:path-effect
       effect="fillet_chamfer"
       id="path-effect20-1"
       is_visible="true"
       lpeversion="1"
       nodesatellites_param="F,0,0,1,0,0,0,1 @ F,0,0,1,0,1.4620002,0,1 @ F,0,0,1,0,2.5970285,0,1 @ F,0,1,1,0,1.4620002,0,1 @ F,0,0,1,0,0,0,1"
       radius="0"
       unit="px"
       method="auto"
       mode="F"
       chamfer_steps="1"
       flexible="false"
       use_knot_distance="true"
       apply_no_radius="true"
       apply_with_radius="true"
       only_selected="false"
       hide_knots="false" />
    <inkscape:path-effect
       effect="fillet_chamfer"
       id="path-effect20"
       is_visible="true"
       lpeversion="1"
       nodesatellites_param="F,0,0,1,0,0,0,1 @ F,0,0,1,0,1.4620002,0,1 @ F,0,0,1,0,2.5970285,0,1 @ F,0,1,1,0,1.4620002,0,1 @ F,0,0,1,0,0,0,1"
       radius="0"
       unit="px"
       method="auto"
       mode="F"
       chamfer_steps="1"
       flexible="false"
       use_knot_distance="true"
       apply_no_radius="true"
       apply_with_radius="true"
       only_selected="false"
       hide_knots="false" />
    <filter
       inkscape:collect="always"
       style="color-interpolation-filters:sRGB"
       id="filter24"
       x="-0.1373995"
       y="-0.1373995"
       width="1.274799"
       height="1.274799">
      <feGaussianBlur
         inkscape:collect="always"
         stdDeviation="2.8178162"
         id="feGaussianBlur24" />
    </filter>
    <inkscape:path-effect
       effect="fillet_chamfer"
       id="path-effect17-6"
       is_visible="true"
       lpeversion="1"
       nodesatellites_param="F,0,1,1,0,13.349292,0,1 @ F,0,1,1,0,13.349292,0,1 @ F,0,0,1,0,13.349292,0,1 @ F,0,1,1,0,13.349292,0,1"
       radius="0"
       unit="px"
       method="auto"
       mode="F"
       chamfer_steps="1"
       flexible="false"
       use_knot_distance="true"
       apply_no_radius="true"
       apply_with_radius="true"
       only_selected="false"
       hide_knots="false" />
    <radialGradient
       inkscape:collect="always"
       xlink:href="#linearGradient17"
       id="radialGradient18"
       cx="19.366661"
       cy="21.564892"
       fx="19.366661"
       fy="21.564892"
       r="24.973742"
       gradientUnits="userSpaceOnUse"
       gradientTransform="matrix(2.3579563,1.3613667,-1.3613667,2.3579563,3.0586461,-55.649309)" />
    <linearGradient
       id="linearGradient17"
       inkscape:collect="always">
      <stop
         style="stop-color:#ffde75;stop-opacity:1;"
         offset="0"
         id="stop17" />
      <stop
         style="stop-color:#f0bb37;stop-opacity:1;"
         offset="1"
         id="stop18" />
    </linearGradient>
    <inkscape:path-effect
       effect="fillet_chamfer"
       id="path-effect17"
       is_visible="true"
       lpeversion="1"
       nodesatellites_param="F,0,1,1,0,13.349292,0,1 @ F,0,1,1,0,13.349292,0,1 @ F,0,0,1,0,13.349292,0,1 @ F,0,1,1,0,13.349292,0,1"
       radius="0"
       unit="px"
       method="auto"
       mode="F"
       chamfer_steps="1"
       flexible="false"
       use_knot_distance="true"
       apply_no_radius="true"
       apply_with_radius="true"
       only_selected="false"
       hide_knots="false" />
  </defs>
  <sodipodi:namedview
     id="namedview15"
     pagecolor="#ffffff"
     bordercolor="#000000"
     borderopacity="0.25"
     inkscape:showpageshadow="2"
     inkscape:pageopacity="0.0"
     inkscape:pagecheckerboard="0"
     inkscape:deskcolor="#d1d1d1"
     inkscape:zoom="12.25"
     inkscape:cx="32"
     inkscape:cy="32"
     inkscape:window-width="1920"
     inkscape:window-height="1018"
     inkscape:window-x="0"
     inkscape:window-y="0"
     inkscape:window-maximized="1"
     inkscape:current-layer="svg15" />
  <path
     id="rect17"
     style="fill:url(#radialGradient18);stroke:#000000;stroke-width:0;stroke-linecap:round;stroke-linejoin:round"
     d="M 20.565803,7.9015241 H 43.814702 A 13.349292,13.349292 45 0 1 57.163994,21.250816 V 44.499715 A 13.349292,13.349292 135 0 1 43.814702,57.849007 l -23.248899,0 A 13.349292,13.349292 45 0 1 7.2165112,44.499715 l 0,-23.248899 A 13.349292,13.349292 135 0 1 20.565803,7.9015241 Z"
     inkscape:path-effect="#path-effect17"
     inkscape:original-d="M 7.2165112,7.9015241 H 57.163994 V 57.849007 H 7.2165112 Z"
     transform="translate(-0.1902526,-0.87526555)" />
  <path
     id="rect17-20"
     style="opacity:0.256767;mix-blend-mode:hard-light;fill:#570100;fill-opacity:1;stroke:#000000;stroke-width:0;stroke-linecap:round;stroke-linejoin:round"
     d="m 49.884765,22.455078 c -0.868136,0.02941 -1.705503,0.477074 -2.203125,1.271484 l -4.453125,7.111328 c -3.542412,-1.534487 -7.361336,-2.342869 -11.230469,-2.353515 -3.855744,0.0068 -7.662,0.803769 -11.195312,2.324218 l -4.435547,-7.082031 c -0.497621,-0.79441 -1.333305,-1.240202 -2.201172,-1.269531 -0.52072,-0.0176 -1.05265,0.113536 -1.529297,0.412109 -1.271055,0.796194 -1.653615,2.461366 -0.857422,3.732422 l 4.265625,6.810547 C 12.232353,35.995075 9.1686153,39.429297 7.0253906,43.36914 V 43.625 A 13.349292,13.349292 0 0 0 20.253906,56.96289 c 8.606218,10e-4 16.038019,-2.46e-4 23.544922,-0.0059 A 13.349292,13.349292 0 0 0 56.974609,43.625 v -0.248047 c -2.137487,-3.928624 -5.191727,-7.353464 -8.990234,-9.933594 l 4.287109,-6.841797 c 0.796194,-1.271056 0.413634,-2.936228 -0.857422,-3.732422 -0.476646,-0.298573 -1.008415,-0.431707 -1.529297,-0.414062 z M 23.410156,43.384765 a 3.7356377,3.7356377 0 0 1 3.734375,3.736328 3.7356377,3.7356377 0 0 1 -3.734375,3.736328 3.7356377,3.7356377 0 0 1 -3.736328,-3.736328 3.7356377,3.7356377 0 0 1 3.736328,-3.736328 z m 17.603515,0.216797 a 3.7356377,3.7356377 0 0 1 3.734375,3.734375 3.7356377,3.7356377 0 0 1 -3.734375,3.736328 3.7356377,3.7356377 0 0 1 -3.736328,-3.736328 3.7356377,3.7356377 0 0 1 3.736328,-3.734375 z" />
  <path
     id="rect17-2"
     style="fill:none;stroke:#000000;stroke-width:0.2;stroke-linecap:round;stroke-linejoin:round;stroke-dasharray:none;filter:url(#filter24)"
     d="M 20.565803,7.9015241 H 43.814702 A 13.349292,13.349292 45 0 1 57.163994,21.250816 V 44.499715 A 13.349292,13.349292 135 0 1 43.814702,57.849007 l -23.248899,0 A 13.349292,13.349292 45 0 1 7.2165112,44.499715 l 0,-23.248899 A 13.349292,13.349292 135 0 1 20.565803,7.9015241 Z"
     inkscape:path-effect="#path-effect17-6"
     inkscape:original-d="M 7.2165112,7.9015241 H 57.163994 V 57.849007 H 7.2165112 Z"
     transform="translate(-0.1902526,-0.87526555)" />
  <path
     style="fill:#ffffff;fill-opacity:1;stroke:none;stroke-width:0.461708;stroke-linecap:round;stroke-linejoin:round;stroke-dasharray:none;stroke-opacity:1"
     d="m 29.087163,16.099292 15.668004,34.077417 a 4.2291445,4.2291445 46.238043 0 0 1.911433,1.995876 l 0.338716,0.173837 a 2.0406641,2.0406641 155.32712 0 0 2.916162,-1.339614 l 0.08933,-0.372474 A 4.2246102,4.2246102 84.397204 0 0 49.741031,47.884321 L 34.073029,13.806904 Z"
     id="path15-3"
     sodipodi:nodetypes="cccccc"
     inkscape:transform-center-x="0.019132998"
     inkscape:transform-center-y="0.23028533"
     inkscape:path-effect="#path-effect20"
     inkscape:original-d="M 29.087163,16.099292 45.3659,51.505035 49.315819,53.532226 50.351764,49.212647 34.073029,13.806904 Z"
     transform="matrix(0.93405589,0,0,0.93405589,1.9747099,2.3533461)" />
  <path
     style="fill:none;fill-opacity:1;stroke:#000000;stroke-width:0.2;stroke-linecap:round;stroke-linejoin:round;stroke-dasharray:none;stroke-opacity:1;filter:url(#filter22)"
     d="m 29.087163,16.099292 15.668004,34.077417 a 4.2291445,4.2291445 46.238043 0 0 1.911433,1.995876 l 0.338716,0.173837 a 2.0406641,2.0406641 155.32712 0 0 2.916162,-1.339614 l 0.08933,-0.372474 A 4.2246102,4.2246102 84.397204 0 0 49.741031,47.884321 L 34.073029,13.806904 Z"
     id="path15-3-2"
     sodipodi:nodetypes="cccccc"
     inkscape:transform-center-x="0.019132998"
     inkscape:transform-center-y="0.23028533"
     inkscape:path-effect="#path-effect20-1"
     inkscape:original-d="M 29.087163,16.099292 45.3659,51.505035 49.315819,53.532226 50.351764,49.212647 34.073029,13.806904 Z"
     transform="matrix(0.93405589,0,0,0.93405589,1.9719096,2.3520223)" />
  <path
     id="path15"
     style="fill:#ffffff;fill-opacity:1;stroke:none;stroke-width:0.461708;stroke-linecap:round;stroke-linejoin:round;stroke-dasharray:none;stroke-opacity:1"
     d="M 29.923391,13.917635 14.698914,47.786338 a 5.0345955,5.0345955 94.159568 0 0 -0.250339,3.442213 l 0.0043,0.01516 a 2.0280241,2.0280241 24.181444 0 0 2.831693,1.271511 l 0.01159,-0.0056 a 5.0409252,5.0409252 134.22649 0 0 2.407627,-2.473528 L 25.295124,37.59752 c 10.310416,2.018587 21.0111,-2.937023 25.978122,-12.558563 0.334058,-0.647097 0.03445,-1.429669 -0.629847,-1.728281 l -2.603358,-1.17025 c -0.664299,-0.298612 -1.44084,5.98e-4 -1.785164,0.642226 -3.681538,6.860318 -11.176906,10.56 -18.632344,9.637261 l 7.305743,-16.25251 z"
     sodipodi:nodetypes="cccccccccc"
     inkscape:path-effect="#path-effect21"
     inkscape:original-d="m 29.923391,13.917635 -15.977611,35.54414 1.167088,4.101039 3.837796,-1.851268 6.34446,-14.114026 c 10.726534,2.100055 21.875474,-3.34839 26.551094,-13.746159 l -5.008996,-2.25162 C 43.413569,29.21378 35.495786,33.394364 27.622533,32.419913 l 7.305743,-16.25251 z"
     transform="matrix(0.93405589,0,0,0.93405589,1.9747099,2.3533461)" />
  <path
     id="path15-7"
     style="fill:none;fill-opacity:1;stroke:#000000;stroke-width:0.2;stroke-linecap:round;stroke-linejoin:round;stroke-dasharray:none;stroke-opacity:1;filter:url(#filter21)"
     d="M 29.923391,13.917635 14.698914,47.786338 a 5.0345955,5.0345955 94.159568 0 0 -0.250339,3.442213 l 0.0043,0.01516 a 2.0280241,2.0280241 24.181444 0 0 2.831693,1.271511 l 0.01159,-0.0056 a 5.0409252,5.0409252 134.22649 0 0 2.407627,-2.473528 L 25.295124,37.59752 c 10.310416,2.018587 21.0111,-2.937023 25.978122,-12.558563 0.334058,-0.647097 0.03445,-1.429669 -0.629847,-1.728281 l -2.603358,-1.17025 c -0.664299,-0.298612 -1.44084,5.98e-4 -1.785164,0.642226 -3.681538,6.860318 -11.176906,10.56 -18.632344,9.637261 l 7.305743,-16.25251 z"
     sodipodi:nodetypes="cccccccccc"
     inkscape:path-effect="#path-effect21-9"
     inkscape:original-d="m 29.923391,13.917635 -15.977611,35.54414 1.167088,4.101039 3.837796,-1.851268 6.34446,-14.114026 c 10.726534,2.100055 21.875474,-3.34839 26.551094,-13.746159 l -5.008996,-2.25162 C 43.413569,29.21378 35.495786,33.394364 27.622533,32.419913 l 7.305743,-16.25251 z"
     transform="matrix(0.93405589,0,0,0.93405589,1.9719096,2.3520223)" />
  <path
     id="path17"
     style="fill:#414141;fill-opacity:1;stroke:none;stroke-width:0.581031;stroke-linecap:round;stroke-linejoin:round;stroke-dasharray:none;stroke-opacity:1"
     d="m 30.378906,11.181705 v 0.515899 c 0,0.269483 -0.210619,0.547322 -0.462936,0.641787 -2.519237,0.943177 -4.215212,3.358688 -4.214798,6.082484 2.91e-4,3.586494 2.907646,6.493849 6.49414,6.494141 3.586494,-2.91e-4 6.49385,-2.907647 6.494141,-6.494141 -0.0066,-2.581225 -1.538436,-4.896488 -3.872705,-5.925519 -0.246548,-0.108687 -0.453467,-0.39841 -0.453467,-0.667893 V 11.181705 A 1.9277992,1.9277992 45 0 0 32.435482,9.2539062 h -0.128777 a 1.9277992,1.9277992 135 0 0 -1.927799,1.9277988 z m 1.816406,5.95892 c 0.707299,7.61e-4 1.280489,0.573951 1.28125,1.28125 -7.61e-4,0.707299 -0.573951,1.280489 -1.28125,1.28125 -0.707299,-7.61e-4 -1.280489,-0.573951 -1.28125,-1.28125 7.61e-4,-0.707299 0.573951,-1.280489 1.28125,-1.28125 z"
     inkscape:path-effect="#path-effect22"
     inkscape:original-d="m 30.378906,9.2539062 v 2.9316408 a 6.4946687,6.4946687 0 0 0 -4.677734,6.236328 6.4946687,6.4946687 0 0 0 6.49414,6.494141 6.4946687,6.4946687 0 0 0 6.494141,-6.494141 6.4946687,6.4946687 0 0 0 -4.326172,-6.105469 V 9.2539062 Z m 1.816406,7.8867188 a 1.2826307,1.2826307 0 0 1 1.28125,1.28125 1.2826307,1.2826307 0 0 1 -1.28125,1.28125 1.2826307,1.2826307 0 0 1 -1.28125,-1.28125 1.2826307,1.2826307 0 0 1 1.28125,-1.28125 z"
     transform="matrix(0.93405589,0,0,0.93405589,1.9747099,2.3533461)" />
  <path
     id="path17-9"
     style="fill:none;fill-opacity:1;stroke:#000000;stroke-width:0.2;stroke-linecap:round;stroke-linejoin:round;stroke-dasharray:none;stroke-opacity:1;filter:url(#filter23)"
     d="m 30.378906,11.181705 v 0.515899 c 0,0.269483 -0.210619,0.547322 -0.462936,0.641787 -2.519237,0.943177 -4.215212,3.358688 -4.214798,6.082484 2.91e-4,3.586494 2.907646,6.493849 6.49414,6.494141 3.586494,-2.91e-4 6.49385,-2.907647 6.494141,-6.494141 -0.0066,-2.581225 -1.538436,-4.896488 -3.872705,-5.925519 -0.246548,-0.108687 -0.453467,-0.39841 -0.453467,-0.667893 V 11.181705 A 1.9277992,1.9277992 45 0 0 32.435482,9.2539062 h -0.128777 a 1.9277992,1.9277992 135 0 0 -1.927799,1.9277988 z m 1.816406,5.95892 c 0.707299,7.61e-4 1.280489,0.573951 1.28125,1.28125 -7.61e-4,0.707299 -0.573951,1.280489 -1.28125,1.28125 -0.707299,-7.61e-4 -1.280489,-0.573951 -1.28125,-1.28125 7.61e-4,-0.707299 0.573951,-1.280489 1.28125,-1.28125 z"
     inkscape:path-effect="#path-effect22-0"
     inkscape:original-d="m 30.378906,9.2539062 v 2.9316408 a 6.4946687,6.4946687 0 0 0 -4.677734,6.236328 6.4946687,6.4946687 0 0 0 6.49414,6.494141 6.4946687,6.4946687 0 0 0 6.494141,-6.494141 6.4946687,6.4946687 0 0 0 -4.326172,-6.105469 V 9.2539062 Z m 1.816406,7.8867188 a 1.2826307,1.2826307 0 0 1 1.28125,1.28125 1.2826307,1.2826307 0 0 1 -1.28125,1.28125 1.2826307,1.2826307 0 0 1 -1.28125,-1.28125 1.2826307,1.2826307 0 0 1 1.28125,-1.28125 z"
     transform="matrix(0.93405589,0,0,0.93405589,1.9747099,2.3533461)" />
</svg>
