<?xml version="1.0" encoding="UTF-8" standalone="no"?>
<svg
   width="64"
   height="64"
   version="1"
   id="svg16"
   sodipodi:docname="preferences-desktop-multimedia.svg"
   inkscape:version="1.3.2 (091e20ef0f, 2023-11-25, custom)"
   xmlns:inkscape="http://www.inkscape.org/namespaces/inkscape"
   xmlns:sodipodi="http://sodipodi.sourceforge.net/DTD/sodipodi-0.dtd"
   xmlns:xlink="http://www.w3.org/1999/xlink"
   xmlns="http://www.w3.org/2000/svg"
   xmlns:svg="http://www.w3.org/2000/svg">
  <defs
     id="defs16">
    <linearGradient
       id="linearGradient17"
       inkscape:collect="always">
      <stop
         style="stop-color:#863ea7;stop-opacity:1;"
         offset="0"
         id="stop18" />
      <stop
         style="stop-color:#643ea8;stop-opacity:1;"
         offset="1"
         id="stop19" />
    </linearGradient>
    <inkscape:path-effect
       effect="fillet_chamfer"
       id="path-effect17"
       is_visible="true"
       lpeversion="1"
       nodesatellites_param="F,0,1,1,0,9.892711,0,1 @ F,0,1,1,0,9.892711,0,1 @ F,0,0,1,0,9.892711,0,1 @ F,0,1,1,0,9.892711,0,1"
       radius="0"
       unit="px"
       method="auto"
       mode="F"
       chamfer_steps="1"
       flexible="false"
       use_knot_distance="true"
       apply_no_radius="true"
       apply_with_radius="true"
       only_selected="false"
       hide_knots="false" />
    <linearGradient
       id="linearGradient16"
       inkscape:collect="always">
      <stop
         style="stop-color:#ff8b00;stop-opacity:1;"
         offset="0"
         id="stop16" />
      <stop
         style="stop-color:#ff5722;stop-opacity:1;"
         offset="1"
         id="stop17" />
    </linearGradient>
    <radialGradient
       inkscape:collect="always"
       xlink:href="#linearGradient16"
       id="radialGradient17"
       cx="38.59499"
       cy="41.658955"
       fx="38.59499"
       fy="41.658955"
       r="18"
       gradientTransform="matrix(1.3064482,-1.3064482,1.3064877,1.3064877,-67.742597,41.99851)"
       gradientUnits="userSpaceOnUse" />
    <radialGradient
       inkscape:collect="always"
       xlink:href="#linearGradient17"
       id="radialGradient19"
       cx="-23.026754"
       cy="-25.77352"
       fx="-23.026754"
       fy="-25.77352"
       r="23"
       gradientTransform="matrix(2.7058981,-2.7058982,3.2941371,3.2941371,118.2543,13.472273)"
       gradientUnits="userSpaceOnUse" />
    <inkscape:path-effect
       effect="fillet_chamfer"
       id="path-effect17-6"
       is_visible="true"
       lpeversion="1"
       nodesatellites_param="F,0,1,1,0,9.892711,0,1 @ F,0,1,1,0,9.892711,0,1 @ F,0,0,1,0,9.892711,0,1 @ F,0,1,1,0,9.892711,0,1"
       radius="0"
       unit="px"
       method="auto"
       mode="F"
       chamfer_steps="1"
       flexible="false"
       use_knot_distance="true"
       apply_no_radius="true"
       apply_with_radius="true"
       only_selected="false"
       hide_knots="false" />
    <filter
       inkscape:collect="always"
       style="color-interpolation-filters:sRGB"
       id="filter21"
       x="-0.10853861"
       y="-0.10853534"
       width="1.2170772"
       height="1.2170707">
      <feGaussianBlur
         inkscape:collect="always"
         stdDeviation="1.5864125"
         id="feGaussianBlur21" />
    </filter>
    <filter
       inkscape:collect="always"
       style="color-interpolation-filters:sRGB"
       id="filter22"
       x="-0.069774824"
       y="-0.084943264"
       width="1.1395496"
       height="1.1698865">
      <feGaussianBlur
         inkscape:collect="always"
         stdDeviation="1.5864125"
         id="feGaussianBlur22" />
    </filter>
  </defs>
  <sodipodi:namedview
     id="namedview16"
     pagecolor="#ffffff"
     bordercolor="#000000"
     borderopacity="0.25"
     inkscape:showpageshadow="2"
     inkscape:pageopacity="0.0"
     inkscape:pagecheckerboard="0"
     inkscape:deskcolor="#d1d1d1"
     inkscape:zoom="9.1260969"
     inkscape:cx="34.899914"
     inkscape:cy="28.270574"
     inkscape:window-width="1920"
     inkscape:window-height="1020"
     inkscape:window-x="0"
     inkscape:window-y="0"
     inkscape:window-maximized="1"
     inkscape:current-layer="svg16" />
  <path
     id="rect2"
     style="fill:url(#radialGradient19)"
     transform="matrix(0,-1,-1,0,0,0)"
     d="m -42.107289,-60 h 26.214578 A 9.892711,9.892711 45 0 1 -6,-50.107289 v 36.214578 A 9.892711,9.892711 135 0 1 -15.892711,-4 H -42.107289 A 9.892711,9.892711 45 0 1 -52,-13.892711 l 0,-36.214578 A 9.892711,9.892711 135 0 1 -42.107289,-60 Z"
     inkscape:path-effect="#path-effect17"
     inkscape:original-d="M -52,-60 H -6 V -4 H -52 Z" />
  <path
     style="fill:#ffffff"
     d="M 25.610422,18.000416 A 1.5737729,1.5315948 0 0 0 24,19.53075 v 9.470964 9.46634 a 1.5737729,1.5315948 0 0 0 2.360384,1.326906 l 8.425914,-4.734326 8.425912,-4.734324 a 1.5737729,1.5315948 0 0 0 0,-2.653814 L 34.786298,22.93817 26.360384,18.206156 a 1.5737729,1.5315948 0 0 0 -0.749962,-0.20574 z"
     id="path3" />
  <path
     id="rect3"
     style="opacity:0.3;stroke-width:1.00262"
     d="m 9.2901891,12.956714 c -0.7498614,0 -1.35315,0.584647 -1.35315,1.310069 v 3.395603 c 0,0.725422 0.6032886,1.310069 1.35315,1.310069 H 12.59963 c 0.749861,0 1.353149,-0.584647 1.353149,-1.310069 v -3.395603 c 0,-0.725422 -0.603288,-1.310069 -1.353149,-1.310069 z m 42.1101809,0 c -0.749861,0 -1.353149,0.584647 -1.353149,1.310069 v 3.395603 c 0,0.725422 0.603288,1.310069 1.353149,1.310069 h 3.309441 c 0.749861,0 1.35315,-0.584647 1.35315,-1.310069 v -3.395603 c 0,-0.725422 -0.603289,-1.310069 -1.35315,-1.310069 z M 9.2901891,21.980325 c -0.7498614,0 -1.35315,0.584646 -1.35315,1.310069 v 3.395602 c 0,0.725422 0.6032886,1.310069 1.35315,1.310069 H 12.59963 c 0.749861,0 1.353149,-0.584647 1.353149,-1.310069 v -3.395602 c 0,-0.725423 -0.603288,-1.310069 -1.353149,-1.310069 z m 42.1101809,0 c -0.749861,0 -1.353149,0.584646 -1.353149,1.310069 v 3.395602 c 0,0.725422 0.603288,1.310069 1.353149,1.310069 h 3.309441 c 0.749861,0 1.35315,-0.584647 1.35315,-1.310069 v -3.395602 c 0,-0.725423 -0.603289,-1.310069 -1.35315,-1.310069 z m -42.1101809,9.02361 c -0.7498614,0 -1.35315,0.584647 -1.35315,1.310069 v 3.395602 c 0,0.725423 0.6032886,1.310069 1.35315,1.310069 H 12.59963 c 0.749861,0 1.353149,-0.584646 1.353149,-1.310069 v -3.395602 c 0,-0.725422 -0.603288,-1.310069 -1.353149,-1.310069 z m 42.1101809,0 c -0.749861,0 -1.353149,0.584647 -1.353149,1.310069 v 3.395602 c 0,0.725423 0.603288,1.310069 1.353149,1.310069 h 3.309441 c 0.749861,0 1.35315,-0.584646 1.35315,-1.310069 v -3.395602 c 0,-0.725422 -0.603289,-1.310069 -1.35315,-1.310069 z m -42.1101809,9.02361 c -0.7498614,0 -1.35315,0.584647 -1.35315,1.310069 v 3.395603 c 0,0.725422 0.6032886,1.310069 1.35315,1.310069 H 12.59963 c 0.749861,0 1.353149,-0.584647 1.353149,-1.310069 v -3.395603 c 0,-0.725422 -0.603288,-1.310069 -1.353149,-1.310069 z m 42.1101809,0 c -0.749861,0 -1.353149,0.584647 -1.353149,1.310069 v 3.395603 c 0,0.725422 0.603288,1.310069 1.353149,1.310069 h 3.309441 c 0.749861,0 1.35315,-0.584647 1.35315,-1.310069 v -3.395603 c 0,-0.725422 -0.603289,-1.310069 -1.35315,-1.310069 z" />
  <path
     id="path12"
     style="color:#000000;fill:url(#radialGradient17);stroke-linejoin:round;-inkscape-stroke:none"
     d="M 57.082031 24 A 3.0003 3.0003 0 0 0 56.316406 24.078125 L 34.316406 29.220703 A 3.0003 3.0003 0 0 0 32 32.142578 L 32 46.072266 A 7 7 0 0 0 31 46 A 7 7 0 0 0 24 53 A 7 7 0 0 0 31 60 A 7 7 0 0 0 38 53 L 38 34.521484 L 54 30.783203 L 54 42.072266 A 7 7 0 0 0 53 42 A 7 7 0 0 0 46 49 A 7 7 0 0 0 53 56 A 7 7 0 0 0 60 49 L 60 27 A 3.0003 3.0003 0 0 0 57.082031 24 z " />
  <path
     d="M 13.916016,5.9765625 C 8.4525315,5.9766359 4.0235109,10.405656 4.0234375,15.869141 v 26.214843 c 7.34e-5,5.463485 4.429094,9.892505 9.8925785,9.892578 h 10.1875 c 0.486696,-3.390628 3.394635,-6 6.919921,-6 0.334632,1.56e-4 0.668823,0.02431 1,0.07227 v -9.447266 l -5.640625,3.169922 c -1.048804,0.588018 -2.358625,-0.148213 -2.359375,-1.326172 v -9.466796 -9.470704 c -2.7e-5,-0.859458 0.726475,-1.550692 1.609375,-1.53125 0.26371,0.0061 0.521612,0.07663 0.75,0.205079 l 8.425782,4.732421 7.759765,4.359375 13.771485,-3.21875 c 0.250796,-0.0588 0.508121,-0.08506 0.765625,-0.07813 1.624663,0.0446 2.918418,1.374726 2.917968,3 V 15.869141 c -7.3e-5,-5.464247 -4.430284,-9.8935839 -9.894531,-9.8925785 z m 40.107421,24.7832035 -16,3.738281 v 17.478515 h 8.683594 c -0.433258,-0.910378 -0.683594,-1.924662 -0.683594,-3 0,-3.865989 3.134011,-7 7,-7 0.334632,1.56e-4 0.668823,0.02431 1,0.07227 z"
     style="fill:none;stroke:#000000;stroke-width:0.2;filter:url(#filter22)"
     id="path21" />
  <path
     d="m 57.105469,23.976562 a 3.0003,3.0003 0 0 0 -0.765625,0.07813 l -22,5.142579 a 3.0003,3.0003 0 0 0 -2.316407,2.921875 v 13.929687 a 7,7 0 0 0 -1,-0.07227 7,7 0 0 0 -7,7 7,7 0 0 0 7,7 7,7 0 0 0 7,-7 V 34.498047 l 16,-3.738281 v 11.289062 a 7,7 0 0 0 -1,-0.07227 7,7 0 0 0 -7,7 7,7 0 0 0 7,7 7,7 0 0 0 7,-7 v -22 a 3.0003,3.0003 0 0 0 -2.917968,-3 z"
     style="fill:none;stroke:#000000;stroke-width:0.2;stroke-linejoin:round;filter:url(#filter21)"
     id="path20" />
</svg>
