<?xml version="1.0" encoding="UTF-8" standalone="no"?>
<svg
   width="64"
   height="64"
   version="1"
   id="svg13"
   sodipodi:docname="application-x-lhz.svg"
   inkscape:version="1.4 (e7c3feb100, 2024-10-09)"
   xmlns:inkscape="http://www.inkscape.org/namespaces/inkscape"
   xmlns:sodipodi="http://sodipodi.sourceforge.net/DTD/sodipodi-0.dtd"
   xmlns:xlink="http://www.w3.org/1999/xlink"
   xmlns="http://www.w3.org/2000/svg"
   xmlns:svg="http://www.w3.org/2000/svg">
  <defs
     id="defs13">
    <inkscape:path-effect
       effect="fillet_chamfer"
       id="path-effect4"
       is_visible="true"
       lpeversion="1"
       nodesatellites_param="F,0,0,1,0,0,0,1 @ F,0,0,1,0,0,0,1 @ F,0,0,1,0,0,0,1 @ F,0,0,1,0,0,0,1 @ F,0,0,1,0,0,0,1 @ F,0,0,1,0,0,0,1 @ F,0,0,1,0,0,0,1"
       radius="0"
       unit="px"
       method="auto"
       mode="F"
       chamfer_steps="1"
       flexible="false"
       use_knot_distance="true"
       apply_no_radius="true"
       apply_with_radius="true"
       only_selected="false"
       hide_knots="false" />
    <linearGradient
       id="linearGradient49"
       inkscape:collect="always">
      <stop
         style="stop-color:#15f19f;stop-opacity:1;"
         offset="0"
         id="stop49" />
      <stop
         style="stop-color:#1cbf6d;stop-opacity:1;"
         offset="1"
         id="stop50" />
    </linearGradient>
    <radialGradient
       id="radialGradient48"
       cx="32"
       cy="39"
       r="40.048599"
       fx="14.0678"
       fy="24.8514"
       gradientUnits="userSpaceOnUse"
       gradientTransform="translate(-1.9999998e-8,-2.62354)"
       fr="0"
       spreadMethod="pad">
      <stop
         offset="0"
         style="stop-color:#20f488;stop-opacity:1;"
         id="stop47" />
      <stop
         offset="1"
         style="stop-color:#15ff67;stop-opacity:1;"
         id="stop48" />
    </radialGradient>
    <radialGradient
       id="radialGradient46"
       cx="32"
       cy="39"
       r="40.048599"
       fx="14.0678"
       fy="24.8514"
       gradientUnits="userSpaceOnUse"
       gradientTransform="translate(-1.9999998e-8,-2.62354)"
       fr="0"
       spreadMethod="pad">
      <stop
         offset="0"
         style="stop-color:#20f488;stop-opacity:1;"
         id="stop45" />
      <stop
         offset="1"
         style="stop-color:#15ff67;stop-opacity:1;"
         id="stop46" />
    </radialGradient>
    <radialGradient
       id="radialGradient44"
       cx="32"
       cy="39"
       r="40.048599"
       fx="14.0678"
       fy="24.8514"
       gradientUnits="userSpaceOnUse"
       gradientTransform="translate(-1.9999998e-8,-2.62354)"
       fr="0"
       spreadMethod="pad">
      <stop
         offset="0"
         style="stop-color:#20f488;stop-opacity:1;"
         id="stop43" />
      <stop
         offset="1"
         style="stop-color:#15ff67;stop-opacity:1;"
         id="stop44" />
    </radialGradient>
    <radialGradient
       id="radialGradient42"
       cx="32"
       cy="39"
       r="40.048599"
       fx="14.0678"
       fy="24.8514"
       gradientUnits="userSpaceOnUse"
       gradientTransform="translate(-1.9999998e-8,-2.62354)"
       fr="0"
       spreadMethod="pad">
      <stop
         offset="0"
         style="stop-color:#1cf488;stop-opacity:1;"
         id="stop41" />
      <stop
         offset="1"
         style="stop-color:#15ff67;stop-opacity:1;"
         id="stop42" />
    </radialGradient>
    <radialGradient
       id="radialGradient40"
       cx="32"
       cy="39"
       r="40.048599"
       fx="14.0678"
       fy="24.8514"
       gradientUnits="userSpaceOnUse"
       gradientTransform="translate(-1.9999998e-8,-2.62354)"
       fr="0"
       spreadMethod="pad">
      <stop
         offset="0"
         style="stop-color:#10f488;stop-opacity:1;"
         id="stop39" />
      <stop
         offset="1"
         style="stop-color:#15ff67;stop-opacity:1;"
         id="stop40" />
    </radialGradient>
    <radialGradient
       id="radialGradient38"
       cx="32"
       cy="39"
       r="40.048599"
       fx="14.0678"
       fy="24.8514"
       gradientUnits="userSpaceOnUse"
       gradientTransform="translate(-1.9999998e-8,-2.62354)"
       fr="0"
       spreadMethod="pad">
      <stop
         offset="0"
         style="stop-color:#02f488;stop-opacity:1;"
         id="stop37" />
      <stop
         offset="1"
         style="stop-color:#15ff67;stop-opacity:1;"
         id="stop38" />
    </radialGradient>
    <radialGradient
       id="radialGradient36"
       cx="32"
       cy="39"
       r="40.048599"
       fx="14.0678"
       fy="24.8514"
       gradientUnits="userSpaceOnUse"
       gradientTransform="translate(-1.9999998e-8,-2.62354)"
       fr="0"
       spreadMethod="pad">
      <stop
         offset="0"
         style="stop-color:#01f488;stop-opacity:1;"
         id="stop35" />
      <stop
         offset="1"
         style="stop-color:#15ff67;stop-opacity:1;"
         id="stop36" />
    </radialGradient>
    <radialGradient
       id="radialGradient34"
       cx="32"
       cy="39"
       r="40.048599"
       fx="14.0678"
       fy="24.8514"
       gradientUnits="userSpaceOnUse"
       gradientTransform="translate(-1.9999998e-8,-2.62354)"
       fr="0"
       spreadMethod="pad">
      <stop
         offset="0"
         style="stop-color:#01f488;stop-opacity:1;"
         id="stop33" />
      <stop
         offset="1"
         style="stop-color:#15ff67;stop-opacity:1;"
         id="stop34" />
    </radialGradient>
    <radialGradient
       id="radialGradient32"
       cx="32"
       cy="39"
       r="40.048599"
       fx="14.0678"
       fy="24.8514"
       gradientUnits="userSpaceOnUse"
       gradientTransform="translate(-1.9999998e-8,-2.62354)"
       fr="0"
       spreadMethod="pad">
      <stop
         offset="0"
         style="stop-color:#01f488;stop-opacity:1;"
         id="stop31" />
      <stop
         offset="1"
         style="stop-color:#15ff67;stop-opacity:1;"
         id="stop32" />
    </radialGradient>
    <radialGradient
       id="radialGradient30"
       cx="32"
       cy="39"
       r="40.048599"
       fx="14.0678"
       fy="24.8514"
       gradientUnits="userSpaceOnUse"
       gradientTransform="translate(-1.9999998e-8,-2.62354)"
       fr="0"
       spreadMethod="pad">
      <stop
         offset="0"
         style="stop-color:#59f488;stop-opacity:1;"
         id="stop29" />
      <stop
         offset="1"
         style="stop-color:#15ff67;stop-opacity:1;"
         id="stop30" />
    </radialGradient>
    <radialGradient
       id="radialGradient28"
       cx="32"
       cy="39"
       r="40.048599"
       fx="14.0678"
       fy="24.8514"
       gradientUnits="userSpaceOnUse"
       gradientTransform="translate(-1.9999998e-8,-2.62354)"
       fr="0"
       spreadMethod="pad">
      <stop
         offset="0"
         style="stop-color:#59f488;stop-opacity:1;"
         id="stop27" />
      <stop
         offset="1"
         style="stop-color:#15ff67;stop-opacity:1;"
         id="stop28" />
    </radialGradient>
    <radialGradient
       id="radialGradient26"
       cx="32"
       cy="39"
       r="40.048599"
       fx="14.0678"
       fy="24.8514"
       gradientUnits="userSpaceOnUse"
       gradientTransform="translate(-1.9999998e-8,-2.62354)"
       fr="0"
       spreadMethod="pad">
      <stop
         offset="0"
         style="stop-color:#59f488;stop-opacity:1;"
         id="stop25" />
      <stop
         offset="1"
         style="stop-color:#15ff67;stop-opacity:1;"
         id="stop26" />
    </radialGradient>
    <radialGradient
       id="radialGradient24"
       cx="32"
       cy="39"
       r="40.048599"
       fx="14.0678"
       fy="24.8514"
       gradientUnits="userSpaceOnUse"
       gradientTransform="translate(-1.9999998e-8,-2.62354)"
       fr="0"
       spreadMethod="pad">
      <stop
         offset="0"
         style="stop-color:#54f488;stop-opacity:1;"
         id="stop23" />
      <stop
         offset="1"
         style="stop-color:#15ff67;stop-opacity:1;"
         id="stop24" />
    </radialGradient>
    <radialGradient
       id="radialGradient22"
       cx="32"
       cy="39"
       r="40.048599"
       fx="14.0678"
       fy="24.8514"
       gradientUnits="userSpaceOnUse"
       gradientTransform="translate(-1.9999998e-8,-2.62354)"
       fr="0"
       spreadMethod="pad">
      <stop
         offset="0"
         style="stop-color:#50f488;stop-opacity:1;"
         id="stop21" />
      <stop
         offset="1"
         style="stop-color:#15ff67;stop-opacity:1;"
         id="stop22" />
    </radialGradient>
    <radialGradient
       id="radialGradient20"
       cx="32"
       cy="39"
       r="40.048599"
       fx="14.0678"
       fy="24.8514"
       gradientUnits="userSpaceOnUse"
       gradientTransform="translate(-1.9999998e-8,-2.62354)"
       fr="0"
       spreadMethod="pad">
      <stop
         offset="0"
         style="stop-color:#40f488;stop-opacity:1;"
         id="stop19" />
      <stop
         offset="1"
         style="stop-color:#15ff67;stop-opacity:1;"
         id="stop20" />
    </radialGradient>
    <radialGradient
       id="radialGradient18"
       cx="32"
       cy="39"
       r="40.048599"
       fx="14.0678"
       fy="24.8514"
       gradientUnits="userSpaceOnUse"
       gradientTransform="translate(-1.9999998e-8,-2.62354)"
       fr="0"
       spreadMethod="pad">
      <stop
         offset="0"
         style="stop-color:#3ef488;stop-opacity:1;"
         id="stop17" />
      <stop
         offset="1"
         style="stop-color:#15ff67;stop-opacity:1;"
         id="stop18" />
    </radialGradient>
    <radialGradient
       id="radialGradient16"
       cx="32"
       cy="39"
       r="40.048599"
       fx="14.0678"
       fy="24.8514"
       gradientUnits="userSpaceOnUse"
       gradientTransform="translate(-1.9999998e-8,-2.62354)"
       fr="0"
       spreadMethod="pad">
      <stop
         offset="0"
         style="stop-color:#3ef488;stop-opacity:1;"
         id="stop15" />
      <stop
         offset="1"
         style="stop-color:#15ff67;stop-opacity:1;"
         id="stop16" />
    </radialGradient>
    <radialGradient
       id="radialGradient14"
       cx="32"
       cy="39"
       r="40.048599"
       fx="14.0678"
       fy="24.8514"
       gradientUnits="userSpaceOnUse"
       gradientTransform="translate(-1.9999998e-8,-2.62354)">
      <stop
         offset="0"
         style="stop-color:#57eec4;stop-opacity:1;"
         id="stop13" />
      <stop
         offset="1"
         style="stop-color:#15ff67;stop-opacity:1;"
         id="stop14" />
    </radialGradient>
    <radialGradient
       id="SVGID_6_"
       cx="32"
       cy="39"
       r="40.048599"
       fx="14.0678"
       fy="24.8514"
       gradientUnits="userSpaceOnUse"
       gradientTransform="translate(-1.9999998e-8,-2.62354)"
       fr="0"
       spreadMethod="pad">
      <stop
         offset="0"
         style="stop-color:#00f488;stop-opacity:1;"
         id="stop11" />
      <stop
         offset="1"
         style="stop-color:#15ff67;stop-opacity:1;"
         id="stop12" />
    </radialGradient>
    <radialGradient
       id="SVGID_5_"
       cx="32"
       cy="38.171398"
       r="40.048599"
       fx="14.0678"
       fy="24.0229"
       gradientUnits="userSpaceOnUse"
       gradientTransform="translate(1.7e-7,0.5000002)">
      <stop
         offset="0"
         style="stop-color:#000000"
         id="stop9" />
      <stop
         offset="1"
         style="stop-color:#545454"
         id="stop10" />
    </radialGradient>
    <radialGradient
       id="SVGID_4_"
       cx="25.213699"
       cy="25.563499"
       r="32.348301"
       fx="16.568701"
       fy="17.644699"
       gradientUnits="userSpaceOnUse"
       gradientTransform="translate(1.7e-7,0.5000002)">
      <stop
         offset="0"
         style="stop-color:#FFFFFF"
         id="stop7" />
      <stop
         offset="1"
         style="stop-color:#B7B7B7"
         id="stop8" />
    </radialGradient>
    <linearGradient
       id="SVGID_3_"
       gradientUnits="userSpaceOnUse"
       x1="8"
       y1="26.7181"
       x2="56"
       y2="26.7181"
       gradientTransform="translate(1.7e-7,0.5000002)">
      <stop
         offset="0"
         style="stop-color:#000000"
         id="stop5" />
      <stop
         offset="1"
         style="stop-color:#404040"
         id="stop6" />
    </linearGradient>
    <radialGradient
       id="SVGID_2_"
       cx="28.128099"
       cy="25.073299"
       r="40.0504"
       fx="5.4853001"
       fy="7.4745002"
       gradientUnits="userSpaceOnUse"
       gradientTransform="translate(0.05000007,0.5000002)"
       xlink:href="#SVGID_6_">
      <stop
         offset="0"
         style="stop-color:#1e7b36;stop-opacity:1;"
         id="stop3" />
      <stop
         offset="1"
         style="stop-color:#32806a;stop-opacity:1;"
         id="stop4" />
    </radialGradient>
    <radialGradient
       id="SVGID_1_"
       cx="28.128099"
       cy="24.486401"
       r="40.0504"
       fx="5.4853001"
       fy="6.8875999"
       gradientUnits="userSpaceOnUse"
       gradientTransform="translate(0.05000007,0.8000002)">
      <stop
         offset="0"
         style="stop-color:#000000"
         id="stop1" />
      <stop
         offset="1"
         style="stop-color:#545454"
         id="stop2" />
    </radialGradient>
    <radialGradient
       id="SVGID_6_-7"
       cx="32"
       cy="39"
       r="40.048599"
       fx="14.0678"
       fy="24.8514"
       gradientUnits="userSpaceOnUse"
       gradientTransform="translate(0.00441344,-2.8431324)">
      <stop
         offset="0"
         style="stop-color:#00F0F4"
         id="stop11-5" />
      <stop
         offset="1"
         style="stop-color:#1598FF"
         id="stop12-3" />
    </radialGradient>
    <radialGradient
       inkscape:collect="always"
       xlink:href="#linearGradient49"
       id="radialGradient50"
       cx="5.2416921"
       cy="59.099987"
       fx="5.2416921"
       fy="59.099987"
       r="28"
       gradientTransform="matrix(0,2.6996941,-2.0593981,6.3737237e-8,136.89528,-2.5902928)"
       gradientUnits="userSpaceOnUse" />
    <inkscape:path-effect
       effect="fillet_chamfer"
       id="path-effect4-3"
       is_visible="true"
       lpeversion="1"
       nodesatellites_param="F,0,0,1,0,0,0,1 @ F,0,0,1,0,0,0,1 @ F,0,0,1,0,0,0,1 @ F,0,0,1,0,0,0,1 @ F,0,0,1,0,0,0,1 @ F,0,0,1,0,0,0,1 @ F,0,0,1,0,0,0,1"
       radius="0"
       unit="px"
       method="auto"
       mode="F"
       chamfer_steps="1"
       flexible="false"
       use_knot_distance="true"
       apply_no_radius="true"
       apply_with_radius="true"
       only_selected="false"
       hide_knots="false" />
    <filter
       inkscape:collect="always"
       style="color-interpolation-filters:sRGB"
       id="filter20"
       x="-0.30855757"
       y="-0.11429489"
       width="1.6171151"
       height="1.2285898">
      <feGaussianBlur
         inkscape:collect="always"
         stdDeviation="1.0860289"
         id="feGaussianBlur20" />
    </filter>
    <filter
       inkscape:collect="always"
       style="color-interpolation-filters:sRGB"
       id="filter21"
       x="-0.32819708"
       y="-0.0861509"
       width="1.6563942"
       height="1.1786382">
      <feGaussianBlur
         inkscape:collect="always"
         stdDeviation="0.67313422"
         id="feGaussianBlur21" />
    </filter>
  </defs>
  <sodipodi:namedview
     id="namedview13"
     pagecolor="#ffffff"
     bordercolor="#000000"
     borderopacity="0.25"
     inkscape:showpageshadow="2"
     inkscape:pageopacity="0.0"
     inkscape:pagecheckerboard="0"
     inkscape:deskcolor="#d1d1d1"
     inkscape:zoom="9.7006212"
     inkscape:cx="18.555513"
     inkscape:cy="21.699641"
     inkscape:window-width="3440"
     inkscape:window-height="1361"
     inkscape:window-x="0"
     inkscape:window-y="0"
     inkscape:window-maximized="1"
     inkscape:current-layer="svg13" />
  <path
     class="st5"
     d="m 21.473514,4.6960353 h 20.930547 c 6.892102,0 12.405783,5.5136807 12.405783,12.4057817 v 29.911721 c 0,6.892102 -5.513681,12.405783 -12.405783,12.405783 H 21.473514 c -6.892101,0 -12.4057826,-5.513681 -12.4057826,-12.405783 V 17.101817 c 0,-6.892101 5.5136816,-12.4057817 12.4057826,-12.4057817 z"
     id="path12"
     style="fill:url(#radialGradient50);fill-opacity:1;stroke-width:1.37842"
     sodipodi:nodetypes="sssssssss" />
  <rect
     style="opacity:0.187567;stroke-width:0.893646"
     width="8.9364624"
     height="24.128447"
     x="27.49044"
     y="4.7713566"
     id="rect3" />
  <path
     id="rect4"
     style="fill:#ffffff;stroke-width:0.893646"
     d="m 31.958671,4.7721935 v 2.6802111 h 2.680211 V 4.7721935 Z m 0,2.6802111 H 29.27846 v 2.6802114 h 2.680211 z m 0,2.6802114 v 2.682277 h 2.680211 v -2.682277 z m 0,2.682277 H 29.27846 v 2.680211 h 2.680211 z m 0,2.680211 v 2.680212 h 2.680211 v -2.680212 z m 0,2.680212 H 29.27846 v 2.682277 h 2.680211 z m 0,2.682277 v 2.680212 h 2.680211 v -2.680212 z m 0,2.680212 H 29.27846 v 2.680211 h 2.680211 z" />
  <path
     d="m 31.960937,24.869141 c -3.167356,0 -3.168823,4.730468 -4.224609,4.730468 v 4.316407 c 0,-2.202972 1.759713,-3.978516 3.943359,-3.978516 h 0.560547 c 2.183647,0 3.94336,1.775544 3.94336,3.978516 v -4.316407 c -1.055786,0 -1.0553,-4.730468 -4.222657,-4.730468 z"
     style="fill:#4b4b4b;stroke-width:0.84463"
     id="path4"
     inkscape:path-effect="#path-effect4"
     inkscape:original-d="m 31.960937,24.869141 c -3.167356,0 -3.168823,4.730468 -4.224609,4.730468 v 4.316407 c 0,-2.202972 1.759713,-3.978516 3.943359,-3.978516 h 0.560547 c 2.183647,0 3.94336,1.775544 3.94336,3.978516 v -4.316407 c -1.055786,0 -1.0553,-4.730468 -4.222657,-4.730468 z"
     transform="matrix(1.0580325,0,0,1.0580325,-1.898368,-2.7786868)" />
  <path
     d="m 31.61977,28.89616 c -2.310371,0 -4.172202,1.878581 -4.172202,4.209399 v 8.559317 c 0,2.330818 1.861831,4.211465 4.172202,4.211465 h 0.593077 c 2.310371,0 4.172202,-1.880646 4.172202,-4.211465 v -8.559317 c 0,-2.330818 -1.861831,-4.209399 -4.172202,-4.209399 z m 0.297219,10.155507 c 1.300426,2e-6 2.353539,1.055876 2.353539,2.356262 0,1.300387 -1.053113,2.353539 -2.353539,2.353539 -1.300426,0 -2.3549,-1.053152 -2.3549,-2.353539 0,-1.300386 1.054474,-2.35626 2.3549,-2.356262 z"
     style="fill:#ffffff;stroke-width:0.893646"
     id="path3"
     sodipodi:nodetypes="ssssssssssssss" />
  <path
     d="M 27.839844,7.0820312 V 29.533203 c 0.01416,-0.0029 0.02918,-0.0012 0.04297,-0.0059 0.002,-5.09e-4 0.0039,-0.0014 0.0059,-0.002 0.0013,-4.68e-4 0.0026,-0.0015 0.0039,-0.002 0.03626,-0.01337 0.07143,-0.03374 0.105469,-0.05859 0.03179,-0.02321 0.06353,-0.05158 0.09375,-0.08398 9.17e-4,-9.85e-4 10e-4,-0.0029 0.002,-0.0039 0.01428,-0.01549 0.02898,-0.03337 0.04297,-0.05078 0.01943,-0.02416 0.03769,-0.04849 0.05664,-0.07617 0.0015,-0.0021 0.0044,-0.0037 0.0059,-0.0059 0.02435,-0.03601 0.04851,-0.0758 0.07227,-0.117188 0.0016,-0.0027 0.0023,-0.007 0.0039,-0.0098 0.05009,-0.08833 0.09943,-0.191913 0.148437,-0.300781 0.02813,-0.06243 0.05765,-0.129224 0.08594,-0.197265 0.03408,-0.08198 0.06861,-0.161231 0.103515,-0.25 0.0014,-0.0036 0.0025,-0.0081 0.0039,-0.01172 0.0037,-0.0094 0.008,-0.01985 0.01172,-0.0293 0.08998,-0.229915 0.185238,-0.478612 0.289063,-0.734375 0.02466,-0.06081 0.04644,-0.114371 0.07227,-0.175781 0.03172,-0.07542 0.06783,-0.150808 0.101563,-0.226563 0.04534,-0.101844 0.08715,-0.20354 0.136719,-0.304687 0.04006,-0.08175 0.08179,-0.161784 0.125,-0.242188 0.0028,-0.0051 0.005,-0.01049 0.0078,-0.01563 0.04481,-0.08285 0.09204,-0.165597 0.140625,-0.246094 v -1.564453 h 2.347656 c 0.04796,-0.0023 0.09699,-0.0039 0.146485,-0.0039 0.0046,0 0.0091,-2.91e-4 0.01367,0 0.0046,-1.49e-4 0.009,0 0.01367,0 0.004,0 0.0078,-2.25e-4 0.01172,0 V 22.285156 H 29.501953 V 19.75 h 2.533203 v -2.533203 h -2.533203 v -2.533203 h 2.533203 V 12.148438 H 29.501953 V 9.6152344 h 2.533203 V 7.0820312 Z m 6.755859,0 V 9.6152344 H 34.568359 32.0625 v 2.5332036 h 2.505859 0.02734 v 2.535156 H 34.568359 32.0625 v 2.533203 h 2.505859 0.02734 V 19.75 H 34.568359 32.0625 v 2.535156 h 2.505859 0.02734 v 2.533203 h -0.02734 -2.425781 c 0.0643,0.003 0.125889,0.0106 0.1875,0.01758 0.01793,0.0019 0.03698,0.0017 0.05469,0.0039 0.0038,5.09e-4 0.0079,0.0014 0.01172,0.002 0.02994,0.0041 0.05858,0.0106 0.08789,0.01563 0.07972,0.01366 0.157256,0.03066 0.232422,0.05078 0.0044,0.0011 0.0093,8.08e-4 0.01367,0.002 0.06342,0.01735 0.125254,0.03692 0.185547,0.05859 2.280729,0.795643 2.385288,4.576172 3.330078,4.576172 v 0.341797 h 0.04102 V 7.0820312 Z"
     style="opacity:0.187567;mix-blend-mode:normal;fill:none;stroke-width:0.3;filter:url(#filter20)"
     id="path17"
     transform="matrix(1.0580325,0,0,1.0580325,-1.898368,-2.7786868)" />
  <path
     d="m 32.035156,7.0820312 v 2.5332032 h 2.533203 V 7.0820312 Z m 0,2.5332032 h -2.533203 v 2.5332036 h 2.533203 z m 0,2.5332036 v 2.535156 h 2.533203 v -2.535156 z m 0,2.535156 h -2.533203 v 2.533203 h 2.533203 z m 0,2.533203 V 19.75 h 2.533203 v -2.533203 z m 0,2.533203 h -2.533203 v 2.535156 h 2.533203 z m 0,2.535156 v 2.53125 c 0.03598,4.5e-4 0.07226,2.39e-4 0.107422,0.002 h 2.425781 v -2.533203 z m -2.533203,2.533203 v 1.564453 c 4.69e-4,-7.76e-4 0.0015,-0.0012 0.002,-0.002 0.06286,-0.104033 0.129302,-0.204322 0.199219,-0.302734 0.07119,-0.10021 0.147166,-0.196662 0.226562,-0.289063 0.03941,-0.04586 0.0795,-0.0912 0.121094,-0.134765 0.05856,-0.06135 0.12044,-0.119563 0.183594,-0.175781 0.06337,-0.05641 0.128971,-0.1096 0.197266,-0.160157 0.01543,-0.0114 0.0312,-0.02212 0.04687,-0.0332 0.03025,-0.02141 0.06055,-0.04233 0.0918,-0.0625 0.02579,-0.01662 0.05165,-0.03308 0.07813,-0.04883 0.144587,-0.08613 0.298292,-0.159859 0.464844,-0.216797 0.05577,-0.01906 0.113471,-0.03733 0.171875,-0.05273 0.05902,-0.01556 0.117887,-0.0294 0.179688,-0.04102 0.05711,-0.01074 0.116221,-0.02014 0.175781,-0.02734 0.0091,-0.0011 0.0182,-0.0029 0.02734,-0.0039 0.05961,-0.0066 0.119523,-0.01073 0.18164,-0.01367 z"
     style="mix-blend-mode:normal;fill:none;stroke:#000000;stroke-width:0.09451507;filter:url(#filter21);stroke-dasharray:none;opacity:0.77011093"
     id="path16"
     transform="matrix(1.0580325,0,0,1.0580325,-1.898368,-2.7786868)" />
</svg>
