<?xml version="1.0" encoding="UTF-8" standalone="no"?>
<svg
   width="64"
   height="64"
   version="1.1"
   id="svg8"
   sodipodi:docname="audiobook.svg"
   inkscape:version="1.4 (e7c3feb100, 2024-10-09)"
   xmlns:inkscape="http://www.inkscape.org/namespaces/inkscape"
   xmlns:sodipodi="http://sodipodi.sourceforge.net/DTD/sodipodi-0.dtd"
   xmlns:xlink="http://www.w3.org/1999/xlink"
   xmlns="http://www.w3.org/2000/svg"
   xmlns:svg="http://www.w3.org/2000/svg">
  <defs
     id="defs8">
    <inkscape:path-effect
       effect="fillet_chamfer"
       id="path-effect10"
       is_visible="true"
       lpeversion="1"
       nodesatellites_param="F,0,0,1,0,1.996006,0,1 @ F,0,0,1,0,1.996006,0,1 @ F,0,0,1,0,1.996006,0,1 @ F,0,0,1,0,1.996006,0,1 @ F,0,0,1,0,1.996006,0,1 @ F,0,0,1,0,1.996006,0,1 | F,0,0,1,0,0.94327766,0,1 @ F,0,0,1,0,0.94327766,0,1 @ F,0,0,1,0,0,0,1 @ F,0,0,1,0,0.94327766,0,1 @ F,0,0,1,0,0.94327766,0,1 @ F,0,0,1,0,0,0,1 | F,0,1,1,0,0.907759,0,1 @ F,0,0,1,0,0.907759,0,1 @ F,0,0,1,0,0,0,1"
       radius="0"
       unit="px"
       method="auto"
       mode="F"
       chamfer_steps="1"
       flexible="false"
       use_knot_distance="true"
       apply_no_radius="true"
       apply_with_radius="true"
       only_selected="false"
       hide_knots="false" />
    <inkscape:path-effect
       effect="fillet_chamfer"
       id="path-effect9"
       is_visible="true"
       lpeversion="1"
       nodesatellites_param="F,0,0,1,0,8.4491927,0,1 @ F,0,0,1,0,0,0,1 @ F,0,0,1,0,0,0,1 @ F,0,1,1,0,8.4491927,0,1"
       radius="0"
       unit="px"
       method="auto"
       mode="F"
       chamfer_steps="1"
       flexible="false"
       use_knot_distance="true"
       apply_no_radius="true"
       apply_with_radius="true"
       only_selected="false"
       hide_knots="false" />
    <radialGradient
       inkscape:collect="always"
       xlink:href="#linearGradient5"
       id="radialGradient6"
       cx="45.196259"
       cy="56.678448"
       fx="45.196259"
       fy="56.678448"
       r="22"
       gradientTransform="matrix(-1.3947388,-5.2052358,4.2516108,-1.1392157,-110.38373,365.65775)"
       gradientUnits="userSpaceOnUse" />
    <linearGradient
       id="linearGradient5"
       inkscape:collect="always">
      <stop
         style="stop-color:#ffe567;stop-opacity:1;"
         offset="0"
         id="stop5" />
      <stop
         style="stop-color:#ff9c58;stop-opacity:1;"
         offset="1"
         id="stop6" />
    </linearGradient>
    <inkscape:path-effect
       effect="fillet_chamfer"
       id="path-effect8"
       is_visible="true"
       lpeversion="1"
       nodesatellites_param="F,0,0,1,0,8.3189409,0,1 @ F,0,1,1,0,8.3189409,0,1 @ F,0,1,1,0,8.3189409,0,1 @ F,0,1,1,0,8.3189409,0,1"
       radius="0"
       unit="px"
       method="auto"
       mode="F"
       chamfer_steps="1"
       flexible="false"
       use_knot_distance="true"
       apply_no_radius="true"
       apply_with_radius="true"
       only_selected="false"
       hide_knots="false" />
  </defs>
  <sodipodi:namedview
     id="namedview8"
     pagecolor="#ffffff"
     bordercolor="#000000"
     borderopacity="0.25"
     inkscape:showpageshadow="2"
     inkscape:pageopacity="0.0"
     inkscape:pagecheckerboard="0"
     inkscape:deskcolor="#d1d1d1"
     inkscape:zoom="17.828125"
     inkscape:cx="31.971954"
     inkscape:cy="32"
     inkscape:window-width="3440"
     inkscape:window-height="1361"
     inkscape:window-x="0"
     inkscape:window-y="0"
     inkscape:window-maximized="1"
     inkscape:current-layer="svg8" />
  <g
     id="g1">
    <path
       id="rect2"
       style="fill:url(#radialGradient6);stroke-width:0.891381"
       d="m 20.708557,7.0413289 h 22.582886 a 8.3189409,8.3189409 45 0 1 8.318941,8.3189411 v 33.279461 a 8.3189409,8.3189409 135 0 1 -8.318941,8.318941 H 20.708557 A 8.3189409,8.3189409 45 0 1 12.389616,48.639731 V 15.36027 a 8.3189409,8.3189409 135 0 1 8.318941,-8.3189411 z"
       transform="matrix(1.0760643,0,0,1.0760643,-2.4281595,-2.4233975)"
       inkscape:original-d="M 12.389616,7.0413289 H 51.610384 V 56.958672 H 12.389616 Z"
       inkscape:path-effect="#path-effect8" />
    <path
       style="opacity:0.349074;fill:#ff1900;fill-opacity:1;stroke-width:0.959183"
       d="M 37.676513,5.1849742 V 32.042109 l 3.836733,-3.836734 3.836734,3.836734 V 5.1849742 Z"
       id="path3" />
    <path
       id="rect8"
       style="opacity:0.199018;fill:#ff0000;fill-opacity:1;stroke-width:0.3;stroke-linecap:round;stroke-linejoin:round;stroke-miterlimit:4.6;paint-order:stroke fill markers"
       d="m 20.827847,7.0215149 h 1.273605 V 56.956268 H 20.827847 A 8.4491927,8.4491927 45 0 1 12.378654,48.507075 V 15.470708 a 8.4491927,8.4491927 135 0 1 8.449193,-8.4491931 z"
       transform="matrix(1.0760643,0,0,1.0760643,-2.4281595,-2.4233975)"
       inkscape:original-d="m 12.378654,7.0215149 h 9.722798 V 56.956268 h -9.722798 z"
       inkscape:path-effect="#path-effect9" />
  </g>
  <path
     style="fill:#ff0000;fill-opacity:1;opacity:0.29742225"
     d="m 38.879876,38.635095 -3.244663,3.19782 a 4.8687731,4.8687731 157.7083 0 1 -3.41762,1.40109 1.9564625,1.9564625 133.82992 0 0 -1.916103,1.996006 l 0,4.007988 a 1.996006,1.996006 45 0 0 1.996006,1.996006 4.7714884,4.7714884 22.771446 0 1 3.337717,1.40109 l 3.244663,3.19782 A 0.83528695,0.83528695 157.2917 0 0 40.30149,55.237999 V 39.230011 a 0.83528695,0.83528695 22.708295 0 0 -1.421614,-0.594916 z m 3.421614,-0.457812 v 0.113444 c 0,0.520958 0.406141,1.065012 0.881771,1.276844 2.939222,1.309047 5.118229,4.321756 5.118229,7.666434 0,3.344693 -2.178854,6.357415 -5.118224,7.666452 -0.475633,0.211822 -0.881776,0.755868 -0.881776,1.276826 v 0.113444 c 0,0.520958 0.412324,0.847461 0.905581,0.680369 4.119474,-1.395479 7.094419,-5.205825 7.094419,-9.737091 0,-4.531459 -2.974946,-8.341639 -7.09442,-9.737094 -0.493257,-0.167089 -0.90558,0.159414 -0.90558,0.680372 z m 0,5.964481 v 6.184482 c 0,0.501341 0.37825,0.751649 0.802949,0.486102 1.331793,-0.832714 2.197051,-2.120712 2.197051,-3.578343 0,-1.45925 -0.855285,-2.748354 -2.195848,-3.581052 -0.425393,-0.264235 -0.804152,-0.01253 -0.804152,0.488811 z"
     id="path8"
     inkscape:path-effect="#path-effect10"
     inkscape:original-d="m 40.30149,37.234005 -6.087891,6 H 30.30149 v 8 h 3.912109 l 6.087891,6 z m 2,0 v 2 c 3.374499,1.057203 6,4.328606 6,8 0,3.671394 -2.625291,6.942797 -6,8 v 2 c 4.581908,-1.114222 8,-5.142957 8,-10 0,-4.857249 -3.418092,-8.885778 -8,-10 z m 0,6 v 8 c 1.776528,-0.773276 3,-2.266708 3,-4 0,-1.733292 -1.206688,-3.226532 -3,-4 z" />
</svg>
