<?xml version="1.0" encoding="UTF-8" standalone="no"?>
<svg
   width="64"
   height="64"
   version="1.1"
   id="svg12"
   sodipodi:docname="blastem.svg"
   inkscape:version="1.3.2 (091e20ef0f, 2023-11-25, custom)"
   xmlns:inkscape="http://www.inkscape.org/namespaces/inkscape"
   xmlns:sodipodi="http://sodipodi.sourceforge.net/DTD/sodipodi-0.dtd"
   xmlns="http://www.w3.org/2000/svg"
   xmlns:svg="http://www.w3.org/2000/svg">
  <defs
     id="defs12">
    <inkscape:path-effect
       effect="fillet_chamfer"
       id="path-effect35"
       is_visible="true"
       lpeversion="1"
       nodesatellites_param="F,0,1,1,0,0.79799722,0,1 @ F,0,1,1,0,0.79799722,0,1 @ F,0,1,1,0,0.79799722,0,1 @ F,0,1,1,0,0.79799722,0,1 @ F,0,1,1,0,0.79799722,0,1 @ F,0,1,1,0,0.79799722,0,1 @ F,0,1,1,0,0.79799722,0,1 @ F,0,0,1,0,0.79799722,0,1 @ F,0,1,1,0,0.79799722,0,1 @ F,0,1,1,0,0.79799722,0,1 @ F,0,1,1,0,0.79799722,0,1 @ F,0,1,1,0,0.79799722,0,1 @ F,0,1,1,0,0.79799722,0,1 @ F,0,1,1,0,0.79799722,0,1 @ F,0,1,1,0,0.79799722,0,1 @ F,0,1,1,0,0.79799722,0,1 @ F,0,1,1,0,0.79799722,0,1 @ F,0,1,1,0,0.79799722,0,1 @ F,0,1,1,0,0.79799722,0,1 @ F,0,1,1,0,0.79799722,0,1 @ F,0,1,1,0,0.79799722,0,1 @ F,0,1,1,0,0.79799722,0,1 @ F,0,1,1,0,0.79799722,0,1 @ F,0,1,1,0,0.79799722,0,1 @ F,0,1,1,0,0.79799722,0,1 @ F,0,1,1,0,0.79799722,0,1 @ F,0,1,1,0,0.79799722,0,1 @ F,0,1,1,0,0.79799722,0,1 @ F,0,1,1,0,0.79799722,0,1 @ F,0,1,1,0,0.79799722,0,1 @ F,0,1,1,0,0.79799722,0,1 @ F,0,1,1,0,0.79799722,0,1 @ F,0,1,1,0,0.79799722,0,1 @ F,0,1,1,0,0.79799722,0,1 @ F,0,1,1,0,0.79799722,0,1 @ F,0,1,1,0,0.79799722,0,1 @ F,0,1,1,0,0.79799722,0,1 @ F,0,1,1,0,0.79799722,0,1 @ F,0,1,1,0,0.79799722,0,1 @ F,0,1,1,0,0.79799722,0,1"
       radius="0"
       unit="px"
       method="auto"
       mode="F"
       chamfer_steps="1"
       flexible="false"
       use_knot_distance="true"
       apply_no_radius="true"
       apply_with_radius="true"
       only_selected="false"
       hide_knots="false" />
    <inkscape:path-effect
       effect="fillet_chamfer"
       id="path-effect34"
       is_visible="true"
       lpeversion="1"
       nodesatellites_param="F,0,1,1,0,0.72203626,0,1 @ F,0,1,1,0,0.72203626,0,1 @ F,0,1,1,0,0.72203626,0,1 @ F,0,1,1,0,0.72203626,0,1 @ F,0,1,1,0,0.72203626,0,1 @ F,0,1,1,0,0.72203626,0,1 @ F,0,1,1,0,0.72203626,0,1 @ F,0,0,1,0,0.72203626,0,1 @ F,0,1,1,0,0.72203626,0,1 @ F,0,1,1,0,0.72203626,0,1 @ F,0,1,1,0,0.72203626,0,1 @ F,0,1,1,0,0.72203626,0,1 @ F,0,1,1,0,0.72203626,0,1 @ F,0,1,1,0,0.72203626,0,1 @ F,0,1,1,0,0.72203626,0,1 @ F,0,1,1,0,0.72203626,0,1 @ F,0,1,1,0,0.72203626,0,1 @ F,0,1,1,0,0.72203626,0,1 @ F,0,1,1,0,0.72203626,0,1 @ F,0,1,1,0,0.72203626,0,1 @ F,0,1,1,0,0.72203626,0,1 @ F,0,1,1,0,0.72203626,0,1 @ F,0,1,1,0,0.72203626,0,1 @ F,0,1,1,0,0.72203626,0,1 @ F,0,1,1,0,0.72203626,0,1 @ F,0,1,1,0,0.72203626,0,1 @ F,0,1,1,0,0.72203626,0,1 @ F,0,1,1,0,0.72203626,0,1 @ F,0,1,1,0,0.72203626,0,1 @ F,0,1,1,0,0.72203626,0,1 @ F,0,1,1,0,0.72203626,0,1 @ F,0,1,1,0,0.72203626,0,1"
       radius="0"
       unit="px"
       method="auto"
       mode="F"
       chamfer_steps="1"
       flexible="false"
       use_knot_distance="true"
       apply_no_radius="true"
       apply_with_radius="true"
       only_selected="false"
       hide_knots="false" />
    <inkscape:path-effect
       effect="fillet_chamfer"
       id="path-effect33"
       is_visible="true"
       lpeversion="1"
       nodesatellites_param="F,0,1,1,0,0.94870993,0,1 @ F,0,1,1,0,0.94870993,0,1 @ F,0,1,1,0,0.94870993,0,1 @ F,0,1,1,0,0.94870993,0,1 @ F,0,1,1,0,0.94870993,0,1 @ F,0,1,1,0,0.94870993,0,1 @ F,0,0,1,0,0.94870993,0,1 @ F,0,1,1,0,0.94870993,0,1 @ F,0,1,1,0,0.94870993,0,1 @ F,0,1,1,0,0.94870993,0,1 @ F,0,1,1,0,0.94870993,0,1 @ F,0,1,1,0,0.94870993,0,1 @ F,0,1,1,0,0.94870993,0,1 @ F,0,1,1,0,0.94870993,0,1 @ F,0,1,1,0,0.94870993,0,1 @ F,0,1,1,0,0.94870993,0,1 @ F,0,1,1,0,0.94870993,0,1 @ F,0,1,1,0,0.94870993,0,1 @ F,0,1,1,0,0.94870993,0,1 @ F,0,1,1,0,0.94870993,0,1"
       radius="0"
       unit="px"
       method="auto"
       mode="F"
       chamfer_steps="1"
       flexible="false"
       use_knot_distance="true"
       apply_no_radius="true"
       apply_with_radius="true"
       only_selected="false"
       hide_knots="false" />
    <inkscape:path-effect
       effect="fillet_chamfer"
       id="path-effect32"
       is_visible="true"
       lpeversion="1"
       nodesatellites_param="F,0,1,1,0,0.73898517,0,1 @ F,0,1,1,0,0.73898517,0,1 @ F,0,1,1,0,0.73898517,0,1 @ F,0,1,1,0,0.73898517,0,1 @ F,0,1,1,0,0.73898517,0,1 @ F,0,1,1,0,0.73898517,0,1 @ F,0,1,1,0,0.73898517,0,1 @ F,0,1,1,0,0.73898517,0,1 @ F,0,1,1,0,0.73898517,0,1 @ F,0,1,1,0,0.73898517,0,1 @ F,0,1,1,0,0.73898517,0,1 @ F,0,1,1,0,0.73898517,0,1 @ F,0,1,1,0,0.73898517,0,1 @ F,0,1,1,0,0.73898517,0,1 @ F,0,1,1,0,0.73898517,0,1 @ F,0,1,1,0,0.73898517,0,1 @ F,0,1,1,0,0.73898517,0,1 @ F,0,1,1,0,0.73898517,0,1 @ F,0,1,1,0,0.73898517,0,1 @ F,0,1,1,0,0.73898517,0,1 @ F,0,1,1,0,0.73898517,0,1 @ F,0,1,1,0,0.73898517,0,1 @ F,0,1,1,0,0.73898517,0,1 @ F,0,1,1,0,0.73898517,0,1 @ F,0,1,1,0,0.73898517,0,1 @ F,0,1,1,0,0.73898517,0,1 @ F,0,1,1,0,0.73898517,0,1 @ F,0,1,1,0,0.73898517,0,1 @ F,0,1,1,0,0.73898517,0,1 @ F,0,1,1,0,0.73898517,0,1 @ F,0,1,1,0,0.73898517,0,1 @ F,0,0,1,0,0.73898517,0,1 @ F,0,1,1,0,0.73898517,0,1 @ F,0,1,1,0,0.73898517,0,1 @ F,0,1,1,0,0.73898517,0,1 @ F,0,1,1,0,0.73898517,0,1 @ F,0,1,1,0,0.73898517,0,1 @ F,0,1,1,0,0.73898517,0,1 @ F,0,1,1,0,0.73898517,0,1 @ F,0,1,1,0,0.73898517,0,1"
       radius="0"
       unit="px"
       method="auto"
       mode="F"
       chamfer_steps="1"
       flexible="false"
       use_knot_distance="true"
       apply_no_radius="true"
       apply_with_radius="true"
       only_selected="false"
       hide_knots="false" />
    <inkscape:path-effect
       effect="fillet_chamfer"
       id="path-effect31"
       is_visible="true"
       lpeversion="1"
       nodesatellites_param="F,0,0,1,0,0.86866476,0,1 @ F,0,0,1,0,0.86866476,0,1 @ F,0,0,1,0,0.86866476,0,1 @ F,0,0,1,0,0.86866476,0,1 @ F,0,0,1,0,0.86866476,0,1 @ F,0,0,1,0,0.86866476,0,1 @ F,0,0,1,0,0.86866476,0,1 @ F,0,0,1,0,0.86866476,0,1 @ F,0,0,1,0,0.86866476,0,1 @ F,0,0,1,0,0.86866476,0,1 @ F,0,0,1,0,3.0447898,0,1 @ F,0,0,1,0,3.0447898,0,1 @ F,0,0,1,0,0.86866476,0,1 @ F,0,0,1,0,0.86866476,0,1 @ F,0,0,1,0,0.86866476,0,1 @ F,0,0,1,0,0.86866476,0,1 @ F,0,0,1,0,0.86866476,0,1 @ F,0,0,1,0,0.86866476,0,1 @ F,0,0,1,0,0.86866476,0,1 @ F,0,0,1,0,0.86866476,0,1 @ F,0,0,1,0,0.86866476,0,1 @ F,0,0,1,0,0.86866476,0,1 @ F,0,0,1,0,0.86866476,0,1 @ F,0,0,1,0,0.86866476,0,1 @ F,0,0,1,0,0.86866476,0,1 @ F,0,0,1,0,0.86866476,0,1 @ F,0,0,1,0,0.86866476,0,1 @ F,0,0,1,0,0.86866476,0,1 @ F,0,0,1,0,0.86866476,0,1 @ F,0,0,1,0,0.86866476,0,1 @ F,0,0,1,0,1.5383428,0,1 @ F,0,1,1,0,1.5383428,0,1 @ F,0,0,1,0,0.86866476,0,1 @ F,0,0,1,0,0.86866476,0,1 @ F,0,0,1,0,0.86866476,0,1 @ F,0,0,1,0,0.86866476,0,1 @ F,0,0,1,0,0.86866476,0,1 @ F,0,0,1,0,0.86866476,0,1 @ F,0,0,1,0,0.86866476,0,1 @ F,0,0,1,0,0.86866476,0,1"
       radius="0"
       unit="px"
       method="auto"
       mode="F"
       chamfer_steps="1"
       flexible="false"
       use_knot_distance="true"
       apply_no_radius="true"
       apply_with_radius="true"
       only_selected="false"
       hide_knots="false" />
    <filter
       inkscape:collect="always"
       style="color-interpolation-filters:sRGB"
       id="filter1"
       x="-0.20953176"
       y="-0.27937568"
       width="1.4190635"
       height="1.5587514">
      <feGaussianBlur
         inkscape:collect="always"
         stdDeviation="2.0953177"
         id="feGaussianBlur1" />
    </filter>
    <filter
       inkscape:collect="always"
       style="color-interpolation-filters:sRGB"
       id="filter2"
       x="-0.13968784"
       y="-0.16762541"
       width="1.2793757"
       height="1.3352508">
      <feGaussianBlur
         inkscape:collect="always"
         stdDeviation="2.0953177"
         id="feGaussianBlur2" />
    </filter>
    <filter
       inkscape:collect="always"
       style="color-interpolation-filters:sRGB"
       id="filter3"
       x="-0.10476588"
       y="-0.13968784"
       width="1.2095318"
       height="1.2793757">
      <feGaussianBlur
         inkscape:collect="always"
         stdDeviation="2.0953177"
         id="feGaussianBlur3" />
    </filter>
    <inkscape:path-effect
       effect="fillet_chamfer"
       id="path-effect31-3"
       is_visible="true"
       lpeversion="1"
       nodesatellites_param="F,0,0,1,0,0.86866476,0,1 @ F,0,0,1,0,0.86866476,0,1 @ F,0,0,1,0,0.86866476,0,1 @ F,0,0,1,0,0.86866476,0,1 @ F,0,0,1,0,0.86866476,0,1 @ F,0,0,1,0,0.86866476,0,1 @ F,0,0,1,0,0.86866476,0,1 @ F,0,0,1,0,0.86866476,0,1 @ F,0,0,1,0,0.86866476,0,1 @ F,0,0,1,0,0.86866476,0,1 @ F,0,1,1,0,3.0447898,0,1 @ F,0,1,1,0,3.0447898,0,1 @ F,0,0,1,0,0.86866476,0,1 @ F,0,0,1,0,0.86866476,0,1 @ F,0,0,1,0,0.86866476,0,1 @ F,0,0,1,0,0.86866476,0,1 @ F,0,0,1,0,0.86866476,0,1 @ F,0,0,1,0,0.86866476,0,1 @ F,0,0,1,0,0.86866476,0,1 @ F,0,0,1,0,0.86866476,0,1 @ F,0,0,1,0,0.86866476,0,1 @ F,0,0,1,0,0.86866476,0,1 @ F,0,0,1,0,0.86866476,0,1 @ F,0,0,1,0,0.86866476,0,1 @ F,0,0,1,0,0.86866476,0,1 @ F,0,0,1,0,0.86866476,0,1 @ F,0,0,1,0,0.86866476,0,1 @ F,0,0,1,0,0.86866476,0,1 @ F,0,0,1,0,0.86866476,0,1 @ F,0,0,1,0,0.86866476,0,1 @ F,0,0,1,0,0.86866476,0,1 @ F,0,0,1,0,0.86866476,0,1 @ F,0,0,1,0,0.86866476,0,1 @ F,0,0,1,0,0.86866476,0,1 @ F,0,0,1,0,0.86866476,0,1 @ F,0,0,1,0,0.86866476,0,1 @ F,0,0,1,0,0.86866476,0,1 @ F,0,0,1,0,0.86866476,0,1 @ F,0,0,1,0,0.86866476,0,1 @ F,0,0,1,0,0.86866476,0,1"
       radius="0"
       unit="px"
       method="auto"
       mode="F"
       chamfer_steps="1"
       flexible="false"
       use_knot_distance="true"
       apply_no_radius="true"
       apply_with_radius="true"
       only_selected="false"
       hide_knots="false" />
    <filter
       inkscape:collect="always"
       style="color-interpolation-filters:sRGB"
       id="filter4"
       x="-0.043434727"
       y="-0.05791297"
       width="1.0868695"
       height="1.1158259">
      <feGaussianBlur
         inkscape:collect="always"
         stdDeviation="1.013477"
         id="feGaussianBlur4" />
    </filter>
  </defs>
  <sodipodi:namedview
     id="namedview12"
     pagecolor="#ffffff"
     bordercolor="#000000"
     borderopacity="0.25"
     inkscape:showpageshadow="2"
     inkscape:pageopacity="0.0"
     inkscape:pagecheckerboard="0"
     inkscape:deskcolor="#d1d1d1"
     inkscape:zoom="13.890625"
     inkscape:cx="29.768279"
     inkscape:cy="35.815523"
     inkscape:window-width="1920"
     inkscape:window-height="1018"
     inkscape:window-x="0"
     inkscape:window-y="0"
     inkscape:window-maximized="1"
     inkscape:current-layer="svg12" />
  <path
     d="m 29,11.868665 v 1.26267 A 0.86866476,0.86866476 135 0 1 28.131335,14 h -1.26267 A 0.86866476,0.86866476 135 0 0 26,14.868665 l 0,1.26267 A 0.86866476,0.86866476 135 0 1 25.131335,17 h -1.26267 A 0.86866476,0.86866476 135 0 0 23,17.868665 v 1.26267 A 0.86866476,0.86866476 135 0 1 22.131335,20 h -1.26267 A 0.86866476,0.86866476 135 0 0 20,20.868665 v 1.26267 A 0.86866476,0.86866476 135 0 1 19.131335,23 l -4.26267,0 A 0.86866476,0.86866476 135 0 0 14,23.868665 v 1.26267 A 0.86866476,0.86866476 135 0 1 13.131335,26 H 7.0447898 A 3.0447898,3.0447898 135 0 0 4,29.04479 v 5.91042 A 3.0447898,3.0447898 45 0 0 7.0447898,38 H 13.131335 A 0.86866476,0.86866476 45 0 1 14,38.868665 v 1.26267 A 0.86866476,0.86866476 45 0 0 14.868665,41 h 4.26267 A 0.86866476,0.86866476 45 0 1 20,41.868665 v 1.26267 A 0.86866476,0.86866476 45 0 0 20.868665,44 h 1.26267 A 0.86866476,0.86866476 45 0 1 23,44.868665 v 1.26267 A 0.86866476,0.86866476 45 0 0 23.868665,47 h 1.26267 A 0.86866476,0.86866476 45 0 1 26,47.868665 l 0,1.26267 A 0.86866476,0.86866476 45 0 0 26.868665,50 h 1.26267 A 0.86866476,0.86866476 45 0 1 29,50.868665 v 1.26267 A 0.86866476,0.86866476 45 0 0 29.868665,53 h 17.26267 A 0.86866476,0.86866476 135 0 0 48,52.131335 v -1.26267 A 0.86866476,0.86866476 135 0 1 48.868665,50 h 1.26267 A 0.86866476,0.86866476 135 0 0 51,49.131335 v -1.26267 A 0.86866476,0.86866476 135 0 1 51.868665,47 h 1.26267 A 0.86866476,0.86866476 135 0 0 54,46.131335 l 0,-1.26267 A 0.86866476,0.86866476 135 0 1 54.868665,44 h 1.26267 A 0.86866476,0.86866476 135 0 0 57,43.131335 v -1.26267 A 0.86866476,0.86866476 135 0 1 57.868665,41 h 1.26267 A 0.86866476,0.86866476 135 0 0 60,40.131335 V 23.868665 A 0.86866476,0.86866476 45 0 0 59.131335,23 h -1.26267 A 0.86866476,0.86866476 45 0 1 57,22.131335 v -1.26267 A 0.86866476,0.86866476 45 0 0 56.131335,20 h -1.26267 A 0.86866476,0.86866476 45 0 1 54,19.131335 l 0,-1.26267 A 0.86866476,0.86866476 45 0 0 53.131335,17 h -1.26267 A 0.86866476,0.86866476 45 0 1 51,16.131335 v -1.26267 A 0.86866476,0.86866476 45 0 0 50.131335,14 h -1.26267 A 0.86866476,0.86866476 45 0 1 48,13.131335 v -1.26267 A 0.86866476,0.86866476 45 0 0 47.131335,11 l -17.26267,0 A 0.86866476,0.86866476 135 0 0 29,11.868665 Z"
     style="fill:#000000;fill-opacity:1;filter:url(#filter4);opacity:0.54171308"
     id="path2-6"
     inkscape:path-effect="#path-effect31-3"
     inkscape:original-d="m 29,11 v 3 h -3 v 3 h -3 v 3 h -3 v 3 h -6 v 3 H 4 v 12 h 10 v 3 h 6 v 3 h 3 v 3 h 3 v 3 h 3 v 3 h 19 v -3 h 3 v -3 h 3 v -3 h 3 v -3 h 3 V 23 h -3 v -3 h -3 v -3 h -3 v -3 h -3 v -3 z"
     transform="translate(0,0.8)" />
  <path
     d="m 29,11.868665 v 1.26267 A 0.86866476,0.86866476 135 0 1 28.131335,14 h -1.26267 A 0.86866476,0.86866476 135 0 0 26,14.868665 l 0,1.26267 A 0.86866476,0.86866476 135 0 1 25.131335,17 h -1.26267 A 0.86866476,0.86866476 135 0 0 23,17.868665 v 1.26267 A 0.86866476,0.86866476 135 0 1 22.131335,20 h -1.26267 A 0.86866476,0.86866476 135 0 0 20,20.868665 v 1.26267 A 0.86866476,0.86866476 135 0 1 19.131335,23 l -4.26267,0 A 0.86866476,0.86866476 135 0 0 14,23.868665 v 1.26267 A 0.86866476,0.86866476 135 0 1 13.131335,26 H 7.0447898 A 3.0447898,3.0447898 135 0 0 4,29.04479 v 5.91042 A 3.0447898,3.0447898 45 0 0 7.0447898,38 H 13.131335 A 0.86866476,0.86866476 45 0 1 14,38.868665 v 1.26267 A 0.86866476,0.86866476 45 0 0 14.868665,41 h 4.26267 A 0.86866476,0.86866476 45 0 1 20,41.868665 v 1.26267 A 0.86866476,0.86866476 45 0 0 20.868665,44 h 1.26267 A 0.86866476,0.86866476 45 0 1 23,44.868665 v 1.26267 A 0.86866476,0.86866476 45 0 0 23.868665,47 h 1.26267 A 0.86866476,0.86866476 45 0 1 26,47.868665 l 0,1.26267 A 0.86866476,0.86866476 45 0 0 26.868665,50 h 1.26267 A 0.86866476,0.86866476 45 0 1 29,50.868665 v 1.26267 A 0.86866476,0.86866476 45 0 0 29.868665,53 h 17.26267 A 0.86866476,0.86866476 135 0 0 48,52.131335 v -1.26267 A 0.86866476,0.86866476 135 0 1 48.868665,50 h 1.26267 A 0.86866476,0.86866476 135 0 0 51,49.131335 v -1.26267 A 0.86866476,0.86866476 135 0 1 51.868665,47 h 1.26267 A 0.86866476,0.86866476 135 0 0 54,46.131335 l 0,-1.26267 A 0.86866476,0.86866476 135 0 1 54.868665,44 h 1.26267 A 0.86866476,0.86866476 135 0 0 57,43.131335 v -1.26267 A 0.86866476,0.86866476 135 0 1 57.868665,41 h 0.592992 A 1.5383428,1.5383428 135 0 0 60,39.461657 V 24.538343 A 1.5383428,1.5383428 45 0 0 58.461657,23 H 57.868665 A 0.86866476,0.86866476 45 0 1 57,22.131335 v -1.26267 A 0.86866476,0.86866476 45 0 0 56.131335,20 h -1.26267 A 0.86866476,0.86866476 45 0 1 54,19.131335 l 0,-1.26267 A 0.86866476,0.86866476 45 0 0 53.131335,17 h -1.26267 A 0.86866476,0.86866476 45 0 1 51,16.131335 v -1.26267 A 0.86866476,0.86866476 45 0 0 50.131335,14 h -1.26267 A 0.86866476,0.86866476 45 0 1 48,13.131335 v -1.26267 A 0.86866476,0.86866476 45 0 0 47.131335,11 l -17.26267,0 A 0.86866476,0.86866476 135 0 0 29,11.868665 Z"
     style="fill:#ffffff;fill-opacity:1"
     id="path2"
     inkscape:path-effect="#path-effect31"
     inkscape:original-d="m29 11v3h-3v3h-3v3h-3v3h-6v3h-10v12h10v3h6v3h3v3h3v3h3v3h19v-3h3v-3h3v-3h3v-3h3v-18h-3v-3h-3v-3h-3v-3h-3v-3z" />
  <path
     d="m 32,14.797997 v 1.404006 A 0.79799722,0.79799722 135 0 1 31.202003,17 H 29.797997 A 0.79799722,0.79799722 135 0 0 29,17.797997 v 1.404006 A 0.79799722,0.79799722 45 0 0 29.797997,20 h 1.404006 A 0.79799722,0.79799722 45 0 1 32,20.797997 v 1.404006 A 0.79799722,0.79799722 135 0 1 31.202003,23 H 23.797997 A 0.79799722,0.79799722 135 0 0 23,23.797997 l 0,1.404006 A 0.79799722,0.79799722 135 0 1 22.202003,26 H 17.797997 A 0.79799722,0.79799722 135 0 0 17,26.797997 v 1.404006 A 0.79799722,0.79799722 135 0 1 16.202003,29 H 8.7979972 A 0.79799722,0.79799722 135 0 0 8,29.797997 v 4.404006 A 0.79799722,0.79799722 45 0 0 8.7979972,35 H 16.202003 A 0.79799722,0.79799722 45 0 1 17,35.797997 v 1.404006 A 0.79799722,0.79799722 45 0 0 17.797997,38 h 4.404006 A 0.79799722,0.79799722 45 0 1 23,38.797997 l 0,1.404006 A 0.79799722,0.79799722 45 0 0 23.797997,41 h 7.404006 A 0.79799722,0.79799722 45 0 1 32,41.797997 v 1.404006 A 0.79799722,0.79799722 135 0 1 31.202003,44 l -1.404006,0 A 0.79799722,0.79799722 135 0 0 29,44.797997 v 1.404006 A 0.79799722,0.79799722 45 0 0 29.797997,47 l 1.404006,0 A 0.79799722,0.79799722 45 0 1 32,47.797997 v 1.404006 A 0.79799722,0.79799722 45 0 0 32.797997,50 H 43.202003 A 0.79799722,0.79799722 135 0 0 44,49.202003 l 0,-1.404006 A 0.79799722,0.79799722 135 0 1 44.797997,47 l 1.404006,0 A 0.79799722,0.79799722 135 0 0 47,46.202003 l 0,-1.404006 A 0.79799722,0.79799722 135 0 1 47.797997,44 l 1.404006,0 A 0.79799722,0.79799722 135 0 0 50,43.202003 V 41.797997 A 0.79799722,0.79799722 135 0 1 50.797997,41 h 1.404006 A 0.79799722,0.79799722 135 0 0 53,40.202003 V 38.797997 A 0.79799722,0.79799722 135 0 1 53.797997,38 h 1.404006 A 0.79799722,0.79799722 135 0 0 56,37.202003 V 26.797997 A 0.79799722,0.79799722 45 0 0 55.202003,26 H 53.797997 A 0.79799722,0.79799722 45 0 1 53,25.202003 V 23.797997 A 0.79799722,0.79799722 45 0 0 52.202003,23 l -1.404006,0 A 0.79799722,0.79799722 45 0 1 50,22.202003 V 20.797997 A 0.79799722,0.79799722 45 0 0 49.202003,20 H 47.797997 A 0.79799722,0.79799722 45 0 1 47,19.202003 l 0,-1.404006 A 0.79799722,0.79799722 45 0 0 46.202003,17 H 44.797997 A 0.79799722,0.79799722 45 0 1 44,16.202003 l 0,-1.404006 A 0.79799722,0.79799722 45 0 0 43.202003,14 H 32.797997 A 0.79799722,0.79799722 135 0 0 32,14.797997 Z"
     style="fill:#eb2d21;opacity:0.75451435"
     id="path4"
     inkscape:path-effect="#path-effect35"
     inkscape:original-d="m32 14v3h-3v3h3v3h-9v3h-6v3h-9v6h9v3h6v3h9v3h-3v3h3v3h12v-3h3v-3h3v-3h3v-3h3v-12h-3v-3h-3v-3h-3v-3h-3v-3h-12z" />
  <path
     d="m 32.061349,14.739866 v 1.52203 a 0.73898517,0.73898517 135 0 1 -0.738985,0.738985 h -1.52203 a 0.73898517,0.73898517 135 0 0 -0.738985,0.738985 v 1.52203 a 0.73898517,0.73898517 45 0 0 0.738985,0.738985 h 1.52203 a 0.73898517,0.73898517 45 0 1 0.738985,0.738985 v 1.52203 a 0.73898517,0.73898517 135 0 1 -0.738985,0.738985 h -7.52203 a 0.73898517,0.73898517 135 0 0 -0.738985,0.738985 v 1.52203 a 0.73898517,0.73898517 135 0 1 -0.738985,0.738985 h -4.52203 a 0.73898517,0.73898517 135 0 0 -0.738985,0.738985 v 1.52203 a 0.73898517,0.73898517 135 0 1 -0.738985,0.738985 h -7.52203 a 0.73898517,0.73898517 135 0 0 -0.7389852,0.738985 v 4.52203 a 0.73898517,0.73898517 45 0 0 0.7389852,0.738985 h 7.52203 a 0.73898517,0.73898517 45 0 1 0.738985,0.738985 v 1.52203 a 0.73898517,0.73898517 45 0 0 0.738985,0.738985 h 4.52203 a 0.73898517,0.73898517 45 0 1 0.738985,0.738985 v 1.52203 a 0.73898517,0.73898517 45 0 0 0.738985,0.738985 h 7.52203 a 0.73898517,0.73898517 45 0 1 0.738985,0.738985 v 1.52203 a 0.73898517,0.73898517 135 0 1 -0.738985,0.738985 h -1.52203 a 0.73898517,0.73898517 135 0 0 -0.738985,0.738985 v 1.52203 a 0.73898517,0.73898517 45 0 0 0.738985,0.738985 h 1.52203 a 0.73898517,0.73898517 45 0 1 0.738985,0.738985 v 1.52203 a 0.73898517,0.73898517 45 0 0 0.738985,0.738985 h 10.52203 a 0.73898517,0.73898517 135 0 0 0.738985,-0.738985 v -1.52203 a 0.73898517,0.73898517 135 0 1 0.738985,-0.738985 h 1.52203 a 0.73898517,0.73898517 135 0 0 0.738985,-0.738985 v -1.52203 a 0.73898517,0.73898517 135 0 1 0.738985,-0.738985 h 1.52203 a 0.73898517,0.73898517 135 0 0 0.738985,-0.738985 v -1.52203 a 0.73898517,0.73898517 135 0 1 0.738985,-0.738985 h 1.52203 a 0.73898517,0.73898517 135 0 0 0.738985,-0.738985 v -1.52203 a 0.73898517,0.73898517 135 0 1 0.738985,-0.738985 h 1.52203 a 0.73898517,0.73898517 135 0 0 0.738985,-0.738985 v -10.52203 a 0.73898517,0.73898517 45 0 0 -0.738985,-0.738985 h -1.52203 a 0.73898517,0.73898517 45 0 1 -0.738985,-0.738985 v -1.52203 a 0.73898517,0.73898517 45 0 0 -0.738985,-0.738985 h -1.52203 a 0.73898517,0.73898517 45 0 1 -0.738985,-0.738985 v -1.52203 a 0.73898517,0.73898517 45 0 0 -0.738985,-0.738985 h -1.52203 a 0.73898517,0.73898517 45 0 1 -0.738985,-0.738985 v -1.52203 a 0.73898517,0.73898517 45 0 0 -0.738985,-0.738985 h -1.52203 a 0.73898517,0.73898517 45 0 1 -0.738985,-0.738985 v -1.52203 a 0.73898517,0.73898517 45 0 0 -0.738985,-0.738985 h -10.52203 a 0.73898517,0.73898517 135 0 0 -0.738985,0.738985 z"
     style="fill:#ff0400;opacity:0.33674455;fill-opacity:1;filter:url(#filter3)"
     id="path4-5"
     inkscape:path-effect="#path-effect32"
     inkscape:original-d="m 32.061349,14.000881 v 3 h -3 v 3 h 3 v 3 h -9 v 3 h -6 v 3 H 8.0613488 v 6 h 9.0000002 v 3 h 6 v 3 h 9 v 3 h -3 v 3 h 3 v 3 h 12 v -3 h 3 v -3 h 3 v -3 h 3 v -3 h 3 v -12 h -3 v -3 h -3 v -3 h -3 v -3 h -3 v -3 z" />
  <path
     d="m 31.516636,17.562601 v 3 h 3 v 3 h -3 v 3 h -9 v 3 h -6 v 6 h 6 v 3 h 9 v 3 h 3 v 3 h -3 v 3 h 12 v -3 h 3 v -3 h 3 v -3 h 3 v -12 h -3 v -3 h -3 v -3 h -3 v -3 z"
     style="opacity:0.336745;fill:#fff900;fill-opacity:1;filter:url(#filter2)"
     id="path6-3" />
  <path
     d="m 38,23.94871 v 1.10258 A 0.94870993,0.94870993 135 0 1 37.05129,26 H 35.94871 A 0.94870993,0.94870993 135 0 0 35,26.94871 v 1.10258 A 0.94870993,0.94870993 135 0 1 34.05129,29 H 26.94871 A 0.94870993,0.94870993 135 0 0 26,29.94871 v 4.10258 A 0.94870993,0.94870993 45 0 0 26.94871,35 h 7.10258 A 0.94870993,0.94870993 45 0 1 35,35.94871 v 1.10258 A 0.94870993,0.94870993 45 0 0 35.94871,38 h 1.10258 A 0.94870993,0.94870993 45 0 1 38,38.94871 v 1.10258 A 0.94870993,0.94870993 45 0 0 38.94871,41 l 4.10258,0 A 0.94870993,0.94870993 135 0 0 44,40.05129 V 38.94871 A 0.94870993,0.94870993 135 0 1 44.94871,38 h 1.10258 A 0.94870993,0.94870993 135 0 0 47,37.05129 V 35.94871 A 0.94870993,0.94870993 135 0 1 47.94871,35 h 1.10258 A 0.94870993,0.94870993 135 0 0 50,34.05129 V 29.94871 A 0.94870993,0.94870993 45 0 0 49.05129,29 H 47.94871 A 0.94870993,0.94870993 45 0 1 47,28.05129 V 26.94871 A 0.94870993,0.94870993 45 0 0 46.05129,26 H 44.94871 A 0.94870993,0.94870993 45 0 1 44,25.05129 V 23.94871 A 0.94870993,0.94870993 45 0 0 43.05129,23 H 38.94871 A 0.94870993,0.94870993 135 0 0 38,23.94871 Z"
     style="opacity:0.754514;fill:#dcfa20;stroke-width:0.769886"
     id="path8"
     inkscape:path-effect="#path-effect33"
     inkscape:original-d="m 38,23 v 3 h -3 v 3 h -9 v 6 h 9 v 3 h 3 v 3 h 6 v -3 h 3 v -3 h 3 v -6 h -3 v -3 h -3 v -3 z"
     transform="matrix(1.2988933,0,0,1.2988933,-12.768013,-8.9730459)" />
  <path
     d="m 38.004658,22.913144 v 3 h -3 v 3 h -9 v 6 h 9 v 3 h 3 v 3 h 6 v -3 h 3 v -3 h 3 v -6 h -3 v -3 h -3 v -3 z"
     style="opacity:0.336745;fill:#ffffff;fill-opacity:1;stroke-width:0.82931;filter:url(#filter1)"
     id="path8-5"
     transform="matrix(1.2058231,0,0,1.2058231,-8.2233515,-4.4477494)" />
</svg>
