<?xml version="1.0" encoding="UTF-8" standalone="no"?>
<svg
   width="64"
   height="64"
   version="1"
   id="svg19"
   sodipodi:docname="chromium-app-list.svg"
   inkscape:version="1.3.2 (091e20ef0f, 2023-11-25, custom)"
   xmlns:inkscape="http://www.inkscape.org/namespaces/inkscape"
   xmlns:sodipodi="http://sodipodi.sourceforge.net/DTD/sodipodi-0.dtd"
   xmlns:xlink="http://www.w3.org/1999/xlink"
   xmlns="http://www.w3.org/2000/svg"
   xmlns:svg="http://www.w3.org/2000/svg">
  <defs
     id="defs19">
    <linearGradient
       id="linearGradient20"
       inkscape:collect="always">
      <stop
         style="stop-color:#69a2f5;stop-opacity:1;"
         offset="0"
         id="stop20" />
      <stop
         style="stop-color:#2d7ff3;stop-opacity:1;"
         offset="1"
         id="stop21" />
    </linearGradient>
    <inkscape:path-effect
       effect="fillet_chamfer"
       id="path-effect20"
       is_visible="true"
       lpeversion="1"
       nodesatellites_param="F,0,0,1,0,3.8152541,0,1 @ F,0,1,1,0,3.8152541,0,1 @ F,0,1,1,0,3.8152541,0,1 @ F,0,1,1,0,3.8152541,0,1 | F,0,1,1,0,3.8152541,0,1 @ F,0,1,1,0,3.8152541,0,1 @ F,0,1,1,0,3.8152541,0,1 @ F,0,1,1,0,3.8152541,0,1 | F,0,1,1,0,3.8152541,0,1 @ F,0,1,1,0,3.8152541,0,1 @ F,0,1,1,0,3.8152541,0,1 @ F,0,1,1,0,3.8152541,0,1 | F,0,1,1,0,3.8152541,0,1 @ F,0,1,1,0,3.8152541,0,1 @ F,0,1,1,0,3.8152541,0,1 @ F,0,1,1,0,3.8152541,0,1 | F,0,1,1,0,3.8152541,0,1 @ F,0,1,1,0,3.8152541,0,1 @ F,0,1,1,0,3.8152541,0,1 @ F,0,1,1,0,3.8152541,0,1 | F,0,1,1,0,3.8152541,0,1 @ F,0,1,1,0,3.8152541,0,1 @ F,0,1,1,0,3.8152541,0,1 @ F,0,1,1,0,3.8152541,0,1 | F,0,1,1,0,3.8152541,0,1 @ F,0,1,1,0,3.8152541,0,1 @ F,0,1,1,0,3.8152541,0,1 @ F,0,1,1,0,3.8152541,0,1 | F,0,1,1,0,3.8152541,0,1 @ F,0,1,1,0,3.8152541,0,1 @ F,0,1,1,0,3.8152541,0,1 @ F,0,1,1,0,3.8152541,0,1 | F,0,1,1,0,3.8152541,0,1 @ F,0,1,1,0,3.8152541,0,1 @ F,0,1,1,0,3.8152541,0,1 @ F,0,1,1,0,3.8152541,0,1"
       radius="0"
       unit="px"
       method="auto"
       mode="F"
       chamfer_steps="1"
       flexible="false"
       use_knot_distance="true"
       apply_no_radius="true"
       apply_with_radius="true"
       only_selected="false"
       hide_knots="false" />
    <inkscape:path-effect
       effect="fillet_chamfer"
       id="path-effect19"
       is_visible="true"
       lpeversion="1"
       nodesatellites_param=""
       radius="0"
       unit="px"
       method="auto"
       mode="F"
       chamfer_steps="1"
       flexible="false"
       use_knot_distance="true"
       apply_no_radius="true"
       apply_with_radius="true"
       only_selected="false"
       hide_knots="false" />
    <radialGradient
       inkscape:collect="always"
       xlink:href="#linearGradient20"
       id="radialGradient21"
       cx="7.0046492"
       cy="43.586987"
       fx="7.0046492"
       fy="43.586987"
       r="28"
       gradientUnits="userSpaceOnUse"
       gradientTransform="matrix(0,1.9831143,-1.9831143,0,90.33738,-9.9423731)" />
    <inkscape:path-effect
       effect="fillet_chamfer"
       id="path-effect20-3"
       is_visible="true"
       lpeversion="1"
       nodesatellites_param="F,0,0,1,0,3.8152541,0,1 @ F,0,1,1,0,3.8152541,0,1 @ F,0,1,1,0,3.8152541,0,1 @ F,0,1,1,0,3.8152541,0,1 | F,0,1,1,0,3.8152541,0,1 @ F,0,1,1,0,3.8152541,0,1 @ F,0,1,1,0,3.8152541,0,1 @ F,0,1,1,0,3.8152541,0,1 | F,0,1,1,0,3.8152541,0,1 @ F,0,1,1,0,3.8152541,0,1 @ F,0,1,1,0,3.8152541,0,1 @ F,0,1,1,0,3.8152541,0,1 | F,0,1,1,0,3.8152541,0,1 @ F,0,1,1,0,3.8152541,0,1 @ F,0,1,1,0,3.8152541,0,1 @ F,0,1,1,0,3.8152541,0,1 | F,0,1,1,0,3.8152541,0,1 @ F,0,1,1,0,3.8152541,0,1 @ F,0,1,1,0,3.8152541,0,1 @ F,0,1,1,0,3.8152541,0,1 | F,0,1,1,0,3.8152541,0,1 @ F,0,1,1,0,3.8152541,0,1 @ F,0,1,1,0,3.8152541,0,1 @ F,0,1,1,0,3.8152541,0,1 | F,0,1,1,0,3.8152541,0,1 @ F,0,1,1,0,3.8152541,0,1 @ F,0,1,1,0,3.8152541,0,1 @ F,0,1,1,0,3.8152541,0,1 | F,0,1,1,0,3.8152541,0,1 @ F,0,1,1,0,3.8152541,0,1 @ F,0,1,1,0,3.8152541,0,1 @ F,0,1,1,0,3.8152541,0,1 | F,0,1,1,0,3.8152541,0,1 @ F,0,1,1,0,3.8152541,0,1 @ F,0,1,1,0,3.8152541,0,1 @ F,0,1,1,0,3.8152541,0,1"
       radius="0"
       unit="px"
       method="auto"
       mode="F"
       chamfer_steps="1"
       flexible="false"
       use_knot_distance="true"
       apply_no_radius="true"
       apply_with_radius="true"
       only_selected="false"
       hide_knots="false" />
    <filter
       inkscape:collect="always"
       style="color-interpolation-filters:sRGB"
       id="filter21"
       x="-0.07821356"
       y="-0.07821356"
       width="1.1564271"
       height="1.1564271">
      <feGaussianBlur
         inkscape:collect="always"
         stdDeviation="0.89433619"
         id="feGaussianBlur21" />
    </filter>
    <filter
       inkscape:collect="always"
       style="color-interpolation-filters:sRGB"
       id="filter22"
       x="-0.063276653"
       y="-0.063276653"
       width="1.1265533"
       height="1.1265533">
      <feGaussianBlur
         inkscape:collect="always"
         stdDeviation="1.4347886"
         id="feGaussianBlur22" />
    </filter>
  </defs>
  <sodipodi:namedview
     id="namedview19"
     pagecolor="#505050"
     bordercolor="#eeeeee"
     borderopacity="1"
     inkscape:showpageshadow="0"
     inkscape:pageopacity="0"
     inkscape:pagecheckerboard="0"
     inkscape:deskcolor="#505050"
     inkscape:zoom="6.6640625"
     inkscape:cx="16.731536"
     inkscape:cy="42.391559"
     inkscape:window-width="1920"
     inkscape:window-height="1010"
     inkscape:window-x="0"
     inkscape:window-y="0"
     inkscape:window-maximized="1"
     inkscape:current-layer="svg19" />
  <path
     id="rect1"
     style="fill:url(#radialGradient21)"
     d="m 31.999001,4 h 0.002 C 47.512446,4 60,16.487554 60,31.999001 v 0.002 C 60,47.512446 47.512446,60 32.000999,60 h -0.002 C 16.487554,60 4,47.512446 4,32.000999 v -0.002 C 4,16.487554 16.487554,4 31.999001,4 Z" />
  <path
     id="rect11"
     style="fill:#ffffff"
     d="m 17,20.815254 v 0.369492 A 3.8152541,3.8152541 45 0 0 20.815254,25 h 0.369492 A 3.8152541,3.8152541 135 0 0 25,21.184746 V 20.815254 A 3.8152541,3.8152541 45 0 0 21.184746,17 H 20.815254 A 3.8152541,3.8152541 135 0 0 17,20.815254 Z m 11,0 v 0.369492 A 3.8152541,3.8152541 45 0 0 31.815254,25 h 0.369492 A 3.8152541,3.8152541 135 0 0 36,21.184746 V 20.815254 A 3.8152541,3.8152541 45 0 0 32.184746,17 H 31.815254 A 3.8152541,3.8152541 135 0 0 28,20.815254 Z m 11,0 v 0.369492 A 3.8152541,3.8152541 45 0 0 42.815254,25 h 0.369492 A 3.8152541,3.8152541 135 0 0 47,21.184746 V 20.815254 A 3.8152541,3.8152541 45 0 0 43.184746,17 H 42.815254 A 3.8152541,3.8152541 135 0 0 39,20.815254 Z m -22,11 v 0.369492 A 3.8152541,3.8152541 45 0 0 20.815254,36 h 0.369492 A 3.8152541,3.8152541 135 0 0 25,32.184746 V 31.815254 A 3.8152541,3.8152541 45 0 0 21.184746,28 H 20.815254 A 3.8152541,3.8152541 135 0 0 17,31.815254 Z m 11,0 v 0.369492 A 3.8152541,3.8152541 45 0 0 31.815254,36 h 0.369492 A 3.8152541,3.8152541 135 0 0 36,32.184746 V 31.815254 A 3.8152541,3.8152541 45 0 0 32.184746,28 H 31.815254 A 3.8152541,3.8152541 135 0 0 28,31.815254 Z m 11,0 v 0.369492 A 3.8152541,3.8152541 45 0 0 42.815254,36 h 0.369492 A 3.8152541,3.8152541 135 0 0 47,32.184746 V 31.815254 A 3.8152541,3.8152541 45 0 0 43.184746,28 H 42.815254 A 3.8152541,3.8152541 135 0 0 39,31.815254 Z m -22,11 v 0.369492 A 3.8152541,3.8152541 45 0 0 20.815254,47 h 0.369492 A 3.8152541,3.8152541 135 0 0 25,43.184746 V 42.815254 A 3.8152541,3.8152541 45 0 0 21.184746,39 H 20.815254 A 3.8152541,3.8152541 135 0 0 17,42.815254 Z m 11,0 v 0.369492 A 3.8152541,3.8152541 45 0 0 31.815254,47 h 0.369492 A 3.8152541,3.8152541 135 0 0 36,43.184746 V 42.815254 A 3.8152541,3.8152541 45 0 0 32.184746,39 H 31.815254 A 3.8152541,3.8152541 135 0 0 28,42.815254 Z m 11,0 v 0.369492 A 3.8152541,3.8152541 45 0 0 42.815254,47 h 0.369492 A 3.8152541,3.8152541 135 0 0 47,43.184746 V 42.815254 A 3.8152541,3.8152541 45 0 0 43.184746,39 H 42.815254 A 3.8152541,3.8152541 135 0 0 39,42.815254 Z"
     inkscape:path-effect="#path-effect20"
     inkscape:original-d="M 17 17 L 17 25 L 25 25 L 25 17 L 17 17 z M 28 17 L 28 25 L 36 25 L 36 17 L 28 17 z M 39 17 L 39 25 L 47 25 L 47 17 L 39 17 z M 17 28 L 17 36 L 25 36 L 25 28 L 17 28 z M 28 28 L 28 36 L 36 36 L 36 28 L 28 28 z M 39 28 L 39 36 L 47 36 L 47 28 L 39 28 z M 17 39 L 17 47 L 25 47 L 25 39 L 17 39 z M 28 39 L 28 47 L 36 47 L 36 39 L 28 39 z M 39 39 L 39 47 L 47 47 L 47 39 L 39 39 z " />
  <path
     id="rect1-3"
     style="fill:none;stroke:#000000;stroke-opacity:1;stroke-width:0.19999992;stroke-dasharray:none;filter:url(#filter22)"
     d="m 31.999001,4 h 0.002 C 47.512446,4 60,16.487554 60,31.999001 v 0.002 C 60,47.512446 47.512446,60 32.000999,60 h -0.002 C 16.487554,60 4,47.512446 4,32.000999 v -0.002 C 4,16.487554 16.487554,4 31.999001,4 Z" />
  <path
     id="rect11-5"
     style="fill:none;stroke:#0034ff;stroke-opacity:1;stroke-width:0.40000001;stroke-dasharray:none;filter:url(#filter21)"
     d="m 17,20.815254 v 0.369492 A 3.8152541,3.8152541 45 0 0 20.815254,25 h 0.369492 A 3.8152541,3.8152541 135 0 0 25,21.184746 V 20.815254 A 3.8152541,3.8152541 45 0 0 21.184746,17 H 20.815254 A 3.8152541,3.8152541 135 0 0 17,20.815254 Z m 11,0 v 0.369492 A 3.8152541,3.8152541 45 0 0 31.815254,25 h 0.369492 A 3.8152541,3.8152541 135 0 0 36,21.184746 V 20.815254 A 3.8152541,3.8152541 45 0 0 32.184746,17 H 31.815254 A 3.8152541,3.8152541 135 0 0 28,20.815254 Z m 11,0 v 0.369492 A 3.8152541,3.8152541 45 0 0 42.815254,25 h 0.369492 A 3.8152541,3.8152541 135 0 0 47,21.184746 V 20.815254 A 3.8152541,3.8152541 45 0 0 43.184746,17 H 42.815254 A 3.8152541,3.8152541 135 0 0 39,20.815254 Z m -22,11 v 0.369492 A 3.8152541,3.8152541 45 0 0 20.815254,36 h 0.369492 A 3.8152541,3.8152541 135 0 0 25,32.184746 V 31.815254 A 3.8152541,3.8152541 45 0 0 21.184746,28 H 20.815254 A 3.8152541,3.8152541 135 0 0 17,31.815254 Z m 11,0 v 0.369492 A 3.8152541,3.8152541 45 0 0 31.815254,36 h 0.369492 A 3.8152541,3.8152541 135 0 0 36,32.184746 V 31.815254 A 3.8152541,3.8152541 45 0 0 32.184746,28 H 31.815254 A 3.8152541,3.8152541 135 0 0 28,31.815254 Z m 11,0 v 0.369492 A 3.8152541,3.8152541 45 0 0 42.815254,36 h 0.369492 A 3.8152541,3.8152541 135 0 0 47,32.184746 V 31.815254 A 3.8152541,3.8152541 45 0 0 43.184746,28 H 42.815254 A 3.8152541,3.8152541 135 0 0 39,31.815254 Z m -22,11 v 0.369492 A 3.8152541,3.8152541 45 0 0 20.815254,47 h 0.369492 A 3.8152541,3.8152541 135 0 0 25,43.184746 V 42.815254 A 3.8152541,3.8152541 45 0 0 21.184746,39 H 20.815254 A 3.8152541,3.8152541 135 0 0 17,42.815254 Z m 11,0 v 0.369492 A 3.8152541,3.8152541 45 0 0 31.815254,47 h 0.369492 A 3.8152541,3.8152541 135 0 0 36,43.184746 V 42.815254 A 3.8152541,3.8152541 45 0 0 32.184746,39 H 31.815254 A 3.8152541,3.8152541 135 0 0 28,42.815254 Z m 11,0 v 0.369492 A 3.8152541,3.8152541 45 0 0 42.815254,47 h 0.369492 A 3.8152541,3.8152541 135 0 0 47,43.184746 V 42.815254 A 3.8152541,3.8152541 45 0 0 43.184746,39 H 42.815254 A 3.8152541,3.8152541 135 0 0 39,42.815254 Z"
     inkscape:path-effect="#path-effect20-3"
     inkscape:original-d="m 17,17 v 8 h 8 v -8 z m 11,0 v 8 h 8 v -8 z m 11,0 v 8 h 8 V 17 Z M 17,28 v 8 h 8 v -8 z m 11,0 v 8 h 8 v -8 z m 11,0 v 8 h 8 V 28 Z M 17,39 v 8 h 8 v -8 z m 11,0 v 8 h 8 v -8 z m 11,0 v 8 h 8 v -8 z" />
</svg>
