<?xml version="1.0" encoding="UTF-8" standalone="no"?>
<svg
   width="64"
   height="64"
   version="1"
   id="svg14"
   sodipodi:docname="darktable.svg"
   inkscape:version="1.3.2 (091e20ef0f, 2023-11-25, custom)"
   xmlns:inkscape="http://www.inkscape.org/namespaces/inkscape"
   xmlns:sodipodi="http://sodipodi.sourceforge.net/DTD/sodipodi-0.dtd"
   xmlns:xlink="http://www.w3.org/1999/xlink"
   xmlns="http://www.w3.org/2000/svg"
   xmlns:svg="http://www.w3.org/2000/svg">
  <defs
     id="defs14">
    <linearGradient
       id="linearGradient26"
       inkscape:collect="always">
      <stop
         style="stop-color:#000000;stop-opacity:1;"
         offset="0"
         id="stop26" />
      <stop
         style="stop-color:#ffffff;stop-opacity:1;"
         offset="1"
         id="stop27" />
    </linearGradient>
    <inkscape:path-effect
       effect="fillet_chamfer"
       id="path-effect26"
       is_visible="true"
       lpeversion="1"
       nodesatellites_param="F,0,1,1,0,3.05243,0,1 @ F,0,0,1,0,3.05243,0,1 @ F,0,1,1,0,3.05243,0,1"
       radius="0"
       unit="px"
       method="auto"
       mode="F"
       chamfer_steps="1"
       flexible="false"
       use_knot_distance="true"
       apply_no_radius="true"
       apply_with_radius="true"
       only_selected="false"
       hide_knots="false" />
    <inkscape:path-effect
       effect="fillet_chamfer"
       id="path-effect25"
       is_visible="true"
       lpeversion="1"
       nodesatellites_param="F,0,1,1,0,2.429483,0,1 @ F,0,0,1,0,2.429483,0,1 @ F,0,1,1,0,2.429483,0,1"
       radius="0"
       unit="px"
       method="auto"
       mode="F"
       chamfer_steps="1"
       flexible="false"
       use_knot_distance="true"
       apply_no_radius="true"
       apply_with_radius="true"
       only_selected="false"
       hide_knots="false" />
    <inkscape:path-effect
       effect="fillet_chamfer"
       id="path-effect24"
       is_visible="true"
       lpeversion="1"
       nodesatellites_param="F,0,0,1,0,2.5660177,0,1 @ F,0,1,1,0,2.5660177,0,1 @ F,0,1,1,0,2.5660177,0,1"
       radius="0"
       unit="px"
       method="auto"
       mode="F"
       chamfer_steps="1"
       flexible="false"
       use_knot_distance="true"
       apply_no_radius="true"
       apply_with_radius="true"
       only_selected="false"
       hide_knots="false" />
    <inkscape:path-effect
       effect="fillet_chamfer"
       id="path-effect23"
       is_visible="true"
       lpeversion="1"
       nodesatellites_param="F,0,1,1,0,2.8620448,0,1 @ F,0,0,1,0,2.8620448,0,1 @ F,0,1,1,0,2.8620448,0,1"
       radius="0"
       unit="px"
       method="auto"
       mode="F"
       chamfer_steps="1"
       flexible="false"
       use_knot_distance="true"
       apply_no_radius="true"
       apply_with_radius="true"
       only_selected="false"
       hide_knots="false" />
    <inkscape:path-effect
       effect="fillet_chamfer"
       id="path-effect22"
       is_visible="true"
       lpeversion="1"
       nodesatellites_param="F,0,1,1,0,2.2189553,0,1 @ F,0,0,1,0,2.4308718,0,1 @ F,0,0,1,0,2.2189553,0,1"
       radius="0"
       unit="px"
       method="auto"
       mode="F"
       chamfer_steps="1"
       flexible="false"
       use_knot_distance="true"
       apply_no_radius="true"
       apply_with_radius="true"
       only_selected="false"
       hide_knots="false" />
    <inkscape:path-effect
       effect="fillet_chamfer"
       id="path-effect21"
       is_visible="true"
       lpeversion="1"
       nodesatellites_param="F,0,1,1,0,2.7677366,0,1 @ F,0,1,1,0,2.7677366,0,1 @ F,0,0,1,0,2.7677366,0,1"
       radius="0"
       unit="px"
       method="auto"
       mode="F"
       chamfer_steps="1"
       flexible="false"
       use_knot_distance="true"
       apply_no_radius="true"
       apply_with_radius="true"
       only_selected="false"
       hide_knots="false" />
    <linearGradient
       id="linearGradient20"
       inkscape:collect="always">
      <stop
         style="stop-color:#3b3b3b;stop-opacity:1;"
         offset="0"
         id="stop20" />
      <stop
         style="stop-color:#1f1f1f;stop-opacity:1;"
         offset="1"
         id="stop21" />
    </linearGradient>
    <radialGradient
       inkscape:collect="always"
       xlink:href="#linearGradient20"
       id="radialGradient21"
       cx="5.0618739"
       cy="58.087902"
       fx="5.0618739"
       fy="58.087902"
       r="23.999681"
       gradientUnits="userSpaceOnUse"
       gradientTransform="matrix(3.3599771,-1.9398837,1.9398837,3.3599771,-124.62968,-127.26667)" />
    <inkscape:path-effect
       effect="fillet_chamfer"
       id="path-effect21-2"
       is_visible="true"
       lpeversion="1"
       nodesatellites_param="F,0,1,1,0,2.7677366,0,1 @ F,0,1,1,0,2.7677366,0,1 @ F,0,0,1,0,2.7677366,0,1"
       radius="0"
       unit="px"
       method="auto"
       mode="F"
       chamfer_steps="1"
       flexible="false"
       use_knot_distance="true"
       apply_no_radius="true"
       apply_with_radius="true"
       only_selected="false"
       hide_knots="false" />
    <inkscape:path-effect
       effect="fillet_chamfer"
       id="path-effect26-9"
       is_visible="true"
       lpeversion="1"
       nodesatellites_param="F,0,1,1,0,3.05243,0,1 @ F,0,0,1,0,3.05243,0,1 @ F,0,1,1,0,3.05243,0,1"
       radius="0"
       unit="px"
       method="auto"
       mode="F"
       chamfer_steps="1"
       flexible="false"
       use_knot_distance="true"
       apply_no_radius="true"
       apply_with_radius="true"
       only_selected="false"
       hide_knots="false" />
    <inkscape:path-effect
       effect="fillet_chamfer"
       id="path-effect25-1"
       is_visible="true"
       lpeversion="1"
       nodesatellites_param="F,0,1,1,0,2.429483,0,1 @ F,0,0,1,0,2.429483,0,1 @ F,0,1,1,0,2.429483,0,1"
       radius="0"
       unit="px"
       method="auto"
       mode="F"
       chamfer_steps="1"
       flexible="false"
       use_knot_distance="true"
       apply_no_radius="true"
       apply_with_radius="true"
       only_selected="false"
       hide_knots="false" />
    <inkscape:path-effect
       effect="fillet_chamfer"
       id="path-effect24-2"
       is_visible="true"
       lpeversion="1"
       nodesatellites_param="F,0,0,1,0,2.5660177,0,1 @ F,0,1,1,0,2.5660177,0,1 @ F,0,1,1,0,2.5660177,0,1"
       radius="0"
       unit="px"
       method="auto"
       mode="F"
       chamfer_steps="1"
       flexible="false"
       use_knot_distance="true"
       apply_no_radius="true"
       apply_with_radius="true"
       only_selected="false"
       hide_knots="false" />
    <inkscape:path-effect
       effect="fillet_chamfer"
       id="path-effect23-7"
       is_visible="true"
       lpeversion="1"
       nodesatellites_param="F,0,1,1,0,2.8620448,0,1 @ F,0,0,1,0,2.8620448,0,1 @ F,0,1,1,0,2.8620448,0,1"
       radius="0"
       unit="px"
       method="auto"
       mode="F"
       chamfer_steps="1"
       flexible="false"
       use_knot_distance="true"
       apply_no_radius="true"
       apply_with_radius="true"
       only_selected="false"
       hide_knots="false" />
    <inkscape:path-effect
       effect="fillet_chamfer"
       id="path-effect22-0"
       is_visible="true"
       lpeversion="1"
       nodesatellites_param="F,0,1,1,0,2.2189553,0,1 @ F,0,0,1,0,2.4308718,0,1 @ F,0,0,1,0,2.2189553,0,1"
       radius="0"
       unit="px"
       method="auto"
       mode="F"
       chamfer_steps="1"
       flexible="false"
       use_knot_distance="true"
       apply_no_radius="true"
       apply_with_radius="true"
       only_selected="false"
       hide_knots="false" />
    <radialGradient
       inkscape:collect="always"
       xlink:href="#linearGradient26"
       id="radialGradient27"
       cx="11.711924"
       cy="49.410938"
       fx="11.711924"
       fy="49.410938"
       r="26.468228"
       gradientTransform="matrix(4.7276976,-1.2667828,1.2718765,4.7467077,-132.49397,-147.82049)"
       gradientUnits="userSpaceOnUse" />
    <filter
       inkscape:collect="always"
       style="color-interpolation-filters:sRGB"
       id="filter27"
       x="-0.10389289"
       y="-0.10347929"
       width="1.2077891"
       height="1.2069587">
      <feGaussianBlur
         inkscape:collect="always"
         stdDeviation="2.2499554"
         id="feGaussianBlur27" />
    </filter>
  </defs>
  <sodipodi:namedview
     id="namedview14"
     pagecolor="#ffffff"
     bordercolor="#000000"
     borderopacity="0.25"
     inkscape:showpageshadow="2"
     inkscape:pageopacity="0.0"
     inkscape:pagecheckerboard="0"
     inkscape:deskcolor="#d1d1d1"
     inkscape:zoom="8.5515726"
     inkscape:cx="22.685886"
     inkscape:cy="28.883576"
     inkscape:window-width="1920"
     inkscape:window-height="1008"
     inkscape:window-x="0"
     inkscape:window-y="0"
     inkscape:window-maximized="1"
     inkscape:current-layer="svg14" />
  <g
     id="g27">
    <path
       style="fill:url(#radialGradient21);fill-opacity:1"
       d="M 55.999332,32.000464 A 23.999681,23.999681 0 0 1 31.999651,56.000145 23.999681,23.999681 0 0 1 7.9999701,32.000464 23.999681,23.999681 0 0 1 31.999651,8.0007835 23.999681,23.999681 0 0 1 55.999332,32.000464 Z"
       id="path1" />
    <g
       id="g26">
      <path
         style="fill:#e9721a;stroke-width:1.02307"
         d="M 36.529679,9.1471284 31.973086,21.93524 a 1.6292838,1.6292838 50.095786 0 0 1.801437,2.154173 L 53.57084,20.804995 c 1.507966,-0.250187 2.162968,-1.559219 1.311938,-2.828139 C 51.446803,12.853679 46.252531,8.9778578 40.14936,7.1832757 38.683496,6.7522518 37.042738,7.7072244 36.529679,9.1471284 Z"
         id="path3"
         inkscape:path-effect="#path-effect21"
         inkscape:original-d="M 37.458655,6.5399517 31.04411,24.542417 56.301253,20.351991 C 52.56097,13.268574 45.667635,8.0632782 37.458655,6.5399517 Z" />
      <path
         style="fill:#e3bf20;stroke-width:1.02307"
         d="m 40.03389,29.795103 12.388963,14.791465 c 1.082462,1.292376 2.720485,1.197315 3.456603,-0.318139 2.59829,-5.349129 3.257567,-11.514285 1.869725,-17.439163 -0.384279,-1.640534 -2.204895,-2.677569 -3.861595,-2.365639 -4.303743,0.810326 -8.509126,1.622527 -12.813128,2.431473 -1.656751,0.31139 -2.12303,1.607627 -1.040568,2.900003 z"
         id="path4"
         inkscape:path-effect="#path-effect26"
         inkscape:original-d="m 38.07392,27.45505 16.308903,19.471571 c 4.351455,-6.736192 5.27253,-15.251388 2.50517,-23.024138 -6.373664,1.182992 -12.439859,2.372525 -18.814073,3.552567 z"
         sodipodi:nodetypes="cccc" />
      <path
         style="fill:#28a226;stroke-width:1.02307"
         d="M 50.038728,47.558063 40.623988,36.74518 a 1.4529505,1.4529505 169.83553 0 0 -2.454792,0.440115 l -7.229979,19.116399 c -0.474654,1.255006 0.229182,2.330804 1.569299,2.273209 8.847827,-0.380263 14.729037,-4.894039 17.42785,-7.448899 0.973775,-0.921835 0.983452,-2.556003 0.102362,-3.567941 z"
         id="path5"
         inkscape:path-effect="#path-effect25"
         inkscape:original-d="M 51.634083,49.390338 39.028633,34.912905 30.07978,58.574084 c 13.969361,0.599766 21.392215,-9.183746 21.554303,-9.183746 z"
         sodipodi:nodetypes="cccc" />
      <path
         style="fill:#2977d1;stroke-width:1.02307"
         d="M 27.401934,55.043036 32.09387,41.875683 a 1.5105129,1.5105129 50.096198 0 0 -1.670109,-1.997159 l -20.194315,3.350451 c -1.3980614,0.231953 -2.0032429,1.443972 -1.2205736,2.624743 3.5874316,5.412166 8.8955166,9.009171 15.0562316,10.933222 1.352431,0.422378 2.861144,-0.408951 3.33683,-1.743904 z"
         id="path6"
         inkscape:path-effect="#path-effect24"
         inkscape:original-d="M 26.540629,57.460183 32.955175,39.458536 7.698032,43.648963 c 3.943009,7.42771 10.805073,11.936233 18.842597,13.81122 z"
         sodipodi:nodetypes="cccc" />
      <path
         style="fill:#c029c0;stroke-width:1.02307"
         d="M 9.7209143,39.548714 23.112685,37.066488 a 1.6707561,1.6707561 109.77395 0 0 0.976291,-2.715626 L 11.455101,19.26835 c -1.015,-1.211723 -2.5483513,-1.122029 -3.2533237,0.291838 -2.7757367,5.566914 -3.2975707,11.683113 -2.0102795,17.739817 0.3285137,1.545658 1.9752255,2.536785 3.5294165,2.248709 z"
         id="path7"
         inkscape:path-effect="#path-effect23"
         inkscape:original-d="M 6.9068025,40.070322 25.926797,36.54488 9.6172802,17.074332 C 5.0953465,24.099029 4.5206288,32.214363 6.9068025,40.070322 Z"
         sodipodi:nodetypes="cccc" />
      <path
         style="fill:#c01728;stroke-width:1.02307"
         d="M 25.756133,27.01131 33.059065,7.6993699 C 33.533933,6.4436246 32.82947,5.3677625 31.48883,5.4300774 24.966736,5.7332335 18.657897,8.373718 13.891041,12.999587 c -0.879213,0.85321 -0.873442,2.359435 -0.06867,3.283652 l 9.691718,11.130139 a 1.3270336,1.3270336 169.83314 0 0 2.242041,-0.402068 z"
         id="path8"
         inkscape:path-effect="#path-effect22"
         inkscape:original-d="M 24.971265,29.086821 33.91889,5.4256419 C 25.826538,5.0786222 17.808459,8.3607822 12.365201,14.609796 Z"
         sodipodi:nodetypes="cccc" />
    </g>
    <path
       id="path3-3"
       style="opacity:1;mix-blend-mode:overlay;fill:url(#radialGradient27);stroke-width:1.02307"
       d="m 31.488172,5.4302244 c -6.522087,0.3031561 -12.830806,2.9444481 -17.597656,7.5703116 -0.879213,0.853209 -0.873133,2.358988 -0.06836,3.283204 l 9.691406,11.128906 A 1.3270336,1.3270336 0 0 0 25.75575,27.012255 L 33.058484,7.6997555 C 33.533352,6.4440115 32.82881,5.3679096 31.488172,5.4302244 Z m 7.826172,1.6503911 c -1.207093,0.04635 -2.368296,0.896485 -2.785157,2.066406 l -4.55664,12.7890615 a 1.6292838,1.6292838 0 0 0 1.802734,2.154297 l 19.794922,-3.285156 c 1.507964,-0.250187 2.163529,-1.559207 1.3125,-2.828125 C 51.446731,12.853927 46.253446,8.9787105 40.150281,7.1841305 39.875432,7.1033105 39.592904,7.0699185 39.314344,7.0806155 Z M 9.9373907,18.426318 C 9.256325,18.387715 8.5976092,18.765784 8.2010626,19.561083 5.4253287,25.127992 4.9040071,31.242666 6.191297,37.299365 c 0.3285134,1.545655 1.9751074,2.538076 3.5292969,2.25 L 23.113172,37.066943 a 1.6707561,1.6707561 0 0 0 0.976562,-2.716797 L 11.454969,19.268115 C 11.010906,18.737986 10.467108,18.456342 9.9373907,18.426318 Z M 54.513562,24.40874 c -0.209084,-0.0017 -0.419865,0.0157 -0.626953,0.05469 -4.303739,0.810325 -8.508502,1.622696 -12.8125,2.431641 -1.656749,0.311389 -2.123476,1.608016 -1.041015,2.90039 l 12.390625,14.791016 c 1.08246,1.292374 2.718961,1.197093 3.455078,-0.318359 2.598288,-5.349124 3.258935,-11.514581 1.871094,-17.439454 -0.336244,-1.435465 -1.772739,-2.407966 -3.236329,-2.419921 z m -14.74414,11.857421 a 1.4529505,1.4529505 0 0 0 -1.59961,0.919922 l -7.230468,19.115235 c -0.474654,1.255005 0.228243,2.331033 1.568359,2.273437 8.847818,-0.380262 14.728924,-4.894361 17.427734,-7.449219 0.973774,-0.921833 0.984605,-2.556423 0.103516,-3.568359 l -9.414062,-10.8125 a 1.4529505,1.4529505 0 0 0 -0.855469,-0.478516 z m -9.060547,3.591797 a 1.5105129,1.5105129 0 0 0 -0.285156,0.02148 l -20.19336,3.349609 c -1.3980594,0.231953 -2.0033711,1.44423 -1.2207026,2.625 3.5874276,5.412161 8.8939786,9.009544 15.0546876,10.933594 1.352429,0.422377 2.862205,-0.409189 3.33789,-1.744141 l 4.691407,-13.167969 a 1.5105129,1.5105129 0 0 0 -1.384766,-2.017578 z" />
    <path
       id="path3-3-9"
       style="mix-blend-mode:normal;fill:none;stroke-width:0.2;stroke:#000000;stroke-opacity:1;stroke-dasharray:none;filter:url(#filter27)"
       d="m 31.488172,5.4302242 c -6.522087,0.303156 -12.830806,2.944448 -17.597656,7.5703118 -0.879213,0.853209 -0.873133,2.358988 -0.06836,3.283204 l 9.691406,11.128906 A 1.3270336,1.3270336 0 0 0 25.75575,27.012255 L 33.058484,7.6997562 c 0.474868,-1.255744 -0.229674,-2.331846 -1.570312,-2.269532 z m 7.826172,1.650392 c -1.207093,0.04635 -2.368296,0.896485 -2.785157,2.066406 l -4.55664,12.7890608 a 1.6292838,1.6292838 0 0 0 1.802734,2.154297 l 19.794922,-3.285156 c 1.507964,-0.250187 2.163529,-1.559207 1.3125,-2.828125 C 51.446731,12.853927 46.253446,8.9787112 40.150281,7.1841312 39.875432,7.1033112 39.592904,7.0699192 39.314344,7.0806162 Z M 9.9373906,18.426318 c -0.6810657,-0.0386 -1.3397815,0.339466 -1.7363281,1.134765 -2.7757339,5.566909 -3.2970555,11.681583 -2.0097656,17.738282 0.3285134,1.545655 1.9751074,2.538076 3.5292969,2.25 L 23.113172,37.066943 a 1.6707561,1.6707561 0 0 0 0.976562,-2.716797 L 11.454969,19.268115 C 11.010906,18.737986 10.467108,18.456342 9.9373906,18.426318 Z M 54.513562,24.40874 c -0.209084,-0.0017 -0.419865,0.0157 -0.626953,0.05469 -4.303739,0.810325 -8.508502,1.622696 -12.8125,2.431641 -1.656749,0.311389 -2.123476,1.608016 -1.041015,2.90039 l 12.390625,14.791016 c 1.08246,1.292374 2.718961,1.197093 3.455078,-0.318359 2.598288,-5.349124 3.258935,-11.514581 1.871094,-17.439454 -0.336244,-1.435465 -1.772739,-2.407966 -3.236329,-2.419921 z m -14.74414,11.857421 a 1.4529505,1.4529505 0 0 0 -1.59961,0.919922 l -7.230468,19.115235 c -0.474654,1.255005 0.228243,2.331033 1.568359,2.273437 8.847818,-0.380262 14.728924,-4.894361 17.427734,-7.449219 0.973774,-0.921833 0.984605,-2.556423 0.103516,-3.568359 l -9.414062,-10.8125 a 1.4529505,1.4529505 0 0 0 -0.855469,-0.478516 z m -9.060547,3.591797 a 1.5105129,1.5105129 0 0 0 -0.285156,0.02148 l -20.19336,3.349609 c -1.3980595,0.231953 -2.0033712,1.44423 -1.2207027,2.625 3.5874277,5.412161 8.8939787,9.009544 15.0546877,10.933594 1.352429,0.422377 2.862205,-0.409189 3.33789,-1.744141 l 4.691407,-13.167969 a 1.5105129,1.5105129 0 0 0 -1.384766,-2.017578 z" />
  </g>
</svg>
