<?xml version="1.0" encoding="UTF-8" standalone="no"?>
<svg
   width="64"
   height="64"
   version="1.1"
   id="svg4"
   sodipodi:docname="about_kde.svg"
   inkscape:version="1.3.2 (091e20ef0f, 2023-11-25, custom)"
   xmlns:inkscape="http://www.inkscape.org/namespaces/inkscape"
   xmlns:sodipodi="http://sodipodi.sourceforge.net/DTD/sodipodi-0.dtd"
   xmlns:xlink="http://www.w3.org/1999/xlink"
   xmlns="http://www.w3.org/2000/svg"
   xmlns:svg="http://www.w3.org/2000/svg">
  <defs
     id="defs4">
    <inkscape:path-effect
       effect="fillet_chamfer"
       id="path-effect1"
       is_visible="true"
       lpeversion="1"
       nodesatellites_param="F,0,1,1,0,14.495775,0,1 @ F,0,0,1,0,14.495775,0,1 @ F,0,1,1,0,14.495775,0,1 @ F,0,1,1,0,14.495775,0,1"
       radius="0"
       unit="px"
       method="auto"
       mode="F"
       chamfer_steps="1"
       flexible="false"
       use_knot_distance="true"
       apply_no_radius="true"
       apply_with_radius="true"
       only_selected="false"
       hide_knots="false" />
    <linearGradient
       id="linearGradient5"
       inkscape:collect="always">
      <stop
         style="stop-color:#00caff;stop-opacity:1;"
         offset="0"
         id="stop5" />
      <stop
         style="stop-color:#2c3dff;stop-opacity:1;"
         offset="1"
         id="stop6" />
    </linearGradient>
    <inkscape:path-effect
       effect="fillet_chamfer"
       id="path-effect4"
       is_visible="true"
       lpeversion="1"
       nodesatellites_param="F,0,0,1,0,1.9331451,0,1 @ F,0,0,1,0,1.9331451,0,1 @ F,0,0,1,0,1.9331451,0,1 @ F,0,0,1,0,1.9331451,0,1 @ F,0,0,1,0,0.64620671,0,1 @ F,0,0,1,0,1.9331451,0,1 @ F,0,0,1,0,1.9331451,0,1 @ F,0,0,1,0,1.3872211,0,1 @ F,0,0,1,0,1.9331451,0,1 @ F,0,0,1,0,1.9331451,0,1 @ F,0,0,1,0,0.64620671,0,1 | F,0,0,1,0,0,0,1 @ F,0,0,1,0,0,0,1 @ F,0,0,1,0,0,0,1 @ F,0,0,1,0,0,0,1 @ F,0,0,1,0,0,0,1 @ F,0,0,1,0,0,0,1 @ F,0,0,1,0,0,0,1 @ F,0,0,1,0,0,0,1 @ F,0,0,1,0,0,0,1 @ F,0,0,1,0,0,0,1 @ F,0,0,1,0,0,0,1 @ F,0,0,1,0,0,0,1 @ F,0,0,1,0,0,0,1 @ F,0,0,1,0,0,0,1 @ F,0,0,1,0,0,0,1 @ F,0,0,1,0,0,0,1 @ F,0,0,1,0,0,0,1 @ F,0,0,1,0,0,0,1 @ F,0,0,1,0,0,0,1 @ F,0,0,1,0,0,0,1 @ F,0,0,1,0,0,0,1 @ F,0,0,1,0,0,0,1 @ F,0,0,1,0,0,0,1 @ F,0,0,1,0,0,0,1 @ F,0,0,1,0,0,0,1 @ F,0,0,1,0,0,0,1 @ F,0,0,1,0,0,0,1 @ F,0,0,1,0,0,0,1 @ F,0,0,1,0,0,0,1 @ F,0,0,1,0,0,0,1 @ F,0,0,1,0,0,0,1 @ F,0,0,1,0,0,0,1 @ F,0,0,1,0,0,0,1 @ F,0,0,1,0,0,0,1 @ F,0,0,1,0,0,0,1 @ F,0,0,1,0,1.9331451,0,1 @ F,0,0,1,0,0,0,1 @ F,0,0,1,0,0,0,1 @ F,0,0,1,0,0,0,1 @ F,0,0,1,0,0,0,1 @ F,0,0,1,0,0,0,1 @ F,0,0,1,0,0,0,1 @ F,0,0,1,0,0,0,1 @ F,0,0,1,0,0,0,1"
       radius="0"
       unit="px"
       method="auto"
       mode="F"
       chamfer_steps="1"
       flexible="false"
       use_knot_distance="true"
       apply_no_radius="true"
       apply_with_radius="true"
       only_selected="false"
       hide_knots="false" />
    <inkscape:path-effect
       effect="fillet_chamfer"
       id="path-effect4-9"
       is_visible="true"
       lpeversion="1"
       nodesatellites_param="F,0,0,1,0,1.9331451,0,1 @ F,0,0,1,0,1.9331451,0,1 @ F,0,0,1,0,1.9331451,0,1 @ F,0,0,1,0,1.9331451,0,1 @ F,0,0,1,0,0.64620671,0,1 @ F,0,0,1,0,1.9331451,0,1 @ F,0,0,1,0,1.9331451,0,1 @ F,0,0,1,0,1.3872211,0,1 @ F,0,0,1,0,1.9331451,0,1 @ F,0,0,1,0,1.9331451,0,1 @ F,0,0,1,0,0.64620671,0,1 | F,0,0,1,0,0,0,1 @ F,0,0,1,0,0,0,1 @ F,0,0,1,0,0,0,1 @ F,0,0,1,0,0,0,1 @ F,0,0,1,0,0,0,1 @ F,0,0,1,0,0,0,1 @ F,0,0,1,0,0,0,1 @ F,0,0,1,0,0,0,1 @ F,0,0,1,0,0,0,1 @ F,0,0,1,0,0,0,1 @ F,0,0,1,0,0,0,1 @ F,0,0,1,0,0,0,1 @ F,0,0,1,0,0,0,1 @ F,0,0,1,0,0,0,1 @ F,0,0,1,0,0,0,1 @ F,0,0,1,0,0,0,1 @ F,0,0,1,0,0,0,1 @ F,0,0,1,0,0,0,1 @ F,0,0,1,0,0,0,1 @ F,0,0,1,0,0,0,1 @ F,0,0,1,0,0,0,1 @ F,0,0,1,0,0,0,1 @ F,0,0,1,0,0,0,1 @ F,0,0,1,0,0,0,1 @ F,0,0,1,0,0,0,1 @ F,0,0,1,0,0,0,1 @ F,0,0,1,0,0,0,1 @ F,0,0,1,0,0,0,1 @ F,0,0,1,0,0,0,1 @ F,0,0,1,0,0,0,1 @ F,0,0,1,0,0,0,1 @ F,0,0,1,0,0,0,1 @ F,0,0,1,0,0,0,1 @ F,0,0,1,0,0,0,1 @ F,0,0,1,0,0,0,1 @ F,0,0,1,0,1.9331451,0,1 @ F,0,0,1,0,0,0,1 @ F,0,0,1,0,0,0,1 @ F,0,0,1,0,0,0,1 @ F,0,0,1,0,0,0,1 @ F,0,0,1,0,0,0,1 @ F,0,0,1,0,0,0,1 @ F,0,0,1,0,0,0,1 @ F,0,0,1,0,0,0,1"
       radius="0"
       unit="px"
       method="auto"
       mode="F"
       chamfer_steps="1"
       flexible="false"
       use_knot_distance="true"
       apply_no_radius="true"
       apply_with_radius="true"
       only_selected="false"
       hide_knots="false" />
    <radialGradient
       inkscape:collect="always"
       xlink:href="#linearGradient5"
       id="radialGradient6"
       cx="15.003463"
       cy="48.006954"
       fx="15.003463"
       fy="48.006954"
       r="28"
       gradientUnits="userSpaceOnUse"
       gradientTransform="matrix(2.4305136,-1.4032577,1.4032577,2.4305136,-89.912572,-74.90383)" />
    <inkscape:path-effect
       effect="fillet_chamfer"
       id="path-effect4-3"
       is_visible="true"
       lpeversion="1"
       nodesatellites_param="F,0,0,1,0,1.9331451,0,1 @ F,0,0,1,0,1.9331451,0,1 @ F,0,0,1,0,1.9331451,0,1 @ F,0,0,1,0,1.9331451,0,1 @ F,0,0,1,0,0.64620671,0,1 @ F,0,0,1,0,1.9331451,0,1 @ F,0,0,1,0,1.9331451,0,1 @ F,0,0,1,0,1.3872211,0,1 @ F,0,0,1,0,1.9331451,0,1 @ F,0,0,1,0,1.9331451,0,1 @ F,0,0,1,0,0.64620671,0,1 | F,0,0,1,0,0,0,1 @ F,0,0,1,0,0,0,1 @ F,0,0,1,0,0,0,1 @ F,0,0,1,0,0,0,1 @ F,0,0,1,0,0,0,1 @ F,0,0,1,0,0,0,1 @ F,0,0,1,0,0,0,1 @ F,0,0,1,0,0,0,1 @ F,0,0,1,0,0,0,1 @ F,0,0,1,0,0,0,1 @ F,0,0,1,0,0,0,1 @ F,0,0,1,0,0,0,1 @ F,0,0,1,0,0,0,1 @ F,0,0,1,0,0,0,1 @ F,0,0,1,0,0,0,1 @ F,0,0,1,0,0,0,1 @ F,0,0,1,0,0,0,1 @ F,0,0,1,0,0,0,1 @ F,0,0,1,0,0,0,1 @ F,0,0,1,0,0,0,1 @ F,0,0,1,0,0,0,1 @ F,0,0,1,0,0,0,1 @ F,0,0,1,0,0,0,1 @ F,0,0,1,0,0,0,1 @ F,0,0,1,0,0,0,1 @ F,0,0,1,0,0,0,1 @ F,0,0,1,0,0,0,1 @ F,0,0,1,0,0,0,1 @ F,0,0,1,0,0,0,1 @ F,0,0,1,0,0,0,1 @ F,0,0,1,0,0,0,1 @ F,0,0,1,0,0,0,1 @ F,0,0,1,0,0,0,1 @ F,0,0,1,0,0,0,1 @ F,0,0,1,0,0,0,1 @ F,0,0,1,0,1.9331451,0,1 @ F,0,0,1,0,0,0,1 @ F,0,0,1,0,0,0,1 @ F,0,0,1,0,0,0,1 @ F,0,0,1,0,0,0,1 @ F,0,0,1,0,0,0,1 @ F,0,0,1,0,0,0,1 @ F,0,0,1,0,0,0,1 @ F,0,0,1,0,0,0,1"
       radius="0"
       unit="px"
       method="auto"
       mode="F"
       chamfer_steps="1"
       flexible="false"
       use_knot_distance="true"
       apply_no_radius="true"
       apply_with_radius="true"
       only_selected="false"
       hide_knots="false" />
    <inkscape:path-effect
       effect="fillet_chamfer"
       id="path-effect1-3"
       is_visible="true"
       lpeversion="1"
       nodesatellites_param="F,0,1,1,0,14.495775,0,1 @ F,0,0,1,0,14.495775,0,1 @ F,0,1,1,0,14.495775,0,1 @ F,0,1,1,0,14.495775,0,1"
       radius="0"
       unit="px"
       method="auto"
       mode="F"
       chamfer_steps="1"
       flexible="false"
       use_knot_distance="true"
       apply_no_radius="true"
       apply_with_radius="true"
       only_selected="false"
       hide_knots="false" />
    <filter
       inkscape:collect="always"
       style="color-interpolation-filters:sRGB"
       id="filter1"
       x="-0.12924797"
       y="-0.12924797"
       width="1.2584959"
       height="1.2584959">
      <feGaussianBlur
         inkscape:collect="always"
         stdDeviation="2.9532859"
         id="feGaussianBlur1" />
    </filter>
    <filter
       inkscape:collect="always"
       style="color-interpolation-filters:sRGB"
       id="filter2"
       x="-0.18516059"
       y="-0.17345379"
       width="1.3702797"
       height="1.3469019">
      <feGaussianBlur
         inkscape:collect="always"
         stdDeviation="2.9532859"
         id="feGaussianBlur2" />
    </filter>
  </defs>
  <sodipodi:namedview
     id="namedview4"
     pagecolor="#ffffff"
     bordercolor="#000000"
     borderopacity="0.25"
     inkscape:showpageshadow="2"
     inkscape:pageopacity="0.0"
     inkscape:pagecheckerboard="0"
     inkscape:deskcolor="#d1d1d1"
     inkscape:zoom="9.7669124"
     inkscape:cx="27.849129"
     inkscape:cy="30.971917"
     inkscape:window-width="1920"
     inkscape:window-height="1020"
     inkscape:window-x="0"
     inkscape:window-y="0"
     inkscape:window-maximized="1"
     inkscape:current-layer="svg4" />
  <path
     id="rect2"
     style="fill:url(#radialGradient6)"
     d="m 18.495775,4 h 27.00845 A 14.495775,14.495775 45 0 1 60,18.495775 v 27.00845 A 14.495775,14.495775 135 0 1 45.504225,60 H 18.495775 A 14.495775,14.495775 45 0 1 4,45.504225 V 18.495775 A 14.495775,14.495775 135 0 1 18.495775,4 Z"
     inkscape:path-effect="#path-effect1"
     inkscape:original-d="M 4,4 H 60 V 60 H 4 Z"
     transform="matrix(0.90635671,0,0,0.90635671,2.9988964,3.0004639)" />
  <path
     style="fill:#ffffff"
     d="m 34.088628,11.289329 -4.177256,0.6323 A 2.2477807,2.2477807 130.69632 0 0 28,14.144093 v 25.07121 a 1.4824871,1.4824871 37.483817 0 0 1.866992,1.431755 L 34.133008,39.5014 A 2.5207977,2.5207977 127.48382 0 0 36,37.066865 v -8.600336 a 0.1807739,0.1807739 164.37124 0 1 0.335307,-0.0938 l 6.661612,10.974745 a 2.3326848,2.3326848 19.093214 0 0 2.813141,0.973764 l 4.37988,-1.642454 a 1.3725576,1.3725576 104.81919 0 0 0.572491,-2.163856 l -7.874354,-9.449224 a 1.7317425,1.7317425 88.891078 0 1 -0.04191,-2.164955 l 7.978564,-10.364969 a 1.2768217,1.2768217 71.032063 0 0 -0.692598,-2.015113 l -4.01818,-1.037406 a 2.6445416,2.6445416 158.3098 0 0 -2.900274,1.153584 L 36.343806,23.570041 A 0.1861711,0.1861711 16.071605 0 1 36,23.470991 V 12.933155 a 1.662551,1.662551 40.696318 0 0 -1.911372,-1.643826 z m -14.37769,7.558337 c -0.189184,0 -0.378371,0.07368 -0.523438,0.21875 l -3.144531,3.144532 c -0.290135,0.290134 -0.220288,0.704614 0,1.05078 l 3.253906,5.109376 c -0.241085,0.500442 -0.449846,1.01582 -0.625,1.542968 -0.0077,0.02268 -0.01978,0.04368 -0.02734,0.0664 l -5.902344,1.3125 C 12.341647,31.381998 12,31.624856 12,32.035166 v 1.964844 1.964844 c 0,0.41031 0.341647,0.65318 0.742188,0.742188 l 5.902343,1.3125 c 0.01292,0.0388 0.03357,0.07462 0.04687,0.11328 0.17049,0.512084 0.372704,1.013054 0.605469,1.5 l -3.253906,5.10547 c -0.220288,0.346166 -0.290135,0.760646 0,1.05078 l 3.144532,3.144532 c 0.290135,0.290134 0.756735,0.290134 1.046876,0 l 5.101562,-3.25 c 0.501518,0.243898 1.01821,0.455272 1.546874,0.632812 0.0347,0.0122 0.06678,0.03108 0.10156,0.04296 l 1.308592,5.898436 C 28.29296,52.668124 28.62484,53 29.035148,53 h 4.441406 c 0.41031,0 0.65318,-0.341648 0.742188,-0.742188 l 1.308594,-6.078124 c 0.601208,-0.226026 1.184836,-0.496298 1.746094,-0.808594 l 4.980468,3.5625 c 0.290136,0.290134 0.756742,0.290134 1.046876,0 l 3.14453,-3.144532 c 0.290136,-0.290134 0.220288,-0.704614 0,-1.05078 l -1.89453,-2.875 -0.19922,0.07422 c -0.450502,0.16922 -0.95765,-0.0064 -1.20703,-0.417968 L 42.155603,39.890721 C 41.601518,38.97811 40.830987,39.050572 40.253698,39.947044 38.296476,42.986414 34.883581,45.00001 31,45.00001 c -6.075132,0 -11,-4.924868 -11,-11 0,-4.66184 2.905598,-8.6367 7,-10.238282 v -2.191406 l -0.0156,0.07032 c -0.04416,0.015 -0.0849,0.03914 -0.1289,0.05468 -0.52165,0.17324 -1.03179,0.379376 -1.527344,0.617188 l -5.09378,-3.246094 c -0.145072,-0.145067 -0.334254,-0.21875 -0.523438,-0.21875 z"
     id="path3"
     inkscape:path-effect="#path-effect4"
     inkscape:original-d="m 36,11.00001 -8,1.210938 v 28.9375 L 36,39.00001 V 27.820322 l 8,13.179688 8,-3 -10,-12 L 52.003906,13.003916 44.242188,11.00001 36,24.117198 Z m -16.289062,7.847656 c -0.189184,0 -0.378371,0.07368 -0.523438,0.21875 l -3.144531,3.144532 c -0.290135,0.290134 -0.220288,0.704614 0,1.05078 l 3.253906,5.109376 c -0.241085,0.500442 -0.449846,1.01582 -0.625,1.542968 -0.0077,0.02268 -0.01978,0.04368 -0.02734,0.0664 l -5.902344,1.3125 C 12.341647,31.381998 12,31.624856 12,32.035166 v 1.964844 1.964844 c 0,0.41031 0.341647,0.65318 0.742188,0.742188 l 5.902343,1.3125 c 0.01292,0.0388 0.03357,0.07462 0.04687,0.11328 0.17049,0.512084 0.372704,1.013054 0.605469,1.5 l -3.253906,5.10547 c -0.220288,0.346166 -0.290135,0.760646 0,1.05078 l 3.144532,3.144532 c 0.290135,0.290134 0.756735,0.290134 1.046876,0 l 5.101562,-3.25 c 0.501518,0.243898 1.01821,0.455272 1.546874,0.632812 0.0347,0.0122 0.06678,0.03108 0.10156,0.04296 l 1.308592,5.898436 C 28.29296,52.668124 28.62484,53 29.035148,53 h 4.441406 c 0.41031,0 0.65318,-0.341648 0.742188,-0.742188 l 1.308594,-6.078124 c 0.601208,-0.226026 1.184836,-0.496298 1.746094,-0.808594 l 4.980468,3.5625 c 0.290136,0.290134 0.756742,0.290134 1.046876,0 l 3.14453,-3.144532 c 0.290136,-0.290134 0.220288,-0.704614 0,-1.05078 l -1.89453,-2.875 -0.19922,0.07422 c -0.450502,0.16922 -0.95765,-0.0064 -1.20703,-0.417968 l -1.99218,-3.281242 C 39.492472,42.208682 35.572478,45.00001 31,45.00001 c -6.075132,0 -11,-4.924868 -11,-11 0,-4.66184 2.905598,-8.6367 7,-10.238282 v -2.191406 l -0.0156,0.07032 c -0.04416,0.015 -0.0849,0.03914 -0.1289,0.05468 -0.52165,0.17324 -1.03179,0.379376 -1.527344,0.617188 l -5.09378,-3.246094 c -0.145072,-0.145067 -0.334254,-0.21875 -0.523438,-0.21875 z"
     transform="matrix(0.90635671,0,0,0.90635671,2.9988964,3.0004639)" />
  <path
     id="rect2-5"
     style="fill:none;stroke:#000000;stroke-width:0.3;stroke-linejoin:round;stroke-dasharray:none;stroke-opacity:1;filter:url(#filter1)"
     d="m 18.495775,4 h 27.00845 A 14.495775,14.495775 45 0 1 60,18.495775 v 27.00845 A 14.495775,14.495775 135 0 1 45.504225,60 H 18.495775 A 14.495775,14.495775 45 0 1 4,45.504225 V 18.495775 A 14.495775,14.495775 135 0 1 18.495775,4 Z"
     inkscape:path-effect="#path-effect1-3"
     inkscape:original-d="M 4,4 H 60 V 60 H 4 Z"
     transform="matrix(0.90635671,0,0,0.90635671,3.0212642,3.0380034)" />
  <path
     style="fill:none;stroke:#000000;stroke-width:0.3;stroke-linejoin:round;stroke-dasharray:none;stroke-opacity:1;filter:url(#filter2)"
     d="m 34.088628,11.289329 -4.177256,0.6323 A 2.2477807,2.2477807 130.69632 0 0 28,14.144093 v 25.07121 a 1.4824871,1.4824871 37.483817 0 0 1.866992,1.431755 L 34.133008,39.5014 A 2.5207977,2.5207977 127.48382 0 0 36,37.066865 v -8.600336 a 0.1807739,0.1807739 164.37124 0 1 0.335307,-0.0938 l 6.661612,10.974745 a 2.3326848,2.3326848 19.093214 0 0 2.813141,0.973764 l 4.37988,-1.642454 a 1.3725576,1.3725576 104.81919 0 0 0.572491,-2.163856 l -7.874354,-9.449224 a 1.7317425,1.7317425 88.891078 0 1 -0.04191,-2.164955 l 7.978564,-10.364969 a 1.2768217,1.2768217 71.032063 0 0 -0.692598,-2.015113 l -4.01818,-1.037406 a 2.6445416,2.6445416 158.3098 0 0 -2.900274,1.153584 L 36.343806,23.570041 A 0.1861711,0.1861711 16.071605 0 1 36,23.470991 V 12.933155 a 1.662551,1.662551 40.696318 0 0 -1.911372,-1.643826 z m -14.37769,7.558337 c -0.189184,0 -0.378371,0.07368 -0.523438,0.21875 l -3.144531,3.144532 c -0.290135,0.290134 -0.220288,0.704614 0,1.05078 l 3.253906,5.109376 c -0.241085,0.500442 -0.449846,1.01582 -0.625,1.542968 -0.0077,0.02268 -0.01978,0.04368 -0.02734,0.0664 l -5.902344,1.3125 C 12.341647,31.381998 12,31.624856 12,32.035166 v 1.964844 1.964844 c 0,0.41031 0.341647,0.65318 0.742188,0.742188 l 5.902343,1.3125 c 0.01292,0.0388 0.03357,0.07462 0.04687,0.11328 0.17049,0.512084 0.372704,1.013054 0.605469,1.5 l -3.253906,5.10547 c -0.220288,0.346166 -0.290135,0.760646 0,1.05078 l 3.144532,3.144532 c 0.290135,0.290134 0.756735,0.290134 1.046876,0 l 5.101562,-3.25 c 0.501518,0.243898 1.01821,0.455272 1.546874,0.632812 0.0347,0.0122 0.06678,0.03108 0.10156,0.04296 l 1.308592,5.898436 C 28.29296,52.668124 28.62484,53 29.035148,53 h 4.441406 c 0.41031,0 0.65318,-0.341648 0.742188,-0.742188 l 1.308594,-6.078124 c 0.601208,-0.226026 1.184836,-0.496298 1.746094,-0.808594 l 4.980468,3.5625 c 0.290136,0.290134 0.756742,0.290134 1.046876,0 l 3.14453,-3.144532 c 0.290136,-0.290134 0.220288,-0.704614 0,-1.05078 l -1.89453,-2.875 -0.19922,0.07422 c -0.450502,0.16922 -0.95765,-0.0064 -1.20703,-0.417968 L 42.155603,39.890721 C 41.601518,38.97811 40.830987,39.050572 40.253698,39.947044 38.296476,42.986414 34.883581,45.00001 31,45.00001 c -6.075132,0 -11,-4.924868 -11,-11 0,-4.66184 2.905598,-8.6367 7,-10.238282 v -2.191406 l -0.0156,0.07032 c -0.04416,0.015 -0.0849,0.03914 -0.1289,0.05468 -0.52165,0.17324 -1.03179,0.379376 -1.527344,0.617188 l -5.09378,-3.246094 c -0.145072,-0.145067 -0.334254,-0.21875 -0.523438,-0.21875 z"
     id="path3-6"
     inkscape:path-effect="#path-effect4-3"
     inkscape:original-d="m 36,11.00001 -8,1.210938 v 28.9375 L 36,39.00001 V 27.820322 l 8,13.179688 8,-3 -10,-12 L 52.003906,13.003916 44.242188,11.00001 36,24.117198 Z m -16.289062,7.847656 c -0.189184,0 -0.378371,0.07368 -0.523438,0.21875 l -3.144531,3.144532 c -0.290135,0.290134 -0.220288,0.704614 0,1.05078 l 3.253906,5.109376 c -0.241085,0.500442 -0.449846,1.01582 -0.625,1.542968 -0.0077,0.02268 -0.01978,0.04368 -0.02734,0.0664 l -5.902344,1.3125 C 12.341647,31.381998 12,31.624856 12,32.035166 v 1.964844 1.964844 c 0,0.41031 0.341647,0.65318 0.742188,0.742188 l 5.902343,1.3125 c 0.01292,0.0388 0.03357,0.07462 0.04687,0.11328 0.17049,0.512084 0.372704,1.013054 0.605469,1.5 l -3.253906,5.10547 c -0.220288,0.346166 -0.290135,0.760646 0,1.05078 l 3.144532,3.144532 c 0.290135,0.290134 0.756735,0.290134 1.046876,0 l 5.101562,-3.25 c 0.501518,0.243898 1.01821,0.455272 1.546874,0.632812 0.0347,0.0122 0.06678,0.03108 0.10156,0.04296 l 1.308592,5.898436 C 28.29296,52.668124 28.62484,53 29.035148,53 h 4.441406 c 0.41031,0 0.65318,-0.341648 0.742188,-0.742188 l 1.308594,-6.078124 c 0.601208,-0.226026 1.184836,-0.496298 1.746094,-0.808594 l 4.980468,3.5625 c 0.290136,0.290134 0.756742,0.290134 1.046876,0 l 3.14453,-3.144532 c 0.290136,-0.290134 0.220288,-0.704614 0,-1.05078 l -1.89453,-2.875 -0.19922,0.07422 c -0.450502,0.16922 -0.95765,-0.0064 -1.20703,-0.417968 l -1.99218,-3.281242 C 39.492472,42.208682 35.572478,45.00001 31,45.00001 c -6.075132,0 -11,-4.924868 -11,-11 0,-4.66184 2.905598,-8.6367 7,-10.238282 v -2.191406 l -0.0156,0.07032 c -0.04416,0.015 -0.0849,0.03914 -0.1289,0.05468 -0.52165,0.17324 -1.03179,0.379376 -1.527344,0.617188 l -5.09378,-3.246094 c -0.145072,-0.145067 -0.334254,-0.21875 -0.523438,-0.21875 z"
     transform="matrix(0.90635671,0,0,0.90635671,3.0212642,3.0380034)" />
</svg>
