<?xml version="1.0" encoding="UTF-8" standalone="no"?>
<svg
   width="64"
   height="64"
   version="1.1"
   id="svg6"
   sodipodi:docname="discord-development.svg"
   inkscape:version="1.3.2 (091e20ef0f, 2023-11-25, custom)"
   xmlns:inkscape="http://www.inkscape.org/namespaces/inkscape"
   xmlns:sodipodi="http://sodipodi.sourceforge.net/DTD/sodipodi-0.dtd"
   xmlns:xlink="http://www.w3.org/1999/xlink"
   xmlns="http://www.w3.org/2000/svg"
   xmlns:svg="http://www.w3.org/2000/svg">
  <defs
     id="defs6">
    <linearGradient
       id="linearGradient6">
      <stop
         style="stop-color:#bfbfbf;stop-opacity:1;"
         offset="0"
         id="stop1" />
      <stop
         style="stop-color:#e4e4e4;stop-opacity:1;"
         offset="1"
         id="stop2" />
    </linearGradient>
    <linearGradient
       id="linearGradient6-1">
      <stop
         style="stop-color:#bfbfbf;stop-opacity:1;"
         offset="0"
         id="stop6" />
      <stop
         style="stop-color:#e4e4e4;stop-opacity:1;"
         offset="1"
         id="stop7" />
    </linearGradient>
    <linearGradient
       id="linearGradient1">
      <stop
         style="stop-color:#121212;stop-opacity:1;"
         offset="0"
         id="stop5" />
      <stop
         style="stop-color:#323232;stop-opacity:1;"
         offset="0.99961597"
         id="stop10" />
    </linearGradient>
    <filter
       inkscape:collect="always"
       style="color-interpolation-filters:sRGB"
       id="filter14"
       x="-0.081591337"
       y="-0.1069615"
       width="1.1631898"
       height="1.2147951">
      <feGaussianBlur
         inkscape:collect="always"
         stdDeviation="1.6025762"
         id="feGaussianBlur14" />
    </filter>
    <radialGradient
       inkscape:collect="always"
       xlink:href="#linearGradient14"
       id="radialGradient15"
       cx="11.963057"
       cy="50.652687"
       fx="11.963057"
       fy="50.652687"
       r="27.279749"
       gradientTransform="matrix(2.602166,-0.69724827,0.53973806,2.0143299,-46.774461,-47.590108)"
       gradientUnits="userSpaceOnUse" />
    <linearGradient
       id="linearGradient14"
       inkscape:collect="always">
      <stop
         style="stop-color:#fafafa;stop-opacity:1;"
         offset="0"
         id="stop14" />
      <stop
         style="stop-color:#969696;stop-opacity:1;"
         offset="1"
         id="stop15" />
    </linearGradient>
  </defs>
  <sodipodi:namedview
     id="namedview6"
     pagecolor="#ffffff"
     bordercolor="#000000"
     borderopacity="0.25"
     inkscape:showpageshadow="2"
     inkscape:pageopacity="0.0"
     inkscape:pagecheckerboard="0"
     inkscape:deskcolor="#d1d1d1"
     inkscape:zoom="12.6875"
     inkscape:cx="31.881773"
     inkscape:cy="31.802956"
     inkscape:window-width="1920"
     inkscape:window-height="1020"
     inkscape:window-x="0"
     inkscape:window-y="0"
     inkscape:window-maximized="1"
     inkscape:current-layer="svg6" />
  <path
     d="m 50.737294,14.107719 c -3.531735,-1.65241 -7.308032,-2.853313 -11.256046,-3.537118 -0.484864,0.876613 -1.051323,2.055678 -1.441876,2.993619 -4.196842,-0.631153 -8.35509,-0.631153 -12.474748,0 -0.390478,-0.937941 -0.969802,-2.117006 -1.459003,-2.993619 -3.952278,0.683805 -7.732912,1.88912 -11.264646,3.545869 -7.1235379,10.764599 -9.054612,21.261824 -8.0890731,31.609994 4.7247051,3.528292 9.3035131,5.671625 13.8050491,7.074163 1.111454,-1.52968 2.102721,-3.155766 2.956673,-4.869504 -1.626384,-0.61799 -3.18411,-1.380623 -4.655977,-2.265988 0.390479,-0.289286 0.772431,-0.591738 1.141445,-0.902938 8.977343,4.198935 18.731456,4.198935 27.601549,0 0.373353,0.3112 0.755229,0.613652 1.141446,0.902938 -1.476205,0.889704 -3.038194,1.652337 -4.664579,2.2704 0.853952,1.709326 1.840957,3.339823 2.956673,4.869429 4.505875,-1.402537 9.08893,-3.545794 13.81364,-7.0785 C 59.98074,33.730297 56.91248,23.329476 50.737294,14.107719 Z M 22.736665,39.362433 c -2.694909,0 -4.904953,-2.51586 -4.904953,-5.579559 0,-3.063697 2.162852,-5.583896 4.904953,-5.583896 2.742175,0 4.952144,2.515786 4.904953,5.583896 0.0043,3.063699 -2.162778,5.579559 -4.904953,5.579559 z m 18.126404,0 c -2.694909,0 -4.904954,-2.51586 -4.904954,-5.579559 0,-3.063697 2.162779,-5.583896 4.904954,-5.583896 2.742101,0 4.952144,2.515786 4.904952,5.583896 0,3.063699 -2.162851,5.579559 -4.904952,5.579559 z"
     fill="#5865f2"
     fill-rule="nonzero"
     id="path1"
     style="fill:url(#radialGradient15);stroke-width:0.213123" />
  <path
     d="m 50.668662,14.054569 c -3.531734,-1.65241 -7.308031,-2.853313 -11.256046,-3.537118 -0.484863,0.876614 -1.051323,2.055678 -1.441875,2.993619 -4.196842,-0.631152 -8.35509,-0.631152 -12.474748,0 -0.390479,-0.937941 -0.969802,-2.117005 -1.459004,-2.993619 -3.952277,0.683805 -7.732912,1.889121 -11.264645,3.545869 -7.1235374,10.764599 -9.0546124,21.261825 -8.0890734,31.609994 4.724705,3.528293 9.3035134,5.671626 13.8050484,7.074163 1.111454,-1.52968 2.102721,-3.155766 2.956673,-4.869503 -1.626383,-0.617991 -3.184109,-1.380624 -4.655976,-2.265988 0.390478,-0.289287 0.772431,-0.591738 1.141445,-0.902938 8.977343,4.198935 18.731455,4.198935 27.601548,0 0.373354,0.3112 0.75523,0.613651 1.141447,0.902938 -1.476205,0.889703 -3.038195,1.652336 -4.664579,2.2704 0.853952,1.709325 1.840957,3.339823 2.956673,4.869428 4.505874,-1.402537 9.08893,-3.545794 13.813639,-7.0785 1.13292,-11.996167 -1.93534,-22.396988 -8.110527,-31.618745 z M 22.668033,39.309284 c -2.694908,0 -4.904952,-2.51586 -4.904952,-5.579559 0,-3.063698 2.162852,-5.583896 4.904952,-5.583896 2.742176,0 4.952145,2.515786 4.904953,5.583896 0.0043,3.063699 -2.162777,5.579559 -4.904953,5.579559 z m 18.126405,0 c -2.694909,0 -4.904954,-2.51586 -4.904954,-5.579559 0,-3.063698 2.162779,-5.583896 4.904954,-5.583896 2.7421,0 4.952144,2.515786 4.904952,5.583896 0,3.063699 -2.162852,5.579559 -4.904952,5.579559 z"
     fill="#5865f2"
     fill-rule="nonzero"
     id="path1-0"
     style="opacity:0.44238562;mix-blend-mode:normal;fill:none;stroke:#000000;stroke-width:1.213;stroke-dasharray:none;stroke-opacity:1;filter:url(#filter14)" />
</svg>
