<?xml version="1.0" encoding="UTF-8" standalone="no"?>
<!-- Generator: Adobe Illustrator 25.4.1, SVG Export Plug-In . SVG Version: 6.00 Build 0)  -->

<svg
   version="1.1"
   id="Layer_1"
   x="0px"
   y="0px"
   viewBox="0 0 64 64"
   xml:space="preserve"
   sodipodi:docname="distro-fairywren.svg"
   inkscape:version="1.3.2 (091e20ef0f, 2023-11-25, custom)"
   inkscape:export-filename="FairyWren-app-menu.png"
   inkscape:export-xdpi="96"
   inkscape:export-ydpi="96"
   width="64"
   height="64"
   xmlns:inkscape="http://www.inkscape.org/namespaces/inkscape"
   xmlns:sodipodi="http://sodipodi.sourceforge.net/DTD/sodipodi-0.dtd"
   xmlns:xlink="http://www.w3.org/1999/xlink"
   xmlns="http://www.w3.org/2000/svg"
   xmlns:svg="http://www.w3.org/2000/svg"><defs
   id="defs9"><linearGradient
     id="linearGradient16"
     inkscape:collect="always"><stop
       style="stop-color:#1fffff;stop-opacity:1;"
       offset="0"
       id="stop15" /><stop
       style="stop-color:#4ac6ff;stop-opacity:1;"
       offset="1"
       id="stop16" /></linearGradient><linearGradient
     id="linearGradient10"
     inkscape:collect="always"><stop
       style="stop-color:#95beff;stop-opacity:1;"
       offset="0"
       id="stop9" /><stop
       style="stop-color:#2e67ff;stop-opacity:1;"
       offset="1"
       id="stop10" /></linearGradient><inkscape:path-effect
     effect="fillet_chamfer"
     id="path-effect9"
     is_visible="true"
     lpeversion="1"
     nodesatellites_param="F,0,0,1,0,0,0,1 @ F,0,0,1,0,29.632631,0,1"
     radius="0"
     unit="px"
     method="auto"
     mode="F"
     chamfer_steps="1"
     flexible="false"
     use_knot_distance="true"
     apply_no_radius="true"
     apply_with_radius="true"
     only_selected="false"
     hide_knots="false" /><linearGradient
     id="linearGradient1"
     inkscape:collect="always"><stop
       style="stop-color:#3f3f3f;stop-opacity:1;"
       offset="0"
       id="stop1" /><stop
       style="stop-color:#434343;stop-opacity:1;"
       offset="1"
       id="stop2" /></linearGradient><radialGradient
     inkscape:collect="always"
     xlink:href="#linearGradient16"
     id="radialGradient14"
     cx="159.57385"
     cy="201.75441"
     fx="159.57385"
     fy="201.75441"
     r="192.96225"
     gradientTransform="matrix(0.10990862,0.05468285,-0.07539414,0.14613097,18.515569,-19.028477)"
     gradientUnits="userSpaceOnUse" /><radialGradient
     inkscape:collect="always"
     xlink:href="#linearGradient10"
     id="radialGradient28"
     cx="129.99368"
     cy="348.08768"
     fx="129.99368"
     fy="348.08768"
     r="132.27158"
     gradientTransform="matrix(0.07539702,0.42745823,-0.34905929,0.05536925,126.36608,-41.812175)"
     gradientUnits="userSpaceOnUse" /><radialGradient
     inkscape:collect="always"
     xlink:href="#linearGradient11"
     id="radialGradient12"
     cx="244.89355"
     cy="240.82286"
     fx="244.89355"
     fy="240.82286"
     r="147.44055"
     gradientTransform="matrix(0.2966827,0.1828406,-0.10445334,0.16948916,-16.703779,-55.450267)"
     gradientUnits="userSpaceOnUse" /><linearGradient
     id="linearGradient11"
     inkscape:collect="always"><stop
       style="stop-color:#53fff9;stop-opacity:1;"
       offset="0"
       id="stop11" /><stop
       style="stop-color:#4adcff;stop-opacity:1;"
       offset="0.32617188"
       id="stop12" /></linearGradient><radialGradient
     inkscape:collect="always"
     xlink:href="#linearGradient1"
     id="radialGradient2"
     cx="519.04053"
     cy="315.43475"
     fx="519.04053"
     fy="315.43475"
     r="83.547951"
     gradientTransform="matrix(0.05561972,0,0,0.05469381,3.0326566,4.1776988)"
     gradientUnits="userSpaceOnUse" /><inkscape:path-effect
     effect="fillet_chamfer"
     id="path-effect9-9"
     is_visible="true"
     lpeversion="1"
     nodesatellites_param="F,0,0,1,0,0,0,1 @ F,0,0,1,0,29.632631,0,1"
     radius="0"
     unit="px"
     method="auto"
     mode="F"
     chamfer_steps="1"
     flexible="false"
     use_knot_distance="true"
     apply_no_radius="true"
     apply_with_radius="true"
     only_selected="false"
     hide_knots="false" /><filter
     inkscape:collect="always"
     style="color-interpolation-filters:sRGB"
     id="filter41"
     x="-0.07616282"
     y="-0.079874359"
     width="1.1525175"
     height="1.1597488"><feGaussianBlur
       inkscape:collect="always"
       stdDeviation="29.236554"
       id="feGaussianBlur41" /></filter></defs><sodipodi:namedview
   id="namedview9"
   pagecolor="#ffffff"
   bordercolor="#000000"
   borderopacity="0.25"
   inkscape:showpageshadow="2"
   inkscape:pageopacity="0.0"
   inkscape:pagecheckerboard="0"
   inkscape:deskcolor="#d1d1d1"
   inkscape:zoom="8.590038"
   inkscape:cx="38.241973"
   inkscape:cy="27.415478"
   inkscape:window-width="1920"
   inkscape:window-height="1020"
   inkscape:window-x="0"
   inkscape:window-y="0"
   inkscape:window-maximized="1"
   inkscape:current-layer="Layer_1"
   inkscape:export-bgcolor="#ffffff00" />
<style
   type="text/css"
   id="style1">
	.st0{fill:#333333;}
	.st1{fill:url(#SVGID_1_);}
	.st2{fill:url(#SVGID_00000114772258057173255150000011320655733637898394_);}
	.st3{fill:url(#SVGID_00000160869104684635257460000017665131418852208299_);}
	.st4{fill:url(#SVGID_00000129166249405916835070000008397553724718422659_);}
</style>

<path
   d="m 44.956026,12.046611 c -0.507792,0.0085 -1.023922,0.0283 -1.547585,0.0588 -8.378617,0.488027 -18.744616,3.728856 -27.988227,7.416541 l -0.0041,0.0017 -0.004,0.0017 c -2.976126,1.240054 -6.6227333,2.25507 -9.9729956,4.241716 l -1.0512492,0.623361 1.1515368,0.409362 c 0,0 2.0095172,0.714747 4.51063,1.300082 2.443587,0.571873 5.333288,1.050951 7.475338,0.543708 1.658543,2.427593 3.433114,4.906991 3.230405,8.88647 l -8.89e-4,0.01764 1.35e-4,0.01764 c 0.04947,4.639236 -2.283647,7.608855 -4.267232,10.112668 -0.991792,1.251906 -1.906119,2.368306 -2.340793,3.585406 -0.434673,1.217099 -0.271655,2.570299 0.794982,3.847998 2.958865,3.544349 7.498823,5.22283 12.508154,5.29019 5.009329,0.06736 10.514668,-1.459508 15.542974,-4.361195 10.056607,-5.803453 18.221366,-17.18496 16.35082,-32.375793 -0.466865,-3.791452 -2.375741,-6.386444 -5.207986,-7.876156 -2.478211,-1.303501 -5.625346,-1.801235 -9.179901,-1.741839 z"
   style="fill:#414141;stroke-width:0.0568002;stroke-miterlimit:10;fill-opacity:1"
   id="path16" /><path
   d="m 17.066757,26.496957 c -1.109343,-0.01446 -2.336314,0.02522 -3.70877,0.118482 l -0.663743,0.04504 0.159308,0.645881 c 1.263784,5.12561 1.243244,9.21023 0.963941,12.053418 -1.647494,6.879355 -0.920277,11.41325 1.339132,14.073157 2.26459,2.666004 5.9499,3.278008 9.803707,2.588296 3.853805,-0.689714 7.951915,-2.663689 11.300704,-5.320478 3.348786,-2.656788 5.963279,-5.998573 6.727172,-9.517153 l 0.03017,-0.138673 -0.03972,-0.13612 c -0.19958,-0.684797 -0.678115,-1.180714 -1.266802,-1.52684 -0.588687,-0.346129 -1.297777,-0.595761 -2.155859,-0.921119 -1.712976,-0.64951 -4.036279,-1.577282 -7.014613,-3.844337 -3.314643,-2.956162 -5.304542,-5.138684 -7.915429,-6.51295 -1.961827,-1.032629 -4.23118,-1.563222 -7.559207,-1.606605 z"
   style="fill:url(#radialGradient28);stroke-width:0.0568002;stroke-miterlimit:10"
   id="path17" /><path
   d="m 49.240565,21.367404 c -8.584679,-0.124222 -20.388779,2.974672 -23.639788,5.494539 -0.699228,0.541974 -0.326079,1.910412 0.322053,2.576758 21.328073,21.927436 29.470789,12.998156 32.646736,-2.07199 0.911411,-4.320496 -3.455274,-5.914313 -9.329001,-5.999307 z"
   style="fill:url(#radialGradient12);stroke-width:0.114597"
   id="path15" /><path
   d="m 34.441762,5.6119826 c -0.515668,0.00274 -1.028407,0.021374 -1.537601,0.055913 -8.147094,0.552616 -15.379192,5.2390684 -18.466635,13.9895094 l -0.113269,0.321054 0.229975,0.251164 c 1.577283,1.722371 4.204772,2.680349 7.602029,3.420442 l 0.06157,0.01342 0.06312,-4.71e-4 c 2.12203,-0.01442 3.053335,-0.198334 3.890264,-0.549255 0.836931,-0.350919 1.498212,-0.798871 3.387272,-1.420894 l 0.02751,-0.0091 0.02651,-0.01187 c 4.667741,-2.085941 5.107245,-2.06009 9.749347,-2.618138 3.222055,-0.138676 5.08748,0.281709 9.971666,0.05547 l 0.0019,-1.35e-4 0.002,-1.34e-4 c 2.895312,-0.154007 4.901809,-1.367039 7.471788,-2.041482 l 0.9169,-0.24061 -0.644993,-0.694694 C 50.556936,9.104619 42.176791,5.5708906 34.441762,5.6119826 Z"
   style="fill:url(#radialGradient14);stroke-width:0.0568002;stroke-miterlimit:10"
   id="path14" /><path
   d="m 31.901503,16.860434 c -1.140878,0 -2.289569,0.370961 -3.171164,1.140444 -0.881596,0.769482 -1.469344,1.949276 -1.475698,3.426654 v 0.0024 0.0026 c 0.0064,1.47738 0.594102,2.657171 1.475698,3.426655 0.881595,0.769482 2.030286,1.140442 3.171164,1.140442 1.140878,0 2.289569,-0.37096 3.171164,-1.140442 0.881596,-0.769484 1.469454,-1.949275 1.475809,-3.426655 v -0.0026 -0.0024 c -0.0064,-1.477378 -0.594213,-2.657172 -1.475809,-3.426654 -0.881595,-0.769483 -2.030286,-1.140444 -3.171164,-1.140444 z"
   style="fill:url(#radialGradient2);stroke-width:0.0568002;stroke-miterlimit:10"
   id="path13" /><path
   id="path22"
   style="color:#000000;mix-blend-mode:normal;fill:#333333;stroke:#333333;stroke-width:8.3;stroke-linejoin:round;stroke-miterlimit:10;stroke-dasharray:none;stroke-opacity:1;filter:url(#filter41)"
   d="m 583.66016,78.525391 c -9.08887,0.04825 -18.12648,0.377547 -27.10157,0.986328 C 412.95462,89.252354 285.42464,171.90283 231.00586,326.13672 l -1.68555,4.77539 c -48.5155,18.73033 -104.31452,36.35468 -156.521482,67.3125 l -18.507812,10.97461 a 0.50005,0.50005 0 0 0 0.08789,0.90039 l 20.273438,7.20703 c 0,0 35.403446,12.59216 79.466796,22.9043 14.77855,3.45862 30.50701,6.63668 46.29492,9.07226 a 0.50005,0.50005 0 0 0 -0.11523,0.43164 l 2.80469,11.3711 c 22.23087,90.16316 21.87164,162.00299 16.96093,212.01367 -29.01066,121.17051 -16.22897,201.1675 23.69141,248.16406 6.47933,7.62785 13.67705,14.20624 21.37695,19.98633 0.003,0.002 0.005,0.005 0.008,0.008 0.003,0.002 0.005,0.004 0.008,0.006 51.13003,44.96496 120.26197,66.6398 195.41601,67.6504 88.29813,1.1873 185.30164,-25.72101 273.89844,-76.84766 177.19506,-102.2541 321.06864,-302.83925 288.11134,-570.48633 -4.0933,-33.24269 -14.4955,-61.27443 -30.04884,-84.31055 l 1.19727,-0.31445 a 0.50005,0.50005 0 0 0 0.24023,-0.82422 l -11.35547,-12.23047 c -0.48236,-0.51959 -0.98914,-0.99234 -1.47265,-1.50977 -0.003,-0.003 -0.007,-0.006 -0.01,-0.01 -4.44196,-5.17077 -9.18565,-10.03136 -14.21875,-14.58789 -0.006,-0.006 -0.0114,-0.012 -0.0176,-0.0176 C 854.37361,134.77371 713.88482,77.833574 583.66016,78.525391 Z m 0.004,1 C 713.60188,78.835098 853.85611,135.66147 966.19922,248.5 c 0.006,0.006 0.0118,0.0117 0.0176,0.0176 4.76291,4.78389 9.52154,9.56312 14.17382,14.54101 0.002,0.002 0.004,0.005 0.006,0.008 0.002,0.003 0.005,0.005 0.008,0.008 0.48224,0.51607 0.98764,0.98763 1.46875,1.50586 l 10.78711,11.61914 -1.05078,0.27539 -14.28321,3.74805 c -45.32614,11.895 -80.59896,33.22118 -131.44531,35.92578 a 0.50005,0.50005 0 0 0 -0.002,0 l -0.0352,0.002 -0.0332,0.002 c -21.48569,0.99513 -39.65114,1.27939 -55.70117,1.1836 -16.05159,-0.0958 -29.99005,-0.57207 -43.01368,-1.09571 -13.02257,-0.52357 -25.1335,-1.09478 -37.53711,-1.38281 h -0.002 c -6.20214,-0.144 -12.47753,-0.217 -18.97656,-0.17773 -6.49916,0.0392 -13.2212,0.19063 -20.31836,0.49609 a 0.50005,0.50005 0 0 0 -0.0391,0.004 c -23.96828,2.88133 -41.23683,4.92723 -56.23047,7.24023 -4.5708,-10.20048 -11.08161,-18.83886 -18.89453,-25.6582 -1.95288,-1.70453 -3.9795,-3.29866 -6.07032,-4.7832 -4.18163,-2.96909 -8.62088,-5.50058 -13.24023,-7.60157 -2.30968,-1.05049 -4.66409,-1.99364 -7.05469,-2.83007 -2.3906,-0.83644 -4.81701,-1.5651 -7.26953,-2.18946 -2.45252,-0.62436 -4.93034,-1.14433 -7.42578,-1.55859 -2.49544,-0.41426 -5.00799,-0.72355 -7.52734,-0.92969 -2.51936,-0.20614 -5.04605,-0.30859 -7.57032,-0.30859 -2.52426,0 -5.05096,0.10245 -7.57031,0.30859 -2.51935,0.20614 -5.03191,0.51543 -7.52734,0.92969 -2.49544,0.41426 -4.97327,0.93423 -7.42578,1.55859 -2.45252,0.62436 -4.87894,1.35302 -7.26954,2.18946 -2.39059,0.83643 -4.74501,1.77958 -7.05468,2.83007 -4.61935,2.10099 -9.05861,4.63248 -13.24024,7.60157 -2.09081,1.48454 -4.11743,3.07867 -6.07031,4.7832 -1.95359,1.70515 -3.82485,3.52452 -5.60547,5.45312 -1.78062,1.92861 -3.4708,3.96731 -5.05859,6.11133 -1.5878,2.14402 -3.07409,4.39275 -4.44922,6.74414 -1.37513,2.3514 -2.63864,4.80474 -3.78125,7.35547 -1.14261,2.55073 -2.16445,5.19938 -3.05469,7.94141 -0.89024,2.74203 -1.64955,5.57666 -2.26758,8.50195 -0.61802,2.92529 -1.09395,5.94051 -1.41992,9.04102 -0.32596,3.1005 -0.50157,6.287 -0.51562,9.55468 a 0.50005,0.50005 0 0 0 0,0.002 v 0.043 0.0449 a 0.50005,0.50005 0 0 0 0,0.002 c 0.0293,6.82498 0.77624,13.28473 2.11914,19.36133 -0.014,0.007 -0.0251,0.011 -0.0391,0.0176 -7.83575,3.68115 -14.12554,6.93927 -20.84765,9.75781 -14.66997,6.15104 -30.96943,9.37715 -68.30078,9.63086 l -1.05469,0.008 -1.0293,-0.22461 a 0.50005,0.50005 0 0 0 -0.002,0 C 307.6998,383.08498 261.5447,366.22627 233.90039,336.03906 l -3.8457,-4.19922 v -0.002 l 0.0684,-0.19336 0.0625,-0.17969 1.76172,-4.99609 C 286.24029,172.59129 413.36201,90.225319 556.625,80.507812 c 8.9541,-0.607355 17.97077,-0.934276 27.03906,-0.982421 z M 991.50977,277.53516 c 15.56553,22.94894 25.97873,50.92141 30.07223,84.16601 32.9067,267.23663 -110.71134,467.40975 -287.61911,569.49805 -88.45465,51.04462 -185.30159,77.89928 -273.38672,76.71488 -70.84333,-0.9527 -136.20369,-20.37061 -186.15039,-60.27933 19.34973,12.11406 41.65041,19.31246 65.69336,22.29101 0.005,6.6e-4 0.0104,10e-4 0.0156,0.002 5.85235,0.72455 11.80327,1.19575 17.83984,1.43555 0.59615,0.0244 1.19716,0.031 1.79492,0.0508 5.68022,0.18125 11.41865,0.18972 17.22656,-0.0351 0.30434,-0.0115 0.60356,-0.009 0.90821,-0.0215 5.78825,-0.24456 11.63629,-0.71954 17.51953,-1.34765 1.24489,-0.13234 2.48987,-0.28252 3.73828,-0.43165 5.86034,-0.70222 11.74376,-1.51892 17.66211,-2.57812 33.97468,-6.08045 69.01469,-17.8177 102.9375,-33.88672 h 0.002 c 33.92331,-16.06941 66.72921,-36.47154 96.23828,-59.88281 6.88545,-5.46263 13.59381,-11.08965 20.09571,-16.86719 6.48209,-5.75955 12.75757,-11.6684 18.79687,-17.71289 0.004,-0.004 0.006,-0.008 0.01,-0.0117 36.23176,-36.26554 63.92084,-77.40892 76.41601,-120.41211 41.92976,13.73969 78.26333,15.26788 109.71485,6.78516 45.03656,-12.14673 80.03536,-44.72159 107.24804,-90.81055 4.08362,-6.91624 7.93784,-14.22981 11.67969,-21.73242 0.52579,-1.05226 1.0218,-2.15348 1.54102,-3.2168 3.32841,-6.82885 6.51914,-13.88245 9.58398,-21.14648 0.7668,-1.81449 1.53832,-3.61856 2.28906,-5.45899 3.33363,-8.18485 6.5535,-16.55079 9.58008,-25.21875 0.0875,-0.25017 0.18427,-0.48577 0.27149,-0.73632 3.10378,-8.92815 6.01829,-18.14477 8.81445,-27.53321 0.7295,-2.44708 1.41964,-4.9475 2.12891,-7.42382 2.0397,-7.1274 3.99959,-14.36228 5.87687,-21.7168 0.71,-2.7797 1.4298,-5.54136 2.1172,-8.35156 2.3394,-9.56764 4.5912,-19.252 6.6797,-29.14258 0.028,-0.1326 0.062,-0.25798 0.09,-0.39063 0,-0.019 0,-0.0357 0.01,-0.0547 0.9966,-4.73658 1.6347,-9.29091 1.9296,-13.66796 0,-0.0339 0.01,-0.0677 0.01,-0.10157 0.5815,-8.78485 -0.222,-16.85323 -2.2832,-24.23828 -0.01,-0.026 -0.014,-0.0521 -0.022,-0.0781 -1.0354,-3.69119 -2.3837,-7.21279 -4.0332,-10.56641 -6.62061,-13.46028 -18.04457,-24.21626 -33.17967,-32.60742 -30.2702,-16.78233 -75.40416,-24.16135 -127.15234,-24.91016 -8.80269,-0.12737 -17.79612,-0.0607 -26.9375,0.18555 -4.11227,0.11065 -8.35051,0.38612 -12.51953,0.56836 -5.10362,0.22327 -10.15174,0.37074 -15.32813,0.69727 -6.59879,0.41594 -13.30386,1.01452 -19.99609,1.58984 -2.81833,0.24244 -5.5905,0.40038 -8.42188,0.66992 -7.33674,0.698 -14.73742,1.56211 -22.13672,2.43359 -2.25736,0.26602 -4.49292,0.46467 -6.7539,0.7461 -9.61956,1.19673 -19.26623,2.53289 -28.90235,3.99219 -0.0156,0.002 -0.0313,0.003 -0.0469,0.006 -19.30013,2.92363 -38.54706,6.35093 -57.43555,10.16796 -0.0581,0.0118 -0.11768,0.0215 -0.17578,0.0332 -9.44809,1.91073 -18.79844,3.92148 -28.02344,6.01562 2.35106,-7.79075 3.67935,-16.295 3.71875,-25.45703 a 0.50005,0.50005 0 0 0 0,-0.002 v -0.0449 -0.043 a 0.50005,0.50005 0 0 0 0,-0.002 c -0.0135,-3.13366 -0.18362,-6.1879 -0.48437,-9.16796 -0.005,-0.0457 -0.007,-0.093 -0.0117,-0.13868 -0.92385,-9.0187 -3.1342,-17.30553 -6.36719,-24.7832 14.90878,-2.29381 32.09076,-4.33417 55.92383,-7.19922 28.33449,-1.21908 50.71782,0.0214 76.76953,1.06836 13.02583,0.52349 26.96853,0.99849 43.03125,1.09375 16.06272,0.0953 34.24538,-0.18943 55.75,-1.18555 a 0.50005,0.50005 0 0 0 0.006,0 l 0.0332,-0.002 0.0332,-0.002 c 0.0297,-0.002 0.0563,-0.006 0.0859,-0.008 6.32998,-0.33945 12.42026,-0.9656 18.31641,-1.82421 41.65636,-6.06683 73.7007,-23.74808 113.24219,-34.125 z m -452.57032,0.0254 c 2.49717,0 4.99651,0.10074 7.48828,0.30468 2.49178,0.20394 4.97579,0.51024 7.44336,0.91993 2.46758,0.40969 4.91919,0.92376 7.34375,1.54101 2.39761,0.61039 4.76822,1.3255 7.10547,2.14063 0.0513,0.0179 0.103,0.0347 0.1543,0.0527 2.33689,0.82006 4.63862,1.74079 6.89648,2.76758 2.28211,1.03782 4.52046,2.18278 6.70313,3.43359 2.18266,1.25082 4.31059,2.6086 6.375,4.07422 2.06441,1.46563 4.06484,3.03846 5.99219,4.7207 1.94275,1.6957 3.80335,3.5056 5.57226,5.42579 0.0156,0.0169 0.0293,0.0358 0.0449,0.0527 1.76048,1.91473 3.43168,3.93689 5,6.06641 3.15662,4.28612 5.90446,8.99942 8.16407,14.10742 a 0.50005,0.50005 0 0 0 0,0.002 c 2.21085,4.99783 3.95461,10.37411 5.15234,16.09961 0.59753,2.85639 1.05697,5.80074 1.37305,8.82813 0.003,0.0257 0.005,0.0524 0.008,0.0781 0.31226,3.0159 0.48236,6.11229 0.49609,9.29102 10e-6,6.6e-4 0,10e-4 0,0.002 v 0.041 0.043 c 0,0.001 10e-6,0.003 0,0.004 -0.0408,9.38772 -1.45623,18.06362 -3.93554,25.97852 -3.23679,10.33132 -8.33895,19.32836 -14.77149,26.79296 -0.12079,0.13981 -0.24155,0.27925 -0.36328,0.41797 -2.11481,2.41608 -4.35888,4.68125 -6.74023,6.75977 -1.92735,1.68224 -3.92778,3.25508 -5.99219,4.7207 -2.06441,1.46563 -4.19234,2.82341 -6.375,4.07422 -2.18267,1.25082 -4.42102,2.39578 -6.70313,3.4336 -2.28211,1.03781 -4.60796,1.96829 -6.9707,2.79492 -2.36274,0.82663 -4.76098,1.54876 -7.18555,2.16601 -2.42456,0.61726 -4.87617,1.13133 -7.34375,1.54102 -2.46757,0.40969 -4.95158,0.71598 -7.44336,0.91992 -2.49177,0.20394 -4.99112,0.30469 -7.48828,0.30469 -2.08107,0 -4.1623,-0.0861 -6.24023,-0.22852 -0.21347,-0.0145 -0.42725,-0.023 -0.64063,-0.0391 -2.02472,-0.15313 -4.0441,-0.37867 -6.05468,-0.66797 -0.22404,-0.0321 -0.44808,-0.0639 -0.67188,-0.0977 -2.04757,-0.31047 -4.08616,-0.68577 -6.10742,-1.13867 -0.11929,-0.0266 -0.23825,-0.0549 -0.35742,-0.082 -10.7882,-2.46461 -21.11805,-6.96241 -30.18164,-13.56641 -1.79864,-1.31052 -3.56472,-2.66551 -5.24805,-4.13476 -2.81708,-2.45883 -5.45896,-5.16044 -7.90039,-8.08789 -0.0107,-0.0128 -0.0225,-0.0243 -0.0332,-0.0371 -7.33688,-8.80988 -12.83932,-19.68268 -15.6875,-32.29102 a 0.50005,0.50005 0 0 0 0,-0.002 c -0.68528,-3.0336 -1.21783,-6.16596 -1.58789,-9.39258 -0.005,-0.0414 -0.011,-0.0816 -0.0156,-0.12304 -0.36735,-3.24272 -0.56914,-6.58173 -0.58398,-10.01758 v -0.0449 -0.041 -0.002 c 0.014,-3.2327 0.18814,-6.38432 0.50976,-9.44922 1.3e-4,-0.001 -1.3e-4,-0.003 0,-0.004 7e-5,-6.5e-4 -7e-5,-10e-4 0,-0.002 3.6e-4,-0.003 0.002,-0.006 0.002,-0.01 0.32199,-3.06313 0.79073,-6.03969 1.4004,-8.92773 0.6089,-2.88444 1.35612,-5.68044 2.23242,-8.38281 0.002,-0.006 0.004,-0.0118 0.006,-0.0176 1.9e-4,-5.9e-4 -1.9e-4,-10e-4 0,-0.002 0.003,-0.008 0.007,-0.0153 0.01,-0.0234 0.87709,-2.69954 1.88138,-5.30614 3.00586,-7.81641 1.1279,-2.51787 2.3753,-4.93976 3.73242,-7.25976 1.35712,-2.32001 2.82399,-4.53769 4.39063,-6.65235 1.56664,-2.11466 3.23377,-4.12549 4.99023,-6.02734 1.75647,-1.90186 3.60271,-3.69537 5.5293,-5.37696 1.92735,-1.68224 3.92778,-3.25507 5.99219,-4.7207 2.06441,-1.46562 4.19233,-2.8234 6.375,-4.07422 2.18266,-1.25081 4.42101,-2.39577 6.70312,-3.43359 2.25787,-1.02679 4.5596,-1.94752 6.89649,-2.76758 0.0513,-0.018 0.10296,-0.0348 0.15429,-0.0527 2.33726,-0.81513 4.70787,-1.53024 7.10547,-2.14063 2.42457,-0.61725 4.87618,-1.13132 7.34375,-1.54101 2.46758,-0.40969 4.95159,-0.71599 7.44336,-0.91993 2.49178,-0.20394 4.99112,-0.30468 7.48828,-0.30468 z m -309.87109,54.51367 a 0.50005,0.50005 0 0 0 0.0449,0.21875 l 4.04883,4.42187 c 10.45985,11.42202 23.51691,20.93363 38.9082,29.04883 25.6522,13.52532 57.78858,23.1719 95.19141,31.32031 l 1.08398,0.23633 a 0.50005,0.50005 0 0 0 0.11133,0.0117 l 1.11133,-0.008 c 9.34679,-0.0635 17.38681,-0.31461 24.42187,-0.75195 14.07013,-0.8747 24.11794,-2.49496 32.54102,-4.85743 4.21155,-1.18123 8.01704,-2.54831 11.7168,-4.09961 6.72893,-2.8214 12.98751,-6.05241 20.73828,-9.69726 2.93241,12.54352 8.46824,23.39007 15.83203,32.19336 0.0202,0.0242 0.0423,0.0461 0.0625,0.0703 2.44709,2.91782 5.08495,5.62072 7.90039,8.07813 1.48307,1.29446 3.022,2.50442 4.58594,3.67187 -12.90506,5.13132 -24.57923,10.31892 -34.63086,15.48047 -0.18913,0.097 -0.3335,0.19208 -0.52149,0.28906 -4.81032,2.48456 -9.30923,4.96438 -13.33203,7.42578 -0.013,0.008 -0.0241,0.0155 -0.0371,0.0234 -4.17088,2.5536 -7.90539,5.09002 -11.14062,7.59766 -0.93506,0.72476 -1.7325,1.55145 -2.46094,2.42578 -0.21148,0.25449 -0.39328,0.52703 -0.58789,0.79297 -0.50445,0.68702 -0.95789,1.40546 -1.35352,2.16211 -0.14228,0.27338 -0.28751,0.54267 -0.41601,0.82421 -0.44819,0.97648 -0.8277,1.99146 -1.11719,3.05469 -0.0132,0.0488 -0.034,0.0936 -0.0469,0.14258 -1.0469,3.95374 -1.06015,8.4215 -0.26368,12.94141 0.3732,2.11781 0.93809,4.24714 1.63282,6.3457 -3.94062,-2.38682 -7.91094,-4.72143 -12.00977,-6.87891 -34.61702,-18.22103 -74.66892,-27.57737 -133.31055,-28.34179 -19.5472,-0.25481 -41.16073,0.44528 -65.33398,2.08789 l -8.49414,0.57617 C 187.0516,446.40508 170.16711,442.94096 154.3457,439.23828 110.34253,428.94043 74.988281,416.36523 74.988281,416.36523 L 55.71875,409.51562 73.310547,399.08398 C 125.18006,368.32629 180.64865,350.73626 229.06836,332.07422 Z m 615.12695,24.83398 c 51.66135,0.74755 96.67186,8.1472 126.68164,24.78516 15.0049,8.31898 26.25492,18.93296 32.76755,32.17383 6.5127,13.24085 8.3061,29.12751 4.3125,48.05859 -2.1186,10.05314 -4.4085,19.89122 -6.7871,29.60742 -0.6617,2.70458 -1.35454,5.36475 -2.03709,8.04102 -1.91643,7.50881 -3.91792,14.90033 -6.0039,22.16992 -0.66842,2.33187 -1.31956,4.68831 -2.00586,6.99414 -5.63034,18.8949 -11.87337,36.88698 -18.78321,53.79688 -0.6679,1.63715 -1.35655,3.24091 -2.03711,4.85742 -3.1624,7.49918 -6.44805,14.79519 -9.89062,21.82617 -0.42661,0.87282 -0.8346,1.77728 -1.26563,2.64258 -12.46458,24.9792 -26.75689,46.83543 -43.19336,64.65234 -44.28088,47.9999 -103.91348,67.00815 -184.74218,40.42188 -53.28833,-17.52767 -115.73421,-54.84053 -188.9668,-116.86914 -0.61813,-0.52401 -1.23776,-1.04865 -1.85742,-1.57618 -3.88243,-3.30238 -7.84591,-6.79262 -11.78906,-10.23437 -7.73043,-6.75245 -15.5519,-13.71724 -23.51758,-21.01172 -1.42893,-1.3078 -2.82122,-2.52995 -4.25781,-3.85547 -9.41804,-8.69432 -19.04538,-17.87129 -28.79493,-27.33398 -2.42837,-2.35626 -4.87301,-4.75143 -7.32226,-7.15625 -10.06595,-9.88557 -20.24124,-20.02457 -30.66211,-30.73828 -1.22194,-1.25629 -2.35871,-2.71512 -3.45313,-4.23047 -0.40107,-0.56076 -0.78616,-1.14272 -1.16601,-1.73242 -0.62116,-0.95394 -1.194,-1.95544 -1.75391,-2.97266 -0.65155,-1.19829 -1.26119,-2.41744 -1.81836,-3.67969 -0.46579,-1.04644 -0.92926,-2.09052 -1.32031,-3.16601 -0.98477,-2.7112 -1.71963,-5.4908 -2.1543,-8.22657 -0.013,-0.0834 -0.009,-0.16283 -0.0215,-0.24609 -0.40974,-2.69187 -0.54555,-5.3435 -0.30859,-7.83594 0.11892,-1.25096 0.32905,-2.45955 0.6289,-3.61914 0.0291,-0.1107 0.0747,-0.21249 0.10547,-0.32226 0.26117,-0.94446 0.59772,-1.84598 0.99023,-2.71289 0.13439,-0.29472 0.28553,-0.57848 0.43555,-0.86329 0.35889,-0.68463 0.77165,-1.33308 1.22461,-1.95507 0.1928,-0.26435 0.37389,-0.537 0.58398,-0.78907 0.68236,-0.81886 1.42841,-1.59379 2.30274,-2.27148 3.22961,-2.50328 6.97145,-5.0444 11.16406,-7.60547 12.57666,-7.67975 29.2772,-15.56222 48.8125,-23.30469 9.19329,6.65145 19.6559,11.15368 30.57227,13.60547 0.0509,0.0115 0.10144,0.0238 0.15234,0.0352 2.07482,0.46218 4.16417,0.84977 6.26563,1.16406 0.20048,0.0302 0.40088,0.0571 0.60156,0.0859 2.03294,0.29019 4.07267,0.5206 6.11914,0.67383 0.22594,0.0171 0.45169,0.0256 0.67773,0.041 2.08353,0.14063 4.17011,0.22852 6.25586,0.22852 h 0.002 0.002 c 2.52166,-1.1e-4 5.04573,-0.10277 7.5625,-0.3086 0.005,-4.2e-4 0.0104,-0.002 0.0156,-0.002 2.51145,-0.20582 5.01623,-0.51314 7.50391,-0.92578 0.0105,-0.002 0.0208,-0.004 0.0312,-0.006 2.48226,-0.41264 4.94693,-0.93025 7.38672,-1.55078 0.015,-0.004 0.0299,-0.008 0.0449,-0.0117 2.43518,-0.62073 4.84463,-1.34398 7.21875,-2.17383 0.0189,-0.007 0.0378,-0.0129 0.0566,-0.0195 2.36964,-0.83014 4.70404,-1.76417 6.99414,-2.80469 0.0215,-0.01 0.043,-0.0195 0.0645,-0.0293 2.28619,-1.0411 4.52854,-2.18857 6.71679,-3.44141 0.0236,-0.0135 0.0468,-0.0275 0.0703,-0.041 2.1835,-1.25307 4.31353,-2.61206 6.38085,-4.07812 0.0255,-0.0181 0.0507,-0.0366 0.0762,-0.0547 2.06368,-1.46722 4.06494,-3.04095 5.99414,-4.72265 0.0122,-0.0107 0.0249,-0.0206 0.0371,-0.0312 0.008,-0.007 0.0155,-0.0145 0.0234,-0.0215 2.38821,-2.08634 4.6375,-4.36214 6.76368,-6.78125 0.12548,-0.14324 0.2505,-0.2853 0.375,-0.42969 6.49718,-7.50954 11.66261,-16.54656 14.95117,-26.91992 64.77021,-14.73483 136.07847,-25.28348 200.02734,-27.01172 9.14983,-0.24718 18.14941,-0.31494 26.95703,-0.1875 z m -566.43554,90.3086 c 58.54128,0.76311 98.39672,10.08976 132.85742,28.22851 4.44795,2.34124 8.7715,4.86033 13.05078,7.47266 0.91378,2.48539 2.04457,4.85892 3.32617,7.14062 0.48544,0.87862 0.98431,1.73167 1.51563,2.56446 0.4329,0.66835 0.85642,1.32177 1.3164,1.95507 1.10015,1.53476 2.25091,2.99717 3.4961,4.27735 10.39465,10.68677 20.5454,20.80391 30.58593,30.66406 2.50795,2.4634 5.00988,4.91337 7.4961,7.32617 9.68471,9.3963 19.25226,18.52214 28.60937,27.15821 1.57625,1.45549 3.10283,2.79617 4.66992,4.23047 7.88559,7.21359 15.6439,14.13329 23.29883,20.81445 3.85648,3.36831 7.73046,6.77604 11.5293,10.01172 0.63989,0.54458 1.27971,1.08807 1.91797,1.6289 48.68708,41.28963 92.68019,71.79464 132.37304,92.73243 19.91047,10.50267 38.72601,18.56526 56.55469,24.4746 -1.93978,6.68224 -4.25722,13.32003 -6.91211,19.9043 -0.14916,0.36998 -0.27249,0.74365 -0.42383,1.11328 -2.74925,6.71402 -5.87648,13.36713 -9.31445,19.95313 -0.16549,0.31707 -0.30954,0.63833 -0.47656,0.95508 -3.4833,6.60482 -7.31708,13.13252 -11.4375,19.58203 -0.1862,0.2915 -0.35358,0.58775 -0.54102,0.8789 -4.18068,6.49273 -8.68131,12.89694 -13.45117,19.20508 -0.16774,0.22188 -0.3218,0.44829 -0.49023,0.66992 -4.83798,6.36483 -9.96773,12.62427 -15.34766,18.77344 -0.13384,0.153 -0.25842,0.31003 -0.39258,0.46289 -5.44032,6.19773 -11.14643,12.27612 -17.07812,18.22656 -0.1025,0.10284 -0.19815,0.20975 -0.30078,0.3125 -5.95933,5.96561 -12.15344,11.79564 -18.54688,17.48438 -6.55432,5.83224 -13.31612,11.51545 -20.26367,17.02734 -0.0283,0.0225 -0.0576,0.044 -0.0859,0.0664 -7.30693,5.79437 -14.81687,11.40406 -22.49609,16.80859 -0.0612,0.0431 -0.1224,0.0859 -0.1836,0.12891 -7.67844,5.39881 -15.52481,10.5919 -23.50781,15.56055 -0.0666,0.0414 -0.13262,0.0836 -0.19922,0.125 -7.98326,4.96364 -16.10392,9.70228 -24.32422,14.19531 -0.0703,0.0384 -0.14059,0.0768 -0.21093,0.11523 -8.22074,4.48812 -16.5413,8.73003 -24.93164,12.70703 -0.0721,0.0342 -0.14465,0.0674 -0.2168,0.10157 -25.32068,11.98646 -51.25809,21.55392 -76.89649,28.14648 -0.0684,0.0176 -0.1367,0.0352 -0.20507,0.0527 -8.53612,2.1898 -17.03937,4.05285 -25.47461,5.5625 -6.42915,1.15062 -12.81787,2.02726 -19.17188,2.75196 -1.07083,0.12251 -2.14478,0.25902 -3.21289,0.36914 -6.21723,0.63834 -12.38483,1.06731 -18.48828,1.27148 -0.84156,0.0288 -1.67659,0.0383 -2.51562,0.0586 -13.04375,0.30579 -25.78398,-0.38173 -38.0293,-2.23242 -0.24842,-0.0373 -0.50003,-0.0673 -0.74805,-0.10547 -6.26025,-0.97116 -12.39445,-2.23664 -18.375,-3.81446 -0.14509,-0.0381 -0.28868,-0.0787 -0.43359,-0.11718 -18.28889,-4.87711 -35.15882,-12.65207 -49.93164,-23.74024 a 0.50005,0.50005 0 0 0 -0.002,0 c -7.646,-5.73926 -14.79171,-12.27092 -21.22265,-19.8418 -39.63076,-46.6556 -52.45628,-126.29071 -23.4707,-247.32421 a 0.50005,0.50005 0 0 0 0.0117,-0.0684 c 4.9216,-50.09969 5.2822,-122.07503 -16.98242,-212.375 l -2.66211,-10.79493 2.53516,-0.17187 a 0.50005,0.50005 0 0 0 0.002,0 l 8.55274,-0.58008 c 24.15216,-1.64117 45.7421,-2.33835 65.25586,-2.08398 z"
   transform="matrix(0.05680028,0,0,0.05680028,1.2841559,1.1156638)" /></svg>
