<?xml version="1.0" encoding="UTF-8" standalone="no"?>
<svg
   width="64"
   height="64"
   version="1.1"
   id="svg5"
   sodipodi:docname="distributor-logo-rhel.svg"
   inkscape:version="1.3.2 (091e20ef0f, 2023-11-25, custom)"
   xmlns:inkscape="http://www.inkscape.org/namespaces/inkscape"
   xmlns:sodipodi="http://sodipodi.sourceforge.net/DTD/sodipodi-0.dtd"
   xmlns:xlink="http://www.w3.org/1999/xlink"
   xmlns="http://www.w3.org/2000/svg"
   xmlns:svg="http://www.w3.org/2000/svg">
  <defs
     id="defs5">
    <linearGradient
       id="linearGradient6"
       inkscape:collect="always">
      <stop
         style="stop-color:#e76e32;stop-opacity:1;"
         offset="0"
         id="stop6" />
      <stop
         style="stop-color:#e7323b;stop-opacity:1;"
         offset="1"
         id="stop7" />
    </linearGradient>
    <filter
       inkscape:collect="always"
       style="color-interpolation-filters:sRGB"
       id="filter5"
       x="-0.035679558"
       y="-0.067889757"
       width="1.0713591"
       height="1.1403381">
      <feGaussianBlur
         inkscape:collect="always"
         stdDeviation="0.52788294"
         id="feGaussianBlur5" />
    </filter>
    <filter
       inkscape:collect="always"
       style="color-interpolation-filters:sRGB"
       id="filter6"
       x="-0.063308214"
       y="-0.084410951"
       width="1.1266164"
       height="1.1688219">
      <feGaussianBlur
         inkscape:collect="always"
         stdDeviation="1.374372"
         id="feGaussianBlur6" />
    </filter>
    <radialGradient
       inkscape:collect="always"
       xlink:href="#linearGradient6"
       id="radialGradient7"
       cx="35.71645"
       cy="14.670362"
       fx="35.71645"
       fy="14.670362"
       r="26.84962"
       gradientTransform="matrix(-1.1075903,-0.36778126,0.25473293,-0.76714001,71.538617,43.392835)"
       gradientUnits="userSpaceOnUse" />
  </defs>
  <sodipodi:namedview
     id="namedview5"
     pagecolor="#505050"
     bordercolor="#eeeeee"
     borderopacity="1"
     inkscape:showpageshadow="0"
     inkscape:pageopacity="0"
     inkscape:pagecheckerboard="0"
     inkscape:deskcolor="#505050"
     inkscape:zoom="6.5390625"
     inkscape:cx="6.1935484"
     inkscape:cy="38.308244"
     inkscape:window-width="1920"
     inkscape:window-height="1020"
     inkscape:window-x="0"
     inkscape:window-y="0"
     inkscape:window-maximized="1"
     inkscape:current-layer="svg5" />
  <path
     style="fill:url(#radialGradient7);stroke-width:0.894987"
     d="m 32.505337,11.862785 c -1.624588,0 -2.10737,2.0896 -4.083221,2.0896 -1.888034,0 -3.294677,-1.5672 -5.050988,-1.5672 -1.712406,0 -2.807991,1.130617 -3.642244,3.481878 0,0 -2.371885,6.618057 -2.67924,7.575981 -0.04391,0.174168 -1.09748,2.395282 -1.053581,2.56945 -4.698136,0.217709 -10.8456827,1.088071 -10.8456827,6.443719 0,8.795455 21.0317927,19.681002 37.7167567,19.681002 12.777166,0 15.982483,-5.745717 15.982483,-10.230529 0,-3.613973 -3.118322,-7.619625 -8.738522,-10.057969 l -0.614985,-2.614364 -2.107162,-9.055718 c -0.482987,-2.002925 -0.877086,-2.917377 -4.43362,-4.659051 -2.72228,-1.393336 -8.69368,-3.656799 -10.449994,-3.656799 z"
     id="path2" />
  <path
     style="mix-blend-mode:normal;fill:none;stroke:#000000;stroke-opacity:1;filter:url(#filter6)"
     d="m 32.56463,9.5 c -1.815208,0 -2.354636,2.334781 -4.562322,2.334781 -2.109566,0 -3.681256,-1.751086 -5.643642,-1.751086 -1.91333,0 -3.137465,1.263277 -4.069604,3.890422 0,0 -2.650189,7.394582 -2.993607,8.464903 -0.04906,0.194604 -1.226252,2.67633 -1.177202,2.870934 C 8.8688642,25.553208 2,26.525693 2,32.509742 2,42.337206 25.499542,54.5 44.142224,54.5 58.41859,54.5 62,48.080114 62,43.06908 62,39.031064 58.515792,34.555411 52.23615,31.830966 L 51.549006,28.909848 49.194602,18.791584 C 48.654944,16.553647 48.214604,15.531899 44.240766,13.585866 41.19907,12.029044 34.52702,9.5 32.56463,9.5 Z"
     id="path2-3"
     transform="matrix(0.89498733,0,0,0.89498733,3.3604057,3.3604057)" />
  <path
     style="fill:#3f3f3f;stroke-width:0.894987"
     d="m 50.188299,32.194101 c 0.485437,2.327113 0.485437,2.546651 0.485437,2.854008 0,3.951701 -4.512922,6.147091 -10.382314,6.147091 -13.239232,0 -25.012645,-7.727773 -25.012645,-12.821077 0,-0.702526 0.132393,-1.405051 0.44131,-2.063667 l 1.059136,-2.546654 c -0.04413,0.175633 -0.08826,0.351263 -0.04413,0.526895 0,2.590561 10.40536,11.108674 24.21829,11.108674 3.530463,0 8.749478,-0.746433 8.749478,-4.917675 0,-0.307354 0,-0.658617 -0.08826,-0.965971 z"
     id="path5" />
  <path
     style="mix-blend-mode:normal;fill:none;stroke:#000000;stroke-width:0.28827225;stroke-dasharray:none;stroke-opacity:1;filter:url(#filter5);opacity:1"
     d="m 52.268597,32.267125 c 0.542396,2.600163 0.542396,2.84546 0.542396,3.18888 0,4.415371 -5.042443,6.868356 -11.600515,6.868356 -14.792648,0 -27.947485,-8.634506 -27.947485,-14.325429 0,-0.784956 0.147927,-1.569911 0.49309,-2.305806 l 1.183409,-2.845463 c -0.04931,0.196241 -0.09861,0.392478 -0.04931,0.588717 0,2.894523 11.626265,12.412102 27.059925,12.412102 3.944707,0 9.776092,-0.834015 9.776092,-5.494686 0,-0.343417 0,-0.735895 -0.09862,-1.079313 z"
     id="path5-6"
     transform="matrix(0.89498733,0,0,0.89498733,3.3604057,3.3604057)" />
</svg>
