<?xml version="1.0" encoding="UTF-8" standalone="no"?>
<svg
   width="64"
   height="64"
   version="1"
   id="svg5"
   sodipodi:docname="distributor-logo-opensuse.svg"
   inkscape:version="1.3.2 (091e20ef0f, 2023-11-25, custom)"
   xmlns:inkscape="http://www.inkscape.org/namespaces/inkscape"
   xmlns:sodipodi="http://sodipodi.sourceforge.net/DTD/sodipodi-0.dtd"
   xmlns:xlink="http://www.w3.org/1999/xlink"
   xmlns="http://www.w3.org/2000/svg"
   xmlns:svg="http://www.w3.org/2000/svg">
  <defs
     id="defs5">
    <inkscape:path-effect
       effect="fillet_chamfer"
       id="path-effect2"
       is_visible="true"
       lpeversion="1"
       nodesatellites_param="F,0,0,1,0,0,0,1 @ F,0,0,1,0,1.3289971,0,1 @ F,0,0,1,0,1.173761,0,1 @ F,0,0,1,0,0.90599693,0,1 @ F,0,0,1,0,0,0,1 @ F,0,0,1,0,0,0,1 @ F,0,0,1,0,1.8525168,0,1 @ F,0,0,1,0,1.7494617,0,1 @ F,0,0,1,0,1.600005,0,1 @ F,0,0,1,0,0,0,1 @ F,0,0,1,0,4.039386,0,1 @ F,0,0,1,0,0.8313661,0,1 @ F,0,0,1,0,1.4716283,0,1 @ F,0,0,1,0,0,0,1 | F,0,0,1,0,0,0,1 @ F,0,0,1,0,0,0,1 @ F,0,0,1,0,0,0,1 @ F,0,0,1,0,0,0,1 | F,0,0,1,0,0,0,1 @ F,0,0,1,0,0,0,1 @ F,0,0,1,0,0,0,1 @ F,0,0,1,0,0,0,1 | F,0,0,1,0,0,0,1 @ F,0,0,1,0,0,0,1 @ F,0,0,1,0,0,0,1 @ F,0,0,1,0,0,0,1"
       radius="0"
       unit="px"
       method="auto"
       mode="F"
       chamfer_steps="1"
       flexible="false"
       use_knot_distance="true"
       apply_no_radius="true"
       apply_with_radius="true"
       only_selected="false"
       hide_knots="false" />
    <inkscape:path-effect
       effect="fillet_chamfer"
       id="path-effect1"
       is_visible="true"
       lpeversion="1"
       nodesatellites_param="F,0,0,1,0,0,0,1 @ F,0,0,1,0,1.4957582,0,1 @ F,0,0,1,0,1.8212039,0,1 @ F,0,0,1,0,1.9674581,0,1 @ F,0,0,1,0,0,0,1 @ F,0,0,1,0,0,0,1 @ F,0,0,1,0,0,0,1 @ F,0,0,1,0,0,0,1 @ F,0,0,1,0,0,0,1 @ F,0,0,1,0,0,0,1 @ F,0,0,1,0,0,0,1 @ F,0,0,1,0,0,0,1 @ F,0,0,1,0,0,0,1 @ F,0,0,1,0,0,0,1 @ F,0,0,1,0,0,0,1 | F,0,0,1,0,0,0,1 @ F,0,0,1,0,0,0,1 @ F,0,0,1,0,0,0,1 @ F,0,0,1,0,0,0,1 | F,0,0,1,0,0,0,1 @ F,0,0,1,0,0,0,1 @ F,0,0,1,0,0,0,1 @ F,0,0,1,0,0,0,1"
       radius="0"
       unit="px"
       method="auto"
       mode="F"
       chamfer_steps="1"
       flexible="false"
       use_knot_distance="true"
       apply_no_radius="true"
       apply_with_radius="true"
       only_selected="false"
       hide_knots="false" />
    <inkscape:path-effect
       effect="fillet_chamfer"
       id="path-effect6"
       is_visible="true"
       lpeversion="1"
       nodesatellites_param="F,0,0,1,0,0,0,1 @ F,0,0,1,0,0,0,1 @ F,0,0,1,0,0,0,1 @ F,0,0,1,0,0,0,1 @ F,0,0,1,0,0,0,1 @ F,0,0,1,0,0,0,1 @ F,0,0,1,0,1.3851571,0,1 @ F,0,0,1,0,0,0,1 @ F,0,0,1,0,4.2734662,0,1 @ F,0,0,1,0,0,0,1 @ F,0,0,1,0,0,0,1 @ F,0,0,1,0,1.8730071,0,1 @ F,0,0,1,0,9.2185226,0,1 @ F,0,0,1,0,0,0,1 @ F,0,0,1,0,0,0,1 @ F,0,0,1,0,3.9267735,0,1 @ F,0,0,1,0,0,0,1 @ F,0,0,1,0,0,0,1 @ F,0,0,1,0,0,0,1 | F,0,0,1,0,0,0,1 @ F,0,0,1,0,0,0,1 @ F,0,0,1,0,0,0,1 @ F,0,0,1,0,0,0,1 | F,0,0,1,0,0,0,1 @ F,0,0,1,0,0,0,1 @ F,0,0,1,0,0,0,1 @ F,0,0,1,0,0,0,1 | F,0,0,1,0,0,0,1 @ F,0,0,1,0,0,0,1"
       radius="0"
       unit="px"
       method="auto"
       mode="F"
       chamfer_steps="1"
       flexible="false"
       use_knot_distance="true"
       apply_no_radius="true"
       apply_with_radius="true"
       only_selected="false"
       hide_knots="false" />
    <linearGradient
       id="linearGradient5"
       inkscape:collect="always">
      <stop
         style="stop-color:#00ff96;stop-opacity:1;"
         offset="0"
         id="stop5" />
      <stop
         style="stop-color:#23bc57;stop-opacity:1;"
         offset="1"
         id="stop6" />
    </linearGradient>
    <radialGradient
       inkscape:collect="always"
       xlink:href="#linearGradient5"
       id="radialGradient6"
       cx="28.137253"
       cy="16.371893"
       fx="28.137253"
       fy="16.371893"
       r="27.99986"
       gradientUnits="userSpaceOnUse"
       gradientTransform="matrix(1.1288594,1.955242,-1.955242,1.1288594,15.436576,-51.6447)" />
    <inkscape:path-effect
       effect="fillet_chamfer"
       id="path-effect6-3"
       is_visible="true"
       lpeversion="1"
       nodesatellites_param="F,0,0,1,0,0,0,1 @ F,0,0,1,0,0,0,1 @ F,0,0,1,0,0,0,1 @ F,0,0,1,0,0,0,1 @ F,0,0,1,0,0,0,1 @ F,0,0,1,0,0,0,1 @ F,0,0,1,0,0.40344234,0,1 @ F,0,0,1,0,0,0,1 @ F,0,0,1,0,4.2734662,0,1 @ F,0,0,1,0,0,0,1 @ F,0,0,1,0,0,0,1 @ F,0,0,1,0,1.8730071,0,1 @ F,0,0,1,0,9.2185226,0,1 @ F,0,0,1,0,0,0,1 @ F,0,0,1,0,0,0,1 @ F,0,0,1,0,3.9267735,0,1 @ F,0,0,1,0,0,0,1 @ F,0,0,1,0,0,0,1 @ F,0,0,1,0,0,0,1 | F,0,0,1,0,0,0,1 @ F,0,0,1,0,0,0,1 @ F,0,0,1,0,0,0,1 @ F,0,0,1,0,0,0,1 | F,0,0,1,0,0,0,1 @ F,0,0,1,0,0,0,1 @ F,0,0,1,0,0,0,1 @ F,0,0,1,0,0,0,1 | F,0,0,1,0,0,0,1 @ F,0,0,1,0,0,0,1"
       radius="0"
       unit="px"
       method="auto"
       mode="F"
       chamfer_steps="1"
       flexible="false"
       use_knot_distance="true"
       apply_no_radius="true"
       apply_with_radius="true"
       only_selected="false"
       hide_knots="false" />
    <filter
       inkscape:collect="always"
       style="color-interpolation-filters:sRGB"
       id="filter6"
       x="-0.10382362"
       y="-0.10382362"
       width="1.2076472"
       height="1.2076472">
      <feGaussianBlur
         inkscape:collect="always"
         stdDeviation="2.1714971"
         id="feGaussianBlur6" />
    </filter>
    <inkscape:path-effect
       effect="fillet_chamfer"
       id="path-effect2-3"
       is_visible="true"
       lpeversion="1"
       nodesatellites_param="F,0,0,1,0,0,0,1 @ F,0,0,1,0,1.3289971,0,1 @ F,0,0,1,0,1.173761,0,1 @ F,0,0,1,0,0.90599693,0,1 @ F,0,0,1,0,0,0,1 @ F,0,0,1,0,0,0,1 @ F,0,0,1,0,1.8525168,0,1 @ F,0,0,1,0,0,0,1 @ F,0,0,1,0,5.9066055,0,1 @ F,0,0,1,0,0,0,1 @ F,0,0,1,0,4.039386,0,1 @ F,0,0,1,0,0.8313661,0,1 @ F,0,0,1,0,1.4716283,0,1 @ F,0,0,1,0,0,0,1 | F,0,0,1,0,0,0,1 @ F,0,0,1,0,0,0,1 @ F,0,0,1,0,0,0,1 @ F,0,0,1,0,0,0,1 | F,0,0,1,0,0,0,1 @ F,0,0,1,0,0,0,1 @ F,0,0,1,0,0,0,1 @ F,0,0,1,0,0,0,1 | F,0,0,1,0,0,0,1 @ F,0,0,1,0,0,0,1 @ F,0,0,1,0,0,0,1 @ F,0,0,1,0,0,0,1"
       radius="0"
       unit="px"
       method="auto"
       mode="F"
       chamfer_steps="1"
       flexible="false"
       use_knot_distance="true"
       apply_no_radius="true"
       apply_with_radius="true"
       only_selected="false"
       hide_knots="false" />
    <filter
       inkscape:collect="always"
       style="color-interpolation-filters:sRGB"
       id="filter1"
       x="-0.11216376"
       y="-0.095262344"
       width="1.2242372"
       height="1.1905106">
      <feGaussianBlur
         inkscape:collect="always"
         stdDeviation="1.679457"
         id="feGaussianBlur1" />
    </filter>
  </defs>
  <sodipodi:namedview
     id="namedview5"
     pagecolor="#ffffff"
     bordercolor="#000000"
     borderopacity="0.25"
     inkscape:showpageshadow="2"
     inkscape:pageopacity="0.0"
     inkscape:pagecheckerboard="0"
     inkscape:deskcolor="#d1d1d1"
     inkscape:zoom="10.58868"
     inkscape:cx="30.551494"
     inkscape:cy="23.799"
     inkscape:window-width="1920"
     inkscape:window-height="1020"
     inkscape:window-x="0"
     inkscape:window-y="0"
     inkscape:window-maximized="1"
     inkscape:current-layer="svg5" />
  <path
     style="fill:url(#radialGradient6);fill-opacity:1;stroke-width:0.945215"
     d="m 31.999867,5.5342275 c -14.615796,0 -26.4659042,11.8487855 -26.4659042,26.4659075 0,14.617118 11.8501082,26.465902 26.4659042,26.465902 14.614473,0 26.465906,-11.848784 26.465906,-26.465902 0,-14.617122 -11.851433,-26.4659075 -26.465906,-26.4659075 z"
     id="path1" />
  <path
     id="path3"
     style="fill:#006834;fill-opacity:1"
     d="m 34.078952,10.735184 c -8.012922,-0.02933 -12.046202,1.813233 -15.272778,4.586638 -0.556552,0.478384 -0.471833,1.197693 0.15917,1.57262 l 0.890001,0.528817 a 0.81016716,0.81016716 155.33245 0 0 1.21183,-0.556548 l 0.296176,-1.68881 c 0.08643,-0.492847 0.554982,-0.81647 1.046115,-0.720672 3.077101,0.600201 13.421298,2.671016 19.656708,4.568141 2.472148,0.752151 5.991505,4.679532 6.884533,7.15514 0.745354,1.777657 0.941206,5.009068 0.987048,7.051166 0.02295,1.022387 -0.712346,2.267183 -1.620249,2.738725 -7.509582,3.900287 -12.800363,3.651171 -23.697061,-3.30565 -0.814365,-0.519919 -1.091682,-0.266221 -0.629452,0.582241 l 1.149966,2.110862 c 0.422741,0.775978 1.35528,1.812016 2.101866,2.284651 8.215903,5.201171 14.438362,5.205738 22.41601,1.013137 -0.62196,2.138628 -2.568865,4.991928 -4.565706,5.979845 -7.926056,3.921337 -17.203578,2.70544 -26.510605,2.173854 -0.458254,-0.02617 -0.993135,0.289059 -1.194555,0.701672 -0.347222,0.711293 -0.116579,1.703217 0.541913,2.179485 C 33.65529,61.064221 53.872033,51.966032 54.560164,33.95268 55.475351,19.729465 42.924594,10.767563 34.078952,10.735184 Z m 4.134495,11.499352 c -3.779503,3.67e-4 -6.84331,3.064174 -6.843677,6.843677 3.67e-4,3.779503 3.064174,6.84331 6.843677,6.843677 3.779503,-3.67e-4 6.84331,-3.064174 6.843677,-6.843677 -3.67e-4,-3.779503 -3.064174,-6.84331 -6.843677,-6.843677 z m 0,2.921787 c 2.165999,4.21e-4 3.920449,1.755891 3.919823,3.92189 6.26e-4,2.165999 -1.753824,3.921469 -3.919823,3.92189 -2.166739,6.27e-4 -3.922517,-1.75515 -3.92189,-3.92189 -6.27e-4,-2.16674 1.755151,-3.922517 3.92189,-3.92189 z m 1.128215,1.454695 c -0.942354,6.71e-4 -1.706115,0.764432 -1.706787,1.706786 -4.69e-4,0.943161 0.763626,1.708181 1.706787,1.708853 0.943967,4.69e-4 1.709322,-0.764886 1.708852,-1.708853 -6.72e-4,-0.94316 -0.765692,-1.707255 -1.708852,-1.706786 z"
     transform="matrix(0.94521561,0,0,0.94521561,1.7531004,1.7531004)"
     sodipodi:nodetypes="ccccsccccccccccccccccccccccccc"
     inkscape:path-effect="#path-effect2"
     inkscape:original-d="m 34.078952,10.735184 c -8.845641,-0.03238 -12.841515,2.216415 -16.256139,5.480393 l 3.041607,1.807251 0.655432,-3.737305 c 0,0 13.157715,2.491862 20.546322,4.739847 2.472148,0.752151 5.991505,4.679532 6.884533,7.15514 1.145981,2.733144 0.992991,8.902817 0.992991,8.902817 -8.761495,4.985255 -14.081323,5.041363 -26.789646,-3.372612 l 2.752348,5.052171 c 8.891509,6.068287 15.347957,6.309675 23.752435,1.892756 l -1.126149,3.872298 c -8.83175,6.571096 -19.812674,4.808362 -30.780014,4.235971 l -0.993396,2.034995 C 32.632251,61.513557 53.85483,52.416364 54.560164,33.95268 55.475351,19.729465 42.924594,10.767563 34.078952,10.735184 Z m 4.134495,11.499352 c -3.779503,3.67e-4 -6.84331,3.064174 -6.843677,6.843677 3.67e-4,3.779503 3.064174,6.84331 6.843677,6.843677 3.779503,-3.67e-4 6.84331,-3.064174 6.843677,-6.843677 -3.67e-4,-3.779503 -3.064174,-6.84331 -6.843677,-6.843677 z m 0,2.921787 c 2.165999,4.21e-4 3.920449,1.755891 3.919823,3.92189 6.26e-4,2.165999 -1.753824,3.921469 -3.919823,3.92189 -2.166739,6.27e-4 -3.922517,-1.75515 -3.92189,-3.92189 -6.27e-4,-2.16674 1.755151,-3.922517 3.92189,-3.92189 z m 1.128215,1.454695 c -0.942354,6.71e-4 -1.706115,0.764432 -1.706787,1.706786 -4.69e-4,0.943161 0.763626,1.708181 1.706787,1.708853 0.943967,4.69e-4 1.709322,-0.764886 1.708852,-1.708853 -6.72e-4,-0.94316 -0.765692,-1.707255 -1.708852,-1.706786 z" />
  <path
     id="path3-6"
     style="fill:none;fill-opacity:1;stroke:#000000;stroke-opacity:1;stroke-width:0.3173879;stroke-dasharray:none;filter:url(#filter1)"
     d="m 34.078952,10.735184 c -8.012922,-0.02933 -12.046202,1.813233 -15.272778,4.586638 -0.556552,0.478384 -0.471833,1.197693 0.15917,1.57262 l 0.890001,0.528817 a 0.90856868,0.90856868 158.46002 0 0 1.336588,-0.527573 l 0.07512,-0.258524 c 0.139617,-0.480495 0.657192,-0.83807 1.155648,-0.794154 3.093418,0.272548 13.416972,1.287948 19.643473,3.182362 2.472148,0.752151 5.991505,4.679532 6.884533,7.15514 0.745354,1.777657 0.941206,5.009068 0.987048,7.051166 0.02295,1.022387 -0.712346,2.267183 -1.620249,2.738725 -7.838863,4.071307 -13.260078,3.621347 -25.163454,-4.259686 1.520092,2.79026 4.9016,6.637459 7.85477,8.01478 6.463499,3.014494 11.934969,2.459195 18.650013,-1.069853 -0.62196,2.138628 -2.568865,4.991928 -4.565706,5.979845 -7.926056,3.921337 -17.203578,2.70544 -26.510605,2.173854 -0.458254,-0.02617 -0.993135,0.289059 -1.194555,0.701672 -0.347222,0.711293 -0.116579,1.703217 0.541913,2.179485 C 33.65529,61.064221 53.872033,51.966032 54.560164,33.95268 55.475351,19.729465 42.924594,10.767563 34.078952,10.735184 Z m 4.134495,11.499352 c -3.779503,3.67e-4 -6.84331,3.064174 -6.843677,6.843677 3.67e-4,3.779503 3.064174,6.84331 6.843677,6.843677 3.779503,-3.67e-4 6.84331,-3.064174 6.843677,-6.843677 -3.67e-4,-3.779503 -3.064174,-6.84331 -6.843677,-6.843677 z m 0,2.921787 c 2.165999,4.21e-4 3.920449,1.755891 3.919823,3.92189 6.26e-4,2.165999 -1.753824,3.921469 -3.919823,3.92189 -2.166739,6.27e-4 -3.922517,-1.75515 -3.92189,-3.92189 -6.27e-4,-2.16674 1.755151,-3.922517 3.92189,-3.92189 z m 1.128215,1.454695 c -0.942354,6.71e-4 -1.706115,0.764432 -1.706787,1.706786 -4.69e-4,0.943161 0.763626,1.708181 1.706787,1.708853 0.943967,4.69e-4 1.709322,-0.764886 1.708852,-1.708853 -6.72e-4,-0.94316 -0.765692,-1.707255 -1.708852,-1.706786 z"
     transform="matrix(0.94521561,0,0,0.94521561,1.7144914,1.727801)"
     sodipodi:nodetypes="ccccsccccccccccccccccccccccccc"
     inkscape:path-effect="#path-effect2-3"
     inkscape:original-d="m 34.078952,10.735184 c -8.845641,-0.03238 -12.841515,2.216415 -16.256139,5.480393 l 3.041607,1.807251 0.655432,-2.255679 c 0,0 13.157715,1.010236 20.546322,3.258221 2.472148,0.752151 5.991505,4.679532 6.884533,7.15514 1.145981,2.733144 0.992991,8.902817 0.992991,8.902817 -8.761495,4.985255 -14.081323,5.041363 -26.789646,-3.372612 l 2.752348,5.052171 c 8.891509,6.068287 15.347957,6.309675 23.752435,1.892756 l -1.126149,3.872298 c -8.83175,6.571096 -19.812674,4.808362 -30.780014,4.235971 l -0.993396,2.034995 C 32.632251,61.513557 53.85483,52.416364 54.560164,33.95268 55.475351,19.729465 42.924594,10.767563 34.078952,10.735184 Z m 4.134495,11.499352 c -3.779503,3.67e-4 -6.84331,3.064174 -6.843677,6.843677 3.67e-4,3.779503 3.064174,6.84331 6.843677,6.843677 3.779503,-3.67e-4 6.84331,-3.064174 6.843677,-6.843677 -3.67e-4,-3.779503 -3.064174,-6.84331 -6.843677,-6.843677 z m 0,2.921787 c 2.165999,4.21e-4 3.920449,1.755891 3.919823,3.92189 6.26e-4,2.165999 -1.753824,3.921469 -3.919823,3.92189 -2.166739,6.27e-4 -3.922517,-1.75515 -3.92189,-3.92189 -6.27e-4,-2.16674 1.755151,-3.922517 3.92189,-3.92189 z m 1.128215,1.454695 c -0.942354,6.71e-4 -1.706115,0.764432 -1.706787,1.706786 -4.69e-4,0.943161 0.763626,1.708181 1.706787,1.708853 0.943967,4.69e-4 1.709322,-0.764886 1.708852,-1.708853 -6.72e-4,-0.94316 -0.765692,-1.707255 -1.708852,-1.706786 z" />
  <path
     style="fill:none;fill-opacity:1;stroke:#000000;stroke-width:0.182412;stroke-dasharray:none;stroke-opacity:1;filter:url(#filter6)"
     d="m 32,6.4624644 c -14.103104,0 -25.5375356,11.4331556 -25.5375356,25.5375376 0,14.10438 11.4344316,25.537534 25.5375356,25.537534 14.101827,0 25.537536,-11.433154 25.537536,-25.537534 C 57.537536,17.89562 46.101827,6.4624644 32,6.4624644 Z"
     id="path1-3"
     transform="matrix(1.0363531,0,0,1.0363531,-1.1633,-1.1633)" />
</svg>
