<?xml version="1.0" encoding="UTF-8" standalone="no"?>
<svg
   width="64"
   height="64"
   version="1.1"
   id="svg9"
   sodipodi:docname="com.dosbox_x.DOSBox-X.svg"
   inkscape:version="1.3.2 (091e20ef0f, 2023-11-25, custom)"
   xmlns:inkscape="http://www.inkscape.org/namespaces/inkscape"
   xmlns:sodipodi="http://sodipodi.sourceforge.net/DTD/sodipodi-0.dtd"
   xmlns:xlink="http://www.w3.org/1999/xlink"
   xmlns="http://www.w3.org/2000/svg"
   xmlns:svg="http://www.w3.org/2000/svg">
  <defs
     id="defs9">
    <inkscape:path-effect
       effect="fillet_chamfer"
       id="path-effect8"
       is_visible="true"
       lpeversion="1"
       nodesatellites_param="F,0,0,1,0,0,0,1 @ F,0,0,1,0,0,0,1 @ F,0,0,1,0,0,0,1 @ F,0,0,1,0,0,0,1 @ F,0,0,1,0,0,0,1 @ F,0,0,1,0,0,0,1 @ F,0,0,1,0,0,0,1 @ F,0,0,1,0,0,0,1 @ F,0,0,1,0,0,0,1 @ F,0,0,1,0,0,0,1 @ F,0,0,1,0,0,0,1 @ F,0,0,1,0,0,0,1 | F,0,0,1,0,0,0,1 @ F,0,0,1,0,0,0,1 @ F,0,0,1,0,0,0,1 @ F,0,0,1,0,0,0,1 @ F,0,0,1,0,0,0,1 @ F,0,0,1,0,0,0,1 @ F,0,0,1,0,0,0,1 @ F,0,0,1,0,0,0,1 @ F,0,0,1,0,0,0,1 @ F,0,0,1,0,0,0,1 @ F,0,0,1,0,0,0,1 @ F,0,0,1,0,0,0,1 | F,0,0,1,0,0,0,1 @ F,0,0,1,0,0,0,1 @ F,0,0,1,0,0,0,1 @ F,0,0,1,0,0,0,1 @ F,0,0,1,0,0,0,1 @ F,0,0,1,0,0,0,1 @ F,0,0,1,0,0,0,1 @ F,0,0,1,0,0,0,1 @ F,0,0,1,0,0,0,1 @ F,0,0,1,0,0,0,1 @ F,0,0,1,0,0,0,1 @ F,0,0,1,0,0,0,1 @ F,0,0,1,0,0,0,1 @ F,0,0,1,0,0,0,1 @ F,0,0,1,0,0,0,1 @ F,0,0,1,0,0,0,1 @ F,0,0,1,0,0,0,1 @ F,0,0,1,0,0,0,1 @ F,0,0,1,0,0,0,1 @ F,0,0,1,0,0,0,1 @ F,0,0,1,0,0,0,1 @ F,0,0,1,0,0,0,1 @ F,0,0,1,0,0,0,1 @ F,0,0,1,0,0,0,1 @ F,0,0,1,0,0,0,1 @ F,0,0,1,0,0,0,1 @ F,0,0,1,0,0,0,1 @ F,0,0,1,0,0,0,1 @ F,0,0,1,0,0,0,1 @ F,0,0,1,0,0,0,1 @ F,0,0,1,0,0,0,1 @ F,0,0,1,0,0,0,1 | F,0,0,1,0,0,0,1 @ F,0,0,1,0,0,0,1 @ F,0,0,1,0,0,0,1 @ F,0,0,1,0,0,0,1 | F,0,0,1,0,0,0,1 @ F,0,0,1,0,0,0,1 @ F,0,0,1,0,0,0,1 @ F,0,0,1,0,0,0,1 | F,0,0,1,0,0,0,1 @ F,0,0,1,0,0,0,1 @ F,0,0,1,0,0,0,1 @ F,0,0,1,0,0,0,1 @ F,0,0,1,0,0,0,1 @ F,0,0,1,0,0,0,1 @ F,0,0,1,0,0,0,1 @ F,0,0,1,0,0,0,1 @ F,0,0,1,0,0,0,1 @ F,0,0,1,0,0,0,1 @ F,0,0,1,0,0,0,1 @ F,0,0,1,0,0,0,1 @ F,0,0,1,0,0,0,1 @ F,0,0,1,0,0,0,1 @ F,0,0,1,0,0,0,1 @ F,0,0,1,0,0,0,1 | F,0,0,1,0,0,0,1 @ F,0,0,1,0,0,0,1 @ F,0,0,1,0,0,0,1 @ F,0,0,1,0,0,0,1 @ F,0,0,1,0,0,0,1 @ F,0,0,1,0,0,0,1 @ F,0,0,1,0,0,0,1 @ F,0,0,1,0,0,0,1 @ F,0,0,1,0,0,0,1 @ F,0,0,1,0,0,0,1 @ F,0,0,1,0,0,0,1 @ F,0,0,1,0,0,0,1 | F,0,0,1,0,0,0,1 @ F,0,0,1,0,0,0,1 @ F,0,0,1,0,0,0,1 @ F,0,0,1,0,0,0,1 @ F,0,0,1,0,0,0,1 @ F,0,0,1,0,0,0,1 @ F,0,0,1,0,0,0,1 @ F,0,0,1,0,0,0,1 @ F,0,0,1,0,0,0,1 @ F,0,0,1,0,0,0,1 @ F,0,0,1,0,0,0,1 @ F,0,0,1,0,0,0,1 @ F,0,0,1,0,0,0,1 @ F,0,0,1,0,0,0,1 @ F,0,0,1,0,0,0,1 @ F,0,0,1,0,0,0,1 @ F,0,0,1,0,0,0,1 @ F,0,0,1,0,0,0,1 @ F,0,0,1,0,0,0,1 @ F,0,0,1,0,0,0,1 @ F,0,0,1,0,0,0,1 @ F,0,0,1,0,0,0,1 @ F,0,0,1,0,0,0,1 @ F,0,0,1,0,0,0,1 @ F,0,0,1,0,0,0,1 @ F,0,0,1,0,0,0,1 @ F,0,0,1,0,0,0,1 @ F,0,0,1,0,0,0,1 @ F,0,0,1,0,0,0,1 @ F,0,0,1,0,0,0,1 @ F,0,0,1,0,0,0,1 @ F,0,0,1,0,0,0,1 @ F,0,0,1,0,0,0,1 @ F,0,0,1,0,0,0,1 @ F,0,0,1,0,0,0,1 @ F,0,0,1,0,0,0,1 | F,0,0,1,0,0,0,1 @ F,0,0,1,0,0,0,1 @ F,0,0,1,0,0,0,1 @ F,0,0,1,0,0,0,1 | F,0,0,1,0,0,0,1 @ F,0,0,1,0,0,0,1 @ F,0,0,1,0,0,0,1 @ F,0,0,1,0,0,0,1 | F,0,0,1,0,0,0,1 @ F,0,0,1,0,0,0,1 @ F,0,0,1,0,0,0,1 @ F,0,0,1,0,0,0,1"
       radius="0"
       unit="px"
       method="auto"
       mode="F"
       chamfer_steps="1"
       flexible="false"
       use_knot_distance="true"
       apply_no_radius="true"
       apply_with_radius="true"
       only_selected="false"
       hide_knots="false" />
    <filter
       inkscape:collect="always"
       style="color-interpolation-filters:sRGB"
       id="filter9"
       x="-0.04897473"
       y="-0.054416368"
       width="1.0979495"
       height="1.1088327">
      <feGaussianBlur
         inkscape:collect="always"
         stdDeviation="0.70441837"
         id="feGaussianBlur9" />
    </filter>
    <radialGradient
       inkscape:collect="always"
       xlink:href="#linearGradient6"
       id="radialGradient8"
       cx="6.6387415"
       cy="39.987793"
       fx="6.6387415"
       fy="39.987793"
       r="20.711956"
       gradientUnits="userSpaceOnUse"
       gradientTransform="matrix(-2.8145428,-5.2980709e-8,0,-2.5461534,69.112988,112.92958)" />
    <linearGradient
       id="linearGradient6"
       inkscape:collect="always">
      <stop
         style="stop-color:#4d4d4d;stop-opacity:1;"
         offset="0"
         id="stop7" />
      <stop
         style="stop-color:#272727;stop-opacity:1;"
         offset="1"
         id="stop8" />
    </linearGradient>
    <radialGradient
       inkscape:collect="always"
       xlink:href="#linearGradient5"
       id="radialGradient6"
       cx="10.808167"
       cy="54.625702"
       fx="10.808167"
       fy="54.625702"
       r="28"
       gradientUnits="userSpaceOnUse"
       gradientTransform="matrix(2.6452183,-2.6452183,2.6452183,2.6452183,-162.2787,-61.381242)" />
    <linearGradient
       id="linearGradient5"
       inkscape:collect="always">
      <stop
         style="stop-color:#454545;stop-opacity:1;"
         offset="0"
         id="stop5" />
      <stop
         style="stop-color:#898989;stop-opacity:1;"
         offset="1"
         id="stop6" />
    </linearGradient>
    <filter
       inkscape:collect="always"
       style="color-interpolation-filters:sRGB"
       id="filter8"
       x="-0.033300299"
       y="-0.033300299"
       width="1.0666006"
       height="1.0666006">
      <feGaussianBlur
         inkscape:collect="always"
         stdDeviation="0.77700697"
         id="feGaussianBlur8" />
    </filter>
    <filter
       inkscape:collect="always"
       style="color-interpolation-filters:sRGB"
       id="filter10"
       x="-0.088114053"
       y="-0.095258436"
       width="1.1762281"
       height="1.1905169">
      <feGaussianBlur
         inkscape:collect="always"
         stdDeviation="1.2618824"
         id="feGaussianBlur10" />
    </filter>
  </defs>
  <sodipodi:namedview
     id="namedview9"
     pagecolor="#ffffff"
     bordercolor="#000000"
     borderopacity="0.25"
     inkscape:showpageshadow="2"
     inkscape:pageopacity="0.0"
     inkscape:pagecheckerboard="0"
     inkscape:deskcolor="#d1d1d1"
     inkscape:zoom="14.03125"
     inkscape:cx="31.964365"
     inkscape:cy="32"
     inkscape:window-width="1920"
     inkscape:window-height="1027"
     inkscape:window-x="0"
     inkscape:window-y="0"
     inkscape:window-maximized="1"
     inkscape:current-layer="svg9" />
  <rect
     style="opacity:0.624257;filter:url(#filter8)"
     width="56"
     height="56"
     x="4.000001"
     y="4.000001"
     rx="8.6505184"
     ry="8.6505184"
     id="rect1" />
  <rect
     style="fill:url(#radialGradient6)"
     width="56"
     height="56"
     x="4.000001"
     y="3.9000001"
     rx="9.5628281"
     ry="9.5628281"
     id="rect2" />
  <rect
     style="fill:url(#radialGradient8);stroke-width:0.999999"
     width="41.423912"
     height="41.423912"
     x="11.288046"
     y="11.188046"
     rx="3.6626358"
     ry="3.6626358"
     id="rect3" />
  <g
     id="g10">
    <path
       style="opacity:0.675902;stroke-width:0.999999;filter:url(#filter9)"
       d="m 14.740038,17.229032 v 1.725996 h 1.725996 v 10.355978 h -1.725996 v 1.725996 h 8.629982 v -1.725996 h 1.725996 V 18.955028 H 23.37002 v -1.725996 z m 13.80797,0 v 1.725996 h -1.725996 v 10.355978 h 1.725996 v 1.725996 h 6.903986 V 29.311006 H 37.17799 V 18.955028 h -1.725996 v -1.725996 z m 12.081974,0 v 1.725996 h -1.725996 v 3.451992 h 1.725996 v 1.725997 h 3.451993 v 1.725996 h 1.725996 v 3.451993 h -3.451992 v -3.451993 h -3.451993 v 3.451993 h 1.725996 v 1.725996 h 6.903985 v -1.725996 h 1.725997 V 25.859013 H 47.533967 V 24.133017 H 45.807971 V 22.40702 h -3.451992 v -3.451992 h 3.451992 v 3.451992 h 3.451993 v -3.451992 h -1.725997 v -1.725996 z m -20.711955,1.725996 h 1.725996 v 10.355978 h -1.725996 z m 10.355978,0 h 3.451992 V 29.311006 H 30.274005 Z M 14.740038,34.488994 v 1.725997 h 1.725996 v 10.355977 h -1.725996 v 1.725997 h 8.629982 v -1.725997 h 1.725996 V 41.39298 H 23.37002 v -1.725997 h 1.725996 V 36.214991 H 23.37002 v -1.725997 z m 13.80797,0 v 1.725997 h -1.725996 v 10.355977 h 1.725996 v 1.725997 h 6.903986 V 46.570968 H 37.17799 V 36.214991 h -1.725996 v -1.725997 z m 8.629982,0 v 1.725997 h 1.725996 v 3.451992 h 1.725996 v 3.451993 h -1.725996 v 3.451992 H 37.17799 v 1.725997 h 3.451992 v -1.725997 h 1.725997 v -1.725996 h 1.725996 v 1.725996 h 1.725996 v 1.725997 h 3.451993 v -1.725997 h -1.725997 v -3.451992 h -1.725996 v -3.451993 h 1.725996 v -3.451992 h 1.725997 v -1.725997 h -3.451993 v 1.725997 h -1.725996 v 1.725996 h -1.725996 v -1.725996 h -1.725997 v -1.725997 z m -17.259963,1.725997 h 1.725996 v 3.451992 h -1.725996 z m 10.355978,0 h 3.451992 V 46.570968 H 30.274005 Z M 19.918027,41.39298 h 1.725996 v 5.177988 h -1.725996 z"
       id="path3-3" />
    <path
       style="fill:#ffffff;fill-opacity:1;stroke-width:0.999999"
       d="m 14.740037,16.466033 v 1.725997 h 1.725996 v 10.355977 h -1.725996 v 1.725997 h 8.629982 v -1.725997 h 1.725996 V 18.19203 h -1.725996 v -1.725997 z m 13.80797,0 v 1.725997 h -1.725996 v 10.355977 h 1.725996 v 1.725997 h 6.903986 v -1.725997 h 1.725996 V 18.19203 h -1.725996 v -1.725997 z m 12.081974,0 v 1.725997 h -1.725996 v 3.451992 h 1.725996 v 1.725997 h 3.451993 v 1.725996 h 1.725996 v 3.451992 h -3.451992 v -3.451992 h -3.451993 v 3.451992 h 1.725996 v 1.725997 h 6.903985 v -1.725997 h 1.725997 V 25.096015 H 47.533966 V 23.370019 H 45.80797 V 21.644022 H 42.355978 V 18.19203 h 3.451992 v 3.451992 h 3.451993 V 18.19203 H 47.533966 V 16.466033 Z M 19.918026,18.19203 h 1.725996 v 10.355977 h -1.725996 z m 10.355978,0 h 3.451992 V 28.548007 H 30.274004 Z M 14.740037,33.725996 v 1.725997 h 1.725996 V 45.80797 h -1.725996 v 1.725996 h 8.629982 V 45.80797 h 1.725996 v -5.177989 h -1.725996 v -1.725996 h 1.725996 v -3.451992 h -1.725996 v -1.725997 z m 13.80797,0 v 1.725997 H 26.822011 V 45.80797 h 1.725996 v 1.725996 h 6.903986 V 45.80797 h 1.725996 V 35.451993 h -1.725996 v -1.725997 z m 8.629982,0 v 1.725997 h 1.725996 v 3.451992 h 1.725996 v 3.451993 h -1.725996 v 3.451992 h -1.725996 v 1.725996 h 3.451992 V 45.80797 h 1.725997 v -1.725996 h 1.725996 v 1.725996 h 1.725996 v 1.725996 h 3.451993 V 45.80797 H 47.533966 V 42.355978 H 45.80797 v -3.451993 h 1.725996 v -3.451992 h 1.725997 V 33.725996 H 45.80797 v 1.725997 h -1.725996 v 1.725996 h -1.725996 v -1.725996 h -1.725997 v -1.725997 z m -17.259963,1.725997 h 1.725996 v 3.451992 h -1.725996 z m 10.355978,0 h 3.451992 V 45.80797 h -3.451992 z m -10.355978,5.177988 h 1.725996 v 5.177989 h -1.725996 z"
       id="path4-6"
       inkscape:path-effect="#path-effect8"
       inkscape:original-d="m 14.740037,16.466033 v 1.725997 h 1.725996 v 10.355977 h -1.725996 v 1.725997 h 8.629982 v -1.725997 h 1.725996 V 18.19203 h -1.725996 v -1.725997 z m 13.80797,0 v 1.725997 h -1.725996 v 10.355977 h 1.725996 v 1.725997 h 6.903986 v -1.725997 h 1.725996 V 18.19203 h -1.725996 v -1.725997 z m 12.081974,0 v 1.725997 h -1.725996 v 3.451992 h 1.725996 v 1.725997 h 3.451993 v 1.725996 h 1.725996 v 3.451992 h -3.451992 v -3.451992 h -3.451993 v 3.451992 h 1.725996 v 1.725997 h 6.903985 v -1.725997 h 1.725997 V 25.096015 H 47.533966 V 23.370019 H 45.80797 V 21.644022 H 42.355978 V 18.19203 h 3.451992 v 3.451992 h 3.451993 V 18.19203 H 47.533966 V 16.466033 Z M 19.918026,18.19203 h 1.725996 v 10.355977 h -1.725996 z m 10.355978,0 h 3.451992 V 28.548007 H 30.274004 Z M 14.740037,33.725996 v 1.725997 h 1.725996 V 45.80797 h -1.725996 v 1.725996 h 8.629982 V 45.80797 h 1.725996 v -5.177989 h -1.725996 v -1.725996 h 1.725996 v -3.451992 h -1.725996 v -1.725997 z m 13.80797,0 v 1.725997 H 26.822011 V 45.80797 h 1.725996 v 1.725996 h 6.903986 V 45.80797 h 1.725996 V 35.451993 h -1.725996 v -1.725997 z m 8.629982,0 v 1.725997 h 1.725996 v 3.451992 h 1.725996 v 3.451993 h -1.725996 v 3.451992 h -1.725996 v 1.725996 h 3.451992 V 45.80797 h 1.725997 v -1.725996 h 1.725996 v 1.725996 h 1.725996 v 1.725996 h 3.451993 V 45.80797 H 47.533966 V 42.355978 H 45.80797 v -3.451993 h 1.725996 v -3.451992 h 1.725997 V 33.725996 H 45.80797 v 1.725997 h -1.725996 v 1.725996 h -1.725996 v -1.725996 h -1.725997 v -1.725997 z m -17.259963,1.725997 h 1.725996 v 3.451992 h -1.725996 z m 10.355978,0 h 3.451992 V 45.80797 h -3.451992 z m -10.355978,5.177988 h 1.725996 v 5.177989 h -1.725996 z"
       transform="translate(1.0430813e-6,-0.09999982)" />
  </g>
  <g
     id="g9"
     style="filter:url(#filter10);opacity:0.51821935">
    <path
       d="m 14.798987,17.283297 v 1.718522 h 1.718521 v 10.311129 h -1.718521 v 1.718521 h 8.592607 v -1.718521 h 1.718521 V 19.001819 h -1.718521 v -1.718522 z m 13.748171,0 v 1.718522 h -1.718521 v 10.311129 h 1.718521 v 1.718521 h 6.874086 v -1.718521 h 1.718522 V 19.001819 h -1.718522 v -1.718522 z m 12.02965,0 v 1.718522 h -1.718521 v 3.437043 h 1.718521 v 1.718521 h 3.437043 v 1.718522 h 1.718522 v 3.437043 H 42.29533 v -3.437043 h -3.437043 v 3.437043 h 1.718521 v 1.718521 h 6.874086 v -1.718521 h 1.718522 V 25.875905 H 47.450894 V 24.157383 H 45.732373 V 22.438862 H 42.29533 v -3.437043 h 3.437043 v 3.437043 h 3.437043 v -3.437043 h -1.718522 v -1.718522 z m -20.622257,1.718522 h 1.718521 v 10.311129 h -1.718521 z m 10.311129,0 h 3.437043 V 29.312948 H 30.26568 Z M 14.798987,34.468512 v 1.718521 h 1.718521 v 10.311129 h -1.718521 v 1.718522 h 8.592607 v -1.718522 h 1.718521 v -5.155564 h -1.718521 v -1.718522 h 1.718521 v -3.437043 h -1.718521 v -1.718521 z m 13.748171,0 v 1.718521 h -1.718521 v 10.311129 h 1.718521 v 1.718522 h 6.874086 v -1.718522 h 1.718522 V 36.187033 h -1.718522 v -1.718521 z m 8.592608,0 v 1.718521 h 1.718521 v 3.437043 h 1.718521 v 3.437043 h -1.718521 v 3.437043 h -1.718521 v 1.718522 h 3.437042 v -1.718522 h 1.718522 v -1.718521 h 1.718521 v 1.718521 h 1.718522 v 1.718522 h 3.437043 v -1.718522 h -1.718522 v -3.437043 h -1.718521 v -3.437043 h 1.718521 v -3.437043 h 1.718522 v -1.718521 h -3.437043 v 1.718521 h -1.718522 v 1.718522 H 42.29533 v -1.718522 h -1.718522 v -1.718521 z m -17.185215,1.718521 h 1.718521 v 3.437043 h -1.718521 z m 10.311129,0 h 3.437043 V 46.498162 H 30.26568 Z m -10.311129,5.155565 h 1.718521 v 5.155564 h -1.718521 z"
       style="opacity:0.2;stroke-width:0.999999"
       id="path3" />
    <path
       d="m 37.139766,33.609251 v 1.718522 h 1.718521 v 3.437043 h 1.718521 v 3.437043 h -1.718521 v 3.437042 h -1.718521 v 1.718522 h 3.437042 V 45.638901 H 42.29533 V 43.92038 h 1.718521 v 1.718521 h 1.718522 v 1.718522 h 3.437043 v -1.718522 h -1.718522 v -3.437042 h -1.718521 v -3.437043 h 1.718521 v -3.437043 h 1.718522 v -1.718522 h -3.437043 v 1.718522 h -1.718522 v 1.718521 H 42.29533 v -1.718521 h -1.718522 v -1.718522 z"
       style="fill:#73ff44;stroke-width:0.999999"
       id="path4" />
    <path
       d="m 28.547158,16.424037 v 1.718521 h -1.718521 v 10.311129 h 1.718521 v 1.718521 h 6.874086 v -1.718521 h 1.718522 V 18.142558 h -1.718522 v -1.718521 z m 1.718522,1.718521 h 3.437043 V 28.453687 H 30.26568 Z m -1.718522,15.466693 v 1.718522 h -1.718521 v 10.311128 h 1.718521 v 1.718522 h 6.874086 v -1.718522 h 1.718522 V 35.327773 h -1.718522 v -1.718522 z m 1.718522,1.718522 h 3.437043 V 45.638901 H 30.26568 Z"
       style="fill:#bd66ff;stroke-width:0.999999"
       id="path6" />
    <path
       d="m 40.576808,16.424037 v 1.718521 h -1.718521 v 3.437043 h 1.718521 v 1.718521 h 3.437043 v 1.718522 h 1.718522 v 3.437043 H 42.29533 v -3.437043 h -3.437043 v 3.437043 h 1.718521 v 1.718521 h 6.874086 v -1.718521 h 1.718522 V 25.016644 H 47.450894 V 23.298122 H 45.732373 V 21.579601 H 42.29533 v -3.437043 h 3.437043 v 3.437043 h 3.437043 v -3.437043 h -1.718522 v -1.718521 z"
       style="fill:#ffeb3b;stroke-width:0.999999"
       id="path7" />
    <path
       d="m 14.798987,33.609251 v 1.718522 h 1.718521 v 10.311128 h -1.718521 v 1.718522 h 8.592607 v -1.718522 h 1.718521 v -5.155564 h -1.718521 v -1.718521 h 1.718521 v -3.437043 h -1.718521 v -1.718522 z m 5.155564,1.718522 h 1.718521 v 3.437043 h -1.718521 z m 0,5.155564 h 1.718521 v 5.155564 h -1.718521 z"
       style="fill:#5964ff;stroke-width:0.999999"
       id="path8" />
    <path
       d="m 14.798987,16.424037 v 1.718521 h 1.718521 v 10.311129 h -1.718521 v 1.718521 h 8.592607 v -1.718521 h 1.718521 V 18.142558 h -1.718521 v -1.718521 z m 5.155564,1.718521 h 1.718521 v 10.311129 h -1.718521 z"
       style="fill:#e73d3d;stroke-width:0.999999"
       id="path9" />
  </g>
</svg>
