<?xml version="1.0" encoding="UTF-8" standalone="no"?>
<svg
   width="64"
   height="64"
   version="1.1"
   id="svg10"
   sodipodi:docname="electron.svg"
   inkscape:version="1.3.2 (091e20ef0f, 2023-11-25, custom)"
   xmlns:inkscape="http://www.inkscape.org/namespaces/inkscape"
   xmlns:sodipodi="http://sodipodi.sourceforge.net/DTD/sodipodi-0.dtd"
   xmlns:xlink="http://www.w3.org/1999/xlink"
   xmlns="http://www.w3.org/2000/svg"
   xmlns:svg="http://www.w3.org/2000/svg">
  <defs
     id="defs10">
    <linearGradient
       id="linearGradient10"
       inkscape:collect="always">
      <stop
         style="stop-color:#65d7c0;stop-opacity:1;"
         offset="0"
         id="stop10" />
      <stop
         style="stop-color:#4b6dff;stop-opacity:1;"
         offset="1"
         id="stop11" />
    </linearGradient>
    <radialGradient
       inkscape:collect="always"
       xlink:href="#linearGradient10"
       id="radialGradient11"
       cx="10.179572"
       cy="49.038822"
       fx="10.179572"
       fy="49.038822"
       r="28"
       gradientUnits="userSpaceOnUse"
       gradientTransform="matrix(2.7611335,1.3833196,-1.2672145,2.5293857,44.21512,-89.080873)" />
    <filter
       inkscape:collect="always"
       style="color-interpolation-filters:sRGB"
       id="filter3"
       x="-0.033124181"
       y="-0.029917361"
       width="1.0662368"
       height="1.0598343">
      <feGaussianBlur
         inkscape:collect="always"
         stdDeviation="0.44112601"
         id="feGaussianBlur3" />
    </filter>
    <filter
       inkscape:collect="always"
       style="color-interpolation-filters:sRGB"
       id="filter4"
       x="-0.068836808"
       y="-0.068836808"
       width="1.1376736"
       height="1.1376736">
      <feGaussianBlur
         inkscape:collect="always"
         stdDeviation="1.5228589"
         id="feGaussianBlur4" />
    </filter>
  </defs>
  <sodipodi:namedview
     id="namedview10"
     pagecolor="#ffffff"
     bordercolor="#000000"
     borderopacity="0.25"
     inkscape:showpageshadow="2"
     inkscape:pageopacity="0.0"
     inkscape:pagecheckerboard="0"
     inkscape:deskcolor="#d1d1d1"
     inkscape:zoom="8.9714173"
     inkscape:cx="31.990486"
     inkscape:cy="33.272335"
     inkscape:window-width="1920"
     inkscape:window-height="1020"
     inkscape:window-x="0"
     inkscape:window-y="0"
     inkscape:window-maximized="1"
     inkscape:current-layer="svg10" />
  <path
     style="fill:url(#radialGradient11)"
     d="M 32,4 A 28,28 0 0 0 4,32 28,28 0 0 0 32,60 28,28 0 0 0 60,32 28,28 0 0 0 32,4 Z"
     id="path2" />
  <path
     id="path5"
     style="color:#000000;fill:#ffffff;stroke-linecap:round;-inkscape-stroke:none"
     d="M 32.859375 10.003906 A 3 3 0 0 0 30.402344 11.5 A 3 3 0 0 0 31.5 15.597656 A 3 3 0 0 0 34.5625 15.517578 C 35.477703 16.502609 36.3072 17.770779 37.03125 19.234375 C 33.277719 20.490152 29.217931 22.579709 25.582031 25.119141 C 23.239666 26.755124 21.344611 28.811622 19.869141 31.021484 C 19.802136 30.938634 19.731486 30.856677 19.666016 30.773438 C 16.699883 27.002272 15.455407 22.930178 16.507812 20.416016 C 17.053654 19.11202 17.805055 18.550351 18.748047 18.259766 C 19.691039 17.969179 20.871243 18.025271 22.03125 18.283203 C 24.351264 18.799061 26.462891 20.056641 26.462891 20.056641 A 1 1 0 0 0 27.835938 19.716797 A 1 1 0 0 0 27.496094 18.34375 C 27.496094 18.34375 25.197702 16.937732 22.464844 16.330078 C 21.781628 16.178165 21.064583 16.073471 20.337891 16.060547 C 19.611198 16.047627 18.875664 16.126567 18.158203 16.347656 C 16.723281 16.789833 15.404501 17.870984 14.662109 19.644531 C 13.138052 23.285455 14.877211 27.920231 18.09375 32.009766 C 18.311564 32.286696 18.537259 32.561845 18.769531 32.833984 C 17.435504 35.271688 16.589992 37.80389 16.220703 40.123047 A 3 3 0 0 0 14 43 A 3 3 0 0 0 17 46 A 3 3 0 0 0 20 43 A 3 3 0 0 0 18.238281 40.273438 C 18.566611 38.449059 19.238287 36.423166 20.248047 34.429688 C 23.298048 37.481668 27.231563 40.020266 31.513672 41.181641 C 34.119668 41.888427 36.782864 42.060752 39.251953 41.953125 C 39.067038 42.775212 38.8504 43.555316 38.603516 44.28125 C 37.961164 46.170022 37.111053 47.686033 36.134766 48.667969 C 35.158478 49.649905 34.111706 50.121938 32.810547 50.070312 C 29.941747 49.956489 28.316884 48.643664 27.298828 47.328125 C 26.280772 46.012586 25.970703 44.761719 25.970703 44.761719 A 1 1 0 0 0 24.761719 44.029297 A 1 1 0 0 0 24.029297 45.238281 C 24.029297 45.238281 24.434844 46.896186 25.716797 48.552734 C 26.99875 50.209284 29.257421 51.930561 32.730469 52.068359 C 34.600233 52.142549 36.269856 51.368426 37.552734 50.078125 C 38.835613 48.787824 39.787578 47.007148 40.496094 44.923828 C 40.828525 43.946345 41.106325 42.898015 41.332031 41.798828 C 43.370455 41.578297 45.202771 41.193775 46.650391 40.804688 A 3 3 0 0 0 50.5 41.597656 A 3 3 0 0 0 51.597656 37.5 A 3 3 0 0 0 48.929688 36 A 3 3 0 0 0 47.5 36.402344 A 3 3 0 0 0 46.027344 38.869141 C 44.830733 39.17333 43.342033 39.476932 41.693359 39.685547 C 42.115925 36.62904 42.174662 33.280374 41.886719 29.943359 C 41.597911 26.596311 40.914908 23.340238 39.841797 20.496094 C 39.870849 20.488927 39.900727 20.479683 39.929688 20.472656 C 41.94473 19.983739 43.732858 19.845395 45.046875 20.072266 C 46.360892 20.299135 47.136835 20.800988 47.5625 21.689453 C 49.591767 25.925024 46.21875 30.560547 46.21875 30.560547 A 1 1 0 0 0 46.421875 31.960938 A 1 1 0 0 0 47.820312 31.759766 C 47.820312 31.759766 51.991282 26.307366 49.365234 20.826172 C 48.627071 19.285446 47.116988 18.400301 45.386719 18.101562 C 44.521584 17.952194 43.586808 17.925686 42.59375 18.003906 C 41.600692 18.082126 40.549954 18.264116 39.457031 18.529297 C 39.322384 18.561967 39.184757 18.599516 39.048828 18.634766 C 38.173669 16.789294 37.110846 15.177022 35.849609 13.921875 A 3 3 0 0 0 34.5 10.402344 A 3 3 0 0 0 32.859375 10.003906 z M 37.847656 21.074219 C 38.892191 23.734378 39.613652 26.860063 39.894531 30.115234 C 40.185486 33.487136 40.091042 36.881175 39.634766 39.884766 C 37.181504 40.041153 34.527085 39.92532 32.037109 39.25 C 27.991628 38.152803 24.155529 35.610546 21.271484 32.609375 C 22.65265 30.401701 24.468768 28.33473 26.726562 26.757812 C 30.268399 24.284078 34.276587 22.250226 37.847656 21.074219 z M 32 28 C 29.804307 28 28 29.804307 28 32 C 28 34.195693 29.804307 36 32 36 C 34.195693 36 36 34.195693 36 32 C 36 29.804307 34.195693 28 32 28 z " />
  <path
     style="fill:none;stroke:#000000;stroke-opacity:1;stroke-width:0.39999991;stroke-dasharray:none;filter:url(#filter4)"
     d="M 31.893375,3.9265503 A 28,28 0 0 0 3.8933753,31.92655 a 28,28 0 0 0 27.9999997,28 28,28 0 0 0 28,-28 28,28 0 0 0 -28,-27.9999997 z"
     id="path2-5" />
  <path
     id="path5-3"
     style="color:#000000;fill:none;stroke-linecap:round;stroke:#4c6dff;stroke-opacity:1;stroke-width:0.39999991;stroke-dasharray:none;filter:url(#filter3)"
     d="m 32.75275,9.9304563 a 3,3 0 0 0 -2.457031,1.4960937 3,3 0 0 0 1.097656,4.097656 3,3 0 0 0 3.0625,-0.08008 c 0.915203,0.985031 1.7447,2.253201 2.46875,3.716797 -3.753531,1.255777 -7.813319,3.345334 -11.449219,5.884766 -2.342365,1.635983 -4.23742,3.692481 -5.71289,5.902343 -0.067,-0.08285 -0.137655,-0.164807 -0.203125,-0.248046 -2.966133,-3.771166 -4.210609,-7.84326 -3.158204,-10.357422 0.545842,-1.303996 1.297243,-1.865665 2.240235,-2.15625 0.942992,-0.290587 2.123196,-0.234495 3.283203,0.02344 2.320014,0.515858 4.431641,1.773438 4.431641,1.773438 a 1,1 0 0 0 1.373047,-0.339844 1,1 0 0 0 -0.339844,-1.373047 c 0,0 -2.298392,-1.406018 -5.03125,-2.013672 -0.683216,-0.151913 -1.400261,-0.256607 -2.126953,-0.269531 -0.726693,-0.01292 -1.462227,0.06602 -2.179688,0.287109 -1.434922,0.442177 -2.753702,1.523328 -3.496094,3.296875 -1.524057,3.640924 0.215102,8.2757 3.431641,12.365235 0.217814,0.27693 0.443509,0.552079 0.675781,0.824218 -1.334027,2.437704 -2.179539,4.969906 -2.548828,7.289063 a 3,3 0 0 0 -2.220703,2.876952 3,3 0 0 0 3,3 3,3 0 0 0 3,-3 3,3 0 0 0 -1.761719,-2.726562 c 0.32833,-1.824379 1.000006,-3.850272 2.009766,-5.84375 3.050001,3.05198 6.983516,5.590578 11.265625,6.751953 2.605996,0.706786 5.269192,0.879111 7.738281,0.771484 -0.184915,0.822087 -0.401553,1.602191 -0.648437,2.328125 -0.642352,1.888772 -1.492463,3.404783 -2.46875,4.386719 -0.976288,0.981936 -2.02306,1.453969 -3.324219,1.402343 -2.8688,-0.113823 -4.493663,-1.426648 -5.511719,-2.742187 -1.018056,-1.315539 -1.328125,-2.566406 -1.328125,-2.566406 a 1,1 0 0 0 -1.208984,-0.732422 1,1 0 0 0 -0.732422,1.208984 c 0,0 0.405547,1.657905 1.6875,3.314453 1.281953,1.65655 3.540624,3.377827 7.013672,3.515625 1.869764,0.07419 3.539387,-0.699933 4.822265,-1.990234 1.282879,-1.290301 2.234844,-3.070977 2.94336,-5.154297 0.332431,-0.977483 0.610231,-2.025813 0.835937,-3.125 2.038424,-0.220531 3.87074,-0.605053 5.31836,-0.99414 a 3,3 0 0 0 3.849609,0.792968 3,3 0 0 0 1.097656,-4.097656 3,3 0 0 0 -2.667968,-1.5 3,3 0 0 0 -1.429688,0.402344 3,3 0 0 0 -1.472656,2.466797 c -1.196611,0.304189 -2.685311,0.607791 -4.333985,0.816406 0.422566,-3.056507 0.481303,-6.405173 0.19336,-9.742188 -0.288808,-3.347048 -0.971811,-6.603121 -2.044922,-9.447265 0.02905,-0.0072 0.05893,-0.01641 0.08789,-0.02344 2.015042,-0.488917 3.80317,-0.627261 5.117187,-0.40039 1.314017,0.226869 2.08996,0.728722 2.515625,1.617187 2.029267,4.235571 -1.34375,8.871094 -1.34375,8.871094 a 1,1 0 0 0 0.203125,1.400391 1,1 0 0 0 1.398437,-0.201172 c 0,0 4.17097,-5.4524 1.544922,-10.933594 -0.738163,-1.540726 -2.248246,-2.425871 -3.978515,-2.72461 -0.865135,-0.149368 -1.799911,-0.175876 -2.792969,-0.09766 -0.993058,0.07822 -2.043796,0.26021 -3.136719,0.525391 -0.134647,0.03267 -0.272274,0.07022 -0.408203,0.105469 -0.875159,-1.845472 -1.937982,-3.457744 -3.199219,-4.712891 A 3,3 0 0 0 34.393375,10.328894 3,3 0 0 0 32.75275,9.9304563 Z m 4.988281,11.0703127 c 1.044535,2.660159 1.765996,5.785844 2.046875,9.041015 0.290955,3.371902 0.196511,6.765941 -0.259765,9.769532 -2.453262,0.156387 -5.107681,0.04055 -7.597657,-0.634766 -4.045481,-1.097197 -7.88158,-3.639454 -10.765625,-6.640625 1.381166,-2.207674 3.197284,-4.274645 5.455078,-5.851563 3.541837,-2.473734 7.550025,-4.507586 11.121094,-5.683593 z m -5.847656,6.925781 c -2.195693,0 -4,1.804307 -4,4 0,2.195693 1.804307,4 4,4 2.195693,0 4,-1.804307 4,-4 0,-2.195693 -1.804307,-4 -4,-4 z" />
</svg>
