<?xml version="1.0" encoding="UTF-8" standalone="no"?>
<svg
   width="64"
   height="64"
   version="1"
   id="svg8"
   sodipodi:docname="gedit.svg"
   inkscape:version="1.3.2 (091e20ef0f, 2023-11-25, custom)"
   xmlns:inkscape="http://www.inkscape.org/namespaces/inkscape"
   xmlns:sodipodi="http://sodipodi.sourceforge.net/DTD/sodipodi-0.dtd"
   xmlns:xlink="http://www.w3.org/1999/xlink"
   xmlns="http://www.w3.org/2000/svg"
   xmlns:svg="http://www.w3.org/2000/svg">
  <defs
     id="defs8">
    <linearGradient
       id="linearGradient11"
       inkscape:collect="always">
      <stop
         style="stop-color:#e4e4e4;stop-opacity:1;"
         offset="0"
         id="stop12" />
      <stop
         style="stop-color:#eeeeee;stop-opacity:1;"
         offset="1"
         id="stop13" />
    </linearGradient>
    <linearGradient
       id="linearGradient9"
       inkscape:collect="always">
      <stop
         style="stop-color:#f3d491;stop-opacity:1;"
         offset="0"
         id="stop10" />
      <stop
         style="stop-color:#f3b491;stop-opacity:1;"
         offset="1"
         id="stop11" />
    </linearGradient>
    <linearGradient
       id="linearGradient8"
       inkscape:collect="always">
      <stop
         style="stop-color:#ffbb29;stop-opacity:1;"
         offset="0"
         id="stop8" />
      <stop
         style="stop-color:#ff8929;stop-opacity:1;"
         offset="1"
         id="stop9" />
    </linearGradient>
    <radialGradient
       inkscape:collect="always"
       xlink:href="#linearGradient8"
       id="radialGradient9"
       cx="58.683773"
       cy="11.498439"
       fx="58.683773"
       fy="11.498439"
       r="19.5"
       gradientTransform="matrix(-1.3115776,1.3035553,-0.70493429,-0.70927262,140.65062,-57.843579)"
       gradientUnits="userSpaceOnUse" />
    <radialGradient
       inkscape:collect="always"
       xlink:href="#linearGradient9"
       id="radialGradient11"
       cx="27.125879"
       cy="37.228973"
       fx="27.125879"
       fy="37.228973"
       r="4.5465"
       gradientUnits="userSpaceOnUse"
       gradientTransform="matrix(1.8524541,0.71002789,-1.1931989,3.1130414,17.588512,-103.23268)" />
    <radialGradient
       inkscape:collect="always"
       xlink:href="#linearGradient11"
       id="radialGradient13"
       cx="11.377555"
       cy="51.785305"
       fx="11.377555"
       fy="51.785305"
       r="22"
       gradientTransform="matrix(2.1136527,-0.34287162,0.34062885,2.099827,-33.417338,-48.657842)"
       gradientUnits="userSpaceOnUse" />
    <filter
       inkscape:collect="always"
       style="color-interpolation-filters:sRGB"
       id="filter11"
       x="-0.11584281"
       y="-0.11583215"
       width="1.2316686"
       height="1.2316641">
      <feGaussianBlur
         inkscape:collect="always"
         stdDeviation="2.6964615"
         id="feGaussianBlur11" />
    </filter>
  </defs>
  <sodipodi:namedview
     id="namedview8"
     pagecolor="#ffffff"
     bordercolor="#000000"
     borderopacity="0.25"
     inkscape:showpageshadow="2"
     inkscape:pageopacity="0.0"
     inkscape:pagecheckerboard="0"
     inkscape:deskcolor="#d1d1d1"
     inkscape:zoom="6.34375"
     inkscape:cx="25.615764"
     inkscape:cy="20.098522"
     inkscape:window-width="1920"
     inkscape:window-height="1020"
     inkscape:window-x="0"
     inkscape:window-y="0"
     inkscape:window-maximized="1"
     inkscape:current-layer="svg8" />
  <g
     id="g11"
     transform="matrix(0.90687772,0,0,0.90687772,2.1701393,3.8867943)">
    <path
       style="fill:url(#radialGradient13)"
       d="m 7.6428756,59.000001 c -1.5235,0 -2.75,-1.249 -2.75,-2.8 V 5.8000012 c 0,-1.5512 1.2265,-2.7999999 2.75,-2.7999999 H 46.142876 c 1.524,0 2.75,1.2487999 2.75,2.7999999 V 43.000001 l -16,16 z"
       id="path2" />
    <path
       style="fill:#fafafa"
       d="m 32.892876,59.000001 v -13.333 c 0,-1.473 1.194,-2.667 2.667,-2.667 h 13.333 z"
       id="path5" />
    <path
       style="fill:url(#radialGradient11)"
       d="m 21.892876,42.000001 v -9.093 l 9.093,9.093 z"
       id="path6" />
    <path
       style="fill:#545454"
       d="m 21.892876,42.000001 v -3.637 l 3.637,3.637 z"
       id="path7" />
    <path
       style="fill:url(#radialGradient9)"
       d="m 50.990876,3.8083013 -29.098,29.0986997 9.093,9.093 29.099,-29.098 c 0,0 1.818,-1.819 0,-3.6379997 l -5.456,-5.4557 c -1.819,-1.8187 -3.638,0 -3.638,0 z"
       id="path8" />
  </g>
  <path
     d="m 6.7523027,3.8499422 c -1.6055128,-1e-7 -2.9003905,1.3209117 -2.9003906,2.9511719 V 57.199552 c 0,1.63007 1.2948647,2.951172 2.9003906,2.951172 H 32.002303 a 0.15001501,0.15001501 0 0 0 0.09961,-0.04297 0.15001501,0.15001501 0 0 0 0.0059,-0.002 l 16,-16 a 0.15001501,0.15001501 0 0 0 0.0039,-0.0078 0.15001501,0.15001501 0 0 0 0.0293,-0.05469 0.15001501,0.15001501 0 0 0 0.0078,-0.02344 0.15001501,0.15001501 0 0 0 0.0039,-0.01953 V 25.15463 L 59.299178,14.008146 c 0,0 0.478869,-0.475096 0.71875,-1.195313 0.23988,-0.720214 0.225598,-1.709429 -0.71875,-2.654297 L 53.8441,4.7034579 C 53.253574,4.1130308 52.645268,3.878044 52.096053,3.8518954 50.888019,3.7943793 49.99449,4.7034578 49.99449,4.7034579 l -1.865234,1.8652343 c -0.117902,-1.519708 -1.349312,-2.71875 -2.876953,-2.71875 z m 0,0.3007813 H 45.252303 c 1.441997,0 2.599609,1.1782341 2.599609,2.6503906 v 0.042969 L 20.896834,33.801114 a 0.15001501,0.15001501 0 0 0 -0.0039,0.0098 0.15001501,0.15001501 0 0 0 -0.04102,0.0957 v 5.457031 3.636719 a 0.15001501,0.15001501 0 0 0 0.03711,0.09375 0.15001501,0.15001501 0 0 0 0.01953,0.01953 0.15001501,0.15001501 0 0 0 0.09375,0.03711 h 3.636718 5.457032 a 0.15001501,0.15001501 0 0 0 0.09375,-0.04102 0.15001501,0.15001501 0 0 0 0.01172,-0.0039 L 47.851912,25.455411 V 43.849943 H 34.668318 c -0.194247,0 -0.383165,0.01909 -0.566406,0.05664 -0.18324,0.03755 -0.360856,0.09275 -0.529297,0.164063 -0.16844,0.07132 -0.328668,0.158479 -0.478515,0.259765 -0.149848,0.101286 -0.288553,0.218241 -0.416016,0.345703 -0.127463,0.127464 -0.244417,0.266168 -0.345703,0.416016 -0.101286,0.149848 -0.188449,0.310075 -0.259766,0.478516 -0.07132,0.16844 -0.126508,0.346056 -0.164062,0.529297 -0.03755,0.183239 -0.05664,0.372158 -0.05664,0.566406 V 59.849943 H 6.7523027 c -1.4414586,0 -2.5996093,-1.178476 -2.5996093,-2.650391 V 6.8011141 c 10e-8,-1.4721243 1.1581376,-2.6503907 2.5996093,-2.6503906 z m 45.3281253,0.00195 c 0.476631,0.022693 1.006389,0.2154626 1.552734,0.7617188 L 59.08824,10.36947 c 0.873644,0.874125 0.859149,1.70329 0.644531,2.347657 -0.214617,0.644367 -0.644531,1.080078 -0.644531,1.080078 L 47.896834,24.988614 30.096053,42.789396 21.21324,33.906583 48.107771,7.0120516 50.205428,4.9143954 c 0,0 0.826168,-0.811655 1.875,-0.7617188 z M 21.152693,34.267908 29.734725,42.84994 h -5.033204 l -3.548828,-3.548829 z m 0,5.457032 3.125,3.125 h -3.125 z m 13.515625,4.425781 H 47.640975 L 32.152693,59.639005 V 46.666349 c 0,-0.174 0.01734,-0.34387 0.05078,-0.507813 0.03344,-0.163941 0.08294,-0.322111 0.146484,-0.472656 0.06354,-0.150545 0.142116,-0.293928 0.232422,-0.427734 0.09031,-0.133806 0.192914,-0.257368 0.30664,-0.371094 0.113726,-0.113726 0.237288,-0.216335 0.371094,-0.306641 0.133806,-0.09031 0.27719,-0.168878 0.427735,-0.232422 0.150543,-0.06354 0.308713,-0.113041 0.472656,-0.146484 0.163943,-0.03344 0.333814,-0.05078 0.507812,-0.05078 z"
     style="mix-blend-mode:normal;fill:#000000;fill-opacity:1;stroke:#000000;stroke-width:0.1;stroke-linejoin:round;stroke-dasharray:none;stroke-opacity:1;filter:url(#filter11)"
     id="path11"
     transform="matrix(0.90687772,0,0,0.90687772,2.9798684,2.9799126)" />
</svg>
