<?xml version="1.0" encoding="UTF-8" standalone="no"?>
<svg
   width="64"
   height="64"
   version="1"
   id="svg7"
   sodipodi:docname="grub-customizer.svg"
   inkscape:version="1.3.2 (091e20ef0f, 2023-11-25, custom)"
   xmlns:inkscape="http://www.inkscape.org/namespaces/inkscape"
   xmlns:sodipodi="http://sodipodi.sourceforge.net/DTD/sodipodi-0.dtd"
   xmlns:xlink="http://www.w3.org/1999/xlink"
   xmlns="http://www.w3.org/2000/svg"
   xmlns:svg="http://www.w3.org/2000/svg">
  <defs
     id="defs7">
    <linearGradient
       id="linearGradient8"
       inkscape:collect="always">
      <stop
         style="stop-color:#ffffff;stop-opacity:1;"
         offset="0"
         id="stop9" />
      <stop
         style="stop-color:#ffeb87;stop-opacity:1;"
         offset="1"
         id="stop10" />
    </linearGradient>
    <linearGradient
       id="linearGradient7"
       inkscape:collect="always">
      <stop
         style="stop-color:#00ff87;stop-opacity:1;"
         offset="0"
         id="stop7" />
      <stop
         style="stop-color:#34be70;stop-opacity:1;"
         offset="1"
         id="stop8" />
    </linearGradient>
    <radialGradient
       inkscape:collect="always"
       xlink:href="#linearGradient7"
       id="radialGradient8"
       cx="5.3474832"
       cy="5.6289272"
       fx="5.3474832"
       fy="5.6289272"
       r="27.250219"
       gradientTransform="matrix(0.59608635,2.2246245,-2.2858562,0.61249333,17.093246,-8.3398422)"
       gradientUnits="userSpaceOnUse" />
    <filter
       inkscape:collect="always"
       style="color-interpolation-filters:sRGB"
       id="filter8"
       x="-0.11962895"
       y="-0.11637373"
       width="1.2392577"
       height="1.2327475">
      <feGaussianBlur
         inkscape:collect="always"
         stdDeviation="2.4423916"
         id="feGaussianBlur8" />
    </filter>
    <radialGradient
       inkscape:collect="always"
       xlink:href="#linearGradient8"
       id="radialGradient10"
       cx="21.464426"
       cy="32.001804"
       fx="21.464426"
       fy="32.001804"
       r="10.4209"
       gradientTransform="matrix(3.7668014,0,0,3.8065883,-65.903632,-89.88061)"
       gradientUnits="userSpaceOnUse" />
  </defs>
  <sodipodi:namedview
     id="namedview7"
     pagecolor="#222222"
     bordercolor="#000000"
     borderopacity="0.25"
     inkscape:showpageshadow="2"
     inkscape:pageopacity="0.0"
     inkscape:pagecheckerboard="0"
     inkscape:deskcolor="#d1d1d1"
     inkscape:zoom="9.3249707"
     inkscape:cx="31.796347"
     inkscape:cy="32.278922"
     inkscape:window-width="1920"
     inkscape:window-height="1020"
     inkscape:window-x="0"
     inkscape:window-y="0"
     inkscape:window-maximized="1"
     inkscape:current-layer="svg7" />
  <path
     id="path2"
     style="fill:url(#radialGradient8);stroke-width:0.922468"
     d="M 26.712891 6.171875 L 26.712891 6.1738281 C 26.165311 6.2334181 25.682116 6.6810168 25.582031 7.2226562 L 24.492188 12.751953 C 22.536057 13.516952 20.699104 14.567919 19.085938 15.859375 L 13.71875 14.042969 C 13.160858 13.850732 12.485156 14.099154 12.185547 14.607422 L 7.0195312 23.566406 C 6.7285563 24.081683 6.8520686 24.795764 7.3007812 25.181641 L 11.580078 28.933594 C 11.429536 29.939922 11.337891 30.95369 11.337891 32.001953 C 11.337891 33.050252 11.429447 34.061975 11.580078 35.068359 L 7.3007812 38.822266 C 6.852124 39.208142 6.7285563 39.92027 7.0195312 40.435547 L 12.185547 49.394531 C 12.485137 49.902612 13.161135 50.153211 13.71875 49.960938 L 19.085938 48.144531 C 20.699123 49.435895 22.53801 50.48688 24.494141 51.251953 L 25.583984 56.78125 C 25.694493 57.359989 26.244858 57.822053 26.833984 57.830078 L 37.166016 57.830078 C 37.755142 57.822678 38.305563 57.359989 38.416016 56.78125 L 39.505859 51.251953 C 41.461989 50.486954 43.300896 49.435969 44.914062 48.144531 L 50.28125 49.960938 C 50.838848 50.153211 51.514862 49.902688 51.814453 49.394531 L 56.980469 40.435547 C 57.271425 39.92027 57.145978 39.208142 56.697266 38.822266 L 52.419922 35.068359 C 52.570465 34.06203 52.662109 33.0504 52.662109 32.001953 C 52.662109 30.953653 52.570355 29.939977 52.419922 28.933594 L 56.697266 25.181641 C 57.145923 24.795764 57.271425 24.081683 56.980469 23.566406 L 51.814453 14.607422 C 51.515582 14.098603 50.838405 13.848778 50.28125 14.041016 L 44.914062 15.857422 C 43.299789 14.565081 41.461435 13.515073 39.505859 12.75 L 38.416016 7.2207031 C 38.305324 6.6419632 37.754534 6.179808 37.166016 6.171875 L 26.833984 6.171875 C 26.793584 6.1709341 26.753105 6.1709341 26.712891 6.171875 z M 32 20.931641 C 38.11339 20.931641 43.070312 25.88661 43.070312 32 C 43.070312 38.113391 38.11339 43.070313 32 43.070312 C 25.886609 43.070312 20.931641 38.113391 20.931641 32 C 20.931641 25.88661 25.886609 20.931641 32 20.931641 z " />
  <path
     id="path2-5"
     style="fill:none;stroke-width:0.3;stroke:#000000;stroke-opacity:1;stroke-dasharray:none;filter:url(#filter8)"
     d="M 26.712891 6.171875 L 26.712891 6.1738281 C 26.165311 6.2334181 25.684069 6.6810168 25.583984 7.2226562 L 24.494141 12.751953 C 22.538011 13.516952 20.699104 14.567919 19.085938 15.859375 L 13.71875 14.042969 C 13.160858 13.850732 12.485156 14.099154 12.185547 14.607422 L 7.0195312 23.566406 C 6.7285565 24.081683 6.8540218 24.795764 7.3027344 25.181641 L 11.580078 28.933594 C 11.429536 29.939922 11.337891 30.95369 11.337891 32.001953 C 11.337891 33.050252 11.429447 34.061975 11.580078 35.068359 L 7.3027344 38.822266 C 6.8540778 39.208142 6.7285565 39.92027 7.0195312 40.435547 L 12.185547 49.394531 C 12.485137 49.902612 13.161135 50.151258 13.71875 49.958984 L 19.085938 48.144531 C 20.699123 49.435895 22.53801 50.48688 24.494141 51.251953 L 25.583984 56.779297 C 25.694493 57.358036 26.244858 57.822053 26.833984 57.830078 L 37.166016 57.830078 C 37.755142 57.822678 38.305563 57.358036 38.416016 56.779297 L 39.505859 51.251953 C 41.461989 50.486954 43.300896 49.435969 44.914062 48.144531 L 50.28125 49.958984 C 50.838848 50.151258 51.514862 49.902688 51.814453 49.394531 L 56.980469 40.435547 C 57.271425 39.92027 57.145978 39.208142 56.697266 38.822266 L 52.419922 35.068359 C 52.570465 34.06203 52.662109 33.0504 52.662109 32.001953 C 52.662109 30.953653 52.570355 29.939977 52.419922 28.933594 L 56.697266 25.181641 C 57.145923 24.795764 57.271425 24.081683 56.980469 23.566406 L 51.814453 14.607422 C 51.515582 14.098603 50.838405 13.848778 50.28125 14.041016 L 44.914062 15.857422 C 43.299789 14.565081 41.463389 13.515073 39.507812 12.75 L 38.416016 7.2207031 C 38.305324 6.6419632 37.754534 6.179808 37.166016 6.171875 L 26.833984 6.171875 C 26.793584 6.1709341 26.753105 6.1709341 26.712891 6.171875 z M 32 20.931641 C 38.11339 20.931641 43.068359 25.886609 43.068359 32 C 43.068359 38.11339 38.11339 43.068359 32 43.068359 C 25.886609 43.068359 20.931641 38.11339 20.931641 32 C 20.931641 25.886609 25.886609 20.931641 32 20.931641 z " />
  <path
     style="opacity:0.2;stroke-width:0.922468"
     d="m 32.000192,15.396615 c -9.158565,0 -16.603969,7.445404 -16.603969,16.603968 0,9.158565 7.445404,16.603969 16.603969,16.603969 9.158564,0 16.603968,-7.445404 16.603968,-16.603969 0,-9.158564 -7.445404,-16.603968 -16.603968,-16.603968 z m 0,1.953365 c 8.102921,0 14.650604,6.547682 14.650604,14.650603 0,8.102922 -6.547683,14.650604 -14.650604,14.650604 -8.102737,0 -14.650604,-6.547498 -14.650604,-14.650235 0,-8.102736 6.547867,-14.650603 14.650604,-14.650603 z"
     id="path5" />
  <path
     style="fill:url(#radialGradient10);fill-opacity:1;stroke-width:0.922468"
     d="m 30.295518,15.484246 c -8.359545,0.856083 -14.898557,7.933008 -14.898557,16.516153 0,9.158565 7.445404,16.603969 16.603969,16.603969 1.374034,0 2.701834,-0.185891 3.979233,-0.501698 0.11822,-0.27332 0.326785,-0.737734 0.236588,-1.102688 -0.0833,-0.337006 -0.358775,-0.623978 -0.667701,-0.799242 -1.136891,0.282268 -2.321604,0.450263 -3.547345,0.450263 -8.102737,0 -14.650604,-6.547867 -14.650604,-14.650604 0,-7.725642 5.956028,-14.021499 13.532234,-14.592859 0.293005,-0.316933 0.404344,-0.6582 0.349643,-1.104939 -0.05664,-0.45993 -0.41021,-0.709377 -0.936649,-0.818373 z"
     id="path6" />
</svg>
