<?xml version="1.0" encoding="UTF-8" standalone="no"?>
<svg
   width="64"
   height="64"
   version="1"
   id="svg10"
   sodipodi:docname="fr.handbrake.ghb.svg"
   inkscape:version="1.3.2 (091e20ef0f, 2023-11-25, custom)"
   xmlns:inkscape="http://www.inkscape.org/namespaces/inkscape"
   xmlns:sodipodi="http://sodipodi.sourceforge.net/DTD/sodipodi-0.dtd"
   xmlns:xlink="http://www.w3.org/1999/xlink"
   xmlns="http://www.w3.org/2000/svg"
   xmlns:svg="http://www.w3.org/2000/svg">
  <defs
     id="defs10">
    <inkscape:path-effect
       effect="fillet_chamfer"
       id="path-effect46"
       is_visible="true"
       lpeversion="1"
       nodesatellites_param="F,0,1,1,0,0.78093475,0,1 @ F,0,1,1,0,0.78093475,0,1 @ F,0,1,1,0,0.78093475,0,1 @ F,0,1,1,0,0.78093475,0,1 @ F,0,1,1,0,0.78093475,0,1 @ F,0,1,1,0,0.78093475,0,1 @ F,0,1,1,0,0.78093475,0,1 @ F,0,1,1,0,0.78093475,0,1 @ F,0,1,1,0,0.78093475,0,1 @ F,0,1,1,0,0.78093475,0,1 @ F,0,1,1,0,0.78093475,0,1 @ F,0,1,1,0,0.78093475,0,1 @ F,0,1,1,0,0.78093475,0,1 @ F,0,1,1,0,0.78093475,0,1 @ F,0,1,1,0,0.78093475,0,1 @ F,0,1,1,0,0.78093475,0,1 @ F,0,1,1,0,0.78093475,0,1 @ F,0,1,1,0,0.78093475,0,1 @ F,0,1,1,0,0.78093475,0,1 @ F,0,1,1,0,0.78093475,0,1 @ F,0,1,1,0,0.78093475,0,1 @ F,0,1,1,0,0.78093475,0,1 @ F,0,1,1,0,0.78093475,0,1 @ F,0,1,1,0,0.78093475,0,1 @ F,0,1,1,0,0.78093475,0,1 @ F,0,1,1,0,0.78093475,0,1 @ F,0,1,1,0,0.78093475,0,1 @ F,0,1,1,0,0.78093475,0,1 @ F,0,1,1,0,0.78093475,0,1 @ F,0,1,1,0,0.78093475,0,1 @ F,0,1,1,0,0.78093475,0,1 @ F,0,1,1,0,0.78093475,0,1 @ F,0,1,1,0,0.78093475,0,1 @ F,0,1,1,0,0.78093475,0,1 @ F,0,1,1,0,0.78093475,0,1 @ F,0,1,1,0,0.78093475,0,1 @ F,0,1,1,0,0.78093475,0,1 @ F,0,1,1,0,0.78093475,0,1 @ F,0,1,1,0,0.78093475,0,1 @ F,0,1,1,0,0.78093475,0,1 @ F,0,1,1,0,0.78093475,0,1 | F,0,1,1,0,0.78093475,0,1 @ F,0,1,1,0,0.78093475,0,1 @ F,0,1,1,0,0.78093475,0,1 @ F,0,1,1,0,0.78093475,0,1 | F,0,1,1,0,0.78093475,0,1 @ F,0,1,1,0,0.78093475,0,1 @ F,0,1,1,0,0.78093475,0,1 @ F,0,1,1,0,0.78093475,0,1 | F,0,1,1,0,0.78093475,0,1 @ F,0,1,1,0,0.78093475,0,1 @ F,0,0,1,0,0.78093475,0,1 @ F,0,1,1,0,0.78093475,0,1 | F,0,1,1,0,0.78093475,0,1 @ F,0,1,1,0,0.78093475,0,1 @ F,0,1,1,0,0.78093475,0,1 @ F,0,1,1,0,0.78093475,0,1 | F,0,1,1,0,0.78093475,0,1 @ F,0,1,1,0,0.78093475,0,1 @ F,0,1,1,0,0.78093475,0,1 @ F,0,1,1,0,0.78093475,0,1 | F,0,1,1,0,0.78093475,0,1 @ F,0,1,1,0,0.78093475,0,1 @ F,0,1,1,0,0.78093475,0,1 @ F,0,1,1,0,0.78093475,0,1 | F,0,1,1,0,0.78093475,0,1 @ F,0,1,1,0,0.78093475,0,1 @ F,0,1,1,0,0.78093475,0,1 @ F,0,1,1,0,0.78093475,0,1 | F,0,1,1,0,0.78093475,0,1 @ F,0,1,1,0,0.78093475,0,1 @ F,0,1,1,0,0.78093475,0,1 @ F,0,1,1,0,0.78093475,0,1 | F,0,1,1,0,0.78093475,0,1 @ F,0,1,1,0,0.78093475,0,1 @ F,0,1,1,0,0.78093475,0,1 @ F,0,1,1,0,0.78093475,0,1"
       radius="0"
       unit="px"
       method="auto"
       mode="F"
       chamfer_steps="1"
       flexible="false"
       use_knot_distance="true"
       apply_no_radius="true"
       apply_with_radius="true"
       only_selected="false"
       hide_knots="false" />
    <linearGradient
       id="linearGradient2"
       inkscape:collect="always">
      <stop
         style="stop-color:#f55800;stop-opacity:1;"
         offset="0"
         id="stop3" />
      <stop
         style="stop-color:#f50024;stop-opacity:1;"
         offset="1"
         id="stop4" />
    </linearGradient>
    <linearGradient
       id="linearGradient1"
       inkscape:collect="always">
      <stop
         style="stop-color:#f9d625;stop-opacity:1;"
         offset="0"
         id="stop1" />
      <stop
         style="stop-color:#ff8b00;stop-opacity:1;"
         offset="1"
         id="stop2" />
    </linearGradient>
    <inkscape:path-effect
       effect="fillet_chamfer"
       id="path-effect14"
       is_visible="true"
       lpeversion="1"
       nodesatellites_param="F,0,1,1,0,6.161173,0,1 @ F,0,1,1,0,6.161173,0,1 @ F,0,0,1,0,1.4913093,0,1 @ F,0,0,1,0,1.4913093,0,1 @ F,0,0,1,0,1.4913093,0,1 @ F,0,0,1,0,1.4913093,0,1 @ F,0,0,1,0,1.4913093,0,1 @ F,0,0,1,0,1.4913093,0,1 @ F,0,0,1,0,1.4913093,0,1 @ F,0,0,1,0,1.4913093,0,1"
       radius="0"
       unit="px"
       method="auto"
       mode="F"
       chamfer_steps="1"
       flexible="false"
       use_knot_distance="true"
       apply_no_radius="true"
       apply_with_radius="true"
       only_selected="false"
       hide_knots="false" />
    <inkscape:path-effect
       effect="fillet_chamfer"
       id="path-effect13"
       is_visible="true"
       lpeversion="1"
       nodesatellites_param="F,0,0,1,0,2.2621526,0,1 @ F,0,0,1,0,0,0,1 @ F,0,0,1,0,0,0,1 @ F,0,0,1,0,0,0,1 @ F,0,0,1,0,0,0,1 @ F,0,1,1,0,2.2621526,0,1"
       radius="0"
       unit="px"
       method="auto"
       mode="F"
       chamfer_steps="1"
       flexible="false"
       use_knot_distance="true"
       apply_no_radius="true"
       apply_with_radius="true"
       only_selected="false"
       hide_knots="false" />
    <inkscape:path-effect
       effect="fillet_chamfer"
       id="path-effect13-1"
       is_visible="true"
       lpeversion="1"
       nodesatellites_param="F,0,0,1,0,2.2621526,0,1 @ F,0,0,1,0,0,0,1 @ F,0,0,1,0,0,0,1 @ F,0,0,1,0,0,0,1 @ F,0,0,1,0,0,0,1 @ F,0,1,1,0,2.2621526,0,1"
       radius="0"
       unit="px"
       method="auto"
       mode="F"
       chamfer_steps="1"
       flexible="false"
       use_knot_distance="true"
       apply_no_radius="true"
       apply_with_radius="true"
       only_selected="false"
       hide_knots="false" />
    <inkscape:path-effect
       effect="fillet_chamfer"
       id="path-effect14-9"
       is_visible="true"
       lpeversion="1"
       nodesatellites_param="F,0,1,1,0,6.161173,0,1 @ F,0,1,1,0,6.161173,0,1 @ F,0,0,1,0,1.4913093,0,1 @ F,0,0,1,0,1.4913093,0,1 @ F,0,0,1,0,1.4913093,0,1 @ F,0,0,1,0,1.4913093,0,1 @ F,0,0,1,0,1.4913093,0,1 @ F,0,0,1,0,1.4913093,0,1 @ F,0,0,1,0,1.4913093,0,1 @ F,0,0,1,0,1.4913093,0,1"
       radius="0"
       unit="px"
       method="auto"
       mode="F"
       chamfer_steps="1"
       flexible="false"
       use_knot_distance="true"
       apply_no_radius="true"
       apply_with_radius="true"
       only_selected="false"
       hide_knots="false" />
    <radialGradient
       inkscape:collect="always"
       xlink:href="#linearGradient1"
       id="radialGradient2"
       cx="21.184586"
       cy="59.300903"
       fx="21.184586"
       fy="59.300903"
       r="16.395746"
       gradientTransform="matrix(2.0205957,-1.9763401,1.9741382,2.0183445,-132.70608,-21.018132)"
       gradientUnits="userSpaceOnUse" />
    <radialGradient
       inkscape:collect="always"
       xlink:href="#linearGradient2"
       id="radialGradient4"
       cx="14.196343"
       cy="31.167873"
       fx="14.196343"
       fy="31.167873"
       r="10.498612"
       gradientTransform="matrix(1.1799133,0,0,2.1240198,-1.1669605,-36.7405)"
       gradientUnits="userSpaceOnUse" />
    <inkscape:path-effect
       effect="fillet_chamfer"
       id="path-effect46-3"
       is_visible="true"
       lpeversion="1"
       nodesatellites_param="F,0,1,1,0,0.78093475,0,1 @ F,0,1,1,0,0.78093475,0,1 @ F,0,1,1,0,0.78093475,0,1 @ F,0,1,1,0,0.78093475,0,1 @ F,0,1,1,0,0.78093475,0,1 @ F,0,1,1,0,0.78093475,0,1 @ F,0,1,1,0,0.78093475,0,1 @ F,0,1,1,0,0.78093475,0,1 @ F,0,1,1,0,0.78093475,0,1 @ F,0,1,1,0,0.78093475,0,1 @ F,0,1,1,0,0.78093475,0,1 @ F,0,1,1,0,0.78093475,0,1 @ F,0,1,1,0,0.78093475,0,1 @ F,0,1,1,0,0.78093475,0,1 @ F,0,1,1,0,0.78093475,0,1 @ F,0,1,1,0,0.78093475,0,1 @ F,0,1,1,0,0.78093475,0,1 @ F,0,1,1,0,0.78093475,0,1 @ F,0,1,1,0,0.78093475,0,1 @ F,0,1,1,0,0.78093475,0,1 @ F,0,1,1,0,0.78093475,0,1 @ F,0,1,1,0,0.78093475,0,1 @ F,0,1,1,0,0.78093475,0,1 @ F,0,1,1,0,0.78093475,0,1 @ F,0,1,1,0,0.78093475,0,1 @ F,0,1,1,0,0.78093475,0,1 @ F,0,1,1,0,0.78093475,0,1 @ F,0,1,1,0,0.78093475,0,1 @ F,0,1,1,0,0.78093475,0,1 @ F,0,1,1,0,0.78093475,0,1 @ F,0,1,1,0,0.78093475,0,1 @ F,0,1,1,0,0.78093475,0,1 @ F,0,1,1,0,0.78093475,0,1 @ F,0,1,1,0,0.78093475,0,1 @ F,0,1,1,0,0.78093475,0,1 @ F,0,1,1,0,0.78093475,0,1 @ F,0,1,1,0,0.78093475,0,1 @ F,0,1,1,0,0.78093475,0,1 @ F,0,1,1,0,0.78093475,0,1 @ F,0,1,1,0,0.78093475,0,1 @ F,0,1,1,0,0.78093475,0,1 | F,0,1,1,0,0.78093475,0,1 @ F,0,1,1,0,0.78093475,0,1 @ F,0,1,1,0,0.78093475,0,1 @ F,0,1,1,0,0.78093475,0,1 | F,0,1,1,0,0.78093475,0,1 @ F,0,1,1,0,0.78093475,0,1 @ F,0,1,1,0,0.78093475,0,1 @ F,0,1,1,0,0.78093475,0,1 | F,0,1,1,0,0.78093475,0,1 @ F,0,1,1,0,0.78093475,0,1 @ F,0,0,1,0,0.78093475,0,1 @ F,0,1,1,0,0.78093475,0,1 | F,0,1,1,0,0.78093475,0,1 @ F,0,1,1,0,0.78093475,0,1 @ F,0,1,1,0,0.78093475,0,1 @ F,0,1,1,0,0.78093475,0,1 | F,0,1,1,0,0.78093475,0,1 @ F,0,1,1,0,0.78093475,0,1 @ F,0,1,1,0,0.78093475,0,1 @ F,0,1,1,0,0.78093475,0,1 | F,0,1,1,0,0.78093475,0,1 @ F,0,1,1,0,0.78093475,0,1 @ F,0,1,1,0,0.78093475,0,1 @ F,0,1,1,0,0.78093475,0,1 | F,0,1,1,0,0.78093475,0,1 @ F,0,1,1,0,0.78093475,0,1 @ F,0,1,1,0,0.78093475,0,1 @ F,0,1,1,0,0.78093475,0,1 | F,0,1,1,0,0.78093475,0,1 @ F,0,1,1,0,0.78093475,0,1 @ F,0,1,1,0,0.78093475,0,1 @ F,0,1,1,0,0.78093475,0,1 | F,0,1,1,0,0.78093475,0,1 @ F,0,1,1,0,0.78093475,0,1 @ F,0,1,1,0,0.78093475,0,1 @ F,0,1,1,0,0.78093475,0,1"
       radius="0"
       unit="px"
       method="auto"
       mode="F"
       chamfer_steps="1"
       flexible="false"
       use_knot_distance="true"
       apply_no_radius="true"
       apply_with_radius="true"
       only_selected="false"
       hide_knots="false" />
    <filter
       inkscape:collect="always"
       style="color-interpolation-filters:sRGB"
       id="filter20"
       x="-0.026812339"
       y="-0.02863022"
       width="1.0536291"
       height="1.0572602">
      <feGaussianBlur
         inkscape:collect="always"
         stdDeviation="0.51819125"
         id="feGaussianBlur20" />
    </filter>
  </defs>
  <sodipodi:namedview
     id="namedview10"
     pagecolor="#505050"
     bordercolor="#eeeeee"
     borderopacity="1"
     inkscape:showpageshadow="0"
     inkscape:pageopacity="0"
     inkscape:pagecheckerboard="0"
     inkscape:deskcolor="#505050"
     inkscape:zoom="8.0543882"
     inkscape:cx="9.4979281"
     inkscape:cy="36.191452"
     inkscape:window-width="1920"
     inkscape:window-height="1020"
     inkscape:window-x="0"
     inkscape:window-y="0"
     inkscape:window-maximized="1"
     inkscape:current-layer="svg10" />
  <path
     id="path7"
     style="fill:#d4fffb;fill-opacity:0.916975;stroke-width:0.0445239"
     d="m 8.5767721,13.841316 3.4980469,4.75 h 16.144532 a 7.5607483,7.5607483 0 0 0 0.01758,0.02344 h 1.988281 1.384766 l 3.498047,-4.75 h -7.117188 -1.365234 a 7.5607483,7.5607483 0 0 1 -0.002,-0.02344 z M 20.924429,29.544441 v 9.94336 c 0,2.849523 -6.648438,3.798828 -6.648438,3.798828 a 0.94984276,0.94984276 0 0 0 -0.951172,0.949218 h 17.097657 a 0.94984276,0.94984276 0 0 0 -0.949219,-0.949218 c 0,0 -6.647488,-0.949305 -6.648437,-3.798828 v -9.94336 z" />
  <path
     d="m 11.31129,17.664654 9.136538,12.400198 c 0,0 1.256642,1.969974 2.749795,-0.03514 1.491253,-2.006068 9.110891,-12.365054 9.110891,-12.365054 z"
     fill="#f50057"
     id="path11"
     style="fill:url(#radialGradient4);stroke-width:0.0445239" />
  <path
     d="m 41.807331,27.812139 c -0.210101,-1.883336 0.05072,-3.494029 0.451007,-5.023919 a 18.156876,18.156876 0 0 1 1.782171,-4.253429 17.839954,17.839954 0 0 1 2.792163,-3.669577 c 1.125027,-1.110502 2.394792,-2.137072 4.137856,-2.890486 0.215114,1.885414 -0.0428,3.498723 -0.444403,5.02783 a 17.839954,17.839954 0 0 1 -1.788776,4.24952 18.161218,18.161218 0 0 1 -2.798497,3.666718 c -1.126616,1.108668 -2.394792,2.137071 -4.131521,2.893343 z"
     fill="#8bc34a"
     id="path1-3"
     style="fill:#cbff8f;fill-opacity:1;stroke-width:0.050876" />
  <path
     id="path2-6"
     style="fill:#a6e168;fill-opacity:1;stroke-width:0.050876"
     d="m 43.088827,11.75243 c -1.151021,1.53394 -1.757661,3.076662 -2.193934,4.61913 a 18.392398,18.392398 0 0 0 -0.639432,4.639612 c -0.01595,1.46201 0.132858,2.925803 0.467424,4.393506 -0.60958,0.785281 -1.161839,1.668678 -1.612052,2.724614 0.885738,0.09165 1.71083,0.07659 2.495779,-0.0038 0.319935,0.737257 0.717611,1.47486 1.239995,2.214679 0.692288,-0.927558 1.18424,-1.858116 1.563372,-2.790638 a 18.038573,18.038573 0 0 0 4.008503,-1.751751 18.394569,18.394569 0 0 0 3.670299,-2.838756 c 1.108536,-1.139889 2.133959,-2.42 2.885474,-4.16645 -1.893009,-0.190759 -3.509903,0.08454 -5.044034,0.503218 a 18.358753,18.358753 0 0 0 -4.251788,1.823403 18.655053,18.655053 0 0 0 0.0016,-0.03777 18.418447,18.418447 0 0 0 -0.519422,-4.654905 c -0.398005,-1.553994 -0.961075,-3.111025 -2.071724,-4.674084 z" />
  <path
     id="path4-5"
     style="fill:#68983a;fill-opacity:1;stroke-width:0.050876"
     d="m 37.831423,13.100809 c -0.832708,1.635038 -1.133826,3.167715 -1.274176,4.671364 -0.119323,1.498263 -0.03038,2.956516 0.238147,4.381212 0.266431,1.425234 0.720844,2.814964 1.382494,4.164746 0.279084,0.550982 0.589248,1.095995 0.948598,1.631483 -0.229166,0.212043 -0.455074,0.436372 -0.67845,0.678346 0.581856,0.274917 1.150216,0.485681 1.710946,0.653194 0.280729,0.309649 0.5902,0.612781 0.930406,0.911036 0.105545,-0.205689 0.200464,-0.409853 0.289792,-0.612443 0.679057,0.132064 1.347159,0.212639 2.010346,0.26068 a 18.194864,18.194864 0 0 0 4.647744,-0.313886 c 1.511399,-0.297467 2.986787,-0.771186 4.422511,-1.455987 1.431393,-0.706081 2.832254,-1.571714 4.130155,-2.969614 -1.725459,-0.80955 -3.349478,-1.087273 -4.941447,-1.205004 -1.588685,-0.09616 -3.134773,0.01527 -4.647787,0.306422 -1.512232,0.289835 -2.990335,0.764632 -4.426061,1.449421 -0.07711,0.03785 -0.15249,0.0797 -0.229403,0.118556 0.0087,-0.08315 0.0181,-0.166591 0.02579,-0.249552 a 16.178277,16.178277 0 0 0 -0.247812,-4.382472 c -0.274067,-1.424399 -0.72679,-2.813444 -1.389508,-4.162951 -0.684,-1.345179 -1.526976,-2.660494 -2.902282,-3.874551 z" />
  <path
     d="m 46.431824,45.311274 c 1.8646,-3.148553 2.337719,-7.119371 1.434955,-10.801665 -0.468235,-1.911335 -2.870135,-5.497614 -4.905134,-6.758949 L 42.023947,27.195347 40.84324,26.496123 c 0,0 -3.247586,-2.102529 -7.803374,-0.935714 -3.752507,0.96108 -7.124502,3.272243 -9.021414,6.478371 l -2.833148,4.782532 c -3.754229,6.339372 -1.780934,14.450862 4.408147,18.116979 6.189863,3.664797 14.251265,1.49594 18.005494,-4.843432 z"
     fill="#f9a825"
     id="path6-5"
     style="fill:url(#radialGradient2);stroke-width:0.050876" />
  <path
     d="m 35.337548,55.173117 c 0.622586,-0.319684 1.380996,-0.722213 1.824047,-1.084772 0.305997,-0.250405 -0.01175,-0.694799 -0.441312,-0.730801 -0.891204,-0.07469 -1.753934,-0.105686 -1.900842,-0.88774 -0.07904,-0.420764 0.07484,-1.128877 -0.01016,-1.549788 -0.146818,-0.727012 -0.501737,-1.556128 -0.632178,-2.15884 -0.08753,-0.404449 0.419824,-0.708425 0.849147,-0.667252 1.184817,0.113628 2.434829,0.243084 3.429142,0.853004 0.366255,0.224663 0.850724,0.750884 0.980088,1.157585 0.182136,0.57261 0.259696,1.244257 0.501576,1.329326 0.385454,0.135564 0.817323,-0.718767 1.122297,-1.023741 l 0.190903,-0.190904 c 0.304974,-0.304974 0.148792,-0.862439 0.276957,-1.263917 0.04355,-0.136432 0.222518,-0.164086 0.459435,-0.175821 0.429719,-0.02129 1.010895,-0.331327 1.32019,-0.63166 0.56813,-0.551669 1.232982,-1.196431 0.936416,-1.471211 -0.309724,-0.286971 -1.102993,-0.141975 -1.532548,-0.180348 -0.469996,-0.04199 -0.866723,-0.139539 -1.016024,-0.493289 -0.165127,-0.391247 0.02342,-1.122474 -0.04882,-1.546131 -0.141574,-0.830247 -0.538077,-1.788308 -0.670525,-2.469326 -0.07997,-0.411197 0.406562,-0.723771 0.835873,-0.682431 1.106627,0.106558 2.244776,0.248752 3.226234,0.74189 0.384564,0.193225 0.837793,0.712441 1.069889,1.075846 0.07475,0.117038 0.139482,0.195151 0.200094,0.205101 0.405009,0.06648 0.412223,-1.011078 0.530051,-1.425939 0.745647,-2.625353 0.944212,-5.48001 0.231922,-8.118714 -0.112382,-0.416322 -0.365527,-1.06876 -0.56349,-1.451851 -0.673386,-1.303119 -1.581874,-2.477561 -2.596954,-3.537181 -0.298326,-0.311416 -0.336542,-0.273476 -0.145792,0.112574 0.350377,0.70911 0.620809,1.627722 0.642017,2.290515 0.01348,0.421324 -0.485631,0.565017 -0.9062,0.479144 -0.871021,-0.177846 -1.953523,-0.07835 -2.650598,-0.323612 -0.3967,-0.139574 -0.565808,-0.822667 -0.624153,-1.248867 -0.102011,-0.745163 -0.371195,-1.59116 -0.448695,-2.21866 -0.05177,-0.419174 0.437934,-0.743668 0.861807,-0.66589 0.653694,0.11995 1.381004,0.334799 1.918145,0.544385 0.400687,0.156344 0.47984,0.07131 0.185713,-0.24402 -1.642526,-1.760933 -3.852411,-2.997452 -6.254604,-3.261593 -0.428574,-0.04713 -1.127695,-0.08034 -1.55879,-0.09187 -2.059039,-0.05506 -4.114773,0.304132 -6.081595,0.911477 -0.412079,0.127248 -0.389675,0.32513 -0.03891,0.572483 0.96067,0.677454 1.196118,2.02004 1.367618,3.223255 0.06084,0.426854 0.216245,1.117054 0.198976,1.547166 -0.0092,0.228042 -0.07536,0.379939 -0.239006,0.402469 -0.419733,0.05779 -1.007413,-0.49444 -1.424227,-0.595111 -1.339997,-0.323643 -3.243289,0.12102 -3.591431,-1.003637 -0.126338,-0.40813 0.0037,-1.130376 -0.09483,-1.549373 -0.06913,-0.293949 -0.194715,-0.465568 -0.400354,-0.417783 -0.413803,0.09616 -0.87086,0.703303 -1.188724,0.994684 -0.362856,0.332625 -0.654865,0.69844 -0.707813,1.153256 -0.04933,0.423703 -0.147833,0.422993 -0.566461,0.445943 -0.24528,0.01345 -0.465034,0.163239 -0.674277,0.359438 -0.314468,0.294865 -0.791822,0.805825 -1.100911,1.10634 -0.122969,0.119558 -0.223625,0.232509 -0.260682,0.327463 -0.13306,0.340955 0.963601,0.291971 1.35938,0.459199 1.199864,0.506979 1.660578,1.8842 1.871597,3.180786 0.06926,0.425578 0.159363,1.119282 0.20353,1.548291 0.04228,0.410653 0.02793,0.75501 -0.217162,0.78898 -0.418984,0.05807 -1.0013,-0.505837 -1.418273,-0.60646 -1.36772,-0.330057 -3.303006,0.123056 -3.615443,-1.068721 -0.108469,-0.413753 -0.01,-1.126873 -0.09058,-1.550305 -0.0518,-0.272132 -0.13,-0.465476 -0.252772,-0.469828 -0.416698,-0.01477 -0.686259,0.865373 -0.918793,1.228557 -0.662976,1.035469 -1.19682,2.153533 -1.584701,3.320222 -0.136051,0.409221 0.06307,0.957651 0.315894,1.305224 0.607739,0.835514 0.746094,1.971191 0.874855,3.031646 0.05186,0.427107 0.457713,1.306249 0.105665,1.499782 -0.40477,0.222516 -1.800883,-0.780725 -2.027406,-0.296696 -0.179115,0.382727 0.02402,1.11995 0.142262,1.531024 0.306112,1.064221 1.688683,1.411388 2.125814,2.492436 0.160535,0.397012 0.158759,1.113047 0.220035,1.539914 0.178025,1.240166 0.553871,2.388225 1.459206,3.258327 0.310534,0.298449 0.843807,0.75988 1.218011,0.970574 1.074788,0.605155 2.502949,0.405092 3.696164,0.857969 0.401872,0.152528 0.886139,0.653032 1.152317,0.99236 0.440166,0.56113 0.903152,0.999693 1.620655,1.120363 0.423888,0.07129 1.382565,0.118733 1.369675,-0.234865 -0.01807,-0.495779 -0.686158,-1.478729 -0.466358,-1.760404 0.2521,-0.323067 1.086025,0.105283 1.514164,0.157247 1.060618,0.128729 2.196156,0.267741 3.031309,0.876214 0.346549,0.252489 0.894787,0.451963 1.303952,0.315759 0.271866,-0.0905 0.541103,-0.189201 0.806902,-0.294933 0.400707,-0.159397 1.028796,-0.466924 1.412473,-0.663934 z m 3.375648,-8.783502 c -1.191364,-0.448276 -2.669058,-0.447017 -3.76144,-0.736769 -0.415747,-0.110275 -0.750776,-0.62727 -0.793293,-1.056454 -0.114889,-1.159741 -0.313473,-2.319412 -0.715354,-3.41138 -0.148898,-0.404577 0.04776,-0.693026 0.477706,-0.658884 1.226265,0.09738 2.495601,0.229449 3.583368,0.775564 0.384654,0.193116 0.880238,0.685917 1.073328,1.070944 0.54166,1.080081 0.676814,2.364168 0.773862,3.583472 0.03419,0.429494 -0.235245,0.585118 -0.638177,0.433507 z m -7.531207,-0.747377 c -1.191516,-0.448861 -2.669905,-0.447602 -3.76245,-0.736945 -0.41579,-0.110116 -0.750639,-0.626977 -0.792961,-1.056181 -0.114387,-1.160061 -0.313087,-2.32 -0.714954,-3.41227 -0.148857,-0.404593 0.04786,-0.69285 0.477784,-0.658495 1.22589,0.09796 2.494795,0.230256 3.582246,0.776274 0.384645,0.193134 0.880191,0.685966 1.073221,1.071023 0.541489,1.080164 0.67639,2.364235 0.774358,3.583482 0.03451,0.429465 -0.234372,0.584879 -0.637244,0.433112 z M 45.362001,35.588565 c 0.544116,1.086077 0.676636,2.35243 0.775044,3.576125 0.03454,0.429547 -0.234305,0.585223 -0.637364,0.433966 -1.191219,-0.447033 -2.668807,-0.443128 -3.760858,-0.731552 -0.415855,-0.109832 -0.750583,-0.626839 -0.792607,-1.056072 -0.113514,-1.159437 -0.310342,-2.318934 -0.710465,-3.411078 -0.148303,-0.404795 0.04877,-0.692962 0.478678,-0.658362 1.220877,0.09826 2.495279,0.23114 3.57692,0.773701 0.384744,0.192992 0.877698,0.688129 1.070652,1.073272 z m -7.395653,3.268106 c -1.190912,-0.448771 -2.668289,-0.447786 -3.760479,-0.737517 -0.415745,-0.110286 -0.75081,-0.627265 -0.793439,-1.056438 -0.115149,-1.159283 -0.314235,-2.318351 -0.715591,-3.410078 -0.148756,-0.404631 0.04816,-0.693213 0.478096,-0.659011 1.225813,0.09751 2.49448,0.230111 3.582035,0.775779 0.384706,0.193022 0.880169,0.685828 1.073066,1.070954 0.541088,1.080302 0.676316,2.364068 0.773887,3.583236 0.03437,0.42948 -0.234719,0.584883 -0.637575,0.433075 z M 32.42788,25.461148 c 1.226672,0.09764 2.496363,0.230241 3.584484,0.776614 0.384645,0.19314 0.877996,0.687355 1.070788,1.072582 0.544472,1.087935 0.676793,2.35617 0.774708,3.581698 0.03432,0.429566 -0.234593,0.585041 -0.637469,0.433288 -1.191337,-0.448746 -2.669238,-0.447232 -3.76173,-0.73732 -0.415716,-0.110384 -0.750724,-0.627547 -0.79336,-1.05672 -0.115158,-1.159183 -0.314212,-2.31972 -0.715431,-3.411231 -0.148738,-0.404637 0.04807,-0.693134 0.47801,-0.658911 z m -6.779634,6.786589 c 1.224263,0.0973 2.491435,0.229362 3.577487,0.774414 0.384682,0.193059 0.878428,0.687037 1.071502,1.072118 0.544469,1.085923 0.676512,2.352546 0.774768,3.576324 0.03449,0.42955 -0.234321,0.585175 -0.637366,0.433885 -1.191261,-0.447161 -2.668864,-0.443062 -3.761084,-0.731504 -0.415858,-0.109824 -0.750839,-0.626799 -0.792966,-1.056023 -0.113743,-1.158908 -0.309874,-2.318801 -0.710427,-3.410209 -0.148529,-0.404707 0.04815,-0.693173 0.478086,-0.659005 z m -6.784325,6.784354 c 1.224322,0.09749 2.491368,0.230328 3.577474,0.775564 0.384664,0.193105 0.878266,0.68715 1.071223,1.072291 0.544277,1.086374 0.676536,2.353189 0.774317,3.577274 0.03431,0.429566 -0.234616,0.585005 -0.63757,0.433472 -1.190748,-0.447786 -2.668002,-0.444354 -3.760035,-0.732506 -0.415884,-0.109738 -0.750996,-0.626515 -0.793208,-1.05573 -0.114005,-1.159206 -0.310539,-2.319295 -0.710736,-3.411198 -0.148354,-0.404773 0.0486,-0.693402 0.478535,-0.659167 z m 1.065217,11.864637 c -0.09892,-1.207728 -0.616569,-2.635644 -0.758904,-3.600861 -0.06241,-0.423235 0.35622,-0.737646 0.785549,-0.696531 1.179832,0.112986 2.421576,0.243318 3.417781,0.842324 0.368289,0.221448 0.807099,0.767732 0.977086,1.163722 0.454183,1.058033 0.595243,2.235437 0.687201,3.390854 0.0342,0.429716 -0.257911,0.626533 -0.662434,0.477327 -1.17336,-0.432786 -2.426393,-0.633595 -3.674053,-0.741014 -0.429637,-0.03699 -0.737079,-0.406701 -0.772226,-0.835821 z m 7.532645,0.745878 c -0.09874,-1.207432 -0.616008,-2.634905 -0.758585,-3.599875 -0.06253,-0.423227 0.355828,-0.737832 0.785174,-0.696893 1.179948,0.112512 2.421924,0.242531 3.418059,0.841726 0.36825,0.221509 0.80707,0.76784 0.977108,1.163807 0.454299,1.057921 0.595088,2.235354 0.686914,3.390739 0.03415,0.429719 -0.258051,0.626702 -0.66266,0.477728 -1.17352,-0.432084 -2.426461,-0.632122 -3.673951,-0.740537 -0.429606,-0.03734 -0.736967,-0.407571 -0.772059,-0.836695 z"
     fill="#c68632"
     id="path7-6"
     style="fill:#ff0000;fill-opacity:0.250638;stroke-width:1.07883964;stroke-dasharray:none"
     inkscape:path-effect="#path-effect46"
     inkscape:original-d="m 34.643424,55.530969 c 0.882899,-0.472169 3.218458,-1.541312 2.851312,-2.076317 -1.317921,-0.262046 -3.05346,0.143542 -2.63313,-1.758887 0.151399,-1.169596 -1.122655,-3.208924 -0.612322,-3.680377 1.643858,0.186815 3.571619,0.191766 4.821068,1.408075 0.695075,0.64272 0.440109,3.0269 1.436796,1.538839 0.43177,-0.431771 0.863541,-0.863541 1.295311,-1.295312 -0.765796,-1.180075 0.165283,-0.767385 0.959851,-0.959872 0.600052,-0.723247 2.700075,-2.25659 0.727701,-2.16138 -1.016622,-0.07986 -2.110468,0.04902 -1.807353,-1.311621 0.160761,-1.277592 -1.112313,-3.436264 -0.648887,-4.002859 1.590777,0.157934 3.34616,0.231565 4.666671,1.225193 0.482054,0.698442 0.644747,1.457409 0.908376,0.19216 1.008545,-3.069087 1.290711,-6.523694 0.232302,-9.61205 -0.793978,-1.828 -2.061364,-3.415274 -3.482522,-4.796277 0.718577,0.923171 1.372827,3.156404 0.871474,3.699925 -1.156332,-0.693652 -3.450311,-0.03828 -3.980481,-1.057755 0.139866,-1.18573 -0.806942,-3.165795 -0.386887,-3.756912 1.095097,0.04228 2.945972,0.643656 3.390949,0.98331 -1.841828,-2.271665 -4.581627,-3.840252 -7.546079,-3.901543 -2.57892,-0.203323 -5.169614,0.276442 -7.603751,1.112695 1.850174,0.521337 1.931687,2.749571 2.183199,4.326138 0.172669,0.908114 0.185528,1.598062 -0.861146,0.884031 -1.423571,-0.994078 -4.717365,0.354421 -4.331178,-2.078944 -0.0021,-1.022155 -0.240864,-1.725935 -1.059537,-0.699073 -0.791426,0.633861 -1.650924,1.284804 -1.184099,2.415466 -0.817906,-0.773662 -1.350308,0.0394 -1.902927,0.607886 -0.413498,0.482405 -1.531474,1.15107 -0.21873,1.141051 2.077892,0.205378 2.548435,2.438917 2.728728,4.141841 0.101634,0.879567 0.445737,2.162362 -0.817027,1.255661 -1.454629,-0.992126 -4.76377,0.359081 -4.338146,-2.142057 -0.05692,-0.905895 -0.200802,-1.907692 -0.818015,-0.663353 -1.020455,1.421969 -1.78649,3.02586 -2.249562,4.713701 1.297326,0.993979 1.290739,2.8667 1.518825,4.362013 0.787886,2.137703 -2.796152,-1.165255 -1.913498,1.187913 -0.327277,2.015641 2.335601,1.996099 2.290689,4.030267 0.15553,1.785589 0.567072,3.464759 2.15597,4.521237 1.273403,1.397858 3.482031,0.617255 4.992538,1.706452 0.756952,1.041924 1.350413,1.932744 2.863737,1.759171 1.787868,0.455782 -1.251117,-2.765806 0.865002,-1.950992 1.495449,0.227639 3.368035,0.221916 4.362013,1.519215 0.778721,-0.210544 1.542369,-0.494864 2.272765,-0.826659 z m 4.769165,-8.797139 c -1.517317,-0.969953 -3.935175,-0.663975 -5.188208,-1.359314 -0.120701,-1.673356 -0.36059,-3.378269 -1.08208,-4.909804 1.707409,0.142412 3.600002,0.190459 5.026769,1.24352 1.048563,1.402015 1.103683,3.339425 1.243519,5.025598 z m -7.531371,-0.747049 c -1.517198,-0.97106 -3.93646,-0.664985 -5.189174,-1.359507 -0.11952,-1.673741 -0.359869,-3.378878 -1.081115,-4.910781 1.707037,0.143477 3.599128,0.191796 5.025598,1.24469 1.04844,1.402189 1.102735,3.339539 1.244691,5.025598 z M 44.955735,34.922737 c 1.05009,1.425699 1.099292,3.314686 1.24352,5.019744 -1.517228,-0.969496 -3.935646,-0.658296 -5.187962,-1.353254 -0.118986,-1.673037 -0.356191,-3.377821 -1.075301,-4.910009 1.69523,0.143927 3.607966,0.193731 5.019743,1.243519 z m -6.290194,4.27855 C 37.14892,38.230376 34.73133,38.536019 33.478491,37.840828 33.357663,36.16782 33.116534,34.463777 32.396424,32.93217 c 1.707098,0.1423 3.598718,0.191553 5.025598,1.243519 1.047373,1.402722 1.102667,3.339435 1.243519,5.025598 z M 31.649375,25.399626 c 1.707869,0.142571 3.600724,0.191618 5.027898,1.244649 1.050049,1.427905 1.09909,3.31863 1.242347,5.025596 -1.517054,-0.971025 -3.935109,-0.664245 -5.188222,-1.360472 -0.120866,-1.671862 -0.361988,-3.379597 -1.082023,-4.909773 z m -6.77964,6.786666 c 1.705439,0.142286 3.595812,0.190502 5.020915,1.242348 1.051137,1.425172 1.099237,3.314744 1.24352,5.019744 -1.51726,-0.969817 -3.935445,-0.658199 -5.188156,-1.353266 -0.120064,-1.671825 -0.355454,-3.37833 -1.076279,-4.908826 z m -6.784323,6.784324 c 1.705623,0.142133 3.595625,0.19189 5.020914,1.243519 1.050407,1.425928 1.099255,3.315484 1.242349,5.020914 -1.516498,-0.970788 -3.934473,-0.66039 -5.186998,-1.354437 -0.120286,-1.67221 -0.356614,-3.378681 -1.076265,-4.909996 z m 1.837177,12.705677 c 0.204752,-1.666809 -1.035975,-4.238941 -0.743822,-5.155002 1.641409,0.184384 3.554843,0.195036 4.815066,1.390182 0.882574,1.446784 0.981109,3.211729 1.101891,4.863145 -1.609661,-0.757921 -3.414567,-0.99281 -5.173135,-1.098325 z m 7.532543,0.745877 c 0.204942,-1.666587 -1.035052,-4.238235 -0.74381,-5.154036 1.641448,0.183614 3.555352,0.193689 4.815247,1.389409 0.883048,1.44653 0.980977,3.211619 1.101697,4.862952 -1.610069,-0.757098 -3.414815,-0.99024 -5.173134,-1.098325 z"
     transform="matrix(0.897939,-0.22997742,0.22997742,0.897939,-3.4048387,11.810113)" />
  <path
     d="m 43.064453,11.613281 a 0.10000996,0.10000996 0 0 0 -0.08203,0.03906 c -1.160188,1.546155 -1.772795,3.103272 -2.210938,4.652343 a 0.10000996,0.10000996 0 0 0 0,0.002 c -0.03257,0.120276 -0.06164,0.240857 -0.0918,0.361328 -0.667481,-1.274146 -1.498007,-2.522761 -2.808593,-3.679688 a 0.10000996,0.10000996 0 0 0 -0.08594,-0.02344 0.10000996,0.10000996 0 0 0 -0.07031,0.05273 c -0.83972,1.648806 -1.144156,3.194461 -1.285157,4.705078 a 0.10000996,0.10000996 0 0 0 0,0.002 c -0.120042,1.5073 -0.02985,2.973316 0.240235,4.40625 0.188534,1.008537 0.474821,2.000551 0.857422,2.972657 -0.590459,-0.09565 -1.189092,-0.141704 -1.789063,-0.117188 -0.28132,0.0115 -0.561318,0.0363 -0.841797,0.07617 -0.181454,0.0258 -0.415797,0.07003 -0.648437,0.115234 a 0.10002022,0.10002022 0 0 0 -0.0039,-0.002 c -0.0019,2.73e-4 -0.0039,0.0017 -0.0059,0.002 -0.403778,0.05698 -0.821254,0.136286 -1.25,0.246094 -0.106002,0.02715 -0.203561,0.07144 -0.300781,0.119141 -1.58726,0.454051 -3.09684,1.163457 -4.501953,2.02539 -0.09163,0.05621 -0.161077,0.112235 -0.208985,0.175782 -0.02129,0.02824 -0.03652,0.06095 -0.04687,0.09375 -1.108971,0.771132 -2.169376,1.613918 -3.001953,2.648437 -0.0091,0.0038 -0.01845,0.0051 -0.02734,0.0098 -0.208695,0.108395 -0.364241,0.328446 -0.50586,0.560547 -0.141618,0.232098 -0.26581,0.480306 -0.36914,0.638671 -0.106351,0.162997 -0.196602,0.332173 -0.267579,0.50586 l -0.861328,1.453125 v -3.195313 c 0.117135,-0.114747 0.234647,-0.248577 0.353516,-0.408203 1.492276,-2.00744 9.111328,-12.367187 9.111328,-12.367187 l 2.798828,-3.798828 a 0.10000996,0.10000996 0 0 0 -0.08008,-0.158203 h -7.117187 -1.341797 a 0.10000996,0.10000996 0 0 0 -0.02539,-0.02344 H 8.5488281 A 0.10000996,0.10000996 0 0 0 8.46875,13.861328 l 2.734375,3.714844 a 0.10000996,0.10000996 0 0 0 0.002,0.107422 l 9.130859,12.396484 c 0,0 0.0039,0.0019 0.0039,0.002 v 0.002 c 0.0022,0.0035 0.168236,0.264124 0.457031,0.50586 v 6.638672 c -0.143479,0.267822 -0.279813,0.537868 -0.404297,0.810546 0,0 -0.002,0 -0.002,0 -0.08429,0.0433 -0.15088,0.115894 -0.201172,0.199219 -0.06706,0.1111 -0.112709,0.244743 -0.150391,0.384766 -0.07017,0.260775 -0.112762,0.539726 -0.164062,0.716797 -0.0086,0.02936 -0.01347,0.05217 -0.01172,0.04687 -0.223936,0.678532 -0.38768,1.375547 -0.503906,2.080078 -1.926703,1.215608 -5.125,1.68164 -5.125,1.68164 h 0.01367 c -0.578929,-8.09e-4 -1.050402,0.4699 -1.050781,1.048829 a 0.10000996,0.10000996 0 0 0 0.09961,0.09961 h 5.960937 c 0.02557,1.221571 0.19095,2.424094 0.56836,3.576172 -0.0012,0.005 -0.0049,0.0086 -0.0059,0.01367 -0.0437,0.230957 0.03515,0.493751 0.142579,0.746093 0.107427,0.252345 0.248944,0.494525 0.349609,0.666016 0.06326,0.107775 0.138652,0.200132 0.220703,0.285156 0.93335,1.894378 2.325332,3.573507 4.138672,4.847657 l 0.002,0.002 c 0.0043,0.003 0.0075,0.0068 0.01172,0.0098 0.225813,0.211864 0.47397,0.40388 0.757812,0.564453 0.28613,0.161868 0.720256,0.379395 1.091797,0.515625 0.0025,0.0012 0.0053,7.3e-4 0.0078,0.002 0,0 0,0.002 0,0.002 0.0798,0.02926 0.163351,0.05946 0.240234,0.08008 0.0019,5.1e-4 0.004,-5.06e-4 0.0059,0 0.0014,3.62e-4 0.0025,0.0016 0.0039,0.002 1.910554,0.862837 3.942413,1.248898 5.949218,1.146484 0.178717,0.03652 0.36508,0.05213 0.566407,0.03516 0.207303,-0.01748 0.528565,-0.07146 0.796875,-0.164063 0.01382,-0.0048 0.02555,-0.01067 0.03906,-0.01563 l 0.002,-0.002 c 0.002,-3.23e-4 0.0038,-0.0016 0.0059,-0.002 1.646383,-0.263824 3.186275,-0.939182 4.636718,-1.810547 0.172752,-0.01737 0.338541,-0.06486 0.480469,-0.15625 0.224835,-0.14477 0.444195,-0.295886 0.660156,-0.453125 0.329818,-0.240137 0.824202,-0.661188 1.125,-0.927734 0.486285,-0.430913 1.07619,-0.964846 1.402344,-1.408204 0.01534,-0.02085 0.02015,-0.04448 0.03125,-0.06641 0,0 0.002,0 0.002,0 0.424417,-0.522315 0.814498,-1.08282 1.167969,-1.679687 l 0.746094,-1.259766 c 0.06836,-0.02733 0.129212,-0.07305 0.179687,-0.128906 0.08589,-0.09503 0.152727,-0.217586 0.214844,-0.34961 0.124235,-0.264047 0.226354,-0.570594 0.316406,-0.722656 l 0.128907,-0.214844 c 0.0019,-0.0031 0.0021,-0.0066 0.0039,-0.0098 0,0 0.002,-0.002 0.002,-0.002 v -0.002 l 1.240234,-2.09375 c 0.05566,-0.094 0.105817,-0.187828 0.15625,-0.279297 0.0021,-0.0037 0.0038,-0.008 0.0059,-0.01172 0.0011,-0.002 0.0028,-0.0039 0.0039,-0.0059 6.89e-4,-0.0012 0.0013,-0.0027 0.002,-0.0039 0.178516,-0.292149 0.365932,-0.602514 0.480469,-0.875 0.04152,-0.09879 0.06795,-0.190473 0.08594,-0.279297 v -0.002 c 5.75e-4,-0.0013 0.0014,-0.0026 0.002,-0.0039 0.517052,-1.197635 0.862342,-2.476463 1.03125,-3.789062 0.01381,-0.0098 0.02949,-0.01747 0.04102,-0.0293 0.04486,-0.04605 0.07326,-0.102902 0.0918,-0.164063 0.03708,-0.122322 0.04113,-0.266727 0.03516,-0.419922 -0.01001,-0.256692 -0.04609,-0.522437 -0.05664,-0.71289 7.6e-5,-0.002 9e-6,-0.0039 0,-0.0059 -0.0018,-0.03473 -0.0085,-0.08588 -0.0078,-0.113281 0.03489,-1.341535 -0.08608,-2.70488 -0.388672,-4.021484 -0.0108,-0.05125 -0.02147,-0.102375 -0.03516,-0.158203 -0.01035,-0.04226 -0.02349,-0.08371 -0.03516,-0.123047 -0.0025,-0.0097 -0.0054,-0.01961 -0.0078,-0.0293 0,0 -0.002,0 -0.002,0 v -0.002 c -0.27131,-1.068018 -0.659701,-2.102408 -1.201172,-3.060547 -0.202321,-0.358009 -0.58,-0.884347 -0.853515,-1.191406 -0.04599,-0.05164 -0.09372,-0.101582 -0.140625,-0.152344 0.782231,-0.05244 1.561175,-0.151712 2.332031,-0.304688 1.518981,-0.298957 3.003644,-0.774322 4.447265,-1.46289 a 0.10000996,0.10000996 0 0 0 0.002,0 c 1.437242,-0.708969 2.849909,-1.581141 4.158203,-2.990235 a 0.10000996,0.10000996 0 0 0 -0.03125,-0.158203 c -1.739332,-0.816057 -3.37805,-1.096628 -4.976563,-1.214844 a 0.10000996,0.10000996 0 0 0 -0.002,0 c -0.10113,-0.0061 -0.20195,-0.0092 -0.302734,-0.01367 0.276022,-0.243691 0.547358,-0.493159 0.808593,-0.753907 a 0.10000996,0.10000996 0 0 0 0.002,0 c 1.113136,-1.144617 2.14675,-2.436799 2.904296,-4.197265 a 0.10000996,0.10000996 0 0 0 -0.08203,-0.138672 c -1.908161,-0.192286 -3.539419,0.0854 -5.080078,0.505859 a 0.10000996,0.10000996 0 0 0 -0.002,0 c -0.0131,0.0038 -0.02598,0.0079 -0.03906,0.01172 0.298731,-0.709996 0.554582,-1.436894 0.759766,-2.181641 a 0.10000996,0.10000996 0 0 0 0.002,-0.002 c 0.403329,-1.535675 0.662171,-3.163758 0.445313,-5.064453 a 0.10000996,0.10000996 0 0 0 -0.138672,-0.08008 c -1.75718,0.759515 -3.040041,1.796816 -4.169922,2.912109 -0.530869,0.53687 -1.024579,1.107185 -1.482422,1.705078 -0.0077,-0.03247 -0.0136,-0.06523 -0.02148,-0.09766 a 0.10000996,0.10000996 0 0 0 0,-0.002 c -0.399631,-1.56034 -0.966355,-3.131401 -2.085938,-4.707031 a 0.10000996,0.10000996 0 0 0 -0.08008,-0.04102 z m -0.0039,0.300782 c 1.035636,1.502286 1.590436,2.998054 1.974609,4.498046 0.02381,0.0979 0.04422,0.196696 0.06641,0.294922 a 0.10000996,0.10000996 0 0 0 -0.002,0.01172 c 0.319314,1.418462 0.47699,2.868482 0.453125,4.322266 a 0.10000996,0.10000996 0 0 0 0,0.002 v 0.03711 a 0.10000996,0.10000996 0 0 0 0.04492,0.07617 0.10000996,0.10000996 0 0 0 0.01758,0.0098 0.10000996,0.10000996 0 0 0 0.08789,0 c 0.156745,-0.09221 0.315327,-0.182103 0.474609,-0.269532 0.0092,-0.0051 0.01811,-0.01059 0.02734,-0.01563 0.109264,-0.05973 0.219668,-0.116365 0.330078,-0.173828 1.008527,-0.522544 2.065353,-0.948796 3.154297,-1.277344 a 0.10000996,0.10000996 0 0 0 0.0098,-0.0078 c 0.0762,-0.02294 0.151993,-0.04837 0.228515,-0.07031 1.48063,-0.404071 3.043732,-0.652352 4.847657,-0.496093 -0.738473,1.651846 -1.715148,2.893868 -2.785157,3.99414 -0.306322,0.305695 -0.623928,0.597845 -0.951172,0.88086 -1.218377,-0.03505 -2.41062,0.05379 -3.583984,0.248047 -0.166787,0.02719 -0.334109,0.05597 -0.5,0.08789 -1.330173,0.254943 -2.635623,0.652403 -3.908203,1.208985 -0.181797,0.07951 -0.362517,0.161978 -0.542969,0.248046 a 0.10000996,0.10000996 0 0 0 -0.002,0 c -0.02246,0.01103 -0.04263,0.02202 -0.06445,0.0332 0.0022,-0.02162 0.0038,-0.04265 0.0059,-0.06445 a 0.10000996,0.10000996 0 0 0 0,-0.002 c 0.11755,-1.474471 0.03316,-2.958361 -0.25,-4.410156 -0.272494,-1.41623 -0.720626,-2.79938 -1.375,-4.142578 0.04548,-0.193096 0.09282,-0.387056 0.144532,-0.578125 v -0.002 c 0.42106,-1.488244 1.022849,-2.968395 2.097656,-4.443359 z m 7.783203,0.191406 c 0.179892,1.798027 -0.05358,3.355386 -0.441406,4.832031 -0.217447,0.788799 -0.494733,1.560464 -0.81836,2.310547 -0.836208,0.256131 -1.650327,0.576362 -2.439453,0.951172 -0.02558,0.01203 -0.05065,0.02497 -0.07617,0.03711 -0.128997,0.06197 -0.259084,0.122653 -0.386718,0.1875 -0.12475,0.0629 -0.247703,0.12963 -0.371094,0.195313 -0.02721,0.01456 -0.05489,0.02828 -0.08203,0.04297 -0.163851,0.08825 -0.326925,0.178407 -0.488282,0.271485 0.0018,-0.176782 0.0013,-0.352718 -0.002,-0.529297 -0.02035,-1.239485 -0.160053,-2.475047 -0.427734,-3.685547 0.481009,-0.64056 1.00024,-1.251675 1.564453,-1.822266 1.086217,-1.072193 2.31954,-2.05067 3.96875,-2.791015 z M 37.841797,13.25 c 1.291399,1.172853 2.115208,2.432129 2.77539,3.730469 0.08233,0.167657 0.160463,0.335011 0.236329,0.503906 0.0018,0.004 0.0041,0.0078 0.0059,0.01172 0.07393,0.164941 0.145009,0.331943 0.212891,0.498047 0.0011,0.0027 0.0028,0.0051 0.0039,0.0078 0.06832,0.167439 0.133014,0.335306 0.195312,0.503906 10e-4,0.0027 0.0029,0.0051 0.0039,0.0078 0.0622,0.168617 0.121436,0.338052 0.177734,0.507812 v 0.002 c 4.54e-4,0.0014 0.0015,0.0025 0.002,0.0039 0.05649,0.170551 0.109505,0.341985 0.160156,0.513672 4.06e-4,0.0014 0.0015,0.0025 0.002,0.0039 0.153155,0.519628 0.278944,1.044533 0.38086,1.574219 0.279684,1.433956 0.362199,2.899113 0.246094,4.355468 -0.0076,0.08122 -0.01673,0.163266 -0.02539,0.246094 a 0.10000996,0.10000996 0 0 0 0.144531,0.09961 c 0.07813,-0.03948 0.152413,-0.08074 0.226563,-0.117187 0.713911,-0.34051 1.439265,-0.628003 2.173828,-0.867188 0.183641,-0.0598 0.367923,-0.118165 0.552734,-0.171875 0.554433,-0.161127 1.113641,-0.294229 1.677735,-0.402343 1.327802,-0.255512 2.680577,-0.362177 4.066406,-0.320313 a 0.10000996,0.10000996 0 0 0 0.02148,-0.0078 c 0.176719,0.0056 0.353427,0.01269 0.53125,0.02344 1.536482,0.113628 3.099252,0.39554 4.751953,1.142578 -1.253873,1.313059 -2.594736,2.160166 -3.976562,2.841797 -1.427273,0.680587 -2.895238,1.151413 -4.398438,1.447266 -0.815248,0.161785 -1.640437,0.262316 -2.46875,0.310547 -0.303144,-0.313842 -0.629228,-0.603581 -0.96289,-0.884766 -0.0042,-0.0036 -0.0075,-0.0082 -0.01172,-0.01172 -0.0014,-0.0012 -0.0025,-0.0027 -0.0039,-0.0039 -0.133041,-0.111755 -0.26726,-0.221232 -0.404297,-0.328125 -0.147875,-0.116597 -0.298814,-0.229197 -0.451172,-0.339844 -0.06041,-0.04367 -0.118697,-0.08997 -0.179688,-0.132812 l -0.0039,-0.0039 C 43.331824,27.860272 43.16045,27.731715 42.988281,27.625 a 0.10000996,0.10000996 0 0 0 -0.002,0 l -0.939453,-0.554688 -0.46875,-0.277343 c -0.01297,-0.02661 -0.02829,-0.04867 -0.04883,-0.07031 -0.0046,-0.0049 -0.01455,-0.01075 -0.01953,-0.01563 -0.0016,-0.0018 -0.0021,-0.0041 -0.0039,-0.0059 -0.04355,-0.04169 -0.100288,-0.08448 -0.175781,-0.132813 -0.168156,-0.107651 -0.341358,-0.207573 -0.515625,-0.304687 -0.08467,-0.04764 -0.169901,-0.09341 -0.255859,-0.138672 -0.07004,-0.03638 -0.140068,-0.07272 -0.210938,-0.107422 -0.820756,-0.408557 -1.692632,-0.706557 -2.589844,-0.875 -0.400596,-0.995961 -0.699095,-2.011868 -0.892578,-3.046875 -0.266974,-1.41644 -0.35493,-2.866256 -0.236328,-4.355469 0.135566,-1.45101 0.44278,-2.924524 1.212891,-4.490234 z M 8.7460938,13.902344 H 26.572266 a 0.10000996,0.10000996 0 0 0 0.02539,0.02344 h 1.365235 6.919921 l -2.652343,3.59961 H 11.414063 Z m 2.7363282,3.822265 h 20.601562 c -0.190648,0.259178 -7.523029,10.226106 -8.99414,12.205078 -0.120843,0.162276 -0.240289,0.293648 -0.355469,0.404297 a 0.10000996,0.10000996 0 0 0 -0.0059,0.002 c -0.281812,0.267927 -0.542422,0.394962 -0.779297,0.435547 -0.0019,3.12e-4 -0.004,-3e-4 -0.0059,0 -0.07346,0.01215 -0.143941,0.01643 -0.21289,0.01367 -0.0052,-2.52e-4 -0.01044,3.31e-4 -0.01563,0 -0.06973,-0.0038 -0.137482,-0.01664 -0.203125,-0.0332 -0.0018,-4.8e-4 -0.006,4.9e-4 -0.0078,0 -0.141073,-0.0366 -0.271034,-0.100476 -0.388672,-0.175781 -0.01643,-0.01062 -0.03098,-0.02215 -0.04687,-0.0332 -0.03678,-0.02537 -0.07358,-0.051 -0.107422,-0.07813 h -0.002 C 20.675838,30.236642 20.503906,29.970703 20.503906,29.970703 A 0.10000996,0.10000996 0 0 0 20.5,29.966797 Z m 24.263672,7.460938 c 0.643074,-0.02628 1.285865,0.02788 1.917968,0.142578 0.0039,7.06e-4 0.0078,0.0012 0.01172,0.002 0.148036,0.02705 0.294717,0.05768 0.441406,0.0918 0.0052,0.0012 0.01039,0.0027 0.01563,0.0039 0.0183,0.0043 0.03641,0.0093 0.05469,0.01367 0.236509,0.05689 0.471226,0.124542 0.703125,0.199219 0.07838,0.02542 0.15661,0.05071 0.234375,0.07813 0.09626,0.03369 0.191878,0.06879 0.287109,0.105469 0.116646,0.04524 0.232696,0.09294 0.347657,0.142578 0.114843,0.04928 0.228803,0.100719 0.341796,0.154297 0.139571,0.06652 0.277573,0.134181 0.414063,0.207031 0.05117,0.02721 0.101639,0.05589 0.152344,0.08398 0.186831,0.103833 0.372681,0.210904 0.552734,0.326172 0.0551,0.03528 0.08171,0.05886 0.111328,0.08398 -0.04219,9.67e-4 -0.07934,0.0033 -0.154297,-0.0059 -0.238208,-0.02904 -0.512496,-0.04621 -0.794922,-0.05664 -0.197338,-0.0075 -0.39293,-0.01317 -0.59375,-0.0098 -0.162044,0.0027 -0.322823,0.0088 -0.478515,0.01953 -0.230595,0.01599 -0.441447,0.135967 -0.582031,0.306641 -0.10544,0.128005 -0.17208,0.292145 -0.16211,0.458984 0.0033,0.05561 0.01546,0.110798 0.03711,0.166016 0.220153,0.561588 0.656144,1.255425 0.914062,1.888672 0.07738,0.189994 0.193093,0.431719 0.345703,0.636718 0.15261,0.205001 0.34528,0.383165 0.585938,0.404297 0.722999,0.06349 1.669198,-0.278896 2.46875,-0.318359 0.163023,-0.008 0.326938,-0.0494 0.466797,-0.123047 0.04662,-0.02455 0.09048,-0.05211 0.130859,-0.08398 0.161515,-0.127511 0.260909,-0.332783 0.195312,-0.558594 -0.171884,-0.591698 -0.612703,-1.319164 -1.080078,-1.878906 0.540196,0.339185 1.064651,0.705346 1.5625,1.103515 0.03513,0.0285 0.07062,0.05711 0.105469,0.08594 0.171104,0.139567 0.336367,0.285942 0.5,0.433593 0.206708,0.188871 0.409772,0.381981 0.603516,0.583985 a 0.10000996,0.10000996 0 0 0 0.01172,0.0039 c 0.09339,0.09731 0.185678,0.19616 0.275391,0.296875 0.258202,0.289868 0.63518,0.818288 0.826172,1.15625 0.532205,0.941745 0.915706,1.961559 1.183594,3.015625 0.01155,0.04546 0.02211,0.09113 0.0332,0.136719 0.01706,0.06764 0.03528,0.135325 0.05078,0.203125 0.0011,0.0046 0.0029,0.0091 0.0039,0.01367 v 0.002 a 0.10020601,0.10020601 0 0 0 0.002,0.002 c 0.02015,0.0891 0.04014,0.178049 0.05859,0.267578 v 0.002 c 0.06081,0.28756 0.110242,0.577391 0.154297,0.867188 0.133555,0.922385 0.184224,1.85782 0.160156,2.783203 -6.68e-4,0.02557 0.005,0.06347 0.0059,0.0918 0,0 0,0.002 0,0.002 -2.73e-4,0.0072 0.0022,0.01432 0.002,0.02148 1.03e-4,0.0025 -1.13e-4,0.0053 0,0.0078 0.0098,0.214019 0.0472,0.478428 0.05664,0.720703 0.0056,0.143258 -0.0027,0.274155 -0.02734,0.355469 -0.01233,0.04066 -0.02843,0.06711 -0.04297,0.08203 -0.01409,0.01446 -0.02654,0.02099 -0.05078,0.02344 0.0079,-6.99e-4 -0.0084,-0.001 -0.03711,-0.01953 -0.02876,-0.01849 -0.06835,-0.0498 -0.113281,-0.0918 -0.151703,-0.141807 -0.358192,-0.304 -0.580078,-0.443359 -0.221886,-0.139359 -0.459168,-0.255885 -0.673828,-0.302735 -0.163591,-0.0357 -0.328353,-0.05764 -0.494141,-0.07617 -0.05921,-0.0066 -0.118314,-0.01296 -0.177734,-0.01758 -0.162507,-0.0128 -0.324726,-0.02147 -0.488281,-0.02148 -0.146484,-9e-6 -0.294659,0.0054 -0.441407,0.01367 -0.221564,0.01245 -0.443421,0.03475 -0.664062,0.06055 -0.281824,0.0332 -0.563093,0.07207 -0.839844,0.115234 -0.224793,0.03506 -0.433633,0.159466 -0.570312,0.330078 -0.136681,0.170614 -0.199159,0.403143 -0.09766,0.617188 0.284016,0.598902 0.857297,1.366117 1.167969,2.0625 0.07142,0.160103 0.115485,0.423348 0.166016,0.685547 0.05053,0.262197 0.105253,0.525707 0.246093,0.710937 0.124914,0.164283 0.304861,0.24717 0.498047,0.275391 0.193189,0.02822 0.40292,0.0085 0.623047,-0.02734 0.213739,-0.03485 0.48114,-0.129967 0.736328,-0.191406 0.25519,-0.06144 0.491963,-0.08063 0.619141,-0.01172 0.01854,0.01005 0.0277,0.02321 0.03711,0.03711 0.005,0.009 0.01028,0.01738 0.01367,0.03125 0.0089,0.0363 0.0081,0.09415 -0.0059,0.164063 -0.0137,0.07016 -0.03542,0.149878 -0.07422,0.242187 -0.105535,0.251074 -0.291863,0.557344 -0.470703,0.84961 -8.23e-4,0.0013 -0.0011,0.0026 -0.002,0.0039 -0.01488,0.02453 -0.02861,0.0481 -0.04102,0.06836 -0.194023,0.316907 -0.643133,0.723091 -0.982422,0.828125 -0.107517,0.03328 -0.204189,0.06665 -0.285156,0.117188 -0.08097,0.05054 -0.152126,0.132174 -0.158203,0.236328 -0.0032,0.05452 -9.86e-4,0.107996 0.0039,0.162109 0,0 0,0.002 0,0.002 0.0049,0.05347 0.01192,0.107567 0.02148,0.160156 2.24e-4,0.0013 -2.27e-4,0.0026 0,0.0039 0.01934,0.107442 0.04554,0.211747 0.06445,0.3125 0.01809,0.09762 0.03006,0.189527 0.02734,0.273438 -5.3e-5,0.0024 7.7e-5,0.0054 0,0.0078 -0.0017,0.03994 -0.0067,0.07884 -0.01563,0.115234 -0.0095,0.03882 -0.02351,0.07488 -0.04297,0.109375 a 0.10017276,0.10017276 0 0 0 0,0.002 c -0.001,0.0018 -8.86e-4,0.0041 -0.002,0.0059 l -0.128907,0.214844 c -0.113658,0.191922 -0.209916,0.49119 -0.326172,0.738281 -0.05813,0.123546 -0.119334,0.23184 -0.18164,0.300781 -0.04012,0.04439 -0.07604,0.06619 -0.111328,0.07813 a 0.10000996,0.10000996 0 0 0 -0.0098,-0.002 c -0.03769,0.01079 -0.0513,0.01346 -0.04883,0.01367 -0.0197,-0.0017 -0.0587,-0.0219 -0.109375,-0.07813 -0.05068,-0.05622 -0.108294,-0.142597 -0.167969,-0.244141 -0.11935,-0.203085 -0.250878,-0.468639 -0.402344,-0.710937 -0.2348,-0.375608 -0.791934,-0.729103 -1.201171,-0.855469 -0.126258,-0.03899 -0.253875,-0.06836 -0.382813,-0.09375 -0.02141,-0.0043 -0.04298,-0.0078 -0.06445,-0.01172 -0.0764,-0.01377 -0.15335,-0.02549 -0.230469,-0.03516 -0.338648,-0.04326 -0.683277,-0.04866 -1.029297,-0.03125 -0.224547,0.0111 -0.447917,0.03245 -0.671875,0.05859 -0.316938,0.0375 -0.63261,0.08257 -0.941406,0.130859 -0.224326,0.03508 -0.436669,0.159717 -0.578125,0.328125 -0.141456,0.168408 -0.211484,0.399415 -0.105469,0.611328 0.264052,0.527818 0.772626,1.186877 1.064453,1.791016 0.07674,0.158859 0.127114,0.412682 0.175782,0.669922 0.04867,0.257239 0.0963,0.519031 0.189453,0.71875 0.170804,0.366215 0.492053,0.513577 0.849609,0.539062 0.357558,0.02549 0.762666,-0.05435 1.169922,-0.123047 0.03873,-0.0065 0.07754,-0.0081 0.115234,-0.0059 0.03103,0.0018 0.06064,0.0088 0.08984,0.01563 0.005,0.0012 0.01066,6.38e-4 0.01563,0.002 0,0 0.002,0 0.002,0 0.06798,0.01826 0.128745,0.04856 0.175782,0.08594 0.04746,0.03771 0.07976,0.07763 0.0957,0.11914 0.01595,0.04151 0.01554,0.08462 -0.0039,0.13086 a 0.10000996,0.10000996 0 0 0 0.002,0.0039 c -0.0068,0.01546 -0.01273,0.02966 -0.02539,0.04687 -0.168685,0.2293 -0.426617,0.495117 -0.705078,0.761719 0,0 -0.002,0 -0.002,0 l -0.0039,0.0039 -0.002,0.002 c -0.0019,0.002 -0.0039,0.0039 -0.0059,0.0059 -0.213719,0.204098 -0.437073,0.409817 -0.644531,0.59375 -0.0036,0.0032 -0.0081,0.0066 -0.01172,0.0098 -0.620599,0.514603 -1.298246,0.941828 -1.976563,1.363281 -0.292839,0.08642 -0.654333,0.117788 -0.935546,0.0059 -0.230798,-0.0919 -0.471377,-0.151271 -0.716797,-0.1875 -0.245421,-0.03623 -0.4953,-0.04986 -0.748047,-0.04687 -0.505495,0.006 -1.018735,0.0745 -1.509766,0.138672 -0.173301,0.02265 -0.487936,-0.0096 -0.777344,-0.0078 -0.144701,9.15e-4 -0.283196,0.01047 -0.40625,0.04687 -0.06153,0.0182 -0.121132,0.04462 -0.171875,0.08203 -0.02581,0.01878 -0.04796,0.03985 -0.06836,0.06445 -0.01971,0.02377 -0.03775,0.05026 -0.05078,0.08008 0,0 0,0.002 0,0.002 -0.0264,0.06154 -0.03012,0.12398 -0.01758,0.1875 0.01248,0.0643 0.04076,0.128612 0.07422,0.193359 0.06623,0.128192 0.16543,0.263555 0.269532,0.402344 0.104102,0.138788 0.213813,0.282263 0.304687,0.414062 0,0 0,0.002 0,0.002 0.04503,0.06537 0.08684,0.128374 0.119141,0.185547 0,0 0,0.002 0,0.002 0.03204,0.05689 0.05718,0.107881 0.07031,0.152344 0,0 0,0.002 0,0.002 0.0044,0.01622 0.003,0.02576 -0.0039,0.04102 -0.0062,0.01383 -0.02256,0.03431 -0.04492,0.05469 0,0 -0.002,0.002 -0.002,0.002 -0.02573,0.02198 -0.06045,0.04398 -0.103516,0.06641 -0.04401,0.02292 -0.09642,0.04574 -0.152343,0.06641 a 0.10000996,0.10000996 0 0 0 0,0.002 c -0.01238,0.0046 -0.02237,0.0093 -0.03516,0.01367 -0.243546,0.08406 -0.556376,0.13635 -0.746093,0.152344 -0.179089,0.0151 -0.344634,0.0023 -0.503907,-0.0293 a 0.10000996,0.10000996 0 0 0 -0.002,-0.002 c -0.16362,-0.03278 -0.318296,-0.09173 -0.470703,-0.164063 -0.06815,-0.0327 -0.136207,-0.06803 -0.203125,-0.107422 -0.05016,-0.02919 -0.100569,-0.05928 -0.15039,-0.0918 -0.1046,-0.0689 -0.208919,-0.139657 -0.314454,-0.220704 -0.08151,-0.0626 -0.177402,-0.130935 -0.28125,-0.199218 -0.207696,-0.136567 -0.449022,-0.272996 -0.685546,-0.359375 -0.118263,-0.04319 -0.23536,-0.07352 -0.345704,-0.08594 -0.283411,-0.03188 -0.56842,-0.02579 -0.851562,-0.0059 -0.08069,0.0057 -0.159824,0.01546 -0.240234,0.02344 -0.18814,0.01864 -0.373037,0.03935 -0.558594,0.0625 -0.184548,0.02339 -0.368274,0.04302 -0.548828,0.06055 -0.01618,0.0016 -0.03268,0.0044 -0.04883,0.0059 -0.0091,8.03e-4 -0.01828,0.0012 -0.02734,0.002 -0.09687,0.0085 -0.19178,0.01356 -0.28711,0.01758 -0.05411,0.0021 -0.108548,0.0036 -0.162109,0.0039 -0.07617,5.76e-4 -0.15161,-0.0038 -0.226562,-0.0078 -0.05804,-0.0032 -0.116585,-0.0034 -0.173829,-0.0098 -0.08679,-0.0095 -0.17105,-0.02891 -0.255859,-0.04687 -0.03822,-0.0081 -0.07745,-0.01145 -0.115234,-0.02148 -0.03302,-0.01503 -0.06754,-0.02287 -0.101563,-0.0332 -0.01239,-0.0038 -0.02512,-0.0061 -0.03711,-0.01172 -0.02606,-0.01224 -0.05406,-0.01492 -0.08008,-0.02734 -0.0024,-8.8e-4 -0.0038,-0.0029 -0.0059,-0.0039 0,0 -0.002,0 -0.002,0 -0.351528,-0.129741 -0.791336,-0.348887 -1.072265,-0.507813 -0.272816,-0.15434 -0.513087,-0.337932 -0.730469,-0.542969 -0.002,-0.0019 -0.0039,-0.004 -0.0059,-0.0059 -0.125006,-0.118451 -0.239984,-0.24607 -0.349609,-0.378906 -0.02203,-0.02675 -0.04496,-0.05279 -0.06641,-0.08008 -0.112167,-0.142391 -0.21675,-0.291398 -0.314453,-0.447266 -0.09689,-0.154564 -0.186711,-0.316621 -0.271485,-0.482422 -0.01471,-0.02888 -0.02858,-0.05871 -0.04297,-0.08789 -0.08303,-0.167879 -0.162977,-0.33884 -0.236329,-0.515625 -0.0735,-0.177151 -0.152057,-0.429964 -0.242187,-0.679688 -0.09013,-0.249724 -0.190082,-0.495118 -0.320313,-0.671875 -0.07047,-0.09565 -0.149216,-0.178618 -0.232421,-0.255859 -0.01047,-0.0097 -0.02061,-0.01982 -0.03125,-0.0293 -0.03603,-0.03205 -0.0755,-0.05855 -0.113282,-0.08789 -0.06637,-0.05161 -0.132551,-0.101867 -0.203125,-0.146484 -0.05176,-0.03269 -0.104872,-0.06207 -0.158203,-0.0918 -0.06169,-0.03448 -0.122665,-0.07005 -0.185547,-0.101563 -0.043,-0.02147 -0.0857,-0.042 -0.128906,-0.0625 -0.03727,-0.01776 -0.07413,-0.03741 -0.111328,-0.05469 -0.197747,-0.09185 -0.391238,-0.178891 -0.572266,-0.275391 -0.04047,-0.02153 -0.07831,-0.04571 -0.117187,-0.06836 -0.05939,-0.03462 -0.118953,-0.0693 -0.173828,-0.107422 -0.03742,-0.02599 -0.07046,-0.05589 -0.105469,-0.08398 -0.0532,-0.04275 -0.107759,-0.08421 -0.154297,-0.132813 -0.07106,-0.07377 -0.135951,-0.152996 -0.189453,-0.24414 -0.100046,-0.170436 -0.235105,-0.405722 -0.335938,-0.642579 -0.100832,-0.236856 -0.161932,-0.475006 -0.132812,-0.628906 0.0013,-0.0066 0.0041,-0.0102 0.0059,-0.01563 a 0.10000996,0.10000996 0 0 0 0.0039,-0.002 c 0.0096,-0.02565 0.02557,-0.04125 0.06055,-0.05859 0.0069,-0.0035 0.02089,-0.0045 0.0293,-0.0078 0.03532,-0.01357 0.07755,-0.02599 0.134766,-0.03125 0.01901,-0.0017 0.04366,-0.0013 0.06445,-0.002 0.06003,-0.002 0.121913,-0.0026 0.193359,0.002 0.08284,0.0054 0.168862,0.01316 0.259766,0.02344 0.01214,0.0013 0.02296,0.0025 0.03516,0.0039 0.19849,0.0228 0.405897,0.04915 0.587891,0.05469 0.0049,1.42e-4 0.01079,0.0018 0.01563,0.002 0.05769,0.0013 0.109098,-0.0057 0.162109,-0.0098 0.0322,-0.0024 0.06776,-4.8e-5 0.09766,-0.0059 0,0 0.002,0 0.002,0 0.03825,-0.0076 0.0737,-0.01792 0.107422,-0.0332 0.0013,-5.9e-4 0.0026,-0.0013 0.0039,-0.002 0.03482,-0.01622 0.06677,-0.03732 0.0957,-0.06445 0.09717,-0.09113 0.11576,-0.224463 0.0957,-0.34961 -0.02005,-0.125146 -0.07371,-0.254144 -0.138672,-0.384765 -0.129932,-0.261242 -0.307021,-0.534783 -0.371094,-0.699219 -0.179756,-0.461323 -0.366207,-0.943518 -0.603515,-1.388672 -0.237308,-0.445152 -0.525475,-0.853268 -0.908203,-1.169922 -0.245179,-0.202847 -0.417339,-0.55521 -0.46875,-0.865234 0.05529,-0.959959 0.151725,-1.924517 0.396484,-2.873047 0.05614,-0.200639 0.112453,-0.401803 0.177734,-0.599609 0.0025,-0.0077 0.0034,-0.01939 0.0059,-0.02734 0.06403,-0.206892 0.104072,-0.494142 0.171875,-0.746094 0.03521,-0.130819 0.07833,-0.250195 0.128906,-0.333984 0.04191,-0.06944 0.08541,-0.107189 0.132813,-0.126953 a 0.10000996,0.10000996 0 0 0 0.0059,0.002 c 0.03935,-0.01573 0.0457,-0.02049 0.02344,-0.01563 0.0052,-0.0011 0.02667,3.82e-4 0.07227,0.05273 0.0456,0.05236 0.09993,0.144187 0.152344,0.25586 0.07731,0.164707 0.138838,0.416838 0.203125,0.671875 0.06429,0.255034 0.129591,0.512961 0.236328,0.705078 0.151708,0.27306 0.388032,0.426946 0.660156,0.492187 0.272127,0.06524 0.580144,0.04987 0.90625,0.0039 0.652216,-0.09191 1.384782,-0.307614 2.015625,-0.316406 0.166942,-0.0023 0.427655,0.08366 0.689453,0.158203 0.2618,0.07454 0.529957,0.144033 0.757813,0.05078 0.07417,-0.03035 0.133094,-0.08674 0.164062,-0.154297 0.03097,-0.06756 0.03894,-0.141605 0.03516,-0.21875 -0.0076,-0.15429 -0.06132,-0.328464 -0.128907,-0.511719 -0.139319,-0.37778 -0.379563,-0.980225 -0.541015,-1.349609 -0.246206,-0.56329 -0.555475,-1.13318 -0.958985,-1.589844 -0.403507,-0.456666 -0.904731,-0.800745 -1.529297,-0.894531 -0.233135,-0.03501 -0.569057,0.03069 -0.849609,0.05469 -0.140276,0.012 -0.266435,0.01164 -0.335937,-0.0039 -0.03475,-0.0078 -0.05142,-0.01812 -0.05469,-0.02148 -0.0033,-0.0034 -0.0043,0.0018 -0.002,-0.01758 0.0028,-0.02305 0.01822,-0.06219 0.03516,-0.101562 0.0267,-0.06311 0.06353,-0.132753 0.111328,-0.210938 0.207054,-0.338672 0.508051,-0.888819 0.71875,-1.222656 0.004,-0.0064 0.0097,-0.01722 0.01367,-0.02344 0.03873,-0.06086 0.07832,-0.116866 0.119141,-0.167969 0,0 0.002,0 0.002,0 0.04707,-0.05911 0.09602,-0.107781 0.146484,-0.150391 0.01044,-0.0087 0.02059,-0.01746 0.03125,-0.02539 0.05316,-0.04021 0.108101,-0.07292 0.167969,-0.0918 0.184888,-0.05831 0.316469,-0.08878 0.408203,-0.191407 0.02294,-0.02565 0.04143,-0.05512 0.05469,-0.08789 0.01326,-0.03277 0.02127,-0.06884 0.02539,-0.105469 0.0082,-0.07326 0.0021,-0.154108 -0.01172,-0.255859 -0.01171,-0.0863 -0.0085,-0.17082 0,-0.25586 0.002,-0.01814 0.003,-0.03657 0.0059,-0.05469 0.0028,-0.01894 0.01002,-0.03775 0.01367,-0.05664 0.01912,-0.0942 0.04383,-0.188534 0.08203,-0.283203 5.57e-4,-0.0014 0.0014,-0.0025 0.002,-0.0039 0.06423,-0.15851 0.148525,-0.316092 0.251953,-0.47461 0.115081,-0.176374 0.235734,-0.420734 0.371094,-0.642578 0.13536,-0.221842 0.288926,-0.417123 0.429688,-0.490234 0.0064,-0.0033 0.0099,-0.0014 0.01563,-0.0039 a 0.10000996,0.10000996 0 0 0 0.0059,0.002 c 0.05017,-0.01789 0.08261,-0.01115 0.132812,0.02539 0.02304,0.01795 0.04641,0.03933 0.07227,0.07227 0.03106,0.03852 0.06261,0.08691 0.09375,0.146484 0.08195,0.156757 0.141602,0.411272 0.203125,0.667969 0.06152,0.2567 0.122792,0.515875 0.240234,0.707031 0.157276,0.255991 0.397206,0.395182 0.667969,0.451172 0.270765,0.05599 0.574563,0.03683 0.896485,-0.01172 0.64384,-0.09709 1.36292,-0.309872 1.980468,-0.31836 0.167687,-0.0023 0.428673,0.08224 0.691407,0.154297 0.262731,0.07206 0.532252,0.137792 0.759765,0.04492 0.09732,-0.03972 0.165266,-0.12389 0.189453,-0.21875 0.02419,-0.09486 0.01609,-0.198687 -0.0078,-0.310547 -0.08936,-0.417991 -0.391588,-1.000179 -0.541016,-1.361328 -0.377655,-0.912751 -0.825747,-1.933709 -1.648437,-2.447266 -0.117528,-0.07337 -0.243278,-0.136653 -0.376953,-0.1875 -0.08753,-0.03329 -0.153636,-0.06671 -0.195313,-0.09766 -0.03452,-0.02563 -0.04126,-0.04377 -0.04687,-0.05664 0.09792,-0.06719 0.164005,-0.167466 0.263672,-0.232421 1.389916,-0.843238 2.870447,-1.546362 4.429687,-1.986329 0.002,-5.52e-4 0.0039,-0.0014 0.0059,-0.002 0.226015,-0.06367 0.454336,-0.121599 0.683594,-0.173828 0.193707,-0.04413 0.451657,-0.09805 0.707031,-0.148437 0.256443,-0.05041 0.512455,-0.09734 0.707031,-0.125 0.273963,-0.03895 0.547683,-0.06495 0.822266,-0.07617 z m -2.072266,1.646484 c -0.720723,0.0092 -1.446913,0.1244 -2.150391,0.246094 -0.220023,0.03806 -0.383866,0.14996 -0.447265,0.314453 -0.0634,0.164493 -0.02028,0.358383 0.105469,0.541016 0.604372,0.877787 1.047679,1.867094 1.416015,2.876953 0.07595,0.20822 0.22352,0.409116 0.408203,0.564453 0.184686,0.155337 0.409121,0.265538 0.640625,0.267578 1.070156,0.0094 2.389404,-0.329101 3.535157,-0.203125 0.216937,0.02385 0.40456,-0.01714 0.519531,-0.142578 0.114971,-0.125436 0.13045,-0.317881 0.05859,-0.527344 -0.370317,-1.079534 -0.781902,-2.200071 -1.53711,-3.070312 -0.283931,-0.327183 -0.838548,-0.655806 -1.261719,-0.748047 -0.422516,-0.0921 -0.854619,-0.124658 -1.287109,-0.119141 z m 6.119141,0.115235 c 0,0 0.002,0 0.002,0 0.183641,-0.003 0.367327,0.0033 0.548828,0.0098 0.288172,0.01024 0.570447,0.02738 0.810547,0.05664 0.10308,0.01256 0.184002,0.01643 0.251953,0.0098 0.0062,-6.24e-4 0.01152,-0.0031 0.01758,-0.0039 0.0026,-4e-4 0.0072,4.42e-4 0.0098,0 0.004,-6.82e-4 0.0078,-0.0029 0.01172,-0.0039 0.01902,-0.0034 0.03844,-0.0059 0.05664,-0.01367 0.0059,-0.0025 0.01156,-0.0084 0.01758,-0.01172 l 0.425781,0.251953 0.291016,0.171875 c 7.55e-4,0.02135 0.0068,0.03977 0.01172,0.05273 0.0099,0.02593 0.02241,0.04725 0.03906,0.07227 0.0333,0.05003 0.08212,0.110294 0.148438,0.1875 0.46863,0.545607 0.919269,1.306034 1.083984,1.873047 0.0434,0.149411 -0.009,0.25454 -0.126953,0.347657 -0.117949,0.09312 -0.3063,0.155178 -0.486328,0.164062 -0.846489,0.04178 -1.799743,0.374707 -2.441406,0.318359 -0.147652,-0.01297 -0.304869,-0.140807 -0.441407,-0.324218 -0.136537,-0.183412 -0.249243,-0.412511 -0.322265,-0.591797 -0.26802,-0.658048 -0.702515,-1.359 -0.910156,-1.888672 -0.0563,-0.143615 -0.01426,-0.295073 0.0918,-0.423828 0.106058,-0.128756 0.275457,-0.222729 0.44336,-0.234375 0.151589,-0.01049 0.307685,-0.01686 0.466797,-0.01953 z m -6.115235,0.08398 c 0.420649,-0.0054 0.835715,0.02706 1.240235,0.115234 0.356435,0.07769 0.912863,0.409588 1.152343,0.685547 0.722993,0.833117 1.132741,1.927592 1.501954,3.003906 0.05776,0.168367 0.03506,0.266608 -0.01953,0.326172 -0.05459,0.05956 -0.167938,0.09787 -0.347656,0.07813 -0.150017,-0.01649 -0.301764,-0.02606 -0.455078,-0.0293 -1.073198,-0.02266 -2.206426,0.2403 -3.103516,0.232422 -0.167164,-0.0015 -0.352781,-0.08702 -0.511718,-0.220703 -0.158939,-0.133682 -0.288572,-0.315077 -0.34961,-0.482422 -0.371639,-1.018915 -0.821244,-2.022038 -1.439453,-2.919922 -0.100867,-0.146496 -0.115476,-0.268696 -0.08203,-0.355468 0.03344,-0.08677 0.121019,-0.161322 0.294922,-0.191407 0.70143,-0.121338 1.417971,-0.233212 2.11914,-0.242187 z m -5.705078,1.035156 c 0.0227,0.02957 0.0506,0.05674 0.08203,0.08008 0.06437,0.0478 0.145749,0.08757 0.244141,0.125 0.967421,0.367981 1.482304,1.486601 1.912109,2.525391 0.156169,0.377443 0.451832,0.963798 0.529297,1.326172 0.02031,0.09501 0.02171,0.169832 0.0098,0.216797 -0.01197,0.04696 -0.02587,0.0678 -0.07031,0.08594 -0.136088,0.05555 -0.375842,0.01525 -0.630859,-0.05469 -0.255016,-0.06994 -0.520262,-0.163335 -0.75,-0.160157 -0.66011,0.0091 -1.383419,0.224498 -2.005859,0.31836 -0.311221,0.04693 -0.596777,0.06345 -0.828125,0.01563 -0.231348,-0.04784 -0.406806,-0.152415 -0.535157,-0.361328 -0.08986,-0.146261 -0.157606,-0.393316 -0.21875,-0.648438 -0.06114,-0.25512 -0.117813,-0.518028 -0.220703,-0.714844 -0.03226,-0.06171 -0.06666,-0.117841 -0.103515,-0.166015 -0.03625,-0.04855 -0.07674,-0.08777 -0.121094,-0.121094 -0.0065,-0.0049 -0.01089,-0.01307 -0.01758,-0.01758 -0.01091,-0.0073 -0.02346,-0.01158 -0.03516,-0.01758 0.776845,-0.939851 1.745654,-1.715704 2.759765,-2.431641 z m -5.27539,2.56836 v 3.318359 0.002 c -0.216126,0.345422 -0.509526,0.872255 -0.707032,1.195313 -0.05222,0.08543 -0.09421,0.166399 -0.126953,0.246093 0,0 0,0.002 0,0.002 l -0.791015,1.332032 c -0.0268,0.04526 -0.05,0.09129 -0.07617,0.136718 v -6.126953 c 0.06131,0.03982 0.126627,0.07621 0.195312,0.109375 0.266989,0.128922 0.593223,0.192965 0.947266,0.08789 0.181374,-0.05383 0.368021,-0.152183 0.558594,-0.302734 z m 20.318359,1.728515 c -0.719745,0.0097 -1.446109,0.123614 -2.146484,0.244141 -0.220084,0.03787 -0.383935,0.149943 -0.447266,0.314453 -0.06333,0.16451 -0.02006,0.358281 0.105469,0.541016 0.603471,0.878493 1.043186,1.866373 1.410156,2.876953 0.0757,0.208468 0.223391,0.411503 0.408203,0.566406 0.0462,0.03872 0.09389,0.0754 0.144531,0.107422 0.152263,0.09656 0.32203,0.156899 0.496094,0.158203 1.069469,0.008 2.388042,-0.333472 3.533203,-0.208984 0.05419,0.0059 0.106381,0.0082 0.15625,0.0059 0.05082,-0.0024 0.09766,-0.0098 0.142578,-0.02148 0.08839,-0.02249 0.163122,-0.06256 0.220703,-0.125 0.115167,-0.124888 0.130544,-0.317964 0.05859,-0.527344 -0.370342,-1.077793 -0.782634,-2.197751 -1.537109,-3.066406 -0.284009,-0.326989 -0.838401,-0.655957 -1.261719,-0.748047 -0.42014,-0.0914 -0.851288,-0.123039 -1.283203,-0.117188 z m 0.0039,0.199219 c 0.420239,-0.0057 0.834455,0.02586 1.236328,0.113281 0.356402,0.07753 0.912683,0.409617 1.152344,0.685547 0.722229,0.831529 1.132728,1.925459 1.501953,3 0.05786,0.168382 0.0349,0.265189 -0.01953,0.324219 -0.05443,0.05903 -0.167703,0.09768 -0.347656,0.07813 -0.149967,-0.0163 -0.301824,-0.02434 -0.455078,-0.02734 -1.072784,-0.02105 -2.205237,0.243006 -3.101563,0.236328 -0.167254,-0.0013 -0.352772,-0.08748 -0.511719,-0.220703 -0.158939,-0.13322 -0.288861,-0.311225 -0.349609,-0.478516 -0.370175,-1.019404 -0.816162,-2.025013 -1.433594,-2.923828 -0.100732,-0.146637 -0.115441,-0.268686 -0.08203,-0.355468 0.03341,-0.08678 0.121019,-0.16148 0.294922,-0.191407 0.698203,-0.120153 1.414728,-0.230764 2.115234,-0.240234 z m -19.390625,0.246094 c 7.86e-4,0.05021 0.0028,0.101211 0.0098,0.152343 0.01277,0.09415 0.01676,0.162218 0.01172,0.207032 -0.005,0.04481 -0.01524,0.06412 -0.03125,0.08203 -0.03202,0.03583 -0.130671,0.07424 -0.316407,0.132812 -0.0071,0.0022 -0.01253,0.0073 -0.01953,0.0098 z m 12.447266,0.615234 c -0.720233,0.0092 -1.445475,0.124453 -2.148438,0.246094 -0.220018,0.03807 -0.383863,0.149962 -0.447265,0.314453 -0.0634,0.164491 -0.02029,0.358387 0.105468,0.541016 0.604488,0.877866 1.045669,1.866892 1.414063,2.876953 0.07596,0.208272 0.223478,0.409595 0.408203,0.564453 0.184725,0.154857 0.409265,0.263641 0.640625,0.265625 1.069789,0.0092 2.389798,-0.329216 3.535156,-0.203125 0.216791,0.02387 0.404395,-0.01565 0.519532,-0.140625 0.115136,-0.124973 0.130452,-0.317965 0.05859,-0.527344 C 39.793541,36.287334 39.375701,35.153549 38.625,34.289062 38.34073,33.961708 37.784221,33.635013 37.361328,33.542969 36.939156,33.45108 36.508399,33.418282 36.076172,33.423828 Z m 0.0039,0.199219 c 0.420306,-0.0054 0.833922,0.02722 1.238281,0.115234 0.356771,0.07765 0.915009,0.408037 1.154297,0.683594 0.717912,0.826722 1.134548,1.935273 1.501953,3.005859 0.05778,0.168362 0.03491,0.265132 -0.01953,0.324219 -0.05444,0.05909 -0.167795,0.09792 -0.347656,0.07813 -0.149972,-0.01651 -0.30178,-0.02605 -0.455078,-0.0293 -1.073088,-0.02276 -2.206724,0.240128 -3.103516,0.232422 -0.167315,-0.0014 -0.352819,-0.08749 -0.511719,-0.220703 -0.158898,-0.133208 -0.288593,-0.313174 -0.349609,-0.480469 -0.371616,-1.018895 -0.819064,-2.021796 -1.4375,-2.919922 -0.100874,-0.146491 -0.115478,-0.268697 -0.08203,-0.355468 0.03345,-0.08677 0.121019,-0.161312 0.294922,-0.191407 0.700946,-0.121292 1.416533,-0.233213 2.117187,-0.242187 z m -6.9375,0.863281 c -0.719133,0.0093 -1.442321,0.122573 -2.144531,0.244141 -0.220138,0.03811 -0.383391,0.149702 -0.447266,0.314453 -0.06387,0.164751 -0.02225,0.360109 0.103516,0.542969 0.603719,0.877791 1.045092,1.865037 1.412109,2.875 0.07574,0.20843 0.223407,0.411499 0.408203,0.566406 0.184799,0.154907 0.409206,0.263897 0.640625,0.265625 1.069628,0.008 2.387985,-0.333574 3.533203,-0.208985 0.107648,0.01171 0.208908,0.0084 0.296875,-0.01367 0.0442,-0.01125 0.08588,-0.02795 0.123047,-0.04883 0.03717,-0.02088 0.07082,-0.0469 0.09961,-0.07813 0.02879,-0.03122 0.05185,-0.06653 0.06836,-0.105468 0.04953,-0.116804 0.04418,-0.264837 -0.0098,-0.421875 -0.370223,-1.0779 -0.782326,-2.19795 -1.537109,-3.066407 -0.284083,-0.326866 -0.838457,-0.655877 -1.261719,-0.748046 -0.21097,-0.04594 -0.424052,-0.07719 -0.638672,-0.0957 -0.214618,-0.01851 -0.43078,-0.02428 -0.646484,-0.02148 z m 0.0039,0.199219 c 0.420023,-0.0054 0.834811,0.02542 1.238282,0.113281 0.356376,0.0776 0.912573,0.409664 1.152343,0.685547 0.722486,0.83129 1.132846,1.925348 1.501953,3 0.05784,0.168392 0.0349,0.265188 -0.01953,0.324219 -0.05443,0.05903 -0.167708,0.0977 -0.347656,0.07813 -0.149976,-0.01632 -0.301822,-0.02433 -0.455078,-0.02734 -1.072792,-0.0211 -2.205102,0.243006 -3.101563,0.236328 -0.167247,-0.0012 -0.352783,-0.08747 -0.511718,-0.220703 -0.158938,-0.133229 -0.288815,-0.311221 -0.34961,-0.478516 -0.37029,-1.018967 -0.817928,-2.023876 -1.435547,-2.921875 -0.100678,-0.146381 -0.115937,-0.269972 -0.08203,-0.357422 0.03391,-0.08745 0.123095,-0.161319 0.296875,-0.191406 0.699893,-0.121166 1.413368,-0.231159 2.113281,-0.240234 z m -7.253906,1.052734 c 0.0404,0.0335 0.08752,0.05344 0.136719,0.06445 0.113767,0.02546 0.247361,0.02041 0.394531,0.0078 0.29434,-0.02517 0.642031,-0.07882 0.802734,-0.05469 0.427073,0.06413 0.791943,0.25366 1.109375,0.527344 0,0 0.002,0 0.002,0 0.105432,0.09099 0.205559,0.193015 0.300781,0.300781 0.09553,0.108118 0.185827,0.224303 0.271484,0.345703 0.171314,0.2428 0.322838,0.508459 0.458985,0.78125 0.06807,0.136395 0.132994,0.274002 0.193359,0.41211 0.158679,0.363041 0.399792,0.96554 0.537109,1.33789 0.06482,0.175762 0.111633,0.338028 0.117188,0.451172 0.0028,0.05657 -0.0054,0.09842 -0.01758,0.125 -0.01218,0.02658 -0.02468,0.04161 -0.05664,0.05469 -0.135009,0.05525 -0.374758,0.01377 -0.628906,-0.05859 -0.254148,-0.07236 -0.517432,-0.169205 -0.748047,-0.166016 -0.336593,0.0047 -0.688191,0.06206 -1.035156,0.128907 -0.346966,0.06684 -0.689301,0.143166 -1.003907,0.1875 -0.314603,0.04433 -0.601131,0.05536 -0.832031,0 -0.230899,-0.05536 -0.405643,-0.16845 -0.53125,-0.394532 -0.08582,-0.154459 -0.154864,-0.402803 -0.21875,-0.65625 -0.06389,-0.253444 -0.124348,-0.512016 -0.216797,-0.708984 -0.05669,-0.120772 -0.114356,-0.223526 -0.18164,-0.300781 -0.03406,-0.03911 -0.07567,-0.0732 -0.121094,-0.0957 0.112895,-0.243324 0.232839,-0.485275 0.359375,-0.72461 0.0855,-0.159177 0.168742,-0.317 0.259766,-0.470703 z m 23.646484,3.417969 c 0.03519,-4.1e-5 0.07037,0.0014 0.105469,0.002 0.126953,0.002 0.253472,0.0075 0.378906,0.01758 0.04898,0.0039 0.09776,0.0084 0.146485,0.01367 0.164217,0.0179 0.327267,0.04103 0.488281,0.07617 0.350183,0.07643 0.879599,0.433055 1.160156,0.695312 0.0491,0.0459 0.09379,0.08512 0.140625,0.115235 0.02444,0.01572 0.05017,0.02941 0.07813,0.03906 -0.154942,1.15798 -0.474383,2.277395 -0.904297,3.345703 -0.01675,-0.01489 -0.03407,-0.02984 -0.05469,-0.04102 -0.216932,-0.117542 -0.490634,-0.07262 -0.759766,-0.0078 -0.269129,0.0648 -0.539903,0.158021 -0.720703,0.1875 -0.211554,0.03449 -0.406721,0.05234 -0.564453,0.0293 -0.157731,-0.02304 -0.274731,-0.08019 -0.365234,-0.199219 -0.09741,-0.128107 -0.161411,-0.371914 -0.210938,-0.628906 -0.04953,-0.256989 -0.08686,-0.524818 -0.177734,-0.728515 -0.325453,-0.729516 -0.904793,-1.503208 -1.171875,-2.066407 -0.06487,-0.13679 -0.02882,-0.277632 0.07422,-0.40625 0.103037,-0.128615 0.275104,-0.229311 0.445312,-0.255859 0.287856,-0.0449 0.578981,-0.08546 0.869141,-0.119141 0.216793,-0.02495 0.43462,-0.04518 0.65039,-0.05664 0.04131,-0.0022 0.08181,-0.0023 0.123047,-0.0039 0.09042,-0.0034 0.179585,-0.0077 0.269531,-0.0078 z m -7.060546,0.859375 c -0.720445,0.0093 -1.44522,0.124307 -2.148438,0.246094 -0.220014,0.0381 -0.383843,0.149959 -0.447266,0.314453 -0.06342,0.164494 -0.02036,0.35842 0.105469,0.541015 0.604963,0.877894 1.045783,1.868341 1.414063,2.878907 0.07591,0.20831 0.223463,0.409597 0.408203,0.564453 0.18474,0.154856 0.409266,0.263647 0.640625,0.265625 1.069926,0.0092 2.389432,-0.328687 3.535156,-0.203125 0.216951,0.02378 0.404088,-0.01734 0.519531,-0.142578 0.115444,-0.12524 0.132367,-0.317763 0.06055,-0.527344 -0.27611,-0.805703 -0.579586,-1.645091 -1.03125,-2.378906 -0.150554,-0.244606 -0.31806,-0.477316 -0.505859,-0.69336 -0.284549,-0.327341 -0.842842,-0.653963 -1.265625,-0.746093 -0.422297,-0.09202 -0.852785,-0.124758 -1.285156,-0.119141 z m 0.0039,0.199219 c 0.420452,-0.0055 0.833826,0.0271 1.238281,0.115234 0.35683,0.07776 0.916938,0.40829 1.15625,0.683594 0.718338,0.826372 1.134995,1.935057 1.501953,3.005859 0.05765,0.168216 0.03553,0.26644 -0.01953,0.326172 -0.05506,0.05973 -0.169888,0.09781 -0.349609,0.07813 -0.15,-0.01644 -0.301772,-0.02608 -0.455079,-0.0293 -1.073153,-0.02248 -2.206535,0.240129 -3.103515,0.232422 -0.167316,-0.0014 -0.352809,-0.0875 -0.511719,-0.220703 -0.158909,-0.133204 -0.288643,-0.313176 -0.349609,-0.480469 -0.371474,-1.019332 -0.818482,-2.023583 -1.4375,-2.921875 -0.100916,-0.146444 -0.115489,-0.268693 -0.08203,-0.355469 0.03346,-0.08678 0.121025,-0.161289 0.294922,-0.191406 0.701159,-0.121429 1.416254,-0.233114 2.117188,-0.242187 z m -6.939453,0.863281 c -0.720127,0.0092 -1.445239,0.122716 -2.148438,0.244141 -0.220055,0.038 -0.383857,0.149935 -0.447265,0.314453 -0.06341,0.164517 -0.02034,0.358406 0.105468,0.541015 0.605049,0.878208 1.04618,1.867997 1.414063,2.878907 0.07583,0.20837 0.223435,0.40958 0.408203,0.564453 0.184768,0.154872 0.409244,0.263736 0.640625,0.265625 1.069954,0.0088 2.391151,-0.329164 3.537109,-0.203125 0.107668,0.01185 0.208911,0.0084 0.296875,-0.01367 0.0442,-0.01126 0.08588,-0.02792 0.123047,-0.04883 0.03717,-0.0209 0.07082,-0.04688 0.09961,-0.07813 0.115152,-0.12497 0.130521,-0.317978 0.05859,-0.527344 -0.368917,-1.073884 -0.785982,-2.209852 -1.537109,-3.074219 -0.284516,-0.327407 -0.842861,-0.653947 -1.265625,-0.746094 -0.211251,-0.04604 -0.424187,-0.07723 -0.638672,-0.0957 -0.214485,-0.01848 -0.430519,-0.02425 -0.646484,-0.02148 z m 0.0039,0.199219 c 0.420669,-0.0054 0.83426,0.02522 1.238281,0.113281 0.356842,0.07778 0.917001,0.408276 1.15625,0.683594 0.718142,0.826406 1.134142,1.937148 1.501953,3.007812 0.05783,0.168331 0.03492,0.265127 -0.01953,0.324219 -0.05445,0.05909 -0.167793,0.0979 -0.347656,0.07813 -0.150038,-0.0165 -0.301699,-0.02604 -0.455078,-0.0293 -1.07366,-0.0228 -2.208419,0.239786 -3.105469,0.232422 -0.167296,-0.0014 -0.352795,-0.08749 -0.511719,-0.220703 -0.158924,-0.13321 -0.28873,-0.313177 -0.349609,-0.480469 -0.371116,-1.019794 -0.818456,-2.023349 -1.4375,-2.921875 -0.1009,-0.146453 -0.115486,-0.268672 -0.08203,-0.355469 0.03345,-0.0868 0.12103,-0.161381 0.294921,-0.191406 0.700925,-0.121031 1.416319,-0.231258 2.117188,-0.240234 z M 19.322266,41.6875 v 0.002 c -0.02632,0.177367 -0.04891,0.354918 -0.06836,0.533203 -0.005,0.0462 -0.0092,0.09248 -0.01367,0.138672 -2.5e-4,0.0026 2.5e-4,0.0052 0,0.0078 -0.01271,0.129081 -0.02996,0.257304 -0.03906,0.386718 -0.002,0.02809 0.0013,0.05591 0.002,0.08398 -0.02565,0.420265 -0.03266,0.839746 -0.01953,1.257812 h -5.6875 c 0.07528,-0.393216 0.336297,-0.750582 0.751953,-0.75 a 0.10000996,0.10000996 0 0 0 0.01367,0 c 0,0 3.062902,-0.462684 5.060547,-1.660156 z m 5.289062,0.451172 c -0.719246,0.009 -1.444231,0.122679 -2.146484,0.24414 -0.220173,0.03808 -0.384016,0.151562 -0.447266,0.316407 -0.06325,0.164845 -0.02013,0.358229 0.105469,0.541015 0.603491,0.878277 1.042793,1.864719 1.410156,2.875 0.07578,0.208402 0.223416,0.411485 0.408203,0.566407 0.184788,0.154919 0.409186,0.263945 0.640625,0.265625 1.06929,0.0078 2.38827,-0.332287 3.533203,-0.207032 0.216764,0.02372 0.404392,-0.0157 0.519532,-0.140625 0.115139,-0.124924 0.130426,-0.317939 0.05859,-0.527343 -0.369841,-1.078211 -0.780392,-2.199387 -1.535156,-3.06836 -0.284292,-0.327336 -0.840833,-0.653966 -1.263672,-0.746094 -0.421656,-0.09187 -0.851522,-0.124572 -1.283203,-0.11914 z m 0.0039,0.199219 c 0.41981,-0.0053 0.832503,0.02725 1.236328,0.115234 0.356787,0.07774 0.91495,0.408027 1.154297,0.683594 0.722367,0.831669 1.131222,1.926842 1.5,3.001953 0.05777,0.168425 0.03489,0.265173 -0.01953,0.324219 -0.05442,0.05904 -0.167743,0.09781 -0.347656,0.07813 -0.149932,-0.0164 -0.301843,-0.02618 -0.455078,-0.0293 -1.072649,-0.02184 -2.205216,0.242835 -3.101563,0.236328 -0.167234,-0.0012 -0.352789,-0.08746 -0.511719,-0.220703 -0.158927,-0.133242 -0.288775,-0.311216 -0.349609,-0.478516 -0.370556,-1.019064 -0.81616,-2.023309 -1.433594,-2.921875 -0.100701,-0.146554 -0.115547,-0.270073 -0.08203,-0.357422 0.03352,-0.08735 0.121166,-0.161355 0.294922,-0.191406 0.699972,-0.121069 1.415336,-0.231456 2.115234,-0.240234 z m -5.185547,1.154296 c 0.112092,0.172892 0.248811,0.329935 0.390625,0.447266 0.71026,0.587637 1.093644,1.557903 1.453125,2.480469 0.08072,0.207153 0.259362,0.468608 0.38086,0.71289 0.06075,0.122143 0.104885,0.239162 0.11914,0.328125 0.0071,0.04448 0.0077,0.07962 0.002,0.107422 -0.0057,0.02781 -0.01778,0.04829 -0.03711,0.06641 -0.01819,0.01707 -0.05888,0.03211 -0.115234,0.04297 -0.03773,0.0073 -0.09148,0.0077 -0.142578,0.0098 -0.02476,0.001 -0.04293,0.0064 -0.07031,0.0059 -0.0017,-3.7e-5 -0.0042,4.3e-5 -0.0059,0 -0.121558,-0.0031 -0.271631,-0.02219 -0.417969,-0.03906 -0.05609,-0.0065 -0.103459,-0.0092 -0.160156,-0.01563 -0.01194,-0.0014 -0.02323,-0.0026 -0.03516,-0.0039 -0.09228,-0.01043 -0.183093,-0.01946 -0.271485,-0.02539 -0.08142,-0.0055 -0.156459,-0.0033 -0.230469,0 -0.01556,7.4e-4 -0.03371,-0.0012 -0.04883,0 -0.0028,2.25e-4 -0.0051,0.0017 -0.0078,0.002 -0.01171,0.001 -0.02569,-0.0014 -0.03711,0 -0.02449,0.0029 -0.04703,0.0089 -0.07031,0.01367 -0.0046,9.73e-4 -0.0091,0.0028 -0.01367,0.0039 -0.03582,0.0082 -0.06931,0.02048 -0.101562,0.03516 -0.0024,0.0011 -0.0054,8.09e-4 -0.0078,0.002 l -0.002,0.002 c -0.424705,-1.342635 -0.595634,-2.749786 -0.570313,-4.175782 z m 26.582032,2.244141 -0.689453,1.166016 c -0.0055,-0.04185 -0.01186,-0.08411 -0.01953,-0.125 -3.87e-4,-0.0021 -0.0016,-0.0038 -0.002,-0.0059 -0.04021,-0.212407 -0.09574,-0.417802 -0.08594,-0.585937 0.0017,-0.02837 0.01334,-0.04621 0.06445,-0.07813 0.05111,-0.03191 0.135761,-0.06397 0.238281,-0.0957 0.166693,-0.05161 0.334568,-0.155239 0.494141,-0.275391 z m -4.861328,1.064453 c 0.179745,0.0034 0.356039,0.0188 0.53125,0.04102 0.05559,0.007 0.110985,0.01426 0.166015,0.02344 0.05073,0.0085 0.102142,0.0169 0.152344,0.02734 0.109738,0.0228 0.219257,0.04902 0.326172,0.08203 0.351842,0.108643 0.907214,0.474258 1.091797,0.769532 0.143767,0.22998 0.272856,0.49334 0.398437,0.707031 0.06279,0.106845 0.124297,0.200943 0.191406,0.27539 0.04783,0.05306 0.104049,0.09175 0.166016,0.117188 l -0.6875,1.160156 c -0.30151,0.509129 -0.639405,0.982336 -0.994141,1.435547 -0.02573,-0.04925 -0.05822,-0.09453 -0.09961,-0.132812 -0.01075,-0.0099 -0.02551,-0.01616 -0.03711,-0.02539 -9.96e-4,-7.93e-4 -9.51e-4,-0.0031 -0.002,-0.0039 -0.0054,-0.0043 -0.01196,-0.0076 -0.01758,-0.01172 -0.02881,-0.02109 -0.05893,-0.04014 -0.0918,-0.05664 -0.01387,-0.0071 -0.02847,-0.01336 -0.04297,-0.01953 -0.03071,-0.01289 -0.06072,-0.02651 -0.09375,-0.03516 -0.02132,-0.0057 -0.04429,-0.006 -0.06641,-0.0098 -0.02871,-0.0048 -0.05626,-0.01229 -0.08594,-0.01367 -0.05232,-0.0026 -0.106159,6.57e-4 -0.160156,0.0098 -0.205082,0.0346 -0.406225,0.0698 -0.595703,0.09375 -0.09474,0.01198 -0.187511,0.02068 -0.275391,0.02539 -0.08788,0.0047 -0.17095,0.0056 -0.25,0 -0.316198,-0.02254 -0.54263,-0.123547 -0.683594,-0.425782 -0.07459,-0.159921 -0.123141,-0.412337 -0.171875,-0.669922 -0.04873,-0.257582 -0.09697,-0.519206 -0.193359,-0.71875 -0.153114,-0.316973 -0.357781,-0.641556 -0.554688,-0.949218 -0.196905,-0.307664 -0.386053,-0.598414 -0.509765,-0.845703 -0.0656,-0.131123 -0.02927,-0.266679 0.07813,-0.394532 0.107391,-0.12785 0.286384,-0.229176 0.457031,-0.255859 0.295186,-0.04616 0.593903,-0.08875 0.892578,-0.125 0.243563,-0.02939 0.487036,-0.05502 0.728516,-0.06641 0.145226,-0.0068 0.290272,-0.01055 0.433594,-0.0078 z m -6.945313,0.861328 c -0.694312,-0.01116 -1.403221,0.09464 -2.082031,0.201172 -0.224437,0.03522 -0.420351,0.158717 -0.542969,0.330078 -0.122618,0.171364 -0.168737,0.399353 -0.07813,0.615235 0.357976,0.852818 1.148646,2.01204 1.507813,3.052734 0.144226,0.417909 0.549764,0.712551 0.996093,0.638672 1.140317,-0.188753 2.303231,-0.296457 3.44336,-0.179688 0.220816,0.02262 0.411048,-0.035 0.52539,-0.169921 0.114343,-0.134922 0.134923,-0.333511 0.0625,-0.544922 -0.349037,-1.018897 -0.747081,-2.053214 -1.410156,-2.914063 -0.26142,-0.339392 -0.777723,-0.730488 -1.195312,-0.855469 -0.398148,-0.119162 -0.810155,-0.167131 -1.226563,-0.173828 z m -0.0039,0.199219 c 0.403067,0.0065 0.795821,0.05347 1.171875,0.166016 0.345622,0.103442 0.867677,0.491653 1.09375,0.785156 0.639377,0.830083 1.035525,1.845587 1.382812,2.859375 0.02853,0.0833 0.03762,0.153332 0.03125,0.210937 -0.0064,0.05761 -0.02818,0.102786 -0.05859,0.138672 -0.06083,0.07177 -0.176759,0.117713 -0.353516,0.09961 -1.166097,-0.119431 -2.344263,-0.01065 -3.494141,0.179687 -0.342357,0.05667 -0.661174,-0.169254 -0.777343,-0.505859 -0.373519,-1.08228 -1.169801,-2.249891 -1.511719,-3.064453 -0.06287,-0.149768 -0.03284,-0.294873 0.05664,-0.419922 0.08948,-0.125049 0.241606,-0.221289 0.41211,-0.248047 0.677926,-0.106393 1.375397,-0.211968 2.046875,-0.201172 z m -6.931641,0.863281 c -0.694324,-0.01125 -1.403281,0.09494 -2.082031,0.201172 -0.224316,0.03511 -0.420299,0.159166 -0.542969,0.330078 -0.122669,0.170915 -0.168645,0.397447 -0.07813,0.613282 0.3578,0.853077 1.148405,2.013722 1.507813,3.054687 0.144273,0.417866 0.549727,0.712927 0.996093,0.638672 1.140173,-0.189672 2.303234,-0.297115 3.44336,-0.179688 0.220672,0.02273 0.410899,-0.03348 0.52539,-0.167968 0.114494,-0.134489 0.134935,-0.333556 0.0625,-0.544922 -0.349149,-1.018849 -0.74712,-2.054989 -1.410156,-2.916016 -0.261476,-0.339586 -0.77798,-0.728687 -1.195312,-0.853515 -0.397848,-0.119001 -0.809865,-0.169024 -1.226563,-0.175782 z m -0.0039,0.199219 c 0.402737,0.0065 0.795507,0.05539 1.171875,0.167969 0.345921,0.103468 0.867844,0.489838 1.09375,0.783203 0.639263,0.830159 1.035383,1.847497 1.382812,2.861328 0.02855,0.08331 0.03764,0.153275 0.03125,0.210938 -0.0032,0.02883 -0.01162,0.05503 -0.02148,0.07813 -0.0099,0.0231 -0.02194,0.04273 -0.03711,0.06055 -0.01517,0.01782 -0.03447,0.03491 -0.05664,0.04883 -0.0665,0.04176 -0.164216,0.06249 -0.296875,0.04883 -1.166136,-0.120109 -2.344271,-0.0116 -3.494141,0.179687 -0.342216,0.05693 -0.661123,-0.169246 -0.777343,-0.505859 -0.373734,-1.08246 -1.16995,-2.25155 -1.511719,-3.066406 -0.06285,-0.149851 -0.03275,-0.293417 0.05664,-0.417969 0.08939,-0.124552 0.24146,-0.221337 0.412109,-0.248047 0.677994,-0.106113 1.375479,-0.212056 2.046875,-0.201172 z m -6.287109,1 c 0.184125,0.10952 0.378025,0.204944 0.574218,0.294922 0.09993,0.04583 0.198973,0.09163 0.296875,0.138672 0.01879,0.009 0.03799,0.01819 0.05664,0.02734 0.0052,0.0026 0.01043,0.0052 0.01563,0.0078 0.07933,0.03922 0.154838,0.08203 0.230469,0.125 0.0402,0.02286 0.08034,0.04595 0.11914,0.07031 0.06282,0.03943 0.121398,0.0825 0.179688,0.126953 0.03774,0.02878 0.0778,0.05459 0.113281,0.08594 0.0103,0.0091 0.0192,0.01996 0.0293,0.0293 0.07443,0.06885 0.145377,0.142881 0.207031,0.226563 0.105224,0.142813 0.20487,0.378951 0.292969,0.623046 0.0881,0.244096 0.166405,0.497397 0.246094,0.689454 0.164944,0.397532 0.353804,0.77941 0.576172,1.132812 -1.210246,-1.024292 -2.203937,-2.227553 -2.9375,-3.578125 z m 15.568359,4.525391 c 0.366347,-0.0042 0.722056,0.02473 1.058594,0.111328 0,0 0.002,0 0.002,0 0.111554,0.02878 0.221635,0.06502 0.328125,0.107422 0.157428,0.06268 0.342551,0.102374 0.53125,0.121093 -1.227626,0.695827 -2.527099,1.205821 -3.894531,1.476563 0.0093,-0.04258 0.01281,-0.08748 0,-0.130859 -0.07716,-0.261282 -0.322854,-0.545734 -0.527344,-0.81836 -0.102245,-0.136312 -0.194473,-0.267528 -0.25,-0.375 -0.05553,-0.107472 -0.06279,-0.183442 -0.05078,-0.210937 0.02301,-0.05267 0.07295,-0.08828 0.164062,-0.115235 0.09111,-0.02695 0.215704,-0.0382 0.351563,-0.03906 0.271715,-0.0017 0.579643,0.03698 0.802734,0.0078 0.490941,-0.06416 0.995912,-0.129172 1.484375,-0.134765 z m -6.666016,1.060547 c 0.145632,-6.58e-4 0.289601,0.0055 0.431641,0.02148 0.35049,0.03943 0.906809,0.36891 1.214844,0.605469 0.197219,0.151456 0.400787,0.278835 0.609375,0.388672 -1.505962,0.0058 -3.007462,-0.27361 -4.460938,-0.81836 0.734423,-0.0092 1.484139,-0.191545 2.205078,-0.197265 z"
     style="stroke:#000000;stroke-width:0.1;stroke-linecap:round;stroke-linejoin:round;stroke-dasharray:none;filter:url(#filter20);opacity:0.35996946"
     id="path20" />
</svg>
