<?xml version="1.0" encoding="UTF-8" standalone="no"?>
<svg
   width="64"
   height="64"
   version="1"
   id="svg5"
   sodipodi:docname="inkscape.svg"
   inkscape:version="1.3.2 (091e20ef0f, 2023-11-25, custom)"
   xmlns:inkscape="http://www.inkscape.org/namespaces/inkscape"
   xmlns:sodipodi="http://sodipodi.sourceforge.net/DTD/sodipodi-0.dtd"
   xmlns:xlink="http://www.w3.org/1999/xlink"
   xmlns="http://www.w3.org/2000/svg"
   xmlns:svg="http://www.w3.org/2000/svg">
  <defs
     id="defs5">
    <linearGradient
       id="linearGradient3"
       inkscape:collect="always">
      <stop
         style="stop-color:#ffffff;stop-opacity:1;"
         offset="0"
         id="stop3" />
      <stop
         style="stop-color:#aeaeae;stop-opacity:1;"
         offset="1"
         id="stop4" />
    </linearGradient>
    <inkscape:path-effect
       effect="fillet_chamfer"
       id="path-effect2"
       is_visible="true"
       lpeversion="1"
       nodesatellites_param="F,0,0,1,0,0,0,1 @ F,0,0,1,0,0,0,1 @ F,0,0,1,0,0,0,1 @ F,0,0,1,0,0,0,1 @ F,0,0,1,0,0,0,1 @ F,0,0,1,0,2.0824973,0,1 @ F,0,0,1,0,0,0,1 @ F,0,0,1,0,1.7828397,0,1 @ F,0,0,1,0,3.1979049,0,1 @ F,0,1,1,0,3.7817329,0,1 @ F,0,0,1,0,3.7817329,0,1 @ F,0,1,1,0,3.7817329,0,1 @ F,0,0,1,0,0,0,1 @ F,0,0,1,0,0,0,1 @ F,0,0,1,0,0,0,1 @ F,0,0,1,0,0,0,1 @ F,0,0,1,0,0,0,1"
       radius="0"
       unit="px"
       method="auto"
       mode="F"
       chamfer_steps="1"
       flexible="false"
       use_knot_distance="true"
       apply_no_radius="true"
       apply_with_radius="true"
       only_selected="false"
       hide_knots="false" />
    <linearGradient
       id="linearGradient2"
       inkscape:collect="always">
      <stop
         style="stop-color:#575757;stop-opacity:1;"
         offset="0"
         id="stop1" />
      <stop
         style="stop-color:#222222;stop-opacity:1;"
         offset="1"
         id="stop2" />
    </linearGradient>
    <inkscape:path-effect
       effect="fillet_chamfer"
       id="path-effect3"
       is_visible="true"
       lpeversion="1"
       nodesatellites_param="F,0,0,1,0,0,0,1 @ F,0,0,1,0,0,0,1 @ F,0,0,1,0,1.6590727,0,1 @ F,0,1,1,0,1.0574349,0,1 @ F,0,0,1,0,1.6590727,0,1 @ F,0,0,1,0,2.1132606,0,1 @ F,0,0,1,0,1.6590727,0,1 @ F,0,0,1,0,1.6590727,0,1 @ F,0,0,1,0,1.6590727,0,1 @ F,0,0,1,0,0,0,1 @ F,0,0,1,0,0,0,1 | F,0,0,1,0,0,0,1 @ F,0,0,1,0,0,0,1 @ F,0,0,1,0,0,0,1 @ F,0,0,1,0,0,0,1 @ F,0,0,1,0,0,0,1 @ F,0,0,1,0,0,0,1 @ F,0,0,1,0,0,0,1 @ F,0,0,1,0,0,0,1 @ F,0,0,1,0,0,0,1 @ F,0,0,1,0,0,0,1 @ F,0,0,1,0,0,0,1 @ F,0,0,1,0,0,0,1 @ F,0,0,1,0,0,0,1 @ F,0,0,1,0,0,0,1 @ F,0,0,1,0,0,0,1 @ F,0,0,1,0,0,0,1 @ F,0,0,1,0,0,0,1 @ F,0,0,1,0,0,0,1 @ F,0,0,1,0,0,0,1 @ F,0,0,1,0,0,0,1 | F,0,0,1,0,0,0,1 @ F,0,0,1,0,0,0,1 @ F,0,0,1,0,0,0,1 @ F,0,0,1,0,0,0,1 @ F,0,0,1,0,0,0,1 | F,0,0,1,0,0,0,1 @ F,0,0,1,0,0,0,1 @ F,0,0,1,0,0,0,1 @ F,0,0,1,0,0,0,1 @ F,0,0,1,0,0,0,1 @ F,0,0,1,0,0,0,1"
       radius="0"
       unit="px"
       method="auto"
       mode="F"
       chamfer_steps="1"
       flexible="false"
       use_knot_distance="true"
       apply_no_radius="true"
       apply_with_radius="true"
       only_selected="false"
       hide_knots="false" />
    <radialGradient
       inkscape:collect="always"
       xlink:href="#linearGradient2"
       id="radialGradient3"
       cx="30.598557"
       cy="50.652023"
       fx="30.598557"
       fy="50.652023"
       r="11.46865"
       gradientTransform="matrix(-3.4204833,2.4658904,-2.2374465,-3.1036044,255.18649,85.232915)"
       gradientUnits="userSpaceOnUse" />
    <inkscape:path-effect
       effect="fillet_chamfer"
       id="path-effect3-5"
       is_visible="true"
       lpeversion="1"
       nodesatellites_param="F,0,0,1,0,0,0,1 @ F,0,0,1,0,0,0,1 @ F,0,0,1,0,1.6590727,0,1 @ F,0,1,1,0,1.0574349,0,1 @ F,0,0,1,0,1.6590727,0,1 @ F,0,0,1,0,2.1132606,0,1 @ F,0,0,1,0,1.6590727,0,1 @ F,0,0,1,0,1.6590727,0,1 @ F,0,0,1,0,1.6590727,0,1 @ F,0,0,1,0,0,0,1 @ F,0,0,1,0,0,0,1"
       radius="0"
       unit="px"
       method="auto"
       mode="F"
       chamfer_steps="1"
       flexible="false"
       use_knot_distance="true"
       apply_no_radius="true"
       apply_with_radius="true"
       only_selected="false"
       hide_knots="false" />
    <inkscape:path-effect
       effect="fillet_chamfer"
       id="path-effect3-9"
       is_visible="true"
       lpeversion="1"
       nodesatellites_param="F,0,0,1,0,0,0,1 @ F,0,0,1,0,0,0,1 @ F,0,0,1,0,1.6590727,0,1 @ F,0,1,1,0,1.0574349,0,1 @ F,0,0,1,0,1.6590727,0,1 @ F,0,0,1,0,2.1132606,0,1 @ F,0,0,1,0,1.6590727,0,1 @ F,0,0,1,0,1.6590727,0,1 @ F,0,0,1,0,1.6590727,0,1 @ F,0,0,1,0,0,0,1 @ F,0,0,1,0,0,0,1"
       radius="0"
       unit="px"
       method="auto"
       mode="F"
       chamfer_steps="1"
       flexible="false"
       use_knot_distance="true"
       apply_no_radius="true"
       apply_with_radius="true"
       only_selected="false"
       hide_knots="false" />
    <inkscape:path-effect
       effect="fillet_chamfer"
       id="path-effect3-53"
       is_visible="true"
       lpeversion="1"
       nodesatellites_param="F,0,0,1,0,0,0,1 @ F,0,0,1,0,0,0,1 @ F,0,0,1,0,1.6590727,0,1 @ F,0,1,1,0,1.0574349,0,1 @ F,0,0,1,0,1.6590727,0,1 @ F,0,0,1,0,2.1132606,0,1 @ F,0,0,1,0,1.6590727,0,1 @ F,0,0,1,0,1.6590727,0,1 @ F,0,0,1,0,1.6590727,0,1 @ F,0,0,1,0,0,0,1 @ F,0,0,1,0,0,0,1 | F,0,0,1,0,0,0,1 @ F,0,0,1,0,0,0,1 @ F,0,0,1,0,0,0,1 @ F,0,0,1,0,0,0,1 @ F,0,0,1,0,0,0,1 @ F,0,0,1,0,0,0,1 @ F,0,0,1,0,0,0,1 @ F,0,0,1,0,0,0,1 @ F,0,0,1,0,0,0,1 @ F,0,0,1,0,0,0,1 @ F,0,0,1,0,0,0,1 @ F,0,0,1,0,0,0,1 @ F,0,0,1,0,0,0,1 @ F,0,0,1,0,0,0,1 @ F,0,0,1,0,0,0,1 @ F,0,0,1,0,0,0,1 @ F,0,0,1,0,0,0,1 @ F,0,0,1,0,0,0,1 @ F,0,0,1,0,0,0,1 @ F,0,0,1,0,0,0,1 | F,0,0,1,0,0,0,1 @ F,0,0,1,0,0,0,1 @ F,0,0,1,0,0,0,1 @ F,0,0,1,0,0,0,1 @ F,0,0,1,0,0,0,1 | F,0,0,1,0,0,0,1 @ F,0,0,1,0,0,0,1 @ F,0,0,1,0,0,0,1 @ F,0,0,1,0,0,0,1 @ F,0,0,1,0,0,0,1 @ F,0,0,1,0,0,0,1"
       radius="0"
       unit="px"
       method="auto"
       mode="F"
       chamfer_steps="1"
       flexible="false"
       use_knot_distance="true"
       apply_no_radius="true"
       apply_with_radius="true"
       only_selected="false"
       hide_knots="false" />
    <inkscape:path-effect
       effect="fillet_chamfer"
       id="path-effect3-53-7"
       is_visible="true"
       lpeversion="1"
       nodesatellites_param="F,0,0,1,0,0,0,1 @ F,0,0,1,0,0,0,1 @ F,0,0,1,0,1.6590727,0,1 @ F,0,1,1,0,1.0574349,0,1 @ F,0,0,1,0,1.6590727,0,1 @ F,0,0,1,0,2.1132606,0,1 @ F,0,0,1,0,1.6590727,0,1 @ F,0,0,1,0,1.6590727,0,1 @ F,0,0,1,0,1.6590727,0,1 @ F,0,0,1,0,0,0,1 @ F,0,0,1,0,0,0,1 | F,0,0,1,0,0,0,1 @ F,0,0,1,0,0,0,1 @ F,0,0,1,0,0,0,1 @ F,0,0,1,0,0,0,1 @ F,0,0,1,0,0,0,1 @ F,0,0,1,0,0,0,1 @ F,0,0,1,0,0,0,1 @ F,0,0,1,0,0,0,1 @ F,0,0,1,0,0,0,1 @ F,0,0,1,0,0,0,1 @ F,0,0,1,0,0,0,1 @ F,0,0,1,0,0,0,1 @ F,0,0,1,0,0,0,1 @ F,0,0,1,0,0,0,1 @ F,0,0,1,0,0,0,1 @ F,0,0,1,0,0,0,1 @ F,0,0,1,0,0,0,1 @ F,0,0,1,0,0,0,1 @ F,0,0,1,0,0,0,1 @ F,0,0,1,0,0,0,1 | F,0,0,1,0,0,0,1 @ F,0,0,1,0,0,0,1 @ F,0,0,1,0,0,0,1 @ F,0,0,1,0,0,0,1 @ F,0,0,1,0,0,0,1 | F,0,0,1,0,0,0,1 @ F,0,0,1,0,0,0,1 @ F,0,0,1,0,0,0,1 @ F,0,0,1,0,0,0,1 @ F,0,0,1,0,0,0,1 @ F,0,0,1,0,0,0,1"
       radius="0"
       unit="px"
       method="auto"
       mode="F"
       chamfer_steps="1"
       flexible="false"
       use_knot_distance="true"
       apply_no_radius="true"
       apply_with_radius="true"
       only_selected="false"
       hide_knots="false" />
    <inkscape:path-effect
       effect="fillet_chamfer"
       id="path-effect3-6"
       is_visible="true"
       lpeversion="1"
       nodesatellites_param="F,0,0,1,0,0,0,1 @ F,0,0,1,0,0,0,1 @ F,0,0,1,0,0,0,1 @ F,0,0,1,0,0,0,1 @ F,0,0,1,0,0,0,1 @ F,0,0,1,0,0,0,1 @ F,0,0,1,0,0,0,1 @ F,0,0,1,0,0,0,1 @ F,0,0,1,0,0,0,1 @ F,0,0,1,0,0,0,1 @ F,0,0,1,0,0,0,1 @ F,0,0,1,0,0,0,1 @ F,0,0,1,0,0,0,1 @ F,0,0,1,0,0,0,1 @ F,0,0,1,0,0,0,1 @ F,0,0,1,0,0,0,1 @ F,0,0,1,0,0,0,1 @ F,0,0,1,0,0,0,1 @ F,0,0,1,0,0,0,1 @ F,0,0,1,0,0,0,1 | F,0,0,1,0,0,0,1 @ F,0,0,1,0,0,0,1 | F,0,0,1,0,0,0,1 @ F,0,0,1,0,0,0,1 @ F,0,0,1,0,0,0,1 @ F,0,0,1,0,0,0,1 @ F,0,0,1,0,0,0,1 @ F,0,0,1,0,0,0,1"
       radius="0"
       unit="px"
       method="auto"
       mode="F"
       chamfer_steps="1"
       flexible="false"
       use_knot_distance="true"
       apply_no_radius="true"
       apply_with_radius="true"
       only_selected="false"
       hide_knots="false" />
    <radialGradient
       inkscape:collect="always"
       xlink:href="#linearGradient3"
       id="radialGradient4"
       cx="26.530008"
       cy="42.444832"
       fx="26.530008"
       fy="42.444832"
       r="28.309626"
       gradientTransform="matrix(2.4106799,-1.3918067,1.3911224,2.4094946,-92.440333,-51.371256)"
       gradientUnits="userSpaceOnUse" />
    <inkscape:path-effect
       effect="fillet_chamfer"
       id="path-effect3-93"
       is_visible="true"
       lpeversion="1"
       nodesatellites_param="F,0,0,1,0,0,0,1 @ F,0,0,1,0,0,0,1 @ F,0,0,1,0,1.6590727,0,1 @ F,0,1,1,0,1.0574349,0,1 @ F,0,0,1,0,1.6590727,0,1 @ F,0,0,1,0,2.1132606,0,1 @ F,0,0,1,0,1.6590727,0,1 @ F,0,0,1,0,1.6590727,0,1 @ F,0,0,1,0,1.6590727,0,1 @ F,0,0,1,0,0,0,1 @ F,0,0,1,0,0,0,1 | F,0,0,1,0,0,0,1 @ F,0,0,1,0,0,0,1 @ F,0,0,1,0,0,0,1 @ F,0,0,1,0,0,0,1 @ F,0,0,1,0,0,0,1 @ F,0,0,1,0,0,0,1 @ F,0,0,1,0,0,0,1 @ F,0,0,1,0,0,0,1 @ F,0,0,1,0,0,0,1 @ F,0,0,1,0,0,0,1 @ F,0,0,1,0,0,0,1 @ F,0,0,1,0,0,0,1 @ F,0,0,1,0,0,0,1 @ F,0,0,1,0,0,0,1 @ F,0,0,1,0,0,0,1 @ F,0,0,1,0,0,0,1 @ F,0,0,1,0,0,0,1 @ F,0,0,1,0,0,0,1 @ F,0,0,1,0,0,0,1 @ F,0,0,1,0,0,0,1 | F,0,0,1,0,0,0,1 @ F,0,0,1,0,0,0,1 @ F,0,0,1,0,0,0,1 @ F,0,0,1,0,0,0,1 @ F,0,0,1,0,0,0,1 | F,0,0,1,0,0,0,1 @ F,0,0,1,0,0,0,1 @ F,0,0,1,0,0,0,1 @ F,0,0,1,0,0,0,1 @ F,0,0,1,0,0,0,1 @ F,0,0,1,0,0,0,1"
       radius="0"
       unit="px"
       method="auto"
       mode="F"
       chamfer_steps="1"
       flexible="false"
       use_knot_distance="true"
       apply_no_radius="true"
       apply_with_radius="true"
       only_selected="false"
       hide_knots="false" />
    <filter
       inkscape:collect="always"
       style="color-interpolation-filters:sRGB"
       id="filter4"
       x="-0.07751721"
       y="-0.077518022"
       width="1.1550323"
       height="1.1550361">
      <feGaussianBlur
         inkscape:collect="always"
         stdDeviation="1.634748"
         id="feGaussianBlur4" />
    </filter>
    <filter
       inkscape:collect="always"
       style="color-interpolation-filters:sRGB"
       id="filter5"
       x="-0.064992806"
       y="-0.065025285"
       width="1.1299882"
       height="1.1300612">
      <feGaussianBlur
         inkscape:collect="always"
         stdDeviation="1.4499425"
         id="feGaussianBlur5" />
    </filter>
  </defs>
  <sodipodi:namedview
     id="namedview5"
     pagecolor="#323232"
     bordercolor="#000000"
     borderopacity="0.25"
     inkscape:showpageshadow="2"
     inkscape:pageopacity="0.0"
     inkscape:pagecheckerboard="0"
     inkscape:deskcolor="#d1d1d1"
     inkscape:zoom="1.5859375"
     inkscape:cx="10.403941"
     inkscape:cy="108.13793"
     inkscape:window-width="1920"
     inkscape:window-height="1020"
     inkscape:window-x="0"
     inkscape:window-y="0"
     inkscape:window-maximized="1"
     inkscape:current-layer="svg5" />
  <g
     id="g5"
     transform="translate(0,1.421492)">
    <path
       d="M 31.978516,2.4492188 C 28.498742,2.335934 25.607516,4.5151989 23.447266,7.0253906 17.609942,13.098802 11.680546,19.08757 5.9023437,25.214844 c -2.6226741,3.16069 -3.3237391,8.711507 0.3496094,11.398437 1.3098598,1.566912 5.2885479,0.501328 3.3261719,3.123047 -0.5240515,1.844452 0.746968,3.29126 0.785156,4.775391 0.02877,1.118188 -1.0812525,2.806074 -0.894531,3.93164 0.4699304,2.832765 3.473418,4.996228 6.400391,4.798828 1.603935,0.216839 3.008016,-1.067615 4.208984,-0.845703 0.935789,0.172913 2.016858,1.493768 2.925781,1.871094 0.667938,0.277285 1.316778,0.534922 1.916016,0.865234 1.521737,0.838817 3.393575,3.141421 5.091797,3.587891 2.72609,0.716702 5.782847,0.175204 8.28125,-1.240234 1.808339,-1.024492 3.149985,-4.166115 4.384765,-5.837891 0.715793,-0.969091 3.726467,-1.40463 4.966797,-3.003906 0.09113,-0.117501 0.181194,-0.23299 0.271485,-0.345703 1.147283,-1.432172 4.941765,-0.39402 6.970703,-0.820313 2.343146,-0.492311 4.446475,-1.931083 5.152343,-4.351562 1.091586,-2.393574 -1.774721,-5.613232 -3.689453,-6.166016 5.491694,-2.187967 4.374639,-7.885466 2.164063,-11.023437 -2.858785,-3.4271 -6.143657,-6.488595 -9.1875,-9.75586 C 45.612847,12.373874 42.001217,8.4687448 38.222656,4.734375 36.488252,3.284572 34.240763,2.4509511 31.978516,2.4492188 Z"
       style="fill:url(#radialGradient4);fill-rule:evenodd;stroke-linecap:round;stroke-linejoin:round"
       id="path3" />
    <path
       id="path4"
       style="fill:url(#radialGradient3);fill-opacity:1;fill-rule:evenodd;stroke-width:0.903797;stroke-dasharray:none"
       transform="matrix(0.88695183,0,0,0.88695165,3.5709536,3.9963177)"
       inkscape:path-effect="#path-effect3"
       inkscape:original-d="m 32.095412,9.811548 c 1.569587,0.01335 5.870436,5.335729 9.707684,9.321691 1.079354,1.448271 -0.417494,2.932605 -0.417494,2.932605 l -8.037171,-4.398971 -3.548997,4.818225 -3.131018,-4.712456 -1.87963,7.331194 -5.531847,-3.351475 1.461651,-1.886002 8.662865,-8.902056 c 0.664497,-0.67738 1.173348,-1.16411 2.713932,-1.152118 z M 31.996082,3.3472991 C 30.470872,3.3479212 28.987214,3.9206268 27.81831,5.129791 L 7.0159662,26.613415 c -1.1462197,1.18581 -1.7542752,2.749164 -1.777085,4.296724 -3.429e-4,0.02355 0,0.08061 0,0.106337 -2.159e-4,4.604244 11.6333718,0.132688 12.7423838,5.762009 0.600084,3.046636 -6.277473,1.651323 -6.277473,4.716665 0,3.595744 11.1699,0.66252 13.57866,4.085853 1.843845,2.620474 -4.687258,2.734227 -3.224346,5.242941 1.254906,2.152013 5.743562,0.773614 6.491948,3.665913 0.854829,3.303821 6.358264,2.934969 9.467572,0.315406 1.906028,-1.605809 -2.532225,-2.611424 -0.800227,-4.40306 1.731881,-1.791766 9.980813,-1.454997 9.519839,-5.343872 -0.305077,-2.573704 -3.497646,-2.856649 -3.546961,-5.763811 -0.172208,-2.462022 3.041849,-1.743807 11.911516,-4.193993 3.546592,-1.666291 3.672212,-2.551272 3.658705,-4.085853 -2.8e-4,-0.03041 0,-0.07207 0,-0.104534 -0.0202,-1.547433 -0.735517,-3.110954 -1.881619,-4.296725 L 36.177462,5.129791 C 35.008304,3.9204998 33.524136,3.3479213 31.999688,3.3472991 Z m 24.38175,36.9150649 c -0.410797,-0.01421 -0.825143,0.02213 -1.117437,0.111748 -0.550957,0.174198 -3.161897,0.27436 -2.946789,2.451151 2.364686,1.08789 5.97031,1.953049 6.400029,-0.223487 0.32262,-1.632182 -1.103231,-2.28945 -2.335803,-2.339407 z M 14.441513,46.73809 c -0.230405,0.03006 -0.389407,0.134477 -0.61459,0.2325 -1.800681,0.783427 -3.007005,2.432176 -1.324703,3.152252 1.682549,0.719908 2.807416,-0.04084 4.282306,-0.9336 1.475139,-0.893187 1.434998,-1.055851 1.328308,-1.400401 -0.204477,0.04676 -1.545385,-0.908735 -2.957603,-1.050751 -0.23533,-0.02253 -0.483375,-0.03006 -0.713718,0 z"
       d="m 32.095412,9.811548 c 1.569587,0.01335 5.870436,5.335729 9.707684,9.321691 0.383809,0.514992 0.441869,1.034545 0.357318,1.490296 -0.16494,0.889058 -1.426392,1.085681 -2.230157,0.645758 l -5.65424,-3.094726 a 1.2096308,1.2096308 167.53383 0 0 -1.554709,0.343708 l -1.937943,2.631008 a 1.1611585,1.1611585 1.3869717 0 1 -1.902062,-0.04605 L 27.837895,19.53281 a 0.94045967,0.94045967 170.3898 0 0 -1.694318,0.286882 l -0.942752,3.677052 a 1.2314753,1.2314753 157.79491 0 1 -1.831006,0.747409 l -2.693913,-1.632109 a 1.4790617,1.4790617 79.492646 0 1 -0.402666,-2.171039 21.197806,21.197806 132.25748 0 1 1.602409,-1.763653 l 7.505806,-7.713049 c 0.664497,-0.67738 1.173348,-1.16411 2.713932,-1.152118 z M 31.996082,3.3472991 C 30.470872,3.3479212 28.987214,3.9206268 27.81831,5.129791 L 7.0159662,26.613415 c -1.1462197,1.18581 -1.7542752,2.749164 -1.777085,4.296724 -3.429e-4,0.02355 0,0.08061 0,0.106337 -2.159e-4,4.604244 11.6333718,0.132688 12.7423838,5.762009 0.600084,3.046636 -6.277473,1.651323 -6.277473,4.716665 0,3.595744 11.1699,0.66252 13.57866,4.085853 1.843845,2.620474 -4.687258,2.734227 -3.224346,5.242941 1.254906,2.152013 5.743562,0.773614 6.491948,3.665913 0.854829,3.303821 6.358264,2.934969 9.467572,0.315406 1.906028,-1.605809 -2.532225,-2.611424 -0.800227,-4.40306 1.731881,-1.791766 9.980813,-1.454997 9.519839,-5.343872 -0.305077,-2.573704 -3.497646,-2.856649 -3.546961,-5.763811 -0.172208,-2.462022 3.041849,-1.743807 11.911516,-4.193993 3.546592,-1.666291 3.672212,-2.551272 3.658705,-4.085853 -2.8e-4,-0.03041 0,-0.07207 0,-0.104534 -0.0202,-1.547433 -0.735517,-3.110954 -1.881619,-4.296725 L 36.177462,5.129791 C 35.008304,3.9204998 33.524136,3.3479213 31.999688,3.3472991 Z m 24.38175,36.9150649 c -0.410797,-0.01421 -0.825143,0.02213 -1.117437,0.111748 -0.550957,0.174198 -3.161897,0.27436 -2.946789,2.451151 2.364686,1.08789 5.97031,1.953049 6.400029,-0.223487 0.32262,-1.632182 -1.103231,-2.28945 -2.335803,-2.339407 z M 14.441513,46.73809 c -0.230405,0.03006 -0.389407,0.134477 -0.61459,0.2325 -1.800681,0.783427 -3.007005,2.432176 -1.324703,3.152252 1.682549,0.719908 2.807416,-0.04084 4.282306,-0.9336 1.475139,-0.893187 1.434998,-1.055851 1.328308,-1.400401 -0.204477,0.04676 -1.545385,-0.908735 -2.957603,-1.050751 -0.23533,-0.02253 -0.483375,-0.03006 -0.713718,0 z" />
    <path
       d="m 31.99629,2.2867303 c -3.479774,-0.113285 -6.371,2.06598 -8.53125,4.576172 C 17.627716,12.936313 11.69832,18.925081 5.9201181,25.052355 c -2.622674,3.16069 -3.323739,8.711507 0.349609,11.398437 1.30986,1.566912 5.2885479,0.501328 3.326172,3.123047 -0.524052,1.844452 0.7469679,3.29126 0.7851559,4.775391 0.02877,1.118188 -1.0812529,2.806074 -0.8945309,3.93164 0.46993,2.832765 3.4734179,4.996228 6.4003909,4.798828 1.603935,0.216839 3.008016,-1.067615 4.208984,-0.845703 0.935789,0.172913 2.016858,1.493768 2.925781,1.871094 0.667938,0.277285 1.316778,0.534922 1.916016,0.865234 1.521737,0.838817 3.393575,3.141421 5.091797,3.587891 2.72609,0.716702 5.782847,0.175204 8.28125,-1.240234 1.808339,-1.024492 3.149985,-4.166115 4.384765,-5.837891 0.715793,-0.969091 3.726467,-1.40463 4.966797,-3.003906 0.09113,-0.117501 0.181194,-0.23299 0.271485,-0.345703 1.147283,-1.432172 4.941765,-0.39402 6.970703,-0.820313 2.343146,-0.492311 4.446475,-1.931083 5.152343,-4.351562 1.091586,-2.393574 -1.774721,-5.613232 -3.689453,-6.166016 5.491694,-2.187967 4.374639,-7.885466 2.164063,-11.023437 -2.858785,-3.4271 -6.143657,-6.488595 -9.1875,-9.75586 C 45.630621,12.211385 42.018991,8.3062563 38.24043,4.5718863 36.506026,3.1220833 34.258537,2.2884623 31.99629,2.2867303 Z"
       style="fill:none;fill-rule:evenodd;stroke:#010101;stroke-width:0.4;stroke-linecap:round;stroke-linejoin:round;stroke-dasharray:none;stroke-opacity:1;filter:url(#filter5)"
       id="path3-2" />
    <path
       id="path4-6"
       style="fill:none;fill-opacity:1;fill-rule:evenodd;stroke:#010101;stroke-width:0.450983;stroke-dasharray:none;stroke-opacity:1;filter:url(#filter4)"
       transform="matrix(0.88695183,0,0,0.88695165,3.5887281,3.8338293)"
       inkscape:path-effect="#path-effect3-93"
       inkscape:original-d="m 32.095412,9.811548 c 1.569587,0.01335 5.870436,5.335729 9.707684,9.321691 1.079354,1.448271 -0.417494,2.932605 -0.417494,2.932605 l -8.037171,-4.398971 -3.548997,4.818225 -3.131018,-4.712456 -1.87963,7.331194 -5.531847,-3.351475 1.461651,-1.886002 8.662865,-8.902056 c 0.664497,-0.67738 1.173348,-1.16411 2.713932,-1.152118 z M 31.996082,3.3472991 C 30.470872,3.3479212 28.987214,3.9206268 27.81831,5.129791 L 7.0159662,26.613415 c -1.1462197,1.18581 -1.7542752,2.749164 -1.777085,4.296724 -3.429e-4,0.02355 0,0.08061 0,0.106337 -2.159e-4,4.604244 11.6333718,0.132688 12.7423838,5.762009 0.600084,3.046636 -6.277473,1.651323 -6.277473,4.716665 0,3.595744 11.1699,0.66252 13.57866,4.085853 1.843845,2.620474 -4.687258,2.734227 -3.224346,5.242941 1.254906,2.152013 5.743562,0.773614 6.491948,3.665913 0.854829,3.303821 6.358264,2.934969 9.467572,0.315406 1.906028,-1.605809 -2.532225,-2.611424 -0.800227,-4.40306 1.731881,-1.791766 9.980813,-1.454997 9.519839,-5.343872 -0.305077,-2.573704 -3.497646,-2.856649 -3.546961,-5.763811 -0.172208,-2.462022 3.041849,-1.743807 11.911516,-4.193993 3.546592,-1.666291 3.672212,-2.551272 3.658705,-4.085853 -2.8e-4,-0.03041 0,-0.07207 0,-0.104534 -0.0202,-1.547433 -0.735517,-3.110954 -1.881619,-4.296725 L 36.177462,5.129791 C 35.008304,3.9204998 33.524136,3.3479213 31.999688,3.3472991 Z m 24.38175,36.9150649 c -0.410797,-0.01421 -0.825143,0.02213 -1.117437,0.111748 -0.550957,0.174198 -3.161897,0.27436 -2.946789,2.451151 2.364686,1.08789 5.97031,1.953049 6.400029,-0.223487 0.32262,-1.632182 -1.103231,-2.28945 -2.335803,-2.339407 z M 14.441513,46.73809 c -0.230405,0.03006 -0.389407,0.134477 -0.61459,0.2325 -1.800681,0.783427 -3.007005,2.432176 -1.324703,3.152252 1.682549,0.719908 2.807416,-0.04084 4.282306,-0.9336 1.475139,-0.893187 1.434998,-1.055851 1.328308,-1.400401 -0.204477,0.04676 -1.545385,-0.908735 -2.957603,-1.050751 -0.23533,-0.02253 -0.483375,-0.03006 -0.713718,0 z"
       d="m 32.095412,9.811548 c 1.569587,0.01335 5.870436,5.335729 9.707684,9.321691 0.383809,0.514992 0.441869,1.034545 0.357318,1.490296 -0.16494,0.889058 -1.426392,1.085681 -2.230157,0.645758 l -5.65424,-3.094726 a 1.2096308,1.2096308 167.53383 0 0 -1.554709,0.343708 l -1.937943,2.631008 a 1.1611585,1.1611585 1.3869717 0 1 -1.902062,-0.04605 L 27.837895,19.53281 a 0.94045967,0.94045967 170.3898 0 0 -1.694318,0.286882 l -0.942752,3.677052 a 1.2314753,1.2314753 157.79491 0 1 -1.831006,0.747409 l -2.693913,-1.632109 a 1.4790617,1.4790617 79.492646 0 1 -0.402666,-2.171039 21.197806,21.197806 132.25748 0 1 1.602409,-1.763653 l 7.505806,-7.713049 c 0.664497,-0.67738 1.173348,-1.16411 2.713932,-1.152118 z M 31.996082,3.3472991 C 30.470872,3.3479212 28.987214,3.9206268 27.81831,5.129791 L 7.0159662,26.613415 c -1.1462197,1.18581 -1.7542752,2.749164 -1.777085,4.296724 -3.429e-4,0.02355 0,0.08061 0,0.106337 -2.159e-4,4.604244 11.6333718,0.132688 12.7423838,5.762009 0.600084,3.046636 -6.277473,1.651323 -6.277473,4.716665 0,3.595744 11.1699,0.66252 13.57866,4.085853 1.843845,2.620474 -4.687258,2.734227 -3.224346,5.242941 1.254906,2.152013 5.743562,0.773614 6.491948,3.665913 0.854829,3.303821 6.358264,2.934969 9.467572,0.315406 1.906028,-1.605809 -2.532225,-2.611424 -0.800227,-4.40306 1.731881,-1.791766 9.980813,-1.454997 9.519839,-5.343872 -0.305077,-2.573704 -3.497646,-2.856649 -3.546961,-5.763811 -0.172208,-2.462022 3.041849,-1.743807 11.911516,-4.193993 3.546592,-1.666291 3.672212,-2.551272 3.658705,-4.085853 -2.8e-4,-0.03041 0,-0.07207 0,-0.104534 -0.0202,-1.547433 -0.735517,-3.110954 -1.881619,-4.296725 L 36.177462,5.129791 C 35.008304,3.9204998 33.524136,3.3479213 31.999688,3.3472991 Z m 24.38175,36.9150649 c -0.410797,-0.01421 -0.825143,0.02213 -1.117437,0.111748 -0.550957,0.174198 -3.161897,0.27436 -2.946789,2.451151 2.364686,1.08789 5.97031,1.953049 6.400029,-0.223487 0.32262,-1.632182 -1.103231,-2.28945 -2.335803,-2.339407 z M 14.441513,46.73809 c -0.230405,0.03006 -0.389407,0.134477 -0.61459,0.2325 -1.800681,0.783427 -3.007005,2.432176 -1.324703,3.152252 1.682549,0.719908 2.807416,-0.04084 4.282306,-0.9336 1.475139,-0.893187 1.434998,-1.055851 1.328308,-1.400401 -0.204477,0.04676 -1.545385,-0.908735 -2.957603,-1.050751 -0.23533,-0.02253 -0.483375,-0.03006 -0.713718,0 z" />
  </g>
</svg>
