<?xml version="1.0" encoding="UTF-8" standalone="no"?>
<svg
   width="64"
   height="64"
   version="1"
   id="svg5"
   sodipodi:docname="preferences-desktop-gestures-touch.svg"
   inkscape:version="1.3.2 (091e20ef0f, 2023-11-25, custom)"
   xmlns:inkscape="http://www.inkscape.org/namespaces/inkscape"
   xmlns:sodipodi="http://sodipodi.sourceforge.net/DTD/sodipodi-0.dtd"
   xmlns:xlink="http://www.w3.org/1999/xlink"
   xmlns="http://www.w3.org/2000/svg"
   xmlns:svg="http://www.w3.org/2000/svg">
  <defs
     id="defs5">
    <inkscape:path-effect
       effect="fillet_chamfer"
       id="path-effect1"
       is_visible="true"
       lpeversion="1"
       nodesatellites_param="F,0,1,1,0,4.3926768,0,1 @ F,0,1,1,0,4.3926768,0,1 @ F,0,1,1,0,4.3926768,0,1 @ F,0,1,1,0,4.3926768,0,1 | F,0,1,1,0,4.3926768,0,1 @ F,0,1,1,0,4.3926768,0,1 @ F,0,1,1,0,4.3926768,0,1 @ F,0,0,1,0,4.3926768,0,1"
       radius="0"
       unit="px"
       method="auto"
       mode="F"
       chamfer_steps="1"
       flexible="false"
       use_knot_distance="true"
       apply_no_radius="true"
       apply_with_radius="true"
       only_selected="false"
       hide_knots="false" />
    <radialGradient
       inkscape:collect="always"
       xlink:href="#linearGradient4"
       id="radialGradient5"
       cx="11.397592"
       cy="51.913704"
       fx="11.397592"
       fy="51.913704"
       r="29"
       gradientUnits="userSpaceOnUse"
       gradientTransform="matrix(0,2.6342154,-2.2758542,0,122.83808,-25.218933)" />
    <linearGradient
       id="linearGradient4"
       inkscape:collect="always">
      <stop
         style="stop-color:#00cfff;stop-opacity:1;"
         offset="0"
         id="stop4" />
      <stop
         style="stop-color:#008eff;stop-opacity:1;"
         offset="1"
         id="stop5" />
    </linearGradient>
    <filter
       inkscape:collect="always"
       style="color-interpolation-filters:sRGB"
       id="filter1"
       x="-0.099246493"
       y="-0.099246493"
       width="1.198493"
       height="1.198493">
      <feGaussianBlur
         inkscape:collect="always"
         stdDeviation="2.1257053"
         id="feGaussianBlur1" />
    </filter>
    <filter
       inkscape:collect="always"
       style="color-interpolation-filters:sRGB"
       id="filter2"
       x="-0.0937941"
       y="-0.093718284"
       width="1.1875882"
       height="1.1874366">
      <feGaussianBlur
         inkscape:collect="always"
         stdDeviation="1.3487599"
         id="feGaussianBlur2" />
    </filter>
  </defs>
  <sodipodi:namedview
     id="namedview5"
     pagecolor="#ffffff"
     bordercolor="#000000"
     borderopacity="0.25"
     inkscape:showpageshadow="2"
     inkscape:pageopacity="0.0"
     inkscape:pagecheckerboard="0"
     inkscape:deskcolor="#d1d1d1"
     inkscape:zoom="9.8111066"
     inkscape:cx="30.118927"
     inkscape:cy="33.023798"
     inkscape:window-width="1920"
     inkscape:window-height="1020"
     inkscape:window-x="0"
     inkscape:window-y="0"
     inkscape:window-maximized="1"
     inkscape:current-layer="svg5" />
  <rect
     style="fill:url(#radialGradient5);fill-opacity:1;stroke-width:0.921025"
     width="53.419445"
     height="53.419445"
     x="5.2902775"
     y="5.2902775"
     rx="13.676166"
     ry="13.676166"
     id="rect2" />
  <path
     id="path3"
     style="fill:#ffffff;fill-opacity:1;stroke-width:0.921025"
     d="m 20.271323,14.532906 c -3.278923,0 -5.920103,2.639381 -5.920103,5.918305 v 13.80638 c 0,3.278923 2.64118,5.918304 5.920103,5.918304 h 23.599465 c 3.278924,0 5.918305,-2.639381 5.918305,-5.918304 v -13.80638 c 0,-3.278924 -2.639381,-5.918305 -5.918305,-5.918305 z m 13.435811,3.912557 h 5.63768 c 0.737917,0 1.334767,0.596846 1.334767,1.334767 v 5.63768 c 0,0.737919 -0.596715,1.334766 -1.334767,1.334766 -0.738052,0 -1.428308,-0.596847 -1.428308,-1.334766 v -2.410495 l -9.253423,9.253422 h 2.410496 c 0.738049,0 1.334766,0.690255 1.334766,1.428308 0,0.737921 -0.596847,1.334767 -1.334766,1.334767 h -5.63768 c -0.737917,0 -1.334767,-0.596846 -1.334767,-1.334767 v -5.637679 c 0,-0.73792 0.596715,-1.334767 1.334767,-1.334767 0.738051,0 1.428308,0.596847 1.428308,1.334767 v 2.410494 l 9.253422,-9.253422 h -2.410495 c -0.73805,0 -1.334766,-0.690255 -1.334766,-1.428308 0,-0.737921 0.596847,-1.334767 1.334766,-1.334767 z M 18.326738,41.971174 a 4.0457648,4.0457648 0 0 0 -4.045674,4.045674 v 0.07735 a 4.0457648,4.0457648 0 0 0 4.045674,4.045674 h 8.785713 a 4.0457648,4.0457648 0 0 0 4.045675,-4.045674 v -0.07735 a 4.0457648,4.0457648 0 0 0 -4.045675,-4.045674 z m 18.702922,0 a 4.0457648,4.0457648 0 0 0 -4.045675,4.045674 v 0.07735 a 4.0457648,4.0457648 0 0 0 4.045675,4.045674 h 8.783915 a 4.0457648,4.0457648 0 0 0 4.045674,-4.045674 v -0.07735 a 4.0457648,4.0457648 0 0 0 -4.045674,-4.045674 z" />
  <rect
     style="fill:none;fill-opacity:1;stroke-width:0.40000001;stroke:#000000;stroke-opacity:1;stroke-dasharray:none;filter:url(#filter1)"
     width="53.419445"
     height="53.419445"
     x="5.2580543"
     y="5.3422966"
     rx="13.676166"
     ry="13.676166"
     id="rect2-6" />
  <path
     id="path3-2"
     style="fill:none;fill-opacity:1;stroke-width:0.2;stroke:#0016ff;stroke-opacity:1;stroke-dasharray:none;filter:url(#filter2)"
     d="m 20.239099,14.584925 c -3.278922,0 -5.920102,2.639381 -5.920102,5.918305 v 13.80638 c 0,3.278923 2.641179,5.918304 5.920102,5.918304 h 23.599465 c 3.278924,0 5.918305,-2.639381 5.918305,-5.918304 V 20.50323 c 0,-3.278924 -2.639381,-5.918305 -5.918305,-5.918305 z m 13.435811,3.912557 h 5.63768 c 0.737917,0 1.334767,0.596846 1.334767,1.334767 v 5.63768 c 0,0.737919 -0.596715,1.334766 -1.334767,1.334766 -0.738052,0 -1.428308,-0.596847 -1.428308,-1.334766 v -2.410495 l -9.253423,9.253422 h 2.410496 c 0.73805,0 1.334767,0.690255 1.334767,1.428308 0,0.737921 -0.596847,1.334767 -1.334766,1.334767 h -5.63768 c -0.737917,0 -1.334767,-0.596846 -1.334767,-1.334767 v -5.637679 c 0,-0.73792 0.596715,-1.334767 1.334767,-1.334767 0.738051,0 1.428308,0.596847 1.428308,1.334767 v 2.410494 l 9.253422,-9.253422 h -2.410495 c -0.73805,0 -1.334766,-0.690255 -1.334766,-1.428308 0,-0.737921 0.596847,-1.334767 1.334765,-1.334767 z M 18.294514,42.023193 a 4.0457648,4.0457648 0 0 0 -4.045673,4.045674 v 0.07735 a 4.0457648,4.0457648 0 0 0 4.045673,4.045674 h 8.785713 a 4.0457648,4.0457648 0 0 0 4.045675,-4.045674 v -0.07735 a 4.0457648,4.0457648 0 0 0 -4.045675,-4.045674 z m 18.702922,0 a 4.0457648,4.0457648 0 0 0 -4.045675,4.045674 v 0.07735 a 4.0457648,4.0457648 0 0 0 4.045675,4.045674 h 8.783915 a 4.0457648,4.0457648 0 0 0 4.045674,-4.045674 v -0.07735 a 4.0457648,4.0457648 0 0 0 -4.045674,-4.045674 z" />
</svg>
