<?xml version="1.0" encoding="UTF-8" standalone="no"?>
<svg
   width="64"
   height="64"
   version="1.1"
   id="svg11"
   sodipodi:docname="microsoft-edge-beta.svg"
   inkscape:version="1.3.2 (091e20ef0f, 2023-11-25, custom)"
   xmlns:inkscape="http://www.inkscape.org/namespaces/inkscape"
   xmlns:sodipodi="http://sodipodi.sourceforge.net/DTD/sodipodi-0.dtd"
   xmlns:xlink="http://www.w3.org/1999/xlink"
   xmlns="http://www.w3.org/2000/svg"
   xmlns:svg="http://www.w3.org/2000/svg">
  <defs
     id="defs11">
    <rect
       x="30.32643"
       y="31.812413"
       width="43.513918"
       height="32.837972"
       id="rect2" />
    <inkscape:path-effect
       effect="fillet_chamfer"
       id="path-effect2"
       is_visible="true"
       lpeversion="1"
       nodesatellites_param="F,0,1,1,0,4.8879761,0,1 @ F,0,1,1,0,4.8879761,0,1 @ F,0,0,1,0,4.8879761,0,1 @ F,0,1,1,0,4.8879761,0,1"
       radius="0"
       unit="px"
       method="auto"
       mode="F"
       chamfer_steps="1"
       flexible="false"
       use_knot_distance="true"
       apply_no_radius="true"
       apply_with_radius="true"
       only_selected="false"
       hide_knots="false" />
    <linearGradient
       id="linearGradient1"
       inkscape:collect="always">
      <stop
         style="stop-color:#3ae98f;stop-opacity:1;"
         offset="0"
         id="stop1" />
      <stop
         style="stop-color:#00d0ff;stop-opacity:1;"
         offset="1"
         id="stop2" />
    </linearGradient>
    <rect
       x="44.174722"
       y="45.323496"
       width="18.022639"
       height="19.29606"
       id="rect11" />
    <inkscape:path-effect
       effect="fillet_chamfer"
       id="path-effect11"
       is_visible="true"
       lpeversion="1"
       nodesatellites_param="F,0,0,1,0,1.3078889,0,1 @ F,0,0,1,0,1.3078889,0,1 @ F,0,0,1,0,0,0,1 @ F,0,0,1,0,0,0,1 @ F,0,0,1,0,0,0,1 @ F,0,0,1,0,0,0,1 @ F,0,0,1,0,0,0,1 @ F,0,0,1,0,0,0,1 @ F,0,0,1,0,0,0,1 @ F,0,0,1,0,0,0,1 @ F,0,0,1,0,0,0,1 @ F,0,0,1,0,0,0,1 @ F,0,0,1,0,0,0,1 | F,0,0,1,0,1.427629,0,1 @ F,0,0,1,0,1.427629,0,1 @ F,0,0,1,0,0.48161458,0,1 @ F,0,0,1,0,0.48161458,0,1 @ F,0,0,1,0,0.48161458,0,1 @ F,0,0,1,0,0.48161458,0,1 @ F,0,0,1,0,0.48161458,0,1 @ F,0,0,1,0,0.48161458,0,1 @ F,0,0,1,0,0.48161458,0,1 @ F,0,0,1,0,0.48161458,0,1 @ F,0,0,1,0,0.48161458,0,1 @ F,0,0,1,0,0.48161458,0,1 | F,0,0,1,0,0.53904213,0,1 @ F,0,0,1,0,0.53904213,0,1 @ F,0,0,1,0,0.53904213,0,1 @ F,0,0,1,0,0.53904213,0,1 @ F,0,0,1,0,0.53904213,0,1 @ F,0,0,1,0,0.53904213,0,1 @ F,0,0,1,0,0.53904213,0,1 @ F,0,0,1,0,0.53904213,0,1 | F,0,0,1,0,1.0615999,0,1 @ F,0,1,1,0,0.60225526,0,1 @ F,0,0,1,0,0.60225526,0,1 @ F,0,0,1,0,0.48940811,0,1 @ F,0,0,1,0,0.48940811,0,1 @ F,0,1,1,0,0.60225526,0,1 @ F,0,1,1,0,0.60225526,0,1 @ F,0,0,1,0,1.0615999,0,1 | F,0,0,1,0,1.0615999,0,1 @ F,0,0,1,0,0.48940811,0,1 @ F,0,0,1,0,0.48940811,0,1 | F,0,0,1,0,0,0,1 @ F,0,0,1,0,0,0,1 @ F,0,0,1,0,0,0,1 @ F,0,0,1,0,0.33926847,0,1 @ F,0,0,1,0,0.33926847,0,1 @ F,0,0,1,0,0,0,1 | F,0,0,1,0,0,0,1 @ F,0,0,1,0,0,0,1 @ F,0,0,1,0,0,0,1 @ F,0,0,1,0,0,0,1 @ F,0,0,1,0,0,0,1 @ F,0,0,1,0,0.33926847,0,1 @ F,0,0,1,0,0.33926847,0,1 @ F,0,0,1,0,0,0,1"
       radius="0"
       unit="px"
       method="auto"
       mode="F"
       chamfer_steps="1"
       flexible="false"
       use_knot_distance="true"
       apply_no_radius="true"
       apply_with_radius="true"
       only_selected="false"
       hide_knots="false" />
    <filter
       inkscape:collect="always"
       style="color-interpolation-filters:sRGB"
       id="filter20"
       x="-0.14408393"
       y="-0.14406548"
       width="1.2881426"
       height="1.288128">
      <feGaussianBlur
         inkscape:collect="always"
         stdDeviation="3.325756"
         id="feGaussianBlur20" />
    </filter>
    <radialGradient
       inkscape:collect="always"
       xlink:href="#linearGradient10"
       id="radialGradient12"
       cx="51.448399"
       cy="30.360764"
       fx="51.448402"
       fy="30.360762"
       r="27.999344"
       gradientTransform="matrix(1.4491231,-2.5099548,2.2835285,1.3183958,-84.810376,123.57168)"
       gradientUnits="userSpaceOnUse" />
    <linearGradient
       id="linearGradient10"
       inkscape:collect="always">
      <stop
         style="stop-color:#0ffca6;stop-opacity:1;"
         offset="0"
         id="stop11" />
      <stop
         style="stop-color:#15bff0;stop-opacity:1;"
         offset="1"
         id="stop12" />
    </linearGradient>
    <radialGradient
       inkscape:collect="always"
       xlink:href="#linearGradient8"
       id="radialGradient10"
       cx="23.829851"
       cy="42.003132"
       fx="23.829851"
       fy="42.003132"
       r="18.427582"
       gradientTransform="matrix(1.5960398,0,0,1.969129,-12.76727,-39.090779)"
       gradientUnits="userSpaceOnUse" />
    <linearGradient
       id="linearGradient8"
       inkscape:collect="always">
      <stop
         style="stop-color:#0b87da;stop-opacity:1;"
         offset="0"
         id="stop9" />
      <stop
         style="stop-color:#0bc9da;stop-opacity:1;"
         offset="1"
         id="stop10" />
    </linearGradient>
    <radialGradient
       inkscape:collect="always"
       xlink:href="#linearGradient7"
       id="radialGradient8"
       cx="37.40353"
       cy="44.051685"
       fx="37.40353"
       fy="44.051685"
       r="19.501865"
       gradientTransform="matrix(1.8989086,-0.50881102,0.43907698,1.6386576,-52.024431,-12.979638)"
       gradientUnits="userSpaceOnUse" />
    <linearGradient
       id="linearGradient7"
       inkscape:collect="always">
      <stop
         style="stop-color:#228bd3;stop-opacity:1;"
         offset="0"
         id="stop7" />
      <stop
         style="stop-color:#0e4263;stop-opacity:1;"
         offset="1"
         id="stop8" />
    </linearGradient>
    <radialGradient
       inkscape:collect="always"
       xlink:href="#linearGradient1"
       id="radialGradient2"
       cx="48.614002"
       cy="45.43745"
       fx="48.614002"
       fy="45.43745"
       r="13.167956"
       gradientTransform="matrix(3.0813054,-5.3369769,4.8555219,2.8033373,-311.34277,166.54134)"
       gradientUnits="userSpaceOnUse" />
    <inkscape:path-effect
       effect="fillet_chamfer"
       id="path-effect2-9"
       is_visible="true"
       lpeversion="1"
       nodesatellites_param="F,0,1,1,0,4.8879761,0,1 @ F,0,1,1,0,4.8879761,0,1 @ F,0,0,1,0,4.8879761,0,1 @ F,0,1,1,0,4.8879761,0,1"
       radius="0"
       unit="px"
       method="auto"
       mode="F"
       chamfer_steps="1"
       flexible="false"
       use_knot_distance="true"
       apply_no_radius="true"
       apply_with_radius="true"
       only_selected="false"
       hide_knots="false" />
    <filter
       inkscape:collect="always"
       style="color-interpolation-filters:sRGB"
       id="filter2"
       x="-0.16313623"
       y="-0.32627245"
       width="1.3262725"
       height="1.6525449">
      <feGaussianBlur
         inkscape:collect="always"
         stdDeviation="1.7484755"
         id="feGaussianBlur2" />
    </filter>
  </defs>
  <sodipodi:namedview
     id="namedview11"
     pagecolor="#ffffff"
     bordercolor="#000000"
     borderopacity="0.25"
     inkscape:showpageshadow="2"
     inkscape:pageopacity="0.0"
     inkscape:pagecheckerboard="0"
     inkscape:deskcolor="#d1d1d1"
     inkscape:zoom="9.1150484"
     inkscape:cx="20.570379"
     inkscape:cy="26.055813"
     inkscape:window-width="1920"
     inkscape:window-height="1012"
     inkscape:window-x="0"
     inkscape:window-y="0"
     inkscape:window-maximized="1"
     inkscape:current-layer="svg11" />
  <g
     id="g1">
    <path
       style="fill:url(#radialGradient8);stroke-width:0.880248"
       class="cls-1"
       d="m 51.881525,44.097818 c -2.361839,2.323768 -6.025593,2.875358 -8.941449,2.889682 -9.110885,0 -17.047288,-7.005579 -17.047288,-15.046783 0.02375,-2.196167 1.23402,-4.20761 3.163394,-5.25749 -8.240613,0.346521 -10.358528,8.932534 -10.358528,13.96286 0,14.22275 13.109891,15.664661 15.934419,15.664661 1.522973,0 3.819949,-0.442777 5.198519,-0.877853 l 0.252224,-0.0847 c 5.304883,-1.833689 9.82733,-5.418565 12.823009,-10.164607 0.427848,-0.673995 -0.326398,-1.4735 -1.0243,-1.085765 z"
       id="path2" />
    <path
       style="fill:url(#radialGradient10);stroke-width:0.880248"
       class="cls-3"
       d="m 27.009632,53.892804 c -1.717314,-1.06574 -3.205593,-2.462203 -4.378306,-4.108197 -5.690354,-7.795104 -2.233591,-18.836795 6.424856,-23.10138 0.600718,-0.282991 1.626943,-0.795073 2.992037,-0.770044 1.949636,0.01426 3.780145,0.940365 4.946291,2.502648 0.777511,1.03799 1.206196,2.295559 1.22454,3.592264 0,-0.04042 4.709473,-15.323915 -15.403014,-15.323915 -8.452405,0 -15.4030151,8.020029 -15.4030151,15.056325 -0.033339,3.722107 0.7631682,7.404879 2.3316315,10.780642 C 15.050538,53.840468 27.99275,59.393823 39.853696,55.440595 35.793264,56.720652 30.63657,56.157812 27.026963,53.900504 Z"
       id="path4" />
    <path
       style="fill:url(#radialGradient12);stroke-width:0.880248"
       class="cls-5"
       d="m 36.721107,34.982975 c -0.155957,0.202135 -0.635376,0.481276 -0.635376,1.089614 0,0.502453 0.327317,0.985659 0.908779,1.391859 2.768693,1.925114 7.98839,1.670999 8.001868,1.670999 2.051538,-0.0049 4.064193,-0.560042 5.828115,-1.607473 3.620802,-2.113887 5.85033,-4.896776 5.858922,-9.089042 0.05006,-4.314183 -1.540301,-7.182603 -2.183378,-8.45318 C 50.420164,12.006151 41.61349,7.4166768 32.036665,7.4166768 18.559906,7.4153446 7.5813588,18.238035 7.3918417,31.711627 7.4842595,24.677258 14.477228,18.150883 22.794857,18.150883 c 0.673879,0 4.516934,0.06546 8.086582,1.938592 3.146066,1.651746 4.794189,4.491528 5.939788,6.468621 1.665081,3.141395 1.73674,6.026687 -0.10012,8.424879 z"
       id="path6" />
    <path
       id="path20"
       style="color:#000000;mix-blend-mode:normal;fill:#000000;fill-opacity:1;stroke:#000000;stroke-width:0.2;stroke-dasharray:none;stroke-opacity:1;filter:url(#filter20)"
       d="M 31.955052,3.8800688 C 16.618142,3.8785528 4.121899,16.197142 3.906224,31.53046 h 0.025391 c -3.37e-5,0.01102 -0.00195,0.02218 -0.00195,0.0332 -0.037937,4.235897 0.8712907,8.425857 2.65625,12.267578 6.038287,12.881791 20.76745,19.202037 34.265624,14.703125 l -0.0059,-0.01758 0.265625,-0.08789 C 47.148541,56.342045 52.2977,52.263776 55.706968,46.862487 55.961921,46.460855 55.863904,46.01404 55.597593,45.731627 55.331282,45.449215 54.892375,45.32675 54.476499,45.557799 l -0.0059,0.002 -0.0059,0.0059 c -2.667536,2.624536 -6.816625,3.251335 -10.123047,3.267578 -10.324691,0 -19.316406,-7.940749 -19.316406,-17.042969 0.01778,-1.644126 0.627316,-3.194278 1.669921,-4.398437 -1.085013,1.198475 -1.75342,2.727961 -1.771484,4.398437 0,9.168024 9.042016,17.144531 19.417969,17.144531 3.314445,-0.01628 7.482579,-0.644224 10.18164,-3.291015 0.376968,-0.209433 0.762933,-0.09722 1.001954,0.15625 0.239021,0.253472 0.326804,0.643759 0.0957,1.007812 -3.397148,5.382087 -8.525182,9.447908 -14.541016,11.527344 l -0.287109,0.0957 c -0.390115,0.12312 -0.845202,0.246792 -1.335938,0.363281 -0.177447,0.04212 -0.375457,0.07661 -0.564453,0.117188 -0.05821,0.01058 -0.11734,0.01735 -0.175781,0.02734 -0.471439,0.08077 -0.948015,0.146718 -1.431641,0.189453 -0.0078,6.89e-4 -0.0156,0.0013 -0.02344,0.002 -0.19218,0.01674 -0.386578,0.02634 -0.580078,0.03711 -0.08662,0.0048 -0.172934,0.01203 -0.259766,0.01563 -0.181357,0.0076 -0.362826,0.0093 -0.544922,0.01172 -0.129371,0.0016 -0.259044,0.0029 -0.388672,0.002 -0.157148,-0.0011 -0.315293,-0.0048 -0.472656,-0.0098 -0.138655,-0.0044 -0.277319,-0.01019 -0.416016,-0.01758 -0.16235,-0.0086 -0.324102,-0.01861 -0.486328,-0.03125 -0.12844,-0.01005 -0.25651,-0.02257 -0.384766,-0.03516 -0.172142,-0.01684 -0.344018,-0.03328 -0.515624,-0.05469 -0.102507,-0.01282 -0.204391,-0.02853 -0.306641,-0.04297 -0.239031,-0.03368 -0.477665,-0.07076 -0.714844,-0.113281 -0.529816,-0.09515 -1.0548,-0.210652 -1.570312,-0.34961 -0.09571,-0.02578 -0.190082,-0.05474 -0.285157,-0.08203 -0.190845,-0.05481 -0.380349,-0.111033 -0.568359,-0.171875 -0.10801,-0.03493 -0.215285,-0.07245 -0.322266,-0.109375 -0.177914,-0.06144 -0.354485,-0.124483 -0.529297,-0.191406 -0.09637,-0.03688 -0.191752,-0.07474 -0.287109,-0.113281 -0.199637,-0.08072 -0.396979,-0.16593 -0.591797,-0.253907 -0.06826,-0.03082 -0.13745,-0.06009 -0.205078,-0.0918 -0.193784,-0.09087 -0.384003,-0.187002 -0.572266,-0.285156 -0.07718,-0.04024 -0.156223,-0.07767 -0.232421,-0.11914 -0.251133,-0.136646 -0.496702,-0.279835 -0.736329,-0.429688 l -0.0039,-0.002 -0.01758,-0.0059 -0.002,-0.002 c -1.944312,-1.207039 -3.629164,-2.788577 -4.957031,-4.652343 -0.198423,-0.271816 -0.389499,-0.549734 -0.56836,-0.828125 -0.06026,-0.09383 -0.11186,-0.190628 -0.169922,-0.285157 -0.117607,-0.191475 -0.237067,-0.381994 -0.345703,-0.576171 -0.05569,-0.09952 -0.104847,-0.200587 -0.158203,-0.300782 -4.492318,-8.438127 -0.708304,-19.191007 7.978516,-23.845703 0.175391,-0.117911 0.355131,-0.23167 0.542969,-0.333984 l 0.002,-0.002 c 0.683858,-0.322216 1.840624,-0.895356 3.376953,-0.867188 2.199249,0.01609 4.262671,1.059955 5.578125,2.822266 h 0.002 c 0.59981,0.800755 1.0094,1.718122 1.21875,2.685547 0.05564,1.699486 -0.433086,3.283638 -1.529297,4.714843 -0.160389,0.20788 -0.734375,0.550173 -0.734375,1.267578 0,0.59257 0.386077,1.155967 1.054688,1.623047 1.585609,1.102499 3.860774,1.575678 5.742187,1.777344 1.881414,0.201666 3.369297,0.130859 3.376953,0.130859 2.339572,-0.0056 4.634909,-0.639493 6.646485,-1.833984 4.122162,-2.406588 6.671844,-5.588874 6.68164,-10.36914 0.05702,-4.913628 -1.757073,-8.186107 -2.486328,-9.626954 C 52.874865,9.1005588 42.850679,3.8800688 31.955052,3.8800688 Z M 28.046849,26.196475 c -0.420587,0.28275 -0.804085,0.607327 -1.146484,0.96875 0.385093,-0.391017 0.814291,-0.743673 1.285156,-1.046875 -0.04719,0.02478 -0.09177,0.05299 -0.138672,0.07813 z m -1.146484,0.96875 c -0.02559,0.02598 -0.051,0.05179 -0.07617,0.07813 0.02459,-0.0268 0.05114,-0.0517 0.07617,-0.07813 z m -0.07617,0.07813 c -0.04431,0.0483 -0.08605,0.09895 -0.128907,0.148438 0.04402,-0.04863 0.0835,-0.100932 0.128907,-0.148438 z M 31.955052,3.9816308 c 10.863689,0 20.84945,5.203904 25.474609,14.2500002 0.731869,1.446007 2.531334,4.691536 2.47461,9.580079 -0.0097,4.744899 -2.526268,7.886872 -6.63086,10.283203 -1.996198,1.185358 -4.274013,1.81278 -6.595703,1.818359 -0.0077,0 -1.4919,0.07189 -3.365234,-0.128906 -1.873335,-0.2008 -4.135575,-0.675258 -5.695313,-1.759766 -0.652516,-0.455838 -1.011718,-0.991968 -1.011718,-1.541016 0,-0.664785 0.516977,-0.953688 0.710937,-1.205078 1.111898,-1.451685 1.606787,-3.063007 1.548828,-4.789062 h 0.002 c -8.6e-5,-0.0026 -0.0019,-0.0052 -0.002,-0.0078 -2.47e-4,-0.0071 -0.0017,-0.01436 -0.002,-0.02148 -0.0069,-0.184168 -0.01961,-0.369911 -0.03906,-0.556641 -0.01981,-0.190108 -0.04539,-0.381565 -0.07813,-0.574218 -6.62e-4,-0.0039 -0.0013,-0.0078 -0.002,-0.01172 -0.0013,-0.0077 -0.0026,-0.01572 -0.0039,-0.02344 -0.03054,-0.175657 -0.06627,-0.351621 -0.107422,-0.529297 -0.01358,-0.05899 -0.03018,-0.11853 -0.04492,-0.177734 -0.03377,-0.13486 -0.06766,-0.270294 -0.107422,-0.40625 -0.02551,-0.08768 -0.05599,-0.17555 -0.08398,-0.263672 -0.03812,-0.119462 -0.07454,-0.239119 -0.117187,-0.359375 -0.03637,-0.102933 -0.0775,-0.207041 -0.117188,-0.310547 -0.03951,-0.10273 -0.0764,-0.205322 -0.11914,-0.308593 -0.05568,-0.134868 -0.118492,-0.270468 -0.179688,-0.40625 -0.03195,-0.07089 -0.0603,-0.141757 -0.09375,-0.212891 -0.0063,-0.01347 -0.01313,-0.02754 -0.01953,-0.04102 -0.09866,-0.208145 -0.203063,-0.416801 -0.314453,-0.626953 h -0.002 v -0.002 c -0.325367,-0.561523 -0.686454,-1.185218 -1.101563,-1.833984 -1.245328,-1.946298 -2.97459,-4.120152 -5.666016,-5.533203 -0.254497,-0.133545 -0.509894,-0.259079 -0.765624,-0.376953 -0.251916,-0.116067 -0.504389,-0.224326 -0.75586,-0.326172 -0.0039,-0.0016 -0.0079,-0.0023 -0.01172,-0.0039 -0.24941,-0.100816 -0.496984,-0.195454 -0.74414,-0.283203 -0.0059,-0.0021 -0.01168,-0.0038 -0.01758,-0.0059 -0.252888,-0.08957 -0.503513,-0.173201 -0.751953,-0.25 -0.496741,-0.153555 -0.981625,-0.28031 -1.449219,-0.388672 -0.0014,-3.33e-4 -0.0025,-0.0016 -0.0039,-0.002 -0.04157,-0.0096 -0.07786,-0.01412 -0.11914,-0.02344 -0.423838,-0.09553 -0.836362,-0.179444 -1.222656,-0.24414 -0.420137,-0.07036 -0.812348,-0.124753 -1.173828,-0.166016 -0.0057,-6.54e-4 -0.0099,-0.0013 -0.01563,-0.002 -0.344387,-0.03948 -0.653032,-0.06595 -0.93164,-0.08594 -0.586759,-0.04209 -0.998233,-0.04846 -1.205078,-0.04883 v -0.002 h -0.04297 c -0.491339,0 -0.978632,0.02348 -1.460937,0.0625 -0.03181,0.0026 -0.06394,0.0031 -0.0957,0.0059 -0.471256,0.04063 -0.93566,0.101678 -1.396484,0.177734 -0.03505,0.0058 -0.07048,0.0096 -0.105469,0.01563 -0.441783,0.07556 -0.878047,0.168886 -1.308593,0.275391 -0.0612,0.01516 -0.122637,0.02916 -0.183594,0.04492 -0.43074,0.111262 -0.853774,0.240207 -1.271485,0.380859 -0.03828,0.01291 -0.07707,0.02396 -0.115234,0.03711 -0.431074,0.148298 -0.854185,0.312354 -1.269531,0.490235 -0.02525,0.01083 -0.05099,0.02031 -0.07617,0.03125 -0.429751,0.186307 -0.850801,0.389402 -1.261719,0.605468 -0.423636,0.222754 -0.836647,0.460652 -1.238281,0.712891 C 8.0832076,21.167059 5.4136269,24.551419 4.3808333,28.296084 6.1812365,14.575934 17.781354,3.9802308 31.955052,3.9816308 Z m -10.5,12.1933602 c 0.762279,0 5.121453,0.07595 9.164063,2.197265 0.889885,0.467208 1.673163,1.018046 2.36914,1.617188 0.347989,0.299571 0.67436,0.610678 0.980469,0.929687 0.918326,0.95703 1.658727,1.981736 2.279297,2.951172 0.413712,0.646291 0.774253,1.268573 1.099609,1.830078 0.816401,1.540865 1.245969,3.016906 1.355469,4.423829 -0.230795,-0.839948 -0.547331,-1.661177 -1.076172,-2.367188 -1.334164,-1.786575 -3.428239,-2.848924 -5.658203,-2.865234 -1.563762,-0.02867 -2.740597,0.559917 -3.421875,0.880859 l -0.002,0.002 c -0.307373,0.151445 -0.608569,0.310461 -0.904297,0.476563 l -0.002,0.002 c -0.295679,0.166129 -0.587333,0.337487 -0.871094,0.517578 l -0.002,0.002 c -0.283712,0.180117 -0.560509,0.367164 -0.832031,0.560547 l -0.002,0.002 c -0.271479,0.193411 -0.537859,0.393626 -0.796876,0.599609 l -0.002,0.002 c -0.258971,0.206008 -0.511574,0.416878 -0.757812,0.634765 l -0.002,0.002 c -0.493083,0.436439 -0.960026,0.895088 -1.400391,1.375 -9.37e-4,10e-4 -0.001,0.0029 -0.002,0.0039 -0.219479,0.239298 -0.434656,0.483358 -0.640625,0.732422 v 0.002 c -0.206514,0.249766 -0.406954,0.504778 -0.599609,0.763671 v 0.002 c -0.385556,0.518209 -0.743875,1.052917 -1.072266,1.603516 v 0.002 c -0.164014,0.275052 -0.321363,0.553845 -0.470703,0.835938 v 0.002 c -0.149304,0.282089 -0.291424,0.567034 -0.425781,0.855469 v 0.002 c -0.134323,0.288431 -0.261756,0.578965 -0.38086,0.873047 v 0.002 c -0.119069,0.294079 -0.232359,0.589637 -0.335937,0.888672 v 0.002 c -0.103543,0.299032 -0.19933,0.601004 -0.28711,0.904297 -0.08813,0.304443 -0.16826,0.60993 -0.240234,0.917968 -0.07185,0.307469 -0.133976,0.615428 -0.189453,0.925782 -0.33308,1.86251 -0.369464,3.769892 -0.07813,5.648437 0.04854,0.313021 0.106993,0.624521 0.173828,0.935547 0.13373,0.622618 0.303012,1.23917 0.511719,1.849609 0.104254,0.304946 0.218422,0.607344 0.341797,0.908203 0.493557,1.203912 1.140433,2.371808 1.951171,3.482422 1.336093,1.875309 3.033666,3.467423 4.990235,4.681641 l 0.002,0.002 0.01563,0.0059 h 0.002 l 0.0078,0.0039 c 0.213532,0.13331 0.432008,0.260546 0.654297,0.382812 3.063119,1.691642 6.938273,2.390456 10.539062,2.042969 C 24.982924,61.709736 12.192663,55.557775 6.6757552,43.788272 4.8970428,39.959996 3.9934206,35.784681 4.031224,31.563663 c 0,-0.632784 0.05572,-1.273399 0.1523437,-1.916016 0.00532,-0.03186 0.010063,-0.06388 0.015625,-0.0957 0.032131,-0.183905 0.067307,-0.368219 0.1074219,-0.550781 0.00875,-0.03982 0.018214,-0.07939 0.027344,-0.119141 0.043853,-0.191048 0.092129,-0.380982 0.1445313,-0.570312 0.00918,-0.03315 0.017904,-0.06651 0.027344,-0.09961 0.051721,-0.181428 0.1066187,-0.361388 0.1660157,-0.541016 0.017767,-0.05372 0.038197,-0.106611 0.056641,-0.160156 0.060394,-0.175376 0.123855,-0.350013 0.1914063,-0.523437 0.010399,-0.0267 0.020684,-0.05343 0.03125,-0.08008 0.075334,-0.189993 0.1526011,-0.379013 0.2363281,-0.566407 0.012925,-0.02893 0.027893,-0.05707 0.041016,-0.08594 0.083752,-0.184219 0.1700505,-0.367383 0.2617187,-0.548828 0.00786,-0.01556 0.015521,-0.03134 0.023438,-0.04687 0.2044949,-0.401288 0.4282516,-0.795746 0.6699218,-1.181641 0.1249628,-0.199538 0.2542076,-0.396849 0.3886719,-0.591797 0.1078037,-0.156295 0.2221995,-0.309734 0.3359375,-0.46289 0.03585,-0.04827 0.069039,-0.09853 0.1054688,-0.146485 0.1022347,-0.134571 0.2096795,-0.266485 0.3164062,-0.398437 0.048329,-0.05972 0.095298,-0.120521 0.1445312,-0.179688 0.1223264,-0.14708 0.2491451,-0.29005 0.3769532,-0.433594 0.028278,-0.03176 0.055442,-0.06412 0.083984,-0.0957 0.1212522,-0.134165 0.2451582,-0.265617 0.3710937,-0.396484 0.064764,-0.06728 0.1293362,-0.134795 0.1953125,-0.201172 0.1031573,-0.103819 0.2083833,-0.207032 0.3144531,-0.308594 0.074801,-0.07159 0.1503424,-0.142453 0.2265625,-0.21289 0.1120466,-0.103597 0.2247882,-0.207555 0.3398438,-0.308594 0.079967,-0.07019 0.162751,-0.138111 0.2441406,-0.207031 0.1104236,-0.09355 0.2209936,-0.186185 0.3339844,-0.277344 0.091663,-0.07392 0.1840271,-0.146441 0.2773431,-0.21875 0.10492,-0.08134 0.209441,-0.162936 0.316406,-0.242188 0.100775,-0.07463 0.204092,-0.14797 0.306641,-0.220703 0.117129,-0.0831 0.234124,-0.165523 0.353516,-0.246093 0.06693,-0.04517 0.135496,-0.08845 0.203125,-0.132813 0.143637,-0.09421 0.286884,-0.188822 0.433593,-0.279297 0.05569,-0.03434 0.113804,-0.06582 0.169922,-0.09961 0.161317,-0.0971 0.323476,-0.194632 0.488281,-0.287109 0.111785,-0.06275 0.226503,-0.121076 0.339844,-0.181641 0.124993,-0.06677 0.248166,-0.135161 0.375,-0.199219 0.06768,-0.03418 0.136884,-0.06621 0.205078,-0.09961 0.169136,-0.08284 0.339515,-0.164265 0.511719,-0.242188 0.09426,-0.04266 0.190009,-0.08384 0.285156,-0.125 0.142684,-0.0617 0.285058,-0.123381 0.429688,-0.18164 0.119081,-0.04799 0.239016,-0.09306 0.359375,-0.138672 0.133541,-0.05059 0.267279,-0.100832 0.402344,-0.148438 0.121629,-0.04288 0.244362,-0.08263 0.367187,-0.123047 0.125044,-0.04114 0.25071,-0.08254 0.376953,-0.121093 0.128522,-0.03925 0.258949,-0.07677 0.388672,-0.113282 0.141958,-0.03994 0.284391,-0.07667 0.427734,-0.113281 0.117742,-0.03009 0.234873,-0.06009 0.353516,-0.08789 0.147696,-0.0346 0.296274,-0.06666 0.445313,-0.09766 0.12072,-0.02512 0.241714,-0.04955 0.363281,-0.07227 0.148259,-0.0277 0.2978,-0.0521 0.447266,-0.07617 0.117847,-0.01899 0.234949,-0.03994 0.353515,-0.05664 0.186493,-0.02626 0.374319,-0.0459 0.5625,-0.06641 0.08531,-0.0093 0.17022,-0.0212 0.255859,-0.0293 0.217499,-0.02056 0.436735,-0.03613 0.65625,-0.04883 0.05357,-0.0031 0.106476,-0.0091 0.160157,-0.01172 0.0072,-3.5e-4 0.01432,3.42e-4 0.02148,0 0.284302,-0.01356 0.570147,-0.02148 0.857422,-0.02148 z"
       transform="matrix(0.88024792,0,0,0.88024792,3.8708514,3.8944873)" />
  </g>
  <path
     id="rect1"
     style="fill:url(#radialGradient2);stroke:none;stroke-width:0.5;fill-opacity:1"
     d="m 38.177298,44.955791 16.559959,0 a 4.8879761,4.8879761 45 0 1 4.887976,4.887976 v 3.392004 a 4.8879761,4.8879761 135 0 1 -4.887976,4.887976 H 38.177298 a 4.8879761,4.8879761 45 0 1 -4.887976,-4.887976 v -3.392004 a 4.8879761,4.8879761 135 0 1 4.887976,-4.887976 z"
     inkscape:path-effect="#path-effect2"
     inkscape:original-d="M 33.289322,44.955791 H 59.625233 V 58.123747 H 33.289322 Z" />
  <path
     id="rect1-0"
     style="fill:none;fill-opacity:1;stroke:#000000;stroke-width:0.2;stroke-opacity:1;stroke-dasharray:none;filter:url(#filter2)"
     d="m 38.177298,44.955791 16.559959,0 a 4.8879761,4.8879761 45 0 1 4.887976,4.887976 v 3.392004 a 4.8879761,4.8879761 135 0 1 -4.887976,4.887976 H 38.177298 a 4.8879761,4.8879761 45 0 1 -4.887976,-4.887976 v -3.392004 a 4.8879761,4.8879761 135 0 1 4.887976,-4.887976 z"
     inkscape:path-effect="#path-effect2-9"
     inkscape:original-d="M 33.289322,44.955791 H 59.625233 V 58.123747 H 33.289322 Z" />
  <text
     xml:space="preserve"
     id="text2"
     style="font-family:'RobotoMono Nerd Font Mono';-inkscape-font-specification:'RobotoMono Nerd Font Mono';white-space:pre;shape-inside:url(#rect2);fill:#003c2a;fill-opacity:1;stroke:none;stroke-width:0.5"
     transform="matrix(0.77107445,0,0,0.77107445,13.020263,21.394779)"><tspan
       x="30.326172"
       y="42.846747"
       id="tspan4"><tspan
         style="font-weight:bold;font-family:'Helvetica Neue';-inkscape-font-specification:'Helvetica Neue Bold'"
         id="tspan2">Beta</tspan></tspan></text>
</svg>
