<?xml version="1.0" encoding="UTF-8" standalone="no"?>
<svg
   width="64"
   height="64"
   version="1.1"
   id="svg6"
   sodipodi:docname="microsoft-365.svg"
   inkscape:version="1.3.2 (091e20ef0f, 2023-11-25, custom)"
   xml:space="preserve"
   xmlns:inkscape="http://www.inkscape.org/namespaces/inkscape"
   xmlns:sodipodi="http://sodipodi.sourceforge.net/DTD/sodipodi-0.dtd"
   xmlns:xlink="http://www.w3.org/1999/xlink"
   xmlns="http://www.w3.org/2000/svg"
   xmlns:svg="http://www.w3.org/2000/svg"><defs
     id="defs6"><radialGradient
       id="paint0_radial_2994_8373"
       cx="0"
       cy="0"
       r="1"
       gradientUnits="userSpaceOnUse"
       gradientTransform="matrix(-13.910974,37.151232,-64.799341,-24.263582,24.175023,16.112307)"><stop
         offset="0.06441"
         stop-color="#AE7FE2"
         id="stop8" /><stop
         offset="1"
         stop-color="#0078D4"
         id="stop9" /></radialGradient><linearGradient
       id="paint1_linear_2994_8373"
       x1="17.5119"
       y1="37.8685"
       x2="12.7513"
       y2="29.6347"
       gradientUnits="userSpaceOnUse"
       gradientTransform="matrix(1.1889532,0,0,1.1889532,3.4651225,3.4638659)"><stop
         offset="0"
         stop-color="#114A8B"
         id="stop10-3"
         style="stop-color:#2774cc;stop-opacity:1;" /><stop
         offset="1"
         stop-color="#0078D4"
         stop-opacity="0"
         id="stop11-5" /></linearGradient><radialGradient
       id="paint2_radial_2994_8373"
       cx="0"
       cy="0"
       r="1"
       gradientUnits="userSpaceOnUse"
       gradientTransform="matrix(36.524401,-5.3720716,3.5486127,24.126809,15.865786,46.683623)"><stop
         offset="0.133928"
         stop-color="#D59DFF"
         id="stop12-6" /><stop
         offset="1"
         stop-color="#5E438F"
         id="stop13-2" /></radialGradient><linearGradient
       id="paint3_linear_2994_8373"
       x1="40.3566"
       y1="25.3768"
       x2="35.2552"
       y2="32.6916"
       gradientUnits="userSpaceOnUse"
       gradientTransform="matrix(1.1889532,0,0,1.1889532,3.4651225,3.4638659)"><stop
         offset="0"
         stop-color="#493474"
         id="stop14"
         style="stop-color:#7e4fde;stop-opacity:1;" /><stop
         offset="1"
         stop-color="#8C66BA"
         stop-opacity="0"
         id="stop15"
         style="stop-color:#8b5ac7;stop-opacity:0;" /></linearGradient><radialGradient
       id="paint4_radial_2994_8373"
       cx="0"
       cy="0"
       r="1"
       gradientUnits="userSpaceOnUse"
       gradientTransform="matrix(-28.723091,-7.2829967,12.260243,-48.352634,52.277835,34.975882)"><stop
         offset="0.0584996"
         stop-color="#50E6FF"
         id="stop16" /><stop
         offset="1"
         stop-color="#436DCD"
         id="stop17" /></radialGradient><linearGradient
       id="paint5_linear_2994_8373"
       x1="16.9758"
       y1="3.05655"
       x2="24.4868"
       y2="3.05655"
       gradientUnits="userSpaceOnUse"><stop
         offset="0"
         stop-color="#2D3F80"
         id="stop18"
         style="stop-color:#3a7bd8;stop-opacity:1;" /><stop
         offset="1"
         stop-color="#436DCD"
         stop-opacity="0"
         id="stop19"
         style="stop-color:#3173ca;stop-opacity:0;" /></linearGradient><radialGradient
       id="paint6_radial_2994_8373"
       cx="0"
       cy="0"
       r="1"
       gradientUnits="userSpaceOnUse"
       gradientTransform="matrix(-31.430033,-7.9693661,13.415682,-52.909517,54.188873,35.256361)"><stop
         offset="0.0584996"
         stop-color="#50E6FF"
         id="stop20" /><stop
         offset="1"
         stop-color="#436DCD"
         id="stop21" /></radialGradient><linearGradient
       inkscape:collect="always"
       xlink:href="#paint5_linear_2994_8373"
       id="linearGradient4"
       gradientUnits="userSpaceOnUse"
       x1="16.9758"
       y1="3.05655"
       x2="24.4868"
       y2="3.05655"
       gradientTransform="matrix(1.1889532,0,0,1.1889532,3.4651225,3.4638659)" /><radialGradient
       id="paint0_radial_2994_8373-9"
       cx="0"
       cy="0"
       r="1"
       gradientUnits="userSpaceOnUse"
       gradientTransform="matrix(-15.221982,40.652465,-70.906207,-26.550248,77.723019,19.82722)"><stop
         offset="0.06441"
         stop-color="#AE7FE2"
         id="stop8-1" /><stop
         offset="1"
         stop-color="#0078D4"
         id="stop9-2" /></radialGradient><radialGradient
       id="paint2_radial_2994_8373-7"
       cx="0"
       cy="0"
       r="1"
       gradientUnits="userSpaceOnUse"
       gradientTransform="matrix(39.96656,-5.8783502,3.8830436,26.400585,68.630697,53.27966)"><stop
         offset="0.133928"
         stop-color="#D59DFF"
         id="stop12-6-0" /><stop
         offset="1"
         stop-color="#5E438F"
         id="stop13-2-9" /></radialGradient><radialGradient
       id="paint4_radial_2994_8373-3"
       cx="0"
       cy="0"
       r="1"
       gradientUnits="userSpaceOnUse"
       gradientTransform="matrix(-31.430033,-7.9693661,13.415682,-52.909517,108.47431,40.46855)"><stop
         offset="0.0584996"
         stop-color="#50E6FF"
         id="stop16-6" /><stop
         offset="1"
         stop-color="#436DCD"
         id="stop17-0" /></radialGradient></defs><sodipodi:namedview
     id="namedview6"
     pagecolor="#505050"
     bordercolor="#eeeeee"
     borderopacity="1"
     inkscape:showpageshadow="0"
     inkscape:pageopacity="0"
     inkscape:pagecheckerboard="0"
     inkscape:deskcolor="#505050"
     inkscape:zoom="13.171875"
     inkscape:cx="33.290628"
     inkscape:cy="30.102016"
     inkscape:window-width="1920"
     inkscape:window-height="1012"
     inkscape:window-x="0"
     inkscape:window-y="0"
     inkscape:window-maximized="1"
     inkscape:current-layer="svg6" /><path
     d="M 27.344297,7.0614957 27.077139,7.2230863 C 26.652207,7.480138 26.251887,7.7675437 25.878318,8.0815819 l 0.77056,-0.5420081 h 6.540075 l 1.188953,9.0027772 -5.944766,5.944766 -5.944766,4.132088 v 4.76473 c 0,3.327881 1.73932,6.413808 4.586268,8.137078 l 6.258293,3.788124 -13.222467,7.713096 H 17.560282 L 12.807167,48.145204 C 9.9602075,46.421935 8.2209354,43.336007 8.2209354,40.008127 V 23.985912 c 0,-3.32895 1.7403779,-6.41571 4.5887886,-8.138623 L 27.077139,7.2172367 c 0.08846,-0.053479 0.177511,-0.1053889 0.267158,-0.155741 z"
     fill="url(#paint0_radial_2994_8373)"
     id="path1"
     style="fill:url(#paint0_radial_2994_8373);stroke-width:1.18895" /><path
     d="M 27.344297,7.0614957 27.077139,7.2230863 C 26.652207,7.480138 26.251887,7.7675437 25.878318,8.0815819 l 0.77056,-0.5420081 h 6.540075 l 1.188953,9.0027772 -5.944766,5.944766 -5.944766,4.132088 v 4.76473 c 0,3.327881 1.73932,6.413808 4.586268,8.137078 l 6.258293,3.788124 -13.222467,7.713096 H 17.560282 L 12.807167,48.145204 C 9.9602075,46.421935 8.2209354,43.336007 8.2209354,40.008127 V 23.985912 c 0,-3.32895 1.7403779,-6.41571 4.5887886,-8.138623 L 27.077139,7.2172367 c 0.08846,-0.053479 0.177511,-0.1053889 0.267158,-0.155741 z"
     fill="url(#paint1_linear_2994_8373)"
     id="path2-3"
     style="fill:url(#paint1_linear_2994_8373);stroke-width:1.18895;opacity:0.57323456" /><path
     d="m 41.511625,26.053977 v 5.326867 c 0,3.32788 -1.739319,6.413809 -4.586267,8.137077 l -14.267439,8.636081 c -2.918642,1.766665 -6.550062,1.830393 -9.520067,0.191303 l 13.936671,8.435979 c 3.027788,1.832772 6.822927,1.832772 9.850835,0 l 14.267438,-8.636199 c 2.846948,-1.72327 4.586149,-4.809197 4.586149,-8.137077 V 36.160079 L 54.589992,34.37665 Z"
     fill="url(#paint2_radial_2994_8373)"
     id="path3-6"
     style="fill:url(#paint2_radial_2994_8373);stroke-width:1.18895" /><path
     d="m 41.511625,26.053977 v 5.326867 c 0,3.32788 -1.739319,6.413809 -4.586267,8.137077 l -14.267439,8.636081 c -2.918642,1.766665 -6.550062,1.830393 -9.520067,0.191303 l 13.936671,8.435979 c 3.027788,1.832772 6.822927,1.832772 9.850835,0 l 14.267438,-8.636199 c 2.846948,-1.72327 4.586149,-4.809197 4.586149,-8.137077 V 36.160079 L 54.589992,34.37665 Z"
     fill="url(#paint3_linear_2994_8373)"
     id="path4-7"
     style="fill:url(#paint3_linear_2994_8373);stroke-width:1.18895;opacity:0.57323456" /><path
     d="M 51.190299,15.84717 36.922861,7.2171297 C 33.990069,5.4431282 30.337962,5.3881748 27.360586,7.0522575 l -0.283447,0.171447 c -2.848375,1.722936 -4.588765,4.8096255 -4.588765,8.1386105 v 11.275913 l 4.588765,-2.775729 c 3.0266,-1.830632 6.819122,-1.830632 9.845722,0 l 14.267438,8.630017 c 2.759323,1.669171 4.478906,4.618012 4.583653,7.827117 0.0035,-0.103677 0.0051,-0.207473 0.0051,-0.311625 V 23.985793 c 0,-3.328951 -1.74039,-6.415711 -4.588766,-8.138623 z"
     fill="url(#paint4_radial_2994_8373)"
     id="path5"
     style="fill:url(#paint4_radial_2994_8373);stroke-width:1.18895" /><path
     d="M 51.190299,15.84717 36.922861,7.2171297 C 33.990069,5.4431282 30.337962,5.3881748 27.360586,7.0522575 l -0.283447,0.171447 c -2.848375,1.722936 -4.588765,4.8096255 -4.588765,8.1386105 v 11.275913 l 4.588765,-2.775729 c 3.0266,-1.830632 6.819122,-1.830632 9.845722,0 l 14.267438,8.630017 c 2.759323,1.669171 4.478906,4.618012 4.583653,7.827117 0.0035,-0.103677 0.0051,-0.207473 0.0051,-0.311625 V 23.985793 c 0,-3.328951 -1.74039,-6.415711 -4.588766,-8.138623 z"
     fill="url(#paint5_linear_2994_8373)"
     id="path6"
     style="fill:url(#linearGradient4);stroke-width:1.18895;opacity:0.57323456" /></svg>
