<?xml version="1.0" encoding="UTF-8" standalone="no"?>
<svg
   width="64"
   height="64"
   version="1"
   id="svg6"
   sodipodi:docname="appimagekit-minetime.svg"
   inkscape:version="1.3.2 (091e20ef0f, 2023-11-25, custom)"
   xmlns:inkscape="http://www.inkscape.org/namespaces/inkscape"
   xmlns:sodipodi="http://sodipodi.sourceforge.net/DTD/sodipodi-0.dtd"
   xmlns="http://www.w3.org/2000/svg"
   xmlns:svg="http://www.w3.org/2000/svg">
  <defs
     id="defs6">
    <filter
       inkscape:collect="always"
       style="color-interpolation-filters:sRGB"
       id="filter6"
       x="-0.15449598"
       y="-0.069772451"
       width="1.308992"
       height="1.1395449">
      <feGaussianBlur
         inkscape:collect="always"
         stdDeviation="0.90122958"
         id="feGaussianBlur6" />
    </filter>
    <filter
       inkscape:collect="always"
       style="color-interpolation-filters:sRGB"
       id="filter7"
       x="-0.079033564"
       y="-0.071385181"
       width="1.1580671"
       height="1.1427704">
      <feGaussianBlur
         inkscape:collect="always"
         stdDeviation="0.90122958"
         id="feGaussianBlur7" />
    </filter>
    <filter
       inkscape:collect="always"
       style="color-interpolation-filters:sRGB"
       id="filter8"
       x="-0.064096888"
       y="-0.064096888"
       width="1.1281938"
       height="1.1281938">
      <feGaussianBlur
         inkscape:collect="always"
         stdDeviation="1.4539274"
         id="feGaussianBlur8" />
    </filter>
  </defs>
  <sodipodi:namedview
     id="namedview6"
     pagecolor="#505050"
     bordercolor="#eeeeee"
     borderopacity="1"
     inkscape:showpageshadow="0"
     inkscape:pageopacity="0"
     inkscape:pagecheckerboard="0"
     inkscape:deskcolor="#505050"
     inkscape:zoom="9.3139221"
     inkscape:cx="34.303486"
     inkscape:cy="32.907726"
     inkscape:window-width="1920"
     inkscape:window-height="1010"
     inkscape:window-x="0"
     inkscape:window-y="0"
     inkscape:window-maximized="1"
     inkscape:current-layer="svg6" />
  <path
     style="fill:#e4e4e4"
     d="M 32,4.0000001 C 16.488,4.0000001 4,16.488 4,32 4,47.512 16.488,60 32,60 47.512,60 60,47.512 60,32 60,16.488 47.512,4.0000001 32,4.0000001 Z"
     id="path2" />
  <path
     style="fill:#e4e4e4"
     d="M 32,4 C 16.488,4 4,16.488 4,32 4,47.512 16.488,60 32,60 47.512,60 60,47.512 60,32 60,16.488 47.512,4 32,4 Z"
     id="path2-7" />
  <path
     style="fill:none;stroke:#000000;stroke-opacity:1;filter:url(#filter8);stroke-width:0.19999992;stroke-dasharray:none"
     d="M 32,4 C 16.488,4 4,16.488 4,32 4,47.512 16.488,60 32,60 47.512,60 60,47.512 60,32 60,16.488 47.512,4 32,4 Z"
     id="path2-7-6" />
  <path
     style="fill:#878787;fill-opacity:1"
     d="m 22.607494,16.000001 -1.896536,1.096541 -0.606674,0.350017 -2.09603,1.211391 -0.0083,0.0055 0.0083,0.0055 v 1.949726 23.581332 L 22,47.000072 26,44.199928 V 27.436902 l 6,4.100786 6,-4.100786 v 16.763026 l 4,2.800144 3.991744,-2.800144 V 20.618596 18.668888 L 46,18.663428 45.991744,18.657968 43.895716,17.446577 43.289042,17.09656 41.392508,16.000019 32,21.941116 Z"
     id="path4" />
  <path
     style="opacity:0.2"
     d="m 22.583389,15.896921 -1.896536,1.096541 -0.606674,0.350017 -2.09603,1.211391 -0.0083,0.0055 0.0083,0.0055 v 1.949726 23.581332 l 3.991746,2.800064 4,-2.800144 V 27.333822 l 6.000001,4.100786 v -9.596572 z"
     id="path5" />
  <path
     style="fill:none;stroke:#000000;stroke-linejoin:round;stroke-opacity:1;stroke-width:0.1;stroke-dasharray:none;filter:url(#filter7)"
     d="m 22.6672,15.964427 -1.896536,1.096541 -0.606674,0.350017 -2.09603,1.211391 -0.0083,0.0055 0.0083,0.0055 v 1.949726 23.581332 l 3.991746,2.800064 4,-2.800144 V 27.401328 l 6,4.100786 6,-4.100786 v 16.763026 l 4,2.800144 3.991744,-2.800144 V 20.583022 18.633314 l 0.0083,-0.0055 -0.0083,-0.0055 -2.096028,-1.211391 -0.606674,-0.350017 -1.896534,-1.096541 -9.392508,5.941097 z"
     id="path4-3" />
  <path
     style="opacity:1;fill:none;stroke:#000000;stroke-linejoin:round;stroke-opacity:1;stroke-width:0;stroke-dasharray:none;filter:url(#filter6)"
     d="m 22.643095,15.861347 -1.896536,1.096541 -0.606674,0.350017 -2.09603,1.211391 -0.0083,0.0055 0.0083,0.0055 v 1.949726 23.581332 l 3.991746,2.800064 4,-2.800144 V 27.298248 l 6.000001,4.100786 v -9.596572 z"
     id="path5-5" />
</svg>
