<?xml version="1.0" encoding="UTF-8" standalone="no"?>
<svg
   width="64"
   height="64"
   version="1.1"
   id="svg7"
   sodipodi:docname="solstice-microsoft-365-word.svg"
   inkscape:version="1.3.2 (091e20ef0f, 2023-11-25, custom)"
   xmlns:inkscape="http://www.inkscape.org/namespaces/inkscape"
   xmlns:sodipodi="http://sodipodi.sourceforge.net/DTD/sodipodi-0.dtd"
   xmlns:xlink="http://www.w3.org/1999/xlink"
   xmlns="http://www.w3.org/2000/svg"
   xmlns:svg="http://www.w3.org/2000/svg">
  <defs
     id="defs7">
    <inkscape:path-effect
       effect="fillet_chamfer"
       id="path-effect7"
       is_visible="true"
       lpeversion="1"
       nodesatellites_param="F,0,1,1,0,1.3579942,0,1 @ F,0,1,1,0,1.3579942,0,1 @ F,0,0,1,0,0,0,1 @ F,0,1,1,0,1.3579942,0,1 @ F,0,0,1,0,1.3579942,0,1 @ F,0,0,1,0,1.3012464,0,1 @ F,0,0,1,0,1.3012464,0,1 @ F,0,0,1,0,0,0,1 @ F,0,0,1,0,1.3012464,0,1 @ F,0,0,1,0,1.3012464,0,1 @ F,0,0,1,0,0,0,1 @ F,0,0,1,0,1.3012464,0,1 @ F,0,0,1,0,1.3012464,0,1"
       radius="0"
       unit="px"
       method="auto"
       mode="F"
       chamfer_steps="1"
       flexible="false"
       use_knot_distance="true"
       apply_no_radius="true"
       apply_with_radius="true"
       only_selected="false"
       hide_knots="false" />
    <inkscape:path-effect
       effect="fillet_chamfer"
       id="path-effect1"
       is_visible="true"
       lpeversion="1"
       nodesatellites_param="F,0,0,1,0,0.820305,0,1 @ F,0,0,1,0,0,0,1 @ F,0,1,1,0,0.820305,0,1 @ F,0,0,1,0,1.4086751,0,1 @ F,0,0,1,0,0,0,1 @ F,0,0,1,0,1.4086751,0,1 @ F,0,1,1,0,0.820305,0,1 @ F,0,0,1,0,0,0,1 @ F,0,1,1,0,0.820305,0,1 @ F,0,0,1,0,1.4086751,0,1 @ F,0,0,1,0,0,0,1 @ F,0,0,1,0,1.4086751,0,1"
       radius="0"
       unit="px"
       method="auto"
       mode="F"
       chamfer_steps="1"
       flexible="false"
       use_knot_distance="true"
       apply_no_radius="true"
       apply_with_radius="true"
       only_selected="false"
       hide_knots="false" />
    <filter
       inkscape:collect="always"
       style="color-interpolation-filters:sRGB"
       id="filter15"
       x="-0.17122159"
       y="-0.17122159"
       width="1.3424432"
       height="1.3424432">
      <feGaussianBlur
         inkscape:collect="always"
         stdDeviation="1.8148838"
         id="feGaussianBlur15" />
    </filter>
    <radialGradient
       inkscape:collect="always"
       xlink:href="#linearGradient16"
       id="radialGradient17"
       cx="13.188157"
       cy="31.418594"
       fx="13.188157"
       fy="31.418594"
       r="14.247019"
       gradientUnits="userSpaceOnUse"
       gradientTransform="matrix(5.1961293,1.3922987,-1.1483134,4.2855639,-33.194193,-118.02742)" />
    <linearGradient
       id="linearGradient16"
       inkscape:collect="always">
      <stop
         style="stop-color:#185abd;stop-opacity:1;"
         offset="0"
         id="stop16" />
      <stop
         style="stop-color:#41a5ee;stop-opacity:1;"
         offset="1"
         id="stop17" />
    </linearGradient>
    <filter
       inkscape:collect="always"
       style="color-interpolation-filters:sRGB"
       id="filter16"
       x="-0.13037313"
       y="-0.1117484"
       width="1.2607463"
       height="1.2234968">
      <feGaussianBlur
         inkscape:collect="always"
         stdDeviation="2.5372724"
         id="feGaussianBlur16" />
    </filter>
    <inkscape:path-effect
       effect="fillet_chamfer"
       id="path-effect11-5"
       is_visible="true"
       lpeversion="1"
       nodesatellites_param="F,0,0,1,0,8.2479709,0,1 @ F,0,0,1,0,7.9291551,0,1 @ F,0,1,1,0,7.9291551,0,1 @ F,0,0,1,0,8.2479709,0,1"
       radius="0"
       unit="px"
       method="auto"
       mode="F"
       chamfer_steps="1"
       flexible="false"
       use_knot_distance="true"
       apply_no_radius="true"
       apply_with_radius="true"
       only_selected="false"
       hide_knots="false" />
    <inkscape:path-effect
       effect="fillet_chamfer"
       id="path-effect14"
       is_visible="true"
       lpeversion="1"
       nodesatellites_param="F,0,0,1,0,0,0,1 @ F,0,0,1,0,0,0,1 @ F,0,0,1,0,0,0,1 @ F,0,0,1,0,8.239852,0,1"
       radius="0"
       unit="px"
       method="auto"
       mode="F"
       chamfer_steps="1"
       flexible="false"
       use_knot_distance="true"
       apply_no_radius="true"
       apply_with_radius="true"
       only_selected="false"
       hide_knots="false" />
    <inkscape:path-effect
       effect="fillet_chamfer"
       id="path-effect11"
       is_visible="true"
       lpeversion="1"
       nodesatellites_param="F,0,0,1,0,8.2479709,0,1 @ F,0,0,1,0,7.9291551,0,1 @ F,0,1,1,0,7.9291551,0,1 @ F,0,0,1,0,8.2479709,0,1"
       radius="0"
       unit="px"
       method="auto"
       mode="F"
       chamfer_steps="1"
       flexible="false"
       use_knot_distance="true"
       apply_no_radius="true"
       apply_with_radius="true"
       only_selected="false"
       hide_knots="false" />
  </defs>
  <sodipodi:namedview
     id="namedview7"
     pagecolor="#ffffff"
     bordercolor="#000000"
     borderopacity="0.25"
     inkscape:showpageshadow="2"
     inkscape:pageopacity="0.0"
     inkscape:pagecheckerboard="0"
     inkscape:deskcolor="#d1d1d1"
     inkscape:zoom="9.1150484"
     inkscape:cx="13.987858"
     inkscape:cy="34.942217"
     inkscape:window-width="1920"
     inkscape:window-height="1012"
     inkscape:window-x="0"
     inkscape:window-y="0"
     inkscape:window-maximized="1"
     inkscape:current-layer="svg7" />
  <path
     d="M 14,12.247971 V 52.070845 A 7.9291551,7.9291551 45 0 0 21.929155,60 h 32.14169 A 7.9291551,7.9291551 135 0 0 62,52.070845 L 62,12.247971 A 8.2479709,8.2479709 45 0 0 53.752029,4 H 22.247971 A 8.2479709,8.2479709 135 0 0 14,12.247971 Z"
     style="fill:#103f91;fill-opacity:1"
     id="path11"
     sodipodi:nodetypes="ccccc"
     inkscape:path-effect="#path-effect11"
     inkscape:original-d="M 14,4 V 60 H 62 V 4 Z"
     transform="matrix(0.89043866,0,0,0.89043866,3.1592177,3.5059627)" />
  <path
     id="path19"
     style="fill:#2b7cd3;fill-opacity:1;stroke-width:0.890439"
     d="M 15.62577,19.535156 V 32 h 21.371094 21.36914 V 19.535156 h -21.36914 z" />
  <path
     id="path19-7"
     style="fill:#1650a7;fill-opacity:1;stroke-width:0.890439"
     d="m 15.62577,32 v 12.464844 h 21.371094 21.36914 V 32 h -21.36914 z" />
  <path
     id="path12"
     style="fill:#41a5ee;fill-opacity:1;stroke-width:0.890439"
     d="m 22.96659,7.0683594 c -4.054161,-6.626e-4 -7.341279,3.2856826 -7.341797,7.3398436 v 5.126953 h 21.371094 v -0.002 H 58.366981 V 14.404297 A 7.3370828,7.3370828 0 0 0 51.02909,7.0683594 H 36.995887 Z" />
  <path
     d="M 14,12.247971 V 52.070845 A 7.9291551,7.9291551 45 0 0 21.929155,60 h 32.14169 A 7.9291551,7.9291551 135 0 0 62,52.070845 L 62,12.247971 A 8.2479709,8.2479709 45 0 0 53.752029,4 H 22.247971 A 8.2479709,8.2479709 135 0 0 14,12.247971 Z"
     style="fill:none;stroke:#000000;stroke-width:0.336913;stroke-dasharray:none;stroke-opacity:1;filter:url(#filter16)"
     id="path11-3"
     sodipodi:nodetypes="ccccc"
     inkscape:path-effect="#path-effect11-5"
     inkscape:original-d="M 14,4 V 60 H 62 V 4 Z"
     transform="matrix(0.89043866,0,0,0.89043866,3.1592177,3.5059627)" />
  <rect
     style="fill:url(#radialGradient17);stroke-width:0.890439"
     width="28.494038"
     height="28.494038"
     x="4.9400954"
     y="17.752981"
     rx="7.1988034"
     ry="7.1988034"
     id="rect7-3" />
  <rect
     style="mix-blend-mode:normal;fill:none;stroke:#000000;stroke-width:0.2;stroke-dasharray:none;stroke-opacity:1;filter:url(#filter15)"
     width="26.023127"
     height="26.023127"
     x="7.6033192"
     y="18.988438"
     rx="6.5745463"
     ry="6.5745463"
     id="rect7-7"
     transform="matrix(1.0949506,0,0,1.0949506,-3.3851634,-3.0384185)" />
  <path
     style="fill:#ffffff;stroke-width:0.769023"
     d="m 23.904398,39.690225 h -0.05249 a 1.832798,1.832798 36.536244 0 1 -1.75339,-1.299158 l -2.834498,-9.313352 -2.971176,9.318689 a 1.8583339,1.8583339 143.8422 0 1 -1.770517,1.293821 h -0.05249 a 1.6564866,1.6564866 39.345034 0 1 -1.624319,-1.331623 l -2.55457,-12.77285 a 1.0667669,1.0667669 129.34503 0 1 1.046051,-1.275977 l 0.165989,0 a 1.5872654,1.5872654 39.345034 0 1 1.556441,1.275977 l 1.898068,9.490338 2.855985,-9.519947 a 1.7489151,1.7489151 143.34962 0 1 1.675156,-1.246368 1.5363912,1.5363912 42.544399 0 1 1.363301,1.25118 l 2.71861,9.515135 1.898068,-9.490338 a 1.5872654,1.5872654 140.65497 0 1 1.556441,-1.275977 h 0.01218 a 1.0667669,1.0667669 50.654964 0 1 1.046051,1.275977 l -2.55457,12.77285 a 1.6564865,1.6564865 140.65496 0 1 -1.624318,1.331623 z"
     id="path7"
     inkscape:path-effect="#path-effect7"
     inkscape:original-d="m 25.262392,39.690225 h -2.768481 l -3.229894,-10.61251 -3.383699,10.61251 h -2.768481 l -3.07609,-15.38045 h 2.768481 l 2.153263,10.766315 3.229895,-10.766315 h 2.307067 l 3.07609,10.766315 2.153263,-10.766315 h 2.614675 z" />
</svg>
