<?xml version="1.0" encoding="UTF-8" standalone="no"?>
<svg
   width="64"
   height="64"
   version="1"
   id="svg7"
   sodipodi:docname="preferences-desktop-plasma.svg"
   inkscape:version="1.3.2 (091e20ef0f, 2023-11-25, custom)"
   xmlns:inkscape="http://www.inkscape.org/namespaces/inkscape"
   xmlns:sodipodi="http://sodipodi.sourceforge.net/DTD/sodipodi-0.dtd"
   xmlns="http://www.w3.org/2000/svg"
   xmlns:svg="http://www.w3.org/2000/svg">
  <defs
     id="defs7">
    <inkscape:path-effect
       effect="fillet_chamfer"
       id="path-effect7"
       is_visible="true"
       lpeversion="1"
       nodesatellites_param="F,0,0,1,0,0,0,1 @ F,0,0,1,0,0,0,1 @ F,0,0,1,0,0,0,1 @ F,0,0,1,0,0,0,1 | F,0,0,1,0,1.8482279,0,1 @ F,0,1,1,0,1.8482279,0,1 @ F,0,0,1,0,0.88735634,0,1 @ F,0,1,1,0,1.8482279,0,1 @ F,0,1,1,0,1.8482279,0,1 @ F,0,0,1,0,0,0,1 @ F,0,0,1,0,1.9259872,0,1 @ F,0,0,1,0,0,0,1 | F,0,0,1,0,0,0,1 @ F,0,0,1,0,0,0,1 @ F,0,0,1,0,0,0,1 @ F,0,0,1,0,0,0,1 | F,0,0,1,0,0,0,1 @ F,0,0,1,0,0,0,1 @ F,0,0,1,0,0,0,1 @ F,0,0,1,0,0,0,1"
       radius="0"
       unit="px"
       method="auto"
       mode="F"
       chamfer_steps="1"
       flexible="false"
       use_knot_distance="true"
       apply_no_radius="true"
       apply_with_radius="true"
       only_selected="false"
       hide_knots="false" />
    <radialGradient
       id="SVGID_2_-3-3"
       cx="21.0371"
       cy="56.209099"
       r="40.250599"
       gradientTransform="matrix(1,0,0,-1,0,66)"
       gradientUnits="userSpaceOnUse">
      <stop
         offset="0"
         style="stop-color:#FFFFFF"
         id="stop5-5-6" />
      <stop
         offset="1"
         style="stop-color:#C4C4C4"
         id="stop6-6-7" />
    </radialGradient>
    <radialGradient
       id="SVGID_2_-5"
       cx="21.0371"
       cy="56.209099"
       r="40.250599"
       gradientTransform="matrix(1,0,0,-1,0,66)"
       gradientUnits="userSpaceOnUse">
      <stop
         offset="0"
         style="stop-color:#FFFFFF"
         id="stop5-3" />
      <stop
         offset="1"
         style="stop-color:#C4C4C4"
         id="stop6-56" />
    </radialGradient>
    <radialGradient
       id="SVGID_1_-3-2"
       cx="-159.43106"
       cy="15.462561"
       r="64.706802"
       gradientTransform="matrix(-0.83539893,0,0,0.89978704,-73.322593,48.143648)"
       gradientUnits="userSpaceOnUse"
       fx="-159.43106"
       fy="15.462561">
      <stop
         offset="0"
         style="stop-color:#006fff;stop-opacity:1;"
         id="stop1-6-9" />
      <stop
         offset="1"
         style="stop-color:#15baff;stop-opacity:1;"
         id="stop2-7-1" />
    </radialGradient>
    <inkscape:path-effect
       effect="fillet_chamfer"
       id="path-effect7-3"
       is_visible="true"
       lpeversion="1"
       nodesatellites_param="F,0,0,1,0,0,0,1 @ F,0,0,1,0,0,0,1 @ F,0,0,1,0,0,0,1 @ F,0,0,1,0,0,0,1 | F,0,0,1,0,1.8482279,0,1 @ F,0,1,1,0,1.8482279,0,1 @ F,0,0,1,0,0.88735634,0,1 @ F,0,1,1,0,1.8482279,0,1 @ F,0,1,1,0,1.8482279,0,1 @ F,0,0,1,0,0,0,1 @ F,0,0,1,0,1.9259872,0,1 @ F,0,0,1,0,0,0,1 | F,0,0,1,0,0,0,1 @ F,0,0,1,0,0,0,1 @ F,0,0,1,0,0,0,1 @ F,0,0,1,0,0,0,1 | F,0,0,1,0,0,0,1 @ F,0,0,1,0,0,0,1 @ F,0,0,1,0,0,0,1 @ F,0,0,1,0,0,0,1"
       radius="0"
       unit="px"
       method="auto"
       mode="F"
       chamfer_steps="1"
       flexible="false"
       use_knot_distance="true"
       apply_no_radius="true"
       apply_with_radius="true"
       only_selected="false"
       hide_knots="false" />
    <radialGradient
       id="SVGID_1_-3-2-6"
       cx="-159.43106"
       cy="15.462561"
       r="64.706802"
       gradientTransform="matrix(-0.89413329,0,0,0.96304834,-80.727505,49.278659)"
       gradientUnits="userSpaceOnUse"
       fx="-159.43106"
       fy="15.462561">
      <stop
         offset="0"
         style="stop-color:#006fff;stop-opacity:1;"
         id="stop1-6-9-7" />
      <stop
         offset="1"
         style="stop-color:#15baff;stop-opacity:1;"
         id="stop2-7-1-5" />
    </radialGradient>
    <filter
       inkscape:collect="always"
       style="color-interpolation-filters:sRGB"
       id="filter1"
       x="-0.092243556"
       y="-0.090377274"
       width="1.1844526"
       height="1.1807545">
      <feGaussianBlur
         inkscape:collect="always"
         stdDeviation="1.4229545"
         id="feGaussianBlur1" />
    </filter>
    <filter
       inkscape:collect="always"
       style="color-interpolation-filters:sRGB"
       id="filter2"
       x="-0.11020854"
       y="-0.11020854"
       width="1.2204171"
       height="1.2204171">
      <feGaussianBlur
         inkscape:collect="always"
         stdDeviation="2.4881993"
         id="feGaussianBlur2" />
    </filter>
  </defs>
  <sodipodi:namedview
     id="namedview7"
     pagecolor="#ffffff"
     bordercolor="#000000"
     borderopacity="0.25"
     inkscape:showpageshadow="2"
     inkscape:pageopacity="0.0"
     inkscape:pagecheckerboard="0"
     inkscape:deskcolor="#d1d1d1"
     inkscape:zoom="9.7669124"
     inkscape:cx="33.326807"
     inkscape:cy="36.142435"
     inkscape:window-width="1920"
     inkscape:window-height="1020"
     inkscape:window-x="0"
     inkscape:window-y="0"
     inkscape:window-maximized="1"
     inkscape:current-layer="svg7" />
  <path
     class="st1"
     d="m 21.535712,5.8392809 h 20.928576 c 8.689096,0 15.696431,7.0073351 15.696431,15.6964311 v 20.928576 c 0,8.689096 -7.007335,15.696431 -15.696431,15.696431 H 21.535712 c -8.689096,0 -15.6964311,-7.007335 -15.6964311,-15.696431 V 21.535712 c 0,-8.689096 7.0073351,-15.6964311 15.6964311,-15.6964311 z"
     id="path2-2"
     style="fill:url(#SVGID_1_-3-2);stroke-width:0.934311" />
  <path
     style="fill:#ffffff"
     d="m 22,12 c -1.662,0 -3,1.338 -3,3 0,1.662 1.338,3 3,3 1.662,0 3,-1.338 3,-3 0,-1.662 -1.338,-3 -3,-3 z m 14.394708,1.293517 -3.074572,3.012575 a 1.8110653,1.8110653 90.001667 0 0 -7.5e-5,2.587111 l 6.618428,6.485727 a 0.86956473,0.86956473 90 0 1 0,1.24214 l -6.618428,6.485727 a 1.8110653,1.8110653 89.998333 0 0 7.5e-5,2.587111 l 3.074572,3.012575 a 1.8859381,1.8859381 179.99507 0 0 2.64005,-2.27e-4 l 7.250398,-7.106647 4.339166,-4.251671 a 1.8871513,1.8871513 90 0 0 0,-2.695876 l -4.339166,-4.251671 -7.250398,-7.106647 a 1.8859381,1.8859381 0.00493131 0 0 -2.64005,-2.27e-4 z M 15.5,28 C 13.561014,28 12,29.560986 12,31.5 12,33.438986 13.561014,35 15.5,35 17.439014,35 19,33.438986 19,31.5 19,29.560986 17.439014,28 15.5,28 Z M 27,42 c -2.77,0 -5,2.23 -5,5 0,2.77 2.23,5 5,5 2.77,0 5,-2.23 5,-5 0,-2.77 -2.23,-5 -5,-5 z"
     id="path6"
     inkscape:path-effect="#path-effect7"
     inkscape:original-d="m 22,12 c -1.662,0 -3,1.338 -3,3 0,1.662 1.338,3 3,3 1.662,0 3,-1.338 3,-3 0,-1.662 -1.338,-3 -3,-3 z M 37.714844,12 32,17.599609 40.572266,26 32,34.400391 37.714844,40 46.285156,31.599609 52,26 46.285156,20.400391 Z M 15.5,28 C 13.561014,28 12,29.560986 12,31.5 12,33.438986 13.561014,35 15.5,35 17.439014,35 19,33.438986 19,31.5 19,29.560986 17.439014,28 15.5,28 Z M 27,42 c -2.77,0 -5,2.23 -5,5 0,2.77 2.23,5 5,5 2.77,0 5,-2.23 5,-5 0,-2.77 -2.23,-5 -5,-5 z"
     transform="matrix(0.9343114,0,0,0.9343114,2.4800973,2.1020354)" />
  <path
     class="st1"
     d="M 20.8,4 H 43.2 C 52.5,4 60,11.5 60,20.8 V 43.2 C 60,52.5 52.5,60 43.2,60 H 20.8 C 11.5,60 4,52.5 4,43.2 V 20.8 C 4,11.5 11.5,4 20.8,4 Z"
     id="path2-2-3"
     style="fill:none;stroke:#000000;stroke-width:0.4;stroke-dasharray:none;stroke-opacity:1;filter:url(#filter2)"
     transform="matrix(0.9343114,0,0,0.9343114,2.1020354,2.1020354)" />
  <path
     style="fill:none;stroke:#4800ff;stroke-width:0.4;stroke-dasharray:none;stroke-opacity:1;filter:url(#filter1)"
     d="m 22,12 c -1.662,0 -3,1.338 -3,3 0,1.662 1.338,3 3,3 1.662,0 3,-1.338 3,-3 0,-1.662 -1.338,-3 -3,-3 z m 14.394708,1.293517 -3.074572,3.012575 a 1.8110653,1.8110653 90.001667 0 0 -7.5e-5,2.587111 l 6.618428,6.485727 a 0.86956473,0.86956473 90 0 1 0,1.24214 l -6.618428,6.485727 a 1.8110653,1.8110653 89.998333 0 0 7.5e-5,2.587111 l 3.074572,3.012575 a 1.8859381,1.8859381 179.99507 0 0 2.64005,-2.27e-4 l 7.250398,-7.106647 4.339166,-4.251671 a 1.8871513,1.8871513 90 0 0 0,-2.695876 l -4.339166,-4.251671 -7.250398,-7.106647 a 1.8859381,1.8859381 0.00493131 0 0 -2.64005,-2.27e-4 z M 15.5,28 C 13.561014,28 12,29.560986 12,31.5 12,33.438986 13.561014,35 15.5,35 17.439014,35 19,33.438986 19,31.5 19,29.560986 17.439014,28 15.5,28 Z M 27,42 c -2.77,0 -5,2.23 -5,5 0,2.77 2.23,5 5,5 2.77,0 5,-2.23 5,-5 0,-2.77 -2.23,-5 -5,-5 z"
     id="path6-5"
     inkscape:path-effect="#path-effect7-3"
     inkscape:original-d="m 22,12 c -1.662,0 -3,1.338 -3,3 0,1.662 1.338,3 3,3 1.662,0 3,-1.338 3,-3 0,-1.662 -1.338,-3 -3,-3 z M 37.714844,12 32,17.599609 40.572266,26 32,34.400391 37.714844,40 46.285156,31.599609 52,26 46.285156,20.400391 Z M 15.5,28 C 13.561014,28 12,29.560986 12,31.5 12,33.438986 13.561014,35 15.5,35 17.439014,35 19,33.438986 19,31.5 19,29.560986 17.439014,28 15.5,28 Z M 27,42 c -2.77,0 -5,2.23 -5,5 0,2.77 2.23,5 5,5 2.77,0 5,-2.23 5,-5 0,-2.77 -2.23,-5 -5,-5 z"
     transform="matrix(0.9343114,0,0,0.9343114,2.744691,2.1020354)" />
</svg>
