<?xml version="1.0" encoding="UTF-8" standalone="no"?>
<svg
   width="64"
   height="64"
   version="1"
   id="svg4"
   sodipodi:docname="preferences-system-notifications-rtl.svg"
   inkscape:version="1.3.2 (091e20ef0f, 2023-11-25, custom)"
   xmlns:inkscape="http://www.inkscape.org/namespaces/inkscape"
   xmlns:sodipodi="http://sodipodi.sourceforge.net/DTD/sodipodi-0.dtd"
   xmlns:xlink="http://www.w3.org/1999/xlink"
   xmlns="http://www.w3.org/2000/svg"
   xmlns:svg="http://www.w3.org/2000/svg">
  <defs
     id="defs4">
    <linearGradient
       id="linearGradient5"
       inkscape:collect="always">
      <stop
         style="stop-color:#9a9a9a;stop-opacity:1;"
         offset="0"
         id="stop6" />
      <stop
         style="stop-color:#646464;stop-opacity:1;"
         offset="1"
         id="stop7" />
    </linearGradient>
    <inkscape:path-effect
       effect="fillet_chamfer"
       id="path-effect4"
       is_visible="true"
       lpeversion="1"
       nodesatellites_param="F,0,0,1,0,0,0,1 @ F,0,0,1,0,0,0,1 @ F,0,0,1,0,0,0,1 @ F,0,0,1,0,0,0,1 @ F,0,0,1,0,4.4892908,0,1 @ F,0,0,1,0,2.0455837,0,1 @ F,0,0,1,0,4.4892908,0,1 @ F,0,0,1,0,0,0,1 @ F,0,0,1,0,0,0,1 @ F,0,0,1,0,0,0,1 @ F,0,0,1,0,0,0,1"
       radius="0"
       unit="px"
       method="auto"
       mode="F"
       chamfer_steps="1"
       flexible="false"
       use_knot_distance="true"
       apply_no_radius="true"
       apply_with_radius="true"
       only_selected="false"
       hide_knots="false" />
    <filter
       inkscape:collect="always"
       style="color-interpolation-filters:sRGB"
       id="filter1"
       x="-0.30867661"
       y="-0.051446107"
       width="1.6173532"
       height="1.1028922">
      <feGaussianBlur
         inkscape:collect="always"
         stdDeviation="0.56336652"
         id="feGaussianBlur1" />
    </filter>
    <inkscape:path-effect
       effect="fillet_chamfer"
       id="path-effect5-3"
       is_visible="true"
       lpeversion="1"
       nodesatellites_param="F,0,1,1,0,2.3620733,0,1 @ F,0,1,1,0,2.3620733,0,1 @ F,0,1,1,0,2.3620733,0,1 @ F,0,1,1,0,2.3620733,0,1 | F,0,1,1,0,2.3620733,0,1 @ F,0,1,1,0,2.3620733,0,1 @ F,0,1,1,0,2.3620733,0,1 @ F,0,0,1,0,2.3620733,0,1"
       radius="0"
       unit="px"
       method="auto"
       mode="F"
       chamfer_steps="1"
       flexible="false"
       use_knot_distance="true"
       apply_no_radius="true"
       apply_with_radius="true"
       only_selected="false"
       hide_knots="false" />
    <inkscape:path-effect
       effect="fillet_chamfer"
       id="path-effect5"
       is_visible="true"
       lpeversion="1"
       nodesatellites_param="F,0,1,1,0,2.3620733,0,1 @ F,0,1,1,0,2.3620733,0,1 @ F,0,1,1,0,2.3620733,0,1 @ F,0,1,1,0,2.3620733,0,1 | F,0,1,1,0,2.3620733,0,1 @ F,0,1,1,0,2.3620733,0,1 @ F,0,1,1,0,2.3620733,0,1 @ F,0,0,1,0,2.3620733,0,1"
       radius="0"
       unit="px"
       method="auto"
       mode="F"
       chamfer_steps="1"
       flexible="false"
       use_knot_distance="true"
       apply_no_radius="true"
       apply_with_radius="true"
       only_selected="false"
       hide_knots="false" />
    <filter
       inkscape:collect="always"
       style="color-interpolation-filters:sRGB"
       id="filter5"
       x="-0.099742312"
       y="-0.099742312"
       width="1.1994846"
       height="1.1994846">
      <feGaussianBlur
         inkscape:collect="always"
         stdDeviation="2.1095823"
         id="feGaussianBlur5" />
    </filter>
    <radialGradient
       inkscape:collect="always"
       xlink:href="#linearGradient4"
       id="radialGradient5"
       cx="14.172323"
       cy="48.049175"
       fx="14.172323"
       fy="48.049175"
       r="26.132326"
       gradientUnits="userSpaceOnUse"
       gradientTransform="matrix(1.0630343,-0.81827841,0.68621682,0.89147168,-9.7914299,-4.1030993)" />
    <linearGradient
       id="linearGradient4"
       inkscape:collect="always">
      <stop
         style="stop-color:#ff5a2f;stop-opacity:1;"
         offset="0"
         id="stop4" />
      <stop
         style="stop-color:#ed3f3b;stop-opacity:1;"
         offset="1"
         id="stop5" />
    </linearGradient>
    <radialGradient
       inkscape:collect="always"
       xlink:href="#linearGradient5"
       id="radialGradient7"
       cx="8.0597954"
       cy="45.981403"
       fx="8.0597954"
       fy="45.981403"
       r="25"
       gradientTransform="matrix(1.9936379,-1.1510274,0.99085902,1.7162182,-53.569607,-25.528763)"
       gradientUnits="userSpaceOnUse" />
    <inkscape:path-effect
       effect="fillet_chamfer"
       id="path-effect4-5"
       is_visible="true"
       lpeversion="1"
       nodesatellites_param="F,0,0,1,0,0,0,1 @ F,0,0,1,0,0,0,1 @ F,0,0,1,0,0,0,1 @ F,0,0,1,0,0,0,1 @ F,0,0,1,0,4.4892908,0,1 @ F,0,0,1,0,2.0455837,0,1 @ F,0,0,1,0,4.4892908,0,1 @ F,0,0,1,0,0,0,1 @ F,0,0,1,0,0,0,1 @ F,0,0,1,0,0,0,1 @ F,0,0,1,0,0,0,1"
       radius="0"
       unit="px"
       method="auto"
       mode="F"
       chamfer_steps="1"
       flexible="false"
       use_knot_distance="true"
       apply_no_radius="true"
       apply_with_radius="true"
       only_selected="false"
       hide_knots="false" />
    <filter
       inkscape:collect="always"
       style="color-interpolation-filters:sRGB"
       id="filter7"
       x="-0.13039878"
       y="-0.15147722"
       width="1.2607976"
       height="1.3029003">
      <feGaussianBlur
         inkscape:collect="always"
         stdDeviation="2.6333079"
         id="feGaussianBlur7" />
    </filter>
  </defs>
  <sodipodi:namedview
     id="namedview4"
     pagecolor="#ffffff"
     bordercolor="#000000"
     borderopacity="0.25"
     inkscape:showpageshadow="2"
     inkscape:pageopacity="0.0"
     inkscape:pagecheckerboard="0"
     inkscape:deskcolor="#d1d1d1"
     inkscape:zoom="9.1260969"
     inkscape:cx="31.393487"
     inkscape:cy="29.914212"
     inkscape:window-width="1920"
     inkscape:window-height="1020"
     inkscape:window-x="0"
     inkscape:window-y="0"
     inkscape:window-maximized="1"
     inkscape:current-layer="svg4" />
  <path
     style="fill:url(#radialGradient7)"
     d="M 51.222111,10.999508 C 52.76116,10.999508 54,12.226121 54,13.749537 v 32.500448 c 0,1.523516 -1.23892,2.75003 -2.777889,2.75003 l -20.732756,0 a 9.5848605,9.5848605 154.90287 0 0 -7.363275,3.44876 l -0.81646,0.979746 a 1.7046636,1.7046636 0 0 1 -2.619112,0 l -0.81646,-0.979746 a 9.5848605,9.5848605 25.097128 0 0 -7.363275,-3.44876 H 6.776089 C 5.238039,49.000015 4,47.774001 4,46.249985 V 13.749537 c 0.002,-1.523416 1.240039,-2.750029 2.780089,-2.750029 z"
     id="path2"
     inkscape:path-effect="#path-effect4"
     inkscape:original-d="M 51.222111,10.999508 C 52.76116,10.999508 54,12.226121 54,13.749537 v 32.500448 c 0,1.523516 -1.23892,2.75003 -2.777889,2.75003 H 26.000064 l -5,5.999963 -5,-5.999963 H 6.776089 C 5.238039,49.000015 4,47.774001 4,46.249985 V 13.749537 c 0.002,-1.523416 1.240039,-2.750029 2.780089,-2.750029 z"
     transform="translate(3,-0.52069481)" />
  <path
     style="fill:none;stroke:#000000;stroke-opacity:1;stroke-width:0.39999995;stroke-dasharray:none;filter:url(#filter7)"
     d="M 51.222111,10.999508 C 52.76116,10.999508 54,12.226121 54,13.749537 v 32.500448 c 0,1.523516 -1.23892,2.75003 -2.777889,2.75003 l -20.732756,0 a 9.5848605,9.5848605 154.90287 0 0 -7.363275,3.44876 l -0.81646,0.979746 a 1.7046636,1.7046636 0 0 1 -2.619112,0 l -0.81646,-0.979746 a 9.5848605,9.5848605 25.097128 0 0 -7.363275,-3.44876 H 6.776089 C 5.238039,49.000015 4,47.774001 4,46.249985 V 13.749537 c 0.002,-1.523416 1.240039,-2.750029 2.780089,-2.750029 z"
     id="path2-3"
     inkscape:path-effect="#path-effect4-5"
     inkscape:original-d="M 51.222111,10.999508 C 52.76116,10.999508 54,12.226121 54,13.749537 v 32.500448 c 0,1.523516 -1.23892,2.75003 -2.777889,2.75003 H 26.000064 l -5,5.999963 -5,-5.999963 H 6.776089 C 5.238039,49.000015 4,47.774001 4,46.249985 V 13.749537 c 0.002,-1.523416 1.240039,-2.750029 2.780089,-2.750029 z"
     transform="translate(3,-0.52069481)" />
  <circle
     style="fill:url(#radialGradient5);fill-opacity:1;stroke-width:0.877005"
     cx="47.520008"
     cy="18.347496"
     r="13.593541"
     id="circle4" />
  <circle
     style="mix-blend-mode:normal;fill:none;stroke:#000000;stroke-width:0.3;stroke-dasharray:none;stroke-opacity:1;filter:url(#filter5)"
     cx="39.345325"
     cy="24.345324"
     r="26.132326"
     id="circle3"
     transform="matrix(0.52018106,0,0,0.52018106,27.053316,5.8842923)" />
  <path
     style="fill:#ffffff;stroke-width:1.68596"
     d="m 29.471118,17.502509 v 17.193288 a 2.3620733,2.3620733 45 0 0 2.362073,2.362073 h 0.333724 a 2.3620733,2.3620733 135 0 0 2.362073,-2.362073 V 17.502509 a 2.3620733,2.3620733 45 0 0 -2.362073,-2.362073 h -0.333724 a 2.3620733,2.3620733 135 0 0 -2.362073,2.362073 z m 0,25.289347 0,0.333724 a 2.3620733,2.3620733 45 0 0 2.362073,2.362073 l 0.333724,0 a 2.3620733,2.3620733 135 0 0 2.362073,-2.362073 v -0.333724 a 2.3620733,2.3620733 45 0 0 -2.362073,-2.362073 h -0.333724 a 2.3620733,2.3620733 135 0 0 -2.362073,2.362073 z"
     id="path4"
     inkscape:path-effect="#path-effect5"
     inkscape:original-d="M 29.471118,15.140436 V 37.05787 h 5.05787 V 15.140436 Z m 0,25.289347 v 5.05787 h 5.05787 v -5.05787 z"
     transform="matrix(0.62173143,0,0,0.62173143,27.624837,-0.06119811)" />
  <path
     style="fill:none;stroke:#ff0000;stroke-width:0.418333;stroke-dasharray:none;stroke-opacity:1;filter:url(#filter1)"
     d="m 29.471118,17.502509 v 17.193288 a 2.3620733,2.3620733 45 0 0 2.362073,2.362073 h 0.333724 a 2.3620733,2.3620733 135 0 0 2.362073,-2.362073 V 17.502509 a 2.3620733,2.3620733 45 0 0 -2.362073,-2.362073 h -0.333724 a 2.3620733,2.3620733 135 0 0 -2.362073,2.362073 z m 0,25.289347 0,0.333724 a 2.3620733,2.3620733 45 0 0 2.362073,2.362073 l 0.333724,0 a 2.3620733,2.3620733 135 0 0 2.362073,-2.362073 v -0.333724 a 2.3620733,2.3620733 45 0 0 -2.362073,-2.362073 h -0.333724 a 2.3620733,2.3620733 135 0 0 -2.362073,2.362073 z"
     id="path4-6"
     inkscape:path-effect="#path-effect5-3"
     inkscape:original-d="M 29.471118,15.140436 V 37.05787 h 5.05787 V 15.140436 Z m 0,25.289347 v 5.05787 h 5.05787 v -5.05787 z"
     transform="matrix(0.62173143,0,0,0.62173143,27.623368,-0.06119761)" />
</svg>
