<?xml version="1.0" encoding="UTF-8" standalone="no"?>
<svg
   width="64"
   height="64"
   version="1.1"
   id="svg9"
   sodipodi:docname="preferences-desktop-navigation.svg"
   inkscape:version="1.3.2 (091e20ef0f, 2023-11-25, custom)"
   xmlns:inkscape="http://www.inkscape.org/namespaces/inkscape"
   xmlns:sodipodi="http://sodipodi.sourceforge.net/DTD/sodipodi-0.dtd"
   xmlns:xlink="http://www.w3.org/1999/xlink"
   xmlns="http://www.w3.org/2000/svg"
   xmlns:svg="http://www.w3.org/2000/svg">
  <defs
     id="defs9">
    <inkscape:path-effect
       effect="fillet_chamfer"
       id="path-effect12"
       is_visible="true"
       lpeversion="1"
       nodesatellites_param="F,0,1,1,0,1.1983932,0,1 @ F,0,1,1,0,1.1983932,0,1 @ F,0,0,1,0,2.049706,0,1 @ F,0,1,1,0,1.1983932,0,1 @ F,0,1,1,0,1.1983932,0,1 @ F,0,0,1,0,2.049706,0,1 @ F,0,0,1,0,1.1983932,0,1 @ F,0,1,1,0,1.1983932,0,1 @ F,0,0,1,0,2.049706,0,1 @ F,0,1,1,0,1.1983932,0,1 @ F,0,1,1,0,1.1983932,0,1 @ F,0,0,1,0,2.049706,0,1"
       radius="0"
       unit="px"
       method="auto"
       mode="F"
       chamfer_steps="1"
       flexible="false"
       use_knot_distance="true"
       apply_no_radius="true"
       apply_with_radius="true"
       only_selected="false"
       hide_knots="false" />
    <inkscape:path-effect
       effect="fillet_chamfer"
       id="path-effect11"
       is_visible="true"
       lpeversion="1"
       nodesatellites_param="F,0,0,1,0,0,0,1 @ F,0,0,1,0,3.8743194,0,1 @ F,0,0,1,0,0,0,1"
       radius="0"
       unit="px"
       method="auto"
       mode="F"
       chamfer_steps="1"
       flexible="false"
       use_knot_distance="true"
       apply_no_radius="true"
       apply_with_radius="true"
       only_selected="false"
       hide_knots="false" />
    <inkscape:path-effect
       effect="fillet_chamfer"
       id="path-effect10"
       is_visible="true"
       lpeversion="1"
       nodesatellites_param="F,0,0,1,0,0,0,1 @ F,0,0,1,0,3.8992246,0,1 @ F,0,0,1,0,0,0,1"
       radius="0"
       unit="px"
       method="auto"
       mode="F"
       chamfer_steps="1"
       flexible="false"
       use_knot_distance="true"
       apply_no_radius="true"
       apply_with_radius="true"
       only_selected="false"
       hide_knots="false" />
    <linearGradient
       id="linearGradient9"
       inkscape:collect="always">
      <stop
         style="stop-color:#00dfff;stop-opacity:1;"
         offset="0"
         id="stop9" />
      <stop
         style="stop-color:#008aff;stop-opacity:1;"
         offset="1"
         id="stop10" />
    </linearGradient>
    <radialGradient
       inkscape:collect="always"
       xlink:href="#linearGradient9"
       id="radialGradient10"
       cx="8.2988987"
       cy="8.8983488"
       fx="8.2988987"
       fy="8.8983488"
       r="29"
       gradientUnits="userSpaceOnUse"
       gradientTransform="matrix(0.51693199,1.9292164,-1.9292164,0.51693199,21.695635,-11.209411)" />
    <inkscape:path-effect
       effect="fillet_chamfer"
       id="path-effect10-3"
       is_visible="true"
       lpeversion="1"
       nodesatellites_param="F,0,0,1,0,0,0,1 @ F,0,0,1,0,3.8992246,0,1 @ F,0,0,1,0,0,0,1"
       radius="0"
       unit="px"
       method="auto"
       mode="F"
       chamfer_steps="1"
       flexible="false"
       use_knot_distance="true"
       apply_no_radius="true"
       apply_with_radius="true"
       only_selected="false"
       hide_knots="false" />
    <inkscape:path-effect
       effect="fillet_chamfer"
       id="path-effect11-6"
       is_visible="true"
       lpeversion="1"
       nodesatellites_param="F,0,0,1,0,0,0,1 @ F,0,0,1,0,3.8743194,0,1 @ F,0,0,1,0,0,0,1"
       radius="0"
       unit="px"
       method="auto"
       mode="F"
       chamfer_steps="1"
       flexible="false"
       use_knot_distance="true"
       apply_no_radius="true"
       apply_with_radius="true"
       only_selected="false"
       hide_knots="false" />
    <inkscape:path-effect
       effect="fillet_chamfer"
       id="path-effect12-7"
       is_visible="true"
       lpeversion="1"
       nodesatellites_param="F,0,1,1,0,1.1983932,0,1 @ F,0,1,1,0,1.1983932,0,1 @ F,0,0,1,0,2.049706,0,1 @ F,0,1,1,0,1.1983932,0,1 @ F,0,1,1,0,1.1983932,0,1 @ F,0,0,1,0,2.049706,0,1 @ F,0,0,1,0,1.1983932,0,1 @ F,0,1,1,0,1.1983932,0,1 @ F,0,0,1,0,2.049706,0,1 @ F,0,1,1,0,1.1983932,0,1 @ F,0,1,1,0,1.1983932,0,1 @ F,0,0,1,0,2.049706,0,1"
       radius="0"
       unit="px"
       method="auto"
       mode="F"
       chamfer_steps="1"
       flexible="false"
       use_knot_distance="true"
       apply_no_radius="true"
       apply_with_radius="true"
       only_selected="false"
       hide_knots="false" />
    <filter
       inkscape:collect="always"
       style="color-interpolation-filters:sRGB"
       id="filter17"
       x="-0.060925764"
       y="-0.060925764"
       width="1.1218515"
       height="1.1218515">
      <feGaussianBlur
         inkscape:collect="always"
         stdDeviation="1.2918234"
         id="feGaussianBlur17" />
    </filter>
    <filter
       inkscape:collect="always"
       style="color-interpolation-filters:sRGB"
       id="filter18"
       x="-0.085427699"
       y="-0.085427699"
       width="1.1708554"
       height="1.1708554">
      <feGaussianBlur
         inkscape:collect="always"
         stdDeviation="1.2918234"
         id="feGaussianBlur18" />
    </filter>
    <filter
       inkscape:collect="always"
       style="color-interpolation-filters:sRGB"
       id="filter19"
       x="-0.21358596"
       y="-0.21797277"
       width="1.4315587"
       height="1.4315587">
      <feGaussianBlur
         inkscape:collect="always"
         stdDeviation="1.2918234"
         id="feGaussianBlur19" />
    </filter>
    <filter
       inkscape:collect="always"
       style="color-interpolation-filters:sRGB"
       id="filter20"
       x="-0.218197"
       y="-0.21391472"
       width="1.4319959"
       height="1.4321372">
      <feGaussianBlur
         inkscape:collect="always"
         stdDeviation="1.2918234"
         id="feGaussianBlur20" />
    </filter>
    <filter
       inkscape:collect="always"
       style="color-interpolation-filters:sRGB"
       id="filter21"
       x="-0.18889016"
       y="-0.18889016"
       width="1.3777803"
       height="1.3777803">
      <feGaussianBlur
         inkscape:collect="always"
         stdDeviation="0.45293725"
         id="feGaussianBlur21" />
    </filter>
  </defs>
  <sodipodi:namedview
     id="namedview9"
     pagecolor="#ffffff"
     bordercolor="#000000"
     borderopacity="0.25"
     inkscape:showpageshadow="2"
     inkscape:pageopacity="0.0"
     inkscape:pagecheckerboard="0"
     inkscape:deskcolor="#d1d1d1"
     inkscape:zoom="9.1260969"
     inkscape:cx="22.956145"
     inkscape:cy="26.736512"
     inkscape:window-width="1920"
     inkscape:window-height="1020"
     inkscape:window-x="0"
     inkscape:window-y="0"
     inkscape:window-maximized="1"
     inkscape:current-layer="svg9" />
  <circle
     style="fill:url(#radialGradient10);stroke-width:0.978227"
     cx="32.003834"
     cy="31.999475"
     r="28.368603"
     id="circle2" />
  <path
     style="fill:#ffffff;fill-opacity:1;stroke-width:0.828089"
     d="m 28.511309,13.284691 c -7.739176,1.422728 -13.803891,7.487445 -15.226619,15.22662 -0.119646,0.650839 0.300328,1.424507 0.892369,1.720378 l 1.704908,0.852024 a 1.0243364,1.0243364 90 0 1 0,1.832574 l -1.704908,0.852024 c -0.592041,0.295871 -1.012015,1.06954 -0.892368,1.72038 1.422728,7.739176 7.487445,13.803892 15.22662,15.226618 0.650839,0.119646 1.424507,-0.300328 1.720378,-0.892368 l 0.852024,-1.704908 a 1.0243366,1.0243366 0 0 1 1.832574,0 l 0.852024,1.704908 c 0.295871,0.59204 1.06954,1.012014 1.720381,0.892367 7.739175,-1.422726 13.803891,-7.487444 15.226617,-15.226619 0.119646,-0.650839 -0.300328,-1.424507 -0.892368,-1.720378 l -1.704908,-0.852024 a 1.0243366,1.0243366 90 0 1 0,-1.832574 l 1.704908,-0.852024 c 0.59204,-0.295871 1.012014,-1.06954 0.892367,-1.720381 -1.422726,-7.739175 -7.487444,-13.80389 -15.226619,-15.226618 -0.650839,-0.119646 -1.424507,0.300328 -1.720378,0.892368 l -0.852024,1.704908 a 1.0243366,1.0243366 0 0 1 -1.832574,0 l -0.852024,-1.704908 c -0.295871,-0.59204 -1.06954,-1.012014 -1.72038,-0.892367 z"
     id="path3"
     inkscape:path-effect="#path-effect12"
     inkscape:original-d="M 29.695967,13.105075 C 20.997473,14.147066 14.147066,20.997473 13.105075,29.695967 L 17.715465,32 l -4.61039,2.304033 c 1.041991,8.698494 7.892398,15.548902 16.590892,16.590891 L 32,46.284535 34.304033,50.894924 C 43.002527,49.852935 49.852935,43.002527 50.894924,34.304033 L 46.284535,32 50.894924,29.695967 C 49.852935,20.997473 43.002527,14.147066 34.304033,13.105075 L 32,17.715464 Z"
     transform="matrix(1.0801098,0,0,1.0801098,-2.5596788,-2.5640369)" />
  <path
     d="m 28.01423,27.988479 -7.971372,14.34889 c -0.586051,1.051248 0.574229,2.211529 1.625477,1.625477 l 14.386839,-7.992454 -0.03163,-0.03163 -0.02108,0.03796 -1.720348,-1.720349 c -0.586017,0.586016 -1.395352,0.948721 -2.289583,0.948721 -1.788462,0 -3.238303,-1.449842 -3.238303,-3.238303 0,-0.89423 0.362705,-1.703565 0.948721,-2.289582 z"
     style="fill:#00b2ff;stroke-width:1.07943;fill-opacity:1"
     id="path14" />
  <path
     style="fill:#e93140"
     d="m 28.285716,28.285716 13.305749,-7.392084 a 1.114064,1.114064 44.999998 0 1 1.514904,1.514905 l -7.392083,13.305749 z"
     id="path5"
     inkscape:path-effect="#path-effect10"
     inkscape:original-d="M 28.285716,28.285716 45,19.000001 35.714286,35.714286 Z"
     transform="matrix(1.0801098,0,0,1.0801098,-2.5596788,-2.5640369)" />
  <path
     style="fill:#bdc3c7;stroke-width:1.09301"
     d="m 35.282861,31.999476 a 3.2790269,3.2790269 0 0 1 -3.279027,3.279026 3.2790269,3.2790269 0 0 1 -3.279026,-3.279026 3.2790269,3.2790269 0 0 1 3.279026,-3.279026 3.2790269,3.2790269 0 0 1 3.279027,3.279026 z"
     id="path7" />
  <circle
     style="mix-blend-mode:normal;fill:none;fill-opacity:1;stroke:#000000;stroke-width:0.2;stroke-dasharray:none;stroke-opacity:1;filter:url(#filter17)"
     cx="31.952141"
     cy="32.006542"
     r="26.264555"
     id="circle2-6"
     transform="matrix(1.0801098,0,0,1.0801098,-2.5596788,-2.5640369)" />
  <path
     style="mix-blend-mode:normal;fill:none;fill-opacity:1;stroke:#000000;stroke-width:0.2;stroke-dasharray:none;stroke-opacity:1;filter:url(#filter18)"
     d="m 28.511309,13.284691 c -7.739176,1.422728 -13.803891,7.487445 -15.226619,15.22662 -0.119646,0.650839 0.300328,1.424507 0.892369,1.720378 l 1.704908,0.852024 a 1.0243364,1.0243364 90 0 1 0,1.832574 l -1.704908,0.852024 c -0.592041,0.295871 -1.012015,1.06954 -0.892368,1.72038 1.422728,7.739176 7.487445,13.803892 15.22662,15.226618 0.650839,0.119646 1.424507,-0.300328 1.720378,-0.892368 l 0.852024,-1.704908 a 1.0243366,1.0243366 0 0 1 1.832574,0 l 0.852024,1.704908 c 0.295871,0.59204 1.06954,1.012014 1.720381,0.892367 7.739175,-1.422726 13.803891,-7.487444 15.226617,-15.226619 0.119646,-0.650839 -0.300328,-1.424507 -0.892368,-1.720378 l -1.704908,-0.852024 a 1.0243366,1.0243366 90 0 1 0,-1.832574 l 1.704908,-0.852024 c 0.59204,-0.295871 1.012014,-1.06954 0.892367,-1.720381 -1.422726,-7.739175 -7.487444,-13.80389 -15.226619,-15.226618 -0.650839,-0.119646 -1.424507,0.300328 -1.720378,0.892368 l -0.852024,1.704908 a 1.0243366,1.0243366 0 0 1 -1.832574,0 l -0.852024,-1.704908 c -0.295871,-0.59204 -1.06954,-1.012014 -1.72038,-0.892367 z"
     id="path3-2"
     inkscape:path-effect="#path-effect12-7"
     inkscape:original-d="M 29.695967,13.105075 C 20.997473,14.147066 14.147066,20.997473 13.105075,29.695967 L 17.715465,32 l -4.61039,2.304033 c 1.041991,8.698494 7.892398,15.548902 16.590892,16.590891 L 32,46.284535 34.304033,50.894924 C 43.002527,49.852935 49.852935,43.002527 50.894924,34.304033 L 46.284535,32 50.894924,29.695967 C 49.852935,20.997473 43.002527,14.147066 34.304033,13.105075 L 32,17.715464 Z"
     transform="matrix(1.0801098,0,0,1.0801098,-2.6113746,-2.5569741)" />
  <path
     d="m 28.238281,28.292969 -7.404297,13.326172 c -0.542925,0.973887 0.531972,2.048784 1.50586,1.505859 l 13.326172,-7.404297 -1.59375,-1.59375 c -0.542892,0.542892 -1.292669,0.878906 -2.121094,0.878906 -1.656851,0 -3,-1.343149 -3,-3 0,-0.828425 0.336014,-1.578201 0.878906,-2.121093 z"
     style="mix-blend-mode:normal;fill:none;stroke:#000000;stroke-width:0.2;filter:url(#filter19)"
     id="path17"
     transform="matrix(1.0801098,0,0,1.0801098,-2.5596788,-2.5640369)" />
  <path
     d="m 42.095703,20.759766 c -0.193324,-0.0019 -0.383814,0.04658 -0.552734,0.140625 l -13.304688,7.392578 1.591797,1.591797 c 0.06786,-0.06786 0.138808,-0.132222 0.212891,-0.19336 0.07408,-0.06114 0.150668,-0.119916 0.230468,-0.173828 0.0798,-0.05391 0.163032,-0.104207 0.248047,-0.150391 0.08502,-0.04618 0.17199,-0.08705 0.261719,-0.125 0.08973,-0.03795 0.181452,-0.07234 0.275391,-0.101562 0.09394,-0.02922 0.189463,-0.05424 0.287109,-0.07422 0.09765,-0.01998 0.197977,-0.03468 0.298828,-0.04492 0.100851,-0.01024 0.203088,-0.01563 0.306641,-0.01563 0.103553,0 0.205789,0.0054 0.30664,0.01563 0.100852,0.01024 0.201182,0.02494 0.298829,0.04492 0.09765,0.01998 0.19317,0.045 0.287109,0.07422 0.09394,0.02922 0.185662,0.06361 0.275391,0.101562 0.08973,0.03795 0.176703,0.07882 0.261718,0.125 0.08502,0.04618 0.168247,0.09648 0.248047,0.150391 0.0798,0.05391 0.156387,0.11269 0.230469,0.173828 0.07408,0.06114 0.145029,0.125498 0.212891,0.19336 0.06786,0.06786 0.132221,0.138808 0.193359,0.21289 0.06114,0.07408 0.119916,0.150669 0.173828,0.230469 0.05391,0.0798 0.104207,0.163031 0.150391,0.248047 0.04618,0.08502 0.08705,0.17199 0.125,0.261719 0.03795,0.08973 0.07234,0.181451 0.101562,0.27539 0.02922,0.09394 0.05424,0.189463 0.07422,0.28711 0.01998,0.09765 0.03468,0.197977 0.04492,0.298828 0.01024,0.100851 0.01563,0.203087 0.01563,0.30664 0,0.103554 -0.0054,0.20579 -0.01563,0.306641 -0.01024,0.100851 -0.02494,0.201182 -0.04492,0.298828 -0.01998,0.09765 -0.045,0.193171 -0.07422,0.287109 -0.02922,0.09394 -0.06361,0.185662 -0.101562,0.275391 -0.03795,0.08973 -0.07882,0.176703 -0.125,0.261719 -0.04618,0.08502 -0.09648,0.168246 -0.150391,0.248047 -0.05391,0.0798 -0.11269,0.156386 -0.173828,0.230468 -0.06114,0.07408 -0.125498,0.14503 -0.193359,0.212891 l 1.59375,1.59375 7.392578,-13.304687 c 0.41152,-0.738598 -0.117425,-1.648425 -0.962891,-1.65625 z"
     style="mix-blend-mode:normal;fill:none;stroke:#000000;stroke-width:0.2;filter:url(#filter20)"
     id="path16"
     transform="matrix(1.0801098,0,0,1.0801098,-2.5596788,-2.5640369)" />
  <path
     d="m 31.951172,29.005859 a 3.0000008,3.0000008 0 0 0 -3,3 3.0000008,3.0000008 0 0 0 3,3 3.0000008,3.0000008 0 0 0 3,-3 3.0000008,3.0000008 0 0 0 -3,-3 z"
     style="mix-blend-mode:normal;fill:none;stroke:#000000;stroke-width:0.09258318;filter:url(#filter21);stroke-dasharray:none"
     id="path15"
     transform="matrix(1.0801098,0,0,1.0801098,-2.5596788,-2.5640369)" />
</svg>
