<?xml version="1.0" encoding="UTF-8" standalone="no"?>
<svg
   width="64"
   height="64"
   version="1.1"
   id="svg12"
   sodipodi:docname="DV_Resolve.svg"
   inkscape:version="1.3.2 (091e20ef0f, 2023-11-25, custom)"
   xmlns:inkscape="http://www.inkscape.org/namespaces/inkscape"
   xmlns:sodipodi="http://sodipodi.sourceforge.net/DTD/sodipodi-0.dtd"
   xmlns:xlink="http://www.w3.org/1999/xlink"
   xmlns="http://www.w3.org/2000/svg"
   xmlns:svg="http://www.w3.org/2000/svg">
  <defs
     id="defs12">
    <linearGradient
       id="linearGradient18"
       inkscape:collect="always">
      <stop
         style="stop-color:#08d3f9;stop-opacity:1;"
         offset="0"
         id="stop19" />
      <stop
         style="stop-color:#1085d6;stop-opacity:1;"
         offset="1"
         id="stop20" />
    </linearGradient>
    <linearGradient
       id="linearGradient16"
       inkscape:collect="always">
      <stop
         style="stop-color:#e9ff61;stop-opacity:1;"
         offset="0"
         id="stop17" />
      <stop
         style="stop-color:#ffc061;stop-opacity:1;"
         offset="1"
         id="stop18" />
    </linearGradient>
    <linearGradient
       id="linearGradient14"
       inkscape:collect="always">
      <stop
         style="stop-color:#ff5e5e;stop-opacity:1;"
         offset="0"
         id="stop15" />
      <stop
         style="stop-color:#ff2222;stop-opacity:1;"
         offset="1"
         id="stop16" />
    </linearGradient>
    <linearGradient
       id="linearGradient13"
       inkscape:collect="always">
      <stop
         style="stop-color:#5a5a5a;stop-opacity:1;"
         offset="0"
         id="stop13" />
      <stop
         style="stop-color:#353535;stop-opacity:1;"
         offset="1"
         id="stop14" />
    </linearGradient>
    <radialGradient
       inkscape:collect="always"
       xlink:href="#linearGradient13"
       id="radialGradient14"
       cx="32"
       cy="32"
       fx="32"
       fy="32"
       r="26.551238"
       gradientUnits="userSpaceOnUse" />
    <filter
       inkscape:collect="always"
       style="color-interpolation-filters:sRGB"
       id="filter14"
       x="-0.073704448"
       y="-0.073704448"
       width="1.1474089"
       height="1.1474089">
      <feGaussianBlur
         inkscape:collect="always"
         stdDeviation="1.4873608"
         id="feGaussianBlur14" />
    </filter>
    <radialGradient
       inkscape:collect="always"
       xlink:href="#linearGradient14"
       id="radialGradient16"
       cx="34.052784"
       cy="33.203167"
       fx="34.052784"
       fy="33.203167"
       r="8.0000051"
       gradientTransform="matrix(1.6709062,2.8940944,-2.5323359,1.4620448,61.235347,-113.16873)"
       gradientUnits="userSpaceOnUse" />
    <radialGradient
       inkscape:collect="always"
       xlink:href="#linearGradient16"
       id="radialGradient18"
       cx="29.9275"
       cy="33.621059"
       fx="29.9275"
       fy="33.621059"
       r="8.0000049"
       gradientTransform="matrix(-2.0366323,-0.54571399,0.47750037,-1.7820556,74.824745,110.53987)"
       gradientUnits="userSpaceOnUse" />
    <radialGradient
       inkscape:collect="always"
       xlink:href="#linearGradient18"
       id="radialGradient20"
       cx="31.972982"
       cy="28.609077"
       fx="31.972982"
       fy="28.609077"
       r="7.0000021"
       gradientTransform="matrix(2.0297225,0,0,2.6096416,-32.923298,-44.162057)"
       gradientUnits="userSpaceOnUse" />
    <filter
       inkscape:collect="always"
       style="color-interpolation-filters:sRGB"
       id="filter20"
       x="-0.057253343"
       y="-0.062466206"
       width="1.1145067"
       height="1.1249592">
      <feGaussianBlur
         inkscape:collect="always"
         stdDeviation="0.77593893"
         id="feGaussianBlur20" />
    </filter>
  </defs>
  <sodipodi:namedview
     id="namedview12"
     pagecolor="#505050"
     bordercolor="#eeeeee"
     borderopacity="1"
     inkscape:showpageshadow="0"
     inkscape:pageopacity="0"
     inkscape:pagecheckerboard="0"
     inkscape:deskcolor="#505050"
     inkscape:zoom="13.109375"
     inkscape:cx="32"
     inkscape:cy="32"
     inkscape:window-width="1920"
     inkscape:window-height="1020"
     inkscape:window-x="0"
     inkscape:window-y="0"
     inkscape:window-maximized="1"
     inkscape:current-layer="svg12" />
  <circle
     style="fill:url(#radialGradient14);stroke:none;stroke-width:0.6;stroke-linecap:round;stroke-linejoin:round"
     id="path13"
     cx="32"
     cy="32"
     r="26.251238" />
  <circle
     style="fill:none;stroke:#000000;stroke-width:0.6;stroke-linecap:round;stroke-linejoin:round;stroke-opacity:1;filter:url(#filter14)"
     id="path13-5"
     cx="32"
     cy="32"
     r="26.251238" />
  <path
     style="fill:url(#radialGradient18)"
     d="m 21.105156,45.998033 c 0.435154,0.0132 0.92375,-0.04062 1.412216,-0.14436 1.445174,-0.316356 2.67264,-0.973434 3.615954,-2.138388 0.573684,-0.710394 1.055978,-1.480258 1.471698,-2.289948 0.488728,-0.954048 0.897094,-1.94805 1.253202,-2.954234 0.435154,-1.21709 0.804652,-2.46077 1.089066,-3.717812 0.15796,-0.704236 -0.0196,-1.145432 -0.798484,-1.388038 -0.989404,-0.309152 -1.986162,-0.585556 -3.002218,-0.80969 -1.682186,-0.368624 -3.377764,-0.605072 -5.107218,-0.54678 -0.488596,0.0196 -0.976144,0.07204 -1.458436,0.15758 -1.398954,0.243786 -2.586371,0.888682 -3.55621,1.908228 -1.656578,1.737144 -2.315481,3.8099 -1.906982,6.172554 0.587077,3.376042 3.582994,5.77747 6.987412,5.750878 z"
     id="path5" />
  <path
     style="fill:url(#radialGradient20)"
     d="m 25.002653,20.382103 c -0.0196,0.514484 0.0718,1.076908 0.223374,1.639464 0.28878,1.070354 0.76738,2.051108 1.331754,2.977508 1.28567,2.106696 2.906202,3.910326 4.664468,5.584894 0.144,0.13766 0.315414,0.253896 0.498968,0.342532 0.18382,0.0956 0.367372,0.0956 0.557324,0.0136 0.18356,-0.08194 0.347788,-0.19858 0.485652,-0.350044 0.610196,-0.63085 1.213344,-1.262652 1.790902,-1.914668 0.813336,-0.9264 1.587896,-1.879432 2.28987,-2.901844 0.63683,-0.926264 1.20721,-1.900738 1.62667,-2.957296 0.419462,-1.050136 0.623384,-2.133326 0.485652,-3.272238 -0.22964,-1.879324 -0.99689,-3.471671 -2.368332,-4.720254 -1.621578,-1.473935 -3.510396,-2.064083 -5.636032,-1.735343 -3.45726,0.53579 -5.963586,3.719255 -5.95027,7.293465 z"
     id="path7" />
  <path
     style="fill:url(#radialGradient16)"
     d="m 42.894854,45.998033 c -0.435154,0.0132 -0.92375,-0.04062 -1.412214,-0.14436 -1.445174,-0.316356 -2.672642,-0.973434 -3.615956,-2.138388 -0.573684,-0.710394 -1.055976,-1.480258 -1.471696,-2.289948 -0.488728,-0.954048 -0.897096,-1.94805 -1.253202,-2.954234 -0.435154,-1.21709 -0.804654,-2.46077 -1.089068,-3.717812 -0.15796,-0.704236 0.0196,-1.145432 0.798484,-1.388038 0.989404,-0.309152 1.98616,-0.585556 3.00222,-0.80969 1.682184,-0.368624 3.377764,-0.605072 5.107218,-0.54678 0.488596,0.0196 0.976142,0.07204 1.458436,0.15758 1.398952,0.243786 2.58637,0.888682 3.55621,1.908228 1.656576,1.737144 2.31548,3.8099 1.90698,6.172554 -0.587076,3.376042 -3.582994,5.77747 -6.987412,5.750878 z"
     id="path8" />
  <path
     id="path8-6"
     style="fill:none;stroke:#000000;stroke-opacity:1;stroke-width:0.39999991;stroke-dasharray:none;filter:url(#filter20)"
     d="m 42.904166,45.975969 c -0.435154,0.0132 -0.92375,-0.04062 -1.412214,-0.14436 -1.445174,-0.316356 -2.672642,-0.973434 -3.615956,-2.138388 -0.573684,-0.710394 -1.055976,-1.480258 -1.471696,-2.289948 -0.488728,-0.954048 -0.897096,-1.94805 -1.253202,-2.954234 -0.435154,-1.21709 -0.804654,-2.46077 -1.089068,-3.717812 -0.15796,-0.704236 0.0196,-1.145432 0.798484,-1.388038 0.989404,-0.309152 1.98616,-0.585556 3.00222,-0.80969 1.682184,-0.368624 3.377764,-0.605072 5.107218,-0.54678 0.488596,0.0196 0.976142,0.07204 1.458436,0.15758 1.398952,0.243786 2.58637,0.888682 3.55621,1.908228 1.656576,1.737144 2.31548,3.8099 1.90698,6.172554 -0.587076,3.376042 -3.582994,5.77747 -6.987412,5.750878 z M 25.011965,20.360039 c -0.0196,0.514484 0.0718,1.076908 0.223374,1.639464 0.28878,1.070354 0.76738,2.051108 1.331754,2.977508 1.28567,2.106696 2.906202,3.910326 4.664468,5.584894 0.144,0.13766 0.315414,0.253896 0.498968,0.342532 0.18382,0.0956 0.367372,0.0956 0.557324,0.0136 0.18356,-0.08194 0.347788,-0.19858 0.485652,-0.350044 0.610196,-0.63085 1.213344,-1.262652 1.790902,-1.914668 0.813336,-0.9264 1.587896,-1.879432 2.28987,-2.901844 0.63683,-0.926264 1.20721,-1.900738 1.62667,-2.957296 0.419462,-1.050136 0.623384,-2.133326 0.485652,-3.272238 -0.22964,-1.879324 -0.99689,-3.471671 -2.368332,-4.720254 -1.621578,-1.473935 -3.510396,-2.064083 -5.636032,-1.735343 -3.45726,0.53579 -5.963586,3.719255 -5.95027,7.293465 z m -3.897497,25.61593 c 0.435154,0.0132 0.92375,-0.04062 1.412216,-0.14436 1.445174,-0.316356 2.67264,-0.973434 3.615954,-2.138388 0.573684,-0.710394 1.055978,-1.480258 1.471698,-2.289948 0.488728,-0.954048 0.897094,-1.94805 1.253202,-2.954234 0.435154,-1.21709 0.804652,-2.46077 1.089066,-3.717812 0.15796,-0.704236 -0.0196,-1.145432 -0.798484,-1.388038 -0.989404,-0.309152 -1.986162,-0.585556 -3.002218,-0.80969 -1.682186,-0.368624 -3.377764,-0.605072 -5.107218,-0.54678 -0.488596,0.0196 -0.976144,0.07204 -1.458436,0.15758 -1.398954,0.243786 -2.586371,0.888682 -3.55621,1.908228 -1.656578,1.737144 -2.315481,3.8099 -1.906982,6.172554 0.587077,3.376042 3.582994,5.77747 6.987412,5.750878 z" />
</svg>
