<?xml version="1.0" encoding="UTF-8" standalone="no"?>
<svg
   width="64"
   height="64"
   version="1.1"
   id="svg8"
   sodipodi:docname="appimagekit-retroshare.svg"
   inkscape:version="1.3.2 (091e20ef0f, 2023-11-25, custom)"
   xmlns:inkscape="http://www.inkscape.org/namespaces/inkscape"
   xmlns:sodipodi="http://sodipodi.sourceforge.net/DTD/sodipodi-0.dtd"
   xmlns:xlink="http://www.w3.org/1999/xlink"
   xmlns="http://www.w3.org/2000/svg"
   xmlns:svg="http://www.w3.org/2000/svg">
  <defs
     id="defs8">
    <linearGradient
       id="linearGradient11"
       inkscape:collect="always">
      <stop
         style="stop-color:#3f3f3f;stop-opacity:1;"
         offset="0"
         id="stop12" />
      <stop
         style="stop-color:#151515;stop-opacity:1;"
         offset="1"
         id="stop13" />
    </linearGradient>
    <linearGradient
       id="linearGradient9"
       inkscape:collect="always">
      <stop
         style="stop-color:#696969;stop-opacity:1;"
         offset="0"
         id="stop10" />
      <stop
         style="stop-color:#d6d6d6;stop-opacity:1;"
         offset="1"
         id="stop11" />
    </linearGradient>
    <linearGradient
       id="linearGradient8"
       inkscape:collect="always">
      <stop
         style="stop-color:#328fff;stop-opacity:1;"
         offset="0"
         id="stop8" />
      <stop
         style="stop-color:#00e0ff;stop-opacity:1;"
         offset="1"
         id="stop9" />
    </linearGradient>
    <radialGradient
       inkscape:collect="always"
       xlink:href="#linearGradient8"
       id="radialGradient1"
       cx="23.598446"
       cy="46.13401"
       fx="23.598446"
       fy="46.13401"
       r="28"
       gradientUnits="userSpaceOnUse"
       gradientTransform="matrix(1.6717014,-0.44793105,0.5129061,1.9141916,-30.887224,-45.85102)" />
    <radialGradient
       inkscape:collect="always"
       xlink:href="#linearGradient8"
       id="radialGradient2"
       cx="23.598446"
       cy="46.13401"
       fx="23.598446"
       fy="46.13401"
       r="28"
       gradientUnits="userSpaceOnUse"
       gradientTransform="matrix(1.6717014,-0.44793105,0.5129061,1.9141916,-30.887224,-45.85102)" />
    <radialGradient
       inkscape:collect="always"
       xlink:href="#linearGradient8"
       id="radialGradient4"
       cx="23.598446"
       cy="46.13401"
       fx="23.598446"
       fy="46.13401"
       r="28"
       gradientUnits="userSpaceOnUse"
       gradientTransform="matrix(1.6717014,-0.44793105,0.5129061,1.9141916,-30.887224,-45.85102)" />
    <radialGradient
       inkscape:collect="always"
       xlink:href="#linearGradient9"
       id="radialGradient11-5"
       cx="12.127294"
       cy="52.151215"
       fx="12.127294"
       fy="52.151215"
       r="23.034088"
       gradientUnits="userSpaceOnUse"
       gradientTransform="matrix(2.7656535,-1.5967508,1.5967508,2.7656535,-104.24427,-73.101358)" />
    <radialGradient
       inkscape:collect="always"
       xlink:href="#linearGradient11"
       id="radialGradient13-6"
       cx="5.4830523"
       cy="54.560741"
       fx="5.4830523"
       fy="54.560741"
       r="28"
       gradientUnits="userSpaceOnUse"
       gradientTransform="matrix(3.3397878,-0.89489343,0.89489343,3.3397878,-60.947851,-123.23512)" />
    <radialGradient
       inkscape:collect="always"
       xlink:href="#linearGradient8"
       id="radialGradient6"
       gradientUnits="userSpaceOnUse"
       gradientTransform="matrix(1.0838949,-0.29042876,0.33255716,1.2411203,-9.3282223,-18.114649)"
       cx="23.132677"
       cy="45.980434"
       fx="23.132677"
       fy="45.980434"
       r="28" />
    <filter
       inkscape:collect="always"
       style="color-interpolation-filters:sRGB"
       id="filter4"
       x="-0.083820645"
       y="-0.08382064"
       width="1.1676413"
       height="1.1676413">
      <feGaussianBlur
         inkscape:collect="always"
         stdDeviation="1.8933151"
         id="feGaussianBlur4" />
    </filter>
    <filter
       inkscape:collect="always"
       style="color-interpolation-filters:sRGB"
       id="filter5"
       x="-0.11928892"
       y="-0.11767247"
       width="1.2369607"
       height="1.2369614">
      <feGaussianBlur
         inkscape:collect="always"
         stdDeviation="1.472258"
         id="feGaussianBlur5" />
    </filter>
    <filter
       inkscape:collect="always"
       style="color-interpolation-filters:sRGB"
       id="filter6"
       x="-0.065775342"
       y="-0.065775341"
       width="1.1315507"
       height="1.1315507">
      <feGaussianBlur
         inkscape:collect="always"
         stdDeviation="1.472258"
         id="feGaussianBlur6" />
    </filter>
  </defs>
  <sodipodi:namedview
     id="namedview8"
     pagecolor="#ffffff"
     bordercolor="#000000"
     borderopacity="0.25"
     inkscape:showpageshadow="2"
     inkscape:pageopacity="0.0"
     inkscape:pagecheckerboard="0"
     inkscape:deskcolor="#d1d1d1"
     inkscape:zoom="6.9453125"
     inkscape:cx="37.36333"
     inkscape:cy="33.907762"
     inkscape:window-width="1920"
     inkscape:window-height="1020"
     inkscape:window-x="0"
     inkscape:window-y="0"
     inkscape:window-maximized="1"
     inkscape:current-layer="svg8" />
  <path
     id="circle2-1"
     style="fill:url(#radialGradient13-6);stroke-width:0.959882"
     d="M 59.480126,31.463901 A 26.876686,26.876686 0 0 1 32.60344,58.340586 26.876686,26.876686 0 0 1 5.7267546,31.463901 26.876686,26.876686 0 0 1 32.60344,4.587215 26.876686,26.876686 0 0 1 59.480126,31.463901 Z" />
  <path
     style="color:#000000;fill:url(#radialGradient11-5);stroke-width:0.959882;-inkscape-stroke:none"
     d="M 52.099256,11.967296 7.8790844,24.250781 39.815771,56.187467 Z m -8.27523,8.275229 -6.914147,24.89318 -17.979033,-17.979033 z"
     id="path3-2" />
  <path
     id="circle4-0"
     style="fill:url(#radialGradient6);stroke-width:0.959882"
     d="m 47.961641,6.5060939 a 9.5988163,9.5988163 0 0 0 -9.598816,9.5988171 9.5988163,9.5988163 0 0 0 9.598816,9.598816 9.5988163,9.5988163 0 0 0 9.598816,-9.598816 9.5988163,9.5988163 0 0 0 -9.598816,-9.5988171 z M 13.405902,16.104911 a 9.5988163,9.5988163 0 0 0 -9.5988154,9.598816 9.5988163,9.5988163 0 0 0 9.5988154,9.598816 9.5988163,9.5988163 0 0 0 9.598817,-9.598816 9.5988163,9.5988163 0 0 0 -9.598817,-9.598816 z m 24.956923,24.956922 a 9.5988163,9.5988163 0 0 0 -9.598816,9.598816 9.5988163,9.5988163 0 0 0 9.598816,9.598817 9.5988163,9.5988163 0 0 0 9.598816,-9.598817 9.5988163,9.5988163 0 0 0 -9.598816,-9.598816 z" />
  <path
     d="m 33.101562,2.8242188 c -9.771371,0 -18.369676,5.0091692 -23.3789057,12.5957032 1.0567877,-0.379935 2.1912907,-0.597656 3.3789067,-0.597656 3.514389,0 6.599459,1.816952 8.382812,4.558593 L 39.119141,14.482422 C 39.254388,10.471792 41.745303,7.060998 45.253906,5.59375 41.578048,3.819978 37.456408,2.8242188 33.101562,2.8242188 Z M 58.332031,18.669922 c -1.46707,3.509009 -4.879702,5.999508 -8.890625,6.134765 l -4.898437,17.634766 c 2.741641,1.783353 4.558593,4.868423 4.558593,8.382813 0,1.189147 -0.218737,2.324874 -0.599609,3.382812 7.588564,-5.008882 12.599609,-13.607932 12.599609,-23.380859 0,-4.355465 -0.995284,-8.478042 -2.769531,-12.154297 z m -17.613281,1.59375 -17.634766,4.898437 c -0.05197,1.541166 -0.446109,2.993342 -1.11914,4.28125 l 12.515625,12.515625 c 1.287908,-0.673031 2.740084,-1.067169 4.28125,-1.11914 L 43.660156,23.205078 C 42.485342,22.440898 41.48293,21.438486 40.71875,20.263672 Z M 5.1015625,30.806641 c -3.6e-6,0.0059 0,0.01169 0,0.01758 0,15.463957 12.5360425,28 27.9999995,28 0.0065,0 0.01299,4e-6 0.01953,0 -2.436244,-1.823807 -4.019532,-4.724522 -4.019532,-8.001953 1e-6,-1.668044 0.414448,-3.236413 1.136719,-4.619141 L 17.720703,33.685547 c -1.382728,0.722271 -2.951097,1.136719 -4.61914,1.136719 -3.2758883,0 -6.176031,-1.581337 -8.0000005,-4.015625 z"
     style="mix-blend-mode:normal;fill:none;stroke:#000000;stroke-width:0.3;stroke-dasharray:none;filter:url(#filter4)"
     id="path3"
     transform="matrix(0.95988163,0,0,0.95988163,0.80376573,1.7573045)" />
  <path
     d="m 39.119141,14.482422 -17.634766,4.898437 c 1.019174,1.566829 1.617187,3.432958 1.617187,5.441407 0,0.11485 -0.01374,0.225928 -0.01758,0.339843 L 40.71875,20.263672 c -1.019174,-1.566829 -1.617188,-3.432957 -1.617188,-5.441406 0,-0.114851 0.01374,-0.225929 0.01758,-0.339844 z m 4.541015,8.722656 -4.898437,17.634766 c 0.113915,-0.0038 0.224993,-0.01758 0.339843,-0.01758 2.00845,0 3.874578,0.598013 5.441407,1.617187 l 4.898437,-17.634766 c -0.113915,0.0038 -0.224993,0.01758 -0.339844,0.01758 -2.008449,0 -3.874577,-0.598014 -5.441406,-1.617188 z m -21.695312,6.238281 c -0.946912,1.812006 -2.431949,3.295585 -4.244141,4.242188 l 12.517578,12.517578 c 0.946603,-1.812192 2.430183,-3.297229 4.242188,-4.244141 z"
     style="mix-blend-mode:normal;fill:none;stroke:#000000;stroke-width:0.3;stroke-dasharray:none;filter:url(#filter5)"
     id="path2"
     transform="matrix(0.95988163,0,0,0.95988163,0.86932374,1.7573045)" />
  <path
     d="m 49.101562,4.8222656 a 10,10 0 0 0 -10,10.0000004 10,10 0 0 0 10,10 10,10 0 0 0 10,-10 10,10 0 0 0 -10,-10.0000004 z M 13.101563,14.822266 a 10,10 0 0 0 -10.0000005,10 10,10 0 0 0 10.0000005,10 10,10 0 0 0 9.999999,-10 10,10 0 0 0 -9.999999,-10 z m 25.999999,26 a 10,10 0 0 0 -10,10 10,10 0 0 0 10,10 10,10 0 0 0 10,-10 10,10 0 0 0 -10,-10 z"
     style="mix-blend-mode:normal;fill:none;stroke:#000000;stroke-width:0.3;stroke-dasharray:none;filter:url(#filter6)"
     id="path1"
     transform="matrix(0.95988163,0,0,0.95988163,0.86932374,1.7573045)" />
</svg>
