<?xml version="1.0" encoding="utf-8"?>
<!-- Generator: Adobe Illustrator 25.2.1, SVG Export Plug-In . SVG Version: 6.00 Build 0)  -->
<svg version="1.1" id="Layer_1" xmlns="http://www.w3.org/2000/svg" xmlns:xlink="http://www.w3.org/1999/xlink" x="0px" y="0px"
	 viewBox="0 0 64 64" style="enable-background:new 0 0 64 64;" xml:space="preserve">
<style type="text/css">
	.st0{opacity:0.2;enable-background:new    ;}
	.st1{fill:url(#SVGID_1_);}
	.st2{opacity:6.000000e-02;}
	.st3{fill:#FFFFFF;}
</style>
<path class="st0" d="M23.9,5h16.2C51.1,5,60,13.9,60,24.9v16.2c0,11-8.9,19.9-19.9,19.9H23.9C12.9,61,4,52.1,4,41.1V24.9
	C4,13.9,12.9,5,23.9,5z"/>
<radialGradient id="SVGID_1_" cx="20.5335" cy="23.9" r="45.2905" gradientUnits="userSpaceOnUse">
	<stop  offset="0" style="stop-color:#FFB100"/>
	<stop  offset="0.9943" style="stop-color:#FF8A15"/>
</radialGradient>
<path class="st1" d="M24.5,4h15C50.8,4,60,13.2,60,24.5v15C60,50.8,50.8,60,39.5,60h-15C13.2,60,4,50.8,4,39.5v-15
	C4,13.2,13.2,4,24.5,4z"/>
<path class="st2" d="M22.7,15.3l-1.3,0.8c-1.1,0.6-1.4,2-0.8,3l2.8,4.9c0.5,0.8,0.4,1.8-0.2,2.5c-0.5,0.7-0.9,1.4-1.2,2.1
	c-0.4,0.8-1.2,1.4-2.1,1.4c-1.5,0-3.9,0-5.6,0C13,30,12,31,12,32.2v1.5c0,1.2,1,2.2,2.2,2.2l5.6,0c0.9,0,1.7,0.6,2.1,1.4
	c0.3,0.8,0.7,1.5,1.2,2.1c0.5,0.7,0.6,1.7,0.2,2.5c-0.8,1.3-2,3.4-2.8,4.9c-0.6,1.1-0.2,2.4,0.8,3l1.3,0.8c1.1,0.6,2.4,0.3,3-0.8
	l2.8-4.8c0.5-0.8,1.4-1.3,2.3-1.2c0.4,0,0.8,0.1,1.2,0.1c0.4,0,0.8,0,1.2-0.1c1-0.1,1.9,0.3,2.4,1.2l2.8,4.8c0.6,1.1,2,1.4,3,0.8
	l1.3-0.8c1.1-0.6,1.4-2,0.8-3L40.7,42c-0.5-0.8-0.4-1.8,0.2-2.5c0.5-0.7,0.9-1.4,1.2-2.1c0.4-0.8,1.2-1.4,2.1-1.4c1.5,0,3.9,0,5.6,0
	c1.2,0,2.2-1,2.2-2.2v-1.5c0-1.2-1-2.2-2.2-2.2l-5.6,0c-0.9,0-1.7-0.6-2.1-1.4c-0.3-0.8-0.7-1.5-1.2-2.1c-0.5-0.7-0.6-1.7-0.2-2.5
	c0.8-1.3,2-3.4,2.8-4.9c0.6-1.1,0.2-2.4-0.8-3l-1.3-0.8c-1.1-0.6-2.4-0.3-3,0.8l-2.8,4.8c-0.5,0.8-1.4,1.3-2.3,1.2
	C32.8,22,32.4,22,32,22c-0.4,0-0.8,0-1.2,0.1c-1,0.1-1.9-0.3-2.4-1.2l-2.8-4.8C25.1,15,23.7,14.7,22.7,15.3z M32,27.6
	c3,0,5.4,2.4,5.4,5.4S35,38.4,32,38.4S26.6,36,26.6,33S29,27.6,32,27.6z"/>
<path class="st3" d="M22.7,14.3l-1.3,0.8c-1.1,0.6-1.4,2-0.8,3l2.8,4.9c0.5,0.8,0.4,1.8-0.2,2.5c-0.5,0.7-0.9,1.4-1.2,2.1
	c-0.4,0.8-1.2,1.4-2.1,1.4c-1.5,0-3.9,0-5.6,0C13,29,12,30,12,31.2v1.5c0,1.2,1,2.2,2.2,2.2l5.6,0c0.9,0,1.7,0.6,2.1,1.4
	c0.3,0.8,0.7,1.5,1.2,2.1c0.5,0.7,0.6,1.7,0.2,2.5c-0.8,1.3-2,3.4-2.8,4.9c-0.6,1.1-0.2,2.4,0.8,3l1.3,0.8c1.1,0.6,2.4,0.3,3-0.8
	l2.8-4.8c0.5-0.8,1.4-1.3,2.3-1.2c0.4,0,0.8,0.1,1.2,0.1c0.4,0,0.8,0,1.2-0.1c1-0.1,1.9,0.3,2.4,1.2l2.8,4.8c0.6,1.1,2,1.4,3,0.8
	l1.3-0.8c1.1-0.6,1.4-2,0.8-3L40.7,41c-0.5-0.8-0.4-1.8,0.2-2.5c0.5-0.7,0.9-1.4,1.2-2.1c0.4-0.8,1.2-1.4,2.1-1.4c1.5,0,3.9,0,5.6,0
	c1.2,0,2.2-1,2.2-2.2v-1.5c0-1.2-1-2.2-2.2-2.2l-5.6,0c-0.9,0-1.7-0.6-2.1-1.4c-0.3-0.8-0.7-1.5-1.2-2.1c-0.5-0.7-0.6-1.7-0.2-2.5
	c0.8-1.3,2-3.4,2.8-4.9c0.6-1.1,0.2-2.4-0.8-3l-1.3-0.8c-1.1-0.6-2.4-0.3-3,0.8l-2.8,4.8c-0.5,0.8-1.4,1.3-2.3,1.2
	C32.8,21,32.4,21,32,21c-0.4,0-0.8,0-1.2,0.1c-1,0.1-1.9-0.3-2.4-1.2l-2.8-4.8C25.1,14,23.7,13.7,22.7,14.3z M32,26.6
	c3,0,5.4,2.4,5.4,5.4S35,37.4,32,37.4S26.6,35,26.6,32S29,26.6,32,26.6z"/>
</svg>
