<?xml version="1.0" encoding="UTF-8" standalone="no"?>
<svg
   width="64"
   height="64"
   version="1"
   id="svg4"
   sodipodi:docname="com.valvesoftware.SteamLink.svg"
   inkscape:version="1.3.2 (091e20ef0f, 2023-11-25, custom)"
   xmlns:inkscape="http://www.inkscape.org/namespaces/inkscape"
   xmlns:sodipodi="http://sodipodi.sourceforge.net/DTD/sodipodi-0.dtd"
   xmlns:xlink="http://www.w3.org/1999/xlink"
   xmlns="http://www.w3.org/2000/svg"
   xmlns:svg="http://www.w3.org/2000/svg">
  <defs
     id="defs4">
    <inkscape:path-effect
       effect="fillet_chamfer"
       id="path-effect2"
       is_visible="true"
       lpeversion="1"
       nodesatellites_param="F,0,1,1,0,16.168073,0,1 @ F,0,0,1,0,16.168073,0,1 @ F,0,1,1,0,16.168073,0,1 @ F,0,1,1,0,16.168073,0,1"
       radius="0"
       unit="px"
       method="auto"
       mode="F"
       chamfer_steps="1"
       flexible="false"
       use_knot_distance="true"
       apply_no_radius="true"
       apply_with_radius="true"
       only_selected="false"
       hide_knots="false" />
    <linearGradient
       id="linearGradient1"
       inkscape:collect="always">
      <stop
         style="stop-color:#8746ce;stop-opacity:1;"
         offset="0"
         id="stop1" />
      <stop
         style="stop-color:#4765bb;stop-opacity:1;"
         offset="1"
         id="stop2" />
    </linearGradient>
    <inkscape:path-effect
       effect="fillet_chamfer"
       id="path-effect1"
       is_visible="true"
       lpeversion="1"
       nodesatellites_param="F,0,0,1,0,0,0,1 @ F,0,0,1,0,0,0,1 @ F,0,0,1,0,0,0,1 @ F,0,0,1,0,0,0,1"
       radius="0"
       unit="px"
       method="auto"
       mode="F"
       chamfer_steps="1"
       flexible="false"
       use_knot_distance="true"
       apply_no_radius="true"
       apply_with_radius="true"
       only_selected="false"
       hide_knots="false" />
    <inkscape:path-effect
       effect="fillet_chamfer"
       id="path-effect6"
       is_visible="true"
       lpeversion="1"
       nodesatellites_param="F,0,0,1,0,0,0,1 @ F,0,0,1,0,2.6542185,0,1 @ F,0,0,1,0,0,0,1 @ F,0,0,1,0,0,0,1 @ F,0,0,1,0,0,0,1 @ F,0,0,1,0,0,0,1 @ F,0,0,1,0,0,0,1 @ F,0,0,1,0,1.6110586,0,1 @ F,0,0,1,0,1.6110586,0,1 @ F,0,0,1,0,0,0,1 @ F,0,0,1,0,0,0,1 @ F,0,0,1,0,0,0,1 @ F,0,0,1,0,0,0,1 @ F,0,0,1,0,0,0,1 @ F,0,0,1,0,3.134011,0,1 | F,0,0,1,0,0,0,1 @ F,0,0,1,0,0,0,1 @ F,0,0,1,0,0,0,1 @ F,0,0,1,0,0,0,1 | F,0,0,1,0,0,0,1 @ F,0,0,1,0,0,0,1 @ F,0,0,1,0,0,0,1 @ F,0,0,1,0,0,0,1"
       radius="0"
       unit="px"
       method="auto"
       mode="F"
       chamfer_steps="1"
       flexible="false"
       use_knot_distance="true"
       apply_no_radius="true"
       apply_with_radius="true"
       only_selected="false"
       hide_knots="false" />
    <inkscape:path-effect
       effect="fillet_chamfer"
       id="path-effect6-3"
       is_visible="true"
       lpeversion="1"
       nodesatellites_param="F,0,0,1,0,0,0,1 @ F,0,0,1,0,2.6542185,0,1 @ F,0,0,1,0,0,0,1 @ F,0,0,1,0,0,0,1 @ F,0,0,1,0,0,0,1 @ F,0,0,1,0,0,0,1 @ F,0,0,1,0,0,0,1 @ F,0,0,1,0,1.6110586,0,1 @ F,0,0,1,0,1.6110586,0,1 @ F,0,0,1,0,0,0,1 @ F,0,0,1,0,0,0,1 @ F,0,0,1,0,0,0,1 @ F,0,0,1,0,0,0,1 @ F,0,0,1,0,0,0,1 @ F,0,0,1,0,3.134011,0,1 | F,0,0,1,0,0,0,1 @ F,0,0,1,0,0,0,1 @ F,0,0,1,0,0,0,1 @ F,0,0,1,0,0,0,1 | F,0,0,1,0,0,0,1 @ F,0,0,1,0,0,0,1 @ F,0,0,1,0,0,0,1 @ F,0,0,1,0,0,0,1"
       radius="0"
       unit="px"
       method="auto"
       mode="F"
       chamfer_steps="1"
       flexible="false"
       use_knot_distance="true"
       apply_no_radius="true"
       apply_with_radius="true"
       only_selected="false"
       hide_knots="false" />
    <filter
       inkscape:collect="always"
       style="color-interpolation-filters:sRGB"
       id="filter3"
       x="-0.066122103"
       y="-0.092422425"
       width="1.1321264"
       height="1.1848715">
      <feGaussianBlur
         inkscape:collect="always"
         stdDeviation="1.1114758"
         id="feGaussianBlur3" />
    </filter>
    <radialGradient
       inkscape:collect="always"
       xlink:href="#linearGradient1"
       id="radialGradient2"
       cx="15.732225"
       cy="49.005993"
       fx="15.732225"
       fy="49.005993"
       r="26.066151"
       gradientUnits="userSpaceOnUse"
       gradientTransform="matrix(2.2064497,-1.2738943,1.2738943,2.2064497,-81.408595,-39.082075)" />
    <inkscape:path-effect
       effect="fillet_chamfer"
       id="path-effect2-5"
       is_visible="true"
       lpeversion="1"
       nodesatellites_param="F,0,1,1,0,16.168073,0,1 @ F,0,0,1,0,16.168073,0,1 @ F,0,1,1,0,16.168073,0,1 @ F,0,1,1,0,16.168073,0,1"
       radius="0"
       unit="px"
       method="auto"
       mode="F"
       chamfer_steps="1"
       flexible="false"
       use_knot_distance="true"
       apply_no_radius="true"
       apply_with_radius="true"
       only_selected="false"
       hide_knots="false" />
    <filter
       inkscape:collect="always"
       style="color-interpolation-filters:sRGB"
       id="filter2"
       x="-0.11380316"
       y="-0.11380316"
       width="1.2276063"
       height="1.2276063">
      <feGaussianBlur
         inkscape:collect="always"
         stdDeviation="2.344133"
         id="feGaussianBlur2" />
    </filter>
  </defs>
  <sodipodi:namedview
     id="namedview4"
     pagecolor="#ffffff"
     bordercolor="#000000"
     borderopacity="0.25"
     inkscape:showpageshadow="2"
     inkscape:pageopacity="0.0"
     inkscape:pagecheckerboard="0"
     inkscape:deskcolor="#d1d1d1"
     inkscape:zoom="8.9714173"
     inkscape:cx="27.253219"
     inkscape:cy="31.823288"
     inkscape:window-width="1920"
     inkscape:window-height="1020"
     inkscape:window-x="0"
     inkscape:window-y="0"
     inkscape:window-maximized="1"
     inkscape:current-layer="svg4" />
  <path
     id="rect1"
     style="opacity:1;fill:url(#radialGradient2);stroke:none;stroke-width:0.5;stroke-linejoin:bevel;stroke-miterlimit:4.6"
     d="M 22.351922,6.1838493 H 41.648078 A 16.168073,16.168073 45 0 1 57.816151,22.351922 l 0,19.296156 A 16.168073,16.168073 135 0 1 41.648078,57.816151 l -19.296156,0 A 16.168073,16.168073 45 0 1 6.1838493,41.648078 V 22.351922 A 16.168073,16.168073 135 0 1 22.351922,6.1838493 Z"
     inkscape:path-effect="#path-effect2"
     inkscape:original-d="M 6.1838493,6.1838493 H 57.816151 V 57.816151 H 6.1838493 Z" />
  <path
     id="path1"
     style="fill:#ffffff;stroke-width:1.20852"
     d="m 31.889442,17.200776 c 4.389056,-1.52e-4 8.776531,0.03378 11.498661,0.103354 1.463018,0.03739 4.027244,0.233573 4.94483,1.331965 0.657463,0.787012 1.244605,2.095503 2.111549,4.366224 1.699739,4.451997 3.136833,10.585107 3.574939,15.236779 0.253754,2.694289 0.04229,4.545146 -0.723647,6.32727 -1.15223,2.680914 -4.350061,4.699466 -6.713833,4.236732 -1.216103,-0.238066 -1.967809,-1.185174 -3.9615,-4.963471 -0.558456,-1.058347 -1.126315,-2.206144 -1.57523,-3.079175 -0.404808,-0.787256 -1.514927,-1.392591 -2.40469,-1.392591 H 25.153828 c -0.889763,0 -1.995692,0.611466 -2.407669,1.399842 -0.493132,0.94368 -0.916129,1.881089 -1.365051,2.747211 -0.859122,1.646721 -1.781158,3.340675 -2.047239,3.76358 -0.879474,1.397815 -2.744986,1.954562 -4.437748,1.323592 -2.098228,-0.782102 -3.817441,-2.459128 -4.558355,-4.44393 -1.4460438,-3.873708 0.04878,-13.502724 3.448146,-22.167089 0.517111,-1.31803 0.942954,-2.248725 1.382222,-2.913606 0.922124,-1.39574 3.951022,-1.74016 5.680756,-1.780268 2.747219,-0.0637 6.894691,-0.09627 11.040552,-0.09642 z m -9.035368,4.750091 c -2.719852,1e-6 -4.924727,2.204876 -4.924727,4.924728 0,2.719852 2.204876,4.924729 4.924728,4.924729 2.719853,0 4.924729,-2.204876 4.924729,-4.924729 0,-2.719853 -2.204877,-4.924729 -4.92473,-4.924728 z m 18.291849,0 c -2.719852,0 -4.924728,2.204876 -4.924728,4.924728 0,2.719853 2.204876,4.924729 4.924729,4.924729 2.719853,0 4.924729,-2.204876 4.924729,-4.924729 0,-2.719853 -2.204877,-4.924729 -4.92473,-4.924728 z"
     inkscape:path-effect="#path-effect6"
     inkscape:original-d="m 31.889442,17.200776 c 6.631889,-2.3e-4 13.260166,0.07737 14.145126,0.238124 2.105751,0.382655 2.736722,1.180954 4.409914,5.563419 1.699739,4.451997 3.136833,10.585107 3.574939,15.236779 0.253754,2.694289 0.04229,4.545146 -0.723647,6.32727 -1.15223,2.680914 -4.350061,4.699466 -6.713833,4.236732 -1.216103,-0.238066 -1.967809,-1.185174 -3.9615,-4.963471 C 41.604044,41.913424 40.556498,39.69092 40.25158,39.367863 H 23.542769 c -0.876815,1.396802 -1.490241,2.851658 -2.161661,4.147053 -0.859122,1.646721 -1.781158,3.340675 -2.047239,3.76358 -0.879474,1.397815 -2.744986,1.954562 -4.437748,1.323592 -2.098228,-0.782102 -3.817441,-2.459128 -4.558355,-4.44393 -1.4460438,-3.873708 0.04878,-13.502724 3.448146,-22.167089 1.323854,-3.374283 2.049531,-4.209936 3.933668,-4.545985 0.90197,-0.160865 7.537978,-0.244077 14.169862,-0.244308 z m -9.035368,4.750091 a 4.9247288,4.9247288 0 0 0 -4.924727,4.924728 4.9247288,4.9247288 0 0 0 4.924728,4.924729 4.9247288,4.9247288 0 0 0 4.924729,-4.924729 4.9247288,4.9247288 0 0 0 -4.92473,-4.924728 z m 18.291849,0 a 4.9247288,4.9247288 0 0 0 -4.924728,4.924728 4.9247288,4.9247288 0 0 0 4.924729,4.924729 4.9247288,4.9247288 0 0 0 4.924729,-4.924729 4.9247288,4.9247288 0 0 0 -4.92473,-4.924728 z"
     transform="matrix(0.92703123,0,0,0.92703123,2.3769567,1.3754525)" />
  <path
     id="path1-6"
     style="mix-blend-mode:normal;fill:none;stroke:#000000;stroke-width:0.518694;stroke-dasharray:none;stroke-opacity:1;filter:url(#filter3)"
     d="m 31.889442,17.200776 c 4.389056,-1.52e-4 8.776531,0.03378 11.498661,0.103354 1.463018,0.03739 4.027244,0.233573 4.94483,1.331965 0.657463,0.787012 1.244605,2.095503 2.111549,4.366224 1.699739,4.451997 3.136833,10.585107 3.574939,15.236779 0.253754,2.694289 0.04229,4.545146 -0.723647,6.32727 -1.15223,2.680914 -4.350061,4.699466 -6.713833,4.236732 -1.216103,-0.238066 -1.967809,-1.185174 -3.9615,-4.963471 -0.558456,-1.058347 -1.126315,-2.206144 -1.57523,-3.079175 -0.404808,-0.787256 -1.514927,-1.392591 -2.40469,-1.392591 H 25.153828 c -0.889763,0 -1.995692,0.611466 -2.407669,1.399842 -0.493132,0.94368 -0.916129,1.881089 -1.365051,2.747211 -0.859122,1.646721 -1.781158,3.340675 -2.047239,3.76358 -0.879474,1.397815 -2.744986,1.954562 -4.437748,1.323592 -2.098228,-0.782102 -3.817441,-2.459128 -4.558355,-4.44393 -1.4460438,-3.873708 0.04878,-13.502724 3.448146,-22.167089 0.517111,-1.31803 0.942954,-2.248725 1.382222,-2.913606 0.922124,-1.39574 3.951022,-1.74016 5.680756,-1.780268 2.747219,-0.0637 6.894691,-0.09627 11.040552,-0.09642 z m -9.035368,4.750091 c -2.719852,1e-6 -4.924727,2.204876 -4.924727,4.924728 0,2.719852 2.204876,4.924729 4.924728,4.924729 2.719853,0 4.924729,-2.204876 4.924729,-4.924729 0,-2.719853 -2.204877,-4.924729 -4.92473,-4.924728 z m 18.291849,0 c -2.719852,0 -4.924728,2.204876 -4.924728,4.924728 0,2.719853 2.204876,4.924729 4.924729,4.924729 2.719853,0 4.924729,-2.204876 4.924729,-4.924729 0,-2.719853 -2.204877,-4.924729 -4.92473,-4.924728 z"
     inkscape:path-effect="#path-effect6-3"
     inkscape:original-d="m 31.889442,17.200776 c 6.631889,-2.3e-4 13.260166,0.07737 14.145126,0.238124 2.105751,0.382655 2.736722,1.180954 4.409914,5.563419 1.699739,4.451997 3.136833,10.585107 3.574939,15.236779 0.253754,2.694289 0.04229,4.545146 -0.723647,6.32727 -1.15223,2.680914 -4.350061,4.699466 -6.713833,4.236732 -1.216103,-0.238066 -1.967809,-1.185174 -3.9615,-4.963471 C 41.604044,41.913424 40.556498,39.69092 40.25158,39.367863 H 23.542769 c -0.876815,1.396802 -1.490241,2.851658 -2.161661,4.147053 -0.859122,1.646721 -1.781158,3.340675 -2.047239,3.76358 -0.879474,1.397815 -2.744986,1.954562 -4.437748,1.323592 -2.098228,-0.782102 -3.817441,-2.459128 -4.558355,-4.44393 -1.4460438,-3.873708 0.04878,-13.502724 3.448146,-22.167089 1.323854,-3.374283 2.049531,-4.209936 3.933668,-4.545985 0.90197,-0.160865 7.537978,-0.244077 14.169862,-0.244308 z m -9.035368,4.750091 a 4.9247288,4.9247288 0 0 0 -4.924727,4.924728 4.9247288,4.9247288 0 0 0 4.924728,4.924729 4.9247288,4.9247288 0 0 0 4.924729,-4.924729 4.9247288,4.9247288 0 0 0 -4.92473,-4.924728 z m 18.291849,0 a 4.9247288,4.9247288 0 0 0 -4.924728,4.924728 4.9247288,4.9247288 0 0 0 4.924729,4.924729 4.9247288,4.9247288 0 0 0 4.924729,-4.924729 4.9247288,4.9247288 0 0 0 -4.92473,-4.924728 z"
     transform="matrix(0.92703123,0,0,0.92703123,2.3788249,1.3751513)" />
  <path
     id="rect1-3"
     style="opacity:1;fill:none;stroke:#000000;stroke-width:0.5;stroke-linejoin:bevel;stroke-miterlimit:4.6;stroke-opacity:1;filter:url(#filter2)"
     d="M 22.351922,6.1838493 H 41.648078 A 16.168073,16.168073 45 0 1 57.816151,22.351922 l 0,19.296156 A 16.168073,16.168073 135 0 1 41.648078,57.816151 l -19.296156,0 A 16.168073,16.168073 45 0 1 6.1838493,41.648078 V 22.351922 A 16.168073,16.168073 135 0 1 22.351922,6.1838493 Z"
     inkscape:path-effect="#path-effect2-5"
     inkscape:original-d="M 6.1838493,6.1838493 H 57.816151 V 57.816151 H 6.1838493 Z" />
</svg>
