<?xml version="1.0" encoding="UTF-8" standalone="no"?>
<svg
   width="64"
   height="64"
   version="1.1"
   id="svg19"
   sodipodi:docname="system-keyboard-mx.svg"
   inkscape:version="1.3.2 (091e20ef0f, 2023-11-25, custom)"
   xmlns:inkscape="http://www.inkscape.org/namespaces/inkscape"
   xmlns:sodipodi="http://sodipodi.sourceforge.net/DTD/sodipodi-0.dtd"
   xmlns:xlink="http://www.w3.org/1999/xlink"
   xmlns="http://www.w3.org/2000/svg"
   xmlns:svg="http://www.w3.org/2000/svg">
  <defs
     id="defs19">
    <radialGradient
       inkscape:collect="always"
       xlink:href="#linearGradient3"
       id="radialGradient2"
       cx="5.401279"
       cy="55.951233"
       fx="5.401279"
       fy="55.951233"
       r="27.5"
       gradientTransform="matrix(2.494078,-1.4399567,1.0210602,1.768528,-61.414801,-44.018035)"
       gradientUnits="userSpaceOnUse" />
    <linearGradient
       id="linearGradient3"
       inkscape:collect="always">
      <stop
         style="stop-color:#00bdff;stop-opacity:1;"
         offset="0"
         id="stop2" />
      <stop
         style="stop-color:#0085ff;stop-opacity:1;"
         offset="1"
         id="stop3" />
    </linearGradient>
    <filter
       inkscape:collect="always"
       style="color-interpolation-filters:sRGB"
       id="filter13"
       x="-0.09692017"
       y="-0.13122311"
       width="1.1938403"
       height="1.2624462">
      <feGaussianBlur
         inkscape:collect="always"
         stdDeviation="2.0978543"
         id="feGaussianBlur13" />
    </filter>
    <filter
       inkscape:collect="always"
       style="color-interpolation-filters:sRGB"
       id="filter14"
       x="-0.1058439"
       y="-0.14926704"
       width="1.2116878"
       height="1.2985341">
      <feGaussianBlur
         inkscape:collect="always"
         stdDeviation="1.8083354"
         id="feGaussianBlur14" />
    </filter>
    <filter
       inkscape:collect="always"
       style="color-interpolation-filters:sRGB"
       id="filter15"
       x="-0.049993429"
       y="-0.080454587"
       width="1.0999869"
       height="1.1609092">
      <feGaussianBlur
         inkscape:collect="always"
         stdDeviation="0.67365216"
         id="feGaussianBlur15" />
    </filter>
  </defs>
  <sodipodi:namedview
     id="namedview19"
     pagecolor="#ffffff"
     bordercolor="#000000"
     borderopacity="0.25"
     inkscape:showpageshadow="2"
     inkscape:pageopacity="0.0"
     inkscape:pagecheckerboard="0"
     inkscape:deskcolor="#d1d1d1"
     inkscape:zoom="13.1875"
     inkscape:cx="31.962085"
     inkscape:cy="32"
     inkscape:window-width="1920"
     inkscape:window-height="1020"
     inkscape:window-x="0"
     inkscape:window-y="0"
     inkscape:window-maximized="1"
     inkscape:current-layer="svg19" />
  <path
     style="color:#000000;fill:url(#radialGradient2);-inkscape-stroke:none"
     d="m 14.789063,12.244141 c -5.237534,0 -9.5371099,4.301529 -9.5371099,9.539062 v 20.433594 c 0,5.237533 4.2995759,9.539062 9.5371099,9.539062 h 34.421874 c 5.237534,0 9.53711,-4.301529 9.53711,-9.539062 V 21.783203 c 0,-5.237533 -4.299576,-9.539062 -9.53711,-9.539062 z"
     id="path13"
     sodipodi:nodetypes="sssssssss" />
  <path
     id="path12"
     style="color:#000000;fill:#ffffff;stroke-width:0.88234;-inkscape-stroke:none;opacity:0.59337846;fill-opacity:1"
     d="M 16.814453 16.958984 C 13.476426 16.958984 10.789062 19.646348 10.789062 22.984375 L 10.789062 41.015625 C 10.789063 44.353651 13.476426 47.041016 16.814453 47.041016 L 47.185547 47.041016 C 50.523572 47.041016 53.210938 44.353651 53.210938 41.015625 L 53.210938 22.984375 C 53.210938 19.646348 50.523572 16.958984 47.185547 16.958984 L 16.814453 16.958984 z M 18.490234 21.640625 L 21.039062 21.640625 C 21.745175 21.640625 22.3125 22.211857 22.3125 22.917969 L 22.3125 25.466797 C 22.3125 26.172908 21.745175 26.740234 21.039062 26.740234 L 18.490234 26.740234 C 17.784121 26.740234 17.214844 26.172908 17.214844 25.466797 L 17.214844 22.917969 C 17.214844 22.211858 17.784121 21.640625 18.490234 21.640625 z M 26.648438 21.640625 L 29.197266 21.640625 C 29.903378 21.640625 30.470703 22.211857 30.470703 22.917969 L 30.470703 25.466797 C 30.470703 26.172908 29.903378 26.740234 29.197266 26.740234 L 26.648438 26.740234 C 25.942326 26.740234 25.371094 26.172908 25.371094 25.466797 L 25.371094 22.917969 C 25.371094 22.211858 25.942326 21.640625 26.648438 21.640625 z M 34.802734 21.640625 L 37.351562 21.640625 C 38.057675 21.640625 38.628906 22.211857 38.628906 22.917969 L 38.628906 25.466797 C 38.628906 26.172908 38.057675 26.740234 37.351562 26.740234 L 34.802734 26.740234 C 34.096623 26.740234 33.529297 26.172908 33.529297 25.466797 L 33.529297 22.917969 C 33.529297 22.211858 34.096623 21.640625 34.802734 21.640625 z M 42.960938 21.640625 L 45.509766 21.640625 C 46.21588 21.640625 46.785156 22.211857 46.785156 22.917969 L 46.785156 25.466797 C 46.785156 26.172908 46.215881 26.740234 45.509766 26.740234 L 42.960938 26.740234 C 42.254827 26.740234 41.6875 26.172908 41.6875 25.466797 L 41.6875 22.917969 C 41.6875 22.211858 42.254827 21.640625 42.960938 21.640625 z M 22.568359 29.701172 L 25.117188 29.701172 C 25.823301 29.701172 26.392578 30.270449 26.392578 30.976562 L 26.392578 33.527344 C 26.392578 34.233457 25.823301 34.800781 25.117188 34.800781 L 22.568359 34.800781 C 21.862247 34.800781 21.292969 34.233457 21.292969 33.527344 L 21.292969 30.976562 C 21.292969 30.270449 21.862247 29.701172 22.568359 29.701172 z M 30.726562 29.701172 L 33.273438 29.701172 C 33.979549 29.701172 34.548828 30.270449 34.548828 30.976562 L 34.548828 33.527344 C 34.548828 34.233457 33.979549 34.800781 33.273438 34.800781 L 30.726562 34.800781 C 30.020449 34.800781 29.451172 34.233457 29.451172 33.527344 L 29.451172 30.976562 C 29.451172 30.270449 30.020449 29.701172 30.726562 29.701172 z M 38.882812 29.701172 L 41.431641 29.701172 C 42.137751 29.701172 42.707031 30.270449 42.707031 30.976562 L 42.707031 33.527344 C 42.707031 34.233457 42.137751 34.800781 41.431641 34.800781 L 38.882812 34.800781 C 38.176698 34.800781 37.607422 34.233457 37.607422 33.527344 L 37.607422 30.976562 C 37.607422 30.270449 38.176699 29.701172 38.882812 29.701172 z M 16.439453 37.853516 L 47.560547 37.853516 C 48.176064 37.853516 48.669922 38.356463 48.669922 38.980469 L 48.669922 41.232422 C 48.669922 41.856426 48.176064 42.359375 47.560547 42.359375 L 16.439453 42.359375 C 15.823936 42.359375 15.330078 41.856426 15.330078 41.232422 L 15.330078 38.980469 C 15.330078 38.356463 15.823936 37.853516 16.439453 37.853516 z " />
  <path
     style="color:#000000;fill:none;stroke:#000000;stroke-width:0.3;stroke-dasharray:none;stroke-opacity:1;filter:url(#filter13)"
     d="m 14.789063,12.244141 c -5.237534,0 -9.53711,4.301529 -9.53711,9.539062 v 20.433594 c 0,5.237533 4.299576,9.539062 9.53711,9.539062 h 34.421874 c 5.237534,0 9.53711,-4.301529 9.53711,-9.539062 V 21.783203 c 0,-5.237533 -4.299576,-9.539062 -9.53711,-9.539062 z"
     id="path13-6"
     sodipodi:nodetypes="sssssssss" />
  <path
     style="color:#000000;fill:none;stroke:#3500ff;stroke-width:0.30000001;stroke-dasharray:none;stroke-opacity:1;filter:url(#filter14)"
     d="m 16.81482,16.959824 h 30.370361 c 3.338029,0 6.025323,2.687294 6.025323,6.025324 v 18.029705 c 0,3.338029 -2.687295,6.025323 -6.025323,6.025323 H 16.81482 c -3.33803,0 -6.025324,-2.687294 -6.025324,-6.025323 V 22.985147 c 0,-3.33803 2.687294,-6.025324 6.025324,-6.025323 z"
     id="path12-2" />
  <path
     id="path11-9"
     style="opacity:1;fill:none;fill-opacity:1;stroke:#000000;stroke-width:0.1;stroke-dasharray:none;stroke-opacity:1;filter:url(#filter15)"
     d="m 18.49007,21.641577 c -0.706114,0 -1.275545,0.569432 -1.275545,1.275543 v 2.54922 c 0,0.706113 0.569431,1.273677 1.275545,1.273677 h 2.549219 c 0.706113,0 1.273676,-0.567564 1.273676,-1.273677 v -2.549219 c 0,-0.706112 -0.567563,-1.275542 -1.273676,-1.275542 z m 8.157503,0 c -0.706112,0 -1.275545,0.569432 -1.275545,1.275543 v 2.54922 c 0,0.706113 0.569433,1.273677 1.275545,1.273677 h 2.549219 c 0.706113,0 1.273677,-0.567564 1.273677,-1.273677 v -2.549219 c 0,-0.706112 -0.567564,-1.275542 -1.273677,-1.275542 z m 8.155635,0 c -0.706112,0 -1.273677,0.569432 -1.273677,1.275543 v 2.54922 c 0,0.706113 0.567565,1.273677 1.273677,1.273677 h 2.549219 c 0.706113,0 1.275545,-0.567564 1.275545,-1.273677 v -2.549219 c 0,-0.706112 -0.569432,-1.275542 -1.275545,-1.275542 z m 8.157503,0 c -0.706111,0 -1.273676,0.569432 -1.273676,1.275543 v 2.54922 c 0,0.706113 0.567565,1.273677 1.273676,1.273677 h 2.549219 c 0.706116,0 1.275545,-0.567564 1.275545,-1.273677 v -2.549219 c 0,-0.706112 -0.56943,-1.275542 -1.275545,-1.275542 z m -20.39189,8.060389 c -0.706113,0 -1.275544,0.569432 -1.275544,1.275546 v 2.549218 c 0,0.706115 0.569431,1.273676 1.275544,1.273676 h 2.549219 c 0.706114,0 1.273677,-0.567562 1.273677,-1.273676 v -2.549219 c 0,-0.706114 -0.567563,-1.275545 -1.273677,-1.275545 z m 8.157503,0 c -0.706114,0 -1.275544,0.569432 -1.275544,1.275546 v 2.549218 c 0,0.706115 0.56943,1.273676 1.275544,1.273676 h 2.547352 c 0.706112,0 1.275544,-0.567562 1.275544,-1.273676 v -2.549219 c 0,-0.706114 -0.569432,-1.275545 -1.275544,-1.275545 z m 8.155636,0 c -0.706114,0 -1.273677,0.569432 -1.273677,1.275546 v 2.549218 c 0,0.706115 0.567562,1.273676 1.273677,1.273676 h 2.549219 c 0.706111,0 1.275544,-0.567562 1.275544,-1.273676 v -2.549219 c 0,-0.706114 -0.569433,-1.275545 -1.275544,-1.275545 z m -22.442472,8.151901 c -0.615518,0 -1.109331,0.502133 -1.109331,1.12614 v 2.252277 c 0,0.624005 0.493813,1.126138 1.109331,1.126138 h 31.121024 c 0.615518,0 1.109331,-0.502133 1.109331,-1.126138 v -2.252277 c 0,-0.624007 -0.493813,-1.12614 -1.109331,-1.12614 z" />
</svg>
