<?xml version="1.0" encoding="UTF-8" standalone="no"?>
<svg
   width="64"
   height="64"
   version="1"
   id="svg4"
   sodipodi:docname="system-log-out.svg"
   inkscape:version="1.3.2 (091e20ef0f, 2023-11-25, custom)"
   xmlns:inkscape="http://www.inkscape.org/namespaces/inkscape"
   xmlns:sodipodi="http://sodipodi.sourceforge.net/DTD/sodipodi-0.dtd"
   xmlns:xlink="http://www.w3.org/1999/xlink"
   xmlns="http://www.w3.org/2000/svg"
   xmlns:svg="http://www.w3.org/2000/svg">
  <defs
     id="defs4">
    <inkscape:path-effect
       effect="fillet_chamfer"
       id="path-effect6"
       is_visible="true"
       lpeversion="1"
       nodesatellites_param="F,0,0,1,0,0,0,1 @ F,0,0,1,0,0,0,1 @ F,0,0,1,0,0,0,1 @ F,0,0,1,0,0,0,1 @ F,0,0,1,0,0,0,1 @ F,0,0,1,0,0,0,1 @ F,0,0,1,0,0,0,1 @ F,0,0,1,0,0,0,1 @ F,0,0,1,0,0,0,1 @ F,0,0,1,0,0,0,1 | F,0,0,1,0,1.334861,0,1 @ F,0,0,1,0,1.334861,0,1 @ F,0,0,1,0,0,0,1 @ F,0,0,1,0,0,0,1 @ F,0,0,1,0,0,0,1 @ F,0,0,1,0,1.334861,0,1 @ F,0,0,1,0,1.334861,0,1 @ F,0,0,1,0,2.94838,0,1"
       radius="0"
       unit="px"
       method="auto"
       mode="F"
       chamfer_steps="1"
       flexible="false"
       use_knot_distance="true"
       apply_no_radius="true"
       apply_with_radius="true"
       only_selected="false"
       hide_knots="false" />
    <linearGradient
       id="linearGradient5"
       inkscape:collect="always">
      <stop
         style="stop-color:#32c4fa;stop-opacity:1;"
         offset="0"
         id="stop5" />
      <stop
         style="stop-color:#007fff;stop-opacity:1;"
         offset="1"
         id="stop6" />
    </linearGradient>
    <radialGradient
       inkscape:collect="always"
       xlink:href="#linearGradient5"
       id="radialGradient6"
       cx="17.734203"
       cy="40.681229"
       fx="17.734203"
       fy="40.681229"
       r="29"
       gradientUnits="userSpaceOnUse"
       gradientTransform="matrix(1.2447701,2.1560051,-2.1560051,1.2447701,86.241661,-64.870112)" />
    <inkscape:path-effect
       effect="fillet_chamfer"
       id="path-effect6-3"
       is_visible="true"
       lpeversion="1"
       nodesatellites_param="F,0,0,1,0,0,0,1 @ F,0,0,1,0,0,0,1 @ F,0,0,1,0,0,0,1 @ F,0,0,1,0,0,0,1 @ F,0,0,1,0,0,0,1 @ F,0,0,1,0,0,0,1 @ F,0,0,1,0,0,0,1 @ F,0,0,1,0,0,0,1 @ F,0,0,1,0,0,0,1 @ F,0,0,1,0,0,0,1 | F,0,0,1,0,1.334861,0,1 @ F,0,0,1,0,1.334861,0,1 @ F,0,0,1,0,0,0,1 @ F,0,0,1,0,0,0,1 @ F,0,0,1,0,0,0,1 @ F,0,0,1,0,1.334861,0,1 @ F,0,0,1,0,1.334861,0,1 @ F,0,0,1,0,2.94838,0,1"
       radius="0"
       unit="px"
       method="auto"
       mode="F"
       chamfer_steps="1"
       flexible="false"
       use_knot_distance="true"
       apply_no_radius="true"
       apply_with_radius="true"
       only_selected="false"
       hide_knots="false" />
    <filter
       inkscape:collect="always"
       style="color-interpolation-filters:sRGB"
       id="filter2"
       x="-0.11070151"
       y="-0.11070151"
       width="1.221403"
       height="1.221403">
      <feGaussianBlur
         inkscape:collect="always"
         stdDeviation="2.3357498"
         id="feGaussianBlur2" />
    </filter>
    <filter
       inkscape:collect="always"
       style="color-interpolation-filters:sRGB"
       id="filter3"
       x="-0.074411407"
       y="-0.080786492"
       width="1.1487845"
       height="1.1615634">
      <feGaussianBlur
         inkscape:collect="always"
         stdDeviation="1.3440519"
         id="feGaussianBlur3" />
    </filter>
  </defs>
  <sodipodi:namedview
     id="namedview4"
     pagecolor="#ffffff"
     bordercolor="#000000"
     borderopacity="0.25"
     inkscape:showpageshadow="2"
     inkscape:pageopacity="0.0"
     inkscape:pagecheckerboard="0"
     inkscape:deskcolor="#d1d1d1"
     inkscape:zoom="7.9062795"
     inkscape:cx="26.624407"
     inkscape:cy="29.849691"
     inkscape:window-width="1920"
     inkscape:window-height="1020"
     inkscape:window-x="0"
     inkscape:window-y="0"
     inkscape:window-maximized="1"
     inkscape:current-layer="svg4" />
  <circle
     style="fill:url(#radialGradient6);stroke-width:0.896446"
     cx="32"
     cy="32"
     r="25.996933"
     id="circle2" />
  <path
     style="fill:#ffffff"
     d="m 31.078124,11.019531 c -0.617408,0.027 -1.231522,0.0832 -1.843748,0.164062 -4.89781,0.646875 -9.57223,3.006873 -13.035157,6.957032 -6.9258576,7.900319 -6.9355092,19.775093 -0.02344,27.687499 6.912073,7.912406 18.671753,9.488388 27.417969,3.671876 3.332758,-2.215651 0.01245,-7.219557 -3.320312,-5.003906 -6.280246,4.176562 -14.6188,3.064336 -19.582032,-2.617188 -4.963231,-5.681524 -4.953678,-14.104496 0.0196,-19.777344 4.973132,-5.672843 13.312984,-6.773464 19.585938,-2.585937 3.331476,2.240536 6.675303,-2.779235 3.328056,-4.996094 -3.822036,-2.551405 -8.225016,-3.688995 -12.546876,-3.5 z M 45,22.834861 v 4.830278 A 1.334861,1.334861 135 0 1 43.665139,29 H 34 c -1.656854,0 -3,1.34311 -3,3 0,1.65689 1.343146,3 3,3 h 9.665139 A 1.334861,1.334861 45 0 1 45,36.334861 v 4.830278 a 0.63773241,0.63773241 25.536228 0 0 1.038443,0.496118 l 9.667891,-7.80868 a 2.3813838,2.3813838 90 0 0 0,-3.705154 l -9.667891,-7.80868 A 0.63773241,0.63773241 154.46377 0 0 45,22.834861 Z"
     id="path3"
     inkscape:path-effect="#path-effect6"
     inkscape:original-d="m 31.078124,11.019531 c -0.617408,0.027 -1.231522,0.0832 -1.843748,0.164062 -4.89781,0.646875 -9.57223,3.006873 -13.035157,6.957032 C 9.2733614,26.040944 9.2637098,37.915718 16.175781,45.828124 23.087854,53.74053 34.847534,55.316512 43.59375,49.5 a 3.0006612,3.003522 0 1 0 -3.320312,-5.003906 c -6.280246,4.176562 -14.6188,3.064336 -19.582032,-2.617188 -4.963231,-5.681524 -4.953678,-14.104496 0.0196,-19.777344 4.973132,-5.672843 13.312984,-6.773464 19.585938,-2.585937 A 2.9995766,3.0024362 0 1 0 43.625,14.519531 c -3.822036,-2.551405 -8.225016,-3.688995 -12.546876,-3.5 z M 45,21.5 V 29 H 34 c -1.656854,0 -3,1.34311 -3,3 0,1.65689 1.343146,3 3,3 h 11 v 7.5 L 58,32 Z"
     transform="matrix(0.89644599,0,0,0.89644599,2.4047534,3.3142106)" />
  <circle
     style="fill:none;stroke-width:0.3;stroke:#000000;stroke-opacity:1;stroke-dasharray:none;filter:url(#filter2)"
     cx="32"
     cy="32"
     r="25.996933"
     id="circle2-3" />
  <path
     style="fill:none;stroke:#0036ff;stroke-opacity:1;stroke-width:0.33465483;stroke-dasharray:none;filter:url(#filter3)"
     d="m 31.078124,11.019531 c -0.617408,0.027 -1.231522,0.0832 -1.843748,0.164062 -4.89781,0.646875 -9.57223,3.006873 -13.035157,6.957032 -6.9258576,7.900319 -6.9355092,19.775093 -0.02344,27.687499 6.912073,7.912406 18.671753,9.488388 27.417969,3.671876 3.332758,-2.215651 0.01245,-7.219557 -3.320312,-5.003906 -6.280246,4.176562 -14.6188,3.064336 -19.582032,-2.617188 -4.963231,-5.681524 -4.953678,-14.104496 0.0196,-19.777344 4.973132,-5.672843 13.312984,-6.773464 19.585938,-2.585937 3.331476,2.240536 6.675303,-2.779235 3.328056,-4.996094 -3.822036,-2.551405 -8.225016,-3.688995 -12.546876,-3.5 z M 45,22.834861 v 4.830278 A 1.334861,1.334861 135 0 1 43.665139,29 H 34 c -1.656854,0 -3,1.34311 -3,3 0,1.65689 1.343146,3 3,3 h 9.665139 A 1.334861,1.334861 45 0 1 45,36.334861 v 4.830278 a 0.63773241,0.63773241 25.536228 0 0 1.038443,0.496118 l 9.667891,-7.80868 a 2.3813838,2.3813838 90 0 0 0,-3.705154 l -9.667891,-7.80868 A 0.63773241,0.63773241 154.46377 0 0 45,22.834861 Z"
     id="path3-5"
     inkscape:path-effect="#path-effect6-3"
     inkscape:original-d="m 31.078124,11.019531 c -0.617408,0.027 -1.231522,0.0832 -1.843748,0.164062 -4.89781,0.646875 -9.57223,3.006873 -13.035157,6.957032 C 9.2733614,26.040944 9.2637098,37.915718 16.175781,45.828124 23.087854,53.74053 34.847534,55.316512 43.59375,49.5 a 3.0006612,3.003522 0 1 0 -3.320312,-5.003906 c -6.280246,4.176562 -14.6188,3.064336 -19.582032,-2.617188 -4.963231,-5.681524 -4.953678,-14.104496 0.0196,-19.777344 4.973132,-5.672843 13.312984,-6.773464 19.585938,-2.585937 A 2.9995766,3.0024362 0 1 0 43.625,14.519531 c -3.822036,-2.551405 -8.225016,-3.688995 -12.546876,-3.5 z M 45,21.5 V 29 H 34 c -1.656854,0 -3,1.34311 -3,3 0,1.65689 1.343146,3 3,3 h 11 v 7.5 L 58,32 Z"
     transform="matrix(0.89644599,0,0,0.89644599,2.4047534,3.3142106)" />
</svg>
