<?xml version="1.0" encoding="UTF-8" standalone="no"?>
<svg
   width="64"
   height="64"
   version="1"
   id="svg7"
   sodipodi:docname="trashindicator.svg"
   inkscape:version="1.3.2 (091e20ef0f, 2023-11-25, custom)"
   xmlns:inkscape="http://www.inkscape.org/namespaces/inkscape"
   xmlns:sodipodi="http://sodipodi.sourceforge.net/DTD/sodipodi-0.dtd"
   xmlns="http://www.w3.org/2000/svg"
   xmlns:svg="http://www.w3.org/2000/svg">
  <defs
     id="defs7">
    <radialGradient
       id="SVGID_2_"
       cx="11.483"
       cy="63.456902"
       r="36.125301"
       gradientTransform="matrix(1,0,0,-1,10.010772,54.5)"
       gradientUnits="userSpaceOnUse">
		<stop
   offset="0"
   style="stop-color:#707070"
   id="stop3" />

		<stop
   offset="1"
   style="stop-color:#454545"
   id="stop4" />

	</radialGradient>
    <filter
       inkscape:collect="always"
       style="color-interpolation-filters:sRGB"
       id="filter5"
       x="-0.018718002"
       y="-0.084231007"
       width="1.037436"
       height="1.168462">
      <feGaussianBlur
         inkscape:collect="always"
         stdDeviation="0.42115504"
         id="feGaussianBlur5" />
    </filter>
    <radialGradient
       id="SVGID_1_"
       cx="19.542999"
       cy="43.0602"
       r="37.8494"
       gradientTransform="matrix(1,0,0,-1,10.010772,54.5)"
       gradientUnits="userSpaceOnUse">
		<stop
   offset="0"
   style="stop-color:#707070"
   id="stop1" />

		<stop
   offset="1"
   style="stop-color:#454545"
   id="stop2" />

	</radialGradient>
    <filter
       inkscape:collect="always"
       style="color-interpolation-filters:sRGB"
       id="filter6"
       x="-0.021973306"
       y="-0.019437925"
       width="1.0439466"
       height="1.0388758">
      <feGaussianBlur
         inkscape:collect="always"
         stdDeviation="0.42115504"
         id="feGaussianBlur6" />
    </filter>
  </defs>
  <sodipodi:namedview
     id="namedview7"
     pagecolor="#ffffff"
     bordercolor="#000000"
     borderopacity="0.25"
     inkscape:showpageshadow="2"
     inkscape:pageopacity="0.0"
     inkscape:pagecheckerboard="0"
     inkscape:deskcolor="#d1d1d1"
     inkscape:zoom="13.890625"
     inkscape:cx="32"
     inkscape:cy="32"
     inkscape:window-width="1920"
     inkscape:window-height="1018"
     inkscape:window-x="0"
     inkscape:window-y="0"
     inkscape:window-maximized="1"
     inkscape:current-layer="svg7" />
  <g
     id="g7"
     transform="translate(-10.010772,11.194615)">
    <path
       class="st0"
       d="m 29.610772,-2.4 h 24.9 c 5.8,0 10.5,4.7 10.5,10.6 v 30.9 c 0,5.8 -4.7,10.5 -10.6,10.5 h -24.8 c -5.9,0 -10.6,-4.7 -10.6,-10.6 V 8.2 c 0,-5.9 4.7,-10.6 10.6,-10.6 z"
       id="path1"
       style="opacity:0.464007;mix-blend-mode:normal;filter:url(#filter6);enable-background:new" />
    <path
       class="st1"
       d="m 29.910772,-3 h 24.3 c 6,0 10.9,4.9 10.9,10.9 v 30.3 c 0,6 -4.9,10.9 -10.9,10.9 h -24.3 c -6,0 -10.9,-4.9 -10.9,-10.9 V 7.9 c 0,-6 4.9,-10.9 10.9,-10.9 z"
       id="path2"
       style="fill:url(#SVGID_1_)" />
    <path
       class="st0"
       d="m 21.010772,-6.4 h 42 c 3.3,0 6,2.7 6,6 v 0 c 0,3.3 -2.7,6 -6,6 h -42 c -3.3,0 -6,-2.7 -6,-6 v 0 c 0,-3.3 2.7,-6 6,-6 z"
       id="path3"
       style="opacity:0.464007;mix-blend-mode:normal;filter:url(#filter5);enable-background:new" />
    <path
       class="st2"
       d="m 36.010772,-9 h 12 c 1.7,0 3,1.3 3,3 v 0 c 0,1.7 -1.3,3 -3,3 h -12 c -1.7,0 -3,-1.3 -3,-3 v 0 c 0,-1.7 1.3,-3 3,-3 z m -15,2 h 42 c 3.3,0 6,2.7 6,6 v 0 c 0,3.3 -2.7,6 -6,6 h -42 c -3.3,0 -6,-2.7 -6,-6 v 0 c 0,-3.3 2.7,-6 6,-6 z"
       id="path4"
       style="fill:url(#SVGID_2_)" />
    <path
       class="st3"
       d="m 54.010772,14 v 24 m -12,-24 v 24 m -12,-24 v 24"
       id="path5"
       style="opacity:0.3;fill:none;stroke:#000000;stroke-width:6;stroke-linecap:round;enable-background:new" />
  </g>
</svg>
