<?xml version="1.0" encoding="UTF-8" standalone="no"?>
<!-- Generator: Adobe Illustrator 25.2.2, SVG Export Plug-In . SVG Version: 6.00 Build 0)  -->

<svg
   version="1.1"
   id="Layer_1"
   x="0px"
   y="0px"
   viewBox="0 0 64 64"
   style="enable-background:new 0 0 64 64;"
   xml:space="preserve"
   sodipodi:docname="systemsettings.svg"
   inkscape:version="1.3.2 (091e20ef0f, 2023-11-25, custom)"
   xmlns:inkscape="http://www.inkscape.org/namespaces/inkscape"
   xmlns:sodipodi="http://sodipodi.sourceforge.net/DTD/sodipodi-0.dtd"
   xmlns:xlink="http://www.w3.org/1999/xlink"
   xmlns="http://www.w3.org/2000/svg"
   xmlns:svg="http://www.w3.org/2000/svg"><defs
   id="defs7"><radialGradient
     id="SVGID_2_"
     cx="21.0371"
     cy="56.209099"
     r="40.250599"
     gradientTransform="matrix(1,0,0,-1,0,66)"
     gradientUnits="userSpaceOnUse">
	<stop
   offset="0"
   style="stop-color:#FFFFFF"
   id="stop5" />
	<stop
   offset="1"
   style="stop-color:#C4C4C4"
   id="stop6" />
</radialGradient><radialGradient
     id="SVGID_1_-3"
     cx="-0.0342944"
     cy="66.391869"
     r="64.706802"
     gradientTransform="matrix(1.6487794,-0.4417891,-0.4417891,-1.6487794,29.353453,108.55852)"
     gradientUnits="userSpaceOnUse"
     fx="-0.0342944"
     fy="66.391869">
	<stop
   offset="0"
   style="stop-color:#006fff;stop-opacity:1;"
   id="stop1-6" />
	<stop
   offset="1"
   style="stop-color:#15baff;stop-opacity:1;"
   id="stop2-7" />
</radialGradient><radialGradient
     id="SVGID_2_-3"
     cx="21.0371"
     cy="56.209099"
     r="40.250599"
     gradientTransform="matrix(1,0,0,-1,0,66)"
     gradientUnits="userSpaceOnUse">
	<stop
   offset="0"
   style="stop-color:#FFFFFF"
   id="stop5-5" />
	<stop
   offset="1"
   style="stop-color:#C4C4C4"
   id="stop6-6" />
</radialGradient><radialGradient
     inkscape:collect="always"
     xlink:href="#SVGID_2_-3-3"
     id="radialGradient8-5"
     gradientUnits="userSpaceOnUse"
     gradientTransform="matrix(1,0,0,-1,-0.26828282,65.391962)"
     cx="21.0371"
     cy="56.209099"
     r="40.250599" /><radialGradient
     id="SVGID_2_-3-3"
     cx="21.0371"
     cy="56.209099"
     r="40.250599"
     gradientTransform="matrix(1,0,0,-1,0,66)"
     gradientUnits="userSpaceOnUse">
	<stop
   offset="0"
   style="stop-color:#FFFFFF"
   id="stop5-5-6" />
	<stop
   offset="1"
   style="stop-color:#C4C4C4"
   id="stop6-6-7" />
</radialGradient><radialGradient
     id="SVGID_2_-5"
     cx="21.0371"
     cy="56.209099"
     r="40.250599"
     gradientTransform="matrix(1,0,0,-1,0,66)"
     gradientUnits="userSpaceOnUse">
	<stop
   offset="0"
   style="stop-color:#FFFFFF"
   id="stop5-3" />
	<stop
   offset="1"
   style="stop-color:#C4C4C4"
   id="stop6-56" />
</radialGradient><radialGradient
     id="SVGID_1_-3-2"
     cx="-159.43106"
     cy="15.462561"
     r="64.706802"
     gradientTransform="matrix(-0.89413329,0,0,0.96304834,-80.753654,49.330428)"
     gradientUnits="userSpaceOnUse"
     fx="-159.43106"
     fy="15.462561">
	<stop
   offset="0"
   style="stop-color:#006fff;stop-opacity:1;"
   id="stop1-6-9" />
	<stop
   offset="1"
   style="stop-color:#15baff;stop-opacity:1;"
   id="stop2-7-1" />
</radialGradient><radialGradient
     id="SVGID_2_-3-3-6"
     cx="21.0371"
     cy="56.209099"
     r="40.250599"
     gradientTransform="matrix(1,0,0,-1,0,66)"
     gradientUnits="userSpaceOnUse">
	<stop
   offset="0"
   style="stop-color:#FFFFFF"
   id="stop5-5-6-7" />
	<stop
   offset="1"
   style="stop-color:#C4C4C4"
   id="stop6-6-7-5" />
</radialGradient><radialGradient
     id="SVGID_1_-3-2-3"
     cx="-159.43106"
     cy="15.462561"
     r="64.706802"
     gradientTransform="matrix(-0.89413329,0,0,0.96304834,-80.701354,48.226892)"
     gradientUnits="userSpaceOnUse"
     fx="-159.43106"
     fy="15.462561">
	<stop
   offset="0"
   style="stop-color:#006fff;stop-opacity:1;"
   id="stop1-6-9-5" />
	<stop
   offset="1"
   style="stop-color:#15baff;stop-opacity:1;"
   id="stop2-7-1-6" />
</radialGradient><filter
     inkscape:collect="always"
     style="color-interpolation-filters:sRGB"
     id="filter1"
     x="-0.12143912"
     y="-0.1103992"
     width="1.2428782"
     height="1.2207984"><feGaussianBlur
       inkscape:collect="always"
       stdDeviation="0.94949263"
       id="feGaussianBlur1" /></filter><filter
     inkscape:collect="always"
     style="color-interpolation-filters:sRGB"
     id="filter2"
     x="-0.10149862"
     y="-0.14499802"
     width="1.2029972"
     height="1.289996"><feGaussianBlur
       inkscape:collect="always"
       stdDeviation="1.6291436"
       id="feGaussianBlur2" /></filter><filter
     inkscape:collect="always"
     style="color-interpolation-filters:sRGB"
     id="filter3"
     x="-0.079119082"
     y="-0.079119082"
     width="1.1582382"
     height="1.1582382"><feGaussianBlur
       inkscape:collect="always"
       stdDeviation="1.0583537"
       id="feGaussianBlur3" /></filter><filter
     inkscape:collect="always"
     style="color-interpolation-filters:sRGB"
     id="filter4"
     x="-0.070802977"
     y="-0.070802977"
     width="1.141606"
     height="1.141606"><feGaussianBlur
       inkscape:collect="always"
       stdDeviation="1.5895694"
       id="feGaussianBlur4" /></filter></defs><sodipodi:namedview
   id="namedview7"
   pagecolor="#ffffff"
   bordercolor="#000000"
   borderopacity="0.25"
   inkscape:showpageshadow="2"
   inkscape:pageopacity="0.0"
   inkscape:pagecheckerboard="0"
   inkscape:deskcolor="#d1d1d1"
   inkscape:zoom="12.6875"
   inkscape:cx="32.591133"
   inkscape:cy="31.29064"
   inkscape:window-width="1920"
   inkscape:window-height="1020"
   inkscape:window-x="0"
   inkscape:window-y="0"
   inkscape:window-maximized="1"
   inkscape:current-layer="Layer_1" />
<style
   type="text/css"
   id="style1">
	.st0{opacity:0.2;enable-background:new    ;}
	.st1{fill:url(#SVGID_1_);}
	.st2{opacity:0.57;fill:#FFFFFF;}
	.st3{opacity:0.25;fill:url(#SVGID_2_);}
	.st4{fill:url(#SVGID_3_);}
</style>

<radialGradient
   id="SVGID_1_"
   cx="4.2903"
   cy="-2983.1494"
   r="64.7068"
   gradientTransform="matrix(1 0 0 -1 0 -2976)"
   gradientUnits="userSpaceOnUse">
	<stop
   offset="1.142015e-02"
   style="stop-color:#55A8FF"
   id="stop1" />
	<stop
   offset="1"
   style="stop-color:#9058FF"
   id="stop2" />
</radialGradient>


<path
   class="st1"
   d="m 20.773851,4.0517697 h 22.4 c 9.3,0 16.8,7.4999993 16.8,16.7999993 v 22.4 c 0,9.3 -7.5,16.8 -16.8,16.8 h -22.4 c -9.3,0 -16.7999993,-7.5 -16.7999993,-16.8 v -22.4 c 0,-9.3 7.4999993,-16.7999993 16.7999993,-16.7999993 z"
   id="path2"
   style="fill:url(#SVGID_1_-3-2)" /><path
   class="st1"
   d="M 20.8,4.0000004 H 43.2 C 52.5,4.0000004 60,11.5 60,20.8 V 43.2 C 60,52.5 52.5,60 43.2,60 H 20.8 C 11.5,60 4.0000004,52.5 4.0000004,43.2 V 20.8 C 4.0000004,11.5 11.5,4.0000004 20.8,4.0000004 Z"
   id="path2-2"
   style="fill:none;stroke:#000000;stroke-opacity:1;filter:url(#filter4);opacity:0.67318905;stroke-width:0.3;stroke-dasharray:none" /><path
   class="st2"
   d="m 17.973851,15.051769 c -1.7,0 -3,1.4 -3,3 v 28 c 0,1.7 1.3,3 3,3 1.7,0 3,-1.3 3,-3 v -28 c 0,-1.6 -1.3,-3 -3,-3 z m 25,17 v 14 c 0,1.7 1.3,3 3,3 1.7,0 3,-1.3 3,-3 v -14 z m -14,5 v 9 c 0,1.7 1.3,3 3,3 1.7,0 3,-1.3 3,-3 v -9 z"
   id="path3"
   style="opacity:0.49;fill:#ffffff" /><path
   class="st2"
   d="m 18,15 c -1.7,0 -3,1.4 -3,3 v 28 c 0,1.7 1.3,3 3,3 1.7,0 3,-1.3 3,-3 V 18 c 0,-1.6 -1.3,-3 -3,-3 z m 25,17 v 14 c 0,1.7 1.3,3 3,3 1.7,0 3,-1.3 3,-3 V 32 Z m -14,5 v 9 c 0,1.7 1.3,3 3,3 1.7,0 3,-1.3 3,-3 v -9 z"
   id="path3-9"
   style="fill:none;stroke:#0100ff;stroke-opacity:1;filter:url(#filter3);opacity:1;stroke-width:0.3;stroke-dasharray:none" /><path
   class="st0"
   d="m 31.973851,15.051769 c -1.7,0 -3,1.4 -3,3 v 19 h 6 v -19 c 0,-1.7 -1.4,-3 -3,-3 z m 14,0 c -1.7,0 -3,1.4 -3,3 v 14 h 6 v -14 c 0,-1.7 -1.4,-3 -3,-3 z"
   id="path4"
   style="opacity:0.2;enable-background:new" /><path
   class="st0"
   d="m 32,15 c -1.7,0 -3,1.4 -3,3 v 19 h 6 V 18 c 0,-1.7 -1.4,-3 -3,-3 z m 14,0 c -1.7,0 -3,1.4 -3,3 v 14 h 6 V 18 c 0,-1.7 -1.4,-3 -3,-3 z"
   id="path4-1"
   style="fill:none;stroke:#000000;stroke-opacity:1;filter:url(#filter1);enable-background:new;opacity:0.30610395;stroke-width:0.3;stroke-dasharray:none" /><path
   class="st4"
   d="m 17.731716,14.391962 c -3.3,0 -6,2.7 -6,6 0,3.3 2.7,6 6,6 3.3,0 6,-2.7 6,-6 0,-3.3 -2.7,-6 -6,-6 z m 28,11 c -3.3,0 -6,2.7 -6,6 0,3.3 2.7,6 6,6 3.3,0 6,-2.7 6,-6 0,-3.3 -2.7,-6 -6,-6 z m -14,5 c -3.3,0 -6,2.7 -6,6 0,3.3 2.7,6 6,6 3.3,0 6,-2.7 6,-6 0,-3.3 -2.7,-6 -6,-6 z"
   id="path6-2"
   style="fill:url(#radialGradient8-5)" /><path
   class="st4"
   d="m 17.757865,14.340193 c -3.3,0 -6,2.7 -6,6 0,3.3 2.7,6 6,6 3.3,0 6,-2.7 6,-6 0,-3.3 -2.7,-6 -6,-6 z m 28,11 c -3.3,0 -6,2.7 -6,6 0,3.3 2.7,6 6,6 3.3,0 6,-2.7 6,-6 0,-3.3 -2.7,-6 -6,-6 z m -14,5 c -3.3,0 -6,2.7 -6,6 0,3.3 2.7,6 6,6 3.3,0 6,-2.7 6,-6 0,-3.3 -2.7,-6 -6,-6 z"
   id="path6-2-2"
   style="fill:none;stroke:#000000;stroke-opacity:1;filter:url(#filter2);opacity:1;stroke-width:0.3;stroke-dasharray:none" /></svg>
