<?xml version="1.0" encoding="UTF-8" standalone="no"?>
<svg
   width="64"
   height="64"
   version="1.1"
   id="svg4"
   sodipodi:docname="ventoy.svg"
   inkscape:version="1.3.2 (091e20ef0f, 2023-11-25, custom)"
   xmlns:inkscape="http://www.inkscape.org/namespaces/inkscape"
   xmlns:sodipodi="http://sodipodi.sourceforge.net/DTD/sodipodi-0.dtd"
   xmlns:xlink="http://www.w3.org/1999/xlink"
   xmlns="http://www.w3.org/2000/svg"
   xmlns:svg="http://www.w3.org/2000/svg">
  <defs
     id="defs4">
    <linearGradient
       id="linearGradient4"
       inkscape:collect="always">
      <stop
         style="stop-color:#00f4ff;stop-opacity:1;"
         offset="0"
         id="stop4" />
      <stop
         style="stop-color:#008cff;stop-opacity:1;"
         offset="1"
         id="stop5" />
    </linearGradient>
    <radialGradient
       inkscape:collect="always"
       xlink:href="#linearGradient4"
       id="radialGradient5"
       cx="9.6072197"
       cy="26.70656"
       fx="9.6072197"
       fy="26.70656"
       r="28"
       gradientUnits="userSpaceOnUse"
       gradientTransform="matrix(0.61497741,1.3974225,-1.6091192,0.70814086,46.673036,-5.6307911)" />
    <filter
       inkscape:collect="always"
       style="color-interpolation-filters:sRGB"
       id="filter5"
       x="-0.043611065"
       y="-0.043134603"
       width="1.0872221"
       height="1.0862692">
      <feGaussianBlur
         inkscape:collect="always"
         stdDeviation="0.65781086"
         id="feGaussianBlur5" />
    </filter>
    <filter
       inkscape:collect="always"
       style="color-interpolation-filters:sRGB"
       id="filter6"
       x="-0.046588652"
       y="-0.046588652"
       width="1.0931773"
       height="1.0931773">
      <feGaussianBlur
         inkscape:collect="always"
         stdDeviation="1.0870686"
         id="feGaussianBlur6" />
    </filter>
  </defs>
  <sodipodi:namedview
     id="namedview4"
     pagecolor="#ffffff"
     bordercolor="#000000"
     borderopacity="0.25"
     inkscape:showpageshadow="2"
     inkscape:pageopacity="0.0"
     inkscape:pagecheckerboard="0"
     inkscape:deskcolor="#d1d1d1"
     inkscape:zoom="9.7006212"
     inkscape:cx="26.080804"
     inkscape:cy="31.647458"
     inkscape:window-width="1920"
     inkscape:window-height="1017"
     inkscape:window-x="0"
     inkscape:window-y="0"
     inkscape:window-maximized="1"
     inkscape:current-layer="svg4" />
  <circle
     style="opacity:0.65766367;filter:url(#filter6)"
     cx="32"
     cy="33"
     r="28"
     id="circle1" />
  <circle
     style="fill:url(#radialGradient5)"
     cx="32"
     cy="32"
     r="28"
     id="circle2" />
  <path
     style="opacity:0.384433;filter:url(#filter5)"
     d="m 41.653657,15.399546 -6.109896,6.078087 7.543933,7.506822 6.112545,-6.080737 z m 0.402908,3.215316 1.537415,1.526811 -1.26174,1.248485 -1.532113,-1.52681 z m 2.337929,2.324675 1.540066,1.529462 -1.25909,1.248486 -1.537413,-1.526811 z M 33.651424,19.805065 13.808178,39.531676 c -1.078032,1.071648 -1.078032,2.813095 0,3.888597 l 7.82491,7.774544 c 1.081907,1.075505 2.835645,1.071649 3.909803,0 L 45.386134,31.470856 Z m 3.204711,8.479633 -0.771355,2.868071 -0.755455,-0.75015 -7.069452,7.027042 3.748107,0.100719 c 0.279215,-0.03051 0.568457,-0.144571 0.781962,-0.347246 1.091149,-1.084687 1.476447,-1.465843 1.476447,-1.465843 l -0.612313,-0.609666 1.828991,-1.821038 1.831644,1.821038 -1.831644,1.821042 -0.612315,-0.612315 -1.457891,1.449941 c -0.409843,0.407415 -1.064218,0.610497 -1.601031,0.620267 -0.01235,-6.1e-4 -3.973421,-0.10868 -3.973421,-0.10868 -0.278777,0.03015 -0.568598,0.145597 -0.781962,0.347244 l -2.29817,2.287566 c -0.0025,0.0029 -0.0055,0.0055 -0.008,0.008 l -1.041728,1.033774 c 0.559457,0.835058 0.470372,1.972672 -0.270372,2.709032 -0.844385,0.839384 -2.214549,0.83938 -3.058927,0 -0.844125,-0.839128 -0.844382,-2.200989 0,-3.040369 0.740602,-0.736216 1.885493,-0.825934 2.724936,-0.270374 l 1.057635,-1.052334 c 0.203531,-0.212216 0.321928,-0.499534 0.352545,-0.776657 0,0 -0.11058,-3.94 -0.111321,-3.952215 h 0.0027 c 0.0097,-0.533672 0.213144,-1.183084 0.622917,-1.590429 l 1.510906,-1.502955 c -0.230968,-0.478253 -0.150214,-1.068828 0.249168,-1.465844 0.505282,-0.50229 1.323346,-0.502655 1.828991,0 0.505433,0.502434 0.50525,1.318784 0,1.821039 -0.39938,0.397017 -0.992402,0.473754 -1.473795,0.243867 -0.184148,0.183768 -0.685372,0.682418 -1.529462,1.521509 -0.203821,0.212217 -0.319128,0.501674 -0.349895,0.77931 l 0.103379,3.724254 9.35702,-9.301355 -0.755452,-0.747502 z"
     id="path2"
     sodipodi:nodetypes="cccccccccccccccccccccccccccccccccccccccccssscccccccsssccccccc" />
  <path
     style="fill:#ffffff"
     d="m 41.653657,15.099545 -6.109896,6.078088 7.543933,7.506821 6.112545,-6.080737 z m 0.402908,3.215317 1.537415,1.526811 -1.26174,1.248485 -1.532113,-1.52681 z m 2.337929,2.324675 1.540066,1.529462 -1.25909,1.248486 -1.537413,-1.52681 z M 33.651424,18.805064 13.808178,38.531676 c -1.078032,1.071648 -1.078032,2.813095 0,3.888597 l 7.82491,7.774544 c 1.081907,1.075505 2.835645,1.071649 3.909803,0 L 45.386134,30.470856 Z m 3.204711,8.479634 -0.771355,2.868071 -0.755455,-0.75015 -7.069452,7.027042 3.748107,0.100719 c 0.279215,-0.03051 0.568457,-0.144571 0.781962,-0.347246 1.091149,-1.084687 1.476447,-1.465843 1.476447,-1.465843 l -0.612313,-0.609666 1.828991,-1.821038 1.831644,1.821038 -1.831644,1.821042 -0.612315,-0.612315 -1.457891,1.449941 c -0.409843,0.407415 -1.064218,0.610497 -1.601031,0.620267 -0.01235,-6.1e-4 -3.973421,-0.10868 -3.973421,-0.10868 -0.278777,0.03015 -0.568598,0.145597 -0.781962,0.347244 l -2.29817,2.287566 c -0.0025,0.0029 -0.0055,0.0055 -0.008,0.008 l -1.041728,1.033774 c 0.559457,0.835058 0.470372,1.972672 -0.270372,2.709032 -0.844385,0.839384 -2.214549,0.83938 -3.058927,0 -0.844125,-0.839128 -0.844382,-2.200989 0,-3.040369 0.740602,-0.736216 1.885493,-0.825934 2.724936,-0.270374 l 1.057635,-1.052334 c 0.203531,-0.212216 0.321928,-0.499534 0.352545,-0.776657 0,0 -0.11058,-3.94 -0.111321,-3.952215 h 0.0027 c 0.0097,-0.533672 0.213144,-1.183084 0.622917,-1.590429 l 1.510906,-1.502955 c -0.230968,-0.478253 -0.150214,-1.068828 0.249168,-1.465844 0.505282,-0.50229 1.323346,-0.502655 1.828991,0 0.505433,0.502434 0.50525,1.318784 0,1.821039 -0.39938,0.397017 -0.992402,0.473754 -1.473795,0.243867 -0.184148,0.183768 -0.685372,0.682418 -1.529462,1.521509 -0.203821,0.212217 -0.319128,0.501674 -0.349895,0.77931 l 0.103379,3.724254 9.35702,-9.301355 -0.755452,-0.747502 z"
     id="path3"
     sodipodi:nodetypes="cccccccccccccccccccccccccccccccccccccccccssscccccccsssccccccc" />
</svg>
