<?xml version="1.0" encoding="UTF-8" standalone="no"?>
<svg
   width="64"
   height="64"
   version="1"
   id="svg6"
   sodipodi:docname="virtualbox.svg"
   inkscape:version="1.3.2 (091e20ef0f, 2023-11-25, custom)"
   xmlns:inkscape="http://www.inkscape.org/namespaces/inkscape"
   xmlns:sodipodi="http://sodipodi.sourceforge.net/DTD/sodipodi-0.dtd"
   xmlns:xlink="http://www.w3.org/1999/xlink"
   xmlns="http://www.w3.org/2000/svg"
   xmlns:svg="http://www.w3.org/2000/svg">
  <defs
     id="defs6">
    <inkscape:path-effect
       effect="fillet_chamfer"
       id="path-effect1"
       is_visible="true"
       lpeversion="1"
       nodesatellites_param="F,0,1,1,0,8.8406295,0,1 @ F,0,0,1,0,1.8949618,0,1 @ F,0,0,1,0,2.8501443,0,1 @ F,0,0,1,0,1.1740197,0,1 @ F,0,0,1,0,1.1740197,0,1 @ F,0,0,1,0,1.1740197,0,1 @ F,0,0,1,0,1.1740197,0,1 @ F,0,0,1,0,2.1867571,0,1 @ F,0,0,1,0,1.7035867,0,1 @ F,0,1,1,0,8.8406295,0,1 | F,0,0,1,0,1.1740197,0,1 @ F,0,0,1,0,1.1740197,0,1 @ F,0,0,1,0,1.1740197,0,1 @ F,0,0,1,0,1.1740197,0,1 @ F,0,0,1,0,2.8501443,0,1 @ F,0,0,1,0,1.8949618,0,1 @ F,0,1,1,0,8.8406295,0,1 @ F,0,0,1,0,8.8406295,0,1 @ F,0,0,1,0,1.7035867,0,1 @ F,0,0,1,0,2.1867571,0,1"
       radius="0"
       unit="px"
       method="auto"
       mode="F"
       chamfer_steps="1"
       flexible="false"
       use_knot_distance="true"
       apply_no_radius="true"
       apply_with_radius="true"
       only_selected="false"
       hide_knots="false" />
    <linearGradient
       id="linearGradient8"
       inkscape:collect="always">
      <stop
         style="stop-color:#117dd4;stop-opacity:1;"
         offset="0"
         id="stop8" />
      <stop
         style="stop-color:#11abd4;stop-opacity:1;"
         offset="1"
         id="stop9" />
    </linearGradient>
    <filter
       inkscape:collect="always"
       style="color-interpolation-filters:sRGB"
       id="filter8"
       x="-0.022744088"
       y="-0.022744088"
       width="1.0454882"
       height="1.0454882">
      <feGaussianBlur
         inkscape:collect="always"
         stdDeviation="0.53069536"
         id="feGaussianBlur8" />
    </filter>
    <radialGradient
       inkscape:collect="always"
       xlink:href="#linearGradient8"
       id="radialGradient9"
       cx="6.9769497"
       cy="55.334057"
       fx="6.9769497"
       fy="55.334057"
       r="28"
       gradientUnits="userSpaceOnUse"
       gradientTransform="matrix(1.8248304,0.02536958,-0.02545991,1.8313292,-4.3460003,-46.177818)" />
    <inkscape:path-effect
       effect="fillet_chamfer"
       id="path-effect1-5"
       is_visible="true"
       lpeversion="1"
       nodesatellites_param="F,0,0,1,0,4.5273744,0,1 @ F,0,0,1,0,1.8949618,0,1 @ F,0,0,1,0,2.8501443,0,1 @ F,0,1,1,0,1.1740197,0,1 @ F,0,1,1,0,1.1740197,0,1 @ F,0,1,1,0,1.1740197,0,1 @ F,0,1,1,0,1.1740197,0,1 @ F,0,0,1,0,2.1867571,0,1 @ F,0,0,1,0,1.7035867,0,1 @ F,0,0,1,0,5.0507484,0,1 | F,0,1,1,0,1.1740197,0,1 @ F,0,1,1,0,1.1740197,0,1 @ F,0,1,1,0,1.1740197,0,1 @ F,0,0,1,0,1.1740197,0,1 @ F,0,0,1,0,2.8501443,0,1 @ F,0,0,1,0,1.8949618,0,1 @ F,0,0,1,0,5.1964333,0,1 @ F,0,0,1,0,3.5446294,0,1 @ F,0,0,1,0,1.7035867,0,1 @ F,0,0,1,0,2.1867571,0,1"
       radius="0"
       unit="px"
       method="auto"
       mode="F"
       chamfer_steps="1"
       flexible="false"
       use_knot_distance="true"
       apply_no_radius="true"
       apply_with_radius="true"
       only_selected="false"
       hide_knots="false" />
    <inkscape:path-effect
       effect="fillet_chamfer"
       id="path-effect1-3"
       is_visible="true"
       lpeversion="1"
       nodesatellites_param="F,0,0,1,0,5.7984926,0,1 @ F,0,0,1,0,1.8949618,0,1 @ F,0,0,1,0,2.8501443,0,1 @ F,0,0,1,0,1.1740197,0,1 @ F,0,0,1,0,1.1740197,0,1 @ F,0,0,1,0,1.1740197,0,1 @ F,0,0,1,0,1.1740197,0,1 @ F,0,0,1,0,2.1867571,0,1 @ F,0,0,1,0,1.7035867,0,1 @ F,0,0,1,0,6.5622456,0,1 | F,0,0,1,0,1.1740197,0,1 @ F,0,0,1,0,1.1740197,0,1 @ F,0,0,1,0,1.1740197,0,1 @ F,0,0,1,0,1.1740197,0,1 @ F,0,0,1,0,2.8501443,0,1 @ F,0,0,1,0,1.8949618,0,1 @ F,0,0,1,0,7.2149181,0,1 @ F,0,0,1,0,5.8922641,0,1 @ F,0,0,1,0,1.7035867,0,1 @ F,0,0,1,0,2.1867571,0,1"
       radius="0"
       unit="px"
       method="auto"
       mode="F"
       chamfer_steps="1"
       flexible="false"
       use_knot_distance="true"
       apply_no_radius="true"
       apply_with_radius="true"
       only_selected="false"
       hide_knots="false" />
    <filter
       inkscape:collect="always"
       style="color-interpolation-filters:sRGB"
       id="filter1"
       x="-0.099149744"
       y="-0.099123621"
       width="1.1982995"
       height="1.1982472">
      <feGaussianBlur
         inkscape:collect="always"
         stdDeviation="1.8250882"
         id="feGaussianBlur1" />
    </filter>
  </defs>
  <sodipodi:namedview
     id="namedview6"
     pagecolor="#ffffff"
     bordercolor="#000000"
     borderopacity="0.25"
     inkscape:showpageshadow="2"
     inkscape:pageopacity="0.0"
     inkscape:pagecheckerboard="0"
     inkscape:deskcolor="#d1d1d1"
     inkscape:zoom="8.9714173"
     inkscape:cx="25.52551"
     inkscape:cy="44.251648"
     inkscape:window-width="1920"
     inkscape:window-height="1018"
     inkscape:window-x="0"
     inkscape:window-y="0"
     inkscape:window-maximized="1"
     inkscape:current-layer="svg6" />
  <rect
     style="opacity:0.539085;mix-blend-mode:normal;filter:url(#filter8)"
     width="56"
     height="56"
     x="4"
     y="5"
     rx="12.841858"
     ry="12.841858"
     id="rect1" />
  <rect
     style="fill:url(#radialGradient9)"
     width="56"
     height="56"
     x="4"
     y="4"
     rx="13.292592"
     ry="13.292592"
     id="rect2" />
  <g
     id="g1"
     style="opacity:0.6873555">
    <path
       style="fill:#000000;fill-opacity:1;filter:url(#filter1);opacity:0.52242464"
       d="m 10.006462,15.834308 -0.005,6.270731 A 1.8934629,1.8934629 45.022669 0 0 11.894962,24 h 5.372082 a 4.0354496,4.0354496 35.232673 0 1 3.803166,2.686088 l 2.076287,5.852002 a 0.40791121,0.40791121 179.62505 0 0 0.770615,-0.005 L 29.87195,15.025548 a 0.4554554,0.4554554 177.58122 0 1 0.848487,-0.03584 l 4.145064,9.477616 a 0.48484605,0.48484605 178.81731 0 0 0.896079,-0.0185 L 40.140764,13.1918 a 0.4310724,0.4310724 1.0948829 0 1 0.809166,0.01546 l 6.472426,18.725952 A 3.0695243,3.0695243 35.466418 0 0 50.323475,34 h 1.972938 A 1.7035867,1.7035867 135 0 0 54,32.296413 V 16.51012 A 6.5491395,6.5491395 44.942727 0 0 47.437768,9.9609936 l -31.628237,0.063231 a 5.8146959,5.8146959 134.9654 0 0 -5.803069,5.810083 z m 29.80257,14.759952 -3.719626,9.569292 a 0.48470449,0.48470449 178.80761 0 1 -0.895852,0.01865 l -3.769922,-8.618302 a 0.45561528,0.45561528 177.5842 0 0 -0.848748,0.03581 l -6.536488,19.206844 a 0.40804631,0.40804631 179.62893 0 1 -0.770844,0.005 L 16.835928,32.686055 A 4.0355992,4.0355992 35.231672 0 0 13.032668,30 H 11.894962 A 1.9148749,1.9148749 135.29947 0 0 9.9801916,31.894858 L 9.8226632,46.963887 c -0.041653,3.984472 3.1547808,7.201039 7.1394428,7.186426 8.054261,-0.02954 21.253075,-0.07236 31.133192,-0.07678 3.254184,-0.0015 5.89456,-2.634956 5.897445,-5.889163 l 0.0057,-6.480782 A 1.7020769,1.7020769 45.025401 0 0 52.296413,40 h -6.246374 a 3.0694394,3.0694394 35.467167 0 1 -2.901065,-2.066802 l -2.531103,-7.323579 a 0.43087359,0.43087359 1.08783 0 0 -0.808839,-0.01536 z"
       id="path4-6"
       sodipodi:nodetypes="ccccccccccccccsssccccc"
       inkscape:path-effect="#path-effect1-3"
       inkscape:original-d="M 10.01105,10.035817 10,24 H 20.117188 L 23.539062,33.644532 30.25,13.914062 35.335938,25.542968 40.566406,12.097656 48.136718,34 H 54 V 9.9478744 Z M 40.234376,29.5 35.664062,41.257812 30.953124,30.488282 23.660156,51.917968 15.882812,30 H 10 L 9.7472442,54.178411 c 0,0 30.1057588,-0.1277 44.2402748,-0.101781 L 54,40 H 43.863282 Z"
       transform="translate(-0.00614994,-0.08862457)" />
    <path
       style="fill:#ffffff;fill-opacity:1;opacity:1"
       d="m 10.004054,18.876444 -0.0026,3.228595 A 1.8934629,1.8934629 45.022669 0 0 11.894962,24 h 5.372082 a 4.0354496,4.0354496 35.232673 0 1 3.803166,2.686088 l 2.076287,5.852002 a 0.40791121,0.40791121 179.62505 0 0 0.770615,-0.005 L 29.87195,15.025548 a 0.4554554,0.4554554 177.58122 0 1 0.848487,-0.03584 l 4.145064,9.477616 a 0.48484605,0.48484605 178.81731 0 0 0.896079,-0.0185 L 40.140764,13.1918 a 0.4310724,0.4310724 1.0948829 0 1 0.809166,0.01546 l 6.472426,18.725952 A 3.0695243,3.0695243 35.466418 0 0 50.323475,34 h 1.972938 A 1.7035867,1.7035867 135 0 0 54,32.296413 V 18.788504 A 8.822973,8.822973 44.942727 0 0 45.159388,9.9655485 l -26.307726,0.052594 a 8.8653338,8.8653338 134.9654 0 0 -8.847608,8.858301 z m 29.804978,11.717816 -3.719626,9.569292 a 0.48470449,0.48470449 178.80761 0 1 -0.895852,0.01865 l -3.769922,-8.618302 a 0.45561528,0.45561528 177.5842 0 0 -0.848748,0.03581 l -6.536488,19.206844 a 0.40804631,0.40804631 179.62893 0 1 -0.770844,0.005 L 16.835928,32.686055 A 4.0355992,4.0355992 35.231672 0 0 13.032668,30 H 11.894962 A 1.9148749,1.9148749 135.29947 0 0 9.9801916,31.894858 L 9.8396572,45.338265 c -0.051038,4.882278 3.8656368,8.823612 8.7481488,8.806162 7.283768,-0.02603 17.801146,-0.05906 26.559128,-0.06858 4.882517,-0.0053 8.844094,-3.957295 8.848424,-8.839838 l 0.0031,-3.532418 A 1.7020769,1.7020769 45.025401 0 0 52.296413,40 h -6.246374 a 3.0694394,3.0694394 35.467167 0 1 -2.901065,-2.066802 l -2.531103,-7.323579 a 0.43087359,0.43087359 1.08783 0 0 -0.808839,-0.01536 z"
       id="path4"
       sodipodi:nodetypes="ccccccccccccccsssccccc"
       inkscape:path-effect="#path-effect1"
       inkscape:original-d="M 10.01105,10.035817 10,24 H 20.117188 L 23.539062,33.644532 30.25,13.914062 35.335938,25.542968 40.566406,12.097656 48.136718,34 H 54 V 9.9478744 Z M 40.234376,29.5 35.664062,41.257812 30.953124,30.488282 23.660156,51.917968 15.882812,30 H 10 L 9.7472442,54.178411 c 0,0 30.1057588,-0.1277 44.2402748,-0.101781 L 54,40 H 43.863282 Z" />
  </g>
</svg>
