<?xml version="1.0" encoding="UTF-8" standalone="no"?>
<svg
   width="64"
   height="64"
   version="1"
   id="svg10"
   sodipodi:docname="bottles_wine-winecfg.svg"
   inkscape:version="1.3.2 (091e20ef0f, 2023-11-25, custom)"
   xmlns:inkscape="http://www.inkscape.org/namespaces/inkscape"
   xmlns:sodipodi="http://sodipodi.sourceforge.net/DTD/sodipodi-0.dtd"
   xmlns:xlink="http://www.w3.org/1999/xlink"
   xmlns="http://www.w3.org/2000/svg"
   xmlns:svg="http://www.w3.org/2000/svg">
  <defs
     id="defs10">
    <inkscape:path-effect
       effect="fillet_chamfer"
       id="path-effect10"
       is_visible="true"
       lpeversion="1"
       nodesatellites_param="F,0,1,1,0,0.36884271,0,1 @ F,0,1,1,0,0.36884271,0,1 @ F,0,1,1,0,0.36884271,0,1 @ F,0,1,1,0,0.36884271,0,1 @ F,0,1,1,0,0.36884271,0,1 @ F,0,1,1,0,0.36884271,0,1 @ F,0,1,1,0,0.36884271,0,1 @ F,0,1,1,0,0.36884271,0,1 @ F,0,1,1,0,0.36884271,0,1 @ F,0,1,1,0,0.36884271,0,1 @ F,0,1,1,0,0.36884271,0,1 @ F,0,1,1,0,0.36884271,0,1 @ F,0,1,1,0,0.36884271,0,1 @ F,0,1,1,0,0.36884271,0,1 @ F,0,1,1,0,0.36884271,0,1 @ F,0,1,1,0,0.36884271,0,1 @ F,0,1,1,0,0.36884271,0,1 @ F,0,1,1,0,0.36884271,0,1 @ F,0,1,1,0,0.36884271,0,1 @ F,0,1,1,0,0.36884271,0,1 @ F,0,0,1,0,0.36884271,0,1 @ F,0,1,1,0,0.36884271,0,1 @ F,0,1,1,0,0.36884271,0,1 @ F,0,1,1,0,0.36884271,0,1 @ F,0,1,1,0,0.36884271,0,1 @ F,0,1,1,0,0.36884271,0,1 | F,0,0,1,0,0,0,1 @ F,0,0,1,0,0,0,1 @ F,0,0,1,0,0,0,1 @ F,0,0,1,0,0,0,1"
       radius="0"
       unit="px"
       method="auto"
       mode="F"
       chamfer_steps="1"
       flexible="false"
       use_knot_distance="true"
       apply_no_radius="true"
       apply_with_radius="true"
       only_selected="false"
       hide_knots="false" />
    <filter
       inkscape:collect="always"
       style="color-interpolation-filters:sRGB"
       id="filter16"
       x="-0.13301649"
       y="-0.13301649"
       width="1.266033"
       height="1.266033">
      <feGaussianBlur
         inkscape:collect="always"
         stdDeviation="0.93194511"
         id="feGaussianBlur16" />
    </filter>
    <radialGradient
       inkscape:collect="always"
       xlink:href="#linearGradient10"
       id="radialGradient13"
       cx="45.875225"
       cy="58.843693"
       fx="45.875225"
       fy="58.843693"
       r="8.888628"
       gradientUnits="userSpaceOnUse"
       gradientTransform="matrix(1.9936757,0,0,1.9936753,-46.560519,-56.73003)" />
    <linearGradient
       id="linearGradient10"
       inkscape:collect="always">
      <stop
         style="stop-color:#faa457;stop-opacity:1;"
         offset="0"
         id="stop10" />
      <stop
         style="stop-color:#fa6257;stop-opacity:1;"
         offset="1"
         id="stop13" />
    </linearGradient>
    <filter
       inkscape:collect="always"
       style="color-interpolation-filters:sRGB"
       id="filter13"
       x="-0.09986808"
       y="-0.099285098"
       width="1.1997362"
       height="1.1985702">
      <feGaussianBlur
         inkscape:collect="always"
         stdDeviation="1.5290925"
         id="feGaussianBlur13" />
    </filter>
    <inkscape:path-effect
       effect="fillet_chamfer"
       id="path-effect11-2"
       is_visible="true"
       lpeversion="1"
       nodesatellites_param="F,0,1,1,0,5.2536766,0,1 @ F,0,1,1,0,5.2536766,0,1 @ F,0,1,1,0,5.2536766,0,1 @ F,0,1,1,0,5.2536766,0,1 | F,0,1,1,0,5.2536766,0,1 @ F,0,1,1,0,5.2536766,0,1 @ F,0,1,1,0,5.2536766,0,1 @ F,0,1,1,0,5.2536766,0,1 | F,0,1,1,0,5.2536766,0,1 @ F,0,1,1,0,5.2536766,0,1 @ F,0,1,1,0,5.2536766,0,1 @ F,0,1,1,0,5.2536766,0,1 | F,0,1,1,0,5.2536766,0,1 @ F,0,1,1,0,5.2536766,0,1 @ F,0,0,1,0,5.2536766,0,1 @ F,0,1,1,0,5.2536766,0,1"
       radius="0"
       unit="px"
       method="auto"
       mode="F"
       chamfer_steps="1"
       flexible="false"
       use_knot_distance="true"
       apply_no_radius="true"
       apply_with_radius="true"
       only_selected="false"
       hide_knots="false" />
    <filter
       inkscape:collect="always"
       style="color-interpolation-filters:sRGB"
       id="filter14"
       x="-0.10874642"
       y="-0.10874642"
       width="1.2174928"
       height="1.2174928">
      <feGaussianBlur
         inkscape:collect="always"
         stdDeviation="2.4332496"
         id="feGaussianBlur14" />
    </filter>
    <inkscape:path-effect
       effect="fillet_chamfer"
       id="path-effect13-9"
       is_visible="true"
       lpeversion="1"
       nodesatellites_param="F,0,1,1,0,13.994114,0,1 @ F,0,1,1,0,13.994114,0,1 @ F,0,1,1,0,13.994114,0,1 @ F,0,0,1,0,13.994114,0,1"
       radius="0"
       unit="px"
       method="auto"
       mode="F"
       chamfer_steps="1"
       flexible="false"
       use_knot_distance="true"
       apply_no_radius="true"
       apply_with_radius="true"
       only_selected="false"
       hide_knots="false" />
    <radialGradient
       inkscape:collect="always"
       xlink:href="#linearGradient11"
       id="radialGradient12"
       cx="31.962891"
       cy="31.968748"
       fx="31.962891"
       fy="31.968748"
       r="19.625"
       gradientTransform="matrix(2.0003572,0,0,2.0121027,-31.974309,-32.355658)"
       gradientUnits="userSpaceOnUse" />
    <linearGradient
       id="linearGradient11"
       inkscape:collect="always">
      <stop
         style="stop-color:#00dfff;stop-opacity:1;"
         offset="0"
         id="stop11" />
      <stop
         style="stop-color:#0097ff;stop-opacity:1;"
         offset="1"
         id="stop12" />
    </linearGradient>
    <inkscape:path-effect
       effect="fillet_chamfer"
       id="path-effect11"
       is_visible="true"
       lpeversion="1"
       nodesatellites_param="F,0,1,1,0,5.2536766,0,1 @ F,0,1,1,0,5.2536766,0,1 @ F,0,1,1,0,5.2536766,0,1 @ F,0,1,1,0,5.2536766,0,1 | F,0,1,1,0,5.2536766,0,1 @ F,0,1,1,0,5.2536766,0,1 @ F,0,1,1,0,5.2536766,0,1 @ F,0,1,1,0,5.2536766,0,1 | F,0,1,1,0,5.2536766,0,1 @ F,0,1,1,0,5.2536766,0,1 @ F,0,1,1,0,5.2536766,0,1 @ F,0,1,1,0,5.2536766,0,1 | F,0,1,1,0,5.2536766,0,1 @ F,0,1,1,0,5.2536766,0,1 @ F,0,0,1,0,5.2536766,0,1 @ F,0,1,1,0,5.2536766,0,1"
       radius="0"
       unit="px"
       method="auto"
       mode="F"
       chamfer_steps="1"
       flexible="false"
       use_knot_distance="true"
       apply_no_radius="true"
       apply_with_radius="true"
       only_selected="false"
       hide_knots="false" />
    <inkscape:path-effect
       effect="fillet_chamfer"
       id="path-effect13"
       is_visible="true"
       lpeversion="1"
       nodesatellites_param="F,0,1,1,0,13.994114,0,1 @ F,0,1,1,0,13.994114,0,1 @ F,0,1,1,0,13.994114,0,1 @ F,0,0,1,0,13.994114,0,1"
       radius="0"
       unit="px"
       method="auto"
       mode="F"
       chamfer_steps="1"
       flexible="false"
       use_knot_distance="true"
       apply_no_radius="true"
       apply_with_radius="true"
       only_selected="false"
       hide_knots="false" />
    <inkscape:path-effect
       effect="fillet_chamfer"
       id="path-effect10-3"
       is_visible="true"
       lpeversion="1"
       nodesatellites_param="F,0,1,1,0,0.36884271,0,1 @ F,0,1,1,0,0.36884271,0,1 @ F,0,1,1,0,0.36884271,0,1 @ F,0,1,1,0,0.36884271,0,1 @ F,0,1,1,0,0.36884271,0,1 @ F,0,1,1,0,0.36884271,0,1 @ F,0,1,1,0,0.36884271,0,1 @ F,0,1,1,0,0.36884271,0,1 @ F,0,1,1,0,0.36884271,0,1 @ F,0,1,1,0,0.36884271,0,1 @ F,0,1,1,0,0.36884271,0,1 @ F,0,1,1,0,0.36884271,0,1 @ F,0,1,1,0,0.36884271,0,1 @ F,0,1,1,0,0.36884271,0,1 @ F,0,1,1,0,0.36884271,0,1 @ F,0,1,1,0,0.36884271,0,1 @ F,0,1,1,0,0.36884271,0,1 @ F,0,1,1,0,0.36884271,0,1 @ F,0,1,1,0,0.36884271,0,1 @ F,0,1,1,0,0.36884271,0,1 @ F,0,0,1,0,0.36884271,0,1 @ F,0,1,1,0,0.36884271,0,1 @ F,0,1,1,0,0.36884271,0,1 @ F,0,1,1,0,0.36884271,0,1 @ F,0,1,1,0,0.36884271,0,1 @ F,0,1,1,0,0.36884271,0,1 | F,0,0,1,0,0,0,1 @ F,0,0,1,0,0,0,1 @ F,0,0,1,0,0,0,1 @ F,0,0,1,0,0,0,1"
       radius="0"
       unit="px"
       method="auto"
       mode="F"
       chamfer_steps="1"
       flexible="false"
       use_knot_distance="true"
       apply_no_radius="true"
       apply_with_radius="true"
       only_selected="false"
       hide_knots="false" />
    <filter
       inkscape:collect="always"
       style="color-interpolation-filters:sRGB"
       id="filter10"
       x="-0.10160971"
       y="-0.098338252"
       width="1.2032194"
       height="1.1966765">
      <feGaussianBlur
         inkscape:collect="always"
         stdDeviation="0.42142072"
         id="feGaussianBlur10" />
    </filter>
  </defs>
  <sodipodi:namedview
     id="namedview10"
     pagecolor="#505050"
     bordercolor="#eeeeee"
     borderopacity="1"
     inkscape:showpageshadow="0"
     inkscape:pageopacity="0"
     inkscape:pagecheckerboard="0"
     inkscape:deskcolor="#505050"
     inkscape:zoom="8"
     inkscape:cx="30.0625"
     inkscape:cy="37.0625"
     inkscape:window-width="1920"
     inkscape:window-height="1020"
     inkscape:window-x="0"
     inkscape:window-y="0"
     inkscape:window-maximized="1"
     inkscape:current-layer="svg10" />
  <path
     id="rect1"
     d="M 17.994114,4.0114961 H 46.005886 A 13.994114,13.994114 45 0 1 60,18.00561 V 46.017382 A 13.994114,13.994114 135 0 1 46.005886,60.011496 H 17.994114 A 13.994114,13.994114 45 0 1 4,46.017382 V 18.00561 A 13.994114,13.994114 135 0 1 17.994114,4.0114961 Z"
     style="fill:#393939;fill-opacity:1"
     inkscape:path-effect="#path-effect13"
     inkscape:original-d="M 4,4.0114961 H 60 V 60.011496 H 4 Z"
     transform="matrix(0.94077205,0,0,0.94077205,1.8952948,1.8952947)" />
  <path
     id="rect1-3"
     style="fill:url(#radialGradient12);stroke-width:0.329007"
     d="m 12.509766,17.482193 0,7.918427 a 5.2536766,5.2536766 45 0 0 5.253677,5.253677 h 7.916474 a 5.2536766,5.2536766 135 0 0 5.253677,-5.253677 v -7.918427 a 5.2536766,5.2536766 45 0 0 -5.253677,-5.253677 h -7.916474 a 5.2536766,5.2536766 135 0 0 -5.253677,5.253677 z m 20.652343,0.04687 v 7.918432 a 5.2536766,5.2536766 45 0 0 5.253677,5.253677 h 7.918428 a 5.2536766,5.2536766 135 0 0 5.253677,-5.253677 V 17.529068 A 5.253678,5.253678 45.000008 0 0 46.334214,12.27539 l -7.918428,-3e-6 a 5.2536752,5.2536752 135.00001 0 0 -5.253677,5.253676 z M 12.337891,38.47438 v 7.916474 a 5.2536766,5.2536766 45 0 0 5.253677,5.253677 h 7.916474 a 5.2536766,5.2536766 135 0 0 5.253677,-5.253677 V 38.47438 a 5.2536766,5.2536766 45 0 0 -5.253677,-5.253677 h -7.916474 a 5.2536766,5.2536766 135 0 0 -5.253677,5.253677 z m 20.824218,0.06445 v 7.916477 a 5.2536766,5.2536766 45 0 0 5.253677,5.253677 h 7.918428 a 5.2536766,5.2536766 135 0 0 5.253677,-5.253677 v -7.916474 a 5.2536775,5.2536775 45.000005 0 0 -5.253677,-5.253678 l -7.918428,-1e-6 a 5.2536757,5.2536757 135 0 0 -5.253677,5.253676 z"
     inkscape:path-effect="#path-effect11"
     inkscape:original-d="M 12.509766,12.228516 V 30.654297 H 30.933594 V 12.228516 Z m 20.652343,0.04687 V 30.701172 H 51.587891 V 12.275391 Z M 12.337891,33.220703 V 51.644531 H 30.761719 V 33.220703 Z m 20.824218,0.06445 V 51.708984 H 51.587891 V 33.285156 Z"
     transform="matrix(0.94077205,0,0,0.94077205,1.8952948,1.9061101)" />
  <path
     id="rect1-1"
     d="M 17.994114,4.0114961 H 46.005886 A 13.994114,13.994114 45 0 1 60,18.00561 V 46.017382 A 13.994114,13.994114 135 0 1 46.005886,60.011496 H 17.994114 A 13.994114,13.994114 45 0 1 4,46.017382 V 18.00561 A 13.994114,13.994114 135 0 1 17.994114,4.0114961 Z"
     style="mix-blend-mode:normal;fill:none;fill-opacity:1;stroke:#000000;stroke-width:0.5;stroke-dasharray:none;stroke-opacity:1;filter:url(#filter14)"
     inkscape:path-effect="#path-effect13-9"
     inkscape:original-d="M 4,4.0114961 H 60 V 60.011496 H 4 Z"
     transform="matrix(0.94077205,0,0,0.94077205,1.8952948,1.8844796)" />
  <path
     id="rect1-3-2"
     style="mix-blend-mode:normal;fill:none;stroke:#000000;stroke-width:0.5;stroke-dasharray:none;stroke-opacity:1;filter:url(#filter13)"
     d="m 12.509766,17.482193 0,7.918427 a 5.2536766,5.2536766 45 0 0 5.253677,5.253677 h 7.916474 a 5.2536766,5.2536766 135 0 0 5.253677,-5.253677 v -7.918427 a 5.2536766,5.2536766 45 0 0 -5.253677,-5.253677 h -7.916474 a 5.2536766,5.2536766 135 0 0 -5.253677,5.253677 z m 20.652343,0.04687 v 7.918432 a 5.2536766,5.2536766 45 0 0 5.253677,5.253677 h 7.918428 a 5.2536766,5.2536766 135 0 0 5.253677,-5.253677 V 17.529068 A 5.253678,5.253678 45.000008 0 0 46.334214,12.27539 l -7.918428,-3e-6 a 5.2536752,5.2536752 135.00001 0 0 -5.253677,5.253676 z M 12.337891,38.47438 v 7.916474 a 5.2536766,5.2536766 45 0 0 5.253677,5.253677 h 7.916474 a 5.2536766,5.2536766 135 0 0 5.253677,-5.253677 V 38.47438 a 5.2536766,5.2536766 45 0 0 -5.253677,-5.253677 h -7.916474 a 5.2536766,5.2536766 135 0 0 -5.253677,5.253677 z m 20.824218,0.06445 v 7.916477 a 5.2536766,5.2536766 45 0 0 5.253677,5.253677 h 7.918428 a 5.2536766,5.2536766 135 0 0 5.253677,-5.253677 v -7.916474 a 5.2536775,5.2536775 45.000005 0 0 -5.253677,-5.253678 l -7.918428,-1e-6 a 5.2536757,5.2536757 135 0 0 -5.253677,5.253676 z"
     inkscape:path-effect="#path-effect11-2"
     inkscape:original-d="M 12.509766,12.228516 V 30.654297 H 30.933594 V 12.228516 Z m 20.652343,0.04687 V 30.701172 H 51.587891 V 12.275391 Z M 12.337891,33.220703 V 51.644531 H 30.761719 V 33.220703 Z m 20.824218,0.06445 V 51.708984 H 51.587891 V 33.285156 Z"
     transform="matrix(0.94077205,0,0,0.94077205,1.9302059,1.9246939)" />
  <circle
     style="fill:url(#radialGradient13);stroke-width:0.555539"
     cx="52.834404"
     cy="52.812481"
     r="8.888628"
     id="circle8" />
  <circle
     style="fill:none;stroke:#000000;stroke-width:0.256;stroke-dasharray:none;stroke-opacity:1;filter:url(#filter16)"
     cx="52.754398"
     cy="52.73933"
     r="8.888628"
     id="circle8-5" />
  <path
     style="fill:#ffffff;stroke-width:0.70638"
     d="m 51.391556,47.529 -0.06301,0.753256 c -0.01698,0.202997 -0.186462,0.423567 -0.370886,0.509939 -0.231999,0.108653 -0.454162,0.237197 -0.663994,0.384189 -0.166789,0.116839 -0.442342,0.153548 -0.626627,0.06674 l -0.684887,-0.322612 a 0.40088538,0.40088538 162.6063 0 0 -0.518043,0.162282 l -1.043398,1.807943 a 0.40111126,0.40111126 77.389907 0 0 0.118547,0.529908 l 0.621894,0.432064 c 0.167294,0.116228 0.272539,0.373118 0.253836,0.575905 -4.65e-4,0.005 -9.2e-4,0.01007 -0.0014,0.01511 -0.01801,0.20285 -0.01882,0.533803 -0.0018,0.736739 5.02e-4,0.006 0.001,0.01199 0.0015,0.01798 0.01783,0.202865 -0.08811,0.45987 -0.255419,0.576082 l -0.61845,0.429579 a 0.4010719,0.4010719 102.61291 0 0 -0.118567,0.529879 l 1.043397,1.807943 a 0.40091275,0.40091275 17.39567 0 0 0.518054,0.162305 l 0.681716,-0.321062 c 0.184291,-0.08679 0.460253,-0.05054 0.627484,0.06567 0.210478,0.14627 0.43323,0.27403 0.66575,0.381843 0.184748,0.08566 0.354381,0.305639 0.371292,0.508643 l 0.06303,0.756624 a 0.40084613,0.40084613 42.619031 0 0 0.399463,0.36757 h 2.086572 a 0.40098582,0.40098582 137.39092 0 0 0.39959,-0.367559 l 0.06301,-0.753256 c 0.01698,-0.202997 0.186462,-0.423566 0.370887,-0.509937 0.231997,-0.10865 0.454159,-0.237191 0.663991,-0.384179 0.16679,-0.116838 0.442345,-0.153547 0.62663,-0.06674 l 0.684885,0.322604 a 0.40088879,0.40088879 162.60605 0 0 0.518044,-0.162285 l 1.043398,-1.807943 a 0.40110911,0.40110911 77.389754 0 0 -0.118548,-0.529907 l -0.621906,-0.432066 c -0.167295,-0.116227 -0.272539,-0.373117 -0.253836,-0.575904 4.58e-4,-0.005 9.09e-4,-0.0099 0.0014,-0.01492 0.01802,-0.202849 0.01874,-0.533803 0.0016,-0.736728 -4.92e-4,-0.0058 -9.96e-4,-0.01167 -0.0015,-0.0175 -0.01794,-0.202856 0.08797,-0.459787 0.255326,-0.575925 l 0.618534,-0.429237 a 0.40089582,0.40089582 102.62545 0 0 0.118659,-0.529746 L 57.20438,49.084349 a 0.40091095,0.40091095 17.395541 0 0 -0.518053,-0.162303 l -0.681732,0.321072 c -0.18429,0.08679 -0.460252,0.05055 -0.627483,-0.06567 -0.210478,-0.14627 -0.433229,-0.27403 -0.665749,-0.381843 -0.184748,-0.08566 -0.354381,-0.30564 -0.371292,-0.508643 l -0.06303,-0.756624 A 0.40103505,0.40103505 42.632521 0 0 53.87758,47.162596 l -2.086434,-9.82e-4 A 0.40079665,0.40079665 137.40439 0 0 51.391556,47.529 Z m 1.442876,3.66854 c 0.891455,-7.8e-5 1.614142,0.722878 1.614064,1.614666 7.8e-5,0.891787 -0.722609,1.614743 -1.614064,1.614665 -0.891455,7.8e-5 -1.614141,-0.722878 -1.614063,-1.614665 -7.8e-5,-0.891787 0.722608,-1.614744 1.614063,-1.614666 z"
     id="path9"
     inkscape:path-effect="#path-effect10"
     inkscape:original-d="m 51.422303,47.161441 -0.124507,1.488374 c -0.471755,0.174813 -0.910366,0.428591 -1.297083,0.750487 l -1.352241,-0.636966 -1.41213,2.446861 1.22772,0.852962 c -0.04372,0.247264 -0.0664,0.497792 -0.06778,0.748891 1.47e-4,0.252065 0.02175,0.503659 0.06458,0.752056 l -1.224316,0.850419 1.412129,2.446861 1.349092,-0.63537 c 0.388012,0.320519 0.827686,0.572695 1.300218,0.745741 l 0.124269,1.491764 h 2.824258 l 0.124507,-1.488374 c 0.471754,-0.174809 0.910365,-0.428582 1.297083,-0.750473 l 1.352241,0.636952 1.41213,-2.446861 -1.227734,-0.852962 c 0.04371,-0.247203 0.06639,-0.49767 0.06778,-0.748707 -3.02e-4,-0.251901 -0.02203,-0.50332 -0.06496,-0.751534 l 1.224584,-0.849811 -1.412129,-2.446861 -1.349106,0.635384 c -0.388012,-0.320519 -0.827685,-0.572695 -1.300217,-0.745741 l -0.124268,-1.491764 z m 1.412129,4.036099 c 0.891455,-7.8e-5 1.614142,0.722878 1.614064,1.614666 7.8e-5,0.891787 -0.722609,1.614743 -1.614064,1.614665 -0.891455,7.8e-5 -1.614141,-0.722878 -1.614063,-1.614665 -7.8e-5,-0.891787 0.722608,-1.614744 1.614063,-1.614666 z"
     sodipodi:nodetypes="cccccccccccccccccccccccccccccccc" />
  <path
     style="fill:none;stroke-width:0.2;stroke:#ff0000;stroke-opacity:1;stroke-dasharray:none;filter:url(#filter10)"
     d="m 51.391556,47.529 -0.06301,0.753256 c -0.01698,0.202997 -0.186462,0.423568 -0.370886,0.509939 -0.231999,0.108653 -0.454162,0.237197 -0.663994,0.384189 -0.166789,0.116839 -0.442342,0.153548 -0.626627,0.06674 l -0.684887,-0.322612 a 0.40088538,0.40088538 162.6063 0 0 -0.518043,0.162282 l -1.043398,1.807943 a 0.40111126,0.40111126 77.389907 0 0 0.118547,0.529908 l 0.621894,0.432064 c 0.167294,0.116228 0.272539,0.373118 0.253835,0.575905 -4.64e-4,0.005 -9.2e-4,0.01007 -0.0014,0.01511 -0.01801,0.20285 -0.01882,0.533803 -0.0018,0.736739 5.02e-4,0.006 0.001,0.01199 0.0015,0.01798 0.01783,0.202865 -0.08811,0.45987 -0.255418,0.576082 l -0.61845,0.429579 a 0.4010719,0.4010719 102.61291 0 0 -0.118567,0.529879 l 1.043397,1.807943 a 0.40091275,0.40091275 17.39567 0 0 0.518054,0.162305 l 0.681716,-0.321062 c 0.184291,-0.08679 0.460253,-0.05055 0.627484,0.06567 0.210479,0.146271 0.43323,0.274031 0.66575,0.381844 0.184748,0.08566 0.354381,0.305639 0.371292,0.508643 l 0.06303,0.756624 a 0.40084613,0.40084613 42.619031 0 0 0.399463,0.36757 h 2.086572 a 0.40098582,0.40098582 137.39092 0 0 0.39959,-0.367559 l 0.06301,-0.753256 c 0.01698,-0.202997 0.186462,-0.423566 0.370887,-0.509937 0.231997,-0.10865 0.454159,-0.237191 0.663991,-0.384179 0.16679,-0.116838 0.442345,-0.153547 0.62663,-0.06674 l 0.684885,0.322604 a 0.40088879,0.40088879 162.60605 0 0 0.518044,-0.162285 l 1.043398,-1.807943 a 0.40110911,0.40110911 77.389754 0 0 -0.118548,-0.529907 l -0.621906,-0.432066 c -0.167295,-0.116227 -0.27254,-0.373117 -0.253836,-0.575904 4.59e-4,-0.005 9.09e-4,-0.0099 0.0014,-0.01492 0.01802,-0.202849 0.01874,-0.533803 0.0016,-0.736728 -4.93e-4,-0.0058 -9.97e-4,-0.01167 -0.0015,-0.0175 -0.01794,-0.202856 0.08797,-0.459787 0.255324,-0.575925 l 0.618534,-0.429237 a 0.40089582,0.40089582 102.62545 0 0 0.118659,-0.529746 L 57.20438,49.084349 a 0.40091095,0.40091095 17.395541 0 0 -0.518053,-0.162303 l -0.681732,0.321072 c -0.18429,0.08679 -0.460252,0.05055 -0.627483,-0.06567 -0.210478,-0.146271 -0.433229,-0.274031 -0.665749,-0.381844 -0.184748,-0.08566 -0.354381,-0.30564 -0.371292,-0.508643 l -0.06303,-0.756624 A 0.40103505,0.40103505 42.632521 0 0 53.87758,47.162596 l -2.086434,-9.82e-4 A 0.40079665,0.40079665 137.40439 0 0 51.391556,47.529 Z m 1.442876,3.66854 c 0.891455,-7.8e-5 1.614142,0.722878 1.614064,1.614666 7.8e-5,0.891787 -0.722609,1.614743 -1.614064,1.614665 -0.891455,7.8e-5 -1.614141,-0.722878 -1.614063,-1.614665 -7.8e-5,-0.891787 0.722608,-1.614744 1.614063,-1.614666 z"
     id="path9-6"
     inkscape:path-effect="#path-effect10-3"
     inkscape:original-d="m 51.422303,47.161441 -0.124507,1.488374 c -0.471755,0.174813 -0.910366,0.428591 -1.297083,0.750487 l -1.352241,-0.636966 -1.41213,2.446861 1.22772,0.852962 c -0.04372,0.247264 -0.0664,0.497792 -0.06778,0.748891 1.47e-4,0.252065 0.02175,0.503659 0.06458,0.752056 l -1.224316,0.850419 1.412129,2.446861 1.349092,-0.63537 c 0.388012,0.320519 0.827686,0.572695 1.300218,0.745741 l 0.124269,1.491764 h 2.824258 l 0.124507,-1.488374 c 0.471754,-0.174809 0.910365,-0.428582 1.297083,-0.750473 l 1.352241,0.636952 1.41213,-2.446861 -1.227734,-0.852962 c 0.04371,-0.247203 0.06639,-0.49767 0.06778,-0.748707 -3.02e-4,-0.251901 -0.02203,-0.50332 -0.06496,-0.751534 l 1.224584,-0.849811 -1.412129,-2.446861 -1.349106,0.635384 c -0.388012,-0.320519 -0.827685,-0.572695 -1.300217,-0.745741 l -0.124268,-1.491764 z m 1.412129,4.036099 c 0.891455,-7.8e-5 1.614142,0.722878 1.614064,1.614666 7.8e-5,0.891787 -0.722609,1.614743 -1.614064,1.614665 -0.891455,7.8e-5 -1.614141,-0.722878 -1.614063,-1.614665 -7.8e-5,-0.891787 0.722608,-1.614744 1.614063,-1.614666 z"
     sodipodi:nodetypes="cccccccccccccccccccccccccccccccc"
     transform="translate(-0.00102685,0.00409453)" />
</svg>
