<?xml version="1.0" encoding="UTF-8" standalone="no"?>
<svg
   width="64"
   height="64"
   version="1"
   id="svg10"
   sodipodi:docname="bottles_winetricks.svg"
   inkscape:version="1.3.2 (091e20ef0f, 2023-11-25, custom)"
   xmlns:inkscape="http://www.inkscape.org/namespaces/inkscape"
   xmlns:sodipodi="http://sodipodi.sourceforge.net/DTD/sodipodi-0.dtd"
   xmlns:xlink="http://www.w3.org/1999/xlink"
   xmlns="http://www.w3.org/2000/svg"
   xmlns:svg="http://www.w3.org/2000/svg">
  <defs
     id="defs10">
    <linearGradient
       id="linearGradient10"
       inkscape:collect="always">
      <stop
         style="stop-color:#faa457;stop-opacity:1;"
         offset="0"
         id="stop10" />
      <stop
         style="stop-color:#fa6257;stop-opacity:1;"
         offset="1"
         id="stop13" />
    </linearGradient>
    <inkscape:path-effect
       effect="fillet_chamfer"
       id="path-effect10"
       is_visible="true"
       lpeversion="1"
       nodesatellites_param="F,0,0,1,0,0.62715937,0,1 @ F,0,0,1,0,0.87973099,0,1 @ F,0,1,1,0,0.62715937,0,1 @ F,0,0,1,0,0.87973099,0,1 @ F,0,1,1,0,0.62715937,0,1 @ F,0,0,1,0,0.87973099,0,1 @ F,0,1,1,0,0.62715937,0,1 @ F,0,0,1,0,0.87973099,0,1 @ F,0,1,1,0,0.62715937,0,1 @ F,0,0,1,0,0.87973099,0,1"
       radius="0"
       unit="px"
       method="auto"
       mode="F"
       chamfer_steps="1"
       flexible="false"
       use_knot_distance="true"
       apply_no_radius="true"
       apply_with_radius="true"
       only_selected="false"
       hide_knots="false" />
    <filter
       inkscape:collect="always"
       style="color-interpolation-filters:sRGB"
       id="filter13"
       x="-0.09986808"
       y="-0.099285098"
       width="1.1997362"
       height="1.1985702">
      <feGaussianBlur
         inkscape:collect="always"
         stdDeviation="1.5290925"
         id="feGaussianBlur13" />
    </filter>
    <inkscape:path-effect
       effect="fillet_chamfer"
       id="path-effect11-2"
       is_visible="true"
       lpeversion="1"
       nodesatellites_param="F,0,1,1,0,5.2536766,0,1 @ F,0,1,1,0,5.2536766,0,1 @ F,0,1,1,0,5.2536766,0,1 @ F,0,1,1,0,5.2536766,0,1 | F,0,1,1,0,5.2536766,0,1 @ F,0,1,1,0,5.2536766,0,1 @ F,0,1,1,0,5.2536766,0,1 @ F,0,1,1,0,5.2536766,0,1 | F,0,1,1,0,5.2536766,0,1 @ F,0,1,1,0,5.2536766,0,1 @ F,0,1,1,0,5.2536766,0,1 @ F,0,1,1,0,5.2536766,0,1 | F,0,1,1,0,5.2536766,0,1 @ F,0,1,1,0,5.2536766,0,1 @ F,0,0,1,0,5.2536766,0,1 @ F,0,1,1,0,5.2536766,0,1"
       radius="0"
       unit="px"
       method="auto"
       mode="F"
       chamfer_steps="1"
       flexible="false"
       use_knot_distance="true"
       apply_no_radius="true"
       apply_with_radius="true"
       only_selected="false"
       hide_knots="false" />
    <filter
       inkscape:collect="always"
       style="color-interpolation-filters:sRGB"
       id="filter14"
       x="-0.10874642"
       y="-0.10874642"
       width="1.2174928"
       height="1.2174928">
      <feGaussianBlur
         inkscape:collect="always"
         stdDeviation="2.4332496"
         id="feGaussianBlur14" />
    </filter>
    <inkscape:path-effect
       effect="fillet_chamfer"
       id="path-effect13-9"
       is_visible="true"
       lpeversion="1"
       nodesatellites_param="F,0,1,1,0,13.994114,0,1 @ F,0,1,1,0,13.994114,0,1 @ F,0,1,1,0,13.994114,0,1 @ F,0,0,1,0,13.994114,0,1"
       radius="0"
       unit="px"
       method="auto"
       mode="F"
       chamfer_steps="1"
       flexible="false"
       use_knot_distance="true"
       apply_no_radius="true"
       apply_with_radius="true"
       only_selected="false"
       hide_knots="false" />
    <radialGradient
       inkscape:collect="always"
       xlink:href="#linearGradient11"
       id="radialGradient12"
       cx="31.962891"
       cy="31.968748"
       fx="31.962891"
       fy="31.968748"
       r="19.625"
       gradientTransform="matrix(2.0003572,0,0,2.0121027,-31.974309,-32.355658)"
       gradientUnits="userSpaceOnUse" />
    <linearGradient
       id="linearGradient11"
       inkscape:collect="always">
      <stop
         style="stop-color:#00dfff;stop-opacity:1;"
         offset="0"
         id="stop11" />
      <stop
         style="stop-color:#0097ff;stop-opacity:1;"
         offset="1"
         id="stop12" />
    </linearGradient>
    <inkscape:path-effect
       effect="fillet_chamfer"
       id="path-effect11"
       is_visible="true"
       lpeversion="1"
       nodesatellites_param="F,0,1,1,0,5.2536766,0,1 @ F,0,1,1,0,5.2536766,0,1 @ F,0,1,1,0,5.2536766,0,1 @ F,0,1,1,0,5.2536766,0,1 | F,0,1,1,0,5.2536766,0,1 @ F,0,1,1,0,5.2536766,0,1 @ F,0,1,1,0,5.2536766,0,1 @ F,0,1,1,0,5.2536766,0,1 | F,0,1,1,0,5.2536766,0,1 @ F,0,1,1,0,5.2536766,0,1 @ F,0,1,1,0,5.2536766,0,1 @ F,0,1,1,0,5.2536766,0,1 | F,0,1,1,0,5.2536766,0,1 @ F,0,1,1,0,5.2536766,0,1 @ F,0,0,1,0,5.2536766,0,1 @ F,0,1,1,0,5.2536766,0,1"
       radius="0"
       unit="px"
       method="auto"
       mode="F"
       chamfer_steps="1"
       flexible="false"
       use_knot_distance="true"
       apply_no_radius="true"
       apply_with_radius="true"
       only_selected="false"
       hide_knots="false" />
    <inkscape:path-effect
       effect="fillet_chamfer"
       id="path-effect13"
       is_visible="true"
       lpeversion="1"
       nodesatellites_param="F,0,1,1,0,13.994114,0,1 @ F,0,1,1,0,13.994114,0,1 @ F,0,1,1,0,13.994114,0,1 @ F,0,0,1,0,13.994114,0,1"
       radius="0"
       unit="px"
       method="auto"
       mode="F"
       chamfer_steps="1"
       flexible="false"
       use_knot_distance="true"
       apply_no_radius="true"
       apply_with_radius="true"
       only_selected="false"
       hide_knots="false" />
    <radialGradient
       inkscape:collect="always"
       xlink:href="#linearGradient10"
       id="radialGradient13"
       cx="45.875225"
       cy="58.843693"
       fx="45.875225"
       fy="58.843693"
       r="8.888628"
       gradientUnits="userSpaceOnUse"
       gradientTransform="matrix(1.9936757,0,0,1.9936753,-46.560519,-56.730031)" />
    <inkscape:path-effect
       effect="fillet_chamfer"
       id="path-effect10-3"
       is_visible="true"
       lpeversion="1"
       nodesatellites_param="F,0,0,1,0,0.62715937,0,1 @ F,0,0,1,0,0.87973099,0,1 @ F,0,1,1,0,0.62715937,0,1 @ F,0,0,1,0,0.87973099,0,1 @ F,0,1,1,0,0.62715937,0,1 @ F,0,0,1,0,0.87973099,0,1 @ F,0,1,1,0,0.62715937,0,1 @ F,0,0,1,0,0.87973099,0,1 @ F,0,1,1,0,0.62715937,0,1 @ F,0,0,1,0,0.87973099,0,1"
       radius="0"
       unit="px"
       method="auto"
       mode="F"
       chamfer_steps="1"
       flexible="false"
       use_knot_distance="true"
       apply_no_radius="true"
       apply_with_radius="true"
       only_selected="false"
       hide_knots="false" />
    <filter
       inkscape:collect="always"
       style="color-interpolation-filters:sRGB"
       id="filter15"
       x="-0.2328772"
       y="-0.23169675"
       width="1.4657544"
       height="1.4638677">
      <feGaussianBlur
         inkscape:collect="always"
         stdDeviation="0.93194511"
         id="feGaussianBlur15" />
    </filter>
    <filter
       inkscape:collect="always"
       style="color-interpolation-filters:sRGB"
       id="filter16"
       x="-0.13301649"
       y="-0.13301649"
       width="1.266033"
       height="1.266033">
      <feGaussianBlur
         inkscape:collect="always"
         stdDeviation="0.93194511"
         id="feGaussianBlur16" />
    </filter>
  </defs>
  <sodipodi:namedview
     id="namedview10"
     pagecolor="#505050"
     bordercolor="#eeeeee"
     borderopacity="1"
     inkscape:showpageshadow="0"
     inkscape:pageopacity="0"
     inkscape:pagecheckerboard="0"
     inkscape:deskcolor="#505050"
     inkscape:zoom="9.269728"
     inkscape:cx="29.181007"
     inkscape:cy="33.064616"
     inkscape:window-width="1920"
     inkscape:window-height="1020"
     inkscape:window-x="0"
     inkscape:window-y="0"
     inkscape:window-maximized="1"
     inkscape:current-layer="svg10" />
  <g
     id="g1">
    <path
       id="rect1"
       d="M 17.994114,4.0114961 H 46.005886 A 13.994114,13.994114 45 0 1 60,18.00561 V 46.017382 A 13.994114,13.994114 135 0 1 46.005886,60.011496 H 17.994114 A 13.994114,13.994114 45 0 1 4,46.017382 V 18.00561 A 13.994114,13.994114 135 0 1 17.994114,4.0114961 Z"
       style="fill:#393939;fill-opacity:1"
       inkscape:path-effect="#path-effect13"
       inkscape:original-d="M 4,4.0114961 H 60 V 60.011496 H 4 Z"
       transform="matrix(0.94077205,0,0,0.94077205,1.8952941,1.8952941)" />
    <path
       id="rect1-3"
       style="fill:url(#radialGradient12);stroke-width:0.329007"
       d="m 12.509766,17.482193 0,7.918427 a 5.2536766,5.2536766 45 0 0 5.253677,5.253677 h 7.916474 a 5.2536766,5.2536766 135 0 0 5.253677,-5.253677 v -7.918427 a 5.2536766,5.2536766 45 0 0 -5.253677,-5.253677 h -7.916474 a 5.2536766,5.2536766 135 0 0 -5.253677,5.253677 z m 20.652343,0.04687 v 7.918432 a 5.2536766,5.2536766 45 0 0 5.253677,5.253677 h 7.918428 a 5.2536766,5.2536766 135 0 0 5.253677,-5.253677 V 17.529068 A 5.253678,5.253678 45.000008 0 0 46.334214,12.27539 l -7.918428,-3e-6 a 5.2536752,5.2536752 135.00001 0 0 -5.253677,5.253676 z M 12.337891,38.47438 v 7.916474 a 5.2536766,5.2536766 45 0 0 5.253677,5.253677 h 7.916474 a 5.2536766,5.2536766 135 0 0 5.253677,-5.253677 V 38.47438 a 5.2536766,5.2536766 45 0 0 -5.253677,-5.253677 h -7.916474 a 5.2536766,5.2536766 135 0 0 -5.253677,5.253677 z m 20.824218,0.06445 v 7.916477 a 5.2536766,5.2536766 45 0 0 5.253677,5.253677 h 7.918428 a 5.2536766,5.2536766 135 0 0 5.253677,-5.253677 v -7.916474 a 5.2536775,5.2536775 45.000005 0 0 -5.253677,-5.253678 l -7.918428,-1e-6 a 5.2536757,5.2536757 135 0 0 -5.253677,5.253676 z"
       inkscape:path-effect="#path-effect11"
       inkscape:original-d="M 12.509766,12.228516 V 30.654297 H 30.933594 V 12.228516 Z m 20.652343,0.04687 V 30.701172 H 51.587891 V 12.275391 Z M 12.337891,33.220703 V 51.644531 H 30.761719 V 33.220703 Z m 20.824218,0.06445 V 51.708984 H 51.587891 V 33.285156 Z"
       transform="matrix(0.94077205,0,0,0.94077205,1.8952941,1.9061095)" />
    <path
       id="rect1-1"
       d="M 17.994114,4.0114961 H 46.005886 A 13.994114,13.994114 45 0 1 60,18.00561 V 46.017382 A 13.994114,13.994114 135 0 1 46.005886,60.011496 H 17.994114 A 13.994114,13.994114 45 0 1 4,46.017382 V 18.00561 A 13.994114,13.994114 135 0 1 17.994114,4.0114961 Z"
       style="mix-blend-mode:normal;fill:none;fill-opacity:1;stroke:#000000;stroke-width:0.5;stroke-dasharray:none;stroke-opacity:1;filter:url(#filter14)"
       inkscape:path-effect="#path-effect13-9"
       inkscape:original-d="M 4,4.0114961 H 60 V 60.011496 H 4 Z"
       transform="matrix(0.94077205,0,0,0.94077205,1.8952941,1.884479)" />
    <path
       id="rect1-3-2"
       style="mix-blend-mode:normal;fill:none;stroke:#000000;stroke-width:0.5;stroke-dasharray:none;stroke-opacity:1;filter:url(#filter13)"
       d="m 12.509766,17.482193 0,7.918427 a 5.2536766,5.2536766 45 0 0 5.253677,5.253677 h 7.916474 a 5.2536766,5.2536766 135 0 0 5.253677,-5.253677 v -7.918427 a 5.2536766,5.2536766 45 0 0 -5.253677,-5.253677 h -7.916474 a 5.2536766,5.2536766 135 0 0 -5.253677,5.253677 z m 20.652343,0.04687 v 7.918432 a 5.2536766,5.2536766 45 0 0 5.253677,5.253677 h 7.918428 a 5.2536766,5.2536766 135 0 0 5.253677,-5.253677 V 17.529068 A 5.253678,5.253678 45.000008 0 0 46.334214,12.27539 l -7.918428,-3e-6 a 5.2536752,5.2536752 135.00001 0 0 -5.253677,5.253676 z M 12.337891,38.47438 v 7.916474 a 5.2536766,5.2536766 45 0 0 5.253677,5.253677 h 7.916474 a 5.2536766,5.2536766 135 0 0 5.253677,-5.253677 V 38.47438 a 5.2536766,5.2536766 45 0 0 -5.253677,-5.253677 h -7.916474 a 5.2536766,5.2536766 135 0 0 -5.253677,5.253677 z m 20.824218,0.06445 v 7.916477 a 5.2536766,5.2536766 45 0 0 5.253677,5.253677 h 7.918428 a 5.2536766,5.2536766 135 0 0 5.253677,-5.253677 v -7.916474 a 5.2536775,5.2536775 45.000005 0 0 -5.253677,-5.253678 l -7.918428,-1e-6 a 5.2536757,5.2536757 135 0 0 -5.253677,5.253676 z"
       inkscape:path-effect="#path-effect11-2"
       inkscape:original-d="M 12.509766,12.228516 V 30.654297 H 30.933594 V 12.228516 Z m 20.652343,0.04687 V 30.701172 H 51.587891 V 12.275391 Z M 12.337891,33.220703 V 51.644531 H 30.761719 V 33.220703 Z m 20.824218,0.06445 V 51.708984 H 51.587891 V 33.285156 Z"
       transform="matrix(0.94077205,0,0,0.94077205,1.9302052,1.9246933)" />
  </g>
  <circle
     style="fill:url(#radialGradient13);stroke-width:0.555539"
     cx="52.834404"
     cy="52.812481"
     r="8.888628"
     id="circle8" />
  <path
     style="fill:#ffffff;stroke-width:0.555539"
     d="m 52.285518,56.796359 -2.114406,1.16874 a 0.42723546,0.42723546 35.165109 0 1 -0.628348,-0.442678 l 0.413006,-2.532638 a 1.2426373,1.2426373 72.481802 0 0 -0.337064,-1.067849 l -1.725294,-1.768081 a 0.45202862,0.45202862 108.50644 0 1 0.255236,-0.762534 l 2.349179,-0.359007 a 1.1753162,1.1753162 143.22638 0 0 0.886415,-0.662487 l 1.076404,-2.293542 a 0.41287495,0.41287495 6.4185254e-6 0 1 0.747519,0 l 1.076404,2.293542 a 1.1753158,1.1753158 36.77363 0 0 0.886415,0.662487 l 2.34918,0.359007 a 0.45202859,0.45202859 71.493562 0 1 0.255236,0.762534 l -1.725294,1.768081 a 1.2426373,1.2426373 107.5182 0 0 -0.337064,1.067849 l 0.413006,2.532638 A 0.42723546,0.42723546 144.83489 0 1 55.4977,57.965099 l -2.114406,-1.16874 a 1.1346143,1.1346143 0 0 0 -1.097776,0 z"
     id="path9"
     inkscape:path-effect="#path-effect10"
     inkscape:original-d="m 52.834406,56.49296 -3.433232,1.897723 0.655536,-4.019883 -2.777697,-2.846582 3.838776,-0.58665 1.716617,-3.657671 1.716616,3.657671 3.838777,0.58665 -2.777697,2.846582 0.655536,4.019883 z"
     transform="translate(0,-0.20388447)" />
  <circle
     style="fill:none;stroke-width:0.25600001;stroke:#000000;stroke-opacity:1;stroke-dasharray:none;filter:url(#filter16)"
     cx="52.754398"
     cy="52.73933"
     r="8.888628"
     id="circle8-5" />
  <path
     style="fill:none;stroke-width:0.25600001;stroke:#ff0026;stroke-opacity:1;stroke-dasharray:none;filter:url(#filter15)"
     d="m 52.285518,56.796359 -2.114406,1.16874 a 0.42723546,0.42723546 35.165109 0 1 -0.628348,-0.442678 l 0.413006,-2.532638 a 1.2426373,1.2426373 72.481802 0 0 -0.337064,-1.067849 l -1.725294,-1.768081 a 0.45202862,0.45202862 108.50644 0 1 0.255236,-0.762534 l 2.349179,-0.359007 a 1.1753162,1.1753162 143.22638 0 0 0.886415,-0.662487 l 1.076404,-2.293542 a 0.41287495,0.41287495 6.4185254e-6 0 1 0.747519,0 l 1.076404,2.293542 a 1.1753158,1.1753158 36.77363 0 0 0.886415,0.662487 l 2.34918,0.359007 a 0.45202859,0.45202859 71.493562 0 1 0.255236,0.762534 l -1.725294,1.768081 a 1.2426373,1.2426373 107.5182 0 0 -0.337064,1.067849 l 0.413006,2.532638 A 0.42723546,0.42723546 144.83489 0 1 55.4977,57.965099 l -2.114406,-1.16874 a 1.1346143,1.1346143 0 0 0 -1.097776,0 z"
     id="path9-6"
     inkscape:path-effect="#path-effect10-3"
     inkscape:original-d="m 52.834406,56.49296 -3.433232,1.897723 0.655536,-4.019883 -2.777697,-2.846582 3.838776,-0.58665 1.716617,-3.657671 1.716616,3.657671 3.838777,0.58665 -2.777697,2.846582 0.655536,4.019883 z"
     transform="translate(-0.08000541,-0.27703655)" />
</svg>
