<?xml version="1.0" encoding="UTF-8" standalone="no"?>
<svg
   width="64"
   height="64"
   version="1.1"
   id="svg4"
   sodipodi:docname="zotero.svg"
   inkscape:version="1.3.2 (091e20ef0f, 2023-11-25, custom)"
   xmlns:inkscape="http://www.inkscape.org/namespaces/inkscape"
   xmlns:sodipodi="http://sodipodi.sourceforge.net/DTD/sodipodi-0.dtd"
   xmlns:xlink="http://www.w3.org/1999/xlink"
   xmlns="http://www.w3.org/2000/svg"
   xmlns:svg="http://www.w3.org/2000/svg">
  <defs
     id="defs4">
    <linearGradient
       id="linearGradient7"
       inkscape:collect="always">
      <stop
         style="stop-color:#e66054;stop-opacity:1;"
         offset="0"
         id="stop7" />
      <stop
         style="stop-color:#cf2933;stop-opacity:1;"
         offset="1"
         id="stop8" />
    </linearGradient>
    <inkscape:path-effect
       effect="fillet_chamfer"
       id="path-effect7"
       is_visible="true"
       lpeversion="1"
       nodesatellites_param="F,0,0,1,0,4.327076,0,1 @ F,0,1,1,0,4.327076,0,1 @ F,0,1,1,0,4.327076,0,1 @ F,0,1,1,0,4.327076,0,1 @ F,0,1,1,0,4.327076,0,1 @ F,0,1,1,0,4.327076,0,1"
       radius="0"
       unit="px"
       method="auto"
       mode="F"
       chamfer_steps="1"
       flexible="false"
       use_knot_distance="true"
       apply_no_radius="true"
       apply_with_radius="true"
       only_selected="false"
       hide_knots="false" />
    <inkscape:path-effect
       effect="fillet_chamfer"
       id="path-effect6"
       is_visible="true"
       lpeversion="1"
       nodesatellites_param="F,0,0,1,0,0,0,1 @ F,0,0,1,0,0,0,1 @ F,0,0,1,0,0,0,1 @ F,0,0,1,0,0,0,1 @ F,0,0,1,0,0,0,1 @ F,0,0,1,0,0,0,1"
       radius="0"
       unit="px"
       method="auto"
       mode="F"
       chamfer_steps="1"
       flexible="false"
       use_knot_distance="true"
       apply_no_radius="true"
       apply_with_radius="true"
       only_selected="false"
       hide_knots="false" />
    <inkscape:path-effect
       effect="fillet_chamfer"
       id="path-effect5"
       is_visible="true"
       lpeversion="1"
       nodesatellites_param="F,0,0,1,0,3.911028,0,1 @ F,0,0,1,0,3.911028,0,1 @ F,0,0,1,0,0,0,1 @ F,0,1,1,0,2.2008901,0,1 @ F,0,0,1,0,4.0151504,0,1 @ F,0,0,1,0,3.911028,0,1 @ F,0,0,1,0,3.911028,0,1 @ F,0,0,1,0,0,0,1 @ F,0,0,1,0,2.2008901,0,1 @ F,0,0,1,0,4.0151504,0,1"
       radius="0"
       unit="px"
       method="auto"
       mode="F"
       chamfer_steps="1"
       flexible="false"
       use_knot_distance="true"
       apply_no_radius="true"
       apply_with_radius="true"
       only_selected="false"
       hide_knots="false" />
    <inkscape:path-effect
       effect="fillet_chamfer"
       id="path-effect5-3"
       is_visible="true"
       lpeversion="1"
       nodesatellites_param="F,0,0,1,0,3.911028,0,1 @ F,0,0,1,0,3.911028,0,1 @ F,0,0,1,0,0,0,1 @ F,0,1,1,0,2.2008901,0,1 @ F,0,0,1,0,4.0151504,0,1 @ F,0,0,1,0,3.911028,0,1 @ F,0,0,1,0,3.911028,0,1 @ F,0,0,1,0,0,0,1 @ F,0,0,1,0,2.2008901,0,1 @ F,0,0,1,0,4.0151504,0,1"
       radius="0"
       unit="px"
       method="auto"
       mode="F"
       chamfer_steps="1"
       flexible="false"
       use_knot_distance="true"
       apply_no_radius="true"
       apply_with_radius="true"
       only_selected="false"
       hide_knots="false" />
    <inkscape:path-effect
       effect="fillet_chamfer"
       id="path-effect7-6"
       is_visible="true"
       lpeversion="1"
       nodesatellites_param="F,0,0,1,0,4.327076,0,1 @ F,0,1,1,0,4.327076,0,1 @ F,0,1,1,0,4.327076,0,1 @ F,0,1,1,0,4.327076,0,1 @ F,0,1,1,0,4.327076,0,1 @ F,0,1,1,0,4.327076,0,1"
       radius="0"
       unit="px"
       method="auto"
       mode="F"
       chamfer_steps="1"
       flexible="false"
       use_knot_distance="true"
       apply_no_radius="true"
       apply_with_radius="true"
       only_selected="false"
       hide_knots="false" />
    <filter
       inkscape:collect="always"
       style="color-interpolation-filters:sRGB"
       id="filter7"
       x="-0.095128843"
       y="-0.084918874"
       width="1.1902577"
       height="1.1698377">
      <feGaussianBlur
         inkscape:collect="always"
         stdDeviation="1.0050674"
         id="feGaussianBlur7" />
    </filter>
    <radialGradient
       inkscape:collect="always"
       xlink:href="#linearGradient7"
       id="radialGradient8"
       cx="17.775471"
       cy="17.442423"
       fx="17.775471"
       fy="17.442423"
       r="19.26359"
       gradientTransform="matrix(2.0226376,2.0226376,-2.2138024,2.2138024,20.436212,-58.21945)"
       gradientUnits="userSpaceOnUse" />
    <filter
       inkscape:collect="always"
       style="color-interpolation-filters:sRGB"
       id="filter8"
       x="-0.089610093"
       y="-0.081870478"
       width="1.1792202"
       height="1.163741">
      <feGaussianBlur
         inkscape:collect="always"
         stdDeviation="1.3904553"
         id="feGaussianBlur8" />
    </filter>
  </defs>
  <sodipodi:namedview
     id="namedview4"
     pagecolor="#ffffff"
     bordercolor="#000000"
     borderopacity="0.25"
     inkscape:showpageshadow="2"
     inkscape:pageopacity="0.0"
     inkscape:pagecheckerboard="0"
     inkscape:deskcolor="#d1d1d1"
     inkscape:zoom="8.4481838"
     inkscape:cx="25.508441"
     inkscape:cy="29.947265"
     inkscape:window-width="1920"
     inkscape:window-height="1020"
     inkscape:window-x="0"
     inkscape:window-y="0"
     inkscape:window-maximized="1"
     inkscape:current-layer="svg4" />
  <path
     id="path5"
     transform="matrix(1.3005975,0,0,1.3005975,-10.625989,-5.8995187)"
     d="M 48.29039,42.307847 36.521516,49.10261 a 7.4947152,7.4947152 6.4395584e-7 0 1 -7.494716,0 L 17.257927,42.307847 A 7.4947157,7.4947157 60.000001 0 1 13.510569,35.817233 V 22.227708 a 7.4947154,7.4947154 120 0 1 3.747358,-6.490614 L 29.026801,8.9423313 a 7.4947154,7.4947154 6.4395578e-7 0 1 7.494716,1e-7 L 48.29039,15.737094 a 7.4947156,7.4947156 60 0 1 3.747358,6.490614 v 13.589525 a 7.4947155,7.4947155 120 0 1 -3.747358,6.490614 z"
     style="fill:url(#radialGradient8);stroke:none;stroke-width:0.799632;stroke-linecap:round;stroke-linejoin:miter;stroke-miterlimit:4.2;stroke-dasharray:none;paint-order:markers stroke fill"
     inkscape:path-effect="#path-effect7"
     inkscape:original-d="M 52.037748,40.144309 32.774158,51.266148 13.510569,40.144309 V 17.900632 L 32.774159,6.7787933 52.037748,17.900632 Z" />
  <path
     style="color:#000000;fill:#ffffff;stroke-linecap:square;stroke-linejoin:bevel;-inkscape-stroke:none;fill-opacity:1"
     d="m 18.519531,20.82509 v 2.1e-4 a 3.911028,3.911028 45 0 0 3.911028,3.911028 l 10.635847,0 -13.060963,14.27096 a 5.66468,5.66468 111.23257 0 0 -1.485912,3.824461 v 0.239038 a 4.0151504,4.0151504 45 0 0 4.01515,4.01515 h 19.007416 a 3.911028,3.911028 135 0 0 3.911028,-3.911028 V 43.1747 A 3.911028,3.911028 45 0 0 41.542097,39.263672 H 30.927734 L 43.968408,24.993805 a 5.6708615,5.6708615 111.21149 0 0 1.484717,-3.825554 v -0.239039 a 4.0151504,4.0151504 45 0 0 -4.01515,-4.01515 H 22.430559 a 3.911028,3.911028 135 0 0 -3.911028,3.911028 z"
     id="path4"
     sodipodi:nodetypes="ccccccccccc"
     inkscape:path-effect="#path-effect5"
     inkscape:original-d="m 18.519531,16.914062 v 7.822266 H 33.066406 L 18.519531,40.630859 v 6.455078 H 45.453125 V 39.263672 H 30.927734 L 45.453125,23.369141 v -6.455079 z"
     transform="translate(0.013672)" />
  <path
     id="path5-7"
     transform="matrix(1.3005975,0,0,1.3005975,-10.625989,-5.7465528)"
     d="M 48.29039,42.307847 36.521516,49.10261 a 7.4947152,7.4947152 6.4395584e-7 0 1 -7.494716,0 L 17.257927,42.307847 A 7.4947157,7.4947157 60.000001 0 1 13.510569,35.817233 V 22.227708 a 7.4947154,7.4947154 120 0 1 3.747358,-6.490614 L 29.026801,8.9423313 a 7.4947154,7.4947154 6.4395578e-7 0 1 7.494716,1e-7 L 48.29039,15.737094 a 7.4947156,7.4947156 60 0 1 3.747358,6.490614 v 13.589525 a 7.4947155,7.4947155 120 0 1 -3.747358,6.490614 z"
     style="fill:none;fill-opacity:1;stroke:#000000;stroke-width:0.230663;stroke-linecap:round;stroke-linejoin:miter;stroke-miterlimit:4.2;stroke-dasharray:none;stroke-opacity:1;paint-order:markers stroke fill;filter:url(#filter8)"
     inkscape:path-effect="#path-effect7-6"
     inkscape:original-d="M 52.037748,40.144309 32.774158,51.266148 13.510569,40.144309 V 17.900632 L 32.774159,6.7787933 52.037748,17.900632 Z" />
  <path
     style="color:#000000;mix-blend-mode:normal;fill:none;stroke:#ff0000;stroke-width:0.3;stroke-linecap:square;stroke-linejoin:bevel;stroke-dasharray:none;stroke-opacity:1;filter:url(#filter7)"
     d="m 18.519531,20.82509 v 2.1e-4 a 3.911028,3.911028 45 0 0 3.911028,3.911028 l 10.635847,0 -13.060963,14.27096 a 5.66468,5.66468 111.23257 0 0 -1.485912,3.824461 v 0.239038 a 4.0151504,4.0151504 45 0 0 4.01515,4.01515 h 19.007416 a 3.911028,3.911028 135 0 0 3.911028,-3.911028 V 43.1747 A 3.911028,3.911028 45 0 0 41.542097,39.263672 H 30.927734 L 43.968408,24.993805 a 5.6708615,5.6708615 111.21149 0 0 1.484717,-3.825554 v -0.239039 a 4.0151504,4.0151504 45 0 0 -4.01515,-4.01515 H 22.430559 a 3.911028,3.911028 135 0 0 -3.911028,3.911028 z"
     id="path4-5"
     sodipodi:nodetypes="ccccccccccc"
     inkscape:path-effect="#path-effect5-3"
     inkscape:original-d="m 18.519531,16.914062 v 7.822266 H 33.066406 L 18.519531,40.630859 v 6.455078 H 45.453125 V 39.263672 H 30.927734 L 45.453125,23.369141 v -6.455079 z"
     transform="translate(0.013672)" />
</svg>
