<?xml version="1.0" encoding="UTF-8" standalone="no"?>
<svg
   width="64"
   height="64"
   version="1.1"
   id="svg5"
   sodipodi:docname="0ad.svg"
   inkscape:version="1.3.2 (091e20ef0f, 2023-11-25, custom)"
   xmlns:inkscape="http://www.inkscape.org/namespaces/inkscape"
   xmlns:sodipodi="http://sodipodi.sourceforge.net/DTD/sodipodi-0.dtd"
   xmlns:xlink="http://www.w3.org/1999/xlink"
   xmlns="http://www.w3.org/2000/svg"
   xmlns:svg="http://www.w3.org/2000/svg">
  <defs
     id="defs5">
    <linearGradient
       id="linearGradient5"
       inkscape:collect="always">
      <stop
         style="stop-color:#efb744;stop-opacity:1;"
         offset="0"
         id="stop5" />
      <stop
         style="stop-color:#a9753a;stop-opacity:1;"
         offset="1"
         id="stop6" />
    </linearGradient>
    <inkscape:path-effect
       effect="fillet_chamfer"
       id="path-effect5"
       is_visible="true"
       lpeversion="1"
       nodesatellites_param="F,0,1,1,0,1.6690858,0,1 @ F,0,0,1,0,1.6690858,0,1 @ F,0,1,1,0,1.6690858,0,1 | F,0,1,1,0,1.6690858,0,1 @ F,0,1,1,0,1.6690858,0,1 @ F,0,1,1,0,1.6690858,0,1 | F,0,1,1,0,1.6690858,0,1 @ F,0,1,1,0,1.6690858,0,1 @ F,0,1,1,0,1.6690858,0,1 | F,0,1,1,0,1.6690858,0,1 @ F,0,1,1,0,1.6690858,0,1 @ F,0,1,1,0,1.6690858,0,1"
       radius="0"
       unit="px"
       method="auto"
       mode="F"
       chamfer_steps="1"
       flexible="false"
       use_knot_distance="true"
       apply_no_radius="true"
       apply_with_radius="true"
       only_selected="false"
       hide_knots="false" />
    <radialGradient
       inkscape:collect="always"
       xlink:href="#linearGradient5"
       id="radialGradient6"
       cx="15.125251"
       cy="48.874748"
       fx="15.125251"
       fy="48.874748"
       r="28"
       gradientUnits="userSpaceOnUse"
       gradientTransform="matrix(2.0038787,-1.1569399,1.1569399,2.0038787,-71.729062,-31.565311)" />
    <inkscape:path-effect
       effect="fillet_chamfer"
       id="path-effect5-3"
       is_visible="true"
       lpeversion="1"
       nodesatellites_param="F,0,1,1,0,1.6690858,0,1 @ F,0,0,1,0,1.6690858,0,1 @ F,0,1,1,0,1.6690858,0,1 | F,0,1,1,0,1.6690858,0,1 @ F,0,1,1,0,1.6690858,0,1 @ F,0,1,1,0,1.6690858,0,1 | F,0,1,1,0,1.6690858,0,1 @ F,0,1,1,0,1.6690858,0,1 @ F,0,1,1,0,1.6690858,0,1 | F,0,1,1,0,1.6690858,0,1 @ F,0,1,1,0,1.6690858,0,1 @ F,0,1,1,0,1.6690858,0,1"
       radius="0"
       unit="px"
       method="auto"
       mode="F"
       chamfer_steps="1"
       flexible="false"
       use_knot_distance="true"
       apply_no_radius="true"
       apply_with_radius="true"
       only_selected="false"
       hide_knots="false" />
    <filter
       inkscape:collect="always"
       style="color-interpolation-filters:sRGB"
       id="filter6"
       x="-0.075330292"
       y="-0.075330272"
       width="1.1506606"
       height="1.1506606">
      <feGaussianBlur
         inkscape:collect="always"
         stdDeviation="1.1547915"
         id="feGaussianBlur6" />
    </filter>
    <filter
       inkscape:collect="always"
       style="color-interpolation-filters:sRGB"
       id="filter7"
       x="-0.071257719"
       y="-0.071257719"
       width="1.1425154"
       height="1.1425154">
      <feGaussianBlur
         inkscape:collect="always"
         stdDeviation="1.4543468"
         id="feGaussianBlur7" />
    </filter>
  </defs>
  <sodipodi:namedview
     id="namedview5"
     pagecolor="#505050"
     bordercolor="#eeeeee"
     borderopacity="1"
     inkscape:showpageshadow="0"
     inkscape:pageopacity="0"
     inkscape:pagecheckerboard="0"
     inkscape:deskcolor="#505050"
     inkscape:zoom="3.3710938"
     inkscape:cx="-3.5596755"
     inkscape:cy="38.414832"
     inkscape:window-width="1920"
     inkscape:window-height="1020"
     inkscape:window-x="0"
     inkscape:window-y="0"
     inkscape:window-maximized="1"
     inkscape:current-layer="svg5" />
  <path
     style="fill:url(#radialGradient6)"
     d="M 32,4 A 28,28 0 0 0 4,32 28,28 0 0 0 32,60 28,28 0 0 0 60,32 28,28 0 0 0 32,4 Z"
     id="path2" />
  <path
     style="fill:#ffffff"
     d="M 34,11.770686 V 28.330914 A 1.6690858,1.6690858 45 0 0 35.669086,30 h 16.551828 c 0.921811,0 1.607328,-0.746007 1.454416,-1.654826 C 52.123502,19.122003 44.877246,11.872688 35.65473,10.316968 34.745979,10.163673 34,10.848875 34,11.770686 Z M 28.345174,10.324074 C 19.121808,11.875958 11.87242,19.122506 10.316922,28.345264 10.163653,29.254019 10.848875,30 11.770686,30 H 28.330914 A 1.6690858,1.6690858 135 0 0 30,28.330914 V 11.778486 C 30,10.856675 29.253993,10.17116 28.345174,10.324074 Z M 10.324105,35.654222 C 11.876137,44.877426 19.122636,52.12662 28.345263,53.682081 29.254019,53.835349 30,53.150125 30,52.228314 V 35.668486 A 1.6690858,1.6690858 45 0 0 28.330914,33.9994 l -16.552428,0 c -0.921811,0 -1.607312,0.746006 -1.454381,1.654822 z m 23.675295,0.01426 v 16.551828 c 0,0.921811 0.746006,1.607314 1.654822,1.454385 C 44.877231,52.122724 52.126353,44.876516 53.682035,35.654131 53.835328,34.745379 53.150125,33.9994 52.228314,33.9994 H 35.668486 A 1.6690858,1.6690858 135 0 0 33.9994,35.668486 Z"
     id="path5"
     inkscape:path-effect="#path-effect5"
     inkscape:original-d="M 34,10.1016 34,30 53.89,30 A 22,22 0 0 0 34,10.1016 Z m -4,0.0078 A 22,22 0 0 0 10.1016,30 L 30,30 30,10.1094 Z m -19.8906,23.89 A 22,22 0 0 0 30,53.8974 l 0,-19.898 -19.8906,0 z m 23.89,0 0,19.89 a 22,22 0 0 0 19.898,-19.89 l -19.898,0 z" />
  <path
     style="fill:none;stroke:#000000;stroke-opacity:1;filter:url(#filter7);opacity:0.78256842"
     d="M 32,4 A 28,28 0 0 0 4,32 28,28 0 0 0 32,60 28,28 0 0 0 60,32 28,28 0 0 0 32,4 Z"
     id="path2-3" />
  <path
     style="fill:none;stroke:#b39542;stroke-opacity:1;filter:url(#filter6)"
     d="M 34,11.770686 V 28.330914 A 1.6690858,1.6690858 45 0 0 35.669086,30 h 16.551828 c 0.921811,0 1.607328,-0.746007 1.454416,-1.654826 C 52.123502,19.122003 44.877246,11.872688 35.65473,10.316968 34.745979,10.163673 34,10.848875 34,11.770686 Z M 28.345174,10.324074 C 19.121808,11.875958 11.87242,19.122506 10.316922,28.345264 10.163653,29.254019 10.848875,30 11.770686,30 H 28.330914 A 1.6690858,1.6690858 135 0 0 30,28.330914 V 11.778486 C 30,10.856675 29.253993,10.17116 28.345174,10.324074 Z M 10.324105,35.654222 C 11.876137,44.877426 19.122636,52.12662 28.345263,53.682081 29.254019,53.835349 30,53.150125 30,52.228314 V 35.668486 A 1.6690858,1.6690858 45 0 0 28.330914,33.9994 l -16.552428,0 c -0.921811,0 -1.607312,0.746006 -1.454381,1.654822 z m 23.675295,0.01426 v 16.551828 c 0,0.921811 0.746006,1.607314 1.654822,1.454385 C 44.877231,52.122724 52.126353,44.876516 53.682035,35.654131 53.835328,34.745379 53.150125,33.9994 52.228314,33.9994 H 35.668486 A 1.6690858,1.6690858 135 0 0 33.9994,35.668486 Z"
     id="path5-5"
     inkscape:path-effect="#path-effect5-3"
     inkscape:original-d="M 34,10.1016 V 30 H 53.89 A 22,22 0 0 0 34,10.1016 Z m -4,0.0078 A 22,22 0 0 0 10.1016,30 H 30 Z m -19.8906,23.89 A 22,22 0 0 0 30,53.8974 v -19.898 z m 23.89,0 v 19.89 a 22,22 0 0 0 19.898,-19.89 z"
     transform="translate(5.1820358e-4,4.7945286e-4)" />
</svg>
