<?xml version="1.0" encoding="UTF-8" standalone="no"?>
<svg
   width="64"
   height="64"
   version="1.1"
   id="svg4"
   sodipodi:docname="140-game.svg"
   inkscape:version="1.3.2 (091e20ef0f, 2023-11-25, custom)"
   xmlns:inkscape="http://www.inkscape.org/namespaces/inkscape"
   xmlns:sodipodi="http://sodipodi.sourceforge.net/DTD/sodipodi-0.dtd"
   xmlns="http://www.w3.org/2000/svg"
   xmlns:svg="http://www.w3.org/2000/svg">
  <defs
     id="defs4">
    <inkscape:path-effect
       effect="fillet_chamfer"
       id="path-effect4"
       is_visible="true"
       lpeversion="1"
       nodesatellites_param="F,0,0,1,0,2.2381369,0,1 @ F,0,0,1,0,2.2381369,0,1 @ F,0,0,1,0,2.2381369,0,1 @ F,0,0,1,0,2.2381369,0,1 | F,0,1,1,0,1.4565079,0,1 @ F,0,1,1,0,1.4565079,0,1 @ F,0,0,1,0,1.4565079,0,1 @ F,0,0,1,0,2.4561867,0,1 @ F,0,0,1,0,2.4561867,0,1 | F,0,0,1,0,0,0,1 @ F,0,0,1,0,0,0,1 @ F,0,0,1,0,0,0,1 @ F,0,0,1,0,0,0,1"
       radius="0"
       unit="px"
       method="auto"
       mode="F"
       chamfer_steps="1"
       flexible="false"
       use_knot_distance="true"
       apply_no_radius="true"
       apply_with_radius="true"
       only_selected="false"
       hide_knots="false" />
    <filter
       inkscape:collect="always"
       style="color-interpolation-filters:sRGB"
       id="filter4"
       x="-0.1990113"
       y="-0.33997763"
       width="1.3980226"
       height="1.6799553">
      <feGaussianBlur
         inkscape:collect="always"
         stdDeviation="3.191443"
         id="feGaussianBlur4" />
    </filter>
    <filter
       inkscape:collect="always"
       style="color-interpolation-filters:sRGB"
       id="filter5"
       x="-0.12866427"
       y="-0.12866427"
       width="1.2573285"
       height="1.2573285">
      <feGaussianBlur
         inkscape:collect="always"
         stdDeviation="2.7938329"
         id="feGaussianBlur5" />
    </filter>
  </defs>
  <sodipodi:namedview
     id="namedview4"
     pagecolor="#505050"
     bordercolor="#eeeeee"
     borderopacity="1"
     inkscape:showpageshadow="0"
     inkscape:pageopacity="0"
     inkscape:pagecheckerboard="0"
     inkscape:deskcolor="#505050"
     inkscape:zoom="9.269728"
     inkscape:cx="27.508898"
     inkscape:cy="27.994349"
     inkscape:window-width="1920"
     inkscape:window-height="1020"
     inkscape:window-x="0"
     inkscape:window-y="0"
     inkscape:window-maximized="1"
     inkscape:current-layer="svg4" />
  <path
     id="rect2"
     style="fill:#3f3f3f;stroke-width:0.903275"
     d="m 20.112996,6.6924794 h 23.736202 c 7.436667,0 13.423587,5.9869196 13.423587,13.4235856 v 23.736203 c 0,7.436667 -5.98692,13.423587 -13.423587,13.423587 H 20.112996 c -7.436667,0 -13.4235862,-5.98692 -13.4235862,-13.423587 V 20.116065 c 0,-7.436666 5.9869192,-13.4235856 13.4235862,-13.4235856 z" />
  <path
     d="m 13.915604,24.973074 v 9.505814 a 2.0216521,2.0216521 0 0 0 2.021653,2.021652 h 3.182892 a 2.0216521,2.0216521 0 0 0 2.021652,-2.021652 v -9.505814 a 2.0216521,2.0216521 0 0 0 -2.021652,-2.021652 h -3.182892 a 2.0216521,2.0216521 0 0 0 -2.021653,2.021652 z m 20.748301,-1.091363 -11.688541,11.68854 a 0.54495035,0.54495035 0 0 0 0.385338,0.930289 h 3.691669 a 1.3156265,1.3156265 0 0 1 1.315626,1.315627 V 42.4114 a 2.2186109,2.2186109 0 0 0 2.218611,2.218611 h 2.788974 A 2.2186109,2.2186109 0 0 0 35.594194,42.4114 V 24.267048 a 0.54495035,0.54495035 0 0 0 -0.930289,-0.385337 z m 9.05976,-0.930289 c -3.990918,0 -7.226197,3.235278 -7.226197,7.226196 0,3.990918 3.235279,7.226197 7.226197,7.226197 3.990918,0 7.226196,-3.235279 7.226196,-7.226197 0,-3.990918 -3.235278,-7.226196 -7.226196,-7.226196 z"
     style="fill:#ffffff;stroke-width:0.903275"
     id="path3" />
  <path
     id="rect2-3"
     style="fill:none;stroke:#000000;stroke-opacity:1;filter:url(#filter5)"
     d="m 18.665583,3.8363136 h 26.277948 c 8.233008,0 14.861026,6.6280184 14.861026,14.8610264 v 26.277949 c 0,8.233008 -6.628018,14.861026 -14.861026,14.861026 H 18.665583 c -8.233009,0 -14.8610259,-6.628018 -14.8610259,-14.861026 V 18.69734 c 0,-8.233008 6.6280169,-14.8610254 14.8610259,-14.8610264 z"
     transform="matrix(0.90327455,0,0,0.90327455,3.0562013,3.0793816)" />
  <path
     d="m 11.804555,24.074452 v 10.523726 a 2.2381369,2.2381369 0 0 0 2.238137,2.238137 h 3.523726 a 2.2381369,2.2381369 0 0 0 2.238137,-2.238137 V 24.074452 a 2.2381369,2.2381369 0 0 0 -2.238137,-2.238137 h -3.523726 a 2.2381369,2.2381369 0 0 0 -2.238137,2.238137 z m 22.970093,-1.20823 -12.940186,12.940186 a 0.60330533,0.60330533 0 0 0 0.426601,1.029907 h 4.086984 a 1.4565079,1.4565079 0 0 1 1.456508,1.456508 v 5.087305 a 2.4561867,2.4561867 0 0 0 2.456187,2.456187 h 3.087626 a 2.4561867,2.4561867 0 0 0 2.456187,-2.456187 V 23.292823 a 0.60330533,0.60330533 0 0 0 -1.029907,-0.426601 z m 10.029907,-1.029907 c -4.418278,0 -8,3.581722 -8,8 0,4.418278 3.581722,8 8,8 4.418278,0 8,-3.581722 8,-8 0,-4.418278 -3.581722,-8 -8,-8 z"
     style="fill:none;stroke:#ffffff;stroke-opacity:1;filter:url(#filter4)"
     id="path3-6"
     transform="matrix(0.90327455,0,0,0.90327455,3.0763099,3.0793816)" />
</svg>
