<?xml version="1.0" encoding="UTF-8" standalone="no"?>
<svg
   width="64"
   height="64"
   version="1.1"
   id="svg10"
   sodipodi:docname="2048-qt.svg"
   inkscape:version="1.3.2 (091e20ef0f, 2023-11-25, custom)"
   xmlns:inkscape="http://www.inkscape.org/namespaces/inkscape"
   xmlns:sodipodi="http://sodipodi.sourceforge.net/DTD/sodipodi-0.dtd"
   xmlns:xlink="http://www.w3.org/1999/xlink"
   xmlns="http://www.w3.org/2000/svg"
   xmlns:svg="http://www.w3.org/2000/svg">
  <defs
     id="defs10">
    <linearGradient
       id="linearGradient10"
       inkscape:collect="always">
      <stop
         style="stop-color:#ff3f00;stop-opacity:1;"
         offset="0"
         id="stop10" />
      <stop
         style="stop-color:#ff9700;stop-opacity:1;"
         offset="1"
         id="stop11" />
    </linearGradient>
    <radialGradient
       inkscape:collect="always"
       xlink:href="#linearGradient10"
       id="radialGradient11"
       cx="4.0469851"
       cy="59.683823"
       fx="4.0469851"
       fy="59.683823"
       r="28.15472"
       gradientUnits="userSpaceOnUse"
       gradientTransform="matrix(2.1098827,-1.6324405,1.2064008,1.5592386,-76.494289,-26.771035)" />
    <filter
       inkscape:collect="always"
       style="color-interpolation-filters:sRGB"
       id="filter11"
       x="-0.16922797"
       y="-0.096701697"
       width="1.3384559"
       height="1.1934034">
      <feGaussianBlur
         inkscape:collect="always"
         stdDeviation="0.56409326"
         id="feGaussianBlur11" />
    </filter>
    <filter
       inkscape:collect="always"
       style="color-interpolation-filters:sRGB"
       id="filter12"
       x="-0.1692293"
       y="-0.096702457"
       width="1.3384586"
       height="1.1934049">
      <feGaussianBlur
         inkscape:collect="always"
         stdDeviation="0.56409326"
         id="feGaussianBlur12" />
    </filter>
    <filter
       inkscape:collect="always"
       style="color-interpolation-filters:sRGB"
       id="filter13"
       x="-0.16922928"
       y="-0.096702457"
       width="1.3384586"
       height="1.1934049">
      <feGaussianBlur
         inkscape:collect="always"
         stdDeviation="0.56409326"
         id="feGaussianBlur13" />
    </filter>
    <filter
       inkscape:collect="always"
       style="color-interpolation-filters:sRGB"
       id="filter14"
       x="-0.1692293"
       y="-0.0967017"
       width="1.3384586"
       height="1.1934034">
      <feGaussianBlur
         inkscape:collect="always"
         stdDeviation="0.56409326"
         id="feGaussianBlur14" />
    </filter>
    <filter
       inkscape:collect="always"
       style="color-interpolation-filters:sRGB"
       id="filter15"
       x="-0.029619594"
       y="-0.029619594"
       width="1.0592392"
       height="1.0592392">
      <feGaussianBlur
         inkscape:collect="always"
         stdDeviation="0.69000622"
         id="feGaussianBlur15" />
    </filter>
  </defs>
  <sodipodi:namedview
     id="namedview10"
     pagecolor="#ffffff"
     bordercolor="#000000"
     borderopacity="0.25"
     inkscape:showpageshadow="2"
     inkscape:pageopacity="0.0"
     inkscape:pagecheckerboard="0"
     inkscape:deskcolor="#d1d1d1"
     inkscape:zoom="13.875"
     inkscape:cx="27.675676"
     inkscape:cy="29.90991"
     inkscape:window-width="1920"
     inkscape:window-height="1017"
     inkscape:window-x="0"
     inkscape:window-y="0"
     inkscape:window-maximized="1"
     inkscape:current-layer="svg10" />
  <rect
     style="opacity:0.696857;mix-blend-mode:normal;fill:#000000;fill-opacity:1;stroke:none;stroke-width:0.4;filter:url(#filter15)"
     id="rect10-5"
     width="55.909439"
     height="55.909439"
     x="4.1001153"
     y="4.1356778"
     rx="17.616322"
     ry="17.616322"
     transform="matrix(0.98792872,0,0,0.98792872,0.38694289,0.38737218)" />
  <rect
     style="opacity:1;fill:url(#radialGradient11);stroke:none;stroke-width:0.4"
     id="rect10"
     width="55.909439"
     height="55.909439"
     x="4.0452805"
     y="4.0452805"
     rx="18.572924"
     ry="18.572924" />
  <path
     style="opacity:0.46822161;fill-rule:evenodd;filter:url(#filter14)"
     d="m 17.000118,26.00011 c 0,0 -0.958793,-0.02 -1.947185,0.480396 -0.988592,0.494396 -2.052784,1.686187 -2.052784,3.519572 l 1.999984,0 c 0,-1.999984 1.999985,-1.999984 1.999985,-1.999984 0,0 1.999984,0 1.999984,1.999984 0,0.749995 -0.254998,1.31439 -0.724994,1.914985 -0.470197,0.600596 -1.165191,1.191591 -1.915185,1.816586 -0.749994,0.624995 -1.554988,1.28399 -2.209783,2.120984 -0.654995,0.836793 -1.149991,1.897385 -1.149991,3.147375 l 0,0.999992 7.999937,0 0,-1.999984 -5.817554,0 c 0.121999,-0.314798 0.304397,-0.610596 0.542796,-0.914993 0.469996,-0.600595 1.16499,-1.191591 1.914985,-1.816586 0.749994,-0.624995 1.554987,-1.28399 2.209982,-2.120983 0.654795,-0.836794 1.149791,-1.897385 1.149791,-3.147376 0,-1.833385 -1.064191,-3.025176 -2.052784,-3.519572 C 17.95891,25.98631 17.000118,26.00011 17.000118,26.00011 Z"
     id="path3" />
  <path
     style="opacity:0.46822161;filter:url(#filter13)"
     d="m 27.000039,26.00011 c -2.198683,0 -3.999969,1.801186 -3.999969,3.999968 l 0,5.999953 c 0,2.198783 1.801286,3.999969 3.999969,3.999969 2.198683,0 3.999969,-1.801186 3.999969,-3.999969 l 0,-5.999953 c 0,-2.198782 -1.801286,-3.999968 -3.999969,-3.999968 z m 0,1.999984 c 1.125291,0 1.999984,0.874793 1.999984,1.999984 l 0,5.999953 c 0,1.125392 -0.874693,1.999985 -1.999984,1.999985 -1.125291,0 -1.999984,-0.874593 -1.999984,-1.999985 l 0,-5.999953 c 0,-1.125191 0.874693,-1.999984 1.999984,-1.999984 z"
     id="path5" />
  <path
     style="opacity:0.46822161;fill-rule:evenodd;filter:url(#filter12)"
     d="m 35.000816,26.00011 0,5.999953 3.999969,0 0,-5.999953 1.999984,0 0,13.99989 -1.999984,0 0,-5.999953 -5.999953,0 0,-7.999937 1.999984,0 0,0"
     id="path7" />
  <path
     style="opacity:0.46822161;filter:url(#filter11)"
     d="m 47,26 c -2.198683,0 -4,1.801218 -4,4 0,1.198133 0.546125,2.265074 1.388672,3 C 43.546125,33.734926 43,34.801867 43,36 c 0,2.198783 1.801317,4 4,4 2.198683,0 4,-1.801217 4,-4 0,-1.198133 -0.546125,-2.265074 -1.388672,-3 C 50.453875,32.265074 51,31.198133 51,30 51,27.801218 49.198683,26 47,26 Z m 0,2 c 1.125291,0 2,0.874809 2,2 0,1.125192 -0.874709,2 -2,2 -1.125291,0 -2,-0.874808 -2,-2 0,-1.125191 0.874709,-2 2,-2 z m 0,6 c 1.125291,0 2,0.874809 2,2 0,1.125192 -0.874709,2 -2,2 -1.125291,0 -2,-0.874808 -2,-2 0,-1.125191 0.874709,-2 2,-2 z"
     id="path9" />
  <path
     style="fill:#ffffff;fill-rule:evenodd"
     d="m 17.000118,25.00011 c 0,0 -0.958793,-0.02 -1.947185,0.480396 -0.988592,0.494396 -2.052784,1.686187 -2.052784,3.519572 l 1.999984,0 c 0,-1.999984 1.999985,-1.999984 1.999985,-1.999984 0,0 1.999984,0 1.999984,1.999984 0,0.749995 -0.254998,1.31439 -0.724994,1.914985 -0.470197,0.600596 -1.165191,1.191591 -1.915185,1.816586 -0.749994,0.624995 -1.554988,1.28399 -2.209783,2.120984 -0.654995,0.836793 -1.149991,1.897385 -1.149991,3.147375 l 0,0.999992 7.999937,0 0,-1.999984 -5.817554,0 c 0.121999,-0.314798 0.304397,-0.610596 0.542796,-0.914993 0.469996,-0.600595 1.16499,-1.191591 1.914985,-1.816586 0.749994,-0.624995 1.554987,-1.28399 2.209982,-2.120983 0.654795,-0.836794 1.149791,-1.897385 1.149791,-3.147376 0,-1.833385 -1.064191,-3.025176 -2.052784,-3.519572 C 17.95891,24.98631 17.000118,25.00011 17.000118,25.00011 Z"
     id="path4" />
  <path
     style="fill:#ffffff"
     d="m 27.000039,25.00011 c -2.198683,0 -3.999969,1.801186 -3.999969,3.999968 l 0,5.999953 c 0,2.198783 1.801286,3.999969 3.999969,3.999969 2.198683,0 3.999969,-1.801186 3.999969,-3.999969 l 0,-5.999953 c 0,-2.198782 -1.801286,-3.999968 -3.999969,-3.999968 z m 0,1.999984 c 1.125291,0 1.999984,0.874793 1.999984,1.999984 l 0,5.999953 c 0,1.125392 -0.874693,1.999985 -1.999984,1.999985 -1.125291,0 -1.999984,-0.874593 -1.999984,-1.999985 l 0,-5.999953 c 0,-1.125191 0.874693,-1.999984 1.999984,-1.999984 z"
     id="path6" />
  <path
     style="fill:#ffffff;fill-rule:evenodd"
     d="m 35.000816,25.00011 0,5.999953 3.999969,0 0,-5.999953 1.999984,0 0,13.99989 -1.999984,0 0,-5.999953 -5.999953,0 0,-7.999937 1.999984,0 0,0"
     id="path8" />
  <path
     style="fill:#ffffff"
     d="M 47 25 C 44.801317 25 43 26.801218 43 29 C 43 30.198133 43.546125 31.265074 44.388672 32 C 43.546125 32.734926 43 33.801867 43 35 C 43 37.198783 44.801317 39 47 39 C 49.198683 39 51 37.198783 51 35 C 51 33.801867 50.453875 32.734926 49.611328 32 C 50.453875 31.265074 51 30.198133 51 29 C 51 26.801218 49.198683 25 47 25 z M 47 27 C 48.125291 27 49 27.874809 49 29 C 49 30.125192 48.125291 31 47 31 C 45.874709 31 45 30.125192 45 29 C 45 27.874809 45.874709 27 47 27 z M 47 33 C 48.125291 33 49 33.874809 49 35 C 49 36.125192 48.125291 37 47 37 C 45.874709 37 45 36.125192 45 35 C 45 33.874809 45.874709 33 47 33 z"
     id="path10" />
</svg>
