<?xml version="1.0" encoding="UTF-8" standalone="no"?>
<svg
   width="64"
   height="64"
   version="1.1"
   id="svg11"
   sodipodi:docname="2gis.svg"
   inkscape:version="1.3.2 (091e20ef0f, 2023-11-25, custom)"
   xmlns:inkscape="http://www.inkscape.org/namespaces/inkscape"
   xmlns:sodipodi="http://sodipodi.sourceforge.net/DTD/sodipodi-0.dtd"
   xmlns:xlink="http://www.w3.org/1999/xlink"
   xmlns="http://www.w3.org/2000/svg"
   xmlns:svg="http://www.w3.org/2000/svg">
  <defs
     id="defs11">
    <linearGradient
       id="linearGradient12"
       inkscape:collect="always">
      <stop
         style="stop-color:#34e05d;stop-opacity:1;"
         offset="0"
         id="stop12" />
      <stop
         style="stop-color:#23f48d;stop-opacity:1;"
         offset="1"
         id="stop13" />
    </linearGradient>
    <inkscape:path-effect
       effect="fillet_chamfer"
       id="path-effect12"
       is_visible="true"
       lpeversion="1"
       nodesatellites_param="F,0,0,1,0,5.546199,0,1 @ F,0,0,1,0,0,0,1 @ F,0,0,1,0,7.5953365,0,1 @ F,0,0,1,0,0,0,1 @ F,0,0,1,0,0,0,1 @ F,0,0,1,0,7.5953365,0,1 @ F,0,0,1,0,0,0,1 @ F,0,0,1,0,6.8178187,0,1 @ F,0,0,1,0,0,0,1"
       radius="0"
       unit="px"
       method="auto"
       mode="F"
       chamfer_steps="1"
       flexible="false"
       use_knot_distance="true"
       apply_no_radius="true"
       apply_with_radius="true"
       only_selected="false"
       hide_knots="false" />
    <inkscape:path-effect
       effect="fillet_chamfer"
       id="path-effect11"
       is_visible="true"
       lpeversion="1"
       nodesatellites_param="F,0,0,1,0,0,0,1 @ F,0,0,1,0,0,0,1 @ F,0,0,1,0,0,0,1 @ F,0,0,1,0,0,0,1 @ F,0,0,1,0,0,0,1 @ F,0,0,1,0,0,0,1 @ F,0,0,1,0,0,0,1 @ F,0,0,1,0,0,0,1 @ F,0,0,1,0,0,0,1 @ F,0,0,1,0,0,0,1 @ F,0,0,1,0,0,0,1 @ F,0,0,1,0,0,0,1"
       radius="0"
       unit="px"
       method="auto"
       mode="F"
       chamfer_steps="1"
       flexible="false"
       use_knot_distance="true"
       apply_no_radius="true"
       apply_with_radius="true"
       only_selected="false"
       hide_knots="false" />
    <radialGradient
       inkscape:collect="always"
       xlink:href="#linearGradient12"
       id="radialGradient13"
       cx="17.57449"
       cy="49.081104"
       fx="17.57449"
       fy="49.081104"
       r="29.684025"
       gradientUnits="userSpaceOnUse"
       gradientTransform="matrix(1.7202605,-0.99319285,0.99319285,1.7202605,-60.141062,-19.393201)" />
    <inkscape:path-effect
       effect="fillet_chamfer"
       id="path-effect12-6"
       is_visible="true"
       lpeversion="1"
       nodesatellites_param="F,0,0,1,0,0,0,1 @ F,0,0,1,0,0,0,1 @ F,0,0,1,0,7.5953365,0,1 @ F,0,0,1,0,0,0,1 @ F,0,0,1,0,0,0,1 @ F,0,1,1,0,7.5953365,0,1 @ F,0,0,1,0,0,0,1 @ F,0,0,1,0,0,0,1 @ F,0,0,1,0,0,0,1"
       radius="0"
       unit="px"
       method="auto"
       mode="F"
       chamfer_steps="1"
       flexible="false"
       use_knot_distance="true"
       apply_no_radius="true"
       apply_with_radius="true"
       only_selected="false"
       hide_knots="false" />
    <filter
       inkscape:collect="always"
       style="color-interpolation-filters:sRGB"
       id="filter13"
       x="-0.21066027"
       y="-0.17228892"
       width="1.4213345"
       height="1.3445778">
      <feGaussianBlur
         inkscape:collect="always"
         stdDeviation="2.7942784"
         id="feGaussianBlur13" />
    </filter>
    <filter
       inkscape:collect="always"
       style="color-interpolation-filters:sRGB"
       id="filter16"
       x="-0.085578246"
       y="-0.085578246"
       width="1.1711565"
       height="1.1711565">
      <feGaussianBlur
         inkscape:collect="always"
         stdDeviation="1.9188095"
         id="feGaussianBlur16" />
    </filter>
  </defs>
  <sodipodi:namedview
     id="namedview11"
     pagecolor="#505050"
     bordercolor="#eeeeee"
     borderopacity="1"
     inkscape:showpageshadow="0"
     inkscape:pageopacity="0"
     inkscape:pagecheckerboard="0"
     inkscape:deskcolor="#505050"
     inkscape:zoom="6.7421875"
     inkscape:cx="8.5283893"
     inkscape:cy="41.158749"
     inkscape:window-width="1920"
     inkscape:window-height="1020"
     inkscape:window-x="0"
     inkscape:window-y="0"
     inkscape:window-maximized="1"
     inkscape:current-layer="svg11" />
  <path
     id="path12"
     style="opacity:1;fill:url(#radialGradient13);stroke:none;stroke-width:5.41496;stroke-linecap:round;stroke-linejoin:round;stroke-dasharray:none;stroke-opacity:1"
     d="M 59.082718,32.000001 A 27.082719,27.082719 0 0 1 32,59.082718 27.082719,27.082719 0 0 1 4.917281,32.000001 27.082719,27.082719 0 0 1 32,4.9172813 27.082719,27.082719 0 0 1 59.082718,32.000001 Z" />
  <path
     id="path11"
     style="opacity:1;fill:#fdfdfd;fill-opacity:1;stroke:none;stroke-width:0.8;stroke-linecap:round;stroke-linejoin:round"
     d="m 49.448105,25.740545 c 0,1.890135 0.04174,3.831226 -0.884381,5.404202 -4.456768,-1.306976 -9.428661,0.40409 -12.21343,4.253525 -2.417556,3.341832 -2.37607,10.532816 -2.593026,14.72199 l 0,0 h -2.970814 l -0.0051,-0.08312 C 30.523959,45.850254 30.50894,38.602547 27.918209,35.413896 25.13055,31.982867 20.43691,30.452863 16.713574,31.471182 c -1.091417,-3.02158 -1.115834,-8.927271 0.356372,-12.364949 2.576749,-6.016842 8.551923,-10.2322004 15.511647,-10.2322 7.408895,0 13.702056,4.777024 15.967431,11.419019 0.984332,2.886023 0.899081,5.447493 0.899081,5.447493 z"
     sodipodi:nodetypes="sccccccsss"
     inkscape:path-effect="#path-effect12"
     inkscape:original-d="m 49.448105,25.740545 c 0,1.890135 0.04174,3.831226 -0.884381,5.404202 -6.651296,-1.950536 -14.449914,2.820917 -14.413623,11.390344 l -0.392833,7.585171 H 30.786454 L 30.315307,42.456113 C 30.4319,34.350159 22.429406,29.907923 16.713574,31.471182 16.067349,29.682123 15.71508,27.752472 15.71508,25.740545 c 10e-7,-9.315118 7.551395,-16.8665126 16.866513,-16.866512 9.315117,0 16.866511,7.551395 16.866512,16.866512 z"
     transform="matrix(0.90241133,0,0,0.90241133,2.5978729,5.3814398)" />
  <path
     id="path12-5"
     style="opacity:0.724557;fill:none;fill-opacity:1;stroke:#000000;stroke-width:0.7871;stroke-linecap:round;stroke-linejoin:round;stroke-opacity:1;filter:url(#filter16)"
     d="M 61.205394,32.000001 A 29.205394,29.205394 0 0 1 32,61.205394 29.205394,29.205394 0 0 1 2.794605,32.000001 29.205394,29.205394 0 0 1 32,2.7946051 29.205394,29.205394 0 0 1 61.205394,32.000001 Z"
     transform="matrix(0.93404106,0,0,0.93404106,2.1106861,2.1106861)" />
  <path
     id="path11-6"
     style="fill:none;fill-opacity:1;stroke:#000000;stroke-width:0.8;stroke-linecap:round;stroke-linejoin:round;stroke-opacity:1;filter:url(#filter13);opacity:0.63448589"
     d="m 49.448105,25.740545 c 0,1.890135 0.04174,3.831226 -0.884381,5.404202 -4.456768,-1.306976 -9.428661,0.40409 -12.21343,4.253525 -2.417556,3.341832 -2.37607,10.532816 -2.593026,14.72199 l 0,0 h -2.970814 l -0.0051,-0.08312 C 30.523959,45.850254 30.50894,38.602547 27.918209,35.413896 25.13055,31.982867 20.43691,30.452863 16.713574,31.471182 16.067349,29.682123 15.71508,27.752472 15.71508,25.740545 c 10e-7,-9.315118 7.551395,-16.8665126 16.866513,-16.866512 9.315117,0 16.866511,7.551395 16.866512,16.866512 z"
     sodipodi:nodetypes="sccccccsss"
     inkscape:path-effect="#path-effect12-6"
     inkscape:original-d="m 49.448105,25.740545 c 0,1.890135 0.04174,3.831226 -0.884381,5.404202 -6.651296,-1.950536 -14.449914,2.820917 -14.413623,11.390344 l -0.392833,7.585171 H 30.786454 L 30.315307,42.456113 C 30.4319,34.350159 22.429406,29.907923 16.713574,31.471182 16.067349,29.682123 15.71508,27.752472 15.71508,25.740545 c 10e-7,-9.315118 7.551395,-16.8665126 16.866513,-16.866512 9.315117,0 16.866511,7.551395 16.866512,16.866512 z"
     transform="matrix(0.90241133,0,0,0.90241133,2.5978729,5.3814398)" />
</svg>
