<?xml version="1.0" encoding="UTF-8" standalone="no"?>
<svg
   height="64"
   width="64"
   version="1.1"
   id="svg4"
   sodipodi:docname="3D-Coat.svg"
   inkscape:version="1.3.2 (091e20ef0f, 2023-11-25, custom)"
   xmlns:inkscape="http://www.inkscape.org/namespaces/inkscape"
   xmlns:sodipodi="http://sodipodi.sourceforge.net/DTD/sodipodi-0.dtd"
   xmlns:xlink="http://www.w3.org/1999/xlink"
   xmlns="http://www.w3.org/2000/svg"
   xmlns:svg="http://www.w3.org/2000/svg">
  <defs
     id="defs4">
    <linearGradient
       id="linearGradient4"
       inkscape:collect="always">
      <stop
         style="stop-color:#00eeff;stop-opacity:1;"
         offset="0"
         id="stop4" />
      <stop
         style="stop-color:#0097ff;stop-opacity:1;"
         offset="1"
         id="stop5" />
    </linearGradient>
    <inkscape:path-effect
       effect="fillet_chamfer"
       id="path-effect4"
       is_visible="true"
       lpeversion="1"
       nodesatellites_param="F,0,0,1,0,0,0,1 @ F,0,0,1,0,0,0,1 @ F,0,0,1,0,0,0,1 @ F,0,0,1,0,0,0,1 @ F,0,1,1,0,3.4222554,0,1 @ F,0,0,1,0,0,0,1 @ F,0,0,1,0,0,0,1 @ F,0,0,1,0,0,0,1 @ F,0,0,1,0,1.4632273,0,1 @ F,0,0,1,0,0,0,1 @ F,0,0,1,0,0,0,1 @ F,0,0,1,0,0,0,1 @ F,0,0,1,0,0,0,1 @ F,0,0,1,0,0,0,1 @ F,0,0,1,0,0,0,1 @ F,0,0,1,0,0,0,1 @ F,0,0,1,0,0,0,1 @ F,0,0,1,0,0,0,1 @ F,0,0,1,0,0,0,1 @ F,0,0,1,0,0,0,1 @ F,0,0,1,0,0,0,1 @ F,0,0,1,0,0,0,1 @ F,0,0,1,0,0,0,1 @ F,0,0,1,0,0,0,1 @ F,0,0,1,0,0,0,1 @ F,0,0,1,0,0,0,1"
       radius="0"
       unit="px"
       method="auto"
       mode="F"
       chamfer_steps="1"
       flexible="false"
       use_knot_distance="true"
       apply_no_radius="true"
       apply_with_radius="true"
       only_selected="false"
       hide_knots="false" />
    <radialGradient
       inkscape:collect="always"
       xlink:href="#linearGradient4"
       id="radialGradient5"
       cx="18.541218"
       cy="47.794312"
       fx="18.541218"
       fy="47.794312"
       r="28"
       gradientUnits="userSpaceOnUse"
       gradientTransform="matrix(1.5240564,-0.87991438,0.87991438,1.5240564,-50.921719,-9.5407649)" />
    <inkscape:path-effect
       effect="fillet_chamfer"
       id="path-effect4-3"
       is_visible="true"
       lpeversion="1"
       nodesatellites_param="F,0,0,1,0,0,0,1 @ F,0,0,1,0,0,0,1 @ F,0,0,1,0,0,0,1 @ F,0,0,1,0,0,0,1 @ F,0,1,1,0,3.4222554,0,1 @ F,0,0,1,0,0,0,1 @ F,0,0,1,0,0,0,1 @ F,0,0,1,0,0,0,1 @ F,0,0,1,0,1.4632273,0,1 @ F,0,0,1,0,0,0,1 @ F,0,0,1,0,0,0,1 @ F,0,0,1,0,0,0,1 @ F,0,0,1,0,0,0,1 @ F,0,0,1,0,0,0,1 @ F,0,0,1,0,0,0,1 @ F,0,0,1,0,0,0,1 @ F,0,0,1,0,0,0,1 @ F,0,0,1,0,0,0,1 @ F,0,0,1,0,0,0,1 @ F,0,0,1,0,0,0,1 @ F,0,0,1,0,0,0,1 @ F,0,0,1,0,0,0,1 @ F,0,0,1,0,0,0,1 @ F,0,0,1,0,0,0,1 @ F,0,0,1,0,0,0,1 @ F,0,0,1,0,0,0,1"
       radius="0"
       unit="px"
       method="auto"
       mode="F"
       chamfer_steps="1"
       flexible="false"
       use_knot_distance="true"
       apply_no_radius="true"
       apply_with_radius="true"
       only_selected="false"
       hide_knots="false" />
    <filter
       inkscape:collect="always"
       style="color-interpolation-filters:sRGB"
       id="filter6"
       x="-0.10210355"
       y="-0.10210355"
       width="1.2042071"
       height="1.2042071">
      <feGaussianBlur
         inkscape:collect="always"
         stdDeviation="2.2574162"
         id="feGaussianBlur6" />
    </filter>
    <filter
       inkscape:collect="always"
       style="color-interpolation-filters:sRGB"
       id="filter1"
       x="-0.1060298"
       y="-0.14579097"
       width="1.2120596"
       height="1.2915819">
      <feGaussianBlur
         inkscape:collect="always"
         stdDeviation="1.8188796"
         id="feGaussianBlur1" />
    </filter>
  </defs>
  <sodipodi:namedview
     id="namedview4"
     pagecolor="#505050"
     bordercolor="#eeeeee"
     borderopacity="1"
     inkscape:showpageshadow="0"
     inkscape:pageopacity="0"
     inkscape:pagecheckerboard="0"
     inkscape:deskcolor="#505050"
     inkscape:zoom="6.7421875"
     inkscape:cx="24.769409"
     inkscape:cy="25.733488"
     inkscape:window-width="1920"
     inkscape:window-height="1020"
     inkscape:window-x="0"
     inkscape:window-y="0"
     inkscape:window-maximized="1"
     inkscape:current-layer="svg4" />
  <circle
     cx="32.17289"
     cy="31.985874"
     r="26.591679"
     style="fill:url(#radialGradient5);stroke-width:0.949703"
     id="circle2" />
  <path
     style="fill:#ffffff"
     d="m 22,22 c -2,0 -2,2 -2,2 v 2 c 0,0 0,6 -5,6 -1.255992,0 -2.19314,-0.377185 -2.893528,-0.942548 -1.447646,-1.168559 -2.053861,-1.364422 -2.10018,0.523164 C 10.002863,31.720361 10.000765,31.860162 10,32 10,44.150264 19.849736,54 32,54 44.150264,54 54,44.150264 54,32 53.993555,30.829991 53.893788,29.663143 53.702015,28.51051 53.56941,27.713498 52.666824,27.254865 52.288338,27.941752 52.002956,28.459672 52,29 52,29 v 7 c 0,0 0,2 -2,2 -2,0 -2,-2 -2,-2 v -6 c 0,0 0,-2 -2,-2 -2,0 -2,2 -2,2 v 8 c 0,0 0,3 -4,3 -4,0 -4,-4 -4,-4 V 26 c 0,0 0,-4 -4,-4 -4,0 -4,4 -4,4 v 17 c 0,0 0,2 -2,2 -2,0 -2,-2 -2,-2 V 24 c 0,0 0,-2 -2,-2 z"
     id="path4"
     inkscape:path-effect="#path-effect4"
     inkscape:original-d="m 22,22 c -2,0 -2,2 -2,2 v 2 c 0,0 0,6 -5,6 -2.965502,0 -4.153541,-2.102701 -4.644531,-3.820312 A 22,22 0 0 0 10,32 22,22 0 0 0 32,54 22,22 0 0 0 54,32 22,22 0 0 0 53.414062,27.076172 C 52.008607,27.426942 52,29 52,29 v 7 c 0,0 0,2 -2,2 -2,0 -2,-2 -2,-2 v -6 c 0,0 0,-2 -2,-2 -2,0 -2,2 -2,2 v 8 c 0,0 0,3 -4,3 -4,0 -4,-4 -4,-4 V 26 c 0,0 0,-4 -4,-4 -4,0 -4,4 -4,4 v 17 c 0,0 0,2 -2,2 -2,0 -2,-2 -2,-2 V 24 c 0,0 0,-2 -2,-2 z"
     transform="matrix(0.94970284,0,0,0.94970284,1.8444025,1.5613986)" />
  <circle
     cx="31.817955"
     cy="32.014874"
     r="28"
     style="fill:none;stroke:#000000;stroke-width:0.6;stroke-dasharray:none;stroke-opacity:1;filter:url(#filter6)"
     id="circle2-3"
     transform="matrix(0.94970284,0,0,0.94970284,1.7823981,1.5953841)" />
  <path
     style="mix-blend-mode:normal;fill:none;stroke:#001aff;stroke-width:0.6;stroke-dasharray:none;stroke-opacity:1;filter:url(#filter1)"
     d="m 22,22 c -2,0 -2,2 -2,2 v 2 c 0,0 0,6 -5,6 -1.255992,0 -2.19314,-0.377185 -2.893528,-0.942548 -1.447646,-1.168559 -2.053861,-1.364422 -2.10018,0.523164 C 10.002863,31.720361 10.000765,31.860162 10,32 10,44.150264 19.849736,54 32,54 44.150264,54 54,44.150264 54,32 53.993555,30.829991 53.893788,29.663143 53.702015,28.51051 53.56941,27.713498 52.666824,27.254865 52.288338,27.941752 52.002956,28.459672 52,29 52,29 v 7 c 0,0 0,2 -2,2 -2,0 -2,-2 -2,-2 v -6 c 0,0 0,-2 -2,-2 -2,0 -2,2 -2,2 v 8 c 0,0 0,3 -4,3 -4,0 -4,-4 -4,-4 V 26 c 0,0 0,-4 -4,-4 -4,0 -4,4 -4,4 v 17 c 0,0 0,2 -2,2 -2,0 -2,-2 -2,-2 V 24 c 0,0 0,-2 -2,-2 z"
     id="path4-5"
     inkscape:path-effect="#path-effect4-3"
     inkscape:original-d="m 22,22 c -2,0 -2,2 -2,2 v 2 c 0,0 0,6 -5,6 -2.965502,0 -4.153541,-2.102701 -4.644531,-3.820312 A 22,22 0 0 0 10,32 22,22 0 0 0 32,54 22,22 0 0 0 54,32 22,22 0 0 0 53.414062,27.076172 C 52.008607,27.426942 52,29 52,29 v 7 c 0,0 0,2 -2,2 -2,0 -2,-2 -2,-2 v -6 c 0,0 0,-2 -2,-2 -2,0 -2,2 -2,2 v 8 c 0,0 0,3 -4,3 -4,0 -4,-4 -4,-4 V 26 c 0,0 0,-4 -4,-4 -4,0 -4,4 -4,4 v 17 c 0,0 0,2 -2,2 -2,0 -2,-2 -2,-2 V 24 c 0,0 0,-2 -2,-2 z"
     transform="matrix(0.94970284,0,0,0.94970284,1.6095088,1.6095096)" />
</svg>
