<?xml version="1.0" encoding="UTF-8" standalone="no"?>
<svg
   width="64"
   height="64"
   version="1.1"
   id="svg6"
   sodipodi:docname="3depict.svg"
   inkscape:version="1.3.2 (091e20ef0f, 2023-11-25, custom)"
   xmlns:inkscape="http://www.inkscape.org/namespaces/inkscape"
   xmlns:sodipodi="http://sodipodi.sourceforge.net/DTD/sodipodi-0.dtd"
   xmlns:xlink="http://www.w3.org/1999/xlink"
   xmlns="http://www.w3.org/2000/svg"
   xmlns:svg="http://www.w3.org/2000/svg">
  <defs
     id="defs6">
    <linearGradient
       id="linearGradient9"
       inkscape:collect="always">
      <stop
         style="stop-color:#11e299;stop-opacity:1;"
         offset="0"
         id="stop10" />
      <stop
         style="stop-color:#00f656;stop-opacity:1;"
         offset="1"
         id="stop11" />
    </linearGradient>
    <linearGradient
       id="linearGradient7"
       inkscape:collect="always">
      <stop
         style="stop-color:#e57833;stop-opacity:1;"
         offset="0"
         id="stop8" />
      <stop
         style="stop-color:#e5333d;stop-opacity:1;"
         offset="1"
         id="stop9" />
    </linearGradient>
    <linearGradient
       id="linearGradient6"
       inkscape:collect="always">
      <stop
         style="stop-color:#29c2e5;stop-opacity:1;"
         offset="0"
         id="stop6" />
      <stop
         style="stop-color:#1c4dd9;stop-opacity:1;"
         offset="1"
         id="stop7" />
    </linearGradient>
    <radialGradient
       inkscape:collect="always"
       xlink:href="#linearGradient6"
       id="radialGradient7"
       cx="43.867897"
       cy="46.965324"
       fx="43.867897"
       fy="46.965324"
       r="16"
       gradientUnits="userSpaceOnUse"
       gradientTransform="matrix(1.6864829,-0.45189174,0.45189174,1.6864829,-51.337805,-12.417354)" />
    <radialGradient
       inkscape:collect="always"
       xlink:href="#linearGradient7"
       id="radialGradient9"
       cx="46.907478"
       cy="27.807367"
       fx="46.907478"
       fy="27.807367"
       r="16"
       gradientUnits="userSpaceOnUse"
       gradientTransform="matrix(1.5130184,-0.40541205,0.40541205,1.5130184,-31.78968,5.1202771)" />
    <radialGradient
       inkscape:collect="always"
       xlink:href="#linearGradient9"
       id="radialGradient11"
       cx="11.088875"
       cy="37.612572"
       fx="11.088875"
       fy="37.612572"
       r="16"
       gradientUnits="userSpaceOnUse"
       gradientTransform="matrix(2.5049905,-0.67121018,0.67121018,2.5049905,-41.934592,-49.163597)" />
    <filter
       inkscape:collect="always"
       style="color-interpolation-filters:sRGB"
       id="filter11"
       x="-0.11592678"
       y="-0.11592678"
       width="1.2318536"
       height="1.2318536">
      <feGaussianBlur
         inkscape:collect="always"
         stdDeviation="1.4415238"
         id="feGaussianBlur11" />
    </filter>
    <filter
       inkscape:collect="always"
       style="color-interpolation-filters:sRGB"
       id="filter12"
       x="-0.11592678"
       y="-0.11592678"
       width="1.2318536"
       height="1.2318536">
      <feGaussianBlur
         inkscape:collect="always"
         stdDeviation="1.4415238"
         id="feGaussianBlur12" />
    </filter>
    <filter
       inkscape:collect="always"
       style="color-interpolation-filters:sRGB"
       id="filter13"
       x="-0.11592678"
       y="-0.11592678"
       width="1.2318536"
       height="1.2318536">
      <feGaussianBlur
         inkscape:collect="always"
         stdDeviation="1.4415238"
         id="feGaussianBlur13" />
    </filter>
  </defs>
  <sodipodi:namedview
     id="namedview6"
     pagecolor="#505050"
     bordercolor="#eeeeee"
     borderopacity="1"
     inkscape:showpageshadow="0"
     inkscape:pageopacity="0"
     inkscape:pagecheckerboard="0"
     inkscape:deskcolor="#505050"
     inkscape:zoom="13.484375"
     inkscape:cx="31.96292"
     inkscape:cy="32"
     inkscape:window-width="1920"
     inkscape:window-height="1020"
     inkscape:window-x="0"
     inkscape:window-y="0"
     inkscape:window-maximized="1"
     inkscape:current-layer="svg6" />
  <path
     id="circle2"
     style="fill:url(#radialGradient9)"
     d="M 59,24 A 16,16 0 0 1 43,40 16,16 0 0 1 27,24 16,16 0 0 1 43,8 16,16 0 0 1 59,24 Z" />
  <path
     id="circle2-1"
     style="fill:none;stroke:#000000;stroke-opacity:1;stroke-width:0.4999999;stroke-dasharray:none;filter:url(#filter12)"
     d="m 59.052026,24.024451 a 16,16 0 0 1 -16,16 16,16 0 0 1 -16,-16 16,16 0 0 1 16,-15.9999996 16,16 0 0 1 16,15.9999996 z" />
  <path
     id="circle4"
     style="fill:url(#radialGradient11)"
     d="M 36,30 A 16,16 0 0 1 20,46 16,16 0 0 1 4,30 16,16 0 0 1 20,14 16,16 0 0 1 36,30 Z" />
  <path
     id="circle4-2"
     style="fill:none;stroke:#000000;stroke-opacity:1;stroke-width:0.4999999;stroke-dasharray:none;filter:url(#filter11)"
     d="m 36.052026,30.024451 a 16,16 0 0 1 -16,16 16,16 0 0 1 -16,-16 16,16 0 0 1 16,-16 16,16 0 0 1 16,16 z" />
  <path
     id="circle6"
     style="fill:url(#radialGradient7)"
     d="M 54,39 A 16,16 0 0 1 38,55 16,16 0 0 1 22,39 16,16 0 0 1 38,23 16,16 0 0 1 54,39 Z" />
  <path
     id="circle6-7"
     style="fill:none;stroke:#000000;stroke-opacity:1;stroke-width:0.4999999;stroke-dasharray:none;filter:url(#filter13)"
     d="m 54.052026,39.024451 a 16,16 0 0 1 -16,16 16,16 0 0 1 -16,-16 16,16 0 0 1 16,-16 16,16 0 0 1 16,16 z" />
</svg>
