<?xml version="1.0" encoding="UTF-8" standalone="no"?>
<svg
   width="64"
   height="64"
   version="1.1"
   id="svg4"
   sodipodi:docname="4digits.svg"
   inkscape:version="1.3.2 (091e20ef0f, 2023-11-25, custom)"
   xmlns:inkscape="http://www.inkscape.org/namespaces/inkscape"
   xmlns:sodipodi="http://sodipodi.sourceforge.net/DTD/sodipodi-0.dtd"
   xmlns:xlink="http://www.w3.org/1999/xlink"
   xmlns="http://www.w3.org/2000/svg"
   xmlns:svg="http://www.w3.org/2000/svg">
  <defs
     id="defs4">
    <linearGradient
       id="linearGradient6"
       inkscape:collect="always">
      <stop
         style="stop-color:#ffffff;stop-opacity:1;"
         offset="0"
         id="stop6" />
      <stop
         style="stop-color:#c0c0c0;stop-opacity:1;"
         offset="1"
         id="stop7" />
    </linearGradient>
    <inkscape:path-effect
       effect="fillet_chamfer"
       id="path-effect5"
       is_visible="true"
       lpeversion="1"
       nodesatellites_param="F,0,0,1,0,0,0,1 @ F,0,0,1,0,0,0,1 @ F,0,0,1,0,0,0,1 @ F,0,0,1,0,0,0,1 @ F,0,0,1,0,1.3714332,0,1 @ F,0,0,1,0,0,0,1 @ F,0,0,1,0,0,0,1 @ F,0,0,1,0,0,0,1 @ F,0,0,1,0,1.3714332,0,1 @ F,0,0,1,0,0,0,1 @ F,0,0,1,0,0,0,1 @ F,0,0,1,0,0,0,1 @ F,0,0,1,0,1.3714332,0,1 @ F,0,0,1,0,0,0,1 | F,0,1,1,0,0.92432972,0,1 @ F,0,0,1,0,1.3714332,0,1 @ F,0,0,1,0,0.92432972,0,1"
       radius="0"
       unit="px"
       method="auto"
       mode="F"
       chamfer_steps="1"
       flexible="false"
       use_knot_distance="true"
       apply_no_radius="true"
       apply_with_radius="true"
       only_selected="false"
       hide_knots="false" />
    <inkscape:path-effect
       effect="fillet_chamfer"
       id="path-effect5-3"
       is_visible="true"
       lpeversion="1"
       nodesatellites_param="F,0,0,1,0,0,0,1 @ F,0,0,1,0,0,0,1 @ F,0,0,1,0,0,0,1 @ F,0,0,1,0,0,0,1 @ F,0,0,1,0,1.3714332,0,1 @ F,0,0,1,0,0,0,1 @ F,0,0,1,0,0,0,1 @ F,0,0,1,0,0,0,1 @ F,0,0,1,0,1.3714332,0,1 @ F,0,0,1,0,0,0,1 @ F,0,0,1,0,0,0,1 @ F,0,0,1,0,0,0,1 @ F,0,0,1,0,1.3714332,0,1 @ F,0,0,1,0,0,0,1 | F,0,1,1,0,0.92432972,0,1 @ F,0,0,1,0,1.3714332,0,1 @ F,0,0,1,0,0.92432972,0,1"
       radius="0"
       unit="px"
       method="auto"
       mode="F"
       chamfer_steps="1"
       flexible="false"
       use_knot_distance="true"
       apply_no_radius="true"
       apply_with_radius="true"
       only_selected="false"
       hide_knots="false" />
    <filter
       inkscape:collect="always"
       style="color-interpolation-filters:sRGB"
       id="filter5"
       x="-0.088494866"
       y="-0.088574739"
       width="1.1770662"
       height="1.1771589">
      <feGaussianBlur
         inkscape:collect="always"
         stdDeviation="1.5633457"
         id="feGaussianBlur5" />
    </filter>
    <filter
       inkscape:collect="always"
       style="color-interpolation-filters:sRGB"
       id="filter6"
       x="-0.070706006"
       y="-0.070706006"
       width="1.141412"
       height="1.141412">
      <feGaussianBlur
         inkscape:collect="always"
         stdDeviation="1.4414735"
         id="feGaussianBlur6" />
    </filter>
    <radialGradient
       inkscape:collect="always"
       xlink:href="#linearGradient6"
       id="radialGradient7"
       cx="14.014077"
       cy="51.524643"
       fx="14.014077"
       fy="51.524643"
       r="28"
       gradientUnits="userSpaceOnUse"
       gradientTransform="matrix(1.6386763,-0.94609021,0.94609021,1.6386763,-57.69742,-19.648988)" />
  </defs>
  <sodipodi:namedview
     id="namedview4"
     pagecolor="#505050"
     bordercolor="#eeeeee"
     borderopacity="1"
     inkscape:showpageshadow="0"
     inkscape:pageopacity="0"
     inkscape:pagecheckerboard="0"
     inkscape:deskcolor="#505050"
     inkscape:zoom="9.534893"
     inkscape:cx="19.507298"
     inkscape:cy="30.15241"
     inkscape:window-width="1920"
     inkscape:window-height="1020"
     inkscape:window-x="0"
     inkscape:window-y="0"
     inkscape:window-maximized="1"
     inkscape:current-layer="svg4" />
  <rect
     x="4"
     y="4"
     width="56"
     height="56"
     rx="13.145289"
     ry="13.145289"
     style="fill:url(#radialGradient7)"
     id="rect2" />
  <path
     style="color:#000000;fill:#db3c30;stroke-linecap:round;stroke-linejoin:round;-inkscape-stroke:none"
     d="M 39.53125,8.3046875 C 38.036463,7.6856039 36.315938,8.0278588 35.171875,9.171875 l -26,26 C 6.6536501,37.691853 8.4374523,41.998602 12,42 H 32.628567 A 1.3714332,1.3714332 45 0 1 34,43.371433 V 52 c 0,2.209139 1.790861,4 4,4 2.209139,0 4,-1.790861 4,-4 V 43.371433 A 1.3714332,1.3714332 135 0 1 43.371433,42 H 52 c 2.209139,0 4,-1.790861 4,-4 0,-2.209139 -1.790861,-4 -4,-4 H 43.371433 A 1.3714332,1.3714332 45 0 1 42,32.628567 V 12 C 41.999895,10.382384 41.025604,8.9240309 39.53125,8.3046875 Z M 34,22.58058 V 32.628567 A 1.3714332,1.3714332 135 0 1 32.628567,34 H 22.58058 A 0.38286991,0.38286991 67.5 0 1 22.30985,33.3464 L 33.3464,22.30985 A 0.38286991,0.38286991 22.5 0 1 34,22.58058 Z"
     id="path3"
     inkscape:path-effect="#path-effect5"
     inkscape:original-d="M 39.53125,8.3046875 A 4.0004,4.0004 0 0 0 35.171875,9.171875 l -26,26 A 4.0004,4.0004 0 0 0 12,42 h 22 v 10 a 4,4 0 0 0 4,4 4,4 0 0 0 4,-4 V 42 h 10 a 4,4 0 0 0 4,-4 4,4 0 0 0 -4,-4 H 42 V 12 A 4.0004,4.0004 0 0 0 39.53125,8.3046875 Z M 34,21.65625 V 34 H 21.65625 Z" />
  <rect
     x="4"
     y="4"
     width="56"
     height="56"
     rx="13.145289"
     ry="13.145289"
     style="fill:none;stroke:#000000;stroke-opacity:1;filter:url(#filter6);opacity:0.77864719"
     id="rect2-6" />
  <path
     style="color:#000000;fill:none;stroke-linecap:round;stroke-linejoin:round;-inkscape-stroke:none;stroke:#730000;stroke-opacity:1;filter:url(#filter5)"
     d="M 39.53125,8.3046875 C 38.036463,7.6856039 36.315938,8.0278588 35.171875,9.171875 l -26,26 C 6.6536501,37.691853 8.4374523,41.998602 12,42 H 32.628567 A 1.3714332,1.3714332 45 0 1 34,43.371433 V 52 c 0,2.209139 1.790861,4 4,4 2.209139,0 4,-1.790861 4,-4 V 43.371433 A 1.3714332,1.3714332 135 0 1 43.371433,42 H 52 c 2.209139,0 4,-1.790861 4,-4 0,-2.209139 -1.790861,-4 -4,-4 H 43.371433 A 1.3714332,1.3714332 45 0 1 42,32.628567 V 12 C 41.999895,10.382384 41.025604,8.9240309 39.53125,8.3046875 Z M 34,22.58058 V 32.628567 A 1.3714332,1.3714332 135 0 1 32.628567,34 H 22.58058 A 0.38286991,0.38286991 67.5 0 1 22.30985,33.3464 L 33.3464,22.30985 A 0.38286991,0.38286991 22.5 0 1 34,22.58058 Z"
     id="path3-7"
     inkscape:path-effect="#path-effect5-3"
     inkscape:original-d="M 39.53125,8.3046875 A 4.0004,4.0004 0 0 0 35.171875,9.171875 l -26,26 A 4.0004,4.0004 0 0 0 12,42 h 22 v 10 a 4,4 0 0 0 4,4 4,4 0 0 0 4,-4 V 42 h 10 a 4,4 0 0 0 4,-4 4,4 0 0 0 -4,-4 H 42 V 12 A 4.0004,4.0004 0 0 0 39.53125,8.3046875 Z M 34,21.65625 V 34 H 21.65625 Z"
     transform="translate(0.0034189,-6.3043467e-5)" />
</svg>
