<?xml version="1.0" encoding="UTF-8" standalone="no"?>
<svg
   width="64"
   height="64"
   version="1.1"
   id="svg8"
   sodipodi:docname="a7xpg.svg"
   inkscape:version="1.3.2 (091e20ef0f, 2023-11-25, custom)"
   xmlns:inkscape="http://www.inkscape.org/namespaces/inkscape"
   xmlns:sodipodi="http://sodipodi.sourceforge.net/DTD/sodipodi-0.dtd"
   xmlns:xlink="http://www.w3.org/1999/xlink"
   xmlns="http://www.w3.org/2000/svg"
   xmlns:svg="http://www.w3.org/2000/svg">
  <defs
     id="defs8">
    <linearGradient
       id="linearGradient14"
       inkscape:collect="always">
      <stop
         style="stop-color:#3cd6c5;stop-opacity:1;"
         offset="0"
         id="stop15" />
      <stop
         style="stop-color:#008bff;stop-opacity:1;"
         offset="1"
         id="stop16" />
    </linearGradient>
    <linearGradient
       id="linearGradient13"
       inkscape:collect="always">
      <stop
         style="stop-color:#009f5c;stop-opacity:1;"
         offset="0"
         id="stop13" />
      <stop
         style="stop-color:#35d46e;stop-opacity:1;"
         offset="1"
         id="stop14" />
    </linearGradient>
    <inkscape:path-effect
       effect="fillet_chamfer"
       id="path-effect13"
       is_visible="true"
       lpeversion="1"
       nodesatellites_param="F,0,0,1,0,0,0,1 @ F,0,0,1,0,0,0,1 @ F,0,0,1,0,0,0,1 @ F,0,0,1,0,0,0,1 @ F,0,0,1,0,0,0,1 @ F,0,0,1,0,0,0,1 @ F,0,0,1,0,0,0,1 @ F,0,0,1,0,0,0,1 @ F,0,0,1,0,0,0,1 @ F,0,0,1,0,0,0,1 @ F,0,0,1,0,0,0,1 @ F,0,0,1,0,0,0,1 @ F,0,0,1,0,0,0,1 @ F,0,0,1,0,0,0,1 @ F,0,0,1,0,0,0,1 @ F,0,0,1,0,0,0,1 @ F,0,0,1,0,0,0,1 @ F,0,0,1,0,0,0,1 @ F,0,0,1,0,0,0,1 @ F,0,0,1,0,0,0,1 @ F,0,0,1,0,0,0,1 @ F,0,0,1,0,0,0,1 @ F,0,0,1,0,0,0,1 @ F,0,0,1,0,0,0,1 @ F,0,0,1,0,0,0,1 @ F,0,0,1,0,0,0,1 @ F,0,0,1,0,0,0,1 @ F,0,0,1,0,0,0,1 @ F,0,0,1,0,0,0,1 @ F,0,0,1,0,0,0,1 @ F,0,0,1,0,0,0,1 | F,0,0,1,0,0,0,1 @ F,0,0,1,0,0,0,1 @ F,0,0,1,0,0,0,1 @ F,0,0,1,0,6.1589137,0,1 @ F,0,0,1,0,0,0,1 @ F,0,0,1,0,0,0,1 @ F,0,0,1,0,0,0,1 | F,0,0,1,0,0,0,1 @ F,0,0,1,0,0,0,1 @ F,0,0,1,0,0,0,1 @ F,0,0,1,0,0,0,1 @ F,0,0,1,0,0,0,1 @ F,0,0,1,0,0,0,1 | F,0,0,1,0,0,0,1 @ F,0,0,1,0,0,0,1 @ F,0,0,1,0,0,0,1 @ F,0,0,1,0,0,0,1 @ F,0,0,1,0,0,0,1 @ F,0,0,1,0,0,0,1 | F,0,0,1,0,0,0,1 @ F,0,0,1,0,0,0,1 @ F,0,0,1,0,0,0,1 @ F,0,0,1,0,0,0,1 @ F,0,0,1,0,0,0,1 @ F,0,0,1,0,0,0,1 @ F,0,0,1,0,0,0,1 @ F,0,0,1,0,0,0,1 @ F,0,0,1,0,0,0,1 @ F,0,0,1,0,0,0,1 @ F,0,0,1,0,0,0,1 @ F,0,0,1,0,0,0,1 @ F,0,0,1,0,0,0,1 @ F,0,0,1,0,0,0,1 @ F,0,0,1,0,0,0,1 @ F,0,0,1,0,0,0,1 @ F,0,0,1,0,6.9202155,0,1"
       radius="0"
       unit="px"
       method="auto"
       mode="F"
       chamfer_steps="1"
       flexible="false"
       use_knot_distance="true"
       apply_no_radius="true"
       apply_with_radius="true"
       only_selected="false"
       hide_knots="false" />
    <inkscape:path-effect
       effect="fillet_chamfer"
       id="path-effect12"
       is_visible="true"
       lpeversion="1"
       nodesatellites_param="F,0,0,1,0,0,0,1 @ F,0,0,1,0,0,0,1 @ F,0,0,1,0,0,0,1 @ F,0,0,1,0,0,0,1 @ F,0,0,1,0,0,0,1 @ F,0,0,1,0,0,0,1 @ F,0,0,1,0,0,0,1 @ F,0,0,1,0,0,0,1 @ F,0,0,1,0,0,0,1 @ F,0,0,1,0,0,0,1 @ F,0,0,1,0,0,0,1 @ F,0,0,1,0,0,0,1 @ F,0,0,1,0,0,0,1 @ F,0,0,1,0,0,0,1 @ F,0,0,1,0,0,0,1 @ F,0,0,1,0,0,0,1 @ F,0,0,1,0,0,0,1 @ F,0,0,1,0,0,0,1 @ F,0,0,1,0,0,0,1 @ F,0,0,1,0,0,0,1 @ F,0,0,1,0,0,0,1 @ F,0,0,1,0,0,0,1 @ F,0,0,1,0,0,0,1 @ F,0,0,1,0,0,0,1 @ F,0,0,1,0,0,0,1 @ F,0,0,1,0,0,0,1 @ F,0,0,1,0,0,0,1 @ F,0,0,1,0,0,0,1 @ F,0,0,1,0,0,0,1 @ F,0,0,1,0,0,0,1 @ F,0,0,1,0,0,0,1 | F,0,0,1,0,0,0,1 @ F,0,0,1,0,0,0,1 @ F,0,0,1,0,0,0,1 @ F,0,0,1,0,0,0,1 @ F,0,0,1,0,0,0,1 @ F,0,0,1,0,0,0,1 @ F,0,0,1,0,0,0,1 | F,0,0,1,0,0,0,1 @ F,0,0,1,0,0,0,1 @ F,0,0,1,0,0,0,1 @ F,0,0,1,0,0,0,1 @ F,0,0,1,0,0,0,1 @ F,0,0,1,0,0,0,1 | F,0,0,1,0,0,0,1 @ F,0,0,1,0,0,0,1 @ F,0,0,1,0,0,0,1 @ F,0,0,1,0,0,0,1 @ F,0,0,1,0,0,0,1 @ F,0,0,1,0,0,0,1 | F,0,0,1,0,0,0,1 @ F,0,0,1,0,0,0,1 @ F,0,0,1,0,0,0,1 @ F,0,0,1,0,0,0,1 @ F,0,0,1,0,0,0,1 @ F,0,0,1,0,0,0,1 @ F,0,0,1,0,0,0,1 @ F,0,0,1,0,0,0,1 @ F,0,0,1,0,0,0,1 @ F,0,0,1,0,0,0,1 @ F,0,0,1,0,0,0,1 @ F,0,0,1,0,0,0,1 @ F,0,0,1,0,0,0,1 @ F,0,0,1,0,0,0,1 @ F,0,0,1,0,0,0,1 @ F,0,0,1,0,0,0,1 @ F,0,0,1,0,0,0,1"
       radius="0"
       unit="px"
       method="auto"
       mode="F"
       chamfer_steps="1"
       flexible="false"
       use_knot_distance="true"
       apply_no_radius="true"
       apply_with_radius="true"
       only_selected="false"
       hide_knots="false" />
    <inkscape:path-effect
       effect="fillet_chamfer"
       id="path-effect11"
       is_visible="true"
       lpeversion="1"
       nodesatellites_param="F,0,0,1,0,0,0,1 @ F,0,0,1,0,0,0,1 @ F,0,0,1,0,0,0,1 @ F,0,0,1,0,0,0,1 @ F,0,0,1,0,7.1043998,0,1 @ F,0,0,1,0,0,0,1 @ F,0,0,1,0,0,0,1 @ F,0,0,1,0,0,0,1"
       radius="0"
       unit="px"
       method="auto"
       mode="F"
       chamfer_steps="1"
       flexible="false"
       use_knot_distance="true"
       apply_no_radius="true"
       apply_with_radius="true"
       only_selected="false"
       hide_knots="false" />
    <inkscape:path-effect
       effect="fillet_chamfer"
       id="path-effect10"
       is_visible="true"
       lpeversion="1"
       nodesatellites_param="F,0,0,1,0,0,0,1 @ F,0,0,1,0,0,0,1 @ F,0,0,1,0,0,0,1 @ F,0,0,1,0,0,0,1 @ F,0,0,1,0,6.8372699,0,1 @ F,0,0,1,0,0,0,1 @ F,0,0,1,0,0,0,1 @ F,0,0,1,0,0,0,1 @ F,0,0,1,0,0,0,1 @ F,0,0,1,0,0,0,1 @ F,0,0,1,0,6.1679155,0,1 @ F,0,0,1,0,0,0,1"
       radius="0"
       unit="px"
       method="auto"
       mode="F"
       chamfer_steps="1"
       flexible="false"
       use_knot_distance="true"
       apply_no_radius="true"
       apply_with_radius="true"
       only_selected="false"
       hide_knots="false" />
    <filter
       inkscape:collect="always"
       style="color-interpolation-filters:sRGB"
       id="filter13"
       x="-0.12859021"
       y="-0.15575818"
       width="1.2571804"
       height="1.3115164">
      <feGaussianBlur
         inkscape:collect="always"
         stdDeviation="3.0499191"
         id="feGaussianBlur13" />
    </filter>
    <radialGradient
       inkscape:collect="always"
       xlink:href="#linearGradient13"
       id="radialGradient14"
       cx="32.026222"
       cy="43.585709"
       fx="32.026222"
       fy="43.585709"
       r="17.8838"
       gradientTransform="matrix(0.86438768,-0.86438768,0.99376629,0.99376629,-38.970858,29.839371)"
       gradientUnits="userSpaceOnUse" />
    <radialGradient
       inkscape:collect="always"
       xlink:href="#linearGradient14"
       id="radialGradient16"
       cx="8.3467264"
       cy="27.725445"
       fx="8.3467264"
       fy="27.725445"
       r="24.999502"
       gradientTransform="matrix(1.9948421,1.9948421,-0.99871004,0.99871004,19.386006,-10.965563)"
       gradientUnits="userSpaceOnUse" />
  </defs>
  <sodipodi:namedview
     id="namedview8"
     pagecolor="#505050"
     bordercolor="#eeeeee"
     borderopacity="1"
     inkscape:showpageshadow="0"
     inkscape:pageopacity="0"
     inkscape:pagecheckerboard="0"
     inkscape:deskcolor="#505050"
     inkscape:zoom="9.1923882"
     inkscape:cx="39.162837"
     inkscape:cy="35.300946"
     inkscape:window-width="1920"
     inkscape:window-height="1020"
     inkscape:window-x="0"
     inkscape:window-y="0"
     inkscape:window-maximized="1"
     inkscape:current-layer="svg8" />
  <path
     d="M 10.687389,26.526788 C 8.0947146,26.415436 6.2502955,29.016057 7.2128089,31.426121 l 7.1516981,17.879246 c 0.603764,1.510185 2.150646,2.422762 3.76442,2.220937 l 7.040542,-0.88029 a 54.680889,54.680889 4.4546042e-4 0 1 13.568877,1.05e-4 l 7.038809,0.880185 c 1.613776,0.201827 3.160655,-0.710752 3.76442,-2.220937 l 7.151698,-17.879246 c 0.966825,-2.418783 -0.893885,-5.026656 -3.495533,-4.899333 -0.712853,0.0356 -1.398834,0.283693 -1.969511,0.712376 L 36.888085,37.995247 a 8.2235144,8.2235144 179.99875 0 1 -9.868503,2.15e-4 L 12.677852,27.239164 c -0.576509,-0.432626 -1.270377,-0.680937 -1.990463,-0.712376 z"
     style="fill:url(#radialGradient16);stroke-width:0.893962"
     id="path8"
     inkscape:path-effect="#path-effect10"
     inkscape:original-d="M 10.687389,26.526788 C 8.0947146,26.415436 6.2502955,29.016057 7.2128089,31.426121 l 7.1516981,17.879246 c 0.603764,1.510185 2.150646,2.422762 3.76442,2.220937 l 13.824987,-1.72856 13.823241,1.72856 c 1.613776,0.201827 3.160655,-0.710752 3.76442,-2.220937 l 7.151698,-17.879246 c 0.966825,-2.418783 -0.893885,-5.026656 -3.495533,-4.899333 -0.712853,0.0356 -1.398834,0.283693 -1.969511,0.712376 L 31.953914,41.696211 12.677852,27.239164 c -0.576509,-0.432626 -1.270377,-0.680937 -1.990463,-0.712376 z" />
  <path
     d="m 31.886856,10.435466 c -1.401444,0.03933 -2.650633,0.894002 -3.195084,2.186017 L 14.388968,46.592051 c -1.065663,2.535719 1.010567,5.275059 3.73982,4.934253 l 6.809773,-0.851042 a 56.847167,56.847167 5.0870768e-7 0 1 14.099124,0 l 6.809771,0.851042 c 2.729256,0.340806 4.805485,-2.398534 3.739821,-4.934253 L 35.284472,12.621483 c -0.573042,-1.359926 -1.92254,-2.228191 -3.397616,-2.186017 z"
     style="mix-blend-mode:hard-light;fill:url(#radialGradient14);stroke-width:0.893962"
     id="path6"
     inkscape:path-effect="#path-effect11"
     inkscape:original-d="m 31.886856,10.435466 c -1.401444,0.03933 -2.650633,0.894002 -3.195084,2.186017 L 14.388968,46.592051 c -1.065663,2.535719 1.010567,5.275059 3.73982,4.934253 l 13.859335,-1.732052 13.859333,1.732052 c 2.729256,0.340806 4.805485,-2.398534 3.739821,-4.934253 L 35.284472,12.621483 c -0.573042,-1.359926 -1.92254,-2.228191 -3.397616,-2.186017 z" />
  <path
     d="m 31.789062,7.4394531 c -1.761602,0.050198 -3.335113,1.1258384 -4.019531,2.7499999 l -9.283203,22.048828 -7.86914,-5.902344 C 9.8917107,25.791524 9.0174584,25.479015 8.1113281,25.439453 4.8675445,25.300137 2.5340551,28.590173 3.7382813,31.605469 l 7.9999997,20 c 0.152646,0.381809 0.365431,0.723103 0.605469,1.039062 0.114592,0.150837 0.235733,0.293704 0.367188,0.427735 0.0038,0.004 0.0079,0.0078 0.01172,0.01172 0.344035,0.348198 0.737774,0.636059 1.171875,0.855469 0.09704,0.05002 0.193835,0.09963 0.294922,0.142578 0.081,0.03381 0.163098,0.06271 0.246094,0.0918 0.145834,0.05194 0.294596,0.09622 0.447266,0.132813 0.06174,0.01467 0.123053,0.02895 0.185546,0.04102 0.17089,0.03316 0.345638,0.05367 0.523438,0.06641 0.06074,0.0045 0.120482,0.01364 0.181641,0.01563 0.230421,0.007 0.463906,5.75e-4 0.703124,-0.0293 l 15.402344,-1.925782 h 0.0039 l 15.396485,1.925782 c 0.104452,0.01306 0.206657,0.008 0.310547,0.01367 0.14915,0.01105 0.297836,0.02101 0.443359,0.01758 2.118168,-0.05001 3.816007,-1.595035 4.261719,-3.519532 l 7.722656,-19.30664 c 1.20954,-3.026002 -1.143646,-6.325304 -4.398437,-6.166016 h -0.002 c -0.897026,0.0448 -1.760376,0.35703 -2.478515,0.896484 L 45.330078,32.193359 36.066406,10.189453 C 35.346146,8.4801503 33.644963,7.3872546 31.791016,7.4394531 Z m 0.0293,1 c 1.445363,-0.041324 2.764667,0.8061205 3.326172,2.1386719 l 9.361325,22.234375 -7.699913,5.775233 a 8.2118859,8.2118859 179.99858 0 1 -9.854263,2.44e-4 L 19.310547,32.857422 28.691406,10.578125 C 29.224799,9.3123539 30.445401,8.4779881 31.818359,8.4394531 Z M 8.0683594,26.439453 c 0.7048629,0.03077 1.3829611,0.273798 1.9472656,0.697266 l 8.070312,6.052734 -6.316406,15.001953 c -0.06004,0.142858 -0.102251,0.286007 -0.146484,0.429688 L 4.6679687,31.234375 C 3.7188375,28.857818 5.5117507,26.32965 8.0683594,26.439453 Z m 47.5996096,0 c 2.565675,-0.125563 4.373386,2.409563 3.419922,4.794922 l -6.91211,17.28125 c -0.03629,-0.108397 -0.06599,-0.216345 -0.111328,-0.324219 l -6.333984,-15.046875 8.009765,-6.007812 c 0.558594,-0.419607 1.229946,-0.662421 1.927735,-0.697266 z m -10.761719,7.324219 6.236328,14.814453 c 0.272785,0.649084 0.336351,1.308442 0.238281,1.923828 l -0.292968,0.732422 c -0.561639,1.404816 -1.951279,2.266995 -3.44336,2.183594 -0.05446,-0.0044 -0.107062,-0.0029 -0.162109,-0.0098 l -15.564453,-1.945312 -0.03516,0.0039 h -0.0039 l -15.527344,1.941406 c -0.194467,0.02432 -0.387411,0.0311 -0.578124,0.02344 -0.01189,-3.95e-4 -0.0233,-0.0034 -0.03516,-0.0039 -1.346495,-0.06784 -2.55572,-0.906215 -3.070312,-2.193359 L 12.574219,51 c -0.237797,-0.749235 -0.231251,-1.592773 0.117187,-2.421875 l 6.21875,-14.771484 7.432577,5.574433 a 9.2274156,9.2274156 0.00137437 0 0 11.072545,2.65e-4 z"
     style="mix-blend-mode:normal;filter:url(#filter13)"
     id="path10"
     transform="matrix(0.8939623,0,0,0.8939623,3.3802948,3.2802767)"
     inkscape:path-effect="#path-effect13"
     inkscape:original-d="m 31.789062,7.4394531 c -1.761602,0.050198 -3.335113,1.1258384 -4.019531,2.7499999 l -9.283203,22.048828 -7.86914,-5.902344 C 9.8917107,25.791524 9.0174584,25.479015 8.1113281,25.439453 4.8675445,25.300137 2.5340551,28.590173 3.7382813,31.605469 l 7.9999997,20 c 0.152646,0.381809 0.365431,0.723103 0.605469,1.039062 0.114592,0.150837 0.235733,0.293704 0.367188,0.427735 0.0038,0.004 0.0079,0.0078 0.01172,0.01172 0.344035,0.348198 0.737774,0.636059 1.171875,0.855469 0.09704,0.05002 0.193835,0.09963 0.294922,0.142578 0.081,0.03381 0.163098,0.06271 0.246094,0.0918 0.145834,0.05194 0.294596,0.09622 0.447266,0.132813 0.06174,0.01467 0.123053,0.02895 0.185546,0.04102 0.17089,0.03316 0.345638,0.05367 0.523438,0.06641 0.06074,0.0045 0.120482,0.01364 0.181641,0.01563 0.230421,0.007 0.463906,5.75e-4 0.703124,-0.0293 l 15.402344,-1.925782 h 0.0039 l 15.396485,1.925782 c 0.104452,0.01306 0.206657,0.008 0.310547,0.01367 0.14915,0.01105 0.297836,0.02101 0.443359,0.01758 2.118168,-0.05001 3.816007,-1.595035 4.261719,-3.519532 l 7.722656,-19.30664 c 1.20954,-3.026002 -1.143646,-6.325304 -4.398437,-6.166016 h -0.002 c -0.897026,0.0448 -1.760376,0.35703 -2.478515,0.896484 L 45.330078,32.193359 36.066406,10.189453 C 35.346146,8.4801503 33.644963,7.3872546 31.791016,7.4394531 Z m 0.0293,1 c 1.445363,-0.041324 2.764667,0.8061205 3.326172,2.1386719 L 44.505859,32.8125 31.878906,42.283203 19.310547,32.857422 28.691406,10.578125 C 29.224799,9.3123539 30.445401,8.4779881 31.818359,8.4394531 Z M 8.0683594,26.439453 c 0.7048629,0.03077 1.3829611,0.273798 1.9472656,0.697266 l 8.070312,6.052734 -6.316406,15.001953 c -0.06004,0.142858 -0.102251,0.286007 -0.146484,0.429688 L 4.6679687,31.234375 C 3.7188375,28.857818 5.5117507,26.32965 8.0683594,26.439453 Z m 47.5996096,0 c 2.565675,-0.125563 4.373386,2.409563 3.419922,4.794922 l -6.91211,17.28125 c -0.03629,-0.108397 -0.06599,-0.216345 -0.111328,-0.324219 l -6.333984,-15.046875 8.009765,-6.007812 c 0.558594,-0.419607 1.229946,-0.662421 1.927735,-0.697266 z m -10.761719,7.324219 6.236328,14.814453 c 0.272785,0.649084 0.336351,1.308442 0.238281,1.923828 l -0.292968,0.732422 c -0.561639,1.404816 -1.951279,2.266995 -3.44336,2.183594 -0.05446,-0.0044 -0.107062,-0.0029 -0.162109,-0.0098 l -15.564453,-1.945312 -0.03516,0.0039 h -0.0039 l -15.527344,1.941406 c -0.194467,0.02432 -0.387411,0.0311 -0.578124,0.02344 -0.01189,-3.95e-4 -0.0233,-0.0034 -0.03516,-0.0039 -1.346495,-0.06784 -2.55572,-0.906215 -3.070312,-2.193359 L 12.574219,51 c -0.237797,-0.749235 -0.231251,-1.592773 0.117187,-2.421875 l 6.21875,-14.771484 12.96875,9.726562 z" />
</svg>
