<?xml version="1.0" encoding="UTF-8" standalone="no"?>
<svg
   width="64"
   height="64"
   version="1.1"
   id="svg11"
   sodipodi:docname="abe.svg"
   inkscape:version="1.3.2 (091e20ef0f, 2023-11-25, custom)"
   xmlns:inkscape="http://www.inkscape.org/namespaces/inkscape"
   xmlns:sodipodi="http://sodipodi.sourceforge.net/DTD/sodipodi-0.dtd"
   xmlns:xlink="http://www.w3.org/1999/xlink"
   xmlns="http://www.w3.org/2000/svg"
   xmlns:svg="http://www.w3.org/2000/svg">
  <defs
     id="defs11">
    <linearGradient
       id="linearGradient52"
       inkscape:collect="always">
      <stop
         style="stop-color:#ffce65;stop-opacity:1;"
         offset="0"
         id="stop51" />
      <stop
         style="stop-color:#ff962d;stop-opacity:1;"
         offset="1"
         id="stop52" />
    </linearGradient>
    <linearGradient
       id="linearGradient48"
       inkscape:collect="always">
      <stop
         style="stop-color:#333333;stop-opacity:1;"
         offset="0"
         id="stop49" />
      <stop
         style="stop-color:#000000;stop-opacity:1;"
         offset="1"
         id="stop50" />
    </linearGradient>
    <linearGradient
       id="linearGradient44"
       inkscape:collect="always">
      <stop
         style="stop-color:#fbab00;stop-opacity:1;"
         offset="0"
         id="stop45" />
      <stop
         style="stop-color:#fb7e00;stop-opacity:1;"
         offset="1"
         id="stop46" />
    </linearGradient>
    <linearGradient
       id="linearGradient42"
       inkscape:collect="always">
      <stop
         style="stop-color:#c13811;stop-opacity:1;"
         offset="0"
         id="stop43" />
      <stop
         style="stop-color:#731b00;stop-opacity:1;"
         offset="1"
         id="stop44" />
    </linearGradient>
    <linearGradient
       id="linearGradient41"
       inkscape:collect="always">
      <stop
         style="stop-color:#f1d0ac;stop-opacity:1;"
         offset="0"
         id="stop41" />
      <stop
         style="stop-color:#d5aca8;stop-opacity:1;"
         offset="1"
         id="stop42" />
    </linearGradient>
    <inkscape:path-effect
       effect="fillet_chamfer"
       id="path-effect26"
       is_visible="true"
       lpeversion="1"
       nodesatellites_param="F,0,0,1,0,0,0,1 @ F,0,0,1,0,0,0,1 @ F,0,0,1,0,0,0,1 @ F,0,0,1,0,0,0,1 @ F,0,0,1,0,0,0,1 @ F,0,0,1,0,0,0,1 @ F,0,0,1,0,0,0,1 @ F,0,0,1,0,0,0,1 @ F,0,0,1,0,0,0,1 @ F,0,0,1,0,0,0,1 @ F,0,0,1,0,0,0,1 @ F,0,0,1,0,0,0,1 @ F,0,0,1,0,2.5094505,0,1 @ F,0,0,1,0,0,0,1"
       radius="0"
       unit="px"
       method="auto"
       mode="F"
       chamfer_steps="1"
       flexible="false"
       use_knot_distance="true"
       apply_no_radius="true"
       apply_with_radius="true"
       only_selected="false"
       hide_knots="false" />
    <inkscape:path-effect
       effect="fillet_chamfer"
       id="path-effect22"
       is_visible="true"
       lpeversion="1"
       nodesatellites_param="F,0,0,1,0,0,0,1 @ F,0,0,1,0,0,0,1 @ F,0,0,1,0,0,0,1 @ F,0,0,1,0,0,0,1 @ F,0,0,1,0,0,0,1 @ F,0,0,1,0,0,0,1"
       radius="0"
       unit="px"
       method="auto"
       mode="F"
       chamfer_steps="1"
       flexible="false"
       use_knot_distance="true"
       apply_no_radius="true"
       apply_with_radius="true"
       only_selected="false"
       hide_knots="false" />
    <inkscape:path-effect
       effect="fillet_chamfer"
       id="path-effect21"
       is_visible="true"
       lpeversion="1"
       nodesatellites_param="F,0,0,1,0,0,0,1 @ F,0,0,1,0,0,0,1 @ F,0,0,1,0,0,0,1 @ F,0,0,1,0,2.7939908,0,1 @ F,0,0,1,0,0,0,1 @ F,0,0,1,0,0,0,1 @ F,0,0,1,0,0,0,1 @ F,0,0,1,0,0,0,1 @ F,0,0,1,0,0,0,1 @ F,0,0,1,0,1.4380979,0,1 @ F,0,0,1,0,0,0,1 @ F,0,0,1,0,5.7047638,0,1 @ F,0,0,1,0,7.1327412,0,1 @ F,0,0,1,0,2.5831529,0,1 @ F,0,0,1,0,4.1970163,0,1 @ F,0,0,1,0,0,0,1 | F,0,0,1,0,0,0,1 @ F,0,0,1,0,0,0,1 @ F,0,0,1,0,0,0,1 @ F,0,0,1,0,0,0,1"
       radius="0"
       unit="px"
       method="auto"
       mode="F"
       chamfer_steps="1"
       flexible="false"
       use_knot_distance="true"
       apply_no_radius="true"
       apply_with_radius="true"
       only_selected="false"
       hide_knots="false" />
    <inkscape:path-effect
       effect="fillet_chamfer"
       id="path-effect26-3"
       is_visible="true"
       lpeversion="1"
       nodesatellites_param="F,0,0,1,0,0,0,1 @ F,0,0,1,0,0,0,1 @ F,0,0,1,0,0,0,1 @ F,0,0,1,0,0,0,1 @ F,0,0,1,0,0,0,1 @ F,0,0,1,0,0,0,1 @ F,0,0,1,0,0,0,1 @ F,0,0,1,0,0,0,1 @ F,0,0,1,0,0,0,1 @ F,0,0,1,0,0,0,1 @ F,0,0,1,0,0,0,1 @ F,0,0,1,0,0,0,1 @ F,0,0,1,0,2.5094505,0,1 @ F,0,0,1,0,0,0,1"
       radius="0"
       unit="px"
       method="auto"
       mode="F"
       chamfer_steps="1"
       flexible="false"
       use_knot_distance="true"
       apply_no_radius="true"
       apply_with_radius="true"
       only_selected="false"
       hide_knots="false" />
    <filter
       inkscape:collect="always"
       style="color-interpolation-filters:sRGB"
       id="filter41"
       x="-0.066769261"
       y="-0.066769262"
       width="1.1335385"
       height="1.1335385">
      <feGaussianBlur
         inkscape:collect="always"
         stdDeviation="1.5663173"
         id="feGaussianBlur41" />
    </filter>
    <radialGradient
       inkscape:collect="always"
       xlink:href="#linearGradient41"
       id="radialGradient42"
       cx="22.950478"
       cy="57.012455"
       fx="22.950478"
       fy="57.012455"
       r="19.094214"
       gradientTransform="matrix(2.2888406,-1.3214627,1.1073199,1.9179344,-92.710534,-24.114158)"
       gradientUnits="userSpaceOnUse" />
    <radialGradient
       inkscape:collect="always"
       xlink:href="#linearGradient42"
       id="radialGradient44"
       cx="25"
       cy="41.84082"
       fx="25"
       fy="41.84082"
       r="13"
       gradientTransform="matrix(1.6630017,0,0,1.7705621,-16.575042,-32.240951)"
       gradientUnits="userSpaceOnUse" />
    <radialGradient
       inkscape:collect="always"
       xlink:href="#linearGradient44"
       id="radialGradient46"
       cx="-147.44969"
       cy="26.928539"
       fx="-147.44969"
       fy="26.928539"
       r="28"
       gradientTransform="matrix(2.0932442,-0.56088309,0.51257875,1.9129699,299.34328,-109.80536)"
       gradientUnits="userSpaceOnUse" />
    <radialGradient
       inkscape:collect="always"
       xlink:href="#linearGradient52"
       id="radialGradient48"
       cx="22.522781"
       cy="21.217474"
       fx="22.522781"
       fy="21.217474"
       r="23.955078"
       gradientTransform="matrix(1.291407,-0.34603145,0.33430313,1.2476363,-14.232338,2.753135)"
       gradientUnits="userSpaceOnUse" />
    <radialGradient
       inkscape:collect="always"
       xlink:href="#linearGradient48"
       id="radialGradient50"
       cx="43.042515"
       cy="36.705223"
       fx="43.042515"
       fy="36.705223"
       r="4.315174"
       gradientUnits="userSpaceOnUse"
       gradientTransform="matrix(4.3779814,-1.1730766,1.1730766,4.3779814,-190.86194,-69.991961)" />
  </defs>
  <sodipodi:namedview
     id="namedview11"
     pagecolor="#505050"
     bordercolor="#eeeeee"
     borderopacity="1"
     inkscape:showpageshadow="0"
     inkscape:pageopacity="0"
     inkscape:pagecheckerboard="0"
     inkscape:deskcolor="#505050"
     showguides="false"
     inkscape:zoom="11.313709"
     inkscape:cx="30.273009"
     inkscape:cy="37.786019"
     inkscape:window-width="1920"
     inkscape:window-height="1020"
     inkscape:window-x="0"
     inkscape:window-y="0"
     inkscape:window-maximized="1"
     inkscape:current-layer="svg11" />
  <path
     d="M 32,3.9849741 C 19.219388,3.9849741 8.7760961,11.461913 8.0449219,20.385 H 55.955078 C 55.223904,11.461913 44.780612,3.9849741 32,3.9849741 Z"
     style="fill:url(#radialGradient48)"
     id="path26"
     sodipodi:nodetypes="sccs" />
  <path
     d="m 12,28 v 16 c 0,4.252775 2.324584,8.574773 4.496094,11.681641 1.19051,-0.762801 4.294882,-2.480496 7.333984,-6.34961 0.490547,-0.62452 0.525901,-1.705715 0.117188,-2.386719 l -3.583985,-5.972656 c -1.808763,-3.013233 -0.831939,-6.922282 2.181641,-8.730469 0.860571,-0.516037 1.831001,-0.821225 2.832031,-0.890625 0.66648,-0.0466 1.336148,0.01206 1.984375,0.173829 1.636737,0.409256 3.043932,1.451831 3.912109,2.898437 l 0.587891,0.978516 c 0.794018,1.323107 2.498074,1.727134 3.708984,0.771484 0.190643,-0.150455 0.384964,-0.308303 0.583741,-0.475078 C 37.215445,34.808238 38,32.876481 38,31.490549 V 28 Z"
     style="fill:url(#radialGradient44)"
     id="path25"
     inkscape:path-effect="#path-effect26"
     inkscape:original-d="m 12,28 v 16 c 0,4.252775 2.324584,8.574773 4.496094,11.681641 1.19051,-0.762801 4.294882,-2.480496 7.333984,-6.34961 0.490547,-0.62452 0.525901,-1.705715 0.117188,-2.386719 l -3.583985,-5.972656 c -1.808763,-3.013233 -0.831939,-6.922282 2.181641,-8.730469 0.860571,-0.516037 1.831001,-0.821225 2.832031,-0.890625 0.66648,-0.0466 1.336148,0.01206 1.984375,0.173829 1.636737,0.409256 3.043932,1.451831 3.912109,2.898437 l 0.587891,0.978516 c 0.794018,1.323107 2.498074,1.727134 3.708984,0.771484 C 36.309731,35.590279 37.104475,34.895525 38,34 v -6 z" />
  <path
     d="m 38,28 c -0.183545,3.923883 -0.648663,5.98731 -2.616035,8.144259 -1.210911,0.955651 -2.728618,0.581193 -3.522637,-0.741915 l -0.587891,-0.978516 c -0.868178,-1.446607 -2.27537,-2.48918 -3.912109,-2.898437 -0.648228,-0.161769 -1.317894,-0.22043 -1.984375,-0.173829 -1.001031,0.0694 -1.971459,0.374588 -2.832031,0.890625 -3.013583,1.808189 -3.990406,5.717233 -2.181641,8.730469 l 3.583985,5.972656 c 0.408714,0.681005 0.373359,1.762198 -0.117188,2.386719 -3.039105,3.869118 -6.143473,5.586808 -7.333984,6.34961 C 18.255975,58.198765 22.55443,60 25.705078,60 h 11.162109 c 3.939297,0 9.022081,-2.603191 10.767579,-6.130859 0.83871,-1.695041 1.607915,-3.553058 2.029296,-5.314454 C 49.995206,47.170489 51.157351,46 52.583984,46 c 2.215577,0 2.53522,-1.238709 1.351563,-3.216797 C 52.337273,40.112219 50.515226,35.507096 50,28 Z M 16.496094,55.681641 c -0.02443,-0.03495 -0.04779,-0.06629 -0.07227,-0.101563 0.02283,0.0328 0.04555,0.07105 0.06836,0.103516 8.75e-4,-5.61e-4 0.003,-0.0014 0.0039,-0.002 z M 44,32 c 2.209135,0 4,1.790865 4,4 0,2.209135 -1.790865,4 -4,4 -2.209135,0 -4,-1.790865 -4,-4 0,-2.209135 1.790865,-4 4,-4 z"
     style="fill:url(#radialGradient42)"
     id="path24"
     sodipodi:nodetypes="cccccccccscsssssscccccccsssss" />
  <path
     d="m 8,20 c -2.2091368,0 -4,1.790863 -4,4 0,2.209137 1.7908632,4 4,4 h 48 c 2.209137,0 4,-1.790863 4,-4 0,-2.209137 -1.790863,-4 -4,-4 z"
     style="fill:url(#radialGradient46);stroke-linecap:round;stroke-linejoin:round"
     id="path23" />
  <path
     d="M 44,31.684826 A 4.3151741,4.3151741 0 0 0 39.684826,36 4.3151741,4.3151741 0 0 0 44,40.315174 4.3151741,4.3151741 0 0 0 48.315174,36 4.3151741,4.3151741 0 0 0 44,31.684826 Z"
     style="fill:url(#radialGradient50);stroke-width:1.07879;fill-opacity:1"
     id="path22" />
  <path
     id="path31"
     style="color:#000000;fill:#000000;-inkscape-stroke:none;filter:url(#filter41)"
     d="M 32.017578 3.8769531 C 25.599612 3.8769531 19.765605 5.653035 15.4375 8.5566406 C 11.152701 11.431193 8.3426849 15.419323 7.9277344 19.880859 C 5.6793579 19.929232 3.8671875 21.76748 3.8671875 24.027344 C 3.8671875 26.317537 5.7273835 28.177734 8.0175781 28.177734 L 11.867188 28.177734 L 11.867188 44.027344 C 11.867188 48.277179 14.14789 52.554558 16.302734 55.664062 L 16.300781 55.666016 L 16.318359 55.693359 C 16.336609 55.719579 16.358979 55.757399 16.386719 55.796875 L 16.46875 55.914062 L 16.494141 55.898438 C 18.345613 58.421499 22.561686 60.177734 25.722656 60.177734 L 36.884766 60.177734 C 38.887448 60.177734 41.162695 59.518834 43.164062 58.416016 C 45.165431 57.313198 46.895202 55.765443 47.787109 53.962891 C 48.628972 52.261479 49.402687 50.395536 49.828125 48.617188 C 50.145243 47.29162 51.256982 46.177734 52.601562 46.177734 C 53.169433 46.177734 53.625342 46.099324 53.976562 45.939453 C 54.327784 45.779587 54.574601 45.529504 54.693359 45.212891 C 54.930876 44.579661 54.683959 43.740359 54.082031 42.734375 C 52.508571 40.104859 50.710552 35.567976 50.181641 28.177734 L 56.017578 28.177734 C 58.307773 28.177734 60.167969 26.317537 60.167969 24.027344 C 60.167969 21.76748 58.355799 19.929232 56.107422 19.880859 C 55.692473 15.419323 52.882455 11.431193 48.597656 8.5566406 C 44.269552 5.653035 38.435545 3.8769532 32.017578 3.8769531 z M 32.017578 4.1777344 C 38.380173 4.1777344 44.158211 5.9410249 48.429688 8.8066406 C 52.647283 11.636108 55.370933 15.536932 55.787109 19.876953 L 8.2480469 19.876953 C 8.6642243 15.536932 11.387874 11.636108 15.605469 8.8066406 C 19.876945 5.9410249 25.654984 4.1777344 32.017578 4.1777344 z M 8.0175781 20.177734 L 56.017578 20.177734 C 58.14564 20.177734 59.867188 21.899281 59.867188 24.027344 C 59.867188 26.155405 58.14564 27.876953 56.017578 27.876953 L 8.0175781 27.876953 C 5.8895164 27.876953 4.1679687 26.155405 4.1679688 24.027344 C 4.1679688 21.899281 5.8895164 20.177734 8.0175781 20.177734 z M 12.167969 28.177734 L 37.845703 28.177734 C 37.672888 31.634941 37.27081 33.613237 35.748047 35.525391 C 35.712464 35.569894 35.679387 35.613723 35.642578 35.658203 C 35.53285 35.79123 35.41801 35.92345 35.296875 36.056641 C 35.228257 36.110318 35.157928 36.158509 35.087891 36.203125 C 35.085204 36.204841 35.082767 36.207281 35.080078 36.208984 C 35.012784 36.25148 34.945238 36.289884 34.876953 36.324219 L 34.875 36.324219 C 34.448785 36.538106 34.006577 36.595992 33.583984 36.517578 C 33.512174 36.501198 33.442517 36.481824 33.373047 36.458984 C 33.076222 36.361394 32.795698 36.201292 32.546875 35.988281 L 32.544922 35.988281 C 32.502252 35.950541 32.463932 35.915361 32.427734 35.878906 L 32.425781 35.876953 C 32.373831 35.826263 32.322815 35.772185 32.273438 35.714844 L 32.271484 35.712891 C 32.267622 35.708267 32.263609 35.703851 32.259766 35.699219 C 32.170847 35.591109 32.084288 35.478997 32.007812 35.351562 L 31.419922 34.373047 C 30.531451 32.892481 29.091277 31.82514 27.416016 31.40625 C 26.752508 31.240668 26.066955 31.180817 25.384766 31.228516 C 25.149793 31.244802 24.916434 31.276759 24.685547 31.318359 C 24.644382 31.325752 24.603492 31.333616 24.5625 31.341797 C 24.332454 31.387543 24.104427 31.443362 23.880859 31.513672 C 23.637708 31.590142 23.399141 31.680427 23.166016 31.785156 C 22.93272 31.889962 22.706251 32.008749 22.486328 32.140625 L 22.484375 32.140625 C 19.401284 33.99052 18.40147 37.995389 20.251953 41.078125 L 23.835938 47.050781 C 24.206637 47.668446 24.171228 48.706443 23.730469 49.267578 C 23.547366 49.500688 23.364192 49.726125 23.181641 49.943359 C 22.987088 50.174188 22.791093 50.397077 22.597656 50.611328 C 22.221673 51.027772 21.848491 51.413378 21.482422 51.769531 C 21.208186 52.036563 20.938204 52.282834 20.673828 52.517578 C 20.585191 52.596305 20.495666 52.678457 20.408203 52.753906 C 20.166455 52.962185 19.93105 53.154915 19.701172 53.337891 C 19.580639 53.434083 19.464072 53.525899 19.347656 53.615234 C 19.15289 53.764271 18.960341 53.907363 18.777344 54.039062 C 18.736884 54.068232 18.692149 54.102534 18.652344 54.130859 C 18.608255 54.162229 18.568658 54.188394 18.525391 54.21875 C 18.352673 54.339782 18.188564 54.450453 18.029297 54.556641 C 17.808185 54.703928 17.605611 54.836108 17.414062 54.957031 C 17.267221 55.049711 17.126797 55.138042 17 55.216797 C 16.847683 55.311125 16.685254 55.412534 16.5625 55.490234 C 14.423105 52.404611 12.167969 48.173816 12.167969 44.027344 L 12.167969 28.177734 z M 38.160156 28.177734 L 49.882812 28.177734 C 50.413646 35.613758 52.223777 40.212114 53.824219 42.886719 C 54.405906 43.858815 54.592394 44.626775 54.412109 45.107422 C 54.321969 45.347745 54.146414 45.531808 53.851562 45.666016 C 53.556712 45.800223 53.141478 45.876953 52.601562 45.876953 C 51.09289 45.876953 49.880324 47.104058 49.535156 48.546875 C 49.117834 50.291306 48.353129 52.141423 47.517578 53.830078 C 46.663994 55.555179 44.980747 57.073604 43.019531 58.154297 C 41.058315 59.234989 38.821365 59.876953 36.884766 59.876953 L 25.722656 59.876953 C 22.6812 59.876953 18.518341 58.126033 16.75 55.738281 C 17.063128 55.54149 17.479963 55.282621 17.980469 54.953125 C 17.98768 54.948396 17.996661 54.94226 18.003906 54.9375 C 18.481101 54.622658 19.016125 54.250464 19.611328 53.789062 C 19.668714 53.744673 19.724923 53.70023 19.783203 53.654297 C 20.049601 53.443963 20.32185 53.223447 20.603516 52.980469 C 20.620834 52.965529 20.638872 52.948658 20.65625 52.933594 C 20.691688 52.90286 20.728018 52.871131 20.763672 52.839844 C 21.067599 52.573663 21.377412 52.291765 21.693359 51.984375 C 21.713967 51.964326 21.735222 51.942115 21.755859 51.921875 C 21.775124 51.902984 21.795151 51.882334 21.814453 51.863281 C 21.975243 51.704415 22.136275 51.54132 22.298828 51.371094 C 22.471532 51.190879 22.645786 51.004043 22.820312 50.810547 C 22.829998 50.79982 22.839922 50.788111 22.849609 50.777344 C 23.029467 50.577225 23.211619 50.371008 23.392578 50.15625 C 23.397257 50.150699 23.401571 50.144232 23.40625 50.138672 C 23.592105 49.917713 23.778704 49.688148 23.964844 49.451172 C 24.505174 48.763272 24.540476 47.638871 24.09375 46.894531 L 20.509766 40.921875 C 18.742996 37.978599 19.695639 34.165245 22.638672 32.398438 C 23.478956 31.894566 24.426866 31.597061 25.404297 31.529297 C 26.055063 31.483797 26.708855 31.541267 27.341797 31.699219 C 28.939996 32.098839 30.314373 33.116752 31.162109 34.529297 L 31.75 35.507812 C 32.165475 36.200137 32.777621 36.653411 33.451172 36.802734 C 33.962238 36.916037 34.508107 36.849311 35.019531 36.591797 C 35.09789 36.552645 35.175407 36.509315 35.251953 36.460938 C 35.254658 36.459222 35.257063 36.456805 35.259766 36.455078 C 35.339014 36.404593 35.417394 36.349631 35.494141 36.289062 L 35.503906 36.28125 L 35.511719 36.273438 C 37.005353 34.635876 37.648897 33.032218 37.955078 30.673828 C 38.006108 30.280763 38.047388 29.86839 38.082031 29.429688 C 38.113134 29.03582 38.138636 28.613985 38.160156 28.177734 z M 44.017578 31.5625 C 43.863598 31.562526 43.710535 31.57066 43.560547 31.585938 C 43.410559 31.601215 43.264386 31.624517 43.119141 31.654297 C 42.973895 31.684076 42.831158 31.720141 42.691406 31.763672 C 42.551654 31.807202 42.414758 31.857532 42.28125 31.914062 C 42.147742 31.970593 42.017138 32.032782 41.890625 32.101562 C 41.764112 32.170343 41.640252 32.245893 41.521484 32.326172 C 41.402717 32.406451 41.288006 32.491004 41.177734 32.582031 C 41.067463 32.673058 40.962353 32.770069 40.861328 32.871094 C 40.760303 32.972118 40.663293 33.077228 40.572266 33.1875 C 40.481238 33.297772 40.396685 33.412482 40.316406 33.53125 C 40.236127 33.650018 40.160577 33.773877 40.091797 33.900391 C 40.023017 34.026904 39.960828 34.157508 39.904297 34.291016 C 39.847766 34.424524 39.797437 34.56142 39.753906 34.701172 C 39.710376 34.840924 39.674311 34.983661 39.644531 35.128906 C 39.614752 35.274152 39.59145 35.420324 39.576172 35.570312 C 39.560894 35.720301 39.55276 35.873363 39.552734 36.027344 C 39.55269 36.181373 39.560953 36.334335 39.576172 36.484375 C 39.591391 36.634415 39.612847 36.782435 39.642578 36.927734 C 39.67231 37.073033 39.710414 37.215662 39.753906 37.355469 C 39.797399 37.495275 39.847795 37.632062 39.904297 37.765625 C 39.960799 37.899188 40.023036 38.029682 40.091797 38.15625 C 40.160558 38.282818 40.234185 38.404616 40.314453 38.523438 C 40.394721 38.642259 40.481241 38.756865 40.572266 38.867188 C 40.66329 38.97751 40.760298 39.084473 40.861328 39.185547 C 40.962358 39.28662 41.067451 39.381584 41.177734 39.472656 C 41.288018 39.563729 41.402698 39.650149 41.521484 39.730469 C 41.640271 39.810789 41.764087 39.886262 41.890625 39.955078 C 42.017163 40.023894 42.145758 40.086017 42.279297 40.142578 C 42.412836 40.199139 42.549665 40.249414 42.689453 40.292969 C 42.829241 40.336523 42.971901 40.372547 43.117188 40.402344 C 43.262474 40.43214 43.410513 40.455416 43.560547 40.470703 C 43.71058 40.48599 43.863549 40.494115 44.017578 40.494141 C 44.171608 40.494115 44.324576 40.48599 44.474609 40.470703 C 44.624643 40.455416 44.772682 40.43214 44.917969 40.402344 C 45.063255 40.372547 45.205915 40.336523 45.345703 40.292969 C 45.485491 40.249414 45.62232 40.199139 45.755859 40.142578 C 45.889398 40.086017 46.017993 40.023894 46.144531 39.955078 C 46.27107 39.886262 46.394885 39.810789 46.513672 39.730469 C 46.632459 39.650149 46.747138 39.563729 46.857422 39.472656 C 46.967706 39.381584 47.072798 39.28662 47.173828 39.185547 C 47.274858 39.084473 47.371866 38.97751 47.462891 38.867188 C 47.553915 38.756865 47.640435 38.642259 47.720703 38.523438 C 47.800971 38.404616 47.874599 38.282818 47.943359 38.15625 C 48.01212 38.029682 48.074357 37.899188 48.130859 37.765625 C 48.187362 37.632062 48.237758 37.495275 48.28125 37.355469 C 48.324742 37.215662 48.362847 37.073033 48.392578 36.927734 C 48.42231 36.782435 48.443765 36.634415 48.458984 36.484375 C 48.474204 36.334335 48.482466 36.181373 48.482422 36.027344 C 48.482396 35.873363 48.474262 35.720301 48.458984 35.570312 C 48.443706 35.420324 48.420405 35.274152 48.390625 35.128906 C 48.360845 34.983661 48.32478 34.840924 48.28125 34.701172 C 48.23772 34.56142 48.18739 34.424524 48.130859 34.291016 C 48.074329 34.157508 48.01214 34.026904 47.943359 33.900391 C 47.874579 33.773877 47.799029 33.650018 47.71875 33.53125 C 47.638471 33.412482 47.553918 33.297772 47.462891 33.1875 C 47.371863 33.077228 47.274853 32.972118 47.173828 32.871094 C 47.072803 32.770069 46.967693 32.673058 46.857422 32.582031 C 46.74715 32.491004 46.63244 32.406451 46.513672 32.326172 C 46.394904 32.245893 46.271044 32.170343 46.144531 32.101562 C 46.018018 32.032782 45.887414 31.970593 45.753906 31.914062 C 45.620398 31.857532 45.483502 31.807202 45.34375 31.763672 C 45.203998 31.720141 45.061261 31.684076 44.916016 31.654297 C 44.77077 31.624517 44.624598 31.601215 44.474609 31.585938 C 44.324621 31.57066 44.171558 31.562526 44.017578 31.5625 z M 44.017578 31.863281 C 44.161427 31.863305 44.303291 31.870544 44.443359 31.884766 C 44.583428 31.898987 44.721829 31.919541 44.857422 31.947266 C 44.993015 31.97499 45.125436 32.010248 45.255859 32.050781 C 45.386283 32.091314 45.514113 32.136806 45.638672 32.189453 C 45.763231 32.2421 45.885905 32.301168 46.003906 32.365234 C 46.121907 32.429301 46.234955 32.499427 46.345703 32.574219 C 46.456451 32.64901 46.563215 32.729631 46.666016 32.814453 C 46.768816 32.899275 46.868732 32.987873 46.962891 33.082031 C 47.057049 33.17619 47.145646 33.276106 47.230469 33.378906 C 47.315291 33.481707 47.395912 33.588471 47.470703 33.699219 C 47.545495 33.809967 47.615621 33.923015 47.679688 34.041016 C 47.743754 34.159016 47.802822 34.281691 47.855469 34.40625 C 47.908116 34.530809 47.953608 34.658639 47.994141 34.789062 C 48.034673 34.919486 48.069932 35.051907 48.097656 35.1875 C 48.125381 35.323093 48.145935 35.461494 48.160156 35.601562 C 48.174378 35.741631 48.181617 35.883495 48.181641 36.027344 C 48.181682 36.171239 48.174323 36.313007 48.160156 36.453125 C 48.14599 36.593243 48.125336 36.731543 48.097656 36.867188 C 48.069977 37.002832 48.034638 37.137101 47.994141 37.267578 C 47.953643 37.398055 47.908089 37.525777 47.855469 37.650391 C 47.802849 37.775004 47.743736 37.895617 47.679688 38.013672 C 47.615639 38.131727 47.545485 38.24662 47.470703 38.357422 C 47.395922 38.468223 47.317242 38.574882 47.232422 38.677734 C 47.147602 38.780587 47.057054 38.878448 46.962891 38.972656 C 46.868727 39.066864 46.770781 39.157319 46.667969 39.242188 C 46.565157 39.327056 46.458422 39.407588 46.347656 39.482422 C 46.236891 39.557256 46.121931 39.627303 46.003906 39.691406 C 45.885882 39.75551 45.76326 39.812556 45.638672 39.865234 C 45.514084 39.917913 45.38827 39.965302 45.257812 40.005859 C 45.127355 40.046417 44.993053 40.081633 44.857422 40.109375 C 44.72179 40.137117 44.58347 40.157645 44.443359 40.171875 C 44.303249 40.186105 44.161473 40.193335 44.017578 40.193359 C 43.873683 40.193335 43.731908 40.186105 43.591797 40.171875 C 43.451686 40.157645 43.313366 40.137117 43.177734 40.109375 C 43.042103 40.081633 42.907801 40.046417 42.777344 40.005859 C 42.646886 39.965302 42.521073 39.917913 42.396484 39.865234 C 42.271896 39.812556 42.149274 39.75551 42.03125 39.691406 C 41.913226 39.627303 41.798266 39.557256 41.6875 39.482422 C 41.576734 39.407588 41.469999 39.327056 41.367188 39.242188 C 41.264376 39.157319 41.166429 39.066864 41.072266 38.972656 C 40.978102 38.878448 40.887554 38.780587 40.802734 38.677734 C 40.717915 38.574882 40.639235 38.468223 40.564453 38.357422 C 40.489672 38.24662 40.419517 38.131727 40.355469 38.013672 C 40.29142 37.895617 40.232308 37.775004 40.179688 37.650391 C 40.127067 37.525777 40.081513 37.398055 40.041016 37.267578 C 40.000518 37.137101 39.965179 37.002832 39.9375 36.867188 C 39.909821 36.731543 39.889167 36.593243 39.875 36.453125 C 39.860833 36.313007 39.853475 36.171239 39.853516 36.027344 C 39.85354 35.883495 39.860779 35.741631 39.875 35.601562 C 39.889221 35.461494 39.909776 35.323093 39.9375 35.1875 C 39.965224 35.051907 40.000483 34.919486 40.041016 34.789062 C 40.081548 34.658639 40.127041 34.530809 40.179688 34.40625 C 40.232334 34.281691 40.291402 34.159016 40.355469 34.041016 C 40.419535 33.923015 40.489662 33.809967 40.564453 33.699219 C 40.639245 33.588471 40.719865 33.481707 40.804688 33.378906 C 40.88951 33.276106 40.978107 33.17619 41.072266 33.082031 C 41.166424 32.987873 41.26634 32.899275 41.369141 32.814453 C 41.471941 32.729631 41.578705 32.64901 41.689453 32.574219 C 41.800201 32.499427 41.913249 32.429301 42.03125 32.365234 C 42.149251 32.301168 42.271925 32.2421 42.396484 32.189453 C 42.521044 32.136806 42.648874 32.091314 42.779297 32.050781 C 42.90972 32.010248 43.042141 31.97499 43.177734 31.947266 C 43.313327 31.919541 43.451729 31.898987 43.591797 31.884766 C 43.731865 31.870544 43.873729 31.863305 44.017578 31.863281 z " />
</svg>
