<?xml version="1.0" encoding="UTF-8" standalone="no"?>
<svg
   width="64"
   height="64"
   version="1"
   id="svg5"
   sodipodi:docname="abrowser.svg"
   inkscape:version="1.3.2 (091e20ef0f, 2023-11-25, custom)"
   xmlns:inkscape="http://www.inkscape.org/namespaces/inkscape"
   xmlns:sodipodi="http://sodipodi.sourceforge.net/DTD/sodipodi-0.dtd"
   xmlns:xlink="http://www.w3.org/1999/xlink"
   xmlns="http://www.w3.org/2000/svg"
   xmlns:svg="http://www.w3.org/2000/svg">
  <defs
     id="defs5">
    <linearGradient
       id="linearGradient1"
       inkscape:collect="always">
      <stop
         style="stop-color:#ffffff;stop-opacity:1;"
         offset="0"
         id="stop1" />
      <stop
         style="stop-color:#b9b9b9;stop-opacity:1;"
         offset="1"
         id="stop2" />
    </linearGradient>
    <inkscape:path-effect
       effect="fillet_chamfer"
       id="path-effect8"
       is_visible="true"
       lpeversion="1"
       nodesatellites_param="F,0,0,1,0,0,0,1 @ F,0,0,1,0,0,0,1 @ F,0,0,1,0,0,0,1 @ F,0,0,1,0,0,0,1 @ F,0,0,1,0,0,0,1 | F,0,0,1,0,0,0,1 @ F,0,0,1,0,0,0,1 | F,0,0,1,0,0,0,1 @ F,0,0,1,0,0,0,1 @ F,0,0,1,0,0,0,1 @ F,0,0,1,0,0,0,1 @ F,0,0,1,0,0,0,1 | F,0,0,1,0,0,0,1 @ F,0,0,1,0,0,0,1 @ F,0,0,1,0,0,0,1 @ F,0,0,1,0,0,0,1 @ F,0,0,1,0,0,0,1 @ F,0,0,1,0,0,0,1 @ F,0,0,1,0,0,0,1 @ F,0,0,1,0,0,0,1 @ F,0,0,1,0,0,0,1 @ F,0,0,1,0,0,0,1 @ F,0,0,1,0,0,0,1 @ F,0,0,1,0,0,0,1 @ F,0,0,1,0,0,0,1 @ F,0,0,1,0,0,0,1 @ F,0,0,1,0,3.3647819,0,1 @ F,0,0,1,0,1.6692262,0,1 @ F,0,0,1,0,0,0,1 @ F,0,0,1,0,0,0,1 @ F,0,0,1,0,0,0,1 @ F,0,0,1,0,0,0,1 @ F,0,0,1,0,0,0,1 @ F,0,0,1,0,0,0,1 @ F,0,0,1,0,0,0,1 @ F,0,0,1,0,0,0,1 @ F,0,0,1,0,0,0,1 @ F,0,0,1,0,0,0,1 @ F,0,0,1,0,0,0,1 | F,0,0,1,0,0,0,1 @ F,0,0,1,0,0,0,1 @ F,0,0,1,0,0,0,1 @ F,0,0,1,0,0,0,1 @ F,0,0,1,0,0,0,1 @ F,0,0,1,0,0,0,1 @ F,0,0,1,0,0,0,1 @ F,0,0,1,0,0,0,1 @ F,0,0,1,0,0,0,1 @ F,0,0,1,0,0,0,1 @ F,0,0,1,0,0,0,1 @ F,0,0,1,0,0,0,1 @ F,0,0,1,0,0,0,1 @ F,0,0,1,0,0,0,1 @ F,0,0,1,0,0,0,1 @ F,0,0,1,0,0,0,1 @ F,0,0,1,0,0,0,1 @ F,0,0,1,0,0,0,1 @ F,0,0,1,0,0,0,1 @ F,0,0,1,0,0,0,1 @ F,0,0,1,0,0,0,1 @ F,0,0,1,0,0,0,1 | F,0,0,1,0,0,0,1 @ F,0,0,1,0,0,0,1 | F,0,0,1,0,0,0,1 @ F,0,0,1,0,0,0,1 @ F,0,0,1,0,0,0,1 | F,0,0,1,0,0,0,1 @ F,0,0,1,0,0,0,1 |  |  | F,0,0,1,0,0,0,1 @ F,0,0,1,0,0,0,1 @ F,0,0,1,0,0,0,1"
       radius="0"
       unit="px"
       method="auto"
       mode="F"
       chamfer_steps="1"
       flexible="false"
       use_knot_distance="true"
       apply_no_radius="true"
       apply_with_radius="true"
       only_selected="false"
       hide_knots="false" />
    <linearGradient
       id="linearGradient7"
       inkscape:collect="always">
      <stop
         style="stop-color:#0ff4f3;stop-opacity:1;"
         offset="0"
         id="stop7" />
      <stop
         style="stop-color:#005fce;stop-opacity:1;"
         offset="1"
         id="stop8" />
    </linearGradient>
    <radialGradient
       inkscape:collect="always"
       xlink:href="#linearGradient7"
       id="radialGradient8"
       cx="1.2102357"
       cy="55.339855"
       fx="1.2102357"
       fy="55.339855"
       r="28"
       gradientUnits="userSpaceOnUse"
       gradientTransform="matrix(2.4383133,-1.4077609,1.4077609,2.4383133,-79.645982,-77.892328)" />
    <radialGradient
       inkscape:collect="always"
       xlink:href="#linearGradient1"
       id="radialGradient2"
       cx="19.208988"
       cy="44.441853"
       fx="19.208988"
       fy="44.441853"
       r="10.000001"
       gradientTransform="matrix(-3.9234269,3.9234269,-3.0384075,-3.0384076,234.35615,95.098096)"
       gradientUnits="userSpaceOnUse" />
    <inkscape:path-effect
       effect="fillet_chamfer"
       id="path-effect8-5"
       is_visible="true"
       lpeversion="1"
       nodesatellites_param="F,0,0,1,0,0,0,1 @ F,0,0,1,0,0,0,1 @ F,0,0,1,0,0,0,1 @ F,0,0,1,0,0,0,1 @ F,0,0,1,0,0,0,1 | F,0,0,1,0,0,0,1 @ F,0,0,1,0,0,0,1 | F,0,0,1,0,0,0,1 @ F,0,0,1,0,0,0,1 @ F,0,0,1,0,0,0,1 @ F,0,0,1,0,0,0,1 @ F,0,0,1,0,0,0,1 | F,0,0,1,0,0,0,1 @ F,0,0,1,0,0,0,1 @ F,0,0,1,0,0,0,1 @ F,0,0,1,0,0,0,1 @ F,0,0,1,0,0,0,1 @ F,0,0,1,0,0,0,1 @ F,0,0,1,0,0,0,1 @ F,0,0,1,0,0,0,1 @ F,0,0,1,0,0,0,1 @ F,0,0,1,0,0,0,1 @ F,0,0,1,0,0,0,1 @ F,0,0,1,0,0,0,1 @ F,0,0,1,0,0,0,1 @ F,0,0,1,0,0,0,1 @ F,0,0,1,0,3.3647819,0,1 @ F,0,0,1,0,1.6692262,0,1 @ F,0,0,1,0,0,0,1 @ F,0,0,1,0,0,0,1 @ F,0,0,1,0,0,0,1 @ F,0,0,1,0,0,0,1 @ F,0,0,1,0,0,0,1 @ F,0,0,1,0,0,0,1 @ F,0,0,1,0,0,0,1 @ F,0,0,1,0,0,0,1 @ F,0,0,1,0,0,0,1 @ F,0,0,1,0,0,0,1 @ F,0,0,1,0,0,0,1 | F,0,0,1,0,0,0,1 @ F,0,0,1,0,0,0,1 @ F,0,0,1,0,0,0,1 @ F,0,0,1,0,0,0,1 @ F,0,0,1,0,0,0,1 @ F,0,0,1,0,0,0,1 @ F,0,0,1,0,0,0,1 @ F,0,0,1,0,0,0,1 @ F,0,0,1,0,0,0,1 @ F,0,0,1,0,0,0,1 @ F,0,0,1,0,0,0,1 @ F,0,0,1,0,0,0,1 @ F,0,0,1,0,0,0,1 @ F,0,0,1,0,0,0,1 @ F,0,0,1,0,0,0,1 @ F,0,0,1,0,0,0,1 @ F,0,0,1,0,0,0,1 @ F,0,0,1,0,0,0,1 @ F,0,0,1,0,0,0,1 @ F,0,0,1,0,0,0,1 @ F,0,0,1,0,0,0,1 @ F,0,0,1,0,0,0,1 | F,0,0,1,0,0,0,1 @ F,0,0,1,0,0,0,1 | F,0,0,1,0,0,0,1 @ F,0,0,1,0,0,0,1 @ F,0,0,1,0,0,0,1 | F,0,0,1,0,0,0,1 @ F,0,0,1,0,0,0,1 |  |  | F,0,0,1,0,0,0,1 @ F,0,0,1,0,0,0,1 @ F,0,0,1,0,0,0,1"
       radius="0"
       unit="px"
       method="auto"
       mode="F"
       chamfer_steps="1"
       flexible="false"
       use_knot_distance="true"
       apply_no_radius="true"
       apply_with_radius="true"
       only_selected="false"
       hide_knots="false" />
    <filter
       inkscape:collect="always"
       style="color-interpolation-filters:sRGB"
       id="filter6"
       x="-0.06761038"
       y="-0.067610341"
       width="1.1352208"
       height="1.1352207">
      <feGaussianBlur
         inkscape:collect="always"
         stdDeviation="1.5831877"
         id="feGaussianBlur6" />
    </filter>
  </defs>
  <sodipodi:namedview
     id="namedview5"
     pagecolor="#ffffff"
     bordercolor="#000000"
     borderopacity="0.25"
     inkscape:showpageshadow="2"
     inkscape:pageopacity="0.0"
     inkscape:pagecheckerboard="0"
     inkscape:deskcolor="#d1d1d1"
     inkscape:zoom="1.2277694"
     inkscape:cx="-43.574958"
     inkscape:cy="80.226792"
     inkscape:window-width="1920"
     inkscape:window-height="1020"
     inkscape:window-x="0"
     inkscape:window-y="0"
     inkscape:window-maximized="1"
     inkscape:current-layer="svg5" />
  <path
     id="rect2"
     style="fill:url(#radialGradient8)"
     d="M 32,4 C 47.512,4 60,16.488 60,32 60,47.512 47.512,60 32,60 16.488,60 4,47.512 4,32 4,16.488 16.488,4 32,4 Z" />
  <path
     style="enable-background:new;opacity:0.3;stroke-width:1"
     d="m 24.103516,5 c -1.520959,0.3770258 -5.210952,0.075231 -5.049646,1.9006038 1.153836,0.6930993 1.047354,2.0811583 0.157619,2.4597045 0.41832,1.8085137 2.26834,1.4253777 2.975412,0.059332 C 23.703479,8.9314972 27.350047,7.1250161 25.227154,5.4112939 24.854203,5.2713257 24.443781,5.2197205 24.103516,5 Z M 18.619141,5.1757812 C 17.814439,5.534265 15.58088,5.6469815 15.801197,6.6894928 16.718423,6.3474264 18.701055,6.6052684 18.619141,5.1757812 Z m -4.560547,2.0976563 c 0.207333,0.7953817 -1.715719,3.5594165 0.01813,1.8952538 1.089317,-1.7873475 3.258979,1.1806607 3.720069,-0.2665565 -0.779496,-1.2870201 -2.69954,-1.6760114 -3.664987,-1.1999275 l -0.04425,-0.1761406 z m 19.792968,0.6992187 c -1.591855,0.074453 -4.11031,2.0763478 -3.442563,3.3958808 1.582768,0.951507 2.316853,0.163727 2.445847,-1.4378684 0.454732,-1.2189537 1.118747,-0.6712481 0.705012,0.3617374 1.618552,0.977151 -0.997995,2.869117 -2.249377,2.267888 -0.561349,-0.658771 -1.053996,1.361418 -2.137413,1.393264 -1.073004,0.760692 -0.602306,1.964328 -2.072233,2.525918 -0.942871,1.839194 2.058272,2.074932 2.408848,0.304769 1.001191,-1.793424 2.473762,-0.408319 3.193336,0.701841 0.416173,-0.839602 -0.276945,-2.159637 0.673719,-0.630734 0.499249,0.869909 0.793568,1.064636 1.281096,0.263714 0.838081,0.53825 2.460819,1.187721 2.691447,1.734276 -0.870312,1.544261 -3.394606,0.245484 -4.552796,0.558106 -1.470886,-1.620097 -4.163669,-1.626984 -5.584205,0.05992 -1.491429,1.453091 -2.593953,3.452354 -2.444723,5.530729 0.14923,2.078375 2.243487,4.403523 4.627967,3.032897 2.543161,-0.33292 2.196673,2.31213 2.814096,3.888695 0.298854,2.136866 -0.728957,4.29473 0.392025,6.3543 0.519141,1.298272 -0.04183,3.547493 2.019484,2.398912 2.170327,-0.697822 3.034242,-2.81338 3.303745,-4.660703 2.404483,-1.245821 0.334374,-3.764844 1.648817,-5.565963 0.482277,-1.219432 3.232124,-3.711035 1.291494,-4.464067 -0.325341,-0.255653 4.044923,-3.097003 1.361609,-3.714221 -1.3198,0.245592 -1.652501,-2.735257 -0.146947,-1.195936 0.742332,0.665123 2.492187,0.948358 1.62009,-0.598838 C 42.901651,16.081872 40.616399,11.951096 37.240234,9.0136719 37.343075,10.830808 34.17234,9.2050305 36.38571,8.7697771 35.691676,8.2490636 34.624816,8.3898949 33.851562,7.9726562 Z M 12.005859,8.0019532 C 11.111151,9.8617691 9.1073361,10.512473 7.8050313,12.256642 5.3814983,15.651767 3.9582896,19.796291 4,23.982422 c 1.6498974,1.700852 4.1715082,2.135576 5.9380513,3.678947 0.8428277,1.826188 -2.0674158,3.887793 -0.1189975,5.747834 1.6698472,1.686759 2.5262662,3.765073 2.7589092,6.094099 0.416647,2.463432 3.904323,3.083577 4.80121,0.600385 0.223618,-1.721093 0.908018,-2.981873 2.412398,-3.91095 -0.08344,-1.589184 0.762934,-2.980256 1.102626,-4.496792 C 19.091302,30.34882 16.610591,29.568326 15.144612,27.548472 13.468929,26.867583 11.840219,26.054089 10.151985,26.821318 8.4708451,26.989269 9.0545756,24.949107 7.9663212,24.737035 8.1283211,23.676819 7.9111859,22.6362 6.8259797,23.78113 4.6531615,24.167597 5.7639655,20.496287 7.4622881,20.559218 c 1.122847,-1.214926 2.7902719,1.761625 2.5900369,-0.243485 1.071837,-1.39536 2.022011,-3.162036 3.786565,-3.656924 0.897796,-0.263758 3.008712,-1.781408 0.869927,-1.673838 -0.81747,-0.656386 3.201934,-0.341941 2.633525,-2.080126 -0.617061,-0.746532 -0.712819,-1.694751 -1.855547,-1.860651 -1.047389,-1.7992223 -1.925877,1.244108 -2.648222,1.748479 C 12.187114,13.7923 11.81316,12.268885 10.971043,12.080788 9.7811844,10.12073 14.135678,10.412738 13.081466,8.2097525 12.795572,7.9449882 12.363357,7.9719988 12.005859,8.0019532 Z M 26.691606,8.9116406 C 25.208181,8.5294778 24.850529,10.570803 26.474758,9.7773472 26.931062,9.6790297 27.33929,9.156311 26.691606,8.9116406 Z M 15.990234,9.2851563 c -1.371667,1.0758107 2.135085,0.6964651 0.100929,0.01965 l -1.11e-4,-2.15e-5 z m 12.208985,2.0117187 c 0.156544,0.887555 0.380191,3.859398 1.373237,1.786151 -0.103716,-0.787614 -0.749278,-1.367893 -1.373237,-1.786151 z m -0.306641,1.048828 c -1.864859,0.62595 1.308894,1.597817 0,0 z m -10.664062,1.576172 c -0.305377,1.533971 1.404564,0.849159 0,0 z m 20.177734,6.818359 c 1.059072,1.458645 2.878475,3.594376 2.200115,5.316492 -0.878149,-1.432735 -1.660629,-3.022831 -2.426867,-4.543752 -0.05368,-0.276634 0.03016,-0.573867 0.226752,-0.77274 z"
     id="path2"
     inkscape:path-effect="#path-effect8"
     inkscape:original-d="m 24.103516,5 c -1.520959,0.3770258 -5.210952,0.075231 -5.049646,1.9006038 1.153836,0.6930993 1.047354,2.0811583 0.157619,2.4597045 0.41832,1.8085137 2.26834,1.4253777 2.975412,0.059332 C 23.703479,8.9314972 27.350047,7.1250161 25.227154,5.4112939 24.854203,5.2713257 24.443781,5.2197205 24.103516,5 Z M 18.619141,5.1757812 C 17.814439,5.534265 15.58088,5.6469815 15.801197,6.6894928 16.718423,6.3474264 18.701055,6.6052684 18.619141,5.1757812 Z m -4.560547,2.0976563 c 0.207333,0.7953817 -1.715719,3.5594165 0.01813,1.8952538 1.089317,-1.7873475 3.258979,1.1806607 3.720069,-0.2665565 -0.779496,-1.2870201 -2.69954,-1.6760114 -3.664987,-1.1999275 l -0.04425,-0.1761406 z m 19.792968,0.6992187 c -1.591855,0.074453 -4.11031,2.0763478 -3.442563,3.3958808 1.582768,0.951507 2.316853,0.163727 2.445847,-1.4378684 0.454732,-1.2189537 1.118747,-0.6712481 0.705012,0.3617374 1.618552,0.977151 -0.997995,2.869117 -2.249377,2.267888 -0.561349,-0.658771 -1.053996,1.361418 -2.137413,1.393264 -1.073004,0.760692 -0.602306,1.964328 -2.072233,2.525918 -0.942871,1.839194 2.058272,2.074932 2.408848,0.304769 1.001191,-1.793424 2.473762,-0.408319 3.193336,0.701841 0.416173,-0.839602 -0.276945,-2.159637 0.673719,-0.630734 0.499249,0.869909 0.793568,1.064636 1.281096,0.263714 0.838081,0.53825 2.460819,1.187721 2.691447,1.734276 -0.870312,1.544261 -3.394606,0.245484 -4.552796,0.558106 -1.470886,-1.620097 -4.163669,-1.626984 -5.584205,0.05992 -1.491429,1.453091 -2.593953,3.452354 -2.444723,5.530729 0.14923,2.078375 2.243487,4.403523 4.627967,3.032897 2.543161,-0.33292 2.196673,2.31213 2.814096,3.888695 0.298854,2.136866 -0.728957,4.29473 0.392025,6.3543 0.519141,1.298272 -0.04183,3.547493 2.019484,2.398912 2.170327,-0.697822 3.034242,-2.81338 3.303745,-4.660703 2.404483,-1.245821 0.334374,-3.764844 1.648817,-5.565963 0.482277,-1.219432 3.232124,-3.711035 1.291494,-4.464067 -0.325341,-0.255653 4.044923,-3.097003 1.361609,-3.714221 -1.3198,0.245592 -1.652501,-2.735257 -0.146947,-1.195936 0.742332,0.665123 2.492187,0.948358 1.62009,-0.598838 C 42.901651,16.081872 40.616399,11.951096 37.240234,9.0136719 37.343075,10.830808 34.17234,9.2050305 36.38571,8.7697771 35.691676,8.2490636 34.624816,8.3898949 33.851562,7.9726562 Z M 12.005859,8.0019532 C 11.111151,9.8617691 9.1073361,10.512473 7.8050313,12.256642 5.3814983,15.651767 3.9582896,19.796291 4,23.982422 c 1.6498974,1.700852 4.1715082,2.135576 5.9380513,3.678947 0.8428277,1.826188 -2.0674158,3.887793 -0.1189975,5.747834 1.6698472,1.686759 2.5262662,3.765073 2.7589092,6.094099 0.416647,2.463432 3.904323,3.083577 4.80121,0.600385 0.223618,-1.721093 0.908018,-2.981873 2.412398,-3.91095 -0.08344,-1.589184 0.762934,-2.980256 1.102626,-4.496792 C 19.091302,30.34882 16.610591,29.568326 15.144612,27.548472 13.468929,26.867583 11.840219,26.054089 10.151985,26.821318 8.4708451,26.989269 9.0545756,24.949107 7.9663212,24.737035 8.1283211,23.676819 7.9111859,22.6362 6.8259797,23.78113 4.6531615,24.167597 5.7639655,20.496287 7.4622881,20.559218 c 1.122847,-1.214926 2.7902719,1.761625 2.5900369,-0.243485 1.071837,-1.39536 2.022011,-3.162036 3.786565,-3.656924 0.897796,-0.263758 3.008712,-1.781408 0.869927,-1.673838 -0.81747,-0.656386 3.201934,-0.341941 2.633525,-2.080126 -0.617061,-0.746532 -0.712819,-1.694751 -1.855547,-1.860651 -1.047389,-1.7992223 -1.925877,1.244108 -2.648222,1.748479 C 12.187114,13.7923 11.81316,12.268885 10.971043,12.080788 9.7811844,10.12073 14.135678,10.412738 13.081466,8.2097525 12.795572,7.9449882 12.363357,7.9719988 12.005859,8.0019532 Z M 26.691606,8.9116406 C 25.208181,8.5294778 24.850529,10.570803 26.474758,9.7773472 26.931062,9.6790297 27.33929,9.156311 26.691606,8.9116406 Z M 15.990234,9.2851563 c -1.371667,1.0758107 2.135085,0.6964651 0.100929,0.01965 l -1.11e-4,-2.15e-5 z m 12.208985,2.0117187 c 0.156544,0.887555 0.380191,3.859398 1.373237,1.786151 -0.103716,-0.787614 -0.749278,-1.367893 -1.373237,-1.786151 z m -0.306641,1.048828 c -1.864859,0.62595 1.308894,1.597817 0,0 z m -10.664062,1.576172 c -0.305377,1.533971 1.404564,0.849159 0,0 z m 20.177734,6.818359 c 1.059072,1.458645 2.878475,3.594376 2.200115,5.316492 -0.878149,-1.432735 -1.660629,-3.022831 -2.426867,-4.543752 -0.05368,-0.276634 0.03016,-0.573867 0.226752,-0.77274 z"
     transform="matrix(1.4,0,0,1.4,-1.5999997,-1.5999989)"
     sodipodi:nodetypes="ccccccccccccccccccccccccccccczcccccccccccccccccccccccccccccccccccccccccccccccccccccc" />
  <path
     style="fill:url(#radialGradient2)"
     d="m 23.814349,31.97072 c -0.274322,0.0064 -0.537362,0.107744 -0.742072,0.285862 L 5.3880633,46.245023 c -0.7340374,0.637738 -0.3679805,1.820863 0.6053755,1.956623 l 6.8572012,0.963047 -3.21379,5.536833 c -0.7181892,1.237521 -0.2926358,2.810217 0.951304,3.524698 l 0.689068,0.396876 c 1.243939,0.714484 2.82479,0.291127 3.542979,-0.946394 l 3.33654,-5.750534 4.890427,3.943778 c 0.752882,0.609242 1.893298,0.08793 1.894239,-0.865911 l 0.05859,-21.903749 c 0.0018,-0.634897 -0.534555,-1.145902 -1.185648,-1.12957 z"
     id="path4" />
  <path
     d="m 31.931641,3.8867188 c -6.315371,0 -12.095975,2.1092137 -16.777344,5.6015625 -0.0069,5.755e-4 -0.01468,0.00138 -0.02148,0.00195 a 0.10001,0.10001 0 0 0 -0.08203,0.056641 c -0.004,0.00836 -0.01157,0.01316 -0.01563,0.021484 -1.950412,1.4706006 -3.656208,3.2141386 -5.1562497,5.1386716 -0.1745547,0.184352 -0.3390425,0.385925 -0.5019532,0.589844 -0.069648,0.05628 -0.1409091,0.109406 -0.1992187,0.1875 a 0.10001,0.10001 0 0 0 -0.00195,0.002 c -0.076613,0.107327 -0.1357868,0.225937 -0.1992188,0.341797 -0.9415942,1.357164 -1.771444,2.794152 -2.4726563,4.292969 -0.03862,0.0714 -0.081285,0.140595 -0.1152343,0.214843 -0.7213053,1.585828 -1.3363364,3.229911 -1.7558594,4.958985 a 0.10042938,0.10042938 0 0 0 0.021484,0.0332 c -0.5351288,2.153529 -0.8134749,4.36843 -0.7949219,6.59375 a 0.10001,0.10001 0 0 0 -0.027344,0.04102 c -6.4e-6,0.008 -1e-7,0.01563 0,0.02344 0,4.636666 1.120711,9.00021 3.0937499,12.847656 l -1.6679687,1.320313 a 0.10001,0.10001 0 0 0 -0.00391,0.002 c -0.3963134,0.344321 -0.4993292,0.844895 -0.3671875,1.271484 0.1321418,0.426592 0.5011023,0.786249 1.0253907,0.859375 l 3.4589844,0.484375 c 0.6443662,0.866008 1.3404842,1.690448 2.0781252,2.47461 l -1.9667971,3.390625 c -0.7452616,1.284168 -0.3040491,2.920955 0.9863281,3.662109 l 0.689453,0.396484 c 1.290421,0.741183 2.934481,0.303604 3.679688,-0.980468 L 16.230469,55.3125 c 0.224273,0.149733 0.450629,0.296191 0.677734,0.439453 0.0059,0.0037 0.01164,0.008 0.01758,0.01172 a 0.10001,0.10001 0 0 0 0.04492,0.002 c 0.419018,0.396923 0.918414,0.690117 1.453125,0.861328 a 0.10001,0.10001 0 0 0 0.01172,0.0332 c 0.0061,0.0033 0.01342,0.0045 0.01953,0.0078 3.996972,2.179119 8.586784,3.417968 13.476563,3.417968 15.565592,0 28.099609,-12.534015 28.099609,-28.099609 0,-1.209415 -0.08376,-2.396954 -0.230469,-3.564453 0.03612,-0.05068 0.06684,-0.106776 0.08594,-0.171875 0.08268,-0.281904 -0.0026,-0.675646 -0.306641,-1.21875 -0.03794,-0.20848 -0.08427,-0.415469 -0.126953,-0.623047 a 0.10001,0.10001 0 0 0 0.01953,-0.04687 c -0.0072,-0.03531 -0.01451,-0.06957 -0.02148,-0.103516 v -0.002 a 0.10001,0.10001 0 0 0 -0.0332,-0.02148 c -0.06216,-0.292885 -0.129674,-0.584214 -0.201172,-0.875 a 0.10042938,0.10042938 0 0 0 0.01563,-0.05273 c -0.04273,-0.176431 -0.08431,-0.354233 -0.13086,-0.53125 h -0.002 a 0.10001,0.10001 0 0 0 -0.0332,-0.01953 c -0.0071,-0.02626 -0.01629,-0.05188 -0.02344,-0.07813 a 0.10001,0.10001 0 0 0 0.01172,-0.0625 v -0.002 c -0.285446,-1.038926 -0.652817,-2.052169 -1.05664,-3.050781 -0.0335,-0.08352 -0.06727,-0.166803 -0.101563,-0.25 -0.09576,-0.230904 -0.178011,-0.466662 -0.279297,-0.695313 -0.04414,-0.100061 -0.09921,-0.192969 -0.146484,-0.291015 -0.01259,-0.02756 -0.02638,-0.05451 -0.03906,-0.08203 -0.527899,-1.145932 -1.133478,-2.255035 -1.808594,-3.320313 -0.02168,-0.03473 -0.04042,-0.07095 -0.0625,-0.105469 -0.02995,-0.04671 -0.06321,-0.09053 -0.09375,-0.136718 -1.263742,-1.949601 -2.768611,-3.740226 -4.486328,-5.308594 -0.142684,-0.153794 -0.286789,-0.305438 -0.445313,-0.443359 a 0.10001,0.10001 0 0 0 -0.105469,-0.01367 C 45.488088,6.5743862 39.056608,3.8867188 31.931641,3.8867188 Z m 0,0.1992187 c 7.090366,0 13.486666,2.6813112 18.396484,7.0078125 -0.0059,0.509802 -0.171763,0.813184 -0.457031,0.923828 -0.310655,0.120489 -0.734046,0.06452 -1.066407,-0.08984 -0.166179,-0.07718 -0.309953,-0.178121 -0.404296,-0.283203 -0.09434,-0.105082 -0.136778,-0.210872 -0.128907,-0.304687 0.0079,-0.09381 0.0639,-0.194225 0.222657,-0.298828 0.158749,-0.104603 0.417538,-0.204702 0.796875,-0.279297 a 0.10001,0.10001 0 0 0 0.04102,-0.177735 C 48.823069,10.202124 48.188661,10.068171 47.556641,9.953125 46.924618,9.8380794 46.291703,9.7416408 45.771484,9.4609375 a 0.10001,0.10001 0 0 0 -0.05078,-0.011719 c -1.15361,0.053956 -2.601808,0.7899482 -3.660156,1.7480472 -0.529175,0.479048 -0.961036,1.014337 -1.203125,1.55664 -0.242089,0.542306 -0.292715,1.100229 -0.04297,1.59375 a 0.10001,0.10001 0 0 0 0.03906,0.04102 c 0.562114,0.337925 1.052009,0.524998 1.482421,0.576172 0.430413,0.05117 0.802787,-0.03686 1.101563,-0.246094 0.592016,-0.414596 0.889941,-1.275036 0.984375,-2.394531 0.155507,-0.416853 0.329076,-0.674921 0.476562,-0.802735 0.07374,-0.06391 0.138909,-0.09454 0.191407,-0.103515 0.0525,-0.009 0.0927,-0.0013 0.132812,0.02539 0.08022,0.05333 0.159258,0.199793 0.173828,0.429688 0.01457,0.229895 -0.03359,0.536594 -0.173828,0.886719 a 0.10001,0.10001 0 0 0 0.04297,0.123047 c 0.544062,0.32846 0.709757,0.704063 0.662109,1.09375 -0.04765,0.389686 -0.330348,0.806683 -0.74414,1.160156 -0.413795,0.35347 -0.955231,0.642098 -1.494141,0.789062 -0.536502,0.146308 -1.06803,0.150059 -1.474609,-0.04297 -0.101891,-0.109865 -0.212196,-0.180208 -0.330078,-0.19336 -0.127973,-0.01428 -0.249986,0.03116 -0.361329,0.107422 -0.222685,0.152529 -0.428059,0.427763 -0.658203,0.726562 -0.230141,0.2988 -0.481611,0.622984 -0.761718,0.871094 -0.28011,0.24811 -0.585221,0.417496 -0.933594,0.427735 a 0.10001,0.10001 0 0 0 -0.05469,0.01758 c -0.777019,0.550857 -0.99818,1.268368 -1.27539,1.914062 -0.277212,0.645697 -0.598182,1.226032 -1.601563,1.609375 a 0.10001,0.10001 0 0 0 -0.05469,0.04883 c -0.340222,0.663649 -0.332337,1.209076 -0.0957,1.597657 0.236628,0.388579 0.685728,0.606548 1.18164,0.65625 0.495915,0.0497 1.045313,-0.0655 1.507813,-0.355469 0.454944,-0.285236 0.821235,-0.74657 0.955078,-1.376953 l 0.002,-0.002 c 0.342267,-0.612154 0.714554,-0.939615 1.091797,-1.076172 0.377767,-0.136749 0.768351,-0.08733 1.160156,0.08789 0.783612,0.35045 1.547834,1.211609 2.044922,1.978516 a 0.10001,0.10001 0 0 0 0.173828,-0.0098 c 0.308621,-0.62262 0.20353,-1.393537 0.199219,-1.720703 0.09511,0.11081 0.262774,0.351104 0.570312,0.845703 0.350632,0.610504 0.621513,1.007407 0.958985,1.105469 0.169224,0.04917 0.349419,0.003 0.511718,-0.123047 0.142251,-0.110449 0.284351,-0.304754 0.433594,-0.537109 0.592383,0.371028 1.404975,0.76797 2.128906,1.167969 0.375653,0.207559 0.723791,0.415318 0.994141,0.615234 0.246441,0.182236 0.399794,0.35515 0.480469,0.505859 -0.289601,0.476164 -0.682735,0.75525 -1.169922,0.884766 -0.508464,0.135173 -1.102982,0.126738 -1.716797,0.0625 -1.204208,-0.126025 -2.449297,-0.454499 -3.310547,-0.248047 -2.10639,-2.279874 -5.912461,-2.28647 -7.93164,0.111328 -2.099638,2.048539 -3.658802,4.868318 -3.447266,7.814453 0.106664,1.485543 0.901995,3.046477 2.103516,4.003907 1.194989,0.952227 2.808805,1.292351 4.5,0.333984 0.867865,-0.111863 1.472272,0.02678 1.916015,0.326172 0.445528,0.300588 0.735558,0.769289 0.947266,1.330078 0.420756,1.114539 0.518763,2.578665 0.953125,3.703125 0.206379,1.475651 -0.04647,2.970714 -0.158203,4.466797 -0.111478,1.492609 -0.07955,2.990521 0.71289,4.453125 0.351392,0.878759 0.337573,2.115089 0.601563,2.957031 0.131995,0.420972 0.34871,0.759785 0.734375,0.869141 0.384253,0.108956 0.899319,-0.01179 1.626953,-0.416016 0.149421,-0.04841 0.282311,-0.113145 0.410156,-0.183594 0.02946,-0.01199 0.06076,-0.02278 0.08984,-0.03516 -4.415385,2.933708 -9.690179,4.681641 -15.412109,4.681641 -4.579198,0 -8.860754,-1.148898 -12.664063,-3.089844 1.132267,0.09397 2.281138,-0.336053 3.005859,-1.380859 l 0.642579,0.519531 c 0.101626,0.08224 0.210478,0.146039 0.322265,0.191406 0.111788,0.04537 0.226377,0.0725 0.341797,0.08398 0.11542,0.01148 0.231225,0.0058 0.34375,-0.01367 0.112525,-0.01942 0.221118,-0.05227 0.324219,-0.09961 0.206203,-0.09469 0.388237,-0.243173 0.517578,-0.43164 0.06467,-0.09423 0.116681,-0.197343 0.152344,-0.310547 0.03566,-0.113205 0.05456,-0.236043 0.05469,-0.365235 l 0.01367,-5.011718 c 0.329981,-0.296873 0.688462,-0.578402 1.105469,-0.835938 a 0.10001,0.10001 0 0 0 0.04687,-0.0918 c -0.114796,-2.186398 1.0625,-4.122555 1.542969,-6.267578 a 0.10001,0.10001 0 0 0 -0.03711,-0.101562 C 26.835956,42.077471 25.928259,41.55211 25.009766,41.03125 l 0.02148,-7.945313 c 0.002,-0.691354 -0.582438,-1.246191 -1.287109,-1.228515 -0.141259,0.0033 -0.279731,0.03223 -0.410157,0.08008 -0.01201,0.0044 -0.02329,0.0089 -0.03516,0.01367 -0.129708,0.052 -0.250948,0.12286 -0.357422,0.214844 h -0.002 l -0.002,0.002 -5.066406,4.009765 C 16.111811,35.494265 14.341013,35.019172 12.523438,35.835937 11.961874,35.88962 11.608785,35.76452 11.353516,35.544922 11.096452,35.323635 10.935238,34.996663 10.796875,34.640625 10.658512,34.284587 10.54403,33.902311 10.361328,33.582031 10.194834,33.290166 9.931982,33.080227 9.5800781,32.978516 9.6852506,32.24749 9.6886091,31.524406 9.4238281,31.134766 9.2875154,30.934172 9.0552154,30.833854 8.7851563,30.908203 8.5264685,30.979421 8.2213961,31.206683 7.8574219,31.582031 7.1329693,31.706614 6.7179498,31.505018 6.4960937,31.138672 6.2725015,30.769459 6.2498223,30.205488 6.3984375,29.619141 6.5470527,29.032791 6.8621792,28.428937 7.28125,27.982422 7.7003208,27.535905 8.2173327,27.248853 8.7753906,27.269531 a 0.10001,0.10001 0 0 0 0.078125,-0.03125 c 0.3708135,-0.40122 0.7579338,-0.449402 1.1699224,-0.347656 0.411985,0.101746 0.836863,0.368571 1.208984,0.607422 0.18606,0.119425 0.359757,0.231686 0.517578,0.3125 0.157821,0.08081 0.299647,0.136611 0.441406,0.115234 0.07088,-0.01069 0.140497,-0.04518 0.191407,-0.101562 0.05091,-0.05638 0.0847,-0.131015 0.107421,-0.220703 0.04285,-0.169118 0.04301,-0.415551 0.01367,-0.740235 1.500073,-1.958846 2.820907,-4.382806 5.230469,-5.058594 0.657898,-0.19328 1.706188,-0.813977 2.248047,-1.394531 0.135465,-0.145138 0.240438,-0.287222 0.296875,-0.429687 0.05644,-0.142465 0.06013,-0.296515 -0.02344,-0.419922 -0.08357,-0.123407 -0.234169,-0.202597 -0.451172,-0.25 -0.204582,-0.04469 -0.487689,-0.05718 -0.835937,-0.04297 -0.04603,-0.04103 -0.08202,-0.08015 -0.0918,-0.101562 -0.01165,-0.02553 -0.01016,-0.0274 -0.002,-0.04297 0.01652,-0.03114 0.117555,-0.103764 0.287109,-0.164063 0.339113,-0.120597 0.913207,-0.229057 1.5,-0.384765 0.586796,-0.155709 1.189928,-0.35702 1.609375,-0.689453 0.41945,-0.332436 0.645035,-0.822281 0.435547,-1.462891 a 0.10001,0.10001 0 0 0 -0.01953,-0.0332 c -0.420253,-0.508496 -0.667645,-1.095706 -1.017578,-1.599609 -0.342036,-0.492532 -0.805736,-0.893225 -1.597656,-1.023438 -0.178996,-0.298518 -0.356827,-0.517553 -0.541016,-0.646484 -0.193259,-0.135283 -0.396108,-0.180822 -0.589844,-0.148438 -0.387468,0.06477 -0.719276,0.405242 -1.033203,0.832031 -0.313926,0.426792 -0.607613,0.950789 -0.886719,1.408204 C 16.74238,15.66835 16.471902,16.059903 16.25,16.214844 a 0.10001,0.10001 0 0 0 -0.02734,0.02734 c -0.219269,0.336456 -0.389681,0.431422 -0.539062,0.425782 -0.149382,-0.0056 -0.322716,-0.12589 -0.513672,-0.316407 -0.371438,-0.37058 -0.79246,-0.969992 -1.40625,-1.134765 C 13.57613,14.899063 13.496131,14.632388 13.5,14.40625 c 0.004,-0.233616 0.08947,-0.43036 0.236328,-0.615234 0.293717,-0.369754 0.843839,-0.673029 1.410156,-0.986328 0.56632,-0.313302 1.1491,-0.639117 1.50586,-1.101563 0.356757,-0.462446 0.46416,-1.070792 0.08398,-1.8652344 a 0.10001,0.10001 0 0 0 -0.02148,-0.03125 C 16.388914,9.5047999 15.947338,9.4590433 15.541016,9.46875 20.143311,6.1175455 25.776198,4.0859375 31.931641,4.0859375 Z m 0.121093,1.203125 c -1.040279,0.2578716 -2.870211,0.2864092 -4.412109,0.5683594 -0.770949,0.140975 -1.47222,0.3456661 -1.978516,0.6875 -0.506293,0.3418336 -0.813283,0.8397897 -0.753906,1.5117187 a 0.10001,0.10001 0 0 0 0.04883,0.076172 c 0.781259,0.4692957 1.126278,1.1647619 1.134766,1.8027344 0.0085,0.6379721 -0.318723,1.2145831 -0.902344,1.4628911 a 0.10001,0.10001 0 0 0 -0.05859,0.115234 c 0.150231,0.649488 0.43217,1.111874 0.792969,1.404297 0.360799,0.29242 0.798491,0.410525 1.242188,0.380859 0.872819,-0.05836 1.76696,-0.681751 2.28125,-1.638672 1.075849,-0.348854 2.868405,-1.144096 4.050781,-2.1718747 0.594679,-0.5169254 1.038778,-1.0948475 1.138672,-1.7167969 0.09989,-0.6219494 -0.16325,-1.272735 -0.923828,-1.8867188 a 0.10001,0.10001 0 0 0 -0.02734,-0.015625 C 33.148376,5.6675448 32.582407,5.5943136 32.130859,5.3027344 a 0.10001,0.10001 0 0 0 -0.07813,-0.013672 z m 0.01563,0.1992187 c 0.48481,0.2961689 1.039652,0.3809585 1.527344,0.5605469 0.716953,0.5825663 0.931388,1.14576 0.84375,1.6914063 -0.08807,0.5483153 -0.496391,1.0951249 -1.072266,1.5957031 -1.151747,1.0011565 -2.956245,1.8047365 -4.005859,2.1425785 a 0.10001,0.10001 0 0 0 -0.05664,0.04883 c -0.480341,0.928008 -1.351594,1.518727 -2.152343,1.572265 -0.400376,0.02677 -0.781368,-0.07642 -1.101563,-0.335937 -0.309644,-0.250964 -0.555779,-0.670289 -0.701172,-1.253906 0.596243,-0.304157 0.950326,-0.907772 0.941407,-1.5781254 -0.0091,-0.6863641 -0.393008,-1.4132116 -1.173829,-1.9140625 -0.04384,-0.5911951 0.197955,-0.9972132 0.65625,-1.3066406 0.465141,-0.3140484 1.146101,-0.517606 1.904297,-0.65625 1.505685,-0.2753291 3.299094,-0.3017806 4.390625,-0.5664063 z m -7.710937,0.052734 c -0.535429,0.2385262 -1.6044,0.4089391 -2.5,0.6972656 -0.447801,0.1441634 -0.85495,0.3170994 -1.140625,0.5605469 -0.285675,0.2434477 -0.445582,0.5759313 -0.361328,0.9746094 a 0.10001,0.10001 0 0 0 0.132812,0.072266 C 21.100519,7.6173766 22.119457,7.5835748 22.976562,7.359375 23.405116,7.2472751 23.796554,7.0862461 24.080078,6.8125 24.363602,6.5387539 24.528025,6.1501034 24.498047,5.6269531 A 0.10001,0.10001 0 0 0 24.357422,5.5410156 Z M 24.25,5.7773437 c -0.01434,0.3767569 -0.0968,0.6861359 -0.308594,0.890625 -0.244827,0.2363841 -0.60403,0.3903832 -1.015625,0.4980469 -0.766184,0.2004168 -1.667185,0.252891 -2.333984,0.4589844 -0.0177,-0.2649553 0.03861,-0.490359 0.253906,-0.6738281 0.249126,-0.212301 0.636006,-0.38299 1.072266,-0.5234375 C 22.724937,6.1679415 23.6419,6.0077236 24.25,5.7773437 Z m -6.253906,2.6953126 a 0.10001,0.10001 0 0 0 -0.08203,0.109375 l 0.002,0.013672 v 0.00195 c 0.05886,0.2285361 -0.03956,0.6738482 -0.210938,1.1503906 -0.171658,0.4773241 -0.404379,0.9918281 -0.572266,1.4023441 -0.08394,0.205255 -0.152848,0.383263 -0.189453,0.52539 -0.0183,0.07106 -0.02899,0.13287 -0.02734,0.191407 0.0016,0.05854 0.02242,0.131235 0.08789,0.167968 0.06547,0.03673 0.130992,0.02128 0.19336,-0.0039 0.06237,-0.0252 0.131532,-0.06679 0.214843,-0.126953 0.166624,-0.120332 0.390234,-0.316558 0.695313,-0.609375 a 0.10001,0.10001 0 0 0 0.01758,-0.01953 c 0.367179,-0.602466 0.798045,-0.786939 1.279297,-0.78125 0.48125,0.0057 1.014551,0.21991 1.527344,0.455078 0.51279,0.235168 1.00082,0.490498 1.427734,0.560547 0.213457,0.03502 0.41795,0.02203 0.591797,-0.07813 0.173847,-0.100152 0.306943,-0.282 0.392578,-0.550782 a 0.10001,0.10001 0 0 0 -0.0098,-0.08398 C 22.771787,9.8686621 21.803278,9.2717758 20.806641,8.9882813 19.85556,8.7177454 18.901132,8.7706924 18.197266,9.0761719 L 18.152344,8.90625 18.113281,8.5585938 h -0.0039 c -8.68e-4,-0.00354 0.0029,-0.010156 0.002,-0.013672 a 0.10001,0.10001 0 0 0 -0.115234,-0.072266 z m 1.341797,0.5253906 c 0.447384,-0.014478 0.935034,0.04538 1.414062,0.1816406 0.940038,0.2673947 1.837542,0.8354895 2.371094,1.6816405 -0.07319,0.19609 -0.161552,0.333154 -0.271485,0.396485 -0.121828,0.07018 -0.272984,0.08521 -0.458984,0.05469 -0.372,-0.06104 -0.858823,-0.307305 -1.376953,-0.544922 -0.51813,-0.237617 -1.071836,-0.468255 -1.609375,-0.474609 -0.530189,-0.0063 -1.042265,0.228755 -1.435547,0.857422 -0.301766,0.289635 -0.523888,0.482102 -0.675781,0.591797 -0.07595,0.05485 -0.135198,0.08869 -0.171875,0.103515 -0.0097,0.0039 -5.05e-4,0.0027 -0.0059,0.0039 5.25e-4,-0.02669 0.0051,-0.06697 0.01953,-0.123046 0.03164,-0.122853 0.09891,-0.297698 0.18164,-0.5 0.165471,-0.404606 0.398573,-0.921742 0.574219,-1.4101567 0.09228,-0.2566066 0.07344,-0.4435848 0.115234,-0.6679688 l 0.01172,0.046875 a 0.10001,0.10001 0 0 0 0.142578,0.064453 C 18.48338,9.1013401 18.890505,9.012525 19.337891,8.9980469 Z m 26.386718,0.6523437 c 0.552491,0.2855155 1.18503,0.3886264 1.796875,0.5000004 0.542094,0.09868 1.029044,0.259548 1.458985,0.511718 -0.224144,0.06455 -0.463672,0.125893 -0.595703,0.212891 -0.192113,0.126585 -0.298611,0.283678 -0.3125,0.449219 -0.01389,0.16554 0.06139,0.321368 0.179687,0.453125 0.118293,0.131757 0.282605,0.243622 0.46875,0.330078 0.37229,0.172911 0.838151,0.246786 1.222656,0.09766 0.320301,-0.12423 0.522392,-0.461457 0.574219,-0.939453 0.225492,0.202407 0.451193,0.403691 0.669922,0.613281 0.562724,0.533812 1.117338,1.075738 1.630859,1.65625 0.470171,0.53262 0.895414,1.10204 1.324219,1.669922 0.429974,0.570676 0.873021,1.130067 1.257813,1.732422 0.378905,0.591639 0.694972,1.2244 1.029296,1.845703 0.342264,0.636692 0.713137,1.258847 1.00586,1.919922 0.547371,1.241536 1.024332,2.521774 1.388672,3.851562 0.0105,0.03832 0.02872,0.07294 0.03906,0.111329 v 0.002 a 0.10001,0.10001 0 0 0 0.03516,0.02148 c 0.0093,0.03398 0.02012,0.06755 0.0293,0.101563 a 0.10001,0.10001 0 0 0 -0.02148,0.03516 c 0.04571,0.173819 0.08797,0.350239 0.130859,0.527344 a 0.10042938,0.10042938 0 0 0 0.04102,0.04297 c 0.07093,0.288164 0.137548,0.576928 0.199219,0.867188 a 0.10001,0.10001 0 0 0 -0.02148,0.0332 v 0.002 c 0.0072,0.03402 0.01429,0.06683 0.02148,0.101563 a 0.10001,0.10001 0 0 0 0.03516,0.03516 c 0.04338,0.210736 0.09046,0.421129 0.128906,0.632812 a 0.07143564,0.07143564 0 0 0 0.0078,0.02148 c 0.300673,0.533429 0.365781,0.899495 0.300781,1.121093 -0.01519,0.05178 -0.03821,0.09516 -0.06641,0.134766 a 0.10001,0.10001 0 0 0 -0.05664,0.01563 c -0.172798,0.186575 -0.574872,0.221985 -1.03125,0.111328 -0.454162,-0.11012 -0.946882,-0.354449 -1.279297,-0.65039 l -0.0039,-0.002 -0.002,-0.002 c -0.265752,-0.270808 -0.494448,-0.44924 -0.69336,-0.548828 -0.20049,-0.100378 -0.379201,-0.124346 -0.52539,-0.07031 -0.146189,0.05403 -0.241592,0.183468 -0.291016,0.335937 -0.04942,0.15247 -0.05925,0.334163 -0.03711,0.527344 0.04429,0.386361 0.21506,0.822496 0.501953,1.150391 0.279833,0.319824 0.683838,0.528888 1.166016,0.453125 0.455723,0.105417 0.752604,0.255374 0.925781,0.427734 0.173799,0.17298 0.232162,0.365065 0.214844,0.591797 -0.03464,0.453461 -0.417597,1.0375 -0.914063,1.605469 -0.496464,0.567966 -1.098402,1.124134 -1.550781,1.5625 -0.22619,0.21918 -0.414485,0.408024 -0.53711,0.560546 -0.06131,0.07626 -0.106765,0.141345 -0.132812,0.208985 -0.01302,0.03382 -0.02187,0.07051 -0.01758,0.111328 0.0043,0.04082 0.02678,0.08479 0.06055,0.111328 a 0.10001,0.10001 0 0 0 0.02539,0.01563 c 0.654452,0.25395 0.886663,0.622376 0.896485,1.089844 0.0098,0.467465 -0.228321,1.044492 -0.578125,1.646484 -0.349807,0.601994 -0.80858,1.229987 -1.222657,1.814453 -0.408342,0.576378 -0.767976,1.104337 -0.947265,1.546875 -0.947921,1.298892 -0.67477,2.844181 -0.601563,4.25 0.0366,0.702912 0.02307,1.373436 -0.199218,1.966797 -0.22229,0.593364 -0.650467,1.117915 -1.47461,1.544922 a 0.10001,0.10001 0 0 0 -0.05273,0.07422 c -0.374471,2.566827 -1.566917,5.482079 -4.556641,6.443359 a 0.10001,0.10001 0 0 0 -0.01758,0.0078 c -0.711024,0.396187 -1.179242,0.485804 -1.480469,0.40039 -0.301224,-0.08541 -0.474687,-0.344141 -0.597656,-0.736328 -0.245939,-0.784371 -0.230065,-2.031892 -0.605469,-2.970703 a 0.10001,0.10001 0 0 0 -0.0059,-0.0098 c -0.771536,-1.417536 -0.804149,-2.870114 -0.693359,-4.353515 0.11079,-1.483404 0.368263,-2.99382 0.15625,-4.509766 a 0.10001,0.10001 0 0 0 -0.0059,-0.02344 C 43.096583,41.962984 43.000653,40.486107 42.560547,39.320312 42.340493,38.737416 42.030909,38.228323 41.539062,37.896484 41.047218,37.564648 40.379371,37.41646 39.472656,37.535156 a 0.10001,0.10001 0 0 0 -0.03711,0.01367 c -1.636863,0.941138 -3.148871,0.613212 -4.300781,-0.304687 -1.151912,-0.9179 -1.92704,-2.439115 -2.029297,-3.863282 C 32.899398,30.510841 34.427183,27.738285 36.5,25.71875 a 0.10001,0.10001 0 0 0 0.0059,-0.0078 c 1.948562,-2.313939 5.647507,-2.305308 7.666016,-0.08203 a 0.10001,0.10001 0 0 0 0.09961,0.0293 c 0.759439,-0.20499 2.052842,0.12896 3.302735,0.259766 0.624945,0.0654 1.243297,0.07725 1.791015,-0.06836 0.547721,-0.145606 1.026046,-0.4558 1.34375,-1.019531 a 0.10001,0.10001 0 0 0 0.0039,-0.08789 c -0.09429,-0.223451 -0.308789,-0.427441 -0.591797,-0.636718 -0.283011,-0.209278 -0.63641,-0.421328 -1.015625,-0.63086 -0.758433,-0.41906 -1.619916,-0.83428 -2.197266,-1.205078 a 0.10001,0.10001 0 0 0 -0.140625,0.03125 c -0.167367,0.274955 -0.316291,0.460367 -0.445312,0.560547 -0.129024,0.10018 -0.225211,0.118931 -0.332032,0.08789 -0.213639,-0.06208 -0.498864,-0.40933 -0.845703,-1.013672 a 0.10001,0.10001 0 0 0 -0.002,-0.0039 c -0.333261,-0.535967 -0.514446,-0.818212 -0.638672,-0.947266 -0.03106,-0.03226 -0.05809,-0.05759 -0.101562,-0.07422 -0.02173,-0.0083 -0.05114,-0.01349 -0.08203,-0.0059 -0.03089,0.0077 -0.05725,0.02889 -0.07227,0.04883 -0.03001,0.03986 -0.03275,0.07322 -0.03711,0.109375 -0.0044,0.03616 -0.0043,0.07624 -0.0039,0.121094 0.0032,0.323735 0.02188,0.955598 -0.164062,1.478515 -0.50739,-0.739903 -1.187403,-1.550289 -1.97461,-1.902343 -0.424733,-0.189951 -0.87606,-0.25103 -1.310547,-0.09375 -0.434484,0.157278 -0.843002,0.528333 -1.201171,1.169921 a 0.10001,0.10001 0 0 0 -0.0098,0.0293 c -0.117338,0.592474 -0.453155,1.010908 -0.875,1.275391 -0.421845,0.264483 -0.932303,0.371323 -1.382813,0.326172 -0.450507,-0.04515 -0.834289,-0.240313 -1.029296,-0.560547 -0.193122,-0.317133 -0.206631,-0.776024 0.103515,-1.390625 0.99874,-0.404856 1.383874,-1.038108 1.660156,-1.681641 0.280881,-0.654239 0.483078,-1.305956 1.195313,-1.818359 0.391755,-0.02405 0.727621,-0.215824 1.017578,-0.472656 0.300328,-0.266019 0.557041,-0.599733 0.787109,-0.898438 0.230069,-0.298702 0.438253,-0.561754 0.613282,-0.68164 0.08751,-0.05994 0.160478,-0.08355 0.226562,-0.07617 0.06609,0.0074 0.138852,0.0455 0.226563,0.148437 a 0.10001,0.10001 0 0 0 0.0332,0.02539 c 0.46869,0.225184 1.049054,0.214062 1.61914,0.05859 0.570135,-0.155452 1.132256,-0.455882 1.570313,-0.830078 C 45.750557,14.914866 46.068123,14.465174 46.125,14 c 0.05308,-0.434121 -0.20236,-0.857735 -0.707031,-1.203125 0.136671,-0.355661 0.194042,-0.678248 0.177734,-0.935547 -0.01696,-0.267544 -0.102041,-0.477821 -0.261719,-0.583984 -0.07984,-0.05308 -0.178947,-0.07346 -0.277343,-0.05664 -0.0984,0.01682 -0.195062,0.06698 -0.289063,0.148438 -0.188002,0.162921 -0.370399,0.448356 -0.533203,0.884765 a 0.10001,0.10001 0 0 0 -0.0059,0.02734 c -0.08918,1.107293 -0.391006,1.912605 -0.90625,2.273438 -0.257623,0.180414 -0.569864,0.257433 -0.960938,0.210937 -0.380173,-0.0452 -0.840811,-0.222529 -1.367187,-0.533203 -0.20481,-0.4244 -0.174952,-0.899559 0.04687,-1.396484 0.225858,-0.505953 0.640115,-1.024756 1.154296,-1.490235 1.027176,-0.929878 2.454747,-1.6435543 3.529297,-1.6953124 z M 15.53125,9.6640625 c 0.384199,-0.010517 0.76127,0.046009 1.03125,0.2871094 0.339832,0.7299441 0.246322,1.2229581 -0.06836,1.6308591 -0.319233,0.413802 -0.880153,0.734218 -1.445313,1.046875 -0.565158,0.31266 -1.133951,0.61564 -1.46875,1.03711 -0.167399,0.210733 -0.274486,0.455101 -0.279297,0.736328 -0.0048,0.281224 0.08973,0.595118 0.304688,0.949219 a 0.10001,0.10001 0 0 0 0.06445,0.04492 c 0.536464,0.119826 0.956421,0.693679 1.359375,1.095703 0.201477,0.201012 0.404219,0.367807 0.646484,0.376954 0.237654,0.009 0.468949,-0.158931 0.701172,-0.507813 0.27837,-0.201525 0.537452,-0.592907 0.814453,-1.046875 0.281654,-0.461588 0.57578,-0.980467 0.878906,-1.392578 0.303129,-0.412111 0.617245,-0.705924 0.904297,-0.753906 0.143527,-0.02399 0.284769,0.0042 0.44336,0.115234 0.158591,0.111014 0.331088,0.308296 0.509765,0.615235 A 0.10001,0.10001 0 0 0 20,13.947266 c 0.773478,0.112293 1.172891,0.475599 1.505859,0.955078 0.326564,0.470251 0.581879,1.055411 1.009766,1.583984 0.187151,0.574781 0.0085,0.942501 -0.367188,1.240234 -0.376172,0.298137 -0.959503,0.501029 -1.537109,0.654297 -0.577604,0.15327 -1.146285,0.259281 -1.515625,0.390625 -0.18467,0.06567 -0.329359,0.127634 -0.398437,0.257813 -0.03454,0.06509 -0.03393,0.150534 -0.002,0.220703 0.03203,0.07017 0.08745,0.130273 0.166016,0.193359 a 0.10001,0.10001 0 0 0 0.06836,0.02148 c 0.368805,-0.01855 0.642376,-4.19e-4 0.832032,0.04102 0.189655,0.04143 0.289168,0.105604 0.330078,0.166016 0.04091,0.06041 0.04344,0.129531 0.002,0.234375 -0.04153,0.104844 -0.132592,0.233025 -0.257813,0.367187 -0.500883,0.536654 -1.557245,1.163866 -2.15625,1.339844 -2.52093,0.707023 -3.862329,3.210467 -5.355468,5.154297 a 0.10001,0.10001 0 0 0 -0.01953,0.07031 c 0.03448,0.345283 0.02682,0.580067 -0.0078,0.716796 -0.01732,0.06837 -0.04077,0.1107 -0.0625,0.134766 -0.02173,0.02407 -0.0412,0.03438 -0.07227,0.03906 -0.06213,0.0094 -0.178758,-0.02222 -0.322265,-0.0957 -0.143507,-0.07348 -0.313664,-0.183132 -0.5,-0.302734 -0.372672,-0.239204 -0.808707,-0.519487 -1.267578,-0.632812 -0.448337,-0.110723 -0.9268894,-0.02744 -1.3359379,0.394531 -0.6094813,-0.0038 -1.1661232,0.292032 -1.5996094,0.753906 -0.4461255,0.475344 -0.7745637,1.104877 -0.9316406,1.724609 -0.1570766,0.619735 -0.1469619,1.232467 0.1191406,1.671875 0.2661026,0.439409 0.7961249,0.674942 1.5820313,0.535157 a 0.10001,0.10001 0 0 0 0.054687,-0.0293 c 0.3734757,-0.394031 0.669949,-0.591448 0.8769531,-0.648438 0.2070041,-0.05699 0.3188703,-2.66e-4 0.4199219,0.148438 0.2021031,0.297408 0.2386097,1.023165 0.1269531,1.753906 a 0.10001,0.10001 0 0 0 0.080078,0.113281 c 0.3496946,0.06815 0.5564212,0.274994 0.7226562,0.566407 0.166235,0.29141 0.279745,0.665518 0.421875,1.03125 0.14213,0.36573 0.314046,0.726955 0.613281,0.984375 0.299238,0.257418 0.724277,0.398607 1.332032,0.33789 a 0.10001,0.10001 0 0 0 0.03125,-0.0078 c 1.716357,-0.780011 3.387594,-0.362605 5.099609,0.292968 l -5.957031,4.714844 c 0.238198,-0.602803 0.502936,-1.209011 0.671875,-1.814453 0.201176,-0.720982 0.257727,-1.446133 -0.06641,-2.148437 a 0.10001,0.10001 0 0 0 -0.02344,-0.03516 C 9.8096192,34.852122 6.2862411,34.24363 4.0058594,31.894531 3.9899239,29.690915 4.2652313,27.495499 4.7949219,25.361328 a 0.10042938,0.10042938 0 0 0 0.033203,-0.01953 c 0.4222141,-1.69252 1.0176886,-3.339677 1.7441406,-4.927735 0.1088138,-0.239159 0.2538428,-0.455956 0.3691406,-0.691406 0.6195105,-1.262525 1.3253339,-2.480399 2.1191407,-3.638672 0.1824703,-0.262598 0.3908596,-0.503898 0.5820312,-0.759765 0.8538619,-1.026789 1.8492179,-1.840806 2.8320309,-2.617188 1.061893,-0.83885 2.057314,-1.719021 2.697266,-2.9902341 0.01499,-0.011284 0.03186,-0.019996 0.04687,-0.03125 0.103139,-0.00851 0.20675,-0.018589 0.3125,-0.021484 z m -0.816406,0.3574215 c -0.616472,1.002624 -1.434325,1.793508 -2.363281,2.527344 -0.125216,0.09892 -0.245839,0.219022 -0.369141,0.326172 -0.358692,0.280345 -0.71798,0.56784 -1.074219,0.869141 1.155901,-1.354271 2.403501,-2.622359 3.806641,-3.722657 z m 20.623047,0.679688 c -0.925372,-0.06893 -1.498646,0.537178 -1.533204,1.070312 -0.01728,0.266569 0.121328,0.525241 0.404297,0.619141 0.27985,0.09286 0.679962,0.03453 1.216797,-0.224609 0.345094,-0.07737 0.665872,-0.297526 0.792969,-0.580078 0.06418,-0.142682 0.07371,-0.307493 -0.0059,-0.455079 -0.07953,-0.147583 -0.237588,-0.270314 -0.478516,-0.361328 a 0.10001,0.10001 0 0 0 -0.0098,-0.0039 c -0.134979,-0.03477 -0.263154,-0.05528 -0.386718,-0.06445 z m -0.01563,0.199219 c 0.108926,0.0081 0.223501,0.02747 0.345703,0.05859 0.208575,0.07983 0.321061,0.1764 0.36914,0.265625 0.04854,0.09007 0.045,0.179267 0,0.279297 -0.08999,0.20006 -0.372325,0.410219 -0.662109,0.472657 a 0.10001,0.10001 0 0 0 -0.02148,0.0078 c -0.519929,0.253992 -0.878024,0.284494 -1.082032,0.216797 -0.204005,-0.0677 -0.280433,-0.217681 -0.267578,-0.416016 0.02571,-0.396667 0.485835,-0.946779 1.31836,-0.884765 z m -14.583985,0.388672 a 0.10001,0.10001 0 0 0 -0.08203,0.01953 c -0.247057,0.193768 -0.390437,0.357357 -0.457031,0.511719 -0.06659,0.154361 -0.03641,0.312173 0.06055,0.410156 0.09696,0.09798 0.237222,0.147953 0.392578,0.175781 0.155356,0.02783 0.328069,0.03025 0.49414,0.01367 0.166074,-0.01657 0.324186,-0.05219 0.453125,-0.109375 0.128942,-0.05719 0.242865,-0.138826 0.267578,-0.271484 0.01236,-0.06633 -0.0049,-0.137268 -0.04297,-0.199219 -0.03812,-0.06195 -0.09563,-0.117543 -0.173828,-0.173828 -0.156386,-0.112572 -0.398379,-0.227414 -0.759766,-0.347657 a 0.10001,0.10001 0 0 0 -0.01172,-0.002 z m 0.01563,0.205078 0.07422,0.01563 c 0.350565,0.116641 0.577322,0.226396 0.705078,0.318359 0.06388,0.04598 0.102726,0.08733 0.121094,0.117188 0.01837,0.02985 0.01813,0.04516 0.01563,0.05859 -0.005,0.02686 -0.0497,0.07839 -0.150391,0.123047 -0.100686,0.04465 -0.243065,0.07883 -0.392578,0.09375 -0.149513,0.01492 -0.307214,0.01197 -0.439453,-0.01172 -0.132239,-0.02369 -0.236463,-0.06993 -0.285156,-0.11914 -0.04869,-0.04921 -0.06318,-0.09024 -0.01953,-0.191406 0.04068,-0.09428 0.167902,-0.238263 0.371094,-0.404297 z m 17.001953,2.625 a 0.10001,0.10001 0 0 0 -0.04297,0.101562 c 0.107676,0.610493 0.23877,1.964015 0.52539,2.818359 0.07166,0.213587 0.151809,0.397398 0.251953,0.535157 0.100145,0.137759 0.228921,0.237432 0.384766,0.238281 0.155845,8.49e-4 0.306986,-0.09267 0.458984,-0.265625 0.152001,-0.172958 0.312174,-0.433112 0.488282,-0.800781 a 0.10001,0.10001 0 0 0 0.0098,-0.05664 c -0.15138,-1.149568 -1.082278,-1.978705 -1.964844,-2.570312 a 0.10001,0.10001 0 0 0 -0.111328,0 z m 0.203125,0.34375 c 0.780702,0.558871 1.524775,1.277104 1.66211,2.230468 -0.162289,0.332369 -0.311368,0.577182 -0.4375,0.720703 -0.132047,0.150254 -0.234264,0.19766 -0.306641,0.197266 -0.07238,-3.94e-4 -0.144666,-0.04433 -0.224609,-0.154297 -0.07994,-0.109969 -0.15662,-0.277808 -0.22461,-0.480469 -0.244948,-0.730131 -0.363178,-1.827543 -0.46875,-2.513671 z m -0.609375,1.111328 c -0.334103,0.112144 -0.561314,0.23267 -0.708984,0.363281 -0.14767,0.130611 -0.216972,0.281942 -0.203125,0.425781 0.01385,0.143839 0.101178,0.265431 0.214844,0.359375 0.113665,0.09394 0.258361,0.165053 0.408203,0.210938 0.149841,0.04588 0.306159,0.06497 0.449219,0.04883 0.143057,-0.01614 0.278619,-0.07091 0.359375,-0.189453 0.08076,-0.118542 0.09045,-0.283325 0.02539,-0.476563 -0.06506,-0.193237 -0.201789,-0.423627 -0.435547,-0.708984 a 0.10001,0.10001 0 0 0 -0.109375,-0.0332 z m -0.0059,0.224609 c 0.183313,0.235186 0.313847,0.441007 0.361328,0.582031 0.05289,0.157095 0.03732,0.244052 0,0.298828 -0.03732,0.05478 -0.111853,0.09341 -0.21875,0.105469 -0.106897,0.01206 -0.239329,-0.0038 -0.367187,-0.04297 -0.127861,-0.03915 -0.250247,-0.10139 -0.337891,-0.173828 -0.08764,-0.07244 -0.1376,-0.152609 -0.144531,-0.224609 -0.0069,-0.072 0.0205,-0.153066 0.136718,-0.255859 0.103875,-0.09187 0.306849,-0.192375 0.570313,-0.289063 z m -14.933594,1.986328 a 0.10001,0.10001 0 0 0 -0.05664,0.07227 c -0.110093,0.553015 -0.0444,0.924763 0.111328,1.15039 0.155729,0.22563 0.405959,0.290446 0.599609,0.212891 0.19365,-0.07755 0.320994,-0.303859 0.251953,-0.566406 -0.06904,-0.262547 -0.310077,-0.558352 -0.814453,-0.863281 a 0.10001,0.10001 0 0 0 -0.0918,-0.0059 z m 0.158203,0.34961 c 0.272861,0.212496 0.517435,0.428646 0.554688,0.570312 0.04851,0.18446 -0.02722,0.287791 -0.132813,0.330078 -0.105588,0.04229 -0.249891,0.01888 -0.361328,-0.142578 -0.08478,-0.122828 -0.08123,-0.434372 -0.06055,-0.757812 z m 28.140625,9.189453 a 0.10001,0.10001 0 0 0 -0.07813,0.0293 c -0.300029,0.30351 -0.427132,0.75028 -0.345703,1.169921 a 0.10001,0.10001 0 0 0 0.0078,0.02539 c 1.072443,2.128714 2.169558,4.357799 3.402343,6.369141 A 0.10001,0.10001 0 0 0 53.875,34.902344 c 0.491186,-1.246947 0.07677,-2.628178 -0.632813,-3.94336 -0.709579,-1.31518 -1.721961,-2.575968 -2.460937,-3.59375 a 0.10001,0.10001 0 0 0 -0.07227,-0.04102 z m 5.601563,0.05078 c 0.0603,0.0086 0.13165,0.03159 0.216797,0.07422 0.170293,0.08526 0.386057,0.249401 0.644531,0.513672 a 0.10001,0.10001 0 0 0 0.0059,0.0039 c 0.364416,0.326516 0.881466,0.582452 1.371094,0.701172 0.209088,0.0507 0.403779,0.05908 0.580078,0.0332 0.0019,-5.3e-5 0.004,5.9e-5 0.0059,0 0.03117,-9.86e-4 0.0676,0.0087 0.09766,0.0059 0.142988,-0.01337 0.271738,-0.05488 0.380859,-0.11914 0.135205,1.114837 0.21875,2.246798 0.21875,3.398437 0,8.631937 -3.966156,16.222629 -10.085937,21.330078 0.468682,-0.611351 0.820849,-1.29965 1.095703,-2.013672 0.02278,-0.05506 0.04273,-0.110651 0.06445,-0.166015 0.04369,-0.119942 0.09571,-0.236427 0.134766,-0.357422 0.222683,-0.638933 0.380226,-1.290667 0.474609,-1.927735 0.81512,-0.439518 1.293276,-0.987833 1.525391,-1.607421 0.238623,-0.636971 0.247995,-1.333296 0.210937,-2.044922 -0.07411,-1.423254 -0.329788,-2.900387 0.5625,-4.123047 a 0.10001,0.10001 0 0 0 0.01367,-0.02148 c 0.161126,-0.407403 0.524656,-0.944615 0.9375,-1.527343 0.412844,-0.58273 0.874869,-1.214756 1.232422,-1.830078 0.357552,-0.615325 0.614787,-1.213511 0.603515,-1.75 -0.01097,-0.522085 -0.316064,-0.968481 -0.980468,-1.244141 6.41e-4,-0.0032 -7.1e-4,-0.001 0.002,-0.0078 0.0117,-0.03039 0.04846,-0.08777 0.103515,-0.15625 0.110118,-0.136965 0.294876,-0.323319 0.519532,-0.541015 0.44931,-0.435392 1.055891,-0.996603 1.5625,-1.576172 0.506606,-0.579569 0.921121,-1.173864 0.96289,-1.720703 0.02088,-0.273421 -0.06101,-0.536625 -0.273437,-0.748047 -0.212424,-0.211422 -0.546706,-0.373818 -1.027344,-0.484375 a 0.10001,0.10001 0 0 0 -0.03906,0 c -0.425422,0.07916 -0.761506,-0.09823 -1.015625,-0.388672 -0.254122,-0.290439 -0.413639,-0.696562 -0.453125,-1.041016 -0.01974,-0.172224 -0.0096,-0.329382 0.02734,-0.443359 0.03695,-0.113977 0.09414,-0.180251 0.171875,-0.208984 0.03887,-0.01436 0.08813,-0.02028 0.148438,-0.01172 z m -5.582031,0.265625 c 0.731789,0.998128 1.669547,2.176978 2.335937,3.412109 0.637988,1.182493 0.936608,2.374914 0.644531,3.462891 -1.153962,-1.920491 -2.206536,-4.014132 -3.226562,-6.039063 -0.0558,-0.300017 0.0705,-0.592693 0.246094,-0.835937 z m -26.980469,4.416016 c 0.597508,-0.01499 1.085624,0.450862 1.083984,1.029296 l -0.02148,8.001954 -0.02344,8.841796 -0.01367,5.060547 c -1.07e-4,0.109269 -0.01703,0.213029 -0.04687,0.308594 -0.02984,0.09557 -0.07279,0.182346 -0.126953,0.261719 -0.05417,0.07937 -0.118319,0.150247 -0.191406,0.210937 -0.07309,0.06069 -0.155586,0.110874 -0.242187,0.150391 -0.0866,0.03952 -0.178729,0.06813 -0.273438,0.08398 -0.09471,0.01586 -0.191653,0.02006 -0.289062,0.0098 -0.09741,-0.0103 -0.194358,-0.03528 -0.289063,-0.07422 -0.0947,-0.03894 -0.186845,-0.09204 -0.273437,-0.162109 l -0.701172,-0.566406 a 0.10001,0.10001 0 0 0 -0.002,0 l -4.1875,-3.378907 a 0.10001,0.10001 0 0 0 -0.148438,0.02734 l -1.724609,2.974609 -0.166016,0.28711 -1.445312,2.490234 c -0.691168,1.190959 -2.208802,1.597938 -3.40625,0.910156 L 10.570313,58.126953 C 9.3728208,57.43915 8.9631856,55.929144 9.6542969,54.738281 l 2.0039061,-3.453125 1.210938,-2.083984 a 0.10001,0.10001 0 0 0 -0.07227,-0.150391 L 9.4355469,48.578125 a 0.10001,0.10001 0 0 0 -0.00195,0 L 5.9394531,48.087891 C 5.4903895,48.025257 5.1888873,47.726711 5.078125,47.369141 4.9673627,47.011568 5.0489977,46.602007 5.3867187,46.308594 l 1.7265625,-1.367188 4.4472658,-3.517578 6.394531,-5.058594 h 0.002 l 5.109375,-4.042968 a 0.10001,0.10001 0 0 0 0.0039,-0.002 c 0.09352,-0.08137 0.199762,-0.146562 0.314454,-0.191406 0.114691,-0.04484 0.237831,-0.06934 0.363281,-0.07227 z M 4.0546875,32.1875 c 0.058876,0.05703 0.1214509,0.109024 0.1816406,0.164062 0.052073,0.04761 0.1032117,0.09641 0.15625,0.142579 0.1084577,0.09453 0.2199259,0.184456 0.3320313,0.273437 0.037073,0.02933 0.073872,0.05913 0.1113281,0.08789 0.2886278,0.222441 0.5911455,0.423433 0.8984375,0.617187 0.031846,0.01992 0.061736,0.04283 0.09375,0.0625 2.0805934,1.28858 4.497509,2.053252 6.326172,3.640625 0.287989,0.640315 0.24523,1.302336 0.05273,1.992188 -0.192253,0.688994 -0.526411,1.398844 -0.792968,2.117187 L 11.273438,41.396484 7.09375,44.701172 C 5.175661,40.947496 4.0874903,36.699999 4.0546875,32.1875 Z m 51.5429685,2.498047 0.0078,0.0039 c 8.52e-4,6.7e-4 9.53e-4,0.0028 0.002,0.0039 -0.0046,-0.0019 -0.0069,-0.0052 -0.0098,-0.0078 z m -30.58789,6.576172 c 0.861892,0.490336 1.701266,0.985946 2.455078,1.542968 -0.475637,2.055386 -1.604485,3.982315 -1.513672,6.19336 -0.357992,0.224214 -0.67227,0.466697 -0.964844,0.71875 z M 9.6660156,48.814453 12.621094,49.228516 11.556641,51.0625 C 10.886946,50.347742 10.257802,49.596472 9.6660156,48.814453 Z m 8.4492184,3.248047 4.021485,3.246094 c -0.853006,1.237724 -2.323655,1.568705 -3.623047,1.167968 a 0.10001,0.10001 0 0 0 -0.02734,0.01172 C 17.962704,56.323994 17.47153,56.039871 17.0625,55.648437 a 0.10001,0.10001 0 0 0 -0.01367,-0.04102 C 16.83132,55.394906 16.639527,55.153588 16.480469,54.882812 Z M 16.375,55.064453 c 0.03374,0.0535 0.0756,0.09894 0.115234,0.146484 0.0129,0.01844 0.02391,0.0385 0.03711,0.05664 -0.06492,-0.04197 -0.131195,-0.08206 -0.195313,-0.125 z"
     style="stroke-linecap:round;stroke-linejoin:round;filter:url(#filter6)"
     id="path6" />
</svg>
