<?xml version="1.0" encoding="UTF-8" standalone="no"?>
<svg
   width="64"
   height="64"
   version="1"
   id="svg4"
   sodipodi:docname="aarddict.svg"
   inkscape:version="1.3.2 (091e20ef0f, 2023-11-25, custom)"
   xmlns:inkscape="http://www.inkscape.org/namespaces/inkscape"
   xmlns:sodipodi="http://sodipodi.sourceforge.net/DTD/sodipodi-0.dtd"
   xmlns:xlink="http://www.w3.org/1999/xlink"
   xmlns="http://www.w3.org/2000/svg"
   xmlns:svg="http://www.w3.org/2000/svg">
  <defs
     id="defs4">
    <linearGradient
       id="linearGradient7"
       inkscape:collect="always">
      <stop
         style="stop-color:#ffffff;stop-opacity:1;"
         offset="0"
         id="stop8" />
      <stop
         style="stop-color:#d0d0d0;stop-opacity:1;"
         offset="1"
         id="stop9" />
    </linearGradient>
    <linearGradient
       id="linearGradient6"
       inkscape:collect="always">
      <stop
         style="stop-color:#ff8000;stop-opacity:1;"
         offset="0"
         id="stop6" />
      <stop
         style="stop-color:#ff3b2c;stop-opacity:1;"
         offset="1"
         id="stop7" />
    </linearGradient>
    <inkscape:path-effect
       effect="fillet_chamfer"
       id="path-effect6"
       is_visible="true"
       lpeversion="1"
       nodesatellites_param="F,0,0,1,0,0,0,1 @ F,0,0,1,0,0,0,1 @ F,0,1,1,0,1.5398657,0,1 @ F,0,0,1,0,1.5398657,0,1 @ F,0,1,1,0,1.5398657,0,1 @ F,0,0,1,0,0,0,1 @ F,0,0,1,0,0,0,1"
       radius="0"
       unit="px"
       method="auto"
       mode="F"
       chamfer_steps="1"
       flexible="false"
       use_knot_distance="true"
       apply_no_radius="true"
       apply_with_radius="true"
       only_selected="false"
       hide_knots="false" />
    <inkscape:path-effect
       effect="fillet_chamfer"
       id="path-effect5"
       is_visible="true"
       lpeversion="1"
       nodesatellites_param="F,0,1,1,0,12.821998,0,1 @ F,0,0,1,0,12.821998,0,1 @ F,0,1,1,0,12.821998,0,1 @ F,0,1,1,0,12.821998,0,1"
       radius="0"
       unit="px"
       method="auto"
       mode="F"
       chamfer_steps="1"
       flexible="false"
       use_knot_distance="true"
       apply_no_radius="true"
       apply_with_radius="true"
       only_selected="false"
       hide_knots="false" />
    <inkscape:path-effect
       effect="fillet_chamfer"
       id="path-effect4"
       is_visible="true"
       lpeversion="1"
       nodesatellites_param="F,0,0,1,0,0,0,1 @ F,0,1,1,0,12.717959,0,1 @ F,0,0,1,0,12.717959,0,1 @ F,0,0,1,0,0,0,1"
       radius="0"
       unit="px"
       method="auto"
       mode="F"
       chamfer_steps="1"
       flexible="false"
       use_knot_distance="true"
       apply_no_radius="true"
       apply_with_radius="true"
       only_selected="false"
       hide_knots="false" />
    <radialGradient
       inkscape:collect="always"
       xlink:href="#linearGradient6"
       id="radialGradient7"
       cx="19.011391"
       cy="15.297665"
       fx="19.011391"
       fy="15.297665"
       r="3.999943"
       gradientTransform="matrix(0,5.4118676,-5.9599551,-3.7995095e-7,113.26703,-96.553683)"
       gradientUnits="userSpaceOnUse" />
    <radialGradient
       inkscape:collect="always"
       xlink:href="#linearGradient7"
       id="radialGradient9"
       cx="17.091644"
       cy="13.776258"
       fx="17.091644"
       fy="13.776258"
       r="28.040344"
       gradientTransform="matrix(1.9760539,1.9760539,-1.9762147,1.9762147,10.542479,-47.224071)"
       gradientUnits="userSpaceOnUse" />
    <inkscape:path-effect
       effect="fillet_chamfer"
       id="path-effect4-3"
       is_visible="true"
       lpeversion="1"
       nodesatellites_param="F,0,0,1,0,0,0,1 @ F,0,1,1,0,12.717959,0,1 @ F,0,0,1,0,12.717959,0,1 @ F,0,0,1,0,0,0,1"
       radius="0"
       unit="px"
       method="auto"
       mode="F"
       chamfer_steps="1"
       flexible="false"
       use_knot_distance="true"
       apply_no_radius="true"
       apply_with_radius="true"
       only_selected="false"
       hide_knots="false" />
    <inkscape:path-effect
       effect="fillet_chamfer"
       id="path-effect6-3"
       is_visible="true"
       lpeversion="1"
       nodesatellites_param="F,0,0,1,0,0,0,1 @ F,0,0,1,0,0,0,1 @ F,0,1,1,0,1.5398657,0,1 @ F,0,0,1,0,1.5398657,0,1 @ F,0,1,1,0,1.5398657,0,1 @ F,0,0,1,0,0,0,1 @ F,0,0,1,0,0,0,1"
       radius="0"
       unit="px"
       method="auto"
       mode="F"
       chamfer_steps="1"
       flexible="false"
       use_knot_distance="true"
       apply_no_radius="true"
       apply_with_radius="true"
       only_selected="false"
       hide_knots="false" />
    <inkscape:path-effect
       effect="fillet_chamfer"
       id="path-effect5-9"
       is_visible="true"
       lpeversion="1"
       nodesatellites_param="F,0,1,1,0,12.821998,0,1 @ F,0,0,1,0,12.821998,0,1 @ F,0,1,1,0,12.821998,0,1 @ F,0,1,1,0,12.821998,0,1"
       radius="0"
       unit="px"
       method="auto"
       mode="F"
       chamfer_steps="1"
       flexible="false"
       use_knot_distance="true"
       apply_no_radius="true"
       apply_with_radius="true"
       only_selected="false"
       hide_knots="false" />
    <filter
       inkscape:collect="always"
       style="color-interpolation-filters:sRGB"
       id="filter12"
       x="-0.099466873"
       y="-0.1106354"
       width="1.1989337"
       height="1.2212708">
      <feGaussianBlur
         inkscape:collect="always"
         stdDeviation="2.3466346"
         id="feGaussianBlur12" />
    </filter>
  </defs>
  <sodipodi:namedview
     id="namedview4"
     pagecolor="#505050"
     bordercolor="#eeeeee"
     borderopacity="1"
     inkscape:showpageshadow="0"
     inkscape:pageopacity="0"
     inkscape:pagecheckerboard="0"
     inkscape:deskcolor="#505050"
     inkscape:zoom="9.1923882"
     inkscape:cx="31.003913"
     inkscape:cy="29.208949"
     inkscape:window-width="1920"
     inkscape:window-height="1020"
     inkscape:window-x="0"
     inkscape:window-y="0"
     inkscape:window-maximized="1"
     inkscape:current-layer="svg4" />
  <g
     id="g12"
     transform="translate(0,3.4500254)">
    <path
       id="rect1"
       style="fill:url(#radialGradient9)"
       d="M 16.821998,3.8687062 H 47.25869 A 12.821998,12.821998 45 0 1 60.080688,16.690704 V 39.576272 A 12.821998,12.821998 135 0 1 47.25869,52.39827 H 16.821998 A 12.821998,12.821998 45 0 1 4,39.576272 V 16.690704 A 12.821998,12.821998 135 0 1 16.821998,3.8687062 Z"
       sodipodi:nodetypes="ccccc"
       inkscape:path-effect="#path-effect5"
       inkscape:original-d="M 4,3.8687062 H 60.080688 V 52.39827 H 4 Z"
       transform="matrix(0.9132255,0,0,0.9132255,2.712573,3.6775237)" />
    <path
       style="fill:url(#radialGradient7)"
       d="m 25.599692,2.000439 c -1.599978,0 -1.599978,1.3713804 -1.599978,1.3713804 V 24.45963 a 0.95168923,0.95168923 31.717472 0 0 1.377298,0.851217 l 1.245347,-0.622674 a 3.0797306,3.0797306 0 0 1 2.754596,0 l 1.245347,0.622674 A 0.95168923,0.95168923 148.28253 0 0 31.9996,24.45963 V 3.3718194 c 0,-1.3714004 -1.599997,-1.3714004 -1.599997,-1.3714004 z"
       id="path4"
       inkscape:path-effect="#path-effect6"
       inkscape:original-d="m 25.599692,2.000439 c -1.599978,0 -1.599978,1.3713804 -1.599978,1.3713804 V 25.999496 l 3.999943,-1.999972 3.999943,1.999972 V 3.3718194 c 0,-1.3714004 -1.599997,-1.3714004 -1.599997,-1.3714004 z"
       transform="matrix(0.9132255,0,0,0.9132255,2.7465716,3.6718984)"
       sodipodi:nodetypes="cccccscc" />
    <path
       id="rect4"
       style="opacity:0.15;stroke-width:0.3;stroke-linecap:round;stroke-linejoin:round;stroke-miterlimit:4.6"
       d="M 32.038063,3.8687062 H 47.362729 A 12.717959,12.717959 45 0 1 60.080688,16.586665 V 39.680311 A 12.717959,12.717959 135 0 1 47.362729,52.39827 H 32.038063 Z"
       sodipodi:nodetypes="ccccc"
       inkscape:path-effect="#path-effect4"
       inkscape:original-d="M 32.038063,3.8687062 H 60.080688 V 52.39827 H 32.038063 Z"
       transform="matrix(0.9132255,0,0,0.9132255,2.7490152,3.6577807)" />
    <path
       id="path11"
       style="color:#000000;mix-blend-mode:normal;fill:#000000;-inkscape-stroke:none;filter:url(#filter12)"
       d="m 25.646484,1.7832031 c -0.871397,0 -1.378772,0.4050915 -1.615234,0.8105469 -0.236462,0.4054554 -0.234375,0.8105469 -0.234375,0.8105469 V 3.6582031 H 16.832031 C 9.6153362,3.6580525 3.759615,9.5137728 3.7597656,16.730469 V 39.616188 C 3.759615,46.832884 9.6153363,52.688603 16.832031,52.688454 h 30.4375 c 0.181727,3e-6 0.358237,-0.02025 0.53711,-0.03125 0.718654,-0.02148 1.422659,-0.100411 2.107421,-0.234375 5.963302,-1.166636 10.46719,-6.420941 10.466797,-12.72461 V 16.605469 C 60.381305,9.4458091 54.571769,3.6362734 47.412109,3.6367188 H 32.296875 V 3.4042969 c 0,-0.7828979 -0.495786,-1.2345657 -0.951172,-1.4296875 C 30.890319,1.7794876 30.447266,1.7832031 30.447266,1.7832031 Z m 0,0.5 h 4.800782 c 0,0 0.356754,0.00282 0.701172,0.1503907 0.344418,0.1475749 0.648437,0.3822061 0.648437,0.9707031 V 3.6582031 24.492188 c 9.7e-5,0.531999 -0.539695,0.864676 -1.015625,0.626953 v 0.002 l -1.246094,-0.623047 c -0.937009,-0.468358 -2.039553,-0.468358 -2.976562,0 l -1.246094,0.623 v -0.002 c -0.47593,0.237723 -1.015722,-0.09495 -1.015625,-0.626953 V 3.6582031 3.4042969 c 0,0 0.0027,-0.2804568 0.166016,-0.5605469 0.163347,-0.2800901 0.45502,-0.5605469 1.183593,-0.5605469 z m 6.691407,1.8535157 h 15.074218 c 6.889418,-4.285e-4 12.469179,5.5793318 12.46875,12.4687502 v 23.09275 c 3.78e-4,6.066618 -4.326939,11.114698 -10.064453,12.234375 v -0.002 c -0.389781,0.07621 -0.784805,0.135747 -1.185547,0.175781 -0.400741,0.04003 -0.807204,0.06057 -1.21875,0.06055 H 32.337891 Z m -15.50586,0.021484 h 6.964844 V 24.492188 c -2e-5,0.110343 0.0155,0.216619 0.04297,0.316406 0.02747,0.09979 0.06656,0.192753 0.117187,0.279297 0.05063,0.08654 0.112178,0.165713 0.181641,0.236328 0.06946,0.07062 0.1465,0.133545 0.230469,0.185547 0.08397,0.052 0.175384,0.0943 0.269531,0.125 0.09415,0.0307 0.191018,0.04992 0.291016,0.05664 0.1,0.0067 0.203167,4.21e-4 0.304687,-0.01953 0.10152,-0.01995 0.202067,-0.05421 0.300781,-0.103516 v -0.002 l 1.246094,-0.623047 c 0.796667,-0.398208 1.734583,-0.398208 2.53125,0 l 1.246094,0.623047 v 0.002 c 0.44097,0.220263 0.93206,0.133961 1.279297,-0.138671 V 52.188454 H 16.832031 C 9.8855637,52.188598 4.2596206,46.562656 4.2597656,39.616188 V 16.730469 C 4.2596206,9.7840002 9.8855637,4.1580581 16.832031,4.1582028 Z"
       transform="matrix(0.9132255,0,0,0.9132255,2.712573,3.6775237)"
       sodipodi:nodetypes="ssccccccccsccccsscsscssccccccccccccsccccccsccccccssssscscccccccccccc" />
  </g>
</svg>
