<?xml version="1.0" encoding="UTF-8" standalone="no"?>
<svg
   width="64"
   height="64"
   version="1.1"
   id="svg6"
   sodipodi:docname="AdobeAfterEffect.svg"
   inkscape:version="1.3.2 (091e20ef0f, 2023-11-25, custom)"
   xmlns:inkscape="http://www.inkscape.org/namespaces/inkscape"
   xmlns:sodipodi="http://sodipodi.sourceforge.net/DTD/sodipodi-0.dtd"
   xmlns="http://www.w3.org/2000/svg"
   xmlns:svg="http://www.w3.org/2000/svg">
  <defs
     id="defs6">
    <rect
       x="10.084149"
       y="16.356342"
       width="47.7108"
       height="32.505422"
       id="rect6" />
    <filter
       inkscape:collect="always"
       style="color-interpolation-filters:sRGB"
       id="filter6"
       x="-0.069486645"
       y="-0.069486645"
       width="1.1389733"
       height="1.1389733">
      <feGaussianBlur
         inkscape:collect="always"
         stdDeviation="1.5588551"
         id="feGaussianBlur6" />
    </filter>
  </defs>
  <sodipodi:namedview
     id="namedview6"
     pagecolor="#ffffff"
     bordercolor="#000000"
     borderopacity="0.25"
     inkscape:showpageshadow="2"
     inkscape:pageopacity="0.0"
     inkscape:pagecheckerboard="0"
     inkscape:deskcolor="#d1d1d1"
     inkscape:zoom="6.65625"
     inkscape:cx="14.798122"
     inkscape:cy="35.15493"
     inkscape:window-width="1920"
     inkscape:window-height="1012"
     inkscape:window-x="0"
     inkscape:window-y="0"
     inkscape:window-maximized="1"
     inkscape:current-layer="svg6" />
  <rect
     x="4"
     y="4"
     width="56"
     height="56"
     rx="16.964949"
     ry="16.964949"
     style="fill:#502e8e"
     id="rect1" />
  <rect
     x="4"
     y="4"
     width="56"
     height="56"
     rx="16.964949"
     ry="16.964949"
     style="fill:none;stroke:#000000;stroke-opacity:1;stroke-width:0.29999992;stroke-dasharray:none;filter:url(#filter6)"
     id="rect1-1" />
  <path
     style="font-weight:bold;font-family:'Myriad Pro';-inkscape-font-specification:'Myriad Pro Bold';white-space:pre;fill:#c3a3ff;stroke-width:0.200021"
     d="m 15.075984,24.779469 0.624,2.076 h 1.98 l -2.52,-8.088 h -2.4 l -2.46,8.088 h 1.884 l 0.576,-2.076 z m -2.052,-1.368 0.48,-1.716 c 0.132,-0.468 0.252,-1.08 0.372,-1.56 h 0.024 c 0.12,0.48 0.264,1.08 0.408,1.56 l 0.504,1.716 z m 10.680003,1.092 c 0.024,-0.132 0.06,-0.408 0.06,-0.72 0,-1.452 -0.72,-2.928 -2.616,-2.928 -2.04,0 -2.964,1.644 -2.964,3.132 0,1.836 1.14,2.988 3.132,2.988 0.792,0 1.524,-0.12 2.124,-0.372 l -0.24,-1.236 c -0.492,0.168 -0.996,0.252 -1.62,0.252 -0.852,0 -1.608,-0.36 -1.656,-1.116 z m -3.792,-1.248 c 0.048,-0.48 0.36,-1.188 1.128,-1.188 0.84,0 1.032,0.744 1.032,1.188 z"
     id="text6"
     transform="matrix(3.2237257,0,0,3.2237257,-22.90645,-41.433245)"
     aria-label="Ae" />
</svg>
