<?xml version="1.0" encoding="UTF-8" standalone="no"?>
<svg
   width="64"
   height="64"
   version="1.1"
   id="svg6"
   sodipodi:docname="AdobePremierePro.svg"
   inkscape:version="1.3.2 (091e20ef0f, 2023-11-25, custom)"
   xmlns:inkscape="http://www.inkscape.org/namespaces/inkscape"
   xmlns:sodipodi="http://sodipodi.sourceforge.net/DTD/sodipodi-0.dtd"
   xmlns="http://www.w3.org/2000/svg"
   xmlns:svg="http://www.w3.org/2000/svg">
  <defs
     id="defs6">
    <rect
       x="10.084149"
       y="16.356342"
       width="47.7108"
       height="32.505421"
       id="rect6" />
    <filter
       inkscape:collect="always"
       style="color-interpolation-filters:sRGB"
       id="filter6"
       x="-0.069486645"
       y="-0.069486645"
       width="1.1389733"
       height="1.1389733">
      <feGaussianBlur
         inkscape:collect="always"
         stdDeviation="1.5588551"
         id="feGaussianBlur6" />
    </filter>
  </defs>
  <sodipodi:namedview
     id="namedview6"
     pagecolor="#ffffff"
     bordercolor="#000000"
     borderopacity="0.25"
     inkscape:showpageshadow="2"
     inkscape:pageopacity="0.0"
     inkscape:pagecheckerboard="0"
     inkscape:deskcolor="#d1d1d1"
     inkscape:zoom="12.6875"
     inkscape:cx="32.039409"
     inkscape:cy="32"
     inkscape:window-width="1476"
     inkscape:window-height="752"
     inkscape:window-x="0"
     inkscape:window-y="116"
     inkscape:window-maximized="0"
     inkscape:current-layer="svg6" />
  <rect
     x="4"
     y="4"
     width="56"
     height="56"
     rx="16.964949"
     ry="16.964949"
     style="fill:#502e8e"
     id="rect1" />
  <rect
     x="4"
     y="4"
     width="56"
     height="56"
     rx="16.964949"
     ry="16.964949"
     style="fill:none;stroke:#000000;stroke-width:0.3;stroke-dasharray:none;stroke-opacity:1;filter:url(#filter6)"
     id="rect1-1" />
  <path
     style="font-weight:bold;font-family:'Myriad Pro';-inkscape-font-specification:'Myriad Pro Bold';white-space:pre;fill:#c3a3ff;stroke-width:0.200021"
     d="m 10.875984,26.855469 h 1.812 v -2.904 c 0.168,0.036 0.384,0.048 0.624,0.048 1.08,0 2.004,-0.276 2.628,-0.852 0.492,-0.444 0.744,-1.128 0.744,-1.92 0,-0.792 -0.336,-1.464 -0.864,-1.872 -0.54,-0.432 -1.344,-0.648 -2.472,-0.648 -1.116,0 -1.908,0.072 -2.472,0.168 z m 1.812,-6.696 c 0.132,-0.036 0.384,-0.06 0.744,-0.06 0.924,0 1.44,0.444 1.44,1.188 0,0.816 -0.6,1.308 -1.572,1.308 -0.276,0 -0.456,-0.012 -0.612,-0.048 z m 4.991984,6.696 h 1.824 v -2.976 c 0,-0.144 0.012,-0.288 0.036,-0.408 0.12,-0.564 0.576,-0.924 1.248,-0.924 0.204,0 0.348,0.024 0.492,0.048 v -1.716 c -0.132,-0.024 -0.216,-0.036 -0.384,-0.036 -0.576,0 -1.284,0.36 -1.584,1.224 h -0.048 l -0.072,-1.08 h -1.56 c 0.036,0.504 0.048,1.068 0.048,1.932 z"
     id="text6"
     transform="matrix(3.2237257,0,0,3.2237257,-19.830984,-41.441206)"
     aria-label="Pr" />
</svg>
