<?xml version="1.0" encoding="UTF-8" standalone="no"?>
<svg
   width="64"
   height="64"
   version="1.1"
   id="svg6"
   sodipodi:docname="AdobeSpeedgrade.svg"
   inkscape:version="1.3.2 (091e20ef0f, 2023-11-25, custom)"
   xmlns:inkscape="http://www.inkscape.org/namespaces/inkscape"
   xmlns:sodipodi="http://sodipodi.sourceforge.net/DTD/sodipodi-0.dtd"
   xmlns="http://www.w3.org/2000/svg"
   xmlns:svg="http://www.w3.org/2000/svg">
  <defs
     id="defs6">
    <rect
       x="10.084149"
       y="16.356342"
       width="47.7108"
       height="32.505421"
       id="rect6" />
    <filter
       inkscape:collect="always"
       style="color-interpolation-filters:sRGB"
       id="filter6"
       x="-0.069486645"
       y="-0.069486645"
       width="1.1389733"
       height="1.1389733">
      <feGaussianBlur
         inkscape:collect="always"
         stdDeviation="1.5588551"
         id="feGaussianBlur6" />
    </filter>
  </defs>
  <sodipodi:namedview
     id="namedview6"
     pagecolor="#ffffff"
     bordercolor="#000000"
     borderopacity="0.25"
     inkscape:showpageshadow="2"
     inkscape:pageopacity="0.0"
     inkscape:pagecheckerboard="0"
     inkscape:deskcolor="#d1d1d1"
     inkscape:zoom="12.6875"
     inkscape:cx="31.960591"
     inkscape:cy="32"
     inkscape:window-width="1920"
     inkscape:window-height="1012"
     inkscape:window-x="0"
     inkscape:window-y="0"
     inkscape:window-maximized="1"
     inkscape:current-layer="svg6" />
  <rect
     x="3.9999983"
     y="3.9999983"
     width="56"
     height="56"
     rx="16.964949"
     ry="16.964949"
     style="fill:#2b9c82;fill-opacity:1"
     id="rect1" />
  <rect
     x="3.9999983"
     y="3.9999983"
     width="56"
     height="56"
     rx="16.964949"
     ry="16.964949"
     style="fill:none;stroke:#000000;stroke-width:0.3;stroke-dasharray:none;stroke-opacity:1;filter:url(#filter6)"
     id="rect1-1" />
  <path
     d="m 10.563984,26.471469 c 0.456,0.252 1.368,0.504 2.292,0.504 2.22,0 3.252,-1.152 3.252,-2.508 0,-1.14 -0.66,-1.884 -2.088,-2.412 -1.056,-0.396 -1.5,-0.624 -1.5,-1.14 0,-0.408 0.384,-0.78 1.176,-0.78 0.78,0 1.368,0.228 1.68,0.384 l 0.408,-1.464 c -0.48,-0.228 -1.14,-0.408 -2.064,-0.408 -1.896,0 -3.06,1.044 -3.06,2.424 0,1.176 0.888,1.92 2.232,2.4 0.972,0.336 1.356,0.624 1.356,1.128 0,0.528 -0.444,0.876 -1.284,0.876 -0.78,0 -1.548,-0.252 -2.028,-0.504 z m 12.288011,-3.732 c 0,-0.876 0.024,-1.368 0.048,-1.752 h -1.584 l -0.06,0.708 h -0.024 c -0.3,-0.492 -0.804,-0.84 -1.608,-0.84 -1.452,0 -2.664,1.2 -2.664,3.096 0,1.68 1.032,2.856 2.484,2.856 0.672,0 1.236,-0.276 1.584,-0.756 h 0.024 v 0.372 c 0,1.092 -0.66,1.548 -1.524,1.548 -0.696,0 -1.332,-0.228 -1.704,-0.444 l -0.36,1.392 c 0.528,0.288 1.332,0.444 2.112,0.444 0.864,0 1.74,-0.168 2.376,-0.72 0.672,-0.588 0.9,-1.512 0.9,-2.64 z m -1.824,1.5 c 0,0.156 -0.012,0.348 -0.06,0.492 -0.12,0.42 -0.492,0.732 -0.972,0.732 -0.756,0 -1.188,-0.684 -1.188,-1.56 0,-1.068 0.528,-1.668 1.2,-1.668 0.504,0 0.852,0.324 0.984,0.804 0.024,0.108 0.036,0.228 0.036,0.336 z"
     id="text6"
     style="font-weight:bold;font-family:'Myriad Pro';-inkscape-font-specification:'Myriad Pro Bold';white-space:pre;fill:#a3f8ff;stroke-width:0.200021"
     transform="matrix(3.2237257,0,0,3.2237257,-21.939346,-42.637441)"
     aria-label="Sg" />
</svg>
