<?xml version="1.0" encoding="UTF-8" standalone="no"?>
<svg
   height="64"
   width="64"
   version="1.1"
   id="svg4"
   sodipodi:docname="AdobeAnimate.svg"
   inkscape:version="1.3.2 (091e20ef0f, 2023-11-25, custom)"
   xmlns:inkscape="http://www.inkscape.org/namespaces/inkscape"
   xmlns:sodipodi="http://sodipodi.sourceforge.net/DTD/sodipodi-0.dtd"
   xmlns="http://www.w3.org/2000/svg"
   xmlns:svg="http://www.w3.org/2000/svg">
  <defs
     id="defs4">
    <rect
       x="10.084149"
       y="16.356342"
       width="47.7108"
       height="32.505421"
       id="rect6" />
    <filter
       inkscape:collect="always"
       style="color-interpolation-filters:sRGB"
       id="filter6"
       x="-0.069486645"
       y="-0.069486645"
       width="1.1389733"
       height="1.1389733">
      <feGaussianBlur
         inkscape:collect="always"
         stdDeviation="1.5588551"
         id="feGaussianBlur6" />
    </filter>
  </defs>
  <sodipodi:namedview
     id="namedview4"
     pagecolor="#ffffff"
     bordercolor="#000000"
     borderopacity="0.25"
     inkscape:showpageshadow="2"
     inkscape:pageopacity="0.0"
     inkscape:pagecheckerboard="0"
     inkscape:deskcolor="#d1d1d1"
     inkscape:zoom="12.6875"
     inkscape:cx="31.960591"
     inkscape:cy="32"
     inkscape:window-width="1920"
     inkscape:window-height="1012"
     inkscape:window-x="0"
     inkscape:window-y="0"
     inkscape:window-maximized="1"
     inkscape:current-layer="svg4" />
  <rect
     x="3.8912523"
     y="3.8912523"
     width="56"
     height="56"
     rx="16.964949"
     ry="16.964949"
     style="fill:#92212d;fill-opacity:1"
     id="rect1" />
  <rect
     x="3.8912523"
     y="3.8912523"
     width="56"
     height="56"
     rx="16.964949"
     ry="16.964949"
     style="fill:none;stroke:#000000;stroke-width:0.3;stroke-dasharray:none;stroke-opacity:1;filter:url(#filter6)"
     id="rect1-1" />
  <path
     style="font-weight:bold;font-family:'Myriad Pro';-inkscape-font-specification:'Myriad Pro Bold';white-space:pre;fill:#ffa3ae;stroke-width:0.200021"
     d="m 15.075984,24.779469 0.624,2.076 h 1.98 l -2.52,-8.088 h -2.4 l -2.46,8.088 h 1.884 l 0.576,-2.076 z m -2.052,-1.368 0.48,-1.716 c 0.132,-0.468 0.252,-1.08 0.372,-1.56 h 0.024 c 0.12,0.48 0.264,1.08 0.408,1.56 l 0.504,1.716 z m 5.591996,3.444 h 1.824 v -3.384 c 0,-0.168 0.012,-0.336 0.06,-0.456 0.132,-0.336 0.432,-0.684 0.936,-0.684 0.66,0 0.924,0.516 0.924,1.272 v 3.252 h 1.824 v -3.468 c 0,-1.728 -0.9,-2.532 -2.1,-2.532 -0.984,0 -1.572,0.564 -1.812,0.948 h -0.036 l -0.084,-0.816 h -1.584 c 0.024,0.528 0.048,1.14 0.048,1.872 z"
     id="text6"
     transform="matrix(3.2237257,0,0,3.2237257,-23.583421,-41.537918)"
     aria-label="An" />
</svg>
