<?xml version="1.0" encoding="UTF-8" standalone="no"?>
<svg
   width="64"
   height="64"
   version="1.1"
   id="svg12"
   sodipodi:docname="adventures-of-shuggy.svg"
   inkscape:version="1.3.2 (091e20ef0f, 2023-11-25, custom)"
   xmlns:inkscape="http://www.inkscape.org/namespaces/inkscape"
   xmlns:sodipodi="http://sodipodi.sourceforge.net/DTD/sodipodi-0.dtd"
   xmlns:xlink="http://www.w3.org/1999/xlink"
   xmlns="http://www.w3.org/2000/svg"
   xmlns:svg="http://www.w3.org/2000/svg">
  <defs
     id="defs12">
    <inkscape:path-effect
       effect="fillet_chamfer"
       id="path-effect3"
       is_visible="true"
       lpeversion="1"
       nodesatellites_param="F,0,0,1,0,0,0,1 @ F,0,1,1,0,2.1023717,0,1 @ F,0,1,1,0,2.1023717,0,1 @ F,0,0,1,0,0,0,1 @ F,0,0,1,0,0,0,1 @ F,0,0,1,0,0,0,1 @ F,0,0,1,0,0,0,1 @ F,0,0,1,0,0,0,1 @ F,0,0,1,0,0,0,1 @ F,0,0,1,0,0,0,1 @ F,0,0,1,0,0,0,1 @ F,0,0,1,0,0,0,1 @ F,0,0,1,0,0,0,1 @ F,0,0,1,0,0,0,1 @ F,0,0,1,0,0,0,1 @ F,0,0,1,0,0,0,1 @ F,0,0,1,0,0,0,1 @ F,0,0,1,0,0,0,1 @ F,0,0,1,0,0,0,1 @ F,0,0,1,0,0,0,1 @ F,0,0,1,0,0,0,1 @ F,0,0,1,0,0,0,1 @ F,0,0,1,0,0,0,1 @ F,0,0,1,0,0,0,1 @ F,0,0,1,0,0,0,1 @ F,0,0,1,0,0,0,1 @ F,0,0,1,0,0,0,1 @ F,0,0,1,0,0,0,1 @ F,0,1,1,0,2.1023717,0,1 @ F,0,0,1,0,2.1023717,0,1 | F,0,0,1,0,0,0,1 @ F,0,0,1,0,0,0,1 @ F,0,0,1,0,0,0,1 @ F,0,0,1,0,0,0,1 @ F,0,0,1,0,0,0,1 @ F,0,0,1,0,0,0,1 @ F,0,0,1,0,0,0,1 @ F,0,0,1,0,0,0,1 @ F,0,0,1,0,0,0,1 @ F,0,0,1,0,0,0,1 @ F,0,0,1,0,0,0,1 @ F,0,0,1,0,0,0,1 @ F,0,0,1,0,0,0,1 @ F,0,0,1,0,0,0,1 @ F,0,0,1,0,0,0,1 @ F,0,0,1,0,0,0,1 @ F,0,0,1,0,0,0,1 | F,0,0,1,0,0,0,1 @ F,0,0,1,0,0,0,1 @ F,0,0,1,0,0,0,1 @ F,0,0,1,0,0,0,1 @ F,0,0,1,0,0,0,1 | F,0,0,1,0,0,0,1 @ F,0,0,1,0,0,0,1 @ F,0,0,1,0,0,0,1 | F,0,0,1,0,0,0,1 @ F,0,0,1,0,0,0,1 @ F,0,0,1,0,0,0,1 | F,0,0,1,0,0,0,1 @ F,0,0,1,0,0,0,1 | F,0,0,1,0,0,0,1 @ F,0,0,1,0,0,0,1 @ F,0,0,1,0,0,0,1 @ F,0,0,1,0,0,0,1 @ F,0,0,1,0,0,0,1 @ F,0,0,1,0,0,0,1 @ F,0,0,1,0,0,0,1 | F,0,0,1,0,0,0,1 @ F,0,0,1,0,0,0,1 @ F,0,0,1,0,0,0,1 @ F,0,0,1,0,0,0,1 | F,0,0,1,0,0,0,1 @ F,0,0,1,0,0,0,1 @ F,0,0,1,0,0,0,1 @ F,0,0,1,0,0,0,1 @ F,0,0,1,0,0,0,1 @ F,0,0,1,0,0,0,1 | F,0,0,1,0,0,0,1 @ F,0,0,1,0,0,0,1 @ F,0,0,1,0,0,0,1 @ F,0,0,1,0,0,0,1 @ F,0,0,1,0,0,0,1 @ F,0,0,1,0,0,0,1 @ F,0,0,1,0,0,0,1 @ F,0,0,1,0,0,0,1 | F,0,0,1,0,0,0,1 @ F,0,0,1,0,0,0,1 @ F,0,0,1,0,0,0,1 @ F,0,0,1,0,0,0,1 | F,0,0,1,0,0,0,1 @ F,0,0,1,0,0,0,1 @ F,0,0,1,0,0,0,1 @ F,0,0,1,0,0,0,1 | F,0,0,1,0,0,0,1 @ F,0,0,1,0,0,0,1 @ F,0,0,1,0,0,0,1"
       radius="0"
       unit="px"
       method="auto"
       mode="F"
       chamfer_steps="1"
       flexible="false"
       use_knot_distance="true"
       apply_no_radius="true"
       apply_with_radius="true"
       only_selected="false"
       hide_knots="false" />
    <inkscape:path-effect
       effect="fillet_chamfer"
       id="path-effect2"
       is_visible="true"
       lpeversion="1"
       nodesatellites_param="F,0,0,1,0,0,0,1 @ F,0,0,1,0,0,0,1 @ F,0,0,1,0,0,0,1 @ F,0,0,1,0,0,0,1 @ F,0,0,1,0,3.6990142,0,1 @ F,0,0,1,0,0,0,1 @ F,0,0,1,0,0,0,1 @ F,0,0,1,0,0,0,1 @ F,0,0,1,0,0,0,1 @ F,0,0,1,0,0,0,1 | F,0,0,1,0,0,0,1 @ F,0,0,1,0,1.0065456,0,1 @ F,0,0,1,0,1.0065456,0,1 @ F,0,0,1,0,0,0,1 @ F,0,0,1,0,0,0,1 @ F,0,0,1,0,0,0,1 @ F,0,0,1,0,0,0,1 @ F,0,0,1,0,0,0,1 @ F,0,0,1,0,0,0,1 @ F,0,0,1,0,0,0,1 @ F,0,0,1,0,0,0,1 @ F,0,0,1,0,0,0,1 @ F,0,0,1,0,0,0,1 @ F,0,0,1,0,0,0,1 @ F,0,0,1,0,0,0,1 @ F,0,0,1,0,3.6990142,0,1 @ F,0,0,1,0,0,0,1 @ F,0,0,1,0,0,0,1 @ F,0,0,1,0,0,0,1 @ F,0,0,1,0,0,0,1 @ F,0,0,1,0,0,0,1 @ F,0,0,1,0,0,0,1 @ F,0,0,1,0,0,0,1 @ F,0,0,1,0,0,0,1 @ F,0,0,1,0,0,0,1 @ F,0,0,1,0,3.6990142,0,1 @ F,0,0,1,0,0,0,1 @ F,0,0,1,0,0,0,1 @ F,0,0,1,0,0,0,1 @ F,0,0,1,0,0,0,1 @ F,0,0,1,0,0,0,1 @ F,0,0,1,0,0,0,1 @ F,0,0,1,0,0,0,1 @ F,0,0,1,0,0,0,1 @ F,0,0,1,0,0,0,1 | F,0,0,1,0,0,0,1 @ F,0,0,1,0,0,0,1 @ F,0,0,1,0,0,0,1 @ F,0,0,1,0,0,0,1 @ F,0,0,1,0,0,0,1 @ F,0,0,1,0,0,0,1 | F,0,0,1,0,0,0,1 @ F,0,0,1,0,0,0,1 @ F,0,0,1,0,0,0,1 @ F,0,0,1,0,0,0,1 @ F,0,0,1,0,0,0,1 @ F,0,0,1,0,0,0,1 @ F,0,0,1,0,0,0,1 @ F,0,0,1,0,0,0,1 | F,0,0,1,0,0,0,1 @ F,0,0,1,0,0,0,1 @ F,0,0,1,0,0,0,1 @ F,0,0,1,0,0,0,1 | F,0,0,1,0,0,0,1 @ F,0,0,1,0,0,0,1 @ F,0,0,1,0,0,0,1 @ F,0,0,1,0,0,0,1 | F,0,0,1,0,0,0,1 @ F,0,0,1,0,0,0,1 @ F,0,0,1,0,0,0,1"
       radius="0"
       unit="px"
       method="auto"
       mode="F"
       chamfer_steps="1"
       flexible="false"
       use_knot_distance="true"
       apply_no_radius="true"
       apply_with_radius="true"
       only_selected="false"
       hide_knots="false" />
    <inkscape:path-effect
       effect="fillet_chamfer"
       id="path-effect1"
       is_visible="true"
       lpeversion="1"
       nodesatellites_param="F,0,0,1,0,0,0,1 @ F,0,0,1,0,3.7911518,0,1 @ F,0,0,1,0,0,0,1 @ F,0,1,1,0,3.7911518,0,1 @ F,0,0,1,0,0,0,1 @ F,0,0,1,0,2.2540188,0,1 @ F,0,0,1,0,2.2540188,0,1"
       radius="0"
       unit="px"
       method="auto"
       mode="F"
       chamfer_steps="1"
       flexible="false"
       use_knot_distance="true"
       apply_no_radius="true"
       apply_with_radius="true"
       only_selected="false"
       hide_knots="false" />
    <linearGradient
       id="linearGradient22"
       inkscape:collect="always">
      <stop
         style="stop-color:#fff327;stop-opacity:1;"
         offset="0"
         id="stop22" />
      <stop
         style="stop-color:#fcae65;stop-opacity:1;"
         offset="1"
         id="stop23" />
    </linearGradient>
    <linearGradient
       id="linearGradient12"
       inkscape:collect="always">
      <stop
         style="stop-color:#e4e4e4;stop-opacity:1;"
         offset="0"
         id="stop12" />
      <stop
         style="stop-color:#dadada;stop-opacity:1;"
         offset="1"
         id="stop13" />
    </linearGradient>
    <radialGradient
       inkscape:collect="always"
       xlink:href="#linearGradient12"
       id="radialGradient13"
       cx="32"
       cy="53"
       fx="32"
       fy="53"
       r="14"
       gradientTransform="matrix(1,0,0,0.5,0,26.5)"
       gradientUnits="userSpaceOnUse" />
    <radialGradient
       inkscape:collect="always"
       xlink:href="#linearGradient22"
       id="radialGradient23"
       cx="26.090496"
       cy="28.732418"
       fx="26.090496"
       fy="28.732418"
       r="14"
       gradientTransform="matrix(1.6176186,2.8017976,-1.4008989,0.80880933,13.656015,-71.578528)"
       gradientUnits="userSpaceOnUse" />
    <filter
       inkscape:collect="always"
       style="color-interpolation-filters:sRGB"
       id="filter3"
       x="-0.059035839"
       y="-0.06156758"
       width="1.1181498"
       height="1.1210647">
      <feGaussianBlur
         inkscape:collect="always"
         stdDeviation="1.3220223"
         id="feGaussianBlur3" />
    </filter>
  </defs>
  <sodipodi:namedview
     id="namedview12"
     pagecolor="#ffffff"
     bordercolor="#000000"
     borderopacity="0.25"
     inkscape:showpageshadow="2"
     inkscape:pageopacity="0.0"
     inkscape:pagecheckerboard="0"
     inkscape:deskcolor="#d1d1d1"
     inkscape:zoom="4.4801844"
     inkscape:cx="30.579099"
     inkscape:cy="26.226599"
     inkscape:window-width="1920"
     inkscape:window-height="1011"
     inkscape:window-x="0"
     inkscape:window-y="0"
     inkscape:window-maximized="1"
     inkscape:current-layer="svg12" />
  <path
     d="m12 43-2-8-3 3-3-20s12 11 28 11 28-11 28-11l-3 20-3-3-2 8-6-8h-28z"
     style="fill:#323232"
     id="path2" />
  <path
     d="m18 49 6 11 8-9 8 9 6-11v-3h-28z"
     style="fill:url(#radialGradient13)"
     id="path5" />
  <path
     d="m 15,4 v 41.208848 c 0,2.093796 1.553494,4.496066 3.564899,5.07005 C 21.42416,51.09483 25.957771,52 32,52 38.042583,52 42.576371,51.094724 45.435603,50.278754 47.446724,49.70482 49,47.302644 49,45.208848 V 4 L 39.392581,16.227624 A 4.6375622,4.6375622 154.07861 0 1 35.745981,18 h -7.491962 a 4.6375622,4.6375622 25.921387 0 1 -3.6466,-1.772376 z"
     style="fill:#9966ff"
     id="path7"
     inkscape:path-effect="#path-effect1"
     inkscape:original-d="m15 4v45s6 3 17 3 17-3 17-3v-45l-11 14h-12z" />
  <path
     id="circle8"
     style="fill:url(#radialGradient23);fill-opacity:1"
     d="M 25 32 A 7 7 0 0 0 18 39 A 7 7 0 0 0 25 46 A 7 7 0 0 0 32 39 A 7 7 0 0 0 25 32 z M 32 39 A 7 7 0 0 0 39 46 A 7 7 0 0 0 46 39 A 7 7 0 0 0 39 32 A 7 7 0 0 0 32 39 z " />
  <path
     d="M 14.998047,3.8632813 24.73564,16.39832 a 4.2953763,4.2953763 26.079435 0 0 3.392123,1.660274 h 7.842131 a 4.3257925,4.3257925 154.07986 0 0 3.401334,-1.653077 L 48.998047,4.1542969 V 45.273437 c 0,2.042907 -1.531691,4.345022 -3.492188,4.916016 -5.484428,1.597341 -11.325964,1.9262 -17.009765,1.660156 -3.06877,-0.180998 -6.634503,-0.694789 -9.263672,-1.474609 -0.511725,-0.212838 -1.037143,-0.414565 -1.546875,-0.693359 0.309375,0.277045 0.624868,0.539689 0.935547,0.771484 0.4493,0.33522 0.798963,0.796495 0.976562,1.498047 l 4.441406,8.142578 7.154297,-8.048828 c 1.731449,-0.562663 2.515419,0.944753 3.507813,2.021484 l 5.357422,6.027344 5.203125,-9.533203 c -1.35052,1.985815 -2.420887,4.369433 -3.664063,6.507812 l -1.558594,2.853516 -7.005859,-7.878906 c 4.230893,-0.102652 8.52154,-0.546858 12.587891,-1.751953 1.957556,-0.580138 3.478515,-2.908265 3.478515,-4.951172 v -6.179688 l 2.972657,3.960938 2.003906,-8.015625 3.007812,3.007812 3.035157,-20.236328 c -3.306712,2.866439 -7.071207,5.182859 -11.019532,7.054688 V 3.8632813 L 39.324322,16.303929 a 4.3256883,4.3256883 154.07931 0 1 -3.401303,1.653102 h -7.748381 a 4.3256885,4.3256885 25.920685 0 1 -3.401303,-1.653102 z m 0,0 V 23.921875 c 0,0.475207 -0.300648,0.733729 -0.701172,0.650391 0.487532,0.475243 0.775772,1.030073 0.701172,1.716796 v 12.701172 l -2.925781,3.904297 -1.996094,-7.984375 -2.9921876,2.992188 -2.9375,-19.570313 c -0.062081,0.100459 -0.073448,0.281767 -0.013672,0.574219 l 2.8808594,19.207031 3.0078122,-3.007812 2.003907,8.015625 2.972656,-3.960938 c 0.0046,0.774499 0.02116,1.548511 0.03711,2.322266 -0.04381,-10.756033 0.06445,-37.4746095 0.06445,-37.4746095 l -0.08984,0.03125 z m 0.03711,37.6191407 c 0.01058,2.596655 0.02615,4.539912 0.05859,4.632812 0.608257,2.105686 1.565404,3.005027 2.591797,3.566407 -1.315901,-1.178389 -2.503346,-2.727756 -2.552734,-4.38086 -0.03797,-1.270652 -0.07138,-2.543522 -0.09766,-3.818359 z M 4.1464844,18.332031 c 0.038416,-0.06217 0.099037,-0.08821 0.1757812,-0.08984 -0.071044,-0.06441 -0.1678558,-0.14515 -0.21875,-0.197265 z m 0.1757812,-0.08984 C 5.0400338,18.892883 6.5929534,20.033452 7.7363281,20.84375 6.51801,19.827567 4.9105068,18.229658 4.3222656,18.242187 Z M 7.7363281,20.84375 C 8.1739517,21.208766 8.5607916,21.497869 8.828125,21.603516 8.6418978,21.482447 8.2105085,21.179797 7.7363281,20.84375 Z m 1.0917969,0.759766 c 0.026861,0.01746 0.077353,0.05315 0.095703,0.06445 0.029713,0.04571 0.1089442,0.117003 0.2929688,0.222656 0.2796138,0.160535 0.5940837,0.314736 0.9257812,0.466797 -0.3351357,-0.21532 -0.6270571,-0.407929 -0.8632812,-0.5625 -0.2449592,-0.160286 -0.3739477,-0.197617 -0.3789063,-0.160156 -0.021573,-0.0064 -0.048827,-0.02199 -0.072266,-0.03125 z m 1.314453,0.753906 c 0.779215,0.500635 1.907894,1.175151 3.94336,2.144531 0.07285,0.03469 0.142926,0.05616 0.210937,0.07031 -0.964589,-0.940278 -2.728335,-1.561138 -4.154297,-2.214844 z m 49.837891,-4.234375 -2.966797,19.779297 -2.992188,-2.992188 -1.996093,7.984375 C 51.090768,41.51948 49.852378,40.246176 49.099609,38.810547 V 25.041016 c 3.893111,-1.837781 7.609257,-4.109731 10.88086,-6.917969 z M 25.048828,31.957031 c -4.858445,-0.210337 -8.558907,5.397693 -6.5,9.783203 1.612707,4.262834 7.583847,5.696884 10.984375,2.708985 1.593055,-0.485517 2.464926,-4.864997 2.609375,-4.021485 0.766625,4.771194 6.924041,7.286015 10.816406,4.445313 3.88728,-2.396105 4.198857,-8.584399 0.535157,-11.335938 -3.596709,-3.185956 -9.943011,-1.281735 -11.177735,3.373047 -0.344437,3.018914 -0.716837,-2.447702 -2.283203,-2.886719 -1.304992,-1.305103 -3.135035,-2.07679 -4.984375,-2.066406 z m 0,0.101563 c 4.789947,-0.207308 8.449087,5.324096 6.402344,9.654297 -1.673017,4.420296 -8.098699,5.710266 -11.316406,2.208984 -3.495126,-3.216744 -2.227107,-9.647294 2.208984,-11.316406 0.853077,-0.360229 1.778851,-0.550587 2.705078,-0.546875 z m 14,0 c 4.789947,-0.207308 8.449087,5.324096 6.402344,9.654297 -1.673017,4.420296 -8.098699,5.710266 -11.316406,2.208984 -3.495126,-3.216744 -2.227107,-9.647294 2.208984,-11.316406 0.853077,-0.360229 1.778851,-0.550587 2.705078,-0.546875 z M 18.865234,50.404297 c 3.969085,1.090731 8.08809,1.564983 12.197266,1.638672 l -7.003906,7.878906 z"
     style="stroke:#000000;stroke-width:0.2;filter:url(#filter3)"
     id="path3"
     inkscape:path-effect="#path-effect3"
     inkscape:original-d="M 14.998047,3.8632813 26.025391,18.058594 H 38.072266 L 48.998047,4.1542969 V 45.273437 c 0,2.042907 -1.531691,4.345022 -3.492188,4.916016 -5.484428,1.597341 -11.325964,1.9262 -17.009765,1.660156 -3.06877,-0.180998 -6.634503,-0.694789 -9.263672,-1.474609 -0.511725,-0.212838 -1.037143,-0.414565 -1.546875,-0.693359 0.309375,0.277045 0.624868,0.539689 0.935547,0.771484 0.4493,0.33522 0.798963,0.796495 0.976562,1.498047 l 4.441406,8.142578 7.154297,-8.048828 c 1.731449,-0.562663 2.515419,0.944753 3.507813,2.021484 l 5.357422,6.027344 5.203125,-9.533203 c -1.35052,1.985815 -2.420887,4.369433 -3.664063,6.507812 l -1.558594,2.853516 -7.005859,-7.878906 c 4.230893,-0.102652 8.52154,-0.546858 12.587891,-1.751953 1.957556,-0.580138 3.478515,-2.908265 3.478515,-4.951172 v -6.179688 l 2.972657,3.960938 2.003906,-8.015625 3.007812,3.007812 3.035157,-20.236328 c -3.306712,2.866439 -7.071207,5.182859 -11.019532,7.054688 V 3.8632813 L 38.025391,17.957031 H 26.072266 Z m 0,0 V 23.921875 c 0,0.475207 -0.300648,0.733729 -0.701172,0.650391 0.487532,0.475243 0.775772,1.030073 0.701172,1.716796 v 12.701172 l -2.925781,3.904297 -1.996094,-7.984375 -2.9921876,2.992188 -2.9375,-19.570313 c -0.062081,0.100459 -0.073448,0.281767 -0.013672,0.574219 l 2.8808594,19.207031 3.0078121,-3.007812 2.003907,8.015625 2.972656,-3.960938 c 0.0046,0.774499 0.02116,1.548511 0.03711,2.322266 -0.04381,-10.756033 0.06445,-37.4746095 0.06445,-37.4746095 l -0.08984,0.03125 z m 0.03711,37.6191407 c 0.01058,2.596655 0.02615,4.539912 0.05859,4.632812 0.608257,2.105686 1.565404,3.005027 2.591797,3.566407 -1.315901,-1.178389 -2.503346,-2.727756 -2.552734,-4.38086 -0.03797,-1.270652 -0.07138,-2.543522 -0.09766,-3.818359 z M 4.1464844,18.332031 c 0.038416,-0.06217 0.099037,-0.08821 0.1757812,-0.08984 -0.071044,-0.06441 -0.1678558,-0.14515 -0.21875,-0.197265 z m 0.1757812,-0.08984 C 5.0400338,18.892883 6.5929534,20.033452 7.7363281,20.84375 6.51801,19.827567 4.9105068,18.229658 4.3222656,18.242187 Z M 7.7363281,20.84375 C 8.1739517,21.208766 8.5607916,21.497869 8.828125,21.603516 8.6418978,21.482447 8.2105085,21.179797 7.7363281,20.84375 Z m 1.0917969,0.759766 c 0.026861,0.01746 0.077353,0.05315 0.095703,0.06445 0.029713,0.04571 0.1089442,0.117003 0.2929688,0.222656 0.2796138,0.160535 0.5940837,0.314736 0.9257811,0.466797 -0.3351356,-0.21532 -0.627057,-0.407929 -0.8632811,-0.5625 -0.2449592,-0.160286 -0.3739477,-0.197617 -0.3789063,-0.160156 -0.021573,-0.0064 -0.048827,-0.02199 -0.072266,-0.03125 z m 1.314453,0.753906 c 0.779215,0.500635 1.907894,1.175151 3.94336,2.144531 0.07285,0.03469 0.142926,0.05616 0.210937,0.07031 -0.964589,-0.940278 -2.728335,-1.561138 -4.154297,-2.214844 z m 49.837891,-4.234375 -2.966797,19.779297 -2.992188,-2.992188 -1.996093,7.984375 C 51.090768,41.51948 49.852378,40.246176 49.099609,38.810547 V 25.041016 c 3.893111,-1.837781 7.609257,-4.109731 10.88086,-6.917969 z M 25.048828,31.957031 c -4.858445,-0.210337 -8.558907,5.397693 -6.5,9.783203 1.612707,4.262834 7.583847,5.696884 10.984375,2.708985 1.593055,-0.485517 2.464926,-4.864997 2.609375,-4.021485 0.766625,4.771194 6.924041,7.286015 10.816406,4.445313 3.88728,-2.396105 4.198857,-8.584399 0.535157,-11.335938 -3.596709,-3.185956 -9.943011,-1.281735 -11.177735,3.373047 -0.344437,3.018914 -0.716837,-2.447702 -2.283203,-2.886719 -1.304992,-1.305103 -3.135035,-2.07679 -4.984375,-2.066406 z m 0,0.101563 c 4.789947,-0.207308 8.449087,5.324096 6.402344,9.654297 -1.673017,4.420296 -8.098699,5.710266 -11.316406,2.208984 -3.495126,-3.216744 -2.227107,-9.647294 2.208984,-11.316406 0.853077,-0.360229 1.778851,-0.550587 2.705078,-0.546875 z m 14,0 c 4.789947,-0.207308 8.449087,5.324096 6.402344,9.654297 -1.673017,4.420296 -8.098699,5.710266 -11.316406,2.208984 -3.495126,-3.216744 -2.227107,-9.647294 2.208984,-11.316406 0.853077,-0.360229 1.778851,-0.550587 2.705078,-0.546875 z M 18.865234,50.404297 c 3.969085,1.090731 8.08809,1.564983 12.197266,1.638672 l -7.003906,7.878906 z" />
</svg>
