<?xml version="1.0" encoding="UTF-8" standalone="no"?>
<svg
   width="64"
   height="64"
   version="1"
   id="svg8"
   sodipodi:docname="aegisub.svg"
   inkscape:version="1.3.2 (091e20ef0f, 2023-11-25, custom)"
   xmlns:inkscape="http://www.inkscape.org/namespaces/inkscape"
   xmlns:sodipodi="http://sodipodi.sourceforge.net/DTD/sodipodi-0.dtd"
   xmlns:xlink="http://www.w3.org/1999/xlink"
   xmlns="http://www.w3.org/2000/svg"
   xmlns:svg="http://www.w3.org/2000/svg">
  <defs
     id="defs8">
    <linearGradient
       id="linearGradient8"
       inkscape:collect="always">
      <stop
         style="stop-color:#ff99ba;stop-opacity:1;"
         offset="0"
         id="stop8" />
      <stop
         style="stop-color:#e14377;stop-opacity:1;"
         offset="1"
         id="stop9" />
    </linearGradient>
    <inkscape:path-effect
       effect="fillet_chamfer"
       id="path-effect8"
       is_visible="true"
       lpeversion="1"
       nodesatellites_param="F,0,1,1,0,4.1611814,0,1 @ F,0,1,1,0,4.1611814,0,1 @ F,0,1,1,0,4.1611814,0,1 @ F,0,1,1,0,4.1611814,0,1 @ F,0,0,1,0,4.1611814,0,1 @ F,0,1,1,0,4.1611814,0,1"
       radius="0"
       unit="px"
       method="auto"
       mode="F"
       chamfer_steps="1"
       flexible="false"
       use_knot_distance="true"
       apply_no_radius="true"
       apply_with_radius="true"
       only_selected="false"
       hide_knots="false" />
    <radialGradient
       inkscape:collect="always"
       xlink:href="#linearGradient8"
       id="radialGradient9"
       cx="26.519075"
       cy="29.089611"
       fx="26.519075"
       fy="29.089611"
       r="18.453594"
       gradientTransform="matrix(2.9530856,0,0,3.2268038,-61.303826,-70.322516)"
       gradientUnits="userSpaceOnUse" />
    <inkscape:path-effect
       effect="fillet_chamfer"
       id="path-effect8-5"
       is_visible="true"
       lpeversion="1"
       nodesatellites_param="F,0,1,1,0,4.1611814,0,1 @ F,0,1,1,0,4.1611814,0,1 @ F,0,1,1,0,4.1611814,0,1 @ F,0,1,1,0,4.1611814,0,1 @ F,0,0,1,0,4.1611814,0,1 @ F,0,1,1,0,4.1611814,0,1"
       radius="0"
       unit="px"
       method="auto"
       mode="F"
       chamfer_steps="1"
       flexible="false"
       use_knot_distance="true"
       apply_no_radius="true"
       apply_with_radius="true"
       only_selected="false"
       hide_knots="false" />
    <filter
       inkscape:collect="always"
       style="color-interpolation-filters:sRGB"
       id="filter10"
       x="-0.047740169"
       y="-0.080791077"
       width="1.0954803"
       height="1.1615822">
      <feGaussianBlur
         inkscape:collect="always"
         stdDeviation="0.83356975"
         id="feGaussianBlur10" />
    </filter>
    <filter
       inkscape:collect="always"
       style="color-interpolation-filters:sRGB"
       id="filter11"
       x="-0.095480338"
       y="-0.095480338"
       width="1.1909607"
       height="1.1909607">
      <feGaussianBlur
         inkscape:collect="always"
         stdDeviation="0.83356975"
         id="feGaussianBlur11" />
    </filter>
    <filter
       inkscape:collect="always"
       style="color-interpolation-filters:sRGB"
       id="filter12"
       x="-0.17504729"
       y="-0.17504729"
       width="1.3500946"
       height="1.3500946">
      <feGaussianBlur
         inkscape:collect="always"
         stdDeviation="0.83356975"
         id="feGaussianBlur12" />
    </filter>
  </defs>
  <sodipodi:namedview
     id="namedview8"
     pagecolor="#ffffff"
     bordercolor="#000000"
     borderopacity="0.25"
     inkscape:showpageshadow="2"
     inkscape:pageopacity="0.0"
     inkscape:pagecheckerboard="0"
     inkscape:deskcolor="#d1d1d1"
     inkscape:zoom="9.0487571"
     inkscape:cx="25.196831"
     inkscape:cy="31.33027"
     inkscape:window-width="1920"
     inkscape:window-height="1018"
     inkscape:window-x="0"
     inkscape:window-y="0"
     inkscape:window-maximized="1"
     inkscape:current-layer="svg8" />
  <path
     id="path8"
     style="opacity:1;fill:url(#radialGradient9);fill-opacity:1;stroke:none;stroke-width:0.377953;stroke-linecap:round;stroke-linejoin:round;stroke-miterlimit:2.1;paint-order:markers stroke fill"
     transform="matrix(1.1930548,0.68881052,-0.68881052,1.1930548,16.447063,-27.307555)"
     d="m 27.784505,50.589596 -11.057241,-6.3839 A 7.2073774,7.2073774 59.999999 0 1 13.123575,37.963924 V 25.196122 a 7.2073776,7.2073776 120 0 1 3.603689,-6.241772 l 11.05724,-6.3839 a 7.207378,7.207378 180 0 1 7.207378,0 l 11.05724,6.383899 a 7.2073772,7.2073772 59.999999 0 1 3.603689,6.241772 v 12.767802 a 7.2073781,7.2073781 120 0 1 -3.603689,6.241772 l -11.057239,6.383901 a 7.2073773,7.2073773 180 0 1 -7.207378,0 z"
     inkscape:path-effect="#path-effect8"
     inkscape:original-d="M 31.388194,52.670187 13.123575,42.125105 V 21.034941 L 31.388193,10.489859 49.652811,21.03494 v 21.090164 z" />
  <path
     style="fill:#ffffff;stroke-width:1.04681"
     d="m 32.159684,18.403797 c -12.954295,0 -23.0298589,10.584426 -23.0298589,13.85662 0,4.288111 10.0755639,13.360479 23.0298589,13.360479 12.954295,0 23.029859,-10.584428 23.029859,-13.360479 0,-3.272194 -10.075564,-13.85662 -23.029859,-13.85662 z"
     id="path7" />
  <circle
     style="fill:#1b87e6;stroke-width:1.04681"
     cx="32.159683"
     cy="32.012341"
     r="11.514929"
     id="circle7" />
  <circle
     style="fill:#3f3f3f;stroke-width:1.04681"
     cx="32.159683"
     cy="32.012341"
     r="6.28087"
     id="circle8" />
  <path
     id="path8-3"
     style="fill:none;fill-opacity:1;stroke:#000000;stroke-width:0;stroke-linecap:round;stroke-linejoin:round;stroke-miterlimit:2.1;stroke-dasharray:none;stroke-opacity:1;paint-order:markers stroke fill"
     transform="matrix(1.1930548,0.68881052,-0.68881052,1.1930548,16.464502,-27.154051)"
     d="m 27.784505,50.589596 -11.057241,-6.3839 A 7.2073774,7.2073774 59.999999 0 1 13.123575,37.963924 V 25.196122 a 7.2073776,7.2073776 120 0 1 3.603689,-6.241772 l 11.05724,-6.3839 a 7.207378,7.207378 180 0 1 7.207378,0 l 11.05724,6.383899 a 7.2073772,7.2073772 59.999999 0 1 3.603689,6.241772 v 12.767802 a 7.2073781,7.2073781 120 0 1 -3.603689,6.241772 l -11.057239,6.383901 a 7.2073773,7.2073773 180 0 1 -7.207378,0 z"
     inkscape:original-d="M 31.388194,52.670187 13.123575,42.125105 V 21.034941 L 31.388193,10.489859 49.652811,21.03494 v 21.090164 z"
     inkscape:path-effect="#path-effect8-5" />
  <path
     style="mix-blend-mode:normal;fill:none;stroke:#000000;stroke-width:0.2;stroke-dasharray:none;stroke-opacity:1;filter:url(#filter10)"
     d="m 32,19.122774 c -12.375,0 -22,10.111107 -22,13.236974 0,4.096353 9.625,12.763019 22,12.763019 12.375,0 22,-10.111109 22,-12.763019 0,-3.125867 -9.625,-13.236974 -22,-13.236974 z"
     id="path7-5"
     transform="matrix(1.0468118,0,0,1.0468118,-1.338292,-1.4856374)" />
  <circle
     style="mix-blend-mode:normal;fill:none;stroke:#000000;stroke-width:0.2;stroke-dasharray:none;stroke-opacity:1;filter:url(#filter11)"
     cx="32"
     cy="32.122765"
     r="11"
     id="circle7-6"
     transform="matrix(1.0468118,0,0,1.0468118,-1.338292,-1.4856374)" />
  <circle
     style="mix-blend-mode:normal;fill:none;stroke:#000000;stroke-width:0.2;stroke-dasharray:none;stroke-opacity:1;filter:url(#filter12)"
     cx="32"
     cy="32.122765"
     r="6"
     id="circle8-2"
     transform="matrix(1.0468118,0,0,1.0468118,-1.338292,-1.4856374)" />
</svg>
