<?xml version="1.0" encoding="UTF-8" standalone="no"?>
<svg
   width="64"
   height="64"
   version="1.1"
   id="svg14"
   sodipodi:docname="afl.svg"
   inkscape:version="1.3.2 (091e20ef0f, 2023-11-25, custom)"
   xmlns:inkscape="http://www.inkscape.org/namespaces/inkscape"
   xmlns:sodipodi="http://sodipodi.sourceforge.net/DTD/sodipodi-0.dtd"
   xmlns:xlink="http://www.w3.org/1999/xlink"
   xmlns="http://www.w3.org/2000/svg"
   xmlns:svg="http://www.w3.org/2000/svg">
  <defs
     id="defs14">
    <linearGradient
       id="linearGradient15"
       inkscape:collect="always">
      <stop
         style="stop-color:#2191ad;stop-opacity:1;"
         offset="0"
         id="stop16" />
      <stop
         style="stop-color:#216fad;stop-opacity:1;"
         offset="1"
         id="stop17" />
    </linearGradient>
    <linearGradient
       id="linearGradient14"
       inkscape:collect="always">
      <stop
         style="stop-color:#3bc9ec;stop-opacity:1;"
         offset="0"
         id="stop14" />
      <stop
         style="stop-color:#279bcc;stop-opacity:1;"
         offset="1"
         id="stop15" />
    </linearGradient>
    <radialGradient
       inkscape:collect="always"
       xlink:href="#linearGradient14"
       id="radialGradient15"
       cx="32.000813"
       cy="31.148339"
       fx="32.000813"
       fy="31.148339"
       r="21.487378"
       gradientTransform="matrix(1,0,0,1.0802459,0,-2.4995251)"
       gradientUnits="userSpaceOnUse" />
    <radialGradient
       inkscape:collect="always"
       xlink:href="#linearGradient15"
       id="radialGradient17"
       cx="32.000973"
       cy="49.188553"
       fx="32.000973"
       fy="49.188553"
       r="6.8757372"
       gradientUnits="userSpaceOnUse" />
    <filter
       inkscape:collect="always"
       style="color-interpolation-filters:sRGB"
       id="filter56"
       x="-0.085436692"
       y="-0.076303514"
       width="1.1708734"
       height="1.152607">
      <feGaussianBlur
         inkscape:collect="always"
         stdDeviation="1.5333697"
         id="feGaussianBlur56" />
    </filter>
  </defs>
  <sodipodi:namedview
     id="namedview14"
     pagecolor="#ffffff"
     bordercolor="#000000"
     borderopacity="0.25"
     inkscape:showpageshadow="2"
     inkscape:pageopacity="0.0"
     inkscape:pagecheckerboard="0"
     inkscape:deskcolor="#d1d1d1"
     inkscape:zoom="12.796875"
     inkscape:cx="35.008547"
     inkscape:cy="32.859585"
     inkscape:window-width="1920"
     inkscape:window-height="1018"
     inkscape:window-x="0"
     inkscape:window-y="0"
     inkscape:window-maximized="1"
     inkscape:current-layer="svg14" />
  <circle
     cx="32.000973"
     cy="49.188553"
     r="6.8757372"
     style="fill:url(#radialGradient17);stroke-width:0.859467"
     id="circle2" />
  <path
     id="path4"
     style="fill:#ffffff;stroke-width:0.859467"
     d="m 30.066313,48.329945 c -0.357109,0 -0.6446,0.287492 -0.6446,0.644601 v 3.867602 c 0,0.357108 0.287491,0.6446 0.6446,0.6446 h 1.289201 c 0.357108,0 0.6446,-0.802837 0.6446,-1.159944 0,0.357107 0.287492,1.159944 0.644601,1.159944 h 1.2892 c 0.357109,0 0.644601,-0.287492 0.644601,-0.6446 v -3.867602 c 0,-0.357109 -0.287492,-0.644601 -0.644601,-0.644601 h -1.2892 c -0.357109,0 -0.644601,0.287492 -0.644601,0.644601 0,-0.357109 -0.287492,-0.644601 -0.6446,-0.644601 z" />
  <path
     d="m 12.142421,7.9450599 c -0.18086,-0.015199 -0.343409,-0.00976 -0.490165,0.016786 -0.195675,0.035391 -0.362312,0.1055665 -0.500237,0.2148668 -1.12899,0.8946868 -0.77592,4.4486293 1.17841,11.8411753 1.09589,4.145363 1.999353,6.350974 3.555374,8.688675 1.021721,1.534953 1.515262,2.119326 3.202858,3.787027 1.511386,1.665015 3.41893,3.993246 3.458013,5.952483 -0.434003,3.867614 -3.265979,5.893314 -3.437869,9.185555 0,3.986102 1.857854,6.714587 5.845049,6.714587 2.500933,0.250258 4.807865,-2.986693 7.046959,-3.437868 2.239094,0.451175 4.546026,3.688126 7.046959,3.437868 3.987195,0 5.845049,-2.728485 5.845049,-6.714587 -0.171894,-3.292241 -3.003867,-5.317941 -3.437869,-9.185555 0.03909,-1.959237 1.946626,-4.287471 3.458013,-5.952483 1.687596,-1.667701 2.181137,-2.252074 3.202857,-3.787027 1.556023,-2.337701 2.459484,-4.543314 3.555374,-8.688675 1.95433,-7.392546 2.307401,-10.9464889 1.17841,-11.8411753 -0.137927,-0.1093019 -0.304561,-0.1794756 -0.500236,-0.2148668 -0.146762,-0.02654 -0.309306,-0.031983 -0.490166,-0.016794 -0.542581,0.045596 -1.241572,0.2791701 -2.115093,0.7050316 -1.73232,0.8445663 -3.426325,2.0904905 -5.334741,3.9280415 -2.863693,2.757339 -3.886801,4.337885 -7.258468,11.199932 -1.007041,2.044526 -2.242754,4.03242 -3.753455,6.204279 -0.439012,0.302231 -1.396634,0.298798 -1.396634,0.298798 0,0 -0.957622,0.0034 -1.396634,-0.298798 C 29.093478,27.810477 27.857765,25.822583 26.850724,23.778057 23.479057,16.91601 22.45595,15.335464 19.592256,12.578125 17.683841,10.740574 15.989835,9.4946502 14.257516,8.6500915 13.383993,8.22423 12.685001,7.990656 12.142421,7.9450599 Z"
     style="fill:url(#radialGradient15);stroke-width:0.859467"
     id="path7" />
  <path
     id="path14"
     style="opacity:0.3;stroke-width:0.740047"
     d="M 14.972656 13.925781 C 14.975856 14.149271 14.947946 14.232383 14.978516 14.541016 C 15.121969 15.985399 15.596109 18.28461 16.425781 21.423828 C 17.345462 24.903608 18.001248 26.479051 19.214844 28.302734 L 19.212891 28.302734 C 20.057355 29.571736 20.281254 29.8309 21.708984 31.242188 L 21.75 31.28125 L 21.785156 31.324219 C 22.395845 31.997168 23.146184 32.77258 23.800781 33.683594 C 24.867411 32.48713 26.195894 31.553666 27.683594 30.957031 C 26.636012 29.264709 25.780847 27.534382 25.082031 26.115234 L 25.082031 26.113281 C 22.191866 20.229455 21.607143 19.309072 19.244141 17.033203 C 17.701814 15.547739 16.420785 14.620768 15.171875 14.011719 C 14.999529 13.927679 15.110516 13.975681 14.972656 13.925781 z M 48.992188 14.271484 C 48.902161 14.310404 48.898514 14.295197 48.794922 14.345703 C 47.548118 14.953725 46.270194 15.880322 44.730469 17.363281 C 42.371453 19.63531 41.787704 20.551853 38.902344 26.425781 L 38.902344 26.427734 C 38.204379 27.84515 37.349224 29.575409 36.302734 31.265625 C 37.788652 31.86098 39.116233 32.791628 40.181641 33.986328 C 40.835351 33.076266 41.581431 32.301047 42.191406 31.628906 L 42.228516 31.585938 L 42.269531 31.548828 C 43.694854 30.139922 43.916728 29.880141 44.759766 28.613281 L 44.757812 28.613281 C 45.969312 26.792672 46.62484 25.220004 47.542969 21.746094 C 48.371242 18.612173 48.843116 16.316946 48.986328 14.875 C 49.016468 14.571971 48.988888 14.492403 48.992188 14.271484 z " />
  <path
     d="m 32.000112,50.908347 c -2.213458,-0.169814 -4.114224,-2.634924 -3.205546,-3.849777 0.969612,-0.957993 2.186562,-1.318261 3.205546,-1.30676 1.018987,-0.01134 2.235938,0.348767 3.20555,1.30676 0.908678,1.214853 -0.992085,3.679972 -3.20555,3.849777 z"
     style="fill:#bf3667;stroke-width:0.859467"
     id="path9" />
  <path
     id="path11"
     style="fill:#ffffff;stroke-width:0.859467"
     d="m 24.029899,38.875806 c -1.634403,0 -1.480567,1.154392 -1.480567,2.578402 0,1.42401 2.360778,2.578401 3.99518,2.578401 1.923577,0 1.686448,-4.721281 -2.514613,-5.156803 z m 15.942109,0 c -4.201061,0.435522 -4.439869,5.156803 -2.516292,5.156803 1.634402,0 3.99518,-1.154391 3.99518,-2.578401 0,-1.42401 0.155508,-2.578402 -1.478888,-2.578402 z" />
  <path
     id="circle11"
     style="fill:#323232;stroke-width:0.859467"
     d="m 26.413578,41.454208 a 1.2892008,1.2892008 0 0 0 -1.289201,1.289201 1.2892008,1.2892008 0 0 0 1.289201,1.2892 1.2892008,1.2892008 0 0 0 1.2892,-1.2892 1.2892008,1.2892008 0 0 0 -1.2892,-1.289201 z m 11.173073,0 a 1.2892008,1.2892008 0 0 0 -1.289201,1.289201 1.2892008,1.2892008 0 0 0 1.289201,1.2892 1.2892008,1.2892008 0 0 0 1.289201,-1.2892 1.2892008,1.2892008 0 0 0 -1.289201,-1.289201 z" />
  <path
     id="path50"
     style="filter:url(#filter56)"
     d="M 11.900391 7.8789062 C 11.816871 7.8817462 11.736416 7.8904799 11.660156 7.9042969 C 11.45798 7.9408628 11.283777 8.0139173 11.138672 8.1289062 C 10.842803 8.3633719 10.649079 8.7661248 10.552734 9.3476562 C 10.456394 9.9291867 10.456844 10.691378 10.552734 11.65625 C 10.744518 13.585991 11.321355 16.325997 12.298828 20.023438 C 13.395324 24.171089 14.302222 26.384227 15.861328 28.726562 C 16.883926 30.262832 17.382056 30.85118 19.070312 32.519531 C 20.579894 34.182739 22.475235 36.512615 22.513672 38.439453 C 22.296446 40.357965 21.486006 41.821522 20.703125 43.220703 C 19.919068 44.621987 19.160882 45.961234 19.074219 47.621094 L 19.074219 47.623047 C 19.074219 49.623853 19.54095 51.31548 20.513672 52.507812 C 21.485276 53.698775 22.963369 54.385138 24.964844 54.386719 C 25.656597 54.45594 26.331365 54.262519 26.990234 53.939453 C 28.25227 55.272074 30.037526 56.107211 32.017578 56.107422 C 33.998772 56.107774 35.784366 55.273011 37.046875 53.939453 C 37.705744 54.262519 38.378558 54.45594 39.070312 54.386719 C 41.071786 54.385119 42.54988 53.698775 43.521484 52.507812 C 44.494208 51.31548 44.960938 49.623853 44.960938 47.623047 L 44.960938 47.621094 C 44.874238 45.961244 44.117555 44.621988 43.333984 43.220703 C 42.551593 41.821522 41.740662 40.357973 41.523438 38.439453 C 41.561877 36.512582 43.455275 34.18272 44.964844 32.519531 L 44.966797 32.517578 C 46.652815 30.851347 47.151789 30.261981 48.173828 28.726562 C 49.732927 26.384227 50.639849 24.171088 51.736328 20.023438 C 52.713807 16.326001 53.290142 13.585987 53.482422 11.65625 C 53.578522 10.69138 53.578522 9.9291877 53.482422 9.3476562 C 53.386222 8.7661238 53.194317 8.3633763 52.898438 8.1289062 C 52.753338 8.0139134 52.579123 7.9408644 52.376953 7.9042969 C 52.224743 7.8767739 52.057177 7.8712538 51.873047 7.8867188 C 51.319837 7.9332117 50.616723 8.1703488 49.740234 8.5976562 C 48.002076 9.4450704 46.301555 10.695189 44.390625 12.535156 C 41.524366 15.294965 40.495111 16.88519 37.123047 23.748047 C 36.119083 25.786327 34.885489 27.768945 33.378906 29.935547 C 33.172972 30.075082 32.833701 30.151259 32.544922 30.1875 C 32.254097 30.224 32.017578 30.222656 32.017578 30.222656 C 32.017578 30.222656 31.781061 30.22396 31.490234 30.1875 C 31.201457 30.15126 30.862186 30.075081 30.65625 29.935547 C 29.149668 27.768938 27.916074 25.786327 26.912109 23.748047 C 23.540044 16.88519 22.510793 15.294965 19.644531 12.535156 C 17.73362 10.695201 16.03505 9.4450694 14.296875 8.5976562 C 13.420386 8.1703489 12.717268 7.9332086 12.164062 7.8867188 C 12.072093 7.8789888 11.984389 7.8760433 11.900391 7.8789062 z M 11.904297 7.9804688 C 11.983477 7.9777788 12.067361 7.9808157 12.15625 7.9882812 C 12.688195 8.0329842 13.383361 8.2630894 14.253906 8.6875 C 15.980341 9.5291882 17.668332 10.770353 19.574219 12.605469 C 22.435299 15.360291 23.451048 16.929887 26.822266 23.791016 C 27.830787 25.838547 29.068521 27.830807 30.580078 30.003906 L 30.585938 30.009766 L 30.591797 30.015625 C 30.825358 30.176416 31.180853 30.249751 31.478516 30.287109 C 31.776177 30.324469 32.017578 30.324219 32.017578 30.324219 C 32.017578 30.324219 32.258978 30.324468 32.556641 30.287109 C 32.854302 30.249749 33.2098 30.176417 33.443359 30.015625 L 33.449219 30.009766 L 33.457031 30.003906 C 34.96859 27.830814 36.206323 25.838547 37.214844 23.791016 C 40.586058 16.929887 41.60181 15.360291 44.462891 12.605469 C 46.368768 10.770365 48.058718 9.5292022 49.785156 8.6875 C 50.655685 8.2630895 51.350863 8.0329877 51.882812 7.9882812 C 52.060402 7.9733663 52.218035 7.9763962 52.359375 8.0019531 C 52.548525 8.0361691 52.707151 8.1034217 52.837891 8.2070312 C 53.10651 8.4199005 53.292859 8.7976379 53.386719 9.3652344 C 53.480619 9.9328308 53.482319 10.686811 53.386719 11.646484 C 53.195479 13.565829 52.617454 16.301043 51.640625 19.996094 C 50.545366 24.139101 49.646648 26.338848 48.09375 28.671875 C 47.072921 30.205487 46.583413 30.782197 44.896484 32.449219 L 44.892578 32.451172 C 43.37968 34.117858 41.461596 36.444698 41.421875 38.435547 L 41.421875 38.439453 L 41.425781 38.443359 C 41.644018 40.388165 42.464346 41.868011 43.248047 43.269531 C 44.031747 44.671052 44.776094 45.992638 44.861328 47.625 C 44.860998 49.609338 44.398304 51.275214 43.445312 52.443359 C 42.491986 53.611918 41.048581 54.287109 39.066406 54.287109 L 39.0625 54.287109 L 39.058594 54.289062 C 38.402431 54.354722 37.758238 54.170317 37.121094 53.861328 C 36.585865 53.601764 36.05578 53.253354 35.53125 52.880859 C 35.227758 52.666747 34.925028 52.444402 34.625 52.228516 C 34.60644 52.215166 34.588432 52.202443 34.570312 52.189453 C 34.297258 51.99364 34.024937 51.802028 33.753906 51.628906 C 33.735636 51.617236 33.719048 51.608429 33.705078 51.599609 C 33.685478 51.587239 33.666824 51.57516 33.646484 51.5625 C 33.547534 51.50093 33.448241 51.44292 33.349609 51.386719 C 33.326979 51.373829 33.30329 51.361879 33.28125 51.349609 C 33.154436 51.279039 33.029426 51.21204 32.902344 51.152344 C 32.889884 51.146544 32.879244 51.142442 32.871094 51.138672 C 32.740804 51.078492 32.608472 51.024316 32.478516 50.978516 L 32.476562 50.978516 C 32.462073 50.973416 32.446381 50.967881 32.431641 50.962891 C 32.384789 50.947055 32.337778 50.933768 32.291016 50.919922 C 33.310524 50.757573 34.235735 50.133549 34.830078 49.398438 C 35.153145 48.998855 35.377751 48.565147 35.464844 48.150391 C 35.551934 47.735634 35.498754 47.338382 35.261719 47.021484 L 35.259766 47.017578 L 35.257812 47.015625 C 34.277989 46.047347 33.048774 45.681883 32.017578 45.693359 C 30.986374 45.681719 29.757365 46.047349 28.777344 47.015625 L 28.775391 47.017578 L 28.773438 47.021484 C 28.536405 47.338382 28.483219 47.735635 28.570312 48.150391 C 28.657402 48.565146 28.882012 48.998856 29.205078 49.398438 C 29.798988 50.133009 30.72552 50.755061 31.744141 50.917969 C 31.697193 50.931865 31.650556 50.946992 31.603516 50.962891 C 31.587926 50.968091 31.573394 50.973306 31.558594 50.978516 C 31.42809 51.024446 31.294908 51.078236 31.164062 51.138672 C 31.155763 51.142472 31.145432 51.146374 31.132812 51.152344 C 31.005731 51.212034 30.880719 51.27904 30.753906 51.349609 L 30.751953 51.349609 C 30.746853 51.352509 30.739572 51.356011 30.726562 51.363281 L 30.724609 51.363281 C 30.719209 51.366281 30.716344 51.369694 30.714844 51.371094 L 30.712891 51.371094 C 30.703691 51.376294 30.694377 51.381669 30.685547 51.386719 C 30.586907 51.442919 30.487622 51.500927 30.388672 51.5625 C 30.368642 51.57496 30.349338 51.587439 30.330078 51.599609 C 30.316058 51.608409 30.29954 51.617216 30.28125 51.628906 C 30.010221 51.802028 29.737895 51.99364 29.464844 52.189453 C 29.455944 52.195853 29.445664 52.202278 29.433594 52.210938 C 29.423694 52.217937 29.416436 52.223996 29.410156 52.228516 C 29.107137 52.446556 28.802513 52.670456 28.496094 52.886719 C 27.974228 53.25706 27.448477 53.603106 26.916016 53.861328 C 26.278871 54.170317 25.632724 54.354722 24.976562 54.289062 L 24.972656 54.287109 L 24.970703 54.287109 C 22.988528 54.287109 21.545124 53.611918 20.591797 52.443359 C 19.63847 51.274801 19.175781 49.608312 19.175781 47.623047 C 19.261511 45.991614 20.007144 44.67048 20.791016 43.269531 C 21.575205 41.868011 22.395045 40.388173 22.613281 38.443359 L 22.615234 38.439453 L 22.615234 38.435547 C 22.575524 36.444665 20.655469 34.117845 19.142578 32.451172 L 19.140625 32.449219 C 17.453714 30.782197 16.964188 30.205487 15.943359 28.671875 C 14.39045 26.338848 13.491753 24.139104 12.396484 19.996094 C 11.419644 16.301047 10.843092 13.565825 10.652344 11.646484 C 10.556964 10.686813 10.558304 9.9328318 10.652344 9.3652344 C 10.746384 8.7976369 10.93255 8.4199049 11.201172 8.2070312 C 11.331917 8.1034218 11.490515 8.0361671 11.679688 8.0019531 C 11.750177 7.9891811 11.824642 7.9831727 11.904297 7.9804688 z M 26.916016 53.861328 C 26.935816 53.851728 26.954829 53.839928 26.974609 53.830078 L 26.914062 53.859375 L 26.916016 53.861328 z M 26.974609 53.830078 C 27.163818 53.735888 27.351282 53.632809 27.539062 53.519531 C 27.361141 53.6268 27.18009 53.723847 27 53.814453 C 26.98592 53.821553 26.978939 53.827918 26.974609 53.830078 z M 37.121094 53.861328 L 37.123047 53.859375 L 37.0625 53.830078 C 37.082362 53.839967 37.101208 53.85169 37.121094 53.861328 z M 14.943359 13.847656 L 14.939453 13.917969 C 14.942553 14.137108 14.916216 14.226573 14.947266 14.539062 C 15.091272 15.989023 15.564529 18.289213 16.394531 21.429688 C 16.684325 22.526172 16.94988 23.420616 17.214844 24.207031 C 17.468275 24.959217 17.722764 25.616395 17.998047 26.205078 C 18.037329 26.289056 18.078906 26.367201 18.119141 26.449219 C 18.318355 26.860956 18.52577 27.258065 18.759766 27.644531 C 18.880401 27.843771 19.009849 28.042676 19.142578 28.244141 L 19.136719 28.244141 L 19.189453 28.322266 C 20.034429 29.592039 20.263369 29.857941 21.691406 31.269531 L 21.730469 31.306641 L 21.765625 31.349609 C 22.377161 32.023491 23.125473 32.797856 23.777344 33.705078 L 23.814453 33.755859 L 23.855469 33.708984 C 24.916964 32.51828 26.240194 31.589846 27.720703 30.996094 L 27.775391 30.972656 L 27.744141 30.923828 C 26.70068 29.238164 25.84825 27.514829 25.150391 26.097656 L 25.150391 26.09375 L 25.144531 26.085938 L 25.144531 26.083984 C 23.680003 23.102483 22.806267 21.39654 21.992188 20.138672 C 21.802583 19.8457 21.615513 19.572624 21.425781 19.318359 C 21.178563 18.987187 20.916223 18.679075 20.642578 18.373047 C 20.604688 18.330671 20.56445 18.287114 20.525391 18.244141 C 20.161753 17.84603 19.769682 17.445607 19.296875 16.990234 C 18.891156 16.599474 18.505038 16.249941 18.130859 15.931641 C 18.12708 15.928428 18.122918 15.927034 18.119141 15.923828 C 17.784848 15.639847 17.459897 15.377153 17.144531 15.144531 C 17.125081 15.130191 17.107291 15.119629 17.087891 15.105469 C 16.438088 14.630863 15.819915 14.255961 15.210938 13.958984 C 15.136418 13.922644 15.135917 13.925992 15.123047 13.919922 C 15.106297 13.912022 15.084876 13.898994 15.007812 13.871094 L 14.943359 13.847656 z M 17.214844 24.207031 C 17.157294 24.036243 17.098812 23.874339 17.041016 23.691406 C 17.043516 23.699406 17.046328 23.71079 17.048828 23.71875 C 17.104208 23.894438 17.159702 24.042565 17.214844 24.207031 z M 15.041016 13.994141 C 15.058126 13.999641 15.055356 13.99391 15.167969 14.048828 C 16.411012 14.655015 17.686725 15.577481 19.226562 17.060547 C 19.84243 17.653706 20.335161 18.157241 20.78125 18.677734 C 20.782435 18.679116 20.783974 18.680259 20.785156 18.681641 C 22.045668 20.153552 22.920953 21.783671 25.048828 26.115234 L 25.048828 26.119141 L 25.054688 26.126953 L 25.054688 26.128906 C 25.746751 27.534344 26.597496 29.248561 27.632812 30.927734 C 26.176368 31.520847 24.877067 32.43739 23.824219 33.605469 C 23.17575 32.712077 22.440739 31.945069 21.841797 31.285156 L 21.839844 31.283203 L 21.804688 31.240234 L 21.761719 31.199219 L 21.761719 31.197266 C 20.34147 29.793407 20.116602 29.534004 19.28125 28.279297 L 19.273438 28.267578 C 19.113971 28.027946 18.965864 27.793093 18.824219 27.556641 C 18.529547 27.066965 18.269621 26.568171 18.025391 26.029297 C 18.021106 26.019868 18.015993 26.011407 18.011719 26.001953 C 17.832817 25.605141 17.660021 25.184195 17.492188 24.71875 C 17.489068 24.710099 17.485538 24.700123 17.482422 24.691406 C 17.352217 24.328769 17.222662 23.934847 17.091797 23.511719 C 17.09017 23.506458 17.087565 23.49941 17.085938 23.494141 C 16.894974 22.875596 16.701112 22.192845 16.492188 21.402344 C 15.66286 18.264433 15.18782 15.966125 15.044922 14.527344 C 15.018402 14.260666 15.038316 14.165948 15.041016 13.994141 z M 49.009766 14.208984 L 48.990234 14.216797 C 48.947634 14.235217 48.928544 14.240347 48.902344 14.248047 C 48.876144 14.255747 48.844746 14.266749 48.791016 14.292969 C 47.538347 14.903859 46.255065 15.834995 44.712891 17.320312 C 42.352022 19.594126 41.760605 20.522056 38.875 26.396484 L 38.875 26.398438 L 38.869141 26.40625 L 38.869141 26.410156 C 38.172126 27.825607 37.31971 29.548867 36.277344 31.232422 L 36.246094 31.28125 L 36.300781 31.304688 C 37.779533 31.897172 39.101858 32.822803 40.162109 34.011719 L 40.203125 34.058594 L 40.240234 34.007812 C 40.891274 33.101471 41.635347 32.327291 42.246094 31.654297 L 42.28125 31.613281 L 42.322266 31.578125 L 42.322266 31.576172 C 43.747919 30.166941 43.974838 29.900407 44.818359 28.632812 L 44.871094 28.554688 L 44.857422 28.554688 C 46.039961 26.761338 46.703366 25.17999 47.609375 21.751953 C 48.437984 18.616761 48.908975 16.320537 49.052734 14.873047 C 49.083234 14.566228 49.057547 14.48034 49.060547 14.263672 L 49.060547 14.232422 L 49.009766 14.208984 z M 48.958984 14.333984 C 48.960984 14.506033 48.981478 14.597297 48.955078 14.861328 C 48.812418 16.297706 48.339648 18.592008 47.511719 21.724609 C 46.59414 25.196411 45.943116 26.761663 44.734375 28.578125 L 44.726562 28.589844 C 43.8923 29.842938 43.671266 30.102897 42.251953 31.505859 L 42.210938 31.542969 L 42.171875 31.587891 C 41.573289 32.247485 40.841366 33.015017 40.193359 33.908203 C 39.141919 32.742124 37.842966 31.830105 36.388672 31.238281 C 37.422925 29.561155 38.273624 27.845122 38.964844 26.441406 L 38.964844 26.439453 L 38.970703 26.431641 L 38.970703 26.427734 C 41.183847 21.92269 42.04495 20.343135 43.392578 18.822266 C 43.395953 18.818465 43.398975 18.814343 43.402344 18.810547 C 43.804426 18.357669 44.243833 17.910107 44.783203 17.390625 C 45.036339 17.146822 45.279706 16.923579 45.519531 16.708984 C 45.279663 16.923486 45.03637 17.146791 44.783203 17.390625 C 45.132369 17.054333 45.464452 16.755609 45.789062 16.474609 C 45.767232 16.493527 45.74654 16.510143 45.724609 16.529297 C 45.779507 16.481311 45.836344 16.429328 45.890625 16.382812 C 46.048869 16.247206 46.203985 16.119654 46.357422 15.996094 C 46.255711 16.077918 46.148697 16.172695 46.044922 16.259766 C 46.281252 16.061658 46.511983 15.878891 46.738281 15.707031 C 46.630475 15.788894 46.524028 15.86147 46.414062 15.949219 C 46.659663 15.753017 46.897245 15.575784 47.132812 15.408203 C 47.099006 15.432242 47.063286 15.461726 47.029297 15.486328 C 47.304239 15.287056 47.573045 15.099793 47.837891 14.935547 C 47.611403 15.075929 47.384102 15.230803 47.150391 15.396484 C 47.383063 15.231472 47.612361 15.07535 47.837891 14.935547 C 47.840262 14.934077 47.843332 14.933108 47.845703 14.931641 C 47.849515 14.92928 47.853611 14.926182 47.857422 14.923828 C 47.880801 14.909394 47.904416 14.895038 47.927734 14.880859 C 47.929812 14.879596 47.931516 14.878215 47.933594 14.876953 C 48.237748 14.692256 48.536678 14.5278 48.833984 14.382812 C 48.883784 14.358523 48.905688 14.3508 48.929688 14.34375 C 48.936687 14.34165 48.950884 14.336484 48.958984 14.333984 z M 47.029297 15.486328 C 46.992151 15.51325 46.957356 15.53291 46.919922 15.560547 C 46.860966 15.604072 46.797833 15.661805 46.738281 15.707031 C 46.835579 15.633149 46.933573 15.555615 47.029297 15.486328 z M 46.044922 16.259766 C 45.992323 16.303858 45.943789 16.337339 45.890625 16.382812 C 45.858178 16.410566 45.821727 16.446333 45.789062 16.474609 C 45.87535 16.399838 45.960126 16.330913 46.044922 16.259766 z M 18.490234 27.154297 C 18.524804 27.216105 18.560236 27.278443 18.595703 27.339844 C 18.560566 27.278902 18.524489 27.215639 18.490234 27.154297 z M 23.888672 38.800781 L 23.916016 38.822266 C 23.569284 38.836937 23.300055 38.905959 23.099609 39.027344 C 22.873782 39.164105 22.732235 39.364209 22.646484 39.605469 C 22.474985 40.087991 22.515625 40.735114 22.515625 41.445312 C 22.515625 42.138723 23.049968 42.758047 23.777344 43.220703 C 23.932567 43.319434 24.098692 43.404293 24.269531 43.478516 C 24.863314 43.772286 25.520875 43.974721 26.132812 44.041016 C 26.229214 44.062969 26.328647 44.074364 26.431641 44.074219 C 26.4534 44.074216 26.476538 44.073298 26.498047 44.072266 C 26.517647 44.072692 26.53917 44.076172 26.5625 44.076172 C 26.568541 44.076172 26.571861 44.069651 26.576172 44.066406 C 26.577443 44.066269 26.578809 44.066547 26.580078 44.066406 C 26.573978 44.069306 26.57018 44.076172 26.5625 44.076172 C 26.941354 44.076172 27.242618 43.894219 27.447266 43.607422 C 27.649192 43.372798 27.77145 43.067572 27.771484 42.734375 C 27.77148 42.688193 27.77021 42.640694 27.765625 42.595703 C 27.765672 42.594574 27.766117 42.593067 27.765625 42.591797 C 27.775081 42.412218 27.764953 42.225794 27.738281 42.033203 C 27.738156 42.031403 27.738301 42.029397 27.738281 42.029297 C 27.712251 41.843071 27.666471 41.652603 27.605469 41.462891 C 27.603869 41.457991 27.602756 41.448824 27.597656 41.433594 C 27.592556 41.418484 27.588744 41.412866 27.589844 41.416016 C 27.526604 41.228588 27.449142 41.039676 27.349609 40.855469 C 27.348309 40.852969 27.345997 40.847774 27.341797 40.839844 L 27.339844 40.837891 C 27.287224 40.741811 27.229031 40.646368 27.166016 40.552734 L 27.164062 40.550781 L 27.162109 40.548828 C 27.159809 40.546028 27.158303 40.541116 27.158203 40.541016 L 27.15625 40.541016 L 27.154297 40.537109 C 27.092787 40.446579 27.028706 40.356709 26.957031 40.269531 L 26.957031 40.267578 L 26.955078 40.267578 C 26.955365 40.267926 26.950872 40.263472 26.951172 40.263672 C 26.877332 40.174302 26.797193 40.086185 26.712891 40.001953 C 26.635301 39.924463 26.550726 39.849091 26.464844 39.777344 C 26.459444 39.772844 26.45186 39.763683 26.4375 39.751953 C 26.34405 39.675473 26.244403 39.604544 26.140625 39.535156 L 26.138672 39.533203 C 26.135872 39.531403 26.133659 39.529244 26.130859 39.527344 L 26.126953 39.525391 C 25.943607 39.403774 25.740468 39.298484 25.525391 39.203125 C 25.489401 39.187165 25.454171 39.163221 25.408203 39.144531 L 25.40625 39.144531 C 25.274589 39.091071 25.135716 39.042603 24.992188 39 C 24.992038 38.999958 24.976732 38.998047 24.976562 38.998047 L 24.974609 38.998047 C 24.704691 38.918957 24.414318 38.861516 24.101562 38.826172 L 24.103516 38.816406 L 24.046875 38.816406 C 24.044793 38.816406 24.043092 38.816403 24.041016 38.816406 L 23.888672 38.800781 z M 39.966797 38.816406 L 39.962891 38.822266 C 39.801145 38.839646 39.644284 38.861175 39.494141 38.890625 C 39.399506 38.909193 39.314007 38.93729 39.224609 38.960938 C 39.037257 39.009571 38.86086 39.068048 38.695312 39.134766 C 38.708459 39.129454 38.719139 39.122392 38.732422 39.117188 C 38.658302 39.145867 38.580635 39.171705 38.509766 39.203125 C 38.294688 39.298485 38.09155 39.403774 37.908203 39.525391 C 37.788097 39.605061 37.677699 39.689266 37.572266 39.777344 C 37.485986 39.849394 37.40212 39.924113 37.324219 40.001953 C 37.238599 40.087493 37.156834 40.17676 37.082031 40.267578 C 36.92735 40.455381 36.796668 40.651432 36.6875 40.853516 C 36.58796 41.037723 36.510509 41.226636 36.447266 41.414062 C 36.448265 41.411063 36.444453 41.416861 36.439453 41.431641 C 36.434353 41.446861 36.433141 41.456138 36.431641 41.460938 C 36.370641 41.65065 36.324868 41.84112 36.298828 42.027344 C 36.298807 42.027497 36.298948 42.02925 36.298828 42.03125 C 36.271928 42.225202 36.261694 42.413037 36.271484 42.59375 C 36.266635 42.639997 36.263677 42.686863 36.263672 42.734375 C 36.263709 43.08447 36.400544 43.403683 36.621094 43.642578 C 36.82471 43.905931 37.111931 44.074219 37.472656 44.074219 C 37.495986 44.074219 37.517509 44.072766 37.537109 44.072266 L 37.539062 44.072266 C 37.560342 44.073366 37.580986 44.074219 37.603516 44.074219 C 37.667081 44.074212 37.729789 44.069151 37.791016 44.060547 C 37.792916 44.060394 37.794975 44.060703 37.796875 44.060547 C 37.798275 44.060435 37.799481 44.058794 37.800781 44.058594 C 37.963178 44.034552 38.11587 43.981262 38.253906 43.904297 L 38.255859 43.904297 C 38.942024 43.779123 39.669023 43.595159 40.259766 43.21875 C 40.985768 42.756156 41.519531 42.137904 41.519531 41.445312 C 41.519531 40.735114 41.560171 40.087991 41.388672 39.605469 C 41.302822 39.364195 41.161376 39.164105 40.935547 39.027344 C 40.709718 38.890584 40.402763 38.816406 39.988281 38.816406 L 39.966797 38.816406 z M 24.041016 38.917969 L 24.042969 38.917969 C 24.044669 38.917967 24.045175 38.917969 24.046875 38.917969 L 24.050781 38.917969 C 24.108141 38.924069 24.160864 38.935649 24.216797 38.943359 L 24.513672 39.054688 C 25.081948 39.172307 25.578188 39.34728 25.980469 39.605469 L 26.164062 39.675781 C 26.203979 39.703985 26.243067 39.732459 26.28125 39.761719 L 26.083984 39.689453 C 26.909078 40.262709 27.219587 41.028866 27.384766 41.794922 C 27.141729 41.548885 26.804074 41.394571 26.431641 41.394531 C 25.691936 41.393531 25.089923 41.994672 25.089844 42.734375 C 25.089844 42.776825 25.091803 42.818365 25.095703 42.859375 C 25.096025 42.862726 25.0971 42.867799 25.097656 42.871094 L 25.097656 42.873047 C 25.131148 43.201363 25.284265 43.494076 25.511719 43.708984 C 24.930121 43.569141 24.32633 43.451123 23.832031 43.136719 C 23.476979 42.910883 23.175567 42.650446 22.960938 42.365234 L 22.958984 42.363281 L 22.957031 42.361328 C 22.74332 42.075894 22.617188 41.765279 22.617188 41.445312 C 22.617188 40.731511 22.580099 40.089208 22.740234 39.638672 C 22.820304 39.413405 22.947361 39.237417 23.152344 39.113281 C 23.336708 39.001631 23.598733 38.939724 23.941406 38.927734 C 23.944235 38.927636 23.946378 38.927826 23.949219 38.927734 C 23.97412 38.926925 23.995691 38.924091 24.021484 38.923828 L 24.015625 38.921875 C 24.024818 38.921324 24.031195 38.917969 24.041016 38.917969 z M 39.988281 38.917969 C 40.390994 38.917969 40.67783 38.989148 40.882812 39.113281 C 41.087793 39.237417 41.214855 39.413405 41.294922 39.638672 C 41.455056 40.089208 41.417969 40.731511 41.417969 41.445312 C 41.417969 42.086148 40.915617 42.682026 40.205078 43.134766 C 39.708674 43.451064 39.101963 43.57269 38.517578 43.712891 C 38.779361 43.468219 38.943319 43.120219 38.943359 42.734375 C 38.943281 41.995463 38.342429 41.39461 37.603516 41.394531 C 37.212711 41.394573 36.862297 41.564344 36.617188 41.832031 C 36.628463 41.819744 36.638698 41.806784 36.650391 41.794922 C 36.873903 40.759827 37.504401 39.649011 38.919922 39.152344 C 38.924641 39.150649 38.928812 39.14811 38.933594 39.146484 C 39.246115 39.038086 39.595484 38.959178 39.988281 38.917969 z M 39.117188 38.986328 C 39.014459 39.015948 38.914966 39.048774 38.818359 39.083984 C 38.915029 39.048634 39.013523 39.015868 39.117188 38.986328 z M 26.728516 40.142578 C 26.752711 40.169406 26.777845 40.195436 26.800781 40.222656 C 26.77775 40.195451 26.752808 40.16939 26.728516 40.142578 z M 27.083984 40.609375 L 27.087891 40.613281 C 27.147431 40.702181 27.201735 40.793077 27.251953 40.884766 L 27.253906 40.886719 L 27.255859 40.888672 C 27.25643 40.889872 27.256913 40.892631 27.257812 40.894531 C 27.259012 40.897131 27.259619 40.898444 27.261719 40.902344 C 27.358169 41.08084 27.434398 41.264426 27.496094 41.447266 C 27.501194 41.462426 27.505006 41.468014 27.503906 41.464844 C 27.505406 41.469444 27.506919 41.479151 27.511719 41.494141 C 27.571249 41.679281 27.61553 41.863461 27.640625 42.042969 C 27.640727 42.044369 27.640608 42.046775 27.640625 42.046875 C 27.646725 42.090695 27.642284 42.130605 27.646484 42.173828 C 27.622491 42.122175 27.596537 42.071284 27.566406 42.023438 C 27.501431 41.545341 27.360214 41.060174 27.083984 40.609375 z M 36.931641 40.654297 C 36.679364 41.097178 36.530316 41.571003 36.46875 42.023438 C 36.473936 42.015194 36.480958 42.008121 36.486328 42 C 36.450857 42.053793 36.418176 42.111114 36.390625 42.169922 C 36.394625 42.127352 36.392423 42.088072 36.398438 42.044922 C 36.398455 42.044797 36.398346 42.042516 36.398438 42.041016 C 36.398405 42.041265 36.400191 42.037056 36.400391 42.035156 L 36.400391 42.033203 C 36.425671 41.856142 36.468661 41.674683 36.527344 41.492188 C 36.532144 41.477188 36.533656 41.467561 36.535156 41.462891 C 36.534156 41.465891 36.537969 41.460092 36.542969 41.445312 C 36.604669 41.262472 36.680894 41.078886 36.777344 40.900391 C 36.822547 40.816714 36.877849 40.735712 36.931641 40.654297 z M 26.431641 41.496094 C 26.859688 41.49614 27.236664 41.713648 27.458984 42.042969 C 27.460327 42.044894 27.46157 42.046883 27.462891 42.048828 C 27.464188 42.050732 27.465552 42.0528 27.466797 42.054688 C 27.474657 42.06662 27.480828 42.07958 27.488281 42.091797 C 27.602789 42.279503 27.669896 42.497984 27.669922 42.734375 C 27.669849 43.419254 27.116518 43.972582 26.431641 43.972656 C 26.366983 43.972747 26.304158 43.96645 26.242188 43.957031 C 26.204482 43.9513 26.167359 43.944587 26.130859 43.935547 C 26.096458 43.927026 26.062489 43.917573 26.029297 43.90625 C 26.062706 43.917528 26.096238 43.92707 26.130859 43.935547 C 26.167502 43.944519 26.204368 43.951287 26.242188 43.957031 C 26.104991 43.94161 25.96692 43.841516 25.824219 43.8125 C 25.708196 43.747114 25.602557 43.664289 25.513672 43.566406 L 25.511719 43.564453 C 25.313281 43.344951 25.19144 43.054266 25.191406 42.734375 C 25.19148 42.048762 25.746026 41.495129 26.431641 41.496094 z M 27.488281 42.091797 C 27.502881 42.216227 27.597481 42.347785 27.640625 42.470703 C 27.611085 42.334149 27.558685 42.207395 27.488281 42.091797 z M 37.603516 41.496094 C 38.288392 41.496168 38.841723 42.049499 38.841797 42.734375 C 38.841783 42.86279 38.823244 42.98713 38.787109 43.103516 C 38.787642 43.10168 38.786609 43.099505 38.787109 43.097656 C 38.785209 43.103956 38.784003 43.106555 38.783203 43.109375 L 38.785156 43.109375 C 38.687907 43.417075 38.4723 43.672857 38.193359 43.824219 C 38.140017 43.853067 38.08311 43.877552 38.025391 43.898438 C 38.08371 43.877884 38.139396 43.853504 38.193359 43.824219 C 38.068399 43.847549 37.946685 43.928955 37.826172 43.951172 C 37.889613 43.939677 37.952201 43.924458 38.011719 43.904297 C 37.883938 43.948783 37.746633 43.972641 37.603516 43.972656 C 36.918636 43.972583 36.365308 43.419254 36.365234 42.734375 C 36.365244 42.643748 36.376123 42.555746 36.394531 42.470703 C 36.423233 42.338101 36.473664 42.214509 36.541016 42.101562 C 36.473562 42.21453 36.423242 42.337974 36.394531 42.470703 C 36.437671 42.347785 36.532274 42.216227 36.546875 42.091797 C 36.656233 41.912198 36.80911 41.762308 36.992188 41.658203 C 36.999264 41.654175 37.006532 41.650438 37.013672 41.646484 C 37.189134 41.551273 37.389491 41.496117 37.603516 41.496094 z M 27.167969 43.853516 L 27.167969 43.855469 C 27.136009 43.876589 27.104102 43.895693 27.070312 43.914062 C 27.064213 43.917862 27.059694 43.920128 27.052734 43.923828 C 27.044034 43.928428 27.034241 43.931127 27.025391 43.935547 C 27.004286 43.946027 26.982575 43.955356 26.960938 43.964844 C 27.033262 43.933641 27.10287 43.896433 27.167969 43.853516 z M 25.927734 43.867188 C 25.954426 43.878944 25.982109 43.888569 26.009766 43.898438 C 25.981969 43.888417 25.954562 43.879098 25.927734 43.867188 z M 32.017578 45.794922 C 33.022436 45.783742 34.223349 46.138366 35.181641 47.082031 C 35.397951 47.372298 35.449855 47.737169 35.367188 48.130859 C 35.284368 48.525261 35.067058 48.946203 34.751953 49.335938 C 34.122587 50.114368 33.105352 50.762681 32.017578 50.847656 C 30.929809 50.762676 29.912571 50.114367 29.283203 49.335938 C 28.968099 48.946203 28.750788 48.52526 28.667969 48.130859 C 28.585449 47.737882 28.636239 47.373993 28.851562 47.083984 C 29.8102 46.138775 31.012005 45.783574 32.017578 45.794922 z M 31.394531 45.839844 C 31.308491 45.851464 31.221992 45.863759 31.134766 45.880859 C 31.221956 45.863879 31.308528 45.851374 31.394531 45.839844 z M 31.806641 50.931641 C 31.682786 50.965076 31.559474 51.007552 31.435547 51.054688 C 31.559469 51.007519 31.682807 50.965082 31.806641 50.931641 z M 32.244141 50.935547 C 32.36058 50.967548 32.477231 51.006661 32.59375 51.050781 C 32.477575 51.006855 32.360251 50.967448 32.244141 50.935547 z M 32.017578 50.953125 C 32.840021 51.12178 33.683085 51.67858 34.544922 52.296875 L 34.544922 52.833984 C 34.544922 53.16426 34.281449 53.427734 33.951172 53.427734 L 32.662109 53.427734 C 32.591569 53.427734 32.518915 53.387585 32.447266 53.3125 C 32.375616 53.23741 32.308636 53.131123 32.251953 53.011719 C 32.138588 52.772912 32.06836 52.483497 32.068359 52.318359 C 32.068359 52.284509 32.042969 52.267578 32.017578 52.267578 C 31.992188 52.267578 31.966797 52.284509 31.966797 52.318359 C 31.966797 52.483497 31.896567 52.772912 31.783203 53.011719 C 31.726523 53.131124 31.65954 53.237416 31.587891 53.3125 C 31.516241 53.38759 31.443584 53.427734 31.373047 53.427734 L 30.083984 53.427734 C 29.753709 53.427734 29.490234 53.16426 29.490234 52.833984 L 29.490234 52.296875 C 30.352539 51.678194 31.19471 51.121867 32.017578 50.953125 z M 31.373047 51.078125 C 31.261989 51.122238 31.152198 51.171156 31.041016 51.224609 C 31.152251 51.171085 31.261944 51.122289 31.373047 51.078125 z M 32.662109 51.078125 C 32.773212 51.122289 32.884858 51.171085 32.996094 51.224609 C 32.884363 51.170893 32.773714 51.122406 32.662109 51.078125 z M 31.001953 51.244141 C 30.744951 51.37002 30.486694 51.518504 30.228516 51.681641 C 30.486831 51.51833 30.744814 51.370173 31.001953 51.244141 z M 33.035156 51.244141 C 33.292295 51.370173 33.550278 51.51833 33.808594 51.681641 C 33.550416 51.518504 33.292158 51.37002 33.035156 51.244141 z M 30.160156 51.726562 C 29.907088 51.888848 29.653322 52.06119 29.398438 52.242188 C 29.652863 52.061532 29.907482 51.888672 30.160156 51.726562 z M 33.876953 51.726562 C 34.126965 51.886964 34.377182 52.05769 34.628906 52.236328 C 34.377199 52.057703 34.126893 51.886841 33.876953 51.726562 z M 34.546875 52.296875 C 34.83431 52.503102 35.122169 52.715556 35.414062 52.923828 C 35.457913 52.955116 35.502908 52.982652 35.546875 53.013672 C 35.725417 53.139638 35.905386 53.260879 36.085938 53.378906 C 36.369272 53.564124 36.654633 53.738888 36.943359 53.886719 C 35.700306 55.187499 33.959153 56.006203 32.017578 56.005859 C 30.0771 56.005651 28.336344 55.18665 27.09375 53.886719 C 27.38734 53.736397 27.676824 53.557929 27.964844 53.369141 C 28.185017 53.224824 28.403882 53.078813 28.621094 52.923828 C 28.878726 52.740002 29.134515 52.554423 29.388672 52.371094 L 29.388672 52.833984 C 29.388672 53.073943 29.510355 53.287141 29.695312 53.412109 C 29.732262 53.436976 29.771121 53.457164 29.8125 53.474609 C 29.896117 53.510237 29.987374 53.529297 30.083984 53.529297 L 31.373047 53.529297 C 31.452673 53.529297 31.525635 53.497115 31.591797 53.445312 C 31.592949 53.444436 31.594555 53.444247 31.595703 53.443359 C 31.596769 53.442511 31.598548 53.442264 31.599609 53.441406 C 31.60594 53.436389 31.610988 53.429195 31.617188 53.423828 C 31.620982 53.420543 31.62516 53.417475 31.628906 53.414062 C 31.639666 53.404134 31.649822 53.393643 31.660156 53.382812 L 31.662109 53.382812 C 31.703384 53.339558 31.741923 53.289829 31.777344 53.234375 C 31.813243 53.178923 31.845094 53.117685 31.875 53.054688 C 31.886937 53.029542 31.898347 53.005529 31.908203 52.980469 C 31.952583 52.875609 31.988842 52.765442 32.015625 52.662109 C 32.016925 52.657009 32.016207 52.653507 32.017578 52.648438 C 32.018878 52.653537 32.018116 52.657039 32.019531 52.662109 C 32.046819 52.76739 32.085324 52.879688 32.130859 52.986328 C 32.140758 53.009511 32.14945 53.032134 32.160156 53.054688 C 32.190091 53.117743 32.224344 53.178921 32.259766 53.234375 C 32.295187 53.289829 32.331776 53.339558 32.373047 53.382812 L 32.375 53.382812 C 32.385335 53.393644 32.397443 53.404134 32.408203 53.414062 C 32.41827 53.423351 32.427069 53.433017 32.4375 53.441406 C 32.438233 53.441987 32.438719 53.442783 32.439453 53.443359 C 32.506513 53.496743 32.581098 53.529297 32.662109 53.529297 L 33.951172 53.529297 C 34.190583 53.529297 34.40422 53.408855 34.529297 53.224609 C 34.52961 53.224144 34.528985 53.223123 34.529297 53.222656 C 34.553774 53.1861 34.574565 53.146342 34.591797 53.105469 C 34.626987 53.022286 34.646485 52.929968 34.646484 52.833984 L 34.646484 52.371094 C 34.613108 52.347019 34.580201 52.320816 34.546875 52.296875 z M 27.964844 53.369141 C 28.12563 53.26373 28.285964 53.155855 28.445312 53.044922 C 28.382676 53.088155 28.319946 53.131138 28.257812 53.173828 C 28.160166 53.240917 28.062754 53.305381 27.964844 53.369141 z M 36.085938 53.378906 C 35.983527 53.31215 35.881513 53.244048 35.779297 53.173828 C 35.70223 53.120886 35.62441 53.067641 35.546875 53.013672 C 35.725601 53.139227 35.905282 53.260811 36.085938 53.378906 z M 36.689453 53.632812 C 36.726798 53.653937 36.765317 53.67297 36.802734 53.693359 C 36.765511 53.672838 36.726615 53.654068 36.689453 53.632812 z M 36.802734 53.693359 C 36.888114 53.740429 36.972825 53.78535 37.058594 53.828125 C 36.972666 53.785362 36.888232 53.739949 36.802734 53.693359 z " />
</svg>
