<?xml version="1.0" encoding="UTF-8" standalone="no"?>
<svg
   width="64"
   height="64"
   version="1"
   id="svg4"
   sodipodi:docname="bitwarden.svg"
   inkscape:version="1.3.2 (091e20ef0f, 2023-11-25, custom)"
   xmlns:inkscape="http://www.inkscape.org/namespaces/inkscape"
   xmlns:sodipodi="http://sodipodi.sourceforge.net/DTD/sodipodi-0.dtd"
   xmlns:xlink="http://www.w3.org/1999/xlink"
   xmlns="http://www.w3.org/2000/svg"
   xmlns:svg="http://www.w3.org/2000/svg">
  <defs
     id="defs4">
    <inkscape:path-effect
       effect="fillet_chamfer"
       id="path-effect3"
       is_visible="true"
       lpeversion="1"
       nodesatellites_param="F,0,0,1,0,0,0,1 @ F,0,0,1,0,9.2776643,0,1 @ F,0,0,1,0,0,0,1 @ F,0,0,1,0,0,0,1 @ F,0,0,1,0,0,0,1 @ F,0,0,1,0,0,0,1 @ F,0,0,1,0,0,0,1 @ F,0,0,1,0,0,0,1 @ F,0,0,1,0,0,0,1 @ F,0,0,1,0,0,0,1 @ F,0,0,1,0,0,0,1 @ F,0,1,1,0,9.2776643,0,1"
       radius="0"
       unit="px"
       method="auto"
       mode="F"
       chamfer_steps="1"
       flexible="false"
       use_knot_distance="true"
       apply_no_radius="true"
       apply_with_radius="true"
       only_selected="false"
       hide_knots="false" />
    <inkscape:path-effect
       effect="fillet_chamfer"
       id="path-effect1"
       is_visible="true"
       lpeversion="1"
       nodesatellites_param="F,0,0,1,0,0,0,1 @ F,0,0,1,0,4.5938093,0,1 @ F,0,0,1,0,0,0,1 @ F,0,0,1,0,0,0,1 @ F,0,0,1,0,0,0,1 @ F,0,0,1,0,0,0,1 @ F,0,0,1,0,0,0,1 @ F,0,0,1,0,0,0,1 @ F,0,0,1,0,0,0,1 @ F,0,0,1,0,0,0,1 @ F,0,0,1,0,0,0,1 @ F,0,1,1,0,4.5938093,0,1 | F,0,0,1,0,2.2803468,0,1 @ F,0,0,1,0,2.2803468,0,1 @ F,0,0,1,0,0,0,1 @ F,0,0,1,0,0,0,1 @ F,0,0,1,0,0,0,1 @ F,0,0,1,0,2.2478611,0,1"
       radius="0"
       unit="px"
       method="auto"
       mode="F"
       chamfer_steps="1"
       flexible="false"
       use_knot_distance="true"
       apply_no_radius="true"
       apply_with_radius="true"
       only_selected="false"
       hide_knots="false" />
    <inkscape:path-effect
       effect="fillet_chamfer"
       id="path-effect1-6"
       is_visible="true"
       lpeversion="1"
       nodesatellites_param="F,0,0,1,0,0,0,1 @ F,0,0,1,0,0,0,1 @ F,0,0,1,0,0,0,1 @ F,0,0,1,0,0,0,1 @ F,0,0,1,0,0,0,1 @ F,0,0,1,0,0,0,1 @ F,0,0,1,0,0,0,1 @ F,0,0,1,0,0,0,1 @ F,0,0,1,0,0,0,1 @ F,0,0,1,0,0,0,1 @ F,0,0,1,0,0,0,1 @ F,0,0,1,0,0,0,1 | F,0,0,1,0,2.2803468,0,1 @ F,0,0,1,0,2.2803468,0,1 @ F,0,0,1,0,0,0,1 @ F,0,0,1,0,0,0,1 @ F,0,0,1,0,0,0,1 @ F,0,0,1,0,2.2478611,0,1"
       radius="0"
       unit="px"
       method="auto"
       mode="F"
       chamfer_steps="1"
       flexible="false"
       use_knot_distance="true"
       apply_no_radius="true"
       apply_with_radius="true"
       only_selected="false"
       hide_knots="false" />
    <inkscape:path-effect
       effect="fillet_chamfer"
       id="path-effect1-2"
       is_visible="true"
       lpeversion="1"
       nodesatellites_param="F,0,0,1,0,0,0,1 @ F,0,0,1,0,4.5938093,0,1 @ F,0,0,1,0,0,0,1 @ F,0,0,1,0,0,0,1 @ F,0,0,1,0,0,0,1 @ F,0,0,1,0,0,0,1 @ F,0,0,1,0,0,0,1 @ F,0,0,1,0,0,0,1 @ F,0,0,1,0,0,0,1 @ F,0,0,1,0,0,0,1 @ F,0,0,1,0,0,0,1 @ F,0,1,1,0,4.5938093,0,1 | F,0,0,1,0,2.2803468,0,1 @ F,0,0,1,0,2.2803468,0,1 @ F,0,0,1,0,0,0,1 @ F,0,0,1,0,0,0,1 @ F,0,0,1,0,0,0,1 @ F,0,0,1,0,2.2478611,0,1"
       radius="0"
       unit="px"
       method="auto"
       mode="F"
       chamfer_steps="1"
       flexible="false"
       use_knot_distance="true"
       apply_no_radius="true"
       apply_with_radius="true"
       only_selected="false"
       hide_knots="false" />
    <inkscape:path-effect
       effect="fillet_chamfer"
       id="path-effect3-7"
       is_visible="true"
       lpeversion="1"
       nodesatellites_param="F,0,0,1,0,0,0,1 @ F,0,0,1,0,9.2776643,0,1 @ F,0,0,1,0,0,0,1 @ F,0,0,1,0,0,0,1 @ F,0,0,1,0,0,0,1 @ F,0,0,1,0,0,0,1 @ F,0,0,1,0,0,0,1 @ F,0,0,1,0,0,0,1 @ F,0,0,1,0,0,0,1 @ F,0,0,1,0,0,0,1 @ F,0,0,1,0,0,0,1 @ F,0,1,1,0,9.2776643,0,1"
       radius="0"
       unit="px"
       method="auto"
       mode="F"
       chamfer_steps="1"
       flexible="false"
       use_knot_distance="true"
       apply_no_radius="true"
       apply_with_radius="true"
       only_selected="false"
       hide_knots="false" />
    <filter
       inkscape:collect="always"
       style="color-interpolation-filters:sRGB"
       id="filter4"
       x="-0.069928617"
       y="-0.059440217"
       width="1.1398572"
       height="1.1188805">
      <feGaussianBlur
         inkscape:collect="always"
         stdDeviation="0.89403536"
         id="feGaussianBlur4" />
    </filter>
    <inkscape:path-effect
       effect="fillet_chamfer"
       id="path-effect1-2-3"
       is_visible="true"
       lpeversion="1"
       nodesatellites_param="F,0,0,1,0,0,0,1 @ F,0,0,1,0,4.5938093,0,1 @ F,0,0,1,0,0,0,1 @ F,0,0,1,0,0,0,1 @ F,0,0,1,0,0,0,1 @ F,0,0,1,0,0,0,1 @ F,0,0,1,0,0,0,1 @ F,0,0,1,0,0,0,1 @ F,0,0,1,0,0,0,1 @ F,0,0,1,0,0,0,1 @ F,0,0,1,0,0,0,1 @ F,0,1,1,0,4.5938093,0,1 | F,0,0,1,0,2.2803468,0,1 @ F,0,0,1,0,2.2803468,0,1 @ F,0,0,1,0,0,0,1 @ F,0,0,1,0,0,0,1 @ F,0,0,1,0,0,0,1 @ F,0,0,1,0,2.2478611,0,1"
       radius="0"
       unit="px"
       method="auto"
       mode="F"
       chamfer_steps="1"
       flexible="false"
       use_knot_distance="true"
       apply_no_radius="true"
       apply_with_radius="true"
       only_selected="false"
       hide_knots="false" />
    <filter
       inkscape:collect="always"
       style="color-interpolation-filters:sRGB"
       id="filter3"
       x="-0.14926676"
       y="-0.12687869"
       width="1.2985335"
       height="1.2537575">
      <feGaussianBlur
         inkscape:collect="always"
         stdDeviation="2.6264455"
         id="feGaussianBlur3" />
    </filter>
    <inkscape:path-effect
       effect="fillet_chamfer"
       id="path-effect3-7-6"
       is_visible="true"
       lpeversion="1"
       nodesatellites_param="F,0,0,1,0,0,0,1 @ F,0,0,1,0,9.2776643,0,1 @ F,0,0,1,0,0,0,1 @ F,0,0,1,0,0,0,1 @ F,0,0,1,0,0,0,1 @ F,0,0,1,0,0,0,1 @ F,0,0,1,0,0,0,1 @ F,0,0,1,0,0,0,1 @ F,0,0,1,0,0,0,1 @ F,0,0,1,0,0,0,1 @ F,0,0,1,0,0,0,1 @ F,0,1,1,0,9.2776643,0,1"
       radius="0"
       unit="px"
       method="auto"
       mode="F"
       chamfer_steps="1"
       flexible="false"
       use_knot_distance="true"
       apply_no_radius="true"
       apply_with_radius="true"
       only_selected="false"
       hide_knots="false" />
    <inkscape:path-effect
       effect="fillet_chamfer"
       id="path-effect1-7"
       is_visible="true"
       lpeversion="1"
       nodesatellites_param="F,0,0,1,0,0,0,1 @ F,0,0,1,0,4.5938093,0,1 @ F,0,0,1,0,0,0,1 @ F,0,0,1,0,0,0,1 @ F,0,0,1,0,0,0,1 @ F,0,0,1,0,0,0,1 @ F,0,0,1,0,0,0,1 @ F,0,0,1,0,0,0,1 @ F,0,0,1,0,0,0,1 @ F,0,0,1,0,0,0,1 @ F,0,0,1,0,0,0,1 @ F,0,1,1,0,4.5938093,0,1 | F,0,0,1,0,2.2803468,0,1 @ F,0,0,1,0,2.2803468,0,1 @ F,0,0,1,0,0,0,1 @ F,0,0,1,0,0,0,1 @ F,0,0,1,0,0,0,1 @ F,0,0,1,0,2.2478611,0,1"
       radius="0"
       unit="px"
       method="auto"
       mode="F"
       chamfer_steps="1"
       flexible="false"
       use_knot_distance="true"
       apply_no_radius="true"
       apply_with_radius="true"
       only_selected="false"
       hide_knots="false" />
    <radialGradient
       inkscape:collect="always"
       xlink:href="#linearGradient1"
       id="radialGradient2"
       cx="31.968161"
       cy="54.554562"
       fx="31.968161"
       fy="54.554562"
       r="21.617235"
       gradientTransform="matrix(2.2061024,0,0,2.5953749,-38.333551,-84.178934)"
       gradientUnits="userSpaceOnUse" />
    <linearGradient
       id="linearGradient1"
       inkscape:collect="always">
      <stop
         style="stop-color:#0063ff;stop-opacity:1;"
         offset="0"
         id="stop1" />
      <stop
         style="stop-color:#00cdff;stop-opacity:1;"
         offset="1"
         id="stop2" />
    </linearGradient>
    <inkscape:path-effect
       effect="fillet_chamfer"
       id="path-effect3-5"
       is_visible="true"
       lpeversion="1"
       nodesatellites_param="F,0,0,1,0,0,0,1 @ F,0,0,1,0,9.2776643,0,1 @ F,0,0,1,0,0,0,1 @ F,0,0,1,0,0,0,1 @ F,0,0,1,0,0,0,1 @ F,0,0,1,0,0,0,1 @ F,0,0,1,0,0,0,1 @ F,0,0,1,0,0,0,1 @ F,0,0,1,0,0,0,1 @ F,0,0,1,0,0,0,1 @ F,0,0,1,0,0,0,1 @ F,0,1,1,0,9.2776643,0,1"
       radius="0"
       unit="px"
       method="auto"
       mode="F"
       chamfer_steps="1"
       flexible="false"
       use_knot_distance="true"
       apply_no_radius="true"
       apply_with_radius="true"
       only_selected="false"
       hide_knots="false" />
  </defs>
  <sodipodi:namedview
     id="namedview4"
     pagecolor="#ffffff"
     bordercolor="#000000"
     borderopacity="0.25"
     inkscape:showpageshadow="2"
     inkscape:pageopacity="0.0"
     inkscape:pagecheckerboard="0"
     inkscape:deskcolor="#d1d1d1"
     inkscape:zoom="12.6875"
     inkscape:cx="32.039409"
     inkscape:cy="32.70936"
     inkscape:window-width="1920"
     inkscape:window-height="1020"
     inkscape:window-x="0"
     inkscape:window-y="0"
     inkscape:window-maximized="1"
     inkscape:current-layer="svg4" />
  <g
     id="g1">
    <path
       style="fill:url(#radialGradient2);stroke-width:1.27157"
       d="m 32,6.5683483 c 0,0 -5.853579,0.00332 -11.319794,0.054629 -5.120567,0.048061 -10.290432,4.2263898 -10.29636,9.1879518 -0.002,1.666681 -6.21e-4,3.663944 -6.21e-4,6.060824 0,15.364442 -0.01908,15.056719 1.162219,18.036019 1.359313,3.426896 3.548965,6.323544 7.142438,9.471963 3.016175,2.641061 6.591843,5.032893 10.580776,7.063599 1.349138,0.686651 2.045963,0.999459 2.731342,0.988015 0.685379,0.01141 1.382204,-0.301364 2.731342,-0.988015 3.988933,-2.030706 7.564601,-4.422538 10.580776,-7.063599 3.593473,-3.148419 5.783125,-6.045067 7.142438,-9.471963 1.181293,-2.9793 1.162219,-2.671577 1.162219,-18.036019 0,-2.397256 0.0014,-4.39477 -6.22e-4,-6.061609 C 53.610222,10.849013 48.440338,6.6710584 43.319744,6.6229936 37.853544,6.5716846 32,6.5683483 32,6.5683483 Z"
       id="path4-3"
       sodipodi:nodetypes="ccscccccccscc"
       inkscape:path-effect="#path-effect3-5"
       inkscape:original-d="m 32,6.5683483 c 0,0 -20.07817,0.011402 -20.588071,0.3178923 -1.083383,0.6497767 -1.028704,-0.1551315 -1.028704,14.9855124 0,15.364442 -0.01908,15.056719 1.162219,18.036019 1.359313,3.426896 3.548965,6.323544 7.142438,9.471963 3.016175,2.641061 6.591843,5.032893 10.580776,7.063599 1.349138,0.686651 2.045963,0.999459 2.731342,0.988015 0.685379,0.01141 1.382204,-0.301364 2.731342,-0.988015 3.988933,-2.030706 7.564601,-4.422538 10.580776,-7.063599 3.593473,-3.148419 5.783125,-6.045067 7.142438,-9.471963 1.181293,-2.9793 1.162219,-2.671577 1.162219,-18.036019 0,-15.1406439 0.05468,-14.3357357 -1.028704,-14.9855124 C 52.07817,6.5797922 32,6.5683483 32,6.5683483 Z" />
    <path
       style="opacity:1;fill:#ffffff;fill-opacity:1;stroke-width:0.946296"
       d="m 32.014721,13.95741 c 0,0 -6.218908,0.0035 -10.734508,0.06729 -2.534787,0.03579 -5.325379,2.072239 -5.343697,4.500431 -0.01184,1.569476 -0.0088,3.756274 -0.0088,6.820954 0,11.434097 -0.0142,11.205094 0.864915,13.422265 1.01159,2.550269 2.641112,4.705932 5.315345,7.04896 2.244615,1.965457 4.905599,3.74544 7.87413,5.256675 1.00402,0.511 1.522591,0.743789 2.032645,0.735273 0.510053,0.0085 1.028624,-0.224273 2.032644,-0.735273 2.968531,-1.511235 5.629515,-3.291218 7.87413,-5.256675 2.674233,-2.343028 4.303755,-4.498691 5.315345,-7.04896 0.879109,-2.217171 0.864915,-1.988168 0.864915,-13.422265 0,-3.065062 0.003,-5.252023 -0.0088,-6.821541 C 48.0746,16.09667 45.283996,14.06049 42.749185,14.024704 38.233589,13.960954 32.014721,13.95741 32.014721,13.95741 Z m 2.280347,5.677777 h 5.848563 a 2.2803468,2.2803468 45 0 1 2.280347,2.280347 v 12.860391 c 0,0 -0.0056,0.739057 -0.465577,1.900162 -0.646321,1.628576 -1.542463,2.914592 -3.777615,4.871533 -1.208647,1.058325 -2.641544,2.060949 -4.208384,2.998977 -1.065039,0.637613 -1.957681,0.09776 -1.957681,-1.143697 l 0,-21.487366 a 2.2803468,2.2803468 135 0 1 2.280347,-2.280347 z"
       id="path4"
       inkscape:path-effect="#path-effect1-7"
       inkscape:original-d="m 32.014721,13.95741 c 0,0 -14.942016,0.0085 -15.321481,0.236573 -0.806245,0.483558 -0.765554,-0.115448 -0.765554,11.1521 0,11.434097 -0.0142,11.205094 0.864915,13.422265 1.01159,2.550269 2.641112,4.705932 5.315345,7.04896 2.244615,1.965457 4.905599,3.74544 7.87413,5.256675 1.00402,0.511 1.522591,0.743789 2.032645,0.735273 0.510053,0.0085 1.028624,-0.224273 2.032644,-0.735273 2.968531,-1.511235 5.629515,-3.291218 7.87413,-5.256675 2.674233,-2.343028 4.303755,-4.498691 5.315345,-7.04896 0.879109,-2.217171 0.864915,-1.988168 0.864915,-13.422265 0,-11.267548 0.0407,-10.668542 -0.765554,-11.1521 -0.379464,-0.228057 -15.32148,-0.236573 -15.32148,-0.236573 z m 0,5.677777 h 10.409257 v 15.140738 c 0,0 -0.0056,0.739057 -0.465577,1.900162 -0.646321,1.628576 -1.542463,2.914592 -3.777615,4.871533 -1.696708,1.485685 -3.835338,2.8616 -6.166065,4.103141 z"
       transform="matrix(0.95922988,0,0,0.95922988,1.2905234,-0.09722732)" />
    <path
       style="fill:none;stroke:#000000;stroke-width:0.3;stroke-dasharray:none;stroke-opacity:1;filter:url(#filter3)"
       d="m 32,6.5683483 c 0,0 -5.853579,0.00332 -11.319794,0.054629 -5.120567,0.048061 -10.290432,4.2263898 -10.29636,9.1879518 -0.002,1.666681 -6.21e-4,3.663944 -6.21e-4,6.060824 0,15.364442 -0.01908,15.056719 1.162219,18.036019 1.359313,3.426896 3.548965,6.323544 7.142438,9.471963 3.016175,2.641061 6.591843,5.032893 10.580776,7.063599 1.349138,0.686651 2.045963,0.999459 2.731342,0.988015 0.685379,0.01141 1.382204,-0.301364 2.731342,-0.988015 3.988933,-2.030706 7.564601,-4.422538 10.580776,-7.063599 3.593473,-3.148419 5.783125,-6.045067 7.142438,-9.471963 1.181293,-2.9793 1.162219,-2.671577 1.162219,-18.036019 0,-2.397256 0.0014,-4.39477 -6.22e-4,-6.061609 C 53.610222,10.849013 48.440338,6.6710584 43.319744,6.6229936 37.853544,6.5716846 32,6.5683483 32,6.5683483 Z"
       id="path4-3-0"
       sodipodi:nodetypes="ccscccccccscc"
       inkscape:path-effect="#path-effect3-7-6"
       inkscape:original-d="m 32,6.5683483 c 0,0 -20.07817,0.011402 -20.588071,0.3178923 -1.083383,0.6497767 -1.028704,-0.1551315 -1.028704,14.9855124 0,15.364442 -0.01908,15.056719 1.162219,18.036019 1.359313,3.426896 3.548965,6.323544 7.142438,9.471963 3.016175,2.641061 6.591843,5.032893 10.580776,7.063599 1.349138,0.686651 2.045963,0.999459 2.731342,0.988015 0.685379,0.01141 1.382204,-0.301364 2.731342,-0.988015 3.988933,-2.030706 7.564601,-4.422538 10.580776,-7.063599 3.593473,-3.148419 5.783125,-6.045067 7.142438,-9.471963 1.181293,-2.9793 1.162219,-2.671577 1.162219,-18.036019 0,-15.1406439 0.05468,-14.3357357 -1.028704,-14.9855124 C 52.07817,6.5797922 32,6.5683483 32,6.5683483 Z" />
    <path
       style="fill:none;fill-opacity:1;stroke:#0800ff;stroke-width:0.208501;stroke-dasharray:none;stroke-opacity:1;filter:url(#filter4)"
       d="m 32.014721,13.95741 c 0,0 -6.218908,0.0035 -10.734508,0.06729 -2.534787,0.03579 -5.325379,2.072239 -5.343697,4.500431 -0.01184,1.569476 -0.0088,3.756274 -0.0088,6.820954 0,11.434097 -0.0142,11.205094 0.864915,13.422265 1.01159,2.550269 2.641112,4.705932 5.315345,7.04896 2.244615,1.965457 4.905599,3.74544 7.87413,5.256675 1.00402,0.511 1.522591,0.743789 2.032645,0.735273 0.510053,0.0085 1.028624,-0.224273 2.032644,-0.735273 2.968531,-1.511235 5.629515,-3.291218 7.87413,-5.256675 2.674233,-2.343028 4.303755,-4.498691 5.315345,-7.04896 0.879109,-2.217171 0.864915,-1.988168 0.864915,-13.422265 0,-3.065062 0.003,-5.252023 -0.0088,-6.821541 C 48.0746,16.09667 45.283996,14.06049 42.749185,14.024704 38.233589,13.960954 32.014721,13.95741 32.014721,13.95741 Z m 2.280347,5.677777 h 5.848563 a 2.2803468,2.2803468 45 0 1 2.280347,2.280347 v 12.860391 c 0,0 -0.0056,0.739057 -0.465577,1.900162 -0.646321,1.628576 -1.542463,2.914592 -3.777615,4.871533 -1.208647,1.058325 -2.641544,2.060949 -4.208384,2.998977 -1.065039,0.637613 -1.957681,0.09776 -1.957681,-1.143697 l 0,-21.487366 a 2.2803468,2.2803468 135 0 1 2.280347,-2.280347 z"
       id="path4-9"
       inkscape:path-effect="#path-effect1-2-3"
       inkscape:original-d="m 32.014721,13.95741 c 0,0 -14.942016,0.0085 -15.321481,0.236573 -0.806245,0.483558 -0.765554,-0.115448 -0.765554,11.1521 0,11.434097 -0.0142,11.205094 0.864915,13.422265 1.01159,2.550269 2.641112,4.705932 5.315345,7.04896 2.244615,1.965457 4.905599,3.74544 7.87413,5.256675 1.00402,0.511 1.522591,0.743789 2.032645,0.735273 0.510053,0.0085 1.028624,-0.224273 2.032644,-0.735273 2.968531,-1.511235 5.629515,-3.291218 7.87413,-5.256675 2.674233,-2.343028 4.303755,-4.498691 5.315345,-7.04896 0.879109,-2.217171 0.864915,-1.988168 0.864915,-13.422265 0,-11.267548 0.0407,-10.668542 -0.765554,-11.1521 -0.379464,-0.228057 -15.32148,-0.236573 -15.32148,-0.236573 z m 0,5.677777 h 10.409257 v 15.140738 c 0,0 -0.0056,0.739057 -0.465577,1.900162 -0.646321,1.628576 -1.542463,2.914592 -3.777615,4.871533 -1.696708,1.485685 -3.835338,2.8616 -6.166065,4.103141 z"
       transform="matrix(0.95922988,0,0,0.95922988,1.2905234,-0.09722712)" />
  </g>
</svg>
