<?xml version="1.0" encoding="UTF-8" standalone="no"?>
<svg
   width="64"
   height="64"
   version="1.1"
   id="svg5"
   sodipodi:docname="blender.svg"
   inkscape:version="1.3.2 (091e20ef0f, 2023-11-25, custom)"
   xmlns:inkscape="http://www.inkscape.org/namespaces/inkscape"
   xmlns:sodipodi="http://sodipodi.sourceforge.net/DTD/sodipodi-0.dtd"
   xmlns:xlink="http://www.w3.org/1999/xlink"
   xmlns="http://www.w3.org/2000/svg"
   xmlns:svg="http://www.w3.org/2000/svg">
  <defs
     id="defs5">
    <linearGradient
       id="linearGradient1"
       inkscape:collect="always">
      <stop
         style="stop-color:#000000;stop-opacity:1;"
         offset="0"
         id="stop1" />
      <stop
         style="stop-color:#ffffff;stop-opacity:1;"
         offset="1"
         id="stop2" />
    </linearGradient>
    <linearGradient
       id="linearGradient16"
       inkscape:collect="always">
      <stop
         style="stop-color:#000000;stop-opacity:1;"
         offset="0"
         id="stop16" />
      <stop
         style="stop-color:#ffffff;stop-opacity:1;"
         offset="1"
         id="stop17" />
    </linearGradient>
    <linearGradient
       id="linearGradient8"
       inkscape:collect="always">
      <stop
         style="stop-color:#ffffff;stop-opacity:1;"
         offset="0"
         id="stop9" />
      <stop
         style="stop-color:#727272;stop-opacity:1;"
         offset="1"
         id="stop10" />
    </linearGradient>
    <linearGradient
       id="linearGradient6"
       inkscape:collect="always">
      <stop
         style="stop-color:#ffd34a;stop-opacity:1;"
         offset="0"
         id="stop7" />
      <stop
         style="stop-color:#f86616;stop-opacity:1;"
         offset="1"
         id="stop8" />
    </linearGradient>
    <linearGradient
       id="linearGradient5"
       inkscape:collect="always">
      <stop
         style="stop-color:#090cff;stop-opacity:1;"
         offset="0"
         id="stop5" />
      <stop
         style="stop-color:#40c0f4;stop-opacity:1;"
         offset="1"
         id="stop6" />
    </linearGradient>
    <radialGradient
       inkscape:collect="always"
       xlink:href="#linearGradient5"
       id="radialGradient6"
       cx="31.261253"
       cy="47.711063"
       fx="31.261253"
       fy="47.711063"
       r="8.6800718"
       gradientUnits="userSpaceOnUse"
       gradientTransform="matrix(2.1513821,-2.1513821,2.1513821,2.1513821,-136.01906,13.771568)" />
    <radialGradient
       inkscape:collect="always"
       xlink:href="#linearGradient6"
       id="radialGradient8"
       cx="19.573648"
       cy="49.355396"
       fx="19.573648"
       fy="49.355396"
       r="28.000339"
       gradientTransform="matrix(1.6576967,-0.95707162,0.88964604,1.5409121,-56.782356,-9.188188)"
       gradientUnits="userSpaceOnUse" />
    <radialGradient
       inkscape:collect="always"
       xlink:href="#linearGradient8"
       id="radialGradient10"
       cx="32.525574"
       cy="46.440624"
       fx="32.525574"
       fy="46.440624"
       r="15.289524"
       gradientUnits="userSpaceOnUse"
       gradientTransform="matrix(2.6819909,-1.5484482,1.5484482,2.6819909,-126.0113,-28.623033)" />
    <radialGradient
       inkscape:collect="always"
       xlink:href="#linearGradient16"
       id="radialGradient17"
       cx="47.509056"
       cy="26.590225"
       fx="47.509056"
       fy="26.590225"
       r="15.873024"
       gradientUnits="userSpaceOnUse"
       gradientTransform="matrix(-1.7443838,0,0,-1.8955601,130.38309,76.993595)" />
    <filter
       inkscape:collect="always"
       style="color-interpolation-filters:sRGB"
       id="filter17"
       x="-0.063157707"
       y="-0.063157707"
       width="1.1263154"
       height="1.1263154">
      <feGaussianBlur
         inkscape:collect="always"
         stdDeviation="0.70741773"
         id="feGaussianBlur17" />
    </filter>
    <filter
       inkscape:collect="always"
       style="color-interpolation-filters:sRGB"
       id="filter1"
       x="-0.064907807"
       y="-0.069871065"
       width="1.1298605"
       height="1.1397456">
      <feGaussianBlur
         inkscape:collect="always"
         stdDeviation="1.3904968"
         id="feGaussianBlur1" />
    </filter>
    <radialGradient
       inkscape:collect="always"
       xlink:href="#linearGradient1"
       id="radialGradient2"
       cx="45.917503"
       cy="29.874086"
       fx="45.917503"
       fy="29.874086"
       r="9.4555737"
       gradientUnits="userSpaceOnUse"
       gradientTransform="matrix(-2.9264917,0,0,-3.1215141,180.2947,123.12647)" />
    <filter
       inkscape:collect="always"
       style="color-interpolation-filters:sRGB"
       id="filter2"
       x="-0.10444997"
       y="-0.10444997"
       width="1.2088999"
       height="1.2088999">
      <feGaussianBlur
         inkscape:collect="always"
         stdDeviation="0.65610436"
         id="feGaussianBlur2" />
    </filter>
  </defs>
  <sodipodi:namedview
     id="namedview5"
     pagecolor="#505050"
     bordercolor="#eeeeee"
     borderopacity="1"
     inkscape:showpageshadow="0"
     inkscape:pageopacity="0"
     inkscape:pagecheckerboard="0"
     inkscape:deskcolor="#505050"
     inkscape:zoom="13.484375"
     inkscape:cx="34.261877"
     inkscape:cy="42.085747"
     inkscape:window-width="1920"
     inkscape:window-height="1024"
     inkscape:window-x="0"
     inkscape:window-y="0"
     inkscape:window-maximized="1"
     inkscape:current-layer="svg5" />
  <path
     style="fill:url(#radialGradient8)"
     d="m 31.232,5.9512 c -1.28,-0.0739 -2.57,0.4705 -3.41,1.5722 -1.343,1.7629 -1.005,4.2626 0.758,5.6056 L 32.35,16 H 12 c -2.216,0 -4,1.784 -4,4 0,2.216 1.784,4 4,4 h 9.098 L 5.58,35.814 c -1.7631,1.343 -2.1021,3.843 -0.7597,5.606 1.3424,1.763 3.8423,2.102 5.6057,0.76 l 7.605,-5.789 C 18.01772,36.593839 18.007385,36.796861 18,37 c 0.01135,10.993321 8.499157,20.117399 19.463,20.922 0.442,0.036 0.888,0.06 1.338,0.068 0.06632,0.0036 0.132651,0.007 0.199,0.01 0.02667,-6.16e-4 0.05333,-0.0013 0.08,-0.002 0.038,0 0.075,0.002 0.113,0.002 C 50.686,58 60.002,48.688 60,37.203 60,37.157 59.996,37.112 59.996,37.066 59.9974,37.044 59.9987,37.022 60,37 59.9964,36.844279 59.9911,36.688603 59.984,36.533 59.979,36.381 59.975,36.229 59.967,36.078 59.644827,28.718411 53.713233,22.205545 49.018,18.547 43.880047,14.543486 38.578,10.689 33.428,6.766 32.767,6.2621 32.001,5.9955 31.232,5.9512 Z"
     id="path2"
     sodipodi:nodetypes="ccccsssccscccccccssccccscc" />
  <path
     style="fill:none;stroke:#000000;stroke-opacity:1;opacity:1;stroke-width:0.59999991;stroke-dasharray:none;filter:url(#filter1)"
     d="m 31.271885,5.9083747 c -1.28,-0.0739 -2.57,0.4705 -3.41,1.5722 -1.343,1.7629 -1.005,4.2626003 0.758,5.6056003 l 3.77,2.870999 h -20.35 c -2.2159997,0 -3.9999997,1.784 -3.9999997,4 0,2.216 1.784,4 3.9999997,4 h 9.098 l -15.5179997,11.814 c -1.7631,1.343 -2.1021,3.843 -0.7597,5.606 1.3424,1.763 3.8423,2.102 5.6056997,0.76 l 7.605,-5.789 c -0.01328,0.202839 -0.02361,0.405861 -0.031,0.609 0.01135,10.993321 8.499157,20.117399 19.463,20.922 0.442,0.036 0.888,0.06 1.338,0.068 0.06632,0.0036 0.132651,0.007 0.199,0.01 0.02667,-6.16e-4 0.05333,-0.0013 0.08,-0.002 0.038,0 0.075,0.002 0.113,0.002 11.493,0 20.809,-9.312 20.807,-20.797 0,-0.046 -0.004,-0.091 -0.004,-0.137 0.0014,-0.022 0.0027,-0.044 0.004,-0.066 -0.0036,-0.155721 -0.0089,-0.311397 -0.016,-0.467 -0.005,-0.152 -0.009,-0.304 -0.017,-0.455 -0.322173,-7.359589 -6.253767,-13.872455 -10.949,-17.531 -5.137953,-4.003513 -10.44,-7.857999 -15.59,-11.7809993 -0.661,-0.5039 -1.427,-0.7705 -2.196,-0.8148 z"
     id="path2-7"
     sodipodi:nodetypes="ccccsssccscccccccssccccscc" />
  <path
     style="fill:url(#radialGradient10);stroke-width:1.15532"
     d="M 39.012647,23.142083 A 13.86377,13.86377 0 0 1 52.876417,37.005852 13.86377,13.86377 0 0 1 39.012647,50.869622 13.86377,13.86377 0 0 1 25.148878,37.005852 13.86377,13.86377 0 0 1 39.012647,23.142083 Z"
     id="path4" />
  <circle
     style="fill:url(#radialGradient6);stroke-width:1.21216"
     cx="39.008595"
     cy="37.004158"
     r="7.2753501"
     id="circle4" />
  <path
     style="fill:none;stroke:url(#radialGradient17);stroke-width:0.467;stroke-dasharray:none;stroke-opacity:1;filter:url(#filter17)"
     d="M 39.038392,21.773238 A 15.289524,15.289524 0 0 1 54.327916,37.062762 15.289524,15.289524 0 0 1 39.038392,52.352286 15.289524,15.289524 0 0 1 23.748868,37.062762 15.289524,15.289524 0 0 1 39.038392,21.773238 Z"
     id="path4-6"
     transform="matrix(0.9067496,0,0,0.9067496,3.6403458,3.4561175)" />
  <circle
     style="fill:none;stroke:url(#radialGradient2);stroke-width:0.47723206;stroke-dasharray:none;stroke-opacity:1;opacity:1;filter:url(#filter2)"
     cx="39.032394"
     cy="37.056763"
     r="8.6800718"
     id="circle4-2"
     transform="matrix(0.83816703,0,0,0.83816703,6.3167282,5.9970059)" />
</svg>
