<?xml version="1.0" encoding="UTF-8" standalone="no"?>
<svg
   width="64"
   height="64"
   version="1"
   id="svg8"
   sodipodi:docname="com.calibre_ebook.calibre.lrfviewer.svg"
   inkscape:version="1.4 (e7c3feb100, 2024-10-09)"
   xmlns:inkscape="http://www.inkscape.org/namespaces/inkscape"
   xmlns:sodipodi="http://sodipodi.sourceforge.net/DTD/sodipodi-0.dtd"
   xmlns:xlink="http://www.w3.org/1999/xlink"
   xmlns="http://www.w3.org/2000/svg"
   xmlns:svg="http://www.w3.org/2000/svg">
  <defs
     id="defs8">
    <inkscape:path-effect
       effect="fillet_chamfer"
       id="path-effect8"
       is_visible="true"
       lpeversion="1"
       nodesatellites_param="F,0,0,1,0,8.3189409,0,1 @ F,0,1,1,0,8.3189409,0,1 @ F,0,1,1,0,8.3189409,0,1 @ F,0,1,1,0,8.3189409,0,1"
       radius="0"
       unit="px"
       method="auto"
       mode="F"
       chamfer_steps="1"
       flexible="false"
       use_knot_distance="true"
       apply_no_radius="true"
       apply_with_radius="true"
       only_selected="false"
       hide_knots="false" />
    <inkscape:path-effect
       effect="fillet_chamfer"
       id="path-effect9"
       is_visible="true"
       lpeversion="1"
       nodesatellites_param="F,0,0,1,0,8.4491927,0,1 @ F,0,0,1,0,0,0,1 @ F,0,0,1,0,0,0,1 @ F,0,1,1,0,8.4491927,0,1"
       radius="0"
       unit="px"
       method="auto"
       mode="F"
       chamfer_steps="1"
       flexible="false"
       use_knot_distance="true"
       apply_no_radius="true"
       apply_with_radius="true"
       only_selected="false"
       hide_knots="false" />
    <radialGradient
       inkscape:collect="always"
       xlink:href="#linearGradient5-6"
       id="radialGradient6-3"
       cx="45.196259"
       cy="56.678448"
       fx="45.196259"
       fy="56.678448"
       r="22"
       gradientTransform="matrix(-1.3947388,-5.2052358,4.2516108,-1.1392157,-110.38373,365.65775)"
       gradientUnits="userSpaceOnUse" />
    <linearGradient
       id="linearGradient5-6"
       inkscape:collect="always">
      <stop
         style="stop-color:#ffe567;stop-opacity:1;"
         offset="0"
         id="stop5-7" />
      <stop
         style="stop-color:#ff9c58;stop-opacity:1;"
         offset="1"
         id="stop6-5" />
    </linearGradient>
    <inkscape:path-effect
       effect="fillet_chamfer"
       id="path-effect8-6"
       is_visible="true"
       lpeversion="1"
       nodesatellites_param="F,0,0,1,0,8.3189409,0,1 @ F,0,1,1,0,8.3189409,0,1 @ F,0,1,1,0,8.3189409,0,1 @ F,0,1,1,0,8.3189409,0,1"
       radius="0"
       unit="px"
       method="auto"
       mode="F"
       chamfer_steps="1"
       flexible="false"
       use_knot_distance="true"
       apply_no_radius="true"
       apply_with_radius="true"
       only_selected="false"
       hide_knots="false" />
    <inkscape:path-effect
       effect="fillet_chamfer"
       id="path-effect9-3"
       is_visible="true"
       lpeversion="1"
       nodesatellites_param="F,0,0,1,0,8.4491927,0,1 @ F,0,0,1,0,0,0,1 @ F,0,0,1,0,0,0,1 @ F,0,1,1,0,8.4491927,0,1"
       radius="0"
       unit="px"
       method="auto"
       mode="F"
       chamfer_steps="1"
       flexible="false"
       use_knot_distance="true"
       apply_no_radius="true"
       apply_with_radius="true"
       only_selected="false"
       hide_knots="false" />
  </defs>
  <sodipodi:namedview
     id="namedview8"
     pagecolor="#ffffff"
     bordercolor="#000000"
     borderopacity="0.25"
     inkscape:showpageshadow="2"
     inkscape:pageopacity="0.0"
     inkscape:pagecheckerboard="0"
     inkscape:deskcolor="#d1d1d1"
     inkscape:zoom="17.828125"
     inkscape:cx="32"
     inkscape:cy="32"
     inkscape:window-width="3440"
     inkscape:window-height="1361"
     inkscape:window-x="0"
     inkscape:window-y="0"
     inkscape:window-maximized="1"
     inkscape:current-layer="svg8" />
  <g
     id="g1">
    <g
       id="g2">
      <path
         id="rect2-5"
         style="fill:url(#radialGradient6-3);stroke-width:0.891381"
         d="m 20.708557,7.0413289 h 22.582886 a 8.3189409,8.3189409 45 0 1 8.318941,8.3189411 v 33.279461 a 8.3189409,8.3189409 135 0 1 -8.318941,8.318941 H 20.708557 A 8.3189409,8.3189409 45 0 1 12.389616,48.639731 V 15.36027 a 8.3189409,8.3189409 135 0 1 8.318941,-8.3189411 z"
         transform="matrix(1.0760643,0,0,1.0760643,-2.4281595,-2.4233975)"
         inkscape:original-d="M 12.389616,7.0413289 H 51.610384 V 56.958672 H 12.389616 Z"
         inkscape:path-effect="#path-effect8-6" />
      <path
         style="opacity:0.349074;fill:#ff1900;fill-opacity:1;stroke-width:0.959183"
         d="M 37.676513,5.1849742 V 32.042109 l 3.836733,-3.836734 3.836734,3.836734 V 5.1849742 Z"
         id="path3-6" />
      <path
         id="rect8-2"
         style="opacity:0.199018;fill:#ff0000;fill-opacity:1;stroke-width:0.3;stroke-linecap:round;stroke-linejoin:round;stroke-miterlimit:4.6;paint-order:stroke fill markers"
         d="m 20.827847,7.0215149 h 1.273605 V 56.956268 H 20.827847 A 8.4491927,8.4491927 45 0 1 12.378654,48.507075 V 15.470708 a 8.4491927,8.4491927 135 0 1 8.449193,-8.4491931 z"
         transform="matrix(1.0760643,0,0,1.0760643,-2.4281595,-2.4233975)"
         inkscape:original-d="m 12.378654,7.0215149 h 9.722798 V 56.956268 h -9.722798 z"
         inkscape:path-effect="#path-effect9-3" />
    </g>
  </g>
  <path
     style="fill:#ff0000;fill-rule:evenodd;fill-opacity:1;opacity:0.36118292"
     d="m 41.513246,42.982472 c -1.93854,0.02128 -3.889524,0.518117 -5.578125,1.589844 -0.67302,0.490944 -1.480983,1.124811 -2.089843,1.763672 -0.958,1.050471 -1.778031,2.275433 -2.332032,3.648437 1.518681,3.751906 4.856497,6.501901 8.529297,6.908203 2.4092,0.30542 4.931028,-0.161009 7.048828,-1.496094 0.673001,-0.490943 1.480984,-1.12481 2.089844,-1.763671 0.958,-1.052711 1.778031,-2.277674 2.332031,-3.648438 -1.518,-3.751682 -4.857297,-6.502797 -8.529296,-6.908203 -0.488,-0.06495 -0.980703,-0.09375 -1.470704,-0.09375 z m 0.0039,3 c 2.139701,-0.04741 4.034404,1.867621 3.99414,3.996094 0.06857,2.352448 -2.274639,4.382659 -4.591797,3.943359 -2.340164,-0.274786 -3.984532,-2.901019 -3.214843,-5.125 0.492105,-1.636188 2.099539,-2.831675 3.814453,-2.8125 z m -0.0039,2 a 1.9999991,1.9988488 0 0 0 -2,2.001953 1.9999991,1.9988488 0 0 0 2,1.998047 1.9999991,1.9988488 0 0 0 2,-1.998047 1.9999991,1.9988488 0 0 0 -2,-1.998047 z"
     id="path8" />
</svg>
