<?xml version="1.0" encoding="UTF-8" standalone="no"?>
<!-- Generator: Adobe Illustrator 25.2.2, SVG Export Plug-In . SVG Version: 6.00 Build 0)  -->

<svg
   version="1.1"
   id="Layer_1"
   x="0px"
   y="0px"
   viewBox="0 0 64 64"
   style="enable-background:new 0 0 64 64;"
   xml:space="preserve"
   sodipodi:docname="preferences-tweaks-slingshot.svg"
   inkscape:version="1.3.2 (091e20ef0f, 2023-11-25, custom)"
   xmlns:inkscape="http://www.inkscape.org/namespaces/inkscape"
   xmlns:sodipodi="http://sodipodi.sourceforge.net/DTD/sodipodi-0.dtd"
   xmlns:xlink="http://www.w3.org/1999/xlink"
   xmlns="http://www.w3.org/2000/svg"
   xmlns:svg="http://www.w3.org/2000/svg"><defs
   id="defs23"><linearGradient
     id="linearGradient1"
     inkscape:collect="always"><stop
       style="stop-color:#00d4ff;stop-opacity:1;"
       offset="0"
       id="stop8" /><stop
       style="stop-color:#0091ff;stop-opacity:1;"
       offset="1"
       id="stop9" /></linearGradient><inkscape:path-effect
     effect="fillet_chamfer"
     id="path-effect1"
     is_visible="true"
     lpeversion="1"
     nodesatellites_param="F,0,1,1,0,2.7272561,0,1 @ F,0,1,1,0,2.7272561,0,1 @ F,0,1,1,0,2.7272561,0,1 @ F,0,1,1,0,2.7272561,0,1 | F,0,0,1,0,2.7272561,0,1 @ F,0,1,1,0,2.7272561,0,1 @ F,0,1,1,0,2.7272561,0,1 @ F,0,1,1,0,2.7272561,0,1 | F,0,1,1,0,2.7272561,0,1 @ F,0,1,1,0,2.7272561,0,1 @ F,0,1,1,0,2.7272561,0,1 @ F,0,1,1,0,2.7272561,0,1 | F,0,1,1,0,2.7272561,0,1 @ F,0,1,1,0,2.7272561,0,1 @ F,0,1,1,0,2.7272561,0,1 @ F,0,1,1,0,2.7272561,0,1 | F,0,1,1,0,2.7272561,0,1 @ F,0,1,1,0,2.7272561,0,1 @ F,0,1,1,0,2.7272561,0,1 @ F,0,1,1,0,2.7272561,0,1 | F,0,1,1,0,2.7272561,0,1 @ F,0,1,1,0,2.7272561,0,1 @ F,0,1,1,0,2.7272561,0,1 @ F,0,1,1,0,2.7272561,0,1 | F,0,1,1,0,2.7272561,0,1 @ F,0,1,1,0,2.7272561,0,1 @ F,0,1,1,0,2.7272561,0,1 @ F,0,1,1,0,2.7272561,0,1 | F,0,1,1,0,2.7272561,0,1 @ F,0,1,1,0,2.7272561,0,1 @ F,0,1,1,0,2.7272561,0,1 @ F,0,1,1,0,2.7272561,0,1 | F,0,1,1,0,2.7272561,0,1 @ F,0,1,1,0,2.7272561,0,1 @ F,0,1,1,0,2.7272561,0,1 @ F,0,1,1,0,2.7272561,0,1"
     radius="0"
     unit="px"
     method="auto"
     mode="F"
     chamfer_steps="1"
     flexible="false"
     use_knot_distance="true"
     apply_no_radius="true"
     apply_with_radius="true"
     only_selected="false"
     hide_knots="false" /><radialGradient
     id="SVGID_2_-3"
     cx="31.1758"
     cy="18.220301"
     r="24.0152"
     gradientUnits="userSpaceOnUse"
     gradientTransform="translate(-0.07549066,0.0493215)">
	<stop
   offset="0"
   style="stop-color:#007BFF"
   id="stop16-6" />
	<stop
   offset="0.3234"
   style="stop-color:#0077FF"
   id="stop17-7" />
	<stop
   offset="0.6777"
   style="stop-color:#0069FF"
   id="stop18-5" />
	<stop
   offset="0.9959"
   style="stop-color:#0057FF"
   id="stop19-3" />
</radialGradient><radialGradient
     id="SVGID_3_-5"
     cx="19.708599"
     cy="17.551201"
     r="38.5704"
     gradientUnits="userSpaceOnUse"
     gradientTransform="translate(-0.07549066,0.0493215)">
	<stop
   offset="0"
   style="stop-color:#FF3A66"
   id="stop20-6" />
	<stop
   offset="1"
   style="stop-color:#FF6755"
   id="stop21-2" />
</radialGradient><radialGradient
     id="SVGID_4_-9"
     cx="32.216702"
     cy="30.1873"
     r="22.2855"
     gradientUnits="userSpaceOnUse"
     gradientTransform="translate(-0.07549066,0.0493215)">
	<stop
   offset="0"
   style="stop-color:#69FF2A"
   id="stop22-1" />
	<stop
   offset="0.9959"
   style="stop-color:#00BFA1"
   id="stop23-2" />
</radialGradient><radialGradient
     inkscape:collect="always"
     xlink:href="#linearGradient1"
     id="radialGradient9"
     cx="11.380849"
     cy="20.633543"
     fx="11.380849"
     fy="20.633543"
     r="24.856163"
     gradientUnits="userSpaceOnUse"
     gradientTransform="matrix(0,2.0421866,-2.0421867,0,49.07172,-16.097891)" /><inkscape:path-effect
     effect="fillet_chamfer"
     id="path-effect1-6"
     is_visible="true"
     lpeversion="1"
     nodesatellites_param="F,0,1,1,0,2.7272561,0,1 @ F,0,1,1,0,2.7272561,0,1 @ F,0,1,1,0,2.7272561,0,1 @ F,0,1,1,0,2.7272561,0,1 | F,0,0,1,0,2.7272561,0,1 @ F,0,1,1,0,2.7272561,0,1 @ F,0,1,1,0,2.7272561,0,1 @ F,0,1,1,0,2.7272561,0,1 | F,0,1,1,0,2.7272561,0,1 @ F,0,1,1,0,2.7272561,0,1 @ F,0,1,1,0,2.7272561,0,1 @ F,0,1,1,0,2.7272561,0,1 | F,0,1,1,0,2.7272561,0,1 @ F,0,1,1,0,2.7272561,0,1 @ F,0,1,1,0,2.7272561,0,1 @ F,0,1,1,0,2.7272561,0,1 | F,0,1,1,0,2.7272561,0,1 @ F,0,1,1,0,2.7272561,0,1 @ F,0,1,1,0,2.7272561,0,1 @ F,0,1,1,0,2.7272561,0,1 | F,0,1,1,0,2.7272561,0,1 @ F,0,1,1,0,2.7272561,0,1 @ F,0,1,1,0,2.7272561,0,1 @ F,0,1,1,0,2.7272561,0,1 | F,0,1,1,0,2.7272561,0,1 @ F,0,1,1,0,2.7272561,0,1 @ F,0,1,1,0,2.7272561,0,1 @ F,0,1,1,0,2.7272561,0,1 | F,0,1,1,0,2.7272561,0,1 @ F,0,1,1,0,2.7272561,0,1 @ F,0,1,1,0,2.7272561,0,1 @ F,0,1,1,0,2.7272561,0,1 | F,0,1,1,0,2.7272561,0,1 @ F,0,1,1,0,2.7272561,0,1 @ F,0,1,1,0,2.7272561,0,1 @ F,0,1,1,0,2.7272561,0,1"
     radius="0"
     unit="px"
     method="auto"
     mode="F"
     chamfer_steps="1"
     flexible="false"
     use_knot_distance="true"
     apply_no_radius="true"
     apply_with_radius="true"
     only_selected="false"
     hide_knots="false" /><filter
     inkscape:collect="always"
     style="color-interpolation-filters:sRGB"
     id="filter9"
     x="-0.1391284"
     y="-0.1391284"
     width="1.2782568"
     height="1.2782568"><feGaussianBlur
       inkscape:collect="always"
       stdDeviation="2.8193318"
       id="feGaussianBlur9" /></filter><filter
     inkscape:collect="always"
     style="color-interpolation-filters:sRGB"
     id="filter10"
     x="-0.10946491"
     y="-0.11021393"
     width="1.2189298"
     height="1.2204279"><feGaussianBlur
       inkscape:collect="always"
       stdDeviation="1.3346622"
       id="feGaussianBlur10" /></filter></defs><sodipodi:namedview
   id="namedview23"
   pagecolor="#505050"
   bordercolor="#eeeeee"
   borderopacity="1"
   inkscape:showpageshadow="0"
   inkscape:pageopacity="0"
   inkscape:pagecheckerboard="0"
   inkscape:deskcolor="#505050"
   inkscape:zoom="9.534893"
   inkscape:cx="32.879236"
   inkscape:cy="42.737763"
   inkscape:window-width="1920"
   inkscape:window-height="1018"
   inkscape:window-x="0"
   inkscape:window-y="0"
   inkscape:window-maximized="1"
   inkscape:current-layer="Layer_1" />
<style
   type="text/css"
   id="style1">
	.st0{opacity:0.15;}
	.st1{fill:url(#SVGID_1_);}
	.st2{opacity:0.1;}
	.st3{fill:url(#SVGID_2_);}
	.st4{fill:url(#SVGID_3_);}
	.st5{fill:url(#SVGID_4_);}
</style>

<radialGradient
   id="SVGID_1_"
   cx="10.2251"
   cy="13.0289"
   r="64.2682"
   gradientUnits="userSpaceOnUse">
	<stop
   offset="0"
   style="stop-color:#FFFFFF"
   id="stop1" />
	<stop
   offset="0.3679"
   style="stop-color:#FDFDFD"
   id="stop2" />
	<stop
   offset="0.5592"
   style="stop-color:#F5F5F5"
   id="stop3" />
	<stop
   offset="0.7098"
   style="stop-color:#E7E7E7"
   id="stop4" />
	<stop
   offset="0.8392"
   style="stop-color:#D4D4D4"
   id="stop5" />
	<stop
   offset="0.9539"
   style="stop-color:#BCBCBC"
   id="stop6" />
	<stop
   offset="0.9959"
   style="stop-color:#B1B1B1"
   id="stop7" />
</radialGradient>


<radialGradient
   id="SVGID_2_"
   cx="31.1758"
   cy="18.2203"
   r="24.0152"
   gradientUnits="userSpaceOnUse"
   gradientTransform="matrix(0.91546446,0,0,0.91546446,2.7051372,2.7051372)">
	<stop
   offset="0"
   style="stop-color:#007BFF"
   id="stop16" />
	<stop
   offset="0.3234"
   style="stop-color:#0077FF"
   id="stop17" />
	<stop
   offset="0.6777"
   style="stop-color:#0069FF"
   id="stop18" />
	<stop
   offset="0.9959"
   style="stop-color:#0057FF"
   id="stop19" />
</radialGradient>

<radialGradient
   id="SVGID_3_"
   cx="19.7086"
   cy="17.5512"
   r="38.5704"
   gradientUnits="userSpaceOnUse"
   gradientTransform="matrix(0.91546446,0,0,0.91546446,2.7051372,2.7051372)">
	<stop
   offset="0"
   style="stop-color:#FF3A66"
   id="stop20" />
	<stop
   offset="1"
   style="stop-color:#FF6755"
   id="stop21" />
</radialGradient>

<radialGradient
   id="SVGID_4_"
   cx="32.2167"
   cy="30.1873"
   r="22.2855"
   gradientUnits="userSpaceOnUse"
   gradientTransform="matrix(0.91546446,0,0,0.91546446,2.7051372,2.7051372)">
	<stop
   offset="0"
   style="stop-color:#69FF2A"
   id="stop22" />
	<stop
   offset="0.9959"
   style="stop-color:#00BFA1"
   id="stop23" />
</radialGradient>

<rect
   style="opacity:1;fill:url(#radialGradient9);stroke-width:0.0947999;stroke-linecap:round;stroke-linejoin:round;stroke-miterlimit:2.1;paint-order:markers stroke fill;fill-opacity:1"
   id="rect1"
   width="49.712326"
   height="49.712326"
   x="7.143837"
   y="7.143837"
   rx="14.36742"
   ry="14.36742" /><path
   id="rect1-3"
   style="opacity:1;fill:#ffffff;stroke-width:0.0160078;stroke-linecap:round;stroke-linejoin:round;stroke-miterlimit:2.1;paint-order:markers stroke fill"
   d="m 27.949219,19.637412 v 2.94002 a 2.7272561,2.7272561 45 0 0 2.727256,2.727256 l 2.940019,0 a 2.7272561,2.7272561 135 0 0 2.727256,-2.727256 v -2.94002 a 2.7272561,2.7272561 45 0 0 -2.727256,-2.727256 h -2.940019 a 2.7272561,2.7272561 135 0 0 -2.727256,2.727256 z m -10.902344,0.02539 v 2.940019 a 2.7272561,2.7272561 45 0 0 2.727256,2.727256 h 2.940019 a 2.7272561,2.7272561 135 0 0 2.727256,-2.727256 V 19.662802 A 2.7272561,2.7272561 45 0 0 22.71415,16.935546 h -2.940019 a 2.7272561,2.7272561 135 0 0 -2.727256,2.727256 z m 21.707031,0 v 2.940019 a 2.7272561,2.7272561 45 0 0 2.727256,2.727256 h 2.94002 a 2.7272561,2.7272561 135 0 0 2.727256,-2.727256 v -2.940018 a 2.7272564,2.7272564 45.000003 0 0 -2.727256,-2.727256 l -2.94002,-1e-6 a 2.7272558,2.7272558 135 0 0 -2.727256,2.727256 z M 17.058594,30.520225 v 2.940019 A 2.7272561,2.7272561 45 0 0 19.78585,36.1875 h 2.940019 a 2.7272561,2.7272561 135 0 0 2.727256,-2.727256 V 30.520225 A 2.7272561,2.7272561 45 0 0 22.725869,27.792969 H 19.78585 a 2.7272561,2.7272561 135 0 0 -2.727256,2.727256 z m 10.853515,0 v 2.940019 a 2.7272561,2.7272561 45 0 0 2.727256,2.727256 h 2.94002 a 2.7272561,2.7272561 135 0 0 2.727256,-2.727256 v -2.940019 a 2.7272561,2.7272561 45 0 0 -2.727256,-2.727256 h -2.94002 a 2.7272561,2.7272561 135 0 0 -2.727256,2.727256 z m 10.853516,0 v 2.940019 A 2.7272561,2.7272561 45 0 0 41.492881,36.1875 H 44.4329 a 2.7272561,2.7272561 135 0 0 2.727256,-2.727256 V 30.520225 A 2.7272561,2.7272561 45 0 0 44.4329,27.792969 h -2.940019 a 2.7272561,2.7272561 135 0 0 -2.727256,2.727256 z M 27.875,41.184287 l 0,2.940019 a 2.7272561,2.7272561 45 0 0 2.727256,2.727256 h 2.938066 a 2.7272561,2.7272561 135 0 0 2.727256,-2.727256 V 41.184287 A 2.7272561,2.7272561 45 0 0 33.540322,38.457031 H 30.602256 A 2.7272561,2.7272561 135 0 0 27.875,41.184287 Z m -10.890625,0.0293 v 2.940019 a 2.7272561,2.7272561 45 0 0 2.727256,2.727256 h 2.940019 a 2.7272561,2.7272561 135 0 0 2.727256,-2.727256 l 0,-2.940019 A 2.7272561,2.7272561 45 0 0 22.65165,38.486331 h -2.940019 a 2.7272561,2.7272561 135 0 0 -2.727256,2.727256 z m 21.705078,0 v 2.940019 a 2.7272561,2.7272561 45 0 0 2.727256,2.727256 h 2.940019 a 2.7272561,2.7272561 135 0 0 2.727256,-2.727256 v -2.940019 a 2.7272561,2.7272561 45 0 0 -2.727256,-2.727256 h -2.940019 a 2.7272561,2.7272561 135 0 0 -2.727256,2.727256 z"
   inkscape:path-effect="#path-effect1"
   inkscape:original-d="m 27.949219,16.910156 v 8.394532 h 8.394531 v -8.394532 z m -10.902344,0.02539 v 8.394531 h 8.394531 v -8.394531 z m 21.707031,0 v 8.394531 h 8.394532 v -8.39453 z M 17.058594,27.792969 V 36.1875 h 8.394531 v -8.394531 z m 10.853515,0 V 36.1875 h 8.394532 v -8.394531 z m 10.853516,0 V 36.1875 h 8.394531 V 27.792969 Z M 27.875,38.457031 v 8.394531 h 8.392578 v -8.394531 z m -10.890625,0.0293 v 8.394531 h 8.394531 v -8.394531 z m 21.705078,0 v 8.394531 h 8.394531 v -8.394531 z"
   transform="translate(-0.0722655,0.104491)" /><rect
   style="fill:none;fill-opacity:1;stroke-width:0.3;stroke-linecap:round;stroke-linejoin:round;stroke-miterlimit:2.1;paint-order:markers stroke fill;stroke:#000000;stroke-opacity:1;stroke-dasharray:none;filter:url(#filter9)"
   id="rect1-6"
   width="49.712326"
   height="49.712326"
   x="7.143837"
   y="7.143837"
   rx="14.36742"
   ry="14.36742" /><path
   id="rect1-3-1"
   style="fill:none;stroke-width:0.2;stroke-linecap:round;stroke-linejoin:round;stroke-miterlimit:2.1;paint-order:markers stroke fill;stroke:#9f00ff;stroke-opacity:1;stroke-dasharray:none;filter:url(#filter10)"
   d="m 27.949219,19.637412 v 2.94002 a 2.7272561,2.7272561 45 0 0 2.727256,2.727256 l 2.940019,0 a 2.7272561,2.7272561 135 0 0 2.727256,-2.727256 v -2.94002 a 2.7272561,2.7272561 45 0 0 -2.727256,-2.727256 h -2.940019 a 2.7272561,2.7272561 135 0 0 -2.727256,2.727256 z m -10.902344,0.02539 v 2.940019 a 2.7272561,2.7272561 45 0 0 2.727256,2.727256 h 2.940019 a 2.7272561,2.7272561 135 0 0 2.727256,-2.727256 V 19.662802 A 2.7272561,2.7272561 45 0 0 22.71415,16.935546 h -2.940019 a 2.7272561,2.7272561 135 0 0 -2.727256,2.727256 z m 21.707031,0 v 2.940019 a 2.7272561,2.7272561 45 0 0 2.727256,2.727256 h 2.94002 a 2.7272561,2.7272561 135 0 0 2.727256,-2.727256 v -2.940018 a 2.7272564,2.7272564 45.000003 0 0 -2.727256,-2.727256 l -2.94002,-1e-6 a 2.7272558,2.7272558 135 0 0 -2.727256,2.727256 z M 17.058594,30.520225 v 2.940019 A 2.7272561,2.7272561 45 0 0 19.78585,36.1875 h 2.940019 a 2.7272561,2.7272561 135 0 0 2.727256,-2.727256 V 30.520225 A 2.7272561,2.7272561 45 0 0 22.725869,27.792969 H 19.78585 a 2.7272561,2.7272561 135 0 0 -2.727256,2.727256 z m 10.853515,0 v 2.940019 a 2.7272561,2.7272561 45 0 0 2.727256,2.727256 h 2.94002 a 2.7272561,2.7272561 135 0 0 2.727256,-2.727256 v -2.940019 a 2.7272561,2.7272561 45 0 0 -2.727256,-2.727256 h -2.94002 a 2.7272561,2.7272561 135 0 0 -2.727256,2.727256 z m 10.853516,0 v 2.940019 A 2.7272561,2.7272561 45 0 0 41.492881,36.1875 H 44.4329 a 2.7272561,2.7272561 135 0 0 2.727256,-2.727256 V 30.520225 A 2.7272561,2.7272561 45 0 0 44.4329,27.792969 h -2.940019 a 2.7272561,2.7272561 135 0 0 -2.727256,2.727256 z M 27.875,41.184287 l 0,2.940019 a 2.7272561,2.7272561 45 0 0 2.727256,2.727256 h 2.938066 a 2.7272561,2.7272561 135 0 0 2.727256,-2.727256 V 41.184287 A 2.7272561,2.7272561 45 0 0 33.540322,38.457031 H 30.602256 A 2.7272561,2.7272561 135 0 0 27.875,41.184287 Z m -10.890625,0.0293 v 2.940019 a 2.7272561,2.7272561 45 0 0 2.727256,2.727256 h 2.940019 a 2.7272561,2.7272561 135 0 0 2.727256,-2.727256 l 0,-2.940019 A 2.7272561,2.7272561 45 0 0 22.65165,38.486331 h -2.940019 a 2.7272561,2.7272561 135 0 0 -2.727256,2.727256 z m 21.705078,0 v 2.940019 a 2.7272561,2.7272561 45 0 0 2.727256,2.727256 h 2.940019 a 2.7272561,2.7272561 135 0 0 2.727256,-2.727256 v -2.940019 a 2.7272561,2.7272561 45 0 0 -2.727256,-2.727256 h -2.940019 a 2.7272561,2.7272561 135 0 0 -2.727256,2.727256 z"
   inkscape:path-effect="#path-effect1-6"
   inkscape:original-d="m 27.949219,16.910156 v 8.394532 h 8.394531 v -8.394532 z m -10.902344,0.02539 v 8.394531 h 8.394531 v -8.394531 z m 21.707031,0 v 8.394531 h 8.394532 v -8.39453 z M 17.058594,27.792969 V 36.1875 h 8.394531 v -8.394531 z m 10.853515,0 V 36.1875 h 8.394532 v -8.394531 z m 10.853516,0 V 36.1875 h 8.394531 V 27.792969 Z M 27.875,38.457031 v 8.394531 h 8.392578 v -8.394531 z m -10.890625,0.0293 v 8.394531 h 8.394531 v -8.394531 z m 21.705078,0 v 8.394531 h 8.394531 v -8.394531 z"
   transform="translate(-0.0722655,0.104491)" /></svg>
