<?xml version="1.0" encoding="UTF-8" standalone="no"?>
<svg
   width="64"
   height="64"
   version="1.1"
   id="svg6"
   sodipodi:docname="discord-canary.svg"
   inkscape:version="1.3.2 (091e20ef0f, 2023-11-25, custom)"
   xmlns:inkscape="http://www.inkscape.org/namespaces/inkscape"
   xmlns:sodipodi="http://sodipodi.sourceforge.net/DTD/sodipodi-0.dtd"
   xmlns:xlink="http://www.w3.org/1999/xlink"
   xmlns="http://www.w3.org/2000/svg"
   xmlns:svg="http://www.w3.org/2000/svg">
  <defs
     id="defs6">
    <linearGradient
       id="linearGradient1">
      <stop
         style="stop-color:#3f3f3f;stop-opacity:1;"
         offset="0"
         id="stop1" />
      <stop
         style="stop-color:#2b2b2b;stop-opacity:1;"
         offset="0.99961597"
         id="stop2" />
    </linearGradient>
    <linearGradient
       id="linearGradient2"
       inkscape:collect="always">
      <stop
         style="stop-color:#9e00ff;stop-opacity:1;"
         offset="0"
         id="stop3" />
      <stop
         style="stop-color:#914cff;stop-opacity:1;"
         offset="1"
         id="stop4" />
    </linearGradient>
    <radialGradient
       inkscape:collect="always"
       xlink:href="#linearGradient2"
       id="radialGradient1"
       cx="32.088093"
       cy="32.92907"
       fx="32.088093"
       fy="32.92907"
       r="30.514181"
       gradientUnits="userSpaceOnUse" />
    <linearGradient
       id="linearGradient1-1">
      <stop
         style="stop-color:#3f3f3f;stop-opacity:1;"
         offset="0"
         id="stop5" />
      <stop
         style="stop-color:#2b2b2b;stop-opacity:1;"
         offset="0.99961597"
         id="stop10" />
    </linearGradient>
    <filter
       inkscape:collect="always"
       style="color-interpolation-filters:sRGB"
       id="filter14"
       x="-0.081591338"
       y="-0.1069615"
       width="1.1631898"
       height="1.2147951">
      <feGaussianBlur
         inkscape:collect="always"
         stdDeviation="1.6025762"
         id="feGaussianBlur14" />
    </filter>
    <radialGradient
       inkscape:collect="always"
       xlink:href="#linearGradient14"
       id="radialGradient15"
       cx="11.963057"
       cy="50.652687"
       fx="11.963057"
       fy="50.652687"
       r="27.279749"
       gradientTransform="matrix(2.602166,-0.69724827,0.53973806,2.0143299,-46.505985,-47.243157)"
       gradientUnits="userSpaceOnUse" />
    <linearGradient
       id="linearGradient14"
       inkscape:collect="always">
      <stop
         style="stop-color:#ffb942;stop-opacity:1;"
         offset="0"
         id="stop14" />
      <stop
         style="stop-color:#ff7f2d;stop-opacity:1;"
         offset="1"
         id="stop15" />
    </linearGradient>
  </defs>
  <sodipodi:namedview
     id="namedview6"
     pagecolor="#ffffff"
     bordercolor="#000000"
     borderopacity="0.25"
     inkscape:showpageshadow="2"
     inkscape:pageopacity="0.0"
     inkscape:pagecheckerboard="0"
     inkscape:deskcolor="#d1d1d1"
     inkscape:zoom="8.9714173"
     inkscape:cx="22.794615"
     inkscape:cy="33.718195"
     inkscape:window-width="1920"
     inkscape:window-height="1020"
     inkscape:window-x="0"
     inkscape:window-y="0"
     inkscape:window-maximized="1"
     inkscape:current-layer="svg6" />
  <path
     id="path6"
     style="fill:#ffffff;stroke-width:0.8;stroke-linecap:round;stroke-linejoin:round"
     d="M 50.561855,35.128204 A 18.583361,10.367277 0 0 1 31.978495,45.495481 18.583361,10.367277 0 0 1 13.395134,35.128204 18.583361,10.367277 0 0 1 31.978495,24.760927 18.583361,10.367277 0 0 1 50.561855,35.128204 Z" />
  <path
     d="m 51.00577,14.45467 c -3.531735,-1.65241 -7.308032,-2.853313 -11.256046,-3.537118 -0.484864,0.876613 -1.051323,2.055678 -1.441876,2.993619 -4.196842,-0.631153 -8.35509,-0.631153 -12.474748,0 -0.390478,-0.937941 -0.969802,-2.117006 -1.459003,-2.993619 -3.952278,0.683805 -7.732912,1.88912 -11.264646,3.545869 -7.1235376,10.764599 -9.0546117,21.261824 -8.0890728,31.609994 4.7247051,3.528292 9.3035128,5.671625 13.8050488,7.074163 1.111454,-1.52968 2.102721,-3.155766 2.956673,-4.869504 -1.626384,-0.61799 -3.18411,-1.380623 -4.655977,-2.265988 0.390479,-0.289286 0.772431,-0.591738 1.141445,-0.902938 8.977343,4.198935 18.731456,4.198935 27.601549,0 0.373353,0.3112 0.755229,0.613652 1.141446,0.902938 -1.476205,0.889704 -3.038194,1.652337 -4.664579,2.2704 0.853952,1.709326 1.840957,3.339823 2.956673,4.869429 4.505875,-1.402537 9.08893,-3.545794 13.81364,-7.0785 C 60.249216,34.077248 57.180956,23.676427 51.00577,14.45467 Z M 23.005141,39.709384 c -2.694909,0 -4.904953,-2.51586 -4.904953,-5.579559 0,-3.063697 2.162852,-5.583896 4.904953,-5.583896 2.742175,0 4.952144,2.515786 4.904953,5.583896 0.0043,3.063699 -2.162778,5.579559 -4.904953,5.579559 z m 18.126404,0 c -2.694909,0 -4.904954,-2.51586 -4.904954,-5.579559 0,-3.063697 2.162779,-5.583896 4.904954,-5.583896 2.742101,0 4.952144,2.515786 4.904952,5.583896 0,3.063699 -2.162851,5.579559 -4.904952,5.579559 z"
     fill="#5865f2"
     fill-rule="nonzero"
     id="path1"
     style="fill:url(#radialGradient15);stroke-width:0.213123" />
  <path
     d="m 50.937138,14.40152 c -3.531734,-1.65241 -7.308031,-2.853313 -11.256046,-3.537118 -0.484863,0.876614 -1.051323,2.055678 -1.441875,2.993619 -4.196842,-0.631152 -8.35509,-0.631152 -12.474748,0 C 25.37399,12.92008 24.794667,11.741016 24.305465,10.864402 20.353188,11.548207 16.572553,12.753523 13.04082,14.410271 5.9172829,25.17487 3.9862079,35.672096 4.9517469,46.020265 c 4.724705,3.528293 9.3035131,5.671626 13.8050481,7.074163 1.111454,-1.52968 2.102721,-3.155766 2.956673,-4.869503 -1.626383,-0.617991 -3.184109,-1.380624 -4.655976,-2.265988 0.390478,-0.289287 0.772431,-0.591738 1.141445,-0.902938 8.977343,4.198935 18.731455,4.198935 27.601548,0 0.373354,0.3112 0.75523,0.613651 1.141447,0.902938 -1.476205,0.889703 -3.038195,1.652336 -4.664579,2.2704 0.853952,1.709325 1.840957,3.339823 2.956673,4.869428 4.505874,-1.402537 9.08893,-3.545794 13.813639,-7.0785 1.13292,-11.996167 -1.93534,-22.396988 -8.110527,-31.618745 z M 22.936509,39.656235 c -2.694908,0 -4.904952,-2.51586 -4.904952,-5.579559 0,-3.063698 2.162852,-5.583896 4.904952,-5.583896 2.742176,0 4.952145,2.515786 4.904953,5.583896 0.0043,3.063699 -2.162777,5.579559 -4.904953,5.579559 z m 18.126405,0 c -2.694909,0 -4.904954,-2.51586 -4.904954,-5.579559 0,-3.063698 2.162779,-5.583896 4.904954,-5.583896 2.7421,0 4.952144,2.515786 4.904952,5.583896 0,3.063699 -2.162852,5.579559 -4.904952,5.579559 z"
     fill="#5865f2"
     fill-rule="nonzero"
     id="path1-0"
     style="opacity:0.59551;mix-blend-mode:normal;fill:none;stroke:#000000;stroke-width:1.213;stroke-dasharray:none;stroke-opacity:1;filter:url(#filter14)" />
</svg>
