<?xml version="1.0" encoding="UTF-8" standalone="no"?>
<!-- Generator: Adobe Illustrator 25.2.1, SVG Export Plug-In . SVG Version: 6.00 Build 0)  -->

<svg
   version="1.1"
   id="Layer_1"
   x="0px"
   y="0px"
   viewBox="0 0 64 64"
   style="enable-background:new 0 0 64 64;"
   xml:space="preserve"
   sodipodi:docname="gnome-disks.svg"
   inkscape:version="1.3.2 (091e20ef0f, 2023-11-25, custom)"
   xmlns:inkscape="http://www.inkscape.org/namespaces/inkscape"
   xmlns:sodipodi="http://sodipodi.sourceforge.net/DTD/sodipodi-0.dtd"
   xmlns:xlink="http://www.w3.org/1999/xlink"
   xmlns="http://www.w3.org/2000/svg"
   xmlns:svg="http://www.w3.org/2000/svg"><defs
   id="defs8"><inkscape:path-effect
     effect="fillet_chamfer"
     id="path-effect4"
     is_visible="true"
     lpeversion="1"
     nodesatellites_param="F,0,0,1,0,0,0,1 @ F,0,0,1,0,0,0,1 @ F,0,0,1,0,2.2021103,0,1 @ F,0,0,1,0,0,0,1 @ F,0,0,1,0,0,0,1 | F,0,0,1,0,0,0,1 @ F,0,0,1,0,0,0,1 @ F,0,0,1,0,0,0,1 @ F,0,0,1,0,0,0,1"
     radius="0"
     unit="px"
     method="auto"
     mode="F"
     chamfer_steps="1"
     flexible="false"
     use_knot_distance="true"
     apply_no_radius="true"
     apply_with_radius="true"
     only_selected="false"
     hide_knots="false" /><inkscape:path-effect
     effect="fillet_chamfer"
     id="path-effect3"
     is_visible="true"
     lpeversion="1"
     nodesatellites_param="F,0,0,1,0,0,0,1 @ F,0,0,1,0,0,0,1 @ F,0,0,1,0,3.2559444,0,1 @ F,0,0,1,0,0,0,1 @ F,0,0,1,0,0,0,1 | F,0,0,1,0,0,0,1 @ F,0,0,1,0,0,0,1 @ F,0,0,1,0,0,0,1 @ F,0,0,1,0,0,0,1"
     radius="0"
     unit="px"
     method="auto"
     mode="F"
     chamfer_steps="1"
     flexible="false"
     use_knot_distance="true"
     apply_no_radius="true"
     apply_with_radius="true"
     only_selected="false"
     hide_knots="false" /><inkscape:path-effect
     effect="fillet_chamfer"
     id="path-effect2"
     is_visible="true"
     lpeversion="1"
     nodesatellites_param=""
     radius="0"
     unit="px"
     method="auto"
     mode="F"
     chamfer_steps="1"
     flexible="false"
     use_knot_distance="true"
     apply_no_radius="true"
     apply_with_radius="true"
     only_selected="false"
     hide_knots="false" /><inkscape:path-effect
     effect="fillet_chamfer"
     id="path-effect1"
     is_visible="true"
     lpeversion="1"
     nodesatellites_param="F,0,1,1,0,1.0710873,0,1 @ F,0,0,1,0,0,0,1 @ F,0,0,1,0,0,0,1 @ F,0,1,1,0,1.0710873,0,1 @ F,0,1,1,0,1.0710873,0,1 @ F,0,0,1,0,0,0,1 @ F,0,0,1,0,0,0,1 @ F,0,0,1,0,0,0,1 @ F,0,1,1,0,1.0710873,0,1 @ F,0,1,1,0,1.0710873,0,1 @ F,0,0,1,0,0,0,1 @ F,0,0,1,0,0,0,1 @ F,0,1,1,0,1.0710873,0,1 @ F,0,1,1,0,1.0710873,0,1 @ F,0,0,1,0,0,0,1 @ F,0,0,1,0,0,0,1 @ F,0,1,1,0,1.0710873,0,1 @ F,0,1,1,0,1.0710873,0,1 @ F,0,0,1,0,0,0,1 @ F,0,0,1,0,0,0,1 @ F,0,0,1,0,0,0,1 @ F,0,0,1,0,1.0710873,0,1 @ F,0,1,1,0,1.0710873,0,1 @ F,0,0,1,0,0,0,1 @ F,0,0,1,0,0,0,1 @ F,0,1,1,0,1.0710873,0,1"
     radius="0"
     unit="px"
     method="auto"
     mode="F"
     chamfer_steps="1"
     flexible="false"
     use_knot_distance="true"
     apply_no_radius="true"
     apply_with_radius="true"
     only_selected="false"
     hide_knots="false" /><radialGradient
     inkscape:collect="always"
     xlink:href="#linearGradient4"
     id="radialGradient5"
     cx="-54.994705"
     cy="-7.5219774"
     fx="-54.994705"
     fy="-7.5219774"
     r="28"
     gradientTransform="matrix(1.3034314,1.0628165,-1.5994176,1.9615155,5.5090325,59.723295)"
     gradientUnits="userSpaceOnUse" /><linearGradient
     id="linearGradient4"
     inkscape:collect="always"><stop
       style="stop-color:#8e8e8e;stop-opacity:1;"
       offset="0"
       id="stop4-7" /><stop
       style="stop-color:#5f5f5f;stop-opacity:1;"
       offset="1"
       id="stop5-9" /></linearGradient><radialGradient
     inkscape:collect="always"
     xlink:href="#SVGID_2_-3-3"
     id="radialGradient8-5"
     gradientUnits="userSpaceOnUse"
     gradientTransform="matrix(0.51148488,0,0,-0.51148488,15.632484,62.309685)"
     cx="21.0371"
     cy="56.209099"
     r="40.250599" /><radialGradient
     id="SVGID_2_-3-3"
     cx="21.0371"
     cy="56.209099"
     r="40.250599"
     gradientTransform="matrix(1,0,0,-1,0,66)"
     gradientUnits="userSpaceOnUse">
	<stop
   offset="0"
   style="stop-color:#FFFFFF"
   id="stop5-5-6" />
	<stop
   offset="1"
   style="stop-color:#C4C4C4"
   id="stop6-6-7" />
</radialGradient><filter
     inkscape:collect="always"
     style="color-interpolation-filters:sRGB"
     id="filter5"
     x="-0.15535823"
     y="-0.15535823"
     width="1.3107165"
     height="1.3107165"><feGaussianBlur
       inkscape:collect="always"
       stdDeviation="1.7394041"
       id="feGaussianBlur5" /></filter><filter
     inkscape:collect="always"
     style="color-interpolation-filters:sRGB"
     id="filter6"
     x="-0.069325904"
     y="-0.069325908"
     width="1.1386518"
     height="1.1386518"><feGaussianBlur
       inkscape:collect="always"
       stdDeviation="0.50084982"
       id="feGaussianBlur6" /></filter><filter
     inkscape:collect="always"
     style="color-interpolation-filters:sRGB"
     id="filter7"
     x="-0.14228096"
     y="-0.12934633"
     width="1.2845619"
     height="1.2586927"><feGaussianBlur
       inkscape:collect="always"
       stdDeviation="0.60897606"
       id="feGaussianBlur7" /></filter><radialGradient
     id="SVGID_2_-3-3-0"
     cx="21.0371"
     cy="56.209099"
     r="40.250599"
     gradientTransform="matrix(1,0,0,-1,0,66)"
     gradientUnits="userSpaceOnUse">
	<stop
   offset="0"
   style="stop-color:#FFFFFF"
   id="stop5-5-6-9" />
	<stop
   offset="1"
   style="stop-color:#C4C4C4"
   id="stop6-6-7-3" />
</radialGradient><filter
     inkscape:collect="always"
     style="color-interpolation-filters:sRGB"
     id="filter8"
     x="-0.10263789"
     y="-0.14662555"
     width="1.2052758"
     height="1.2932511"><feGaussianBlur
       inkscape:collect="always"
       stdDeviation="0.88782382"
       id="feGaussianBlur8" /></filter><filter
     inkscape:collect="always"
     style="color-interpolation-filters:sRGB"
     id="filter9"
     x="-0.09108572"
     y="-0.11592728"
     width="1.1821714"
     height="1.2318546"><feGaussianBlur
       inkscape:collect="always"
       stdDeviation="2.0836667"
       id="feGaussianBlur9" /></filter></defs><sodipodi:namedview
   id="namedview8"
   pagecolor="#ffffff"
   bordercolor="#000000"
   borderopacity="0.25"
   inkscape:showpageshadow="2"
   inkscape:pageopacity="0.0"
   inkscape:pagecheckerboard="0"
   inkscape:deskcolor="#d1d1d1"
   inkscape:zoom="9.8111066"
   inkscape:cx="23.493782"
   inkscape:cy="33.125723"
   inkscape:window-width="1920"
   inkscape:window-height="1020"
   inkscape:window-x="0"
   inkscape:window-y="0"
   inkscape:window-maximized="1"
   inkscape:current-layer="Layer_1"
   showgrid="false" />
<style
   type="text/css"
   id="style1">
	.st0{opacity:0.2;enable-background:new    ;}
	.st1{fill:url(#SVGID_1_);}
	.st2{fill:url(#SVGID_2_);stroke:url(#SVGID_3_);stroke-miterlimit:10;}
	.st3{fill:url(#SVGID_4_);}
	.st4{fill:#FFFFFF;}
</style>

<radialGradient
   id="SVGID_1_"
   cx="22.9318"
   cy="16.1993"
   r="35.575"
   gradientUnits="userSpaceOnUse">
	<stop
   offset="0"
   style="stop-color:#6B6B6B"
   id="stop1" />
	<stop
   offset="1"
   style="stop-color:#292929"
   id="stop2" />
</radialGradient>

<radialGradient
   id="SVGID_2_"
   cx="22.0813"
   cy="13.643"
   r="29.7189"
   gradientUnits="userSpaceOnUse">
	<stop
   offset="0"
   style="stop-color:#6B6B6B"
   id="stop3" />
	<stop
   offset="1"
   style="stop-color:#292929"
   id="stop4" />
</radialGradient>
<radialGradient
   id="SVGID_3_"
   cx="32.554"
   cy="24.0811"
   r="16.2826"
   gradientUnits="userSpaceOnUse"
   gradientTransform="matrix(0.53118231,0,0,0.53118231,14.988371,28.741867)">
	<stop
   offset="0"
   style="stop-color:#6B6B6B"
   id="stop5" />
	<stop
   offset="1"
   style="stop-color:#292929"
   id="stop6" />
</radialGradient>

<g
   id="g9"><rect
     style="fill:url(#radialGradient5);stroke-width:0.962918"
     width="53.923393"
     height="42.368382"
     x="-58.961697"
     y="-53.184189"
     rx="9.5455742"
     ry="9.5455742"
     transform="matrix(0,-1,-1,0,0,0)"
     id="rect2" /><rect
     style="mix-blend-mode:normal;fill:none;stroke:#000000;stroke-width:0.2;stroke-dasharray:none;stroke-opacity:1;filter:url(#filter9)"
     width="56"
     height="44"
     x="-60"
     y="-54"
     rx="9.9131765"
     ry="9.9131765"
     transform="matrix(0,-0.96291776,-0.96291776,0,1.1866317,1.1866317)"
     id="rect2-6" /><path
     style="opacity:0.383514;stroke-width:0.854892"
     d="m 31.977608,9.7215873 c -6.610027,0 -11.968492,5.3584647 -11.968492,11.9684917 v 9.766382 a 2.2021103,2.2021103 45 0 0 2.20211,2.20211 h 9.766382 c 6.610027,0 11.968492,-5.358465 11.968492,-11.968492 0,-6.610027 -5.358465,-11.9684917 -11.968492,-11.9684917 z m 0,6.8391377 c 2.832864,0 5.129354,2.29649 5.129354,5.129354 0,2.832864 -2.29649,5.129354 -5.129354,5.129354 -2.832864,0 -5.129354,-2.29649 -5.129354,-5.129354 0,-2.832864 2.29649,-5.129354 5.129354,-5.129354 z"
     id="path2"
     inkscape:path-effect="#path-effect4"
     inkscape:original-d="m 31.977608,9.7215873 c -6.610027,0 -11.968492,5.3584647 -11.968492,11.9684917 v 11.968492 h 11.968492 c 6.610027,0 11.968492,-5.358465 11.968492,-11.968492 0,-6.610027 -5.358465,-11.9684917 -11.968492,-11.9684917 z m 0,6.8391377 a 5.1293537,5.1293537 0 0 1 5.129354,5.129354 5.1293537,5.1293537 0 0 1 -5.129354,5.129354 5.1293537,5.1293537 0 0 1 -5.129354,-5.129354 5.1293537,5.1293537 0 0 1 5.129354,-5.129354 z"
     transform="matrix(0.96291776,0,0,0.96291776,1.2081934,0.47740378)" /><path
     style="opacity:1;mix-blend-mode:normal;fill:none;fill-opacity:1;stroke:#000000;stroke-width:0.350921;stroke-dasharray:none;stroke-opacity:1;filter:url(#filter5)"
     d="m 31.845693,12.381647 c -7.732,0 -14,6.268 -14,14 v 10.744056 a 3.2559444,3.2559444 45 0 0 3.255944,3.255944 h 10.744056 c 7.732,0 14,-6.268 14,-14 0,-7.732 -6.268,-14 -14,-14 z m 0,8 c 3.313708,0 6,2.686292 6,6 0,3.313708 -2.686292,6 -6,6 -3.313708,0 -6,-2.686292 -6,-6 0,-3.313708 2.686292,-6 6,-6 z"
     id="path2-3"
     transform="matrix(0.82319097,0,0,0.82319097,5.7849132,-0.35396747)"
     inkscape:path-effect="#path-effect3"
     inkscape:original-d="m 31.845693,12.381647 c -7.732,0 -14,6.268 -14,14 v 14 h 14 c 7.732,0 14,-6.268 14,-14 0,-7.732 -6.268,-14 -14,-14 z m 0,8 a 6,6 0 0 1 6,6 6,6 0 0 1 -6,6 6,6 0 0 1 -6,-6 6,6 0 0 1 6,-6 z" /></g>
<radialGradient
   id="SVGID_4_"
   cx="38.7218"
   cy="35.9683"
   r="27.4728"
   gradientUnits="userSpaceOnUse"
   gradientTransform="matrix(0.66285729,0,0,0.66285729,12.349204,19.592725)">
	<stop
   offset="0"
   style="stop-color:#00aaff;stop-opacity:1;"
   id="stop7" />
	<stop
   offset="1"
   style="stop-color:#0083ff;stop-opacity:1;"
   id="stop8" />
</radialGradient>


<path
   class="st2"
   d="m 24.96306,36.561439 c -0.869524,0 -1.534455,0.716078 -1.534455,1.534453 v 14.321577 c 0,0.869525 0.664931,1.534455 1.534455,1.534455 0.869525,0 1.534454,-0.66493 1.534454,-1.534455 V 38.095892 c 0,-0.818375 -0.664929,-1.534453 -1.534454,-1.534453 z m 12.787122,8.695242 v 7.160788 c 0,0.869525 0.66493,1.534455 1.534454,1.534455 0.869525,0 1.534455,-0.66493 1.534455,-1.534455 v -7.160788 z m -7.160788,2.557424 v 4.603364 c 0,0.869525 0.66493,1.534455 1.534455,1.534455 0.869524,0 1.534454,-0.66493 1.534454,-1.534455 v -4.603364 z"
   id="path3"
   style="opacity:0.49;fill:#ffffff;stroke:none;stroke-width:0.511485;stroke-opacity:1" /><path
   class="st2"
   d="m 24.700179,36.743477 c -0.903009,0 -1.593547,0.743655 -1.593547,1.593546 v 14.873105 c 0,0.90301 0.690538,1.593547 1.593547,1.593547 0.903011,0 1.593547,-0.690537 1.593547,-1.593547 V 38.337023 c 0,-0.849891 -0.690536,-1.593546 -1.593547,-1.593546 z m 13.279558,9.030099 v 7.436552 c 0,0.90301 0.690537,1.593547 1.593547,1.593547 0.90301,0 1.593547,-0.690537 1.593547,-1.593547 v -7.436552 z m -7.436552,2.655911 v 4.780641 c 0,0.90301 0.690537,1.593547 1.593547,1.593547 0.90301,0 1.593547,-0.690537 1.593547,-1.593547 v -4.780641 z"
   id="path3-1"
   style="opacity:1;mix-blend-mode:normal;fill:none;stroke:#000000;stroke-width:0.1;stroke-miterlimit:10;stroke-dasharray:none;stroke-opacity:1;filter:url(#filter6)"
   transform="matrix(0.96291776,0,0,0.96291776,1.1866317,1.1866317)" /><path
   class="st0"
   d="m 32.123849,36.561439 c -0.869525,0 -1.534455,0.716078 -1.534455,1.534453 v 9.718213 h 3.068909 v -9.718213 c 0,-0.869523 -0.716079,-1.534453 -1.534454,-1.534453 z m 7.160787,0 c -0.869524,0 -1.534454,0.716078 -1.534454,1.534453 v 7.160789 h 3.068909 v -7.160789 c 0,-0.869523 -0.716078,-1.534453 -1.534455,-1.534453 z"
   id="path4"
   style="opacity:0.2;stroke-width:0.511485;enable-background:new" /><path
   class="st0"
   d="m 32.120398,36.749418 c -0.90301,0 -1.593547,0.743655 -1.593547,1.593546 v 10.092464 h 3.187094 V 38.342964 c 0,-0.903009 -0.743656,-1.593546 -1.593547,-1.593546 z m 7.436552,0 c -0.90301,0 -1.593547,0.743655 -1.593547,1.593546 v 7.436553 h 3.187094 v -7.436553 c 0,-0.903009 -0.743655,-1.593546 -1.593547,-1.593546 z"
   id="path4-2"
   style="opacity:1;mix-blend-mode:normal;fill:none;stroke:#000000;stroke-width:0.1;stroke-dasharray:none;stroke-opacity:1;filter:url(#filter7);enable-background:new"
   transform="matrix(0.96291776,0,0,0.96291776,1.1866317,1.1866317)" /><path
   class="st4"
   d="m 24.839211,36.223957 c -1.687899,0 -3.068908,1.381009 -3.068908,3.06891 0,1.687899 1.381009,3.068908 3.068908,3.068908 1.6879,0 3.06891,-1.381009 3.06891,-3.068908 0,-1.687901 -1.38101,-3.06891 -3.06891,-3.06891 z m 14.321578,5.626333 c -1.687901,0 -3.06891,1.381009 -3.06891,3.06891 0,1.6879 1.381009,3.068909 3.06891,3.068909 1.687899,0 3.068908,-1.381009 3.068908,-3.068909 0,-1.687901 -1.381009,-3.06891 -3.068908,-3.06891 z M 32,44.407715 c -1.6879,0 -3.068909,1.381009 -3.068909,3.068909 0,1.6879 1.381009,3.06891 3.068909,3.06891 1.6879,0 3.068909,-1.38101 3.068909,-3.06891 0,-1.6879 -1.381009,-3.068909 -3.068909,-3.068909 z"
   id="path6-2"
   style="fill:url(#radialGradient8-5);stroke-width:0.511485" /><path
   class="st4"
   d="m 24.615324,36.417529 c -1.752901,0 -3.187093,1.434192 -3.187093,3.187094 0,1.752901 1.434192,3.187093 3.187093,3.187093 1.752902,0 3.187095,-1.434192 3.187095,-3.187093 0,-1.752902 -1.434193,-3.187094 -3.187095,-3.187094 z m 14.873106,5.843005 c -1.752902,0 -3.187095,1.434192 -3.187095,3.187094 0,1.752902 1.434193,3.187094 3.187095,3.187094 1.752901,0 3.187093,-1.434192 3.187093,-3.187094 0,-1.752902 -1.434192,-3.187094 -3.187093,-3.187094 z m -7.436553,2.655912 c -1.752902,0 -3.187094,1.434192 -3.187094,3.187093 0,1.752902 1.434192,3.187095 3.187094,3.187095 1.752902,0 3.187094,-1.434193 3.187094,-3.187095 0,-1.752901 -1.434192,-3.187093 -3.187094,-3.187093 z"
   id="path6-2-6"
   style="mix-blend-mode:normal;fill:none;stroke:#000000;stroke-width:0.1;stroke-dasharray:none;stroke-opacity:1;filter:url(#filter8)"
   transform="matrix(0.96291776,0,0,0.96291776,1.1866317,1.1866317)" /></svg>
