<?xml version="1.0" encoding="UTF-8" standalone="no"?>
<svg
   width="64"
   height="64"
   version="1"
   id="svg5"
   sodipodi:docname="distributor-logo-deepin.svg"
   inkscape:version="1.3.2 (091e20ef0f, 2023-11-25, custom)"
   xmlns:inkscape="http://www.inkscape.org/namespaces/inkscape"
   xmlns:sodipodi="http://sodipodi.sourceforge.net/DTD/sodipodi-0.dtd"
   xmlns:xlink="http://www.w3.org/1999/xlink"
   xmlns="http://www.w3.org/2000/svg"
   xmlns:svg="http://www.w3.org/2000/svg">
  <defs
     id="defs5">
    <inkscape:path-effect
       effect="fillet_chamfer"
       id="path-effect7"
       is_visible="true"
       lpeversion="1"
       nodesatellites_param="F,0,0,1,0,0,0,1 @ F,0,0,1,0,0,0,1 @ F,0,0,1,0,0,0,1 @ F,0,0,1,0,1.5566686,0,1 @ F,0,0,1,0,0,0,1 @ F,0,0,1,0,0,0,1 @ F,0,0,1,0,5.0347822,0,1 @ F,0,0,1,0,0,0,1 @ F,0,0,1,0,0,0,1 @ F,0,0,1,0,0,0,1 @ F,0,0,1,0,0,0,1 @ F,0,0,1,0,0,0,1 @ F,0,0,1,0,0.44482059,0,1 @ F,0,0,1,0,0.44482059,0,1 @ F,0,0,1,0,0,0,1 @ F,0,0,1,0,0,0,1 @ F,0,0,1,0,0,0,1 @ F,0,0,1,0,5.2574191,0,1 @ F,0,0,1,0,0,0,1 @ F,0,0,1,0,0,0,1 @ F,0,0,1,0,0,0,1 @ F,0,0,1,0,0,0,1 @ F,0,0,1,0,0,0,1 @ F,0,0,1,0,1.2868172,0,1 @ F,0,0,1,0,1.2868172,0,1 @ F,0,0,1,0,0,0,1 @ F,0,0,1,0,0,0,1 @ F,0,0,1,0,0,0,1 @ F,0,0,1,0,0,0,1 @ F,0,0,1,0,0,0,1 @ F,0,0,1,0,0,0,1 @ F,0,0,1,0,0,0,1 @ F,0,0,1,0,4.4932052,0,1 @ F,0,0,1,0,0,0,1 @ F,0,0,1,0,0,0,1"
       radius="0"
       unit="px"
       method="auto"
       mode="F"
       chamfer_steps="1"
       flexible="false"
       use_knot_distance="true"
       apply_no_radius="true"
       apply_with_radius="true"
       only_selected="false"
       hide_knots="false" />
    <linearGradient
       id="linearGradient6"
       inkscape:collect="always">
      <stop
         style="stop-color:#00c9f6;stop-opacity:1;"
         offset="0"
         id="stop6" />
      <stop
         style="stop-color:#008cff;stop-opacity:1;"
         offset="1"
         id="stop7" />
    </linearGradient>
    <inkscape:path-effect
       effect="fillet_chamfer"
       id="path-effect6"
       is_visible="true"
       lpeversion="1"
       nodesatellites_param="F,0,0,1,0,4.9920763,0,1 @ F,0,1,1,0,4.9920763,0,1 @ F,0,1,1,0,4.9920763,0,1 @ F,0,1,1,0,4.9920763,0,1 @ F,0,1,1,0,4.9920763,0,1 @ F,0,1,1,0,4.9920763,0,1"
       radius="0"
       unit="px"
       method="auto"
       mode="F"
       chamfer_steps="1"
       flexible="false"
       use_knot_distance="true"
       apply_no_radius="true"
       apply_with_radius="true"
       only_selected="false"
       hide_knots="false" />
    <inkscape:path-effect
       effect="fillet_chamfer"
       id="path-effect33"
       is_visible="true"
       lpeversion="1"
       nodesatellites_param="F,0,0,1,0,5.4161913,0,1 @ F,0,0,1,0,5.0201459,0,1 @ F,0,0,1,0,4.5562612,0,1 @ F,0,0,1,0,4.8044969,0,1 @ F,0,0,1,0,4.8694015,0,1 @ F,0,0,1,0,4.5176611,0,1"
       radius="0"
       unit="px"
       method="auto"
       mode="F"
       chamfer_steps="1"
       flexible="false"
       use_knot_distance="true"
       apply_no_radius="true"
       apply_with_radius="true"
       only_selected="false"
       hide_knots="false" />
    <radialGradient
       inkscape:collect="always"
       xlink:href="#linearGradient6"
       id="radialGradient7"
       cx="-10.916827"
       cy="17.802061"
       fx="-10.916827"
       fy="17.802061"
       r="21.59357"
       gradientTransform="matrix(2.2289696,-0.59725061,0.65264865,2.4357179,1.7979578,-30.986443)"
       gradientUnits="userSpaceOnUse" />
    <inkscape:path-effect
       effect="fillet_chamfer"
       id="path-effect7-3"
       is_visible="true"
       lpeversion="1"
       nodesatellites_param="F,0,0,1,0,0,0,1 @ F,0,0,1,0,0,0,1 @ F,0,0,1,0,0,0,1 @ F,0,0,1,0,1.5566686,0,1 @ F,0,0,1,0,0,0,1 @ F,0,0,1,0,0,0,1 @ F,0,0,1,0,5.0347822,0,1 @ F,0,0,1,0,0,0,1 @ F,0,0,1,0,0,0,1 @ F,0,0,1,0,0,0,1 @ F,0,0,1,0,0,0,1 @ F,0,0,1,0,0,0,1 @ F,0,0,1,0,0.44482059,0,1 @ F,0,0,1,0,0.44482059,0,1 @ F,0,0,1,0,0,0,1 @ F,0,0,1,0,0,0,1 @ F,0,0,1,0,0,0,1 @ F,0,0,1,0,5.2574191,0,1 @ F,0,0,1,0,0,0,1 @ F,0,0,1,0,0,0,1 @ F,0,0,1,0,0,0,1 @ F,0,0,1,0,0,0,1 @ F,0,0,1,0,0,0,1 @ F,0,0,1,0,1.2868172,0,1 @ F,0,0,1,0,1.2868172,0,1 @ F,0,0,1,0,0,0,1 @ F,0,0,1,0,0,0,1 @ F,0,0,1,0,0,0,1 @ F,0,0,1,0,0,0,1 @ F,0,0,1,0,0,0,1 @ F,0,0,1,0,0,0,1 @ F,0,0,1,0,0,0,1 @ F,0,0,1,0,4.4932052,0,1 @ F,0,0,1,0,0,0,1 @ F,0,0,1,0,0,0,1"
       radius="0"
       unit="px"
       method="auto"
       mode="F"
       chamfer_steps="1"
       flexible="false"
       use_knot_distance="true"
       apply_no_radius="true"
       apply_with_radius="true"
       only_selected="false"
       hide_knots="false" />
    <filter
       inkscape:collect="always"
       style="color-interpolation-filters:sRGB"
       id="filter7"
       x="-0.090608749"
       y="-0.092987985"
       width="1.1811991"
       height="1.1855902">
      <feGaussianBlur
         inkscape:collect="always"
         stdDeviation="1.4272523"
         id="feGaussianBlur7" />
    </filter>
  </defs>
  <sodipodi:namedview
     id="namedview5"
     pagecolor="#505050"
     bordercolor="#eeeeee"
     borderopacity="1"
     inkscape:showpageshadow="0"
     inkscape:pageopacity="0"
     inkscape:pagecheckerboard="0"
     inkscape:deskcolor="#505050"
     inkscape:zoom="13.078125"
     inkscape:cx="24.69773"
     inkscape:cy="33.682198"
     inkscape:window-width="1920"
     inkscape:window-height="1020"
     inkscape:window-x="0"
     inkscape:window-y="0"
     inkscape:window-maximized="1"
     inkscape:current-layer="svg5" />
  <path
     id="path6"
     style="fill:url(#radialGradient7);stroke-width:0.4;stroke-linecap:round;stroke-linejoin:round"
     transform="matrix(1.1919168,0,0,1.1919168,18.553038,24.818631)"
     d="m 28.552101,20.988151 -12.94704,7.474977 a 8.6465301,8.6465301 0 0 1 -8.6465299,0 L -5.9885091,20.988151 a 8.6465292,8.6465292 60.000001 0 1 -4.3232649,-7.488114 l 10e-7,-14.949955 a 8.6465303,8.6465303 120 0 1 4.3232649,-7.4881145 L 6.9585321,-16.41301 a 8.6465293,8.6465293 7.7347488e-7 0 1 8.6465299,0 l 12.947039,7.4749776 a 8.6465301,8.6465301 60.000001 0 1 4.323265,7.4881146 V 13.500037 a 8.6465296,8.6465296 120 0 1 -4.323265,7.488114 z"
     inkscape:path-effect="#path-effect6"
     inkscape:original-d="m 32.875366,18.492113 -21.59357,12.467053 -21.59357,-12.467053 10e-7,-24.9341073 21.59357,-12.4670537 21.593569,12.4670539 z" />
  <path
     style="fill:#ffffff;fill-rule:evenodd"
     d="m 24.44179,52.662602 c -1.354492,-0.495242 -2.61973,-1.125228 -3.811484,-1.844466 5.921968,0.454992 13.649912,-0.909982 18.86138,-5.787138 0,0 9.233334,-7.377456 3.457393,-19.579735 -0.367716,-0.776837 -0.568148,-0.701379 -0.462349,0.151575 0.232948,1.878029 0.415918,5.160965 -0.566054,8.032386 0,0 -1.408746,6.072651 -7.670202,7.778869 -6.96414,1.897603 -14.661726,-1.432778 -19.905324,-4.52412 -2.394528,-1.411685 -4.5178328,-5.013741 -4.196959,-7.770229 0.184948,-1.588806 0.548319,-3.180045 1.119688,-4.752338 1.746483,-4.801908 5.32952,-8.548585 9.340501,-11.065035 -1.002751,7.015615 -0.210008,13.474739 0.92924,16.180185 1.529492,3.62768 3.887664,8.058859 9.072882,8.601351 5.185218,0.54424 8.044686,-4.508183 8.044686,-4.508183 2.24899,-3.417826 2.894219,-8.095378 3.015587,-9.543854 0.02046,-0.244181 -0.108806,-0.597612 -0.310593,-0.733373 -7.8e-5,-5.3e-5 -1.55e-4,-1.05e-4 -2.33e-4,-1.57e-4 -0.203598,-0.136962 -0.424759,-0.04124 -0.486635,0.196507 -1.798398,6.910036 -4.6331,9.233893 -4.6331,9.233893 -4.654976,4.493914 -8.352095,1.277412 -8.352095,1.277412 -3.543728,-3.806176 -1.062238,-9.992304 -1.062238,-9.992304 0.976208,-2.964292 3.464976,-6.845609 6.450623,-9.978538 1.999552,-2.09819 5.026445,-3.303158 6.25018,-2.857397 2.773734,1.01148 5.202722,2.535701 7.257198,4.408163 -3.351222,1.223227 -8.762178,3.809674 -8.762178,3.809674 -8.576704,3.611932 -9.155946,9.075326 -9.155946,9.075326 -0.887248,5.631388 3.580476,3.247934 3.580476,3.247934 3.407167,-1.659477 5.530133,-5.920936 6.401635,-8.018172 0.272578,-0.655946 -0.116809,-1.324876 -0.824441,-1.282878 -0.0085,5.05e-4 -0.017,0.001 -0.02545,0.0016 -0.706575,0.04529 -1.469821,0.779693 -1.800891,1.408225 -1.941837,3.686557 -5.038835,5.227804 -5.038835,5.227804 -1.473496,0.780484 -1.816488,-0.59849 -1.816488,-0.59849 -0.248498,-1.032478 1.065738,-1.209224 1.065738,-1.209224 2.040488,-0.792734 3.34598,-2.936442 3.641726,-3.813176 0.293994,-0.878482 0.841742,-0.946732 0.841742,-0.946732 2.79648,-0.892482 5.346216,-1.29179 5.346216,-1.29179 3.47198,-0.426992 8.78669,1.228476 8.78669,1.228476 1.810437,0.728417 4.144421,2.998571 4.59501,5.434744 0.697397,3.770572 0.464312,7.801624 -0.920038,11.611986 C 48.537372,50.924882 35.884958,56.832762 24.44179,52.662598 Z"
     id="path4"
     inkscape:path-effect="#path-effect7"
     inkscape:original-d="m 24.44179,52.662602 c -1.354492,-0.495242 -2.61973,-1.125228 -3.811484,-1.844466 5.921968,0.454992 13.649912,-0.909982 18.86138,-5.787138 0,0 9.934688,-7.93784 2.747484,-20.964588 0,0 1.158494,5.249898 -0.318494,9.568814 0,0 -1.408746,6.072651 -7.670202,7.778869 -9.222436,2.512948 -19.731121,-4.142441 -24.123597,-7.269629 -0.3307428,-3.214686 -0.03675,-6.536122 1.141002,-9.777058 1.746483,-4.801908 5.32952,-8.548585 9.340501,-11.065035 -1.002751,7.015615 -0.210008,13.474739 0.92924,16.180185 1.529492,3.62768 3.887664,8.058859 9.072882,8.601351 5.185218,0.54424 8.044686,-4.508183 8.044686,-4.508183 2.659984,-4.04242 3.076486,-9.847056 3.036232,-9.987052 -0.0403,-0.14174 -0.708746,-0.52499 -0.708746,-0.52499 -1.790236,7.244858 -4.74246,9.665058 -4.74246,9.665058 -4.654976,4.493914 -8.352095,1.277412 -8.352095,1.277412 -3.543728,-3.806176 -1.062238,-9.992304 -1.062238,-9.992304 1.387738,-4.213917 5.832103,-10.280986 10.415319,-13.416925 0.763,0.188996 1.531242,0.306246 2.285484,0.58099 2.773734,1.01148 5.202722,2.535701 7.257198,4.408163 -3.351222,1.223227 -8.762178,3.809674 -8.762178,3.809674 -8.576704,3.611932 -9.155946,9.075326 -9.155946,9.075326 -0.887248,5.631388 3.580476,3.247934 3.580476,3.247934 4.598972,-2.239952 6.858204,-9.220566 6.858204,-9.220566 -1.434986,-0.272998 -2.565476,0.16274 -2.565476,0.16274 -1.835748,4.530662 -5.580714,6.394376 -5.580714,6.394376 -1.473496,0.780484 -1.816488,-0.59849 -1.816488,-0.59849 -0.248498,-1.032478 1.065738,-1.209224 1.065738,-1.209224 2.040488,-0.792734 3.34598,-2.936442 3.641726,-3.813176 0.293994,-0.878482 0.841742,-0.946732 0.841742,-0.946732 2.79648,-0.892482 5.346216,-1.29179 5.346216,-1.29179 3.47198,-0.426992 8.78669,1.228476 8.78669,1.228476 1.191742,0.47949 2.334482,0.838232 3.349482,1.125228 1.947734,4.866656 2.255728,10.608606 0.32549,15.921502 C 48.537372,50.924882 35.884958,56.832762 24.44179,52.662598 Z" />
  <path
     style="mix-blend-mode:overlay;fill:none;fill-rule:evenodd;stroke:#000000;stroke-width:1.10000005;stroke-dasharray:none;stroke-opacity:1;filter:url(#filter7)"
     d="m 24.44179,52.662602 c -1.354492,-0.495242 -2.61973,-1.125228 -3.811484,-1.844466 5.921968,0.454992 13.649912,-0.909982 18.86138,-5.787138 0,0 9.233334,-7.377456 3.457393,-19.579735 -0.367716,-0.776837 -0.568148,-0.701379 -0.462349,0.151575 0.232948,1.878029 0.415918,5.160965 -0.566054,8.032386 0,0 -1.408746,6.072651 -7.670202,7.778869 -6.96414,1.897603 -14.661726,-1.432778 -19.905324,-4.52412 -2.394528,-1.411685 -4.5178328,-5.013741 -4.196959,-7.770229 0.184948,-1.588806 0.548319,-3.180045 1.119688,-4.752338 1.746483,-4.801908 5.32952,-8.548585 9.340501,-11.065035 -1.002751,7.015615 -0.210008,13.474739 0.92924,16.180185 1.529492,3.62768 3.887664,8.058859 9.072882,8.601351 5.185218,0.54424 8.044686,-4.508183 8.044686,-4.508183 2.24899,-3.417826 2.894219,-8.095378 3.015587,-9.543854 0.02046,-0.244181 -0.108806,-0.597612 -0.310593,-0.733373 -7.8e-5,-5.3e-5 -1.55e-4,-1.05e-4 -2.33e-4,-1.57e-4 -0.203598,-0.136962 -0.424759,-0.04124 -0.486635,0.196507 -1.798398,6.910036 -4.6331,9.233893 -4.6331,9.233893 -4.654976,4.493914 -8.352095,1.277412 -8.352095,1.277412 -3.543728,-3.806176 -1.062238,-9.992304 -1.062238,-9.992304 0.976208,-2.964292 3.464976,-6.845609 6.450623,-9.978538 1.999552,-2.09819 5.026445,-3.303158 6.25018,-2.857397 2.773734,1.01148 5.202722,2.535701 7.257198,4.408163 -3.351222,1.223227 -8.762178,3.809674 -8.762178,3.809674 -8.576704,3.611932 -9.155946,9.075326 -9.155946,9.075326 -0.887248,5.631388 3.580476,3.247934 3.580476,3.247934 3.407167,-1.659477 5.530133,-5.920936 6.401635,-8.018172 0.272578,-0.655946 -0.116809,-1.324876 -0.824441,-1.282878 -0.0085,5.05e-4 -0.017,0.001 -0.02545,0.0016 -0.706575,0.04529 -1.469821,0.779693 -1.800891,1.408225 -1.941837,3.686557 -5.038835,5.227804 -5.038835,5.227804 -1.473496,0.780484 -1.816488,-0.59849 -1.816488,-0.59849 -0.248498,-1.032478 1.065738,-1.209224 1.065738,-1.209224 2.040488,-0.792734 3.34598,-2.936442 3.641726,-3.813176 0.293994,-0.878482 0.841742,-0.946732 0.841742,-0.946732 2.79648,-0.892482 5.346216,-1.29179 5.346216,-1.29179 3.47198,-0.426992 8.78669,1.228476 8.78669,1.228476 1.810437,0.728417 4.144421,2.998571 4.59501,5.434744 0.697397,3.770572 0.464312,7.801624 -0.920038,11.611986 C 48.537372,50.924882 35.884958,56.832762 24.44179,52.662598 Z"
     id="path4-6"
     inkscape:path-effect="#path-effect7-3"
     inkscape:original-d="m 24.44179,52.662602 c -1.354492,-0.495242 -2.61973,-1.125228 -3.811484,-1.844466 5.921968,0.454992 13.649912,-0.909982 18.86138,-5.787138 0,0 9.934688,-7.93784 2.747484,-20.964588 0,0 1.158494,5.249898 -0.318494,9.568814 0,0 -1.408746,6.072651 -7.670202,7.778869 -9.222436,2.512948 -19.731121,-4.142441 -24.123597,-7.269629 -0.3307428,-3.214686 -0.03675,-6.536122 1.141002,-9.777058 1.746483,-4.801908 5.32952,-8.548585 9.340501,-11.065035 -1.002751,7.015615 -0.210008,13.474739 0.92924,16.180185 1.529492,3.62768 3.887664,8.058859 9.072882,8.601351 5.185218,0.54424 8.044686,-4.508183 8.044686,-4.508183 2.659984,-4.04242 3.076486,-9.847056 3.036232,-9.987052 -0.0403,-0.14174 -0.708746,-0.52499 -0.708746,-0.52499 -1.790236,7.244858 -4.74246,9.665058 -4.74246,9.665058 -4.654976,4.493914 -8.352095,1.277412 -8.352095,1.277412 -3.543728,-3.806176 -1.062238,-9.992304 -1.062238,-9.992304 1.387738,-4.213917 5.832103,-10.280986 10.415319,-13.416925 0.763,0.188996 1.531242,0.306246 2.285484,0.58099 2.773734,1.01148 5.202722,2.535701 7.257198,4.408163 -3.351222,1.223227 -8.762178,3.809674 -8.762178,3.809674 -8.576704,3.611932 -9.155946,9.075326 -9.155946,9.075326 -0.887248,5.631388 3.580476,3.247934 3.580476,3.247934 4.598972,-2.239952 6.858204,-9.220566 6.858204,-9.220566 -1.434986,-0.272998 -2.565476,0.16274 -2.565476,0.16274 -1.835748,4.530662 -5.580714,6.394376 -5.580714,6.394376 -1.473496,0.780484 -1.816488,-0.59849 -1.816488,-0.59849 -0.248498,-1.032478 1.065738,-1.209224 1.065738,-1.209224 2.040488,-0.792734 3.34598,-2.936442 3.641726,-3.813176 0.293994,-0.878482 0.841742,-0.946732 0.841742,-0.946732 2.79648,-0.892482 5.346216,-1.29179 5.346216,-1.29179 3.47198,-0.426992 8.78669,1.228476 8.78669,1.228476 1.191742,0.47949 2.334482,0.838232 3.349482,1.125228 1.947734,4.866656 2.255728,10.608606 0.32549,15.921502 C 48.537372,50.924882 35.884958,56.832762 24.44179,52.662598 Z"
     transform="translate(-0.11623402,-0.02301732)" />
</svg>
