<?xml version="1.0" encoding="UTF-8" standalone="no"?>
<svg
   width="64"
   height="64"
   version="1.1"
   id="svg6"
   sodipodi:docname="distributor-logo-ubuntu-budgie.svg"
   inkscape:version="1.3.2 (091e20ef0f, 2023-11-25, custom)"
   xmlns:inkscape="http://www.inkscape.org/namespaces/inkscape"
   xmlns:sodipodi="http://sodipodi.sourceforge.net/DTD/sodipodi-0.dtd"
   xmlns:xlink="http://www.w3.org/1999/xlink"
   xmlns="http://www.w3.org/2000/svg"
   xmlns:svg="http://www.w3.org/2000/svg">
  <defs
     id="defs6">
    <linearGradient
       id="linearGradient7"
       inkscape:collect="always">
      <stop
         style="stop-color:#49b0c3;stop-opacity:1;"
         offset="0"
         id="stop7" />
      <stop
         style="stop-color:#518dc8;stop-opacity:1;"
         offset="1"
         id="stop8" />
    </linearGradient>
    <filter
       inkscape:collect="always"
       style="color-interpolation-filters:sRGB"
       id="filter6"
       x="-0.083705024"
       y="-0.079844713"
       width="1.1674375"
       height="1.1596924">
      <feGaussianBlur
         inkscape:collect="always"
         stdDeviation="1.3388187"
         id="feGaussianBlur6" />
    </filter>
    <filter
       inkscape:collect="always"
       style="color-interpolation-filters:sRGB"
       id="filter7"
       x="-0.11620495"
       y="-0.11620495"
       width="1.2324099"
       height="1.2324099">
      <feGaussianBlur
         inkscape:collect="always"
         stdDeviation="2.5031155"
         id="feGaussianBlur7" />
    </filter>
    <radialGradient
       inkscape:collect="always"
       xlink:href="#linearGradient7"
       id="radialGradient8"
       cx="12.359202"
       cy="52.419685"
       fx="12.359202"
       fy="52.419685"
       r="28"
       gradientUnits="userSpaceOnUse"
       gradientTransform="matrix(1.5511989,-0.89558511,0.89558511,1.5511989,-52.377759,-19.260628)" />
  </defs>
  <sodipodi:namedview
     id="namedview6"
     pagecolor="#505050"
     bordercolor="#eeeeee"
     borderopacity="1"
     inkscape:showpageshadow="0"
     inkscape:pageopacity="0"
     inkscape:pagecheckerboard="0"
     inkscape:deskcolor="#505050"
     inkscape:zoom="9.2476309"
     inkscape:cx="33.413963"
     inkscape:cy="36.063291"
     inkscape:window-width="1920"
     inkscape:window-height="1020"
     inkscape:window-x="0"
     inkscape:window-y="0"
     inkscape:window-maximized="1"
     inkscape:current-layer="svg6" />
  <circle
     style="fill:url(#radialGradient8);stroke-width:0.929692"
     cx="32"
     cy="32"
     r="26.03137"
     id="circle2" />
  <path
     id="path5"
     style="fill:#ffffff;stroke-width:0.82753"
     d="m 38.538817,36.108356 c -0.205091,-0.0046 -0.411816,0.0028 -0.620644,0.01965 v -0.0023 c -2.795021,0.225068 -4.983732,2.391073 -5.517804,5.070553 -0.112738,0.565611 -0.206014,0.764536 -0.388176,1.148625 -0.234881,0.495259 -0.735183,1.224555 -1.464979,1.714205 -0.593741,0.398365 -1.106178,0.736922 -1.916759,0.681315 -0.210991,-0.01449 -0.584822,-0.043 -0.971535,-0.224922 -0.616358,-0.290112 -0.833252,-0.569879 -1.353134,-1.390996 0.138315,0.909874 0.04532,1.251769 0.627222,2.819159 1.158317,3.120007 4.820841,5.355316 8.899541,5.026879 3.023483,-0.243467 5.725333,-1.722789 7.147265,-3.7647 0.520047,-0.746791 0.908422,-1.33457 1.252253,-2.334376 0.312819,-0.909672 0.315736,-2.044394 0.234658,-3.050629 -0.258095,-3.202826 -2.851554,-5.641989 -5.927908,-5.712561 z m -17.84026,-13.24006 c -2.901329,0.06618 -5.929614,2.066662 -7.437584,5.345047 -1.277527,2.777394 -1.339689,5.900578 -0.293107,8.187591 0.382768,0.836433 0.693715,1.47639 1.379326,2.286925 0.623808,0.737453 1.591519,1.317083 2.491408,1.757976 3.054704,1.496598 6.671761,0.218804 8.084144,-2.849211 0,0 0,-0.0022 0,-0.0022 1.17973,-2.567117 0.406572,-5.591272 -1.620707,-7.42306 -0.428047,-0.386769 -0.552177,-0.569223 -0.790958,-0.924549 -0.307897,-0.458165 -0.685778,-1.266135 -0.745698,-2.155798 -0.04875,-0.723806 -0.08806,-1.346027 0.357761,-2.029118 0.116047,-0.177808 0.324763,-0.491043 0.670268,-0.737862 0.550838,-0.393291 0.898348,-0.441636 1.855624,-0.480055 -0.84565,-0.341624 -1.094249,-0.597635 -2.71986,-0.884545 -0.404485,-0.07139 -0.816141,-0.100574 -1.230617,-0.09112 z m 16.067307,-8.276372 c -0.43694,0.0058 -0.890354,0.04702 -1.431679,0.154271 -0.985038,0.195159 -2.011703,0.791129 -2.879315,1.395351 -2.945679,2.05147 -3.723905,6.060748 -1.744003,8.956957 1.65622,2.42273 4.752337,3.271061 7.45248,2.344005 0.569973,-0.195691 0.798238,-0.216415 1.240178,-0.253282 0.569854,-0.04755 1.487364,0.02286 2.309381,0.428277 0.668771,0.329838 1.24075,0.617498 1.611778,1.383839 0.09658,0.199478 0.266681,0.554081 0.303206,1.001611 0.05804,0.71339 -0.08409,1.060775 -0.556257,1.966388 0.750738,-0.605463 1.11038,-0.705336 2.225028,-2.060791 2.2188,-2.698121 2.334805,-7.206016 -0.08208,-10.741441 -1.791593,-2.620757 -4.534454,-4.29434 -7.119635,-4.510713 -0.47274,-0.03957 -0.892149,-0.07028 -1.329088,-0.06447 z" />
  <circle
     style="fill:none;stroke:#000000;stroke-opacity:1;filter:url(#filter7)"
     cx="32"
     cy="32"
     r="28"
     id="circle2-3"
     transform="matrix(0.92969178,0,0,0.92969178,2.2498631,2.2498631)" />
  <path
     id="path5-6"
     style="fill:none;stroke:#0014ff;stroke-width:0.6;stroke-linejoin:round;stroke-dasharray:none;stroke-opacity:1;filter:url(#filter6)"
     d="m 40.242351,36.845368 c -0.247836,-0.0056 -0.497645,0.0034 -0.749997,0.02375 v -0.0028 c -3.377547,0.271975 -6.022421,2.889411 -6.667801,6.127336 -0.136235,0.683494 -0.248951,0.923878 -0.469078,1.388018 -0.283835,0.598479 -0.888407,1.479772 -1.770305,2.071472 -0.717485,0.481391 -1.336723,0.890508 -2.316242,0.823312 -0.254964,-0.01751 -0.706707,-0.05196 -1.174018,-0.271799 -0.744817,-0.350576 -1.006914,-0.688651 -1.635149,-1.680902 0.167142,1.099506 0.05476,1.512657 0.757945,3.406716 1.399729,3.770267 5.825582,6.47145 10.754347,6.07456 3.653625,-0.294209 6.918583,-2.081844 8.636869,-4.549322 0.628433,-0.902435 1.097751,-1.612715 1.513242,-2.820898 0.378016,-1.099262 0.381541,-2.470478 0.283566,-3.686428 -0.311888,-3.870346 -3.445864,-6.817869 -7.163379,-6.90315 z M 18.683897,20.845869 c -3.506012,0.07997 -7.16544,2.497388 -8.987695,6.45904 -1.5437836,3.356248 -1.6189006,7.130352 -0.3541946,9.894015 0.4625416,1.010759 0.8382956,1.784094 1.6667996,2.763557 0.753818,0.891149 1.923216,1.591584 3.010656,2.124366 3.691353,1.808513 8.062263,0.264406 9.769008,-3.443032 0,0 0,-0.0027 0,-0.0027 1.425605,-3.102144 0.491309,-6.756581 -1.958488,-8.970144 -0.517258,-0.467377 -0.667259,-0.687858 -0.955806,-1.117239 -0.372067,-0.553654 -0.828705,-1.530018 -0.901113,-2.605101 -0.05891,-0.874658 -0.106414,-1.62656 0.432323,-2.452018 0.140234,-0.214866 0.39245,-0.593384 0.809963,-0.891644 0.665641,-0.475259 1.085579,-0.53368 2.242366,-0.580106 -1.021898,-0.412824 -1.322308,-0.722192 -3.286722,-1.068898 -0.488786,-0.08627 -0.986238,-0.121536 -1.487097,-0.11011 z M 38.099886,10.84457 c -0.528005,0.007 -1.075918,0.05683 -1.730064,0.186424 -1.190335,0.235833 -2.430974,0.956012 -3.47941,1.686164 -3.559605,2.479029 -4.500025,7.323904 -2.107481,10.823729 2.001403,2.927665 5.7428,3.952802 9.005695,2.832532 0.688765,-0.236475 0.964604,-0.261519 1.498652,-0.306069 0.68862,-0.05746 1.797354,0.02762 2.790693,0.517536 0.808152,0.398582 1.499341,0.746195 1.947697,1.672253 0.116704,0.241053 0.322263,0.669561 0.3664,1.210364 0.07013,0.862072 -0.101612,1.281857 -0.672191,2.376213 0.907204,-0.731651 1.341801,-0.852338 2.68876,-2.490292 2.681233,-3.260452 2.821415,-8.707864 -0.09918,-12.980127 -2.16499,-3.166965 -5.479506,-5.189349 -8.60348,-5.450818 -0.571267,-0.04781 -1.078088,-0.08493 -1.606092,-0.07791 z"
     transform="matrix(0.82752966,0,0,0.82752966,5.2595937,5.6052533)" />
</svg>
