<?xml version="1.0" encoding="UTF-8" standalone="no"?>
<svg
   width="64"
   height="64"
   version="1.1"
   id="svg18"
   sodipodi:docname="rpi-imager.svg"
   inkscape:version="1.3.2 (091e20ef0f, 2023-11-25, custom)"
   xmlns:inkscape="http://www.inkscape.org/namespaces/inkscape"
   xmlns:sodipodi="http://sodipodi.sourceforge.net/DTD/sodipodi-0.dtd"
   xmlns:xlink="http://www.w3.org/1999/xlink"
   xmlns="http://www.w3.org/2000/svg"
   xmlns:svg="http://www.w3.org/2000/svg">
  <defs
     id="defs18">
    <linearGradient
       id="linearGradient22"
       inkscape:collect="always">
      <stop
         style="stop-color:#3f3f3f;stop-opacity:1;"
         offset="0"
         id="stop23" />
      <stop
         style="stop-color:#232323;stop-opacity:1;"
         offset="1"
         id="stop24" />
    </linearGradient>
    <linearGradient
       id="linearGradient20"
       inkscape:collect="always">
      <stop
         style="stop-color:#cde926;stop-opacity:1;"
         offset="0"
         id="stop21" />
      <stop
         style="stop-color:#36e67b;stop-opacity:1;"
         offset="1"
         id="stop22" />
    </linearGradient>
    <linearGradient
       id="linearGradient19"
       inkscape:collect="always">
      <stop
         style="stop-color:#f04a79;stop-opacity:1;"
         offset="0"
         id="stop19" />
      <stop
         style="stop-color:#bc1142;stop-opacity:1;"
         offset="1"
         id="stop20" />
    </linearGradient>
    <radialGradient
       inkscape:collect="always"
       xlink:href="#linearGradient19"
       id="radialGradient20"
       cx="19.188534"
       cy="41.587952"
       fx="19.188534"
       fy="41.587952"
       r="17.000001"
       gradientTransform="matrix(2.1346123,-1.232419,1.2156914,2.1056392,-72.329662,-22.378525)"
       gradientUnits="userSpaceOnUse" />
    <radialGradient
       inkscape:collect="always"
       xlink:href="#linearGradient20"
       id="radialGradient22"
       cx="23.411619"
       cy="35.444973"
       fx="23.411619"
       fy="35.444973"
       r="15.878316"
       gradientTransform="matrix(2.3050853,-1.3308416,0.51728463,0.89596327,-43.464904,20.323924)"
       gradientUnits="userSpaceOnUse" />
    <radialGradient
       inkscape:collect="always"
       xlink:href="#linearGradient22"
       id="radialGradient24"
       cx="20.816557"
       cy="42.304531"
       fx="20.816557"
       fy="42.304531"
       r="23"
       gradientTransform="matrix(2.1308834,-1.2302661,1.5512051,2.686766,-88.233386,-44.091146)"
       gradientUnits="userSpaceOnUse" />
    <filter
       inkscape:collect="always"
       style="color-interpolation-filters:sRGB"
       id="filter1"
       x="-0.13062467"
       y="-0.10350483"
       width="1.2612493"
       height="1.2070113">
      <feGaussianBlur
         inkscape:collect="always"
         stdDeviation="2.1681964"
         id="feGaussianBlur1" />
    </filter>
    <filter
       inkscape:collect="always"
       style="color-interpolation-filters:sRGB"
       id="filter2"
       x="-0.07456728"
       y="-0.055113269"
       width="1.1491346"
       height="1.1102281">
      <feGaussianBlur
         inkscape:collect="always"
         stdDeviation="0.97277636"
         id="feGaussianBlur2" />
    </filter>
  </defs>
  <sodipodi:namedview
     id="namedview18"
     pagecolor="#505050"
     bordercolor="#eeeeee"
     borderopacity="1"
     inkscape:showpageshadow="0"
     inkscape:pageopacity="0"
     inkscape:pagecheckerboard="0"
     inkscape:deskcolor="#505050"
     inkscape:zoom="13.078125"
     inkscape:cx="30.738351"
     inkscape:cy="24.04779"
     inkscape:window-width="1920"
     inkscape:window-height="1020"
     inkscape:window-x="0"
     inkscape:window-y="0"
     inkscape:window-maximized="1"
     inkscape:current-layer="g25" />
  <path
     style="fill:url(#radialGradient24);stroke-width:0.916777"
     d="m 23.579231,5.4633956 c -6.164526,0 -11.335055,2.0181186 -11.335055,8.2154854 0,2.888939 1.094335,5.841653 2.878213,8.179074 0.701257,0.734766 0.658235,1.191453 0.443198,2.046718 -0.38208,1.397549 -0.947778,3.065256 -1.466161,4.291089 -3.591473,3.487094 -4.3782507,9.663572 -1.159531,13.669066 1.270517,2.059241 0.818494,5.061088 2.543237,7.102403 1.719928,2.440639 4.32904,4.575012 7.379768,4.826825 2.096829,2.936024 5.59395,4.757125 9.1371,4.842427 3.54315,-0.0853 7.040269,-1.906403 9.1371,-4.842427 3.050727,-0.251813 5.659839,-2.386186 7.379768,-4.826825 1.724743,-2.041315 1.272718,-5.043162 2.543238,-7.102403 3.218719,-4.005494 2.431941,-10.181972 -1.159533,-13.669066 -0.518382,-1.225833 -1.084082,-2.89354 -1.466161,-4.291089 -0.215038,-0.855265 -0.25806,-1.311952 0.443199,-2.046718 1.783878,-2.337421 2.878212,-5.290135 2.878212,-8.179074 0,-6.1973668 -5.170529,-8.2154854 -11.335056,-8.2154854 -2.325219,0 -5.785032,2.1221383 -8.420767,2.1221383 -2.635735,0 -6.09555,-2.1221383 -8.420769,-2.1221383 z"
     id="path2" />
  <path
     style="fill:none;stroke:#000000;stroke-width:0.6;stroke-dasharray:none;stroke-opacity:1;filter:url(#filter1)"
     d="m 23.579231,5.6134621 c -6.164526,0 -11.335055,2.0181185 -11.335055,8.2154849 0,2.88894 1.094335,5.841653 2.878213,8.179074 0.701257,0.734766 0.658235,1.191453 0.443198,2.046719 -0.38208,1.397548 -0.947778,3.065256 -1.466161,4.291088 -3.591474,3.487095 -4.3782504,9.663573 -1.159531,13.669067 1.270517,2.059241 0.818494,5.061087 2.543237,7.102402 1.719928,2.440639 4.32904,4.575013 7.379768,4.826826 2.096829,2.936023 5.59395,4.757125 9.1371,4.842427 3.54315,-0.0853 7.040269,-1.906404 9.1371,-4.842427 3.050727,-0.251813 5.659839,-2.386187 7.379769,-4.826826 1.724742,-2.041315 1.272718,-5.043161 2.543237,-7.102402 3.218719,-4.005494 2.431941,-10.181972 -1.159533,-13.669067 -0.518382,-1.225832 -1.084081,-2.89354 -1.466161,-4.291088 -0.215038,-0.855266 -0.25806,-1.311953 0.443199,-2.046719 1.783879,-2.337421 2.878212,-5.290134 2.878212,-8.179074 0,-6.1973664 -5.170529,-8.2154849 -11.335056,-8.2154849 -2.325219,0 -5.785032,2.1221383 -8.420767,2.1221383 -2.635735,0 -6.09555,-2.1221383 -8.420769,-2.1221383 z"
     id="path2-3" />
  <g
     id="g25"
     transform="matrix(0.9971518,0,0,0.9971518,0.09114245,0.15326614)">
    <path
       id="path5"
       style="fill:url(#radialGradient22);stroke-width:0.0675228"
       d="m 44.358416,12.288049 c -4.548138,2.386155 -7.192054,4.316367 -8.640566,5.960353 0.741807,3.025497 4.611642,3.163569 6.026614,3.078694 -0.289727,-0.137234 -0.531463,-0.301598 -0.617183,-0.554165 0.35506,-0.25678 1.614018,-0.02705 2.492935,-0.529536 -0.337629,-0.07118 -0.495558,-0.140522 -0.653487,-0.394072 0.830387,-0.26951 1.724845,-0.501763 2.250903,-0.948238 -0.283892,0.0036 -0.548952,0.06463 -0.919724,-0.197037 0.743771,-0.407884 1.537458,-0.731111 2.154091,-1.354625 -0.384561,-0.0096 -0.799178,-0.0039 -0.919724,-0.147777 0.680767,-0.42917 1.255131,-0.906464 1.730533,-1.428515 -0.538163,0.06611 -0.765431,0.0092 -0.895521,-0.0862 0.514589,-0.536349 1.16586,-0.989244 1.476399,-1.65018 -0.399581,0.140146 -0.765161,0.193791 -1.028638,-0.01231 0.174861,-0.401432 0.924077,-0.63821 1.355383,-1.576292 -0.42065,0.04151 -0.866794,0.09339 -0.95603,0 0.195608,-0.809788 0.530632,-1.264894 0.859216,-1.736384 -0.90029,-0.0136 -2.264291,0.0036 -2.202497,-0.07389 l 0.556675,-0.578795 c -0.879378,-0.2409386 -1.7792,0.0387 -2.432428,0.246296 -0.293303,-0.23552 0.0052,-0.5333382 0.363049,-0.8374053 C 43.61108,9.5694999 42.935773,9.7443331 42.325342,9.9851854 41.999205,9.6855258 42.53712,9.3858662 42.797306,9.0862066 41.642704,9.3091171 41.15355,9.6223167 40.667418,9.9359263 40.314709,9.5918919 40.647226,9.299509 40.885248,9.0000031 40.014702,9.3281156 39.56629,9.7516879 39.094206,10.169907 38.93415,9.9500968 38.687575,9.7889811 38.985292,9.2586135 38.367195,9.6211701 37.901649,10.048409 37.557298,10.527036 37.17487,10.279238 37.329457,9.9403609 37.327368,9.6280568 c -0.642361,0.5317392 -1.050015,1.0975992 -1.54901,1.6501802 -0.100517,-0.07448 -0.188532,-0.327068 -0.266235,-0.726572 -1.532524,1.512954 -3.697935,5.323736 -0.556675,6.834702 2.671999,-2.244191 5.864664,-3.874885 9.402968,-5.098318 z m -24.132603,0 c 4.548139,2.386155 7.192055,4.316367 8.640566,5.960353 -0.741807,3.025497 -4.611641,3.163569 -6.026613,3.078694 0.289727,-0.137234 0.531463,-0.301598 0.617183,-0.554165 -0.355061,-0.25678 -1.614018,-0.02705 -2.492936,-0.529536 0.33763,-0.07118 0.495559,-0.140522 0.653488,-0.394072 -0.830387,-0.26951 -1.724846,-0.501763 -2.250903,-0.948238 0.283892,0.0036 0.548952,0.06463 0.919724,-0.197037 -0.743772,-0.407884 -1.537458,-0.731111 -2.154091,-1.354625 0.384561,-0.0096 0.799178,-0.0039 0.919724,-0.147777 -0.680767,-0.42917 -1.255131,-0.906464 -1.730533,-1.428515 0.538163,0.06611 0.765431,0.0092 0.895521,-0.0862 -0.51459,-0.536349 -1.16586,-0.989244 -1.4764,-1.65018 0.399581,0.140146 0.765161,0.193791 1.028639,-0.01231 -0.174861,-0.401432 -0.924077,-0.63821 -1.355383,-1.576292 0.42065,0.04151 0.866794,0.09339 0.956029,0 -0.195607,-0.809788 -0.530631,-1.264894 -0.859215,-1.736384 0.90029,-0.0136 2.264291,0.0036 2.202497,-0.07389 L 18.156434,10.05908 c 0.879379,-0.2409386 1.7792,0.0387 2.432428,0.246296 0.293304,-0.23552 -0.0052,-0.5333382 -0.363049,-0.8374053 0.747337,0.1015352 1.422644,0.2763684 2.033075,0.5172207 0.326137,-0.2996596 -0.211778,-0.5993192 -0.471964,-0.8989788 1.154601,0.2229105 1.643756,0.5361101 2.129888,0.8497197 0.352708,-0.3440344 0.02019,-0.6364173 -0.21783,-0.9359232 0.870546,0.3281125 1.318957,0.7516848 1.791041,1.1699039 0.160057,-0.2198102 0.406632,-0.3809259 0.108915,-0.9112935 0.618097,0.3625566 1.083643,0.7897955 1.427993,1.2684225 0.382429,-0.247798 0.227841,-0.5866751 0.229931,-0.8989792 0.642361,0.5317392 1.050015,1.0975992 1.549009,1.6501802 0.100517,-0.07448 0.188533,-0.327068 0.266236,-0.726572 1.532523,1.512954 3.697935,5.323736 0.556675,6.834702 -2.671999,-2.244191 -5.864665,-3.874885 -9.402969,-5.098318 z" />
    <path
       id="path16"
       style="fill:url(#radialGradient20);stroke-width:0.0675228"
       d="m 40.147882,42.814136 c -1.685902,2.0095 -2.624708,5.674614 -1.3948,6.855268 1.175949,0.917072 4.332707,0.78888 6.664517,-2.503611 1.69321,-2.211329 1.125871,-5.904348 0.15869,-6.884715 -1.436718,-1.130852 -3.499202,0.316386 -5.428407,2.533058 z m -15.85592,0.605672 c 1.558207,1.91033 2.268502,5.26657 0.968131,6.255907 -1.230227,0.755246 -4.217784,0.444219 -6.341256,-2.659991 -1.432097,-2.604826 -1.247523,-5.255512 -0.242032,-6.034242 1.503676,-0.932104 3.826954,0.326884 5.615157,2.438326 z m 8.083891,6.403684 c 2.188632,-0.09721 5.125337,0.717383 5.131092,1.797958 0.03633,1.049323 -2.663359,3.420084 -5.276312,3.374249 -2.706037,0.118786 -5.359496,-2.255663 -5.324718,-3.078695 -0.0405,-1.206717 3.294986,-2.148884 5.469938,-2.093512 z M 32.222566,21.463125 c -2.510269,-0.06645 -4.919486,1.89592 -4.925249,3.034136 -0.007,1.383022 1.98473,2.79902 4.942363,2.834964 3.020352,0.02201 4.947608,-1.133465 4.957347,-2.560716 0.01103,-1.617043 -2.746969,-3.333366 -4.974461,-3.308384 z m -6.041605,1.08287 c -4.205908,-0.722707 -7.705389,1.820185 -7.564519,6.461235 0.138352,1.779236 9.113907,-6.196344 7.564519,-6.461235 z m 11.620864,0.13623 c 4.205908,-0.722707 7.705389,1.820184 7.564518,6.461235 -0.138352,1.779236 -9.113906,-6.196344 -7.564518,-6.461235 z m 8.280419,8.135255 c -2.437419,-0.664591 -0.822749,10.260582 1.160225,9.36414 2.181225,-1.785473 2.883804,-7.014155 -1.160225,-9.36414 z m -28.164487,0.13623 c 2.437419,-0.664591 0.822749,10.260581 -1.160225,9.36414 -2.181225,-1.785473 -2.883804,-7.014155 1.160225,-9.36414 z m 17.374948,-2.733133 a 5.8369514,4.911154 58.681428 1 0 6.356758,9.788938 5.8369514,4.911154 58.681428 1 0 -6.356758,-9.788938 z m -6.093317,0.272459 a 4.911154,5.8369514 31.318572 1 1 -6.356758,9.788938 4.911154,5.8369514 31.318572 1 1 6.356758,-9.788938 z m 8.600749,14.603724 a 5.4479207,5.1121385 0 1 1 -10.895841,0 5.4479207,5.1121385 0 1 1 10.895841,0 z" />
  </g>
  <g
     id="g24"
     transform="matrix(0.9971518,0,0,0.9971518,-12.871831,4.1418749)"
     style="opacity:0.658188;fill:none;stroke:#000000;stroke-width:0.40114251;stroke-dasharray:none;stroke-opacity:1;stroke-linejoin:round;filter:url(#filter2)">
    <path
       id="path5-8"
       style="fill:none;stroke:#000000;stroke-width:0.40114251;stroke-dasharray:none;stroke-opacity:1;stroke-linejoin:round"
       d="m 57.358416,8.2880459 c -4.548138,2.3861551 -7.192054,4.3163671 -8.640566,5.9603531 0.741807,3.025497 4.611642,3.163569 6.026614,3.078694 -0.289727,-0.137234 -0.531463,-0.301598 -0.617183,-0.554165 0.35506,-0.25678 1.614018,-0.02705 2.492935,-0.529536 -0.337629,-0.07118 -0.495558,-0.140522 -0.653487,-0.394072 0.830387,-0.26951 1.724845,-0.501763 2.250903,-0.948238 -0.283892,0.0036 -0.548952,0.06463 -0.919724,-0.197037 0.743771,-0.407884 1.537458,-0.731111 2.154091,-1.354625 -0.384561,-0.0096 -0.799178,-0.0039 -0.919724,-0.147777 0.680767,-0.42917 1.255131,-0.906464 1.730533,-1.428515 -0.538163,0.06611 -0.765431,0.0092 -0.895521,-0.0862 0.514589,-0.536349 1.16586,-0.989244 1.476399,-1.65018 -0.399581,0.140146 -0.765161,0.193791 -1.028638,-0.01231 0.174861,-0.4014321 0.924077,-0.6382101 1.355383,-1.5762921 -0.42065,0.04151 -0.866794,0.09339 -0.95603,0 0.195608,-0.809788 0.530632,-1.264894 0.859216,-1.736384 -0.90029,-0.0136 -2.264291,0.0036 -2.202497,-0.07389 l 0.556675,-0.578795 c -0.879378,-0.2409386 -1.7792,0.0387 -2.432428,0.246296 -0.293303,-0.23552 0.0052,-0.5333382 0.363049,-0.8374053 C 56.61108,5.5694968 55.935773,5.74433 55.325342,5.9851823 54.999205,5.6855227 55.53712,5.3858631 55.797306,5.0862035 54.642704,5.309114 54.15355,5.6223136 53.667418,5.9359232 53.314709,5.5918888 53.647226,5.2995059 53.885248,5 53.014702,5.3281125 52.56629,5.7516848 52.094206,6.1699039 51.93415,5.9500937 51.687575,5.788978 51.985292,5.2586104 51.367195,5.621167 50.901649,6.0484059 50.557298,6.5270329 50.17487,6.2792349 50.329457,5.9403578 50.327368,5.6280537 c -0.642361,0.5317392 -1.050015,1.0975992 -1.54901,1.6501802 -0.100517,-0.07448 -0.188532,-0.327068 -0.266235,-0.726572 -1.532524,1.512954 -3.697935,5.3237361 -0.556675,6.8347021 2.671999,-2.244191 5.864664,-3.8748851 9.402968,-5.0983181 z m -24.132603,0 c 4.548139,2.3861551 7.192055,4.3163671 8.640566,5.9603531 -0.741807,3.025497 -4.611641,3.163569 -6.026613,3.078694 0.289727,-0.137234 0.531463,-0.301598 0.617183,-0.554165 -0.355061,-0.25678 -1.614018,-0.02705 -2.492936,-0.529536 0.33763,-0.07118 0.495559,-0.140522 0.653488,-0.394072 -0.830387,-0.26951 -1.724846,-0.501763 -2.250903,-0.948238 0.283892,0.0036 0.548952,0.06463 0.919724,-0.197037 -0.743772,-0.407884 -1.537458,-0.731111 -2.154091,-1.354625 0.384561,-0.0096 0.799178,-0.0039 0.919724,-0.147777 -0.680767,-0.42917 -1.255131,-0.906464 -1.730533,-1.428515 0.538163,0.06611 0.765431,0.0092 0.895521,-0.0862 -0.51459,-0.536349 -1.16586,-0.989244 -1.4764,-1.65018 0.399581,0.140146 0.765161,0.193791 1.028639,-0.01231 -0.174861,-0.4014321 -0.924077,-0.6382101 -1.355383,-1.5762921 0.42065,0.04151 0.866794,0.09339 0.956029,0 -0.195607,-0.809788 -0.530631,-1.264894 -0.859215,-1.736384 0.90029,-0.0136 2.264291,0.0036 2.202497,-0.07389 l -0.556676,-0.578795 c 0.879379,-0.2409386 1.7792,0.0387 2.432428,0.246296 0.293304,-0.23552 -0.0052,-0.5333382 -0.363049,-0.8374053 0.747337,0.1015352 1.422644,0.2763684 2.033075,0.5172207 0.326137,-0.2996596 -0.211778,-0.5993192 -0.471964,-0.8989788 1.154601,0.2229105 1.643756,0.5361101 2.129888,0.8497197 0.352708,-0.3440344 0.02019,-0.6364173 -0.21783,-0.9359232 0.870546,0.3281125 1.318957,0.7516848 1.791041,1.1699039 0.160057,-0.2198102 0.406632,-0.3809259 0.108915,-0.9112935 0.618097,0.3625566 1.083643,0.7897955 1.427993,1.2684225 0.382429,-0.247798 0.227841,-0.5866751 0.229931,-0.8989792 0.642361,0.5317392 1.050015,1.0975992 1.549009,1.6501802 0.100517,-0.07448 0.188533,-0.327068 0.266236,-0.726572 1.532523,1.512954 3.697935,5.3237361 0.556675,6.8347021 -2.671999,-2.244191 -5.864665,-3.8748851 -9.402969,-5.0983181 z" />
    <path
       id="path16-7"
       style="fill:none;stroke:#000000;stroke-width:0.40114251;stroke-dasharray:none;stroke-opacity:1;stroke-linejoin:round"
       d="m 53.147882,38.814133 c -1.685902,2.0095 -2.624708,5.674614 -1.3948,6.855268 1.175949,0.917072 4.332707,0.78888 6.664517,-2.503611 1.69321,-2.211329 1.125871,-5.904348 0.15869,-6.884715 -1.436718,-1.130852 -3.499202,0.316386 -5.428407,2.533058 z m -15.85592,0.605672 c 1.558207,1.91033 2.268502,5.26657 0.968131,6.255907 -1.230227,0.755246 -4.217784,0.444219 -6.341256,-2.659991 -1.432097,-2.604826 -1.247523,-5.255512 -0.242032,-6.034242 1.503676,-0.932104 3.826954,0.326884 5.615157,2.438326 z m 8.083891,6.403684 c 2.188632,-0.09721 5.125337,0.717383 5.131092,1.797958 0.03633,1.049323 -2.663359,3.420084 -5.276312,3.374249 -2.706037,0.118786 -5.359496,-2.255663 -5.324718,-3.078695 -0.0405,-1.206717 3.294986,-2.148884 5.469938,-2.093512 z M 45.222566,17.463122 c -2.510269,-0.06645 -4.919486,1.89592 -4.925249,3.034136 -0.007,1.383022 1.98473,2.79902 4.942363,2.834964 3.020352,0.02201 4.947608,-1.133465 4.957347,-2.560716 0.01103,-1.617043 -2.746969,-3.333366 -4.974461,-3.308384 z m -6.041605,1.08287 c -4.205908,-0.722707 -7.705389,1.820185 -7.564519,6.461235 0.138352,1.779236 9.113907,-6.196344 7.564519,-6.461235 z m 11.620864,0.13623 c 4.205908,-0.722707 7.705389,1.820184 7.564518,6.461235 -0.138352,1.779236 -9.113906,-6.196344 -7.564518,-6.461235 z m 8.280419,8.135255 c -2.437419,-0.664591 -0.822749,10.260582 1.160225,9.36414 2.181225,-1.785473 2.883804,-7.014155 -1.160225,-9.36414 z m -28.164487,0.13623 c 2.437419,-0.664591 0.822749,10.260581 -1.160225,9.36414 -2.181225,-1.785473 -2.883804,-7.014155 1.160225,-9.36414 z m 17.374948,-2.733133 a 5.8369514,4.911154 58.681428 1 0 6.356758,9.788938 5.8369514,4.911154 58.681428 1 0 -6.356758,-9.788938 z m -6.093317,0.272459 a 4.911154,5.8369514 31.318572 1 1 -6.356758,9.788938 4.911154,5.8369514 31.318572 1 1 6.356758,-9.788938 z m 8.600749,14.603724 a 5.4479207,5.1121385 0 1 1 -10.895841,0 5.4479207,5.1121385 0 1 1 10.895841,0 z" />
  </g>
</svg>
