<?xml version="1.0" encoding="UTF-8" standalone="no"?>
<svg
   width="64"
   height="64"
   version="1.1"
   id="svg5"
   sodipodi:docname="com.dosbox.DOSBox.svg"
   inkscape:version="1.3.2 (091e20ef0f, 2023-11-25, custom)"
   xmlns:inkscape="http://www.inkscape.org/namespaces/inkscape"
   xmlns:sodipodi="http://sodipodi.sourceforge.net/DTD/sodipodi-0.dtd"
   xmlns:xlink="http://www.w3.org/1999/xlink"
   xmlns="http://www.w3.org/2000/svg"
   xmlns:svg="http://www.w3.org/2000/svg">
  <defs
     id="defs5">
    <inkscape:path-effect
       effect="fillet_chamfer"
       id="path-effect8"
       is_visible="true"
       lpeversion="1"
       nodesatellites_param="F,0,0,1,0,0,0,1 @ F,0,0,1,0,0,0,1 @ F,0,0,1,0,0,0,1 @ F,0,0,1,0,0,0,1 @ F,0,0,1,0,0,0,1 @ F,0,0,1,0,0,0,1 @ F,0,0,1,0,0,0,1 @ F,0,0,1,0,0,0,1 @ F,0,0,1,0,0,0,1 @ F,0,0,1,0,0,0,1 @ F,0,0,1,0,0,0,1 @ F,0,0,1,0,0,0,1 | F,0,0,1,0,0,0,1 @ F,0,0,1,0,0,0,1 @ F,0,0,1,0,0,0,1 @ F,0,0,1,0,0,0,1 @ F,0,0,1,0,0,0,1 @ F,0,0,1,0,0,0,1 @ F,0,0,1,0,0,0,1 @ F,0,0,1,0,0,0,1 @ F,0,0,1,0,0,0,1 @ F,0,0,1,0,0,0,1 @ F,0,0,1,0,0,0,1 @ F,0,0,1,0,0,0,1 | F,0,0,1,0,0,0,1 @ F,0,0,1,0,0,0,1 @ F,0,0,1,0,0,0,1 @ F,0,0,1,0,0,0,1 @ F,0,0,1,0,0,0,1 @ F,0,0,1,0,0,0,1 @ F,0,0,1,0,0,0,1 @ F,0,0,1,0,0,0,1 @ F,0,0,1,0,0,0,1 @ F,0,0,1,0,0,0,1 @ F,0,0,1,0,0,0,1 @ F,0,0,1,0,0,0,1 @ F,0,0,1,0,0,0,1 @ F,0,0,1,0,0,0,1 @ F,0,0,1,0,0,0,1 @ F,0,0,1,0,0,0,1 @ F,0,0,1,0,0,0,1 @ F,0,0,1,0,0,0,1 @ F,0,0,1,0,0,0,1 @ F,0,0,1,0,0,0,1 @ F,0,0,1,0,0,0,1 @ F,0,0,1,0,0,0,1 @ F,0,0,1,0,0,0,1 @ F,0,0,1,0,0,0,1 @ F,0,0,1,0,0,0,1 @ F,0,0,1,0,0,0,1 @ F,0,0,1,0,0,0,1 @ F,0,0,1,0,0,0,1 @ F,0,0,1,0,0,0,1 @ F,0,0,1,0,0,0,1 @ F,0,0,1,0,0,0,1 @ F,0,0,1,0,0,0,1 | F,0,0,1,0,0,0,1 @ F,0,0,1,0,0,0,1 @ F,0,0,1,0,0,0,1 @ F,0,0,1,0,0,0,1 | F,0,0,1,0,0,0,1 @ F,0,0,1,0,0,0,1 @ F,0,0,1,0,0,0,1 @ F,0,0,1,0,0,0,1 | F,0,0,1,0,0,0,1 @ F,0,0,1,0,0,0,1 @ F,0,0,1,0,0,0,1 @ F,0,0,1,0,0,0,1 @ F,0,0,1,0,0,0,1 @ F,0,0,1,0,0,0,1 @ F,0,0,1,0,0,0,1 @ F,0,0,1,0,0,0,1 @ F,0,0,1,0,0,0,1 @ F,0,0,1,0,0,0,1 @ F,0,0,1,0,0,0,1 @ F,0,0,1,0,0,0,1 @ F,0,0,1,0,0,0,1 @ F,0,0,1,0,0,0,1 @ F,0,0,1,0,0,0,1 @ F,0,0,1,0,0,0,1 | F,0,0,1,0,0,0,1 @ F,0,0,1,0,0,0,1 @ F,0,0,1,0,0,0,1 @ F,0,0,1,0,0,0,1 @ F,0,0,1,0,0,0,1 @ F,0,0,1,0,0,0,1 @ F,0,0,1,0,0,0,1 @ F,0,0,1,0,0,0,1 @ F,0,0,1,0,0,0,1 @ F,0,0,1,0,0,0,1 @ F,0,0,1,0,0,0,1 @ F,0,0,1,0,0,0,1 | F,0,0,1,0,0,0,1 @ F,0,0,1,0,0,0,1 @ F,0,0,1,0,0,0,1 @ F,0,0,1,0,0,0,1 @ F,0,0,1,0,0,0,1 @ F,0,0,1,0,0,0,1 @ F,0,0,1,0,0,0,1 @ F,0,0,1,0,0,0,1 @ F,0,0,1,0,0,0,1 @ F,0,0,1,0,0,0,1 @ F,0,0,1,0,0,0,1 @ F,0,0,1,0,0,0,1 @ F,0,0,1,0,0,0,1 @ F,0,0,1,0,0,0,1 @ F,0,0,1,0,0,0,1 @ F,0,0,1,0,0,0,1 @ F,0,0,1,0,0,0,1 @ F,0,0,1,0,0,0,1 @ F,0,0,1,0,0,0,1 @ F,0,0,1,0,0,0,1 @ F,0,0,1,0,0,0,1 @ F,0,0,1,0,0,0,1 @ F,0,0,1,0,0,0,1 @ F,0,0,1,0,0,0,1 @ F,0,0,1,0,0,0,1 @ F,0,0,1,0,0,0,1 @ F,0,0,1,0,0,0,1 @ F,0,0,1,0,0,0,1 @ F,0,0,1,0,0,0,1 @ F,0,0,1,0,0,0,1 @ F,0,0,1,0,0,0,1 @ F,0,0,1,0,0,0,1 @ F,0,0,1,0,0,0,1 @ F,0,0,1,0,0,0,1 @ F,0,0,1,0,0,0,1 @ F,0,0,1,0,0,0,1 | F,0,0,1,0,0,0,1 @ F,0,0,1,0,0,0,1 @ F,0,0,1,0,0,0,1 @ F,0,0,1,0,0,0,1 | F,0,0,1,0,0,0,1 @ F,0,0,1,0,0,0,1 @ F,0,0,1,0,0,0,1 @ F,0,0,1,0,0,0,1 | F,0,0,1,0,0,0,1 @ F,0,0,1,0,0,0,1 @ F,0,0,1,0,0,0,1 @ F,0,0,1,0,0,0,1"
       radius="0"
       unit="px"
       method="auto"
       mode="F"
       chamfer_steps="1"
       flexible="false"
       use_knot_distance="true"
       apply_no_radius="true"
       apply_with_radius="true"
       only_selected="false"
       hide_knots="false" />
    <linearGradient
       id="linearGradient6"
       inkscape:collect="always">
      <stop
         style="stop-color:#4d4d4d;stop-opacity:1;"
         offset="0"
         id="stop7" />
      <stop
         style="stop-color:#272727;stop-opacity:1;"
         offset="1"
         id="stop8" />
    </linearGradient>
    <linearGradient
       id="linearGradient5"
       inkscape:collect="always">
      <stop
         style="stop-color:#b76728;stop-opacity:1;"
         offset="0"
         id="stop5" />
      <stop
         style="stop-color:#cca17f;stop-opacity:1;"
         offset="1"
         id="stop6" />
    </linearGradient>
    <radialGradient
       inkscape:collect="always"
       xlink:href="#linearGradient5"
       id="radialGradient6"
       cx="10.808167"
       cy="54.625702"
       fx="10.808167"
       fy="54.625702"
       r="28"
       gradientUnits="userSpaceOnUse"
       gradientTransform="matrix(2.6452183,-2.6452183,2.6452183,2.6452183,-162.2787,-61.281242)" />
    <radialGradient
       inkscape:collect="always"
       xlink:href="#linearGradient6"
       id="radialGradient8"
       cx="6.6387415"
       cy="39.987793"
       fx="6.6387415"
       fy="39.987793"
       r="20.711956"
       gradientUnits="userSpaceOnUse"
       gradientTransform="matrix(-2.8145428,-5.2980709e-8,0,-2.5461534,69.112987,113.02958)" />
    <filter
       inkscape:collect="always"
       style="color-interpolation-filters:sRGB"
       id="filter8"
       x="-0.033300299"
       y="-0.033300299"
       width="1.0666006"
       height="1.0666006">
      <feGaussianBlur
         inkscape:collect="always"
         stdDeviation="0.77700697"
         id="feGaussianBlur8" />
    </filter>
    <filter
       inkscape:collect="always"
       style="color-interpolation-filters:sRGB"
       id="filter9"
       x="-0.04897473"
       y="-0.054416368"
       width="1.0979495"
       height="1.1088327">
      <feGaussianBlur
         inkscape:collect="always"
         stdDeviation="0.70441837"
         id="feGaussianBlur9" />
    </filter>
  </defs>
  <sodipodi:namedview
     id="namedview5"
     pagecolor="#ffffff"
     bordercolor="#000000"
     borderopacity="0.25"
     inkscape:showpageshadow="2"
     inkscape:pageopacity="0.0"
     inkscape:pagecheckerboard="0"
     inkscape:deskcolor="#d1d1d1"
     inkscape:zoom="9.921592"
     inkscape:cx="21.115563"
     inkscape:cy="29.430761"
     inkscape:window-width="1920"
     inkscape:window-height="1027"
     inkscape:window-x="0"
     inkscape:window-y="0"
     inkscape:window-maximized="1"
     inkscape:current-layer="svg5" />
  <rect
     style="opacity:0.624257;filter:url(#filter8)"
     width="56"
     height="56"
     x="4"
     y="4.1000009"
     rx="8.6505184"
     ry="8.6505184"
     id="rect1" />
  <rect
     style="fill:url(#radialGradient6)"
     width="56"
     height="56"
     x="4"
     y="4"
     rx="9.5628281"
     ry="9.5628281"
     id="rect2" />
  <rect
     style="fill:url(#radialGradient8);stroke-width:0.999999"
     width="41.423912"
     height="41.423912"
     x="11.288045"
     y="11.288045"
     rx="3.6626358"
     ry="3.6626358"
     id="rect3" />
  <path
     style="opacity:0.67590209;stroke-width:0.999999;filter:url(#filter9)"
     d="m 14.740037,17.329032 v 1.725996 h 1.725996 v 10.355978 h -1.725996 v 1.725996 h 8.629982 v -1.725996 h 1.725996 V 19.055028 h -1.725996 v -1.725996 z m 13.80797,0 v 1.725996 h -1.725996 v 10.355978 h 1.725996 v 1.725996 h 6.903986 v -1.725996 h 1.725996 V 19.055028 h -1.725996 v -1.725996 z m 12.081974,0 v 1.725996 h -1.725996 v 3.451992 h 1.725996 v 1.725997 h 3.451993 v 1.725996 h 1.725996 v 3.451993 h -3.451992 v -3.451993 h -3.451993 v 3.451993 h 1.725996 v 1.725996 h 6.903985 v -1.725996 h 1.725997 V 25.959013 H 47.533966 V 24.233017 H 45.80797 V 22.50702 h -3.451992 v -3.451992 h 3.451992 v 3.451992 h 3.451993 v -3.451992 h -1.725997 v -1.725996 z m -20.711955,1.725996 h 1.725996 v 10.355978 h -1.725996 z m 10.355978,0 h 3.451992 V 29.411006 H 30.274004 Z M 14.740037,34.588994 v 1.725997 h 1.725996 v 10.355977 h -1.725996 v 1.725997 h 8.629982 v -1.725997 h 1.725996 V 41.49298 h -1.725996 v -1.725997 h 1.725996 v -3.451992 h -1.725996 v -1.725997 z m 13.80797,0 v 1.725997 h -1.725996 v 10.355977 h 1.725996 v 1.725997 h 6.903986 v -1.725997 h 1.725996 V 36.314991 h -1.725996 v -1.725997 z m 8.629982,0 v 1.725997 h 1.725996 v 3.451992 h 1.725996 v 3.451993 h -1.725996 v 3.451992 h -1.725996 v 1.725997 h 3.451992 v -1.725997 h 1.725997 v -1.725996 h 1.725996 v 1.725996 h 1.725996 v 1.725997 h 3.451993 V 46.670968 H 47.533966 V 43.218976 H 45.80797 v -3.451993 h 1.725996 v -3.451992 h 1.725997 V 34.588994 H 45.80797 v 1.725997 h -1.725996 v 1.725996 h -1.725996 v -1.725996 h -1.725997 v -1.725997 z m -17.259963,1.725997 h 1.725996 v 3.451992 h -1.725996 z m 10.355978,0 h 3.451992 V 46.670968 H 30.274004 Z M 19.918026,41.49298 h 1.725996 v 5.177988 h -1.725996 z"
     id="path3" />
  <path
     style="fill:#ffffff;stroke-width:0.999999;fill-opacity:1"
     d="m 14.740037,16.466033 v 1.725997 h 1.725996 v 10.355977 h -1.725996 v 1.725997 h 8.629982 v -1.725997 h 1.725996 V 18.19203 h -1.725996 v -1.725997 z m 13.80797,0 v 1.725997 h -1.725996 v 10.355977 h 1.725996 v 1.725997 h 6.903986 v -1.725997 h 1.725996 V 18.19203 h -1.725996 v -1.725997 z m 12.081974,0 v 1.725997 h -1.725996 v 3.451992 h 1.725996 v 1.725997 h 3.451993 v 1.725996 h 1.725996 v 3.451992 h -3.451992 v -3.451992 h -3.451993 v 3.451992 h 1.725996 v 1.725997 h 6.903985 v -1.725997 h 1.725997 V 25.096015 H 47.533966 V 23.370019 H 45.80797 V 21.644022 H 42.355978 V 18.19203 h 3.451992 v 3.451992 h 3.451993 V 18.19203 H 47.533966 V 16.466033 Z M 19.918026,18.19203 h 1.725996 v 10.355977 h -1.725996 z m 10.355978,0 h 3.451992 V 28.548007 H 30.274004 Z M 14.740037,33.725996 v 1.725997 h 1.725996 V 45.80797 h -1.725996 v 1.725996 h 8.629982 V 45.80797 h 1.725996 v -5.177989 h -1.725996 v -1.725996 h 1.725996 v -3.451992 h -1.725996 v -1.725997 z m 13.80797,0 v 1.725997 H 26.822011 V 45.80797 h 1.725996 v 1.725996 h 6.903986 V 45.80797 h 1.725996 V 35.451993 h -1.725996 v -1.725997 z m 8.629982,0 v 1.725997 h 1.725996 v 3.451992 h 1.725996 v 3.451993 h -1.725996 v 3.451992 h -1.725996 v 1.725996 h 3.451992 V 45.80797 h 1.725997 v -1.725996 h 1.725996 v 1.725996 h 1.725996 v 1.725996 h 3.451993 V 45.80797 H 47.533966 V 42.355978 H 45.80797 v -3.451993 h 1.725996 v -3.451992 h 1.725997 V 33.725996 H 45.80797 v 1.725997 h -1.725996 v 1.725996 h -1.725996 v -1.725996 h -1.725997 v -1.725997 z m -17.259963,1.725997 h 1.725996 v 3.451992 h -1.725996 z m 10.355978,0 h 3.451992 V 45.80797 h -3.451992 z m -10.355978,5.177988 h 1.725996 v 5.177989 h -1.725996 z"
     id="path4"
     inkscape:path-effect="#path-effect8"
     inkscape:original-d="m 14.740037,16.466033 v 1.725997 h 1.725996 v 10.355977 h -1.725996 v 1.725997 h 8.629982 v -1.725997 h 1.725996 V 18.19203 h -1.725996 v -1.725997 z m 13.80797,0 v 1.725997 h -1.725996 v 10.355977 h 1.725996 v 1.725997 h 6.903986 v -1.725997 h 1.725996 V 18.19203 h -1.725996 v -1.725997 z m 12.081974,0 v 1.725997 h -1.725996 v 3.451992 h 1.725996 v 1.725997 h 3.451993 v 1.725996 h 1.725996 v 3.451992 h -3.451992 v -3.451992 h -3.451993 v 3.451992 h 1.725996 v 1.725997 h 6.903985 v -1.725997 h 1.725997 V 25.096015 H 47.533966 V 23.370019 H 45.80797 V 21.644022 H 42.355978 V 18.19203 h 3.451992 v 3.451992 h 3.451993 V 18.19203 H 47.533966 V 16.466033 Z M 19.918026,18.19203 h 1.725996 v 10.355977 h -1.725996 z m 10.355978,0 h 3.451992 V 28.548007 H 30.274004 Z M 14.740037,33.725996 v 1.725997 h 1.725996 V 45.80797 h -1.725996 v 1.725996 h 8.629982 V 45.80797 h 1.725996 v -5.177989 h -1.725996 v -1.725996 h 1.725996 v -3.451992 h -1.725996 v -1.725997 z m 13.80797,0 v 1.725997 H 26.822011 V 45.80797 h 1.725996 v 1.725996 h 6.903986 V 45.80797 h 1.725996 V 35.451993 h -1.725996 v -1.725997 z m 8.629982,0 v 1.725997 h 1.725996 v 3.451992 h 1.725996 v 3.451993 h -1.725996 v 3.451992 h -1.725996 v 1.725996 h 3.451992 V 45.80797 h 1.725997 v -1.725996 h 1.725996 v 1.725996 h 1.725996 v 1.725996 h 3.451993 V 45.80797 H 47.533966 V 42.355978 H 45.80797 v -3.451993 h 1.725996 v -3.451992 h 1.725997 V 33.725996 H 45.80797 v 1.725997 h -1.725996 v 1.725996 h -1.725996 v -1.725996 h -1.725997 v -1.725997 z m -17.259963,1.725997 h 1.725996 v 3.451992 h -1.725996 z m 10.355978,0 h 3.451992 V 45.80797 h -3.451992 z m -10.355978,5.177988 h 1.725996 v 5.177989 h -1.725996 z" />
</svg>
