<?xml version="1.0" encoding="UTF-8" standalone="no"?>
<svg
   width="64"
   height="64"
   version="1.1"
   id="svg4"
   sodipodi:docname="chrome-dihbebhmaoagdpbcnfedokpfkkgmmpgc-Default.svg"
   inkscape:version="1.3.2 (091e20ef0f, 2023-11-25, custom)"
   xmlns:inkscape="http://www.inkscape.org/namespaces/inkscape"
   xmlns:sodipodi="http://sodipodi.sourceforge.net/DTD/sodipodi-0.dtd"
   xmlns:xlink="http://www.w3.org/1999/xlink"
   xmlns="http://www.w3.org/2000/svg"
   xmlns:svg="http://www.w3.org/2000/svg">
  <defs
     id="defs4">
    <linearGradient
       id="linearGradient4"
       inkscape:collect="always">
      <stop
         style="stop-color:#0051ff;stop-opacity:1;"
         offset="0"
         id="stop4" />
      <stop
         style="stop-color:#00acff;stop-opacity:1;"
         offset="1"
         id="stop5" />
    </linearGradient>
    <filter
       inkscape:collect="always"
       style="color-interpolation-filters:sRGB"
       id="filter5"
       x="-0.048718879"
       y="-0.025519413"
       width="1.0974378"
       height="1.0510388">
      <feGaussianBlur
         inkscape:collect="always"
         stdDeviation="0.44658013"
         id="feGaussianBlur5" />
    </filter>
    <radialGradient
       inkscape:collect="always"
       xlink:href="#linearGradient4"
       id="radialGradient5-3"
       cx="13.323273"
       cy="52.612076"
       fx="13.323273"
       fy="52.612076"
       r="28"
       gradientUnits="userSpaceOnUse"
       gradientTransform="matrix(1.5065812,-0.22794351,0.25378689,1.6773918,-20.101575,-32.602035)" />
    <filter
       inkscape:collect="always"
       style="color-interpolation-filters:sRGB"
       id="filter6"
       x="-0.033476349"
       y="-0.033476349"
       width="1.0669527"
       height="1.0669527">
      <feGaussianBlur
         inkscape:collect="always"
         stdDeviation="0.78111484"
         id="feGaussianBlur6" />
    </filter>
  </defs>
  <sodipodi:namedview
     id="namedview4"
     pagecolor="#ffffff"
     bordercolor="#000000"
     borderopacity="0.25"
     inkscape:showpageshadow="2"
     inkscape:pageopacity="0.0"
     inkscape:pagecheckerboard="0"
     inkscape:deskcolor="#d1d1d1"
     inkscape:zoom="12.640625"
     inkscape:cx="31.960445"
     inkscape:cy="31.960445"
     inkscape:window-width="1920"
     inkscape:window-height="1017"
     inkscape:window-x="0"
     inkscape:window-y="0"
     inkscape:window-maximized="1"
     inkscape:current-layer="svg4" />
  <rect
     style="opacity:0.935935;fill:#000000;fill-opacity:1;filter:url(#filter6)"
     width="56"
     height="56"
     x="4"
     y="4"
     rx="12.187113"
     ry="12.280705"
     id="rect1"
     transform="matrix(0.96911534,0,0,0.96911534,0.98830922,1.9109785)" />
  <rect
     style="fill:url(#radialGradient5-3)"
     width="56"
     height="56"
     x="4"
     y="4"
     rx="13.200619"
     ry="12.779836"
     id="rect1-5" />
  <path
     style="opacity:0.2;filter:url(#filter5)"
     d="m 41.999985,17.000901 c 0,0 -7.999828,0 -7.999828,7.999828 l 0,7.999829 -5.999871,0 0,7.999828 5.999871,0 0,17.999614 7.999828,0 0,-17.999614 6.99985,0 0.999979,-7.999828 -7.999829,0 0,-5.999872 c 0,-1.999957 1.999958,-1.999957 1.999958,-1.999957 l 5.999871,0 0,-7.999828 -7.999829,0 z"
     id="path2" />
  <path
     style="fill:#ffffff"
     d="m 41.999985,16.001782 c 0,0 -7.999828,0 -7.999828,7.999828 l 0,7.999828 -5.999871,0 0,7.999829 5.999871,0 0,19.999571 7.999828,0 0,-19.999571 6.99985,0 0.999979,-7.999829 -7.999829,0 0,-5.999871 c 0,-1.999957 1.999958,-1.999957 1.999958,-1.999957 l 5.999871,0 0,-7.999828 z"
     id="path3" />
</svg>
