<?xml version="1.0" encoding="UTF-8" standalone="no"?>
<svg
   width="64"
   height="64"
   version="1"
   id="svg10"
   sodipodi:docname="fceux.svg"
   inkscape:version="1.3.2 (091e20ef0f, 2023-11-25, custom)"
   xmlns:inkscape="http://www.inkscape.org/namespaces/inkscape"
   xmlns:sodipodi="http://sodipodi.sourceforge.net/DTD/sodipodi-0.dtd"
   xmlns:xlink="http://www.w3.org/1999/xlink"
   xmlns="http://www.w3.org/2000/svg"
   xmlns:svg="http://www.w3.org/2000/svg">
  <defs
     id="defs10">
    <inkscape:path-effect
       effect="fillet_chamfer"
       id="path-effect15"
       is_visible="true"
       lpeversion="1"
       nodesatellites_param="F,0,0,1,0,0,0,1 @ F,0,0,1,0,0,0,1 @ F,0,0,1,0,0,0,1 @ F,0,0,1,0,0,0,1 @ F,0,0,1,0,0,0,1 @ F,0,0,1,0,0,0,1 @ F,0,0,1,0,0,0,1 @ F,0,0,1,0,0,0,1 @ F,0,0,1,0,0,0,1 @ F,0,0,1,0,0,0,1 @ F,0,0,1,0,0,0,1 @ F,0,0,1,0,0.67730125,0,1 @ F,0,0,1,0,0,0,1 @ F,0,0,1,0,0,0,1 @ F,0,0,1,0,0,0,1 @ F,0,0,1,0,0,0,1 | F,0,0,1,0,0,0,1 @ F,0,0,1,0,0,0,1 @ F,0,0,1,0,0,0,1 @ F,0,0,1,0,0,0,1 | F,0,0,1,0,0,0,1 @ F,0,0,1,0,0,0,1 @ F,0,0,1,0,0,0,1 @ F,0,0,1,0,0,0,1 | F,0,0,1,0,0,0,1 @ F,0,0,1,0,0,0,1 @ F,0,0,1,0,0,0,1 @ F,0,0,1,0,0,0,1 | F,0,0,1,0,0,0,1 @ F,0,0,1,0,0,0,1 @ F,0,0,1,0,0,0,1 @ F,0,0,1,0,0,0,1 | F,0,0,1,0,0,0,1 @ F,0,0,1,0,0,0,1 @ F,0,0,1,0,0,0,1 @ F,0,0,1,0,0,0,1"
       radius="0"
       unit="px"
       method="auto"
       mode="F"
       chamfer_steps="1"
       flexible="false"
       use_knot_distance="true"
       apply_no_radius="true"
       apply_with_radius="true"
       only_selected="false"
       hide_knots="false" />
    <linearGradient
       id="linearGradient14"
       inkscape:collect="always">
      <stop
         style="stop-color:#50cdff;stop-opacity:1;"
         offset="0"
         id="stop14" />
      <stop
         style="stop-color:#0043d2;stop-opacity:1;"
         offset="1"
         id="stop15" />
    </linearGradient>
    <inkscape:path-effect
       effect="fillet_chamfer"
       id="path-effect5"
       is_visible="true"
       lpeversion="1"
       nodesatellites_param="F,0,0,1,0,0,0,1 @ F,0,0,1,0,4.1349842,0,1 @ F,0,0,1,0,1.9746989,0,1 @ F,0,1,1,0,4.1349842,0,1 @ F,0,0,1,0,0,0,1 @ F,0,0,1,0,0,0,1 @ F,0,0,1,0,0,0,1 @ F,0,0,1,0,0,0,1 @ F,0,0,1,0,0,0,1 @ F,0,0,1,0,0,0,1 @ F,0,0,1,0,0,0,1 @ F,0,0,1,0,0,0,1 @ F,0,0,1,0,0,0,1 @ F,0,0,1,0,0,0,1 @ F,0,0,1,0,0,0,1 @ F,0,0,1,0,0,0,1 @ F,0,1,1,0,4.1349842,0,1 @ F,0,0,1,0,1.9746989,0,1 @ F,0,1,1,0,4.1349842,0,1 @ F,0,0,1,0,0,0,1 | F,0,0,1,0,0,0,1 @ F,0,0,1,0,0,0,1 @ F,0,0,1,0,0,0,1 @ F,0,0,1,0,0,0,1 | F,0,0,1,0,0,0,1 @ F,0,0,1,0,0,0,1 @ F,0,0,1,0,0,0,1 @ F,0,0,1,0,0,0,1 | F,0,0,1,0,0,0,1 @ F,0,0,1,0,0,0,1 @ F,0,0,1,0,0,0,1 @ F,0,0,1,0,0,0,1 | F,0,0,1,0,0,0,1 @ F,0,0,1,0,0,0,1 @ F,0,0,1,0,0,0,1 @ F,0,0,1,0,0,0,1 | F,0,0,1,0,0,0,1 @ F,0,0,1,0,0,0,1 @ F,0,0,1,0,0,0,1 @ F,0,0,1,0,0,0,1"
       radius="0"
       unit="px"
       method="auto"
       mode="F"
       chamfer_steps="1"
       flexible="false"
       use_knot_distance="true"
       apply_no_radius="true"
       apply_with_radius="true"
       only_selected="false"
       hide_knots="false" />
    <inkscape:path-effect
       effect="fillet_chamfer"
       id="path-effect12"
       is_visible="true"
       lpeversion="1"
       nodesatellites_param="F,0,1,1,0,0.67292987,0,1 @ F,0,1,1,0,0.67292987,0,1 @ F,0,1,1,0,0.67292987,0,1 @ F,0,1,1,0,0.67292987,0,1 @ F,0,1,1,0,0.67292987,0,1 @ F,0,1,1,0,0.67292987,0,1 @ F,0,1,1,0,0.67292987,0,1 @ F,0,1,1,0,0.67292987,0,1 @ F,0,1,1,0,0.67292987,0,1 @ F,0,1,1,0,0.67292987,0,1 @ F,0,1,1,0,0.67292987,0,1 @ F,0,1,1,0,0.67292987,0,1"
       radius="0"
       unit="px"
       method="auto"
       mode="F"
       chamfer_steps="1"
       flexible="false"
       use_knot_distance="true"
       apply_no_radius="true"
       apply_with_radius="true"
       only_selected="false"
       hide_knots="false" />
    <inkscape:path-effect
       effect="fillet_chamfer"
       id="path-effect6"
       is_visible="true"
       lpeversion="1"
       nodesatellites_param="F,0,0,1,0,0,0,1 @ F,0,0,1,0,2.6542185,0,1 @ F,0,0,1,0,0,0,1 @ F,0,0,1,0,0,0,1 @ F,0,0,1,0,0,0,1 @ F,0,0,1,0,0,0,1 @ F,0,0,1,0,0,0,1 @ F,0,0,1,0,1.6110586,0,1 @ F,0,0,1,0,1.6110586,0,1 @ F,0,0,1,0,0,0,1 @ F,0,0,1,0,0,0,1 @ F,0,0,1,0,0,0,1 @ F,0,0,1,0,0,0,1 @ F,0,0,1,0,0,0,1 @ F,0,0,1,0,3.134011,0,1 | F,0,0,1,0,0,0,1 @ F,0,0,1,0,0,0,1 @ F,0,0,1,0,0,0,1 @ F,0,0,1,0,0,0,1 | F,0,0,1,0,0,0,1 @ F,0,0,1,0,0,0,1 @ F,0,0,1,0,0,0,1 @ F,0,0,1,0,0,0,1"
       radius="0"
       unit="px"
       method="auto"
       mode="F"
       chamfer_steps="1"
       flexible="false"
       use_knot_distance="true"
       apply_no_radius="true"
       apply_with_radius="true"
       only_selected="false"
       hide_knots="false" />
    <filter
       inkscape:collect="always"
       style="color-interpolation-filters:sRGB"
       id="filter10"
       x="-0.090099054"
       y="-0.12613583"
       width="1.1802301"
       height="1.2522715">
      <feGaussianBlur
         inkscape:collect="always"
         stdDeviation="1.4987885"
         id="feGaussianBlur10" />
    </filter>
    <filter
       inkscape:collect="always"
       style="color-interpolation-filters:sRGB"
       id="filter14"
       x="-0.21898558"
       y="-0.21904509"
       width="1.4379712"
       height="1.4380902">
      <feGaussianBlur
         inkscape:collect="always"
         stdDeviation="0.61468424"
         id="feGaussianBlur14" />
    </filter>
    <radialGradient
       inkscape:collect="always"
       xlink:href="#linearGradient14"
       id="radialGradient15"
       cx="6.5878215"
       cy="12.166714"
       fx="6.5878215"
       fy="12.166714"
       r="27.251238"
       gradientTransform="matrix(2.8953916,5.0149654,-4.9647163,2.8663802,45.329232,-58.872759)"
       gradientUnits="userSpaceOnUse" />
    <filter
       inkscape:collect="always"
       style="color-interpolation-filters:sRGB"
       id="filter1"
       x="-0.064788872"
       y="-0.06478886"
       width="1.1295777"
       height="1.1295777">
      <feGaussianBlur
         inkscape:collect="always"
         stdDeviation="0.28116194"
         id="feGaussianBlur1" />
    </filter>
  </defs>
  <sodipodi:namedview
     id="namedview10"
     pagecolor="#ffffff"
     bordercolor="#000000"
     borderopacity="0.25"
     inkscape:showpageshadow="2"
     inkscape:pageopacity="0.0"
     inkscape:pagecheckerboard="0"
     inkscape:deskcolor="#d1d1d1"
     inkscape:zoom="14.015625"
     inkscape:cx="34.996656"
     inkscape:cy="26.470457"
     inkscape:window-width="1920"
     inkscape:window-height="1011"
     inkscape:window-x="0"
     inkscape:window-y="0"
     inkscape:window-maximized="1"
     inkscape:current-layer="svg10" />
  <rect
     style="opacity:1;fill:#ffffff;fill-opacity:1;stroke:none;stroke-width:0.457416;stroke-linecap:round;stroke-linejoin:round;stroke-miterlimit:4.7;stroke-opacity:1"
     id="rect10"
     width="38.064922"
     height="14.8401"
     x="12.567118"
     y="16.208885" />
  <path
     id="path5"
     style="fill:url(#radialGradient15);stroke-width:1.6032"
     d="m 31.736203,11.887784 c -5.32172,0.09043 -10.664104,-0.168159 -15.968175,0.336826 -1.89656,0.140522 -3.8329,0.867476 -4.826985,2.596156 -1.7877583,2.895591 -2.6248786,6.274711 -3.6999102,9.477783 -1.6920977,6.145348 -3.2319757,12.579218 -2.4536534,18.98925 0.5650111,3.873257 4.0426746,7.394253 8.0216576,7.529372 2.560439,0.04066 3.877627,-2.348299 4.832167,-4.350246 1.620607,-2.252954 1.942443,-5.638561 4.529022,-7.029313 1.927196,-0.548523 3.983419,-0.181311 5.972195,-0.287598 4.105576,0.02202 8.214179,-0.04461 12.317493,0.03368 2.655857,0.361088 3.160372,3.292235 4.345063,5.218222 1.199686,1.951302 2.012231,4.430002 3.896266,5.82819 0.298903,0.221823 0.857351,0.453842 1.226907,0.510165 3.077643,0.469055 6.104569,-1.769644 7.673648,-4.294076 2.488557,-4.492521 1.255309,-9.8156 0.489694,-14.592367 -1.230684,-5.894587 -2.675156,-11.865687 -5.472137,-17.237751 -1.663932,-2.722253 -5.192004,-2.489412 -7.975019,-2.637612 -4.302513,-0.07008 -8.605169,-0.08676 -12.908233,-0.09068 z m -13.496384,5.005761 c 2.634469,0 4.769982,2.135516 4.769983,4.769983 0,2.634469 -2.135516,4.769984 -4.769983,4.769984 -2.634469,0 -4.772576,-2.135516 -4.772576,-4.769984 2e-6,-2.634466 2.138108,-4.769982 4.772576,-4.769983 z m 25.584311,0.748791 c 1.129685,0.001 2.044708,0.917558 2.043905,2.047247 -0.001,1.128383 -0.915525,2.042865 -2.043905,2.043906 -1.129689,8.03e-4 -2.046207,-0.914219 -2.047247,-2.043906 -8.03e-4,-1.130993 0.916254,-2.04805 2.047247,-2.047247 z m -3.683708,3.683707 c 1.129688,0.001 2.044709,0.917558 2.043906,2.047247 -0.001,1.12838 -0.915523,2.042867 -2.043906,2.043904 -1.129684,8.05e-4 -2.046205,-0.91422 -2.047245,-2.043904 -8.04e-4,-1.130994 0.916256,-2.04805 2.047245,-2.047247 z m 7.367415,0 c 1.129684,0.001 2.044708,0.917558 2.043904,2.047247 -0.001,1.12838 -0.915524,2.042865 -2.043904,2.043904 -1.129692,8.05e-4 -2.046206,-0.91422 -2.047247,-2.043904 -8.03e-4,-1.130994 0.916251,-2.048053 2.047247,-2.047247 z M 43.82413,25.00975 c 1.129685,0.001 2.044708,0.917557 2.043905,2.047246 -0.001,1.128385 -0.915525,2.042865 -2.043905,2.043905 -1.129689,8.05e-4 -2.046207,-0.914218 -2.047247,-2.043905 -8.03e-4,-1.130992 0.916254,-2.04805 2.047247,-2.047246 z"
     inkscape:path-effect="#path-effect15"
     inkscape:original-d="m 31.736203,11.887784 c -5.32172,0.09043 -10.664104,-0.168159 -15.968175,0.336826 -1.89656,0.140522 -3.8329,0.867476 -4.826985,2.596156 -1.7877583,2.895591 -2.6248786,6.274711 -3.6999102,9.477783 -1.6920977,6.145348 -3.2319757,12.579218 -2.4536534,18.98925 0.5650111,3.873257 4.0426746,7.394253 8.0216576,7.529372 2.560439,0.04066 3.877627,-2.348299 4.832167,-4.350246 1.620607,-2.252954 1.942443,-5.638561 4.529022,-7.029313 1.927196,-0.548523 3.983419,-0.181311 5.972195,-0.287598 4.105576,0.02202 8.214179,-0.04461 12.317493,0.03368 2.655857,0.361088 3.160372,3.292235 4.345063,5.218222 1.31331,2.136112 2.162672,4.904254 4.461657,6.195019 3.298111,0.931592 6.653709,-1.445511 8.335164,-4.15074 2.488557,-4.492521 1.255309,-9.8156 0.489694,-14.592367 -1.230684,-5.894587 -2.675156,-11.865687 -5.472137,-17.237751 -1.663932,-2.722253 -5.192004,-2.489412 -7.975019,-2.637612 -4.302513,-0.07008 -8.605169,-0.08676 -12.908233,-0.09068 z m -13.496384,5.005761 c 2.634469,0 4.769982,2.135516 4.769983,4.769983 0,2.634469 -2.135516,4.769984 -4.769983,4.769984 -2.634469,0 -4.772576,-2.135516 -4.772576,-4.769984 2e-6,-2.634466 2.138108,-4.769982 4.772576,-4.769983 z m 25.584311,0.748791 c 1.129685,0.001 2.044708,0.917558 2.043905,2.047247 -0.001,1.128383 -0.915525,2.042865 -2.043905,2.043906 -1.129689,8.03e-4 -2.046207,-0.914219 -2.047247,-2.043906 -8.03e-4,-1.130993 0.916254,-2.04805 2.047247,-2.047247 z m -3.683708,3.683707 c 1.129688,0.001 2.044709,0.917558 2.043906,2.047247 -0.001,1.12838 -0.915523,2.042867 -2.043906,2.043904 -1.129684,8.05e-4 -2.046205,-0.91422 -2.047245,-2.043904 -8.04e-4,-1.130994 0.916256,-2.04805 2.047245,-2.047247 z m 7.367415,0 c 1.129684,0.001 2.044708,0.917558 2.043904,2.047247 -0.001,1.12838 -0.915524,2.042865 -2.043904,2.043904 -1.129692,8.05e-4 -2.046206,-0.91422 -2.047247,-2.043904 -8.03e-4,-1.130994 0.916251,-2.048053 2.047247,-2.047247 z M 43.82413,25.00975 c 1.129685,0.001 2.044708,0.917557 2.043905,2.047246 -0.001,1.128385 -0.915525,2.042865 -2.043905,2.043905 -1.129689,8.05e-4 -2.046207,-0.914218 -2.047247,-2.043905 -8.03e-4,-1.130992 0.916254,-2.04805 2.047247,-2.047246 z"
     sodipodi:nodetypes="cccccccccccccccccssssscccccccccccccccccccc" />
  <path
     id="path14"
     style="mix-blend-mode:normal;fill:none;stroke:#0800ff;stroke-width:0.2;stroke-dasharray:none;stroke-opacity:1;filter:url(#filter14)"
     d="m 21.585938,20.453125 c -1.98591,1e-6 -3.597656,1.609795 -3.597657,3.595703 0,1.985909 1.611746,3.595703 3.597657,3.595703 1.985909,0 3.595703,-1.609793 3.595703,-3.595703 -10e-7,-1.985909 -1.609793,-3.595703 -3.595703,-3.595703 z"
     transform="matrix(1.3265788,0,0,1.3265788,-10.395629,-10.253993)"
     sodipodi:nodetypes="sssss" />
  <path
     style="fill:none;stroke:#000000;stroke-width:0.209;stroke-dasharray:none;stroke-opacity:1;filter:url(#filter10)"
     d="m 31.759766,16.679688 c -4.011613,0.06817 -8.038802,-0.126761 -12.03711,0.253906 -1.429663,0.105928 -2.889312,0.65392 -3.638672,1.957031 -1.347646,2.182751 -1.978683,4.729995 -2.789062,7.144531 -1.275535,4.632479 -2.436324,9.482451 -1.84961,14.314453 0.425916,2.919734 3.047444,5.573927 6.046876,5.675782 1.930107,0.03065 2.923028,-1.770192 3.642578,-3.279297 1.221644,-1.698319 1.46425,-4.250453 3.414062,-5.298828 1.452757,-0.413487 3.002776,-0.136676 4.501953,-0.216797 3.09486,0.0166 6.192002,-0.03363 9.285157,0.02539 2.002035,0.272195 2.382348,2.481749 3.27539,3.933594 0.989998,1.610241 1.630263,3.696919 3.363281,4.669922 2.486178,0.702251 5.015691,-1.089654 6.283203,-3.128906 1.875921,-3.386547 0.946276,-7.399184 0.369141,-11 -0.927713,-4.443451 -2.016583,-8.944578 -4.125,-12.994141 -1.254303,-2.052085 -3.91383,-1.876565 -6.011719,-1.988281 -3.243315,-0.05283 -6.486738,-0.0654 -9.730468,-0.06836 z"
     id="path5-1"
     transform="matrix(1.3265788,0,0,1.3265788,-10.395629,-10.239137)" />
  <path
     d="m 43.829125,17.65631 c -1.125738,-8e-4 -2.038534,0.911996 -2.037735,2.037734 10e-4,1.124438 0.913295,2.035209 2.037735,2.03441 1.123136,-10e-4 2.033375,-0.911272 2.034409,-2.03441 7.99e-4,-1.124439 -0.909975,-2.036698 -2.034409,-2.037734 z m -3.666592,3.666591 c -1.125733,-7.99e-4 -2.038534,0.911996 -2.037733,2.037735 10e-4,1.124435 0.913299,2.035209 2.037733,2.034408 1.123139,-10e-4 2.033374,-0.911272 2.034409,-2.034408 8e-4,-1.12444 -0.909972,-2.036699 -2.034409,-2.037735 z m 7.333183,0 c -1.12574,-8.02e-4 -2.038534,0.911996 -2.037734,2.037735 10e-4,1.124435 0.913292,2.035209 2.037734,2.034408 1.123136,-10e-4 2.033374,-0.911272 2.034408,-2.034408 8.01e-4,-1.12444 -0.909973,-2.036698 -2.034408,-2.037735 z m -3.666591,3.666592 c -1.125738,-8.01e-4 -2.038534,0.911997 -2.037735,2.037735 10e-4,1.124436 0.913295,2.035208 2.037735,2.034408 1.123136,-0.001 2.033375,-0.91127 2.034409,-2.034408 7.99e-4,-1.124441 -0.909975,-2.036698 -2.034409,-2.037735 z"
     style="mix-blend-mode:normal;fill:none;stroke:#0800ff;stroke-width:0.128299;stroke-dasharray:none;stroke-opacity:1;filter:url(#filter1);opacity:0.750702"
     id="path1" />
</svg>
