<?xml version="1.0" encoding="UTF-8" standalone="no"?>
<svg
   width="64"
   height="64"
   version="1"
   id="svg9"
   sodipodi:docname="firefox-developer-edition.svg"
   inkscape:version="1.3.2 (091e20ef0f, 2023-11-25, custom)"
   xmlns:inkscape="http://www.inkscape.org/namespaces/inkscape"
   xmlns:sodipodi="http://sodipodi.sourceforge.net/DTD/sodipodi-0.dtd"
   xmlns:xlink="http://www.w3.org/1999/xlink"
   xmlns="http://www.w3.org/2000/svg"
   xmlns:svg="http://www.w3.org/2000/svg">
  <defs
     id="defs9">
    <radialGradient
       inkscape:collect="always"
       xlink:href="#linearGradient2"
       id="radialGradient17"
       cx="9.297267"
       cy="21.261635"
       fx="9.297267"
       fy="21.261635"
       r="10.184633"
       gradientTransform="matrix(0.29098056,2.280707,-3.2000411,0.40827245,95.864266,-11.669812)"
       gradientUnits="userSpaceOnUse" />
    <linearGradient
       id="linearGradient2"
       inkscape:collect="always">
      <stop
         style="stop-color:#36a4ff;stop-opacity:1;"
         offset="0"
         id="stop1" />
      <stop
         style="stop-color:#36ffbb;stop-opacity:1;"
         offset="1"
         id="stop2" />
    </linearGradient>
    <radialGradient
       inkscape:collect="always"
       xlink:href="#linearGradient13"
       id="radialGradient15"
       cx="30.616348"
       cy="33.260693"
       fx="30.616348"
       fy="33.260693"
       r="26.583647"
       gradientTransform="matrix(0.9040768,0,0,0.7393268,3.0695438,8.5492416)"
       gradientUnits="userSpaceOnUse" />
    <linearGradient
       id="linearGradient13"
       inkscape:collect="always">
      <stop
         style="stop-color:#1f8bff;stop-opacity:1;"
         offset="0"
         id="stop14" />
      <stop
         style="stop-color:#1c65db;stop-opacity:1;"
         offset="1"
         id="stop15" />
    </linearGradient>
    <radialGradient
       inkscape:collect="always"
       xlink:href="#linearGradient19"
       id="radialGradient19"
       cx="32.867538"
       cy="74.052307"
       fx="32.867538"
       fy="74.052307"
       r="28"
       gradientTransform="matrix(1.200221,-1.4886818,1.1303468,0.91132026,-81.038854,41.650621)"
       gradientUnits="userSpaceOnUse" />
    <radialGradient
       inkscape:collect="always"
       xlink:href="#linearGradient4"
       id="radialGradient13"
       cx="39.76133"
       cy="34.696701"
       fx="39.76133"
       fy="34.696701"
       r="8.2413292"
       gradientTransform="matrix(0.9040768,0,0,1.2689371,3.0695438,-9.5899028)"
       gradientUnits="userSpaceOnUse" />
    <radialGradient
       inkscape:collect="always"
       xlink:href="#linearGradient19"
       id="radialGradient21"
       cx="20.007616"
       cy="41.830276"
       fx="20.007616"
       fy="41.830276"
       r="14"
       gradientUnits="userSpaceOnUse"
       gradientTransform="matrix(2.8848347,0.06459688,-0.04500745,2.0099904,-34.678024,-44.483556)" />
    <linearGradient
       id="linearGradient19"
       inkscape:collect="always">
      <stop
         style="stop-color:#1541a7;stop-opacity:1;"
         offset="0"
         id="stop20" />
      <stop
         style="stop-color:#1d253c;stop-opacity:1;"
         offset="1"
         id="stop21" />
    </linearGradient>
    <radialGradient
       inkscape:collect="always"
       xlink:href="#linearGradient4"
       id="radialGradient24"
       cx="9.4593105"
       cy="29.950029"
       fx="9.4593105"
       fy="29.950029"
       r="4.934741"
       gradientTransform="matrix(6.2751469,-2.4271979,1.8774094,4.8537533,-103.96555,-91.550293)"
       gradientUnits="userSpaceOnUse" />
    <linearGradient
       id="linearGradient4"
       inkscape:collect="always">
      <stop
         style="stop-color:#1f8bff;stop-opacity:1;"
         offset="0"
         id="stop3" />
      <stop
         style="stop-color:#1fb7ff;stop-opacity:1;"
         offset="1"
         id="stop4" />
    </linearGradient>
    <radialGradient
       inkscape:collect="always"
       xlink:href="#linearGradient25"
       id="radialGradient11"
       cx="35.305012"
       cy="31.443977"
       fx="35.305012"
       fy="31.443977"
       r="14.234387"
       gradientTransform="matrix(1.8117184,-0.9410115,0.90708069,1.7463918,-57.496978,12.934972)"
       gradientUnits="userSpaceOnUse" />
    <linearGradient
       id="linearGradient25"
       inkscape:collect="always">
      <stop
         style="stop-color:#36aeff;stop-opacity:1;"
         offset="0"
         id="stop24" />
      <stop
         style="stop-color:#36ffc9;stop-opacity:1;"
         offset="1"
         id="stop25" />
    </linearGradient>
    <filter
       inkscape:collect="always"
       style="color-interpolation-filters:sRGB"
       id="filter1"
       x="-0.10816746"
       y="-0.10446844"
       width="1.2163349"
       height="1.2089369">
      <feGaussianBlur
         inkscape:collect="always"
         stdDeviation="2.5464422"
         id="feGaussianBlur1" />
    </filter>
  </defs>
  <sodipodi:namedview
     id="namedview9"
     pagecolor="#ffffff"
     bordercolor="#000000"
     borderopacity="0.25"
     inkscape:showpageshadow="2"
     inkscape:pageopacity="0.0"
     inkscape:pagecheckerboard="0"
     inkscape:deskcolor="#d1d1d1"
     inkscape:zoom="9.7006212"
     inkscape:cx="22.215072"
     inkscape:cy="31.080484"
     inkscape:window-width="1920"
     inkscape:window-height="1020"
     inkscape:window-x="0"
     inkscape:window-y="0"
     inkscape:window-maximized="1"
     inkscape:current-layer="svg9" />
  <path
     style="fill:url(#radialGradient11);stroke-width:0.904077"
     d="m 39.96035,5.7817728 c 1.067842,2.8427259 4.929436,6.5088642 10.022829,13.0322682 4.313612,5.524696 4.807976,11.688661 6.402639,17.230771 L 44.399825,46.361117 30.860812,32.462303 C 30.800022,23.2224 28.582238,13.514946 39.96035,5.7817728 Z"
     id="path2" />
  <path
     style="fill:url(#radialGradient24);stroke-width:0.904077"
     d="m 15.308935,22.416357 c 1.758494,-1.744895 4.629922,-5.80795 8.055986,-6.934266 -0.920453,4.906105 0.272834,6.465452 0.866784,8.973757 l -5.506623,-1.427644 z"
     id="path4" />
  <circle
     style="fill:url(#radialGradient21);stroke-width:0.904077"
     cx="32"
     cy="32.904076"
     r="12.657075"
     id="circle4" />
  <path
     style="fill:url(#radialGradient13);stroke-width:0.904077"
     d="m 36.00979,23.980305 c -0.180038,0.0018 -0.359995,0.0081 -0.5397,0.01917 3.665753,1.720801 6.008538,5.403284 6.013867,9.452837 -0.0027,5.563866 -4.361464,10.27854 -9.917913,10.56575 1.389407,0.657429 2.906656,0.873413 4.443746,0.877692 5.775638,5.3e-5 10.457767,-4.681973 10.457843,-10.457611 5.2e-5,-5.775729 -4.682114,-10.457896 -10.457843,-10.457844 z"
     id="path5" />
  <path
     id="ellipse841"
     style="fill:url(#radialGradient19);stroke-width:0.904077"
     d="m 16.031383,23.92628 c -5.921577,4.5793 -9.3455319,1.266425 -9.3455319,9.273524 0,13.817293 11.3335309,25.018423 25.3141499,25.018423 13.980618,0 25.31415,-11.20113 25.31415,-25.018423 0,-6.43289 -2.456682,-12.298742 -6.493267,-16.731164 0.08997,-0.0034 -0.377487,-0.362769 -0.618485,-0.273085 1.687491,2.797054 2.658764,6.074825 2.658764,9.579676 0,10.256809 -5.704417,20.417954 -15.961228,20.417954 -6.587885,0.319772 -15.363674,-3.891812 -16.714399,-7.832851 -0.87145,-2.542649 -0.651477,-5.398362 1.719468,-6.979151 1.287819,-0.817493 3.165351,-1.624653 6.135755,-1.719438 2.713457,-1.784527 1.393186,-1.581542 1.262663,-2.121827 -0.842918,-0.230493 -2.339174,-0.549024 -4.405073,-2.174967 -1.82979,-1.440118 -2.679653,-1.986188 -8.012033,-2.035997 -1.007387,-1.939783 -0.756193,2.900566 -0.854933,0.597326 z" />
  <path
     style="fill:url(#radialGradient15);stroke-width:0.904077"
     d="m 15.689919,13.485762 c -5.6681,4.38328 -8.6655814,11.104517 -8.9745033,18.693943 0.3241326,11.630948 10.9414553,20.614061 24.0188233,20.614061 13.281615,0 24.048492,-9.271898 24.048492,-21.155449 0,-3.20268 -0.787744,-6.23992 -2.190273,-8.971214 0.17069,1.011633 0.269459,2.047206 0.269459,3.107417 0,10.256809 -8.316001,17.978478 -18.572812,17.978478 -6.587884,0.319774 -11.543695,-2.725155 -12.89442,-6.666194 -0.87145,-2.542651 -0.586097,-3.615544 1.784848,-5.196333 1.287819,-0.817493 3.10105,-1.371164 6.071453,-1.46595 2.713456,-1.784526 2.921513,-2.47072 2.79099,-3.011006 -0.842918,-0.230492 -3.167515,-1.12302 -5.233414,-2.748965 -1.829793,-1.440116 -4.866647,-4.342499 -10.199027,-4.392308 -1.007386,-1.939783 -0.820876,-4.48324 -0.919616,-6.78648 z"
     id="path7" />
  <path
     style="fill:url(#radialGradient17);stroke-width:0.904077"
     d="m 17.997406,25.678525 c -1.722677,-0.03737 -3.174149,0.555837 -4.32615,1.34199 -0.206343,0.206345 1.641477,3.939569 5.491561,3.980057 -0.356467,6.210597 4.291451,10.751916 7.412723,11.650583 l 1.370241,0.25074 c -3.317577,-1.138122 -5.683741,-3.28597 -6.551024,-5.816463 -0.87145,-2.542651 -0.587513,-3.614121 1.783433,-5.19491 1.287819,-0.817494 3.10033,-1.370809 6.070734,-1.465594 1.356728,-0.892262 2.090217,-1.511444 2.465022,-1.974136 0.18744,-0.231075 0.284885,-0.421577 0.328435,-0.589768 0.04352,-0.168393 0.03264,-0.313436 0,-0.448507 -3.657543,3.683401 -8.850988,-0.369646 -12.876032,-1.603324 -0.378767,-0.08086 -0.771403,-0.122068 -1.168943,-0.130675 z"
     id="path8" />
  <path
     id="path19"
     style="mix-blend-mode:normal;stroke:#000000;stroke-width:0;stroke-linejoin:round;stroke-dasharray:none;stroke-opacity:1;filter:url(#filter1)"
     d="m 40.845703,2.8574219 c -0.03709,0.00535 -0.07366,0.019415 -0.105469,0.041016 -7.06222,4.7998642 -9.454449,10.3354461 -10.15039,16.0371091 -2.584158,0.2689 -4.964765,1.227133 -6.951172,2.689453 -0.3418,-0.228427 -0.712807,-0.45373 -1.097656,-0.673828 0.15497,0.08804 0.307993,0.177503 0.455078,0.267578 -0.525797,-1.751021 -0.914281,-3.659924 -0.22461,-7.335938 0.03079,-0.159948 -0.09715,-0.306156 -0.259765,-0.296874 -0.02191,0.0011 -0.04358,0.005 -0.06445,0.01172 -2.684629,0.882569 -5.001673,3.294412 -6.828125,5.333985 -0.124147,-0.0057 -0.242722,-0.01669 -0.369141,-0.01953 -1.013536,-2.045223 -0.856396,-4.765263 -0.964844,-7.294921 -0.0037,-0.09364 -0.05953,-0.17733 -0.144531,-0.216797 -0.04234,-0.01954 -0.08816,-0.02656 -0.132813,-0.02149 -0.04465,0.0051 -0.08813,0.02224 -0.125,0.05078 -6.3335585,4.897891 -9.6793122,12.410963 -10.023437,20.865234 -2.06e-4,0.0059 -2.06e-4,0.01172 0,0.01758 v 0.002 c -0.015913,0.352425 -0.033203,0.708855 -0.033203,1.119141 0,15.419932 12.652598,27.921875 28.25,27.921875 15.597399,0 28.25,-12.501943 28.25,-27.921875 0,-7.140568 -2.7198,-13.650816 -7.181641,-18.587891 -5.78e-4,-0.002 5.84e-4,-0.006 0,-0.0078 -0.02961,-0.094 -0.05837,-0.106226 -0.08398,-0.132813 -0.05123,-0.05317 -0.107966,-0.0979 -0.179688,-0.144531 -0.141936,-0.09229 -0.324167,-0.189472 -0.546875,-0.199219 -0.0024,-1.03e-4 -0.0035,-0.0019 -0.0059,-0.002 -0.02194,-7.17e-4 -0.04716,0.0098 -0.07031,0.01172 v -0.0039 c -6.61e-4,0.0013 -0.0013,0.0026 -0.002,0.0039 -0.04365,0.0037 -0.08758,0.0027 -0.132812,0.01953 -0.14673,0.05463 -0.207717,0.229149 -0.126953,0.363281 1.118833,1.854493 1.940179,3.90668 2.417968,6.087891 0.07271,0.331917 0.138751,0.666222 0.195313,1.003906 -0.05656,-0.337683 -0.122607,-0.671989 -0.195313,-1.003906 -0.630329,-1.17553 -1.362502,-2.33794 -2.25,-3.474609 -5.643519,-7.22799 -9.91257,-11.3247529 -11.048828,-14.3496095 -0.02691,-0.071718 -0.08521,-0.1271419 -0.158203,-0.1503906 -0.03661,-0.011738 -0.07423,-0.015112 -0.111328,-0.00977 z m -0.03516,0.6308593 c 1.356461,3.2150667 5.492725,7.1865408 10.958984,14.1874998 1.230782,1.576336 2.168633,3.199849 2.927735,4.84961 0.04736,0.346647 0.100701,0.691496 0.130859,1.042968 4.06e-4,0.0046 0.0016,0.0091 0.002,0.01367 0.01253,0.147155 0.02001,0.295364 0.0293,0.44336 0.02485,0.395825 0.04297,0.793505 0.04297,1.195312 0,-0.401806 -0.01812,-0.799488 -0.04297,-1.195312 0.02332,0.398107 0.04102,0.795003 0.04102,1.195312 0,0.06161 -0.0034,0.130372 -0.0039,0.207031 -0.0042,0.414906 -0.02207,0.825579 -0.05078,1.232422 -7.85e-4,0.01112 -0.0031,0.02209 -0.0039,0.0332 -0.448176,6.069652 -3.653643,11.129628 -8.314453,14.371094 1.13934,-1.81594 1.802704,-3.960696 1.802734,-6.261719 3.1e-5,-3.465681 -1.494011,-6.584187 -3.873047,-8.746093 -2.453224,-4.299864 -7.078005,-7.201172 -12.380859,-7.201172 -0.321151,0 -0.639214,0.01222 -0.955078,0.0332 C 31.812659,13.39215 34.09162,8.1439439 40.810611,3.4882732 Z M 13.804688,12.203125 c 0.0642,2.382457 -0.05191,4.972475 1.02539,7.046875 0.04282,0.08243 0.127813,0.13433 0.220703,0.134766 5.808325,0.05426 9.082383,3.193996 11.128907,4.804687 0.274594,0.216117 0.549628,0.417034 0.824218,0.607422 0.0785,0.05442 0.155958,0.10178 0.234375,0.154297 0.198271,0.132748 0.396489,0.264841 0.591797,0.384766 0.135315,0.08328 0.266876,0.156718 0.400391,0.234374 0.351974,0.203857 0.698524,0.394728 1.027343,0.558594 0.47564,0.237034 0.920555,0.433648 1.31836,0.59375 0.397805,0.160103 0.747981,0.283854 1.033203,0.375 -0.285221,-0.09115 -0.635528,-0.214857 -1.033203,-0.375 -0.397675,-0.160142 -0.84272,-0.356716 -1.31836,-0.59375 0.938909,0.472941 1.758926,0.796735 2.332032,0.984375 -0.876798,0.761045 -1.805499,1.191565 -2.800782,1.302735 0.281779,-0.03144 0.559425,-0.08267 0.832032,-0.158204 -0.272607,0.07553 -0.550253,0.126764 -0.832032,0.158204 h -0.002 c -1.126558,0.125299 -2.329381,-0.08592 -3.558593,-0.470704 -2.45983,-0.77001 -5.002858,-2.229846 -7.273438,-2.925781 a 0.25002496,0.25002496 0 0 0 -0.02148,-0.0059 c -0.436495,-0.09318 -0.886426,-0.140574 -1.339844,-0.150391 -0.122865,-0.0027 -0.244776,-0.0028 -0.365234,0 -0.07505,0.0018 -0.146594,0.0098 -0.220704,0.01367 -0.04067,0.0021 -0.08074,0.005 -0.121093,0.0078 -0.04365,0.0031 -0.08756,0.0061 -0.13086,0.0098 -0.148021,0.01239 -0.293408,0.02862 -0.4375,0.04883 -0.0819,0.01147 -0.163515,0.02324 -0.24414,0.03711 -0.127346,0.02192 -0.25283,0.04661 -0.376953,0.07422 -0.03599,0.008 -0.07145,0.01713 -0.107422,0.02539 -0.05815,0.01335 -0.116639,0.02612 -0.173828,0.04102 -0.125102,0.03259 -0.247507,0.0695 -0.369141,0.107422 -0.07701,0.024 -0.154855,0.04625 -0.230469,0.07227 -0.129612,0.0446 -0.2554,0.09443 -0.380859,0.144531 -0.06575,0.02626 -0.132664,0.05046 -0.197266,0.07813 -0.152319,0.06523 -0.299447,0.134652 -0.445312,0.207031 -0.04009,0.01844 -0.08041,0.03672 -0.119141,0.05664 -0.149962,0.07715 -0.294645,0.158618 -0.4375,0.242188 -0.0315,0.0172 -0.0633,0.03447 -0.09375,0.05273 -0.164825,0.09893 -0.325481,0.202827 -0.480469,0.308594 a 0.25002496,0.25002496 0 0 0 -0.03711,0.0293 c -0.113875,0.113876 -0.0938,0.212347 -0.08789,0.285156 0.0059,0.07281 0.02408,0.141938 0.04883,0.220703 0.04949,0.157531 0.131353,0.347965 0.25,0.56836 0.237291,0.440787 0.616772,0.994384 1.140624,1.544921 1.007661,1.058997 2.594383,2.05922 4.677735,2.158204 -0.137118,3.404407 1.019546,6.3708 2.679687,8.599609 1.696933,2.2782 3.871726,3.811223 5.673828,4.330078 a 0.25002496,0.25002496 0 0 0 0.02344,0.0059 l 1.425781,0.261719 c 1.863437,0.645628 3.9913,1.003925 6.316407,0.982422 0.273049,-0.0025 0.547753,-0.0082 0.826171,-0.02148 0.0046,-2.19e-4 0.0091,2.22e-4 0.01367,0 0.095,-1.7e-5 0.188505,-0.0047 0.283203,-0.0059 0.228377,-0.0037 0.456836,-0.0079 0.683594,-0.01758 0.07306,-0.0031 0.145889,-0.0059 0.21875,-0.0098 0.09158,-0.0048 0.182142,-0.0134 0.273438,-0.01953 0.171498,-0.01151 0.343334,-0.02209 0.513672,-0.03711 0.445081,-0.03923 0.885742,-0.0911 1.322265,-0.15625 0.256985,-0.03834 0.511859,-0.07982 0.765625,-0.126953 0.04874,-0.0091 0.09786,-0.01797 0.146484,-0.02734 0.164661,-0.03175 0.326875,-0.07004 0.490235,-0.105469 0.199114,-0.04317 0.398814,-0.08623 0.595703,-0.134765 0.237402,-0.05855 0.473016,-0.12127 0.707031,-0.1875 0.08532,-0.02414 0.171004,-0.04712 0.25586,-0.07227 0.0932,-0.02763 0.184702,-0.05899 0.277343,-0.08789 0.244668,-0.07615 0.487956,-0.153802 0.728516,-0.238282 0.03997,-0.01404 0.07932,-0.02877 0.119141,-0.04297 0.266752,-0.09547 0.531584,-0.195242 0.792968,-0.300782 0.216229,-0.08735 0.430193,-0.179327 0.642579,-0.273437 0.07265,-0.03218 0.146558,-0.06275 0.21875,-0.0957 0.105274,-0.04809 0.208096,-0.100509 0.3125,-0.150391 0.507525,-0.241935 1.003656,-0.499353 1.486328,-0.779297 0.01305,-0.0071 0.02623,-0.014 0.03906,-0.02148 0.0028,-0.0016 0.0055,-0.0035 0.0078,-0.0059 0.236298,-0.137849 0.469295,-0.279093 0.699218,-0.425781 0.04479,-0.02857 0.08827,-0.05899 0.132813,-0.08789 0.18706,-0.121391 0.372079,-0.24589 0.554687,-0.373046 0.104741,-0.07292 0.20926,-0.145917 0.3125,-0.220704 0.143526,-0.103993 0.285215,-0.210804 0.425782,-0.318359 0.07673,-0.05869 0.154636,-0.116042 0.230468,-0.175781 0.03425,-0.02699 0.0675,-0.05483 0.101563,-0.08203 0.185292,-0.147958 0.367151,-0.298965 0.546875,-0.453125 0.07113,-0.06099 0.140697,-0.123604 0.210937,-0.185547 0.15034,-0.132633 0.299127,-0.267342 0.445313,-0.404297 0.08537,-0.07994 0.169985,-0.1608 0.253906,-0.242188 0.01686,-0.01636 0.03398,-0.03241 0.05078,-0.04883 0.01614,-0.01576 0.03079,-0.03302 0.04687,-0.04883 0.110256,-0.108411 0.220451,-0.217225 0.328125,-0.328125 0.03845,-0.03962 0.07907,-0.07725 0.117188,-0.117187 0.06973,-0.07302 0.136477,-0.148595 0.205078,-0.222657 0.13379,-0.14452 0.265097,-0.291017 0.394531,-0.439453 0.07112,-0.08151 0.141153,-0.163418 0.210938,-0.246094 0.10983,-0.130194 0.217754,-0.261495 0.324219,-0.394531 0.0823,-0.102786 0.165832,-0.204141 0.246093,-0.308593 8.73e-4,-0.0011 0.0011,-0.0028 0.002,-0.0039 0.07093,-0.09241 0.137717,-0.187548 0.207032,-0.28125 2.426945,-3.278423 3.861328,-7.335928 3.861328,-11.830078 0,-0.283241 -0.02445,-0.559431 -0.05469,-0.833984 0.02964,0.274604 0.05469,0.550945 0.05469,0.833984 0,-0.420692 -0.01669,-0.835145 -0.04297,-1.246094 -0.0037,-0.05855 -0.008,-0.119873 -0.01172,-0.179687 -0.01944,-0.04795 -0.03696,-0.09668 -0.05664,-0.144531 -0.0044,0.01285 -0.01318,0.02333 -0.01953,0.03516 -0.004,-0.04117 -0.01015,-0.08172 -0.01367,-0.123047 1.062561,2.552633 1.769532,5.261999 1.769532,8.144531 0,12.993301 -11.777177,23.148438 -26.351563,23.148438 -14.347238,0 -25.9553139,-9.83819 -26.3144529,-22.550781 0.3335496,-8.136287 3.5184616,-15.301063 9.4433599,-20.101563 z m 8.4375,2.089844 c -0.503584,3.080377 -0.25424,5.000911 0.185546,6.589843 -1.627817,-0.913756 -3.6414,-1.695618 -6.140625,-1.914062 1.676849,-1.848209 3.717511,-3.799181 5.955079,-4.675781 z m 30.642578,0.384765 c -0.08818,0.0082 -0.165447,0.06243 -0.203125,0.142578 0.01069,-0.01925 0.0277,-0.05123 0.02734,-0.05078 -4.73e-4,6.05e-4 0.05342,-0.05126 0.05273,-0.05078 -6.89e-4,4.74e-4 0.03696,-0.02148 0.05273,-0.02734 0.03155,-0.01172 0.05394,-0.01305 0.07031,-0.01367 z m -0.216797,0.177735 c -0.008,0.03281 -0.0092,0.06696 -0.0039,0.09961 -0.003,-0.01601 -0.0074,-0.02858 -0.0059,-0.05273 9.55e-4,-0.0143 0.0061,-0.03263 0.0098,-0.04687 z m -0.0039,0.103515 c 0.0058,0.03261 0.0187,0.06344 0.03711,0.0918 0.0014,0.0099 0.0033,0.01966 0.0059,0.0293 -0.0071,-0.01266 -0.0124,-0.02642 -0.01953,-0.03906 0.0021,0.0019 0.01294,0.009 0.01367,0.0098 0.0026,0.0027 -0.0091,0.01413 -0.0332,-0.0625 -0.002,-0.0065 -0.0021,-0.02068 -0.0039,-0.0293 z m 0.05859,0.154297 c 4.415995,4.856876 7.103516,11.276536 7.103516,18.320313 0,15.146518 -12.419642,27.421875 -27.75,27.421875 -13.668565,0 -24.9222162,-9.788732 -27.2207032,-22.640625 2.6415313,8.332462 10.2496182,14.650228 19.7968752,16.546875 0.156097,0.03117 0.311611,0.06302 0.46875,0.0918 0.218834,0.03987 0.439397,0.07612 0.660156,0.111328 0.141989,0.02265 0.284883,0.04364 0.427734,0.06445 0.03394,0.0049 0.06754,0.01079 0.101563,0.01563 0.227504,0.0322 0.456161,0.06263 0.685547,0.08984 0.09015,0.01069 0.180964,0.01969 0.271484,0.0293 0.0983,0.01041 0.196341,0.02136 0.294922,0.03125 0.262083,0.02619 0.524741,0.04875 0.789062,0.06836 0.194892,0.01414 0.390141,0.0282 0.585938,0.03906 0.575167,0.03178 1.153854,0.05273 1.738281,0.05273 14.807049,0 26.851563,-10.353087 26.851563,-23.648438 0,-3.583513 -0.882833,-6.982914 -2.451172,-10.037109 -7.3e-4,-0.0014 -0.0012,-0.0025 -0.002,-0.0039 -0.405092,-2.348497 -1.229346,-4.54314 -2.351563,-6.552735 z m -20.646484,4.242188 c 0.302491,0 0.601557,0.01147 0.898437,0.03125 0.120584,0.008 0.239774,0.02198 0.359375,0.0332 6.47e-4,5.9e-5 0.0013,-5.9e-5 0.002,0 0.162493,0.01527 0.32572,0.02973 0.486328,0.05078 0.206797,0.0271 0.411721,0.05923 0.615234,0.0957 0.04548,0.0082 0.09141,0.01483 0.136719,0.02344 3.432198,0.652355 6.375167,2.622052 8.40039,5.324218 C 41.253312,23.786706 39.221692,23.095553 37.035156,23 36.862079,22.991 36.687701,22.98633 36.511719,22.98633 h -0.002 c -0.20357,0.002 -0.408438,0.0091 -0.611328,0.02148 -0.259459,0.01558 -0.325824,0.367581 -0.08984,0.476563 3.967593,1.862494 6.502045,5.845564 6.507812,10.228516 -0.0026,5.363656 -3.74634,9.996267 -8.808594,11.166015 0.04494,-0.01061 0.08799,-0.02616 0.132813,-0.03711 -0.04765,0.01164 -0.0947,0.02413 -0.142578,0.03516 -0.03157,-1.18e-4 -0.06226,-0.0017 -0.09375,-0.002 0.03382,2.94e-4 0.0657,0.0038 0.09961,0.0039 -2.122517,-0.008 -4.06735,-0.342958 -5.777344,-0.921875 0.01836,0.01115 0.02137,0.03083 0.03516,0.04492 a 0.25002496,0.25002496 0 0 0 -0.08789,-0.07422 c -2.663377,-0.913692 -4.746815,-2.420737 -6.03125,-4.234375 -0.0019,-0.0027 -0.004,-0.0051 -0.0059,-0.0078 -0.265714,-0.376063 -0.49465,-0.766132 -0.689453,-1.166016 l -0.002,-0.002 c -0.13839,-0.284319 -0.262463,-0.57303 -0.363281,-0.867187 -0.0081,-0.02365 -0.01357,-0.04496 -0.02148,-0.06836 -0.1057,-0.312539 -0.195526,-0.602987 -0.265625,-0.873047 -0.0053,-0.01976 -0.0071,-0.02503 -0.0059,-0.01953 -0.0014,-0.0053 -6.09e-4,-0.01036 -0.002,-0.01563 -0.07392,-0.289488 -0.129576,-0.557845 -0.160156,-0.80664 -0.03096,-0.251872 -0.03888,-0.483988 -0.02344,-0.703126 -6.87e-4,0.0097 0.0025,0.02145 0.002,0.03125 7.97e-4,-0.01276 -9.2e-4,-0.0264 0,-0.03906 -1.18e-4,0.0016 -0.0018,0.0023 -0.002,0.0039 0.01325,-0.184695 0.04812,-0.358028 0.0957,-0.52539 v -0.002 c 0.03517,-0.125201 0.07873,-0.247433 0.134765,-0.367187 0.07703,-0.164381 0.1773,-0.326755 0.296875,-0.488281 0.0016,-0.0021 0.0043,-0.0038 0.0059,-0.0059 0.236587,-0.317962 0.555532,-0.635155 0.978515,-0.970703 0.0033,-0.0027 0.0084,-0.0052 0.01172,-0.0078 0.228586,-0.180787 0.486423,-0.368137 0.775391,-0.5625 0.005,-0.0034 0.0086,-0.0064 0.01367,-0.0098 0.01295,-0.0087 0.02403,-0.01666 0.03711,-0.02539 0.516727,-0.328012 1.115236,-0.617748 1.832031,-0.857421 0.217451,-0.07267 0.448971,-0.14003 0.689453,-0.203125 0.185515,-0.04867 0.387535,-0.09019 0.587891,-0.132813 0.02802,-0.0059 0.05384,-0.01375 0.08203,-0.01953 0.03096,-0.0064 0.05858,-0.0133 0.08984,-0.01953 0.92875,-0.185045 2.010735,-0.308258 3.306641,-0.34961 a 0.25002496,0.25002496 0 0 0 0.128906,-0.04102 c 0.287974,-0.189389 0.53613,-0.361896 0.769531,-0.527344 0.390122,-0.273448 0.744209,-0.53159 1.023438,-0.757813 0.449999,-0.364751 0.767447,-0.674192 0.990234,-0.949218 0.222971,-0.274877 0.352738,-0.518752 0.412109,-0.748047 0.05937,-0.229711 0.04272,-0.440405 0,-0.617188 A 0.25002496,0.25002496 0 0 0 32.125,26.789062 c 0.01692,3.9e-4 0.03431,-0.0036 0.05078,0 -0.490899,-0.135329 -1.486026,-0.500476 -2.648437,-1.085937 -0.03626,-0.01867 -0.07149,-0.03632 -0.107422,-0.05469 -0.497996,-0.254557 -1.020528,-0.549126 -1.552734,-0.886719 -0.09729,-0.06285 -0.193707,-0.1231 -0.291016,-0.1875 -0.365525,-0.241947 -0.730221,-0.497797 -1.087891,-0.779297 -0.629992,-0.495824 -1.425682,-1.159412 -2.378906,-1.835938 2.252709,-1.612603 4.984102,-2.603515 7.966797,-2.603515 z M 25.5625,31.001953 c -0.176841,0.03702 -0.354815,0.07308 -0.519531,0.115235 h -0.002 c -0.01381,0.0035 -0.02534,0.0082 -0.03906,0.01172 0.179078,-0.0458 0.368825,-0.08643 0.560547,-0.126953 z m -0.560547,0.126953 c -0.0087,0.0022 -0.01866,0.0036 -0.02734,0.0059 -0.241849,0.06243 -0.472528,0.130636 -0.689453,0.203125 0.22571,-0.07543 0.465505,-0.143786 0.716797,-0.208985 z m -4.875,4.738282 c 0.03058,0.248735 0.08624,0.517219 0.160156,0.80664 -0.07405,-0.289131 -0.127555,-0.555457 -0.158203,-0.802734 -2.13e-4,-0.0015 -0.0017,-0.0024 -0.002,-0.0039 z m 0.167969,0.841796 c 0.0701,0.27006 0.159925,0.560509 0.265625,0.873047 -0.104406,-0.309387 -0.193253,-0.600699 -0.263672,-0.871093 z m 7.43164,7.248047 c 0.07862,0.02662 0.16453,0.04473 0.244141,0.07031 -0.09026,-0.02902 -0.18248,-0.0556 -0.271484,-0.08594 0.0089,0.0053 0.01853,0.01026 0.02734,0.01563 z m 3.388672,-24.5625 c -0.07361,0.0053 -0.147447,0.0091 -0.220703,0.01563 0.07332,-0.0063 0.147208,-0.01034 0.220703,-0.01563 z m -14.695312,0.07813 c 0.324987,0.03176 0.64147,0.07297 0.949219,0.123047 -0.307681,-0.05001 -0.624094,-0.09156 -0.949219,-0.123047 z m 1.849609,0.298828 c 0.176365,0.04081 0.348835,0.08513 0.519531,0.13086 -0.170577,-0.04592 -0.342906,-0.09043 -0.519531,-0.13086 z m 0.519531,0.13086 c 0.171183,0.04608 0.340577,0.09338 0.50586,0.144531 -0.165308,-0.05112 -0.334554,-0.09864 -0.50586,-0.144531 z m 2.914063,1.140625 c 0.08763,0.04566 0.176229,0.09007 0.261719,0.136719 -0.08535,-0.0468 -0.17426,-0.09087 -0.261719,-0.136719 z m 15.097656,2.501953 c 4.222398,0.112135 7.873876,2.507499 9.728516,6.005859 0.484138,0.913218 0.845254,1.9027 1.0625,2.945313 0.155084,0.744284 0.238288,1.51474 0.238281,2.30664 -3.6e-5,2.760608 -0.997071,5.281566 -2.638672,7.246094 -2.996534,1.736764 -6.515149,2.714027 -10.277344,2.767578 0.164853,-0.0023 0.326341,-0.0156 0.490235,-0.02148 3.642693,-1.494534 6.363708,-4.7783 7.164062,-8.701172 0.04359,-0.207326 0.08098,-0.417726 0.113282,-0.628906 -0.0033,0.02128 -0.0044,0.04322 -0.0078,0.06445 0.0082,-0.05312 0.01399,-0.106831 0.02148,-0.160156 0.07818,-0.541348 0.120818,-1.093502 0.121094,-1.65625 -0.0056,-4.257196 -2.36041,-8.080109 -6.015625,-10.167969 z m -20.21875,1.818359 c 0.422648,0.0092 0.837825,0.05235 1.236328,0.136719 2.179245,0.670072 4.728886,2.129012 7.261719,2.921875 1.268412,0.397057 2.538702,0.629081 3.765625,0.492187 0.213634,-0.02384 0.423617,-0.06656 0.632813,-0.11914 0.803276,-0.18206 1.580791,-0.534302 2.304687,-1.123047 -0.04376,0.09987 -0.102113,0.20823 -0.216797,0.349609 -0.376742,0.465085 -1.179345,1.142091 -2.625,2.097657 -0.791903,0.02768 -1.517758,0.08184 -2.173828,0.166015 -0.34012,0.04364 -0.665422,0.0947 -0.972656,0.152344 h -0.002 c -0.156263,0.02934 -0.295808,0.06637 -0.44336,0.09961 -0.03348,0.0073 -0.06651,0.01399 -0.09961,0.02148 -0.110253,0.02494 -0.227152,0.04737 -0.332031,0.07422 h -0.002 c -0.113615,0.0291 -0.215147,0.06438 -0.324219,0.0957 -0.07856,0.02229 -0.156225,0.04499 -0.232422,0.06836 -0.07762,0.02313 -0.1602,0.04357 -0.234375,0.06836 h -0.002 c -0.06677,0.02233 -0.124599,0.04904 -0.189453,0.07227 -0.152373,0.05384 -0.300628,0.109557 -0.44336,0.167969 -0.02643,0.01008 -0.05495,0.01866 -0.08008,0.0293 h -0.002 c -0.005,0.0021 -0.0087,0.0057 -0.01367,0.0078 -0.447193,0.188768 -0.847302,0.400028 -1.210937,0.63086 a 0.25002496,0.25002496 0 0 0 -0.0039,0.0039 c -0.330109,0.220095 -0.626273,0.432329 -0.890626,0.642578 -0.376479,0.299418 -0.683562,0.594895 -0.93164,0.896484 -0.0021,0.0026 -0.0038,0.0053 -0.0059,0.0078 -0.03241,0.03957 -0.06349,0.07927 -0.09375,0.11914 -0.02358,0.03164 -0.04609,0.06383 -0.06836,0.0957 -0.0096,0.01313 -0.02016,0.0258 -0.0293,0.03906 -0.178007,0.257384 -0.317464,0.521778 -0.410156,0.802734 -0.01458,0.04419 -0.02272,0.09006 -0.03516,0.134766 -0.0018,0.0065 -0.0041,0.01296 -0.0059,0.01953 -0.0064,0.02459 -0.01151,0.04956 -0.01758,0.07422 -0.01328,0.05454 -0.02881,0.10864 -0.03906,0.164063 -0.0054,0.02772 -0.009,0.056 -0.01367,0.08398 0.0016,-0.0092 0.0041,-0.01812 0.0059,-0.02734 -0.03301,0.198949 -0.04818,0.403919 -0.04492,0.617188 2.47e-4,0.01928 -0.0025,0.03716 -0.002,0.05664 v 0.002 0.002 c -1.4e-5,0.0013 -4.3e-5,0.0025 0,0.0039 v 0.002 c 0.0013,0.03827 0.0073,0.07838 0.0098,0.117187 0.03579,0.603113 0.199604,1.273895 0.460937,2.054688 0.0087,0.02624 0.01443,0.04962 0.02344,0.07617 0.0059,0.01747 0.01155,0.0332 0.01758,0.05078 0.06498,0.189596 0.141704,0.374959 0.224609,0.558594 0.02337,0.054 0.04222,0.110625 0.06641,0.164062 0.02989,0.06584 0.06188,0.131664 0.09375,0.197266 0.104802,0.215736 0.216677,0.431018 0.34375,0.644531 0.0257,0.04019 0.06355,0.0682 0.105468,0.08789 -0.03941,-0.0185 -0.0761,-0.04361 -0.101562,-0.08008 0.05597,0.09388 0.113753,0.178575 0.166015,0.259765 0.07708,0.120346 0.157067,0.239891 0.240235,0.357422 h 0.002 c 0.035,0.042 0.07535,0.0631 0.117188,0.07617 -0.04171,-0.01308 -0.08229,-0.03429 -0.117188,-0.07617 0.01664,0.02337 0.03526,0.04657 0.05273,0.07031 -0.195252,-0.179319 -0.395573,-0.342247 -0.568359,-0.574219 -1.63813,-2.199258 -2.800803,-5.115154 -2.607422,-8.484375 A 0.25002496,0.25002496 0 0 0 17.878906,30.75 c -2.048912,-0.02155 -3.5592,-1.022854 -4.541015,-2.054688 -0.490909,-0.515915 -0.845724,-1.03845 -1.060547,-1.4375 -0.107412,-0.199522 -0.17961,-0.370269 -0.214844,-0.482421 -0.0043,-0.01367 -0.0027,-0.0155 -0.0059,-0.02734 0.172962,-0.114829 0.35294,-0.224572 0.537109,-0.330078 0.01202,-0.0069 0.02504,-0.01268 0.03711,-0.01953 0.49734,-0.281907 1.036001,-0.523551 1.615235,-0.703126 0.0084,-0.0026 0.01696,-0.0052 0.02539,-0.0078 0.561716,-0.171981 1.161298,-0.282284 1.800782,-0.3125 0.16777,-0.0082 0.336488,-0.01547 0.509765,-0.01172 z m 38.253907,1.416016 c -0.02616,0.341754 -0.06048,0.68 -0.103516,1.015625 0.04306,-0.33569 0.07734,-0.673786 0.103516,-1.015625 z m -22.78125,0.01172 c 0.01023,-0.0027 0.02086,0.0014 0.03125,0 a 0.25002496,0.25002496 0 0 0 -0.140626,0.06445 c 0.03256,-0.03265 0.06972,-0.05384 0.109376,-0.06445 z m 22.652343,1.191406 c -0.05208,0.377552 -0.112635,0.751902 -0.185547,1.121094 -0.155802,0.788912 -0.358899,1.557495 -0.605468,2.304687 -0.1217,0.368794 -0.253753,0.732093 -0.396485,1.089844 0.14281,-0.357717 0.274716,-0.72107 0.396485,-1.089844 0.246656,-0.746993 0.449592,-1.515913 0.605468,-2.304687 0.07297,-0.369243 0.133429,-0.743468 0.185547,-1.121094 z m -7.792969,2.378906 c 0.02855,0.06633 0.05863,0.132243 0.08594,0.199219 -0.02738,-0.06709 -0.0573,-0.132788 -0.08594,-0.199219 z m 0.396485,1.0625 c 0.01572,0.04993 0.02988,0.100161 0.04492,0.150391 -0.01502,-0.05018 -0.02922,-0.100517 -0.04492,-0.150391 z m 6.195312,1.105469 c -0.141428,0.352642 -0.291933,0.699701 -0.453125,1.041015 0.160932,-0.340645 0.31189,-0.689075 0.453125,-1.041015 z m -0.46289,1.060547 c -0.661863,1.397295 -1.485225,2.695768 -2.449219,3.878906 0.964002,-1.182881 1.787281,-2.48193 2.449219,-3.878906 z m -5.275391,0.03711 c 0.0042,0.0401 0.006,0.08086 0.0098,0.121094 -0.0037,-0.04027 -0.0056,-0.08095 -0.0098,-0.121094 z M 3.9453125,33.679688 C 3.9602405,33.843549 3.9814157,34.005183 4,34.167969 3.9813713,34.005243 3.9602783,33.843485 3.9453125,33.679688 Z M 4.125,35.099609 c 0.022976,0.144742 0.046408,0.289794 0.072266,0.433594 C 4.1713182,35.389216 4.1480588,35.24454 4.125,35.099609 Z m 38.394531,1.205079 c -0.0087,0.03772 -0.01635,0.0757 -0.02539,0.113281 0.0091,-0.03762 0.01671,-0.07552 0.02539,-0.113281 z M 4.4101562,36.5625 c 0.024036,0.104024 0.044765,0.209024 0.070313,0.3125 -0.025554,-0.103413 -0.046263,-0.208539 -0.070313,-0.3125 z m 46.1796878,0.912109 c -1.207678,1.481117 -2.634308,2.778015 -4.232422,3.855469 -0.621881,0.419274 -1.268183,0.806025 -1.939453,1.15625 -0.206552,0.107766 -0.416063,0.211547 -0.626953,0.3125 0.211098,-0.10122 0.420197,-0.204463 0.626953,-0.3125 0.670537,-0.350379 1.318094,-0.737148 1.939453,-1.15625 1.597705,-1.07764 3.024781,-2.374725 4.232422,-3.855469 z m 0.412109,0.271485 c -0.05716,0.07038 -0.11376,0.141363 -0.171875,0.210937 0.05821,-0.06972 0.114625,-0.140412 0.171875,-0.210937 z m -1.957031,2.085937 c -0.06437,0.05937 -0.128199,0.119187 -0.19336,0.177735 0.06509,-0.0585 0.129067,-0.11841 0.19336,-0.177735 z M 39.849609,40.8125 c -0.02977,0.03789 -0.05961,0.07578 -0.08984,0.113281 0.03028,-0.03759 0.06003,-0.0753 0.08984,-0.113281 z m -0.01953,0.667969 c -0.0295,0.03306 -0.05803,0.06687 -0.08789,0.09961 0.02975,-0.03262 0.0585,-0.06667 0.08789,-0.09961 z m -0.58789,0.04492 c -0.01845,0.01994 -0.0361,0.04073 -0.05469,0.06055 0.01864,-0.01987 0.03619,-0.04054 0.05469,-0.06055 z m 0.01758,0.550781 c -0.03983,0.03895 -0.07876,0.07878 -0.119141,0.117187 0.04035,-0.03838 0.07933,-0.07826 0.119141,-0.117187 z m -0.660157,0.08984 c -0.0586,0.05412 -0.118013,0.107257 -0.177734,0.160156 0.0597,-0.05291 0.119154,-0.106028 0.177734,-0.160156 z m 0.03516,0.480468 c -0.04016,0.03414 -0.08048,0.06793 -0.121094,0.101563 0.04063,-0.03363 0.08092,-0.06742 0.121094,-0.101563 z m -0.753907,0.128907 c -0.06295,0.04923 -0.125457,0.09856 -0.189453,0.146484 0.06393,-0.0479 0.126563,-0.09727 0.189453,-0.146484 z m 5.835938,0.06055 c -0.205113,0.09716 -0.412061,0.190634 -0.621094,0.28125 0.208764,-0.09068 0.416238,-0.184046 0.621094,-0.28125 z m -0.763672,0.341796 c -0.203079,0.08622 -0.406698,0.170045 -0.613281,0.25 -0.395189,0.152953 -0.797765,0.292413 -1.205078,0.421875 0.40729,-0.129782 0.809924,-0.268591 1.205078,-0.421875 0.206459,-0.08009 0.410323,-0.163657 0.613281,-0.25 z m -5.796875,0.121094 c -0.09846,0.06524 -0.198261,0.129203 -0.298828,0.191406 0.100695,-0.06232 0.200242,-0.126031 0.298828,-0.191406 z m 0.08203,0.375 c -0.03161,0.01993 -0.06389,0.03894 -0.0957,0.05859 0.03176,-0.01963 0.06414,-0.03869 0.0957,-0.05859 z m -0.886719,0.111328 c -0.100696,0.05528 -0.202168,0.107907 -0.304687,0.160156 0.10238,-0.05222 0.204127,-0.104914 0.304687,-0.160156 z m 4.458985,0.167969 c -0.16806,0.05041 -0.337869,0.09623 -0.507813,0.142578 0.169696,-0.04642 0.339999,-0.09211 0.507813,-0.142578 z m -12.992188,0.121094 c 0.01278,0.0322 0.01289,0.06339 0.01172,0.09766 a 0.25002496,0.25002496 0 0 0 -0.01172,-0.09766 z m 12.171875,0.105469 c -0.157725,0.04042 -0.315367,0.08029 -0.474609,0.117187 0.159143,-0.03699 0.316986,-0.07667 0.474609,-0.117187 z m -12.164062,0.06055 c -0.03298,0.109553 -0.131439,0.198042 -0.279297,0.169922 a 0.25002496,0.25002496 0 0 0 0.279297,-0.169922 z m 1.058594,0.05469 c 0.121309,0.0314 0.243897,0.06083 0.367187,0.08984 -0.123061,-0.02907 -0.246089,-0.05841 -0.367187,-0.08984 z m 10.003906,0.136719 c -0.07696,0.0154 -0.153188,0.0323 -0.230469,0.04687 0.07732,-0.01463 0.153477,-0.03142 0.230469,-0.04687 z m -4.357422,0.152343 c -0.05845,0.0196 -0.116912,0.03994 -0.175781,0.05859 0.059,-0.01869 0.117206,-0.03895 0.175781,-0.05859 z m -4.201172,0.02148 c 0.09835,0.01676 0.197448,0.03162 0.296875,0.04687 -0.09931,-0.01533 -0.198643,-0.03005 -0.296875,-0.04687 z m 7.460938,0.01758 c -0.131302,0.01924 -0.264355,0.03391 -0.396485,0.05078 0.132222,-0.01694 0.265098,-0.03147 0.396485,-0.05078 z m -0.919922,0.113281 c -0.127834,0.01318 -0.256223,0.0242 -0.384766,0.03516 0.128469,-0.01098 0.257011,-0.02195 0.384766,-0.03516 z m -5.042969,0.0625 c 0.08425,0.0074 0.16899,0.01317 0.253906,0.01953 -0.08489,-0.0064 -0.16969,-0.01206 -0.253906,-0.01953 z m 4.019531,0.01758 c -0.09444,0.0053 -0.188412,0.01155 -0.283203,0.01563 0.09483,-0.0041 0.188725,-0.01033 0.283203,-0.01563 z m -2.041015,0.06055 c -0.09007,9.81e-4 -0.180091,0.0021 -0.269532,0.002 0.08945,2.21e-4 0.17963,-0.0011 0.269532,-0.002 z"
     transform="matrix(0.90286182,0,0,0.90286182,3.0396474,3.0134058)" />
</svg>
