<?xml version="1.0" encoding="UTF-8" standalone="no"?>
<svg
   width="64"
   height="64"
   version="1"
   id="svg7"
   sodipodi:docname="gnome-lockscreen.svg"
   inkscape:version="1.3.2 (091e20ef0f, 2023-11-25, custom)"
   xmlns:inkscape="http://www.inkscape.org/namespaces/inkscape"
   xmlns:sodipodi="http://sodipodi.sourceforge.net/DTD/sodipodi-0.dtd"
   xmlns:xlink="http://www.w3.org/1999/xlink"
   xmlns="http://www.w3.org/2000/svg"
   xmlns:svg="http://www.w3.org/2000/svg">
  <defs
     id="defs7">
    <linearGradient
       id="linearGradient8"
       inkscape:collect="always">
      <stop
         style="stop-color:#707070;stop-opacity:1;"
         offset="0"
         id="stop8" />
      <stop
         style="stop-color:#282828;stop-opacity:1;"
         offset="1"
         id="stop9" />
    </linearGradient>
    <filter
       inkscape:collect="always"
       style="color-interpolation-filters:sRGB"
       id="filter7"
       x="-0.019391239"
       y="-0.014916338"
       width="1.0387825"
       height="1.0298327">
      <feGaussianBlur
         inkscape:collect="always"
         stdDeviation="0.32318731"
         id="feGaussianBlur7" />
    </filter>
    <radialGradient
       inkscape:collect="always"
       xlink:href="#linearGradient8"
       id="radialGradient9"
       cx="-50.838833"
       cy="-12.642478"
       fx="-50.838833"
       fy="-12.642478"
       r="16"
       gradientTransform="matrix(2.9895159,1.7563823,-2.3298881,3.9656726,68.689111,134.04495)"
       gradientUnits="userSpaceOnUse" />
    <filter
       inkscape:collect="always"
       style="color-interpolation-filters:sRGB"
       id="filter9"
       x="-0.14131381"
       y="-0.12718243"
       width="1.2826276"
       height="1.2543649">
      <feGaussianBlur
         inkscape:collect="always"
         stdDeviation="1.0598536"
         id="feGaussianBlur9" />
    </filter>
    <radialGradient
       inkscape:collect="always"
       xlink:href="#linearGradient8"
       id="radialGradient11"
       cx="-47.1847"
       cy="4.3726602"
       fx="-47.1847"
       fy="4.3726602"
       r="20"
       gradientTransform="matrix(-2.7137042,-0.81815759,1.5397885,-5.1072444,-142.69549,-75.364749)"
       gradientUnits="userSpaceOnUse" />
  </defs>
  <sodipodi:namedview
     id="namedview7"
     pagecolor="#ffffff"
     bordercolor="#000000"
     borderopacity="0.25"
     inkscape:showpageshadow="2"
     inkscape:pageopacity="0.0"
     inkscape:pagecheckerboard="0"
     inkscape:deskcolor="#d1d1d1"
     inkscape:zoom="13.875"
     inkscape:cx="26.126126"
     inkscape:cy="37.189189"
     inkscape:window-width="1920"
     inkscape:window-height="1017"
     inkscape:window-x="0"
     inkscape:window-y="0"
     inkscape:window-maximized="1"
     inkscape:current-layer="svg7" />
  <rect
     style="opacity:0.862891;mix-blend-mode:normal;filter:url(#filter7)"
     width="40"
     height="52"
     x="-50"
     y="-58"
     rx="2.5"
     ry="2.5"
     transform="matrix(0,-1,-1,0,1.1622906e-6,2)"
     id="rect3" />
  <rect
     style="fill:url(#radialGradient11)"
     width="40"
     height="52"
     x="-52"
     y="-58"
     rx="2.5"
     ry="2.5"
     transform="matrix(0,-1,-1,0,0,0)"
     id="rect4" />
  <rect
     style="fill:url(#radialGradient9)"
     width="32"
     height="44"
     x="-48"
     y="-54"
     rx="1.3202025"
     ry="1.3202025"
     transform="matrix(0,-1,-1,0,0,0)"
     id="rect5" />
  <path
     style="opacity:0.570426;mix-blend-mode:normal;filter:url(#filter9)"
     d="m 32,22 c -3.324,0 -6,2.676 -6,6 v 2 H 24.5 C 23.669,30 23,30.669 23,31.5 v 9 c 0,0.831 0.669,1.5 1.5,1.5 h 15 c 0.831,0 1.5,-0.669 1.5,-1.5 v -9 C 41,30.669 40.331,30 39.5,30 H 38 v -2 c 0,-3.324 -2.676,-6 -6,-6 z m 0,3 c 1.662,0 3,1.338 3,3 v 2 h -6 v -2 c 0,-1.662 1.338,-3 3,-3 z"
     id="path6" />
  <path
     style="fill:#ffffff;fill-opacity:1"
     d="m 32,22 c -3.324,0 -6,2.676 -6,6 v 2 H 24.5 C 23.669,30 23,30.669 23,31.5 v 9 c 0,0.831 0.669,1.5 1.5,1.5 h 15 c 0.831,0 1.5,-0.669 1.5,-1.5 v -9 C 41,30.669 40.331,30 39.5,30 H 38 v -2 c 0,-3.324 -2.676,-6 -6,-6 z m 0,3 c 1.662,0 3,1.338 3,3 v 2 h -6 v -2 c 0,-1.662 1.338,-3 3,-3 z"
     id="path7" />
</svg>
