<?xml version="1.0" encoding="UTF-8" standalone="no"?>
<svg
   width="64"
   height="64"
   version="1"
   id="svg13"
   sodipodi:docname="godot.svg"
   inkscape:version="1.3.2 (091e20ef0f, 2023-11-25, custom)"
   xmlns:inkscape="http://www.inkscape.org/namespaces/inkscape"
   xmlns:sodipodi="http://sodipodi.sourceforge.net/DTD/sodipodi-0.dtd"
   xmlns:xlink="http://www.w3.org/1999/xlink"
   xmlns="http://www.w3.org/2000/svg"
   xmlns:svg="http://www.w3.org/2000/svg">
  <defs
     id="defs13">
    <inkscape:path-effect
       effect="fillet_chamfer"
       id="path-effect2"
       is_visible="true"
       lpeversion="1"
       nodesatellites_param="F,0,1,1,0,0,0,1 @ F,0,1,1,0,2.016382,0,1 @ F,0,1,1,0,2.016382,0,1 @ F,0,1,1,0,2.016382,0,1 @ F,0,1,1,0,2.016382,0,1 @ F,0,1,1,0,0,0,1 | F,0,1,1,0,0,0,1 @ F,0,1,1,0,2.016382,0,1 @ F,0,1,1,0,2.016382,0,1 @ F,0,1,1,0,2.016382,0,1 @ F,0,1,1,0,2.016382,0,1 @ F,0,1,1,0,0,0,1"
       radius="0"
       unit="px"
       method="auto"
       mode="F"
       chamfer_steps="1"
       flexible="false"
       use_knot_distance="true"
       apply_no_radius="true"
       apply_with_radius="true"
       only_selected="false"
       hide_knots="false" />
    <inkscape:path-effect
       effect="fillet_chamfer"
       id="path-effect1"
       is_visible="true"
       lpeversion="1"
       nodesatellites_param="F,0,0,1,0,2.2930761,0,1 @ F,0,0,1,0,1.7546563,0,1 @ F,0,0,1,0,1.6613008,0,1 @ F,0,0,1,0,1.6613008,0,1 @ F,0,0,1,0,1.7546563,0,1 @ F,0,0,1,0,1.7546563,0,1 @ F,0,0,1,0,1.6613008,0,1 @ F,0,0,1,0,0,0,1 @ F,0,0,1,0,0,0,1 @ F,0,0,1,0,2.6801425,0,1 @ F,0,0,1,0,0,0,1 @ F,0,1,1,0,2.6801425,0,1 @ F,0,0,1,0,0,0,1 @ F,0,0,1,0,0,0,1 @ F,0,0,1,0,1.6613008,0,1 @ F,0,0,1,0,1.7546563,0,1 @ F,0,0,1,0,1.7546563,0,1 @ F,0,0,1,0,1.6613008,0,1 @ F,0,0,1,0,1.6613008,0,1 @ F,0,0,1,0,1.7546563,0,1 @ F,0,0,1,0,1.7546563,0,1 @ F,0,0,1,0,1.6613008,0,1 @ F,0,0,1,0,1.6613008,0,1"
       radius="0"
       unit="px"
       method="auto"
       mode="F"
       chamfer_steps="1"
       flexible="false"
       use_knot_distance="true"
       apply_no_radius="true"
       apply_with_radius="true"
       only_selected="false"
       hide_knots="false" />
    <linearGradient
       id="linearGradient14"
       inkscape:collect="always">
      <stop
         style="stop-color:#000000;stop-opacity:1;"
         offset="0"
         id="stop15" />
      <stop
         style="stop-color:#4c4c4c;stop-opacity:1;"
         offset="1"
         id="stop16" />
    </linearGradient>
    <linearGradient
       id="linearGradient13"
       inkscape:collect="always">
      <stop
         style="stop-color:#4572ff;stop-opacity:1;"
         offset="0"
         id="stop13" />
      <stop
         style="stop-color:#00c2ff;stop-opacity:1;"
         offset="1"
         id="stop14" />
    </linearGradient>
    <radialGradient
       inkscape:collect="always"
       xlink:href="#linearGradient13"
       id="radialGradient14"
       cx="11.284943"
       cy="49.279503"
       fx="11.284943"
       fy="49.279503"
       r="28"
       gradientTransform="matrix(1.7176991,-0.465545,0.41661287,1.5371565,-28.629668,-22.593957)"
       gradientUnits="userSpaceOnUse" />
    <radialGradient
       inkscape:collect="always"
       xlink:href="#linearGradient14"
       id="radialGradient16"
       cx="45.137081"
       cy="30.806581"
       fx="45.137081"
       fy="30.806581"
       r="3"
       gradientUnits="userSpaceOnUse"
       gradientTransform="matrix(4.3102149,-1.0108374,0.90616671,3.8638994,-179.45488,-39.418464)" />
    <radialGradient
       inkscape:collect="always"
       xlink:href="#linearGradient14"
       id="radialGradient16-3"
       cx="45.137081"
       cy="30.806581"
       fx="45.137081"
       fy="30.806581"
       r="3"
       gradientUnits="userSpaceOnUse"
       gradientTransform="matrix(4.3102149,-1.0108374,0.90616671,3.8638994,-207.69324,-39.418464)" />
    <filter
       inkscape:collect="always"
       style="color-interpolation-filters:sRGB"
       id="filter19"
       x="-0.10633061"
       y="-0.10633061"
       width="1.2126612"
       height="1.2126612">
      <feGaussianBlur
         inkscape:collect="always"
         stdDeviation="0.53165306"
         id="feGaussianBlur19" />
    </filter>
    <filter
       inkscape:collect="always"
       style="color-interpolation-filters:sRGB"
       id="filter20"
       x="-0.10633061"
       y="-0.10633061"
       width="1.2126612"
       height="1.2126612">
      <feGaussianBlur
         inkscape:collect="always"
         stdDeviation="0.53165306"
         id="feGaussianBlur20" />
    </filter>
    <filter
       inkscape:collect="always"
       style="color-interpolation-filters:sRGB"
       id="filter22"
       x="-0.027820742"
       y="-0.58374675"
       width="1.0556415"
       height="2.1674935">
      <feGaussianBlur
         inkscape:collect="always"
         stdDeviation="0.55641483"
         id="feGaussianBlur22" />
    </filter>
    <filter
       inkscape:collect="always"
       style="color-interpolation-filters:sRGB"
       id="filter23"
       x="-0.31035376"
       y="-0.15517688"
       width="1.6207075"
       height="1.3103538">
      <feGaussianBlur
         inkscape:collect="always"
         stdDeviation="0.51725624"
         id="feGaussianBlur23" />
    </filter>
    <inkscape:path-effect
       effect="fillet_chamfer"
       id="path-effect1-5"
       is_visible="true"
       lpeversion="1"
       nodesatellites_param="F,0,0,1,0,2.2930761,0,1 @ F,0,0,1,0,1.7546563,0,1 @ F,0,0,1,0,1.6613008,0,1 @ F,0,0,1,0,1.6613008,0,1 @ F,0,0,1,0,1.7546563,0,1 @ F,0,0,1,0,1.7546563,0,1 @ F,0,0,1,0,1.6613008,0,1 @ F,0,0,1,0,0,0,1 @ F,0,0,1,0,0,0,1 @ F,0,0,1,0,2.6801425,0,1 @ F,0,0,1,0,0,0,1 @ F,0,1,1,0,2.6801425,0,1 @ F,0,0,1,0,0,0,1 @ F,0,0,1,0,0,0,1 @ F,0,0,1,0,1.6613008,0,1 @ F,0,0,1,0,1.7546563,0,1 @ F,0,0,1,0,1.7546563,0,1 @ F,0,0,1,0,1.6613008,0,1 @ F,0,0,1,0,1.6613008,0,1 @ F,0,0,1,0,1.7546563,0,1 @ F,0,0,1,0,1.7546563,0,1 @ F,0,0,1,0,1.6613008,0,1 @ F,0,0,1,0,1.6613008,0,1"
       radius="0"
       unit="px"
       method="auto"
       mode="F"
       chamfer_steps="1"
       flexible="false"
       use_knot_distance="true"
       apply_no_radius="true"
       apply_with_radius="true"
       only_selected="false"
       hide_knots="false" />
    <filter
       inkscape:collect="always"
       style="color-interpolation-filters:sRGB"
       id="filter1"
       x="-0.037310777"
       y="-0.039569745"
       width="1.0746216"
       height="1.0791395">
      <feGaussianBlur
         inkscape:collect="always"
         stdDeviation="0.84864004"
         id="feGaussianBlur1" />
    </filter>
  </defs>
  <sodipodi:namedview
     id="namedview13"
     pagecolor="#ffffff"
     bordercolor="#000000"
     borderopacity="0.25"
     inkscape:showpageshadow="2"
     inkscape:pageopacity="0.0"
     inkscape:pagecheckerboard="0"
     inkscape:deskcolor="#d1d1d1"
     inkscape:zoom="12.6875"
     inkscape:cx="22.108374"
     inkscape:cy="22.423645"
     inkscape:window-width="1920"
     inkscape:window-height="1018"
     inkscape:window-x="0"
     inkscape:window-y="0"
     inkscape:window-maximized="1"
     inkscape:current-layer="svg13" />
  <path
     style="fill:#000000;fill-opacity:1;filter:url(#filter1);opacity:0.69146268"
     d="m 24.305987,4.9333724 c -1.091304,0.4721928 -2.190683,0.9294203 -3.288463,1.387712 -0.894051,0.3732412 -1.463458,1.4492464 -1.273408,2.3994977 l 0.730076,3.6503789 a 2.0985813,2.0985813 117.05628 0 1 -1.184978,2.320014 l -3.42335,1.565707 A 2.5641046,2.5641046 8.3619597 0 1 13.10703,15.851164 l -0.788849,-0.693055 a 1.8717428,1.8717428 178.15072 0 0 -2.5589104,0.08262 L 5.2407294,19.759271 A 1.8263825,1.8263825 91.147449 0 0 5.190052,22.289417 L 6.8732641,24.11317 A 4.2494956,4.2494956 68.647449 0 1 8,26.995285 v 12.850029 -1.118362 1.987438 c 0,1.480201 0.4112103,3.820873 1.1933916,5.074185 C 11.475117,49.444649 17.577236,56 32,56 46.423083,56 52.525153,49.444359 54.80676,45.788332 55.588836,44.53514 56,42.194591 56,40.714389 v -1.987437 1.118362 -12.850029 a 4.2494956,4.2494956 111.35255 0 1 1.126736,-2.882115 l 1.683212,-1.823753 a 1.8263825,1.8263825 88.852551 0 0 -0.05068,-2.530146 l -4.518542,-4.518542 a 1.8717428,1.8717428 1.8492822 0 0 -2.55891,-0.08262 l -0.788849,0.693055 a 2.5641046,2.5641046 171.63804 0 1 -2.758834,0.405518 l -3.42335,-1.565707 A 2.0985813,2.0985813 62.943724 0 1 43.525808,12.370961 L 44.255884,8.7205821 A 2.1627851,2.1627851 62.257692 0 0 42.987299,6.3086139 l -3.774598,-1.61822 A 2.0079546,2.0079546 162.05678 0 0 36.698698,5.5044892 L 36.058034,6.5746169 A 2.9308532,2.9308532 150.45406 0 1 33.543385,8 h -3.09224 A 2.9274163,2.9274163 29.574793 0 1 27.937932,6.5737583 L 27.575886,5.9676343 C 26.926462,4.8803919 25.468252,4.4304761 24.305987,4.9333724 Z"
     id="path2-3"
     inkscape:path-effect="#path-effect1-5"
     inkscape:original-d="M 26.4,3.9990078 C 24.10047,5.06258 21.735739,6.0108903 19.4,7 l 1.4,7 -6.444922,2.947657 L 11,14 4,21 8,25.333984 v 14.51133 -1.118362 4.66758 C 8,43.394532 12,56 32,56 52,56 56,43.394532 56,43.394532 v -4.66758 1.118362 -14.51133 L 60,21 53,14 49.644922,16.947657 43.2,14 44.6,7 37.6,3.9990078 35.204686,8 h -6.414842 z"
     sodipodi:nodetypes="ccccccccccsccccccccccccc"
     transform="translate(-0.05787118,1.0548031)" />
  <path
     style="fill:url(#radialGradient14)"
     d="m 24.305987,4.9333724 c -1.091304,0.4721928 -2.190683,0.9294203 -3.288463,1.387712 -0.894051,0.3732412 -1.463458,1.4492464 -1.273408,2.3994977 l 0.730076,3.6503789 a 2.0985813,2.0985813 117.05628 0 1 -1.184978,2.320014 l -3.42335,1.565707 A 2.5641046,2.5641046 8.3619597 0 1 13.10703,15.851164 l -0.788849,-0.693055 a 1.8717428,1.8717428 178.15072 0 0 -2.5589104,0.08262 L 5.2407294,19.759271 A 1.8263825,1.8263825 91.147449 0 0 5.190052,22.289417 L 6.8732641,24.11317 A 4.2494956,4.2494956 68.647449 0 1 8,26.995285 v 12.850029 -1.118362 1.987438 c 0,1.480201 0.4112103,3.820873 1.1933916,5.074185 C 11.475117,49.444649 17.577236,56 32,56 46.423083,56 52.525153,49.444359 54.80676,45.788332 55.588836,44.53514 56,42.194591 56,40.714389 v -1.987437 1.118362 -12.850029 a 4.2494956,4.2494956 111.35255 0 1 1.126736,-2.882115 l 1.683212,-1.823753 a 1.8263825,1.8263825 88.852551 0 0 -0.05068,-2.530146 l -4.518542,-4.518542 a 1.8717428,1.8717428 1.8492822 0 0 -2.55891,-0.08262 l -0.788849,0.693055 a 2.5641046,2.5641046 171.63804 0 1 -2.758834,0.405518 l -3.42335,-1.565707 A 2.0985813,2.0985813 62.943724 0 1 43.525808,12.370961 L 44.255884,8.7205821 A 2.1627851,2.1627851 62.257692 0 0 42.987299,6.3086139 l -3.774598,-1.61822 A 2.0079546,2.0079546 162.05678 0 0 36.698698,5.5044892 L 36.058034,6.5746169 A 2.9308532,2.9308532 150.45406 0 1 33.543385,8 h -3.09224 A 2.9274163,2.9274163 29.574793 0 1 27.937932,6.5737583 L 27.575886,5.9676343 C 26.926462,4.8803919 25.468252,4.4304761 24.305987,4.9333724 Z"
     id="path2"
     inkscape:path-effect="#path-effect1"
     inkscape:original-d="M 26.4,3.9990078 C 24.10047,5.06258 21.735739,6.0108903 19.4,7 l 1.4,7 -6.444922,2.947657 L 11,14 4,21 8,25.333984 v 14.51133 -1.118362 4.66758 C 8,43.394532 12,56 32,56 52,56 56,43.394532 56,43.394532 v -4.66758 1.118362 -14.51133 L 60,21 53,14 49.644922,16.947657 43.2,14 44.6,7 37.6,3.9990078 35.204686,8 h -6.414842 z"
     sodipodi:nodetypes="ccccccccccsccccccccccccc" />
  <path
     style="opacity:0.43686505;filter:url(#filter20)"
     d="m 18.249981,24.405918 c 3.3144,0 6,2.6856 6,6 0,3.3144 -2.6856,6 -6,6 -3.3144,0 -6,-2.6856 -6,-6 0,-3.3144 2.6856,-6 6,-6 z"
     id="path3" />
  <path
     style="fill:#ffffff"
     d="m18 24c3.3144 0 6 2.6856 6 6s-2.6856 6-6 6-6-2.6856-6-6 2.6856-6 6-6z"
     id="path4" />
  <path
     style="opacity:0.49468947;filter:url(#filter23)"
     d="m32 29c1.108 0 2 0.892 2 2v4c0 1.108-0.892 2-2 2s-2-0.892-2-2v-4c0-1.108 0.892-2 2-2z"
     id="path6" />
  <path
     style="fill:#ffffff"
     d="m32 28c1.108 0 2 0.892 2 2v4c0 1.108-0.892 2-2 2s-2-0.892-2-2v-4c0-1.108 0.892-2 2-2z"
     id="path7" />
  <path
     style="opacity:0.43686505;filter:url(#filter19)"
     d="m 46.249981,24.405918 c 3.3144,0 6,2.6856 6,6 0,3.3144 -2.6856,6 -6,6 -3.3144,0 -6,-2.6856 -6,-6 0,-3.3144 2.6856,-6 6,-6 z"
     id="path8" />
  <path
     style="fill:#ffffff"
     d="m46 24c3.3144 0 6 2.6856 6 6s-2.6856 6-6 6-6-2.6856-6-6 2.6856-6 6-6z"
     id="path9" />
  <path
     style="fill:url(#radialGradient16)"
     d="m49 30a3 3 0 1 1 -6 0 3 3 0 1 1 6 0z"
     id="path10" />
  <path
     style="fill:url(#radialGradient16-3)"
     d="m 20.761642,30 a 3,3 0 1 1 -6,0 3,3 0 1 1 6,0 z"
     id="path10-5" />
  <path
     style="opacity:0.2;fill:none;stroke:#000000;stroke-width:2;stroke-linejoin:round;filter:url(#filter22)"
     d="m 56,42 -9,0 0,4 -10,0 0,-4.0007 -5,0 M 8,42 l 9,0 0,4 10,0 0,-4.0007 5,0"
     id="path11" />
  <path
     style="fill:none;stroke:#ffffff;stroke-width:2;stroke-linejoin:round"
     d="M 56,41 H 49.016382 A 2.016382,2.016382 135 0 0 47,43.016382 2.0000671,2.0000671 135.4693 0 1 44.983618,45 H 39.016382 A 2.016382,2.016382 45 0 1 37,42.983618 2.0004142,2.0004142 44.540807 0 0 34.983618,40.9993 L 32,40.9993 M 8,41 h 6.983618 A 2.016382,2.016382 45 0 1 17,43.016382 2.0000671,2.0000671 44.530701 0 0 19.016382,45 h 5.967236 A 2.016382,2.016382 135 0 0 27,42.983618 2.0004142,2.0004142 135.45919 0 1 29.016382,40.9993 l 2.983618,0"
     id="path12"
     inkscape:path-effect="#path-effect2"
     inkscape:original-d="m 56,41 -9,0 0,4 -10,0 0,-4.0007 -5,0 M 8,41 l 9,0 0,4 10,0 0,-4.0007 5,0" />
</svg>
