<?xml version="1.0" encoding="UTF-8" standalone="no"?>
<svg
   width="64"
   height="64"
   version="1"
   id="svg5"
   sodipodi:docname="google-docs.svg"
   inkscape:version="1.3.2 (091e20ef0f, 2023-11-25, custom)"
   xmlns:inkscape="http://www.inkscape.org/namespaces/inkscape"
   xmlns:sodipodi="http://sodipodi.sourceforge.net/DTD/sodipodi-0.dtd"
   xmlns:xlink="http://www.w3.org/1999/xlink"
   xmlns="http://www.w3.org/2000/svg"
   xmlns:svg="http://www.w3.org/2000/svg">
  <defs
     id="defs5">
    <linearGradient
       id="linearGradient5"
       inkscape:collect="always">
      <stop
         style="stop-color:#2da5ff;stop-opacity:1;"
         offset="0"
         id="stop5" />
      <stop
         style="stop-color:#1b6bf6;stop-opacity:1;"
         offset="1"
         id="stop6" />
    </linearGradient>
    <radialGradient
       inkscape:collect="always"
       xlink:href="#linearGradient5"
       id="radialGradient6"
       cx="16.956192"
       cy="47.933014"
       fx="16.956192"
       fy="47.933014"
       r="20"
       gradientTransform="matrix(3.2465607,-1.8744027,2.3430034,4.0582009,-150.40033,-110.8228)"
       gradientUnits="userSpaceOnUse" />
  </defs>
  <sodipodi:namedview
     id="namedview5"
     pagecolor="#ffffff"
     bordercolor="#000000"
     borderopacity="0.25"
     inkscape:showpageshadow="2"
     inkscape:pageopacity="0.0"
     inkscape:pagecheckerboard="0"
     inkscape:deskcolor="#d1d1d1"
     inkscape:zoom="12.890625"
     inkscape:cx="32"
     inkscape:cy="32"
     inkscape:window-width="1920"
     inkscape:window-height="1012"
     inkscape:window-x="0"
     inkscape:window-y="0"
     inkscape:window-maximized="1"
     inkscape:current-layer="svg5" />
  <path
     fill="#528ff5"
     d="M 14.5,7 C 13.115,7 12,8.115 12,9.5 v 45 c 0,1.385 1.115,2.5 2.5,2.5 h 35 C 50.885,57 52,55.885 52,54.5 V 22 L 37,7 Z"
     id="path2"
     style="fill:url(#radialGradient6)"
     sodipodi:nodetypes="ssssssccs" />
  <path
     fill="#a5c5f9"
     d="m37 7v12.5c0 1.3808 1.1193 2.5 2.5 2.5h12.5l-15-15z"
     id="path4"
     style="fill:#00c8ff;fill-opacity:1;opacity:0.78865628" />
  <path
     fill="#fff"
     d="m21 29v3h22v-3h-22zm0 6v3h22v-3h-22zm0 6v3h22v-3h-22zm0 6v3h16v-3h-16z"
     id="path5" />
</svg>
