<?xml version="1.0" encoding="UTF-8" standalone="no"?>
<svg
   width="64"
   height="64"
   version="1"
   id="svg13"
   sodipodi:docname="gparted.svg"
   inkscape:version="1.3.2 (091e20ef0f, 2023-11-25, custom)"
   xmlns:inkscape="http://www.inkscape.org/namespaces/inkscape"
   xmlns:sodipodi="http://sodipodi.sourceforge.net/DTD/sodipodi-0.dtd"
   xmlns:xlink="http://www.w3.org/1999/xlink"
   xmlns="http://www.w3.org/2000/svg"
   xmlns:svg="http://www.w3.org/2000/svg">
  <defs
     id="defs13">
    <linearGradient
       id="linearGradient47"
       inkscape:collect="always">
      <stop
         style="stop-color:#636363;stop-opacity:1;"
         offset="0"
         id="stop48" />
      <stop
         style="stop-color:#404040;stop-opacity:1;"
         offset="1"
         id="stop49" />
    </linearGradient>
    <linearGradient
       id="linearGradient45"
       inkscape:collect="always">
      <stop
         style="stop-color:#00c0ff;stop-opacity:1;"
         offset="0"
         id="stop45" />
      <stop
         style="stop-color:#00a0ff;stop-opacity:1;"
         offset="1"
         id="stop47" />
    </linearGradient>
    <linearGradient
       id="linearGradient35"
       inkscape:collect="always">
      <stop
         style="stop-color:#ffffff;stop-opacity:1;"
         offset="0"
         id="stop36" />
      <stop
         style="stop-color:#ffffff;stop-opacity:0;"
         offset="1"
         id="stop37" />
    </linearGradient>
    <linearGradient
       id="linearGradient33"
       inkscape:collect="always">
      <stop
         style="stop-color:#aeaeae;stop-opacity:1;"
         offset="0"
         id="stop34" />
      <stop
         style="stop-color:#d4d4d4;stop-opacity:1;"
         offset="1"
         id="stop35" />
    </linearGradient>
    <linearGradient
       id="linearGradient32"
       inkscape:collect="always">
      <stop
         style="stop-color:#211302;stop-opacity:1;"
         offset="0"
         id="stop32" />
      <stop
         style="stop-color:#211302;stop-opacity:0.9286136;"
         offset="1"
         id="stop33" />
    </linearGradient>
    <linearGradient
       id="linearGradient26"
       inkscape:collect="always">
      <stop
         style="stop-color:#000000;stop-opacity:1;"
         offset="0"
         id="stop26" />
      <stop
         style="stop-color:#ffffff;stop-opacity:1;"
         offset="1"
         id="stop27" />
    </linearGradient>
    <filter
       inkscape:collect="always"
       style="color-interpolation-filters:sRGB"
       id="filter26-5"
       x="-0.027919809"
       y="-0.027906442"
       width="1.0560397"
       height="1.0558199">
      <feGaussianBlur
         inkscape:collect="always"
         stdDeviation="0.32654014"
         id="feGaussianBlur26-6" />
    </filter>
    <radialGradient
       inkscape:collect="always"
       xlink:href="#linearGradient32"
       id="radialGradient33"
       cx="6.9575548"
       cy="59.260612"
       fx="6.9575548"
       fy="59.260612"
       r="29"
       gradientUnits="userSpaceOnUse"
       gradientTransform="matrix(1.6224911,0.02072719,-0.01959326,1.5337273,-0.47508468,-34.706725)" />
    <radialGradient
       inkscape:collect="always"
       xlink:href="#linearGradient33"
       id="radialGradient35"
       cx="6.9575548"
       cy="59.260612"
       fx="6.9575548"
       fy="59.260612"
       r="29"
       gradientUnits="userSpaceOnUse"
       gradientTransform="matrix(1.6224911,0.02072719,-0.01959326,1.5337273,-0.47508468,-34.706725)" />
    <clipPath
       clipPathUnits="userSpaceOnUse"
       id="clipPath29">
      <g
         id="g30"
         transform="translate(0.44302988,0.22065472)">
        <g
           inkscape:label="Clip"
           id="use29"
           style="fill:url(#radialGradient45)"
           transform="translate(-0.44302988,-0.22065472)"
           clip-path="url(#clipPath29)">
          <g
             id="g33"
             transform="translate(-0.15168341,0.07970481)"
             style="opacity:0.516713;mix-blend-mode:normal;fill:url(#radialGradient43);fill-opacity:1;stroke:url(#radialGradient44);filter:url(#filter26-5)">
            <path
               style="fill:url(#radialGradient34);fill-opacity:1;stroke:url(#radialGradient36)"
               d="M 9,32 A 23,23 0 0 0 32,55 V 41 a 9,9 0 0 1 -9,-9 z m 45.929688,0 a 23,23 0 0 1 0.03906,0.832032 A 23,23 0 0 0 55,32 Z"
               id="path30" />
            <path
               style="fill:url(#radialGradient37);fill-opacity:1;stroke:url(#radialGradient38)"
               d="M 15.582031,15.917969 C 11.368473,20.211268 9.0073928,25.984482 9,32 h 14 a 9,9 0 0 1 2.480468,-6.1875 z"
               id="path31" />
            <path
               style="opacity:1;fill:url(#radialGradient39);fill-opacity:1;stroke:url(#radialGradient40)"
               d="M 38.191406,38.527344 A 9,9 0 0 1 32,41 v 14 c 6.160188,-0.004 11.881662,-2.46651 16.082032,-6.582032 z"
               id="path32" />
            <path
               style="fill:url(#radialGradient41);fill-opacity:1;stroke:url(#radialGradient42)"
               d="M 32,9 A 23,23 0 0 0 15.582031,15.917969 L 25.480468,25.8125 A 9,9 0 0 1 32,23 a 9,9 0 0 1 9,9 9,9 0 0 1 -2.808594,6.527344 l 9.902344,9.898438 A 23,23 0 0 0 55,32 23,23 0 0 0 32,9 Z"
               id="path33" />
          </g>
        </g>
      </g>
    </clipPath>
    <radialGradient
       inkscape:collect="always"
       xlink:href="#linearGradient35"
       id="radialGradient34"
       gradientUnits="userSpaceOnUse"
       cx="31.848317"
       cy="32.079705"
       fx="31.848317"
       fy="32.079705"
       r="23" />
    <radialGradient
       inkscape:collect="always"
       xlink:href="#linearGradient26"
       id="radialGradient36"
       gradientUnits="userSpaceOnUse"
       cx="32.000002"
       cy="32.000002"
       fx="32.000002"
       fy="32.000002"
       r="23.783698" />
    <radialGradient
       inkscape:collect="always"
       xlink:href="#linearGradient35"
       id="radialGradient37"
       gradientUnits="userSpaceOnUse"
       cx="31.848317"
       cy="32.079705"
       fx="31.848317"
       fy="32.079705"
       r="23" />
    <radialGradient
       inkscape:collect="always"
       xlink:href="#linearGradient26"
       id="radialGradient38"
       gradientUnits="userSpaceOnUse"
       cx="32.000002"
       cy="32.000002"
       fx="32.000002"
       fy="32.000002"
       r="23.783698" />
    <radialGradient
       inkscape:collect="always"
       xlink:href="#linearGradient35"
       id="radialGradient39"
       gradientUnits="userSpaceOnUse"
       cx="31.848317"
       cy="32.079705"
       fx="31.848317"
       fy="32.079705"
       r="23" />
    <radialGradient
       inkscape:collect="always"
       xlink:href="#linearGradient26"
       id="radialGradient40"
       gradientUnits="userSpaceOnUse"
       cx="32.000002"
       cy="32.000002"
       fx="32.000002"
       fy="32.000002"
       r="23.783698" />
    <radialGradient
       inkscape:collect="always"
       xlink:href="#linearGradient35"
       id="radialGradient41"
       gradientUnits="userSpaceOnUse"
       cx="31.848317"
       cy="32.079705"
       fx="31.848317"
       fy="32.079705"
       r="23" />
    <radialGradient
       inkscape:collect="always"
       xlink:href="#linearGradient26"
       id="radialGradient42"
       gradientUnits="userSpaceOnUse"
       cx="32.000002"
       cy="32.000002"
       fx="32.000002"
       fy="32.000002"
       r="23.783698" />
    <radialGradient
       inkscape:collect="always"
       xlink:href="#linearGradient35"
       id="radialGradient43"
       gradientUnits="userSpaceOnUse"
       cx="31.848317"
       cy="32.079705"
       fx="31.848317"
       fy="32.079705"
       r="23" />
    <radialGradient
       inkscape:collect="always"
       xlink:href="#linearGradient26"
       id="radialGradient44"
       gradientUnits="userSpaceOnUse"
       cx="32.000002"
       cy="32.000002"
       fx="32.000002"
       fy="32.000002"
       r="23.783698" />
    <radialGradient
       inkscape:collect="always"
       xlink:href="#linearGradient35"
       id="radialGradient45"
       gradientUnits="userSpaceOnUse"
       cx="31.848317"
       cy="32.079705"
       fx="31.848317"
       fy="32.079705"
       r="23" />
    <radialGradient
       inkscape:collect="always"
       xlink:href="#linearGradient45"
       id="radialGradient46"
       cx="17.200857"
       cy="26.137146"
       fx="17.200857"
       fy="26.137146"
       r="21.401307"
       gradientUnits="userSpaceOnUse"
       gradientTransform="matrix(2.7399669,-1.5819207,1.5365242,2.661338,-78.236097,-6.4705572)" />
    <filter
       inkscape:collect="always"
       style="color-interpolation-filters:sRGB"
       id="filter47"
       x="-0.093458622"
       y="-0.093458622"
       width="1.1869172"
       height="1.1869172">
      <feGaussianBlur
         inkscape:collect="always"
         stdDeviation="1.5811675"
         id="feGaussianBlur47" />
    </filter>
    <radialGradient
       inkscape:collect="always"
       xlink:href="#linearGradient47"
       id="radialGradient49"
       cx="32"
       cy="32"
       fx="32"
       fy="32"
       r="3"
       gradientUnits="userSpaceOnUse"
       gradientTransform="matrix(0.8923899,0,0,0.8923899,3.4435234,3.4435234)" />
    <radialGradient
       inkscape:collect="always"
       xlink:href="#linearGradient47"
       id="radialGradient51"
       cx="5.4970827"
       cy="59.413132"
       fx="5.4970827"
       fy="59.413132"
       r="10"
       gradientUnits="userSpaceOnUse"
       gradientTransform="matrix(1.9041312,-1.0993507,1.0993507,1.9041312,-65.932711,-52.022191)" />
    <filter
       inkscape:collect="always"
       style="color-interpolation-filters:sRGB"
       id="filter51"
       x="-0.11597683"
       y="-0.11597683"
       width="1.2319537"
       height="1.2319537">
      <feGaussianBlur
         inkscape:collect="always"
         stdDeviation="2.7402734"
         id="feGaussianBlur51" />
    </filter>
    <filter
       inkscape:collect="always"
       style="color-interpolation-filters:sRGB"
       id="filter1"
       x="-0.086634133"
       y="-0.086634136"
       width="1.1732683"
       height="1.1732683">
      <feGaussianBlur
         inkscape:collect="always"
         stdDeviation="0.67526003"
         id="feGaussianBlur1" />
    </filter>
  </defs>
  <sodipodi:namedview
     id="namedview13"
     pagecolor="#ffffff"
     bordercolor="#000000"
     borderopacity="0.25"
     inkscape:showpageshadow="2"
     inkscape:pageopacity="0.0"
     inkscape:pagecheckerboard="0"
     inkscape:deskcolor="#d1d1d1"
     inkscape:zoom="9.8111066"
     inkscape:cx="30.017001"
     inkscape:cy="36.693109"
     inkscape:window-width="1920"
     inkscape:window-height="1020"
     inkscape:window-x="0"
     inkscape:window-y="0"
     inkscape:window-maximized="1"
     inkscape:current-layer="svg13" />
  <path
     style="fill:url(#radialGradient35);fill-opacity:1;stroke:url(#radialGradient33);stroke-width:0;stroke-dasharray:none"
     d="M 32,6.1206929 A 25.879307,25.879307 0 0 0 6.1206931,32 v 21.997412 c 0,2.15057 1.7313256,3.881895 3.8818959,3.881895 H 32 A 25.879307,25.879307 0 0 0 57.879307,32 25.879307,25.879307 0 0 0 32,6.1206929 Z"
     id="path2" />
  <path
     style="mix-blend-mode:normal;fill:none;fill-opacity:1;stroke:#000000;stroke-width:0.3;stroke-dasharray:none;stroke-opacity:1;filter:url(#filter51)"
     d="M 32,3 A 29,29 0 0 0 3,32 V 56.65 C 3,59.0599 4.9401,61 7.35,61 H 32 A 29,29 0 0 0 61,32 29,29 0 0 0 32,3 Z"
     id="path2-7"
     transform="matrix(0.8923899,0,0,0.8923899,3.4435234,3.4435234)" />
  <path
     id="path45-3"
     style="fill:url(#radialGradient46);fill-opacity:1;fill-rule:evenodd;stroke:none;stroke-width:0.356956;stroke-linejoin:bevel;paint-order:markers fill stroke"
     d="M 40.578206,32 A 8.5782054,8.5782054 0 0 1 32,40.578206 8.5782054,8.5782054 0 0 1 23.421795,32 8.5782054,8.5782054 0 0 1 32,23.421795 8.5782054,8.5782054 0 0 1 40.578206,32 Z m 10.341626,0 A 18.919832,18.919832 0 0 1 32,50.919832 18.919832,18.919832 0 0 1 13.080168,32 18.919832,18.919832 0 0 1 32,13.080168 18.919832,18.919832 0 0 1 50.919832,32 Z" />
  <path
     id="path45-3-3"
     style="fill:none;fill-opacity:1;fill-rule:evenodd;stroke:#1800ff;stroke-width:0.33617592;stroke-linejoin:bevel;stroke-opacity:1;paint-order:markers fill stroke;filter:url(#filter47);stroke-dasharray:none"
     d="M 41.61262,32 A 9.6126204,9.6126204 0 0 1 32,41.61262 9.6126204,9.6126204 0 0 1 22.38738,32 9.6126204,9.6126204 0 0 1 32,22.38738 9.6126204,9.6126204 0 0 1 41.61262,32 Z m 11.588687,0 A 21.201307,21.201307 0 0 1 32,53.201307 21.201307,21.201307 0 0 1 10.798693,32 21.201307,21.201307 0 0 1 32,10.798693 21.201307,21.201307 0 0 1 53.201307,32 Z"
     transform="matrix(0.8923899,0,0,0.8923899,3.4435234,3.4435234)" />
  <circle
     style="fill:url(#radialGradient49);stroke-width:0.89239"
     cx="32"
     cy="32"
     r="2.6771696"
     id="circle11" />
  <path
     style="fill:url(#radialGradient51);stroke-width:0.89239"
     d="M 13.661754,55.121327 25.205646,40.469229 c 0.164833,-0.196028 0.264106,-0.44751 0.264106,-0.721943 0,-0.614846 -0.499181,-1.113992 -1.115428,-1.113992 -0.274408,0 -0.526339,0.09752 -0.721144,0.263915 L 8.9818216,50.442562 a 3.2498224,3.3180698 0 0 0 -1.3598671,2.69175 c 0,1.850276 1.4984769,3.346755 3.3472235,3.346755 a 3.3622079,3.4328157 0 0 0 2.692576,-1.35974 z"
     id="path12" />
  <path
     style="fill:none;stroke:#000000;stroke-width:0.22411728;stroke-dasharray:none;stroke-opacity:1;filter:url(#filter1)"
     d="M 11.471432,57.987189 24.407361,41.568247 c 0.18471,-0.219666 0.295954,-0.501474 0.295954,-0.809 0,-0.688988 -0.559376,-1.248324 -1.249934,-1.248324 -0.307498,0 -0.589808,0.10928 -0.808104,0.29574 L 6.2271637,52.744229 a 3.6417068,3.718184 0 0 0 -1.5238486,3.016338 c 0,2.073394 1.6791728,3.750328 3.750853,3.750328 a 3.7676446,3.8467666 0 0 0 3.0172639,-1.523706 z"
     id="path12-6"
     transform="matrix(0.8923899,0,0,0.8923899,3.4435234,3.4435234)" />
</svg>
