<?xml version="1.0" encoding="UTF-8" standalone="no"?>
<svg
   width="64"
   height="64"
   version="1"
   id="svg7"
   sodipodi:docname="grub-customizer.svg"
   inkscape:version="1.3.2 (091e20ef0f, 2023-11-25, custom)"
   xmlns:inkscape="http://www.inkscape.org/namespaces/inkscape"
   xmlns:sodipodi="http://sodipodi.sourceforge.net/DTD/sodipodi-0.dtd"
   xmlns:xlink="http://www.w3.org/1999/xlink"
   xmlns="http://www.w3.org/2000/svg"
   xmlns:svg="http://www.w3.org/2000/svg">
  <defs
     id="defs7">
    <radialGradient
       inkscape:collect="always"
       xlink:href="#linearGradient8"
       id="radialGradient10"
       cx="21.464426"
       cy="32.001804"
       fx="21.464426"
       fy="32.001804"
       r="10.4209"
       gradientTransform="matrix(3.7668014,0,0,3.8065883,-65.903632,-89.88061)"
       gradientUnits="userSpaceOnUse" />
    <linearGradient
       id="linearGradient8"
       inkscape:collect="always">
      <stop
         style="stop-color:#ffffff;stop-opacity:1;"
         offset="0"
         id="stop9" />
      <stop
         style="stop-color:#ffeb87;stop-opacity:1;"
         offset="1"
         id="stop10" />
    </linearGradient>
    <filter
       inkscape:collect="always"
       style="color-interpolation-filters:sRGB"
       id="filter8"
       x="-0.11962895"
       y="-0.11637373"
       width="1.2392577"
       height="1.2327475">
      <feGaussianBlur
         inkscape:collect="always"
         stdDeviation="2.4423916"
         id="feGaussianBlur8" />
    </filter>
    <radialGradient
       inkscape:collect="always"
       xlink:href="#linearGradient7"
       id="radialGradient8"
       cx="5.3474832"
       cy="5.6289272"
       fx="5.3474832"
       fy="5.6289272"
       r="27.250219"
       gradientTransform="matrix(0.59608635,2.2246245,-2.2858562,0.61249333,17.093246,-8.3398422)"
       gradientUnits="userSpaceOnUse" />
    <linearGradient
       id="linearGradient7"
       inkscape:collect="always">
      <stop
         style="stop-color:#00ff87;stop-opacity:1;"
         offset="0"
         id="stop7" />
      <stop
         style="stop-color:#34be70;stop-opacity:1;"
         offset="1"
         id="stop8" />
    </linearGradient>
  </defs>
  <sodipodi:namedview
     id="namedview7"
     pagecolor="#ffffff"
     bordercolor="#000000"
     borderopacity="0.25"
     inkscape:showpageshadow="2"
     inkscape:pageopacity="0.0"
     inkscape:pagecheckerboard="0"
     inkscape:deskcolor="#d1d1d1"
     inkscape:zoom="13.1875"
     inkscape:cx="31.962085"
     inkscape:cy="32"
     inkscape:window-width="1920"
     inkscape:window-height="1020"
     inkscape:window-x="0"
     inkscape:window-y="0"
     inkscape:window-maximized="1"
     inkscape:current-layer="svg7" />
  <g
     id="g1"
     transform="translate(9.3194452e-6,-6.2597183e-4)">
    <path
       id="path2"
       style="fill:url(#radialGradient8);stroke-width:0.922468"
       d="m 26.712891,6.171875 v 0.00195 c -0.54758,0.05959 -1.030775,0.5071887 -1.13086,1.0488281 L 24.492188,12.75195 c -1.956131,0.764999 -3.793084,1.815966 -5.40625,3.107422 L 13.71875,14.042969 c -0.557892,-0.192237 -1.233594,0.05619 -1.533203,0.564453 l -5.1660158,8.958984 c -0.2909749,0.515277 -0.1674626,1.229358 0.28125,1.615235 l 4.2792968,3.751953 c -0.150542,1.006328 -0.242187,2.020096 -0.242187,3.068359 0,1.048299 0.09156,2.060022 0.242187,3.066406 l -4.2792968,3.753907 c -0.4486572,0.385876 -0.5722249,1.098004 -0.28125,1.613281 l 5.1660158,8.958984 c 0.29959,0.508081 0.975588,0.75868 1.533203,0.566407 l 5.367188,-1.816407 c 1.613185,1.291364 3.452072,2.342349 5.408203,3.107422 l 1.089843,5.529297 c 0.110509,0.578739 0.660874,1.040803 1.25,1.048828 h 10.332032 c 0.589126,-0.0074 1.139547,-0.470089 1.25,-1.048828 l 1.089843,-5.529297 c 1.95613,-0.764999 3.795037,-1.815984 5.408203,-3.107422 l 5.367188,1.816407 c 0.557598,0.192273 1.233612,-0.05825 1.533203,-0.566407 l 5.166016,-8.958984 c 0.290956,-0.515277 0.165509,-1.227405 -0.283203,-1.613281 l -4.277344,-3.753907 c 0.150543,-1.006329 0.242187,-2.017959 0.242187,-3.066406 0,-1.0483 -0.09175,-2.061976 -0.242187,-3.068359 l 4.277344,-3.751953 c 0.448657,-0.385877 0.574159,-1.099958 0.283203,-1.615235 L 51.814453,14.607422 C 51.515582,14.098603 50.838405,13.848778 50.28125,14.041016 l -5.367188,1.816406 C 43.299789,14.565081 41.461435,13.515073 39.505859,12.75 L 38.416016,7.2207031 C 38.305324,6.6419632 37.754534,6.179808 37.166016,6.171875 H 26.833984 c -0.0404,-9.409e-4 -0.08088,-9.409e-4 -0.121093,0 z M 32,20.931641 c 6.11339,0 11.070312,4.954969 11.070312,11.068359 0,6.113391 -4.956922,11.070313 -11.070312,11.070312 -6.113391,0 -11.068359,-4.956921 -11.068359,-11.070312 0,-6.11339 4.954968,-11.068359 11.068359,-11.068359 z" />
    <path
       id="path2-5"
       style="fill:none;stroke:#000000;stroke-width:0.3;stroke-dasharray:none;stroke-opacity:1;filter:url(#filter8)"
       d="m 26.712891,6.171875 v 0.00195 c -0.54758,0.05959 -1.028822,0.5071887 -1.128907,1.0488281 L 24.494141,12.75195 c -1.95613,0.764999 -3.795037,1.815966 -5.408203,3.107422 L 13.71875,14.042969 c -0.557892,-0.192237 -1.233594,0.05619 -1.533203,0.564453 l -5.1660158,8.958984 c -0.2909747,0.515277 -0.1655094,1.229358 0.2832032,1.615235 l 4.2773436,3.751953 c -0.150542,1.006328 -0.242187,2.020096 -0.242187,3.068359 0,1.048299 0.09156,2.060022 0.242187,3.066406 L 7.3027344,38.822266 C 6.8540778,39.208142 6.7285565,39.92027 7.0195312,40.435547 l 5.1660158,8.958984 c 0.29959,0.508081 0.975588,0.756727 1.533203,0.564453 l 5.367188,-1.814453 c 1.613185,1.291364 3.452072,2.342349 5.408203,3.107422 l 1.089843,5.527344 c 0.110509,0.578739 0.660874,1.042756 1.25,1.050781 h 10.332032 c 0.589126,-0.0074 1.139547,-0.472042 1.25,-1.050781 l 1.089843,-5.527344 c 1.95613,-0.764999 3.795037,-1.815984 5.408203,-3.107422 l 5.367188,1.814453 c 0.557598,0.192274 1.233612,-0.0563 1.533203,-0.564453 l 5.166016,-8.958984 c 0.290956,-0.515277 0.165509,-1.227405 -0.283203,-1.613281 l -4.277344,-3.753907 c 0.150543,-1.006329 0.242187,-2.017959 0.242187,-3.066406 0,-1.0483 -0.09175,-2.061976 -0.242187,-3.068359 l 4.277344,-3.751953 c 0.448657,-0.385877 0.574159,-1.099958 0.283203,-1.615235 L 51.814453,14.607422 C 51.515582,14.098603 50.838405,13.848778 50.28125,14.041016 l -5.367188,1.816406 C 43.299789,14.565081 41.463389,13.515073 39.507812,12.75 L 38.416016,7.2207031 C 38.305324,6.6419632 37.754534,6.179808 37.166016,6.171875 H 26.833984 c -0.0404,-9.409e-4 -0.08088,-9.409e-4 -0.121093,0 z M 32,20.931641 c 6.11339,0 11.068359,4.954968 11.068359,11.068359 C 43.068359,38.11339 38.11339,43.068359 32,43.068359 25.886609,43.068359 20.931641,38.11339 20.931641,32 20.931641,25.886609 25.886609,20.931641 32,20.931641 Z" />
    <path
       style="opacity:0.2;stroke-width:0.922468"
       d="m 32.000192,15.396615 c -9.158565,0 -16.603969,7.445404 -16.603969,16.603968 0,9.158565 7.445404,16.603969 16.603969,16.603969 9.158564,0 16.603968,-7.445404 16.603968,-16.603969 0,-9.158564 -7.445404,-16.603968 -16.603968,-16.603968 z m 0,1.953365 c 8.102921,0 14.650604,6.547682 14.650604,14.650603 0,8.102922 -6.547683,14.650604 -14.650604,14.650604 -8.102737,0 -14.650604,-6.547498 -14.650604,-14.650235 0,-8.102736 6.547867,-14.650603 14.650604,-14.650603 z"
       id="path5" />
    <path
       style="fill:url(#radialGradient10);fill-opacity:1;stroke-width:0.922468"
       d="m 30.295518,15.484246 c -8.359545,0.856083 -14.898557,7.933008 -14.898557,16.516153 0,9.158565 7.445404,16.603969 16.603969,16.603969 1.374034,0 2.701834,-0.185891 3.979233,-0.501698 0.11822,-0.27332 0.326785,-0.737734 0.236588,-1.102688 -0.0833,-0.337006 -0.358775,-0.623978 -0.667701,-0.799242 -1.136891,0.282268 -2.321604,0.450263 -3.547345,0.450263 -8.102737,0 -14.650604,-6.547867 -14.650604,-14.650604 0,-7.725642 5.956028,-14.021499 13.532234,-14.592859 0.293005,-0.316933 0.404344,-0.6582 0.349643,-1.104939 -0.05664,-0.45993 -0.41021,-0.709377 -0.936649,-0.818373 z"
       id="path6" />
  </g>
</svg>
