<?xml version="1.0" encoding="UTF-8" standalone="no"?>
<svg
   width="64"
   height="64"
   version="1"
   id="svg4"
   sodipodi:docname="application-vnd.ms-htmlhelp.svg"
   inkscape:version="1.3.2 (091e20ef0f, 2023-11-25, custom)"
   xmlns:inkscape="http://www.inkscape.org/namespaces/inkscape"
   xmlns:sodipodi="http://sodipodi.sourceforge.net/DTD/sodipodi-0.dtd"
   xmlns:xlink="http://www.w3.org/1999/xlink"
   xmlns="http://www.w3.org/2000/svg"
   xmlns:svg="http://www.w3.org/2000/svg">
  <defs
     id="defs4">
    <inkscape:path-effect
       effect="fillet_chamfer"
       id="path-effect6"
       is_visible="true"
       lpeversion="1"
       nodesatellites_param="F,0,0,1,0,0,0,1 @ F,0,1,1,0,2.9908216,0,1 @ F,0,1,1,0,2.9908216,0,1 @ F,0,0,1,0,0,0,1 @ F,0,0,1,0,0,0,1 @ F,0,0,1,0,0,0,1 @ F,0,0,1,0,0,0,1 @ F,0,1,1,0,2.9908216,0,1 @ F,0,0,1,0,2.9908216,0,1 @ F,0,0,1,0,0,0,1 @ F,0,0,1,0,0,0,1 @ F,0,0,1,0,0,0,1 | F,0,1,1,0,2.9908216,0,1 @ F,0,1,1,0,2.9908216,0,1 @ F,0,1,1,0,2.9908216,0,1 @ F,0,1,1,0,2.9908216,0,1"
       radius="0"
       unit="px"
       method="auto"
       mode="F"
       chamfer_steps="1"
       flexible="false"
       use_knot_distance="true"
       apply_no_radius="true"
       apply_with_radius="true"
       only_selected="false"
       hide_knots="false" />
    <linearGradient
       id="linearGradient5"
       inkscape:collect="always">
      <stop
         style="stop-color:#32aced;stop-opacity:1;"
         offset="0"
         id="stop5" />
      <stop
         style="stop-color:#4346ce;stop-opacity:1;"
         offset="1"
         id="stop6" />
    </linearGradient>
    <filter
       inkscape:collect="always"
       style="color-interpolation-filters:sRGB"
       id="filter5"
       x="-0.018040432"
       y="-0.018040432"
       width="1.0360809"
       height="1.0360809">
      <feGaussianBlur
         inkscape:collect="always"
         stdDeviation="0.45101079"
         id="feGaussianBlur5" />
    </filter>
    <radialGradient
       inkscape:collect="always"
       xlink:href="#linearGradient5"
       id="radialGradient6"
       cx="-51.6208"
       cy="-12.859657"
       fx="-51.6208"
       fy="-12.859657"
       r="30"
       gradientUnits="userSpaceOnUse"
       gradientTransform="matrix(1.8383117,1.0613498,-1.0613498,1.8383117,29.625727,65.568127)" />
    <inkscape:path-effect
       effect="fillet_chamfer"
       id="path-effect6-0"
       is_visible="true"
       lpeversion="1"
       nodesatellites_param="F,0,0,1,0,0,0,1 @ F,0,1,1,0,2.9908216,0,1 @ F,0,1,1,0,2.9908216,0,1 @ F,0,0,1,0,0,0,1 @ F,0,0,1,0,0,0,1 @ F,0,0,1,0,0,0,1 @ F,0,0,1,0,0,0,1 @ F,0,1,1,0,2.9908216,0,1 @ F,0,0,1,0,2.9908216,0,1 @ F,0,0,1,0,0,0,1 @ F,0,0,1,0,0,0,1 @ F,0,0,1,0,0,0,1 | F,0,1,1,0,2.9908216,0,1 @ F,0,1,1,0,2.9908216,0,1 @ F,0,1,1,0,2.9908216,0,1 @ F,0,1,1,0,2.9908216,0,1"
       radius="0"
       unit="px"
       method="auto"
       mode="F"
       chamfer_steps="1"
       flexible="false"
       use_knot_distance="true"
       apply_no_radius="true"
       apply_with_radius="true"
       only_selected="false"
       hide_knots="false" />
    <filter
       inkscape:collect="always"
       style="color-interpolation-filters:sRGB"
       id="filter7"
       x="-0.069584165"
       y="-0.040859939"
       width="1.1391683"
       height="1.0817199">
      <feGaussianBlur
         inkscape:collect="always"
         stdDeviation="0.68099899"
         id="feGaussianBlur7" />
    </filter>
  </defs>
  <sodipodi:namedview
     id="namedview4"
     pagecolor="#ffffff"
     bordercolor="#000000"
     borderopacity="0.25"
     inkscape:showpageshadow="2"
     inkscape:pageopacity="0.0"
     inkscape:pagecheckerboard="0"
     inkscape:deskcolor="#d1d1d1"
     inkscape:zoom="9.8221551"
     inkscape:cx="28.252455"
     inkscape:cy="42.302325"
     inkscape:window-width="1920"
     inkscape:window-height="1018"
     inkscape:window-x="0"
     inkscape:window-y="0"
     inkscape:window-maximized="1"
     inkscape:current-layer="svg4" />
  <rect
     style="opacity:0.444887;mix-blend-mode:normal;filter:url(#filter5)"
     width="60"
     height="60"
     x="-63"
     y="-62"
     rx="13.016074"
     ry="13.016074"
     transform="matrix(0,-1,-1,0,0,0)"
     id="rect1" />
  <rect
     style="fill:url(#radialGradient6)"
     width="60"
     height="60"
     x="-62"
     y="-62"
     rx="12.442132"
     ry="12.442132"
     transform="matrix(0,-1,-1,0,0,0)"
     id="rect2" />
  <path
     style="fill:#004d6a;fill-opacity:1;opacity:0.80603579;filter:url(#filter7)"
     d="M 31.999352,12 C 26.60243,12 21.85619,15.964617 20.491769,21.043759 20.064471,22.634402 21.437997,24 23.089783,24 c 1.551923,0 2.787642,-1.4289 3.584445,-2.855464 1.074342,-1.923457 3.133563,-3.343755 5.325124,-3.343755 3.19,0 6.100906,2.610781 6.100906,5.800781 0,1.595 -0.637937,3.041938 -1.710937,4.085938 l -3.597656,3.65625 c -1.927927,1.839944 -2.993662,4.17342 -3.438792,6.679918 C 29.064422,39.647916 30.43995,41 32.091736,41 c 1.605858,0 2.743431,-1.369761 3.115398,-2.973295 0.484868,-2.090242 1.702603,-3.527649 3.385316,-5.233736 L 41.201821,30.125 c 1.653,-1.653 2.699218,-3.971438 2.699218,-6.523438 C 43.901039,17.192563 38.408352,12 31.999352,12 Z m -3,36.990822 0,0.01836 A 2.9908216,2.9908216 45 0 0 31.990174,52 h 0.01836 a 2.9908216,2.9908216 135 0 0 2.990822,-2.990822 v -0.01836 A 2.9908216,2.9908216 45 0 0 32.00853,46 h -0.01836 a 2.9908216,2.9908216 135 0 0 -2.990822,2.990822 z"
     id="path3-3"
     inkscape:path-effect="#path-effect6-0"
     inkscape:original-d="m 31.999352,12 c -6.409,0 -11.900391,5.591 -11.900391,12 h 5.800781 c 0,-3.19 2.90961,-6.199219 6.09961,-6.199219 3.19,0 6.100906,2.610781 6.100906,5.800781 0,1.595 -0.637937,3.041938 -1.710937,4.085938 l -3.597656,3.65625 C 30.115864,33.897438 29.100914,37.401823 29.100914,41 h 5.898438 C 34.76927,37.073014 36.217896,35.200506 38.59245,32.792969 L 41.201821,30.125 c 1.653,-1.653 2.699218,-3.971438 2.699218,-6.523438 C 43.901039,17.192563 38.408352,12 31.999352,12 Z m -3,34 v 6 h 6 v -6 z"
     sodipodi:nodetypes="sccssccccccssccccc"
     transform="translate(0.08179916,0.39197395)" />
  <path
     style="fill:#ffffff"
     d="M 31.999352,12 C 26.60243,12 21.85619,15.964617 20.491769,21.043759 20.064471,22.634402 21.437997,24 23.089783,24 c 1.551923,0 2.787642,-1.4289 3.584445,-2.855464 1.074342,-1.923457 3.133563,-3.343755 5.325124,-3.343755 3.19,0 6.100906,2.610781 6.100906,5.800781 0,1.595 -0.637937,3.041938 -1.710937,4.085938 l -3.597656,3.65625 c -1.927927,1.839944 -2.993662,4.17342 -3.438792,6.679918 C 29.064422,39.647916 30.43995,41 32.091736,41 c 1.605858,0 2.743431,-1.369761 3.115398,-2.973295 0.484868,-2.090242 1.702603,-3.527649 3.385316,-5.233736 L 41.201821,30.125 c 1.653,-1.653 2.699218,-3.971438 2.699218,-6.523438 C 43.901039,17.192563 38.408352,12 31.999352,12 Z m -3,36.990822 0,0.01836 A 2.9908216,2.9908216 45 0 0 31.990174,52 h 0.01836 a 2.9908216,2.9908216 135 0 0 2.990822,-2.990822 v -0.01836 A 2.9908216,2.9908216 45 0 0 32.00853,46 h -0.01836 a 2.9908216,2.9908216 135 0 0 -2.990822,2.990822 z"
     id="path3"
     inkscape:path-effect="#path-effect6"
     inkscape:original-d="m 31.999352,12 c -6.409,0 -11.900391,5.591 -11.900391,12 h 5.800781 c 0,-3.19 2.90961,-6.199219 6.09961,-6.199219 3.19,0 6.100906,2.610781 6.100906,5.800781 0,1.595 -0.637937,3.041938 -1.710937,4.085938 l -3.597656,3.65625 C 30.115864,33.897438 29.100914,37.401823 29.100914,41 h 5.898438 C 34.76927,37.073014 36.217896,35.200506 38.59245,32.792969 L 41.201821,30.125 c 1.653,-1.653 2.699218,-3.971438 2.699218,-6.523438 C 43.901039,17.192563 38.408352,12 31.999352,12 Z m -3,34 v 6 h 6 v -6 z"
     sodipodi:nodetypes="sccssccccccssccccc" />
</svg>
