<?xml version="1.0" encoding="UTF-8" standalone="no"?>
<svg
   width="64"
   height="64"
   version="1"
   id="svg19"
   sodipodi:docname="ibus-keyboard.svg"
   inkscape:version="1.3.2 (091e20ef0f, 2023-11-25, custom)"
   xmlns:inkscape="http://www.inkscape.org/namespaces/inkscape"
   xmlns:sodipodi="http://sodipodi.sourceforge.net/DTD/sodipodi-0.dtd"
   xmlns:xlink="http://www.w3.org/1999/xlink"
   xmlns="http://www.w3.org/2000/svg"
   xmlns:svg="http://www.w3.org/2000/svg">
  <defs
     id="defs19">
    <linearGradient
       id="linearGradient20"
       inkscape:collect="always">
      <stop
         style="stop-color:#23cadb;stop-opacity:1;"
         offset="0"
         id="stop19" />
      <stop
         style="stop-color:#2262ca;stop-opacity:1;"
         offset="1"
         id="stop20" />
    </linearGradient>
    <filter
       inkscape:collect="always"
       style="color-interpolation-filters:sRGB"
       id="filter15"
       x="-0.027934462"
       y="-0.046557437"
       width="1.0558689"
       height="1.0931149">
      <feGaussianBlur
         inkscape:collect="always"
         stdDeviation="0.52377117"
         id="feGaussianBlur15" />
    </filter>
    <radialGradient
       inkscape:collect="always"
       xlink:href="#linearGradient15"
       id="radialGradient16"
       cx="5.4012794"
       cy="55.951233"
       fx="5.4012804"
       fy="55.951233"
       r="27.5"
       gradientTransform="matrix(2.8575095,-1.6497839,1.1698468,2.026234,-74.987294,-55.902791)"
       gradientUnits="userSpaceOnUse" />
    <linearGradient
       id="linearGradient15"
       inkscape:collect="always">
      <stop
         style="stop-color:#00e7ff;stop-opacity:1;"
         offset="0"
         id="stop15" />
      <stop
         style="stop-color:#0062ff;stop-opacity:1;"
         offset="1"
         id="stop16" />
    </linearGradient>
    <radialGradient
       inkscape:collect="always"
       xlink:href="#linearGradient20"
       id="radialGradient2"
       cx="5.401279"
       cy="55.951233"
       fx="5.401279"
       fy="55.951233"
       r="27.5"
       gradientTransform="matrix(2.8531689,-1.6472779,1.1680698,2.0231561,-74.864424,-55.744117)"
       gradientUnits="userSpaceOnUse" />
    <filter
       inkscape:collect="always"
       style="color-interpolation-filters:sRGB"
       id="filter14"
       x="-0.02341482"
       y="-0.0330209"
       width="1.0468296"
       height="1.0660418">
      <feGaussianBlur
         inkscape:collect="always"
         stdDeviation="0.53658965"
         id="feGaussianBlur14" />
    </filter>
  </defs>
  <sodipodi:namedview
     id="namedview19"
     pagecolor="#ffffff"
     bordercolor="#000000"
     borderopacity="0.25"
     inkscape:showpageshadow="2"
     inkscape:pageopacity="0.0"
     inkscape:pagecheckerboard="0"
     inkscape:deskcolor="#d1d1d1"
     inkscape:zoom="13.890625"
     inkscape:cx="32"
     inkscape:cy="32"
     inkscape:window-width="1920"
     inkscape:window-height="1018"
     inkscape:window-x="0"
     inkscape:window-y="0"
     inkscape:window-maximized="1"
     inkscape:current-layer="svg19" />
  <rect
     style="mix-blend-mode:normal;filter:url(#filter14)"
     width="55"
     height="39"
     x="4"
     y="13"
     rx="8.7653074"
     ry="8.7653074"
     id="rect1"
     transform="matrix(1.04692,0,0,1.04692,-0.97797828,-1.8064906)" />
  <rect
     style="fill:url(#radialGradient16);stroke:url(#radialGradient2);stroke-width:3.4;stroke-dasharray:none"
     width="55"
     height="39"
     x="4.5000024"
     y="11.71841"
     rx="7.8119979"
     ry="7.8119979"
     id="rect2" />
  <path
     style="opacity:0.185844;filter:url(#filter15)"
     d="m 10.750002,18.71841 c -0.6925,0 -1.2499997,0.5575 -1.2499997,1.25 v 2.5 c 0,0.6925 0.5574997,1.25 1.2499997,1.25 h 2.5 c 0.6925,0 1.25,-0.5575 1.25,-1.25 v -2.5 c 0,-0.6925 -0.5575,-1.25 -1.25,-1.25 z m 8,0 c -0.6925,0 -1.25,0.5575 -1.25,1.25 v 2.5 c 0,0.6925 0.5575,1.25 1.25,1.25 h 2.5 c 0.6925,0 1.25,-0.5575 1.25,-1.25 v -2.5 c 0,-0.6925 -0.5575,-1.25 -1.25,-1.25 z m 8,0 c -0.6925,0 -1.25,0.5575 -1.25,1.25 v 2.5 c 0,0.6925 0.5575,1.25 1.25,1.25 h 2.5 c 0.6925,0 1.25,-0.5575 1.25,-1.25 v -2.5 c 0,-0.6925 -0.5575,-1.25 -1.25,-1.25 z m 8,0 c -0.6925,0 -1.25,0.5575 -1.25,1.25 v 2.5 c 0,0.6925 0.5575,1.25 1.25,1.25 h 2.5 c 0.6925,0 1.25,-0.5575 1.25,-1.25 v -2.5 c 0,-0.6925 -0.5575,-1.25 -1.25,-1.25 z m 8,0 c -0.6925,0 -1.25,0.5575 -1.25,1.25 v 2.5 c 0,0.6925 0.5575,1.25 1.25,1.25 h 2.5 c 0.6925,0 1.25,-0.5575 1.25,-1.25 v -2.5 c 0,-0.6925 -0.5575,-1.25 -1.25,-1.25 z m 8,0 c -0.6925,0 -1.25,0.5575 -1.25,1.25 v 2.5 c 0,0.6925 0.5575,1.25 1.25,1.25 h 2.5 c 0.6925,0 1.25,-0.5575 1.25,-1.25 v -2.5 c 0,-0.6925 -0.5575,-1.25 -1.25,-1.25 z m -36,11 c -0.6925,0 -1.25,0.5575 -1.25,1.25 v 2.5 c 0,0.6925 0.5575,1.25 1.25,1.25 h 2.5 c 0.6925,0 1.25,-0.5575 1.25,-1.25 v -2.5 c 0,-0.6925 -0.5575,-1.25 -1.25,-1.25 z m 8,0 c -0.6925,0 -1.25,0.5575 -1.25,1.25 v 2.5 c 0,0.6925 0.5575,1.25 1.25,1.25 h 2.5 c 0.6925,0 1.25,-0.5575 1.25,-1.25 v -2.5 c 0,-0.6925 -0.5575,-1.25 -1.25,-1.25 z m 8,0 c -0.6925,0 -1.25,0.5575 -1.25,1.25 v 2.5 c 0,0.6925 0.5575,1.25 1.25,1.25 h 2.5 c 0.6925,0 1.25,-0.5575 1.25,-1.25 v -2.5 c 0,-0.6925 -0.5575,-1.25 -1.25,-1.25 z m 8,0 c -0.6925,0 -1.25,0.5575 -1.25,1.25 v 2.5 c 0,0.6925 0.5575,1.25 1.25,1.25 h 2.5 c 0.6925,0 1.25,-0.5575 1.25,-1.25 v -2.5 c 0,-0.6925 -0.5575,-1.25 -1.25,-1.25 z m 8,0 c -0.6925,0 -1.25,0.5575 -1.25,1.25 v 2.5 c 0,0.6925 0.5575,1.25 1.25,1.25 h 2.5 c 0.6925,0 1.25,-0.5575 1.25,-1.25 v -2.5 c 0,-0.6925 -0.5575,-1.25 -1.25,-1.25 z m -32.017578,11 c -0.683267,0 -1.232422,0.5575 -1.232422,1.25 v 2.5 c 0,0.6925 0.549155,1.25 1.232422,1.25 H 49.26758 c 0.683267,0 1.232422,-0.5575 1.232422,-1.25 v -2.5 c 0,-0.6925 -0.549155,-1.25 -1.232422,-1.25 z"
     id="path2" />
  <rect
     style="opacity:0.386239;fill:#000000;fill-opacity:1"
     width="5"
     height="5"
     x="9.5000019"
     y="17.71841"
     rx="1.25"
     ry="1.25"
     id="rect3" />
  <rect
     style="opacity:0.386239;fill:#000000;fill-opacity:1"
     width="5"
     height="5"
     x="17.500002"
     y="17.71841"
     rx="1.25"
     ry="1.25"
     id="rect4" />
  <rect
     style="opacity:0.386239;fill:#000000;fill-opacity:1"
     width="5"
     height="5"
     x="25.500002"
     y="17.71841"
     rx="1.25"
     ry="1.25"
     id="rect5" />
  <rect
     style="opacity:0.386239;fill:#000000;fill-opacity:1"
     width="5"
     height="5"
     x="33.500004"
     y="17.71841"
     rx="1.25"
     ry="1.25"
     id="rect6" />
  <rect
     style="opacity:0.386239;fill:#000000;fill-opacity:1"
     width="5"
     height="5"
     x="41.500004"
     y="17.71841"
     rx="1.25"
     ry="1.25"
     id="rect7" />
  <rect
     style="opacity:0.386239;fill:#000000;fill-opacity:1"
     width="5"
     height="5"
     x="49.500004"
     y="17.71841"
     rx="1.25"
     ry="1.25"
     id="rect8" />
  <rect
     style="opacity:0.386239;fill:#000000;fill-opacity:1"
     width="5"
     height="5"
     x="13.500002"
     y="28.71841"
     rx="1.25"
     ry="1.25"
     id="rect9" />
  <rect
     style="opacity:0.386239;fill:#000000;fill-opacity:1"
     width="37"
     height="5"
     x="13.500002"
     y="39.71841"
     rx="1.233"
     ry="1.25"
     id="rect10" />
  <rect
     style="opacity:0.386239;fill:#000000;fill-opacity:1"
     width="5"
     height="5"
     x="21.500002"
     y="28.71841"
     rx="1.25"
     ry="1.25"
     id="rect11" />
  <rect
     style="opacity:0.386239;fill:#000000;fill-opacity:1"
     width="5"
     height="5"
     x="29.500002"
     y="28.71841"
     rx="1.25"
     ry="1.25"
     id="rect12" />
  <rect
     style="opacity:0.386239;fill:#000000;fill-opacity:1"
     width="5"
     height="5"
     x="37.500004"
     y="28.71841"
     rx="1.25"
     ry="1.25"
     id="rect13" />
  <rect
     style="opacity:0.386239;fill:#000000;fill-opacity:1"
     width="5"
     height="5"
     x="45.500004"
     y="28.71841"
     rx="1.25"
     ry="1.25"
     id="rect14" />
</svg>
