<?xml version="1.0" encoding="UTF-8" standalone="no"?>
<svg
   width="64"
   height="64"
   version="1"
   id="svg12"
   sodipodi:docname="kdenlive.svg"
   inkscape:version="1.3.2 (091e20ef0f, 2023-11-25, custom)"
   xmlns:inkscape="http://www.inkscape.org/namespaces/inkscape"
   xmlns:sodipodi="http://sodipodi.sourceforge.net/DTD/sodipodi-0.dtd"
   xmlns:xlink="http://www.w3.org/1999/xlink"
   xmlns="http://www.w3.org/2000/svg"
   xmlns:svg="http://www.w3.org/2000/svg">
  <defs
     id="defs12">
    <inkscape:path-effect
       effect="fillet_chamfer"
       id="path-effect20"
       is_visible="true"
       lpeversion="1"
       nodesatellites_param="F,0,0,1,0,0,0,1 @ F,0,0,1,0,1.9921218,0,1 @ F,0,1,1,0,1.9921218,0,1 @ F,0,0,1,0,0,0,1"
       radius="0"
       unit="px"
       method="auto"
       mode="F"
       chamfer_steps="1"
       flexible="false"
       use_knot_distance="true"
       apply_no_radius="true"
       apply_with_radius="true"
       only_selected="false"
       hide_knots="false" />
    <inkscape:path-effect
       effect="fillet_chamfer"
       id="path-effect19"
       is_visible="true"
       lpeversion="1"
       nodesatellites_param="F,0,0,1,0,0,0,1 @ F,0,1,1,0,2.0023211,0,1 @ F,0,0,1,0,2.0023211,0,1 @ F,0,0,1,0,0,0,1"
       radius="0"
       unit="px"
       method="auto"
       mode="F"
       chamfer_steps="1"
       flexible="false"
       use_knot_distance="true"
       apply_no_radius="true"
       apply_with_radius="true"
       only_selected="false"
       hide_knots="false" />
    <linearGradient
       id="linearGradient18"
       inkscape:collect="always">
      <stop
         style="stop-color:#00f7ff;stop-opacity:1;"
         offset="0"
         id="stop18" />
      <stop
         style="stop-color:#0084ff;stop-opacity:1;"
         offset="1"
         id="stop19" />
    </linearGradient>
    <inkscape:path-effect
       effect="fillet_chamfer"
       id="path-effect18"
       is_visible="true"
       lpeversion="1"
       nodesatellites_param="F,0,1,1,0,11.337558,0,1 @ F,0,1,1,0,11.337558,0,1 @ F,0,1,1,0,11.337558,0,1 @ F,0,0,1,0,11.337558,0,1"
       radius="0"
       unit="px"
       method="auto"
       mode="F"
       chamfer_steps="1"
       flexible="false"
       use_knot_distance="true"
       apply_no_radius="true"
       apply_with_radius="true"
       only_selected="false"
       hide_knots="false" />
    <inkscape:path-effect
       effect="fillet_chamfer"
       id="path-effect17"
       is_visible="true"
       lpeversion="1"
       nodesatellites_param="F,0,1,1,0,1.4543949,0,1 @ F,0,1,1,0,1.4543949,0,1 @ F,0,1,1,0,1.4543949,0,1 @ F,0,1,1,0,1.4543949,0,1 | F,0,1,1,0,1.4543949,0,1 @ F,0,1,1,0,1.4543949,0,1 @ F,0,1,1,0,1.4543949,0,1 @ F,0,1,1,0,1.4543949,0,1 | F,0,1,1,0,1.4543949,0,1 @ F,0,1,1,0,1.4543949,0,1 @ F,0,1,1,0,1.4543949,0,1 @ F,0,1,1,0,1.4543949,0,1 | F,0,1,1,0,1.4543949,0,1 @ F,0,1,1,0,1.4543949,0,1 @ F,0,1,1,0,1.4543949,0,1 @ F,0,1,1,0,1.4543949,0,1 | F,0,1,1,0,1.4543949,0,1 @ F,0,1,1,0,1.4543949,0,1 @ F,0,1,1,0,1.4543949,0,1 @ F,0,1,1,0,1.4543949,0,1 | F,0,0,1,0,1.4543949,0,1 @ F,0,1,1,0,1.4543949,0,1 @ F,0,1,1,0,1.4543949,0,1 @ F,0,1,1,0,1.4543949,0,1"
       radius="0"
       unit="px"
       method="auto"
       mode="F"
       chamfer_steps="1"
       flexible="false"
       use_knot_distance="true"
       apply_no_radius="true"
       apply_with_radius="true"
       only_selected="false"
       hide_knots="false" />
    <inkscape:path-effect
       effect="fillet_chamfer"
       id="path-effect16"
       is_visible="true"
       lpeversion="1"
       nodesatellites_param="F,0,0,1,0,3.2378945,0,1 @ F,0,1,1,0,3.2378945,0,1 @ F,0,1,1,0,3.2378945,0,1"
       radius="0"
       unit="px"
       method="auto"
       mode="F"
       chamfer_steps="1"
       flexible="false"
       use_knot_distance="true"
       apply_no_radius="true"
       apply_with_radius="true"
       only_selected="false"
       hide_knots="false" />
    <inkscape:path-effect
       effect="fillet_chamfer"
       id="path-effect15"
       is_visible="true"
       lpeversion="1"
       nodesatellites_param="F,0,1,1,0,2.9833984,0,1 @ F,0,1,1,0,2.9833984,0,1 @ F,0,0,1,0,2.9833984,0,1"
       radius="0"
       unit="px"
       method="auto"
       mode="F"
       chamfer_steps="1"
       flexible="false"
       use_knot_distance="true"
       apply_no_radius="true"
       apply_with_radius="true"
       only_selected="false"
       hide_knots="false" />
    <filter
       inkscape:collect="always"
       style="color-interpolation-filters:sRGB"
       id="filter13"
       x="-0.091977456"
       y="-0.0689831"
       width="1.1839549"
       height="1.1379662">
      <feGaussianBlur
         inkscape:collect="always"
         stdDeviation="0.68983087"
         id="feGaussianBlur13" />
    </filter>
    <filter
       inkscape:collect="always"
       style="color-interpolation-filters:sRGB"
       id="filter14"
       x="-0.059645904"
       y="-0.075463844"
       width="1.1192918"
       height="1.1509277">
      <feGaussianBlur
         inkscape:collect="always"
         stdDeviation="0.32283216"
         id="feGaussianBlur14" />
    </filter>
    <filter
       inkscape:collect="always"
       style="color-interpolation-filters:sRGB"
       id="filter15"
       x="-0.082779708"
       y="-0.05016952"
       width="1.1655594"
       height="1.100339">
      <feGaussianBlur
         inkscape:collect="always"
         stdDeviation="0.68983087"
         id="feGaussianBlur15" />
    </filter>
    <filter
       inkscape:collect="always"
       style="color-interpolation-filters:sRGB"
       id="filter17"
       x="-0.30496332"
       y="-0.024398578"
       width="1.6099266"
       height="1.0487972">
      <feGaussianBlur
         inkscape:collect="always"
         stdDeviation="0.50830369"
         id="feGaussianBlur17" />
    </filter>
    <inkscape:path-effect
       effect="fillet_chamfer"
       id="path-effect18-6"
       is_visible="true"
       lpeversion="1"
       nodesatellites_param="F,0,1,1,0,11.337558,0,1 @ F,0,1,1,0,11.337558,0,1 @ F,0,1,1,0,11.337558,0,1 @ F,0,0,1,0,11.337558,0,1"
       radius="0"
       unit="px"
       method="auto"
       mode="F"
       chamfer_steps="1"
       flexible="false"
       use_knot_distance="true"
       apply_no_radius="true"
       apply_with_radius="true"
       only_selected="false"
       hide_knots="false" />
    <filter
       inkscape:collect="always"
       style="color-interpolation-filters:sRGB"
       id="filter18"
       x="-0.017861211"
       y="-0.020195468"
       width="1.0357224"
       height="1.0403909">
      <feGaussianBlur
         inkscape:collect="always"
         stdDeviation="0.4131689"
         id="feGaussianBlur18" />
    </filter>
    <radialGradient
       inkscape:collect="always"
       xlink:href="#linearGradient18"
       id="radialGradient19"
       cx="9.4161291"
       cy="63.721474"
       fx="9.4161291"
       fy="63.721474"
       r="25"
       gradientTransform="matrix(3.6646684,-2.1157973,1.3964262,2.4186812,-114.0732,-81.093137)"
       gradientUnits="userSpaceOnUse" />
  </defs>
  <sodipodi:namedview
     id="namedview12"
     pagecolor="#ffffff"
     bordercolor="#000000"
     borderopacity="0.25"
     inkscape:showpageshadow="2"
     inkscape:pageopacity="0.0"
     inkscape:pagecheckerboard="0"
     inkscape:deskcolor="#d1d1d1"
     inkscape:zoom="14.015625"
     inkscape:cx="25.043478"
     inkscape:cy="33.070234"
     inkscape:window-width="1920"
     inkscape:window-height="1028"
     inkscape:window-x="0"
     inkscape:window-y="0"
     inkscape:window-maximized="1"
     inkscape:current-layer="svg12" />
  <path
     style="opacity:1;fill:#000000;fill-opacity:1;stroke:none;stroke-width:7.681;stroke-linecap:round;stroke-linejoin:round;paint-order:stroke fill markers;filter:url(#filter18)"
     d="M 15.459966,9.1779878 H 48.302102 A 11.337558,11.337558 45 0 1 59.63966,20.515546 V 46.940821 A 11.337558,11.337558 135 0 1 48.302102,58.278379 H 15.459966 A 11.337558,11.337558 45 0 1 4.1224076,46.940821 V 20.515546 A 11.337558,11.337558 135 0 1 15.459966,9.1779878 Z"
     id="path17-7"
     sodipodi:nodetypes="ccccc"
     inkscape:path-effect="#path-effect18-6"
     inkscape:original-d="M 4.1224076,9.1779878 H 59.63966 V 58.278379 H 4.1224076 Z"
     transform="translate(-0.00142965,0.1112901)" />
  <path
     style="opacity:1;fill:#424242;fill-opacity:1;stroke:none;stroke-width:7.681;stroke-linecap:round;stroke-linejoin:round;paint-order:stroke fill markers"
     d="M 15.459966,9.1779878 H 48.302102 A 11.337558,11.337558 45 0 1 59.63966,20.515546 V 46.940821 A 11.337558,11.337558 135 0 1 48.302102,58.278379 H 15.459966 A 11.337558,11.337558 45 0 1 4.1224076,46.940821 V 20.515546 A 11.337558,11.337558 135 0 1 15.459966,9.1779878 Z"
     id="path17"
     sodipodi:nodetypes="ccccc"
     inkscape:path-effect="#path-effect18"
     inkscape:original-d="M 4.1224076,9.1779878 H 59.63966 V 58.278379 H 4.1224076 Z" />
  <path
     style="fill:#000000;fill-opacity:1;filter:url(#filter17)"
     d="m 30,8 0.07501,48.007881 A 1.9952367,1.9952367 44.955241 0 0 32.070242,58 1.9611879,1.9611879 134.08899 0 0 34,56.007878 V 8 Z"
     id="path4"
     inkscape:path-effect="#path-effect20"
     inkscape:original-d="m 30,8 0.07812,50 H 34 V 8 Z" />
  <path
     style="fill:#e14c39"
     d="m 30.070617,8.0428599 0.07499,47.9976811 a 2.005452,2.005452 44.955241 0 0 2.005449,2.002319 1.9613766,1.9613766 133.79108 0 0 1.919559,-2.002321 V 8.0428599 Z"
     id="path4-3"
     inkscape:path-effect="#path-effect19"
     inkscape:original-d="m 30.070617,8.0428599 0.07812,50.0000001 h 3.92188 V 8.0428599 Z" />
  <path
     style="opacity:0.60073529;fill-rule:evenodd;filter:url(#filter15)"
     d="m 22,17 v 3 h 4 v -3 z m -4,6 v 3 h 8 v -3 z m -8,6 v 3 h 16 v -3 z m -4,6 v 3 h 20 v -3 z m 4,6 v 3 h 16 v -3 z m 8,6 v 3 h 8 v -3 z"
     id="path5" />
  <path
     style="opacity:0.600735;mix-blend-mode:normal;filter:url(#filter14)"
     d="M 36.762106,7 H 27.237894 A 1.7328688,1.7328688 118.15497 0 0 25.79606,9.6940913 l 4.407878,6.6118177 a 2.1585963,2.1585963 6.6110514e-6 0 0 3.592121,0 l 4.40788,-6.6118181 A 1.7328683,1.7328683 61.845037 0 0 36.762106,7 Z"
     id="path7"
     sodipodi:nodetypes="cccc"
     inkscape:path-effect="#path-effect16"
     inkscape:original-d="M 40,7 H 24 l 7.999998,12 z"
     transform="translate(0,-0.8)" />
  <path
     style="fill:#ff6161"
     d="M 37.016602,6 H 26.983398 a 1.5966666,1.5966666 118.15497 0 0 -1.328507,2.4823377 l 4.690216,7.0353243 a 1.9889323,1.9889323 6.6110514e-6 0 0 3.309783,1e-6 L 38.345108,8.4823373 A 1.5966661,1.5966661 61.845037 0 0 37.016602,6 Z"
     id="path8"
     inkscape:path-effect="#path-effect15"
     inkscape:original-d="M 40,6 H 24 l 7.999998,12 z"
     sodipodi:nodetypes="cccc" />
  <path
     style="opacity:0.60073529;filter:url(#filter13)"
     d="m 39.555294,22.401844 c -0.736528,0.03972 -1.529608,0.687324 -1.527754,1.404914 L 38,44.993502 c 0,0.956862 1.408318,1.789478 2.213958,1.221036 l 15.17856,-10.62959 c 0.8109,-0.561416 0.80905,-1.878372 0,-2.442278 L 40.242112,22.585714 c -0.20223,-0.14086 -0.440704,-0.19698 -0.68632,-0.18386 z"
     id="path9" />
  <g
     id="g18"
     style="fill:url(#radialGradient19)">
    <path
       style="fill:url(#radialGradient19);fill-rule:evenodd"
       d="m 22,17.454395 v 0.09121 A 1.4543949,1.4543949 45 0 0 23.454395,19 h 1.09121 A 1.4543949,1.4543949 135 0 0 26,17.545605 v -0.09121 A 1.4543949,1.4543949 45 0 0 24.545605,16 h -1.09121 A 1.4543949,1.4543949 135 0 0 22,17.454395 Z m -4,6 v 0.09121 A 1.4543949,1.4543949 45 0 0 19.454395,25 l 5.09121,0 A 1.4543949,1.4543949 135 0 0 26,23.545605 v -0.09121 A 1.4543949,1.4543949 45 0 0 24.545605,22 l -5.09121,0 A 1.4543949,1.4543949 135 0 0 18,23.454395 Z m -8,6 v 0.09121 A 1.4543949,1.4543949 45 0 0 11.454395,31 h 13.09121 A 1.4543949,1.4543949 135 0 0 26,29.545605 v -0.09121 A 1.4543949,1.4543949 45 0 0 24.545605,28 H 11.454395 A 1.4543949,1.4543949 135 0 0 10,29.454395 Z m -4,6 v 0.09121 A 1.4543949,1.4543949 45 0 0 7.4543949,37 H 24.545605 A 1.4543949,1.4543949 135 0 0 26,35.545605 v -0.09121 A 1.4543949,1.4543949 45 0 0 24.545605,34 H 7.4543949 A 1.4543949,1.4543949 135 0 0 6,35.454395 Z m 4,6 v 0.09121 A 1.4543949,1.4543949 45 0 0 11.454395,43 h 13.09121 A 1.4543949,1.4543949 135 0 0 26,41.545605 v -0.09121 A 1.4543949,1.4543949 45 0 0 24.545605,40 H 11.454395 A 1.4543949,1.4543949 135 0 0 10,41.454395 Z m 8,6 v 0.09121 A 1.4543949,1.4543949 45 0 0 19.454395,49 h 5.09121 A 1.4543949,1.4543949 135 0 0 26,47.545605 v -0.09121 A 1.4543949,1.4543949 45 0 0 24.545605,46 h -5.09121 A 1.4543949,1.4543949 135 0 0 18,47.454395 Z"
       id="path6"
       inkscape:path-effect="#path-effect17"
       inkscape:original-d="m 22,16 v 3 h 4 v -3 z m -4,6 v 3 h 8 v -3 z m -8,6 v 3 h 16 v -3 z m -4,6 v 3 h 20 v -3 z m 4,6 v 3 h 16 v -3 z m 8,6 v 3 h 8 v -3 z" />
    <path
       style="fill:url(#radialGradient19)"
       d="m 39.555294,21.401844 c -0.736528,0.03972 -1.529608,0.687324 -1.527754,1.404914 L 38,43.993502 c 0,0.956862 1.408318,1.789478 2.213958,1.221036 l 15.17856,-10.62959 c 0.8109,-0.561416 0.80905,-1.878372 0,-2.442278 L 40.242112,21.585714 c -0.20223,-0.14086 -0.440704,-0.19698 -0.68632,-0.18386 z"
       id="path10" />
  </g>
</svg>
