<?xml version="1.0" encoding="UTF-8" standalone="no"?>
<svg
   width="64"
   height="64"
   version="1"
   id="svg7"
   sodipodi:docname="kthememgr.svg"
   inkscape:version="1.3.2 (091e20ef0f, 2023-11-25, custom)"
   xmlns:inkscape="http://www.inkscape.org/namespaces/inkscape"
   xmlns:sodipodi="http://sodipodi.sourceforge.net/DTD/sodipodi-0.dtd"
   xmlns:xlink="http://www.w3.org/1999/xlink"
   xmlns="http://www.w3.org/2000/svg"
   xmlns:svg="http://www.w3.org/2000/svg">
  <defs
     id="defs7">
    <linearGradient
       id="linearGradient9"
       inkscape:collect="always">
      <stop
         style="stop-color:#ffca12;stop-opacity:1;"
         offset="0"
         id="stop10" />
      <stop
         style="stop-color:#ff8312;stop-opacity:1;"
         offset="1"
         id="stop11" />
    </linearGradient>
    <linearGradient
       id="linearGradient8"
       inkscape:collect="always">
      <stop
         style="stop-color:#ffa81c;stop-opacity:1;"
         offset="0"
         id="stop8" />
      <stop
         style="stop-color:#ff821c;stop-opacity:1;"
         offset="1"
         id="stop9" />
    </linearGradient>
    <radialGradient
       inkscape:collect="always"
       xlink:href="#linearGradient8"
       id="radialGradient9"
       cx="32"
       cy="21"
       fx="32"
       fy="21"
       r="25"
       gradientTransform="matrix(1,0,0,0.67999998,0,6.7200004)"
       gradientUnits="userSpaceOnUse" />
    <radialGradient
       inkscape:collect="always"
       xlink:href="#linearGradient9"
       id="radialGradient11"
       cx="7.24547"
       cy="46.822758"
       fx="7.24547"
       fy="46.822758"
       r="24.999995"
       gradientTransform="matrix(2.0230345,1.1679995,-0.91750701,1.5891688,35.547842,-37.434896)"
       gradientUnits="userSpaceOnUse" />
  </defs>
  <sodipodi:namedview
     id="namedview7"
     pagecolor="#ffffff"
     bordercolor="#000000"
     borderopacity="0.25"
     inkscape:showpageshadow="2"
     inkscape:pageopacity="0.0"
     inkscape:pagecheckerboard="0"
     inkscape:deskcolor="#d1d1d1"
     inkscape:zoom="13.875"
     inkscape:cx="34.738739"
     inkscape:cy="32.216216"
     inkscape:window-width="1920"
     inkscape:window-height="1017"
     inkscape:window-x="0"
     inkscape:window-y="0"
     inkscape:window-maximized="1"
     inkscape:current-layer="svg7" />
  <path
     style="opacity:0.2"
     d="m 7.0108508,21.72315 c -0.0063,0.10652 -0.0099,0.213206 -0.01084,0.31992 v 21.773983 c 6.51e-4,2.274279 1.2094142,4.375523 3.1711152,5.512481 l 18.65777,10.81715 c 1.962238,1.137754 4.379992,1.137754 6.34223,0 L 53.828892,49.329534 C 55.791428,48.192087 57.000322,46.089576 57,43.814318 V 22.04307 C 56.997,21.96277 56.9924,21.88257 56.9864,21.802446 57,21.799942 7.0108508,21.72315 7.0108508,21.72315 Z"
     id="path1" />
  <path
     style="fill:url(#radialGradient11)"
     d="m 7.0108508,20.72315 c -0.0063,0.10652 -0.0099,0.213206 -0.01084,0.31992 v 21.773983 c 6.51e-4,2.274279 1.2094142,4.375523 3.1711152,5.512481 l 18.65777,10.81715 c 1.962238,1.137754 4.379992,1.137754 6.34223,0 L 53.828892,48.329534 C 55.791428,47.192087 57.000322,45.089576 57,42.814318 V 21.04307 C 56.997,20.96277 56.9924,20.88257 56.9864,20.802446 57,20.799942 7.0108508,20.72315 7.0108508,20.72315 Z"
     id="path2" />
  <path
     style="fill:url(#radialGradient9)"
     d="m 32.149312,4.0000003 v 0.00278 A 6.346037,6.442821 0 0 0 28.826474,4.8605097 L 10.154523,15.80641 A 6.346037,6.442821 0 0 0 7,20.972232 a 6.346037,6.442821 0 0 0 3.154523,5.218396 l 18.671951,10.9459 a 6.346037,6.442821 0 0 0 6.34705,0 l 18.671954,-10.9459 A 6.346037,6.442821 0 0 0 57,21.024804 6.346037,6.442821 0 0 0 53.845478,15.80641 L 35.173524,4.8605097 A 6.346037,6.442821 0 0 0 32.149312,4.0000003 Z"
     id="path3" />
  <path
     style="opacity:0.07"
     d="M 32.148438 4 L 32.148438 4.0039062 A 6.346037 6.442821 0 0 0 32 4.0078125 L 32 37.984375 A 6.346037 6.442821 0 0 0 35.171875 37.136719 L 53.84375 26.191406 A 6.346037 6.442821 0 0 0 57 21.025391 A 6.346037 6.442821 0 0 0 53.84375 15.806641 L 35.171875 4.8613281 A 6.346037 6.442821 0 0 0 32.148438 4 z"
     id="path4" />
  <path
     style="opacity:0.1;fill:#ffffff"
     d="M 32.148438 4 L 32.148438 4.0039062 A 6.346037 6.442821 0 0 0 28.828125 4.859375 L 10.15625 15.804688 A 6.346037 6.442821 0 0 0 7 20.972656 A 6.346037 6.442821 0 0 0 7.0546875 21.449219 A 6.346037 6.442821 0 0 1 10.15625 16.804688 L 28.828125 5.859375 A 6.346037 6.442821 0 0 1 32.148438 5.0039062 L 32.148438 5 A 6.346037 6.442821 0 0 1 35.171875 5.859375 L 53.84375 16.804688 A 6.346037 6.442821 0 0 1 56.945312 21.494141 A 6.346037 6.442821 0 0 0 57 21.023438 A 6.346037 6.442821 0 0 0 53.84375 15.804688 L 35.171875 4.859375 A 6.346037 6.442821 0 0 0 32.148438 4 z"
     id="path5" />
  <path
     style="opacity:0.1"
     d="M 7.0117188 20.722656 C 7.0075699 20.792805 7.0057246 20.863341 7.0039062 20.933594 A 6.346037 6.442821 0 0 1 7.0253906 20.722656 C 7.0253832 20.722656 7.0117188 20.722656 7.0117188 20.722656 z M 7.0019531 20.990234 C 7.001654 21.007801 7.0001548 21.0254 7 21.042969 L 7 42.816406 C 7.000651 45.090685 8.210174 47.19312 10.171875 48.330078 L 28.828125 59.146484 C 29.837768 59.7319 30.873266 60.01702 32 60 L 32 37.994141 A 6.346037 6.442821 0 0 1 28.826172 37.136719 L 10.154297 26.191406 A 6.346037 6.442821 0 0 1 7.0019531 20.990234 z"
     id="path6" />
  <path
     style="opacity:0.1"
     d="M 7.0546875 20.501953 A 6.346037 6.442821 0 0 0 7 20.972656 A 6.346037 6.442821 0 0 0 10.15625 26.191406 L 28.828125 37.136719 A 6.346037 6.442821 0 0 0 35.171875 37.136719 L 53.84375 26.191406 A 6.346037 6.442821 0 0 0 57 21.023438 A 6.346037 6.442821 0 0 0 56.945312 20.546875 A 6.346037 6.442821 0 0 1 53.84375 25.191406 L 35.171875 36.136719 A 6.346037 6.442821 0 0 1 28.828125 36.136719 L 10.15625 25.191406 A 6.346037 6.442821 0 0 1 7.0546875 20.501953 z"
     id="path7" />
</svg>
