<?xml version="1.0" encoding="UTF-8" standalone="no"?>
<svg
   width="64"
   height="64"
   version="1"
   id="svg6"
   sodipodi:docname="org.libreoffice.LibreOffice.writer.svg"
   inkscape:version="1.3.2 (091e20ef0f, 2023-11-25, custom)"
   xmlns:inkscape="http://www.inkscape.org/namespaces/inkscape"
   xmlns:sodipodi="http://sodipodi.sourceforge.net/DTD/sodipodi-0.dtd"
   xmlns:xlink="http://www.w3.org/1999/xlink"
   xmlns="http://www.w3.org/2000/svg"
   xmlns:svg="http://www.w3.org/2000/svg">
  <defs
     id="defs6">
    <linearGradient
       id="linearGradient2"
       inkscape:collect="always">
      <stop
         style="stop-color:#009cff;stop-opacity:1;"
         offset="0"
         id="stop1" />
      <stop
         style="stop-color:#003ff5;stop-opacity:1;"
         offset="1"
         id="stop2" />
    </linearGradient>
    <inkscape:path-effect
       effect="fillet_chamfer"
       id="path-effect10"
       is_visible="true"
       lpeversion="1"
       nodesatellites_param="F,0,1,1,0,0.73663526,0,1 @ F,0,1,1,0,0.73663526,0,1 @ F,0,1,1,0,0.73663526,0,1 @ F,0,0,1,0,0.73663526,0,1 | F,0,1,1,0,0.73663526,0,1 @ F,0,1,1,0,0.73663526,0,1 @ F,0,1,1,0,0.73663526,0,1 @ F,0,1,1,0,0.73663526,0,1 | F,0,1,1,0,0.73663526,0,1 @ F,0,1,1,0,0.73663526,0,1 @ F,0,1,1,0,0.73663526,0,1 @ F,0,1,1,0,0.73663526,0,1 | F,0,1,1,0,0.73663526,0,1 @ F,0,1,1,0,0.73663526,0,1 @ F,0,1,1,0,0.73663526,0,1 @ F,0,1,1,0,0.73663526,0,1"
       radius="0"
       unit="px"
       method="auto"
       mode="F"
       chamfer_steps="1"
       flexible="false"
       use_knot_distance="true"
       apply_no_radius="true"
       apply_with_radius="true"
       only_selected="false"
       hide_knots="false" />
    <inkscape:path-effect
       effect="fillet_chamfer"
       id="path-effect9-6"
       is_visible="true"
       lpeversion="1"
       nodesatellites_param="F,0,0,1,0,3.800465,0,1 @ F,0,0,1,0,3.800465,0,1 @ F,0,0,1,0,3.800465,0,1 @ F,0,0,1,0,3.800465,0,1 @ F,0,0,1,0,3.800465,0,1 | F,0,0,1,0,1.3899408,0,1 @ F,0,0,1,0,1.3899408,0,1 @ F,0,1,1,0,3.2374143,0,1"
       radius="0"
       unit="px"
       method="auto"
       mode="F"
       chamfer_steps="1"
       flexible="false"
       use_knot_distance="true"
       apply_no_radius="true"
       apply_with_radius="true"
       only_selected="false"
       hide_knots="false" />
    <inkscape:path-effect
       effect="fillet_chamfer"
       id="path-effect9"
       is_visible="true"
       lpeversion="1"
       nodesatellites_param="F,0,0,1,0,3.800465,0,1 @ F,0,0,1,0,3.800465,0,1 @ F,0,0,1,0,3.800465,0,1 @ F,0,0,1,0,3.800465,0,1 @ F,0,0,1,0,3.800465,0,1 | F,0,0,1,0,1.3899408,0,1 @ F,0,0,1,0,1.3899408,0,1 @ F,0,1,1,0,3.2374143,0,1"
       radius="0"
       unit="px"
       method="auto"
       mode="F"
       chamfer_steps="1"
       flexible="false"
       use_knot_distance="true"
       apply_no_radius="true"
       apply_with_radius="true"
       only_selected="false"
       hide_knots="false" />
    <radialGradient
       inkscape:collect="always"
       xlink:href="#linearGradient2"
       id="radialGradient12"
       cx="8.9159527"
       cy="52.562355"
       fx="8.9159527"
       fy="52.562355"
       r="21.984943"
       gradientTransform="matrix(2.4108181,-2.4108181,3.075631,3.075631,-180.19807,-81.70397)"
       gradientUnits="userSpaceOnUse" />
    <filter
       inkscape:collect="always"
       style="color-interpolation-filters:sRGB"
       id="filter1"
       x="-0.085995288"
       y="-0.067406979"
       width="1.1719906"
       height="1.134814">
      <feGaussianBlur
         inkscape:collect="always"
         stdDeviation="1.4921679"
         id="feGaussianBlur1" />
    </filter>
    <filter
       inkscape:collect="always"
       style="color-interpolation-filters:sRGB"
       id="filter2"
       x="-0.09934527"
       y="-0.074508953"
       width="1.1986905"
       height="1.1490179">
      <feGaussianBlur
         inkscape:collect="always"
         stdDeviation="1.4276791"
         id="feGaussianBlur2" />
    </filter>
  </defs>
  <sodipodi:namedview
     id="namedview6"
     pagecolor="#ffffff"
     bordercolor="#000000"
     borderopacity="0.25"
     inkscape:showpageshadow="2"
     inkscape:pageopacity="0.0"
     inkscape:pagecheckerboard="0"
     inkscape:deskcolor="#d1d1d1"
     inkscape:zoom="9.2891169"
     inkscape:cx="19.431341"
     inkscape:cy="36.709625"
     inkscape:window-width="1920"
     inkscape:window-height="1020"
     inkscape:window-x="0"
     inkscape:window-y="0"
     inkscape:window-maximized="1"
     inkscape:current-layer="svg6" />
  <rect
     style="fill:url(#radialGradient12);fill-opacity:1;stroke:none;stroke-width:8.3;stroke-linejoin:bevel;stroke-opacity:1;paint-order:stroke fill markers"
     id="rect10"
     width="43.969887"
     height="56.095127"
     x="10.037131"
     y="4.0095"
     rx="6.4782028"
     ry="6.4782028" />
  <rect
     style="fill:none;fill-opacity:1;stroke:#000000;stroke-width:0.40000001;stroke-linejoin:bevel;stroke-opacity:1;paint-order:stroke fill markers;stroke-dasharray:none;filter:url(#filter1)"
     id="rect10-5"
     width="43.969887"
     height="56.095127"
     x="10.015057"
     y="3.9524364"
     rx="6.4782028"
     ry="6.4782028" />
  <path
     id="path4-2"
     style="fill:#f5f5f5"
     d="M 17.800865 7.9998575 A 3.800465 3.800465 0 0 0 14.000083 11.800639 L 14.000083 52.199076 A 3.800465 3.800465 0 0 0 17.800865 55.999857 L 46.199302 55.999857 A 3.800465 3.800465 0 0 0 50.000083 52.199076 L 50.000083 28.628764 A 9.1751341 9.1751341 0 0 0 47.312583 22.140482 L 35.859458 10.687357 A 9.1751341 9.1751341 0 0 0 29.371177 7.9998575 L 17.800865 7.9998575 z M 40.218833 7.9998575 A 0.57572504 0.57572504 0 0 0 39.81063 8.9822793 L 49.017662 18.189311 A 0.57573962 0.57573962 0 0 0 50.000083 17.781107 L 50.000083 11.238139 A 3.2374143 3.2374143 0 0 0 46.761802 7.9998575 L 40.218833 7.9998575 z M 20.767662 28.072123 L 43.295005 28.072123 A 0.73663526 0.73663526 0 0 1 44.031333 28.808451 L 44.031333 29.333842 A 0.73663526 0.73663526 0 0 1 43.295005 30.072123 L 20.767662 30.072123 A 0.73663526 0.73663526 0 0 1 20.031333 29.333842 L 20.031333 28.808451 A 0.73663526 0.73663526 0 0 1 20.767662 28.072123 z M 20.767662 34.072123 L 43.295005 34.072123 A 0.73663526 0.73663526 0 0 1 44.031333 34.808451 L 44.031333 35.333842 A 0.73663526 0.73663526 0 0 1 43.295005 36.072123 L 20.767662 36.072123 A 0.73663526 0.73663526 0 0 1 20.031333 35.333842 L 20.031333 34.808451 A 0.73663526 0.73663526 0 0 1 20.767662 34.072123 z M 20.767662 40.072123 L 43.295005 40.072123 A 0.73663526 0.73663526 0 0 1 44.031333 40.808451 L 44.031333 41.333842 A 0.73663526 0.73663526 0 0 1 43.295005 42.072123 L 20.767662 42.072123 A 0.73663526 0.73663526 0 0 1 20.031333 41.333842 L 20.031333 40.808451 A 0.73663526 0.73663526 0 0 1 20.767662 40.072123 z M 20.767662 46.072123 L 35.295005 46.072123 A 0.73663526 0.73663526 0 0 1 36.031333 46.808451 L 36.031333 47.333842 A 0.73663526 0.73663526 0 0 1 35.295005 48.072123 L 20.767662 48.072123 A 0.73663526 0.73663526 0 0 1 20.031333 47.333842 L 20.031333 46.808451 A 0.73663526 0.73663526 0 0 1 20.767662 46.072123 z "
     transform="translate(-0.03133338,-0.02720121)" />
  <path
     id="path4-2-3"
     style="fill:none;stroke:#000dff;stroke-opacity:1;stroke-width:0.3;stroke-dasharray:none;filter:url(#filter2)"
     d="m 17.889691,8.006096 a 3.800465,3.800465 0 0 0 -3.800782,3.800782 v 40.398437 a 3.800465,3.800465 0 0 0 3.800782,3.800781 h 28.398437 a 3.800465,3.800465 0 0 0 3.800781,-3.800781 V 28.635003 a 9.1751341,9.1751341 0 0 0 -2.6875,-6.488282 L 35.948284,10.693596 a 9.1751341,9.1751341 0 0 0 -6.488281,-2.6875 z m 22.417968,0 a 0.57572504,0.57572504 0 0 0 -0.408203,0.9824218 l 9.207032,9.2070322 a 0.57573962,0.57573962 0 0 0 0.982421,-0.408204 V 11.244378 A 3.2374143,3.2374143 0 0 0 46.850628,8.006096 Z M 20.856488,28.078362 h 22.527343 a 0.73663526,0.73663526 0 0 1 0.736328,0.736328 v 0.525391 a 0.73663526,0.73663526 0 0 1 -0.736328,0.738281 H 20.856488 A 0.73663526,0.73663526 0 0 1 20.120159,29.340081 V 28.81469 a 0.73663526,0.73663526 0 0 1 0.736329,-0.736328 z m 0,6 h 22.527343 a 0.73663526,0.73663526 0 0 1 0.736328,0.736328 v 0.525391 a 0.73663526,0.73663526 0 0 1 -0.736328,0.738281 H 20.856488 A 0.73663526,0.73663526 0 0 1 20.120159,35.340081 V 34.81469 a 0.73663526,0.73663526 0 0 1 0.736329,-0.736328 z m 0,6 h 22.527343 a 0.73663526,0.73663526 0 0 1 0.736328,0.736328 v 0.525391 a 0.73663526,0.73663526 0 0 1 -0.736328,0.738281 H 20.856488 A 0.73663526,0.73663526 0 0 1 20.120159,41.340081 V 40.81469 a 0.73663526,0.73663526 0 0 1 0.736329,-0.736328 z m 0,6 h 14.527343 a 0.73663526,0.73663526 0 0 1 0.736328,0.736328 v 0.525391 a 0.73663526,0.73663526 0 0 1 -0.736328,0.738281 H 20.856488 A 0.73663526,0.73663526 0 0 1 20.120159,47.340081 V 46.81469 a 0.73663526,0.73663526 0 0 1 0.736329,-0.736328 z" />
</svg>
