<?xml version="1.0" encoding="UTF-8" standalone="no"?>
<svg
   width="64"
   height="64"
   version="1.1"
   id="svg4"
   sodipodi:docname="logisim-icon.svg"
   inkscape:version="1.3.2 (091e20ef0f, 2023-11-25, custom)"
   xmlns:inkscape="http://www.inkscape.org/namespaces/inkscape"
   xmlns:sodipodi="http://sodipodi.sourceforge.net/DTD/sodipodi-0.dtd"
   xmlns:xlink="http://www.w3.org/1999/xlink"
   xmlns="http://www.w3.org/2000/svg"
   xmlns:svg="http://www.w3.org/2000/svg">
  <defs
     id="defs4">
    <linearGradient
       id="linearGradient27"
       inkscape:collect="always">
      <stop
         style="stop-color:#3f3f3f;stop-opacity:1;"
         offset="0"
         id="stop27" />
      <stop
         style="stop-color:#242424;stop-opacity:1;"
         offset="1"
         id="stop28" />
    </linearGradient>
    <filter
       inkscape:collect="always"
       style="color-interpolation-filters:sRGB"
       id="filter27"
       x="-0.06496754"
       y="-0.06958645"
       width="1.1299351"
       height="1.1391729">
      <feGaussianBlur
         inkscape:collect="always"
         stdDeviation="1.5309245"
         id="feGaussianBlur27" />
    </filter>
    <radialGradient
       inkscape:collect="always"
       xlink:href="#linearGradient27"
       id="radialGradient28"
       cx="27.926189"
       cy="31.964846"
       fx="27.926189"
       fy="31.964846"
       r="13.146128"
       gradientTransform="matrix(2.0017213,0,0,2.1447011,-32.995705,-36.630435)"
       gradientUnits="userSpaceOnUse" />
  </defs>
  <sodipodi:namedview
     id="namedview4"
     pagecolor="#ffffff"
     bordercolor="#000000"
     borderopacity="0.25"
     inkscape:showpageshadow="2"
     inkscape:pageopacity="0.0"
     inkscape:pagecheckerboard="0"
     inkscape:deskcolor="#d1d1d1"
     inkscape:zoom="9.1260969"
     inkscape:cx="22.956145"
     inkscape:cy="24.764146"
     inkscape:window-width="1920"
     inkscape:window-height="1020"
     inkscape:window-x="0"
     inkscape:window-y="0"
     inkscape:window-maximized="1"
     inkscape:current-layer="svg4" />
  <circle
     style="fill:#cecece;stroke-width:0.939009;fill-opacity:1"
     cx="32"
     cy="31.999811"
     r="26.292257"
     id="circle2" />
  <path
     id="rect2"
     style="fill:#008eff;stroke-width:0.939009;fill-opacity:1"
     d="M 6.6464844 20.730469 C 5.0858527 20.730469 3.8300781 21.986243 3.8300781 23.546875 C 3.8300781 25.107507 5.0858527 26.363281 6.6464844 26.363281 L 27.304688 26.363281 C 28.865319 26.363281 30.121094 25.107507 30.121094 23.546875 C 30.121094 21.986243 28.865319 20.730469 27.304688 20.730469 L 6.6464844 20.730469 z M 36.695312 29.181641 C 35.134683 29.181641 33.878906 30.437416 33.878906 31.998047 C 33.878906 33.558677 35.134683 34.814453 36.695312 34.814453 L 57.353516 34.814453 C 58.914145 34.814453 60.169922 33.558677 60.169922 31.998047 C 60.169922 30.437416 58.914145 29.181641 57.353516 29.181641 L 36.695312 29.181641 z M 6.6464844 37.632812 C 5.0858542 37.632812 3.8300781 38.888588 3.8300781 40.449219 C 3.8300781 42.009848 5.0858542 43.265625 6.6464844 43.265625 L 27.304688 43.265625 C 28.865317 43.265625 30.121094 42.009848 30.121094 40.449219 C 30.121094 38.888588 28.865317 37.632812 27.304688 37.632812 L 6.6464844 37.632812 z " />
  <path
     style="fill:url(#radialGradient28);stroke-width:0.939009"
     d="M 19.792881,46.085138 C 21.777211,40.360468 22.641812,36.293807 22.609908,32 22.579015,27.842067 21.714412,23.458303 19.792881,17.914862 37.995491,17.914862 46.085138,32 46.085138,32 c 0,0 -8.089645,14.085138 -26.292257,14.085138 z"
     id="path4" />
  <path
     id="path27"
     style="color:#000000;fill:#000000;stroke:#000000;stroke-opacity:1;stroke-width:0;stroke-dasharray:none;fill-opacity:1;filter:url(#filter27)"
     d="M 32 5.5996094 C 21.496134 5.5993253 12.428342 11.739945 8.1777344 20.623047 L 6.6464844 20.623047 C 5.0287292 20.623047 3.7226563 21.92912 3.7226562 23.546875 C 3.7226562 25.01197 4.7954174 26.218377 6.1992188 26.433594 C 5.8133183 28.228957 5.5995578 30.089071 5.5996094 32 C 5.5995578 33.909384 5.8119942 35.7684 6.1972656 37.5625 C 4.7944021 37.77852 3.7226563 38.984788 3.7226562 40.449219 C 3.7226562 42.066973 5.0287292 43.373047 6.6464844 43.373047 L 8.1757812 43.373047 C 12.425593 52.258283 21.494581 58.400675 32 58.400391 C 45.638733 58.400759 56.861408 48.052658 58.251953 34.78125 C 59.42852 34.403141 60.277344 33.302166 60.277344 31.998047 C 60.277344 30.694578 59.429558 29.593486 58.253906 29.214844 C 56.862531 15.944324 45.638109 5.5992404 32 5.5996094 z M 32 5.8144531 C 45.499403 5.8140879 56.599909 16.031992 58.021484 29.152344 C 57.806722 29.102293 57.583774 29.074219 57.353516 29.074219 L 44.072266 29.074219 C 43.420952 28.29607 42.630785 27.426507 41.662109 26.501953 C 41.340819 26.195298 41.005347 25.885064 40.648438 25.572266 C 40.324877 25.288694 39.98397 25.005436 39.630859 24.720703 C 39.543005 24.649706 39.452986 24.57874 39.363281 24.507812 C 39.091758 24.293571 38.811891 24.079726 38.523438 23.867188 C 38.417233 23.788785 38.315556 23.708885 38.207031 23.630859 C 37.851218 23.375488 37.482295 23.122548 37.101562 22.873047 C 36.947857 22.77218 36.786722 22.675762 36.628906 22.576172 C 36.362176 22.40805 36.09095 22.241901 35.8125 22.078125 C 35.642482 21.978033 35.473261 21.8775 35.298828 21.779297 C 34.97565 21.59749 34.643003 21.420441 34.304688 21.246094 C 34.042989 21.111146 33.774768 20.98136 33.503906 20.851562 C 33.203457 20.707643 32.899602 20.566508 32.587891 20.429688 C 32.377497 20.337331 32.164797 20.247013 31.949219 20.158203 C 31.607625 20.01745 31.25889 19.883001 30.904297 19.751953 C 30.723458 19.685143 30.547537 19.614871 30.363281 19.550781 C 30.356209 19.548321 30.348874 19.545424 30.341797 19.542969 C 29.844377 19.370298 29.330853 19.209667 28.808594 19.058594 C 28.609616 19.001096 28.405749 18.948637 28.203125 18.894531 C 27.792932 18.784863 27.37433 18.684717 26.949219 18.589844 C 26.719412 18.538632 26.493979 18.482174 26.259766 18.435547 C 26.184114 18.420459 26.10736 18.407174 26.03125 18.392578 C 25.624768 18.314774 25.212633 18.242913 24.792969 18.179688 C 24.7309 18.170315 24.669778 18.161385 24.607422 18.152344 C 24.140057 18.084737 23.665313 18.024838 23.181641 17.976562 C 22.853959 17.943761 22.522658 17.915981 22.1875 17.892578 C 22.181658 17.89217 22.175766 17.89103 22.169922 17.890625 C 22.150637 17.889294 22.130638 17.888018 22.111328 17.886719 C 21.781096 17.864412 21.446871 17.84873 21.109375 17.835938 C 21.044307 17.833481 20.979403 17.83022 20.914062 17.828125 C 20.543967 17.816205 20.171768 17.808594 19.792969 17.808594 L 19.642578 17.808594 L 19.691406 17.951172 C 20.012525 18.877568 20.290612 19.757651 20.552734 20.623047 L 8.421875 20.623047 C 12.657101 11.863181 21.616587 5.8141722 32 5.8144531 z M 19.945312 18.037109 C 20.218204 18.038374 20.489518 18.043294 20.757812 18.050781 C 20.762326 18.050907 20.766972 18.050654 20.771484 18.050781 C 20.772779 18.050818 20.774097 18.050744 20.775391 18.050781 C 21.049363 18.058566 21.320653 18.069912 21.589844 18.083984 C 22.130802 18.112263 22.661855 18.152651 23.183594 18.205078 C 23.686076 18.25557 24.179294 18.317292 24.664062 18.388672 C 25.258792 18.476384 25.838008 18.582495 26.40625 18.699219 C 26.623905 18.74386 26.83699 18.793185 27.050781 18.841797 C 27.460017 18.935008 27.862675 19.033657 28.257812 19.140625 C 28.447678 19.191935 28.639546 19.240627 28.826172 19.294922 C 29.369964 19.4534 29.901541 19.62475 30.417969 19.806641 C 30.547155 19.852064 30.671346 19.900497 30.798828 19.947266 C 31.224404 20.103666 31.640197 20.267185 32.046875 20.4375 C 32.187805 20.496412 32.33008 20.554796 32.46875 20.615234 C 32.973275 20.835562 33.468566 21.062386 33.943359 21.300781 C 33.944634 21.301421 33.945991 21.302094 33.947266 21.302734 C 33.953335 21.305777 33.958779 21.309455 33.964844 21.3125 C 34.456385 21.559807 34.928764 21.817206 35.388672 22.080078 C 35.455614 22.118271 35.521616 22.156838 35.587891 22.195312 C 36.541102 22.749683 37.429324 23.329783 38.246094 23.923828 C 40.783079 25.769004 42.669087 27.721335 43.943359 29.25 L 43.974609 29.289062 C 44.897591 30.400044 45.467845 31.237769 45.746094 31.669922 C 45.79876 31.754411 45.88517 31.88299 45.902344 31.912109 C 45.916844 31.936144 45.95254 31.9957 45.955078 32 C 45.95169 32.005745 45.907546 32.074641 45.882812 32.115234 C 45.867647 32.140789 45.806618 32.235312 45.773438 32.289062 C 45.5047 32.709112 44.922988 33.56952 43.978516 34.707031 L 43.947266 34.746094 C 42.673804 36.274666 40.789048 38.226055 38.251953 40.072266 C 37.448388 40.657009 36.574371 41.230696 35.638672 41.777344 C 35.543138 41.833052 35.446537 41.888238 35.349609 41.943359 C 34.905519 42.196364 34.45004 42.445083 33.976562 42.683594 C 33.967809 42.688003 33.959935 42.692862 33.951172 42.697266 C 33.949332 42.698189 33.947153 42.698296 33.945312 42.699219 C 33.476073 42.934908 32.98852 43.158892 32.490234 43.376953 C 32.330961 43.446531 32.168119 43.51252 32.005859 43.580078 C 31.652423 43.727493 31.289537 43.86888 30.921875 44.005859 C 30.738702 44.073972 30.559767 44.145617 30.373047 44.210938 C 29.873349 44.386086 29.359229 44.549864 28.833984 44.703125 C 28.636113 44.760754 28.431985 44.812918 28.230469 44.867188 C 27.866902 44.965274 27.496577 45.056104 27.121094 45.142578 C 26.869748 45.200356 26.619988 45.260227 26.363281 45.3125 C 25.810284 45.42531 25.24795 45.525962 24.669922 45.611328 C 24.183316 45.683107 23.690007 45.746149 23.185547 45.796875 C 22.66385 45.849335 22.132712 45.889657 21.591797 45.917969 C 21.323273 45.932023 21.05258 45.943374 20.779297 45.951172 C 20.777329 45.951228 20.775405 45.951116 20.773438 45.951172 C 20.76567 45.951393 20.757772 45.950956 20.75 45.951172 C 20.484252 45.95853 20.21557 45.96359 19.945312 45.964844 C 20.038404 45.694157 20.109844 45.452464 20.197266 45.189453 C 20.385046 44.629307 20.564728 44.07789 20.730469 43.546875 C 20.747856 43.49092 20.769919 43.428731 20.787109 43.373047 L 20.789062 43.373047 L 20.8125 43.296875 L 20.855469 43.158203 L 20.853516 43.158203 C 20.93946 42.87707 21.019524 42.604256 21.099609 42.330078 C 21.137718 42.199273 21.180098 42.062837 21.216797 41.933594 C 21.648463 40.419306 21.988645 39.004106 22.228516 37.652344 L 22.25 37.525391 L 22.248047 37.525391 C 22.261644 37.447079 22.272169 37.370943 22.285156 37.292969 C 22.328594 37.034126 22.367548 36.777017 22.404297 36.521484 C 22.427427 36.359288 22.452186 36.196283 22.472656 36.035156 C 22.518437 35.678101 22.557035 35.32384 22.589844 34.970703 C 22.600426 34.855558 22.609914 34.739886 22.619141 34.625 C 22.649416 34.252252 22.671438 33.881185 22.6875 33.509766 C 22.691385 33.418775 22.694217 33.327339 22.697266 33.236328 C 22.711238 32.825004 22.719869 32.413495 22.716797 32 C 22.713631 31.573948 22.698885 31.144897 22.677734 30.712891 C 22.675627 30.671157 22.674155 30.62969 22.671875 30.587891 C 22.648191 30.140602 22.61369 29.688352 22.570312 29.232422 C 22.534018 28.850939 22.483959 28.461158 22.433594 28.072266 C 22.416189 27.938917 22.399873 27.806145 22.380859 27.671875 C 22.329517 27.307835 22.270817 26.938244 22.207031 26.566406 C 22.201532 26.534165 22.196994 26.503003 22.191406 26.470703 L 22.193359 26.470703 L 22.171875 26.345703 L 22.15625 26.255859 C 22.124256 26.076626 22.091567 25.8962 22.056641 25.714844 C 22.054234 25.702345 22.051249 25.690243 22.048828 25.677734 C 22.02366 25.548591 21.997354 25.417329 21.970703 25.287109 C 21.881056 24.846266 21.78274 24.399771 21.675781 23.945312 C 21.653139 23.849577 21.630837 23.754572 21.607422 23.658203 C 21.604033 23.644257 21.601061 23.629194 21.597656 23.615234 C 21.471495 23.0957 21.33254 22.564584 21.183594 22.025391 C 21.168289 21.970165 21.152264 21.914821 21.136719 21.859375 C 21.029956 21.477413 20.919097 21.09185 20.800781 20.699219 L 20.779297 20.623047 L 20.775391 20.623047 C 20.750371 20.5403 20.718806 20.450384 20.693359 20.367188 C 20.554531 19.915866 20.402119 19.451221 20.248047 18.984375 C 20.143941 18.666064 20.057547 18.363876 19.945312 18.037109 z M 6.6464844 20.837891 L 20.615234 20.837891 C 21.19382 22.76739 21.625145 24.556966 21.929688 26.255859 L 6.6464844 26.255859 C 6.5489155 26.255859 6.4492229 26.239242 6.3378906 26.226562 L 6.2421875 26.214844 L 6.2402344 26.222656 C 4.9322017 26.027903 3.9375 24.911784 3.9375 23.546875 C 3.9375 22.043377 5.1429853 20.837891 6.6464844 20.837891 z M 6.4179688 26.458984 C 6.4937515 26.464842 6.5691692 26.470703 6.6464844 26.470703 L 21.96875 26.470703 C 22.220365 27.918529 22.387752 29.308168 22.460938 30.660156 C 22.485333 31.110819 22.49866 31.556764 22.501953 32 C 22.505101 32.42355 22.497671 32.844426 22.482422 33.265625 C 22.480486 33.321652 22.478817 33.377576 22.476562 33.433594 C 22.420045 34.778948 22.270261 36.123994 22.025391 37.525391 L 6.6464844 37.525391 C 6.5685102 37.525391 6.4924303 37.531152 6.4160156 37.537109 C 6.0307098 35.750264 5.8144017 33.90193 5.8144531 32 C 5.8144017 30.096636 6.0320378 28.247131 6.4179688 26.458984 z M 44.25 29.289062 L 57.353516 29.289062 C 57.622385 29.289062 57.87694 29.337622 58.126953 29.412109 L 58.279297 29.458984 L 58.279297 29.453125 C 59.321658 29.829393 60.0625 30.820912 60.0625 31.998047 C 60.0625 33.175181 59.321658 34.166701 58.279297 34.542969 L 58.279297 34.535156 L 58.126953 34.582031 C 57.876309 34.656761 57.622133 34.707031 57.353516 34.707031 L 44.253906 34.707031 C 45.44866 33.251537 46.043624 32.274579 46.121094 32.142578 C 46.126561 32.133262 46.17765 32.054835 46.177734 32.054688 L 46.177734 32.052734 L 46.208984 32 L 46.177734 31.947266 C 46.177734 31.947266 46.177736 31.945315 46.177734 31.945312 C 46.177734 31.945312 46.071298 31.773472 45.916016 31.535156 C 45.838644 31.413255 45.802667 31.357366 45.673828 31.167969 C 45.66976 31.161988 45.664276 31.154481 45.660156 31.148438 C 45.649418 31.132847 45.634119 31.113644 45.623047 31.097656 C 45.458762 30.858129 45.253701 30.576106 45.011719 30.253906 C 44.790453 29.959291 44.537221 29.638788 44.25 29.289062 z M 58.021484 34.84375 C 56.602502 47.966831 45.501346 58.185912 32 58.185547 C 21.615052 58.185828 12.654373 52.13501 8.4199219 43.373047 L 20.564453 43.373047 C 20.298884 44.232172 20.017679 45.109506 19.691406 46.050781 L 19.642578 46.193359 L 19.792969 46.193359 C 20.171768 46.193359 20.543967 46.18575 20.914062 46.173828 C 20.979428 46.171731 21.044282 46.168474 21.109375 46.166016 C 21.446872 46.153222 21.781095 46.137544 22.111328 46.115234 C 22.130782 46.11392 22.150493 46.112675 22.169922 46.111328 C 22.175866 46.110918 22.181558 46.109788 22.1875 46.109375 C 22.521325 46.086062 22.851327 46.05803 23.177734 46.025391 C 23.665483 45.976769 24.144066 45.917885 24.615234 45.849609 C 24.667847 45.841967 24.719077 45.832097 24.771484 45.824219 C 25.207665 45.758803 25.636638 45.686616 26.058594 45.605469 C 26.118466 45.593931 26.178693 45.582155 26.238281 45.570312 C 26.487052 45.52097 26.726898 45.462712 26.970703 45.408203 C 27.402743 45.311453 27.827525 45.207724 28.244141 45.095703 C 28.422987 45.047678 28.603298 45.001845 28.779297 44.951172 C 29.324306 44.794074 29.858946 44.625884 30.376953 44.445312 C 30.547761 44.385806 30.711037 44.321613 30.878906 44.259766 C 31.247141 44.124033 31.60865 43.984079 31.962891 43.837891 C 32.170387 43.752286 32.375438 43.665065 32.578125 43.576172 C 32.916807 43.427631 33.246868 43.274073 33.572266 43.117188 C 33.798717 43.007988 34.024131 42.899929 34.244141 42.787109 C 34.600477 42.604457 34.949433 42.417496 35.289062 42.226562 C 35.482327 42.117827 35.669573 42.007528 35.857422 41.896484 C 36.10594 41.749736 36.34875 41.601397 36.587891 41.451172 C 36.765405 41.339515 36.94485 41.228506 37.117188 41.115234 C 37.480322 40.876915 37.833406 40.636269 38.173828 40.392578 C 38.31558 40.29092 38.45008 40.188229 38.587891 40.085938 C 38.846655 39.894241 39.098729 39.702812 39.34375 39.509766 C 39.445962 39.42907 39.548621 39.348365 39.648438 39.267578 C 39.997314 38.985827 40.334342 38.704404 40.654297 38.423828 C 42.086737 37.16769 43.209486 35.957872 44.076172 34.921875 L 57.353516 34.921875 C 57.583774 34.921875 57.806722 34.893801 58.021484 34.84375 z M 6.6464844 37.740234 L 21.986328 37.740234 C 21.910194 38.160339 21.825105 38.585796 21.730469 39.019531 C 21.44656 40.320738 21.079117 41.689711 20.628906 43.158203 L 6.6464844 43.158203 C 5.1429853 43.158203 3.9375 41.952717 3.9375 40.449219 C 3.9375 39.08497 4.9311867 37.968991 6.2382812 37.773438 L 6.2402344 37.78125 L 6.3359375 37.769531 C 6.447678 37.756741 6.5480883 37.740234 6.6464844 37.740234 z " />
</svg>
