<?xml version="1.0" encoding="UTF-8" standalone="no"?>
<!-- Created with Inkscape (http://www.inkscape.org/) -->

<svg
   version="1.1"
   id="svg1"
   width="64"
   height="64"
   viewBox="0 0 64 64"
   sodipodi:docname="lutris_baldurs-gate-3.svg"
   inkscape:version="1.3.2 (091e20ef0f, 2023-11-25, custom)"
   xmlns:inkscape="http://www.inkscape.org/namespaces/inkscape"
   xmlns:sodipodi="http://sodipodi.sourceforge.net/DTD/sodipodi-0.dtd"
   xmlns:xlink="http://www.w3.org/1999/xlink"
   xmlns="http://www.w3.org/2000/svg"
   xmlns:svg="http://www.w3.org/2000/svg">
  <defs
     id="defs1">
    <linearGradient
       id="linearGradient2"
       inkscape:collect="always">
      <stop
         style="stop-color:#ff1100;stop-opacity:1;"
         offset="0"
         id="stop2" />
      <stop
         style="stop-color:#000000;stop-opacity:1;"
         offset="1"
         id="stop3" />
    </linearGradient>
    <inkscape:path-effect
       effect="fillet_chamfer"
       id="path-effect18"
       is_visible="true"
       lpeversion="1"
       nodesatellites_param="F,0,0,1,0,0,0,1 @ F,0,0,1,0,0,0,1 @ F,0,0,1,0,0,0,1 @ F,0,0,1,0,0,0,1 @ F,0,1,1,0,0,0,1 @ F,0,1,1,0,0,0,1 @ F,0,1,1,0,0,0,1 @ F,0,0,1,0,0,0,1 @ F,0,0,1,0,0,0,1 @ F,0,0,1,0,0,0,1"
       radius="0"
       unit="px"
       method="auto"
       mode="F"
       chamfer_steps="1"
       flexible="false"
       use_knot_distance="true"
       apply_no_radius="true"
       apply_with_radius="true"
       only_selected="false"
       hide_knots="false" />
    <linearGradient
       id="linearGradient4"
       inkscape:collect="always">
      <stop
         style="stop-color:#ffc54e;stop-opacity:1;"
         offset="0"
         id="stop4" />
      <stop
         style="stop-color:#ff8732;stop-opacity:1;"
         offset="1"
         id="stop5" />
    </linearGradient>
    <radialGradient
       inkscape:collect="always"
       xlink:href="#linearGradient4"
       id="radialGradient15"
       gradientUnits="userSpaceOnUse"
       gradientTransform="matrix(0,2.0098461,-1.597588,0,64.618691,-69.216226)"
       cx="36.208553"
       cy="20.482393"
       fx="36.208553"
       fy="20.482393"
       r="28.114645" />
    <filter
       inkscape:collect="always"
       style="color-interpolation-filters:sRGB"
       id="filter18"
       x="-0.085219192"
       y="-0.066755868"
       width="1.1704384"
       height="1.1335111">
      <feGaussianBlur
         inkscape:collect="always"
         stdDeviation="1.8374484"
         id="feGaussianBlur18" />
    </filter>
    <radialGradient
       inkscape:collect="always"
       xlink:href="#linearGradient2"
       id="radialGradient3"
       cx="30.052742"
       cy="9.2663374"
       fx="30.052742"
       fy="9.2663374"
       r="22.130752"
       gradientTransform="matrix(0,4.0342036,-5.1557347,0,77.827521,-118.2709)"
       gradientUnits="userSpaceOnUse" />
    <filter
       inkscape:collect="always"
       style="color-interpolation-filters:sRGB"
       id="filter3"
       x="-0.074010278"
       y="-0.060804527"
       width="1.1477602"
       height="1.1189844">
      <feGaussianBlur
         inkscape:collect="always"
         stdDeviation="1.5531758"
         id="feGaussianBlur3" />
    </filter>
  </defs>
  <sodipodi:namedview
     id="namedview1"
     pagecolor="#545454"
     bordercolor="#eeeeee"
     borderopacity="1"
     inkscape:showpageshadow="0"
     inkscape:pageopacity="0"
     inkscape:pagecheckerboard="0"
     inkscape:deskcolor="#505050"
     inkscape:zoom="11.313708"
     inkscape:cx="29.300737"
     inkscape:cy="35.04598"
     inkscape:window-width="1920"
     inkscape:window-height="1020"
     inkscape:window-x="0"
     inkscape:window-y="0"
     inkscape:window-maximized="1"
     inkscape:current-layer="svg1" />
  <path
     id="path13"
     style="fill:url(#radialGradient15);fill-opacity:1;stroke:none;stroke-width:0.146854;stroke-linecap:round;stroke-linejoin:round;stroke-miterlimit:4.6"
     d="M 54.112719,3.6536275 C 49.404934,9.7128344 42.374293,13.90017 38.617008,15.421107 c -0.714547,2.344026 1.153699,1.859725 1.921585,3.155156 -0.938778,5.800234 -0.121415,32.901674 -0.121415,32.901674 0,0 4.268576,-12.028442 5.350327,-17.439961 1.081754,-5.411515 1.392218,-15.429336 1.392218,-15.429336 0.71788,-4.023074 6.307216,-6.532218 6.952996,-14.9550125 z M 9.8321746,3.6908662 c 0.6457804,8.4227918 6.2351184,10.9303208 6.9529974,14.9533928 0,0 0.310464,10.019441 1.392219,15.430957 1.081752,5.411519 5.351945,17.439959 5.351945,17.439959 0,0 0.817363,-27.101438 -0.121414,-32.901674 0.767886,-1.29543 2.634514,-0.811129 1.919966,-3.155154 C 21.570603,13.937408 14.539963,9.7500731 9.8321746,3.6908662 Z M 31.983221,6.20819 c -1.079217,5.246097 -2.219876,10.669703 -4.306161,15.683498 0.643396,7.863132 0.895558,15.755408 0.924367,23.643424 1.751156,4.701206 2.6057,9.761828 3.381794,14.645811 0.78129,-4.952815 1.630825,-9.945074 3.381796,-14.661998 C 35.393757,37.63094 35.644426,29.738628 36.287766,21.8755 34.22891,16.852976 33.004333,11.525238 31.983221,6.20819 Z"
     sodipodi:nodetypes="ccccsccccsccccccccccc" />
  <path
     id="path13-1"
     style="mix-blend-mode:normal;fill:none;fill-opacity:1;stroke:#000000;stroke-width:0.285708;stroke-linecap:round;stroke-linejoin:round;stroke-miterlimit:4.6;stroke-dasharray:none;stroke-opacity:1;filter:url(#filter18)"
     d="M 67.671558,6.8603894 C 61.991695,14.170723 53.509346,19.222672 48.976246,21.057656 c -0.862091,2.828027 1.391917,2.243726 2.318359,3.806641 -1.13262,6.997884 -0.146484,39.695312 -0.146484,39.695312 0,0 5.149962,-14.512112 6.455078,-21.041016 1.305116,-6.528902 1.679687,-18.615234 1.679687,-18.615234 0.86611,-4.853769 7.60955,-7.88101 8.388672,-18.0429696 z m -53.423723,0.044922 c 0.779123,10.1619586 7.522562,13.1872466 8.388672,18.0410166 0,0 0.37457,12.088286 1.679688,18.617187 1.305115,6.528905 6.457031,21.041016 6.457031,21.041016 0,0 0.986134,-32.697427 -0.146484,-39.695312 0.926441,-1.562915 3.178496,-0.978613 2.316406,-3.806641 C 28.410047,19.267594 19.927699,14.215643 14.247835,6.9053114 Z m 26.72486,3.0371092 c -1.302057,6.3293284 -2.678243,12.8728174 -5.195312,18.9218764 0.776247,9.486733 1.080476,19.008632 1.115234,28.52539 2.11274,5.671924 3.143733,11.777478 4.080078,17.669922 0.942612,-5.975489 1.967563,-11.998564 4.080078,-17.689453 0.03468,-9.51672 0.337103,-19.038662 1.113281,-28.525391 C 43.68208,22.785175 42.204648,16.35735 40.972695,9.9424206 Z"
     transform="matrix(0.82885544,0,0,0.82885544,-1.9496679,-1.997808)"
     sodipodi:nodetypes="ccccsccccsccccccccccc" />
  <path
     id="path10"
     style="opacity:0.54482852;mix-blend-mode:overlay;fill:url(#radialGradient3);stroke:none;stroke-width:0.146854;stroke-linecap:round;stroke-linejoin:round;stroke-miterlimit:4.6"
     d="M 9.8613156,3.7345695 C 13.882701,10.706972 19.181904,16.005598 25.227519,15.413014 21.460595,13.868105 14.533303,9.7207735 9.8613156,3.7345695 Z M 54.12282,3.6386137 C 50.076665,10.680942 44.7291,16.039582 38.625489,15.383429 c -0.05782,0.191654 -0.221447,0.749339 -0.139221,1.165578 0.06661,0.674753 4.976817,0.745388 5.48631,1.34851 0.261035,6.050429 -3.545299,33.565407 -3.545299,33.565407 0,0 4.268575,-12.028444 5.350326,-17.43996 1.081753,-5.411516 1.392218,-15.429339 1.392218,-15.429339 0.71788,-4.023072 6.307217,-6.532215 6.952997,-14.9550113 z M 31.986673,6.2307095 c 8.64e-4,-0.00309 -0.0048,53.9743535 -0.0048,53.9743535 0.781291,-4.952816 1.635683,-9.946693 3.386654,-14.663619 0.02871,-7.887985 0.279372,-15.780299 0.92271,-23.643424 C 34.232388,16.875495 33.007812,11.547759 31.9867,6.2307095 Z M 25.470348,16.317957 c -1.48e-4,0.0871 -3.48e-4,0.175577 -0.01619,0.255779 -0.06661,0.674752 -4.975199,0.745389 -5.484692,1.348509 -0.261037,6.050424 3.542061,33.521699 3.542061,33.521698 l 0.0065,0.06476 c 0,0 0.817361,-27.101447 -0.121414,-32.901675 0.653802,-1.102975 2.098299,-0.922217 2.073757,-2.289065 z"
     sodipodi:nodetypes="ccccccccscccccccccccccccc" />
  <path
     id="path1"
     style="mix-blend-mode:normal;fill:none;fill-opacity:1;stroke:#ffde00;stroke-width:0.636849;stroke-linecap:butt;stroke-linejoin:bevel;stroke-miterlimit:4.6;stroke-dasharray:none;stroke-opacity:1;filter:url(#filter3)"
     d="M 59.140719,-2.0777192 C 54.015007,4.8539823 50.953696,8.3127506 42.127564,9.7790985 m -0.28457,2.0066955 c 0.509536,1.042073 5.042819,0.296499 5.884048,1.292317 0.332481,7.706414 -3.532466,35.174288 -3.589373,36.689398 M 5.1250553,-3.0606589 C 9.6466445,4.1804618 15.081675,8.705981 22.407636,9.7927969 m 10.07222,-6.907669 -0.08586,58.1329341 M 22.589952,11.922676 c -0.509536,1.042073 -4.886251,0.09805 -5.727481,1.093865 -0.332481,7.706414 3.980137,35.908251 4.037044,37.423361"
     sodipodi:nodetypes="cccccccccccc"
     transform="matrix(0.78511548,0,0,0.78511548,6.5195342,7.7513062)" />
</svg>
