<?xml version="1.0" encoding="UTF-8" standalone="no"?>
<svg
   width="64"
   height="64"
   version="1"
   id="svg9"
   sodipodi:docname="multimedia-photo-manager.svg"
   inkscape:version="1.3.2 (091e20ef0f, 2023-11-25, custom)"
   xmlns:inkscape="http://www.inkscape.org/namespaces/inkscape"
   xmlns:sodipodi="http://sodipodi.sourceforge.net/DTD/sodipodi-0.dtd"
   xmlns:xlink="http://www.w3.org/1999/xlink"
   xmlns="http://www.w3.org/2000/svg"
   xmlns:svg="http://www.w3.org/2000/svg">
  <defs
     id="defs9">
    <linearGradient
       id="linearGradient10"
       inkscape:collect="always">
      <stop
         style="stop-color:#00e4ff;stop-opacity:1;"
         offset="0"
         id="stop12" />
      <stop
         style="stop-color:#007dff;stop-opacity:1;"
         offset="1"
         id="stop13" />
    </linearGradient>
    <radialGradient
       inkscape:collect="always"
       xlink:href="#linearGradient9"
       id="radialGradient11"
       cx="3.0215111"
       cy="58.453354"
       fx="3.0215111"
       fy="58.453354"
       r="28"
       gradientTransform="matrix(4.5834844,0.54868431,-0.24350209,2.0341168,-0.17198317,-76.563501)"
       gradientUnits="userSpaceOnUse" />
    <linearGradient
       id="linearGradient9"
       inkscape:collect="always">
      <stop
         style="stop-color:#c02800;stop-opacity:1;"
         offset="0"
         id="stop10" />
      <stop
         style="stop-color:#ff8900;stop-opacity:1;"
         offset="1"
         id="stop11" />
    </linearGradient>
    <radialGradient
       inkscape:collect="always"
       xlink:href="#linearGradient8"
       id="radialGradient9"
       cx="42.286415"
       cy="24.602592"
       fx="42.286415"
       fy="24.602592"
       r="28"
       gradientTransform="matrix(-2.0108556,0.24194533,-0.24469961,-2.033747,135.25132,65.856177)"
       gradientUnits="userSpaceOnUse" />
    <linearGradient
       id="linearGradient8"
       inkscape:collect="always">
      <stop
         style="stop-color:#ffd48e;stop-opacity:1;"
         offset="0"
         id="stop8" />
      <stop
         style="stop-color:#ff803a;stop-opacity:1;"
         offset="1"
         id="stop9" />
    </linearGradient>
    <radialGradient
       inkscape:collect="always"
       xlink:href="#linearGradient10"
       id="radialGradient13"
       cx="38.015156"
       cy="43.094654"
       fx="38.015156"
       fy="43.094654"
       r="15"
       gradientUnits="userSpaceOnUse"
       gradientTransform="matrix(1.7921137,1.9187988,-1.9186526,1.7919772,52.571344,-107.07342)" />
  </defs>
  <sodipodi:namedview
     id="namedview9"
     pagecolor="#ffffff"
     bordercolor="#000000"
     borderopacity="0.25"
     inkscape:showpageshadow="2"
     inkscape:pageopacity="0.0"
     inkscape:pagecheckerboard="0"
     inkscape:deskcolor="#d1d1d1"
     inkscape:zoom="8.9382717"
     inkscape:cx="18.739641"
     inkscape:cy="37.423342"
     inkscape:window-width="1920"
     inkscape:window-height="1017"
     inkscape:window-x="0"
     inkscape:window-y="0"
     inkscape:window-maximized="1"
     inkscape:current-layer="svg9" />
  <g
     id="g1"
     transform="translate(-0.1042568,-0.92202951)">
    <path
       style="opacity:0.2"
       d="m 4,52 v 2 c 0,1.662 1.338,3 3,3 h 50 c 1.662,0 3,-1.338 3,-3 v -2 c 0,1.662 -1.338,3 -3,3 H 7 C 5.338,55 4,53.662 4,52 Z"
       id="path1" />
    <path
       style="fill:url(#radialGradient9)"
       d="M 7,8 C 5.338,8 4,9.338 4,11 V 44 H 60 V 11 C 60,9.338 58.662,8 57,8 Z m 52.188,47 c -0.5061,0.50534 -1.2244,0.8095 -2,0.8125 L 7,56.0005 h 50 c 0.87988,0 1.6396,-0.40044 2.1876,-1 z"
       id="path2" />
    <path
       style="opacity:0.2;fill:#ffffff"
       d="M 7,8 C 5.338,8 4,9.338 4,11 v 1 C 4,10.338 5.338,9 7,9 h 50 c 1.662,0 3,1.338 3,3 V 11 C 60,9.338 58.662,8 57,8 Z"
       id="path3-3" />
    <path
       style="fill:#fffee4;fill-rule:evenodd"
       d="m 44,18 c 4.4182,0 8,3.5818 8,8 0,4.4182 -3.5818,8 -8,8 -4.4182,0 -8,-3.5818 -8,-8 0,-4.4182 3.5818,-8 8,-8 z"
       id="path5" />
    <path
       style="fill:url(#radialGradient11);fill-opacity:1"
       d="m 4,44 v 9 c 0,0 0,3.012 3,3 L 57.2,55.8 C 58.752,55.794 60,54.552 60,53 v -9 z"
       id="path6" />
    <path
       style="fill:#441b00;fill-opacity:1"
       d="m 4,43.999979 v -1.737364 c 0,0 4.0385587,-2.895534 5.1738033,-3.148103 1.1354047,-0.252613 2.4762977,-0.04713 3.8543517,0.235412 1.378034,0.281453 3.435335,1.06208 4.07736,1.085883 0.642105,0.02432 1.804031,-0.06081 3.154124,-0.149414 1.350053,-0.08687 3.585341,-0.166786 4.282568,-0.1581 0.697247,0 2.437896,0.104242 4.293169,0.227226 1.855413,0.123354 4.403773,0.329426 4.981995,0.387085 0.578223,0.05733 1.25787,0.163313 2.02928,0.278869 0.77129,0.114666 2.106683,0.28786 2.578901,0.335485 0.472359,0.04669 1.567502,0.210438 2.838112,0.337396 1.27065,0.126828 3.30413,0.170261 3.891353,0.123352 0.587243,-0.04713 1.818131,-0.519043 3.189925,-0.954253 1.371694,-0.435036 2.884313,-0.833414 4.034759,-0.734905 C 53.527746,40.228448 60,42.262876 60,42.262876 V 44.00024 H 10.798067 Z"
       id="path7" />
    <path
       style="opacity:0.291639;fill:#ffffff;stroke-width:1.0383"
       d="m 4,44 v 1.078057 H 60 V 44 Z"
       id="path8-6" />
  </g>
  <path
     style="opacity:0.2;fill:#ffffff"
     d="M 7 8 C 5.3380056 8 4 9.3380051 4 11 L 4 12 C 4 10.338005 5.3380056 9 7 9 L 57 9 C 58.661995 9 60 10.338005 60 12 L 60 11 C 60 9.3380051 58.661995 8 57 8 L 7 8 z"
     id="path3" />
  <path
     style="opacity:0.2;fill-rule:evenodd"
     d="M 63.957999,46.894054 A 14.99995,14.99995 0 0 1 49.000049,61.000007 14.99995,14.99995 0 0 1 34.042099,47.106053 14.99995,14.99995 0 0 0 34.000099,48.00005 14.99995,14.99995 0 0 0 49.000049,63 a 14.99995,14.99995 0 0 0 14.99995,-14.99995 14.99995,14.99995 0 0 0 -0.042,-1.105996 z"
     id="path8" />
  <circle
     style="fill:url(#radialGradient13)"
     cx="49"
     cy="47"
     r="15"
     id="circle8" />
  <path
     style="fill:#ffffff"
     d="M 46 39 L 45 40 L 41.53125 40 C 40.000255 40 40 41.5 40 41.5 L 40 52.5 C 40 54.005988 41.53125 54 41.53125 54 L 56.5 54 C 57.999995 54 58 52.5 58 52.5 L 58 41.5 C 58 39.999993 56.5 40 56.5 40 L 53 40 L 52 39 L 46 39 z M 49 42 C 51.761334 42 54 44.238571 54 47 C 54 49.76143 51.761334 52 49 52 C 46.238667 52 44 49.76143 44 47 C 44 44.238571 46.238667 42 49 42 z M 49 44 C 47.343146 44 46 45.343237 46 47 C 46 48.656862 47.343146 50 49 50 C 50.656835 50 52 48.656801 52 47 C 52 45.343156 50.656835 44 49 44 z"
     id="path9" />
</svg>
