<?xml version="1.0" encoding="UTF-8" standalone="no"?>
<svg
   width="64"
   height="64"
   version="1.1"
   id="svg6"
   sodipodi:docname="mx-live-usb-maker.svg"
   inkscape:version="1.3.2 (091e20ef0f, 2023-11-25, custom)"
   xmlns:inkscape="http://www.inkscape.org/namespaces/inkscape"
   xmlns:sodipodi="http://sodipodi.sourceforge.net/DTD/sodipodi-0.dtd"
   xmlns:xlink="http://www.w3.org/1999/xlink"
   xmlns="http://www.w3.org/2000/svg"
   xmlns:svg="http://www.w3.org/2000/svg">
  <defs
     id="defs6">
    <linearGradient
       id="linearGradient6"
       inkscape:collect="always">
      <stop
         style="stop-color:#01bf69;stop-opacity:1;"
         offset="0"
         id="stop6" />
      <stop
         style="stop-color:#5dfe63;stop-opacity:1;"
         offset="1"
         id="stop11" />
    </linearGradient>
    <radialGradient
       inkscape:collect="always"
       xlink:href="#linearGradient7"
       id="radialGradient8"
       cx="31.468199"
       cy="34.686081"
       fx="31.468199"
       fy="34.686081"
       r="20"
       gradientTransform="matrix(1.6833155,-1.6456476,0.93779953,0.95926518,-54.031297,44.038581)"
       gradientUnits="userSpaceOnUse" />
    <linearGradient
       id="linearGradient7"
       inkscape:collect="always">
      <stop
         style="stop-color:#e1e1e1;stop-opacity:1;"
         offset="0"
         id="stop7" />
      <stop
         style="stop-color:#9b9b9b;stop-opacity:1;"
         offset="1"
         id="stop8" />
    </linearGradient>
    <radialGradient
       inkscape:collect="always"
       xlink:href="#linearGradient8"
       id="radialGradient10"
       cx="9.6674023"
       cy="56.387177"
       fx="9.6674023"
       fy="56.387177"
       r="28"
       gradientTransform="matrix(2.3307489,-0.10075402,0.06713998,1.5531538,-16.650719,-36.07859)"
       gradientUnits="userSpaceOnUse" />
    <linearGradient
       id="linearGradient8"
       inkscape:collect="always">
      <stop
         style="stop-color:#4f4f4f;stop-opacity:1;"
         offset="0"
         id="stop9" />
      <stop
         style="stop-color:#363636;stop-opacity:1;"
         offset="1"
         id="stop10" />
    </linearGradient>
    <radialGradient
       inkscape:collect="always"
       xlink:href="#linearGradient12"
       id="radialGradient14"
       cx="41.835732"
       cy="15.105268"
       fx="41.835732"
       fy="15.105268"
       r="5"
       gradientTransform="matrix(5.8831225,-2.4225104,2.3599688,5.7312389,-238.7499,28.067776)"
       gradientUnits="userSpaceOnUse" />
    <linearGradient
       id="linearGradient12"
       inkscape:collect="always">
      <stop
         style="stop-color:#2f2f2f;stop-opacity:1;"
         offset="0"
         id="stop13" />
      <stop
         style="stop-color:#000000;stop-opacity:1;"
         offset="1"
         id="stop14" />
    </linearGradient>
    <radialGradient
       inkscape:collect="always"
       xlink:href="#linearGradient12"
       id="radialGradient14-6"
       cx="41.835732"
       cy="15.105268"
       fx="41.835732"
       fy="15.105268"
       r="5"
       gradientTransform="matrix(5.8831225,-2.4225104,2.3599688,5.7312389,-260.36405,28.067776)"
       gradientUnits="userSpaceOnUse" />
    <filter
       inkscape:collect="always"
       style="color-interpolation-filters:sRGB"
       id="filter10"
       x="-0.025602717"
       y="-0.37414941"
       width="1.0512054"
       height="1.7482988">
      <feGaussianBlur
         inkscape:collect="always"
         stdDeviation="0.59739672"
         id="feGaussianBlur10" />
    </filter>
    <radialGradient
       inkscape:collect="always"
       xlink:href="#linearGradient6"
       id="radialGradient11"
       cx="20.434387"
       cy="50.954124"
       fx="20.434387"
       fy="50.954124"
       r="14"
       gradientUnits="userSpaceOnUse"
       gradientTransform="matrix(2.6362724,-0.70638705,0.70638705,2.6362724,-69.429557,-68.94024)" />
    <filter
       inkscape:collect="always"
       style="color-interpolation-filters:sRGB"
       id="filter11"
       x="-0.046578005"
       y="-0.046578005"
       width="1.093156"
       height="1.093156">
      <feGaussianBlur
         inkscape:collect="always"
         stdDeviation="0.54341008"
         id="feGaussianBlur11" />
    </filter>
  </defs>
  <sodipodi:namedview
     id="namedview6"
     pagecolor="#ffffff"
     bordercolor="#000000"
     borderopacity="0.25"
     inkscape:showpageshadow="2"
     inkscape:pageopacity="0.0"
     inkscape:pagecheckerboard="0"
     inkscape:deskcolor="#d1d1d1"
     inkscape:zoom="13.8125"
     inkscape:cx="32"
     inkscape:cy="32"
     inkscape:window-width="1920"
     inkscape:window-height="1018"
     inkscape:window-x="0"
     inkscape:window-y="0"
     inkscape:window-maximized="1"
     inkscape:current-layer="svg6" />
  <path
     style="fill:url(#radialGradient8)"
     d="m 12.000001,6.183124 h 40 v 20 h -40 z"
     id="path1" />
  <rect
     style="fill:url(#radialGradient10)"
     width="56"
     height="34"
     x="4.000001"
     y="24.183125"
     rx="2.8"
     ry="2.8340001"
     id="rect1" />
  <rect
     style="fill:url(#radialGradient14)"
     width="10"
     height="6"
     x="38"
     y="10.183124"
     id="rect7"
     ry="1.4617758"
     rx="1.0482268" />
  <rect
     style="fill:url(#radialGradient14-6)"
     width="10"
     height="6"
     x="16.385849"
     y="10.183124"
     id="rect7-3"
     ry="1.4617758"
     rx="1.0482268" />
  <path
     style="opacity:0.386824;filter:url(#filter10)"
     d="m 4.0000011,55.351093 v 1 c 0,1.57 1.2496033,2.832031 2.8007812,2.832031 H 57.19922 c 1.549978,0 2.800781,-1.262031 2.800781,-2.832031 v -1 c 0,1.57 -1.250803,2.832031 -2.800781,2.832031 H 6.8007823 c -1.5511777,0 -2.800781,-1.262031 -2.8007812,-2.832031 z"
     id="path4-3" />
  <path
     d="m32 29a14 14 0 0 0-14 14 14 14 0 0 0 14 14 14 14 0 0 0 14-14 14 14 0 0 0-14-14zm0 2a12 12 0 0 1 12 12 12 12 0 0 1-12 12 12 12 0 0 1-12-12 12 12 0 0 1 12-12zm-2 2c-0.554 0-1 0.446-1 1v6h-6c-0.554 0-1 0.446-1 1v4c0 0.554 0.446 1 1 1h6v6c0 0.554 0.446 1 1 1h4c0.554 0 1-0.446 1-1v-6h6c0.554 0 1-0.446 1-1v-4c0-0.554-0.446-1-1-1h-6v-6c0-0.554-0.446-1-1-1h-4z"
     style="opacity:0.41663569;filter:url(#filter11)"
     id="path4" />
  <g
     id="g6"
     style="fill:url(#radialGradient11)">
    <path
       d="m32 28a14 14 0 0 0-14 14 14 14 0 0 0 14 14 14 14 0 0 0 14-14 14 14 0 0 0-14-14zm0 2a12 12 0 0 1 12 12 12 12 0 0 1-12 12 12 12 0 0 1-12-12 12 12 0 0 1 12-12z"
       style="fill:url(#radialGradient11)"
       id="path5" />
    <rect
       x="29"
       y="32"
       width="6"
       height="20"
       rx="1"
       ry="1"
       style="fill:url(#radialGradient11)"
       id="rect5" />
    <rect
       x="22"
       y="39"
       width="20"
       height="6"
       rx="1"
       ry="1"
       style="fill:url(#radialGradient11)"
       id="rect6" />
  </g>
</svg>
