<?xml version="1.0" encoding="UTF-8" standalone="no"?>
<svg
   width="64"
   height="64"
   version="1"
   id="svg4"
   sodipodi:docname="yast-iscsi-client.svg"
   inkscape:version="1.3.2 (091e20ef0f, 2023-11-25, custom)"
   xmlns:inkscape="http://www.inkscape.org/namespaces/inkscape"
   xmlns:sodipodi="http://sodipodi.sourceforge.net/DTD/sodipodi-0.dtd"
   xmlns:xlink="http://www.w3.org/1999/xlink"
   xmlns="http://www.w3.org/2000/svg"
   xmlns:svg="http://www.w3.org/2000/svg">
  <defs
     id="defs4">
    <filter
       inkscape:collect="always"
       style="color-interpolation-filters:sRGB"
       id="filter1"
       x="-0.051500043"
       y="-0.051500043"
       width="1.1030001"
       height="1.1030001">
      <feGaussianBlur
         inkscape:collect="always"
         stdDeviation="0.81664319"
         id="feGaussianBlur1" />
    </filter>
    <filter
       inkscape:collect="always"
       style="color-interpolation-filters:sRGB"
       id="filter2"
       x="-0.069953985"
       y="-0.069953985"
       width="1.139908"
       height="1.139908">
      <feGaussianBlur
         inkscape:collect="always"
         stdDeviation="1.590593"
         id="feGaussianBlur2" />
    </filter>
    <radialGradient
       inkscape:collect="always"
       xlink:href="#linearGradient5"
       id="radialGradient6"
       cx="3.9041595"
       cy="42.012211"
       fx="3.9041595"
       fy="42.012211"
       r="28"
       gradientUnits="userSpaceOnUse"
       gradientTransform="matrix(2.1449973,1.2384147,-1.2384147,2.1449973,59.571544,-69.456807)" />
    <linearGradient
       id="linearGradient5"
       inkscape:collect="always">
      <stop
         style="stop-color:#8c61d6;stop-opacity:1;"
         offset="0"
         id="stop5" />
      <stop
         style="stop-color:#563187;stop-opacity:1;"
         offset="1"
         id="stop6" />
    </linearGradient>
  </defs>
  <sodipodi:namedview
     id="namedview4"
     pagecolor="#ffffff"
     bordercolor="#000000"
     borderopacity="0.25"
     inkscape:showpageshadow="2"
     inkscape:pageopacity="0.0"
     inkscape:pagecheckerboard="0"
     inkscape:deskcolor="#d1d1d1"
     inkscape:zoom="13.1875"
     inkscape:cx="32.113744"
     inkscape:cy="32"
     inkscape:window-width="1920"
     inkscape:window-height="1020"
     inkscape:window-x="0"
     inkscape:window-y="0"
     inkscape:window-maximized="1"
     inkscape:current-layer="svg4" />
  <rect
     style="fill:url(#radialGradient6)"
     width="56"
     height="56"
     x="4"
     y="4"
     rx="27.999001"
     ry="27.999001"
     id="rect1" />
  <rect
     style="fill:none;stroke:#000000;stroke-width:0.2;stroke-dasharray:none;stroke-opacity:1;filter:url(#filter2)"
     width="56"
     height="56"
     x="4"
     y="4"
     rx="27.999001"
     ry="27.999001"
     id="rect1-5" />
  <path
     style="fill:#ffffff;fill-opacity:1"
     d="m 31.99921,12.00141 c -11.045402,0 -19.999436,8.954033 -19.999436,19.999436 0,11.045403 8.954034,19.999436 19.999436,19.999436 11.045403,0 19.999436,-8.954033 19.999436,-19.999436 0,-11.045403 -8.954033,-19.999436 -19.999436,-19.999436 z m -1.871041,3.988169 c 0.217606,-0.02278 0.491358,0.013 0.710918,0 0.02602,0.104077 -0.154156,0.477495 -0.402333,1.019501 -1.580387,3.452479 -1.673753,7.494845 -0.207026,9.655978 0.265424,0.391827 0.5078,0.764019 0.5078,0.812478 0,0.04848 -0.285708,0.101557 -0.609359,0.101557 -0.759779,2e-6 -1.480088,-0.461669 -2.949135,-1.624954 -0.652606,-0.516766 -1.499382,-0.949898 -1.828074,-1.015596 -0.516148,-0.103117 -0.65255,-0.05844 -1.320275,0.609359 -0.621253,0.62115 -0.812477,0.958653 -0.812477,1.527299 0,2.156385 2.561581,3.866181 7.320105,4.874862 6.462266,1.369638 8.051983,2.597833 8.230238,5.995925 0.2238,4.261114 -2.042602,7.473272 -7.011522,9.960657 -0.593075,0.296976 -0.969881,0.415747 -1.218716,0.511704 -0.110277,-0.0098 -0.198654,0.0098 -0.308585,0 -0.04228,-0.131736 -0.101557,-0.436476 -0.101557,-1.015595 0,-2.263207 -0.890111,-4.595543 -2.234311,-5.898272 -0.360824,-0.349736 -1.369144,-1.089387 -2.234313,-1.624954 -0.865138,-0.535535 -1.739025,-1.15641 -1.93354,-1.421834 -0.322273,-0.440456 -0.345322,-0.709716 -0.09766,-1.523395 0.451347,-1.486086 0.986796,-2.318743 2.031193,-3.25772 0.547536,-0.492268 1.097419,-0.900333 1.218715,-0.910133 0.121337,-0.0098 -0.69814,-0.259778 -1.929633,-0.511703 -1.231431,-0.252413 -3.037278,-0.780072 -3.968638,-1.117157 -1.703081,-0.616232 -4.00215,-1.9113 -4.878767,-2.847573 -0.03706,-0.0397 -0.06936,-0.06642 -0.101559,-0.101557 1.255988,-5.003071 4.780267,-9.10176 9.452858,-11.077812 0.977682,-0.413525 1.986784,-0.696427 3.050696,-0.914039 0.529939,-0.108317 1.077773,-0.151395 1.624954,-0.207026 z m 15.24957,7.624786 c 0.382039,0.236149 1.826446,3.360381 2.238219,4.882674 0.531623,1.965286 0.493144,5.363893 0,7.316199 -0.187695,0.74306 -0.431688,1.436878 -0.511706,1.523396 -0.08002,0.08652 -0.373471,-0.406777 -0.714824,-1.011692 -0.341374,-0.604821 -1.425778,-1.891427 -2.331964,-2.847576 -2.615676,-2.760066 -3.029199,-4.199393 -1.93354,-6.402163 0.552549,-1.110785 2.958139,-3.643313 3.253815,-3.460838 z"
     id="path4" />
  <path
     style="fill:none;stroke:#1800ff;stroke-width:0.2;stroke-dasharray:none;stroke-opacity:1;filter:url(#filter1)"
     d="m 31.99921,11.901354 c -11.045402,0 -19.999436,8.954033 -19.999436,19.999436 0,11.045402 8.954034,19.999436 19.999436,19.999436 11.045403,0 19.999436,-8.954034 19.999436,-19.999436 0,-11.045403 -8.954033,-19.999436 -19.999436,-19.999436 z m -1.871041,3.988169 c 0.217606,-0.02278 0.491358,0.013 0.710918,0 0.02602,0.104077 -0.154156,0.477494 -0.402333,1.019501 -1.580387,3.452479 -1.673753,7.494845 -0.207026,9.655978 0.265424,0.391827 0.5078,0.764019 0.5078,0.812477 0,0.04848 -0.285708,0.101557 -0.609359,0.101557 -0.759779,2e-6 -1.480088,-0.461669 -2.949135,-1.624954 -0.652606,-0.516765 -1.499382,-0.949897 -1.828074,-1.015595 -0.516148,-0.103117 -0.65255,-0.05844 -1.320275,0.609359 -0.621253,0.62115 -0.812477,0.958653 -0.812477,1.527299 0,2.156385 2.561581,3.86618 7.320105,4.874862 6.462266,1.369637 8.051983,2.597833 8.230238,5.995925 0.2238,4.261114 -2.042602,7.473271 -7.011522,9.960657 -0.593075,0.296976 -0.969881,0.415746 -1.218716,0.511704 -0.110277,-0.0098 -0.198654,0.0098 -0.308585,0 -0.04228,-0.131737 -0.101557,-0.436476 -0.101557,-1.015596 0,-2.263206 -0.890111,-4.595542 -2.234311,-5.898271 -0.360824,-0.349737 -1.369144,-1.089388 -2.234313,-1.624955 -0.865138,-0.535534 -1.739025,-1.156409 -1.93354,-1.421833 -0.322273,-0.440456 -0.345322,-0.709716 -0.09766,-1.523396 0.451347,-1.486086 0.986796,-2.318742 2.031193,-3.25772 0.547536,-0.492268 1.097419,-0.900332 1.218715,-0.910132 0.121337,-0.0098 -0.69814,-0.259779 -1.929633,-0.511704 -1.231431,-0.252412 -3.037278,-0.780072 -3.968638,-1.117156 -1.703081,-0.616233 -4.00215,-1.9113 -4.878767,-2.847574 -0.03706,-0.0397 -0.06936,-0.06642 -0.101559,-0.101557 1.255988,-5.003071 4.780267,-9.101759 9.452858,-11.077812 0.977682,-0.413524 1.986784,-0.696426 3.050696,-0.914038 0.529939,-0.108317 1.077773,-0.151396 1.624954,-0.207026 z m 15.24957,7.624785 c 0.382039,0.236149 1.826446,3.360381 2.238219,4.882674 0.531623,1.965287 0.493144,5.363893 0,7.3162 -0.187695,0.743059 -0.431688,1.436878 -0.511706,1.523395 -0.08002,0.08652 -0.373471,-0.406776 -0.714824,-1.011691 -0.341374,-0.604821 -1.425778,-1.891427 -2.331964,-2.847576 -2.615676,-2.760066 -3.029199,-4.199394 -1.93354,-6.402163 0.552549,-1.110785 2.958139,-3.643314 3.253815,-3.460839 z"
     id="path3" />
</svg>
