<?xml version="1.0" encoding="UTF-8" standalone="no"?>
<svg
   width="64"
   height="64"
   version="1"
   id="svg9"
   sodipodi:docname="obsidian.svg"
   inkscape:version="1.3.2 (091e20ef0f, 2023-11-25, custom)"
   xmlns:inkscape="http://www.inkscape.org/namespaces/inkscape"
   xmlns:sodipodi="http://sodipodi.sourceforge.net/DTD/sodipodi-0.dtd"
   xmlns="http://www.w3.org/2000/svg"
   xmlns:svg="http://www.w3.org/2000/svg">
  <defs
     id="defs9">
    <radialGradient
       id="logo-bottom-left"
       cx="0"
       cy="0"
       gradientTransform="matrix(-7.2318058,-27.57892,18.385947,-4.7803462,20.401577,58.206103)"
       gradientUnits="userSpaceOnUse"
       r="1">
      <stop
         offset="0"
         stop-color="#fff"
         stop-opacity=".4"
         id="stop1"
         style="stop-color:#d200ff;stop-opacity:0.80059665;" />
      <stop
         offset="1"
         stop-opacity=".1"
         id="stop2"
         style="stop-color:#0014ff;stop-opacity:0.1;" />
    </radialGradient>
    <radialGradient
       id="logo-top-right"
       cx="0"
       cy="0"
       gradientTransform="matrix(6.128649,-46.455159,34.320434,4.5352003,44.74457,46.463612)"
       gradientUnits="userSpaceOnUse"
       r="1">
      <stop
         offset="0"
         stop-color="#fff"
         stop-opacity=".6"
         id="stop3"
         style="stop-color:#002aff;stop-opacity:0.60000002;" />
      <stop
         offset="1"
         stop-color="#fff"
         stop-opacity=".1"
         id="stop4"
         style="stop-color:#ab00ff;stop-opacity:0.1;" />
    </radialGradient>
    <radialGradient
       id="logo-top-left"
       cx="0"
       cy="0"
       gradientTransform="matrix(8.4575356,-39.100781,26.72091,5.7609301,22.117598,38.226707)"
       gradientUnits="userSpaceOnUse"
       r="1">
      <stop
         offset="0"
         stop-color="#fff"
         stop-opacity=".8"
         id="stop5"
         style="stop-color:#2525ff;stop-opacity:0.80000001;" />
      <stop
         offset="1"
         stop-color="#fff"
         stop-opacity=".4"
         id="stop6"
         style="stop-color:#cd57ff;stop-opacity:0.40000001;" />
    </radialGradient>
    <radialGradient
       id="logo-bottom-right"
       cx="0"
       cy="0"
       gradientTransform="matrix(-11.767006,-19.979396,22.921147,-13.605601,41.717018,63.378683)"
       gradientUnits="userSpaceOnUse"
       r="1">
      <stop
         offset="0"
         stop-color="#fff"
         stop-opacity=".3"
         id="stop7"
         style="stop-color:#c400ff;stop-opacity:0.30000001;" />
      <stop
         offset="1"
         stop-opacity=".3"
         id="stop8"
         style="stop-color:#0d00ff;stop-opacity:0.30000001;" />
    </radialGradient>
    <radialGradient
       id="logo-top-edge"
       cx="0"
       cy="0"
       gradientTransform="matrix(-4.4126273,20.347115,-13.728174,-2.9417515,38.615921,16.310659)"
       gradientUnits="userSpaceOnUse"
       r="1">
      <stop
         offset="0"
         stop-color="#fff"
         stop-opacity="0"
         id="stop9" />
      <stop
         offset="1"
         stop-color="#fff"
         stop-opacity=".2"
         id="stop10" />
    </radialGradient>
    <radialGradient
       id="logo-left-edge"
       cx="0"
       cy="0"
       gradientTransform="matrix(10.786422,10.908995,-23.288866,22.921147,14.223898,27.587373)"
       gradientUnits="userSpaceOnUse"
       r="1">
      <stop
         offset="0"
         stop-color="#fff"
         stop-opacity=".2"
         id="stop11" />
      <stop
         offset="1"
         stop-color="#fff"
         stop-opacity=".4"
         id="stop12" />
    </radialGradient>
    <radialGradient
       id="logo-bottom-edge"
       cx="0"
       cy="0"
       gradientTransform="matrix(1.1031568,15.934487,-33.830142,2.4514596,26.971488,35.407529)"
       gradientUnits="userSpaceOnUse"
       r="1">
      <stop
         offset="0"
         stop-color="#fff"
         stop-opacity=".2"
         id="stop13" />
      <stop
         offset="1"
         stop-color="#fff"
         stop-opacity=".3"
         id="stop14" />
    </radialGradient>
    <radialGradient
       id="logo-middle-edge"
       cx="0"
       cy="0"
       gradientTransform="matrix(-24.26945,-12.74759,40.081364,-76.362967,49.64749,49.527936)"
       gradientUnits="userSpaceOnUse"
       r="1">
      <stop
         offset="0"
         stop-color="#fff"
         stop-opacity=".2"
         id="stop15" />
      <stop
         offset=".5"
         stop-color="#fff"
         stop-opacity=".2"
         id="stop16" />
      <stop
         offset="1"
         stop-color="#fff"
         stop-opacity=".3"
         id="stop17" />
    </radialGradient>
    <clipPath
       clipPathUnits="userSpaceOnUse"
       id="clipPath27">
      <g
         id="g28">
        <path
           d="M 0.64281228,0.62131712 H 63.400178 V 63.378683 H 0.64281228 Z"
           id="path28"
           style="stroke-width:0.122573" />
      </g>
    </clipPath>
    <clipPath
       clipPathUnits="userSpaceOnUse"
       id="clipPath28">
      <g
         id="g29">
        <path
           d="M 0.64281228,0.62131712 H 63.400178 V 63.378683 H 0.64281228 Z"
           id="path29"
           style="stroke-width:0.122573" />
      </g>
    </clipPath>
    <clipPath
       clipPathUnits="userSpaceOnUse"
       id="clipPath29">
      <g
         id="g30">
        <path
           d="M 0.64281228,0.62131712 H 63.400178 V 63.378683 H 0.64281228 Z"
           id="path30"
           style="stroke-width:0.122573" />
      </g>
    </clipPath>
    <clipPath
       clipPathUnits="userSpaceOnUse"
       id="clipPath30">
      <g
         id="g31">
        <path
           d="M 0.64281228,0.62131712 H 63.400178 V 63.378683 H 0.64281228 Z"
           id="path31"
           style="stroke-width:0.122573" />
      </g>
    </clipPath>
    <clipPath
       clipPathUnits="userSpaceOnUse"
       id="clipPath31">
      <g
         id="g32">
        <path
           d="M 0.64281228,0.62131712 H 63.400178 V 63.378683 H 0.64281228 Z"
           id="path32"
           style="stroke-width:0.122573" />
      </g>
    </clipPath>
    <clipPath
       clipPathUnits="userSpaceOnUse"
       id="clipPath33">
      <g
         id="g35">
        <g
           id="g34">
          <path
             d="M 0.64281228,0.62131712 H 63.400178 V 63.378683 H 0.64281228 Z"
             id="path33"
             style="stroke-width:0.122573" />
        </g>
      </g>
    </clipPath>
    <clipPath
       clipPathUnits="userSpaceOnUse"
       id="clipPath35">
      <g
         id="g37">
        <g
           id="g36">
          <path
             d="M 0.64281228,0.62131712 H 63.400178 V 63.378683 H 0.64281228 Z"
             id="path35"
             style="stroke-width:0.122573" />
        </g>
      </g>
    </clipPath>
    <clipPath
       clipPathUnits="userSpaceOnUse"
       id="clipPath37">
      <g
         id="g39">
        <g
           id="g38">
          <path
             d="M 0.64281228,0.62131712 H 63.400178 V 63.378683 H 0.64281228 Z"
             id="path37"
             style="stroke-width:0.122573" />
        </g>
      </g>
    </clipPath>
    <clipPath
       clipPathUnits="userSpaceOnUse"
       id="clipPath39">
      <g
         id="g41">
        <g
           id="g40">
          <path
             d="M 0.64281228,0.62131712 H 63.400178 V 63.378683 H 0.64281228 Z"
             id="path39"
             style="stroke-width:0.122573" />
        </g>
      </g>
    </clipPath>
    <radialGradient
       id="logo-bottom-left-0"
       cx="0"
       cy="0"
       gradientTransform="matrix(-6.2120923,-23.690182,15.793455,-4.1062983,22.037168,54.511114)"
       gradientUnits="userSpaceOnUse"
       r="1">
      <stop
         offset="0"
         stop-color="#fff"
         stop-opacity=".4"
         id="stop1-2" />
      <stop
         offset="1"
         stop-opacity=".1"
         id="stop2-3" />
    </radialGradient>
    <radialGradient
       id="logo-top-right-7"
       cx="0"
       cy="0"
       gradientTransform="matrix(5.264485,-39.904796,29.481116,3.8957189,42.947702,44.424361)"
       gradientUnits="userSpaceOnUse"
       r="1">
      <stop
         offset="0"
         stop-color="#fff"
         stop-opacity=".6"
         id="stop3-5" />
      <stop
         offset="1"
         stop-color="#fff"
         stop-opacity=".1"
         id="stop4-9" />
    </radialGradient>
    <radialGradient
       id="logo-top-left-2"
       cx="0"
       cy="0"
       gradientTransform="matrix(7.2649893,-33.587414,22.953155,4.9486159,23.511224,37.348893)"
       gradientUnits="userSpaceOnUse"
       r="1">
      <stop
         offset="0"
         stop-color="#fff"
         stop-opacity=".8"
         id="stop5-2" />
      <stop
         offset="1"
         stop-color="#fff"
         stop-opacity=".4"
         id="stop6-8" />
    </radialGradient>
    <radialGradient
       id="logo-bottom-right-9"
       cx="0"
       cy="0"
       gradientTransform="matrix(-10.107811,-17.162221,19.689174,-11.687157,40.347047,58.95434)"
       gradientUnits="userSpaceOnUse"
       r="1">
      <stop
         offset="0"
         stop-color="#fff"
         stop-opacity=".3"
         id="stop7-7" />
      <stop
         offset="1"
         stop-opacity=".3"
         id="stop8-3" />
    </radialGradient>
    <radialGradient
       id="logo-top-edge-6"
       cx="0"
       cy="0"
       gradientTransform="matrix(-36,166,-112,-24,310,128.2)"
       gradientUnits="userSpaceOnUse"
       r="1">
      <stop
         offset="0"
         stop-color="#fff"
         stop-opacity="0"
         id="stop9-1" />
      <stop
         offset="1"
         stop-color="#fff"
         stop-opacity=".2"
         id="stop10-2" />
    </radialGradient>
    <radialGradient
       id="logo-left-edge-9"
       cx="0"
       cy="0"
       gradientTransform="matrix(88,89,-190,187,111,220.2)"
       gradientUnits="userSpaceOnUse"
       r="1">
      <stop
         offset="0"
         stop-color="#fff"
         stop-opacity=".2"
         id="stop11-3" />
      <stop
         offset="1"
         stop-color="#fff"
         stop-opacity=".4"
         id="stop12-1" />
    </radialGradient>
    <radialGradient
       id="logo-bottom-edge-9"
       cx="0"
       cy="0"
       gradientTransform="matrix(9,130,-276,20,215,284)"
       gradientUnits="userSpaceOnUse"
       r="1">
      <stop
         offset="0"
         stop-color="#fff"
         stop-opacity=".2"
         id="stop13-4" />
      <stop
         offset="1"
         stop-color="#fff"
         stop-opacity=".3"
         id="stop14-7" />
    </radialGradient>
    <radialGradient
       id="logo-middle-edge-8"
       cx="0"
       cy="0"
       gradientTransform="matrix(-198,-104,327,-623,400,399.2)"
       gradientUnits="userSpaceOnUse"
       r="1">
      <stop
         offset="0"
         stop-color="#fff"
         stop-opacity=".2"
         id="stop15-4" />
      <stop
         offset=".5"
         stop-color="#fff"
         stop-opacity=".2"
         id="stop16-5" />
      <stop
         offset="1"
         stop-color="#fff"
         stop-opacity=".3"
         id="stop17-0" />
    </radialGradient>
    <clipPath
       clipPathUnits="userSpaceOnUse"
       id="clipPath86">
      <g
         id="g87"
         transform="matrix(9.4976052,0,0,9.4976052,14.559577,-31.825603)">
        <path
           d="M -1.5119156,3.3719661 H 52.396411 V 57.280293 H -1.5119156 Z"
           id="path86"
           style="stroke-width:0.10529" />
      </g>
    </clipPath>
    <clipPath
       clipPathUnits="userSpaceOnUse"
       id="clipPath87">
      <g
         id="g88">
        <path
           d="M -1.5119156,3.3719661 H 52.396411 V 57.280293 H -1.5119156 Z"
           id="path87"
           style="stroke-width:0.10529" />
      </g>
    </clipPath>
    <clipPath
       clipPathUnits="userSpaceOnUse"
       id="clipPath88">
      <g
         id="g89">
        <path
           d="M -1.5119156,3.3719661 H 52.396411 V 57.280293 H -1.5119156 Z"
           id="path88"
           style="stroke-width:0.10529" />
      </g>
    </clipPath>
    <clipPath
       clipPathUnits="userSpaceOnUse"
       id="clipPath89">
      <g
         id="g90">
        <path
           d="M -1.5119156,3.3719661 H 52.396411 V 57.280293 H -1.5119156 Z"
           id="path89"
           style="stroke-width:0.10529" />
      </g>
    </clipPath>
    <clipPath
       clipPathUnits="userSpaceOnUse"
       id="clipPath90">
      <g
         id="g91">
        <path
           d="M -1.5119156,3.3719661 H 52.396411 V 57.280293 H -1.5119156 Z"
           id="path90"
           style="stroke-width:0.10529" />
      </g>
    </clipPath>
    <clipPath
       clipPathUnits="userSpaceOnUse"
       id="clipPath91">
      <g
         id="g92">
        <path
           d="M -1.5119156,3.3719661 H 52.396411 V 57.280293 H -1.5119156 Z"
           id="path91"
           style="stroke-width:0.10529" />
      </g>
    </clipPath>
    <radialGradient
       id="logo-bottom-right-9-3"
       cx="0"
       cy="0"
       gradientTransform="matrix(-10.107811,-17.162221,19.689174,-11.687157,40.347047,58.954341)"
       gradientUnits="userSpaceOnUse"
       r="1">
      <stop
         offset="0"
         stop-color="#fff"
         stop-opacity=".3"
         id="stop7-7-6" />
      <stop
         offset="1"
         stop-opacity=".3"
         id="stop8-3-1"
         style="stop-color:#410094;stop-opacity:0.30000001;" />
    </radialGradient>
    <radialGradient
       id="logo-top-left-2-0"
       cx="0"
       cy="0"
       gradientTransform="matrix(7.2649893,-33.587414,22.953155,4.9486159,23.511224,37.348894)"
       gradientUnits="userSpaceOnUse"
       r="1">
      <stop
         offset="0"
         stop-color="#fff"
         stop-opacity=".8"
         id="stop5-2-6"
         style="stop-color:#ffffff;stop-opacity:0.21404234;" />
      <stop
         offset="1"
         stop-color="#fff"
         stop-opacity=".4"
         id="stop6-8-3"
         style="stop-color:#ffffff;stop-opacity:0;" />
    </radialGradient>
    <radialGradient
       id="logo-top-right-7-2"
       cx="0"
       cy="0"
       gradientTransform="matrix(5.264485,-39.904796,29.481116,3.8957189,42.947702,44.424362)"
       gradientUnits="userSpaceOnUse"
       r="1">
      <stop
         offset="0"
         stop-color="#fff"
         stop-opacity=".6"
         id="stop3-5-0" />
      <stop
         offset="1"
         stop-color="#fff"
         stop-opacity=".1"
         id="stop4-9-6" />
    </radialGradient>
    <radialGradient
       id="logo-bottom-left-0-1"
       cx="0"
       cy="0"
       gradientTransform="matrix(-6.2120923,-23.690182,15.793455,-4.1062983,22.037168,54.511115)"
       gradientUnits="userSpaceOnUse"
       r="1">
      <stop
         offset="0"
         stop-color="#fff"
         stop-opacity=".4"
         id="stop1-2-5" />
      <stop
         offset="1"
         stop-opacity=".1"
         id="stop2-3-5" />
    </radialGradient>
    <radialGradient
       id="logo-bottom-left-0-1-9"
       cx="0"
       cy="0"
       gradientTransform="matrix(-6.2120923,-23.690182,15.793455,-4.1062983,21.967726,54.455327)"
       gradientUnits="userSpaceOnUse"
       r="1">
      <stop
         offset="0"
         stop-color="#fff"
         stop-opacity=".4"
         id="stop1-2-5-3" />
      <stop
         offset="1"
         stop-opacity=".1"
         id="stop2-3-5-7" />
    </radialGradient>
    <radialGradient
       id="logo-top-right-7-2-4"
       cx="0"
       cy="0"
       gradientTransform="matrix(5.264485,-39.904796,29.481116,3.8957189,42.87826,44.368574)"
       gradientUnits="userSpaceOnUse"
       r="1">
      <stop
         offset="0"
         stop-color="#fff"
         stop-opacity=".6"
         id="stop3-5-0-5" />
      <stop
         offset="1"
         stop-color="#fff"
         stop-opacity=".1"
         id="stop4-9-6-2" />
    </radialGradient>
    <radialGradient
       id="logo-top-left-2-0-5"
       cx="0"
       cy="0"
       gradientTransform="matrix(7.2649893,-33.587414,22.953155,4.9486159,23.441782,37.293106)"
       gradientUnits="userSpaceOnUse"
       r="1">
      <stop
         offset="0"
         stop-color="#fff"
         stop-opacity=".8"
         id="stop5-2-6-4"
         style="stop-color:#ffffff;stop-opacity:0.21404234;" />
      <stop
         offset="1"
         stop-color="#fff"
         stop-opacity=".4"
         id="stop6-8-3-7"
         style="stop-color:#ffffff;stop-opacity:0;" />
    </radialGradient>
    <radialGradient
       id="logo-bottom-right-9-3-4"
       cx="0"
       cy="0"
       gradientTransform="matrix(-10.107811,-17.162221,19.689174,-11.687157,40.277605,58.898553)"
       gradientUnits="userSpaceOnUse"
       r="1">
      <stop
         offset="0"
         stop-color="#fff"
         stop-opacity=".3"
         id="stop7-7-6-4" />
      <stop
         offset="1"
         stop-opacity=".3"
         id="stop8-3-1-3"
         style="stop-color:#410094;stop-opacity:0.30000001;" />
    </radialGradient>
    <filter
       inkscape:collect="always"
       style="color-interpolation-filters:sRGB"
       id="filter115"
       x="-0.10957008"
       y="-0.085245497"
       width="1.2191402"
       height="1.170491">
      <feGaussianBlur
         inkscape:collect="always"
         stdDeviation="1.9396955"
         id="feGaussianBlur115" />
    </filter>
  </defs>
  <sodipodi:namedview
     id="namedview9"
     pagecolor="#505050"
     bordercolor="#eeeeee"
     borderopacity="1"
     inkscape:showpageshadow="0"
     inkscape:pageopacity="0"
     inkscape:pagecheckerboard="0"
     inkscape:deskcolor="#505050"
     inkscape:zoom="11.313709"
     inkscape:cx="29.919456"
     inkscape:cy="29.035572"
     inkscape:window-width="1920"
     inkscape:window-height="1020"
     inkscape:window-x="0"
     inkscape:window-y="0"
     inkscape:window-maximized="1"
     inkscape:current-layer="svg9" />
  <path
     id="path96"
     style="fill:#6c31e3;stroke-width:0.10529"
     d="M 33.722656 5.046875 C 33.574977 5.039905 33.426809 5.0411844 33.277344 5.0527344 C 33.22442 5.0568087 33.173603 5.0717354 33.121094 5.078125 C 33.035203 5.0886812 32.949858 5.1024725 32.865234 5.1191406 C 32.754174 5.1408779 32.645217 5.1672333 32.537109 5.1992188 C 32.472367 5.2184516 32.409235 5.2408259 32.345703 5.2636719 C 32.221054 5.3083253 32.099413 5.3578867 31.980469 5.4160156 C 31.924758 5.4433004 31.870722 5.4737135 31.816406 5.5039062 C 31.68793 5.5751689 31.564659 5.6533137 31.445312 5.7402344 C 31.41011 5.7659141 31.376139 5.7932881 31.341797 5.8203125 C 31.280177 5.8687305 31.212897 5.9083239 31.154297 5.9609375 L 20.753906 15.326172 L 20.056641 15.953125 C 19.884466 16.10845 19.731375 16.279719 19.59375 16.462891 C 19.590359 16.467362 19.587353 16.472076 19.583984 16.476562 C 19.527058 16.55307 19.472434 16.632266 19.421875 16.712891 C 19.390655 16.762378 19.360714 16.812352 19.332031 16.863281 C 19.295958 16.927545 19.264478 16.994175 19.232422 17.060547 C 19.188239 17.152029 19.147573 17.244565 19.111328 17.339844 C 19.085641 17.407096 19.060704 17.474134 19.039062 17.542969 C 19.029205 17.574507 19.016817 17.604838 19.007812 17.636719 C 19.013663 17.616117 19.023086 17.596647 19.029297 17.576172 C 19.017551 17.614822 19.006545 17.654265 18.996094 17.693359 C 18.995571 17.695329 18.99466 17.697248 18.994141 17.699219 C 18.967814 17.798377 18.945556 17.898341 18.927734 18 C 18.922999 18.027086 18.9143 18.0528 18.910156 18.080078 C 18.892796 18.196072 18.865916 18.382736 18.847656 18.505859 L 17.626953 26.607422 C 17.567343 26.952632 17.514776 27.243852 17.476562 27.402344 C 17.487882 27.362734 17.504925 27.327714 17.515625 27.287109 C 17.453435 27.523113 17.381741 27.740777 17.289062 27.957031 L 11.830078 40.128906 C 11.735073 40.338276 11.423828 41.023438 11.423828 41.023438 C 11.410865 41.052296 11.402688 41.082243 11.390625 41.111328 C 11.341521 41.227135 11.299904 41.344323 11.263672 41.462891 C 11.261028 41.471958 11.258428 41.481154 11.255859 41.490234 C 10.890947 42.719289 11.207982 44.066875 12.119141 45.003906 L 21.5 54.658203 C 21.791395 54.961138 22.133866 55.210388 22.511719 55.394531 L 22.511719 55.384766 C 22.932876 55.574286 23.362897 55.700835 23.826172 55.732422 C 23.826172 55.732422 26.367791 55.940844 29.412109 56.160156 C 30.366034 56.242457 31.346403 56.410325 32.337891 56.626953 C 31.824062 56.512386 31.32234 56.411428 30.841797 56.332031 C 30.632291 56.297416 30.429065 56.268128 30.228516 56.242188 C 30.42857 56.267606 30.6329 56.298062 30.841797 56.332031 C 31.320991 56.409955 31.824062 56.512388 32.337891 56.626953 C 32.339182 56.627241 32.340505 56.626665 32.341797 56.626953 C 34.978999 57.215255 37.957249 58.203158 40.167969 58.816406 L 40.167969 58.828125 C 42.55804 59.480919 44.968524 57.563383 45.294922 55.099609 A 19.689174 19.689174 0 0 1 47.337891 48.373047 C 47.52741 48.046649 47.717157 47.720166 47.927734 47.404297 C 49.567162 44.969698 51.140016 42.490906 52.644531 39.970703 C 53.021415 39.333448 52.967069 38.529923 52.507812 37.949219 C 51.34963 36.411994 49.138563 33.294322 47.927734 30.419922 C 46.685321 27.450761 46.506623 22.839556 46.496094 20.607422 C 46.496094 19.754577 46.221759 18.923852 45.695312 18.25 L 36.376953 6.4140625 C 36.327963 6.3552016 36.277263 6.2977853 36.224609 6.2421875 C 36.289914 6.4388909 36.347711 6.6382886 36.400391 6.8378906 C 36.347483 6.6383308 36.289916 6.438899 36.224609 6.2421875 C 36.222662 6.2363227 36.220708 6.2304714 36.21875 6.2246094 C 36.189438 6.1923385 36.157311 6.1638875 36.126953 6.1328125 C 36.096593 6.1017375 36.066526 6.0708766 36.035156 6.0410156 C 35.965029 5.9742508 35.891266 5.9121157 35.816406 5.8515625 C 35.783746 5.8251465 35.75225 5.7966913 35.71875 5.7714844 C 35.321582 5.4726395 34.866813 5.2584261 34.382812 5.1445312 C 34.377724 5.1433338 34.372282 5.1437545 34.367188 5.1425781 C 34.276382 5.1216299 34.186366 5.1017597 34.09375 5.0878906 C 33.971406 5.0680318 33.847521 5.0527652 33.722656 5.046875 z M 36.457031 7.0703125 C 36.488799 7.2035101 36.518636 7.3365587 36.544922 7.4707031 C 36.51844 7.3364883 36.489002 7.2035795 36.457031 7.0703125 z M 36.59375 7.7265625 C 36.619812 7.8803025 36.639183 8.0348807 36.658203 8.1894531 C 36.639145 8.0350415 36.619952 7.8801177 36.59375 7.7265625 z M 36.582031 11.203125 C 36.539623 11.444152 36.490088 11.683547 36.429688 11.921875 C 36.490087 11.683547 36.539623 11.444153 36.582031 11.203125 z M 34.576172 16.269531 C 34.323478 16.753862 34.060524 17.248519 33.818359 17.753906 C 34.060525 17.248517 34.323478 16.753863 34.576172 16.269531 z M 19.40625 16.740234 C 19.386902 16.771696 19.367972 16.803904 19.349609 16.835938 C 19.368074 16.803661 19.386783 16.771929 19.40625 16.740234 z M 33.431641 18.542969 C 33.368807 18.678543 33.309346 18.816158 33.25 18.953125 C 33.309606 18.815963 33.368573 18.678734 33.431641 18.542969 z M 33.167969 19.146484 C 33.153135 19.181684 33.137653 19.216668 33.123047 19.251953 C 33.137674 19.216653 33.153114 19.181699 33.167969 19.146484 z M 33.095703 19.316406 C 33.028824 19.480567 32.964312 19.644606 32.902344 19.810547 C 32.964386 19.644989 33.028757 19.480192 33.095703 19.316406 z M 33.005859 19.552734 C 32.947401 19.701462 32.888425 19.849864 32.833984 20 C 32.849744 19.95647 32.864761 19.912555 32.880859 19.869141 C 32.920399 19.76282 32.964299 19.658343 33.005859 19.552734 z M 32.767578 20.185547 C 32.69626 20.389159 32.630328 20.594834 32.566406 20.800781 C 32.630303 20.594551 32.696271 20.389439 32.767578 20.185547 z M 32.490234 21.048828 C 32.430591 21.251263 32.374753 21.453797 32.322266 21.658203 C 32.374615 21.453943 32.430742 21.251127 32.490234 21.048828 z M 32.263672 21.894531 C 32.213564 22.101234 32.165818 22.309138 32.123047 22.517578 C 32.16574 22.309011 32.213631 22.101369 32.263672 21.894531 z M 32.070312 22.796875 C 32.032275 22.998346 31.994054 23.199514 31.962891 23.402344 C 31.993944 23.199568 32.032381 22.998305 32.070312 22.796875 z M 31.923828 23.701172 C 31.898258 23.88839 31.871255 24.075513 31.851562 24.263672 C 31.871172 24.075122 31.898306 23.888791 31.923828 23.701172 z M 31.775391 25.240234 C 31.764193 25.514568 31.758594 25.796714 31.759766 26.083984 C 31.759105 25.79715 31.763456 25.514412 31.775391 25.240234 z M 31.761719 26.210938 C 31.762622 26.296345 31.767484 26.386073 31.769531 26.472656 C 31.771562 26.56104 31.776022 26.652581 31.779297 26.742188 C 31.784139 26.872898 31.785466 27.001358 31.792969 27.134766 C 31.795237 27.175199 31.796307 27.213225 31.798828 27.253906 C 31.778573 26.923033 31.765766 26.60003 31.761719 26.285156 C 31.762538 26.34607 31.768118 26.411159 31.769531 26.472656 C 31.767804 26.398917 31.762616 26.320933 31.761719 26.248047 C 31.761583 26.235606 31.76183 26.223355 31.761719 26.210938 z M 31.798828 27.189453 C 31.807031 27.328963 31.818879 27.472716 31.830078 27.615234 C 31.818933 27.472898 31.806985 27.328785 31.798828 27.189453 z M 31.806641 27.386719 C 31.814809 27.506291 31.829466 27.632175 31.839844 27.753906 C 31.848406 27.854667 31.853189 27.950452 31.863281 28.052734 C 31.867975 28.100304 31.87583 28.151316 31.880859 28.199219 C 31.889307 28.279294 31.892939 28.35454 31.902344 28.435547 C 31.915354 28.547605 31.9363 28.667383 31.951172 28.78125 C 32.097901 29.910888 32.333118 31.126656 32.683594 32.451172 C 32.296714 30.993317 32.043651 29.660325 31.902344 28.435547 C 31.887413 28.306139 31.875772 28.179779 31.863281 28.052734 C 31.841113 27.827265 31.821377 27.604945 31.806641 27.386719 z M 31.888672 28.263672 C 31.90442 28.409793 31.92443 28.559731 31.943359 28.708984 C 31.924432 28.559484 31.904403 28.410021 31.888672 28.263672 z M 20.503906 29.570312 C 20.67278 29.723382 20.840526 29.882386 21.007812 30.044922 C 20.840309 29.882165 20.673001 29.723578 20.503906 29.570312 z M 32.716797 32.576172 C 32.82132 32.965355 32.934409 33.362048 33.058594 33.769531 C 33.233084 34.342081 33.428754 34.932632 33.644531 35.542969 C 33.860308 36.153306 34.096194 36.783431 34.355469 37.433594 C 34.438294 37.442468 34.520896 37.454728 34.603516 37.464844 C 34.566453 37.460406 34.529296 37.457299 34.492188 37.453125 C 34.446369 37.447831 34.401349 37.438509 34.355469 37.433594 C 34.096194 36.783432 33.860347 36.153341 33.644531 35.542969 C 33.428716 34.932597 33.233496 34.342128 33.058594 33.769531 C 32.93397 33.361536 32.821755 32.965865 32.716797 32.576172 z M 24.890625 35.707031 C 25.240534 36.550907 25.515044 37.424112 25.710938 38.316406 C 25.692558 38.232676 25.664301 38.151746 25.644531 38.068359 C 25.573611 37.76913 25.496764 37.472026 25.408203 37.177734 C 25.374113 37.063465 25.338983 36.950098 25.302734 36.837891 C 25.178387 36.456694 25.044352 36.077775 24.890625 35.707031 z M 34.697266 37.476562 C 34.873557 37.499189 35.049404 37.524154 35.224609 37.552734 C 35.049363 37.524367 34.873582 37.498765 34.697266 37.476562 z M 35.396484 37.583984 C 35.488401 37.600077 35.580308 37.613025 35.671875 37.630859 C 35.635017 37.62368 35.597463 37.620176 35.560547 37.613281 C 35.505851 37.603112 35.45129 37.593525 35.396484 37.583984 z M 36.224609 37.753906 C 36.282769 37.767509 36.340413 37.782501 36.398438 37.796875 C 36.340548 37.782417 36.282635 37.767602 36.224609 37.753906 z M 36.779297 37.898438 C 36.84095 37.915641 36.903352 37.929139 36.964844 37.947266 C 36.991172 37.955028 37.016909 37.965365 37.042969 37.974609 C 36.955278 37.948045 36.86732 37.923148 36.779297 37.898438 z M 25.712891 38.320312 C 25.790522 38.674109 25.856016 39.039908 25.912109 39.412109 C 25.877286 39.181191 25.835851 38.955085 25.791016 38.732422 C 25.786635 38.710668 25.781801 38.689656 25.777344 38.667969 C 25.776799 38.665319 25.775936 38.662805 25.775391 38.660156 C 25.753713 38.547813 25.737057 38.430487 25.712891 38.320312 z M 25.923828 39.5 C 25.97009 39.818114 26.007737 40.142848 26.037109 40.474609 C 26.034907 40.450897 26.031438 40.427987 26.029297 40.404297 C 26.000849 40.096553 25.966783 39.795927 25.923828 39.5 z M 26.041016 40.53125 C 26.070078 40.871846 26.091433 41.219013 26.101562 41.574219 C 26.096063 41.382096 26.087262 41.19174 26.076172 41.003906 C 26.066772 40.845 26.054306 40.687117 26.041016 40.53125 z M 41.798828 40.597656 C 41.905627 40.688118 42.011273 40.783992 42.117188 40.878906 C 42.011282 40.783689 41.905605 40.688406 41.798828 40.597656 z M 42.505859 41.242188 C 42.575926 41.309382 42.647143 41.370197 42.716797 41.439453 C 42.757521 41.479945 42.797309 41.52325 42.837891 41.564453 C 42.832325 41.558787 42.825881 41.554481 42.820312 41.548828 C 42.716208 41.44315 42.610876 41.343212 42.505859 41.242188 z M 26.101562 41.576172 C 26.106024 41.733191 26.106824 41.892821 26.107422 42.052734 C 26.106825 41.892722 26.106062 41.73329 26.101562 41.576172 z M 26.107422 42.271484 C 26.105077 42.590193 26.094377 42.913941 26.076172 43.244141 C 26.094372 42.914041 26.105066 42.590105 26.107422 42.271484 z M 43.5 42.275391 C 43.588927 42.376401 43.677447 42.483164 43.765625 42.587891 C 43.677356 42.483108 43.589017 42.376453 43.5 42.275391 z M 44.238281 43.169922 C 44.343389 43.305002 44.446824 43.445189 44.550781 43.585938 C 44.446692 43.445085 44.343522 43.305097 44.238281 43.169922 z M 26.070312 43.375 C 26.059607 43.549402 26.046532 43.724719 26.03125 43.902344 C 26.046524 43.724702 26.05962 43.549376 26.070312 43.375 z M 26.021484 44.001953 C 25.991916 44.328433 25.953733 44.660608 25.908203 44.998047 C 25.953697 44.660476 25.991915 44.328622 26.021484 44.001953 z M 44.980469 44.1875 C 45.073838 44.323239 45.167396 44.458973 45.259766 44.599609 C 45.245416 44.577776 45.231171 44.556871 45.216797 44.535156 C 45.216294 44.534396 45.215347 44.533963 45.214844 44.533203 C 45.21352 44.531204 45.212261 44.529342 45.210938 44.527344 C 45.134725 44.412312 45.057358 44.299217 44.980469 44.1875 z M 25.855469 45.375 C 25.815883 45.636999 25.770194 45.903303 25.720703 46.171875 C 25.770236 45.90327 25.81586 45.636988 25.855469 45.375 z M 45.789062 45.445312 C 45.850454 45.547399 45.913699 45.647519 45.974609 45.751953 C 45.926267 45.669114 45.876771 45.591125 45.828125 45.509766 C 45.815172 45.488102 45.802037 45.466872 45.789062 45.445312 z M 45.904297 45.642578 C 45.947036 45.714882 45.990693 45.782021 46.033203 45.855469 C 46.079791 45.93613 46.123621 46.023412 46.169922 46.105469 C 46.081257 45.948701 45.99397 45.79429 45.904297 45.642578 z M 25.650391 46.544922 C 25.619289 46.700887 25.587231 46.857461 25.552734 47.015625 C 25.587155 46.857582 25.619373 46.700766 25.650391 46.544922 z M 46.494141 46.689453 C 46.550435 46.794796 46.608217 46.894433 46.664062 47.001953 C 46.608154 46.89435 46.550501 46.794874 46.494141 46.689453 z M 46.554688 46.806641 C 46.60101 46.893914 46.647332 46.975713 46.693359 47.064453 C 46.70639 47.089673 46.719416 47.117239 46.732422 47.142578 C 46.673593 47.02842 46.613999 46.918387 46.554688 46.806641 z M 25.365234 47.822266 C 25.32613 47.979155 25.280722 48.139839 25.238281 48.298828 C 25.281244 48.139132 25.325816 47.979788 25.365234 47.822266 z M 25.136719 48.673828 C 25.086629 48.852304 25.036753 49.029841 24.982422 49.210938 C 25.036611 49.030182 25.086808 48.851942 25.136719 48.673828 z M 24.712891 50.064453 C 24.53359 50.60826 24.335298 51.165474 24.117188 51.732422 C 24.157274 51.628375 24.197714 51.523047 24.236328 51.419922 C 24.258948 51.359512 24.278611 51.30038 24.300781 51.240234 C 24.390441 50.997172 24.476237 50.756284 24.558594 50.517578 C 24.610974 50.365653 24.66342 50.214625 24.712891 50.064453 z M 23.789062 52.554688 C 23.748385 52.653763 23.707891 52.751794 23.666016 52.851562 C 23.707598 52.752033 23.748786 52.653465 23.789062 52.554688 z M 23.515625 53.199219 C 23.382778 53.508051 23.249897 53.817372 23.105469 54.132812 C 23.118919 54.103413 23.133134 54.074262 23.146484 54.044922 C 23.156984 54.021872 23.165341 53.999582 23.175781 53.976562 C 23.294811 53.713996 23.404634 53.456812 23.515625 53.199219 z M 29.470703 56.164062 C 29.678943 56.178424 29.895801 56.20005 30.117188 56.226562 C 29.895401 56.199535 29.678866 56.178419 29.470703 56.164062 z " />
  <path
     d="m 33.722868,5.047094 c -0.147679,-0.00697 -0.295847,-0.00569 -0.445312,0.00586 -0.788382,0.060694 -1.53468,0.3799474 -2.123047,0.9082031 L 20.754118,15.326392 31.154509,5.9728752 c 0.617861,-0.5573857 1.40652,-0.8800009 2.230469,-0.9199218 0.117707,-0.0057 0.236745,-0.00599 0.355468,0 0.218243,0.010904 0.432791,0.04243 0.642579,0.091797 -0.21564,-0.051294 -0.435994,-0.087082 -0.660157,-0.097656 z m 0.730469,0.1152344 c 0.213802,0.05491 0.4218,0.1299739 0.621094,0.2226562 -0.199302,-0.093253 -0.407488,-0.1672609 -0.621094,-0.2226562 z m 0.679688,0.2519531 c 0.182919,0.089173 0.35762,0.1951075 0.523437,0.3144531 C 35.49059,5.608714 35.315938,5.5039634 35.133025,5.4142815 Z m 0.585937,0.3574218 c 0.0335,0.025207 0.065,0.053662 0.09766,0.080078 -0.03277,-0.026661 -0.06403,-0.054644 -0.09766,-0.080078 z m 0.316406,0.2695313 c 0.03137,0.029861 0.06144,0.060722 0.0918,0.091797 -0.03025,-0.031147 -0.06055,-0.061867 -0.0918,-0.091797 z m 0.546875,5.1621094 c -0.04231,0.237142 -0.0929,0.472497 -0.152343,0.707032 -0.0067,0.02689 -0.01454,0.05327 -0.02148,0.08008 0.0069,-0.02288 0.01466,-0.04546 0.02148,-0.06836 0.0604,-0.238328 0.109935,-0.477724 0.152343,-0.718751 z m -0.90625,2.820313 c -0.33147,0.746387 -0.711025,1.485345 -1.099609,2.246094 0.41233,-0.726168 0.777581,-1.477067 1.099609,-2.246094 z m -1.099609,2.246094 c -0.252694,0.484331 -0.515648,0.978987 -0.757813,1.484375 -0.499918,0.951691 -0.909744,1.943426 -1.230468,2.962891 0.320996,-1.015129 0.732396,-2.003024 1.230468,-2.951172 z M 19.879118,16.142798 c -0.08388,0.0865 -0.172212,0.170068 -0.246093,0.263672 0.07378,-0.09433 0.162771,-0.176732 0.246093,-0.263672 z m -0.246093,0.263672 c -0.380921,0.482607 -0.628481,1.053839 -0.722657,1.673828 -0.01736,0.115994 -0.04424,0.302658 -0.0625,0.425781 l 0.0625,-0.414062 c 0.09178,-0.618255 0.341872,-1.19875 0.722657,-1.685547 z m 12.142578,8.833984 c -0.05696,1.308367 0.02628,2.755925 0.294922,4.382813 C 31.802959,27.994238 31.7223,26.54637 31.775603,25.240454 Z m -14.148438,1.367188 c -0.05961,0.34521 -0.112176,0.63643 -0.15039,0.794922 0.01132,-0.03961 0.02836,-0.07463 0.03906,-0.115235 -0.0019,-0.0012 -0.004,-0.0027 -0.0059,-0.0039 l 0.05273,-0.242188 z m 16.728516,10.826172 v 0.0078 c 0.88336,0.09166 1.754214,0.253775 2.609375,0.505859 -0.851751,-0.254282 -1.724945,-0.418912 -2.609375,-0.513671 z m -8.710938,0.634765 c 0.103446,0.437171 0.197545,0.883754 0.267578,1.34961 -0.05647,-0.37557 -0.120832,-0.744721 -0.199218,-1.101563 h -0.002 c -0.01838,-0.08373 -0.04664,-0.16466 -0.06641,-0.248047 z M 11.86154,40.058814 c -0.05999,0.132076 -0.4375,0.964843 -0.4375,0.964843 -0.135893,0.302526 -0.221789,0.618063 -0.269531,0.935547 0.04884,-0.314714 0.133997,-0.626068 0.269531,-0.925781 z m 30.060547,0.638671 c 1.970979,1.712021 3.793563,4.189945 5.414063,7.669922 -1.613963,-3.485827 -3.43874,-5.960053 -5.414063,-7.669922 z m 3.873047,11.726563 c -0.05076,0.195736 -0.0959,0.392552 -0.140625,0.589844 0.0433,-0.195819 0.09128,-0.392398 0.140625,-0.589844 z m -0.1875,0.798828 c -0.06721,0.312189 -0.127683,0.625907 -0.179688,0.941406 0.05279,-0.309494 0.112535,-0.623832 0.179688,-0.941406 z m -0.179688,0.941406 c -0.01392,0.08445 -0.02624,0.169249 -0.03906,0.253907 0.01368,-0.08545 0.02435,-0.167642 0.03906,-0.253907 z m -16.027343,1.994141 c 0.958801,0.08204 1.944596,0.25084 2.941406,0.46875 -1.030361,-0.229851 -2.013279,-0.403731 -2.871094,-0.462891 -0.03832,-0.0028 -0.03215,-0.0031 -0.07031,-0.0059 z"
     style="fill:#6c31e3;stroke-width:0.10529"
     id="path96-4" />
  <path
     d="m 17.515837,27.287329 c -0.06219,0.236004 -0.133883,0.453668 -0.226562,0.669922 L 11.42404,41.033423 c -0.606276,1.340684 -0.330456,2.915807 0.695313,3.970703 l 9.380859,9.654297 c 0.291395,0.302935 0.633866,0.552185 1.011719,0.736328 v -0.0098 c 0.208946,-0.423422 0.405101,-0.839935 0.59375,-1.251953 0.01345,-0.0294 0.02767,-0.05855 0.04102,-0.08789 0.0105,-0.02305 0.01886,-0.04534 0.0293,-0.06836 0.166024,-0.36623 0.324215,-0.726703 0.47461,-1.083984 0.0576,-0.136976 0.112619,-0.272533 0.167968,-0.408203 0.101456,-0.248442 0.198955,-0.494187 0.292969,-0.738281 0.04178,-0.108564 0.08467,-0.218464 0.125,-0.326172 0.02262,-0.06041 0.04228,-0.119542 0.06445,-0.179688 0.08966,-0.243063 0.175456,-0.48395 0.257813,-0.722656 0.05238,-0.151925 0.104826,-0.302953 0.154297,-0.453125 0.08332,-0.252716 0.163047,-0.502211 0.238281,-0.75 0.01037,-0.03418 0.02103,-0.06943 0.03125,-0.103516 0.05497,-0.183359 0.105622,-0.364249 0.15625,-0.544922 0.03153,-0.112465 0.06193,-0.224507 0.0918,-0.335937 0.04699,-0.175359 0.09573,-0.350629 0.138672,-0.523438 0.01763,-0.07097 0.03187,-0.140399 0.04883,-0.210937 0.04412,-0.183411 0.08734,-0.366343 0.126953,-0.546875 0.04018,-0.183183 0.07765,-0.364681 0.113281,-0.544922 0.0031,-0.0158 0.0067,-0.03109 0.0098,-0.04687 0.0153,-0.07814 0.02851,-0.154832 0.04297,-0.232422 0.05528,-0.296603 0.105193,-0.590293 0.148437,-0.878906 0.01549,-0.103405 0.03094,-0.206206 0.04492,-0.308594 0.04799,-0.351307 0.08646,-0.695696 0.117187,-1.035156 0.0026,-0.02913 0.0073,-0.05884 0.0098,-0.08789 2.83e-4,-0.0033 -2.82e-4,-0.0065 0,-0.0098 0.01631,-0.189485 0.02991,-0.376679 0.04102,-0.5625 0.002,-0.03267 0.0021,-0.0651 0.0039,-0.09766 0.01831,-0.332086 0.02898,-0.658042 0.03125,-0.978515 5.02e-4,-0.07106 2.63e-4,-0.142394 0,-0.212891 -5.97e-4,-0.160013 -0.0014,-0.319444 -0.0059,-0.476562 -1.9e-5,-6.57e-4 1.8e-5,-0.0013 0,-0.002 -0.0055,-0.192123 -0.0143,-0.382479 -0.02539,-0.570313 -0.0094,-0.158906 -0.02187,-0.316789 -0.03516,-0.472656 -0.0016,-0.01827 -0.0023,-0.03646 -0.0039,-0.05469 -0.0022,-0.02441 -0.0056,-0.04793 -0.0078,-0.07227 -0.02894,-0.313067 -0.0634,-0.619051 -0.107422,-0.919922 -0.0027,-0.01819 -0.0051,-0.03654 -0.0078,-0.05469 -5.96e-4,-0.004 -0.0014,-0.0077 -0.002,-0.01172 -0.07003,-0.465857 -0.164132,-0.912439 -0.267578,-1.34961 -0.07092,-0.29923 -0.147767,-0.596333 -0.236328,-0.890625 -0.03409,-0.114269 -0.06922,-0.227637 -0.105469,-0.339844 -0.124347,-0.381197 -0.258382,-0.760115 -0.412109,-1.130859 -1.693883,-4.16632 -4.869988,-6.787677 -7.375,-8.419922 z"
     style="fill:url(#logo-bottom-left-0-1);stroke-width:0.10529"
     id="path95-7" />
  <path
     d="m 36.224821,6.2424065 c 0.227965,0.6866554 0.378521,1.3928507 0.455079,2.1054687 0.02518,0.2344022 0.044,0.4696291 0.05273,0.7050781 1.49e-4,0.00389 -1.44e-4,0.00783 0,0.011719 0.0085,0.2354487 0.01,0.4714224 0.002,0.7070313 -1.28e-4,0.00391 1.33e-4,0.00781 0,0.011719 -0.0083,0.2356134 -0.02598,0.4701914 -0.05078,0.7050784 -0.05027,0.481464 -0.13406,0.960707 -0.253906,1.433594 -0.0068,0.0229 -0.01458,0.04548 -0.02148,0.06836 -0.180949,0.698955 -0.437522,1.369165 -0.732422,2.033203 -0.322078,0.769028 -0.687327,1.519923 -1.099658,2.246093 l -0.757813,1.496094 c -1.063496,2.024508 -1.729379,4.229529 -1.966796,6.498047 -0.03338,0.320961 -0.06007,0.643673 -0.07617,0.966797 -1.64e-4,0.0032 1.62e-4,0.0065 0,0.0098 -0.09476,2.321633 0.236259,5.093996 1.283203,8.529297 0.348981,1.145101 0.778324,2.363737 1.296875,3.664063 0.884432,0.09476 1.757622,0.259388 2.609375,0.513671 0.04067,0.01199 0.0805,0.02862 0.121094,0.04102 0.245768,0.07504 0.4914,0.1537 0.734375,0.244141 0.891041,0.333812 1.761526,0.772243 2.609375,1.332031 0.0012,8.08e-4 0.0027,0.0011 0.0039,0.002 0.21165,0.139334 0.422219,0.286744 0.630859,0.441406 7.37e-4,5.49e-4 0.0012,0.0014 0.002,0.002 2.307077,1.710899 4.426208,4.376036 6.271485,8.363282 0.18952,-0.326398 0.379265,-0.652881 0.589843,-0.96875 1.639429,-2.434601 3.21228,-4.913389 4.716797,-7.433594 0.376884,-0.637256 0.322539,-1.440779 -0.136718,-2.021484 -1.158184,-1.537226 -3.369249,-4.654894 -4.580079,-7.529297 -1.242415,-2.969164 -1.421111,-7.580364 -1.43164,-9.8125 0,-0.852846 -0.274334,-1.683569 -0.800781,-2.357422 L 36.377165,6.4142815 c -0.04899,-0.058861 -0.09969,-0.1162771 -0.152344,-0.171875 z"
     style="fill:url(#logo-top-right-7-2);stroke-width:0.10529"
     id="path94-6" />
  <path
     d="m 33.384978,5.0529534 c -0.823952,0.039921 -1.612606,0.3625344 -2.230469,0.9199218 L 20.056853,15.953345 c -0.618787,0.558228 -1.024113,1.314329 -1.146485,2.138672 l -1.347656,8.949218 -0.05273,0.242188 c 2.50589,1.631987 5.685699,4.254364 7.380859,8.423828 0.349909,0.843877 0.624419,1.71708 0.820313,2.609375 6.19e-4,-1.5e-4 0.0013,1.51e-4 0.002,0 -7.03e-4,-0.0032 -0.0012,-0.0066 -0.002,-0.0098 2.357168,-0.574484 4.694421,-0.97187 6.96289,-0.958984 0.565258,0.0032 1.125529,0.03605 1.681641,0.09375 v -0.0078 c -2.074203,-5.201301 -2.716954,-9.097086 -2.580078,-12.203125 0.13013,-2.610947 0.827272,-5.162247 2.042968,-7.476563 0.242166,-0.50539 0.505119,-1.000043 0.757813,-1.484375 0.747556,-1.463524 1.474473,-2.843207 1.853516,-4.359375 0.475517,-1.876286 0.402303,-3.8496565 -0.210938,-5.6855477 -0.638635,-0.703094 -1.529859,-1.1244761 -2.478516,-1.1718749 -0.118724,-0.00599 -0.237761,-0.0057 -0.355468,0 z"
     style="fill:url(#logo-top-left-2-0);stroke-width:0.10529"
     id="path93-5" />
  <path
     d="m 32.67404,37.347876 c -2.268471,-0.01289 -4.60572,0.384499 -6.96289,0.958984 0.937077,4.2537 0.380627,9.823672 -3.199219,17.078125 0.421158,0.189521 0.851178,0.31607 1.314453,0.347657 0,0 2.570075,0.210533 5.644531,0.43164 3.053398,0.21058 7.62281,1.799498 10.697266,2.652344 v 0.01172 c 2.390074,0.652795 4.800555,-1.26474 5.126953,-3.728516 a 19.689174,19.689174 0 0 1 2.042969,-6.726562 C 44.642689,42.582339 41.389842,39.569819 37.820525,38.232642 36.162214,37.615381 34.438407,37.357899 32.67404,37.347876 Z"
     style="fill:url(#logo-bottom-right-9-3);stroke-width:0.10529"
     id="path92-6" />
  <path
     id="path115"
     style="opacity:1;filter:url(#filter115)"
     d="M 33.367188 4.703125 L 33.087891 4.7167969 L 33.068359 4.8261719 C 32.284717 4.9304699 31.515134 5.1759371 30.919922 5.7128906 L 19.822266 15.693359 C 19.143212 16.305956 18.698744 17.136387 18.564453 18.041016 L 17.259766 26.703125 L 16.908203 26.472656 L 17.148438 27.283203 C 17.095838 27.470295 17.039968 27.647628 16.966797 27.818359 L 11.105469 40.888672 C 10.440366 42.359438 10.743843 44.090796 11.869141 45.248047 L 11.867188 45.248047 L 21.248047 54.900391 C 21.485322 55.147062 21.753334 55.36228 22.044922 55.539062 L 22.037109 55.554688 L 22.248047 55.650391 C 22.284663 55.66987 22.320052 55.690773 22.357422 55.708984 L 22.861328 55.955078 L 22.861328 55.890625 C 23.1622 55.988779 23.474235 56.059634 23.802734 56.082031 C 23.808034 56.082465 26.372108 56.292655 29.445312 56.513672 L 29.447266 56.513672 C 32.333537 56.712726 36.728808 58.209371 39.818359 59.080078 L 39.818359 59.095703 L 40.076172 59.166016 C 42.691984 59.880465 45.289822 57.809219 45.642578 55.146484 L 45.642578 55.142578 L 45.642578 55.140625 C 45.909123 52.840684 46.586655 50.607318 47.642578 48.546875 C 47.831296 48.221867 48.016932 47.902461 48.21875 47.599609 L 48.21875 47.597656 C 49.861385 45.158241 51.437832 42.675562 52.945312 40.150391 L 52.945312 40.148438 C 53.395323 39.387538 53.33157 38.425798 52.783203 37.732422 C 51.632215 36.204406 49.435738 33.099991 48.25 30.285156 C 47.053043 27.424629 46.856231 22.823679 46.845703 20.607422 C 46.845703 19.679525 46.546746 18.772493 45.970703 18.035156 L 36.648438 6.1933594 L 36.646484 6.1894531 C 36.611014 6.1468282 36.572964 6.1056591 36.535156 6.0644531 L 36.527344 6.0429688 L 36.478516 5.9902344 C 35.777593 5.2188761 34.798809 4.7551374 33.757812 4.703125 C 33.626765 4.696515 33.495708 4.696905 33.367188 4.703125 z M 33.402344 5.4023438 C 33.509235 5.3971638 33.61626 5.3969738 33.722656 5.4023438 C 34.558089 5.4440857 35.331157 5.8265673 35.904297 6.4335938 C 36.467395 8.1788124 36.540687 10.045292 36.089844 11.824219 L 36.089844 11.826172 C 35.896771 12.59846 35.604268 13.341495 35.263672 14.085938 C 35.263073 14.087251 35.262318 14.08853 35.261719 14.089844 C 34.957769 14.753847 34.616372 15.418878 34.263672 16.109375 C 34.014149 16.587597 33.752163 17.082691 33.507812 17.591797 L 33.507812 17.59375 C 33.506113 17.59725 33.503653 17.600016 33.501953 17.603516 C 32.266405 19.959718 31.558222 22.55558 31.425781 25.212891 L 31.425781 25.214844 C 31.397864 25.848351 31.405528 26.518552 31.451172 27.222656 C 31.45309 27.256162 31.454904 27.288585 31.457031 27.322266 C 31.463631 27.425604 31.474472 27.534766 31.482422 27.640625 C 31.483024 27.647718 31.481812 27.655009 31.482422 27.662109 C 31.517716 28.072903 31.569106 28.497857 31.630859 28.933594 C 31.569232 28.498835 31.517643 28.072059 31.482422 27.662109 C 31.491122 27.775963 31.498636 27.886577 31.509766 28.003906 C 31.527896 28.195927 31.552029 28.38796 31.574219 28.574219 C 31.616069 28.924895 31.6665 29.286008 31.726562 29.654297 C 31.764292 29.88519 31.803372 30.118702 31.849609 30.361328 C 31.888949 30.568179 31.934449 30.77898 31.978516 30.986328 C 32.039016 31.27007 32.104446 31.557907 32.175781 31.851562 C 32.219361 32.031562 32.263991 32.211905 32.3125 32.398438 C 32.436829 32.875153 32.569273 33.362545 32.724609 33.871094 C 33.029307 34.868618 33.406358 35.931982 33.835938 37.042969 C 33.450688 37.016018 33.064139 37.000253 32.675781 36.998047 C 32.428124 36.996647 32.180445 37.001946 31.931641 37.009766 C 31.801614 37.013871 31.671336 37.020829 31.541016 37.027344 C 31.438887 37.032665 31.336593 37.038419 31.234375 37.044922 C 30.445688 37.095334 29.652494 37.185544 28.855469 37.310547 C 28.775339 37.323115 28.695353 37.336203 28.615234 37.349609 C 28.604775 37.351359 28.594448 37.353736 28.583984 37.355469 C 28.257709 37.409576 27.930727 37.469186 27.603516 37.533203 C 27.53776 37.545201 27.472102 37.555111 27.40625 37.568359 C 27.35747 37.578159 27.30857 37.591443 27.259766 37.601562 C 26.82689 37.690364 26.39289 37.785942 25.958984 37.888672 C 25.895874 37.627151 25.82964 37.365885 25.751953 37.105469 C 25.751383 37.103569 25.749041 37.094525 25.744141 37.078125 C 25.709991 36.963657 25.675151 36.849383 25.638672 36.736328 C 25.637172 36.731728 25.635666 36.731216 25.634766 36.728516 L 25.632812 36.722656 C 25.507645 36.339264 25.371815 35.955142 25.214844 35.576172 C 24.89171 34.781384 24.516648 34.044886 24.103516 33.359375 C 24.102788 33.357275 24.099609 33.347666 24.099609 33.347656 L 24.095703 33.34375 L 24.09375 33.339844 C 23.96927 33.133399 23.841204 32.934444 23.710938 32.738281 C 23.58271 32.545723 23.450086 32.359558 23.316406 32.175781 C 23.328485 32.192387 23.341479 32.207932 23.353516 32.224609 C 23.306724 32.159642 23.262057 32.09111 23.214844 32.027344 L 23.212891 32.025391 L 23.210938 32.023438 C 23.157488 31.951315 23.101208 31.883347 23.046875 31.8125 C 23.095573 31.875832 23.143308 31.941445 23.191406 32.005859 C 23.090103 31.870195 22.986691 31.73635 22.882812 31.605469 C 22.937677 31.674584 22.992709 31.742057 23.046875 31.8125 C 22.94838 31.684067 22.850803 31.554099 22.75 31.429688 L 22.748047 31.427734 C 22.747156 31.426634 22.746994 31.424928 22.746094 31.423828 L 22.744141 31.421875 L 22.742188 31.419922 L 22.740234 31.417969 C 22.423102 31.027127 22.094429 30.654941 21.759766 30.304688 L 21.757812 30.300781 L 21.755859 30.300781 C 21.423041 29.95266 21.085724 29.624281 20.744141 29.314453 L 20.742188 29.3125 C 20.724868 29.29698 20.703088 29.278034 20.736328 29.308594 L 20.736328 29.306641 C 20.702638 29.275841 20.693941 29.271913 20.712891 29.289062 C 20.385788 28.993559 20.057326 28.714983 19.730469 28.453125 C 19.742379 28.462625 19.733372 28.453438 19.701172 28.427734 C 19.672292 28.404664 19.657766 28.394584 19.660156 28.396484 C 19.331964 28.135656 19.005604 27.891108 18.685547 27.662109 L 18.683594 27.660156 C 18.673284 27.652956 18.678788 27.657603 18.679688 27.658203 L 18.677734 27.65625 C 18.413236 27.467183 18.15698 27.295776 17.902344 27.126953 L 17.90625 27.103516 L 19.255859 18.142578 C 19.366312 17.398531 19.732501 16.716744 20.291016 16.212891 L 31.388672 6.2324219 C 31.946418 5.7292675 32.658652 5.4383761 33.402344 5.4023438 z M 23.710938 32.738281 C 23.699558 32.721141 23.689164 32.702627 23.677734 32.685547 C 23.676937 32.684347 23.676581 32.682841 23.675781 32.681641 L 23.669922 32.673828 L 23.666016 32.667969 L 23.666016 32.666016 C 23.596426 32.562277 23.522589 32.464529 23.451172 32.363281 C 23.538442 32.486809 23.626111 32.610897 23.710938 32.738281 z M 36.941406 7.7011719 L 45.419922 18.466797 C 45.896006 19.076895 46.146484 19.830273 46.146484 20.607422 L 46.146484 20.609375 C 46.157094 22.857904 46.317864 27.477531 47.605469 30.554688 L 47.605469 30.556641 C 48.840319 33.488065 51.062306 36.612278 52.228516 38.160156 L 52.230469 38.164062 L 52.234375 38.166016 C 52.604519 38.634041 52.647504 39.279364 52.34375 39.792969 C 50.842755 42.307217 49.272282 44.780124 47.636719 47.208984 L 47.636719 47.210938 C 47.540749 47.3549 47.460991 47.499562 47.373047 47.644531 C 47.267581 47.42838 47.161871 47.212208 47.054688 47.003906 C 46.482992 45.892862 45.88551 44.895994 45.267578 43.998047 C 45.266546 43.996547 45.264704 43.995641 45.263672 43.994141 C 45.198731 43.89982 45.135737 43.801068 45.070312 43.708984 C 45.025823 43.646334 44.979542 43.581881 44.933594 43.517578 C 44.914434 43.490768 44.896613 43.46433 44.876953 43.4375 C 44.733465 43.241857 44.588323 43.049839 44.441406 42.863281 C 44.417476 42.832851 44.394944 42.806704 44.371094 42.777344 C 44.340782 42.739241 44.309703 42.703676 44.279297 42.666016 C 44.275141 42.660868 44.271735 42.65553 44.267578 42.650391 C 44.230389 42.605321 44.191745 42.558723 44.15625 42.515625 C 44.029574 42.362062 43.900983 42.200892 43.763672 42.044922 C 43.681012 41.950822 43.601637 41.870108 43.53125 41.792969 C 43.44541 41.698879 43.357595 41.605024 43.269531 41.511719 C 43.220828 41.460592 43.171963 41.407541 43.123047 41.357422 C 43.009056 41.24099 42.89619 41.128503 42.783203 41.019531 L 42.78125 41.019531 C 42.75976 40.998731 42.738287 40.979574 42.716797 40.958984 C 42.601557 40.848663 42.485493 40.741738 42.369141 40.636719 C 42.364325 40.632372 42.360281 40.62739 42.355469 40.623047 C 42.345213 40.613046 42.334747 40.603169 42.324219 40.59375 L 42.322266 40.591797 C 42.226986 40.506827 42.130156 40.419476 42.029297 40.333984 L 42.029297 40.335938 C 41.824325 40.161464 41.616406 39.994874 41.408203 39.835938 C 41.365026 39.801782 41.323096 39.765062 41.279297 39.732422 L 41.277344 39.730469 L 41.275391 39.728516 L 41.273438 39.726562 C 41.067691 39.574046 40.859529 39.429318 40.650391 39.291016 C 39.772775 38.707811 38.86871 38.250962 37.943359 37.904297 C 37.637536 37.790462 37.329334 37.692117 37.019531 37.601562 C 37.046197 37.60892 37.073012 37.615118 37.099609 37.623047 C 37.085999 37.618347 37.081783 37.616448 37.064453 37.611328 C 37.026515 37.6 36.988903 37.591849 36.951172 37.582031 C 36.710825 37.513121 36.469064 37.450254 36.226562 37.394531 C 36.213612 37.39157 36.20048 37.389541 36.1875 37.386719 C 36.16664 37.381954 36.147311 37.376454 36.123047 37.371094 C 35.623483 37.260189 35.120613 37.174875 34.613281 37.115234 C 34.373939 36.508088 34.150768 35.915874 33.947266 35.341797 C 34.148734 35.915292 34.365011 36.505565 34.605469 37.115234 C 32.605094 32.043374 31.992482 28.253224 32.125 25.246094 C 32.185493 24.035023 32.375222 22.838534 32.679688 21.671875 C 32.725113 21.497811 32.775448 21.324944 32.826172 21.152344 C 32.774897 21.326523 32.725137 21.498654 32.679688 21.671875 C 32.745697 21.418934 32.819304 21.16776 32.896484 20.917969 C 33.049935 20.421331 33.222936 19.931167 33.419922 19.449219 C 33.526241 19.189097 33.637045 18.930956 33.755859 18.675781 C 33.638027 18.931538 33.526303 19.188944 33.419922 19.449219 C 33.631427 18.932579 33.868229 18.423972 34.128906 17.927734 L 34.128906 17.925781 L 34.771484 16.658203 C 34.555706 17.070584 34.336143 17.48403 34.134766 17.904297 C 34.372722 17.40769 34.633171 16.917605 34.886719 16.431641 L 34.886719 16.429688 L 34.888672 16.429688 C 34.898016 16.411393 34.906673 16.393277 34.916016 16.375 C 34.920023 16.367161 34.923729 16.359399 34.927734 16.351562 C 35.261541 15.755722 35.559445 15.144535 35.832031 14.523438 C 36.174646 13.787144 36.479314 13.039842 36.697266 12.253906 C 36.701231 12.23961 36.704897 12.225192 36.708984 12.210938 C 36.720774 12.17122 36.73374 12.131801 36.744141 12.091797 L 36.748047 12.078125 C 36.752547 12.063895 36.757845 12.047734 36.765625 12.021484 L 36.767578 12.015625 L 36.769531 12.007812 C 36.832451 11.759547 36.884119 11.511549 36.927734 11.263672 L 36.927734 11.261719 C 37.137981 10.082239 37.138455 8.8786192 36.941406 7.7011719 z M 47.054688 47.003906 L 47.056641 47.003906 C 46.950683 46.797086 46.844109 46.600164 46.738281 46.404297 C 46.844784 46.600784 46.94981 46.800084 47.054688 47.003906 z M 35.816406 12.712891 C 35.772036 12.840964 35.726516 12.96841 35.677734 13.095703 C 35.726304 12.968806 35.772144 12.840636 35.816406 12.712891 z M 17.896484 27.150391 C 18.1725 27.33316 18.45597 27.531772 18.744141 27.738281 C 18.456576 27.532241 18.171961 27.332803 17.896484 27.150391 z M 17.699219 27.835938 C 19.156742 28.819157 20.784896 30.117514 22.197266 31.857422 C 22.658052 32.425067 23.094511 33.040445 23.494141 33.703125 C 23.512699 33.733912 23.530729 33.765462 23.548828 33.796875 C 23.569553 33.832846 23.590324 33.868711 23.611328 33.904297 C 23.963837 34.509003 24.286856 35.1503 24.566406 35.837891 L 24.566406 35.839844 L 24.566406 35.841797 C 24.908401 36.666586 25.177678 37.518514 25.369141 38.390625 C 25.351651 38.310985 25.325421 38.233599 25.306641 38.154297 C 25.356121 38.363665 25.402502 38.575368 25.445312 38.789062 C 25.423423 38.676171 25.404829 38.560238 25.380859 38.449219 C 25.619488 39.554206 25.752573 40.753367 25.757812 42.050781 C 25.759654 42.50682 25.746692 42.974017 25.714844 43.455078 C 25.707378 43.567846 25.698856 43.680757 25.689453 43.794922 C 25.682043 43.884896 25.672694 43.977513 25.664062 44.068359 C 25.576804 44.986776 25.428128 45.949094 25.207031 46.958984 C 25.206456 46.961621 25.205656 46.96416 25.205078 46.966797 C 25.150396 47.216212 25.092766 47.467504 25.029297 47.722656 C 24.988651 47.886057 24.942771 48.052975 24.898438 48.21875 C 24.896459 48.226119 24.894556 48.232851 24.892578 48.240234 C 24.861758 48.355136 24.829492 48.469889 24.796875 48.585938 C 24.747612 48.761213 24.699909 48.935375 24.646484 49.113281 C 24.52231 49.526791 24.385604 49.949055 24.238281 50.376953 C 24.111795 50.744329 23.978174 51.115994 23.833984 51.494141 C 23.721439 51.789299 23.602168 52.088823 23.478516 52.390625 C 23.431127 52.506288 23.384986 52.621635 23.335938 52.738281 C 23.045155 53.429811 22.720193 54.140607 22.369141 54.867188 C 22.153711 54.730084 21.929571 54.60262 21.751953 54.417969 L 21.751953 54.414062 L 12.369141 44.759766 C 11.442911 43.807236 11.194743 42.388319 11.742188 41.177734 L 17.609375 28.097656 L 17.611328 28.095703 C 17.647638 28.010973 17.668419 27.921536 17.699219 27.835938 z M 19.019531 27.939453 C 19.23686 28.099596 19.455288 28.266933 19.675781 28.441406 C 19.455535 28.267139 19.236626 28.099423 19.019531 27.939453 z M 32.269531 28.492188 C 32.310021 28.831608 32.359691 29.180197 32.417969 29.537109 C 32.359809 29.180176 32.310054 28.831754 32.269531 28.492188 z M 20.029297 28.722656 C 20.081217 28.76546 20.131643 28.80988 20.183594 28.853516 C 20.131725 28.809948 20.081136 28.765395 20.029297 28.722656 z M 31.65625 29.101562 C 31.711501 29.473459 31.778199 29.855459 31.853516 30.246094 C 31.778063 29.855093 31.711569 29.473799 31.65625 29.101562 z M 32.421875 29.564453 C 32.458109 29.785916 32.494349 30.004095 32.537109 30.228516 L 32.537109 30.230469 C 32.573303 30.420941 32.615653 30.61992 32.658203 30.820312 C 32.566563 30.388957 32.488835 29.971861 32.421875 29.564453 z M 21.537109 30.095703 C 21.585724 30.144617 21.633259 30.194392 21.681641 30.244141 C 21.633349 30.194482 21.585633 30.14453 21.537109 30.095703 z M 31.908203 30.53125 C 32.000642 30.986149 32.104084 31.450749 32.224609 31.931641 C 32.103796 31.450116 32.000841 30.986714 31.908203 30.53125 z M 22.345703 30.957031 C 22.49099 31.123145 22.633958 31.29612 22.775391 31.470703 C 22.633704 31.295772 22.491255 31.123457 22.345703 30.957031 z M 32.691406 30.970703 C 32.742869 31.20665 32.796269 31.443799 32.855469 31.6875 C 32.896389 31.856501 32.936599 32.023405 32.980469 32.193359 C 32.871439 31.773643 32.778186 31.369112 32.691406 30.970703 z M 32.224609 31.935547 C 32.34164 32.402286 32.476384 32.88478 32.621094 33.376953 C 32.476458 32.885367 32.341634 32.401748 32.224609 31.935547 z M 33.095703 32.605469 C 33.184383 32.930511 33.268627 33.249806 33.371094 33.587891 C 33.269814 33.252435 33.182537 32.929049 33.095703 32.605469 z M 32.757812 33.820312 C 32.873218 34.197008 32.996979 34.580893 33.128906 34.972656 C 32.996993 34.581077 32.873235 34.196826 32.757812 33.820312 z M 33.273438 35.402344 C 33.459217 35.936963 33.655923 36.481908 33.873047 37.044922 C 33.655773 36.481519 33.459377 35.937285 33.273438 35.402344 z M 24.974609 36.962891 C 25.006129 37.060781 25.036406 37.159769 25.066406 37.259766 C 25.036346 37.160566 25.006709 37.061453 24.974609 36.962891 z M 32.671875 37.697266 C 33.336606 37.701028 33.993887 37.740953 34.642578 37.822266 L 34.5625 37.814453 C 34.64799 37.825113 34.733127 37.837429 34.818359 37.849609 C 35.798219 37.984285 36.759256 38.211398 37.697266 38.560547 C 39.254399 39.143898 40.752312 40.061604 42.171875 41.408203 C 42.173216 41.409477 42.17444 41.410835 42.175781 41.412109 C 43.894859 43.043978 45.49899 45.307197 46.953125 48.396484 C 45.906354 50.485933 45.21642 52.736126 44.947266 55.058594 C 44.646453 57.304076 42.454068 59.042532 40.306641 58.490234 L 40.261719 58.478516 C 37.209619 57.631874 32.646073 56.032139 29.496094 55.814453 L 29.494141 55.814453 C 26.423084 55.59357 23.855469 55.382812 23.855469 55.382812 L 23.851562 55.382812 L 23.849609 55.382812 C 23.556485 55.362826 23.282989 55.259151 23.005859 55.160156 C 23.148469 54.864545 23.291174 54.56902 23.423828 54.279297 C 23.434888 54.255117 23.448924 54.224403 23.464844 54.189453 C 23.481574 54.152713 23.489771 54.130724 23.494141 54.121094 C 23.593801 53.90127 23.682664 53.690961 23.773438 53.482422 L 23.773438 53.480469 C 23.836307 53.335744 23.907107 53.185015 23.972656 53.029297 C 23.985556 52.998817 23.987126 52.993232 23.978516 53.013672 L 23.978516 53.011719 C 24.029306 52.890633 24.078674 52.772716 24.126953 52.654297 C 24.129953 52.646997 24.134948 52.635717 24.142578 52.617188 C 24.244903 52.366619 24.342634 52.117398 24.4375 51.871094 C 24.4447 51.852324 24.455097 51.829108 24.466797 51.798828 C 24.499827 51.713328 24.533013 51.626953 24.564453 51.542969 C 24.590023 51.474689 24.609266 51.414628 24.628906 51.361328 C 24.719466 51.11584 24.80555 50.871783 24.888672 50.630859 C 24.940882 50.479424 24.99427 50.327585 25.044922 50.173828 C 25.075842 50.080078 25.104653 49.991811 25.132812 49.904297 C 25.184322 49.743528 25.235557 49.579372 25.285156 49.416016 L 25.287109 49.416016 C 25.297539 49.381626 25.307979 49.345176 25.318359 49.310547 C 25.373519 49.12656 25.423318 48.947552 25.472656 48.771484 L 25.472656 48.769531 C 25.465256 48.796471 25.469663 48.784556 25.476562 48.759766 L 25.476562 48.757812 C 25.508432 48.644099 25.538459 48.531441 25.568359 48.419922 C 25.614779 48.24669 25.664449 48.069834 25.708984 47.890625 C 25.728864 47.810615 25.742643 47.740812 25.757812 47.677734 C 25.802152 47.493408 25.846292 47.307289 25.886719 47.123047 C 25.927509 46.937086 25.965939 46.754448 26.001953 46.572266 L 26.001953 46.570312 L 26.001953 46.568359 C 26.002585 46.565559 26.006319 46.552581 26.011719 46.525391 L 26.011719 46.523438 C 26.028019 46.440198 26.040808 46.363559 26.054688 46.289062 L 26.054688 46.287109 L 26.054688 46.285156 L 26.054688 46.283203 C 26.110107 45.985516 26.16134 45.690351 26.205078 45.398438 L 26.205078 45.396484 C 26.214378 45.334354 26.221106 45.279221 26.228516 45.228516 L 26.228516 45.226562 C 26.234016 45.187843 26.244253 45.140412 26.251953 45.083984 C 26.251964 45.083905 26.251919 45.079025 26.251953 45.078125 L 26.251953 45.076172 C 26.300133 44.722592 26.340103 44.375599 26.371094 44.033203 C 26.371876 44.024603 26.373453 44.004949 26.376953 43.974609 L 26.376953 43.970703 L 26.378906 43.966797 C 26.379412 43.960997 26.378344 43.954909 26.378906 43.949219 L 26.380859 43.945312 L 26.380859 43.943359 C 26.381386 43.937159 26.380447 43.938594 26.380859 43.933594 C 26.383159 43.905934 26.384666 43.892911 26.384766 43.894531 C 26.399416 43.721107 26.411465 43.549292 26.421875 43.376953 C 26.424675 43.330983 26.424075 43.326221 26.421875 43.363281 C 26.424675 43.317221 26.424681 43.284162 26.425781 43.263672 C 26.444261 42.928529 26.454631 42.598129 26.457031 42.273438 C 26.457079 42.266638 26.457051 42.264778 26.457031 42.267578 C 26.45755 42.194078 26.457295 42.121368 26.457031 42.050781 C 26.456445 41.893699 26.455672 41.735574 26.451172 41.576172 L 26.451172 41.568359 L 26.451172 41.564453 C 26.445572 41.368267 26.437051 41.173269 26.425781 40.982422 C 26.416081 40.818944 26.404045 40.659289 26.390625 40.501953 L 26.390625 40.5 C 26.395225 40.55282 26.394625 40.550931 26.390625 40.494141 L 26.390625 40.492188 L 26.390625 40.490234 C 26.389125 40.472494 26.387819 40.457912 26.386719 40.445312 C 26.383419 40.408803 26.380006 40.385327 26.378906 40.373047 L 26.376953 40.371094 C 26.348293 40.061131 26.312763 39.758219 26.269531 39.458984 L 26.269531 39.457031 C 26.273131 39.481001 26.273378 39.472584 26.267578 39.433594 L 26.267578 39.431641 C 26.265478 39.417671 26.262966 39.398453 26.259766 39.376953 C 26.257066 39.358583 26.256313 39.355064 26.257812 39.365234 C 26.257808 39.365189 26.256059 39.360175 26.255859 39.359375 L 26.255859 39.353516 C 26.255455 39.351716 26.254506 39.348303 26.253906 39.345703 C 26.253303 39.343103 26.252753 39.341091 26.251953 39.337891 C 26.25174 39.337062 26.2504 39.335184 26.25 39.333984 C 26.21527 39.10679 26.17614 38.884403 26.132812 38.666016 L 26.148438 38.666016 L 26.132812 38.597656 C 28.057599 38.142631 29.963658 37.792872 31.814453 37.714844 C 31.848913 37.713544 31.883553 37.712037 31.917969 37.710938 C 32.17004 37.701691 32.422017 37.695846 32.671875 37.697266 z M 35.291016 37.921875 C 35.466004 37.952675 35.640585 37.986536 35.814453 38.023438 C 35.640559 37.986928 35.46622 37.951797 35.291016 37.921875 z M 36.070312 38.078125 C 36.274253 38.125195 36.472258 38.178138 36.669922 38.232422 C 36.470756 38.176772 36.271311 38.124353 36.070312 38.078125 z M 25.451172 38.818359 C 25.489172 39.009903 25.522082 39.203922 25.552734 39.400391 C 25.522184 39.203229 25.487974 39.010073 25.451172 38.818359 z M 25.59375 39.691406 C 25.62328 39.907736 25.650105 40.126048 25.671875 40.349609 C 25.650035 40.126599 25.62344 39.907891 25.59375 39.691406 z M 25.699219 40.654297 C 25.709509 40.777344 25.719283 40.900381 25.726562 41.023438 C 25.719163 40.898847 25.709069 40.776932 25.699219 40.654297 z M 25.755859 42.347656 C 25.752559 42.629 25.742402 42.913525 25.726562 43.205078 C 25.742182 42.914676 25.752759 42.628765 25.755859 42.347656 z M 25.503906 45.345703 C 25.464536 45.603684 25.420476 45.866558 25.371094 46.132812 C 25.420244 45.867283 25.464604 45.604546 25.503906 45.345703 z M 26.103516 45.869141 C 26.082518 45.993268 26.054393 46.120583 26.03125 46.246094 C 26.054368 46.120826 26.082534 45.99303 26.103516 45.869141 z " />
</svg>
