<?xml version="1.0" encoding="UTF-8" standalone="no"?>
<svg
   width="64"
   height="64"
   version="1"
   id="svg3"
   sodipodi:docname="preferences-tweaks-anim.svg"
   inkscape:version="1.3.2 (091e20ef0f, 2023-11-25, custom)"
   xmlns:inkscape="http://www.inkscape.org/namespaces/inkscape"
   xmlns:sodipodi="http://sodipodi.sourceforge.net/DTD/sodipodi-0.dtd"
   xmlns:xlink="http://www.w3.org/1999/xlink"
   xmlns="http://www.w3.org/2000/svg"
   xmlns:svg="http://www.w3.org/2000/svg">
  <defs
     id="defs3">
    <linearGradient
       id="linearGradient3"
       inkscape:collect="always">
      <stop
         style="stop-color:#ffbc2c;stop-opacity:1;"
         offset="0"
         id="stop3" />
      <stop
         style="stop-color:#ff612c;stop-opacity:1;"
         offset="1"
         id="stop4" />
    </linearGradient>
    <radialGradient
       inkscape:collect="always"
       xlink:href="#linearGradient3"
       id="radialGradient4"
       cx="18.851364"
       cy="50.0331"
       fx="18.851364"
       fy="50.0331"
       r="29.000237"
       gradientTransform="matrix(1.4071973,-0.81244576,0.78443095,1.3586743,-46.923737,-3.2516844)"
       gradientUnits="userSpaceOnUse" />
    <filter
       inkscape:collect="always"
       style="color-interpolation-filters:sRGB"
       id="filter4"
       x="-0.045680255"
       y="-0.047161248"
       width="1.0913605"
       height="1.0942806">
      <feGaussianBlur
         inkscape:collect="always"
         stdDeviation="1.0170971"
         id="feGaussianBlur4" />
    </filter>
  </defs>
  <sodipodi:namedview
     id="namedview3"
     pagecolor="#505050"
     bordercolor="#eeeeee"
     borderopacity="1"
     inkscape:showpageshadow="0"
     inkscape:pageopacity="0"
     inkscape:pagecheckerboard="0"
     inkscape:deskcolor="#505050"
     inkscape:zoom="13.484375"
     inkscape:cx="32"
     inkscape:cy="32"
     inkscape:window-width="1920"
     inkscape:window-height="1024"
     inkscape:window-x="0"
     inkscape:window-y="0"
     inkscape:window-maximized="1"
     inkscape:current-layer="svg3" />
  <path
     style="fill:url(#radialGradient4)"
     d="M 32 4 C 29.385603 4.037368 27.521489 5.6117895 26.646484 8.21875 L 26.677734 8.1015625 L 22.570312 20 L 8.71875 20 C 8.688548 19.999516 8.6591083 19.999516 8.6289062 20 C 6.9746512 20.05362 5.4825685 21.025216 4.4316406 22.304688 C 2.1587962 24.913682 2.6411729 29.618694 5.5273438 31.564453 L 16.417969 39.525391 L 12.191406 52.65625 C 12.186666 52.67079 12.182134 52.684619 12.177734 52.699219 C 11.531924 54.820739 12.139218 57.006779 13.763672 58.501953 C 13.775482 58.512993 13.790714 58.524356 13.802734 58.535156 C 15.754818 60.27053 18.49667 60.491086 20.701172 59.054688 C 20.743112 59.027547 20.785752 58.99805 20.826172 58.96875 L 32 51 L 43.173828 58.96875 C 43.214248 58.99807 43.256888 59.027567 43.298828 59.054688 C 45.503333 60.491085 48.24518 60.27053 50.197266 58.535156 C 50.209266 58.524356 50.224508 58.512993 50.236328 58.501953 C 51.860781 57.006779 52.468077 54.820739 51.822266 52.699219 C 51.817866 52.684619 51.813394 52.67079 51.808594 52.65625 L 47.582031 39.525391 L 58.472656 31.564453 C 61.358827 29.618694 61.841203 24.913683 59.568359 22.304688 C 58.517431 21.025216 57.02535 20.05362 55.371094 20 C 55.340894 19.999516 55.31145 19.999516 55.28125 20 L 41.429688 20 L 37.322266 8.1015625 L 37.353516 8.21875 C 36.478511 5.6117895 34.614396 4.037368 32 4 z"
     id="path2" />
  <path
     style="fill:none;fill-opacity:1;stroke:#000000;stroke-opacity:1;filter:url(#filter4);stroke-width:0.39999991;stroke-dasharray:none"
     d="m 31.999998,3.9997502 c -2.614397,0.037368 -4.478511,1.6117895 -5.353516,4.21875 L 26.677732,8.1013127 22.57031,19.99975 H 8.7187482 c -0.0302,-4.84e-4 -0.05964,-4.84e-4 -0.08984,0 -1.654255,0.05362 -3.146337,1.025216 -4.1972654,2.304688 -2.2728444,2.608994 -1.7904677,7.314006 1.0957034,9.259765 L 16.417971,39.525141 12.191408,52.656 c -0.0047,0.01454 -0.0093,0.02837 -0.01367,0.04297 -0.64581,2.12152 -0.03852,4.30756 1.585938,5.802734 0.01181,0.01104 0.02704,0.0224 0.03906,0.0332 1.952084,1.735374 4.693936,1.95593 6.898438,0.519532 0.04194,-0.02714 0.08458,-0.05664 0.125,-0.08594 L 31.999998,50.99975 43.173826,58.9685 c 0.04042,0.02932 0.08306,0.05882 0.125,0.08594 2.204505,1.436397 4.946352,1.215842 6.898438,-0.519532 0.012,-0.0108 0.02724,-0.02216 0.03906,-0.0332 1.624453,-1.495174 2.231749,-3.681214 1.585938,-5.802734 -0.0044,-0.0146 -0.0089,-0.02843 -0.01367,-0.04297 L 47.582029,39.525141 58.472654,31.564203 c 2.886171,-1.945759 3.368547,-6.65077 1.095703,-9.259765 -1.050928,-1.279472 -2.543009,-2.251068 -4.197265,-2.304688 -0.0302,-4.84e-4 -0.05964,-4.84e-4 -0.08984,0 H 41.429686 l -4.107422,-11.8984373 0.03125,0.1171875 c -0.875005,-2.6069605 -2.73912,-4.181382 -5.353516,-4.21875 z"
     id="path2-3" />
</svg>
