<?xml version="1.0" encoding="UTF-8" standalone="no"?>
<svg
   width="64"
   height="64"
   version="1"
   id="svg3"
   sodipodi:docname="application-x-khtml-adaptor.svg"
   inkscape:version="1.4 (e7c3feb100, 2024-10-09)"
   xmlns:inkscape="http://www.inkscape.org/namespaces/inkscape"
   xmlns:sodipodi="http://sodipodi.sourceforge.net/DTD/sodipodi-0.dtd"
   xmlns:xlink="http://www.w3.org/1999/xlink"
   xmlns="http://www.w3.org/2000/svg"
   xmlns:svg="http://www.w3.org/2000/svg">
  <defs
     id="defs3">
    <linearGradient
       id="SVGID_1_"
       gradientUnits="userSpaceOnUse"
       x1="-0.4874"
       y1="62.567902"
       x2="70.614098"
       y2="-5.4541998"
       gradientTransform="matrix(0.89830777,0,0,0.89830777,3.2870353,3.2811968)">
      <stop
         offset="0"
         style="stop-color:#00e1ff;stop-opacity:1;"
         id="stop1" />
      <stop
         offset="1"
         style="stop-color:#3f99ff;stop-opacity:1;"
         id="stop3" />
    </linearGradient>
    <radialGradient
       inkscape:collect="always"
       xlink:href="#SVGID_1_"
       id="radialGradient4"
       cx="21.177057"
       cy="20.165461"
       fx="21.177057"
       fy="20.165461"
       r="26.945292"
       gradientTransform="matrix(0,1.3431532,-1.5508305,0,48.283742,-10.092776)"
       gradientUnits="userSpaceOnUse" />
  </defs>
  <sodipodi:namedview
     id="namedview3"
     pagecolor="#272727"
     bordercolor="#000000"
     borderopacity="0.25"
     inkscape:showpageshadow="2"
     inkscape:pageopacity="0.0"
     inkscape:pagecheckerboard="0"
     inkscape:deskcolor="#d1d1d1"
     inkscape:zoom="8.9382717"
     inkscape:cx="31.10221"
     inkscape:cy="28.584944"
     inkscape:window-width="3440"
     inkscape:window-height="1361"
     inkscape:window-x="0"
     inkscape:window-y="0"
     inkscape:window-maximized="1"
     inkscape:current-layer="svg3" />
  <path
     class="st1"
     d="m 14.695544,19.181245 c 0.179661,1.616954 0.538984,3.144077 0.449154,4.761031 0,0.808477 -0.179662,1.616954 -0.538985,2.3356 -0.179662,0.359323 -0.449154,0.628816 -0.808477,0.898308 -0.359323,0.269492 -0.718646,0.449154 -1.077969,0.449154 -0.628815,0.08983 -1.257631,-0.179662 -1.886446,-0.449154 -0.628816,-0.269492 -1.1678005,-0.538985 -1.7966159,-0.628816 -0.6288154,-0.08983 -1.2576309,0 -1.8864463,0.359324 -0.5389847,0.269492 -1.0779694,0.718646 -1.3474617,1.25763 -0.7186462,1.07797 -0.808477,3.323739 -0.7186462,4.58137 0.089831,0.988139 0.4491539,1.886446 1.0779693,2.605093 0.3593231,0.359323 0.7186462,0.628815 1.1678001,0.898307 0.4491539,0.179662 0.8983078,0.269493 1.4372925,0.179662 0.6288154,-0.08983 1.2576312,-0.449154 1.8864462,-0.718646 0.269492,-0.179662 0.628816,-0.269493 0.898308,-0.359323 0.359323,-0.08983 0.628815,-0.08983 0.988138,0 0.359323,0.08983 0.718646,0.269492 0.898308,0.538984 0.269492,0.269493 0.449154,0.538985 0.628815,0.898308 0.269493,0.628816 0.359323,1.437293 0.359323,2.155939 0.179662,3.952554 -0.08983,7.905108 -0.718646,11.767832 -0.08983,0.628815 0.269492,1.257631 0.898308,1.527123 2.605092,0.898308 5.120354,1.527123 7.815277,1.976277 0.988139,0.179661 2.066108,0.359323 3.054247,0.08983 0.538985,-0.08983 0.988138,-0.359323 1.347462,-0.718646 0.359323,-0.359324 0.628815,-0.808477 0.718646,-1.347462 0.08983,-0.359323 0,-0.538985 -0.08983,-0.898308 -0.08983,-0.359323 -0.269492,-0.718646 -0.449154,-1.077969 -0.359323,-0.628816 -0.988138,-1.347462 -1.1678,-2.155939 -0.08983,-0.628815 0,-1.347462 0.269492,-1.976277 0.269493,-0.628815 0.808477,-1.1678 1.347462,-1.527123 1.1678,-0.808477 2.694923,-0.988139 4.132216,-1.07797 1.257631,0 2.784754,0.179662 3.862723,0.808477 0.538985,0.359324 0.988139,0.808477 1.347462,1.347462 0.359323,0.538985 0.449154,1.1678 0.449154,1.796616 -0.08983,0.449154 -0.269493,0.898307 -0.449154,1.347461 -0.179662,0.449154 -0.449154,0.718647 -0.718646,1.1678 -0.179662,0.449154 -0.718647,0.898308 -0.718647,1.347462 -0.08983,0.449154 0,0.718646 0.269493,1.1678 0.179661,0.269493 0.449154,0.538985 0.718646,0.718646 0.269492,0.179662 0.628815,0.269493 0.898308,0.449154 2.066108,0.718646 4.491539,0.808477 6.647477,0.449154 1.976277,-0.359323 3.772893,-1.077969 5.389847,-2.245769 0.359323,-0.269493 0.538985,-0.718646 0.538985,-1.257631 l -1.07797,-7.545785 c -0.179661,-1.437293 -0.449154,-2.694924 -0.449154,-4.132216 0,-0.718646 0.269493,-1.527123 0.538985,-2.155939 0.179662,-0.359323 0.359323,-0.628815 0.718646,-0.898308 0.269493,-0.269492 0.628816,-0.449154 0.988139,-0.538984 0.359323,-0.08983 0.718646,-0.08983 1.077969,0 0.359323,0.08983 0.718646,0.179661 0.988139,0.269492 0.628815,0.269492 1.347461,0.538985 1.976277,0.628815 0.628815,0.08983 1.347461,0 1.886446,-0.269492 0.628816,-0.269492 1.077969,-0.718646 1.527123,-1.257631 0.808477,-1.077969 1.07797,-3.054246 0.898308,-4.311877 -0.08983,-1.077969 -0.538985,-2.066108 -1.257631,-2.874585 -0.359323,-0.359323 -0.808477,-0.718646 -1.347461,-0.898308 -0.449154,-0.179661 -1.07797,-0.269492 -1.527124,-0.269492 -0.718646,0.08983 -1.347461,0.359323 -2.066108,0.628815 -0.359323,0.08983 -0.628815,0.269493 -0.988138,0.269493 -0.359323,0.08983 -0.718646,0.08983 -1.077969,0 -0.538985,-0.08983 -0.988139,-0.449154 -1.347462,-0.808477 -0.359323,-0.359323 -0.538985,-0.898308 -0.628816,-1.437293 -0.08983,-0.269492 -0.08983,-0.538984 0,-0.808477 0.628816,-3.862723 1.167801,-7.455954 1.347462,-11.408508 0,-0.628816 -0.359323,-1.167801 -0.898308,-1.347462 C 46.226148,10.64732 42.99224,10.018504 40.027824,9.659181 39.039685,9.56935 37.961716,9.4795194 36.973577,9.749012 c -0.449153,0.1796615 -0.898307,0.449154 -1.25763,0.808477 -0.359324,0.359323 -0.538985,0.898308 -0.538985,1.347461 0,0.359324 0.179661,0.718647 0.359323,0.988139 0.179662,0.359323 0.449154,0.628816 0.628815,0.898308 0.449154,0.538985 0.718647,0.628816 0.988139,1.347462 0.269492,0.718646 0.269492,1.527123 0,2.245769 -0.269492,0.718646 -0.718646,1.347462 -1.347462,1.886447 -0.628815,0.449153 -1.347461,0.808477 -2.155938,0.988138 -0.718647,0.179662 -1.706785,0.179662 -2.515262,0.179662 -1.257631,-0.08983 -2.605093,-0.359323 -3.683062,-1.1678 -0.538985,-0.359324 -0.898308,-0.898308 -1.1678,-1.437293 -0.269492,-0.538985 -0.359323,-1.1678 -0.269492,-1.796615 0.08983,-0.808477 0.898307,-1.167801 1.25763,-1.886447 0.179662,-0.359323 0.449154,-0.718646 0.628816,-1.1678 0.08983,-0.449154 0.179661,-0.808477 0.08983,-1.257631 -0.08983,-0.449154 -0.359323,-0.808477 -0.628816,-1.1678 C 27.00236,10.287997 26.643037,10.018505 26.193883,9.8388435 25.385406,9.5693512 23.49896,9.5693512 23.49896,9.5693512 c -3.952554,0.1796616 -8.444093,1.4372928 -8.444093,1.4372928 -0.718646,0.08983 -1.1678,0.718646 -1.1678,1.437292 z"
     id="path3"
     style="fill:url(#radialGradient4);stroke-width:0.898308" />
</svg>
