<?xml version="1.0" encoding="UTF-8" standalone="no"?>
<svg
   width="64"
   height="64"
   version="1"
   id="svg4"
   sodipodi:docname="yast-x11.svg"
   inkscape:version="1.3.2 (091e20ef0f, 2023-11-25, custom)"
   xmlns:inkscape="http://www.inkscape.org/namespaces/inkscape"
   xmlns:sodipodi="http://sodipodi.sourceforge.net/DTD/sodipodi-0.dtd"
   xmlns:xlink="http://www.w3.org/1999/xlink"
   xmlns="http://www.w3.org/2000/svg"
   xmlns:svg="http://www.w3.org/2000/svg">
  <defs
     id="defs4">
    <inkscape:path-effect
       effect="fillet_chamfer"
       id="path-effect2"
       is_visible="true"
       lpeversion="1"
       nodesatellites_param="F,0,0,1,0,0,0,1 @ F,0,0,1,0,0,0,1 @ F,0,0,1,0,0,0,1 @ F,0,1,1,0,0.92705208,0,1 @ F,0,1,1,0,0.92705208,0,1 @ F,0,0,1,0,0,0,1 @ F,0,0,1,0,0,0,1 @ F,0,0,1,0,0,0,1 @ F,0,0,1,0,0,0,1 @ F,0,0,1,0,0,0,1 @ F,0,0,1,0,0,0,1 @ F,0,0,1,0,0,0,1 @ F,0,0,1,0,0,0,1 @ F,0,0,1,0,0,0,1 @ F,0,0,1,0,0,0,1 @ F,0,0,1,0,0,0,1 @ F,0,0,1,0,0,0,1 @ F,0,0,1,0,0,0,1 @ F,0,0,1,0,0,0,1 @ F,0,0,1,0,0,0,1 @ F,0,0,1,0,0,0,1 @ F,0,0,1,0,0,0,1 @ F,0,0,1,0,0,0,1 @ F,0,0,1,0,0,0,1 @ F,0,0,1,0,0,0,1 @ F,0,0,1,0,0,0,1 @ F,0,0,1,0,0,0,1 @ F,0,0,1,0,0,0,1 @ F,0,0,1,0,0,0,1 @ F,0,1,1,0,0.92705208,0,1 @ F,0,0,1,0,0.92705208,0,1 @ F,0,0,1,0,0,0,1 @ F,0,0,1,0,0,0,1 @ F,0,0,1,0,0,0,1 @ F,0,0,1,0,0,0,1 @ F,0,0,1,0,0,0,1 @ F,0,0,1,0,0,0,1 @ F,0,0,1,0,0,0,1 @ F,0,0,1,0,0,0,1 @ F,0,0,1,0,0,0,1 @ F,0,0,1,0,0,0,1 @ F,0,0,1,0,0,0,1 @ F,0,0,1,0,0,0,1 @ F,0,0,1,0,0,0,1 @ F,0,0,1,0,0,0,1 @ F,0,0,1,0,0,0,1 @ F,0,0,1,0,0,0,1 @ F,0,0,1,0,0,0,1"
       radius="0"
       unit="px"
       method="auto"
       mode="F"
       chamfer_steps="1"
       flexible="false"
       use_knot_distance="true"
       apply_no_radius="true"
       apply_with_radius="true"
       only_selected="false"
       hide_knots="false" />
    <clipPath
       clipPathUnits="userSpaceOnUse"
       id="clipPath54">
      <path
         id="path54"
         style="stroke-width:0.0999999;stroke-linecap:square;paint-order:markers fill stroke;stop-color:#000000"
         d="m 1691.1994,-792.32001 h 1634.8919 v 92.82806 H 1691.1994 Z" />
    </clipPath>
    <linearGradient
       id="swatch10"
       inkscape:swatch="solid">
      <stop
         style="stop-color:#000000;stop-opacity:1;"
         offset="0"
         id="stop11" />
    </linearGradient>
    <linearGradient
       id="swatch6">
      <stop
         style="stop-color:#000000;stop-opacity:1;"
         offset="0"
         id="stop6" />
    </linearGradient>
    <filter
       inkscape:collect="always"
       style="color-interpolation-filters:sRGB"
       id="filter2"
       x="-0.083385107"
       y="-0.10125408"
       width="1.1667702"
       height="1.2025082">
      <feGaussianBlur
         inkscape:collect="always"
         stdDeviation="1.1294247"
         id="feGaussianBlur2" />
    </filter>
    <radialGradient
       inkscape:collect="always"
       xlink:href="#linearGradient5-2"
       id="radialGradient6-6"
       cx="3.9041595"
       cy="42.012211"
       fx="3.9041595"
       fy="42.012211"
       r="28"
       gradientUnits="userSpaceOnUse"
       gradientTransform="matrix(2.1449973,1.2384147,-1.2384147,2.1449973,59.571544,-69.456807)" />
    <linearGradient
       id="linearGradient5-2"
       inkscape:collect="always">
      <stop
         style="stop-color:#02b3f3;stop-opacity:1;"
         offset="0"
         id="stop5-9" />
      <stop
         style="stop-color:#0270f3;stop-opacity:1;"
         offset="1"
         id="stop6-1" />
    </linearGradient>
    <filter
       inkscape:collect="always"
       style="color-interpolation-filters:sRGB"
       id="filter2-2"
       x="-0.069953985"
       y="-0.069953985"
       width="1.139908"
       height="1.139908">
      <feGaussianBlur
         inkscape:collect="always"
         stdDeviation="1.590593"
         id="feGaussianBlur2-7" />
    </filter>
  </defs>
  <sodipodi:namedview
     id="namedview4"
     pagecolor="#ffffff"
     bordercolor="#000000"
     borderopacity="0.25"
     inkscape:showpageshadow="2"
     inkscape:pageopacity="0.0"
     inkscape:pagecheckerboard="0"
     inkscape:deskcolor="#d1d1d1"
     inkscape:zoom="11.702599"
     inkscape:cx="33.795911"
     inkscape:cy="29.224277"
     inkscape:window-width="1920"
     inkscape:window-height="1020"
     inkscape:window-x="0"
     inkscape:window-y="0"
     inkscape:window-maximized="1"
     inkscape:current-layer="svg4" />
  <rect
     style="fill:url(#radialGradient6-6)"
     width="56"
     height="56"
     x="4"
     y="4"
     rx="27.999001"
     ry="27.999001"
     id="rect1" />
  <rect
     style="fill:none;stroke:#000000;stroke-width:0.2;stroke-dasharray:none;stroke-opacity:1;filter:url(#filter2-2)"
     width="56"
     height="56"
     x="4.0000005"
     y="4.0000005"
     rx="27.999001"
     ry="27.999001"
     id="rect1-5" />
  <path
     id="path3"
     style="fill:#ffffff;stroke-width:0.991342;fill-opacity:1"
     d="m 33.723977,18.120957 c -3.667328,0 -5.896149,4.102819 -7.299538,7.749346 l -0.713193,2.163523 h -5.671265 a 0.92705208,0.92705208 135 0 0 -0.927052,0.927052 v 0.129838 a 0.92705208,0.92705208 45 0 0 0.927052,0.927052 h 5.017933 l -0.396789,1.207468 -2.242197,7.179818 c -0.69591,2.020186 -1.185102,5.232448 -3.305999,5.491756 -0.927739,0.113431 -0.888934,-1.983942 -1.983942,-1.983942 -1.095007,0 -1.982232,0.888934 -1.982232,1.983942 0,1.095008 0.887225,1.982232 1.982232,1.982232 h 1.251936 c 4.240769,0 6.658773,-5.335763 8.47622,-11.207562 l 1.019336,-3.314551 0.415602,-1.339161 h 2.715948 3.966173 1.980522 l -0.396788,1.207468 -2.242197,7.179818 c -0.695911,2.020186 -1.186814,5.232448 -3.30771,5.491756 -0.927738,0.113431 -0.887224,-1.983942 -1.982231,-1.983942 -1.095006,0 -1.982232,0.888934 -1.982232,1.983942 0,1.095008 0.887226,1.982232 1.982232,1.982232 h 1.250225 c 4.240768,0 6.660484,-5.335763 8.477931,-11.207562 l 1.017626,-3.314551 0.415601,-1.339161 h 5.75678 a 0.92705208,0.92705208 135 0 0 0.927052,-0.927052 v -0.129838 a 0.92705208,0.92705208 45 0 0 -0.927052,-0.927052 h -5.139363 l 0.593472,-1.90869 c 0.839425,-2.162612 1.188803,-5.720935 3.489001,-6.021947 0.926746,-0.121277 0.888933,1.983942 1.983942,1.983942 1.095008,0 1.982232,-0.888933 1.982232,-1.983942 0,-1.095006 -0.887224,-1.982232 -1.982232,-1.982232 h -1.251936 c -3.667327,0 -5.896148,4.102819 -7.299537,7.749346 l -0.711483,2.163523 h -2.633855 -3.966173 -2.098532 l 0.593473,-1.90869 c 0.839425,-2.162612 1.188802,-5.720935 3.489001,-6.021947 0.926745,-0.121277 0.887222,1.983942 1.982231,1.983942 1.095007,0 1.982233,-0.888933 1.982233,-1.983942 0,-1.095006 -0.887226,-1.982232 -1.982233,-1.982232 z"
     inkscape:original-d="m 33.723977,18.120957 c -3.667328,0 -5.896149,4.102819 -7.299538,7.749346 l -0.713193,2.163523 h -6.598317 v 1.983942 h 5.944985 l -0.396789,1.207468 -2.242197,7.179818 c -0.69591,2.020186 -1.185102,5.232448 -3.305999,5.491756 -0.927739,0.113431 -0.888934,-1.983942 -1.983942,-1.983942 -1.095007,0 -1.982232,0.888934 -1.982232,1.983942 0,1.095008 0.887225,1.982232 1.982232,1.982232 h 1.251936 c 4.240769,0 6.658773,-5.335763 8.47622,-11.207562 l 1.019336,-3.314551 0.415602,-1.339161 h 2.715948 3.966173 1.980522 l -0.396788,1.207468 -2.242197,7.179818 c -0.695911,2.020186 -1.186814,5.232448 -3.30771,5.491756 -0.927738,0.113431 -0.887224,-1.983942 -1.982231,-1.983942 -1.095006,0 -1.982232,0.888934 -1.982232,1.983942 0,1.095008 0.887226,1.982232 1.982232,1.982232 h 1.250225 c 4.240768,0 6.660484,-5.335763 8.477931,-11.207562 l 1.017626,-3.314551 0.415601,-1.339161 h 6.683832 v -1.983942 h -6.066415 l 0.593472,-1.90869 c 0.839425,-2.162612 1.188803,-5.720935 3.489001,-6.021947 0.926746,-0.121277 0.888933,1.983942 1.983942,1.983942 1.095008,0 1.982232,-0.888933 1.982232,-1.983942 0,-1.095006 -0.887224,-1.982232 -1.982232,-1.982232 h -1.251936 c -3.667327,0 -5.896148,4.102819 -7.299537,7.749346 l -0.711483,2.163523 h -2.633855 -3.966173 -2.098532 l 0.593473,-1.90869 c 0.839425,-2.162612 1.188802,-5.720935 3.489001,-6.021947 0.926745,-0.121277 0.887222,1.983942 1.982231,1.983942 1.095007,0 1.982233,-0.888933 1.982233,-1.983942 0,-1.095006 -0.887226,-1.982232 -1.982233,-1.982232 z"
     inkscape:path-effect="#path-effect2" />
  <path
     id="path3-3"
     style="fill:none;stroke-width:0.2;stroke-dasharray:none;stroke:#000000;stroke-opacity:1;filter:url(#filter2)"
     d="m 33.723977,18.120957 c -3.667328,0 -5.896149,4.102819 -7.299538,7.749346 l -0.713193,2.163523 h -6.598317 v 1.983942 h 5.944985 l -0.396789,1.207468 -2.242197,7.179818 c -0.69591,2.020186 -1.185102,5.232448 -3.305999,5.491756 -0.927739,0.113431 -0.888934,-1.983941 -1.983942,-1.983941 -1.095007,0 -1.982232,0.888933 -1.982232,1.983941 0,1.095008 0.887225,1.982232 1.982232,1.982232 h 1.251936 c 4.240769,0 6.658773,-5.335763 8.47622,-11.207562 l 1.019336,-3.314551 0.415602,-1.339161 h 2.715948 3.966173 1.980522 l -0.396788,1.207468 -2.242197,7.179818 c -0.695911,2.020186 -1.186814,5.232448 -3.30771,5.491756 -0.927738,0.113431 -0.887224,-1.983941 -1.982231,-1.983941 -1.095006,0 -1.982232,0.888933 -1.982232,1.983941 0,1.095008 0.887226,1.982232 1.982232,1.982232 h 1.250225 c 4.240768,0 6.660484,-5.335763 8.477931,-11.207562 l 1.017626,-3.314551 0.415601,-1.339161 h 6.683832 v -1.983942 h -6.066415 l 0.593472,-1.90869 c 0.839425,-2.162612 1.188803,-5.720935 3.489001,-6.021947 0.926746,-0.121277 0.888933,1.983942 1.983942,1.983942 1.095008,0 1.982232,-0.888933 1.982232,-1.983942 0,-1.095006 -0.887224,-1.982232 -1.982232,-1.982232 h -1.251936 c -3.667327,0 -5.896148,4.102819 -7.299537,7.749346 l -0.711483,2.163523 h -2.633855 -3.966173 -2.098532 l 0.593473,-1.90869 c 0.839425,-2.162612 1.188802,-5.720935 3.489001,-6.021947 0.926745,-0.121277 0.887222,1.983942 1.982231,1.983942 1.095007,0 1.982233,-0.888933 1.982233,-1.983942 0,-1.095006 -0.887226,-1.982232 -1.982233,-1.982232 z" />
</svg>
