<?xml version="1.0" encoding="UTF-8" standalone="no"?>
<svg
   width="64"
   height="64"
   version="1"
   id="svg4"
   sodipodi:docname="preferences-desktop-notification.svg"
   inkscape:version="1.3.2 (091e20ef0f, 2023-11-25, custom)"
   xmlns:inkscape="http://www.inkscape.org/namespaces/inkscape"
   xmlns:sodipodi="http://sodipodi.sourceforge.net/DTD/sodipodi-0.dtd"
   xmlns:xlink="http://www.w3.org/1999/xlink"
   xmlns="http://www.w3.org/2000/svg"
   xmlns:svg="http://www.w3.org/2000/svg">
  <defs
     id="defs4">
    <inkscape:path-effect
       effect="fillet_chamfer"
       id="path-effect5"
       is_visible="true"
       lpeversion="1"
       nodesatellites_param="F,0,1,1,0,2.3620733,0,1 @ F,0,1,1,0,2.3620733,0,1 @ F,0,1,1,0,2.3620733,0,1 @ F,0,1,1,0,2.3620733,0,1 | F,0,1,1,0,2.3620733,0,1 @ F,0,1,1,0,2.3620733,0,1 @ F,0,1,1,0,2.3620733,0,1 @ F,0,0,1,0,2.3620733,0,1"
       radius="0"
       unit="px"
       method="auto"
       mode="F"
       chamfer_steps="1"
       flexible="false"
       use_knot_distance="true"
       apply_no_radius="true"
       apply_with_radius="true"
       only_selected="false"
       hide_knots="false" />
    <linearGradient
       id="linearGradient4"
       inkscape:collect="always">
      <stop
         style="stop-color:#ff5a2f;stop-opacity:1;"
         offset="0"
         id="stop4" />
      <stop
         style="stop-color:#ed3f3b;stop-opacity:1;"
         offset="1"
         id="stop5" />
    </linearGradient>
    <radialGradient
       inkscape:collect="always"
       xlink:href="#linearGradient4"
       id="radialGradient5"
       cx="14.172323"
       cy="48.049175"
       fx="14.172323"
       fy="48.049175"
       r="26.132326"
       gradientUnits="userSpaceOnUse"
       gradientTransform="matrix(2.0435852,-1.5730646,1.3191884,1.7137719,-78.175942,-12.002171)" />
    <filter
       inkscape:collect="always"
       style="color-interpolation-filters:sRGB"
       id="filter5"
       x="-0.099742312"
       y="-0.099742312"
       width="1.1994846"
       height="1.1994846">
      <feGaussianBlur
         inkscape:collect="always"
         stdDeviation="2.1095823"
         id="feGaussianBlur5" />
    </filter>
    <inkscape:path-effect
       effect="fillet_chamfer"
       id="path-effect5-3"
       is_visible="true"
       lpeversion="1"
       nodesatellites_param="F,0,1,1,0,2.3620733,0,1 @ F,0,1,1,0,2.3620733,0,1 @ F,0,1,1,0,2.3620733,0,1 @ F,0,1,1,0,2.3620733,0,1 | F,0,1,1,0,2.3620733,0,1 @ F,0,1,1,0,2.3620733,0,1 @ F,0,1,1,0,2.3620733,0,1 @ F,0,0,1,0,2.3620733,0,1"
       radius="0"
       unit="px"
       method="auto"
       mode="F"
       chamfer_steps="1"
       flexible="false"
       use_knot_distance="true"
       apply_no_radius="true"
       apply_with_radius="true"
       only_selected="false"
       hide_knots="false" />
    <filter
       inkscape:collect="always"
       style="color-interpolation-filters:sRGB"
       id="filter1"
       x="-0.41875399"
       y="-0.069792338"
       width="1.837508"
       height="1.1395847">
      <feGaussianBlur
         inkscape:collect="always"
         stdDeviation="0.7953487"
         id="feGaussianBlur1" />
    </filter>
  </defs>
  <sodipodi:namedview
     id="namedview4"
     pagecolor="#ffffff"
     bordercolor="#000000"
     borderopacity="0.25"
     inkscape:showpageshadow="2"
     inkscape:pageopacity="0.0"
     inkscape:pagecheckerboard="0"
     inkscape:deskcolor="#d1d1d1"
     inkscape:zoom="9.8111066"
     inkscape:cx="35.011341"
     inkscape:cy="29.150636"
     inkscape:window-width="1920"
     inkscape:window-height="1020"
     inkscape:window-x="0"
     inkscape:window-y="0"
     inkscape:window-maximized="1"
     inkscape:current-layer="svg4" />
  <circle
     style="fill:url(#radialGradient5);stroke-width:1.68596;fill-opacity:1"
     cx="32"
     cy="31.157022"
     r="26.132326"
     id="circle4" />
  <circle
     style="opacity:1;mix-blend-mode:normal;stroke-width:0.30000001;filter:url(#filter5);fill:none;stroke:#000000;stroke-opacity:1;stroke-dasharray:none"
     cx="32"
     cy="31.54299"
     r="26.132326"
     id="circle3" />
  <path
     style="fill:#ffffff;stroke-width:1.68596"
     d="m 29.471118,17.502509 v 17.193288 a 2.3620733,2.3620733 45 0 0 2.362073,2.362073 h 0.333724 a 2.3620733,2.3620733 135 0 0 2.362073,-2.362073 V 17.502509 a 2.3620733,2.3620733 45 0 0 -2.362073,-2.362073 h -0.333724 a 2.3620733,2.3620733 135 0 0 -2.362073,2.362073 z m 0,25.289347 0,0.333724 a 2.3620733,2.3620733 45 0 0 2.362073,2.362073 l 0.333724,0 a 2.3620733,2.3620733 135 0 0 2.362073,-2.362073 v -0.333724 a 2.3620733,2.3620733 45 0 0 -2.362073,-2.362073 h -0.333724 a 2.3620733,2.3620733 135 0 0 -2.362073,2.362073 z"
     id="path4"
     inkscape:path-effect="#path-effect5"
     inkscape:original-d="M 29.471118,15.140436 V 37.05787 h 5.05787 V 15.140436 Z m 0,25.289347 v 5.05787 h 5.05787 v -5.05787 z"
     transform="matrix(1.1952212,0,0,1.1952212,-6.2466274,-4.2319886)" />
  <path
     style="fill:none;stroke:#ff0000;stroke-width:0.41833267;stroke-dasharray:none;stroke-opacity:1;filter:url(#filter1)"
     d="m 29.471118,17.502509 v 17.193288 a 2.3620733,2.3620733 45 0 0 2.362073,2.362073 h 0.333724 a 2.3620733,2.3620733 135 0 0 2.362073,-2.362073 V 17.502509 a 2.3620733,2.3620733 45 0 0 -2.362073,-2.362073 h -0.333724 a 2.3620733,2.3620733 135 0 0 -2.362073,2.362073 z m 0,25.289347 0,0.333724 a 2.3620733,2.3620733 45 0 0 2.362073,2.362073 l 0.333724,0 a 2.3620733,2.3620733 135 0 0 2.362073,-2.362073 v -0.333724 a 2.3620733,2.3620733 45 0 0 -2.362073,-2.362073 h -0.333724 a 2.3620733,2.3620733 135 0 0 -2.362073,2.362073 z"
     id="path4-6"
     inkscape:path-effect="#path-effect5-3"
     inkscape:original-d="M 29.471118,15.140436 V 37.05787 h 5.05787 V 15.140436 Z m 0,25.289347 v 5.05787 h 5.05787 v -5.05787 z"
     transform="matrix(1.1952212,0,0,1.1952212,-6.249451,-4.231988)" />
</svg>
