<?xml version="1.0" encoding="UTF-8" standalone="no"?>
<svg
   width="64"
   height="64"
   version="1.1"
   id="svg12"
   sodipodi:docname="preferences-system-time.svg"
   inkscape:version="1.3.2 (091e20ef0f, 2023-11-25, custom)"
   xmlns:inkscape="http://www.inkscape.org/namespaces/inkscape"
   xmlns:sodipodi="http://sodipodi.sourceforge.net/DTD/sodipodi-0.dtd"
   xmlns:xlink="http://www.w3.org/1999/xlink"
   xmlns="http://www.w3.org/2000/svg"
   xmlns:svg="http://www.w3.org/2000/svg">
  <defs
     id="defs12">
    <linearGradient
       id="linearGradient3"
       inkscape:collect="always">
      <stop
         style="stop-color:#00baff;stop-opacity:1;"
         offset="0"
         id="stop2" />
      <stop
         style="stop-color:#0069ff;stop-opacity:1;"
         offset="1"
         id="stop3" />
    </linearGradient>
    <linearGradient
       id="linearGradient17"
       inkscape:collect="always">
      <stop
         style="stop-color:#4f4f4f;stop-opacity:1;"
         offset="0"
         id="stop18" />
      <stop
         style="stop-color:#323232;stop-opacity:1;"
         offset="1"
         id="stop19" />
    </linearGradient>
    <radialGradient
       inkscape:collect="always"
       xlink:href="#linearGradient17"
       id="radialGradient19"
       cx="26.555691"
       cy="32.298904"
       fx="26.555691"
       fy="32.298904"
       r="6"
       gradientUnits="userSpaceOnUse"
       gradientTransform="matrix(1.7008904,0.51275847,-0.5115918,1.6970204,1.0087848,-39.457715)" />
    <radialGradient
       inkscape:collect="always"
       xlink:href="#linearGradient3"
       id="radialGradient21"
       cx="15.949529"
       cy="39.018955"
       fx="15.949529"
       fy="39.018955"
       r="28"
       gradientUnits="userSpaceOnUse"
       gradientTransform="matrix(0,2.4509751,-2.4509753,0,113.64414,-18.712815)" />
    <filter
       inkscape:collect="always"
       style="color-interpolation-filters:sRGB"
       id="filter3"
       x="-0.045561957"
       y="-0.062027242"
       width="1.0911155"
       height="1.1240545">
      <feGaussianBlur
         inkscape:collect="always"
         stdDeviation="0.556432"
         id="feGaussianBlur3" />
    </filter>
    <filter
       inkscape:collect="always"
       style="color-interpolation-filters:sRGB"
       id="filter4"
       x="-0.08639725"
       y="-0.086397249"
       width="1.1727945"
       height="1.1727945">
      <feGaussianBlur
         inkscape:collect="always"
         stdDeviation="1.7155881"
         id="feGaussianBlur4" />
    </filter>
    <filter
       inkscape:collect="always"
       style="color-interpolation-filters:sRGB"
       id="filter5"
       x="-0.065238776"
       y="-0.065234526"
       width="1.1304776"
       height="1.1304691">
      <feGaussianBlur
         inkscape:collect="always"
         stdDeviation="1.5041995"
         id="feGaussianBlur5" />
    </filter>
  </defs>
  <sodipodi:namedview
     id="namedview12"
     pagecolor="#ffffff"
     bordercolor="#000000"
     borderopacity="0.25"
     inkscape:showpageshadow="2"
     inkscape:pageopacity="0.0"
     inkscape:pagecheckerboard="0"
     inkscape:deskcolor="#d1d1d1"
     inkscape:zoom="9.8111066"
     inkscape:cx="31.036254"
     inkscape:cy="27.774645"
     inkscape:window-width="1920"
     inkscape:window-height="1018"
     inkscape:window-x="0"
     inkscape:window-y="0"
     inkscape:window-maximized="1"
     inkscape:current-layer="svg12" />
  <path
     style="fill:url(#radialGradient21);stroke-width:0.981342"
     d="M 32,4.5224879 C 16.83886,4.5224879 4.5224877,16.838857 4.5224877,32 4.5224877,47.161143 16.83886,59.477515 32,59.477512 47.161139,59.477512 59.477526,47.161143 59.477512,32 59.477512,16.838857 47.161139,4.5224879 32,4.5224879 Z"
     id="path2" />
  <path
     id="path8"
     style="color:#000000;fill:#e4e4e4;stroke-linecap:round;stroke-linejoin:round;-inkscape-stroke:none"
     d="m 44.848158,16.726617 a 2.0701151,2.0701151 0 0 0 -1.464843,0.603516 L 31.539565,29.130914 23.98683,23.904351 a 2.0701151,2.0701151 0 0 0 -2.880859,0.523438 2.0701151,2.0701151 0 0 0 0.523437,2.878906 l 8.970703,6.210938 a 2.0701151,2.0701151 0 0 0 0.08008,0.04297 2.0701151,2.0701151 0 0 0 0.179687,0.0957 2.0701151,2.0701151 0 0 0 0.283203,0.117188 2.0701151,2.0701151 0 0 0 0.189453,0.05273 2.0701151,2.0701151 0 0 0 0.316407,0.04297 2.0701151,2.0701151 0 0 0 0.195312,0.0078 2.0701151,2.0701151 0 0 0 0.341797,-0.04492 2.0701151,2.0701151 0 0 0 0.150391,-0.02539 2.0701151,2.0701151 0 0 0 0.460937,-0.189453 2.0701151,2.0701151 0 0 0 0.0039,-0.002 2.0701151,2.0701151 0 0 0 0.08984,-0.06445 2.0701151,2.0701151 0 0 0 0.314453,-0.240235 2.0701151,2.0701151 0 0 0 0.03516,-0.02734 L 46.307143,20.261773 a 2.0701151,2.0701151 0 0 0 0.0039,-2.927734 2.0701151,2.0701151 0 0 0 -1.462891,-0.607422 z" />
  <path
     style="fill:url(#radialGradient19);stroke-width:0.690038"
     d="m 32,27.859772 c -2.284435,0 -4.140228,1.855792 -4.140228,4.140228 0,2.284434 1.855793,4.140228 4.140228,4.140228 2.284433,0 4.140228,-1.855794 4.140228,-4.140228 0,-2.284436 -1.855795,-4.140228 -4.140228,-4.140228 z"
     id="path12" />
  <path
     style="mix-blend-mode:normal;fill:none;stroke:#000000;stroke-width:0.3;stroke-dasharray:none;stroke-opacity:1;filter:url(#filter4)"
     d="m 31.967112,7.2231036 c -13.626648,0 -24.6964543,11.0698034 -24.6964543,24.6964544 0,13.626651 11.0698063,24.696457 24.6964543,24.696454 13.626648,0 24.696467,-11.069803 24.696454,-24.696454 0,-13.626651 -11.069806,-24.6964544 -24.696454,-24.6964544 z"
     id="path2-6"
     transform="matrix(1.1126096,0,0,1.1126096,-3.5669143,-3.5140056)" />
  <path
     id="path8-2"
     style="color:#000000;fill:none;stroke:#000000;stroke-width:0.0999999;stroke-linecap:round;stroke-linejoin:round;stroke-dasharray:none;stroke-opacity:1;filter:url(#filter3)"
     d="m 47.148438,14.416016 a 2.4045651,2.4045651 0 0 0 -1.701172,0.701172 L 33.21875,27.300781 c -0.399262,-0.107584 -0.818977,-0.166015 -1.251953,-0.166015 -0.734815,0 -1.431439,0.16553 -2.054688,0.460937 l -6.996093,-4.841797 a 2.4045651,2.4045651 0 0 0 -1.798828,-0.390625 2.4045651,2.4045651 0 0 0 -1.546876,0.998047 2.4045651,2.4045651 0 0 0 0.607422,3.345703 l 6.998047,4.84375 c -0.01057,0.129979 -0.01758,0.259903 -0.01758,0.392578 0,2.653508 2.155087,4.808594 4.808594,4.808594 2.653507,0 4.808594,-2.155086 4.808594,-4.808594 0,-0.427353 -0.05526,-0.841727 -0.160157,-1.236328 L 48.841797,18.523438 a 2.4045651,2.4045651 0 0 0 0.0059,-3.400391 2.4045651,2.4045651 0 0 0 -1.699218,-0.707031 z"
     transform="matrix(0.86091027,0,0,0.86091027,4.4334047,4.4758275)" />
  <path
     id="path1"
     style="color:#000000;opacity:0.1865285;fill:#ffffff;fill-opacity:1;stroke-linecap:round;stroke-linejoin:round;stroke-miterlimit:2.1;stroke-dasharray:2.16871, 4.33742;-inkscape-stroke:none;paint-order:markers stroke fill;filter:url(#filter5)"
     d="m 32.527344,4.4160156 c -3.186084,-0.5778154 -2.032313,3.0259485 -1.806938,4.723684 2.146642,1.0664854 4.303835,-0.1443964 3.876108,-2.3821571 0.447376,-1.4818194 0.03438,-2.6311646 -2.06917,-2.3415269 z m -5.951172,0.5273438 c -1.302723,0.099943 -4.410903,0.9538099 -2.546875,2.6425781 -0.209218,1.7855527 1.093433,3.4834375 3.048114,2.3682244 2.382515,-0.3127764 0.471685,-2.6510184 0.866611,-3.9600098 l -0.01824,-0.1464959 v 0 L 27.43844,5.1157298 Z m 11.878906,0.2265625 c -2.061855,0.2508194 -1.390286,2.9711888 -1.802246,4.408731 1.814979,1.6731541 4.477037,0.8453621 4.316584,-1.5619067 C 42.831217,6.1027455 39.924224,5.4708838 38.455078,5.1699219 Z M 20.222656,7.1367188 c -1.335859,0.3330926 -4.529734,2.0237252 -2.208984,3.3261722 0.252078,1.782804 1.955561,3.083795 3.553757,1.500697 C 23.785038,11.05309 21.348127,9.2766049 21.382984,7.9083768 21.233836,7.4418552 20.711267,7.0871789 20.222656,7.1367188 Z m 24.498047,0.4707031 c -1.599514,0.5028147 -1.789825,2.5835281 -2.453286,3.9233131 1.237224,1.803082 3.498384,2.102405 4.396648,0.225124 C 47.423492,10.528592 48.45864,9.0552587 46.187741,8.3326559 45.701067,8.0907601 45.275284,7.6957093 44.720703,7.6074219 Z M 14.367188,10.974609 c -2.047362,0.900404 -3.488025,3.2704 -1.132816,4.511719 0.985451,0.757301 2.172473,1.822387 3.17076,0.179564 2.391622,-1.356453 -0.236926,-2.790294 -0.790941,-4.07336 -0.211147,-0.432658 -0.695408,-0.725761 -1.247003,-0.617923 z m 36.058593,0.689453 c -1.568998,0.478539 -2.289752,1.992309 -3.235781,3.206169 0.752645,1.876883 2.786782,3.225123 4.194767,1.344609 0.766024,-0.752435 2.44581,-1.826803 0.829879,-2.993384 -0.579183,-0.52876 -1.026441,-1.267986 -1.788865,-1.557394 z M 9.828125,16.126953 c -1.9830361,1.139514 -2.9227147,4.181611 -0.21875,4.746091 1.147427,0.475383 2.569965,1.204729 3.111135,-0.64164 2.220286,-2.295104 -1.674486,-3.169506 -2.892385,-4.104451 z m 44.636719,0.830078 c -1.516081,1.053236 -4.67934,2.125323 -2.512255,4.450178 1.099873,2.047176 3.33777,-0.257267 4.689314,-0.77381 0.341438,-1.325584 -0.969318,-3.231795 -2.177059,-3.676368 z M 6.7695312,22.277344 C 4.799136,23.607282 4.6636887,27.229965 7.5,27.013672 c 1.2306536,0.163806 2.792995,0.501953 2.838387,-1.422315 1.539292,-2.771566 -2.2226061,-2.388266 -3.5688558,-3.314013 z m 50.8144528,0.970703 c -1.731876,0.63312 -5.064474,0.84454 -3.577341,3.652364 0.531809,2.264066 3.28958,0.611824 4.729828,0.463051 0.675641,-1.191842 -0.100894,-3.373918 -1.152487,-4.115415 z M 5.7050781,28.988281 c -2.4674016,0.758597 -1.4825358,5.78651 1.3398439,4.503907 1.2722701,0.0076 2.8929813,-0.251558 2.3789716,-2.107517 0.7546104,-3.054128 -2.2918283,-1.507183 -3.7188155,-2.39639 z m 52.6816409,1.009766 c -1.576444,0.470603 -4.39417,-0.233429 -3.807707,2.496494 -0.890285,3.06686 2.665404,2.780676 4.503903,2.678452 0.532965,-1.175921 1.168247,-4.77087 -0.696196,-5.174946 z M 8.6171875,35.449219 c -1.4841178,0.608126 -4.7170736,0.08562 -3.4660341,2.928875 0.1662839,3.111985 3.7151521,1.447533 5.0919546,0.425458 -0.08458,-1.065148 -0.111643,-3.406377 -1.6259205,-3.354333 z m 45.9335935,1.642578 c -1.606705,1.368658 -1.794226,4.124 0.572266,4.433597 1.077336,0.09942 2.695966,1.379678 3.02475,-0.698413 1.212492,-1.802492 0.230696,-3.552985 -1.729828,-3.43831 -0.820752,0.713885 -1.087749,-0.671604 -1.867188,-0.296874 z m -43.871093,4.162109 c -1.4497319,0.909164 -4.9518039,1.302478 -2.9806093,3.822729 0.9654122,2.965081 3.9693473,0.440573 5.0341943,-0.904222 -0.318925,-1.015189 -0.889384,-2.698267 -2.053585,-2.918507 z m 41.935546,1.482422 c -1.98169,0.613644 -2.999641,3.571373 -0.728515,4.417968 1.014445,0.37354 2.250574,2.03021 3.103045,0.107934 1.586541,-1.440588 1.210675,-3.321183 -0.78078,-3.766136 -0.920322,0.430879 -0.864306,-0.781228 -1.59375,-0.759766 z m -38.699218,3.658203 c -1.220539,1.212326 -4.5879656,2.520116 -2.025263,4.496005 1.807236,2.573573 3.918061,-0.660233 4.629351,-2.167212 -0.518568,-0.938228 -1.494855,-2.133778 -2.604088,-2.328793 z m 34.839843,1.207031 c -1.920231,0.714674 -3.262691,2.71711 -1.441406,4.164063 0.881682,0.62468 1.654047,2.535061 2.968269,0.899137 1.904823,-0.981863 2.023784,-2.89899 0.213338,-3.842496 -1.139106,0.177961 -0.59125,-1.417506 -1.740201,-1.220704 z m -30,2.869141 c -1.336477,0.817015 -2.160461,2.180048 -2.806931,3.572206 0.508845,1.470206 4.333223,3.268051 4.178025,0.709044 1.864641,-1.794174 1.491767,-3.417382 -1.371094,-4.28125 z m 25.019532,0.900391 c -1.911036,0.549758 -3.322968,1.870335 -2.066405,3.675781 0.690998,0.832306 0.946237,2.875779 2.638823,1.632328 2.351218,-0.503069 2.383235,-2.261617 1.19321,-3.657719 -1.140858,-0.271632 -0.103199,-1.86081 -1.765628,-1.65039 z m -19.820313,1.892578 c -1.077641,1.135298 -1.526525,2.663334 -1.789517,4.174316 0.872123,1.287925 5.024058,2.039152 4.221158,-0.393066 1.335336,-2.216857 0.559097,-3.689808 -2.431641,-3.78125 z m 14.570313,0.513672 c -2.002011,-0.0578 -3.868226,0.87992 -3.076172,2.988275 0.45699,0.97857 0.16668,3.024978 2.124187,2.263258 2.101449,0.0908 3.070131,-1.375161 2.137852,-2.970976 -0.703688,-0.824995 -0.05989,-1.633003 -1.185867,-2.280557 z m -8.302735,0.738281 c -1.731678,0.647829 -1.059604,3.144894 -1.17486,4.592196 2.160413,1.250015 4.988103,0.484097 4.239313,-2.139073 0.05893,-1.446862 -0.626721,-2.888795 -2.575072,-2.420106 l -0.489381,-0.03302 z"
     transform="matrix(0.93483054,0,0,0.93483054,2.0831935,2.0869842)" />
</svg>
