<?xml version="1.0" encoding="UTF-8" standalone="no"?>
<svg
   width="64"
   height="64"
   version="1"
   id="svg10"
   sodipodi:docname="preferences-desktop-locale.svg"
   inkscape:version="1.3.2 (091e20ef0f, 2023-11-25, custom)"
   xmlns:inkscape="http://www.inkscape.org/namespaces/inkscape"
   xmlns:sodipodi="http://sodipodi.sourceforge.net/DTD/sodipodi-0.dtd"
   xmlns:xlink="http://www.w3.org/1999/xlink"
   xmlns="http://www.w3.org/2000/svg"
   xmlns:svg="http://www.w3.org/2000/svg">
  <defs
     id="defs10">
    <linearGradient
       id="linearGradient13"
       inkscape:collect="always">
      <stop
         style="stop-color:#c4c4c4;stop-opacity:1;"
         offset="0"
         id="stop12" />
      <stop
         style="stop-color:#b8b8b8;stop-opacity:1;"
         offset="1"
         id="stop13" />
    </linearGradient>
    <inkscape:path-effect
       effect="fillet_chamfer"
       id="path-effect12"
       is_visible="true"
       lpeversion="1"
       nodesatellites_param="F,0,0,1,0,9.2768362,0,1 @ F,0,1,1,0,9.2768362,0,1 @ F,0,1,1,0,9.2768362,0,1 @ F,0,1,1,0,9.2768362,0,1"
       radius="0"
       unit="px"
       method="auto"
       mode="F"
       chamfer_steps="1"
       flexible="false"
       use_knot_distance="true"
       apply_no_radius="true"
       apply_with_radius="true"
       only_selected="false"
       hide_knots="false" />
    <inkscape:path-effect
       effect="fillet_chamfer"
       id="path-effect11"
       is_visible="true"
       lpeversion="1"
       nodesatellites_param="F,0,1,1,0,9.2832561,0,1 @ F,0,1,1,0,9.2832561,0,1 @ F,0,0,1,0,9.2832561,0,1 @ F,0,1,1,0,9.2832561,0,1"
       radius="0"
       unit="px"
       method="auto"
       mode="F"
       chamfer_steps="1"
       flexible="false"
       use_knot_distance="true"
       apply_no_radius="true"
       apply_with_radius="true"
       only_selected="false"
       hide_knots="false" />
    <linearGradient
       id="linearGradient10"
       inkscape:collect="always">
      <stop
         style="stop-color:#00d6ff;stop-opacity:1;"
         offset="0"
         id="stop10" />
      <stop
         style="stop-color:#0097ff;stop-opacity:1;"
         offset="1"
         id="stop11" />
    </linearGradient>
    <inkscape:path-effect
       effect="fillet_chamfer"
       id="path-effect10"
       is_visible="true"
       lpeversion="1"
       nodesatellites_param="F,0,0,1,0,0.67483794,0,1 @ F,0,0,1,0,0.92504917,0,1 @ F,0,0,1,0,0.92504917,0,1 | F,0,0,1,0,0,0,1 @ F,0,0,1,0,2.9600186,0,1 @ F,0,0,1,0,2.9600186,0,1 @ F,0,0,1,0,0,0,1 @ F,0,0,1,0,1.5276987,0,1 @ F,0,0,1,0,1.0782002,0,1 @ F,0,1,1,0,1.0782002,0,1 @ F,0,0,1,0,1.5276987,0,1"
       radius="0"
       unit="px"
       method="auto"
       mode="F"
       chamfer_steps="1"
       flexible="false"
       use_knot_distance="true"
       apply_no_radius="true"
       apply_with_radius="true"
       only_selected="false"
       hide_knots="false" />
    <radialGradient
       inkscape:collect="always"
       xlink:href="#linearGradient10"
       id="radialGradient11"
       cx="27.734432"
       cy="11.548296"
       fx="27.734432"
       fy="11.548296"
       r="14"
       gradientUnits="userSpaceOnUse"
       gradientTransform="matrix(1.9283648,1.9283648,-1.9283648,1.9283648,-3.4783422,-64.203135)" />
    <radialGradient
       inkscape:collect="always"
       xlink:href="#linearGradient13"
       id="radialGradient11-6"
       cx="27.734432"
       cy="11.548296"
       fx="27.734432"
       fy="11.548296"
       r="14"
       gradientUnits="userSpaceOnUse"
       gradientTransform="matrix(1.9283648,1.9283648,-1.9283648,1.9283648,-3.4783422,-64.203135)" />
    <inkscape:path-effect
       effect="fillet_chamfer"
       id="path-effect12-3"
       is_visible="true"
       lpeversion="1"
       nodesatellites_param="F,0,0,1,0,9.2768362,0,1 @ F,0,1,1,0,9.2768362,0,1 @ F,0,1,1,0,9.2768362,0,1 @ F,0,1,1,0,9.2768362,0,1"
       radius="0"
       unit="px"
       method="auto"
       mode="F"
       chamfer_steps="1"
       flexible="false"
       use_knot_distance="true"
       apply_no_radius="true"
       apply_with_radius="true"
       only_selected="false"
       hide_knots="false" />
    <inkscape:path-effect
       effect="fillet_chamfer"
       id="path-effect10-6"
       is_visible="true"
       lpeversion="1"
       nodesatellites_param="F,0,0,1,0,0.67483794,0,1 @ F,0,0,1,0,0.92504917,0,1 @ F,0,0,1,0,0.92504917,0,1 | F,0,0,1,0,0,0,1 @ F,0,0,1,0,2.9600186,0,1 @ F,0,0,1,0,2.9600186,0,1 @ F,0,0,1,0,0,0,1 @ F,0,0,1,0,1.5276987,0,1 @ F,0,0,1,0,1.0782002,0,1 @ F,0,1,1,0,1.0782002,0,1 @ F,0,0,1,0,1.5276987,0,1"
       radius="0"
       unit="px"
       method="auto"
       mode="F"
       chamfer_steps="1"
       flexible="false"
       use_knot_distance="true"
       apply_no_radius="true"
       apply_with_radius="true"
       only_selected="false"
       hide_knots="false" />
    <inkscape:path-effect
       effect="fillet_chamfer"
       id="path-effect12-2"
       is_visible="true"
       lpeversion="1"
       nodesatellites_param="F,0,0,1,0,9.2768362,0,1 @ F,0,1,1,0,9.2768362,0,1 @ F,0,1,1,0,9.2768362,0,1 @ F,0,1,1,0,9.2768362,0,1"
       radius="0"
       unit="px"
       method="auto"
       mode="F"
       chamfer_steps="1"
       flexible="false"
       use_knot_distance="true"
       apply_no_radius="true"
       apply_with_radius="true"
       only_selected="false"
       hide_knots="false" />
    <inkscape:path-effect
       effect="fillet_chamfer"
       id="path-effect12-3-3"
       is_visible="true"
       lpeversion="1"
       nodesatellites_param="F,0,0,1,0,9.2768362,0,1 @ F,0,1,1,0,9.2768362,0,1 @ F,0,1,1,0,9.2768362,0,1 @ F,0,1,1,0,9.2768362,0,1"
       radius="0"
       unit="px"
       method="auto"
       mode="F"
       chamfer_steps="1"
       flexible="false"
       use_knot_distance="true"
       apply_no_radius="true"
       apply_with_radius="true"
       only_selected="false"
       hide_knots="false" />
    <filter
       inkscape:collect="always"
       style="color-interpolation-filters:sRGB"
       id="filter19"
       x="-0.138894"
       y="-0.138894"
       width="1.277788"
       height="1.277788">
      <feGaussianBlur
         inkscape:collect="always"
         stdDeviation="1.7499508"
         id="feGaussianBlur19" />
    </filter>
    <filter
       inkscape:collect="always"
       style="color-interpolation-filters:sRGB"
       id="filter20"
       x="-0.13889399"
       y="-0.138894"
       width="1.277788"
       height="1.277788">
      <feGaussianBlur
         inkscape:collect="always"
         stdDeviation="1.7499508"
         id="feGaussianBlur20" />
    </filter>
  </defs>
  <sodipodi:namedview
     id="namedview10"
     pagecolor="#ffffff"
     bordercolor="#000000"
     borderopacity="0.25"
     inkscape:showpageshadow="2"
     inkscape:pageopacity="0.0"
     inkscape:pagecheckerboard="0"
     inkscape:deskcolor="#d1d1d1"
     inkscape:zoom="11.313709"
     inkscape:cx="28.151689"
     inkscape:cy="35.090174"
     inkscape:window-width="1920"
     inkscape:window-height="1020"
     inkscape:window-x="0"
     inkscape:window-y="0"
     inkscape:window-maximized="1"
     inkscape:current-layer="svg10" />
  <path
     id="rect10-3-5"
     style="fill:url(#radialGradient11-6);stroke-width:0.217316;stroke-linecap:round;stroke-linejoin:round;stroke-miterlimit:2.1;paint-order:markers stroke fill"
     d="m 36.146337,9.0000001 h 9.446327 A 9.2768362,9.2768362 45 0 1 54.8695,18.276836 v 9.446328 A 9.2768362,9.2768362 135 0 1 45.592664,37 h -9.446327 a 9.2768362,9.2768362 45 0 1 -9.276836,-9.276836 v -9.446328 a 9.2768362,9.2768362 135 0 1 9.276836,-9.2768359 z"
     transform="matrix(1.1962047,0,0,1.1962047,-27.022586,14.252024)"
     inkscape:original-d="M 26.869501,9.0000001 H 54.8695 V 37 H 26.869501 Z"
     inkscape:path-effect="#path-effect12-3" />
  <path
     style="opacity:0.2;stroke-width:1.08425"
     d="m 17.993855,30.665285 c 0.895589,0.62019 1.720702,1.376996 2.47859,2.2715 l -1.342299,1.650226 C 18.302866,33.554807 17.441973,32.693914 16.547468,32.0065 l 1.445302,-1.341215 m 0,6.504405 c 0.826197,0.62019 1.617699,1.308687 2.375587,2.065492 L 19.026058,40.99058 C 18.26817,40.025599 17.441973,39.199402 16.547468,38.511989 L 17.99277,37.16969 m 0.413098,7.124594 1.652395,1.136292 c -0.826197,2.821214 -2.030798,5.540508 -3.6138,8.155714 l -1.755396,-1.342299 c 1.583001,-2.546899 2.822297,-5.197885 3.716801,-7.950791 m 4.853095,-14.455196 1.961404,0.413099 c -0.137698,0.688497 -0.343706,1.342299 -0.619105,1.961405 h 8.054879 v 1.859485 h -8.881075 l -0.929202,1.548306 c -0.275398,0.550798 -0.723192,1.136292 -1.342299,1.755398 l -1.239296,-1.445303 c 1.307605,-1.583002 2.306197,-3.613799 2.994694,-6.09239 m -0.516103,6.402485 h 9.500182 c 0,2.1338 -0.0347,4.129901 -0.103003,5.988302 h 1.342299 v 1.858402 h -1.446386 c -0.137701,1.446387 -0.240704,2.856993 -0.309011,4.233989 h 1.548307 v 1.755397 h -1.755399 c -0.275398,2.409199 -1.240379,3.614883 -2.892774,3.614883 -0.413099,0 -0.998593,-0.06939 -1.755398,-0.206007 l -0.310094,-1.755397 c 0.895588,0.136615 1.584087,0.206007 2.065492,0.206007 0.48249,0 0.791501,-0.619106 0.929201,-1.858402 h -8.053794 c 0.275398,-1.858401 0.516102,-3.855586 0.722109,-5.989386 h -1.445304 v -1.858401 h 1.652395 c 0.137699,-1.927793 0.240702,-3.923894 0.310094,-5.989387 m 1.548307,5.989387 h 5.886384 c 0.06831,-1.445303 0.103003,-2.856994 0.103003,-4.233989 h -5.679291 c -0.06939,1.514694 -0.172396,2.926385 -0.310096,4.233989 m 2.584847,-3.716803 c 0.75789,0.482491 1.446387,1.032204 2.065494,1.652394 l -1.239296,1.548307 C 27.082021,41.025276 26.393525,40.40617 25.63672,39.855372 l 1.237126,-1.342299 m 2.891689,9.809193 c 0.1377,-1.445303 0.240705,-2.85591 0.310096,-4.232905 h -5.886384 c -0.137698,1.514695 -0.310093,2.925302 -0.516101,4.232905 h 6.092389 m -3.2007,-3.716803 c 0.826197,0.481406 1.583002,1.032204 2.271501,1.652394 l -1.342299,1.548307 c -0.688499,-0.756805 -1.411691,-1.410607 -2.168496,-1.961405 l 1.239294,-1.239296 M 15.722354,32.31768 V 48.529357 H 13.86287 v -1.755398 h -1.755398 v 2.684599 H 10.249071 V 32.31768 h 5.473283 M 12.107472,45.018562 H 13.86287 V 34.073077 h -1.755398 v 10.945485"
     id="path3" />
  <path
     id="rect10-3"
     style="fill:url(#radialGradient11);stroke-width:0.217316;stroke-linecap:round;stroke-linejoin:round;stroke-miterlimit:2.1;paint-order:markers stroke fill"
     d="m 36.146337,9.0000001 h 9.446327 A 9.2768362,9.2768362 45 0 1 54.8695,18.276836 v 9.446328 A 9.2768362,9.2768362 135 0 1 45.592664,37 h -9.446327 a 9.2768362,9.2768362 45 0 1 -9.276836,-9.276836 v -9.446328 a 9.2768362,9.2768362 135 0 1 9.276836,-9.2768359 z"
     transform="matrix(1.1962047,0,0,1.1962047,-6.7537815,-5.2772954)"
     inkscape:original-d="M 26.869501,9.0000001 H 54.8695 V 37 H 26.869501 Z"
     inkscape:path-effect="#path-effect12" />
  <path
     style="fill:#ffffff"
     d="m 40.983609,16.220585 c 0.360246,1.508361 1.265822,5.290677 1.905421,7.881693 C 43.011463,24.598252 42.697841,25 42.186951,25 h -2.840902 c -0.51089,0 -0.81419,-0.399054 -0.681924,-0.892525 0.686166,-2.560014 1.629669,-6.372792 2.002242,-7.888149 0.08895,-0.361784 0.230661,-0.361257 0.317242,0.0013 z M 50.739,34 44.739835,14.824986 A 4.027588,4.027588 36.313498 0 0 40.895981,12 h -0.05296 a 4.027588,4.027588 143.6865 0 0 -3.843854,2.824986 L 31,34 h 3.533301 a 1.9948825,1.9948825 142.55479 0 0 1.925918,-1.474885 L 37.12995,30.040926 A 1.4079234,1.4079234 142.55479 0 1 38.4892,29 h 4.5586 a 1.4077875,1.4077875 37.447883 0 1 1.359153,1.040952 l 0.670466,2.484126 A 1.9946899,1.9946899 37.447883 0 0 47.003199,34 Z"
     id="path8"
     sodipodi:nodetypes="ccccccccccccc"
     transform="matrix(0.97515178,0,0,0.97515178,2.280543,-0.19307729)"
     inkscape:original-d="m 40.827,15.564153 c 0,0 1.5,6.298847 2.285,9.435847 h -4.691 c 0.851,-3.063 2.406,-9.435847 2.406,-9.435847 z M 50.739,34 43.856,12 H 37.883 L 31,34 h 5.061 l 1.35,-5 h 6.715 l 1.3495,5 z"
     inkscape:path-effect="#path-effect10" />
  <path
     d="M 16.964844,25.566406 C 11.312643,25.566607 6.7306693,30.148581 6.7304687,35.800781 v 10.421875 c 2.006e-4,5.652201 4.5821743,10.234175 10.2343753,10.234375 h 10.421875 c 5.6522,-2e-4 10.234174,-4.582174 10.234375,-10.234375 v -7.777344 h -1.962891 c -1.390747,-4.9e-5 -2.716934,-0.278726 -3.925781,-0.78125 -0.01316,1.312234 -0.03635,2.585668 -0.08008,3.775391 h 1.236328 v 1.714844 h -1.333985 c -0.127,1.333995 -0.220203,2.6343 -0.283203,3.904297 h 1.427735 v 1.61914 h -1.619141 c -0.253998,2.221994 -1.143973,3.333985 -2.667969,3.333985 -0.380999,0 -0.921143,-0.06345 -1.61914,-0.189453 l -0.28711,-1.619141 c 0.825997,0.126001 1.462253,0.189453 1.90625,0.189453 0.444999,0 0.730422,-0.569894 0.857422,-1.712891 h -7.429687 c 0.253998,-1.713994 0.476016,-3.557397 0.666015,-5.52539 h -1.332031 v -1.712891 h 1.523438 c 0.126998,-1.777995 0.223109,-3.620395 0.287109,-5.52539 h 5.941406 c -0.67109,-0.586895 -1.266497,-1.257922 -1.765625,-2 H 23.9375 l -0.857422,1.429687 c -0.253999,0.507998 -0.667281,1.046189 -1.238281,1.617188 l -1.142578,-1.332032 c 1.205997,-1.459996 2.126721,-3.333148 2.761718,-5.61914 l 1.808594,0.380859 c -0.126999,0.634999 -0.316313,1.237595 -0.570312,1.808594 h 1.53125 C 25.71105,30.975255 25.423878,29.626169 25.423828,28.210937 v -2.644531 z m 1.638672,5.208985 h 0.002 c 0.825998,0.571998 1.58616,1.268752 2.285156,2.09375 l -1.238281,1.523437 c -0.762997,-0.951997 -1.555862,-1.74686 -2.38086,-2.380859 z m -7.142578,1.523437 h 5.048828 V 47.25 h -1.714844 v -1.617188 h -1.619141 v 2.47461 h -1.714843 z m 1.714843,1.619141 v 10.095703 h 1.619141 V 33.917969 Z m 5.427735,2.855468 c 0.761997,0.572 1.49241,1.208253 2.191406,1.90625 l -1.238281,1.619141 c -0.698997,-0.889997 -1.460159,-1.653112 -2.285157,-2.287109 z m 6.09375,0.761719 c -0.064,1.396996 -0.158157,2.700253 -0.285157,3.90625 h 5.427735 c 0.063,-1.332996 0.0957,-2.636253 0.0957,-3.90625 z m 2.097656,0.478516 c 0.698999,0.444999 1.33525,0.951439 1.90625,1.523437 l -1.142578,1.427735 c -0.571,-0.634999 -1.2063,-1.206845 -1.904297,-1.714844 z m -2.476563,5.142578 c -0.126998,1.396996 -0.286563,2.698301 -0.476562,3.904297 h 5.61914 c 0.127,-1.332996 0.22311,-2.634301 0.28711,-3.904297 z m -5.333984,0.189453 1.523437,1.046875 c -0.761998,2.601992 -1.872036,5.109492 -3.332031,7.521484 l -1.61914,-1.236328 c 1.459657,-2.348452 2.602782,-4.793668 3.427734,-7.332031 z m 7.525391,0.287109 c 0.761997,0.444 1.460704,0.951439 2.095703,1.523438 l -1.238282,1.427734 c -0.634999,-0.697998 -1.302002,-1.300595 -2,-1.808593 z"
     style="mix-blend-mode:normal;fill:none;stroke:#000000;stroke-width:0.181281;stroke-linecap:round;stroke-linejoin:round;stroke-miterlimit:2.1;paint-order:markers stroke fill;filter:url(#filter20)"
     id="path19"
     transform="matrix(1.0842481,0,0,1.0842481,-2.178169,-2.7022926)" />
  <path
     id="path18"
     style="mix-blend-mode:normal;fill:none;stroke:#000000;stroke-width:0.181281;stroke-linecap:round;stroke-linejoin:round;stroke-miterlimit:2.1;paint-order:markers stroke fill;filter:url(#filter19)"
     d="M 35.658203,7.5546875 A 10.234738,10.234738 0 0 0 25.423828,17.789062 V 28.210938 A 10.234738,10.234738 0 0 0 35.658203,38.445312 H 46.080078 A 10.234738,10.234738 0 0 0 56.314453,28.210938 V 17.789062 A 10.234738,10.234738 0 0 0 46.080078,7.5546875 Z m 5.1875,5.5527345 h 0.04687 a 3.6223348,3.6223348 0 0 1 3.457031,2.541016 l 5.396485,17.24414 H 46.386714 A 1.7939856,1.7939856 0 0 1 44.654292,31.566406 L 44.050776,29.332031 A 1.2661368,1.2661368 0 0 0 42.82812,28.396484 h -4.099609 a 1.2662591,1.2662591 0 0 0 -1.222657,0.935547 l -0.603515,2.234375 a 1.7941588,1.7941588 0 0 1 -1.732422,1.326172 h -3.177734 l 5.396484,-17.24414 a 3.6223348,3.6223348 0 0 1 3.457031,-2.541016 z m -0.01563,3.550781 c -0.0516,-2.01e-4 -0.102578,0.08145 -0.142578,0.244141 -0.335085,1.362881 -1.183658,4.791324 -1.800781,7.09375 -0.118957,0.443817 0.153796,0.802734 0.613281,0.802734 h 2.554688 c 0.459484,0 0.740972,-0.360571 0.630859,-0.80664 -0.575243,-2.330308 -1.388893,-5.733255 -1.712891,-7.089844 -0.03893,-0.16302 -0.09098,-0.24394 -0.142578,-0.244141 z"
     transform="matrix(1.0842481,0,0,1.0842481,-2.178169,-2.7022926)" />
</svg>
