<?xml version="1.0" encoding="UTF-8" standalone="no"?>
<svg
   width="64"
   height="64"
   version="1.1"
   id="svg7"
   sodipodi:docname="qtassistant.svg"
   inkscape:version="1.3.2 (091e20ef0f, 2023-11-25, custom)"
   xmlns:inkscape="http://www.inkscape.org/namespaces/inkscape"
   xmlns:sodipodi="http://sodipodi.sourceforge.net/DTD/sodipodi-0.dtd"
   xmlns:xlink="http://www.w3.org/1999/xlink"
   xmlns="http://www.w3.org/2000/svg"
   xmlns:svg="http://www.w3.org/2000/svg">
  <defs
     id="defs7">
    <filter
       inkscape:collect="always"
       style="color-interpolation-filters:sRGB"
       id="filter5"
       x="-0.028097398"
       y="-0.035121748"
       width="1.0561948"
       height="1.0702435">
      <feGaussianBlur
         inkscape:collect="always"
         stdDeviation="0.70243498"
         id="feGaussianBlur5" />
    </filter>
    <radialGradient
       inkscape:collect="always"
       xlink:href="#linearGradient6"
       id="radialGradient7"
       cx="8.3139486"
       cy="55.881283"
       fx="8.3139486"
       fy="55.881283"
       r="30"
       gradientTransform="matrix(2.1135954,0.31841097,-0.28969521,1.9229814,6.9301645,-59.000896)"
       gradientUnits="userSpaceOnUse" />
    <linearGradient
       id="linearGradient6"
       inkscape:collect="always">
      <stop
         style="stop-color:#00ab60;stop-opacity:1;"
         offset="0"
         id="stop6" />
      <stop
         style="stop-color:#00f06d;stop-opacity:1;"
         offset="1"
         id="stop7" />
    </linearGradient>
    <filter
       inkscape:collect="always"
       style="color-interpolation-filters:sRGB"
       id="filter7"
       x="-0.098387704"
       y="-0.081989753"
       width="1.1967754"
       height="1.1639795">
      <feGaussianBlur
         inkscape:collect="always"
         stdDeviation="0.81989751"
         id="feGaussianBlur7" />
    </filter>
  </defs>
  <sodipodi:namedview
     id="namedview7"
     pagecolor="#ffffff"
     bordercolor="#000000"
     borderopacity="0.25"
     inkscape:showpageshadow="2"
     inkscape:pageopacity="0.0"
     inkscape:pagecheckerboard="0"
     inkscape:deskcolor="#d1d1d1"
     inkscape:zoom="12.59375"
     inkscape:cx="32"
     inkscape:cy="32"
     inkscape:window-width="1920"
     inkscape:window-height="1014"
     inkscape:window-x="0"
     inkscape:window-y="0"
     inkscape:window-maximized="1"
     inkscape:current-layer="svg7" />
  <g
     id="g1"
     transform="translate(4.4703483e-7,-0.99999964)">
    <g
       id="g2">
      <path
         style="opacity:0.415923;filter:url(#filter5)"
         d="m 10.181818,9 h 48.96104 C 59.142858,9 62,9 62,11.823529 V 48.529412 L 53.818182,57 H 4.857143 C 4.857143,57 2,57 2,54.17647 V 17.470588 Z"
         id="path1" />
      <path
         style="fill:url(#radialGradient7)"
         d="m 10.181818,8.0000002 h 48.96104 c 0,0 2.857142,0 2.857142,2.8235288 V 47.529412 L 53.818182,56 H 4.857143 C 4.857143,56 2,56 2,53.17647 V 16.470588 Z"
         id="path2" />
    </g>
  </g>
  <path
     style="opacity:0.55319151;filter:url(#filter7)"
     d="m 28.889189,21.000001 -6.889189,24 h 4.308104 l 1.529734,-6 h 8.324322 l 1.529731,6 H 42 l -6.889189,-24 z M 32,25.166667 l 3.013513,9.833334 h -6.027026 z"
     id="path5" />
  <path
     style="fill:#ffffff"
     d="m 28.889189,20.000001 -6.889189,24 h 4.308104 l 1.529734,-6 h 8.324322 l 1.529731,6 H 42 l -6.889189,-24 z M 32,24.166667 l 3.013513,9.833334 h -6.027026 z"
     id="path6" />
</svg>
