<?xml version="1.0" encoding="UTF-8" standalone="no"?>
<svg
   width="64"
   height="64"
   version="1.1"
   id="svg7"
   sodipodi:docname="qtdesigner.svg"
   inkscape:version="1.3.2 (091e20ef0f, 2023-11-25, custom)"
   xmlns:inkscape="http://www.inkscape.org/namespaces/inkscape"
   xmlns:sodipodi="http://sodipodi.sourceforge.net/DTD/sodipodi-0.dtd"
   xmlns:xlink="http://www.w3.org/1999/xlink"
   xmlns="http://www.w3.org/2000/svg"
   xmlns:svg="http://www.w3.org/2000/svg">
  <defs
     id="defs7">
    <filter
       inkscape:collect="always"
       style="color-interpolation-filters:sRGB"
       id="filter5"
       x="-0.028097398"
       y="-0.035121748"
       width="1.0561948"
       height="1.0702435">
      <feGaussianBlur
         inkscape:collect="always"
         stdDeviation="0.70243498"
         id="feGaussianBlur5" />
    </filter>
    <radialGradient
       inkscape:collect="always"
       xlink:href="#linearGradient6"
       id="radialGradient7"
       cx="8.3139486"
       cy="55.881283"
       fx="8.3139486"
       fy="55.881283"
       r="30"
       gradientTransform="matrix(2.1135954,0.31841097,-0.28969521,1.9229814,6.9301645,-59.000896)"
       gradientUnits="userSpaceOnUse" />
    <linearGradient
       id="linearGradient6"
       inkscape:collect="always">
      <stop
         style="stop-color:#00ab60;stop-opacity:1;"
         offset="0"
         id="stop6" />
      <stop
         style="stop-color:#00f06d;stop-opacity:1;"
         offset="1"
         id="stop7" />
    </linearGradient>
    <filter
       inkscape:collect="always"
       style="color-interpolation-filters:sRGB"
       id="filter7"
       x="-0.060734951"
       y="-0.045551214"
       width="1.1214699"
       height="1.0911024">
      <feGaussianBlur
         inkscape:collect="always"
         stdDeviation="0.45551215"
         id="feGaussianBlur7" />
    </filter>
  </defs>
  <sodipodi:namedview
     id="namedview7"
     pagecolor="#ffffff"
     bordercolor="#000000"
     borderopacity="0.25"
     inkscape:showpageshadow="2"
     inkscape:pageopacity="0.0"
     inkscape:pagecheckerboard="0"
     inkscape:deskcolor="#d1d1d1"
     inkscape:zoom="12.59375"
     inkscape:cx="32"
     inkscape:cy="32"
     inkscape:window-width="1920"
     inkscape:window-height="1014"
     inkscape:window-x="0"
     inkscape:window-y="0"
     inkscape:window-maximized="1"
     inkscape:current-layer="svg7" />
  <g
     id="g1"
     transform="translate(4.4703483e-7,-0.99999964)">
    <g
       id="g2">
      <path
         style="opacity:0.415923;filter:url(#filter5)"
         d="m 10.181818,9 h 48.96104 C 59.142858,9 62,9 62,11.823529 V 48.529412 L 53.818182,57 H 4.857143 C 4.857143,57 2,57 2,54.17647 V 17.470588 Z"
         id="path1" />
      <path
         style="fill:url(#radialGradient7)"
         d="m 10.181818,8.0000002 h 48.96104 c 0,0 2.857142,0 2.857142,2.8235288 V 47.529412 L 53.818182,56 H 4.857143 C 4.857143,56 2,56 2,53.17647 V 16.470588 Z"
         id="path2" />
    </g>
  </g>
  <path
     style="opacity:0.37201538;filter:url(#filter7)"
     d="m 23,21.000001 v 24 h 2.571428 1.285714 4.5 H 32 32.642858 C 37.272714,45.000001 41,41.134667 41,36.333335 v -6.666668 c 0,-4.801334 -3.727286,-8.666666 -8.357142,-8.666666 H 32 26.857142 Z m 4,4 H 31.357142 32 32.642858 C 35.202576,25.000001 37,27.012145 37,29.666667 v 6.666668 c 0,2.654522 -1.797424,4.666666 -4.357142,4.666666 H 32 31.357142 27 Z"
     id="path5" />
  <path
     style="fill:#ffffff"
     d="m 23,20 v 24 h 2.571428 1.285714 4.5 H 32 32.642858 C 37.272714,44 41,40.134666 41,35.333334 V 28.666666 C 41,23.865332 37.272714,20 32.642858,20 H 32 26.857142 Z m 4,4 H 31.357142 32 32.642858 C 35.202576,24 37,26.012144 37,28.666666 v 6.666668 C 37,37.987856 35.202576,40 32.642858,40 H 32 31.357142 27 Z"
     id="path6" />
</svg>
