<?xml version="1.0" encoding="UTF-8" standalone="no"?>
<svg
   width="64"
   height="64"
   version="1"
   id="svg7"
   sodipodi:docname="retroarch.svg"
   inkscape:version="1.3.2 (091e20ef0f, 2023-11-25, custom)"
   xmlns:inkscape="http://www.inkscape.org/namespaces/inkscape"
   xmlns:sodipodi="http://sodipodi.sourceforge.net/DTD/sodipodi-0.dtd"
   xmlns:xlink="http://www.w3.org/1999/xlink"
   xmlns="http://www.w3.org/2000/svg"
   xmlns:svg="http://www.w3.org/2000/svg">
  <defs
     id="defs7">
    <linearGradient
       id="linearGradient2"
       inkscape:collect="always">
      <stop
         style="stop-color:#22c649;stop-opacity:1;"
         offset="0"
         id="stop2" />
      <stop
         style="stop-color:#1f96db;stop-opacity:1;"
         offset="1"
         id="stop5" />
    </linearGradient>
    <inkscape:path-effect
       effect="fillet_chamfer"
       id="path-effect7"
       is_visible="true"
       lpeversion="1"
       nodesatellites_param="F,0,1,1,0,0.62720318,0,1 @ F,0,1,1,0,0.62720318,0,1 @ F,0,1,1,0,0.62720318,0,1 @ F,0,1,1,0,0.62720318,0,1 | F,0,1,1,0,0.62720318,0,1 @ F,0,1,1,0,0.62720318,0,1 @ F,0,1,1,0,0.62720318,0,1 @ F,0,1,1,0,0.62720318,0,1 | F,0,1,1,0,0.62720318,0,1 @ F,0,1,1,0,0.62720318,0,1 @ F,0,1,1,0,0.62720318,0,1 @ F,0,1,1,0,0.62720318,0,1 | F,0,1,1,0,0.62720318,0,1 @ F,0,1,1,0,0.62720318,0,1 @ F,0,1,1,0,0.62720318,0,1 @ F,0,1,1,0,0.62720318,0,1 | F,0,1,1,0,0.62720318,0,1 @ F,0,1,1,0,0.62720318,0,1 @ F,0,1,1,0,0.62720318,0,1 @ F,0,1,1,0,0.62720318,0,1 | F,0,1,1,0,0.62720318,0,1 @ F,0,1,1,0,0.62720318,0,1 @ F,0,1,1,0,0.62720318,0,1 @ F,0,1,1,0,0.62720318,0,1 @ F,0,1,1,0,0.62720318,0,1 @ F,0,1,1,0,0.62720318,0,1 @ F,0,1,1,0,0.62720318,0,1 @ F,0,1,1,0,0.62720318,0,1 @ F,0,1,1,0,0.62720318,0,1 @ F,0,1,1,0,0.62720318,0,1 @ F,0,1,1,0,0.62720318,0,1 @ F,0,1,1,0,0.62720318,0,1 @ F,0,1,1,0,0.62720318,0,1 @ F,0,1,1,0,0.62720318,0,1 @ F,0,1,1,0,0.62720318,0,1 @ F,0,1,1,0,0.62720318,0,1 @ F,0,1,1,0,0.62720318,0,1 @ F,0,1,1,0,0.62720318,0,1 @ F,0,1,1,0,0.62720318,0,1 @ F,0,1,1,0,0.62720318,0,1 @ F,0,1,1,0,0.62720318,0,1 @ F,0,1,1,0,0.62720318,0,1 @ F,0,1,1,0,0.62720318,0,1 @ F,0,1,1,0,0.62720318,0,1 @ F,0,1,1,0,0.62720318,0,1 @ F,0,1,1,0,0.62720318,0,1 @ F,0,1,1,0,0.62720318,0,1 @ F,0,1,1,0,0.62720318,0,1 @ F,0,1,1,0,0.62720318,0,1 @ F,0,1,1,0,0.62720318,0,1 @ F,0,1,1,0,0.62720318,0,1 @ F,0,1,1,0,0.62720318,0,1 | F,0,0,1,0,0.62720318,0,1 @ F,0,1,1,0,0.62720318,0,1 @ F,0,1,1,0,0.62720318,0,1 @ F,0,1,1,0,0.62720318,0,1"
       radius="0"
       unit="px"
       method="auto"
       mode="F"
       chamfer_steps="1"
       flexible="false"
       use_knot_distance="true"
       apply_no_radius="true"
       apply_with_radius="true"
       only_selected="false"
       hide_knots="false" />
    <linearGradient
       id="1"
       y1="38"
       x2="0"
       y2="13"
       gradientUnits="userSpaceOnUse"
       gradientTransform="matrix(1.6850048,0,0,1.6850048,-9.1191706,-8.4375891)">
      <stop
         stop-color="#00cafe"
         id="stop3" />
      <stop
         offset="1"
         stop-color="#1460f3"
         id="stop4" />
    </linearGradient>
    <inkscape:path-effect
       effect="fillet_chamfer"
       id="path-effect7-5"
       is_visible="true"
       lpeversion="1"
       nodesatellites_param="F,0,1,1,0,0.62720318,0,1 @ F,0,1,1,0,0.62720318,0,1 @ F,0,1,1,0,0.62720318,0,1 @ F,0,1,1,0,0.62720318,0,1 | F,0,1,1,0,0.62720318,0,1 @ F,0,1,1,0,0.62720318,0,1 @ F,0,1,1,0,0.62720318,0,1 @ F,0,1,1,0,0.62720318,0,1 | F,0,1,1,0,0.62720318,0,1 @ F,0,1,1,0,0.62720318,0,1 @ F,0,1,1,0,0.62720318,0,1 @ F,0,1,1,0,0.62720318,0,1 | F,0,1,1,0,0.62720318,0,1 @ F,0,1,1,0,0.62720318,0,1 @ F,0,1,1,0,0.62720318,0,1 @ F,0,1,1,0,0.62720318,0,1 | F,0,1,1,0,0.62720318,0,1 @ F,0,1,1,0,0.62720318,0,1 @ F,0,1,1,0,0.62720318,0,1 @ F,0,1,1,0,0.62720318,0,1 | F,0,1,1,0,0.62720318,0,1 @ F,0,1,1,0,0.62720318,0,1 @ F,0,1,1,0,0.62720318,0,1 @ F,0,1,1,0,0.62720318,0,1 @ F,0,1,1,0,0.62720318,0,1 @ F,0,1,1,0,0.62720318,0,1 @ F,0,1,1,0,0.62720318,0,1 @ F,0,1,1,0,0.62720318,0,1 @ F,0,1,1,0,0.62720318,0,1 @ F,0,1,1,0,0.62720318,0,1 @ F,0,1,1,0,0.62720318,0,1 @ F,0,1,1,0,0.62720318,0,1 @ F,0,1,1,0,0.62720318,0,1 @ F,0,1,1,0,0.62720318,0,1 @ F,0,1,1,0,0.62720318,0,1 @ F,0,1,1,0,0.62720318,0,1 @ F,0,1,1,0,0.62720318,0,1 @ F,0,1,1,0,0.62720318,0,1 @ F,0,1,1,0,0.62720318,0,1 @ F,0,1,1,0,0.62720318,0,1 @ F,0,1,1,0,0.62720318,0,1 @ F,0,1,1,0,0.62720318,0,1 @ F,0,1,1,0,0.62720318,0,1 @ F,0,1,1,0,0.62720318,0,1 @ F,0,1,1,0,0.62720318,0,1 @ F,0,1,1,0,0.62720318,0,1 @ F,0,1,1,0,0.62720318,0,1 @ F,0,1,1,0,0.62720318,0,1 @ F,0,1,1,0,0.62720318,0,1 @ F,0,1,1,0,0.62720318,0,1 @ F,0,1,1,0,0.62720318,0,1 @ F,0,1,1,0,0.62720318,0,1 | F,0,0,1,0,0.62720318,0,1 @ F,0,1,1,0,0.62720318,0,1 @ F,0,1,1,0,0.62720318,0,1 @ F,0,1,1,0,0.62720318,0,1"
       radius="0"
       unit="px"
       method="auto"
       mode="F"
       chamfer_steps="1"
       flexible="false"
       use_knot_distance="true"
       apply_no_radius="true"
       apply_with_radius="true"
       only_selected="false"
       hide_knots="false" />
    <inkscape:path-effect
       effect="fillet_chamfer"
       id="path-effect7-0"
       is_visible="true"
       lpeversion="1"
       nodesatellites_param="F,0,1,1,0,0.62720318,0,1 @ F,0,1,1,0,0.62720318,0,1 @ F,0,1,1,0,0.62720318,0,1 @ F,0,1,1,0,0.62720318,0,1 | F,0,1,1,0,0.62720318,0,1 @ F,0,1,1,0,0.62720318,0,1 @ F,0,1,1,0,0.62720318,0,1 @ F,0,1,1,0,0.62720318,0,1 | F,0,1,1,0,0.62720318,0,1 @ F,0,1,1,0,0.62720318,0,1 @ F,0,1,1,0,0.62720318,0,1 @ F,0,1,1,0,0.62720318,0,1 | F,0,1,1,0,0.62720318,0,1 @ F,0,1,1,0,0.62720318,0,1 @ F,0,1,1,0,0.62720318,0,1 @ F,0,1,1,0,0.62720318,0,1 | F,0,1,1,0,0.62720318,0,1 @ F,0,1,1,0,0.62720318,0,1 @ F,0,1,1,0,0.62720318,0,1 @ F,0,1,1,0,0.62720318,0,1 | F,0,1,1,0,0.62720318,0,1 @ F,0,1,1,0,0.62720318,0,1 @ F,0,1,1,0,0.62720318,0,1 @ F,0,1,1,0,0.62720318,0,1 @ F,0,1,1,0,0.62720318,0,1 @ F,0,1,1,0,0.62720318,0,1 @ F,0,1,1,0,0.62720318,0,1 @ F,0,1,1,0,0.62720318,0,1 @ F,0,1,1,0,0.62720318,0,1 @ F,0,1,1,0,0.62720318,0,1 @ F,0,1,1,0,0.62720318,0,1 @ F,0,1,1,0,0.62720318,0,1 @ F,0,1,1,0,0.62720318,0,1 @ F,0,1,1,0,0.62720318,0,1 @ F,0,1,1,0,0.62720318,0,1 @ F,0,1,1,0,0.62720318,0,1 @ F,0,1,1,0,0.62720318,0,1 @ F,0,1,1,0,0.62720318,0,1 @ F,0,1,1,0,0.62720318,0,1 @ F,0,1,1,0,0.62720318,0,1 @ F,0,1,1,0,0.62720318,0,1 @ F,0,1,1,0,0.62720318,0,1 @ F,0,1,1,0,0.62720318,0,1 @ F,0,1,1,0,0.62720318,0,1 @ F,0,1,1,0,0.62720318,0,1 @ F,0,1,1,0,0.62720318,0,1 @ F,0,1,1,0,0.62720318,0,1 @ F,0,1,1,0,0.62720318,0,1 @ F,0,1,1,0,0.62720318,0,1 @ F,0,1,1,0,0.62720318,0,1 @ F,0,1,1,0,0.62720318,0,1 @ F,0,1,1,0,0.62720318,0,1 | F,0,0,1,0,0.62720318,0,1 @ F,0,1,1,0,0.62720318,0,1 @ F,0,1,1,0,0.62720318,0,1 @ F,0,1,1,0,0.62720318,0,1"
       radius="0"
       unit="px"
       method="auto"
       mode="F"
       chamfer_steps="1"
       flexible="false"
       use_knot_distance="true"
       apply_no_radius="true"
       apply_with_radius="true"
       only_selected="false"
       hide_knots="false" />
    <radialGradient
       inkscape:collect="always"
       xlink:href="#linearGradient2"
       id="radialGradient5"
       cx="13.263737"
       cy="53.896404"
       fx="13.263737"
       fy="53.896404"
       r="23.829388"
       gradientTransform="matrix(2.3598578,-0.632322,0.58015937,2.1651843,-49.3053,-60.652243)"
       gradientUnits="userSpaceOnUse" />
    <inkscape:path-effect
       effect="fillet_chamfer"
       id="path-effect7-0-5"
       is_visible="true"
       lpeversion="1"
       nodesatellites_param="F,0,1,1,0,0.62720318,0,1 @ F,0,1,1,0,0.62720318,0,1 @ F,0,1,1,0,0.62720318,0,1 @ F,0,1,1,0,0.62720318,0,1 | F,0,1,1,0,0.62720318,0,1 @ F,0,1,1,0,0.62720318,0,1 @ F,0,1,1,0,0.62720318,0,1 @ F,0,1,1,0,0.62720318,0,1 | F,0,1,1,0,0.62720318,0,1 @ F,0,1,1,0,0.62720318,0,1 @ F,0,1,1,0,0.62720318,0,1 @ F,0,1,1,0,0.62720318,0,1 | F,0,1,1,0,0.62720318,0,1 @ F,0,1,1,0,0.62720318,0,1 @ F,0,1,1,0,0.62720318,0,1 @ F,0,1,1,0,0.62720318,0,1 | F,0,1,1,0,0.62720318,0,1 @ F,0,1,1,0,0.62720318,0,1 @ F,0,1,1,0,0.62720318,0,1 @ F,0,1,1,0,0.62720318,0,1 | F,0,1,1,0,0.62720318,0,1 @ F,0,1,1,0,0.62720318,0,1 @ F,0,1,1,0,0.62720318,0,1 @ F,0,1,1,0,0.62720318,0,1 @ F,0,1,1,0,0.62720318,0,1 @ F,0,1,1,0,0.62720318,0,1 @ F,0,1,1,0,0.62720318,0,1 @ F,0,1,1,0,0.62720318,0,1 @ F,0,1,1,0,0.62720318,0,1 @ F,0,1,1,0,0.62720318,0,1 @ F,0,1,1,0,0.62720318,0,1 @ F,0,1,1,0,0.62720318,0,1 @ F,0,1,1,0,0.62720318,0,1 @ F,0,1,1,0,0.62720318,0,1 @ F,0,1,1,0,0.62720318,0,1 @ F,0,1,1,0,0.62720318,0,1 @ F,0,1,1,0,0.62720318,0,1 @ F,0,1,1,0,0.62720318,0,1 @ F,0,1,1,0,0.62720318,0,1 @ F,0,1,1,0,0.62720318,0,1 @ F,0,1,1,0,0.62720318,0,1 @ F,0,1,1,0,0.62720318,0,1 @ F,0,1,1,0,0.62720318,0,1 @ F,0,1,1,0,0.62720318,0,1 @ F,0,1,1,0,0.62720318,0,1 @ F,0,1,1,0,0.62720318,0,1 @ F,0,1,1,0,0.62720318,0,1 @ F,0,1,1,0,0.62720318,0,1 @ F,0,1,1,0,0.62720318,0,1 @ F,0,1,1,0,0.62720318,0,1 @ F,0,1,1,0,0.62720318,0,1 @ F,0,1,1,0,0.62720318,0,1 | F,0,0,1,0,0.62720318,0,1 @ F,0,1,1,0,0.62720318,0,1 @ F,0,1,1,0,0.62720318,0,1 @ F,0,1,1,0,0.62720318,0,1"
       radius="0"
       unit="px"
       method="auto"
       mode="F"
       chamfer_steps="1"
       flexible="false"
       use_knot_distance="true"
       apply_no_radius="true"
       apply_with_radius="true"
       only_selected="false"
       hide_knots="false" />
    <filter
       inkscape:collect="always"
       style="color-interpolation-filters:sRGB"
       id="filter1"
       x="-0.10761095"
       y="-0.14796506"
       width="1.2152219"
       height="1.2959301">
      <feGaussianBlur
         inkscape:collect="always"
         stdDeviation="2.0990902"
         id="feGaussianBlur1" />
    </filter>
  </defs>
  <sodipodi:namedview
     id="namedview7"
     pagecolor="#ffffff"
     bordercolor="#000000"
     borderopacity="0.25"
     inkscape:showpageshadow="2"
     inkscape:pageopacity="0.0"
     inkscape:pagecheckerboard="false"
     inkscape:deskcolor="#414141"
     inkscape:zoom="11.313709"
     inkscape:cx="37.697629"
     inkscape:cy="32.792076"
     inkscape:window-width="1920"
     inkscape:window-height="1020"
     inkscape:window-x="0"
     inkscape:window-y="0"
     inkscape:window-maximized="1"
     inkscape:current-layer="svg7"
     labelstyle="default"
     showgrid="true" />
  <path
     style="opacity:1;fill:url(#radialGradient5);fill-rule:evenodd;stroke-width:0;stroke-miterlimit:4"
     id="path5222-6"
     stroke-miterlimit="4"
     d="m 39.205205,27.311164 0,3.07821 a 0.62720318,0.62720318 45 0 0 0.627203,0.627203 h 3.07821 a 0.62720318,0.62720318 135 0 0 0.627203,-0.627203 l 0,-3.07821 a 0.62720318,0.62720318 45 0 0 -0.627203,-0.627203 l -3.07821,0 a 0.62720318,0.62720318 135 0 0 -0.627203,0.627203 z m -17.330464,0 v 3.07821 a 0.62720318,0.62720318 45 0 0 0.627203,0.627203 h 3.07821 a 0.62720318,0.62720318 135 0 0 0.627203,-0.627203 v -3.07821 a 0.62720318,0.62720318 45 0 0 -0.627203,-0.627203 l -3.07821,0 a 0.62720318,0.62720318 135 0 0 -0.627203,0.627203 z m 0.627203,16.703261 7.410826,0 a 0.62720318,0.62720318 45 0 1 0.627203,0.627203 v 3.07821 a 0.62720318,0.62720318 135 0 1 -0.627203,0.627203 h -7.410826 a 0.62720318,0.62720318 45 0 1 -0.627203,-0.627203 v -3.07821 a 0.62720318,0.62720318 135 0 1 0.627203,-0.627203 z m 21.035877,0.627203 0,3.07821 a 0.62720318,0.62720318 135 0 1 -0.627203,0.627203 h -7.410826 a 0.62720318,0.62720318 45 0 1 -0.627203,-0.627203 v -3.07821 a 0.62720318,0.62720318 135 0 1 0.627203,-0.627203 h 7.410826 a 0.62720318,0.62720318 45 0 1 0.627203,0.627203 z m 0,-27.250102 v -3.07821 a 0.62720318,0.62720318 135 0 1 0.627203,-0.627203 h 3.07821 a 0.62720318,0.62720318 45 0 1 0.627203,0.627203 l 0,3.07821 a 0.62720318,0.62720318 135 0 1 -0.627203,0.627203 h -3.07821 a 0.62720318,0.62720318 45 0 1 -0.627203,-0.627203 z m -21.035877,0.627203 h 3.07821 a 0.62720318,0.62720318 45 0 1 0.627203,0.627203 l 0,3.07821 a 0.62720318,0.62720318 45 0 0 0.627203,0.627203 h 11.743442 a 0.62720318,0.62720318 135 0 0 0.627203,-0.627203 v -3.07821 a 0.62720318,0.62720318 135 0 1 0.627203,-0.627203 h 3.07821 a 0.62720318,0.62720318 45 0 1 0.627203,0.627203 l 0,3.07821 a 0.62720318,0.62720318 45 0 0 0.627203,0.627203 l 3.07821,0 a 0.62720318,0.62720318 45 0 1 0.627203,0.627203 v 3.07821 a 0.62720318,0.62720318 45 0 0 0.627203,0.627203 h 3.07821 a 0.62720318,0.62720318 45 0 1 0.627203,0.627203 v 3.07821 a 0.62720318,0.62720318 45 0 0 0.627203,0.627203 h 3.07821 a 0.62720318,0.62720318 45 0 1 0.627203,0.627203 v 11.743442 a 0.62720318,0.62720318 135 0 1 -0.627203,0.627203 h -3.07821 A 0.62720318,0.62720318 45 0 1 52.203053,43.387222 V 35.976396 A 0.62720318,0.62720318 45 0 0 51.57585,35.349193 h -3.07821 a 0.62720318,0.62720318 135 0 0 -0.627203,0.627203 l 0,7.410826 a 0.62720318,0.62720318 135 0 1 -0.627203,0.627203 h -3.07821 a 0.62720318,0.62720318 45 0 1 -0.627203,-0.627203 l 0,-3.07821 A 0.62720318,0.62720318 45 0 0 42.910618,39.681809 H 22.501944 a 0.62720318,0.62720318 135 0 0 -0.627203,0.627203 v 3.07821 a 0.62720318,0.62720318 135 0 1 -0.627203,0.627203 h -3.07821 a 0.62720318,0.62720318 45 0 1 -0.627203,-0.627203 v -7.410826 a 0.62720318,0.62720318 45 0 0 -0.627203,-0.627203 h -3.07821 a 0.62720318,0.62720318 135 0 0 -0.627203,0.627203 v 7.410826 a 0.62720318,0.62720318 135 0 1 -0.627203,0.627203 H 9.5040957 A 0.62720318,0.62720318 45 0 1 8.8768925,43.387222 V 31.64378 a 0.62720318,0.62720318 135 0 1 0.6272032,-0.627203 l 3.0782103,0 a 0.62720318,0.62720318 135 0 0 0.627203,-0.627203 v -3.07821 a 0.62720318,0.62720318 135 0 1 0.627203,-0.627203 h 3.07821 a 0.62720318,0.62720318 135 0 0 0.627203,-0.627203 v -3.07821 a 0.62720318,0.62720318 135 0 1 0.627203,-0.627203 l 3.07821,0 a 0.62720318,0.62720318 135 0 0 0.627203,-0.627203 v -3.07821 a 0.62720318,0.62720318 135 0 1 0.627203,-0.627203 z m -4.332616,-4.332616 h 3.07821 a 0.62720318,0.62720318 45 0 1 0.627203,0.627203 v 3.07821 a 0.62720318,0.62720318 135 0 1 -0.627203,0.627203 h -3.07821 a 0.62720318,0.62720318 45 0 1 -0.627203,-0.627203 v -3.07821 a 0.62720318,0.62720318 135 0 1 0.627203,-0.627203 z"
     inkscape:path-effect="#path-effect7-0"
     inkscape:original-d="m 39.205205,26.683961 v 4.332616 h 4.332616 v -4.332616 z m -17.330464,0 v 4.332616 h 4.332616 v -4.332616 z m 0,17.330464 h 8.665232 v 4.332616 h -8.665232 z m 21.66308,0 v 4.332616 h -8.665232 v -4.332616 z m 0,-25.995696 v -4.332616 h 4.332616 v 4.332616 z m -21.66308,0 h 4.332616 v 4.332616 h 12.997848 v -4.332616 h 4.332616 v 4.332616 h 4.332616 v 4.332616 h 4.332616 v 4.332616 h 4.332616 v 12.997848 h -4.332616 v -8.665232 h -4.332616 v 8.665232 h -4.332616 v -4.332616 h -21.66308 v 4.332616 h -4.332616 v -8.665232 h -4.332616 v 8.665232 H 8.8768925 V 31.016577 h 4.3326165 v -4.332616 h 4.332616 v -4.332616 h 4.332616 z m -4.332616,-4.332616 h 4.332616 v 4.332616 h -4.332616 z"
     transform="matrix(1.1014409,0,0,1.1014409,-4.0240354,-2.1833017)" />
  <path
     style="opacity:1;mix-blend-mode:normal;fill:none;fill-rule:evenodd;stroke:#000000;stroke-width:0.18158032;stroke-miterlimit:4;stroke-dasharray:none;stroke-opacity:1;filter:url(#filter1)"
     id="path5222"
     stroke-miterlimit="4"
     d="m 39.205205,27.311164 0,3.07821 a 0.62720318,0.62720318 45 0 0 0.627203,0.627203 h 3.07821 a 0.62720318,0.62720318 135 0 0 0.627203,-0.627203 l 0,-3.07821 a 0.62720318,0.62720318 45 0 0 -0.627203,-0.627203 l -3.07821,0 a 0.62720318,0.62720318 135 0 0 -0.627203,0.627203 z m -17.330464,0 v 3.07821 a 0.62720318,0.62720318 45 0 0 0.627203,0.627203 h 3.07821 a 0.62720318,0.62720318 135 0 0 0.627203,-0.627203 v -3.07821 a 0.62720318,0.62720318 45 0 0 -0.627203,-0.627203 l -3.07821,0 a 0.62720318,0.62720318 135 0 0 -0.627203,0.627203 z m 0.627203,16.703261 7.410826,0 a 0.62720318,0.62720318 45 0 1 0.627203,0.627203 v 3.07821 a 0.62720318,0.62720318 135 0 1 -0.627203,0.627203 h -7.410826 a 0.62720318,0.62720318 45 0 1 -0.627203,-0.627203 v -3.07821 a 0.62720318,0.62720318 135 0 1 0.627203,-0.627203 z m 21.035877,0.627203 0,3.07821 a 0.62720318,0.62720318 135 0 1 -0.627203,0.627203 h -7.410826 a 0.62720318,0.62720318 45 0 1 -0.627203,-0.627203 v -3.07821 a 0.62720318,0.62720318 135 0 1 0.627203,-0.627203 h 7.410826 a 0.62720318,0.62720318 45 0 1 0.627203,0.627203 z m 0,-27.250102 v -3.07821 a 0.62720318,0.62720318 135 0 1 0.627203,-0.627203 h 3.07821 a 0.62720318,0.62720318 45 0 1 0.627203,0.627203 l 0,3.07821 a 0.62720318,0.62720318 135 0 1 -0.627203,0.627203 h -3.07821 a 0.62720318,0.62720318 45 0 1 -0.627203,-0.627203 z m -21.035877,0.627203 h 3.07821 a 0.62720318,0.62720318 45 0 1 0.627203,0.627203 l 0,3.07821 a 0.62720318,0.62720318 45 0 0 0.627203,0.627203 h 11.743442 a 0.62720318,0.62720318 135 0 0 0.627203,-0.627203 v -3.07821 a 0.62720318,0.62720318 135 0 1 0.627203,-0.627203 h 3.07821 a 0.62720318,0.62720318 45 0 1 0.627203,0.627203 l 0,3.07821 a 0.62720318,0.62720318 45 0 0 0.627203,0.627203 l 3.07821,0 a 0.62720318,0.62720318 45 0 1 0.627203,0.627203 v 3.07821 a 0.62720318,0.62720318 45 0 0 0.627203,0.627203 h 3.07821 a 0.62720318,0.62720318 45 0 1 0.627203,0.627203 v 3.07821 a 0.62720318,0.62720318 45 0 0 0.627203,0.627203 h 3.07821 a 0.62720318,0.62720318 45 0 1 0.627203,0.627203 v 11.743442 a 0.62720318,0.62720318 135 0 1 -0.627203,0.627203 h -3.07821 A 0.62720318,0.62720318 45 0 1 52.203053,43.387222 V 35.976396 A 0.62720318,0.62720318 45 0 0 51.57585,35.349193 h -3.07821 a 0.62720318,0.62720318 135 0 0 -0.627203,0.627203 l 0,7.410826 a 0.62720318,0.62720318 135 0 1 -0.627203,0.627203 h -3.07821 a 0.62720318,0.62720318 45 0 1 -0.627203,-0.627203 l 0,-3.07821 A 0.62720318,0.62720318 45 0 0 42.910618,39.681809 H 22.501944 a 0.62720318,0.62720318 135 0 0 -0.627203,0.627203 v 3.07821 a 0.62720318,0.62720318 135 0 1 -0.627203,0.627203 h -3.07821 a 0.62720318,0.62720318 45 0 1 -0.627203,-0.627203 v -7.410826 a 0.62720318,0.62720318 45 0 0 -0.627203,-0.627203 h -3.07821 a 0.62720318,0.62720318 135 0 0 -0.627203,0.627203 v 7.410826 a 0.62720318,0.62720318 135 0 1 -0.627203,0.627203 H 9.5040957 A 0.62720318,0.62720318 45 0 1 8.8768925,43.387222 V 31.64378 a 0.62720318,0.62720318 135 0 1 0.6272032,-0.627203 l 3.0782103,0 a 0.62720318,0.62720318 135 0 0 0.627203,-0.627203 v -3.07821 a 0.62720318,0.62720318 135 0 1 0.627203,-0.627203 h 3.07821 a 0.62720318,0.62720318 135 0 0 0.627203,-0.627203 v -3.07821 a 0.62720318,0.62720318 135 0 1 0.627203,-0.627203 l 3.07821,0 a 0.62720318,0.62720318 135 0 0 0.627203,-0.627203 v -3.07821 a 0.62720318,0.62720318 135 0 1 0.627203,-0.627203 z m -4.332616,-4.332616 h 3.07821 a 0.62720318,0.62720318 45 0 1 0.627203,0.627203 v 3.07821 a 0.62720318,0.62720318 135 0 1 -0.627203,0.627203 h -3.07821 a 0.62720318,0.62720318 45 0 1 -0.627203,-0.627203 v -3.07821 a 0.62720318,0.62720318 135 0 1 0.627203,-0.627203 z"
     inkscape:original-d="m 39.205205,26.683961 v 4.332616 h 4.332616 v -4.332616 z m -17.330464,0 v 4.332616 h 4.332616 v -4.332616 z m 0,17.330464 h 8.665232 v 4.332616 h -8.665232 z m 21.66308,0 v 4.332616 h -8.665232 v -4.332616 z m 0,-25.995696 v -4.332616 h 4.332616 v 4.332616 z m -21.66308,0 h 4.332616 v 4.332616 h 12.997848 v -4.332616 h 4.332616 v 4.332616 h 4.332616 v 4.332616 h 4.332616 v 4.332616 h 4.332616 v 12.997848 h -4.332616 v -8.665232 h -4.332616 v 8.665232 h -4.332616 v -4.332616 h -21.66308 v 4.332616 h -4.332616 v -8.665232 h -4.332616 v 8.665232 H 8.8768925 V 31.016577 h 4.3326165 v -4.332616 h 4.332616 v -4.332616 h 4.332616 z m -4.332616,-4.332616 h 4.332616 v 4.332616 h -4.332616 z"
     inkscape:path-effect="#path-effect7"
     transform="matrix(1.1014409,0,0,1.1014409,-4.0240354,-2.1629261)" />
</svg>
