<?xml version="1.0" encoding="UTF-8" standalone="no"?>
<svg
   width="64"
   height="64"
   version="1.1"
   id="svg7"
   sodipodi:docname="kali-database-assessment-trans.svg"
   inkscape:version="1.3.2 (091e20ef0f, 2023-11-25, custom)"
   xmlns:inkscape="http://www.inkscape.org/namespaces/inkscape"
   xmlns:sodipodi="http://sodipodi.sourceforge.net/DTD/sodipodi-0.dtd"
   xmlns:xlink="http://www.w3.org/1999/xlink"
   xmlns="http://www.w3.org/2000/svg"
   xmlns:svg="http://www.w3.org/2000/svg">
  <defs
     id="defs7">
    <linearGradient
       id="linearGradient8"
       inkscape:collect="always">
      <stop
         style="stop-color:#000000;stop-opacity:1;"
         offset="0"
         id="stop8" />
      <stop
         style="stop-color:#ffffff;stop-opacity:1;"
         offset="1"
         id="stop9" />
    </linearGradient>
    <filter
       inkscape:collect="always"
       style="color-interpolation-filters:sRGB"
       id="filter8"
       x="-0.15044341"
       y="-0.15320351"
       width="1.3008868"
       height="1.306407">
      <feGaussianBlur
         inkscape:collect="always"
         stdDeviation="2.7179717"
         id="feGaussianBlur8" />
    </filter>
    <radialGradient
       inkscape:collect="always"
       xlink:href="#linearGradient8"
       id="radialGradient9"
       cx="39.731541"
       cy="57.804409"
       fx="39.731541"
       fy="57.804409"
       r="24.40039"
       gradientTransform="matrix(3.7178867,-3.7178867,3.6504815,3.6504815,-327.17356,-60.823527)"
       gradientUnits="userSpaceOnUse" />
  </defs>
  <sodipodi:namedview
     id="namedview7"
     pagecolor="#ffffff"
     bordercolor="#000000"
     borderopacity="0.25"
     inkscape:showpageshadow="2"
     inkscape:pageopacity="0.0"
     inkscape:pagecheckerboard="0"
     inkscape:deskcolor="#d1d1d1"
     inkscape:zoom="8.5515726"
     inkscape:cx="32.50864"
     inkscape:cy="35.315142"
     inkscape:window-width="1920"
     inkscape:window-height="1008"
     inkscape:window-x="0"
     inkscape:window-y="0"
     inkscape:window-maximized="1"
     inkscape:current-layer="svg7" />
  <path
     style="fill:#696969;fill-opacity:1;stroke-width:0.871435"
     d="m 32,31.558186 c -9.522527,0 -24.4002044,0 -24.4002044,0 0,0 0,10.223435 0,12.200102 0,6.737931 10.9243444,12.200103 24.4002044,12.200103 13.475861,0 24.400205,-5.462172 24.400205,-12.200103 0,-1.698913 0,-12.200102 0,-12.200102 0,0 -14.322171,0 -24.400205,0 z"
     id="path4-3"
     sodipodi:nodetypes="scssscs" />
  <path
     style="fill:#919191;stroke-width:0.871435"
     d="m 32,20.241712 c -9.522527,0 -24.4002044,0 -24.4002044,0 0,0 0,10.223435 0,12.200102 0,6.737931 10.9243444,12.200102 24.4002044,12.200102 13.475861,0 24.400205,-5.462172 24.400205,-12.200102 0,-1.698914 0,-12.200102 0,-12.200102 0,0 -14.322171,0 -24.400205,0 z"
     id="path4"
     sodipodi:nodetypes="scssscs" />
  <path
     style="fill:#e4e4e4;stroke-width:0.871435"
     d="M 32,8.0416094 A 24.400205,12.200102 0 0 0 7.5997956,20.241712 24.400205,12.200102 0 0 0 32,32.441814 24.400205,12.200102 0 0 0 56.400205,20.241712 24.400205,12.200102 0 0 0 32,8.0416094 Z"
     id="path6" />
  <path
     id="path4-3-6"
     style="opacity:1;mix-blend-mode:soft-light;fill:url(#radialGradient9);fill-opacity:1;stroke-width:0.871;stroke-dasharray:none"
     d="M 32,8.041992 A 24.400205,12.200102 0 0 0 7.5996095,20.241211 v 11.316406 0.884766 11.316406 c 0,6.737924 10.9245435,12.199219 24.4003905,12.199219 13.475847,0 24.40039,-5.461295 24.40039,-12.199219 V 32.442383 31.557617 20.241211 A 24.400205,12.200102 0 0 0 32,8.041992 Z" />
  <path
     id="path6-5"
     style="color:#000000;mix-blend-mode:normal;fill:#000000;-inkscape-stroke:none;filter:url(#filter8)"
     d="m 32,10.710938 c -0.746563,0 -1.483789,0.01972 -2.210938,0.05664 -0.68113,0.03459 -1.352636,0.08688 -2.013671,0.152344 -0.08807,0.0087 -0.17599,0.01615 -0.263672,0.02539 -0.65938,0.0696 -1.309473,0.153043 -1.945313,0.251954 -0.668704,0.104022 -1.321647,0.222656 -1.960937,0.357422 -0.01905,0.004 -0.03761,0.0096 -0.05664,0.01367 -0.59566,0.126581 -1.177095,0.268069 -1.74414,0.419922 -0.07643,0.02046 -0.152638,0.03965 -0.228516,0.06055 -0.536388,0.147821 -1.058831,0.307212 -1.566406,0.476563 -0.06938,0.02314 -0.138213,0.04678 -0.207032,0.07031 -0.506651,0.17329 -0.997992,0.357085 -1.472656,0.550781 -0.568254,0.231902 -1.116247,0.475093 -1.634766,0.734375 -0.490435,0.24524 -0.957849,0.503288 -1.40039,0.771485 -0.884614,0.53611 -1.669579,1.117161 -2.339844,1.734375 -3.55e-4,3.26e-4 -0.0016,-3.27e-4 -0.002,0 -0.167998,0.154739 -0.327146,0.311424 -0.480469,0.470703 -0.458603,0.476419 -0.851232,0.971325 -1.169922,1.484375 -2.8e-4,4.51e-4 2.81e-4,0.0015 0,0.002 -0.10596,0.170668 -0.205395,0.343298 -0.294922,0.517578 -0.179563,0.349554 -0.324968,0.705604 -0.435546,1.06836 -1.78e-4,5.8e-4 1.77e-4,0.0014 0,0.002 -0.165505,0.543557 -0.252088,1.101708 -0.251954,1.669921 v 10.007813 0.78125 10.007813 c 0,3.033541 2.451542,5.756775 6.375,7.71875 3.92346,1.961975 9.332185,3.171875 15.304688,3.171874 5.972504,0 11.381229,-1.209899 15.304688,-3.171874 3.923459,-1.961975 6.375,-4.685209 6.375,-7.71875 V 32.390625 31.609375 21.601562 c 0,-0.189596 -0.01038,-0.377388 -0.0293,-0.564453 -0.03769,-0.373557 -0.112382,-0.743299 -0.222657,-1.105468 -1.77e-4,-5.81e-4 1.78e-4,-0.0014 0,-0.002 -0.110578,-0.362756 -0.255983,-0.718806 -0.435546,-1.06836 -0.08953,-0.17428 -0.188962,-0.34691 -0.294922,-0.517578 -2.81e-4,-4.51e-4 2.8e-4,-0.0015 0,-0.002 -0.31869,-0.51305 -0.711319,-1.007956 -1.169922,-1.484375 -0.153323,-0.159279 -0.312471,-0.315964 -0.480469,-0.470703 -3.55e-4,-3.27e-4 -0.0016,3.26e-4 -0.002,0 -0.670265,-0.617214 -1.455229,-1.198265 -2.339844,-1.734375 -0.442541,-0.268197 -0.909955,-0.526245 -1.40039,-0.771485 -0.518518,-0.259282 -1.066512,-0.502473 -1.634766,-0.734375 -0.474663,-0.193696 -0.966005,-0.377491 -1.472656,-0.550781 -0.06882,-0.02353 -0.137649,-0.04717 -0.207032,-0.07031 -0.507575,-0.169351 -1.030018,-0.328742 -1.566406,-0.476563 -0.07588,-0.0209 -0.152089,-0.04009 -0.228516,-0.06055 -0.567045,-0.151853 -1.14848,-0.293341 -1.74414,-0.419922 -0.01,-0.0021 -0.01932,-0.0057 -0.0293,-0.0078 -6.15e-4,-1.3e-4 -0.0013,1.3e-4 -0.002,0 -0.0084,-0.0018 -0.01697,-0.0041 -0.02539,-0.0059 -0.63929,-0.134766 -1.292233,-0.2534 -1.960937,-0.357422 -0.63584,-0.09891 -1.285933,-0.182358 -1.945313,-0.251954 -0.08768,-0.0092 -0.175602,-0.01668 -0.263672,-0.02539 C 35.563574,10.85446 34.892068,10.802165 34.210938,10.767578 33.483789,10.730655 32.746563,10.710937 32,10.710938 Z m 0,0.201171 c 0.05243,0 0.103909,0.0018 0.15625,0.002 0.637317,0.0023 1.267662,0.01744 1.890625,0.04688 0.100438,0.0047 0.200751,0.0102 0.300781,0.01562 0.624021,0.0339 1.240868,0.08064 1.847656,0.140626 0.094,0.0093 0.187693,0.01941 0.28125,0.0293 0.607686,0.06433 1.205479,0.141113 1.792969,0.230469 0.08815,0.01339 0.176004,0.02708 0.263672,0.04102 0.583807,0.09294 1.155895,0.197903 1.716797,0.314453 0.08504,0.01765 0.169423,0.03651 0.253906,0.05469 0.556829,0.119943 1.101595,0.250444 1.632813,0.392579 0.07704,0.02059 0.153995,0.04145 0.230469,0.0625 0.570623,0.157191 1.128685,0.324347 1.666015,0.505859 0.572029,0.193233 1.125476,0.400124 1.65625,0.619141 0.530774,0.219016 1.039505,0.450394 1.525391,0.693359 1.214713,0.607411 2.282184,1.286374 3.175781,2.021484 0.178652,0.147028 0.349145,0.295822 0.513672,0.447266 3.56e-4,3.27e-4 0.0016,-3.27e-4 0.002,0 0.328644,0.302585 0.62871,0.614772 0.898438,0.933594 1.080052,1.276638 1.673828,2.675945 1.673828,4.138671 0,2.925455 -2.376762,5.595608 -6.263672,7.539063 C 43.327933,31.08408 37.945484,32.291016 32,32.291016 c -5.945484,0 -11.327933,-1.206936 -15.214844,-3.150391 -3.88691,-1.943455 -6.263672,-4.613608 -6.263672,-7.539063 0,-1.462726 0.593776,-2.862033 1.673828,-4.138671 1.080607,-1.276568 2.646303,-2.430486 4.589844,-3.402344 0.485886,-0.242965 0.994617,-0.474343 1.525391,-0.693359 0.530774,-0.219017 1.084221,-0.425908 1.65625,-0.619141 0.53733,-0.181512 1.095392,-0.348668 1.666015,-0.505859 0.07647,-0.02105 0.153428,-0.04191 0.230469,-0.0625 0.531218,-0.142135 1.075984,-0.272636 1.632813,-0.392579 0.08448,-0.01818 0.168865,-0.03704 0.253906,-0.05469 0.560902,-0.11655 1.13299,-0.221511 1.716797,-0.314453 0.08767,-0.01394 0.175518,-0.02762 0.263672,-0.04102 0.58749,-0.08936 1.185283,-0.166142 1.792969,-0.230469 0.09356,-0.0099 0.187247,-0.02002 0.28125,-0.0293 0.606788,-0.05999 1.223635,-0.106727 1.847656,-0.140626 0.10003,-0.0054 0.200343,-0.01089 0.300781,-0.01562 0.622963,-0.02943 1.253308,-0.04459 1.890625,-0.04688 0.05234,-1.87e-4 0.103821,-0.002 0.15625,-0.002 z M 10.519531,23.064453 c 0.649725,2.441473 2.895242,4.61559 6.175781,6.255859 3.923308,1.961655 9.332182,3.169922 15.304688,3.169922 5.972506,0 11.381381,-1.208267 15.304688,-3.169922 3.28054,-1.640269 5.526056,-3.814386 6.175781,-6.255859 v 8.544922 0.78125 10.007813 c 0,2.925448 -2.378561,5.59724 -6.265625,7.541015 -3.887065,1.943775 -9.26937,3.150391 -15.214844,3.150391 -5.945474,0 -11.327779,-1.206616 -15.214844,-3.150391 -3.887064,-1.943775 -6.265625,-4.615567 -6.265625,-7.541015 v -10.007813 -0.78125 z"
     transform="matrix(1.1307137,0,0,1.1307137,-4.1828381,-4.1828383)" />
</svg>
