<?xml version="1.0" encoding="UTF-8" standalone="no"?>
<!-- Generator: Adobe Illustrator 25.2.1, SVG Export Plug-In . SVG Version: 6.00 Build 0)  -->

<svg
   version="1.1"
   id="Layer_1"
   x="0px"
   y="0px"
   viewBox="0 0 64 64"
   style="enable-background:new 0 0 64 64;"
   xml:space="preserve"
   sodipodi:docname="system-software-update.svg"
   inkscape:version="1.3.2 (091e20ef0f, 2023-11-25, custom)"
   xmlns:inkscape="http://www.inkscape.org/namespaces/inkscape"
   xmlns:sodipodi="http://sodipodi.sourceforge.net/DTD/sodipodi-0.dtd"
   xmlns="http://www.w3.org/2000/svg"
   xmlns:svg="http://www.w3.org/2000/svg"><defs
   id="defs10"><radialGradient
     id="SVGID_2_-3"
     cx="13.4189"
     cy="11.5877"
     r="39.0509"
     gradientUnits="userSpaceOnUse"
     gradientTransform="translate(-0.04659713,-0.0308811)">
	<stop
   offset="5.624806e-03"
   style="stop-color:#FFD215"
   id="stop4-6" />
	<stop
   offset="1"
   style="stop-color:#FF9500"
   id="stop5-7" />
</radialGradient><radialGradient
     id="SVGID_1_-5"
     cx="34.1464"
     cy="25.475"
     r="42.683399"
     fx="11.8592"
     fy="2.6935999"
     gradientUnits="userSpaceOnUse"
     gradientTransform="translate(-0.04659713,-0.0308811)">
	<stop
   offset="5.624806e-03"
   style="stop-color:#E97B00"
   id="stop2-3" />
	<stop
   offset="1"
   style="stop-color:#E95B00"
   id="stop3-5" />
</radialGradient><filter
     inkscape:collect="always"
     style="color-interpolation-filters:sRGB"
     id="filter11"
     x="-0.050489578"
     y="-0.060687151"
     width="1.1009664"
     height="1.1212272"><feGaussianBlur
       inkscape:collect="always"
       stdDeviation="0.68418918"
       id="feGaussianBlur11" /></filter><filter
     inkscape:collect="always"
     style="color-interpolation-filters:sRGB"
     id="filter12"
     x="-0.050476798"
     y="-0.060540055"
     width="1.1009664"
     height="1.1212272"><feGaussianBlur
       inkscape:collect="always"
       stdDeviation="0.68418918"
       id="feGaussianBlur12" /></filter><filter
     inkscape:collect="always"
     style="color-interpolation-filters:sRGB"
     id="filter1"
     x="-0.10654155"
     y="-0.12190751"
     width="1.2131726"
     height="1.243815"><feGaussianBlur
       inkscape:collect="always"
       stdDeviation="1.8476263"
       id="feGaussianBlur1" /></filter><filter
     inkscape:collect="always"
     style="color-interpolation-filters:sRGB"
     id="filter2"
     x="-0.10663106"
     y="-0.12190751"
     width="1.2131726"
     height="1.243815"><feGaussianBlur
       inkscape:collect="always"
       stdDeviation="1.8476263"
       id="feGaussianBlur2" /></filter></defs><sodipodi:namedview
   id="namedview10"
   pagecolor="#505050"
   bordercolor="#eeeeee"
   borderopacity="1"
   inkscape:showpageshadow="0"
   inkscape:pageopacity="0"
   inkscape:pagecheckerboard="0"
   inkscape:deskcolor="#505050"
   inkscape:zoom="4.289755"
   inkscape:cx="-11.072893"
   inkscape:cy="25.875604"
   inkscape:window-width="1920"
   inkscape:window-height="1020"
   inkscape:window-x="0"
   inkscape:window-y="0"
   inkscape:window-maximized="1"
   inkscape:current-layer="Layer_1" />
<style
   type="text/css"
   id="style1">
	.st0{opacity:0.11;fill-rule:evenodd;clip-rule:evenodd;}
	.st1{fill-rule:evenodd;clip-rule:evenodd;fill:url(#SVGID_1_);}
	.st2{fill-rule:evenodd;clip-rule:evenodd;fill:url(#SVGID_2_);}
	.st3{opacity:0.2;fill-rule:evenodd;clip-rule:evenodd;fill:#FFFFFF;enable-background:new    ;}
	.st4{opacity:9.000000e-02;fill-rule:evenodd;clip-rule:evenodd;fill:#3F3F3F;}
	.st5{fill-rule:evenodd;clip-rule:evenodd;fill:#FFFFFF;}
</style>


<radialGradient
   id="SVGID_1_"
   cx="34.1464"
   cy="25.475"
   r="42.6834"
   fx="11.8592"
   fy="2.6936"
   gradientUnits="userSpaceOnUse"
   gradientTransform="matrix(0.87830172,0,0,0.87830172,3.8886741,3.8905867)">
	<stop
   offset="5.624806e-03"
   style="stop-color:#E97B00"
   id="stop2" />
	<stop
   offset="1"
   style="stop-color:#E95B00"
   id="stop3" />
</radialGradient>
<path
   class="st1"
   d="m 31.028197,55.710388 c 0.966132,0 2.020094,-0.08783 2.986226,-0.17566 3.952358,-0.439151 7.729055,-1.844434 11.154432,-4.128018 4.91849,-3.337547 8.343866,-8.431697 9.836979,-14.052828 1.141793,-0.526981 2.195755,-1.317452 3.074056,-2.459245 1.668774,-2.195754 1.844434,-6.060281 0,-8.519526 0,0 0,0 0,0 l -1.668773,-2.195755 c 0,0 0,0 0,0 l -1.668773,-2.195754 c -1.844434,-2.371414 -4.391509,-3.161886 -6.675093,-3.161886 -2.283585,0 -4.91849,0.790472 -6.675093,3.161886 l -1.668774,2.195754 c 0,0 0,0 0,0 l -1.668773,2.195755 c 0,0 0,0 0,0 -1.844434,2.459245 -1.668773,6.323772 0,8.519526 0.263491,0.263491 0.614811,0.439151 0.790472,0.702642 -0.614812,1.053962 -1.493113,2.020094 -2.547075,2.722735 -2.371415,1.668773 -5.445471,2.020094 -8.168206,0.966132 h 0.08783 c -2.020094,-0.878302 -4.654999,-0.790471 -6.587263,0.17566 -1.932264,0.966132 -3.161886,2.547075 -3.864528,4.215849 -0.702641,1.756603 -0.790471,3.688867 -0.08783,5.708961 0.790472,2.020094 2.547075,3.776697 4.654999,4.567169 2.722736,1.141792 5.708961,1.756603 8.695187,1.756603 z"
   id="path3"
   style="fill:url(#SVGID_1_);stroke-width:0.878302" /><path
   class="st1"
   d="m 30.981765,55.818407 c 0.971638,0 2.031606,-0.08833 3.003244,-0.176661 3.974881,-0.441654 7.773101,-1.854945 11.217999,-4.151543 4.946519,-3.356566 8.391416,-8.479747 9.893038,-14.132912 1.148299,-0.529984 2.208267,-1.32496 3.091574,-2.473259 1.678284,-2.208268 1.854945,-6.094818 0,-8.568078 0,0 0,0 0,0 l -1.678283,-2.208267 c 0,0 0,0 0,0 l -1.678283,-2.208268 c -1.854945,-2.384929 -4.416535,-3.179905 -6.713133,-3.179905 -2.296599,0 -4.946519,0.794976 -6.713133,3.179905 l -1.678284,2.208268 c 0,0 0,0 0,0 l -1.678283,2.208267 c 0,0 0,0 0,0 -1.854945,2.47326 -1.678283,6.35981 0,8.568078 0.264992,0.264992 0.618315,0.441653 0.794976,0.706645 -0.618315,1.059969 -1.501622,2.031606 -2.56159,2.738252 -2.384929,1.678283 -5.476503,2.031606 -8.214755,0.971638 h 0.08833 c -2.031606,-0.883307 -4.681527,-0.794977 -6.624803,0.176661 -1.943275,0.971638 -3.179905,2.56159 -3.88655,4.239874 -0.706646,1.766614 -0.794977,3.709889 -0.08833,5.741495 0.794976,2.031606 2.56159,3.79822 4.681527,4.593196 2.738252,1.148299 5.741495,1.766614 8.744739,1.766614 z"
   id="path3-6"
   style="clip-rule:evenodd;opacity:1;fill:none;fill-rule:evenodd;stroke:#000000;stroke-width:0.176661;stroke-dasharray:none;stroke-opacity:1;filter:url(#filter1)" />
<radialGradient
   id="SVGID_2_"
   cx="13.4189"
   cy="11.5877"
   r="39.0509"
   gradientUnits="userSpaceOnUse"
   gradientTransform="matrix(0.87830172,0,0,0.87830172,3.8886741,3.8905867)">
	<stop
   offset="5.624806e-03"
   style="stop-color:#FFD215"
   id="stop4" />
	<stop
   offset="1"
   style="stop-color:#FF9500"
   id="stop5" />
</radialGradient>
<path
   class="st2"
   d="m 32.960461,8.2820953 c -0.966132,0 -2.020094,0.08783 -2.986226,0.1756604 -3.952358,0.4391508 -7.729055,1.8444333 -11.154432,4.1280183 -4.918489,3.337546 -8.343866,8.431696 -9.8369789,14.052827 -1.1417922,0.526981 -2.1957543,1.317453 -3.074056,2.459245 -1.6687733,2.195754 -1.8444336,6.060282 0,8.519527 0,0 0,0 0,0 l 1.6687733,2.195754 c 0,0 0,0 0,0 l 1.6687732,2.195754 c 1.8444334,2.371415 4.3915084,3.161887 6.6750934,3.161887 2.283584,0 4.918489,-0.790472 6.675093,-3.161887 l 1.668773,-2.195754 c 0,0 0,0 0,0 l 1.668773,-2.195754 c 0,0 0,0 0,0 1.844434,-2.459245 1.668774,-6.323773 0,-8.519527 -0.26349,-0.26349 -0.614811,-0.439151 -0.790471,-0.702641 0.614811,-1.053962 1.493113,-2.020094 2.547075,-2.722736 2.371414,-1.668773 5.44547,-2.020094 8.168206,-0.966131 h -0.08783 c 2.020094,0.878301 4.654999,0.790471 6.587262,-0.175661 1.932264,-0.966132 3.161887,-2.547075 3.864528,-4.215848 0.702641,-1.756604 0.790472,-3.688867 0.08783,-5.708961 C 45.520176,12.585774 43.763572,10.82917 41.655648,10.038699 38.932913,8.8969065 35.946687,8.2820953 32.960461,8.2820953 Z"
   id="path5"
   style="fill:url(#SVGID_2_);stroke-width:0.878302" />



<path
   class="st5"
   d="m 32.960461,12.761434 c -0.790471,0 -1.580943,0 -2.283584,0.08783 -3.074056,0.351321 -6.060282,1.405283 -8.695187,3.249717 -4.74283,3.249716 -7.816886,8.519526 -8.343867,14.228488 h -0.790471 c -1.580943,0 -2.810566,0.966131 -2.810566,2.195754 0,0.351321 0.175661,0.790471 0.351321,1.053962 l 1.668773,2.195754 1.668773,2.195755 c 0.790472,1.053962 2.547075,1.405282 3.864528,0.790471 0.439151,-0.17566 0.790472,-0.439151 1.053962,-0.790471 l 1.668773,-2.195755 1.668774,-2.195754 c 0.790471,-1.053962 0.35132,-2.371415 -1.053962,-2.986226 -0.439151,-0.17566 -0.966132,-0.26349 -1.405283,-0.26349 h -0.526981 c 0.526981,-3.952358 2.634905,-7.553395 5.972451,-9.83698 3.864528,-2.634905 8.695187,-3.161886 12.998866,-1.493113 1.317452,0.526981 2.898396,-0.08783 3.425377,-1.405282 0.526981,-1.317453 -0.08783,-2.898396 -1.405283,-3.425377 0,0 -0.08783,0 -0.08783,0 -2.195755,-0.966132 -4.567169,-1.405283 -6.938584,-1.405283 z"
   id="path9"
   style="stroke-width:0.878302" />
<path
   class="st5"
   d="m 31.028197,49.650106 c 0.790472,0 1.580943,0 2.283585,-0.08783 3.074056,-0.35132 6.060282,-1.405283 8.695187,-3.249716 4.742829,-3.249717 7.816885,-8.519527 8.343866,-14.228488 h 0.790472 c 1.580943,0 2.810565,-0.966132 2.810565,-2.195754 0,-0.351321 -0.17566,-0.790472 -0.35132,-1.053962 l -1.668774,-2.195755 -1.668773,-2.195754 c -0.790472,-1.053962 -2.547075,-1.405283 -3.864528,-0.790472 -0.43915,0.175661 -0.790471,0.439151 -1.053962,0.790472 l -1.668773,2.195754 -1.668773,2.195755 c -0.790472,1.053962 -0.351321,2.371414 1.053962,2.986225 0.439151,0.175661 0.966132,0.263491 1.405283,0.263491 h 0.526981 c -0.526981,3.952358 -2.634906,7.553395 -5.972452,9.836979 -3.864528,2.634905 -8.695187,3.161886 -12.998866,1.493113 -1.317452,-0.526981 -2.898395,0.08783 -3.425376,1.405283 -0.526981,1.317453 0.08783,2.898396 1.405283,3.425377 0,0 0.08783,0 0.08783,0 2.195754,0.966132 4.567169,1.405282 6.938583,1.405282 z"
   id="path10"
   style="stroke-width:0.878302" /><path
   class="st2"
   d="m 32.92504,8.11983 c -0.971637,0 -2.031606,0.088331 -3.003243,0.1766614 -3.974882,0.4416535 -7.773102,1.8549446 -11.217999,4.1515426 -4.946519,3.356567 -8.391416,8.479747 -9.8930384,14.132912 -1.148299,0.529984 -2.2082674,1.324961 -3.0915744,2.47326 -1.6782833,2.208267 -1.8549447,6.094818 0,8.568077 0,0 0,0 0,0 l 1.6782833,2.208268 c 0,0 0,0 0,0 l 1.6782832,2.208267 c 1.8549443,2.384929 4.4165353,3.179906 6.7131333,3.179906 2.296598,0 4.946519,-0.794977 6.713133,-3.179906 l 1.678283,-2.208267 c 0,0 0,0 0,0 l 1.678284,-2.208268 c 0,0 0,0 0,0 1.854944,-2.473259 1.678283,-6.35981 0,-8.568077 -0.264993,-0.264992 -0.618315,-0.441654 -0.794977,-0.706646 0.618315,-1.059968 1.501622,-2.031606 2.561591,-2.738252 2.384928,-1.678283 5.476503,-2.031606 8.214755,-0.971637 h -0.08833 c 2.031606,0.883307 4.681527,0.794976 6.624802,-0.176662 1.943276,-0.971637 3.179905,-2.56159 3.886551,-4.239873 0.706646,-1.766614 0.794976,-3.70989 0.08833,-5.741496 C 45.55633,12.448034 43.789716,10.68142 41.66978,9.886444 38.931528,8.7381449 35.928284,8.11983 32.92504,8.11983 Z"
   id="path5-2"
   style="clip-rule:evenodd;opacity:1;fill:none;fill-rule:evenodd;stroke:#000000;stroke-width:0.176661;stroke-dasharray:none;stroke-opacity:1;filter:url(#filter2)" /><path
   class="st5"
   d="m 33.053403,10.069119 c -0.9,0 -1.8,0 -2.6,0.1 -3.5,0.4 -6.9,1.6 -9.9,3.7 -5.4,3.7 -8.9,9.7 -9.5,16.2 h -0.9 c -1.8000001,0 -3.2000001,1.1 -3.2000001,2.5 0,0.4 0.2,0.9 0.4,1.2 l 1.9,2.5 1.9000001,2.5 c 0.9,1.2 2.9,1.6 4.4,0.9 0.5,-0.2 0.9,-0.5 1.2,-0.9 l 1.9,-2.5 1.9,-2.5 c 0.9,-1.2 0.4,-2.7 -1.2,-3.4 -0.5,-0.2 -1.1,-0.3 -1.6,-0.3 h -0.6 c 0.6,-4.5 3,-8.6 6.8,-11.2 4.4,-3 9.9,-3.6 14.8,-1.7 1.5,0.6 3.3,-0.1 3.9,-1.6 0.6,-1.5 -0.1,-3.3 -1.6,-3.9 0,0 -0.1,0 -0.1,0 -2.5,-1.1 -5.2,-1.6 -7.9,-1.6 z"
   id="path9-1"
   style="clip-rule:evenodd;opacity:1;fill:none;fill-rule:evenodd;stroke:#ff6600;stroke-width:0.34156827;stroke-dasharray:none;stroke-opacity:1;filter:url(#filter12)"
   transform="matrix(0.87830172,0,0,0.87830172,3.8886741,3.8905867)" /><path
   class="st5"
   d="m 30.853403,52.069119 c 0.9,0 1.8,0 2.6,-0.1 3.5,-0.4 6.9,-1.6 9.9,-3.7 5.4,-3.7 8.9,-9.7 9.5,-16.2 h 0.9 c 1.8,0 3.2,-1.1 3.2,-2.5 0,-0.4 -0.2,-0.9 -0.4,-1.2 l -1.9,-2.5 -1.9,-2.5 c -0.9,-1.2 -2.9,-1.6 -4.4,-0.9 -0.5,0.2 -0.9,0.5 -1.2,0.9 l -1.9,2.5 -1.9,2.5 c -0.9,1.2 -0.4,2.7 1.2,3.4 0.5,0.2 1.1,0.3 1.6,0.3 h 0.6 c -0.6,4.5 -3,8.6 -6.8,11.2 -4.4,3 -9.9,3.6 -14.8,1.7 -1.5,-0.6 -3.3,0.1 -3.9,1.6 -0.6,1.5 0.1,3.3 1.6,3.9 0,0 0.1,0 0.1,0 2.5,1.1 5.2,1.6 7.9,1.6 z"
   id="path10-2"
   style="clip-rule:evenodd;opacity:1;fill:none;fill-rule:evenodd;stroke:#ffb800;stroke-width:0.34156827;stroke-dasharray:none;stroke-opacity:1;filter:url(#filter11)"
   transform="matrix(0.87830172,0,0,0.87830172,3.8886741,3.8905867)" />
</svg>
