<?xml version="1.0" encoding="UTF-8" standalone="no"?>
<svg
   width="64"
   height="64"
   version="1"
   id="svg4"
   sodipodi:docname="system-lock-screen.svg"
   inkscape:version="1.3.2 (091e20ef0f, 2023-11-25, custom)"
   xmlns:inkscape="http://www.inkscape.org/namespaces/inkscape"
   xmlns:sodipodi="http://sodipodi.sourceforge.net/DTD/sodipodi-0.dtd"
   xmlns="http://www.w3.org/2000/svg"
   xmlns:svg="http://www.w3.org/2000/svg">
  <defs
     id="defs4">
    <radialGradient
       id="SVGID_1_-3-2"
       cx="-489.36789"
       cy="84.434166"
       r="64.706802"
       gradientTransform="matrix(0.96794252,0,0,-0.96304834,473.64622,81.004607)"
       gradientUnits="userSpaceOnUse"
       fx="-489.36789"
       fy="84.434166">
      <stop
         offset="0"
         style="stop-color:#ffbd00;stop-opacity:1;"
         id="stop1-6-9" />
      <stop
         offset="1"
         style="stop-color:#ff6a15;stop-opacity:1;"
         id="stop2-7-1" />
    </radialGradient>
    <filter
       inkscape:collect="always"
       style="color-interpolation-filters:sRGB"
       id="filter1"
       x="-0.070501105"
       y="-0.070501102"
       width="1.1410022"
       height="1.1410022">
      <feGaussianBlur
         inkscape:collect="always"
         stdDeviation="1.5825257"
         id="feGaussianBlur1" />
    </filter>
    <filter
       inkscape:collect="always"
       style="color-interpolation-filters:sRGB"
       id="filter2"
       x="-0.09403861"
       y="-0.085082552"
       width="1.1880772"
       height="1.1701651">
      <feGaussianBlur
         inkscape:collect="always"
         stdDeviation="1.4264447"
         id="feGaussianBlur2" />
    </filter>
  </defs>
  <sodipodi:namedview
     id="namedview4"
     pagecolor="#ffffff"
     bordercolor="#000000"
     borderopacity="0.25"
     inkscape:showpageshadow="2"
     inkscape:pageopacity="0.0"
     inkscape:pagecheckerboard="0"
     inkscape:deskcolor="#d1d1d1"
     inkscape:zoom="9.8111066"
     inkscape:cx="34.094013"
     inkscape:cy="37.30466"
     inkscape:window-width="1920"
     inkscape:window-height="1020"
     inkscape:window-x="0"
     inkscape:window-y="0"
     inkscape:window-maximized="1"
     inkscape:current-layer="svg4" />
  <path
     class="st1"
     d="m 20.799999,4.0000001 h 22.4 c 9.3,0 16.8,7.4999999 16.8,16.7999999 v 22.4 c 0,9.3 -7.5,16.8 -16.8,16.8 h -22.4 c -9.3,0 -16.799998,-7.5 -16.799998,-16.8 V 20.8 c 0,-9.3 7.499998,-16.7999999 16.799998,-16.7999999 z"
     id="path2-3"
     style="fill:url(#SVGID_1_-3-2)" />
  <path
     class="st1"
     d="m 20.8,4.0000007 h 22.4 c 9.3,0 16.8,7.5000003 16.8,16.8000003 v 22.4 c 0,9.3 -7.5,16.8 -16.8,16.8 H 20.8 c -9.3,0 -16.7999982,-7.5 -16.7999982,-16.8 v -22.4 C 4.0000018,11.500001 11.5,4.0000007 20.8,4.0000007 Z"
     id="path2-3-2"
     style="fill:none;fill-opacity:1;stroke:#000000;stroke-width:0.3;stroke-dasharray:none;stroke-opacity:1;filter:url(#filter1)" />
  <path
     style="fill:#ffffff;fill-opacity:1;stroke:#ffffff;stroke-width:0;stroke-dasharray:none;stroke-opacity:1"
     d="m 32,12.008171 c -6.340564,0 -11.746247,4.83584 -11.746247,10.842689 v 5.421345 h -2.560079 c -1.585141,0 -2.861265,1.208961 -2.861265,2.710673 v 16.264033 c 0,1.501713 1.276124,2.710673 2.861265,2.710673 h 28.612652 c 1.58514,0 2.861265,-1.20896 2.861265,-2.710673 V 30.982878 c 0,-1.501712 -1.276125,-2.710673 -2.861265,-2.710673 H 43.746247 V 22.85086 C 43.746247,16.844011 38.340564,12.008171 32,12.008171 Z m 0,5.421345 c 3.170282,0 6.656575,2.436289 6.324902,5.421344 v 5.421345 H 25.675098 V 22.85086 c 0,-3.003425 3.15462,-5.421344 6.324902,-5.421344 z"
     id="path3" />
  <path
     style="mix-blend-mode:normal;fill:none;fill-opacity:1;stroke:#0400ff;stroke-width:0.3;stroke-dasharray:none;stroke-opacity:1;filter:url(#filter2)"
     d="m 32,11 c -7.017334,0 -13,5.352 -13,12 v 6 H 16.166667 C 14.412333,29 13,30.338 13,32 v 18 c 0,1.662 1.412333,3 3.166667,3 H 47.833334 C 49.587666,53 51,51.662 51,50 V 32 c 0,-1.662 -1.412334,-3 -3.166666,-3 H 45 V 23 C 45,16.352 39.017334,11 32,11 Z m 0,6 c 3.508666,0 7.367074,2.69633 7,6 v 6 H 25 v -6 c 0,-3.324 3.491334,-6 7,-6 z"
     id="path3-9"
     transform="matrix(0.90355744,0,0,0.90355744,3.0861621,2.0690397)" />
</svg>
