<?xml version="1.0" encoding="UTF-8" standalone="no"?>
<svg
   width="64"
   height="64"
   version="1"
   id="svg11"
   sodipodi:docname="com.gexperts.Terminix.svg"
   inkscape:version="1.3.2 (091e20ef0f, 2023-11-25, custom)"
   xmlns:inkscape="http://www.inkscape.org/namespaces/inkscape"
   xmlns:sodipodi="http://sodipodi.sourceforge.net/DTD/sodipodi-0.dtd"
   xmlns:xlink="http://www.w3.org/1999/xlink"
   xmlns="http://www.w3.org/2000/svg"
   xmlns:svg="http://www.w3.org/2000/svg">
  <defs
     id="defs11">
    <inkscape:path-effect
       effect="fillet_chamfer"
       id="path-effect13"
       is_visible="true"
       lpeversion="1"
       nodesatellites_param="F,0,0,1,0,0,0,1 @ F,0,0,1,0,0,0,1 @ F,0,0,1,0,10.925362,0,1 @ F,0,1,1,0,10.925362,0,1"
       radius="0"
       unit="px"
       method="auto"
       mode="F"
       chamfer_steps="1"
       flexible="false"
       use_knot_distance="true"
       apply_no_radius="true"
       apply_with_radius="true"
       only_selected="false"
       hide_knots="false" />
    <inkscape:path-effect
       effect="fillet_chamfer"
       id="path-effect12"
       is_visible="true"
       lpeversion="1"
       nodesatellites_param="F,0,0,1,0,0,0,1 @ F,0,0,1,0,0,0,1 @ F,0,0,1,0,0,0,1 @ F,0,0,1,0,0,0,1"
       radius="0"
       unit="px"
       method="auto"
       mode="F"
       chamfer_steps="1"
       flexible="false"
       use_knot_distance="true"
       apply_no_radius="true"
       apply_with_radius="true"
       only_selected="false"
       hide_knots="false" />
    <inkscape:path-effect
       effect="fillet_chamfer"
       id="path-effect11"
       is_visible="true"
       lpeversion="1"
       nodesatellites_param="F,0,0,1,0,0,0,1 @ F,0,0,1,0,0,0,1 @ F,0,0,1,0,0,0,1 @ F,0,0,1,0,0,0,1"
       radius="0"
       unit="px"
       method="auto"
       mode="F"
       chamfer_steps="1"
       flexible="false"
       use_knot_distance="true"
       apply_no_radius="true"
       apply_with_radius="true"
       only_selected="false"
       hide_knots="false" />
    <radialGradient
       inkscape:collect="always"
       xlink:href="#linearGradient14"
       id="radialGradient15"
       cx="5.8015566"
       cy="34.666862"
       fx="5.8015566"
       fy="34.666862"
       r="28"
       gradientTransform="matrix(1.9330047,1.0600342,-1.1366554,2.072726,35.820303,-43.789853)"
       gradientUnits="userSpaceOnUse" />
    <linearGradient
       id="linearGradient14"
       inkscape:collect="always">
      <stop
         style="stop-color:#717171;stop-opacity:1;"
         offset="0"
         id="stop14" />
      <stop
         style="stop-color:#555555;stop-opacity:1;"
         offset="1"
         id="stop15" />
    </linearGradient>
    <filter
       inkscape:collect="always"
       style="color-interpolation-filters:sRGB"
       id="filter2"
       x="-0.11378631"
       y="-0.12744066"
       width="1.2275726"
       height="1.2548813">
      <feGaussianBlur
         inkscape:collect="always"
         stdDeviation="2.5300138"
         id="feGaussianBlur2" />
    </filter>
  </defs>
  <sodipodi:namedview
     id="namedview11"
     pagecolor="#505050"
     bordercolor="#eeeeee"
     borderopacity="1"
     inkscape:showpageshadow="0"
     inkscape:pageopacity="0"
     inkscape:pagecheckerboard="0"
     inkscape:deskcolor="#505050"
     inkscape:zoom="9.269728"
     inkscape:cx="30.15191"
     inkscape:cy="32.525226"
     inkscape:window-width="1920"
     inkscape:window-height="1020"
     inkscape:window-x="0"
     inkscape:window-y="0"
     inkscape:window-maximized="1"
     inkscape:current-layer="svg11" />
  <path
     id="rect2"
     style="fill:url(#radialGradient15);stroke-width:0.93019"
     d="m 16.012552,8.7452412 h 31.974896 c 5.572067,0 10.057882,4.2517538 10.057882,9.5330808 v 27.443356 c 0,5.281327 -4.485815,9.533081 -10.057882,9.533081 H 16.012552 c -5.572067,0 -10.057882,-4.251754 -10.057882,-9.533081 V 18.278322 c 0,-5.281327 4.485815,-9.5330808 10.057882,-9.5330808 z"
     sodipodi:nodetypes="sssssssss" />
  <rect
     style="fill:none;stroke:#000000;stroke-width:0.6;stroke-dasharray:none;stroke-opacity:1;filter:url(#filter2)"
     width="56"
     height="50"
     x="4.049305"
     y="7.0226612"
     rx="10.812714"
     ry="10.248527"
     id="rect2-5"
     transform="matrix(0.93019037,0,0,0.93019037,2.1880467,2.2128303)" />
  <path
     style="fill:#000000;stroke-width:0.92413;fill-opacity:1;opacity:0.16211343"
     d="M 32,8.7265491 V 61.054956 l 18.378546,0 A 10.925362,10.925362 135 0 0 61.303908,50.129594 V 19.651911 A 10.925362,10.925362 45 0 0 50.378546,8.7265491 Z"
     id="path2"
     sodipodi:nodetypes="ccccc"
     inkscape:path-effect="#path-effect13"
     inkscape:original-d="M 32,8.7265491 V 61.054956 H 61.303908 V 8.7265491 Z"
     transform="matrix(0.88880057,0,0,0.88880057,3.5583819,0.98907939)" />
  <path
     style="color:#000000;fill:#ffffff;stroke-width:0.674879;stroke-linecap:round;stroke-linejoin:round;-inkscape-stroke:none"
     d="m 12.682164,13.584667 a 1.3497586,1.3497586 0 0 0 -0.914778,0.479797 1.3497586,1.3497586 0 0 0 0.172674,1.902052 l 2.804967,2.337034 -2.804967,2.337033 a 1.3497586,1.3497586 0 0 0 -0.172674,1.902052 1.3497586,1.3497586 0 0 0 1.902052,0.172674 l 4.049276,-3.374396 a 1.3498936,1.3498936 0 0 0 0,-2.074726 L 13.669438,13.89179 a 1.3497586,1.3497586 0 0 0 -0.987274,-0.307123 z"
     id="path5" />
  <path
     style="color:#000000;fill:#ffffff;stroke-width:0.674879;stroke-linecap:round;stroke-linejoin:round;-inkscape-stroke:none"
     d="m 19.553542,20.329211 a 1.3497586,1.3497586 0 0 0 -1.349758,1.349759 1.3497586,1.3497586 0 0 0 1.349758,1.349758 h 4.049276 a 1.3497586,1.3497586 0 0 0 1.349759,-1.349758 1.3497586,1.3497586 0 0 0 -1.349759,-1.349759 z"
     id="path7" />
  <path
     style="color:#000000;fill:#ffffff;stroke-width:0.674879;stroke-linecap:round;stroke-linejoin:round;-inkscape-stroke:none"
     d="m 35.070308,13.584668 a 1.3497586,1.3497586 0 0 0 -0.914777,0.479796 1.3497586,1.3497586 0 0 0 0.172674,1.902053 l 2.804967,2.337033 -2.804967,2.337033 a 1.3497586,1.3497586 0 0 0 -0.172674,1.902053 1.3497586,1.3497586 0 0 0 1.902052,0.172673 l 4.049276,-3.374395 a 1.3498936,1.3498936 0 0 0 0,-2.074726 l -4.049276,-3.374397 a 1.3497586,1.3497586 0 0 0 -0.987275,-0.307123 z"
     id="path9" />
  <path
     style="color:#000000;fill:#ffffff;stroke-width:0.674879;stroke-linecap:round;stroke-linejoin:round;-inkscape-stroke:none"
     d="m 41.941687,20.329211 a 1.3497586,1.3497586 0 0 0 -1.349759,1.349759 1.3497586,1.3497586 0 0 0 1.349759,1.349758 h 4.049276 a 1.3497586,1.3497586 0 0 0 1.349758,-1.349758 1.3497586,1.3497586 0 0 0 -1.349758,-1.349759 z"
     id="path11" />
</svg>
