<?xml version="1.0" encoding="UTF-8" standalone="no"?>
<!-- Generator: Adobe Illustrator 25.2.2, SVG Export Plug-In . SVG Version: 6.00 Build 0)  -->

<svg
   version="1.1"
   id="Layer_1"
   x="0px"
   y="0px"
   viewBox="0 0 64 64"
   style="enable-background:new 0 0 64 64;"
   xml:space="preserve"
   sodipodi:docname="xfce-system-settings.svg"
   inkscape:version="1.3.2 (091e20ef0f, 2023-11-25, custom)"
   xmlns:inkscape="http://www.inkscape.org/namespaces/inkscape"
   xmlns:sodipodi="http://sodipodi.sourceforge.net/DTD/sodipodi-0.dtd"
   xmlns:xlink="http://www.w3.org/1999/xlink"
   xmlns="http://www.w3.org/2000/svg"
   xmlns:svg="http://www.w3.org/2000/svg"><defs
   id="defs7"><radialGradient
     id="SVGID_2_"
     cx="21.0371"
     cy="56.209099"
     r="40.250599"
     gradientTransform="matrix(1,0,0,-1,0,66)"
     gradientUnits="userSpaceOnUse">
	<stop
   offset="0"
   style="stop-color:#FFFFFF"
   id="stop5" />
	<stop
   offset="1"
   style="stop-color:#C4C4C4"
   id="stop6" />
</radialGradient><radialGradient
     id="SVGID_1_-3"
     cx="-0.0342944"
     cy="66.391869"
     r="64.706802"
     gradientTransform="matrix(1.6487794,-0.4417891,-0.4417891,-1.6487794,29.353453,108.55852)"
     gradientUnits="userSpaceOnUse"
     fx="-0.0342944"
     fy="66.391869">
	<stop
   offset="0"
   style="stop-color:#006fff;stop-opacity:1;"
   id="stop1-6" />
	<stop
   offset="1"
   style="stop-color:#15baff;stop-opacity:1;"
   id="stop2-7" />
</radialGradient><radialGradient
     id="SVGID_2_-3"
     cx="21.0371"
     cy="56.209099"
     r="40.250599"
     gradientTransform="matrix(1,0,0,-1,0,66)"
     gradientUnits="userSpaceOnUse">
	<stop
   offset="0"
   style="stop-color:#FFFFFF"
   id="stop5-5" />
	<stop
   offset="1"
   style="stop-color:#C4C4C4"
   id="stop6-6" />
</radialGradient><radialGradient
     id="SVGID_2_-3-3"
     cx="21.0371"
     cy="56.209099"
     r="40.250599"
     gradientTransform="matrix(1,0,0,-1,0,66)"
     gradientUnits="userSpaceOnUse">
	<stop
   offset="0"
   style="stop-color:#FFFFFF"
   id="stop5-5-6" />
	<stop
   offset="1"
   style="stop-color:#C4C4C4"
   id="stop6-6-7" />
</radialGradient><radialGradient
     id="SVGID_2_-5"
     cx="21.0371"
     cy="56.209099"
     r="40.250599"
     gradientTransform="matrix(1,0,0,-1,0,66)"
     gradientUnits="userSpaceOnUse">
	<stop
   offset="0"
   style="stop-color:#FFFFFF"
   id="stop5-3" />
	<stop
   offset="1"
   style="stop-color:#C4C4C4"
   id="stop6-56" />
</radialGradient><radialGradient
     id="SVGID_1_-3-2"
     cx="-159.43106"
     cy="15.462561"
     r="64.706802"
     gradientTransform="matrix(-0.89413329,0,0,0.96304834,-80.753654,49.330428)"
     gradientUnits="userSpaceOnUse"
     fx="-159.43106"
     fy="15.462561">
	<stop
   offset="0"
   style="stop-color:#006fff;stop-opacity:1;"
   id="stop1-6-9" />
	<stop
   offset="1"
   style="stop-color:#15baff;stop-opacity:1;"
   id="stop2-7-1" />
</radialGradient><radialGradient
     id="SVGID_2_-3-3-6"
     cx="21.0371"
     cy="56.209099"
     r="40.250599"
     gradientTransform="matrix(1,0,0,-1,0,66)"
     gradientUnits="userSpaceOnUse">
	<stop
   offset="0"
   style="stop-color:#FFFFFF"
   id="stop5-5-6-7" />
	<stop
   offset="1"
   style="stop-color:#C4C4C4"
   id="stop6-6-7-5" />
</radialGradient><radialGradient
     id="SVGID_1_-3-2-3"
     cx="-159.43106"
     cy="15.462561"
     r="64.706802"
     gradientTransform="matrix(-0.89413329,0,0,0.96304834,-80.701354,48.226892)"
     gradientUnits="userSpaceOnUse"
     fx="-159.43106"
     fy="15.462561">
	<stop
   offset="0"
   style="stop-color:#006fff;stop-opacity:1;"
   id="stop1-6-9-5" />
	<stop
   offset="1"
   style="stop-color:#15baff;stop-opacity:1;"
   id="stop2-7-1-6" />
</radialGradient><filter
     inkscape:collect="always"
     style="color-interpolation-filters:sRGB"
     id="filter2"
     x="-0.14286172"
     y="-0.20408818"
     width="1.2857234"
     height="1.4081764"><feGaussianBlur
       inkscape:collect="always"
       stdDeviation="2.3344531"
       id="feGaussianBlur2" /></filter><radialGradient
     inkscape:collect="always"
     xlink:href="#SVGID_2_-3-3-3"
     id="radialGradient8-5"
     gradientUnits="userSpaceOnUse"
     gradientTransform="matrix(0.8946034,0,0,-0.8946034,3.132686,61.872564)"
     cx="21.0371"
     cy="56.209099"
     r="40.250599" /><radialGradient
     id="SVGID_2_-3-3-3"
     cx="21.0371"
     cy="56.209099"
     r="40.250599"
     gradientTransform="matrix(1,0,0,-1,0,66)"
     gradientUnits="userSpaceOnUse">
	<stop
   offset="0"
   style="stop-color:#FFFFFF"
   id="stop5-5-6-6" />
	<stop
   offset="1"
   style="stop-color:#C4C4C4"
   id="stop6-6-7-7" />
</radialGradient><filter
     inkscape:collect="always"
     style="color-interpolation-filters:sRGB"
     id="filter1"
     x="-0.28419303"
     y="-0.2583573"
     width="1.5683861"
     height="1.5167146"><feGaussianBlur
       inkscape:collect="always"
       stdDeviation="2.159942"
       id="feGaussianBlur1" /></filter><filter
     inkscape:collect="always"
     style="color-interpolation-filters:sRGB"
     id="filter3"
     x="-0.15769898"
     y="-0.15769898"
     width="1.315398"
     height="1.315398"><feGaussianBlur
       inkscape:collect="always"
       stdDeviation="2.0257355"
       id="feGaussianBlur3" /></filter><radialGradient
     id="SVGID_1_-3-2-5"
     cx="-162.91873"
     cy="-4.2862377"
     r="64.706802"
     gradientTransform="matrix(0.96049604,0,0,-0.92355768,167.6603,8.858166)"
     gradientUnits="userSpaceOnUse"
     fx="-162.91873"
     fy="-4.2862377">
	<stop
   offset="0"
   style="stop-color:#00e1ff;stop-opacity:1;"
   id="stop1-6-9-3" />
	<stop
   offset="1"
   style="stop-color:#009eff;stop-opacity:1;"
   id="stop2-7-1-5" />
</radialGradient></defs><sodipodi:namedview
   id="namedview7"
   pagecolor="#ffffff"
   bordercolor="#000000"
   borderopacity="0.25"
   inkscape:showpageshadow="2"
   inkscape:pageopacity="0.0"
   inkscape:pagecheckerboard="0"
   inkscape:deskcolor="#d1d1d1"
   inkscape:zoom="12.6875"
   inkscape:cx="32.591133"
   inkscape:cy="31.29064"
   inkscape:window-width="1920"
   inkscape:window-height="1020"
   inkscape:window-x="0"
   inkscape:window-y="0"
   inkscape:window-maximized="1"
   inkscape:current-layer="Layer_1" />
<style
   type="text/css"
   id="style1">
	.st0{opacity:0.2;enable-background:new    ;}
	.st1{fill:url(#SVGID_1_);}
	.st2{opacity:0.57;fill:#FFFFFF;}
	.st3{opacity:0.25;fill:url(#SVGID_2_);}
	.st4{fill:url(#SVGID_3_);}
</style>

<radialGradient
   id="SVGID_1_"
   cx="4.2903"
   cy="-2983.1494"
   r="64.7068"
   gradientTransform="matrix(1 0 0 -1 0 -2976)"
   gradientUnits="userSpaceOnUse">
	<stop
   offset="1.142015e-02"
   style="stop-color:#55A8FF"
   id="stop1" />
	<stop
   offset="1"
   style="stop-color:#9058FF"
   id="stop2" />
</radialGradient>


<path
   class="st1"
   d="m 21.957051,6.997419 h 20.039116 c 8.319812,0 15.029337,6.709525 15.029337,15.029336 v 20.039117 c 0,8.319811 -6.709525,15.029337 -15.029337,15.029337 H 21.957051 c -8.319812,0 -15.029337,-6.709526 -15.029337,-15.029337 V 22.026755 c 0,-8.319811 6.709525,-15.029336 15.029337,-15.029336 z"
   id="path2"
   style="fill:url(#SVGID_1_-3-2-5);stroke-width:0.894603" /><path
   class="st2"
   d="m 19.452162,16.838056 c -1.520827,0 -2.683811,1.252445 -2.683811,2.68381 v 25.048895 c 0,1.520826 1.162984,2.683811 2.683811,2.683811 1.520826,0 2.68381,-1.162985 2.68381,-2.683811 V 19.521866 c 0,-1.431365 -1.162984,-2.68381 -2.68381,-2.68381 z m 22.365084,15.208258 v 12.524447 c 0,1.520826 1.162985,2.683811 2.683811,2.683811 1.520825,0 2.683809,-1.162985 2.683809,-2.683811 V 32.046314 Z m -12.524447,4.473017 v 8.05143 c 0,1.520826 1.162985,2.683811 2.68381,2.683811 1.520826,0 2.68381,-1.162985 2.68381,-2.683811 v -8.05143 z"
   id="path3"
   style="opacity:0.49;fill:#ffffff;stroke-width:0.894603" /><path
   class="st2"
   d="m 18.054385,14.9699 c -1.7,0 -3,1.4 -3,3 v 28 c 0,1.7 1.3,3 3,3 1.7,0 3,-1.3 3,-3 v -28 c 0,-1.6 -1.3,-3 -3,-3 z m 25,17 v 14 c 0,1.7 1.3,3 3,3 1.7,0 3,-1.3 3,-3 v -14 z m -14,5 v 9 c 0,1.7 1.3,3 3,3 1.7,0 3,-1.3 3,-3 v -9 z"
   id="path3-9"
   style="opacity:0.603613;fill:none;stroke:#0042ff;stroke-opacity:1;filter:url(#filter3)"
   transform="matrix(0.8946034,0,0,0.8946034,3.3240399,3.39962)" /><path
   class="st0"
   d="m 31.976609,16.838056 c -1.520825,0 -2.68381,1.252445 -2.68381,2.68381 v 16.997465 h 5.36762 V 19.521866 c 0,-1.520825 -1.252445,-2.68381 -2.68381,-2.68381 z m 12.524448,0 c -1.520826,0 -2.683811,1.252445 -2.683811,2.68381 v 12.524448 h 5.36762 V 19.521866 c 0,-1.520825 -1.252444,-2.68381 -2.683809,-2.68381 z"
   id="path4"
   style="opacity:0.2;stroke-width:0.894603;enable-background:new" /><path
   class="st0"
   d="m 32.054385,14.9699 c -1.7,0 -3,1.4 -3,3 v 19 h 6 v -19 c 0,-1.7 -1.4,-3 -3,-3 z m 14,0 c -1.7,0 -3,1.4 -3,3 v 14 h 6 v -14 c 0,-1.7 -1.4,-3 -3,-3 z"
   id="path4-1"
   style="opacity:0.296699;fill:none;stroke:#000000;stroke-opacity:1;filter:url(#filter1);enable-background:new"
   transform="matrix(0.8946034,0,0,0.8946034,3.3240399,3.39962)" /><path
   class="st4"
   d="m 19.235546,16.247791 c -2.952191,0 -5.36762,2.415429 -5.36762,5.36762 0,2.952191 2.415429,5.367621 5.36762,5.367621 2.952192,0 5.367621,-2.41543 5.367621,-5.367621 0,-2.952191 -2.415429,-5.36762 -5.367621,-5.36762 z m 25.048896,9.840636 c -2.952191,0 -5.36762,2.41543 -5.36762,5.367621 0,2.952191 2.415429,5.36762 5.36762,5.36762 2.952191,0 5.367621,-2.415429 5.367621,-5.36762 0,-2.952191 -2.41543,-5.367621 -5.367621,-5.367621 z m -12.524448,4.473018 c -2.952191,0 -5.367621,2.415429 -5.367621,5.36762 0,2.952192 2.41543,5.367621 5.367621,5.367621 2.952191,0 5.36762,-2.415429 5.36762,-5.367621 0,-2.952191 -2.415429,-5.36762 -5.36762,-5.36762 z"
   id="path6-2"
   style="fill:url(#radialGradient8-5);stroke-width:0.894603" /><path
   class="st4"
   d="m 17.81225,14.310093 c -3.3,0 -6,2.7 -6,6 0,3.3 2.7,6 6,6 3.3,0 6,-2.7 6,-6 0,-3.3 -2.7,-6 -6,-6 z m 28,11 c -3.3,0 -6,2.7 -6,6 0,3.3 2.7,6 6,6 3.3,0 6,-2.7 6,-6 0,-3.3 -2.7,-6 -6,-6 z m -14,5 c -3.3,0 -6,2.7 -6,6 0,3.3 2.7,6 6,6 3.3,0 6,-2.7 6,-6 0,-3.3 -2.7,-6 -6,-6 z"
   id="path6-2-2"
   style="fill:none;stroke:#000000;stroke-width:0.223563;stroke-dasharray:none;stroke-opacity:1;filter:url(#filter2)"
   transform="matrix(0.8946034,0,0,0.8946034,3.3240399,3.39962)" /></svg>
