<?xml version="1.0" encoding="UTF-8" standalone="no"?>
<svg
   width="64"
   height="64"
   version="1"
   id="svg4"
   sodipodi:docname="systemback.svg"
   inkscape:version="1.3.2 (091e20ef0f, 2023-11-25, custom)"
   xmlns:inkscape="http://www.inkscape.org/namespaces/inkscape"
   xmlns:sodipodi="http://sodipodi.sourceforge.net/DTD/sodipodi-0.dtd"
   xmlns:xlink="http://www.w3.org/1999/xlink"
   xmlns="http://www.w3.org/2000/svg"
   xmlns:svg="http://www.w3.org/2000/svg">
  <defs
     id="defs4">
    <filter
       inkscape:collect="always"
       style="color-interpolation-filters:sRGB"
       id="filter6"
       x="-0.080195364"
       y="-0.10099208"
       width="1.1603907"
       height="1.2019842">
      <feGaussianBlur
         inkscape:collect="always"
         stdDeviation="1.3321536"
         id="feGaussianBlur6" />
    </filter>
    <filter
       inkscape:collect="always"
       style="color-interpolation-filters:sRGB"
       id="filter5"
       x="-0.12898718"
       y="-0.12898718"
       width="1.2579744"
       height="1.2579744">
      <feGaussianBlur
         inkscape:collect="always"
         stdDeviation="2.6561957"
         id="feGaussianBlur5" />
    </filter>
    <radialGradient
       inkscape:collect="always"
       xlink:href="#linearGradient4"
       id="radialGradient5"
       cx="9.2093544"
       cy="24.43586"
       fx="9.2093544"
       fy="24.43586"
       r="29"
       gradientUnits="userSpaceOnUse"
       gradientTransform="matrix(0,2.1357448,-2.1357448,0,59.020334,-13.099978)" />
    <linearGradient
       id="linearGradient4"
       inkscape:collect="always">
      <stop
         style="stop-color:#00e0ff;stop-opacity:1;"
         offset="0"
         id="stop4" />
      <stop
         style="stop-color:#0083ff;stop-opacity:1;"
         offset="1"
         id="stop5" />
    </linearGradient>
  </defs>
  <sodipodi:namedview
     id="namedview4"
     pagecolor="#ffffff"
     bordercolor="#000000"
     borderopacity="0.25"
     inkscape:showpageshadow="2"
     inkscape:pageopacity="0.0"
     inkscape:pagecheckerboard="0"
     inkscape:deskcolor="#d1d1d1"
     inkscape:zoom="13.1875"
     inkscape:cx="31.962085"
     inkscape:cy="32"
     inkscape:window-width="1920"
     inkscape:window-height="1020"
     inkscape:window-x="0"
     inkscape:window-y="0"
     inkscape:window-maximized="1"
     inkscape:current-layer="svg4" />
  <circle
     style="fill:url(#radialGradient5);stroke-width:0.872162"
     cx="32"
     cy="32"
     r="25.292706"
     id="circle2" />
  <path
     style="fill:#ffffff;stroke-width:0.872162"
     d="m 31.948897,15.428917 c -3.420729,-0.04837 -3.420729,5.237058 0,5.188684 3.331526,0 6.578412,1.4564 8.742064,3.989461 1.580841,1.850744 2.494475,4.139492 2.674404,6.520776 h -5.260229 l 3.92473,5.232973 3.92473,5.232974 3.924731,-5.232974 3.92473,-5.232973 H 48.414366 C 48.226331,27.55016 46.904345,24.093967 44.537333,21.322825 41.414534,17.666857 36.757286,15.428917 31.948897,15.428917 Z m -13.903493,6.977298 -3.924731,5.232974 -3.92473,5.232973 h 5.389691 c 0.188034,3.577678 1.510021,7.033872 3.877033,9.805013 3.122799,3.655968 7.780047,5.893908 12.588436,5.893908 3.420729,0.04837 3.420729,-5.237058 0,-5.188684 -3.331526,0 -6.578412,-1.4564 -8.742064,-3.989461 -1.580841,-1.850744 -2.494475,-4.139492 -2.674404,-6.520776 h 5.260229 l -3.92473,-5.232973 z"
     id="path3" />
  <circle
     style="fill:none;stroke:#000000;stroke-width:0.3;stroke-dasharray:none;stroke-opacity:1;filter:url(#filter5)"
     cx="32"
     cy="32"
     r="25.292706"
     id="circle2-5" />
  <path
     style="fill:none;stroke:#0003ff;stroke-width:0.3;stroke-dasharray:none;stroke-opacity:1;filter:url(#filter6)"
     d="m 31.948897,15.428918 c -3.420729,-0.04837 -3.420729,5.237057 0,5.188683 3.331526,0 6.578412,1.4564 8.742064,3.989461 1.580841,1.850745 2.494475,4.139492 2.674404,6.520776 h -5.260229 l 3.92473,5.232973 3.92473,5.232974 3.924731,-5.232974 3.92473,-5.232973 H 48.414366 C 48.226331,27.550161 46.904345,24.093967 44.537333,21.322826 41.414534,17.666857 36.757286,15.428918 31.948897,15.428918 Z m -13.903493,6.977297 -3.924731,5.232974 -3.92473,5.232973 h 5.389691 c 0.188034,3.577678 1.510021,7.033873 3.877033,9.805014 3.122799,3.655968 7.780047,5.893907 12.588436,5.893907 3.420729,0.04837 3.420729,-5.237057 0,-5.188683 -3.331526,0 -6.578412,-1.456401 -8.742064,-3.989462 -1.580841,-1.850744 -2.494475,-4.139491 -2.674404,-6.520776 h 5.260229 l -3.92473,-5.232973 z"
     id="path3-3" />
</svg>
