<?xml version="1.0" encoding="UTF-8" standalone="no"?>
<svg
   width="64"
   height="64"
   version="1.1"
   id="svg5"
   sodipodi:docname="youtube-music.svg"
   inkscape:version="1.3.2 (091e20ef0f, 2023-11-25, custom)"
   xmlns:inkscape="http://www.inkscape.org/namespaces/inkscape"
   xmlns:sodipodi="http://sodipodi.sourceforge.net/DTD/sodipodi-0.dtd"
   xmlns:xlink="http://www.w3.org/1999/xlink"
   xmlns="http://www.w3.org/2000/svg"
   xmlns:svg="http://www.w3.org/2000/svg">
  <defs
     id="defs5">
    <linearGradient
       id="linearGradient5"
       inkscape:collect="always">
      <stop
         style="stop-color:#ff646f;stop-opacity:1;"
         offset="0"
         id="stop5" />
      <stop
         style="stop-color:#ff2f3a;stop-opacity:1;"
         offset="1"
         id="stop6" />
    </linearGradient>
    <inkscape:path-effect
       effect="fillet_chamfer"
       id="path-effect5"
       is_visible="true"
       lpeversion="1"
       nodesatellites_param="F,0,0,1,0,5.6330156,0,1 @ F,0,1,1,0,5.6330156,0,1 @ F,0,1,1,0,5.6330156,0,1"
       radius="0"
       unit="px"
       method="auto"
       mode="F"
       chamfer_steps="1"
       flexible="false"
       use_knot_distance="true"
       apply_no_radius="true"
       apply_with_radius="true"
       only_selected="false"
       hide_knots="false" />
    <radialGradient
       inkscape:collect="always"
       xlink:href="#linearGradient5"
       id="radialGradient6"
       cx="1.7078747"
       cy="15.418224"
       fx="1.7078747"
       fy="15.418224"
       r="28"
       gradientUnits="userSpaceOnUse"
       gradientTransform="matrix(0,2.5912221,-2.5912222,0,47.247107,2.2928476)" />
    <inkscape:path-effect
       effect="fillet_chamfer"
       id="path-effect5-3"
       is_visible="true"
       lpeversion="1"
       nodesatellites_param="F,0,0,1,0,5.6330156,0,1 @ F,0,1,1,0,5.6330156,0,1 @ F,0,1,1,0,5.6330156,0,1"
       radius="0"
       unit="px"
       method="auto"
       mode="F"
       chamfer_steps="1"
       flexible="false"
       use_knot_distance="true"
       apply_no_radius="true"
       apply_with_radius="true"
       only_selected="false"
       hide_knots="false" />
    <filter
       inkscape:collect="always"
       style="color-interpolation-filters:sRGB"
       id="filter6"
       x="-0.06504807"
       y="-0.06504807"
       width="1.1300961"
       height="1.1300961">
      <feGaussianBlur
         inkscape:collect="always"
         stdDeviation="1.4552883"
         id="feGaussianBlur6" />
    </filter>
    <filter
       inkscape:collect="always"
       style="color-interpolation-filters:sRGB"
       id="filter7"
       x="-0.037814835"
       y="-0.037814835"
       width="1.0756297"
       height="1.0756297">
      <feGaussianBlur
         inkscape:collect="always"
         stdDeviation="0.67805403"
         id="feGaussianBlur7" />
    </filter>
    <filter
       inkscape:collect="always"
       style="color-interpolation-filters:sRGB"
       id="filter8"
       x="-0.17503798"
       y="-0.15169903"
       width="1.3496874"
       height="1.3033981">
      <feGaussianBlur
         inkscape:collect="always"
         stdDeviation="1.2019655"
         id="feGaussianBlur8" />
    </filter>
  </defs>
  <sodipodi:namedview
     id="namedview5"
     pagecolor="#505050"
     bordercolor="#eeeeee"
     borderopacity="1"
     inkscape:showpageshadow="0"
     inkscape:pageopacity="0"
     inkscape:pagecheckerboard="0"
     inkscape:deskcolor="#505050"
     inkscape:zoom="13.34375"
     inkscape:cx="34.210773"
     inkscape:cy="32.374707"
     inkscape:window-width="1920"
     inkscape:window-height="1011"
     inkscape:window-x="0"
     inkscape:window-y="0"
     inkscape:window-maximized="1"
     inkscape:current-layer="svg5" />
  <circle
     style="fill:url(#radialGradient6)"
     cx="32"
     cy="32"
     r="28"
     id="circle2" />
  <path
     style="fill:#ffffff;stroke-width:2.07997"
     d="m 38.724318,34.923412 -11.448635,6.950957 a 3.1699148,3.1699148 29.368133 0 1 -4.815031,-2.709604 v -14.32953 a 3.1699148,3.1699148 150.63187 0 1 4.815031,-2.709604 l 11.448635,6.950957 a 3.4200454,3.4200454 90 0 1 0,5.846824 z"
     id="path3"
     sodipodi:nodetypes="cccc"
     inkscape:path-effect="#path-effect5"
     inkscape:original-d="M 43.539349,32 22.460652,44.797781 V 19.202219 Z"
     transform="translate(1.8849568)" />
  <path
     style="fill:#ffffff;stroke-width:1.26312"
     d="M 32,10.527021 A 21.472979,21.472979 0 0 0 10.527021,32 21.472979,21.472979 0 0 0 32,53.472979 21.472979,21.472979 0 0 0 53.472979,32 21.472979,21.472979 0 0 0 32,10.527021 Z M 31.96546,14.31637 A 17.68363,17.68363 0 0 1 32,14.31637 17.68363,17.68363 0 0 1 49.68363,32 17.68363,17.68363 0 0 1 32,49.68363 17.68363,17.68363 0 0 1 14.31637,32 17.68363,17.68363 0 0 1 31.965462,14.31637 Z"
     id="path4" />
  <circle
     style="fill:none;stroke:#000000;stroke-width:0.3;stroke-dasharray:none;stroke-opacity:1;filter:url(#filter6)"
     cx="32"
     cy="32"
     r="28"
     id="circle2-3" />
  <path
     style="fill:none;stroke-width:0.50000001;stroke:#ff0000;stroke-opacity:1;stroke-dasharray:none;filter:url(#filter8)"
     d="m 38.724318,34.923412 -11.448635,6.950957 a 3.1699148,3.1699148 29.368133 0 1 -4.815031,-2.709604 v -14.32953 a 3.1699148,3.1699148 150.63187 0 1 4.815031,-2.709604 l 11.448635,6.950957 a 3.4200454,3.4200454 90 0 1 0,5.846824 z"
     id="path3-5"
     sodipodi:nodetypes="cccc"
     inkscape:path-effect="#path-effect5-3"
     inkscape:original-d="M 43.539349,32 22.460652,44.797781 V 19.202219 Z"
     transform="translate(1.8846092,-0.02437976)" />
  <path
     style="fill:none;stroke:#ff0000;stroke-width:0.2;stroke-dasharray:none;stroke-opacity:1;filter:url(#filter7)"
     d="M 31.999999,9.160686 A 22.839313,22.839313 0 0 0 9.1606861,31.999999 22.839313,22.839313 0 0 0 31.999999,54.839312 22.839313,22.839313 0 0 0 54.839312,31.999999 22.839313,22.839313 0 0 0 31.999999,9.160686 Z m -0.03674,4.030467 a 18.808846,18.808846 0 0 1 0.03674,0 A 18.808846,18.808846 0 0 1 50.808845,31.999999 18.808846,18.808846 0 0 1 31.999999,50.808845 18.808846,18.808846 0 0 1 13.191153,31.999999 18.808846,18.808846 0 0 1 31.963263,13.191153 Z"
     id="path4-6"
     transform="matrix(0.94017622,0,0,0.94017622,1.9143608,1.9143608)" />
</svg>
