<?xml version="1.0" encoding="UTF-8" standalone="no"?>
<svg
   width="64"
   height="64"
   version="1"
   id="svg7"
   sodipodi:docname="youtube-dl.svg"
   inkscape:version="1.3.2 (091e20ef0f, 2023-11-25, custom)"
   xmlns:inkscape="http://www.inkscape.org/namespaces/inkscape"
   xmlns:sodipodi="http://sodipodi.sourceforge.net/DTD/sodipodi-0.dtd"
   xmlns:xlink="http://www.w3.org/1999/xlink"
   xmlns="http://www.w3.org/2000/svg"
   xmlns:svg="http://www.w3.org/2000/svg">
  <defs
     id="defs7">
    <linearGradient
       id="linearGradient10"
       inkscape:collect="always">
      <stop
         style="stop-color:#03ddf4;stop-opacity:1;"
         offset="0"
         id="stop10" />
      <stop
         style="stop-color:#03a9f4;stop-opacity:1;"
         offset="1"
         id="stop11" />
    </linearGradient>
    <inkscape:path-effect
       effect="fillet_chamfer"
       id="path-effect7"
       is_visible="true"
       lpeversion="1"
       nodesatellites_param="F,0,1,1,0,1.4781616,0,1 @ F,0,0,1,0,1.6611394,0,1 @ F,0,0,1,0,2.2077362,0,1 @ F,0,0,1,0,2.2077362,0,1 @ F,0,0,1,0,2.2077362,0,1 @ F,0,0,1,0,1.6611394,0,1 @ F,0,0,1,0,1.4781616,0,1"
       radius="0"
       unit="px"
       method="auto"
       mode="F"
       chamfer_steps="1"
       flexible="false"
       use_knot_distance="true"
       apply_no_radius="true"
       apply_with_radius="true"
       only_selected="false"
       hide_knots="false" />
    <filter
       inkscape:collect="always"
       style="color-interpolation-filters:sRGB"
       id="filter8"
       x="-0.232819"
       y="-0.21484291"
       width="1.465307"
       height="1.4296876">
      <feGaussianBlur
         inkscape:collect="always"
         stdDeviation="1.0810727"
         id="feGaussianBlur8" />
    </filter>
    <inkscape:path-effect
       effect="fillet_chamfer"
       id="path-effect5-3"
       is_visible="true"
       lpeversion="1"
       nodesatellites_param="F,0,1,1,0,3.9720929,0,1 @ F,0,1,1,0,3.9720929,0,1 @ F,0,1,1,0,3.9720929,0,1"
       radius="0"
       unit="px"
       method="auto"
       mode="F"
       chamfer_steps="1"
       flexible="false"
       use_knot_distance="true"
       apply_no_radius="true"
       apply_with_radius="true"
       only_selected="false"
       hide_knots="false" />
    <filter
       inkscape:collect="always"
       style="color-interpolation-filters:sRGB"
       id="filter7"
       x="-0.096541876"
       y="-0.13515956"
       width="1.1931199"
       height="1.2703241">
      <feGaussianBlur
         inkscape:collect="always"
         stdDeviation="1.9426019"
         id="feGaussianBlur7" />
    </filter>
    <inkscape:path-effect
       effect="fillet_chamfer"
       id="path-effect5"
       is_visible="true"
       lpeversion="1"
       nodesatellites_param="F,0,0,1,0,3.9204598,0,1 @ F,0,1,1,0,3.9204598,0,1 @ F,0,1,1,0,3.9204598,0,1"
       radius="0"
       unit="px"
       method="auto"
       mode="F"
       chamfer_steps="1"
       flexible="false"
       use_knot_distance="true"
       apply_no_radius="true"
       apply_with_radius="true"
       only_selected="false"
       hide_knots="false" />
    <radialGradient
       inkscape:collect="always"
       xlink:href="#linearGradient5"
       id="radialGradient6"
       cx="7.5437222"
       cy="10.500487"
       fx="7.5437222"
       fy="10.500487"
       r="28"
       gradientTransform="matrix(1.8228986,1.052451,-0.75175072,1.3020705,2.7480686,-4.3016826)"
       gradientUnits="userSpaceOnUse" />
    <linearGradient
       id="linearGradient5"
       inkscape:collect="always">
      <stop
         style="stop-color:#ff5f58;stop-opacity:1;"
         offset="0"
         id="stop5" />
      <stop
         style="stop-color:#ff3030;stop-opacity:1;"
         offset="1"
         id="stop6" />
    </linearGradient>
    <inkscape:path-effect
       effect="fillet_chamfer"
       id="path-effect7-3"
       is_visible="true"
       lpeversion="1"
       nodesatellites_param="F,0,1,1,0,1.4781616,0,1 @ F,0,0,1,0,1.6611394,0,1 @ F,0,0,1,0,2.2077362,0,1 @ F,0,0,1,0,2.2077362,0,1 @ F,0,0,1,0,2.2077362,0,1 @ F,0,0,1,0,1.6611394,0,1 @ F,0,0,1,0,1.4781616,0,1"
       radius="0"
       unit="px"
       method="auto"
       mode="F"
       chamfer_steps="1"
       flexible="false"
       use_knot_distance="true"
       apply_no_radius="true"
       apply_with_radius="true"
       only_selected="false"
       hide_knots="false" />
    <filter
       inkscape:collect="always"
       style="color-interpolation-filters:sRGB"
       id="filter9"
       x="-0.1308592"
       y="-0.1308592"
       width="1.2617184"
       height="1.2617184">
      <feGaussianBlur
         inkscape:collect="always"
         stdDeviation="1.1633138"
         id="feGaussianBlur9" />
    </filter>
    <filter
       inkscape:collect="always"
       style="color-interpolation-filters:sRGB"
       id="filter10"
       x="-0.173166"
       y="-0.13506098"
       width="1.346332"
       height="1.2700537">
      <feGaussianBlur
         inkscape:collect="always"
         stdDeviation="1.1779193"
         id="feGaussianBlur10" />
    </filter>
    <radialGradient
       inkscape:collect="always"
       xlink:href="#linearGradient10"
       id="radialGradient11"
       cx="31.739626"
       cy="40.425404"
       fx="31.739626"
       fy="40.425404"
       r="11.049865"
       gradientUnits="userSpaceOnUse"
       gradientTransform="matrix(0.61030585,2.2776924,-2.2776926,0.6103059,105.0939,-62.565923)" />
  </defs>
  <sodipodi:namedview
     id="namedview7"
     pagecolor="#505050"
     bordercolor="#eeeeee"
     borderopacity="1"
     inkscape:showpageshadow="0"
     inkscape:pageopacity="0"
     inkscape:pagecheckerboard="0"
     inkscape:deskcolor="#505050"
     inkscape:zoom="6.671875"
     inkscape:cx="4.2716628"
     inkscape:cy="27.87822"
     inkscape:window-width="1920"
     inkscape:window-height="1011"
     inkscape:window-x="0"
     inkscape:window-y="0"
     inkscape:window-maximized="1"
     inkscape:current-layer="svg7" />
  <path
     style="fill:url(#radialGradient6);stroke-width:0.956574"
     d="m 27.595304,51.097089 c -8.85397,-0.171719 -12.447668,-0.32334 -14.645195,-0.617894 -1.61153,-0.216017 -2.402946,-0.426609 -3.2955394,-0.876931 -1.474221,-0.74375 -2.391067,-1.780869 -3.052727,-3.453189 -0.604945,-1.528929 -0.851265,-2.743287 -1.077322,-5.31129 -0.255105,-2.898007 -0.275046,-3.42265 -0.301536,-7.937966 -0.031206,-5.310023 0.031611,-7.050071 0.38107,-10.574577 0.183258,-1.847726 0.450349,-3.075695 0.952215,-4.377876 0.457057,-1.185872 0.874339,-1.84034 1.633226,-2.561559 0.95378,-0.906438 2.0012654,-1.457461 3.3236224,-1.748344 1.97377,-0.434181 10.894915,-0.768942 20.491488,-0.768942 9.59657,0 18.517716,0.334761 20.491486,0.768942 1.427416,0.313998 2.475048,0.893984 3.497208,1.936107 0.800014,0.815635 1.21206,1.556773 1.702409,3.062177 0.505255,1.551144 0.699024,2.923895 0.986123,6.986168 0.13633,1.929114 0.136311,10.809468 0,12.737634 -0.159518,2.255651 -0.355265,4.264365 -0.485609,4.983121 -0.335096,1.847891 -0.993234,3.578027 -1.735246,4.561723 -0.509084,0.674893 -1.514049,1.479037 -2.354413,1.883932 -0.850943,0.409996 -1.661684,0.613257 -2.968678,0.744319 -4.050033,0.40612 -16.417525,0.702646 -23.542528,0.564445 z"
     id="path2" />
  <path
     style="fill:#ffffff"
     d="m 37.600533,30.069435 -7.162371,-4.115867 a 2.2702844,2.2702844 149.95843 0 0 -3.401439,1.967114 l -0.0047,8.144533 a 2.2764427,2.2764427 30.174871 0 0 3.403747,1.97903 l 7.157931,-4.080036 a 2.243775,2.243775 90.100328 0 0 0.0068,-3.894774 z"
     id="path4"
     inkscape:path-effect="#path-effect5"
     inkscape:original-d="m 40.999716,32.02278 -13.960737,-8.022557 -0.0092,15.985451 z"
     sodipodi:nodetypes="cccc"
     transform="matrix(1.2385531,0,0,1.2385531,-8.7226322,-7.6303997)" />
  <path
     style="mix-blend-mode:normal;fill:none;stroke:#000000;stroke-width:0.4;stroke-dasharray:none;stroke-opacity:1;filter:url(#filter7)"
     d="M 27.858788,49.954722 C 19.534453,49.793275 16.155726,49.650724 14.089653,49.37379 12.574523,49.170695 11.830449,48.9727 10.99125,48.549316 9.6052148,47.850056 8.7432138,46.874977 8.1211338,45.302693 c -0.568758,-1.43747 -0.800343,-2.579186 -1.012878,-4.993574 -0.239845,-2.724652 -0.258593,-3.217911 -0.283498,-7.463126 -0.02934,-4.992383 0.02972,-6.628343 0.358275,-9.942017 0.172295,-1.737197 0.423409,-2.89171 0.895254,-4.115996 0.429716,-1.114934 0.822037,-1.730253 1.535528,-2.408329 0.8967262,-0.852216 1.8815512,-1.370277 3.1248062,-1.64376 1.855702,-0.408209 10.243193,-0.722945 19.265709,-0.722945 9.022514,0 17.410006,0.314736 19.265707,0.722945 1.34203,0.295215 2.326994,0.840507 3.288009,1.820291 0.752158,0.766845 1.139556,1.463649 1.600573,2.879001 0.475031,1.458356 0.657209,2.748991 0.927134,6.568263 0.128175,1.813716 0.128157,10.162857 0,11.975682 -0.149976,2.120721 -0.334013,4.009275 -0.45656,4.685036 -0.315051,1.737352 -0.93382,3.363993 -1.631446,4.288846 -0.478631,0.634521 -1.42348,1.390562 -2.213574,1.771237 -0.800041,0.38547 -1.562284,0.576573 -2.791095,0.699795 -3.807764,0.381826 -15.435446,0.660614 -22.134239,0.53068 z"
     id="path2-3"
     transform="matrix(1.0636249,0,0,1.0636249,-2.0369648,-2.036092)" />
  <path
     style="mix-blend-mode:normal;fill:none;stroke:#ff0002;stroke-width:0.242218;stroke-dasharray:none;stroke-opacity:1;filter:url(#filter8)"
     d="M 37.555765,30.043709 30.48293,25.979294 a 2.3001845,2.3001845 149.95843 0 0 -3.446237,1.993021 l -0.0046,8.041267 a 2.3064238,2.3064238 30.174871 0 0 3.448575,2.005094 l 7.068215,-4.028898 a 2.2733258,2.2733258 90.100328 0 0 0.0069,-3.946069 z"
     id="path4-5"
     inkscape:path-effect="#path-effect5-3"
     inkscape:original-d="m 40.999716,32.02278 -13.960737,-8.022557 -0.0092,15.985451 z"
     sodipodi:nodetypes="cccc"
     transform="matrix(1.2385531,0,0,1.2385531,-8.7017181,-7.6304853)" />
  <circle
     style="fill:url(#radialGradient11);stroke-width:0.736658"
     cx="48.989407"
     cy="45.981453"
     r="11.049865"
     id="circle6" />
  <path
     style="fill:#ffffff;stroke-width:1.52567"
     d="m 52.466,37.182164 0,8.340164 a 1.6611757,1.6611757 45.000626 0 0 1.661139,1.661175 l 2.398085,5.3e-5 a 1.022644,1.022644 65.14724 0 1 0.779994,1.683987 l -6.877476,8.111585 a 1.8718478,1.8718478 0 0 1 -2.855484,0 l -6.877476,-8.111585 a 1.0226147,1.0226147 114.85339 0 1 0.779994,-1.683939 h 2.398085 A 1.6611394,1.6611394 135 0 0 45.534,45.522465 l 0,-8.340164 a 1.4781908,1.4781908 134.99943 0 1 1.478162,-1.478191 l 3.975676,-7.9e-5 A 1.4781324,1.4781324 44.999434 0 1 52.466,37.182164 Z"
     id="path7"
     sodipodi:nodetypes="cccccccc"
     inkscape:path-effect="#path-effect7"
     inkscape:original-d="m 52.466,35.704002 v 11.479465 l 6.26696,1.37e-4 L 49,58.663067 39.26704,47.183604 H 45.534 V 35.704139 Z"
     transform="matrix(0.73665767,0,0,0.73665767,12.907123,12.083786)" />
  <circle
     style="fill:none;stroke:#000000;stroke-width:0.2;stroke-opacity:1;stroke-dasharray:none;filter:url(#filter9)"
     cx="49.012718"
     cy="45.966606"
     r="11.049865"
     id="circle6-6" />
  <path
     style="fill:none;stroke:#0018ff;stroke-width:0.27149653;stroke-dasharray:none;stroke-opacity:1;filter:url(#filter10)"
     d="m 52.466,37.182164 0,8.340164 a 1.6611757,1.6611757 45.000626 0 0 1.661139,1.661175 l 2.398085,5.3e-5 a 1.022644,1.022644 65.14724 0 1 0.779994,1.683987 l -6.877476,8.111585 a 1.8718478,1.8718478 0 0 1 -2.855484,0 l -6.877476,-8.111585 a 1.0226147,1.0226147 114.85339 0 1 0.779994,-1.683939 h 2.398085 A 1.6611394,1.6611394 135 0 0 45.534,45.522465 l 0,-8.340164 a 1.4781908,1.4781908 134.99943 0 1 1.478162,-1.478191 l 3.975676,-7.9e-5 A 1.4781324,1.4781324 44.999434 0 1 52.466,37.182164 Z"
     id="path7-7"
     sodipodi:nodetypes="cccccccc"
     inkscape:path-effect="#path-effect7-3"
     inkscape:original-d="m 52.466,35.704002 v 11.479465 l 6.26696,1.37e-4 L 49,58.663067 39.26704,47.183604 H 45.534 V 35.704139 Z"
     transform="matrix(0.73665767,0,0,0.73665767,12.922391,12.059185)" />
</svg>
