<?xml version="1.0" encoding="UTF-8" standalone="no"?>
<svg
   width="64"
   height="64"
   version="1.1"
   id="svg3"
   sodipodi:docname="zint.svg"
   inkscape:version="1.3.2 (091e20ef0f, 2023-11-25, custom)"
   xmlns:inkscape="http://www.inkscape.org/namespaces/inkscape"
   xmlns:sodipodi="http://sodipodi.sourceforge.net/DTD/sodipodi-0.dtd"
   xmlns:xlink="http://www.w3.org/1999/xlink"
   xmlns="http://www.w3.org/2000/svg"
   xmlns:svg="http://www.w3.org/2000/svg">
  <defs
     id="defs3">
    <inkscape:path-effect
       effect="fillet_chamfer"
       id="path-effect3"
       is_visible="true"
       lpeversion="1"
       nodesatellites_param="F,0,0,1,0,6.4936602,0,1 @ F,0,0,1,0,6.4936602,0,1 @ F,0,0,1,0,1.1671347,0,1 @ F,0,0,1,0,0,0,1 @ F,0,0,1,0,0,0,1 @ F,0,0,1,0,2.7882734,0,1 @ F,0,0,1,0,2.7704762,0,1 @ F,0,0,1,0,0,0,1 @ F,0,0,1,0,0,0,1 @ F,0,0,1,0,0,0,1 @ F,0,0,1,0,0,0,1 @ F,0,0,1,0,13.396022,0,1 | F,0,0,1,0,0,0,1 @ F,0,0,1,0,0,0,1 @ F,0,0,1,0,0,0,1 @ F,0,0,1,0,0,0,1 | F,0,0,1,0,0,0,1 @ F,0,0,1,0,0,0,1 @ F,0,0,1,0,0,0,1 @ F,0,0,1,0,0,0,1 @ F,0,0,1,0,13.396022,0,1 @ F,0,0,1,0,6.4936602,0,1 @ F,0,0,1,0,6.4936602,0,1 @ F,0,0,1,0,1.1671347,0,1 @ F,0,0,1,0,0,0,1 @ F,0,0,1,0,0,0,1 @ F,0,1,1,0,2.7704762,0,1 @ F,0,0,1,0,2.7882734,0,1"
       radius="0"
       unit="px"
       method="auto"
       mode="F"
       chamfer_steps="1"
       flexible="false"
       use_knot_distance="true"
       apply_no_radius="true"
       apply_with_radius="true"
       only_selected="false"
       hide_knots="false" />
    <inkscape:path-effect
       effect="fillet_chamfer"
       id="path-effect3-5"
       is_visible="true"
       lpeversion="1"
       nodesatellites_param="F,0,0,1,0,6.4936602,0,1 @ F,0,0,1,0,6.4936602,0,1 @ F,0,0,1,0,1.1671347,0,1 @ F,0,0,1,0,0,0,1 @ F,0,0,1,0,0,0,1 @ F,0,0,1,0,2.7882734,0,1 @ F,0,0,1,0,2.7704762,0,1 @ F,0,0,1,0,0,0,1 @ F,0,0,1,0,0,0,1 @ F,0,0,1,0,0,0,1 @ F,0,0,1,0,0,0,1 @ F,0,0,1,0,13.396022,0,1 | F,0,0,1,0,0,0,1 @ F,0,0,1,0,0,0,1 @ F,0,0,1,0,0,0,1 @ F,0,0,1,0,0,0,1 | F,0,0,1,0,0,0,1 @ F,0,0,1,0,0,0,1 @ F,0,0,1,0,0,0,1 @ F,0,0,1,0,0,0,1 @ F,0,0,1,0,13.396022,0,1 @ F,0,0,1,0,6.4936602,0,1 @ F,0,0,1,0,6.4936602,0,1 @ F,0,0,1,0,1.1671347,0,1 @ F,0,0,1,0,0,0,1 @ F,0,0,1,0,0,0,1 @ F,0,1,1,0,2.7704762,0,1 @ F,0,0,1,0,2.7882734,0,1"
       radius="0"
       unit="px"
       method="auto"
       mode="F"
       chamfer_steps="1"
       flexible="false"
       use_knot_distance="true"
       apply_no_radius="true"
       apply_with_radius="true"
       only_selected="false"
       hide_knots="false" />
    <filter
       inkscape:collect="always"
       style="color-interpolation-filters:sRGB"
       id="filter2"
       x="-0.14860497"
       y="-0.14860497"
       width="1.2972099"
       height="1.2972099">
      <feGaussianBlur
         inkscape:collect="always"
         stdDeviation="2.9304707"
         id="feGaussianBlur2" />
    </filter>
    <radialGradient
       inkscape:collect="always"
       xlink:href="#linearGradient1"
       id="radialGradient2"
       cx="5.7362175"
       cy="6.4111042"
       fx="5.7362175"
       fy="6.4111042"
       r="28"
       gradientUnits="userSpaceOnUse"
       gradientTransform="matrix(0,2.316552,-2.316552,0,23.708357,-3.8368437)" />
    <linearGradient
       id="linearGradient1"
       inkscape:collect="always">
      <stop
         style="stop-color:#00dcff;stop-opacity:1;"
         offset="0"
         id="stop1" />
      <stop
         style="stop-color:#0097ff;stop-opacity:1;"
         offset="1"
         id="stop2" />
    </linearGradient>
    <inkscape:path-effect
       effect="fillet_chamfer"
       id="path-effect3-3"
       is_visible="true"
       lpeversion="1"
       nodesatellites_param="F,0,0,1,0,6.4936602,0,1 @ F,0,0,1,0,6.4936602,0,1 @ F,0,0,1,0,1.1671347,0,1 @ F,0,0,1,0,0,0,1 @ F,0,0,1,0,0,0,1 @ F,0,0,1,0,2.7882734,0,1 @ F,0,0,1,0,2.7704762,0,1 @ F,0,0,1,0,0,0,1 @ F,0,0,1,0,0,0,1 @ F,0,0,1,0,0,0,1 @ F,0,0,1,0,0,0,1 @ F,0,0,1,0,13.396022,0,1 | F,0,0,1,0,0,0,1 @ F,0,0,1,0,0,0,1 @ F,0,0,1,0,0,0,1 @ F,0,0,1,0,0,0,1 | F,0,0,1,0,0,0,1 @ F,0,0,1,0,0,0,1 @ F,0,0,1,0,0,0,1 @ F,0,0,1,0,0,0,1 @ F,0,0,1,0,13.396022,0,1 @ F,0,0,1,0,6.4936602,0,1 @ F,0,0,1,0,6.4936602,0,1 @ F,0,0,1,0,1.1671347,0,1 @ F,0,0,1,0,0,0,1 @ F,0,0,1,0,0,0,1 @ F,0,1,1,0,2.7704762,0,1 @ F,0,0,1,0,2.7882734,0,1"
       radius="0"
       unit="px"
       method="auto"
       mode="F"
       chamfer_steps="1"
       flexible="false"
       use_knot_distance="true"
       apply_no_radius="true"
       apply_with_radius="true"
       only_selected="false"
       hide_knots="false" />
    <filter
       inkscape:collect="always"
       style="color-interpolation-filters:sRGB"
       id="filter1"
       x="-0.090156201"
       y="-0.090156201"
       width="1.1803124"
       height="1.1803124">
      <feGaussianBlur
         inkscape:collect="always"
         stdDeviation="1.9965807"
         id="feGaussianBlur1" />
    </filter>
  </defs>
  <sodipodi:namedview
     id="namedview3"
     pagecolor="#ffffff"
     bordercolor="#000000"
     borderopacity="0.25"
     inkscape:showpageshadow="2"
     inkscape:pageopacity="0.0"
     inkscape:pagecheckerboard="0"
     inkscape:deskcolor="#d1d1d1"
     inkscape:zoom="9.3938498"
     inkscape:cx="25.921215"
     inkscape:cy="23.10022"
     inkscape:window-width="1920"
     inkscape:window-height="1020"
     inkscape:window-x="0"
     inkscape:window-y="0"
     inkscape:window-maximized="1"
     inkscape:current-layer="svg3" />
  <path
     id="rect2"
     style="fill:url(#radialGradient2);stroke-width:0.881187"
     d="m 22.67204,7.3267689 h 18.65592 c 8.50128,0 15.345271,6.8439911 15.345271,15.3452711 v 18.65592 c 0,8.50128 -6.843991,15.345271 -15.345271,15.345271 H 22.67204 c -8.50128,0 -15.3452711,-6.843991 -15.3452711,-15.345271 V 22.67204 c 0,-8.50128 6.8439911,-15.3452712 15.3452711,-15.3452711 z" />
  <path
     id="rect2-5"
     style="fill:none;stroke:#000000;stroke-width:0.6;stroke-dasharray:none;stroke-opacity:1;filter:url(#filter2)"
     d="m 22.672042,7.3267711 h 18.65592 c 8.50128,0 15.345271,6.8439909 15.345271,15.3452709 v 18.65592 c 0,8.50128 -6.843991,15.345271 -15.345271,15.345271 h -18.65592 c -8.50128,0 -15.3452709,-6.843991 -15.3452709,-15.345271 v -18.65592 c 0,-8.50128 6.8439909,-15.3452709 15.3452709,-15.3452709 z" />
  <path
     style="fill:#ffffff;fill-opacity:1"
     d="m 4,10.49366 v 0.01268 A 6.4936602,6.4936602 45 0 0 10.49366,17 H 45.832865 A 1.1671347,1.1671347 45 0 1 47,18.167135 v 5.432474 c 0,1.655556 -0.545422,1.965264 -1.173828,2.248047 -0.01738,0.0051 -0.03478,0.01005 -0.05221,0.01488 C 44.295622,26.271614 43,27.248353 43,28.788273 v 6.441251 A 2.7704762,2.7704762 45 0 0 45.770476,38 h 3.030305 c 0.01889,-2.69e-4 0.03778,-9.2e-4 0.05664,-0.002 0,0 2.74022,-0.09504 5.507812,-1.591797 C 57.132828,34.909538 60,31.767057 60,26.400391 V 17.396022 A 13.396022,13.396022 45 0 0 46.603978,4 H 10.49366 A 6.4936602,6.4936602 135 0 0 4,10.49366 Z M 32,25 c -3.865993,0 -7,3.134007 -7,7 0,3.865993 3.134007,7 7,7 3.865993,0 7,-3.134007 7,-7 0,-3.865993 -3.134007,-7 -7,-7 z m -16.800781,1 c -0.01889,2.69e-4 -0.03778,9.2e-4 -0.05664,0.002 0,0 -2.74022,0.09504 -5.5078124,1.591797 C 6.8671724,29.090462 4,32.232943 4,37.599609 v 9.004369 A 13.396022,13.396022 45 0 0 17.396022,60 H 53.50634 A 6.4936602,6.4936602 135 0 0 60,53.50634 V 53.49366 A 6.4936602,6.4936602 45 0 0 53.50634,47 L 18.167135,47 A 1.1671347,1.1671347 45 0 1 17,45.832865 v -5.432474 c 0,-1.655556 0.545422,-1.965264 1.173828,-2.248047 0.02308,-0.0068 0.04621,-0.01329 0.06937,-0.01958 C 19.714295,37.733538 21,36.759616 21,35.229524 V 28.788273 A 2.7882734,2.7882734 45 0 0 18.211727,26 Z"
     id="path2"
     sodipodi:nodetypes="cccsscccccsccssssscccsccccssccc"
     inkscape:path-effect="#path-effect3"
     inkscape:original-d="m 4,4 v 13 h 43 v 6.599609 c 0,1.655556 -0.545422,1.965264 -1.173828,2.248047 C 44.91843,26.113911 43.944339,26 43,26 v 12 h 5.800781 c 0.01889,-2.69e-4 0.03778,-9.2e-4 0.05664,-0.002 0,0 2.74022,-0.09504 5.507812,-1.591797 C 57.132828,34.909538 60,31.767057 60,26.400391 V 4 Z m 28,21 c -3.865993,0 -7,3.134007 -7,7 0,3.865993 3.134007,7 7,7 3.865993,0 7,-3.134007 7,-7 0,-3.865993 -3.134007,-7 -7,-7 z m -16.800781,1 c -0.01889,2.69e-4 -0.03778,9.2e-4 -0.05664,0.002 0,0 -2.74022,0.09504 -5.5078124,1.591797 C 6.8671724,29.090462 4,32.232943 4,37.599609 V 60 H 60 V 47 H 17 v -6.599609 c 0,-1.655556 0.545422,-1.965264 1.173828,-2.248047 C 19.08157,37.886089 20.055661,38 21,38 V 26 Z"
     transform="matrix(0.58376318,0,0,0.58376318,13.319578,13.319578)" />
  <path
     style="fill:none;fill-opacity:1;stroke:#2100ff;stroke-opacity:1;stroke-width:0.51390699;stroke-dasharray:none;filter:url(#filter1)"
     d="m 4,10.49366 v 0.01268 A 6.4936602,6.4936602 45 0 0 10.49366,17 H 45.832865 A 1.1671347,1.1671347 45 0 1 47,18.167135 v 5.432474 c 0,1.655556 -0.545422,1.965264 -1.173828,2.248047 -0.01738,0.0051 -0.03478,0.01005 -0.05221,0.01488 C 44.295622,26.271614 43,27.248353 43,28.788273 v 6.441251 A 2.7704762,2.7704762 45 0 0 45.770476,38 h 3.030305 c 0.01889,-2.69e-4 0.03778,-9.2e-4 0.05664,-0.002 0,0 2.74022,-0.09504 5.507812,-1.591797 C 57.132828,34.909538 60,31.767057 60,26.400391 V 17.396022 A 13.396022,13.396022 45 0 0 46.603978,4 H 10.49366 A 6.4936602,6.4936602 135 0 0 4,10.49366 Z M 32,25 c -3.865993,0 -7,3.134007 -7,7 0,3.865993 3.134007,7 7,7 3.865993,0 7,-3.134007 7,-7 0,-3.865993 -3.134007,-7 -7,-7 z m -16.800781,1 c -0.01889,2.69e-4 -0.03778,9.2e-4 -0.05664,0.002 0,0 -2.74022,0.09504 -5.5078124,1.591797 C 6.8671724,29.090462 4,32.232943 4,37.599609 v 9.004369 A 13.396022,13.396022 45 0 0 17.396022,60 H 53.50634 A 6.4936602,6.4936602 135 0 0 60,53.50634 V 53.49366 A 6.4936602,6.4936602 45 0 0 53.50634,47 L 18.167135,47 A 1.1671347,1.1671347 45 0 1 17,45.832865 v -5.432474 c 0,-1.655556 0.545422,-1.965264 1.173828,-2.248047 0.02308,-0.0068 0.04621,-0.01329 0.06937,-0.01958 C 19.714295,37.733538 21,36.759616 21,35.229524 V 28.788273 A 2.7882734,2.7882734 45 0 0 18.211727,26 Z"
     id="path2-6"
     sodipodi:nodetypes="cccsscccccsccssssscccsccccssccc"
     inkscape:path-effect="#path-effect3-3"
     inkscape:original-d="m 4,4 v 13 h 43 v 6.599609 c 0,1.655556 -0.545422,1.965264 -1.173828,2.248047 C 44.91843,26.113911 43.944339,26 43,26 v 12 h 5.800781 c 0.01889,-2.69e-4 0.03778,-9.2e-4 0.05664,-0.002 0,0 2.74022,-0.09504 5.507812,-1.591797 C 57.132828,34.909538 60,31.767057 60,26.400391 V 4 Z m 28,21 c -3.865993,0 -7,3.134007 -7,7 0,3.865993 3.134007,7 7,7 3.865993,0 7,-3.134007 7,-7 0,-3.865993 -3.134007,-7 -7,-7 z m -16.800781,1 c -0.01889,2.69e-4 -0.03778,9.2e-4 -0.05664,0.002 0,0 -2.74022,0.09504 -5.5078124,1.591797 C 6.8671724,29.090462 4,32.232943 4,37.599609 V 60 H 60 V 47 H 17 v -6.599609 c 0,-1.655556 0.545422,-1.965264 1.173828,-2.248047 C 19.08157,37.886089 20.055661,38 21,38 V 26 Z"
     transform="matrix(0.58376318,0,0,0.58376318,13.319578,13.319578)" />
</svg>
