<?xml version="1.0" encoding="UTF-8" standalone="no"?>
<svg
   width="64"
   height="64"
   version="1"
   id="svg6"
   sodipodi:docname="zuluCrypt.svg"
   inkscape:version="1.3.2 (091e20ef0f, 2023-11-25, custom)"
   xmlns:inkscape="http://www.inkscape.org/namespaces/inkscape"
   xmlns:sodipodi="http://sodipodi.sourceforge.net/DTD/sodipodi-0.dtd"
   xmlns:xlink="http://www.w3.org/1999/xlink"
   xmlns="http://www.w3.org/2000/svg"
   xmlns:svg="http://www.w3.org/2000/svg">
  <defs
     id="defs6">
    <inkscape:path-effect
       effect="fillet_chamfer"
       id="path-effect1"
       is_visible="true"
       lpeversion="1"
       nodesatellites_param="F,0,0,1,0,0,0,1 @ F,0,0,1,0,0,0,1 @ F,0,0,1,0,0,0,1 @ F,0,0,1,0,0,0,1 @ F,0,0,1,0,0,0,1 @ F,0,0,1,0,0,0,1 @ F,0,0,1,0,0,0,1 @ F,0,0,1,0,0,0,1 @ F,0,0,1,0,0,0,1 @ F,0,0,1,0,0,0,1 @ F,0,0,1,0,0,0,1 @ F,0,0,1,0,0,0,1 @ F,0,0,1,0,0,0,1 @ F,0,0,1,0,0,0,1 @ F,0,0,1,0,0,0,1 @ F,0,0,1,0,4.6611015,0,1 @ F,0,0,1,0,0,0,1 @ F,0,0,1,0,0,0,1 @ F,0,0,1,0,0,0,1 @ F,0,0,1,0,0,0,1 @ F,0,0,1,0,0,0,1 @ F,0,0,1,0,0,0,1 @ F,0,0,1,0,0,0,1 @ F,0,0,1,0,0,0,1 @ F,0,0,1,0,0,0,1 @ F,0,0,1,0,0,0,1 @ F,0,0,1,0,0,0,1 @ F,0,0,1,0,0,0,1 @ F,0,0,1,0,0,0,1 @ F,0,0,1,0,0,0,1"
       radius="0"
       unit="px"
       method="auto"
       mode="F"
       chamfer_steps="1"
       flexible="false"
       use_knot_distance="true"
       apply_no_radius="true"
       apply_with_radius="true"
       only_selected="false"
       hide_knots="false" />
    <filter
       inkscape:collect="always"
       style="color-interpolation-filters:sRGB"
       id="filter8"
       x="-0.11496178"
       y="-0.11496178"
       width="1.2299236"
       height="1.2299236">
      <feGaussianBlur
         inkscape:collect="always"
         stdDeviation="2.6150016"
         id="feGaussianBlur8" />
    </filter>
    <inkscape:path-effect
       effect="fillet_chamfer"
       id="path-effect6-1"
       is_visible="true"
       lpeversion="1"
       nodesatellites_param="F,0,1,1,0,15.049302,0,1 @ F,0,1,1,0,15.049302,0,1 @ F,0,0,1,0,15.049302,0,1 @ F,0,1,1,0,15.049302,0,1"
       radius="0"
       unit="px"
       method="auto"
       mode="F"
       chamfer_steps="1"
       flexible="false"
       use_knot_distance="true"
       apply_no_radius="true"
       apply_with_radius="true"
       only_selected="false"
       hide_knots="false" />
    <radialGradient
       inkscape:collect="always"
       xlink:href="#linearGradient8"
       id="radialGradient9"
       cx="6.8583097"
       cy="8.2839613"
       fx="6.8583097"
       fy="8.2839613"
       r="28"
       gradientUnits="userSpaceOnUse"
       gradientTransform="matrix(0.5881976,2.1951833,-2.1951833,0.5881976,21.009082,-11.643892)" />
    <linearGradient
       id="linearGradient8"
       inkscape:collect="always">
      <stop
         style="stop-color:#ee4343;stop-opacity:1;"
         offset="0"
         id="stop8" />
      <stop
         style="stop-color:#ef3d52;stop-opacity:1;"
         offset="1"
         id="stop9" />
    </linearGradient>
    <inkscape:path-effect
       effect="fillet_chamfer"
       id="path-effect6"
       is_visible="true"
       lpeversion="1"
       nodesatellites_param="F,0,1,1,0,15.049302,0,1 @ F,0,1,1,0,15.049302,0,1 @ F,0,0,1,0,15.049302,0,1 @ F,0,1,1,0,15.049302,0,1"
       radius="0"
       unit="px"
       method="auto"
       mode="F"
       chamfer_steps="1"
       flexible="false"
       use_knot_distance="true"
       apply_no_radius="true"
       apply_with_radius="true"
       only_selected="false"
       hide_knots="false" />
    <inkscape:path-effect
       effect="fillet_chamfer"
       id="path-effect1-3"
       is_visible="true"
       lpeversion="1"
       nodesatellites_param="F,0,0,1,0,0,0,1 @ F,0,0,1,0,0,0,1 @ F,0,0,1,0,0,0,1 @ F,0,0,1,0,0,0,1 @ F,0,0,1,0,0,0,1 @ F,0,0,1,0,0,0,1 @ F,0,0,1,0,0,0,1 @ F,0,0,1,0,0,0,1 @ F,0,0,1,0,0,0,1 @ F,0,0,1,0,0,0,1 @ F,0,0,1,0,0,0,1 @ F,0,0,1,0,0,0,1 @ F,0,0,1,0,0,0,1 @ F,0,0,1,0,0,0,1 @ F,0,0,1,0,0,0,1 @ F,0,0,1,0,4.6611015,0,1 @ F,0,0,1,0,0,0,1 @ F,0,0,1,0,0,0,1 @ F,0,0,1,0,0,0,1 @ F,0,0,1,0,0,0,1 @ F,0,0,1,0,0,0,1 @ F,0,0,1,0,0,0,1 @ F,0,0,1,0,0,0,1 @ F,0,0,1,0,0,0,1 @ F,0,0,1,0,0,0,1 @ F,0,0,1,0,0,0,1 @ F,0,0,1,0,0,0,1 @ F,0,0,1,0,0,0,1 @ F,0,0,1,0,0,0,1 @ F,0,0,1,0,0,0,1"
       radius="0"
       unit="px"
       method="auto"
       mode="F"
       chamfer_steps="1"
       flexible="false"
       use_knot_distance="true"
       apply_no_radius="true"
       apply_with_radius="true"
       only_selected="false"
       hide_knots="false" />
    <filter
       inkscape:collect="always"
       style="color-interpolation-filters:sRGB"
       id="filter1"
       x="-0.055616699"
       y="-0.08713799"
       width="1.1112327"
       height="1.174276">
      <feGaussianBlur
         inkscape:collect="always"
         stdDeviation="0.81826013"
         id="feGaussianBlur1" />
    </filter>
  </defs>
  <sodipodi:namedview
     id="namedview6"
     pagecolor="#ffffff"
     bordercolor="#000000"
     borderopacity="0.25"
     inkscape:showpageshadow="2"
     inkscape:pageopacity="0.0"
     inkscape:pagecheckerboard="0"
     inkscape:deskcolor="#d1d1d1"
     inkscape:zoom="11.53205"
     inkscape:cx="34.209008"
     inkscape:cy="30.523627"
     inkscape:window-width="1920"
     inkscape:window-height="1020"
     inkscape:window-x="0"
     inkscape:window-y="0"
     inkscape:window-maximized="1"
     inkscape:current-layer="svg6"
     showguides="false" />
  <path
     id="rect1"
     style="fill:url(#radialGradient9)"
     d="M 19.049302,4 H 44.950698 A 15.049302,15.049302 45 0 1 60,19.049302 V 44.950698 A 15.049302,15.049302 135 0 1 44.950698,60 H 19.049302 A 15.049302,15.049302 45 0 1 4,44.950698 V 19.049302 A 15.049302,15.049302 135 0 1 19.049302,4 Z"
     inkscape:path-effect="#path-effect6"
     inkscape:original-d="M 4,4 H 60 V 60 H 4 Z"
     transform="matrix(0.9267512,0,0,0.9267512,2.3439616,2.3439616)" />
  <path
     id="rect1-8"
     style="fill:none;stroke:#000000;stroke-width:0.323711;stroke-dasharray:none;stroke-opacity:1;filter:url(#filter8)"
     d="M 19.049302,4 H 44.950698 A 15.049302,15.049302 45 0 1 60,19.049302 V 44.950698 A 15.049302,15.049302 135 0 1 44.950698,60 H 19.049302 A 15.049302,15.049302 45 0 1 4,44.950698 V 19.049302 A 15.049302,15.049302 135 0 1 19.049302,4 Z"
     inkscape:path-effect="#path-effect6-1"
     inkscape:original-d="M 4,4 H 60 V 60 H 4 Z"
     transform="matrix(0.9267512,0,0,0.9267512,2.3439604,2.3439604)" />
  <path
     id="path1"
     style="color:#000000;fill:#ffaa66;fill-opacity:1;stroke:none;stroke-width:5.798;stroke-linecap:butt;stroke-linejoin:miter;stroke-dasharray:none"
     d="m 45.666016,19.871094 c -6.167728,0.05849 -12.078856,4.883735 -12.078125,12.033203 1.49e-4,2.878373 0.942048,5.364672 2.464843,7.318359 l -11.693359,-0.002 c -0.456085,-7.87e-4 -0.711127,-0.524269 -0.431641,-0.884765 l 8.074219,-10.382813 c 1.250345,-1.610912 0.10339,-3.955419 -1.935547,-3.957031 H 17.375 c -1.352973,9.31e-4 -2.4502,1.097901 -2.451172,2.451172 -8.46e-4,1.354559 1.096909,2.454103 2.451172,2.455078 h 6.552734 c 0.456481,1.51e-4 0.713826,0.524346 0.433594,0.884765 l -8.076172,10.376953 c -1.25501,1.611246 -0.106516,3.961462 1.935547,3.960938 l 26.537109,0.0039 c 0.554498,3.46e-4 3.164471,-0.122346 5.524762,-1.106953 0.221353,-0.09234 0.441064,-0.192061 0.658832,-0.299297 0.881645,-0.434147 1.354594,-1.238201 1.373047,-2.066406 0.01845,-0.828204 -0.386398,-1.671565 -1.132812,-2.28125 h -0.002 l -0.289063,-0.236328 h -0.002 c -0.866816,-0.706858 -2.148877,-0.709333 -3.117188,-0.357422 -3.834895,1.393714 -8.391954,-1.296145 -8.392578,-5.876953 -6.25e-4,-4.645514 4.841029,-7.487909 8.783203,-5.724609 0.941109,0.42095 2.223746,0.511667 3.142579,-0.126954 l 0.318359,-0.220703 c 0.791353,-0.550021 1.260556,-1.357313 1.304687,-2.183593 0.04413,-0.826282 -0.369217,-1.662055 -1.214843,-2.16211 -1.902957,-1.1253 -3.991063,-1.634727 -6.046875,-1.615234 z"
     inkscape:path-effect="#path-effect1"
     inkscape:original-d="m 45.666016,19.871094 c -6.167728,0.05849 -12.078856,4.883735 -12.078125,12.033203 1.49e-4,2.878373 0.942048,5.364672 2.464843,7.318359 l -11.693359,-0.002 c -0.456085,-7.87e-4 -0.711127,-0.524269 -0.431641,-0.884765 l 8.074219,-10.382813 c 1.250345,-1.610912 0.10339,-3.955419 -1.935547,-3.957031 H 17.375 c -1.352973,9.31e-4 -2.4502,1.097901 -2.451172,2.451172 -8.46e-4,1.354559 1.096909,2.454103 2.451172,2.455078 h 6.552734 c 0.456481,1.51e-4 0.713826,0.524346 0.433594,0.884765 l -8.076172,10.376953 c -1.25501,1.611246 -0.106516,3.961462 1.935547,3.960938 l 26.537109,0.0039 c 0.349817,2.19e-4 0.681232,-0.07525 0.982422,-0.207031 1.75825,0.0013 3.536444,-0.379458 5.201172,-1.199219 0.881645,-0.434147 1.354594,-1.238201 1.373047,-2.066406 0.01845,-0.828204 -0.386398,-1.671565 -1.132812,-2.28125 h -0.002 l -0.289063,-0.236328 h -0.002 c -0.866816,-0.706858 -2.148877,-0.709333 -3.117188,-0.357422 -3.834895,1.393714 -8.391954,-1.296145 -8.392578,-5.876953 -6.25e-4,-4.645514 4.841029,-7.487909 8.783203,-5.724609 0.941109,0.42095 2.223746,0.511667 3.142579,-0.126954 l 0.318359,-0.220703 c 0.791353,-0.550021 1.260556,-1.357313 1.304687,-2.183593 0.04413,-0.826282 -0.369217,-1.662055 -1.214843,-2.16211 -1.902957,-1.1253 -3.991063,-1.634727 -6.046875,-1.615234 z"
     transform="translate(-1.9273785,3.217655e-4)" />
  <path
     id="path1-6"
     style="color:#000000;fill:none;fill-opacity:1;stroke:#ff000c;stroke-width:0.3;stroke-linecap:butt;stroke-linejoin:miter;stroke-dasharray:none;stroke-opacity:1;filter:url(#filter1)"
     d="m 45.666016,19.871094 c -6.167728,0.05849 -12.078856,4.883735 -12.078125,12.033203 1.49e-4,2.878373 0.942048,5.364672 2.464843,7.318359 l -11.693359,-0.002 c -0.456085,-7.87e-4 -0.711127,-0.524269 -0.431641,-0.884765 l 8.074219,-10.382813 c 1.250345,-1.610912 0.10339,-3.955419 -1.935547,-3.957031 H 17.375 c -1.352973,9.31e-4 -2.4502,1.097901 -2.451172,2.451172 -8.46e-4,1.354559 1.096909,2.454103 2.451172,2.455078 h 6.552734 c 0.456481,1.51e-4 0.713826,0.524346 0.433594,0.884765 l -8.076172,10.376953 c -1.25501,1.611246 -0.106516,3.961462 1.935547,3.960938 l 26.537109,0.0039 c 0.554498,3.46e-4 3.164471,-0.122346 5.524762,-1.106953 0.221353,-0.09234 0.441064,-0.192061 0.658832,-0.299297 0.881645,-0.434147 1.354594,-1.238201 1.373047,-2.066406 0.01845,-0.828204 -0.386398,-1.671565 -1.132812,-2.28125 h -0.002 l -0.289063,-0.236328 h -0.002 c -0.866816,-0.706858 -2.148877,-0.709333 -3.117188,-0.357422 -3.834895,1.393714 -8.391954,-1.296145 -8.392578,-5.876953 -6.25e-4,-4.645514 4.841029,-7.487909 8.783203,-5.724609 0.941109,0.42095 2.223746,0.511667 3.142579,-0.126954 l 0.318359,-0.220703 c 0.791353,-0.550021 1.260556,-1.357313 1.304687,-2.183593 0.04413,-0.826282 -0.369217,-1.662055 -1.214843,-2.16211 -1.902957,-1.1253 -3.991063,-1.634727 -6.046875,-1.615234 z"
     inkscape:path-effect="#path-effect1-3"
     inkscape:original-d="m 45.666016,19.871094 c -6.167728,0.05849 -12.078856,4.883735 -12.078125,12.033203 1.49e-4,2.878373 0.942048,5.364672 2.464843,7.318359 l -11.693359,-0.002 c -0.456085,-7.87e-4 -0.711127,-0.524269 -0.431641,-0.884765 l 8.074219,-10.382813 c 1.250345,-1.610912 0.10339,-3.955419 -1.935547,-3.957031 H 17.375 c -1.352973,9.31e-4 -2.4502,1.097901 -2.451172,2.451172 -8.46e-4,1.354559 1.096909,2.454103 2.451172,2.455078 h 6.552734 c 0.456481,1.51e-4 0.713826,0.524346 0.433594,0.884765 l -8.076172,10.376953 c -1.25501,1.611246 -0.106516,3.961462 1.935547,3.960938 l 26.537109,0.0039 c 0.349817,2.19e-4 0.681232,-0.07525 0.982422,-0.207031 1.75825,0.0013 3.536444,-0.379458 5.201172,-1.199219 0.881645,-0.434147 1.354594,-1.238201 1.373047,-2.066406 0.01845,-0.828204 -0.386398,-1.671565 -1.132812,-2.28125 h -0.002 l -0.289063,-0.236328 h -0.002 c -0.866816,-0.706858 -2.148877,-0.709333 -3.117188,-0.357422 -3.834895,1.393714 -8.391954,-1.296145 -8.392578,-5.876953 -6.25e-4,-4.645514 4.841029,-7.487909 8.783203,-5.724609 0.941109,0.42095 2.223746,0.511667 3.142579,-0.126954 l 0.318359,-0.220703 c 0.791353,-0.550021 1.260556,-1.357313 1.304687,-2.183593 0.04413,-0.826282 -0.369217,-1.662055 -1.214843,-2.16211 -1.902957,-1.1253 -3.991063,-1.634727 -6.046875,-1.615234 z"
     transform="translate(-1.9273315,3.217655e-4)" />
</svg>
