<?xml version="1.0" encoding="UTF-8" standalone="no"?>
<svg
   width="64"
   height="64"
   version="1"
   id="svg4"
   sodipodi:docname="audio-input-microphone.svg"
   inkscape:version="1.4 (e7c3feb100, 2024-10-09)"
   xmlns:inkscape="http://www.inkscape.org/namespaces/inkscape"
   xmlns:sodipodi="http://sodipodi.sourceforge.net/DTD/sodipodi-0.dtd"
   xmlns:xlink="http://www.w3.org/1999/xlink"
   xmlns="http://www.w3.org/2000/svg"
   xmlns:svg="http://www.w3.org/2000/svg">
  <defs
     id="defs4">
    <linearGradient
       id="linearGradient6"
       inkscape:collect="always">
      <stop
         style="stop-color:#4c4c4c;stop-opacity:1;"
         offset="0"
         id="stop6" />
      <stop
         style="stop-color:#727272;stop-opacity:1;"
         offset="1"
         id="stop7" />
    </linearGradient>
    <radialGradient
       inkscape:collect="always"
       xlink:href="#linearGradient6"
       id="radialGradient5"
       cx="6.9093995"
       cy="63.584221"
       fx="6.9093995"
       fy="63.584221"
       r="21.032677"
       gradientTransform="matrix(3.4709496,-2.0039537,1.7654162,3.0577906,-129.32539,-119.86718)"
       gradientUnits="userSpaceOnUse" />
    <radialGradient
       inkscape:collect="always"
       xlink:href="#linearGradient6"
       id="radialGradient8"
       cx="-28.580809"
       cy="-24.583376"
       fx="-28.580809"
       fy="-24.583376"
       r="15"
       gradientTransform="matrix(2.2088843,0,0,1.9143662,25.386569,29.259717)"
       gradientUnits="userSpaceOnUse" />
    <filter
       inkscape:collect="always"
       style="color-interpolation-filters:sRGB"
       id="filter8"
       x="-0.066293718"
       y="-0.088375795"
       width="1.1325874"
       height="1.1767516">
      <feGaussianBlur
         inkscape:collect="always"
         stdDeviation="0.85579188"
         id="feGaussianBlur8" />
    </filter>
  </defs>
  <sodipodi:namedview
     id="namedview4"
     pagecolor="#505050"
     bordercolor="#eeeeee"
     borderopacity="1"
     inkscape:showpageshadow="0"
     inkscape:pageopacity="0"
     inkscape:pagecheckerboard="0"
     inkscape:deskcolor="#505050"
     inkscape:zoom="13.04833"
     inkscape:cx="27.857971"
     inkscape:cy="31.689879"
     inkscape:current-layer="svg4" />
  <path
     style="fill:url(#radialGradient5);fill-rule:evenodd"
     d="m 50.003906,20.941844 c -1.787259,-0.0054 -3.182826,1.543241 -2.992188,3.320312 0,0 0.280978,2.810708 -1.398436,6.49175 C 43.933866,34.434948 40.868282,38 32,38 23.13172,38 20.066134,34.434948 18.386718,30.753906 c -1.679415,-3.681042 -1.398437,-6.49175 -1.398437,-6.49175 0.184356,-1.80114 -1.256528,-3.353989 -3.066406,-3.304687 -1.540329,0.04223 -2.798235,1.244413 -2.910156,2.781251 0,0 -0.508719,4.188416 1.917968,9.507374 C 15.118413,38.043472 20.175652,42.922698 29,43.835938 L 29,52 18,52 c -1.656855,0 -3,1.343146 -3,3 0,1.656854 1.343145,3 3,3 l 28,0 c 1.656854,0 3,-1.343146 3,-3 0,-1.656854 -1.343146,-3 -3,-3 l -11,0 0,-8.164062 c 8.824348,-0.91324 13.881586,-5.792466 16.070312,-10.589844 2.426688,-5.318958 1.91797,-9.507374 1.91797,-9.507374 -0.106752,-1.570973 -1.409788,-2.792142 -2.984376,-2.796876 z"
     id="path2" />
  <rect
     style="fill:url(#radialGradient8)"
     width="34.660458"
     height="26"
     x="-36"
     y="-45"
     rx="12.501"
     ry="13"
     transform="matrix(0,-1,-1,0,0,0)"
     id="rect2" />
  <rect
     style="opacity:0.130118;mix-blend-mode:normal;fill:#000000;fill-opacity:1;stroke-width:0.893867;filter:url(#filter8)"
     width="30.981827"
     height="23.240532"
     x="-34.160683"
     y="-43.620266"
     rx="11.174227"
     ry="11.620266"
     transform="matrix(0,-1.0742583,-1.0742583,0,-2.3762668,-1.3863861)"
     id="rect2-5" />
</svg>
