<?xml version="1.0" encoding="UTF-8" standalone="no"?>
<svg
   width="64"
   height="64"
   version="1"
   id="svg5"
   sodipodi:docname="blueman-headset.svg"
   inkscape:version="1.4 (e7c3feb100, 2024-10-09)"
   xmlns:inkscape="http://www.inkscape.org/namespaces/inkscape"
   xmlns:sodipodi="http://sodipodi.sourceforge.net/DTD/sodipodi-0.dtd"
   xmlns:xlink="http://www.w3.org/1999/xlink"
   xmlns="http://www.w3.org/2000/svg"
   xmlns:svg="http://www.w3.org/2000/svg">
  <defs
     id="defs5">
    <linearGradient
       id="linearGradient8"
       inkscape:collect="always">
      <stop
         style="stop-color:#8e8e8e;stop-opacity:1;"
         offset="0"
         id="stop8" />
      <stop
         style="stop-color:#a8a8a8;stop-opacity:1;"
         offset="1"
         id="stop9" />
    </linearGradient>
    <inkscape:path-effect
       effect="fillet_chamfer"
       id="path-effect8"
       is_visible="true"
       lpeversion="1"
       nodesatellites_param="F,0,0,1,0,4.9462529,0,1 @ F,0,1,1,0,4.9462529,0,1 @ F,0,1,1,0,4.9462529,0,1 @ F,0,1,1,0,4.9462529,0,1 | F,0,1,1,0,4.9462529,0,1 @ F,0,1,1,0,4.9462529,0,1 @ F,0,1,1,0,4.9462529,0,1 @ F,0,1,1,0,4.9462529,0,1"
       radius="0"
       unit="px"
       method="auto"
       mode="F"
       chamfer_steps="1"
       flexible="false"
       use_knot_distance="true"
       apply_no_radius="true"
       apply_with_radius="true"
       only_selected="false"
       hide_knots="false" />
    <linearGradient
       id="linearGradient6"
       inkscape:collect="always">
      <stop
         style="stop-color:#4c4c4c;stop-opacity:1;"
         offset="0"
         id="stop6" />
      <stop
         style="stop-color:#727272;stop-opacity:1;"
         offset="1"
         id="stop7" />
    </linearGradient>
    <radialGradient
       inkscape:collect="always"
       xlink:href="#linearGradient6"
       id="radialGradient8"
       cx="-1.4902625"
       cy="65.60144"
       fx="-1.4902625"
       fy="65.60144"
       r="28"
       gradientTransform="matrix(3.3457118,0,0,3.3232478,3.4957264,-152.6487)"
       gradientUnits="userSpaceOnUse" />
    <radialGradient
       inkscape:collect="always"
       xlink:href="#linearGradient8"
       id="radialGradient9"
       cx="32"
       cy="48"
       fx="32"
       fy="48"
       r="20"
       gradientTransform="matrix(1,0,0,0.7,0,14.4)"
       gradientUnits="userSpaceOnUse" />
  </defs>
  <sodipodi:namedview
     id="namedview5"
     pagecolor="#505050"
     bordercolor="#eeeeee"
     borderopacity="1"
     inkscape:showpageshadow="0"
     inkscape:pageopacity="0"
     inkscape:pagecheckerboard="0"
     inkscape:deskcolor="#505050"
     inkscape:zoom="18.453125"
     inkscape:cx="53.839119"
     inkscape:cy="33.408975"
     inkscape:current-layer="svg5" />
  <path
     style="fill:url(#radialGradient8)"
     d="m 32,2.0004 c -15.464,0 -28,12.536 -28,28 l 0,18 c 0,7.1392 5.0838,9.082 8,9.6132 l 0,-27.614 c 0,-11.08 8.92,-20 20,-20 11.08,0 20,8.92 20,20 l 0,27.624 c 2.916,-0.536 8,-2.484 8,-9.624 l 0,-18 c 0,-15.464 -12.536,-28 -28,-28 z"
     id="path2" />
  <path
     style="fill:url(#radialGradient9)"
     d="M 12,38.946253 V 57.053747 A 4.9462529,4.9462529 45 0 0 16.946253,62 h 0.107494 A 4.9462529,4.9462529 135 0 0 22,57.053747 V 38.946253 A 4.9462529,4.9462529 45 0 0 17.053747,34 H 16.946253 A 4.9462529,4.9462529 135 0 0 12,38.946253 Z m 30,0 V 57.053747 A 4.9462529,4.9462529 45 0 0 46.946253,62 h 0.107494 A 4.9462529,4.9462529 135 0 0 52,57.053747 V 38.946253 A 4.9462529,4.9462529 45 0 0 47.053747,34 H 46.946253 A 4.9462529,4.9462529 135 0 0 42,38.946253 Z"
     id="path3"
     inkscape:path-effect="#path-effect8"
     inkscape:original-d="M 12,34 V 62 H 22 V 34 Z m 30,0 V 62 H 52 V 34 Z" />
</svg>
