<?xml version="1.0" encoding="UTF-8" standalone="no"?>
<svg
   width="64"
   height="64"
   version="1"
   id="svg7"
   sodipodi:docname="drive-harddisk-ieee1394.svg"
   inkscape:version="1.3.2 (091e20ef0f, 2023-11-25, custom)"
   xmlns:inkscape="http://www.inkscape.org/namespaces/inkscape"
   xmlns:sodipodi="http://sodipodi.sourceforge.net/DTD/sodipodi-0.dtd"
   xmlns:xlink="http://www.w3.org/1999/xlink"
   xmlns="http://www.w3.org/2000/svg"
   xmlns:svg="http://www.w3.org/2000/svg">
  <defs
     id="defs7">
    <radialGradient
       inkscape:collect="always"
       xlink:href="#linearGradient4"
       id="radialGradient5"
       cx="-54.994705"
       cy="-7.5219774"
       fx="-54.994705"
       fy="-7.5219774"
       r="28"
       gradientTransform="matrix(1.3034314,1.0628165,-1.5994176,1.9615155,5.5090325,59.723295)"
       gradientUnits="userSpaceOnUse" />
    <linearGradient
       id="linearGradient4"
       inkscape:collect="always">
      <stop
         style="stop-color:#8e8e8e;stop-opacity:1;"
         offset="0"
         id="stop4-7" />
      <stop
         style="stop-color:#5f5f5f;stop-opacity:1;"
         offset="1"
         id="stop5-9" />
    </linearGradient>
    <filter
       inkscape:collect="always"
       style="color-interpolation-filters:sRGB"
       id="filter9"
       x="-0.09108572"
       y="-0.11592728"
       width="1.1821714"
       height="1.2318546">
      <feGaussianBlur
         inkscape:collect="always"
         stdDeviation="2.0836667"
         id="feGaussianBlur9" />
    </filter>
    <inkscape:path-effect
       effect="fillet_chamfer"
       id="path-effect4"
       is_visible="true"
       lpeversion="1"
       nodesatellites_param="F,0,0,1,0,0,0,1 @ F,0,0,1,0,0,0,1 @ F,0,0,1,0,2.2021103,0,1 @ F,0,0,1,0,0,0,1 @ F,0,0,1,0,0,0,1 | F,0,0,1,0,0,0,1 @ F,0,0,1,0,0,0,1 @ F,0,0,1,0,0,0,1 @ F,0,0,1,0,0,0,1"
       radius="0"
       unit="px"
       method="auto"
       mode="F"
       chamfer_steps="1"
       flexible="false"
       use_knot_distance="true"
       apply_no_radius="true"
       apply_with_radius="true"
       only_selected="false"
       hide_knots="false" />
    <inkscape:path-effect
       effect="fillet_chamfer"
       id="path-effect3"
       is_visible="true"
       lpeversion="1"
       nodesatellites_param="F,0,0,1,0,0,0,1 @ F,0,0,1,0,0,0,1 @ F,0,0,1,0,3.2559444,0,1 @ F,0,0,1,0,0,0,1 @ F,0,0,1,0,0,0,1 | F,0,0,1,0,0,0,1 @ F,0,0,1,0,0,0,1 @ F,0,0,1,0,0,0,1 @ F,0,0,1,0,0,0,1"
       radius="0"
       unit="px"
       method="auto"
       mode="F"
       chamfer_steps="1"
       flexible="false"
       use_knot_distance="true"
       apply_no_radius="true"
       apply_with_radius="true"
       only_selected="false"
       hide_knots="false" />
    <filter
       inkscape:collect="always"
       style="color-interpolation-filters:sRGB"
       id="filter1"
       x="-0.097683688"
       y="-0.090904063"
       width="1.1953665"
       height="1.1810718">
      <feGaussianBlur
         inkscape:collect="always"
         stdDeviation="1.0361385"
         id="feGaussianBlur1" />
    </filter>
  </defs>
  <sodipodi:namedview
     id="namedview7"
     pagecolor="#ffffff"
     bordercolor="#000000"
     borderopacity="0.25"
     inkscape:showpageshadow="2"
     inkscape:pageopacity="0.0"
     inkscape:pagecheckerboard="0"
     inkscape:deskcolor="#d1d1d1"
     inkscape:zoom="13.875"
     inkscape:cx="32.036036"
     inkscape:cy="32"
     inkscape:window-width="1920"
     inkscape:window-height="1020"
     inkscape:window-x="0"
     inkscape:window-y="0"
     inkscape:window-maximized="1"
     inkscape:current-layer="svg7" />
  <rect
     style="fill:url(#radialGradient5);stroke-width:0.962918"
     width="53.923393"
     height="42.368382"
     x="-58.961697"
     y="-53.184189"
     rx="9.5455742"
     ry="9.5455742"
     transform="matrix(0,-1,-1,0,0,0)"
     id="rect2" />
  <rect
     style="mix-blend-mode:normal;fill:none;stroke:#000000;stroke-width:0.2;stroke-dasharray:none;stroke-opacity:1;filter:url(#filter9)"
     width="56"
     height="44"
     x="-60"
     y="-54"
     rx="9.9131765"
     ry="9.9131765"
     transform="matrix(0,-0.96291776,-0.96291776,0,1.1866317,1.1866317)"
     id="rect2-6" />
  <path
     id="rect3"
     style="opacity:0.38;fill:#000000;fill-opacity:1;stroke-width:0.881539"
     d="m 23.893509,11.987444 -4.98793,4.987928 1.871551,1.869827 4.986206,-4.987929 z m 16.206891,0 -4.987927,4.987928 4.987927,4.986207 4.986208,-4.986207 z m -13.090512,3.1181 -4.986206,4.986207 1.869827,1.869828 4.986206,-4.986207 z m 4.989649,3.858457 a 6.1707748,6.1707748 0 0 0 -6.170774,6.170774 6.1707748,6.1707748 0 0 0 6.170774,6.170775 6.1707748,6.1707748 0 0 0 6.170775,-6.170775 6.1707748,6.1707748 0 0 0 -6.170775,-6.170774 z m 0,2.644617 a 3.526157,3.526157 0 0 1 3.526157,3.526157 3.526157,3.526157 0 0 1 -3.526157,3.526157 3.526157,3.526157 0 0 1 -3.526156,-3.526157 3.526157,3.526157 0 0 1 3.526156,-3.526157 z m -3.526156,11.46001 v 2.644618 h 7.052313 v -2.644618 z m 0,4.407696 v 2.644618 h 7.052313 v -2.644618 z" />
  <path
     id="path1"
     style="opacity:1;fill:none;fill-opacity:1;stroke-width:0.1;stroke:#000000;stroke-opacity:1;stroke-dasharray:none;filter:url(#filter1)"
     d="m 23.893509,11.987444 -4.98793,4.987928 1.871551,1.869827 4.986206,-4.987929 z m 16.206891,0 -4.987927,4.987928 4.987927,4.986207 4.986208,-4.986207 z m -13.090512,3.1181 -4.986206,4.986207 1.869827,1.869828 4.986206,-4.986207 z m 4.989649,3.858457 a 6.1707748,6.1707748 0 0 0 -6.170774,6.170774 6.1707748,6.1707748 0 0 0 6.170774,6.170775 6.1707748,6.1707748 0 0 0 6.170775,-6.170775 6.1707748,6.1707748 0 0 0 -6.170775,-6.170774 z m 0,2.644617 a 3.526157,3.526157 0 0 1 3.526157,3.526157 3.526157,3.526157 0 0 1 -3.526157,3.526157 3.526157,3.526157 0 0 1 -3.526156,-3.526157 3.526157,3.526157 0 0 1 3.526156,-3.526157 z m -3.526156,11.46001 v 2.644618 h 7.052313 v -2.644618 z m 0,4.407696 v 2.644618 h 7.052313 v -2.644618 z" />
</svg>
