<?xml version="1.0" encoding="UTF-8" standalone="no"?>
<svg
   width="64"
   height="64"
   version="1"
   id="svg10"
   sodipodi:docname="input-touchpad.svg"
   inkscape:version="1.4 (e7c3feb100, 2024-10-09)"
   xmlns:inkscape="http://www.inkscape.org/namespaces/inkscape"
   xmlns:sodipodi="http://sodipodi.sourceforge.net/DTD/sodipodi-0.dtd"
   xmlns:xlink="http://www.w3.org/1999/xlink"
   xmlns="http://www.w3.org/2000/svg"
   xmlns:svg="http://www.w3.org/2000/svg">
  <defs
     id="defs10">
    <inkscape:path-effect
       effect="fillet_chamfer"
       id="path-effect10"
       is_visible="true"
       lpeversion="1"
       nodesatellites_param="F,0,1,1,0,1.3374938,0,1 @ F,0,1,1,0,1.3374938,0,1 @ F,0,1,1,0,1.3374938,0,1 @ F,0,1,1,0,1.3374938,0,1 | F,0,1,1,0,1.3374938,0,1 @ F,0,1,1,0,1.3374938,0,1 @ F,0,1,1,0,1.3374938,0,1 @ F,0,1,1,0,1.3374938,0,1 | F,0,1,1,0,1.3374938,0,1 @ F,0,1,1,0,1.3374938,0,1 @ F,0,0,1,0,1.3374938,0,1 @ F,0,1,1,0,1.3374938,0,1"
       radius="0"
       unit="px"
       method="auto"
       mode="F"
       chamfer_steps="1"
       flexible="false"
       use_knot_distance="true"
       apply_no_radius="true"
       apply_with_radius="true"
       only_selected="false"
       hide_knots="false" />
    <radialGradient
       inkscape:collect="always"
       xlink:href="#linearGradient6"
       id="radialGradient7"
       cx="-51.568161"
       cy="-12.040905"
       fx="-51.568161"
       fy="-12.040905"
       r="19"
       gradientTransform="matrix(4.3339047,0.84861762,-1.5891013,4.3339047,142.84295,91.258226)"
       gradientUnits="userSpaceOnUse" />
    <linearGradient
       id="linearGradient6"
       inkscape:collect="always">
      <stop
         style="stop-color:#4c4c4c;stop-opacity:1;"
         offset="0"
         id="stop6" />
      <stop
         style="stop-color:#727272;stop-opacity:1;"
         offset="1"
         id="stop7" />
    </linearGradient>
  </defs>
  <sodipodi:namedview
     id="namedview10"
     pagecolor="#505050"
     bordercolor="#eeeeee"
     borderopacity="1"
     inkscape:showpageshadow="0"
     inkscape:pageopacity="0"
     inkscape:pagecheckerboard="0"
     inkscape:deskcolor="#505050"
     inkscape:zoom="13.04833"
     inkscape:cx="13.258402"
     inkscape:cy="32.762814"
     inkscape:current-layer="svg10" />
  <rect
     style="fill:url(#radialGradient7);stroke-width:1.1698"
     width="52"
     height="52"
     x="-58"
     y="-58"
     rx="4.3651237"
     ry="4.3651237"
     transform="matrix(0,-1,-1,0,0,0)"
     id="rect4-6" />
  <path
     id="rect5-7"
     style="opacity:0.482682;fill:#000000;fill-opacity:1"
     d="m -10.075775,-9 h -29.325012 a 1.3374938,1.3374938 45 0 1 -1.337494,-1.337494 l 0,-43.325012 A 1.3374938,1.3374938 135 0 1 -39.400787,-55 h 29.325012 a 1.3374938,1.3374938 45 0 1 1.3374938,1.337494 v 43.325012 A 1.3374938,1.3374938 135 0 1 -10.075775,-9 Z m -34.773438,-0.083984 h -8.783996 a 1.3374938,1.3374938 45 0 1 -1.337494,-1.3374936 l 0,-18.330872 a 1.3374938,1.3374938 135 0 1 1.337494,-1.337494 h 8.783996 a 1.3374938,1.3374938 45 0 1 1.337494,1.337494 l 0,18.330872 a 1.3374938,1.3374938 135 0 1 -1.337494,1.3374936 z m 0,-24.8261716 h -8.783996 a 1.3374938,1.3374938 45 0 1 -1.337494,-1.337494 l 0,-18.330872 a 1.3374938,1.3374938 135 0 1 1.337494,-1.337494 h 8.783996 a 1.3374938,1.3374938 45 0 1 1.337494,1.337494 l 0,18.330872 a 1.3374938,1.3374938 135 0 1 -1.337494,1.337494 z"
     transform="matrix(0,-1,-1,0,0,0)"
     inkscape:path-effect="#path-effect10"
     inkscape:original-d="M -8.7382812,-9 H -40.738281 V -55 H -8.7382812 Z M -43.511719,-9.0839844 H -54.970703 V -30.089844 h 11.458984 z m 0,-24.8261716 h -11.458984 v -21.00586 h 11.458984 z" />
</svg>
