<?xml version="1.0" encoding="UTF-8" standalone="no"?>
<svg
   width="64"
   height="64"
   version="1"
   id="svg9"
   sodipodi:docname="input-gaming.svg"
   inkscape:version="1.4 (e7c3feb100, 2024-10-09)"
   xmlns:inkscape="http://www.inkscape.org/namespaces/inkscape"
   xmlns:sodipodi="http://sodipodi.sourceforge.net/DTD/sodipodi-0.dtd"
   xmlns:xlink="http://www.w3.org/1999/xlink"
   xmlns="http://www.w3.org/2000/svg"
   xmlns:svg="http://www.w3.org/2000/svg">
  <defs
     id="defs9">
    <linearGradient
       id="linearGradient4"
       inkscape:collect="always">
      <stop
         style="stop-color:#00bcff;stop-opacity:1;"
         offset="0"
         id="stop4" />
      <stop
         style="stop-color:#00ffea;stop-opacity:1;"
         offset="1"
         id="stop5" />
    </linearGradient>
    <radialGradient
       inkscape:collect="always"
       xlink:href="#linearGradient6"
       id="radialGradient15"
       cx="6.5878215"
       cy="12.166714"
       fx="6.5878215"
       fy="12.166714"
       r="27.251238"
       gradientTransform="matrix(2.8953916,5.0149654,-4.9647163,2.8663802,45.329232,-58.872759)"
       gradientUnits="userSpaceOnUse" />
    <inkscape:path-effect
       effect="fillet_chamfer"
       id="path-effect15"
       is_visible="true"
       lpeversion="1"
       nodesatellites_param="F,0,0,1,0,0,0,1 @ F,0,0,1,0,0,0,1 @ F,0,0,1,0,0,0,1 @ F,0,0,1,0,0,0,1 @ F,0,0,1,0,0,0,1 @ F,0,0,1,0,0,0,1 @ F,0,0,1,0,0,0,1 @ F,0,0,1,0,0,0,1 @ F,0,0,1,0,0,0,1 @ F,0,0,1,0,0,0,1 @ F,0,0,1,0,0,0,1 @ F,0,0,1,0,0.67730125,0,1 @ F,0,0,1,0,0,0,1 @ F,0,0,1,0,0,0,1 @ F,0,0,1,0,0,0,1 @ F,0,0,1,0,0,0,1 | F,0,0,1,0,0,0,1 @ F,0,0,1,0,0,0,1 @ F,0,0,1,0,0,0,1 @ F,0,0,1,0,0,0,1 | F,0,0,1,0,0,0,1 @ F,0,0,1,0,0,0,1 @ F,0,0,1,0,0,0,1 @ F,0,0,1,0,0,0,1 | F,0,0,1,0,0,0,1 @ F,0,0,1,0,0,0,1 @ F,0,0,1,0,0,0,1 @ F,0,0,1,0,0,0,1 | F,0,0,1,0,0,0,1 @ F,0,0,1,0,0,0,1 @ F,0,0,1,0,0,0,1 @ F,0,0,1,0,0,0,1 | F,0,0,1,0,0,0,1 @ F,0,0,1,0,0,0,1 @ F,0,0,1,0,0,0,1 @ F,0,0,1,0,0,0,1"
       radius="0"
       unit="px"
       method="auto"
       mode="F"
       chamfer_steps="1"
       flexible="false"
       use_knot_distance="true"
       apply_no_radius="true"
       apply_with_radius="true"
       only_selected="false"
       hide_knots="false" />
    <inkscape:path-effect
       effect="fillet_chamfer"
       id="path-effect10"
       is_visible="true"
       lpeversion="1"
       nodesatellites_param="F,0,1,1,0,1.1149572,0,1 @ F,0,1,1,0,1.1149572,0,1 @ F,0,1,1,0,1.1149572,0,1 @ F,0,1,1,0,1.1149572,0,1 | F,0,1,1,0,1.1149572,0,1 @ F,0,1,1,0,1.1149572,0,1 @ F,0,1,1,0,1.1149572,0,1 @ F,0,0,1,0,1.1149572,0,1"
       radius="0"
       unit="px"
       method="auto"
       mode="F"
       chamfer_steps="1"
       flexible="false"
       use_knot_distance="true"
       apply_no_radius="true"
       apply_with_radius="true"
       only_selected="false"
       hide_knots="false" />
    <linearGradient
       id="linearGradient6"
       inkscape:collect="always">
      <stop
         style="stop-color:#4c4c4c;stop-opacity:1;"
         offset="0"
         id="stop6" />
      <stop
         style="stop-color:#727272;stop-opacity:1;"
         offset="1"
         id="stop7" />
    </linearGradient>
    <inkscape:path-effect
       effect="fillet_chamfer"
       id="path-effect9"
       is_visible="true"
       lpeversion="1"
       nodesatellites_param="F,0,1,1,0,5.2514818,0,1 @ F,0,0,1,0,5.2514818,0,1 @ F,0,0,1,0,0,0,1 @ F,0,0,1,0,0,0,1"
       radius="0"
       unit="px"
       method="auto"
       mode="F"
       chamfer_steps="1"
       flexible="false"
       use_knot_distance="true"
       apply_no_radius="true"
       apply_with_radius="true"
       only_selected="false"
       hide_knots="false" />
    <radialGradient
       inkscape:collect="always"
       xlink:href="#linearGradient4"
       id="radialGradient5"
       cx="42.271603"
       cy="26.067589"
       fx="42.271603"
       fy="26.067589"
       r="5.7294925"
       gradientTransform="matrix(3.9913136,-1.0694692,1.0694693,3.9913139,-157.71757,-25.67736)"
       gradientUnits="userSpaceOnUse" />
    <filter
       inkscape:collect="always"
       style="color-interpolation-filters:sRGB"
       id="filter5"
       x="-0.048899169"
       y="-0.14454594"
       width="1.0977983"
       height="1.2890919">
      <feGaussianBlur
         inkscape:collect="always"
         stdDeviation="0.71436534"
         id="feGaussianBlur5" />
    </filter>
  </defs>
  <sodipodi:namedview
     id="namedview9"
     pagecolor="#505050"
     bordercolor="#eeeeee"
     borderopacity="1"
     inkscape:showpageshadow="0"
     inkscape:pageopacity="0"
     inkscape:pagecheckerboard="0"
     inkscape:deskcolor="#505050"
     inkscape:zoom="18.453125"
     inkscape:cx="20.701101"
     inkscape:cy="27.881456"
     inkscape:current-layer="svg9" />
  <path
     d="m 31.943359,12.841797 c -5.32172,0.09043 -10.664679,-0.169048 -15.96875,0.335937 -1.89656,0.140522 -3.832086,0.868977 -4.826171,2.597657 -1.7877588,2.895591 -2.6261408,6.27349 -3.7011724,9.476562 -1.6920977,6.145348 -3.2314473,12.580203 -2.453125,18.990234 0.5650111,3.873258 4.0425014,7.394178 8.0214844,7.529297 2.560439,0.04066 3.877491,-2.347662 4.832031,-4.349609 1.620607,-2.252954 1.942718,-5.638545 4.529297,-7.029297 1.927196,-0.548523 3.98388,-0.182775 5.972656,-0.289062 4.105576,0.02202 8.213093,-0.04313 12.316407,0.03516 2.655857,0.361088 3.161012,3.29081 4.345703,5.216797 1.199686,1.951302 2.012449,4.429937 3.896484,5.828125 0.298903,0.221823 0.857007,0.455395 1.226563,0.511718 3.077643,0.469056 6.104749,-1.770489 7.673828,-4.294921 2.488557,-4.492521 1.255849,-9.81503 0.490234,-14.591797 -1.230684,-5.894587 -2.675675,-11.866218 -5.472656,-17.238281 -1.663932,-2.722253 -5.191594,-2.490472 -7.97461,-2.638672 -4.302512,-0.07008 -8.605139,-0.08592 -12.908203,-0.08984 z"
     style="baseline-shift:baseline;display:inline;overflow:visible;vector-effect:none;fill:url(#radialGradient15);enable-background:accumulate;stop-color:#000000;stop-opacity:1"
     id="path9"
     sodipodi:nodetypes="cccccccccccsscccccc" />
  <g
     id="g5"
     transform="translate(0,0.10838273)">
    <path
       id="path4"
       style="baseline-shift:baseline;display:inline;overflow:visible;opacity:1;vector-effect:none;fill:url(#radialGradient5);fill-opacity:1;stroke-linecap:round;stroke-linejoin:round;stroke-miterlimit:4.7;enable-background:accumulate;stop-color:#000000;stop-opacity:1"
       d="m 44.03125,18.595703 c -1.130993,-8.03e-4 -2.049631,0.917835 -2.048828,2.048828 10e-4,1.129687 0.919139,2.043772 2.048828,2.042969 1.12838,-0.001 2.041969,-0.914586 2.042969,-2.042969 8.03e-4,-1.129689 -0.913284,-2.047828 -2.042969,-2.048828 z m -3.683594,3.683594 c -1.130989,-8.03e-4 -2.049632,0.917834 -2.048828,2.048828 10e-4,1.129684 0.919144,2.043774 2.048828,2.042969 1.128383,-10e-4 2.041969,-0.914589 2.042969,-2.042969 8.03e-4,-1.129689 -0.913281,-2.047828 -2.042969,-2.048828 z m 7.367188,0 c -1.130996,-8.06e-4 -2.047678,0.917834 -2.046875,2.048828 10e-4,1.129684 0.917183,2.043774 2.046875,2.042969 1.12838,-10e-4 2.04197,-0.914589 2.042968,-2.042969 8.05e-4,-1.129689 -0.913284,-2.047828 -2.042968,-2.048828 z m -3.683594,3.683594 c -1.130993,-8.04e-4 -2.049631,0.917836 -2.048828,2.048828 10e-4,1.129687 0.919139,2.043774 2.048828,2.042969 1.12838,-0.001 2.041969,-0.914584 2.042969,-2.042969 8.03e-4,-1.129689 -0.913284,-2.047828 -2.042969,-2.048828 z" />
    <path
       style="baseline-shift:baseline;display:inline;overflow:visible;opacity:0.45;vector-effect:none;fill:#000000;fill-opacity:1;stroke-linecap:round;stroke-linejoin:round;stroke-miterlimit:4.7;enable-background:accumulate;stop-color:#000000;stop-opacity:1"
       d="m 18.445312,17.847656 c -2.634468,1e-6 -4.771482,2.135065 -4.771484,4.769531 0,2.634468 2.137016,4.769532 4.771484,4.769532 2.634468,0 4.771485,-2.135063 4.771485,-4.769532 -1e-6,-2.634467 -2.137016,-4.769531 -4.771485,-4.769531 z"
       id="path10" />
  </g>
  <path
     id="path4-5"
     style="baseline-shift:baseline;display:inline;overflow:visible;fill:none;fill-opacity:1;stroke:#000000;stroke-width:0.1;stroke-linecap:round;stroke-linejoin:round;stroke-miterlimit:4.7;stroke-dasharray:none;stroke-opacity:1;filter:url(#filter5);enable-background:accumulate;stop-color:#000000"
     d="m 18.445312,17.95604 c -2.634468,10e-7 -4.771482,2.135065 -4.771484,4.769531 0,2.634468 2.137016,4.769531 4.771484,4.769531 2.634468,0 4.771484,-2.135062 4.771484,-4.769531 -10e-7,-2.634467 -2.137015,-4.769531 -4.771484,-4.769531 z m 25.585937,0.748047 c -1.130993,-8.03e-4 -2.049631,0.917835 -2.048828,2.048828 10e-4,1.129687 0.919139,2.043772 2.048828,2.042969 1.12838,-0.001 2.041969,-0.914586 2.042969,-2.042969 8.03e-4,-1.129689 -0.913284,-2.047828 -2.042969,-2.048828 z m -3.683593,3.683594 c -1.130989,-8.03e-4 -2.049632,0.917834 -2.048828,2.048828 9.99e-4,1.129684 0.919144,2.043773 2.048828,2.042968 1.128383,-10e-4 2.041968,-0.914588 2.042968,-2.042968 8.03e-4,-1.129689 -0.91328,-2.047829 -2.042968,-2.048828 z m 7.367187,0 c -1.130996,-8.06e-4 -2.047678,0.917834 -2.046875,2.048828 10e-4,1.129684 0.917183,2.043773 2.046875,2.042968 1.12838,-10e-4 2.041971,-0.914588 2.042969,-2.042968 8.05e-4,-1.129689 -0.913285,-2.047829 -2.042969,-2.048828 z m -3.683594,3.683593 c -1.130993,-8.04e-4 -2.049631,0.917836 -2.048828,2.048828 10e-4,1.129687 0.919139,2.043774 2.048828,2.042969 1.12838,-10e-4 2.041969,-0.914584 2.042969,-2.042969 8.03e-4,-1.129689 -0.913284,-2.047828 -2.042969,-2.048828 z" />
</svg>
