<?xml version="1.0" encoding="UTF-8" standalone="no"?>
<svg
   width="64"
   height="64"
   version="1"
   id="svg27"
   sodipodi:docname="input-dialpad.svg"
   inkscape:version="1.4 (e7c3feb100, 2024-10-09)"
   xmlns:inkscape="http://www.inkscape.org/namespaces/inkscape"
   xmlns:sodipodi="http://sodipodi.sourceforge.net/DTD/sodipodi-0.dtd"
   xmlns:xlink="http://www.w3.org/1999/xlink"
   xmlns="http://www.w3.org/2000/svg"
   xmlns:svg="http://www.w3.org/2000/svg">
  <defs
     id="defs27">
    <radialGradient
       inkscape:collect="always"
       xlink:href="#linearGradient6"
       id="radialGradient7"
       cx="-51.568161"
       cy="-12.040905"
       fx="-51.568161"
       fy="-12.040905"
       r="19"
       gradientTransform="matrix(3.1670841,0.84861762,-1.1612663,4.3339047,159.76984,154.14731)"
       gradientUnits="userSpaceOnUse" />
    <linearGradient
       id="linearGradient6"
       inkscape:collect="always">
      <stop
         style="stop-color:#4c4c4c;stop-opacity:1;"
         offset="0"
         id="stop6" />
      <stop
         style="stop-color:#727272;stop-opacity:1;"
         offset="1"
         id="stop7" />
    </linearGradient>
    <filter
       inkscape:collect="always"
       style="color-interpolation-filters:sRGB"
       id="filter1"
       x="-0.049169573"
       y="-0.036177067"
       width="1.0983391"
       height="1.0723541">
      <feGaussianBlur
         inkscape:collect="always"
         stdDeviation="0.54038137"
         id="feGaussianBlur1" />
    </filter>
  </defs>
  <sodipodi:namedview
     id="namedview27"
     pagecolor="#505050"
     bordercolor="#eeeeee"
     borderopacity="1"
     inkscape:showpageshadow="0"
     inkscape:pageopacity="0"
     inkscape:pagecheckerboard="0"
     inkscape:deskcolor="#505050"
     inkscape:zoom="18.453125"
     inkscape:cx="32"
     inkscape:cy="32"
     inkscape:current-layer="svg27" />
  <rect
     style="fill:url(#radialGradient7)"
     width="38"
     height="49.778152"
     x="13"
     y="7.1109238"
     rx="4.1799321"
     ry="4.1799321"
     id="rect4-3" />
  <path
     id="rect5-6"
     style="opacity:0.482682;fill:#000000;fill-opacity:1"
     d="M 17.355469 9.9746094 C 16.604918 9.9746094 16 10.579528 16 11.330078 L 16 52.669922 C 16 53.420472 16.604918 54.025391 17.355469 54.025391 L 46.644531 54.025391 C 47.395082 54.025391 48 53.420472 48 52.669922 L 48 11.330078 C 48 10.579528 47.395082 9.9746094 46.644531 9.9746094 L 17.355469 9.9746094 z M 22.515625 14.058594 C 24.575015 14.058594 26.234375 15.716 26.234375 17.775391 C 26.234375 19.834781 24.575015 21.492188 22.515625 21.492188 C 20.456234 21.492187 18.798828 19.834781 18.798828 17.775391 C 18.798828 15.716 20.456234 14.058594 22.515625 14.058594 z M 32 14.058594 C 34.05939 14.058594 35.716797 15.716 35.716797 17.775391 C 35.716797 19.834781 34.05939 21.492188 32 21.492188 C 29.94061 21.492187 28.283203 19.834781 28.283203 17.775391 C 28.283203 15.716 29.94061 14.058594 32 14.058594 z M 41.484375 14.058594 C 43.543765 14.058594 45.201172 15.716 45.201172 17.775391 C 45.201172 19.834781 43.543765 21.492188 41.484375 21.492188 C 39.424985 21.492187 37.765625 19.834781 37.765625 17.775391 C 37.765625 15.716 39.424985 14.058594 41.484375 14.058594 z M 22.515625 23.541016 C 24.575015 23.541016 26.234375 25.200375 26.234375 27.259766 C 26.234375 29.319156 24.575015 30.976562 22.515625 30.976562 C 20.456234 30.976562 18.798828 29.319156 18.798828 27.259766 C 18.798828 25.200375 20.456234 23.541016 22.515625 23.541016 z M 32 23.541016 C 34.05939 23.541016 35.716797 25.200375 35.716797 27.259766 C 35.716797 29.319156 34.05939 30.976562 32 30.976562 C 29.94061 30.976562 28.283203 29.319156 28.283203 27.259766 C 28.283203 25.200375 29.94061 23.541016 32 23.541016 z M 41.484375 23.541016 C 43.543765 23.541016 45.201172 25.200375 45.201172 27.259766 C 45.201172 29.319156 43.543765 30.976562 41.484375 30.976562 C 39.424985 30.976562 37.765625 29.319156 37.765625 27.259766 C 37.765625 25.200375 39.424985 23.541016 41.484375 23.541016 z M 22.515625 33.023438 C 24.575015 33.023437 26.234375 34.680844 26.234375 36.740234 C 26.234375 38.799625 24.575015 40.458984 22.515625 40.458984 C 20.456234 40.458984 18.798828 38.799625 18.798828 36.740234 C 18.798828 34.680844 20.456234 33.023438 22.515625 33.023438 z M 32 33.023438 C 34.05939 33.023437 35.716797 34.680844 35.716797 36.740234 C 35.716797 38.799625 34.05939 40.458984 32 40.458984 C 29.94061 40.458984 28.283203 38.799625 28.283203 36.740234 C 28.283203 34.680844 29.94061 33.023438 32 33.023438 z M 41.484375 33.023438 C 43.543765 33.023437 45.201172 34.680844 45.201172 36.740234 C 45.201172 38.799625 43.543765 40.458984 41.484375 40.458984 C 39.424985 40.458984 37.765625 38.799625 37.765625 36.740234 C 37.765625 34.680844 39.424985 33.023438 41.484375 33.023438 z M 32 42.507812 C 34.05939 42.507812 35.716797 44.165219 35.716797 46.224609 C 35.716797 48.283999 34.05939 49.941406 32 49.941406 C 29.94061 49.941406 28.283203 48.283999 28.283203 46.224609 C 28.283203 44.165219 29.94061 42.507812 32 42.507812 z " />
  <rect
     width="7.4346218"
     height="7.4346218"
     x="42.508251"
     y="-26.233604"
     rx="3.7173109"
     ry="3.7173109"
     id="rect25-5-6-6"
     style="fill:#ff7777;fill-opacity:1;stroke-width:0.929328"
     transform="rotate(90)" />
  <rect
     width="7.4346218"
     height="7.4346218"
     x="42.508251"
     y="-45.201015"
     rx="3.7173109"
     ry="3.7173109"
     id="rect25-5-6-3-1"
     style="fill:#c3ff6a;fill-opacity:1;stroke-width:0.929328"
     transform="rotate(90)" />
  <path
     id="rect25-6"
     style="mix-blend-mode:normal;fill:none;stroke:#000000;stroke-width:0.2;stroke-dasharray:none;stroke-opacity:1;filter:url(#filter1)"
     d="m 21.794921,12.693359 c -2.215999,0 -4,1.784 -4,4 0,2.216 1.784001,4 4,4 2.216,0 4,-1.784 4,-4 0,-2.216 -1.784,-4 -4,-4 z m 10.205079,0 c -2.216,0 -4,1.784 -4,4 0,2.216 1.784,4 4,4 2.215999,0 4,-1.784 4,-4 0,-2.216 -1.784001,-4 -4,-4 z m 10.205078,0 c -2.215999,0 -4,1.784 -4,4 0,2.216 1.784001,4 4,4 2.215999,0 4,-1.784 4,-4 0,-2.216 -1.784001,-4 -4,-4 z M 21.794921,22.898437 c -2.215999,0 -4,1.784 -4,4 0,2.216 1.784001,4 4,4 2.216,0 4,-1.784 4,-4 0,-2.216 -1.784,-4 -4,-4 z m 10.205079,0 c -2.216,0 -4,1.784 -4,4 0,2.216 1.784,4 4,4 2.215999,0 4,-1.784 4,-4 0,-2.216 -1.784001,-4 -4,-4 z m 10.205078,0 c -2.215999,0 -4,1.784 -4,4 0,2.216 1.784001,4 4,4 2.215999,0 4,-1.784 4,-4 0,-2.216 -1.784001,-4 -4,-4 z M 21.794921,33.103515 c -2.215999,0 -4,1.784 -4,4 0,2.216001 1.784001,4 4,4 2.216,0 4,-1.783999 4,-4 0,-2.216 -1.784,-4 -4,-4 z m 10.205079,0 c -2.216,0 -4,1.784 -4,4 0,2.216001 1.784,4 4,4 2.215999,0 4,-1.783999 4,-4 0,-2.216 -1.784001,-4 -4,-4 z m 10.205078,0 c -2.215999,0 -4,1.784 -4,4 0,2.216001 1.784001,4 4,4 2.215999,0 4,-1.783999 4,-4 0,-2.216 -1.784001,-4 -4,-4 z M 21.794921,43.306641 c -2.215999,0 -4,1.783999 -4,4 0,2.216 1.784001,4 4,4 2.216,-10e-7 4,-1.784 4,-4 0,-2.216001 -1.784,-4 -4,-4 z m 10.205079,0 c -2.216,0 -4,1.783999 -4,4 0,2.216 1.784,4 4,4 2.215999,-10e-7 4,-1.784 4,-4 0,-2.216001 -1.784001,-4 -4,-4 z m 10.205078,0 c -2.215999,0 -4,1.783999 -4,4 0,2.216 1.784001,4 4,4 2.215999,-10e-7 4,-1.784 4,-4 0,-2.216001 -1.784001,-4 -4,-4 z"
     transform="matrix(0.92932775,0,0,0.92932775,2.2615119,2.2615119)" />
</svg>
