<?xml version="1.0" encoding="UTF-8" standalone="no"?>
<svg
   width="64"
   height="64"
   version="1"
   id="svg11"
   sodipodi:docname="media-flash.svg"
   inkscape:version="1.4 (e7c3feb100, 2024-10-09)"
   xmlns:inkscape="http://www.inkscape.org/namespaces/inkscape"
   xmlns:sodipodi="http://sodipodi.sourceforge.net/DTD/sodipodi-0.dtd"
   xmlns:xlink="http://www.w3.org/1999/xlink"
   xmlns="http://www.w3.org/2000/svg"
   xmlns:svg="http://www.w3.org/2000/svg">
  <defs
     id="defs11">
    <inkscape:path-effect
       effect="fillet_chamfer"
       id="path-effect13"
       is_visible="true"
       lpeversion="1"
       nodesatellites_param="F,0,1,1,0,1.4926814,0,1 @ F,0,1,1,0,1.4926814,0,1 @ F,0,1,1,0,1.4926814,0,1 @ F,0,1,1,0,1.4926814,0,1 | F,0,1,1,0,1.4926814,0,1 @ F,0,1,1,0,1.4926814,0,1 @ F,0,1,1,0,1.4926814,0,1 @ F,0,1,1,0,1.4926814,0,1 | F,0,1,1,0,1.4926814,0,1 @ F,0,1,1,0,1.4926814,0,1 @ F,0,1,1,0,1.4926814,0,1 @ F,0,1,1,0,1.4926814,0,1 | F,0,1,1,0,1.4926814,0,1 @ F,0,1,1,0,1.4926814,0,1 @ F,0,1,1,0,1.4926814,0,1 @ F,0,1,1,0,1.4926814,0,1 | F,0,1,1,0,1.4926814,0,1 @ F,0,1,1,0,1.4926814,0,1 @ F,0,1,1,0,1.4926814,0,1 @ F,0,1,1,0,1.4926814,0,1 | F,0,1,1,0,1.4926814,0,1 @ F,0,1,1,0,1.4926814,0,1 @ F,0,1,1,0,1.4926814,0,1 @ F,0,1,1,0,1.4926814,0,1 | F,0,1,1,0,1.4926814,0,1 @ F,0,1,1,0,1.4926814,0,1 @ F,0,1,1,0,1.4926814,0,1 @ F,0,1,1,0,1.4926814,0,1 | F,0,1,1,0,1.4926814,0,1 @ F,0,0,1,0,1.4926814,0,1 @ F,0,1,1,0,1.4926814,0,1 @ F,0,1,1,0,1.4926814,0,1 | F,0,1,1,0,1.4926814,0,1 @ F,0,1,1,0,1.4926814,0,1 @ F,0,1,1,0,1.4926814,0,1 @ F,0,1,1,0,1.4926814,0,1"
       radius="0"
       unit="px"
       method="auto"
       mode="F"
       chamfer_steps="1"
       flexible="false"
       use_knot_distance="true"
       apply_no_radius="true"
       apply_with_radius="true"
       only_selected="false"
       hide_knots="false" />
    <linearGradient
       id="linearGradient12"
       inkscape:collect="always">
      <stop
         style="stop-color:#f8c44e;stop-opacity:1;"
         offset="0"
         id="stop12" />
      <stop
         style="stop-color:#f8a44e;stop-opacity:1;"
         offset="1"
         id="stop13" />
    </linearGradient>
    <linearGradient
       id="linearGradient6"
       inkscape:collect="always">
      <stop
         style="stop-color:#4c4c4c;stop-opacity:1;"
         offset="0"
         id="stop6" />
      <stop
         style="stop-color:#727272;stop-opacity:1;"
         offset="1"
         id="stop7" />
    </linearGradient>
    <radialGradient
       inkscape:collect="always"
       xlink:href="#linearGradient6"
       id="radialGradient12"
       cx="9.6731577"
       cy="55.035198"
       fx="9.6731577"
       fy="55.035198"
       r="22"
       gradientTransform="matrix(3.8413801,-1.0292947,1.3100115,4.8890293,-99.581861,-197.79464)"
       gradientUnits="userSpaceOnUse" />
    <radialGradient
       inkscape:collect="always"
       xlink:href="#linearGradient12"
       id="radialGradient13"
       cx="11.278785"
       cy="66.602821"
       fx="11.278785"
       fy="66.602821"
       r="17.5"
       gradientTransform="matrix(3.8596934,-1.0342017,0.23638897,0.88221564,-47.998039,-21.841439)"
       gradientUnits="userSpaceOnUse" />
    <inkscape:path-effect
       effect="fillet_chamfer"
       id="path-effect13-5"
       is_visible="true"
       lpeversion="1"
       nodesatellites_param="F,0,1,1,0,1.4926814,0,1 @ F,0,1,1,0,1.4926814,0,1 @ F,0,1,1,0,1.4926814,0,1 @ F,0,1,1,0,1.4926814,0,1 | F,0,1,1,0,1.4926814,0,1 @ F,0,1,1,0,1.4926814,0,1 @ F,0,1,1,0,1.4926814,0,1 @ F,0,1,1,0,1.4926814,0,1 | F,0,1,1,0,1.4926814,0,1 @ F,0,1,1,0,1.4926814,0,1 @ F,0,1,1,0,1.4926814,0,1 @ F,0,1,1,0,1.4926814,0,1 | F,0,1,1,0,1.4926814,0,1 @ F,0,1,1,0,1.4926814,0,1 @ F,0,1,1,0,1.4926814,0,1 @ F,0,1,1,0,1.4926814,0,1 | F,0,1,1,0,1.4926814,0,1 @ F,0,1,1,0,1.4926814,0,1 @ F,0,1,1,0,1.4926814,0,1 @ F,0,1,1,0,1.4926814,0,1 | F,0,1,1,0,1.4926814,0,1 @ F,0,1,1,0,1.4926814,0,1 @ F,0,1,1,0,1.4926814,0,1 @ F,0,1,1,0,1.4926814,0,1 | F,0,1,1,0,1.4926814,0,1 @ F,0,1,1,0,1.4926814,0,1 @ F,0,1,1,0,1.4926814,0,1 @ F,0,1,1,0,1.4926814,0,1 | F,0,1,1,0,1.4926814,0,1 @ F,0,0,1,0,1.4926814,0,1 @ F,0,1,1,0,1.4926814,0,1 @ F,0,1,1,0,1.4926814,0,1 | F,0,1,1,0,1.4926814,0,1 @ F,0,1,1,0,1.4926814,0,1 @ F,0,1,1,0,1.4926814,0,1 @ F,0,1,1,0,1.4926814,0,1"
       radius="0"
       unit="px"
       method="auto"
       mode="F"
       chamfer_steps="1"
       flexible="false"
       use_knot_distance="true"
       apply_no_radius="true"
       apply_with_radius="true"
       only_selected="false"
       hide_knots="false" />
    <filter
       inkscape:collect="always"
       style="color-interpolation-filters:sRGB"
       id="filter13"
       x="-0.041812667"
       y="-0.18293042"
       width="1.0836253"
       height="1.3658608">
      <feGaussianBlur
         inkscape:collect="always"
         stdDeviation="0.58893471"
         id="feGaussianBlur13" />
    </filter>
    <filter
       inkscape:collect="always"
       style="color-interpolation-filters:sRGB"
       id="filter14"
       x="-0.13094484"
       y="-0.22260623"
       width="1.2618897"
       height="1.4452125">
      <feGaussianBlur
         inkscape:collect="always"
         stdDeviation="1.8550519"
         id="feGaussianBlur14" />
    </filter>
  </defs>
  <sodipodi:namedview
     id="namedview11"
     pagecolor="#505050"
     bordercolor="#eeeeee"
     borderopacity="1"
     inkscape:showpageshadow="0"
     inkscape:pageopacity="0"
     inkscape:pagecheckerboard="0"
     inkscape:deskcolor="#505050"
     inkscape:zoom="13.04833"
     inkscape:cx="27.589738"
     inkscape:cy="38.510676"
     inkscape:current-layer="svg11" />
  <path
     style="fill:url(#radialGradient12)"
     d="M 20 4 L 10 14 L 10 57.5 C 10 58.885 11.115 60 12.5 60 L 51.5 60 C 52.885 60 54 58.885 54 57.5 L 54 6.5 C 54 5.115 52.885 4 51.5 4 L 20 4 z"
     id="path2" />
  <rect
     style="opacity:0.4;filter:url(#filter14)"
     width="34"
     height="20"
     x="15"
     y="-53"
     rx="2.5"
     ry="2.5"
     transform="scale(1,-1)"
     id="rect2-5" />
  <rect
     style="opacity:0.4"
     width="34"
     height="20"
     x="15"
     y="-53"
     rx="2.5"
     ry="2.5"
     transform="scale(1,-1)"
     id="rect2" />
  <path
     id="rect3"
     style="fill:url(#radialGradient13)"
     d="m 19,10.492681 v 5.014638 A 1.4926814,1.4926814 45 0 0 20.492681,17 h 0.01464 A 1.4926814,1.4926814 135 0 0 22,15.507319 V 10.492681 A 1.4926814,1.4926814 45 0 0 20.507319,9 h -0.01464 A 1.4926814,1.4926814 135 0 0 19,10.492681 Z m 4,0 v 5.014638 A 1.4926814,1.4926814 45 0 0 24.492681,17 h 0.01464 A 1.4926814,1.4926814 135 0 0 26,15.507319 V 10.492681 A 1.4926814,1.4926814 45 0 0 24.507319,9 h -0.01464 A 1.4926814,1.4926814 135 0 0 23,10.492681 Z m 4,0 0,5.014638 A 1.4926814,1.4926814 45 0 0 28.492681,17 h 0.01464 A 1.4926814,1.4926814 135 0 0 30,15.507319 l 0,-5.014638 A 1.4926814,1.4926814 45 0 0 28.507319,9 h -0.01464 A 1.4926814,1.4926814 135 0 0 27,10.492681 Z m 4,0 v 5.014638 A 1.4926814,1.4926814 45 0 0 32.492681,17 h 0.01464 A 1.4926814,1.4926814 135 0 0 34,15.507319 V 10.492681 A 1.4926814,1.4926814 45 0 0 32.507319,9 h -0.01464 A 1.4926814,1.4926814 135 0 0 31,10.492681 Z m 4,0 v 5.014638 A 1.4926814,1.4926814 45 0 0 36.492681,17 h 0.01464 A 1.4926814,1.4926814 135 0 0 38,15.507319 V 10.492681 A 1.4926814,1.4926814 45 0 0 36.507319,9 h -0.01464 A 1.4926814,1.4926814 135 0 0 35,10.492681 Z m 4,0 v 5.014638 A 1.4926814,1.4926814 45 0 0 40.492681,17 h 0.01464 A 1.4926814,1.4926814 135 0 0 42,15.507319 V 10.492681 A 1.4926814,1.4926814 45 0 0 40.507319,9 h -0.01464 A 1.4926814,1.4926814 135 0 0 39,10.492681 Z m 4,0 v 5.014638 A 1.4926814,1.4926814 45 0 0 44.492681,17 h 0.01464 A 1.4926814,1.4926814 135 0 0 46,15.507319 V 10.492681 A 1.4926814,1.4926814 45 0 0 44.507319,9 h -0.01464 A 1.4926814,1.4926814 135 0 0 43,10.492681 Z m 4,0 v 5.014638 A 1.4926814,1.4926814 45 0 0 48.492681,17 h 0.01464 A 1.4926814,1.4926814 135 0 0 50,15.507319 V 10.492681 A 1.4926814,1.4926814 45 0 0 48.507319,9 h -0.01464 A 1.4926814,1.4926814 135 0 0 47,10.492681 Z m -32,4 v 1.014638 A 1.4926814,1.4926814 45 0 0 16.492681,17 h 0.01464 A 1.4926814,1.4926814 135 0 0 18,15.507319 V 14.492681 A 1.4926814,1.4926814 45 0 0 16.507319,13 h -0.01464 A 1.4926814,1.4926814 135 0 0 15,14.492681 Z"
     inkscape:path-effect="#path-effect13"
     inkscape:original-d="m 19,9 v 8 h 3 V 9 Z m 4,0 v 8 h 3 V 9 Z m 4,0 v 8 h 3 V 9 Z m 4,0 v 8 h 3 V 9 Z m 4,0 v 8 h 3 V 9 Z m 4,0 v 8 h 3 V 9 Z m 4,0 v 8 h 3 V 9 Z m 4,0 v 8 h 3 V 9 Z m -32,4 v 4 h 3 v -4 z" />
  <path
     id="rect3-3"
     style="fill:none;stroke:#000000;stroke-opacity:1;stroke-width:0.1;stroke-dasharray:none;filter:url(#filter13)"
     d="m 19,10.492681 v 5.014638 A 1.4926814,1.4926814 45 0 0 20.492681,17 h 0.01464 A 1.4926814,1.4926814 135 0 0 22,15.507319 V 10.492681 A 1.4926814,1.4926814 45 0 0 20.507319,9 h -0.01464 A 1.4926814,1.4926814 135 0 0 19,10.492681 Z m 4,0 v 5.014638 A 1.4926814,1.4926814 45 0 0 24.492681,17 h 0.01464 A 1.4926814,1.4926814 135 0 0 26,15.507319 V 10.492681 A 1.4926814,1.4926814 45 0 0 24.507319,9 h -0.01464 A 1.4926814,1.4926814 135 0 0 23,10.492681 Z m 4,0 0,5.014638 A 1.4926814,1.4926814 45 0 0 28.492681,17 h 0.01464 A 1.4926814,1.4926814 135 0 0 30,15.507319 l 0,-5.014638 A 1.4926814,1.4926814 45 0 0 28.507319,9 h -0.01464 A 1.4926814,1.4926814 135 0 0 27,10.492681 Z m 4,0 v 5.014638 A 1.4926814,1.4926814 45 0 0 32.492681,17 h 0.01464 A 1.4926814,1.4926814 135 0 0 34,15.507319 V 10.492681 A 1.4926814,1.4926814 45 0 0 32.507319,9 h -0.01464 A 1.4926814,1.4926814 135 0 0 31,10.492681 Z m 4,0 v 5.014638 A 1.4926814,1.4926814 45 0 0 36.492681,17 h 0.01464 A 1.4926814,1.4926814 135 0 0 38,15.507319 V 10.492681 A 1.4926814,1.4926814 45 0 0 36.507319,9 h -0.01464 A 1.4926814,1.4926814 135 0 0 35,10.492681 Z m 4,0 v 5.014638 A 1.4926814,1.4926814 45 0 0 40.492681,17 h 0.01464 A 1.4926814,1.4926814 135 0 0 42,15.507319 V 10.492681 A 1.4926814,1.4926814 45 0 0 40.507319,9 h -0.01464 A 1.4926814,1.4926814 135 0 0 39,10.492681 Z m 4,0 v 5.014638 A 1.4926814,1.4926814 45 0 0 44.492681,17 h 0.01464 A 1.4926814,1.4926814 135 0 0 46,15.507319 V 10.492681 A 1.4926814,1.4926814 45 0 0 44.507319,9 h -0.01464 A 1.4926814,1.4926814 135 0 0 43,10.492681 Z m 4,0 v 5.014638 A 1.4926814,1.4926814 45 0 0 48.492681,17 h 0.01464 A 1.4926814,1.4926814 135 0 0 50,15.507319 V 10.492681 A 1.4926814,1.4926814 45 0 0 48.507319,9 h -0.01464 A 1.4926814,1.4926814 135 0 0 47,10.492681 Z m -32,4 v 1.014638 A 1.4926814,1.4926814 45 0 0 16.492681,17 h 0.01464 A 1.4926814,1.4926814 135 0 0 18,15.507319 V 14.492681 A 1.4926814,1.4926814 45 0 0 16.507319,13 h -0.01464 A 1.4926814,1.4926814 135 0 0 15,14.492681 Z"
     inkscape:path-effect="#path-effect13-5"
     inkscape:original-d="m 19,9 v 8 h 3 V 9 Z m 4,0 v 8 h 3 V 9 Z m 4,0 v 8 h 3 V 9 Z m 4,0 v 8 h 3 V 9 Z m 4,0 v 8 h 3 V 9 Z m 4,0 v 8 h 3 V 9 Z m 4,0 v 8 h 3 V 9 Z m 4,0 v 8 h 3 V 9 Z m -32,4 v 4 h 3 v -4 z" />
</svg>
