<?xml version="1.0" encoding="UTF-8" standalone="no"?>
<svg
   width="64"
   height="64"
   version="1"
   id="svg7"
   sodipodi:docname="media-floppy.svg"
   inkscape:version="1.4 (e7c3feb100, 2024-10-09)"
   xmlns:inkscape="http://www.inkscape.org/namespaces/inkscape"
   xmlns:sodipodi="http://sodipodi.sourceforge.net/DTD/sodipodi-0.dtd"
   xmlns:xlink="http://www.w3.org/1999/xlink"
   xmlns="http://www.w3.org/2000/svg"
   xmlns:svg="http://www.w3.org/2000/svg">
  <defs
     id="defs7">
    <inkscape:path-effect
       effect="fillet_chamfer"
       id="path-effect9"
       is_visible="true"
       lpeversion="1"
       nodesatellites_param="F,0,1,1,0,7.4991448,0,1 @ F,0,0,1,0,7.4991448,0,1 @ F,0,1,1,0,7.4991448,0,1 @ F,0,1,1,0,7.4991448,0,1"
       radius="0"
       unit="px"
       method="auto"
       mode="F"
       chamfer_steps="1"
       flexible="false"
       use_knot_distance="true"
       apply_no_radius="true"
       apply_with_radius="true"
       only_selected="false"
       hide_knots="false" />
    <linearGradient
       id="linearGradient6"
       inkscape:collect="always">
      <stop
         style="stop-color:#4c4c4c;stop-opacity:1;"
         offset="0"
         id="stop6" />
      <stop
         style="stop-color:#727272;stop-opacity:1;"
         offset="1"
         id="stop7" />
    </linearGradient>
    <radialGradient
       inkscape:collect="always"
       xlink:href="#linearGradient6"
       id="radialGradient9"
       cx="-59.743015"
       cy="-4.7934527"
       fx="-59.743015"
       fy="-4.7934527"
       r="26"
       gradientUnits="userSpaceOnUse"
       gradientTransform="matrix(1.6897435,0,0,1.6897435,41.207355,3.3062527)" />
    <filter
       inkscape:collect="always"
       style="color-interpolation-filters:sRGB"
       id="filter10"
       x="-0.065602097"
       y="-0.10496336"
       width="1.1312042"
       height="1.2099267">
      <feGaussianBlur
         inkscape:collect="always"
         stdDeviation="0.83302798"
         id="feGaussianBlur10" />
    </filter>
  </defs>
  <sodipodi:namedview
     id="namedview7"
     pagecolor="#505050"
     bordercolor="#eeeeee"
     borderopacity="1"
     inkscape:showpageshadow="0"
     inkscape:pageopacity="0"
     inkscape:pagecheckerboard="0"
     inkscape:deskcolor="#505050"
     inkscape:zoom="13.04833"
     inkscape:cx="33.107685"
     inkscape:cy="34.1423"
     inkscape:current-layer="svg7" />
  <path
     id="rect2"
     style="fill:url(#radialGradient9)"
     transform="matrix(0,-1,-1,0,0,0)"
     d="m -50.500855,-58 h 37.00171 A 7.4991448,7.4991448 45 0 1 -6,-50.500855 l 0,37.00171 A 7.4991448,7.4991448 135 0 1 -13.499145,-6 l -37.00171,0 A 7.4991448,7.4991448 45 0 1 -58,-13.499145 v -37.00171 A 7.4991448,7.4991448 135 0 1 -50.500855,-58 Z"
     inkscape:path-effect="#path-effect9"
     inkscape:original-d="M -58,-58 H -6 V -6 H -58 Z" />
  <rect
     style="opacity:0.500398;fill:#ffffff;fill-opacity:1;stroke-width:0.920169"
     width="36.806744"
     height="22.084045"
     x="13.596628"
     y="29.233618"
     rx="4.6981025"
     ry="4.6981025"
     id="rect4" />
  <path
     id="rect4-6"
     style="opacity:0.69446624;fill:#00a2ff;fill-opacity:1;stroke-width:0.920169"
     d="M 13.595703 45.599609 L 13.595703 46.619141 C 13.595703 49.221889 15.692173 51.318359 18.294922 51.318359 L 45.705078 51.318359 C 48.307827 51.318359 50.404297 49.221889 50.404297 46.619141 L 50.404297 45.599609 L 13.595703 45.599609 z " />
  <path
     style="fill:#000000;fill-opacity:1;opacity:0.50039791"
     d="M 20,6 V 23.5 C 20,24.886 21.114,26 22.5,26 H 49.5 C 50.884,26 52,24.886 52,23.5 V 6 Z M 40,10 H 46 C 47.108,10 48,10.892 48,12 V 20 C 48,21.108 47.108,22 46,22 H 40 C 38.892,22 38,21.108 38,20 V 12 C 38,10.892 38.892,10 40,10 Z"
     id="path6" />
  <path
     style="opacity:0.500398;fill:none;fill-opacity:1;stroke:#000000;stroke-opacity:1;stroke-width:0.2;stroke-dasharray:none;filter:url(#filter10)"
     d="m 20,6 v 17.5 c 0,1.386 1.114,2.5 2.5,2.5 h 27 C 50.884,26 52,24.886 52,23.5 V 6 Z m 20,4 h 6 c 1.108,0 2,0.892 2,2 v 8 c 0,1.108 -0.892,2 -2,2 h -6 c -1.108,0 -2,-0.892 -2,-2 v -8 c 0,-1.108 0.892,-2 2,-2 z"
     id="path6-3" />
  <g
     id="g1"
     transform="translate(-61.723351,0.75897379)" />
</svg>
