<?xml version="1.0" encoding="UTF-8" standalone="no"?>
<svg
   width="64"
   height="64"
   version="1"
   id="svg9"
   sodipodi:docname="network-vpn.svg"
   inkscape:version="1.4 (e7c3feb100, 2024-10-09)"
   xmlns:inkscape="http://www.inkscape.org/namespaces/inkscape"
   xmlns:sodipodi="http://sodipodi.sourceforge.net/DTD/sodipodi-0.dtd"
   xmlns:xlink="http://www.w3.org/1999/xlink"
   xmlns="http://www.w3.org/2000/svg"
   xmlns:svg="http://www.w3.org/2000/svg">
  <defs
     id="defs9">
    <radialGradient
       inkscape:collect="always"
       xlink:href="#linearGradient10"
       id="radialGradient11"
       cx="14.225233"
       cy="51.194752"
       fx="14.225233"
       fy="51.194752"
       r="17"
       gradientTransform="matrix(3.5998701,-0.96458229,0.68088161,2.5410848,-68.841324,-69.525442)"
       gradientUnits="userSpaceOnUse" />
    <linearGradient
       id="linearGradient10"
       inkscape:collect="always">
      <stop
         style="stop-color:#fe8b38;stop-opacity:1;"
         offset="0"
         id="stop10" />
      <stop
         style="stop-color:#feb938;stop-opacity:1;"
         offset="1"
         id="stop11" />
    </linearGradient>
  </defs>
  <sodipodi:namedview
     id="namedview9"
     pagecolor="#ffffff"
     bordercolor="#000000"
     borderopacity="0.25"
     inkscape:showpageshadow="2"
     inkscape:pageopacity="0.0"
     inkscape:pagecheckerboard="0"
     inkscape:deskcolor="#d1d1d1"
     inkscape:zoom="12.6875"
     inkscape:cx="24.591133"
     inkscape:cy="28.256158"
     inkscape:window-width="1920"
     inkscape:window-height="1020"
     inkscape:window-x="0"
     inkscape:window-y="0"
     inkscape:window-maximized="1"
     inkscape:current-layer="svg9" />
  <g
     id="g1"
     transform="translate(-3,-1)">
    <path
       id="rect1"
       style="fill:#828282"
       d="m 32,45 v 9 H 9 c -1.662,0 -3,1.338 -3,3 0,1.662 1.338,3 3,3 h 52 c 1.662,0 3,-1.338 3,-3 0,-1.662 -1.338,-3 -3,-3 H 38 v -9 z" />
    <path
       style="fill:#e4e4e4"
       d="M 35,4 C 27.8,4 22,9.8 22,17 V 34 H 48 V 17 C 48,9.8 42.2,4 35,4 Z m 0,6 c 3.9,0 7,3.1 7,7 V 28 H 28 V 17 c 0,-3.9 3.1,-7 7,-7 z"
       id="path2" />
    <rect
       style="fill:url(#radialGradient11);fill-opacity:1"
       width="34"
       height="24"
       x="18"
       y="22"
       rx="2.8"
       ry="2.8"
       id="rect3" />
    <rect
       style="opacity:0.3;fill:#ffffff"
       width="34"
       height="16"
       x="18"
       y="26"
       id="rect4" />
    <rect
       style="fill:#afafb1"
       width="20"
       height="10"
       x="25"
       y="52"
       id="rect7"
       rx="5"
       ry="5" />
    <path
       style="opacity:0.2;fill:#ffffff"
       d="M 35,4 C 27.8,4 22,9.8 22,17 v 1 C 22,10.8 27.8,5 35,5 42.2,5 48,10.8 48,18 V 17 C 48,9.8 42.2,4 35,4 Z"
       id="path9" />
  </g>
</svg>
