<?xml version="1.0" encoding="UTF-8" standalone="no"?>
<svg
   width="64"
   height="64"
   version="1"
   id="svg8"
   sodipodi:docname="gnome-dev-ethernet.svg"
   inkscape:version="1.4 (e7c3feb100, 2024-10-09)"
   xmlns:inkscape="http://www.inkscape.org/namespaces/inkscape"
   xmlns:sodipodi="http://sodipodi.sourceforge.net/DTD/sodipodi-0.dtd"
   xmlns:xlink="http://www.w3.org/1999/xlink"
   xmlns="http://www.w3.org/2000/svg"
   xmlns:svg="http://www.w3.org/2000/svg">
  <defs
     id="defs8">
    <inkscape:path-effect
       effect="fillet_chamfer"
       id="path-effect5"
       is_visible="true"
       lpeversion="1"
       nodesatellites_param="F,0,1,1,0,2.0354679,0,1 @ F,0,1,1,0,2.0354679,0,1 @ F,0,1,1,0,2.0354679,0,1 @ F,0,1,1,0,2.0354679,0,1 | F,0,1,1,0,2.0354679,0,1 @ F,0,1,1,0,2.0354679,0,1 @ F,0,1,1,0,2.0354679,0,1 @ F,0,1,1,0,2.0354679,0,1 | F,0,1,1,0,2.0354679,0,1 @ F,0,1,1,0,2.0354679,0,1 @ F,0,1,1,0,2.0354679,0,1 @ F,0,1,1,0,2.0354679,0,1 | F,0,1,1,0,2.0354679,0,1 @ F,0,1,1,0,2.0354679,0,1 @ F,0,1,1,0,2.0354679,0,1 @ F,0,1,1,0,2.0354679,0,1 | F,0,1,1,0,2.0354679,0,1 @ F,0,1,1,0,2.0354679,0,1 @ F,0,1,1,0,2.0354679,0,1 @ F,0,0,1,0,2.0354679,0,1"
       radius="0"
       unit="px"
       method="auto"
       mode="F"
       chamfer_steps="1"
       flexible="false"
       use_knot_distance="true"
       apply_no_radius="true"
       apply_with_radius="true"
       only_selected="false"
       hide_knots="false" />
    <inkscape:path-effect
       effect="fillet_chamfer"
       id="path-effect4"
       is_visible="true"
       lpeversion="1"
       nodesatellites_param=""
       radius="0"
       unit="px"
       method="auto"
       mode="F"
       chamfer_steps="1"
       flexible="false"
       use_knot_distance="true"
       apply_no_radius="true"
       apply_with_radius="true"
       only_selected="false"
       hide_knots="false" />
    <inkscape:path-effect
       effect="fillet_chamfer"
       id="path-effect3"
       is_visible="true"
       lpeversion="1"
       nodesatellites_param=""
       radius="0"
       unit="px"
       method="auto"
       mode="F"
       chamfer_steps="1"
       flexible="false"
       use_knot_distance="true"
       apply_no_radius="true"
       apply_with_radius="true"
       only_selected="false"
       hide_knots="false" />
    <inkscape:path-effect
       effect="fillet_chamfer"
       id="path-effect2"
       is_visible="true"
       lpeversion="1"
       nodesatellites_param="F,0,0,1,0,2.8119908,0,1 @ F,0,0,1,0,2.8119908,0,1 @ F,0,1,1,0,10.976441,0,1 @ F,0,1,1,0,10.976441,0,1 @ F,0,0,1,0,10.976441,0,1 @ F,0,1,1,0,10.976441,0,1 @ F,0,0,1,0,2.8119908,0,1 @ F,0,0,1,0,2.8119908,0,1"
       radius="0"
       unit="px"
       method="auto"
       mode="F"
       chamfer_steps="1"
       flexible="false"
       use_knot_distance="true"
       apply_no_radius="true"
       apply_with_radius="true"
       only_selected="false"
       hide_knots="false" />
    <inkscape:path-effect
       effect="fillet_chamfer"
       id="path-effect1"
       is_visible="true"
       lpeversion="1"
       nodesatellites_param="F,0,1,1,0,2.8267781,0,1 @ F,0,1,1,0,2.8267781,0,1 @ F,0,1,1,0,2.8267781,0,1 @ F,0,1,1,0,2.8267781,0,1 @ F,0,1,1,0,2.8267781,0,1 @ F,0,1,1,0,2.8267781,0,1 @ F,0,0,1,0,2.8267781,0,1 @ F,0,1,1,0,2.8267781,0,1"
       radius="0"
       unit="px"
       method="auto"
       mode="F"
       chamfer_steps="1"
       flexible="false"
       use_knot_distance="true"
       apply_no_radius="true"
       apply_with_radius="true"
       only_selected="false"
       hide_knots="false" />
    <linearGradient
       id="linearGradient9"
       inkscape:collect="always">
      <stop
         style="stop-color:#f8c44e;stop-opacity:1;"
         offset="0"
         id="stop9" />
      <stop
         style="stop-color:#f8a14e;stop-opacity:1;"
         offset="1"
         id="stop10" />
    </linearGradient>
    <radialGradient
       inkscape:collect="always"
       xlink:href="#linearGradient9"
       id="radialGradient1"
       cx="16.098173"
       cy="14.255119"
       fx="16.098173"
       fy="14.255119"
       r="14"
       gradientTransform="matrix(0.78419118,0.62051929,-1.5546741,1.9647443,25.636193,-51.389016)"
       gradientUnits="userSpaceOnUse" />
    <radialGradient
       inkscape:collect="always"
       xlink:href="#linearGradient9"
       id="radialGradient2"
       cx="16.098173"
       cy="14.255119"
       fx="16.098173"
       fy="14.255119"
       r="14"
       gradientTransform="matrix(0.78419118,0.62051929,-1.5546741,1.9647443,25.636193,-51.389016)"
       gradientUnits="userSpaceOnUse" />
    <radialGradient
       inkscape:collect="always"
       xlink:href="#linearGradient9"
       id="radialGradient4"
       cx="16.098173"
       cy="14.255119"
       fx="16.098173"
       fy="14.255119"
       r="14"
       gradientTransform="matrix(0.78419118,0.62051929,-1.5546741,1.9647443,25.636193,-51.389016)"
       gradientUnits="userSpaceOnUse" />
    <radialGradient
       inkscape:collect="always"
       xlink:href="#linearGradient9"
       id="radialGradient6"
       cx="16.098173"
       cy="14.255119"
       fx="16.098173"
       fy="14.255119"
       r="14"
       gradientTransform="matrix(0.78419118,0.62051929,-1.5546741,1.9647443,25.636193,-51.389016)"
       gradientUnits="userSpaceOnUse" />
    <radialGradient
       inkscape:collect="always"
       xlink:href="#linearGradient9"
       id="radialGradient8"
       cx="16.098173"
       cy="14.255119"
       fx="16.098173"
       fy="14.255119"
       r="14"
       gradientTransform="matrix(0.78419118,0.62051929,-1.5546741,1.9647443,25.636193,-51.389016)"
       gradientUnits="userSpaceOnUse" />
    <radialGradient
       inkscape:collect="always"
       xlink:href="#linearGradient6"
       id="radialGradient12"
       cx="7.9728637"
       cy="50.236794"
       fx="7.9728637"
       fy="50.236794"
       r="28"
       gradientTransform="matrix(3.0062894,1.3256936,-1.0446712,2.3690117,36.485055,-82.949589)"
       gradientUnits="userSpaceOnUse" />
    <radialGradient
       inkscape:collect="always"
       xlink:href="#linearGradient12"
       id="radialGradient14"
       gradientUnits="userSpaceOnUse"
       gradientTransform="matrix(2.6138886,0,5.5082764e-8,2.9437339,-25.980658,-55.355402)"
       cx="16.098173"
       cy="14.255119"
       fx="16.098173"
       fy="14.255119"
       r="14" />
    <inkscape:path-effect
       effect="fillet_chamfer"
       id="path-effect13-5"
       is_visible="true"
       lpeversion="1"
       nodesatellites_param="F,0,1,1,0,1.4926814,0,1 @ F,0,1,1,0,1.4926814,0,1 @ F,0,1,1,0,1.4926814,0,1 @ F,0,1,1,0,1.4926814,0,1 | F,0,1,1,0,1.4926814,0,1 @ F,0,1,1,0,1.4926814,0,1 @ F,0,1,1,0,1.4926814,0,1 @ F,0,1,1,0,1.4926814,0,1 | F,0,1,1,0,1.4926814,0,1 @ F,0,1,1,0,1.4926814,0,1 @ F,0,1,1,0,1.4926814,0,1 @ F,0,1,1,0,1.4926814,0,1 | F,0,1,1,0,1.4926814,0,1 @ F,0,1,1,0,1.4926814,0,1 @ F,0,1,1,0,1.4926814,0,1 @ F,0,1,1,0,1.4926814,0,1 | F,0,1,1,0,1.4926814,0,1 @ F,0,1,1,0,1.4926814,0,1 @ F,0,1,1,0,1.4926814,0,1 @ F,0,1,1,0,1.4926814,0,1 | F,0,1,1,0,1.4926814,0,1 @ F,0,1,1,0,1.4926814,0,1 @ F,0,1,1,0,1.4926814,0,1 @ F,0,1,1,0,1.4926814,0,1 | F,0,1,1,0,1.4926814,0,1 @ F,0,1,1,0,1.4926814,0,1 @ F,0,1,1,0,1.4926814,0,1 @ F,0,1,1,0,1.4926814,0,1 | F,0,1,1,0,1.4926814,0,1 @ F,0,0,1,0,1.4926814,0,1 @ F,0,1,1,0,1.4926814,0,1 @ F,0,1,1,0,1.4926814,0,1 | F,0,1,1,0,1.4926814,0,1 @ F,0,1,1,0,1.4926814,0,1 @ F,0,1,1,0,1.4926814,0,1 @ F,0,1,1,0,1.4926814,0,1"
       radius="0"
       unit="px"
       method="auto"
       mode="F"
       chamfer_steps="1"
       flexible="false"
       use_knot_distance="true"
       apply_no_radius="true"
       apply_with_radius="true"
       only_selected="false"
       hide_knots="false" />
    <linearGradient
       id="linearGradient12"
       inkscape:collect="always">
      <stop
         style="stop-color:#f8c44e;stop-opacity:1;"
         offset="0"
         id="stop12" />
      <stop
         style="stop-color:#f8a44e;stop-opacity:1;"
         offset="1"
         id="stop13-3" />
    </linearGradient>
    <inkscape:path-effect
       effect="fillet_chamfer"
       id="path-effect13"
       is_visible="true"
       lpeversion="1"
       nodesatellites_param="F,0,1,1,0,1.4926814,0,1 @ F,0,1,1,0,1.4926814,0,1 @ F,0,1,1,0,1.4926814,0,1 @ F,0,1,1,0,1.4926814,0,1 | F,0,1,1,0,1.4926814,0,1 @ F,0,1,1,0,1.4926814,0,1 @ F,0,1,1,0,1.4926814,0,1 @ F,0,1,1,0,1.4926814,0,1 | F,0,1,1,0,1.4926814,0,1 @ F,0,1,1,0,1.4926814,0,1 @ F,0,1,1,0,1.4926814,0,1 @ F,0,1,1,0,1.4926814,0,1 | F,0,1,1,0,1.4926814,0,1 @ F,0,1,1,0,1.4926814,0,1 @ F,0,1,1,0,1.4926814,0,1 @ F,0,1,1,0,1.4926814,0,1 | F,0,1,1,0,1.4926814,0,1 @ F,0,1,1,0,1.4926814,0,1 @ F,0,1,1,0,1.4926814,0,1 @ F,0,1,1,0,1.4926814,0,1 | F,0,1,1,0,1.4926814,0,1 @ F,0,1,1,0,1.4926814,0,1 @ F,0,1,1,0,1.4926814,0,1 @ F,0,1,1,0,1.4926814,0,1 | F,0,1,1,0,1.4926814,0,1 @ F,0,1,1,0,1.4926814,0,1 @ F,0,1,1,0,1.4926814,0,1 @ F,0,1,1,0,1.4926814,0,1 | F,0,1,1,0,1.4926814,0,1 @ F,0,0,1,0,1.4926814,0,1 @ F,0,1,1,0,1.4926814,0,1 @ F,0,1,1,0,1.4926814,0,1 | F,0,1,1,0,1.4926814,0,1 @ F,0,1,1,0,1.4926814,0,1 @ F,0,1,1,0,1.4926814,0,1 @ F,0,1,1,0,1.4926814,0,1"
       radius="0"
       unit="px"
       method="auto"
       mode="F"
       chamfer_steps="1"
       flexible="false"
       use_knot_distance="true"
       apply_no_radius="true"
       apply_with_radius="true"
       only_selected="false"
       hide_knots="false" />
    <linearGradient
       id="linearGradient6"
       inkscape:collect="always">
      <stop
         style="stop-color:#4c4c4c;stop-opacity:1;"
         offset="0"
         id="stop6" />
      <stop
         style="stop-color:#727272;stop-opacity:1;"
         offset="1"
         id="stop7" />
    </linearGradient>
    <inkscape:path-effect
       effect="fillet_chamfer"
       id="path-effect1-3"
       is_visible="true"
       lpeversion="1"
       nodesatellites_param="F,0,1,1,0,2.8267781,0,1 @ F,0,1,1,0,2.8267781,0,1 @ F,0,1,1,0,2.8267781,0,1 @ F,0,1,1,0,2.8267781,0,1 @ F,0,1,1,0,2.8267781,0,1 @ F,0,1,1,0,2.8267781,0,1 @ F,0,0,1,0,2.8267781,0,1 @ F,0,1,1,0,2.8267781,0,1"
       radius="0"
       unit="px"
       method="auto"
       mode="F"
       chamfer_steps="1"
       flexible="false"
       use_knot_distance="true"
       apply_no_radius="true"
       apply_with_radius="true"
       only_selected="false"
       hide_knots="false" />
    <filter
       inkscape:collect="always"
       style="color-interpolation-filters:sRGB"
       id="filter2"
       x="-0.11705515"
       y="-0.14631894"
       width="1.2341103"
       height="1.2926379">
      <feGaussianBlur
         inkscape:collect="always"
         stdDeviation="1.9509191"
         id="feGaussianBlur2" />
    </filter>
  </defs>
  <sodipodi:namedview
     id="namedview8"
     pagecolor="#ffffff"
     bordercolor="#000000"
     borderopacity="0.25"
     inkscape:showpageshadow="2"
     inkscape:pageopacity="0.0"
     inkscape:pagecheckerboard="0"
     inkscape:deskcolor="#d1d1d1"
     inkscape:zoom="12.6875"
     inkscape:cx="8.1182266"
     inkscape:cy="25.812808"
     inkscape:window-width="1920"
     inkscape:window-height="1020"
     inkscape:window-x="0"
     inkscape:window-y="0"
     inkscape:window-maximized="1"
     inkscape:current-layer="svg8" />
  <path
     style="fill:url(#radialGradient12)"
     d="m 18.01162,53.011622 -0.02324,-0.02324 A 6.7887463,6.7887463 22.5 0 0 13.188007,51 10.121802,10.121802 50.068433 0 1 3.999998,40.023559 V 17.976441 A 10.976441,10.976441 135 0 1 14.976439,7.0000004 H 49.023557 A 10.976441,10.976441 45 0 1 59.999998,17.976441 V 40.023559 A 10.976441,10.976441 135 0 1 49.023557,51 4.7154814,4.7154814 146.56857 0 0 46.01162,52.988378 l -0.02324,0.02324 A 6.7887463,6.7887463 157.5 0 1 41.188007,55 H 22.811989 A 6.7887463,6.7887463 22.5 0 1 18.01162,53.011622 Z"
     id="path2"
     inkscape:path-effect="#path-effect2"
     inkscape:original-d="m 19.999998,55 -4,-4 h -12 V 7.0000004 h 56 V 51 h -12 l -4,4 z"
     sodipodi:nodetypes="ccccccccc" />
  <path
     style="opacity:0.45;filter:url(#filter2)"
     d="m 22.001164,45.001166 -0.0023,-0.0023 A 6.824446,6.824446 22.5 0 0 17.17322,43 H 14.826776 A 2.8267781,2.8267781 45 0 1 11.999998,40.173222 V 17.826778 A 2.8267781,2.8267781 135 0 1 14.826776,15 H 49.17322 a 2.8267781,2.8267781 45 0 1 2.826778,2.826778 V 40.173222 A 2.8267781,2.8267781 135 0 1 49.17322,43 h -2.346444 a 6.824446,6.824446 157.5 0 0 -4.825612,1.998834 l -0.0023,0.0023 A 6.824446,6.824446 157.5 0 1 37.17322,47 H 26.826776 a 6.824446,6.824446 22.5 0 1 -4.825612,-1.998834 z"
     id="path3-5"
     inkscape:path-effect="#path-effect1-3"
     inkscape:original-d="m 23.999998,47 -4,-4 h -8 V 15 h 40 v 28 h -8 l -4,4 z" />
  <path
     style="opacity:0.45"
     d="m 22.001164,45.001166 -0.0023,-0.0023 A 6.824446,6.824446 22.5 0 0 17.17322,43 H 14.826776 A 2.8267781,2.8267781 45 0 1 11.999998,40.173222 V 17.826778 A 2.8267781,2.8267781 135 0 1 14.826776,15 H 49.17322 a 2.8267781,2.8267781 45 0 1 2.826778,2.826778 V 40.173222 A 2.8267781,2.8267781 135 0 1 49.17322,43 h -2.346444 a 6.824446,6.824446 157.5 0 0 -4.825612,1.998834 l -0.0023,0.0023 A 6.824446,6.824446 157.5 0 1 37.17322,47 H 26.826776 a 6.824446,6.824446 22.5 0 1 -4.825612,-1.998834 z"
     id="path3"
     inkscape:path-effect="#path-effect1"
     inkscape:original-d="m 23.999998,47 -4,-4 h -8 V 15 h 40 v 28 h -8 l -4,4 z" />
  <path
     d="M 18,17.035468 A 2.0003145,2.0003145 43.984026 0 0 20.035468,19 2.0003145,2.0003145 133.98403 0 0 22,16.964532 2.0003145,2.0003145 43.984026 0 0 19.964532,15 2.0003145,2.0003145 133.98403 0 0 18,17.035468 Z m 6,0 A 2.0003145,2.0003145 43.984026 0 0 26.035468,19 2.0003145,2.0003145 133.98403 0 0 28,16.964532 2.0003145,2.0003145 43.984026 0 0 25.964532,15 2.0003145,2.0003145 133.98403 0 0 24,17.035468 Z m 6,0 A 2.0003145,2.0003145 43.984026 0 0 32.035468,19 2.0003145,2.0003145 133.98403 0 0 34,16.964532 2.0003145,2.0003145 43.984026 0 0 31.964532,15 2.0003145,2.0003145 133.98403 0 0 30,17.035468 Z m 6,0 A 2.0003145,2.0003145 43.984026 0 0 38.035468,19 2.0003145,2.0003145 133.98403 0 0 40,16.964532 2.0003145,2.0003145 43.984026 0 0 37.964532,15 2.0003145,2.0003145 133.98403 0 0 36,17.035468 Z m 6,0 A 2.0003145,2.0003145 43.984026 0 0 44.035468,19 2.0003145,2.0003145 133.98403 0 0 46,16.964532 2.0003145,2.0003145 43.984026 0 0 43.964532,15 2.0003145,2.0003145 133.98403 0 0 42,17.035468 Z"
     style="baseline-shift:baseline;display:inline;overflow:visible;vector-effect:none;fill:url(#radialGradient14);enable-background:accumulate;stop-color:#000000;stop-opacity:1"
     id="path1"
     inkscape:path-effect="#path-effect5"
     inkscape:original-d="m 18,15 v 4 h 4 v -4 z m 6,0 v 4 h 4 v -4 z m 6,0 v 4 h 4 v -4 z m 6,0 v 4 h 4 v -4 z m 6,0 v 4 h 4 v -4 z" />
</svg>
