<?xml version="1.0" encoding="UTF-8" standalone="no"?>
<svg
   width="64"
   height="64"
   version="1"
   id="svg7"
   sodipodi:docname="network-modem.svg"
   inkscape:version="1.4 (e7c3feb100, 2024-10-09)"
   xmlns:inkscape="http://www.inkscape.org/namespaces/inkscape"
   xmlns:sodipodi="http://sodipodi.sourceforge.net/DTD/sodipodi-0.dtd"
   xmlns:xlink="http://www.w3.org/1999/xlink"
   xmlns="http://www.w3.org/2000/svg"
   xmlns:svg="http://www.w3.org/2000/svg">
  <defs
     id="defs7">
    <linearGradient
       id="linearGradient8"
       inkscape:collect="always">
      <stop
         style="stop-color:#a4a2a2;stop-opacity:1;"
         offset="0"
         id="stop9" />
      <stop
         style="stop-color:#9b9b9b;stop-opacity:1;"
         offset="1"
         id="stop10" />
    </linearGradient>
    <linearGradient
       id="linearGradient7"
       inkscape:collect="always">
      <stop
         style="stop-color:#737373;stop-opacity:1;"
         offset="0"
         id="stop7" />
      <stop
         style="stop-color:#4f4f4f;stop-opacity:1;"
         offset="1"
         id="stop8" />
    </linearGradient>
    <radialGradient
       inkscape:collect="always"
       xlink:href="#linearGradient7"
       id="radialGradient8"
       cx="14.730002"
       cy="45.746136"
       fx="14.730002"
       fy="45.746136"
       r="28"
       gradientTransform="matrix(1.533428,-0.50595543,0.28731265,0.87077483,-19.466413,17.598394)"
       gradientUnits="userSpaceOnUse" />
    <radialGradient
       inkscape:collect="always"
       xlink:href="#linearGradient8"
       id="radialGradient10"
       cx="3.7964649"
       cy="2.3083963"
       fx="3.7964649"
       fy="2.3083963"
       r="17"
       gradientTransform="matrix(1.8637717,0.01655887,-0.01726738,1.9435158,-1.8419803,-17.488511)"
       gradientUnits="userSpaceOnUse" />
    <filter
       inkscape:collect="always"
       style="color-interpolation-filters:sRGB"
       id="filter1"
       x="-0.09773881"
       y="-0.09773881"
       width="1.1954776"
       height="1.1954776">
      <feGaussianBlur
         inkscape:collect="always"
         stdDeviation="2.1050458"
         id="feGaussianBlur1" />
    </filter>
    <filter
       inkscape:collect="always"
       style="color-interpolation-filters:sRGB"
       id="filter2"
       x="-0.14348025"
       y="-0.33478723"
       width="1.2869605"
       height="1.6695745">
      <feGaussianBlur
         inkscape:collect="always"
         stdDeviation="0.91015869"
         id="feGaussianBlur2" />
    </filter>
  </defs>
  <sodipodi:namedview
     id="namedview7"
     pagecolor="#ffffff"
     bordercolor="#000000"
     borderopacity="0.25"
     inkscape:showpageshadow="2"
     inkscape:pageopacity="0.0"
     inkscape:pagecheckerboard="0"
     inkscape:deskcolor="#d1d1d1"
     inkscape:zoom="8.9714173"
     inkscape:cx="16.775499"
     inkscape:cy="29.593986"
     inkscape:window-width="1920"
     inkscape:window-height="1020"
     inkscape:window-x="0"
     inkscape:window-y="0"
     inkscape:window-maximized="1"
     inkscape:current-layer="svg7" />
  <rect
     style="fill:url(#radialGradient10);stroke-width:0.950452"
     width="32.315357"
     height="5.7027097"
     x="5.3873539"
     y="-18.693678"
     ry="2.8513548"
     transform="rotate(90)"
     id="rect2" />
  <rect
     style="fill:url(#radialGradient8);stroke-width:0.950452"
     width="53.225292"
     height="26.612646"
     x="5.3656034"
     y="32"
     rx="7.892673"
     ry="7.892673"
     id="rect3" />
  <path
     id="rect2-3"
     style="fill:none;stroke-width:0.3;stroke:#000000;stroke-opacity:1;stroke-dasharray:none;filter:url(#filter1)"
     d="m 15.864258,5.3876955 c -1.579649,0 -2.851562,1.2719135 -2.851562,2.851562 V 32.014648 c -4.2464377,0.1415 -7.6250005,3.596816 -7.6250005,7.878906 v 10.826172 c 0,4.372538 3.5200416,7.892578 7.8925785,7.892578 h 37.439452 c 4.372538,0 7.892578,-3.52004 7.892578,-7.892578 V 39.893554 c 0,-4.372535 -3.52004,-7.892578 -7.892578,-7.892578 H 18.71582 V 8.2392575 c 0,-1.5796485 -1.271913,-2.851562 -2.851562,-2.851562 z" />
  <g
     id="g1"
     transform="translate(20.030127,0.62843704)"
     style="filter:url(#filter2);opacity:0.45180973">
    <circle
       style="fill:#00ff97;fill-opacity:1;stroke-width:0.543724"
       cx="30.109701"
       cy="50.355938"
       r="3.262342"
       id="circle4-3" />
    <circle
       style="fill:#00fff4;fill-opacity:1;stroke-width:0.543724"
       cx="21.410124"
       cy="50.355938"
       r="3.262342"
       id="circle6-6" />
  </g>
  <path
     id="circle4"
     style="fill:#ffffff;stroke-width:0.543724;fill-opacity:1;opacity:0.51161491"
     d="M 41.441406 47.722656 A 3.262342 3.262342 0 0 0 38.177734 50.984375 A 3.262342 3.262342 0 0 0 41.441406 54.246094 A 3.262342 3.262342 0 0 0 44.703125 50.984375 A 3.262342 3.262342 0 0 0 41.441406 47.722656 z M 50.140625 47.722656 A 3.262342 3.262342 0 0 0 46.876953 50.984375 A 3.262342 3.262342 0 0 0 50.140625 54.246094 A 3.262342 3.262342 0 0 0 53.402344 50.984375 A 3.262342 3.262342 0 0 0 50.140625 47.722656 z " />
</svg>
