<?xml version="1.0" encoding="UTF-8" standalone="no"?>
<svg
   width="64"
   height="64"
   version="1"
   id="svg9"
   sodipodi:docname="uninterruptible-power-supply.svg"
   inkscape:version="1.4 (e7c3feb100, 2024-10-09)"
   xmlns:inkscape="http://www.inkscape.org/namespaces/inkscape"
   xmlns:sodipodi="http://sodipodi.sourceforge.net/DTD/sodipodi-0.dtd"
   xmlns:xlink="http://www.w3.org/1999/xlink"
   xmlns="http://www.w3.org/2000/svg"
   xmlns:svg="http://www.w3.org/2000/svg">
  <defs
     id="defs9">
    <linearGradient
       id="linearGradient6"
       inkscape:collect="always">
      <stop
         style="stop-color:#4c4c4c;stop-opacity:1;"
         offset="0"
         id="stop6" />
      <stop
         style="stop-color:#727272;stop-opacity:1;"
         offset="1"
         id="stop7" />
    </linearGradient>
    <radialGradient
       inkscape:collect="always"
       xlink:href="#linearGradient6"
       id="radialGradient10"
       cx="-62.130398"
       cy="-1.0320994"
       fx="-62.130398"
       fy="-1.0320994"
       r="28"
       gradientTransform="matrix(3.1060734,0,0,2.4404863,130.85118,-5.1492538)"
       gradientUnits="userSpaceOnUse" />
    <filter
       inkscape:collect="always"
       style="color-interpolation-filters:sRGB"
       id="filter10"
       x="-0.45804558"
       y="-0.19630525"
       width="1.9160912"
       height="1.3926105">
      <feGaussianBlur
         inkscape:collect="always"
         stdDeviation="1.145114"
         id="feGaussianBlur10" />
    </filter>
  </defs>
  <sodipodi:namedview
     id="namedview9"
     pagecolor="#505050"
     bordercolor="#eeeeee"
     borderopacity="1"
     inkscape:showpageshadow="0"
     inkscape:pageopacity="0"
     inkscape:pagecheckerboard="0"
     inkscape:deskcolor="#505050"
     inkscape:zoom="18.453125"
     inkscape:cx="56.304826"
     inkscape:cy="32"
     inkscape:current-layer="svg9" />
  <rect
     style="fill:url(#radialGradient10)"
     width="56"
     height="44"
     x="-60"
     y="-54"
     rx="4"
     ry="4"
     transform="matrix(0,-1,-1,0,0,0)"
     id="rect2" />
  <path
     id="path2"
     style="opacity:0.45;fill:#000000;fill-opacity:1"
     d="M 18 4 L 18 34 C 18 41.756 24.244 48 32 48 C 39.756 48 46 41.756 46 34 L 46 4 L 18 4 z M 32 28 A 6 6 0 0 1 38 34 A 6 6 0 0 1 32 40 A 6 6 0 0 1 26 34 A 6 6 0 0 1 32 28 z M 10 32 L 10 34 L 13 34 C 13.554 34 14 33.554 14 33 C 14 32.446 13.554 32 13 32 L 10 32 z M 51 32 C 50.446 32 50 32.446 50 33 C 50 33.554 50.446 34 51 34 L 54 34 L 54 32 L 51 32 z M 10 36 L 10 38 L 13 38 C 13.554 38 14 37.554 14 37 C 14 36.446 13.554 36 13 36 L 10 36 z M 51 36 C 50.446 36 50 36.446 50 37 C 50 37.554 50.446 38 51 38 L 54 38 L 54 36 L 51 36 z M 10 40 L 10 42 L 13 42 C 13.554 42 14 41.554 14 41 C 14 40.446 13.554 40 13 40 L 10 40 z M 51 40 C 50.446 40 50 40.446 50 41 C 50 41.554 50.446 42 51 42 L 54 42 L 54 40 L 51 40 z M 15 56 L 15 60 L 49 60 L 49 56 L 15 56 z " />
  <circle
     style="fill:#ffffff;fill-opacity:1;opacity:0.4260951"
     cx="32"
     cy="21"
     r="3"
     id="circle6" />
  <g
     id="g10"
     transform="translate(-9.1287041,-0.08890724)"
     style="filter:url(#filter10)">
    <circle
       style="fill:#ff6e40"
       cx="41.128704"
       cy="21.088907"
       r="3"
       id="circle6-6" />
    <circle
       style="fill:#76ff03"
       cx="41.128704"
       cy="13.088907"
       r="3"
       id="circle8-7" />
  </g>
  <circle
     style="fill:#ffffff;fill-opacity:1;opacity:0.4260951"
     cx="32"
     cy="13"
     r="3"
     id="circle8" />
</svg>
