<?xml version="1.0" encoding="UTF-8" standalone="no"?>
<svg
   width="16"
   height="16"
   version="1.1"
   id="svg2"
   sodipodi:docname="process-working-symbolic.svg"
   inkscape:version="1.3.2 (091e20ef0f, 2023-11-25, custom)"
   xmlns:inkscape="http://www.inkscape.org/namespaces/inkscape"
   xmlns:sodipodi="http://sodipodi.sourceforge.net/DTD/sodipodi-0.dtd"
   xmlns="http://www.w3.org/2000/svg"
   xmlns:svg="http://www.w3.org/2000/svg">
  <defs
     id="defs2" />
  <sodipodi:namedview
     id="namedview2"
     pagecolor="#ffffff"
     bordercolor="#000000"
     borderopacity="0.25"
     inkscape:showpageshadow="2"
     inkscape:pageopacity="0.0"
     inkscape:pagecheckerboard="0"
     inkscape:deskcolor="#d1d1d1"
     inkscape:zoom="55.5625"
     inkscape:cx="8"
     inkscape:cy="8"
     inkscape:window-width="1920"
     inkscape:window-height="1018"
     inkscape:window-x="0"
     inkscape:window-y="0"
     inkscape:window-maximized="1"
     inkscape:current-layer="svg2" />
  <path
     style="opacity:0.15;fill:#dfdfdf"
     d="M 8 1 A 7 7 0 0 0 1 8 A 7 7 0 0 0 8 15 A 7 7 0 0 0 15 8 A 7 7 0 0 0 8 1 z M 8 3 A 5 5 0 0 1 13 8 A 5 5 0 0 1 8 13 A 5 5 0 0 1 3 8 A 5 5 0 0 1 8 3 z"
     id="path1" />
  <path
     style="fill:#009eff;fill-opacity:1"
     d="M 8,1 C 6.14,1 4.36,1.74 3.05,3.05 1.74,4.36 1,6.14 1,8 A 1,1 0 0 0 2,9 1,1 0 0 0 3,8 C 3,6.67 3.53,5.4 4.46,4.46 5.4,3.53 6.67,3 8,3 A 1,1 0 0 0 9,2 1,1 0 0 0 8,1 Z"
     id="path2" />
</svg>
