<?xml version="1.0" encoding="UTF-8" standalone="no"?>
<svg
   width="16"
   height="16"
   version="1.1"
   id="svg1"
   sodipodi:docname="budgie-start-here-symbolic.svg"
   inkscape:version="1.4 (e7c3feb100, 2024-10-09)"
   xmlns:inkscape="http://www.inkscape.org/namespaces/inkscape"
   xmlns:sodipodi="http://sodipodi.sourceforge.net/DTD/sodipodi-0.dtd"
   xmlns:xlink="http://www.w3.org/1999/xlink"
   xmlns="http://www.w3.org/2000/svg"
   xmlns:svg="http://www.w3.org/2000/svg">
  <defs
     id="defs1">
    <radialGradient
       id="SVGID_1_-3-2-7"
       cx="-159.43106"
       cy="15.462561"
       r="64.706802"
       gradientTransform="matrix(-0.89413329,0,0,0.96304834,-80.753654,49.330428)"
       gradientUnits="userSpaceOnUse"
       fx="-159.43106"
       fy="15.462561">
      <stop
         offset="0"
         style="stop-color:#006fff;stop-opacity:1;"
         id="stop1-6-9-5" />
      <stop
         offset="1"
         style="stop-color:#15baff;stop-opacity:1;"
         id="stop2-7-1-3" />
    </radialGradient>
    <inkscape:path-effect
       effect="fillet_chamfer"
       id="path-effect3"
       is_visible="true"
       lpeversion="1"
       nodesatellites_param="F,0,0,1,0,0,0,1 @ F,0,0,1,0,0,0,1 @ F,0,0,1,0,0,0,1 @ F,0,0,1,0,0,0,1 @ F,0,0,1,0,0,0,1 @ F,0,0,1,0,0,0,1 @ F,0,0,1,0,1.1428941,0,1 @ F,0,1,1,0,1.1428941,0,1"
       radius="0"
       unit="px"
       method="auto"
       mode="F"
       chamfer_steps="1"
       flexible="false"
       use_knot_distance="true"
       apply_no_radius="true"
       apply_with_radius="true"
       only_selected="false"
       hide_knots="false" />
    <radialGradient
       inkscape:collect="always"
       xlink:href="#SVGID_1_-3-2-7"
       id="radialGradient2"
       cx="8"
       cy="8"
       fx="8"
       fy="8"
       r="8"
       gradientUnits="userSpaceOnUse" />
  </defs>
  <sodipodi:namedview
     id="namedview1"
     pagecolor="#ffffff"
     bordercolor="#000000"
     borderopacity="0.25"
     inkscape:showpageshadow="2"
     inkscape:pageopacity="0.0"
     inkscape:pagecheckerboard="0"
     inkscape:deskcolor="#d1d1d1"
     inkscape:zoom="20.68072"
     inkscape:cx="-22.895722"
     inkscape:cy="8.6312277"
     inkscape:current-layer="svg1" />
  <path
     style="fill:url(#radialGradient2)"
     d="M 8,0 C 3.581722,0 0,3.581722 0,8 c 0,4.418278 3.581722,8 8,8 4.418278,0 8,-3.581722 8,-8 C 16,3.581722 12.418278,0 8,0 Z M 9.3652344,4 C 11.444792,4 12.538402,5.4571843 13.058594,6.6992188 L 14.5,7 13.0625,7.6601562 C 13.173959,8.8834659 12.617381,10.157907 11.857422,11.085938 11.127862,11.99287 10.16465,12.49964 9.0703125,12.794922 7.4896001,13.216752 5.6643146,12.994433 4.2558594,12.066406 3.435105,11.475843 2.7064596,10.600672 2.2910156,9.5566406 1.9566345,8.5231554 1.9355325,7.4905165 2.0976562,6.4570312 2.2597818,7.0475943 2.7372523,7.8443303 3.3046875,8.0130625 3.8721228,8.1817948 4.5920013,8.0962227 5.0175781,7.6849375 5.9193947,6.8096386 6.4245903,5.234303 7.4277344,4.5488281 8.0053026,4.1164516 8.6863392,4 9.3652344,4 Z M 10,5 C 9.4477156,5 9,5.4477155 9,6 9,6.5522844 9.4477156,7 10,7 10.552285,7 11,6.5522844 11,6 11,5.4477155 10.552285,5 10,5 Z"
     id="path1" />
</svg>
