<?xml version="1.0" encoding="UTF-8" standalone="no"?>
<svg
   width="16"
   height="16"
   version="1.1"
   viewBox="0 0 16 16"
   id="svg1"
   sodipodi:docname="folder-remote-symbolic.svg"
   inkscape:version="1.4 (e7c3feb100, 2024-10-09)"
   xmlns:inkscape="http://www.inkscape.org/namespaces/inkscape"
   xmlns:sodipodi="http://sodipodi.sourceforge.net/DTD/sodipodi-0.dtd"
   xmlns:xlink="http://www.w3.org/1999/xlink"
   xmlns="http://www.w3.org/2000/svg"
   xmlns:svg="http://www.w3.org/2000/svg">
  <defs
     id="defs1">
    <radialGradient
       inkscape:collect="always"
       xlink:href="#SVGID_1_-3-2-7"
       id="radialGradient2"
       cx="18.365343"
       cy="24.584549"
       fx="18.365343"
       fy="24.584549"
       r="8"
       gradientTransform="matrix(0,-1.8363515,2.0563311,0,-32.188629,52.090568)"
       gradientUnits="userSpaceOnUse" />
    <radialGradient
       id="SVGID_1_-3-2-7"
       cx="-159.43106"
       cy="15.462561"
       r="64.706802"
       gradientTransform="matrix(-0.89413329,0,0,0.96304834,-80.753654,49.330428)"
       gradientUnits="userSpaceOnUse"
       fx="-159.43106"
       fy="15.462561">
      <stop
         offset="0"
         style="stop-color:#006fff;stop-opacity:1;"
         id="stop1-6-9-5" />
      <stop
         offset="1"
         style="stop-color:#15baff;stop-opacity:1;"
         id="stop2-7-1-3" />
    </radialGradient>
    <inkscape:path-effect
       effect="fillet_chamfer"
       id="path-effect2"
       is_visible="true"
       lpeversion="1"
       nodesatellites_param="F,0,1,1,0,0.83645674,0,1 @ F,0,0,1,0,1.0129681,0,1 @ F,0,0,1,0,1.0129681,0,1 @ F,0,0,1,0,1.0129681,0,1 @ F,0,0,1,0,1.0129681,0,1 @ F,0,1,1,0,0.83645674,0,1 | F,0,1,1,0,0.83645674,0,1 @ F,0,0,1,0,0.83645674,0,1 @ F,0,0,1,0,1.0129681,0,1 @ F,0,0,1,0,1.0129681,0,1 @ F,0,0,1,0,1.0129681,0,1 @ F,0,0,1,0,1.0129681,0,1"
       radius="0"
       unit="px"
       method="auto"
       mode="F"
       chamfer_steps="1"
       flexible="false"
       use_knot_distance="true"
       apply_no_radius="true"
       apply_with_radius="true"
       only_selected="false"
       hide_knots="false" />
  </defs>
  <sodipodi:namedview
     id="namedview1"
     pagecolor="#ffffff"
     bordercolor="#000000"
     borderopacity="0.25"
     inkscape:showpageshadow="2"
     inkscape:pageopacity="0.0"
     inkscape:pagecheckerboard="0"
     inkscape:deskcolor="#d1d1d1"
     inkscape:zoom="73.9375"
     inkscape:cx="8"
     inkscape:cy="8"
     inkscape:current-layer="svg1" />
  <g
     id="g1">
    <path
       style="color:#dfdfdf;fill:url(#radialGradient2)"
       class="ColorScheme-Text"
       d="M 6.1967441,3.2299651 C 4.8829342,3.7255158 3.8339347,4.7415464 3.2951136,6.0326886 3.0800028,6.5481448 2.5464787,7 1.9870319,7 H 1.0129681 A 1.0129681,1.0129681 135 0 0 0,8.0129681 1.0000841,1.0000841 44.257024 0 0 1.0129681,9 H 1.9870319 C 2.5464787,9 3.0803872,9.4517864 3.2960086,9.9670177 3.8356381,11.256472 4.8849807,12.272929 6.1969392,12.769291 6.6285405,12.932582 7,12.625506 7,12.163543 V 3.8364567 C 7,3.3744944 6.6285006,3.0671126 6.1967441,3.2299651 Z M 9,3.8364567 v 8.3270863 c 0,0.461963 0.3714994,0.769344 0.8032559,0.606492 C 11.117066,12.274484 12.166065,11.258454 12.704886,9.9673114 12.919997,9.4518552 13.453521,9 14.012968,9 h 0.974064 A 1.0129681,1.0129681 135 0 0 16,7.9870319 1.0000841,1.0000841 44.257024 0 0 14.987032,7 H 14.012968 C 13.453521,7 12.919613,6.5482136 12.703991,6.0329823 12.164362,4.7435276 11.115019,3.7270707 9.8030608,3.2307086 9.3714595,3.0674179 9,3.3744944 9,3.8364567 Z"
       id="path1"
       inkscape:path-effect="#path-effect2"
       inkscape:original-d="M 7,3 C 4.979,3.404 3.404,4.979 3,7 H 0 v 2 h 3 c 0.405,2.018 1.982,3.595 4,4 z m 2,0 v 10 c 2.021,-0.404 3.596,-1.979 4,-4 h 3 V 7 H 13 C 12.595,4.982 11.018,3.405 9,3 Z" />
  </g>
</svg>
