<?xml version="1.0" encoding="UTF-8" standalone="no"?>
<svg
   width="64"
   height="64"
   version="1.1"
   id="svg7"
   sodipodi:docname="application-x-goomod.svg"
   inkscape:version="1.4 (e7c3feb100, 2024-10-09)"
   xmlns:inkscape="http://www.inkscape.org/namespaces/inkscape"
   xmlns:sodipodi="http://sodipodi.sourceforge.net/DTD/sodipodi-0.dtd"
   xmlns:xlink="http://www.w3.org/1999/xlink"
   xmlns="http://www.w3.org/2000/svg"
   xmlns:svg="http://www.w3.org/2000/svg">
  <defs
     id="defs7">
    <inkscape:path-effect
       effect="fillet_chamfer"
       id="path-effect7"
       is_visible="true"
       lpeversion="1"
       nodesatellites_param="F,0,0,1,0,0,0,1 @ F,0,0,1,0,0,0,1 @ F,0,1,1,0,2.5928174,0,1 @ F,0,0,1,0,0,0,1 @ F,0,0,1,0,0,0,1 @ F,0,0,1,0,3.2902223,0,1 @ F,0,0,1,0,0,0,1 @ F,0,0,1,0,2.2415764,0,1 @ F,0,0,1,0,0,0,1 @ F,0,0,1,0,0,0,1 @ F,0,1,1,0,2.5928174,0,1 @ F,0,0,1,0,0,0,1 @ F,0,0,1,0,0,0,1 | F,0,0,1,0,0,0,1 @ F,0,1,1,0,2.5928174,0,1 @ F,0,0,1,0,0,0,1 @ F,0,1,1,0,2.5928174,0,1 | F,0,0,1,0,0,0,1 @ F,0,1,1,0,2.5928174,0,1 @ F,0,0,1,0,0,0,1 @ F,0,0,1,0,2.5928174,0,1 | F,0,0,1,0,0,0,1 @ F,0,0,1,0,0,0,1 @ F,0,0,1,0,0,0,1 @ F,0,0,1,0,0,0,1 | F,0,0,1,0,0,0,1 @ F,0,0,1,0,0,0,1 @ F,0,0,1,0,0,0,1 @ F,0,0,1,0,0,0,1"
       radius="0"
       unit="px"
       method="auto"
       mode="F"
       chamfer_steps="1"
       flexible="false"
       use_knot_distance="true"
       apply_no_radius="true"
       apply_with_radius="true"
       only_selected="false"
       hide_knots="false" />
    <radialGradient
       inkscape:collect="always"
       xlink:href="#linearGradient8-9"
       id="radialGradient9-2-3"
       cx="21.477476"
       cy="23.351734"
       fx="21.477476"
       fy="23.351734"
       r="22"
       gradientTransform="matrix(5.2437612,-5.1735227e-8,0,4.286547,-93.16866,-54.97246)"
       gradientUnits="userSpaceOnUse" />
    <linearGradient
       id="linearGradient8-9"
       inkscape:collect="always">
      <stop
         style="stop-color:#494949;stop-opacity:1;"
         offset="0"
         id="stop8-1" />
      <stop
         style="stop-color:#9c9c9c;stop-opacity:1;"
         offset="1"
         id="stop9-2" />
    </linearGradient>
  </defs>
  <sodipodi:namedview
     id="namedview7"
     pagecolor="#ffffff"
     bordercolor="#000000"
     borderopacity="0.25"
     inkscape:showpageshadow="2"
     inkscape:pageopacity="0.0"
     inkscape:pagecheckerboard="0"
     inkscape:deskcolor="#d1d1d1"
     inkscape:zoom="25.212776"
     inkscape:cx="37.401673"
     inkscape:cy="39.087326"
     inkscape:window-width="3440"
     inkscape:window-height="1361"
     inkscape:window-x="0"
     inkscape:window-y="0"
     inkscape:window-maximized="1"
     inkscape:current-layer="svg7" />
  <g
     id="g1">
    <g
       id="g3">
      <g
         id="g2">
        <path
           style="fill:url(#radialGradient9-2-3);fill-opacity:1"
           d="M 12.75,4 C 11.2265,4 10,5.2488 10,6.8 v 50.4 c 0,1.5512 1.2265,2.8 2.75,2.8 h 38.5 C 52.7735,60 54,58.7512 54,57.2 V 20 L 38,4 Z"
           id="path2-0-5"
           sodipodi:nodetypes="ssssssccs" />
        <path
           style="opacity:0.36674;fill:#ffffff;fill-opacity:1"
           d="M 38,4 V 17.333333 C 38,18.806133 39.193906,20 40.666666,20 H 54 Z"
           id="path4-9" />
      </g>
    </g>
  </g>
  <path
     style="fill:#ffffff"
     d="m 31.999999,28 c -3.11516,0 -5.532699,0.812479 -7.417968,2.041016 3.117819,0.250248 4.443417,2.525827 5.007009,4.407764 0.409581,1.367668 0.240179,3.717027 -0.32298,5.030028 C 28.402445,41.492317 26.608095,44 23.027343,44 c -2.758833,0 -3.967027,-2.438676 -4.517578,-4.626953 -0.354266,1.430551 -0.314478,4.11264 0.298577,5.818982 C 20.085565,48.746978 23.423837,54 31.999999,54 c 10.124473,0 12.90565,-6.31246 13.669636,-9.780715 0.265901,-1.207111 0.269786,-3.227019 0.06474,-4.445847 C 45.298945,40.92569 44.280897,42 41.970703,42 39.926266,42 38.668098,40.686211 37.92731,39.405527 37.213026,38.170665 36.975928,35.817491 37.352212,34.439387 37.797584,32.808257 38.785083,31 40.974609,31 c 0.06178,0 0.113573,0.01185 0.173828,0.01367 C 39.09721,29.257054 36.176635,28 31.999999,28 Z m -7.958984,3 c -1.766654,0 -3.065149,1.44453 -3.895483,2.802399 -0.745583,1.219274 -1.107221,3.514191 -0.805071,4.911721 C 19.761215,40.660223 20.773171,43 23.207031,43 26.004493,43 27.49786,41.121809 28.2707,39.467095 28.874742,38.173789 29.047016,35.807562 28.58814,34.456583 28.032594,32.820993 26.795551,31 24.041015,31 Z m 17.083984,1 c -1.501529,0 -2.271994,1.16413 -2.667335,2.3585 -0.448366,1.354562 -0.222496,3.746833 0.561586,4.935875 C 39.611271,40.19216 40.524596,41 41.894531,41 c 1.612889,0 2.415922,-0.716662 2.804466,-1.550134 0.596676,-1.279939 0.307191,-3.751218 -0.231725,-5.069939 C 43.976124,33.178093 43.013132,32 41.124999,32 Z m -18.597656,3 c 0.826196,-2.52e-4 1.496094,0.671395 1.496094,1.5 0,0.828605 -0.669898,1.500252 -1.496094,1.5 -0.825433,-8.3e-4 -1.49414,-0.67216 -1.49414,-1.5 0,-0.82784 0.668707,-1.49917 1.49414,-1.5 z m 20.039063,0 c 0.826196,-2.51e-4 1.496093,0.671395 1.496093,1.5 0,0.828605 -0.669897,1.500251 -1.496093,1.5 -0.826196,2.52e-4 -1.496094,-0.671395 -1.496094,-1.5 0,-0.828605 0.669898,-1.500252 1.496094,-1.5 z"
     id="path7"
     inkscape:path-effect="#path-effect7"
     inkscape:original-d="M 31.999999,28 C 28.884839,28 26.4673,28.812479 24.582031,30.041016 29.98893,30.474994 30.005859,37 30.005859,37 c 0,0 -0.995958,7 -6.978516,7 C 20.26851,44 19.060316,41.561324 18.509765,39.373047 18.127483,40.916722 18.041015,42 18.041015,42 c 0,0 0.996775,12 13.958984,12 13.959303,0 13.958985,-12 13.958985,-12 0,0 -4e-4,-0.893836 -0.22461,-2.226562 C 45.298945,40.92569 44.280897,42 41.970703,42 c -3.988375,0 -4.984376,-5 -4.984376,-5 0,0 -9e-5,-6 3.988282,-6 0.06178,0 0.113573,0.01185 0.173828,0.01367 C 39.09721,29.257054 36.176635,28 31.999999,28 Z m -7.958984,3 c -3.333333,0 -5,5.142578 -5,5.142578 0,0 -6.51e-4,6.857422 4.166016,6.857422 5,0 5.833984,-6 5.833984,-6 0,0 0,-6 -5,-6 z m 17.083984,1 c -3.083146,0 -3.083984,4.908203 -3.083984,4.908203 0,0 0.770369,4.091797 3.853516,4.091797 3.853933,0 3.083984,-4.091797 3.083984,-4.091797 0,0 4.17e-4,-4.908203 -3.853516,-4.908203 z m -18.597656,3 a 1.4956396,1.5 0 0 1 1.496094,1.5 1.4956396,1.5 0 0 1 -1.496094,1.5 1.4956396,1.5 0 0 1 -1.49414,-1.5 1.4956396,1.5 0 0 1 1.49414,-1.5 z m 20.039063,0 a 1.4956396,1.5 0 0 1 1.496093,1.5 1.4956396,1.5 0 0 1 -1.496093,1.5 1.4956396,1.5 0 0 1 -1.496094,-1.5 1.4956396,1.5 0 0 1 1.496094,-1.5 z" />
</svg>
