<?xml version="1.0" encoding="UTF-8" standalone="no"?>
<svg
   width="64"
   height="64"
   version="1.1"
   id="svg8"
   sodipodi:docname="nero-disc-image.svg"
   inkscape:version="1.3.2 (091e20ef0f, 2023-11-25, custom)"
   xmlns:inkscape="http://www.inkscape.org/namespaces/inkscape"
   xmlns:sodipodi="http://sodipodi.sourceforge.net/DTD/sodipodi-0.dtd"
   xmlns:xlink="http://www.w3.org/1999/xlink"
   xmlns="http://www.w3.org/2000/svg"
   xmlns:svg="http://www.w3.org/2000/svg">
  <defs
     id="defs8">
    <linearGradient
       id="linearGradient13"
       inkscape:collect="always">
      <stop
         style="stop-color:#ffffff;stop-opacity:1;"
         offset="0"
         id="stop14" />
      <stop
         style="stop-color:#ffffff;stop-opacity:0.70162719;"
         offset="1"
         id="stop15" />
    </linearGradient>
    <radialGradient
       inkscape:collect="always"
       xlink:href="#linearGradient13"
       id="radialGradient15"
       cx="32"
       cy="41"
       fx="32"
       fy="41"
       r="14"
       gradientUnits="userSpaceOnUse" />
    <radialGradient
       inkscape:collect="always"
       xlink:href="#linearGradient4"
       id="radialGradient15-3"
       cx="17.386076"
       cy="47.039314"
       fx="17.386076"
       fy="47.039314"
       r="22"
       gradientTransform="matrix(2.0221847,-2.0221847,2.5736897,2.5736897,-138.00161,-36.688012)"
       gradientUnits="userSpaceOnUse" />
    <linearGradient
       id="linearGradient4"
       inkscape:collect="always">
      <stop
         style="stop-color:#eb4a91;stop-opacity:1;"
         offset="0"
         id="stop3" />
      <stop
         style="stop-color:#fa7c6a;stop-opacity:1;"
         offset="1"
         id="stop4" />
    </linearGradient>
  </defs>
  <sodipodi:namedview
     id="namedview8"
     pagecolor="#ffffff"
     bordercolor="#000000"
     borderopacity="0.25"
     inkscape:showpageshadow="2"
     inkscape:pageopacity="0.0"
     inkscape:pagecheckerboard="0"
     inkscape:deskcolor="#d1d1d1"
     inkscape:zoom="13.890625"
     inkscape:cx="32"
     inkscape:cy="32.035996"
     inkscape:window-width="1920"
     inkscape:window-height="1014"
     inkscape:window-x="0"
     inkscape:window-y="0"
     inkscape:window-maximized="1"
     inkscape:current-layer="svg8" />
  <g
     id="g3">
    <g
       id="g2">
      <path
         style="fill:url(#radialGradient15-3)"
         d="M 12.75,4 C 11.2265,4 10,5.2488 10,6.8 v 50.4 c 0,1.55008 1.2265,2.8 2.75,2.8 h 38.5 C 52.7724,60 54,58.75008 54,57.2 V 22 L 36,4 Z"
         id="path2"
         sodipodi:nodetypes="ssssssccs" />
      <path
         style="opacity:0.457139;fill:#ffffff;fill-opacity:1"
         d="M 54,22 36,4 V 19.1875 C 36,20.74675 37.2555,22 38.8125,22 Z"
         id="path4" />
    </g>
  </g>
  <path
     d="m 32,27 c -7.755984,0 -14,6.244016 -14,14 0,7.755984 6.244016,14 14,14 7.755984,0 14,-6.244016 14,-14 0,-7.755984 -6.244016,-14 -14,-14 z m 0,7 c 3.865989,0 7,3.134011 7,7 0,3.865989 -3.134011,7 -7,7 -3.865989,0 -7,-3.134011 -7,-7 0,-3.865989 3.134011,-7 7,-7 z"
     style="fill:url(#radialGradient15)"
     id="path3" />
  <path
     d="m 32,34 a 7,7 0 0 0 -7,7 7,7 0 0 0 7,7 7,7 0 0 0 7,-7 7,7 0 0 0 -7,-7 z m 0,4 c 1.656898,0 3,1.343102 3,3 0,1.656898 -1.343102,3 -3,3 -1.656898,0 -3,-1.343102 -3,-3 0,-1.656898 1.343102,-3 3,-3 z"
     style="opacity:0.5;fill:#ffffff"
     id="path1" />
</svg>
