<?xml version="1.0" encoding="UTF-8" standalone="no"?>
<svg
   width="64"
   height="64"
   version="1"
   id="svg8"
   sodipodi:docname="application-x-kicad-schematic.svg"
   inkscape:version="1.4 (e7c3feb100, 2024-10-09)"
   xmlns:inkscape="http://www.inkscape.org/namespaces/inkscape"
   xmlns:sodipodi="http://sodipodi.sourceforge.net/DTD/sodipodi-0.dtd"
   xmlns="http://www.w3.org/2000/svg"
   xmlns:svg="http://www.w3.org/2000/svg">
  <defs
     id="defs8" />
  <sodipodi:namedview
     id="namedview8"
     pagecolor="#ffffff"
     bordercolor="#000000"
     borderopacity="0.25"
     inkscape:showpageshadow="2"
     inkscape:pageopacity="0.0"
     inkscape:pagecheckerboard="0"
     inkscape:deskcolor="#d1d1d1"
     inkscape:zoom="17.828125"
     inkscape:cx="32"
     inkscape:cy="32"
     inkscape:window-width="3440"
     inkscape:window-height="1361"
     inkscape:window-x="0"
     inkscape:window-y="0"
     inkscape:window-maximized="1"
     inkscape:current-layer="svg8" />
  <rect
     style="fill:#e4e4e4"
     width="56"
     height="56"
     x="4"
     y="4"
     rx="14.354776"
     ry="14.354776"
     id="rect2" />
  <path
     style="fill:#4e9a06"
     d="m 30,4 v 20 2 9 a 1.0001,1.0001 0 1 0 2,0 V 26 H 60 V 24 H 32 V 4 Z M 4,42 v 2 h 16 v -2 z m 26,10 v 8 h 2 v -8 z"
     id="path3" />
  <rect
     style="fill:#e8cc8d"
     width="16.8"
     height="8.4"
     x="38.6"
     y="20.8"
     id="rect3" />
  <path
     style="fill:#e8cc8d"
     d="m 27,4 h 8 v 8 h -8 z"
     id="path4" />
  <path
     style="fill:#d71010"
     d="m 26,4 v 8.734375 c 6.8e-5,0.689226 0.556868,1.246025 1.246094,1.246094 h 7.28125 c 0.405004,0.06879 0.815294,-0.06474 1.101562,-0.359375 0.0016,-0.0016 0.0062,-0.0023 0.0078,-0.0039 0.0032,-0.0032 0.0046,-0.0085 0.0078,-0.01172 0.0032,-0.0032 0.0086,-0.0046 0.0118,-0.0078 0.269488,-0.282535 0.390344,-0.677042 0.328126,-1.0625 V 4 H 34 v 8 H 28 V 4 Z m 13.300782,16 a 1.2845471,1.2481325 0 0 0 -1.28125,1.246094 v 7.28125 a 1.2845471,1.2481325 0 0 0 0.371092,1.101562 1.2845471,1.2481325 0 0 0 0.0078,0.0078 1.2845471,1.2481325 0 0 0 0.0156,0.0196 1.2845471,1.2481325 0 0 0 1.089844,0.328126 H 54.714806 A 1.2845471,1.2481325 0 0 0 56,28.734376 V 21.246094 A 1.2845471,1.2481325 0 0 0 54.714844,20 Z M 40,22 h 14 v 6 H 40 Z M 22.984376,33.984376 A 1.0001,1.0001 0 0 0 22,35 v 7 h -3 a 1.0001,1.0001 0 1 0 0,2 h 3 v 7 a 1.0001,1.0001 0 1 0 2,0 v -2.132812 l 4.625,2.84375 -3.527344,1.132812 A 1.0006408,1.0006408 0 1 0 25.707032,54.75 l 5.410156,-1.738282 a 1.0001,1.0001 0 0 0 0.80078,-1.453124 L 30.6875,46.957032 a 1.0001,1.0001 0 0 0 -0.949218,-0.753908 1.0001,1.0001 0 0 0 -0.984376,1.273438 l 0.632812,2.35547 L 24,46.519532 v -5.6875 l 6.976562,-4.671876 a 1.0001,1.0001 0 0 0 -0.578124,-1.839844 1.0001,1.0001 0 0 0 -0.535156,0.17578 L 24,38.425782 V 35 a 1.0001,1.0001 0 0 0 -1.015624,-1.015624 z"
     id="path5" />
  <path
     style="fill:#4e9a06"
     d="m 31,21 c -2.187352,0 -4,1.812646 -4,4 0,2.187352 1.812648,4 4,4 2.187352,0 4,-1.812648 4,-4 0,-2.187354 -1.812648,-4 -4,-4 z"
     id="path6" />
  <path
     style="fill:#3c3d3a"
     d="m 17,16 a 1.0001,1.0001 0 1 0 0,2 h 6 a 1.0001,1.0001 0 1 0 0,-2 z m -6,4 a 1.0001,1.0001 0 1 0 0,2 h 12 a 1.0001,1.0001 0 1 0 0,-2 z m 24,20 a 1.0001,1.0001 0 1 0 0,2 h 6 a 1.0001,1.0001 0 1 0 0,-2 z m 0,4 a 1.0001,1.0001 0 1 0 0,2 h 12 a 1.0001,1.0001 0 1 0 0,-2 z"
     id="path7" />
</svg>
