<?xml version="1.0" encoding="UTF-8" standalone="no"?>
<svg
   width="64"
   height="64"
   version="1.1"
   id="svg7"
   sodipodi:docname="application-x-nintendo-ds-rom.svg"
   inkscape:version="1.4 (e7c3feb100, 2024-10-09)"
   xmlns:inkscape="http://www.inkscape.org/namespaces/inkscape"
   xmlns:sodipodi="http://sodipodi.sourceforge.net/DTD/sodipodi-0.dtd"
   xmlns:xlink="http://www.w3.org/1999/xlink"
   xmlns="http://www.w3.org/2000/svg"
   xmlns:svg="http://www.w3.org/2000/svg">
  <defs
     id="defs7">
    <radialGradient
       inkscape:collect="always"
       xlink:href="#linearGradient8-9"
       id="radialGradient9-2-3"
       cx="21.477476"
       cy="23.351734"
       fx="21.477476"
       fy="23.351734"
       r="22"
       gradientTransform="matrix(5.2437612,-5.1735227e-8,0,4.286547,-93.16866,-54.97246)"
       gradientUnits="userSpaceOnUse" />
    <linearGradient
       id="linearGradient8-9"
       inkscape:collect="always">
      <stop
         style="stop-color:#494949;stop-opacity:1;"
         offset="0"
         id="stop8-1" />
      <stop
         style="stop-color:#9c9c9c;stop-opacity:1;"
         offset="1"
         id="stop9-2" />
    </linearGradient>
  </defs>
  <sodipodi:namedview
     id="namedview7"
     pagecolor="#ffffff"
     bordercolor="#000000"
     borderopacity="0.25"
     inkscape:showpageshadow="2"
     inkscape:pageopacity="0.0"
     inkscape:pagecheckerboard="0"
     inkscape:deskcolor="#d1d1d1"
     inkscape:zoom="17.8125"
     inkscape:cx="32"
     inkscape:cy="32"
     inkscape:current-layer="svg7" />
  <g
     id="g1">
    <g
       id="g4">
      <g
         id="g3">
        <g
           id="g2">
          <path
             style="fill:url(#radialGradient9-2-3);fill-opacity:1"
             d="M 12.75,4 C 11.2265,4 10,5.2488 10,6.8 v 50.4 c 0,1.5512 1.2265,2.8 2.75,2.8 h 38.5 C 52.7735,60 54,58.7512 54,57.2 V 20 L 38,4 Z"
             id="path2-0-5"
             sodipodi:nodetypes="ssssssccs" />
          <path
             style="opacity:0.36674;fill:#ffffff;fill-opacity:1"
             d="M 38,4 V 17.333333 C 38,18.806133 39.193906,20 40.666666,20 H 54 Z"
             id="path4-9" />
        </g>
      </g>
    </g>
  </g>
  <path
     style="fill:#ffffff"
     d="M 24.857422 26 C 23.274565 26 22 27.249581 22 28.800781 L 22 37.199219 C 22 38.750419 23.274565 40 24.857422 40 L 39.142578 40 C 40.725435 40 42 38.750419 42 37.199219 L 42 28.800781 C 42 27.249581 40.725435 26 39.142578 26 L 24.857422 26 z M 26.400391 29 L 37.599609 29 C 38.375209 29 39 29.595318 39 30.333984 L 39 35.666016 C 39 36.404682 38.375209 37 37.599609 37 L 26.400391 37 C 25.624791 37 25 36.404682 25 35.666016 L 25 30.333984 C 25 29.595318 25.624791 29 26.400391 29 z M 24.857422 42 C 23.274565 42 22 43.249581 22 44.800781 L 22 53.199219 C 22 54.750419 23.274565 56 24.857422 56 L 39.142578 56 C 40.725435 56 42 54.750419 42 53.199219 L 42 44.800781 C 42 43.249581 40.725435 42 39.142578 42 L 24.857422 42 z M 26.400391 45 L 37.599609 45 C 38.375209 45 39 45.595318 39 46.333984 L 39 51.666016 C 39 52.404682 38.375209 53 37.599609 53 L 26.400391 53 C 25.624791 53 25 52.404682 25 51.666016 L 25 46.333984 C 25 45.595318 25.624791 45 26.400391 45 z"
     id="path7" />
</svg>
