<?xml version="1.0" encoding="UTF-8" standalone="no"?>
<svg
   width="64"
   height="64"
   version="1.1"
   id="svg8"
   sodipodi:docname="application-x-gba-rom.svg"
   inkscape:version="1.4 (e7c3feb100, 2024-10-09)"
   xmlns:inkscape="http://www.inkscape.org/namespaces/inkscape"
   xmlns:sodipodi="http://sodipodi.sourceforge.net/DTD/sodipodi-0.dtd"
   xmlns:xlink="http://www.w3.org/1999/xlink"
   xmlns="http://www.w3.org/2000/svg"
   xmlns:svg="http://www.w3.org/2000/svg">
  <defs
     id="defs8">
    <radialGradient
       inkscape:collect="always"
       xlink:href="#linearGradient7"
       id="radialGradient8"
       cx="17.222261"
       cy="49.789066"
       fx="17.222261"
       fy="49.789066"
       r="22"
       gradientTransform="matrix(2.3473368,-1.3552355,1.7248452,2.9875196,-97.08262,-74.764958)"
       gradientUnits="userSpaceOnUse" />
    <linearGradient
       id="linearGradient7"
       inkscape:collect="always">
      <stop
         style="stop-color:#7e36bc;stop-opacity:1;"
         offset="0"
         id="stop7" />
      <stop
         style="stop-color:#c25dd4;stop-opacity:1;"
         offset="1"
         id="stop8" />
    </linearGradient>
  </defs>
  <sodipodi:namedview
     id="namedview8"
     pagecolor="#ffffff"
     bordercolor="#000000"
     borderopacity="0.25"
     inkscape:showpageshadow="2"
     inkscape:pageopacity="0.0"
     inkscape:pagecheckerboard="0"
     inkscape:deskcolor="#d1d1d1"
     inkscape:zoom="17.8125"
     inkscape:cx="32"
     inkscape:cy="32"
     inkscape:window-width="2382"
     inkscape:window-height="1359"
     inkscape:window-x="1058"
     inkscape:window-y="0"
     inkscape:window-maximized="0"
     inkscape:current-layer="svg8" />
  <g
     id="g1">
    <g
       id="g7"
       transform="translate(-12,4)">
      <path
         style="fill:url(#radialGradient8)"
         d="M 24.75,0 C 23.2265,0 22,1.2488 22,2.8 v 50.4 c 0,1.55008 1.2265,2.8 2.75,2.8 h 38.5 C 64.7724,56 66,54.75008 66,53.2 V 18 L 48,0 Z"
         id="path2"
         sodipodi:nodetypes="ssssssccs" />
      <path
         style="opacity:0.448535;fill:#ffffff;fill-opacity:1"
         d="M 66,18 48,0 V 15.1875 C 48,16.74675 49.2555,18 50.8125,18 Z"
         id="path4" />
    </g>
  </g>
  <path
     d="m36 29-1.5 10h0.5c0.403929-3.02e-4 0.768385 0.242412 0.923828 0.615234l2.123047 5.09375 0.607422-3.78125 3.21875 0.072266s2.100599-0.201319 2.162109 1.826172c0.05119 1.68736-1.590319 2.161142-2.435547 2.173828h-3.43164l1.6875 4.050781 2.378906 0.017578c2.44659 0.01386 6.659256-3.07921 6.792969-6.923828-0.0275-1.843894-2.527344-3.644531-2.527344-3.644531s2.474478-1.893636 2.472656-4.501953c-0.0022-2.955251-4.266173-4.929688-5.125-4.929688l-7.847656-0.068359zm-7.902344 0.074219c-5.075277 0.099232-11.880503 4.077371-12.089844 11.251953-0.134129 4.596985 1.342337 9.548907 9.230469 9.673828 0.173082 0.002741 0.352234-0.025357 0.529297-0.042969l4.148438-9.957031h-4.791016l-1.125 3h3l-0.597656 2.9375s-1.637631 0.201809-2.47461 0.167969c-2.745071-0.111007-3.973725-2.814787-3.953125-5.109375 0.03784-4.220244 4.076858-7.977234 8.78125-8.027344 2.161396-0.02302 3.660157 1.09375 3.660157 1.09375l0.658203-4.136719s-1.258435-0.924262-4.976563-0.851562zm11.902344 3.925781 1.966797 0.056641s2.112206-0.05979 2.132812 1.537109c-0.118376 2.305484-1.803578 2.470342-2.779297 2.458984-0.872958-0.009899-2.320312-0.052734-2.320312-0.052734l1-4z"
     style="fill:#ffffff"
     id="path7" />
  <path
     d="m31 40-5 12h8l-1-3h-2l2-5 3 8h4l-5-12h-4z"
     style="fill:#ffffff"
     id="path8" />
</svg>
