<?xml version="1.0" encoding="UTF-8" standalone="no"?>
<svg
   width="64"
   height="64"
   version="1"
   id="svg9"
   sodipodi:docname="application-x-extension-fcstd.svg"
   inkscape:version="1.4 (e7c3feb100, 2024-10-09)"
   xmlns:inkscape="http://www.inkscape.org/namespaces/inkscape"
   xmlns:sodipodi="http://sodipodi.sourceforge.net/DTD/sodipodi-0.dtd"
   xmlns:xlink="http://www.w3.org/1999/xlink"
   xmlns="http://www.w3.org/2000/svg"
   xmlns:svg="http://www.w3.org/2000/svg">
  <defs
     id="defs9">
    <radialGradient
       inkscape:collect="always"
       xlink:href="#linearGradient8-9"
       id="radialGradient9-2-3"
       cx="21.477476"
       cy="23.351734"
       fx="21.477476"
       fy="23.351734"
       r="22"
       gradientTransform="matrix(5.2437612,-5.1735227e-8,0,4.286547,-93.16866,-54.97246)"
       gradientUnits="userSpaceOnUse" />
    <linearGradient
       id="linearGradient8-9"
       inkscape:collect="always">
      <stop
         style="stop-color:#494949;stop-opacity:1;"
         offset="0"
         id="stop8-1" />
      <stop
         style="stop-color:#9c9c9c;stop-opacity:1;"
         offset="1"
         id="stop9-2" />
    </linearGradient>
  </defs>
  <sodipodi:namedview
     id="namedview9"
     pagecolor="#ffffff"
     bordercolor="#000000"
     borderopacity="0.25"
     inkscape:showpageshadow="2"
     inkscape:pageopacity="0.0"
     inkscape:pagecheckerboard="0"
     inkscape:deskcolor="#d1d1d1"
     inkscape:zoom="12.606388"
     inkscape:cx="32.880155"
     inkscape:cy="34.545978"
     inkscape:window-width="3440"
     inkscape:window-height="1361"
     inkscape:window-x="0"
     inkscape:window-y="0"
     inkscape:window-maximized="1"
     inkscape:current-layer="svg9" />
  <g
     id="g1"
     transform="matrix(0,-1,-1,0,64,64)">
    <g
       id="g4">
      <g
         id="g3">
        <g
           id="g2">
          <path
             style="fill:url(#radialGradient9-2-3);fill-opacity:1"
             d="M 12.75,4 C 11.2265,4 10,5.2488 10,6.8 v 50.4 c 0,1.5512 1.2265,2.8 2.75,2.8 h 38.5 C 52.7735,60 54,58.7512 54,57.2 V 20 L 38,4 Z"
             id="path2-0-5"
             sodipodi:nodetypes="ssssssccs" />
          <path
             style="opacity:0.36674;fill:#ffffff;fill-opacity:1"
             d="M 38,4 V 17.333333 C 38,18.806133 39.193906,20 40.666666,20 H 54 Z"
             id="path4-9-3" />
        </g>
      </g>
    </g>
  </g>
  <path
     style="fill:#3f92e7"
     d="m 25.701776,33.999998 -0.0028,0.0054 h 0.0028 z"
     id="path7" />
  <path
     style="fill:#ff6363"
     d="m 16,15 h 22 v 7.999858 H 22 V 29 h 7.99916 v 6 H 22 v 16 h -6 z"
     id="path8" />
  <path
     style="fill:#3f92e7"
     d="m 36.751068,33 -0.19928,2.36796 a 7.0737524,7.0726018 0 0 0 -2.066102,1.1957 L 32.328734,35.54673 30.078,39.447412 32.035668,40.8043 a 7.0737524,7.0726018 0 0 0 -0.10844,1.19277 7.0737524,7.0726018 0 0 0 0.10258,1.195702 L 30.078,44.54966 l 2.250732,3.897752 2.15109,-1.011072 a 7.0737524,7.0726018 0 0 0 2.071964,1.18691 L 36.748118,51 h 4.501466 l 0.19928,-2.370888 a 7.0737524,7.0726018 0 0 0 2.066102,-1.195702 l 2.15402,1.014002 2.250734,-3.897752 -1.954738,-1.359818 a 7.0737524,7.0726018 0 0 0 0.10844,-1.192772 7.0737524,7.0726018 0 0 0 -0.10256,-1.1957 l 1.951806,-1.353958 -2.250732,-3.897752 -2.151092,1.01107 A 7.0737524,7.0726018 0 0 0 41.448886,35.376752 L 41.2496,33 Z m 2.247802,5.996094 a 3.0009768,3.0009764 0 0 1 3.000976,3.000976 3.0009768,3.0009764 0 0 1 -3.000976,3.000976 3.0009768,3.0009764 0 0 1 -3.000976,-3.000976 3.0009768,3.0009764 0 0 1 3.000976,-3.000976 z"
     id="path9" />
</svg>
