<?xml version="1.0" encoding="UTF-8" standalone="no"?>
<svg
   width="64"
   height="64"
   version="1.1"
   id="svg7"
   sodipodi:docname="application-x-wii-rom.svg"
   inkscape:version="1.4 (e7c3feb100, 2024-10-09)"
   xmlns:inkscape="http://www.inkscape.org/namespaces/inkscape"
   xmlns:sodipodi="http://sodipodi.sourceforge.net/DTD/sodipodi-0.dtd"
   xmlns:xlink="http://www.w3.org/1999/xlink"
   xmlns="http://www.w3.org/2000/svg"
   xmlns:svg="http://www.w3.org/2000/svg">
  <defs
     id="defs7">
    <radialGradient
       inkscape:collect="always"
       xlink:href="#linearGradient8"
       id="radialGradient9"
       cx="21.477476"
       cy="23.351734"
       fx="21.477476"
       fy="23.351734"
       r="22"
       gradientTransform="matrix(5.2437612,-5.1735227e-8,0,4.286547,-93.16866,-54.97246)"
       gradientUnits="userSpaceOnUse" />
    <linearGradient
       id="linearGradient8"
       inkscape:collect="always">
      <stop
         style="stop-color:#ededed;stop-opacity:1;"
         offset="0"
         id="stop8" />
      <stop
         style="stop-color:#b7b7b7;stop-opacity:1;"
         offset="1"
         id="stop9" />
    </linearGradient>
  </defs>
  <sodipodi:namedview
     id="namedview7"
     pagecolor="#ffffff"
     bordercolor="#000000"
     borderopacity="0.25"
     inkscape:showpageshadow="2"
     inkscape:pageopacity="0.0"
     inkscape:pagecheckerboard="0"
     inkscape:deskcolor="#d1d1d1"
     inkscape:zoom="17.828125"
     inkscape:cx="31.971954"
     inkscape:cy="32"
     inkscape:window-width="3440"
     inkscape:window-height="1361"
     inkscape:window-x="0"
     inkscape:window-y="0"
     inkscape:window-maximized="1"
     inkscape:current-layer="svg7" />
  <g
     id="g1">
    <g
       id="g2">
      <path
         style="fill:url(#radialGradient9);fill-opacity:1"
         d="M 12.75,4 C 11.2265,4 10,5.2488 10,6.8 v 50.4 c 0,1.5512 1.2265,2.8 2.75,2.8 h 38.5 C 52.7735,60 54,58.7512 54,57.2 V 20 L 38,4 Z"
         id="path2"
         sodipodi:nodetypes="ssssssccs" />
      <path
         style="opacity:0.593376;fill:#ffffff;fill-opacity:1"
         d="M 38,4 V 17.333333 C 38,18.806133 39.193906,20 40.666666,20 H 54 Z"
         id="path4" />
    </g>
  </g>
  <path
     style="fill:#908f94"
     d="m 39.405351,33.000576 c -0.782582,0.04018 -1.406196,0.697593 -1.406196,1.499942 0,0.827439 0.666401,1.499943 1.484319,1.499943 0.850032,0 1.515566,-0.658665 1.515566,-1.499943 0,-0.841537 -0.665572,-1.499942 -1.515566,-1.499942 -0.02556,0 -0.05288,-0.0013 -0.07812,0 z m 5.99977,0 c -0.782582,0.04018 -1.406196,0.697593 -1.406196,1.499942 0,0.827439 0.6664,1.499943 1.484319,1.499943 0.850031,0 1.515566,-0.658665 1.515566,-1.499943 0,-0.841537 -0.665573,-1.499942 -1.515566,-1.499942 -0.02556,0 -0.05288,-0.0013 -0.07812,0 z m -19.405505,0.999962 c -0.946274,0 -1.613372,0.477637 -1.937426,1.56244 -0.322739,1.08298 -2.316317,8.714509 -2.316317,8.714509 L 19.140503,34 H 16 c 0,0 3.015816,10.961531 3.42565,12.218818 C 19.744488,47.199807 20.501295,48 21.620878,48 c 1.280161,0 1.8789,-0.927446 2.156167,-1.781182 0.274236,-0.848815 2.222571,-8.019224 2.222571,-8.019224 0,0 1.952829,7.170573 2.226477,8.019224 C 28.503032,47.072554 29.102521,48 30.38226,48 31.502777,48 32.256672,47.199851 32.577487,46.218818 32.986438,44.961915 35.999232,34 35.999232,34 h -3.140503 l -2.60537,10.277487 c 0,0 -1.992224,-7.631443 -2.316317,-8.714509 -0.324242,-1.084759 -0.991406,-1.56244 -1.937426,-1.56244 z M 37.999155,37 V 48 H 40.99904 V 37 Z m 5.99977,0 V 48 H 46.99881 V 37 Z"
     id="path7" />
</svg>
