<?xml version="1.0" encoding="UTF-8" standalone="no"?>
<svg
   width="64"
   height="64"
   version="1"
   id="svg7"
   sodipodi:docname="application-vnd.flatpak.svg"
   inkscape:version="1.4 (e7c3feb100, 2024-10-09)"
   xmlns:inkscape="http://www.inkscape.org/namespaces/inkscape"
   xmlns:sodipodi="http://sodipodi.sourceforge.net/DTD/sodipodi-0.dtd"
   xmlns:xlink="http://www.w3.org/1999/xlink"
   xmlns="http://www.w3.org/2000/svg"
   xmlns:svg="http://www.w3.org/2000/svg">
  <defs
     id="defs7">
    <inkscape:path-effect
       effect="fillet_chamfer"
       id="path-effect12"
       is_visible="true"
       lpeversion="1"
       nodesatellites_param="F,0,0,1,0,0,0,1 @ F,0,0,1,0,0,0,1 @ F,0,0,1,0,0,0,1 | F,0,0,1,0,0,0,1 @ F,0,0,1,0,0,0,1 @ F,0,0,1,0,0,0,1 @ F,0,0,1,0,0,0,1 @ F,0,0,1,0,0,0,1 @ F,0,0,1,0,0,0,1 @ F,0,0,1,0,0,0,1 @ F,0,0,1,0,0,0,1 @ F,0,0,1,0,0,0,1 @ F,0,0,1,0,0,0,1"
       radius="0"
       unit="px"
       method="auto"
       mode="F"
       chamfer_steps="1"
       flexible="false"
       use_knot_distance="true"
       apply_no_radius="true"
       apply_with_radius="true"
       only_selected="false"
       hide_knots="false" />
    <linearGradient
       id="linearGradient31"
       inkscape:collect="always">
      <stop
         style="stop-color:#3d99ff;stop-opacity:1;"
         offset="0"
         id="stop32" />
      <stop
         style="stop-color:#00d6ff;stop-opacity:1;"
         offset="0.99884099"
         id="stop33" />
    </linearGradient>
    <inkscape:path-effect
       effect="fillet_chamfer"
       id="path-effect33"
       is_visible="true"
       lpeversion="1"
       nodesatellites_param="F,0,0,1,0,5.4161913,0,1 @ F,0,0,1,0,5.0201459,0,1 @ F,0,0,1,0,4.5562612,0,1 @ F,0,0,1,0,4.8044969,0,1 @ F,0,0,1,0,4.8694015,0,1 @ F,0,0,1,0,4.5176611,0,1"
       radius="0"
       unit="px"
       method="auto"
       mode="F"
       chamfer_steps="1"
       flexible="false"
       use_knot_distance="true"
       apply_no_radius="true"
       apply_with_radius="true"
       only_selected="false"
       hide_knots="false" />
    <radialGradient
       inkscape:collect="always"
       xlink:href="#linearGradient31"
       id="radialGradient33-3"
       cx="5.9532309"
       cy="34.176308"
       fx="5.9532309"
       fy="34.176308"
       r="22.291637"
       gradientTransform="matrix(1.5256731,1.5939044,-1.8523151,1.7730219,60.175837,-34.507623)"
       gradientUnits="userSpaceOnUse" />
    <inkscape:path-effect
       effect="fillet_chamfer"
       id="path-effect33-5"
       is_visible="true"
       lpeversion="1"
       nodesatellites_param="F,0,0,1,0,5.4161913,0,1 @ F,0,0,1,0,5.0201459,0,1 @ F,0,0,1,0,4.5562612,0,1 @ F,0,0,1,0,4.8044969,0,1 @ F,0,0,1,0,4.8694015,0,1 @ F,0,0,1,0,4.5176611,0,1"
       radius="0"
       unit="px"
       method="auto"
       mode="F"
       chamfer_steps="1"
       flexible="false"
       use_knot_distance="true"
       apply_no_radius="true"
       apply_with_radius="true"
       only_selected="false"
       hide_knots="false" />
    <inkscape:path-effect
       effect="fillet_chamfer"
       id="path-effect33-5-9"
       is_visible="true"
       lpeversion="1"
       nodesatellites_param="F,0,0,1,0,5.4161913,0,1 @ F,0,0,1,0,5.0201459,0,1 @ F,0,0,1,0,4.5562612,0,1 @ F,0,0,1,0,4.8044969,0,1 @ F,0,0,1,0,4.8694015,0,1 @ F,0,0,1,0,4.5176611,0,1"
       radius="0"
       unit="px"
       method="auto"
       mode="F"
       chamfer_steps="1"
       flexible="false"
       use_knot_distance="true"
       apply_no_radius="true"
       apply_with_radius="true"
       only_selected="false"
       hide_knots="false" />
    <inkscape:path-effect
       effect="fillet_chamfer"
       id="path-effect33-5-9-2"
       is_visible="true"
       lpeversion="1"
       nodesatellites_param="F,0,0,1,0,5.4161913,0,1 @ F,0,0,1,0,5.0201459,0,1 @ F,0,0,1,0,4.5562612,0,1 @ F,0,0,1,0,4.8044969,0,1 @ F,0,0,1,0,4.8694015,0,1 @ F,0,0,1,0,4.5176611,0,1"
       radius="0"
       unit="px"
       method="auto"
       mode="F"
       chamfer_steps="1"
       flexible="false"
       use_knot_distance="true"
       apply_no_radius="true"
       apply_with_radius="true"
       only_selected="false"
       hide_knots="false" />
    <inkscape:path-effect
       effect="fillet_chamfer"
       id="path-effect33-5-9-0"
       is_visible="true"
       lpeversion="1"
       nodesatellites_param="F,0,0,1,0,5.4161913,0,1 @ F,0,0,1,0,5.0201459,0,1 @ F,0,0,1,0,4.5562612,0,1 @ F,0,0,1,0,4.8044969,0,1 @ F,0,0,1,0,4.8694015,0,1 @ F,0,0,1,0,4.5176611,0,1"
       radius="0"
       unit="px"
       method="auto"
       mode="F"
       chamfer_steps="1"
       flexible="false"
       use_knot_distance="true"
       apply_no_radius="true"
       apply_with_radius="true"
       only_selected="false"
       hide_knots="false" />
    <inkscape:path-effect
       effect="fillet_chamfer"
       id="path-effect33-5-9-2-3"
       is_visible="true"
       lpeversion="1"
       nodesatellites_param="F,0,0,1,0,5.4161913,0,1 @ F,0,0,1,0,5.0201459,0,1 @ F,0,0,1,0,4.5562612,0,1 @ F,0,0,1,0,4.8044969,0,1 @ F,0,0,1,0,4.8694015,0,1 @ F,0,0,1,0,4.5176611,0,1"
       radius="0"
       unit="px"
       method="auto"
       mode="F"
       chamfer_steps="1"
       flexible="false"
       use_knot_distance="true"
       apply_no_radius="true"
       apply_with_radius="true"
       only_selected="false"
       hide_knots="false" />
    <inkscape:path-effect
       effect="fillet_chamfer"
       id="path-effect33-5-9-2-0"
       is_visible="true"
       lpeversion="1"
       nodesatellites_param="F,0,0,1,0,5.4161913,0,1 @ F,0,0,1,0,5.0201459,0,1 @ F,0,0,1,0,4.5562612,0,1 @ F,0,0,1,0,4.8044969,0,1 @ F,0,0,1,0,4.8694015,0,1 @ F,0,0,1,0,4.5176611,0,1"
       radius="0"
       unit="px"
       method="auto"
       mode="F"
       chamfer_steps="1"
       flexible="false"
       use_knot_distance="true"
       apply_no_radius="true"
       apply_with_radius="true"
       only_selected="false"
       hide_knots="false" />
    <inkscape:path-effect
       effect="fillet_chamfer"
       id="path-effect33-5-9-2-6"
       is_visible="true"
       lpeversion="1"
       nodesatellites_param="F,0,0,1,0,5.4161913,0,1 @ F,0,0,1,0,5.0201459,0,1 @ F,0,0,1,0,4.5562612,0,1 @ F,0,0,1,0,4.8044969,0,1 @ F,0,0,1,0,4.8694015,0,1 @ F,0,0,1,0,4.5176611,0,1"
       radius="0"
       unit="px"
       method="auto"
       mode="F"
       chamfer_steps="1"
       flexible="false"
       use_knot_distance="true"
       apply_no_radius="true"
       apply_with_radius="true"
       only_selected="false"
       hide_knots="false" />
    <inkscape:path-effect
       effect="fillet_chamfer"
       id="path-effect33-5-9-2-6-8"
       is_visible="true"
       lpeversion="1"
       nodesatellites_param="F,0,0,1,0,5.4161913,0,1 @ F,0,0,1,0,5.0201459,0,1 @ F,0,0,1,0,4.5562612,0,1 @ F,0,0,1,0,4.8044969,0,1 @ F,0,0,1,0,4.8694015,0,1 @ F,0,0,1,0,4.5176611,0,1"
       radius="0"
       unit="px"
       method="auto"
       mode="F"
       chamfer_steps="1"
       flexible="false"
       use_knot_distance="true"
       apply_no_radius="true"
       apply_with_radius="true"
       only_selected="false"
       hide_knots="false" />
    <inkscape:path-effect
       effect="fillet_chamfer"
       id="path-effect33-5-9-2-6-8-9"
       is_visible="true"
       lpeversion="1"
       nodesatellites_param="F,0,0,1,0,5.4161913,0,1 @ F,0,0,1,0,5.0201459,0,1 @ F,0,0,1,0,4.5562612,0,1 @ F,0,0,1,0,4.8044969,0,1 @ F,0,0,1,0,4.8694015,0,1 @ F,0,0,1,0,4.5176611,0,1"
       radius="0"
       unit="px"
       method="auto"
       mode="F"
       chamfer_steps="1"
       flexible="false"
       use_knot_distance="true"
       apply_no_radius="true"
       apply_with_radius="true"
       only_selected="false"
       hide_knots="false" />
    <inkscape:path-effect
       effect="fillet_chamfer"
       id="path-effect33-5-9-2-6-8-9-0"
       is_visible="true"
       lpeversion="1"
       nodesatellites_param="F,0,0,1,0,5.4161913,0,1 @ F,0,0,1,0,5.0201459,0,1 @ F,0,0,1,0,4.5562612,0,1 @ F,0,0,1,0,4.8044969,0,1 @ F,0,0,1,0,4.8694015,0,1 @ F,0,0,1,0,4.5176611,0,1"
       radius="0"
       unit="px"
       method="auto"
       mode="F"
       chamfer_steps="1"
       flexible="false"
       use_knot_distance="true"
       apply_no_radius="true"
       apply_with_radius="true"
       only_selected="false"
       hide_knots="false" />
    <inkscape:path-effect
       effect="fillet_chamfer"
       id="path-effect33-5-9-2-6-8-2"
       is_visible="true"
       lpeversion="1"
       nodesatellites_param="F,0,0,1,0,5.4161913,0,1 @ F,0,0,1,0,5.0201459,0,1 @ F,0,0,1,0,4.5562612,0,1 @ F,0,0,1,0,4.8044969,0,1 @ F,0,0,1,0,4.8694015,0,1 @ F,0,0,1,0,4.5176611,0,1"
       radius="0"
       unit="px"
       method="auto"
       mode="F"
       chamfer_steps="1"
       flexible="false"
       use_knot_distance="true"
       apply_no_radius="true"
       apply_with_radius="true"
       only_selected="false"
       hide_knots="false" />
    <inkscape:path-effect
       effect="fillet_chamfer"
       id="path-effect33-5-9-2-6-3"
       is_visible="true"
       lpeversion="1"
       nodesatellites_param="F,0,0,1,0,5.4161913,0,1 @ F,0,0,1,0,5.0201459,0,1 @ F,0,0,1,0,4.5562612,0,1 @ F,0,0,1,0,4.8044969,0,1 @ F,0,0,1,0,4.8694015,0,1 @ F,0,0,1,0,4.5176611,0,1"
       radius="0"
       unit="px"
       method="auto"
       mode="F"
       chamfer_steps="1"
       flexible="false"
       use_knot_distance="true"
       apply_no_radius="true"
       apply_with_radius="true"
       only_selected="false"
       hide_knots="false" />
    <inkscape:path-effect
       effect="fillet_chamfer"
       id="path-effect33-5-9-2-6-2"
       is_visible="true"
       lpeversion="1"
       nodesatellites_param="F,0,0,1,0,5.4161913,0,1 @ F,0,0,1,0,5.0201459,0,1 @ F,0,0,1,0,4.5562612,0,1 @ F,0,0,1,0,4.8044969,0,1 @ F,0,0,1,0,4.8694015,0,1 @ F,0,0,1,0,4.5176611,0,1"
       radius="0"
       unit="px"
       method="auto"
       mode="F"
       chamfer_steps="1"
       flexible="false"
       use_knot_distance="true"
       apply_no_radius="true"
       apply_with_radius="true"
       only_selected="false"
       hide_knots="false" />
    <inkscape:path-effect
       effect="fillet_chamfer"
       id="path-effect33-5-9-2-6-8-9-8"
       is_visible="true"
       lpeversion="1"
       nodesatellites_param="F,0,0,1,0,5.4161913,0,1 @ F,0,0,1,0,5.0201459,0,1 @ F,0,0,1,0,4.5562612,0,1 @ F,0,0,1,0,4.8044969,0,1 @ F,0,0,1,0,4.8694015,0,1 @ F,0,0,1,0,4.5176611,0,1"
       radius="0"
       unit="px"
       method="auto"
       mode="F"
       chamfer_steps="1"
       flexible="false"
       use_knot_distance="true"
       apply_no_radius="true"
       apply_with_radius="true"
       only_selected="false"
       hide_knots="false" />
    <inkscape:path-effect
       effect="fillet_chamfer"
       id="path-effect33-5-9-2-6-8-97"
       is_visible="true"
       lpeversion="1"
       nodesatellites_param="F,0,0,1,0,5.4161913,0,1 @ F,0,0,1,0,5.0201459,0,1 @ F,0,0,1,0,4.5562612,0,1 @ F,0,0,1,0,4.8044969,0,1 @ F,0,0,1,0,4.8694015,0,1 @ F,0,0,1,0,4.5176611,0,1"
       radius="0"
       unit="px"
       method="auto"
       mode="F"
       chamfer_steps="1"
       flexible="false"
       use_knot_distance="true"
       apply_no_radius="true"
       apply_with_radius="true"
       only_selected="false"
       hide_knots="false" />
    <inkscape:path-effect
       effect="fillet_chamfer"
       id="path-effect33-5-9-2-6-2-3"
       is_visible="true"
       lpeversion="1"
       nodesatellites_param="F,0,0,1,0,5.4161913,0,1 @ F,0,0,1,0,5.0201459,0,1 @ F,0,0,1,0,4.5562612,0,1 @ F,0,0,1,0,4.8044969,0,1 @ F,0,0,1,0,4.8694015,0,1 @ F,0,0,1,0,4.5176611,0,1"
       radius="0"
       unit="px"
       method="auto"
       mode="F"
       chamfer_steps="1"
       flexible="false"
       use_knot_distance="true"
       apply_no_radius="true"
       apply_with_radius="true"
       only_selected="false"
       hide_knots="false" />
    <inkscape:path-effect
       effect="fillet_chamfer"
       id="path-effect33-5-9-2-6-8-97-9"
       is_visible="true"
       lpeversion="1"
       nodesatellites_param="F,0,0,1,0,5.4161913,0,1 @ F,0,0,1,0,5.0201459,0,1 @ F,0,0,1,0,4.5562612,0,1 @ F,0,0,1,0,4.8044969,0,1 @ F,0,0,1,0,4.8694015,0,1 @ F,0,0,1,0,4.5176611,0,1"
       radius="0"
       unit="px"
       method="auto"
       mode="F"
       chamfer_steps="1"
       flexible="false"
       use_knot_distance="true"
       apply_no_radius="true"
       apply_with_radius="true"
       only_selected="false"
       hide_knots="false" />
    <inkscape:path-effect
       effect="fillet_chamfer"
       id="path-effect33-5-9-2-6-2-4"
       is_visible="true"
       lpeversion="1"
       nodesatellites_param="F,0,0,1,0,5.4161913,0,1 @ F,0,0,1,0,5.0201459,0,1 @ F,0,0,1,0,4.5562612,0,1 @ F,0,0,1,0,4.8044969,0,1 @ F,0,0,1,0,4.8694015,0,1 @ F,0,0,1,0,4.5176611,0,1"
       radius="0"
       unit="px"
       method="auto"
       mode="F"
       chamfer_steps="1"
       flexible="false"
       use_knot_distance="true"
       apply_no_radius="true"
       apply_with_radius="true"
       only_selected="false"
       hide_knots="false" />
  </defs>
  <sodipodi:namedview
     id="namedview7"
     pagecolor="#ffffff"
     bordercolor="#000000"
     borderopacity="0.25"
     inkscape:showpageshadow="2"
     inkscape:pageopacity="0.0"
     inkscape:pagecheckerboard="0"
     inkscape:deskcolor="#d1d1d1"
     inkscape:zoom="9.8111066"
     inkscape:cx="10.498306"
     inkscape:cy="29.711225"
     inkscape:window-width="3440"
     inkscape:window-height="1361"
     inkscape:window-x="0"
     inkscape:window-y="0"
     inkscape:window-maximized="1"
     inkscape:current-layer="svg7" />
  <path
     sodipodi:type="star"
     style="fill:url(#radialGradient33-3);fill-opacity:1;stroke:#ffffff;stroke-width:0;stroke-dasharray:none"
     id="path13-3"
     inkscape:flatsided="true"
     sodipodi:sides="6"
     sodipodi:cx="26.006084"
     sodipodi:cy="25.124659"
     sodipodi:r1="25.740166"
     sodipodi:r2="22.291637"
     sodipodi:arg1="0.52359878"
     sodipodi:arg2="1.0471976"
     inkscape:rounded="0"
     inkscape:randomized="0"
     d="m 43.607163,40.702837 -13.253505,7.651914 a 8.6951478,8.6951478 2.5219888e-7 0 1 -8.695148,0 L 7.6602849,40.272872 A 7.8916759,7.8916759 60 0 1 3.714447,33.43848 l 1e-7,-16.379407 A 8.3216327,8.3216327 120 0 1 7.8752635,9.8523272 L 21.789059,1.8191936 a 8.4340508,8.4340508 2.5219889e-7 0 1 8.434051,0 l 14.162203,8.1765517 a 7.8248186,7.8248186 60 0 1 3.912409,6.7764917 l 0,15.806313 a 9.3811185,9.3811185 120 0 1 -4.690559,8.124287 z"
     transform="matrix(1.1656015,0,0,1.1656015,1.687269,2.7382007)"
     inkscape:path-effect="#path-effect33-5" />
  <path
     sodipodi:type="star"
     style="opacity:0.269575;fill:#000000;fill-opacity:1;stroke:#ffffff;stroke-width:0;stroke-dasharray:none"
     id="path13-3-1"
     inkscape:flatsided="true"
     sodipodi:sides="6"
     sodipodi:cx="26.006084"
     sodipodi:cy="25.124659"
     sodipodi:r1="25.740166"
     sodipodi:r2="22.291637"
     sodipodi:arg1="0.52359878"
     sodipodi:arg2="1.0471976"
     inkscape:rounded="0"
     inkscape:randomized="0"
     d="m 43.607163,40.702837 -13.253505,7.651914 a 8.6951478,8.6951478 2.5219888e-7 0 1 -8.695148,0 L 7.6602849,40.272872 A 7.8916759,7.8916759 60 0 1 3.714447,33.43848 l 1e-7,-16.379407 A 8.3216327,8.3216327 120 0 1 7.8752635,9.8523272 L 21.789059,1.8191936 a 8.4340508,8.4340508 2.5219889e-7 0 1 8.434051,0 l 14.162203,8.1765517 a 7.8248186,7.8248186 60 0 1 3.912409,6.7764917 l 0,15.806313 a 9.3811185,9.3811185 120 0 1 -4.690559,8.124287 z"
     transform="matrix(0.81087772,0,0,0.81087772,10.912246,11.643351)"
     inkscape:path-effect="#path-effect33-5-9" />
  <path
     id="path13-3-1-7-1"
     style="opacity:0.269575;fill:#000000;fill-opacity:1;stroke:#ffffff;stroke-width:0;stroke-dasharray:none"
     d="m 29.938314,44.436537 a 1.4031972,1.4031972 0 0 0 0.571698,0.12068 l 2.761483,3.41e-4 a 1.3306977,1.3306977 0 0 0 1.151688,-0.66498 l 1.363293,-2.361292 a 1.4661795,1.4661795 0 0 0 8.37e-4,-1.465237 L 34.49717,37.830935 a 1.5818482,1.5818482 0 0 0 -1.370935,-0.79151 l -2.664226,0.0011 a 1.3194242,1.3194242 0 0 0 -1.143359,0.660357 l -1.377996,2.386758 a 1.4221532,1.4221532 0 0 0 -4.55e-4,1.422077 l 1.354491,2.345836 a 1.4031972,1.4031972 0 0 0 0.64361,0.580979 z m -7.477479,-4.434082 a 1.4031972,1.4031972 0 0 0 0.571699,0.120681 l 2.761482,3.4e-4 a 1.3306977,1.3306977 0 0 0 1.151689,-0.664979 l 1.363292,-2.361292 a 1.4661795,1.4661795 0 0 0 -5.64e-4,-1.466053 l -1.290142,-2.235115 a 1.5818482,1.5818482 0 0 0 -1.369522,-0.790693 l -2.66564,2.89e-4 a 1.3194242,1.3194242 0 0 0 -1.142542,0.658941 l -1.378813,2.388174 a 1.4221532,1.4221532 0 0 0 9.2e-4,1.422894 l 1.354492,2.345835 a 1.4031972,1.4031972 0 0 0 0.64361,0.580978 z m 7.477857,-4.388361 a 1.4031972,1.4031972 0 0 0 0.570882,0.122096 l 2.762299,-0.0011 a 1.3306977,1.3306977 0 0 0 1.151688,-0.664979 l 1.362477,-2.359878 a 1.4661795,1.4661795 0 0 0 0.0017,-1.466652 l -1.290959,-2.233699 a 1.5818482,1.5818482 0 0 0 -1.370935,-0.79151 l -2.664824,-0.0011 a 1.3194242,1.3194242 0 0 0 -1.141945,0.661173 l -1.378813,2.388174 a 1.4221532,1.4221532 0 0 0 -4.55e-4,1.422077 l 1.354492,2.345835 a 1.4031972,1.4031972 0 0 0 0.644426,0.579563 z m -7.477479,-4.434081 a 1.4031972,1.4031972 0 0 0 0.570881,0.122097 l 2.762301,-0.0011 a 1.3306977,1.3306977 0 0 0 1.151688,-0.664979 l 1.362475,-2.359878 a 1.4661795,1.4661795 0 0 0 2.52e-4,-1.467468 l -1.290958,-2.2337 A 1.5818482,1.5818482 0 0 0 25.64833,23.784304 l -2.664822,-0.0011 a 1.3194242,1.3194242 0 0 0 -1.14336,0.660356 l -1.378813,2.388173 a 1.4221532,1.4221532 0 0 0 9.2e-4,1.422894 l 1.354491,2.345836 A 1.4031972,1.4031972 0 0 0 22.461213,31.18 Z m 15.155018,8.717689 a 1.4031972,1.4031972 0 0 0 0.569467,0.121278 l 2.762897,0.0012 a 1.3306977,1.3306977 0 0 0 1.152506,-0.666394 l 1.362475,-2.359878 a 1.4661795,1.4661795 0 0 0 -5.63e-4,-1.466053 L 42.172871,33.29274 a 1.5818482,1.5818482 0 0 0 -1.369522,-0.790693 l -2.664823,-0.0011 a 1.3194242,1.3194242 0 0 0 -1.143359,0.660356 l -1.378813,2.388173 a 1.4221532,1.4221532 0 0 0 -4.56e-4,1.422077 l 1.355906,2.346602 a 1.4031972,1.4031972 0 0 0 0.644427,0.579563 z M 29.939069,26.791656 a 1.4031972,1.4031972 0 0 0 0.570881,0.122094 l 2.761483,3.41e-4 a 1.3306977,1.3306977 0 0 0 1.152505,-0.666394 l 1.362476,-2.359878 a 1.4661795,1.4661795 0 0 0 8.37e-4,-1.465236 l -1.290143,-2.235114 a 1.5818482,1.5818482 0 0 0 -1.370935,-0.79151 l -2.66564,2.88e-4 a 1.3194242,1.3194242 0 0 0 -1.141128,0.659758 l -1.378813,2.388174 a 1.4221532,1.4221532 0 0 0 -4.54e-4,1.422075 l 1.354491,2.345836 a 1.4031972,1.4031972 0 0 0 0.644427,0.579563 z m 7.676724,4.285019 a 1.4031972,1.4031972 0 0 0 0.570283,0.119864 l 2.761483,3.4e-4 a 1.3306977,1.3306977 0 0 0 1.15392,-0.665577 l 1.362475,-2.359877 a 1.4661795,1.4661795 0 0 0 -5.63e-4,-1.466055 l -1.290142,-2.235113 a 1.5818482,1.5818482 0 0 0 -1.369522,-0.790693 l -2.66564,2.88e-4 a 1.3194242,1.3194242 0 0 0 -1.142542,0.658941 l -1.378813,2.388174 a 1.4221532,1.4221532 0 0 0 -4.55e-4,1.422077 l 1.35449,2.345835 a 1.4031972,1.4031972 0 0 0 0.645026,0.581796 z" />
</svg>
