<?xml version="1.0" encoding="UTF-8" standalone="no"?>
<svg
   width="64"
   height="64"
   version="1.1"
   id="svg7"
   sodipodi:docname="application-x-virtual-boy-rom.svg"
   inkscape:version="1.4 (e7c3feb100, 2024-10-09)"
   xmlns:inkscape="http://www.inkscape.org/namespaces/inkscape"
   xmlns:sodipodi="http://sodipodi.sourceforge.net/DTD/sodipodi-0.dtd"
   xmlns:xlink="http://www.w3.org/1999/xlink"
   xmlns="http://www.w3.org/2000/svg"
   xmlns:svg="http://www.w3.org/2000/svg">
  <defs
     id="defs7">
    <radialGradient
       inkscape:collect="always"
       xlink:href="#linearGradient7"
       id="radialGradient8"
       cx="16.935129"
       cy="49.153992"
       fx="16.935129"
       fy="49.153992"
       r="22"
       gradientTransform="matrix(8.3672725,-2.2420039,2.8534596,10.649256,-265.02464,-431.65247)"
       gradientUnits="userSpaceOnUse" />
    <linearGradient
       id="linearGradient7"
       inkscape:collect="always">
      <stop
         style="stop-color:#ff3843;stop-opacity:1;"
         offset="0"
         id="stop7" />
      <stop
         style="stop-color:#ff9344;stop-opacity:1;"
         offset="1"
         id="stop8" />
    </linearGradient>
  </defs>
  <sodipodi:namedview
     id="namedview7"
     pagecolor="#ffffff"
     bordercolor="#000000"
     borderopacity="0.25"
     inkscape:showpageshadow="2"
     inkscape:pageopacity="0.0"
     inkscape:pagecheckerboard="0"
     inkscape:deskcolor="#d1d1d1"
     inkscape:zoom="17.828125"
     inkscape:cx="31.971954"
     inkscape:cy="32"
     inkscape:window-width="3440"
     inkscape:window-height="1361"
     inkscape:window-x="0"
     inkscape:window-y="0"
     inkscape:window-maximized="1"
     inkscape:current-layer="svg7" />
  <g
     id="g1">
    <g
       id="g2">
      <path
         style="fill:url(#radialGradient8)"
         d="M 12.75,4 C 11.2265,4 10,5.2488 10,6.8 v 50.4 c 0,1.55008 1.2265,2.8 2.75,2.8 h 38.5 C 52.7724,60 54,58.75008 54,57.2 V 22 L 36,4 Z"
         id="path2"
         sodipodi:nodetypes="ssssssccs" />
      <path
         style="opacity:0.374382;fill:#ffffff;fill-opacity:1"
         d="M 54,22 36,4 V 19.1875 C 36,20.74675 37.2555,22 38.8125,22 Z"
         id="path4" />
    </g>
  </g>
  <path
     style="fill:#ffffff"
     d="m 20,26 6,28 6,-28 H 29 L 26,42 23,26 Z m 14,0 v 28 h 5.5 c 0,0 2.55,0 2.55,-2.8 v -9.8 c 0,-1.4 -1.175,-1.4 -1.175,-1.4 0,0 1.175,0 1.175,-1.4 V 28.8 C 42.05,26 39.5,26 39.5,26 Z m 3,3 h 2 v 9 h -2 z m 0,13 h 2 v 9 h -2 z"
     id="path7" />
</svg>
