<?xml version="1.0" encoding="UTF-8" standalone="no"?>
<svg
   width="64"
   height="64"
   version="1.1"
   id="svg7"
   sodipodi:docname="application-x-homebank.svg"
   inkscape:version="1.4 (e7c3feb100, 2024-10-09)"
   xmlns:inkscape="http://www.inkscape.org/namespaces/inkscape"
   xmlns:sodipodi="http://sodipodi.sourceforge.net/DTD/sodipodi-0.dtd"
   xmlns:xlink="http://www.w3.org/1999/xlink"
   xmlns="http://www.w3.org/2000/svg"
   xmlns:svg="http://www.w3.org/2000/svg">
  <defs
     id="defs7">
    <inkscape:path-effect
       effect="fillet_chamfer"
       id="path-effect7"
       is_visible="true"
       lpeversion="1"
       nodesatellites_param="F,0,0,1,0,1.4787215,0,1 @ F,0,0,1,0,1.4787215,0,1 @ F,0,0,1,0,0.90526316,0,1 @ F,0,0,1,0,1.9859649,0,1 @ F,0,0,1,0,1.9859649,0,1 @ F,0,0,1,0,0,0,1 @ F,0,0,1,0,0.90526316,0,1 @ F,0,0,1,0,1.4787215,0,1 @ F,0,0,1,0,0,0,1 @ F,0,0,1,0,2.0842105,0,1 @ F,0,1,1,0,2.0842105,0,1 @ F,0,0,1,0,0,0,1"
       radius="0"
       unit="px"
       method="auto"
       mode="F"
       chamfer_steps="1"
       flexible="false"
       use_knot_distance="true"
       apply_no_radius="true"
       apply_with_radius="true"
       only_selected="false"
       hide_knots="false" />
    <radialGradient
       inkscape:collect="always"
       xlink:href="#linearGradient4"
       id="radialGradient15"
       cx="17.386076"
       cy="47.039314"
       fx="17.386076"
       fy="47.039314"
       r="22"
       gradientTransform="matrix(2.0221847,-2.0221847,2.5736897,2.5736897,-138.00161,-36.688012)"
       gradientUnits="userSpaceOnUse" />
    <linearGradient
       id="linearGradient4"
       inkscape:collect="always">
      <stop
         style="stop-color:#ffa12d;stop-opacity:1;"
         offset="0"
         id="stop3" />
      <stop
         style="stop-color:#fadb6a;stop-opacity:1;"
         offset="1"
         id="stop4" />
    </linearGradient>
  </defs>
  <sodipodi:namedview
     id="namedview7"
     pagecolor="#ffffff"
     bordercolor="#000000"
     borderopacity="0.25"
     inkscape:showpageshadow="2"
     inkscape:pageopacity="0.0"
     inkscape:pagecheckerboard="0"
     inkscape:deskcolor="#d1d1d1"
     inkscape:zoom="17.8125"
     inkscape:cx="32"
     inkscape:cy="32"
     inkscape:current-layer="svg7" />
  <g
     id="g1">
    <g
       id="g2">
      <path
         style="fill:url(#radialGradient15)"
         d="M 12.75,4 C 11.2265,4 10,5.2488 10,6.8 v 50.4 c 0,1.55008 1.2265,2.8 2.75,2.8 h 38.5 C 52.7724,60 54,58.75008 54,57.2 V 22 L 36,4 Z"
         id="path2"
         sodipodi:nodetypes="ssssssccs" />
      <path
         style="opacity:0.457139;fill:#ffffff;fill-opacity:1"
         d="M 54,22 36,4 V 19.1875 C 36,20.74675 37.2555,22 38.8125,22 Z"
         id="path4" />
    </g>
  </g>
  <path
     style="fill:#3f3f3f"
     d="M 30.954532,27.041854 19.045468,38.95424 A 0.61262732,0.61262732 67.496004 0 0 19.478721,40 h 1.616016 A 0.90526316,0.90526316 45 0 1 22,40.905263 V 52.014035 A 1.9859649,1.9859649 45 0 0 23.985965,54 h 16.02807 A 1.9859649,1.9859649 135 0 0 42,52.014035 V 42 40.905263 A 0.90526316,0.90526316 135 0 1 42.905263,40 h 1.616015 a 0.6125065,0.6125065 112.5 0 0 0.433108,-1.045614 L 42,36 V 30.08421 A 2.0842105,2.0842105 45 0 0 39.91579,28 2.0017721,2.0017721 132.58897 0 0 38,30.08421 v 1.911884 l -4.954386,-4.954386 a 1.4785153,1.4785153 179.996 0 0 -2.091082,1.46e-4 z"
     id="path6"
     inkscape:path-effect="#path-effect7"
     inkscape:original-d="M 32,25.996094 18,40 h 4 V 54 H 42 V 42 40 h 4 l -4,-4 v -8 h -4 v 3.996094 z"
     sodipodi:nodetypes="ccccccccccccc" />
</svg>
