<?xml version="1.0" encoding="UTF-8" standalone="no"?>
<svg
   width="64"
   height="64"
   version="1.1"
   id="svg6"
   sodipodi:docname="application-pgp.svg"
   inkscape:version="1.3.2 (091e20ef0f, 2023-11-25, custom)"
   xmlns:inkscape="http://www.inkscape.org/namespaces/inkscape"
   xmlns:sodipodi="http://sodipodi.sourceforge.net/DTD/sodipodi-0.dtd"
   xmlns:xlink="http://www.w3.org/1999/xlink"
   xmlns="http://www.w3.org/2000/svg"
   xmlns:svg="http://www.w3.org/2000/svg">
  <defs
     id="defs6">
    <inkscape:path-effect
       effect="fillet_chamfer"
       id="path-effect9"
       is_visible="true"
       lpeversion="1"
       nodesatellites_param="F,0,0,1,0,0,0,1 @ F,0,0,1,0,0,0,1 @ F,0,0,1,0,0,0,1 @ F,0,0,1,0,0,0,1 @ F,0,1,1,0,0.97554156,0,1 @ F,0,1,1,0,0.97554156,0,1 @ F,0,1,1,0,0.97554156,0,1 @ F,0,1,1,0,0.97554156,0,1 @ F,0,0,1,0,0.97554156,0,1 @ F,0,1,1,0,0.97554156,0,1 @ F,0,0,1,0,0,0,1 @ F,0,0,1,0,0,0,1 | F,0,0,1,0,0,0,1 @ F,0,0,1,0,0,0,1 @ F,0,0,1,0,0,0,1 @ F,0,0,1,0,0,0,1"
       radius="0"
       unit="px"
       method="auto"
       mode="F"
       chamfer_steps="1"
       flexible="false"
       use_knot_distance="true"
       apply_no_radius="true"
       apply_with_radius="true"
       only_selected="false"
       hide_knots="false" />
    <inkscape:path-effect
       effect="fillet_chamfer"
       id="path-effect8"
       is_visible="true"
       lpeversion="1"
       nodesatellites_param="F,0,0,1,0,0,0,1 @ F,0,0,1,0,0,0,1 @ F,0,0,1,0,0,0,1 @ F,0,0,1,0,0,0,1 @ F,0,1,1,0,1.0326523,0,1 @ F,0,1,1,0,1.0326523,0,1 @ F,0,1,1,0,1.0326523,0,1 @ F,0,1,1,0,1.0326523,0,1 @ F,0,0,1,0,1.0326523,0,1 @ F,0,1,1,0,1.0326523,0,1 @ F,0,0,1,0,0,0,1 @ F,0,0,1,0,0,0,1 | F,0,0,1,0,0,0,1 @ F,0,0,1,0,0,0,1 @ F,0,0,1,0,0,0,1 @ F,0,0,1,0,0,0,1"
       radius="0"
       unit="px"
       method="auto"
       mode="F"
       chamfer_steps="1"
       flexible="false"
       use_knot_distance="true"
       apply_no_radius="true"
       apply_with_radius="true"
       only_selected="false"
       hide_knots="false" />
    <radialGradient
       inkscape:collect="always"
       xlink:href="#linearGradient9-6"
       id="radialGradient10-3"
       cx="11.199748"
       cy="52.255859"
       fx="11.199748"
       fy="52.255859"
       r="22"
       gradientTransform="matrix(2.3937499,-0.64140334,0.81633154,3.0465908,-58.267754,-94.238478)"
       gradientUnits="userSpaceOnUse" />
    <linearGradient
       id="linearGradient9-6"
       inkscape:collect="always">
      <stop
         style="stop-color:#28a268;stop-opacity:1;"
         offset="0"
         id="stop9-7" />
      <stop
         style="stop-color:#1fc327;stop-opacity:1;"
         offset="1"
         id="stop10-5" />
    </linearGradient>
  </defs>
  <sodipodi:namedview
     id="namedview6"
     pagecolor="#ffffff"
     bordercolor="#000000"
     borderopacity="0.25"
     inkscape:showpageshadow="2"
     inkscape:pageopacity="0.0"
     inkscape:pagecheckerboard="0"
     inkscape:deskcolor="#d1d1d1"
     inkscape:zoom="9.8221551"
     inkscape:cx="16.646041"
     inkscape:cy="39.706154"
     inkscape:window-width="1920"
     inkscape:window-height="1014"
     inkscape:window-x="0"
     inkscape:window-y="0"
     inkscape:window-maximized="1"
     inkscape:current-layer="svg6" />
  <g
     id="g1">
    <path
       style="fill:url(#radialGradient10-3);fill-opacity:1"
       d="M 12.75,4 C 11.2265,4 10,5.2488 10,6.8 v 50.4 c 0,1.55008 1.2265,2.8 2.75,2.8 h 38.5 C 52.7724,60 54,58.75008 54,57.2 V 22 L 36,4 Z"
       id="path2-3"
       sodipodi:nodetypes="ssssssccs" />
    <path
       style="opacity:0.537555;fill:#ffffff;fill-opacity:1"
       d="M 54,22 36,4 V 19.1875 C 36,20.74675 37.2555,22 38.8125,22 Z"
       id="path4-5" />
  </g>
  <path
     style="fill:#ffffff;fill-opacity:1"
     d="m 25,32 c -4.970561,0 -9,4.029439 -9,9 0,4.970561 4.029439,9 9,9 3.809393,-0.0054 7.202861,-2.408467 8.472656,-6 h 4.551802 A 0.97554156,0.97554156 45 0 1 39,44.975542 v 1.048916 A 0.97554156,0.97554156 45 0 0 39.975542,47 h 4.048916 A 0.97554156,0.97554156 135 0 0 45,46.024458 V 44.975542 A 0.97554156,0.97554156 135 0 1 45.975542,44 h 0.04892 A 0.97554156,0.97554156 135 0 0 47,43.024458 V 38.975542 A 0.97554156,0.97554156 45 0 0 46.024458,38 H 33.476562 c -1.270088,-3.592363 -4.664335,-5.995647 -8.474609,-6 z m 0,6 c 1.656853,0 3,1.343147 3,3 0,1.656853 -1.343147,3 -3,3 -1.656852,0 -3,-1.343147 -3,-3 0,-1.656853 1.343148,-3 3,-3 z"
     id="path6"
     inkscape:path-effect="#path-effect9"
     inkscape:original-d="M 25 32 C 20.029439 32 16 36.029439 16 41 C 16 45.970561 20.029439 50 25 50 C 28.809393 49.9946 32.202861 47.591533 33.472656 44 L 39 44 L 39 47 L 45 47 L 45 44 L 47 44 L 47 38 L 33.476562 38 C 32.206474 34.407637 28.812227 32.004353 25.001953 32 L 25 32 z M 25 38 C 26.656853 38 28 39.343147 28 41 C 28 42.656853 26.656853 44 25 44 C 23.343148 44 22 42.656853 22 41 C 22 39.343147 23.343148 38 25 38 z" />
</svg>
