<?xml version="1.0" encoding="UTF-8" standalone="no"?>
<svg
   width="64"
   height="64"
   version="1.1"
   id="svg8"
   sodipodi:docname="application-x-openboardview-board.svg"
   inkscape:version="1.4 (e7c3feb100, 2024-10-09)"
   xmlns:inkscape="http://www.inkscape.org/namespaces/inkscape"
   xmlns:sodipodi="http://sodipodi.sourceforge.net/DTD/sodipodi-0.dtd"
   xmlns:xlink="http://www.w3.org/1999/xlink"
   xmlns="http://www.w3.org/2000/svg"
   xmlns:svg="http://www.w3.org/2000/svg">
  <defs
     id="defs8">
    <radialGradient
       inkscape:collect="always"
       xlink:href="#linearGradient7"
       id="radialGradient8"
       cx="17.222261"
       cy="49.789066"
       fx="17.222261"
       fy="49.789066"
       r="22"
       gradientTransform="matrix(2.3473368,-1.3552355,1.7248452,2.9875196,-97.08262,-74.764958)"
       gradientUnits="userSpaceOnUse" />
    <linearGradient
       id="linearGradient7"
       inkscape:collect="always">
      <stop
         style="stop-color:#656bff;stop-opacity:1;"
         offset="0"
         id="stop7" />
      <stop
         style="stop-color:#a057ff;stop-opacity:1;"
         offset="1"
         id="stop8" />
    </linearGradient>
  </defs>
  <sodipodi:namedview
     id="namedview8"
     pagecolor="#ffffff"
     bordercolor="#000000"
     borderopacity="0.25"
     inkscape:showpageshadow="2"
     inkscape:pageopacity="0.0"
     inkscape:pagecheckerboard="0"
     inkscape:deskcolor="#d1d1d1"
     inkscape:zoom="17.8125"
     inkscape:cx="32"
     inkscape:cy="32"
     inkscape:current-layer="svg8" />
  <g
     id="g1">
    <g
       id="g2">
      <g
         id="g7"
         transform="translate(-12,4)">
        <path
           style="fill:url(#radialGradient8)"
           d="M 24.75,0 C 23.2265,0 22,1.2488 22,2.8 v 50.4 c 0,1.55008 1.2265,2.8 2.75,2.8 h 38.5 C 64.7724,56 66,54.75008 66,53.2 V 18 L 48,0 Z"
           id="path2"
           sodipodi:nodetypes="ssssssccs" />
        <path
           style="opacity:0.448535;fill:#ffffff;fill-opacity:1"
           d="M 66,18 48,0 V 15.1875 C 48,16.74675 49.2555,18 50.8125,18 Z"
           id="path4" />
      </g>
    </g>
  </g>
  <circle
     style="fill:#ffffff"
     cx="18.5"
     cy="38.5"
     r="2.5"
     id="circle5" />
  <circle
     style="fill:#ffffff"
     cx="27.5"
     cy="38.5"
     r="2.5"
     id="circle6" />
  <path
     style="fill:#ffffff"
     d="m 42,32 a 7,7 0 0 0 -7,7 7,7 0 0 0 7,7 7,7 0 0 0 7,-7 7,7 0 0 0 -7,-7 z m 0,2.8 A 4.2,4.2 0 0 1 46.2,39 4.2,4.2 0 0 1 42,43.2 4.2,4.2 0 0 1 37.8,39 4.2,4.2 0 0 1 42,34.8 Z"
     id="path6" />
  <path
     style="fill:#ffffff"
     d="M 36.847656 41.494141 L 33.324219 45 L 14.808594 45 L 10 50.003906 L 10 54.332031 L 16.085938 48 L 34.5625 48 L 38.964844 43.621094 L 36.847656 41.494141 z"
     id="path7" />
</svg>
