<?xml version="1.0" encoding="UTF-8" standalone="no"?>
<svg
   width="64"
   height="64"
   version="1.1"
   id="svg6"
   sodipodi:docname="application-x-gettext-translation.svg"
   inkscape:version="1.4 (e7c3feb100, 2024-10-09)"
   xmlns:inkscape="http://www.inkscape.org/namespaces/inkscape"
   xmlns:sodipodi="http://sodipodi.sourceforge.net/DTD/sodipodi-0.dtd"
   xmlns:xlink="http://www.w3.org/1999/xlink"
   xmlns="http://www.w3.org/2000/svg"
   xmlns:svg="http://www.w3.org/2000/svg">
  <defs
     id="defs6">
    <radialGradient
       inkscape:collect="always"
       xlink:href="#linearGradient8"
       id="radialGradient9"
       cx="21.477476"
       cy="23.351734"
       fx="21.477476"
       fy="23.351734"
       r="22"
       gradientTransform="matrix(5.2437612,-5.1735227e-8,0,4.286547,-93.168663,-54.97246)"
       gradientUnits="userSpaceOnUse" />
    <linearGradient
       id="linearGradient8"
       inkscape:collect="always">
      <stop
         style="stop-color:#ededed;stop-opacity:1;"
         offset="0"
         id="stop8" />
      <stop
         style="stop-color:#b7b7b7;stop-opacity:1;"
         offset="1"
         id="stop9" />
    </linearGradient>
  </defs>
  <sodipodi:namedview
     id="namedview6"
     pagecolor="#ffffff"
     bordercolor="#000000"
     borderopacity="0.25"
     inkscape:showpageshadow="2"
     inkscape:pageopacity="0.0"
     inkscape:pagecheckerboard="0"
     inkscape:deskcolor="#d1d1d1"
     inkscape:zoom="17.8125"
     inkscape:cx="32"
     inkscape:cy="32"
     inkscape:current-layer="svg6" />
  <g
     id="g1">
    <g
       id="g2">
      <path
         style="fill:url(#radialGradient9);fill-opacity:1"
         d="M 12.75,4 C 11.2265,4 10,5.2488 10,6.8 v 50.4 c 0,1.5512 1.2265,2.8 2.75,2.8 h 38.5 C 52.7735,60 54,58.7512 54,57.2 V 20 L 38,4 Z"
         id="path2"
         sodipodi:nodetypes="ssssssccs" />
      <path
         style="opacity:0.593376;fill:#ffffff;fill-opacity:1"
         d="M 38,4 V 17.333333 C 38,18.806133 39.193906,20 40.666666,20 H 54 Z"
         id="path4" />
    </g>
  </g>
  <path
     style="opacity:0.5;stroke-width:1.52732"
     d="m 22.50863,26.28093 c -1.440266,0.88432 -4.336071,2.124506 -6.72175,2.816383 l 0.07483,0.209244 c 1.134801,-0.113022 2.347496,-0.273391 3.485351,-0.465834 v 2.900388 h -3.541862 l 0.09622,0.31921 h 2.895805 c -0.568164,2.33375 -1.609798,4.81565 -3.105048,6.619419 l 0.226044,0.210771 c 1.40361,-1.01567 2.536884,-2.190182 3.425786,-3.528116 v 6.02529 h 0.360448 c 0.965268,0 1.591471,-0.37114 1.608272,-0.485689 v -6.799644 c 0.719369,0.649112 1.399028,1.678528 1.533432,2.484955 0.244372,0.207717 0.511654,0.308519 0.757553,0.308519 0.510125,0 0.945413,-0.371139 0.945413,-0.885847 0,-0.697987 -0.795735,-1.612854 -3.236398,-2.161162 v -1.785442 h 2.651433 c 0.511653,0 0.757552,-0.08248 0.888902,-0.290191 l -1.834316,-1.240186 -0.988177,1.205057 H 21.31273 v -3.285271 c 0.852246,-0.193971 1.646454,-0.384887 2.290985,-0.578856 0.244371,0.06568 0.45667,0.09928 0.64453,0.09928 0.229098,0 0.415432,-0.0504 0.529981,-0.146622 z m 8.722544,2.237529 -0.832391,0.951521 H 27.108928 L 25.002749,28.6941 v 12.368264 c 1.779331,0 2.006903,-0.643002 2.006903,-0.676604 v -1.176039 h 3.576991 v 1.545652 c 1.498305,0 2.025231,-0.43376 2.025231,-0.465834 V 30.239751 c 0.397104,-0.07942 0.701041,-0.207716 0.814063,-0.354338 z m -4.221522,1.273787 h 3.576991 v 9.098265 h -3.576991 z m 16.06775,13.186985 c -2.092432,0 -3.61212,0.488743 -4.557533,1.464703 -0.785043,0.806427 -1.224912,2.038977 -1.35779,3.656412 H 33.568288 V 45.03501 c 0,-0.401686 0.06262,-0.688824 0.184805,-0.86294 0.120659,-0.172587 0.316156,-0.267281 0.591074,-0.285609 l 0.557474,-0.0336 c 0.206188,-0.01833 0.310046,-0.120659 0.310046,-0.306991 0,-0.13746 -0.01527,-0.224517 -0.04735,-0.256591 -0.03513,-0.03208 -0.120658,-0.0504 -0.259645,-0.0504 -0.0336,0 -0.13135,0.003 -0.290191,0.01527 -0.621621,0.02749 -1.220331,0.04124 -1.79766,0.04124 -0.604819,0 -1.231022,-0.01375 -1.867916,-0.04124 -0.152733,-0.01221 -0.244371,-0.01527 -0.271863,-0.01527 -0.134405,0 -0.219935,0.01985 -0.256591,0.0504 -0.03512,0.03208 -0.05345,0.117604 -0.05345,0.256591 0,0.18786 0.10844,0.290191 0.328375,0.306991 l 0.522344,0.0336 c 0.288664,0.0168 0.490271,0.10844 0.61093,0.279501 0.120658,0.172588 0.181751,0.461252 0.181751,0.869048 v 8.220054 c 0,0.401684 -0.05956,0.691875 -0.178697,0.865992 -0.117604,0.172587 -0.314629,0.262699 -0.594128,0.282554 l -0.5422,0.0336 c -0.01375,0.0046 -0.02902,0.0091 -0.0504,0.0091 -0.184805,0.01069 -0.277972,0.102332 -0.277972,0.279502 0,0.146622 0.02139,0.235207 0.05956,0.268808 0.03818,0.03666 0.123713,0.05346 0.250482,0.05346 0.0336,0 0.120658,-0.003 0.259644,-0.0091 0.647586,-0.03054 1.27226,-0.04735 1.877081,-0.04735 0.577328,0 1.177566,0.01375 1.800714,0.04124 0.152733,0.01069 0.245899,0.01527 0.287137,0.01527 0.134404,0 0.219934,-0.01681 0.25659,-0.05346 0.03513,-0.0336 0.05346,-0.123713 0.05346,-0.268808 0,-0.17717 -0.08553,-0.268809 -0.259645,-0.2795 -0.02291,-0.0046 -0.03513,-0.0091 -0.04735,-0.0091 l -0.540671,-0.0336 c -0.288665,-0.01833 -0.490272,-0.109968 -0.610931,-0.2795 C 33.63091,53.954639 33.56829,53.66292 33.56829,53.255125 v -3.393713 h 3.570882 c 0.09012,1.785442 0.499434,3.134068 1.270733,3.993951 0.872101,0.972905 2.283348,1.458593 4.223049,1.458593 2.112287,0 3.654884,-0.49027 4.624735,-1.470812 0.968322,-0.982069 1.455539,-2.547575 1.455539,-4.694991 0,-2.174909 -0.442924,-3.746524 -1.330299,-4.716375 -0.885848,-0.972905 -2.321531,-1.452484 -4.305525,-1.452484 z m -0.184806,0.584964 c 1.44943,0 2.492592,0.433762 3.135595,1.302808 0.638422,0.867519 0.957632,2.297094 0.957632,4.278033 0,1.965665 -0.320738,3.384548 -0.963741,4.253595 -0.64453,0.870575 -1.684637,1.304335 -3.129486,1.304335 -1.444848,0 -2.491064,-0.43376 -3.135594,-1.304335 -0.639949,-0.869047 -0.95916,-2.297093 -0.95916,-4.281086 0,-1.942756 0.323793,-3.357058 0.974433,-4.235268 0.652167,-0.878211 1.690747,-1.318081 3.120321,-1.318082 z"
     id="path6"
     sodipodi:nodetypes="ccccccccccccscccssccsccccccscccccccscccsccccccccccccscccscscscscscccssccccscscscscsccccscccscscccscscscscs" />
</svg>
