<?xml version="1.0" encoding="UTF-8" standalone="no"?>
<svg
   width="64"
   height="64"
   version="1.1"
   id="svg7"
   sodipodi:docname="application-x-pc-engine-rom.svg"
   inkscape:version="1.4 (e7c3feb100, 2024-10-09)"
   xmlns:inkscape="http://www.inkscape.org/namespaces/inkscape"
   xmlns:sodipodi="http://sodipodi.sourceforge.net/DTD/sodipodi-0.dtd"
   xmlns:xlink="http://www.w3.org/1999/xlink"
   xmlns="http://www.w3.org/2000/svg"
   xmlns:svg="http://www.w3.org/2000/svg">
  <defs
     id="defs7">
    <radialGradient
       inkscape:collect="always"
       xlink:href="#linearGradient4"
       id="radialGradient15"
       cx="17.386076"
       cy="47.039314"
       fx="17.386076"
       fy="47.039314"
       r="22"
       gradientTransform="matrix(2.0221847,-2.0221847,2.5736897,2.5736897,-138.00161,-36.688012)"
       gradientUnits="userSpaceOnUse" />
    <linearGradient
       id="linearGradient4"
       inkscape:collect="always">
      <stop
         style="stop-color:#ff4f54;stop-opacity:1;"
         offset="0"
         id="stop3" />
      <stop
         style="stop-color:#fa7e6a;stop-opacity:1;"
         offset="1"
         id="stop4" />
    </linearGradient>
  </defs>
  <sodipodi:namedview
     id="namedview7"
     pagecolor="#ffffff"
     bordercolor="#000000"
     borderopacity="0.25"
     inkscape:showpageshadow="2"
     inkscape:pageopacity="0.0"
     inkscape:pagecheckerboard="0"
     inkscape:deskcolor="#d1d1d1"
     inkscape:zoom="17.8125"
     inkscape:cx="32"
     inkscape:cy="32"
     inkscape:current-layer="svg7" />
  <g
     id="g1">
    <g
       id="g3">
      <g
         id="g2">
        <path
           style="fill:url(#radialGradient15)"
           d="M 12.75,4 C 11.2265,4 10,5.2488 10,6.8 v 50.4 c 0,1.55008 1.2265,2.8 2.75,2.8 h 38.5 C 52.7724,60 54,58.75008 54,57.2 V 22 L 36,4 Z"
           id="path2"
           sodipodi:nodetypes="ssssssccs" />
        <path
           style="opacity:0.457139;fill:#ffffff;fill-opacity:1"
           d="M 54,22 36,4 V 19.1875 C 36,20.74675 37.2555,22 38.8125,22 Z"
           id="path4" />
      </g>
    </g>
  </g>
  <path
     style="fill:#ffffff"
     d="M 39.0625 30.011719 C 38.899772 30.009619 38.727656 30.019016 38.544922 30.041016 C 36.914259 30.236923 35.281366 30.500083 33.699219 30.947266 C 30.312688 31.904442 29.25 35.378906 29.25 35.378906 L 28.064453 42.878906 C 28.064453 42.878906 27.747058 46.345637 31.792969 45.871094 L 37 40.779297 L 37 39.71875 L 36.072266 39.910156 C 36.072266 39.910156 36.165516 40.956366 35.626953 41.066406 C 34.840716 41.227053 34.04818 41.358284 33.253906 41.470703 C 32.747088 41.542433 32.908203 40.966797 32.908203 40.966797 L 33.798828 34.925781 C 33.798828 34.925781 33.799799 34.547913 34.589844 34.373047 C 35.212056 34.235327 35.840494 34.125035 36.46875 34.019531 C 36.947907 33.939061 36.912109 34.373047 36.912109 34.373047 L 36.912109 35.078125 L 41.710938 34.373047 L 41.757812 32.611328 C 41.757812 32.611328 41.503421 30.043214 39.0625 30.011719 z M 24.90625 31.625 L 16.447266 33.189453 L 13.927734 49.988281 L 18.402344 48.994141 L 19.033203 44.296875 L 22.054688 43.691406 C 22.054688 43.691406 26.192328 43.282804 27.492188 38.955078 C 27.863305 37.719489 27.915403 36.401601 27.982422 35.111328 C 28.156066 31.768235 24.90625 31.625 24.90625 31.625 z M 51 36 L 41 40 L 38 37 L 38 41.199219 L 29 50 L 39 45 L 43 48.800781 L 42 43 L 51 36 z M 22.9375 36.027344 C 23.131365 36.030544 23.503987 36.1353 23.373047 36.917969 C 23.278147 37.485251 23.162749 38.107834 23.099609 38.679688 C 22.977467 39.78595 22.162109 39.8125 22.162109 39.8125 L 19.835938 40.240234 L 20.480469 36.464844 L 22.828125 36.035156 C 22.828125 36.035156 22.87287 36.026344 22.9375 36.027344 z"
     id="path7" />
</svg>
