<?xml version="1.0" encoding="UTF-8" standalone="no"?>
<svg
   width="64"
   height="64"
   version="1.1"
   id="svg10"
   sodipodi:docname="application-x-step.svg"
   inkscape:version="1.4 (e7c3feb100, 2024-10-09)"
   xmlns:inkscape="http://www.inkscape.org/namespaces/inkscape"
   xmlns:sodipodi="http://sodipodi.sourceforge.net/DTD/sodipodi-0.dtd"
   xmlns:xlink="http://www.w3.org/1999/xlink"
   xmlns="http://www.w3.org/2000/svg"
   xmlns:svg="http://www.w3.org/2000/svg">
  <defs
     id="defs10">
    <radialGradient
       inkscape:collect="always"
       xlink:href="#linearGradient9"
       id="radialGradient10"
       cx="11.199748"
       cy="52.255859"
       fx="11.199748"
       fy="52.255859"
       r="22"
       gradientTransform="matrix(2.3937499,-0.64140334,0.81633154,3.0465908,-58.267754,-94.238478)"
       gradientUnits="userSpaceOnUse" />
    <linearGradient
       id="linearGradient9"
       inkscape:collect="always">
      <stop
         style="stop-color:#2897a2;stop-opacity:1;"
         offset="0"
         id="stop9" />
      <stop
         style="stop-color:#1fc3b8;stop-opacity:1;"
         offset="1"
         id="stop10" />
    </linearGradient>
  </defs>
  <sodipodi:namedview
     id="namedview10"
     pagecolor="#ffffff"
     bordercolor="#000000"
     borderopacity="0.25"
     inkscape:showpageshadow="2"
     inkscape:pageopacity="0.0"
     inkscape:pagecheckerboard="0"
     inkscape:deskcolor="#d1d1d1"
     inkscape:zoom="17.8125"
     inkscape:cx="32"
     inkscape:cy="32"
     inkscape:current-layer="svg10" />
  <g
     id="g1">
    <g
       id="g3">
      <g
         id="g2">
        <path
           style="fill:url(#radialGradient10);fill-opacity:1"
           d="M 12.75,4 C 11.2265,4 10,5.2488 10,6.8 v 50.4 c 0,1.55008 1.2265,2.8 2.75,2.8 h 38.5 C 52.7724,60 54,58.75008 54,57.2 V 22 L 36,4 Z"
           id="path2"
           sodipodi:nodetypes="ssssssccs" />
        <path
           style="opacity:0.537555;fill:#ffffff;fill-opacity:1"
           d="M 54,22 36,4 V 19.1875 C 36,20.74675 37.2555,22 38.8125,22 Z"
           id="path4" />
      </g>
    </g>
  </g>
  <path
     id="rect6"
     style="fill:#e4e4e4"
     d="m 17.431641,33.961404 c -0.791364,0 -1.479053,0.646649 -1.429688,1.445312 V 59.961404 H 19 v -23 h 4 V 47.09617 a 4,4 0 0 0 -3,3.865234 4,4 0 0 0 4,4 4,4 0 0 0 4,-4 4,4 0 0 0 -3,-3.873047 V 36.961404 h 6 V 47.09617 a 4,4 0 0 0 -3,3.865234 4,4 0 0 0 4,4 4,4 0 0 0 4,-4 4,4 0 0 0 -3,-3.873047 V 36.961404 h 6 V 47.09617 a 4,4 0 0 0 -3,3.865234 4,4 0 0 0 4,4 4,4 0 0 0 4,-4 4,4 0 0 0 -3,-3.873047 V 36.961404 h 4 v 23 h 3 V 35.406716 c 0,-0.800222 -0.63637,-1.445312 -1.427734,-1.445312 z" />
</svg>
