<?xml version="1.0" encoding="UTF-8" standalone="no"?>
<svg
   width="64"
   height="64"
   version="1.1"
   id="svg17"
   sodipodi:docname="application-bitwig-project-folder.svg"
   inkscape:version="1.4 (e7c3feb100, 2024-10-09)"
   xmlns:inkscape="http://www.inkscape.org/namespaces/inkscape"
   xmlns:sodipodi="http://sodipodi.sourceforge.net/DTD/sodipodi-0.dtd"
   xmlns:xlink="http://www.w3.org/1999/xlink"
   xmlns="http://www.w3.org/2000/svg"
   xmlns:svg="http://www.w3.org/2000/svg">
  <defs
     id="defs17">
    <linearGradient
       id="linearGradient23">
      <stop
         style="stop-color:#d58523;stop-opacity:1;"
         offset="0"
         id="stop22" />
      <stop
         style="stop-color:#efbb33;stop-opacity:1;"
         offset="1"
         id="stop23" />
    </linearGradient>
    <linearGradient
       id="linearGradient21">
      <stop
         style="stop-color:#d08e3b;stop-opacity:1;"
         offset="0"
         id="stop20" />
      <stop
         style="stop-color:#faaf6a;stop-opacity:1;"
         offset="1"
         id="stop21" />
    </linearGradient>
    <linearGradient
       id="linearGradient4">
      <stop
         style="stop-color:#ffa12d;stop-opacity:1;"
         offset="0"
         id="stop18" />
      <stop
         style="stop-color:#fadb6a;stop-opacity:1;"
         offset="1"
         id="stop19" />
    </linearGradient>
    <linearGradient
       id="linearGradient4-1">
      <stop
         style="stop-color:#ffa12d;stop-opacity:1;"
         offset="0"
         id="stop3" />
      <stop
         style="stop-color:#fadb6a;stop-opacity:1;"
         offset="1"
         id="stop4" />
    </linearGradient>
    <radialGradient
       id="SVGID_2_"
       cx="28.128099"
       cy="25.073299"
       r="40.0504"
       fx="5.4853001"
       fy="7.4745002"
       gradientUnits="userSpaceOnUse"
       gradientTransform="translate(0,0.200195)"
       xlink:href="#linearGradient4">
	<stop
   offset="0"
   style="stop-color:#15C7FF"
   id="stop3-6" />

	<stop
   offset="1"
   style="stop-color:#005A9E"
   id="stop4-7" />

</radialGradient>
    <radialGradient
       id="SVGID_4_"
       cx="-5.4389319"
       cy="34.770519"
       r="32.348301"
       fx="-14.083929"
       fy="26.851713"
       gradientUnits="userSpaceOnUse"
       gradientTransform="matrix(1.9198129,0,0,1.9198129,5.0027999,-31.782178)">
	<stop
   offset="0"
   style="stop-color:#bab5b5;stop-opacity:1;"
   id="stop7" />

	<stop
   offset="1"
   style="stop-color:#ffffff;stop-opacity:1;"
   id="stop8" />

</radialGradient>
    <radialGradient
       id="SVGID_6_"
       cx="32"
       cy="39"
       r="40.048599"
       fx="14.0678"
       fy="24.8514"
       gradientUnits="userSpaceOnUse"
       gradientTransform="translate(0,0.200195)"
       fr="0"
       spreadMethod="pad">
	<stop
   offset="0"
   style="stop-color:#00F0F4"
   id="stop11" />

	<stop
   offset="1"
   style="stop-color:#1598FF"
   id="stop12" />

</radialGradient>
    <linearGradient
       inkscape:collect="always"
       xlink:href="#linearGradient4"
       id="linearGradient19"
       x1="4"
       y1="39.200195"
       x2="60"
       y2="39.200195"
       gradientUnits="userSpaceOnUse" />
    <linearGradient
       inkscape:collect="always"
       xlink:href="#linearGradient23"
       id="linearGradient20"
       x1="4"
       y1="18.5"
       x2="59.900391"
       y2="18.5"
       gradientUnits="userSpaceOnUse" />
  </defs>
  <sodipodi:namedview
     id="namedview17"
     pagecolor="#ffffff"
     bordercolor="#000000"
     borderopacity="0.25"
     inkscape:showpageshadow="2"
     inkscape:pageopacity="0.0"
     inkscape:pagecheckerboard="0"
     inkscape:deskcolor="#d1d1d1"
     inkscape:zoom="8.90625"
     inkscape:cx="39.522807"
     inkscape:cy="43.22807"
     inkscape:current-layer="svg17" />
  <path
     d="M 11.599609,6.799804 C 7.399618,6.799804 4,10.199422 4,14.399414 v 15.800781 c 0,-4.999985 4.000015,-9 9,-9 h 38 c 4.564943,0 8.28562,3.337322 8.900391,7.722656 v -8.523437 c 0,-4.199992 -3.399618,-7.59961 -7.59961,-7.59961 H 32 c -4.199992,0 -5.60079,-6 -9.800781,-6 z"
     style="fill:url(#linearGradient20)"
     id="path17" />
  <path
     d="M 11.400391,16.799804 C 9.500396,16.799804 8,18.300201 8,20.200195 v 2.501953 c 1.427003,-0.948926 3.143947,-1.501953 5,-1.501953 h 38 c 1.856053,0 3.572997,0.553027 5,1.501953 v -2.501953 c 0,-1.899994 -1.500396,-3.400391 -3.400391,-3.400391 z"
     style="fill:url(#SVGID_4_)"
     id="path15" />
  <path
     d="m 13,21.200195 c -4.99999,0 -9,4.00001 -9,9 v 18 c 0,4.99999 4.00001,9 9,9 h 38 c 4.99999,0 9,-4.00001 9,-9 v -18 c 0,-4.99999 -4.00001,-9 -9,-9 z"
     style="fill:url(#linearGradient19)"
     id="path16" />
  <g
     style="fill:#513b05"
     transform="translate(0,1)"
     id="g17">
    <circle
       cx="24"
       cy="33"
       r="2"
       id="circle4" />
    <circle
       cx="29"
       cy="33"
       r="2"
       id="circle5" />
    <circle
       cx="34"
       cy="33"
       r="2"
       id="circle6" />
    <circle
       cx="39"
       cy="33"
       r="2"
       id="circle7" />
    <circle
       cx="24"
       cy="38"
       r="2"
       id="circle8" />
    <circle
       cx="29"
       cy="38"
       r="2"
       id="circle9" />
    <circle
       cx="34"
       cy="38"
       r="2"
       id="circle10" />
    <circle
       cx="39"
       cy="38"
       r="2"
       id="circle11" />
    <circle
       cx="44"
       cy="38"
       r="2"
       id="circle12" />
    <circle
       cx="19"
       cy="38"
       r="2"
       id="circle13" />
    <circle
       cx="19"
       cy="43"
       r="2"
       id="circle14" />
    <circle
       cx="24"
       cy="43"
       r="2"
       id="circle15" />
    <circle
       cx="44"
       cy="43"
       r="2"
       id="circle16" />
    <circle
       cx="39"
       cy="43"
       r="2"
       id="circle17" />
  </g>
</svg>
