<?xml version="1.0" encoding="UTF-8" standalone="no"?>
<svg
   width="64"
   height="64"
   version="1.1"
   id="svg8"
   sodipodi:docname="application-x-gcstar.svg"
   inkscape:version="1.4 (e7c3feb100, 2024-10-09)"
   xmlns:inkscape="http://www.inkscape.org/namespaces/inkscape"
   xmlns:sodipodi="http://sodipodi.sourceforge.net/DTD/sodipodi-0.dtd"
   xmlns:xlink="http://www.w3.org/1999/xlink"
   xmlns="http://www.w3.org/2000/svg"
   xmlns:svg="http://www.w3.org/2000/svg">
  <defs
     id="defs8">
    <radialGradient
       inkscape:collect="always"
       xlink:href="#linearGradient7"
       id="radialGradient8"
       cx="16.935129"
       cy="49.153992"
       fx="16.935129"
       fy="49.153992"
       r="22"
       gradientTransform="matrix(8.3672725,-2.2420039,2.8534596,10.649256,-265.02464,-431.65247)"
       gradientUnits="userSpaceOnUse" />
    <linearGradient
       id="linearGradient7"
       inkscape:collect="always">
      <stop
         style="stop-color:#00a8ff;stop-opacity:1;"
         offset="0"
         id="stop7" />
      <stop
         style="stop-color:#0077ff;stop-opacity:1;"
         offset="1"
         id="stop8" />
    </linearGradient>
  </defs>
  <sodipodi:namedview
     id="namedview8"
     pagecolor="#ffffff"
     bordercolor="#000000"
     borderopacity="0.25"
     inkscape:showpageshadow="2"
     inkscape:pageopacity="0.0"
     inkscape:pagecheckerboard="0"
     inkscape:deskcolor="#d1d1d1"
     inkscape:zoom="17.8125"
     inkscape:cx="32"
     inkscape:cy="32"
     inkscape:current-layer="svg8" />
  <g
     id="g1">
    <path
       style="fill:url(#radialGradient8)"
       d="M 12.75,4 C 11.2265,4 10,5.2488 10,6.8 v 50.4 c 0,1.55008 1.2265,2.8 2.75,2.8 h 38.5 C 52.7724,60 54,58.75008 54,57.2 V 22 L 36,4 Z"
       id="path2"
       sodipodi:nodetypes="ssssssccs" />
    <path
       style="opacity:0.374382;fill:#ffffff;fill-opacity:1"
       d="M 54,22 36,4 V 19.1875 C 36,20.74675 37.2555,22 38.8125,22 Z"
       id="path4" />
  </g>
  <path
     style="fill:#ffdd89;fill-opacity:1"
     d="m 32,26 c -7.731986,0 -14,6.268014 -14,14 0,7.731986 6.268014,14 14,14 7.731986,0 14,-6.268014 14,-14 0,-7.731986 -6.268014,-14 -14,-14 z m -5.886718,10 c 1.65427,-0.03844 3.209304,1.271512 3.71875,3.128906 0.591676,2.155988 -0.421978,4.292702 -2.26172,4.773438 -1.839416,0.48296 -3.810678,-0.874918 -4.402344,-3.03125 -0.590188,-2.155034 0.423164,-4.288642 2.26172,-4.769532 0.22217,-0.0594 0.45143,-0.09518 0.683594,-0.10156 z m 11.773436,0 c 0.232164,0.0064 0.461424,0.04216 0.683594,0.10156 1.838556,0.48089 2.851908,2.614498 2.26172,4.769532 -0.591666,2.156332 -2.562928,3.51421 -4.402344,3.03125 -1.839742,-0.480736 -2.853396,-2.61745 -2.26172,-4.773438 C 34.677414,37.271512 36.232448,35.96156 37.886718,36 Z"
     id="path6" />
</svg>
