<?xml version="1.0" encoding="UTF-8" standalone="no"?>
<svg
   width="64"
   height="64"
   version="1.1"
   id="svg7"
   sodipodi:docname="application-x-wonderswan-rom.svg"
   inkscape:version="1.4 (e7c3feb100, 2024-10-09)"
   xmlns:inkscape="http://www.inkscape.org/namespaces/inkscape"
   xmlns:sodipodi="http://sodipodi.sourceforge.net/DTD/sodipodi-0.dtd"
   xmlns:xlink="http://www.w3.org/1999/xlink"
   xmlns="http://www.w3.org/2000/svg"
   xmlns:svg="http://www.w3.org/2000/svg">
  <defs
     id="defs7">
    <radialGradient
       inkscape:collect="always"
       xlink:href="#linearGradient7"
       id="radialGradient8"
       cx="16.935129"
       cy="49.153992"
       fx="16.935129"
       fy="49.153992"
       r="22"
       gradientTransform="matrix(8.3672725,-2.2420039,2.8534596,10.649256,-265.02464,-431.65247)"
       gradientUnits="userSpaceOnUse" />
    <linearGradient
       id="linearGradient7"
       inkscape:collect="always">
      <stop
         style="stop-color:#ff3843;stop-opacity:1;"
         offset="0"
         id="stop7" />
      <stop
         style="stop-color:#ff9344;stop-opacity:1;"
         offset="1"
         id="stop8" />
    </linearGradient>
  </defs>
  <sodipodi:namedview
     id="namedview7"
     pagecolor="#ffffff"
     bordercolor="#000000"
     borderopacity="0.25"
     inkscape:showpageshadow="2"
     inkscape:pageopacity="0.0"
     inkscape:pagecheckerboard="0"
     inkscape:deskcolor="#d1d1d1"
     inkscape:zoom="17.828125"
     inkscape:cx="31.971954"
     inkscape:cy="32"
     inkscape:window-width="3440"
     inkscape:window-height="1361"
     inkscape:window-x="0"
     inkscape:window-y="0"
     inkscape:window-maximized="1"
     inkscape:current-layer="svg7" />
  <g
     id="g1">
    <g
       id="g2">
      <path
         style="fill:url(#radialGradient8)"
         d="M 12.75,4 C 11.2265,4 10,5.2488 10,6.8 v 50.4 c 0,1.55008 1.2265,2.8 2.75,2.8 h 38.5 C 52.7724,60 54,58.75008 54,57.2 V 22 L 36,4 Z"
         id="path2"
         sodipodi:nodetypes="ssssssccs" />
      <path
         style="opacity:0.374382;fill:#ffffff;fill-opacity:1"
         d="M 54,22 36,4 V 19.1875 C 36,20.74675 37.2555,22 38.8125,22 Z"
         id="path4" />
    </g>
  </g>
  <path
     style="fill:#ffffff"
     d="M 29.199219,27 C 24.896765,27 19,29.800391 19,35.400391 c 0,5.6 5.999609,9.799218 8.099609,11.199218 -7.7,0 -11.90039,-7 -11.90039,-7 0,0 7.001562,15.400391 19.601562,15.400391 C 40.400781,55 45,50.799219 45,45.199219 c 0,-4.2 -3.200391,-8.4 -7.400391,-10.5 8.4,0.7 11.201172,6.300781 11.201172,6.300781 0,0 -5.601562,-14 -19.601562,-14 z m 1.447265,6.994141 c 2.111336,0.06296 4.540267,0.920924 6.535157,2.617187 3.013645,2.562518 4.080845,6.230162 3.263671,8.691406 0.06542,-1.300075 -0.510962,-2.684122 -1.552734,-3.728515 -1.812619,-1.812601 -4.475207,-2.088916 -5.947266,-0.617188 -1.471728,1.472059 -1.195413,4.134647 0.617188,5.947266 0.403838,0.403643 0.864677,0.743313 1.359375,1.001953 -2.122518,-0.252158 -4.782029,-1.197356 -6.653954,-2.789062 -3.647797,-3.10174 -4.040699,-7.430666 -2.089843,-9.667969 0.731572,-0.838988 2.210558,-1.32178 3.585594,-1.433594 0.286466,-0.0233 0.581193,-0.03047 0.882812,-0.02148 z"
     id="path7" />
</svg>
