<?xml version="1.0" encoding="UTF-8" standalone="no"?>
<svg
   width="64"
   height="64"
   version="1.1"
   id="svg7"
   sodipodi:docname="application-vnd.google-apps.form.svg"
   inkscape:version="1.4 (e7c3feb100, 2024-10-09)"
   xmlns:inkscape="http://www.inkscape.org/namespaces/inkscape"
   xmlns:sodipodi="http://sodipodi.sourceforge.net/DTD/sodipodi-0.dtd"
   xmlns:xlink="http://www.w3.org/1999/xlink"
   xmlns="http://www.w3.org/2000/svg"
   xmlns:svg="http://www.w3.org/2000/svg">
  <defs
     id="defs7">
    <inkscape:path-effect
       effect="fillet_chamfer"
       id="path-effect9"
       is_visible="true"
       lpeversion="1"
       nodesatellites_param="F,0,1,1,0,1.3829452,0,1 @ F,0,1,1,0,1.3829452,0,1 @ F,0,0,1,0,1.3829452,0,1 @ F,0,1,1,0,1.3829452,0,1 | F,0,1,1,0,1.3829452,0,1 @ F,0,1,1,0,1.3829452,0,1 @ F,0,1,1,0,1.3829452,0,1 @ F,0,1,1,0,1.3829452,0,1 | F,0,1,1,0,1.3829452,0,1 @ F,0,1,1,0,1.3829452,0,1 @ F,0,1,1,0,1.3829452,0,1 @ F,0,1,1,0,1.3829452,0,1 | F,0,1,1,0,1.3829452,0,1 @ F,0,1,1,0,1.3829452,0,1 @ F,0,1,1,0,1.3829452,0,1 @ F,0,1,1,0,1.3829452,0,1 | F,0,1,1,0,1.3829452,0,1 @ F,0,1,1,0,1.3829452,0,1 @ F,0,1,1,0,1.3829452,0,1 @ F,0,1,1,0,1.3829452,0,1 | F,0,1,1,0,1.3829452,0,1 @ F,0,1,1,0,1.3829452,0,1 @ F,0,1,1,0,1.3829452,0,1 @ F,0,1,1,0,1.3829452,0,1"
       radius="0"
       unit="px"
       method="auto"
       mode="F"
       chamfer_steps="1"
       flexible="false"
       use_knot_distance="true"
       apply_no_radius="true"
       apply_with_radius="true"
       only_selected="false"
       hide_knots="false" />
    <radialGradient
       inkscape:collect="always"
       xlink:href="#linearGradient7"
       id="radialGradient8"
       cx="16.935129"
       cy="49.153992"
       fx="16.935129"
       fy="49.153992"
       r="22"
       gradientTransform="matrix(8.3672725,-2.2420039,2.8534596,10.649256,-265.02464,-431.65247)"
       gradientUnits="userSpaceOnUse" />
    <linearGradient
       id="linearGradient7"
       inkscape:collect="always">
      <stop
         style="stop-color:#a200ff;stop-opacity:1;"
         offset="0"
         id="stop7" />
      <stop
         style="stop-color:#c67a43;stop-opacity:1;"
         offset="1"
         id="stop8" />
    </linearGradient>
  </defs>
  <sodipodi:namedview
     id="namedview7"
     pagecolor="#ffffff"
     bordercolor="#000000"
     borderopacity="0.25"
     inkscape:showpageshadow="2"
     inkscape:pageopacity="0.0"
     inkscape:pagecheckerboard="0"
     inkscape:deskcolor="#d1d1d1"
     inkscape:zoom="13.890625"
     inkscape:cx="33.403825"
     inkscape:cy="32.071991"
     inkscape:window-width="3440"
     inkscape:window-height="1361"
     inkscape:window-x="0"
     inkscape:window-y="0"
     inkscape:window-maximized="1"
     inkscape:current-layer="svg7" />
  <g
     id="g1"
     style="opacity:1">
    <g
       id="g2">
      <path
         style="fill:url(#radialGradient8)"
         d="M 12.75,4 C 11.2265,4 10,5.2488 10,6.8 v 50.4 c 0,1.55008 1.2265,2.8 2.75,2.8 h 38.5 C 52.7724,60 54,58.75008 54,57.2 V 22 L 36,4 Z"
         id="path2"
         sodipodi:nodetypes="ssssssccs" />
      <path
         style="opacity:0.374382;fill:#ffffff;fill-opacity:1"
         d="M 54,22 36,4 V 19.1875 C 36,20.74675 37.2555,22 38.8125,22 Z"
         id="path4" />
    </g>
  </g>
  <path
     style="fill:#ffffff;opacity:0.80689273"
     d="m 18,33.382945 v 0.23411 A 1.3829452,1.3829452 45 0 0 19.382945,35 h 0.23411 A 1.3829452,1.3829452 135 0 0 21,33.617055 v -0.23411 A 1.3829452,1.3829452 45 0 0 19.617055,32 h -0.23411 A 1.3829452,1.3829452 135 0 0 18,33.382945 Z m 6,0 v 0.23411 A 1.3829452,1.3829452 45 0 0 25.382945,35 l 19.23411,0 A 1.3829452,1.3829452 135 0 0 46,33.617055 v -0.23411 A 1.3829452,1.3829452 45 0 0 44.617055,32 H 25.382945 A 1.3829452,1.3829452 135 0 0 24,33.382945 Z m -6,7 v 0.23411 A 1.3829452,1.3829452 45 0 0 19.382945,42 h 0.23411 A 1.3829452,1.3829452 135 0 0 21,40.617055 v -0.23411 A 1.3829452,1.3829452 45 0 0 19.617055,39 h -0.23411 A 1.3829452,1.3829452 135 0 0 18,40.382945 Z m 6,0 v 0.23411 A 1.3829452,1.3829452 45 0 0 25.382945,42 h 19.23411 A 1.3829452,1.3829452 135 0 0 46,40.617055 v -0.23411 A 1.3829452,1.3829452 45 0 0 44.617055,39 H 25.382945 A 1.3829452,1.3829452 135 0 0 24,40.382945 Z m -6,7 v 0.23411 A 1.3829452,1.3829452 45 0 0 19.382945,49 h 0.23411 A 1.3829452,1.3829452 135 0 0 21,47.617055 v -0.23411 A 1.3829452,1.3829452 45 0 0 19.617055,46 h -0.23411 A 1.3829452,1.3829452 135 0 0 18,47.382945 Z m 6,0 v 0.23411 A 1.3829452,1.3829452 45 0 0 25.382945,49 h 19.23411 A 1.3829452,1.3829452 135 0 0 46,47.617055 v -0.23411 A 1.3829452,1.3829452 45 0 0 44.617055,46 H 25.382945 A 1.3829452,1.3829452 135 0 0 24,47.382945 Z"
     id="path7"
     inkscape:path-effect="#path-effect9"
     inkscape:original-d="M 18 32 L 18 35 L 21 35 L 21 32 L 18 32 z M 24 32 L 24 35 L 46 35 L 46 32 L 24 32 z M 18 39 L 18 42 L 21 42 L 21 39 L 18 39 z M 24 39 L 24 42 L 46 42 L 46 39 L 24 39 z M 18 46 L 18 49 L 21 49 L 21 46 L 18 46 z M 24 46 L 24 49 L 46 49 L 46 46 L 24 46 z" />
</svg>
