<?xml version="1.0" encoding="UTF-8" standalone="no"?>
<svg
   width="64"
   height="64"
   version="1.1"
   id="svg14"
   sodipodi:docname="application-x-wii-wad.svg"
   inkscape:version="1.4 (e7c3feb100, 2024-10-09)"
   xmlns:inkscape="http://www.inkscape.org/namespaces/inkscape"
   xmlns:sodipodi="http://sodipodi.sourceforge.net/DTD/sodipodi-0.dtd"
   xmlns:xlink="http://www.w3.org/1999/xlink"
   xmlns="http://www.w3.org/2000/svg"
   xmlns:svg="http://www.w3.org/2000/svg">
  <defs
     id="defs14">
    <radialGradient
       inkscape:collect="always"
       xlink:href="#linearGradient8"
       id="radialGradient9"
       cx="21.477476"
       cy="23.351734"
       fx="21.477476"
       fy="23.351734"
       r="22"
       gradientTransform="matrix(5.2437612,-5.1735227e-8,0,4.286547,-93.16866,-54.97246)"
       gradientUnits="userSpaceOnUse" />
    <linearGradient
       id="linearGradient8"
       inkscape:collect="always">
      <stop
         style="stop-color:#ededed;stop-opacity:1;"
         offset="0"
         id="stop8" />
      <stop
         style="stop-color:#b7b7b7;stop-opacity:1;"
         offset="1"
         id="stop9" />
    </linearGradient>
  </defs>
  <sodipodi:namedview
     id="namedview14"
     pagecolor="#ffffff"
     bordercolor="#000000"
     borderopacity="0.25"
     inkscape:showpageshadow="2"
     inkscape:pageopacity="0.0"
     inkscape:pagecheckerboard="0"
     inkscape:deskcolor="#d1d1d1"
     inkscape:zoom="17.828125"
     inkscape:cx="31.971954"
     inkscape:cy="32"
     inkscape:window-width="3440"
     inkscape:window-height="1361"
     inkscape:window-x="0"
     inkscape:window-y="0"
     inkscape:window-maximized="1"
     inkscape:current-layer="svg14" />
  <g
     id="g1">
    <g
       id="g2">
      <path
         style="fill:url(#radialGradient9);fill-opacity:1"
         d="M 12.75,4 C 11.2265,4 10,5.2488 10,6.8 v 50.4 c 0,1.5512 1.2265,2.8 2.75,2.8 h 38.5 C 52.7735,60 54,58.7512 54,57.2 V 20 L 38,4 Z"
         id="path2"
         sodipodi:nodetypes="ssssssccs" />
      <path
         style="opacity:0.593376;fill:#ffffff;fill-opacity:1"
         d="M 38,4 V 17.333333 C 38,18.806133 39.193906,20 40.666666,20 H 54 Z"
         id="path4" />
    </g>
  </g>
  <path
     style="fill:#908f94"
     d="M 36,29.00201 C 36,29.551758 36.444232,30 36.988034,30 37.554812,30 38,29.560804 38,29.00201 38,28.4402 37.554812,28 36.988034,28 36.444232,28 36,28.450252 36,29.00201"
     id="path7" />
  <rect
     style="fill:#908f94"
     width="2"
     height="10"
     x="36"
     y="31"
     id="rect7" />
  <path
     style="fill:#908f94"
     d="m 32.391644,29 -2.224518,8.813062 c 0,0 -1.700084,-6.545322 -1.975266,-7.473166 C 27.915236,29.409172 27.341818,29 26.53644,29 c -0.806822,0 -1.378798,0.410614 -1.656862,1.338456 -0.278066,0.927842 -1.975268,7.473166 -1.975268,7.473166 L 20.679794,29 H 18 c 0,0 2.57318,9.398006 2.92328,10.474246 C 21.194142,40.317084 21.841038,41 22.793372,41 c 1.09497,0 1.604994,-0.793854 1.84272,-1.525754 0.2334,-0.72902 1.900348,-6.873812 1.900348,-6.873812 0,0 1.666944,6.144792 1.897464,6.873812 C 28.67307,40.206146 29.181656,41 30.273742,41 31.230398,41 31.874414,40.314204 32.149596,39.474246 32.499698,38.398006 35.067116,29 35.067116,29 Z"
     id="path8" />
  <path
     fill="#22b2e9"
     d="m 20.335406,49.614724 c -0.286768,1.36813 -1.536607,3.399414 -3.788943,3.382686 -1.119597,-0.006 -1.721813,-0.497066 -2.03009,-0.908104 -0.704976,-0.937976 -0.498262,-2.235608 -0.454052,-2.487726 l 1.166196,-6.604066 2.094614,0.013 -1.162612,6.608846 -0.006,0.0251 c -0.02987,0.16012 -0.06811,0.675104 0.13741,0.945146 0.04421,0.05498 0.174452,0.22583 0.636867,0.229414 0.917663,0.0058 1.229525,-0.893766 1.32392,-1.297632 l 0.609387,-3.463882 0.537693,-3.045732 H 21.5016 l -1.166198,6.602872 0.0034,-0.0215 0.629698,-3.566696 0.0024,-0.03108"
     id="path9" />
  <path
     fill="#22b2e9"
     d="m 18.236014,49.614724 c -0.19118,1.36813 0.336954,3.399414 2.59885,3.382686 1.121986,-0.0058 1.89746,-0.497066 2.350316,-0.908104 1.034762,-0.937976 1.290464,-2.235608 1.329894,-2.487726 l 1.163808,-6.604066 -2.102978,0.013 -1.163808,6.608846 -0.0034,0.0251 c -0.02748,0.16012 -0.16966,0.675104 -0.47317,0.945146 -0.06332,0.05498 -0.254508,0.22583 -0.71573,0.229414 -0.921246,0.0058 -0.912882,-0.893766 -0.866282,-1.297632 L 20.9629,46.05745 21.501788,43.011718 h -2.101967 l -1.163807,6.602872 0.0036,-0.0215 0.627308,-3.566696 0.006,-0.03108"
     id="path10" />
  <path
     fill="#22b2e9"
     d="M 30.269674,52.609696 C 29.802788,52.899316 29.316976,53 28.703718,53 27.242498,53 25.602096,51.635176 26.086646,49.016158 26.505578,46.72778 28.43242,45 30.652012,45 c 2.160286,0 3.716144,1.28527 3.271974,3.700434 L 33.164352,53 H 30.87536 l 0.646066,-3.705408 c 0.248584,-1.348662 0.05804,-2.162834 -1.178566,-2.162834 -1.075094,0 -1.785516,0.91734 -1.95208,1.819764 -0.215776,1.18583 0.33439,1.75637 1.196232,1.75637 0.41641,0 0.793704,-0.09198 1.068786,-0.19142 z"
     id="path11" />
  <path
     fill="#22b2e9"
     d="m 40.229792,46 c -0.634068,0 -1.20933,0.07819 -1.737296,0.410566 L 38.695756,45 c -0.42392,0 -0.03913,0 -2.322786,0 l -1.46117,8 h 2.322788 l 0.774688,-3.950892 c 0.1713,-0.434644 0.627372,-1.00983 1.848514,-1.084052 h 1.645252 L 41.878882,46 H 40.2413"
     id="path12" />
  <path
     fill="#22b2e9"
     d="m 44.374782,48.935344 c -0.300426,1.702206 0.540766,2.27541 1.455812,2.27541 0.774848,0 1.364434,-0.391668 1.853876,-0.925084 l 1.444546,1.207334 C 48.19895,52.450418 46.855796,53 45.6228,53 43.253194,53 41.637156,51.430836 42.070268,48.998756 42.503382,46.566678 44.408582,45 46.778188,45 c 1.89268,0 3.583826,1.566678 3.154466,3.998756 L 49.702,50 h -4.753902 l 0.281648,-2 h 2.489778 c 0.15646,-0.782096 -0.341734,-1.30774 -1.196698,-1.30774 -1.041474,0 -1.845114,0.543364 -2.148042,2.243084"
     id="path13" />
  <path
     style="fill:#908f94"
     d="M 40,29.00201 C 40,29.551758 40.444232,30 40.988034,30 41.554812,30 42,29.560804 42,29.00201 42,28.4402 41.554812,28 40.988034,28 40.444232,28 40,28.450252 40,29.00201"
     id="path14" />
  <rect
     style="fill:#908f94"
     width="2"
     height="10"
     x="40"
     y="31"
     id="rect14" />
</svg>
