<?xml version="1.0" encoding="UTF-8" standalone="no"?>
<svg
   width="64"
   height="64"
   version="1.1"
   id="svg11"
   sodipodi:docname="application-x-lyx.svg"
   inkscape:version="1.4 (e7c3feb100, 2024-10-09)"
   xmlns:inkscape="http://www.inkscape.org/namespaces/inkscape"
   xmlns:sodipodi="http://sodipodi.sourceforge.net/DTD/sodipodi-0.dtd"
   xmlns:xlink="http://www.w3.org/1999/xlink"
   xmlns="http://www.w3.org/2000/svg"
   xmlns:svg="http://www.w3.org/2000/svg">
  <defs
     id="defs11">
    <radialGradient
       inkscape:collect="always"
       xlink:href="#linearGradient8"
       id="radialGradient9"
       cx="21.477476"
       cy="23.351734"
       fx="21.477476"
       fy="23.351734"
       r="22"
       gradientTransform="matrix(5.2437612,-5.1735227e-8,0,4.286547,-93.168663,-54.97246)"
       gradientUnits="userSpaceOnUse" />
    <linearGradient
       id="linearGradient8"
       inkscape:collect="always">
      <stop
         style="stop-color:#ededed;stop-opacity:1;"
         offset="0"
         id="stop8" />
      <stop
         style="stop-color:#b7b7b7;stop-opacity:1;"
         offset="1"
         id="stop9" />
    </linearGradient>
  </defs>
  <sodipodi:namedview
     id="namedview11"
     pagecolor="#ffffff"
     bordercolor="#000000"
     borderopacity="0.25"
     inkscape:showpageshadow="2"
     inkscape:pageopacity="0.0"
     inkscape:pagecheckerboard="0"
     inkscape:deskcolor="#d1d1d1"
     inkscape:zoom="17.8125"
     inkscape:cx="32"
     inkscape:cy="32"
     inkscape:current-layer="svg11" />
  <g
     id="g1">
    <g
       id="g2">
      <path
         style="fill:url(#radialGradient9);fill-opacity:1"
         d="M 12.75,4 C 11.2265,4 10,5.2488 10,6.8 v 50.4 c 0,1.5512 1.2265,2.8 2.75,2.8 h 38.5 C 52.7735,60 54,58.7512 54,57.2 V 20 L 38,4 Z"
         id="path2"
         sodipodi:nodetypes="ssssssccs" />
      <path
         style="opacity:0.593376;fill:#ffffff;fill-opacity:1"
         d="M 38,4 V 17.333333 C 38,18.806133 39.193906,20 40.666666,20 H 54 Z"
         id="path4" />
    </g>
  </g>
  <path
     style="fill:#4587cf;fill-rule:evenodd"
     d="M 19.837259,47.905306 14,34.428317 l 4.842728,-2.231916 3.761514,9.04614 4.548489,-2.309303 2.046728,4.35346 z"
     id="path7" />
  <path
     style="fill:#de5328;fill-rule:evenodd"
     d="m 36.884251,30 5.134748,0.982333 1.103114,3.3183 L 45.376767,31.73687 51,32.919124 l -5.050652,5.608073 2.851262,8.354435 -6.053317,-0.585736 -1.076759,-4.529428 -2.735008,3.727168 -4.707253,-1.465292 4.732758,-6.675295 z"
     id="path9" />
  <path
     style="fill:#dfa722;fill-rule:evenodd"
     d="m 23.893011,34.850824 5.875148,0.794981 1.743581,3.634302 2.198468,-3.142149 5.913036,0.757135 -5.420299,7.722799 L 32.876305,52 27.380229,51.129307 28.327834,44.504316 Z"
     id="path11" />
</svg>
