<?xml version="1.0" encoding="UTF-8" standalone="no"?>
<svg
   width="64"
   height="64"
   version="1"
   id="svg7"
   sodipodi:docname="application-x-vmware-vmdisk.svg"
   inkscape:version="1.4 (e7c3feb100, 2024-10-09)"
   xmlns:inkscape="http://www.inkscape.org/namespaces/inkscape"
   xmlns:sodipodi="http://sodipodi.sourceforge.net/DTD/sodipodi-0.dtd"
   xmlns:xlink="http://www.w3.org/1999/xlink"
   xmlns="http://www.w3.org/2000/svg"
   xmlns:svg="http://www.w3.org/2000/svg">
  <defs
     id="defs7">
    <radialGradient
       inkscape:collect="always"
       xlink:href="#linearGradient9"
       id="radialGradient10"
       cx="13.030433"
       cy="49.4501"
       fx="13.030433"
       fy="49.4501"
       r="22"
       gradientTransform="matrix(2.2649253,-1.3076552,1.6642885,2.8826322,-99.064972,-71.137182)"
       gradientUnits="userSpaceOnUse" />
    <linearGradient
       id="linearGradient9"
       inkscape:collect="always">
      <stop
         style="stop-color:#f78330;stop-opacity:1;"
         offset="0"
         id="stop9" />
      <stop
         style="stop-color:#e6664a;stop-opacity:1;"
         offset="1"
         id="stop10" />
    </linearGradient>
  </defs>
  <sodipodi:namedview
     id="namedview7"
     pagecolor="#ffffff"
     bordercolor="#000000"
     borderopacity="0.25"
     inkscape:showpageshadow="2"
     inkscape:pageopacity="0.0"
     inkscape:pagecheckerboard="0"
     inkscape:deskcolor="#d1d1d1"
     inkscape:zoom="17.828125"
     inkscape:cx="31.971954"
     inkscape:cy="32"
     inkscape:window-width="3440"
     inkscape:window-height="1361"
     inkscape:window-x="0"
     inkscape:window-y="0"
     inkscape:window-maximized="1"
     inkscape:current-layer="svg7" />
  <g
     id="g2"
     transform="translate(0.28321625,-0.1607369)">
    <path
       style="fill:url(#radialGradient10)"
       d="m 12.466784,4.1607368 c -1.5235,0 -2.7500005,1.2488 -2.7500005,2.8 V 57.360737 c 0,1.55008 1.2265005,2.8 2.7500005,2.8 h 38.5 c 1.5224,0 2.75,-1.24992 2.75,-2.8 v -35.2 l -18,-18.0000002 z"
       id="path2-3"
       sodipodi:nodetypes="ssssssccs" />
    <path
       style="opacity:0.584913;fill:#ffeeee;fill-opacity:1"
       d="m 53.716784,22.160737 -18,-18.0000002 V 19.348237 c 0,1.55925 1.2555,2.8125 2.8125,2.8125 z"
       id="path4" />
  </g>
  <path
     style="fill:#ffffff"
     d="M 22.917969 27 C 21.001301 27 21 28.855469 21 28.855469 L 21 51.144531 C 21 51.144531 21.001301 53 22.917969 53 L 42.082031 53 C 42.082031 53 44 53.001673 44 51.144531 L 44 28.855469 C 44 28.855469 43.998698 27 42.082031 27 L 22.917969 27 z M 32.5 31 C 36.643749 31 40 34.356248 40 38.5 C 40 42.64375 36.643749 46 32.5 46 L 25 46 L 25 38.5 C 25 34.356248 28.356249 31 32.5 31 z M 32.5 35 C 30.575 35 29 36.574998 29 38.5 C 29 40.424997 30.574999 42 32.5 42 C 34.425 42 36 40.424997 36 38.5 C 36 36.574998 34.425 35 32.5 35 z"
     id="path6" />
</svg>
