<?xml version="1.0" encoding="UTF-8" standalone="no"?>
<svg
   width="64"
   height="64"
   version="1.1"
   id="svg6"
   sodipodi:docname="gnome-mime-application-x-referencer.svg"
   inkscape:version="1.4 (e7c3feb100, 2024-10-09)"
   xmlns:inkscape="http://www.inkscape.org/namespaces/inkscape"
   xmlns:sodipodi="http://sodipodi.sourceforge.net/DTD/sodipodi-0.dtd"
   xmlns:xlink="http://www.w3.org/1999/xlink"
   xmlns="http://www.w3.org/2000/svg"
   xmlns:svg="http://www.w3.org/2000/svg">
  <defs
     id="defs6">
    <radialGradient
       inkscape:collect="always"
       xlink:href="#linearGradient2"
       id="radialGradient9"
       cx="20.238163"
       cy="45.446491"
       fx="20.238163"
       fy="45.446491"
       r="22"
       gradientTransform="matrix(2.2768343,-1.3145309,1.6730393,2.8977891,-103.5617,-78.365997)"
       gradientUnits="userSpaceOnUse" />
    <linearGradient
       id="linearGradient2"
       inkscape:collect="always">
      <stop
         style="stop-color:#00b1ff;stop-opacity:1;"
         offset="0"
         id="stop1" />
      <stop
         style="stop-color:#136dff;stop-opacity:1;"
         offset="1"
         id="stop2" />
    </linearGradient>
  </defs>
  <sodipodi:namedview
     id="namedview6"
     pagecolor="#ffffff"
     bordercolor="#000000"
     borderopacity="0.25"
     inkscape:showpageshadow="2"
     inkscape:pageopacity="0.0"
     inkscape:pagecheckerboard="0"
     inkscape:deskcolor="#d1d1d1"
     inkscape:zoom="17.8125"
     inkscape:cx="32"
     inkscape:cy="32"
     inkscape:current-layer="svg6" />
  <g
     id="g1">
    <g
       id="g2"
       transform="translate(0.0397662,0.06140005)">
      <path
         style="fill:url(#radialGradient9)"
         d="m 12.710234,3.9385999 c -1.5235,0 -2.7500004,1.2487999 -2.7500004,2.7999999 V 57.1386 c 0,1.55008 1.2265004,2.8 2.7500004,2.8 h 38.5 c 1.5224,0 2.75,-1.24992 2.75,-2.8 v -35.2 l -18,-18.0000001 z"
         id="path2-6"
         sodipodi:nodetypes="ssssssccs" />
      <path
         style="opacity:0.533302;fill:#ffffff;fill-opacity:1"
         d="m 53.960234,21.9386 -18,-18.0000001 V 19.1261 c 0,1.55925 1.2555,2.8125 2.8125,2.8125 z"
         id="path4-5" />
    </g>
  </g>
  <path
     style="fill:#ffffff;fill-opacity:1"
     d="m 32,27 c -7.732,0 -14,6.268001 -14,14 0,7.732 6.268,14 14,14 7.731999,0 14,-6.268 14,-14 0,-7.731999 -6.268001,-14 -14,-14 z m -1.309766,2.791798 c 0.152328,-0.01594 0.34396,0.0091 0.497656,0 0.01822,0.07286 -0.107912,0.334255 -0.28164,0.713671 -1.106303,2.416803 -1.171661,5.246539 -0.144923,6.759375 0.185803,0.274287 0.355471,0.534828 0.355471,0.56875 0,0.03394 -0.200002,0.07109 -0.426564,0.07109 -0.53186,3e-6 -1.036091,-0.323177 -2.064453,-1.137499 -0.456837,-0.361746 -1.049597,-0.664947 -1.279687,-0.710937 -0.361315,-0.07219 -0.456799,-0.04091 -0.924219,0.426563 -0.434889,0.434817 -0.568751,0.671076 -0.568751,1.06914 0,1.509512 1.793158,2.706402 5.124219,3.412499 4.523714,0.958774 5.636547,1.818535 5.761329,4.197266 0.156665,2.982865 -1.429862,5.231438 -4.908204,6.972657 -0.415164,0.207888 -0.678935,0.291031 -0.853125,0.358203 -0.0772,-0.0068 -0.139062,0.0068 -0.216016,0 -0.0296,-0.09222 -0.07109,-0.305542 -0.07109,-0.710937 0,-1.58429 -0.623095,-3.216971 -1.564061,-4.128907 -0.252585,-0.244822 -0.958428,-0.762592 -1.564064,-1.1375 -0.605614,-0.374885 -1.217351,-0.809509 -1.353516,-0.995311 -0.225596,-0.308328 -0.241732,-0.496816 -0.06836,-1.066407 0.315952,-1.04029 0.690778,-1.623166 1.421876,-2.280469 0.383285,-0.344597 0.768214,-0.63025 0.853124,-0.63711 0.08494,-0.0068 -0.488712,-0.18185 -1.350781,-0.358203 -0.862026,-0.176693 -2.126155,-0.546065 -2.778125,-0.782031 -1.19219,-0.431375 -2.801583,-1.337948 -3.415233,-1.993358 -0.02594,-0.02779 -0.04855,-0.04649 -0.07109,-0.07109 0.879216,-3.502248 3.346281,-6.371411 6.617187,-7.754687 0.684397,-0.289475 1.390788,-0.487512 2.135547,-0.639845 0.370968,-0.07582 0.754463,-0.10598 1.1375,-0.14492 z m 10.675,5.3375 c 0.267435,0.165309 1.278549,2.352333 1.566797,3.417968 0.372147,1.37574 0.345211,3.754831 0,5.121484 -0.131389,0.520157 -0.302189,1.005843 -0.358204,1.066407 -0.05601,0.06056 -0.261437,-0.284752 -0.50039,-0.708204 -0.23897,-0.423387 -0.998073,-1.324036 -1.632422,-1.993359 -1.831024,-1.932101 -2.120499,-2.939659 -1.353516,-4.481641 0.386796,-0.777571 2.070756,-2.550391 2.277735,-2.422655 z"
     id="path6" />
</svg>
