<?xml version="1.0" encoding="UTF-8" standalone="no"?>
<svg
   width="64"
   height="64"
   version="1"
   id="svg15"
   sodipodi:docname="image-svg+xml-compressed.svg"
   inkscape:version="1.4 (e7c3feb100, 2024-10-09)"
   xmlns:inkscape="http://www.inkscape.org/namespaces/inkscape"
   xmlns:sodipodi="http://sodipodi.sourceforge.net/DTD/sodipodi-0.dtd"
   xmlns:xlink="http://www.w3.org/1999/xlink"
   xmlns="http://www.w3.org/2000/svg"
   xmlns:svg="http://www.w3.org/2000/svg">
  <defs
     id="defs15">
    <radialGradient
       inkscape:collect="always"
       xlink:href="#linearGradient12"
       id="radialGradient13"
       cx="9.6699247"
       cy="62.508015"
       fx="9.6699247"
       fy="62.508015"
       r="26"
       gradientTransform="matrix(2.8657167,-1.6040127,0.98966627,1.7681302,-74.316613,-32.234348)"
       gradientUnits="userSpaceOnUse" />
    <linearGradient
       id="linearGradient12"
       inkscape:collect="always">
      <stop
         style="stop-color:#009eff;stop-opacity:1;"
         offset="0"
         id="stop12" />
      <stop
         style="stop-color:#00eeff;stop-opacity:1;"
         offset="1"
         id="stop13" />
    </linearGradient>
    <linearGradient
       id="linearGradient13"
       inkscape:collect="always">
      <stop
         style="stop-color:#000000;stop-opacity:1;"
         offset="0"
         id="stop14" />
      <stop
         style="stop-color:#404040;stop-opacity:1;"
         offset="1"
         id="stop15" />
    </linearGradient>
    <radialGradient
       inkscape:collect="always"
       xlink:href="#linearGradient13"
       id="radialGradient18"
       gradientUnits="userSpaceOnUse"
       gradientTransform="matrix(3.4843059,-0.05731685,0.03425051,2.0820976,-17.790663,-84.015377)"
       cx="6.2728815"
       cy="64.434212"
       fx="6.2728815"
       fy="64.434212"
       r="20.5" />
    <radialGradient
       inkscape:collect="always"
       xlink:href="#linearGradient13"
       id="radialGradient19"
       gradientUnits="userSpaceOnUse"
       gradientTransform="matrix(3.4843059,-0.05731685,0.03425051,2.0820976,-17.790663,-84.015377)"
       cx="6.2728815"
       cy="64.434212"
       fx="6.2728815"
       fy="64.434212"
       r="20.5" />
    <radialGradient
       inkscape:collect="always"
       xlink:href="#linearGradient13"
       id="radialGradient20"
       gradientUnits="userSpaceOnUse"
       gradientTransform="matrix(3.4843059,-0.05731685,0.03425051,2.0820976,-17.790663,-84.015377)"
       cx="6.2728815"
       cy="64.434212"
       fx="6.2728815"
       fy="64.434212"
       r="20.5" />
  </defs>
  <sodipodi:namedview
     id="namedview15"
     pagecolor="#ffffff"
     bordercolor="#000000"
     borderopacity="0.25"
     inkscape:showpageshadow="2"
     inkscape:pageopacity="0.0"
     inkscape:pagecheckerboard="0"
     inkscape:deskcolor="#d1d1d1"
     inkscape:zoom="16.000001"
     inkscape:cx="30.874999"
     inkscape:cy="31.687499"
     inkscape:window-width="1920"
     inkscape:window-height="1017"
     inkscape:window-x="0"
     inkscape:window-y="0"
     inkscape:window-maximized="1"
     inkscape:current-layer="svg15" />
  <path
     fill="#a47a4a"
     d="m 57.999998,50.067936 v -35.7665 c 0,-1.4777 -1.16,-2.667 -2.6,-2.667 H 8.5999978 c -1.4404,0 -2.6,1.1893 -2.6,2.6667 v 35.7665 c 0,1.478 1.1596,2.667 2.6,2.667 H 55.399998 c 1.44,0 2.6,-1.189 2.6,-2.667 z"
     id="path2-6"
     style="fill:url(#radialGradient13)"
     sodipodi:nodetypes="cssssssscc" />
  <path
     style="fill:none;stroke:#ffffff;stroke-width:3"
     d="m 15.937498,29.609936 12,13 19,-4"
     id="path3-7" />
  <circle
     style="fill:url(#radialGradient18)"
     cx="15.999998"
     cy="28.734936"
     r="5"
     id="circle5-6" />
  <circle
     style="fill:url(#radialGradient19)"
     cx="27.999998"
     cy="41.734936"
     r="5"
     id="circle7-2" />
  <circle
     style="fill:url(#radialGradient20)"
     cx="46.999996"
     cy="37.734936"
     r="5"
     id="circle9" />
  <path
     style="opacity:0.2;stroke-width:0.749116"
     d="m 30.501768,11.633344 v 10.487622 c 0,0.824027 0.670459,1.498231 1.498232,1.498231 0.827773,0 1.498232,-0.674204 1.498232,-1.498231 V 11.633344 Z"
     id="path9" />
  <path
     style="opacity:0.2;stroke-width:0.749116"
     d="m 32,11.633344 v 0.749116 h 0.749116 v -0.749116 z m 0,0.749116 h -0.749116 v 0.749116 H 32 Z m 0,0.749116 v 0.749116 h 0.749116 v -0.749116 z m 0,0.749116 h -0.749116 v 0.749116 H 32 Z m 0,0.749116 v 0.749115 h 0.749116 v -0.749115 z m 0,0.749115 h -0.749116 v 0.749116 H 32 Z m 0,0.749116 v 0.749116 h 0.749116 v -0.749116 z"
     id="path10" />
  <path
     style="fill:#dddddd;stroke-width:0.749116"
     d="M 31.250884,11.633344 V 12.38246 H 32 v -0.749116 z m 0,1.498232 v 0.749116 H 32 v -0.749116 z m 0,1.498232 v 0.749115 H 32 v -0.749115 z m 0,1.498231 v 0.749116 H 32 v -0.749116 z"
     id="path11" />
  <path
     style="opacity:0.2;stroke-width:0.749116"
     d="M 31.250884,17.626271 H 32 c 0.0309,-0.275322 0,-0.749116 0,-0.749116 h -0.749116 z m 0.749116,0 v 0.749116 h 0.749116 v -0.749116 z m 0,0.749116 h -0.749116 v 0.749116 H 32 Z m 0,0.749116 v 0.749115 h 0.749116 v -0.749115 z m 0,0.749115 h -0.749116 v 0.749116 H 32 Z m 0,0.749116 v 0.749116 h 0.749116 v -0.749116 z m 0,0.749116 h -0.749116 v 0.749116 H 32 Z m 0,0.749116 v 0.749116 h 0.749116 v -0.749116 z m 0,0.749116 H 31.250884 C 31.133947,23.912036 32,23.912036 32,22.870082 Z"
     id="path12" />
  <path
     style="fill:#dddddd;stroke-width:0.749116"
     d="m 31.250884,17.626271 v 0.749116 H 32 v -0.749116 z m 0,1.498232 v 0.749115 H 32 v -0.749115 z m 0,1.498231 V 21.37185 H 32 v -0.749116 z m 0,1.498232 v 0.749116 H 32 v -0.749116 z"
     id="path13" />
  <path
     style="fill:#ffffff;stroke-width:0.749116"
     d="m 32,22.120966 c -1.656045,0 -2.996463,1.348408 -2.996463,2.996463 v 5.992927 c 0,1.648054 1.340917,2.996463 2.996463,2.996463 1.655546,0 2.996463,-1.348409 2.996463,-2.996463 v -5.992927 c 0,-1.648055 -1.340418,-2.996463 -2.996463,-2.996463 z m 0,1.498231 c 0.827024,0 1.498232,0.599293 1.498232,1.498232 0,0.749114 -0.671208,1.498232 -1.498232,1.498232 -0.827024,0 -1.498232,-0.749118 -1.498232,-1.498232 0,-0.898939 0.671208,-1.498232 1.498232,-1.498232 z m 0,4.494695 c 0.827451,0 1.498232,0.670781 1.498232,1.498232 v 1.498232 c 0,0.827451 -0.670781,1.498231 -1.498232,1.498231 -0.827451,0 -1.498232,-0.67078 -1.498232,-1.498231 v -1.498232 c 0,-0.827451 0.670781,-1.498232 1.498232,-1.498232 z"
     id="path14" />
</svg>
