<?xml version="1.0" encoding="UTF-8" standalone="no"?>
<svg
   width="64"
   height="64"
   version="1.1"
   id="svg7"
   sodipodi:docname="inode-chardevice.svg"
   inkscape:version="1.4 (e7c3feb100, 2024-10-09)"
   xmlns:inkscape="http://www.inkscape.org/namespaces/inkscape"
   xmlns:sodipodi="http://sodipodi.sourceforge.net/DTD/sodipodi-0.dtd"
   xmlns:xlink="http://www.w3.org/1999/xlink"
   xmlns="http://www.w3.org/2000/svg"
   xmlns:svg="http://www.w3.org/2000/svg">
  <defs
     id="defs7">
    <inkscape:path-effect
       effect="fillet_chamfer"
       id="path-effect7"
       is_visible="true"
       lpeversion="1"
       nodesatellites_param="F,0,1,1,0,1.4982456,0,1 @ F,0,1,1,0,1.4982456,0,1 @ F,0,1,1,0,1.4982456,0,1 @ F,0,1,1,0,1.4982456,0,1 | F,0,1,1,0,1.4982456,0,1 @ F,0,1,1,0,1.4982456,0,1 @ F,0,1,1,0,1.4982456,0,1 @ F,0,1,1,0,1.4982456,0,1 | F,0,1,1,0,1.4982456,0,1 @ F,0,1,1,0,1.4982456,0,1 @ F,0,1,1,0,1.4982456,0,1 @ F,0,1,1,0,1.4982456,0,1 | F,0,1,1,0,1.4982456,0,1 @ F,0,1,1,0,1.4982456,0,1 @ F,0,1,1,0,1.4982456,0,1 @ F,0,0,1,0,1.4982456,0,1 | F,0,0,1,0,0,0,1 @ F,0,0,1,0,0,0,1 @ F,0,0,1,0,0,0,1 @ F,0,0,1,0,0,0,1 @ F,0,0,1,0,0,0,1 @ F,0,0,1,0,0,0,1 @ F,0,0,1,0,0,0,1 @ F,0,0,1,0,0,0,1 | F,0,1,1,0,1.4982456,0,1 @ F,0,1,1,0,1.4982456,0,1 @ F,0,1,1,0,1.4982456,0,1 @ F,0,1,1,0,1.4982456,0,1 | F,0,1,1,0,1.4982456,0,1 @ F,0,1,1,0,1.4982456,0,1 @ F,0,1,1,0,1.4982456,0,1 @ F,0,1,1,0,1.4982456,0,1 | F,0,1,1,0,1.4982456,0,1 @ F,0,1,1,0,1.4982456,0,1 @ F,0,1,1,0,1.4982456,0,1 @ F,0,1,1,0,1.4982456,0,1 | F,0,1,1,0,1.4982456,0,1 @ F,0,1,1,0,1.4982456,0,1 @ F,0,1,1,0,1.4982456,0,1 @ F,0,1,1,0,1.4982456,0,1 | F,0,1,1,0,1.4982456,0,1 @ F,0,1,1,0,1.4982456,0,1 @ F,0,1,1,0,1.4982456,0,1 @ F,0,1,1,0,1.4982456,0,1 | F,0,1,1,0,1.4982456,0,1 @ F,0,1,1,0,1.4982456,0,1 @ F,0,1,1,0,1.4982456,0,1 @ F,0,1,1,0,1.4982456,0,1 | F,0,1,1,0,1.4982456,0,1 @ F,0,1,1,0,1.4982456,0,1 @ F,0,1,1,0,1.4982456,0,1 @ F,0,1,1,0,1.4982456,0,1 | F,0,1,1,0,1.4982456,0,1 @ F,0,1,1,0,1.4982456,0,1 @ F,0,1,1,0,1.4982456,0,1 @ F,0,1,1,0,1.4982456,0,1"
       radius="0"
       unit="px"
       method="auto"
       mode="F"
       chamfer_steps="1"
       flexible="false"
       use_knot_distance="true"
       apply_no_radius="true"
       apply_with_radius="true"
       only_selected="false"
       hide_knots="false" />
    <radialGradient
       inkscape:collect="always"
       xlink:href="#linearGradient8-9"
       id="radialGradient9-2-3"
       cx="21.477476"
       cy="23.351734"
       fx="21.477476"
       fy="23.351734"
       r="22"
       gradientTransform="matrix(5.2437612,-5.1735227e-8,0,4.286547,-93.16866,-54.97246)"
       gradientUnits="userSpaceOnUse" />
    <linearGradient
       id="linearGradient8-9"
       inkscape:collect="always">
      <stop
         style="stop-color:#494949;stop-opacity:1;"
         offset="0"
         id="stop8-1" />
      <stop
         style="stop-color:#9c9c9c;stop-opacity:1;"
         offset="1"
         id="stop9-2" />
    </linearGradient>
  </defs>
  <sodipodi:namedview
     id="namedview7"
     pagecolor="#ffffff"
     bordercolor="#000000"
     borderopacity="0.25"
     inkscape:showpageshadow="2"
     inkscape:pageopacity="0.0"
     inkscape:pagecheckerboard="0"
     inkscape:deskcolor="#d1d1d1"
     inkscape:zoom="17.8125"
     inkscape:cx="32"
     inkscape:cy="32"
     inkscape:current-layer="svg7" />
  <g
     id="g1">
    <g
       id="g5">
      <g
         id="g4">
        <g
           id="g3">
          <g
             id="g2">
            <path
               style="fill:url(#radialGradient9-2-3);fill-opacity:1"
               d="M 12.75,4 C 11.2265,4 10,5.2488 10,6.8 v 50.4 c 0,1.5512 1.2265,2.8 2.75,2.8 h 38.5 C 52.7735,60 54,58.7512 54,57.2 V 20 L 38,4 Z"
               id="path2-0-5"
               sodipodi:nodetypes="ssssssccs" />
            <path
               style="opacity:0.36674;fill:#ffffff;fill-opacity:1"
               d="M 38,4 V 17.333333 C 38,18.806133 39.193906,20 40.666666,20 H 54 Z"
               id="path4-9" />
          </g>
        </g>
      </g>
    </g>
  </g>
  <path
     style="fill:#ffffff"
     d="m 24,25.498246 0,3.003508 A 1.4982456,1.4982456 45 0 0 25.498246,30 h 0.0035 A 1.4982456,1.4982456 135 0 0 27,28.501754 V 25.498246 A 1.4982456,1.4982456 45 0 0 25.501754,24 h -0.0035 A 1.4982456,1.4982456 135 0 0 24,25.498246 Z m 7,0 v 3.003508 A 1.4982456,1.4982456 45 0 0 32.498246,30 h 0.0035 A 1.4982456,1.4982456 135 0 0 34,28.501754 V 25.498246 A 1.4982456,1.4982456 45 0 0 32.501754,24 h -0.0035 A 1.4982456,1.4982456 135 0 0 31,25.498246 Z m 7,0 v 3.003508 A 1.4982456,1.4982456 45 0 0 39.498246,30 h 0.0035 A 1.4982456,1.4982456 135 0 0 41,28.501754 V 25.498246 A 1.4982456,1.4982456 45 0 0 39.501754,24 h -0.0035 A 1.4982456,1.4982456 135 0 0 38,25.498246 Z m -22,8 v 0.0035 A 1.4982456,1.4982456 45 0 0 17.498246,35 h 3.003508 A 1.4982456,1.4982456 135 0 0 22,33.501754 v -0.0035 A 1.4982456,1.4982456 45 0 0 20.501754,32 H 17.498246 A 1.4982456,1.4982456 135 0 0 16,33.498246 Z M 28.25,32 C 25.8955,32 24,33.8955 24,36.25 v 8.5 c 0,2.3545 1.8955,4.25 4.25,4.25 h 8.5 C 39.1045,49 41,47.1045 41,44.75 v -8.5 C 41,33.8955 39.1045,32 36.75,32 Z M 43,33.498246 v 0.0035 A 1.4982456,1.4982456 45 0 0 44.498246,35 h 3.003508 A 1.4982456,1.4982456 135 0 0 49,33.501754 v -0.0035 A 1.4982456,1.4982456 45 0 0 47.501754,32 H 44.498246 A 1.4982456,1.4982456 135 0 0 43,33.498246 Z m -27,7 v 0.0035 A 1.4982456,1.4982456 45 0 0 17.498246,42 h 3.003508 A 1.4982456,1.4982456 135 0 0 22,40.501754 v -0.0035 A 1.4982456,1.4982456 45 0 0 20.501754,39 H 17.498246 A 1.4982456,1.4982456 135 0 0 16,40.498246 Z m 27,0 v 0.0035 A 1.4982456,1.4982456 45 0 0 44.498246,42 h 3.003508 A 1.4982456,1.4982456 135 0 0 49,40.501754 v -0.0035 A 1.4982456,1.4982456 45 0 0 47.501754,39 H 44.498246 A 1.4982456,1.4982456 135 0 0 43,40.498246 Z m -27,7 v 0.0035 A 1.4982456,1.4982456 45 0 0 17.498246,49 h 3.003508 A 1.4982456,1.4982456 135 0 0 22,47.501754 v -0.0035 A 1.4982456,1.4982456 45 0 0 20.501754,46 H 17.498246 A 1.4982456,1.4982456 135 0 0 16,47.498246 Z m 27,0 v 0.0035 A 1.4982456,1.4982456 45 0 0 44.498246,49 h 3.003508 A 1.4982456,1.4982456 135 0 0 49,47.501754 v -0.0035 A 1.4982456,1.4982456 45 0 0 47.501754,46 H 44.498246 A 1.4982456,1.4982456 135 0 0 43,47.498246 Z m -19,5 0,3.003508 A 1.4982456,1.4982456 45 0 0 25.498246,57 h 0.0035 A 1.4982456,1.4982456 135 0 0 27,55.501754 V 52.498246 A 1.4982456,1.4982456 45 0 0 25.501754,51 h -0.0035 A 1.4982456,1.4982456 135 0 0 24,52.498246 Z m 7,0 v 3.003508 A 1.4982456,1.4982456 45 0 0 32.498246,57 h 0.0035 A 1.4982456,1.4982456 135 0 0 34,55.501754 V 52.498246 A 1.4982456,1.4982456 45 0 0 32.501754,51 h -0.0035 A 1.4982456,1.4982456 135 0 0 31,52.498246 Z m 7,0 v 3.003508 A 1.4982456,1.4982456 45 0 0 39.498246,57 h 0.0035 A 1.4982456,1.4982456 135 0 0 41,55.501754 V 52.498246 A 1.4982456,1.4982456 45 0 0 39.501754,51 h -0.0035 A 1.4982456,1.4982456 135 0 0 38,52.498246 Z"
     id="path6"
     inkscape:path-effect="#path-effect7"
     inkscape:original-d="m 24,24 v 6 h 3 v -6 z m 7,0 v 6 h 3 v -6 z m 7,0 v 6 h 3 v -6 z m -22,8 v 3 h 6 v -3 z m 12.25,0 C 25.8955,32 24,33.8955 24,36.25 v 8.5 c 0,2.3545 1.8955,4.25 4.25,4.25 h 8.5 C 39.1045,49 41,47.1045 41,44.75 v -8.5 C 41,33.8955 39.1045,32 36.75,32 Z M 43,32 v 3 h 6 v -3 z m -27,7 v 3 h 6 v -3 z m 27,0 v 3 h 6 v -3 z m -27,7 v 3 h 6 v -3 z m 27,0 v 3 h 6 v -3 z m -19,5 v 6 h 3 v -6 z m 7,0 v 6 h 3 v -6 z m 7,0 v 6 h 3 v -6 z" />
  <path
     style="opacity:0.2;fill:#ffffff"
     d="M 12.8125,3 C 11.254375,3 10,4.2707094 10,5.8496094 v 1 C 10,5.2707094 11.254375,4 12.8125,4 H 38 V 3 Z"
     id="path7" />
</svg>
