<?xml version="1.0" encoding="UTF-8" standalone="no"?>
<svg
   width="64"
   height="64"
   version="1.1"
   id="svg7"
   sodipodi:docname="text-x-scheme.svg"
   inkscape:version="1.3.2 (091e20ef0f, 2023-11-25, custom)"
   xmlns:inkscape="http://www.inkscape.org/namespaces/inkscape"
   xmlns:sodipodi="http://sodipodi.sourceforge.net/DTD/sodipodi-0.dtd"
   xmlns:xlink="http://www.w3.org/1999/xlink"
   xmlns="http://www.w3.org/2000/svg"
   xmlns:svg="http://www.w3.org/2000/svg">
  <defs
     id="defs7">
    <radialGradient
       inkscape:collect="always"
       xlink:href="#linearGradient8"
       id="radialGradient9"
       cx="21.477476"
       cy="23.351734"
       fx="21.477476"
       fy="23.351734"
       r="22"
       gradientTransform="matrix(5.2437612,-5.1735227e-8,0,4.286547,-90.168663,-52.97246)"
       gradientUnits="userSpaceOnUse" />
    <linearGradient
       id="linearGradient8"
       inkscape:collect="always">
      <stop
         style="stop-color:#ededed;stop-opacity:1;"
         offset="0"
         id="stop8" />
      <stop
         style="stop-color:#b7b7b7;stop-opacity:1;"
         offset="1"
         id="stop9" />
    </linearGradient>
  </defs>
  <sodipodi:namedview
     id="namedview7"
     pagecolor="#ffffff"
     bordercolor="#000000"
     borderopacity="0.25"
     inkscape:showpageshadow="2"
     inkscape:pageopacity="0.0"
     inkscape:pagecheckerboard="0"
     inkscape:deskcolor="#d1d1d1"
     inkscape:zoom="13.09375"
     inkscape:cx="31.961814"
     inkscape:cy="32"
     inkscape:window-width="1920"
     inkscape:window-height="1014"
     inkscape:window-x="0"
     inkscape:window-y="0"
     inkscape:window-maximized="1"
     inkscape:current-layer="svg7" />
  <g
     id="g6"
     transform="translate(-3,-2)">
    <path
       style="fill:url(#radialGradient9);fill-opacity:1"
       d="M 15.75,6 C 14.2265,6 13,7.2488 13,8.8 v 50.4 c 0,1.5512 1.2265,2.8 2.75,2.8 h 38.5 C 55.7735,62 57,60.7512 57,59.2 V 22 L 41,6 Z"
       id="path2"
       sodipodi:nodetypes="ssssssccs" />
    <path
       style="opacity:0.593376;fill:#ffffff;fill-opacity:1"
       d="M 41,6 V 19.333333 C 41,20.806133 42.193906,22 43.666666,22 H 57 Z"
       id="path4" />
  </g>
  <path
     style="fill:#3f3f3f"
     d="m 36.080892,54.369623 c -1.064172,-0.804852 -1.870496,-2.906578 -2.979818,-7.767072 -0.487938,-2.13789 -0.9886,-4.071116 -1.112586,-4.296058 -0.13458,-0.244144 -1.494364,2.0942 -3.123468,5.908356 l -2.898042,6.785064 H 22 l 4.349846,-9.238326 c 4.663962,-9.90545 4.64613,-9.310338 3.289574,-12.79648 -0.81368,-2.091028 -1.279746,-3.15472 -2.50542,-3.15472 -1.31458,0 -1.875042,0.773842 -2.315702,2.188012 -0.211248,0.67794 -0.50659,1.232614 -0.656312,1.232614 -0.416712,0 -0.325218,-1.270366 0.218224,-3.029882 0.867542,-2.808864 2.491372,-4.0473 4.432864,-2.57892 1.227474,0.92836 2.066816,3.162408 3.653888,9.725404 0.796646,3.294384 1.756266,7.249206 2.132472,8.78849 0.376212,1.53928 0.956228,3.3142 1.288924,3.944264 1.47594,2.795176 4.328472,2.977374 5.096856,0.214888 C 41.3069,49.138717 42,49.216759 42,50.279857 c 0,1.70809 -0.725872,3.172702 -1.68143,3.945788 -1.203986,0.974094 -3.056942,1.037086 -4.237678,0.14408 z"
     id="path7" />
</svg>
