<?xml version="1.0" encoding="UTF-8" standalone="no"?>
<svg
   width="64"
   height="64"
   version="1.1"
   id="svg7"
   sodipodi:docname="text-x-copying.svg"
   inkscape:version="1.4 (e7c3feb100, 2024-10-09)"
   xmlns:inkscape="http://www.inkscape.org/namespaces/inkscape"
   xmlns:sodipodi="http://sodipodi.sourceforge.net/DTD/sodipodi-0.dtd"
   xmlns:xlink="http://www.w3.org/1999/xlink"
   xmlns="http://www.w3.org/2000/svg"
   xmlns:svg="http://www.w3.org/2000/svg">
  <defs
     id="defs7">
    <radialGradient
       inkscape:collect="always"
       xlink:href="#linearGradient8"
       id="radialGradient9"
       cx="21.477476"
       cy="23.351734"
       fx="21.477476"
       fy="23.351734"
       r="22"
       gradientTransform="matrix(5.2437612,-5.1735227e-8,0,4.286547,-90.168663,-52.97246)"
       gradientUnits="userSpaceOnUse" />
    <linearGradient
       id="linearGradient8"
       inkscape:collect="always">
      <stop
         style="stop-color:#ededed;stop-opacity:1;"
         offset="0"
         id="stop8" />
      <stop
         style="stop-color:#b7b7b7;stop-opacity:1;"
         offset="1"
         id="stop9" />
    </linearGradient>
  </defs>
  <sodipodi:namedview
     id="namedview7"
     pagecolor="#ffffff"
     bordercolor="#000000"
     borderopacity="0.25"
     inkscape:showpageshadow="2"
     inkscape:pageopacity="0.0"
     inkscape:pagecheckerboard="0"
     inkscape:deskcolor="#d1d1d1"
     inkscape:zoom="17.8125"
     inkscape:cx="32"
     inkscape:cy="32"
     inkscape:current-layer="svg7" />
  <g
     id="g1">
    <g
       id="g6"
       transform="translate(-3,-2)">
      <path
         style="fill:url(#radialGradient9);fill-opacity:1"
         d="M 15.75,6 C 14.2265,6 13,7.2488 13,8.8 v 50.4 c 0,1.5512 1.2265,2.8 2.75,2.8 h 38.5 C 55.7735,62 57,60.7512 57,59.2 V 22 L 41,6 Z"
         id="path2"
         sodipodi:nodetypes="ssssssccs" />
      <path
         style="opacity:0.593376;fill:#ffffff;fill-opacity:1"
         d="M 41,6 V 19.333333 C 41,20.806133 42.193906,22 43.666666,22 H 57 Z"
         id="path4" />
    </g>
  </g>
  <path
     style="fill:#3f3f3f"
     d="M 32 27 A 14 14 0 0 0 18 41 A 14 14 0 0 0 32 55 A 14 14 0 0 0 46 41 A 14 14 0 0 0 32 27 z M 32 30 A 11 11 0 0 1 43 41 A 11 11 0 0 1 32 52 A 11 11 0 0 1 21 41 A 11 11 0 0 1 32 30 z"
     id="path6" />
  <path
     style="fill:#3f3f3f"
     d="M 32 33 A 8 8 0 0 0 24 41 A 8 8 0 0 0 32 49 A 8 8 0 0 0 37.470703 46.824219 L 35.001953 44.992188 A 5 5 0 0 1 32 46 A 5 5 0 0 1 27 41 A 5 5 0 0 1 32 36 A 5 5 0 0 1 35.041016 37.039062 L 37.511719 35.205078 A 8 8 0 0 0 32 33 z"
     id="path7" />
</svg>
