<?xml version="1.0" encoding="UTF-8" standalone="no"?>
<svg
   width="64"
   height="64"
   version="1.1"
   id="svg8"
   sodipodi:docname="text-x-tex.svg"
   inkscape:version="1.4 (e7c3feb100, 2024-10-09)"
   xmlns:inkscape="http://www.inkscape.org/namespaces/inkscape"
   xmlns:sodipodi="http://sodipodi.sourceforge.net/DTD/sodipodi-0.dtd"
   xmlns:xlink="http://www.w3.org/1999/xlink"
   xmlns="http://www.w3.org/2000/svg"
   xmlns:svg="http://www.w3.org/2000/svg">
  <defs
     id="defs8">
    <radialGradient
       inkscape:collect="always"
       xlink:href="#linearGradient9"
       id="radialGradient10"
       cx="13.687016"
       cy="51.762657"
       fx="13.687016"
       fy="51.762657"
       r="22"
       gradientTransform="matrix(2.2102385,-1.2760818,1.6241041,2.8130308,-100.6325,-70.991724)"
       gradientUnits="userSpaceOnUse" />
    <linearGradient
       id="linearGradient9"
       inkscape:collect="always">
      <stop
         style="stop-color:#a660ff;stop-opacity:1;"
         offset="0"
         id="stop9" />
      <stop
         style="stop-color:#c673ff;stop-opacity:1;"
         offset="1"
         id="stop10" />
    </linearGradient>
  </defs>
  <sodipodi:namedview
     id="namedview8"
     pagecolor="#ffffff"
     bordercolor="#000000"
     borderopacity="0.25"
     inkscape:showpageshadow="2"
     inkscape:pageopacity="0.0"
     inkscape:pagecheckerboard="0"
     inkscape:deskcolor="#d1d1d1"
     inkscape:zoom="17.8125"
     inkscape:cx="14.315789"
     inkscape:cy="44.575439"
     inkscape:current-layer="svg8" />
  <g
     id="g1">
    <g
       id="g2">
      <path
         style="fill:url(#radialGradient10)"
         d="m 12.75,4.0000002 c -1.5235,0 -2.75,1.2488002 -2.75,2.8000002 V 57.2 c 0,1.550081 1.2265,2.8 2.75,2.8 h 38.5 C 52.7724,60 54,58.75008 54,57.2 V 22 L 36,4.0000002 Z"
         id="path2"
         sodipodi:nodetypes="ssssssccs" />
      <path
         style="opacity:0.523832;fill:#ffffff;fill-opacity:1"
         d="M 54,22 36,4.0000002 V 19.187501 C 36,20.746751 37.2555,22 38.8125,22 Z"
         id="path4" />
    </g>
  </g>
  <path
     id="path6"
     style="fill:#ffffff;fill-opacity:1"
     d="m 16,34 v 3 h 3 v 10 h 3 V 37 h 3 v -3 z m 22,0 3,7 -3,6 h 3 l 2,-4 2,4 h 3 l -3,-6 3,-7 H 45 L 43,38.6 41,34 Z m -11,2 v 13 h 9 v -3 h -6 v -2 h 6 v -3 h -6 v -2 h 6 v -3 z"
     sodipodi:nodetypes="ccccccccccccccccccccccccccccccccccc" />
</svg>
