<?xml version="1.0" encoding="UTF-8" standalone="no"?>
<svg
   width="64"
   height="64"
   version="1.1"
   id="svg7"
   sodipodi:docname="text-x-stylus.svg"
   inkscape:version="1.4 (e7c3feb100, 2024-10-09)"
   xmlns:inkscape="http://www.inkscape.org/namespaces/inkscape"
   xmlns:sodipodi="http://sodipodi.sourceforge.net/DTD/sodipodi-0.dtd"
   xmlns:xlink="http://www.w3.org/1999/xlink"
   xmlns="http://www.w3.org/2000/svg"
   xmlns:svg="http://www.w3.org/2000/svg">
  <defs
     id="defs7">
    <linearGradient
       id="linearGradient7"
       inkscape:collect="always">
      <stop
         style="stop-color:#d9ff00;stop-opacity:1;"
         offset="0"
         id="stop7" />
      <stop
         style="stop-color:#ffd200;stop-opacity:1;"
         offset="1"
         id="stop8" />
    </linearGradient>
    <inkscape:path-effect
       effect="fillet_chamfer"
       id="path-effect7"
       is_visible="true"
       lpeversion="1"
       nodesatellites_param="F,0,1,1,0,1.4952096,0,1 @ F,0,1,1,0,1.4952096,0,1 @ F,0,0,1,0,1.4952096,0,1 @ F,0,1,1,0,1.4952096,0,1 | F,0,1,1,0,1.4952096,0,1 @ F,0,1,1,0,1.4952096,0,1 @ F,0,1,1,0,1.4952096,0,1 @ F,0,1,1,0,1.4952096,0,1 | F,0,1,1,0,1.4952096,0,1 @ F,0,1,1,0,1.4952096,0,1 @ F,0,1,1,0,1.4952096,0,1 @ F,0,1,1,0,1.4952096,0,1 | F,0,1,1,0,1.4952096,0,1 @ F,0,1,1,0,1.4952096,0,1 @ F,0,1,1,0,1.4952096,0,1 @ F,0,1,1,0,1.4952096,0,1"
       radius="0"
       unit="px"
       method="auto"
       mode="F"
       chamfer_steps="1"
       flexible="false"
       use_knot_distance="true"
       apply_no_radius="true"
       apply_with_radius="true"
       only_selected="false"
       hide_knots="false" />
    <radialGradient
       inkscape:collect="always"
       xlink:href="#linearGradient9"
       id="radialGradient10"
       cx="15.999628"
       cy="48.462826"
       fx="15.999628"
       fy="48.462826"
       r="22"
       gradientTransform="matrix(2.1335699,-1.2318172,1.5677674,2.7154527,-84.115134,-60.937205)"
       gradientUnits="userSpaceOnUse" />
    <linearGradient
       id="linearGradient9"
       inkscape:collect="always">
      <stop
         style="stop-color:#4f4f4f;stop-opacity:1;"
         offset="0"
         id="stop9" />
      <stop
         style="stop-color:#6a6a6a;stop-opacity:1;"
         offset="1"
         id="stop10" />
    </linearGradient>
    <radialGradient
       inkscape:collect="always"
       xlink:href="#linearGradient7"
       id="radialGradient8"
       cx="35.744251"
       cy="39.531155"
       fx="35.744251"
       fy="39.531155"
       r="12"
       gradientTransform="matrix(2.2634928,-0.60650106,0.53068842,1.9805562,-62.455338,-21.285047)"
       gradientUnits="userSpaceOnUse" />
  </defs>
  <sodipodi:namedview
     id="namedview7"
     pagecolor="#ffffff"
     bordercolor="#000000"
     borderopacity="0.25"
     inkscape:showpageshadow="2"
     inkscape:pageopacity="0.0"
     inkscape:pagecheckerboard="0"
     inkscape:deskcolor="#d1d1d1"
     inkscape:zoom="11.313709"
     inkscape:cx="30.317202"
     inkscape:cy="34.294677"
     inkscape:window-width="1920"
     inkscape:window-height="1014"
     inkscape:window-x="0"
     inkscape:window-y="0"
     inkscape:window-maximized="1"
     inkscape:current-layer="svg7" />
  <g
     id="g8"
     transform="translate(-10,2)">
    <path
       style="fill:url(#radialGradient10)"
       d="M 22.75,2 C 21.2265,2 20,3.2488 20,4.8 v 50.4 c 0,1.55008 1.2265,2.8 2.75,2.8 h 38.5 C 62.7724,58 64,56.75008 64,55.2 V 20 L 46,2 Z"
       id="path2"
       sodipodi:nodetypes="ssssssccs" />
    <path
       style="opacity:0.395668;fill:#ffffff;fill-opacity:1"
       d="M 64,20 46,2 V 17.1875 C 46,18.74675 47.2555,20 48.8125,20 Z"
       id="path4" />
  </g>
  <path
     style="fill:url(#radialGradient8)"
     d="m 20,32.49521 v 0.0096 A 1.4952096,1.4952096 45 0 0 21.49521,34 H 36.50479 A 1.4952096,1.4952096 135 0 0 38,32.50479 v -0.0096 A 1.4952096,1.4952096 45 0 0 36.50479,31 H 21.49521 A 1.4952096,1.4952096 135 0 0 20,32.49521 Z m 6,6 v 0.0096 A 1.4952096,1.4952096 45 0 0 27.49521,40 H 42.50479 A 1.4952096,1.4952096 135 0 0 44,38.50479 v -0.0096 A 1.4952096,1.4952096 45 0 0 42.50479,37 H 27.49521 A 1.4952096,1.4952096 135 0 0 26,38.49521 Z m 5,6 v 0.0096 A 1.4952096,1.4952096 45 0 0 32.49521,46 H 42.50479 A 1.4952096,1.4952096 135 0 0 44,44.50479 v -0.0096 A 1.4952096,1.4952096 45 0 0 42.50479,43 H 32.49521 A 1.4952096,1.4952096 135 0 0 31,44.49521 Z m 0,6 v 0.0096 A 1.4952096,1.4952096 45 0 0 32.49521,52 H 42.50479 A 1.4952096,1.4952096 135 0 0 44,50.50479 v -0.0096 A 1.4952096,1.4952096 45 0 0 42.50479,49 H 32.49521 A 1.4952096,1.4952096 135 0 0 31,50.49521 Z"
     id="path7"
     inkscape:path-effect="#path-effect7"
     inkscape:original-d="m20 31v3h18v-3zm6 6v3h18v-3zm5 6v3h13v-3zm0 6v3h13v-3z" />
</svg>
