<?xml version="1.0" encoding="UTF-8" standalone="no"?>
<svg
   width="64"
   height="64"
   version="1.1"
   id="svg7"
   sodipodi:docname="text-x-ocaml.svg"
   inkscape:version="1.3.2 (091e20ef0f, 2023-11-25, custom)"
   xmlns:inkscape="http://www.inkscape.org/namespaces/inkscape"
   xmlns:sodipodi="http://sodipodi.sourceforge.net/DTD/sodipodi-0.dtd"
   xmlns:xlink="http://www.w3.org/1999/xlink"
   xmlns="http://www.w3.org/2000/svg"
   xmlns:svg="http://www.w3.org/2000/svg">
  <defs
     id="defs7">
    <radialGradient
       inkscape:collect="always"
       xlink:href="#linearGradient9"
       id="radialGradient10"
       cx="13.687016"
       cy="51.762657"
       fx="13.687016"
       fy="51.762657"
       r="22"
       gradientTransform="matrix(2.2102385,-1.2760818,1.6241041,2.8130308,-100.6325,-71.991724)"
       gradientUnits="userSpaceOnUse" />
    <linearGradient
       id="linearGradient9"
       inkscape:collect="always">
      <stop
         style="stop-color:#ff9e22;stop-opacity:1;"
         offset="0"
         id="stop9" />
      <stop
         style="stop-color:#ff6122;stop-opacity:1;"
         offset="1"
         id="stop10" />
    </linearGradient>
  </defs>
  <sodipodi:namedview
     id="namedview7"
     pagecolor="#ffffff"
     bordercolor="#000000"
     borderopacity="0.25"
     inkscape:showpageshadow="2"
     inkscape:pageopacity="0.0"
     inkscape:pagecheckerboard="0"
     inkscape:deskcolor="#d1d1d1"
     inkscape:zoom="8"
     inkscape:cx="15.9375"
     inkscape:cy="23.25"
     inkscape:window-width="1920"
     inkscape:window-height="1014"
     inkscape:window-x="0"
     inkscape:window-y="0"
     inkscape:window-maximized="1"
     inkscape:current-layer="svg7" />
  <g
     id="g1">
    <g
       id="g2"
       transform="translate(1e-6,0.9999998)">
      <path
         style="fill:url(#radialGradient10)"
         d="m 12.749999,3.0000004 c -1.5235,0 -2.75,1.2488002 -2.75,2.8000002 V 56.2 c 0,1.550081 1.2265,2.8 2.75,2.8 h 38.5 c 1.5224,0 2.75,-1.24992 2.75,-2.8 V 21 l -18,-17.9999996 z"
         id="path2"
         sodipodi:nodetypes="ssssssccs" />
      <path
         style="opacity:0.523832;fill:#ffffff;fill-opacity:1"
         d="m 53.999999,21 -18,-17.9999996 V 18.187501 c 0,1.55925 1.2555,2.812499 2.8125,2.812499 z"
         id="path4" />
    </g>
  </g>
  <path
     style="fill:#ffffff;stroke-width:0;stroke-dasharray:none"
     d="m 39.852511,28.020293 c 1.021284,0.420189 2.802391,-0.43622 2.684703,1.358267 0.121599,0.947058 2.368977,0.696669 2.96472,0.886455 0.410636,0.44637 0.153402,0.873769 0.380567,0.851081 0.715869,0.70019 -6.44071,2.122577 -2.236089,1.003581 -1.119613,0.664165 -1.3328,3.235747 -1.231206,2.515938 -0.102471,1.978446 -0.390181,4.107288 -1.610798,5.743661 -0.827281,1.1301 -2.199126,1.536019 -3.473355,1.955248 0.06605,1.46562 -0.583208,2.935353 -0.151625,4.374299 -0.142959,1.588966 0.442717,3.136111 1.201014,4.513389 -0.0901,1.126486 2.49426,0.574531 1.427384,1.575205 -0.692471,0.694514 -2.82178,0.3931 -2.338946,-1.044211 -0.466755,-1.399401 -0.601553,-2.936782 -1.379813,-4.209097 -0.169936,-1.277592 -0.888744,-2.383408 -1.109306,-3.65687 -0.15022,-0.670751 -0.887442,-2.736546 -1.38042,-1.107903 -0.480363,1.620079 -1.566793,3.06215 -1.656817,4.783642 -0.2353,0.612576 -0.267187,2.531429 -0.379562,1.858908 0.06368,1.058847 -0.15835,2.186448 0.285866,3.178009 0.876208,0.60777 1.522561,0.813695 0.442281,1.227051 -0.373756,0.499357 -2.573727,0.03127 -1.705352,-0.977171 -1.296413,0.395665 -1.729275,-1.598401 -1.518155,-0.904035 -0.652285,-1.174016 -0.775848,-2.607023 -1.567885,-3.747847 -0.972708,-1.609422 -0.526186,-3.588427 -1.302298,-5.269465 -0.377299,-0.521235 -1.995087,-1.476137 -1.15573,-1.969765 0.285036,1.380697 -0.497397,2.545423 -0.927761,3.791616 9.48e-4,1.25583 -0.123059,2.456335 -0.351832,3.704037 0.0025,1.290933 -0.361139,2.679274 0.06898,3.912925 1.099253,0.769481 0.923922,1.122067 0.431995,1.365195 -0.920788,0.789323 -2.256529,-0.245623 -1.450443,-1.381741 0.23183,-2.029604 0.21477,-4.074936 0.0094,-6.104949 0.160711,-1.135649 -0.206681,-4.566861 0.02708,-3.428305 -0.207985,-0.941003 0.251995,-3.306615 -1.277778,-2.072308 -0.559092,0.226768 -2.208437,1.111559 -1.260689,-0.107453 0.765234,-0.415011 1.91914,-0.894285 1.664306,-1.955865 -0.145183,-1.315245 -0.0391,-2.671998 0.624112,-3.849102 0.582768,-1.111824 1.391175,-1.943639 1.422968,-3.248845 0.117441,-1.246171 1.225619,-2.539092 2.591401,-2.159096 0.940126,0.305188 1.082009,3.374979 2.11803,1.78346 0.529535,-1.023926 0.06519,-2.751918 1.440788,-3.161474 1.230077,-0.317658 2.622146,0.376046 2.951967,1.619137 0.195262,1.558067 1.750646,2.281572 2.327439,3.658391 0.533305,0.912755 1.069796,2.523448 2.437308,2.039585 0.826495,-1.006454 1.337343,-3.331376 0.60325,-3.910783 -0.691448,-1.872391 0.593945,-2.81572 0.710221,-3.225578 0.08231,-0.378439 0.418591,-0.25626 0.65005,-0.207217 z M 28.452523,42.436101 c -0.07785,1.337538 0.06951,2.679632 -0.02915,4.020417 0.147679,1.53175 0.499655,3.088596 1.185685,4.475626 0.308725,0.544277 1.293467,1.542659 1.232391,0.241801 0.348408,-1.311769 -0.04872,-2.624817 -0.154159,-3.929015 0.345519,-1.463559 -0.119655,-2.933246 -0.05808,-4.410901 -1.312408,-0.556579 -1.104369,0.645268 -2.108805,-0.45278 z"
     id="path7"
     sodipodi:nodetypes="ccccccccccccccccccccccccccccccccccccccccccccsccccccccc" />
</svg>
