<?xml version="1.0" encoding="UTF-8" standalone="no"?>
<svg
   width="64"
   height="64"
   version="1.1"
   id="svg13"
   sodipodi:docname="text-x-ms-regedit.svg"
   inkscape:version="1.4 (e7c3feb100, 2024-10-09)"
   xmlns:inkscape="http://www.inkscape.org/namespaces/inkscape"
   xmlns:sodipodi="http://sodipodi.sourceforge.net/DTD/sodipodi-0.dtd"
   xmlns:xlink="http://www.w3.org/1999/xlink"
   xmlns="http://www.w3.org/2000/svg"
   xmlns:svg="http://www.w3.org/2000/svg">
  <defs
     id="defs13">
    <radialGradient
       inkscape:collect="always"
       xlink:href="#linearGradient2"
       id="radialGradient9"
       cx="20.238163"
       cy="45.446491"
       fx="20.238163"
       fy="45.446491"
       r="22"
       gradientTransform="matrix(2.2768343,-1.3145309,1.6730393,2.8977891,-103.5617,-78.365997)"
       gradientUnits="userSpaceOnUse" />
    <linearGradient
       id="linearGradient2"
       inkscape:collect="always">
      <stop
         style="stop-color:#00b1ff;stop-opacity:1;"
         offset="0"
         id="stop1" />
      <stop
         style="stop-color:#136dff;stop-opacity:1;"
         offset="1"
         id="stop2" />
    </linearGradient>
  </defs>
  <sodipodi:namedview
     id="namedview13"
     pagecolor="#ffffff"
     bordercolor="#000000"
     borderopacity="0.25"
     inkscape:showpageshadow="2"
     inkscape:pageopacity="0.0"
     inkscape:pagecheckerboard="0"
     inkscape:deskcolor="#d1d1d1"
     inkscape:zoom="17.8125"
     inkscape:cx="32"
     inkscape:cy="32"
     inkscape:current-layer="svg13" />
  <g
     id="g1">
    <g
       id="g4">
      <g
         id="g3">
        <g
           id="g2"
           transform="translate(0.0397662,0.06140005)">
          <path
             style="fill:url(#radialGradient9)"
             d="m 12.710234,3.9385999 c -1.5235,0 -2.7500004,1.2487999 -2.7500004,2.7999999 V 57.1386 c 0,1.55008 1.2265004,2.8 2.7500004,2.8 h 38.5 c 1.5224,0 2.75,-1.24992 2.75,-2.8 v -35.2 l -18,-18.0000001 z"
             id="path2-6"
             sodipodi:nodetypes="ssssssccs" />
          <path
             style="opacity:0.533302;fill:#ffffff;fill-opacity:1"
             d="m 53.960234,21.9386 -18,-18.0000001 V 19.1261 c 0,1.55925 1.2555,2.8125 2.8125,2.8125 z"
             id="path4-5" />
        </g>
      </g>
    </g>
  </g>
  <rect
     style="fill:#ffffff"
     width="8"
     height="8"
     x="18"
     y="30"
     rx="2"
     ry="2"
     id="rect6" />
  <rect
     style="fill:#ffffff;fill-opacity:1;opacity:0.59009276"
     width="8"
     height="8"
     x="18"
     y="38"
     rx="2"
     ry="2"
     id="rect7" />
  <rect
     style="fill:#ffffff"
     width="8"
     height="8"
     x="18"
     y="46"
     rx="2"
     ry="2"
     id="rect8" />
  <rect
     style="fill:#ffffff"
     width="8"
     height="8"
     x="26"
     y="38"
     rx="2"
     ry="2"
     id="rect9" />
  <rect
     style="fill:#ffffff;fill-opacity:1;opacity:0.59009276"
     width="8"
     height="8"
     x="26"
     y="46"
     rx="2"
     ry="2"
     id="rect10" />
  <rect
     style="fill:#ffffff;fill-opacity:1;opacity:0.59009276"
     width="8.45"
     height="8.45"
     x="12.32"
     y="41.12"
     rx="2.113"
     ry="2.113"
     transform="rotate(-30)"
     id="rect11" />
  <rect
     style="fill:#ffffff"
     width="8"
     height="8"
     x="40"
     y="36"
     rx="2"
     ry="2"
     id="rect12" />
  <rect
     style="fill:#ffffff"
     width="8"
     height="8"
     x="34"
     y="46"
     rx="2"
     ry="2"
     id="rect13" />
</svg>
