<?xml version="1.0" encoding="UTF-8" standalone="no"?>
<svg
   width="64"
   height="64"
   version="1.1"
   id="svg8"
   sodipodi:docname="tex-x-nim-project.svg"
   inkscape:version="1.3.2 (091e20ef0f, 2023-11-25, custom)"
   xmlns:inkscape="http://www.inkscape.org/namespaces/inkscape"
   xmlns:sodipodi="http://sodipodi.sourceforge.net/DTD/sodipodi-0.dtd"
   xmlns:xlink="http://www.w3.org/1999/xlink"
   xmlns="http://www.w3.org/2000/svg"
   xmlns:svg="http://www.w3.org/2000/svg">
  <defs
     id="defs8">
    <linearGradient
       id="linearGradient8"
       inkscape:collect="always">
      <stop
         style="stop-color:#ffea00;stop-opacity:1;"
         offset="0"
         id="stop8" />
      <stop
         style="stop-color:#ffa400;stop-opacity:1;"
         offset="1"
         id="stop11" />
    </linearGradient>
    <radialGradient
       inkscape:collect="always"
       xlink:href="#linearGradient9"
       id="radialGradient10"
       cx="15.999628"
       cy="48.462826"
       fx="15.999628"
       fy="48.462826"
       r="22"
       gradientTransform="matrix(2.1335699,-1.2318172,1.5677674,2.7154527,-84.115134,-60.937205)"
       gradientUnits="userSpaceOnUse" />
    <linearGradient
       id="linearGradient9"
       inkscape:collect="always">
      <stop
         style="stop-color:#4f4f4f;stop-opacity:1;"
         offset="0"
         id="stop9" />
      <stop
         style="stop-color:#6a6a6a;stop-opacity:1;"
         offset="1"
         id="stop10" />
    </linearGradient>
    <radialGradient
       inkscape:collect="always"
       xlink:href="#linearGradient8"
       id="radialGradient11"
       cx="28.397032"
       cy="51.836502"
       fx="28.397032"
       fy="51.836502"
       r="15.006813"
       gradientTransform="matrix(1.3769091,-1.3769091,1.2740988,1.2740988,-72.343232,32.768977)"
       gradientUnits="userSpaceOnUse" />
  </defs>
  <sodipodi:namedview
     id="namedview8"
     pagecolor="#ffffff"
     bordercolor="#000000"
     borderopacity="0.25"
     inkscape:showpageshadow="2"
     inkscape:pageopacity="0.0"
     inkscape:pagecheckerboard="0"
     inkscape:deskcolor="#d1d1d1"
     inkscape:zoom="13.09375"
     inkscape:cx="35.627685"
     inkscape:cy="32"
     inkscape:window-width="1920"
     inkscape:window-height="1014"
     inkscape:window-x="0"
     inkscape:window-y="0"
     inkscape:window-maximized="1"
     inkscape:current-layer="svg8" />
  <g
     id="g8"
     transform="translate(-10,2)">
    <path
       style="fill:url(#radialGradient10)"
       d="M 22.75,2 C 21.2265,2 20,3.2488 20,4.8 v 50.4 c 0,1.55008 1.2265,2.8 2.75,2.8 h 38.5 C 62.7724,58 64,56.75008 64,55.2 V 20 L 46,2 Z"
       id="path2"
       sodipodi:nodetypes="ssssssccs" />
    <path
       style="opacity:0.395668;fill:#ffffff;fill-opacity:1"
       d="M 64,20 46,2 V 17.1875 C 46,18.74675 47.2555,20 48.8125,20 Z"
       id="path4" />
  </g>
  <path
     id="path7"
     style="fill:url(#radialGradient11);stroke-width:0.937926"
     d="m 32.119072,29.682811 c 0,0 -1.150412,1.005199 -2.322831,1.910657 -1.20608,-0.03845 -3.570916,0.232199 -4.852668,0.699781 -1.180756,-0.750344 -2.218414,-1.672513 -2.218414,-1.672513 0,0 -0.885988,1.624676 -1.443525,2.522508 -0.826848,0.441111 -1.658048,0.937311 -2.39794,1.593741 -0.860575,-0.342778 -1.857947,-0.854503 -1.890507,-0.868314 1.139657,2.305788 1.905747,4.613534 3.989848,6.001259 1.656506,-2.624224 6.329532,-3.674626 11.015133,-3.621639 4.699739,0.05315 9.412706,1.217714 11.108559,3.592329 2.188646,-1.145076 3.039354,-3.609516 3.900086,-5.884018 -0.09437,0.03118 -1.265045,0.519247 -2.024235,0.809693 -0.453288,-0.49501 -1.521407,-1.255662 -2.128651,-1.623051 -0.575999,-1.058004 -1.414217,-2.581128 -1.414217,-2.581128 0,0 -0.994244,0.83498 -2.145138,1.643202 -1.554837,-0.287892 -3.435824,-0.638004 -5.017538,-0.551398 -1.076733,-0.887735 -2.157962,-1.971109 -2.157962,-1.971109 z m 13.916841,9.047686 c -1.35766,2.01746 -3.568807,3.410034 -4.929606,4.160214 -0.966962,0.531357 -3.196642,0.851827 -3.196642,0.851827 l -5.858372,-2.804618 -5.891346,2.744166 c 0,0 -2.201839,-0.355206 -3.198474,-0.822517 -2.011491,-1.077071 -3.364087,-2.348545 -4.790383,-4.090602 0,0 1.614995,3.921821 2.736838,6.647916 4.7537,6.290858 16.893986,6.729134 22.185976,0.122736 1.252293,-2.830885 2.942009,-6.809122 2.942009,-6.809122 z" />
</svg>
