<?xml version="1.0" encoding="UTF-8" standalone="no"?>
<svg
   width="64"
   height="64"
   version="1.1"
   id="svg6"
   sodipodi:docname="application-vnd.stardivision.mail.svg"
   inkscape:version="1.4 (e7c3feb100, 2024-10-09)"
   xmlns:inkscape="http://www.inkscape.org/namespaces/inkscape"
   xmlns:sodipodi="http://sodipodi.sourceforge.net/DTD/sodipodi-0.dtd"
   xmlns:xlink="http://www.w3.org/1999/xlink"
   xmlns="http://www.w3.org/2000/svg"
   xmlns:svg="http://www.w3.org/2000/svg">
  <defs
     id="defs6">
    <inkscape:path-effect
       effect="fillet_chamfer"
       id="path-effect10"
       is_visible="true"
       lpeversion="1"
       nodesatellites_param="F,0,1,1,0,1.5026856,0,1 @ F,0,1,1,0,1.5026856,0,1 @ F,0,0,1,0,1.5026856,0,1 @ F,0,1,1,0,1.5026856,0,1 | F,0,1,1,0,1.5026856,0,1 @ F,0,1,1,0,1.5026856,0,1 @ F,0,1,1,0,1.5026856,0,1 @ F,0,1,1,0,1.5026856,0,1 | F,0,1,1,0,1.5026856,0,1 @ F,0,1,1,0,1.5026856,0,1 @ F,0,1,1,0,1.5026856,0,1 @ F,0,1,1,0,1.5026856,0,1 | F,0,1,1,0,1.5026856,0,1 @ F,0,1,1,0,1.5026856,0,1 @ F,0,1,1,0,1.5026856,0,1 @ F,0,1,1,0,1.5026856,0,1"
       radius="0"
       unit="px"
       method="auto"
       mode="F"
       chamfer_steps="1"
       flexible="false"
       use_knot_distance="true"
       apply_no_radius="true"
       apply_with_radius="true"
       only_selected="false"
       hide_knots="false" />
    <radialGradient
       inkscape:collect="always"
       xlink:href="#linearGradient8"
       id="radialGradient9"
       cx="21.477476"
       cy="23.351734"
       fx="21.477476"
       fy="23.351734"
       r="22"
       gradientTransform="matrix(5.2437612,-5.1735227e-8,0,4.286547,-93.168663,-54.97246)"
       gradientUnits="userSpaceOnUse" />
    <linearGradient
       id="linearGradient8"
       inkscape:collect="always">
      <stop
         style="stop-color:#ededed;stop-opacity:1;"
         offset="0"
         id="stop8" />
      <stop
         style="stop-color:#b7b7b7;stop-opacity:1;"
         offset="1"
         id="stop9" />
    </linearGradient>
  </defs>
  <sodipodi:namedview
     id="namedview6"
     pagecolor="#ffffff"
     bordercolor="#000000"
     borderopacity="0.25"
     inkscape:showpageshadow="2"
     inkscape:pageopacity="0.0"
     inkscape:pagecheckerboard="0"
     inkscape:deskcolor="#d1d1d1"
     inkscape:zoom="13.890625"
     inkscape:cx="23.685039"
     inkscape:cy="33.079865"
     inkscape:window-width="3440"
     inkscape:window-height="1361"
     inkscape:window-x="0"
     inkscape:window-y="0"
     inkscape:window-maximized="1"
     inkscape:current-layer="svg6" />
  <g
     id="g1">
    <path
       style="fill:url(#radialGradient9);fill-opacity:1"
       d="M 12.75,4 C 11.2265,4 10,5.2488 10,6.8 v 50.4 c 0,1.5512 1.2265,2.8 2.75,2.8 h 38.5 C 52.7735,60 54,58.7512 54,57.2 V 20 L 38,4 Z"
       id="path2"
       sodipodi:nodetypes="ssssssccs" />
    <path
       style="opacity:0.593376;fill:#ffffff;fill-opacity:1"
       d="M 38,4 V 17.333333 C 38,18.806133 39.193906,20 40.666666,20 H 54 Z"
       id="path4" />
  </g>
  <path
     style="opacity:0.5"
     d="M 20,32.502686 A 1.5000024,1.5000024 44.897418 0 0 21.502686,34 H 42.497314 A 1.5026856,1.5026856 135 0 0 44,32.497314 1.5000024,1.5000024 44.897418 0 0 42.497314,31 H 21.502686 A 1.5026856,1.5026856 135 0 0 20,32.502686 Z m 0,6 A 1.5000024,1.5000024 44.897418 0 0 21.502686,40 l 20.994628,0 A 1.5026856,1.5026856 135 0 0 44,38.497314 1.5000024,1.5000024 44.897418 0 0 42.497314,37 H 21.502686 A 1.5026856,1.5026856 135 0 0 20,38.502686 Z m 0,6 A 1.5000024,1.5000024 44.897418 0 0 21.502686,46 l 20.994628,0 A 1.5026856,1.5026856 135 0 0 44,44.497314 1.5000024,1.5000024 44.897418 0 0 42.497314,43 L 21.502686,43 A 1.5026856,1.5026856 135 0 0 20,44.502686 Z m 0,6 A 1.5000024,1.5000024 44.897418 0 0 21.502686,52 H 33.497314 A 1.5026856,1.5026856 135 0 0 35,50.497314 1.5000024,1.5000024 44.897418 0 0 33.497314,49 H 21.502686 A 1.5026856,1.5026856 135 0 0 20,50.502686 Z"
     id="path6"
     inkscape:path-effect="#path-effect10"
     inkscape:original-d="m 20,31 v 3 h 24 v -3 z m 0,6 v 3 h 24 v -3 z m 0,6 v 3 h 24 v -3 z m 0,6 v 3 h 15 v -3 z" />
</svg>
