<?xml version="1.0" encoding="UTF-8" standalone="no"?>
<svg
   width="64"
   height="64"
   version="1.1"
   id="svg7"
   sodipodi:docname="text-x-wxmathml.svg"
   inkscape:version="1.3.2 (091e20ef0f, 2023-11-25, custom)"
   xmlns:inkscape="http://www.inkscape.org/namespaces/inkscape"
   xmlns:sodipodi="http://sodipodi.sourceforge.net/DTD/sodipodi-0.dtd"
   xmlns:xlink="http://www.w3.org/1999/xlink"
   xmlns="http://www.w3.org/2000/svg"
   xmlns:svg="http://www.w3.org/2000/svg">
  <defs
     id="defs7">
    <radialGradient
       inkscape:collect="always"
       xlink:href="#linearGradient9"
       id="radialGradient10"
       cx="13.687016"
       cy="51.762657"
       fx="13.687016"
       fy="51.762657"
       r="22"
       gradientTransform="matrix(2.2102385,-1.2760818,1.6241041,2.8130308,-100.6325,-70.991724)"
       gradientUnits="userSpaceOnUse" />
    <linearGradient
       id="linearGradient9"
       inkscape:collect="always">
      <stop
         style="stop-color:#a660ff;stop-opacity:1;"
         offset="0"
         id="stop9" />
      <stop
         style="stop-color:#c673ff;stop-opacity:1;"
         offset="1"
         id="stop10" />
    </linearGradient>
  </defs>
  <sodipodi:namedview
     id="namedview7"
     pagecolor="#ffffff"
     bordercolor="#000000"
     borderopacity="0.25"
     inkscape:showpageshadow="2"
     inkscape:pageopacity="0.0"
     inkscape:pagecheckerboard="0"
     inkscape:deskcolor="#d1d1d1"
     inkscape:zoom="13.09375"
     inkscape:cx="32.038186"
     inkscape:cy="32"
     inkscape:window-width="1920"
     inkscape:window-height="1014"
     inkscape:window-x="0"
     inkscape:window-y="0"
     inkscape:window-maximized="1"
     inkscape:current-layer="svg7" />
  <path
     style="fill:url(#radialGradient10)"
     d="m 12.75,4.0000002 c -1.5235,0 -2.75,1.2488002 -2.75,2.8000002 V 57.2 c 0,1.550081 1.2265,2.8 2.75,2.8 h 38.5 C 52.7724,60 54,58.75008 54,57.2 V 22 L 36,4.0000002 Z"
     id="path2"
     sodipodi:nodetypes="ssssssccs" />
  <path
     style="opacity:0.523832;fill:#ffffff;fill-opacity:1"
     d="M 54,22 36,4.0000002 V 19.187501 C 36,20.746751 37.2555,22 38.8125,22 Z"
     id="path4" />
  <path
     style="fill:#ffffff;fill-opacity:1"
     d="m 24.000437,31.000042 v 2.000001 l 0.0081,0.8571 L 28.363446,41 24,48.142857 V 51 h 16 v -4 h -3 v 1 H 26.909091 l 4.363636,-7 -4.363636,-7 H 36 v 1 h 3 V 31 H 24.000291 Z"
     id="path7" />
</svg>
