<?xml version="1.0" encoding="UTF-8" standalone="no"?>
<svg
   width="64"
   height="64"
   version="1.1"
   id="svg7"
   sodipodi:docname="application-x-bps-patch.svg"
   inkscape:version="1.4 (e7c3feb100, 2024-10-09)"
   xmlns:inkscape="http://www.inkscape.org/namespaces/inkscape"
   xmlns:sodipodi="http://sodipodi.sourceforge.net/DTD/sodipodi-0.dtd"
   xmlns:xlink="http://www.w3.org/1999/xlink"
   xmlns="http://www.w3.org/2000/svg"
   xmlns:svg="http://www.w3.org/2000/svg">
  <defs
     id="defs7">
    <linearGradient
       id="linearGradient7"
       inkscape:collect="always">
      <stop
         style="stop-color:#ffdb10;stop-opacity:1;"
         offset="0"
         id="stop7" />
      <stop
         style="stop-color:#ffaf10;stop-opacity:1;"
         offset="1"
         id="stop8" />
    </linearGradient>
    <radialGradient
       inkscape:collect="always"
       xlink:href="#linearGradient7"
       id="radialGradient8"
       cx="25.729101"
       cy="44.344452"
       fx="25.729101"
       fy="44.344452"
       r="11"
       gradientTransform="matrix(3.4436673,-0.92272788,0.92272788,3.4436673,-107.94682,-78.219092)"
       gradientUnits="userSpaceOnUse" />
    <radialGradient
       inkscape:collect="always"
       xlink:href="#linearGradient8-9"
       id="radialGradient9-2-3"
       cx="21.477476"
       cy="23.351734"
       fx="21.477476"
       fy="23.351734"
       r="22"
       gradientTransform="matrix(5.2437612,-5.1735227e-8,0,4.286547,-93.16866,-54.97246)"
       gradientUnits="userSpaceOnUse" />
    <linearGradient
       id="linearGradient8-9"
       inkscape:collect="always">
      <stop
         style="stop-color:#494949;stop-opacity:1;"
         offset="0"
         id="stop8-1" />
      <stop
         style="stop-color:#9c9c9c;stop-opacity:1;"
         offset="1"
         id="stop9-2" />
    </linearGradient>
  </defs>
  <sodipodi:namedview
     id="namedview7"
     pagecolor="#ffffff"
     bordercolor="#000000"
     borderopacity="0.25"
     inkscape:showpageshadow="2"
     inkscape:pageopacity="0.0"
     inkscape:pagecheckerboard="0"
     inkscape:deskcolor="#d1d1d1"
     inkscape:zoom="11.313709"
     inkscape:cx="29.34493"
     inkscape:cy="40.172502"
     inkscape:window-width="3440"
     inkscape:window-height="1361"
     inkscape:window-x="0"
     inkscape:window-y="0"
     inkscape:window-maximized="1"
     inkscape:current-layer="svg7" />
  <g
     id="g1">
    <g
       id="g3">
      <g
         id="g2">
        <path
           style="fill:url(#radialGradient9-2-3);fill-opacity:1"
           d="M 12.75,4 C 11.2265,4 10,5.2488 10,6.8 v 50.4 c 0,1.5512 1.2265,2.8 2.75,2.8 h 38.5 C 52.7735,60 54,58.7512 54,57.2 V 20 L 38,4 Z"
           id="path2-0-5"
           sodipodi:nodetypes="ssssssccs" />
        <path
           style="opacity:0.36674;fill:#ffffff;fill-opacity:1"
           d="M 38,4 V 17.333333 C 38,18.806133 39.193906,20 40.666666,20 H 54 Z"
           id="path4-9" />
      </g>
    </g>
  </g>
  <path
     d="m 22.46875,31.46875 c -2.112429,2.112334 -1.923329,5.701791 0.423828,8.048828 L 24.375,41 22.892578,42.482422 c -2.347143,2.347038 -2.536243,5.936495 -0.423828,8.048828 2.112416,2.112334 5.701684,1.923222 8.048828,-0.423828 L 32,48.625 l 1.482422,1.482422 c 2.347144,2.347036 5.936399,2.536148 8.048828,0.423828 2.112429,-2.11232 1.92333,-5.70179 -0.423828,-8.048828 L 39.625,41 41.107422,39.517578 c 2.347144,-2.347037 2.536244,-5.936494 0.423828,-8.048828 -2.112415,-2.112333 -5.701684,-1.923224 -8.048828,0.423828 L 32,33.375 30.517578,31.892578 C 28.216863,29.591964 24.621912,29.315798 22.46875,31.46875 Z M 32,35.28125 c 0.526331,0.526433 0.526331,1.379817 0,1.90625 -0.526331,-0.526433 -0.526331,-1.379817 0,-1.90625 z m -1.558594,2.511714 c 0.267239,0.997535 -0.650957,1.915589 -1.648437,1.648437 -0.293491,-1.095529 0.775756,-1.885018 1.648437,-1.648437 z m 4.765625,1.648442 c -0.997415,0.267134 -1.915681,-0.650882 -1.648437,-1.648437 0.99209,-0.268977 1.916474,0.647921 1.648437,1.648437 z m -3.109371,0.214838 c 1.710019,0 1.763078,2.686727 0.02348,2.686727 -1.739598,0 -1.733499,-2.686727 -0.02348,-2.686727 z M 28.1875,41 c -0.526447,0.52625 -1.379803,0.52625 -1.90625,0 0.524675,-0.524495 1.380338,-0.52573 1.90625,0 z m 9.53125,0 c -0.526447,0.52625 -1.379803,0.52625 -1.90625,0 0.52597,-0.525788 1.381637,-0.524433 1.90625,0 z m -7.277344,3.207031 c -0.997415,0.267134 -1.915681,-0.650882 -1.648437,-1.648437 0.987733,-0.268297 1.917567,0.643842 1.648437,1.648437 z m 4.765625,-1.648442 c 0.267239,0.997535 -0.650957,1.915589 -1.648437,1.648437 -0.298083,-1.112669 0.798056,-1.879419 1.648437,-1.648437 z M 32,44.8125 c 0.526331,0.526433 0.526331,1.379817 0,1.90625 -0.526331,-0.526433 -0.526331,-1.379817 0,-1.90625 z"
     style="fill:url(#radialGradient8)"
     id="path8"
     sodipodi:nodetypes="ccccscccscccscccccccccccccczcscscsccsccscccc" />
</svg>
