<?xml version="1.0" encoding="UTF-8" standalone="no"?>
<svg
   width="64"
   height="64"
   version="1.1"
   id="svg7"
   sodipodi:docname="text-x-texmacs.svg"
   inkscape:version="1.3.2 (091e20ef0f, 2023-11-25, custom)"
   xmlns:inkscape="http://www.inkscape.org/namespaces/inkscape"
   xmlns:sodipodi="http://sodipodi.sourceforge.net/DTD/sodipodi-0.dtd"
   xmlns:xlink="http://www.w3.org/1999/xlink"
   xmlns="http://www.w3.org/2000/svg"
   xmlns:svg="http://www.w3.org/2000/svg">
  <defs
     id="defs7">
    <radialGradient
       inkscape:collect="always"
       xlink:href="#linearGradient9"
       id="radialGradient10"
       cx="15.999628"
       cy="48.462826"
       fx="15.999628"
       fy="48.462826"
       r="22"
       gradientTransform="matrix(2.1335699,-1.2318172,1.5677674,2.7154527,-84.115134,-60.937205)"
       gradientUnits="userSpaceOnUse" />
    <linearGradient
       id="linearGradient9"
       inkscape:collect="always">
      <stop
         style="stop-color:#4f4f4f;stop-opacity:1;"
         offset="0"
         id="stop9" />
      <stop
         style="stop-color:#6a6a6a;stop-opacity:1;"
         offset="1"
         id="stop10" />
    </linearGradient>
  </defs>
  <sodipodi:namedview
     id="namedview7"
     pagecolor="#ffffff"
     bordercolor="#000000"
     borderopacity="0.25"
     inkscape:showpageshadow="2"
     inkscape:pageopacity="0.0"
     inkscape:pagecheckerboard="0"
     inkscape:deskcolor="#d1d1d1"
     inkscape:zoom="13.09375"
     inkscape:cx="31.961814"
     inkscape:cy="32"
     inkscape:window-width="1920"
     inkscape:window-height="1014"
     inkscape:window-x="0"
     inkscape:window-y="0"
     inkscape:window-maximized="1"
     inkscape:current-layer="svg7" />
  <g
     id="g8"
     transform="translate(-10,2)">
    <path
       style="fill:url(#radialGradient10)"
       d="M 22.75,2 C 21.2265,2 20,3.2488 20,4.8 v 50.4 c 0,1.55008 1.2265,2.8 2.75,2.8 h 38.5 C 62.7724,58 64,56.75008 64,55.2 V 20 L 46,2 Z"
       id="path2"
       sodipodi:nodetypes="ssssssccs" />
    <path
       style="opacity:0.395668;fill:#ffffff;fill-opacity:1"
       d="M 64,20 46,2 V 17.1875 C 46,18.74675 47.2555,20 48.8125,20 Z"
       id="path4" />
  </g>
  <path
     style="fill:#b4b4b4"
     d="m -12.04765,27.905301 h -0.94792 c -0.682502,6.332105 -3.260844,7.098566 -9.213781,7.098566 h -9.044066 l 9.250636,-10.511077 c 0.341251,-0.379168 0.341251,-0.606669 0.341251,-0.606669 0,-0.189584 -0.151667,-0.379168 -0.265418,-0.530835 L -30.85438,12.806292 h 8.75878 c 6.407938,0 8.303778,0.690627 9.10003,6.681481 h 0.94792 l -1.06167,-8.531279 h -21.043821 c -0.910003,0 -0.985836,0 -0.985836,0.872086 l 10.152191,12.893185 -9.735106,11.108146 c -0.379168,0.417085 -0.379168,0.492918 -0.379168,0.606669 0,0.417084 0.379168,0.417084 0.947919,0.417084 h 21.043821 z"
     id="path6"
     transform="matrix(-1.1259639,0,0,1.0811992,5.4347807,14.153847)" />
</svg>
