<?xml version="1.0" encoding="UTF-8" standalone="no"?>
<svg
   width="64"
   height="64"
   version="1.1"
   id="svg14"
   sodipodi:docname="text-x-elixir.svg"
   inkscape:version="1.4 (e7c3feb100, 2024-10-09)"
   xmlns:inkscape="http://www.inkscape.org/namespaces/inkscape"
   xmlns:sodipodi="http://sodipodi.sourceforge.net/DTD/sodipodi-0.dtd"
   xmlns:xlink="http://www.w3.org/1999/xlink"
   xmlns="http://www.w3.org/2000/svg"
   xmlns:svg="http://www.w3.org/2000/svg">
  <defs
     id="defs14">
    <radialGradient
       inkscape:collect="always"
       xlink:href="#linearGradient7"
       id="radialGradient8"
       cx="17.222261"
       cy="49.789066"
       fx="17.222261"
       fy="49.789066"
       r="22"
       gradientTransform="matrix(2.3473368,-1.3552355,1.7248452,2.9875196,-97.08262,-74.764958)"
       gradientUnits="userSpaceOnUse" />
    <linearGradient
       id="linearGradient7"
       inkscape:collect="always">
      <stop
         style="stop-color:#656bff;stop-opacity:1;"
         offset="0"
         id="stop7" />
      <stop
         style="stop-color:#a057ff;stop-opacity:1;"
         offset="1"
         id="stop8" />
    </linearGradient>
  </defs>
  <sodipodi:namedview
     id="namedview14"
     pagecolor="#ffffff"
     bordercolor="#000000"
     borderopacity="0.25"
     inkscape:showpageshadow="2"
     inkscape:pageopacity="0.0"
     inkscape:pagecheckerboard="0"
     inkscape:deskcolor="#d1d1d1"
     inkscape:zoom="17.8125"
     inkscape:cx="32"
     inkscape:cy="32"
     inkscape:current-layer="svg14" />
  <g
     id="g1">
    <g
       id="g2">
      <g
         id="g7"
         transform="translate(-12,4)">
        <path
           style="fill:url(#radialGradient8)"
           d="M 24.75,0 C 23.2265,0 22,1.2488 22,2.8 v 50.4 c 0,1.55008 1.2265,2.8 2.75,2.8 h 38.5 C 64.7724,56 66,54.75008 66,53.2 V 18 L 48,0 Z"
           id="path2"
           sodipodi:nodetypes="ssssssccs" />
        <path
           style="opacity:0.448535;fill:#ffffff;fill-opacity:1"
           d="M 66,18 48,0 V 15.1875 C 48,16.74675 49.2555,18 50.8125,18 Z"
           id="path4" />
      </g>
    </g>
  </g>
  <path
     style="fill:#ffffff;fill-opacity:0.95725;opacity:0.29844245"
     d="m 32.77224,26.070438 c -2.016579,0.720998 -3.963335,2.825799 -5.839837,6.313533 -2.814535,5.232478 -6.450447,12.667318 -1.444129,18.55429 2.31581,2.722989 6.139937,4.330356 11.158396,1.784993 4.031854,-2.045303 5.153333,-7.914339 3.705733,-10.671888 -1.258389,-2.397557 -2.524482,-4.033868 -3.628973,-5.38884 -1.516187,-1.860026 -2.727851,-3.189881 -3.197034,-5.230987 -0.54079,-2.35199 -0.79232,-4.138731 -0.754591,-5.361101 z"
     id="path7" />
  <path
     style="fill:#ffffff;fill-opacity:0.95725;opacity:0.29844245"
     d="m 32.770506,26.000002 c -2.027412,0.736264 -3.974145,2.86369 -5.841064,6.381396 -2.799946,5.277222 -6.451805,12.803478 -1.444434,18.753729 2.316299,2.752257 6.092215,3.641522 8.187294,2.00936 1.365923,-1.064378 2.294611,-2.078786 2.829877,-4.216385 0.595991,-2.379923 0.138811,-5.584549 -0.174807,-7.056193 1.259826,-4.629644 -1.930473,-6.830583 -2.802549,-10.453181 -0.540904,-2.37727 -0.792487,-4.183218 -0.75475,-5.418726 z"
     id="path8" />
  <path
     style="fill:#ffffff;fill-opacity:0.95725;opacity:0.29844245"
     d="m 31.091842,26.925969 c -1.888176,1.52117 -3.292269,4.072668 -4.211849,7.654494 -1.37937,5.373179 -1.528583,10.328037 -1.041901,13.2103 0.943003,5.586764 5.832389,7.707558 10.847135,5.107419 3.086231,-1.600767 4.371907,-5.035782 4.303806,-8.764417 -0.0707,-3.861297 -7.389169,-8.236872 -8.685256,-11.458745 -0.864058,-2.14821 -1.267892,-4.064707 -1.211935,-5.749051 z"
     id="path9" />
  <path
     style="opacity:0.29844245;fill:#ffffff;fill-opacity:0.95725"
     d="m 31.328043,29.486295 c -0.375035,0.368436 -0.74233,0.803018 -1.099841,1.312788 -1.28394,1.831154 -1.937511,2.929971 -1.453432,6.559998 0.322722,2.420163 0.554269,4.645649 0.693505,6.678444 l 2.316895,-6.86796 c -0.02449,-0.174678 -0.04879,-0.352341 -0.06447,-0.507348 -0.110584,-1.095941 0.392768,-2.881842 0.875184,-3.405354 -0.116691,-0.197984 -0.216646,-0.392489 -0.293029,-0.582365 -0.453436,-1.127322 -0.774797,-2.188566 -0.974815,-3.188203 z"
     id="path10" />
  <path
     style="fill:#ffffff;fill-opacity:0.95725;opacity:0.29844245"
     d="m 35.878859,36.999301 c 2.264248,2.960532 2.757871,5.021629 1.480437,6.182848 -1.915502,1.741827 -6.600587,2.878284 -9.515046,0.771199 -1.943262,-1.404871 -2.678491,-4.418027 -2.20569,-9.040351 a 40.717419,41.509373 0 0 0 -2.034352,5.189667 c -0.55435,1.751998 -0.716579,3.585363 -0.485815,5.500091 0.69489,1.432729 2.383533,2.389209 5.066362,2.870324 4.025329,0.721672 7.833777,0.364816 10.389947,-0.948521 1.704258,-0.875556 2.510192,-1.747576 2.418235,-2.615173 0.06116,-1.281499 -0.326191,-2.501086 -1.162922,-3.659652 -0.837164,-1.158567 -2.154071,-2.574936 -3.95159,-4.250876 z"
     id="path11" />
  <path
     style="fill:#ffffff;fill-opacity:0.95725;opacity:0.29844245"
     d="m 32.400534,32.89165 c -0.493845,0.681885 -0.909498,1.581865 -1.244403,2.704544 -0.57734,1.936838 -1.105008,4.644705 -1.584317,8.123499 0.639369,-2.212773 1.063112,-3.816215 1.271753,-4.808953 0.313176,-1.488448 0.420256,-3.592967 1.252216,-5.022159 0.152255,-0.261732 0.301142,-0.503119 0.445406,-0.728451 -0.05095,-0.0906 -0.09805,-0.179551 -0.140655,-0.26848 z"
     id="path12" />
  <path
     style="fill:#ffffff;fill-opacity:0.95725;opacity:0.29844245"
     d="m 27.030075,34.043189 c -0.01908,2.13804 0.520083,4.170394 1.617506,6.097945 1.646135,2.890223 3.567708,5.745957 6.443128,8.113498 1.917238,1.578658 3.448857,2.088072 4.595297,1.530014 -0.941269,1.717949 -1.943262,2.559899 -3.003816,2.525407 -1.591481,-0.05129 -3.531706,-0.760584 -6.640924,-4.569258 -2.072525,-2.539116 -3.4905,-4.941149 -4.25349,-7.205659 0.121024,-0.898551 0.249414,-1.793124 0.384749,-2.684159 0.135765,-0.891474 0.421617,-2.160591 0.857116,-3.807788 z"
     id="path13" />
  <path
     style="opacity:0.29844245;fill:#ffffff;fill-opacity:0.95725"
     d="m 32.593934,33.258837 c -0.481796,0.526323 -0.983648,2.30898 -0.873231,3.40338 0.176108,1.742272 1.012546,4.843155 0.17191,6.698186 -0.840632,1.855032 -4.722553,5.206461 -3.651157,8.159033 1.072265,2.95169 3.682672,2.288487 5.321431,0.927835 1.638762,-1.360651 2.517183,-3.573099 2.711509,-5.12876 0.194326,-1.555663 -0.465118,-4.548112 -0.679831,-7.152233 -0.104593,-1.268206 -0.07956,-2.4032 0.07228,-3.407329 -1.271117,-1.239216 -2.442883,-2.423337 -3.072914,-3.500112 z"
     id="path14" />
</svg>
