<?xml version="1.0" encoding="UTF-8" standalone="no"?>
<svg
   width="64"
   height="64"
   version="1.1"
   id="svg6"
   sodipodi:docname="text-x-readme.svg"
   inkscape:version="1.4 (e7c3feb100, 2024-10-09)"
   xmlns:inkscape="http://www.inkscape.org/namespaces/inkscape"
   xmlns:sodipodi="http://sodipodi.sourceforge.net/DTD/sodipodi-0.dtd"
   xmlns:xlink="http://www.w3.org/1999/xlink"
   xmlns="http://www.w3.org/2000/svg"
   xmlns:svg="http://www.w3.org/2000/svg">
  <defs
     id="defs6">
    <inkscape:path-effect
       effect="fillet_chamfer"
       id="path-effect6"
       is_visible="true"
       lpeversion="1"
       nodesatellites_param="F,0,1,1,0,1.9998358,0,1 @ F,0,0,1,0,1.9998358,0,1 @ F,0,1,1,0,1.9998358,0,1 @ F,0,1,1,0,1.9998358,0,1 | F,0,1,1,0,1.9998358,0,1 @ F,0,1,1,0,1.9998358,0,1 @ F,0,1,1,0,1.9998358,0,1 @ F,0,1,1,0,1.9998358,0,1"
       radius="0"
       unit="px"
       method="auto"
       mode="F"
       chamfer_steps="1"
       flexible="false"
       use_knot_distance="true"
       apply_no_radius="true"
       apply_with_radius="true"
       only_selected="false"
       hide_knots="false" />
    <radialGradient
       inkscape:collect="always"
       xlink:href="#linearGradient4"
       id="radialGradient15"
       cx="17.386076"
       cy="47.039314"
       fx="17.386076"
       fy="47.039314"
       r="22"
       gradientTransform="matrix(2.0221847,-2.0221847,2.5736897,2.5736897,-138.00161,-36.688012)"
       gradientUnits="userSpaceOnUse" />
    <linearGradient
       id="linearGradient4"
       inkscape:collect="always">
      <stop
         style="stop-color:#ff4f54;stop-opacity:1;"
         offset="0"
         id="stop3" />
      <stop
         style="stop-color:#fa7e6a;stop-opacity:1;"
         offset="1"
         id="stop4" />
    </linearGradient>
  </defs>
  <sodipodi:namedview
     id="namedview6"
     pagecolor="#ffffff"
     bordercolor="#000000"
     borderopacity="0.25"
     inkscape:showpageshadow="2"
     inkscape:pageopacity="0.0"
     inkscape:pagecheckerboard="0"
     inkscape:deskcolor="#d1d1d1"
     inkscape:zoom="13.09375"
     inkscape:cx="27.494033"
     inkscape:cy="44.21957"
     inkscape:window-width="1920"
     inkscape:window-height="1014"
     inkscape:window-x="0"
     inkscape:window-y="0"
     inkscape:window-maximized="1"
     inkscape:current-layer="svg6" />
  <g
     id="g1">
    <g
       id="g2">
      <path
         style="fill:url(#radialGradient15)"
         d="M 12.75,4 C 11.2265,4 10,5.2488 10,6.8 v 50.4 c 0,1.55008 1.2265,2.8 2.75,2.8 h 38.5 C 52.7724,60 54,58.75008 54,57.2 V 22 L 36,4 Z"
         id="path2"
         sodipodi:nodetypes="ssssssccs" />
      <path
         style="opacity:0.457139;fill:#ffffff;fill-opacity:1"
         d="M 54,22 36,4 V 19.1875 C 36,20.74675 37.2555,22 38.8125,22 Z"
         id="path4" />
    </g>
  </g>
  <path
     style="fill:#ffffff;fill-opacity:1"
     d="M 30,29.999836 V 44.000164 A 1.9998358,1.9998358 45 0 0 31.999836,46 h 3.28e-4 A 1.9998358,1.9998358 135 0 0 34,44.000164 V 29.999836 A 1.9998358,1.9998358 45 0 0 32.000164,28 h -3.28e-4 A 1.9998358,1.9998358 135 0 0 30,29.999836 Z m 0,22 v 3.28e-4 A 1.9998358,1.9998358 45 0 0 31.999836,54 h 3.28e-4 A 1.9998358,1.9998358 135 0 0 34,52.000164 v -3.28e-4 A 1.9998358,1.9998358 45 0 0 32.000164,50 h -3.28e-4 A 1.9998358,1.9998358 135 0 0 30,51.999836 Z"
     id="path6"
     inkscape:path-effect="#path-effect6"
     inkscape:original-d="m 30,28 v 18 h 4 V 28 Z m 0,22 v 4 h 4 v -4 z"
     transform="matrix(1.1938682,0,0,1.1938682,-6.2037819,-11.308977)" />
</svg>
