<?xml version="1.0" encoding="UTF-8" standalone="no"?>
<svg
   width="64"
   height="64"
   version="1"
   id="svg7"
   sodipodi:docname="text-x-vala.svg"
   inkscape:version="1.3.2 (091e20ef0f, 2023-11-25, custom)"
   xmlns:inkscape="http://www.inkscape.org/namespaces/inkscape"
   xmlns:sodipodi="http://sodipodi.sourceforge.net/DTD/sodipodi-0.dtd"
   xmlns:xlink="http://www.w3.org/1999/xlink"
   xmlns="http://www.w3.org/2000/svg"
   xmlns:svg="http://www.w3.org/2000/svg">
  <defs
     id="defs7">
    <radialGradient
       inkscape:collect="always"
       xlink:href="#linearGradient9"
       id="radialGradient10"
       cx="13.687016"
       cy="51.762657"
       fx="13.687016"
       fy="51.762657"
       r="22"
       gradientTransform="matrix(2.2102385,-1.2760818,1.6241041,2.8130308,-100.6325,-70.991724)"
       gradientUnits="userSpaceOnUse" />
    <linearGradient
       id="linearGradient9"
       inkscape:collect="always">
      <stop
         style="stop-color:#a660ff;stop-opacity:1;"
         offset="0"
         id="stop9" />
      <stop
         style="stop-color:#c673ff;stop-opacity:1;"
         offset="1"
         id="stop10" />
    </linearGradient>
  </defs>
  <sodipodi:namedview
     id="namedview7"
     pagecolor="#ffffff"
     bordercolor="#000000"
     borderopacity="0.25"
     inkscape:showpageshadow="2"
     inkscape:pageopacity="0.0"
     inkscape:pagecheckerboard="0"
     inkscape:deskcolor="#d1d1d1"
     inkscape:zoom="13.09375"
     inkscape:cx="31.961814"
     inkscape:cy="31.389021"
     inkscape:window-width="1920"
     inkscape:window-height="1014"
     inkscape:window-x="0"
     inkscape:window-y="0"
     inkscape:window-maximized="1"
     inkscape:current-layer="svg7" />
  <g
     id="g1">
    <path
       style="fill:url(#radialGradient10)"
       d="m 12.75,4.0000002 c -1.5235,0 -2.75,1.2488002 -2.75,2.8000002 V 57.2 c 0,1.550081 1.2265,2.8 2.75,2.8 h 38.5 C 52.7724,60 54,58.75008 54,57.2 V 22 L 36,4.0000002 Z"
       id="path2"
       sodipodi:nodetypes="ssssssccs" />
    <path
       style="opacity:0.523832;fill:#ffffff;fill-opacity:1"
       d="M 54,22 36,4.0000002 V 19.187501 C 36,20.746751 37.2555,22 38.8125,22 Z"
       id="path4" />
  </g>
  <path
     style="fill:#ffffff"
     d="m 27.500412,53.999176 -8.21e-4,-25.188418 c -1.751004,0.655798 -2.429145,1.288882 -3.409573,2.688188 -0.977107,1.39457 -1.106677,3.921162 -1.106677,5.998314 0,0.473602 0.02443,0.862416 0.07332,1.166444 0.06043,0.291404 0.121096,0.528204 0.182068,0.710402 0.06097,0.17012 0.115893,0.303752 0.164763,0.400886 0.06043,0.09714 0.09062,0.1822 0.09062,0.255186 -0.644267,0 -1.215485,-0.06064 -1.713656,-0.18192 -0.498693,-0.1339 -0.91832,-0.34052 -1.258855,-0.619854 -0.328447,-0.278784 -0.583847,-0.649214 -0.7662,-1.111292 -0.170269,-0.460978 -0.2554,-1.031714 -0.2554,-1.71221 0,-0.825922 0.231578,-2.317186 0.528103,-3.140754 1.283179,-3.563904 5.647498,-5.8588 9.025906,-6.868598 1.042506,-0.311602 2.109665,-0.3836 3.155436,-0.3836 0.393518,-0.04942 1.260545,0.07028 1.290555,0.07244 v 22.958422 l 8.39243,-22.849772 h 2.607568 L 34.124132,54 h -6.62454 z"
     id="path6" />
</svg>
