<?xml version="1.0" encoding="UTF-8" standalone="no"?>
<svg
   width="64"
   height="64"
   version="1.1"
   id="svg6"
   sodipodi:docname="application-octet-stream.svg"
   inkscape:version="1.3.2 (091e20ef0f, 2023-11-25, custom)"
   xmlns:inkscape="http://www.inkscape.org/namespaces/inkscape"
   xmlns:sodipodi="http://sodipodi.sourceforge.net/DTD/sodipodi-0.dtd"
   xmlns:xlink="http://www.w3.org/1999/xlink"
   xmlns="http://www.w3.org/2000/svg"
   xmlns:svg="http://www.w3.org/2000/svg">
  <defs
     id="defs6">
    <inkscape:path-effect
       effect="fillet_chamfer"
       id="path-effect1"
       is_visible="true"
       lpeversion="1"
       nodesatellites_param="F,0,0,1,0,0,0,1 @ F,0,0,1,0,2.0994278,0,1 @ F,0,0,1,0,2.0994278,0,1 @ F,0,0,1,0,0,0,1 @ F,0,0,1,0,0,0,1 @ F,0,1,1,0,1.9886837,0,1 @ F,0,0,1,0,1.9886837,0,1 @ F,0,0,1,0,0,0,1 | F,0,1,1,0,1.9886837,0,1 @ F,0,1,1,0,1.9886837,0,1 @ F,0,1,1,0,1.9886837,0,1 @ F,0,1,1,0,1.9886837,0,1"
       radius="0"
       unit="px"
       method="auto"
       mode="F"
       chamfer_steps="1"
       flexible="false"
       use_knot_distance="true"
       apply_no_radius="true"
       apply_with_radius="true"
       only_selected="false"
       hide_knots="false" />
    <radialGradient
       inkscape:collect="always"
       xlink:href="#linearGradient8"
       id="radialGradient9"
       cx="21.477476"
       cy="23.351734"
       fx="21.477476"
       fy="23.351734"
       r="22"
       gradientTransform="matrix(5.2437612,-5.1735227e-8,0,4.286547,-89.168663,-62.97246)"
       gradientUnits="userSpaceOnUse" />
    <linearGradient
       id="linearGradient8"
       inkscape:collect="always">
      <stop
         style="stop-color:#ededed;stop-opacity:1;"
         offset="0"
         id="stop8" />
      <stop
         style="stop-color:#b7b7b7;stop-opacity:1;"
         offset="1"
         id="stop9" />
    </linearGradient>
  </defs>
  <sodipodi:namedview
     id="namedview6"
     pagecolor="#ffffff"
     bordercolor="#000000"
     borderopacity="0.25"
     inkscape:showpageshadow="2"
     inkscape:pageopacity="0.0"
     inkscape:pagecheckerboard="0"
     inkscape:deskcolor="#d1d1d1"
     inkscape:zoom="13.890625"
     inkscape:cx="32"
     inkscape:cy="32.035996"
     inkscape:window-width="1920"
     inkscape:window-height="1014"
     inkscape:window-x="0"
     inkscape:window-y="0"
     inkscape:window-maximized="1"
     inkscape:current-layer="svg6" />
  <g
     id="g1"
     transform="translate(-4,8)">
    <path
       style="fill:url(#radialGradient9);fill-opacity:1"
       d="M 16.75,-4 C 15.2265,-4 14,-2.7512 14,-1.2 v 50.4 c 0,1.5512 1.2265,2.8 2.75,2.8 h 38.5 C 56.7735,52 58,50.7512 58,49.2 V 12 L 42,-4 Z"
       id="path2"
       sodipodi:nodetypes="ssssssccs" />
    <path
       style="opacity:0.593376;fill:#ffffff;fill-opacity:1"
       d="M 42,-4 V 9.333333 C 42,10.806133 43.193906,12 44.666666,12 H 58 Z"
       id="path4" />
  </g>
  <path
     style="opacity:0.5"
     d="m 32,28 c -3.290935,0.0028 -6.363284,2.763021 -7.532006,5.959406 C 24.070934,35.04534 24.939946,36 26.099428,36 27.149103,36 28.126882,35.043155 28.637766,34.005842 29.202909,32.858362 30.189741,31.880209 32,32 c 1.932996,0 4,2.067004 4,4 0,3.144458 -4.842913,4.65034 -5.826833,10.021754 C 29.975558,47.100538 30.890364,48 31.988684,48 h 0.02263 c 1.09832,0 1.899385,-0.917688 2.206773,-1.966007 C 35.310615,42.308032 39.900307,39.730455 40,36 40,31.747408 37.074856,28 32,28 Z m -2,23.988684 v 0.02263 A 1.9886837,1.9886837 45 0 0 31.988684,54 h 0.02263 A 1.9886837,1.9886837 135 0 0 34,52.011316 v -0.02263 A 1.9886837,1.9886837 45 0 0 32.011316,50 h -0.02263 A 1.9886837,1.9886837 135 0 0 30,51.988684 Z"
     id="path6"
     inkscape:path-effect="#path-effect1"
     inkscape:original-d="m 32,28 c -3.978906,0.0034 -7.638282,4.03757 -8,8 h 4 c 0.332606,-1.62943 1.135198,-4.189574 4,-4 1.932996,0 4,2.067004 4,4 0,3.5 -6,4.96993 -6,12 h 4 c -0.341168,-4.866068 5.883718,-7.648794 6,-12 0,-4.252592 -2.925144,-8 -8,-8 z m -2,22 v 4 h 4 v -4 z" />
</svg>
