<?xml version="1.0" encoding="UTF-8" standalone="no"?>
<svg
   width="64"
   height="64"
   version="1"
   id="svg9"
   sodipodi:docname="x-package-repository.svg"
   inkscape:version="1.4 (e7c3feb100, 2024-10-09)"
   xmlns:inkscape="http://www.inkscape.org/namespaces/inkscape"
   xmlns:sodipodi="http://sodipodi.sourceforge.net/DTD/sodipodi-0.dtd"
   xmlns:xlink="http://www.w3.org/1999/xlink"
   xmlns="http://www.w3.org/2000/svg"
   xmlns:svg="http://www.w3.org/2000/svg">
  <defs
     id="defs9">
    <linearGradient
       id="linearGradient2"
       inkscape:collect="always">
      <stop
         style="stop-color:#ff8447;stop-opacity:1;"
         offset="0"
         id="stop2" />
      <stop
         style="stop-color:#ff47da;stop-opacity:1;"
         offset="1"
         id="stop3" />
    </linearGradient>
    <radialGradient
       inkscape:collect="always"
       xlink:href="#linearGradient31"
       id="radialGradient33-3"
       cx="0.12227973"
       cy="38.478138"
       fx="0.12227973"
       fy="38.478138"
       r="22.291637"
       gradientTransform="matrix(3.480846,2.0096673,-2.3354833,4.0451758,65.049146,-114.63659)"
       gradientUnits="userSpaceOnUse" />
    <linearGradient
       id="linearGradient31"
       inkscape:collect="always">
      <stop
         style="stop-color:#ff7061;stop-opacity:1;"
         offset="0"
         id="stop32" />
      <stop
         style="stop-color:#ff8300;stop-opacity:1;"
         offset="0.99884099"
         id="stop33" />
    </linearGradient>
    <inkscape:path-effect
       effect="fillet_chamfer"
       id="path-effect33-5-91"
       is_visible="true"
       lpeversion="1"
       nodesatellites_param="F,0,0,1,0,5.4161913,0,1 @ F,0,0,1,0,5.0201459,0,1 @ F,0,0,1,0,4.5562612,0,1 @ F,0,0,1,0,4.8044969,0,1 @ F,0,0,1,0,4.8694015,0,1 @ F,0,0,1,0,4.5176611,0,1"
       radius="0"
       unit="px"
       method="auto"
       mode="F"
       chamfer_steps="1"
       flexible="false"
       use_knot_distance="true"
       apply_no_radius="true"
       apply_with_radius="true"
       only_selected="false"
       hide_knots="false" />
    <inkscape:path-effect
       effect="fillet_chamfer"
       id="path-effect33-5-9-2"
       is_visible="true"
       lpeversion="1"
       nodesatellites_param="F,0,0,1,0,5.4161913,0,1 @ F,0,0,1,0,5.0201459,0,1 @ F,0,0,1,0,4.5562612,0,1 @ F,0,0,1,0,4.8044969,0,1 @ F,0,0,1,0,4.8694015,0,1 @ F,0,0,1,0,4.5176611,0,1"
       radius="0"
       unit="px"
       method="auto"
       mode="F"
       chamfer_steps="1"
       flexible="false"
       use_knot_distance="true"
       apply_no_radius="true"
       apply_with_radius="true"
       only_selected="false"
       hide_knots="false" />
    <linearGradient
       inkscape:collect="always"
       xlink:href="#linearGradient2"
       id="linearGradient3"
       x1="13.923828"
       y1="32"
       x2="50.076172"
       y2="32"
       gradientUnits="userSpaceOnUse" />
  </defs>
  <sodipodi:namedview
     id="namedview9"
     pagecolor="#ffffff"
     bordercolor="#000000"
     borderopacity="0.25"
     inkscape:showpageshadow="2"
     inkscape:pageopacity="0.0"
     inkscape:pagecheckerboard="0"
     inkscape:deskcolor="#d1d1d1"
     inkscape:zoom="17.8125"
     inkscape:cx="44.182456"
     inkscape:cy="26.778947"
     inkscape:current-layer="svg9" />
  <path
     sodipodi:type="star"
     style="fill:url(#radialGradient33-3);fill-opacity:1;stroke:#ffffff;stroke-width:0;stroke-dasharray:none"
     id="path13-3"
     inkscape:flatsided="true"
     sodipodi:sides="6"
     sodipodi:cx="26.006084"
     sodipodi:cy="25.124659"
     sodipodi:r1="25.740166"
     sodipodi:r2="22.291637"
     sodipodi:arg1="0.52359878"
     sodipodi:arg2="1.0471976"
     inkscape:rounded="0"
     inkscape:randomized="0"
     transform="matrix(1.1656015,0,0,1.1656015,1.687269,2.7382007)"
     d="m 43.607163,40.702837 -13.253505,7.651914 a 8.6951478,8.6951478 2.5219888e-7 0 1 -8.695148,0 L 7.6602849,40.272872 A 7.8916759,7.8916759 60 0 1 3.714447,33.43848 l 1e-7,-16.379407 A 8.3216327,8.3216327 120 0 1 7.8752635,9.8523272 L 21.789059,1.8191936 a 8.4340508,8.4340508 2.5219889e-7 0 1 8.434051,0 l 14.162203,8.1765517 a 7.8248186,7.8248186 60 0 1 3.912409,6.7764917 l 0,15.806313 a 9.3811185,9.3811185 120 0 1 -4.690559,8.124287 z"
     inkscape:path-effect="#path-effect33-5-91" />
  <path
     id="path13-3-1-3"
     style="opacity:0.694233;fill:url(#linearGradient3);fill-opacity:1;stroke:#ffffff;stroke-width:0;stroke-dasharray:none"
     d="m 31.285155,12.239785 c -0.953323,0.100156 -1.874944,0.399599 -2.705078,0.878906 l -11.281249,6.513672 c -2.088191,1.2051 -3.374761,3.432773 -3.375,5.843749 v 13.281251 c 2.23e-4,2.285831 1.219708,4.397966 3.199219,5.541015 l 11.351561,6.554688 c 2.181515,1.259517 4.869267,1.259517 7.050782,0 l 10.746094,-6.205079 c 2.354091,-1.358555 3.804468,-3.86991 3.804688,-6.58789 V 25.243691 C 50.07632,22.97615 48.866369,20.880888 46.902344,19.747597 L 35.41992,13.118691 c -1.25086,-0.722252 -2.698279,-1.029922 -4.134765,-0.878906 z"
     sodipodi:nodetypes="cccccccccccccc" />
  <path
     id="path13-3-1"
     style="opacity:1;fill:#ffffff;fill-opacity:1;stroke:#ffffff;stroke-width:0;stroke-dasharray:none"
     d="m 31.285156,12.239781 a 6.8389839,6.8389839 0 0 0 -2.705078,0.878907 l -11.28125,6.513671 a 6.7478266,6.7478266 0 0 0 -3.375,5.84375 V 38.75736 a 6.3991842,6.3991842 0 0 0 3.199219,5.541015 l 11.351562,6.554688 a 7.0507016,7.0507016 0 0 0 7.050782,0 l 10.746093,-6.205079 a 7.60694,7.60694 0 0 0 3.804688,-6.58789 V 25.243688 A 6.3449711,6.3449711 0 0 0 46.902344,19.747594 L 35.419921,13.118688 a 6.8389839,6.8389839 0 0 0 -4.134765,-0.878907 z m -0.791015,7.179688 h 2.666015 a 1.5818482,1.5818482 0 0 1 1.371094,0.791015 l 1.291015,2.234376 a 1.4661795,1.4661795 0 0 1 -0.002,1.464843 l -1.361328,2.361329 A 1.3306977,1.3306977 0 0 1 33.30664,26.937047 H 30.544922 A 1.4031972,1.4031972 0 0 1 29.972656,26.814 1.4031972,1.4031972 0 0 1 29.328125,26.233922 l -1.353516,-2.345703 a 1.4221532,1.4221532 0 0 1 0,-1.421875 l 1.378907,-2.386719 a 1.3194242,1.3194242 0 0 1 1.140625,-0.660156 z m 7.677734,4.283203 h 2.666016 a 1.5818482,1.5818482 0 0 1 1.36914,0.791015 l 1.291016,2.234375 a 1.4661795,1.4661795 0 0 1 0,1.466797 l -1.361329,2.359375 a 1.3306977,1.3306977 0 0 1 -1.154296,0.666016 h -2.761719 a 1.4031972,1.4031972 0 0 1 -0.570312,-0.121094 1.4031972,1.4031972 0 0 1 -0.644532,-0.582031 l -1.355468,-2.345703 a 1.4221532,1.4221532 0 0 1 0,-1.421875 l 1.378906,-2.388672 a 1.3194242,1.3194242 0 0 1 1.142578,-0.658203 z m -15.154297,0.103516 h 2.666015 a 1.5818482,1.5818482 0 0 1 1.369141,0.791015 l 1.291016,2.234375 a 1.4661795,1.4661795 0 0 1 0,1.466797 l -1.363282,2.361329 a 1.3306977,1.3306977 0 0 1 -1.152343,0.664061 l -2.761719,0.002 A 1.4031972,1.4031972 0 0 1 22.496094,31.202718 1.4031972,1.4031972 0 0 1 21.851562,30.62264 l -1.355468,-2.345703 a 1.4221532,1.4221532 0 0 1 0,-1.421875 L 21.875,24.466344 a 1.3194242,1.3194242 0 0 1 1.142578,-0.660156 z m 7.478515,4.433593 2.664063,0.002 a 1.5818482,1.5818482 0 0 1 1.371094,0.791016 l 1.291015,2.234375 a 1.4661795,1.4661795 0 0 1 -0.002,1.466797 l -1.363281,2.359375 a 1.3306977,1.3306977 0 0 1 -1.150391,0.664062 l -2.761718,0.002 A 1.4031972,1.4031972 0 0 1 29.972656,35.636265 1.4031972,1.4031972 0 0 1 29.328125,35.05814 l -1.353516,-2.345703 a 1.4221532,1.4221532 0 0 1 0,-1.423827 l 1.378907,-2.386719 a 1.3194242,1.3194242 0 0 1 1.142577,-0.66211 z m 7.677735,4.283204 2.664063,0.002 a 1.5818482,1.5818482 0 0 1 1.36914,0.791016 l 1.291016,2.234376 a 1.4661795,1.4661795 0 0 1 0,1.466796 l -1.363281,2.359375 a 1.3306977,1.3306977 0 0 1 -1.152344,0.666016 H 38.220703 A 1.4031972,1.4031972 0 0 1 37.650391,39.92147 1.4031972,1.4031972 0 0 1 37.005859,39.341392 l -1.355468,-2.347656 a 1.4221532,1.4221532 0 0 1 0,-1.421875 l 1.378906,-2.388672 a 1.3194242,1.3194242 0 0 1 1.144531,-0.660156 z m -15.15625,0.105468 h 2.666015 a 1.5818482,1.5818482 0 0 1 1.369141,0.791016 l 1.291016,2.234375 a 1.4661795,1.4661795 0 0 1 0,1.466797 l -1.363282,2.361328 a 1.3306977,1.3306977 0 0 1 -1.152343,0.664063 H 23.066406 A 1.4031972,1.4031972 0 0 1 22.496094,40.024937 1.4031972,1.4031972 0 0 1 21.851562,39.44486 l -1.353515,-2.345704 a 1.4221532,1.4221532 0 0 1 -0.002,-1.423827 L 21.875,33.286656 a 1.3194242,1.3194242 0 0 1 1.142578,-0.658203 z m 10.142578,4.433594 a 1.5818482,1.5818482 0 0 1 1.371094,0.791015 l 1.291015,2.236329 a 1.4661795,1.4661795 0 0 1 -0.002,1.464843 l -1.363281,2.361329 a 1.3306977,1.3306977 0 0 1 -1.150391,0.664062 H 30.544875 A 1.4031972,1.4031972 0 0 1 29.972609,44.458531 1.4031972,1.4031972 0 0 1 29.330031,43.878453 L 27.974562,41.53275 a 1.4221532,1.4221532 0 0 1 0,-1.421875 l 1.378907,-2.386719 A 1.3194242,1.3194242 0 0 1 30.496046,37.064 Z" />
</svg>
