<?xml version="1.0" encoding="UTF-8" standalone="no"?>
<!-- Generator: Adobe Illustrator 25.2.1, SVG Export Plug-In . SVG Version: 6.00 Build 0)  -->

<svg
   version="1.1"
   id="Layer_1"
   x="0px"
   y="0px"
   viewBox="0 0 64 64"
   style="enable-background:new 0 0 64 64;"
   xml:space="preserve"
   sodipodi:docname="folder-blue-development.svg"
   inkscape:version="1.3.2 (091e20ef0f, 2023-11-25, custom)"
   xmlns:inkscape="http://www.inkscape.org/namespaces/inkscape"
   xmlns:sodipodi="http://sodipodi.sourceforge.net/DTD/sodipodi-0.dtd"
   xmlns="http://www.w3.org/2000/svg"
   xmlns:svg="http://www.w3.org/2000/svg"><defs
   id="defs14"><radialGradient
     id="SVGID_6_-3"
     cx="32"
     cy="39"
     r="40.048599"
     fx="14.0678"
     fy="24.8514"
     gradientUnits="userSpaceOnUse"
     gradientTransform="translate(4.209578e-7,0.19628996)">
	<stop
   offset="0"
   style="stop-color:#00F0F4"
   id="stop11-6" />
	<stop
   offset="1"
   style="stop-color:#1598FF"
   id="stop12-7" />
</radialGradient><radialGradient
     id="SVGID_4_-5"
     cx="25.213699"
     cy="25.563499"
     r="32.348301"
     fx="16.568701"
     fy="17.644699"
     gradientUnits="userSpaceOnUse"
     gradientTransform="translate(4.209578e-7,0.19628996)">
	<stop
   offset="0"
   style="stop-color:#FFFFFF"
   id="stop7-3" />
	<stop
   offset="1"
   style="stop-color:#B7B7B7"
   id="stop8-5" />
</radialGradient><radialGradient
     id="SVGID_2_-6"
     cx="28.128099"
     cy="25.073299"
     r="40.0504"
     fx="5.4853001"
     fy="7.4745002"
     gradientUnits="userSpaceOnUse"
     gradientTransform="translate(4.209578e-7,0.19628996)">
	<stop
   offset="0"
   style="stop-color:#15C7FF"
   id="stop3-2" />
	<stop
   offset="1"
   style="stop-color:#005A9E"
   id="stop4-9" />
</radialGradient></defs><sodipodi:namedview
   id="namedview14"
   pagecolor="#ffffff"
   bordercolor="#000000"
   borderopacity="0.25"
   inkscape:showpageshadow="2"
   inkscape:pageopacity="0.0"
   inkscape:pagecheckerboard="0"
   inkscape:deskcolor="#d1d1d1"
   inkscape:zoom="6.9453125"
   inkscape:cx="19.797525"
   inkscape:cy="45.498313"
   inkscape:window-width="1920"
   inkscape:window-height="1020"
   inkscape:window-x="0"
   inkscape:window-y="0"
   inkscape:window-maximized="1"
   inkscape:current-layer="Layer_1" />
<style
   type="text/css"
   id="style1">
	.st0{opacity:0.15;fill:url(#SVGID_1_);}
	.st1{fill:url(#SVGID_2_);}
	.st2{opacity:0.34;fill:url(#SVGID_3_);}
	.st3{fill:url(#SVGID_4_);}
	.st4{opacity:0.12;fill:url(#SVGID_5_);}
	.st5{fill:url(#SVGID_6_);}
	.st6{fill:url(#SVGID_7_);}
</style>
<radialGradient
   id="SVGID_1_"
   cx="28.1281"
   cy="24.4864"
   r="40.0504"
   fx="5.4853"
   fy="6.8876"
   gradientUnits="userSpaceOnUse">
	<stop
   offset="0"
   style="stop-color:#000000"
   id="stop1" />
	<stop
   offset="1"
   style="stop-color:#545454"
   id="stop2" />
</radialGradient>

<radialGradient
   id="SVGID_2_"
   cx="28.1281"
   cy="25.0733"
   r="40.0504"
   fx="5.4853"
   fy="7.4745"
   gradientUnits="userSpaceOnUse">
	<stop
   offset="0"
   style="stop-color:#15C7FF"
   id="stop3" />
	<stop
   offset="1"
   style="stop-color:#005A9E"
   id="stop4" />
</radialGradient>

<linearGradient
   id="SVGID_3_"
   gradientUnits="userSpaceOnUse"
   x1="8"
   y1="26.7181"
   x2="56"
   y2="26.7181">
	<stop
   offset="0"
   style="stop-color:#000000"
   id="stop5" />
	<stop
   offset="1"
   style="stop-color:#404040"
   id="stop6" />
</linearGradient>

<radialGradient
   id="SVGID_4_"
   cx="25.2137"
   cy="25.5635"
   r="32.3483"
   fx="16.5687"
   fy="17.6447"
   gradientUnits="userSpaceOnUse">
	<stop
   offset="0"
   style="stop-color:#FFFFFF"
   id="stop7" />
	<stop
   offset="1"
   style="stop-color:#B7B7B7"
   id="stop8" />
</radialGradient>

<radialGradient
   id="SVGID_5_"
   cx="32"
   cy="38.1714"
   r="40.0486"
   fx="14.0678"
   fy="24.0229"
   gradientUnits="userSpaceOnUse">
	<stop
   offset="0"
   style="stop-color:#000000"
   id="stop9" />
	<stop
   offset="1"
   style="stop-color:#545454"
   id="stop10" />
</radialGradient>

<radialGradient
   id="SVGID_6_"
   cx="32"
   cy="39"
   r="40.0486"
   fx="14.0678"
   fy="24.8514"
   gradientUnits="userSpaceOnUse">
	<stop
   offset="0"
   style="stop-color:#00F0F4"
   id="stop11" />
	<stop
   offset="1"
   style="stop-color:#1598FF"
   id="stop12" />
</radialGradient>

<linearGradient
   id="SVGID_7_"
   gradientUnits="userSpaceOnUse"
   x1="37.5095"
   y1="38.7642"
   x2="60.2135"
   y2="51.9425">
	<stop
   offset="0"
   style="stop-color:#15C7FF"
   id="stop13" />
	<stop
   offset="1"
   style="stop-color:#005A9E"
   id="stop14" />
</linearGradient>
<path
   d="m 11.599609,6.7958994 c -4.1999908,0 -7.5996086,3.3996176 -7.5996086,7.5996096 V 30.19629 c 0,-4.999985 4.000015,-9 8.9999996,-9 h 38 c 4.564943,0 8.28562,3.337322 8.900391,7.722656 v -8.523437 c 0,-4.199992 -3.399618,-7.59961 -7.59961,-7.59961 H 32 c -4.199992,0 -5.60079,-5.9999996 -9.800781,-5.9999996 z"
   style="fill:url(#SVGID_2_-6)"
   id="path17" /><path
   d="m 11.400391,16.795899 c -1.8999947,0 -3.4003906,1.500397 -3.4003906,3.400391 v 2.501953 C 9.4270037,21.749317 11.143947,21.19629 13,21.19629 h 38 c 1.856053,0 3.572997,0.553027 5,1.501953 V 20.19629 c 0,-1.899994 -1.500396,-3.400391 -3.400391,-3.400391 z"
   style="fill:url(#SVGID_4_-5)"
   id="path15" /><path
   d="m 13,21.19629 c -4.9999896,0 -8.9999996,4.00001 -8.9999996,9 v 18 c 0,4.99999 4.00001,9 8.9999996,9 h 38 c 4.99999,0 9,-4.00001 9,-9 v -18 c 0,-4.99999 -4.00001,-9 -9,-9 z"
   style="fill:url(#SVGID_6_-3)"
   id="path16" /><path
   class="st6"
   d="m 50.450956,33.762376 c 0.468731,-0.117183 0.937463,-0.117183 1.406194,-0.117183 l -1.64056,2.695206 c -0.351549,0.585914 -0.117183,1.289012 0.351548,1.523377 l 1.054646,0.585915 c 0.585915,0.351548 1.289012,0.117183 1.640561,-0.468732 l 1.64056,-2.695206 c 0.234366,0.351549 0.468732,0.82028 0.585914,1.289012 0.585915,2.226474 -0.703097,4.452949 -2.929572,4.921681 -0.234365,0.117183 -0.468731,0.117183 -0.703097,0.117183 -0.468731,0 -0.82028,0.234365 -1.054646,0.585914 v 0 c -0.351548,0.468731 -0.82028,0.703097 -1.406194,0.703097 h -3.163938 c 0,0 0.82028,-1.523377 1.406194,-2.343657 0.234366,-0.468732 0.234366,-0.937463 0.117183,-1.406195 -0.117183,0 -0.234365,-0.234366 -0.234365,-0.468731 -0.585915,-2.109292 0.703097,-4.335767 2.929572,-4.921681 z m -9.374631,0.703097 c -0.234366,0 -0.585914,0.117183 -0.82028,0.234366 0,0.703097 0.117183,1.64056 -0.234366,1.992109 -0.234365,0.234365 -1.171829,0 -1.992109,0 -0.117183,0.234365 -0.234365,0.585914 -0.351548,0.937463 0.585914,0.468731 1.289011,0.937463 1.289011,1.406194 0,0.351549 -0.703097,0.937463 -1.289011,1.406195 0.117183,0.351548 0.234365,0.585914 0.468731,0.82028 0.703097,-0.117183 1.640561,-0.468732 1.874926,-0.234366 0.351549,0.234366 0.351549,1.171829 0.351549,1.874926 0.234366,0.117183 0.585914,0.117183 0.937463,0.117183 0.351549,-0.703097 0.703097,-1.523377 1.054646,-1.64056 0.351549,-0.117183 1.171829,0.585914 1.757743,0.937463 0.234366,-0.234366 0.468732,-0.351549 0.703097,-0.585915 -0.351548,-0.703097 -0.82028,-1.523377 -0.703097,-1.874926 0.117183,-0.351548 1.171829,-0.585914 1.874926,-0.82028 0,-0.117183 0,-0.117183 0,-0.234366 0,-0.234365 0,-0.468731 -0.117183,-0.703097 -0.703097,-0.234366 -1.757743,-0.234366 -1.874926,-0.585914 -0.234366,-0.351549 0.234366,-1.289012 0.468732,-1.992109 -0.234366,-0.234366 -0.468732,-0.351549 -0.82028,-0.585915 -0.585915,0.468732 -1.289012,1.171829 -1.640561,1.054646 -0.351548,0 -0.82028,-0.937463 -1.171829,-1.523377 z m 0.703097,2.226475 c 1.054646,0 1.992109,0.937463 1.992109,1.992108 0,1.054646 -0.937463,1.992109 -1.992109,1.992109 -1.054645,0 -1.992108,-0.937463 -1.992108,-1.992109 0,-1.054645 0.937463,-1.992108 1.992108,-1.992108 z m -1.992108,7.499704 -2.578024,2.695206 c -0.468731,0.468732 -0.468731,1.171829 0,1.64056 0.468732,0.468732 1.171829,0.468732 1.64056,0 0,0 0,0 0,0 l 1.992109,-1.992109 v 4.218584 c 0,0.937463 0.703098,1.64056 1.640561,1.64056 h 7.499704 c 0.937463,0 1.64056,-0.703097 1.64056,-1.64056 v -4.218584 l 1.992109,1.992109 c 0.468732,0.468732 1.171829,0.468732 1.640561,0 0.468731,-0.468731 0.468731,-1.171828 0,-1.64056 0,0 0,0 0,0 l -2.695207,-2.695206 z"
   id="path14"
   style="opacity:0.3;fill:#000000;fill-opacity:1;stroke-width:1" />
</svg>
