<?xml version="1.0" encoding="UTF-8" standalone="no"?>
<!-- Generator: Adobe Illustrator 25.2.1, SVG Export Plug-In . SVG Version: 6.00 Build 0)  -->

<svg
   version="1.1"
   id="Layer_1"
   x="0px"
   y="0px"
   viewBox="0 0 64 64"
   style="enable-background:new 0 0 64 64;"
   xml:space="preserve"
   sodipodi:docname="folder-blue-mega.svg"
   inkscape:version="1.3.2 (091e20ef0f, 2023-11-25, custom)"
   xmlns:inkscape="http://www.inkscape.org/namespaces/inkscape"
   xmlns:sodipodi="http://sodipodi.sourceforge.net/DTD/sodipodi-0.dtd"
   xmlns="http://www.w3.org/2000/svg"
   xmlns:svg="http://www.w3.org/2000/svg"><defs
   id="defs14"><radialGradient
     id="SVGID_6_-1"
     cx="32"
     cy="39"
     r="40.048599"
     fx="14.0678"
     fy="24.8514"
     gradientUnits="userSpaceOnUse">
	<stop
   offset="0"
   style="stop-color:#00F0F4"
   id="stop11-5" />
	<stop
   offset="1"
   style="stop-color:#1598FF"
   id="stop12-9" />
</radialGradient><radialGradient
     id="SVGID_4_-7"
     cx="25.213699"
     cy="25.563499"
     r="32.348301"
     fx="16.568701"
     fy="17.644699"
     gradientUnits="userSpaceOnUse">
	<stop
   offset="0"
   style="stop-color:#FFFFFF"
   id="stop7-7" />
	<stop
   offset="1"
   style="stop-color:#B7B7B7"
   id="stop8-6" />
</radialGradient><radialGradient
     id="SVGID_2_-7"
     cx="28.128099"
     cy="25.073299"
     r="40.0504"
     fx="5.4853001"
     fy="7.4745002"
     gradientUnits="userSpaceOnUse">
	<stop
   offset="0"
   style="stop-color:#15C7FF"
   id="stop3-3" />
	<stop
   offset="1"
   style="stop-color:#005A9E"
   id="stop4-6" />
</radialGradient></defs><sodipodi:namedview
   id="namedview14"
   pagecolor="#ffffff"
   bordercolor="#000000"
   borderopacity="0.25"
   inkscape:showpageshadow="2"
   inkscape:pageopacity="0.0"
   inkscape:pagecheckerboard="0"
   inkscape:deskcolor="#d1d1d1"
   inkscape:zoom="13.890625"
   inkscape:cx="32.071991"
   inkscape:cy="32.035996"
   inkscape:window-width="1920"
   inkscape:window-height="1014"
   inkscape:window-x="0"
   inkscape:window-y="0"
   inkscape:window-maximized="1"
   inkscape:current-layer="Layer_1" />
<style
   type="text/css"
   id="style1">
	.st0{opacity:0.15;fill:url(#SVGID_1_);enable-background:new    ;}
	.st1{fill:url(#SVGID_2_);}
	.st2{opacity:0.34;fill:url(#SVGID_3_);enable-background:new    ;}
	.st3{fill:url(#SVGID_4_);}
	.st4{opacity:0.12;fill:url(#SVGID_5_);enable-background:new    ;}
	.st5{fill:url(#SVGID_6_);}
	.st6{fill:url(#SVGID_7_);}
</style>
<radialGradient
   id="SVGID_1_"
   cx="28.1281"
   cy="41.5136"
   r="40.0504"
   fx="5.4853"
   fy="23.9148"
   gradientTransform="matrix(1 0 0 -1 0 66)"
   gradientUnits="userSpaceOnUse">
	<stop
   offset="0"
   style="stop-color:#000000"
   id="stop1" />
	<stop
   offset="1"
   style="stop-color:#545454"
   id="stop2" />
</radialGradient>

<radialGradient
   id="SVGID_2_"
   cx="28.1281"
   cy="40.9267"
   r="40.0504"
   fx="5.4853"
   fy="23.3279"
   gradientTransform="matrix(1 0 0 -1 0 66)"
   gradientUnits="userSpaceOnUse">
	<stop
   offset="0"
   style="stop-color:#15C7FF"
   id="stop3" />
	<stop
   offset="1"
   style="stop-color:#005A9E"
   id="stop4" />
</radialGradient>

<linearGradient
   id="SVGID_3_"
   gradientUnits="userSpaceOnUse"
   x1="8"
   y1="39.25"
   x2="56"
   y2="39.25"
   gradientTransform="matrix(1 0 0 -1 0 66)">
	<stop
   offset="0"
   style="stop-color:#000000"
   id="stop5" />
	<stop
   offset="1"
   style="stop-color:#404040"
   id="stop6" />
</linearGradient>

<radialGradient
   id="SVGID_4_"
   cx="25.2137"
   cy="40.4365"
   r="32.3483"
   fx="16.5687"
   fy="32.5177"
   gradientTransform="matrix(1 0 0 -1 0 66)"
   gradientUnits="userSpaceOnUse">
	<stop
   offset="0"
   style="stop-color:#FFFFFF"
   id="stop7" />
	<stop
   offset="1"
   style="stop-color:#B7B7B7"
   id="stop8" />
</radialGradient>

<radialGradient
   id="SVGID_5_"
   cx="32"
   cy="27.8"
   r="40.0672"
   fx="14.0595"
   fy="13.6449"
   gradientTransform="matrix(1 0 0 -1 0 66)"
   gradientUnits="userSpaceOnUse">
	<stop
   offset="0"
   style="stop-color:#000000"
   id="stop9" />
	<stop
   offset="1"
   style="stop-color:#545454"
   id="stop10" />
</radialGradient>

<radialGradient
   id="SVGID_6_"
   cx="32"
   cy="27"
   r="40.0486"
   fx="14.0678"
   fy="12.8514"
   gradientTransform="matrix(1 0 0 -1 0 66)"
   gradientUnits="userSpaceOnUse">
	<stop
   offset="0"
   style="stop-color:#00F0F4"
   id="stop11" />
	<stop
   offset="1"
   style="stop-color:#1598FF"
   id="stop12" />
</radialGradient>

<linearGradient
   id="SVGID_7_"
   gradientUnits="userSpaceOnUse"
   x1="38.1693"
   y1="34.2949"
   x2="61.5537"
   y2="59.124">
	<stop
   offset="0"
   style="stop-color:#15C7FF"
   id="stop13" />
	<stop
   offset="1"
   style="stop-color:#005A9E"
   id="stop14" />
</linearGradient>
<g
   id="g1"
   transform="translate(4.209578e-7,0.19628996)"
   style="enable-background:new 0 0 64 64"><path
     d="M 11.599609,6.5996094 C 7.3996178,6.5996094 4,9.9992271 4,14.199219 V 30 c 0,-4.999985 4.000015,-9 9,-9 h 38 c 4.564943,0 8.28562,3.337322 8.900391,7.722656 v -8.523437 c 0,-4.199992 -3.399618,-7.59961 -7.59961,-7.59961 H 32 c -4.199992,0 -5.60079,-5.9999996 -9.800781,-5.9999996 z"
     style="fill:url(#SVGID_2_-7)"
     id="path17" /><path
     d="M 11.400391,16.599609 C 9.5003959,16.599609 8,18.100006 8,20 v 2.501953 C 9.4270033,21.553027 11.143947,21 13,21 h 38 c 1.856053,0 3.572997,0.553027 5,1.501953 V 20 c 0,-1.899994 -1.500396,-3.400391 -3.400391,-3.400391 z"
     style="fill:url(#SVGID_4_-7)"
     id="path15" /><path
     d="m 13,21 c -4.99999,0 -9,4.00001 -9,9 v 18 c 0,4.99999 4.00001,9 9,9 h 38 c 4.99999,0 9,-4.00001 9,-9 V 30 c 0,-4.99999 -4.00001,-9 -9,-9 z"
     style="fill:url(#SVGID_6_-1)"
     id="path16" /></g><path
   class="st6"
   d="m 48.82711,36.708382 c -5.42135,-0.650562 -10.083711,3.903372 -9.324722,9.324722 0.433708,3.686518 3.469664,6.722474 7.156182,7.156182 5.42135,0.650562 10.083711,-3.903372 9.324722,-9.324722 -0.433708,-3.686518 -3.361237,-6.722474 -7.156182,-7.156182 z m -5.204496,5.855058 c 0,-0.975843 0.867416,-1.843259 1.843259,-1.843259 v 0 c 0.542135,0 1.192697,0.216854 1.517978,0.650562 l 0.650562,0.650562 c 0.108427,0.108427 0.216854,0.108427 0.216854,0 l 0.542135,-0.542135 c 0.433708,-0.433708 0.975843,-0.650562 1.626405,-0.650562 v 0 c 0.975843,0 1.843259,0.867416 1.843259,1.843259 v 5.096069 c 0,0.758989 -0.650562,1.409551 -1.409551,1.409551 v 0 c -0.758989,0 -1.409551,-0.650562 -1.409551,-1.409551 v -2.602248 c 0,-0.108427 -0.108427,-0.108427 -0.108427,0 l -0.975843,0.975843 c -0.108427,0.108427 -0.216854,0.108427 -0.216854,0 l -1.192697,-1.192697 c 0,0 -0.108427,0 -0.108427,0 v 2.602248 c 0,0.758989 -0.650562,1.409551 -1.409551,1.409551 v 0 c -0.758989,0 -1.409551,-0.650562 -1.409551,-1.409551 z"
   id="path14"
   style="opacity:0.3;fill:#000000;fill-opacity:1;stroke-width:0.999999" />
</svg>
