<?xml version="1.0" encoding="UTF-8" standalone="no"?>
<!-- Generator: Adobe Illustrator 25.2.1, SVG Export Plug-In . SVG Version: 6.00 Build 0)  -->

<svg
   version="1.1"
   id="Layer_1"
   x="0px"
   y="0px"
   viewBox="0 0 64 64"
   style="enable-background:new 0 0 64 64;"
   xml:space="preserve"
   sodipodi:docname="folder-blue-music-open.svg"
   inkscape:version="1.3.2 (091e20ef0f, 2023-11-25, custom)"
   xmlns:inkscape="http://www.inkscape.org/namespaces/inkscape"
   xmlns:sodipodi="http://sodipodi.sourceforge.net/DTD/sodipodi-0.dtd"
   xmlns="http://www.w3.org/2000/svg"
   xmlns:svg="http://www.w3.org/2000/svg"><defs
   id="defs14"><radialGradient
     id="SVGID_6_-3"
     cx="32"
     cy="39"
     r="40.048599"
     fx="14.0678"
     fy="24.8514"
     gradientUnits="userSpaceOnUse"
     gradientTransform="translate(4.209578e-7,0.19779612)">
	<stop
   offset="0"
   style="stop-color:#00F0F4"
   id="stop11-6" />
	<stop
   offset="1"
   style="stop-color:#1598FF"
   id="stop12-7" />
</radialGradient><radialGradient
     id="SVGID_4_-3"
     cx="25.2845"
     cy="26.629101"
     r="32.348301"
     fx="16.6394"
     fy="18.710199"
     gradientUnits="userSpaceOnUse">
	<stop
   offset="0"
   style="stop-color:#FFFFFF"
   id="stop7-6" />
	<stop
   offset="1"
   style="stop-color:#B7B7B7"
   id="stop8-7" />
</radialGradient><radialGradient
     id="SVGID_2_-5"
     cx="28.198799"
     cy="26.138901"
     r="40.0504"
     fx="5.5560002"
     fy="8.5401001"
     gradientUnits="userSpaceOnUse">
	<stop
   offset="0"
   style="stop-color:#15C7FF"
   id="stop3-3" />
	<stop
   offset="1"
   style="stop-color:#005A9E"
   id="stop4-5" />
</radialGradient></defs><sodipodi:namedview
   id="namedview14"
   pagecolor="#ffffff"
   bordercolor="#000000"
   borderopacity="0.25"
   inkscape:showpageshadow="2"
   inkscape:pageopacity="0.0"
   inkscape:pagecheckerboard="0"
   inkscape:deskcolor="#d1d1d1"
   inkscape:zoom="13.890625"
   inkscape:cx="32"
   inkscape:cy="32.035996"
   inkscape:window-width="1920"
   inkscape:window-height="1014"
   inkscape:window-x="0"
   inkscape:window-y="0"
   inkscape:window-maximized="1"
   inkscape:current-layer="Layer_1" />
<style
   type="text/css"
   id="style1">
	.st0{opacity:0.15;fill:url(#SVGID_1_);enable-background:new    ;}
	.st1{fill:url(#SVGID_2_);}
	.st2{opacity:0.34;fill:url(#SVGID_3_);enable-background:new    ;}
	.st3{fill:url(#SVGID_4_);}
	.st4{opacity:0.12;fill:url(#SVGID_5_);enable-background:new    ;}
	.st5{fill:url(#SVGID_6_);}
	.st6{fill:url(#SVGID_7_);}
</style>
<radialGradient
   id="SVGID_1_"
   cx="28.1988"
   cy="40.4481"
   r="40.0504"
   fx="5.556"
   fy="22.8493"
   gradientTransform="matrix(1 0 0 -1 0 66)"
   gradientUnits="userSpaceOnUse">
	<stop
   offset="0"
   style="stop-color:#000000"
   id="stop1" />
	<stop
   offset="1"
   style="stop-color:#545454"
   id="stop2" />
</radialGradient>

<radialGradient
   id="SVGID_2_"
   cx="28.1988"
   cy="39.8611"
   r="40.0504"
   fx="5.556"
   fy="22.2623"
   gradientTransform="matrix(1 0 0 -1 0 66)"
   gradientUnits="userSpaceOnUse">
	<stop
   offset="0"
   style="stop-color:#15C7FF"
   id="stop3" />
	<stop
   offset="1"
   style="stop-color:#005A9E"
   id="stop4" />
</radialGradient>

<linearGradient
   id="SVGID_3_"
   gradientUnits="userSpaceOnUse"
   x1="8.1"
   y1="38.15"
   x2="56.1"
   y2="38.15"
   gradientTransform="matrix(1 0 0 -1 0 66)">
	<stop
   offset="0"
   style="stop-color:#000000"
   id="stop5" />
	<stop
   offset="1"
   style="stop-color:#404040"
   id="stop6" />
</linearGradient>

<radialGradient
   id="SVGID_4_"
   cx="25.2845"
   cy="39.3709"
   r="32.3483"
   fx="16.6394"
   fy="31.452"
   gradientTransform="matrix(1 0 0 -1 0 66)"
   gradientUnits="userSpaceOnUse">
	<stop
   offset="0"
   style="stop-color:#FFFFFF"
   id="stop7" />
	<stop
   offset="1"
   style="stop-color:#B7B7B7"
   id="stop8" />
</radialGradient>


<linearGradient
   id="SVGID_7_"
   gradientUnits="userSpaceOnUse"
   x1="32.7256"
   y1="33.8332"
   x2="62.9105"
   y2="55.3039">
	<stop
   offset="0"
   style="stop-color:#15C7FF"
   id="stop13" />
	<stop
   offset="1"
   style="stop-color:#005A9E"
   id="stop14" />
</linearGradient>

<g
   id="g1"
   transform="translate(6.3894702e-7,-0.399414)"
   style="enable-background:new 0 0 64 64"><path
     class="st1"
     d="M 11.7,49.6 H 52.4 C 56.6,49.6 60,46.2 60,42 V 21.3 c 0,-4.2 -3.4,-7.6 -7.6,-7.6 H 32.1 c -4.2,0 -5.6,-6 -9.8,-6 H 11.7 c -4.2,0 -7.6,3.4 -7.6,7.6 V 42 c 0,4.2 3.4,7.6 7.6,7.6 z"
     id="path4"
     style="fill:url(#SVGID_2_-5)" /><path
     class="st3"
     d="m 11.5,17.6 h 41.2 c 1.9,0 3.4,1.5 3.4,3.4 v 15.2 c 0,1.9 -1.5,3.4 -3.4,3.4 H 11.5 C 9.6,39.6 8.1,38.1 8.1,36.2 V 21 c 0,-1.9 1.5,-3.4 3.4,-3.4 z"
     id="path8"
     style="fill:url(#SVGID_4_-3)" /><path
     d="m 13,28.298 c -4.9999896,0 -8.9999996,4.00001 -8.9999996,9 v 10.899796 c 0,4.99999 4.00001,9 8.9999996,9 h 38 c 4.99999,0 9,-4.00001 9,-9 V 37.298 c 0,-4.99999 -4.00001,-9 -9,-9 z"
     style="fill:url(#SVGID_6_-3)"
     id="path16"
     sodipodi:nodetypes="sssssssss" /></g><path
   class="st6"
   d="m 43.896937,44.774424 c -0.579962,-0.347977 -1.275917,-0.579962 -1.971871,-0.579962 -2.435842,0 -4.407714,2.319849 -3.827751,4.871683 0.347977,1.391909 1.507902,2.551833 2.899811,2.899811 2.551834,0.579962 4.871683,-1.39191 4.871683,-3.827751 V 37.00293 c 0,-0.115993 0.115992,-0.231985 0.231985,-0.231985 l 7.191532,-0.811947 c 0.231985,0 0.347977,0.115992 0.347977,0.347977 v 8.467449 c -0.579962,-0.347977 -1.275917,-0.579962 -1.971872,-0.579962 -2.435841,0 -4.407713,2.319849 -3.82775,4.871683 0.347977,1.391909 1.507901,2.551833 2.899811,2.899811 2.551834,0.579962 4.871683,-1.39191 4.871683,-3.827751 V 35.031058 c 0,-1.043932 -0.92794,-1.855879 -1.971872,-1.739887 l -8.235464,1.159925 c -0.92794,0.115992 -1.507902,0.811947 -1.507902,1.739887 v 0"
   id="path14-3"
   style="opacity:0.3;fill:#000000;fill-opacity:1;stroke-width:1" /></svg>
