<?xml version="1.0" encoding="UTF-8" standalone="no"?>
<!-- Generator: Adobe Illustrator 25.2.1, SVG Export Plug-In . SVG Version: 6.00 Build 0)  -->

<svg
   version="1.1"
   id="Layer_1"
   x="0px"
   y="0px"
   viewBox="0 0 64 64"
   style="enable-background:new 0 0 64 64;"
   xml:space="preserve"
   sodipodi:docname="folder-blue-kde.svg"
   inkscape:version="1.3.2 (091e20ef0f, 2023-11-25, custom)"
   xmlns:inkscape="http://www.inkscape.org/namespaces/inkscape"
   xmlns:sodipodi="http://sodipodi.sourceforge.net/DTD/sodipodi-0.dtd"
   xmlns="http://www.w3.org/2000/svg"
   xmlns:svg="http://www.w3.org/2000/svg"><defs
   id="defs14"><inkscape:path-effect
     effect="fillet_chamfer"
     id="path-effect14"
     is_visible="true"
     lpeversion="1"
     nodesatellites_param="F,0,0,1,0,0.41594963,0,1 @ F,0,0,1,0,0.41594963,0,1 @ F,0,0,1,0,0.41594963,0,1 @ F,0,0,1,0,0.41594963,0,1 @ F,0,0,1,0,0.41594963,0,1 @ F,0,0,1,0,0.41594963,0,1 @ F,0,0,1,0,0.41594963,0,1 @ F,0,0,1,0,0.54450793,0,1 @ F,0,0,1,0,0.41594963,0,1 @ F,0,0,1,0,0.41594963,0,1 @ F,0,0,1,0,0.41594963,0,1 | F,0,0,1,0,0,0,1 @ F,0,0,1,0,0,0,1 @ F,0,0,1,0,0,0,1 @ F,0,0,1,0,0,0,1 @ F,0,0,1,0,0,0,1 @ F,0,0,1,0,0,0,1 @ F,0,0,1,0,0,0,1 @ F,0,0,1,0,0,0,1 @ F,0,0,1,0,0,0,1 @ F,0,0,1,0,0,0,1 @ F,0,0,1,0,0,0,1 @ F,0,0,1,0,0,0,1 @ F,0,0,1,0,0,0,1 @ F,0,0,1,0,0,0,1 @ F,0,0,1,0,0,0,1 @ F,0,0,1,0,0,0,1 @ F,0,0,1,0,0,0,1 @ F,0,0,1,0,0,0,1 @ F,0,0,1,0,0,0,1 @ F,0,0,1,0,0,0,1 @ F,0,0,1,0,0,0,1 @ F,0,0,1,0,0,0,1 @ F,0,0,1,0,0,0,1 @ F,0,0,1,0,0,0,1 @ F,0,0,1,0,0,0,1 @ F,0,0,1,0,0,0,1 @ F,0,0,1,0,0,0,1 @ F,0,0,1,0,0,0,1 @ F,0,0,1,0,0,0,1 @ F,0,0,1,0,0,0,1 @ F,0,0,1,0,0,0,1 @ F,0,0,1,0,0,0,1 @ F,0,0,1,0,0,0,1 @ F,0,0,1,0,0,0,1 @ F,0,0,1,0,0,0,1 @ F,0,0,1,0,0,0,1 @ F,0,0,1,0,0,0,1 @ F,0,0,1,0,0,0,1 @ F,0,0,1,0,0,0,1 @ F,0,0,1,0,0,0,1 @ F,0,0,1,0,0,0,1 @ F,0,0,1,0,0,0,1 @ F,0,0,1,0,0,0,1"
     radius="0"
     unit="px"
     method="auto"
     mode="F"
     chamfer_steps="1"
     flexible="false"
     use_knot_distance="true"
     apply_no_radius="true"
     apply_with_radius="true"
     only_selected="false"
     hide_knots="false" /><radialGradient
     id="SVGID_6_-2"
     cx="32"
     cy="39"
     r="40.048599"
     fx="14.0678"
     fy="24.8514"
     gradientUnits="userSpaceOnUse"
     gradientTransform="translate(4.209578e-7,0.19628996)">
	<stop
   offset="0"
   style="stop-color:#00F0F4"
   id="stop11-0" />
	<stop
   offset="1"
   style="stop-color:#1598FF"
   id="stop12-6" />
</radialGradient><radialGradient
     id="SVGID_4_-8"
     cx="25.213699"
     cy="25.563499"
     r="32.348301"
     fx="16.568701"
     fy="17.644699"
     gradientUnits="userSpaceOnUse"
     gradientTransform="translate(4.209578e-7,0.19628996)">
	<stop
   offset="0"
   style="stop-color:#FFFFFF"
   id="stop7-9" />
	<stop
   offset="1"
   style="stop-color:#B7B7B7"
   id="stop8-2" />
</radialGradient><radialGradient
     id="SVGID_2_-6"
     cx="28.128099"
     cy="25.073299"
     r="40.0504"
     fx="5.4853001"
     fy="7.4745002"
     gradientUnits="userSpaceOnUse"
     gradientTransform="translate(4.209578e-7,0.19628996)">
	<stop
   offset="0"
   style="stop-color:#15C7FF"
   id="stop3-6" />
	<stop
   offset="1"
   style="stop-color:#005A9E"
   id="stop4-4" />
</radialGradient></defs><sodipodi:namedview
   id="namedview14"
   pagecolor="#ffffff"
   bordercolor="#000000"
   borderopacity="0.25"
   inkscape:showpageshadow="2"
   inkscape:pageopacity="0.0"
   inkscape:pagecheckerboard="0"
   inkscape:deskcolor="#d1d1d1"
   inkscape:zoom="9.8221551"
   inkscape:cx="31.612207"
   inkscape:cy="31.917639"
   inkscape:window-width="1920"
   inkscape:window-height="1014"
   inkscape:window-x="0"
   inkscape:window-y="0"
   inkscape:window-maximized="1"
   inkscape:current-layer="Layer_1" />
<style
   type="text/css"
   id="style1">
	.st0{opacity:0.15;fill:url(#SVGID_1_);enable-background:new    ;}
	.st1{fill:url(#SVGID_2_);}
	.st2{opacity:0.34;fill:url(#SVGID_3_);enable-background:new    ;}
	.st3{fill:url(#SVGID_4_);}
	.st4{opacity:0.12;fill:url(#SVGID_5_);enable-background:new    ;}
	.st5{fill:url(#SVGID_6_);}
	.st6{fill:url(#SVGID_7_);}
</style>
<radialGradient
   id="SVGID_1_"
   cx="28.1281"
   cy="41.5136"
   r="40.0504"
   fx="5.4853"
   fy="23.9148"
   gradientTransform="matrix(1 0 0 -1 0 66)"
   gradientUnits="userSpaceOnUse">
	<stop
   offset="0"
   style="stop-color:#000000"
   id="stop1" />
	<stop
   offset="1"
   style="stop-color:#545454"
   id="stop2" />
</radialGradient>

<radialGradient
   id="SVGID_2_"
   cx="28.1281"
   cy="40.9267"
   r="40.0504"
   fx="5.4853"
   fy="23.3279"
   gradientTransform="matrix(1 0 0 -1 0 66)"
   gradientUnits="userSpaceOnUse">
	<stop
   offset="0"
   style="stop-color:#15C7FF"
   id="stop3" />
	<stop
   offset="1"
   style="stop-color:#005A9E"
   id="stop4" />
</radialGradient>

<linearGradient
   id="SVGID_3_"
   gradientUnits="userSpaceOnUse"
   x1="8"
   y1="39.25"
   x2="56"
   y2="39.25"
   gradientTransform="matrix(1 0 0 -1 0 66)">
	<stop
   offset="0"
   style="stop-color:#000000"
   id="stop5" />
	<stop
   offset="1"
   style="stop-color:#404040"
   id="stop6" />
</linearGradient>

<radialGradient
   id="SVGID_4_"
   cx="25.2137"
   cy="40.4365"
   r="32.3483"
   fx="16.5687"
   fy="32.5177"
   gradientTransform="matrix(1 0 0 -1 0 66)"
   gradientUnits="userSpaceOnUse">
	<stop
   offset="0"
   style="stop-color:#FFFFFF"
   id="stop7" />
	<stop
   offset="1"
   style="stop-color:#B7B7B7"
   id="stop8" />
</radialGradient>

<radialGradient
   id="SVGID_5_"
   cx="32"
   cy="27.8"
   r="40.0672"
   fx="14.0595"
   fy="13.6449"
   gradientTransform="matrix(1 0 0 -1 0 66)"
   gradientUnits="userSpaceOnUse">
	<stop
   offset="0"
   style="stop-color:#000000"
   id="stop9" />
	<stop
   offset="1"
   style="stop-color:#545454"
   id="stop10" />
</radialGradient>

<radialGradient
   id="SVGID_6_"
   cx="32"
   cy="27"
   r="40.0486"
   fx="14.0678"
   fy="12.8514"
   gradientTransform="matrix(1 0 0 -1 0 66)"
   gradientUnits="userSpaceOnUse">
	<stop
   offset="0"
   style="stop-color:#00F0F4"
   id="stop11" />
	<stop
   offset="1"
   style="stop-color:#1598FF"
   id="stop12" />
</radialGradient>

<linearGradient
   id="SVGID_7_"
   gradientUnits="userSpaceOnUse"
   x1="29.9189"
   y1="44.9221"
   x2="63.8862"
   y2="44.9221">
	<stop
   offset="0"
   style="stop-color:#15C7FF"
   id="stop13" />
	<stop
   offset="1"
   style="stop-color:#005A9E"
   id="stop14" />
</linearGradient>
<path
   d="m 11.599609,6.7958994 c -4.1999908,0 -7.5996086,3.3996176 -7.5996086,7.5996096 V 30.19629 c 0,-4.999985 4.000015,-9 8.9999996,-9 h 38 c 4.564943,0 8.28562,3.337322 8.900391,7.722656 v -8.523437 c 0,-4.199992 -3.399618,-7.59961 -7.59961,-7.59961 H 32 c -4.199992,0 -5.60079,-5.9999996 -9.800781,-5.9999996 z"
   style="fill:url(#SVGID_2_-6)"
   id="path17" /><path
   d="m 11.400391,16.795899 c -1.8999947,0 -3.4003906,1.500397 -3.4003906,3.400391 v 2.501953 C 9.4270037,21.749317 11.143947,21.19629 13,21.19629 h 38 c 1.856053,0 3.572997,0.553027 5,1.501953 V 20.19629 c 0,-1.899994 -1.500396,-3.400391 -3.400391,-3.400391 z"
   style="fill:url(#SVGID_4_-8)"
   id="path15" /><path
   d="m 13,21.19629 c -4.9999896,0 -8.9999996,4.00001 -8.9999996,9 v 18 c 0,4.99999 4.00001,9 8.9999996,9 h 38 c 4.99999,0 9,-4.00001 9,-9 v -18 c 0,-4.99999 -4.00001,-9 -9,-9 z"
   style="fill:url(#SVGID_6_-2)"
   id="path16" /><path
   class="st6"
   d="m 49.688476,36.060518 -2.576952,0.378964 A 0.48159236,0.48159236 130.81706 0 0 46.7,36.91595 v 11.3681 a 0.32017124,0.32017124 37.58676 0 0 0.402101,0.309512 l 2.595798,-0.687124 A 0.54037987,0.54037987 127.58676 0 0 50.1,47.38405 v -3.8681 a 0.11638463,0.11638463 164.36813 0 1 0.215869,-0.0604 l 2.968262,4.888902 a 0.49870024,0.49870024 18.905883 0 0 0.604388,0.206998 l 2.622962,-1.002898 a 0.29917667,0.29917667 104.80152 0 0 0.124097,-0.469635 l -3.58943,-4.358594 a 0.68651633,0.68651633 88.947105 0 1 -0.01568,-0.853079 l 3.617086,-4.73666 a 0.27146629,0.27146629 70.496832 0 0 -0.151796,-0.428581 l -2.491518,-0.604004 a 0.58146598,0.58146598 158.04909 0 0 -0.627554,0.252923 l -3.053374,4.798158 A 0.12112482,0.12112482 16.235596 0 1 50.1,41.08405 v -4.6681 A 0.35925423,0.35925423 40.817057 0 0 49.688476,36.060518 Z M 43.2,39.4 c -0.1,0 -0.2,0 -0.2,0.1 l -1.3,1.3 c -0.1,0.1 -0.1,0.3 0,0.4 l 1.4,2.2 c -0.1,0.2 -0.2,0.4 -0.3,0.7 l -2.5,0.6 C 40.1,44.7 40,44.8 40,45 v 1.7 c 0,0.2 0.1,0.3 0.3,0.3 l 2.5,0.6 0.3,0.6 -1.4,2.2 c -0.1,0.1 -0.1,0.3 0,0.4 l 1.3,1.3 c 0.1,0.1 0.3,0.1 0.4,0 l 2.2,-1.4 c 0.2,0.1 0.4,0.2 0.7,0.3 l 0.6,2.5 c 0,0.2 0.1,0.3 0.3,0.3 H 49 c 0.2,0 0.3,-0.1 0.3,-0.3 l 0.6,-2.6 c 0.3,-0.1 0.5,-0.2 0.7,-0.3 l 2.1,1.5 c 0.1,0.1 0.3,0.1 0.4,0 l 1.3,-1.3 c 0.1,-0.1 0.1,-0.3 0,-0.4 l -0.8,-1.2 h -0.1 c -0.2,0.1 -0.4,0 -0.5,-0.2 l -0.8,-1.4 c -0.7,1.7 -2.4,2.9 -4.3,2.9 -2.6,0 -4.7,-2.1 -4.7,-4.7 0,-2 1.2,-3.7 3,-4.3 v -0.9 h -0.1 l -0.6,0.3 -2.2,-1.4 c 0,-0.1 0,-0.1 -0.1,-0.1 z"
   id="path14"
   style="opacity:0.3;fill:#000000;fill-opacity:1;stroke-width:0.910957"
   inkscape:path-effect="#path-effect14"
   inkscape:original-d="m 50.1,36 -3.4,0.5 v 12.2 l 3.4,-0.9 v -4.7 l 3.4,5.6 3.4,-1.3 -4.2,-5.1 4.2,-5.5 -3.3,-0.8 -3.5,5.5 z m -6.9,3.4 c -0.1,0 -0.2,0 -0.2,0.1 l -1.3,1.3 c -0.1,0.1 -0.1,0.3 0,0.4 l 1.4,2.2 c -0.1,0.2 -0.2,0.4 -0.3,0.7 0,0 0,0 0,0 l -2.5,0.6 C 40.1,44.7 40,44.8 40,45 v 1.7 c 0,0.2 0.1,0.3 0.3,0.3 l 2.5,0.6 c 0,0 0,0 0,0 0.1,0.2 0.2,0.4 0.3,0.6 l -1.4,2.2 c -0.1,0.1 -0.1,0.3 0,0.4 l 1.3,1.3 c 0.1,0.1 0.3,0.1 0.4,0 l 2.2,-1.4 c 0.2,0.1 0.4,0.2 0.7,0.3 0,0 0,0 0,0 l 0.6,2.5 c 0,0.2 0.1,0.3 0.3,0.3 H 49 c 0.2,0 0.3,-0.1 0.3,-0.3 l 0.6,-2.6 c 0.3,-0.1 0.5,-0.2 0.7,-0.3 l 2.1,1.5 c 0.1,0.1 0.3,0.1 0.4,0 l 1.3,-1.3 c 0.1,-0.1 0.1,-0.3 0,-0.4 l -0.8,-1.2 h -0.1 c -0.2,0.1 -0.4,0 -0.5,-0.2 l -0.8,-1.4 c -0.7,1.7 -2.4,2.9 -4.3,2.9 -2.6,0 -4.7,-2.1 -4.7,-4.7 0,-2 1.2,-3.7 3,-4.3 v -0.9 0 c 0,0 0,0 -0.1,0 -0.2,0.1 -0.4,0.2 -0.6,0.3 l -2.2,-1.4 c 0,-0.1 0,-0.1 -0.1,-0.1 z"
   transform="matrix(1.0977469,0,0,1.0977469,-6.4080429,-6.3942057)" />
</svg>
