<?xml version="1.0" encoding="UTF-8" standalone="no"?>
<!-- Generator: Adobe Illustrator 25.2.1, SVG Export Plug-In . SVG Version: 6.00 Build 0)  -->

<svg
   version="1.1"
   id="Layer_1"
   x="0px"
   y="0px"
   viewBox="0 0 64 64"
   style="enable-background:new 0 0 64 64;"
   xml:space="preserve"
   sodipodi:docname="folder-blue-java.svg"
   inkscape:version="1.3.2 (091e20ef0f, 2023-11-25, custom)"
   xmlns:inkscape="http://www.inkscape.org/namespaces/inkscape"
   xmlns:sodipodi="http://sodipodi.sourceforge.net/DTD/sodipodi-0.dtd"
   xmlns="http://www.w3.org/2000/svg"
   xmlns:svg="http://www.w3.org/2000/svg"><defs
   id="defs14"><radialGradient
     id="SVGID_6_-8"
     cx="32"
     cy="39"
     r="40.048599"
     fx="14.0678"
     fy="24.8514"
     gradientUnits="userSpaceOnUse"
     gradientTransform="translate(4.209578e-7,0.19628996)">
	<stop
   offset="0"
   style="stop-color:#00F0F4"
   id="stop11-6" />
	<stop
   offset="1"
   style="stop-color:#1598FF"
   id="stop12-8" />
</radialGradient><radialGradient
     id="SVGID_4_-8"
     cx="25.213699"
     cy="25.563499"
     r="32.348301"
     fx="16.568701"
     fy="17.644699"
     gradientUnits="userSpaceOnUse"
     gradientTransform="translate(4.209578e-7,0.19628996)">
	<stop
   offset="0"
   style="stop-color:#FFFFFF"
   id="stop7-4" />
	<stop
   offset="1"
   style="stop-color:#B7B7B7"
   id="stop8-3" />
</radialGradient><radialGradient
     id="SVGID_2_-1"
     cx="28.128099"
     cy="25.073299"
     r="40.0504"
     fx="5.4853001"
     fy="7.4745002"
     gradientUnits="userSpaceOnUse"
     gradientTransform="translate(4.209578e-7,0.19628996)">
	<stop
   offset="0"
   style="stop-color:#15C7FF"
   id="stop3-4" />
	<stop
   offset="1"
   style="stop-color:#005A9E"
   id="stop4-9" />
</radialGradient></defs><sodipodi:namedview
   id="namedview14"
   pagecolor="#ffffff"
   bordercolor="#000000"
   borderopacity="0.25"
   inkscape:showpageshadow="2"
   inkscape:pageopacity="0.0"
   inkscape:pagecheckerboard="0"
   inkscape:deskcolor="#d1d1d1"
   inkscape:zoom="13.890625"
   inkscape:cx="32.071991"
   inkscape:cy="32"
   inkscape:window-width="1920"
   inkscape:window-height="1014"
   inkscape:window-x="0"
   inkscape:window-y="0"
   inkscape:window-maximized="1"
   inkscape:current-layer="Layer_1" />
<style
   type="text/css"
   id="style1">
	.st0{opacity:0.15;fill:url(#SVGID_1_);enable-background:new    ;}
	.st1{fill:url(#SVGID_2_);}
	.st2{opacity:0.34;fill:url(#SVGID_3_);enable-background:new    ;}
	.st3{fill:url(#SVGID_4_);}
	.st4{opacity:0.12;fill:url(#SVGID_5_);enable-background:new    ;}
	.st5{fill:url(#SVGID_6_);}
	.st6{fill:url(#SVGID_7_);}
</style>
<radialGradient
   id="SVGID_1_"
   cx="28.1281"
   cy="41.5136"
   r="40.0504"
   fx="5.4853"
   fy="23.9148"
   gradientTransform="matrix(1 0 0 -1 0 66)"
   gradientUnits="userSpaceOnUse">
	<stop
   offset="0"
   style="stop-color:#000000"
   id="stop1" />
	<stop
   offset="1"
   style="stop-color:#545454"
   id="stop2" />
</radialGradient>

<radialGradient
   id="SVGID_2_"
   cx="28.1281"
   cy="40.9267"
   r="40.0504"
   fx="5.4853"
   fy="23.3279"
   gradientTransform="matrix(1 0 0 -1 0 66)"
   gradientUnits="userSpaceOnUse">
	<stop
   offset="0"
   style="stop-color:#15C7FF"
   id="stop3" />
	<stop
   offset="1"
   style="stop-color:#005A9E"
   id="stop4" />
</radialGradient>

<linearGradient
   id="SVGID_3_"
   gradientUnits="userSpaceOnUse"
   x1="8"
   y1="39.25"
   x2="56"
   y2="39.25"
   gradientTransform="matrix(1 0 0 -1 0 66)">
	<stop
   offset="0"
   style="stop-color:#000000"
   id="stop5" />
	<stop
   offset="1"
   style="stop-color:#404040"
   id="stop6" />
</linearGradient>

<radialGradient
   id="SVGID_4_"
   cx="25.2137"
   cy="40.4365"
   r="32.3483"
   fx="16.5687"
   fy="32.5177"
   gradientTransform="matrix(1 0 0 -1 0 66)"
   gradientUnits="userSpaceOnUse">
	<stop
   offset="0"
   style="stop-color:#FFFFFF"
   id="stop7" />
	<stop
   offset="1"
   style="stop-color:#B7B7B7"
   id="stop8" />
</radialGradient>

<radialGradient
   id="SVGID_5_"
   cx="32"
   cy="27.8"
   r="40.0672"
   fx="14.0595"
   fy="13.6449"
   gradientTransform="matrix(1 0 0 -1 0 66)"
   gradientUnits="userSpaceOnUse">
	<stop
   offset="0"
   style="stop-color:#000000"
   id="stop9" />
	<stop
   offset="1"
   style="stop-color:#545454"
   id="stop10" />
</radialGradient>

<radialGradient
   id="SVGID_6_"
   cx="32"
   cy="27"
   r="40.0486"
   fx="14.0678"
   fy="12.8514"
   gradientTransform="matrix(1 0 0 -1 0 66)"
   gradientUnits="userSpaceOnUse">
	<stop
   offset="0"
   style="stop-color:#00F0F4"
   id="stop11" />
	<stop
   offset="1"
   style="stop-color:#1598FF"
   id="stop12" />
</radialGradient>

<linearGradient
   id="SVGID_7_"
   gradientUnits="userSpaceOnUse"
   x1="41.0905"
   y1="37.6143"
   x2="61.091"
   y2="57.7828">
	<stop
   offset="0"
   style="stop-color:#15C7FF"
   id="stop13" />
	<stop
   offset="1"
   style="stop-color:#005A9E"
   id="stop14" />
</linearGradient>

<path
   d="m 11.599609,6.7958994 c -4.1999908,0 -7.5996086,3.3996176 -7.5996086,7.5996096 V 30.19629 c 0,-4.999985 4.000015,-9 8.9999996,-9 h 38 c 4.564943,0 8.28562,3.337322 8.900391,7.722656 v -8.523437 c 0,-4.199992 -3.399618,-7.59961 -7.59961,-7.59961 H 32 c -4.199992,0 -5.60079,-5.9999996 -9.800781,-5.9999996 z"
   style="fill:url(#SVGID_2_-1)"
   id="path17" /><path
   d="m 11.400391,16.795899 c -1.8999947,0 -3.4003906,1.500397 -3.4003906,3.400391 v 2.501953 C 9.4270037,21.749317 11.143947,21.19629 13,21.19629 h 38 c 1.856053,0 3.572997,0.553027 5,1.501953 V 20.19629 c 0,-1.899994 -1.500396,-3.400391 -3.400391,-3.400391 z"
   style="fill:url(#SVGID_4_-8)"
   id="path15" /><path
   d="m 13,21.19629 c -4.9999896,0 -8.9999996,4.00001 -8.9999996,9 v 18 c 0,4.99999 4.00001,9 8.9999996,9 h 38 c 4.99999,0 9,-4.00001 9,-9 v -18 c 0,-4.99999 -4.00001,-9 -9,-9 z"
   style="fill:url(#SVGID_6_-8)"
   id="path16" /><path
   class="st6"
   d="m 47.702184,36.447121 c -0.937965,0.586229 -1.875931,1.289703 -2.462159,2.579406 -0.937966,2.110422 1.993176,4.33809 2.110422,4.455336 0,0 0.117246,0 0.117246,0 0,0 0.117246,0 0.117246,0 0,0 0.117245,-0.117246 0,-0.234492 0,0 -1.055212,-1.993176 -1.055212,-3.51737 0,-0.468983 0.703474,-1.055212 1.406949,-1.64144 0.703474,-0.586228 1.406948,-1.172457 1.875931,-1.875931 0.937965,-1.64144 -0.117246,-3.165634 -0.117246,-3.165634 0,-0.117245 -0.117246,-0.117245 -0.234491,0 -0.117246,0 -0.117246,0.117246 -0.117246,0.234492 0,0 0.234491,1.055211 -0.351737,2.110422 -0.117246,0.234492 -0.703474,0.586229 -1.289703,1.055211 z m 3.751862,0.703474 c 0.117246,0 0.117246,-0.117245 0,-0.234491 0,-0.117246 -0.117245,-0.117246 -0.234491,-0.117246 -0.117246,0 -3.751862,1.406949 -3.751862,3.165634 0,1.172457 0.468983,1.758685 0.82072,2.227668 0.117245,0.117246 0.234491,0.351737 0.351737,0.468983 0.117245,0.351737 -0.117246,1.055211 -0.234492,1.289703 0,0.117245 0,0.117245 0,0.234491 0,0 0.117246,0 0.117246,0 0,0 0.117246,0 0.117246,0 0.117245,0 1.524194,-1.055211 1.289702,-2.344914 -0.117245,-0.468983 -0.351737,-0.82072 -0.586228,-1.055211 -0.351737,-0.468983 -0.586229,-0.82072 -0.234491,-1.406948 0.586228,-0.82072 2.344913,-2.227669 2.344913,-2.227669 z m -9.262409,6.917496 c -0.117246,0.234492 0,0.351737 0.117246,0.586229 0.351737,0.586228 1.758685,0.820719 3.869107,0.820719 0,0 0,0 0,0 0.234492,0 0.586229,0 0.937966,0 3.400125,-0.117245 4.572582,-1.172456 4.689827,-1.172456 0,0 0.117246,-0.117246 0,-0.234492 0,-0.117245 -0.117245,-0.117245 -0.234491,-0.117245 -1.172457,0.351737 -3.400125,0.468982 -4.924319,0.468982 -1.758685,0 -2.579405,-0.117245 -2.813897,-0.234491 0.117246,-0.117246 0.82072,-0.468983 1.64144,-0.586229 0.117246,0 0.117246,-0.117245 0.117246,-0.117245 0,0 -0.117246,-0.117246 -0.117246,-0.117246 -0.586228,-0.117246 -3.048388,0 -3.282879,0.703474 z M 53.447223,43.01288 c -0.703474,0 -1.406948,0.351737 -1.406948,0.351737 -0.117246,0 -0.117246,0.117246 -0.117246,0.234491 0,0.117246 0.117246,0.117246 0.117246,0.117246 0,0 1.524194,0 1.641439,0.82072 0.117246,0.703474 -1.406948,1.875931 -1.993176,2.344914 -0.117246,0 -0.117246,0.117245 -0.117246,0.234491 0,0.117246 0.117246,0.117246 0.117246,0.117246 0,0 0,0 0,0 0.117245,0 3.400125,-0.703474 3.048388,-2.696651 0,-1.289703 -0.703474,-1.524194 -1.289703,-1.524194 z m -2.227668,3.634616 c 0,-0.117245 0,-0.117245 -0.117246,-0.117245 l -0.82072,-0.586229 c 0,0 -0.117245,0 -0.117245,0 0,0 -0.82072,0.234492 -1.993177,0.351737 -0.468983,0 -1.055211,0 -1.524194,0 -1.172457,0 -1.993177,-0.117245 -2.110422,-0.234491 0,0 0,0 0,0 0,0 0.117245,-0.117246 0.234491,-0.117246 0.117246,0 0.117246,-0.117245 0.117246,-0.234491 0,-0.117246 -0.117246,-0.117246 -0.234492,-0.117246 -0.82072,0.234492 -1.172457,0.468983 -1.172457,0.82072 0,0.586228 1.406949,0.937966 2.579406,0.937966 0.117245,0 0.351737,0 0.586228,0 0,0 0,0 0,0 1.993177,0 4.455336,-0.586229 4.455336,-0.586229 0,0 0.117246,-0.117246 0.117246,-0.117246 z m -5.97953,1.172457 c 0.117245,0 0.117245,-0.117245 0.117245,-0.234491 0,-0.117246 -0.117245,-0.117246 -0.117245,-0.117246 -0.117246,0 -1.055211,0 -1.055211,0.586229 0,0.234491 0,0.351737 0.117245,0.468982 0.351737,0.351737 1.289703,0.586229 2.813897,0.703475 0.234491,0 0.351737,0 0.586228,0 1.993177,0 3.28288,-0.586229 3.28288,-0.586229 0,0 0.117245,-0.117246 0.117245,-0.117246 0,0 0,-0.117245 -0.117245,-0.117245 l -1.055212,-0.586229 c 0,0 -0.117245,0 -0.117245,0 0,0 -0.586229,0.117246 -1.64144,0.234492 -0.234491,0 -0.351737,0 -0.703474,0 -0.937966,0.117245 -1.993177,0 -2.227668,-0.234492 0,0.117246 0,0.117246 0,0 z m 1.406948,3.400125 c 4.455336,0 6.80025,-0.82072 7.269233,-1.289702 0.117246,-0.117246 0.234491,-0.351737 0.117246,-0.468983 0,-0.234491 -0.234492,-0.468983 -0.351738,-0.468983 -0.117245,0 -0.117245,0 -0.234491,0 0,0.117246 0,0.117246 0,0.234492 0,0 0,0.117245 0,0.234491 -0.234491,0.117246 -1.993177,0.703474 -5.15881,0.82072 -0.468983,0 -0.82072,0 -1.289703,0 -2.813896,0 -4.807073,-0.351737 -5.041565,-0.586229 0.117246,-0.117245 0.82072,-0.351737 1.524194,-0.468982 0.117246,0 0.117246,-0.117246 0.117246,-0.234492 0,-0.117246 -0.117246,-0.117246 -0.234491,-0.117246 0,0 -0.117246,0 -0.234492,0 -1.289702,0.117246 -2.696651,0.234492 -2.813896,0.937966 0,0.234491 0,0.351737 0.117245,0.586228 0.703475,0.351738 1.64144,0.82072 6.214022,0.82072 z m 8.089953,-1.055211 c -0.117246,0 -0.117246,0 -0.234492,0 0,0 -0.703474,0.703474 -2.696651,1.055211 -0.820719,0.117246 -2.227668,0.234492 -4.33809,0.234492 -2.110423,0 -4.103599,-0.117246 -4.103599,-0.117246 -0.117246,0 -0.117246,0 -0.117246,0.117246 0,0.117245 0,0.117245 0.117246,0.234491 0,0 2.110422,0.468983 4.924319,0.468983 1.406948,0 2.696651,-0.117246 3.986353,-0.351737 2.344914,-0.351737 2.46216,-1.524194 2.46216,-1.64144 0.117245,0 0.117245,0 0,0 z"
   id="path14"
   style="opacity:0.3;fill:#000000;fill-opacity:1;stroke-width:1" /></svg>
