<?xml version="1.0" encoding="UTF-8" standalone="no"?>
<!-- Generator: Adobe Illustrator 25.2.1, SVG Export Plug-In . SVG Version: 6.00 Build 0)  -->

<svg
   version="1.1"
   id="Layer_1"
   x="0px"
   y="0px"
   viewBox="0 0 64 64"
   style="enable-background:new 0 0 64 64;"
   xml:space="preserve"
   sodipodi:docname="folder-blue-download-open.svg"
   inkscape:version="1.3.2 (091e20ef0f, 2023-11-25, custom)"
   xmlns:inkscape="http://www.inkscape.org/namespaces/inkscape"
   xmlns:sodipodi="http://sodipodi.sourceforge.net/DTD/sodipodi-0.dtd"
   xmlns="http://www.w3.org/2000/svg"
   xmlns:svg="http://www.w3.org/2000/svg"><defs
   id="defs14"><radialGradient
     id="SVGID_6_-3"
     cx="32"
     cy="39"
     r="40.048599"
     fx="14.0678"
     fy="24.8514"
     gradientUnits="userSpaceOnUse"
     gradientTransform="translate(1.0599048e-6,-0.20161788)">
	<stop
   offset="0"
   style="stop-color:#00F0F4"
   id="stop11-6" />
	<stop
   offset="1"
   style="stop-color:#1598FF"
   id="stop12-7" />
</radialGradient><radialGradient
     id="SVGID_4_-3"
     cx="25.2845"
     cy="26.629101"
     r="32.348301"
     fx="16.6394"
     fy="18.710199"
     gradientUnits="userSpaceOnUse"
     gradientTransform="translate(6.3894702e-7,-0.399414)">
	<stop
   offset="0"
   style="stop-color:#FFFFFF"
   id="stop7-6" />
	<stop
   offset="1"
   style="stop-color:#B7B7B7"
   id="stop8-7" />
</radialGradient><radialGradient
     id="SVGID_2_-5"
     cx="28.198799"
     cy="26.138901"
     r="40.0504"
     fx="5.5560002"
     fy="8.5401001"
     gradientUnits="userSpaceOnUse"
     gradientTransform="translate(6.3894702e-7,-0.399414)">
	<stop
   offset="0"
   style="stop-color:#15C7FF"
   id="stop3-3" />
	<stop
   offset="1"
   style="stop-color:#005A9E"
   id="stop4-5" />
</radialGradient></defs><sodipodi:namedview
   id="namedview14"
   pagecolor="#ffffff"
   bordercolor="#000000"
   borderopacity="0.25"
   inkscape:showpageshadow="2"
   inkscape:pageopacity="0.0"
   inkscape:pagecheckerboard="0"
   inkscape:deskcolor="#d1d1d1"
   inkscape:zoom="9.8221551"
   inkscape:cx="23.823692"
   inkscape:cy="28.150645"
   inkscape:window-width="1920"
   inkscape:window-height="1014"
   inkscape:window-x="0"
   inkscape:window-y="0"
   inkscape:window-maximized="1"
   inkscape:current-layer="Layer_1" />
<style
   type="text/css"
   id="style1">
	.st0{opacity:0.15;fill:url(#SVGID_1_);}
	.st1{fill:url(#SVGID_2_);}
	.st2{opacity:0.34;fill:url(#SVGID_3_);}
	.st3{fill:url(#SVGID_4_);}
	.st4{opacity:0.12;fill:url(#SVGID_5_);}
	.st5{fill:url(#SVGID_6_);}
	.st6{fill:url(#SVGID_7_);}
</style>
<radialGradient
   id="SVGID_1_"
   cx="28.1988"
   cy="25.5519"
   r="40.0504"
   fx="5.556"
   fy="7.9531"
   gradientUnits="userSpaceOnUse">
	<stop
   offset="0"
   style="stop-color:#000000"
   id="stop1" />
	<stop
   offset="1"
   style="stop-color:#545454"
   id="stop2" />
</radialGradient>

<radialGradient
   id="SVGID_2_"
   cx="28.1988"
   cy="26.1389"
   r="40.0504"
   fx="5.556"
   fy="8.5401"
   gradientUnits="userSpaceOnUse">
	<stop
   offset="0"
   style="stop-color:#15C7FF"
   id="stop3" />
	<stop
   offset="1"
   style="stop-color:#005A9E"
   id="stop4" />
</radialGradient>

<linearGradient
   id="SVGID_3_"
   gradientUnits="userSpaceOnUse"
   x1="8.0707"
   y1="27.7837"
   x2="56.0707"
   y2="27.7837">
	<stop
   offset="0"
   style="stop-color:#000000"
   id="stop5" />
	<stop
   offset="1"
   style="stop-color:#404040"
   id="stop6" />
</linearGradient>

<radialGradient
   id="SVGID_4_"
   cx="25.2845"
   cy="26.6291"
   r="32.3483"
   fx="16.6394"
   fy="18.7102"
   gradientUnits="userSpaceOnUse">
	<stop
   offset="0"
   style="stop-color:#FFFFFF"
   id="stop7" />
	<stop
   offset="1"
   style="stop-color:#B7B7B7"
   id="stop8" />
</radialGradient>


<linearGradient
   id="SVGID_7_"
   gradientUnits="userSpaceOnUse"
   x1="40.1038"
   y1="37.7957"
   x2="58.4712"
   y2="62.9292">
	<stop
   offset="0"
   style="stop-color:#15C7FF"
   id="stop13" />
	<stop
   offset="1"
   style="stop-color:#005A9E"
   id="stop14" />
</linearGradient>

<path
   class="st1"
   d="m 11.700001,49.200586 h 40.7 c 4.2,0 7.6,-3.4 7.6,-7.6 v -20.7 c 0,-4.2 -3.4,-7.6 -7.6,-7.6 h -20.3 c -4.2,0 -5.6,-6 -9.8,-6 h -10.6 c -4.2000004,0 -7.6000004,3.4 -7.6000004,7.6 v 26.7 c 0,4.2 3.4,7.6 7.6000004,7.6 z"
   id="path4"
   style="fill:url(#SVGID_2_-5)" /><path
   class="st3"
   d="m 11.500001,17.200586 h 41.2 c 1.9,0 3.4,1.5 3.4,3.4 v 15.2 c 0,1.9 -1.5,3.4 -3.4,3.4 h -41.2 c -1.9000004,0 -3.4000004,-1.5 -3.4000004,-3.4 v -15.2 c 0,-1.9 1.5,-3.4 3.4000004,-3.4 z"
   id="path8"
   style="fill:url(#SVGID_4_-3)" /><path
   d="m 13.000001,27.898586 c -4.99999,0 -9,4.00001 -9,9 v 10.899796 c 0,4.99999 4.00001,9 9,9 h 38 c 4.99999,0 9,-4.00001 9,-9 V 36.898586 c 0,-4.99999 -4.00001,-9 -9,-9 z"
   style="fill:url(#SVGID_6_-3)"
   id="path16"
   sodipodi:nodetypes="sssssssss" /><path
   class="st6"
   d="m 44.054294,35.52735 v 3.975919 c 0,0.265061 -0.265061,0.530123 -0.530122,0.530123 H 41.27115 c -0.397591,0 -0.662653,0.530122 -0.397591,0.795184 l 5.036164,6.759063 c 0.265062,0.265061 0.662653,0.265061 0.795184,0 l 5.036165,-6.759063 c 0.265061,-0.397592 0,-0.795184 -0.397592,-0.795184 h -2.253021 c -0.265061,0 -0.530123,-0.265062 -0.530123,-0.530123 V 35.52735 c 0,-1.192776 -1.060245,-2.253021 -2.253021,-2.253021 v 0 c -1.325306,0 -2.253021,1.060245 -2.253021,2.253021 z m -5.963879,14.710902 v 0 c 0,1.060245 0.927714,1.98796 1.98796,1.98796 h 12.192819 c 1.060246,0 1.98796,-0.927715 1.98796,-1.98796 v 0 c 0,-1.060245 -0.927714,-1.98796 -1.98796,-1.98796 H 40.078375 c -1.060246,0 -1.98796,0.927715 -1.98796,1.98796 z"
   id="path14-3"
   style="opacity:0.3;fill:#000000;fill-opacity:1;stroke-width:0.999999" /></svg>
