<?xml version="1.0" encoding="UTF-8" standalone="no"?>
<svg
   width="64"
   height="64"
   version="1"
   id="svg5"
   sodipodi:docname="folder-blue-vmware.svg"
   inkscape:version="1.3.2 (091e20ef0f, 2023-11-25, custom)"
   xmlns:inkscape="http://www.inkscape.org/namespaces/inkscape"
   xmlns:sodipodi="http://sodipodi.sourceforge.net/DTD/sodipodi-0.dtd"
   xmlns="http://www.w3.org/2000/svg"
   xmlns:svg="http://www.w3.org/2000/svg">
  <defs
     id="defs5">
    <radialGradient
       id="SVGID_1_-3"
       cx="28.128099"
       cy="41.513599"
       r="40.0504"
       fx="5.4853001"
       fy="23.914801"
       gradientTransform="matrix(1,0,0,-1,0,66.5)"
       gradientUnits="userSpaceOnUse">
      <stop
         offset="0"
         style="stop-color:#000000"
         id="stop1-6" />
      <stop
         offset="1"
         style="stop-color:#545454"
         id="stop2-0" />
    </radialGradient>
    <radialGradient
       id="SVGID_2_-7"
       cx="28.128099"
       cy="40.926701"
       r="40.0504"
       fx="5.4853001"
       fy="23.3279"
       gradientTransform="matrix(1,0,0,-1,0,66.5)"
       gradientUnits="userSpaceOnUse">
      <stop
         offset="0"
         style="stop-color:#15C7FF"
         id="stop3-0" />
      <stop
         offset="1"
         style="stop-color:#005A9E"
         id="stop4-9" />
    </radialGradient>
    <linearGradient
       id="SVGID_3_"
       gradientUnits="userSpaceOnUse"
       x1="8"
       y1="39.25"
       x2="56"
       y2="39.25"
       gradientTransform="matrix(1,0,0,-1,0,66.5)">
      <stop
         offset="0"
         style="stop-color:#000000"
         id="stop5" />
      <stop
         offset="1"
         style="stop-color:#404040"
         id="stop6" />
    </linearGradient>
    <radialGradient
       id="SVGID_4_-6"
       cx="25.213699"
       cy="40.436501"
       r="32.348301"
       fx="16.568701"
       fy="32.5177"
       gradientTransform="matrix(1,0,0,-1,0,66.5)"
       gradientUnits="userSpaceOnUse">
      <stop
         offset="0"
         style="stop-color:#FFFFFF"
         id="stop7-2" />
      <stop
         offset="1"
         style="stop-color:#B7B7B7"
         id="stop8-9" />
    </radialGradient>
    <radialGradient
       id="SVGID_5_-5"
       cx="32"
       cy="27.799999"
       r="40.0672"
       fx="14.0595"
       fy="13.6449"
       gradientTransform="matrix(1,0,0,-1,0,66.5)"
       gradientUnits="userSpaceOnUse">
      <stop
         offset="0"
         style="stop-color:#000000"
         id="stop9-3" />
      <stop
         offset="1"
         style="stop-color:#545454"
         id="stop10-5" />
    </radialGradient>
    <radialGradient
       id="SVGID_6_-3"
       cx="32"
       cy="27"
       r="40.048599"
       fx="14.0678"
       fy="12.8514"
       gradientTransform="matrix(1,0,0,-1,0,66.5)"
       gradientUnits="userSpaceOnUse">
      <stop
         offset="0"
         style="stop-color:#00F0F4"
         id="stop11-6" />
      <stop
         offset="1"
         style="stop-color:#1598FF"
         id="stop12-7" />
    </radialGradient>
    <radialGradient
       id="SVGID_6_"
       cx="32"
       cy="39"
       r="40.048599"
       fx="14.0678"
       fy="24.8514"
       gradientUnits="userSpaceOnUse">
      <stop
         offset="0"
         style="stop-color:#00F0F4"
         id="stop11" />
      <stop
         offset="1"
         style="stop-color:#1598FF"
         id="stop12" />
    </radialGradient>
    <radialGradient
       id="SVGID_4_"
       cx="25.213699"
       cy="25.563499"
       r="32.348301"
       fx="16.568701"
       fy="17.644699"
       gradientUnits="userSpaceOnUse">
      <stop
         offset="0"
         style="stop-color:#FFFFFF"
         id="stop7" />
      <stop
         offset="1"
         style="stop-color:#B7B7B7"
         id="stop8" />
    </radialGradient>
    <radialGradient
       id="SVGID_2_"
       cx="28.128099"
       cy="25.073299"
       r="40.0504"
       fx="5.4853001"
       fy="7.4745002"
       gradientUnits="userSpaceOnUse">
      <stop
         offset="0"
         style="stop-color:#15C7FF"
         id="stop3" />
      <stop
         offset="1"
         style="stop-color:#005A9E"
         id="stop4" />
    </radialGradient>
  </defs>
  <sodipodi:namedview
     id="namedview5"
     pagecolor="#ffffff"
     bordercolor="#000000"
     borderopacity="0.25"
     inkscape:showpageshadow="2"
     inkscape:pageopacity="0.0"
     inkscape:pagecheckerboard="0"
     inkscape:deskcolor="#d1d1d1"
     inkscape:zoom="9.7006212"
     inkscape:cx="34.379242"
     inkscape:cy="30.204251"
     inkscape:window-width="1920"
     inkscape:window-height="1014"
     inkscape:window-x="0"
     inkscape:window-y="0"
     inkscape:window-maximized="1"
     inkscape:current-layer="svg5" />
  <g
     id="g1"
     transform="translate(4.2095781e-7,0.19628996)">
    <path
       d="M 11.599609,6.5996094 C 7.3996178,6.5996094 4,9.9992271 4,14.199219 V 30 c 0,-4.999985 4.000015,-9 9,-9 h 38 c 4.564943,0 8.28562,3.337322 8.900391,7.722656 v -8.523437 c 0,-4.199992 -3.399618,-7.59961 -7.59961,-7.59961 H 32 c -4.199992,0 -5.60079,-5.9999996 -9.800781,-5.9999996 z"
       style="fill:url(#SVGID_2_)"
       id="path17" />
    <path
       d="M 11.400391,16.599609 C 9.5003959,16.599609 8,18.100006 8,20 v 2.501953 C 9.4270033,21.553027 11.143947,21 13,21 h 38 c 1.856053,0 3.572997,0.553027 5,1.501953 V 20 c 0,-1.899994 -1.500396,-3.400391 -3.400391,-3.400391 z"
       style="fill:url(#SVGID_4_)"
       id="path15" />
    <path
       d="m 13,21 c -4.99999,0 -9,4.00001 -9,9 v 18 c 0,4.99999 4.00001,9 9,9 h 38 c 4.99999,0 9,-4.00001 9,-9 V 30 c 0,-4.99999 -4.00001,-9 -9,-9 z"
       style="fill:url(#SVGID_6_)"
       id="path16" />
  </g>
  <path
     style="opacity:0.3;fill:#000000;fill-opacity:1;stroke-width:0.595683"
     d="m 42.550054,39.307129 c -0.518594,0 -0.936107,0.417493 -0.936107,0.936106 v 4.093459 c 0,0.518594 0.417494,0.936106 0.936107,0.936106 0.518593,0 0.85094,-0.417493 0.85094,-0.936106 v -2.13861 l 1.787169,1.701837 v 1.491899 h 1.812609 v -0.229667 c 0,-0.259301 0.208746,-0.468047 0.468047,-0.468047 h 0.229669 v -1.812742 h -1.491899 l -1.701796,-1.787079 h 2.138653 c 0.518593,0 0.936106,-0.332351 0.936106,-0.850964 0,-0.518594 -0.417493,-0.936107 -0.936106,-0.936107 h -4.093413 z m 7.139405,0 c -0.518594,0 -0.936106,0.417493 -0.936106,0.936106 0,0.518594 0.417493,0.850965 0.936106,0.850965 h 2.138652 l -1.70186,1.787014 h -1.4919 v 1.812741 h 0.229715 c 0.259301,0 0.468047,0.208747 0.468047,0.468046 v 0.229668 h 1.812398 V 43.89977 l 1.787609,-1.701771 v 2.138695 c 0,0.518594 0.391591,0.936106 0.910204,0.936106 0.518593,0 0.876634,-0.417493 0.876634,-0.936106 V 40.24315 c 0,-0.518594 -0.417493,-0.936106 -0.936106,-0.936106 h -4.093478 z m -4.501558,7.02047 v 1.574122 c 0,0.518968 0.119755,0.919865 0.63846,0.936369 h 1.872147 v -1.812611 h -0.229669 c -0.2593,0 -0.402934,-0.217055 -0.468046,-0.468046 v -0.229618 h -1.812611 z m 4.144232,0 v 0.229617 c 0,0.2593 -0.208746,0.468046 -0.468048,0.468046 h -0.229714 v 1.812612 h 1.491899 l 1.701841,1.787285 h -2.138652 c -0.518594,0 -0.936106,0.392186 -0.936106,0.910798 0,0.518594 0.417493,0.876249 0.936106,0.876249 h 4.093367 c 0.518311,6.55e-4 0.935713,-0.416747 0.935713,-0.935713 v -4.09319 c 0,-0.518593 -0.358022,-0.936107 -0.876635,-0.936107 -0.518593,0 -0.910203,0.417493 -0.910203,0.936107 v 2.138653 l -1.787675,-1.701495 v -1.491898 h -1.812398 z"
     id="path4" />
</svg>
