<?xml version="1.0" encoding="UTF-8" standalone="no"?>
<svg
   width="64"
   height="64"
   version="1"
   id="svg5"
   sodipodi:docname="folder-blue-obsidian.svg"
   inkscape:version="1.3.2 (091e20ef0f, 2023-11-25, custom)"
   xmlns:inkscape="http://www.inkscape.org/namespaces/inkscape"
   xmlns:sodipodi="http://sodipodi.sourceforge.net/DTD/sodipodi-0.dtd"
   xmlns="http://www.w3.org/2000/svg"
   xmlns:svg="http://www.w3.org/2000/svg">
  <defs
     id="defs5">
    <inkscape:path-effect
       effect="fillet_chamfer"
       id="path-effect1"
       is_visible="true"
       lpeversion="1"
       nodesatellites_param="F,0,0,1,0,0,0,1 @ F,0,0,1,0,0,0,1 @ F,0,0,1,0,0,0,1 @ F,0,0,1,0,0.43596658,0,1 @ F,0,0,1,0,0.59567766,0,1 @ F,0,0,1,0,0.59567766,0,1 @ F,0,0,1,0,0,0,1 @ F,0,0,1,0,0,0,1 @ F,0,0,1,0,0,0,1 @ F,0,0,1,0,0,0,1 @ F,0,0,1,0,0,0,1 @ F,0,0,1,0,0.43943014,0,1 | F,0,0,1,0,0.68711815,0,1 @ F,0,0,1,0,0,0,1 @ F,0,0,1,0,0,0,1 @ F,0,0,1,0,0,0,1 @ F,0,0,1,0,0,0,1 @ F,0,0,1,0,0,0,1 @ F,0,0,1,0,0.72291026,0,1 @ F,0,0,1,0,0,0,1 @ F,0,0,1,0,0.79039855,0,1 @ F,0,0,1,0,0,0,1 @ F,0,0,1,0,0,0,1 @ F,0,0,1,0,0,0,1 @ F,0,0,1,0,0,0,1 @ F,0,0,1,0,0,0,1 | F,0,0,1,0,0.43596658,0,1 @ F,0,0,1,0,0,0,1 @ F,0,0,1,0,0,0,1 @ F,0,0,1,0,1.1828249,0,1 @ F,0,0,1,0,0,0,1 @ F,0,0,1,0,0,0,1 | F,0,0,1,0,0,0,1 @ F,0,0,1,0,0,0,1 @ F,0,0,1,0,0.59567766,0,1 @ F,0,0,1,0,1.1828249,0,1 @ F,0,0,1,0,0,0,1 @ F,0,0,1,0,0,0,1 @ F,0,0,1,0,0,0,1 @ F,0,0,1,0,0.50741953,0,1 @ F,0,0,1,0,0,0,1 @ F,0,0,1,0,0,0,1 @ F,0,0,1,0,0,0,1"
       radius="0"
       unit="px"
       method="auto"
       mode="F"
       chamfer_steps="1"
       flexible="false"
       use_knot_distance="true"
       apply_no_radius="true"
       apply_with_radius="true"
       only_selected="false"
       hide_knots="false" />
    <radialGradient
       id="SVGID_1_-3"
       cx="28.128099"
       cy="41.513599"
       r="40.0504"
       fx="5.4853001"
       fy="23.914801"
       gradientTransform="matrix(1,0,0,-1,0,66.5)"
       gradientUnits="userSpaceOnUse">
      <stop
         offset="0"
         style="stop-color:#000000"
         id="stop1-6" />
      <stop
         offset="1"
         style="stop-color:#545454"
         id="stop2-0" />
    </radialGradient>
    <radialGradient
       id="SVGID_2_-7"
       cx="28.128099"
       cy="40.926701"
       r="40.0504"
       fx="5.4853001"
       fy="23.3279"
       gradientTransform="matrix(1,0,0,-1,0,66.5)"
       gradientUnits="userSpaceOnUse">
      <stop
         offset="0"
         style="stop-color:#15C7FF"
         id="stop3-0" />
      <stop
         offset="1"
         style="stop-color:#005A9E"
         id="stop4-9" />
    </radialGradient>
    <linearGradient
       id="SVGID_3_"
       gradientUnits="userSpaceOnUse"
       x1="8"
       y1="39.25"
       x2="56"
       y2="39.25"
       gradientTransform="matrix(1,0,0,-1,0,66.5)">
      <stop
         offset="0"
         style="stop-color:#000000"
         id="stop5" />
      <stop
         offset="1"
         style="stop-color:#404040"
         id="stop6" />
    </linearGradient>
    <radialGradient
       id="SVGID_4_-6"
       cx="25.213699"
       cy="40.436501"
       r="32.348301"
       fx="16.568701"
       fy="32.5177"
       gradientTransform="matrix(1,0,0,-1,0,66.5)"
       gradientUnits="userSpaceOnUse">
      <stop
         offset="0"
         style="stop-color:#FFFFFF"
         id="stop7-2" />
      <stop
         offset="1"
         style="stop-color:#B7B7B7"
         id="stop8-9" />
    </radialGradient>
    <radialGradient
       id="SVGID_5_-5"
       cx="32"
       cy="27.799999"
       r="40.0672"
       fx="14.0595"
       fy="13.6449"
       gradientTransform="matrix(1,0,0,-1,0,66.5)"
       gradientUnits="userSpaceOnUse">
      <stop
         offset="0"
         style="stop-color:#000000"
         id="stop9-3" />
      <stop
         offset="1"
         style="stop-color:#545454"
         id="stop10-5" />
    </radialGradient>
    <radialGradient
       id="SVGID_6_-3"
       cx="32"
       cy="27"
       r="40.048599"
       fx="14.0678"
       fy="12.8514"
       gradientTransform="matrix(1,0,0,-1,0,66.5)"
       gradientUnits="userSpaceOnUse">
      <stop
         offset="0"
         style="stop-color:#00F0F4"
         id="stop11-6" />
      <stop
         offset="1"
         style="stop-color:#1598FF"
         id="stop12-7" />
    </radialGradient>
    <radialGradient
       id="SVGID_6_"
       cx="32"
       cy="39"
       r="40.048599"
       fx="14.0678"
       fy="24.8514"
       gradientUnits="userSpaceOnUse">
      <stop
         offset="0"
         style="stop-color:#00F0F4"
         id="stop11" />
      <stop
         offset="1"
         style="stop-color:#1598FF"
         id="stop12" />
    </radialGradient>
    <radialGradient
       id="SVGID_4_"
       cx="25.213699"
       cy="25.563499"
       r="32.348301"
       fx="16.568701"
       fy="17.644699"
       gradientUnits="userSpaceOnUse">
      <stop
         offset="0"
         style="stop-color:#FFFFFF"
         id="stop7" />
      <stop
         offset="1"
         style="stop-color:#B7B7B7"
         id="stop8" />
    </radialGradient>
    <radialGradient
       id="SVGID_2_"
       cx="28.128099"
       cy="25.073299"
       r="40.0504"
       fx="5.4853001"
       fy="7.4745002"
       gradientUnits="userSpaceOnUse">
      <stop
         offset="0"
         style="stop-color:#15C7FF"
         id="stop3" />
      <stop
         offset="1"
         style="stop-color:#005A9E"
         id="stop4" />
    </radialGradient>
  </defs>
  <sodipodi:namedview
     id="namedview5"
     pagecolor="#ffffff"
     bordercolor="#000000"
     borderopacity="0.25"
     inkscape:showpageshadow="2"
     inkscape:pageopacity="0.0"
     inkscape:pagecheckerboard="0"
     inkscape:deskcolor="#d1d1d1"
     inkscape:zoom="11.313709"
     inkscape:cx="35.48792"
     inkscape:cy="27.665552"
     inkscape:window-width="1920"
     inkscape:window-height="1014"
     inkscape:window-x="0"
     inkscape:window-y="0"
     inkscape:window-maximized="1"
     inkscape:current-layer="svg5" />
  <g
     id="g1"
     transform="translate(4.209578e-7,0.19628996)">
    <path
       d="M 11.599609,6.5996094 C 7.3996178,6.5996094 4,9.9992271 4,14.199219 V 30 c 0,-4.999985 4.000015,-9 9,-9 h 38 c 4.564943,0 8.28562,3.337322 8.900391,7.722656 v -8.523437 c 0,-4.199992 -3.399618,-7.59961 -7.59961,-7.59961 H 32 c -4.199992,0 -5.60079,-5.9999996 -9.800781,-5.9999996 z"
       style="fill:url(#SVGID_2_)"
       id="path17" />
    <path
       d="M 11.400391,16.599609 C 9.5003959,16.599609 8,18.100006 8,20 v 2.501953 C 9.4270033,21.553027 11.143947,21 13,21 h 38 c 1.856053,0 3.572997,0.553027 5,1.501953 V 20 c 0,-1.899994 -1.500396,-3.400391 -3.400391,-3.400391 z"
       style="fill:url(#SVGID_4_)"
       id="path15" />
    <path
       d="m 13,21 c -4.99999,0 -9,4.00001 -9,9 v 18 c 0,4.99999 4.00001,9 9,9 h 38 c 4.99999,0 9,-4.00001 9,-9 V 30 c 0,-4.99999 -4.00001,-9 -9,-9 z"
       style="fill:url(#SVGID_6_)"
       id="path16" />
  </g>
  <path
     d="m 48.851718,35.655458 c -0.607523,0.148414 -1.000776,0.694233 -1.4896,1.054081 -1.01086,0.879202 -2.061435,1.717148 -3.046841,2.6228 -0.370984,0.534817 -0.307427,1.226619 -0.448221,1.841031 -0.05397,0.452878 -0.281939,1.040103 0.203415,1.345371 1.129852,0.688372 2.07489,1.691952 2.623098,2.901983 0.332218,0.550935 1.740436,0.476832 1.580027,-0.327768 -0.554861,-1.730832 -0.625806,-3.69045 0.252929,-5.331464 0.517312,-1.043883 1.309571,-2.164841 0.940209,-3.389825 -0.06143,-0.320982 -0.23487,-0.701918 -0.615016,-0.716209 z m 1.53125,0.882813 c -0.231915,0.549528 -0.066,1.39004 -0.434837,1.991571 -0.582747,1.248724 -1.410477,2.463604 -1.376036,3.901075 0.01737,0.958182 0.153023,1.957528 0.567124,2.82625 0.500414,0.650064 1.418951,0.517988 2.065222,0.941762 1.161155,0.58137 1.992893,1.634704 2.631971,2.736305 0.856444,0.523842 1.128977,-1.110028 1.632528,-1.58042 0.685382,-0.710268 -0.233238,-1.374592 -0.661622,-1.912622 -0.691449,-0.78188 -1.214806,-1.750102 -1.218637,-2.817497 -0.08857,-0.767196 0.08218,-1.552045 -0.06979,-2.309001 -0.307605,-0.601664 -0.833965,-1.063812 -1.242511,-1.600667 -0.602111,-0.705274 -1.179625,-1.43278 -1.797801,-2.123533 z m -6.683593,6.673828 c -0.415612,0.114778 -0.444173,0.638385 -0.648398,0.962781 -0.530011,1.183716 -1.093359,2.354118 -1.601894,3.546415 -0.211355,0.628355 0.23545,1.162176 0.703673,1.509584 0.765108,0.655122 1.494746,1.356091 2.283477,1.980699 0.698166,0.43477 1.300082,-0.318908 1.423226,-0.954065 0.620338,-1.499402 0.853445,-3.273286 0.07205,-4.759108 -0.470473,-0.934512 -1.222685,-1.733996 -2.113417,-2.275408 l -0.118717,-0.01089 z m 5.091797,3.15625 c -0.6476,0.0093 -1.849115,-0.04792 -1.661447,0.935662 0.07916,1.370597 -0.389498,2.690187 -0.882292,3.944837 -0.195892,0.939328 0.943059,0.920298 1.569209,0.923659 1.295094,0.09181 2.567312,0.373087 3.83128,0.643878 0.926494,-0.04885 1.320052,-1.060222 1.709613,-1.76116 0.404561,-0.601468 0.144795,-1.323485 -0.217797,-1.870285 -0.75518,-1.445023 -2.134904,-2.679897 -3.821177,-2.789958 -0.175235,-0.0173 -0.351382,-0.02566 -0.527389,-0.02663 z"
     style="opacity:0.3;stroke-width:0.716521"
     id="path1" />
</svg>
