<?xml version="1.0" encoding="UTF-8" standalone="no"?>
<!-- Generator: Adobe Illustrator 25.2.1, SVG Export Plug-In . SVG Version: 6.00 Build 0)  -->

<svg
   version="1.1"
   id="Layer_1"
   x="0px"
   y="0px"
   viewBox="0 0 64 64"
   style="enable-background:new 0 0 64 64;"
   xml:space="preserve"
   sodipodi:docname="folder-blue-copy-cloud.svg"
   inkscape:version="1.3.2 (091e20ef0f, 2023-11-25, custom)"
   xmlns:inkscape="http://www.inkscape.org/namespaces/inkscape"
   xmlns:sodipodi="http://sodipodi.sourceforge.net/DTD/sodipodi-0.dtd"
   xmlns="http://www.w3.org/2000/svg"
   xmlns:svg="http://www.w3.org/2000/svg"><defs
   id="defs14"><inkscape:path-effect
     effect="fillet_chamfer"
     id="path-effect1"
     is_visible="true"
     lpeversion="1"
     nodesatellites_param="F,0,0,1,0,0.39320954,0,1 @ F,0,0,1,0,0.39320954,0,1 @ F,0,0,1,0,0.39320954,0,1 @ F,0,0,1,0,0.30174711,0,1 @ F,0,0,1,0,0.39320954,0,1 | F,0,0,1,0,1.0538914,0,1 @ F,0,0,1,0,0,0,1 @ F,0,0,1,0,2.2660946,0,1 @ F,0,0,1,0,0.93879918,0,1 @ F,0,0,1,0,11.547306,0,1 @ F,0,0,1,0,0,0,1 @ F,0,0,1,0,0,0,1 @ F,0,0,1,0,0.80071151,0,1 @ F,0,0,1,0,2.4325445,0,1 @ F,0,0,1,0,1.0538914,0,1 | F,0,0,1,0,0.69853441,0,1 @ F,0,0,1,0,0.48105434,0,1 @ F,0,0,1,0,1.9196119,0,1 @ F,0,0,1,0,0.29451349,0,1 @ F,0,0,1,0,0.69853441,0,1"
     radius="0"
     unit="px"
     method="auto"
     mode="F"
     chamfer_steps="1"
     flexible="false"
     use_knot_distance="true"
     apply_no_radius="true"
     apply_with_radius="true"
     only_selected="false"
     hide_knots="false" /><radialGradient
     id="SVGID_6_-3"
     cx="32"
     cy="39"
     r="40.048599"
     fx="14.0678"
     fy="24.8514"
     gradientUnits="userSpaceOnUse"
     gradientTransform="translate(4.209578e-7,0.19628996)">
	<stop
   offset="0"
   style="stop-color:#00F0F4"
   id="stop11-6" />
	<stop
   offset="1"
   style="stop-color:#1598FF"
   id="stop12-7" />
</radialGradient><radialGradient
     id="SVGID_4_-5"
     cx="25.213699"
     cy="25.563499"
     r="32.348301"
     fx="16.568701"
     fy="17.644699"
     gradientUnits="userSpaceOnUse"
     gradientTransform="translate(4.209578e-7,0.19628996)">
	<stop
   offset="0"
   style="stop-color:#FFFFFF"
   id="stop7-3" />
	<stop
   offset="1"
   style="stop-color:#B7B7B7"
   id="stop8-5" />
</radialGradient><radialGradient
     id="SVGID_2_-6"
     cx="28.128099"
     cy="25.073299"
     r="40.0504"
     fx="5.4853001"
     fy="7.4745002"
     gradientUnits="userSpaceOnUse"
     gradientTransform="translate(4.209578e-7,0.19628996)">
	<stop
   offset="0"
   style="stop-color:#15C7FF"
   id="stop3-2" />
	<stop
   offset="1"
   style="stop-color:#005A9E"
   id="stop4-9" />
</radialGradient></defs><sodipodi:namedview
   id="namedview14"
   pagecolor="#ffffff"
   bordercolor="#000000"
   borderopacity="0.25"
   inkscape:showpageshadow="2"
   inkscape:pageopacity="0.0"
   inkscape:pagecheckerboard="0"
   inkscape:deskcolor="#d1d1d1"
   inkscape:zoom="6.9453125"
   inkscape:cx="30.164229"
   inkscape:cy="20.013498"
   inkscape:window-width="1920"
   inkscape:window-height="1020"
   inkscape:window-x="0"
   inkscape:window-y="0"
   inkscape:window-maximized="1"
   inkscape:current-layer="Layer_1" />
<style
   type="text/css"
   id="style1">
	.st0{opacity:0.15;fill:url(#SVGID_1_);}
	.st1{fill:url(#SVGID_2_);}
	.st2{opacity:0.34;fill:url(#SVGID_3_);}
	.st3{fill:url(#SVGID_4_);}
	.st4{opacity:0.12;fill:url(#SVGID_5_);}
	.st5{fill:url(#SVGID_6_);}
	.st6{fill:url(#SVGID_7_);}
</style>
<radialGradient
   id="SVGID_1_"
   cx="28.1281"
   cy="24.4864"
   r="40.0504"
   fx="5.4853"
   fy="6.8876"
   gradientUnits="userSpaceOnUse">
	<stop
   offset="0"
   style="stop-color:#000000"
   id="stop1" />
	<stop
   offset="1"
   style="stop-color:#545454"
   id="stop2" />
</radialGradient>

<radialGradient
   id="SVGID_2_"
   cx="28.1281"
   cy="25.0733"
   r="40.0504"
   fx="5.4853"
   fy="7.4745"
   gradientUnits="userSpaceOnUse">
	<stop
   offset="0"
   style="stop-color:#15C7FF"
   id="stop3" />
	<stop
   offset="1"
   style="stop-color:#005A9E"
   id="stop4" />
</radialGradient>

<linearGradient
   id="SVGID_3_"
   gradientUnits="userSpaceOnUse"
   x1="8"
   y1="26.7181"
   x2="56"
   y2="26.7181">
	<stop
   offset="0"
   style="stop-color:#000000"
   id="stop5" />
	<stop
   offset="1"
   style="stop-color:#404040"
   id="stop6" />
</linearGradient>

<radialGradient
   id="SVGID_4_"
   cx="25.2137"
   cy="25.5635"
   r="32.3483"
   fx="16.5687"
   fy="17.6447"
   gradientUnits="userSpaceOnUse">
	<stop
   offset="0"
   style="stop-color:#FFFFFF"
   id="stop7" />
	<stop
   offset="1"
   style="stop-color:#B7B7B7"
   id="stop8" />
</radialGradient>

<radialGradient
   id="SVGID_5_"
   cx="32"
   cy="38.1714"
   r="40.0486"
   fx="14.0678"
   fy="24.0229"
   gradientUnits="userSpaceOnUse">
	<stop
   offset="0"
   style="stop-color:#000000"
   id="stop9" />
	<stop
   offset="1"
   style="stop-color:#545454"
   id="stop10" />
</radialGradient>

<radialGradient
   id="SVGID_6_"
   cx="32"
   cy="39"
   r="40.0486"
   fx="14.0678"
   fy="24.8514"
   gradientUnits="userSpaceOnUse">
	<stop
   offset="0"
   style="stop-color:#00F0F4"
   id="stop11" />
	<stop
   offset="1"
   style="stop-color:#1598FF"
   id="stop12" />
</radialGradient>

<linearGradient
   id="SVGID_7_"
   gradientUnits="userSpaceOnUse"
   x1="36.2139"
   y1="38.7708"
   x2="58.0968"
   y2="51.4997">
	<stop
   offset="0"
   style="stop-color:#15C7FF"
   id="stop13" />
	<stop
   offset="1"
   style="stop-color:#005A9E"
   id="stop14" />
</linearGradient>
<path
   d="m 11.599609,6.7958994 c -4.1999908,0 -7.5996086,3.3996176 -7.5996086,7.5996096 V 30.19629 c 0,-4.999985 4.000015,-9 8.9999996,-9 h 38 c 4.564943,0 8.28562,3.337322 8.900391,7.722656 v -8.523437 c 0,-4.199992 -3.399618,-7.59961 -7.59961,-7.59961 H 32 c -4.199992,0 -5.60079,-5.9999996 -9.800781,-5.9999996 z"
   style="fill:url(#SVGID_2_-6)"
   id="path17" /><path
   d="m 11.400391,16.795899 c -1.8999947,0 -3.4003906,1.500397 -3.4003906,3.400391 v 2.501953 C 9.4270037,21.749317 11.143947,21.19629 13,21.19629 h 38 c 1.856053,0 3.572997,0.553027 5,1.501953 V 20.19629 c 0,-1.899994 -1.500396,-3.400391 -3.400391,-3.400391 z"
   style="fill:url(#SVGID_4_-5)"
   id="path15" /><path
   d="m 13,21.19629 c -4.9999896,0 -8.9999996,4.00001 -8.9999996,9 v 18 c 0,4.99999 4.00001,9 8.9999996,9 h 38 c 4.99999,0 9,-4.00001 9,-9 v -18 c 0,-4.99999 -4.00001,-9 -9,-9 z"
   style="fill:url(#SVGID_6_-3)"
   id="path16" /><path
   class="st6"
   d="m 52.020563,37.492049 -3.796929,5.888656 a 0.45183093,0.45183093 81.78171 0 0 0.0848,0.58714 l 0.498753,0.429755 a 0.77879346,0.77879346 13.961007 0 0 0.681277,0.169369 l 0.05017,-0.01143 a 0.81789217,0.81789217 7.4226519 0 1 0.561446,0.07315 l 0.773856,0.405824 a 0.2726951,0.2726951 152.41504 0 0 0.397218,-0.207528 l 0.913503,-7.275259 a 0.08953936,0.08953936 19.985085 0 0 -0.164094,-0.05968 z m -14.325468,3.617761 -2.97324,2.162356 2.83699,-0.128954 a 2.8664323,2.8664323 35.726022 0 1 2.886301,2.076006 l 1.669921,5.844724 a 0.55239232,0.55239232 14.527291 0 0 0.921739,0.238846 13.973405,13.973405 3.1433212 0 1 12.088035,0.663832 l 0,0 -3.82556,-6.375933 -0.927753,-0.530144 a 1.3895534,1.3895534 179.79275 0 0 -1.387532,0.005 l -3.374362,1.960724 a 2.131045,2.131045 18.620455 0 1 -3.038058,-1.023628 l -1.648417,-3.960122 a 2.2089959,2.2089959 41.894907 0 0 -1.416068,-1.270338 2.0867529,2.0867529 169.44566 0 0 -1.811996,0.337612 z m 7.335453,2.538904 -1.904617,1.218955 a 0.57707446,0.57707446 107.56587 0 0 -0.223035,0.704552 l 0.134363,0.328444 a 1.6877436,1.6877436 19.07327 0 0 2.395847,0.828385 l 3.175661,-1.804353 a 0.20127393,0.20127393 94.744709 0 0 0.02749,-0.33121 l -1.084099,-0.88083 a 1.9674772,1.9674772 19.546931 0 0 -1.240676,-0.440491 2.3771373,2.3771373 163.6186 0 0 -1.280935,0.376548 z"
   id="path14"
   style="opacity:0.3;fill:#000000;fill-opacity:1;stroke-width:1.15926"
   inkscape:path-effect="#path-effect1"
   inkscape:original-d="m 52.233645,37.16158 -4.223093,6.549594 1.094517,0.943097 0.727781,-0.165722 1.389316,0.728582 z m -13.68623,3.328361 -3.82556,2.782225 5.100747,-0.231852 2.550373,8.926306 1.275186,-1.275187 11.47668,1.275187 -3.82556,-6.375933 -1.622965,-0.927408 -6.169936,3.585134 -2.988222,-7.178842 z m 7.071489,2.782225 -2.898151,1.854817 1.043334,2.550373 5.100747,-2.898151 -1.854817,-1.507039 z"
   sodipodi:nodetypes="ccccccccccccccccccccccc" />
</svg>
