<?xml version="1.0" encoding="UTF-8" standalone="no"?>
<!-- Generator: Adobe Illustrator 25.2.1, SVG Export Plug-In . SVG Version: 6.00 Build 0)  -->

<svg
   version="1.1"
   id="Layer_1"
   x="0px"
   y="0px"
   viewBox="0 0 64 64"
   style="enable-background:new 0 0 64 64;"
   xml:space="preserve"
   sodipodi:docname="folder-blue-linux.svg"
   inkscape:version="1.3.2 (091e20ef0f, 2023-11-25, custom)"
   xmlns:inkscape="http://www.inkscape.org/namespaces/inkscape"
   xmlns:sodipodi="http://sodipodi.sourceforge.net/DTD/sodipodi-0.dtd"
   xmlns="http://www.w3.org/2000/svg"
   xmlns:svg="http://www.w3.org/2000/svg"><defs
   id="defs14"><radialGradient
     id="SVGID_6_-9"
     cx="32"
     cy="39"
     r="40.048599"
     fx="14.0678"
     fy="24.8514"
     gradientUnits="userSpaceOnUse"
     gradientTransform="translate(4.209578e-7,0.19628996)">
	<stop
   offset="0"
   style="stop-color:#00F0F4"
   id="stop11-5" />
	<stop
   offset="1"
   style="stop-color:#1598FF"
   id="stop12-0" />
</radialGradient><radialGradient
     id="SVGID_4_-4"
     cx="25.213699"
     cy="25.563499"
     r="32.348301"
     fx="16.568701"
     fy="17.644699"
     gradientUnits="userSpaceOnUse"
     gradientTransform="translate(4.209578e-7,0.19628996)">
	<stop
   offset="0"
   style="stop-color:#FFFFFF"
   id="stop7-8" />
	<stop
   offset="1"
   style="stop-color:#B7B7B7"
   id="stop8-7" />
</radialGradient><radialGradient
     id="SVGID_2_-1"
     cx="28.128099"
     cy="25.073299"
     r="40.0504"
     fx="5.4853001"
     fy="7.4745002"
     gradientUnits="userSpaceOnUse"
     gradientTransform="translate(4.209578e-7,0.19628996)">
	<stop
   offset="0"
   style="stop-color:#15C7FF"
   id="stop3-7" />
	<stop
   offset="1"
   style="stop-color:#005A9E"
   id="stop4-2" />
</radialGradient></defs><sodipodi:namedview
   id="namedview14"
   pagecolor="#ffffff"
   bordercolor="#000000"
   borderopacity="0.25"
   inkscape:showpageshadow="2"
   inkscape:pageopacity="0.0"
   inkscape:pagecheckerboard="0"
   inkscape:deskcolor="#d1d1d1"
   inkscape:zoom="9.8221551"
   inkscape:cx="22.551059"
   inkscape:cy="37.211793"
   inkscape:window-width="1920"
   inkscape:window-height="1014"
   inkscape:window-x="0"
   inkscape:window-y="0"
   inkscape:window-maximized="1"
   inkscape:current-layer="Layer_1" />
<style
   type="text/css"
   id="style1">
	.st0{opacity:0.15;fill:url(#SVGID_1_);enable-background:new    ;}
	.st1{fill:url(#SVGID_2_);}
	.st2{opacity:0.34;fill:url(#SVGID_3_);enable-background:new    ;}
	.st3{fill:url(#SVGID_4_);}
	.st4{opacity:0.12;fill:url(#SVGID_5_);enable-background:new    ;}
	.st5{fill:url(#SVGID_6_);}
	.st6{fill:url(#SVGID_7_);}
</style>
<radialGradient
   id="SVGID_1_"
   cx="28.1281"
   cy="41.5136"
   r="40.0504"
   fx="5.4853"
   fy="23.9148"
   gradientTransform="matrix(1 0 0 -1 0 66)"
   gradientUnits="userSpaceOnUse">
	<stop
   offset="0"
   style="stop-color:#000000"
   id="stop1" />
	<stop
   offset="1"
   style="stop-color:#545454"
   id="stop2" />
</radialGradient>

<radialGradient
   id="SVGID_2_"
   cx="28.1281"
   cy="40.9267"
   r="40.0504"
   fx="5.4853"
   fy="23.3279"
   gradientTransform="matrix(1 0 0 -1 0 66)"
   gradientUnits="userSpaceOnUse">
	<stop
   offset="0"
   style="stop-color:#15C7FF"
   id="stop3" />
	<stop
   offset="1"
   style="stop-color:#005A9E"
   id="stop4" />
</radialGradient>

<linearGradient
   id="SVGID_3_"
   gradientUnits="userSpaceOnUse"
   x1="8"
   y1="39.25"
   x2="56"
   y2="39.25"
   gradientTransform="matrix(1 0 0 -1 0 66)">
	<stop
   offset="0"
   style="stop-color:#000000"
   id="stop5" />
	<stop
   offset="1"
   style="stop-color:#404040"
   id="stop6" />
</linearGradient>

<radialGradient
   id="SVGID_4_"
   cx="25.2137"
   cy="40.4365"
   r="32.3483"
   fx="16.5687"
   fy="32.5177"
   gradientTransform="matrix(1 0 0 -1 0 66)"
   gradientUnits="userSpaceOnUse">
	<stop
   offset="0"
   style="stop-color:#FFFFFF"
   id="stop7" />
	<stop
   offset="1"
   style="stop-color:#B7B7B7"
   id="stop8" />
</radialGradient>

<radialGradient
   id="SVGID_5_"
   cx="32"
   cy="27.8"
   r="40.0672"
   fx="14.0595"
   fy="13.6449"
   gradientTransform="matrix(1 0 0 -1 0 66)"
   gradientUnits="userSpaceOnUse">
	<stop
   offset="0"
   style="stop-color:#000000"
   id="stop9" />
	<stop
   offset="1"
   style="stop-color:#545454"
   id="stop10" />
</radialGradient>

<radialGradient
   id="SVGID_6_"
   cx="32"
   cy="27"
   r="40.0486"
   fx="14.0678"
   fy="12.8514"
   gradientTransform="matrix(1 0 0 -1 0 66)"
   gradientUnits="userSpaceOnUse">
	<stop
   offset="0"
   style="stop-color:#00F0F4"
   id="stop11" />
	<stop
   offset="1"
   style="stop-color:#1598FF"
   id="stop12" />
</radialGradient>

<linearGradient
   id="SVGID_7_"
   gradientUnits="userSpaceOnUse"
   x1="35.9621"
   y1="35.2789"
   x2="59.6448"
   y2="57.5741">
	<stop
   offset="0"
   style="stop-color:#15C7FF"
   id="stop13" />
	<stop
   offset="1"
   style="stop-color:#005A9E"
   id="stop14" />
</linearGradient>

<path
   d="m 11.599609,6.7958994 c -4.1999908,0 -7.5996086,3.3996176 -7.5996086,7.5996096 V 30.19629 c 0,-4.999985 4.000015,-9 8.9999996,-9 h 38 c 4.564943,0 8.28562,3.337322 8.900391,7.722656 v -8.523437 c 0,-4.199992 -3.399618,-7.59961 -7.59961,-7.59961 H 32 c -4.199992,0 -5.60079,-5.9999996 -9.800781,-5.9999996 z"
   style="fill:url(#SVGID_2_-1)"
   id="path17" /><path
   d="m 11.400391,16.795899 c -1.8999947,0 -3.4003906,1.500397 -3.4003906,3.400391 v 2.501953 C 9.4270037,21.749317 11.143947,21.19629 13,21.19629 h 38 c 1.856053,0 3.572997,0.553027 5,1.501953 V 20.19629 c 0,-1.899994 -1.500396,-3.400391 -3.400391,-3.400391 z"
   style="fill:url(#SVGID_4_-4)"
   id="path15" /><path
   d="m 13,21.19629 c -4.9999896,0 -8.9999996,4.00001 -8.9999996,9 v 18 c 0,4.99999 4.00001,9 8.9999996,9 h 38 c 4.99999,0 9,-4.00001 9,-9 v -18 c 0,-4.99999 -4.00001,-9 -9,-9 z"
   style="fill:url(#SVGID_6_-9)"
   id="path16" /><path
   class="st6"
   d="m 47.791304,46.816711 c -1.555075,0.71772 -2.870906,0.71772 -3.827876,0.5981 -1.076591,-0.11962 -2.033559,-0.35886 -2.392424,-0.5981 -0.239241,-0.11962 -0.598105,-0.11962 -0.717726,0.11962 -0.119621,0.23924 -0.119621,0.5981 0.119621,0.71772 0.598105,0.47848 1.794317,0.71772 2.990529,0.83734 0.239242,0 0.358864,0 0.598106,0 1.076591,0 2.272802,-0.11962 3.708256,-0.71772 0.239243,-0.11962 0.358864,-0.47848 0.239243,-0.71772 -0.239243,-0.23924 -0.478485,-0.35886 -0.717729,-0.23924 z m 5.861439,-0.837339 c 0,-4.665179 0.478484,-13.397437 -8.373482,-12.679717 -8.732345,0.71772 -6.459544,9.928457 -6.579165,13.038577 -0.119621,1.315819 -0.478485,2.751259 -0.956968,4.306318 -0.239243,0.71772 0.239242,1.43544 1.076589,1.43544 v 0 c 0.478485,0 0.95697,-0.35886 1.076591,-0.83734 0.119621,-0.5981 0.239243,-1.196199 0.239243,-1.674679 0.119621,0.11962 0.239242,0.23924 0.478484,0.23924 0.239243,0.11962 0.478485,0.35886 0.717728,0.5981 0.598106,0.478479 1.196211,1.076579 2.512044,1.196199 0.119621,0 0.119621,0 0.239242,0 1.315833,0 2.15318,-0.5981 2.870908,-0.95696 0.358864,-0.239239 0.598106,-0.358859 0.837347,-0.478479 0.717729,-0.23924 1.435456,-0.5981 1.913941,-1.07658 0.119621,-0.11962 0.119621,-0.11962 0.239242,-0.23924 0.119621,0.5981 0.358863,1.1962 0.478484,1.794299 0.358863,0.95696 1.196212,1.55506 2.153181,1.55506 v 0 c 1.435454,0 2.392423,-1.55506 1.794317,-2.870879 -0.358863,-1.07658 -0.717726,-2.15316 -0.717726,-3.349359 z m -14.115298,-2.51202 v 0 c -0.119622,-1.555059 0.598106,-2.751259 1.674696,-2.870879 0.956969,0 1.794317,1.07658 1.913938,2.631639 0,0 0,0 0,0 0,0.11962 0,0.11962 0,0.23924 -0.358863,0.11962 -0.598105,0.23924 -0.837348,0.35886 0,0 0,0 0,0 v 0 c -0.119621,-0.83734 -0.598105,-1.555059 -1.07659,-1.435439 -0.478484,0 -0.837348,0.837339 -0.717727,1.674679 v 0 c 0,0.35886 0.119621,0.71772 0.239243,0.95696 0,0 -0.119622,0.11962 -0.239243,0.23924 -0.119621,0.11962 -0.239242,0.11962 -0.358863,0.23924 -0.239243,-0.5981 -0.478485,-1.1962 -0.598106,-2.03354 z m 10.048178,3.708219 c 0,0.83734 -1.07659,1.55506 -2.03356,1.91392 v 0 c -0.358864,0.11962 -0.717727,0.35886 -1.196212,0.5981 -0.598105,0.35886 -1.315832,0.837339 -2.272802,0.837339 -0.119621,0 -0.119621,0 -0.239242,0 -0.837349,0 -1.315833,-0.478479 -1.794317,-0.837339 -0.239243,-0.23924 -0.598106,-0.47848 -0.95697,-0.71772 v 0 c -0.837348,-0.47848 -1.315833,-0.95696 -1.315833,-1.43544 0,-0.23924 0.119621,-0.47848 0.358864,-0.5981 0.478484,-0.35886 0.837348,-0.598099 1.07659,-0.717719 0.239243,-0.11962 0.358863,-0.23924 0.358863,-0.23924 0,0 0.119622,-0.11962 0.119622,-0.11962 0.478484,-0.47848 1.196211,-1.1962 2.392423,-1.1962 0.717727,0 1.435455,0.23924 2.272802,0.83734 0.358864,0.23924 0.717727,0.35886 1.196212,0.47848 0.239241,0.11962 0.598106,0.23924 1.076591,0.35886 v 0 c 0.478485,0 0.956969,0.358859 0.956969,0.837339 z M 49.34638,45.381272 c -0.11962,0 -0.11962,-0.11962 -0.239241,-0.11962 -0.358864,-0.11962 -0.717728,-0.23924 -0.95697,-0.35886 0.119621,-0.23924 0.239242,-0.5981 0.239242,-1.07658 v 0 c 0,-0.95696 -0.478484,-1.794299 -1.07659,-1.794299 -0.598106,0 -1.196211,0.717719 -1.196211,1.794299 v 0 c 0,0 0,0.11962 0,0.11962 -0.358864,-0.11962 -0.717728,-0.35886 -1.076591,-0.35886 0,0 0,-0.11962 0,-0.11962 v 0 c 0,-1.794299 1.076591,-3.229739 2.392423,-3.229739 1.315833,0 2.512045,1.31582 2.512045,3.110119 v 0 c -0.119621,0.71772 -0.239242,1.43544 -0.598107,2.03354 z"
   id="path14"
   style="display:inline;opacity:0.3;fill:#000000;fill-opacity:1;stroke-width:1.00001"
   sodipodi:insensitive="true" /></svg>
