<?xml version="1.0" encoding="UTF-8" standalone="no"?>
<!-- Generator: Adobe Illustrator 25.2.1, SVG Export Plug-In . SVG Version: 6.00 Build 0)  -->

<svg
   version="1.1"
   id="Layer_1"
   x="0px"
   y="0px"
   viewBox="0 0 64 64"
   style="enable-background:new 0 0 64 64;"
   xml:space="preserve"
   sodipodi:docname="folder-blue-code.svg"
   inkscape:version="1.3.2 (091e20ef0f, 2023-11-25, custom)"
   xmlns:inkscape="http://www.inkscape.org/namespaces/inkscape"
   xmlns:sodipodi="http://sodipodi.sourceforge.net/DTD/sodipodi-0.dtd"
   xmlns="http://www.w3.org/2000/svg"
   xmlns:svg="http://www.w3.org/2000/svg"><defs
   id="defs14"><inkscape:path-effect
     effect="fillet_chamfer"
     id="path-effect1"
     is_visible="true"
     lpeversion="1"
     nodesatellites_param="F,0,0,1,0,0.31624605,0,1 @ F,0,0,1,0,0.31624605,0,1 @ F,0,0,1,0,0.63301856,0,1 @ F,0,0,1,0,0.63301856,0,1 @ F,0,0,1,0,0,0,1 @ F,0,0,1,0,0.67945981,0,1 @ F,0,0,1,0,0.67945981,0,1 | F,0,0,1,0,0.65808453,0,1 @ F,0,0,1,0,0.65808453,0,1 @ F,0,0,1,0,0.6592544,0,1 @ F,0,0,1,0,0.6592544,0,1 | F,0,0,1,0,0.67712758,0,1 @ F,0,0,1,0,0.67712758,0,1 @ F,0,0,1,0,0,0,1 @ F,0,0,1,0,0.67712758,0,1 @ F,0,0,1,0,0.67712758,0,1 @ F,0,0,1,0,0.33050177,0,1 @ F,0,1,1,0,0.33050177,0,1"
     radius="0"
     unit="px"
     method="auto"
     mode="F"
     chamfer_steps="1"
     flexible="false"
     use_knot_distance="true"
     apply_no_radius="true"
     apply_with_radius="true"
     only_selected="false"
     hide_knots="false" /><radialGradient
     id="SVGID_6_-3"
     cx="32"
     cy="39"
     r="40.048599"
     fx="14.0678"
     fy="24.8514"
     gradientUnits="userSpaceOnUse"
     gradientTransform="translate(4.209578e-7,0.19628996)">
	<stop
   offset="0"
   style="stop-color:#00F0F4"
   id="stop11-6" />
	<stop
   offset="1"
   style="stop-color:#1598FF"
   id="stop12-7" />
</radialGradient><radialGradient
     id="SVGID_4_-5"
     cx="25.213699"
     cy="25.563499"
     r="32.348301"
     fx="16.568701"
     fy="17.644699"
     gradientUnits="userSpaceOnUse"
     gradientTransform="translate(4.209578e-7,0.19628996)">
	<stop
   offset="0"
   style="stop-color:#FFFFFF"
   id="stop7-3" />
	<stop
   offset="1"
   style="stop-color:#B7B7B7"
   id="stop8-5" />
</radialGradient><radialGradient
     id="SVGID_2_-6"
     cx="28.128099"
     cy="25.073299"
     r="40.0504"
     fx="5.4853001"
     fy="7.4745002"
     gradientUnits="userSpaceOnUse"
     gradientTransform="translate(4.209578e-7,0.19628996)">
	<stop
   offset="0"
   style="stop-color:#15C7FF"
   id="stop3-2" />
	<stop
   offset="1"
   style="stop-color:#005A9E"
   id="stop4-9" />
</radialGradient></defs><sodipodi:namedview
   id="namedview14"
   pagecolor="#ffffff"
   bordercolor="#000000"
   borderopacity="0.25"
   inkscape:showpageshadow="2"
   inkscape:pageopacity="0.0"
   inkscape:pagecheckerboard="0"
   inkscape:deskcolor="#d1d1d1"
   inkscape:zoom="6.9453125"
   inkscape:cx="31.748031"
   inkscape:cy="29.660292"
   inkscape:window-width="1920"
   inkscape:window-height="1020"
   inkscape:window-x="0"
   inkscape:window-y="0"
   inkscape:window-maximized="1"
   inkscape:current-layer="Layer_1" />
<style
   type="text/css"
   id="style1">
	.st0{opacity:0.15;fill:url(#SVGID_1_);}
	.st1{fill:url(#SVGID_2_);}
	.st2{opacity:0.34;fill:url(#SVGID_3_);}
	.st3{fill:url(#SVGID_4_);}
	.st4{opacity:0.12;fill:url(#SVGID_5_);}
	.st5{fill:url(#SVGID_6_);}
	.st6{fill:url(#SVGID_7_);}
</style>
<radialGradient
   id="SVGID_1_"
   cx="28.1281"
   cy="24.4864"
   r="40.0504"
   fx="5.4853"
   fy="6.8876"
   gradientUnits="userSpaceOnUse">
	<stop
   offset="0"
   style="stop-color:#000000"
   id="stop1" />
	<stop
   offset="1"
   style="stop-color:#545454"
   id="stop2" />
</radialGradient>

<radialGradient
   id="SVGID_2_"
   cx="28.1281"
   cy="25.0733"
   r="40.0504"
   fx="5.4853"
   fy="7.4745"
   gradientUnits="userSpaceOnUse">
	<stop
   offset="0"
   style="stop-color:#15C7FF"
   id="stop3" />
	<stop
   offset="1"
   style="stop-color:#005A9E"
   id="stop4" />
</radialGradient>

<linearGradient
   id="SVGID_3_"
   gradientUnits="userSpaceOnUse"
   x1="8"
   y1="26.7181"
   x2="56"
   y2="26.7181">
	<stop
   offset="0"
   style="stop-color:#000000"
   id="stop5" />
	<stop
   offset="1"
   style="stop-color:#404040"
   id="stop6" />
</linearGradient>

<radialGradient
   id="SVGID_4_"
   cx="25.2137"
   cy="25.5635"
   r="32.3483"
   fx="16.5687"
   fy="17.6447"
   gradientUnits="userSpaceOnUse">
	<stop
   offset="0"
   style="stop-color:#FFFFFF"
   id="stop7" />
	<stop
   offset="1"
   style="stop-color:#B7B7B7"
   id="stop8" />
</radialGradient>

<radialGradient
   id="SVGID_5_"
   cx="32"
   cy="38.1714"
   r="40.0486"
   fx="14.0678"
   fy="24.0229"
   gradientUnits="userSpaceOnUse">
	<stop
   offset="0"
   style="stop-color:#000000"
   id="stop9" />
	<stop
   offset="1"
   style="stop-color:#545454"
   id="stop10" />
</radialGradient>

<radialGradient
   id="SVGID_6_"
   cx="32"
   cy="39"
   r="40.0486"
   fx="14.0678"
   fy="24.8514"
   gradientUnits="userSpaceOnUse">
	<stop
   offset="0"
   style="stop-color:#00F0F4"
   id="stop11" />
	<stop
   offset="1"
   style="stop-color:#1598FF"
   id="stop12" />
</radialGradient>

<linearGradient
   id="SVGID_7_"
   gradientUnits="userSpaceOnUse"
   x1="30.1119"
   y1="41.0156"
   x2="65.0054"
   y2="56.9751">
	<stop
   offset="0"
   style="stop-color:#15C7FF"
   id="stop13" />
	<stop
   offset="1"
   style="stop-color:#005A9E"
   id="stop14" />
</linearGradient>
<path
   d="m 11.599609,6.7958994 c -4.1999908,0 -7.5996086,3.3996176 -7.5996086,7.5996096 V 30.19629 c 0,-4.999985 4.000015,-9 8.9999996,-9 h 38 c 4.564943,0 8.28562,3.337322 8.900391,7.722656 v -8.523437 c 0,-4.199992 -3.399618,-7.59961 -7.59961,-7.59961 H 32 c -4.199992,0 -5.60079,-5.9999996 -9.800781,-5.9999996 z"
   style="fill:url(#SVGID_2_-6)"
   id="path17" /><path
   d="m 11.400391,16.795899 c -1.8999947,0 -3.4003906,1.500397 -3.4003906,3.400391 v 2.501953 C 9.4270037,21.749317 11.143947,21.19629 13,21.19629 h 38 c 1.856053,0 3.572997,0.553027 5,1.501953 V 20.19629 c 0,-1.899994 -1.500396,-3.400391 -3.400391,-3.400391 z"
   style="fill:url(#SVGID_4_-5)"
   id="path15" /><path
   d="m 13,21.19629 c -4.9999896,0 -8.9999996,4.00001 -8.9999996,9 v 18 c 0,4.99999 4.00001,9 8.9999996,9 h 38 c 4.99999,0 9,-4.00001 9,-9 v -18 c 0,-4.99999 -4.00001,-9 -9,-9 z"
   style="fill:url(#SVGID_6_-3)"
   id="path16" /><path
   class="st6"
   d="m 33.84934,47.167283 a 0.54151805,0.54151805 120.71649 0 1 0.268176,-0.451364 l 4.795025,-2.996891 a 0.63818597,0.63818597 12.761712 0 1 0.876651,0.198554 l 0.0203,0.03189 a 0.61245331,0.61245331 103.47479 0 1 -0.20513,0.856088 l -3.855018,2.277965 3.815035,2.254339 a 0.6573858,0.6573858 76.52521 0 1 0.22018,0.918895 0.67518489,0.67518489 168.82835 0 1 -0.920596,0.181809 L 34.121798,47.644085 A 0.55343059,0.55343059 60.255119 0 1 33.84934,47.167283 Z m 12.507463,-4.430645 a 0.6356036,0.6356036 68.992553 0 1 0.325839,0.848512 l -3.76613,8.495689 a 0.6293658,0.6293658 160.23636 0 1 -0.856827,0.307862 l -0.02069,-0.01034 a 0.68790439,0.68790439 70.346727 0 1 -0.320163,-0.896484 l 3.761494,-8.397755 a 0.67564338,0.67564338 158.37413 0 1 0.876477,-0.34748 z m 2.229004,7.475625 a 0.63124442,0.63124442 105.76338 0 1 0.24649,-0.873209 l 3.817043,-2.255525 -3.817043,-2.255525 a 0.65512934,0.65512934 76.52521 0 1 -0.219424,-0.915741 0.65772516,0.65772516 169.43469 0 1 0.91067,-0.169857 l 4.745532,2.965957 a 0.59630704,0.59630704 61.002692 0 1 0.280265,0.505668 0.52588531,0.52588531 123.06995 0 1 -0.28474,0.437291 l -4.731889,2.788435 a 0.70070818,0.70070818 13.509285 0 1 -0.946904,-0.227494 z"
   id="path14"
   style="opacity:0.3;fill:#000000;fill-opacity:1"
   inkscape:path-effect="#path-effect1"
   inkscape:original-d="m 33.84934,47.483529 v -0.6 l 5.6,-3.5 0.7,1.1 -4.4,2.6 4.4,2.6 -0.7,1.1 z m 11.9,-5 1.2,0.5 -4.3,9.7 -1.2,-0.6 z m 3.2,8.3 -0.7,-1.1 4.4,-2.6 -4.4,-2.6 0.7,-1.1 5.6,3.5 v 0.6 z" />
</svg>
