<?xml version="1.0" encoding="UTF-8" standalone="no"?>
<!-- Generator: Adobe Illustrator 25.2.1, SVG Export Plug-In . SVG Version: 6.00 Build 0)  -->

<svg
   version="1.1"
   id="Layer_1"
   x="0px"
   y="0px"
   viewBox="0 0 64 64"
   style="enable-background:new 0 0 64 64;"
   xml:space="preserve"
   sodipodi:docname="folder-blue-remote.svg"
   inkscape:version="1.3.2 (091e20ef0f, 2023-11-25, custom)"
   xmlns:inkscape="http://www.inkscape.org/namespaces/inkscape"
   xmlns:sodipodi="http://sodipodi.sourceforge.net/DTD/sodipodi-0.dtd"
   xmlns="http://www.w3.org/2000/svg"
   xmlns:svg="http://www.w3.org/2000/svg"><defs
   id="defs14"><inkscape:path-effect
     effect="fillet_chamfer"
     id="path-effect1"
     is_visible="true"
     lpeversion="1"
     nodesatellites_param="F,0,0,1,0,0,0,1 @ F,0,1,1,0,3.5255747,0,1 @ F,0,0,1,0,0,0,1 @ F,0,0,1,0,0,0,1 @ F,0,0,1,0,0,0,1 @ F,0,0,1,0,0,0,1 @ F,0,0,1,0,3.5255747,0,1 @ F,0,0,1,0,0,0,1 @ F,0,0,1,0,0,0,1 @ F,0,0,1,0,0,0,1 | F,0,0,1,0,0,0,1 @ F,0,0,1,0,0,0,1 @ F,0,0,1,0,0,0,1 @ F,0,0,1,0,4.0773422,0,1 @ F,0,0,1,0,0,0,1 @ F,0,0,1,0,0,0,1 @ F,0,0,1,0,0,0,1 @ F,0,0,1,0,0,0,1 @ F,0,0,1,0,4.0773422,0,1 @ F,0,0,1,0,0,0,1"
     radius="0"
     unit="px"
     method="auto"
     mode="F"
     chamfer_steps="1"
     flexible="false"
     use_knot_distance="true"
     apply_no_radius="true"
     apply_with_radius="true"
     only_selected="false"
     hide_knots="false" /><radialGradient
     id="SVGID_6_-3"
     cx="32"
     cy="39"
     r="40.048599"
     fx="14.0678"
     fy="24.8514"
     gradientUnits="userSpaceOnUse">
	<stop
   offset="0"
   style="stop-color:#00F0F4"
   id="stop11-6" />
	<stop
   offset="1"
   style="stop-color:#1598FF"
   id="stop12-7" />
</radialGradient><radialGradient
     id="SVGID_4_-5"
     cx="25.213699"
     cy="25.563499"
     r="32.348301"
     fx="16.568701"
     fy="17.644699"
     gradientUnits="userSpaceOnUse">
	<stop
   offset="0"
   style="stop-color:#FFFFFF"
   id="stop7-3" />
	<stop
   offset="1"
   style="stop-color:#B7B7B7"
   id="stop8-5" />
</radialGradient><radialGradient
     id="SVGID_2_-6"
     cx="28.128099"
     cy="25.073299"
     r="40.0504"
     fx="5.4853001"
     fy="7.4745002"
     gradientUnits="userSpaceOnUse">
	<stop
   offset="0"
   style="stop-color:#15C7FF"
   id="stop3-2" />
	<stop
   offset="1"
   style="stop-color:#005A9E"
   id="stop4-9" />
</radialGradient></defs><sodipodi:namedview
   id="namedview14"
   pagecolor="#ffffff"
   bordercolor="#000000"
   borderopacity="0.25"
   inkscape:showpageshadow="2"
   inkscape:pageopacity="0.0"
   inkscape:pagecheckerboard="0"
   inkscape:deskcolor="#d1d1d1"
   inkscape:zoom="9.8221551"
   inkscape:cx="27.947024"
   inkscape:cy="31.968544"
   inkscape:window-width="1920"
   inkscape:window-height="1014"
   inkscape:window-x="0"
   inkscape:window-y="0"
   inkscape:window-maximized="1"
   inkscape:current-layer="Layer_1" />
<style
   type="text/css"
   id="style1">
	.st0{opacity:0.15;fill:url(#SVGID_1_);enable-background:new    ;}
	.st1{fill:url(#SVGID_2_);}
	.st2{opacity:0.34;fill:url(#SVGID_3_);enable-background:new    ;}
	.st3{fill:url(#SVGID_4_);}
	.st4{opacity:0.12;fill:url(#SVGID_5_);enable-background:new    ;}
	.st5{fill:url(#SVGID_6_);}
	.st6{fill:url(#SVGID_7_);}
</style>
<radialGradient
   id="SVGID_1_"
   cx="28.1281"
   cy="41.5136"
   r="40.0504"
   fx="5.4853"
   fy="23.9148"
   gradientTransform="matrix(1 0 0 -1 0 66)"
   gradientUnits="userSpaceOnUse">
	<stop
   offset="0"
   style="stop-color:#000000"
   id="stop1" />
	<stop
   offset="1"
   style="stop-color:#545454"
   id="stop2" />
</radialGradient>

<radialGradient
   id="SVGID_2_"
   cx="28.1281"
   cy="40.9267"
   r="40.0504"
   fx="5.4853"
   fy="23.3279"
   gradientTransform="matrix(1 0 0 -1 0 66)"
   gradientUnits="userSpaceOnUse">
	<stop
   offset="0"
   style="stop-color:#15C7FF"
   id="stop3" />
	<stop
   offset="1"
   style="stop-color:#005A9E"
   id="stop4" />
</radialGradient>

<linearGradient
   id="SVGID_3_"
   gradientUnits="userSpaceOnUse"
   x1="8"
   y1="39.25"
   x2="56"
   y2="39.25"
   gradientTransform="matrix(1 0 0 -1 0 66)">
	<stop
   offset="0"
   style="stop-color:#000000"
   id="stop5" />
	<stop
   offset="1"
   style="stop-color:#404040"
   id="stop6" />
</linearGradient>

<radialGradient
   id="SVGID_4_"
   cx="25.2137"
   cy="40.4365"
   r="32.3483"
   fx="16.5687"
   fy="32.5177"
   gradientTransform="matrix(1 0 0 -1 0 66)"
   gradientUnits="userSpaceOnUse">
	<stop
   offset="0"
   style="stop-color:#FFFFFF"
   id="stop7" />
	<stop
   offset="1"
   style="stop-color:#B7B7B7"
   id="stop8" />
</radialGradient>

<radialGradient
   id="SVGID_5_"
   cx="32"
   cy="27.8"
   r="40.0672"
   fx="14.0595"
   fy="13.6449"
   gradientTransform="matrix(1 0 0 -1 0 66)"
   gradientUnits="userSpaceOnUse">
	<stop
   offset="0"
   style="stop-color:#000000"
   id="stop9" />
	<stop
   offset="1"
   style="stop-color:#545454"
   id="stop10" />
</radialGradient>

<radialGradient
   id="SVGID_6_"
   cx="32"
   cy="27"
   r="40.0486"
   fx="14.0678"
   fy="12.8514"
   gradientTransform="matrix(1 0 0 -1 0 66)"
   gradientUnits="userSpaceOnUse">
	<stop
   offset="0"
   style="stop-color:#00F0F4"
   id="stop11" />
	<stop
   offset="1"
   style="stop-color:#1598FF"
   id="stop12" />
</radialGradient>

<radialGradient
   id="SVGID_7_"
   cx="31.95"
   cy="45.8"
   r="40.1553"
   fx="18.1285"
   fy="29.8044"
   gradientUnits="userSpaceOnUse">
	<stop
   offset="0"
   style="stop-color:#15C7FF"
   id="stop13" />
	<stop
   offset="1"
   style="stop-color:#005A9E"
   id="stop14" />
</radialGradient>
<g
   id="g1"
   transform="translate(4.209578e-7,0.19628996)"
   style="enable-background:new 0 0 64 64"><path
     d="M 11.599609,6.5996094 C 7.3996178,6.5996094 4,9.9992271 4,14.199219 V 30 c 0,-4.999985 4.000015,-9 9,-9 h 38 c 4.564943,0 8.28562,3.337322 8.900391,7.722656 v -8.523437 c 0,-4.199992 -3.399618,-7.59961 -7.59961,-7.59961 H 32 c -4.199992,0 -5.60079,-5.9999996 -9.800781,-5.9999996 z"
     style="fill:url(#SVGID_2_-6)"
     id="path17" /><path
     d="M 11.400391,16.599609 C 9.5003959,16.599609 8,18.100006 8,20 v 2.501953 C 9.4270033,21.553027 11.143947,21 13,21 h 38 c 1.856053,0 3.572997,0.553027 5,1.501953 V 20 c 0,-1.899994 -1.500396,-3.400391 -3.400391,-3.400391 z"
     style="fill:url(#SVGID_4_-5)"
     id="path15" /><path
     d="m 13,21 c -4.99999,0 -9,4.00001 -9,9 v 18 c 0,4.99999 4.00001,9 9,9 h 38 c 4.99999,0 9,-4.00001 9,-9 V 30 c 0,-4.99999 -4.00001,-9 -9,-9 z"
     style="fill:url(#SVGID_6_-3)"
     id="path16" /></g><path
   class="st6"
   d="m 29.6,37.9 c -0.405364,0.09538 -0.7823,0.219189 -1.134873,0.368715 -1.775085,0.752814 -3.730619,3.463025 -5.39963,4.444977 C 21.904664,43.396661 20.595547,43.8 19.2,43.8 H 4 v 4 h 15.2 c 1.406069,0 2.7244,0.380198 3.891728,1.061514 1.67092,0.975238 3.617059,3.685726 5.387348,4.439811 0.352017,0.149948 0.725659,0.28242 1.120924,0.398675 0.3,0.1 0.6,-0.2 0.6,-0.5 V 38.4 c 0,-0.3 -0.3,-0.5 -0.6,-0.5 z m 4.6,0.5 v 14.7 c 0,0.3 0.3,0.6 0.6,0.5 0.213929,-0.05034 0.41994,-0.10859 0.618631,-0.174364 2.108716,-0.698057 4.404143,-3.898677 6.400203,-4.903481 C 42.85495,48.00058 43.99527,47.7 45.2,47.7 L 60,47.6 v -4 l -14.8,0.1 c -1.214386,0 -2.363325,-0.283603 -3.40606,-0.79986 -2.000287,-0.990342 -4.298214,-4.1528 -6.386758,-4.902543 C 35.2108,37.9271 35.008406,37.861296 34.8,37.8 c -0.3,0.1 -0.6,0.3 -0.6,0.6 z"
   id="path14"
   style="fill:#000000;fill-opacity:1;opacity:0.3"
   inkscape:path-effect="#path-effect1"
   inkscape:original-d="M29.6,37.9c-1.7,0.4-2.9,1.3-3.9,2.5c-1.6,2-3.9,3.4-6.5,3.4H4v4h15.2c2.6,0,4.9,1.3,6.5,3.4  c0.9,1.2,2.2,2,3.9,2.5c0.3,0.1,0.6-0.2,0.6-0.5V38.4C30.2,38.1,29.9,37.9,29.6,37.9z M34.2,38.4v14.7c0,0.3,0.3,0.6,0.6,0.5  c1.7-0.4,2.9-1.3,3.9-2.5c1.6-2,3.9-3.4,6.5-3.4l14.8-0.1v-4l-14.8,0.1c-2.6,0-4.9-1.3-6.5-3.4c-0.9-1.2-2.2-2-3.9-2.5  C34.5,37.9,34.2,38.1,34.2,38.4z" />
</svg>
