<?xml version="1.0" encoding="UTF-8" standalone="no"?>
<!-- Generator: Adobe Illustrator 25.2.1, SVG Export Plug-In . SVG Version: 6.00 Build 0)  -->

<svg
   version="1.1"
   id="Layer_1"
   x="0px"
   y="0px"
   viewBox="0 0 64 64"
   style="enable-background:new 0 0 64 64;"
   xml:space="preserve"
   sodipodi:docname="folder-blue-dropbox.svg"
   inkscape:version="1.3.2 (091e20ef0f, 2023-11-25, custom)"
   xmlns:inkscape="http://www.inkscape.org/namespaces/inkscape"
   xmlns:sodipodi="http://sodipodi.sourceforge.net/DTD/sodipodi-0.dtd"
   xmlns="http://www.w3.org/2000/svg"
   xmlns:svg="http://www.w3.org/2000/svg"><defs
   id="defs14"><inkscape:path-effect
     effect="fillet_chamfer"
     id="path-effect1"
     is_visible="true"
     lpeversion="1"
     nodesatellites_param="F,0,0,1,0,0,0,1 @ F,0,0,1,0,0,0,1 @ F,0,0,1,0,0,0,1 @ F,0,0,1,0,0,0,1 @ F,0,0,1,0,0,0,1 @ F,0,0,1,0,0,0,1 @ F,0,0,1,0,0,0,1 @ F,0,0,1,0,0,0,1 @ F,0,0,1,0,0,0,1 @ F,0,0,1,0,0,0,1 @ F,0,0,1,0,0,0,1 @ F,0,0,1,0,0,0,1 @ F,0,0,1,0,0,0,1 @ F,0,0,1,0,0,0,1 @ F,0,0,1,0,0,0,1 @ F,0,0,1,0,0,0,1 @ F,0,0,1,0,0,0,1 @ F,0,0,1,0,0,0,1 @ F,0,0,1,0,0,0,1 @ F,0,0,1,0,0,0,1 @ F,0,0,1,0,0,0,1 @ F,0,0,1,0,0,0,1 @ F,0,0,1,0,0,0,1 @ F,0,0,1,0,0,0,1 @ F,0,0,1,0,0,0,1 @ F,0,0,1,0,0,0,1 @ F,0,0,1,0,0,0,1 @ F,0,0,1,0,0,0,1 @ F,0,0,1,0,0,0,1 | F,0,0,1,0,0,0,1 @ F,0,0,1,0,0,0,1 @ F,0,0,1,0,0.85438729,0,1 @ F,0,0,1,0,0,0,1 @ F,0,0,1,0,0,0,1 @ F,0,1,1,0,0.48338532,0,1 @ F,0,0,1,0,0.48338532,0,1 @ F,0,0,1,0,0,0,1 @ F,0,0,1,0,0,0,1 @ F,0,0,1,0,1.1560014,0,1"
     radius="0"
     unit="px"
     method="auto"
     mode="F"
     chamfer_steps="1"
     flexible="false"
     use_knot_distance="true"
     apply_no_radius="true"
     apply_with_radius="true"
     only_selected="false"
     hide_knots="false" /><radialGradient
     id="SVGID_6_-3"
     cx="32"
     cy="39"
     r="40.048599"
     fx="14.0678"
     fy="24.8514"
     gradientUnits="userSpaceOnUse"
     gradientTransform="translate(4.2095781e-7,0.19628996)">
	<stop
   offset="0"
   style="stop-color:#00F0F4"
   id="stop11-6" />
	<stop
   offset="1"
   style="stop-color:#1598FF"
   id="stop12-7" />
</radialGradient><radialGradient
     id="SVGID_4_-5"
     cx="25.213699"
     cy="25.563499"
     r="32.348301"
     fx="16.568701"
     fy="17.644699"
     gradientUnits="userSpaceOnUse"
     gradientTransform="translate(4.2095781e-7,0.19628996)">
	<stop
   offset="0"
   style="stop-color:#FFFFFF"
   id="stop7-3" />
	<stop
   offset="1"
   style="stop-color:#B7B7B7"
   id="stop8-5" />
</radialGradient><radialGradient
     id="SVGID_2_-6"
     cx="28.128099"
     cy="25.073299"
     r="40.0504"
     fx="5.4853001"
     fy="7.4745002"
     gradientUnits="userSpaceOnUse"
     gradientTransform="translate(4.2095781e-7,0.19628996)">
	<stop
   offset="0"
   style="stop-color:#15C7FF"
   id="stop3-2" />
	<stop
   offset="1"
   style="stop-color:#005A9E"
   id="stop4-9" />
</radialGradient></defs><sodipodi:namedview
   id="namedview14"
   pagecolor="#ffffff"
   bordercolor="#000000"
   borderopacity="0.25"
   inkscape:showpageshadow="2"
   inkscape:pageopacity="0.0"
   inkscape:pagecheckerboard="0"
   inkscape:deskcolor="#d1d1d1"
   inkscape:zoom="19.64431"
   inkscape:cx="41.156956"
   inkscape:cy="50.625346"
   inkscape:window-width="1920"
   inkscape:window-height="1014"
   inkscape:window-x="0"
   inkscape:window-y="0"
   inkscape:window-maximized="1"
   inkscape:current-layer="Layer_1" />
<style
   type="text/css"
   id="style1">
	.st0{opacity:0.15;fill:url(#SVGID_1_);}
	.st1{fill:url(#SVGID_2_);}
	.st2{opacity:0.34;fill:url(#SVGID_3_);}
	.st3{fill:url(#SVGID_4_);}
	.st4{opacity:0.12;fill:url(#SVGID_5_);}
	.st5{fill:url(#SVGID_6_);}
	.st6{fill:url(#SVGID_7_);}
</style>
<radialGradient
   id="SVGID_1_"
   cx="28.1281"
   cy="24.4864"
   r="40.0504"
   fx="5.4853"
   fy="6.8876"
   gradientUnits="userSpaceOnUse">
	<stop
   offset="0"
   style="stop-color:#000000"
   id="stop1" />
	<stop
   offset="1"
   style="stop-color:#545454"
   id="stop2" />
</radialGradient>

<radialGradient
   id="SVGID_2_"
   cx="28.1281"
   cy="25.0733"
   r="40.0504"
   fx="5.4853"
   fy="7.4745"
   gradientUnits="userSpaceOnUse">
	<stop
   offset="0"
   style="stop-color:#15C7FF"
   id="stop3" />
	<stop
   offset="1"
   style="stop-color:#005A9E"
   id="stop4" />
</radialGradient>

<linearGradient
   id="SVGID_3_"
   gradientUnits="userSpaceOnUse"
   x1="8"
   y1="26.7181"
   x2="56"
   y2="26.7181">
	<stop
   offset="0"
   style="stop-color:#000000"
   id="stop5" />
	<stop
   offset="1"
   style="stop-color:#404040"
   id="stop6" />
</linearGradient>

<radialGradient
   id="SVGID_4_"
   cx="25.2137"
   cy="25.5635"
   r="32.3483"
   fx="16.5687"
   fy="17.6447"
   gradientUnits="userSpaceOnUse">
	<stop
   offset="0"
   style="stop-color:#FFFFFF"
   id="stop7" />
	<stop
   offset="1"
   style="stop-color:#B7B7B7"
   id="stop8" />
</radialGradient>

<radialGradient
   id="SVGID_5_"
   cx="32"
   cy="38.1714"
   r="40.0486"
   fx="14.0678"
   fy="24.0229"
   gradientUnits="userSpaceOnUse">
	<stop
   offset="0"
   style="stop-color:#000000"
   id="stop9" />
	<stop
   offset="1"
   style="stop-color:#545454"
   id="stop10" />
</radialGradient>

<radialGradient
   id="SVGID_6_"
   cx="32"
   cy="39"
   r="40.0486"
   fx="14.0678"
   fy="24.8514"
   gradientUnits="userSpaceOnUse">
	<stop
   offset="0"
   style="stop-color:#00F0F4"
   id="stop11" />
	<stop
   offset="1"
   style="stop-color:#1598FF"
   id="stop12" />
</radialGradient>

<linearGradient
   id="SVGID_7_"
   gradientUnits="userSpaceOnUse"
   x1="33.9587"
   y1="39.7323"
   x2="59.7601"
   y2="50.7792">
	<stop
   offset="0"
   style="stop-color:#15C7FF"
   id="stop13" />
	<stop
   offset="1"
   style="stop-color:#005A9E"
   id="stop14" />
</linearGradient>
<path
   d="m 11.599609,6.7958994 c -4.1999908,0 -7.5996086,3.3996176 -7.5996086,7.5996096 V 30.19629 c 0,-4.999985 4.000015,-9 8.9999996,-9 h 38 c 4.564943,0 8.28562,3.337322 8.900391,7.722656 v -8.523437 c 0,-4.199992 -3.399618,-7.59961 -7.59961,-7.59961 H 32 c -4.199992,0 -5.60079,-5.9999996 -9.800781,-5.9999996 z"
   style="fill:url(#SVGID_2_-6)"
   id="path17" /><path
   d="m 11.400391,16.795899 c -1.8999947,0 -3.4003906,1.500397 -3.4003906,3.400391 v 2.501953 C 9.4270037,21.749317 11.143947,21.19629 13,21.19629 h 38 c 1.856053,0 3.572997,0.553027 5,1.501953 V 20.19629 c 0,-1.899994 -1.500396,-3.400391 -3.400391,-3.400391 z"
   style="fill:url(#SVGID_4_-5)"
   id="path15" /><path
   d="m 13,21.19629 c -4.9999896,0 -8.9999996,4.00001 -8.9999996,9 v 18 c 0,4.99999 4.00001,9 8.9999996,9 h 38 c 4.99999,0 9,-4.00001 9,-9 v -18 c 0,-4.99999 -4.00001,-9 -9,-9 z"
   style="fill:url(#SVGID_6_-3)"
   id="path16" /><path
   class="st6"
   d="m 42.016402,36.340271 -4.831625,2.921448 c -0.224727,0.112363 -0.224727,0.449453 0,0.67418 l 4.045081,3.033811 -4.045081,3.033811 c -0.224727,0.112363 -0.224727,0.449453 0,0.67418 l 4.831625,2.921448 c 0.112363,0.112363 0.33709,0.112363 0.449453,0 l 3.820355,-2.809085 c 0.224727,-0.112363 0.224727,-0.449453 0,-0.67418 l -4.831625,-3.033811 c -0.112363,-0.112363 -0.112363,-0.33709 0,-0.33709 l 5.056352,-3.033811 c 0.112363,-0.112363 0.224726,-0.112363 0.33709,0 l 5.056352,3.033811 c 0.112363,0.112363 0.112363,0.33709 0,0.33709 l -4.719262,2.809084 c -0.224727,0.112364 -0.224727,0.449454 0,0.674181 l 3.820355,2.809084 c 0.112363,0.112363 0.33709,0.112363 0.449453,0 l 4.831625,-2.921448 c 0.224727,-0.112363 0.224727,-0.449453 0,-0.67418 l -4.045081,-3.033811 4.045081,-3.033811 c 0.224727,-0.112363 0.224727,-0.449453 0,-0.67418 l -4.831625,-2.921448 c -0.112363,-0.112363 -0.33709,-0.112363 -0.449453,0 L 46.6233,39.598809 42.353492,36.452634 c -0.112363,-0.112363 -0.224727,-0.224726 -0.33709,-0.112363 z m 5.168715,11.3487 c -0.33709,-0.224726 -0.786544,-0.224726 -1.123634,0 l -3.246864,2.411956 a 1.2769713,1.2769713 177.17834 0 1 -1.418485,0.06991 l -0.391002,-0.234601 v 0.67418 l 4.641852,2.785111 c 0.228921,0.137353 0.598966,0.398142 0.862389,0.415771 0.0044,2.96e-4 0.0088,5.47e-4 0.01321,7.53e-4 0.258667,0.01217 0.62339,-0.279171 0.852311,-0.416524 l 4.641853,-2.785111 v -0.67418 l -0.132371,0.07942 a 1.6757954,1.6757954 3.6350444 0 1 -1.899292,-0.120659 z"
   id="path14"
   style="opacity:0.3;fill:#000000;fill-opacity:1;stroke-width:1"
   inkscape:path-effect="#path-effect1"
   inkscape:original-d="m 42.016402,36.340271 -4.831625,2.921448 c -0.224727,0.112363 -0.224727,0.449453 0,0.67418 l 4.045081,3.033811 -4.045081,3.033811 c -0.224727,0.112363 -0.224727,0.449453 0,0.67418 l 4.831625,2.921448 c 0.112363,0.112363 0.33709,0.112363 0.449453,0 l 3.820355,-2.809085 c 0.224727,-0.112363 0.224727,-0.449453 0,-0.67418 l -4.831625,-3.033811 c -0.112363,-0.112363 -0.112363,-0.33709 0,-0.33709 l 5.056352,-3.033811 c 0.112363,-0.112363 0.224726,-0.112363 0.33709,0 l 5.056352,3.033811 c 0.112363,0.112363 0.112363,0.33709 0,0.33709 l -4.719262,2.809084 c -0.224727,0.112364 -0.224727,0.449454 0,0.674181 l 3.820355,2.809084 c 0.112363,0.112363 0.33709,0.112363 0.449453,0 l 4.831625,-2.921448 c 0.224727,-0.112363 0.224727,-0.449453 0,-0.67418 l -4.045081,-3.033811 4.045081,-3.033811 c 0.224727,-0.112363 0.224727,-0.449453 0,-0.67418 l -4.831625,-2.921448 c -0.112363,-0.112363 -0.33709,-0.112363 -0.449453,0 L 46.6233,39.598809 42.353492,36.452634 c -0.112363,-0.112363 -0.224727,-0.224726 -0.33709,-0.112363 z m 5.168715,11.3487 c -0.33709,-0.224726 -0.786544,-0.224726 -1.123634,0 l -3.932718,2.921448 -1.123633,-0.67418 v 0.67418 l 5.056351,3.033811 c 0.33709,0.224727 0.67418,0.224727 0.898907,0 l 5.056352,-3.033811 v -0.67418 l -1.123634,0.67418 z" />
</svg>
