<?xml version="1.0" encoding="UTF-8" standalone="no"?>
<!-- Generator: Adobe Illustrator 25.2.1, SVG Export Plug-In . SVG Version: 6.00 Build 0)  -->

<svg
   version="1.1"
   id="Layer_1"
   x="0px"
   y="0px"
   viewBox="0 0 64 64"
   style="enable-background:new 0 0 64 64;"
   xml:space="preserve"
   sodipodi:docname="folder-blue-network.svg"
   inkscape:version="1.3.2 (091e20ef0f, 2023-11-25, custom)"
   xmlns:inkscape="http://www.inkscape.org/namespaces/inkscape"
   xmlns:sodipodi="http://sodipodi.sourceforge.net/DTD/sodipodi-0.dtd"
   xmlns="http://www.w3.org/2000/svg"
   xmlns:svg="http://www.w3.org/2000/svg"><defs
   id="defs14"><inkscape:path-effect
     effect="fillet_chamfer"
     id="path-effect1"
     is_visible="true"
     lpeversion="1"
     nodesatellites_param="F,0,0,1,0,0,0,1 @ F,0,0,1,0,0,0,1 @ F,0,0,1,0,0,0,1 @ F,0,0,1,0,0,0,1 | F,0,0,1,0,0,0,1 @ F,0,0,1,0,0,0,1 @ F,0,0,1,0,0,0,1 @ F,0,0,1,0,0,0,1 @ F,0,0,1,0,0,0,1 @ F,0,0,1,0,0,0,1 @ F,0,0,1,0,0,0,1 @ F,0,0,1,0,0,0,1 @ F,0,0,1,0,0,0,1 @ F,0,0,1,0,0,0,1 @ F,0,0,1,0,0,0,1 @ F,0,0,1,0,0,0,1 @ F,0,0,1,0,0,0,1 @ F,0,0,1,0,0,0,1 @ F,0,0,1,0,0,0,1 @ F,0,0,1,0,0,0,1 @ F,0,0,1,0,0,0,1 @ F,0,0,1,0,0,0,1 @ F,0,0,1,0,0,0,1 @ F,0,0,1,0,0,0,1 @ F,0,0,1,0,0,0,1 @ F,0,0,1,0,0,0,1 @ F,0,0,1,0,0,0,1 @ F,0,0,1,0,0,0,1 @ F,0,0,1,0,0.89174756,0,1 @ F,0,1,1,0,0.89174756,0,1 @ F,0,0,1,0,0,0,1 @ F,0,0,1,0,0,0,1 | F,0,0,1,0,0,0,1 @ F,0,0,1,0,0,0,1 @ F,0,0,1,0,0,0,1 @ F,0,0,1,0,0,0,1 @ F,0,0,1,0,0,0,1 @ F,0,0,1,0,0,0,1 @ F,0,0,1,0,0,0,1"
     radius="0"
     unit="px"
     method="auto"
     mode="F"
     chamfer_steps="1"
     flexible="false"
     use_knot_distance="true"
     apply_no_radius="true"
     apply_with_radius="true"
     only_selected="false"
     hide_knots="false" /><radialGradient
     id="SVGID_6_-3"
     cx="32"
     cy="39"
     r="40.048599"
     fx="14.0678"
     fy="24.8514"
     gradientUnits="userSpaceOnUse">
	<stop
   offset="0"
   style="stop-color:#00F0F4"
   id="stop11-8" />
	<stop
   offset="1"
   style="stop-color:#1598FF"
   id="stop12-5" />
</radialGradient><radialGradient
     id="SVGID_4_-6"
     cx="25.213699"
     cy="25.563499"
     r="32.348301"
     fx="16.568701"
     fy="17.644699"
     gradientUnits="userSpaceOnUse">
	<stop
   offset="0"
   style="stop-color:#FFFFFF"
   id="stop7-1" />
	<stop
   offset="1"
   style="stop-color:#B7B7B7"
   id="stop8-1" />
</radialGradient><radialGradient
     id="SVGID_2_-5"
     cx="28.128099"
     cy="25.073299"
     r="40.0504"
     fx="5.4853001"
     fy="7.4745002"
     gradientUnits="userSpaceOnUse">
	<stop
   offset="0"
   style="stop-color:#15C7FF"
   id="stop3-9" />
	<stop
   offset="1"
   style="stop-color:#005A9E"
   id="stop4-8" />
</radialGradient></defs><sodipodi:namedview
   id="namedview14"
   pagecolor="#ffffff"
   bordercolor="#000000"
   borderopacity="0.25"
   inkscape:showpageshadow="2"
   inkscape:pageopacity="0.0"
   inkscape:pagecheckerboard="0"
   inkscape:deskcolor="#d1d1d1"
   inkscape:zoom="9.8221551"
   inkscape:cx="33.342988"
   inkscape:cy="41.742367"
   inkscape:window-width="1920"
   inkscape:window-height="1014"
   inkscape:window-x="0"
   inkscape:window-y="0"
   inkscape:window-maximized="1"
   inkscape:current-layer="Layer_1" />
<style
   type="text/css"
   id="style1">
	.st0{opacity:0.15;fill:url(#SVGID_1_);enable-background:new    ;}
	.st1{fill:url(#SVGID_2_);}
	.st2{opacity:0.34;fill:url(#SVGID_3_);enable-background:new    ;}
	.st3{fill:url(#SVGID_4_);}
	.st4{opacity:0.12;fill:url(#SVGID_5_);enable-background:new    ;}
	.st5{fill:url(#SVGID_6_);}
	.st6{fill:url(#SVGID_7_);}
</style>
<radialGradient
   id="SVGID_1_"
   cx="28.1281"
   cy="41.5136"
   r="40.0504"
   fx="5.4853"
   fy="23.9148"
   gradientTransform="matrix(1 0 0 -1 0 66)"
   gradientUnits="userSpaceOnUse">
	<stop
   offset="0"
   style="stop-color:#000000"
   id="stop1" />
	<stop
   offset="1"
   style="stop-color:#545454"
   id="stop2" />
</radialGradient>

<radialGradient
   id="SVGID_2_"
   cx="28.1281"
   cy="40.9267"
   r="40.0504"
   fx="5.4853"
   fy="23.3279"
   gradientTransform="matrix(1 0 0 -1 0 66)"
   gradientUnits="userSpaceOnUse">
	<stop
   offset="0"
   style="stop-color:#15C7FF"
   id="stop3" />
	<stop
   offset="1"
   style="stop-color:#005A9E"
   id="stop4" />
</radialGradient>

<linearGradient
   id="SVGID_3_"
   gradientUnits="userSpaceOnUse"
   x1="8"
   y1="39.25"
   x2="56"
   y2="39.25"
   gradientTransform="matrix(1 0 0 -1 0 66)">
	<stop
   offset="0"
   style="stop-color:#000000"
   id="stop5" />
	<stop
   offset="1"
   style="stop-color:#404040"
   id="stop6" />
</linearGradient>

<radialGradient
   id="SVGID_4_"
   cx="25.2137"
   cy="40.4365"
   r="32.3483"
   fx="16.5687"
   fy="32.5177"
   gradientTransform="matrix(1 0 0 -1 0 66)"
   gradientUnits="userSpaceOnUse">
	<stop
   offset="0"
   style="stop-color:#FFFFFF"
   id="stop7" />
	<stop
   offset="1"
   style="stop-color:#B7B7B7"
   id="stop8" />
</radialGradient>

<radialGradient
   id="SVGID_5_"
   cx="32"
   cy="27.8"
   r="40.0672"
   fx="14.0595"
   fy="13.6449"
   gradientTransform="matrix(1 0 0 -1 0 66)"
   gradientUnits="userSpaceOnUse">
	<stop
   offset="0"
   style="stop-color:#000000"
   id="stop9" />
	<stop
   offset="1"
   style="stop-color:#545454"
   id="stop10" />
</radialGradient>

<radialGradient
   id="SVGID_6_"
   cx="32"
   cy="27"
   r="40.0486"
   fx="14.0678"
   fy="12.8514"
   gradientTransform="matrix(1 0 0 -1 0 66)"
   gradientUnits="userSpaceOnUse">
	<stop
   offset="0"
   style="stop-color:#00F0F4"
   id="stop11" />
	<stop
   offset="1"
   style="stop-color:#1598FF"
   id="stop12" />
</radialGradient>

<linearGradient
   id="SVGID_7_"
   gradientUnits="userSpaceOnUse"
   x1="34.4234"
   y1="36.7839"
   x2="60.1699"
   y2="53.4533">
	<stop
   offset="0"
   style="stop-color:#15C7FF"
   id="stop13" />
	<stop
   offset="1"
   style="stop-color:#005A9E"
   id="stop14" />
</linearGradient>
<g
   id="g1"
   transform="translate(4.209578e-7,0.19628996)"
   style="enable-background:new 0 0 64 64"><path
     d="M 11.599609,6.5996094 C 7.3996178,6.5996094 4,9.9992271 4,14.199219 V 30 c 0,-4.999985 4.000015,-9 9,-9 h 38 c 4.564943,0 8.28562,3.337322 8.900391,7.722656 v -8.523437 c 0,-4.199992 -3.399618,-7.59961 -7.59961,-7.59961 H 32 c -4.199992,0 -5.60079,-5.9999996 -9.800781,-5.9999996 z"
     style="fill:url(#SVGID_2_-5)"
     id="path17" /><path
     d="M 11.400391,16.599609 C 9.5003959,16.599609 8,18.100006 8,20 v 2.501953 C 9.4270033,21.553027 11.143947,21 13,21 h 38 c 1.856053,0 3.572997,0.553027 5,1.501953 V 20 c 0,-1.899994 -1.500396,-3.400391 -3.400391,-3.400391 z"
     style="fill:url(#SVGID_4_-6)"
     id="path15" /><path
     d="m 13,21 c -4.99999,0 -9,4.00001 -9,9 v 18 c 0,4.99999 4.00001,9 9,9 h 38 c 4.99999,0 9,-4.00001 9,-9 V 30 c 0,-4.99999 -4.00001,-9 -9,-9 z"
     style="fill:url(#SVGID_6_-3)"
     id="path16" /></g><path
   class="st6"
   d="m 48.934796,36.41725 c -5.83945,-0.973241 -10.921934,4.001105 -9.948692,9.948692 0.540689,3.568553 3.460414,6.38014 7.028967,7.028967 5.947588,0.865104 10.921934,-4.109242 9.948692,-9.948692 -0.54069,-3.568552 -3.460415,-6.380139 -7.028967,-7.028967 z m -2.054621,2.270897 h 0.216275 c 0,0 -0.108138,0.216276 -0.108138,0.432552 -0.648827,1.297656 -0.648827,2.811587 -0.108137,3.676691 0.108137,0.108138 0.216275,0.324413 0.216275,0.324413 h -0.216275 c -0.324414,0 -0.54069,-0.216275 -1.08138,-0.648827 -0.216276,-0.216276 -0.54069,-0.324414 -0.648828,-0.432552 -0.216276,0 -0.216276,0 -0.54069,0.216276 -0.216276,0.216276 -0.324413,0.324414 -0.324413,0.54069 0,0.865103 0.973241,1.405793 2.703448,1.838345 2.487173,0.54069 3.027863,0.973241 3.136001,2.270897 0.108138,1.622069 -0.756965,2.811587 -2.595311,3.784828 -0.216276,0.108138 -0.324414,0.108138 -0.432552,0.216276 h -0.108138 v -0.432551 c 0,-0.865104 -0.324413,-1.730208 -0.865103,-2.270898 -0.108138,-0.108137 -0.54069,-0.432551 -0.865104,-0.648827 -0.324414,-0.216276 -0.648828,-0.432552 -0.756966,-0.54069 -0.108138,-0.216276 -0.108138,-0.216276 0,-0.54069 0.216276,-0.54069 0.324414,-0.865104 0.756966,-1.189517 0.216276,-0.216276 0.432552,-0.324414 0.432552,-0.324414 0,0 -0.216276,-0.108138 -0.756966,-0.216276 -0.432552,-0.108138 -1.189517,-0.324414 -1.513931,-0.432552 -0.340669,-0.113556 -0.850286,-0.281076 -1.247078,-0.480169 -0.416249,-0.208856 -0.528483,-0.995493 -0.451035,-1.481863 0.01565,-0.09826 0.07463,-0.58374 0.274342,-1.032388 0.535186,-1.2023 1.72221,-1.677941 3.153978,-2.30434 0.324414,-0.108138 0.756966,-0.216276 1.189518,-0.324414 z m 5.731311,2.919725 c 0.108138,0.108138 0.648828,1.297656 0.865104,1.838345 0.216276,0.756966 0.216276,2.054622 0,2.703449 -0.108138,0.324414 -0.108138,0.54069 -0.216276,0.54069 0,0 -0.108138,-0.108138 -0.216276,-0.432552 -0.108138,-0.216276 -0.54069,-0.756965 -0.865104,-1.081379 -0.973241,-1.08138 -1.189517,-1.62207 -0.756965,-2.379035 0.216276,-0.324414 1.081379,-1.297656 1.189517,-1.189518 z"
   id="path14"
   style="opacity:0.3;fill:#000000;fill-opacity:1;stroke-width:1.08138"
   inkscape:path-effect="#path-effect1"
   inkscape:original-d="m 48.934796,36.41725 c -5.83945,-0.973241 -10.921934,4.001105 -9.948692,9.948692 0.540689,3.568553 3.460414,6.38014 7.028967,7.028967 5.947588,0.865104 10.921934,-4.109242 9.948692,-9.948692 -0.54069,-3.568552 -3.460415,-6.380139 -7.028967,-7.028967 z m -2.054621,2.270897 h 0.216275 c 0,0 -0.108138,0.216276 -0.108138,0.432552 -0.648827,1.297656 -0.648827,2.811587 -0.108137,3.676691 0.108137,0.108138 0.216275,0.324413 0.216275,0.324413 h -0.216275 c -0.324414,0 -0.54069,-0.216275 -1.08138,-0.648827 -0.216276,-0.216276 -0.54069,-0.324414 -0.648828,-0.432552 -0.216276,0 -0.216276,0 -0.54069,0.216276 -0.216276,0.216276 -0.324413,0.324414 -0.324413,0.54069 0,0.865103 0.973241,1.405793 2.703448,1.838345 2.487173,0.54069 3.027863,0.973241 3.136001,2.270897 0.108138,1.622069 -0.756965,2.811587 -2.595311,3.784828 -0.216276,0.108138 -0.324414,0.108138 -0.432552,0.216276 h -0.108138 v -0.432551 c 0,-0.865104 -0.324413,-1.730208 -0.865103,-2.270898 -0.108138,-0.108137 -0.54069,-0.432551 -0.865104,-0.648827 -0.324414,-0.216276 -0.648828,-0.432552 -0.756966,-0.54069 -0.108138,-0.216276 -0.108138,-0.216276 0,-0.54069 0.216276,-0.54069 0.324414,-0.865104 0.756966,-1.189517 0.216276,-0.216276 0.432552,-0.324414 0.432552,-0.324414 0,0 -0.216276,-0.108138 -0.756966,-0.216276 -0.432552,-0.108138 -1.189517,-0.324414 -1.513931,-0.432552 -0.648828,-0.216276 -1.910492,-0.628298 -1.838345,-1.08138 l 0.16856,-1.058554 c 0.296984,-1.86505 1.669785,-2.40186 3.399992,-3.158826 0.324414,-0.108138 0.756966,-0.216276 1.189518,-0.324414 z m 5.731311,2.919725 c 0.108138,0.108138 0.648828,1.297656 0.865104,1.838345 0.216276,0.756966 0.216276,2.054622 0,2.703449 -0.108138,0.324414 -0.108138,0.54069 -0.216276,0.54069 0,0 -0.108138,-0.108138 -0.216276,-0.432552 -0.108138,-0.216276 -0.54069,-0.756965 -0.865104,-1.081379 -0.973241,-1.08138 -1.189517,-1.62207 -0.756965,-2.379035 0.216276,-0.324414 1.081379,-1.297656 1.189517,-1.189518 z"
   sodipodi:nodetypes="ccccccccccscccscccccssscccccssscccscsccccs" />
</svg>
