<?xml version="1.0" encoding="UTF-8" standalone="no"?>
<svg
   width="64"
   height="64"
   version="1"
   id="svg11"
   sodipodi:docname="folder-blue-docker.svg"
   inkscape:version="1.3.2 (091e20ef0f, 2023-11-25, custom)"
   xmlns:inkscape="http://www.inkscape.org/namespaces/inkscape"
   xmlns:sodipodi="http://sodipodi.sourceforge.net/DTD/sodipodi-0.dtd"
   xmlns="http://www.w3.org/2000/svg"
   xmlns:svg="http://www.w3.org/2000/svg">
  <defs
     id="defs11">
    <inkscape:path-effect
       effect="fillet_chamfer"
       id="path-effect9"
       is_visible="true"
       lpeversion="1"
       nodesatellites_param="F,0,0,1,0,0,0,1 @ F,0,0,1,0,0,0,1 @ F,0,0,1,0,0,0,1 @ F,0,0,1,0,0,0,1 @ F,0,0,1,0,0,0,1 @ F,0,0,1,0,0,0,1 @ F,0,0,1,0,0,0,1 @ F,0,0,1,0,0,0,1 | F,0,0,1,0,0,0,1 @ F,0,0,1,0,0,0,1 @ F,0,0,1,0,0,0,1 @ F,0,0,1,0,0,0,1 @ F,0,0,1,0,0,0,1 @ F,0,0,1,0,0,0,1 @ F,0,0,1,0,0,0,1 @ F,0,0,1,0,0,0,1 @ F,0,0,1,0,0,0,1 @ F,0,0,1,0,0,0,1 | F,0,0,1,0,0,0,1 @ F,0,0,1,0,0,0,1 @ F,0,0,1,0,0,0,1 @ F,0,0,1,0,0,0,1 @ F,0,0,1,0,0,0,1 @ F,0,0,1,0,0,0,1 @ F,0,0,1,0,0,0,1 @ F,0,0,1,0,0,0,1 @ F,0,0,1,0,0,0,1 @ F,0,0,1,0,0,0,1 | F,0,0,1,0,0,0,1 @ F,0,0,1,0,0,0,1 @ F,0,0,1,0,0,0,1 @ F,0,0,1,0,2.0211425,0,1 @ F,0,0,1,0,2.0211425,0,1 @ F,0,0,1,0,0,0,1 @ F,0,0,1,0,0,0,1 @ F,0,0,1,0,16.516505,0,1 @ F,0,0,1,0,0,0,1 @ F,0,0,1,0,0,0,1 @ F,0,0,1,0,0,0,1 | F,0,0,1,0,0,0,1 @ F,0,0,1,0,0,0,1 @ F,0,0,1,0,0,0,1 @ F,0,0,1,0,0,0,1 @ F,0,0,1,0,0,0,1 @ F,0,0,1,0,0,0,1 @ F,0,0,1,0,0,0,1 @ F,0,0,1,0,0,0,1 | F,0,0,1,0,0,0,1 @ F,0,0,1,0,0,0,1 @ F,0,0,1,0,0,0,1 @ F,0,0,1,0,0,0,1 @ F,0,0,1,0,0,0,1 @ F,0,0,1,0,0,0,1 @ F,0,0,1,0,0,0,1 @ F,0,0,1,0,0,0,1 | F,0,0,1,0,0,0,1 @ F,0,0,1,0,0,0,1 @ F,0,0,1,0,0,0,1 @ F,0,0,1,0,0,0,1 @ F,0,0,1,0,0,0,1 @ F,0,0,1,0,0,0,1 @ F,0,0,1,0,0,0,1 @ F,0,0,1,0,0,0,1 | F,0,0,1,0,0,0,1 @ F,0,0,1,0,0,0,1 @ F,0,0,1,0,0,0,1 @ F,0,0,1,0,0,0,1 @ F,0,0,1,0,0,0,1 @ F,0,0,1,0,0,0,1 @ F,0,0,1,0,0,0,1 @ F,0,0,1,0,0,0,1"
       radius="0"
       unit="px"
       method="auto"
       mode="F"
       chamfer_steps="1"
       flexible="false"
       use_knot_distance="true"
       apply_no_radius="true"
       apply_with_radius="true"
       only_selected="false"
       hide_knots="false" />
    <inkscape:path-effect
       effect="fillet_chamfer"
       id="path-effect1"
       is_visible="true"
       lpeversion="1"
       nodesatellites_param=""
       radius="0"
       unit="px"
       method="auto"
       mode="F"
       chamfer_steps="1"
       flexible="false"
       use_knot_distance="true"
       apply_no_radius="true"
       apply_with_radius="true"
       only_selected="false"
       hide_knots="false" />
    <radialGradient
       id="SVGID_1_-3"
       cx="28.128099"
       cy="41.513599"
       r="40.0504"
       fx="5.4853001"
       fy="23.914801"
       gradientTransform="matrix(1,0,0,-1,0,66)"
       gradientUnits="userSpaceOnUse">
      <stop
         offset="0"
         style="stop-color:#000000"
         id="stop1-6" />
      <stop
         offset="1"
         style="stop-color:#545454"
         id="stop2-0" />
    </radialGradient>
    <radialGradient
       id="SVGID_2_-7"
       cx="28.128099"
       cy="40.926701"
       r="40.0504"
       fx="5.4853001"
       fy="23.3279"
       gradientTransform="matrix(1,0,0,-1,0,66)"
       gradientUnits="userSpaceOnUse">
      <stop
         offset="0"
         style="stop-color:#15C7FF"
         id="stop3-0" />
      <stop
         offset="1"
         style="stop-color:#005A9E"
         id="stop4-9" />
    </radialGradient>
    <linearGradient
       id="SVGID_3_"
       gradientUnits="userSpaceOnUse"
       x1="8"
       y1="39.25"
       x2="56"
       y2="39.25"
       gradientTransform="matrix(1,0,0,-1,0,66)">
      <stop
         offset="0"
         style="stop-color:#000000"
         id="stop5" />
      <stop
         offset="1"
         style="stop-color:#404040"
         id="stop6" />
    </linearGradient>
    <radialGradient
       id="SVGID_4_-6"
       cx="25.213699"
       cy="40.436501"
       r="32.348301"
       fx="16.568701"
       fy="32.5177"
       gradientTransform="matrix(1,0,0,-1,0,66)"
       gradientUnits="userSpaceOnUse">
      <stop
         offset="0"
         style="stop-color:#FFFFFF"
         id="stop7-2" />
      <stop
         offset="1"
         style="stop-color:#B7B7B7"
         id="stop8-9" />
    </radialGradient>
    <radialGradient
       id="SVGID_5_-5"
       cx="32"
       cy="27.799999"
       r="40.0672"
       fx="14.0595"
       fy="13.6449"
       gradientTransform="matrix(1,0,0,-1,0,66)"
       gradientUnits="userSpaceOnUse">
      <stop
         offset="0"
         style="stop-color:#000000"
         id="stop9-3" />
      <stop
         offset="1"
         style="stop-color:#545454"
         id="stop10-5" />
    </radialGradient>
    <radialGradient
       id="SVGID_6_-3"
       cx="32"
       cy="27"
       r="40.048599"
       fx="14.0678"
       fy="12.8514"
       gradientTransform="matrix(1,0,0,-1,0,66)"
       gradientUnits="userSpaceOnUse">
      <stop
         offset="0"
         style="stop-color:#00F0F4"
         id="stop11-6" />
      <stop
         offset="1"
         style="stop-color:#1598FF"
         id="stop12-7" />
    </radialGradient>
    <linearGradient
       id="SVGID_7_"
       gradientUnits="userSpaceOnUse"
       x1="34.6152"
       y1="37.734798"
       x2="60.012699"
       y2="52.691101"
       gradientTransform="translate(-25.15113,-8.8969106)">
      <stop
         offset="0"
         style="stop-color:#15C7FF"
         id="stop13" />
      <stop
         offset="1"
         style="stop-color:#005A9E"
         id="stop14" />
    </linearGradient>
    <radialGradient
       id="SVGID_6_"
       cx="32"
       cy="39"
       r="40.048599"
       fx="14.0678"
       fy="24.8514"
       gradientUnits="userSpaceOnUse"
       gradientTransform="translate(4.209578e-7,0.19628996)">
      <stop
         offset="0"
         style="stop-color:#00F0F4"
         id="stop11" />
      <stop
         offset="1"
         style="stop-color:#1598FF"
         id="stop12" />
    </radialGradient>
    <radialGradient
       id="SVGID_4_"
       cx="25.213699"
       cy="25.563499"
       r="32.348301"
       fx="16.568701"
       fy="17.644699"
       gradientUnits="userSpaceOnUse"
       gradientTransform="translate(4.209578e-7,0.19628996)">
      <stop
         offset="0"
         style="stop-color:#FFFFFF"
         id="stop7" />
      <stop
         offset="1"
         style="stop-color:#B7B7B7"
         id="stop8" />
    </radialGradient>
    <radialGradient
       id="SVGID_2_"
       cx="28.128099"
       cy="25.073299"
       r="40.0504"
       fx="5.4853001"
       fy="7.4745002"
       gradientUnits="userSpaceOnUse"
       gradientTransform="translate(4.209578e-7,0.19628996)">
      <stop
         offset="0"
         style="stop-color:#15C7FF"
         id="stop3" />
      <stop
         offset="1"
         style="stop-color:#005A9E"
         id="stop4" />
    </radialGradient>
  </defs>
  <sodipodi:namedview
     id="namedview11"
     pagecolor="#ffffff"
     bordercolor="#000000"
     borderopacity="0.25"
     inkscape:showpageshadow="2"
     inkscape:pageopacity="0.0"
     inkscape:pagecheckerboard="0"
     inkscape:deskcolor="#d1d1d1"
     inkscape:zoom="9.7006212"
     inkscape:cx="33.863811"
     inkscape:cy="31.235113"
     inkscape:window-width="1920"
     inkscape:window-height="1020"
     inkscape:window-x="0"
     inkscape:window-y="0"
     inkscape:window-maximized="1"
     inkscape:current-layer="svg11" />
  <path
     d="m 11.599609,6.7958994 c -4.1999908,0 -7.5996086,3.3996176 -7.5996086,7.5996096 V 30.19629 c 0,-4.999985 4.000015,-9 8.9999996,-9 h 38 c 4.564943,0 8.28562,3.337322 8.900391,7.722656 v -8.523437 c 0,-4.199992 -3.399618,-7.59961 -7.59961,-7.59961 H 32 c -4.199992,0 -5.60079,-5.9999996 -9.800781,-5.9999996 z"
     style="fill:url(#SVGID_2_)"
     id="path17" />
  <path
     d="m 11.400391,16.795899 c -1.8999947,0 -3.4003906,1.500397 -3.4003906,3.400391 v 2.501953 C 9.4270037,21.749317 11.143947,21.19629 13,21.19629 h 38 c 1.856053,0 3.572997,0.553027 5,1.501953 V 20.19629 c 0,-1.899994 -1.500396,-3.400391 -3.400391,-3.400391 z"
     style="fill:url(#SVGID_4_)"
     id="path15" />
  <path
     d="m 13,21.19629 c -4.9999896,0 -8.9999996,4.00001 -8.9999996,9 v 18 c 0,4.99999 4.00001,9 8.9999996,9 h 38 c 4.99999,0 9,-4.00001 9,-9 v -18 c 0,-4.99999 -4.00001,-9 -9,-9 z"
     style="fill:url(#SVGID_6_)"
     id="path16" />
  <g
     id="g11"
     transform="matrix(0.69759466,0,0,0.69759466,25.535173,18.340113)"
     style="opacity:0.3;fill:#000000;fill-opacity:1;stroke-width:0.826077">
    <path
       d="m 29.498661,28.000406 c -0.277,0 -0.498364,0.221365 -0.498364,0.498365 v 2.001856 c 0,0.277 0.221364,0.498364 0.498364,0.498364 h 2.001856 c 0.277,0 0.498365,-0.221364 0.498365,-0.498364 v -2.001856 c 0,-0.277 -0.221365,-0.498365 -0.498365,-0.498365 z m -4.05131,4.000913 c -0.252739,0.02551 -0.447968,0.238677 -0.447968,0.498365 v 1.999056 c 0,0.277 0.224166,0.501164 0.501164,0.501164 h 1.999057 c 0.277,0 0.501164,-0.224164 0.501164,-0.501164 v -1.999056 c 0,-0.277 -0.224164,-0.498365 -0.501164,-0.498365 h -1.999057 c -0.01731,0 -0.03635,-0.0017 -0.0532,0 z m 4.000913,0 c -0.252739,0.02551 -0.447967,0.238677 -0.447967,0.498365 v 1.999056 c 0,0.277 0.221364,0.501164 0.498364,0.501164 h 2.001856 c 0.277,0 0.498365,-0.224164 0.498365,-0.501164 v -1.999056 c 0,-0.277 -0.221365,-0.498365 -0.498365,-0.498365 h -2.001856 c -0.01731,0 -0.03355,-0.0017 -0.0504,0 z m 10.429253,2.998585 c -0.788,0.933998 -1.088721,2.028572 -1.108721,3.20857 -0.08,0.793998 0.30676,1.466246 0.56276,2.178244 A 11.665789,11.665789 170.83824 0 1 35.52974,40.999874 H 21.020557 c -1.116247,0 -2.87376,0.565403 -2.990509,1.584706 -0.0278,0.242702 -0.03016,0.414351 -0.03016,0.414351 0,2.991994 2.610179,8.001826 8.836167,8.001826 1.153539,0 12.096479,-0.830129 14.84732,-9.004109 5e-6,-1.5e-5 1e-5,-3e-5 1.5e-5,-4.5e-5 2.315996,-0.01 3.687291,-1.058598 4.317291,-2.872594 -1.137998,-0.939998 -2.359738,-0.971145 -3.709734,-0.767145 -0.24,-1.603998 -1.161431,-2.70696 -2.413427,-3.35696 z m -18.377883,0.999529 c -0.276998,0 -0.498364,0.224164 -0.498364,0.501164 v 1.999056 c 0,0.277 0.221366,0.501164 0.498364,0.501164 h 1.999057 c 0.277,0 0.501164,-0.224164 0.501164,-0.501164 v -1.999056 c 0,-0.277 -0.224164,-0.501164 -0.501164,-0.501164 z m 4.000913,0 c -0.276998,0 -0.501164,0.224164 -0.501164,0.501164 v 1.999056 c 0,0.277 0.224166,0.501164 0.501164,0.501164 h 1.999057 c 0.277,0 0.501164,-0.224164 0.501164,-0.501164 v -1.999056 c 0,-0.277 -0.224164,-0.501164 -0.501164,-0.501164 z m 3.998114,0 c -0.277,0 -0.498364,0.224164 -0.498364,0.501164 v 1.999056 c 0,0.277 0.221364,0.501164 0.498364,0.501164 h 2.001856 c 0.277,0 0.498365,-0.224164 0.498365,-0.501164 v -1.999056 c 0,-0.277 -0.221365,-0.501164 -0.498365,-0.501164 z m 4.000913,0 c -0.277,0 -0.498364,0.224164 -0.498364,0.501164 v 1.999056 c 0,0.277 0.221364,0.501164 0.498364,0.501164 h 1.999057 c 0.276998,0 0.501164,-0.224164 0.501164,-0.501164 v -1.999056 c 0,-0.277 -0.224166,-0.501164 -0.501164,-0.501164 z"
       style=""
       id="path9"
       inkscape:path-effect="#path-effect9"
       inkscape:original-d="m 29.498661,28.000406 c -0.277,0 -0.498364,0.221365 -0.498364,0.498365 v 2.001856 c 0,0.277 0.221364,0.498364 0.498364,0.498364 h 2.001856 c 0.277,0 0.498365,-0.221364 0.498365,-0.498364 v -2.001856 c 0,-0.277 -0.221365,-0.498365 -0.498365,-0.498365 z m -4.05131,4.000913 c -0.252739,0.02551 -0.447968,0.238677 -0.447968,0.498365 v 1.999056 c 0,0.277 0.224166,0.501164 0.501164,0.501164 h 1.999057 c 0.277,0 0.501164,-0.224164 0.501164,-0.501164 v -1.999056 c 0,-0.277 -0.224164,-0.498365 -0.501164,-0.498365 h -1.999057 c -0.01731,0 -0.03635,-0.0017 -0.0532,0 z m 4.000913,0 c -0.252739,0.02551 -0.447967,0.238677 -0.447967,0.498365 v 1.999056 c 0,0.277 0.221364,0.501164 0.498364,0.501164 h 2.001856 c 0.277,0 0.498365,-0.224164 0.498365,-0.501164 v -1.999056 c 0,-0.277 -0.221365,-0.498365 -0.498365,-0.498365 h -2.001856 c -0.01731,0 -0.03355,-0.0017 -0.0504,0 z m 10.429253,2.998585 c -0.788,0.933998 -1.088721,2.028572 -1.108721,3.20857 -0.08,0.793998 0.30676,1.466246 0.56276,2.178244 l -1.780673,0.613156 H 18.999414 c -0.971998,0 -0.999529,1.999057 -0.999529,1.999057 0,2.991994 2.610179,8.001826 8.836167,8.001826 h 2.08865 c 4.99399,0.04 11.074689,-4.000164 12.758685,-9.004154 2.315996,-0.01 3.687291,-1.058598 4.317291,-2.872594 -1.137998,-0.939998 -2.359738,-0.971145 -3.709734,-0.767145 -0.24,-1.603998 -1.161431,-2.70696 -2.413427,-3.35696 z m -18.377883,0.999529 c -0.276998,0 -0.498364,0.224164 -0.498364,0.501164 v 1.999056 c 0,0.277 0.221366,0.501164 0.498364,0.501164 h 1.999057 c 0.277,0 0.501164,-0.224164 0.501164,-0.501164 v -1.999056 c 0,-0.277 -0.224164,-0.501164 -0.501164,-0.501164 z m 4.000913,0 c -0.276998,0 -0.501164,0.224164 -0.501164,0.501164 v 1.999056 c 0,0.277 0.224166,0.501164 0.501164,0.501164 h 1.999057 c 0.277,0 0.501164,-0.224164 0.501164,-0.501164 v -1.999056 c 0,-0.277 -0.224164,-0.501164 -0.501164,-0.501164 z m 3.998114,0 c -0.277,0 -0.498364,0.224164 -0.498364,0.501164 v 1.999056 c 0,0.277 0.221364,0.501164 0.498364,0.501164 h 2.001856 c 0.277,0 0.498365,-0.224164 0.498365,-0.501164 v -1.999056 c 0,-0.277 -0.221365,-0.501164 -0.498365,-0.501164 z m 4.000913,0 c -0.277,0 -0.498364,0.224164 -0.498364,0.501164 v 1.999056 c 0,0.277 0.221364,0.501164 0.498364,0.501164 h 1.999057 c 0.276998,0 0.501164,-0.224164 0.501164,-0.501164 v -1.999056 c 0,-0.277 -0.224166,-0.501164 -0.501164,-0.501164 z" />
  </g>
</svg>
