<?xml version="1.0" encoding="UTF-8" standalone="no"?>
<svg
   width="64"
   height="64"
   version="1"
   id="svg4"
   sodipodi:docname="network-workgroup.svg"
   inkscape:version="1.3.2 (091e20ef0f, 2023-11-25, custom)"
   xmlns:inkscape="http://www.inkscape.org/namespaces/inkscape"
   xmlns:sodipodi="http://sodipodi.sourceforge.net/DTD/sodipodi-0.dtd"
   xmlns:xlink="http://www.w3.org/1999/xlink"
   xmlns="http://www.w3.org/2000/svg"
   xmlns:svg="http://www.w3.org/2000/svg">
  <defs
     id="defs4">
    <inkscape:path-effect
       effect="fillet_chamfer"
       id="path-effect1"
       is_visible="true"
       lpeversion="1"
       nodesatellites_param="F,0,0,1,0,0,0,1 @ F,0,0,1,0,0,0,1 @ F,0,0,1,0,0,0,1 @ F,0,0,1,0,0,0,1 @ F,0,0,1,0,0,0,1 @ F,0,0,1,0,0,0,1 | F,0,0,1,0,2.2313425,0,1 @ F,0,0,1,0,0,0,1 @ F,0,0,1,0,0,0,1 @ F,0,0,1,0,0,0,1 @ F,0,0,1,0,0,0,1 @ F,0,0,1,0,0,0,1 @ F,0,0,1,0,0,0,1 @ F,0,0,1,0,3.0996664,0,1 @ F,0,0,1,0,0,0,1 @ F,0,0,1,0,0,0,1 @ F,0,0,1,0,2.774701,0,1 @ F,0,0,1,0,0,0,1 @ F,0,0,1,0,0,0,1 | F,0,0,1,0,1.8892532,0,1 @ F,0,0,1,0,0,0,1 @ F,0,0,1,0,1.0211566,0,1 @ F,0,0,1,0,0,0,1 @ F,0,0,1,0,0,0,1"
       radius="0"
       unit="px"
       method="auto"
       mode="F"
       chamfer_steps="1"
       flexible="false"
       use_knot_distance="true"
       apply_no_radius="true"
       apply_with_radius="true"
       only_selected="false"
       hide_knots="false" />
    <linearGradient
       id="linearGradient5"
       inkscape:collect="always">
      <stop
         style="stop-color:#01d9f6;stop-opacity:1;"
         offset="0"
         id="stop5" />
      <stop
         style="stop-color:#0077ff;stop-opacity:1;"
         offset="1"
         id="stop6" />
    </linearGradient>
    <radialGradient
       inkscape:collect="always"
       xlink:href="#linearGradient5"
       id="radialGradient6"
       cx="-34.96265"
       cy="-10.95596"
       fx="-34.96265"
       fy="-10.95596"
       r="27.999001"
       gradientUnits="userSpaceOnUse"
       gradientTransform="matrix(1.3199496,-4.9261186,3.6167337,0.96910087,80.513451,-167.3904)" />
    <inkscape:path-effect
       effect="fillet_chamfer"
       id="path-effect1-3"
       is_visible="true"
       lpeversion="1"
       nodesatellites_param="F,0,0,1,0,0,0,1 @ F,0,0,1,0,0,0,1 @ F,0,0,1,0,0,0,1 @ F,0,0,1,0,0,0,1 @ F,0,0,1,0,0,0,1 @ F,0,0,1,0,0,0,1 | F,0,0,1,0,2.2313425,0,1 @ F,0,0,1,0,0,0,1 @ F,0,0,1,0,0,0,1 @ F,0,0,1,0,0,0,1 @ F,0,0,1,0,0,0,1 @ F,0,0,1,0,0,0,1 @ F,0,0,1,0,0,0,1 @ F,0,0,1,0,3.0996664,0,1 @ F,0,0,1,0,0,0,1 @ F,0,0,1,0,0,0,1 @ F,0,0,1,0,2.774701,0,1 @ F,0,0,1,0,0,0,1 @ F,0,0,1,0,0,0,1 | F,0,0,1,0,1.8892532,0,1 @ F,0,0,1,0,0,0,1 @ F,0,0,1,0,1.0211566,0,1 @ F,0,0,1,0,0,0,1 @ F,0,0,1,0,0,0,1"
       radius="0"
       unit="px"
       method="auto"
       mode="F"
       chamfer_steps="1"
       flexible="false"
       use_knot_distance="true"
       apply_no_radius="true"
       apply_with_radius="true"
       only_selected="false"
       hide_knots="false" />
    <filter
       inkscape:collect="always"
       style="color-interpolation-filters:sRGB"
       id="filter2"
       x="-0.068129163"
       y="-0.068129163"
       width="1.1362583"
       height="1.1362583">
      <feGaussianBlur
         inkscape:collect="always"
         stdDeviation="1.5479571"
         id="feGaussianBlur2" />
    </filter>
    <filter
       inkscape:collect="always"
       style="color-interpolation-filters:sRGB"
       id="filter1"
       x="-0.047523418"
       y="-0.047508799"
       width="1.0950278"
       height="1.0950337">
      <feGaussianBlur
         inkscape:collect="always"
         stdDeviation="0.75022231"
         id="feGaussianBlur1" />
    </filter>
  </defs>
  <sodipodi:namedview
     id="namedview4"
     pagecolor="#ffffff"
     bordercolor="#000000"
     borderopacity="0.25"
     inkscape:showpageshadow="2"
     inkscape:pageopacity="0.0"
     inkscape:pagecheckerboard="0"
     inkscape:deskcolor="#d1d1d1"
     inkscape:zoom="9.7006212"
     inkscape:cx="31.080484"
     inkscape:cy="35.461647"
     inkscape:window-width="1920"
     inkscape:window-height="1014"
     inkscape:window-x="0"
     inkscape:window-y="0"
     inkscape:window-maximized="1"
     inkscape:current-layer="svg4" />
  <path
     id="rect1"
     style="fill:url(#radialGradient6)"
     transform="matrix(0,-1,-1,0,0,0)"
     d="m -32.000999,-60 c 15.511446,0 27.9990001,12.487554 27.9990001,27.999001 0,15.511446 -12.4875541,27.9990001 -27.9990001,27.9990001 C -47.512446,-4.0019989 -60,-16.489553 -60,-32.000999 -60,-47.512446 -47.512446,-60 -32.000999,-60 Z" />
  <path
     d="m 32,12.001953 c -7.864088,-0.109208 -15.448957,4.944528 -18.428258,12.213577 -3.110519,7.141191 -1.500752,16.01223 3.950996,21.583161 5.245392,5.645249 13.88719,7.705478 21.123193,5.070434 7.500109,-2.548112 13.029038,-9.9164 13.326097,-17.839954 C 52.469938,25.326875 48.006012,17.627641 41.104484,14.189584 38.300705,12.748836 35.151574,11.997154 32,12.001953 Z m -1.95835,6.095689 c -0.332024,0.761564 -0.683994,1.577622 -0.647882,2.246285 -0.465328,2.431674 -0.227683,5.127828 1.344513,7.132629 -2.059882,0.484921 -3.292299,-1.80597 -5.05418,-2.423371 -2.405118,-0.605763 -3.33562,3.300633 -1.22144,4.41224 3.728441,3.058228 9.212342,2.097318 12.971336,5.072261 1.821549,1.83973 1.537635,4.836971 0.807769,7.10506 -0.905883,2.363484 -2.77452,4.126421 -4.923016,5.410901 -1.467809,0.877531 -3.179951,0.03518 -3.494611,-1.642457 -0.253412,-1.351085 -0.626725,-2.741272 -1.682998,-3.651229 -1.255267,-1.71243 -4.363766,-2.049173 -4.64678,-4.307005 0.200249,-1.051287 0.661532,-2.0325 1.310126,-2.870535 0.932117,-1.20437 0.870378,-2.122611 -0.613517,-2.505141 -2.429991,-0.626422 -4.844969,-1.352115 -6.912415,-2.836999 -2.0733,-0.693942 -0.77804,-2.618154 -0.241782,-3.979202 2.0723,-4.519926 6.350566,-8.042109 11.23191,-9.014935 1.207264,-0.240602 2.249019,0.759574 1.772967,1.851498 z m 16.282389,7.097515 c 0.746434,1.403905 1.245722,3.0055 1.530871,4.538612 0.231629,2.201028 0.248072,4.511049 -0.40489,6.642046 -0.165155,0.538997 -0.610002,0.586498 -0.937876,0.12763 -0.815811,-1.141749 -1.678014,-2.294718 -2.694287,-3.281834 -1.443973,-1.473893 -2.994668,-3.625619 -1.882385,-5.740884 0.480731,-0.964095 1.145001,-1.871336 1.920937,-2.653226 0.733982,-0.739614 1.978465,-0.552373 2.46763,0.367656 z"
     style="fill:#ffffff"
     id="path1"
     inkscape:path-effect="#path-effect1"
     inkscape:original-d="m 32,12.001953 c -7.864088,-0.109208 -15.448957,4.944528 -18.428258,12.213577 -3.110519,7.141191 -1.500752,16.01223 3.950996,21.583161 5.245392,5.645249 13.88719,7.705478 21.123193,5.070434 7.500109,-2.548112 13.029038,-9.9164 13.326097,-17.839954 C 52.469938,25.326875 48.006012,17.627641 41.104484,14.189584 38.300705,12.748836 35.151574,11.997154 32,12.001953 Z m -1.517578,3.984375 c 0.560377,0.788185 -1.166529,2.915624 -1.088654,4.357599 -0.465328,2.431674 -0.227683,5.127828 1.344513,7.132629 -2.059882,0.484921 -3.292299,-1.80597 -5.05418,-2.423371 -2.405118,-0.605763 -3.33562,3.300633 -1.22144,4.41224 3.728441,3.058228 9.212342,2.097318 12.971336,5.072261 1.821549,1.83973 1.537635,4.836971 0.807769,7.10506 -1.283028,3.347471 -4.49733,5.490253 -7.702704,6.775217 -0.822001,-1.693091 -0.457204,-4.986115 -2.397921,-6.658002 -1.255267,-1.71243 -4.363766,-2.049173 -4.64678,-4.307005 0.374815,-1.967739 1.664143,-3.689983 3.384541,-4.687337 -3.282329,-0.881518 -6.767567,-1.490775 -9.600347,-3.525338 -2.0733,-0.693942 -0.77804,-2.618154 -0.241782,-3.979202 2.380648,-5.192469 7.672577,-9.068187 13.445649,-9.274751 z m 14.816406,7.625 c 1.33436,1.685504 2.155999,3.97138 2.556082,6.122441 0.266904,2.536223 0.24809,5.217163 -0.751389,7.602162 -0.99497,-1.400791 -2.021029,-2.885967 -3.285664,-4.11432 -1.443973,-1.473893 -2.994668,-3.625619 -1.882385,-5.740884 0.758395,-1.520943 1.973578,-2.900391 3.363356,-3.869399 z" />
  <path
     id="rect1-3"
     style="fill:none;stroke:#000000;stroke-opacity:1;stroke-width:0.19999992;stroke-dasharray:none;filter:url(#filter2)"
     d="M 59.999,32 C 59.999,16.488553 47.511446,4.0009995 32,4.0009995 16.488554,4.0009995 4.0009995,16.488553 4.0009995,32 c 0,15.511446 12.4875545,27.999 27.9989995,27.999 C 47.511446,59.999 59.999,47.511446 59.999,32 Z" />
  <path
     d="m 32,12.001953 c -7.864088,-0.109208 -15.448957,4.944528 -18.428258,12.213577 -3.110519,7.141191 -1.500752,16.01223 3.950996,21.583161 5.245392,5.645249 13.88719,7.705478 21.123193,5.070434 7.500109,-2.548112 13.029038,-9.9164 13.326097,-17.839954 C 52.469938,25.326875 48.006012,17.627641 41.104484,14.189584 38.300705,12.748836 35.151574,11.997154 32,12.001953 Z m -1.95835,6.095689 c -0.332024,0.761564 -0.683994,1.577622 -0.647882,2.246285 -0.465328,2.431674 -0.227683,5.127828 1.344513,7.132629 -2.059882,0.484921 -3.292299,-1.80597 -5.05418,-2.423371 -2.405118,-0.605763 -3.33562,3.300633 -1.22144,4.41224 3.728441,3.058228 9.212342,2.097318 12.971336,5.072261 1.821549,1.83973 1.537635,4.836971 0.807769,7.10506 -0.905883,2.363484 -2.77452,4.126421 -4.923016,5.410901 -1.467809,0.877531 -3.179951,0.03518 -3.494611,-1.642457 -0.253412,-1.351085 -0.626725,-2.741272 -1.682998,-3.651229 -1.255267,-1.71243 -4.363766,-2.049173 -4.64678,-4.307005 0.200249,-1.051287 0.661532,-2.0325 1.310126,-2.870535 0.932117,-1.20437 0.870378,-2.122611 -0.613517,-2.505141 -2.429991,-0.626422 -4.844969,-1.352115 -6.912415,-2.836999 -2.0733,-0.693942 -0.77804,-2.618154 -0.241782,-3.979202 2.0723,-4.519926 6.350566,-8.042109 11.23191,-9.014935 1.207264,-0.240602 2.249019,0.759574 1.772967,1.851498 z m 16.282389,7.097515 c 0.746434,1.403905 1.245722,3.0055 1.530871,4.538612 0.231629,2.201028 0.248072,4.511049 -0.40489,6.642046 -0.165155,0.538997 -0.610002,0.586498 -0.937876,0.12763 -0.815811,-1.141749 -1.678014,-2.294718 -2.694287,-3.281834 -1.443973,-1.473893 -2.994668,-3.625619 -1.882385,-5.740884 0.480731,-0.964095 1.145001,-1.871336 1.920937,-2.653226 0.733982,-0.739614 1.978465,-0.552373 2.46763,0.367656 z"
     style="fill:none;stroke:#4900ff;stroke-opacity:1;stroke-width:0.2;stroke-dasharray:none;opacity:1;filter:url(#filter1)"
     id="path1-5"
     inkscape:path-effect="#path-effect1-3"
     inkscape:original-d="m 32,12.001953 c -7.864088,-0.109208 -15.448957,4.944528 -18.428258,12.213577 -3.110519,7.141191 -1.500752,16.01223 3.950996,21.583161 5.245392,5.645249 13.88719,7.705478 21.123193,5.070434 7.500109,-2.548112 13.029038,-9.9164 13.326097,-17.839954 C 52.469938,25.326875 48.006012,17.627641 41.104484,14.189584 38.300705,12.748836 35.151574,11.997154 32,12.001953 Z m -1.517578,3.984375 c 0.560377,0.788185 -1.166529,2.915624 -1.088654,4.357599 -0.465328,2.431674 -0.227683,5.127828 1.344513,7.132629 -2.059882,0.484921 -3.292299,-1.80597 -5.05418,-2.423371 -2.405118,-0.605763 -3.33562,3.300633 -1.22144,4.41224 3.728441,3.058228 9.212342,2.097318 12.971336,5.072261 1.821549,1.83973 1.537635,4.836971 0.807769,7.10506 -1.283028,3.347471 -4.49733,5.490253 -7.702704,6.775217 -0.822001,-1.693091 -0.457204,-4.986115 -2.397921,-6.658002 -1.255267,-1.71243 -4.363766,-2.049173 -4.64678,-4.307005 0.374815,-1.967739 1.664143,-3.689983 3.384541,-4.687337 -3.282329,-0.881518 -6.767567,-1.490775 -9.600347,-3.525338 -2.0733,-0.693942 -0.77804,-2.618154 -0.241782,-3.979202 2.380648,-5.192469 7.672577,-9.068187 13.445649,-9.274751 z m 14.816406,7.625 c 1.33436,1.685504 2.155999,3.97138 2.556082,6.122441 0.266904,2.536223 0.24809,5.217163 -0.751389,7.602162 -0.99497,-1.400791 -2.021029,-2.885967 -3.285664,-4.11432 -1.443973,-1.473893 -2.994668,-3.625619 -1.882385,-5.740884 0.758395,-1.520943 1.973578,-2.900391 3.363356,-3.869399 z"
     transform="translate(-0.00565616,-0.00214771)" />
</svg>
