<?xml version="1.0" encoding="UTF-8" standalone="no"?>
<!-- Generator: Adobe Illustrator 25.2.1, SVG Export Plug-In . SVG Version: 6.00 Build 0)  -->

<svg
   version="1.1"
   id="Layer_1"
   x="0px"
   y="0px"
   viewBox="0 0 64 64"
   style="enable-background:new 0 0 64 64;"
   xml:space="preserve"
   sodipodi:docname="user-trash-full.svg"
   inkscape:version="1.3.2 (091e20ef0f, 2023-11-25, custom)"
   xmlns:inkscape="http://www.inkscape.org/namespaces/inkscape"
   xmlns:sodipodi="http://sodipodi.sourceforge.net/DTD/sodipodi-0.dtd"
   xmlns:xlink="http://www.w3.org/1999/xlink"
   xmlns="http://www.w3.org/2000/svg"
   xmlns:svg="http://www.w3.org/2000/svg"><defs
   id="defs10"><linearGradient
   id="linearGradient34"
   inkscape:collect="always"><stop
     style="stop-color:#ffffff;stop-opacity:1;"
     offset="0"
     id="stop34" /><stop
     style="stop-color:#a6a6a6;stop-opacity:1;"
     offset="1"
     id="stop35" /></linearGradient>
	
	
		<radialGradient
   id="SVGID_1_"
   cx="18.9775"
   cy="1036.8816"
   r="38.583"
   gradientTransform="matrix(0.90140012,0,0,0.90140012,3.2364082,-910.11319)"
   gradientUnits="userSpaceOnUse">
		<stop
   offset="0"
   style="stop-color:#757575;stop-opacity:1;"
   id="stop1" />
		<stop
   offset="1"
   style="stop-color:#545454;stop-opacity:1;"
   id="stop2" />
	</radialGradient>
	
	
	
	
		<radialGradient
   id="SVGID_4_"
   cx="-15.6362"
   cy="32.7225"
   r="16.5058"
   fx="-20.0474"
   fy="28.6819"
   gradientTransform="matrix(-0.9057,0.4239,0.4239,0.9057,18.1452,-17.0021)"
   gradientUnits="userSpaceOnUse">
		<stop
   offset="0"
   style="stop-color:#FFFFFF"
   id="stop7" />
		<stop
   offset="1"
   style="stop-color:#B7B7B7"
   id="stop8" />
	</radialGradient>
	
	
	
		<radialGradient
   id="SVGID_5_"
   cx="11.4873"
   cy="1016.485"
   r="36.1253"
   gradientTransform="matrix(0.89676018,-0.09134202,0.09134202,0.89676018,-91.203627,-903.05715)"
   gradientUnits="userSpaceOnUse">
		<stop
   offset="0"
   style="stop-color:#4c4c4c;stop-opacity:1;"
   id="stop9" />
		<stop
   offset="1"
   style="stop-color:#545454;stop-opacity:1;"
   id="stop10" />
	</radialGradient>
	

		
			<linearGradient
   id="SVGID_2_"
   gradientUnits="userSpaceOnUse"
   x1="-9.5656996"
   y1="22.406401"
   x2="16.434299"
   y2="22.406401"
   gradientTransform="matrix(-0.7274,0.6862,0.6862,0.7274,10.5345,-8.7009)">
			<stop
   offset="0"
   style="stop-color:#000000"
   id="stop3" />
			<stop
   offset="1"
   style="stop-color:#404040"
   id="stop4" />
		</linearGradient>
		
		
			<radialGradient
   id="SVGID_3_"
   cx="-2.1222"
   cy="17.730499"
   r="19.099701"
   fx="-7.2266002"
   fy="13.0549"
   gradientTransform="matrix(-0.7274,0.6862,0.6862,0.7274,10.5345,-8.7009)"
   gradientUnits="userSpaceOnUse">
			<stop
   offset="0"
   style="stop-color:#FFFFFF"
   id="stop5" />
			<stop
   offset="1"
   style="stop-color:#B7B7B7"
   id="stop6" />
		</radialGradient>
		
	<radialGradient
   id="SVGID_2_-6"
   cx="11.483"
   cy="63.456902"
   r="36.125301"
   gradientTransform="matrix(1,0,0,-1,0,66)"
   gradientUnits="userSpaceOnUse">
		<stop
   offset="0"
   style="stop-color:#707070"
   id="stop3-2" />
		<stop
   offset="1"
   style="stop-color:#454545"
   id="stop4-9" />
	</radialGradient><radialGradient
   id="SVGID_1_-1"
   cx="19.542999"
   cy="43.0602"
   r="37.8494"
   gradientTransform="matrix(1,0,0,-1,0,66)"
   gradientUnits="userSpaceOnUse">
		<stop
   offset="0"
   style="stop-color:#707070"
   id="stop1-2" />
		<stop
   offset="1"
   style="stop-color:#454545"
   id="stop2-7" />
	</radialGradient><radialGradient
   id="SVGID_5_-6"
   cx="11.4873"
   cy="1016.485"
   r="36.125301"
   gradientTransform="matrix(0.89676018,-0.09134202,0.09134202,0.89676018,-91.166257,-903.01675)"
   gradientUnits="userSpaceOnUse">
		<stop
   offset="0"
   style="stop-color:#707070"
   id="stop9-0" />
		<stop
   offset="1"
   style="stop-color:#454545"
   id="stop10-6" />
	</radialGradient><radialGradient
   id="SVGID_1_-2"
   cx="18.977501"
   cy="1036.8816"
   r="38.583"
   gradientTransform="matrix(0.90140012,0,0,0.90140012,3.2737778,-910.07279)"
   gradientUnits="userSpaceOnUse">
		<stop
   offset="0"
   style="stop-color:#707070"
   id="stop3-0" />
		<stop
   offset="1"
   style="stop-color:#454545"
   id="stop4-2" />
	</radialGradient><radialGradient
   inkscape:collect="always"
   xlink:href="#linearGradient34"
   id="radialGradient35"
   cx="26.888422"
   cy="19.252048"
   fx="26.888422"
   fy="19.252048"
   r="14.040606"
   gradientTransform="matrix(-1.169635,-0.67528911,0.55585777,-0.96277389,41.815507,51.031832)"
   gradientUnits="userSpaceOnUse" /><radialGradient
   inkscape:collect="always"
   xlink:href="#linearGradient34"
   id="radialGradient37"
   cx="29.663723"
   cy="13.703022"
   fx="29.663723"
   fy="13.703022"
   r="12.12035"
   gradientTransform="matrix(2.4944171,0,0,1.5492536,-44.329976,-5.6646181)"
   gradientUnits="userSpaceOnUse" /><filter
   inkscape:collect="always"
   style="color-interpolation-filters:sRGB"
   id="filter1"
   x="-0.10831098"
   y="-0.10830316"
   width="1.216622"
   height="1.2166063"><feGaussianBlur
     inkscape:collect="always"
     stdDeviation="1.2203495"
     id="feGaussianBlur1" /></filter></defs><sodipodi:namedview
   id="namedview10"
   pagecolor="#ffffff"
   bordercolor="#000000"
   borderopacity="0.25"
   inkscape:showpageshadow="2"
   inkscape:pageopacity="0.0"
   inkscape:pagecheckerboard="0"
   inkscape:deskcolor="#d1d1d1"
   inkscape:zoom="8.5118765"
   inkscape:cx="13.804242"
   inkscape:cy="38.769359"
   inkscape:window-width="1920"
   inkscape:window-height="1014"
   inkscape:window-x="0"
   inkscape:window-y="0"
   inkscape:window-maximized="1"
   inkscape:current-layer="Layer_1" />
<style
   type="text/css"
   id="style1">
	.st0{opacity:0.21;enable-background:new    ;}
	.st1{fill:url(#SVGID_1_);}
	.st2{opacity:0.3;fill:none;stroke:#000000;stroke-width:6;stroke-linecap:round;enable-background:new    ;}
	.st3{opacity:0.34;fill:url(#SVGID_2_);enable-background:new    ;}
	.st4{fill:url(#SVGID_3_);}
	.st5{fill:url(#SVGID_4_);}
	.st6{opacity:0.2;enable-background:new    ;}
	.st7{fill:url(#SVGID_5_);}
</style>
<path
   class="st1"
   d="m 22.526371,11.478292 h 20.461782 c 5.408401,0 9.825262,4.416861 9.825262,9.825262 l 0.18028,1.8028 c 0.9014,8.473161 0.81126,17.036462 -0.18028,25.509623 v 0 c -0.63098,5.408401 -5.588681,9.825262 -10.997082,9.825262 H 22.526371 c -5.408401,0 -10.456242,-4.416861 -11.177362,-9.825262 v 0 c -1.17182,-9.014001 -1.17182,-18.208282 0,-27.312423 v 0 c 0.72112,-5.408401 5.768961,-9.825262 11.177362,-9.825262 z"
   id="path2"
   style="fill:url(#SVGID_1_);stroke-width:0.9014" /><path
   style="enable-background:new 0 0 64 64;color:#000000;display:inline;opacity:0.3;fill:#000000;stroke-linecap:round;-inkscape-stroke:none"
   d="m 21.263672,24.097656 a 2.7042003,2.7042003 0 0 0 -2.703125,2.705078 v 21.632813 a 2.7042003,2.7042003 0 0 0 2.703125,2.705078 2.7042003,2.7042003 0 0 0 2.705078,-2.705078 V 26.802734 a 2.7042003,2.7042003 0 0 0 -2.705078,-2.705078 z m 10.818359,0 a 2.7042003,2.7042003 0 0 0 -2.705078,2.705078 v 21.632813 a 2.7042003,2.7042003 0 0 0 2.705078,2.705078 2.7042003,2.7042003 0 0 0 2.703125,-2.705078 V 26.802734 a 2.7042003,2.7042003 0 0 0 -2.703125,-2.705078 z m 10.816406,0 a 2.7042003,2.7042003 0 0 0 -2.705078,2.705078 v 21.632813 a 2.7042003,2.7042003 0 0 0 2.705078,2.705078 2.7042003,2.7042003 0 0 0 2.703125,-2.705078 V 26.802734 a 2.7042003,2.7042003 0 0 0 -2.703125,-2.705078 z"
   id="path3" /><path
   style="color:#000000;display:inline;opacity:0.3;fill:#000000;stroke-linecap:round;-inkscape-stroke:none;filter:url(#filter1)"
   d="m 21.206096,24.151242 a 2.7042003,2.7042003 0 0 0 -2.703125,2.705078 v 21.632813 a 2.7042003,2.7042003 0 0 0 2.703125,2.705078 2.7042003,2.7042003 0 0 0 2.705078,-2.705078 V 26.85632 a 2.7042003,2.7042003 0 0 0 -2.705078,-2.705078 z m 10.818359,0 a 2.7042003,2.7042003 0 0 0 -2.705078,2.705078 v 21.632813 a 2.7042003,2.7042003 0 0 0 2.705078,2.705078 2.7042003,2.7042003 0 0 0 2.703125,-2.705078 V 26.85632 a 2.7042003,2.7042003 0 0 0 -2.703125,-2.705078 z m 10.816406,0 a 2.7042003,2.7042003 0 0 0 -2.705078,2.705078 v 21.632813 a 2.7042003,2.7042003 0 0 0 2.705078,2.705078 2.7042003,2.7042003 0 0 0 2.703125,-2.705078 V 26.85632 a 2.7042003,2.7042003 0 0 0 -2.703125,-2.705078 z"
   id="path3-7" /><path
   class="st4"
   d="M 36.948773,13.641653 24.329171,25.540134 c -1.26196,1.17182 -3.1549,1.08168 -4.326721,-0.09014 L 10.627889,15.354313 c -1.17182,-1.26196 -1.08168,-3.154901 0.09014,-4.326721 l 26.320884,-1.8028 c 1.17182,1.26196 1.08168,3.1549 -0.09014,4.416861 z"
   id="path6"
   style="fill:url(#radialGradient35);stroke-width:0.9014;fill-opacity:1" /><path
   class="st5"
   d="M 52.428257,14.73919 41.924978,25.336935 c -1.050327,1.059774 -2.675191,1.082452 -3.734966,0.03213 l -8.415829,-8.233474 c -1.059774,-1.050328 -1.082451,-2.675192 -0.03213,-3.734967 l 22.685261,-2.311822 c 1.02859,0.965754 1.051268,2.590618 9.01e-4,3.650392 z"
   id="path8"
   style="fill:url(#radialGradient37);stroke-width:0.9014" /><path
   class="st7"
   d="M 24.952167,6.0350049 35.713289,4.9389007 c 1.524492,-0.1552815 2.809025,0.8917621 2.964306,2.4162545 v 0 c 0.155282,1.5244923 -0.891762,2.8090248 -2.416254,2.9643068 l -10.761122,1.096104 c -1.524492,0.155281 -2.809025,-0.891762 -2.964307,-2.4162545 v 0 C 22.389765,7.5644952 23.427674,6.1902863 24.952167,6.0350049 Z M 11.683448,9.1986556 49.347376,5.3622907 C 52.306684,5.0608621 54.97456,7.2354911 55.275989,10.1948 v 0 c 0.301428,2.959308 -1.873201,5.627184 -4.832509,5.928613 L 12.779552,19.959778 C 9.8202437,20.261206 7.1523678,18.086577 6.8509391,15.127269 v 0 C 6.5495104,12.16796 8.7241395,9.5000842 11.683448,9.1986556 Z"
   id="path10"
   style="fill:url(#SVGID_5_);stroke-width:0.9014" />
</svg>
