<?xml version="1.0" encoding="UTF-8" standalone="no"?>
<!-- Generator: Adobe Illustrator 25.2.1, SVG Export Plug-In . SVG Version: 6.00 Build 0)  -->

<svg
   version="1.1"
   id="Layer_1"
   x="0px"
   y="0px"
   viewBox="0 0 64 64"
   style="enable-background:new 0 0 64 64;"
   xml:space="preserve"
   sodipodi:docname="user-blue-home-open.svg"
   inkscape:version="1.3.2 (091e20ef0f, 2023-11-25, custom)"
   xmlns:inkscape="http://www.inkscape.org/namespaces/inkscape"
   xmlns:sodipodi="http://sodipodi.sourceforge.net/DTD/sodipodi-0.dtd"
   xmlns="http://www.w3.org/2000/svg"
   xmlns:svg="http://www.w3.org/2000/svg"><defs
   id="defs14"><inkscape:path-effect
     effect="fillet_chamfer"
     id="path-effect14"
     is_visible="true"
     lpeversion="1"
     nodesatellites_param="F,0,0,1,0,0,0,1 @ F,0,0,1,0,2.0022855,0,1 @ F,0,0,1,0,0,0,1 @ F,0,0,1,0,0,0,1 @ F,0,0,1,0,0,0,1 @ F,0,0,1,0,0,0,1 @ F,0,0,1,0,0,0,1 @ F,0,0,1,0,0,0,1 @ F,0,0,1,0,0,0,1 @ F,0,0,1,0,0,0,1 @ F,0,0,1,0,0,0,1 @ F,0,0,1,0,0,0,1 @ F,0,0,1,0,0,0,1 @ F,0,0,1,0,0,0,1 @ F,0,1,1,0,2.0022855,0,1 @ F,0,0,1,0,0,0,1 @ F,0,0,1,0,0,0,1 @ F,0,0,1,0,0,0,1"
     radius="0"
     unit="px"
     method="auto"
     mode="F"
     chamfer_steps="1"
     flexible="false"
     use_knot_distance="true"
     apply_no_radius="true"
     apply_with_radius="true"
     only_selected="false"
     hide_knots="false" /><radialGradient
     id="SVGID_2_-5"
     cx="28.198799"
     cy="26.138901"
     r="40.0504"
     fx="5.5560002"
     fy="8.5401001"
     gradientUnits="userSpaceOnUse">
	<stop
   offset="0"
   style="stop-color:#15C7FF"
   id="stop3-3" />
	<stop
   offset="1"
   style="stop-color:#005A9E"
   id="stop4-5" />
</radialGradient><radialGradient
     id="SVGID_4_-3"
     cx="25.2845"
     cy="26.629101"
     r="32.348301"
     fx="16.6394"
     fy="18.710199"
     gradientUnits="userSpaceOnUse">
	<stop
   offset="0"
   style="stop-color:#FFFFFF"
   id="stop7-6" />
	<stop
   offset="1"
   style="stop-color:#B7B7B7"
   id="stop8-7" />
</radialGradient><radialGradient
     id="SVGID_6_-3"
     cx="32"
     cy="39"
     r="40.048599"
     fx="14.0678"
     fy="24.8514"
     gradientUnits="userSpaceOnUse"
     gradientTransform="translate(4.209578e-7,0.19779612)">
	<stop
   offset="0"
   style="stop-color:#00F0F4"
   id="stop11-6" />
	<stop
   offset="1"
   style="stop-color:#1598FF"
   id="stop12-7" />
</radialGradient></defs><sodipodi:namedview
   id="namedview14"
   pagecolor="#505050"
   bordercolor="#eeeeee"
   borderopacity="1"
   inkscape:showpageshadow="0"
   inkscape:pageopacity="0"
   inkscape:pagecheckerboard="0"
   inkscape:deskcolor="#505050"
   inkscape:zoom="11.390625"
   inkscape:cx="37.706447"
   inkscape:cy="29.497942"
   inkscape:window-width="1920"
   inkscape:window-height="1014"
   inkscape:window-x="0"
   inkscape:window-y="0"
   inkscape:window-maximized="1"
   inkscape:current-layer="Layer_1" />
<style
   type="text/css"
   id="style1">
	.st0{opacity:0.15;fill:url(#SVGID_1_);enable-background:new    ;}
	.st1{fill:url(#SVGID_2_);}
	.st2{opacity:0.34;fill:url(#SVGID_3_);enable-background:new    ;}
	.st3{fill:url(#SVGID_4_);}
	.st4{opacity:0.12;fill:url(#SVGID_5_);enable-background:new    ;}
	.st5{fill:url(#SVGID_6_);}
	.st6{fill:url(#SVGID_7_);}
</style>
<radialGradient
   id="SVGID_1_"
   cx="28.1988"
   cy="1039.5519"
   r="40.0504"
   fx="5.556"
   fy="1021.9531"
   gradientTransform="matrix(1 0 0 1 0 -1014)"
   gradientUnits="userSpaceOnUse">
	<stop
   offset="0"
   style="stop-color:#000000"
   id="stop1" />
	<stop
   offset="1"
   style="stop-color:#545454"
   id="stop2" />
</radialGradient>

<radialGradient
   id="SVGID_2_"
   cx="28.1988"
   cy="1040.1389"
   r="40.0504"
   fx="5.556"
   fy="1022.5401"
   gradientTransform="matrix(1 0 0 1 0 -1014)"
   gradientUnits="userSpaceOnUse">
	<stop
   offset="0"
   style="stop-color:#15C7FF"
   id="stop3" />
	<stop
   offset="1"
   style="stop-color:#005A9E"
   id="stop4" />
</radialGradient>

<linearGradient
   id="SVGID_3_"
   gradientUnits="userSpaceOnUse"
   x1="8.1"
   y1="1041.85"
   x2="56.1"
   y2="1041.85"
   gradientTransform="matrix(1 0 0 1 0 -1014)">
	<stop
   offset="0"
   style="stop-color:#000000"
   id="stop5" />
	<stop
   offset="1"
   style="stop-color:#404040"
   id="stop6" />
</linearGradient>

<radialGradient
   id="SVGID_4_"
   cx="25.2845"
   cy="1040.6292"
   r="32.3483"
   fx="16.6394"
   fy="1032.7102"
   gradientTransform="matrix(1 0 0 1 0 -1014)"
   gradientUnits="userSpaceOnUse">
	<stop
   offset="0"
   style="stop-color:#FFFFFF"
   id="stop7" />
	<stop
   offset="1"
   style="stop-color:#B7B7B7"
   id="stop8" />
</radialGradient>


<linearGradient
   id="SVGID_7_"
   gradientUnits="userSpaceOnUse"
   x1="30.5568"
   y1="33.5923"
   x2="65.1047"
   y2="61.3809"
   gradientTransform="translate(-0.82186643,-1.7790852)">
	<stop
   offset="0"
   style="stop-color:#000000;stop-opacity:1;"
   id="stop13" />
	<stop
   offset="1"
   style="stop-color:#005A9E"
   id="stop14" />
</linearGradient>
<g
   id="g1"
   style="enable-background:new 0 0 64 64"><g
     id="g2"
     transform="translate(6.3894702e-7,-0.399414)"><path
       class="st1"
       d="M 11.7,49.6 H 52.4 C 56.6,49.6 60,46.2 60,42 V 21.3 c 0,-4.2 -3.4,-7.6 -7.6,-7.6 H 32.1 c -4.2,0 -5.6,-6 -9.8,-6 H 11.7 c -4.2,0 -7.6,3.4 -7.6,7.6 V 42 c 0,4.2 3.4,7.6 7.6,7.6 z"
       id="path4"
       style="fill:url(#SVGID_2_-5)" /><path
       class="st3"
       d="m 11.5,17.6 h 41.2 c 1.9,0 3.4,1.5 3.4,3.4 v 15.2 c 0,1.9 -1.5,3.4 -3.4,3.4 H 11.5 C 9.6,39.6 8.1,38.1 8.1,36.2 V 21 c 0,-1.9 1.5,-3.4 3.4,-3.4 z"
       id="path8"
       style="fill:url(#SVGID_4_-3)" /><path
       d="m 13,28.298 c -4.9999896,0 -8.9999996,4.00001 -8.9999996,9 v 10.899796 c 0,4.99999 4.00001,9 8.9999996,9 h 38 c 4.99999,0 9,-4.00001 9,-9 V 37.298 c 0,-4.99999 -4.00001,-9 -9,-9 z"
       style="fill:url(#SVGID_6_-3)"
       id="path16"
       sodipodi:nodetypes="sssssssss" /></g></g><path
   class="st6"
   d="m 36.378133,43.620915 a 2.0011431,2.0011431 45.032719 0 1 2,2.002285 v 2.997715 c 0,1.7 1.3,3 3,3 1.7,0 3,-1.3 3,-3 v -1 c 0,-1.1 0.9,-2 2,-2 1.1,0 2,0.9 2,2 v 1 c 0,1.7 1.3,3 3,3 1.7,0 3,-1.3 3,-3 l 0,-2.997715 a 2.0011431,2.0011431 134.96728 0 1 2,-2.002285 l -8.6,-8.6 c -0.8,-0.8 -2,-0.8 -2.8,0 z"
   id="path14"
   style="fill:#000000;opacity:0.3;fill-opacity:1"
   inkscape:path-effect="#path-effect14"
   inkscape:original-d="m 36.378133,43.620915 h 2 v 5 c 0,1.7 1.3,3 3,3 v 0 c 1.7,0 3,-1.3 3,-3 v -1 c 0,-1.1 0.9,-2 2,-2 v 0 c 1.1,0 2,0.9 2,2 v 1 c 0,1.7 1.3,3 3,3 v 0 c 1.7,0 3,-1.3 3,-3 v -5 h 2 l -8.6,-8.6 c -0.8,-0.8 -2,-0.8 -2.8,0 z" />
</svg>
