<?xml version="1.0" encoding="UTF-8" standalone="no"?>
<svg
   width="64"
   height="64"
   version="1"
   id="svg4"
   sodipodi:docname="folder-red.svg"
   inkscape:version="1.3.2 (091e20ef0f, 2023-11-25, custom)"
   xmlns:inkscape="http://www.inkscape.org/namespaces/inkscape"
   xmlns:sodipodi="http://sodipodi.sourceforge.net/DTD/sodipodi-0.dtd"
   xmlns:xlink="http://www.w3.org/1999/xlink"
   xmlns="http://www.w3.org/2000/svg"
   xmlns:svg="http://www.w3.org/2000/svg">
  <defs
     id="defs4">
    <radialGradient
       id="radialGradient8"
       cx="28.128099"
       cy="40.926701"
       r="40.0504"
       fx="5.4853001"
       fy="23.3279"
       gradientTransform="matrix(1,0,0,-1,0,66.5)"
       gradientUnits="userSpaceOnUse">
      <stop
         offset="0"
         style="stop-color:#ff4736;stop-opacity:1;"
         id="stop7" />
      <stop
         offset="1"
         style="stop-color:#f10078;stop-opacity:1;"
         id="stop8" />
    </radialGradient>
    <radialGradient
       id="SVGID_1_-3"
       cx="28.128099"
       cy="41.513599"
       r="40.0504"
       fx="5.4853001"
       fy="23.914801"
       gradientTransform="matrix(1,0,0,-1,0,66.5)"
       gradientUnits="userSpaceOnUse">
      <stop
         offset="0"
         style="stop-color:#000000"
         id="stop1-6" />
      <stop
         offset="1"
         style="stop-color:#545454"
         id="stop2-0" />
    </radialGradient>
    <radialGradient
       id="SVGID_2_-7"
       cx="28.128099"
       cy="40.926701"
       r="40.0504"
       fx="5.4853001"
       fy="23.3279"
       gradientTransform="matrix(1,0,0,-1,0,66.5)"
       gradientUnits="userSpaceOnUse"
       xlink:href="#SVGID_3_">
      <stop
         offset="0"
         style="stop-color:#ff1521;stop-opacity:1;"
         id="stop3-0" />
      <stop
         offset="1"
         style="stop-color:#9e0069;stop-opacity:1;"
         id="stop4-9" />
    </radialGradient>
    <linearGradient
       id="SVGID_3_"
       gradientUnits="userSpaceOnUse"
       x1="8"
       y1="39.25"
       x2="56"
       y2="39.25"
       gradientTransform="matrix(1,0,0,-1,0,66.5)">
      <stop
         offset="0"
         style="stop-color:#000000"
         id="stop5" />
      <stop
         offset="1"
         style="stop-color:#404040"
         id="stop6" />
    </linearGradient>
    <radialGradient
       id="SVGID_4_-6"
       cx="25.213699"
       cy="40.436501"
       r="32.348301"
       fx="16.568701"
       fy="32.5177"
       gradientTransform="matrix(1,0,0,-1,0,66.5)"
       gradientUnits="userSpaceOnUse">
      <stop
         offset="0"
         style="stop-color:#FFFFFF"
         id="stop7-2" />
      <stop
         offset="1"
         style="stop-color:#B7B7B7"
         id="stop8-9" />
    </radialGradient>
    <radialGradient
       id="SVGID_5_-5"
       cx="32"
       cy="27.799999"
       r="40.0672"
       fx="14.0595"
       fy="13.6449"
       gradientTransform="matrix(1,0,0,-1,0,66.5)"
       gradientUnits="userSpaceOnUse">
      <stop
         offset="0"
         style="stop-color:#000000"
         id="stop9-3" />
      <stop
         offset="1"
         style="stop-color:#545454"
         id="stop10-5" />
    </radialGradient>
    <radialGradient
       id="SVGID_6_-3"
       cx="17.471188"
       cy="23.597219"
       r="40.048599"
       fx="-0.46102485"
       fy="9.4486217"
       gradientTransform="matrix(-0.03980367,-0.98886308,-0.99919087,0.04021938,41.744731,59.230327)"
       gradientUnits="userSpaceOnUse">
      <stop
         offset="0"
         style="stop-color:#000000;stop-opacity:1"
         id="stop11-6" />
      <stop
         offset="1"
         style="stop-color:#000000;stop-opacity:1"
         id="stop12-7" />
    </radialGradient>
    <filter
       inkscape:collect="always"
       style="color-interpolation-filters:sRGB"
       id="filter21"
       x="-0.06370015"
       y="-0.070707875"
       width="1.1274003"
       height="1.1414157">
      <feGaussianBlur
         inkscape:collect="always"
         stdDeviation="1.4996077"
         id="feGaussianBlur21" />
    </filter>
    <radialGradient
       id="SVGID_6_"
       cx="32"
       cy="39"
       r="40.048599"
       fx="14.0678"
       fy="24.8514"
       gradientUnits="userSpaceOnUse"
       gradientTransform="translate(4.209578e-7,0.19628996)">
      <stop
         offset="0"
         style="stop-color:#ff775e;stop-opacity:1;"
         id="stop11" />
      <stop
         offset="1"
         style="stop-color:#ff2e67;stop-opacity:1;"
         id="stop12" />
    </radialGradient>
    <radialGradient
       id="SVGID_4_"
       cx="25.213699"
       cy="25.563499"
       r="32.348301"
       fx="16.568701"
       fy="17.644699"
       gradientUnits="userSpaceOnUse"
       gradientTransform="translate(4.209578e-7,0.19628996)">
      <stop
         offset="0"
         style="stop-color:#FFFFFF"
         id="stop7-3" />
      <stop
         offset="1"
         style="stop-color:#B7B7B7"
         id="stop8-6" />
    </radialGradient>
    <radialGradient
       id="SVGID_2_"
       cx="28.128099"
       cy="25.073299"
       r="40.0504"
       fx="5.4853001"
       fy="7.4745002"
       gradientUnits="userSpaceOnUse"
       gradientTransform="translate(4.209578e-7,0.19628996)">
      <stop
         offset="0"
         style="stop-color:#f28343;stop-opacity:1;"
         id="stop3" />
      <stop
         offset="1"
         style="stop-color:#c61b51;stop-opacity:1;"
         id="stop4" />
    </radialGradient>
  </defs>
  <sodipodi:namedview
     id="namedview4"
     pagecolor="#ffffff"
     bordercolor="#000000"
     borderopacity="0.25"
     inkscape:showpageshadow="2"
     inkscape:pageopacity="0.0"
     inkscape:pagecheckerboard="0"
     inkscape:deskcolor="#d1d1d1"
     inkscape:zoom="9.7006212"
     inkscape:cx="24.122167"
     inkscape:cy="41.595274"
     inkscape:window-width="1920"
     inkscape:window-height="1020"
     inkscape:window-x="0"
     inkscape:window-y="0"
     inkscape:window-maximized="1"
     inkscape:current-layer="svg4" />
  <path
     d="m 11.599609,6.7958994 c -4.1999908,0 -7.5996086,3.3996176 -7.5996086,7.5996096 V 30.19629 c 0,-4.999985 4.000015,-9 8.9999996,-9 h 38 c 4.564943,0 8.28562,3.337322 8.900391,7.722656 v -8.523437 c 0,-4.199992 -3.399618,-7.59961 -7.59961,-7.59961 H 32 c -4.199992,0 -5.60079,-5.9999996 -9.800781,-5.9999996 z"
     style="fill:url(#SVGID_2_)"
     id="path17" />
  <path
     d="m 11.400391,16.795899 c -1.8999947,0 -3.4003906,1.500397 -3.4003906,3.400391 v 2.501953 C 9.4270037,21.749317 11.143947,21.19629 13,21.19629 h 38 c 1.856053,0 3.572997,0.553027 5,1.501953 V 20.19629 c 0,-1.899994 -1.500396,-3.400391 -3.400391,-3.400391 z"
     style="fill:url(#SVGID_4_)"
     id="path15" />
  <path
     d="m 13,21.19629 c -4.9999896,0 -8.9999996,4.00001 -8.9999996,9 v 18 c 0,4.99999 4.00001,9 8.9999996,9 h 38 c 4.99999,0 9,-4.00001 9,-9 v -18 c 0,-4.99999 -4.00001,-9 -9,-9 z"
     style="fill:url(#SVGID_6_)"
     id="path16" />
  <path
     d="m 11.648438,6.5498056 c -4.3348892,0 -7.8496095,3.5147204 -7.8496095,7.8496094 v 14.837891 c -0.03233,0.316613 -0.048828,0.637307 -0.048828,0.96289 v 18 c 0,5.133314 4.1166863,9.25 9.2499996,9.25 h 38 c 5.133314,0 9.25,-4.116686 9.25,-9.25 v -18 c 0,-0.433634 -0.03882,-0.856181 -0.0957,-1.273437 l 0.04492,-0.0039 v -8.523437 c 0,-4.334889 -3.51472,-7.849609 -7.84961,-7.849609 H 32.048828 c -1.980944,0 -3.316602,-1.419926 -4.716797,-2.9199222 -1.400194,-1.499994 -2.864945,-3.0800782 -5.083984,-3.0800782 z m 0,0.5 h 10.599609 c 1.980944,0 3.318555,1.419925 4.71875,2.9199219 1.400194,1.4999975 2.862992,3.0800785 5.082031,3.0800785 h 20.300781 c 4.065079,0 7.34961,3.284531 7.34961,7.349609 v 6.664062 C 59.041757,25.225095 57.828459,23.660253 56.25,22.575196 v -2.375 c 0,-2.031604 -1.618786,-3.65039 -3.650391,-3.65039 H 11.400391 c -2.0316053,0 -3.6503906,1.618786 -3.6503906,3.65039 v 2.375 C 6.1698761,23.661397 4.9557951,25.228435 4.2988285,27.069337 V 14.399415 c 0,-4.065078 3.2845313,-7.3496094 7.3496095,-7.3496094 z M 11.400391,17.049806 h 41.199218 c 1.768379,0 3.150391,1.382014 3.150391,3.15039 v 2.0625 c -0.472651,-0.282131 -0.97089,-0.523443 -1.494141,-0.71875 -0.135469,-0.05194 -0.271421,-0.103008 -0.410156,-0.148437 -0.07111,-0.02275 -0.142984,-0.04338 -0.214844,-0.06445 -0.224042,-0.0671 -0.45189,-0.124193 -0.683593,-0.173829 -0.04622,-0.0098 -0.09219,-0.02019 -0.138672,-0.0293 -0.261494,-0.05166 -0.526669,-0.0926 -0.796875,-0.121094 -0.02819,-0.003 -0.05571,-0.0089 -0.08398,-0.01172 -0.08677,-0.0083 -0.174119,-0.01367 -0.261718,-0.01953 -0.08502,-0.0065 -0.172041,-0.0057 -0.257813,-0.0098 -0.119896,-0.0047 -0.238061,-0.01563 -0.359375,-0.01563 H 51 13.050781 13 c -0.248613,0 -0.493764,0.01263 -0.736328,0.0332 -6.49e-4,5.5e-5 -0.0013,-5.5e-5 -0.002,0 -0.0158,0.0013 -0.03111,0.0044 -0.04687,0.0059 -0.147247,0.01224 -0.292356,0.02986 -0.4375,0.04883 -0.04576,0.0065 -0.0912,0.0143 -0.136719,0.02148 -0.04631,0.0068 -0.09259,0.01405 -0.138672,0.02148 -6.34e-4,1.02e-4 -0.0013,-1.03e-4 -0.002,0 -1.174701,0.189682 -2.2704986,0.596963 -3.2499996,1.18164 v -2.0625 c 0,-1.768376 1.3820129,-3.15039 3.1503906,-3.15039 z m 1.65039,4.40039 H 51 c 0.271192,0 0.538151,0.0174 0.802734,0.04102 0.08186,0.0074 0.162987,0.01582 0.244141,0.02539 0.189555,0.0222 0.377009,0.05007 0.5625,0.08398 0.08733,0.01607 0.175361,0.03217 0.261719,0.05078 0.2113,0.04529 0.419869,0.09815 0.625,0.158203 0.03037,0.0089 0.06157,0.01613 0.0918,0.02539 0.08351,0.02557 0.163696,0.05797 0.246093,0.08594 0.149636,0.05054 0.297585,0.103874 0.44336,0.16211 0.117367,0.04709 0.232922,0.0965 0.347656,0.148437 0.10409,0.04695 0.206776,0.09564 0.308594,0.146485 0.122697,0.06146 0.245959,0.122502 0.365234,0.189453 0.115197,0.06452 0.22606,0.135567 0.337891,0.205078 0.07465,0.04646 0.151494,0.09005 0.224609,0.138672 l 0.101563,0.06641 C 58.255933,24.547928 59.75,27.183891 59.75,30.200196 v 18 c 0,4.866646 -3.883354,8.75 -8.75,8.75 H 13 c -4.8666459,0 -8.7499996,-3.883354 -8.7499996,-8.75 v -18 h 0.048828 c 0,-4.560479 3.4116982,-8.257967 7.8457026,-8.705078 0.0032,-3.1e-4 0.0065,3.07e-4 0.0098,0 0.294548,-0.02938 0.593635,-0.04492 0.896484,-0.04492 z"
     style="stroke:#000000;stroke-width:0;stroke-dasharray:none;stroke-opacity:1;filter:url(#filter21)"
     id="path21" />
</svg>
