<?xml version="1.0" encoding="UTF-8" standalone="no"?>
<!-- Generator: Adobe Illustrator 25.2.1, SVG Export Plug-In . SVG Version: 6.00 Build 0)  -->

<svg
   version="1.1"
   id="Layer_1"
   x="0px"
   y="0px"
   viewBox="0 0 64 64"
   style="enable-background:new 0 0 64 64;"
   xml:space="preserve"
   sodipodi:docname="folder-blue-github.svg"
   inkscape:version="1.3.2 (091e20ef0f, 2023-11-25, custom)"
   xmlns:inkscape="http://www.inkscape.org/namespaces/inkscape"
   xmlns:sodipodi="http://sodipodi.sourceforge.net/DTD/sodipodi-0.dtd"
   xmlns="http://www.w3.org/2000/svg"
   xmlns:svg="http://www.w3.org/2000/svg"><defs
   id="defs14"><inkscape:path-effect
     effect="fillet_chamfer"
     id="path-effect1"
     is_visible="true"
     lpeversion="1"
     nodesatellites_param="F,0,0,1,0,0,0,1 @ F,0,0,1,0,0,0,1 @ F,0,0,1,0,0,0,1 @ F,0,0,1,0,0,0,1 @ F,0,0,1,0,0,0,1 @ F,0,0,1,0,0,0,1 @ F,0,0,1,0,0,0,1 @ F,0,0,1,0,0,0,1 @ F,0,0,1,0,0,0,1 @ F,0,0,1,0,0,0,1 @ F,0,0,1,0,0,0,1 @ F,0,0,1,0,0,0,1 @ F,0,0,1,0,0,0,1 @ F,0,0,1,0,0,0,1 @ F,0,0,1,0,0,0,1 @ F,0,0,1,0,0,0,1 @ F,0,0,1,0,0,0,1 @ F,0,0,1,0,0,0,1 @ F,0,0,1,0,0,0,1 @ F,0,0,1,0,0,0,1 @ F,0,0,1,0,0,0,1 @ F,0,0,1,0,0,0,1 @ F,0,0,1,0,0,0,1 @ F,0,0,1,0,0,0,1 @ F,0,0,1,0,0,0,1"
     radius="0"
     unit="px"
     method="auto"
     mode="F"
     chamfer_steps="1"
     flexible="false"
     use_knot_distance="true"
     apply_no_radius="true"
     apply_with_radius="true"
     only_selected="false"
     hide_knots="false" /><filter
     inkscape:collect="always"
     style="color-interpolation-filters:sRGB"
     id="filter21"
     x="-0.063700149"
     y="-0.070707875"
     width="1.1274003"
     height="1.1414157"><feGaussianBlur
       inkscape:collect="always"
       stdDeviation="1.4996077"
       id="feGaussianBlur21" /></filter><radialGradient
     id="SVGID_6_-3"
     cx="32"
     cy="39"
     r="40.048599"
     fx="14.0678"
     fy="24.8514"
     gradientUnits="userSpaceOnUse">
	<stop
   offset="0"
   style="stop-color:#00F0F4"
   id="stop11-7" />
	<stop
   offset="1"
   style="stop-color:#1598FF"
   id="stop12-5" />
</radialGradient><radialGradient
     id="SVGID_4_-9"
     cx="25.213699"
     cy="25.563499"
     r="32.348301"
     fx="16.568701"
     fy="17.644699"
     gradientUnits="userSpaceOnUse">
	<stop
   offset="0"
   style="stop-color:#FFFFFF"
   id="stop7-2" />
	<stop
   offset="1"
   style="stop-color:#B7B7B7"
   id="stop8-2" />
</radialGradient><radialGradient
     id="SVGID_2_-8"
     cx="28.128099"
     cy="25.073299"
     r="40.0504"
     fx="5.4853001"
     fy="7.4745002"
     gradientUnits="userSpaceOnUse">
	<stop
   offset="0"
   style="stop-color:#15C7FF"
   id="stop3-9" />
	<stop
   offset="1"
   style="stop-color:#005A9E"
   id="stop4-7" />
</radialGradient></defs><sodipodi:namedview
   id="namedview14"
   pagecolor="#ffffff"
   bordercolor="#000000"
   borderopacity="0.25"
   inkscape:showpageshadow="2"
   inkscape:pageopacity="0.0"
   inkscape:pagecheckerboard="0"
   inkscape:deskcolor="#d1d1d1"
   inkscape:zoom="9.8221551"
   inkscape:cx="41.844177"
   inkscape:cy="40.775165"
   inkscape:window-width="1920"
   inkscape:window-height="1020"
   inkscape:window-x="0"
   inkscape:window-y="0"
   inkscape:window-maximized="1"
   inkscape:current-layer="Layer_1" />
<style
   type="text/css"
   id="style1">
	.st0{opacity:0.15;fill:url(#SVGID_1_);}
	.st1{fill:url(#SVGID_2_);}
	.st2{opacity:0.34;fill:url(#SVGID_3_);}
	.st3{fill:url(#SVGID_4_);}
	.st4{opacity:0.12;fill:url(#SVGID_5_);}
	.st5{fill:url(#SVGID_6_);}
	.st6{fill:url(#SVGID_7_);}
</style>
<radialGradient
   id="SVGID_1_"
   cx="28.1281"
   cy="24.4864"
   r="40.0504"
   fx="5.4853"
   fy="6.8876"
   gradientUnits="userSpaceOnUse">
	<stop
   offset="0"
   style="stop-color:#000000"
   id="stop1" />
	<stop
   offset="1"
   style="stop-color:#545454"
   id="stop2" />
</radialGradient>

<radialGradient
   id="SVGID_2_"
   cx="28.1281"
   cy="25.0733"
   r="40.0504"
   fx="5.4853"
   fy="7.4745"
   gradientUnits="userSpaceOnUse">
	<stop
   offset="0"
   style="stop-color:#15C7FF"
   id="stop3" />
	<stop
   offset="1"
   style="stop-color:#005A9E"
   id="stop4" />
</radialGradient>

<linearGradient
   id="SVGID_3_"
   gradientUnits="userSpaceOnUse"
   x1="8"
   y1="26.7181"
   x2="56"
   y2="26.7181">
	<stop
   offset="0"
   style="stop-color:#000000"
   id="stop5" />
	<stop
   offset="1"
   style="stop-color:#404040"
   id="stop6" />
</linearGradient>

<radialGradient
   id="SVGID_4_"
   cx="25.2137"
   cy="25.5635"
   r="32.3483"
   fx="16.5687"
   fy="17.6447"
   gradientUnits="userSpaceOnUse">
	<stop
   offset="0"
   style="stop-color:#FFFFFF"
   id="stop7" />
	<stop
   offset="1"
   style="stop-color:#B7B7B7"
   id="stop8" />
</radialGradient>

<radialGradient
   id="SVGID_5_"
   cx="32"
   cy="38.1714"
   r="40.0486"
   fx="14.0678"
   fy="24.0229"
   gradientUnits="userSpaceOnUse">
	<stop
   offset="0"
   style="stop-color:#000000"
   id="stop9" />
	<stop
   offset="1"
   style="stop-color:#545454"
   id="stop10" />
</radialGradient>

<radialGradient
   id="SVGID_6_"
   cx="32"
   cy="39"
   r="40.0486"
   fx="14.0678"
   fy="24.8514"
   gradientUnits="userSpaceOnUse">
	<stop
   offset="0"
   style="stop-color:#00F0F4"
   id="stop11" />
	<stop
   offset="1"
   style="stop-color:#1598FF"
   id="stop12" />
</radialGradient>

<linearGradient
   id="SVGID_7_"
   gradientUnits="userSpaceOnUse"
   x1="40.3785"
   y1="38.2137"
   x2="58.7791"
   y2="52.4101">
	<stop
   offset="0"
   style="stop-color:#15C7FF"
   id="stop13" />
	<stop
   offset="1"
   style="stop-color:#005A9E"
   id="stop14" />
</linearGradient>
<g
   id="g1"
   transform="translate(4.209578e-7,0.19628996)"
   style="enable-background:new 0 0 64 64"><path
     d="M 11.599609,6.5996094 C 7.3996178,6.5996094 4,9.9992271 4,14.199219 V 30 c 0,-4.999985 4.000015,-9 9,-9 h 38 c 4.564943,0 8.28562,3.337322 8.900391,7.722656 v -8.523437 c 0,-4.199992 -3.399618,-7.59961 -7.59961,-7.59961 H 32 c -4.199992,0 -5.60079,-5.9999996 -9.800781,-5.9999996 z"
     style="fill:url(#SVGID_2_-8)"
     id="path17" /><path
     d="M 11.400391,16.599609 C 9.5003959,16.599609 8,18.100006 8,20 v 2.501953 C 9.4270033,21.553027 11.143947,21 13,21 h 38 c 1.856053,0 3.572997,0.553027 5,1.501953 V 20 c 0,-1.899994 -1.500396,-3.400391 -3.400391,-3.400391 z"
     style="fill:url(#SVGID_4_-9)"
     id="path15" /><path
     d="m 13,21 c -4.99999,0 -9,4.00001 -9,9 v 18 c 0,4.99999 4.00001,9 9,9 h 38 c 4.99999,0 9,-4.00001 9,-9 V 30 c 0,-4.99999 -4.00001,-9 -9,-9 z"
     style="fill:url(#SVGID_6_-3)"
     id="path16" /><path
     d="m 11.648438,6.3535156 c -4.3348896,0 -7.8496099,3.5147203 -7.8496099,7.8496094 V 29.041016 C 3.7664979,29.357629 3.75,29.678323 3.75,30.003906 v 18 c 0,5.133314 4.1166863,9.25 9.25,9.25 h 38 c 5.133314,0 9.25,-4.116686 9.25,-9.25 v -18 c 0,-0.433634 -0.03882,-0.856181 -0.0957,-1.273437 l 0.04492,-0.0039 v -8.523437 c 0,-4.334889 -3.51472,-7.849609 -7.84961,-7.849609 H 32.048828 c -1.980944,0 -3.316602,-1.419926 -4.716797,-2.9199222 -1.400194,-1.499994 -2.864945,-3.0800782 -5.083984,-3.0800782 z m 0,0.5 h 10.599609 c 1.980944,0 3.318555,1.419925 4.71875,2.9199219 1.400194,1.4999975 2.862992,3.0800785 5.082031,3.0800785 h 20.300781 c 4.065079,0 7.34961,3.284531 7.34961,7.349609 v 6.664062 C 59.041757,25.028805 57.828459,23.463963 56.25,22.378906 v -2.375 c 0,-2.031604 -1.618786,-3.65039 -3.650391,-3.65039 H 11.400391 c -2.0316057,0 -3.650391,1.618786 -3.650391,3.65039 v 2.375 C 6.1698757,23.465107 4.9557947,25.032145 4.2988281,26.873047 V 14.203125 c 0,-4.065078 3.2845313,-7.3496094 7.3496099,-7.3496094 z M 11.400391,16.853516 h 41.199218 c 1.768379,0 3.150391,1.382014 3.150391,3.15039 v 2.0625 c -0.472651,-0.282131 -0.97089,-0.523443 -1.494141,-0.71875 -0.135469,-0.05194 -0.271421,-0.103008 -0.410156,-0.148437 -0.07111,-0.02275 -0.142984,-0.04338 -0.214844,-0.06445 -0.224042,-0.0671 -0.45189,-0.124193 -0.683593,-0.173829 -0.04622,-0.0098 -0.09219,-0.02019 -0.138672,-0.0293 -0.261494,-0.05166 -0.526669,-0.0926 -0.796875,-0.121094 -0.02819,-0.003 -0.05571,-0.0089 -0.08398,-0.01172 -0.08677,-0.0083 -0.174119,-0.01367 -0.261718,-0.01953 -0.08502,-0.0065 -0.172041,-0.0057 -0.257813,-0.0098 -0.119896,-0.0047 -0.238061,-0.01563 -0.359375,-0.01563 H 51 13.050781 13 c -0.248613,0 -0.493764,0.01263 -0.736328,0.0332 -6.49e-4,5.5e-5 -0.0013,-5.5e-5 -0.002,0 -0.0158,0.0013 -0.03111,0.0044 -0.04687,0.0059 -0.147247,0.01224 -0.292356,0.02986 -0.4375,0.04883 -0.04576,0.0065 -0.0912,0.0143 -0.136719,0.02148 -0.04631,0.0068 -0.09259,0.01405 -0.138672,0.02148 -6.34e-4,1.02e-4 -0.0013,-1.03e-4 -0.002,0 -1.174701,0.189682 -2.270499,0.596963 -3.25,1.18164 v -2.0625 c 0,-1.768376 1.3820129,-3.15039 3.150391,-3.15039 z m 1.65039,4.40039 H 51 c 0.271192,0 0.538151,0.0174 0.802734,0.04102 0.08186,0.0074 0.162987,0.01582 0.244141,0.02539 0.189555,0.0222 0.377009,0.05007 0.5625,0.08398 0.08733,0.01607 0.175361,0.03217 0.261719,0.05078 0.2113,0.04529 0.419869,0.09815 0.625,0.158203 0.03037,0.0089 0.06157,0.01613 0.0918,0.02539 0.08351,0.02557 0.163696,0.05797 0.246093,0.08594 0.149636,0.05054 0.297585,0.103874 0.44336,0.16211 0.117367,0.04709 0.232922,0.0965 0.347656,0.148437 0.10409,0.04695 0.206776,0.09564 0.308594,0.146485 0.122697,0.06146 0.245959,0.122502 0.365234,0.189453 0.115197,0.06452 0.22606,0.135567 0.337891,0.205078 0.07465,0.04646 0.151494,0.09005 0.224609,0.138672 l 0.101563,0.06641 C 58.255933,24.351638 59.75,26.987601 59.75,30.003906 v 18 c 0,4.866646 -3.883354,8.75 -8.75,8.75 H 13 c -4.8666463,0 -8.75,-3.883354 -8.75,-8.75 v -18 h 0.048828 c 0,-4.560479 3.4116982,-8.257967 7.845703,-8.705078 0.0032,-3.1e-4 0.0065,3.07e-4 0.0098,0 0.294548,-0.02938 0.593635,-0.04492 0.896484,-0.04492 z"
     style="stroke:#000000;stroke-width:0;stroke-dasharray:none;stroke-opacity:1;filter:url(#filter21)"
     id="path21" /></g><path
   d="m 42.994141,35.673828 c -0.559832,1.455561 -0.225249,3.022162 -0.113282,3.246094 -0.08797,0.102634 -0.174211,0.218371 -0.259765,0.341797 a 7.0099325,5.7144256 0 0 0 -1.355469,3.353515 7.0099325,5.7144256 0 0 0 2.376953,4.283203 7.0099325,5.7144256 0 0 0 0.04297,0.03516 c 0.507892,0.408514 1.098164,0.762591 1.771484,1.054687 -0.223933,0.223933 -0.448581,1.343829 -0.560547,2.015625 -0.55983,0.223933 -2.127708,0.672994 -3.023437,-0.894531 0,0 -0.558711,-1.009128 -1.566406,-1.121094 0,0 -1.009011,7.9e-5 -0.113282,0.671875 0,0 0.673231,0.112122 1.121094,1.34375 0,0 0.671549,1.904219 3.470703,1.232422 v 1.007813 c 0,0.55983 0.447344,1.007174 1.119141,1.11914 h 3.695312 c 0.559832,0 1.007813,-0.447982 1.007813,-1.007812 v -2.462891 c 0,-0.809283 -0.09205,-1.433805 -0.357422,-1.794922 a 7.0099325,5.7144256 0 0 0 1.505859,-0.537109 c 0.104848,-0.04232 0.207532,-0.09001 0.310547,-0.138672 0.534185,-0.252326 1.041556,-0.587491 1.476563,-1.039063 a 7.0099325,5.7144256 0 0 0 1.742187,-3.767578 7.0099325,5.7144256 0 0 0 -1.564453,-3.597656 c -0.03002,-0.03355 -0.05977,-0.06758 -0.08984,-0.09766 0.111967,-0.335899 0.446551,-1.790533 -0.113281,-3.246094 H 53.40625 c -0.335899,0 -1.231939,0.558711 -2.6875,1.566406 -0.124738,-0.03118 -0.242583,-0.05519 -0.363281,-0.08203 a 7.0099325,5.7144256 0 0 0 -2.080078,-0.257812 7.0099325,5.7144256 0 0 0 -0.154297,0.0098 c -0.197009,0.0037 -0.415425,0.01616 -0.650391,0.03711 a 7.0099325,5.7144256 0 0 0 -0.287109,0.0293 c -0.486521,0.0554 -1.010473,0.140314 -1.503907,0.263672 -1.45556,-1.007695 -2.238321,-1.566406 -2.574218,-1.566406 z"
   style="opacity:0.3"
   id="path1" />
</svg>
