<?xml version="1.0" encoding="UTF-8" standalone="no"?>
<!-- Generator: Adobe Illustrator 25.2.1, SVG Export Plug-In . SVG Version: 6.00 Build 0)  -->

<svg
   version="1.1"
   id="Layer_1"
   x="0px"
   y="0px"
   viewBox="0 0 64 64"
   style="enable-background:new 0 0 64 64;"
   xml:space="preserve"
   sodipodi:docname="folder-blue-drag-accept.svg"
   inkscape:version="1.3.2 (091e20ef0f, 2023-11-25, custom)"
   xmlns:inkscape="http://www.inkscape.org/namespaces/inkscape"
   xmlns:sodipodi="http://sodipodi.sourceforge.net/DTD/sodipodi-0.dtd"
   xmlns="http://www.w3.org/2000/svg"
   xmlns:svg="http://www.w3.org/2000/svg"><defs
   id="defs8"><radialGradient
     id="SVGID_6_-3"
     cx="32"
     cy="39"
     r="40.048599"
     fx="14.0678"
     fy="24.8514"
     gradientUnits="userSpaceOnUse"
     gradientTransform="translate(2.7e-7,-0.67075038)">
	<stop
   offset="0"
   style="stop-color:#00F0F4"
   id="stop11-6" />
	<stop
   offset="1"
   style="stop-color:#1598FF"
   id="stop12-7" />
</radialGradient><radialGradient
     id="SVGID_4_"
     cx="25.2845"
     cy="26.629101"
     r="32.348301"
     fx="16.6394"
     fy="18.710199"
     gradientUnits="userSpaceOnUse">
	<stop
   offset="0"
   style="stop-color:#FFFFFF"
   id="stop7" />
	<stop
   offset="1"
   style="stop-color:#B7B7B7"
   id="stop8" />
</radialGradient><radialGradient
     id="SVGID_2_-3"
     cx="28.198799"
     cy="26.138901"
     r="40.0504"
     fx="5.5560002"
     fy="8.5401001"
     gradientUnits="userSpaceOnUse"
     gradientTransform="translate(-0.0500002,-0.8685465)">
	<stop
   offset="0"
   style="stop-color:#15C7FF"
   id="stop3-6" />
	<stop
   offset="1"
   style="stop-color:#005A9E"
   id="stop4-7" />
</radialGradient><radialGradient
     id="SVGID_6_-3-5"
     cx="32"
     cy="39"
     r="40.048599"
     fx="14.0678"
     fy="24.8514"
     gradientUnits="userSpaceOnUse"
     gradientTransform="translate(-0.24923564,-0.58045927)">
	<stop
   offset="0"
   style="stop-color:#00F0F4"
   id="stop11-6-3" />
	<stop
   offset="1"
   style="stop-color:#1598FF"
   id="stop12-7-5" />
</radialGradient><radialGradient
     id="SVGID_2_-3-6"
     cx="28.198799"
     cy="26.138901"
     r="40.0504"
     fx="5.5560002"
     fy="8.5401001"
     gradientUnits="userSpaceOnUse"
     gradientTransform="translate(-0.29923644,-0.77825537)">
	<stop
   offset="0"
   style="stop-color:#15C7FF"
   id="stop3-6-2" />
	<stop
   offset="1"
   style="stop-color:#005A9E"
   id="stop4-7-9" />
</radialGradient><filter
     inkscape:collect="always"
     style="color-interpolation-filters:sRGB"
     id="filter11"
     x="-0.066793765"
     y="-0.075479904"
     width="1.1335875"
     height="1.1509598"><feGaussianBlur
       inkscape:collect="always"
       stdDeviation="1.5724366"
       id="feGaussianBlur11" /></filter></defs><sodipodi:namedview
   id="namedview8"
   pagecolor="#505050"
   bordercolor="#eeeeee"
   borderopacity="1"
   inkscape:showpageshadow="0"
   inkscape:pageopacity="0"
   inkscape:pagecheckerboard="0"
   inkscape:deskcolor="#505050"
   inkscape:zoom="6.5546875"
   inkscape:cx="16.095352"
   inkscape:cy="12.891538"
   inkscape:window-width="1920"
   inkscape:window-height="1020"
   inkscape:window-x="0"
   inkscape:window-y="0"
   inkscape:window-maximized="1"
   inkscape:current-layer="Layer_1" />
<style
   type="text/css"
   id="style1">
	.st0{opacity:0.15;fill:url(#SVGID_1_);}
	.st1{fill:url(#SVGID_2_);}
	.st2{opacity:0.12;fill:url(#SVGID_3_);}
	.st3{fill:url(#SVGID_4_);}
</style>
<radialGradient
   id="SVGID_1_"
   cx="28.1988"
   cy="25.5519"
   r="40.0504"
   fx="5.556"
   fy="7.9531"
   gradientUnits="userSpaceOnUse">
	<stop
   offset="0"
   style="stop-color:#000000"
   id="stop1" />
	<stop
   offset="1"
   style="stop-color:#545454"
   id="stop2" />
</radialGradient>

<radialGradient
   id="SVGID_2_"
   cx="28.1988"
   cy="26.1389"
   r="40.0504"
   fx="5.556"
   fy="8.5401"
   gradientUnits="userSpaceOnUse">
	<stop
   offset="0"
   style="stop-color:#15C7FF"
   id="stop3" />
	<stop
   offset="1"
   style="stop-color:#005A9E"
   id="stop4" />
</radialGradient>


<path
   class="st1"
   d="m 11.65,48.731453 h 40.7 c 4.2,0 7.6,-3.399999 7.6,-7.6 v -20.7 c 0,-4.2 -3.4,-7.599999 -7.6,-7.599999 h -20.3 c -4.2,0 -5.6,-6.0000005 -9.8,-6.0000005 h -10.6 c -4.2000002,0 -7.6000002,3.4000005 -7.6000002,7.6000005 v 26.699999 c 0,4.200001 3.4,7.6 7.6000002,7.6 z"
   id="path4"
   style="fill:url(#SVGID_2_-3)" /><path
   d="m 13,27.429453 c -4.9999897,0 -8.9999997,4.00001 -8.9999997,9 V 47.32925 c 0,4.99999 4.00001,9 8.9999997,9 h 38 c 4.99999,0 9,-4.00001 9,-9 V 36.429453 c 0,-4.999989 -4.00001,-9 -9,-9 z"
   style="fill:url(#SVGID_6_-3)"
   id="path16"
   sodipodi:nodetypes="sssssssss" /><path
   d="m 11.650393,6.671875 c -4.3348863,0 -7.8496101,3.514727 -7.84961,7.849609 v 21.023438 c -0.033137,0.320463 -0.050781,0.64494 -0.050781,0.974609 v 10.900391 c 0,5.133304 4.116696,9.25 9.2500003,9.25 h 38 c 5.133304,0 9.25,-4.116696 9.25,-9.25 V 36.519531 c 0,-0.325582 -0.0165,-0.646279 -0.04883,-0.96289 V 20.521484 c 0,-4.334882 -3.514724,-7.849609 -7.84961,-7.849609 H 32.050783 c -1.980941,0 -3.316603,-1.419925 -4.716797,-2.9199219 C 25.933794,8.2519576 24.46904,6.671875 22.250002,6.671875 Z m 0,0.5 h 10.599609 c 1.980942,0 3.316603,1.4199262 4.716797,2.919922 1.400192,1.499994 2.864947,3.080078 5.083984,3.080078 h 20.300781 c 4.065075,0 7.34961,3.284536 7.34961,7.349609 v 12.867188 c -1.02183,-2.863291 -3.402868,-5.054059 -6.382813,-5.816406 -0.04359,-0.01157 -0.08698,-0.02423 -0.130859,-0.03516 -0.174243,-0.04186 -0.349316,-0.08136 -0.527344,-0.113281 -0.139851,-0.02594 -0.281485,-0.04505 -0.423828,-0.06445 -0.130586,-0.01727 -0.260277,-0.037 -0.392578,-0.04883 -0.277213,-0.02545 -0.55846,-0.04102 -0.84375,-0.04102 h -38 c -0.284461,0 -0.563418,0.01571 -0.839844,0.04102 -0.134999,0.01201 -0.267177,0.03311 -0.40039,0.05078 -0.14066,0.01925 -0.281698,0.03687 -0.419922,0.0625 -0.178028,0.03193 -0.353101,0.07142 -0.527344,0.113281 -0.04373,0.01089 -0.08741,0.02168 -0.130859,0.0332 -2.9781446,0.761721 -5.3578215,2.951901 -6.3808601,5.8125 V 14.521484 c 0,-4.065073 3.2845343,-7.349609 7.3496101,-7.349609 z m 1.349609,20.597656 h 38 c 0.296234,0 0.588659,0.01485 0.876953,0.04297 0.08319,0.0081 0.163635,0.02476 0.246094,0.03516 0.20087,0.0253 0.401447,0.05138 0.597656,0.08984 0.114314,0.02242 0.225282,0.05331 0.337891,0.08008 0.159947,0.038 0.320273,0.0765 0.476562,0.123047 0.115277,0.03436 0.226681,0.07635 0.339844,0.115234 0.1524,0.05234 0.304774,0.103734 0.453125,0.164063 0.110441,0.04494 0.218099,0.09528 0.326172,0.144531 0.136283,0.06208 0.271964,0.124618 0.404297,0.193359 0.121413,0.06309 0.239503,0.130687 0.357422,0.199219 0.118883,0.06907 0.236394,0.140409 0.351562,0.214844 0.110563,0.07149 0.219184,0.146374 0.326172,0.222656 0.109238,0.07787 0.216908,0.157517 0.322266,0.240235 0.11408,0.08958 0.224644,0.18227 0.333984,0.277343 0.09636,0.08377 0.190671,0.169927 0.283203,0.257813 0.100443,0.09543 0.199154,0.192848 0.294922,0.292969 0.08789,0.09186 0.174,0.185581 0.257812,0.28125 0.09349,0.106756 0.185193,0.214854 0.273438,0.326171 0.08928,0.112594 0.174099,0.228631 0.257812,0.345704 0.07148,0.09999 0.143644,0.199609 0.210938,0.302734 0.07444,0.114064 0.143729,0.231862 0.212891,0.349609 0.07348,0.125116 0.14751,0.249825 0.214843,0.378907 0.05955,0.114165 0.111415,0.232482 0.166016,0.349609 0.05795,0.124298 0.117704,0.247526 0.169922,0.375 0.05733,0.140011 0.106038,0.284093 0.15625,0.427734 0.04206,0.120245 0.08807,0.23868 0.125,0.361328 0.04732,0.157304 0.08439,0.31944 0.123047,0.480469 0.0264,0.109885 0.05977,0.216611 0.08203,0.328125 0.05467,0.27407 0.0962,0.552886 0.125,0.835938 0.03055,0.300256 0.04687,0.60514 0.04687,0.914062 v 10.900391 c 0,4.866636 -3.883364,8.75 -8.75,8.75 h -38 c -4.8666365,0 -8.7500003,-3.883364 -8.7500003,-8.75 V 36.519531 c 0,-0.313015 0.01747,-0.621672 0.048828,-0.925781 0.028498,-0.276372 0.069866,-0.548609 0.1230469,-0.816406 0.035704,-0.179665 0.084484,-0.35392 0.1308594,-0.529297 0.024691,-0.09342 0.044622,-0.189123 0.072266,-0.28125 0.040547,-0.135055 0.089968,-0.266302 0.1367187,-0.398438 0.047775,-0.135034 0.094357,-0.270538 0.1484375,-0.402343 0.051568,-0.125707 0.1108257,-0.246526 0.1679688,-0.369141 0.055584,-0.119237 0.1092068,-0.239303 0.1699219,-0.355469 0.063837,-0.12217 0.1337761,-0.240758 0.203125,-0.359375 0.073977,-0.126472 0.1484624,-0.252767 0.2285156,-0.375 0.067416,-0.102988 0.1393415,-0.202882 0.2109375,-0.302734 0.079566,-0.110894 0.159571,-0.221261 0.2441406,-0.328125 0.087868,-0.111107 0.1803447,-0.217644 0.2734375,-0.324219 0.09071,-0.103777 0.1818491,-0.207338 0.2773438,-0.306641 0.088746,-0.09233 0.1806988,-0.181206 0.2734375,-0.269531 0.097443,-0.09276 0.1971339,-0.183305 0.2988281,-0.271484 0.1041237,-0.09032 0.2099452,-0.178321 0.3183594,-0.263672 0.1173322,-0.09233 0.2372273,-0.181271 0.359375,-0.267578 0.088278,-0.0624 0.1768803,-0.124441 0.2675781,-0.183594 0.1363268,-0.08887 0.276409,-0.172594 0.4179688,-0.253906 0.1044357,-0.06001 0.2092508,-0.120016 0.3164062,-0.175781 0.1315248,-0.06841 0.2669117,-0.129582 0.4023438,-0.191407 0.1135674,-0.05187 0.2256118,-0.105238 0.3417968,-0.152343 0.136466,-0.0553 0.2761237,-0.10379 0.4160154,-0.152344 0.124547,-0.04325 0.247881,-0.08921 0.375,-0.126953 0.144012,-0.04274 0.292335,-0.07583 0.439453,-0.111328 0.123387,-0.02979 0.245648,-0.06333 0.371094,-0.08789 0.191757,-0.0375 0.387776,-0.06295 0.583985,-0.08789 0.08585,-0.01092 0.169213,-0.02866 0.255859,-0.03711 0.288294,-0.02812 0.580719,-0.04297 0.876953,-0.04297 z"
   id="path11"
   style="mix-blend-mode:normal;filter:url(#filter11)" /></svg>
