<?xml version="1.0" encoding="UTF-8" standalone="no"?>
<!-- Generator: Adobe Illustrator 25.2.1, SVG Export Plug-In . SVG Version: 6.00 Build 0)  -->

<svg
   version="1.1"
   id="Layer_1"
   x="0px"
   y="0px"
   viewBox="0 0 64 64"
   style="enable-background:new 0 0 64 64;"
   xml:space="preserve"
   sodipodi:docname="user-blue-home-open.svg"
   inkscape:version="1.3.2 (091e20ef0f, 2023-11-25, custom)"
   xmlns:inkscape="http://www.inkscape.org/namespaces/inkscape"
   xmlns:sodipodi="http://sodipodi.sourceforge.net/DTD/sodipodi-0.dtd"
   xmlns="http://www.w3.org/2000/svg"
   xmlns:svg="http://www.w3.org/2000/svg"><defs
   id="defs14"><inkscape:path-effect
     effect="fillet_chamfer"
     id="path-effect14"
     is_visible="true"
     lpeversion="1"
     nodesatellites_param="F,0,0,1,0,0,0,1 @ F,0,0,1,0,2.0022855,0,1 @ F,0,0,1,0,0,0,1 @ F,0,0,1,0,0,0,1 @ F,0,0,1,0,0,0,1 @ F,0,0,1,0,0,0,1 @ F,0,0,1,0,0,0,1 @ F,0,0,1,0,0,0,1 @ F,0,0,1,0,0,0,1 @ F,0,0,1,0,0,0,1 @ F,0,0,1,0,0,0,1 @ F,0,0,1,0,0,0,1 @ F,0,0,1,0,0,0,1 @ F,0,0,1,0,0,0,1 @ F,0,1,1,0,2.0022855,0,1 @ F,0,0,1,0,0,0,1 @ F,0,0,1,0,0,0,1 @ F,0,0,1,0,0,0,1"
     radius="0"
     unit="px"
     method="auto"
     mode="F"
     chamfer_steps="1"
     flexible="false"
     use_knot_distance="true"
     apply_no_radius="true"
     apply_with_radius="true"
     only_selected="false"
     hide_knots="false" /><radialGradient
     id="SVGID_2_-5"
     cx="28.198799"
     cy="26.138901"
     r="40.0504"
     fx="5.5560002"
     fy="8.5401001"
     gradientUnits="userSpaceOnUse">
	<stop
   offset="0"
   style="stop-color:#15C7FF"
   id="stop3-3" />
	<stop
   offset="1"
   style="stop-color:#005A9E"
   id="stop4-5" />
</radialGradient><radialGradient
     id="SVGID_4_-3"
     cx="25.2845"
     cy="26.629101"
     r="32.348301"
     fx="16.6394"
     fy="18.710199"
     gradientUnits="userSpaceOnUse">
	<stop
   offset="0"
   style="stop-color:#FFFFFF"
   id="stop7-6" />
	<stop
   offset="1"
   style="stop-color:#B7B7B7"
   id="stop8-7" />
</radialGradient><radialGradient
     id="SVGID_6_-3"
     cx="32"
     cy="39"
     r="40.048599"
     fx="14.0678"
     fy="24.8514"
     gradientUnits="userSpaceOnUse"
     gradientTransform="translate(4.209578e-7,0.19779612)">
	<stop
   offset="0"
   style="stop-color:#00F0F4"
   id="stop11-6" />
	<stop
   offset="1"
   style="stop-color:#1598FF"
   id="stop12-7" />
</radialGradient><filter
     inkscape:collect="always"
     style="color-interpolation-filters:sRGB"
     id="filter29"
     x="-0.06450094"
     y="-0.072922466"
     width="1.1290019"
     height="1.1458449"><feGaussianBlur
       inkscape:collect="always"
       stdDeviation="1.4922723"
       id="feGaussianBlur29" /></filter></defs><sodipodi:namedview
   id="namedview14"
   pagecolor="#505050"
   bordercolor="#eeeeee"
   borderopacity="1"
   inkscape:showpageshadow="0"
   inkscape:pageopacity="0"
   inkscape:pagecheckerboard="0"
   inkscape:deskcolor="#505050"
   inkscape:zoom="11.390625"
   inkscape:cx="37.618656"
   inkscape:cy="29.541838"
   inkscape:window-width="1920"
   inkscape:window-height="1020"
   inkscape:window-x="0"
   inkscape:window-y="0"
   inkscape:window-maximized="1"
   inkscape:current-layer="Layer_1" />
<style
   type="text/css"
   id="style1">
	.st0{opacity:0.15;fill:url(#SVGID_1_);enable-background:new    ;}
	.st1{fill:url(#SVGID_2_);}
	.st2{opacity:0.34;fill:url(#SVGID_3_);enable-background:new    ;}
	.st3{fill:url(#SVGID_4_);}
	.st4{opacity:0.12;fill:url(#SVGID_5_);enable-background:new    ;}
	.st5{fill:url(#SVGID_6_);}
	.st6{fill:url(#SVGID_7_);}
</style>
<radialGradient
   id="SVGID_1_"
   cx="28.1988"
   cy="1039.5519"
   r="40.0504"
   fx="5.556"
   fy="1021.9531"
   gradientTransform="matrix(1 0 0 1 0 -1014)"
   gradientUnits="userSpaceOnUse">
	<stop
   offset="0"
   style="stop-color:#000000"
   id="stop1" />
	<stop
   offset="1"
   style="stop-color:#545454"
   id="stop2" />
</radialGradient>

<radialGradient
   id="SVGID_2_"
   cx="28.1988"
   cy="1040.1389"
   r="40.0504"
   fx="5.556"
   fy="1022.5401"
   gradientTransform="matrix(1 0 0 1 0 -1014)"
   gradientUnits="userSpaceOnUse">
	<stop
   offset="0"
   style="stop-color:#15C7FF"
   id="stop3" />
	<stop
   offset="1"
   style="stop-color:#005A9E"
   id="stop4" />
</radialGradient>

<linearGradient
   id="SVGID_3_"
   gradientUnits="userSpaceOnUse"
   x1="8.1"
   y1="1041.85"
   x2="56.1"
   y2="1041.85"
   gradientTransform="matrix(1 0 0 1 0 -1014)">
	<stop
   offset="0"
   style="stop-color:#000000"
   id="stop5" />
	<stop
   offset="1"
   style="stop-color:#404040"
   id="stop6" />
</linearGradient>

<radialGradient
   id="SVGID_4_"
   cx="25.2845"
   cy="1040.6292"
   r="32.3483"
   fx="16.6394"
   fy="1032.7102"
   gradientTransform="matrix(1 0 0 1 0 -1014)"
   gradientUnits="userSpaceOnUse">
	<stop
   offset="0"
   style="stop-color:#FFFFFF"
   id="stop7" />
	<stop
   offset="1"
   style="stop-color:#B7B7B7"
   id="stop8" />
</radialGradient>


<linearGradient
   id="SVGID_7_"
   gradientUnits="userSpaceOnUse"
   x1="30.5568"
   y1="33.5923"
   x2="65.1047"
   y2="61.3809"
   gradientTransform="translate(-0.82186643,-1.7790852)">
	<stop
   offset="0"
   style="stop-color:#000000;stop-opacity:1;"
   id="stop13" />
	<stop
   offset="1"
   style="stop-color:#005A9E"
   id="stop14" />
</linearGradient>
<g
   id="g1"
   style="enable-background:new 0 0 64 64"><g
     id="g2"
     transform="translate(6.3894702e-7,-0.399414)"><path
       class="st1"
       d="M 11.7,49.6 H 52.4 C 56.6,49.6 60,46.2 60,42 V 21.3 c 0,-4.2 -3.4,-7.6 -7.6,-7.6 H 32.1 c -4.2,0 -5.6,-6 -9.8,-6 H 11.7 c -4.2,0 -7.6,3.4 -7.6,7.6 V 42 c 0,4.2 3.4,7.6 7.6,7.6 z"
       id="path4"
       style="fill:url(#SVGID_2_-5)" /><path
       class="st3"
       d="m 11.5,17.6 h 41.2 c 1.9,0 3.4,1.5 3.4,3.4 v 15.2 c 0,1.9 -1.5,3.4 -3.4,3.4 H 11.5 C 9.6,39.6 8.1,38.1 8.1,36.2 V 21 c 0,-1.9 1.5,-3.4 3.4,-3.4 z"
       id="path8"
       style="fill:url(#SVGID_4_-3)" /><path
       d="m 13,28.298 c -4.9999896,0 -8.9999996,4.00001 -8.9999996,9 v 10.899796 c 0,4.99999 4.00001,9 8.9999996,9 h 38 c 4.99999,0 9,-4.00001 9,-9 V 37.298 c 0,-4.99999 -4.00001,-9 -9,-9 z"
       style="fill:url(#SVGID_6_-3)"
       id="path16"
       sodipodi:nodetypes="sssssssss" /><path
       d="m 11.699219,7.5 c -4.2809738,0 -7.7500002,3.471027 -7.7500002,7.751953 v 20.666016 l 0.1640624,0.01172 C 4.0462078,36.379384 3.8496094,36.780645 3.8496094,37.25 v 10.898437 c 0,5.079977 4.0704157,9.150391 9.1503906,9.150391 h 38 c 5.079975,0 9.150391,-4.070414 9.150391,-9.150391 V 37.25 21.251953 c 0,-4.280926 -3.469029,-7.751953 -7.75,-7.751953 H 32.099609 c -2.028562,0 -3.389356,-1.451174 -4.789062,-2.951172 C 25.91084,9.0488311 24.472202,7.5 22.300781,7.5 Z m 0,0.3007812 h 10.601562 c 2.028564,0 3.389356,1.4511749 4.789063,2.9511718 1.399705,1.499998 2.838346,3.048828 5.009765,3.048828 h 20.300782 c 4.118993,0 7.449218,3.332133 7.449218,7.451172 v 13.675781 c -0.0795,-0.306867 -0.22845,-0.579892 -0.33789,-0.873047 -0.07963,-0.213747 -0.149399,-0.419314 -0.244141,-0.625 C 58.839261,32.498539 58.284282,31.65214 57.583984,30.923828 57.45463,30.789092 57.307323,30.687106 57.169922,30.560547 56.869849,30.284041 56.585485,29.990403 56.25,29.755859 v -8.804687 c 0,-0.494741 -0.0991,-0.963059 -0.277344,-1.388672 -0.178242,-0.425613 -0.435746,-0.808794 -0.755859,-1.128906 -0.640225,-0.640227 -1.528098,-1.033203 -2.517578,-1.033203 H 11.5 c -0.494741,0 -0.963059,0.0991 -1.388672,0.277343 -0.4256119,0.178243 -0.8087931,0.435746 -1.1289061,0.75586 -0.6402259,0.640225 -1.0332031,1.528098 -1.0332032,2.517578 v 8.683594 C 7.7373744,29.774943 7.6148152,30.011096 7.4160156,30.167969 6.8524174,30.611659 6.3682091,31.093226 5.9238281,31.65625 5.6006723,32.064094 5.3207405,32.464986 5.0703125,32.925781 4.7252049,33.558657 4.501567,34.223405 4.3125,34.9375 4.2970083,34.995674 4.2643778,35.044878 4.25,35.103516 V 15.251953 c 0,-4.119039 3.3302248,-7.4511717 7.449219,-7.4511718 z M 11.5,17.701172 h 41.199219 c 1.821021,0 3.25,1.428978 3.25,3.25 v 8.632812 C 55.688102,29.415862 55.386128,29.315269 55.107422,29.173828 54.810502,29.022954 54.537527,28.862525 54.222656,28.744141 53.213343,28.363191 52.148144,28.099609 51,28.099609 H 13 c -1.136688,0 -2.191021,0.26422 -3.1914062,0.638672 -0.3026703,0.112611 -0.571183,0.253852 -0.8574219,0.396485 C 8.7206695,29.249585 8.4688248,29.325975 8.25,29.458984 v -8.507812 c 0,-0.455257 0.089497,-0.885306 0.2519531,-1.275391 C 8.8268655,18.895614 9.444442,18.278038 10.224609,17.953125 10.614694,17.790669 11.044743,17.701172 11.5,17.701172 Z M 13,28.400391 h 38 c 1.111255,0 2.148629,0.257894 3.125,0.625 0.296315,0.112111 0.565856,0.268287 0.845703,0.410156 0.724649,0.367108 1.407273,0.797874 1.998047,1.341797 0.131545,0.121145 0.278423,0.22463 0.402344,0.353515 0.674533,0.702959 1.21621,1.525291 1.628906,2.423828 0.08794,0.191293 0.15409,0.393253 0.228516,0.591797 0.36232,0.970829 0.621093,1.999874 0.621093,3.103516 v 10.898437 c 0,4.919977 -3.929634,8.84961 -8.849609,8.84961 H 13 c -4.9199743,0 -8.8496094,-3.929633 -8.8496094,-8.84961 V 37.25 c 0,-0.796577 0.2537027,-1.508037 0.4472656,-2.240234 C 4.7795407,34.327292 5.0027396,33.667772 5.3320312,33.0625 5.5690842,32.627602 5.8482101,32.22776 6.1523437,31.841797 6.5789071,31.30284 7.0615702,30.820186 7.6015625,30.394531 8.0696669,30.026749 8.5414229,29.668468 9.0800781,29.400391 9.3529457,29.264282 9.6219128,29.125596 9.9101563,29.017578 10.877377,28.658347 11.9013,28.400391 13,28.400391 Z"
       style="stroke:#000000;stroke-width:0.0999998;stroke-dasharray:none;stroke-opacity:1;filter:url(#filter29)"
       id="path29" /></g></g><path
   class="st6"
   d="m 36.378133,43.620915 a 2.0011431,2.0011431 45.032719 0 1 2,2.002285 v 2.997715 c 0,1.7 1.3,3 3,3 1.7,0 3,-1.3 3,-3 v -1 c 0,-1.1 0.9,-2 2,-2 1.1,0 2,0.9 2,2 v 1 c 0,1.7 1.3,3 3,3 1.7,0 3,-1.3 3,-3 l 0,-2.997715 a 2.0011431,2.0011431 134.96728 0 1 2,-2.002285 l -8.6,-8.6 c -0.8,-0.8 -2,-0.8 -2.8,0 z"
   id="path14"
   style="fill:#000000;opacity:0.3;fill-opacity:1"
   inkscape:path-effect="#path-effect14"
   inkscape:original-d="m 36.378133,43.620915 h 2 v 5 c 0,1.7 1.3,3 3,3 v 0 c 1.7,0 3,-1.3 3,-3 v -1 c 0,-1.1 0.9,-2 2,-2 v 0 c 1.1,0 2,0.9 2,2 v 1 c 0,1.7 1.3,3 3,3 v 0 c 1.7,0 3,-1.3 3,-3 v -5 h 2 l -8.6,-8.6 c -0.8,-0.8 -2,-0.8 -2.8,0 z" />
</svg>
