<?xml version="1.0" encoding="UTF-8" standalone="no"?>
<!-- Generator: Adobe Illustrator 25.2.1, SVG Export Plug-In . SVG Version: 6.00 Build 0)  -->

<svg
   version="1.1"
   id="Layer_1"
   x="0px"
   y="0px"
   viewBox="0 0 64 64"
   style="enable-background:new 0 0 64 64;"
   xml:space="preserve"
   sodipodi:docname="trashcan_full.svg"
   inkscape:version="1.3.2 (091e20ef0f, 2023-11-25, custom)"
   xmlns:inkscape="http://www.inkscape.org/namespaces/inkscape"
   xmlns:sodipodi="http://sodipodi.sourceforge.net/DTD/sodipodi-0.dtd"
   xmlns:xlink="http://www.w3.org/1999/xlink"
   xmlns="http://www.w3.org/2000/svg"
   xmlns:svg="http://www.w3.org/2000/svg"><defs
   id="defs10"><linearGradient
   id="linearGradient34"
   inkscape:collect="always"><stop
     style="stop-color:#ffffff;stop-opacity:1;"
     offset="0"
     id="stop34" /><stop
     style="stop-color:#a6a6a6;stop-opacity:1;"
     offset="1"
     id="stop35" /></linearGradient>
	
	
		<radialGradient
   id="SVGID_1_"
   cx="18.9775"
   cy="1036.8816"
   r="38.583"
   gradientTransform="matrix(0.90140012,0,0,0.90140012,3.2364082,-910.11319)"
   gradientUnits="userSpaceOnUse">
		<stop
   offset="0"
   style="stop-color:#a7a7a7;stop-opacity:1;"
   id="stop1" />
		<stop
   offset="1"
   style="stop-color:#777777;stop-opacity:1;"
   id="stop2" />
	</radialGradient>
	
	
	
	
		<radialGradient
   id="SVGID_4_"
   cx="-15.6362"
   cy="32.7225"
   r="16.5058"
   fx="-20.0474"
   fy="28.6819"
   gradientTransform="matrix(-0.9057,0.4239,0.4239,0.9057,18.1452,-17.0021)"
   gradientUnits="userSpaceOnUse">
		<stop
   offset="0"
   style="stop-color:#FFFFFF"
   id="stop7" />
		<stop
   offset="1"
   style="stop-color:#B7B7B7"
   id="stop8" />
	</radialGradient>
	
	
	
		<radialGradient
   id="SVGID_5_"
   cx="11.4873"
   cy="1016.485"
   r="36.1253"
   gradientTransform="matrix(0.89676018,-0.09134202,0.09134202,0.89676018,-91.203627,-903.05715)"
   gradientUnits="userSpaceOnUse">
		<stop
   offset="0"
   style="stop-color:#898989;stop-opacity:1;"
   id="stop9" />
		<stop
   offset="1"
   style="stop-color:#797979;stop-opacity:1;"
   id="stop10" />
	</radialGradient>
	

		
			<linearGradient
   id="SVGID_2_"
   gradientUnits="userSpaceOnUse"
   x1="-9.5656996"
   y1="22.406401"
   x2="16.434299"
   y2="22.406401"
   gradientTransform="matrix(-0.7274,0.6862,0.6862,0.7274,10.5345,-8.7009)">
			<stop
   offset="0"
   style="stop-color:#000000"
   id="stop3" />
			<stop
   offset="1"
   style="stop-color:#404040"
   id="stop4" />
		</linearGradient>
		
		
			<radialGradient
   id="SVGID_3_"
   cx="-2.1222"
   cy="17.730499"
   r="19.099701"
   fx="-7.2266002"
   fy="13.0549"
   gradientTransform="matrix(-0.7274,0.6862,0.6862,0.7274,10.5345,-8.7009)"
   gradientUnits="userSpaceOnUse">
			<stop
   offset="0"
   style="stop-color:#FFFFFF"
   id="stop5" />
			<stop
   offset="1"
   style="stop-color:#B7B7B7"
   id="stop6" />
		</radialGradient>
		
	<radialGradient
   id="SVGID_2_-6"
   cx="11.483"
   cy="63.456902"
   r="36.125301"
   gradientTransform="matrix(1,0,0,-1,0,66)"
   gradientUnits="userSpaceOnUse">
		<stop
   offset="0"
   style="stop-color:#707070"
   id="stop3-2" />
		<stop
   offset="1"
   style="stop-color:#454545"
   id="stop4-9" />
	</radialGradient><radialGradient
   id="SVGID_1_-1"
   cx="19.542999"
   cy="43.0602"
   r="37.8494"
   gradientTransform="matrix(1,0,0,-1,0,66)"
   gradientUnits="userSpaceOnUse">
		<stop
   offset="0"
   style="stop-color:#707070"
   id="stop1-2" />
		<stop
   offset="1"
   style="stop-color:#454545"
   id="stop2-7" />
	</radialGradient><radialGradient
   id="SVGID_5_-6"
   cx="11.4873"
   cy="1016.485"
   r="36.125301"
   gradientTransform="matrix(0.89676018,-0.09134202,0.09134202,0.89676018,-91.166257,-903.01675)"
   gradientUnits="userSpaceOnUse">
		<stop
   offset="0"
   style="stop-color:#707070"
   id="stop9-0" />
		<stop
   offset="1"
   style="stop-color:#454545"
   id="stop10-6" />
	</radialGradient><radialGradient
   id="SVGID_1_-2"
   cx="18.977501"
   cy="1036.8816"
   r="38.583"
   gradientTransform="matrix(0.90140012,0,0,0.90140012,3.2737778,-910.07279)"
   gradientUnits="userSpaceOnUse">
		<stop
   offset="0"
   style="stop-color:#707070"
   id="stop3-0" />
		<stop
   offset="1"
   style="stop-color:#454545"
   id="stop4-2" />
	</radialGradient><radialGradient
   inkscape:collect="always"
   xlink:href="#linearGradient34"
   id="radialGradient35"
   cx="26.888422"
   cy="19.252048"
   fx="26.888422"
   fy="19.252048"
   r="14.040606"
   gradientTransform="matrix(-1.169635,-0.67528911,0.55585777,-0.96277389,41.815507,51.031832)"
   gradientUnits="userSpaceOnUse" /><radialGradient
   inkscape:collect="always"
   xlink:href="#linearGradient34"
   id="radialGradient37"
   cx="29.663723"
   cy="13.703022"
   fx="29.663723"
   fy="13.703022"
   r="12.12035"
   gradientTransform="matrix(2.4944171,0,0,1.5492536,-44.329976,-5.6646181)"
   gradientUnits="userSpaceOnUse" /><filter
   inkscape:collect="always"
   style="color-interpolation-filters:sRGB"
   id="filter37"
   x="-0.090665189"
   y="-0.082239477"
   width="1.1813304"
   height="1.164479"><feGaussianBlur
     inkscape:collect="always"
     stdDeviation="1.8578217"
     id="feGaussianBlur37" /></filter></defs><sodipodi:namedview
   id="namedview10"
   pagecolor="#ffffff"
   bordercolor="#000000"
   borderopacity="0.25"
   inkscape:showpageshadow="2"
   inkscape:pageopacity="0.0"
   inkscape:pagecheckerboard="0"
   inkscape:deskcolor="#d1d1d1"
   inkscape:zoom="6.859375"
   inkscape:cx="31.708428"
   inkscape:cy="14.651481"
   inkscape:window-width="1920"
   inkscape:window-height="1020"
   inkscape:window-x="0"
   inkscape:window-y="0"
   inkscape:window-maximized="1"
   inkscape:current-layer="Layer_1" />
<style
   type="text/css"
   id="style1">
	.st0{opacity:0.21;enable-background:new    ;}
	.st1{fill:url(#SVGID_1_);}
	.st2{opacity:0.3;fill:none;stroke:#000000;stroke-width:6;stroke-linecap:round;enable-background:new    ;}
	.st3{opacity:0.34;fill:url(#SVGID_2_);enable-background:new    ;}
	.st4{fill:url(#SVGID_3_);}
	.st5{fill:url(#SVGID_4_);}
	.st6{opacity:0.2;enable-background:new    ;}
	.st7{fill:url(#SVGID_5_);}
</style>
<path
   class="st1"
   d="m 22.526371,11.478292 h 20.461782 c 5.408401,0 9.825262,4.416861 9.825262,9.825262 l 0.18028,1.8028 c 0.9014,8.473161 0.81126,17.036462 -0.18028,25.509623 v 0 c -0.63098,5.408401 -5.588681,9.825262 -10.997082,9.825262 H 22.526371 c -5.408401,0 -10.456242,-4.416861 -11.177362,-9.825262 v 0 c -1.17182,-9.014001 -1.17182,-18.208282 0,-27.312423 v 0 c 0.72112,-5.408401 5.768961,-9.825262 11.177362,-9.825262 z"
   id="path2"
   style="fill:url(#SVGID_1_);stroke-width:0.9014" /><path
   style="enable-background:new 0 0 64 64;color:#000000;display:inline;opacity:0.3;fill:#000000;stroke-linecap:round;-inkscape-stroke:none"
   d="m 21.263672,24.097656 a 2.7042003,2.7042003 0 0 0 -2.703125,2.705078 v 21.632813 a 2.7042003,2.7042003 0 0 0 2.703125,2.705078 2.7042003,2.7042003 0 0 0 2.705078,-2.705078 V 26.802734 a 2.7042003,2.7042003 0 0 0 -2.705078,-2.705078 z m 10.818359,0 a 2.7042003,2.7042003 0 0 0 -2.705078,2.705078 v 21.632813 a 2.7042003,2.7042003 0 0 0 2.705078,2.705078 2.7042003,2.7042003 0 0 0 2.703125,-2.705078 V 26.802734 a 2.7042003,2.7042003 0 0 0 -2.703125,-2.705078 z m 10.816406,0 a 2.7042003,2.7042003 0 0 0 -2.705078,2.705078 v 21.632813 a 2.7042003,2.7042003 0 0 0 2.705078,2.705078 2.7042003,2.7042003 0 0 0 2.703125,-2.705078 V 26.802734 a 2.7042003,2.7042003 0 0 0 -2.703125,-2.705078 z"
   id="path3" /><path
   class="st4"
   d="M 36.948773,13.641653 24.329171,25.540134 c -1.26196,1.17182 -3.1549,1.08168 -4.326721,-0.09014 L 10.627889,15.354313 c -1.17182,-1.26196 -1.08168,-3.154901 0.09014,-4.326721 l 26.320884,-1.8028 c 1.17182,1.26196 1.08168,3.1549 -0.09014,4.416861 z"
   id="path6"
   style="fill:url(#radialGradient35);stroke-width:0.9014;fill-opacity:1" /><path
   class="st5"
   d="M 52.428257,14.73919 41.924978,25.336935 c -1.050327,1.059774 -2.675191,1.082452 -3.734966,0.03213 l -8.415829,-8.233474 c -1.059774,-1.050328 -1.082451,-2.675192 -0.03213,-3.734967 l 22.685261,-2.311822 c 1.02859,0.965754 1.051268,2.590618 9.01e-4,3.650392 z"
   id="path8"
   style="fill:url(#radialGradient37);stroke-width:0.9014" /><path
   class="st7"
   d="M 24.952167,6.0350049 35.713289,4.9389007 c 1.524492,-0.1552815 2.809025,0.8917621 2.964306,2.4162545 v 0 c 0.155282,1.5244923 -0.891762,2.8090248 -2.416254,2.9643068 l -10.761122,1.096104 c -1.524492,0.155281 -2.809025,-0.891762 -2.964307,-2.4162545 v 0 C 22.389765,7.5644952 23.427674,6.1902863 24.952167,6.0350049 Z M 11.683448,9.1986556 49.347376,5.3622907 C 52.306684,5.0608621 54.97456,7.2354911 55.275989,10.1948 v 0 c 0.301428,2.959308 -1.873201,5.627184 -4.832509,5.928613 L 12.779552,19.959778 C 9.8202437,20.261206 7.1523678,18.086577 6.8509391,15.127269 v 0 C 6.5495104,12.16796 8.7241395,9.5000842 11.683448,9.1986556 Z"
   id="path10"
   style="fill:url(#SVGID_5_);stroke-width:0.9014" /><path
   d="m 36.03125,4.6152344 c -0.100661,5.282e-4 -0.206259,0.00441 -0.316406,0.015625 L 24.955078,5.7285156 c -1.235345,0.1258298 -2.12292,1.0007455 -2.498047,2.0644531 L 11.685547,8.890625 c -3.1492997,0.3207803 -5.4653004,3.163315 -5.1445314,6.3125 0.2646608,2.598333 2.2457488,4.625275 4.6992184,5.076172 -0.08156,0.332507 -0.154753,0.669435 -0.201171,1.017578 v 0.002 c -1.1756192,9.133644 -1.1757327,18.35826 0,27.402344 v 0.002 c 0.746093,5.595711 5.926448,10.128906 11.52539,10.128906 h 19.289063 c 5.598942,0 10.692814,-4.538572 11.345703,-10.134765 0.994386,-8.497069 1.083739,-17.086403 0.179687,-25.585938 v -0.002 l -0.177734,-1.791016 -0.002,-0.0098 c -0.0069,-1.85523 -0.552144,-3.576024 -1.435547,-5.072266 2.487587,-0.839649 4.173039,-3.322015 3.896484,-6.037109 C 55.339438,7.0500587 52.498777,4.7339206 49.349609,5.0546875 l -10.74414,1.09375 C 38.075742,5.2351951 37.145768,4.6093876 36.03125,4.6152344 Z m 0.0039,0.6992187 c 0.955182,-0.00501 1.750066,0.5215412 2.123047,1.34375 L 38.261719,6.8867187 49.419922,5.75 c 2.7694,-0.2820847 5.262832,1.75011 5.544922,4.519531 0.247731,2.432117 -1.291091,4.651751 -3.544922,5.347657 l -0.242188,0.06055 c -0.02797,0.0071 -0.03952,0.01081 -0.03516,0.0098 l -0.09375,0.02344 -0.002,0.002 c -0.0071,0.0015 -0.01009,0.0022 -0.01758,0.0039 -0.03054,0.0068 -7.8e-5,2.43e-4 -0.0059,0.002 -0.0019,4.15e-4 -0.004,-4.14e-4 -0.0059,0 0,0 -0.002,0.002 -0.002,0.002 -0.186731,0.04136 -0.375555,0.07587 -0.570313,0.0957 l -19.492187,1.986328 h -0.002 v -0.002 l -0.16211,0.01758 -15.892578,1.619141 -0.873046,0.08789 -1.242188,0.126953 c -0.172548,0.01757 -0.344612,0.02551 -0.515625,0.02539 -0.01928,-9e-6 -0.06388,-0.0057 -0.136719,-0.0078 -0.145654,-0.0041 -0.284575,-0.0107 -0.416015,-0.02539 -0.0019,-2.15e-4 -0.0039,2.18e-4 -0.0059,0 C 9.394554,19.384016 7.4812736,17.537588 7.2363281,15.132813 6.9542445,12.363424 8.9865902,9.8680088 11.755859,9.5859375 l 11.173828,-1.1367187 0.05859,-0.2402344 c 0.229591,-0.9238201 0.994476,-1.6789557 2.03711,-1.7851563 L 35.785156,5.3261719 c 0.08042,-0.00819 0.164281,-0.011269 0.25,-0.011719 z m 14.179688,11.2304689 -0.103516,0.103515 0.04102,-0.0098 -7.744141,7.8125 0.06445,0.0059 -0.736328,0.673828 c -0.342651,0.345731 -0.749207,0.566492 -1.171875,0.660157 l -0.271484,0.02539 c -0.160156,0.01464 -0.319903,0.01141 -0.478516,-0.0078 h -0.002 -0.002 c -0.145549,-0.01626 -0.296964,-0.05454 -0.455078,-0.107422 l -0.0039,-0.002 c 0.0034,0.001 0.0035,-2.75e-4 -0.01758,-0.0078 h -0.002 -0.002 c -0.138457,-0.04813 -0.271438,-0.113494 -0.400391,-0.1875 -0.05012,-0.03109 -0.0999,-0.06419 -0.148437,-0.09961 -0.04982,-0.03418 -0.09679,-0.0743 -0.144531,-0.113281 -0.04834,-0.04115 -0.09638,-0.08312 -0.142578,-0.128907 v -0.002 L 31.623047,18.4375 Z m 0.945312,0.07031 c 0.820993,1.400547 1.341797,2.995512 1.341797,4.728516 v 0.01758 l 0.181641,1.820313 v 0.002 c 0.898508,8.445983 0.80901,16.983178 -0.179688,25.43164 -0.609055,5.220499 -5.432642,9.517578 -10.65039,9.517578 H 22.564453 c -5.217131,0 -10.133031,-4.301338 -10.830078,-9.521484 v -0.002 c -1.167553,-8.98248 -1.167667,-18.145576 0,-27.21875 v -0.002 c 0.04605,-0.344636 0.130829,-0.686305 0.216797,-1.027344 0.04877,0.0027 0.09746,0.0063 0.146484,0.0078 0.249006,0.0075 0.499718,0.0044 0.753907,-0.02148 l 1.767578,-0.179687 4.378906,4.714843 c -0.04378,0.05236 -0.09684,0.101157 -0.136719,0.154297 -0.03967,0.05287 -0.06893,0.09875 -0.0918,0.132813 -0.07382,0.109817 -0.138423,0.223616 -0.197265,0.341797 -0.02412,0.04846 -0.05274,0.103342 -0.08008,0.167968 -0.06923,0.163543 -0.133695,0.340827 -0.175781,0.535157 -0.04524,0.208858 -0.06843,0.425479 -0.06836,0.646484 v 21.632813 c -5.47e-4,1.683393 1.371294,3.055234 3.054687,3.054687 0.209727,-9e-5 0.415736,-0.01964 0.615235,-0.06055 0.398428,-0.08169 0.767427,-0.243577 1.091797,-0.46289 0.161959,-0.109508 0.314716,-0.232586 0.453125,-0.371094 0.552094,-0.552497 0.892851,-1.318991 0.892578,-2.160156 V 26.861328 c 4.5e-5,-0.178547 -0.01723,-0.351924 -0.04687,-0.519531 -0.01339,-0.07569 -0.03699,-0.147365 -0.05664,-0.220703 0.121804,-0.08688 0.240378,-0.1801 0.353516,-0.285157 l 6.90625,-6.507812 6.470703,6.332031 c 0.193584,0.191479 0.407201,0.338736 0.628906,0.462891 0.157449,0.09188 0.320705,0.168277 0.488281,0.228515 0.0052,0.0019 0.0104,0.004 0.01563,0.0059 0.0042,0.0016 2.37e-4,5.81e-4 0.0098,0.0039 l 0.002,0.002 h 0.002 c 0.0075,0.0025 0.01592,0.0034 0.02344,0.0059 0.07294,0.02468 0.146498,0.04764 0.220703,0.06641 0.03028,0.0079 0.06094,0.01451 0.0918,0.02148 0.07592,0.01661 0.151794,0.03051 0.228515,0.04102 0.01201,0.0016 0.02306,0.0045 0.03516,0.0059 0.0039,4.74e-4 0.0078,-3.41e-4 0.01172,0 0.0547,0.0066 0.109146,0.01212 0.164063,0.01563 -0.01335,0.111219 -0.02348,0.223638 -0.02344,0.341797 v 21.632813 c -1.37e-4,0.421043 0.0853,0.823871 0.240235,1.189453 0.154816,0.366178 0.378355,0.694761 0.654297,0.970703 0.13698,0.136983 0.289031,0.264159 0.453125,0.375 0.154673,0.10448 0.313938,0.185614 0.472656,0.255859 0.05361,0.02374 0.09685,0.03782 0.125,0.04883 0.128321,0.05018 0.259903,0.09199 0.398437,0.125 0.04269,0.0102 0.09551,0.0237 0.158203,0.03516 0.173393,0.03172 0.357312,0.05475 0.552735,0.05469 1.682542,-6.69e-4 3.053281,-1.372145 3.052734,-3.054687 V 26.861328 c 5.6e-5,-0.198786 -0.0179,-0.394011 -0.05469,-0.583984 -0.03636,-0.187717 -0.08909,-0.369119 -0.158203,-0.542969 l -0.002,-0.002 v -0.002 l -0.002,-0.0059 c -3e-4,-7e-4 -0.02017,-0.03823 -0.01953,-0.03711 6.05e-4,0.0011 0.01778,0.03936 0.01953,0.04297 -0.06807,-0.17044 -0.149567,-0.334265 -0.246093,-0.488282 l -0.0039,-0.0059 c -0.0031,-0.0048 -0.0068,-0.0094 -0.0059,-0.0078 l -0.002,-0.0039 c -0.09765,-0.15362 -0.207627,-0.294546 -0.328125,-0.425781 l -0.002,-0.002 c -0.0092,-0.0099 -0.0088,-0.01113 -0.0059,-0.0078 l -0.0039,-0.002 c -0.05164,-0.05472 -0.07824,-0.07295 -0.05664,-0.05078 -0.103135,-0.105781 -0.217121,-0.216291 -0.353515,-0.318359 -0.14315,-0.107228 -0.296391,-0.204618 -0.460938,-0.28711 -0.0054,-0.0028 -0.01109,-0.0056 -0.01563,-0.0078 h 0.0039 C 44.158032,24.057459 44.01576,24.010089 43.875,23.964844 l 3.775391,-3.808594 z m -20.445312,1.914063 0.304687,0.298828 -6.892578,6.498047 c -0.143525,0.133006 -0.296689,0.24651 -0.457031,0.34375 l -0.04492,0.02734 c -1.08025,0.629807 -2.439793,0.443014 -3.337891,-0.455079 l -0.322265,-0.345703 -1.738282,-1.873047 -2.732421,-2.943359 z m 1.404297,5.277344 c -0.200216,-6.9e-5 -0.39039,0.02204 -0.572266,0.05664 -0.09979,0.01899 -0.166646,0.0451 -0.203125,0.05469 -0.105359,0.0277 -0.224169,0.05776 -0.353516,0.109375 -0.08131,0.03243 -0.138694,0.06345 -0.177734,0.08203 -0.104281,0.04961 -0.213938,0.105856 -0.324219,0.175781 -0.06368,0.0404 -0.118543,0.07901 -0.167969,0.115235 -0.0966,0.07074 -0.186488,0.147794 -0.271484,0.226562 -0.05028,0.04658 -0.101628,0.09442 -0.152344,0.148438 -0.07764,0.0827 -0.148026,0.168811 -0.214843,0.257812 -0.03582,0.04769 -0.0823,0.105473 -0.128907,0.177734 -0.07557,0.117177 -0.134313,0.233644 -0.1875,0.345704 -0.01081,0.02276 -0.03917,0.0688 -0.07031,0.144531 -0.07014,0.170544 -0.13041,0.351595 -0.169922,0.544922 -0.0407,0.199119 -0.06061,0.404968 -0.06055,0.615234 v 21.632813 c -1.35e-4,0.421041 0.0853,0.82387 0.240234,1.189453 0.154816,0.366178 0.378359,0.694761 0.654297,0.970703 0.136985,0.136984 0.289036,0.262206 0.453125,0.373047 0.154681,0.104483 0.313946,0.187569 0.472657,0.257812 0.05361,0.02374 0.09685,0.03782 0.125,0.04883 0.128317,0.05018 0.2599,0.09199 0.398437,0.125 0.0427,0.01021 0.09553,0.0237 0.158203,0.03516 0.173393,0.03172 0.357311,0.05475 0.552735,0.05469 1.682542,-6.69e-4 3.05328,-1.372145 3.052734,-3.054687 V 26.861328 c 5.46e-4,-1.682542 -1.370193,-3.054018 -3.052734,-3.054687 z m 0,0.699218 c 1.304247,5.19e-4 2.353939,1.051219 2.353515,2.355469 v 21.632813 c 4.24e-4,1.304247 -1.049268,2.35495 -2.353515,2.355468 -0.140439,4.6e-5 -0.282426,-0.01639 -0.427735,-0.04297 -0.03145,-0.0057 -0.06947,-0.01547 -0.11914,-0.02734 -0.104697,-0.02495 -0.207701,-0.0582 -0.308594,-0.09766 -0.04523,-0.01769 -0.07559,-0.02907 -0.09375,-0.03711 -0.134117,-0.05936 -0.258947,-0.122198 -0.367188,-0.195312 -0.123765,-0.0836 -0.23986,-0.18322 -0.347656,-0.291016 -0.213616,-0.213616 -0.386982,-0.466872 -0.505859,-0.748047 -0.11922,-0.281308 -0.185652,-0.589981 -0.185547,-0.916015 V 26.861328 c -5.2e-5,-0.163276 0.01753,-0.321489 0.04883,-0.474609 0.02889,-0.141349 0.07388,-0.281389 0.130859,-0.419922 0.0051,-0.01243 0.02477,-0.04639 0.05469,-0.109375 0.04727,-0.0996 0.09404,-0.189294 0.144531,-0.267578 0.02351,-0.03646 0.05598,-0.07928 0.09766,-0.134766 0.05288,-0.07044 0.109386,-0.136822 0.167969,-0.199219 0.03586,-0.0382 0.07467,-0.0778 0.117188,-0.117187 0.06814,-0.06315 0.136785,-0.119003 0.208984,-0.171875 0.04826,-0.03537 0.09008,-0.06716 0.128906,-0.0918 0.07314,-0.04638 0.156802,-0.08847 0.25,-0.132813 0.06552,-0.03118 0.10795,-0.05571 0.134766,-0.06641 0.07311,-0.02917 0.167108,-0.05357 0.27539,-0.08203 0.0828,-0.02177 0.129789,-0.03868 0.152344,-0.04297 0.147912,-0.02814 0.29551,-0.04497 0.44336,-0.04492 z m 11.179687,0.04102 c 0.109372,0.01593 0.210084,0.03069 0.287109,0.05273 0.138465,0.03975 0.269856,0.09157 0.392579,0.152344 h 0.002 c 0.0017,8.14e-4 0.0041,0.002 0.0039,0.002 l 0.002,0.002 h 0.0039 c 0.124048,0.06219 0.242416,0.136023 0.355469,0.220703 v 0.002 c 0.08957,0.06703 0.178002,0.150213 0.271484,0.246093 0.05562,0.05708 0.07117,0.06938 0.04492,0.04102 l 0.002,0.002 h 0.002 l 0.002,0.002 c 0.09627,0.104674 0.18306,0.215993 0.257812,0.333985 v 0.002 l 0.002,0.002 v 0.002 c 0.07516,0.119303 0.142226,0.247934 0.195313,0.380859 v 0.002 c 8.94e-4,0.0019 0.0021,0.0062 0.0039,0.0098 0.05129,0.130712 0.09181,0.267074 0.119141,0.408203 0.02808,0.145001 0.04301,0.295875 0.04297,0.451172 v 21.632813 c 4.24e-4,1.304247 -1.049265,2.35495 -2.353515,2.355468 -0.140439,4.6e-5 -0.282424,-0.01639 -0.427735,-0.04297 -0.03144,-0.0057 -0.06946,-0.01547 -0.11914,-0.02734 -0.104697,-0.02495 -0.207699,-0.0582 -0.308594,-0.09766 -0.04523,-0.01769 -0.07559,-0.02907 -0.09375,-0.03711 -0.13411,-0.05935 -0.258942,-0.122195 -0.367187,-0.195312 -0.123764,-0.0836 -0.23986,-0.18322 -0.347657,-0.291016 -0.213612,-0.213616 -0.386982,-0.466872 -0.505859,-0.748047 -0.11922,-0.281308 -0.185653,-0.589983 -0.185547,-0.916015 V 26.861328 c -3.4e-5,-0.102457 0.0093,-0.205682 0.02344,-0.308594 0.0035,-0.0256 0.0115,-0.04904 0.01563,-0.07422 0.588625,-0.1068 1.153897,-0.391958 1.613281,-0.855469 z m -23.824219,0.849609 0.3125,0.335938 0.0039,0.0059 c 1.020596,1.020595 2.547073,1.295289 3.832031,0.738281 0.02154,0.126138 0.03323,0.254788 0.0332,0.384766 v 21.632813 c 2.12e-4,0.652227 -0.263227,1.237527 -0.689453,1.664062 -0.106175,0.106251 -0.221978,0.204086 -0.347656,0.289063 -0.250916,0.169648 -0.536176,0.290852 -0.841797,0.353515 -0.152529,0.03128 -0.310985,0.04876 -0.47461,0.04883 -1.304919,4.24e-4 -2.355892,-1.050549 -2.355468,-2.355468 V 26.861328 c -5.5e-5,-0.171654 0.01816,-0.338427 0.05273,-0.498047 0.02917,-0.134711 0.07747,-0.27018 0.136719,-0.410156 0.01572,-0.03715 0.03565,-0.07887 0.06055,-0.128906 0.04592,-0.09222 0.09784,-0.179681 0.154296,-0.263672 0.03013,-0.04488 0.05105,-0.0785 0.06836,-0.101563 0.01746,-0.02327 0.03691,-0.04013 0.05469,-0.0625 z"
   id="path34"
   style="filter:url(#filter37)" />
</svg>
