<?xml version="1.0" encoding="UTF-8" standalone="no"?>
<!-- Generator: Adobe Illustrator 25.2.1, SVG Export Plug-In . SVG Version: 6.00 Build 0)  -->

<svg
   version="1.1"
   id="Layer_1"
   x="0px"
   y="0px"
   viewBox="0 0 64 64"
   style="enable-background:new 0 0 64 64;"
   xml:space="preserve"
   sodipodi:docname="trashcan_empty.svg"
   inkscape:version="1.3.2 (091e20ef0f, 2023-11-25, custom)"
   xmlns:inkscape="http://www.inkscape.org/namespaces/inkscape"
   xmlns:sodipodi="http://sodipodi.sourceforge.net/DTD/sodipodi-0.dtd"
   xmlns:xlink="http://www.w3.org/1999/xlink"
   xmlns="http://www.w3.org/2000/svg"
   xmlns:svg="http://www.w3.org/2000/svg"><defs
   id="defs5">
	
	
		<radialGradient
   id="SVGID_1_"
   cx="19.542999"
   cy="43.0602"
   r="37.8494"
   gradientTransform="matrix(0.93237164,0,0,-0.93237164,2.1641075,64.120203)"
   gradientUnits="userSpaceOnUse"
   xlink:href="#SVGID_5_">
		<stop
   offset="0"
   style="stop-color:#707070"
   id="stop1" />
		<stop
   offset="1"
   style="stop-color:#454545"
   id="stop2" />
	</radialGradient>
	
	
	
		<radialGradient
   id="SVGID_2_"
   cx="11.483"
   cy="63.456902"
   r="36.125301"
   gradientTransform="matrix(0.93237164,0,0,-0.93237164,2.1641075,64.120203)"
   gradientUnits="userSpaceOnUse"
   xlink:href="#SVGID_5_">
		<stop
   offset="0"
   style="stop-color:#707070"
   id="stop3" />
		<stop
   offset="1"
   style="stop-color:#454545"
   id="stop4" />
	</radialGradient>
	
	
<radialGradient
   id="SVGID_2_-3"
   cx="11.483"
   cy="63.456902"
   r="36.125301"
   gradientTransform="matrix(1,0,0,-1,0,66.45)"
   gradientUnits="userSpaceOnUse">
		<stop
   offset="0"
   style="stop-color:#707070"
   id="stop3-6" />
		<stop
   offset="1"
   style="stop-color:#454545"
   id="stop4-7" />
	</radialGradient><radialGradient
   id="SVGID_1_-5"
   cx="19.542999"
   cy="43.0602"
   r="37.8494"
   gradientTransform="matrix(1,0,0,-1,0,66.45)"
   gradientUnits="userSpaceOnUse">
		<stop
   offset="0"
   style="stop-color:#707070"
   id="stop1-3" />
		<stop
   offset="1"
   style="stop-color:#454545"
   id="stop2-5" />
	</radialGradient><filter
   inkscape:collect="always"
   style="color-interpolation-filters:sRGB"
   id="filter13"
   x="-0.087222032"
   y="-0.081137985"
   width="1.1744441"
   height="1.162276"><feGaussianBlur
     inkscape:collect="always"
     stdDeviation="1.8534682"
     id="feGaussianBlur13" /></filter><radialGradient
   id="SVGID_5_"
   cx="11.4873"
   cy="1016.485"
   r="36.125301"
   gradientTransform="matrix(0.89676018,-0.09134202,0.09134202,0.89676018,-35.833715,-905.40519)"
   gradientUnits="userSpaceOnUse">
		<stop
   offset="0"
   style="stop-color:#898989;stop-opacity:1;"
   id="stop9" />
		<stop
   offset="1"
   style="stop-color:#797979;stop-opacity:1;"
   id="stop10" />
	</radialGradient><radialGradient
   id="SVGID_1_-53"
   cx="18.977501"
   cy="1036.8816"
   r="38.583"
   gradientTransform="matrix(0.90140012,0,0,0.90140012,3.2364082,-910.11319)"
   gradientUnits="userSpaceOnUse">
		<stop
   offset="0"
   style="stop-color:#a7a7a7;stop-opacity:1;"
   id="stop3-5" />
		<stop
   offset="1"
   style="stop-color:#777777;stop-opacity:1;"
   id="stop4-6" />
	</radialGradient><radialGradient
   inkscape:collect="always"
   xlink:href="#SVGID_5_"
   id="radialGradient6"
   cx="11.238145"
   cy="14.381598"
   fx="11.238145"
   fy="14.381598"
   r="25.174034"
   gradientTransform="matrix(1.3073677,0,0,0.59731844,-3.4542429,3.6131354)"
   gradientUnits="userSpaceOnUse" /><radialGradient
   inkscape:collect="always"
   xlink:href="#SVGID_1_-53"
   id="radialGradient7"
   cx="15.258068"
   cy="27.041451"
   fx="15.258068"
   fy="27.041451"
   r="21.491165"
   gradientTransform="matrix(2.2240298,0,0,2.5134913,-18.67633,-41.936415)"
   gradientUnits="userSpaceOnUse" /></defs><sodipodi:namedview
   id="namedview5"
   pagecolor="#ffffff"
   bordercolor="#000000"
   borderopacity="0.25"
   inkscape:showpageshadow="2"
   inkscape:pageopacity="0.0"
   inkscape:pagecheckerboard="0"
   inkscape:deskcolor="#d1d1d1"
   inkscape:zoom="9.7006212"
   inkscape:cx="34.894673"
   inkscape:cy="38.605775"
   inkscape:window-width="1920"
   inkscape:window-height="1020"
   inkscape:window-x="0"
   inkscape:window-y="0"
   inkscape:window-maximized="1"
   inkscape:current-layer="Layer_1" />
<style
   type="text/css"
   id="style1">
	.st0{opacity:0.2;enable-background:new    ;}
	.st1{fill:url(#SVGID_1_);}
	.st2{fill:url(#SVGID_2_);}
	.st3{opacity:0.3;fill:none;stroke:#000000;stroke-width:6;stroke-linecap:round;enable-background:new    ;}
</style>
<path
   class="st1"
   d="m 20.718303,10.508833 h 22.656631 c 5.59423,0 10.162851,4.568622 10.162851,10.162851 v 28.250861 c 0,5.59423 -4.568621,10.162851 -10.162851,10.162851 H 20.718303 c -5.59423,0 -10.162851,-4.568621 -10.162851,-10.162851 V 20.671684 c 0,-5.594229 4.568621,-10.162851 10.162851,-10.162851 z"
   id="path2"
   style="fill:url(#radialGradient7);stroke-width:0.932372" /><path
   class="st2"
   d="m 26.40577,4.9146035 h 11.18846 c 1.585031,0 2.797115,1.2120831 2.797115,2.7971149 v 0 c 0,1.5850318 -1.212084,2.7971146 -2.797115,2.7971146 H 26.40577 c -1.585032,0 -2.797115,-1.2120828 -2.797115,-2.7971146 v 0 c 0,-1.5850318 1.212083,-2.7971149 2.797115,-2.7971149 z M 12.420195,6.7793467 h 39.159609 c 3.076827,0 5.59423,2.5174035 5.59423,5.5942303 v 0 c 0,3.076826 -2.517403,5.59423 -5.59423,5.59423 H 12.420195 c -3.0768259,0 -5.5942293,-2.517404 -5.5942293,-5.59423 v 0 c 0,-3.0768268 2.5174034,-5.5942303 5.5942293,-5.5942303 z"
   id="path4"
   style="fill:url(#radialGradient6);stroke-width:0.932372" /><path
   class="st3"
   d="m 43.188459,26.359151 v 22.37692 M 32,26.359151 v 22.37692 M 20.81154,26.359151 v 22.37692"
   id="path5" /><path
   id="path7"
   style="color:#000000;fill:#000000;stroke-width:0.932372;-inkscape-stroke:none;filter:url(#filter13)"
   d="m 26.40577,4.5879092 c -1.284767,0 -2.308125,0.7779308 -2.789831,1.8647433 H 12.420195 c -3.2548149,0 -5.9201952,2.6653798 -5.9201952,5.9201965 0,2.615977 1.7224982,4.848533 4.0882312,5.625187 -0.227592,0.854186 -0.358745,1.747813 -0.358745,2.673284 v 28.25159 c 0,5.771889 4.71729,10.489181 10.489181,10.489181 h 22.655539 c 5.77189,0 10.489181,-4.717292 10.489181,-10.489181 V 20.67132 c 0,-0.936442 -0.133326,-1.841981 -0.366029,-2.706062 C 55.818112,17.162838 57.5,14.956598 57.5,12.372849 57.5,9.1180323 54.83462,6.4526525 51.579804,6.4526525 H 40.384061 C 39.902357,5.3658398 38.878997,4.5879092 37.59423,4.5879092 Z m 0,0.6519317 h 11.18846 c 1.123018,0 2.006774,0.6673518 2.334571,1.6425766 l 0.07466,0.2221667 h 11.576341 c 2.898819,0 5.268265,2.3694446 5.268265,5.2682648 0,2.333421 -1.536692,4.320189 -3.647541,5.007854 l -0.187567,0.05463 c -0.217016,0.06189 -0.439167,0.107195 -0.664678,0.142041 -0.02317,0.0034 -0.04594,0.0078 -0.0692,0.01093 -0.22928,0.03226 -0.462327,0.05281 -0.699279,0.05281 H 12.420195 c -0.22809,0 -0.452536,-0.01704 -0.673783,-0.04735 -0.01234,-0.0016 -0.02411,-0.0056 -0.03642,-0.0073 -0.21699,-0.03131 -0.431282,-0.07318 -0.641006,-0.129294 l -0.231272,-0.0619 C 8.7067576,16.71956 7.1519316,14.720648 7.1519316,12.372849 c 0,-2.8988202 2.369445,-5.2682648 5.2682634,-5.2682648 h 11.576342 l 0.07466,-0.2221667 C 24.398993,5.9071925 25.28275,5.2398409 26.405768,5.2398409 Z M 52.838141,18.154646 c 0.218247,0.808015 0.373314,1.64286 0.373314,2.516674 v 28.25159 c 0,5.416523 -4.420726,9.837249 -9.837249,9.837249 H 20.718667 c -5.416525,0 -9.837249,-4.420726 -9.837249,-9.837249 V 20.67132 c 0,-0.865984 0.152931,-1.694698 0.36785,-2.496643 0.378856,0.07688 0.770344,0.118367 1.170927,0.118367 h 39.159609 c 0.431725,0 0.852199,-0.04945 1.258337,-0.138398 z M 20.81154,23.235342 c -1.721162,0 -3.12308,1.401919 -3.12308,3.123081 v 22.37692 c 0,1.721161 1.401918,3.12308 3.12308,3.12308 1.721162,0 3.123081,-1.401919 3.123081,-3.12308 v -22.37692 c 0,-1.721162 -1.401919,-3.123081 -3.123081,-3.123081 z m 11.18846,0 c -1.721162,0 -3.123081,1.401919 -3.123081,3.123081 v 22.37692 c 0,1.721161 1.401919,3.12308 3.123081,3.12308 1.721162,0 3.12308,-1.401919 3.12308,-3.12308 v -22.37692 c 0,-1.721162 -1.401918,-3.123081 -3.12308,-3.123081 z m 11.188459,0 c -1.721161,0 -3.12308,1.401919 -3.12308,3.123081 v 22.37692 c 0,1.721161 1.401919,3.12308 3.12308,3.12308 1.721162,0 3.123081,-1.401919 3.123081,-3.12308 v -22.37692 c 0,-1.721162 -1.401919,-3.123081 -3.123081,-3.123081 z M 20.81154,23.887274 c 1.36844,0 2.47115,1.102709 2.47115,2.471149 v 22.37692 c 0,1.368439 -1.10271,2.471148 -2.47115,2.471148 -1.36844,0 -2.471149,-1.102709 -2.471149,-2.471148 v -22.37692 c 0,-1.36844 1.102709,-2.471149 2.471149,-2.471149 z m 11.18846,0 c 1.36844,0 2.471149,1.102709 2.471149,2.471149 v 22.37692 c 0,1.368439 -1.102709,2.471148 -2.471149,2.471148 -1.36844,0 -2.47115,-1.102709 -2.47115,-2.471148 v -22.37692 c 0,-1.36844 1.10271,-2.471149 2.47115,-2.471149 z m 11.188459,0 c 1.36844,0 2.47115,1.102709 2.47115,2.471149 v 22.37692 c 0,1.368439 -1.10271,2.471148 -2.47115,2.471148 -1.36844,0 -2.471149,-1.102709 -2.471149,-2.471148 v -22.37692 c 0,-1.36844 1.102709,-2.471149 2.471149,-2.471149 z" />
</svg>
