<?xml version="1.0" encoding="UTF-8" standalone="no"?>
<svg
   width="48"
   height="48"
   version="1"
   id="svg26"
   sodipodi:docname="input-keyboard-virtual-off.svg"
   inkscape:version="1.3.2 (091e20ef0f, 2023-11-25, custom)"
   xmlns:inkscape="http://www.inkscape.org/namespaces/inkscape"
   xmlns:sodipodi="http://sodipodi.sourceforge.net/DTD/sodipodi-0.dtd"
   xmlns:xlink="http://www.w3.org/1999/xlink"
   xmlns="http://www.w3.org/2000/svg"
   xmlns:svg="http://www.w3.org/2000/svg">
  <defs
     id="defs26">
    <linearGradient
       id="linearGradient26"
       inkscape:collect="always">
      <stop
         style="stop-color:#db7b30;stop-opacity:1;"
         offset="0"
         id="stop26" />
      <stop
         style="stop-color:#db3c30;stop-opacity:1;"
         offset="1"
         id="stop27" />
    </linearGradient>
    <filter
       inkscape:collect="always"
       style="color-interpolation-filters:sRGB"
       id="filter26"
       x="-0.039524102"
       y="-0.074672402"
       width="1.0790482"
       height="1.1493448">
      <feGaussianBlur
         inkscape:collect="always"
         stdDeviation="0.32936752"
         id="feGaussianBlur26" />
    </filter>
    <radialGradient
       inkscape:collect="always"
       xlink:href="#linearGradient26"
       id="radialGradient27"
       cx="28.813742"
       cy="42.769485"
       fx="28.813742"
       fy="42.769485"
       r="10"
       gradientUnits="userSpaceOnUse"
       gradientTransform="matrix(1.7189095,-0.99241288,0.99241288,1.7189095,-63.159462,-2.1522624)" />
    <filter
       inkscape:collect="always"
       style="color-interpolation-filters:sRGB"
       id="filter15"
       x="-0.027934462"
       y="-0.046557437"
       width="1.0558689"
       height="1.0931149">
      <feGaussianBlur
         inkscape:collect="always"
         stdDeviation="0.52377117"
         id="feGaussianBlur15" />
    </filter>
    <radialGradient
       inkscape:collect="always"
       xlink:href="#linearGradient15"
       id="radialGradient16"
       cx="5.4012794"
       cy="55.951233"
       fx="5.4012804"
       fy="55.951233"
       r="27.5"
       gradientTransform="matrix(2.8575095,-1.6497839,1.1698468,2.026234,-75.487296,-55.621201)"
       gradientUnits="userSpaceOnUse" />
    <linearGradient
       id="linearGradient15"
       inkscape:collect="always">
      <stop
         style="stop-color:#5d5d5d;stop-opacity:1;"
         offset="0"
         id="stop15" />
      <stop
         style="stop-color:#383838;stop-opacity:1;"
         offset="1"
         id="stop16" />
    </linearGradient>
    <radialGradient
       inkscape:collect="always"
       xlink:href="#linearGradient3"
       id="radialGradient2"
       cx="5.401279"
       cy="55.951233"
       fx="5.401279"
       fy="55.951233"
       r="27.5"
       gradientTransform="matrix(2.8531689,-1.6472779,1.1680698,2.0231561,-75.364426,-55.462527)"
       gradientUnits="userSpaceOnUse" />
    <linearGradient
       id="linearGradient3"
       inkscape:collect="always">
      <stop
         style="stop-color:#939393;stop-opacity:1;"
         offset="0"
         id="stop2" />
      <stop
         style="stop-color:#656565;stop-opacity:1;"
         offset="1"
         id="stop3" />
    </linearGradient>
    <filter
       inkscape:collect="always"
       style="color-interpolation-filters:sRGB"
       id="filter14"
       x="-0.02341482"
       y="-0.0330209"
       width="1.0468296"
       height="1.0660418">
      <feGaussianBlur
         inkscape:collect="always"
         stdDeviation="0.53658965"
         id="feGaussianBlur14" />
    </filter>
  </defs>
  <sodipodi:namedview
     id="namedview26"
     pagecolor="#ffffff"
     bordercolor="#000000"
     borderopacity="0.25"
     inkscape:showpageshadow="2"
     inkscape:pageopacity="0.0"
     inkscape:pagecheckerboard="0"
     inkscape:deskcolor="#d1d1d1"
     inkscape:zoom="13.096207"
     inkscape:cx="16.378789"
     inkscape:cy="25.007241"
     inkscape:window-width="1920"
     inkscape:window-height="1018"
     inkscape:window-x="0"
     inkscape:window-y="0"
     inkscape:window-maximized="1"
     inkscape:current-layer="svg26" />
  <g
     id="g1"
     transform="matrix(0.74774132,0,0,0.74774132,0.44615015,-0.13827864)">
    <rect
       style="opacity:1;mix-blend-mode:normal;filter:url(#filter14)"
       width="55"
       height="39"
       x="4"
       y="13"
       rx="8.7653074"
       ry="8.7653074"
       id="rect1"
       transform="matrix(1.04692,0,0,1.04692,-1.4779806,-1.5249007)" />
    <rect
       style="fill:url(#radialGradient16);stroke:url(#radialGradient2);stroke-width:3.4;stroke-dasharray:none"
       width="55"
       height="39"
       x="4"
       y="12"
       rx="7.8119979"
       ry="7.8119979"
       id="rect2" />
    <path
       style="opacity:0.185844;filter:url(#filter15)"
       d="M 10.25,19 C 9.5575,19 9,19.5575 9,20.25 v 2.5 C 9,23.4425 9.5575,24 10.25,24 h 2.5 C 13.4425,24 14,23.4425 14,22.75 v -2.5 C 14,19.5575 13.4425,19 12.75,19 Z m 8,0 C 17.5575,19 17,19.5575 17,20.25 v 2.5 c 0,0.6925 0.5575,1.25 1.25,1.25 h 2.5 C 21.4425,24 22,23.4425 22,22.75 v -2.5 C 22,19.5575 21.4425,19 20.75,19 Z m 8,0 C 25.5575,19 25,19.5575 25,20.25 v 2.5 c 0,0.6925 0.5575,1.25 1.25,1.25 h 2.5 C 29.4425,24 30,23.4425 30,22.75 v -2.5 C 30,19.5575 29.4425,19 28.75,19 Z m 8,0 C 33.5575,19 33,19.5575 33,20.25 v 2.5 c 0,0.6925 0.5575,1.25 1.25,1.25 h 2.5 C 37.4425,24 38,23.4425 38,22.75 v -2.5 C 38,19.5575 37.4425,19 36.75,19 Z m 8,0 C 41.5575,19 41,19.5575 41,20.25 v 2.5 c 0,0.6925 0.5575,1.25 1.25,1.25 h 2.5 C 45.4425,24 46,23.4425 46,22.75 v -2.5 C 46,19.5575 45.4425,19 44.75,19 Z m 8,0 C 49.5575,19 49,19.5575 49,20.25 v 2.5 c 0,0.6925 0.5575,1.25 1.25,1.25 h 2.5 C 53.4425,24 54,23.4425 54,22.75 v -2.5 C 54,19.5575 53.4425,19 52.75,19 Z m -36,11 C 13.5575,30 13,30.5575 13,31.25 v 2.5 c 0,0.6925 0.5575,1.25 1.25,1.25 h 2.5 C 17.4425,35 18,34.4425 18,33.75 v -2.5 C 18,30.5575 17.4425,30 16.75,30 Z m 8,0 C 21.5575,30 21,30.5575 21,31.25 v 2.5 c 0,0.6925 0.5575,1.25 1.25,1.25 h 2.5 C 25.4425,35 26,34.4425 26,33.75 v -2.5 C 26,30.5575 25.4425,30 24.75,30 Z m 8,0 C 29.5575,30 29,30.5575 29,31.25 v 2.5 c 0,0.6925 0.5575,1.25 1.25,1.25 h 2.5 C 33.4425,35 34,34.4425 34,33.75 v -2.5 C 34,30.5575 33.4425,30 32.75,30 Z m 8,0 C 37.5575,30 37,30.5575 37,31.25 v 2.5 c 0,0.6925 0.5575,1.25 1.25,1.25 h 2.5 C 41.4425,35 42,34.4425 42,33.75 v -2.5 C 42,30.5575 41.4425,30 40.75,30 Z m 8,0 C 45.5575,30 45,30.5575 45,31.25 v 2.5 c 0,0.6925 0.5575,1.25 1.25,1.25 h 2.5 C 49.4425,35 50,34.4425 50,33.75 v -2.5 C 50,30.5575 49.4425,30 48.75,30 Z M 14.232422,41 C 13.549155,41 13,41.5575 13,42.25 v 2.5 C 13,45.4425 13.549155,46 14.232422,46 H 48.767578 C 49.450845,46 50,45.4425 50,44.75 v -2.5 C 50,41.5575 49.450845,41 48.767578,41 Z"
       id="path2" />
    <rect
       style="opacity:0.386239;fill:#000000;fill-opacity:1"
       width="5"
       height="5"
       x="9"
       y="18"
       rx="1.25"
       ry="1.25"
       id="rect3" />
    <rect
       style="opacity:0.386239;fill:#000000;fill-opacity:1"
       width="5"
       height="5"
       x="17"
       y="18"
       rx="1.25"
       ry="1.25"
       id="rect4" />
    <rect
       style="opacity:0.386239;fill:#000000;fill-opacity:1"
       width="5"
       height="5"
       x="25"
       y="18"
       rx="1.25"
       ry="1.25"
       id="rect5" />
    <rect
       style="opacity:0.386239;fill:#000000;fill-opacity:1"
       width="5"
       height="5"
       x="33"
       y="18"
       rx="1.25"
       ry="1.25"
       id="rect6" />
    <rect
       style="opacity:0.386239;fill:#000000;fill-opacity:1"
       width="5"
       height="5"
       x="41"
       y="18"
       rx="1.25"
       ry="1.25"
       id="rect7" />
    <rect
       style="opacity:0.386239;fill:#000000;fill-opacity:1"
       width="5"
       height="5"
       x="49"
       y="18"
       rx="1.25"
       ry="1.25"
       id="rect8" />
    <rect
       style="opacity:0.386239;fill:#000000;fill-opacity:1"
       width="5"
       height="5"
       x="13"
       y="29"
       rx="1.25"
       ry="1.25"
       id="rect9" />
    <rect
       style="opacity:0.386239;fill:#000000;fill-opacity:1"
       width="37"
       height="5"
       x="13"
       y="40"
       rx="1.233"
       ry="1.25"
       id="rect10" />
    <rect
       style="opacity:0.386239;fill:#000000;fill-opacity:1"
       width="5"
       height="5"
       x="21"
       y="29"
       rx="1.25"
       ry="1.25"
       id="rect11" />
    <rect
       style="opacity:0.386239;fill:#000000;fill-opacity:1"
       width="5"
       height="5"
       x="29"
       y="29"
       rx="1.25"
       ry="1.25"
       id="rect12" />
    <rect
       style="opacity:0.386239;fill:#000000;fill-opacity:1"
       width="5"
       height="5"
       x="37"
       y="29"
       rx="1.25"
       ry="1.25"
       id="rect13" />
    <rect
       style="opacity:0.386239;fill:#000000;fill-opacity:1"
       width="5"
       height="5"
       x="45"
       y="29"
       rx="1.25"
       ry="1.25"
       id="rect14" />
  </g>
  <path
     style="opacity:0.33751848;filter:url(#filter26)"
     d="m 47.007931,35.836618 a 10,10 0 0 1 -9.979,9.586 10,10 0 0 1 -9.979,-9.414 10,10 0 0 0 -0.021,0.414 10,10 0 0 0 10,10 10,10 0 0 0 10,-10 10,10 0 0 0 -0.021,-0.586 z"
     id="path25" />
  <circle
     style="fill:url(#radialGradient27)"
     cx="37"
     cy="36"
     r="10"
     id="circle24" />
  <rect
     style="fill:#ffffff"
     width="12"
     height="2"
     x="-5.48"
     y="50.799999"
     transform="rotate(-45)"
     id="rect25"
     ry="1" />
  <rect
     style="fill:#ffffff"
     width="12"
     height="2"
     x="-57.799999"
     y="-0.47999999"
     transform="rotate(-135)"
     id="rect26"
     ry="1" />
</svg>
