<?xml version="1.0" encoding="UTF-8" standalone="no"?>
<svg
   width="16"
   height="16"
   version="1.1"
   id="svg1"
   sodipodi:docname="folder-saved-search-symbolic.svg"
   inkscape:version="1.4 (e7c3feb100, 2024-10-09)"
   xmlns:inkscape="http://www.inkscape.org/namespaces/inkscape"
   xmlns:sodipodi="http://sodipodi.sourceforge.net/DTD/sodipodi-0.dtd"
   xmlns:xlink="http://www.w3.org/1999/xlink"
   xmlns="http://www.w3.org/2000/svg"
   xmlns:svg="http://www.w3.org/2000/svg">
  <defs
     id="defs1">
    <radialGradient
       id="SVGID_1_-3-2-7"
       cx="-159.43106"
       cy="15.462561"
       r="64.706802"
       gradientTransform="matrix(-0.89413329,0,0,0.96304834,-80.753654,49.330428)"
       gradientUnits="userSpaceOnUse"
       fx="-159.43106"
       fy="15.462561">
      <stop
         offset="0"
         style="stop-color:#006fff;stop-opacity:1;"
         id="stop1-6-9-5" />
      <stop
         offset="1"
         style="stop-color:#15baff;stop-opacity:1;"
         id="stop2-7-1-3" />
    </radialGradient>
    <inkscape:path-effect
       effect="fillet_chamfer"
       id="path-effect2"
       is_visible="true"
       lpeversion="1"
       nodesatellites_param="F,0,1,1,0,0.83645674,0,1 @ F,0,0,1,0,1.0129681,0,1 @ F,0,0,1,0,1.0129681,0,1 @ F,0,0,1,0,1.0129681,0,1 @ F,0,0,1,0,1.0129681,0,1 @ F,0,1,1,0,0.83645674,0,1 | F,0,1,1,0,0.83645674,0,1 @ F,0,0,1,0,0.83645674,0,1 @ F,0,0,1,0,1.0129681,0,1 @ F,0,0,1,0,1.0129681,0,1 @ F,0,0,1,0,1.0129681,0,1 @ F,0,0,1,0,1.0129681,0,1"
       radius="0"
       unit="px"
       method="auto"
       mode="F"
       chamfer_steps="1"
       flexible="false"
       use_knot_distance="true"
       apply_no_radius="true"
       apply_with_radius="true"
       only_selected="false"
       hide_knots="false" />
    <radialGradient
       inkscape:collect="always"
       xlink:href="#SVGID_1_-3-2-7"
       id="radialGradient3"
       cx="17.968931"
       cy="17.944378"
       fx="17.968931"
       fy="17.944378"
       r="7"
       gradientUnits="userSpaceOnUse"
       gradientTransform="matrix(0,-2.4378632,2.4378632,0,-25.777007,61.750174)" />
  </defs>
  <sodipodi:namedview
     id="namedview1"
     pagecolor="#ffffff"
     bordercolor="#000000"
     borderopacity="0.25"
     inkscape:showpageshadow="2"
     inkscape:pageopacity="0.0"
     inkscape:pagecheckerboard="0"
     inkscape:deskcolor="#d1d1d1"
     inkscape:zoom="40.726532"
     inkscape:cx="6.1753355"
     inkscape:cy="7.4521444"
     inkscape:current-layer="svg1" />
  <path
     style="fill:url(#radialGradient3)"
     d="M 6.5 1 A 5.5 5.5 0 0 0 1 6.5 A 5.5 5.5 0 0 0 6.5 12 A 5.5 5.5 0 0 0 9.6172 11.031 L 13.279 14.693 A 1 1 0 0 0 14 15 A 1 1 0 0 0 15 14 A 1 1 0 0 0 14.697 13.283 L 11.027 9.6133 A 5.5 5.5 0 0 0 12 6.5 A 5.5 5.5 0 0 0 6.5 1 z M 6.5 3 A 3.5 3.5 0 0 1 10 6.5 A 3.5 3.5 0 0 1 6.5 10 A 3.5 3.5 0 0 1 3 6.5 A 3.5 3.5 0 0 1 6.5 3 z"
     id="path1" />
  <g
     id="g1"
     transform="translate(11.708369,-0.78096171)" />
</svg>
