<?xml version="1.0" encoding="UTF-8" standalone="no"?>
<svg
   width="16"
   height="16"
   version="1.1"
   viewBox="0 0 16 16"
   id="svg1"
   sodipodi:docname="folder-apple.svg"
   inkscape:version="1.4 (e7c3feb100, 2024-10-09)"
   xmlns:inkscape="http://www.inkscape.org/namespaces/inkscape"
   xmlns:sodipodi="http://sodipodi.sourceforge.net/DTD/sodipodi-0.dtd"
   xmlns:xlink="http://www.w3.org/1999/xlink"
   xmlns="http://www.w3.org/2000/svg"
   xmlns:svg="http://www.w3.org/2000/svg">
  <sodipodi:namedview
     id="namedview1"
     pagecolor="#ffffff"
     bordercolor="#000000"
     borderopacity="0.25"
     inkscape:showpageshadow="2"
     inkscape:pageopacity="0.0"
     inkscape:pagecheckerboard="0"
     inkscape:deskcolor="#d1d1d1"
     inkscape:zoom="42.434027"
     inkscape:cx="1.9677605"
     inkscape:cy="10.757876"
     inkscape:current-layer="svg1" />
  <defs
     id="defs1">
    <style
       id="current-color-scheme"
       type="text/css">
   .ColorScheme-Text { color:#dfdfdf; } .ColorScheme-Highlight { color:#4285f4; } .ColorScheme-NeutralText { color:#ff9800; } .ColorScheme-PositiveText { color:#4caf50; } .ColorScheme-NegativeText { color:#f44336; }
  </style>
    <radialGradient
       id="SVGID_1_-3-2-7"
       cx="-159.43106"
       cy="15.462561"
       r="64.706802"
       gradientTransform="matrix(-0.89413329,0,0,0.96304834,-80.753654,49.330428)"
       gradientUnits="userSpaceOnUse"
       fx="-159.43106"
       fy="15.462561">
      <stop
         offset="0"
         style="stop-color:#006fff;stop-opacity:1;"
         id="stop1-6-9-5" />
      <stop
         offset="1"
         style="stop-color:#15baff;stop-opacity:1;"
         id="stop2-7-1-3" />
    </radialGradient>
    <inkscape:path-effect
       effect="fillet_chamfer"
       id="path-effect3"
       is_visible="true"
       lpeversion="1"
       nodesatellites_param="F,0,0,1,0,0,0,1 @ F,0,0,1,0,0,0,1 @ F,0,0,1,0,0,0,1 @ F,0,0,1,0,0,0,1 @ F,0,0,1,0,0,0,1 @ F,0,0,1,0,0,0,1 @ F,0,0,1,0,1.1428941,0,1 @ F,0,1,1,0,1.1428941,0,1"
       radius="0"
       unit="px"
       method="auto"
       mode="F"
       chamfer_steps="1"
       flexible="false"
       use_knot_distance="true"
       apply_no_radius="true"
       apply_with_radius="true"
       only_selected="false"
       hide_knots="false" />
    <radialGradient
       inkscape:collect="always"
       xlink:href="#SVGID_1_-3-2-7"
       id="radialGradient2"
       cx="-1.4764163"
       cy="24.500284"
       fx="-1.4764163"
       fy="24.500284"
       r="6.5141373"
       gradientTransform="matrix(0,-2.7892229,2.9274525,0,-52.520822,16.631148)"
       gradientUnits="userSpaceOnUse" />
  </defs>
  <path
     style="fill:url(#radialGradient2)"
     class="ColorScheme-Text"
     d="M 11.881,8.5 C 11.861,6.5 13.534,5.5 13.608,5.5 12.668,4.1 11.204,3.9 10.683,3.9 9.4366,3.7 8.2514,4.6 7.6191,4.6 6.9884,4.6 6.0126,3.9 4.9792,3.9 3.6211,3.9 2.3689,4.7 1.6696,5.9 0.2586,8.4 1.3083,12 2.6835,14 3.3555,14.9 4.1568,16 5.2089,16 6.2221,16 6.6052,15.3 7.8301,15.3 9.055,15.3 9.3993,16 10.472,16 11.562,16 12.253,15 12.92,14 13.691,12.9 14.009,11.8 14.028,11.7 14.004,11.7 11.902,10.9 11.881,8.5 Z M 9.8664,2.6 C 10.425,1.9 10.802,0.9 10.699,0 9.8946,0 8.9196,0.5 8.3425,1.2 7.8247,1.8 7.3714,2.8 7.4929,3.7 8.3908,3.8 9.3074,3.2 9.8664,2.6 Z"
     id="path1" />
  <g
     id="g1"
     transform="translate(14.067046,0.47065797)">
    <g
       id="g3"
       transform="translate(12.478931,0.34669171)">
      <g
         id="g2"
         transform="matrix(1.2122757,0,0,1.2122757,-1.6982056,-1.6982056)" />
    </g>
  </g>
</svg>
