<?xml version="1.0" encoding="UTF-8" standalone="no"?>
<svg
   width="16"
   height="16"
   version="1.1"
   id="svg1"
   sodipodi:docname="system-software-install-symbolic.svg"
   inkscape:version="1.3.2 (091e20ef0f, 2023-11-25, custom)"
   xmlns:inkscape="http://www.inkscape.org/namespaces/inkscape"
   xmlns:sodipodi="http://sodipodi.sourceforge.net/DTD/sodipodi-0.dtd"
   xmlns="http://www.w3.org/2000/svg"
   xmlns:svg="http://www.w3.org/2000/svg">
  <defs
     id="defs1" />
  <sodipodi:namedview
     id="namedview1"
     pagecolor="#505050"
     bordercolor="#eeeeee"
     borderopacity="1"
     inkscape:showpageshadow="0"
     inkscape:pageopacity="0"
     inkscape:pagecheckerboard="0"
     inkscape:deskcolor="#505050"
     inkscape:zoom="53.9375"
     inkscape:cx="7.99073"
     inkscape:cy="8"
     inkscape:window-width="1920"
     inkscape:window-height="1024"
     inkscape:window-x="0"
     inkscape:window-y="0"
     inkscape:window-maximized="1"
     inkscape:current-layer="svg1" />
  <path
     id="path4-5"
     style="fill:#ffffff;fill-opacity:1;stroke-width:0.259688"
     class="st2"
     d="m 9.3244097,6.8703566 v 1.6879731 c 0,0.1298441 0.1038753,0.2337194 0.2337194,0.2337194 h 0.7790649 c 0.155812,0 0.233719,0.1558129 0.155812,0.285657 L 8.1298441,11.778463 c -0.077906,0.103875 -0.2077505,0.103875 -0.285657,0 L 5.4810248,9.0777061 c -0.077907,-0.1298441 0,-0.285657 0.1558129,-0.285657 h 0.7790645 c 0.1298441,0 0.2337194,-0.1038753 0.2337194,-0.2337194 V 6.8703566 c 0,-0.4414699 0.3635634,-0.8050333 0.8050333,-0.8050333 H 8.571314 c 0.4155011,0 0.7530957,0.3635634 0.7530957,0.8050333 z M 5.2473054,11.960244 h 5.4534516 c 0.259688,0 0.44147,0.207751 0.44147,0.44147 v 0 c 0,0.259688 -0.207751,0.44147 -0.44147,0.44147 H 5.2473054 c -0.2596881,0 -0.4414699,-0.20775 -0.4414699,-0.44147 v 0 c 0,-0.233719 0.1817818,-0.44147 0.4414699,-0.44147 z M 4.8707578,3.2996443 v 0 c 0,0.4414699 -0.3375946,0.8050333 -0.7790645,0.8050333 H 2.6893772 c -1.0906904,0 -1.9736302,0.8829398 -1.9736302,1.9736301 V 12.38873 c 0,1.168597 0.9608462,2.129443 2.1294431,2.129443 H 13.15481 c 1.168597,0 2.129443,-0.960846 2.129443,-2.129443 V 6.0523389 c 0,-1.0906903 -0.882939,-1.9736301 -1.97363,-1.9736301 h -1.428285 c -0.441469,0 -0.779064,-0.3375946 -0.779064,-0.7790645 v 0 c 0,-1.012784 -0.805033,-1.8178173 -1.7918484,-1.8178173 H 6.6626062 C 5.6757912,1.5077958 4.8707578,2.3128291 4.8707578,3.2996443 Z M 6.688575,2.5465486 h 2.5968817 c 0.4414703,0 0.7790643,0.3375946 0.7790643,0.7790645 v 0 c 0,0.4414699 -0.337594,0.7790645 -0.7790643,0.7790645 H 6.688575 c -0.4414699,0 -0.7790645,-0.3375946 -0.7790645,-0.7790645 v 0 c 0,-0.4414699 0.3375946,-0.7790645 0.7790645,-0.7790645 z" />
</svg>
