<?xml version="1.0" encoding="UTF-8" standalone="no"?>
<!-- Generator: Adobe Illustrator 25.2.1, SVG Export Plug-In . SVG Version: 6.00 Build 0)  -->

<svg
   version="1.1"
   id="Layer_1"
   x="0px"
   y="0px"
   viewBox="0 0 64 64"
   style="enable-background:new 0 0 64 64;"
   xml:space="preserve"
   sodipodi:docname="folder-blue-github.svg"
   inkscape:version="1.4 (e7c3feb100, 2024-10-09)"
   xmlns:inkscape="http://www.inkscape.org/namespaces/inkscape"
   xmlns:sodipodi="http://sodipodi.sourceforge.net/DTD/sodipodi-0.dtd"
   xmlns:xlink="http://www.w3.org/1999/xlink"
   xmlns="http://www.w3.org/2000/svg"
   xmlns:svg="http://www.w3.org/2000/svg"><defs
   id="defs14"><inkscape:path-effect
     effect="fillet_chamfer"
     id="path-effect1"
     is_visible="true"
     lpeversion="1"
     nodesatellites_param="F,0,0,1,0,0,0,1 @ F,0,0,1,0,0,0,1 @ F,0,0,1,0,0,0,1 @ F,0,0,1,0,0,0,1 @ F,0,0,1,0,0,0,1 @ F,0,0,1,0,0,0,1 @ F,0,0,1,0,0,0,1 @ F,0,0,1,0,0,0,1 @ F,0,0,1,0,0,0,1 @ F,0,0,1,0,0,0,1 @ F,0,0,1,0,0,0,1 @ F,0,0,1,0,0,0,1 @ F,0,0,1,0,0,0,1 @ F,0,0,1,0,0,0,1 @ F,0,0,1,0,0,0,1 @ F,0,0,1,0,0,0,1 @ F,0,0,1,0,0,0,1 @ F,0,0,1,0,0,0,1 @ F,0,0,1,0,0,0,1 @ F,0,0,1,0,0,0,1 @ F,0,0,1,0,0,0,1 @ F,0,0,1,0,0,0,1 @ F,0,0,1,0,0,0,1 @ F,0,0,1,0,0,0,1 @ F,0,0,1,0,0,0,1"
     radius="0"
     unit="px"
     method="auto"
     mode="F"
     chamfer_steps="1"
     flexible="false"
     use_knot_distance="true"
     apply_no_radius="true"
     apply_with_radius="true"
     only_selected="false"
     hide_knots="false" /><radialGradient
     id="SVGID_6_-3"
     cx="32"
     cy="39"
     r="40.048599"
     fx="14.0678"
     fy="24.8514"
     gradientUnits="userSpaceOnUse">
	<stop
   offset="0"
   style="stop-color:#00F0F4"
   id="stop11-7" />
	<stop
   offset="1"
   style="stop-color:#1598FF"
   id="stop12-5" />
</radialGradient><radialGradient
     id="SVGID_4_-9"
     cx="25.213699"
     cy="25.563499"
     r="32.348301"
     fx="16.568701"
     fy="17.644699"
     gradientUnits="userSpaceOnUse">
	<stop
   offset="0"
   style="stop-color:#FFFFFF"
   id="stop7-2" />
	<stop
   offset="1"
   style="stop-color:#B7B7B7"
   id="stop8-2" />
</radialGradient><radialGradient
     id="SVGID_2_-8"
     cx="28.128099"
     cy="25.073299"
     r="40.0504"
     fx="5.4853001"
     fy="7.4745002"
     gradientUnits="userSpaceOnUse">
	<stop
   offset="0"
   style="stop-color:#15C7FF"
   id="stop3-9" />
	<stop
   offset="1"
   style="stop-color:#005A9E"
   id="stop4-7" />
</radialGradient><filter
     inkscape:collect="always"
     style="color-interpolation-filters:sRGB"
     id="filter5"
     x="-0.091865969"
     y="-0.10508204"
     width="1.1837319"
     height="1.2101641"><feGaussianBlur
       inkscape:collect="always"
       stdDeviation="2.0448052"
       id="feGaussianBlur5" /></filter><radialGradient
     inkscape:collect="always"
     xlink:href="#SVGID_1_-3-2-7"
     id="radialGradient14-6"
     cx="51.925644"
     cy="78.491135"
     fx="51.925644"
     fy="78.491135"
     r="27.708172"
     gradientTransform="matrix(0,-2.1910082,2.2418851,0,-92.280969,184.46437)"
     gradientUnits="userSpaceOnUse" /><radialGradient
     id="SVGID_1_-3-2-7"
     cx="-159.43106"
     cy="15.462561"
     r="64.706802"
     gradientTransform="matrix(-0.89413329,0,0,0.96304834,-80.753654,49.330428)"
     gradientUnits="userSpaceOnUse"
     fx="-159.43106"
     fy="15.462561">
	<stop
   offset="0"
   style="stop-color:#006fff;stop-opacity:1;"
   id="stop1-6-9-5" />
	<stop
   offset="1"
   style="stop-color:#15baff;stop-opacity:1;"
   id="stop2-7-1-3" />
</radialGradient><inkscape:path-effect
     effect="fillet_chamfer"
     id="path-effect2-5"
     is_visible="true"
     lpeversion="1"
     nodesatellites_param="F,0,0,1,0,1.7191201,0,1 @ F,0,0,1,0,13.761382,0,1 @ F,0,0,1,0,13.761382,0,1 @ F,0,0,1,0,14.755441,0,1"
     radius="0"
     unit="px"
     method="auto"
     mode="F"
     chamfer_steps="1"
     flexible="false"
     use_knot_distance="true"
     apply_no_radius="true"
     apply_with_radius="true"
     only_selected="false"
     hide_knots="false" /><radialGradient
     inkscape:collect="always"
     xlink:href="#radialGradient16-9"
     id="radialGradient15-2"
     cx="10.757424"
     cy="61.399044"
     fx="10.757424"
     fy="61.399044"
     r="24.565832"
     gradientTransform="matrix(0,-2.330989,2.5178893,0,-79.137526,79.401559)"
     gradientUnits="userSpaceOnUse" /><radialGradient
     id="radialGradient16-9"
     cx="-159.43106"
     cy="15.462561"
     r="64.706802"
     gradientTransform="matrix(-0.89413329,0,0,0.96304834,-80.753654,49.330428)"
     gradientUnits="userSpaceOnUse"
     fx="-159.43106"
     fy="15.462561">
	<stop
   offset="0"
   style="stop-color:#3d6aa4;stop-opacity:1;"
   id="stop15-1" />
	<stop
   offset="1"
   style="stop-color:#0097d2;stop-opacity:1;"
   id="stop16-2" />
</radialGradient><inkscape:path-effect
     effect="fillet_chamfer"
     id="path-effect20-7"
     is_visible="true"
     lpeversion="1"
     nodesatellites_param="F,0,0,1,0,1.4582365,0,1 @ F,0,0,1,0,4.7943319,0,1 @ F,0,0,1,0,0,0,1 @ F,0,0,1,0,0,0,1 @ F,0,0,1,0,0,0,1 @ F,0,0,1,0,0,0,1 @ F,0,0,1,0,0,0,1 @ F,0,0,1,0,0,0,1 @ F,0,0,1,0,2.051402,0,1"
     radius="0"
     unit="px"
     method="auto"
     mode="F"
     chamfer_steps="1"
     flexible="false"
     use_knot_distance="true"
     apply_no_radius="true"
     apply_with_radius="true"
     only_selected="false"
     hide_knots="false" /></defs><sodipodi:namedview
   id="namedview14"
   pagecolor="#ffffff"
   bordercolor="#000000"
   borderopacity="0.25"
   inkscape:showpageshadow="2"
   inkscape:pageopacity="0.0"
   inkscape:pagecheckerboard="0"
   inkscape:deskcolor="#d1d1d1"
   inkscape:zoom="9.8221551"
   inkscape:cx="41.844177"
   inkscape:cy="40.775166"
   inkscape:window-width="1920"
   inkscape:window-height="1020"
   inkscape:window-x="0"
   inkscape:window-y="0"
   inkscape:window-maximized="1"
   inkscape:current-layer="Layer_1" />
<style
   type="text/css"
   id="style1">
	.st0{opacity:0.15;fill:url(#SVGID_1_);}
	.st1{fill:url(#SVGID_2_);}
	.st2{opacity:0.34;fill:url(#SVGID_3_);}
	.st3{fill:url(#SVGID_4_);}
	.st4{opacity:0.12;fill:url(#SVGID_5_);}
	.st5{fill:url(#SVGID_6_);}
	.st6{fill:url(#SVGID_7_);}
</style>
<radialGradient
   id="SVGID_1_"
   cx="28.1281"
   cy="24.4864"
   r="40.0504"
   fx="5.4853"
   fy="6.8876"
   gradientUnits="userSpaceOnUse">
	<stop
   offset="0"
   style="stop-color:#000000"
   id="stop1" />
	<stop
   offset="1"
   style="stop-color:#545454"
   id="stop2" />
</radialGradient>

<radialGradient
   id="SVGID_2_"
   cx="28.1281"
   cy="25.0733"
   r="40.0504"
   fx="5.4853"
   fy="7.4745"
   gradientUnits="userSpaceOnUse">
	<stop
   offset="0"
   style="stop-color:#15C7FF"
   id="stop3" />
	<stop
   offset="1"
   style="stop-color:#005A9E"
   id="stop4" />
</radialGradient>

<linearGradient
   id="SVGID_3_"
   gradientUnits="userSpaceOnUse"
   x1="8"
   y1="26.7181"
   x2="56"
   y2="26.7181">
	<stop
   offset="0"
   style="stop-color:#000000"
   id="stop5" />
	<stop
   offset="1"
   style="stop-color:#404040"
   id="stop6" />
</linearGradient>

<radialGradient
   id="SVGID_4_"
   cx="25.2137"
   cy="25.5635"
   r="32.3483"
   fx="16.5687"
   fy="17.6447"
   gradientUnits="userSpaceOnUse">
	<stop
   offset="0"
   style="stop-color:#FFFFFF"
   id="stop7" />
	<stop
   offset="1"
   style="stop-color:#B7B7B7"
   id="stop8" />
</radialGradient>

<radialGradient
   id="SVGID_5_"
   cx="32"
   cy="38.1714"
   r="40.0486"
   fx="14.0678"
   fy="24.0229"
   gradientUnits="userSpaceOnUse">
	<stop
   offset="0"
   style="stop-color:#000000"
   id="stop9" />
	<stop
   offset="1"
   style="stop-color:#545454"
   id="stop10" />
</radialGradient>

<radialGradient
   id="SVGID_6_"
   cx="32"
   cy="39"
   r="40.0486"
   fx="14.0678"
   fy="24.8514"
   gradientUnits="userSpaceOnUse">
	<stop
   offset="0"
   style="stop-color:#00F0F4"
   id="stop11" />
	<stop
   offset="1"
   style="stop-color:#1598FF"
   id="stop12" />
</radialGradient>

<linearGradient
   id="SVGID_7_"
   gradientUnits="userSpaceOnUse"
   x1="40.3785"
   y1="38.2137"
   x2="58.7791"
   y2="52.4101">
	<stop
   offset="0"
   style="stop-color:#15C7FF"
   id="stop13" />
	<stop
   offset="1"
   style="stop-color:#005A9E"
   id="stop14" />
</linearGradient>
<g
   id="g1"><path
     class="st1"
     d="M 22.196242,11.795294 H 12.203491 A 4.7943319,4.7943319 135 0 0 7.409159,16.589626 V 40.29912 c 0,3.691468 2.98833,6.76769 6.679798,6.76769 h 35.772071 c 3.691466,0 6.679797,-2.98833 6.679797,-6.679797 v -18.28155 c 0,-3.691467 -2.988331,-6.679798 -6.679797,-6.679798 H 30.037826 a 5.6416074,5.6416074 19.982285 0 1 -3.623682,-1.317644 l -1.642012,-1.376082 a 4.0103294,4.0103294 19.982285 0 0 -2.57589,-0.936645 z"
     id="path4-0"
     style="fill:url(#radialGradient15-2);stroke-width:0.878921"
     sodipodi:nodetypes="ccsssssscc"
     inkscape:path-effect="#path-effect20-7"
     inkscape:original-d="M 23.654479,11.795294 H 7.409159 V 40.29912 c 0,3.691468 2.98833,6.76769 6.679798,6.76769 h 35.772071 c 3.691466,0 6.679797,-2.98833 6.679797,-6.679797 v -18.28155 c 0,-3.691467 -2.988331,-6.679798 -6.679797,-6.679798 H 27.986424 Z"
     transform="matrix(1.0965063,0,0,1.0965063,-3.060779,-4.5220224)" /><path
     id="rect1-9"
     style="opacity:0.870323;fill:#ffffff;stroke-width:0.2"
     d="m 11.603718,20.662382 28.646459,0 A 13.761382,13.761382 45 0 1 54.011559,34.423764 13.636557,13.636557 135.5269 0 1 40.250177,47.934343 H 24.640039 A 14.755441,14.755441 45 0 1 9.8845978,33.178902 v -10.7974 a 1.7191201,1.7191201 135 0 1 1.7191202,-1.71912 z"
     inkscape:path-effect="#path-effect2-5"
     inkscape:original-d="M 9.8845978,20.662382 H 54.011559 V 47.934343 H 9.8845978 Z"
     transform="matrix(1.0965063,0,0,1.0965063,-2.416994,-5.7391264)" /><path
     id="rect13-36"
     style="fill:url(#radialGradient14-6);fill-opacity:1;stroke:none;stroke-width:0.681659;stroke-linecap:round;stroke-linejoin:round"
     d="m 12.869929,20.661523 h 10.852407 a 7.0733661,7.0733661 0 0 0 5.326416,-2.419142 7.0447591,7.0447591 0 0 1 5.309311,-2.399567 h 16.77201 a 7.8520921,7.8520921 0 0 1 7.85209,7.852092 v 24.041409 a 7.8520921,7.8520921 0 0 1 -7.85209,7.852093 H 12.869929 A 7.8520921,7.8520921 0 0 1 5.017836,47.736315 V 28.513616 a 7.8520921,7.8520921 0 0 1 7.852093,-7.852093 z"
     sodipodi:nodetypes="ccccccc" /><g
     id="g5"
     transform="translate(61.121094,3.7353514)"
     style="filter:url(#filter5)"><path
       d="m -50.800781,4.6757812 c -2.90323,6.383e-4 -5.2563,2.3545832 -5.25586,5.2578126 V 24.035156 c 0.224089,-2.374268 1.494712,-4.443315 3.357422,-5.726562 v -3.242188 c 1.44e-4,-1.040868 0.843898,-1.884622 1.884766,-1.884765 H -30.5 c 1.111326,-0.692982 2.401403,-1.077108 3.738281,-1.074219 h 16.7714846 c 4.0563348,2.73e-4 7.3924736,3.076738 7.8066406,7.023437 v -3.15039 c 0,-4.047717 -3.276503,-7.324219 -7.3242187,-7.324219 H -31.244141 c -1.453526,1.441e-4 -2.860685,-0.5115502 -3.974609,-1.4453125 L -37.017578,5.703125 C -37.809635,5.0391986 -38.810236,4.6754694 -39.84375,4.6757812 Z m 0.02734,2.7617188 h 10.521484 c 1.066492,0 1.925781,0.8592893 1.925781,1.9257813 0,1.0664907 -0.859289,1.9257817 -1.925781,1.9257817 h -10.521484 c -1.066493,0 -1.925782,-0.859291 -1.925782,-1.9257817 0,-1.066492 0.859289,-1.9257803 1.925782,-1.9257813 z"
       style="baseline-shift:baseline;display:inline;overflow:visible;fill:none;stroke:#000000;stroke-width:0.1;stroke-dasharray:none;stroke-opacity:1;enable-background:accumulate;stop-color:#000000;stop-opacity:1"
       id="path5" /><path
       d="m -50.814453,13.181641 c -1.040868,1.43e-4 -1.884622,0.843897 -1.884766,1.884765 v 3.242188 c 1.26506,-0.871517 2.796825,-1.383112 4.449219,-1.382813 h 10.851563 c 2.04141,-2.67e-4 3.983163,-0.882493 5.326171,-2.419922 0.459363,-0.523529 0.993287,-0.963189 1.572266,-1.324218 z"
       style="baseline-shift:baseline;display:inline;overflow:visible;fill:none;stroke:#000000;stroke-width:0.1;stroke-dasharray:none;stroke-opacity:1;enable-background:accumulate;stop-color:#000000;stop-opacity:1"
       id="path4" /><path
       d="m -26.761719,12.107422 c -2.033365,-0.0044 -3.969457,0.870017 -5.310547,2.398437 -1.343008,1.537429 -3.284761,2.419655 -5.326171,2.419922 H -48.25 c -4.33694,-7.86e-4 -7.853223,3.514623 -7.853516,7.851563 V 44 c -7.86e-4,4.337703 3.515813,7.854302 7.853516,7.853516 H -9.9902344 C -5.6532945,51.853223 -2.1378856,48.33694 -2.1386719,44 V 19.958984 c -2.924e-4,-4.336177 -3.5153854,-7.85127 -7.8515625,-7.851562 z"
       style="baseline-shift:baseline;display:inline;overflow:visible;fill:none;stroke:#000000;stroke-width:0.1;stroke-linecap:round;stroke-linejoin:round;stroke-dasharray:none;stroke-opacity:1;enable-background:accumulate;stop-color:#000000;stop-opacity:1"
       id="path3" /></g></g><path
   d="m 42.994141,35.673828 c -0.559832,1.455561 -0.225249,3.022162 -0.113282,3.246094 -0.08797,0.102634 -0.174211,0.218371 -0.259765,0.341797 a 7.0099325,5.7144256 0 0 0 -1.355469,3.353515 7.0099325,5.7144256 0 0 0 2.376953,4.283203 7.0099325,5.7144256 0 0 0 0.04297,0.03516 c 0.507892,0.408514 1.098164,0.762591 1.771484,1.054687 -0.223933,0.223933 -0.448581,1.343829 -0.560547,2.015625 -0.55983,0.223933 -2.127708,0.672994 -3.023437,-0.894531 0,0 -0.558711,-1.009128 -1.566406,-1.121094 0,0 -1.009011,7.9e-5 -0.113282,0.671875 0,0 0.673231,0.112122 1.121094,1.34375 0,0 0.671549,1.904219 3.470703,1.232422 v 1.007813 c 0,0.55983 0.447344,1.007174 1.119141,1.11914 h 3.695312 c 0.559832,0 1.007813,-0.447982 1.007813,-1.007812 v -2.462891 c 0,-0.809283 -0.09205,-1.433805 -0.357422,-1.794922 a 7.0099325,5.7144256 0 0 0 1.505859,-0.537109 c 0.104848,-0.04232 0.207532,-0.09001 0.310547,-0.138672 0.534185,-0.252326 1.041556,-0.587491 1.476563,-1.039063 a 7.0099325,5.7144256 0 0 0 1.742187,-3.767578 7.0099325,5.7144256 0 0 0 -1.564453,-3.597656 c -0.03002,-0.03355 -0.05977,-0.06758 -0.08984,-0.09766 0.111967,-0.335899 0.446551,-1.790533 -0.113281,-3.246094 H 53.40625 c -0.335899,0 -1.231939,0.558711 -2.6875,1.566406 -0.124738,-0.03118 -0.242583,-0.05519 -0.363281,-0.08203 a 7.0099325,5.7144256 0 0 0 -2.080078,-0.257812 7.0099325,5.7144256 0 0 0 -0.154297,0.0098 c -0.197009,0.0037 -0.415425,0.01616 -0.650391,0.03711 a 7.0099325,5.7144256 0 0 0 -0.287109,0.0293 c -0.486521,0.0554 -1.010473,0.140314 -1.503907,0.263672 -1.45556,-1.007695 -2.238321,-1.566406 -2.574218,-1.566406 z"
   style="opacity:0.3"
   id="path1" />
</svg>
