<?xml version="1.0" encoding="UTF-8" standalone="no"?>
<!-- Generator: Adobe Illustrator 25.4.1, SVG Export Plug-In . SVG Version: 6.00 Build 0)  -->

<svg
   version="1.1"
   id="Layer_1"
   x="0px"
   y="0px"
   viewBox="0 0 1499 955.5"
   style="enable-background:new 0 0 1499 955.5;"
   xml:space="preserve"
   sodipodi:docname="FairyWren-Colour.svg"
   inkscape:version="1.3.2 (091e20ef0f, 2023-11-25, custom)"
   xmlns:inkscape="http://www.inkscape.org/namespaces/inkscape"
   xmlns:sodipodi="http://sodipodi.sourceforge.net/DTD/sodipodi-0.dtd"
   xmlns:xlink="http://www.w3.org/1999/xlink"
   xmlns="http://www.w3.org/2000/svg"
   xmlns:svg="http://www.w3.org/2000/svg"><defs
   id="defs11"><linearGradient
     id="linearGradient2"
     inkscape:collect="always"><stop
       style="stop-color:#333333;stop-opacity:1;"
       offset="0"
       id="stop1" /><stop
       style="stop-color:#262626;stop-opacity:1;"
       offset="1"
       id="stop2" /></linearGradient><linearGradient
     id="linearGradient22"
     inkscape:collect="always"><stop
       style="stop-color:#618dff;stop-opacity:1;"
       offset="0"
       id="stop23" /><stop
       style="stop-color:#2e67ff;stop-opacity:1;"
       offset="1"
       id="stop24" /></linearGradient><linearGradient
     id="linearGradient20"
     inkscape:collect="always"><stop
       style="stop-color:#618dff;stop-opacity:1;"
       offset="0"
       id="stop21" /><stop
       style="stop-color:#2e67ff;stop-opacity:1;"
       offset="1"
       id="stop22" /></linearGradient><linearGradient
     id="linearGradient18"
     inkscape:collect="always"><stop
       style="stop-color:#27ceff;stop-opacity:1;"
       offset="0"
       id="stop19" /><stop
       style="stop-color:#4ac6ff;stop-opacity:1;"
       offset="1"
       id="stop20" /></linearGradient><linearGradient
     id="linearGradient16"
     inkscape:collect="always"><stop
       style="stop-color:#27ceff;stop-opacity:1;"
       offset="0"
       id="stop17" /><stop
       style="stop-color:#4ac6ff;stop-opacity:1;"
       offset="1"
       id="stop18" /></linearGradient><radialGradient
     inkscape:collect="always"
     xlink:href="#linearGradient16"
     id="radialGradient18"
     cx="491.01117"
     cy="637.64325"
     fx="491.01117"
     fy="637.64325"
     r="555.85226"
     gradientTransform="matrix(0.76333018,0.64600855,-0.54160936,0.63997105,461.56108,-358.08589)"
     gradientUnits="userSpaceOnUse" /><radialGradient
     inkscape:collect="always"
     xlink:href="#linearGradient18"
     id="radialGradient20"
     cx="491.01117"
     cy="637.64325"
     fx="491.01117"
     fy="637.64325"
     r="555.85226"
     gradientTransform="matrix(0.76333018,0.64600855,-0.54160936,0.63997105,461.56108,-358.08589)"
     gradientUnits="userSpaceOnUse" /><radialGradient
     inkscape:collect="always"
     xlink:href="#linearGradient20"
     id="radialGradient22"
     cx="445.04982"
     cy="436.13472"
     fx="445.04982"
     fy="436.13472"
     r="350.73641"
     gradientTransform="matrix(1,0,0,0.69736209,0,131.9909)"
     gradientUnits="userSpaceOnUse" /><radialGradient
     inkscape:collect="always"
     xlink:href="#linearGradient22"
     id="radialGradient24"
     cx="445.04982"
     cy="436.13472"
     fx="445.04982"
     fy="436.13472"
     r="350.73641"
     gradientTransform="matrix(1,0,0,0.69736209,0,131.9909)"
     gradientUnits="userSpaceOnUse" /><radialGradient
     inkscape:collect="always"
     xlink:href="#linearGradient26"
     id="radialGradient28"
     cx="129.99368"
     cy="348.08768"
     fx="129.99368"
     fy="348.08768"
     r="132.27158"
     gradientTransform="matrix(0.63188842,3.5824481,-2.9254012,0.46403944,1036.1451,-346.76685)"
     gradientUnits="userSpaceOnUse" /><linearGradient
     id="linearGradient26"
     inkscape:collect="always"><stop
       style="stop-color:#94beff;stop-opacity:1;"
       offset="0"
       id="stop27" /><stop
       style="stop-color:#2e67ff;stop-opacity:1;"
       offset="1"
       id="stop28" /></linearGradient><radialGradient
     inkscape:collect="always"
     xlink:href="#linearGradient26"
     id="radialGradient26"
     cx="129.99368"
     cy="348.08768"
     fx="129.99368"
     fy="348.08768"
     r="132.27158"
     gradientTransform="matrix(0.63188842,3.5824481,-2.9254012,0.46403944,1036.1451,-346.76685)"
     gradientUnits="userSpaceOnUse" /><radialGradient
     inkscape:collect="always"
     xlink:href="#linearGradient11"
     id="radialGradient12"
     cx="244.89355"
     cy="240.82286"
     fx="244.89355"
     fy="240.82286"
     r="147.44055"
     gradientTransform="matrix(2.4864427,1.5323532,-0.87540408,1.4204571,-163.14606,-460.6329)"
     gradientUnits="userSpaceOnUse" /><linearGradient
     id="linearGradient11"
     inkscape:collect="always"><stop
       style="stop-color:#53e8ff;stop-opacity:1;"
       offset="0"
       id="stop11" /><stop
       style="stop-color:#4ac6ff;stop-opacity:1;"
       offset="0.32617188"
       id="stop12" /></linearGradient><radialGradient
     inkscape:collect="always"
     xlink:href="#linearGradient12"
     id="radialGradient14"
     cx="159.57385"
     cy="201.75441"
     fx="159.57385"
     fy="201.75441"
     r="192.96225"
     gradientTransform="matrix(0.92051342,0.46716964,-0.63144569,1.2484345,131.58903,-161.26192)"
     gradientUnits="userSpaceOnUse" /><linearGradient
     id="linearGradient12"
     inkscape:collect="always"><stop
       style="stop-color:#7adfff;stop-opacity:1;"
       offset="0"
       id="stop13" /><stop
       style="stop-color:#4ac6ff;stop-opacity:1;"
       offset="1"
       id="stop14" /></linearGradient><radialGradient
     inkscape:collect="always"
     xlink:href="#linearGradient12"
     id="radialGradient16"
     cx="203.26047"
     cy="187.68758"
     fx="203.26047"
     fy="187.68758"
     r="192.96225"
     gradientTransform="matrix(0.92051342,0.46716964,-0.63144569,1.2484345,82.492462,-164.10948)"
     gradientUnits="userSpaceOnUse" /><radialGradient
     inkscape:collect="always"
     xlink:href="#linearGradient1"
     id="radialGradient2"
     cx="519.04053"
     cy="315.43475"
     fx="519.04053"
     fy="315.43475"
     r="83.547951"
     gradientTransform="matrix(0.46613859,0,0,0.45837867,2.2613387,39.097994)"
     gradientUnits="userSpaceOnUse" /><linearGradient
     id="linearGradient1"
     inkscape:collect="always"><stop
       style="stop-color:#333333;stop-opacity:1;"
       offset="0"
       id="stop5" /><stop
       style="stop-color:#262626;stop-opacity:1;"
       offset="1"
       id="stop6" /></linearGradient><radialGradient
     inkscape:collect="always"
     xlink:href="#linearGradient2"
     id="radialGradient4"
     cx="519.04053"
     cy="315.43475"
     fx="519.04053"
     fy="315.43475"
     r="83.547951"
     gradientTransform="matrix(0.46613859,0,0,0.45837867,2.2613387,39.097994)"
     gradientUnits="userSpaceOnUse" /></defs><sodipodi:namedview
   id="namedview11"
   pagecolor="#ffffff"
   bordercolor="#000000"
   borderopacity="0.25"
   inkscape:showpageshadow="2"
   inkscape:pageopacity="0.0"
   inkscape:pagecheckerboard="0"
   inkscape:deskcolor="#d1d1d1"
   inkscape:zoom="0.55002435"
   inkscape:cx="866.32528"
   inkscape:cy="532.70369"
   inkscape:window-width="1920"
   inkscape:window-height="1028"
   inkscape:window-x="0"
   inkscape:window-y="0"
   inkscape:window-maximized="1"
   inkscape:current-layer="Colour" />
<style
   type="text/css"
   id="style1">
	.st0{fill:#333333;}
	.st1{fill:#333333;stroke:#333333;stroke-width:10;stroke-miterlimit:10;}
	.st2{fill:#618DFF;stroke:#618DFF;stroke-width:10;stroke-miterlimit:10;}
	.st3{fill:#7ADFFF;stroke:#7ADFFF;stroke-width:10;stroke-miterlimit:10;}
	.st4{fill:#94BEFF;stroke:#94BEFF;stroke-width:10;stroke-miterlimit:10;}
	.st5{fill:#7FEEFF;}
</style>
<g
   id="Colour">
	<path
   class="st0"
   d="M428.7,599.7c4.1,74.4,0.4,157.8-8.5,231.8c2,13.3-53.1,40.2-60.2,47.6l53-17.6c8-1-13.1,31.8-12.5,33.7   c3-1.9,35.9-35.1,39.3-33.4h21c-5.1-7.7-21.3-19.7-19.6-30.3c1.5-31.1,4-111.2,7.1-140.9l8.4-90.2   C458.9,576.9,427.3,575.8,428.7,599.7z"
   id="path1" />
	<path
   class="st0"
   d="M607.3,626c4.1,74.4,0.4,157.8-8.5,231.8c2,13.3-53.1,40.2-60.2,47.6l53-17.6c8-1-13.2,31.8-12.5,33.7   c3-1.9,35.9-35.1,39.3-33.4h21c-5.1-7.7-21.3-19.7-19.7-30.3c1.6-31.1,4-111.2,7.1-140.9l8.4-90.2C637.6,603.1,606,602.1,607.3,626   z"
   id="path2" />
	<path
   class="st1"
   d="M724.9,350.6c202.3-79.1,490.7-155.4,704.3-186.8c22.2,5.6,27,10.6,27.1,14.3c0.2,6-12.2,8-17.1,18.5   c-4.5,9.7-0.2,21.4,4.3,29.9c-204.7,31.2-469.4,97.3-668.7,168.2L724.9,350.6z"
   id="path3" />
	<path
   class="st2"
   d="M789.7,396.2c-1,372.7-688.5,372.7-689.4,0C68.2,132.8,823.4,127.2,789.7,396.2z"
   id="path4"
   style="fill:url(#radialGradient22);stroke:url(#radialGradient24)" />
	<path
   class="st1"
   d="M665.7,258.8c76.3,14.3,92.4,15.4,267.7,157.1c-151.3-23.4-212.4,35.9-334.8,55.3   C265.7,524.1,360.4,201.5,665.7,258.8z"
   id="path5"
   style="fill:#333333;fill-opacity:1" />
	<path
   class="st3"
   d="M799.7,294.7C633.4,165,442.2,132.1,391.4,152.4C265.6,579.1,710.3,343.5,885.4,373.7   c-9.7-10.6-19.7-20.8-29.8-30.6c-15.2-14.6,416.6-119.3,613.3-149.3c-18-43.3,20-34.3-14.2-62.7   C1240.9,162.5,799.7,294.7,799.7,294.7z"
   id="path6"
   style="stroke:url(#radialGradient18);fill:url(#radialGradient20)" />
	
	
	
	
	
<path
   class="st1"
   d="M 123.43385,222.77549 C 90.971787,231.32319 24.511005,207.69696 24.511005,207.69696 51.882856,191.46593 82.135965,183.01427 107.49095,172.44969 261.92614,110.83866 443.27052,66.122637 475.5868,186.49779 543.87193,440.85317 222.37909,605.3714 105.38981,446.4186 75.277156,405.50466 156.088,383.45309 155.22363,302.39398 c 1.82478,-35.82351 -14.88645,-58.29725 -29.00457,-79.04224 z"
   id="path7-3"
   style="fill:#333333;fill-opacity:1;stroke:#333333;stroke-width:9.60418;stroke-miterlimit:10"
   sodipodi:nodetypes="cccssccc" /><path
   class="st4"
   d="m 89.362893,231.38294 c 10.767987,43.67233 10.5757,78.59198 8.172134,102.84427 C 42.54138,562.70928 308.56837,459.40911 332.79634,347.81213 327.5085,329.6685 297.80038,336.23303 246.84473,297.39291 190.79351,247.42956 180.60237,225.1831 89.362893,231.38294 Z"
   id="path8"
   style="fill:url(#radialGradient28);stroke:url(#radialGradient26);stroke-width:9.36258;stroke-miterlimit:10" /><path
   class="st5"
   d="m 467.70549,233.44123 c -27.09637,128.57455 -97.33001,203.81292 -283.36976,7.18413 -7.43242,-33.91766 304.31811,-106.48849 283.36976,-7.18413 z"
   id="path9-6"
   style="fill:url(#radialGradient12);fill-opacity:1;stroke-width:0.960418"
   inkscape:transform-center-x="-15.853047"
   inkscape:transform-center-y="8.9803916" /><path
   class="st3"
   d="M 101.91798,170.85486 C 152.4494,24.765949 342.8771,22.748949 457.6515,148.85988 c -22.24532,5.95498 -45.16184,9.6048 -68.17426,10.85343 -40.65527,1.92096 -56.08651,-1.69778 -83.65369,-0.47039 -39.07945,4.79518 -43.92573,4.86241 -83.23434,22.78118 -32.31327,10.85342 -24.44301,16.34562 -59.49657,16.58863 -28.09433,-6.24313 -49.18904,-14.40721 -61.17466,-27.75787 z"
   id="path10"
   style="fill:url(#radialGradient14);stroke:url(#radialGradient16);stroke-width:9.60418;stroke-miterlimit:10"
   sodipodi:nodetypes="ccccccc" /><path
   class="st1"
   d="m 278.34895,183.68656 c -0.19208,44.65935 -68.09349,44.65935 -68.28557,0 0.19208,-44.65935 68.09349,-44.65935 68.28557,0 z"
   id="path11"
   style="fill:url(#radialGradient2);stroke:url(#radialGradient4);stroke-width:9.60418;stroke-miterlimit:10" /></g>
</svg>
